<svg version="1.1" xmlns="http://www.w3.org/2000/svg" xmlns:xlink="http://www.w3.org/1999/xlink" width="213.18203" height="318.67562" viewBox="0,0,213.18203,318.67562"><defs><radialGradient cx="348.39311" cy="138.81922" r="23.96061" gradientUnits="userSpaceOnUse" id="color-1"><stop offset="0" stop-color="#ffffff"/><stop offset="1" stop-color="#ff9494"/></radialGradient></defs><g transform="translate(-214.52362,-0.39667)"><g stroke-miterlimit="10"><path d="M214.52362,306.61253v-267.72501c0,0 32.72627,0 56.15261,0c39.17509,0 157.02942,0 157.02942,0v267.72501z" fill="none" stroke="none" stroke-width="0" stroke-linecap="butt"/><g stroke-width="0" stroke-linecap="butt"><path d="M346.75,53c0,2.20914 -1.34315,4 -3,4c-1.65685,0 -3,-1.79086 -3,-4c0,-2.20914 1.34315,-4 3,-4c1.65685,0 3,1.79086 3,4z" fill="#942c3b" stroke="none"/><path d="M353.25,56.5c0,1.38071 -1.45507,2.5 -3.25,2.5c-1.79493,0 -3.25,-1.11929 -3.25,-2.5c0,-1.38071 1.45507,-2.5 3.25,-2.5c1.79493,0 3.25,1.11929 3.25,2.5z" fill="#942c3b" stroke="none"/><path d="M358.75,54.125c0,1.86396 -1.00736,3.375 -2.25,3.375c-1.24264,0 -2.25,-1.51104 -2.25,-3.375c0,-1.86396 1.00736,-3.375 2.25,-3.375c1.24264,0 2.25,1.51104 2.25,3.375z" fill="#942c3b" stroke="none"/><path d="M365.75,63.375c0,3.1066 -0.72754,5.625 -1.625,5.625c-0.89746,0 -1.625,-2.5184 -1.625,-5.625c0,-3.1066 0.72754,-5.625 1.625,-5.625c0.89746,0 1.625,2.5184 1.625,5.625z" fill="#942c3b" stroke="none"/><path d="M373.5,73.5c0,0.9665 -0.89543,1.75 -2,1.75c-1.10457,0 -2,-0.7835 -2,-1.75c0,-0.9665 0.89543,-1.75 2,-1.75c1.10457,0 2,0.7835 2,1.75z" fill="#942c3b" stroke="none"/><path d="M381,75.25c0,1.10457 -0.72754,2 -1.625,2c-0.89746,0 -1.625,-0.89543 -1.625,-2c0,-1.10457 0.72754,-2 1.625,-2c0.89746,0 1.625,0.89543 1.625,2z" fill="#942c3b" stroke="none"/><path d="M389.5,74.5c0,1.38071 -1.00736,2.5 -2.25,2.5c-1.24264,0 -2.25,-1.11929 -2.25,-2.5c0,-1.38071 1.00736,-2.5 2.25,-2.5c1.24264,0 2.25,1.11929 2.25,2.5z" fill="#942c3b" stroke="none"/><path d="M369.5,71.125c0,2.27817 -0.7835,4.125 -1.75,4.125c-0.9665,0 -1.75,-1.84683 -1.75,-4.125c0,-2.27817 0.7835,-4.125 1.75,-4.125c0.9665,0 1.75,1.84683 1.75,4.125z" fill="#942c3b" stroke="none"/><path d="M351,55.25c0,1.933 -1.79086,3.5 -4,3.5c-2.20914,0 -4,-1.567 -4,-3.5c0,-1.933 1.79086,-3.5 4,-3.5c2.20914,0 4,1.567 4,3.5z" fill="#942c3b" stroke="none"/><path d="M357.5,55.25c0,1.24264 -1.17525,2.25 -2.625,2.25c-1.44975,0 -2.625,-1.00736 -2.625,-2.25c0,-1.24264 1.17525,-2.25 2.625,-2.25c1.44975,0 2.625,1.00736 2.625,2.25z" fill="#942c3b" stroke="none"/><path d="M347.25,52.625c0,1.44975 -1.84683,2.625 -4.125,2.625c-2.27817,0 -4.125,-1.17525 -4.125,-2.625c0,-1.44975 1.84683,-2.625 4.125,-2.625c2.27817,0 4.125,1.17525 4.125,2.625z" fill="#942c3b" stroke="none"/><path d="M367.25,66.875c0,1.31168 -0.7835,2.375 -1.75,2.375c-0.9665,0 -1.75,-1.06332 -1.75,-2.375c0,-1.31168 0.7835,-2.375 1.75,-2.375c0.9665,0 1.75,1.06332 1.75,2.375z" fill="#942c3b" stroke="none"/><path d="M373.75,74.125c0,1.03553 -1.00736,1.875 -2.25,1.875c-1.24264,0 -2.25,-0.83947 -2.25,-1.875c0,-1.03553 1.00736,-1.875 2.25,-1.875c1.24264,0 2.25,0.83947 2.25,1.875z" fill="#942c3b" stroke="none"/><path d="M378.5,75.875c0,0.48325 -0.55964,0.875 -1.25,0.875c-0.69036,0 -1.25,-0.39175 -1.25,-0.875c0,-0.48325 0.55964,-0.875 1.25,-0.875c0.69036,0 1.25,0.39175 1.25,0.875z" fill="#942c3b" stroke="none"/><path d="M385.5,75.125c0,0.89746 -0.89543,1.625 -2,1.625c-1.10457,0 -2,-0.72754 -2,-1.625c0,-0.89746 0.89543,-1.625 2,-1.625c1.10457,0 2,0.72754 2,1.625z" fill="#942c3b" stroke="none"/><path d="M376.75,76.25c0,1.10457 -1.23122,2 -2.75,2c-1.51878,0 -2.75,-0.89543 -2.75,-2c0,-1.10457 1.23122,-2 2.75,-2c1.51878,0 2.75,0.89543 2.75,2z" fill="#942c3b" stroke="none"/><path d="M372.5,73.75c0,1.10457 -1.11929,2 -2.5,2c-1.38071,0 -2.5,-0.89543 -2.5,-2c0,-1.10457 1.11929,-2 2.5,-2c1.38071,0 2.5,0.89543 2.5,2z" fill="#942c3b" stroke="none"/><path d="M365,58.625c0,2.27817 -1.28718,4.125 -2.875,4.125c-1.58782,0 -2.875,-1.84683 -2.875,-4.125c0,-2.27817 1.28718,-4.125 2.875,-4.125c1.58782,0 2.875,1.84683 2.875,4.125z" fill="#942c3b" stroke="none"/><g><path d="M324.13648,95.8953c0,0 5.28474,-25.08936 15.2615,-49.54839c1.13955,3.5376 2.10283,6.1229 5.32407,8.26898c2.91057,1.9391 7.18106,2.39718 10.16488,0.58962c1.20366,-1.39862 2.38457,-2.8147 3.61603,-4.18909c0.3979,-0.44409 0.51459,-1.52883 1.09916,-1.41128c0.91086,0.18316 0.49142,1.79345 0.79576,2.67129c1.12855,3.25525 1.66012,6.94078 3.20652,9.99496c1.34232,3.25814 2.79367,6.45694 4.88759,9.29947c1.3178,1.51715 3.68345,4.57303 5.82676,4.91558c0.78292,0.12513 2.22726,-0.58932 2.9985,-0.80147c1.92562,-0.5297 3.939,-0.93862 5.77169,-1.73475c0.37822,-0.1643 1.65158,-1.31671 1.9983,-1.25336c0.21164,0.03867 0.97847,1.22517 1.15808,1.43437c1.70504,1.98591 3.48928,3.35692 5.57399,4.4895c-8.78534,21.25426 -19.08086,38.46596 -19.08086,38.46596z" fill="#90003f" stroke="#000000"/><path d="M350.29869,99.91226c-12.16037,-5.55573 -9.08037,-24.23951 -2.09867,-43.83019c2.28991,0.51376 4.75742,0.2923 6.68691,-0.87656c1.20366,-1.39862 2.38457,-2.8147 3.61603,-4.18909c0.3979,-0.44409 0.51459,-1.52883 1.09916,-1.41128c0.91086,0.18316 0.49142,1.79345 0.79576,2.67129c1.12855,3.25525 1.66012,6.94078 3.20652,9.99496c1.34232,3.25814 2.79367,6.45694 4.88759,9.29947c1.3178,1.51715 3.68345,4.57303 5.82676,4.91558c0.78292,0.12513 2.22726,-0.58932 2.9985,-0.80147c1.71686,-0.47227 3.5035,-0.84854 5.16962,-1.48883c-7.37998,17.80514 -16.58567,32.84448 -32.18817,25.71614z" fill="#979797" stroke="none"/></g></g><g stroke-linecap="butt"><path d="M286.35186,319.07227l15.14285,-131.8421l37.78325,-0.15789l13.57389,132z" fill="#ff7be1" stroke="#000000" stroke-width="0"/><path d="M295.71805,237.52505c2.15708,-18.7807 5.77666,-50.29488 5.77666,-50.29488l37.78325,-0.15789c0,0 3.28924,31.98633 5.23687,50.9262c0.02964,0.28827 -48.85132,0.00137 -48.79678,-0.47343z" fill="#da5cb1" stroke="#000000" stroke-width="0"/><path d="M296.84284,227.73195c1.86161,-16.20821 4.65187,-40.50179 4.65187,-40.50179l37.78325,-0.15789c0,0 2.56747,24.96751 4.26234,41.44929c0.012,0.11664 -46.73189,-0.4898 -46.69745,-0.78961z" fill="#940039" stroke="#000000" stroke-width="0"/><path d="M297.87936,218.70743c1.54499,-13.4516 3.61535,-31.47726 3.61535,-31.47726l37.78325,-0.15789c0,0 1.83438,17.83861 3.20887,31.20479c0.02236,0.21738 -44.62599,0.59162 -44.60746,0.43036z" fill="#7c0000" stroke="#000000" stroke-width="0"/><path d="M301.83333,219.16667c0,0.69036 -0.55964,1.25 -1.25,1.25c-0.08006,0 -0.15835,-0.00753 -0.23422,-0.02191c-0.18689,0.06809 -0.38867,0.10524 -0.59911,0.10524c-0.9665,0 -1.75,-0.7835 -1.75,-1.75c0,-0.9665 0.7835,-1.75 1.75,-1.75c0.79013,0 1.45796,0.52364 1.67538,1.24283c0.25067,0.2286 0.40795,0.55785 0.40795,0.92384z" fill="#7c0000" stroke="none" stroke-width="0.5"/><path d="M339,222.83334c0,-0.08608 0.00871,-0.17014 0.02528,-0.25133c-0.66341,-0.03033 -1.19194,-0.57778 -1.19194,-1.24867c0,-0.53959 0.34189,-0.99932 0.82087,-1.1744c-0.14747,-0.07149 -0.28339,-0.16308 -0.4042,-0.27121c-0.30961,0.27711 -0.71846,0.44561 -1.16667,0.44561c-0.27463,0 -0.53449,-0.06327 -0.76579,-0.17601c-0.31643,0.3148 -0.7526,0.50934 -1.23421,0.50934c-0.74683,0 -1.38439,-0.46782 -1.63563,-1.1264c-0.22531,0.32798 -0.60305,0.54307 -1.03104,0.54307c-0.69036,0 -1.25,-0.55964 -1.25,-1.25c0,-0.69036 0.55964,-1.25 1.25,-1.25c0.45596,0 0.85489,0.24412 1.07323,0.60879c0.27551,-0.60493 0.88536,-1.02546 1.59343,-1.02546c0.27463,0 0.53449,0.06327 0.76579,0.17601c0.31643,-0.3148 0.7526,-0.50934 1.23421,-0.50934c0.4482,0 0.85706,0.1685 1.16667,0.44561c0.30961,-0.27711 0.71846,-0.44561 1.16667,-0.44561c0.31544,0 0.61138,0.08345 0.86696,0.22949c0.14848,-0.04095 0.30488,-0.06283 0.46638,-0.06283c0.9665,0 1.75,0.7835 1.75,1.75c0,0.9665 -0.7835,1.75 -1.75,1.75c-0.31544,0 -0.61138,-0.08345 -0.86696,-0.22949c-0.03386,0.00933 -0.06812,0.01768 -0.10276,0.025c0.33359,0.22447 0.55305,0.60552 0.55305,1.03783c0,0.08608 -0.0087,0.17014 -0.02527,0.25133c0.66341,0.03033 1.19194,0.57778 1.19194,1.24867c0,0.69036 -0.55964,1.25 -1.25,1.25c-0.69036,0 -1.25,-0.55964 -1.25,-1.25z" fill="#7c0000" stroke="none" stroke-width="0.5"/><path d="M320.5,218.91667c0,-0.9665 0.7835,-1.75 1.75,-1.75c0.77188,0 1.42703,0.49973 1.65959,1.19329c0.30466,-0.51477 0.86556,-0.85996 1.50708,-0.85996c0.59378,0 1.11849,0.29573 1.43488,0.74793c0.26263,-0.15743 0.56997,-0.24793 0.89845,-0.24793c0.9665,0 1.75,0.7835 1.75,1.75c0,0.9665 -0.7835,1.75 -1.75,1.75c-0.59378,0 -1.11849,-0.29573 -1.43488,-0.74793c-0.26263,0.15743 -0.56997,0.24793 -0.89845,0.24793c-0.77188,0 -1.42703,-0.49972 -1.65959,-1.19329c-0.02801,0.04734 -0.0582,0.09324 -0.09041,0.13757c-0.31809,0.43777 -0.83414,0.72239 -1.41667,0.72239c-0.9665,0 -1.75,-0.7835 -1.75,-1.75z" fill="#7c0000" stroke="none" stroke-width="0.5"/><path d="M316.83333,218.25c0,-0.9665 0.7835,-1.75 1.75,-1.75c0.9665,0 1.75,0.7835 1.75,1.75c0,0.9665 -0.7835,1.75 -1.75,1.75c-0.9665,0 -1.75,-0.7835 -1.75,-1.75z" fill="#7c0000" stroke="none" stroke-width="0.5"/><path d="M313.16667,219c0,0.69036 -0.55964,1.25 -1.25,1.25c-0.38125,0 -0.72264,-0.17068 -0.95191,-0.4398c-0.37514,-0.0615 -0.71013,-0.24228 -0.96476,-0.50212c-0.31763,0.32414 -0.76033,0.52526 -1.25,0.52526c-0.60066,0 -1.13063,-0.30262 -1.44579,-0.76371c-0.13586,0.73612 -0.73241,1.31079 -1.47951,1.41386c-0.02902,0.0292 -0.05906,0.05739 -0.09006,0.08449c-0.32079,0.36692 -0.79232,0.59868 -1.31798,0.59868c-0.9665,0 -1.75,-0.7835 -1.75,-1.75c0,-0.52566 0.23177,-0.99719 0.59869,-1.31797c0.27081,-0.30976 0.64905,-0.52319 1.0766,-0.58218c0.317,-0.31901 0.75612,-0.51651 1.24138,-0.51651c0.60066,0 1.13063,0.30262 1.44579,0.7637c0.15021,-0.81386 0.86355,-1.43036 1.72088,-1.43036c0.48967,0 0.93237,0.20111 1.25,0.52525c0.31763,-0.32414 0.76033,-0.52525 1.25,-0.52525c0.9665,0 1.75,0.7835 1.75,1.75c0,0.08849 -0.00657,0.17546 -0.01925,0.26042c0.02053,0.03322 0.03955,0.06748 0.05696,0.10267c-0.02472,-0.11714 -0.03771,-0.2386 -0.03771,-0.36309c0,-0.9665 0.7835,-1.75 1.75,-1.75c0.9665,0 1.75,0.7835 1.75,1.75c0,0.9665 -0.7835,1.75 -1.75,1.75c-0.71424,0 -1.32854,-0.42789 -1.60055,-1.0413c0.01132,0.06763 0.01722,0.13711 0.01722,0.20797z" fill="#7c0000" stroke="none" stroke-width="0.5"/><path d="M298.91667,229.58334c-0.02563,0 -0.05108,-0.00078 -0.07632,-0.0023c-0.02992,0.00152 -0.06005,0.0023 -0.09035,0.0023c-0.9665,0 -1.75,-0.7835 -1.75,-1.75c0,-0.9665 0.7835,-1.75 1.75,-1.75c0.05622,0 0.11181,0.00264 0.16667,0.00783c0.05486,-0.00519 0.11045,-0.00783 0.16667,-0.00783c0.41194,0 0.79063,0.14232 1.08958,0.38049c0.31858,-0.43292 0.83169,-0.71383 1.41042,-0.71383c0.32128,0 0.62234,0.08658 0.88112,0.23768c0.30332,-0.25249 0.69337,-0.40435 1.11888,-0.40435c0.9665,0 1.75,0.7835 1.75,1.75c0,0.10863 -0.0099,0.21496 -0.02884,0.31811c0.26583,-0.62772 0.88758,-1.06811 1.61218,-1.06811c0.9665,0 1.75,0.7835 1.75,1.75c0,0.9665 -0.7835,1.75 -1.75,1.75c-0.9665,0 -1.75,-0.7835 -1.75,-1.75c0,-0.10863 0.0099,-0.21496 0.02884,-0.31811c-0.26583,0.62772 -0.88758,1.06811 -1.61218,1.06811c-0.32128,0 -0.62235,-0.08658 -0.88113,-0.23768c-0.30332,0.25249 -0.69336,0.40435 -1.11887,0.40435c-0.41194,0 -0.79064,-0.14233 -1.08959,-0.3805c-0.31858,0.43292 -0.83168,0.71384 -1.41041,0.71384c-0.0303,0 -0.06042,-0.00078 -0.09034,-0.0023c-0.02524,0.00152 -0.0507,0.0023 -0.07632,0.0023z" fill="#940039" stroke="none" stroke-width="0.5"/><path d="M317.33333,229.16667c0,0.69036 -0.55964,1.25 -1.25,1.25c-0.26632,0 -0.5132,-0.08329 -0.71599,-0.22525c-0.14379,0.03822 -0.29485,0.05858 -0.45067,0.05858c-0.53411,0 -1.01234,-0.23928 -1.33333,-0.61649c-0.18225,-0.21418 -0.31382,-0.47281 -0.37614,-0.75736c-0.01568,-0.00343 -0.03129,-0.00709 -0.04681,-0.01094c0.10989,0.18606 0.17295,0.40306 0.17295,0.63479c0,0.69036 -0.55964,1.25 -1.25,1.25c-0.69036,0 -1.25,-0.55964 -1.25,-1.25c0,-0.21707 0.05533,-0.42122 0.15266,-0.59911c-0.07718,0.0104 -0.15596,0.01577 -0.236,0.01577c-0.9665,0 -1.75,-0.7835 -1.75,-1.75c0,-0.9665 0.7835,-1.75 1.75,-1.75c0.58252,0 1.09858,0.28462 1.41667,0.72239c0.31809,-0.43777 0.83414,-0.72239 1.41667,-0.72239c0.83738,0 1.53738,0.58814 1.70947,1.37386c0.63272,0.13859 1.1373,0.61948 1.30983,1.23879c0.43114,0.19717 0.73069,0.63228 0.73069,1.13735zM312.16667,228.19428c-0.01387,0.01908 -0.02811,0.03787 -0.04272,0.05636c0.03039,0.00097 0.0605,0.00303 0.0903,0.00613c-0.01632,-0.02046 -0.03218,-0.0413 -0.04758,-0.0625z" fill="#940039" stroke="none" stroke-width="0.5"/><path d="M320.83333,230c0,-0.17574 0.03626,-0.343 0.10172,-0.49472c-0.16381,0.05073 -0.3379,0.07806 -0.51838,0.07806c-0.9665,0 -1.75,-0.7835 -1.75,-1.75c0,-0.9665 0.7835,-1.75 1.75,-1.75c0.86161,0 1.5778,0.62268 1.72309,1.44259c0.27227,-0.17464 0.59609,-0.27592 0.94358,-0.27592c0.9665,0 1.75,0.7835 1.75,1.75c0,0.96647 -0.78346,1.74995 -1.74991,1.75c-0.22805,0.30361 -0.59114,0.5 -1.00009,0.5c-0.69036,0 -1.25,-0.55964 -1.25,-1.25z" fill="#940039" stroke="none" stroke-width="0.5"/><path d="M330.08333,226.58334c0.9665,0 1.75,0.7835 1.75,1.75c0,0.0779 -0.00509,0.15461 -0.01495,0.22982c0.00978,0.08507 0.01495,0.17505 0.01495,0.27018c0,1.75 -1.75,1.75 -1.75,1.75h-2.16667c0,0 -1.75,0 -1.75,-1.75c0,-1.75 1.75,-1.75 1.75,-1.75h0.94192c0.31563,-0.30929 0.74792,-0.5 1.22474,-0.5z" fill="#940039" stroke="none" stroke-width="0.5"/><path d="M343.33334,228.83334c0,0.69036 -0.55964,1.25 -1.25,1.25c-0.02738,0 -0.05455,-0.00088 -0.0815,-0.00261c-0.22778,0.10853 -0.48272,0.16928 -0.75184,0.16928c-0.4553,0 -0.86999,-0.17388 -1.18129,-0.45884c-0.20151,0.08096 -0.42158,0.12551 -0.65204,0.12551c-0.4482,0 -0.85706,-0.1685 -1.16667,-0.44561c-0.30961,0.27711 -0.71846,0.44561 -1.16667,0.44561c-0.52566,0 -0.99719,-0.23176 -1.31798,-0.59868c-0.21017,0.73075 -0.88367,1.26535 -1.68202,1.26535c-0.9665,0 -1.75,-0.7835 -1.75,-1.75c0,-0.9665 0.7835,-1.75 1.75,-1.75c0.52566,0 0.99719,0.23176 1.31798,0.59868c0.21017,-0.73075 0.88367,-1.26535 1.68202,-1.26535c0.4482,0 0.85706,0.1685 1.16667,0.44561c0.30961,-0.27711 0.71846,-0.44561 1.16667,-0.44561c0.4553,0 0.86999,0.17388 1.18129,0.45884c0.20151,-0.08096 0.42158,-0.12551 0.65204,-0.12551c0.7459,0 1.38281,0.46667 1.6347,1.12396c0.27422,0.2293 0.44864,0.57397 0.44864,0.95937z" fill="#940039" stroke="none" stroke-width="0.5"/><path d="M295.66667,238.16667c0,-0.9665 0.7835,-1.75 1.75,-1.75c0.9665,0 1.75,0.7835 1.75,1.75c0,0.9665 -0.7835,1.75 -1.75,1.75c-0.9665,0 -1.75,-0.7835 -1.75,-1.75z" fill="#da5cb1" stroke="none" stroke-width="0.5"/><path d="M300.66667,238.16667c0,-0.9665 0.7835,-1.75 1.75,-1.75c0.9665,0 1.75,0.7835 1.75,1.75c0,0.9665 -0.7835,1.75 -1.75,1.75c-0.9665,0 -1.75,-0.7835 -1.75,-1.75z" fill="#da5cb1" stroke="none" stroke-width="0.5"/><path d="M310.25,236.25c0.9665,0 1.75,0.7835 1.75,1.75c0,0.9665 -0.7835,1.75 -1.75,1.75c-0.77985,0 -1.44056,-0.51011 -1.66667,-1.21487c-0.22611,0.70476 -0.88681,1.21487 -1.66667,1.21487c-0.9665,0 -1.75,-0.7835 -1.75,-1.75c0,-0.9665 0.7835,-1.75 1.75,-1.75c0.77985,0 1.44056,0.51011 1.66667,1.21487c0.22611,-0.70476 0.88681,-1.21487 1.66667,-1.21487z" fill="#da5cb1" stroke="none" stroke-width="0.5"/><path d="M318.16667,238.83334c0,0.69036 -0.55964,1.25 -1.25,1.25c-0.2814,0 -0.54109,-0.09299 -0.75,-0.24991c-0.00005,0.69031 -0.55968,1.24991 -1.25,1.24991c-0.69036,0 -1.25,-0.55964 -1.25,-1.25c0,-0.14936 0.02619,-0.29261 0.07424,-0.42539c-0.88397,-0.08815 -1.57424,-0.8341 -1.57424,-1.74129c0,-0.9665 0.7835,-1.75 1.75,-1.75c0.20175,0 0.39553,0.03414 0.57587,0.09696c0.26819,-0.16709 0.58489,-0.26362 0.92413,-0.26362c0.9665,0 1.75,0.7835 1.75,1.75c0,0.03616 -0.0011,0.07206 -0.00326,0.10768c0.57218,0.11455 1.00326,0.61977 1.00326,1.22566z" fill="#da5cb1" stroke="none" stroke-width="0.5"/><path d="M319.16667,237.33334c0,-0.9665 0.7835,-1.75 1.75,-1.75c0.9665,0 1.75,0.7835 1.75,1.75c0,0.9665 -0.7835,1.75 -1.75,1.75c-0.9665,0 -1.75,-0.7835 -1.75,-1.75z" fill="#da5cb1" stroke="none" stroke-width="0.5"/><path d="M322.83333,240c0,-0.58454 0.40124,-1.07538 0.94333,-1.21211c-0.46837,-0.31403 -0.77666,-0.84829 -0.77666,-1.45456c0,-0.9665 0.7835,-1.75 1.75,-1.75c0.9665,0 1.75,0.7835 1.75,1.75c0,0.90781 -0.69125,1.65418 -1.57611,1.74147c0.25153,0.22866 0.40945,0.55848 0.40945,0.9252c0,0.69036 -0.55964,1.25 -1.25,1.25c-0.69036,0 -1.25,-0.55964 -1.25,-1.25z" fill="#da5cb1" stroke="none" stroke-width="0.5"/><path d="M326.5,237c0,-0.9665 0.7835,-1.75 1.75,-1.75c0.9665,0 1.75,0.7835 1.75,1.75c0,0.9665 -0.7835,1.75 -1.75,1.75c-0.9665,0 -1.75,-0.7835 -1.75,-1.75z" fill="#da5cb1" stroke="none" stroke-width="0.5"/><path d="M336.58334,236.41667c0.9665,0 1.75,0.7835 1.75,1.75c0,0.9665 -0.7835,1.75 -1.75,1.75c-0.67289,0 -1.25708,-0.37977 -1.54992,-0.93668c-0.31462,0.46463 -0.84669,0.77001 -1.45008,0.77001c-0.9665,0 -1.75,-0.7835 -1.75,-1.75c0,-0.9665 0.7835,-1.75 1.75,-1.75c0.67289,0 1.25707,0.37978 1.54991,0.93668c0.31462,-0.46463 0.8467,-0.77002 1.45009,-0.77002z" fill="#da5cb1" stroke="none" stroke-width="0.5"/><path d="M342.91667,236.08334c0.9665,0 1.75,0.7835 1.75,1.75c0,0.9665 -0.7835,1.75 -1.75,1.75c-0.618,0 -1.16118,-0.32034 -1.47255,-0.80403c-0.31269,0.292 -0.73253,0.4707 -1.19412,0.4707c-0.9665,0 -1.75,-0.7835 -1.75,-1.75c0,-0.9665 0.7835,-1.75 1.75,-1.75c0.618,0 1.16118,0.32034 1.47255,0.80403c0.31269,-0.29199 0.73253,-0.4707 1.19412,-0.4707z" fill="#da5cb1" stroke="none" stroke-width="0.5"/><path d="M303.6005,221.94012c0.72655,1.01717 -0.29062,1.74371 -0.29062,1.74371l-1.16667,0.83333c0,0 -1.01717,0.72655 -1.74372,-0.29062c-0.72655,-1.01717 0.29062,-1.74372 0.29062,-1.74372l1.16667,-0.83334c0,0 1.01717,-0.72654 1.74372,0.29062z" fill="#7c0000" stroke="none" stroke-width="0.5"/><path d="M316.83333,221.83334c0,-0.69036 0.55964,-1.25 1.25,-1.25c0.69036,0 1.25,0.55964 1.25,1.25c0,0.69036 -0.55964,1.25 -1.25,1.25c-0.69036,0 -1.25,-0.55964 -1.25,-1.25z" fill="#7c0000" stroke="none" stroke-width="0.5"/><path d="M319.5,222.83334c0,-0.69036 0.55964,-1.25 1.25,-1.25c0.69036,0 1.25,0.55964 1.25,1.25c0,0.69036 -0.55964,1.25 -1.25,1.25c-0.69036,0 -1.25,-0.55964 -1.25,-1.25z" fill="#7c0000" stroke="none" stroke-width="0.5"/><path d="M328.16667,222.83334c0,-0.69036 0.55964,-1.25 1.25,-1.25c0.69036,0 1.25,0.55964 1.25,1.25c0,0.69036 -0.55964,1.25 -1.25,1.25c-0.69036,0 -1.25,-0.55964 -1.25,-1.25z" fill="#7c0000" stroke="none" stroke-width="0.5"/><path d="M299.66667,232.66667c0,-0.69036 0.55964,-1.25 1.25,-1.25c0.69036,0 1.25,0.55964 1.25,1.25c0,0.69036 -0.55964,1.25 -1.25,1.25c-0.69036,0 -1.25,-0.55964 -1.25,-1.25z" fill="#940039" stroke="none" stroke-width="0.5"/><path d="M305.5,231.33334c0,-0.69036 0.55964,-1.25 1.25,-1.25c0.69036,0 1.25,0.55964 1.25,1.25c0,0.69036 -0.55964,1.25 -1.25,1.25c-0.69036,0 -1.25,-0.55964 -1.25,-1.25z" fill="#940039" stroke="none" stroke-width="0.5"/><path d="M336.66667,233c0,-0.69036 0.55964,-1.25 1.25,-1.25c0.69036,0 1.25,0.55964 1.25,1.25c0,0.69036 -0.55964,1.25 -1.25,1.25c-0.69036,0 -1.25,-0.55964 -1.25,-1.25z" fill="#940039" stroke="none" stroke-width="0.5"/><path d="M339.16667,231.83334c0,-0.69036 0.55964,-1.25 1.25,-1.25c0.69036,0 1.25,0.55964 1.25,1.25c0,0.69036 -0.55964,1.25 -1.25,1.25c-0.69036,0 -1.25,-0.55964 -1.25,-1.25z" fill="#940039" stroke="none" stroke-width="0.5"/><path d="M326.66667,232.66667c0,-0.69036 0.55964,-1.25 1.25,-1.25c0.69036,0 1.25,0.55964 1.25,1.25c0,0.69036 -0.55964,1.25 -1.25,1.25c-0.69036,0 -1.25,-0.55964 -1.25,-1.25z" fill="#940039" stroke="none" stroke-width="0.5"/><path d="M331,235c0,-0.69036 0.55964,-1.25 1.25,-1.25c0.69036,0 1.25,0.55964 1.25,1.25c0,0.69036 -0.55964,1.25 -1.25,1.25c-0.69036,0 -1.25,-0.55964 -1.25,-1.25z" fill="#940039" stroke="none" stroke-width="0.5"/><path d="M300,243.33334c0,-0.69036 0.55964,-1.25 1.25,-1.25c0.69036,0 1.25,0.55964 1.25,1.25c0,0.69036 -0.55964,1.25 -1.25,1.25c-0.69036,0 -1.25,-0.55964 -1.25,-1.25z" fill="#da5cb1" stroke="none" stroke-width="0.5"/><path d="M303.83333,245.66667c0,-0.69036 0.55964,-1.25 1.25,-1.25c0.69036,0 1.25,0.55964 1.25,1.25c0,0.69036 -0.55964,1.25 -1.25,1.25c-0.69036,0 -1.25,-0.55964 -1.25,-1.25z" fill="#da5cb1" stroke="none" stroke-width="0.5"/><path d="M309.16667,244.66667c0,-0.69036 0.55964,-1.25 1.25,-1.25c0.69036,0 1.25,0.55964 1.25,1.25c0,0.69036 -0.55964,1.25 -1.25,1.25c-0.69036,0 -1.25,-0.55964 -1.25,-1.25z" fill="#da5cb1" stroke="none" stroke-width="0.5"/><path d="M328,241.16667c0,-0.69036 0.55964,-1.25 1.25,-1.25c0.69036,0 1.25,0.55964 1.25,1.25c0,0.69036 -0.55964,1.25 -1.25,1.25c-0.69036,0 -1.25,-0.55964 -1.25,-1.25z" fill="#da5cb1" stroke="none" stroke-width="0.5"/><path d="M333.16667,243c0,-0.69036 0.55964,-1.25 1.25,-1.25c0.69036,0 1.25,0.55964 1.25,1.25c0,0.69036 -0.55964,1.25 -1.25,1.25c-0.69036,0 -1.25,-0.55964 -1.25,-1.25z" fill="#da5cb1" stroke="none" stroke-width="0.5"/><path d="M339.33334,244c0,-0.69036 0.55964,-1.25 1.25,-1.25c0.69036,0 1.25,0.55964 1.25,1.25c0,0.69036 -0.55964,1.25 -1.25,1.25c-0.69036,0 -1.25,-0.55964 -1.25,-1.25z" fill="#da5cb1" stroke="none" stroke-width="0.5"/><path d="M341.5,240.83334c0,-0.69036 0.55964,-1.25 1.25,-1.25c0.69036,0 1.25,0.55964 1.25,1.25c0,0.69036 -0.55964,1.25 -1.25,1.25c-0.69036,0 -1.25,-0.55964 -1.25,-1.25z" fill="#da5cb1" stroke="none" stroke-width="0.5"/><path d="M302.5,225.83334c0,-0.41422 0.33578,-0.75 0.75,-0.75c0.41422,0 0.75,0.33578 0.75,0.75c0,0.41422 -0.33578,0.75 -0.75,0.75c-0.41422,0 -0.75,-0.33578 -0.75,-0.75z" fill="#7c0000" stroke="none" stroke-width="0.5"/><path d="M315.83333,225.16667c0,-0.41422 0.33578,-0.75 0.75,-0.75c0.41422,0 0.75,0.33578 0.75,0.75c0,0.41422 -0.33578,0.75 -0.75,0.75c-0.41422,0 -0.75,-0.33578 -0.75,-0.75z" fill="#7c0000" stroke="none" stroke-width="0.5"/><path d="M327.16667,226.16667c0,-0.41422 0.33578,-0.75 0.75,-0.75c0.41422,0 0.75,0.33578 0.75,0.75c0,0.41422 -0.33578,0.75 -0.75,0.75c-0.41422,0 -0.75,-0.33578 -0.75,-0.75z" fill="#7c0000" stroke="none" stroke-width="0.5"/><path d="M340.83334,227c0,-0.41422 0.33578,-0.75 0.75,-0.75c0.41422,0 0.75,0.33578 0.75,0.75c0,0.41422 -0.33578,0.75 -0.75,0.75c-0.41422,0 -0.75,-0.33578 -0.75,-0.75z" fill="#7c0000" stroke="none" stroke-width="0.5"/><path d="M301.5,235.66667c0,-0.41422 0.33578,-0.75 0.75,-0.75c0.41422,0 0.75,0.33578 0.75,0.75c0,0.41422 -0.33578,0.75 -0.75,0.75c-0.41422,0 -0.75,-0.33578 -0.75,-0.75z" fill="#940039" stroke="none" stroke-width="0.5"/><path d="M306,234.83334c0,-0.41422 0.33578,-0.75 0.75,-0.75c0.41422,0 0.75,0.33578 0.75,0.75c0,0.41422 -0.33578,0.75 -0.75,0.75c-0.41422,0 -0.75,-0.33578 -0.75,-0.75z" fill="#940039" stroke="none" stroke-width="0.5"/><path d="M327.83333,236.66667c0,-0.41422 0.33578,-0.75 0.75,-0.75c0.41422,0 0.75,0.33578 0.75,0.75c0,0.41422 -0.33578,0.75 -0.75,0.75c-0.41422,0 -0.75,-0.33578 -0.75,-0.75z" fill="#940039" stroke="none" stroke-width="0.5"/><path d="M335.66667,237.16667c0,-0.41422 0.33578,-0.75 0.75,-0.75c0.41422,0 0.75,0.33578 0.75,0.75c0,0.41422 -0.33578,0.75 -0.75,0.75c-0.41422,0 -0.75,-0.33578 -0.75,-0.75z" fill="#940039" stroke="none" stroke-width="0.5"/><path d="M308.5,250.83334c0,-0.41422 0.33578,-0.75 0.75,-0.75c0.41422,0 0.75,0.33578 0.75,0.75c0,0.41422 -0.33578,0.75 -0.75,0.75c-0.41422,0 -0.75,-0.33578 -0.75,-0.75z" fill="#da5cb1" stroke="none" stroke-width="0.5"/><path d="M317,247.5c0,-0.41422 0.33578,-0.75 0.75,-0.75c0.41422,0 0.75,0.33578 0.75,0.75c0,0.41422 -0.33578,0.75 -0.75,0.75c-0.41422,0 -0.75,-0.33578 -0.75,-0.75z" fill="#da5cb1" stroke="none" stroke-width="0.5"/><path d="M324,244.5c0,-0.41422 0.33578,-0.75 0.75,-0.75c0.41422,0 0.75,0.33578 0.75,0.75c0,0.41422 -0.33578,0.75 -0.75,0.75c-0.41422,0 -0.75,-0.33578 -0.75,-0.75z" fill="#da5cb1" stroke="none" stroke-width="0.5"/><path d="M340.66667,250c0,-0.41422 0.33578,-0.75 0.75,-0.75c0.41422,0 0.75,0.33578 0.75,0.75c0,0.41422 -0.33578,0.75 -0.75,0.75c-0.41422,0 -0.75,-0.33578 -0.75,-0.75z" fill="#da5cb1" stroke="none" stroke-width="0.5"/></g><g stroke-width="0"><path d="M266.29975,117.08668c0,0 -57.80506,-96.63648 -16.35421,-114.70983c41.45085,-18.07335 64.95617,93.51846 64.95617,93.51846" fill="#90003f" stroke="#000000" stroke-linecap="round"/><path d="M289.30454,51.92203c8.00425,21.04615 12.45415,42.04211 -0.56504,47.99022c-18.04687,8.24511 -27.53562,-13.16735 -35.53987,-34.2135c-8.00425,-21.04615 -13.13309,-47.17203 0.56504,-52.3667c14.65662,-5.55815 27.53562,17.54383 35.53987,38.58998z" fill="#979797" stroke="none" stroke-linecap="butt"/></g><path d="" fill="none" stroke="#000000" stroke-width="0" stroke-linecap="round"/><g><path d="M255.36488,138.57226c0,-33.30185 28.7599,-60.29833 64.23702,-60.29833c8.82131,0 42.61543,-14.19882 42.61543,-14.19882c0,0 -4.79155,20.10332 -0.09838,22.52706c4.62534,2.38871 28.05686,-8.08817 28.05686,-8.08817c0,0 -14.66149,18.74844 -12.45288,22.6572c3.32465,5.88392 30.46055,9.21251 30.46055,9.21251c0,0 -22.4351,18.84706 -23.77696,26.12433c-1.38165,7.49303 15.60294,18.2055 15.60294,18.2055c0,0 -10.10373,12.72904 -10.87974,17.84586c-0.75706,4.99196 6.27914,12.48973 6.27914,12.48973c0,0 -17.8484,2.88721 -23.15729,6.46702c-3.70296,2.49693 -0.06108,6.97042 -0.06108,6.97042c0,0 -16.73401,-1.84491 -24.8738,-2.31677c-1.69661,-0.09835 -20.49468,2.70079 -27.71482,2.70079c-35.47712,0 -64.23702,-26.99649 -64.23702,-60.29834z" fill="#ff7be1" stroke="#000000" stroke-width="0" stroke-linecap="butt"/><path d="M256.00327,130.03823c4.41609,-29.26038 31.20767,-51.7643 63.59863,-51.7643c8.82131,0 42.61543,-14.19882 42.61543,-14.19882c0,0 -4.79155,20.10332 -0.09838,22.52706c4.62534,2.38871 28.05686,-8.08817 28.05686,-8.08817c0,0 -14.66149,18.74844 -12.45288,22.6572c3.32465,5.88392 30.46055,9.21251 30.46055,9.21251c0,0 -14.66876,12.32279 -20.99344,20.8874c-0.11127,0.15068 -131.19145,-1.20183 -131.18677,-1.23288z" fill="#da5cb1" stroke="#000000" stroke-width="0" stroke-linecap="butt"/><path d="M258.8965,118.80414c8.71796,-23.59262 32.60449,-40.53021 60.7054,-40.53021c8.82131,0 42.61543,-14.19882 42.61543,-14.19882c0,0 -4.79155,20.10332 -0.09838,22.52706c4.62534,2.38871 28.05686,-8.08817 28.05686,-8.08817c0,0 -14.66149,18.74844 -12.45288,22.6572c3.32465,5.88392 30.46055,9.21251 30.46055,9.21251c0,0 -6.5696,5.51893 -12.81136,11.73697c-0.12853,0.12804 -136.56645,-3.07073 -136.47562,-3.31654z" fill="#940039" stroke="#000000" stroke-width="0" stroke-linecap="butt"/><path d="M264.90482,106.93739c11.31444,-17.20073 31.57969,-28.66346 54.69708,-28.66346c8.82131,0 42.61543,-14.19882 42.61543,-14.19882c0,0 -4.79155,20.10332 -0.09838,22.52706c4.62534,2.38871 28.05686,-8.08817 28.05686,-8.08817c0,0 -14.66149,18.74844 -12.45288,22.6572c2.23522,3.95587 14.98343,6.7567 23.26196,8.16749c2.32889,0.39688 -136.13398,-2.31935 -136.08007,-2.4013z" fill="#7c0000" stroke="#000000" stroke-width="0" stroke-linecap="butt"/><path d="M319.6019,78.27393c8.8213,0 41.92441,-12.58643 41.92441,-12.58643c0,0 -4.79156,18.72127 -0.09838,21.14501c4.62534,2.38871 26.90516,-6.93646 26.90516,-6.93646c0,0 -13.50978,17.59673 -11.30117,21.50549c3.32465,5.88392 30.46056,9.21251 30.46056,9.21251c0,0 -22.4351,18.84706 -23.77697,26.12434c-1.38164,7.49303 15.60295,18.2055 15.60295,18.2055c0,0 -10.33407,12.72904 -11.11007,17.84586c-0.75707,4.99195 5.58812,11.79871 5.58812,11.79871c0,0 -17.15737,3.57822 -22.46626,7.15804c-3.70296,2.49693 -0.7521,5.35803 -0.7521,5.35803c0,0 -15.12161,-2.76627 -23.26141,-3.23813c-1.69661,-0.09835 -0.91569,-1.44535 -8.13583,-1.44535c-10.45829,0 -31.84239,3.69245 -35.03503,0.57505c-0.95087,-0.92846 -2.87617,-7.05079 1.60314,-8.98103c3.40021,-1.46524 11.57658,-1.02616 11.57658,-1.02616c0,0 -1.90647,-4.27458 0.97481,-6.89283c3.09474,-2.81222 18.84177,-7.36714 18.84177,-7.36714c0,0 -12.76909,-4.23158 -17.6182,-11.57718c-3.42337,-5.18584 0.56676,-13.31019 0.56676,-16.50643c0,0 -3.69005,-11.9036 -2.51339,-15.75643c1.21417,-3.97564 9.68945,-7.74052 9.68945,-7.74052c0,0 0.91511,-5.71074 -0.06816,-9.00385c-1.49633,-5.01142 11.9668,-13.20941 11.9668,-13.20941c0,0 -31.80041,-16.66119 -19.56352,-16.66119z" fill="#a93232" stroke="#000000" stroke-width="0" stroke-linecap="butt"/><path d="M319.6019,78.27393c8.8213,0 41.92441,-12.58643 41.92441,-12.58643c0,0 -4.79156,18.72127 -0.09838,21.14501c4.62534,2.38871 26.90516,-6.93646 26.90516,-6.93646c0,0 -13.50978,17.59673 -11.30117,21.50549c3.32465,5.88392 30.46056,9.21251 30.46056,9.21251c0,0 -6.77495,5.69143 -13.10149,12.02674c-0.05375,0.05382 -73.4785,-1.74862 -73.35449,-1.84267c2.80698,-2.12903 6.2303,-3.64974 6.2303,-3.64974c0,0 0.91511,-5.71074 -0.06816,-9.00385c-1.49633,-5.01142 11.9668,-13.20941 11.9668,-13.20941c0,0 -31.80041,-16.66119 -19.56352,-16.66119z" fill="#9d2f3a" stroke="#000000" stroke-width="0" stroke-linecap="butt"/><path d="M319.6019,78.27393c8.8213,0 41.92441,-12.58643 41.92441,-12.58643c0,0 -4.79156,18.72127 -0.09838,21.14501c4.62534,2.38871 26.90516,-6.93646 26.90516,-6.93646c0,0 -13.50978,17.59673 -11.30117,21.50549c2.10723,3.72934 13.78009,6.43214 22.04628,7.91151c0.04929,0.00882 -71.85962,-1.10175 -71.87956,-1.16851c-1.49633,-5.01142 11.9668,-13.20941 11.9668,-13.20941c0,0 -31.80041,-16.66119 -19.56352,-16.66119z" fill="#942c3b" stroke="#000000" stroke-width="0" stroke-linecap="butt"/><path d="M326.08525,190.84101c0,0 -13.48508,0.21697 -14.40408,-0.54221c-0.8398,-0.69374 -3.80171,-6.81101 -3.80171,-6.81101c0,0 3.9163,-0.68588 5.59076,-0.73667c1.43236,-0.04345 3.84358,0.45051 3.84358,0.45051c0,0 -1.23714,-3.82188 0.21571,-6.5013c1.22864,-2.26592 4.99144,-3.47063 6.78581,-3.3628c11.2892,0.67846 30.79291,-0.89399 30.79291,-0.89399c0,0 -0.50226,10.79666 -1.292,12.33665c-0.74302,1.44888 -3.77551,4.44842 -3.77551,4.44842z" fill="#7c2532" stroke="none" stroke-width="0" stroke-linecap="butt"/><path d="M331.41538,172.92075c1.57087,-0.4251 3.66707,2.27067 4.68202,6.02117c0.07076,0.26149 -5.63194,1.74871 -5.68857,1.53942c-1.01495,-3.75051 -0.56429,-7.1355 1.00656,-7.56059z" fill="#fff8f7" stroke="none" stroke-width="0" stroke-linecap="butt"/><path d="M326.87626,172.82664c0.38352,1.29506 0.68256,3.00439 0.52381,4.85556c-0.02315,0.26991 -5.89016,-0.28751 -5.87164,-0.50354c0.11828,-1.37925 0.39543,-2.65115 0.77656,-3.71083c0.16896,-0.46977 4.46478,-1.00078 4.57127,-0.6412z" fill="#fff8f7" stroke="none" stroke-width="0" stroke-linecap="butt"/><path d="M340.35844,170.65716c1.16644,-1.13479 4.30838,0.20291 7.01774,2.98784c0.1889,0.19417 -4.07284,4.26482 -4.22403,4.10941c-2.70936,-2.78492 -3.96013,-5.96247 -2.79371,-7.09725z" fill="#fff8f7" stroke="none" stroke-width="0" stroke-linecap="butt"/><path d="M353.64281,169.34959c1.6192,0.16288 2.61656,3.42884 2.22768,7.29474c-0.02711,0.26954 -5.8853,-0.3741 -5.8636,-0.58983c0.38888,-3.8659 2.01674,-6.86779 3.63592,-6.70491z" fill="#fff8f7" stroke="none" stroke-width="0" stroke-linecap="butt"/><path d="M350.70812,191.44588c-1.50903,0.60923 -3.91147,-1.8176 -5.36603,-5.42047c-0.10141,-0.2512 5.38348,-2.40724 5.46465,-2.20619c1.45455,3.60287 1.41039,7.01745 -0.09862,7.62666z" fill="#fff8f7" stroke="none" stroke-width="0" stroke-linecap="butt"/><path d="M327.71744,185.19924c0.15002,-0.15654 4.44229,3.8819 4.25485,4.07749c-2.68831,2.80525 -5.82009,4.16657 -6.99504,3.04059c-1.17494,-1.12596 0.05188,-4.31284 2.74019,-7.11808z" fill="#fff8f7" stroke="none" stroke-width="0" stroke-linecap="butt"/><path d="M339.00527,192.51257c-1.61799,0.17444 -3.26725,-2.81574 -3.68374,-6.67876c-0.02904,-0.26934 5.83599,-0.84728 5.85923,-0.63171c0.41649,3.86302 -0.55752,7.13603 -2.17549,7.31047z" fill="#fff8f7" stroke="none" stroke-width="0" stroke-linecap="butt"/><path d="M332.76738,170.38796c0.43975,1.22046 0.53267,2.09176 0.17363,2.31569c-0.44811,0.27947 -1.57878,-0.37403 -2.83616,-1.80761c-0.10353,-0.11804 2.58377,-0.72667 2.66254,-0.50807z" fill="#7c2532" stroke="none" stroke-width="0" stroke-linecap="butt"/><g><path d="M308.68036,81.75424c0.74936,7.34025 -9.44762,16.03344 -16.00825,9.79628c-1.45631,-2.11341 0.702,-7.77059 0.702,-7.77059c0,0 -3.50582,-6.44527 -2.33648,-8.90561c4.19592,-5.64839 16.89338,-0.46033 17.64274,6.87992z" fill="#bf014a" stroke="#000000" stroke-width="0" stroke-linecap="butt"/><path d="M300.44478,78.19577l6.83729,3.46967l-5.1439,6.31359" fill="none" stroke="#99001f" stroke-width="1.5" stroke-linecap="round"/><path d="M302.74586,82.59162l3.89555,-0.39769" fill="none" stroke="#99001f" stroke-width="1" stroke-linecap="round"/><path d="M340.17876,69.85752c1.64239,2.17329 -0.4887,9.19403 -0.4887,9.19403c0,0 3.25695,5.10434 2.25774,7.46843c-5.16493,7.43422 -16.90821,0.9809 -17.65757,-6.35935c-0.74937,-7.34025 10.63779,-14.98709 15.88853,-10.30311z" fill="#bf014a" stroke="#000000" stroke-width="0" stroke-linecap="butt"/><path d="M331.95532,84.93503l-6.31359,-5.1439l5.99511,-4.77973" fill="none" stroke="#99001f" stroke-width="1.5" stroke-linecap="round"/><path d="M326.37597,80.17924l3.89555,-0.39769" fill="none" stroke="#99001f" stroke-width="1" stroke-linecap="round"/><path d="M307.51523,73.11898c1.77855,-1.65199 14.80574,-2.22598 17.04527,-0.24474c1.69079,1.49579 2.56286,13.18108 -0.47106,15.19013c-1.56251,1.03469 -12.15959,2.48447 -14.00679,1.64649c-3.13594,-1.42262 -4.72439,-14.5884 -2.56743,-16.59188z" fill="#bf014a" stroke="#000000" stroke-width="0" stroke-linecap="butt"/></g><path d="M272.25,105.75c0.9665,0 1.75,0.7835 1.75,1.75c0,0.9665 -0.7835,1.75 -1.75,1.75c-0.61138,0 -1.14954,-0.31351 -1.46247,-0.78855c-0.29672,0.54426 -0.874,0.91355 -1.53753,0.91355c-0.5689,0 -1.0744,-0.27146 -1.39402,-0.69192c-0.15281,0.04359 -0.31417,0.06692 -0.48098,0.06692c-0.9665,0 -1.75,-0.7835 -1.75,-1.75c0,-0.9665 0.7835,-1.75 1.75,-1.75c0.5689,0 1.0744,0.27146 1.39402,0.69192c0.15281,-0.04359 0.31417,-0.06692 0.48098,-0.06692c0.61138,0 1.14954,0.31351 1.46247,0.78855c0.29672,-0.54426 0.874,-0.91355 1.53753,-0.91355z" fill="#7c0000" stroke="none" stroke-width="0.5" stroke-linecap="butt"/><path d="M278.5,105.25c0.9665,0 1.75,0.7835 1.75,1.75c0,0.9665 -0.7835,1.75 -1.75,1.75c-0.46612,0 -0.88968,-0.18223 -1.20331,-0.47934c-0.31766,0.4417 -0.83609,0.72934 -1.42169,0.72934c-0.9665,0 -1.75,-0.7835 -1.75,-1.75c0,-0.9665 0.7835,-1.75 1.75,-1.75c0.46612,0 0.88968,0.18223 1.20331,0.47934c0.31766,-0.4417 0.83609,-0.72934 1.42169,-0.72934z" fill="#7c0000" stroke="none" stroke-width="0.5" stroke-linecap="butt"/><path d="M283.875,105c0.9665,0 1.75,0.7835 1.75,1.75c0,0.9665 -0.7835,1.75 -1.75,1.75c-0.38749,0 -0.74556,-0.12594 -1.03553,-0.33912c-0.24921,0.1365 -0.53528,0.21412 -0.83947,0.21412c-0.9665,0 -1.75,-0.7835 -1.75,-1.75c0,-0.9665 0.7835,-1.75 1.75,-1.75c0.38749,0 0.74556,0.12594 1.03553,0.33912c0.24921,-0.1365 0.53528,-0.21412 0.83947,-0.21412z" fill="#7c0000" stroke="none" stroke-width="0.5" stroke-linecap="butt"/><path d="M290.25,105.125c0.9665,0 1.75,0.7835 1.75,1.75c0,0.9665 -0.7835,1.75 -1.75,1.75c-0.45833,0 -0.87552,-0.1762 -1.1875,-0.46456c-0.31198,0.28835 -0.72917,0.46456 -1.1875,0.46456c-0.9665,0 -1.75,-0.7835 -1.75,-1.75c0,-0.9665 0.7835,-1.75 1.75,-1.75c0.45833,0 0.87552,0.1762 1.1875,0.46456c0.31198,-0.28835 0.72917,-0.46456 1.1875,-0.46456z" fill="#7c0000" stroke="none" stroke-width="0.5" stroke-linecap="butt"/><path d="M300.125,105.625c0.9665,0 1.75,0.7835 1.75,1.75c0,0.9665 -0.7835,1.75 -1.75,1.75c-0.59542,0 -1.12139,-0.29736 -1.4375,-0.75168c-0.31611,0.45432 -0.84208,0.75168 -1.4375,0.75168c-0.51686,0 -0.98137,-0.22406 -1.30172,-0.58035c-0.24538,0.13106 -0.52565,0.20535 -0.82328,0.20535c-0.9665,0 -1.75,-0.7835 -1.75,-1.75c0,-0.9665 0.7835,-1.75 1.75,-1.75c0.51686,0 0.98137,0.22406 1.30172,0.58035c0.24538,-0.13106 0.52565,-0.20535 0.82328,-0.20535c0.59542,0 1.12139,0.29736 1.4375,0.75168c0.31611,-0.45432 0.84208,-0.75168 1.4375,-0.75168z" fill="#7c0000" stroke="none" stroke-width="0.5" stroke-linecap="butt"/><path d="M302.75,107.375c0,-0.9665 0.7835,-1.75 1.75,-1.75c0.9665,0 1.75,0.7835 1.75,1.75c0,0.9665 -0.7835,1.75 -1.75,1.75c-0.9665,0 -1.75,-0.7835 -1.75,-1.75z" fill="#7c0000" stroke="none" stroke-width="0.5" stroke-linecap="butt"/><path d="M309.625,107.375c0,-0.9665 0.7835,-1.75 1.75,-1.75c0.9665,0 1.75,0.7835 1.75,1.75c0,0.9665 -0.7835,1.75 -1.75,1.75c-0.9665,0 -1.75,-0.7835 -1.75,-1.75z" fill="#7c0000" stroke="none" stroke-width="0.5" stroke-linecap="butt"/><path d="M313.75,107.375c0,-0.9665 0.7835,-1.75 1.75,-1.75c0.9665,0 1.75,0.7835 1.75,1.75c0,0.9665 -0.7835,1.75 -1.75,1.75c-0.9665,0 -1.75,-0.7835 -1.75,-1.75z" fill="#7c0000" stroke="none" stroke-width="0.5" stroke-linecap="butt"/><path d="M319.625,107.375c0,-0.9665 0.7835,-1.75 1.75,-1.75c0.9665,0 1.75,0.7835 1.75,1.75c0,0.9665 -0.7835,1.75 -1.75,1.75c-0.9665,0 -1.75,-0.7835 -1.75,-1.75z" fill="#7c0000" stroke="none" stroke-width="0.5" stroke-linecap="butt"/><path d="M323.5,108c0,-0.9665 0.7835,-1.75 1.75,-1.75c0.9665,0 1.75,0.7835 1.75,1.75c0,0.9665 -0.7835,1.75 -1.75,1.75c-0.9665,0 -1.75,-0.7835 -1.75,-1.75z" fill="#7c0000" stroke="none" stroke-width="0.5" stroke-linecap="butt"/><path d="M259.875,118.75c0,-0.9665 0.7835,-1.75 1.75,-1.75c0.9665,0 1.75,0.7835 1.75,1.75c0,0.9665 -0.7835,1.75 -1.75,1.75c-0.9665,0 -1.75,-0.7835 -1.75,-1.75z" fill="#940039" stroke="none" stroke-width="0.5" stroke-linecap="butt"/><path d="M264.625,119.625c0,-0.9665 0.7835,-1.75 1.75,-1.75c0.9665,0 1.75,0.7835 1.75,1.75c0,0.9665 -0.7835,1.75 -1.75,1.75c-0.9665,0 -1.75,-0.7835 -1.75,-1.75z" fill="#940039" stroke="none" stroke-width="0.5" stroke-linecap="butt"/><path d="M268.75,119.625c0,-0.9665 0.7835,-1.75 1.75,-1.75c0.9665,0 1.75,0.7835 1.75,1.75c0,0.9665 -0.7835,1.75 -1.75,1.75c-0.9665,0 -1.75,-0.7835 -1.75,-1.75z" fill="#940039" stroke="none" stroke-width="0.5" stroke-linecap="butt"/><path d="M276.5,116.875c0.9665,0 1.75,0.7835 1.75,1.75c0,0.9665 -0.7835,1.75 -1.75,1.75c-0.0534,0 -0.10625,-0.00239 -0.15843,-0.00707c-0.29926,0.23911 -0.67872,0.38207 -1.09157,0.38207c-0.1601,0 -0.31518,-0.0215 -0.46251,-0.06177c-0.2367,0.11947 -0.50423,0.18677 -0.78749,0.18677c-0.9665,0 -1.75,-0.7835 -1.75,-1.75c0,-0.9665 0.7835,-1.75 1.75,-1.75c0.1601,0 0.31518,0.0215 0.46251,0.06177c0.2367,-0.11947 0.50423,-0.18677 0.78749,-0.18677c0.0534,0 0.10625,0.00239 0.15843,0.00708c0.29926,-0.23911 0.67872,-0.38208 1.09157,-0.38208z" fill="#940039" stroke="none" stroke-width="0.5" stroke-linecap="butt"/><path d="M318.5,118.25c0.9665,0 1.75,0.7835 1.75,1.75c0,0.9665 -0.7835,1.75 -1.75,1.75c-0.46612,0 -0.88968,-0.18223 -1.20331,-0.47934c-0.31766,0.4417 -0.83609,0.72934 -1.42169,0.72934c-0.52268,0 -0.99183,-0.22914 -1.3125,-0.59245c-0.32067,0.36331 -0.78982,0.59245 -1.3125,0.59245c-0.7223,0 -1.34239,-0.43759 -1.60963,-1.06213c-0.31982,0.41773 -0.82363,0.68713 -1.39037,0.68713c-0.9665,0 -1.75,-0.7835 -1.75,-1.75c0,-0.9665 0.7835,-1.75 1.75,-1.75c0.7223,0 1.34239,0.43759 1.60963,1.06213c0.31982,-0.41773 0.82363,-0.68713 1.39037,-0.68713c0.52268,0 0.99183,0.22914 1.3125,0.59245c0.32067,-0.36331 0.78982,-0.59245 1.3125,-0.59245c0.46612,0 0.88968,0.18223 1.20331,0.47934c0.31766,-0.4417 0.83609,-0.72934 1.42169,-0.72934z" fill="#940039" stroke="none" stroke-width="0.5" stroke-linecap="butt"/><path d="M260.75,128.125c0.9665,0 1.75,0.7835 1.75,1.75c0,0.9665 -0.7835,1.75 -1.75,1.75c-0.43014,0 -0.82403,-0.15519 -1.12874,-0.41262c-0.32058,0.40373 -0.81569,0.66262 -1.37126,0.66262c-0.9665,0 -1.75,-0.7835 -1.75,-1.75c0,-0.9665 0.7835,-1.75 1.75,-1.75c0.43014,0 0.82403,0.15519 1.12874,0.41262c0.32058,-0.40373 0.81569,-0.66262 1.37126,-0.66262z" fill="#da5cb1" stroke="none" stroke-width="0.5" stroke-linecap="butt"/><path d="M267.625,128c0.9665,0 1.75,0.7835 1.75,1.75c0,0.9665 -0.7835,1.75 -1.75,1.75c-0.2684,0 -0.52269,-0.06042 -0.75,-0.16841c-0.22731,0.10799 -0.4816,0.16841 -0.75,0.16841c-0.08488,0 -0.16835,-0.00604 -0.25,-0.01772c-0.08165,0.01168 -0.16512,0.01772 -0.25,0.01772c-0.9665,0 -1.75,-0.7835 -1.75,-1.75c0,-0.9665 0.7835,-1.75 1.75,-1.75c0.08488,0 0.16835,0.00604 0.25,0.01772c0.08165,-0.01168 0.16512,-0.01772 0.25,-0.01772c0.2684,0 0.52269,0.06042 0.75,0.16841c0.22731,-0.10799 0.4816,-0.16841 0.75,-0.16841z" fill="#da5cb1" stroke="none" stroke-width="0.5" stroke-linecap="butt"/><path d="M313.875,130.625c0,-0.9665 0.7835,-1.75 1.75,-1.75c0.9665,0 1.75,0.7835 1.75,1.75c0,0.9665 -0.7835,1.75 -1.75,1.75c-0.9665,0 -1.75,-0.7835 -1.75,-1.75z" fill="#da5cb1" stroke="none" stroke-width="0.5" stroke-linecap="butt"/><path d="M327.25,107.875c0,-0.9665 0.7835,-1.75 1.75,-1.75c0.9665,0 1.75,0.7835 1.75,1.75c0,0.9665 -0.7835,1.75 -1.75,1.75c-0.9665,0 -1.75,-0.7835 -1.75,-1.75z" fill="#942c3b" stroke="none" stroke-width="0.5" stroke-linecap="butt"/><path d="M336.5,106.75c0.9665,0 1.75,0.7835 1.75,1.75c0,0.9665 -0.7835,1.75 -1.75,1.75c-0.45833,0 -0.87552,-0.1762 -1.1875,-0.46456c-0.31198,0.28835 -0.72917,0.46456 -1.1875,0.46456c-0.9665,0 -1.75,-0.7835 -1.75,-1.75c0,-0.9665 0.7835,-1.75 1.75,-1.75c0.45833,0 0.87552,0.1762 1.1875,0.46456c0.31198,-0.28835 0.72917,-0.46456 1.1875,-0.46456z" fill="#942c3b" stroke="none" stroke-width="0.5" stroke-linecap="butt"/><path d="M340.375,108.375c0,-0.9665 0.7835,-1.75 1.75,-1.75c0.9665,0 1.75,0.7835 1.75,1.75c0,0.9665 -0.7835,1.75 -1.75,1.75c-0.9665,0 -1.75,-0.7835 -1.75,-1.75z" fill="#942c3b" stroke="none" stroke-width="0.5" stroke-linecap="butt"/><path d="M344.625,108.25c0,-0.9665 0.7835,-1.75 1.75,-1.75c0.9665,0 1.75,0.7835 1.75,1.75c0,0.9665 -0.7835,1.75 -1.75,1.75c-0.9665,0 -1.75,-0.7835 -1.75,-1.75z" fill="#942c3b" stroke="none" stroke-width="0.5" stroke-linecap="butt"/><path d="M348.375,107.75c0,-0.9665 0.7835,-1.75 1.75,-1.75c0.9665,0 1.75,0.7835 1.75,1.75c0,0.9665 -0.7835,1.75 -1.75,1.75c-0.9665,0 -1.75,-0.7835 -1.75,-1.75z" fill="#942c3b" stroke="none" stroke-width="0.5" stroke-linecap="butt"/><path d="M357.625,106.625c0.9665,0 1.75,0.7835 1.75,1.75c0,0.9665 -0.7835,1.75 -1.75,1.75c-0.82956,0 -1.5243,-0.5772 -1.70452,-1.3519c-0.22241,0.71098 -0.88619,1.2269 -1.67048,1.2269c-0.9665,0 -1.75,-0.7835 -1.75,-1.75c0,-0.9665 0.7835,-1.75 1.75,-1.75c0.82956,0 1.5243,0.5772 1.70452,1.3519c0.22241,-0.71098 0.88619,-1.2269 1.67048,-1.2269z" fill="#942c3b" stroke="none" stroke-width="0.5" stroke-linecap="butt"/><path d="M361.875,108.375c0,-0.9665 0.7835,-1.75 1.75,-1.75c0.9665,0 1.75,0.7835 1.75,1.75c0,0.9665 -0.7835,1.75 -1.75,1.75c-0.9665,0 -1.75,-0.7835 -1.75,-1.75z" fill="#942c3b" stroke="none" stroke-width="0.5" stroke-linecap="butt"/><path d="M366.875,108.375c0,-0.9665 0.7835,-1.75 1.75,-1.75c0.9665,0 1.75,0.7835 1.75,1.75c0,0.9665 -0.7835,1.75 -1.75,1.75c-0.9665,0 -1.75,-0.7835 -1.75,-1.75z" fill="#942c3b" stroke="none" stroke-width="0.5" stroke-linecap="butt"/><path d="M373.375,108.5c0,-0.9665 0.7835,-1.75 1.75,-1.75c0.9665,0 1.75,0.7835 1.75,1.75c0,0.9665 -0.7835,1.75 -1.75,1.75c-0.9665,0 -1.75,-0.7835 -1.75,-1.75z" fill="#942c3b" stroke="none" stroke-width="0.5" stroke-linecap="butt"/><path d="M393.125,108.125c0.9665,0 1.75,0.7835 1.75,1.75c0,0.9665 -0.7835,1.75 -1.75,1.75c-0.65319,0 -1.2228,-0.35787 -1.52346,-0.88823c-0.32097,0.38974 -0.80723,0.63823 -1.35154,0.63823c-0.30419,0 -0.59026,-0.07761 -0.83947,-0.21412c-0.28996,0.21318 -0.64803,0.33912 -1.03553,0.33912c-0.36065,0 -0.69582,-0.1091 -0.97431,-0.29609c-0.12868,0.03015 -0.26282,0.04609 -0.40069,0.04609c-0.75394,0 -1.39652,-0.47678 -1.6427,-1.14527c-0.32089,0.39378 -0.80973,0.64527 -1.3573,0.64527c-0.7223,0 -1.34239,-0.43759 -1.60963,-1.06213c-0.31982,0.41773 -0.82363,0.68713 -1.39037,0.68713c-0.24025,0 -0.46918,-0.04841 -0.67759,-0.13601c-0.0648,0.00728 -0.13067,0.01101 -0.19741,0.01101c-0.9665,0 -1.75,-0.7835 -1.75,-1.75c0,-0.9665 0.7835,-1.75 1.75,-1.75c0.24025,0 0.46918,0.04841 0.67759,0.13601c0.0648,-0.00728 0.13067,-0.01101 0.19741,-0.01101c0.7223,0 1.34239,0.43759 1.60963,1.06213c0.31982,-0.41773 0.82363,-0.68713 1.39037,-0.68713c0.75394,0 1.39652,0.47678 1.6427,1.14527c0.32089,-0.39378 0.80973,-0.64527 1.3573,-0.64527c0.36065,0 0.69582,0.1091 0.97431,0.29609c0.12868,-0.03015 0.26282,-0.04609 0.40069,-0.04609c0.30419,0 0.59026,0.07761 0.83947,0.21412c0.28996,-0.21318 0.64803,-0.33912 1.03553,-0.33912c0.65319,0 1.2228,0.35787 1.52346,0.88823c0.32097,-0.38974 0.80723,-0.63823 1.35154,-0.63823z" fill="#942c3b" stroke="none" stroke-width="0.5" stroke-linecap="butt"/><path d="M321.75,121.25c0,-0.9665 0.7835,-1.75 1.75,-1.75c0.9665,0 1.75,0.7835 1.75,1.75c0,0.9665 -0.7835,1.75 -1.75,1.75c-0.9665,0 -1.75,-0.7835 -1.75,-1.75z" fill="#9d2f3a" stroke="none" stroke-width="0.5" stroke-linecap="butt"/><path d="M329,119.5c0.9665,0 1.75,0.7835 1.75,1.75c0,0.9665 -0.7835,1.75 -1.75,1.75c-0.2202,0 -0.4309,-0.04066 -0.625,-0.1149c-0.1941,0.07424 -0.4048,0.1149 -0.625,0.1149c-0.9665,0 -1.75,-0.7835 -1.75,-1.75c0,-0.9665 0.7835,-1.75 1.75,-1.75c0.2202,0 0.4309,0.04066 0.625,0.1149c0.1941,-0.07424 0.4048,-0.1149 0.625,-0.1149z" fill="#9d2f3a" stroke="none" stroke-width="0.5" stroke-linecap="butt"/><path d="M386.125,121c0.9665,0 1.75,0.7835 1.75,1.75c0,0.9665 -0.7835,1.75 -1.75,1.75c-0.66354,0 -1.24082,-0.36928 -1.53753,-0.91355c-0.31293,0.47503 -0.85109,0.78855 -1.46247,0.78855c-0.41183,0 -0.79043,-0.14226 -1.08935,-0.38031c-0.26529,0.16198 -0.57707,0.25531 -0.91065,0.25531c-0.46409,0 -0.88599,-0.18065 -1.19921,-0.47547c-0.29262,0.22006 -0.65648,0.35047 -1.05079,0.35047c-0.48967,0 -0.93237,-0.20111 -1.25,-0.52525c-0.31763,0.32414 -0.76033,0.52525 -1.25,0.52525c-0.55774,0 -1.05454,-0.26092 -1.375,-0.66735c-0.32046,0.40643 -0.81726,0.66735 -1.375,0.66735c-0.58711,0 -1.1067,-0.28913 -1.42415,-0.73276c-0.32092,0.37217 -0.79587,0.60776 -1.32585,0.60776c-0.9665,0 -1.75,-0.7835 -1.75,-1.75c0,-0.9665 0.7835,-1.75 1.75,-1.75c0.58711,0 1.1067,0.28913 1.42415,0.73276c0.32092,-0.37217 0.79587,-0.60776 1.32585,-0.60776c0.55774,0 1.05454,0.26092 1.375,0.66735c0.32046,-0.40643 0.81726,-0.66735 1.375,-0.66735c0.48967,0 0.93237,0.20111 1.25,0.52525c0.31763,-0.32414 0.76033,-0.52525 1.25,-0.52525c0.46409,0 0.88599,0.18065 1.19921,0.47547c0.29262,-0.22006 0.65648,-0.35047 1.05079,-0.35047c0.41183,0 0.79043,0.14226 1.08935,0.38031c0.26529,-0.16198 0.57707,-0.25531 0.91065,-0.25531c0.66354,0 1.24082,0.36928 1.53753,0.91355c0.31293,-0.47503 0.85109,-0.78855 1.46247,-0.78855z" fill="#9d2f3a" stroke="none" stroke-width="0.5" stroke-linecap="butt"/><path d="M388.625,122.625c0,-0.9665 0.7835,-1.75 1.75,-1.75c0.9665,0 1.75,0.7835 1.75,1.75c0,0.9665 -0.7835,1.75 -1.75,1.75c-0.9665,0 -1.75,-0.7835 -1.75,-1.75z" fill="#9d2f3a" stroke="none" stroke-width="0.5" stroke-linecap="butt"/><path d="M266.625,111.125c0,-0.69035 0.55964,-1.25 1.25,-1.25c0.69036,0 1.25,0.55965 1.25,1.25c0,0.69035 -0.55964,1.25 -1.25,1.25c-0.69036,0 -1.25,-0.55965 -1.25,-1.25z" fill="#7c0000" stroke="none" stroke-width="0.5" stroke-linecap="butt"/><path d="M276.875,108.375c0,-0.69035 0.55964,-1.25 1.25,-1.25c0.69036,0 1.25,0.55965 1.25,1.25c0,0.69035 -0.55964,1.25 -1.25,1.25c-0.69036,0 -1.25,-0.55965 -1.25,-1.25z" fill="#7c0000" stroke="none" stroke-width="0.5" stroke-linecap="butt"/><path d="M285.125,109.75c0,-0.69035 0.55964,-1.25 1.25,-1.25c0.69036,0 1.25,0.55965 1.25,1.25c0,0.69035 -0.55964,1.25 -1.25,1.25c-0.69036,0 -1.25,-0.55965 -1.25,-1.25z" fill="#7c0000" stroke="none" stroke-width="0.5" stroke-linecap="butt"/><path d="M289.625,111c0,-0.69035 0.55964,-1.25 1.25,-1.25c0.69036,0 1.25,0.55965 1.25,1.25c0,0.69035 -0.55964,1.25 -1.25,1.25c-0.69036,0 -1.25,-0.55965 -1.25,-1.25z" fill="#7c0000" stroke="none" stroke-width="0.5" stroke-linecap="butt"/><path d="M296,112c0,-0.69035 0.55964,-1.25 1.25,-1.25c0.69036,0 1.25,0.55965 1.25,1.25c0,0.69035 -0.55964,1.25 -1.25,1.25c-0.69036,0 -1.25,-0.55965 -1.25,-1.25z" fill="#7c0000" stroke="none" stroke-width="0.5" stroke-linecap="butt"/><path d="M300.625,112c0,-0.69035 0.55964,-1.25 1.25,-1.25c0.69036,0 1.25,0.55965 1.25,1.25c0,0.69035 -0.55964,1.25 -1.25,1.25c-0.69036,0 -1.25,-0.55965 -1.25,-1.25z" fill="#7c0000" stroke="none" stroke-width="0.5" stroke-linecap="butt"/><path d="M308.75,108.625c0,-0.69035 0.55964,-1.25 1.25,-1.25c0.69036,0 1.25,0.55965 1.25,1.25c0,0.69035 -0.55964,1.25 -1.25,1.25c-0.69036,0 -1.25,-0.55965 -1.25,-1.25z" fill="#7c0000" stroke="none" stroke-width="0.5" stroke-linecap="butt"/><path d="M317.875,109.75c0,-0.69035 0.55964,-1.25 1.25,-1.25c0.69036,0 1.25,0.55965 1.25,1.25c0,0.69035 -0.55964,1.25 -1.25,1.25c-0.69036,0 -1.25,-0.55965 -1.25,-1.25z" fill="#7c0000" stroke="none" stroke-width="0.5" stroke-linecap="butt"/><path d="M321.5,112.5c0,-0.69035 0.55964,-1.25 1.25,-1.25c0.69036,0 1.25,0.55965 1.25,1.25c0,0.69035 -0.55964,1.25 -1.25,1.25c-0.69036,0 -1.25,-0.55965 -1.25,-1.25z" fill="#7c0000" stroke="none" stroke-width="0.5" stroke-linecap="butt"/><path d="M260.625,123.5c0,-0.69036 0.55964,-1.25 1.25,-1.25c0.69036,0 1.25,0.55964 1.25,1.25c0,0.69036 -0.55964,1.25 -1.25,1.25c-0.69036,0 -1.25,-0.55964 -1.25,-1.25z" fill="#940039" stroke="none" stroke-width="0.5" stroke-linecap="butt"/><path d="M269.7,118.325c0.69036,0 1.25,0.55964 1.25,1.25c0,0.69036 -0.55964,1.25 -1.25,1.25c-0.19457,0 -0.37875,-0.04445 -0.54295,-0.12375c-0.2163,0.37294 -0.61989,0.62375 -1.08205,0.62375c-0.69036,0 -1.25,-0.55964 -1.25,-1.25c0,-0.69036 0.55964,-1.25 1.25,-1.25c0.19457,0 0.37875,0.04445 0.54295,0.12376c0.2163,-0.37294 0.61988,-0.62376 1.08205,-0.62376z" fill="#940039" stroke="none" stroke-width="0.5" stroke-linecap="butt"/><path d="M269.625,123.25c0,-0.69036 0.55964,-1.25 1.25,-1.25c0.69036,0 1.25,0.55964 1.25,1.25c0,0.69036 -0.55964,1.25 -1.25,1.25c-0.69036,0 -1.25,-0.55964 -1.25,-1.25z" fill="#940039" stroke="none" stroke-width="0.5" stroke-linecap="butt"/><path d="M311.125,121c0,-0.69036 0.55964,-1.25 1.25,-1.25c0.69036,0 1.25,0.55964 1.25,1.25c0,0.69036 -0.55964,1.25 -1.25,1.25c-0.69036,0 -1.25,-0.55964 -1.25,-1.25z" fill="#940039" stroke="none" stroke-width="0.5" stroke-linecap="butt"/><path d="M312.875,124.5c0,-0.69036 0.55964,-1.25 1.25,-1.25c0.69036,0 1.25,0.55964 1.25,1.25c0,0.69036 -0.55964,1.25 -1.25,1.25c-0.69036,0 -1.25,-0.55964 -1.25,-1.25z" fill="#940039" stroke="none" stroke-width="0.5" stroke-linecap="butt"/><path d="M258.125,133.25c0,-0.69036 0.55964,-1.25 1.25,-1.25c0.69036,0 1.25,0.55964 1.25,1.25c0,0.69036 -0.55964,1.25 -1.25,1.25c-0.69036,0 -1.25,-0.55964 -1.25,-1.25z" fill="#da5cb1" stroke="none" stroke-width="0.5" stroke-linecap="butt"/><path d="M263.5,131.375c0,-0.69036 0.55964,-1.25 1.25,-1.25c0.69036,0 1.25,0.55964 1.25,1.25c0,0.69036 -0.55964,1.25 -1.25,1.25c-0.69036,0 -1.25,-0.55964 -1.25,-1.25z" fill="#da5cb1" stroke="none" stroke-width="0.5" stroke-linecap="butt"/><path d="M316,134.5c0,-0.69036 0.55964,-1.25 1.25,-1.25c0.69036,0 1.25,0.55964 1.25,1.25c0,0.69036 -0.55964,1.25 -1.25,1.25c-0.69036,0 -1.25,-0.55964 -1.25,-1.25z" fill="#da5cb1" stroke="none" stroke-width="0.5" stroke-linecap="butt"/><path d="M331.1,113.4c0,-0.69035 0.55964,-1.25 1.25,-1.25c0.69036,0 1.25,0.55965 1.25,1.25c0,0.69035 -0.55964,1.25 -1.25,1.25c-0.69036,0 -1.25,-0.55965 -1.25,-1.25z" fill="#942c3b" stroke="none" stroke-width="0.5" stroke-linecap="butt"/><path d="M335.9,110.8c0,-0.69035 0.55964,-1.25 1.25,-1.25c0.69036,0 1.25,0.55965 1.25,1.25c0,0.69035 -0.55964,1.25 -1.25,1.25c-0.69036,0 -1.25,-0.55965 -1.25,-1.25z" fill="#942c3b" stroke="none" stroke-width="0.5" stroke-linecap="butt"/><path d="M342.5,109.6c0,-0.69035 0.55964,-1.25 1.25,-1.25c0.69036,0 1.25,0.55965 1.25,1.25c0,0.69035 -0.55964,1.25 -1.25,1.25c-0.69036,0 -1.25,-0.55965 -1.25,-1.25z" fill="#942c3b" stroke="none" stroke-width="0.5" stroke-linecap="butt"/><path d="M350.1,111c0,-0.69035 0.55964,-1.25 1.25,-1.25c0.69036,0 1.25,0.55965 1.25,1.25c0,0.69035 -0.55964,1.25 -1.25,1.25c-0.69036,0 -1.25,-0.55965 -1.25,-1.25z" fill="#942c3b" stroke="none" stroke-width="0.5" stroke-linecap="butt"/><path d="M354.7,112.8c0,-0.69035 0.55964,-1.25 1.25,-1.25c0.69036,0 1.25,0.55965 1.25,1.25c0,0.69035 -0.55964,1.25 -1.25,1.25c-0.69036,0 -1.25,-0.55965 -1.25,-1.25z" fill="#942c3b" stroke="none" stroke-width="0.5" stroke-linecap="butt"/><path d="M361.9,113c0,-0.69035 0.55964,-1.25 1.25,-1.25c0.69036,0 1.25,0.55965 1.25,1.25c0,0.69035 -0.55964,1.25 -1.25,1.25c-0.69036,0 -1.25,-0.55965 -1.25,-1.25z" fill="#942c3b" stroke="none" stroke-width="0.5" stroke-linecap="butt"/><path d="M372.1,114.6c0,-0.69035 0.55964,-1.25 1.25,-1.25c0.69036,0 1.25,0.55965 1.25,1.25c0,0.69035 -0.55964,1.25 -1.25,1.25c-0.69036,0 -1.25,-0.55965 -1.25,-1.25z" fill="#942c3b" stroke="none" stroke-width="0.5" stroke-linecap="butt"/><path d="M376.9,114.6c0,-0.69035 0.55964,-1.25 1.25,-1.25c0.69036,0 1.25,0.55965 1.25,1.25c0,0.69035 -0.55964,1.25 -1.25,1.25c-0.69036,0 -1.25,-0.55965 -1.25,-1.25z" fill="#942c3b" stroke="none" stroke-width="0.5" stroke-linecap="butt"/><path d="M382.3,112c0,-0.69035 0.55964,-1.25 1.25,-1.25c0.69036,0 1.25,0.55965 1.25,1.25c0,0.69035 -0.55964,1.25 -1.25,1.25c-0.69036,0 -1.25,-0.55965 -1.25,-1.25z" fill="#942c3b" stroke="none" stroke-width="0.5" stroke-linecap="butt"/><path d="M388.5,111.4c0,-0.69035 0.55964,-1.25 1.25,-1.25c0.69036,0 1.25,0.55965 1.25,1.25c0,0.69035 -0.55964,1.25 -1.25,1.25c-0.69036,0 -1.25,-0.55965 -1.25,-1.25z" fill="#942c3b" stroke="none" stroke-width="0.5" stroke-linecap="butt"/><path d="M391.7,115.8c0,-0.69035 0.55964,-1.25 1.25,-1.25c0.69036,0 1.25,0.55965 1.25,1.25c0,0.69035 -0.55964,1.25 -1.25,1.25c-0.69036,0 -1.25,-0.55965 -1.25,-1.25z" fill="#942c3b" stroke="none" stroke-width="0.5" stroke-linecap="butt"/><path d="M321.7,124.6c0,-0.69036 0.55964,-1.25 1.25,-1.25c0.69036,0 1.25,0.55964 1.25,1.25c0,0.69036 -0.55964,1.25 -1.25,1.25c-0.69036,0 -1.25,-0.55964 -1.25,-1.25z" fill="#9d2f3a" stroke="none" stroke-width="0.5" stroke-linecap="butt"/><path d="M376.3,125.6c0,-0.69036 0.55964,-1.25 1.25,-1.25c0.69036,0 1.25,0.55964 1.25,1.25c0,0.69036 -0.55964,1.25 -1.25,1.25c-0.69036,0 -1.25,-0.55964 -1.25,-1.25z" fill="#9d2f3a" stroke="none" stroke-width="0.5" stroke-linecap="butt"/><path d="M379.1,125.4c0,-0.69036 0.55964,-1.25 1.25,-1.25c0.69036,0 1.25,0.55964 1.25,1.25c0,0.69036 -0.55964,1.25 -1.25,1.25c-0.69036,0 -1.25,-0.55964 -1.25,-1.25z" fill="#9d2f3a" stroke="none" stroke-width="0.5" stroke-linecap="butt"/><path d="M383.5,126.4c0,-0.69036 0.55964,-1.25 1.25,-1.25c0.69036,0 1.25,0.55964 1.25,1.25c0,0.69036 -0.55964,1.25 -1.25,1.25c-0.69036,0 -1.25,-0.55964 -1.25,-1.25z" fill="#9d2f3a" stroke="none" stroke-width="0.5" stroke-linecap="butt"/><path d="M385.7,125.2c0,-0.69036 0.55964,-1.25 1.25,-1.25c0.69036,0 1.25,0.55964 1.25,1.25c0,0.69036 -0.55964,1.25 -1.25,1.25c-0.69036,0 -1.25,-0.55964 -1.25,-1.25z" fill="#9d2f3a" stroke="none" stroke-width="0.5" stroke-linecap="butt"/><path d="M265.4,115.6c0,-0.41421 0.33578,-0.75 0.75,-0.75c0.41422,0 0.75,0.33579 0.75,0.75c0,0.41421 -0.33578,0.75 -0.75,0.75c-0.41422,0 -0.75,-0.33579 -0.75,-0.75z" fill="#7c0000" stroke="none" stroke-width="0.5" stroke-linecap="butt"/><path d="M279,115.8c0,-0.41421 0.33578,-0.75 0.75,-0.75c0.41422,0 0.75,0.33579 0.75,0.75c0,0.41421 -0.33578,0.75 -0.75,0.75c-0.41422,0 -0.75,-0.33579 -0.75,-0.75z" fill="#7c0000" stroke="none" stroke-width="0.5" stroke-linecap="butt"/><path d="M311.4,117.6c0,-0.41421 0.33578,-0.75 0.75,-0.75c0.41422,0 0.75,0.33579 0.75,0.75c0,0.41422 -0.33578,0.75 -0.75,0.75c-0.41422,0 -0.75,-0.33578 -0.75,-0.75z" fill="#7c0000" stroke="none" stroke-width="0.5" stroke-linecap="butt"/><path d="M320,116.2c0,-0.41421 0.33578,-0.75 0.75,-0.75c0.41422,0 0.75,0.33579 0.75,0.75c0,0.41421 -0.33578,0.75 -0.75,0.75c-0.41422,0 -0.75,-0.33579 -0.75,-0.75z" fill="#7c0000" stroke="none" stroke-width="0.5" stroke-linecap="butt"/><path d="M260.4,127.8c0,-0.41422 0.33578,-0.75 0.75,-0.75c0.41422,0 0.75,0.33578 0.75,0.75c0,0.41422 -0.33578,0.75 -0.75,0.75c-0.41422,0 -0.75,-0.33578 -0.75,-0.75z" fill="#940039" stroke="none" stroke-width="0.5" stroke-linecap="butt"/><path d="M265.2,127.4c0,-0.41422 0.33578,-0.75 0.75,-0.75c0.41422,0 0.75,0.33578 0.75,0.75c0,0.41422 -0.33578,0.75 -0.75,0.75c-0.41422,0 -0.75,-0.33578 -0.75,-0.75z" fill="#940039" stroke="none" stroke-width="0.5" stroke-linecap="butt"/><path d="M315.4,128.6c0,-0.41422 0.33578,-0.75 0.75,-0.75c0.41422,0 0.75,0.33578 0.75,0.75c0,0.41422 -0.33578,0.75 -0.75,0.75c-0.41422,0 -0.75,-0.33578 -0.75,-0.75z" fill="#940039" stroke="none" stroke-width="0.5" stroke-linecap="butt"/><path d="M317,140.6c0,-0.41422 0.33578,-0.75 0.75,-0.75c0.41422,0 0.75,0.33578 0.75,0.75c0,0.41422 -0.33578,0.75 -0.75,0.75c-0.41422,0 -0.75,-0.33578 -0.75,-0.75z" fill="#da5cb1" stroke="none" stroke-width="0.5" stroke-linecap="butt"/><path d="M261.8,141.4c0,-0.41421 0.33579,-0.75 0.75,-0.75c0.41421,0 0.75,0.33579 0.75,0.75c0,0.41421 -0.33579,0.75 -0.75,0.75c-0.41421,0 -0.75,-0.33579 -0.75,-0.75z" fill="#da5cb1" stroke="none" stroke-width="0.5" stroke-linecap="butt"/><g stroke="#000000" stroke-width="0"><path d="M269.94117,143.75672l-5.99095,-10.29695l8.61199,2.05939z" fill="#000000" stroke-linecap="round"/><path d="M268.99199,138.84787c0,-12.96801 10.51265,-23.48065 23.48066,-23.48065c12.96801,0 23.48065,10.51264 23.48065,23.48065c0,12.96801 -10.51264,23.48066 -23.48065,23.48066c-12.96801,0 -23.48066,-10.51265 -23.48066,-23.48066z" fill="#ffffff" stroke-linecap="butt"/><path d="M280.15143,138.88832c0,-6.0905 4.93732,-11.02784 11.02784,-11.02784c6.0905,0 11.02784,4.93733 11.02784,11.02785c0,6.0905 -4.93733,11.02785 -11.02784,11.02785c-6.0905,0 -11.02784,-4.93733 -11.02784,-11.02785z" fill="#000000" stroke-linecap="butt"/><path d="M346.76145,162.32856c-12.96172,0.4038 -22.32894,-10.51265 -22.32894,-23.48066c0,-12.96801 9.17444,-24.54613 22.0986,-23.48065c27.94018,2.30341 25.78407,10.2823 25.78407,23.25031c0,12.96801 -3.37208,23.01998 -25.55373,23.711z" fill="url(#color-1)" stroke-linecap="butt"/><path d="M356.55658,149.99227c-5.46918,0 -6.56353,-4.58545 -6.56353,-10.05464c0,-5.4692 1.09435,-9.75106 6.56353,-9.75106c5.46918,0 11.57249,4.43366 11.57249,9.90284c0,0 -6.1033,9.90286 -11.57249,9.90286z" fill="#000000" stroke-linecap="butt"/></g></g></g></g></svg>