<svg version="1.1" xmlns="http://www.w3.org/2000/svg" xmlns:xlink="http://www.w3.org/1999/xlink" width="213.18203" height="281.18476" viewBox="0,0,213.18203,281.18476"><defs><linearGradient x1="320.08742" y1="187.07227" x2="320.08742" y2="244.23177" gradientUnits="userSpaceOnUse" id="color-1"><stop offset="0" stop-color="#7a6b00"/><stop offset="1" stop-color="#7a6b00" stop-opacity="0"/></linearGradient></defs><g transform="translate(-214.78369,-38.88751)"><g stroke-miterlimit="10"><g stroke-linecap="butt"><g stroke="#000000" stroke-width="3.5"><path d="M305.95852,226.44738c-9.00965,0.82033 -9.44036,-3.9101 -9.44036,-3.9101l-0.22787,-2.69529c-0.26853,-0.78052 -0.53707,-1.56103 -0.8056,-2.34155c-2.54342,-8.35941 1.32484,-17.01797 -0.43857,-25.32628c-1.04303,-4.91423 -3.48603,-10.66972 -5.66757,-15.19569c-2.37231,-4.92173 -6.9453,-8.89917 -7.84667,-14.11288c-0.96106,-5.55895 5.90198,-10.53862 4.93366,-15.7274c0,0 -0.43071,-4.73043 8.57894,-5.55077c9.00965,-0.82033 9.44036,3.9101 9.44036,3.9101c0.06347,1.58678 0.66504,3.15767 0.19042,4.76033c-0.86603,2.92435 -4.42103,5.65746 -5.4815,8.57633c-1.04268,2.86991 2.1291,6.20152 3.73162,8.56071c3.3634,4.95146 5.49978,10.19458 7.49325,15.43043c1.34657,3.53681 2.91265,6.94959 2.88467,10.66629c-0.05407,7.18428 -2.2299,14.24554 -0.02456,21.2703c0.31417,0.95156 0.62834,1.90311 0.94251,2.85468l0.31621,3.28c0,0 0.43071,4.73043 -8.57895,5.55077z" fill="#39940f"/><path d="M284.64846,230.34801c-8.85819,1.48107 -10.55872,-3.08581 -10.55872,-3.08581l-0.90772,-2.46027c-0.67904,-2.39792 -1.11141,-4.83363 -1.3346,-7.28491c0.43231,-4.46454 0.60121,-9.33236 2.18485,-13.83014c1.71181,-4.8618 4.33564,-8.57731 4.24936,-13.4651c-0.09999,-5.66495 -3.40031,-10.61647 -4.63993,-16.13972c-1.44784,-6.45095 -1.31321,-13.56479 0.172,-20.21421c0.84358,-3.7768 3.08607,-7.46559 4.13008,-11.2404c0,0 1.3446,-4.79944 10.26376,-4.67613c8.91916,0.12331 7.57456,4.92276 7.57456,4.92276c-2.80405,9.89899 -6.44668,19.07442 -4.22749,28.90078c1.32247,5.85576 4.72601,11.10165 4.76559,17.14456c0.03622,5.53049 -2.62997,10.00176 -4.59233,15.45575c-1.25105,3.477 -1.50638,8.58865 -1.8406,11.97452c0.18032,1.9804 0.5771,3.94298 1.13891,5.87835l0.77995,2.07203c0,0 1.70053,4.56688 -7.15766,6.04795z" fill="#28670a"/><path d="M321.03795,226.0721c-8.52522,-0.99517 -5.57902,-5.69194 -5.57902,-5.69194l0.62895,0.04057c-0.07979,-0.91768 -0.15958,-1.83534 -0.23938,-2.75302c-2.51535,-8.66546 -8.09719,-16.91222 -9.35977,-25.76864c-0.85595,-6.00413 -0.43186,-10.07389 -2.01996,-15.72912c-1.83186,-6.52323 -5.4854,-12.7938 -6.91252,-19.40173c-0.97188,-4.50001 -0.29045,-9.13218 -1.81633,-13.56469c0,0 -1.54489,-4.59215 7.34177,-5.99288c8.88666,-1.40073 10.43156,3.19142 10.43156,3.19142c1.54112,4.66791 0.96373,9.48388 1.9871,14.20483c1.3914,6.41868 4.99877,12.50856 6.77014,18.8485c1.88086,6.73173 1.16995,9.08092 2.17638,16.35588c1.22183,8.83186 6.90353,17.08919 9.35567,25.74654c0.10155,1.07409 0.20311,2.14817 0.30466,3.22226l-1.59783,3.59045c0,0 -2.9462,4.69676 -11.47141,3.70158z" fill="#448f21"/><path d="M273.11388,236.80156c-9.00965,0.82033 -9.44036,-3.9101 -9.44036,-3.9101l-0.03022,-0.33196c-1.20835,-13.27124 -2.22206,-26.46235 -1.03129,-39.91772c0.49177,-5.55684 2.98172,-11.21623 2.89827,-16.74767c-0.15759,-10.44526 -1.12261,-20.74758 -0.27387,-31.27136c0,0 0.38675,-4.78527 9.3984,-5.17397c9.01165,-0.38869 8.62489,4.39659 8.62489,4.39659c-0.84338,10.41205 0.20085,20.59696 0.28994,30.93377c0.0492,5.70767 -2.43161,11.52753 -2.93081,17.25428c-1.14264,13.10828 -0.13348,25.95568 1.04378,38.88541l0.03022,0.33196c0,0 0.43071,4.73043 -8.57895,5.55077z" fill="#275313"/><path d="M314.31201,221.92128l-0.28138,-3.28317c0.13715,-0.99265 0.2743,-1.9853 0.41145,-2.97796c0.90038,-7.30754 -2.51498,-13.85972 -3.86566,-20.91609c-0.69876,-3.65053 0.22521,-7.29004 0.91087,-11.01188c1.01507,-5.50978 2.16941,-11.05252 4.58324,-16.53c1.1501,-2.60982 3.668,-6.45948 2.12416,-9.09388c-1.57019,-2.67934 -5.56033,-4.72546 -6.94027,-7.44532c-0.75627,-1.4906 -0.4483,-3.1443 -0.67245,-4.71645c0,0 -0.43071,-4.73043 8.57894,-5.55077c9.00966,-0.82033 9.44037,3.9101 9.44037,3.9101c-0.0153,5.27834 7.63424,8.93663 7.69294,14.57774c0.05506,5.29076 -3.72439,10.0287 -5.16881,15.29794c-1.32826,4.84554 -2.69163,10.9476 -2.82998,15.9694c-0.23389,8.49017 5.13452,16.30773 4.14266,24.98902c-0.12315,0.81618 -0.24632,1.63236 -0.36947,2.44854l0.26266,2.69212c0,0 0.43071,4.73043 -8.57894,5.55077c-9.00965,0.82033 -9.44036,-3.9101 -9.44036,-3.9101z" fill="#39940f"/><path d="M337.28423,221.16339l0.3929,-2.17882c0.20304,-2.00501 0.23885,-4.00698 0.05853,-5.98738c-0.94023,-3.26981 -2.11455,-8.2513 -3.97298,-11.44518c-2.91511,-5.0099 -6.34498,-8.92612 -7.30818,-14.3722c-1.05245,-5.95068 1.34771,-11.72501 1.59086,-17.7233c0.40802,-10.06556 -4.83182,-18.43224 -9.37756,-27.66203c0,0 -2.18928,-4.47769 6.56094,-6.20981c8.75023,-1.73212 10.93951,2.74557 10.93951,2.74557c1.70859,3.52419 4.58041,6.74733 6.09222,10.30966c2.6617,6.27184 4.07889,13.24439 3.81994,19.85074c-0.22173,5.65631 -2.57351,11.12245 -1.64875,16.71231c0.79789,4.823 4.04963,8.00354 6.61134,12.47623c2.36991,4.1378 3.41518,8.89506 4.64668,13.20812c0.22319,2.45129 0.23783,4.92503 0.00303,7.40616l-0.44847,2.58375c0,0 -0.84778,4.7989 -9.82779,4.94201c-8.98002,0.14311 -8.13224,-4.6558 -8.13224,-4.6558z" fill="#28670a"/><path d="M296.90184,226.61674l-2.22,-3.24284c-0.0941,-1.07476 -0.1882,-2.14953 -0.28231,-3.22429c0.84827,-8.95786 4.94524,-18.10554 4.5519,-27.01283c-0.324,-7.33709 -1.44749,-9.51926 -0.81334,-16.47999c0.59724,-6.55559 3.04544,-13.19685 3.25471,-19.76127c0.15392,-4.82814 -1.28375,-9.46063 -0.61102,-14.33012c0,0 0.69013,-4.79565 9.68363,-5.02292c8.9935,-0.22727 8.30338,4.56839 8.30338,4.56839c-0.70027,4.6352 0.80656,9.06813 0.66337,13.66967c-0.21024,6.757 -2.67121,13.58431 -3.29482,20.33111c-0.54064,5.84905 0.6115,9.77529 0.85398,15.83528c0.35768,8.93881 -3.64298,18.05807 -4.55195,27.03531c0.08725,0.917 0.17451,1.83398 0.26175,2.75098l0.61128,-0.15349c0,0 3.746,4.08743 -4.45929,6.60593c-8.2053,2.5185 -11.9513,-1.56894 -11.9513,-1.56894z" fill="#448f21"/><path d="M348.48655,226.17334l-0.03022,-0.33196c-1.17726,-12.92974 -2.50499,-25.74814 -5.99623,-38.43449c-1.52525,-5.54243 -5.01637,-10.81854 -5.99881,-16.44124c-1.77923,-10.18293 -2.5916,-20.38895 -5.30157,-30.47746c0,0 -1.24463,-4.63673 7.68902,-5.88198c8.93366,-1.24524 10.17829,3.3915 10.17829,3.3915c2.73542,10.19744 3.6469,20.50463 5.37835,30.80659c0.91691,5.45555 4.38803,10.57219 5.8753,15.94884c3.60127,13.01906 4.98659,26.17632 6.19494,39.44757l0.03022,0.33196c0,0 0.43071,4.73043 -8.57894,5.55077c-9.00965,0.82033 -9.44036,-3.9101 -9.44036,-3.9101z" fill="#275313"/></g><g stroke="none" stroke-width="0.5"><path d="M305.95852,226.44738c-9.00965,0.82033 -9.44036,-3.9101 -9.44036,-3.9101l-0.22786,-2.69528c-0.26853,-0.78052 -0.53707,-1.56103 -0.8056,-2.34155c-2.54342,-8.35942 1.32484,-17.01797 -0.43857,-25.32628c-1.04303,-4.91423 -3.48603,-10.66972 -5.66757,-15.19568c-2.3723,-4.92174 -6.9453,-8.89917 -7.84668,-14.11289c-0.96106,-5.55895 5.90198,-10.53862 4.93366,-15.72739c0,0 -0.43071,-4.73043 8.57894,-5.55077c9.00965,-0.82033 9.44036,3.9101 9.44036,3.9101c0.06347,1.58678 0.66504,3.15767 0.19042,4.76033c-0.86604,2.92436 -4.42102,5.65746 -5.4815,8.57633c-1.04268,2.86991 2.12909,6.20152 3.73162,8.56071c3.3634,4.95146 5.49979,10.19458 7.49325,15.43043c1.34657,3.5368 2.91265,6.94959 2.88467,10.66629c-0.05407,7.18428 -2.2299,14.24554 -0.02456,21.2703c0.31417,0.95156 0.62833,1.90312 0.94251,2.85468l0.3162,3.27999c0,0 0.43071,4.73043 -8.57894,5.55077z" fill="#39940f"/><path d="M284.64846,230.34801c-8.85819,1.48107 -10.55872,-3.08581 -10.55872,-3.08581l-0.90772,-2.46027c-0.67904,-2.39792 -1.11141,-4.83363 -1.3346,-7.28491c0.43231,-4.46454 0.60121,-9.33236 2.18485,-13.83014c1.71182,-4.8618 4.33564,-8.57731 4.24937,-13.4651c-0.09999,-5.66495 -3.40031,-10.61647 -4.63994,-16.13972c-1.44783,-6.45095 -1.3132,-13.5648 0.17201,-20.21421c0.84358,-3.7768 3.08607,-7.46559 4.13008,-11.2404c0,0 1.34459,-4.79945 10.26376,-4.67613c8.91916,0.12331 7.57457,4.92276 7.57457,4.92276c-2.80406,9.89899 -6.44669,19.07441 -4.22749,28.90078c1.32246,5.85576 4.72602,11.10165 4.76559,17.14455c0.03622,5.53049 -2.62996,10.00175 -4.59233,15.45575c-1.25105,3.477 -1.50638,8.58865 -1.8406,11.97452c0.18032,1.9804 0.5771,3.94298 1.13891,5.87835l0.77995,2.07203c0,0 1.70054,4.56688 -7.15766,6.04795z" fill="#28670a"/><path d="M321.03795,226.0721c-8.52522,-0.99517 -5.57902,-5.69194 -5.57902,-5.69194l0.62895,0.04057c-0.0798,-0.91767 -0.15959,-1.83534 -0.23938,-2.75302c-2.51535,-8.66546 -8.09719,-16.91222 -9.35977,-25.76864c-0.85595,-6.00413 -0.43186,-10.07389 -2.01996,-15.72912c-1.83186,-6.52322 -5.4854,-12.7938 -6.91252,-19.40172c-0.97187,-4.50001 -0.29044,-9.13219 -1.81633,-13.56469c0,0 -1.54489,-4.59215 7.34177,-5.99288c8.88666,-1.40074 10.43155,3.19141 10.43155,3.19141c1.54112,4.66792 0.96373,9.48388 1.9871,14.20482c1.39139,6.41868 4.99877,12.50857 6.77015,18.8485c1.88085,6.73173 1.16995,9.08092 2.17638,16.35587c1.22183,8.83186 6.90353,17.08919 9.35567,25.74654c0.10155,1.07409 0.20311,2.14817 0.30466,3.22226l-1.59782,3.59045c0,0 -2.9462,4.69676 -11.47141,3.70158z" fill="#448f21"/><path d="M273.11388,236.80156c-9.00965,0.82033 -9.44036,-3.9101 -9.44036,-3.9101l-0.03023,-0.33197c-1.20835,-13.27124 -2.22206,-26.46235 -1.03129,-39.91772c0.49177,-5.55684 2.98172,-11.21623 2.89827,-16.74767c-0.15759,-10.44526 -1.12261,-20.74757 -0.27387,-31.27136c0,0 0.38675,-4.78528 9.3984,-5.17397c9.01165,-0.38869 8.62489,4.39659 8.62489,4.39659c-0.84338,10.41205 0.20085,20.59695 0.28994,30.93377c0.04921,5.70767 -2.43161,11.52753 -2.93081,17.25428c-1.14264,13.10827 -0.13349,25.95568 1.04377,38.88541l0.03023,0.33197c0,0 0.43071,4.73043 -8.57894,5.55077z" fill="#275313"/><path d="M314.31201,221.92128l-0.28138,-3.28316c0.13715,-0.99265 0.27429,-1.9853 0.41145,-2.97796c0.90037,-7.30755 -2.51498,-13.85973 -3.86565,-20.91609c-0.69876,-3.65053 0.2252,-7.29004 0.91087,-11.01188c1.01506,-5.50978 2.1694,-11.05252 4.58324,-16.53c1.1501,-2.60982 3.66801,-6.45948 2.12416,-9.09388c-1.57019,-2.67934 -5.56033,-4.72546 -6.94028,-7.44532c-0.75627,-1.4906 -0.4483,-3.1443 -0.67245,-4.71645c0,0 -0.43071,-4.73043 8.57894,-5.55077c9.00965,-0.82033 9.44036,3.9101 9.44036,3.9101c-0.0153,5.27834 7.63424,8.93664 7.69295,14.57773c0.05506,5.29077 -3.7244,10.0287 -5.16881,15.29795c-1.32826,4.84553 -2.69163,10.94759 -2.82998,15.96939c-0.23389,8.49017 5.13452,16.30773 4.14266,24.98902c-0.12315,0.81618 -0.24631,1.63236 -0.36946,2.44854l0.26266,2.69211c0,0 0.43071,4.73043 -8.57894,5.55077c-9.00965,0.82033 -9.44036,-3.9101 -9.44036,-3.9101z" fill="#39940f"/><path d="M337.28423,221.16339l0.3929,-2.17883c0.20304,-2.00501 0.23885,-4.00698 0.05853,-5.98738c-0.94024,-3.26982 -2.11455,-8.2513 -3.97297,-11.44518c-2.91511,-5.00991 -6.34498,-8.92613 -7.30818,-14.37221c-1.05244,-5.95067 1.34771,-11.72501 1.59086,-17.7233c0.40802,-10.06556 -4.83182,-18.43224 -9.37756,-27.66203c0,0 -2.18928,-4.47769 6.56094,-6.20981c8.75023,-1.73212 10.93951,2.74557 10.93951,2.74557c1.70859,3.52419 4.58041,6.74733 6.09222,10.30966c2.6617,6.27184 4.07889,13.24439 3.81994,19.85074c-0.22173,5.65631 -2.57351,11.12245 -1.64875,16.71231c0.7979,4.82301 4.04962,8.00354 6.61134,12.47623c2.36991,4.1378 3.41518,8.89506 4.64669,13.20812c0.22319,2.45128 0.23783,4.92503 0.00303,7.40616l-0.44847,2.58375c0,0 -0.84778,4.7989 -9.82779,4.94201c-8.98002,0.14311 -8.13224,-4.6558 -8.13224,-4.6558z" fill="#28670a"/><path d="M296.90184,226.61674l-2.21999,-3.24284c-0.0941,-1.07476 -0.18819,-2.14953 -0.2823,-3.2243c0.84826,-8.95786 4.94524,-18.10554 4.5519,-27.01283c-0.324,-7.33709 -1.4475,-9.51926 -0.81334,-16.47998c0.59723,-6.55559 3.04544,-13.19685 3.25472,-19.76127c0.15392,-4.82814 -1.28375,-9.46063 -0.61102,-14.33012c0,0 0.69013,-4.79565 9.68363,-5.02291c8.9935,-0.22727 8.30338,4.56839 8.30338,4.56839c-0.70027,4.63519 0.80655,9.06813 0.66337,13.66967c-0.21024,6.757 -2.67121,13.58431 -3.29483,20.3311c-0.54063,5.84905 0.6115,9.7753 0.85399,15.83528c0.35767,8.93881 -3.64298,18.05807 -4.55195,27.03531c0.08725,0.917 0.17451,1.83398 0.26176,2.75098l0.61128,-0.15349c0,0 3.746,4.08743 -4.45929,6.60593c-8.2053,2.5185 -11.9513,-1.56894 -11.9513,-1.56894z" fill="#448f21"/><path d="M348.48655,226.17334l-0.03022,-0.33196c-1.17726,-12.92974 -2.50499,-25.74814 -5.99624,-38.43449c-1.52526,-5.54243 -5.01637,-10.81854 -5.9988,-16.44124c-1.77923,-10.18293 -2.5916,-20.38895 -5.30157,-30.47746c0,0 -1.24463,-4.63673 7.68902,-5.88198c8.93366,-1.24524 10.17828,3.3915 10.17828,3.3915c2.73542,10.19745 3.64691,20.50463 5.37835,30.80659c0.91691,5.45554 4.38803,10.57219 5.8753,15.94884c3.60127,13.01906 4.9866,26.17632 6.19495,39.44756l0.03022,0.33196c0,0 0.43071,4.73043 -8.57894,5.55077c-9.00965,0.82033 -9.44036,-3.9101 -9.44036,-3.9101z" fill="#275313"/></g></g><g stroke="#000000" stroke-width="3.5"><path d="M359.20764,176.3917l2.56075,6.7855l-7.7614,-1.87993z" fill="#000000" stroke-linecap="round"/><path d="M329.2037,123.33136c-1.27338,-0.84196 -2.10504,-2.2558 -2.12271,-3.90981c-0.01992,-1.86542 1.00056,-3.56689 2.53827,-4.55653c1.27195,-2.2833 7.39322,-0.70544 9.22093,-0.0385c6.67561,2.43601 13.26175,10.31984 16.02368,16.61823c8.66226,19.75362 -6.04306,42.85769 -1.3397,63.08466c2.62685,11.29681 11.55143,20.30714 14.51566,31.58492c0.9687,3.68556 1.28994,10.88988 -4.86269,11.30951c-1.76335,0.12026 -3.36043,-1.10576 -4.62021,-2.22803c-0.99284,-0.88446 -0.66196,-5.19772 -0.72019,-5.95179c-0.27298,-3.535 -2.71742,-7.1764 -4.26977,-10.18914c-3.46208,-6.71907 -9.31444,-14.63964 -10.4331,-22.36754c-2.90029,-20.03582 6.05355,-40.3065 2.22,-60.20603c-0.72322,-3.7541 -7.04498,-10.16229 -9.77521,-11.74783c-1.04741,-0.60825 -2.12794,-0.57428 -3.21868,-0.58575c-0.48002,0.03061 -0.94548,-0.00218 -1.3881,-0.09102c-0.40659,-0.06423 -0.81324,-0.1748 -1.2188,-0.36691c-0.20455,-0.0969 -0.38618,-0.21797 -0.5494,-0.35842z" fill="#9efd71" stroke-linecap="butt"/><path d="M354.16168,110.23822c0.41802,-2.40255 2.5427,-4.34809 5.1206,-4.52391c1.50764,-0.10282 2.87341,0.4199 3.84134,1.34014c0.16673,0.15853 0.32166,0.32884 0.46348,0.50977c2.14089,1.65119 4.58956,3.04499 6.87067,4.51776c0.04126,0.02664 0.05871,0.07947 0.0994,0.10687c19.95829,13.44486 17.38064,43.08437 16.51224,64.42703c-0.07306,1.79539 -0.37241,3.59141 -0.43074,5.38645c-0.07675,2.36189 -0.03854,4.72163 0.07552,7.07101c0.12489,2.57227 3.97199,6.30409 2.85072,8.9783c-1.90247,4.5374 -3.92481,5.4624 -8.49382,3.88504c-4.35052,-1.50194 -4.92713,-17.54844 -4.93355,-19.47181c-0.006,-1.7968 0.48396,-4.19563 0.49271,-5.64124c0.06662,-11.01583 1.10003,-26.90896 -1.46031,-38.88286c-1.214,-5.6775 -3.56617,-11.63952 -8.17732,-15.32381c-3.45427,-2.75993 -13.16084,-5.89052 -12.94103,-11.74397c0.00836,-0.22225 0.04645,-0.43332 0.11009,-0.63478z" fill="#9efd71" stroke-linecap="butt"/><path d="M336.46004,117.44339c-0.02999,-2.80702 2.29587,-5.24285 5.19493,-5.44057c0.45442,-0.03099 0.89595,-0.00515 1.31758,0.07127c1.10776,-0.36911 2.94698,1.65868 3.65361,2.35186c3.32214,3.25886 5.97386,6.40787 8.67959,10.18178c13.5581,18.9106 4.81313,41.6193 5.68279,63.21053c0.14005,3.47704 0.82701,7.53975 2.21503,10.71012c0.41535,0.9487 2.20683,2.76439 2.21357,3.39634c0.01824,1.70737 -0.10515,3.74423 -1.33913,5.03657c-7.77431,8.14191 -11.79055,-7.40028 -12.57834,-11.11059c-0.25298,-1.19146 -0.5257,-2.48708 -0.67294,-3.70349c-2.16242,-17.86538 4.86523,-35.74144 -0.1654,-53.49382c-1.70359,-6.01172 -6.18172,-11.1987 -10.43485,-15.53372c-0.84697,-0.86329 -4.92374,-4.12934 -3.76644,-5.67625z" fill="#67dc31" stroke-linecap="butt"/><path d="M384.41643,165.26303c0.76694,0.82933 1.23468,1.93121 1.24788,3.16717c0.01992,1.86542 -1.00056,3.5669 -2.53828,4.55653c-0.492,0.88319 -1.83588,0.98567 -3.01207,0.89682c-0.53417,-0.04036 -1.03376,-0.12018 -1.40325,-0.18424c-4.12782,-0.71581 -5.10298,-5.8992 -5.74656,-9.50707c-0.90495,-5.07306 -1.90792,-11.93138 -3.37844,-16.84795c-1.81796,-6.07823 -5.0627,-11.5442 -7.03784,-17.56674c-3.52078,-10.73551 -2.71285,-14.046 -10.77625,-23.17622c-2.17055,-2.45773 -4.89846,-5.8582 -0.70664,-9.21417c4.7243,-3.78226 7.58435,0.85597 9.93699,3.44153c6.98625,7.67797 9.00715,15.61977 11.62735,25.50402c0.9843,3.71312 2.68417,6.38356 4.09131,9.9438c2.16141,5.46858 3.79288,11.16874 5.07908,16.9359c1.02664,4.60325 1.34588,8.18775 2.61674,12.0506z" fill="#67dc31" stroke-linecap="butt"/><path d="M357.6742,95.63277c1.25767,0.84409 2.07739,2.24933 2.09493,3.89128c0.00047,0.04475 0.00034,0.08941 -0.00036,0.13397c0.14695,0.60224 0.00362,1.17333 -0.32688,1.70995c-0.7357,1.95948 -2.6311,3.44412 -4.86769,3.59666c-1.92929,1.07103 -4.75482,-2.29634 -6.08765,-2.8928c-4.70587,-2.10593 -10.34355,-4.5459 -15.85249,-4.17716c-6.22742,0.41684 -13.49108,2.05767 -19.13331,5.28051c-1.31837,0.75306 -3.27214,2.97389 -5.0792,3.33769c-2.78241,0.56017 -5.28177,1.06905 -6.67413,-2.76164c-2.31251,-6.3622 9.39992,-10.61867 13.69826,-12.1865c12.07639,-4.4049 24.96596,-5.31139 36.1564,0.40224c2.51728,1.28528 4.58118,2.14505 6.07212,3.66581z" fill="#67dc31" stroke-linecap="butt"/><path d="M355.12694,103.64455c0.85917,0.84512 1.38993,2.01043 1.40401,3.3282c0.00047,0.04475 0.00034,0.08941 -0.00036,0.13397c0.0921,0.37748 0.07017,0.74272 -0.04041,1.09491c6.3005,7.00082 15.27453,17.623 14.68754,26.07325c-0.43352,6.2407 -0.23869,12.5552 -1.63952,18.71672c-1.43556,6.31427 -4.33501,12.84773 -3.73808,19.37662c0.79321,8.67573 5.73802,17.24047 8.58849,25.25677c2.95754,8.31741 5.49796,16.9231 8.82066,25.04544c1.09179,2.66889 0.83215,5.94889 -2.9664,7.43908c-7.20716,2.8274 -10.20649,-12.43601 -11.55766,-16.46063c-0.55254,-1.64582 -1.1254,-3.28411 -1.69598,-4.92321c-0.83419,-2.39635 -1.62135,-4.81135 -2.51829,-7.1831c-3.33039,-8.80638 -8.81249,-18.41416 -9.16541,-28.09714c-0.47658,-13.0756 5.74698,-25.05504 5.3235,-38.36747c-0.3137,-9.86149 -11.01891,-16.97696 -16.19931,-23.90117c-0.4783,-0.6393 -0.76142,-1.4321 -0.84602,-2.27172c-0.01931,-0.16767 -0.03009,-0.33838 -0.03193,-0.51172c-0.00372,-0.34816 0.02881,-0.69062 0.09417,-1.0238c0.00445,-0.02469 0.00906,-0.04938 0.01383,-0.07405c-3.4504,-1.5971 -8.62194,-2.28406 -11.91255,-2.11252c-4.79498,0.24997 -9.56074,0.03134 -14.18081,1.49733c-2.82745,0.89718 -6.66432,5.67859 -9.79427,3.88404c-1.47731,-0.84701 -2.83405,-2.36754 -2.97991,-4.06172c-0.55872,-6.4892 10.05404,-9.95813 15.0801,-10.60432c10.29147,-1.32314 29.17194,-2.38498 35.25464,7.74623z" fill="#4cc513" stroke-linecap="butt"/><path d="M372.4081,131.50124c1.38247,0.17307 2.00827,3.55875 2.29371,4.77002c1.49597,6.34839 1.72512,12.91014 1.97769,19.50049c0.2786,7.26983 -0.61302,14.56019 -0.31806,21.76855c0.3539,8.64871 5.66238,16.52444 5.79785,25.12663c0.1081,6.86346 0.34131,13.72114 0.21998,20.59775c-0.04732,2.68168 -1.78978,5.20833 -5.19494,5.44058c-3.4079,0.23243 -5.19762,-2.05333 -5.3035,-4.72455c-0.26598,-6.70984 -0.07918,-13.45607 -0.21548,-20.17709c-0.15904,-7.84212 -4.35802,-15.91035 -5.62578,-23.69959c-1.11137,-6.82832 0.21283,-16.97292 0.14418,-23.43723c-0.05319,-5.00918 -0.31661,-10.76107 -1.27205,-15.70964c-0.35944,-1.86169 -1.46094,-4.1221 -1.10848,-6.03886c0.04067,-0.22114 0.10932,-0.42812 0.20163,-0.62309c0.8038,-1.69781 3.40178,-2.48633 4.94217,-3.80874z" fill="#7ade4c" stroke-linecap="butt"/><path d="M331.64005,124.18505c-1.21077,0.87015 -5.8817,-1.45862 -7.58683,-1.34462c-1.6496,0.11028 -3.29924,0.21918 -4.94874,0.33752c-2.45273,0.17597 -3.31367,2.88017 -6.34664,2.87384c-3.50648,-0.00732 -5.54398,-4.56724 -4.19313,-7.67527c1.16619,-2.68319 4.17996,-3.13532 6.43917,-4.26223c4.40472,-2.19711 12.09284,-2.52399 17.069,-0.04476c2.101,1.04676 3.71854,2.59373 4.40141,4.71139z" fill="#9efd71" stroke-linecap="butt"/><path d="M344.47928,111.98743c1.31372,0.83583 2.17636,2.27142 2.19435,3.95625c0.00047,0.04475 0.00034,0.08941 -0.00036,0.13397c0.14695,0.60224 0.00362,1.17333 -0.32688,1.70996c-0.7357,1.95948 -2.63111,3.44412 -4.86771,3.59666c-1.23055,0.68313 -2.23137,0.08913 -3.08666,-0.75405c-0.73619,-0.46273 -1.33249,-1.11298 -1.72052,-1.88973c-0.16636,-0.15463 -0.32789,-0.27818 -0.48576,-0.35587c-2.55885,-1.25927 -6.03142,-3.15299 -9.09556,-3.34445c-3.34154,-0.2088 -7.4184,0.02092 -10.60694,0.28563c-2.09105,0.1736 -2.84861,3.92326 -6.01845,3.11915c-1.67863,-0.42583 -3.62703,-1.06771 -4.43194,-2.54105c-2.90105,-5.31021 4.89241,-9.48327 9.00832,-10.65229c8.09863,-2.3002 23.43586,-0.07182 29.4381,6.73583z" fill="#67dc31" stroke-linecap="butt"/></g><g stroke="#000000" stroke-width="3.5"><path d="M267.55544,177.61161l-7.69518,2.44255l2.32947,-6.5601z" fill="#000000" stroke-linecap="round"/><path d="M289.84509,121.69495c-0.3989,0.21525 -0.80168,0.3545 -1.20596,0.45047c-0.43947,0.12215 -0.90367,0.19402 -1.38458,0.20799c-1.09002,0.10738 -2.17138,0.17144 -3.19781,0.832c-2.67553,1.72182 -8.77769,8.26313 -9.37317,11.83106c-3.15643,18.91265 6.48328,37.03827 4.26445,55.9954c-0.85581,7.31185 -6.43731,15.2231 -9.67011,21.80109c-1.44954,2.94948 -3.76953,6.56479 -3.92236,9.88831c-0.0326,0.70896 0.44469,4.70535 -0.51779,5.61883c-1.22127,1.1591 -2.77621,2.44495 -4.54312,2.489c-6.16502,0.1537 -6.0886,-6.59879 -5.24538,-10.12449c2.58023,-10.78864 11.19603,-19.98931 13.43833,-30.76582c4.01485,-19.29536 -11.4708,-39.55566 -3.4822,-58.76014c2.54715,-6.12329 8.86347,-14.0653 15.45429,-16.9306c1.80449,-0.7845 7.87032,-2.79973 9.21943,-0.78139c1.57086,0.78736 2.64884,2.28495 2.69229,4.02777c0.03852,1.5453 -0.74487,2.9386 -1.98925,3.83729c-0.15841,0.14556 -0.33585,0.27466 -0.53704,0.38323z" fill="#9efd71" stroke-linecap="butt"/><path d="M265.11862,111.88639c0.41859,5.44373 -9.17869,9.22596 -12.53815,12.10807c-4.4846,3.84737 -6.63351,9.6204 -7.65429,15.027c-2.15283,11.40256 -0.57986,26.14454 -0.13905,36.42004c0.05784,1.34845 0.62914,3.54394 0.68418,5.22148c0.05891,1.79572 0.02756,16.82352 -4.27061,18.61094c-4.51405,1.8772 -6.56718,1.1931 -8.6232,-2.87317c-1.21175,-2.39652 2.50739,-6.22055 2.54487,-8.6324c0.03422,-2.20285 -0.00775,-4.40866 -0.1647,-6.60629c-0.11929,-1.67019 -0.47955,-3.31995 -0.61357,-4.98918c-1.59313,-19.8428 -5.1768,-47.27779 14.31868,-61.59535c0.03975,-0.02919 0.0554,-0.08005 0.09574,-0.10856c2.23038,-1.57677 4.63097,-3.0947 6.71511,-4.82557c0.13563,-0.18146 0.28472,-0.35415 0.44602,-0.51687c0.93638,-0.94468 2.28398,-1.55361 3.79466,-1.59128c2.58309,-0.0644 4.7732,1.56309 5.27271,3.76843c0.07046,0.18239 0.11572,0.37601 0.13162,0.5827z" fill="#9efd71" stroke-linecap="butt"/><path d="M279.35552,122.09115c-4.10459,4.423 -8.40516,9.6611 -9.904,15.42304c-4.42606,17.01476 3.20666,33.07611 1.65178,49.9421c-0.10587,1.14836 -0.3345,2.38179 -0.54693,3.51623c-0.66153,3.53279 -4.14858,18.39477 -12.19709,11.48477c-1.27751,-1.0968 -1.47005,-2.98693 -1.50982,-4.58208c-0.01472,-0.59044 1.71452,-2.44385 2.09753,-3.36613c1.27991,-3.08202 1.82865,-6.93479 1.85054,-10.19243c0.13595,-20.22887 -9.37775,-40.64847 3.53386,-59.50007c2.57671,-3.76212 5.12065,-6.93622 8.33108,-10.2723c0.68287,-0.7096 2.45264,-2.76522 3.57261,-2.51889c0.41891,-0.10869 0.85942,-0.17195 1.31476,-0.1833c2.9049,-0.07242 5.31278,1.99485 5.37816,4.61739c1.20951,1.3412 -2.75508,4.75086 -3.57248,5.63167z" fill="#67dc31" stroke-linecap="butt"/><path d="M238.81721,153.86264c1.08991,-5.49669 2.52726,-10.96142 4.50224,-16.25701c1.28578,-3.4476 2.89442,-6.09068 3.7523,-9.6435c2.28365,-9.45753 4.03414,-17.04899 10.75746,-24.83432c2.26409,-2.62172 4.96573,-7.20424 9.81705,-4.09288c4.30452,2.76068 1.69296,6.17625 -0.39344,8.6625c-7.7508,9.23624 -6.83065,12.2544 -9.98568,22.58627c-1.76995,5.79608 -4.82805,11.18527 -6.43898,17.0194c-1.30306,4.71913 -2.07274,11.20912 -2.8051,16.02418c-0.52083,3.42438 -1.31961,8.34863 -5.42186,9.38261c-0.36721,0.09255 -0.86393,0.21134 -1.39657,0.29635c-1.17283,0.18719 -2.51978,0.21065 -3.04162,-0.57004c-1.57087,-0.78736 -2.64885,-2.28495 -2.6923,-4.02777c-0.02879,-1.15475 0.40139,-2.22461 1.13991,-3.06665c1.13924,-3.71795 1.33664,-7.09178 2.2066,-11.47913z" fill="#67dc31" stroke-linecap="butt"/><path d="M266.92518,94.02369c10.99295,-6.32459 23.90939,-6.62104 36.13171,-3.58021c4.35029,1.08231 16.20374,4.01685 14.10804,10.15987c-1.26182,3.69871 -3.7777,3.4453 -6.57829,3.16911c-1.81887,-0.17937 -3.84748,-2.07899 -5.19103,-2.66497c-5.75,-2.50786 -13.06718,-3.39548 -19.30686,-3.23254c-5.51978,0.14413 -11.07286,2.92114 -15.70576,5.30379c-1.31217,0.67484 -4.02243,4.06816 -5.98752,3.23954c-2.24108,0.05587 -4.18634,-1.16177 -4.98839,-2.92541c-0.34864,-0.47155 -0.51131,-0.99187 -0.38487,-1.56697c-0.00222,-0.04153 -0.00387,-0.08319 -0.00492,-0.12501c-0.03824,-1.53403 0.7335,-2.91826 1.96211,-3.81754c1.43883,-1.55153 3.47289,-2.53691 5.94574,-3.95962z" fill="#67dc31" stroke-linecap="butt"/><path d="M298.77882,94.88052c5.04648,0.1576 15.77383,2.4546 15.43573,8.56068c-0.08828,1.59416 -1.39295,3.13358 -2.84104,4.05507c-3.06803,1.95232 -7.06617,-2.17022 -9.92322,-2.75697c-4.66847,-0.95874 -9.42533,-0.33228 -14.22735,-0.14055c-3.29545,0.13157 -8.44207,1.23113 -11.83716,3.02757c0.0056,0.0226 0.01106,0.04523 0.01634,0.06788c0.07666,0.30519 0.1208,0.62192 0.12892,0.9472c0.00404,0.16195 -0.00095,0.32223 -0.01455,0.48043c-0.05606,0.79115 -0.31216,1.55619 -0.76858,2.19526c-4.9436,6.92177 -15.40384,14.51173 -15.38247,23.74358c0.02886,12.46246 6.65745,23.0916 6.62518,35.3377c-0.02389,9.06871 -5.17795,18.52188 -8.20817,27.03634c-0.8161,2.29314 -1.52098,4.61689 -2.27352,6.92743c-0.51472,1.58039 -1.03176,3.16024 -1.52822,4.7453c-1.21404,3.87607 -3.69397,18.38775 -10.99498,16.38766c-3.84801,-1.05414 -4.21898,-4.09247 -3.21819,-6.6802c3.04577,-7.87536 5.29308,-16.13249 7.96719,-24.15753c2.5773,-7.73453 7.22966,-16.16656 7.72792,-24.3342c0.37497,-6.14653 -2.74554,-11.98742 -4.39515,-17.75347c-1.60969,-5.62656 -1.62943,-11.53735 -2.2748,-17.32356c-0.87387,-7.83486 7.73658,-18.54429 13.79736,-25.63684c-0.12251,-0.31891 -0.15685,-0.65785 -0.07759,-1.01834c-0.00222,-0.04153 -0.00387,-0.08319 -0.00492,-0.12501c-0.03069,-1.23116 0.46033,-2.36583 1.29053,-3.23076c5.7367,-9.99492 24.64748,-10.67738 34.98075,-10.35467z" fill="#4cc513" stroke-linecap="butt"/><path d="M250.89399,131.51255c1.58484,1.09772 4.20882,1.60338 5.07004,3.11675c0.0989,0.17379 0.17457,0.36088 0.22273,0.56367c0.41746,1.75774 -0.60691,3.96507 -0.90301,5.73451c-0.78704,4.70335 -0.855,10.09512 -0.73802,14.77506c0.15097,6.03942 1.81936,15.39031 0.94029,21.8619c-1.00278,7.38231 -4.92641,15.28482 -4.81902,22.61821c0.09205,6.28502 0.50795,12.56494 0.46997,18.85102c-0.01511,2.50251 -1.72664,4.79452 -5.14139,4.87965c-3.412,0.08506 -5.23978,-2.1187 -5.37817,-4.61739c-0.35488,-6.4074 -0.35469,-12.82855 -0.47978,-19.24402c-0.15677,-8.0407 4.88256,-15.8619 4.94256,-23.96538c0.05002,-6.75394 -1.08898,-13.47922 -1.05742,-20.28907c0.02862,-6.17337 0.03479,-12.31796 1.31467,-18.3757c0.24421,-1.15582 0.75481,-4.37125 2.13099,-4.65532z" fill="#7ade4c" stroke-linecap="butt"/><path d="M282.95915,117.70909c0.61073,-2.037 2.17525,-3.62422 4.24003,-4.78742c4.89043,-2.75503 12.58732,-3.13138 17.06532,-1.47117c2.2968,0.85153 5.32499,1.00639 6.58198,3.40732c1.45602,2.7811 -0.42597,7.2176 -3.93112,7.53525c-3.03183,0.27475 -3.98437,-2.17287 -6.44233,-2.11969c-1.65301,0.03576 -3.30585,0.08034 -4.95869,0.12363c-1.70847,0.04473 -6.29886,2.63226 -7.53883,1.92746z" fill="#9efd71" stroke-linecap="butt"/><path d="M303.92618,103.182c4.15436,0.72625 12.0872,3.93031 9.36742,9.14365c-0.75461,1.44644 -2.68061,2.21825 -4.34428,2.76447c-3.14155,1.03146 -4.02624,-2.40106 -6.12256,-2.37774c-3.19656,0.03556 -7.27997,0.18252 -10.61341,0.67358c-3.0567,0.45029 -6.46389,2.52555 -8.97919,3.92768c-0.15518,0.0865 -0.31245,0.21614 -0.47352,0.3752c-0.36151,0.75938 -0.93556,1.41911 -1.65579,1.91625c-0.82639,0.86278 -1.80672,1.5059 -3.06011,0.97738c-2.24108,0.05587 -4.18634,-1.16177 -4.98839,-2.92541c-0.34864,-0.47155 -0.51131,-0.99187 -0.38487,-1.56697c-0.00222,-0.04153 -0.00387,-0.08319 -0.00492,-0.12501c-0.03925,-1.5741 0.77435,-2.99044 2.05929,-3.887c5.76916,-6.88581 21.02602,-10.32507 29.20031,-8.89606z" fill="#67dc31" stroke-linecap="butt"/></g><path d="M214.78369,306.61252v-267.72501c0,0 153.66918,0 187.45214,0c12.51617,0 25.72989,0 25.72989,0v267.72501z" fill="none" stroke="none" stroke-width="0" stroke-linecap="butt"/><path d="M286.35186,319.07226l15.14285,-131.8421l37.78325,-0.15789l13.57389,132z" fill="#4cc114" stroke="#000000" stroke-width="0" stroke-linecap="butt"/><path d="M295.01902,243.61117l6.47569,-56.38101l37.78325,-0.15789l5.87786,57.15951z" fill="url(#color-1)" stroke="#000000" stroke-width="0" stroke-linecap="butt"/><path d="M286.35186,319.07226l15.14285,-131.8421l37.78325,-0.15789l13.57389,132z" fill="none" stroke="#000000" stroke-width="2" stroke-linecap="butt"/><path d="M243.42892,160.91958c-3.01966,-33.16466 23.17385,-62.65775 58.50482,-65.87465c35.33098,-3.2169 66.42031,21.06055 69.43997,54.22522c3.01966,33.16466 -23.17384,62.65775 -58.50482,65.87466c-35.33097,3.2169 -66.42031,-21.06056 -69.43997,-54.22523z" fill="#4cc114" stroke="#000000" stroke-width="2" stroke-linecap="butt"/><path d="M257.02489,159.95842c-1.17588,-12.91459 8.34023,-24.33716 21.25482,-25.51304c12.91459,-1.17588 24.33716,8.34022 25.51304,21.25481c1.17588,12.91459 -8.34022,24.33717 -21.2548,25.51305c-12.91459,1.17588 -24.33717,-8.34023 -25.51305,-21.25481z" fill="#ffffff" stroke="#000000" stroke-width="2" stroke-linecap="butt"/><path d="M259.97343,160.69508c-0.75257,-8.26545 5.33781,-15.57601 13.60327,-16.32859c8.26545,-0.75257 15.57601,5.33782 16.32859,13.60329c0.75257,8.26545 -5.33782,15.57602 -13.60328,16.3286c-8.26545,0.75257 -15.576,-5.33782 -16.32858,-13.60329z" fill="#000000" stroke="#000000" stroke-width="5" stroke-linecap="butt"/><path d="" fill="none" stroke="#000000" stroke-width="2" stroke-linecap="round"/><path d="M336.57288,176.29335c-12.91459,1.17588 -24.33716,-8.34023 -25.51304,-21.25482c-1.17588,-12.91459 8.34022,-24.33716 21.25481,-25.51304c12.91459,-1.17588 24.33717,8.34022 25.51305,21.2548c1.17588,12.91459 -8.34023,24.33717 -21.25481,25.51305z" fill="#ffffff" stroke="#000000" stroke-width="2" stroke-linecap="butt"/><path d="M343.42498,152.09462c0.75257,8.26547 -5.33781,15.57602 -13.60327,16.3286c-8.26545,0.75257 -15.57602,-5.33784 -16.32859,-13.60329c-0.75257,-8.26547 5.33783,-15.57602 13.60328,-16.3286c8.26545,-0.75257 15.576,5.33783 16.32858,13.60328z" fill="#000000" stroke="#000000" stroke-width="5" stroke-linecap="butt"/><path d="M264.26241,132.28963c0,0 7.18812,-4.47904 12.36968,-5.16334c5.18157,-0.68429 12.20414,1.91803 12.20414,1.91803c0,0 -7.99259,-0.85643 -11.99415,-0.32796c-4.18178,0.55227 -12.57967,3.57327 -12.57967,3.57327z" fill="#000000" stroke="none" stroke-width="0" stroke-linecap="butt"/><path d="M329.88095,124.13855c-4.031,0.20687 -11.73524,2.50026 -11.73524,2.50026c0,0 6.43335,-3.83414 11.65303,-4.10202c5.21968,-0.26788 13.10157,2.83158 13.10157,2.83158c0,0 -8.80683,-1.44599 -13.01937,-1.22981z" fill="#000000" stroke="none" stroke-width="0" stroke-linecap="butt"/><path d="M257.02489,159.95842c-1.17588,-12.91459 8.34023,-24.33716 21.25482,-25.51304c12.91459,-1.17588 24.33716,8.34022 25.51304,21.25481c0.00516,0.05672 -46.76388,4.30183 -46.76785,4.25823z" fill="#4cc114" stroke="#000000" stroke-width="2" stroke-linecap="butt"/><path d="M311.05984,155.03854c-1.17588,-12.91459 8.34022,-24.33716 21.25481,-25.51304c12.91459,-1.17588 24.33717,8.34022 25.51305,21.2548c0.00805,0.08846 -46.75745,4.37253 -46.76785,4.25823z" fill="#4cc114" stroke="#000000" stroke-width="2" stroke-linecap="butt"/><path d="M354.43139,165.59834l2.83012,6.2692l-7.17518,-1.606z" fill="#000000" stroke="#000000" stroke-width="0.5" stroke-linecap="round"/><path d="M326.91293,196.97283c0,0 -10.30476,2.61182 -15.28776,3.02369c-4.98335,0.41189 -14.61132,-0.5524 -14.61132,-0.5524c0,0 9.24703,9.23756 16.48615,8.63921c7.23912,-0.59835 13.41293,-11.1105 13.41293,-11.1105z" fill="#000000" stroke="#000000" stroke-width="2" stroke-linecap="round"/><g stroke-width="0.5"><path d="M267.55544,177.61161l-7.69518,2.44255l2.32947,-6.5601z" fill="#000000" stroke="#000000" stroke-linecap="round"/><path d="M289.84509,121.69495c-0.3989,0.21525 -0.80168,0.3545 -1.20596,0.45047c-0.43947,0.12215 -0.90367,0.19402 -1.38458,0.20799c-1.09002,0.10738 -2.17138,0.17144 -3.19781,0.832c-2.67553,1.72182 -8.77769,8.26313 -9.37317,11.83106c-3.15643,18.91265 6.48328,37.03827 4.26445,55.9954c-0.85581,7.31185 -6.43731,15.2231 -9.67011,21.80109c-1.44954,2.94948 -3.76953,6.56479 -3.92236,9.88831c-0.0326,0.70896 0.44469,4.70535 -0.51779,5.61883c-1.22127,1.1591 -2.77621,2.44495 -4.54312,2.489c-6.16502,0.1537 -6.0886,-6.59879 -5.24538,-10.12449c2.58023,-10.78864 11.19603,-19.98931 13.43833,-30.76582c4.01485,-19.29536 -11.4708,-39.55566 -3.4822,-58.76014c2.54715,-6.12329 8.86347,-14.0653 15.45429,-16.9306c1.80449,-0.7845 7.87032,-2.79973 9.21943,-0.78139c1.57086,0.78736 2.64884,2.28495 2.69229,4.02777c0.03852,1.5453 -0.74487,2.9386 -1.98925,3.83729c-0.15841,0.14556 -0.33585,0.27466 -0.53704,0.38323z" fill="#9efd71" stroke="none" stroke-linecap="butt"/><path d="M265.11862,111.88639c0.41859,5.44373 -9.17869,9.22596 -12.53815,12.10807c-4.4846,3.84737 -6.63351,9.6204 -7.65429,15.027c-2.15283,11.40256 -0.57986,26.14454 -0.13905,36.42004c0.05784,1.34845 0.62914,3.54394 0.68418,5.22148c0.05891,1.79572 0.02756,16.82352 -4.27061,18.61094c-4.51405,1.8772 -6.56718,1.1931 -8.6232,-2.87317c-1.21175,-2.39652 2.50739,-6.22055 2.54487,-8.6324c0.03422,-2.20285 -0.00775,-4.40866 -0.1647,-6.60629c-0.11929,-1.67019 -0.47955,-3.31995 -0.61357,-4.98918c-1.59313,-19.8428 -5.1768,-47.27779 14.31868,-61.59535c0.03975,-0.02919 0.0554,-0.08005 0.09574,-0.10856c2.23038,-1.57677 4.63097,-3.0947 6.71511,-4.82557c0.13563,-0.18146 0.28472,-0.35415 0.44602,-0.51687c0.93638,-0.94468 2.28398,-1.55361 3.79466,-1.59128c2.58309,-0.0644 4.7732,1.56309 5.27271,3.76843c0.07046,0.18239 0.11572,0.37601 0.13162,0.5827z" fill="#9efd71" stroke="none" stroke-linecap="butt"/><path d="M279.35552,122.09115c-4.10459,4.423 -8.40516,9.6611 -9.904,15.42304c-4.42606,17.01476 3.20666,33.07611 1.65178,49.9421c-0.10587,1.14836 -0.3345,2.38179 -0.54693,3.51623c-0.66153,3.53279 -4.14858,18.39477 -12.19709,11.48477c-1.27751,-1.0968 -1.47005,-2.98693 -1.50982,-4.58208c-0.01472,-0.59044 1.71452,-2.44385 2.09753,-3.36613c1.27991,-3.08202 1.82865,-6.93479 1.85054,-10.19243c0.13595,-20.22887 -9.37775,-40.64847 3.53386,-59.50007c2.57671,-3.76212 5.12065,-6.93622 8.33108,-10.2723c0.68287,-0.7096 2.45264,-2.76522 3.57261,-2.51889c0.41891,-0.10869 0.85942,-0.17195 1.31476,-0.1833c2.9049,-0.07242 5.31278,1.99485 5.37816,4.61739c1.20951,1.3412 -2.75508,4.75086 -3.57248,5.63167z" fill="#67dc31" stroke="none" stroke-linecap="butt"/><path d="M238.81721,153.86264c1.08991,-5.49669 2.52726,-10.96142 4.50224,-16.25701c1.28578,-3.4476 2.89442,-6.09068 3.7523,-9.6435c2.28365,-9.45753 4.03414,-17.04899 10.75746,-24.83432c2.26409,-2.62172 4.96573,-7.20424 9.81705,-4.09288c4.30452,2.76068 1.69296,6.17625 -0.39344,8.6625c-7.7508,9.23624 -6.83065,12.2544 -9.98568,22.58627c-1.76995,5.79608 -4.82805,11.18527 -6.43898,17.0194c-1.30306,4.71913 -2.07274,11.20912 -2.8051,16.02418c-0.52083,3.42438 -1.31961,8.34863 -5.42186,9.38261c-0.36721,0.09255 -0.86393,0.21134 -1.39657,0.29635c-1.17283,0.18719 -2.51978,0.21065 -3.04162,-0.57004c-1.57087,-0.78736 -2.64885,-2.28495 -2.6923,-4.02777c-0.02879,-1.15475 0.40139,-2.22461 1.13991,-3.06665c1.13924,-3.71795 1.33664,-7.09178 2.2066,-11.47913z" fill="#67dc31" stroke="none" stroke-linecap="butt"/><path d="M266.92518,94.02369c10.99295,-6.32459 23.90939,-6.62104 36.13171,-3.58021c4.35029,1.08231 16.20374,4.01685 14.10804,10.15987c-1.26182,3.69871 -3.7777,3.4453 -6.57829,3.16911c-1.81887,-0.17937 -3.84748,-2.07899 -5.19103,-2.66497c-5.75,-2.50786 -13.06718,-3.39548 -19.30686,-3.23254c-5.51978,0.14413 -11.07286,2.92114 -15.70576,5.30379c-1.31217,0.67484 -4.02243,4.06816 -5.98752,3.23954c-2.24108,0.05587 -4.18634,-1.16177 -4.98839,-2.92541c-0.34864,-0.47155 -0.51131,-0.99187 -0.38487,-1.56697c-0.00222,-0.04153 -0.00387,-0.08319 -0.00492,-0.12501c-0.03824,-1.53403 0.7335,-2.91826 1.96211,-3.81754c1.43883,-1.55153 3.47289,-2.53691 5.94574,-3.95962z" fill="#67dc31" stroke="none" stroke-linecap="butt"/><path d="M298.77882,94.88052c5.04648,0.1576 15.77383,2.4546 15.43573,8.56068c-0.08828,1.59416 -1.39295,3.13358 -2.84104,4.05507c-3.06803,1.95232 -7.06617,-2.17022 -9.92322,-2.75697c-4.66847,-0.95874 -9.42533,-0.33228 -14.22735,-0.14055c-3.29545,0.13157 -8.44207,1.23113 -11.83716,3.02757c0.0056,0.0226 0.01106,0.04523 0.01634,0.06788c0.07666,0.30519 0.1208,0.62192 0.12892,0.9472c0.00404,0.16195 -0.00095,0.32223 -0.01455,0.48043c-0.05606,0.79115 -0.31216,1.55619 -0.76858,2.19526c-4.9436,6.92177 -15.40384,14.51173 -15.38247,23.74358c0.02886,12.46246 6.65745,23.0916 6.62518,35.3377c-0.02389,9.06871 -5.17795,18.52188 -8.20817,27.03634c-0.8161,2.29314 -1.52098,4.61689 -2.27352,6.92743c-0.51472,1.58039 -1.03176,3.16024 -1.52822,4.7453c-1.21404,3.87607 -3.69397,18.38775 -10.99498,16.38766c-3.84801,-1.05414 -4.21898,-4.09247 -3.21819,-6.6802c3.04577,-7.87536 5.29308,-16.13249 7.96719,-24.15753c2.5773,-7.73453 7.22966,-16.16656 7.72792,-24.3342c0.37497,-6.14653 -2.74554,-11.98742 -4.39515,-17.75347c-1.60969,-5.62656 -1.62943,-11.53735 -2.2748,-17.32356c-0.87387,-7.83486 7.73658,-18.54429 13.79736,-25.63684c-0.12251,-0.31891 -0.15685,-0.65785 -0.07759,-1.01834c-0.00222,-0.04153 -0.00387,-0.08319 -0.00492,-0.12501c-0.03069,-1.23116 0.46033,-2.36583 1.29053,-3.23076c5.7367,-9.99492 24.64748,-10.67738 34.98075,-10.35467z" fill="#4cc513" stroke="none" stroke-linecap="butt"/><path d="M250.89399,131.51255c1.58484,1.09772 4.20882,1.60338 5.07004,3.11675c0.0989,0.17379 0.17457,0.36088 0.22273,0.56367c0.41746,1.75774 -0.60691,3.96507 -0.90301,5.73451c-0.78704,4.70335 -0.855,10.09512 -0.73802,14.77506c0.15097,6.03942 1.81936,15.39031 0.94029,21.8619c-1.00278,7.38231 -4.92641,15.28482 -4.81902,22.61821c0.09205,6.28502 0.50795,12.56494 0.46997,18.85102c-0.01511,2.50251 -1.72664,4.79452 -5.14139,4.87965c-3.412,0.08506 -5.23978,-2.1187 -5.37817,-4.61739c-0.35488,-6.4074 -0.35469,-12.82855 -0.47978,-19.24402c-0.15677,-8.0407 4.88256,-15.8619 4.94256,-23.96538c0.05002,-6.75394 -1.08898,-13.47922 -1.05742,-20.28907c0.02862,-6.17337 0.03479,-12.31796 1.31467,-18.3757c0.24421,-1.15582 0.75481,-4.37125 2.13099,-4.65532z" fill="#7ade4c" stroke="none" stroke-linecap="butt"/><path d="M282.95915,117.70909c0.61073,-2.037 2.17525,-3.62422 4.24003,-4.78742c4.89043,-2.75503 12.58732,-3.13138 17.06532,-1.47117c2.2968,0.85153 5.32499,1.00639 6.58198,3.40732c1.45602,2.7811 -0.42597,7.2176 -3.93112,7.53525c-3.03183,0.27475 -3.98437,-2.17287 -6.44233,-2.11969c-1.65301,0.03576 -3.30585,0.08034 -4.95869,0.12363c-1.70847,0.04473 -6.29886,2.63226 -7.53883,1.92746z" fill="#9efd71" stroke="none" stroke-linecap="butt"/><path d="M303.92618,103.182c4.15436,0.72625 12.0872,3.93031 9.36742,9.14365c-0.75461,1.44644 -2.68061,2.21825 -4.34428,2.76447c-3.14155,1.03146 -4.02624,-2.40106 -6.12256,-2.37774c-3.19656,0.03556 -7.27997,0.18252 -10.61341,0.67358c-3.0567,0.45029 -6.46389,2.52555 -8.97919,3.92768c-0.15518,0.0865 -0.31245,0.21614 -0.47352,0.3752c-0.36151,0.75938 -0.93556,1.41911 -1.65579,1.91625c-0.82639,0.86278 -1.80672,1.5059 -3.06011,0.97738c-2.24108,0.05587 -4.18634,-1.16177 -4.98839,-2.92541c-0.34864,-0.47155 -0.51131,-0.99187 -0.38487,-1.56697c-0.00222,-0.04153 -0.00387,-0.08319 -0.00492,-0.12501c-0.03925,-1.5741 0.77435,-2.99044 2.05929,-3.887c5.76916,-6.88581 21.02602,-10.32507 29.20031,-8.89606z" fill="#67dc31" stroke="none" stroke-linecap="butt"/></g><g stroke-width="0.5"><path d="M359.20764,176.3917l2.56075,6.7855l-7.7614,-1.87993z" fill="#000000" stroke="#000000" stroke-linecap="round"/><path d="M329.20369,123.33136c-1.27338,-0.84196 -2.10505,-2.2558 -2.12271,-3.9098c-0.01992,-1.86542 1.00056,-3.56689 2.53828,-4.55653c1.27194,-2.2833 7.39322,-0.70544 9.22094,-0.0385c6.67561,2.43601 13.26174,10.31983 16.02368,16.61823c8.66225,19.75362 -6.04306,42.85769 -1.3397,63.08466c2.62685,11.29681 11.55143,20.30714 14.51566,31.58492c0.96871,3.68556 1.28994,10.88988 -4.8627,11.30951c-1.76335,0.12026 -3.36043,-1.10576 -4.62021,-2.22803c-0.99284,-0.88446 -0.66196,-5.19772 -0.72019,-5.95179c-0.27299,-3.535 -2.71742,-7.1764 -4.26977,-10.18914c-3.46208,-6.71907 -9.31444,-14.63963 -10.4331,-22.36754c-2.9003,-20.03581 6.05356,-40.30651 2.22,-60.20604c-0.72322,-3.7541 -7.04498,-10.16228 -9.77521,-11.74783c-1.04742,-0.60826 -2.12795,-0.57428 -3.21869,-0.58576c-0.48002,0.03061 -0.94548,-0.00219 -1.3881,-0.09102c-0.40659,-0.06423 -0.81324,-0.1748 -1.2188,-0.36691c-0.20455,-0.0969 -0.38617,-0.21797 -0.5494,-0.35842z" fill="#9efd71" stroke="none" stroke-linecap="butt"/><path d="M354.16168,110.23822c0.41802,-2.40256 2.54269,-4.34808 5.1206,-4.52391c1.50764,-0.10282 2.87342,0.41989 3.84135,1.34014c0.16673,0.15853 0.32166,0.32884 0.46348,0.50977c2.14089,1.65119 4.58956,3.045 6.87067,4.51776c0.04126,0.02663 0.05871,0.07947 0.09941,0.10688c19.95829,13.44486 17.38064,43.08436 16.51224,64.42702c-0.07306,1.79539 -0.3724,3.59141 -0.43073,5.38646c-0.07675,2.36189 -0.03854,4.72164 0.07551,7.07101c0.12489,2.57227 3.97199,6.30409 2.85072,8.9783c-1.90247,4.5374 -3.92481,5.4624 -8.49383,3.88504c-4.35053,-1.50193 -4.92713,-17.54844 -4.93355,-19.47181c-0.00599,-1.7968 0.48396,-4.19563 0.49271,-5.64124c0.06662,-11.01583 1.10004,-26.90897 -1.4603,-38.88287c-1.214,-5.6775 -3.56616,-11.63952 -8.17732,-15.3238c-3.45427,-2.75994 -13.16084,-5.89052 -12.94103,-11.74396c0.00835,-0.22225 0.04645,-0.43332 0.11008,-0.63478z" fill="#9efd71" stroke="none" stroke-linecap="butt"/><path d="M336.46004,117.44339c-0.02998,-2.80702 2.29587,-5.24285 5.19493,-5.44057c0.45442,-0.03099 0.89595,-0.00515 1.31758,0.07127c1.10776,-0.36911 2.94698,1.65868 3.65361,2.35186c3.32214,3.25887 5.97386,6.40787 8.67958,10.18177c13.5581,18.9106 4.81314,41.6193 5.68279,63.21053c0.14005,3.47703 0.82701,7.53975 2.21503,10.71012c0.41535,0.9487 2.20683,2.76438 2.21357,3.39634c0.01823,1.70737 -0.10515,3.74423 -1.33914,5.03657c-7.77431,8.14192 -11.79055,-7.40027 -12.57834,-11.11059c-0.25298,-1.19146 -0.5257,-2.48708 -0.67293,-3.70349c-2.16242,-17.86538 4.86523,-35.74144 -0.1654,-53.49382c-1.70359,-6.01172 -6.18172,-11.19871 -10.43485,-15.53373c-0.84697,-0.86329 -4.92375,-4.12935 -3.76644,-5.67625z" fill="#67dc31" stroke="none" stroke-linecap="butt"/><path d="M384.41643,165.26303c0.76693,0.82933 1.23468,1.93121 1.24788,3.16717c0.01992,1.86542 -1.00057,3.56691 -2.53828,4.55653c-0.49199,0.88318 -1.83588,0.98567 -3.01207,0.89682c-0.53417,-0.04036 -1.03375,-0.12017 -1.40325,-0.18424c-4.12782,-0.71581 -5.10298,-5.8992 -5.74656,-9.50707c-0.90495,-5.07306 -1.90792,-11.93138 -3.37844,-16.84795c-1.81796,-6.07823 -5.0627,-11.5442 -7.03785,-17.56674c-3.52078,-10.73551 -2.71285,-14.046 -10.77625,-23.17622c-2.17055,-2.45773 -4.89846,-5.8582 -0.70664,-9.21417c4.72429,-3.78227 7.58435,0.85596 9.93699,3.44153c6.98625,7.67797 9.00714,15.61978 11.62735,25.50403c0.9843,3.71312 2.68418,6.38356 4.09132,9.9438c2.16141,5.46858 3.79287,11.16874 5.07908,16.9359c1.02664,4.60325 1.34588,8.18775 2.61674,12.0506z" fill="#67dc31" stroke="none" stroke-linecap="butt"/><path d="M357.67419,95.63277c1.25767,0.84408 2.07739,2.24933 2.09493,3.89128c0.00047,0.04475 0.00035,0.08941 -0.00036,0.13397c0.14695,0.60224 0.00362,1.17333 -0.32688,1.70995c-0.7357,1.95948 -2.63111,3.44412 -4.8677,3.59666c-1.9293,1.07104 -4.75481,-2.29634 -6.08764,-2.8928c-4.70587,-2.10593 -10.34355,-4.5459 -15.85248,-4.17715c-6.22742,0.41684 -13.49108,2.05767 -19.13331,5.28051c-1.31837,0.75305 -3.27214,2.97389 -5.0792,3.33769c-2.78241,0.56017 -5.28177,1.06904 -6.67413,-2.76164c-2.31251,-6.3622 9.39992,-10.61867 13.69826,-12.1865c12.07639,-4.4049 24.96597,-5.31139 36.15641,0.40224c2.51728,1.28528 4.58118,2.14504 6.07212,3.6658z" fill="#67dc31" stroke="none" stroke-linecap="butt"/><path d="M355.12694,103.64455c0.85917,0.84512 1.38994,2.01043 1.40401,3.3282c0.00047,0.04475 0.00035,0.08941 -0.00036,0.13397c0.0921,0.37748 0.07018,0.74272 -0.04041,1.09491c6.30051,7.00083 15.27452,17.623 14.68753,26.07326c-0.43352,6.24071 -0.23869,12.55519 -1.63951,18.71672c-1.43556,6.31427 -4.33501,12.84773 -3.73809,19.37663c0.79321,8.67572 5.73803,17.24047 8.58849,25.25677c2.95754,8.31741 5.49796,16.92311 8.82066,25.04545c1.09179,2.66889 0.83215,5.94889 -2.9664,7.43909c-7.20716,2.8274 -10.20649,-12.43601 -11.55766,-16.46063c-0.55254,-1.64582 -1.1254,-3.28411 -1.69598,-4.92321c-0.83419,-2.39635 -1.62135,-4.81134 -2.51829,-7.18309c-3.33039,-8.80637 -8.81249,-18.41416 -9.1654,-28.09714c-0.47658,-13.0756 5.74697,-25.05503 5.3235,-38.36747c-0.3137,-9.86149 -11.01891,-16.97696 -16.19931,-23.90118c-0.4783,-0.63929 -0.76142,-1.4321 -0.84602,-2.27172c-0.01931,-0.16768 -0.03009,-0.33838 -0.03193,-0.51172c-0.00372,-0.34816 0.02881,-0.69062 0.09418,-1.0238c0.00444,-0.0247 0.00906,-0.04938 0.01383,-0.07405c-3.45039,-1.59709 -8.62193,-2.28405 -11.91255,-2.11252c-4.79499,0.24997 -9.56073,0.03135 -14.18081,1.49733c-2.82745,0.89718 -6.66433,5.67859 -9.79427,3.88404c-1.47732,-0.847 -2.83406,-2.36754 -2.97992,-4.06172c-0.55872,-6.4892 10.05405,-9.95813 15.08011,-10.60432c10.29147,-1.32314 29.17193,-2.38497 35.25464,7.74623z" fill="#4cc513" stroke="none" stroke-linecap="butt"/><path d="M355.14466,108.62291c1.38247,0.17307 18.93915,26.45977 19.22458,27.67105c1.49597,6.3484 1.72512,12.91013 1.97768,19.50048c0.2786,7.26983 -0.61302,14.56019 -0.31806,21.76855c0.3539,8.64871 5.66237,16.52445 5.79785,25.12663c0.10809,6.86346 0.34131,13.72114 0.21997,20.59775c-0.04732,2.68167 -1.78978,5.20833 -5.19493,5.44057c-3.4079,0.23243 -5.19762,-2.05333 -5.30351,-4.72455c-0.26598,-6.70984 -0.07918,-13.45608 -0.21549,-20.1771c-0.15905,-7.84212 -4.35802,-15.91035 -5.62578,-23.69959c-1.11137,-6.82832 0.21283,-16.97292 0.14419,-23.43723c-0.05319,-5.00918 -0.31661,-10.76107 -1.27205,-15.70965c-0.35944,-1.86169 -1.46094,-4.1221 -1.10848,-6.03886c0.04067,-0.22115 -16.59474,-20.00353 -16.50243,-20.1985c0.8038,-1.69781 -1.69367,-5.75129 0.67926,-7.52729c2.37294,-1.77599 7.49719,1.40771 7.49719,1.40771z" fill="#7ade4c" stroke="none" stroke-linecap="butt"/><path d="M331.64004,124.18505c-1.21078,0.87015 -5.8817,-1.45861 -7.58682,-1.34461c-1.6496,0.11028 -3.29924,0.21918 -4.94874,0.33752c-2.45272,0.17597 -3.31367,2.88017 -6.34664,2.87384c-3.50648,-0.00732 -5.54398,-4.56725 -4.19313,-7.67527c1.1662,-2.6832 4.17996,-3.13532 6.43917,-4.26223c4.40472,-2.19711 12.09284,-2.524 17.069,-0.04476c2.10099,1.04675 3.71854,2.59374 4.40141,4.71139z" fill="#9efd71" stroke="none" stroke-linecap="butt"/><path d="M344.47928,111.98743c1.31372,0.83583 2.17636,2.27142 2.19435,3.95625c0.00047,0.04475 0.00035,0.08941 -0.00036,0.13397c0.14695,0.60224 0.00363,1.17333 -0.32687,1.70994c-0.7357,1.95948 -2.63111,3.44412 -4.8677,3.59666c-1.23055,0.68313 -2.23138,0.08913 -3.08667,-0.75405c-0.73618,-0.46273 -1.33249,-1.11297 -1.72052,-1.88973c-0.16637,-0.15463 -0.32789,-0.27818 -0.48576,-0.35587c-2.55884,-1.25927 -6.03143,-3.15299 -9.09556,-3.34445c-3.34154,-0.20879 -7.4184,0.02092 -10.60694,0.28563c-2.09105,0.1736 -2.84861,3.92326 -6.01844,3.11915c-1.67863,-0.42583 -3.62704,-1.0677 -4.43195,-2.54104c-2.90105,-5.3102 4.89241,-9.48327 9.00832,-10.65229c8.09863,-2.30019 23.43585,-0.07182 29.4381,6.73582z" fill="#67dc31" stroke="none" stroke-linecap="butt"/></g><path d="M312.98599,95.02398c2.10654,-5.70057 -2.14813,-8.96841 1.71397,-15.68317c3.86211,-6.71476 4.858,-11.00752 11.37582,-16.06714c6.51782,-5.05964 6.26393,-8.74609 18.86209,-7.40585c12.59817,1.34025 25.29746,8.72457 29.8433,12.5873c4.54584,3.86274 0.94258,12.74487 2.60224,14.9826c1.65966,2.23773 1.84568,0.8559 6.03686,-3.33449c4.19118,-4.19038 9.30349,-12.00291 9.30349,-12.00291c0,0 -1.16723,14.47908 -5.31718,19.29481c-4.14996,4.81574 -8.50911,8.27599 -14.56914,3.78188c-6.06004,-4.49411 2.72031,-11.03085 -4.54556,-17.95725c-7.26587,-6.9264 -16.36932,-9.1479 -23.86006,-9.12127c-7.49073,0.02663 -12.40101,2.62674 -16.30342,9.2641c-3.90242,6.63737 -2.16747,14.50531 -3.14683,20.67224c-0.97937,6.16692 -6.38764,14.64399 -6.38764,14.64399c0,0 -2.51285,2.34599 -5.34165,1.62578c-2.83341,-0.72139 -3.70063,-6.92494 -3.70063,-6.92494c0,0 1.32777,-2.65512 3.4343,-8.3557z" fill="#026b00" stroke="#000000" stroke-width="2" stroke-linecap="round"/><g stroke-linecap="butt"><g stroke="#000000" stroke-width="2"><path d="M252.75398,137.60279c-0.79725,-3.53287 0.9939,-8.80445 4.59651,-9.61743c3.60261,-0.81299 7.65243,3.14048 8.44967,6.67336c0.79725,3.53287 -1.59352,5.75538 -5.19613,6.56835c-3.60261,0.81299 -7.05281,-0.09141 -7.85006,-3.62428z" fill="#d995cc"/><path d="M266.02065,133.60333c-3.52012,-0.8518 -7.45105,-4.79458 -6.58244,-8.38417c0.86861,-3.5896 6.20785,-5.46671 9.72797,-4.61492c3.52012,0.8518 4.4522,3.98014 3.58358,7.56972c-0.86861,3.5896 -3.209,6.28115 -6.72912,5.42936z" fill="#d995cc"/><path d="M264.81873,118.49364c-1.17291,3.42653 -5.4615,6.97697 -8.95566,5.7809c-3.49416,-1.19606 -4.87071,-6.68569 -3.6978,-10.11223c1.17291,-3.42653 4.3739,-4.06604 7.86806,-2.86998c3.49416,1.19606 5.95832,3.77476 4.7854,7.20129z" fill="#d995cc"/><path d="M251.42429,114.94553c2.55128,2.57057 3.83219,7.98877 1.21088,10.59039c-2.62131,2.60162 -8.15219,1.40149 -10.70346,-1.16908c-2.55128,-2.57057 -1.70525,-5.72326 0.91607,-8.32488c2.62131,-2.60162 6.02524,-3.667 8.57652,-1.09643z" fill="#d995cc"/><path d="M242.98926,127.04494c2.98458,-2.05161 8.5444,-2.34508 10.6365,0.69841c2.0921,3.0435 -0.07575,8.27143 -3.06034,10.32304c-2.98458,2.05162 -5.93571,0.65656 -8.02781,-2.38693c-2.0921,-3.0435 -2.53294,-6.58291 0.45164,-8.63452z" fill="#d995cc"/><path d="M247.90259,127.33387c-0.09582,-3.84302 2.9419,-7.03608 6.78492,-7.13189c3.84302,-0.09582 7.03607,2.9419 7.13188,6.78492c0.09582,3.84302 -2.9419,7.03608 -6.78491,7.13189c-3.84302,0.09582 -7.03608,-2.9419 -7.13189,-6.78492z" fill="#d8a51e"/></g><g stroke="none" stroke-width="0"><path d="M252.75398,137.60279c-0.79725,-3.53287 0.9939,-8.80445 4.59651,-9.61743c3.60261,-0.81299 7.65243,3.14049 8.44967,6.67336c0.79725,3.53287 -1.59352,5.75538 -5.19613,6.56835c-3.60261,0.81299 -7.05281,-0.09141 -7.85006,-3.62428z" fill="#d995cc"/><path d="M266.02065,133.60333c-3.52012,-0.8518 -7.45105,-4.79457 -6.58244,-8.38417c0.86861,-3.5896 6.20785,-5.46671 9.72797,-4.61492c3.52012,0.8518 4.4522,3.98014 3.58358,7.56973c-0.86861,3.5896 -3.209,6.28115 -6.72912,5.42935z" fill="#d995cc"/><path d="M264.81873,118.49365c-1.17291,3.42653 -5.46151,6.97697 -8.95567,5.7809c-3.49416,-1.19606 -4.87071,-6.68569 -3.6978,-10.11222c1.17291,-3.42653 4.37389,-4.06604 7.86805,-2.86998c3.49416,1.19606 5.95833,3.77477 4.78542,7.20131z" fill="#d995cc"/><path d="M251.42429,114.94553c2.55127,2.57058 3.83217,7.98878 1.21087,10.5904c-2.6213,2.60162 -8.15219,1.40149 -10.70345,-1.16908c-2.55127,-2.57058 -1.70525,-5.72326 0.91606,-8.32488c2.6213,-2.60162 6.02525,-3.66701 8.57653,-1.09644z" fill="#d995cc"/><path d="M242.98926,127.04494c2.98458,-2.05161 8.5444,-2.34507 10.6365,0.69841c2.0921,3.04349 -0.07575,8.27143 -3.06034,10.32304c-2.98458,2.05162 -5.93571,0.65656 -8.02781,-2.38693c-2.0921,-3.04349 -2.53294,-6.58291 0.45164,-8.63452z" fill="#d995cc"/><path d="M247.90259,127.33387c-0.09582,-3.84302 2.9419,-7.03608 6.78491,-7.13189c3.84302,-0.09582 7.03607,2.9419 7.13188,6.78492c0.09582,3.84302 -2.9419,7.03608 -6.78491,7.13189c-3.84302,0.09582 -7.03607,-2.9419 -7.13188,-6.78492z" fill="#d8a51e"/></g></g><g stroke-linecap="butt"><g stroke="#000000" stroke-width="2"><path d="M376.76653,180.63131c-1.88527,-1.88109 -2.84661,-5.86075 -0.92838,-7.78323c1.91823,-1.92249 5.98963,-1.0598 7.87491,0.82129c1.88527,1.88109 1.27446,4.20245 -0.64378,6.12494c-1.91823,1.92249 -4.41747,2.71811 -6.30275,0.837z" fill="#d995cc"/><path d="M383.43479,172.92697c-2.522,0.8558 -6.51532,-0.04701 -7.38801,-2.61878c-0.87268,-2.57176 1.70573,-5.8386 4.22772,-6.69441c2.522,-0.8558 4.33188,0.72094 5.20456,3.2927c0.87268,2.57176 0.47772,5.1647 -2.04428,6.0205z" fill="#d995cc"/><path d="M376.74328,164.01306c0.61948,2.59019 -0.64786,6.4832 -3.28918,7.11492c-2.64131,0.63171 -5.65635,-2.23708 -6.27584,-4.82727c-0.61948,-2.59019 1.1175,-4.2469 3.7588,-4.8786c2.64131,-0.63171 5.18673,0.00077 5.80622,2.59096z" fill="#d995cc"/><path d="M367.02609,167.07879c2.59633,0.59316 5.52385,3.45522 4.91899,6.10281c-0.60487,2.64758 -4.51309,4.0781 -7.10942,3.48495c-2.59633,-0.59316 -3.31116,-2.88462 -2.70629,-5.5322c0.60487,-2.64758 2.30039,-4.64871 4.89673,-4.05555z" fill="#d995cc"/><path d="M366.54632,177.91421c1.04696,-2.44881 4.3855,-4.81863 6.88263,-3.75101c2.49716,1.06762 3.20729,5.16838 2.16034,7.61719c-1.04696,2.44881 -3.4292,2.74327 -5.92635,1.67564c-2.49716,-1.06762 -4.16359,-3.09301 -3.11664,-5.54184z" fill="#d995cc"/><path d="M369.71238,176.16058c-1.57154,-2.34975 -0.94067,-5.5286 1.40908,-7.10013c2.34976,-1.57154 5.52859,-0.94067 7.10013,1.40909c1.57154,2.34976 0.94067,5.5286 -1.40908,7.10013c-2.34975,1.57154 -5.5286,0.94067 -7.10013,-1.40909z" fill="#d8a51e"/></g><g stroke="none" stroke-width="0"><path d="M376.76653,180.63131c-1.88527,-1.88109 -2.84661,-5.86075 -0.92838,-7.78324c1.91823,-1.92249 5.98963,-1.0598 7.87491,0.8213c1.88527,1.88109 1.27446,4.20245 -0.64378,6.12494c-1.91823,1.92249 -4.41747,2.71811 -6.30275,0.837z" fill="#ffc37a"/><path d="M383.43479,172.92697c-2.522,0.8558 -6.51532,-0.047 -7.38801,-2.61878c-0.87268,-2.57177 1.70573,-5.8386 4.22772,-6.69441c2.522,-0.8558 4.33188,0.72094 5.20456,3.29271c0.87268,2.57177 0.47772,5.16469 -2.04428,6.02049z" fill="#ffc37a"/><path d="M376.74328,164.01307c0.61948,2.59019 -0.64787,6.48319 -3.28918,7.11492c-2.64131,0.63171 -5.65635,-2.23708 -6.27584,-4.82727c-0.61948,-2.59019 1.11749,-4.2469 3.75879,-4.8786c2.64131,-0.63171 5.18675,0.00078 5.80623,2.59097z" fill="#ffc37a"/><path d="M367.02608,167.07879c2.59634,0.59317 5.52386,3.45523 4.91899,6.10281c-0.60487,2.64758 -4.51309,4.07811 -7.10942,3.48495c-2.59634,-0.59317 -3.31116,-2.88462 -2.70629,-5.5322c0.60487,-2.64758 2.30038,-4.64872 4.89672,-4.05555z" fill="#ffc37a"/><path d="M366.54632,177.91421c1.04696,-2.44881 4.38551,-4.81862 6.88263,-3.75101c2.49715,1.06761 3.20729,5.16838 2.16034,7.61719c-1.04696,2.44881 -3.42921,2.74326 -5.92635,1.67564c-2.49715,-1.06761 -4.16359,-3.09301 -3.11664,-5.54184z" fill="#ffc37a"/><path d="M369.71238,176.16058c-1.57154,-2.34975 -0.94068,-5.5286 1.40908,-7.10013c2.34976,-1.57154 5.52859,-0.94067 7.10013,1.40909c1.57154,2.34976 0.94067,5.5286 -1.40908,7.10013c-2.34975,1.57154 -5.52859,0.94067 -7.10013,-1.40909z" fill="#d8a51e"/></g></g><g stroke-linecap="butt"><g stroke="#000000" stroke-width="2"><path d="M236.53369,187.49232c-1.77632,-2.36059 -2.08399,-4.95355 0.23093,-6.69549c2.31492,-1.74195 6.83118,-2.05679 8.60751,0.30382c1.77632,2.36059 0.14003,6.50272 -2.17487,8.24467c-2.31492,1.74195 -4.88722,0.50761 -6.66355,-1.85298z" fill="#d995cc"/><path d="M235.88285,173.24469c1.32829,-2.63882 3.51605,-4.06425 6.10379,-2.76166c2.58775,1.30259 4.87236,5.2111 3.54406,7.84992c-1.3283,2.63882 -5.76653,3.00869 -8.35428,1.70609c-2.58774,-1.30259 -2.62187,-4.15553 -1.29358,-6.79436z" fill="#d995cc"/><path d="M252.37656,169.53128c2.75011,1.07919 4.37128,3.12612 3.31297,5.82299c-1.05831,2.69687 -4.73938,5.33234 -7.48948,4.25315c-2.75011,-1.07919 -3.52784,-5.46438 -2.46952,-8.16126c1.05831,-2.69687 3.89593,-2.99406 6.64604,-1.91487z" fill="#d995cc"/><path d="M260.39911,181.32355c0.25202,2.9435 -0.86391,5.30418 -3.75045,5.55132c-2.88654,0.24714 -6.88089,-1.88383 -7.1329,-4.82733c-0.25202,-2.9435 3.33374,-5.5849 6.22027,-5.83204c2.88654,-0.24714 4.41106,2.16455 4.66307,5.10806z" fill="#d995cc"/><path d="M250.42349,193.46051c-2.85128,0.77324 -5.37321,0.09649 -6.13148,-2.69962c-0.75828,-2.7961 0.6257,-7.10663 3.47698,-7.87985c2.85128,-0.77324 6.09018,2.28362 6.84845,5.07972c0.75828,2.7961 -1.34267,4.72651 -4.19396,5.49976z" fill="#d995cc"/><path d="M243.6098,186.04008c-2.29417,-2.04766 -2.494,-5.5674 -0.44634,-7.86157c2.04766,-2.29417 5.5674,-2.49402 7.86156,-0.44636c2.29417,2.04766 2.49401,5.5674 0.44635,7.86157c-2.04766,2.29417 -5.5674,2.49402 -7.86156,0.44636z" fill="#d8a51e"/></g><g stroke="none" stroke-width="0"><path d="M236.53369,187.49232c-1.77632,-2.36059 -2.08399,-4.95355 0.23093,-6.69549c2.31492,-1.74195 6.83118,-2.0568 8.60751,0.30381c1.77632,2.36059 0.14002,6.50273 -2.17488,8.24468c-2.31492,1.74195 -4.88722,0.50761 -6.66355,-1.85298z" fill="#807bff"/><path d="M235.88285,173.24469c1.32829,-2.63882 3.51605,-4.06425 6.1038,-2.76166c2.58775,1.30259 4.87236,5.21109 3.54406,7.84992c-1.3283,2.63882 -5.76653,3.00869 -8.35428,1.70609c-2.58774,-1.30259 -2.62188,-4.15553 -1.29359,-6.79435z" fill="#807bff"/><path d="M252.37656,169.53128c2.75011,1.07919 4.37128,3.12612 3.31297,5.82299c-1.05831,2.69687 -4.73938,5.33234 -7.48948,4.25315c-2.75011,-1.07919 -3.52784,-5.46438 -2.46952,-8.16126c1.05831,-2.69687 3.89594,-2.99407 6.64604,-1.91488z" fill="#807bff"/><path d="M260.39911,181.32355c0.25201,2.9435 -0.86391,5.30418 -3.75045,5.55132c-2.88654,0.24714 -6.8809,-1.88382 -7.13291,-4.82732c-0.25201,-2.9435 3.33374,-5.58492 6.22027,-5.83205c2.88654,-0.24714 4.41106,2.16456 4.66307,5.10806z" fill="#807bff"/><path d="M250.42349,193.46051c-2.85128,0.77324 -5.37321,0.09649 -6.13148,-2.69962c-0.75828,-2.7961 0.6257,-7.10663 3.47698,-7.87985c2.85128,-0.77324 6.09018,2.28362 6.84845,5.07972c0.75828,2.7961 -1.34267,4.72651 -4.19396,5.49976z" fill="#807bff"/><path d="M243.6098,186.04008c-2.29417,-2.04766 -2.494,-5.5674 -0.44634,-7.86157c2.04766,-2.29417 5.5674,-2.49402 7.86156,-0.44636c2.29417,2.04766 2.494,5.5674 0.44634,7.86157c-2.04766,2.29417 -5.5674,2.49402 -7.86156,0.44636z" fill="#d8a51e"/></g></g></g></g></svg>