<svg version="1.1" xmlns="http://www.w3.org/2000/svg" xmlns:xlink="http://www.w3.org/1999/xlink" width="213.18203" height="281.18476" viewBox="0,0,213.18203,281.18476"><defs><linearGradient x1="320.08742" y1="187.07227" x2="320.08742" y2="244.23177" gradientUnits="userSpaceOnUse" id="color-1"><stop offset="0" stop-color="#2d7a1a" stop-opacity="0.73333"/><stop offset="1" stop-color="#2d7a1a" stop-opacity="0"/></linearGradient></defs><g transform="translate(-214.52362,-38.88751)"><g stroke-miterlimit="10"><g stroke="#000000" stroke-linecap="butt"><path d="M286.35186,319.07226l15.14285,-131.8421l37.78325,-0.15789l13.57389,132z" fill="#a2f30f" stroke-width="0"/><path d="M295.01902,243.61117l6.47569,-56.38101l37.78325,-0.15789l5.87786,57.15951z" fill="url(#color-1)" stroke-width="0"/><path d="M286.35186,319.07226l15.14285,-131.8421l37.78325,-0.15789l13.57389,132z" fill="none" stroke-width="2"/></g><path d="M214.52362,306.61252v-267.72501h213.18203v267.72501z" fill="none" stroke="none" stroke-width="0" stroke-linecap="butt"/><g fill="#a2f30f" stroke="#000000" stroke-width="2"><path d="M255.36488,150.87225c0,-33.30185 28.7599,-60.29833 64.23702,-60.29833c35.47713,0 64.23702,26.99648 64.23702,60.29833c0,33.30185 -28.75989,60.29834 -64.23702,60.29834c-35.47712,0 -64.23702,-26.99649 -64.23702,-60.29834z" stroke-linecap="butt"/><path d="M256.61579,163.2325l-19.24017,-61.51434l13.27843,7.85866l-3.79384,-53.1137l48.23592,26.55685l-5.96174,-34.14452l20.05313,19.78214l4.06482,-13.00744l13.8204,23.034l14.63337,-20.32412l34.95749,64.7662" stroke-linecap="round"/></g><path d="" fill="none" stroke="#000000" stroke-width="2" stroke-linecap="round"/><path d="M308.91653,177.05291l4.55222,-14.63337" fill="none" stroke="#81c10c" stroke-width="2" stroke-linecap="round"/><path d="M324.90484,161.0646l4.6068,14.63337" fill="none" stroke="#81c10c" stroke-width="2" stroke-linecap="round"/><path d="M268.99199,154.67072c0,-12.96801 10.51265,-23.48065 23.48066,-23.48065c12.96801,0 23.48065,10.51264 23.48065,23.48065c0,12.96801 -10.51264,23.48066 -23.48065,23.48066c-12.96801,0 -23.48066,-10.51265 -23.48066,-23.48066z" fill="#81c10c" stroke="none" stroke-width="0" stroke-linecap="butt"/><path d="M346.73111,178.1514c-12.96801,0 -23.48065,-10.51265 -23.48065,-23.48066c0,-12.96801 10.51264,-23.48065 23.48065,-23.48065c12.96801,0 23.48066,10.51264 23.48066,23.48065c0,12.96801 -10.51265,23.48066 -23.48066,23.48066z" fill="#81c10c" stroke="none" stroke-width="0" stroke-linecap="butt"/><path d="M268.99199,151.14787c0,-12.96801 10.51265,-23.48065 23.48066,-23.48065c12.96801,0 23.48065,10.51264 23.48065,23.48065c0,12.96801 -10.51264,23.48066 -23.48065,23.48066c-12.96801,0 -23.48066,-10.51265 -23.48066,-23.48066z" fill="#ffffff" stroke="#000000" stroke-width="2" stroke-linecap="butt"/><path d="M346.73111,174.62855c-12.96801,0 -23.48065,-10.51265 -23.48065,-23.48066c0,-12.96801 10.51264,-23.48065 23.48065,-23.48065c12.96801,0 23.48066,10.51264 23.48066,23.48065c0,12.96801 -10.51265,23.48066 -23.48066,23.48066z" fill="#ffffff" stroke="#000000" stroke-width="2" stroke-linecap="butt"/><path d="M362.05645,151.7251c0,8.29966 -6.72818,15.02785 -15.02783,15.02785c-8.29964,0 -15.02784,-6.72821 -15.02784,-15.02785c0,-8.29966 6.7282,-15.02785 15.02784,-15.02785c8.29964,0 15.02783,6.7282 15.02783,15.02784z" fill="#000000" stroke="#000000" stroke-width="5" stroke-linecap="butt"/><path d="M281.12119,149.7985c0,-6.00237 4.86588,-10.86827 10.86825,-10.86827c6.00237,0 10.86827,4.86588 10.86827,10.86827c0,6.00237 -4.86588,10.86827 -10.86827,10.86827c-6.00237,0 -10.86825,-4.86588 -10.86825,-10.86827z" fill="none" stroke="#000000" stroke-width="5" stroke-linecap="butt"/><path d="M288.45968,149.52511c0,-1.966 1.59375,-3.55974 3.55974,-3.55974c1.966,0 3.55974,1.59375 3.55974,3.55974c0,1.966 -1.59375,3.55974 -3.55974,3.55974c-1.966,0 -3.55974,-1.59375 -3.55974,-3.55974z" fill="none" stroke="#000000" stroke-width="1" stroke-linecap="butt"/><path d="M359.76795,197.92177l3.86777,2.84251l-89.14286,-0.03598l5.15703,-2.62662" fill="#a2f30f" stroke="#000000" stroke-width="2" stroke-linecap="round"/><path d="M279.43449,200.01162l5.81957,-3.16162l68.7085,0.04495l5.06865,3.14664z" fill="#ffffff" stroke="#000000" stroke-width="2" stroke-linecap="round"/><path d="M281.68722,198.46189l11.45143,-1.34856l9.38641,1.70818l12.0146,-1.66322l9.01094,1.34856l10.70051,-1.37853l9.57413,1.30361l4.13002,-1.27364l7.69686,1.24367" fill="none" stroke="#000000" stroke-width="2" stroke-linecap="round"/></g></g></svg>