<svg version="1.1" xmlns="http://www.w3.org/2000/svg" xmlns:xlink="http://www.w3.org/1999/xlink" width="214.06855" height="295.44033" viewBox="0,0,214.06855,295.44033"><g transform="translate(-213.63715,-38.88751)"><g stroke-miterlimit="10"><path d="M339.11623,296.93773c-0.61998,-0.42206 -0.19792,-1.04203 -0.19792,-1.04203l0.55957,-0.82198c1.13454,-1.66629 2.33933,-3.27978 3.5316,-4.90509c6.44455,-7.93514 13.88047,-14.97726 20.44162,-22.85064c2.97866,-3.5744 4.1909,-7.12628 5.80037,-11.48133c0.95942,-2.59608 2.11714,-4.60666 0.3473,-7.21188c-1.4588,-2.14737 -4.68652,-4.049 -6.65894,-5.76691c-2.81071,-2.45505 -6.97053,-6.54648 -8.62734,-9.88956c-2.73219,-5.51299 -1.47622,-12.20333 0.26096,-17.71249c1.94089,-3.8967 4.18492,-7.58178 7.01242,-10.90931c2.70542,-3.18385 6.01932,-5.94735 8.51605,-9.28639c0,0 0.45,-0.6 1.05,-0.15c0.6,0.45 0.15,1.05 0.15,1.05c-5.16211,6.86363 -11.39388,12.00255 -15.33759,19.85736c-1.59246,5.10697 -2.84573,11.36511 -0.30761,16.48524c1.564,3.15504 5.60086,7.10796 8.26828,9.42404c2.08008,1.81168 5.3701,3.78173 6.91453,6.05514c2.04622,3.01206 0.93882,5.54448 -0.18106,8.57476c-1.66595,4.50786 -2.96257,8.21068 -6.05503,11.92164c-6.54926,7.85912 -13.97096,14.88968 -20.4067,22.8071c-1.17407,1.60152 -2.36147,3.19074 -3.4789,4.83245l-0.55957,0.82198c0,0 -0.42206,0.61997 -1.04203,0.19792z" fill="#000000" stroke="none" stroke-width="0" stroke-linecap="butt"/><g stroke-linecap="butt"><path d="M384.90223,303.97715v-92.407h9.3835v92.407z" fill="#ab4a1e" stroke="#000000" stroke-width="0"/><path d="M384.90223,259.92513v-48.35498h9.3835v48.35498z" fill="#9a441c" stroke="#000000" stroke-width="0"/><path d="M384.90223,247.94982v-36.37967h9.3835v36.37967z" fill="#933b1b" stroke="#000000" stroke-width="0"/><path d="M384.90223,235.00427c0,-9.86977 0,-23.43412 0,-23.43412h9.3835c0,0 0,13.69377 0,23.62351c0,0.15541 -9.3835,-0.07963 -9.3835,-0.18939z" fill="#7c3116" stroke="#000000" stroke-width="0"/><path d="M392.34205,236.59748c-0.82842,0 -1.5,-0.67157 -1.5,-1.5c0,-0.82843 0.67158,-1.5 1.5,-1.5c0.82842,0 1.5,0.67157 1.5,1.5c0,0.82843 -0.67158,1.5 -1.5,1.5z" fill="#7c3116" stroke="none" stroke-width="0.5"/><path d="M388.36473,233.93822c0.25898,-0.21292 0.59054,-0.34074 0.95197,-0.34074c0.82842,0 1.5,0.67157 1.5,1.5c0,0.82843 -0.67158,1.5 -1.5,1.5c-0.44424,0 -0.84337,-0.19311 -1.11803,-0.49997c-0.25898,0.21292 -0.59054,0.34074 -0.95197,0.34074c-0.82842,0 -1.5,-0.67157 -1.5,-1.5c0,-0.82843 0.67158,-1.5 1.5,-1.5c0.44424,0 0.84337,0.19312 1.11803,0.49998z" fill="#7c3116" stroke="none" stroke-width="0.5"/><path d="M392.50132,241.8298c-0.55228,0 -1,-0.44771 -1,-1c0,-0.55229 0.44772,-1 1,-1c0.55228,0 1,0.44771 1,1c0,0.55229 -0.44772,1 -1,1z" fill="#7c3116" stroke="none" stroke-width="0.5"/><path d="M388.52054,245.49211c-0.55228,0 -1,-0.44771 -1,-1c0,-0.55229 0.44772,-1 1,-1c0.55228,0 1,0.44771 1,1c0,0.55229 -0.44772,1 -1,1z" fill="#7c3116" stroke="none" stroke-width="0.5"/><path d="M386.45054,240.07826c-0.55228,0 -1,-0.44771 -1,-1c0,-0.55229 0.44772,-1 1,-1c0.55228,0 1,0.44771 1,1c0,0.55229 -0.44772,1 -1,1z" fill="#7c3116" stroke="none" stroke-width="0.5"/><path d="M392.50132,246.10673c-0.27614,0 -0.5,-0.22386 -0.5,-0.5c0,-0.27614 0.22386,-0.5 0.5,-0.5c0.27614,0 0.5,0.22386 0.5,0.5c0,0.27614 -0.22386,0.5 -0.5,0.5z" fill="#7c3116" stroke="none" stroke-width="0.5"/><path d="M388.04282,247.22135c-0.27614,0 -0.5,-0.22386 -0.5,-0.5c0,-0.27614 0.22386,-0.5 0.5,-0.5c0.27614,0 0.5,0.22386 0.5,0.5c0,0.27614 -0.22386,0.5 -0.5,0.5z" fill="#7c3116" stroke="none" stroke-width="0.5"/><path d="M385.65437,244.19596c-0.27614,0 -0.5,-0.22386 -0.5,-0.5c0,-0.27614 0.22386,-0.5 0.5,-0.5c0.27614,0 0.5,0.22386 0.5,0.5c0,0.27614 -0.22386,0.5 -0.5,0.5z" fill="#7c3116" stroke="none" stroke-width="0.5"/><path d="M392.50132,249.97289c-0.82842,0 -1.5,-0.67157 -1.5,-1.5c0,-0.82843 0.67158,-1.5 1.5,-1.5c0.82842,0 1.5,0.67157 1.5,1.5c0,0.82843 -0.67158,1.5 -1.5,1.5z" fill="#933b1b" stroke="none" stroke-width="0.5"/><path d="M386.56671,250.13152c-0.80851,-0.0228 -1.45694,-0.68537 -1.45694,-1.4994c0,-0.82843 0.67158,-1.5 1.5,-1.5c0.61082,0 1.13637,0.36509 1.37032,0.88897c0.27472,-0.34751 0.70001,-0.57051 1.17738,-0.57051c0.82842,0 1.5,0.67157 1.5,1.5c0,0.82843 -0.67158,1.5 -1.5,1.5c-0.34517,0 -0.66312,-0.11658 -0.9166,-0.31253c-0.17892,0.27081 -0.48607,0.44946 -0.83495,0.44946c-0.35167,0 -0.66094,-0.18152 -0.83922,-0.45599z" fill="#933b1b" stroke="none" stroke-width="0.5"/><path d="M391.38666,253.6129c-0.55228,0 -1,-0.44771 -1,-1c0,-0.55229 0.44772,-1 1,-1c0.55228,0 1,0.44771 1,1c0,0.55229 -0.44772,1 -1,1z" fill="#933b1b" stroke="none" stroke-width="0.5"/><path d="M386.6294,251.46334c0.14279,-0.37787 0.5079,-0.64659 0.93576,-0.64659c0.55228,0 1,0.44771 1,1c0,0.50491 -0.3742,0.92242 -0.8604,0.99033c-0.14279,0.37787 -0.50789,0.64659 -0.93576,0.64659c-0.55228,0 -1,-0.44771 -1,-1c0,-0.50491 0.37419,-0.92242 0.86039,-0.99033z" fill="#933b1b" stroke="none" stroke-width="0.5"/><path d="M386.92819,258.04906c-0.27614,0 -0.5,-0.22386 -0.5,-0.5c0,-0.27614 0.22386,-0.5 0.5,-0.5c0.27614,0 0.5,0.22386 0.5,0.5c0,0.27614 -0.22386,0.5 -0.5,0.5z" fill="#933b1b" stroke="none" stroke-width="0.5"/><path d="M391.38666,255.97906c-0.27614,0 -0.5,-0.22386 -0.5,-0.5c0,-0.27614 0.22386,-0.5 0.5,-0.5c0.27614,0 0.5,0.22386 0.5,0.5c0,0.27614 -0.22386,0.5 -0.5,0.5z" fill="#933b1b" stroke="none" stroke-width="0.5"/><path d="M388.20208,255.34213c-0.27614,0 -0.5,-0.22386 -0.5,-0.5c0,-0.27614 0.22386,-0.5 0.5,-0.5c0.27614,0 0.5,0.22386 0.5,0.5c0,0.27614 -0.22386,0.5 -0.5,0.5z" fill="#933b1b" stroke="none" stroke-width="0.5"/><path d="M387.18136,258.93649c0.22951,0.039 0.44126,0.13014 0.62264,0.2608c0.24642,-0.1775 0.54889,-0.28207 0.87578,-0.28207c0.15222,0 0.29915,0.02267 0.43759,0.06484c0.27514,-0.33146 0.69028,-0.54253 1.15472,-0.54253c0.56709,0 1.06069,0.31471 1.31567,0.779c0.22234,-0.5501 0.76147,-0.93822 1.39126,-0.93822c0.82842,0 1.5,0.67158 1.5,1.5c0,0.82842 -0.67158,1.5 -1.5,1.5c-0.56709,0 -1.0607,-0.3147 -1.31567,-0.77899c-0.22234,0.5501 -0.76147,0.93822 -1.39126,0.93822c-0.15222,0 -0.29916,-0.02267 -0.4376,-0.06483c-0.27514,0.33146 -0.69027,0.54252 -1.15471,0.54252c-0.32689,0 -0.62936,-0.10456 -0.87578,-0.28206c-0.24642,0.1775 -0.54888,0.28206 -0.87577,0.28206c-0.82842,0 -1.5,-0.67158 -1.5,-1.5c0,-0.16503 0.02666,-0.32385 0.07589,-0.47236c-0.03474,-0.10155 -0.05358,-0.21047 -0.05358,-0.32379c0,-0.55228 0.44772,-1 1,-1c0.28841,0 0.54831,0.1221 0.73082,0.31743z" fill="#9a441c" stroke="none" stroke-width="0.5"/><path d="M391.70515,264.9183c-0.55228,0 -1,-0.44772 -1,-1c0,-0.55228 0.44772,-1 1,-1c0.55228,0 1,0.44772 1,1c0,0.55228 -0.44772,1 -1,1z" fill="#9a441c" stroke="none" stroke-width="0.5"/><path d="M386.92819,264.44061c-0.55228,0 -1,-0.44772 -1,-1c0,-0.55228 0.44772,-1 1,-1c0.55228,0 1,0.44772 1,1c0,0.55228 -0.44772,1 -1,1z" fill="#9a441c" stroke="none" stroke-width="0.5"/><path d="M392.34205,267.60293c-0.27614,0 -0.5,-0.22386 -0.5,-0.5c0,-0.27614 0.22386,-0.5 0.5,-0.5c0.27614,0 0.5,0.22386 0.5,0.5c0,0.27614 -0.22386,0.5 -0.5,0.5z" fill="#9a441c" stroke="none" stroke-width="0.5"/><path d="M389.47592,265.69216c-0.27614,0 -0.5,-0.22386 -0.5,-0.5c0,-0.27614 0.22386,-0.5 0.5,-0.5c0.27614,0 0.5,0.22386 0.5,0.5c0,0.27614 -0.22386,0.5 -0.5,0.5z" fill="#9a441c" stroke="none" stroke-width="0.5"/><path d="M388.83901,268.23985c-0.27614,0 -0.5,-0.22386 -0.5,-0.5c0,-0.27614 0.22386,-0.5 0.5,-0.5c0.27614,0 0.5,0.22386 0.5,0.5c0,0.27614 -0.22386,0.5 -0.5,0.5z" fill="#9a441c" stroke="none" stroke-width="0.5"/><path d="M387.56516,269.83216c-0.27614,0 -0.5,-0.22386 -0.5,-0.5c0,-0.27614 0.22386,-0.5 0.5,-0.5c0.27614,0 0.5,0.22386 0.5,0.5c0,0.27614 -0.22386,0.5 -0.5,0.5z" fill="#9a441c" stroke="none" stroke-width="0.5"/></g><g stroke-linecap="butt"><path d="M402.0709,334.32784v-122.75769h12.46546v122.75769z" fill="#ab4a1e" stroke="#000000" stroke-width="0"/><path d="M402.0709,275.80711v-64.23696h12.46546v64.23696z" fill="#9a441c" stroke="#000000" stroke-width="0"/><path d="M402.0709,255.73204v-44.16189h12.46546v44.16189z" fill="#933b1b" stroke="#000000" stroke-width="0"/><path d="M402.0709,231.91601c0,-6.98777 0,-20.34586 0,-20.34586h12.46546c0,0 0,13.51597 0,20.34586c0,0.01328 -12.46546,0.06137 -12.46546,0z" fill="#7c3116" stroke="#000000" stroke-width="0"/><path d="M413.09654,233.41286c-0.82842,0 -1.5,-0.67157 -1.5,-1.5c0,-0.82843 0.67158,-1.5 1.5,-1.5c0.82842,0 1.5,0.67157 1.5,1.5c0,0.82843 -0.67158,1.5 -1.5,1.5z" fill="#7c3116" stroke="none" stroke-width="0.5"/><path d="M408.7973,233.25363c-0.82842,0 -1.5,-0.67157 -1.5,-1.5c0,-0.82843 0.67158,-1.5 1.5,-1.5c0.82842,0 1.5,0.67157 1.5,1.5c0,0.82843 -0.67158,1.5 -1.5,1.5z" fill="#7c3116" stroke="none" stroke-width="0.5"/><path d="M404.1796,229.8536c0.15004,-0.05037 0.31068,-0.07767 0.47769,-0.07767c0.82842,0 1.5,0.67157 1.5,1.5c0,0.82843 -0.67158,1.5 -1.5,1.5c-0.16701,0 -0.32765,-0.0273 -0.47769,-0.07766c-0.15004,0.05037 -0.31069,0.07766 -0.4777,0.07766c-0.82842,0 -1.5,-0.67157 -1.5,-1.5c0,-0.82843 0.67158,-1.5 1.5,-1.5c0.16701,0 0.32765,0.0273 0.4777,0.07767z" fill="#7c3116" stroke="none" stroke-width="0.5"/><path d="M412.93731,236.57517c-0.55228,0 -1,-0.44771 -1,-1c0,-0.55229 0.44772,-1 1,-1c0.55228,0 1,0.44771 1,1c0,0.55229 -0.44772,1 -1,1z" fill="#7c3116" stroke="none" stroke-width="0.5"/><path d="M409.91191,236.89363c-0.55228,0 -1,-0.44771 -1,-1c0,-0.55229 0.44772,-1 1,-1c0.55228,0 1,0.44771 1,1c0,0.55229 -0.44772,1 -1,1z" fill="#7c3116" stroke="none" stroke-width="0.5"/><path d="M405.77191,238.96364c-0.55228,0 -1,-0.44771 -1,-1c0,-0.55229 0.44772,-1 1,-1c0.55228,0 1,0.44771 1,1c0,0.55229 -0.44772,1 -1,1z" fill="#7c3116" stroke="none" stroke-width="0.5"/><path d="M411.98192,241.3298c-0.27614,0 -0.5,-0.22386 -0.5,-0.5c0,-0.27614 0.22386,-0.5 0.5,-0.5c0.27614,0 0.5,0.22386 0.5,0.5c0,0.27614 -0.22386,0.5 -0.5,0.5z" fill="#7c3116" stroke="none" stroke-width="0.5"/><path d="M408.63807,242.12595c-0.27614,0 -0.5,-0.22386 -0.5,-0.5c0,-0.27614 0.22386,-0.5 0.5,-0.5c0.27614,0 0.5,0.22386 0.5,0.5c0,0.27614 -0.22386,0.5 -0.5,0.5z" fill="#7c3116" stroke="none" stroke-width="0.5"/><path d="M406.40883,246.26596c-0.27614,0 -0.5,-0.22386 -0.5,-0.5c0,-0.27614 0.22386,-0.5 0.5,-0.5c0.27614,0 0.5,0.22386 0.5,0.5c0,0.27614 -0.22386,0.5 -0.5,0.5z" fill="#7c3116" stroke="none" stroke-width="0.5"/><path d="M412.45961,257.13829c-0.82842,0 -1.5,-0.67157 -1.5,-1.5c0,-0.82843 0.67158,-1.5 1.5,-1.5c0.82842,0 1.5,0.67157 1.5,1.5c0,0.82843 -0.67158,1.5 -1.5,1.5z" fill="#933b1b" stroke="none" stroke-width="0.5"/><path d="M404.58744,254.63337c0.21059,-0.11271 0.45122,-0.17661 0.70677,-0.17661c0.42204,0 0.80338,0.1743 1.07594,0.45484c0.25588,-0.46117 0.74775,-0.7733 1.31252,-0.7733c0.29249,0 0.56543,0.08371 0.79615,0.22849c0.23073,-0.14478 0.50367,-0.22849 0.79616,-0.22849c0.82842,0 1.5,0.67157 1.5,1.5c0,0.82843 -0.67158,1.5 -1.5,1.5c-0.29249,0 -0.56543,-0.08372 -0.79616,-0.2285c-0.23073,0.14477 -0.50367,0.2285 -0.79615,0.2285c-0.42204,0 -0.80337,-0.1743 -1.07593,-0.45484c-0.22059,0.39757 -0.61657,0.68437 -1.08345,0.75592c-0.21059,0.11271 -0.45122,0.17661 -0.70678,0.17661c-0.82842,0 -1.5,-0.67158 -1.5,-1.5c0,-0.75054 0.55123,-1.37232 1.27092,-1.48261z" fill="#933b1b" stroke="none" stroke-width="0.5"/><path d="M410.3896,260.30061c-0.55228,0 -1,-0.44772 -1,-1c0,-0.55228 0.44772,-1 1,-1c0.55228,0 1,0.44772 1,1c0,0.55228 -0.44772,1 -1,1z" fill="#933b1b" stroke="none" stroke-width="0.5"/><path d="M404.81652,260.14137c-0.55228,0 -1,-0.44772 -1,-1c0,-0.55228 0.44772,-1 1,-1c0.55228,0 1,0.44772 1,1c0,0.55228 -0.44772,1 -1,1z" fill="#933b1b" stroke="none" stroke-width="0.5"/><path d="M411.66342,263.30368c-0.27614,0 -0.5,-0.22386 -0.5,-0.5c0,-0.27614 0.22386,-0.5 0.5,-0.5c0.27614,0 0.5,0.22386 0.5,0.5c0,0.27614 -0.22386,0.5 -0.5,0.5z" fill="#933b1b" stroke="none" stroke-width="0.5"/><path d="M406.24956,265.53292c-0.27614,0 -0.5,-0.22386 -0.5,-0.5c0,-0.27614 0.22386,-0.5 0.5,-0.5c0.27614,0 0.5,0.22386 0.5,0.5c0,0.27614 -0.22386,0.5 -0.5,0.5z" fill="#933b1b" stroke="none" stroke-width="0.5"/><path d="M410.23038,269.5137c-0.27614,0 -0.5,-0.22386 -0.5,-0.5c0,-0.27614 0.22386,-0.5 0.5,-0.5c0.27614,0 0.5,0.22386 0.5,0.5c0,0.27614 -0.22386,0.5 -0.5,0.5z" fill="#933b1b" stroke="none" stroke-width="0.5"/><path d="M413.09654,277.51987c-0.82842,0 -1.5,-0.67158 -1.5,-1.5c0,-0.82842 0.67158,-1.5 1.5,-1.5c0.82842,0 1.5,0.67158 1.5,1.5c0,0.82842 -0.67158,1.5 -1.5,1.5z" fill="#9a441c" stroke="none" stroke-width="0.5"/><path d="M409.43422,278.93064c-0.55228,0 -1,-0.44772 -1,-1c0,-0.039 0.00223,-0.07748 0.00657,-0.11532c-0.349,-0.01305 -0.65225,-0.20495 -0.82078,-0.48671c-0.21686,0.1218 -0.46706,0.19126 -0.7335,0.19126c-0.32689,0 -0.62935,-0.10456 -0.87577,-0.28206c-0.24642,0.1775 -0.54888,0.28206 -0.87577,0.28206c-0.08129,0 -0.16106,-0.00646 -0.23884,-0.01891c-0.07778,0.01245 -0.15756,0.01891 -0.23885,0.01891c-0.82842,0 -1.5,-0.67158 -1.5,-1.5c0,-0.82842 0.67158,-1.5 1.5,-1.5c0.08129,0 0.16107,0.00647 0.23885,0.01891c0.07778,-0.01245 0.15755,-0.01891 0.23884,-0.01891c0.32689,0 0.62935,0.10457 0.87577,0.28207c0.24642,-0.1775 0.54888,-0.28207 0.87577,-0.28207c0.36302,0 0.69592,0.12896 0.95539,0.34356c0.25947,-0.2146 0.59236,-0.34356 0.95538,-0.34356c0.82842,0 1.5,0.67158 1.5,1.5c0,0.39528 -0.1529,0.75484 -0.40276,1.02278c0.32065,0.16656 0.53969,0.50169 0.53969,0.88799c0,0.55228 -0.44772,1 -1,1z" fill="#9a441c" stroke="none" stroke-width="0.5"/><path d="M412.14115,282.91142c-0.55228,0 -1,-0.44772 -1,-1c0,-0.55228 0.44772,-1 1,-1c0.55228,0 1,0.44772 1,1c0,0.55228 -0.44772,1 -1,1z" fill="#9a441c" stroke="none" stroke-width="0.5"/><path d="M404.65729,281.00065c-0.55228,0 -1,-0.44772 -1,-1c0,-0.55228 0.44772,-1 1,-1c0.55228,0 1,0.44772 1,1c0,0.55228 -0.44772,1 -1,1z" fill="#9a441c" stroke="none" stroke-width="0.5"/><path d="M413.45009,292.45576l-0.47769,0.47769c0,0 -0.35356,0.35355 -0.70711,0c-0.35355,-0.35355 0,-0.70711 0,-0.70711l0.47769,-0.47769c0,0 0.35355,-0.35355 0.70711,0c0.35355,0.35355 0,0.70711 0,0.70711z" fill="#9a441c" stroke="none" stroke-width="0.5"/><path d="M411.34499,286.23296c-0.27614,0 -0.5,-0.22386 -0.5,-0.5c0,-0.27614 0.22386,-0.5 0.5,-0.5c0.27614,0 0.5,0.22386 0.5,0.5c0,0.27614 -0.22386,0.5 -0.5,0.5z" fill="#9a441c" stroke="none" stroke-width="0.5"/><path d="M407.68268,284.16296c-0.27614,0 -0.5,-0.22386 -0.5,-0.5c0,-0.27614 0.22386,-0.5 0.5,-0.5c0.27614,0 0.5,0.22386 0.5,0.5c0,0.27614 -0.22386,0.5 -0.5,0.5z" fill="#9a441c" stroke="none" stroke-width="0.5"/><path d="M403.38344,288.30297c-0.27614,0 -0.5,-0.22386 -0.5,-0.5c0,-0.27614 0.22386,-0.5 0.5,-0.5c0.27614,0 0.5,0.22386 0.5,0.5c0,0.27614 -0.22386,0.5 -0.5,0.5z" fill="#9a441c" stroke="none" stroke-width="0.5"/><path d="M407.20499,289.57682c-0.27614,0 -0.5,-0.22386 -0.5,-0.5c0,-0.27614 0.22386,-0.5 0.5,-0.5c0.27614,0 0.5,0.22386 0.5,0.5c0,0.27614 -0.22386,0.5 -0.5,0.5z" fill="#9a441c" stroke="none" stroke-width="0.5"/></g><path d="M338.45851,181.4817c0.74999,0.00418 0.74581,0.75417 0.74581,0.75417l-0.00814,1.46102c-0.11987,9.52776 -8.82394,15.60647 -15.45445,21.34607c-8.08195,5.72539 -16.66397,14.79315 -26.94308,14.79315c-6.37581,0 -12.61726,-0.0549 -18.96597,-0.65384c-4.51772,-0.4262 -7.61587,-0.64469 -11.47758,-3.11824c-1.94173,-3.81196 -2.02153,-7.73198 -1.24603,-11.64295c-1.64443,3.71149 -3.28798,7.42335 -4.93232,11.13487c-1.30809,2.95254 -0.49984,4.37804 0.61255,7.35771c0.25293,0.67751 0.70851,3.06297 1.24534,3.51164c1.19873,1.00187 3.81591,1.53707 5.28094,2.15281c3.68755,1.54984 7.37509,3.09968 11.06264,4.64952c2.96819,1.2475 6.07492,0.6476 9.27591,0.51423c3.8942,-0.16226 8.05892,0.07894 11.91084,-0.49211c2.88175,-0.42722 5.81329,-1.5055 8.6366,-2.23458c1.90138,-0.491 5.20305,-0.67811 6.83091,-1.73145c1.78836,-1.15719 3.42668,-3.82631 4.8699,-5.4181c3.69429,-4.07459 7.38858,-8.14916 11.08287,-12.22375c3.89976,-4.30121 6.15544,-10.22515 8.83446,-15.36892c0.71226,-1.36756 3.00599,-4.2739 3.04345,-5.76288c0.04759,-1.89105 -0.88142,-3.34619 -1.79264,-4.8995c-0.1621,-0.24516 -0.32419,-0.49032 -0.48629,-0.73548l-0.4923,-0.48713c0,0 -0.53033,-0.53033 0,-1.06066c0.53033,-0.53033 1.06066,0 1.06066,0l0.59165,0.59682c0.19922,0.29682 0.39844,0.59364 0.59766,0.89046c1.08582,1.84899 2.17019,3.67525 2.00119,5.94004c-0.13654,1.82987 -2.34177,4.57685 -3.193,6.21124c-2.74253,5.2657 -5.05949,11.27831 -9.05358,15.68356c-3.69429,4.07459 -7.38858,8.14916 -11.08287,12.22375c-1.54199,1.70072 -3.27425,4.46825 -5.20543,5.6944c-1.80585,1.14658 -5.15307,1.36321 -7.23158,1.89996c-2.87541,0.74253 -5.85608,1.8308 -8.79167,2.26601c-3.9061,0.57908 -8.12018,0.34251 -12.06836,0.50702c-3.44177,0.14341 -6.71131,0.7183 -9.91955,-0.63009c-3.68754,-1.54984 -7.37509,-3.09968 -11.06264,-4.64952c-1.62132,-0.68142 -4.49014,-1.31558 -5.7817,-2.49671c-0.1374,-0.12565 -1.02181,-2.56118 -1.04403,-2.62069c-1.3723,-3.67587 -2.77013,-6.133 -1.10334,-9.89519c3.55629,-8.02706 7.10889,-16.05576 10.67462,-24.07864c0,0 0.24598,-0.55346 0.79321,-0.44461c0.11921,-0.02356 0.2606,-0.01524 0.42648,0.04697c0.70225,0.26334 0.4389,0.96559 0.4389,0.96559c-1.82454,4.86544 -3.84145,9.79644 -4.83031,14.89879c-0.34751,1.79312 -0.8234,3.69176 -0.33681,5.5215c0.2883,1.0841 1.06199,2.15994 1.50035,3.20454c3.5639,2.07692 6.38022,2.23758 10.50181,2.62641c6.30212,0.59454 12.49577,0.64721 18.82509,0.64721c6.41884,0 10.01033,-2.98365 15.0432,-6.67786c3.61641,-2.65451 7.31063,-5.20697 10.9744,-7.79573c6.22769,-5.4041 14.76716,-11.21516 14.88,-20.17924l0.00811,-1.45575c0,0 0.00417,-0.74999 0.75417,-0.74581z" fill="#000000" stroke="none" stroke-width="0" stroke-linecap="butt"/><g stroke-linecap="butt"><path d="M248.81919,303.97715v-92.407h9.3835v92.407z" fill="#ab4a1e" stroke="#000000" stroke-width="0"/><path d="M248.81919,259.92513v-48.35498h9.3835v48.35498z" fill="#9a441c" stroke="#000000" stroke-width="0"/><path d="M248.81919,247.94982v-36.37967h9.3835v36.37967z" fill="#933b1b" stroke="#000000" stroke-width="0"/><path d="M248.81919,235.19366c0,-9.92974 0,-23.62351 0,-23.62351h9.3835c0,0 0,13.56435 0,23.43412c0,0.10976 -9.3835,0.3448 -9.3835,0.18939z" fill="#7c3116" stroke="#000000" stroke-width="0"/><path d="M249.26285,235.09748c0,-0.82843 0.67157,-1.5 1.5,-1.5c0.82843,0 1.5,0.67157 1.5,1.5c0,0.82843 -0.67157,1.5 -1.5,1.5c-0.82843,0 -1.5,-0.67157 -1.5,-1.5z" fill="#7c3116" stroke="none" stroke-width="0.5"/><path d="M255.85823,233.43825c0.82843,0 1.5,0.67157 1.5,1.5c0,0.82843 -0.67157,1.5 -1.5,1.5c-0.36143,0 -0.693,-0.12782 -0.95197,-0.34074c-0.27466,0.30686 -0.67379,0.49997 -1.11803,0.49997c-0.82843,0 -1.5,-0.67157 -1.5,-1.5c0,-0.82843 0.67157,-1.5 1.5,-1.5c0.36143,0 0.693,0.12783 0.95197,0.34074c0.27466,-0.30686 0.67379,-0.49998 1.11803,-0.49998z" fill="#7c3116" stroke="none" stroke-width="0.5"/><path d="M249.60358,240.8298c0,-0.55229 0.44771,-1 1,-1c0.55229,0 1,0.44771 1,1c0,0.55229 -0.44771,1 -1,1c-0.55229,0 -1,-0.44771 -1,-1z" fill="#7c3116" stroke="none" stroke-width="0.5"/><path d="M253.5844,244.49211c0,-0.55229 0.44771,-1 1,-1c0.55229,0 1,0.44771 1,1c0,0.55229 -0.44771,1 -1,1c-0.55229,0 -1,-0.44771 -1,-1z" fill="#7c3116" stroke="none" stroke-width="0.5"/><path d="M255.65436,239.07826c0,-0.55229 0.44771,-1 1,-1c0.55228,0 1,0.44771 1,1c0,0.55229 -0.44772,1 -1,1c-0.55228,0 -1,-0.44771 -1,-1z" fill="#7c3116" stroke="none" stroke-width="0.5"/><path d="M250.10358,245.60673c0,-0.27614 0.22386,-0.5 0.5,-0.5c0.27614,0 0.5,0.22386 0.5,0.5c0,0.27614 -0.22386,0.5 -0.5,0.5c-0.27614,0 -0.5,-0.22386 -0.5,-0.5z" fill="#7c3116" stroke="none" stroke-width="0.5"/><path d="M254.56209,246.72135c0,-0.27614 0.22386,-0.5 0.5,-0.5c0.27614,0 0.5,0.22386 0.5,0.5c0,0.27614 -0.22386,0.5 -0.5,0.5c-0.27614,0 -0.5,-0.22386 -0.5,-0.5z" fill="#7c3116" stroke="none" stroke-width="0.5"/><path d="M256.95052,243.69596c0,-0.27614 0.22386,-0.5 0.5,-0.5c0.27614,0 0.5,0.22386 0.5,0.5c0,0.27614 -0.22386,0.5 -0.5,0.5c-0.27614,0 -0.5,-0.22386 -0.5,-0.5z" fill="#7c3116" stroke="none" stroke-width="0.5"/><path d="M249.10358,248.47289c0,-0.82843 0.67157,-1.5 1.5,-1.5c0.82843,0 1.5,0.67157 1.5,1.5c0,0.82843 -0.67157,1.5 -1.5,1.5c-0.82843,0 -1.5,-0.67157 -1.5,-1.5z" fill="#933b1b" stroke="none" stroke-width="0.5"/><path d="M255.69901,250.58751c-0.34887,0 -0.65602,-0.17865 -0.83495,-0.44946c-0.25348,0.19595 -0.57142,0.31253 -0.9166,0.31253c-0.82843,0 -1.5,-0.67157 -1.5,-1.5c0,-0.82843 0.67157,-1.5 1.5,-1.5c0.47737,0 0.90266,0.223 1.17738,0.57051c0.23395,-0.52388 0.7595,-0.88897 1.37032,-0.88897c0.82842,0 1.5,0.67157 1.5,1.5c0,0.81402 -0.64842,1.4766 -1.45693,1.4994c-0.17828,0.27446 -0.48755,0.45599 -0.83922,0.45599z" fill="#933b1b" stroke="none" stroke-width="0.5"/><path d="M250.7182,252.6129c0,-0.55229 0.44771,-1 1,-1c0.55229,0 1,0.44771 1,1c0,0.55229 -0.44771,1 -1,1c-0.55229,0 -1,-0.44771 -1,-1z" fill="#933b1b" stroke="none" stroke-width="0.5"/><path d="M257.33591,252.45367c0,0.55229 -0.44772,1 -1,1c-0.42786,0 -0.79298,-0.26872 -0.93576,-0.64659c-0.4862,-0.06791 -0.8604,-0.48542 -0.8604,-0.99033c0,-0.55229 0.44771,-1 1,-1c0.42786,0 0.79297,0.26872 0.93576,0.64659c0.4862,0.06791 0.8604,0.48542 0.8604,0.99033z" fill="#933b1b" stroke="none" stroke-width="0.5"/><path d="M255.67671,257.54906c0,-0.27614 0.22386,-0.5 0.5,-0.5c0.27614,0 0.5,0.22386 0.5,0.5c0,0.27614 -0.22386,0.5 -0.5,0.5c-0.27614,0 -0.5,-0.22386 -0.5,-0.5z" fill="#933b1b" stroke="none" stroke-width="0.5"/><path d="M251.2182,255.47906c0,-0.27614 0.22386,-0.5 0.5,-0.5c0.27614,0 0.5,0.22386 0.5,0.5c0,0.27614 -0.22386,0.5 -0.5,0.5c-0.27614,0 -0.5,-0.22386 -0.5,-0.5z" fill="#933b1b" stroke="none" stroke-width="0.5"/><path d="M254.40282,254.84213c0,-0.27614 0.22386,-0.5 0.5,-0.5c0.27614,0 0.5,0.22386 0.5,0.5c0,0.27614 -0.22386,0.5 -0.5,0.5c-0.27614,0 -0.5,-0.22386 -0.5,-0.5z" fill="#933b1b" stroke="none" stroke-width="0.5"/><path d="M256.65434,258.61906c0.55228,0 1,0.44772 1,1c0,0.11332 -0.01884,0.22224 -0.05358,0.32379c0.04924,0.14851 0.07589,0.30733 0.07589,0.47236c0,0.82842 -0.67158,1.5 -1.5,1.5c-0.32689,0 -0.62935,-0.10456 -0.87577,-0.28206c-0.24642,0.1775 -0.54889,0.28206 -0.87578,0.28206c-0.46444,0 -0.87957,-0.21107 -1.15471,-0.54252c-0.13844,0.04216 -0.28538,0.06483 -0.4376,0.06483c-0.62978,0 -1.16891,-0.38812 -1.39126,-0.93822c-0.25498,0.46429 -0.74858,0.77899 -1.31567,0.77899c-0.82843,0 -1.5,-0.67158 -1.5,-1.5c0,-0.82842 0.67157,-1.5 1.5,-1.5c0.62978,0 1.16892,0.38813 1.39126,0.93822c0.25498,-0.46429 0.74857,-0.779 1.31567,-0.779c0.46444,0 0.87958,0.21107 1.15472,0.54253c0.13844,-0.04216 0.28537,-0.06484 0.43759,-0.06484c0.32689,0 0.62936,0.10456 0.87578,0.28207c0.18139,-0.13066 0.39314,-0.22179 0.62265,-0.2608c0.18251,-0.19533 0.4424,-0.31743 0.73081,-0.31743z" fill="#9a441c" stroke="none" stroke-width="0.5"/><path d="M250.39977,263.9183c0,-0.55228 0.44771,-1 1,-1c0.55229,0 1,0.44772 1,1c0,0.55228 -0.44771,1 -1,1c-0.55229,0 -1,-0.44772 -1,-1z" fill="#9a441c" stroke="none" stroke-width="0.5"/><path d="M255.17671,263.44061c0,-0.55228 0.44771,-1 1,-1c0.55228,0 1,0.44772 1,1c0,0.55228 -0.44772,1 -1,1c-0.55229,0 -1,-0.44772 -1,-1z" fill="#9a441c" stroke="none" stroke-width="0.5"/><path d="M250.26285,267.10293c0,-0.27614 0.22386,-0.5 0.5,-0.5c0.27614,0 0.5,0.22386 0.5,0.5c0,0.27614 -0.22386,0.5 -0.5,0.5c-0.27614,0 -0.5,-0.22386 -0.5,-0.5z" fill="#9a441c" stroke="none" stroke-width="0.5"/><path d="M253.129,265.19216c0,-0.27614 0.22386,-0.5 0.5,-0.5c0.27614,0 0.5,0.22386 0.5,0.5c0,0.27614 -0.22386,0.5 -0.5,0.5c-0.27614,0 -0.5,-0.22386 -0.5,-0.5z" fill="#9a441c" stroke="none" stroke-width="0.5"/><path d="M253.76591,267.73985c0,-0.27614 0.22386,-0.5 0.5,-0.5c0.27614,0 0.5,0.22386 0.5,0.5c0,0.27614 -0.22386,0.5 -0.5,0.5c-0.27614,0 -0.5,-0.22386 -0.5,-0.5z" fill="#9a441c" stroke="none" stroke-width="0.5"/><path d="M255.03974,269.33216c0,-0.27614 0.22386,-0.5 0.5,-0.5c0.27614,0 0.5,0.22386 0.5,0.5c0,0.27614 -0.22386,0.5 -0.5,0.5c-0.27614,0 -0.5,-0.22386 -0.5,-0.5z" fill="#9a441c" stroke="none" stroke-width="0.5"/></g><g stroke-linecap="butt"><path d="M227.3491,334.32784v-122.75769h12.46546v122.75769z" fill="#ab4a1e" stroke="#000000" stroke-width="0"/><path d="M227.3491,275.80711v-64.23696h12.46546v64.23696z" fill="#9a441c" stroke="#000000" stroke-width="0"/><path d="M227.3491,255.73204v-44.16189h12.46546v44.16189z" fill="#933b1b" stroke="#000000" stroke-width="0"/><path d="M227.3491,231.91601c0,-6.82989 0,-20.34586 0,-20.34586h12.46546c0,0 0,13.35809 0,20.34586c0,0.06137 -12.46546,0.01328 -12.46546,0z" fill="#7c3116" stroke="#000000" stroke-width="0"/><path d="M227.28892,231.91286c0,-0.82843 0.67157,-1.5 1.5,-1.5c0.82843,0 1.5,0.67157 1.5,1.5c0,0.82843 -0.67157,1.5 -1.5,1.5c-0.82843,0 -1.5,-0.67157 -1.5,-1.5z" fill="#7c3116" stroke="none" stroke-width="0.5"/><path d="M231.58817,231.75363c0,-0.82843 0.67157,-1.5 1.5,-1.5c0.82843,0 1.5,0.67157 1.5,1.5c0,0.82843 -0.67157,1.5 -1.5,1.5c-0.82843,0 -1.5,-0.67157 -1.5,-1.5z" fill="#7c3116" stroke="none" stroke-width="0.5"/><path d="M238.18355,229.77593c0.82843,0 1.5,0.67157 1.5,1.5c0,0.82843 -0.67157,1.5 -1.5,1.5c-0.16701,0 -0.32765,-0.0273 -0.47769,-0.07766c-0.15005,0.05037 -0.31068,0.07766 -0.47769,0.07766c-0.82843,0 -1.5,-0.67157 -1.5,-1.5c0,-0.82843 0.67157,-1.5 1.5,-1.5c0.16701,0 0.32765,0.0273 0.47769,0.07767c0.15005,-0.05037 0.31068,-0.07767 0.47769,-0.07767z" fill="#7c3116" stroke="none" stroke-width="0.5"/><path d="M227.94819,235.57517c0,-0.55229 0.44771,-1 1,-1c0.55229,0 1,0.44771 1,1c0,0.55229 -0.44771,1 -1,1c-0.55229,0 -1,-0.44771 -1,-1z" fill="#7c3116" stroke="none" stroke-width="0.5"/><path d="M230.97356,235.89363c0,-0.55229 0.44771,-1 1,-1c0.55229,0 1,0.44771 1,1c0,0.55229 -0.44771,1 -1,1c-0.55229,0 -1,-0.44771 -1,-1z" fill="#7c3116" stroke="none" stroke-width="0.5"/><path d="M235.11359,237.96364c0,-0.55229 0.44771,-1 1,-1c0.55229,0 1,0.44771 1,1c0,0.55229 -0.44771,1 -1,1c-0.55229,0 -1,-0.44771 -1,-1z" fill="#7c3116" stroke="none" stroke-width="0.5"/><path d="M229.40354,240.8298c0,-0.27614 0.22386,-0.5 0.5,-0.5c0.27614,0 0.5,0.22386 0.5,0.5c0,0.27614 -0.22386,0.5 -0.5,0.5c-0.27614,0 -0.5,-0.22386 -0.5,-0.5z" fill="#7c3116" stroke="none" stroke-width="0.5"/><path d="M232.74739,241.62595c0,-0.27614 0.22386,-0.5 0.5,-0.5c0.27614,0 0.5,0.22386 0.5,0.5c0,0.27614 -0.22386,0.5 -0.5,0.5c-0.27614,0 -0.5,-0.22386 -0.5,-0.5z" fill="#7c3116" stroke="none" stroke-width="0.5"/><path d="M234.97662,245.76596c0,-0.27614 0.22386,-0.5 0.5,-0.5c0.27614,0 0.5,0.22386 0.5,0.5c0,0.27614 -0.22386,0.5 -0.5,0.5c-0.27614,0 -0.5,-0.22386 -0.5,-0.5z" fill="#7c3116" stroke="none" stroke-width="0.5"/><path d="M227.92584,255.63829c0,-0.82843 0.67157,-1.5 1.5,-1.5c0.82843,0 1.5,0.67157 1.5,1.5c0,0.82843 -0.67157,1.5 -1.5,1.5c-0.82843,0 -1.5,-0.67157 -1.5,-1.5z" fill="#933b1b" stroke="none" stroke-width="0.5"/><path d="M238.56898,256.11598c0,0.82842 -0.67157,1.5 -1.5,1.5c-0.25555,0 -0.49619,-0.06391 -0.70678,-0.17661c-0.46687,-0.07155 -0.86286,-0.35835 -1.08345,-0.75592c-0.27256,0.28054 -0.65389,0.45484 -1.07593,0.45484c-0.29249,0 -0.56543,-0.08372 -0.79615,-0.2285c-0.23073,0.14477 -0.50367,0.2285 -0.79616,0.2285c-0.82843,0 -1.5,-0.67157 -1.5,-1.5c0,-0.82843 0.67157,-1.5 1.5,-1.5c0.29249,0 0.56543,0.08371 0.79616,0.22849c0.23073,-0.14478 0.50367,-0.22849 0.79615,-0.22849c0.56477,0 1.05665,0.31213 1.31252,0.7733c0.27256,-0.28054 0.6539,-0.45484 1.07594,-0.45484c0.25555,0 0.49618,0.06391 0.70677,0.17661c0.71969,0.11029 1.27092,0.73208 1.27092,1.48261z" fill="#933b1b" stroke="none" stroke-width="0.5"/><path d="M230.49585,259.30061c0,-0.55228 0.44771,-1 1,-1c0.55229,0 1,0.44772 1,1c0,0.55228 -0.44771,1 -1,1c-0.55229,0 -1,-0.44772 -1,-1z" fill="#933b1b" stroke="none" stroke-width="0.5"/><path d="M236.06898,259.14137c0,-0.55228 0.44771,-1 1,-1c0.55229,0 1,0.44772 1,1c0,0.55228 -0.44771,1 -1,1c-0.55229,0 -1,-0.44772 -1,-1z" fill="#933b1b" stroke="none" stroke-width="0.5"/><path d="M229.72203,262.80368c0,-0.27614 0.22386,-0.5 0.5,-0.5c0.27614,0 0.5,0.22386 0.5,0.5c0,0.27614 -0.22386,0.5 -0.5,0.5c-0.27614,0 -0.5,-0.22386 -0.5,-0.5z" fill="#933b1b" stroke="none" stroke-width="0.5"/><path d="M235.13589,265.03292c0,-0.27614 0.22386,-0.5 0.5,-0.5c0.27614,0 0.5,0.22386 0.5,0.5c0,0.27614 -0.22386,0.5 -0.5,0.5c-0.27614,0 -0.5,-0.22386 -0.5,-0.5z" fill="#933b1b" stroke="none" stroke-width="0.5"/><path d="M231.15512,269.0137c0,-0.27614 0.22386,-0.5 0.5,-0.5c0.27614,0 0.5,0.22386 0.5,0.5c0,0.27614 -0.22386,0.5 -0.5,0.5c-0.27614,0 -0.5,-0.22386 -0.5,-0.5z" fill="#933b1b" stroke="none" stroke-width="0.5"/><path d="M227.28892,276.01987c0,-0.82842 0.67157,-1.5 1.5,-1.5c0.82843,0 1.5,0.67158 1.5,1.5c0,0.82842 -0.67157,1.5 -1.5,1.5c-0.82843,0 -1.5,-0.67158 -1.5,-1.5z" fill="#9a441c" stroke="none" stroke-width="0.5"/><path d="M231.45126,277.93064c0,-0.3863 0.21904,-0.72143 0.53969,-0.88799c-0.24987,-0.26794 -0.40277,-0.62751 -0.40277,-1.02278c0,-0.82842 0.67157,-1.5 1.5,-1.5c0.36302,0 0.69592,0.12896 0.95539,0.34356c0.25947,-0.2146 0.59237,-0.34356 0.95539,-0.34356c0.32689,0 0.62935,0.10457 0.87577,0.28207c0.24642,-0.1775 0.54889,-0.28207 0.87577,-0.28207c0.08129,0 0.16107,0.00647 0.23884,0.01891c0.07778,-0.01245 0.15756,-0.01891 0.23885,-0.01891c0.82843,0 1.5,0.67158 1.5,1.5c0,0.82842 -0.67157,1.5 -1.5,1.5c-0.08129,0 -0.16107,-0.00646 -0.23885,-0.01891c-0.07778,0.01245 -0.15756,0.01891 -0.23884,0.01891c-0.32689,0 -0.62935,-0.10456 -0.87577,-0.28206c-0.24642,0.1775 -0.54888,0.28206 -0.87577,0.28206c-0.26643,0 -0.51664,-0.06946 -0.7335,-0.19126c-0.16853,0.28176 -0.47178,0.47366 -0.82078,0.48671c0.00435,0.03784 0.00657,0.07632 0.00657,0.11532c0,0.55228 -0.44771,1 -1,1c-0.55229,0 -1,-0.44772 -1,-1z" fill="#9a441c" stroke="none" stroke-width="0.5"/><path d="M228.74433,281.91142c0,-0.55228 0.44771,-1 1,-1c0.55229,0 1,0.44772 1,1c0,0.55228 -0.44771,1 -1,1c-0.55229,0 -1,-0.44772 -1,-1z" fill="#9a441c" stroke="none" stroke-width="0.5"/><path d="M236.22821,280.00065c0,-0.55228 0.44771,-1 1,-1c0.55229,0 1,0.44772 1,1c0,0.55228 -0.44771,1 -1,1c-0.55229,0 -1,-0.44772 -1,-1z" fill="#9a441c" stroke="none" stroke-width="0.5"/><path d="M228.43541,291.74866c0.35356,-0.35355 0.70711,0 0.70711,0l0.4777,0.47769c0,0 0.35356,0.35356 0,0.70711c-0.35356,0.35355 -0.70711,0 -0.70711,0l-0.47769,-0.47769c0,0 -0.35356,-0.35355 0,-0.70711z" fill="#9a441c" stroke="none" stroke-width="0.5"/><path d="M230.04046,285.73296c0,-0.27614 0.22386,-0.5 0.5,-0.5c0.27614,0 0.5,0.22386 0.5,0.5c0,0.27614 -0.22386,0.5 -0.5,0.5c-0.27614,0 -0.5,-0.22386 -0.5,-0.5z" fill="#9a441c" stroke="none" stroke-width="0.5"/><path d="M233.70278,283.66296c0,-0.27614 0.22386,-0.5 0.5,-0.5c0.27614,0 0.5,0.22386 0.5,0.5c0,0.27614 -0.22386,0.5 -0.5,0.5c-0.27614,0 -0.5,-0.22386 -0.5,-0.5z" fill="#9a441c" stroke="none" stroke-width="0.5"/><path d="M238.00203,287.80297c0,-0.27614 0.22386,-0.5 0.5,-0.5c0.27614,0 0.5,0.22386 0.5,0.5c0,0.27614 -0.22386,0.5 -0.5,0.5c-0.27614,0 -0.5,-0.22386 -0.5,-0.5z" fill="#9a441c" stroke="none" stroke-width="0.5"/><path d="M234.18049,289.07682c0,-0.27614 0.22386,-0.5 0.5,-0.5c0.27614,0 0.5,0.22386 0.5,0.5c0,0.27614 -0.22386,0.5 -0.5,0.5c-0.27614,0 -0.5,-0.22386 -0.5,-0.5z" fill="#9a441c" stroke="none" stroke-width="0.5"/></g><g><path d="M390.56635,196.39479l35.79662,6.7747v11.11052h-212.72581v-11.11052l38.43736,-6.7747z" fill="#ab4a1e" stroke="#000000" stroke-width="0" stroke-linecap="round"/><path d="M390.56635,196.39479c0,0 16.46745,3.11655 23.01942,4.35655c0.05273,0.00998 -186.9758,0.11995 -186.8255,0.09345c5.77626,-1.01808 25.31425,-4.45 25.31425,-4.45z" fill="#933b1b" stroke="#000000" stroke-width="0" stroke-linecap="round"/><path d="M390.56635,196.39479c0,0 7.50319,1.34414 11.60157,2.11978c0.10366,0.01962 -163.06368,0.16627 -162.65855,0.09487c4.93653,-0.87008 12.56515,-2.21465 12.56515,-2.21465z" fill="#7c3116" stroke="#000000" stroke-width="0" stroke-linecap="round"/><path d="M396.23398,197.16552c0.55228,0 1,0.44771 1,1c0,0.10043 -0.01481,0.1974 -0.04235,0.28886c0.157,-0.34673 0.50604,-0.58795 0.91143,-0.58795c0.55228,0 1,0.44771 1,1c0,0.55229 -0.44772,1 -1,1c-0.55228,0 -1,-0.44771 -1,-1c0,-0.10043 0.01481,-0.19741 0.04235,-0.28886c-0.157,0.34673 -0.50605,0.58795 -0.91143,0.58795c-0.21803,0 -0.41976,-0.06978 -0.58409,-0.18822c-0.02042,0.01471 -0.04142,0.02868 -0.06295,0.04185c-0.07353,0.47979 -0.48805,0.84727 -0.98841,0.84727c-0.37491,0 -0.70163,-0.20632 -0.87282,-0.51161c-0.09335,0.02882 -0.19254,0.04434 -0.29535,0.04434c-0.55228,0 -1,-0.44771 -1,-1c0,-0.55229 0.44772,-1 1,-1c0.29214,0 0.55502,0.12527 0.73786,0.32503c0.16303,-0.33095 0.50372,-0.55867 0.89759,-0.55867c0.21803,0 0.41976,0.06978 0.58409,0.18822c0.16433,-0.11844 0.36606,-0.18822 0.58409,-0.18822z" fill="#7c3116" stroke="none" stroke-width="0.5" stroke-linecap="butt"/><path d="M245.53938,197.39916c0.55229,0 1,0.44771 1,1c0,0.55229 -0.44771,1 -1,1c-0.39003,0 -0.7279,-0.22329 -0.89277,-0.54901c-0.09924,0.44777 -0.49867,0.78265 -0.97631,0.78265c-0.55229,0 -1,-0.44771 -1,-1c0,-0.55229 0.44771,-1 1,-1c0.39003,0 0.72791,0.22329 0.89277,0.549c0.09924,-0.44777 0.49867,-0.78264 0.97631,-0.78264z" fill="#7c3116" stroke="none" stroke-width="0.5" stroke-linecap="butt"/><path d="M249.74485,197.16552c0.55229,0 1,0.44771 1,1c0,0.55229 -0.44771,1 -1,1c-0.16879,0 -0.32781,-0.04182 -0.46727,-0.11566c-0.13946,0.07384 -0.29848,0.11566 -0.46727,0.11566c-0.0881,0 -0.17354,-0.01139 -0.25493,-0.03279c-0.17839,0.16535 -0.41719,0.26642 -0.67961,0.26642c-0.55229,0 -1,-0.44771 -1,-1c0,-0.55229 0.44771,-1 1,-1c0.0881,0 0.17354,0.01139 0.25493,0.03278c0.17839,-0.16535 0.41719,-0.26642 0.67961,-0.26642c0.16879,0 0.32781,0.04182 0.46727,0.11566c0.13946,-0.07384 0.29848,-0.11566 0.46727,-0.11566z" fill="#7c3116" stroke="none" stroke-width="0.5" stroke-linecap="butt"/><path d="M408.55115,200.96914c0,-0.55229 0.44772,-1 1,-1c0.55228,0 1,0.44771 1,1c0,0.55229 -0.44772,1 -1,1c-0.55228,0 -1,-0.44771 -1,-1z" fill="#933b1b" stroke="none" stroke-width="0.5" stroke-linecap="butt"/><path d="M403.87849,201.20278c0,-1 1,-1 1,-1h1.63545c0,0 1,0 1,1c0,1 -1,1 -1,1h-1.63545c0,0 -1,0 -1,-1z" fill="#933b1b" stroke="none" stroke-width="0.5" stroke-linecap="butt"/><path d="M398.27125,201.20278c0,-0.55229 0.44772,-1 1,-1c0.55228,0 1,0.44771 1,1c0,0.55229 -0.44772,1 -1,1c-0.55228,0 -1,-0.44771 -1,-1z" fill="#933b1b" stroke="none" stroke-width="0.5" stroke-linecap="butt"/><path d="M394.76673,200.50187c0,-0.55229 0.44772,-1 1,-1c0.55228,0 1,0.44771 1,1c0,0.55229 -0.44772,1 -1,1c-0.55228,0 -1,-0.44771 -1,-1z" fill="#933b1b" stroke="none" stroke-width="0.5" stroke-linecap="butt"/><path d="M392.43038,200.26824c0,-0.55229 0.44772,-1 1,-1c0.55228,0 1,0.44771 1,1c0,0.55229 -0.44772,1 -1,1c-0.55228,0 -1,-0.44771 -1,-1z" fill="#933b1b" stroke="none" stroke-width="0.5" stroke-linecap="butt"/><path d="M384.01952,200.96914c0,-0.55229 0.44772,-1 1,-1c0.12331,0 0.24139,0.02231 0.35045,0.06313c0.10906,-0.04082 0.22715,-0.06313 0.35045,-0.06313c0.55228,0 1,0.44771 1,1c0,0.55229 -0.44772,1 -1,1c-0.12331,0 -0.24139,-0.02231 -0.35045,-0.06313c-0.10906,0.04082 -0.22715,0.06313 -0.35045,0.06313c-0.55228,0 -1,-0.44771 -1,-1z" fill="#933b1b" stroke="none" stroke-width="0.5" stroke-linecap="butt"/><path d="M375.37501,201.20278c0,-0.55229 0.44772,-1 1,-1c0.55228,0 1,0.44771 1,1c0,0.55229 -0.44772,1 -1,1c-0.55228,0 -1,-0.44771 -1,-1z" fill="#933b1b" stroke="none" stroke-width="0.5" stroke-linecap="butt"/><path d="M367.43143,200.96914c0,-0.55229 0.44772,-1 1,-1c0.55228,0 1,0.44771 1,1c0,0.55229 -0.44772,1 -1,1c-0.55228,0 -1,-0.44771 -1,-1z" fill="#933b1b" stroke="none" stroke-width="0.5" stroke-linecap="butt"/><path d="M359.02057,200.73551c0,-0.55229 0.44772,-1 1,-1c0.55228,0 1,0.44771 1,1c0,0.55229 -0.44772,1 -1,1c-0.55228,0 -1,-0.44771 -1,-1z" fill="#933b1b" stroke="none" stroke-width="0.5" stroke-linecap="butt"/><path d="M350.14244,201.20278c0,-0.55229 0.44772,-1 1,-1c0.10281,0 0.202,0.01551 0.29535,0.04433c0.1712,-0.30528 0.49791,-0.5116 0.87282,-0.5116c0.55228,0 1,0.44771 1,1c0,0.55229 -0.44772,1 -1,1c-0.10281,0 -0.202,-0.01552 -0.29535,-0.04433c-0.1712,0.30528 -0.49792,0.51161 -0.87283,0.51161c-0.55228,0 -1,-0.44771 -1,-1z" fill="#933b1b" stroke="none" stroke-width="0.5" stroke-linecap="butt"/><path d="M335.4234,200.73551c0,-0.55229 0.44772,-1 1,-1c0.55228,0 1,0.44771 1,1c0,0.55229 -0.44772,1 -1,1c-0.55228,0 -1,-0.44771 -1,-1z" fill="#933b1b" stroke="none" stroke-width="0.5" stroke-linecap="butt"/><path d="M330.0498,201.20278c0,-0.55229 0.44772,-1 1,-1c0.55228,0 1,0.44771 1,1c0,0.55229 -0.44772,1 -1,1c-0.55228,0 -1,-0.44771 -1,-1z" fill="#933b1b" stroke="none" stroke-width="0.5" stroke-linecap="butt"/><path d="M323.27437,201.20278c0,-0.55229 0.44772,-1 1,-1c0.55228,0 1,0.44771 1,1c0,0.55229 -0.44772,1 -1,1c-0.55228,0 -1,-0.44771 -1,-1z" fill="#933b1b" stroke="none" stroke-width="0.5" stroke-linecap="butt"/><path d="M319.06895,201.43641c0,-0.55229 0.44772,-1 1,-1c0.55228,0 1,0.44771 1,1c0,0.55229 -0.44772,1 -1,1c-0.55228,0 -1,-0.44771 -1,-1z" fill="#933b1b" stroke="none" stroke-width="0.5" stroke-linecap="butt"/><path d="M312.52716,200.73551c0,-0.55229 0.44772,-1 1,-1c0.55228,0 1,0.44771 1,1c0,0.55229 -0.44772,1 -1,1c-0.55228,0 -1,-0.44771 -1,-1z" fill="#933b1b" stroke="none" stroke-width="0.5" stroke-linecap="butt"/><path d="M309.25627,200.73551c0,-0.55229 0.44772,-1 1,-1c0.55228,0 1,0.44771 1,1c0,0.55229 -0.44772,1 -1,1c-0.55228,0 -1,-0.44771 -1,-1z" fill="#933b1b" stroke="none" stroke-width="0.5" stroke-linecap="butt"/><path d="M298.7427,200.96914c0,-0.55229 0.44772,-1 1,-1c0.55228,0 1,0.44771 1,1c0,0.55229 -0.44772,1 -1,1c-0.55228,0 -1,-0.44771 -1,-1z" fill="#933b1b" stroke="none" stroke-width="0.5" stroke-linecap="butt"/><path d="M294.07,200.73551c0,-1 1,-1 1,-1h1.63545c0,0 1,0 1,1c0,1 -1,1 -1,1h-1.63545c0,0 -1,0 -1,-1z" fill="#933b1b" stroke="none" stroke-width="0.5" stroke-linecap="butt"/><path d="M285.89277,200.73551c0,-0.55229 0.44772,-1 1,-1c0.55228,0 1,0.44771 1,1c0,0.55229 -0.44772,1 -1,1c-0.55228,0 -1,-0.44771 -1,-1z" fill="#933b1b" stroke="none" stroke-width="0.5" stroke-linecap="butt"/><path d="M273.04285,200.96914c0,-0.55229 0.44772,-1 1,-1c0.55228,0 1,0.44771 1,1c0,0.55229 -0.44772,1 -1,1c-0.55228,0 -1,-0.44771 -1,-1z" fill="#933b1b" stroke="none" stroke-width="0.5" stroke-linecap="butt"/><path d="M262.99654,201.67005c0,-0.55229 0.44772,-1 1,-1c0.55228,0 1,0.44771 1,1c0,0.55229 -0.44772,1 -1,1c-0.55228,0 -1,-0.44771 -1,-1z" fill="#933b1b" stroke="none" stroke-width="0.5" stroke-linecap="butt"/><path d="M253.65119,201.67005c0,-0.55229 0.44771,-1 1,-1c0.55229,0 1,0.44771 1,1c0,0.55229 -0.44771,1 -1,1c-0.55229,0 -1,-0.44771 -1,-1z" fill="#933b1b" stroke="none" stroke-width="0.5" stroke-linecap="butt"/><path d="M244.77306,201.67005c0,-0.55229 0.44771,-1 1,-1c0.55229,0 1,0.44771 1,1c0,0.55229 -0.44771,1 -1,1c-0.55229,0 -1,-0.44771 -1,-1z" fill="#933b1b" stroke="none" stroke-width="0.5" stroke-linecap="butt"/><path d="M239.63309,200.50187c0,-0.55229 0.44771,-1 1,-1c0.55229,0 1,0.44771 1,1c0,0.55229 -0.44771,1 -1,1c-0.55229,0 -1,-0.44771 -1,-1z" fill="#933b1b" stroke="none" stroke-width="0.5" stroke-linecap="butt"/><path d="M234.49308,200.50187c0,-0.55229 0.44771,-1 1,-1c0.42666,0 0.79091,0.2672 0.93454,0.64338c0.14363,-0.37618 0.50788,-0.64338 0.93454,-0.64338c0.55229,0 1,0.44771 1,1c0,0.55229 -0.44771,1 -1,1c-0.42666,0 -0.79091,-0.2672 -0.93454,-0.64338c-0.14363,0.37618 -0.50788,0.64338 -0.93454,0.64338c-0.55229,0 -1,-0.44771 -1,-1z" fill="#933b1b" stroke="none" stroke-width="0.5" stroke-linecap="butt"/><path d="M242.70305,200.26824c0,-0.27614 0.22386,-0.5 0.5,-0.5c0.27614,0 0.5,0.22386 0.5,0.5c0,0.27614 -0.22386,0.5 -0.5,0.5c-0.27614,0 -0.5,-0.22386 -0.5,-0.5z" fill="#7c3116" stroke="none" stroke-width="0.5" stroke-linecap="butt"/><path d="M247.14214,200.26824c0,-0.27614 0.22386,-0.5 0.5,-0.5c0.27614,0 0.5,0.22386 0.5,0.5c0,0.27614 -0.22386,0.5 -0.5,0.5c-0.27614,0 -0.5,-0.22386 -0.5,-0.5z" fill="#7c3116" stroke="none" stroke-width="0.5" stroke-linecap="butt"/><path d="M399.70578,199.56733c0,-0.27614 0.22386,-0.5 0.5,-0.5c0.27614,0 0.5,0.22386 0.5,0.5c0,0.27614 -0.22386,0.5 -0.5,0.5c-0.27614,0 -0.5,-0.22386 -0.5,-0.5z" fill="#7c3116" stroke="none" stroke-width="0.5" stroke-linecap="butt"/><path d="M395.03309,200.26824c0,-0.27614 0.22386,-0.5 0.5,-0.5c0.27614,0 0.5,0.22386 0.5,0.5c0,0.27614 -0.22386,0.5 -0.5,0.5c-0.27614,0 -0.5,-0.22386 -0.5,-0.5z" fill="#7c3116" stroke="none" stroke-width="0.5" stroke-linecap="butt"/><path d="M242.93667,203.07186c0,-0.27614 0.22386,-0.5 0.5,-0.5c0.27614,0 0.5,0.22386 0.5,0.5c0,0.27614 -0.22386,0.5 -0.5,0.5c-0.27614,0 -0.5,-0.22386 -0.5,-0.5z" fill="#933b1b" stroke="none" stroke-width="0.5" stroke-linecap="butt"/><path d="M252.04843,204.24003c0,-0.27614 0.22386,-0.5 0.5,-0.5c0.27614,0 0.5,0.22386 0.5,0.5c0,0.27614 -0.22386,0.5 -0.5,0.5c-0.27614,0 -0.5,-0.22386 -0.5,-0.5z" fill="#933b1b" stroke="none" stroke-width="0.5" stroke-linecap="butt"/><path d="M272.6083,207.51092c0,-0.27614 0.22386,-0.5 0.5,-0.5c0.27614,0 0.5,0.22386 0.5,0.5c0,0.27614 -0.22386,0.5 -0.5,0.5c-0.27614,0 -0.5,-0.22386 -0.5,-0.5z" fill="#933b1b" stroke="none" stroke-width="0.5" stroke-linecap="butt"/><path d="M292.23365,204.7073c0,-0.27614 0.22386,-0.5 0.5,-0.5c0.27614,0 0.5,0.22386 0.5,0.5c0,0.27614 -0.22386,0.5 -0.5,0.5c-0.27614,0 -0.5,-0.22386 -0.5,-0.5z" fill="#933b1b" stroke="none" stroke-width="0.5" stroke-linecap="butt"/><path d="M310.92445,202.13732c0,-0.27614 0.22386,-0.5 0.5,-0.5c0.27614,0 0.5,0.22386 0.5,0.5c0,0.27614 -0.22386,0.5 -0.5,0.5c-0.27614,0 -0.5,-0.22386 -0.5,-0.5z" fill="#933b1b" stroke="none" stroke-width="0.5" stroke-linecap="butt"/><path d="M330.31615,204.94094c0,-0.27614 0.22386,-0.5 0.5,-0.5c0.27614,0 0.5,0.22386 0.5,0.5c0,0.27614 -0.22386,0.5 -0.5,0.5c-0.27614,0 -0.5,-0.22386 -0.5,-0.5z" fill="#933b1b" stroke="none" stroke-width="0.5" stroke-linecap="butt"/><path d="M353.44606,205.64184c0,-0.27614 0.22386,-0.5 0.5,-0.5c0.27614,0 0.5,0.22386 0.5,0.5c0,0.27614 -0.22386,0.5 -0.5,0.5c-0.27614,0 -0.5,-0.22386 -0.5,-0.5z" fill="#933b1b" stroke="none" stroke-width="0.5" stroke-linecap="butt"/><path d="M368.16507,206.81002c0,-0.27614 0.22386,-0.5 0.5,-0.5c0.27614,0 0.5,0.22386 0.5,0.5c0,0.27614 -0.22386,0.5 -0.5,0.5c-0.27614,0 -0.5,-0.22386 -0.5,-0.5z" fill="#933b1b" stroke="none" stroke-width="0.5" stroke-linecap="butt"/><path d="M383.81859,206.10911c0,-0.27614 0.22386,-0.5 0.5,-0.5c0.27614,0 0.5,0.22386 0.5,0.5c0,0.27614 -0.22386,0.5 -0.5,0.5c-0.27614,0 -0.5,-0.22386 -0.5,-0.5z" fill="#933b1b" stroke="none" stroke-width="0.5" stroke-linecap="butt"/><path d="M397.36944,205.17457c0,-0.27614 0.22386,-0.5 0.5,-0.5c0.27614,0 0.5,0.22386 0.5,0.5c0,0.27614 -0.22386,0.5 -0.5,0.5c-0.27614,0 -0.5,-0.22386 -0.5,-0.5z" fill="#933b1b" stroke="none" stroke-width="0.5" stroke-linecap="butt"/><path d="M407.64938,204.47367c0,-0.27614 0.22386,-0.5 0.5,-0.5c0.27614,0 0.5,0.22386 0.5,0.5c0,0.27614 -0.22386,0.5 -0.5,0.5c-0.27614,0 -0.5,-0.22386 -0.5,-0.5z" fill="#933b1b" stroke="none" stroke-width="0.5" stroke-linecap="butt"/></g><g stroke-linecap="round"><path d="M298.57192,68.23247c-2.50352,-0.75106 -4.58732,-2.53442 -3.51482,-5.09648c1.0725,-2.56206 1.68379,-3.95868 6.67816,-2.46037c4.99437,1.49831 10.89593,7.7326 10.89593,7.7326c0,0 -11.55575,0.5753 -14.05927,-0.17575z" fill="#1859da" stroke="#000000" stroke-width="0"/><path d="M313.15843,68.23248l-5.79945,16.3439" fill="none" stroke="#000000" stroke-width="1"/><path d="M323.60947,68.43913c1.91238,0.57372 3.50414,1.93598 2.68489,3.89308c-0.81926,1.9571 -1.2862,3.02395 -5.10128,1.87942c-3.81509,-1.14452 -8.32315,-5.90675 -8.32315,-5.90675c0,0 8.82716,-0.43947 10.73954,0.13425z" fill="#1859da" stroke="#000000" stroke-width="0"/><path d="M269.04747,111.99195c0,0 0.18644,-38.48829 34.97243,-33.56651c47.47773,6.71751 22.31909,40.94763 22.31909,40.94763z" fill="#ac2121" stroke="#000000" stroke-width="0"/><path d="M332.19476,95.00039c3.80151,12.13117 -5.64164,24.19694 -5.64164,24.19694l-20.38594,-2.63611l12.14834,-34.50581c0,0 10.41036,1.87528 13.87924,12.94498z" fill="#161ccc" stroke="none" stroke-width="0"/><path d="M288.73046,79.65564c0,0 9.20764,-2.24392 13.93771,-1.76242c5.03391,0.51244 15.82309,4.06322 15.82309,4.06322l-12.5382,35.132l-32.33632,-8.43556l15.11371,-28.99724z" fill="#d6b318" stroke="none" stroke-width="0"/></g><path d="M214.52368,306.61252v-267.72501h213.18203v267.72501z" fill="none" stroke="none" stroke-width="0" stroke-linecap="butt"/><path d="" fill="none" stroke="#000000" stroke-width="0" stroke-linecap="round"/><path d="M254.46102,117.61566c0,0 4.19243,-12.74201 11.95038,-11.95038c7.75794,0.79162 16.87196,7.04441 29.87595,9.91221c13.00399,2.8678 16.3439,0.28076 16.3439,0.28076" fill="#063000" stroke="#000000" stroke-width="0" stroke-linecap="round"/><path d="M254.63672,116.9127c0,0 4.01669,-12.03904 11.77464,-11.24742c7.75794,0.79162 17.28404,8.00592 30.28803,10.87372c13.00399,2.8678 15.93182,-0.68075 15.93182,-0.68075" fill="none" stroke="#000000" stroke-width="0" stroke-linecap="round"/><g stroke="#000000" stroke-width="0" stroke-linecap="butt"><path d="M252.00902,199.30395v-82.38044h82.38044v82.38044z" fill="#c7c1b5"/><path d="M256.34484,189.00639v-67.74707h73.43782v67.74707z" fill="#ff0000"/></g><g fill="none" stroke-opacity="0.3451" stroke="#000000" stroke-width="1" stroke-linecap="round"><path d="M256.56985,185.21386h72.40524"/><path d="M256.56985,177.65701h72.75671"/><path d="M256.56987,170.80311h72.40524"/><path d="M329.32656,163.24626h-72.75671"/><path d="M256.56985,156.39236h72.40524"/><path d="M256.56985,148.83551h72.75671"/><path d="M256.56988,141.98161h72.40524"/><path d="M329.32656,134.42476h-72.75671"/><path d="M256.56985,126.51642h72.75671"/></g><g><path d="M336.55741,199.03296v-98.63974h55.28161v98.63974z" fill="#c7c1b5" stroke="#000000" stroke-width="0" stroke-linecap="butt"/><path d="M341.16414,147.81617v-35.49946h46.339v35.49947z" fill="#b6ad9c" stroke="none" stroke-width="0" stroke-linecap="butt"/><path d="M343.60311,125.59513v-8.67162h42.00319v8.67162z" fill="#857f72" stroke="none" stroke-width="0" stroke-linecap="butt"/><path d="M343.60311,137.78961v-8.67163h42.00319v8.67163z" fill="#857f72" stroke="none" stroke-width="0" stroke-linecap="butt"/><path d="M345.56299,144.02234c0,-0.41422 0.33578,-0.75 0.75,-0.75c0.41422,0 0.75,0.33578 0.75,0.75c0,0.41422 -0.33578,0.75 -0.75,0.75c-0.41422,0 -0.75,-0.33578 -0.75,-0.75z" fill="#000000" stroke="none" stroke-width="0" stroke-linecap="butt"/><path d="M349.29387,143.75134h5.96174" fill="none" stroke="#000000" stroke-width="1" stroke-linecap="round"/></g><path d="M267.99303,105.84102l44.2867,9.66575c0,0 -4.07606,2.72897 -7.02963,2.81185c-8.86197,0.24865 -37.25706,-12.4776 -37.25706,-12.4776z" fill="#249d2e" stroke="#000000" stroke-width="0" stroke-linecap="round"/><path d="M305.63843,140.52524c-0.17722,-0.17633 -0.00089,-0.35355 -0.00089,-0.35355c0.28263,-0.28406 0.71014,-0.71373 1.05031,-1.05562c-0.96316,-1.76287 -2.3997,-3.19904 -4.34725,-4.24741c-2.00853,-1.08662 -4.58784,-0.7298 -7.01878,-0.29165c1.92971,0.50195 3.69145,1.55127 5.58763,2.70499c3.2985,2.00695 6.06376,4.1205 5.02799,8.40355c-0.85863,3.49726 -1.82156,6.72099 -3.60718,9.87265c-0.32773,0.57756 -0.68988,1.11482 -1.08362,1.61361c2.25928,-0.71777 4.64344,-1.74751 5.41992,-3.63156c-0.50077,-0.09022 -0.99056,-0.14058 -1.46151,-0.13806c0,0 -0.25,0 -0.25,-0.25c0,-0.25 0.25,-0.25 0.25,-0.25c0.52282,0.00242 1.0646,0.06394 1.61663,0.16922c0.92378,-3.44125 1.1918,-6.6103 1.14064,-10.2024c-0.20642,-1.18582 -0.54898,-2.28448 -1.03395,-3.28577c-0.23693,0.23813 -0.47387,0.47627 -0.7108,0.7144l-0.22557,0.22671c0,0 -0.17633,0.17722 -0.35355,0.00089zM314.19538,131.31806c1.36362,-1.43297 3.12503,-3.23194 3.99197,-5.01294c0.22687,-0.46606 1.70794,-3.02968 0.87032,-2.60948c-3.30658,1.08856 -6.79848,1.7762 -10.04589,2.99174c-2.85209,1.06757 -5.67011,1.88486 -8.62388,2.62331c0,0 -0.24254,0.06063 -0.30317,-0.1819c-0.06063,-0.24254 0.1819,-0.30317 0.1819,-0.30317c2.93598,-0.734 5.73504,-1.5454 8.56987,-2.60651c3.25401,-1.21801 6.75172,-1.90769 10.06481,-2.99839c1.87658,-0.45764 0.55963,1.61713 0.17434,2.4055c-1.08308,2.21618 -2.81617,4.24808 -4.51806,6.03652c-2.40609,2.52846 -4.7959,5.07188 -7.25727,7.54665c0.55159,1.09585 0.93615,2.3049 1.15981,3.61305c0.0628,3.64069 -0.21647,6.86523 -1.1487,10.35289c2.2424,0.52189 4.60897,1.67916 6.53094,2.47248c2.16668,0.89433 4.18112,2.08553 6.2681,3.14897l0.44072,0.22459c0.0836,0.04045 0.14126,0.12608 0.14126,0.22518c0,0.13787 -0.11161,0.24968 -0.24941,0.25c-0.00003,0 -0.00005,0 -0.00008,0l-0.49992,0.00119l-0.00004,-0.01716c-3.01429,0.64821 -6.43928,0.6248 -9.4696,0.62744c-0.68681,0.0006 -1.32593,0.16968 -1.79242,-0.32092c-0.15495,-0.16296 0.23337,0.38444 0.35098,0.57611c0.34764,0.56655 0.67174,1.1482 1.02538,1.711c0.97923,1.55838 2.00802,3.06786 2.93153,4.66177c0.13657,0.23662 0.82073,1.40222 0.57165,1.66117c-0.39315,0.40873 -1.75792,-0.63967 -2.09045,-0.83511c-2.01213,-1.18266 -4.03036,-2.3556 -6.03223,-3.55555c-2.33268,-1.39825 -4.61825,-2.79235 -6.83956,-4.33748c-1.34673,0.946 -2.87749,1.64554 -4.53854,2.13354c-2.41011,0.70807 -5.28283,1.82791 -7.98046,1.83874c-0.57459,0.2491 -1.16293,0.47336 -1.73388,0.69147c-1.22701,2.44426 -2.43321,4.83292 -3.4151,7.40675c-1.25509,3.28998 -2.18373,6.61864 -3.34971,9.92695c-0.16581,0.47045 -0.32388,0.94309 -0.48211,1.41613l-0.00847,0.02534c0,0 -0.0793,0.23709 -0.31639,0.15778c-0.23709,-0.0793 -0.15778,-0.31639 -0.15778,-0.31639l0.00847,-0.02534c0.15908,-0.47558 0.31803,-0.95074 0.48472,-1.42372c1.16724,-3.31189 2.09762,-6.6453 3.35412,-9.93897c0.9218,-2.41633 2.04116,-4.67206 3.18917,-6.9614c-0.05974,0.02343 -0.11913,0.04687 -0.17812,0.07035c-2.50774,0.99834 -6.38749,2.76238 -9.23919,2.2701l-0.00677,0.06202l-0.49409,-0.05392c-0.12673,-0.01216 -0.22583,-0.11893 -0.22583,-0.24885c0,-0.08846 0.04595,-0.16619 0.11528,-0.21063l0.41364,-0.27383c1.06783,-0.7069 3.484,-2.67786 5.37116,-3.62402c-0.78196,0.15649 -1.56402,0.31246 -2.34599,0.46889c-1.94031,0.38812 -3.94653,0.69236 -5.84707,1.2423c-0.32549,0.09418 -1.86655,0.73283 -2.12928,0.54171c-0.63545,-0.46226 0.18975,-2.25934 0.42267,-2.70781c1.09972,-1.98374 4.69722,-5.19677 4.6553,-7.45967c0,0 0,-0.25 0.25,-0.25c0.03704,0 0.0686,0.00549 0.09548,0.01484c-0.06235,-2.17741 0.66618,-4.38483 1.50817,-6.39711c0.00804,-0.35976 0.02571,-0.71655 0.05265,-1.069c0.31517,-4.12201 2.11331,-6.18357 4.95713,-9.01608c3.20151,-1.74394 6.37017,-2.7572 9.943,-3.49031c1.07033,-0.21738 2.05946,-0.25098 2.99756,-0.14501c2.87972,-0.50352 6.10504,-1.23743 8.60955,0.10456c1.98639,1.06927 3.46888,2.5314 4.47664,4.31929c2.42056,-2.43777 4.77293,-4.94098 7.14114,-7.42963zM288.59387,162.18837l-0.10703,0.08565c-0.38474,0.30602 -0.81178,0.57513 -1.26309,0.81815c2.30872,-0.25518 4.70558,-1.18487 6.69507,-1.76937c1.54674,-0.45442 2.97762,-1.09616 4.24454,-1.95892c-0.19376,-0.13708 -0.38701,-0.27539 -0.57975,-0.41505c-2.80011,1.39848 -5.81764,2.96073 -8.89784,2.9873c0.04042,0.14635 -0.09189,0.25223 -0.09189,0.25223zM269.94942,162.37241c-0.12581,0.24229 -0.85503,1.87527 -0.57151,2.06557c0.50008,0.33564 1.11996,-0.44884 1.69857,-0.61603c1.9145,-0.55319 3.93355,-0.86132 5.88788,-1.25226c1.04852,-0.20974 2.09691,-0.42019 3.14556,-0.62929c-2.08853,-0.97947 -3.92824,-2.32388 -4.92283,-4.48276c-0.31528,-0.69566 -0.50894,-1.40619 -0.60562,-2.12339c-0.53719,2.357 -3.53835,5.05586 -4.63205,7.03817zM281.42171,161.75731c0.00445,-0.00024 0.00893,-0.00035 0.01343,-0.00035c0.04681,0 0.09062,0.01287 0.12808,0.03525c-1.41597,-1.54061 -2.75144,-3.57623 -3.33705,-4.54738c-1.39354,-2.32149 -2.07823,-5.14567 -2.19525,-7.89343c-0.96077,2.54076 -1.58108,5.35988 -0.38971,7.89702c1.04059,2.25874 3.0772,3.57713 5.3241,4.53017zM281.68514,162.00695c0,0.02067 -0.00251,0.04075 -0.00723,0.05995c0.07618,0.02947 0.15251,0.05859 0.22895,0.0874c-0.08275,-0.08427 -0.16542,-0.17063 -0.24786,-0.25879c0.01673,0.03355 0.02615,0.07139 0.02615,0.11143zM281.13064,162.47575l-0.01562,-0.02659c-1.80788,1.53909 -4.22461,2.58455 -6.25926,3.83707c2.50965,-0.90024 5.89283,-1.06908 8.43353,-2.08055c0.22598,-0.08996 0.45879,-0.1792 0.69581,-0.2692c0.0383,-0.07639 0.07661,-0.15284 0.11494,-0.22935c-0.3834,-0.10636 -0.7971,-0.34612 -1.22241,-0.67575c-0.55463,-0.18966 -1.10965,-0.39037 -1.6554,-0.60943zM297.57691,158.08492c0.17234,-0.00455 0.22897,0.11288 0.24752,0.18622c0.15443,-0.07629 0.30817,-0.1517 0.4612,-0.22591c0.60501,-0.18839 1.32437,-0.38317 2.08593,-0.60692c0.56892,-0.63426 1.07944,-1.34128 1.52366,-2.12659c1.76314,-3.11198 2.70882,-6.29222 3.55663,-9.74539c1.01159,-4.05154 -1.70593,-5.97321 -4.8023,-7.85718c-2.23791,-1.36164 -4.27828,-2.60254 -6.66382,-2.88803c-0.62615,0.11222 -1.23229,0.21223 -1.80483,0.27432c-3.25498,0.34571 -6.84889,2.13882 -9.5322,3.9093c-3.03407,1.99 -4.39229,5.18522 -5.79529,8.36333c-0.1126,0.25505 -0.22585,0.51516 -0.33789,0.77962c-0.05436,3.01726 0.57974,6.26619 2.13882,8.83895c1.13689,1.88538 2.59331,3.32939 4.11541,4.91493c0.21478,0.22373 0.44095,0.53144 0.68889,0.79826c0.12097,0.04023 0.24173,0.08002 0.36217,0.11946c0.68041,0.22796 1.39701,0.32915 2.13268,0.33878c0.77895,-0.34017 1.52675,-0.73037 2.15346,-1.22087c-0.99526,0.00119 -1.99053,0.00109 -2.98579,0.00111l-0.34184,0c0,0 -0.25,0 -0.25,-0.25c0,-0.25 0.25,-0.25 0.25,-0.25l0.34184,0c1.16653,-0.00001 2.33305,0.00012 3.49958,-0.00184c3.0275,-0.00508 5.99055,-1.56264 8.74713,-2.93846l-0.03429,-0.15657c0,0 -0.0066,-0.24991 0.24331,-0.25651zM305.69493,163.57761c1.71477,1.02786 3.44286,2.03358 5.16641,3.04663c0.57473,0.33781 1.15035,0.67416 1.72422,1.01344c0.21172,0.12517 0.75622,0.61783 0.60271,0.42566c-0.27106,-0.33932 -0.4072,-0.6903 -0.63201,-1.07671c-1.08727,-1.87655 -2.32497,-3.6497 -3.43909,-5.50865c-0.23578,-0.39341 -1.31782,-1.68317 -0.65758,-2.1392c0.55713,-0.38481 1.33628,0.26982 2.01339,0.26923c2.34684,-0.00204 4.62008,-0.16848 6.95446,-0.40565c0.50715,-0.05153 1.26867,-0.24775 1.9135,-0.23998c-1.88363,-0.98249 -3.72349,-2.04096 -5.68932,-2.85239c-1.88401,-0.77765 -4.26637,-1.96432 -6.48756,-2.4682c-0.89449,2.32286 -3.90132,3.44309 -6.51056,4.22699c-0.50206,0.54758 -1.04653,1.04242 -1.62868,1.48758c2.1677,1.49987 4.39634,2.85831 6.67012,4.22125zM284.72353,163.54343c-0.00421,0.05661 -0.0222,0.09891 -0.04672,0.13052c0.08656,-0.03311 0.17333,-0.06649 0.26019,-0.10022c-0.07136,-0.00912 -0.14252,-0.01921 -0.21347,-0.0303zM299.66971,158.157c-0.42589,0.12294 -0.83026,0.23918 -1.20015,0.35318c-0.12623,0.06166 -0.25295,0.12405 -0.38014,0.187c0.16816,0.12076 0.3367,0.24052 0.50563,0.35936c0.37442,-0.27864 0.7331,-0.57816 1.07466,-0.89954zM287.58746,135.81718c-2.14908,0.63137 -4.18841,1.44284 -6.26094,2.54269c-2.65491,2.70261 -4.36478,4.56245 -4.73197,8.35685c1.38173,-3.12176 2.81034,-6.16015 5.77878,-8.12932c1.52944,-1.00914 3.33723,-2.01331 5.21413,-2.77022z" fill="#ffffff" stroke="none" stroke-width="0.5" stroke-linecap="butt"/><path d="M300.65774,182.66756c-0.24868,0.02562 -0.2743,-0.22306 -0.2743,-0.22306l-0.02323,-0.22549c-0.24284,-2.80265 -3.0788,-6.84662 -4.42739,-9.36693c-1.42956,-2.67774 -2.33462,-5.41117 -4.04483,-7.97648c0,0 -0.13868,-0.20801 0.06934,-0.34669c0.20801,-0.13868 0.34669,0.06934 0.34669,0.06934c1.71875,2.57812 2.62835,5.33089 4.06966,8.01794c1.42086,2.65537 4.14114,6.59565 4.4839,9.55159l0.02323,0.22549c0,0 0.02562,0.24868 -0.22306,0.2743z" fill="#ffffff" stroke="none" stroke-width="0.5" stroke-linecap="butt"/><path d="M284.07655,133.7739c-0.13283,0.21179 -0.34462,0.07897 -0.34462,0.07897l-0.17343,-0.10877c-2.96748,-1.86108 -5.71393,-4.06699 -8.51876,-6.16414c-1.86874,-1.39724 -3.73747,-2.79447 -5.60621,-4.19171c-0.46213,-0.34553 -1.25833,-0.76298 -1.74278,-1.25584c0.22493,0.67551 0.44987,1.35103 0.6748,2.02654c1.10574,3.32074 2.21148,6.64149 3.31722,9.96223c0.94581,2.84043 2.08427,5.68018 2.67157,8.6167c0,0 0.04903,0.24515 -0.19612,0.29417c-0.24515,0.04903 -0.29417,-0.19612 -0.29417,-0.19612c-0.58316,-2.9158 -1.71651,-5.73632 -2.65567,-8.5568c-1.10574,-3.32074 -2.21148,-6.64149 -3.31722,-9.96223c-0.26327,-0.79065 -0.52654,-1.58131 -0.78982,-2.37196l-0.15612,-0.46886c-0.00948,-0.0264 -0.01465,-0.05486 -0.01465,-0.08452c0,-0.13807 0.11193,-0.25 0.25,-0.25c0.05707,0 0.10967,0.01912 0.15175,0.05131l0.3984,0.29788l-0.01528,0.02043c2.70338,1.38355 5.23494,3.88226 7.6237,5.66832c2.79383,2.08892 5.5292,4.28723 8.48501,6.14099l0.17343,0.10877c0,0 0.21179,0.13283 0.07897,0.34462z" fill="#ffffff" stroke="none" stroke-width="0.5" stroke-linecap="butt"/></g></g></svg>