<svg version="1.1" xmlns="http://www.w3.org/2000/svg" xmlns:xlink="http://www.w3.org/1999/xlink" width="34.17311" height="34.17311" viewBox="0,0,34.17311,34.17311"><g transform="translate(-302.91345,-162.91346)"><g stroke-miterlimit="10"><path d="M309.98312,162.91347h20.03379c3.9166,0 7.06966,3.15307 7.06966,7.06966v20.03379c0,3.91659 -3.15306,7.06966 -7.06966,7.06966h-20.03379c-3.91659,0 -7.06966,-3.15307 -7.06966,-7.06966v-20.03379c0,-3.91659 3.15307,-7.06966 7.06966,-7.06966z" fill="#cacaca" fill-rule="evenodd" stroke="none" stroke-width="4.43922" stroke-linecap="round" stroke-linejoin="round"/><g fill-rule="nonzero" stroke-width="3.5" stroke-linejoin="miter"><path d="M319.9912,179.44835l4.43444,0.43797c0,0 2.76146,-0.50131 4.10596,0.38322c1.34449,0.88453 0.87594,1.64239 0.87594,1.64239c0,0 1.11095,-0.16062 2.18984,0.32847c1.07889,0.48909 1.09492,2.24459 1.09492,2.24459c0,0 1.7113,0.24113 1.64238,0.98543c-0.05619,0.60684 -1.2945,1.53428 -1.74995,1.85613c-4.24746,-0.01472 -8.49507,0.00644 -12.74267,0.02581z" fill="#cacaca" stroke="#000000" stroke-linecap="butt"/><path d="M305.66532,185.47042c-0.06892,-0.7443 1.64238,-0.98543 1.64238,-0.98543c0,0 0.01603,-1.75549 1.09492,-2.24459c1.07889,-0.48909 2.18984,-0.32847 2.18984,-0.32847c0,0 -0.46855,-0.75785 0.87594,-1.64239c1.34449,-0.88453 4.10596,-0.38322 4.10596,-0.38322l4.43444,-0.43797l0.14911,7.90257c-4.22735,0.01934 -8.45467,0.03782 -12.6818,0.0183c-0.39267,-0.27328 -1.75186,-1.26235 -1.81079,-1.8988z" fill="#cacaca" stroke="#000000" stroke-linecap="butt"/><path d="M332.25663,180.69766c0,2.74364 -2.07682,5.16771 -5.25122,6.62703c-4.6326,0.01034 -9.2653,0.04374 -13.89786,0.05131c-3.238,-1.45341 -5.36417,-3.90228 -5.36417,-6.67834c0,-4.4598 5.48748,-8.07518 12.25662,-8.07518c6.76914,0 12.25662,3.61538 12.25662,8.07518z" fill="#cacaca" stroke="#000000" stroke-linecap="butt"/><path d="M311.75331,185.87604c0,-3.36135 2.20914,-4.99396 5.4013,-6.05801c0.86167,-0.28723 1.94284,0.4004 2.90945,0.4004c4.54753,0 8.15731,1.38891 8.15731,5.65761c0,0.49445 -0.04946,0.97805 -0.14399,1.44669c-5.38959,0.00755 -10.77932,0.05142 -16.16885,0.05462c-0.10185,-0.48565 -0.15522,-0.98763 -0.15522,-1.50131z" fill="#cacaca" stroke="#000000" stroke-linecap="butt"/><g stroke="#000000"><path d="M306.76689,186.83324c-0.50479,-0.41463 -1.06423,-0.95952 -1.10157,-1.36282c-0.06892,-0.7443 1.64238,-0.98543 1.64238,-0.98543c0,0 -0.42685,-2.16885 0.65204,-2.65794c1.07889,-0.48909 2.27842,-0.18085 2.27842,-0.18085c0,0 0.59436,-1.64361 1.93886,-2.52815c0.68763,-0.45238 1.70043,-0.57133 2.3817,-0.37762c0.6508,0.18505 0.98613,0.67348 0.98613,0.67348c0,0 0.12856,-0.72626 0.48757,-0.9063c0.35902,-0.18003 1.02501,0.1478 1.02501,0.1478c0,0 0.62344,-1.01936 1.25668,-1.0266c0.63324,-0.00725 1.69469,0.99283 1.69469,0.99283" fill="#d8fdff" stroke-linecap="round"/><path d="M319.9912,178.62163c0,0 1.06145,-1.00008 1.69469,-0.99283c0.63324,0.00725 1.25669,1.0266 1.25669,1.0266c0,0 0.66599,-0.32783 1.02501,-0.1478c0.35902,0.18003 0.48757,0.9063 0.48757,0.9063c0,0 0.33533,-0.48844 0.98613,-0.67348c0.68126,-0.19371 1.69407,-0.07477 2.3817,0.37762c1.34449,0.88453 1.93886,2.52815 1.93886,2.52815c0,0 1.19953,-0.30824 2.27842,0.18085c1.07889,0.48909 0.65204,2.65794 0.65204,2.65794c0,0 1.7113,0.24113 1.64238,0.98543c-0.03734,0.4033 -0.59679,0.94819 -1.10157,1.36282" fill="#d8fdff" stroke-linecap="round"/><path d="M308.80474,186.48057c0,0 0.55906,-2.55136 1.4043,-3.59928c1.04221,-1.29212 6.56934,-3.69053 6.56934,-3.69053c0,0 2.60977,-0.45963 3.39754,-0.54057c0.45008,-0.04624 0.91319,0.09769 0.91319,0.09769c0,0 6.80231,3.602 8.21121,4.95328c1.20731,1.15794 2.53158,2.81776 2.53158,2.81776c0,0 -8.63222,-0.62586 -11.51046,-0.62586c-3.01104,0 -9.33008,0.47241 -9.33008,0.47241z" fill="#d8fdff" stroke-linecap="butt"/><path d="M308.75222,186.48636c0,0 7.65005,-0.58858 11.50831,-0.57587c3.9031,0.01286 11.77736,0.65259 11.77736,0.65259" fill="none" stroke-linecap="round"/></g><path d="M320.92827,174.66138c0,0.83164 -0.37674,1.5058 -0.84148,1.5058c-0.46474,0 -0.84148,-0.67417 -0.84148,-1.5058c0,-0.83164 0.84148,-1.50581 0.84148,-1.50581c0,0 0.84148,0.67418 0.84148,1.50581z" fill="#d8fdff" stroke="none" stroke-linecap="butt"/><path d="M317.86728,174.18305c-0.78125,0.28508 -1.54371,0.16225 -1.70302,-0.27433c-0.0811,-0.22227 0.00976,-0.48301 0.22162,-0.72306c0.13074,-0.14813 1.22133,-0.32192 1.94703,-0.36407c0.40814,-0.02371 0.6605,0.05479 0.6605,0.05479c0,0 -0.34488,1.02159 -1.12613,1.30667z" fill="#d8fdff" stroke="none" stroke-linecap="butt"/><path d="M321.00659,172.87638c0,0 0.25235,-0.07849 0.6605,-0.05479c0.72569,0.04215 1.81629,0.21593 1.94703,0.36407c0.21186,0.24005 0.30272,0.50079 0.22162,0.72306c-0.15931,0.43658 -0.92177,0.5594 -1.70302,0.27433c-0.78125,-0.28508 -1.12613,-1.30667 -1.12613,-1.30667z" fill="#d8fdff" stroke="none" stroke-linecap="butt"/></g><path d="" fill="none" fill-rule="nonzero" stroke="#000000" stroke-width="2" stroke-linecap="round" stroke-linejoin="miter"/><g fill="none" fill-rule="nonzero" stroke="none" stroke-width="1" stroke-linecap="butt" stroke-linejoin="miter" font-family="sans-serif" font-weight="normal" font-size="12" text-anchor="start"/><g fill-rule="nonzero" stroke-width="0" stroke-linejoin="miter"><path d="M319.9912,179.44835l4.43444,0.43797c0,0 2.76146,-0.50131 4.10596,0.38322c1.34449,0.88453 0.87594,1.64239 0.87594,1.64239c0,0 1.11095,-0.16062 2.18984,0.32847c1.07889,0.48909 1.09492,2.24459 1.09492,2.24459c0,0 1.7113,0.24113 1.64238,0.98543c-0.05619,0.60684 -1.2945,1.53428 -1.74995,1.85613c-4.24746,-0.01472 -8.49507,0.00644 -12.74267,0.02581z" fill="#cacaca" stroke="#000000" stroke-linecap="butt"/><path d="M305.66532,185.47042c-0.06892,-0.7443 1.64238,-0.98543 1.64238,-0.98543c0,0 0.01603,-1.75549 1.09492,-2.24459c1.07889,-0.48909 2.18984,-0.32847 2.18984,-0.32847c0,0 -0.46855,-0.75785 0.87594,-1.64239c1.34449,-0.88453 4.10596,-0.38322 4.10596,-0.38322l4.43444,-0.43797l0.14911,7.90257c-4.22735,0.01934 -8.45467,0.03782 -12.6818,0.0183c-0.39267,-0.27328 -1.75186,-1.26235 -1.81079,-1.8988z" fill="#cacaca" stroke="#000000" stroke-linecap="butt"/><path d="M332.25663,180.69766c0,2.74364 -2.07682,5.16771 -5.25122,6.62703c-4.6326,0.01034 -9.2653,0.04374 -13.89786,0.05131c-3.238,-1.45341 -5.36417,-3.90228 -5.36417,-6.67834c0,-4.4598 5.48748,-8.07518 12.25662,-8.07518c6.76914,0 12.25662,3.61538 12.25662,8.07518z" fill="#c8c8c8" stroke="#000000" stroke-linecap="butt"/><path d="M311.75331,185.87604c0,-3.36135 2.20914,-4.99396 5.4013,-6.05801c0.86167,-0.28723 1.94284,0.4004 2.90945,0.4004c4.54753,0 8.15731,1.38891 8.15731,5.65761c0,0.49445 -0.04946,0.97805 -0.14399,1.44669c-5.38959,0.00755 -10.77932,0.05142 -16.16885,0.05462c-0.10185,-0.48565 -0.15522,-0.98763 -0.15522,-1.50131z" fill="#cacaca" stroke="#000000" stroke-linecap="butt"/><g fill="#ffffff" stroke="#000000"><path d="M306.76689,186.83324c-0.50479,-0.41463 -1.06423,-0.95952 -1.10157,-1.36282c-0.06892,-0.7443 1.64238,-0.98543 1.64238,-0.98543c0,0 -0.42685,-2.16885 0.65204,-2.65794c1.07889,-0.48909 2.27842,-0.18085 2.27842,-0.18085c0,0 0.59436,-1.64361 1.93886,-2.52815c0.68763,-0.45238 1.70043,-0.57133 2.3817,-0.37762c0.6508,0.18505 0.98613,0.67348 0.98613,0.67348c0,0 0.12856,-0.72626 0.48757,-0.9063c0.35902,-0.18003 1.02501,0.1478 1.02501,0.1478c0,0 0.62344,-1.01936 1.25668,-1.0266c0.63324,-0.00725 1.69469,0.99283 1.69469,0.99283" stroke-linecap="round"/><path d="M319.9912,178.62163c0,0 1.06145,-1.00008 1.69469,-0.99283c0.63324,0.00725 1.25669,1.0266 1.25669,1.0266c0,0 0.66599,-0.32783 1.02501,-0.1478c0.35902,0.18003 0.48757,0.9063 0.48757,0.9063c0,0 0.33533,-0.48844 0.98613,-0.67348c0.68126,-0.19371 1.69407,-0.07477 2.3817,0.37762c1.34449,0.88453 1.93886,2.52815 1.93886,2.52815c0,0 1.19953,-0.30824 2.27842,0.18085c1.07889,0.48909 0.65204,2.65794 0.65204,2.65794c0,0 1.7113,0.24113 1.64238,0.98543c-0.03734,0.4033 -0.59679,0.94819 -1.10157,1.36282" stroke-linecap="round"/><path d="M306.57397,186.63442c0,0 2.78983,-2.70521 3.63507,-3.75313c1.04221,-1.29212 6.56934,-3.69053 6.56934,-3.69053c0,0 2.60977,-0.45963 3.39754,-0.54057c0.45008,-0.04624 0.91319,0.09769 0.91319,0.09769c0,0 6.80231,3.602 8.21121,4.95328c1.20731,1.15794 3.68543,2.74084 3.68543,2.74084c0,0 -9.78607,-0.54894 -12.66431,-0.54894c-3.01104,0 -9.33008,0.47241 -9.33008,0.47241z" stroke-linecap="butt"/></g><path d="M320.92827,174.66138c0,0.83164 -0.37674,1.5058 -0.84148,1.5058c-0.46474,0 -0.84148,-0.67417 -0.84148,-1.5058c0,-0.83164 0.84148,-1.50581 0.84148,-1.50581c0,0 0.84148,0.67418 0.84148,1.50581z" fill="#ffffff" stroke="none" stroke-linecap="butt"/><path d="M317.86728,174.18305c-0.78125,0.28508 -1.54371,0.16225 -1.70302,-0.27433c-0.0811,-0.22227 0.00976,-0.48301 0.22162,-0.72306c0.13074,-0.14813 1.22133,-0.32192 1.94703,-0.36407c0.40814,-0.02371 0.6605,0.05479 0.6605,0.05479c0,0 -0.34488,1.02159 -1.12613,1.30667z" fill="#ffffff" stroke="none" stroke-linecap="butt"/><path d="M321.00659,172.87638c0,0 0.25235,-0.07849 0.6605,-0.05479c0.72569,0.04215 1.81629,0.21593 1.94703,0.36407c0.21186,0.24005 0.30272,0.50079 0.22162,0.72306c-0.15931,0.43658 -0.92177,0.5594 -1.70302,0.27433c-0.78125,-0.28508 -1.12613,-1.30667 -1.12613,-1.30667z" fill="#ffffff" stroke="none" stroke-linecap="butt"/></g><path d="M303.87027,189.62649v-2.42857c0,0 13.70785,0 19.58571,0c4.81237,0 13.12857,0 13.12857,0v2.42857z" fill="#cacaca" fill-rule="nonzero" stroke="none" stroke-width="0" stroke-linecap="butt" stroke-linejoin="miter"/></g></g></svg>