<svg version="1.1" xmlns="http://www.w3.org/2000/svg" xmlns:xlink="http://www.w3.org/1999/xlink" width="271.3724" height="280.18477" viewBox="0,0,271.3724,280.18477"><defs><linearGradient x1="227.76082" y1="157.36789" x2="210.41029" y2="192.07549" gradientUnits="userSpaceOnUse" id="color-1"><stop offset="0" stop-color="#ffffff"/><stop offset="1" stop-color="#ececec"/></linearGradient><linearGradient x1="281.27774" y1="168.82865" x2="263.19639" y2="204.99815" gradientUnits="userSpaceOnUse" id="color-2"><stop offset="0" stop-color="#ffffff"/><stop offset="1" stop-color="#ececec"/></linearGradient></defs><g transform="translate(-170.04341,-38.88751)"><g stroke-miterlimit="10"><g stroke="#000000"><g fill="#000000" stroke-width="0" stroke-linecap="butt"><path d="M286.35186,319.07226c0,0 -50.38792,-86.42315 -56.34414,-107.71322c-2.54848,-9.10935 21.07045,-18.36998 21.07045,-18.36998l34.19532,-34.53923c0,0 39.94454,17.59448 45.04546,28.26825c10.7616,22.51886 22.53287,132.3542 22.53287,132.3542z"/></g><path d="M281.48663,217.39066l21.48061,41.95155l-3.13715,8.44263l-13.52463,-9.27422l-11.42201,-40.91773z" fill="#ffffff" stroke-width="2" stroke-linecap="round"/><path d="M284.91261,211.95598c0.91983,2.30035 2.31063,4.72518 1.32353,6.26471c-1.0442,1.62862 -4.56604,2.30657 -7.21042,2.30657c-2.25931,0 -5.12808,-0.23605 -7.23321,-1.46737c-2.68795,-1.57221 -4.4469,-4.44923 -5.50843,-7.10393c-0.97112,-2.42863 -1.68073,-5.62971 -0.54073,-7.18935c1.08204,-1.48034 3.92264,-1.38193 6.42763,-1.38193c2.95234,0 6.1461,0.08757 8.64115,2.05963c1.85228,1.46401 3.29399,4.49471 4.1005,6.51166z" fill="#ffffff" stroke-width="2" stroke-linecap="butt"/></g><path d="M214.52362,306.61252v-267.72501h213.18203v267.72501z" fill="none" stroke="none" stroke-width="0" stroke-linecap="butt"/><path d="M185.46076,161.33049c9.25743,-31.98927 44.38839,-49.92687 78.46718,-40.06475c34.07881,9.86213 54.20052,43.78938 44.94309,75.77864c-9.25743,31.98927 -44.38838,49.92688 -78.4672,40.06476c-34.07879,-9.86212 -54.20051,-43.78938 -44.94308,-75.77864z" fill="#000000" stroke="#000000" stroke-width="2" stroke-linecap="butt"/><path d="M198.19317,164.46048c0.98476,-3.40288 16.94276,-10.78311 27.90949,-7.60943c10.96674,3.17368 18.01576,17.8481 17.20087,20.66398c-3.60493,12.45689 -16.62557,19.63282 -29.08244,16.02791c-12.45689,-3.60493 -19.63282,-16.62559 -16.0279,-29.08245z" fill="url(#color-1)" stroke="#000000" stroke-width="2" stroke-linecap="butt"/><path d="M209.1889,161.3845c2.07892,-7.18378 9.58784,-11.32211 16.77163,-9.24318c7.18377,2.07893 11.32211,9.58787 9.24317,16.77165c-2.07892,7.18378 -9.58786,11.32211 -16.77165,9.24318c-7.18377,-2.07893 -11.32209,-9.58784 -9.24317,-16.77165z" fill="#000000" stroke="#000000" stroke-width="5" stroke-linecap="butt"/><path d="" fill="none" stroke="#000000" stroke-width="2" stroke-linecap="round"/><path d="M267.00575,206.46486c-12.45689,-3.60493 -19.63281,-16.62558 -16.02789,-29.08244c0.84941,-2.93517 16.21025,-13.02267 27.11029,-9.86829c10.90004,3.15438 18.95211,19.63299 18.00007,22.92285c-3.60493,12.45689 -16.62558,19.63283 -29.08245,16.0279z" fill="url(#color-2)" stroke="#000000" stroke-width="2" stroke-linecap="butt"/><path d="M288.66644,180.4241c-2.10745,7.2824 -9.71944,11.47749 -17.00181,9.37004c-7.28236,-2.10746 -11.47748,-9.71946 -9.37003,-17.00183c2.10745,-7.2824 9.71945,-11.47748 17.00181,-9.37004c7.28236,2.10746 11.47748,9.71945 9.37002,17.0018z" fill="#000000" stroke="#000000" stroke-width="5" stroke-linecap="butt"/><path d="M185.6509,159.79101l6.76614,-54.00615c0,0 43.65513,-9.96282 70.6024,-4.00599c26.94727,5.95683 56.79578,32.16799 56.79578,32.16799l-8.40807,55.08006z" fill="#000000" stroke="#000000" stroke-width="2" stroke-linecap="butt"/><path d="M181.79935,158.8648l5.56994,-7.46783l123.4425,31.29736l-1.00536,7.75247z" fill="#ffffff" stroke="#000000" stroke-width="0" stroke-linecap="butt"/><path d="M173.19341,164.59227c0,0 -1.94083,-3.86056 -2.15573,-5.85836c-0.22955,-2.13404 0.81948,-6.56411 0.81948,-6.56411l151.31491,38.79306c0,0 -1.37627,3.32232 -2.48764,4.97879c-1.20724,1.79932 -4.49201,5.42411 -4.49201,5.42411z" fill="#000000" stroke="#000000" stroke-width="2" stroke-linecap="butt"/><path d="M308.46922,174.20998c-1.74957,1.00469 -3.56698,1.87015 -5.49268,2.4877c-2.6973,0.86498 -5.60838,0.77608 -8.39671,0.77608c0,0 -0.75,0 -0.75,-0.75c0,-0.75 0.75,-0.75 0.75,-0.75c2.63527,0 5.40944,0.11245 7.95897,-0.71079c1.91123,-0.61713 3.70991,-1.4895 5.44053,-2.50044c0.04678,-0.15463 0.15842,-0.31078 0.39045,-0.42679c0.17797,-0.08899 0.33234,-0.10714 0.46309,-0.0858c2.87421,-1.77161 5.57677,-3.88044 8.31919,-5.77179c7.57959,-7.2876 14.39312,-14.9263 20.30766,-23.66119c2.22699,-3.28711 5.0589,-6.05786 7.39353,-9.23118c3.83607,-5.21409 7.22844,-10.22046 11.85343,-14.84546c1.94135,-1.94136 4.08034,-3.57513 6.27619,-5.22209l1.19394,-0.89545c0.12637,-0.09694 0.28448,-0.15454 0.45606,-0.15454c0.41422,0 0.75,0.33579 0.75,0.75c0,0.13564 -0.03601,0.26288 -0.09899,0.37266l-0.71443,1.30318l-0.13741,-0.07533c-1.0774,2.78037 -2.753,5.34773 -4.18904,7.96722c-3.1249,5.70013 -6.28771,11.37956 -9.43721,17.06614c-1.94196,3.50632 -4.02549,6.93748 -6.04128,10.36506c-0.88258,1.50071 -1.08681,3.40084 -1.94002,4.92287c-2.10138,3.74863 -4.52174,7.21545 -6.46494,11.08406c-1.66015,3.30478 -2.61059,7.00782 -2.00632,10.76776c0.15432,0.96022 0.65907,3.65933 2.03155,3.83434c3.69106,0.47066 7.6635,-0.39178 11.37725,-0.39178c10.2959,0 19.43885,-3.07308 29.12268,-6.28718c1.74253,-0.47558 3.86184,-1.41013 5.68364,-1.43559c0.74428,-0.0104 1.7998,-0.35977 2.21839,0.25575c0.55328,0.81359 -1.54944,3.66931 -1.9991,4.29774c-2.06135,2.88094 -5.63028,4.41476 -7.75768,7.05164c-1.31275,1.62714 -2.40813,3.63994 -3.59884,5.42192c-1.70451,3.41753 -3.65325,8.84107 -1.48942,12.6247c2.1734,3.80035 8.40838,7.06571 12.52785,8.26235c9.5852,2.81918 21.11547,1.1327 31.10029,1.07015c2.19709,-0.01377 4.2554,-0.12992 6.31249,-0.35961c1.77831,-0.46831 3.5703,-0.87922 5.32821,-0.8388c0.00121,-0.00024 0.00241,-0.00048 0.00362,-0.00072l0.21645,-0.04329l0.0032,-0.28141l1.40576,0.016c0.41078,0.00401 0.74254,0.33824 0.74254,0.74996c0,0.36866 -0.26599,0.6752 -0.61653,0.73816l-1.45725,0.29145c-0.58357,0.11671 -1.15943,0.22465 -1.73005,0.32402c-1.813,0.56097 -4.08122,0.74774 -5.49899,1.05731c-6.86584,1.49915 -13.7411,2.73446 -20.67774,3.85943c-9.73966,1.57956 -19.51508,3.14782 -29.2622,4.61463c-2.81506,0.42232 -5.68163,0.79478 -8.41865,1.60957c-0.88612,0.26379 -2.39284,-0.00083 -2.62564,0.89393c-0.36325,1.39618 0.48188,3.95906 0.86696,5.30258c0.98577,3.43934 1.9655,6.49815 3.95216,9.5004c5.42858,8.14286 15.48378,12.89025 24.3707,16.44502c1.55757,0.63038 3.27856,0.78336 4.92829,1.08597l0.04507,0.0329l0.00596,-0.01788l1.09875,0.36625c0.30647,0.09425 0.52923,0.3796 0.52923,0.71698c0,0.41422 -0.33578,0.75 -0.75,0.75h-1.11516v-0.19698c-1.93093,0.27501 -3.84359,0.09557 -5.85534,0.43467c-7.27265,1.22586 -15.02359,2.73005 -22.4085,2.73606c-7.32362,0 -14.64723,0 -21.97084,0c-2.26968,0 -6.76463,0.91507 -8.0306,-1.11699c-2.43933,-3.68867 -3.07323,-8.83563 -4.05292,-13.07845c-1.20187,-5.20505 -2.86232,-10.13285 -4.73257,-15.13903c-3.58314,-9.5911 -5.06947,-19.23531 -5.06947,-29.41698c0,-2.67839 0.45156,-5.79747 0.00725,-8.43241c-1.00776,-5.97645 -4.14573,-12.92186 -8.33714,-17.04454c-0.99827,-0.99827 -1.67572,-1.81396 -2.30768,-3.04411z" fill="#000000" stroke="none" stroke-width="0.5" stroke-linecap="butt"/><path d="M367.80868,107.96211c0,0 -0.75,0 -0.75,-0.75c0,-0.75 0.75,-0.75 0.75,-0.75c0.02961,0 0.05923,0 0.08884,0c0.09429,-0.1864 0.28179,-0.37172 0.6546,-0.37172c0.37282,0 0.56031,0.18532 0.6546,0.37172h0.83228c0.41422,0 0.75,0.33579 0.75,0.75c0,0.41421 -0.33578,0.75 -0.75,0.75c-0.1239,0 -1.36298,0 -1.48688,0c-0.24782,0 -0.49563,0 -0.74344,0z" fill="#000000" stroke="none" stroke-width="0.5" stroke-linecap="butt"/><path d="M393.96787,171.31824c-0.8999,0.36637 -1.86106,0.63848 -2.90664,0.84992l-1.39555,0.41718c-0.07291,0.02364 -0.15072,0.03641 -0.2315,0.03641c-0.41421,0 -0.75,-0.33579 -0.75,-0.75c0,-0.022 0.00095,-0.04378 0.0028,-0.0653c-0.65073,0.42967 -1.29169,0.90928 -2.05512,1.16818c0,0 -0.71151,0.23717 -0.94868,-0.47434c-0.23717,-0.71151 0.47434,-0.94868 0.47434,-0.94868c1.26065,-0.41159 2.11081,-1.42043 3.31497,-1.84769c2.06375,-0.73226 4.67105,-0.98939 6.83153,-1.52226l0.08814,0.02945l-0.00036,-0.03551l0.77382,-0.0079c0.00298,-0.00003 0.00596,-0.00005 0.00894,-0.00005c0.30483,0 0.56719,0.18186 0.68449,0.443l0.26839,-0.05368c0.05225,-0.01153 0.10655,-0.0176 0.16227,-0.0176c0.41421,0 0.75,0.33579 0.75,0.75c0,0.2994 -0.17544,0.55783 -0.42912,0.67809l-1.32711,0.66355l-0.12998,-0.25996c-0.98548,0.51859 -1.95344,0.73028 -3.18565,0.9472z" fill="#000000" stroke="none" stroke-width="0.5" stroke-linecap="butt"/><path d="M404.97413,167.43076c0,-0.41421 0.33579,-0.75 0.75,-0.75c0.41421,0 0.75,0.33579 0.75,0.75c0,0.41421 -0.33579,0.75 -0.75,0.75c-0.41421,0 -0.75,-0.33579 -0.75,-0.75z" fill="#000000" stroke="none" stroke-width="0.5" stroke-linecap="butt"/><path d="M439.91582,208.69169c0,-0.41421 0.33579,-0.75 0.75,-0.75c0.41421,0 0.75,0.33579 0.75,0.75c0,0.41421 -0.33579,0.75 -0.75,0.75c-0.41421,0 -0.75,-0.33579 -0.75,-0.75z" fill="#000000" stroke="none" stroke-width="0.5" stroke-linecap="butt"/><path d="M194.24926,204.91063c-0.06352,-0.03598 -0.12799,-0.08478 -0.19247,-0.14925c-0.53033,-0.53033 0,-1.06066 0,-1.06066l0.56664,-0.51221c0.76873,-0.36534 1.66219,-0.44027 2.51325,-0.4509c10.3115,0 20.50913,-0.72955 30.83502,-0.75533c10.50385,-0.02623 20.23067,-1.2132 30.3798,2.09354c1.33988,0.79148 2.9376,1.49899 3.9811,2.69642c3.21325,3.68721 3.333,9.51767 4.07017,14.10025c0.63475,3.94591 1.49055,7.86937 2.23263,11.79675c0.52863,4.54411 1.04574,8.97565 1.04574,13.55307c0,1.28238 0.63935,4.74173 -0.74844,5.49508c-0.95888,0.52052 -2.17148,0.23187 -3.24581,0.42211c-2.84762,0.50426 -5.68474,0.94626 -8.55222,1.32028c-4.46044,0.5818 -8.93887,0.86325 -13.40383,1.38127c-4.75683,0.55188 -9.74628,1.75237 -14.56062,1.29658v0.1408h-1.5c-0.41421,0 -0.75,-0.33579 -0.75,-0.75c0,-0.21718 0.09231,-0.41281 0.23984,-0.54977l0.69438,-0.64816l0.0032,0.00343l0.00852,-0.01415c1.52482,-1.30728 3.13527,-2.47432 4.65779,-3.77528c5.29798,-4.52031 10.35555,-8.87617 15.04956,-14.06111c1.00233,-1.10717 2.64795,-3.69524 4.1673,-4.31032c-0.13652,-0.0646 -0.27304,-0.1292 -0.40956,-0.1938c-9.12753,-4.31958 -19.38259,-6.77383 -29.06802,-9.57184c-9.82123,-2.83724 -20.91276,-5.05029 -30.07935,-9.61819c-1.91147,-0.95574 -4.67629,-1.78217 -6.18697,-3.31829c-0.51015,-0.51874 -1.47175,-0.90967 -1.44407,-1.63671c0.02721,-0.71464 3.86822,-1.98408 4.44511,-2.11651c1.67194,-0.38379 3.4404,-0.63857 5.25132,-0.8071z" fill="#000000" stroke="none" stroke-width="0.5" stroke-linecap="butt"/><path d="M217.25549,261.10422c0,-0.41421 0.33579,-0.75 0.75,-0.75c0.41421,0 0.75,0.33579 0.75,0.75c0,0.41421 -0.33579,0.75 -0.75,0.75c-0.41421,0 -0.75,-0.33579 -0.75,-0.75z" fill="#000000" stroke="none" stroke-width="0.5" stroke-linecap="butt"/></g></g></svg>