<svg version="1.1" xmlns="http://www.w3.org/2000/svg" xmlns:xlink="http://www.w3.org/1999/xlink" width="254.18333" height="267.72501" viewBox="0,0,254.18333,267.72501"><g transform="translate(-190.17909,-31.19977)"><g stroke-miterlimit="10"><path d="M190.1791,298.92479v-267.72501h254.18333v267.72501z" fill="none" stroke="none" stroke-width="0" stroke-linecap="butt"/><path d="" fill="none" stroke="#000000" stroke-width="2" stroke-linecap="round"/><g stroke="#000000"><path d="M295.34981,233.22977l50.88029,-0.17023l-25.90909,48.28125z" fill="#ff6300" stroke-width="5" stroke-linecap="round"/><path d="M254.66203,196.71187l36.67943,35.26262l-52.19492,16.67485z" fill="#ff6300" stroke-width="5" stroke-linecap="round"/><path d="M249.16933,144.77037l1.92293,50.84422l-49.14515,-24.23045z" fill="#ff6300" stroke-width="5" stroke-linecap="round"/><path d="M286.91602,106.24628l-36.39875,35.55227l-15.02506,-52.69353z" fill="#ff6300" stroke-width="5" stroke-linecap="round"/><path d="M345.03093,101.37536l-50.87705,-0.59855l26.63563,-47.88427z" fill="#ff6300" stroke-width="5" stroke-linecap="round"/><path d="M389.21398,141.12395l-35.55226,-36.39875l52.69353,-15.02506z" fill="#ff6300" stroke-width="5" stroke-linecap="round"/><path d="M389.13294,193.38907l0.59856,-50.87705l47.88428,26.63563z" fill="#ff6300" stroke-width="5" stroke-linecap="round"/><path d="M350.58145,231.28731l36.39875,-35.55227l15.02506,52.69353z" fill="#ff6300" stroke-width="5" stroke-linecap="round"/><path d="M244.60409,166.72601c0,-39.08686 33.75591,-70.77302 75.39591,-70.77302c41.64002,0 75.39591,31.68616 75.39591,70.77302c0,39.08686 -33.7559,70.77303 -75.39591,70.77303c-41.64,0 -75.39591,-31.68617 -75.39591,-70.77303z" fill="#ffe63c" stroke-width="5" stroke-linecap="butt"/><path d="M295.34981,233.22977l50.88028,-0.17023l-25.90909,48.28126z" fill="#ff6300" stroke-width="0" stroke-linecap="round"/><path d="M254.66204,196.71187l36.67943,35.26262l-52.19492,16.67485z" fill="#ff6300" stroke-width="0" stroke-linecap="round"/><path d="M249.16933,144.77036l1.92292,50.84422l-49.14515,-24.23045z" fill="#ff6300" stroke-width="0" stroke-linecap="round"/><path d="M286.91602,106.24628l-36.39875,35.55227l-15.02506,-52.69353z" fill="#ff6300" stroke-width="0" stroke-linecap="round"/><path d="M345.03093,101.37536l-50.87705,-0.59856l26.63563,-47.88427z" fill="#ff6300" stroke-width="0" stroke-linecap="round"/><path d="M389.21398,141.12395l-35.55227,-36.39875l52.69353,-15.02506z" fill="#ff6300" stroke-width="0" stroke-linecap="round"/><path d="M389.13293,193.38906l0.59856,-50.87705l47.88428,26.63563z" fill="#ff6300" stroke-width="0" stroke-linecap="round"/><path d="M350.58145,231.2873l36.39875,-35.55227l15.02506,52.69353z" fill="#ff6300" stroke-width="0" stroke-linecap="round"/><path d="M244.60409,166.72601c0,-39.08686 33.75591,-70.77302 75.39591,-70.77302c41.64002,0 75.39591,31.68616 75.39591,70.77302c0,39.08686 -33.7559,70.77303 -75.39591,70.77303c-41.64,0 -75.39591,-31.68617 -75.39591,-70.77303z" fill="#ffe63c" stroke-width="0" stroke-linecap="butt"/></g><path d="M280.5491,155.81939c0,-6.11558 4.95766,-11.07324 11.07324,-11.07324c6.11558,0 11.07324,4.95766 11.07324,11.07324c0,6.11558 -5.55621,-4.64517 -11.67179,-4.64517c-6.11558,0 -10.47469,10.76075 -10.47469,4.64517z" fill="#000000" stroke="none" stroke-width="NaN" stroke-linecap="butt"/><path d="M347.68489,150.91859c-6.11558,0 -10.81761,11.01638 -10.81761,4.9008c0,-6.11558 4.95766,-11.07324 11.07324,-11.07324c6.11558,0 11.07324,4.95766 11.07324,11.07324c0,6.11558 -5.21329,-4.9008 -11.32887,-4.9008z" fill="#000000" stroke="none" stroke-width="NaN" stroke-linecap="butt"/><path d="M288.74464,178.04893l64.91873,1.28129c0,0 -12.95632,42.70124 -34.16775,42.2826c-21.21143,-0.41865 -30.75098,-43.56389 -30.75098,-43.56389z" fill="#000000" stroke="#000000" stroke-width="1.5" stroke-linecap="round"/></g></g></svg>