<svg version="1.1" xmlns="http://www.w3.org/2000/svg" xmlns:xlink="http://www.w3.org/1999/xlink" width="216.51651" height="285.89579" viewBox="0,0,216.51651,285.89579"><g transform="translate(-214.52362,-33.17647)"><g stroke-miterlimit="10"><g stroke="#000000"><g fill="#000000" stroke-width="0" stroke-linecap="butt"><path d="M286.35186,319.07226l63.54664,-136.2974l42.30185,-2.76527l-39.34852,139.06268z"/></g><path d="M361.1817,209.15327l-11.39979,45.35011l-9.75423,9.12658l-6.25577,-10.02554l20.64811,-44.23254z" fill="#ffffff" stroke-width="2" stroke-linecap="round"/><path d="M368.86722,203.27832c-0.88311,2.48671 -1.39282,5.10797 -3.58656,6.77223c-2.32067,1.76056 -6.37387,2.49343 -9.01825,2.49343c-2.25931,0 -4.94308,-0.25518 -6.08314,-1.58624c-1.4557,-1.69958 -0.95972,-4.80966 0.05943,-7.67943c0.93236,-2.62537 2.73167,-6.08579 5.09407,-7.77177c2.2423,-1.60027 5.00576,-1.49389 7.51075,-1.49389c2.95234,0 6.07746,0.09467 7.02687,2.22648c0.70483,1.58262 -0.22884,4.85884 -1.00315,7.03919z" fill="#ffffff" stroke-width="2" stroke-linecap="butt"/></g><path d="M214.52362,306.61252v-267.72501h213.18203v267.72501z" fill="none" stroke="none" stroke-width="0" stroke-linecap="butt"/><path d="M293.52468,138.7573c-4.25978,-33.02828 20.81062,-63.4818 55.9963,-68.01983c35.18569,-4.53803 67.16256,18.55787 71.42235,51.58615c4.25978,33.02828 -20.81061,63.48181 -55.9963,68.01984c-35.18568,4.53803 -67.16257,-18.55788 -71.42235,-51.58616z" fill="#000000" stroke="#000000" stroke-width="2" stroke-linecap="butt"/><path d="M307.07509,137.28756c-0.45314,-3.51341 12.90296,-12.92892 25.70536,-14.21176c10.2953,-1.03162 20.49521,5.29739 20.87018,8.20473c1.65879,12.86149 -7.42277,24.63249 -20.28424,26.29128c-12.86149,1.65879 -24.63249,-7.42278 -26.29128,-20.28425z" fill="#ffffff" stroke="#000000" stroke-width="2" stroke-linecap="butt"/><path d="M317.61033,133.52412c-0.95661,-7.41711 4.28066,-14.20538 11.69778,-15.16199c7.41711,-0.95661 14.20538,4.28067 15.16199,11.69779c0.95661,7.41711 -4.28066,14.20539 -11.69779,15.162c-7.41711,0.95661 -14.20536,-4.28067 -15.16199,-11.69779z" fill="#000000" stroke="#000000" stroke-width="5" stroke-linecap="butt"/><path d="" fill="none" stroke="#000000" stroke-width="2" stroke-linecap="round"/><path d="M387.17913,150.6314c-12.86149,1.65879 -24.63248,-7.42278 -26.29127,-20.28425c-0.39086,-3.03051 10.85653,-14.45165 22.58732,-16.04459c11.53522,-1.56639 23.55013,6.64086 23.98822,10.03756c1.65879,12.86149 -7.42278,24.63249 -20.28425,26.29128z" fill="#ffffff" stroke="#000000" stroke-width="2" stroke-linecap="butt"/><path d="M396.85768,121.47567c0.96975,7.51893 -4.33941,14.40034 -11.85831,15.37009c-7.5189,0.96974 -14.40034,-4.33943 -15.37008,-11.85833c-0.96975,-7.51893 4.33942,-14.40034 11.85832,-15.37009c7.5189,-0.96974 14.40033,4.33942 15.37007,11.85832z" fill="#000000" stroke="#000000" stroke-width="5" stroke-linecap="butt"/><path d="M297.10757,112.2997l-20.9372,-53.02909c0,0 44.07422,-10.47599 65.73142,-14.69515c21.01198,-4.09347 62.33469,-10.25412 62.33469,-10.25412l5.27474,56.54834z" fill="#000000" stroke="#000000" stroke-width="2" stroke-linecap="butt"/><path d="M297.7861,111.40023l-3.72266,-8.55126l114.27509,-18.77969l0.75961,8.93341z" fill="#ffffff" stroke="#000000" stroke-width="0" stroke-linecap="butt"/><path d="M281.97882,120.86705c0,0 -3.31872,-2.7671 -4.31209,-4.51371c-1.0611,-1.86571 -1.86472,-6.34681 -1.86472,-6.34681l154.23827,-24.73174c0,0 0.06197,3.59557 -0.29708,5.55774c-0.39003,2.13139 -1.95788,6.76505 -1.95788,6.76505z" fill="#000000" stroke="#000000" stroke-width="2" stroke-linecap="butt"/></g></g></svg>