<svg version="1.1" xmlns="http://www.w3.org/2000/svg" xmlns:xlink="http://www.w3.org/1999/xlink" width="213.18203" height="281.1848" viewBox="0,0,213.18203,281.1848"><defs><linearGradient x1="319.60185" y1="187.07232" x2="319.60185" y2="319.0723" gradientUnits="userSpaceOnUse" id="color-1"><stop offset="0" stop-color="#a2b2bf"/><stop offset="1" stop-color="#babebf"/></linearGradient><linearGradient x1="320.97551" y1="221.14188" x2="320.97551" y2="248.51169" gradientUnits="userSpaceOnUse" id="color-2"><stop offset="0" stop-color="#ff9333"/><stop offset="1" stop-color="#ffb133"/></linearGradient><linearGradient x1="320.97551" y1="201.90171" x2="320.97551" y2="229.27153" gradientUnits="userSpaceOnUse" id="color-3"><stop offset="0" stop-color="#ffb033"/><stop offset="1" stop-color="#ffc633"/></linearGradient></defs><g transform="translate(-214.52362,-38.88751)"><g stroke-miterlimit="10"><path d="M214.52362,306.61252v-267.72501h213.18203v267.72501z" fill="none" stroke="none" stroke-width="0" stroke-linecap="butt"/><path d="M286.35186,319.0723l15.14285,-131.8421l37.78325,-0.15789l13.57389,132z" fill="url(#color-1)" stroke="#000000" stroke-width="2" stroke-linecap="butt"/><g><path d="M287.50846,248.51169l4.33581,-27.36982h57.99149l4.6068,27.36982z" fill="url(#color-2)" stroke="#000000" stroke-width="2" stroke-linecap="butt"/><path d="M329.79867,229.13508l2.6905,18.53458" fill="none" stroke="#000000" stroke-width="1" stroke-linecap="round"/><path d="M335.72599,246.17494c0,-0.27614 0.22386,-0.5 0.5,-0.5c0.27614,0 0.5,0.22386 0.5,0.5c0,0.27614 -0.22386,0.5 -0.5,0.5c-0.27614,0 -0.5,-0.22386 -0.5,-0.5z" fill="#000000" stroke="none" stroke-width="0.5" stroke-linecap="butt"/><path d="M334.38073,237.05712c0,-0.27614 0.22386,-0.5 0.5,-0.5c0.27614,0 0.5,0.22386 0.5,0.5c0,0.27614 -0.22386,0.5 -0.5,0.5c-0.27614,0 -0.5,-0.22386 -0.5,-0.5z" fill="#000000" stroke="none" stroke-width="0.5" stroke-linecap="butt"/></g><g><path d="M287.50845,229.27153l4.33581,-27.36982h57.99149l4.6068,27.36982z" fill="url(#color-3)" stroke="#000000" stroke-width="2" stroke-linecap="butt"/><path d="M331.14392,198.19428l4.3347,30.04396" fill="none" stroke="#000000" stroke-width="1" stroke-linecap="round"/><path d="M337.37018,226.59405c0,-0.27614 0.22386,-0.5 0.5,-0.5c0.27614,0 0.5,0.22386 0.5,0.5c0,0.27614 -0.22386,0.5 -0.5,0.5c-0.27614,0 -0.5,-0.22386 -0.5,-0.5z" fill="#000000" stroke="none" stroke-width="0.5" stroke-linecap="butt"/><path d="M336.1744,219.2699c0,-0.27614 0.22386,-0.5 0.5,-0.5c0.27614,0 0.5,0.22386 0.5,0.5c0,0.27614 -0.22386,0.5 -0.5,0.5c-0.27614,0 -0.5,-0.22386 -0.5,-0.5z" fill="#000000" stroke="none" stroke-width="0.5" stroke-linecap="butt"/><path d="M334.67968,210.15208c0,-0.27614 0.22386,-0.5 0.5,-0.5c0.27614,0 0.5,0.22386 0.5,0.5c0,0.27614 -0.22386,0.5 -0.5,0.5c-0.27614,0 -0.5,-0.22386 -0.5,-0.5z" fill="#000000" stroke="none" stroke-width="0.5" stroke-linecap="butt"/></g><path d="" fill="none" stroke="#000000" stroke-width="2" stroke-linecap="round"/><g stroke="#000000" stroke-width="2"><path d="M375.85064,107.78165v-32.24761" fill="none" stroke-linecap="round"/><path d="M371.24384,70.79174c0,-2.6191 2.1232,-4.74229 4.7423,-4.74229c2.6191,0 4.74229,2.1232 4.74229,4.74229c0,2.6191 -2.1232,4.74229 -4.74229,4.74229c-2.6191,0 -4.7423,-2.1232 -4.7423,-4.74229z" fill="#000000" stroke-linecap="butt"/></g><g stroke="#000000" stroke-width="2"><path d="M266.10038,75.53403v32.24761" fill="none" stroke-linecap="round"/><path d="M261.49358,70.79174c0,-2.61909 2.1232,-4.74229 4.74229,-4.74229c2.6191,0 4.7423,2.1232 4.7423,4.74229c0,2.6191 -2.1232,4.74229 -4.7423,4.74229c-2.6191,0 -4.74229,-2.1232 -4.74229,-4.74229z" fill="#000000" stroke-linecap="butt"/></g><path d="M255.36491,148.57227c0,-33.30185 28.7599,-60.29833 64.23702,-60.29833c35.47713,0 64.23702,26.99648 64.23702,60.29833c0,33.30185 -28.75989,60.29834 -64.23702,60.29834c-35.47712,0 -64.23702,-26.99649 -64.23702,-60.29834z" fill="#babebf" stroke="#000000" stroke-width="2" stroke-linecap="butt"/><path d="M254.55633,185.62324c0,-9.65546 0,-53.19547 0,-71.41338c0,-4.96898 4.32043,-8.05414 9.07161,-8.05414c14.37883,0 88.09352,0 113.32928,0c5.32078,0 8.48645,2.38045 8.48645,5.10096c0,8.57058 0,54.2667 0,73.29268c0,5.13125 -2.02661,8.32262 -5.5601,8.32262c-21.56442,0 -99.25236,0 -114.92547,0c-5.35971,0 -10.40177,-3.5372 -10.40177,-7.24873z" fill="#ffc633" stroke="#000000" stroke-width="2" stroke-linecap="butt"/><path d="M259.02763,182.19414c0,-8.69591 0,-47.90897 0,-64.31641c0,-4.47516 4.02524,-7.25373 8.45181,-7.25373c13.39642,0 82.07472,0 105.5863,0c4.95725,0 7.90663,2.14388 7.90663,4.59403c0,7.71885 0,48.87373 0,66.00893c0,4.62132 -1.88816,7.49552 -5.18022,7.49552c-20.09107,0 -92.47114,0 -107.07342,0c-4.99352,0 -9.69109,-3.18567 -9.69109,-6.52835z" fill="#000000" stroke="#000000" stroke-width="2" stroke-linecap="butt"/><path d="M259.55744,128.92352h120.73397" fill="none" stroke-opacity="0.35294" stroke="#000000" stroke-width="3" stroke-linecap="round"/><path d="M259.55744,136.83185h120.73397" fill="none" stroke-opacity="0.35294" stroke="#000000" stroke-width="3" stroke-linecap="round"/><path d="M259.55744,144.74019h120.73397" fill="none" stroke-opacity="0.35294" stroke="#000000" stroke-width="3" stroke-linecap="round"/><path d="M259.55744,152.64853h120.73397" fill="none" stroke-opacity="0.35294" stroke="#000000" stroke-width="3" stroke-linecap="round"/><path d="M259.55744,160.55687h120.73397" fill="none" stroke-opacity="0.35294" stroke="#000000" stroke-width="3" stroke-linecap="round"/><path d="M259.55744,168.46521h120.73397" fill="none" stroke-opacity="0.35294" stroke="#000000" stroke-width="3" stroke-linecap="round"/><path d="M259.55744,176.37354h120.73397" fill="none" stroke-opacity="0.35294" stroke="#000000" stroke-width="3" stroke-linecap="round"/><path d="M259.55744,184.28188h120.73397" fill="none" stroke-opacity="0.35294" stroke="#000000" stroke-width="3" stroke-linecap="round"/><text transform="translate(261.15237,181.37598) scale(0.19941,0.19941)" font-size="40" xml:space="preserve" fill="#00ffff" stroke="none" stroke-width="1" stroke-linecap="butt" font-family="Pixel" font-weight="normal" text-anchor="start"><tspan x="0" dy="0">Now Playing: cw_amen02_165</tspan></text><path d="M280.02923,170.37991v-33.33445h18.96918v33.33445z" fill="#00ffff" stroke="none" stroke-width="0" stroke-linecap="butt"/><path d="M300.35335,170.37992v-31.63916h18.96918v31.63916z" fill="#00ffff" stroke="none" stroke-width="0" stroke-linecap="butt"/><path d="M320.67747,170.37992v-41.32509h18.96918v41.32509z" fill="#00ffff" stroke="none" stroke-width="0" stroke-linecap="butt"/><path d="M341.00159,170.37992v-24.65799h18.96918v24.65799z" fill="#00ffff" stroke="none" stroke-width="0" stroke-linecap="butt"/><path d="M259.55744,128.92352h120.73397" fill="none" stroke-opacity="0.35294" stroke="#000000" stroke-width="3" stroke-linecap="round"/><path d="M259.55744,136.83185h120.73397" fill="none" stroke-opacity="0.35294" stroke="#000000" stroke-width="3" stroke-linecap="round"/><path d="M259.55744,144.74019h120.73397" fill="none" stroke-opacity="0.35294" stroke="#000000" stroke-width="3" stroke-linecap="round"/><path d="M259.55744,152.64853h120.73397" fill="none" stroke-opacity="0.35294" stroke="#000000" stroke-width="3" stroke-linecap="round"/><path d="M259.55744,160.55687h120.73397" fill="none" stroke-opacity="0.35294" stroke="#000000" stroke-width="3" stroke-linecap="round"/><path d="M259.55744,168.46521h120.73397" fill="none" stroke-opacity="0.35294" stroke="#000000" stroke-width="3" stroke-linecap="round"/><path d="M259.55744,176.37354h120.73397" fill="none" stroke-opacity="0.35294" stroke="#000000" stroke-width="3" stroke-linecap="round"/><path d="M259.55744,120.79387h120.73397" fill="none" stroke-opacity="0.35294" stroke="#000000" stroke-width="3" stroke-linecap="round"/><path d="M259.55744,184.28188h120.73397" fill="none" stroke-opacity="0.35294" stroke="#000000" stroke-width="3" stroke-linecap="round"/></g></g></svg>