<svg version="1.1" xmlns="http://www.w3.org/2000/svg" xmlns:xlink="http://www.w3.org/1999/xlink" width="508.81237" height="378.11377" viewBox="0,0,508.81237,378.11377"><defs><linearGradient x1="577.70314" y1="213.36358" x2="563.89077" y2="213.36358" gradientUnits="userSpaceOnUse" id="color-1"><stop offset="0" stop-color="#1a1a1a" stop-opacity="0"/><stop offset="1" stop-color="#1a1a1a"/></linearGradient><linearGradient x1="68.89077" y1="213.36358" x2="82.70314" y2="213.36358" gradientUnits="userSpaceOnUse" id="color-2"><stop offset="0" stop-color="#1a1a1a" stop-opacity="0"/><stop offset="1" stop-color="#1a1a1a"/></linearGradient></defs><g transform="translate(-68.89077,5.5)"><g stroke-miterlimit="10"><path d="M563.89077,372.61376v-318.50035h13.81237v318.50036z" fill="url(#color-1)" fill-rule="nonzero" stroke="none" stroke-width="0" stroke-linecap="butt" stroke-linejoin="miter"/><path d="M68.89077,372.61376v-318.50035h13.81238v318.50036z" fill="url(#color-2)" fill-rule="nonzero" stroke="none" stroke-width="0" stroke-linecap="butt" stroke-linejoin="miter"/><path d="M74.61096,-3.98101h490.7781v367.96203h-490.7781z" fill="#1a1a1a" fill-rule="evenodd" stroke="none" stroke-width="2.07968" stroke-linecap="round" stroke-linejoin="round"/><path d="M74.50001,55.08069v-60.58069h491.33333v60.58069z" fill="#525252" fill-rule="nonzero" stroke="none" stroke-width="0" stroke-linecap="butt" stroke-linejoin="miter"/><path d="M281.36096,352.38196c-0.00002,0.02694 -0.02188,0.04879 -0.04884,0.04879c-0.02694,0 -0.04881,-0.02184 -0.04884,-0.04879c0.00002,-0.02694 0.02188,-0.04879 0.04884,-0.04879c0.02694,0 0.04881,0.02184 0.04884,0.04879z" fill="#ffffff" fill-rule="nonzero" stroke="#000000" stroke-width="0.27531" stroke-linecap="butt" stroke-linejoin="miter"/><text transform="translate(87.41756,37.93034) scale(0.71744,0.71744)" font-size="40" xml:space="preserve" fill="#ffffff" fill-rule="nonzero" stroke="#ffffff" stroke-width="1" stroke-linecap="butt" stroke-linejoin="miter" font-family="Sans Serif" font-weight="normal" text-anchor="start"><tspan x="0" dy="0">GALLERY</tspan></text></g></g></svg>