<svg version="1.1" xmlns="http://www.w3.org/2000/svg" xmlns:xlink="http://www.w3.org/1999/xlink" width="745.65277" height="352.35984" viewBox="0,0,745.65277,352.35984"><g transform="translate(39.74998,-85)"><g stroke="none" stroke-miterlimit="10"><path d="M484.40279,195.25c0,38.52186 -53.27811,69.75 -119,69.75c-65.72189,0 -119,-31.22814 -119,-69.75c0,-38.52186 7.69488,-33.86027 73,-41.25c17.45112,-1.97472 37.26199,1.66192 51.54813,0.88483c86.99717,-4.73218 113.45187,7.27687 113.45187,40.36517z" fill="#371212" stroke-width="0"/><path d="M563.90279,193.5c0,27.06195 -31.78778,49 -71,49c-39.21222,0 -73,-11.93805 -73,-39c0,-27.06195 39.28778,-62.5 78.5,-62.5c39.21222,0 65.5,25.43805 65.5,52.5z" fill="#4a2929" stroke-width="0"/><path d="M703.90279,174c0,49.15334 -43.65224,89 -97.5,89c-53.84776,0 -97.5,-39.84666 -97.5,-89c0,-49.15334 43.65224,-89 97.5,-89c53.84776,0 97.5,39.84666 97.5,89z" fill="#6b4e4e" stroke-width="0"/><path d="M278,202.5c0,41.6975 -72.64993,64.5 -154.25,64.5c-81.60007,0 -147.75,-33.8025 -147.75,-75.5c0,-20.19497 4.84992,-39.29115 26.85734,-46.91198c23.43232,-8.11425 65.31321,-4.08802 107.39266,-4.08802c40.98654,0 64.98108,-21.65306 95.13734,-14.03286c29.88181,7.55085 72.61266,55.27942 72.61266,76.03286z" fill="#6b4e4e" stroke-width="0"/><path d="M641.30043,356.71598c1.09544,0.04286 2.45424,-1.46117 3.10397,-2.03168c0.50414,-0.44267 0.98875,-0.91215 1.46152,-1.39716c-0.48853,0.2394 -0.99469,0.48537 -1.51712,0.75302c-0.04258,0.03837 -0.08965,0.07456 -0.14168,0.10786l-1.591,1.63267c-0.22621,0.23213 -0.53871,0.38023 -0.88388,0.38927c-0.69036,0.01808 -1.25,-0.5269 -1.25,-1.21726c0,-0.28179 0.09324,-0.54425 0.25056,-0.75743l1.0561,-1.46533c-0.64468,0.59473 -1.28994,1.1899 -1.93607,1.78541c0.09387,1.14441 0.43161,2.16089 1.4476,2.20064zM650.26515,345.65277l0.09774,-0.01414l-0.00682,-0.02118l2.35389,-0.81277c0.12781,-0.04744 0.265,-0.07497 0.40779,-0.07871c0.69036,-0.01808 1.25,0.5269 1.25,1.21726c0,0.18051 -0.03826,0.35307 -0.10711,0.50985l-0.95175,2.30643l-0.01355,-0.0053c-0.02067,0.05468 -0.04222,0.10911 -0.06469,0.16327c-0.34481,0.83099 -1.10469,1.42812 -1.66057,2.13946c-2.43814,3.11997 -9.72064,11.71732 -13.57344,6.22961c-0.15539,-0.22133 -0.25504,-0.46759 -0.31985,-0.72901c-4.26179,4.08328 -8.47416,8.52709 -13.11688,12.04047c-8.63069,6.53128 -18.89757,11.61827 -28.11647,17.28259c-5.8394,3.58787 -12.16718,5.86586 -18.48979,8.44007c-10.04889,4.09133 -20.19778,7.90963 -30.32452,11.79154c-16.39812,6.28593 -33.26573,11.49713 -49.91221,17.04273c-17.40694,1.3552 -34.82236,2.56735 -52.23311,3.84594c-17.4805,1.28371 -34.961,2.56742 -52.4415,3.85113c-17.53635,1.28781 -34.97886,1.97904 -52.53395,2.43836c-17.5,0.45788 -35,0.91575 -52.5,1.37363c-17.50082,0.4579 -35.00202,0.94936 -52.50279,1.3681c-17.49996,0.41872 -34.99991,0.83743 -52.49987,1.25615c-17.48308,0.41832 -35.03307,-1.09849 -52.4693,-1.90976c-17.46766,-0.81273 -34.76158,-3.72543 -52.05764,-6.00422c-9.82532,-1.2945 -20.0272,-1.94283 -29.71792,-3.91844c-7.27506,-1.48314 -14.46441,-4.02269 -21.60803,-6.01096c-4.81072,-1.35038 -9.21768,-4.07135 -13.66163,-6.30526c-6.63507,-3.33536 -14.0544,-6.42516 -18.95713,-12.24416c-3.06321,-3.6357 -5.17269,-8.79767 -7.58286,-12.91259c-3.81523,-6.51621 -5.89536,-13.65718 -8.36943,-20.82462c-3.23811,-9.38087 -6.49898,-18.75287 -9.6452,-28.16714c-3.47394,-10.39692 -4.78358,-20.74333 -6.35525,-31.59341c-0.96008,-6.62795 -2.33129,-12.64174 -2.33129,-19.39817c0.01269,-18.07612 2.21527,-34.89569 9.67809,-51.71289c6.13403,-13.8228 12.26805,-27.6456 18.40208,-41.46838c0.13619,-0.3952 0.37529,-0.60769 0.62263,-0.71853c0.261,-0.14604 0.61171,-0.20874 1.05918,-0.01956c0.31764,0.13429 0.50707,0.3207 0.61508,0.51976c0.29666,-0.48301 0.5988,-0.96275 0.90507,-1.43995l-0.00857,-0.00264l0.78145,-2.36483c0.15709,-0.51489 0.63267,-0.89863 1.19497,-0.91336c0.69036,-0.01808 1.25,0.5269 1.25,1.21726v2c-1.21927,2.00068 -0.39603,0.47762 0.49364,-0.18468l0.0107,-0.05415l0.01114,0.03808c0.36511,-0.26561 0.73866,-0.38055 0.98452,-0.04272v-1.2958c0,-0.66731 0.5229,-1.22617 1.1813,-1.27908l0.13753,-1.27868c0.06012,-0.63591 0.59429,-1.14615 1.24437,-1.16318c0.58089,-0.01521 1.06923,0.36823 1.2095,0.90149l0.67921,2.35945l-0.05429,0.01693l0.0903,0.15215c0.00074,0.18641 0.00158,0.37196 0.00274,0.55678c0.00376,-0.06776 0.00751,-0.13546 0.01127,-0.20311c0,0 0.06934,-1.2499 1.31741,-1.21324c0.07116,0.00209 0.13804,0.00812 0.20089,0.01765c0.10603,-0.58567 0.61629,-1.04097 1.22977,-1.05704c0.59488,-0.01558 1.0927,0.38693 1.21902,0.94027l0.49366,1.9617l-0.27112,0.07488c0.04818,0.12227 0.09472,0.24511 0.13949,0.36853c0.17597,0.23584 0.3448,0.47903 0.50514,0.72865c0.06635,-0.2777 0.13777,-0.56158 0.21517,-0.84369c0.7045,-2.56769 1.90428,-4.98818 4.27856,-1.2603c0.23989,0.11958 0.43386,0.31601 0.55022,0.55842l0.3565,0.70366c0.68184,-1.42329 1.99016,-2.52788 3.49171,-1.9245c0.32783,0.13173 0.63262,0.45667 0.91602,0.89948l0.38661,-1.55655c0.12632,-0.55996 0.62414,-0.98855 1.21902,-1.00413c0.54616,-0.0143 1.0105,0.32381 1.18066,0.8075l0.86756,2.29078l-0.12405,0.04977c0.04008,0.07431 0.0796,0.1489 0.11853,0.22376l0.23828,-0.95934c0.12632,-0.55996 0.62414,-0.98855 1.21902,-1.00413c0.44077,-0.01154 0.82825,0.20644 1.05082,0.54524l1.376,2.02795l-0.28143,0.19499c0.22728,0.34155 0.42882,0.6844 0.6166,1.04284c0.37773,-1.34119 1.02733,-2.62611 1.70715,-3.38506c0.61753,-0.6894 1.43534,-1.89775 2.28219,-1.57726c0.83659,0.31661 1.40733,1.23852 1.81014,2.40851c0.15364,-0.16871 0.31437,-0.28655 0.48023,-0.34071c1.06304,-0.3471 2.019,1.08309 2.59787,2.01497c0.0473,0.07614 0.09179,0.17056 0.13371,0.28068c0.07352,-0.0154 0.14929,-0.02442 0.22671,-0.02645c0.34518,-0.00904 0.65768,0.12269 0.88388,0.34297l1.18579,1.15473c0.03418,-0.20564 0.0736,-0.40851 0.11616,-0.60675l0.07441,-0.10586l-0.03024,-0.01238l0.98695,-2.29152c0.18646,-0.46078 0.63444,-0.79372 1.15745,-0.80741c0.57403,-0.01503 1.05768,0.35923 1.20438,0.88266l0.11856,0.38784l0.06232,-0.50016l0.40118,0.03964l0.4335,-1.0888c0.32793,0.19532 0.69119,0.35024 1.04771,0.51286l0.24184,-0.24817l1,0.97381l-0.01614,0.01656c0.07296,0.06866 0.1417,0.14214 0.2054,0.22138c0.37274,0.46358 0.66342,1.14521 0.90676,1.91594c0.05007,-0.20656 0.09572,-0.41214 0.13366,-0.61582l0.09475,-0.13342l-0.0369,-0.01622l1.0439,-2.26804c0.19344,-0.44524 0.63329,-0.76415 1.14492,-0.77755c0.52811,-0.01383 0.97973,0.30185 1.16284,0.76005l0.30311,0.71011c0.57607,-0.19939 1.41936,0.03965 2.57669,1.00951c0.00891,0.00747 0.03354,0.06612 0.07067,0.16563c0.52442,-0.85283 1.46965,-1.8069 2.36012,-1.56946c0.39224,0.10459 0.86063,1.02419 1.31527,2.1926c0.01984,-0.10798 0.03862,-0.21417 0.05598,-0.3183l0.07485,-0.10786l-0.03571,-0.01277l0.57854,-1.52192c0.17276,-0.48785 0.63469,-0.8458 1.1774,-0.86002c0.499,-0.01307 0.92971,0.26805 1.13014,0.6856l0.98789,1.94991l-0.27888,0.14674c0.08924,0.16802 0.17342,0.33579 0.25342,0.50446c0.29873,-1.0039 0.74093,-1.98503 1.2262,-2.8649c0.39961,-0.72456 0.62893,-1.9214 1.44321,-2.02366c0.9385,-0.11786 1.78343,0.79296 2.32576,1.55035c0.2748,0.38377 0.4947,0.8586 0.67286,1.39122c0.0493,-0.0072 0.09949,-0.01156 0.15038,-0.01289c0.41637,-0.0109 0.78519,0.18302 1.01236,0.49011l0.32664,0.43116v-0.24035c0,-0.69036 0.55964,-1.26466 1.25,-1.28274c0.53655,-0.01405 0.99415,0.31202 1.17141,0.78212l0.91766,2.27013l-0.28871,0.12304c0.1136,0.22953 0.2186,0.45935 0.3174,0.69358c0.28307,-0.98878 0.66766,-1.98552 0.99037,-2.96971l0.03435,-0.0459l-0.01368,-0.00555l0.71227,-1.66758c0.18557,-0.46268 0.63454,-0.79734 1.15892,-0.81107c0.52567,-0.01377 0.97555,0.29893 1.16028,0.75369l0.8776,2.02476c0.00928,-0.05772 0.01748,-0.11458 0.02448,-0.17048l0.19534,-1.55671c0.06941,-0.62647 0.59913,-1.12609 1.24229,-1.14294c0.46331,-0.01213 0.86774,0.22933 1.08365,0.59815l1.27445,2.09071l-0.32462,0.20327c0.20094,0.34108 0.37081,0.68027 0.52179,1.03379l0.20514,-1.41033c0.07948,-0.61585 0.60417,-1.10371 1.23958,-1.12035c0.5623,-0.01473 1.03788,0.3441 1.19497,0.85076l0.78145,2.32389l-0.19954,0.07174c0.08894,0.18824 0.1733,0.37628 0.25367,0.56568l0.70997,-1.85662c0.81761,0.99325 1.6119,2.02446 2.30091,3.11717c0.09878,-0.26572 0.19041,-0.53707 0.25843,-0.81091l0.0295,-0.0415l-0.01521,-0.00467l0.49089,-1.48552c0.15709,-0.51489 0.63267,-0.89863 1.19497,-0.91336c0.58835,-0.01541 1.08176,0.37814 1.21473,0.92211l0.07287,0.27137c0.2015,-0.42524 0.6307,-0.72645 1.12763,-0.73946c0.55642,-0.01457 1.02793,0.33664 1.18994,0.83492l0.37022,1.05274l0.78168,-1.97466c0.17726,-0.47938 0.63486,-0.82943 1.17141,-0.84348c0.47838,-0.01253 0.894,0.24532 1.10413,0.63454l1.20447,2.13072l-0.31083,0.18129c0.23005,0.41889 0.43573,0.84926 0.60943,1.29102c0.25572,-0.3529 0.49849,-0.77908 0.73844,-1.2371c0.23213,-0.77657 0.60013,-1.54963 1.06175,-2.33497c0.42969,-0.73101 0.76516,-2.17575 1.57949,-1.99824c0.10189,0.02221 0.19937,0.0526 0.29288,0.09027c0.36371,-0.16141 0.76364,-0.19694 1.21119,-0.06006c0.51422,0.15727 1.11027,1.73043 1.52642,3.01679c0.16701,-0.0871 0.35515,-0.13854 0.55415,-0.14375c0.31783,-0.00832 0.60795,0.1027 0.82851,0.29229c0.25105,-0.29775 0.47354,-0.56764 0.64853,-0.80001l0.97214,-1.48367c0.22257,-0.35046 0.61005,-0.58874 1.05082,-0.60028c0.5623,-0.01473 1.03788,0.3441 1.19497,0.85076l0.78145,2.32389l-0.44223,0.15899c0.12607,0.48195 0.22322,0.97079 0.2876,1.46305c0.04159,0.31796 0.1063,-0.64732 0.25049,-0.93873c0.25015,-0.50554 0.53606,-1.00769 0.91869,-1.42411c0.29516,-0.32123 0.56863,-0.74138 0.85235,-1.14678l0.50474,-1.1371c0.18967,-0.45383 0.63402,-0.78044 1.15194,-0.79401c0.65476,-0.01715 1.19194,0.4722 1.2456,1.11169c0.80043,0.8854 1.20997,2.6539 1.18727,4.14812c0.07716,-0.12214 0.15214,-0.24514 0.22217,-0.37013c0.23202,-0.41404 0.46922,-0.82524 0.70382,-1.23786l1.77282,-2.27926c0.41001,1.05061 0.81456,2.11821 1.12443,3.20893c0.20786,-0.1596 0.46522,-0.25752 0.74388,-0.26482c0.44077,-0.01154 0.82825,0.20644 1.05082,0.54524l0.98925,1.45796l-0.06923,0.04797c0.05833,0.05558 0.11667,0.11115 0.175,0.16674l0.80436,-1.22397c0.22273,-0.34959 0.60971,-0.58717 1.04981,-0.59869c0.25736,-0.00674 0.49655,0.06477 0.69535,0.19289l0.10968,-0.33191c0.15709,-0.51489 0.63267,-0.89863 1.19497,-0.91336c0.61444,-0.01609 1.12533,0.41386 1.23027,0.99534l0.48575,2.41602l-0.0343,0.00776c0.01742,0.03712 0.03484,0.07425 0.05226,0.11137l-0.07006,0.1229l0.07638,-0.00229l0.00013,0.03508c0.15572,-0.24222 0.31143,-0.48444 0.46715,-0.72665l0.04243,0.16435v-0.93282c0,-0.69036 0.55964,-1.26466 1.25,-1.28274c0.69036,-0.01808 1.25,0.5269 1.25,1.21726v1.37178c0.06973,0.18161 0.13291,0.36772 0.18532,0.55695c0.34883,-1.23737 1.31485,-2.39849 2.92691,-2.20659c0.49706,0.05917 0.55124,0.6292 0.53268,1.255c0.14283,-0.18288 0.30148,-0.35889 0.43238,-0.54694l0.45369,-1.82665c0.12632,-0.55996 0.62414,-0.98855 1.21902,-1.00413c0.4513,-0.01182 0.84674,0.21699 1.06649,0.56974l0.23854,-0.72186c0.15709,-0.51489 0.63267,-0.89863 1.19497,-0.91336c0.31083,-0.00814 0.59516,0.09786 0.81384,0.27989c0.09737,-0.0269 0.19927,-0.04249 0.30419,-0.04524c0.60662,-0.01589 1.11231,0.40298 1.22606,0.9732l0.10959,0.49521c0.2949,-0.59711 0.6765,-1.16301 1.07295,-1.68338l0.8892,-1.50792c0.21578,-0.38061 0.62049,-0.64367 1.08417,-0.65581c0.53691,-0.01406 0.99476,0.31246 1.17177,0.78306c0.22053,-0.20101 0.51054,-0.32712 0.82823,-0.33544c0.4621,-0.0121 0.86563,0.22807 1.08196,0.59525l0.36723,-0.56046c0.22257,-0.35046 0.61005,-0.58874 1.05082,-0.60028c0.582,-0.01524 1.07109,0.3697 1.2103,0.90454c0.08154,-0.13681 0.16775,-0.27 0.258,-0.39891l0.98089,-1.49702c0.22257,-0.35046 0.61005,-0.58874 1.05082,-0.60028c0.59488,-0.01558 1.0927,0.38693 1.21902,0.94027l0.23827,0.94684l0.34774,-1.05233c0.15709,-0.51489 0.63267,-0.89863 1.19497,-0.91336c0.53128,-0.01391 0.98515,0.30565 1.1661,0.7683l0.13893,-0.42042c0.15709,-0.51489 0.63267,-0.89863 1.19497,-0.91336c0.61581,-0.01613 1.12762,0.41578 1.23097,0.99924c0.03803,-0.08566 0.07568,-0.17205 0.1127,-0.25932l0.91341,-2.30743c0.17726,-0.47938 0.63486,-0.82943 1.17141,-0.84348c0.50764,-0.01329 0.9446,0.27786 1.14034,0.7074c0.22887,-0.26138 0.56126,-0.43078 0.93118,-0.44047c0.31769,-0.00832 0.60771,0.1026 0.82823,0.29206c0.17701,-0.47988 0.63485,-0.83038 1.17177,-0.84444c0.69036,-0.01808 1.25,0.5269 1.25,1.21726v2l-0.2701,0.00707c-0.00064,0.00195 -0.00127,0.0039 -0.0019,0.00585c0.10756,0.61868 0.17337,1.22628 0.21323,1.86984c0.33561,-0.58035 0.73242,-1.16903 1.12874,-1.84458l0.461,-1.85608c0.12632,-0.55996 0.62414,-0.98855 1.21902,-1.00413c0.5623,-0.01473 1.03788,0.3441 1.19497,0.85076l0.49089,1.4598l-0.43479,0.15632c0.2883,0.83143 0.43069,1.65291 0.49601,2.5056c0.01311,-0.03259 0.02625,-0.06552 0.03943,-0.09877l0.03234,-0.03825l-0.01205,-0.0056l1.05946,-2.18202c0.19883,-0.43216 0.63173,-0.73943 1.13376,-0.75258c0.30947,-0.0081 0.59267,0.09694 0.81097,0.27751l0.03103,-0.05165c0.21713,-0.37536 0.61888,-0.63404 1.07859,-0.64608c0.68174,-0.01785 1.236,0.51338 1.24974,1.19147l0.0588,2.49412l-0.24061,0.01197c0.09596,0.7381 0.15719,1.46633 0.19589,2.22578c0.20148,-0.5772 0.4213,-1.15697 0.63265,-1.75712l0.48797,-1.47668c0.15709,-0.51489 0.63267,-0.89863 1.19497,-0.91336c0.69036,-0.01808 1.25,0.5269 1.25,1.21726v2.5l-0.21208,0.00555c0.00085,0.22616 -0.01509,0.44965 -0.05195,0.66914c0.33598,-0.49049 0.73326,-0.94076 1.09022,-1.41741c0.46684,-0.62336 0.93541,-1.24543 1.40315,-1.86812l0.86877,-1.9566c0.1897,-0.45375 0.63401,-0.7803 1.15188,-0.79387c0.69036,-0.01808 1.25,0.5269 1.25,1.21726v1.49991c0.20892,-0.16239 0.4686,-0.26218 0.75,-0.26955c0.69036,-0.01808 1.25,0.5269 1.25,1.21726v0.29715l0.05503,-0.16653c0.15709,-0.51489 0.63267,-0.89863 1.19497,-0.91336c0.69036,-0.01808 1.25,0.5269 1.25,1.21726v1.5l-0.28811,0.00755c0.10824,0.60444 0.17798,1.20343 0.22244,1.80694c0.61233,-1.23201 1.39071,-2.4123 2.06182,-3.46493l0.69556,-1.08558c0.2213,-0.35696 0.61255,-0.60052 1.05829,-0.6122c0.69036,-0.01808 1.25,0.5269 1.25,1.21726v0.49582c0.04857,-0.007 0.09798,-0.01125 0.14809,-0.01256c0.58861,-0.01542 1.0822,0.3785 1.2149,0.92283l0.50082,1.8697c0.03916,-0.05957 0.07896,-0.11814 0.1193,-0.17562l0.55666,-1.9807c0.13929,-0.54201 0.62832,-0.95244 1.21023,-0.96768c0.08868,-0.00232 0.17521,0.00465 0.25867,0.02003l0.04271,-0.13377c0.15326,-0.52101 0.63189,-0.91069 1.19862,-0.92553c0.69036,-0.01808 1.25,0.5269 1.25,1.21726v0.34612l0.03098,-0.12473c0.12632,-0.55996 0.62414,-0.98855 1.21902,-1.00413c0.69036,-0.01808 1.25,0.5269 1.25,1.21726v1.89689c0.06936,0.22727 0.13421,0.45369 0.19211,0.67575l0.33887,-1.36434c0.12632,-0.55996 0.62414,-0.98855 1.21902,-1.00413c0.37832,-0.00991 0.71739,0.14928 0.94661,0.40883l0.46121,-0.80416c0.21368,-0.38833 0.6227,-0.65786 1.09218,-0.67015c0.53655,-0.01405 0.99415,0.31202 1.17141,0.78212l0.54959,1.35959c0.02722,-0.46484 0.01048,-1.23006 0.19125,-1.55766c0.37437,-0.67844 1.06082,-1.13296 1.59789,-1.69466l0.93904,-1.43315c0.22257,-0.35046 0.61005,-0.58874 1.05082,-0.60028c0.59488,-0.01558 1.0927,0.38693 1.21902,0.94027l0.6,2.38428l-0.11764,0.03249c0.08881,0.26364 0.16622,0.52718 0.23267,0.79828l0.32597,-1.63839c0.10493,-0.58699 0.61583,-1.04369 1.23027,-1.05978c0.09642,-0.00253 0.19028,0.00594 0.28043,0.02424c0.05355,-0.14931 0.10152,-0.29932 0.14153,-0.44971l0.29497,-0.18463l-0.09111,-0.08872l1,-1.02619c0.22621,-0.23213 0.53871,-0.38023 0.88388,-0.38927c0.69036,-0.01808 1.25,0.5269 1.25,1.21726v1.29715l0.05503,-0.16653c0.15709,-0.51489 0.63267,-0.89863 1.19497,-0.91336c0.61498,-0.01611 1.12624,0.41461 1.23055,0.99689c0.08678,-0.02134 0.17695,-0.03375 0.26945,-0.03618c0.12838,-0.00336 0.25224,0.01274 0.36882,0.04564c0.1986,-0.88994 0.47916,-1.78765 0.70782,-2.74656l0.01669,-0.03099l-0.00741,-0.00202l0.70641,-2.38739c0.14487,-0.53385 0.62988,-0.93615 1.20588,-0.95123c0.49812,-0.01305 0.9282,0.26706 1.12908,0.6834l0.98966,1.94397l-0.28134,0.14871c0.03676,0.06683 0.07287,0.13397 0.10827,0.20141c0.46559,-0.00016 0.86784,0.25591 1.07269,0.6377l1.07687,1.91588l-0.02623,0.01522c0.05147,0.08899 0.09931,0.18041 0.14301,0.27461c0.36947,0.79643 0.10141,1.77351 0.0304,2.65927c-0.02741,0.34186 -0.62918,1.14296 -0.32241,0.98321c0.96531,-0.50267 2.01107,-4.3043 2.33476,-5.13018l0.55438,-1.64299c0.15942,-0.51108 0.63309,-0.89113 1.19263,-0.90578c0.62742,-0.01643 1.14687,0.43221 1.23637,1.03239l0.40762,2.43504l-0.28839,0.05561c0.03303,0.1307 0.06435,0.26175 0.09383,0.39315c0.05298,-0.09504 0.10714,-0.1881 0.1619,-0.27884l1.48628,-2.21467c0.17031,0.54916 0.33368,1.10463 0.48117,1.6652l0.13121,-0.46709c0.13924,-0.54209 0.62831,-0.95259 1.21027,-0.96783c0.68478,-0.01793 1.24095,0.51813 1.24989,1.20056l0.00453,0.29595c0.22015,-0.19946 0.50898,-0.3245 0.82525,-0.33281c0.22805,-0.30958 0.59114,-0.51548 1.00009,-0.52619c0.61444,-0.01609 1.12533,0.41386 1.23027,0.99534l0.3014,1.49909c0.07322,-0.17208 0.14736,-0.35084 0.22144,-0.53767l0.55427,-1.64264c0.15942,-0.51108 0.63309,-0.89113 1.19263,-0.90578c0.69036,-0.01808 1.25,0.5269 1.25,1.21726v2.5l-0.20141,0.00527c0.02584,0.1691 0.04954,0.33849 0.07089,0.50811l0.16474,-0.3624c0.19216,-0.44821 0.63356,-0.76979 1.14738,-0.78325c0.6829,-0.01788 1.23789,0.51519 1.2498,1.19493l0.00214,0.10499c0.09939,-0.20246 0.20335,-0.40143 0.30925,-0.59615l0.887,-1.72186c0.20449,-0.4171 0.6293,-0.7112 1.1202,-0.72406c0.69036,-0.01808 1.25,0.5269 1.25,1.21726v0.25927l0.00707,-0.01786c0.17726,-0.47938 0.63486,-0.82943 1.17141,-0.84348c0.59636,-0.01562 1.09518,0.38894 1.21996,0.94441l0.04242,0.17118l0.09098,-0.3614c0.12771,-0.5581 0.62462,-0.9848 1.21816,-1.00034c0.62742,-0.01643 1.14687,0.43221 1.23637,1.03239l0.21235,1.26856c0.48949,-1.48144 1.1833,-3.12325 1.90189,-4.08441c0.57546,-0.76972 1.26961,-2.00629 2.2033,-1.86083c2.81759,0.43893 3.38868,4.66454 3.58139,7.10024c0.3326,-1.19694 0.87018,-2.3285 1.13529,-3.69994l0.01616,-0.02632l-0.00948,-0.00211l0.50341,-2.03641c0.12584,-0.56061 0.62397,-0.98984 1.21931,-1.00543c0.69036,-0.01808 1.25,0.5269 1.25,1.21726v1.99991c0.2785,0.2019 0.46678,0.51978 0.49602,0.88663l0.22519,2.47114l-0.25993,0.03044c0.27298,1.10505 0.41183,2.18053 0.48005,3.47795c0.25667,-0.46615 0.55834,-0.91096 0.88094,-1.36788c-0.07407,-0.18306 -0.14813,-0.36611 -0.2222,-0.54917c-0.06123,-0.14164 -0.09648,-0.2977 -0.09982,-0.46244c-0.00311,-0.05285 -0.00361,-0.10871 -0.00026,-0.16651v-1.35934c0,-0.00418 0.00002,-0.00835 0.00006,-0.01252l0.02001,-2.33464c0.00503,-0.68618 0.56273,-1.25538 1.24997,-1.27338c0.64424,-0.01687 1.17464,0.45661 1.24263,1.08098l0.12647,1.02393c0.12073,-0.60761 0.2714,-1.22099 0.39243,-1.83378l0.04284,-0.06632l-0.02145,-0.0065l0.50072,-1.53435c0.15569,-0.51715 0.6324,-0.90306 1.19632,-0.91783c0.499,-0.01307 0.92971,0.26805 1.13014,0.6856l0.38345,0.75687c0.22874,-0.2994 0.58554,-0.49745 0.9864,-0.50794c0.63664,-0.01667 1.16211,0.4455 1.24004,1.05894l0.35095,2.44749l-0.29359,0.04963c0.04032,0.1581 0.07684,0.3159 0.11001,0.47498c0.12664,0.04032 0.24408,0.10067 0.34861,0.17743c0.00932,-0.08412 0.01669,-0.16606 0.02173,-0.24545l0.1118,-0.17229l-0.05343,-0.01976l0.9098,-2.32109c0.17617,-0.48147 0.63484,-0.83346 1.17291,-0.84755c0.56602,-0.01482 1.04418,0.34887 1.19805,0.86085l0.13818,0.42317c0.07921,-0.01781 0.16111,-0.02821 0.24494,-0.0304c0.44077,-0.01154 0.82825,0.20644 1.05082,0.54524l0.98925,1.45796l-0.33655,0.23317c0.29694,0.41867 0.55131,0.86154 0.74225,1.32885c0.16703,-0.08713 0.35519,-0.13857 0.55423,-0.14379c0.26039,-0.00682 0.50219,0.06647 0.70238,0.19745c0.01843,-0.43447 0.04793,-0.91173 0.04762,-1.4671v-1.5c0,-0.69036 0.55964,-1.26466 1.25,-1.28274c0.5623,-0.01473 1.03788,0.3441 1.19497,0.85076l0.47713,1.41889c0.22049,-0.20083 0.51037,-0.32682 0.8279,-0.33513c0.44077,-0.01154 0.82825,0.20644 1.05082,0.54524l0.7422,1.09387c0.04449,-0.00596 0.08969,-0.0096 0.13546,-0.0108c0.55053,-0.01442 1.01793,0.32924 1.18469,0.81914l0.68366,1.86195l0.48416,-1.94931c0.12632,-0.55996 0.62414,-0.98855 1.21902,-1.00413c0.46802,-0.01226 0.87596,0.23427 1.09018,0.60944c0.06887,-0.08847 0.16044,-0.14119 0.28664,-0.13942c0.30689,0.00432 0.5738,0.12363 0.82085,0.30004c0.07511,-1.14998 0.54989,-2.24425 1.51513,-2.33387c1.31313,-0.12191 2.09501,0.2609 2.53719,0.76635v-0.11624c0,-0.69036 0.55964,-1.26466 1.25,-1.28274c0.29916,-0.00783 0.57377,0.09006 0.78893,0.25971c-0.01279,-0.24324 -0.01981,-0.48684 -0.02279,-0.73l0.11966,-0.1743l-0.07166,-0.02201l0.49089,-1.48552c0.15709,-0.51489 0.63267,-0.89863 1.19497,-0.91336c0.44431,-0.01164 0.83448,0.20996 1.05615,0.55343c0.13793,-0.05601 0.28754,-0.08862 0.44385,-0.09271c0.61444,-0.01609 1.12533,0.41386 1.23027,0.99534l0.0413,0.20542c0.2051,-0.15269 0.45664,-0.24603 0.72843,-0.25315c0.4089,-0.01071 0.77194,0.17612 1,0.47369c0.22806,-0.30951 0.5911,-0.51536 1,-0.52607c0.69036,-0.01808 1.25,0.5269 1.25,1.21726v0.55582c0.12678,0.09385 0.23441,0.21194 0.31624,0.3478l0.18376,0.29358v-0.21029c0,-0.69036 0.55964,-1.26466 1.25,-1.28274c0.4089,-0.01071 0.77194,0.17612 1,0.47369c0.22806,-0.30951 0.5911,-0.51536 1,-0.52607c0.5623,-0.01473 1.03788,0.3441 1.19497,0.85076l0.49089,1.4598l-0.24404,0.08774c0.08959,0.18093 0.17476,0.36389 0.25497,0.54879c0.05029,-0.09006 0.103,-0.17706 0.1571,-0.26014l0.45115,-1.36526c0.15709,-0.51489 0.63267,-0.89863 1.19497,-0.91336c0.52567,-0.01377 0.97555,0.29893 1.16028,0.75369l0.97345,2.24589l-0.10639,0.04838c0.07919,0.14869 0.15312,0.29819 0.22266,0.45132v-0.30821c0,-0.69036 0.55964,-1.26466 1.25,-1.28274c0.15631,-0.00409 0.30592,0.02068 0.44385,0.06947c0.22168,-0.35509 0.61184,-0.59711 1.05615,-0.60875c0.5623,-0.01473 1.03788,0.3441 1.19497,0.85076l0.49089,1.4598l-0.25666,0.09227c0.10604,0.25361 0.20494,0.51029 0.29626,0.76953c0.25746,-0.89824 0.63966,-1.76101 1.05961,-2.8216l0.03169,-0.03473l-0.01306,-0.00599l0.5595,-1.16867c0.19744,-0.43565 0.6322,-0.74602 1.13679,-0.75923c0.5623,-0.01473 1.03788,0.3441 1.19497,0.85076l0.49089,1.4598l-0.02664,0.00958c0.02653,0.06054 0.05147,0.12191 0.07465,0.18422c0.07046,0.18942 0.11105,0.38925 0.12975,0.5885l0.41737,-1.6804c0.12632,-0.55996 0.62414,-0.98855 1.21902,-1.00413c0.59488,-0.01558 1.0927,0.38693 1.21902,0.94027l0.28276,1.12363c0.15265,-0.07041 0.32113,-0.11165 0.49822,-0.11629c0.14456,-0.00379 0.28339,0.01712 0.41255,0.05888l0.70356,-0.72199c0.22621,-0.23213 0.53871,-0.38023 0.88388,-0.38927c0.42032,-0.01101 0.79218,0.1867 1.01879,0.49888c0.07702,-0.29924 0.15512,-0.59824 0.23121,-0.89769v-1.38392c0,-0.69036 0.55964,-1.26466 1.25,-1.28274c0.69036,-0.01808 1.25,0.5269 1.25,1.21726v1.34612l0.03098,-0.12473c0.12632,-0.55996 0.62414,-0.98855 1.21902,-1.00413c0.58089,-0.01521 1.06923,0.36823 1.2095,0.90149l0.32984,1.14581c0.14255,-0.06027 0.29798,-0.09542 0.46066,-0.09968c0.69036,-0.01808 1.25,0.5269 1.25,1.21726v1.12153l0.19918,-0.30399c0.22257,-0.35046 0.61005,-0.58874 1.05082,-0.60028c0.19826,-0.00519 0.38574,0.03606 0.55228,0.11385c0.04511,-1.30664 0.49146,-2.72706 2.94463,-1.60242c0.3187,0.14611 0.51226,0.40617 0.63813,0.72786c0.22455,-0.22117 0.5293,-0.36144 0.86495,-0.37023c0.15631,-0.00409 0.30592,0.02068 0.44385,0.06947c0.22168,-0.35509 0.61184,-0.59711 1.05615,-0.60875c0.62742,-0.01643 1.14687,0.43221 1.23637,1.03239l0.10057,0.60079c0.32687,-0.18992 0.66835,-0.27021 0.99673,-0.14894c0.83288,0.30759 0.93353,1.40827 1.18013,2.35089l0.2362,-0.18334c0.5462,-0.97526 1.2918,-1.78751 2.83861,-1.8212c0.42694,-0.0093 0.75727,0.24365 1.05922,0.57359c0.03224,-0.45426 0.1035,-0.90738 0.20114,-1.34724l0.18107,-0.16388l-0.07011,-0.0449l0.98925,-1.50978c0.22257,-0.35046 0.61005,-0.58874 1.05082,-0.60028c0.69036,-0.01808 1.25,0.5269 1.25,1.21726v0.6276l0.1928,-0.29991c0.22149,-0.356 0.61219,-0.59877 1.0572,-0.61043c0.5623,-0.01473 1.03788,0.3441 1.19497,0.85076l0.49089,1.4598l-0.20325,0.07307c0.06221,0.13744 0.12227,0.27581 0.18002,0.41508l0.11591,-0.10333l-0.04617,-0.02782l0.69802,-1.12842c0.21911,-0.36708 0.61617,-0.61893 1.06962,-0.6308c0.63664,-0.01667 1.16211,0.4455 1.24004,1.05894l0.15228,1.06199c0.17989,-0.10498 0.38712,-0.16753 0.60768,-0.1733c0.58682,-0.01537 1.0792,0.37611 1.21368,0.91787c0.17571,-0.41448 0.38722,-0.81432 0.61044,-1.18678l0.5514,-1.08989c0.2028,-0.42175 0.63013,-0.71991 1.12448,-0.73286c0.59488,-0.01558 1.0927,0.38693 1.21902,0.94027l0.42411,1.68534l0.72672,-1.47248c0.20043,-0.42806 0.63114,-0.73173 1.13014,-0.7448c0.63664,-0.01667 1.16211,0.4455 1.24004,1.05894l0.09816,0.68452c0.23092,-0.46062 0.53338,-0.80271 0.9893,-0.79246c0.9071,0.0204 1.459,0.87679 2.03314,1.68082c0.37413,-1.66531 1.61208,-3.7874 2.52711,-3.80716c1.00486,-0.0217 1.55591,1.06638 2.18577,1.96175c0.04327,-0.30212 0.10468,-0.60184 0.17648,-0.89383v-1.38484c0,-0.69036 0.55964,-1.26466 1.25,-1.28274c0.44077,-0.01154 0.82825,0.20644 1.05082,0.54524l0.98925,1.45796l-0.35394,0.24523c0.28122,0.40061 0.52654,0.82221 0.72101,1.26364l0.20899,-0.21446l0.34038,0.33147l1.02186,-0.6381c0.08419,0.38275 0.16837,0.76549 0.25256,1.14824l0.10011,-0.00262l0.11816,-0.18033c0.22257,-0.35046 0.61005,-0.58874 1.05082,-0.60028c0.41979,-0.01099 0.79125,0.18622 1.01794,0.49771l0.26304,-1.05906c0.12632,-0.55996 0.62414,-0.98855 1.21902,-1.00413c0.4089,-0.01071 0.77194,0.17612 1,0.47369c0.22806,-0.30951 0.5911,-0.51536 1,-0.52607c0.61444,-0.01609 1.12533,0.41386 1.23027,0.99534l0.48575,2.41602l-0.10963,0.0248c0.08269,0.21189 0.16302,0.42468 0.24067,0.63843c0.06348,-0.35035 0.14455,-0.69658 0.23346,-1.03233l0.63722,-2.40628c0.13297,-0.55093 0.62638,-0.97032 1.21473,-0.98573c0.5812,-0.01522 1.06975,0.36864 1.20972,0.90235l0.35479,1.23593c0.276,-0.50668 0.64474,-1.02387 0.83889,-1.49472l0.50385,-1.18886c0.18473,-0.46444 0.63461,-0.8007 1.16028,-0.81447c0.69036,-0.01808 1.25,0.5269 1.25,1.21726v1.29715l0.05503,-0.16653c0.15709,-0.51489 0.63267,-0.89863 1.19497,-0.91336c0.61444,-0.01609 1.12533,0.41386 1.23027,0.99534l0.30391,1.51157c0.35198,-0.90858 0.86544,-1.87356 0.93949,-2.03523l0.19855,-0.11945l-0.05609,-0.05462l1,-1.02619l0.32558,0.31705l1.03666,-0.62369c0.09366,0.38047 0.18454,0.76317 0.26908,1.1478l0.50256,-0.01316v0.99991c0.20892,-0.16239 0.4686,-0.26218 0.75,-0.26955c0.59488,-0.01558 1.0927,0.38693 1.21902,0.94027l0.2092,0.83134c0.3908,-1.0041 1.03772,-2.01279 1.40764,-2.88615l0.50385,-1.18886c0.18473,-0.46444 0.63461,-0.8007 1.16028,-0.81447c0.61444,-0.01609 1.12533,0.41386 1.23027,0.99534l0.48575,2.41602l-0.24868,0.05625c0.42052,1.37586 0.70784,2.73651 0.94277,4.20923c0.06853,-0.2072 0.14204,-0.41133 0.21811,-0.61112l0.69463,-1.82423c0.17295,-0.48751 0.6347,-0.84513 1.17716,-0.85934c0.58089,-0.01521 1.06923,0.36823 1.2095,0.90149l0.10536,0.36601l0.44516,-2.23748c0.10493,-0.58699 0.61583,-1.04369 1.23027,-1.05978c0.49264,-0.0129 0.91872,0.26093 1.12236,0.6697l0.85381,1.62778l0.33857,-1.02459c0.15709,-0.51489 0.63267,-0.89863 1.19497,-0.91336c0.4089,-0.01071 0.77194,0.17612 1,0.47369c0.22806,-0.30951 0.5911,-0.51536 1,-0.52607c0.5623,-0.01473 1.03788,0.3441 1.19497,0.85076l0.43128,1.28254c0.23522,-0.5364 0.53626,-1.0462 0.79261,-1.57407l0.05811,-0.05613l-0.01704,-0.01091l0.98925,-1.50978c0.22257,-0.35046 0.61005,-0.58874 1.05082,-0.60028c0.5623,-0.01473 1.03788,0.3441 1.19497,0.85076l0.70851,2.10696c0.07841,-0.1898 0.14781,-0.36795 0.20124,-0.52984l0.70032,-2.11929c0.15709,-0.51489 0.63267,-0.89863 1.19497,-0.91336c0.44077,-0.01154 0.82825,0.20644 1.05082,0.54524l0.98925,1.45796l-0.03149,0.02182c0.06828,0.09743 0.13123,0.1989 0.1878,0.30523c0.01547,0.02907 0.0296,0.05852 0.04248,0.08834l0.13101,-0.26544c0.20043,-0.42806 0.63114,-0.73173 1.13014,-0.7448c0.63664,-0.01667 1.16211,0.4455 1.24004,1.05894l0.35095,2.44749l-0.11761,0.01988c0.034,0.10903 0.06744,0.21823 0.10027,0.32761c0.10516,-0.26744 0.2216,-0.52803 0.34316,-0.77797l0.06491,-0.05671l-0.02178,-0.01395l0.98925,-1.50978c0.22257,-0.35046 0.61005,-0.58874 1.05082,-0.60028c0.53691,-0.01406 0.99476,0.31246 1.17177,0.78306c0.22053,-0.20101 0.51054,-0.32712 0.82823,-0.33544c0.17778,-0.00466 0.34688,0.02803 0.5,0.09092c0.15312,-0.07091 0.32222,-0.11245 0.5,-0.1171c0.16932,-0.00443 0.33078,0.02501 0.47804,0.08215l0.22918,-0.14345l-0.09111,-0.08872l1,-1.02619c0.22621,-0.23213 0.53871,-0.38023 0.88388,-0.38927c0.69036,-0.01808 1.25,0.5269 1.25,1.21726v2l-0.00996,0.00026c0.03802,0.16583 0.07564,0.33178 0.11283,0.49782l0.01033,-0.02158c0.19744,-0.43565 0.6322,-0.74602 1.13679,-0.75923c0.4089,-0.01071 0.77194,0.17612 1,0.47369c0.22806,-0.30951 0.5911,-0.51536 1,-0.52607c0.31139,-0.00816 0.59619,0.09825 0.81504,0.28088c0.012,-0.02042 0.02419,-0.04068 0.03655,-0.06078l0.45345,-1.37223c0.15709,-0.51489 0.63267,-0.89863 1.19497,-0.91336c0.5623,-0.01473 1.03788,0.3441 1.19497,0.85076l0.49089,1.4598l-0.28723,0.10326c0.07585,0.19054 0.1419,0.38349 0.19569,0.57866c0.50311,-0.65067 1.18104,-1.17471 1.77359,-1.22176c0.48536,-0.03853 0.78478,0.31063 1.02437,0.78451c0.20896,-0.40392 0.6266,-0.68669 1.10773,-0.69929c0.60575,-0.01586 1.11087,0.40179 1.22557,0.97077l0.29326,1.31197c0.32955,-1.32298 0.90027,-2.71478 1.69398,-2.83344c0.61414,-0.09182 1.09202,0.35819 1.56021,0.84669c0.02062,-0.04476 0.04136,-0.08841 0.06209,-0.1308l0.46992,-1.42207c0.15709,-0.51489 0.63267,-0.89863 1.19497,-0.91336c0.69036,-0.01808 1.25,0.5269 1.25,1.21726v1.5l-0.06857,0.0018c0.04633,0.14482 0.09179,0.2897 0.13648,0.43479c0.12558,-0.23671 0.26989,-0.4793 0.4321,-0.73081v-1.21887c0,-0.69036 0.55964,-1.26466 1.25,-1.28274c0.69036,-0.01808 1.25,0.5269 1.25,1.21726v2.5l-0.31324,0.0082c0.11413,0.66597 0.20379,1.3246 0.29114,2.00927c0.21257,-0.17275 0.48069,-0.27948 0.7721,-0.28711c0.59488,-0.01558 1.0927,0.38693 1.21902,0.94027l0.32345,1.28532c0.27268,-1.18341 0.56015,-2.36255 0.61707,-3.42229l0.09191,-1.6728c0.03158,-0.66307 0.5785,-1.20461 1.24856,-1.22216c0.69036,-0.01808 1.25,0.5269 1.25,1.21726v1.3727l0.421,-1.71587c0.12508,-0.56162 0.6237,-0.99189 1.21978,-1.00751c0.5995,-0.0157 1.10043,0.39321 1.2219,0.95321l0.26558,1.108c0.39008,-1.83954 1.25885,-3.76379 2.78278,-4.03541c1.06233,-0.18935 1.65745,0.92208 2.0022,2.14847c0.22465,-0.62217 0.45957,-1.22381 0.60338,-1.75721l0.07508,-0.08218l-0.03553,-0.01539l0.54617,-1.20333c0.192,-0.44858 0.6336,-0.77047 1.14768,-0.78394c0.62742,-0.01643 1.14687,0.43221 1.23637,1.03239l0.06405,0.3826c0.02015,-0.06961 0.03895,-0.13818 0.05616,-0.20558l0.16039,-0.1545l-0.05703,-0.03653l0.98925,-1.50978c0.22257,-0.35046 0.61005,-0.58874 1.05082,-0.60028c0.60575,-0.01586 1.11087,0.40179 1.22557,0.97077l0.53699,2.40237l-0.1819,0.04518c0.29713,0.83183 0.58258,1.66255 0.89124,2.50532c0.06357,-0.4614 0.16111,-0.91984 0.27811,-1.36682v-1.37885c0,-0.69036 0.55964,-1.26466 1.25,-1.28274c0.59488,-0.01558 1.0927,0.38693 1.21902,0.94027l0.29207,1.16064l0.31151,-0.81946c0.17276,-0.48785 0.63469,-0.8458 1.1774,-0.86002c0.61444,-0.01609 1.12533,0.41386 1.23027,0.99534l0.37721,1.87616c0.22612,-0.2315 0.53818,-0.37914 0.88282,-0.38817c0.56034,-0.01468 1.03456,0.3416 1.19331,0.84547l0.57346,-1.44868c0.17726,-0.47938 0.63486,-0.82943 1.17141,-0.84348c0.51322,-0.01344 0.95421,0.28431 1.14672,0.72164l0.54498,1.16629c0.36915,-0.11985 0.92427,-0.03027 1.74206,0.39698c0.17251,0.09012 0.31343,0.20878 0.43018,0.34929c0.44529,-1.14025 1.08733,-2.2822 1.50362,-3.54159l0.48495,-1.95248c0.12632,-0.55996 0.62414,-0.98855 1.21902,-1.00413c0.59488,-0.01558 1.0927,0.38693 1.21902,0.94027l0.49366,1.9617l-0.27599,0.07623c0.30303,0.84433 0.50033,1.66861 0.62306,2.54759c0.13693,-0.05513 0.2853,-0.0872 0.44025,-0.09126c0.59488,-0.01558 1.0927,0.38693 1.21902,0.94027l0.02501,0.09939c0.01701,-0.05168 0.03393,-0.10385 0.05074,-0.15653l0.48621,-1.95758c0.12632,-0.55996 0.62414,-0.98855 1.21902,-1.00413c0.69036,-0.01808 1.25,0.5269 1.25,1.21726v2l-0.10036,0.00263c0.23215,0.84626 0.44613,1.69401 0.6584,2.55472c0.28139,-0.90945 0.69985,-1.78744 1.09465,-2.6993l0.08431,-0.07887l-0.02706,-0.01733l0.98925,-1.50978c0.22257,-0.35046 0.61005,-0.58874 1.05082,-0.60028c0.61444,-0.01609 1.12533,0.41386 1.23027,0.99534l0.48575,2.41602l-0.16685,0.03774c0.20705,0.69435 0.36573,1.3815 0.47855,2.11085l0.24671,-1.11665c0.11471,-0.57499 0.61982,-1.0191 1.22557,-1.03497c0.31769,-0.00832 0.60771,0.1026 0.82823,0.29206c0.17701,-0.47988 0.63485,-0.83038 1.17177,-0.84444c0.61444,-0.01609 1.12533,0.41386 1.23027,0.99534l0.21798,1.08421c0.06811,-0.25573 0.1299,-0.52319 0.18044,-0.80533l0.12401,-1.65306c0.04268,-0.65282 0.5848,-1.18239 1.24729,-1.19974c0.69036,-0.01808 1.25,0.5269 1.25,1.21726v0.77066c0.02801,0.0063 0.05591,0.01379 0.08367,0.0225c0.38538,0.12105 0.61454,0.41957 0.77262,0.79882c0.20769,-0.45598 0.45278,-0.9326 0.68731,-1.47421l0.46642,-2.34431c0.10493,-0.58699 0.61583,-1.04369 1.23027,-1.05978c0.63477,-0.01662 1.15903,0.4428 1.23934,1.05356l0.21218,1.43118l0.42805,-0.86731c0.20043,-0.42806 0.63114,-0.73173 1.13014,-0.7448c0.69033,-0.01808 1.24995,0.52685 1.25,1.21717c0.20892,-0.16239 0.4686,-0.26218 0.75,-0.26955c0.69036,-0.01808 1.25,0.5269 1.25,1.21726v1.5l-0.22452,0.00588c0.07886,0.36823 0.13986,0.73957 0.17824,1.11291c0.34714,-0.9891 0.68727,-1.97695 1.08135,-2.97219l0.03231,-0.03444l-0.01368,-0.00627l0.5595,-1.16867c0.19744,-0.43565 0.6322,-0.74602 1.13679,-0.75923c0.59488,-0.01558 1.0927,0.38693 1.21902,0.94027l0.49366,1.9617l-0.14592,0.0403c0.37116,0.87371 0.69301,1.74989 0.99077,2.67651c0.43503,-2.07442 1.87167,-3.86244 4.04018,-1.70365c0.29549,-0.55246 0.62184,-1.08169 0.84694,-1.53442l0.35066,-1.16954c0.14632,-0.53168 0.63026,-0.93185 1.2047,-0.94689c0.59488,-0.01558 1.0927,0.38693 1.21902,0.94027l0.40486,1.60884c0.7111,-0.9743 2.1107,-1.71479 2.70979,-2.11725l0.91633,1.90399v-0.22334c0,-0.69036 0.55964,-1.26466 1.25,-1.28274c0.53691,-0.01406 0.99476,0.31246 1.17177,0.78306c0.22053,-0.20101 0.51054,-0.32712 0.82823,-0.33544c0.499,-0.01307 0.92971,0.26805 1.13014,0.6856l0.41194,0.81309c0.64678,-2.70258 3.45142,-5.93808 5.35126,-2.43555c0.42935,-0.68604 0.97253,-1.1967 1.52898,-1.28131c1.50006,-0.2281 2.16008,1.67161 2.49219,3.2143c0.3248,-0.29824 0.84624,-0.44641 1.66315,-0.32313c1.12869,0.17034 1.73373,1.44547 2.09668,2.75774c0.20599,-0.41282 0.62848,-0.70324 1.11622,-0.71601c0.57444,-0.01504 1.05838,0.35976 1.2047,0.88379c0.06986,-0.00638 0.14235,-0.01169 0.21754,-0.01589c0.43101,-0.02404 0.80055,0.14517 1.14088,0.40621c0.35226,-0.20715 0.92848,-0.37382 1.81264,-0.47164c2.71445,-0.30034 3.01962,1.21932 3.16894,2.69823c0.00378,-0.02394 0.00854,-0.04605 0.01437,-0.06601c0.22525,-0.7709 0.40853,-1.7277 1.09134,-2.15756c0.51851,-0.32643 1.16636,0.38279 1.77183,0.35507c0.97164,-0.0445 0.52905,-2.55502 1.5,-2.53928c0.80906,0.01311 1.4018,0.63123 1.99147,1.25796c0.36535,-1.53432 1.7042,-3.37899 2.70421,-3.41103c0.33577,-0.01075 0.62806,0.10167 0.89531,0.28504c0.2499,-0.82636 0.70059,-1.68851 0.98127,-2.41383l0.03122,-0.03494l-0.01259,-0.00577l0.5595,-1.16867c0.19744,-0.43565 0.6322,-0.74602 1.13679,-0.75923c0.53655,-0.01405 0.99415,0.31202 1.17141,0.78212l0.91766,2.27013l-0.149,0.0635c0.181,0.33406 0.35581,0.66993 0.52627,1.01074c0.33585,-0.14046 0.79329,-0.22174 1.40414,-0.22111c0.80337,0.00081 1.38352,0.60914 1.94791,1.26037l0.55146,-1.11736c0.20043,-0.42806 0.63114,-0.73173 1.13014,-0.7448c0.499,-0.01307 0.92971,0.26805 1.13014,0.6856l0.55517,1.0958c0.03564,-0.159 0.07809,-0.31557 0.12696,-0.46852l0.00355,-0.00517l-0.00169,-0.00052l0.49089,-1.48552c0.15709,-0.51489 0.63267,-0.89863 1.19497,-0.91336c0.53655,-0.01405 0.99415,0.31202 1.17141,0.78212l0.58336,1.44313c0.61159,-0.75321 1.06366,-1.80456 1.94546,-1.80601c0.59272,-0.00097 0.89077,0.5994 1.12191,1.25265c0.78846,-1.01057 1.60793,-1.79497 2.08706,-1.84768c1.58298,-0.17415 2.33567,1.1517 2.81123,2.4092c0.3828,-1.57024 1.30737,-3.25931 2.90275,-3.05792c0.41398,0.05226 0.97983,0.67762 1.52913,1.43878l0.89334,-1.06563c0.22929,-0.27679 0.57175,-0.45765 0.95436,-0.46767c0.64929,-0.017 1.18295,0.46406 1.24415,1.09569c0.2578,0.04877 0.48605,0.17781 0.6578,0.36092c0.17829,-0.2933 0.29592,-0.47816 0.31086,-0.48112c0.37193,-0.07357 0.79105,0.06289 1.19807,0.33254c0.0099,-0.00544 0.01993,-0.01083 0.0301,-0.01619c1.10549,-0.5817 1.66444,0.49055 1.67684,0.51468c0.14233,0.00517 0.29972,0.0396 0.47435,0.10127c0.22753,-0.37727 0.58586,-0.67761 1.15315,-0.62019l0.12453,-0.25232c0.20043,-0.42806 0.63114,-0.73173 1.13014,-0.7448c0.69036,-0.01808 1.25,0.5269 1.25,1.21726c0,0.02116 -0.00053,0.0422 -0.00156,0.06313l-0.01546,0.35379c0.02754,-0.01632 0.05507,-0.03264 0.08256,-0.049c0.39002,-0.60719 0.94694,-1.34543 1.513,-2.01908c0.00832,-1.05836 -0.26281,-2.29414 0.57474,-2.75362c1.28372,-0.70424 2.30294,-0.03975 3.20311,1.05105l0.05173,-0.40356c0.07079,-0.62503 0.59983,-1.12307 1.24195,-1.13989c0.35907,-0.0094 0.68277,0.13352 0.91077,0.36999l1.2119,1.25118c0.27087,-0.11607 0.5566,-0.19803 0.8553,-0.23906c0.76205,-0.10467 0.68387,1.60809 1.43026,1.76405c0.74738,0.15617 1.39133,-0.68608 2.087,-1.02913l0.15497,0.57817l0.05446,-0.1648l0.20904,0.06421c0.002,-0.31811 0.07537,-0.59259 0.33287,-0.75449c0.87596,-0.5507 2.0405,0.08683 3.06075,0.13024l1.6765,1.30488c0,0 0.88388,0.86073 0,1.76777c-0.88388,0.90703 -1.76777,0.0463 -1.76777,0.0463l-0.3235,-0.64274c-0.33163,-0.12146 -0.6969,-0.4933 -1.02188,-0.56528l-0.51934,1.57161c1.38289,0.93623 2.91968,1.51059 4.7486,1.427c0.32439,-0.0085 4.12189,-0.1177 4.28719,-0.07884c3.25718,0.76563 5.16176,4.08006 7.56048,6.09573c3.0817,2.58959 7.26545,4.7917 9.66676,8.11359c0.48668,0.67325 0.52045,1.60874 0.98685,2.29647c0.89517,1.31997 2.37093,2.13741 3.43894,3.32c1.6763,1.85613 2.6712,3.99494 4.07383,5.98612c1.84547,2.61985 4.54835,3.99109 6.07248,6.95383c2.14446,3.27819 4.62787,6.67932 6.4409,10.12835c1.64179,3.12327 1.55256,6.5335 2.3194,9.86643c1.09696,4.76775 3.74316,9.27279 4.39159,14.17325c0.6608,4.99394 -0.82035,10.41296 -1.79587,15.3032c-0.6505,3.26094 -1.00537,6.80819 -1.99963,9.98732c-1.27266,4.06928 -3.87345,7.62101 -5.67001,11.45962c-4.23103,9.0402 -9.15389,18.26925 -16.41573,25.29672c-2.51642,2.43505 -4.97902,4.81289 -7.99775,6.63448c-1.41149,0.85174 -3.08243,1.24272 -4.41568,2.21497c-1.92716,1.40536 -3.56579,3.61737 -5.3962,5.19277c-4.69533,4.04122 -9.26512,8.16794 -13.81407,12.3372c0.63068,-0.38377 1.30634,-0.76176 2.03167,-1.14386zM643.19043,347.39985c0.85986,-0.52356 1.65204,-1.21167 2.0769,-2.08897c0.18025,-0.37219 0.83816,-1.07109 0.44052,-1.15769c-0.46506,-0.10129 -0.65554,0.71924 -1.02796,1.02974c-1.10073,0.91774 -3.62373,2.43697 -4.66216,3.85775l0.09404,-0.04948c1.10941,-0.99799 2.30315,-1.8176 3.07865,-1.59135zM624.02273,191.7676c-0.05644,-0.13783 -0.09914,-0.28327 -0.12584,-0.44511c-0.2244,0.46053 -0.55606,0.86877 -0.84192,1.29717l-0.87859,2.21948c0.58159,-1.22339 1.16653,-2.19784 1.84635,-3.07155zM614.49868,193.62246c0.01902,-0.04631 0.03886,-0.09315 0.05949,-0.14047c-0.02031,-0.06714 -0.03945,-0.1349 -0.05768,-0.20277c-0.02664,0.05082 -0.05507,0.09851 -0.08531,0.14342c0.02945,0.06601 0.05738,0.1326 0.08351,0.19981zM477.84111,198.10803c0.00928,-0.04384 0.01866,-0.08772 0.02813,-0.13163l-0.06458,0.01783c0.01237,0.03788 0.02452,0.07581 0.03644,0.1138zM437.20442,191.97994c0.02646,-0.06151 0.05259,-0.12232 0.07823,-0.18227l-0.12312,0.04426c0.01522,0.04593 0.03019,0.09193 0.04489,0.138zM366.22649,196.06287c-0.00631,0.00898 -0.01264,0.01794 -0.01899,0.0269l0.01938,0.01241c-0.00016,-0.0131 -0.00029,-0.0262 -0.00039,-0.03931zM292.32372,194.78586l0.01323,-0.02388l-0.02396,-0.00536zM346.89639,193.07205c-0.00743,-0.03187 -0.02273,-0.03818 -0.04616,-0.02187zM264.25,194.55312c-0.04138,0.06289 -0.08345,0.12587 -0.12625,0.189c0.05171,0.09424 0.09815,0.20377 0.12625,0.32528zM258.94609,188.17608c-0.11133,-0.17818 0.08277,0.43212 0.02013,0.63691c-0.09893,0.32348 -0.21399,0.64227 -0.33978,0.95733c0.35419,0.31271 0.79838,0.70489 1.28204,1.13191c-0.17869,-0.98106 -0.46616,-1.93196 -0.96239,-2.72617z" fill="#606060" stroke-width="0.5"/></g></g></svg>