<svg version="1.1" xmlns="http://www.w3.org/2000/svg" xmlns:xlink="http://www.w3.org/1999/xlink" width="213.18203" height="318.19713" viewBox="0,0,213.18203,318.19713"><defs><linearGradient x1="318.60651" y1="-11.58461" x2="318.60651" y2="191.19029" gradientUnits="userSpaceOnUse" id="color-1"><stop offset="0" stop-color="#3e2119"/><stop offset="1" stop-color="#3a1f18"/></linearGradient></defs><g transform="translate(-214.52362,11.58461)"><g stroke-miterlimit="10"><g stroke-linecap="butt"><g><g stroke="none" stroke-width="0.5"><path d="M318.07947,281.98254c-2.70421,0 -4.74147,-3.30434 -5.11994,-6.17152c-0.91142,0.96355 -2.20202,1.5647 -3.63302,1.5647c-0.45533,0 -0.89644,-0.06086 -1.31565,-0.1749c-0.23026,0.33618 -0.47614,0.66463 -0.73863,0.97418c0.94464,1.36685 1.39758,2.96613 0.74406,4.37815c0.08963,0.92465 0.00953,1.8857 -0.24095,2.78404c0.00873,0.22184 0.01037,0.4511 0.00453,0.68787c-0.01475,0.59829 -0.14482,1.16086 -0.36484,1.67969c-0.61002,1.93 -2.35938,3.35376 -4.45882,3.48201c-2.45046,0.54896 -4.94627,-0.38066 -5.09686,-3.54312c-0.13835,-0.45819 -0.21272,-0.94414 -0.21272,-1.44746c0,-0.55175 0.08937,-1.08262 0.25442,-1.57894c-0.38408,-1.0945 -0.53238,-2.19618 -0.35851,-3.08114l-0.35659,-1.55912c0.06013,-0.06013 0.1196,-0.12238 0.17847,-0.18652c-1.47246,-2.55721 -1.78348,-6.17186 0.29853,-6.9413c0.28744,-0.34255 0.61996,-0.646 0.98843,-0.90122c0.09531,-0.18668 0.20201,-0.36657 0.31918,-0.53877c0.10867,-0.31158 0.2188,-0.6219 0.32832,-0.93295c-0.00493,-0.03895 -0.00941,-0.07804 -0.01344,-0.11726c-1.32114,-2.29119 -2.18589,-5.53909 -0.48719,-6.50978c0.239,-0.40495 0.53345,-0.77328 0.87291,-1.09453c-0.33784,-1.038 -0.55305,-2.11654 -0.57332,-3.07139c-0.1357,-0.14271 -0.25995,-0.3102 -0.37091,-0.50438c-1.47371,-0.86976 -2.46233,-2.47396 -2.46233,-4.30908c0,-1.03653 0.3154,-1.99939 0.85547,-2.79784c-0.00054,0 -0.00108,0 -0.00161,0c-1.38071,0 -2.5,-1.11929 -2.5,-2.5c0,-0.1881 0.02077,-0.37135 0.06015,-0.54758c-0.5967,-0.45688 -0.98152,-1.17659 -0.98152,-1.98617c0,-1.38071 1.11929,-2.5 2.5,-2.5c1.19033,0 2.18635,0.83189 2.4384,1.946c0.43155,-0.75 1.24101,-1.25498 2.16842,-1.25498c0.11729,0 0.2327,0.00808 0.34569,0.02371c0.458,-0.57588 1.16475,-0.94507 1.95772,-0.94507c0.46661,0 0.90335,0.12783 1.27714,0.35038c0.42908,-0.75923 1.24368,-1.27175 2.17798,-1.27175c0.11723,0 0.23258,0.00807 0.34551,0.02368c0.11294,-0.01561 0.22828,-0.02368 0.34551,-0.02368c0.32927,0 0.64367,0.06366 0.93157,0.17933c0.39384,-0.25899 0.86524,-0.40967 1.37184,-0.40967c0.32538,0 0.63625,0.06216 0.92136,0.17526c0.28512,-0.1131 0.59598,-0.17526 0.92136,-0.17526c0.24577,0 0.48326,0.03546 0.70762,0.10155c0.45623,-0.48774 1.10558,-0.79258 1.82613,-0.79258c0.43289,0 0.84009,0.11003 1.19515,0.30364c0.45467,-0.47123 1.09275,-0.76432 1.79929,-0.76432c0.19818,0 0.39098,0.02306 0.57585,0.06664c0.04723,-0.01113 0.09497,-0.02093 0.14319,-0.02934c0.86664,-0.72137 1.98103,-1.15526 3.19675,-1.15526c0.24145,0 0.47891,0.01711 0.71122,0.0502c0.1422,-0.1315 0.2992,-0.24811 0.47423,-0.34656c1.34391,-0.75596 3.14953,-1.16509 4.84664,-1.02644c0.16657,-0.13446 0.35075,-0.24797 0.54854,-0.33653c0.4473,-0.42033 1.0494,-0.67782 1.71164,-0.67782c0.83247,0 1.56991,0.40689 2.02429,1.03264c0.23379,-0.07233 0.48225,-0.11127 0.73981,-0.11127c0.54559,0 1.05035,0.17477 1.46137,0.47138c0.02451,-0.01166 0.04924,-0.02292 0.07418,-0.0338c0.45859,-0.549 1.14829,-0.89826 1.91957,-0.89826c0.15738,0 0.31136,0.01454 0.46068,0.04236c0.14932,-0.02781 0.3033,-0.04236 0.46068,-0.04236c0.54834,0 1.05546,0.17654 1.4676,0.47588c0.07026,0.01889 0.14019,0.03904 0.20975,0.06045c0.42565,-0.33589 0.96313,-0.53634 1.54743,-0.53634c0.89498,0 1.68012,0.47029 2.12177,1.17722c0.33269,-0.16383 0.7071,-0.25585 1.103,-0.25585c1.38071,0 2.5,1.11929 2.5,2.5c0,0.86701 -0.44136,1.63094 -1.11165,2.07937c-0.08689,0.12988 -0.18562,0.25116 -0.29466,0.3623c0.14356,0.46598 0.22085,0.96103 0.22085,1.47412c0,1.62714 -0.77725,3.07275 -1.98072,3.98581c-0.03287,0.03182 -0.06654,0.06283 -0.10107,0.09298c0.00578,0.09849 0.00872,0.19775 0.00872,0.29769c0,2.76142 -2.23858,5 -5,5c-0.17808,0 -0.35399,-0.00931 -0.52726,-0.02747c-0.79842,0.25371 -2.43996,0.65218 -4.21236,1.03112c-1.58397,2.68225 -4.4162,5.34059 -6.98313,5.07333c-0.23143,0.96325 -0.74168,1.81796 -1.44062,2.47401c0.70352,1.52519 0.7659,3.45979 0.19975,5.1195c0.61921,1.84013 0.35482,4.15244 -0.63032,5.92914c0.05586,3.10301 -1.92311,6.65926 -5.29402,6.65926z" fill="#c1788e"/><path d="M310.46475,251.65177c0.22361,0.44721 -0.2236,0.67082 -0.2236,0.67082l-0.33074,0.13668c-1.16845,2.61832 -6.12372,2.43491 -7.0471,-0.19544c0,0 -0.15811,-0.47434 0.31623,-0.63245c0.47434,-0.15812 0.63245,0.31623 0.63245,0.31623c0.68583,2.21745 4.46424,1.51776 5.39131,-0.19544l0.59063,-0.324c0,0 0.44721,-0.22361 0.67082,0.22361z" fill-opacity="0.12157" fill="#59434a"/><path d="M321.50514,248.5608c0.02664,-0.14391 0.12525,-0.4102 0.49013,-0.4102c0.5,0 0.5,0.5 0.5,0.5l-0.27639,0.67755c-1.60661,0.8033 -3.71339,1.19549 -5.52145,1.2045c0,0 -0.5,0 -0.5,-0.5c0,-0.5 0.5,-0.5 0.5,-0.5c1.56354,0.0093 3.37023,-0.31842 4.80771,-0.97185z" fill-opacity="0.12157" fill="#59434a"/><path d="M337.92812,247.26855c0,0.5 -0.5,0.5 -0.5,0.5l-0.23708,-0.05279c-1.91482,0.95194 -4.54398,1.19749 -6.67315,1.20449c0,0 -0.5,0 -0.5,-0.5c0,-0.5 0.5,-0.5 0.5,-0.5c1.96625,0.00745 4.46131,-0.21081 6.22594,-1.09892l0.68429,-0.05279c0,0 0.5,0 0.5,0.5z" fill-opacity="0.12157" fill="#59434a"/><path d="M332.1696,256.02151c0,0.5 -0.5,0.5 -0.5,0.5l-0.45395,-0.05278c-0.71247,-0.35624 -1.36312,-0.7985 -2.07306,-1.1517c0,0 -0.44722,-0.22361 -0.22361,-0.67082c0.22361,-0.44721 0.67082,-0.22361 0.67082,-0.22361c0.7098,0.35647 1.36028,0.79531 2.07307,1.1517l0.00673,-0.05279c0,0 0.5,0 0.5,0.5z" fill-opacity="0.12157" fill="#59434a"/><path d="M325.20658,256.71927c0.22361,0.44722 -0.2236,0.67082 -0.2236,0.67082l-0.56941,0.26975c-1.70939,0.02206 -4.98462,0.70078 -5.2217,-1.40799c0,0 0,-0.5 0.5,-0.5c0.5,0 0.5,0.5 0.5,0.5c-0.21369,0.70527 3.21795,0.42191 3.99194,0.43474l0.35195,-0.19093c0,0 0.44721,-0.22361 0.67082,0.22361z" fill-opacity="0.12157" fill="#59434a"/><path d="M306.98379,265.46549c0,-0.5 0.5,-0.5 0.5,-0.5l-0.04372,0.0818c2.40195,-1.57254 2.76512,-3.44395 2.76847,-6.22237h-0.19099c-1.94632,0 -3.83669,-0.23034 -5.75853,-0.23034c0,0 -0.5,0 -0.5,-0.5c0,-0.5 0.5,-0.5 0.5,-0.5c1.92498,0 3.81069,0.23034 5.75853,0.23034h0.23034c0,0 0.47343,0 0.49893,0.46068c0.00002,0.00034 0.00004,0.00067 0.00006,0.00101c0.4617,0.02486 0.46169,0.49899 0.46169,0.49899c0,3.13285 -0.5061,5.31742 -3.22036,7.09809l-0.50441,0.0818c0,0 -0.5,0 -0.5,-0.5z" fill-opacity="0.12157" fill="#59434a"/><path d="M306.29276,278.36459c0,-0.5 0.5,-0.5 0.5,-0.5l0.23708,0.05278c1.81496,-0.87405 1.10565,-3.87519 1.10565,-5.54165c0,-0.49168 0.28302,-2.23388 -0.18428,-2.31688c0,0 -0.44722,-0.2236 -0.22361,-0.67082c0.22361,-0.44722 0.67082,-0.22361 0.67082,-0.22361c1.11723,0.69943 0.73708,1.9883 0.73708,3.2113c0,2.21184 0.68001,5.23497 -1.65844,6.43608l-0.68429,0.05279c0,0 -0.5,0 -0.5,-0.5z" fill-opacity="0.12157" fill="#59434a"/><path d="M314.09145,267.52491c0.47434,0.15812 0.31622,0.63245 0.31622,0.63245l-0.24274,0.72425c-0.97788,1.95576 -0.65296,4.12406 -0.65296,6.2582c0,0 0,0.5 -0.5,0.5c-0.5,0 -0.5,-0.5 -0.5,-0.5c0,-2.26972 -0.31311,-4.55651 0.72908,-6.64089l0.21794,-0.65779c0,0 0.15812,-0.47434 0.63245,-0.31623z" fill-opacity="0.12157" fill="#59434a"/><path d="M317.38172,261.33283c0.44722,0.22361 0.22361,0.67082 0.22361,0.67082l-0.27193,0.52943c-0.4905,0.49633 -1.3281,1.1867 -1.5708,1.77398c0,0 -0.2236,0.44721 -0.67082,0.22361c-0.44722,-0.22361 -0.2236,-0.67082 -0.2236,-0.67082c0.38337,-0.69885 1.06612,-1.33119 1.65398,-1.91147l0.18875,-0.39194c0,0 0.2236,-0.44721 0.67082,-0.2236z" fill-opacity="0.12157" fill="#59434a"/><path d="M305.36367,275.08925c0.28091,0.41363 -0.13273,0.69454 -0.13273,0.69454l-0.80276,0.545c-1.45504,1.0779 -3.20786,1.22755 -4.9341,0.66741c0,0 -0.47434,-0.15812 -0.31623,-0.63245c0.15812,-0.47434 0.63246,-0.31623 0.63246,-0.31623c1.40652,0.48446 2.86599,0.35799 4.03681,-0.53259l0.82202,-0.55841c0,0 0.41363,-0.28091 0.69454,0.13273z" fill-opacity="0.12157" fill="#59434a"/></g><path d="M301.49471,187.23016l37.78325,-0.15789l7.82022,55.6589c0,0 -7.86868,-3.78011 -10.74363,-1.42796c-1.98208,1.62165 -3.88016,7.32622 -3.88016,7.32622c0,0 -3.45235,-4.66526 -5.21855,-6.48857c-2.7352,-2.82366 -6.6475,3.29937 -7.64153,5.5532c-0.97365,2.20763 -2.82202,7.73791 -2.82202,7.73791c0,0 -0.69698,-4.26009 -1.87991,-6.35396c-1.7593,-3.11406 -5.06086,-6.16998 -8.4904,-4.36923c-3.39364,1.7819 -4.79263,4.83381 -6.69368,7.97355c-1.24618,2.05818 -3.12993,6.28111 -3.12993,6.28111c0,0 -0.47393,-1.4393 -0.69995,-2.54264c-0.5261,-2.56014 -5.25023,-1.19109 -7.08106,-1.95729c0,0 3.10297,-8.10264 3.92822,-13.54395c0.82526,-5.4413 8.74911,-53.6894 8.74911,-53.6894z" fill="#e00d0d" stroke="#000000" stroke-width="0"/><g fill="#c10c0c"><path d="M301.49471,187.23016l37.78325,-0.15789l5.21199,37.56082l-49.11468,-0.03465l6.11942,-37.36828z" stroke="#000000" stroke-width="0"/><path d="M300.85003,227.61503c0,-0.27296 0.14583,-0.51187 0.36382,-0.64306c-0.07878,-0.03018 -0.15483,-0.0659 -0.22766,-0.10668c-0.31165,0.28667 -0.7276,0.46171 -1.18442,0.46171c-0.49608,0 -0.94396,-0.20642 -1.26241,-0.53805c-0.30561,0.26075 -0.70205,0.41817 -1.13527,0.41817c-0.9665,0 -1.75,-0.7835 -1.75,-1.75c0,-0.9665 0.7835,-1.75 1.75,-1.75c0.49608,0 0.94396,0.20642 1.26241,0.53805c0.30561,-0.26075 0.70205,-0.41817 1.13527,-0.41817c0.30996,0 0.6011,0.08059 0.85361,0.22195c0.31165,-0.28667 0.7276,-0.46171 1.18442,-0.46171c0.38754,0 0.74567,0.12597 1.03566,0.33921c0.30977,-0.49189 0.85767,-0.81875 1.48192,-0.81875c0.74668,0 1.38413,0.46764 1.63547,1.126c0.07162,-0.62231 0.60024,-1.10554 1.24174,-1.10554c0.25842,0 0.49854,0.07842 0.69783,0.21276c0.19297,-0.07325 0.40225,-0.11335 0.6209,-0.11335c0.64807,0 1.21386,0.35228 1.51633,0.87579c0.31696,-0.31878 0.75593,-0.51614 1.24099,-0.51614c0.30226,0 0.58663,0.07663 0.83472,0.21152c0.14797,-0.52531 0.63067,-0.91037 1.20331,-0.91037c0.69036,0 1.25,0.55964 1.25,1.25c0,0.69036 -0.55964,1.25 -1.25,1.25c-0.09916,0 -0.19562,-0.01154 -0.28812,-0.03336c-0.00955,0.9583 -0.78936,1.73221 -1.74991,1.73221c-0.64807,0 -1.21386,-0.35228 -1.51633,-0.87579c-0.31696,0.31878 -0.75593,0.51613 -1.24099,0.51613c-0.7525,0 -1.39407,-0.47495 -1.64129,-1.14144c-0.356,-0.09482 -0.64952,-0.34282 -0.80565,-0.66911c-0.00218,0.0654 -0.00795,0.12989 -0.01711,0.19327c0.35816,0.21982 0.59705,0.61507 0.59705,1.06611c0,0.69036 -0.55964,1.25 -1.25,1.25c-0.53974,0 -0.99959,-0.3421 -1.17454,-0.82129c-0.35077,-0.01888 -0.67408,-0.14105 -0.94007,-0.33664c-0.26394,0.41913 -0.70078,0.71843 -1.21041,0.79781c0.14688,0.13691 0.23873,0.33209 0.23873,0.54873c0,0.41422 -0.33578,0.75 -0.75,0.75c-0.41422,0 -0.75,-0.33578 -0.75,-0.75z" stroke="none" stroke-width="0.5"/><path d="M314.15716,231.21156c0,-0.15931 0.04967,-0.30702 0.13437,-0.42848c-0.68288,-0.00868 -1.23379,-0.56495 -1.23379,-1.2499c0,-0.54098 0.34366,-1.00169 0.82457,-1.17574c-0.21378,-0.2243 -0.34503,-0.52797 -0.34503,-0.86229c0,-0.69036 0.55964,-1.25 1.25,-1.25c0.20007,0 0.38916,0.04701 0.55684,0.13057c-0.01907,-0.10349 -0.02904,-0.21017 -0.02904,-0.31918c0,-0.07806 0.00511,-0.15493 0.01502,-0.23029c-0.14747,-0.20516 -0.23432,-0.45684 -0.23432,-0.72879c0,-0.69036 0.55964,-1.25 1.25,-1.25c0.39943,0 0.75509,0.18734 0.98393,0.47895c0.41739,0.06331 0.78636,0.27405 1.05217,0.57746c0.28921,-0.56796 0.87939,-0.95699 1.56043,-0.95699c0.9665,0 1.75,0.7835 1.75,1.75c0,0.40129 -0.13507,0.77102 -0.36222,1.06624c0.541,0.13748 0.94117,0.62779 0.94117,1.21156c0,0.69036 -0.55964,1.25 -1.25,1.25c-0.69036,0 -1.25,-0.55964 -1.25,-1.25c0,-0.18893 0.04191,-0.36807 0.11695,-0.52862c-0.50321,-0.01528 -0.95299,-0.243 -1.2627,-0.59651c-0.28921,0.56796 -0.87939,0.95699 -1.56043,0.95699c-0.38414,0 -0.73937,-0.12378 -1.02799,-0.33361c0.00013,0.00739 0.00019,0.0148 0.00019,0.02222c0,0.54098 -0.34366,1.00169 -0.82457,1.17574c0.21378,0.2243 0.34503,0.52796 0.34503,0.86229c0,0.38395 -0.17311,0.72746 -0.44552,0.95676c0.31453,0.0892 0.54494,0.3785 0.54494,0.72162c0,0.41422 -0.33578,0.75 -0.75,0.75c-0.41422,0 -0.75,-0.33578 -0.75,-0.75z" stroke="none" stroke-width="0.5"/><path d="M327.25523,224.327c0.082,0 0.16216,0.0079 0.23976,0.02298c0.0776,-0.01507 0.15777,-0.02298 0.23977,-0.02298c0.33351,0 0.6365,0.13061 0.86064,0.34347c0.16597,-0.26267 0.4271,-0.45922 0.73495,-0.54121c0.24721,-0.66648 0.88878,-1.14144 1.64128,-1.14144c0.79877,0 1.47255,0.53516 1.68235,1.26649c0.73133,0.2098 1.2665,0.88358 1.2665,1.68235c0,0.9665 -0.7835,1.75 -1.75,1.75c-0.79877,0 -1.47255,-0.53516 -1.68235,-1.26649c-0.04663,-0.01337 -0.09245,-0.02864 -0.13739,-0.04569c-0.1993,0.13434 -0.43941,0.21276 -0.69783,0.21276c-0.33351,0 -0.6365,-0.13061 -0.86064,-0.34346c-0.05824,0.09219 -0.12822,0.17622 -0.20781,0.25003c-0.14045,0.53665 -0.62866,0.93262 -1.20935,0.93262c-0.29196,0 -0.56054,-0.10009 -0.7733,-0.26784c-0.19349,0.44008 -0.63328,0.74738 -1.14485,0.74738c-0.59265,0 -1.08897,-0.41244 -1.21758,-0.96596c-0.39781,-0.32079 -0.65229,-0.81217 -0.65229,-1.363c0,-0.9665 0.7835,-1.75 1.75,-1.75c0.54341,0 1.02896,0.24769 1.34994,0.63631c0.17048,-0.08715 0.36359,-0.13631 0.5682,-0.13631z" stroke="none" stroke-width="0.5"/><path d="M338.45561,226.17642c0,0.69036 -0.55964,1.25 -1.25,1.25c-0.62324,0 -1.13996,-0.45613 -1.23453,-1.05277c-0.52314,-0.30256 -0.87512,-0.86816 -0.87512,-1.51595c0,-0.9665 0.7835,-1.75 1.75,-1.75c0.9665,0 1.75,0.7835 1.75,1.75c0,0.31329 -0.08232,0.60735 -0.22652,0.86173c0.05563,0.14155 0.08617,0.2957 0.08617,0.45699z" stroke="none" stroke-width="0.5"/><path d="M339.43225,226.17642c0,-0.59884 0.42109,-1.09932 0.98333,-1.22149c0.2792,-0.59557 0.88413,-1.00804 1.58539,-1.00804c0.16628,0 0.32714,0.02319 0.47953,0.06651c0.15239,-0.04333 0.31326,-0.06651 0.47954,-0.06651c0.9665,0 1.75,0.7835 1.75,1.75c0,0.9665 -0.7835,1.75 -1.75,1.75c-0.16628,0 -0.32715,-0.02319 -0.47954,-0.06652c-0.15239,0.04333 -0.31326,0.06652 -0.47953,0.06652c-0.26389,0 -0.51412,-0.0584 -0.7385,-0.16299c-0.1734,0.09103 -0.37079,0.14253 -0.58022,0.14253c-0.69036,0 -1.25,-0.55964 -1.25,-1.25z" stroke="none" stroke-width="0.5"/><path d="M298.93188,230.01272c0,-0.41422 0.33578,-0.75 0.75,-0.75c0.41422,0 0.75,0.33578 0.75,0.75c0,0.41422 -0.33578,0.75 -0.75,0.75c-0.41422,0 -0.75,-0.33578 -0.75,-0.75z" stroke="none" stroke-width="0.5"/><path d="M317.27415,233.1297c0,-0.41422 0.33578,-0.75 0.75,-0.75c0.41422,0 0.75,0.33578 0.75,0.75c0,0.41422 -0.33578,0.75 -0.75,0.75c-0.41422,0 -0.75,-0.33578 -0.75,-0.75z" stroke="none" stroke-width="0.5"/><path d="M323.26836,230.61214c0,-0.41422 0.33578,-0.75 0.75,-0.75c0.41422,0 0.75,0.33578 0.75,0.75c0,0.41422 -0.33578,0.75 -0.75,0.75c-0.41422,0 -0.75,-0.33578 -0.75,-0.75z" stroke="none" stroke-width="0.5"/><path d="M326.98476,228.93376c0,-0.41422 0.33578,-0.75 0.75,-0.75c0.41422,0 0.75,0.33578 0.75,0.75c0,0.41422 -0.33578,0.75 -0.75,0.75c-0.41422,0 -0.75,-0.33578 -0.75,-0.75z" stroke="none" stroke-width="0.5"/><path d="M339.81236,230.25248c0,-0.41422 0.33578,-0.75 0.75,-0.75c0.41422,0 0.75,0.33578 0.75,0.75c0,0.41422 -0.33578,0.75 -0.75,0.75c-0.41422,0 -0.75,-0.33578 -0.75,-0.75z" stroke="none" stroke-width="0.5"/><path d="M343.76854,232.17063c0,-0.41422 0.33578,-0.75 0.75,-0.75c0.41422,0 0.75,0.33578 0.75,0.75c0,0.41422 -0.33578,0.75 -0.75,0.75c-0.41422,0 -0.75,-0.33578 -0.75,-0.75z" stroke="none" stroke-width="0.5"/></g><g fill="#b70b0b"><path d="M301.49471,187.23016l37.78325,-0.15789l4.27071,30.39594l-47.0174,0.06191l4.96342,-30.29996z" stroke="#000000" stroke-width="0"/><path d="M300.52107,220.00384c-0.47257,0 -0.8941,-0.21854 -1.16905,-0.56006c-0.19785,0.06552 -0.40939,0.10099 -0.62921,0.10099c-1.10457,0 -2,-0.89543 -2,-2c0,-1.10457 0.89543,-2 2,-2c0.64113,0 1.2118,0.30167 1.57781,0.77082c0.26387,-0.79601 1.0143,-1.37024 1.89884,-1.37024c1.10457,0 2,0.89543 2,2c0,1.10457 -0.89543,2 -2,2c-0.08125,0 -0.16138,-0.00484 -0.2401,-0.01426c-0.18398,0.62028 -0.75829,1.07276 -1.43828,1.07276z" stroke="none" stroke-width="0.5"/><path d="M305.73458,221.02141c0,-0.79986 0.62605,-1.45349 1.41487,-1.49762c-0.07363,-0.10598 -0.13727,-0.21941 -0.18957,-0.33894c-0.2135,0.07774 -0.44398,0.12016 -0.68437,0.12016c-1.10457,0 -2,-0.89543 -2,-2c0,-1.10457 0.89543,-2 2,-2c0.81979,0 1.52437,0.49322 1.83319,1.19911c0.2135,-0.07774 0.44398,-0.12016 0.68437,-0.12016c1.10457,0 2,0.89543 2,2c0,1.10457 -0.89543,2 -2,2c-0.06929,0 -0.13775,-0.00352 -0.20522,-0.0104c0.09406,0.1961 0.14673,0.41582 0.14673,0.64785c0,0.82843 -0.67158,1.5 -1.5,1.5c-0.82842,0 -1.5,-0.67157 -1.5,-1.5z" stroke="none" stroke-width="0.5"/><path d="M319.40427,221.8606c0,0.82843 -0.67158,1.5 -1.5,1.5c-0.77692,0 -1.41589,-0.59066 -1.49234,-1.34742c-0.68791,-0.13646 -1.20651,-0.74332 -1.20651,-1.4713c0,-0.31789 0.09889,-0.6127 0.26758,-0.85531c-0.17093,-0.11463 -0.3232,-0.25492 -0.4513,-0.41536c-0.32695,0.65944 -1.007,1.11276 -1.79292,1.11276c-1.10457,0 -2,-0.89543 -2,-2c0,-1.10457 0.89543,-2 2,-2c0.63302,0 1.19736,0.2941 1.56383,0.75311c0.32695,-0.65944 1.007,-1.11276 1.79292,-1.11276c1.10457,0 2,0.89543 2,2c0,0.62454 -0.28626,1.18221 -0.73472,1.54897c0.19036,0.22487 0.31569,0.50656 0.34695,0.81602c0.68791,0.13646 1.2065,0.74331 1.2065,1.4713z" stroke="none" stroke-width="0.5"/><path d="M325.878,218.26407c0,0.82843 -0.67158,1.5 -1.5,1.5c-0.60218,0 -1.12149,-0.35485 -1.36021,-0.86685c-0.14098,0.0315 -0.28757,0.04812 -0.43804,0.04812c-0.34863,0 -0.67643,-0.0892 -0.96181,-0.24603c-0.18653,0.61617 -0.75882,1.06475 -1.43588,1.06475c-0.82842,0 -1.5,-0.67157 -1.5,-1.5c0,-0.82843 0.67158,-1.5 1.5,-1.5c0.13912,0 0.27381,0.01894 0.40165,0.05438c0.06545,-1.04545 0.9341,-1.87311 1.99604,-1.87311c1.04773,0 1.90729,0.80565 1.99298,1.83125c0.73643,0.09546 1.30528,0.72504 1.30528,1.48748z" stroke="none" stroke-width="0.5"/><path d="M330.19094,219.46291c0,-0.18405 0.03315,-0.36035 0.0938,-0.52327c-0.05027,0.00378 -0.10105,0.00571 -0.15229,0.00571c-1.10457,0 -2,-0.89543 -2,-2c0,-1.10457 0.89543,-2 2,-2c1.10457,0 2,0.89543 2,2c0,0.37501 -0.10322,0.72593 -0.28279,1.02587c0.20632,0.0217 0.40018,0.08523 0.57295,0.18194c-0.06119,-0.19184 -0.09421,-0.39625 -0.09421,-0.60838c0,-1.10457 0.89543,-2 2,-2c1.10457,0 2,0.89543 2,2c0,1.10457 -0.89543,2 -2,2c-0.43513,0 -0.8378,-0.13896 -1.16607,-0.37492c0.01877,0.09478 0.02862,0.19277 0.02862,0.29306c0,0.82843 -0.67158,1.5 -1.5,1.5c-0.82842,0 -1.5,-0.67157 -1.5,-1.5z" stroke="none" stroke-width="0.5"/><path d="M341.88109,216.74361c1.10457,0 2,0.89543 2,2c0,1.10457 -0.89543,2 -2,2c-0.68198,0 -1.28424,-0.34134 -1.64524,-0.8625c-0.2924,0.16739 -0.63113,0.26308 -0.99221,0.26308c-1.10457,0 -2,-0.89543 -2,-2c0,-1.10457 0.89543,-2 2,-2c0.68198,0 1.28424,0.34134 1.64524,0.8625c0.2924,-0.16739 0.63113,-0.26308 0.99221,-0.26308z" stroke="none" stroke-width="0.5"/><path d="M325.75523,221.98048c0,-0.82843 0.67158,-1.5 1.5,-1.5c0.82842,0 1.5,0.67157 1.5,1.5c0,0.82843 -0.67158,1.5 -1.5,1.5c-0.82842,0 -1.5,-0.67157 -1.5,-1.5z" stroke="none" stroke-width="0.5"/><path d="M298.812,222.34013c0,-0.41422 0.33578,-0.75 0.75,-0.75c0.41422,0 0.75,0.33578 0.75,0.75c0,0.41422 -0.33578,0.75 -0.75,0.75c-0.41422,0 -0.75,-0.33578 -0.75,-0.75z" stroke="none" stroke-width="0.5"/><path d="M342.68958,222.34013c0,-0.41422 0.33578,-0.75 0.75,-0.75c0.41422,0 0.75,0.33578 0.75,0.75c0,0.41422 -0.33578,0.75 -0.75,0.75c-0.41422,0 -0.75,-0.33578 -0.75,-0.75z" stroke="none" stroke-width="0.5"/><path d="M337.65445,223.29921c0,-0.41422 0.33578,-0.75 0.75,-0.75c0.41422,0 0.75,0.33578 0.75,0.75c0,0.41422 -0.33578,0.75 -0.75,0.75c-0.41422,0 -0.75,-0.33578 -0.75,-0.75z" stroke="none" stroke-width="0.5"/><path d="M337.41468,220.78164c0,-0.41422 0.33578,-0.75 0.75,-0.75c0.41422,0 0.75,0.33578 0.75,0.75c0,0.41422 -0.33578,0.75 -0.75,0.75c-0.41422,0 -0.75,-0.33578 -0.75,-0.75z" stroke="none" stroke-width="0.5"/></g><g fill="#a50a0a"><path d="M301.49471,187.23016l37.78325,-0.15789l3.32758,23.68341l-44.75328,-1.30477l3.64243,-22.22075z" stroke="#000000" stroke-width="0"/><path d="M302.14829,211.07103c0,-0.03438 0.00139,-0.06843 0.00411,-0.10211c-0.13833,0.03517 -0.28322,0.05385 -0.43248,0.05385c-0.21348,0 -0.41804,-0.03823 -0.6072,-0.1082c-0.31237,0.29031 -0.73098,0.46786 -1.19107,0.46786c-0.9665,0 -1.75,-0.7835 -1.75,-1.75c0,-0.9665 0.7835,-1.75 1.75,-1.75c0.21348,0 0.41804,0.03823 0.60719,0.10821c0.31237,-0.29031 0.73099,-0.46786 1.19107,-0.46786c0.61135,0 1.14947,0.31349 1.46241,0.78848c0.29755,-0.54142 0.87327,-0.90836 1.53469,-0.90836c0.9665,0 1.75,0.7835 1.75,1.75c0,0.9665 -0.7835,1.75 -1.75,1.75c-0.02688,0 -0.05361,-0.00061 -0.08018,-0.00181c0.00756,0.05557 0.01146,0.1123 0.01146,0.16995c0,0.69036 -0.55964,1.25 -1.25,1.25c-0.69036,0 -1.25,-0.55964 -1.25,-1.25z" stroke="none" stroke-width="0.5"/><path d="M311.01971,211.19091c0,-0.05722 0.00385,-0.11354 0.01129,-0.16871c-0.39877,-0.15656 -0.72613,-0.45526 -0.91971,-0.83374c-0.31313,0.29433 -0.73467,0.47465 -1.19833,0.47465c-0.9665,0 -1.75,-0.7835 -1.75,-1.75c0,-0.9665 0.7835,-1.75 1.75,-1.75c0.67992,0 1.26927,0.38775 1.559,0.95419c0.31313,-0.29433 0.73468,-0.47466 1.19834,-0.47466c0.9665,0 1.75,0.7835 1.75,1.75c0,0.33752 -0.09556,0.65273 -0.26108,0.92004c0.2229,0.22574 0.3605,0.53592 0.3605,0.87823c0,0.69036 -0.55964,1.25 -1.25,1.25c-0.69036,0 -1.25,-0.55964 -1.25,-1.25z" stroke="none" stroke-width="0.5"/><path d="M320.42183,209.10172c0.06455,0 0.12797,0.0049 0.18988,0.01433c0.13259,-0.83507 0.85588,-1.47341 1.72826,-1.47341c0.56725,0 1.07148,0.2699 1.39125,0.68828c0.69599,0.23119 1.19795,0.88754 1.19795,1.66114c0,0.9665 -0.7835,1.75 -1.75,1.75c-0.56725,0 -1.07148,-0.26989 -1.39125,-0.68828c-0.09145,-0.03037 -0.17955,-0.06809 -0.2636,-0.11245c-0.21065,0.39306 -0.62535,0.66038 -1.10249,0.66038c-0.06135,0 -0.12167,-0.00442 -0.18065,-0.01296c-0.19684,0.43198 -0.63239,0.73226 -1.13807,0.73226c-0.45029,0 -0.84497,-0.23809 -1.06501,-0.59525c-0.21056,0.24715 -0.48866,0.435 -0.80575,0.53499c-0.1887,0.11433 -0.41007,0.18015 -0.64681,0.18015c-0.41451,0 -0.78188,-0.20175 -1.0093,-0.51242c-0.37971,-0.32101 -0.62082,-0.80085 -0.62082,-1.337c0,-0.9665 0.7835,-1.75 1.75,-1.75c0.78003,0 1.44087,0.51034 1.66683,1.21535c0.20554,-0.14838 0.45799,-0.23581 0.73086,-0.23581c0.06135,0 0.12166,0.00441 0.18065,0.01296c0.19684,-0.43198 0.63239,-0.73226 1.13808,-0.73226z" stroke="none" stroke-width="0.5"/><path d="M340.56236,208.24207c0.9665,0 1.75,0.7835 1.75,1.75c0,0.9665 -0.7835,1.75 -1.75,1.75c-0.16628,0 -0.32714,-0.02319 -0.47953,-0.06652c-0.15239,0.04333 -0.31326,0.06652 -0.47953,0.06652c-0.9665,0 -1.75,-0.7835 -1.75,-1.75c0,-0.9665 0.7835,-1.75 1.75,-1.75c0.16628,0 0.32714,0.02319 0.47953,0.06652c0.15239,-0.04333 0.31326,-0.06652 0.47953,-0.06652z" stroke="none" stroke-width="0.5"/><path d="M328.45407,209.58126c0.01662,0 0.03316,0.00033 0.04962,0.00097c-0.0009,-0.02312 -0.00137,-0.04636 -0.00137,-0.06969c0,-0.9665 0.7835,-1.75 1.75,-1.75c0.18918,0 0.37135,0.03002 0.542,0.08555c0.28654,-0.2048 0.63744,-0.32532 1.01649,-0.32532c0.9665,0 1.75,0.7835 1.75,1.75c0,0.9665 -0.7835,1.75 -1.75,1.75c-0.18918,0 -0.37134,-0.03002 -0.542,-0.08555c-0.28654,0.2048 -0.63744,0.32532 -1.0165,0.32532c-0.20774,0 -0.40704,-0.0362 -0.59191,-0.10263c-0.14429,0.53092 -0.62973,0.92136 -1.20635,0.92136c-0.41514,0 -0.78302,-0.20238 -1.01035,-0.51386c-0.19206,0.44341 -0.63358,0.75362 -1.14756,0.75362c-0.69036,0 -1.25,-0.55964 -1.25,-1.25c0,-0.69036 0.55964,-1.25 1.25,-1.25c0.41514,0 0.78302,0.20238 1.01035,0.51386c0.19206,-0.44341 0.63358,-0.75362 1.14756,-0.75362z" stroke="none" stroke-width="0.5"/><path d="M334.75676,212.50964c0,-0.69036 0.55964,-1.25 1.25,-1.25c0.69036,0 1.25,0.55964 1.25,1.25c0,0.69036 -0.55964,1.25 -1.25,1.25c-0.69036,0 -1.25,-0.55964 -1.25,-1.25z" stroke="none" stroke-width="0.5"/><path d="M303.48748,215.62662c0,-0.41422 0.33578,-0.75 0.75,-0.75c0.41422,0 0.75,0.33578 0.75,0.75c0,0.41422 -0.33578,0.75 -0.75,0.75c-0.41422,0 -0.75,-0.33578 -0.75,-0.75z" stroke="none" stroke-width="0.5"/><path d="M301.32956,212.7494c0,-0.41422 0.33578,-0.75 0.75,-0.75c0.41422,0 0.75,0.33578 0.75,0.75c0,0.41422 -0.33578,0.75 -0.75,0.75c-0.41422,0 -0.75,-0.33578 -0.75,-0.75z" stroke="none" stroke-width="0.5"/><path d="M312.47879,214.54767c0,-0.41422 0.33578,-0.75 0.75,-0.75c0.41422,0 0.75,0.33578 0.75,0.75c0,0.41422 -0.33578,0.75 -0.75,0.75c-0.41422,0 -0.75,-0.33578 -0.75,-0.75z" stroke="none" stroke-width="0.5"/><path d="M319.67183,213.22894c0,-0.41422 0.33578,-0.75 0.75,-0.75c0.41422,0 0.75,0.33578 0.75,0.75c0,0.21764 -0.0927,0.41361 -0.24076,0.55061c0.07646,0.11752 0.12088,0.2578 0.12088,0.40846c0,0.41422 -0.33578,0.75 -0.75,0.75c-0.41422,0 -0.75,-0.33578 -0.75,-0.75c0,-0.21764 0.0927,-0.41361 0.24076,-0.55061c-0.07646,-0.11752 -0.12088,-0.2578 -0.12088,-0.40846z" stroke="none" stroke-width="0.5"/><path d="M329.86198,213.70848c0,-0.41422 0.33578,-0.75 0.75,-0.75c0.41422,0 0.75,0.33578 0.75,0.75c0,0.41422 -0.33578,0.75 -0.75,0.75c-0.41422,0 -0.75,-0.33578 -0.75,-0.75z" stroke="none" stroke-width="0.5"/><path d="M332.13978,214.18801c0,-0.41422 0.33578,-0.75 0.75,-0.75c0.41422,0 0.75,0.33578 0.75,0.75c0,0.41422 -0.33578,0.75 -0.75,0.75c-0.41422,0 -0.75,-0.33578 -0.75,-0.75z" stroke="none" stroke-width="0.5"/></g></g><path d="M347.42327,195.38418c0,9.223 -12.27214,16.69972 -27.41058,16.69972c-15.13845,0 -27.41058,-7.47672 -27.41058,-16.69972c0,-9.223 12.27214,-16.69972 27.41058,-16.69972c15.13845,0 27.41058,7.47672 27.41058,16.69972z" fill="#4c291f" stroke="none" stroke-width="0"/></g><path d="M315.25178,191.19029v-202.7749h6.70946v202.7749z" fill="url(#color-1)" stroke="none" stroke-width="0" stroke-linecap="butt"/><path d="M214.52362,306.61252v-267.72501h213.18203v267.72501z" fill="none" stroke="none" stroke-width="0" stroke-linecap="butt"/><path d="" fill="none" stroke="#000000" stroke-width="2" stroke-linecap="round"/><g stroke-linecap="butt"><path d="M257.27589,148.57593c0,-32.51753 28.08254,-58.87818 62.72411,-58.87818c17.67117,0 45.03615,17.8966 45.03615,17.8966c0,0 2.86,7.14495 5.54561,11.25444c2.68561,4.10949 8.78596,10.67556 8.78596,10.67556c0,0 3.35639,12.38416 3.35639,19.05159c0,32.51753 -28.08254,58.8782 -62.72411,58.8782c-34.64157,0 -62.72411,-26.36067 -62.72411,-58.8782z" fill="#e0d6c6" stroke="#000000" stroke-width="0"/><path d="M257.27589,148.57593c0,-32.51753 28.08254,-58.87818 62.72411,-58.87818c17.67117,0 45.03615,17.8966 45.03615,17.8966c0,0 2.86,7.14495 5.54561,11.25444c2.68561,4.10949 8.78596,10.67556 8.78596,10.67556c0,0 3.35639,12.38416 3.35639,19.05159c0,8.34246 -1.84837,16.27967 -5.18167,23.47049c-1.20042,2.58964 -113.72612,2.89029 -114.94856,0.29193c-3.41919,-7.26769 -5.31799,-15.3069 -5.31799,-23.76242z" fill="#c8bfb0" stroke="#000000" stroke-width="0"/><path d="M360.58689,155.42067c0,0.69036 -0.55964,1.25 -1.25,1.25c-0.49528,0 -0.92328,-0.28805 -1.12562,-0.70576c-0.27022,0.17081 -0.59045,0.26968 -0.93377,0.26968c-0.53873,0 -1.0206,-0.24343 -1.34162,-0.6263c-0.26406,0.15985 -0.57378,0.25187 -0.90499,0.25187c-0.9665,0 -1.75,-0.7835 -1.75,-1.75c0,-0.9665 0.7835,-1.75 1.75,-1.75c0.53873,0 1.0206,0.24343 1.34162,0.6263c0.2226,-0.13476 0.47766,-0.2213 0.75068,-0.24515c0.29908,-0.23855 0.67809,-0.38115 1.0904,-0.38115c0.9665,0 1.75,0.7835 1.75,1.75c0,0.0748 -0.00469,0.14851 -0.0138,0.22084c0.38029,0.21436 0.63711,0.62202 0.63711,1.08968z" fill="#9d958a" stroke="none" stroke-width="0.5"/><path d="M257.27589,148.57593c0,-32.51753 28.08254,-58.87818 62.72411,-58.87818c17.67117,0 45.03615,17.8966 45.03615,17.8966c0,0 2.86,7.14495 5.54561,11.25444c2.68561,4.10949 8.78596,10.67556 8.78596,10.67556c0,0 3.35639,12.38416 3.35639,19.05159c0,1.86423 -0.0923,3.70822 -0.27285,5.52818c-0.08432,0.84994 -124.85632,0.53761 -124.94962,-0.49741c-0.14949,-1.6583 -0.22575,-3.33617 -0.22575,-5.03077z" fill="#9d958a" stroke="#000000" stroke-width="0"/><path d="M261.3866,127.56724c9.01274,-22.14303 31.85655,-37.86949 58.6134,-37.86949c17.67117,0 45.03615,17.8966 45.03615,17.8966c0,0 2.86,7.14495 5.54561,11.25444c2.68561,4.10949 8.78596,10.67556 8.78596,10.67556c0,0 -119.3833,1.48786 -117.98112,-1.95711z" fill="#8e887d" stroke="#000000" stroke-width="0"/><path d="M361.2735,142.1372c0.5,0 0.5,0.5 0.5,0.5l-0.07475,1.01185c-0.53088,0.31204 -1.00699,0.73542 -1.38778,1.21935c-2.54259,1.9182 -2.41787,5.24382 -4.48765,7.29599c-1.10326,1.09387 -2.83894,-0.14044 -2.30231,1.959c0,0 0.12127,0.48507 -0.3638,0.60634c-0.48507,0.12127 -0.60634,-0.3638 -0.60634,-0.3638c-0.71581,-2.91895 1.33703,-1.65502 2.56534,-2.90865c2.03499,-2.07692 1.88957,-5.36223 4.49878,-7.30695c0.33729,-0.41531 0.73258,-0.83868 1.23326,-1.02726l-0.07475,-0.48588c0,0 0,-0.5 0.5,-0.5z" fill="#928673" stroke="none" stroke-width="0.5"/><path d="M354.51273,165.06182c-2.61384,-0.04875 -5.864,-0.96684 -6.29193,-1.18964c-3.56697,-1.85711 -9.16156,-6.7214 -7.66093,-10.33403c1.50063,-3.61263 6.99607,-1.91428 12.34554,0.30781c3.27069,1.3586 6.46153,6.2181 5.9613,9.03792c-0.31793,1.79221 -3.77039,2.18883 -4.35399,2.17794z" fill="#8f8d8b" stroke="none" stroke-width="0"/><path d="M340.31042,154.74849c0.00789,-0.41449 0.08719,-0.81973 0.24945,-1.21034c1.50063,-3.61263 7.31146,-1.59889 12.66093,0.6232c0.17899,0.07435 -12.91492,0.82599 -12.91038,0.58714z" fill="#706e6d" stroke="none" stroke-width="0"/><path d="M352.65759,131.8313c0,-0.17403 0.03556,-0.33974 0.09982,-0.49029c-0.28587,-0.1416 -0.52752,-0.35904 -0.69864,-0.626c-0.17408,0.78306 -0.87282,1.36855 -1.7083,1.36855c-0.9665,0 -1.75,-0.7835 -1.75,-1.75c0,-0.9665 0.7835,-1.75 1.75,-1.75c0.61922,0 1.16332,0.32161 1.47438,0.80689c0.17408,-0.78306 0.87282,-1.36854 1.70831,-1.36854c0.9665,0 1.75,0.7835 1.75,1.75c0,0.4623 -0.17926,0.88272 -0.47206,1.19557c0.21465,0.22445 0.3465,0.52873 0.3465,0.86381c0,0.69036 -0.55964,1.25 -1.25,1.25c-0.69036,0 -1.25,-0.55964 -1.25,-1.25z" fill="#8e887d" stroke="none" stroke-width="0.5"/><path d="M357.1508,132.58017c0,-0.69036 0.55964,-1.25 1.25,-1.25c0.69036,0 1.25,0.55964 1.25,1.25c0,0.69036 -0.55964,1.25 -1.25,1.25c-0.69036,0 -1.25,-0.55964 -1.25,-1.25z" fill="#8e887d" stroke="none" stroke-width="0.5"/><path d="M353.59367,135.014c0,-0.69036 0.55964,-1.25 1.25,-1.25c0.69036,0 1.25,0.55964 1.25,1.25c0,0.69036 -0.55964,1.25 -1.25,1.25c-0.69036,0 -1.25,-0.55964 -1.25,-1.25z" fill="#8e887d" stroke="none" stroke-width="0.5"/><path d="M361.26958,135.20121c0,-0.69036 0.55964,-1.25 1.25,-1.25c0.69036,0 1.25,0.55964 1.25,1.25c0,0.69036 -0.55964,1.25 -1.25,1.25c-0.69036,0 -1.25,-0.55964 -1.25,-1.25z" fill="#8e887d" stroke="none" stroke-width="0.5"/><path d="M371.87931,136.69895c0,-0.33544 0.22021,-0.61945 0.52396,-0.71534c-0.1721,-0.21418 -0.27508,-0.48626 -0.27508,-0.7824c0,-0.31497 0.11649,-0.60273 0.30875,-0.82255c-0.05943,0.00867 -0.12022,0.01317 -0.18205,0.01317c-0.69036,0 -1.25,-0.55964 -1.25,-1.25c0,-0.09618 0.01087,-0.18984 0.03144,-0.27979c-0.26733,-0.06176 -0.50185,-0.20926 -0.67302,-0.41198c-0.05523,0.00526 -0.1112,0.00795 -0.16781,0.00795c-0.47024,0 -0.89715,-0.18547 -1.21159,-0.48725c-0.22483,0.33125 -0.6045,0.5489 -1.03501,0.5489c-0.58323,0 -1.07316,-0.39943 -1.21117,-0.93966c-0.20394,0.08326 -0.42712,0.12914 -0.661,0.12914c-0.63502,0 -1.19104,-0.33822 -1.49774,-0.84436c-0.3067,0.50614 -0.86272,0.84436 -1.49774,0.84436c-0.4395,0 -0.84116,-0.16201 -1.14851,-0.42957c-0.31137,0.48368 -0.85454,0.80401 -1.47253,0.80401c-0.81473,0 -1.49941,-0.55675 -1.69436,-1.31054c-0.06525,-0.00035 -0.12966,-0.00426 -0.19304,-0.01156c-0.32012,0.35216 -0.78189,0.57324 -1.29529,0.57324c-0.9665,0 -1.75,-0.7835 -1.75,-1.75c0,-0.9665 0.7835,-1.75 1.75,-1.75c0.06847,0 0.13603,0.00393 0.20245,0.01158c0.32012,-0.35215 0.78189,-0.57323 1.29529,-0.57323c0.81473,0 1.49941,0.55675 1.69437,1.31054c0.43582,0.0023 0.83394,0.1639 1.1391,0.42955c0.31137,-0.48368 0.85454,-0.80401 1.47253,-0.80401c0.63502,0 1.19104,0.33823 1.49774,0.84436c0.28159,-0.46469 0.77334,-0.78785 1.34343,-0.83765c0.29908,-0.23856 0.67809,-0.38114 1.0904,-0.38114c0.52299,0 0.99241,0.22943 1.31309,0.59312c0.30359,-0.25341 0.69436,-0.4059 1.12074,-0.4059c0.77101,0 1.42556,0.4986 1.6588,1.19096c0.2339,0.14265 0.4317,0.33865 0.5765,0.57109c0.17163,-0.08867 0.36644,-0.13875 0.57295,-0.13875c0.57914,0 1.06629,0.39385 1.20822,0.92832c0.22439,-0.33406 0.60572,-0.55388 1.03839,-0.55388c0.43809,0 0.82353,0.22537 1.04674,0.56649c0.63853,0.056 1.13935,0.59209 1.13935,1.24516c0,0.69036 -0.55964,1.25 -1.25,1.25c-0.43809,0 -0.82353,-0.22536 -1.04674,-0.56648c-0.52979,-0.04647 -0.96478,-0.42343 -1.09757,-0.92349c-0.12225,0.18199 -0.29107,0.33008 -0.4894,0.42719c0.41514,0.20327 0.70101,0.62991 0.70101,1.12331c0,0.31497 -0.11649,0.60273 -0.30875,0.82255c0.05943,-0.00867 0.12022,-0.01316 0.18205,-0.01316c0.69036,0 1.25,0.55964 1.25,1.25c0,0.69036 -0.55964,1.25 -1.25,1.25c-0.01371,0 -0.02738,-0.00021 -0.04098,-0.00065c0.02728,0.07774 0.04211,0.16133 0.04211,0.24839c0,0.41422 -0.33578,0.75 -0.75,0.75c-0.41422,0 -0.75,-0.33578 -0.75,-0.75z" fill="#8e887d" stroke="none" stroke-width="0.5"/><path d="M378.80748,131.14296c0.69036,0 1.25,0.55964 1.25,1.25c0,0.63885 -0.47925,1.16576 -1.09784,1.24083c-0.22742,0.23646 -0.54704,0.38361 -0.90103,0.38361c-0.69036,0 -1.25,-0.55964 -1.25,-1.25c0,-0.63885 0.47924,-1.16576 1.09783,-1.24084c0.22742,-0.23646 0.54705,-0.3836 0.90104,-0.3836z" fill="#8e887d" stroke="none" stroke-width="0.5"/><path d="M349.78768,141.37938c0,-0.41422 0.33578,-0.75 0.75,-0.75c0.41422,0 0.75,0.33578 0.75,0.75c0,0.41422 -0.33578,0.75 -0.75,0.75c-0.41422,0 -0.75,-0.33578 -0.75,-0.75z" fill="#8e887d" stroke="none" stroke-width="0.5"/><path d="M355.21697,136.88617c0,-0.41422 0.33578,-0.75 0.75,-0.75c0.41422,0 0.75,0.33578 0.75,0.75c0,0.41422 -0.33578,0.75 -0.75,0.75c-0.41422,0 -0.75,-0.33578 -0.75,-0.75z" fill="#8e887d" stroke="none" stroke-width="0.5"/><path d="M360.45906,138.57112c0,-0.41422 0.33578,-0.75 0.75,-0.75c0.41422,0 0.75,0.33578 0.75,0.75c0,0.41422 -0.33578,0.75 -0.75,0.75c-0.41422,0 -0.75,-0.33578 -0.75,-0.75z" fill="#8e887d" stroke="none" stroke-width="0.5"/><path d="M368.5094,137.2606c0,-0.41422 0.33578,-0.75 0.75,-0.75c0.41422,0 0.75,0.33578 0.75,0.75c0,0.41422 -0.33578,0.75 -0.75,0.75c-0.41422,0 -0.75,-0.33578 -0.75,-0.75z" fill="#8e887d" stroke="none" stroke-width="0.5"/><path d="M374.87478,141.94103c0,-0.41422 0.33578,-0.75 0.75,-0.75c0.41422,0 0.75,0.33578 0.75,0.75c0,0.41422 -0.33578,0.75 -0.75,0.75c-0.41422,0 -0.75,-0.33578 -0.75,-0.75z" fill="#8e887d" stroke="none" stroke-width="0.5"/><path d="M379.41176,129.72241c-0.27555,0.33902 -0.50542,0.52002 -1.15522,0.75209c-5.06342,1.80836 -9.76077,-3.86305 -13.3853,-9.50726c-3.62454,-5.64421 -6.29062,-11.43931 -1.2272,-13.24767c0.49796,-0.17784 0.65216,-0.18198 1.10666,-0.23197c0.56836,-0.06251 3.02405,6.39363 6.77311,12.18952c3.36292,5.19895 8.10116,9.78299 7.88796,10.04529z" fill="#5e5d5b" stroke="none" stroke-width="0"/><path d="M371.00487,157.10563c0,-0.04164 0.00203,-0.08281 0.00601,-0.12341c-0.02207,0.00082 -0.04425,0.00124 -0.06653,0.00124c-0.9665,0 -1.75,-0.7835 -1.75,-1.75c0,-0.9665 0.7835,-1.75 1.75,-1.75c0.37718,0 0.72649,0.11933 1.01224,0.32228c0.31644,-0.31489 0.75267,-0.5095 1.23436,-0.5095c0.43048,0 0.82467,0.15543 1.12949,0.41324c0.11873,-0.02543 0.24193,-0.03881 0.36825,-0.03881c0.57493,0 1.08512,0.27725 1.40413,0.70535c0.31901,-0.4281 0.8292,-0.70535 1.40413,-0.70535c0.34785,0 0.67201,0.10149 0.94446,0.27649c0.13189,-0.04392 0.27075,-0.07257 0.4145,-0.08384c0.25062,-0.65981 0.88881,-1.12873 1.63652,-1.12873c0.81876,0 1.5062,0.56228 1.69723,1.32176c0.52621,0.05971 0.18415,3.48875 -0.19949,3.48875c-0.67606,0 -1.26259,-0.38336 -1.55404,-0.94457c-0.31567,0.45752 -0.84354,0.75735 -1.44143,0.75735c-0.34785,0 -0.67201,-0.10149 -0.94446,-0.27649c-0.1739,0.05791 -0.35992,0.08927 -0.55328,0.08927c-0.57493,0 -1.08512,-0.27725 -1.40413,-0.70534c-0.31901,0.4281 -0.8292,0.70534 -1.40413,0.70534c-0.12852,0 -0.2538,-0.01385 -0.37444,-0.04014c-0.12063,0.0263 -0.24592,0.04014 -0.37444,0.04014c-0.15017,0 -0.29592,-0.01891 -0.435,-0.05449c-0.00567,0.6855 -0.56312,1.23944 -1.24995,1.23944c-0.69036,0 -1.25,-0.55964 -1.25,-1.25z" fill="#9d958a" stroke="none" stroke-width="0.5"/><path d="M367.76166,153.04737c0.69036,0 1.25,0.55964 1.25,1.25c0,0.44009 -0.22743,0.82704 -0.57116,1.04978c-0.0996,0.23788 -0.25021,0.44908 -0.43816,0.61994c0.00765,0.06643 0.01158,0.13397 0.01158,0.20245c0,0.02079 -0.00036,0.04151 -0.00108,0.06213c0.66063,0.0333 1.18604,0.57949 1.18604,1.24839c0,0.69036 -0.55964,1.25 -1.25,1.25c-0.56162,0 -1.03673,-0.37038 -1.1944,-0.88021c-0.15565,0.04537 -0.32026,0.06969 -0.49056,0.06969c-0.94511,0 -1.71522,-0.74921 -1.74885,-1.6861c-0.08317,-0.00298 -0.16486,-0.01178 -0.24469,-0.02597c-0.28806,0.57134 -0.88006,0.9632 -1.56358,0.9632c-0.9665,0 -1.75,-0.7835 -1.75,-1.75c0,-0.9665 0.7835,-1.75 1.75,-1.75c0.1053,0 0.20842,0.00931 0.30859,0.02713c0.28806,-0.57134 0.88006,-0.96321 1.56358,-0.96321c0.38489,0 0.74077,0.12426 1.0297,0.33485c0.28893,-0.21059 0.6448,-0.33485 1.0297,-0.33485c0.37462,0 0.72176,0.11772 1.00643,0.31817c0.03848,-0.00357 0.07747,-0.00539 0.11687,-0.00539z" fill="#9d958a" stroke="none" stroke-width="0.5"/><path d="M360.52071,158.60337c0,-0.69036 0.55964,-1.25 1.25,-1.25c0.69036,0 1.25,0.55964 1.25,1.25c0,0.69036 -0.55964,1.25 -1.25,1.25c-0.69036,0 -1.25,-0.55964 -1.25,-1.25z" fill="#9d958a" stroke="none" stroke-width="0.5"/><path d="M376.99582,159.16502c0,-0.69036 0.55964,-1.25 1.25,-1.25c0.69036,0 1.25,0.55964 1.25,1.25c0,0.69036 -0.55964,1.25 -1.25,1.25c-0.69036,0 -1.25,-0.55964 -1.25,-1.25z" fill="#9d958a" stroke="none" stroke-width="0.5"/><path d="M362.14401,164.78154c0,-0.41422 0.33578,-0.75 0.75,-0.75c0.41422,0 0.75,0.33578 0.75,0.75c0,0.41422 -0.33578,0.75 -0.75,0.75c-0.41422,0 -0.75,-0.33578 -0.75,-0.75z" fill="#9d958a" stroke="none" stroke-width="0.5"/><path d="M363.26732,161.59884c0,-0.41422 0.33578,-0.75 0.75,-0.75c0.41422,0 0.75,0.33578 0.75,0.75c0,0.41422 -0.33578,0.75 -0.75,0.75c-0.41422,0 -0.75,-0.33578 -0.75,-0.75z" fill="#9d958a" stroke="none" stroke-width="0.5"/><path d="M369.25827,161.2244c0,-0.41422 0.33578,-0.75 0.75,-0.75c0.41422,0 0.75,0.33578 0.75,0.75c0,0.41422 -0.33578,0.75 -0.75,0.75c-0.41422,0 -0.75,-0.33578 -0.75,-0.75z" fill="#9d958a" stroke="none" stroke-width="0.5"/><path d="M378.43191,162.34771c0,-0.41422 0.33578,-0.75 0.75,-0.75c0.41422,0 0.75,0.33578 0.75,0.75c0,0.41422 -0.33578,0.75 -0.75,0.75c-0.41422,0 -0.75,-0.33578 -0.75,-0.75z" fill="#9d958a" stroke="none" stroke-width="0.5"/><path d="M363.87813,176.45927c0,-0.44461 0.23213,-0.83501 0.5818,-1.0566c-0.05529,-0.01762 -0.10939,-0.03792 -0.16215,-0.06074c-0.30915,0.4949 -0.85877,0.82413 -1.48529,0.82413c-0.16977,0 -0.33389,-0.02417 -0.48911,-0.06927c-0.20022,0.74599 -0.88113,1.29519 -1.69032,1.29519c-0.78003,0 -1.44086,-0.51034 -1.66682,-1.21533c-0.26757,0.16599 -0.58322,0.26183 -0.92125,0.26183c-0.91821,0 -1.67125,-0.70717 -1.74421,-1.60658c-0.23118,0.69598 -0.88754,1.19794 -1.66114,1.19794c-0.48058,0 -0.91591,-0.19372 -1.23218,-0.50733c-0.31411,0.38446 -0.78849,0.63284 -1.32119,0.6432c-0.30411,0.25526 -0.69631,0.40898 -1.12441,0.40898c-0.63325,0 -1.18794,-0.33635 -1.49517,-0.84014c-0.10748,0.58109 -0.6169,1.02121 -1.22911,1.02121c-0.69036,0 -1.25,-0.55964 -1.25,-1.25c0,-0.69036 0.55964,-1.25 1.25,-1.25c0.39542,0 0.74797,0.18361 0.97702,0.47022c0.00706,-0.12706 0.02768,-0.25051 0.06044,-0.36892c-0.21105,-0.28911 -0.3356,-0.64537 -0.3356,-1.03073c0,-0.89497 0.67183,-1.63303 1.53868,-1.73737c0.17175,-0.78618 0.87198,-1.37477 1.70968,-1.37477c0.9665,0 1.75,0.7835 1.75,1.75c0,0.29499 -0.07299,0.57293 -0.20189,0.81675c0.26379,-0.15939 0.57305,-0.25111 0.90374,-0.25111c0.91821,0 1.67125,0.70717 1.74421,1.60658c0.23118,-0.69598 0.88754,-1.19794 1.66114,-1.19794c0.17965,0 0.35298,0.02707 0.51614,0.07736c0.29969,-0.53389 0.87125,-0.89464 1.52707,-0.89464c0.37512,0 0.72267,0.11803 1.00755,0.31897c0.15877,-0.8031 0.86703,-1.40868 1.71673,-1.40868c0.71767,0 1.33444,0.432 1.60445,1.05015c0.18009,-0.06262 0.37356,-0.09665 0.57498,-0.09665c0.41159,0 0.78999,0.14209 1.08883,0.3799c0.32079,-0.39783 0.81218,-0.65233 1.36302,-0.65233c0.6796,0 1.26873,0.38739 1.55859,0.95339c0.2612,0.07193 0.48815,0.2265 0.65097,0.43383c-0.00619,-0.05985 -0.00936,-0.12059 -0.00936,-0.18208c0,-0.9665 0.7835,-1.75 1.75,-1.75c0.24158,0 0.47173,0.04895 0.68107,0.13748c0.36108,0.15269 0.66024,0.42312 0.84936,0.76317c0.29433,0.1637 0.5365,0.40983 0.69532,0.7072c0.023,-0.06545 0.05129,-0.1284 0.08437,-0.18835c-0.15631,-0.26196 -0.24612,-0.5682 -0.24612,-0.89542c0,-0.9665 0.7835,-1.75 1.75,-1.75c0.9665,0 1.75,0.7835 1.75,1.75c0,0.66175 -0.36731,1.23772 -0.90917,1.53514c-0.01946,0.67334 -0.57142,1.21321 -1.24947,1.21321c-0.41251,0 -0.77835,-0.19982 -1.006,-0.50794c-0.02482,0.12866 -0.06373,0.25231 -0.11507,0.36927c0.35996,0.21943 0.60029,0.61569 0.60029,1.0681c0,0.69036 -0.55964,1.25 -1.25,1.25c-0.69036,0 -1.25,-0.55964 -1.25,-1.25c0,-0.01528 0.00027,-0.03051 0.00082,-0.04566c-0.53172,-0.09048 -0.98172,-0.42082 -1.23474,-0.87577c-0.25375,-0.14113 -0.46874,-0.34354 -0.62496,-0.58722c0.00003,0.00343 0.00004,0.00686 0.00004,0.0103c0,0.69036 -0.55964,1.25 -1.25,1.25c-0.16129,0 -0.31545,-0.03055 -0.45701,-0.08618c-0.23209,0.1137 -0.49305,0.17754 -0.76892,0.17754c-0.41159,0 -0.78999,-0.14209 -1.08883,-0.3799c-0.17679,0.21925 -0.40541,0.39497 -0.66723,0.50854c0.40941,0.2053 0.69043,0.62887 0.69043,1.11806c0,0.69036 -0.55964,1.25 -1.25,1.25c-0.69036,0 -1.25,-0.55964 -1.25,-1.25z" fill="#c8bfb0" stroke="none" stroke-width="0.5"/><path d="M343.74254,176.48334c-0.25148,0 -0.48561,-0.07426 -0.68167,-0.20206c-0.08858,0.01381 -0.17937,0.02099 -0.27183,0.02099c-0.44395,0 -0.84929,-0.16531 -1.15782,-0.43774c-0.30853,0.27243 -0.71387,0.43774 -1.15782,0.43774c-0.9665,0 -1.75,-0.7835 -1.75,-1.75c0,-0.9665 0.7835,-1.75 1.75,-1.75c0.15523,0 0.30574,0.02021 0.44904,0.05815c0.32085,-0.36942 0.79402,-0.603 1.32174,-0.603c0.028,0 0.05585,0.00066 0.08354,0.00196c0.03381,-0.00196 0.05268,-0.00196 0.05268,-0.00196c0.59026,0 1.18052,0 1.77078,0l0.32118,0.04113c0.23199,-0.11358 0.49281,-0.17735 0.76853,-0.17735c0.9665,0 1.75,0.7835 1.75,1.75c0,0.31623 -0.08388,0.61288 -0.2306,0.86889c-0.41466,1.34858 -1.9031,1.13595 -1.9031,1.13595l-0.03846,-0.00646c-0.21768,0.36742 -0.61817,0.61376 -1.07619,0.61376z" fill="#c8bfb0" stroke="none" stroke-width="0.5"/><path d="M340.99418,179.7284c0,-0.69036 0.55964,-1.25 1.25,-1.25c0.69036,0 1.25,0.55964 1.25,1.25c0,0.69036 -0.55964,1.25 -1.25,1.25c-0.69036,0 -1.25,-0.55964 -1.25,-1.25z" fill="#c8bfb0" stroke="none" stroke-width="0.5"/><path d="M350.52916,179.45597c0,-0.69036 0.55964,-1.25 1.25,-1.25c0.69036,0 1.25,0.55964 1.25,1.25c0,0.69036 -0.55964,1.25 -1.25,1.25c-0.69036,0 -1.25,-0.55964 -1.25,-1.25z" fill="#c8bfb0" stroke="none" stroke-width="0.5"/><path d="M356.38636,178.09383c0,-0.69036 0.55964,-1.25 1.25,-1.25c0.69036,0 1.25,0.55964 1.25,1.25c0,0.69036 -0.55964,1.25 -1.25,1.25c-0.69036,0 -1.25,-0.55964 -1.25,-1.25z" fill="#c8bfb0" stroke="none" stroke-width="0.5"/><path d="M345.5806,185.5856c0,-0.41421 0.33579,-0.75 0.75,-0.75c0.41421,0 0.75,0.33579 0.75,0.75c0,0.41421 -0.33579,0.75 -0.75,0.75c-0.41421,0 -0.75,-0.33579 -0.75,-0.75z" fill="#c8bfb0" stroke="none" stroke-width="0.5"/><path d="M347.21517,178.36626c0,-0.41421 0.33579,-0.75 0.75,-0.75c0.41421,0 0.75,0.33579 0.75,0.75c0,0.41421 -0.33579,0.75 -0.75,0.75c-0.41421,0 -0.75,-0.33579 -0.75,-0.75z" fill="#c8bfb0" stroke="none" stroke-width="0.5"/><path d="M350.07566,182.31647c0,-0.41421 0.33579,-0.75 0.75,-0.75c0.41421,0 0.75,0.33579 0.75,0.75c0,0.41421 -0.33579,0.75 -0.75,0.75c-0.41421,0 -0.75,-0.33579 -0.75,-0.75z" fill="#c8bfb0" stroke="none" stroke-width="0.5"/><path d="M351.71023,183.13375c0,-0.41421 0.33579,-0.75 0.75,-0.75c0.41421,0 0.75,0.33579 0.75,0.75c0,0.41421 -0.33579,0.75 -0.75,0.75c-0.41421,0 -0.75,-0.33579 -0.75,-0.75z" fill="#c8bfb0" stroke="none" stroke-width="0.5"/><path d="M355.52422,187.4926c0,-0.41421 0.33579,-0.75 0.75,-0.75c0.41421,0 0.75,0.33579 0.75,0.75c0,0.41421 -0.33579,0.75 -0.75,0.75c-0.41421,0 -0.75,-0.33579 -0.75,-0.75z" fill="#c8bfb0" stroke="none" stroke-width="0.5"/><path d="M356.88636,181.90783c0,-0.41421 0.33579,-0.75 0.75,-0.75c0.41421,0 0.75,0.33579 0.75,0.75c0,0.41421 -0.33579,0.75 -0.75,0.75c-0.41421,0 -0.75,-0.33579 -0.75,-0.75z" fill="#c8bfb0" stroke="none" stroke-width="0.5"/><path d="M366.0127,180.40947c0,-0.41421 0.33579,-0.75 0.75,-0.75c0.41421,0 0.75,0.33579 0.75,0.75c0,0.41421 -0.33579,0.75 -0.75,0.75c-0.41421,0 -0.75,-0.33579 -0.75,-0.75z" fill="#c8bfb0" stroke="none" stroke-width="0.5"/><path d="M368.32834,180.27326c0,-0.41421 0.33579,-0.75 0.75,-0.75c0.41421,0 0.75,0.33579 0.75,0.75c0,0.41421 -0.33579,0.75 -0.75,0.75c-0.41421,0 -0.75,-0.33579 -0.75,-0.75z" fill="#c8bfb0" stroke="none" stroke-width="0.5"/><path d="M351.25108,179.11545c-0.15811,-0.47434 0.31623,-0.63246 0.31623,-0.63246l0.41627,-0.11023c0.40908,-0.63437 -0.00588,-1.48659 -0.00929,-2.22369c0.07293,-1.41672 -2.00478,-3.33376 -2.24177,-4.98551c-0.12335,-0.85972 -0.00487,-1.85756 0.79395,-2.36685c0.41452,-0.26428 1.44045,-0.07186 1.45081,-0.75254c0.02194,-1.44223 -0.85031,-2.49015 -0.35176,-4.03512c0,0 0.15811,-0.47434 0.63246,-0.31623c0.47434,0.15811 0.31623,0.63246 0.31623,0.63246c-0.48577,1.39827 0.628,2.53743 0.39711,3.82801c-0.34551,1.93123 -2.56336,0.72238 -2.24845,2.87157c0.27366,1.86769 2.19824,3.37218 2.25144,5.12422c-0.00714,1.31149 0.4134,1.83739 -0.38372,3.01839l-0.70703,0.26421c0,0 -0.47434,0.15811 -0.63246,-0.31623z" fill="#928673" stroke="none" stroke-width="0.5"/><path d="M365.6794,189.22518c-0.15811,0.47434 -0.63246,0.31623 -0.63246,0.31623l-0.6664,-0.23623c-0.94727,-1.00562 -0.49161,-3.91601 0.4345,-5.04419c0.35065,-0.42716 1.51471,-0.73232 1.82136,-1.23359c0.73917,-1.20829 1.08369,-4.19597 1.4535,-5.68907c0.40522,-1.62087 1.64197,-2.78554 2.05784,-4.2996c0.3845,-1.39985 0.35131,-3.24328 0.96077,-4.56968c0.49045,-1.06738 1.97495,-0.92155 2.72943,-1.65995c0.81647,-0.79907 1.15057,-3.00938 1.55869,-4.09307c0.36718,-1.69577 0.16007,-3.557 0.16703,-5.28867c0.00232,-0.57574 -0.40714,-1.57775 -0.12805,-2.1081c1.22662,-2.33101 4.69562,-2.09659 6.52887,-3.36279c0,0 0.41603,-0.27735 0.69338,0.13868c0.27735,0.41603 -0.13868,0.69338 -0.13868,0.69338c-1.93523,1.25602 -4.61134,1.06418 -6.2019,3.0026c-0.34987,0.42639 0.24436,1.08468 0.24638,1.63624c0.00672,1.83658 0.17595,3.77123 -0.2074,5.56993c-0.4839,1.29555 -0.83621,3.53094 -1.81122,4.51892c-0.45166,0.45767 -2.36157,0.78772 -2.51265,1.33553c-0.38126,1.38241 -0.50469,3.03208 -0.9114,4.41675c-0.4583,1.56028 -1.65116,2.67328 -2.06094,4.31239c-0.40864,1.62098 -0.72618,4.54511 -1.54197,5.9184c-0.38246,0.64383 -1.49872,0.88964 -1.92299,1.38746c-0.37696,0.4423 -1.10239,3.23774 -0.68881,3.56781l0.4569,0.1382c0,0 0.47434,0.15811 0.31623,0.63246z" fill="#928673" stroke="none" stroke-width="0.5"/><g><g><path d="M255.36488,148.57225c0,-33.30185 28.7599,-60.29833 64.23702,-60.29833c0.6942,0 6.39419,0.06406 11.4045,-0.96007c4.13158,-0.84452 7.7942,-2.81209 7.7942,-2.81209c0,0 -0.42334,3.55898 1.59638,6.94613c1.38153,2.31688 5.67987,6.7649 5.67987,6.7649c0,0 -1.4835,6.66556 -0.36813,11.39897c0.63361,2.68891 4.54644,8.66297 4.54644,8.66297c0,0 -3.69052,4.94204 -3.27714,7.45426c0.72472,4.40426 4.17219,11.93091 4.17219,11.93091c0,0 -8.51806,4.34721 -8.75602,7.92156c-0.62989,9.46142 5.77604,17.3082 5.77604,17.3082c0,0 -9.82299,8.80153 -10.81453,13.83812c-1.51139,7.67726 7.32126,16.11386 7.32126,16.11386c0,0 -5.74206,5.31865 -5.47312,7.69099c1.12104,9.88883 7.72159,15.95097 7.72159,15.95097c0,0 -25.22527,-7.61302 -27.62281,-7.61302c-35.47712,0 -63.93774,-26.99649 -63.93774,-60.29834z" fill="#e00d0d" stroke="#000000" stroke-width="0"/><g fill="#c10c0c"><path d="M255.36488,148.57225c0,-33.30185 28.7599,-60.29833 64.23702,-60.29833c0.6942,0 6.39419,0.06406 11.4045,-0.96007c4.13158,-0.84452 7.7942,-2.81209 7.7942,-2.81209c0,0 -0.42334,3.55898 1.59638,6.94613c1.38153,2.31688 5.67987,6.7649 5.67987,6.7649c0,0 -1.4835,6.66556 -0.36813,11.39897c0.63361,2.68891 4.54644,8.66297 4.54644,8.66297c0,0 -3.69052,4.94204 -3.27714,7.45426c0.72472,4.40426 4.17219,11.93091 4.17219,11.93091c0,0 -8.51806,4.34721 -8.75602,7.92156c-0.62989,9.46142 5.77604,17.3082 5.77604,17.3082c0,0 -6.52952,5.85053 -9.47885,10.74125c-0.04899,0.08122 -78.44642,-1.86108 -78.45639,-1.88375c-3.13956,-7.13476 -4.8701,-14.96314 -4.8701,-23.17492z" stroke="#000000" stroke-width="0"/><path d="M263.80631,172.07463c0,-0.14675 0.01806,-0.28929 0.05209,-0.42551c-0.26499,0.6296 -0.88771,1.07165 -1.61367,1.07165c-0.9665,0 -1.75,-0.7835 -1.75,-1.75c0,-0.9665 0.7835,-1.75 1.75,-1.75c0.9665,0 1.75,0.7835 1.75,1.75c0,0.14675 -0.01806,0.28929 -0.05209,0.42551c0.26499,-0.6296 0.88771,-1.07165 1.61367,-1.07165c0.5841,0 1.10137,0.28617 1.41925,0.72595c0.31788,-0.43978 0.83514,-0.72595 1.41925,-0.72595c0.9665,0 1.75,0.7835 1.75,1.75c0,0.9665 -0.7835,1.75 -1.75,1.75c-0.5841,0 -1.10137,-0.28617 -1.41925,-0.72595c-0.31788,0.43978 -0.83514,0.72595 -1.41925,0.72595c-0.9665,0 -1.75,-0.7835 -1.75,-1.75z" stroke="none" stroke-width="0.5"/><path d="M270.79869,173.96696c0,-0.19712 0.07605,-0.37649 0.20041,-0.51035c-0.16132,-0.26491 -0.25424,-0.57606 -0.25424,-0.9089c0,-0.71488 0.42865,-1.32964 1.04294,-1.60128c0.32101,-0.38027 0.80122,-0.6218 1.33783,-0.6218c0.9665,0 1.75,0.7835 1.75,1.75c0,0.63256 -0.33562,1.18674 -0.8385,1.49417c0.01516,0.07782 0.02311,0.15821 0.02311,0.24047c0,0.69036 -0.55964,1.25 -1.25,1.25c-0.37084,0 -0.70396,-0.16149 -0.93288,-0.41797c-0.09925,0.04847 -0.21079,0.07567 -0.32868,0.07567c-0.41421,0 -0.75,-0.33579 -0.75,-0.75z" stroke="none" stroke-width="0.5"/><path d="M289.98736,173.02079c0,0.69036 -0.55964,1.25 -1.25,1.25c-0.07696,0 -0.15229,-0.00695 -0.22541,-0.02027c-0.03247,0.0077 -0.0653,0.0145 -0.09845,0.02036c-0.28621,0.57664 -0.88106,0.97299 -1.56847,0.97299c-0.3034,0 -0.58876,-0.07721 -0.83752,-0.21305c-0.08583,0.01863 -0.17494,0.02844 -0.26634,0.02844c-0.69036,0 -1.25,-0.55964 -1.25,-1.25c0,-0.16755 0.03296,-0.32739 0.09276,-0.47341c-0.06556,-0.10186 -0.12083,-0.21096 -0.16437,-0.32584c-0.17144,-0.27056 -0.2707,-0.59138 -0.2707,-0.93539c0,-0.9665 0.7835,-1.75 1.75,-1.75c0.56293,0 1.06378,0.26579 1.3839,0.67873c0.24551,-0.13124 0.52598,-0.20565 0.82382,-0.20565c0.9368,0 1.70168,0.73609 1.7478,1.66144c0.08507,0.16886 0.13298,0.35966 0.13298,0.56164z" stroke="none" stroke-width="0.5"/><path d="M334.2956,173.49388c0,-0.60416 0.30616,-1.13682 0.7718,-1.45129c0.31447,-0.46564 0.84712,-0.7718 1.45129,-0.7718c0.9665,0 1.75,0.7835 1.75,1.75c0,0.60416 -0.30616,1.13682 -0.7718,1.45129c-0.31447,0.46564 -0.84712,0.7718 -1.45129,0.7718c-0.9665,0 -1.75,-0.7835 -1.75,-1.75z" stroke="none" stroke-width="0.5"/><path d="M275.94876,172.39002c0,-0.9665 0.7835,-1.75 1.75,-1.75c0.9665,0 1.75,0.7835 1.75,1.75c0,0.9665 -0.7835,1.75 -1.75,1.75c-0.9665,0 -1.75,-0.7835 -1.75,-1.75z" stroke="none" stroke-width="0.5"/><path d="M304.33752,174.59774c0,0.69036 -0.55964,1.25 -1.25,1.25c-0.46682,0 -0.87387,-0.2559 -1.08853,-0.63506c-0.10709,0.02048 -0.21765,0.03121 -0.33072,0.03121c-0.05059,0 -0.10067,-0.00215 -0.15017,-0.00635c-0.08394,0.8883 -0.83189,1.58329 -1.74216,1.58329c-0.39897,0 -0.76675,-0.13351 -1.06112,-0.35829c-0.06526,0.01052 -0.13221,0.01598 -0.20044,0.01598c-0.48664,0 -0.90833,-0.27809 -1.11483,-0.68402c-0.13401,0.18133 -0.30221,0.33586 -0.49508,0.45407c-0.10859,0.57971 -0.61736,1.01842 -1.22859,1.01842c-0.69036,0 -1.25,-0.55964 -1.25,-1.25c0,-0.13025 0.01992,-0.25585 0.05689,-0.37392c-0.05005,-0.08488 -0.09315,-0.17435 -0.12849,-0.26763c-0.17144,-0.27056 -0.2707,-0.59138 -0.2707,-0.93539c0,-0.0542 0.00246,-0.10782 0.00729,-0.16077l-0.65632,0.08339c0.01449,0.07614 0.02207,0.15472 0.02207,0.23507c0,0.69036 -0.55964,1.25 -1.25,1.25c-0.69036,0 -1.25,-0.55964 -1.25,-1.25c0,-0.11519 0.01558,-0.22675 0.04475,-0.33267c-0.42645,-0.31916 -0.70245,-0.82833 -0.70245,-1.40196c0,-0.9665 0.7835,-1.75 1.75,-1.75c0.58504,0 1.10302,0.28708 1.42077,0.72805l0.55158,-0.06795c0.44641,-0.00081 0.89282,-0.00161 1.33923,-0.00242c0,0 1.14614,0 1.24343,1.09749c0.00929,0.00456 0.01853,0.0092 0.02773,0.01393c0.14075,-0.82539 0.85951,-1.45372 1.72502,-1.45372c0.26023,0 0.50719,0.0568 0.72917,0.15868c0.01969,-0.00066 0.03946,-0.00099 0.0593,-0.00099c0.38271,0 0.73673,0.12285 1.02477,0.33127c0.07743,-0.01047 0.15648,-0.01588 0.23678,-0.01588c0.14787,0 0.29145,0.01834 0.4286,0.05287c0.18189,-0.09862 0.38321,-0.16595 0.59676,-0.19476c0.28802,-0.20837 0.642,-0.33119 1.02466,-0.33119c0.9665,0 1.75,0.7835 1.75,1.75c0,0.23266 -0.0454,0.45472 -0.12783,0.6578c0.16218,0.21084 0.25861,0.47488 0.25861,0.76145z" stroke="none" stroke-width="0.5"/><path d="M311.90684,175.22851c0,0.69036 -0.55964,1.25 -1.25,1.25c-0.57575,0 -1.06058,-0.38925 -1.20569,-0.91895c-0.28384,0.19858 -0.62933,0.31509 -1.00203,0.31509c-0.54083,0 -1.02435,-0.24533 -1.34536,-0.63078h-0.70466c0,0 -1.75,0 -1.75,-1.75c0,-1.75 1.75,-1.75 1.75,-1.75h2.83849c0,0 0.86654,0 1.38009,0.60977c0.23459,-0.09486 0.43427,-0.10734 0.43427,-0.10734c1.45879,-0.0899 2.86045,-0.27488 4.26339,-0.50826c0.16482,-0.08005 0.34987,-0.12495 0.54541,-0.12495c0.04684,0 0.09307,0.00258 0.13857,0.00759c0.76099,-0.13427 1.52514,-0.28051 2.30173,-0.4313l0.94841,-0.18415c0,0 1.22708,-0.23826 1.46534,0.98882c0.02182,0.11237 0.03135,0.21645 0.03066,0.31281c0.18465,0.25348 0.30286,0.55846 0.32905,0.88934c0.14132,-0.82472 0.85976,-1.45234 1.72479,-1.45234c0.9665,0 1.75,0.7835 1.75,1.75c0,0.9665 -0.7835,1.75 -1.75,1.75c-0.15857,0 -0.31222,-0.02109 -0.45829,-0.06062c0.00038,0.01504 0.00057,0.03013 0.00057,0.04526c0,0.9665 -0.7835,1.75 -1.75,1.75c-0.9665,0 -1.75,-0.7835 -1.75,-1.75c0,-0.07035 0.00415,-0.13973 0.01222,-0.20791c-0.19957,-0.05631 -0.38466,-0.14713 -0.54844,-0.26561c-0.51857,-0.06996 -0.96508,-0.36706 -1.23612,-0.78786c-0.12259,0.0224 -0.24505,0.04456 -0.3674,0.06643c0.51075,0.15711 0.88199,0.63267 0.88199,1.19495c0,0.69036 -0.55964,1.25 -1.25,1.25c-0.06158,0 -0.12212,-0.00445 -0.18132,-0.01305c-0.31673,0.31698 -0.75443,0.51305 -1.23793,0.51305c-0.9665,0 -1.75,-0.7835 -1.75,-1.75c0,-0.24062 0.04856,-0.46991 0.13643,-0.67858c-0.49957,0.05896 -1.00254,0.1095 -1.51113,0.14992c0.07505,0.16057 0.11697,0.33972 0.11697,0.52866z" stroke="none" stroke-width="0.5"/><path d="M271.24486,177.43623c0,-0.69036 0.55964,-1.25 1.25,-1.25c0.69036,0 1.25,0.55964 1.25,1.25c0,0.69036 -0.55964,1.25 -1.25,1.25c-0.69036,0 -1.25,-0.55964 -1.25,-1.25z" stroke="none" stroke-width="0.5"/><path d="M282.90267,172.08618c0.69036,0 1.25,0.55964 1.25,1.25c0,0.69036 -0.55964,1.25 -1.25,1.25c-0.39021,0 -0.73867,-0.1788 -0.9679,-0.45895c-0.07867,0.61466 -0.60377,1.08972 -1.23982,1.08972c-0.69036,0 -1.25,-0.55964 -1.25,-1.25c0,-0.69036 0.55964,-1.25 1.25,-1.25c0.39021,0 0.73867,0.1788 0.9679,0.45895c0.07867,-0.61466 0.60377,-1.08972 1.23982,-1.08972z" stroke="none" stroke-width="0.5"/><path d="M300.76058,178.85548c0,-0.3218 0.20267,-0.59627 0.48734,-0.70272c-0.22058,-0.2254 -0.35656,-0.53393 -0.35656,-0.87422c0,-0.69036 0.55964,-1.25 1.25,-1.25c0.69036,0 1.25,0.55964 1.25,1.25c0,0.67562 -0.536,1.22604 -1.20597,1.24924c0.04817,0.09901 0.07519,0.2102 0.07519,0.3277c0,0.41421 -0.33579,0.75 -0.75,0.75c-0.41421,0 -0.75,-0.33579 -0.75,-0.75z" stroke="none" stroke-width="0.5"/><path d="M308.93376,177.75162c0,-0.69036 0.55964,-1.25 1.25,-1.25c0.69036,0 1.25,0.55964 1.25,1.25c0,0.69036 -0.55964,1.25 -1.25,1.25c-0.69036,0 -1.25,-0.55964 -1.25,-1.25z" stroke="none" stroke-width="0.5"/><path d="M331.51428,176.03384c0.03816,-0.00351 0.07682,-0.0053 0.11589,-0.0053c0.69036,0 1.25,0.55964 1.25,1.25c0,0.69036 -0.55964,1.25 -1.25,1.25c-0.69036,0 -1.25,-0.55964 -1.25,-1.25c0,-0.32315 0.12263,-0.61767 0.32389,-0.83954c-0.25356,-0.04703 -0.46233,-0.22162 -0.55725,-0.45469c-0.1312,0.03141 -0.26814,0.04805 -0.40897,0.04805c-0.81034,0 -1.49203,-0.55077 -1.69117,-1.29838c-0.11583,0.02414 -0.23586,0.03683 -0.35885,0.03683c-0.9665,0 -1.75,-0.7835 -1.75,-1.75c0,-0.9665 0.7835,-1.75 1.75,-1.75c0.46783,0 0.89279,0.18358 1.20677,0.48263c0.30922,0.16083 0.54275,0.44712 0.63313,0.79141c0.06889,-0.00824 0.13901,-0.01249 0.21013,-0.01249c0.45599,0 0.87125,0.1744 1.18271,0.46014c0.31146,-0.28574 0.72672,-0.46014 1.18271,-0.46014c0.9665,0 1.75,0.7835 1.75,1.75c0,0.9665 -0.7835,1.75 -1.75,1.75c-0.19269,0 -0.3781,-0.03114 -0.55148,-0.08867c-0.01057,0.03102 -0.02312,0.06112 -0.03749,0.09016z" stroke="none" stroke-width="0.5"/><path d="M281.04881,179.01317c0,-0.40405 0.31951,-0.73348 0.71966,-0.7494c-0.05671,-0.10555 -0.08888,-0.22625 -0.08888,-0.35446c0,-0.41421 0.33579,-0.75 0.75,-0.75c0.41421,0 0.75,0.33579 0.75,0.75c0,0.40405 -0.31951,0.73348 -0.71966,0.7494c0.05671,0.10555 0.08888,0.22625 0.08888,0.35446c0,0.41421 -0.33579,0.75 -0.75,0.75c-0.41421,0 -0.75,-0.33579 -0.75,-0.75z" stroke="none" stroke-width="0.5"/><path d="M275.52952,180.11703c0,-0.41421 0.33579,-0.75 0.75,-0.75c0.41421,0 0.75,0.33579 0.75,0.75c0,0.41421 -0.33579,0.75 -0.75,0.75c-0.41421,0 -0.75,-0.33579 -0.75,-0.75z" stroke="none" stroke-width="0.5"/><path d="M302.81061,182.79783c0,-0.41421 0.33579,-0.75 0.75,-0.75c0.41421,0 0.75,0.33579 0.75,0.75c0,0.41421 -0.33579,0.75 -0.75,0.75c-0.41421,0 -0.75,-0.33579 -0.75,-0.75z" stroke="none" stroke-width="0.5"/><path d="M318.73772,179.95934c0,-0.41421 0.33579,-0.75 0.75,-0.75c0.41421,0 0.75,0.33579 0.75,0.75c0,0.41421 -0.33579,0.75 -0.75,0.75c-0.41421,0 -0.75,-0.33579 -0.75,-0.75z" stroke="none" stroke-width="0.5"/></g><g fill="#b70b0b"><path d="M255.36488,148.57225c0,-33.30185 28.7599,-60.29833 64.23702,-60.29833c0.6942,0 6.39419,0.06406 11.4045,-0.96007c4.13158,-0.84452 7.7942,-2.81209 7.7942,-2.81209c0,0 -0.42334,3.55898 1.59638,6.94613c1.38153,2.31688 5.67987,6.7649 5.67987,6.7649c0,0 -1.4835,6.66556 -0.36813,11.39897c0.63361,2.68891 4.54644,8.66297 4.54644,8.66297c0,0 -3.69052,4.94204 -3.27714,7.45426c0.72472,4.40426 4.17219,11.93091 4.17219,11.93091c0,0 -8.51806,4.34721 -8.75602,7.92156c-0.22737,3.41533 0.46204,6.62028 1.43599,9.3217c0.03609,0.10008 -88.18419,-0.61316 -88.21598,-0.95432c-0.16506,-1.77131 -0.24932,-3.56462 -0.24932,-5.3766z" stroke="#000000" stroke-width="0"/><path d="M258.93316,151.24364c0.70972,0 1.32076,0.42248 1.59535,1.02967c0.29161,0.31262 0.47004,0.73218 0.47004,1.19341c0,0.9665 -0.7835,1.75 -1.75,1.75c-0.33468,0 -0.64742,-0.09395 -0.91328,-0.25692c-0.32009,0.35161 -0.78149,0.57231 -1.29444,0.57231c-0.9665,0 -1.43461,-0.7835 -1.43461,-1.75c0,-0.9665 0.46811,-1.75 1.43461,-1.75c0.13783,0 0.27194,0.01593 0.40059,0.04606c0.30792,-0.50068 0.86084,-0.83453 1.49174,-0.83453z" stroke="none" stroke-width="0.5"/><path d="M271.2333,154.10905c0.69036,0 1.25,0.55964 1.25,1.25c0,0.69036 -0.55964,1.25 -1.25,1.25c-0.4448,0 -0.83533,-0.23232 -1.05688,-0.58224c-0.20845,0.08764 -0.43744,0.13608 -0.67775,0.13608c-0.9665,0 -1.75,-0.7835 -1.75,-1.75c0,-0.9665 0.7835,-1.75 1.75,-1.75c0.86289,0 1.57991,0.62452 1.72373,1.44621c0.00363,-0.00003 0.00727,-0.00005 0.01091,-0.00005z" stroke="none" stroke-width="0.5"/><path d="M262.22937,152.83594c0,-0.9665 0.7835,-1.75 1.75,-1.75c0.9665,0 1.75,0.7835 1.75,1.75c0,0.9665 -0.7835,1.75 -1.75,1.75c-0.9665,0 -1.75,-0.7835 -1.75,-1.75z" stroke="none" stroke-width="0.5"/><path d="M307.18757,157.08213c-0.31234,0 -0.59791,-0.11455 -0.81702,-0.30394c-0.22983,0.11096 -0.48761,0.17316 -0.75992,0.17316c-0.9665,0 -1.75,-0.7835 -1.75,-1.75c0,-0.9665 0.7835,-1.75 1.75,-1.75c0.68682,0 1.28123,0.39566 1.56773,0.97148c0.07501,-0.89736 0.82711,-1.60226 1.74385,-1.60226c0.41348,0 0.79347,0.1434 1.09294,0.38318c0.15371,-0.04414 0.31609,-0.06779 0.484,-0.06779c0.05315,0 0.10575,0.00237 0.15769,0.00701c0.05194,-0.00464 0.10454,-0.00701 0.15769,-0.00701c0.9665,0 1.75,0.7835 1.75,1.75c0,0.9665 -0.7835,1.75 -1.75,1.75c-0.05315,0 -0.10575,-0.00237 -0.15769,-0.00701c-0.05194,0.00464 -0.10454,0.00701 -0.15769,0.00701c-0.30085,0 -0.58396,-0.07591 -0.83123,-0.20963c-0.1267,0.55614 -0.62427,0.97119 -1.21879,0.97119c-0.34801,0 -0.66281,-0.14222 -0.88944,-0.37171c-0.11754,0.0366 -0.24252,0.05632 -0.37211,0.05632z" stroke="none" stroke-width="0.5"/><path d="M336.81871,154.57058c0,-0.9665 0.7835,-1.75 1.75,-1.75c0.16394,0 0.32261,0.02254 0.47308,0.06469c0.15048,-0.04215 0.30915,-0.06469 0.47308,-0.06469c0.7186,0 1.33603,0.43312 1.60549,1.05254c0.18777,-0.06882 0.39061,-0.10638 0.60222,-0.10638c0.9665,0 1.75,0.7835 1.75,1.75c0,0.9665 -0.7835,1.75 -1.75,1.75c-0.7186,0 -1.33603,-0.43312 -1.60549,-1.05254c-0.18777,0.06882 -0.39061,0.10638 -0.60222,0.10638c-0.16394,0 -0.32261,-0.02254 -0.47308,-0.06469c-0.15048,0.04215 -0.30915,0.06469 -0.47308,0.06469c-0.9665,0 -1.75,-0.7835 -1.75,-1.75z" stroke="none" stroke-width="0.5"/><path d="M330.684,154.58213c0.69036,0 1.25,0.55964 1.25,1.25c0,0.69036 -0.55964,1.25 -1.25,1.25c-0.57575,0 -1.06058,-0.38925 -1.20569,-0.91895c-0.21738,0.15209 -0.47092,0.25603 -0.74515,0.29637c-0.15743,0.19442 -0.35569,0.35442 -0.58172,0.46698c-0.28659,0.57556 -0.88086,0.97099 -1.56748,0.97099c-0.9665,0 -1.75,-0.7835 -1.75,-1.75c0,-0.68662 0.39543,-1.28089 0.97099,-1.56748c0.25017,-0.50241 0.73478,-0.86757 1.31061,-0.95227c0.32083,-0.3962 0.8112,-0.6495 1.36073,-0.6495c0.94665,0 1.71775,0.75166 1.74901,1.69071c0.14202,-0.05605 0.29676,-0.08685 0.4587,-0.08685z" stroke="none" stroke-width="0.5"/><path d="M333.87636,158.03985c0,-0.1406 0.03869,-0.27217 0.10601,-0.38463c-0.0449,-0.08914 -0.07944,-0.18439 -0.10204,-0.28416c-0.75826,-0.19188 -1.31935,-0.87872 -1.31935,-1.69662c0,-0.9665 0.7835,-1.75 1.75,-1.75c0.9665,0 1.75,0.7835 1.75,1.75c0,0.18513 -0.02875,0.36354 -0.08202,0.53101c0.22877,0.22654 0.37049,0.54084 0.37049,0.88823c0,0.61489 -0.44398,1.12609 -1.02886,1.2305c-0.11202,0.27322 -0.38065,0.46567 -0.69423,0.46567c-0.41421,0 -0.75,-0.33579 -0.75,-0.75z" stroke="none" stroke-width="0.5"/><path d="M319.49927,156.7783c0,-0.10812 0.01373,-0.21304 0.03954,-0.3131c-0.3325,-0.31854 -0.53954,-0.76701 -0.53954,-1.26384c0,-0.08022 0.0054,-0.15918 0.01585,-0.23654c-0.01045,-0.07736 -0.01585,-0.15632 -0.01585,-0.23654c0,-0.9665 0.7835,-1.75 1.75,-1.75c0.9665,0 1.75,0.7835 1.75,1.75c0,0.08022 -0.0054,0.15918 -0.01585,0.23654c0.01045,0.07736 0.01585,0.15632 0.01585,0.23654c0,0.08845 -0.00656,0.17537 -0.01923,0.2603c0.45785,0.18555 0.78078,0.63454 0.78078,1.15895c0,0.59141 -0.41072,1.08689 -0.96248,1.21677c0.01073,0.0659 0.01631,0.13354 0.01631,0.20247c0,0.69036 -0.55964,1.25 -1.25,1.25c-0.69036,0 -1.25,-0.55964 -1.25,-1.25c0,-0.12959 0.01972,-0.25457 0.05632,-0.37211c-0.22949,-0.22663 -0.37171,-0.54143 -0.37171,-0.88944z" stroke="none" stroke-width="0.5"/><path d="M315.70306,153.60905c0.9665,0 1.75,0.7835 1.75,1.75c0,0.9665 -0.7835,1.75 -1.75,1.75c-0.30154,0 -0.58527,-0.07627 -0.83295,-0.21056c-0.13715,0.03453 -0.28074,0.05287 -0.4286,0.05287c-0.9665,0 -1.75,-0.7835 -1.75,-1.75c0,-0.9665 0.7835,-1.75 1.75,-1.75c0.30154,0 0.58527,0.07627 0.83295,0.21056c0.13715,-0.03453 0.28074,-0.05287 0.4286,-0.05287z" stroke="none" stroke-width="0.5"/><path d="M300.05286,156.93599c0,0.23267 -0.10595,0.44059 -0.27223,0.57816c-0.20868,0.39931 -0.62679,0.67184 -1.10855,0.67184c-0.48014,0 -0.89706,-0.27071 -1.10644,-0.66783c-0.14971,0.04169 -0.3075,0.06397 -0.4705,0.06397c-0.94595,0 -1.7166,-0.75054 -1.74894,-1.68861c-0.19174,0.07218 -0.39949,0.11167 -0.61647,0.11167c-0.59785,0 -1.12569,-0.2998 -1.44136,-0.75726c-0.16674,0.79281 -0.87012,1.38803 -1.71252,1.38803c-0.13949,0 -0.27516,-0.01632 -0.40522,-0.04715c-0.2446,0.67151 -0.88871,1.15101 -1.6448,1.15101c-0.77125,0 -1.42597,-0.49891 -1.65902,-1.1916c-0.17258,0.05694 -0.35704,0.08774 -0.5487,0.08774c-0.25307,0 -0.4936,-0.05372 -0.71079,-0.15037c-0.32102,0.38123 -0.80184,0.62346 -1.33923,0.62346c-0.55091,0 -1.04237,-0.25457 -1.36315,-0.65249c-0.18493,0.45917 -0.63459,0.78327 -1.15995,0.78327c-0.42341,0 -0.79766,-0.21052 -1.02377,-0.5326c-0.16739,0.49314 -0.63423,0.84799 -1.18395,0.84799c-0.69036,0 -1.25,-0.55964 -1.25,-1.25c0,-0.17841 0.03738,-0.34809 0.10473,-0.50164c-0.19805,0.15154 -0.42942,0.26172 -0.68121,0.31766c-0.24611,0.66862 -0.88876,1.1455 -1.64279,1.1455c-0.54152,0 -1.02559,-0.24596 -1.34659,-0.63226c-0.0241,0.00098 -0.04832,0.00148 -0.07266,0.00148c-0.83395,0 -1.53165,-0.58333 -1.70734,-1.36422c-0.49879,-0.30833 -0.83113,-0.86017 -0.83113,-1.48964c0,-0.9665 0.7835,-1.75 1.75,-1.75c0.83395,0 1.53165,0.58333 1.70734,1.36422c0.08139,0.05031 0.15834,0.1071 0.23014,0.16966c0.29838,-0.53853 0.87251,-0.9031 1.53179,-0.9031c0.9665,0 1.75,0.7835 1.75,1.75c0,0.3033 -0.07716,0.58857 -0.21291,0.83727c0.19378,-0.12343 0.42385,-0.19494 0.67063,-0.19494c0.42341,0 0.79766,0.21052 1.02377,0.5326c0.16739,-0.49314 0.63423,-0.84799 1.18395,-0.84799c0.30598,0 0.58628,0.10994 0.80356,0.29247c0.15304,-0.81034 0.86472,-1.42325 1.71955,-1.42325c0.25307,0 0.4936,0.05372 0.71079,0.15037c0.32102,-0.38123 0.80184,-0.62346 1.33923,-0.62346c0.51116,0 0.97113,0.21915 1.29108,0.56863c-0.02937,-0.12711 -0.04489,-0.25953 -0.04489,-0.39557c0,-0.9665 0.7835,-1.75 1.75,-1.75c0.93129,0 1.69267,0.72745 1.74691,1.64512c0.39302,0.11322 0.72925,0.36047 0.95601,0.68908c0.16674,-0.79281 0.87012,-1.38803 1.71252,-1.38803c0.94595,0 1.7166,0.75054 1.74894,1.68861c0.16341,-0.06152 0.33846,-0.09929 0.52094,-0.10911c0.02367,-0.02229 0.04796,-0.04392 0.07285,-0.06488c-0.09666,-0.2172 -0.15037,-0.45772 -0.15037,-0.71079c0,-0.9665 0.7835,-1.75 1.75,-1.75c0.67676,0 1.2638,0.38416 1.55494,0.9463c0.00732,-0.00009 0.01466,-0.00014 0.022,-0.00014c0.11016,0 0.21794,0.01018 0.32246,0.02965c0.28567,-0.57817 0.88133,-0.97581 1.56987,-0.97581c0.9665,0 1.75,0.7835 1.75,1.75c0,0.9665 -0.7835,1.75 -1.75,1.75c-0.11016,0 -0.21794,-0.01018 -0.32246,-0.02965c-0.28567,0.57817 -0.88133,0.97581 -1.56987,0.97581c-0.13949,0 -0.27516,-0.01632 -0.40522,-0.04715c-0.03594,0.09867 -0.08051,0.19319 -0.13279,0.28266c0.02525,0.03765 0.0485,0.07674 0.06961,0.11714c0.16628,0.13757 0.27223,0.34549 0.27223,0.57816z" stroke="none" stroke-width="0.5"/><path d="M292.84896,158.82832c0,-0.69036 0.55964,-1.25 1.25,-1.25c0.69036,0 1.25,0.55964 1.25,1.25c0,0.69036 -0.55964,1.25 -1.25,1.25c-0.69036,0 -1.25,-0.55964 -1.25,-1.25z" stroke="none" stroke-width="0.5"/><path d="M331.32633,160.08987c0,-0.69036 0.55964,-1.25 1.25,-1.25c0.69036,0 1.25,0.55964 1.25,1.25c0,0.69036 -0.55964,1.25 -1.25,1.25c-0.69036,0 -1.25,-0.55964 -1.25,-1.25z" stroke="none" stroke-width="0.5"/><path d="M262.28321,159.61679c0,-0.41421 0.33579,-0.75 0.75,-0.75c0.41421,0 0.75,0.33579 0.75,0.75c0,0.41421 -0.33579,0.75 -0.75,0.75c-0.41421,0 -0.75,-0.33579 -0.75,-0.75z" stroke="none" stroke-width="0.5"/><path d="M274.26796,161.19373c0,-0.41421 0.33579,-0.75 0.75,-0.75c0.41421,0 0.75,0.33579 0.75,0.75c0,0.41421 -0.33579,0.75 -0.75,0.75c-0.41421,0 -0.75,-0.33579 -0.75,-0.75z" stroke="none" stroke-width="0.5"/><path d="M282.31037,159.61679c0,-0.41421 0.33579,-0.75 0.75,-0.75c0.41421,0 0.75,0.33579 0.75,0.75c0,0.41421 -0.33579,0.75 -0.75,0.75c-0.41421,0 -0.75,-0.33579 -0.75,-0.75z" stroke="none" stroke-width="0.5"/><path d="M279.94495,158.35524c0,-0.41421 0.33579,-0.75 0.75,-0.75c0.41421,0 0.75,0.33579 0.75,0.75c0,0.41421 -0.33579,0.75 -0.75,0.75c-0.41421,0 -0.75,-0.33579 -0.75,-0.75z" stroke="none" stroke-width="0.5"/><path d="M298.39517,160.56296c0,-0.41421 0.33579,-0.75 0.75,-0.75c0.41421,0 0.75,0.33579 0.75,0.75c0,0.41421 -0.33579,0.75 -0.75,0.75c-0.41421,0 -0.75,-0.33579 -0.75,-0.75z" stroke="none" stroke-width="0.5"/><path d="M294.7682,162.1399c0,-0.41421 0.33579,-0.75 0.75,-0.75c0.41421,0 0.75,0.33579 0.75,0.75c0,0.41421 -0.33579,0.75 -0.75,0.75c-0.41421,0 -0.75,-0.33579 -0.75,-0.75z" stroke="none" stroke-width="0.5"/><path d="M314.47997,159.77448c0,-0.41421 0.33579,-0.75 0.75,-0.75c0.41421,0 0.75,0.33579 0.75,0.75c0,0.41421 -0.33579,0.75 -0.75,0.75c-0.41421,0 -0.75,-0.33579 -0.75,-0.75z" stroke="none" stroke-width="0.5"/><path d="M316.84539,164.03223c0,-0.41421 0.33579,-0.75 0.75,-0.75c0.41421,0 0.75,0.33579 0.75,0.75c0,0.41421 -0.33579,0.75 -0.75,0.75c-0.41421,0 -0.75,-0.33579 -0.75,-0.75z" stroke="none" stroke-width="0.5"/><path d="M326.93781,160.87834c0,-0.41421 0.33579,-0.75 0.75,-0.75c0.41421,0 0.75,0.33579 0.75,0.75c0,0.41421 -0.33579,0.75 -0.75,0.75c-0.41421,0 -0.75,-0.33579 -0.75,-0.75z" stroke="none" stroke-width="0.5"/></g><g fill="#a50a0a"><path d="M259.51171,127.21235c9.18629,-22.75897 32.62537,-38.93842 60.09019,-38.93842c0.6942,0 6.39419,0.06406 11.4045,-0.96007c4.13158,-0.84452 7.7942,-2.81209 7.7942,-2.81209c0,0 -0.42334,3.55898 1.59638,6.94613c1.38153,2.31688 5.67987,6.7649 5.67987,6.7649c0,0 -1.4835,6.66556 -0.36813,11.39897c0.63361,2.68891 4.54644,8.66297 4.54644,8.66297c0,0 -3.69052,4.94204 -3.27714,7.45426c0.07796,0.47377 0.41777,2.13538 0.55106,2.66816c0.16363,0.65406 -88.23565,-0.64401 -88.01737,-1.18481z" stroke="#000000" stroke-width="0"/><path d="M264.76785,126.17027c0.9665,0 1.75,0.7835 1.75,1.75c0,0.9665 -0.7835,1.75 -1.75,1.75c-0.69427,0 -1.29412,-0.40429 -1.57695,-0.99029c-0.28283,0.58599 -0.88267,0.99029 -1.57694,0.99029c-0.9665,0 -1.75,-0.7835 -1.75,-1.75c0,-0.9665 0.7835,-1.75 1.75,-1.75c0.69427,0 1.29411,0.40429 1.57694,0.99029c0.28283,-0.58599 0.88268,-0.99029 1.57695,-0.99029z" stroke="none" stroke-width="0.5"/><path d="M279.29107,129.81259c0,0.9665 -0.7835,1.75 -1.75,1.75c-0.80435,0 -1.48196,-0.54267 -1.68668,-1.28186c-0.45258,-0.0694 -0.84805,-0.31219 -1.11647,-0.65842c-0.24551,0.13124 -0.52598,0.20565 -0.82382,0.20565c-0.1608,0 -0.31654,-0.02169 -0.46444,-0.0623c-0.27912,0.5958 -0.88416,1.00847 -1.58558,1.00847c-0.92596,0 -1.68395,-0.71916 -1.74591,-1.6294c-0.31765,0.32431 -0.76047,0.52554 -1.25028,0.52554c-0.08022,0 -0.15918,-0.0054 -0.23654,-0.01585c-0.07736,0.01045 -0.15632,0.01585 -0.23654,0.01585c-0.9665,0 -1.75,-0.7835 -1.75,-1.75c0,-0.9665 0.7835,-1.75 1.75,-1.75c0.08022,0 0.15918,0.0054 0.23654,0.01585c0.07736,-0.01045 0.15632,-0.01585 0.23654,-0.01585c0.92596,0 1.68396,0.71916 1.74591,1.6294c0.31765,-0.3243 0.76046,-0.52554 1.25028,-0.52554c0.1608,0 0.31654,0.02169 0.46444,0.0623c0.27912,-0.59579 0.88416,-1.00846 1.58558,-1.00846c0.56293,0 1.06378,0.26579 1.38389,0.67873c0.24551,-0.13124 0.52598,-0.20565 0.82382,-0.20565c0.49368,0 0.93962,0.20442 1.25777,0.53324c-0.00765,-0.06643 -0.01159,-0.134 -0.01159,-0.20249c0,-0.9665 0.7835,-1.75 1.75,-1.75c0.9665,0 1.75,0.7835 1.75,1.75c0,0.9665 -0.7835,1.75 -1.75,1.75c-0.03234,0 -0.06448,-0.00088 -0.09639,-0.00261c0.17067,0.27015 0.26945,0.59024 0.26945,0.93341z" stroke="none" stroke-width="0.5"/><path d="M281.15267,128.23565c0,-0.9665 0.7835,-1.75 1.75,-1.75c0.9665,0 1.75,0.7835 1.75,1.75c0,0.9665 -0.7835,1.75 -1.75,1.75c-0.9665,0 -1.75,-0.7835 -1.75,-1.75z" stroke="none" stroke-width="0.5"/><path d="M286.19889,128.55104c0,-0.9665 0.7835,-1.75 1.75,-1.75c0.70362,0 1.31025,0.41525 1.58819,1.01405c0.73091,0.21007 1.26567,0.88365 1.26567,1.68212c0,0.9665 -0.7835,1.75 -1.75,1.75c-0.70362,0 -1.31025,-0.41525 -1.58819,-1.01405c-0.73091,-0.21007 -1.26567,-0.88365 -1.26567,-1.68212z" stroke="none" stroke-width="0.5"/><path d="M309.85301,131.86262c0,-0.21758 0.03971,-0.42587 0.11227,-0.61805c-0.03208,0.00175 -0.06439,0.00263 -0.0969,0.00263c-0.56703,0 -1.07108,-0.26968 -1.39087,-0.68778c-0.26436,-0.06925 -0.50432,-0.19877 -0.70432,-0.37301c-0.29838,0.53853 -0.87251,0.90309 -1.53179,0.90309c-0.9665,0 -1.75,-0.7835 -1.75,-1.75c0,-0.9665 0.7835,-1.75 1.75,-1.75c0.43974,0 0.8416,0.16219 1.14902,0.43001c0.29838,-0.53853 0.87251,-0.90309 1.53179,-0.90309c0.56703,0 1.07108,0.26968 1.39087,0.68778c0.56743,0.14864 1.02245,0.57499 1.21108,1.12507c0.23583,-0.68774 0.88808,-1.18208 1.65579,-1.18208c0.45522,0 0.86984,0.17382 1.18113,0.4587c0.48373,-0.77408 1.49967,-0.77409 1.49967,-0.77409h1.89233c0,0 0.59798,0 1.09484,0.34955c0.22704,-0.11644 0.48287,-0.18471 0.75398,-0.19133c0.31288,-0.47528 0.85118,-0.789 1.46276,-0.789c0.74928,0 1.38858,0.4709 1.63809,1.1329c0.29122,-0.2164 0.65202,-0.34443 1.04271,-0.34443c0.66727,0 1.24731,0.37346 1.54252,0.92276c0.29323,-0.11084 0.53098,-0.12913 0.53098,-0.12913l1.14846,-0.08834c0.30426,-0.51644 0.8661,-0.86298 1.50887,-0.86298c0.55003,0 1.0408,0.25375 1.36161,0.65058c0.25196,-0.65713 0.88879,-1.12366 1.63458,-1.12366c0.7867,0 1.45215,0.5191 1.67252,1.23346c0.30953,-0.27674 0.7181,-0.44499 1.16598,-0.44499c0.74545,0 1.38204,0.4661 1.63423,1.12276c0.08423,-0.01245 0.17041,-0.0189 0.2581,-0.0189c0.13948,0 0.27516,0.01631 0.40522,0.04715c0.2446,-0.6715 0.8887,-1.15101 1.6448,-1.15101c0.02643,0 0.05272,0.00059 0.07885,0.00174c0.02614,-0.00116 0.05242,-0.00174 0.07885,-0.00174c0.50235,0 0.95526,0.21167 1.27442,0.55068c0.31887,-0.42982 0.83009,-0.70838 1.40638,-0.70838c0.48046,0 0.91569,0.19362 1.23194,0.50709c0.11154,-0.0223 0.22691,-0.034 0.34501,-0.034c0.02132,0 0.04254,0.00038 0.06367,0.00114c0.31308,-0.29408 0.73444,-0.47422 1.19788,-0.47422c0.4021,0 0.77252,0.13561 1.06803,0.3636c0.24563,-0.1314 0.52626,-0.20591 0.8243,-0.20591c0.9665,0 1.75,0.7835 1.75,1.75c0,0.9665 -0.7835,1.75 -1.75,1.75c-0.4021,0 -0.77252,-0.13561 -1.06803,-0.3636c-0.24563,0.1314 -0.52626,0.2059 -0.8243,0.2059c-0.02132,0 -0.04254,-0.00038 -0.06368,-0.00113c-0.31308,0.29408 -0.73444,0.47422 -1.19787,0.47422c-0.48046,0 -0.91569,-0.19362 -1.23194,-0.50708c-0.11154,0.0223 -0.22691,0.034 -0.34501,0.034c-0.50235,0 -0.95526,-0.21167 -1.27442,-0.55068c-0.31887,0.42981 -0.83009,0.70838 -1.40638,0.70838c-0.02643,0 -0.05271,-0.00059 -0.07885,-0.00174c-0.02614,0.00116 -0.05243,0.00174 -0.07885,0.00174c-0.13948,0 -0.27516,-0.01632 -0.40522,-0.04716c-0.2446,0.6715 -0.8887,1.15102 -1.6448,1.15102c-0.20975,0 -0.41089,-0.0369 -0.59727,-0.10457c-0.30588,0.26182 -0.70316,0.41996 -1.13737,0.41996c-0.8422,0 -1.54543,-0.59493 -1.7124,-1.38746c-0.20178,0.08121 -0.42218,0.1259 -0.65301,0.1259c-0.81284,0 -1.49624,-0.55417 -1.693,-1.3053c-0.11102,-0.08491 -0.21157,-0.18282 -0.29939,-0.29145c-0.08797,0.22944 -0.22286,0.43565 -0.39293,0.60687c-0.24257,1.19719 -1.58051,1.30011 -1.58051,1.30011l-2.05003,0.15769c0,0 -1.22688,0.09438 -1.7022,-0.90393c-0.19815,0.07786 -0.41395,0.12061 -0.63973,0.12061c-0.39069,0 -0.75149,-0.12803 -1.04271,-0.34443c-0.24951,0.66199 -0.88881,1.1329 -1.63809,1.1329c-0.61158,0 -1.14988,-0.31372 -1.46276,-0.789c-0.38108,-0.0093 -0.73194,-0.14041 -1.01515,-0.35589c-0.4233,0.19872 -0.83367,0.19872 -0.83367,0.19872h-1.89233c0,0 -0.71393,0 -1.22979,-0.456c-0.30381,0.44958 -0.81104,0.75038 -1.38962,0.77033c0.07218,0.19173 0.11167,0.3995 0.11167,0.61647c0,0.9665 -0.7835,1.75 -1.75,1.75c-0.9665,0 -1.75,-0.7835 -1.75,-1.75zM311.52416,130.06513c-0.00577,0.01683 -0.01179,0.03354 -0.01806,0.05013c0.0118,-0.00064 0.02365,-0.00117 0.03552,-0.00158c-0.00605,-0.01607 -0.01188,-0.03225 -0.01746,-0.04855z" stroke="none" stroke-width="0.5"/><path d="M298.04131,125.2241c0.9665,0 1.75,0.7835 1.75,1.75c0,0.04792 -0.00193,0.09538 -0.00571,0.14233c0.05142,0 0.10086,0 0.14804,0c0,0 1.30186,0 1.65985,1.12287c0.43694,0.31818 0.72093,0.83372 0.72093,1.4156c0,0.9665 -0.7835,1.75 -1.75,1.75c-0.61134,0 -1.14947,-0.31348 -1.46241,-0.78847c-0.51126,0 -1.02251,0 -1.53377,0h-0.63078c0,0 -0.17834,0 -0.42115,-0.05693c-0.24944,0.13682 -0.53583,0.21462 -0.8404,0.21462c-0.70648,0 -1.31519,-0.41864 -1.59158,-1.02139c-0.31898,0.42846 -0.82939,0.706 -1.40461,0.706c-0.9665,0 -1.75,-0.7835 -1.75,-1.75c0,-0.9665 0.7835,-1.75 1.75,-1.75c0.60373,0 1.13605,0.30572 1.4506,0.77079c0.29424,-0.55243 0.876,-0.92848 1.54559,-0.92848c0.21697,0 0.42473,0.03949 0.61647,0.11167c0.03234,-0.93807 0.80299,-1.68861 1.74894,-1.68861z" stroke="none" stroke-width="0.5"/><path d="M304.03369,126.95873c0.9665,0 1.75,0.7835 1.75,1.75c0,0.9665 -0.7835,1.75 -1.75,1.75c-0.34744,0 -0.67124,-0.10125 -0.94349,-0.27586c-0.19643,0.07631 -0.41005,0.11817 -0.63345,0.11817c-0.9665,0 -1.75,-0.7835 -1.75,-1.75c0,-0.9665 0.7835,-1.75 1.75,-1.75c0.34744,0 0.67124,0.10125 0.94349,0.27586c0.19643,-0.07631 0.41005,-0.11817 0.63345,-0.11817z" stroke="none" stroke-width="0.5"/><path d="M310.0107,128.70873c0,-0.9665 0.7835,-1.75 1.75,-1.75c0.9665,0 1.75,0.7835 1.75,1.75c0,0.9665 -0.7835,1.75 -1.75,1.75c-0.9665,0 -1.75,-0.7835 -1.75,-1.75z" stroke="none" stroke-width="0.5"/><path d="M333.82252,128.86643c0,-0.9665 0.7835,-1.75 1.75,-1.75c0.28364,0 0.55153,0.06748 0.78847,0.18727c0.23694,-0.11978 0.50483,-0.18727 0.78847,-0.18727c0.9665,0 1.75,0.7835 1.75,1.75c0,0.9665 -0.7835,1.75 -1.75,1.75c-0.28364,0 -0.55153,-0.06748 -0.78847,-0.18727c-0.23694,0.11978 -0.50483,0.18727 -0.78847,0.18727c-0.9665,0 -1.75,-0.7835 -1.75,-1.75z" stroke="none" stroke-width="0.5"/><path d="M284.17578,126.8164c0,-0.69036 0.55964,-1.25 1.25,-1.25c0.69036,0 1.25,0.55964 1.25,1.25c0,0.69036 -0.55964,1.25 -1.25,1.25c-0.69036,0 -1.25,-0.55964 -1.25,-1.25z" stroke="none" stroke-width="0.5"/><path d="M289.22199,130.28568c0,-0.69036 0.55964,-1.25 1.25,-1.25c0.05341,0 0.10604,0.00335 0.15769,0.00985c0.05165,-0.0065 0.10428,-0.00985 0.15769,-0.00985c0.69036,0 1.25,0.55964 1.25,1.25c0,0.69036 -0.55964,1.25 -1.25,1.25c-0.05341,0 -0.10604,-0.00335 -0.15769,-0.00985c-0.05165,0.0065 -0.10428,0.00985 -0.15769,0.00985c-0.69036,0 -1.25,-0.55964 -1.25,-1.25z" stroke="none" stroke-width="0.5"/><path d="M292.37587,132.3357c0,-0.69036 0.55964,-1.25 1.25,-1.25c0.69036,0 1.25,0.55964 1.25,1.25c0,0.69036 -0.55964,1.25 -1.25,1.25c-0.69036,0 -1.25,-0.55964 -1.25,-1.25z" stroke="none" stroke-width="0.5"/><path d="M297.89517,131.38954c0,-0.69036 0.55964,-1.25 1.25,-1.25c0.69036,0 1.25,0.55964 1.25,1.25c0,0.69036 -0.55964,1.25 -1.25,1.25c-0.69036,0 -1.25,-0.55964 -1.25,-1.25z" stroke="none" stroke-width="0.5"/><path d="M308.77607,132.80878c0,-0.69036 0.55964,-1.25 1.25,-1.25c0.69036,0 1.25,0.55964 1.25,1.25c0,0.69036 -0.55964,1.25 -1.25,1.25c-0.69036,0 -1.25,-0.55964 -1.25,-1.25z" stroke="none" stroke-width="0.5"/><path d="M323.75701,132.02031c0,-0.69036 0.55964,-1.25 1.25,-1.25c0.69036,0 1.25,0.55964 1.25,1.25c0,0.69036 -0.55964,1.25 -1.25,1.25c-0.69036,0 -1.25,-0.55964 -1.25,-1.25z" stroke="none" stroke-width="0.5"/><path d="M327.56859,136.27805c0,-0.37854 0.28045,-0.69159 0.6449,-0.74269c-0.12576,-0.19501 -0.19874,-0.42726 -0.19874,-0.67655c0,-0.69036 0.55964,-1.25 1.25,-1.25c0.69036,0 1.25,0.55964 1.25,1.25c0,0.69036 -0.55964,1.25 -1.25,1.25c-0.07509,0 -0.14862,-0.00662 -0.22007,-0.01931c0.0156,0.06025 0.0239,0.12343 0.0239,0.18856c0,0.41421 -0.33579,0.75 -0.75,0.75c-0.41421,0 -0.75,-0.33579 -0.75,-0.75z" stroke="none" stroke-width="0.5"/><path d="M337.03249,131.4476c-0.05807,-0.74775 0.68968,-0.80582 0.68968,-0.80582l0.85312,-0.06553c0.12747,-0.02109 0.27099,-0.03686 0.41997,-0.04316l0.30467,-0.30467l0.0527,0.0527c0.04482,-0.06308 0.08963,-0.12616 0.13445,-0.18924l0.2363,0.02557l-0.01641,-0.09849l0.93223,-0.15537c0.04449,-0.00823 0.09036,-0.01253 0.13724,-0.01253c0.3634,0 0.66643,0.25845 0.73531,0.60157c0.00474,0.00321 0.00945,0.00647 0.01411,0.00979c0.22879,-0.29254 0.58504,-0.48059 0.98521,-0.48059c0.69036,0 1.25,0.55964 1.25,1.25c0,0.69036 -0.55964,1.25 -1.25,1.25c-0.49908,0 -0.92985,-0.29249 -1.13024,-0.7154c-0.08895,0.03718 -0.18658,0.05771 -0.28901,0.05771h-0.35104c0.00023,0.04528 -0.00305,0.0934 -0.01036,0.14454c-0.02663,0.18638 -0.09336,0.31929 -0.17838,0.41383c-0.07646,0.27039 -0.30076,0.47871 -0.58006,0.53212c-0.05373,0.64082 -0.59088,1.14415 -1.24558,1.14415c-0.69036,0 -1.25,-0.55964 -1.25,-1.25c0,-0.25032 0.07358,-0.48345 0.20029,-0.67895c-0.2233,-0.02967 -0.60346,-0.15766 -0.6442,-0.68223z" stroke="none" stroke-width="0.5"/><path d="M266.98711,129.33951c0,-0.69036 0.55964,-1.25 1.25,-1.25c0.69036,0 1.25,0.55964 1.25,1.25c0,0.69036 -0.55964,1.25 -1.25,1.25c-0.69036,0 -1.25,-0.55964 -1.25,-1.25z" stroke="none" stroke-width="0.5"/><path d="M263.20245,132.65109c0,-0.69036 0.55964,-1.25 1.25,-1.25c0.69036,0 1.25,0.55964 1.25,1.25c0,0.69036 -0.55964,1.25 -1.25,1.25c-0.69036,0 -1.25,-0.55964 -1.25,-1.25z" stroke="none" stroke-width="0.5"/><path d="M262.57168,128.39335c0,-0.69036 0.55964,-1.25 1.25,-1.25c0.69036,0 1.25,0.55964 1.25,1.25c0,0.69036 -0.55964,1.25 -1.25,1.25c-0.69036,0 -1.25,-0.55964 -1.25,-1.25z" stroke="none" stroke-width="0.5"/><path d="M276.60646,129.6549c0,-0.69036 0.55964,-1.25 1.25,-1.25c0.69036,0 1.25,0.55964 1.25,1.25c0,0.69036 -0.55964,1.25 -1.25,1.25c-0.69036,0 -1.25,-0.55964 -1.25,-1.25z" stroke="none" stroke-width="0.5"/><path d="M273.45258,131.70492c0,-0.69036 0.55964,-1.25 1.25,-1.25c0.69036,0 1.25,0.55964 1.25,1.25c0,0.69036 -0.55964,1.25 -1.25,1.25c-0.69036,0 -1.25,-0.55964 -1.25,-1.25z" stroke="none" stroke-width="0.5"/><path d="M274.42566,136.90883c0,-0.41421 0.33579,-0.75 0.75,-0.75c0.41421,0 0.75,0.33579 0.75,0.75c0,0.41421 -0.33579,0.75 -0.75,0.75c-0.41421,0 -0.75,-0.33579 -0.75,-0.75z" stroke="none" stroke-width="0.5"/><path d="M287.67197,131.23184c0,-0.41421 0.33579,-0.75 0.75,-0.75c0.41421,0 0.75,0.33579 0.75,0.75c0,0.41421 -0.33579,0.75 -0.75,0.75c-0.41421,0 -0.75,-0.33579 -0.75,-0.75z" stroke="none" stroke-width="0.5"/><path d="M284.045,130.44337c0,-0.41421 0.33579,-0.75 0.75,-0.75c0.41421,0 0.75,0.33579 0.75,0.75c0,0.41421 -0.33579,0.75 -0.75,0.75c-0.41421,0 -0.75,-0.33579 -0.75,-0.75z" stroke="none" stroke-width="0.5"/><path d="M290.66816,136.43575c0,-0.41421 0.33579,-0.75 0.75,-0.75c0.41421,0 0.75,0.33579 0.75,0.75c0,0.41421 -0.33579,0.75 -0.75,0.75c-0.41421,0 -0.75,-0.33579 -0.75,-0.75z" stroke="none" stroke-width="0.5"/><path d="M303.59908,138.64347c0,-0.41421 0.33579,-0.75 0.75,-0.75c0.41421,0 0.75,0.33579 0.75,0.75c0,0.41421 -0.33579,0.75 -0.75,0.75c-0.41421,0 -0.75,-0.33579 -0.75,-0.75z" stroke="none" stroke-width="0.5"/><path d="M320.47235,130.60106c0,-0.41421 0.33579,-0.75 0.75,-0.75c0.41421,0 0.75,0.33579 0.75,0.75c0,0.41421 -0.33579,0.75 -0.75,0.75c-0.41421,0 -0.75,-0.33579 -0.75,-0.75z" stroke="none" stroke-width="0.5"/><path d="M315.42614,135.0165c0,-0.41421 0.33579,-0.75 0.75,-0.75c0.41421,0 0.75,0.33579 0.75,0.75c0,0.41421 -0.33579,0.75 -0.75,0.75c-0.41421,0 -0.75,-0.33579 -0.75,-0.75z" stroke="none" stroke-width="0.5"/><path d="M315.11075,133.12417c0,-0.41421 0.33579,-0.75 0.75,-0.75c0.41421,0 0.75,0.33579 0.75,0.75c0,0.41421 -0.33579,0.75 -0.75,0.75c-0.41421,0 -0.75,-0.33579 -0.75,-0.75z" stroke="none" stroke-width="0.5"/><path d="M339.55335,136.59344c0,-0.41421 0.33579,-0.75 0.75,-0.75c0.41421,0 0.75,0.33579 0.75,0.75c0,0.41421 -0.33579,0.75 -0.75,0.75c-0.41421,0 -0.75,-0.33579 -0.75,-0.75z" stroke="none" stroke-width="0.5"/></g></g><path d="M311.89799,140.96803l7.8888,-23.8796l8.31522,23.8796c0,0 -4.6487,4.78843 -8.43351,4.78843c-3.78481,0 -7.77051,-4.78843 -7.77051,-4.78843z" fill="#ba2d2d" stroke="#000000" stroke-width="0"/><path d="M281.47539,164.4163c-2.76332,-2.97868 -9.03411,-10.59486 -7.74044,-17.1493c1.63174,-8.26725 7.93473,-24.43213 7.93473,-24.43213c0,0 3.70596,16.01449 7.26574,21.95221c1.698,2.83226 6.28729,6.37095 9.3157,8.51631c1.65223,1.17046 -2.01219,7.27744 -5.86023,9.82653c-3.84803,2.54909 -10.15624,2.10482 -10.9155,1.28639z" fill="#ba2d2d" stroke="#000000" stroke-width="0"/><path d="M261.40502,131.79031l-20.63988,-32.73777l37.09061,9.60976c0,0 -0.22337,7.97564 -4.25257,13.91915c-4.28899,6.32673 -12.19816,9.20886 -12.19816,9.20886z" fill="#ba2d2d" stroke="#000000" stroke-width="0"/></g></g></g></g></svg>