<svg version="1.1" xmlns="http://www.w3.org/2000/svg" xmlns:xlink="http://www.w3.org/1999/xlink" width="254.18333" height="267.72501" viewBox="0,0,254.18333,267.72501"><g transform="translate(-190.17912,-31.19978)"><g stroke-miterlimit="10"><path d="M190.17913,298.92479v-267.72501h254.18333v267.72501z" fill="none" stroke="none" stroke-width="0" stroke-linecap="butt"/><path d="" fill="none" stroke="#000000" stroke-width="2" stroke-linecap="round"/><g stroke="#000000"><path d="M295.77691,230.71189l50.88029,-0.17309l-25.90909,49.09363z" fill="#ff6300" stroke-width="5" stroke-linecap="round"/><path d="M255.08914,193.57954l36.67943,35.85595l-52.19492,16.95542z" fill="#ff6300" stroke-width="5" stroke-linecap="round"/><path d="M249.59645,140.76407l1.92293,51.69973l-49.14515,-24.63815z" fill="#ff6300" stroke-width="5" stroke-linecap="round"/><path d="M287.34313,101.59177l-36.39875,36.15047l-15.02506,-53.58015z" fill="#ff6300" stroke-width="5" stroke-linecap="round"/><path d="M345.45805,96.63889l-50.87705,-0.60862l26.63563,-48.68997z" fill="#ff6300" stroke-width="5" stroke-linecap="round"/><path d="M389.6411,137.05629l-35.55226,-37.0112l52.69353,-15.27787z" fill="#ff6300" stroke-width="5" stroke-linecap="round"/><path d="M389.56006,190.20083l0.59856,-51.73311l47.88428,27.0838z" fill="#ff6300" stroke-width="5" stroke-linecap="round"/><path d="M351.00857,228.73674l36.39875,-36.15047l15.02506,53.58015z" fill="#ff6300" stroke-width="5" stroke-linecap="round"/><path d="M245.03121,163.08913c0,-39.74454 33.75591,-71.96385 75.39591,-71.96385c41.64002,0 75.39591,32.21931 75.39591,71.96385c0,39.74454 -33.7559,71.96386 -75.39591,71.96386c-41.64,0 -75.39591,-32.21932 -75.39591,-71.96386z" fill="#ffe63c" stroke-width="5" stroke-linecap="butt"/><path d="M295.77691,230.71189l50.88028,-0.17309l-25.90909,49.09364z" fill="#ff6300" stroke-width="0" stroke-linecap="round"/><path d="M255.08914,193.57954l36.67943,35.85595l-52.19492,16.95542z" fill="#ff6300" stroke-width="0" stroke-linecap="round"/><path d="M249.59645,140.76406l1.92292,51.69973l-49.14515,-24.63815z" fill="#ff6300" stroke-width="0" stroke-linecap="round"/><path d="M287.34313,101.59177l-36.39875,36.15047l-15.02506,-53.58015z" fill="#ff6300" stroke-width="0" stroke-linecap="round"/><path d="M345.45805,96.63889l-50.87705,-0.60863l26.63563,-48.68997z" fill="#ff6300" stroke-width="0" stroke-linecap="round"/><path d="M389.6411,137.05629l-35.55227,-37.0112l52.69353,-15.27787z" fill="#ff6300" stroke-width="0" stroke-linecap="round"/><path d="M389.56005,190.20082l0.59856,-51.73311l47.88428,27.0838z" fill="#ff6300" stroke-width="0" stroke-linecap="round"/><path d="M351.00857,228.73673l36.39875,-36.15047l15.02506,53.58015z" fill="#ff6300" stroke-width="0" stroke-linecap="round"/><path d="M245.03121,163.08913c0,-39.74454 33.75591,-71.96385 75.39591,-71.96385c41.64002,0 75.39591,32.21931 75.39591,71.96385c0,39.74454 -33.7559,71.96386 -75.39591,71.96386c-41.64,0 -75.39591,-32.21932 -75.39591,-71.96386z" fill="#ffe63c" stroke-width="0" stroke-linecap="butt"/></g><path d="M280.97621,151.999c0,-6.21848 4.95766,-11.25956 11.07324,-11.25956c6.11558,0 11.07324,5.04108 11.07324,11.25956c0,6.21848 -5.55621,-4.72333 -11.67179,-4.72333c-6.11558,0 -10.47469,10.94181 -10.47469,4.72333z" fill="#000000" stroke="none" stroke-width="NaN" stroke-linecap="butt"/><path d="M348.11201,147.01574c-6.11558,0 -10.81761,11.20174 -10.81761,4.98326c0,-6.21848 4.95766,-11.25956 11.07324,-11.25956c6.11558,0 11.07324,5.04108 11.07324,11.25956c0,6.21848 -5.21329,-4.98326 -11.32887,-4.98326z" fill="#000000" stroke="none" stroke-width="NaN" stroke-linecap="butt"/><path d="M289.17175,174.60257l64.91873,1.30285c0,0 -12.95632,43.41973 -34.16775,42.99405c-21.21143,-0.42569 -30.75098,-44.2969 -30.75098,-44.2969z" fill="#000000" stroke="#000000" stroke-width="1.5" stroke-linecap="round"/></g></g></svg>