<svg version="1.1" xmlns="http://www.w3.org/2000/svg" xmlns:xlink="http://www.w3.org/1999/xlink" width="134.95434" height="85.48888" viewBox="0,0,134.95434,85.48888"><g transform="translate(-252.52283,-137.91193)"><g fill="#ffffff" stroke="#ffffff" stroke-width="5.5" stroke-miterlimit="10"><path d="M302.31561,164.99953c0,0 -0.10633,0.67999 0.64289,0.71416c0.74922,0.03416 0.78485,-0.71653 0.78485,-0.71653c0.20003,-4.65302 2.22583,-7.61465 5.18031,-9.54775l0.4606,-0.07067c0,0 0.54682,-0.08398 0.63029,-0.57578c2.6586,-1.42855 5.92459,-2.19899 9.25339,-2.70831c5.42739,-0.83042 11.36693,-1.21436 16.09632,-4.28487c3.19387,-2.07359 5.32974,-5.65747 8.93232,-7.14785c8.90576,-4.13013 16.60696,1.83809 22.59215,7.81536c1.23112,1.72153 2.32852,3.5784 3.59449,5.26684c1.44373,1.92552 3.68826,3.81523 4.41864,6.19984c1.38104,4.50898 -0.29695,8.01117 3.23616,12.02163c2.37746,2.69001 6.89782,6.82699 6.57249,10.75652c-0.35688,4.31057 -5.55102,7.62968 -8.03978,10.72881c-1.02871,1.91081 -1.87578,4.02547 -1.76493,6.25631c0.1049,2.11117 0.87011,4.11454 0.50991,6.26451c-0.1663,0.99261 -1.69153,1.92252 -2.35519,2.5459c-2.69592,2.53234 -5.49845,4.26236 -9.05323,5.33559c-5.89733,2.8259 -12.08643,4.46373 -18.49702,5.64319c-3.47991,0.64026 -6.55337,1.41766 -10.10777,1.16149c-1.69407,-0.4759 -3.59174,-0.51469 -5.24014,-1.02023c-2.06751,-0.63408 -3.91474,-2.05958 -5.92378,-2.84413c-5.27503,-2.05997 -10.47165,-3.86716 -16.20412,-3.92425c-9.0259,-2.48346 -19.11606,-0.47366 -28.32938,-1.67633c-10.21204,-1.00069 -11.44892,-14.21067 -11.6271,-22.26275c-0.08669,-3.91755 -0.12597,-9.9639 -3.01273,-13.00227c-1.81773,-1.9132 -4.3547,-3.44029 -6.47789,-4.99716c-0.92717,-0.67987 -2.57178,-1.65979 -2.69097,-2.87836c-3.80424,-9.0786 10.77232,-14.46844 17.37328,-15.47842c1.98313,-0.30343 4.48162,-1.10277 6.48743,-0.77675c3.1784,0.51661 6.35112,2.00972 9.46236,2.82041c3.93948,1.02651 8.76481,1.47403 12.79875,1.12899c1.24731,-0.01208 2.53149,0.09132 3.7586,0.05691c-2.03677,2.52598 -3.32273,6.30768 -3.4612,9.19596z"/></g></g></svg>