<svg version="1.1" xmlns="http://www.w3.org/2000/svg" xmlns:xlink="http://www.w3.org/1999/xlink" width="34.17311" height="34.17311" viewBox="0,0,34.17311,34.17311"><g transform="translate(-302.91345,-162.91346)"><g stroke-miterlimit="10"><path d="M309.98312,162.91346h20.03379c3.9166,0 7.06966,3.15307 7.06966,7.06966v20.03379c0,3.91659 -3.15306,7.06966 -7.06966,7.06966h-20.03379c-3.91659,0 -7.06966,-3.15307 -7.06966,-7.06966v-20.03379c0,-3.91659 3.15307,-7.06966 7.06966,-7.06966z" fill="#ffc03d" fill-rule="evenodd" stroke="none" stroke-width="4.43922" stroke-linecap="round" stroke-linejoin="round"/><path d="" fill="none" fill-rule="nonzero" stroke="#000000" stroke-width="2" stroke-linecap="round" stroke-linejoin="miter"/><path d="" fill="#ff6300" fill-rule="nonzero" stroke="#000000" stroke-width="3" stroke-linecap="round" stroke-linejoin="miter"/><path d="" fill="#ff6300" fill-rule="nonzero" stroke="#000000" stroke-width="3" stroke-linecap="round" stroke-linejoin="miter"/><path d="M311.78546,183.76831l0.09189,2.42966c-1.49032,0.00778 -1.96522,-0.1245 -3.45542,-0.10682z" fill="#ff6300" fill-rule="nonzero" stroke="#000000" stroke-width="3" stroke-linecap="round" stroke-linejoin="miter"/><path d="M315.97164,179.49591l-4.0367,3.94282l-1.66631,-5.84382z" fill="#ff6300" fill-rule="nonzero" stroke="#000000" stroke-width="3" stroke-linecap="round" stroke-linejoin="miter"/><path d="M322.41671,178.95571l-5.64237,-0.06638l2.95395,-5.31046z" fill="#ff6300" fill-rule="nonzero" stroke="#000000" stroke-width="3" stroke-linecap="round" stroke-linejoin="miter"/><path d="M327.3167,183.36392l-3.94282,-4.0367l5.84382,-1.66631z" fill="#ff6300" fill-rule="nonzero" stroke="#000000" stroke-width="3" stroke-linecap="round" stroke-linejoin="miter"/><path d="M327.37409,183.51786l3.84135,2.75822c-1.75045,-0.04766 -2.12315,0.05723 -3.87409,0.02442z" fill="#ff6300" fill-rule="nonzero" stroke="#000000" stroke-width="3" stroke-linecap="round" stroke-linejoin="miter"/><path d="" fill="#ff6300" fill-rule="nonzero" stroke="#000000" stroke-width="3" stroke-linecap="round" stroke-linejoin="miter"/><path d="M319.64072,178.35436c4.61796,0 8.36156,3.51406 8.36156,7.84887c0,0.03672 -0.00027,0.07338 -0.0008,0.10998c-5.57287,-0.11031 -11.14787,-0.14596 -16.72232,-0.11186c0.00108,-4.33395 3.74427,-7.847 8.36156,-7.847z" fill="#ffe63c" fill-rule="nonzero" stroke="#000000" stroke-width="3" stroke-linecap="butt" stroke-linejoin="miter"/><path d="" fill="#ff6300" fill-rule="nonzero" stroke="#000000" stroke-width="0" stroke-linecap="round" stroke-linejoin="miter"/><path d="" fill="#ff6300" fill-rule="nonzero" stroke="#000000" stroke-width="0" stroke-linecap="round" stroke-linejoin="miter"/><path d="M311.78546,183.76831l0.09189,2.42966c-1.49032,0.00778 -2.98061,0.02056 -4.47081,0.03824z" fill="#ff6300" fill-rule="nonzero" stroke="#000000" stroke-width="0" stroke-linecap="round" stroke-linejoin="miter"/><path d="M315.97164,179.49591l-4.0367,3.94282l-1.66631,-5.84382z" fill="#ff6300" fill-rule="nonzero" stroke="#000000" stroke-width="0" stroke-linecap="round" stroke-linejoin="miter"/><path d="M322.41671,178.95571l-5.64237,-0.06638l2.95395,-5.31046z" fill="#ff6300" fill-rule="nonzero" stroke="#000000" stroke-width="0" stroke-linecap="round" stroke-linejoin="miter"/><path d="M327.3167,183.36392l-3.94282,-4.0367l5.84382,-1.66631z" fill="#ff6300" fill-rule="nonzero" stroke="#000000" stroke-width="0" stroke-linecap="round" stroke-linejoin="miter"/><path d="M327.37409,183.51785l5.21937,2.90328c-1.75045,-0.04766 -3.50118,-0.08782 -5.25211,-0.12063z" fill="#ff6300" fill-rule="nonzero" stroke="#000000" stroke-width="0" stroke-linecap="round" stroke-linejoin="miter"/><path d="" fill="#ff6300" fill-rule="nonzero" stroke="#000000" stroke-width="0" stroke-linecap="round" stroke-linejoin="miter"/><path d="M319.64072,178.35436c4.61796,0 8.36156,3.51406 8.36156,7.84887c0,0.03672 -0.00027,0.07338 -0.0008,0.10998c-5.57287,-0.11031 -11.14787,-0.14596 -16.72232,-0.11186c0.00108,-4.33395 3.74427,-7.847 8.36156,-7.847z" fill="#ffe63c" fill-rule="nonzero" stroke="#000000" stroke-width="0" stroke-linecap="butt" stroke-linejoin="miter"/><path d="M303.37805,191.22106v-5.1207h32.65866v5.1207z" fill="#ffc03d" fill-rule="nonzero" stroke="none" stroke-width="0" stroke-linecap="butt" stroke-linejoin="miter"/></g></g></svg>