<svg version="1.1" xmlns="http://www.w3.org/2000/svg" xmlns:xlink="http://www.w3.org/1999/xlink" width="213.18203" height="280.18476" viewBox="0,0,213.18203,280.18476"><g transform="translate(-214.52362,-38.88751)"><g stroke-miterlimit="10"><g stroke-linecap="butt"><path d="M286.35186,319.07226l15.14285,-131.8421l37.78325,-0.15789l13.57389,132z" fill="#a93232" stroke="#000000" stroke-width="0"/><path d="M293.00635,261.13452c2.74487,-23.89841 8.48836,-73.90436 8.48836,-73.90436l37.78325,-0.15789c0,0 5.18875,49.85827 7.69612,74.24128c0.01364,0.13261 -53.98445,-0.03335 -53.96772,-0.17903z" fill="#9d2f3a" stroke="#000000" stroke-width="0"/><path d="M294.04743,252.07032c2.50278,-21.79059 7.44728,-64.84016 7.44728,-64.84016l37.78325,-0.15789c0,0 4.4242,43.02332 6.66599,64.82381c0.03141,0.30549 -51.94147,0.56558 -51.89652,0.17424z" fill="#942c3b" stroke="#000000" stroke-width="0"/><path d="M301.49471,187.23016l37.78325,-0.15789l7.53186,58.01527c0,0 -5.52306,-0.76412 -6.92133,-0.90214l0.00749,-0.04127l-0.48712,-0.0884c-0.016,-0.00322 -0.03254,-0.0049 -0.04949,-0.0049c-0.13807,0 -0.25,0.11193 -0.25,0.25c0,0.04409 0.01141,0.08552 0.03145,0.12148l0.23231,0.43736c0.123,0.23124 0.24538,0.5705 0.38232,0.90381c-0.37148,-0.33345 -0.77382,-0.64017 -1.12919,-0.99429c-0.38626,-0.38297 -2.23559,-1.95898 -2.85854,-1.56149c-1.49667,0.95499 1.14954,7.14342 -2.20456,3.67889c-0.34409,-0.39178 -1.32011,-1.90788 -1.8599,-1.93658c-0.71283,-0.03789 -2.08925,3.10834 -2.2473,3.02684c-0.63202,-0.32591 -1.62122,-2.43297 -2.09521,-3.07026c-0.20167,-0.19552 -1.03491,-1.17622 -1.31894,-1.12193c-0.29258,0.05593 -0.71091,1.29206 -0.77558,1.54857c-0.3107,1.23257 -1.43283,4.47865 -1.20436,6.0625c-1.23125,-1.34336 -2.04426,-3.20717 -3.15722,-4.70131l0.02198,-0.01167l-0.20246,-0.38135c-0.0412,-0.08148 -0.1257,-0.13736 -0.22325,-0.13736c-0.1113,0 -0.20561,0.07273 -0.238,0.17325l-0.16255,0.4667c-0.05451,0.15652 -0.10902,0.31304 -0.16353,0.46957c-0.18509,0.49576 -0.61517,2.88396 -1.12868,3.05381c-0.42363,0.14012 -1.28892,-2.21834 -1.58993,-2.3507c-0.84379,-0.37102 -1.31275,1.23764 -1.29003,2.25784c-1.94281,-2.33382 -2.99468,-4.92948 -6.16706,-6.09861c-2.49887,-0.88899 -4.81101,1.71067 -5.3339,3.92684c-0.04559,0.19324 -0.10282,0.46112 -0.14855,0.7564c-0.37996,-1.536 -0.9571,-3.47767 -1.63956,-3.56104c-0.94022,-0.11486 -1.74563,1.9818 -1.75639,3.24301c-1.17689,-1.06694 -2.9206,0.67637 -3.37136,1.68632c-0.05109,-0.36434 -1.54165,-2.501 -1.65072,-2.8319c0.21987,-1.20535 -3.61083,-1.26063 -3.61083,-1.26063z" fill="#a2f30f" stroke="#000000" stroke-width="0"/><path d="M301.49471,187.23016l37.78325,-0.15789c0,0 4.42084,34.05212 5.78825,44.5848c0.01988,0.15319 -50.50566,-0.27517 -50.46947,-0.50562c1.69416,-10.78723 6.89797,-43.9213 6.89797,-43.9213z" fill="#75f20f" stroke="#000000" stroke-width="0"/><path d="M301.49471,187.23016l37.78325,-0.15789c0,0 2.99108,23.83918 4.32515,34.1151c0.01396,0.10756 -47.56257,0.2241 -47.5334,0.03837c1.60192,-10.19991 5.425,-33.99558 5.425,-33.99558z" fill="#33965e" stroke="#000000" stroke-width="0"/><path d="M301.49471,187.23016l37.78325,-0.15789c0,0 2.54744,19.28154 3.76806,28.68356c0.01222,0.09411 -45.95233,-0.50319 -45.94397,-0.55642c1.50063,-9.55496 4.39265,-27.96925 4.39265,-27.96925z" fill="#2d7a1a" stroke="#000000" stroke-width="0"/><path d="M296.95582,214.9c0,-0.9665 0.7835,-1.75 1.75,-1.75c0.9665,0 1.75,0.7835 1.75,1.75c0,0.9665 -0.7835,1.75 -1.75,1.75c-0.9665,0 -1.75,-0.7835 -1.75,-1.75z" fill="#2d7a1a" stroke="none" stroke-width="0.5"/><path d="M304.35582,214.7c0,-0.9665 0.7835,-1.75 1.75,-1.75c0.9665,0 1.75,0.7835 1.75,1.75c0,0.9665 -0.7835,1.75 -1.75,1.75c-0.9665,0 -1.75,-0.7835 -1.75,-1.75z" fill="#2d7a1a" stroke="none" stroke-width="0.5"/><path d="M310.65582,214.9c0,-0.30962 0.11257,-0.59294 0.29901,-0.81128c0.29248,-0.55801 0.87728,-0.93872 1.55099,-0.93872c0.9665,0 1.75,0.7835 1.75,1.75c0,0.9665 -0.7835,1.75 -1.75,1.75c-0.67371,0 -1.25851,-0.3807 -1.55099,-0.93872c-0.18644,-0.21834 -0.29901,-0.50166 -0.29901,-0.81128z" fill="#2d7a1a" stroke="none" stroke-width="0.5"/><path d="M316.90582,216.75c-0.30962,0 -0.59294,-0.11257 -0.81128,-0.29901c-0.55801,-0.29248 -0.93872,-0.87728 -0.93872,-1.55099c0,-0.9665 0.7835,-1.75 1.75,-1.75c0.11289,0 0.22328,0.01069 0.33022,0.03111c0.25622,-0.14704 0.55318,-0.23111 0.86978,-0.23111c0.9665,0 1.75,0.7835 1.75,1.75c0,0.9665 -0.7835,1.75 -1.75,1.75c-0.11289,0 -0.22328,-0.01069 -0.33022,-0.03111c-0.01927,0.01106 -0.03877,0.02176 -0.0585,0.0321c-0.21834,0.18644 -0.50166,0.29901 -0.81128,0.29901z" fill="#2d7a1a" stroke="none" stroke-width="0.5"/><path d="M324.05582,216.9c0,-0.48464 0.27581,-0.90486 0.67902,-1.11227c-0.23728,-0.29867 -0.37902,-0.67665 -0.37902,-1.08773c0,-0.9665 0.7835,-1.75 1.75,-1.75c0.9665,0 1.75,0.7835 1.75,1.75c0,0.84585 -0.6001,1.55153 -1.39777,1.71454c0.06296,0.14926 0.09777,0.31329 0.09777,0.48546c0,0.69036 -0.55964,1.25 -1.25,1.25c-0.69036,0 -1.25,-0.55964 -1.25,-1.25z" fill="#2d7a1a" stroke="none" stroke-width="0.5"/><path d="M330.55582,215.5c0,-0.9665 0.7835,-1.75 1.75,-1.75c0.9665,0 1.75,0.7835 1.75,1.75c0,0.9665 -0.7835,1.75 -1.75,1.75c-0.9665,0 -1.75,-0.7835 -1.75,-1.75z" fill="#2d7a1a" stroke="none" stroke-width="0.5"/><path d="M334.15582,215.5c0,-0.9665 0.7835,-1.75 1.75,-1.75c0.9665,0 1.75,0.7835 1.75,1.75c0,0.9665 -0.7835,1.75 -1.75,1.75c-0.9665,0 -1.75,-0.7835 -1.75,-1.75z" fill="#2d7a1a" stroke="none" stroke-width="0.5"/><path d="M338.15582,215.5c0,-0.9665 0.7835,-1.75 1.75,-1.75c0.9665,0 1.75,0.7835 1.75,1.75c0,0.9665 -0.7835,1.75 -1.75,1.75c-0.9665,0 -1.75,-0.7835 -1.75,-1.75z" fill="#2d7a1a" stroke="none" stroke-width="0.5"/><path d="M296.15582,221.3c0,-0.9665 0.7835,-1.75 1.75,-1.75c0.9665,0 1.75,0.7835 1.75,1.75c0,0.9665 -0.7835,1.75 -1.75,1.75c-0.9665,0 -1.75,-0.7835 -1.75,-1.75z" fill="#33965e" stroke="none" stroke-width="0.5"/><path d="M340.55582,221.1c0,-0.9665 0.7835,-1.75 1.75,-1.75c0.9665,0 1.75,0.7835 1.75,1.75c0,0.9665 -0.7835,1.75 -1.75,1.75c-0.9665,0 -1.75,-0.7835 -1.75,-1.75z" fill="#33965e" stroke="none" stroke-width="0.5"/><path d="M334.85582,220.3c0,-0.69036 0.55964,-1.25 1.25,-1.25c0.05573,0 0.11061,0.00365 0.16441,0.01072c0.31654,-0.3156 0.75328,-0.51072 1.23559,-0.51072c0.03356,0 0.0669,0.00094 0.1,0.00281c0.0331,-0.00186 0.06644,-0.00281 0.1,-0.00281c0.9665,0 1.75,0.7835 1.75,1.75c0,0.9665 -0.7835,1.75 -1.75,1.75c-0.03356,0 -0.0669,-0.00094 -0.1,-0.00281c-0.0331,0.00186 -0.06644,0.00281 -0.1,0.00281c-0.48231,0 -0.91905,-0.19511 -1.23559,-0.51072c-0.0538,0.00707 -0.10868,0.01072 -0.16441,0.01072c-0.69036,0 -1.25,-0.55964 -1.25,-1.25z" fill="#33965e" stroke="none" stroke-width="0.5"/><path d="M330.15582,221.1c0,-0.9665 0.7835,-1.75 1.75,-1.75c0.03356,0 0.0669,0.00094 0.1,0.00281c0.0331,-0.00186 0.06644,-0.00281 0.1,-0.00281c0.9665,0 1.75,0.7835 1.75,1.75c0,0.9665 -0.7835,1.75 -1.75,1.75c-0.03356,0 -0.0669,-0.00094 -0.1,-0.00281c-0.0331,0.00186 -0.06644,0.00281 -0.1,0.00281c-0.9665,0 -1.75,-0.7835 -1.75,-1.75z" fill="#33965e" stroke="none" stroke-width="0.5"/><path d="M321.30582,222.75c-0.40726,0 -0.76903,-0.19476 -0.99725,-0.49623c-0.48298,-0.23274 -1.12626,-0.75728 -0.92452,-1.86682c0.31305,-1.72177 2.03482,-1.40872 2.03482,-1.40872l2.2,0.4c0,0 0.06959,0.01265 0.17824,0.04686c0.16098,-0.04883 0.33178,-0.07509 0.50871,-0.07509c0.9665,0 1.75,0.7835 1.75,1.75c0,0.9665 -0.7835,1.75 -1.75,1.75c-0.16787,0 -0.33022,-0.02364 -0.4839,-0.06776c-0.44113,0.11008 -0.82915,0.03954 -0.82915,0.03954l-1.12553,-0.20464c-0.16881,0.085 -0.35953,0.13287 -0.56142,0.13287z" fill="#33965e" stroke="none" stroke-width="0.5"/><path d="M314.35582,220.9c0,-0.96207 0.77634,-1.74282 1.73674,-1.74995c0.24298,-0.12776 0.51968,-0.20005 0.81326,-0.20005c0.9665,0 1.75,0.7835 1.75,1.75c0,0.96207 -0.77634,1.74282 -1.73674,1.74995c-0.24298,0.12776 -0.51968,0.20005 -0.81326,0.20005c-0.9665,0 -1.75,-0.7835 -1.75,-1.75z" fill="#33965e" stroke="none" stroke-width="0.5"/><path d="M312.55582,220.9c0,1.25 -1.25,1.25 -1.25,1.25h-1.8c0,0 -0.41051,0 -0.76102,-0.23525c-0.24888,0.66323 -0.88881,1.13525 -1.63898,1.13525c-0.54604,0 -1.03367,-0.25009 -1.3546,-0.64197c-0.05477,0.63978 -0.59144,1.14197 -1.2454,1.14197c-0.69036,0 -1.25,-0.55964 -1.25,-1.25c0,-0.06435 0.00486,-0.12756 0.01424,-0.18929c-0.43315,-0.31856 -0.71424,-0.83181 -0.71424,-1.41071c0,-0.9665 0.7835,-1.75 1.75,-1.75c0.7237,0 1.3448,0.43929 1.61118,1.06577c0.31213,-0.28908 0.72984,-0.46577 1.18882,-0.46577c0.5401,0 1.02305,0.24467 1.34406,0.62922c0.35114,-0.52922 1.05594,-0.52922 1.05594,-0.52922h1.8c0,0 1.25,0 1.25,1.25z" fill="#33965e" stroke="none" stroke-width="0.5"/><path d="M294.55582,231.5c0,-0.9665 0.3835,-1.75 1.35,-1.75c0.9665,0 1.75,0.7835 1.75,1.75c0,0.9665 -0.7835,1.75 -1.75,1.75c-0.9665,0 -1.35,-0.7835 -1.35,-1.75z" fill="#75f20f" stroke="none" stroke-width="0.5"/><path d="M306.15582,232.3c0,0.69036 -0.55964,1.25 -1.25,1.25c-0.19142,0 -0.37279,-0.04303 -0.53497,-0.11994c-0.08643,0.01313 -0.17493,0.01994 -0.26503,0.01994c-0.9665,0 -1.75,-0.7835 -1.75,-1.75c0,-0.9665 0.7835,-1.75 1.75,-1.75c0.88869,0 1.62266,0.66243 1.73508,1.52045c0.19593,0.22069 0.31492,0.51123 0.31492,0.82955z" fill="#75f20f" stroke="none" stroke-width="0.5"/><path d="M311.95582,232.1c0,0.69036 -0.55964,1.25 -1.25,1.25c-0.61753,0 -1.13048,-0.4478 -1.23182,-1.0364c-0.43538,-0.31834 -0.71818,-0.83294 -0.71818,-1.4136c0,-0.9665 0.7835,-1.75 1.75,-1.75c0.9665,0 1.75,0.7835 1.75,1.75c0,0.37295 -0.11667,0.71866 -0.3155,1.00261c0.0102,0.0643 0.0155,0.13022 0.0155,0.19739z" fill="#75f20f" stroke="none" stroke-width="0.5"/><path d="M314.95582,230.3c0,-0.9665 0.7835,-1.75 1.75,-1.75c0.9665,0 1.75,0.7835 1.75,1.75c0,0.9665 -0.7835,1.75 -1.75,1.75c-0.9665,0 -1.75,-0.7835 -1.75,-1.75z" fill="#75f20f" stroke="none" stroke-width="0.5"/><path d="M324.35582,230.3c0,-0.9665 0.7835,-1.75 1.75,-1.75c0.9665,0 1.75,0.7835 1.75,1.75c0,0.9665 -0.7835,1.75 -1.75,1.75c-0.9665,0 -1.75,-0.7835 -1.75,-1.75z" fill="#75f20f" stroke="none" stroke-width="0.5"/><path d="M331.55582,230.7c0,-0.9665 0.7835,-1.75 1.75,-1.75c0.9665,0 1.75,0.7835 1.75,1.75c0,0.9665 -0.7835,1.75 -1.75,1.75c-0.9665,0 -1.75,-0.7835 -1.75,-1.75z" fill="#75f20f" stroke="none" stroke-width="0.5"/><path d="M335.45582,231.7c0,-0.69036 0.55964,-1.25 1.25,-1.25c0.05771,0 0.11451,0.00391 0.17014,0.01148c0.25512,-0.65072 0.88868,-1.11148 1.62986,-1.11148c0.51885,0 0.98496,0.2258 1.30543,0.58449c0.29973,-0.24057 0.68034,-0.38449 1.09457,-0.38449c0.9665,0 1.75,0.7835 1.75,1.75c0,0.9665 -0.7835,1.75 -1.75,1.75c-0.51885,0 -0.98496,-0.2258 -1.30543,-0.58449c-0.29973,0.24057 -0.68034,0.38449 -1.09457,0.38449c-0.33782,0 -0.65328,-0.09572 -0.92074,-0.26152c-0.22583,0.2235 -0.53643,0.36152 -0.87926,0.36152c-0.69036,0 -1.25,-0.55964 -1.25,-1.25z" fill="#75f20f" stroke="none" stroke-width="0.5"/><path d="M299.05582,233.1c0,-0.69036 0.55964,-1.25 1.25,-1.25c0.69036,0 1.25,0.55964 1.25,1.25c0,0.68623 -0.55297,1.2433 -1.23763,1.24994c0.26787,0.22926 0.43763,0.56984 0.43763,0.95006c0,0.69036 -0.55964,1.25 -1.25,1.25c-0.69036,0 -1.25,-0.55964 -1.25,-1.25c0,-0.68623 0.55297,-1.2433 1.23763,-1.24994c-0.26787,-0.22926 -0.43763,-0.56984 -0.43763,-0.95006z" fill="#75f20f" stroke="none" stroke-width="0.5"/><path d="M315.25582,233.3c0,-0.69036 0.55964,-1.25 1.25,-1.25c0.69036,0 1.25,0.55964 1.25,1.25c0,0.69036 -0.55964,1.25 -1.25,1.25c-0.69036,0 -1.25,-0.55964 -1.25,-1.25z" fill="#75f20f" stroke="none" stroke-width="0.5"/><path d="M321.10582,236.65c-0.33583,0 -0.62011,-0.22073 -0.71567,-0.52502c-0.32306,-0.22599 -0.53433,-0.60081 -0.53433,-1.02498c0,-0.69036 0.55964,-1.25 1.25,-1.25c0.69036,0 1.25,0.55964 1.25,1.25c0,0.42417 -0.21127,0.79899 -0.53433,1.02498c-0.09556,0.30429 -0.37984,0.52502 -0.71567,0.52502z" fill="#75f20f" stroke="none" stroke-width="0.5"/><path d="M325.05582,235.1c0,-0.69036 0.55964,-1.25 1.25,-1.25c0.69036,0 1.25,0.55964 1.25,1.25c0,0.69036 -0.55964,1.25 -1.25,1.25c-0.69036,0 -1.25,-0.55964 -1.25,-1.25z" fill="#75f20f" stroke="none" stroke-width="0.5"/><path d="M329.45582,232.7c0,-0.69036 0.55964,-1.25 1.25,-1.25c0.69036,0 1.25,0.55964 1.25,1.25c0,0.69036 -0.55964,1.25 -1.25,1.25c-0.69036,0 -1.25,-0.55964 -1.25,-1.25z" fill="#75f20f" stroke="none" stroke-width="0.5"/><path d="M341.45582,234.5c0,-0.69036 0.55964,-1.25 1.25,-1.25c0.69036,0 1.25,0.55964 1.25,1.25c0,0.69036 -0.55964,1.25 -1.25,1.25c-0.69036,0 -1.25,-0.55964 -1.25,-1.25z" fill="#75f20f" stroke="none" stroke-width="0.5"/><path d="M298.25582,224.7c0,-0.69036 0.55964,-1.25 1.25,-1.25c0.69036,0 1.25,0.55964 1.25,1.25c0,0.69036 -0.55964,1.25 -1.25,1.25c-0.69036,0 -1.25,-0.55964 -1.25,-1.25z" fill="#33965e" stroke="none" stroke-width="0.5"/><path d="M325.25582,224.5c0,-0.69036 0.55964,-1.25 1.25,-1.25c0.69036,0 1.25,0.55964 1.25,1.25c0,0.69036 -0.55964,1.25 -1.25,1.25c-0.69036,0 -1.25,-0.55964 -1.25,-1.25z" fill="#33965e" stroke="none" stroke-width="0.5"/><path d="M337.45582,223.9c0,-0.69036 0.55964,-1.25 1.25,-1.25c0.69036,0 1.25,0.55964 1.25,1.25c0,0.69036 -0.55964,1.25 -1.25,1.25c-0.69036,0 -1.25,-0.55964 -1.25,-1.25z" fill="#33965e" stroke="none" stroke-width="0.5"/><path d="M301.45582,218.5c0,-0.69036 0.55964,-1.25 1.25,-1.25c0.69036,0 1.25,0.55964 1.25,1.25c0,0.69036 -0.55964,1.25 -1.25,1.25c-0.69036,0 -1.25,-0.55964 -1.25,-1.25z" fill="#2d7a1a" stroke="none" stroke-width="0.5"/><path d="M329.45582,218.1c0,-0.69036 0.55964,-1.25 1.25,-1.25c0.69036,0 1.25,0.55964 1.25,1.25c0,0.69036 -0.55964,1.25 -1.25,1.25c-0.69036,0 -1.25,-0.55964 -1.25,-1.25z" fill="#2d7a1a" stroke="none" stroke-width="0.5"/><path d="M339.05582,218.5c0,-0.69036 0.55964,-1.25 1.25,-1.25c0.69036,0 1.25,0.55964 1.25,1.25c0,0.69036 -0.55964,1.25 -1.25,1.25c-0.69036,0 -1.25,-0.55964 -1.25,-1.25z" fill="#2d7a1a" stroke="none" stroke-width="0.5"/><path d="M298.55582,219.9c0,-0.41421 0.33579,-0.75 0.75,-0.75c0.41421,0 0.75,0.33579 0.75,0.75c0,0.41421 -0.33579,0.75 -0.75,0.75c-0.41421,0 -0.75,-0.33579 -0.75,-0.75z" fill="#2d7a1a" stroke="none" stroke-width="0.5"/><path d="M311.75582,219.9c0,-0.41421 0.33579,-0.75 0.75,-0.75c0.41421,0 0.75,0.33579 0.75,0.75c0,0.41421 -0.33579,0.75 -0.75,0.75c-0.41421,0 -0.75,-0.33579 -0.75,-0.75z" fill="#2d7a1a" stroke="none" stroke-width="0.5"/><path d="M315.75582,219.5c0,-0.41421 0.33579,-0.75 0.75,-0.75c0.41421,0 0.75,0.33579 0.75,0.75c0,0.41421 -0.33579,0.75 -0.75,0.75c-0.41421,0 -0.75,-0.33579 -0.75,-0.75z" fill="#2d7a1a" stroke="none" stroke-width="0.5"/><path d="M336.55582,219.1c0,-0.41421 0.33579,-0.75 0.75,-0.75c0.41421,0 0.75,0.33579 0.75,0.75c0,0.41421 -0.33579,0.75 -0.75,0.75c-0.41421,0 -0.75,-0.33579 -0.75,-0.75z" fill="#2d7a1a" stroke="none" stroke-width="0.5"/><path d="M301.35582,228.9c0,-0.41421 0.33579,-0.75 0.75,-0.75c0.41421,0 0.75,0.33579 0.75,0.75c0,0.41421 -0.33579,0.75 -0.75,0.75c-0.41421,0 -0.75,-0.33579 -0.75,-0.75z" fill="#33965e" stroke="none" stroke-width="0.5"/><path d="M307.75582,225.9c0,-0.41421 0.33579,-0.75 0.75,-0.75c0.41421,0 0.75,0.33579 0.75,0.75c0,0.41421 -0.33579,0.75 -0.75,0.75c-0.41421,0 -0.75,-0.33579 -0.75,-0.75z" fill="#33965e" stroke="none" stroke-width="0.5"/><path d="M312.55582,225.1c0,-0.41421 0.33579,-0.75 0.75,-0.75c0.41421,0 0.75,0.33579 0.75,0.75c0,0.41421 -0.33579,0.75 -0.75,0.75c-0.41421,0 -0.75,-0.33579 -0.75,-0.75z" fill="#33965e" stroke="none" stroke-width="0.5"/><path d="M322.55582,227.7c0,-0.41421 0.33579,-0.75 0.75,-0.75c0.41421,0 0.75,0.33579 0.75,0.75c0,0.41421 -0.33579,0.75 -0.75,0.75c-0.41421,0 -0.75,-0.33579 -0.75,-0.75z" fill="#33965e" stroke="none" stroke-width="0.5"/><path d="M338.75582,229.7c0,-0.41421 0.33579,-0.75 0.75,-0.75c0.41421,0 0.75,0.33579 0.75,0.75c0,0.41421 -0.33579,0.75 -0.75,0.75c-0.41421,0 -0.75,-0.33579 -0.75,-0.75z" fill="#33965e" stroke="none" stroke-width="0.5"/><path d="M299.55582,239.7c0,-0.41421 0.33579,-0.75 0.75,-0.75c0.41421,0 0.75,0.33579 0.75,0.75c0,0.41421 -0.33579,0.75 -0.75,0.75c-0.41421,0 -0.75,-0.33579 -0.75,-0.75z" fill="#75f20f" stroke="none" stroke-width="0.5"/><path d="M307.15582,237.3c0,-0.41421 0.33579,-0.75 0.75,-0.75c0.41421,0 0.75,0.33579 0.75,0.75c0,0.41421 -0.33579,0.75 -0.75,0.75c-0.41421,0 -0.75,-0.33579 -0.75,-0.75z" fill="#75f20f" stroke="none" stroke-width="0.5"/><path d="M329.55582,238.1c0,-0.41421 0.33579,-0.75 0.75,-0.75c0.41421,0 0.75,0.33579 0.75,0.75c0,0.41421 -0.33579,0.75 -0.75,0.75c-0.41421,0 -0.75,-0.33579 -0.75,-0.75z" fill="#75f20f" stroke="none" stroke-width="0.5"/><path d="M341.15582,238.5c0,-0.41421 0.33579,-0.75 0.75,-0.75c0.41421,0 0.75,0.33579 0.75,0.75c0,0.41421 -0.33579,0.75 -0.75,0.75c-0.41421,0 -0.75,-0.33579 -0.75,-0.75z" fill="#75f20f" stroke="none" stroke-width="0.5"/><path d="M298.34471,254.36667c0,-0.42979 0.21691,-0.80892 0.54723,-1.03388c-0.64321,-0.05358 -1.18761,-0.45502 -1.44453,-1.01565c-0.08673,0.88544 -0.83336,1.57731 -1.74159,1.57731c-0.9665,0 -1.75,-0.7835 -1.75,-1.75c0,-0.9665 0.7835,-1.75 1.75,-1.75c0.70663,0 1.31544,0.41882 1.59175,1.02176c0.08673,-0.88544 0.83336,-1.57731 1.74159,-1.57731c0.9665,0 1.75,0.7835 1.75,1.75c0,0.67535 -0.38256,1.26135 -0.94279,1.55312c0.56974,0.11646 0.99835,0.6205 0.99835,1.22466c0,0.69036 -0.55964,1.25 -1.25,1.25c-0.69036,0 -1.25,-0.55964 -1.25,-1.25z" fill="#942c3b" stroke="none" stroke-width="0.5"/><path d="M342.17804,252.14444c0,-0.9665 0.7835,-1.75 1.75,-1.75c0.9665,0 1.75,0.7835 1.75,1.75c0,0.9665 -0.7835,1.75 -1.75,1.75c-0.9665,0 -1.75,-0.7835 -1.75,-1.75z" fill="#942c3b" stroke="none" stroke-width="0.5"/><path d="M306.92804,253.95c-0.36192,0 -0.68791,-0.15381 -0.91617,-0.39962c-0.064,0.00709 -0.12904,0.01074 -0.19494,0.01074c-0.9665,0 -1.75,-0.7835 -1.75,-1.75c0,-0.9665 0.7835,-1.75 1.75,-1.75c0.45394,0 0.86751,0.17284 1.1785,0.45629c0.2914,-0.21685 0.65257,-0.34518 1.04372,-0.34518c0.9665,0 1.75,0.7835 1.75,1.75c0,0.9665 -0.7835,1.75 -1.75,1.75c-0.10075,0 -0.19951,-0.00851 -0.2956,-0.02486c-0.2189,0.18861 -0.50389,0.30264 -0.81551,0.30264z" fill="#942c3b" stroke="none" stroke-width="0.5"/><path d="M311.56693,254.14444c0,-0.4588 0.24718,-0.85987 0.61563,-1.0773c-0.21241,-0.28966 -0.33786,-0.64709 -0.33786,-1.03381c0,-0.9665 0.7835,-1.75 1.75,-1.75c0.9665,0 1.75,0.7835 1.75,1.75c0,0.8274 -0.57421,1.52069 -1.34588,1.70311c0.04413,0.12787 0.0681,0.26514 0.0681,0.408c0,0.69036 -0.55964,1.25 -1.25,1.25c-0.69036,0 -1.25,-0.55964 -1.25,-1.25z" fill="#942c3b" stroke="none" stroke-width="0.5"/><path d="M316.17804,252.25556c0,-0.9665 0.7835,-1.75 1.75,-1.75c0.9665,0 1.75,0.7835 1.75,1.75c0,0.9665 -0.7835,1.75 -1.75,1.75c-0.9665,0 -1.75,-0.7835 -1.75,-1.75z" fill="#942c3b" stroke="none" stroke-width="0.5"/><path d="M321.62249,252.25556c0,-0.9665 0.7835,-1.75 1.75,-1.75c0.9665,0 1.75,0.7835 1.75,1.75c0,0.9665 -0.7835,1.75 -1.75,1.75c-0.9665,0 -1.75,-0.7835 -1.75,-1.75z" fill="#942c3b" stroke="none" stroke-width="0.5"/><path d="M331.81693,250.56111c0.69036,0 1.25,0.55964 1.25,1.25c0,0.69036 -0.55964,1.25 -1.25,1.25c-0.43659,0 -0.82091,-0.22383 -1.04445,-0.563c-0.11809,0.8517 -0.84913,1.50744 -1.73333,1.50744c-0.9665,0 -1.75,-0.7835 -1.75,-1.75c0,-0.9665 0.7835,-1.75 1.75,-1.75c0.6895,0 1.28587,0.39876 1.57107,0.97824c0.14385,-0.5316 0.62961,-0.92268 1.20671,-0.92268z" fill="#942c3b" stroke="none" stroke-width="0.5"/><path d="M333.2336,252.25556c0,-0.69036 0.55964,-1.25 1.25,-1.25c0.00368,0 0.00735,0.00002 0.01102,0.00005c0.30057,-0.24324 0.68332,-0.38894 1.1001,-0.38894c0.9665,0 1.75,0.7835 1.75,1.75c0,0.9665 -0.7835,1.75 -1.75,1.75c-0.54207,0 -1.02658,-0.24646 -1.34758,-0.63345c-0.57729,-0.11053 -1.01353,-0.61815 -1.01353,-1.22766z" fill="#942c3b" stroke="none" stroke-width="0.5"/><path d="M337.51138,251.92222c0,-0.9665 0.7835,-1.75 1.75,-1.75c0.9665,0 1.75,0.7835 1.75,1.75c0,0.9665 -0.7835,1.75 -1.75,1.75c-0.9665,0 -1.75,-0.7835 -1.75,-1.75z" fill="#942c3b" stroke="none" stroke-width="0.5"/><path d="M294.34471,264.36667c0,-0.51341 0.30953,-0.95453 0.75215,-1.14693c-0.05556,0.00532 -0.11187,0.00804 -0.16882,0.00804c-0.9665,0 -1.75,-0.7835 -1.75,-1.75c0,-0.9665 0.7835,-1.75 1.75,-1.75c0.9665,0 1.75,0.7835 1.75,1.75c0,0.75127 -0.4734,1.39197 -1.13817,1.64007c0.01818,-0.00078 0.03647,-0.00118 0.05484,-0.00118c0.69036,0 1.25,0.55964 1.25,1.25c0,0.69036 -0.55964,1.25 -1.25,1.25c-0.69036,0 -1.25,-0.55964 -1.25,-1.25z" fill="#9d2f3a" stroke="none" stroke-width="0.5"/><path d="M304.37249,261.00556c0.69036,0 1.25,0.55964 1.25,1.25c0,0.69036 -0.55964,1.25 -1.25,1.25c-0.55684,0 -1.02864,-0.3641 -1.1903,-0.86722c-0.21399,0.09327 -0.45025,0.145 -0.69859,0.145c-0.28498,0 -0.55405,-0.06812 -0.79182,-0.18896c-0.37915,-0.07253 -0.69748,-0.31634 -0.87138,-0.64782c-0.11448,0.57228 -0.61973,1.00345 -1.22569,1.00345c-0.69036,0 -1.25,-0.55964 -1.25,-1.25c0,-0.69036 0.55964,-1.25 1.25,-1.25c0.48106,0 0.89866,0.27175 1.10764,0.67012c0.00845,-0.04226 0.01904,-0.08376 0.03164,-0.12437c0.01046,-0.49645 0.22766,-0.94204 0.56896,-1.25417c0.31998,-0.3499 0.78024,-0.56936 1.29175,-0.56936c0.9665,0 1.75,0.7835 1.75,1.75c0,0.02805 -0.00066,0.05595 -0.00197,0.08368c0.00989,-0.00023 0.0198,-0.00035 0.02974,-0.00035z" fill="#9d2f3a" stroke="none" stroke-width="0.5"/><path d="M308.40026,260.58889c0,-0.9665 0.7835,-1.75 1.75,-1.75c0.9665,0 1.75,0.7835 1.75,1.75c0,0.9665 -0.7835,1.75 -1.75,1.75c-0.9665,0 -1.75,-0.7835 -1.75,-1.75z" fill="#9d2f3a" stroke="none" stroke-width="0.5"/><path d="M317.17804,262.14444c0,0.53381 -0.33462,0.98948 -0.80554,1.16867c-0.19295,0.12189 -0.42158,0.19244 -0.66668,0.19244c-0.4865,0 -0.90809,-0.27793 -1.11465,-0.68367c-0.57431,-0.28703 -0.96869,-0.88063 -0.96869,-1.56633c0,-0.9665 0.7835,-1.75 1.75,-1.75c0.9665,0 1.75,0.7835 1.75,1.75c0,0.1364 -0.01561,0.26915 -0.04513,0.39658c0.0648,0.15108 0.10068,0.31751 0.10068,0.49231z" fill="#9d2f3a" stroke="none" stroke-width="0.5"/><path d="M321.26138,263.28333c-0.28271,0 -0.5435,-0.09385 -0.75291,-0.2521c-0.3057,0.26111 -0.70243,0.41877 -1.13598,0.41877c-0.9665,0 -1.75,-0.7835 -1.75,-1.75c0,-0.9665 0.7835,-1.75 1.75,-1.75c0.47739,0 0.91014,0.19116 1.22587,0.5011c0.32096,-0.37474 0.79759,-0.61222 1.32968,-0.61222c0.9665,0 1.75,0.7835 1.75,1.75c0,0.9665 -0.7835,1.75 -1.75,1.75c-0.16876,0 -0.33194,-0.02389 -0.48634,-0.06847c-0.05888,0.00851 -0.11909,0.01291 -0.18032,0.01291z" fill="#9d2f3a" stroke="none" stroke-width="0.5"/><path d="M326.90026,264.36667c0,-0.07667 0.0069,-0.15173 0.02012,-0.22458c-0.22599,0.22465 -0.5374,0.36347 -0.88123,0.36347c-0.69036,0 -1.25,-0.55964 -1.25,-1.25c0,-0.22437 0.05911,-0.43493 0.16262,-0.61696c-0.27401,-0.3089 -0.44039,-0.71543 -0.44039,-1.16082c0,-0.9665 0.7835,-1.75 1.75,-1.75c0.9665,0 1.75,0.7835 1.75,1.75c0,0.60178 -0.30375,1.13262 -0.7663,1.44756c0.02874,0.10519 0.04408,0.21591 0.04408,0.33022c0,0.07667 -0.0069,0.15173 -0.02012,0.22458c0.22599,-0.22465 0.5374,-0.36347 0.88123,-0.36347c0.69036,0 1.25,0.55964 1.25,1.25c0,0.69036 -0.55964,1.25 -1.25,1.25c-0.69036,0 -1.25,-0.55964 -1.25,-1.25z" fill="#9d2f3a" stroke="none" stroke-width="0.5"/><path d="M339.78915,262.25556c0,-0.63642 0.47561,-1.16175 1.09078,-1.23995c0.16256,-0.79825 0.86852,-1.39893 1.71478,-1.39893c0.9665,0 1.75,0.7835 1.75,1.75c0,0.9665 -0.7835,1.75 -1.75,1.75c-0.19893,0 -0.3901,-0.03319 -0.56829,-0.09434c-0.22871,0.29405 -0.5859,0.48323 -0.98727,0.48323c-0.69036,0 -1.25,-0.55964 -1.25,-1.25z" fill="#9d2f3a" stroke="none" stroke-width="0.5"/><path d="M300.67804,252.7c0,-0.69036 0.55964,-1.25 1.25,-1.25c0.69036,0 1.25,0.55964 1.25,1.25c0,0.69036 -0.55964,1.25 -1.25,1.25c-0.69036,0 -1.25,-0.55964 -1.25,-1.25z" fill="#942c3b" stroke="none" stroke-width="0.5"/><path d="M316.12249,255.47778c0,-0.69036 0.55964,-1.25 1.25,-1.25c0.69036,0 1.25,0.55964 1.25,1.25c0,0.69036 -0.55964,1.25 -1.25,1.25c-0.69036,0 -1.25,-0.55964 -1.25,-1.25z" fill="#942c3b" stroke="none" stroke-width="0.5"/><path d="M320.90026,255.81111c0,-0.69036 0.55964,-1.25 1.25,-1.25c0.69036,0 1.25,0.55964 1.25,1.25c0,0.69036 -0.55964,1.25 -1.25,1.25c-0.69036,0 -1.25,-0.55964 -1.25,-1.25z" fill="#942c3b" stroke="none" stroke-width="0.5"/><path d="M325.45582,254.25556c0,-0.69036 0.55964,-1.25 1.25,-1.25c0.69036,0 1.25,0.55964 1.25,1.25c0,0.69036 -0.55964,1.25 -1.25,1.25c-0.69036,0 -1.25,-0.55964 -1.25,-1.25z" fill="#942c3b" stroke="none" stroke-width="0.5"/><path d="M341.12249,254.92222c0,-0.69036 0.55964,-1.25 1.25,-1.25c0.69036,0 1.25,0.55964 1.25,1.25c0,0.69036 -0.55964,1.25 -1.25,1.25c-0.69036,0 -1.25,-0.55964 -1.25,-1.25z" fill="#942c3b" stroke="none" stroke-width="0.5"/><path d="M306.12249,263.58889c0,-0.69036 0.55964,-1.25 1.25,-1.25c0.69036,0 1.25,0.55964 1.25,1.25c0,0.69036 -0.55964,1.25 -1.25,1.25c-0.69036,0 -1.25,-0.55964 -1.25,-1.25z" fill="#9d2f3a" stroke="none" stroke-width="0.5"/><path d="M313.03915,263.89444c0.69036,0 1.25,0.55964 1.25,1.25c0,0.69036 -0.55964,1.25 -1.25,1.25c-0.07584,0 -0.1501,-0.00675 -0.22222,-0.01969c-0.07212,0.01294 -0.14638,0.01969 -0.22222,0.01969c-0.69036,0 -1.25,-0.55964 -1.25,-1.25c0,-0.69036 0.55964,-1.25 1.25,-1.25c0.07584,0 0.1501,0.00675 0.22222,0.01969c0.07212,-0.01294 0.14638,-0.01969 0.22222,-0.01969z" fill="#9d2f3a" stroke="none" stroke-width="0.5"/><path d="M333.12249,261.25556c0,-0.69036 0.55964,-1.25 1.25,-1.25c0.34808,0 0.66294,0.14228 0.88958,0.37185c0.3154,-0.45942 0.84439,-0.76074 1.44376,-0.76074c0.9665,0 1.75,0.7835 1.75,1.75c0,0.9665 -0.7835,1.75 -1.75,1.75c-0.65894,0 -1.23282,-0.36419 -1.53133,-0.90227c-0.21706,0.18175 -0.49675,0.29116 -0.802,0.29116c-0.12419,0 -0.24416,-0.01811 -0.35739,-0.05184c0.03373,0.11324 0.05184,0.2332 0.05184,0.35739c0,0.62988 -0.46589,1.15095 -1.07188,1.23741c0.11608,0.18971 0.18299,0.41279 0.18299,0.65148c0,0.69036 -0.55964,1.25 -1.25,1.25c-0.69036,0 -1.25,-0.55964 -1.25,-1.25c0,-0.62988 0.46589,-1.15095 1.07188,-1.23741c-0.11608,-0.18971 -0.18299,-0.41279 -0.18299,-0.65148c0,-0.10888 0.01392,-0.21452 0.04008,-0.31522c-0.10888,0.10837 -0.23195,0.2025 -0.36617,0.27936c-0.64198,0.44665 -1.394,0.62292 -1.75654,-0.01153c-0.5158,-0.30441 -0.86182,-0.86589 -0.86182,-1.50818c0,-0.9665 0.7835,-1.75 1.75,-1.75c0.17212,0 0.33844,0.02485 0.49556,0.07115c0.79343,-0.17182 1.47667,0.18767 1.47667,1.67885c0,0.13848 -0.048,0.29648 -0.13201,0.46103c0.17909,-0.09908 0.38507,-0.15548 0.60423,-0.15548c0.12419,0 0.24416,0.01811 0.35739,0.05184c-0.03373,-0.11324 -0.05184,-0.2332 -0.05184,-0.35739z" fill="#9d2f3a" stroke="none" stroke-width="0.5"/><path d="M341.67804,265.14444c0,-0.69036 0.55964,-1.25 1.25,-1.25c0.69036,0 1.25,0.55964 1.25,1.25c0,0.69036 -0.55964,1.25 -1.25,1.25c-0.69036,0 -1.25,-0.55964 -1.25,-1.25z" fill="#9d2f3a" stroke="none" stroke-width="0.5"/><path d="M294.7336,256.03333c0,-0.41421 0.33579,-0.75 0.75,-0.75c0.41421,0 0.75,0.33579 0.75,0.75c0,0.41421 -0.33579,0.75 -0.75,0.75c-0.41421,0 -0.75,-0.33579 -0.75,-0.75z" fill="#942c3b" stroke="none" stroke-width="0.5"/><path d="M297.95582,257.47778c0,-0.41421 0.33579,-0.75 0.75,-0.75c0.41421,0 0.75,0.33579 0.75,0.75c0,0.41421 -0.33579,0.75 -0.75,0.75c-0.41421,0 -0.75,-0.33579 -0.75,-0.75z" fill="#942c3b" stroke="none" stroke-width="0.5"/><path d="M304.17804,258.25556c0,-0.41421 0.33579,-0.75 0.75,-0.75c0.41421,0 0.75,0.33579 0.75,0.75c0,0.41421 -0.33579,0.75 -0.75,0.75c-0.41421,0 -0.75,-0.33579 -0.75,-0.75z" fill="#942c3b" stroke="none" stroke-width="0.5"/><path d="M307.06693,256.58889c0,-0.41421 0.33579,-0.75 0.75,-0.75c0.41421,0 0.75,0.33579 0.75,0.75c0,0.41421 -0.33579,0.75 -0.75,0.75c-0.41421,0 -0.75,-0.33579 -0.75,-0.75z" fill="#942c3b" stroke="none" stroke-width="0.5"/><path d="M313.40026,257.7c0,-0.41421 0.33579,-0.75 0.75,-0.75c0.41421,0 0.75,0.33579 0.75,0.75c0,0.41421 -0.33579,0.75 -0.75,0.75c-0.41421,0 -0.75,-0.33579 -0.75,-0.75z" fill="#942c3b" stroke="none" stroke-width="0.5"/><path d="M319.62249,258.7c0,-0.41421 0.33579,-0.75 0.75,-0.75c0.41421,0 0.75,0.33579 0.75,0.75c0,0.41421 -0.33579,0.75 -0.75,0.75c-0.41421,0 -0.75,-0.33579 -0.75,-0.75z" fill="#942c3b" stroke="none" stroke-width="0.5"/><path d="M328.06693,257.81111c0,-0.41421 0.33579,-0.75 0.75,-0.75c0.41421,0 0.75,0.33579 0.75,0.75c0,0.41421 -0.33579,0.75 -0.75,0.75c-0.41421,0 -0.75,-0.33579 -0.75,-0.75z" fill="#942c3b" stroke="none" stroke-width="0.5"/><path d="M331.62249,257.47778c0,-0.41421 0.33579,-0.75 0.75,-0.75c0.41421,0 0.75,0.33579 0.75,0.75c0,0.41421 -0.33579,0.75 -0.75,0.75c-0.41421,0 -0.75,-0.33579 -0.75,-0.75z" fill="#942c3b" stroke="none" stroke-width="0.5"/><path d="M340.40026,258.36667c0,-0.41421 0.33579,-0.75 0.75,-0.75c0.41421,0 0.75,0.33579 0.75,0.75c0,0.41421 -0.33579,0.75 -0.75,0.75c-0.41421,0 -0.75,-0.33579 -0.75,-0.75z" fill="#942c3b" stroke="none" stroke-width="0.5"/><path d="M299.06693,268.36667c0,-0.41421 0.33579,-0.75 0.75,-0.75c0.41421,0 0.75,0.33579 0.75,0.75c0,0.41421 -0.33579,0.75 -0.75,0.75c-0.41421,0 -0.75,-0.33579 -0.75,-0.75z" fill="#9d2f3a" stroke="none" stroke-width="0.5"/><path d="M302.40026,266.25556c0,-0.41421 0.33579,-0.75 0.75,-0.75c0.41421,0 0.75,0.33579 0.75,0.75c0,0.41421 -0.33579,0.75 -0.75,0.75c-0.41421,0 -0.75,-0.33579 -0.75,-0.75z" fill="#9d2f3a" stroke="none" stroke-width="0.5"/><path d="M312.62249,268.81111c0,-0.41421 0.33579,-0.75 0.75,-0.75c0.41421,0 0.75,0.33579 0.75,0.75c0,0.41421 -0.33579,0.75 -0.75,0.75c-0.41421,0 -0.75,-0.33579 -0.75,-0.75z" fill="#9d2f3a" stroke="none" stroke-width="0.5"/><path d="M318.7336,269.14444c0,-0.41421 0.33579,-0.75 0.75,-0.75c0.41421,0 0.75,0.33579 0.75,0.75c0,0.41421 -0.33579,0.75 -0.75,0.75c-0.41421,0 -0.75,-0.33579 -0.75,-0.75z" fill="#9d2f3a" stroke="none" stroke-width="0.5"/><path d="M327.62249,267.58889c0,-0.41421 0.33579,-0.75 0.75,-0.75c0.41421,0 0.75,0.33579 0.75,0.75c0,0.41421 -0.33579,0.75 -0.75,0.75c-0.41421,0 -0.75,-0.33579 -0.75,-0.75z" fill="#9d2f3a" stroke="none" stroke-width="0.5"/><path d="M341.17804,267.7c0,-0.41421 0.33579,-0.75 0.75,-0.75c0.41421,0 0.75,0.33579 0.75,0.75c0,0.41421 -0.33579,0.75 -0.75,0.75c-0.41421,0 -0.75,-0.33579 -0.75,-0.75z" fill="#9d2f3a" stroke="none" stroke-width="0.5"/></g><path d="M214.52362,306.61252v-267.72501h213.18203v267.72501z" fill="none" stroke="none" stroke-width="0" stroke-linecap="butt"/><path d="" fill="none" stroke="#000000" stroke-width="2" stroke-linecap="round"/><path d="" fill-opacity="0.73333" fill="#2d7a1a" stroke="none" stroke-width="0" stroke-linecap="butt"/><g><path d="M253.02555,147.44113c2.21276,-31.34607 31.07743,-54.84613 64.47102,-52.48883c33.3936,2.3573 58.67067,29.67928 56.45791,61.02536c-1.45992,20.68134 -14.52148,37.94728 -32.83092,46.62496c-2.71475,1.28664 -10.02571,20.34028 -12.95049,21.23246c-7.24731,2.21071 -11.83231,2.73082 -19.92694,2.15941c-8.68997,-0.61344 -15.81276,-3.54572 -23.06204,-7.17129c-1.87534,-0.93791 -3.47128,-18.864 -5.22146,-19.97241c-17.48238,-11.07185 -28.42507,-30.33092 -26.9371,-51.40965z" fill="#a93232" stroke="#000000" stroke-width="0" stroke-linecap="butt"/><path d="M288.98539,216.65381l0.37027,-20.56519l41.83514,3.59709l-3.5498,19.56029z" fill="#7c2532" stroke="none" stroke-width="0" stroke-linecap="butt"/><g fill="#fff8f7" stroke="none" stroke-width="0" stroke-linecap="butt"><path d="M305.25979,222.3215c-1.52663,-0.10777 -2.58241,-2.77076 -2.35812,-5.94797c0.01564,-0.22152 5.54095,0.21296 5.52844,0.39026c-0.22429,3.17721 -1.64368,5.66548 -3.17032,5.55771z"/><path d="M300.49442,221.54943c-1.52802,-0.08139 -2.67799,-2.72876 -2.56852,-5.91309c0.00763,-0.22202 5.53955,0.11705 5.53344,0.29474c-0.10946,3.18433 -1.4369,5.69975 -2.96492,5.61835z"/><path d="M291.3033,219.65028c-1.41478,0.01343 -2.79224,-2.37728 -3.07664,-5.33981c-0.01983,-0.20656 5.1075,-0.21395 5.12337,-0.04863c0.2844,2.96253 -0.63195,5.37501 -2.04673,5.38844z"/><path d="M295.74416,220.55494c-1.45381,-0.02847 -2.72038,-2.51392 -2.82896,-5.55143c-0.00758,-0.21178 5.25865,-0.0664 5.26471,0.10311c0.10858,3.0375 -0.98192,5.47679 -2.43573,5.44832z"/><path d="M308.28617,216.75363c0.01251,-0.1773 5.54407,0.16874 5.52843,0.39026c-0.22429,3.17721 -1.64368,5.66548 -3.17032,5.55771c-1.52663,-0.10777 -2.58241,-2.77076 -2.35812,-5.94797z"/><path d="M313.41874,216.77903c0.01892,-0.17679 5.54361,0.26465 5.51997,0.48554c-0.33897,3.16812 -1.84944,5.6277 -3.37373,5.49362c-1.5243,-0.13408 -2.4852,-2.81103 -2.14624,-5.97915z"/><path d="M323.66738,216.47444c0.03895,-0.16145 5.11439,0.56617 5.06573,0.7679c-0.69776,2.8932 -2.3974,5.06669 -3.79628,4.85464c-1.39886,-0.21205 -1.96723,-2.72933 -1.26946,-5.62253z"/><path d="M318.77185,216.56023c0.02981,-0.16697 5.26423,0.4289 5.22698,0.63752c-0.53422,2.99212 -2.1374,5.275 -3.58079,5.09895c-1.44338,-0.17604 -2.18041,-2.74435 -1.64618,-5.73646z"/></g><g fill="#fff8f7" stroke="none" stroke-width="0" stroke-linecap="butt"><path d="M309.78003,200.47374c-0.01527,0.21628 -5.89764,-0.14475 -5.87857,-0.41497c0.2736,-3.87577 1.81135,-6.92479 3.43467,-6.8102c1.62331,0.11459 2.71749,3.34942 2.44389,7.22518z"/><path d="M304.35593,199.97146c-0.02207,0.21573 -5.8961,-0.26168 -5.86851,-0.53122c0.39553,-3.86595 2.02989,-6.88098 3.65043,-6.73429c1.62054,0.1467 2.61361,3.39957 2.21809,7.26551z"/><path d="M293.5897,198.43255c-0.04321,0.19725 -5.43604,-0.63398 -5.38206,-0.88044c0.7743,-3.53473 2.60682,-6.20309 4.09302,-5.95997c1.48622,0.24313 2.06333,3.30568 1.28903,6.84041z"/><path d="M298.71311,199.50548c-0.03356,0.20388 -5.597,-0.46499 -5.55507,-0.71972c0.60138,-3.65352 2.33244,-6.45417 3.86642,-6.25543c1.53399,0.19874 2.29002,3.32162 1.68865,6.97515z"/><path d="M313.17256,193.66056c1.62333,0.11459 2.7175,3.34941 2.4439,7.22517c-0.01907,0.27023 -5.89383,-0.19869 -5.87857,-0.41497c0.2736,-3.87577 1.81135,-6.92479 3.43467,-6.8102z"/><path d="M318.39553,193.8536c1.62508,0.08241 2.81967,3.29717 2.66818,7.18034c-0.01057,0.27074 -5.8934,-0.08178 -5.88494,-0.29848c0.15149,-3.88317 1.59168,-6.96428 3.21678,-6.88186z"/><path d="M328.29162,194.13278c1.50564,-0.03193 2.94511,2.86742 3.21516,6.47587c0.01883,0.25159 -5.4373,0.31698 -5.45237,0.11562c-0.27005,-3.60845 0.73156,-6.55956 2.23721,-6.59149z"/><path d="M323.48287,194.39806c1.54669,0.01872 2.86715,3.03479 2.9493,6.73656c0.00572,0.2581 -5.5965,0.13876 -5.60109,-0.06781c-0.08215,-3.70177 1.1051,-6.68748 2.65179,-6.66876z"/></g><path d="M293.27628,190.5993c-0.21726,0.12369 -0.34095,-0.09358 -0.34095,-0.09358l-0.16897,-0.29702c-0.74585,-1.25387 -2.39449,-0.16064 -3.14255,0.48921c0,0 -0.18879,0.16389 -0.35267,-0.02489c-0.16389,-0.18879 0.02489,-0.35267 0.02489,-0.35267c1.05118,-0.91196 2.88039,-1.86468 3.89782,-0.37096l0.17601,0.30897c0,0 0.12368,0.21726 -0.09358,0.34095z" fill="#872929" stroke="none" stroke-width="0.5" stroke-linecap="butt"/><path d="M297.65494,191.14438c-0.14496,-0.01023 -0.1997,-0.09878 -0.22014,-0.17114c-0.80854,-0.26758 -1.82428,-0.02239 -2.63682,0.06258c0,0 -0.24865,0.026 -0.27464,-0.22264c-0.02601,-0.24865 0.22264,-0.27464 0.22264,-0.27464c0.97421,-0.10188 2.09119,-0.34871 3.02895,0.02899l0.14701,0.34508c0,0 -0.0176,0.24938 -0.26698,0.23178z" fill="#872929" stroke="none" stroke-width="0.5" stroke-linecap="butt"/><path d="M303.4697,191.16708c-0.17802,-0.01256 -0.21999,-0.14324 -0.22943,-0.217c-0.58459,-0.32438 -1.82674,0.07303 -2.35736,0.38006c0,0 -0.21726,0.12368 -0.34095,-0.09358c-0.12369,-0.21726 0.09358,-0.34095 0.09358,-0.34095c0.78857,-0.44289 2.25092,-0.83015 3.01156,-0.2721l0.08959,0.31179c0,0 -0.0176,0.24938 -0.26698,0.23178z" fill="#872929" stroke="none" stroke-width="0.5" stroke-linecap="butt"/><path d="M307.9586,191.47165c0.03504,0.24753 -0.21249,0.28257 -0.21249,0.28257l-0.38072,0.0539c-0.74638,0.10565 -0.85765,0.07911 -1.368,0.6105c0,0 -0.17318,0.18032 -0.35348,0.00714c-0.18031,-0.17318 -0.00713,-0.35348 -0.00713,-0.35348c0.56377,-0.58701 0.8433,-0.64382 1.65855,-0.75922l0.38072,-0.05389c0,0 0.24753,-0.03504 0.28257,0.21249z" fill="#872929" stroke="none" stroke-width="0.5" stroke-linecap="butt"/><path d="M314.79956,192.47511c-0.18879,0.16389 -0.35267,-0.0249 -0.35267,-0.0249l-0.03956,-0.05916c-1.10028,-0.74992 -2.28495,-0.18857 -3.38124,0.16398c0,0 -0.23809,0.07627 -0.31436,-0.16181c-0.07627,-0.23808 0.16181,-0.31435 0.16181,-0.31435c1.27318,-0.40623 2.54237,-0.93493 3.81118,-0.10381l0.13974,0.14738c0,0 0.16389,0.18879 -0.02489,0.35267z" fill="#872929" stroke="none" stroke-width="0.5" stroke-linecap="butt"/><path d="M321.76502,192.67599c-0.18879,0.16389 -0.35267,-0.02489 -0.35267,-0.02489l-0.12908,-0.16234c-1.44363,-0.40566 -2.50082,0.07036 -3.8909,0.51569c0,0 -0.23809,0.07627 -0.31436,-0.16181c-0.07627,-0.23808 0.16181,-0.31436 0.16181,-0.31436c1.52567,-0.48876 2.74014,-1.02579 4.32058,-0.45568l0.22951,0.25072c0,0 0.16389,0.18879 -0.02489,0.35267z" fill="#872929" stroke="none" stroke-width="0.5" stroke-linecap="butt"/><path d="M325.32038,193.12085c-0.18879,0.16389 -0.35267,-0.02489 -0.35267,-0.02489l-0.10221,-0.14676c-0.55502,0.01504 -0.9393,0.05168 -1.48636,0.19211c0,0 -0.24215,0.06216 -0.30431,-0.17999c-0.06217,-0.24215 0.17998,-0.30431 0.17998,-0.30431c0.6662,-0.17101 1.14699,-0.23782 1.83409,-0.15514l0.25638,0.2663c0,0 0.16389,0.18879 -0.02489,0.35267z" fill="#872929" stroke="none" stroke-width="0.5" stroke-linecap="butt"/><path d="M329.67464,193.23434c-0.18879,0.16389 -0.35267,-0.02489 -0.35267,-0.02489l-0.05384,-0.06942c-1.15008,-0.90274 -1.83983,0.00367 -3.00204,0.30201c0,0 -0.24215,0.06216 -0.30431,-0.17999c-0.06217,-0.24215 0.17998,-0.30431 0.17998,-0.30431c1.32565,-0.3403 2.09149,-1.23817 3.43233,-0.21318l0.12545,0.1371c0,0 0.16389,0.18879 -0.02489,0.35267z" fill="#872929" stroke="none" stroke-width="0.5" stroke-linecap="butt"/><path d="M291.43452,219.66719c0.16389,0.18879 -0.02489,0.35267 -0.02489,0.35267l-0.28477,0.15024c-0.93344,-0.06589 -2.16404,-0.18144 -2.57032,-1.0955c0,0 -0.09578,-0.23093 0.13514,-0.32671c0.23093,-0.09578 0.32671,0.13514 0.32671,0.13514c0.25814,0.69233 1.45529,0.73971 2.14367,0.7883l-0.07823,-0.02906c0,0 0.18878,-0.16389 0.35267,0.02489z" fill="#872929" stroke="none" stroke-width="0.5" stroke-linecap="butt"/><path d="M296.53253,221.27062c-0.0176,0.24938 -0.26698,0.23178 -0.26698,0.23178l-0.14367,-0.01501c-0.92865,0.11629 -1.31426,-0.13235 -2.07017,-0.66168c0,0 -0.20478,-0.1434 -0.06139,-0.34819c0.1434,-0.20478 0.34819,-0.06139 0.34819,-0.06139c0.66351,0.46463 0.91392,0.68028 1.72008,0.57527l0.24217,0.01223c0,0 0.24938,0.0176 0.23178,0.26698z" fill="#872929" stroke="none" stroke-width="0.5" stroke-linecap="butt"/><path d="M301.86613,222.61651c-0.0176,0.24938 -0.26698,0.23178 -0.26698,0.23178l-0.29416,-0.02082c-0.69476,-0.07677 -1.33248,-0.27417 -1.97511,-0.54c0,0 -0.23101,-0.09556 -0.13545,-0.32658c0.09557,-0.23101 0.32658,-0.13545 0.32658,-0.13545c0.59512,0.24618 1.18467,0.43445 1.82877,0.50403l0.28458,0.02004c0,0 0.24938,0.0176 0.23178,0.26698z" fill="#872929" stroke="none" stroke-width="0.5" stroke-linecap="butt"/><path d="M306.12351,222.54698c0.06217,0.24215 -0.17999,0.30431 -0.17999,0.30431l-0.33578,0.08286c-0.86773,-0.06126 -1.07182,0.11544 -1.87249,-0.34928c0,0 -0.21518,-0.12727 -0.0879,-0.34245c0.12727,-0.21518 0.34245,-0.0879 0.34245,-0.0879c0.45656,0.27427 1.04151,0.24417 1.5728,0.28168l0.2566,-0.0692c0,0 0.24215,-0.06217 0.30431,0.17998z" fill="#872929" stroke="none" stroke-width="0.5" stroke-linecap="butt"/><path d="M312.29412,223.09798c0.0434,0.24621 -0.2028,0.28961 -0.2028,0.28961l-0.41995,0.0725c-1.53997,-0.08306 -2.45072,0.4251 -3.81358,-0.70137c0,0 -0.19269,-0.15927 -0.03342,-0.35197c0.15927,-0.1927 0.35196,-0.03342 0.35196,-0.03342c1.2306,1.01716 2.05841,0.53421 3.46281,0.5878l0.36534,-0.06595c0,0 0.24621,-0.0434 0.28961,0.2028z" fill="#872929" stroke="none" stroke-width="0.5" stroke-linecap="butt"/><path d="M316.44502,223.45179c-0.0176,0.24938 -0.26698,0.23177 -0.26698,0.23177l-0.28938,-0.02043c-0.70796,-0.05291 -1.52126,-0.19237 -2.17962,-0.45754c0,0 -0.23101,-0.09557 -0.13545,-0.32658c0.09557,-0.23101 0.32658,-0.13545 0.32658,-0.13545c0.59076,0.25282 1.38375,0.3788 2.02371,0.42082l0.28938,0.02043c0,0 0.24938,0.0176 0.23178,0.26698z" fill="#872929" stroke="none" stroke-width="0.5" stroke-linecap="butt"/><path d="M321.2228,222.95275c0.0434,0.24621 -0.2028,0.28961 -0.2028,0.28961l-0.42305,0.07268c-0.61569,-0.04068 -1.02266,-0.3833 -1.55352,-0.3986c0,0 -0.24938,-0.0176 -0.23177,-0.26698c0.0176,-0.24938 0.26698,-0.23178 0.26698,-0.23178c0.59752,0.05875 0.8711,0.3509 1.49232,0.39804l0.36224,-0.06576c0,0 0.24621,-0.0434 0.28961,0.2028z" fill="#872929" stroke="none" stroke-width="0.5" stroke-linecap="butt"/><path d="M326.07978,222.81092c0.0434,0.24621 -0.2028,0.28961 -0.2028,0.28961l-0.38323,0.06737c-0.79391,0.19616 -1.35171,-0.04964 -2.06394,-0.34244c0,0 -0.23101,-0.09556 -0.13545,-0.32658c0.09557,-0.23101 0.32658,-0.13545 0.32658,-0.13545c0.60977,0.25363 1.08035,0.50018 1.76717,0.31576l0.40206,-0.07106c0,0 0.24621,-0.0434 0.28961,0.2028z" fill="#872929" stroke="none" stroke-width="0.5" stroke-linecap="butt"/><g><g fill="#a2f30f" stroke="#000000" stroke-width="0"><path d="M249.33283,142.66046c2.34499,-33.21918 32.93448,-58.12349 68.32354,-55.62533c35.38907,2.49816 62.17658,31.45278 59.83159,64.67197c-0.96514,13.67225 -6.71477,25.93598 -15.61432,35.46045c-0.83641,0.89514 1.9855,5.94227 1.9855,5.94227c0,0 -4.28445,-2.59608 -8.6524,-2.38811c-1.5212,0.07243 -3.10232,3.21754 -3.10232,3.21754c0,0 -5.58876,-2.14178 -8.22014,-2.06147c-1.64787,0.05029 -5.13759,4.43828 -5.13759,4.43828c0,0 -3.16591,-3.57317 -3.78186,-3.58729c-1.03163,-0.02365 -5.72567,5.77242 -5.72567,5.77242l-4.1295,-5.31848l-5.69779,5.04819c0,0 -1.10357,-8.81359 -1.86676,-8.84116c-1.21244,-0.0438 -2.89163,4.44482 -2.89163,4.44482c0,0 -2.82495,-3.61152 -4.40716,-4.03097c-1.73313,-0.45947 -3.72365,2.68429 -3.72365,2.68429c0,0 -3.98036,-3.2834 -4.18058,-3.29498c-1.21243,-0.07017 -5.53812,1.6509 -5.53812,1.6509c0,0 -4.42077,-2.09426 -5.66268,-2.16655c-1.86156,-0.10835 -6.67093,3.55869 -6.67093,3.55869c0,0 -3.73097,-5.88822 -5.19104,-5.98258c-2.43464,-0.15735 -7.61256,2.66684 -7.61256,2.66684c0,0 -1.71643,-3.97012 -3.31373,-4.07487c-1.1042,-0.07241 -4.08562,5.26732 -4.08562,5.26732c0,0 0.25747,-4.85844 -0.59862,-5.78564c-0.9887,-1.07084 -4.43663,1.92145 -4.43663,1.92145c0,0 1.33939,-5.21833 1.01172,-5.6746c-7.7526,-10.79561 -11.89471,-23.97933 -10.91108,-37.9134z" stroke-linecap="butt"/><path d="M249.71028,155.07812l-14.86082,-62.71646l12.69209,8.77417l-0.04436,-53.249l46.24615,29.88751l-3.54262,-34.47957l18.61038,21.1451l4.97066,-12.68892l12.16413,23.95l16.02819,-19.24325l30.31013,67.067" stroke-linecap="round"/></g><g fill="#75f20f" stroke="#000000" stroke-width="0"><path d="M242.92061,125.56651c2.34499,-33.21918 39.3467,-41.02954 74.73576,-38.53138c28.43969,2.00759 51.32432,21.1013 57.99835,45.76353c0.06337,0.23415 -132.73411,-7.23215 -132.73411,-7.23215z" stroke-linecap="butt"/><path d="M242.6505,125.284c-2.53544,-10.70026 -7.80103,-32.92235 -7.80103,-32.92235l12.69209,8.77417l-0.04436,-53.249l46.24615,29.88751l-3.54262,-34.47957l18.61038,21.1451l4.97066,-12.68892l12.16413,23.95l16.02819,-19.24325l30.31013,67.067" stroke-linecap="round"/></g><g fill="#33965e" stroke="#000000" stroke-width="0" stroke-linecap="round"><path d="M238.51054,108.32654c-1.79716,-7.58449 -3.66106,-15.96489 -3.66106,-15.96489l12.69209,8.77417l-0.04436,-53.249l46.24615,29.88751l-3.54262,-34.47957l18.61037,21.14509l4.97066,-12.68892l12.16413,23.95l16.02819,-19.24324c0,0 22.10949,48.49415 26.89625,59.08576"/></g><g fill="#2d7a1a" stroke="#000000" stroke-width="0" stroke-linecap="round"><path d="M247.5307,88.09593c-0.00811,-9.72643 -0.03351,-40.20911 -0.03351,-40.20911l46.24615,29.88751l-3.54262,-34.47957l18.61038,21.1451l4.97066,-12.68892l12.16413,23.95l16.02819,-19.24325c0,0 9.90548,21.91778 17.55912,38.85292"/></g><path d="M300.90802,172.54703l5.57134,-14.2765" fill="none" stroke="#81c10c" stroke-width="2" stroke-linecap="round"/><path d="M317.98247,157.72424l3.56494,14.92144" fill="none" stroke="#81c10c" stroke-width="2" stroke-linecap="round"/><path d="M262.65864,147.40907c0.91316,-12.93582 12.13997,-22.6821 25.07579,-21.76895c12.93582,0.91316 22.68211,12.13996 21.76895,25.07578c-0.91316,12.93582 -12.13996,22.68211 -25.07578,21.76896c-12.93582,-0.91316 -22.68211,-12.13997 -21.76896,-25.07579z" fill="#81c10c" stroke="none" stroke-width="0" stroke-linecap="butt"/><path d="M338.55138,176.30555c-12.93582,-0.91316 -22.68211,-12.13997 -21.76895,-25.07579c0.91316,-12.93582 12.13996,-22.6821 25.07578,-21.76895c12.93582,0.91316 22.68211,12.13996 21.76896,25.07578c-0.91316,12.93582 -12.13997,22.68212 -25.07579,21.76896z" fill="#81c10c" stroke="none" stroke-width="0" stroke-linecap="butt"/><path d="M262.90671,143.89497c0.91316,-12.93582 12.13997,-22.68211 25.07579,-21.76895c12.93582,0.91316 22.68211,12.13996 21.76895,25.07578c-0.91316,12.93582 -12.13996,22.68211 -25.07578,21.76896c-12.93582,-0.91316 -22.68211,-12.13997 -21.76896,-25.07579z" fill="#ffffff" stroke="#000000" stroke-width="0" stroke-linecap="butt"/><path d="M338.79944,172.79144c-12.93582,-0.91316 -22.68211,-12.13997 -21.76895,-25.07579c0.91316,-12.93582 12.13996,-22.6821 25.07578,-21.76895c12.93582,0.91316 22.68212,12.13996 21.76896,25.07578c-0.91316,12.93582 -12.13997,22.68211 -25.07579,21.76896z" fill="#ffffff" stroke="#000000" stroke-width="0" stroke-linecap="butt"/><path d="M252.76345,87.54297c0.9641,0.06806 1.69048,0.90478 1.62243,1.86888c-0.06806,0.9641 -0.90478,1.69048 -1.86888,1.62243c-0.85087,-0.06007 -1.51659,-0.71885 -1.61443,-1.5355c-0.34369,0.46845 -0.91299,0.75559 -1.53537,0.71166c-0.9641,-0.06806 -1.69049,-0.90478 -1.62243,-1.86888c0.06806,-0.9641 0.90479,-1.69048 1.86889,-1.62243c0.85087,0.06007 1.51659,0.71885 1.61443,1.5355c0.34369,-0.46845 0.91299,-0.75559 1.53537,-0.71166z" fill="#2d7a1a" stroke="none" stroke-width="0.5" stroke-linecap="butt"/><path d="M262.72454,88.44663c0.9641,0.06806 1.69049,0.90478 1.62243,1.86888c-0.06806,0.9641 -0.90479,1.69049 -1.86889,1.62243c-0.71865,-0.05073 -1.30523,-0.52857 -1.52912,-1.16791c-0.07387,-0.04828 -0.14219,-0.10411 -0.20391,-0.16631c-0.05858,0.00175 -0.1178,0.00057 -0.1775,-0.00364c-0.9641,-0.06806 -1.69048,-0.90478 -1.62243,-1.86888c0.06806,-0.9641 0.90478,-1.69048 1.86888,-1.62243c0.78375,0.05532 1.41041,0.61864 1.58087,1.34541c0.10751,-0.01265 0.21772,-0.01546 0.32967,-0.00756z" fill="#2d7a1a" stroke="none" stroke-width="0.5" stroke-linecap="butt"/><path d="M276.50143,89.97052c0.06806,-0.9641 0.90478,-1.69048 1.86888,-1.62243c0.9641,0.06806 1.69048,0.90478 1.62243,1.86888c-0.06806,0.9641 -0.90478,1.69048 -1.86888,1.62243c-0.9641,-0.06806 -1.69048,-0.90478 -1.62243,-1.86888z" fill="#2d7a1a" stroke="none" stroke-width="0.5" stroke-linecap="butt"/><path d="M288.9129,90.24517c0.06806,-0.9641 0.90478,-1.69048 1.86888,-1.62243c0.9641,0.06806 1.69048,0.90478 1.62243,1.86888c-0.06806,0.9641 -0.90478,1.69048 -1.86888,1.62243c-0.9641,-0.06806 -1.69048,-0.90478 -1.62243,-1.86888z" fill="#2d7a1a" stroke="none" stroke-width="0.5" stroke-linecap="butt"/><path d="M301.66704,91.346c-0.04861,0.68865 -0.64627,1.20749 -1.33492,1.15888c-0.41259,-0.02913 -0.76424,-0.25534 -0.96939,-0.58013c-0.06344,0.00243 -0.12764,0.00145 -0.19242,-0.00312c-0.9641,-0.06806 -1.69048,-0.90478 -1.62243,-1.86888c0.06806,-0.9641 0.90478,-1.69049 1.86888,-1.62243c0.92219,0.0651 1.62689,0.83349 1.62685,1.74393c0.40167,0.23147 0.65826,0.67826 0.62343,1.17177z" fill="#2d7a1a" stroke="none" stroke-width="0.5" stroke-linecap="butt"/><path d="M313.28344,90.81266c0.9641,0.06806 1.69048,0.90478 1.62243,1.86888c-0.06806,0.9641 -0.90478,1.69048 -1.86888,1.62243c-0.61669,-0.04353 -1.13611,-0.40157 -1.41257,-0.90627c-0.04209,0.00004 -0.08448,-0.0014 -0.12712,-0.00441c-0.9641,-0.06806 -1.69048,-0.90478 -1.62243,-1.86888c0.06806,-0.9641 0.90478,-1.69048 1.86888,-1.62243c0.61669,0.04353 1.13611,0.40157 1.41257,0.90627c0.04209,-0.00004 0.08448,0.0014 0.12712,0.00441z" fill="#2d7a1a" stroke="none" stroke-width="0.5" stroke-linecap="butt"/><path d="M324.58179,93.36458c0.05191,-0.73533 0.55097,-1.33237 1.21265,-1.54411c0.33956,-0.30043 0.79492,-0.46952 1.28291,-0.43507c0.9641,0.06806 1.69048,0.90478 1.62243,1.86888c-0.05191,0.73533 -0.55097,1.33237 -1.21265,1.54411c-0.33956,0.30043 -0.79492,0.46952 -1.28291,0.43507c-0.9641,-0.06806 -1.69048,-0.90478 -1.62243,-1.86888z" fill="#2d7a1a" stroke="none" stroke-width="0.5" stroke-linecap="butt"/><path d="M341.02851,92.57072c0.9641,0.06806 1.69048,0.90478 1.62243,1.86888c-0.06806,0.9641 -0.90478,1.69048 -1.86888,1.62243c-0.36756,-0.02595 -0.70058,-0.16362 -0.96818,-0.37748c-0.19375,0.05659 -0.40064,0.08036 -0.61376,0.06532c-0.9641,-0.06806 -1.69049,-0.90478 -1.62243,-1.86888c0.06806,-0.9641 0.90479,-1.69048 1.86889,-1.62243c0.36756,0.02595 0.70057,0.16362 0.96818,0.37748c0.19375,-0.05659 0.40065,-0.08035 0.61377,-0.06531z" fill="#2d7a1a" stroke="none" stroke-width="0.5" stroke-linecap="butt"/><path d="M343.16378,94.27531c0.06806,-0.9641 0.90478,-1.69048 1.86888,-1.62243c0.9641,0.06806 1.69048,0.90478 1.62243,1.86888c-0.06806,0.9641 -0.90478,1.69048 -1.86888,1.62243c-0.9641,-0.06806 -1.69048,-0.90478 -1.62243,-1.86888z" fill="#2d7a1a" stroke="none" stroke-width="0.5" stroke-linecap="butt"/><path d="M355.93201,95.17663c0.06806,-0.9641 0.90478,-1.69048 1.86888,-1.62243c0.9641,0.06806 1.69048,0.90478 1.62243,1.86888c-0.06806,0.9641 -0.90478,1.69048 -1.86888,1.62243c-0.9641,-0.06806 -1.69048,-0.90478 -1.62243,-1.86888z" fill="#2d7a1a" stroke="none" stroke-width="0.5" stroke-linecap="butt"/><path d="M347.48127,94.17909c0.04861,-0.68865 0.64627,-1.20749 1.33492,-1.15888c0.6843,0.04831 1.20094,0.63876 1.15973,1.32191c0.33129,-0.53505 0.94086,-0.87287 1.6122,-0.82549c0.9641,0.06806 1.69049,0.90478 1.62243,1.86888c-0.06806,0.9641 -0.90479,1.69048 -1.86889,1.62243c-0.9641,-0.06806 -1.69048,-0.90478 -1.62243,-1.86888c0.00305,-0.04319 0.00764,-0.08592 0.01372,-0.1281c-0.24588,0.33148 -0.65058,0.53426 -1.0928,0.50305c-0.68865,-0.04861 -1.20749,-0.64627 -1.15888,-1.33492z" fill="#2d7a1a" stroke="none" stroke-width="0.5" stroke-linecap="butt"/><path d="M329.58345,93.51716c0.06806,-0.9641 0.90478,-1.69049 1.86888,-1.62243c0.9641,0.06806 1.69048,0.90479 1.62243,1.86889c-0.06806,0.9641 -0.90478,1.69048 -1.86888,1.62243c-0.9641,-0.06806 -1.69048,-0.90478 -1.62243,-1.86888z" fill="#2d7a1a" stroke="none" stroke-width="0.5" stroke-linecap="butt"/><path d="M303.02132,92.0431c0.06806,-0.9641 0.90478,-1.69048 1.86888,-1.62243c0.9641,0.06806 1.69049,0.90478 1.62243,1.86888c-0.06806,0.9641 -0.90478,1.69048 -1.86888,1.62243c-0.9641,-0.06806 -1.69049,-0.90478 -1.62243,-1.86888z" fill="#2d7a1a" stroke="none" stroke-width="0.5" stroke-linecap="butt"/><path d="M292.20588,91.88111c0.06806,-0.9641 0.90478,-1.69048 1.86888,-1.62243c0.9641,0.06806 1.69048,0.90478 1.62243,1.86888c-0.06806,0.9641 -0.90478,1.69048 -1.86888,1.62243c-0.9641,-0.06806 -1.69048,-0.90478 -1.62243,-1.86888z" fill="#2d7a1a" stroke="none" stroke-width="0.5" stroke-linecap="butt"/><path d="M283.61314,91.47504c0.06806,-0.9641 0.90478,-1.69048 1.86888,-1.62243c0.9641,0.06806 1.69048,0.90478 1.62243,1.86888c-0.06806,0.9641 -0.90478,1.69048 -1.86888,1.62243c-0.9641,-0.06806 -1.69048,-0.90478 -1.62243,-1.86888z" fill="#2d7a1a" stroke="none" stroke-width="0.5" stroke-linecap="butt"/><path d="M271.22984,90.80138c0.06806,-0.9641 0.90478,-1.69048 1.86888,-1.62243c0.9641,0.06806 1.69049,0.90478 1.62243,1.86888c-0.06806,0.9641 -0.90479,1.69048 -1.86889,1.62243c-0.9641,-0.06806 -1.69048,-0.90478 -1.62243,-1.86888z" fill="#2d7a1a" stroke="none" stroke-width="0.5" stroke-linecap="butt"/><path d="M264.44672,90.32256c0.06806,-0.9641 0.90478,-1.69048 1.86888,-1.62243c0.9641,0.06806 1.69049,0.90478 1.62243,1.86888c-0.06806,0.9641 -0.90479,1.69048 -1.86889,1.62243c-0.9641,-0.06806 -1.69048,-0.90478 -1.62243,-1.86888z" fill="#2d7a1a" stroke="none" stroke-width="0.5" stroke-linecap="butt"/><path d="M255.68381,90.90696c0.00869,-0.12306 0.03491,-0.24071 0.07605,-0.35066c-0.6527,-0.29124 -1.08573,-0.96755 -1.03249,-1.72184c0.06806,-0.9641 0.90478,-1.69048 1.86888,-1.62243c0.9641,0.06806 1.69048,0.90478 1.62243,1.86888c-0.02754,0.39013 -0.18094,0.74133 -0.41772,1.01671c0.25535,0.2479 0.40366,0.60257 0.37664,0.98537c-0.04861,0.68865 -0.64627,1.20749 -1.33492,1.15888c-0.68865,-0.04861 -1.20749,-0.64627 -1.15888,-1.33492z" fill="#2d7a1a" stroke="none" stroke-width="0.5" stroke-linecap="butt"/><path d="M239.15431,107.78491c0.06806,-0.9641 0.90478,-1.69048 1.86888,-1.62243c0.9641,0.06806 1.69048,0.90478 1.62243,1.86888c-0.06806,0.9641 -0.90478,1.69048 -1.86888,1.62243c-0.9641,-0.06806 -1.69048,-0.90478 -1.62243,-1.86888z" fill="#33965e" stroke="none" stroke-width="0.5" stroke-linecap="butt"/><path d="M250.32767,109.97713c0.01941,-0.27498 0.12636,-0.52289 0.2917,-0.7184c-0.34844,0.39419 -0.86998,0.62746 -1.43532,0.58755c-0.9641,-0.06806 -1.69049,-0.90478 -1.62243,-1.86888c0.06806,-0.9641 0.90479,-1.69048 1.86889,-1.62243c0.9641,0.06806 1.69048,0.90478 1.62243,1.86888c-0.02734,0.38726 -0.1787,0.73619 -0.41253,1.01066c0.24887,-0.27949 0.62002,-0.44464 1.02219,-0.41626c0.68865,0.04861 1.20749,0.64627 1.15888,1.33492c-0.04861,0.68865 -0.64627,1.20749 -1.33492,1.15888c-0.68865,-0.04861 -1.20749,-0.64627 -1.15888,-1.33492z" fill="#33965e" stroke="none" stroke-width="0.5" stroke-linecap="butt"/><path d="M265.77571,107.7093c0.9641,0.06806 1.69048,0.90478 1.62243,1.86888c-0.06806,0.9641 -0.90478,1.69048 -1.86888,1.62243c-0.57104,-0.04031 -1.05868,-0.35029 -1.34724,-0.79667c-0.34841,0.40142 -0.87476,0.63982 -1.44581,0.59951c-0.9641,-0.06806 -1.69048,-0.90478 -1.62243,-1.86888c0.06806,-0.9641 0.90478,-1.69048 1.86888,-1.62243c0.57104,0.04031 1.05868,0.35029 1.34724,0.79667c0.34841,-0.40142 0.87476,-0.63982 1.44581,-0.59951z" fill="#33965e" stroke="none" stroke-width="0.5" stroke-linecap="butt"/><path d="M366.56725,114.2228c0.9641,0.06806 1.69048,0.90478 1.62243,1.86888c-0.06806,0.9641 -0.90478,1.69048 -1.86888,1.62243c-0.61782,-0.04361 -1.13802,-0.40289 -1.4141,-0.90906c-0.3463,0.34834 -0.83646,0.5497 -1.36487,0.5124c-0.9641,-0.06806 -1.69048,-0.90478 -1.62243,-1.86888c0.06806,-0.9641 0.90478,-1.69048 1.86888,-1.62243c0.61782,0.04361 1.13803,0.40288 1.4141,0.90906c0.3463,-0.34834 0.83645,-0.54969 1.36487,-0.51239z" fill="#33965e" stroke="none" stroke-width="0.5" stroke-linecap="butt"/><path d="M350.93262,114.87349c0.06806,-0.9641 0.90478,-1.69048 1.86888,-1.62243c0.9641,0.06806 1.69049,0.90478 1.62243,1.86888c-0.06806,0.9641 -0.90478,1.69048 -1.86888,1.62243c-0.9641,-0.06806 -1.69049,-0.90478 -1.62243,-1.86888z" fill="#33965e" stroke="none" stroke-width="0.5" stroke-linecap="butt"/><path d="M346.75713,114.37824c0.06806,-0.9641 0.90478,-1.69049 1.86888,-1.62243c0.9641,0.06806 1.69048,0.90479 1.62243,1.86889c-0.06806,0.9641 -0.90478,1.69048 -1.86888,1.62243c-0.9641,-0.06806 -1.69048,-0.90478 -1.62243,-1.86888z" fill="#33965e" stroke="none" stroke-width="0.5" stroke-linecap="butt"/><path d="M341.78362,113.82666c0.06806,-0.9641 0.90478,-1.69048 1.86888,-1.62243c0.9641,0.06806 1.69048,0.90478 1.62243,1.86888c-0.06806,0.9641 -0.90478,1.69048 -1.86888,1.62243c-0.9641,-0.06806 -1.69048,-0.90478 -1.62243,-1.86888z" fill="#33965e" stroke="none" stroke-width="0.5" stroke-linecap="butt"/><path d="M339.19918,115.44397c-0.4778,1.15507 -1.63289,0.67727 -1.63289,0.67727l-1.16885,-0.48351c0,0 -1.15507,-0.4778 -0.67727,-1.63289c0.4778,-1.15507 1.63288,-0.67727 1.63288,-0.67727l0.06078,0.02514c0.14557,-0.88103 0.94103,-1.52246 1.8496,-1.45832c0.9641,0.06806 1.69048,0.90478 1.62243,1.86888c-0.0632,0.89532 -0.78931,1.58564 -1.66472,1.62507c-0.0069,0.01836 -0.01421,0.0369 -0.02195,0.05562z" fill="#33965e" stroke="none" stroke-width="0.5" stroke-linecap="butt"/><path d="M332.19337,113.35016c0.06806,-0.9641 0.90479,-1.69048 1.86889,-1.62243c0.9641,0.06806 1.69048,0.90478 1.62243,1.86888c-0.06806,0.9641 -0.90478,1.69048 -1.86888,1.62243c-0.22972,-0.01622 -0.44595,-0.07607 -0.64115,-0.1709c-0.48026,-0.13397 -0.83697,-0.54487 -0.90215,-1.03918c-0.06646,-0.20658 -0.09535,-0.42908 -0.07914,-0.6588z" fill="#33965e" stroke="none" stroke-width="0.5" stroke-linecap="butt"/><path d="M324.01373,112.77275c0.12323,-1.74566 1.86888,-1.62243 1.86888,-1.62243l2.19454,0.15491c0,0 1.74565,0.12323 1.62243,1.86888c-0.12323,1.74566 -1.86888,1.62243 -1.86888,1.62243l-2.19453,-0.15491c0,0 -1.74566,-0.12323 -1.62243,-1.86888z" fill="#33965e" stroke="none" stroke-width="0.5" stroke-linecap="butt"/><path d="M318.81255,112.6061c0.06806,-0.9641 0.90478,-1.69049 1.86888,-1.62243c0.9641,0.06806 1.69049,0.90479 1.62243,1.86889c-0.06806,0.9641 -0.90479,1.69048 -1.86889,1.62243c-0.9641,-0.06806 -1.69048,-0.90478 -1.62243,-1.86888z" fill="#33965e" stroke="none" stroke-width="0.5" stroke-linecap="butt"/><path d="M312.99878,112.59669c0.06806,-0.9641 0.90478,-1.69048 1.86888,-1.62243c0.9641,0.06806 1.69049,0.90478 1.62243,1.86888c-0.06806,0.9641 -0.90478,1.69048 -1.86888,1.62243c-0.9641,-0.06806 -1.69049,-0.90478 -1.62243,-1.86888z" fill="#33965e" stroke="none" stroke-width="0.5" stroke-linecap="butt"/><path d="M308.2107,112.25869c0.06806,-0.9641 0.90478,-1.69048 1.86888,-1.62243c0.9641,0.06806 1.69048,0.90478 1.62243,1.86888c-0.06806,0.9641 -0.90478,1.69049 -1.86888,1.62243c-0.9641,-0.06806 -1.69048,-0.90479 -1.62243,-1.86889z" fill="#33965e" stroke="none" stroke-width="0.5" stroke-linecap="butt"/><path d="M300.23056,111.69536c0.06806,-0.9641 0.90478,-1.69048 1.86888,-1.62243c0.9641,0.06806 1.69048,0.90478 1.62243,1.86888c-0.06806,0.9641 -0.90478,1.69048 -1.86888,1.62243c-0.9641,-0.06806 -1.69048,-0.90478 -1.62243,-1.86888z" fill="#33965e" stroke="none" stroke-width="0.5" stroke-linecap="butt"/><path d="M293.44744,111.21653c0.06806,-0.9641 0.90478,-1.69048 1.86888,-1.62243c0.9641,0.06806 1.69048,0.90478 1.62243,1.86888c-0.06806,0.9641 -0.90478,1.69049 -1.86888,1.62243c-0.9641,-0.06806 -1.69048,-0.90479 -1.62243,-1.86889z" fill="#33965e" stroke="none" stroke-width="0.5" stroke-linecap="butt"/><path d="M292.0541,110.8944c-0.26348,1.22192 -1.48539,0.95844 -1.48539,0.95844l-1.18906,-0.25638c-0.30604,0.61646 -0.9623,1.01936 -1.6914,0.96789c-0.9641,-0.06806 -1.69049,-0.90478 -1.62243,-1.86888c0.06806,-0.9641 0.90479,-1.69048 1.86889,-1.62243c0.27558,0.01945 0.53176,0.10171 0.75549,0.23181c0.44643,-0.31825 1.02303,-0.19391 1.02303,-0.19391l1.38244,0.29808c0,0 1.22192,0.26348 0.95844,1.48539z" fill="#33965e" stroke="none" stroke-width="0.5" stroke-linecap="butt"/><path d="M285.5823,111.86431c-0.04861,0.68865 -0.64627,1.20749 -1.33492,1.15888c-0.49178,-0.03471 -0.89696,-0.34943 -1.07073,-0.77733l-1.47352,-0.10402c0,0 -1.74566,-0.12323 -1.62243,-1.86889c0.12323,-1.74566 1.86889,-1.62243 1.86889,-1.62243l2.19453,0.15492c0,0 1.74566,0.12323 1.62243,1.86888c-0.02311,0.32738 -0.10329,0.58902 -0.2183,0.79808c0.03125,0.1248 0.0436,0.2566 0.03405,0.3919z" fill="#33965e" stroke="none" stroke-width="0.5" stroke-linecap="butt"/><path d="M269.27934,109.91148c0.06806,-0.9641 0.90479,-1.69048 1.86889,-1.62243c0.427,0.03014 0.80737,0.21107 1.09274,0.48707c0.34433,-0.46332 0.91043,-0.74666 1.52897,-0.70299c0.9641,0.06806 1.69049,0.90478 1.62243,1.86888c-0.06806,0.9641 -0.90478,1.69048 -1.86888,1.62243c-0.427,-0.03014 -0.80737,-0.21107 -1.09275,-0.48707c-0.34433,0.46332 -0.91043,0.74666 -1.52897,0.70299c-0.9641,-0.06806 -1.69049,-0.90478 -1.62243,-1.86888z" fill="#33965e" stroke="none" stroke-width="0.5" stroke-linecap="butt"/><path d="M355.84746,113.41596c0.06806,-0.9641 0.90478,-1.69049 1.86888,-1.62243c0.9641,0.06806 1.69048,0.90479 1.62243,1.86889c-0.06806,0.9641 -0.90478,1.69048 -1.86888,1.62243c-0.9641,-0.06806 -1.69048,-0.90478 -1.62243,-1.86888z" fill="#33965e" stroke="none" stroke-width="0.5" stroke-linecap="butt"/><path d="M243.55741,124.93754c0.06806,-0.9641 0.90479,-1.69048 1.86889,-1.62243c0.9641,0.06806 1.69048,0.90478 1.62243,1.86888c-0.06806,0.9641 -0.90478,1.69048 -1.86888,1.62243c-0.9641,-0.06806 -1.69049,-0.90478 -1.62243,-1.86888z" fill="#75f20f" stroke="none" stroke-width="0.5" stroke-linecap="butt"/><path d="M259.30001,125.59771c0.68865,0.04861 1.20749,0.64627 1.15888,1.33492c-0.04861,0.68865 -0.64627,1.20749 -1.33492,1.15888c-0.16044,-0.01132 -0.31166,-0.05246 -0.44865,-0.11759c-0.53156,0.34914 -1.16851,0.30418 -1.16851,0.30418l-1.32877,-0.0938c0.1019,0.19705 0.15263,0.42372 0.13586,0.66121c-0.04861,0.68865 -0.64627,1.20749 -1.33492,1.15887c-0.68865,-0.04861 -1.20749,-0.64627 -1.15888,-1.33492c0.03296,-0.46696 0.31838,-0.85584 0.71342,-1.04267c-0.03699,-0.03649 -0.07272,-0.07548 -0.10678,-0.11716c-0.34214,0.31511 -0.80841,0.49397 -1.30901,0.45863c-0.9641,-0.06806 -1.69049,-0.90478 -1.62243,-1.86888c0.06806,-0.9641 0.90479,-1.69048 1.86889,-1.62243c0.50061,0.03534 0.93712,0.27793 1.2316,0.63798c0.55533,-0.51184 1.36194,-0.4549 1.36194,-0.4549l1.79553,0.12675c0,0 0.95509,0.06742 1.40248,0.80898c0.04752,-0.00208 0.09567,-0.00147 0.14426,0.00195z" fill="#75f20f" stroke="none" stroke-width="0.5" stroke-linecap="butt"/><path d="M262.81185,129.1037c0.01603,-0.22715 0.0918,-0.43581 0.21087,-0.61174c-0.38281,-0.34828 -0.60807,-0.86219 -0.5688,-1.4185c0.06806,-0.9641 0.90478,-1.69048 1.86888,-1.62243c0.17331,0.01223 0.33894,0.04931 0.49366,0.1075c0.16136,-0.03588 0.33055,-0.04932 0.50386,-0.03708c0.9641,0.06806 1.69049,0.90478 1.62243,1.86888c-0.06276,0.88906 -0.77919,1.57597 -1.64637,1.62414c0.01225,0.08617 0.01564,0.17493 0.00926,0.26527c-0.04861,0.68865 -0.64627,1.20749 -1.33492,1.15888c-0.68865,-0.04861 -1.20749,-0.64627 -1.15888,-1.33492z" fill="#75f20f" stroke="none" stroke-width="0.5" stroke-linecap="butt"/><path d="M317.13197,130.73275c-0.04861,0.68865 -0.64627,1.20749 -1.33492,1.15888c-0.12127,-0.00856 -0.23727,-0.03414 -0.34583,-0.07426c-0.30719,0.19846 -0.67892,0.30267 -1.07182,0.27493c-0.59567,-0.04205 -1.1006,-0.37754 -1.38347,-0.85519c-0.32868,0.54544 -0.94435,0.89136 -1.62317,0.84345c-0.53687,-0.0379 -1.00001,-0.31415 -1.29332,-0.71802c-0.26329,0.12513 -0.56153,0.18609 -0.87305,0.16409c-0.78375,-0.05532 -1.41041,-0.61865 -1.58087,-1.34541c-0.10751,0.01265 -0.21772,0.01546 -0.32967,0.00756c-0.9641,-0.06806 -1.69048,-0.90478 -1.62243,-1.86888c0.06806,-0.9641 0.90478,-1.69048 1.86888,-1.62243c0.78375,0.05532 1.4104,0.61864 1.58086,1.34541c0.10751,-0.01265 0.21773,-0.01546 0.32967,-0.00756c0.53687,0.0379 1.00001,0.31415 1.29332,0.71802c0.26329,-0.12513 0.56153,-0.18608 0.87305,-0.16409c0.59567,0.04205 1.10059,0.37754 1.38346,0.85519c0.32868,-0.54544 0.94435,-0.89136 1.62317,-0.84345c0.57112,0.04031 1.05882,0.35036 1.34736,0.79685c0.68858,0.04868 1.20735,0.64631 1.15875,1.33491z" fill="#75f20f" stroke="none" stroke-width="0.5" stroke-linecap="butt"/><path d="M319.3981,131.29371c0.0131,-0.18562 0.06609,-0.3589 0.15001,-0.51206c-0.08421,-0.06217 -0.16252,-0.13165 -0.23405,-0.20743c-0.1885,0.08994 -0.40215,0.13381 -0.62536,0.11805c-0.68865,-0.04861 -1.20749,-0.64628 -1.15888,-1.33492c0.04861,-0.68865 0.64627,-1.20749 1.33492,-1.15887c0.1254,0.00885 0.24516,0.03591 0.3569,0.0784c0.34726,-0.43173 0.89337,-0.69188 1.48793,-0.64992c0.9641,0.06806 1.69048,0.90478 1.62243,1.86888c-0.03499,0.49563 -0.27312,0.92843 -0.62727,1.22277c0.13577,0.21658 0.20656,0.47663 0.18718,0.75113c-0.04861,0.68865 -0.64627,1.20749 -1.33492,1.15888c-0.68865,-0.04861 -1.20749,-0.64627 -1.15888,-1.33492z" fill="#75f20f" stroke="none" stroke-width="0.5" stroke-linecap="butt"/><path d="M358.15695,131.82428c0.06806,-0.9641 0.90479,-1.69048 1.86889,-1.62243c0.9641,0.06806 1.69048,0.90478 1.62243,1.86888c-0.06806,0.9641 -0.90478,1.69048 -1.86888,1.62243c-0.9641,-0.06806 -1.69049,-0.90478 -1.62243,-1.86888z" fill="#75f20f" stroke="none" stroke-width="0.5" stroke-linecap="butt"/><path d="M369.88541,133.2537c-0.04861,0.68865 -0.64627,1.20749 -1.33492,1.15888c-0.17611,-0.01243 -0.34113,-0.06077 -0.48838,-0.13736c-0.2513,-0.03156 -0.48457,-0.11569 -0.6894,-0.2404c-0.18936,0.50479 -0.69329,0.84719 -1.25852,0.80728c-0.56745,-0.04006 -1.0196,-0.45292 -1.13398,-0.98229c-0.96393,-0.06823 -1.69014,-0.90487 -1.62209,-1.86886c0.06806,-0.9641 0.90478,-1.69048 1.86888,-1.62243c0.75329,0.05318 1.36147,0.57563 1.55895,1.26145c0.32969,-0.54149 0.94305,-0.88433 1.61903,-0.83661c0.9641,0.06806 1.69048,0.90479 1.62243,1.86889c-0.01444,0.20457 -0.06349,0.39843 -0.14102,0.57628c-0.0003,0.00506 -0.00062,0.01012 -0.00098,0.01519z" fill="#75f20f" stroke="none" stroke-width="0.5" stroke-linecap="butt"/><path d="M370.28558,134.68543c0.04591,-0.65032 0.58147,-1.14922 1.22089,-1.16179c-0.01551,-0.11606 -0.01952,-0.23541 -0.01096,-0.35678c0.06806,-0.9641 0.90478,-1.69048 1.86888,-1.62243c0.9641,0.06806 1.69048,0.90478 1.62243,1.86888c-0.06806,0.9641 -0.90478,1.69048 -1.86888,1.62243c-0.12137,-0.00857 -0.23898,-0.02932 -0.3517,-0.06097c-0.10227,0.63131 -0.67145,1.09148 -1.32179,1.04557c-0.68865,-0.04861 -1.20749,-0.64627 -1.15888,-1.33492z" fill="#75f20f" stroke="none" stroke-width="0.5" stroke-linecap="butt"/><path d="M246.8539,130.78418c0.04861,-0.68865 0.64627,-1.20749 1.33492,-1.15888c0.68865,0.04861 1.20749,0.64627 1.15888,1.33492c-0.04861,0.68865 -0.64627,1.20749 -1.33492,1.15888c-0.68865,-0.04861 -1.20749,-0.64627 -1.15888,-1.33492z" fill="#75f20f" stroke="none" stroke-width="0.5" stroke-linecap="butt"/><path d="M309.04033,133.16902c0.04861,-0.68865 0.64627,-1.20749 1.33492,-1.15888c0.68865,0.04861 1.20749,0.64627 1.15888,1.33492c-0.04861,0.68865 -0.64627,1.20749 -1.33492,1.15888c-0.68865,-0.04861 -1.20749,-0.64627 -1.15888,-1.33492z" fill="#75f20f" stroke="none" stroke-width="0.5" stroke-linecap="butt"/><path d="M362.84762,134.96236c0.04861,-0.68865 0.64627,-1.20749 1.33492,-1.15888c0.68865,0.04861 1.20749,0.64627 1.15888,1.33492c-0.04861,0.68865 -0.64627,1.20749 -1.33492,1.15888c-0.68865,-0.04861 -1.20749,-0.64627 -1.15888,-1.33492z" fill="#75f20f" stroke="none" stroke-width="0.5" stroke-linecap="butt"/><path d="M372.52471,137.04897c0.04861,-0.68865 0.64628,-1.20749 1.33492,-1.15888c0.68865,0.04861 1.20749,0.64627 1.15888,1.33492c-0.04861,0.68865 -0.64628,1.20749 -1.33492,1.15888c-0.68865,-0.04861 -1.20749,-0.64627 -1.15888,-1.33492z" fill="#75f20f" stroke="none" stroke-width="0.5" stroke-linecap="butt"/><path d="M243.59148,114.51406c0.04861,-0.68865 0.64627,-1.20749 1.33492,-1.15888c0.68865,0.04861 1.20749,0.64627 1.15888,1.33492c-0.04861,0.68865 -0.64627,1.20749 -1.33492,1.15888c-0.68865,-0.04861 -1.20749,-0.64627 -1.15888,-1.33492z" fill="#33965e" stroke="none" stroke-width="0.5" stroke-linecap="butt"/><path d="M246.60986,111.51917c0.04861,-0.68865 0.64627,-1.20749 1.33492,-1.15888c0.68865,0.04861 1.20749,0.64627 1.15888,1.33492c-0.04861,0.68865 -0.64627,1.20749 -1.33492,1.15888c-0.68865,-0.04861 -1.20749,-0.64627 -1.15888,-1.33492z" fill="#33965e" stroke="none" stroke-width="0.5" stroke-linecap="butt"/><path d="M256.11328,110.38555c0.04861,-0.68865 0.64627,-1.20749 1.33492,-1.15888c0.68865,0.04861 1.20749,0.64627 1.15888,1.33492c-0.04861,0.68865 -0.64627,1.20749 -1.33492,1.15888c-0.68865,-0.04861 -1.20749,-0.64627 -1.15888,-1.33492z" fill="#33965e" stroke="none" stroke-width="0.5" stroke-linecap="butt"/><path d="M270.94929,113.23732c0.04861,-0.68865 0.64627,-1.20749 1.33492,-1.15888c0.68865,0.04861 1.20749,0.64627 1.15888,1.33492c-0.04861,0.68865 -0.64627,1.20749 -1.33492,1.15888c-0.68865,-0.04861 -1.20749,-0.64627 -1.15888,-1.33492z" fill="#33965e" stroke="none" stroke-width="0.5" stroke-linecap="butt"/><path d="M276.23731,115.01409c0.04861,-0.68865 0.64627,-1.20749 1.33492,-1.15888c0.68865,0.04861 1.20749,0.64627 1.15888,1.33492c-0.04861,0.68865 -0.64627,1.20749 -1.33492,1.15888c-0.68865,-0.04861 -1.20749,-0.64627 -1.15888,-1.33492z" fill="#33965e" stroke="none" stroke-width="0.5" stroke-linecap="butt"/><path d="M307.86804,116.59439c-1.004,0.74464 -1.74864,-0.25935 -1.74864,-0.25935l-1.09844,-1.48103c0,0 -0.74464,-1.004 0.25936,-1.74864c1.004,-0.74464 1.74864,0.25936 1.74864,0.25936l1.09844,1.48102c0,0 0.74464,1.004 -0.25935,1.74864z" fill="#33965e" stroke="none" stroke-width="0.5" stroke-linecap="butt"/><path d="M312.88962,118.40342c0.04861,-0.68865 0.64627,-1.20749 1.33492,-1.15888c0.68865,0.04861 1.20749,0.64627 1.15888,1.33492c-0.04861,0.68865 -0.64627,1.20749 -1.33492,1.15888c-0.68865,-0.04861 -1.20749,-0.64627 -1.15888,-1.33492z" fill="#33965e" stroke="none" stroke-width="0.5" stroke-linecap="butt"/><path d="M315.64043,119.19909c0.04861,-0.68865 0.64627,-1.20749 1.33492,-1.15888c0.68865,0.04861 1.20749,0.64627 1.15888,1.33492c-0.04861,0.68865 -0.64627,1.20749 -1.33492,1.15888c-0.68865,-0.04861 -1.20749,-0.64627 -1.15888,-1.33492z" fill="#33965e" stroke="none" stroke-width="0.5" stroke-linecap="butt"/><path d="M357.68875,117.1549c0.04861,-0.68865 0.64627,-1.20749 1.33492,-1.15888c0.68865,0.04861 1.20749,0.64627 1.15888,1.33492c-0.04861,0.68865 -0.64627,1.20749 -1.33492,1.15888c-0.68865,-0.04861 -1.20749,-0.64627 -1.15888,-1.33492z" fill="#33965e" stroke="none" stroke-width="0.5" stroke-linecap="butt"/><path d="M363.03543,120.94078c0.04861,-0.68865 0.64627,-1.20749 1.33492,-1.15888c0.68865,0.04861 1.20749,0.64627 1.15888,1.33492c-0.04861,0.68865 -0.64627,1.20749 -1.33492,1.15888c-0.68865,-0.04861 -1.20749,-0.64627 -1.15888,-1.33492z" fill="#33965e" stroke="none" stroke-width="0.5" stroke-linecap="butt"/><path d="M249.80197,94.7022c0.04861,-0.68865 0.64627,-1.20749 1.33492,-1.15888c0.68865,0.04861 1.20749,0.64627 1.15888,1.33492c-0.04861,0.68865 -0.64627,1.20749 -1.33492,1.15888c-0.68865,-0.04861 -1.20749,-0.64627 -1.15888,-1.33492z" fill="#2d7a1a" stroke="none" stroke-width="0.5" stroke-linecap="butt"/><path d="M273.04296,94.93933c0.04861,-0.68865 0.64627,-1.20749 1.33492,-1.15888c0.68865,0.04861 1.20749,0.64627 1.15888,1.33492c-0.04861,0.68865 -0.64627,1.20749 -1.33492,1.15888c-0.68865,-0.04861 -1.20749,-0.64627 -1.15888,-1.33492z" fill="#2d7a1a" stroke="none" stroke-width="0.5" stroke-linecap="butt"/><path d="M280.17109,99.05147c0.04861,-0.68865 0.64627,-1.20749 1.33492,-1.15888c0.68865,0.04861 1.20749,0.64627 1.15888,1.33492c-0.04861,0.68865 -0.64627,1.20749 -1.33492,1.15888c-0.68865,-0.04861 -1.20749,-0.64627 -1.15888,-1.33492z" fill="#2d7a1a" stroke="none" stroke-width="0.5" stroke-linecap="butt"/><path d="M294.95785,94.08035c0.04861,-0.68865 0.64627,-1.20749 1.33492,-1.15888c0.68865,0.04861 1.20749,0.64627 1.15888,1.33492c-0.04861,0.68865 -0.64627,1.20749 -1.33492,1.15888c-0.68865,-0.04861 -1.20749,-0.64627 -1.15888,-1.33492z" fill="#2d7a1a" stroke="none" stroke-width="0.5" stroke-linecap="butt"/><path d="M323.28969,98.8873c0.04861,-0.68865 0.64627,-1.20749 1.33492,-1.15888c0.68865,0.04861 1.20749,0.64627 1.15888,1.33492c-0.04861,0.68865 -0.64627,1.20749 -1.33492,1.15888c-0.68865,-0.04861 -1.20749,-0.64627 -1.15888,-1.33492z" fill="#2d7a1a" stroke="none" stroke-width="0.5" stroke-linecap="butt"/><path d="M327.80786,100.20873c0.04861,-0.68865 0.64627,-1.20749 1.33492,-1.15888c0.68865,0.04861 1.20749,0.64627 1.15888,1.33492c-0.04861,0.68865 -0.64627,1.20749 -1.33492,1.15888c-0.68865,-0.04861 -1.20749,-0.64627 -1.15888,-1.33492z" fill="#2d7a1a" stroke="none" stroke-width="0.5" stroke-linecap="butt"/><path d="M343.0382,97.47441c0.04861,-0.68865 0.64628,-1.20749 1.33492,-1.15888c0.68865,0.04861 1.20749,0.64627 1.15888,1.33492c-0.04861,0.68865 -0.64628,1.20749 -1.33492,1.15888c-0.68865,-0.04861 -1.20749,-0.64627 -1.15888,-1.33492z" fill="#2d7a1a" stroke="none" stroke-width="0.5" stroke-linecap="butt"/><path d="M356.00827,101.19695c0.04861,-0.68865 0.64627,-1.20749 1.33492,-1.15888c0.68865,0.04861 1.20749,0.64627 1.15888,1.33492c-0.04861,0.68865 -0.64627,1.20749 -1.33492,1.15888c-0.68865,-0.04861 -1.20749,-0.64627 -1.15888,-1.33492z" fill="#2d7a1a" stroke="none" stroke-width="0.5" stroke-linecap="butt"/><path d="M249.38064,102.09087c0.02917,-0.41318 0.38777,-0.72449 0.80095,-0.69533c0.41318,0.02917 0.72449,0.38777 0.69532,0.80095c-0.02917,0.41318 -0.38777,0.72449 -0.80095,0.69533c-0.41318,-0.02917 -0.72449,-0.38777 -0.69532,-0.80095z" fill="#2d7a1a" stroke="none" stroke-width="0.5" stroke-linecap="butt"/><path d="M257.51804,103.26679c0.02917,-0.41318 0.38777,-0.72449 0.80095,-0.69533c0.41318,0.02917 0.7245,0.38777 0.69533,0.80096c-0.02917,0.41318 -0.38777,0.72449 -0.80095,0.69532c-0.41318,-0.02917 -0.72449,-0.38777 -0.69533,-0.80095z" fill="#2d7a1a" stroke="none" stroke-width="0.5" stroke-linecap="butt"/><path d="M264.50066,103.75971c0.02917,-0.41318 0.38777,-0.72449 0.80095,-0.69533c0.41318,0.02917 0.72449,0.38777 0.69533,0.80095c-0.02917,0.41318 -0.38777,0.72449 -0.80095,0.69533c-0.41318,-0.02917 -0.72449,-0.38777 -0.69533,-0.80095z" fill="#2d7a1a" stroke="none" stroke-width="0.5" stroke-linecap="butt"/><path d="M273.2929,104.17987c0.02917,-0.41318 0.38777,-0.7245 0.80096,-0.69533c0.41318,0.02917 0.72449,0.38777 0.69532,0.80095c-0.02917,0.41318 -0.38777,0.72449 -0.80095,0.69533c-0.41318,-0.02917 -0.72449,-0.38777 -0.69533,-0.80095z" fill="#2d7a1a" stroke="none" stroke-width="0.5" stroke-linecap="butt"/><path d="M287.87074,105.00844c0.02917,-0.41318 0.38777,-0.72449 0.80095,-0.69533c0.41318,0.02917 0.72449,0.38777 0.69533,0.80095c-0.02917,0.41318 -0.38777,0.72449 -0.80095,0.69533c-0.41318,-0.02917 -0.72449,-0.38777 -0.69533,-0.80095z" fill="#2d7a1a" stroke="none" stroke-width="0.5" stroke-linecap="butt"/><path d="M302.27725,105.42391c0.02917,-0.41318 0.38777,-0.72449 0.80095,-0.69533c0.41318,0.02917 0.72449,0.38777 0.69533,0.80095c-0.02917,0.41318 -0.38777,0.72449 -0.80095,0.69533c-0.41318,-0.02917 -0.72449,-0.38777 -0.69533,-0.80095z" fill="#2d7a1a" stroke="none" stroke-width="0.5" stroke-linecap="butt"/><path d="M312.067,105.91449c0.02917,-0.41318 0.38777,-0.72449 0.80095,-0.69533c0.41318,0.02917 0.72449,0.38777 0.69533,0.80095c-0.02917,0.41318 -0.38777,0.72449 -0.80095,0.69533c-0.41318,-0.02917 -0.72449,-0.38777 -0.69533,-0.80095z" fill="#2d7a1a" stroke="none" stroke-width="0.5" stroke-linecap="butt"/><path d="M320.84516,106.53415c0.02917,-0.41318 0.38777,-0.72449 0.80095,-0.69532c0.41318,0.02917 0.72449,0.38777 0.69533,0.80095c-0.02917,0.41318 -0.38777,0.72449 -0.80095,0.69533c-0.41318,-0.02917 -0.7245,-0.38777 -0.69533,-0.80096z" fill="#2d7a1a" stroke="none" stroke-width="0.5" stroke-linecap="butt"/><path d="M331.93286,108.51983c0.02917,-0.41318 0.38777,-0.72449 0.80095,-0.69533c0.41318,0.02917 0.72449,0.38777 0.69533,0.80095c-0.02917,0.41318 -0.38777,0.72449 -0.80095,0.69533c-0.41318,-0.02917 -0.72449,-0.38777 -0.69533,-0.80095z" fill="#2d7a1a" stroke="none" stroke-width="0.5" stroke-linecap="butt"/><path d="M338.91548,109.01274c0.02917,-0.41318 0.38777,-0.72449 0.80095,-0.69533c0.41318,0.02917 0.72449,0.38777 0.69533,0.80095c-0.02917,0.41318 -0.38777,0.72449 -0.80095,0.69533c-0.41318,-0.02917 -0.72449,-0.38777 -0.69533,-0.80095z" fill="#2d7a1a" stroke="none" stroke-width="0.5" stroke-linecap="butt"/><path d="M350.28718,109.81549c0.02917,-0.41318 0.38777,-0.72449 0.80095,-0.69533c0.41318,0.02917 0.72449,0.38777 0.69533,0.80095c-0.02917,0.41318 -0.38777,0.72449 -0.80095,0.69533c-0.41318,-0.02917 -0.72449,-0.38777 -0.69533,-0.80095z" fill="#2d7a1a" stroke="none" stroke-width="0.5" stroke-linecap="butt"/><path d="M356.6713,110.26615c0.02917,-0.41318 0.38777,-0.72449 0.80095,-0.69532c0.41318,0.02917 0.72449,0.38777 0.69532,0.80095c-0.02917,0.41318 -0.38777,0.72449 -0.80095,0.69532c-0.41318,-0.02917 -0.72449,-0.38777 -0.69532,-0.80095z" fill="#2d7a1a" stroke="none" stroke-width="0.5" stroke-linecap="butt"/><path d="M245.3201,119.84902c0.02917,-0.41318 0.38777,-0.72449 0.80095,-0.69532c0.41318,0.02917 0.72449,0.38777 0.69533,0.80095c-0.02917,0.41318 -0.38777,0.72449 -0.80095,0.69533c-0.41318,-0.02917 -0.7245,-0.38777 -0.69533,-0.80096z" fill="#33965e" stroke="none" stroke-width="0.5" stroke-linecap="butt"/><path d="M255.10752,117.53247c0.02917,-0.41318 0.38777,-0.72449 0.80095,-0.69533c0.41318,0.02917 0.72449,0.38777 0.69533,0.80095c-0.02917,0.41318 -0.38777,0.72449 -0.80095,0.69533c-0.41318,-0.02917 -0.72449,-0.38777 -0.69533,-0.80095z" fill="#33965e" stroke="none" stroke-width="0.5" stroke-linecap="butt"/><path d="M265.01462,122.04128c0.02917,-0.41318 0.38777,-0.72449 0.80095,-0.69532c0.41318,0.02917 0.72449,0.38777 0.69533,0.80095c-0.02917,0.41318 -0.38777,0.72449 -0.80095,0.69532c-0.41318,-0.02917 -0.72449,-0.38777 -0.69533,-0.80095z" fill="#33965e" stroke="none" stroke-width="0.5" stroke-linecap="butt"/><path d="M288.55136,118.08883c0.02917,-0.41318 0.38777,-0.72449 0.80095,-0.69533c0.41318,0.02917 0.72449,0.38777 0.69533,0.80095c-0.02917,0.41318 -0.38777,0.72449 -0.80095,0.69533c-0.41318,-0.02917 -0.72449,-0.38777 -0.69533,-0.80095z" fill="#33965e" stroke="none" stroke-width="0.5" stroke-linecap="butt"/><path d="M308.48764,119.69666c0.02917,-0.41318 0.38777,-0.72449 0.80095,-0.69533c0.41318,0.02917 0.72449,0.38777 0.69532,0.80095c-0.02917,0.41318 -0.38777,0.72449 -0.80095,0.69533c-0.41318,-0.02917 -0.72449,-0.38777 -0.69532,-0.80095z" fill="#33965e" stroke="none" stroke-width="0.5" stroke-linecap="butt"/><path d="M317.91123,125.37432c0.02917,-0.41318 0.38777,-0.72449 0.80095,-0.69533c0.41318,0.02917 0.72449,0.38777 0.69533,0.80095c-0.02917,0.41318 -0.38777,0.72449 -0.80095,0.69533c-0.41318,-0.02917 -0.72449,-0.38777 -0.69533,-0.80095z" fill="#33965e" stroke="none" stroke-width="0.5" stroke-linecap="butt"/><path d="M337.61515,121.7528c0.02917,-0.41318 0.38777,-0.72449 0.80095,-0.69533c0.41318,0.02917 0.72449,0.38777 0.69533,0.80095c-0.02917,0.41318 -0.38777,0.72449 -0.80095,0.69533c-0.41318,-0.02917 -0.72449,-0.38777 -0.69533,-0.80095z" fill="#33965e" stroke="none" stroke-width="0.5" stroke-linecap="butt"/><path d="M327.85356,120.86322c0.02917,-0.41318 0.38777,-0.72449 0.80095,-0.69533c0.41318,0.02917 0.72449,0.38777 0.69533,0.80095c-0.02917,0.41318 -0.38777,0.72449 -0.80095,0.69533c-0.41318,-0.02917 -0.72449,-0.38777 -0.69533,-0.80095z" fill="#33965e" stroke="none" stroke-width="0.5" stroke-linecap="butt"/><path d="M346.94957,123.01323c0.02917,-0.41318 0.38777,-0.72449 0.80095,-0.69533c0.41318,0.02917 0.72449,0.38777 0.69533,0.80095c-0.02917,0.41318 -0.38777,0.72449 -0.80095,0.69533c-0.41318,-0.02917 -0.72449,-0.38777 -0.69533,-0.80095z" fill="#33965e" stroke="none" stroke-width="0.5" stroke-linecap="butt"/><path d="M362.5296,129.52648c0.02917,-0.41318 0.38777,-0.72449 0.80095,-0.69533c0.41318,0.02917 0.72449,0.38777 0.69533,0.80095c-0.02917,0.41318 -0.38777,0.72449 -0.80095,0.69533c-0.41318,-0.02917 -0.72449,-0.38777 -0.69533,-0.80095z" fill="#33965e" stroke="none" stroke-width="0.5" stroke-linecap="butt"/><path d="M249.7373,136.80215c0.02917,-0.41318 0.38777,-0.72449 0.80095,-0.69533c0.41318,0.02917 0.72449,0.38777 0.69532,0.80095c-0.02917,0.41318 -0.38777,0.72449 -0.80095,0.69533c-0.41318,-0.02917 -0.72449,-0.38777 -0.69532,-0.80095z" fill="#75f20f" stroke="none" stroke-width="0.5" stroke-linecap="butt"/><path d="M256.48991,134.87285c0.02917,-0.41318 0.38777,-0.72449 0.80095,-0.69532c0.41318,0.02917 0.72449,0.38777 0.69533,0.80095c-0.02917,0.41318 -0.38777,0.72449 -0.80095,0.69532c-0.41318,-0.02917 -0.72449,-0.38777 -0.69533,-0.80095z" fill="#75f20f" stroke="none" stroke-width="0.5" stroke-linecap="butt"/><path d="M259.02946,138.66108c0.02917,-0.41318 0.38777,-0.72449 0.80095,-0.69532c0.41318,0.02917 0.72449,0.38777 0.69533,0.80095c-0.02917,0.41318 -0.38777,0.72449 -0.80095,0.69532c-0.41318,-0.02917 -0.72449,-0.38777 -0.69533,-0.80095z" fill="#75f20f" stroke="none" stroke-width="0.5" stroke-linecap="butt"/><path d="M313.17709,138.47348c0.02917,-0.41318 0.38777,-0.72449 0.80095,-0.69533c0.41318,0.02917 0.72449,0.38777 0.69532,0.80095c-0.02917,0.41318 -0.38777,0.72449 -0.80095,0.69533c-0.41318,-0.02917 -0.72449,-0.38777 -0.69532,-0.80095z" fill="#75f20f" stroke="none" stroke-width="0.5" stroke-linecap="butt"/><path d="M366.94212,140.86533c0.02917,-0.41318 0.38777,-0.72449 0.80095,-0.69533c0.41318,0.02917 0.7245,0.38777 0.69533,0.80096c-0.02917,0.41318 -0.38777,0.72449 -0.80095,0.69532c-0.41318,-0.02917 -0.72449,-0.38777 -0.69533,-0.80095z" fill="#75f20f" stroke="none" stroke-width="0.5" stroke-linecap="butt"/><path d="M375.15227,143.85087c0.02917,-0.41318 0.38777,-0.72449 0.80095,-0.69532c0.41318,0.02917 0.72449,0.38777 0.69533,0.80095c-0.02917,0.41318 -0.38777,0.72449 -0.80095,0.69532c-0.41318,-0.02917 -0.72449,-0.38777 -0.69533,-0.80095z" fill="#75f20f" stroke="none" stroke-width="0.5" stroke-linecap="butt"/></g><path d="M268.99538,143.91925c0.66448,-9.41308 8.83394,-16.50522 18.24702,-15.84075c9.41308,0.66448 16.50523,8.83395 15.84075,18.24704c-0.66448,9.41308 -8.83395,16.50523 -18.24704,15.84075c-9.41308,-0.66448 -16.50521,-8.83395 -15.84073,-18.24704z" fill="none" stroke="#191919" stroke-width="5" stroke-linecap="butt"/><path d="M355.69951,151.02399c-0.58443,8.27906 -7.76968,14.51678 -16.04873,13.93235c-8.27904,-0.58443 -14.51676,-7.76971 -13.93233,-16.04874c0.58443,-8.27906 7.7697,-14.51678 16.04874,-13.93235c8.27904,0.58443 14.51676,7.7697 13.93233,16.04873z" fill="#191919" stroke="#000000" stroke-width="0" stroke-linecap="butt"/><path d="M276.86051,144.47447c0.35785,-5.06928 4.75741,-8.88867 9.82669,-8.53082c5.06928,0.35785 8.88867,4.75741 8.53082,9.8267c-0.35785,5.06928 -4.7574,8.88867 -9.82669,8.53082c-5.06928,-0.35785 -8.88866,-4.7574 -8.53081,-9.82669z" fill="none" stroke="#191919" stroke-width="5" stroke-linecap="butt"/></g></g></g></svg>