<svg version="1.1" xmlns="http://www.w3.org/2000/svg" xmlns:xlink="http://www.w3.org/1999/xlink" width="34.17311" height="34.17311" viewBox="0,0,34.17311,34.17311"><g transform="translate(-302.91345,-162.91346)"><g stroke-miterlimit="10"><path d="M309.98312,162.91347h20.03379c3.9166,0 7.06966,3.15307 7.06966,7.06966v20.03379c0,3.91659 -3.15306,7.06966 -7.06966,7.06966h-20.03379c-3.91659,0 -7.06966,-3.15307 -7.06966,-7.06966v-20.03379c0,-3.91659 3.15307,-7.06966 7.06966,-7.06966z" fill="#f1c68c" fill-rule="evenodd" stroke="none" stroke-width="4.43922" stroke-linecap="round" stroke-linejoin="round"/><g fill-rule="nonzero" stroke="#000000" stroke-width="2" stroke-linejoin="miter"><path d="M307.71261,182.88082c0,0 -4.47028,-2.20762 -1.93097,-2.82751c2.53931,-0.61989 7.65585,1.00344 13.37892,1.41375c5.72307,0.4103 8.92139,-1.262 14.17201,-0.13792c5.25062,1.12408 -3.5861,2.31028 -3.5861,2.31028" fill="#502116" stroke-linecap="round"/><path d="M326.86005,187.2527c0.95625,0 1.84376,0.48476 2.57685,1.25478c-0.9644,0.00008 -1.92879,0.00081 -2.89319,0.00191c0.02486,-0.77263 0.11455,-1.2567 0.31635,-1.2567z" fill="#f1c68c" stroke-linecap="butt"/><path d="M306.11758,187.6255c0,-6.53409 5.64292,-11.83102 12.60382,-11.83102c6.96089,0 12.60382,5.29693 12.60382,11.83102c0,0.29692 -0.01166,0.5913 -0.03456,0.88273c-7.29147,-0.00668 -14.583,0.03444 -21.87439,0.00238c-1.0894,-0.00479 -2.17873,-0.02355 -3.26786,-0.05115c-0.02044,-0.2755 -0.03083,-0.55358 -0.03083,-0.83396z" fill="#f1c68c" stroke-linecap="butt"/><path d="M310.67744,187.2527c0.2024,0 0.29202,0.48702 0.31657,1.26375c-0.52591,-0.0016 -1.05183,-0.00353 -1.57775,-0.00584c-0.43571,-0.00191 -0.87141,-0.00607 -1.30709,-0.01212c0.73143,-0.7648 1.61574,-1.24579 2.56826,-1.24579z" fill="#f1c68c" stroke-linecap="butt"/><path d="M306.21227,187.6255c0,-6.53409 5.64293,-11.83102 12.60382,-11.83102c6.9609,0 12.60382,5.29693 12.60382,11.83102c0,0.29695 -0.01166,0.65676 -0.03456,0.94823c-7.32302,-0.00713 -24.08456,-0.08559 -25.14207,-0.11189c-0.02056,-0.27627 -0.03101,-0.55515 -0.03101,-0.83633z" fill="#f1c68c" stroke-linecap="butt"/><path d="M307.71261,179.88091c0,0 1.54542,-4.96409 1.92847,-6.19449c0.16256,-0.52217 5.70099,-2.34031 8.75911,-2.25739c0.83472,0.02264 3.60819,0.99967 6.43039,1.67175c3.31712,0.78994 6.67525,1.31646 6.64352,1.70598c-0.1117,1.37144 -0.4863,5.97068 -0.4863,5.97068" fill="#6a2a1c" stroke-linecap="round"/><path d="M308.31425,177.94993c0,0 7.76096,0.91754 11.53633,1.16653c3.71778,0.24519 11.25971,0.31618 11.25971,0.31618l-0.04993,1.73721c0,0 -9.29571,0.42249 -11.55614,0.32348c-3.83815,-0.16814 -11.97714,-1.44117 -11.97714,-1.44117z" fill="#1a2323" stroke-linecap="round"/></g><g fill-rule="nonzero" stroke="#000000" stroke-width="0" stroke-linejoin="miter"><path d="M307.71261,182.88082c0,0 -4.47028,-2.20762 -1.93097,-2.82751c2.53931,-0.61989 7.65585,1.00344 13.37892,1.41375c5.72307,0.4103 8.92139,-1.262 14.17201,-0.13792c5.25062,1.12408 -3.5861,2.31028 -3.5861,2.31028" fill="#502116" stroke-linecap="round"/><path d="M326.86005,187.2527c0.95625,0 1.84376,0.48476 2.57685,1.25478c-0.9644,0.00008 -1.92879,0.00081 -2.89319,0.00191c0.02486,-0.77263 0.11455,-1.2567 0.31635,-1.2567z" fill="#f1c68c" stroke-linecap="butt"/><path d="M306.11758,187.6255c0,-6.53409 5.64292,-11.83102 12.60382,-11.83102c6.96089,0 12.60382,5.29693 12.60382,11.83102c0,0.29692 -0.01166,0.5913 -0.03456,0.88273c-7.29147,-0.00668 -14.583,0.03444 -21.87439,0.00238c-1.0894,-0.00479 -2.17873,-0.02355 -3.26786,-0.05115c-0.02044,-0.2755 -0.03083,-0.55358 -0.03083,-0.83396z" fill="#f1c68c" stroke-linecap="butt"/><path d="M310.67744,187.2527c0.2024,0 0.29202,0.48702 0.31657,1.26375c-0.52591,-0.0016 -1.05183,-0.00353 -1.57775,-0.00584c-0.43571,-0.00191 -0.87141,-0.00607 -1.30709,-0.01212c0.73143,-0.7648 1.61574,-1.24579 2.56826,-1.24579z" fill="#f1c68c" stroke-linecap="butt"/><path d="M306.21227,187.6255c0,-6.53409 5.64293,-11.83102 12.60382,-11.83102c6.9609,0 12.60382,5.29693 12.60382,11.83102c0,0.29695 -0.01166,0.65676 -0.03456,0.94823c-7.32302,-0.00713 -24.08456,-0.08559 -25.14207,-0.11189c-0.02056,-0.27627 -0.03101,-0.55515 -0.03101,-0.83633z" fill="#f1c68c" stroke-linecap="butt"/><path d="M307.71261,179.88091c0,0 1.54542,-4.96409 1.92847,-6.19449c0.16256,-0.52217 5.70099,-2.34031 8.75911,-2.25739c0.83472,0.02264 3.60819,0.99967 6.43039,1.67175c3.31712,0.78994 6.67525,1.31646 6.64352,1.70598c-0.1117,1.37144 -0.4863,5.97068 -0.4863,5.97068" fill="#6a2a1c" stroke-linecap="round"/><path d="M308.31425,177.94993c0,0 7.76096,0.91754 11.53633,1.16653c3.71778,0.24519 11.25971,0.31618 11.25971,0.31618l-0.04993,1.73721c0,0 -9.29571,0.42249 -11.55614,0.32348c-3.83815,-0.16814 -11.97714,-1.44117 -11.97714,-1.44117z" fill="#1a2323" stroke-linecap="round"/></g><path d="M304.78499,190.28542v-1.88889h28.44445v1.88889z" fill="#f1c68c" fill-rule="nonzero" stroke="none" stroke-width="0" stroke-linecap="butt" stroke-linejoin="miter"/></g></g></svg>