<svg version="1.1" xmlns="http://www.w3.org/2000/svg" xmlns:xlink="http://www.w3.org/1999/xlink" width="213.18203" height="280.18475" viewBox="0,0,213.18203,280.18475"><g transform="translate(-214.52362,-38.88752)"><g stroke-miterlimit="10"><g><path d="M289.128,220.85421l-2.99277,5.38698l6.58409,3.29205c0,0 19.50039,5.80559 29.6369,5.85866c8.69566,0.04552 27.52496,-5.55938 27.52496,-5.55938l4.78843,0.89783l-3.59132,-9.87614l5.0877,-2.69349l-9.27757,-19.15371l-52.97199,2.09494l-7.7812,14.36529l5.38698,3.59132z" fill="#251375" stroke="#000000" stroke-width="0" stroke-linecap="round"/><g stroke-linecap="butt"><path d="M286.35186,319.07226l15.14285,-131.8421l37.78325,-0.15789l13.57389,132z" fill="#1c19ee" stroke="#000000" stroke-width="0"/><path d="M292.44624,265.508c2.68827,-23.40563 9.04847,-78.27784 9.04847,-78.27784l37.78325,-0.15789c0,0 5.71636,55.07295 8.12401,78.48629c0.01436,0.13966 -54.97581,0.12422 -54.95573,-0.05056z" fill="#1815bf" stroke="#000000" stroke-width="0"/><path d="M293.56364,256.29001c2.58099,-22.4716 8.53049,-69.05985 8.53049,-69.05985l37.78325,-0.15789c0,0 4.24282,47.05732 6.5846,69.83005c0.00407,0.03958 -52.91685,-0.45117 -52.89834,-0.61231z" fill="#1c0072" stroke="#000000" stroke-width="0"/><path d="M294.20505,245.4867c2.36047,-20.55158 7.28967,-58.25653 7.28967,-58.25653l37.78325,-0.15789c0,0 3.98836,38.78497 6.13101,59.62138c0.01596,0.15516 -51.22768,-1.0002 -51.20393,-1.20695z" fill="#110042" stroke="#000000" stroke-width="0"/><path d="M297.31707,243.63711c0.9665,0 1.75,0.7835 1.75,1.75c0,0.9665 -0.7835,1.75 -1.75,1.75c-0.30408,0 -0.59004,-0.07755 -0.83919,-0.21396c-0.24915,0.13641 -0.53511,0.21396 -0.83919,0.21396c-0.9665,0 -1.75,-0.7835 -1.75,-1.75c0,-0.9665 0.7835,-1.75 1.75,-1.75c0.30408,0 0.59004,0.07755 0.83919,0.21396c0.24915,-0.13641 0.53511,-0.21396 0.83919,-0.21396z" fill="#110042" stroke="none" stroke-width="0.5"/><path d="M304.86977,247.59618c-0.26262,0 -0.50632,-0.08099 -0.70749,-0.21934c-0.00394,0.00003 -0.00787,0.00004 -0.01182,0.00004c-0.66142,0 -1.23714,-0.36694 -1.53469,-0.90836c-0.31293,0.47499 -0.85106,0.78847 -1.46241,0.78847c-0.9665,0 -1.75,-0.7835 -1.75,-1.75c0,-0.9665 0.7835,-1.75 1.75,-1.75c0.66142,0 1.23714,0.36694 1.53469,0.90836c0.31293,-0.47499 0.85106,-0.78847 1.46241,-0.78847c0.47768,0 0.91066,0.19139 1.22644,0.50167c0.21217,-0.09139 0.44602,-0.14201 0.6917,-0.14201c0.9665,0 1.75,0.7835 1.75,1.75c0,0.9665 -0.7835,1.75 -1.75,1.75c-0.29401,0 -0.57108,-0.0725 -0.81432,-0.20061c-0.12114,0.03912 -0.25036,0.06026 -0.38452,0.06026z" fill="#110042" stroke="none" stroke-width="0.5"/><path d="M309.25433,248.26433c0,-0.24704 0.07166,-0.47734 0.19533,-0.67124c-0.62073,-0.2689 -1.05498,-0.88701 -1.05498,-1.60655c0,-0.9665 0.7835,-1.75 1.75,-1.75c0.9665,0 1.75,0.7835 1.75,1.75c0,0.52353 -0.22989,0.99337 -0.59423,1.31407c0.27723,0.22928 0.45388,0.57587 0.45388,0.96373c0,0.69036 -0.55964,1.25 -1.25,1.25c-0.69036,0 -1.25,-0.55964 -1.25,-1.25z" fill="#110042" stroke="none" stroke-width="0.5"/><path d="M312.23096,246.34618c0,-0.9665 0.7835,-1.75 1.75,-1.75c0.9665,0 1.75,0.7835 1.75,1.75c0,0.9665 -0.7835,1.75 -1.75,1.75c-0.9665,0 -1.75,-0.7835 -1.75,-1.75z" fill="#110042" stroke="none" stroke-width="0.5"/><path d="M316.54679,246.70583c0,-0.9665 0.7835,-1.75 1.75,-1.75c0.9665,0 1.75,0.7835 1.75,1.75c0,0.9665 -0.7835,1.75 -1.75,1.75c-0.9665,0 -1.75,-0.7835 -1.75,-1.75z" fill="#110042" stroke="none" stroke-width="0.5"/><path d="M321.00297,247.90467c0,-0.33427 0.13121,-0.6379 0.34494,-0.86219c0.0727,-0.89967 0.82586,-1.60712 1.74425,-1.60712c0.9665,0 1.75,0.7835 1.75,1.75c0,0.9665 -0.7835,1.75 -1.75,1.75c-0.04215,0 -0.08396,-0.00149 -0.12537,-0.00442c-0.20238,0.14103 -0.44844,0.22373 -0.71382,0.22373c-0.69036,0 -1.25,-0.55964 -1.25,-1.25z" fill="#110042" stroke="none" stroke-width="0.5"/><path d="M324.8188,247.66491c0,-0.9665 0.7835,-1.75 1.75,-1.75c0.9665,0 1.75,0.7835 1.75,1.75c0,0.9665 -0.7835,1.75 -1.75,1.75c-0.9665,0 -1.75,-0.7835 -1.75,-1.75z" fill="#110042" stroke="none" stroke-width="0.5"/><path d="M292.68985,257.01587c0,-0.9665 0.7835,-1.75 1.75,-1.75c0.9665,0 1.75,0.7835 1.75,1.75c0,0.9665 -0.7835,1.75 -1.75,1.75c-0.9665,0 -1.75,-0.7835 -1.75,-1.75z" fill="#1c0072" stroke="none" stroke-width="0.5"/><path d="M297.00568,256.65621c0,-0.9665 0.7835,-1.75 1.75,-1.75c0.9665,0 1.75,0.7835 1.75,1.75c0,0.9665 -0.7835,1.75 -1.75,1.75c-0.9665,0 -1.75,-0.7835 -1.75,-1.75z" fill="#1c0072" stroke="none" stroke-width="0.5"/><path d="M302.52035,256.65621c0,-0.9665 0.7835,-1.75 1.75,-1.75c0.9665,0 1.75,0.7835 1.75,1.75c0,0.9665 -0.7835,1.75 -1.75,1.75c-0.9665,0 -1.75,-0.7835 -1.75,-1.75z" fill="#1c0072" stroke="none" stroke-width="0.5"/><path d="M312.90201,256.12552c0.69036,0 1.25,0.55964 1.25,1.25c0,0.69036 -0.55964,1.25 -1.25,1.25c-0.29701,0 -0.56983,-0.10359 -0.78429,-0.27661c-0.30541,0.26003 -0.70131,0.41696 -1.13385,0.41696c-0.9665,0 -1.75,-0.7835 -1.75,-1.75c0,-0.9665 0.7835,-1.75 1.75,-1.75c0.6653,0 1.24389,0.37126 1.5399,0.9179c0.11932,-0.03784 0.2464,-0.05825 0.37825,-0.05825z" fill="#1c0072" stroke="none" stroke-width="0.5"/><path d="M315.96784,259.29366c0,-0.53514 0.33628,-0.99174 0.80906,-1.17001c-0.14641,-0.25582 -0.2301,-0.55215 -0.2301,-0.86802c0,-0.9665 0.7835,-1.75 1.75,-1.75c0.9665,0 1.75,0.7835 1.75,1.75c0,0.92058 -0.71082,1.67514 -1.61355,1.74476c0.02262,0.09406 0.03459,0.19227 0.03459,0.29327c0,0.69036 -0.55964,1.25 -1.25,1.25c-0.69036,0 -1.25,-0.55964 -1.25,-1.25z" fill="#1c0072" stroke="none" stroke-width="0.5"/><path d="M320.98251,257.37552c0,-0.9665 0.7835,-1.75 1.75,-1.75c0.9665,0 1.75,0.7835 1.75,1.75c0,0.9665 -0.7835,1.75 -1.75,1.75c-0.9665,0 -1.75,-0.7835 -1.75,-1.75z" fill="#1c0072" stroke="none" stroke-width="0.5"/><path d="M327.21648,257.61529c0,-0.9665 0.7835,-1.75 1.75,-1.75c0.9665,0 1.75,0.7835 1.75,1.75c0,0.9665 -0.7835,1.75 -1.75,1.75c-0.9665,0 -1.75,-0.7835 -1.75,-1.75z" fill="#1c0072" stroke="none" stroke-width="0.5"/><path d="M333.45045,257.73517c0,-0.9665 0.7835,-1.75 1.75,-1.75c0.9665,0 1.75,0.7835 1.75,1.75c0,0.9665 -0.7835,1.75 -1.75,1.75c-0.9665,0 -1.75,-0.7835 -1.75,-1.75z" fill="#1c0072" stroke="none" stroke-width="0.5"/><path d="M338.91686,259.70448c-0.6377,0 -1.16387,-0.47753 -1.24042,-1.09451c-0.31493,-0.31645 -0.50958,-0.75271 -0.50958,-1.23444c0,-0.9665 0.7835,-1.75 1.75,-1.75c0.9665,0 1.75,0.7835 1.75,1.75c0,0.48173 -0.19464,0.91799 -0.50958,1.23444c-0.07655,0.61698 -0.60272,1.09451 -1.24042,1.09451z" fill="#1c0072" stroke="none" stroke-width="0.5"/><path d="M344.55141,255.38575c0.9665,0 1.75,0.7835 1.75,1.75c0,0.9665 -0.7835,1.75 -1.75,1.75c-0.41782,0 -0.80145,-0.14643 -1.10235,-0.39077c-0.27062,0.17155 -0.59155,0.27088 -0.93568,0.27088c-0.9665,0 -1.75,-0.7835 -1.75,-1.75c0,-0.9665 0.7835,-1.75 1.75,-1.75c0.41782,0 0.80145,0.14643 1.10235,0.39077c0.27062,-0.17155 0.59155,-0.27088 0.93568,-0.27088z" fill="#1c0072" stroke="none" stroke-width="0.5"/><path d="M328.3159,247.06548c0,-0.68593 0.5525,-1.24283 1.23675,-1.24993c0.28494,-0.58022 0.8817,-0.97961 1.57174,-0.97961c0.77321,0 1.4293,0.50145 1.66079,1.19689c0.19278,-0.75696 0.87899,-1.31678 1.69596,-1.31678c0.71758,0 1.33428,0.43189 1.60435,1.04991c0.31969,-0.41951 0.82461,-0.69026 1.39276,-0.69026c0.50831,0 0.96601,0.21672 1.28573,0.56281c0.31152,-0.48288 0.85423,-0.80257 1.47161,-0.80257c0.70841,0 1.31851,0.42093 1.59383,1.02632c0.24592,-0.66898 0.88875,-1.1462 1.64304,-1.1462c0.9665,0 1.75,0.7835 1.75,1.75c0,0.9665 -0.7835,1.75 -1.75,1.75c-0.70841,0 -1.31851,-0.42093 -1.59383,-1.02632c-0.24592,0.66898 -0.88875,1.1462 -1.64304,1.1462c-0.50831,0 -0.96601,-0.21672 -1.28573,-0.56281c-0.31152,0.48288 -0.85423,0.80257 -1.47161,0.80257c-0.71758,0 -1.33428,-0.43189 -1.60435,-1.04991c-0.31969,0.41951 -0.82461,0.69026 -1.39276,0.69026c-0.77321,0 -1.4293,-0.50145 -1.66079,-1.19689c-0.19278,0.75696 -0.87899,1.31678 -1.69596,1.31678c-0.31528,0 -0.61108,-0.08337 -0.86657,-0.22927c-0.19812,0.13193 -0.43604,0.20881 -0.69192,0.20881c-0.69036,0 -1.25,-0.55964 -1.25,-1.25z" fill="#110042" stroke="none" stroke-width="0.5"/><path d="M292.68985,265.76741c0,-0.9665 0.7835,-1.75 1.75,-1.75c0.9665,0 1.75,0.7835 1.75,1.75c0,0.9665 -0.7835,1.75 -1.75,1.75c-0.9665,0 -1.75,-0.7835 -1.75,-1.75z" fill="#1815bf" stroke="none" stroke-width="0.5"/><path d="M302.90047,267.92532c0,-0.17789 0.03716,-0.3471 0.10414,-0.50029c-0.43869,-0.31799 -0.72402,-0.8346 -0.72402,-1.41785c0,-0.9665 0.7835,-1.75 1.75,-1.75c0.9665,0 1.75,0.7835 1.75,1.75c0,0.50479 -0.21372,0.95966 -0.55562,1.27905c0.11147,0.18701 0.1755,0.40557 0.1755,0.63909c0,0.69036 -0.55964,1.25 -1.25,1.25c-0.69036,0 -1.25,-0.55964 -1.25,-1.25z" fill="#1815bf" stroke="none" stroke-width="0.5"/><path d="M308.17537,267.44578c0,-0.03049 0.00109,-0.06073 0.00324,-0.09068c-0.3112,-0.31592 -0.50324,-0.74955 -0.50324,-1.22804c0,-0.87967 0.64905,-1.60774 1.49438,-1.73146c0.321,-0.37806 0.79977,-0.61796 1.33458,-0.61796c0.81991,0 1.50813,0.56386 1.69803,1.32497c0.3179,-0.43956 0.83503,-0.72555 1.41896,-0.72555c0.9665,0 1.75,0.7835 1.75,1.75c0,0.9665 -0.7835,1.75 -1.75,1.75c-0.81991,0 -1.50813,-0.56386 -1.69803,-1.32497c-0.27063,0.37419 -0.68564,0.6371 -1.16334,0.70701c-0.02809,0.03308 -0.05738,0.0651 -0.08782,0.096c0.00215,0.02995 0.00324,0.06019 0.00324,0.09068c0,0.69036 -0.55964,1.25 -1.25,1.25c-0.69036,0 -1.25,-0.55964 -1.25,-1.25z" fill="#1815bf" stroke="none" stroke-width="0.5"/><path d="M321.22227,266.48671c0,-0.9665 0.7835,-1.75 1.75,-1.75c0.9665,0 1.75,0.7835 1.75,1.75c0,0.9665 -0.7835,1.75 -1.75,1.75c-0.9665,0 -1.75,-0.7835 -1.75,-1.75z" fill="#1815bf" stroke="none" stroke-width="0.5"/><path d="M332.32323,268.3566c-0.9665,0 -1.75,-0.7835 -1.75,-1.75c0,-0.9665 0.7835,-1.75 1.75,-1.75c0.25842,0 0.50376,0.05601 0.72453,0.15656c0.21972,-0.71542 0.8857,-1.23552 1.67315,-1.23552c0.9665,0 1.75,0.7835 1.75,1.75c0,0.9665 -0.7835,1.75 -1.75,1.75c-0.25842,0 -0.50376,-0.05601 -0.72453,-0.15656c-0.21972,0.71542 -0.8857,1.23552 -1.67315,1.23552z" fill="#1815bf" stroke="none" stroke-width="0.5"/><path d="M338.12593,266.84636c0,-0.9665 0.7835,-1.75 1.75,-1.75c0.9665,0 1.75,0.7835 1.75,1.75c0,0.9665 -0.7835,1.75 -1.75,1.75c-0.9665,0 -1.75,-0.7835 -1.75,-1.75z" fill="#1815bf" stroke="none" stroke-width="0.5"/><path d="M325.89775,266.24694c0,-0.9665 0.7835,-1.75 1.75,-1.75c0.9665,0 1.75,0.7835 1.75,1.75c0,0.9665 -0.7835,1.75 -1.75,1.75c-0.9665,0 -1.75,-0.7835 -1.75,-1.75z" fill="#1815bf" stroke="none" stroke-width="0.5"/><path d="M296.52615,266.00717c0,-0.9665 0.7835,-1.75 1.75,-1.75c0.9665,0 1.75,0.7835 1.75,1.75c0,0.9665 -0.7835,1.75 -1.75,1.75c-0.9665,0 -1.75,-0.7835 -1.75,-1.75z" fill="#1815bf" stroke="none" stroke-width="0.5"/><path d="M342.82188,266.72648c0,-0.39183 0.18029,-0.74156 0.46244,-0.97075c-0.22764,-0.29538 -0.36302,-0.66552 -0.36302,-1.06728c0,-0.9665 0.7835,-1.75 1.75,-1.75c0.9665,0 1.75,0.7835 1.75,1.75c0,0.75996 -0.48441,1.40677 -1.1613,1.64852c0.04016,0.12258 0.06188,0.25351 0.06188,0.38951c0,0.69036 -0.55964,1.25 -1.25,1.25c-0.69036,0 -1.25,-0.55964 -1.25,-1.25z" fill="#1815bf" stroke="none" stroke-width="0.5"/><path d="M296.42673,250.78189c0,-0.69036 0.55964,-1.25 1.25,-1.25c0.69036,0 1.25,0.55964 1.25,1.25c0,0.69036 -0.55964,1.25 -1.25,1.25c-0.69036,0 -1.25,-0.55964 -1.25,-1.25z" fill="#110042" stroke="none" stroke-width="0.5"/><path d="M311.65201,250.18247c0,-0.69036 0.55964,-1.25 1.25,-1.25c0.69036,0 1.25,0.55964 1.25,1.25c0,0.69036 -0.55964,1.25 -1.25,1.25c-0.69036,0 -1.25,-0.55964 -1.25,-1.25z" fill="#110042" stroke="none" stroke-width="0.5"/><path d="M317.16668,250.42224c0,-0.69036 0.55964,-1.25 1.25,-1.25c0.69036,0 1.25,0.55964 1.25,1.25c0,0.69036 -0.55964,1.25 -1.25,1.25c-0.69036,0 -1.25,-0.55964 -1.25,-1.25z" fill="#110042" stroke="none" stroke-width="0.5"/><path d="M335.26918,250.30236c0,-0.69036 0.55964,-1.25 1.25,-1.25c0.69036,0 1.25,0.55964 1.25,1.25c0,0.69036 -0.55964,1.25 -1.25,1.25c-0.69036,0 -1.25,-0.55964 -1.25,-1.25z" fill="#110042" stroke="none" stroke-width="0.5"/><path d="M298.70452,261.57146c0,-0.69036 0.55964,-1.25 1.25,-1.25c0.69036,0 1.25,0.55964 1.25,1.25c0,0.69036 -0.55964,1.25 -1.25,1.25c-0.69036,0 -1.25,-0.55964 -1.25,-1.25z" fill="#1c0072" stroke="none" stroke-width="0.5"/><path d="M306.01745,257.4954c0,-0.69036 0.55964,-1.25 1.25,-1.25c0.69036,0 1.25,0.55964 1.25,1.25c0,0.69036 -0.55964,1.25 -1.25,1.25c-0.69036,0 -1.25,-0.55964 -1.25,-1.25z" fill="#1c0072" stroke="none" stroke-width="0.5"/><path d="M322.80123,261.69135c0,-0.69036 0.55964,-1.25 1.25,-1.25c0.69036,0 1.25,0.55964 1.25,1.25c0,0.69036 -0.55964,1.25 -1.25,1.25c-0.69036,0 -1.25,-0.55964 -1.25,-1.25z" fill="#1c0072" stroke="none" stroke-width="0.5"/><path d="M327.35683,262.051c0,-0.69036 0.55964,-1.25 1.25,-1.25c0.69036,0 1.25,0.55964 1.25,1.25c0,0.69036 -0.55964,1.25 -1.25,1.25c-0.69036,0 -1.25,-0.55964 -1.25,-1.25z" fill="#1c0072" stroke="none" stroke-width="0.5"/><path d="M330.95335,261.45158c0,-0.69036 0.55964,-1.25 1.25,-1.25c0.69036,0 1.25,0.55964 1.25,1.25c0,0.69036 -0.55964,1.25 -1.25,1.25c-0.69036,0 -1.25,-0.55964 -1.25,-1.25z" fill="#1c0072" stroke="none" stroke-width="0.5"/><path d="M297.02615,270.08323c0,-0.69036 0.55964,-1.25 1.25,-1.25c0.69036,0 1.25,0.55964 1.25,1.25c0,0.69036 -0.55964,1.25 -1.25,1.25c-0.69036,0 -1.25,-0.55964 -1.25,-1.25z" fill="#1815bf" stroke="none" stroke-width="0.5"/><path d="M316.56726,266.72648c0,-0.69036 0.55964,-1.25 1.25,-1.25c0.69036,0 1.25,0.55964 1.25,1.25c0,0.69036 -0.55964,1.25 -1.25,1.25c-0.69036,0 -1.25,-0.55964 -1.25,-1.25z" fill="#1815bf" stroke="none" stroke-width="0.5"/><path d="M319.08482,269.12416c0,-0.69036 0.55964,-1.25 1.25,-1.25c0.69036,0 1.25,0.55964 1.25,1.25c0,0.69036 -0.55964,1.25 -1.25,1.25c-0.69036,0 -1.25,-0.55964 -1.25,-1.25z" fill="#1815bf" stroke="none" stroke-width="0.5"/><path d="M324.23984,269.96335c0,-0.69036 0.55964,-1.25 1.25,-1.25c0.69036,0 1.25,0.55964 1.25,1.25c0,0.69036 -0.55964,1.25 -1.25,1.25c-0.69036,0 -1.25,-0.55964 -1.25,-1.25z" fill="#1815bf" stroke="none" stroke-width="0.5"/><path d="M329.63462,270.323c0,-0.69036 0.55964,-1.25 1.25,-1.25c0.69036,0 1.25,0.55964 1.25,1.25c0,0.69036 -0.55964,1.25 -1.25,1.25c-0.69036,0 -1.25,-0.55964 -1.25,-1.25z" fill="#1815bf" stroke="none" stroke-width="0.5"/><path d="M336.5879,269.36393c0,-0.69036 0.55964,-1.25 1.25,-1.25c0.69036,0 1.25,0.55964 1.25,1.25c0,0.69036 -0.55964,1.25 -1.25,1.25c-0.69036,0 -1.25,-0.55964 -1.25,-1.25z" fill="#1815bf" stroke="none" stroke-width="0.5"/><path d="M299.08464,254.13865c0,-0.41421 0.33579,-0.75 0.75,-0.75c0.41421,0 0.75,0.33579 0.75,0.75c0,0.41421 -0.33579,0.75 -0.75,0.75c-0.41421,0 -0.75,-0.33579 -0.75,-0.75z" fill="#110042" stroke="none" stroke-width="0.5"/><path d="M305.07885,250.66201c0,-0.41421 0.33579,-0.75 0.75,-0.75c0.41421,0 0.75,0.33579 0.75,0.75c0,0.41421 -0.33579,0.75 -0.75,0.75c-0.41421,0 -0.75,-0.33579 -0.75,-0.75z" fill="#110042" stroke="none" stroke-width="0.5"/><path d="M311.67247,253.17957c0,-0.41421 0.33579,-0.75 0.75,-0.75c0.41421,0 0.75,0.33579 0.75,0.75c0,0.41421 -0.33579,0.75 -0.75,0.75c-0.41421,0 -0.75,-0.33579 -0.75,-0.75z" fill="#110042" stroke="none" stroke-width="0.5"/><path d="M320.06436,253.89888c0,-0.41421 0.33579,-0.75 0.75,-0.75c0.41421,0 0.75,0.33579 0.75,0.75c0,0.41421 -0.33579,0.75 -0.75,0.75c-0.41421,0 -0.75,-0.33579 -0.75,-0.75z" fill="#110042" stroke="none" stroke-width="0.5"/><path d="M337.92709,256.05679c0,-0.41421 0.33579,-0.75 0.75,-0.75c0.41421,0 0.75,0.33579 0.75,0.75c0,0.41421 -0.33579,0.75 -0.75,0.75c-0.41421,0 -0.75,-0.33579 -0.75,-0.75z" fill="#110042" stroke="none" stroke-width="0.5"/><path d="M303.76012,262.53054c0,-0.41421 0.33579,-0.75 0.75,-0.75c0.41421,0 0.75,0.33579 0.75,0.75c0,0.41421 -0.33579,0.75 -0.75,0.75c-0.41421,0 -0.75,-0.33579 -0.75,-0.75z" fill="#1c0072" stroke="none" stroke-width="0.5"/><path d="M321.02343,264.20891c0,-0.41421 0.33579,-0.75 0.75,-0.75c0.41421,0 0.75,0.33579 0.75,0.75c0,0.41421 -0.33579,0.75 -0.75,0.75c-0.41421,0 -0.75,-0.33579 -0.75,-0.75z" fill="#1c0072" stroke="none" stroke-width="0.5"/><path d="M323.90065,265.0481c0,-0.41421 0.33579,-0.75 0.75,-0.75c0.41421,0 0.75,0.33579 0.75,0.75c0,0.41421 -0.33579,0.75 -0.75,0.75c-0.41421,0 -0.75,-0.33579 -0.75,-0.75z" fill="#1c0072" stroke="none" stroke-width="0.5"/><path d="M329.65509,264.20891c0,-0.41421 0.33579,-0.75 0.75,-0.75c0.41421,0 0.75,0.33579 0.75,0.75c0,0.41421 -0.33579,0.75 -0.75,0.75c-0.41421,0 -0.75,-0.33579 -0.75,-0.75z" fill="#1c0072" stroke="none" stroke-width="0.5"/><path d="M337.56744,263.24984c0,-0.41421 0.33579,-0.75 0.75,-0.75c0.41421,0 0.75,0.33579 0.75,0.75c0,0.41421 -0.33579,0.75 -0.75,0.75c-0.41421,0 -0.75,-0.33579 -0.75,-0.75z" fill="#1c0072" stroke="none" stroke-width="0.5"/><path d="M342.48269,261.93111c0,-0.41421 0.33579,-0.75 0.75,-0.75c0.41421,0 0.75,0.33579 0.75,0.75c0,0.41421 -0.33579,0.75 -0.75,0.75c-0.41421,0 -0.75,-0.33579 -0.75,-0.75z" fill="#1c0072" stroke="none" stroke-width="0.5"/><path d="M305.55838,270.92242c0,-0.41421 0.33579,-0.75 0.75,-0.75c0.41421,0 0.75,0.33579 0.75,0.75c0,0.41421 -0.33579,0.75 -0.75,0.75c-0.41421,0 -0.75,-0.33579 -0.75,-0.75z" fill="#1815bf" stroke="none" stroke-width="0.5"/><path d="M315.86842,275.71779c0,-0.41421 0.33579,-0.75 0.75,-0.75c0.41421,0 0.75,0.33579 0.75,0.75c0,0.41421 -0.33579,0.75 -0.75,0.75c-0.41421,0 -0.75,-0.33579 -0.75,-0.75z" fill="#1815bf" stroke="none" stroke-width="0.5"/><path d="M323.78077,274.39906c0,-0.41421 0.33579,-0.75 0.75,-0.75c0.41421,0 0.75,0.33579 0.75,0.75c0,0.41421 -0.33579,0.75 -0.75,0.75c-0.41421,0 -0.75,-0.33579 -0.75,-0.75z" fill="#1815bf" stroke="none" stroke-width="0.5"/><path d="M331.21358,273.43999c0,-0.41421 0.33579,-0.75 0.75,-0.75c0.41421,0 0.75,0.33579 0.75,0.75c0,0.41421 -0.33579,0.75 -0.75,0.75c-0.41421,0 -0.75,-0.33579 -0.75,-0.75z" fill="#1815bf" stroke="none" stroke-width="0.5"/><path d="M340.80431,273.32011c0,-0.41421 0.33579,-0.75 0.75,-0.75c0.41421,0 0.75,0.33579 0.75,0.75c0,0.41421 -0.33579,0.75 -0.75,0.75c-0.41421,0 -0.75,-0.33579 -0.75,-0.75z" fill="#1815bf" stroke="none" stroke-width="0.5"/></g><g stroke="#000000" stroke-linecap="round"><path d="M346.32908,201.92287l6.2192,36.16355l-3.22477,-3.68546l-0.69102,13.59012l-4.14614,-2.99444l-2.30341,9.21364l-8.06194,-13.12944l-2.99443,4.60682l-13.59012,-13.12944l0.92136,-26.48922z" fill="#2f1894" stroke-width="0"/><path d="M322.60395,207.45105l-0.92136,23.03411l-11.05637,12.66876l-1.84273,-8.75296l-9.21364,13.12944l-5.0675,-7.14057l-3.22478,3.22477l5.29784,-42.15241l25.7982,4.37648" fill="#2f1894" stroke-width="0"/><path d="M328.36248,228.18174l-15.20251,-1.38204" fill="none" stroke-width="2"/><path d="M318.89754,233.71042l4.73083,-28.70034" fill="none" stroke-width="1"/><path d="M326.98043,223.11424l-8.29228,-1.15171" fill="none" stroke-width="2"/><path d="M328.13213,215.51298l-8.9833,-0.23034" fill="none" stroke-width="2"/><path d="M325.59838,211.59719l-4.83716,0.23034" fill="none" stroke-width="2"/></g></g><path d="M214.52362,122.5036v-83.61608h213.18203v267.72501h-213.18203v-169.22364" fill="none" stroke="none" stroke-width="0" stroke-linecap="butt"/><path d="" fill="none" stroke="#000000" stroke-width="2" stroke-linecap="round"/><path d="M377.99956,128.95641c0.9665,0 1.75,0.7835 1.75,1.75c0,0.9665 -0.7835,1.75 -1.75,1.75c-0.23169,0 -0.45287,-0.04503 -0.65526,-0.12681c-0.20239,0.08178 -0.42357,0.12681 -0.65526,0.12681c-0.9665,0 -1.75,-0.7835 -1.75,-1.75c0,-0.9665 0.7835,-1.75 1.75,-1.75c0.23169,0 0.45287,0.04503 0.65526,0.12681c0.20239,-0.08178 0.42357,-0.12681 0.65526,-0.12681z" fill="#1815bf" stroke="none" stroke-width="0.5" stroke-linecap="butt"/><path d="M375.62626,135.38684c0,-0.69036 0.55964,-1.25 1.25,-1.25c0.69036,0 1.25,0.55964 1.25,1.25c0,0.69036 -0.55964,1.25 -1.25,1.25c-0.69036,0 -1.25,-0.55964 -1.25,-1.25z" fill="#1815bf" stroke="none" stroke-width="0.5" stroke-linecap="butt"/><g><path d="M217.12827,147.88123c-0.04567,-17.74368 12.75029,-37.30745 12.75029,-37.30745c0,0 13.30754,18.53969 20.21576,20.59628c6.09209,1.81363 10.75675,-7.18339 12.12048,-9.72079c10.57641,-19.67892 32.30268,-33.17534 57.38711,-33.17534c35.47713,0 64.23702,26.99648 64.23702,60.29833c0,33.30185 -28.75989,60.29834 -64.23702,60.29834c-21.54478,0 -40.61227,-9.95622 -52.26567,-25.23458c-2.58693,-3.39163 -11.60334,-12.9598 -19.30971,-12.98193c-8.08222,-0.02321 -24.20542,8.91279 -24.20542,8.91279c0,0 -6.65645,-17.55366 -6.69283,-31.68564z" fill="#1c19ee" stroke="#000000" stroke-width="0" stroke-linecap="butt"/><path d="M250.09432,131.17005c1.63281,0.48609 3.16308,0.19559 4.55474,-0.53898c3.80068,-2.00615 6.56751,-7.32448 7.56573,-9.18181c10.57641,-19.67892 32.30268,-33.17534 57.38711,-33.17534c28.88551,0 53.31801,17.89659 61.39992,42.52169c0.12561,0.38273 -132.06473,0.02993 -130.9075,0.37444z" fill="#1815bf" stroke="#000000" stroke-width="0" stroke-linecap="butt"/><path d="M262.21479,121.44926c10.57641,-19.67892 32.30268,-33.17534 57.38711,-33.17534c25.12979,0 46.88926,13.54528 57.44437,33.28216c0.03915,0.07322 -115.1018,0.39614 -114.83148,-0.10682z" fill="#1c0072" stroke="#000000" stroke-width="0" stroke-linecap="butt"/><path d="M270.22899,109.99562c11.78326,-13.27381 29.52709,-21.7217 49.37291,-21.7217c20.1929,0 38.20963,8.74595 49.98564,22.42252c0.21862,0.2539 -100.38865,0.80948 -100.10447,0.39244c0.36136,-0.53029 0.74416,-1.09128 0.74592,-1.09327z" fill="#110042" stroke="#000000" stroke-width="0" stroke-linecap="butt"/><path d="M305.84112,198.87597l5.52819,-14.97216" fill="none" stroke="#1714b7" stroke-width="1" stroke-linecap="round"/><path d="M332.79102,183.90381l6.67989,15.20251" fill="none" stroke="#1714b7" stroke-width="1" stroke-linecap="round"/><path d="M318.97056,192.88711v2.76409" fill="none" stroke="#1714b7" stroke-width="1" stroke-linecap="round"/><path d="M329.56624,191.7354l2.76409,3.9158" fill="none" stroke="#1714b7" stroke-width="1" stroke-linecap="round"/><path d="M220.92111,128.88238c3.75832,-10.35966 8.95745,-18.30861 8.95745,-18.30861c0,0 13.30754,18.53969 20.21576,20.59628c0.66541,0.19809 -29.56335,0.58271 -29.83225,0.54414c-0.03998,-0.00573 0.64236,-2.78581 0.65905,-2.83181z" fill="#1815bf" stroke="#000000" stroke-width="0" stroke-linecap="butt"/><path d="M225.03629,119.28184c2.60225,-5.2833 4.84227,-8.70807 4.84227,-8.70807c0,0 2.80634,3.90971 6.51056,8.33746c0.17688,0.21142 -11.46603,0.60043 -11.35283,0.37061z" fill="#1c0072" stroke="#000000" stroke-width="0" stroke-linecap="butt"/><path d="M269.88699,111.79747c0,-0.9665 0.7835,-1.75 1.75,-1.75c0.9665,0 1.75,0.7835 1.75,1.75c0,0.9665 -0.7835,1.75 -1.75,1.75c-0.9665,0 -1.75,-0.7835 -1.75,-1.75z" fill="#110042" stroke="none" stroke-width="0.5" stroke-linecap="butt"/><path d="M274.19298,112.1719c0,-0.9665 0.7835,-1.75 1.75,-1.75c0.9665,0 1.75,0.7835 1.75,1.75c0,0.9665 -0.7835,1.75 -1.75,1.75c-0.9665,0 -1.75,-0.7835 -1.75,-1.75z" fill="#110042" stroke="none" stroke-width="0.5" stroke-linecap="butt"/><path d="M279.43506,112.1719c0,-0.9665 0.7835,-1.75 1.75,-1.75c0.9665,0 1.75,0.7835 1.75,1.75c0,0.9665 -0.7835,1.75 -1.75,1.75c-0.9665,0 -1.75,-0.7835 -1.75,-1.75z" fill="#110042" stroke="none" stroke-width="0.5" stroke-linecap="butt"/><path d="M285.42601,112.1719c0,-0.9665 0.7835,-1.75 1.75,-1.75c0.9665,0 1.75,0.7835 1.75,1.75c0,0.9665 -0.7835,1.75 -1.75,1.75c-0.9665,0 -1.75,-0.7835 -1.75,-1.75z" fill="#110042" stroke="none" stroke-width="0.5" stroke-linecap="butt"/><path d="M291.04253,111.42303c0,-0.9665 0.7835,-1.75 1.75,-1.75c0.9665,0 1.75,0.7835 1.75,1.75c0,0.9665 -0.7835,1.75 -1.75,1.75c-0.9665,0 -1.75,-0.7835 -1.75,-1.75z" fill="#110042" stroke="none" stroke-width="0.5" stroke-linecap="butt"/><path d="M294.59966,111.23582c0,-0.9665 0.7835,-1.75 1.75,-1.75c0.9665,0 1.75,0.7835 1.75,1.75c0,0.9665 -0.7835,1.75 -1.75,1.75c-0.9665,0 -1.75,-0.7835 -1.75,-1.75z" fill="#110042" stroke="none" stroke-width="0.5" stroke-linecap="butt"/><path d="M303.58609,111.23582c0,-0.9665 0.7835,-1.75 1.75,-1.75c0.9665,0 1.75,0.7835 1.75,1.75c0,0.9665 -0.7835,1.75 -1.75,1.75c-0.9665,0 -1.75,-0.7835 -1.75,-1.75z" fill="#110042" stroke="none" stroke-width="0.5" stroke-linecap="butt"/><path d="M314.25747,111.23582c0,-0.9665 0.7835,-1.75 1.75,-1.75c0.9665,0 1.75,0.7835 1.75,1.75c0,0.9665 -0.7835,1.75 -1.75,1.75c-0.9665,0 -1.75,-0.7835 -1.75,-1.75z" fill="#110042" stroke="none" stroke-width="0.5" stroke-linecap="butt"/><path d="M318.15057,111.23582c0,-0.69036 0.55964,-1.25 1.25,-1.25c0.10753,0 0.21188,0.01358 0.31145,0.03911c0.29672,-0.54426 0.874,-0.91354 1.53753,-0.91354c0.9665,0 1.75,0.7835 1.75,1.75c0,0.9665 -0.7835,1.75 -1.75,1.75c-0.41255,0 -0.79177,-0.14276 -1.09093,-0.38157c-0.21028,0.16061 -0.47302,0.256 -0.75805,0.256c-0.69036,0 -1.25,-0.55964 -1.25,-1.25z" fill="#110042" stroke="none" stroke-width="0.5" stroke-linecap="butt"/><path d="M329.23485,110.86138c0,-0.9665 0.7835,-1.75 1.75,-1.75c0.9665,0 1.75,0.7835 1.75,1.75c0,0.9665 -0.7835,1.75 -1.75,1.75c-0.9665,0 -1.75,-0.7835 -1.75,-1.75z" fill="#110042" stroke="none" stroke-width="0.5" stroke-linecap="butt"/><path d="M333.16641,110.48695c0,-0.9665 0.7835,-1.75 1.75,-1.75c0.9665,0 1.75,0.7835 1.75,1.75c0,0.9665 -0.7835,1.75 -1.75,1.75c-0.9665,0 -1.75,-0.7835 -1.75,-1.75z" fill="#110042" stroke="none" stroke-width="0.5" stroke-linecap="butt"/><path d="M337.4724,110.29973c0,-0.9665 0.7835,-1.75 1.75,-1.75c0.9665,0 1.75,0.7835 1.75,1.75c0,0.9665 -0.7835,1.75 -1.75,1.75c-0.9665,0 -1.75,-0.7835 -1.75,-1.75z" fill="#110042" stroke="none" stroke-width="0.5" stroke-linecap="butt"/><path d="M345.14831,110.29973c0,-0.9665 0.7835,-1.75 1.75,-1.75c0.9665,0 1.75,0.7835 1.75,1.75c0,0.9665 -0.7835,1.75 -1.75,1.75c-0.9665,0 -1.75,-0.7835 -1.75,-1.75z" fill="#110042" stroke="none" stroke-width="0.5" stroke-linecap="butt"/><path d="M357.56969,109.48582c0.9665,0 1.75,0.7835 1.75,1.75c0,0.9665 -0.7835,1.75 -1.75,1.75c-0.5216,0 -0.98991,-0.2282 -1.31052,-0.59021c-0.32061,0.36201 -0.78892,0.59021 -1.31052,0.59021c-0.9665,0 -1.75,-0.7835 -1.75,-1.75c0,-0.9665 0.7835,-1.75 1.75,-1.75c0.5216,0 0.98991,0.2282 1.31052,0.59021c0.32061,-0.36201 0.78892,-0.59021 1.31052,-0.59021z" fill="#110042" stroke="none" stroke-width="0.5" stroke-linecap="butt"/><path d="M364.89436,110.36025c0.69036,0 1.25,0.55964 1.25,1.25c0,0.69036 -0.55964,1.25 -1.25,1.25c-0.44301,0 -0.83219,-0.23046 -1.0542,-0.57802c-0.3191,0.4271 -0.82867,0.70359 -1.40282,0.70359c-0.9665,0 -1.75,-0.7835 -1.75,-1.75c0,-0.9665 0.7835,-1.75 1.75,-1.75c0.76277,0 1.41155,0.488 1.65118,1.16882c0.2176,-0.18368 0.49879,-0.29439 0.80584,-0.29439z" fill="#110042" stroke="none" stroke-width="0.5" stroke-linecap="butt"/><path d="M262.02386,121.71998c0,-0.9665 0.7835,-1.75 1.75,-1.75c0.9665,0 1.75,0.7835 1.75,1.75c0,0.9665 -0.7835,1.75 -1.75,1.75c-0.9665,0 -1.75,-0.7835 -1.75,-1.75z" fill="#1c0072" stroke="none" stroke-width="0.5" stroke-linecap="butt"/><path d="M274.62134,122.03608c0.19262,-0.75718 0.87895,-1.31723 1.69608,-1.31723c0.9665,0 1.75,0.7835 1.75,1.75c0,0.9665 -0.7835,1.75 -1.75,1.75c-0.16013,0 -0.31524,-0.02151 -0.46259,-0.06179c-0.22009,0.19339 -0.50872,0.31066 -0.82473,0.31066c-0.48666,0 -0.90837,-0.27811 -1.11485,-0.68408c-0.30817,0.27092 -0.71237,0.43521 -1.15495,0.43521c-0.9665,0 -1.75,-0.7835 -1.75,-1.75c0,-0.9665 0.7835,-1.75 1.75,-1.75c0.83972,0 1.5413,0.59143 1.71091,1.38047c0.04834,-0.0242 0.09847,-0.04537 0.15014,-0.06324z" fill="#1c0072" stroke="none" stroke-width="0.5" stroke-linecap="butt"/><path d="M284.89208,123.21772c0,0.69036 -0.55964,1.25 -1.25,1.25c-0.37951,0 -0.71951,-0.16912 -0.94876,-0.43612c-0.0035,0.00002 -0.00701,0.00003 -0.01052,0.00003c-0.9665,0 -1.75,-0.7835 -1.75,-1.75c0,-0.9665 0.7835,-1.75 1.75,-1.75c0.9557,0 1.73247,0.76609 1.74971,1.71767c0.2805,0.22922 0.45957,0.57791 0.45957,0.96841z" fill="#1c0072" stroke="none" stroke-width="0.5" stroke-linecap="butt"/><path d="M292.49042,121.60083c0.26558,-0.6283 0.88762,-1.06919 1.61263,-1.06919c0.9665,0 1.75,0.7835 1.75,1.75c0,0.9665 -0.7835,1.75 -1.75,1.75c-0.26881,0 -0.52346,-0.06061 -0.75103,-0.1689c-0.2042,0.14518 -0.45388,0.23055 -0.72351,0.23055c-0.50582,0 -0.94146,-0.30043 -1.13822,-0.73259c-0.30491,0.51377 -0.86524,0.85816 -1.50601,0.85816c-0.9665,0 -1.75,-0.7835 -1.75,-1.75c0,-0.9665 0.7835,-1.75 1.75,-1.75c0.81509,0 1.50002,0.55724 1.69462,1.31154c0.2011,-0.2347 0.4877,-0.39398 0.81152,-0.42957z" fill="#1c0072" stroke="none" stroke-width="0.5" stroke-linecap="butt"/><path d="M303.58609,121.15833c0,-0.9665 0.7835,-1.75 1.75,-1.75c0.9665,0 1.75,0.7835 1.75,1.75c0,0.9665 -0.7835,1.75 -1.75,1.75c-0.9665,0 -1.75,-0.7835 -1.75,-1.75z" fill="#1c0072" stroke="none" stroke-width="0.5" stroke-linecap="butt"/><path d="M310.32591,120.7839c0,-0.9665 0.7835,-1.75 1.75,-1.75c0.9665,0 1.75,0.7835 1.75,1.75c0,0.9665 -0.7835,1.75 -1.75,1.75c-0.9665,0 -1.75,-0.7835 -1.75,-1.75z" fill="#1c0072" stroke="none" stroke-width="0.5" stroke-linecap="butt"/><path d="M323.43111,120.97111c0,-0.9665 0.7835,-1.75 1.75,-1.75c0.9665,0 1.75,0.7835 1.75,1.75c0,0.9665 -0.7835,1.75 -1.75,1.75c-0.9665,0 -1.75,-0.7835 -1.75,-1.75z" fill="#1c0072" stroke="none" stroke-width="0.5" stroke-linecap="butt"/><path d="M326.94978,123.0305c0,-0.61666 0.44653,-1.12902 1.03389,-1.23139c-0.03871,-0.14466 -0.05935,-0.2967 -0.05935,-0.45357c0,-0.9665 0.7835,-1.75 1.75,-1.75c0.9665,0 1.75,0.7835 1.75,1.75c0,0.9665 -0.7835,1.75 -1.75,1.75c-0.07643,0 -0.15171,-0.0049 -0.22555,-0.0144c-0.02657,0.66688 -0.5756,1.19936 -1.24899,1.19936c-0.69036,0 -1.25,-0.55964 -1.25,-1.25z" fill="#1c0072" stroke="none" stroke-width="0.5" stroke-linecap="butt"/><path d="M336.12342,124.52824c0,-0.69036 0.55964,-1.25 1.25,-1.25c0.00858,0 0.01715,0.00009 0.02569,0.00026c-0.07362,-0.19339 -0.11393,-0.4032 -0.11393,-0.62243c0,-0.9665 0.7835,-1.75 1.75,-1.75c0.9665,0 1.75,0.7835 1.75,1.75c0,0.9665 -0.7835,1.75 -1.75,1.75c-0.14612,0 -0.28807,-0.01791 -0.42375,-0.05165c0.0079,0.05681 0.01199,0.11484 0.01199,0.17383c0,0.69036 -0.55964,1.25 -1.25,1.25c-0.69036,0 -1.25,-0.55964 -1.25,-1.25z" fill="#1c0072" stroke="none" stroke-width="0.5" stroke-linecap="butt"/><path d="M343.98655,125.65154c0,-0.53295 0.33353,-0.98799 0.80324,-1.1678c-0.66532,-0.24782 -1.13922,-0.8888 -1.13922,-1.64046c0,-0.9665 0.7835,-1.75 1.75,-1.75c0.9665,0 1.75,0.7835 1.75,1.75c0,0.82336 -0.56861,1.51391 -1.33457,1.70039c0.3986,0.20891 0.67054,0.62663 0.67054,1.10787c0,0.69036 -0.55964,1.25 -1.25,1.25c-0.69036,0 -1.25,-0.55964 -1.25,-1.25z" fill="#1c0072" stroke="none" stroke-width="0.5" stroke-linecap="butt"/><path d="M348.51822,122.46885c0,-0.9665 0.7835,-1.75 1.75,-1.75c0.9665,0 1.75,0.7835 1.75,1.75c0,0.9665 -0.7835,1.75 -1.75,1.75c-0.9665,0 -1.75,-0.7835 -1.75,-1.75z" fill="#1c0072" stroke="none" stroke-width="0.5" stroke-linecap="butt"/><path d="M361.12682,119.78276c0.9665,0 1.75,0.7835 1.75,1.75c0,0.9665 -0.7835,1.75 -1.75,1.75c-0.80211,0 -1.47818,-0.53964 -1.68496,-1.27567c-0.20678,0.73603 -0.88285,1.27567 -1.68496,1.27567c-0.9665,0 -1.75,-0.7835 -1.75,-1.75c0,-0.9665 0.7835,-1.75 1.75,-1.75c0.80211,0 1.47818,0.53964 1.68496,1.27567c0.20678,-0.73603 0.88285,-1.27567 1.68496,-1.27567z" fill="#1c0072" stroke="none" stroke-width="0.5" stroke-linecap="butt"/><path d="M369.92603,120.53163c0.9665,0 1.75,0.7835 1.75,1.75c0,0.9665 -0.7835,1.75 -1.75,1.75c-0.61799,0 -1.16116,-0.32033 -1.47253,-0.80401c-0.30735,0.26756 -0.70901,0.42958 -1.14851,0.42958c-0.9665,0 -1.75,-0.7835 -1.75,-1.75c0,-0.9665 0.7835,-1.75 1.75,-1.75c0.61799,0 1.16116,0.32033 1.47253,0.80401c0.30735,-0.26756 0.70901,-0.42958 1.14851,-0.42958z" fill="#1c0072" stroke="none" stroke-width="0.5" stroke-linecap="butt"/><path d="M373.04368,121.9072c0,-0.9665 0.7835,-1.75 1.75,-1.75c0.9665,0 1.75,0.7835 1.75,1.75c0,0.9665 -0.7835,1.75 -1.75,1.75c-0.9665,0 -1.75,-0.7835 -1.75,-1.75z" fill="#1c0072" stroke="none" stroke-width="0.5" stroke-linecap="butt"/><path d="M233.87454,118.09781c0.9665,0 1.75,0.7835 1.75,1.75c0,0.9665 -0.7835,1.75 -1.75,1.75c-0.56512,0 -1.06767,-0.26787 -1.38762,-0.68355c-0.26821,0.62233 -0.88715,1.05799 -1.60785,1.05799c-0.88316,0 -1.61352,-0.65421 -1.73291,-1.50445c-0.25028,0.66048 -0.88881,1.13001 -1.637,1.13001c-0.9665,0 -1.75,-0.7835 -1.75,-1.75c0,-0.9665 0.7835,-1.75 1.75,-1.75c0.88316,0 1.61352,0.65421 1.73291,1.50445c0.25028,-0.66048 0.88881,-1.13001 1.637,-1.13001c0.56512,0 1.06767,0.26787 1.38762,0.68355c0.26821,-0.62233 0.88715,-1.05799 1.60785,-1.05799z" fill="#1c0072" stroke="none" stroke-width="0.5" stroke-linecap="butt"/><path d="M256.80497,131.82971c0,-0.9665 0.7835,-1.75 1.75,-1.75c0.9665,0 1.75,0.7835 1.75,1.75c0,0.9665 -0.7835,1.75 -1.75,1.75c-0.9665,0 -1.75,-0.7835 -1.75,-1.75z" fill="#1815bf" stroke="none" stroke-width="0.5" stroke-linecap="butt"/><path d="M262.42149,130.89363c0,-0.9665 0.7835,-1.75 1.75,-1.75c0.9665,0 1.75,0.7835 1.75,1.75c0,0.9665 -0.7835,1.75 -1.75,1.75c-0.9665,0 -1.75,-0.7835 -1.75,-1.75z" fill="#1815bf" stroke="none" stroke-width="0.5" stroke-linecap="butt"/><path d="M269.72296,130.89363c0,-0.9665 0.7835,-1.75 1.75,-1.75c0.9665,0 1.75,0.7835 1.75,1.75c0,0.9665 -0.7835,1.75 -1.75,1.75c-0.9665,0 -1.75,-0.7835 -1.75,-1.75z" fill="#1815bf" stroke="none" stroke-width="0.5" stroke-linecap="butt"/><path d="M278.89661,131.26806c0,-0.9665 0.7835,-1.75 1.75,-1.75c0.9665,0 1.75,0.7835 1.75,1.75c0,0.9665 -0.7835,1.75 -1.75,1.75c-0.9665,0 -1.75,-0.7835 -1.75,-1.75z" fill="#1815bf" stroke="none" stroke-width="0.5" stroke-linecap="butt"/><path d="M308.10249,131.26806c0,-0.9665 0.7835,-1.75 1.75,-1.75c0.9665,0 1.75,0.7835 1.75,1.75c0,0.9665 -0.7835,1.75 -1.75,1.75c-0.9665,0 -1.75,-0.7835 -1.75,-1.75z" fill="#1815bf" stroke="none" stroke-width="0.5" stroke-linecap="butt"/><path d="M312.90849,132.7658c0,-0.6689 0.5254,-1.21509 1.18604,-1.24839c-0.00072,-0.02062 -0.00108,-0.04133 -0.00108,-0.06213c0,-0.9665 0.7835,-1.75 1.75,-1.75c0.9665,0 1.75,0.7835 1.75,1.75c0,0.9665 -0.7835,1.75 -1.75,1.75c-0.1703,0 -0.33491,-0.02432 -0.49056,-0.06969c-0.15767,0.50983 -0.63278,0.88021 -1.1944,0.88021c-0.69036,0 -1.25,-0.55964 -1.25,-1.25z" fill="#1815bf" stroke="none" stroke-width="0.5" stroke-linecap="butt"/><path d="M318.96109,131.45528c0,-0.9665 0.7835,-1.75 1.75,-1.75c0.9665,0 1.75,0.7835 1.75,1.75c0,0.9665 -0.7835,1.75 -1.75,1.75c-0.9665,0 -1.75,-0.7835 -1.75,-1.75z" fill="#1815bf" stroke="none" stroke-width="0.5" stroke-linecap="butt"/><path d="M328.32195,131.45528c0,-0.9665 0.7835,-1.75 1.75,-1.75c0.9665,0 1.75,0.7835 1.75,1.75c0,0.9665 -0.7835,1.75 -1.75,1.75c-0.9665,0 -1.75,-0.7835 -1.75,-1.75z" fill="#1815bf" stroke="none" stroke-width="0.5" stroke-linecap="butt"/><path d="M364.82931,131.82971c0,-0.9665 0.7835,-1.75 1.75,-1.75c0.9665,0 1.75,0.7835 1.75,1.75c0,0.9665 -0.7835,1.75 -1.75,1.75c-0.9665,0 -1.75,-0.7835 -1.75,-1.75z" fill="#1815bf" stroke="none" stroke-width="0.5" stroke-linecap="butt"/><path d="M369.63531,132.39136c0,-0.69036 0.55964,-1.25 1.25,-1.25c0.23456,0 0.45404,0.06461 0.6416,0.177c0.26972,-0.61883 0.88684,-1.05143 1.60501,-1.05143c0.9665,0 1.75,0.7835 1.75,1.75c0,0.9665 -0.7835,1.75 -1.75,1.75c-0.51139,0 -0.97155,-0.21935 -1.29152,-0.56911c-0.22929,0.27128 -0.57207,0.44354 -0.95509,0.44354c-0.69036,0 -1.25,-0.55964 -1.25,-1.25z" fill="#1815bf" stroke="none" stroke-width="0.5" stroke-linecap="butt"/><path d="M220.48483,132.01693c0,-0.9665 0.7835,-1.75 1.75,-1.75c0.9665,0 1.75,0.7835 1.75,1.75c0,0.9665 -0.7835,1.75 -1.75,1.75c-0.9665,0 -1.75,-0.7835 -1.75,-1.75z" fill="#1815bf" stroke="none" stroke-width="0.5" stroke-linecap="butt"/><path d="M231.34343,131.45528c0,-0.9665 0.7835,-1.75 1.75,-1.75c0.9665,0 1.75,0.7835 1.75,1.75c0,0.9665 -0.7835,1.75 -1.75,1.75c-0.9665,0 -1.75,-0.7835 -1.75,-1.75z" fill="#1815bf" stroke="none" stroke-width="0.5" stroke-linecap="butt"/><path d="M236.3983,132.01693c0,-0.9665 0.7835,-1.75 1.75,-1.75c0.9665,0 1.75,0.7835 1.75,1.75c0,0.9665 -0.7835,1.75 -1.75,1.75c-0.9665,0 -1.75,-0.7835 -1.75,-1.75z" fill="#1815bf" stroke="none" stroke-width="0.5" stroke-linecap="butt"/><path d="M245.8242,130.45415c0.9665,0 1.75,0.7835 1.75,1.75c0,0.9665 -0.7835,1.75 -1.75,1.75c-0.12852,0 -0.2538,-0.01385 -0.37443,-0.04015c-0.12063,0.0263 -0.24592,0.04015 -0.37443,0.04015c-0.9665,0 -1.75,-0.7835 -1.75,-1.75c0,-0.9665 0.7835,-1.75 1.75,-1.75c0.12852,0 0.2538,0.01385 0.37443,0.04015c0.12063,-0.0263 0.24592,-0.04015 0.37443,-0.04015z" fill="#1815bf" stroke="none" stroke-width="0.5" stroke-linecap="butt"/><path d="M274.52896,115.54181c0,-0.69036 0.55964,-1.25 1.25,-1.25c0.69036,0 1.25,0.55964 1.25,1.25c0,0.69036 -0.55964,1.25 -1.25,1.25c-0.69036,0 -1.25,-0.55964 -1.25,-1.25z" fill="#110042" stroke="none" stroke-width="0.5" stroke-linecap="butt"/><path d="M299.80328,113.85686c0,-0.69036 0.55964,-1.25 1.25,-1.25c0.69036,0 1.25,0.55964 1.25,1.25c0,0.69036 -0.55964,1.25 -1.25,1.25c-0.69036,0 -1.25,-0.55964 -1.25,-1.25z" fill="#110042" stroke="none" stroke-width="0.5" stroke-linecap="butt"/><path d="M308.22806,111.61025c0,-0.69036 0.55964,-1.25 1.25,-1.25c0.69036,0 1.25,0.55964 1.25,1.25c0,0.69036 -0.55964,1.25 -1.25,1.25c-0.69036,0 -1.25,-0.55964 -1.25,-1.25z" fill="#110042" stroke="none" stroke-width="0.5" stroke-linecap="butt"/><path d="M326.57535,112.92077c0,-0.69036 0.55964,-1.25 1.25,-1.25c0.69036,0 1.25,0.55964 1.25,1.25c0,0.69036 -0.55964,1.25 -1.25,1.25c-0.69036,0 -1.25,-0.55964 -1.25,-1.25z" fill="#110042" stroke="none" stroke-width="0.5" stroke-linecap="butt"/><path d="M338.37003,113.66964c0,-0.69036 0.55964,-1.25 1.25,-1.25c0.69036,0 1.25,0.55964 1.25,1.25c0,0.69036 -0.55964,1.25 -1.25,1.25c-0.69036,0 -1.25,-0.55964 -1.25,-1.25z" fill="#110042" stroke="none" stroke-width="0.5" stroke-linecap="butt"/><path d="M346.23315,114.04408c0,-0.69036 0.55964,-1.25 1.25,-1.25c0.69036,0 1.25,0.55964 1.25,1.25c0,0.69036 -0.55964,1.25 -1.25,1.25c-0.69036,0 -1.25,-0.55964 -1.25,-1.25z" fill="#110042" stroke="none" stroke-width="0.5" stroke-linecap="butt"/><path d="M354.47071,114.79294c0,-0.69036 0.55964,-1.25 1.25,-1.25c0.69036,0 1.25,0.55964 1.25,1.25c0,0.69036 -0.55964,1.25 -1.25,1.25c-0.69036,0 -1.25,-0.55964 -1.25,-1.25z" fill="#110042" stroke="none" stroke-width="0.5" stroke-linecap="butt"/><path d="M266.47862,124.52824c0,-0.69036 0.55964,-1.25 1.25,-1.25c0.69036,0 1.25,0.55964 1.25,1.25c0,0.69036 -0.55964,1.25 -1.25,1.25c-0.69036,0 -1.25,-0.55964 -1.25,-1.25z" fill="#1c0072" stroke="none" stroke-width="0.5" stroke-linecap="butt"/><path d="M299.9905,125.08989c0,-0.69036 0.55964,-1.25 1.25,-1.25c0.69036,0 1.25,0.55964 1.25,1.25c0,0.69036 -0.55964,1.25 -1.25,1.25c-0.69036,0 -1.25,-0.55964 -1.25,-1.25z" fill="#1c0072" stroke="none" stroke-width="0.5" stroke-linecap="butt"/><path d="M306.73032,126.40041c0,-0.69036 0.55964,-1.25 1.25,-1.25c0.69036,0 1.25,0.55964 1.25,1.25c0,0.69036 -0.55964,1.25 -1.25,1.25c-0.69036,0 -1.25,-0.55964 -1.25,-1.25z" fill="#1c0072" stroke="none" stroke-width="0.5" stroke-linecap="butt"/><path d="M314.03179,122.09442c0,-0.69036 0.55964,-1.25 1.25,-1.25c0.69036,0 1.25,0.55964 1.25,1.25c0,0.69036 -0.55964,1.25 -1.25,1.25c-0.69036,0 -1.25,-0.55964 -1.25,-1.25z" fill="#1c0072" stroke="none" stroke-width="0.5" stroke-linecap="butt"/><path d="M359.33836,126.96206c0,-0.69036 0.55964,-1.25 1.25,-1.25c0.69036,0 1.25,0.55964 1.25,1.25c0,0.69036 -0.55964,1.25 -1.25,1.25c-0.69036,0 -1.25,-0.55964 -1.25,-1.25z" fill="#1c0072" stroke="none" stroke-width="0.5" stroke-linecap="butt"/><path d="M370.75861,126.58763c0,-0.69036 0.55964,-1.25 1.25,-1.25c0.69036,0 1.25,0.55964 1.25,1.25c0,0.69036 -0.55964,1.25 -1.25,1.25c-0.69036,0 -1.25,-0.55964 -1.25,-1.25z" fill="#1c0072" stroke="none" stroke-width="0.5" stroke-linecap="butt"/><path d="M226.0397,123.40494c0,-0.69036 0.55964,-1.25 1.25,-1.25c0.69036,0 1.25,0.55964 1.25,1.25c0,0.69036 -0.55964,1.25 -1.25,1.25c-0.69036,0 -1.25,-0.55964 -1.25,-1.25z" fill="#1c0072" stroke="none" stroke-width="0.5" stroke-linecap="butt"/><path d="M231.65621,122.84328c0,-0.69036 0.55964,-1.25 1.25,-1.25c0.69036,0 1.25,0.55964 1.25,1.25c0,0.69036 -0.55964,1.25 -1.25,1.25c-0.69036,0 -1.25,-0.55964 -1.25,-1.25z" fill="#1c0072" stroke="none" stroke-width="0.5" stroke-linecap="butt"/><path d="M227.53743,131.26806c0,-0.69036 0.55964,-1.25 1.25,-1.25c0.69036,0 1.25,0.55964 1.25,1.25c0,0.69036 -0.55964,1.25 -1.25,1.25c-0.69036,0 -1.25,-0.55964 -1.25,-1.25z" fill="#1815bf" stroke="none" stroke-width="0.5" stroke-linecap="butt"/><path d="M229.59682,134.45075c0,-0.69036 0.55964,-1.25 1.25,-1.25c0.69036,0 1.25,0.55964 1.25,1.25c0,0.69036 -0.55964,1.25 -1.25,1.25c-0.69036,0 -1.25,-0.55964 -1.25,-1.25z" fill="#1815bf" stroke="none" stroke-width="0.5" stroke-linecap="butt"/><path d="M235.21334,135.57406c0,-0.69036 0.55964,-1.25 1.25,-1.25c0.69036,0 1.25,0.55964 1.25,1.25c0,0.69036 -0.55964,1.25 -1.25,1.25c-0.69036,0 -1.25,-0.55964 -1.25,-1.25z" fill="#1815bf" stroke="none" stroke-width="0.5" stroke-linecap="butt"/><path d="M237.83438,135.57406c0,-0.69036 0.55964,-1.25 1.25,-1.25c0.69036,0 1.25,0.55964 1.25,1.25c0,0.69036 -0.55964,1.25 -1.25,1.25c-0.69036,0 -1.25,-0.55964 -1.25,-1.25z" fill="#1815bf" stroke="none" stroke-width="0.5" stroke-linecap="butt"/><path d="M250.93959,133.32745c0,-0.69036 0.55964,-1.25 1.25,-1.25c0.69036,0 1.25,0.55964 1.25,1.25c0,0.69036 -0.55964,1.25 -1.25,1.25c-0.69036,0 -1.25,-0.55964 -1.25,-1.25z" fill="#1815bf" stroke="none" stroke-width="0.5" stroke-linecap="butt"/><path d="M267.22749,132.01693c0,-0.69036 0.55964,-1.25 1.25,-1.25c0.69036,0 1.25,0.55964 1.25,1.25c0,0.69036 -0.55964,1.25 -1.25,1.25c-0.69036,0 -1.25,-0.55964 -1.25,-1.25z" fill="#1815bf" stroke="none" stroke-width="0.5" stroke-linecap="butt"/><path d="M318.71222,134.82519c0,-0.69036 0.55964,-1.25 1.25,-1.25c0.69036,0 1.25,0.55964 1.25,1.25c0,0.69036 -0.55964,1.25 -1.25,1.25c-0.69036,0 -1.25,-0.55964 -1.25,-1.25z" fill="#1815bf" stroke="none" stroke-width="0.5" stroke-linecap="butt"/><path d="M322.26935,134.82519c0,-0.69036 0.55964,-1.25 1.25,-1.25c0.69036,0 1.25,0.55964 1.25,1.25c0,0.69036 -0.55964,1.25 -1.25,1.25c-0.69036,0 -1.25,-0.55964 -1.25,-1.25z" fill="#1815bf" stroke="none" stroke-width="0.5" stroke-linecap="butt"/><path d="M271.84627,117.6012c0,-0.41421 0.33579,-0.75 0.75,-0.75c0.41421,0 0.75,0.33579 0.75,0.75c0,0.41421 -0.33579,0.75 -0.75,0.75c-0.41421,0 -0.75,-0.33579 -0.75,-0.75z" fill="#110042" stroke="none" stroke-width="0.5" stroke-linecap="butt"/><path d="M275.21618,118.72451c0,-0.41421 0.33579,-0.75 0.75,-0.75c0.41421,0 0.75,0.33579 0.75,0.75c0,0.41421 -0.33579,0.75 -0.75,0.75c-0.41421,0 -0.75,-0.33579 -0.75,-0.75z" fill="#110042" stroke="none" stroke-width="0.5" stroke-linecap="butt"/><path d="M290.38077,115.3546c0,-0.41421 0.33579,-0.75 0.75,-0.75c0.41421,0 0.75,0.33579 0.75,0.75c0,0.41421 -0.33579,0.75 -0.75,0.75c-0.41421,0 -0.75,-0.33579 -0.75,-0.75z" fill="#110042" stroke="none" stroke-width="0.5" stroke-linecap="butt"/><path d="M304.7965,116.29068c0,-0.41421 0.33579,-0.75 0.75,-0.75c0.41421,0 0.75,0.33579 0.75,0.75c0,0.41421 -0.33579,0.75 -0.75,0.75c-0.41421,0 -0.75,-0.33579 -0.75,-0.75z" fill="#110042" stroke="none" stroke-width="0.5" stroke-linecap="butt"/><path d="M311.16188,117.22677c0,-0.41421 0.33579,-0.75 0.75,-0.75c0.41421,0 0.75,0.33579 0.75,0.75c0,0.41421 -0.33579,0.75 -0.75,0.75c-0.41421,0 -0.75,-0.33579 -0.75,-0.75z" fill="#110042" stroke="none" stroke-width="0.5" stroke-linecap="butt"/><path d="M320.33553,117.41399c0,-0.41421 0.33579,-0.75 0.75,-0.75c0.41421,0 0.75,0.33579 0.75,0.75c0,0.41421 -0.33579,0.75 -0.75,0.75c-0.41421,0 -0.75,-0.33579 -0.75,-0.75z" fill="#110042" stroke="none" stroke-width="0.5" stroke-linecap="butt"/><path d="M330.44526,117.41399c0,-0.41421 0.33579,-0.75 0.75,-0.75c0.41421,0 0.75,0.33579 0.75,0.75c0,0.41421 -0.33579,0.75 -0.75,0.75c-0.41421,0 -0.75,-0.33579 -0.75,-0.75z" fill="#110042" stroke="none" stroke-width="0.5" stroke-linecap="butt"/><path d="M340.92942,117.6012c0,-0.41421 0.33579,-0.75 0.75,-0.75c0.41421,0 0.75,0.33579 0.75,0.75c0,0.41421 -0.33579,0.75 -0.75,0.75c-0.41421,0 -0.75,-0.33579 -0.75,-0.75z" fill="#110042" stroke="none" stroke-width="0.5" stroke-linecap="butt"/><path d="M349.16698,119.28616c0,-0.41421 0.33579,-0.75 0.75,-0.75c0.41421,0 0.75,0.33579 0.75,0.75c0,0.41421 -0.33579,0.75 -0.75,0.75c-0.41421,0 -0.75,-0.33579 -0.75,-0.75z" fill="#110042" stroke="none" stroke-width="0.5" stroke-linecap="butt"/><path d="M360.96166,119.09894c0,-0.41421 0.33579,-0.75 0.75,-0.75c0.41421,0 0.75,0.33579 0.75,0.75c0,0.41421 -0.33579,0.75 -0.75,0.75c-0.41421,0 -0.75,-0.33579 -0.75,-0.75z" fill="#110042" stroke="none" stroke-width="0.5" stroke-linecap="butt"/><path d="M224.48031,127.52372c0,-0.41421 0.33579,-0.75 0.75,-0.75c0.41421,0 0.75,0.33579 0.75,0.75c0,0.41421 -0.33579,0.75 -0.75,0.75c-0.41421,0 -0.75,-0.33579 -0.75,-0.75z" fill="#1c0072" stroke="none" stroke-width="0.5" stroke-linecap="butt"/><path d="M230.84569,129.02145c0,-0.41421 0.33579,-0.75 0.75,-0.75c0.41421,0 0.75,0.33579 0.75,0.75c0,0.41421 -0.33579,0.75 -0.75,0.75c-0.41421,0 -0.75,-0.33579 -0.75,-0.75z" fill="#1c0072" stroke="none" stroke-width="0.5" stroke-linecap="butt"/><path d="M235.52612,126.21319c0,-0.41421 0.33579,-0.75 0.75,-0.75c0.41421,0 0.75,0.33579 0.75,0.75c0,0.41421 -0.33579,0.75 -0.75,0.75c-0.41421,0 -0.75,-0.33579 -0.75,-0.75z" fill="#1c0072" stroke="none" stroke-width="0.5" stroke-linecap="butt"/><path d="M260.61323,127.71093c0,-0.41421 0.33579,-0.75 0.75,-0.75c0.41421,0 0.75,0.33579 0.75,0.75c0,0.41421 -0.33579,0.75 -0.75,0.75c-0.41421,0 -0.75,-0.33579 -0.75,-0.75z" fill="#1c0072" stroke="none" stroke-width="0.5" stroke-linecap="butt"/><path d="M265.29366,128.4598c0,-0.41421 0.33579,-0.75 0.75,-0.75c0.41421,0 0.75,0.33579 0.75,0.75c0,0.41421 -0.33579,0.75 -0.75,0.75c-0.41421,0 -0.75,-0.33579 -0.75,-0.75z" fill="#1c0072" stroke="none" stroke-width="0.5" stroke-linecap="butt"/><path d="M275.40339,128.27258c0,-0.41421 0.33579,-0.75 0.75,-0.75c0.41421,0 0.75,0.33579 0.75,0.75c0,0.41421 -0.33579,0.75 -0.75,0.75c-0.41421,0 -0.75,-0.33579 -0.75,-0.75z" fill="#1c0072" stroke="none" stroke-width="0.5" stroke-linecap="butt"/><path d="M283.26652,126.96206c0,-0.41421 0.33579,-0.75 0.75,-0.75c0.41421,0 0.75,0.33579 0.75,0.75c0,0.41421 -0.33579,0.75 -0.75,0.75c-0.41421,0 -0.75,-0.33579 -0.75,-0.75z" fill="#1c0072" stroke="none" stroke-width="0.5" stroke-linecap="butt"/><path d="M299.3672,128.4598c0,-0.41421 0.33579,-0.75 0.75,-0.75c0.41421,0 0.75,0.33579 0.75,0.75c0,0.41421 -0.33579,0.75 -0.75,0.75c-0.41421,0 -0.75,-0.33579 -0.75,-0.75z" fill="#1c0072" stroke="none" stroke-width="0.5" stroke-linecap="butt"/><path d="M301.42659,129.20867c0,-0.41421 0.33579,-0.75 0.75,-0.75c0.41421,0 0.75,0.33579 0.75,0.75c0,0.41421 -0.33579,0.75 -0.75,0.75c-0.41421,0 -0.75,-0.33579 -0.75,-0.75z" fill="#1c0072" stroke="none" stroke-width="0.5" stroke-linecap="butt"/><path d="M329.13474,127.14928c0,-0.41421 0.33579,-0.75 0.75,-0.75c0.41421,0 0.75,0.33579 0.75,0.75c0,0.41421 -0.33579,0.75 -0.75,0.75c-0.41421,0 -0.75,-0.33579 -0.75,-0.75z" fill="#1c0072" stroke="none" stroke-width="0.5" stroke-linecap="butt"/><path d="M336.99786,128.27258c0,-0.41421 0.33579,-0.75 0.75,-0.75c0.41421,0 0.75,0.33579 0.75,0.75c0,0.41421 -0.33579,0.75 -0.75,0.75c-0.41421,0 -0.75,-0.33579 -0.75,-0.75z" fill="#1c0072" stroke="none" stroke-width="0.5" stroke-linecap="butt"/><path d="M356.46845,127.89815c0,-0.41421 0.33579,-0.75 0.75,-0.75c0.41421,0 0.75,0.33579 0.75,0.75c0,0.41421 -0.33579,0.75 -0.75,0.75c-0.41421,0 -0.75,-0.33579 -0.75,-0.75z" fill="#1c0072" stroke="none" stroke-width="0.5" stroke-linecap="butt"/><path d="M366.7654,129.95754c0,-0.41421 0.33579,-0.75 0.75,-0.75c0.41421,0 0.75,0.33579 0.75,0.75c0,0.41421 -0.33579,0.75 -0.75,0.75c-0.41421,0 -0.75,-0.33579 -0.75,-0.75z" fill="#1c0072" stroke="none" stroke-width="0.5" stroke-linecap="butt"/><path d="M318.27614,123.77937c0,-0.41421 0.33579,-0.75 0.75,-0.75c0.41421,0 0.75,0.33579 0.75,0.75c0,0.41421 -0.33579,0.75 -0.75,0.75c-0.41421,0 -0.75,-0.33579 -0.75,-0.75z" fill="#1c0072" stroke="none" stroke-width="0.5" stroke-linecap="butt"/><path d="M222.98257,137.44623c0,-0.41421 0.33579,-0.75 0.75,-0.75c0.41421,0 0.75,0.33579 0.75,0.75c0,0.41421 -0.33579,0.75 -0.75,0.75c-0.41421,0 -0.75,-0.33579 -0.75,-0.75z" fill="#1815bf" stroke="none" stroke-width="0.5" stroke-linecap="butt"/><path d="M232.34343,139.69283c0,-0.41421 0.33579,-0.75 0.75,-0.75c0.41421,0 0.75,0.33579 0.75,0.75c0,0.41421 -0.33579,0.75 -0.75,0.75c-0.41421,0 -0.75,-0.33579 -0.75,-0.75z" fill="#1815bf" stroke="none" stroke-width="0.5" stroke-linecap="butt"/><path d="M241.32986,138.38231c0,-0.41421 0.33579,-0.75 0.75,-0.75c0.41421,0 0.75,0.33579 0.75,0.75c0,0.41421 -0.33579,0.75 -0.75,0.75c-0.41421,0 -0.75,-0.33579 -0.75,-0.75z" fill="#1815bf" stroke="none" stroke-width="0.5" stroke-linecap="butt"/><path d="M246.38472,136.88458c0,-0.41421 0.33579,-0.75 0.75,-0.75c0.41421,0 0.75,0.33579 0.75,0.75c0,0.41421 -0.33579,0.75 -0.75,0.75c-0.41421,0 -0.75,-0.33579 -0.75,-0.75z" fill="#1815bf" stroke="none" stroke-width="0.5" stroke-linecap="butt"/><path d="M261.92375,136.51014c0,-0.41421 0.33579,-0.75 0.75,-0.75c0.41421,0 0.75,0.33579 0.75,0.75c0,0.41421 -0.33579,0.75 -0.75,0.75c-0.41421,0 -0.75,-0.33579 -0.75,-0.75z" fill="#1815bf" stroke="none" stroke-width="0.5" stroke-linecap="butt"/><path d="M314.90623,137.44623c0,-0.41421 0.33579,-0.75 0.75,-0.75c0.41421,0 0.75,0.33579 0.75,0.75c0,0.41421 -0.33579,0.75 -0.75,0.75c-0.41421,0 -0.75,-0.33579 -0.75,-0.75z" fill="#1815bf" stroke="none" stroke-width="0.5" stroke-linecap="butt"/><path d="M319.39944,139.88005c0,-0.41421 0.33579,-0.75 0.75,-0.75c0.41421,0 0.75,0.33579 0.75,0.75c0,0.41421 -0.33579,0.75 -0.75,0.75c-0.41421,0 -0.75,-0.33579 -0.75,-0.75z" fill="#1815bf" stroke="none" stroke-width="0.5" stroke-linecap="butt"/><path d="M370.69696,136.32292c0,-0.41421 0.33579,-0.75 0.75,-0.75c0.41421,0 0.75,0.33579 0.75,0.75c0,0.41421 -0.33579,0.75 -0.75,0.75c-0.41421,0 -0.75,-0.33579 -0.75,-0.75z" fill="#1815bf" stroke="none" stroke-width="0.5" stroke-linecap="butt"/><path d="M268.99199,148.84787c0,-3.09671 0.59947,-6.0534 1.68869,-8.76037c3.47208,-8.62893 37.54318,-10.32053 41.69581,-3.70256c2.26634,3.61182 3.57681,7.88433 3.57681,12.46293c0,5.81746 -2.11559,11.1408 -5.61939,15.24262c-4.3067,5.04176 -31.08476,5.20463 -35.3849,0.38667c-3.70506,-4.15123 -5.95702,-9.62727 -5.95702,-15.62929z" fill="#ffffff" stroke="#000000" stroke-width="0" stroke-linecap="butt"/><path d="M276.90144,149.63831c0,-8.29964 6.72818,-15.02784 15.02783,-15.02784c8.29964,0 15.02784,6.72819 15.02784,15.02785c0,8.29964 -6.72819,15.02785 -15.02784,15.02785c-8.29964,0 -15.02783,-6.72819 -15.02783,-15.02785z" fill="#000000" stroke="#000000" stroke-width="0" stroke-linecap="butt"/><path d="M330.10704,165.43045c-4.23696,-4.24751 -6.85658,-10.10912 -6.85658,-16.58256c0,-4.96391 1.54033,-9.56806 4.16909,-13.36054c4.23876,-6.11523 34.33507,-6.1431 38.5787,-0.06388c2.65583,3.80462 4.21353,8.43261 4.21353,13.42443c0,6.13775 -2.35496,11.72548 -6.21062,15.9089c-4.29068,4.65542 -29.64332,4.93503 -33.89411,0.67366z" fill="#ffffff" stroke="#000000" stroke-width="0" stroke-linecap="butt"/><path d="M362.05645,149.4251c0,8.29966 -6.72818,15.02785 -15.02783,15.02785c-8.29964,0 -15.02784,-6.72821 -15.02784,-15.02785c0,-8.29966 6.7282,-15.02785 15.02784,-15.02785c8.29964,0 15.02783,6.7282 15.02783,15.02784z" fill="#1b1b1b" stroke="#000000" stroke-width="0" stroke-linecap="butt"/></g></g></g></svg>