<svg version="1.1" xmlns="http://www.w3.org/2000/svg" xmlns:xlink="http://www.w3.org/1999/xlink" width="213.18203" height="280.18475" viewBox="0,0,213.18203,280.18475"><g transform="translate(-214.52362,-38.88752)"><g stroke-miterlimit="10"><g><path d="M291.52221,219.05856l-5.38698,-3.59132l7.7812,-14.36529l52.97199,-2.09494l9.27757,19.15371l-5.0877,2.69349l3.59132,9.87614l-4.78843,-0.89783c0,0 -18.8293,5.6049 -27.52496,5.55938c-10.13651,-0.05307 -29.6369,-5.85866 -29.6369,-5.85866l-6.58409,-3.29205l2.99277,-5.38698z" fill="#251375" stroke="#000000" stroke-width="0" stroke-linecap="round"/><g stroke-linecap="butt"><path d="M286.35186,319.07226l15.14285,-131.8421l37.78325,-0.15789l13.57389,132z" fill="#1c19ee" stroke="#000000" stroke-width="0"/><path d="M292.44624,265.508c2.68827,-23.40563 9.04847,-78.27784 9.04847,-78.27784l37.78325,-0.15789c0,0 5.71636,55.07295 8.12401,78.48629c0.01436,0.13966 -54.97581,0.12422 -54.95573,-0.05056z" fill="#1815bf" stroke="#000000" stroke-width="0"/><path d="M293.56364,256.29001c2.58099,-22.4716 8.53049,-69.05985 8.53049,-69.05985l37.78325,-0.15789c0,0 4.24282,47.05732 6.5846,69.83005c0.00407,0.03958 -52.91685,-0.45117 -52.89834,-0.61231z" fill="#1c0072" stroke="#000000" stroke-width="0"/><path d="M294.20505,245.4867c2.36047,-20.55158 7.28967,-58.25653 7.28967,-58.25653l37.78325,-0.15789c0,0 3.98836,38.78497 6.13101,59.62138c0.01596,0.15516 -51.22768,-1.0002 -51.20393,-1.20695z" fill="#110042" stroke="#000000" stroke-width="0"/><path d="M297.31707,243.63711c0.9665,0 1.75,0.7835 1.75,1.75c0,0.9665 -0.7835,1.75 -1.75,1.75c-0.30408,0 -0.59004,-0.07755 -0.83919,-0.21396c-0.24915,0.13641 -0.53511,0.21396 -0.83919,0.21396c-0.9665,0 -1.75,-0.7835 -1.75,-1.75c0,-0.9665 0.7835,-1.75 1.75,-1.75c0.30408,0 0.59004,0.07755 0.83919,0.21396c0.24915,-0.13641 0.53511,-0.21396 0.83919,-0.21396z" fill="#110042" stroke="none" stroke-width="0.5"/><path d="M304.86977,247.59618c-0.26262,0 -0.50632,-0.08099 -0.70749,-0.21934c-0.00394,0.00003 -0.00787,0.00004 -0.01182,0.00004c-0.66142,0 -1.23714,-0.36694 -1.53469,-0.90836c-0.31293,0.47499 -0.85106,0.78847 -1.46241,0.78847c-0.9665,0 -1.75,-0.7835 -1.75,-1.75c0,-0.9665 0.7835,-1.75 1.75,-1.75c0.66142,0 1.23714,0.36694 1.53469,0.90836c0.31293,-0.47499 0.85106,-0.78847 1.46241,-0.78847c0.47768,0 0.91066,0.19139 1.22644,0.50167c0.21217,-0.09139 0.44602,-0.14201 0.6917,-0.14201c0.9665,0 1.75,0.7835 1.75,1.75c0,0.9665 -0.7835,1.75 -1.75,1.75c-0.29401,0 -0.57108,-0.0725 -0.81432,-0.20061c-0.12114,0.03912 -0.25036,0.06026 -0.38452,0.06026z" fill="#110042" stroke="none" stroke-width="0.5"/><path d="M309.25433,248.26433c0,-0.24704 0.07166,-0.47734 0.19533,-0.67124c-0.62073,-0.2689 -1.05498,-0.88701 -1.05498,-1.60655c0,-0.9665 0.7835,-1.75 1.75,-1.75c0.9665,0 1.75,0.7835 1.75,1.75c0,0.52353 -0.22989,0.99337 -0.59423,1.31407c0.27723,0.22928 0.45388,0.57587 0.45388,0.96373c0,0.69036 -0.55964,1.25 -1.25,1.25c-0.69036,0 -1.25,-0.55964 -1.25,-1.25z" fill="#110042" stroke="none" stroke-width="0.5"/><path d="M312.23096,246.34618c0,-0.9665 0.7835,-1.75 1.75,-1.75c0.9665,0 1.75,0.7835 1.75,1.75c0,0.9665 -0.7835,1.75 -1.75,1.75c-0.9665,0 -1.75,-0.7835 -1.75,-1.75z" fill="#110042" stroke="none" stroke-width="0.5"/><path d="M316.54679,246.70583c0,-0.9665 0.7835,-1.75 1.75,-1.75c0.9665,0 1.75,0.7835 1.75,1.75c0,0.9665 -0.7835,1.75 -1.75,1.75c-0.9665,0 -1.75,-0.7835 -1.75,-1.75z" fill="#110042" stroke="none" stroke-width="0.5"/><path d="M321.00297,247.90467c0,-0.33427 0.13121,-0.6379 0.34494,-0.86219c0.0727,-0.89967 0.82586,-1.60712 1.74425,-1.60712c0.9665,0 1.75,0.7835 1.75,1.75c0,0.9665 -0.7835,1.75 -1.75,1.75c-0.04215,0 -0.08396,-0.00149 -0.12537,-0.00442c-0.20238,0.14103 -0.44844,0.22373 -0.71382,0.22373c-0.69036,0 -1.25,-0.55964 -1.25,-1.25z" fill="#110042" stroke="none" stroke-width="0.5"/><path d="M324.8188,247.66491c0,-0.9665 0.7835,-1.75 1.75,-1.75c0.9665,0 1.75,0.7835 1.75,1.75c0,0.9665 -0.7835,1.75 -1.75,1.75c-0.9665,0 -1.75,-0.7835 -1.75,-1.75z" fill="#110042" stroke="none" stroke-width="0.5"/><path d="M292.68985,257.01587c0,-0.9665 0.7835,-1.75 1.75,-1.75c0.9665,0 1.75,0.7835 1.75,1.75c0,0.9665 -0.7835,1.75 -1.75,1.75c-0.9665,0 -1.75,-0.7835 -1.75,-1.75z" fill="#1c0072" stroke="none" stroke-width="0.5"/><path d="M297.00568,256.65621c0,-0.9665 0.7835,-1.75 1.75,-1.75c0.9665,0 1.75,0.7835 1.75,1.75c0,0.9665 -0.7835,1.75 -1.75,1.75c-0.9665,0 -1.75,-0.7835 -1.75,-1.75z" fill="#1c0072" stroke="none" stroke-width="0.5"/><path d="M302.52035,256.65621c0,-0.9665 0.7835,-1.75 1.75,-1.75c0.9665,0 1.75,0.7835 1.75,1.75c0,0.9665 -0.7835,1.75 -1.75,1.75c-0.9665,0 -1.75,-0.7835 -1.75,-1.75z" fill="#1c0072" stroke="none" stroke-width="0.5"/><path d="M312.90201,256.12552c0.69036,0 1.25,0.55964 1.25,1.25c0,0.69036 -0.55964,1.25 -1.25,1.25c-0.29701,0 -0.56983,-0.10359 -0.78429,-0.27661c-0.30541,0.26003 -0.70131,0.41696 -1.13385,0.41696c-0.9665,0 -1.75,-0.7835 -1.75,-1.75c0,-0.9665 0.7835,-1.75 1.75,-1.75c0.6653,0 1.24389,0.37126 1.5399,0.9179c0.11932,-0.03784 0.2464,-0.05825 0.37825,-0.05825z" fill="#1c0072" stroke="none" stroke-width="0.5"/><path d="M315.96784,259.29366c0,-0.53514 0.33628,-0.99174 0.80906,-1.17001c-0.14641,-0.25582 -0.2301,-0.55215 -0.2301,-0.86802c0,-0.9665 0.7835,-1.75 1.75,-1.75c0.9665,0 1.75,0.7835 1.75,1.75c0,0.92058 -0.71082,1.67514 -1.61355,1.74476c0.02262,0.09406 0.03459,0.19227 0.03459,0.29327c0,0.69036 -0.55964,1.25 -1.25,1.25c-0.69036,0 -1.25,-0.55964 -1.25,-1.25z" fill="#1c0072" stroke="none" stroke-width="0.5"/><path d="M320.98251,257.37552c0,-0.9665 0.7835,-1.75 1.75,-1.75c0.9665,0 1.75,0.7835 1.75,1.75c0,0.9665 -0.7835,1.75 -1.75,1.75c-0.9665,0 -1.75,-0.7835 -1.75,-1.75z" fill="#1c0072" stroke="none" stroke-width="0.5"/><path d="M327.21648,257.61529c0,-0.9665 0.7835,-1.75 1.75,-1.75c0.9665,0 1.75,0.7835 1.75,1.75c0,0.9665 -0.7835,1.75 -1.75,1.75c-0.9665,0 -1.75,-0.7835 -1.75,-1.75z" fill="#1c0072" stroke="none" stroke-width="0.5"/><path d="M333.45045,257.73517c0,-0.9665 0.7835,-1.75 1.75,-1.75c0.9665,0 1.75,0.7835 1.75,1.75c0,0.9665 -0.7835,1.75 -1.75,1.75c-0.9665,0 -1.75,-0.7835 -1.75,-1.75z" fill="#1c0072" stroke="none" stroke-width="0.5"/><path d="M338.91686,259.70448c-0.6377,0 -1.16387,-0.47753 -1.24042,-1.09451c-0.31493,-0.31645 -0.50958,-0.75271 -0.50958,-1.23444c0,-0.9665 0.7835,-1.75 1.75,-1.75c0.9665,0 1.75,0.7835 1.75,1.75c0,0.48173 -0.19464,0.91799 -0.50958,1.23444c-0.07655,0.61698 -0.60272,1.09451 -1.24042,1.09451z" fill="#1c0072" stroke="none" stroke-width="0.5"/><path d="M344.55141,255.38575c0.9665,0 1.75,0.7835 1.75,1.75c0,0.9665 -0.7835,1.75 -1.75,1.75c-0.41782,0 -0.80145,-0.14643 -1.10235,-0.39077c-0.27062,0.17155 -0.59155,0.27088 -0.93568,0.27088c-0.9665,0 -1.75,-0.7835 -1.75,-1.75c0,-0.9665 0.7835,-1.75 1.75,-1.75c0.41782,0 0.80145,0.14643 1.10235,0.39077c0.27062,-0.17155 0.59155,-0.27088 0.93568,-0.27088z" fill="#1c0072" stroke="none" stroke-width="0.5"/><path d="M328.3159,247.06548c0,-0.68593 0.5525,-1.24283 1.23675,-1.24993c0.28494,-0.58022 0.8817,-0.97961 1.57174,-0.97961c0.77321,0 1.4293,0.50145 1.66079,1.19689c0.19278,-0.75696 0.87899,-1.31678 1.69596,-1.31678c0.71758,0 1.33428,0.43189 1.60435,1.04991c0.31969,-0.41951 0.82461,-0.69026 1.39276,-0.69026c0.50831,0 0.96601,0.21672 1.28573,0.56281c0.31152,-0.48288 0.85423,-0.80257 1.47161,-0.80257c0.70841,0 1.31851,0.42093 1.59383,1.02632c0.24592,-0.66898 0.88875,-1.1462 1.64304,-1.1462c0.9665,0 1.75,0.7835 1.75,1.75c0,0.9665 -0.7835,1.75 -1.75,1.75c-0.70841,0 -1.31851,-0.42093 -1.59383,-1.02632c-0.24592,0.66898 -0.88875,1.1462 -1.64304,1.1462c-0.50831,0 -0.96601,-0.21672 -1.28573,-0.56281c-0.31152,0.48288 -0.85423,0.80257 -1.47161,0.80257c-0.71758,0 -1.33428,-0.43189 -1.60435,-1.04991c-0.31969,0.41951 -0.82461,0.69026 -1.39276,0.69026c-0.77321,0 -1.4293,-0.50145 -1.66079,-1.19689c-0.19278,0.75696 -0.87899,1.31678 -1.69596,1.31678c-0.31528,0 -0.61108,-0.08337 -0.86657,-0.22927c-0.19812,0.13193 -0.43604,0.20881 -0.69192,0.20881c-0.69036,0 -1.25,-0.55964 -1.25,-1.25z" fill="#110042" stroke="none" stroke-width="0.5"/><path d="M292.68985,265.76741c0,-0.9665 0.7835,-1.75 1.75,-1.75c0.9665,0 1.75,0.7835 1.75,1.75c0,0.9665 -0.7835,1.75 -1.75,1.75c-0.9665,0 -1.75,-0.7835 -1.75,-1.75z" fill="#1815bf" stroke="none" stroke-width="0.5"/><path d="M302.90047,267.92532c0,-0.17789 0.03716,-0.3471 0.10414,-0.50029c-0.43869,-0.31799 -0.72402,-0.8346 -0.72402,-1.41785c0,-0.9665 0.7835,-1.75 1.75,-1.75c0.9665,0 1.75,0.7835 1.75,1.75c0,0.50479 -0.21372,0.95966 -0.55562,1.27905c0.11147,0.18701 0.1755,0.40557 0.1755,0.63909c0,0.69036 -0.55964,1.25 -1.25,1.25c-0.69036,0 -1.25,-0.55964 -1.25,-1.25z" fill="#1815bf" stroke="none" stroke-width="0.5"/><path d="M308.17537,267.44578c0,-0.03049 0.00109,-0.06073 0.00324,-0.09068c-0.3112,-0.31592 -0.50324,-0.74955 -0.50324,-1.22804c0,-0.87967 0.64905,-1.60774 1.49438,-1.73146c0.321,-0.37806 0.79977,-0.61796 1.33458,-0.61796c0.81991,0 1.50813,0.56386 1.69803,1.32497c0.3179,-0.43956 0.83503,-0.72555 1.41896,-0.72555c0.9665,0 1.75,0.7835 1.75,1.75c0,0.9665 -0.7835,1.75 -1.75,1.75c-0.81991,0 -1.50813,-0.56386 -1.69803,-1.32497c-0.27063,0.37419 -0.68564,0.6371 -1.16334,0.70701c-0.02809,0.03308 -0.05738,0.0651 -0.08782,0.096c0.00215,0.02995 0.00324,0.06019 0.00324,0.09068c0,0.69036 -0.55964,1.25 -1.25,1.25c-0.69036,0 -1.25,-0.55964 -1.25,-1.25z" fill="#1815bf" stroke="none" stroke-width="0.5"/><path d="M321.22227,266.48671c0,-0.9665 0.7835,-1.75 1.75,-1.75c0.9665,0 1.75,0.7835 1.75,1.75c0,0.9665 -0.7835,1.75 -1.75,1.75c-0.9665,0 -1.75,-0.7835 -1.75,-1.75z" fill="#1815bf" stroke="none" stroke-width="0.5"/><path d="M332.32323,268.3566c-0.9665,0 -1.75,-0.7835 -1.75,-1.75c0,-0.9665 0.7835,-1.75 1.75,-1.75c0.25842,0 0.50376,0.05601 0.72453,0.15656c0.21972,-0.71542 0.8857,-1.23552 1.67315,-1.23552c0.9665,0 1.75,0.7835 1.75,1.75c0,0.9665 -0.7835,1.75 -1.75,1.75c-0.25842,0 -0.50376,-0.05601 -0.72453,-0.15656c-0.21972,0.71542 -0.8857,1.23552 -1.67315,1.23552z" fill="#1815bf" stroke="none" stroke-width="0.5"/><path d="M338.12593,266.84636c0,-0.9665 0.7835,-1.75 1.75,-1.75c0.9665,0 1.75,0.7835 1.75,1.75c0,0.9665 -0.7835,1.75 -1.75,1.75c-0.9665,0 -1.75,-0.7835 -1.75,-1.75z" fill="#1815bf" stroke="none" stroke-width="0.5"/><path d="M325.89775,266.24694c0,-0.9665 0.7835,-1.75 1.75,-1.75c0.9665,0 1.75,0.7835 1.75,1.75c0,0.9665 -0.7835,1.75 -1.75,1.75c-0.9665,0 -1.75,-0.7835 -1.75,-1.75z" fill="#1815bf" stroke="none" stroke-width="0.5"/><path d="M296.52615,266.00717c0,-0.9665 0.7835,-1.75 1.75,-1.75c0.9665,0 1.75,0.7835 1.75,1.75c0,0.9665 -0.7835,1.75 -1.75,1.75c-0.9665,0 -1.75,-0.7835 -1.75,-1.75z" fill="#1815bf" stroke="none" stroke-width="0.5"/><path d="M342.82188,266.72648c0,-0.39183 0.18029,-0.74156 0.46244,-0.97075c-0.22764,-0.29538 -0.36302,-0.66552 -0.36302,-1.06728c0,-0.9665 0.7835,-1.75 1.75,-1.75c0.9665,0 1.75,0.7835 1.75,1.75c0,0.75996 -0.48441,1.40677 -1.1613,1.64852c0.04016,0.12258 0.06188,0.25351 0.06188,0.38951c0,0.69036 -0.55964,1.25 -1.25,1.25c-0.69036,0 -1.25,-0.55964 -1.25,-1.25z" fill="#1815bf" stroke="none" stroke-width="0.5"/><path d="M296.42673,250.78189c0,-0.69036 0.55964,-1.25 1.25,-1.25c0.69036,0 1.25,0.55964 1.25,1.25c0,0.69036 -0.55964,1.25 -1.25,1.25c-0.69036,0 -1.25,-0.55964 -1.25,-1.25z" fill="#110042" stroke="none" stroke-width="0.5"/><path d="M311.65201,250.18247c0,-0.69036 0.55964,-1.25 1.25,-1.25c0.69036,0 1.25,0.55964 1.25,1.25c0,0.69036 -0.55964,1.25 -1.25,1.25c-0.69036,0 -1.25,-0.55964 -1.25,-1.25z" fill="#110042" stroke="none" stroke-width="0.5"/><path d="M317.16668,250.42224c0,-0.69036 0.55964,-1.25 1.25,-1.25c0.69036,0 1.25,0.55964 1.25,1.25c0,0.69036 -0.55964,1.25 -1.25,1.25c-0.69036,0 -1.25,-0.55964 -1.25,-1.25z" fill="#110042" stroke="none" stroke-width="0.5"/><path d="M335.26918,250.30236c0,-0.69036 0.55964,-1.25 1.25,-1.25c0.69036,0 1.25,0.55964 1.25,1.25c0,0.69036 -0.55964,1.25 -1.25,1.25c-0.69036,0 -1.25,-0.55964 -1.25,-1.25z" fill="#110042" stroke="none" stroke-width="0.5"/><path d="M298.70452,261.57146c0,-0.69036 0.55964,-1.25 1.25,-1.25c0.69036,0 1.25,0.55964 1.25,1.25c0,0.69036 -0.55964,1.25 -1.25,1.25c-0.69036,0 -1.25,-0.55964 -1.25,-1.25z" fill="#1c0072" stroke="none" stroke-width="0.5"/><path d="M306.01745,257.4954c0,-0.69036 0.55964,-1.25 1.25,-1.25c0.69036,0 1.25,0.55964 1.25,1.25c0,0.69036 -0.55964,1.25 -1.25,1.25c-0.69036,0 -1.25,-0.55964 -1.25,-1.25z" fill="#1c0072" stroke="none" stroke-width="0.5"/><path d="M322.80123,261.69135c0,-0.69036 0.55964,-1.25 1.25,-1.25c0.69036,0 1.25,0.55964 1.25,1.25c0,0.69036 -0.55964,1.25 -1.25,1.25c-0.69036,0 -1.25,-0.55964 -1.25,-1.25z" fill="#1c0072" stroke="none" stroke-width="0.5"/><path d="M327.35683,262.051c0,-0.69036 0.55964,-1.25 1.25,-1.25c0.69036,0 1.25,0.55964 1.25,1.25c0,0.69036 -0.55964,1.25 -1.25,1.25c-0.69036,0 -1.25,-0.55964 -1.25,-1.25z" fill="#1c0072" stroke="none" stroke-width="0.5"/><path d="M330.95335,261.45158c0,-0.69036 0.55964,-1.25 1.25,-1.25c0.69036,0 1.25,0.55964 1.25,1.25c0,0.69036 -0.55964,1.25 -1.25,1.25c-0.69036,0 -1.25,-0.55964 -1.25,-1.25z" fill="#1c0072" stroke="none" stroke-width="0.5"/><path d="M297.02615,270.08323c0,-0.69036 0.55964,-1.25 1.25,-1.25c0.69036,0 1.25,0.55964 1.25,1.25c0,0.69036 -0.55964,1.25 -1.25,1.25c-0.69036,0 -1.25,-0.55964 -1.25,-1.25z" fill="#1815bf" stroke="none" stroke-width="0.5"/><path d="M316.56726,266.72648c0,-0.69036 0.55964,-1.25 1.25,-1.25c0.69036,0 1.25,0.55964 1.25,1.25c0,0.69036 -0.55964,1.25 -1.25,1.25c-0.69036,0 -1.25,-0.55964 -1.25,-1.25z" fill="#1815bf" stroke="none" stroke-width="0.5"/><path d="M319.08482,269.12416c0,-0.69036 0.55964,-1.25 1.25,-1.25c0.69036,0 1.25,0.55964 1.25,1.25c0,0.69036 -0.55964,1.25 -1.25,1.25c-0.69036,0 -1.25,-0.55964 -1.25,-1.25z" fill="#1815bf" stroke="none" stroke-width="0.5"/><path d="M324.23984,269.96335c0,-0.69036 0.55964,-1.25 1.25,-1.25c0.69036,0 1.25,0.55964 1.25,1.25c0,0.69036 -0.55964,1.25 -1.25,1.25c-0.69036,0 -1.25,-0.55964 -1.25,-1.25z" fill="#1815bf" stroke="none" stroke-width="0.5"/><path d="M329.63462,270.323c0,-0.69036 0.55964,-1.25 1.25,-1.25c0.69036,0 1.25,0.55964 1.25,1.25c0,0.69036 -0.55964,1.25 -1.25,1.25c-0.69036,0 -1.25,-0.55964 -1.25,-1.25z" fill="#1815bf" stroke="none" stroke-width="0.5"/><path d="M336.5879,269.36393c0,-0.69036 0.55964,-1.25 1.25,-1.25c0.69036,0 1.25,0.55964 1.25,1.25c0,0.69036 -0.55964,1.25 -1.25,1.25c-0.69036,0 -1.25,-0.55964 -1.25,-1.25z" fill="#1815bf" stroke="none" stroke-width="0.5"/><path d="M299.08464,254.13865c0,-0.41421 0.33579,-0.75 0.75,-0.75c0.41421,0 0.75,0.33579 0.75,0.75c0,0.41421 -0.33579,0.75 -0.75,0.75c-0.41421,0 -0.75,-0.33579 -0.75,-0.75z" fill="#110042" stroke="none" stroke-width="0.5"/><path d="M305.07885,250.66201c0,-0.41421 0.33579,-0.75 0.75,-0.75c0.41421,0 0.75,0.33579 0.75,0.75c0,0.41421 -0.33579,0.75 -0.75,0.75c-0.41421,0 -0.75,-0.33579 -0.75,-0.75z" fill="#110042" stroke="none" stroke-width="0.5"/><path d="M311.67247,253.17957c0,-0.41421 0.33579,-0.75 0.75,-0.75c0.41421,0 0.75,0.33579 0.75,0.75c0,0.41421 -0.33579,0.75 -0.75,0.75c-0.41421,0 -0.75,-0.33579 -0.75,-0.75z" fill="#110042" stroke="none" stroke-width="0.5"/><path d="M320.06436,253.89888c0,-0.41421 0.33579,-0.75 0.75,-0.75c0.41421,0 0.75,0.33579 0.75,0.75c0,0.41421 -0.33579,0.75 -0.75,0.75c-0.41421,0 -0.75,-0.33579 -0.75,-0.75z" fill="#110042" stroke="none" stroke-width="0.5"/><path d="M337.92709,256.05679c0,-0.41421 0.33579,-0.75 0.75,-0.75c0.41421,0 0.75,0.33579 0.75,0.75c0,0.41421 -0.33579,0.75 -0.75,0.75c-0.41421,0 -0.75,-0.33579 -0.75,-0.75z" fill="#110042" stroke="none" stroke-width="0.5"/><path d="M303.76012,262.53054c0,-0.41421 0.33579,-0.75 0.75,-0.75c0.41421,0 0.75,0.33579 0.75,0.75c0,0.41421 -0.33579,0.75 -0.75,0.75c-0.41421,0 -0.75,-0.33579 -0.75,-0.75z" fill="#1c0072" stroke="none" stroke-width="0.5"/><path d="M321.02343,264.20891c0,-0.41421 0.33579,-0.75 0.75,-0.75c0.41421,0 0.75,0.33579 0.75,0.75c0,0.41421 -0.33579,0.75 -0.75,0.75c-0.41421,0 -0.75,-0.33579 -0.75,-0.75z" fill="#1c0072" stroke="none" stroke-width="0.5"/><path d="M323.90065,265.0481c0,-0.41421 0.33579,-0.75 0.75,-0.75c0.41421,0 0.75,0.33579 0.75,0.75c0,0.41421 -0.33579,0.75 -0.75,0.75c-0.41421,0 -0.75,-0.33579 -0.75,-0.75z" fill="#1c0072" stroke="none" stroke-width="0.5"/><path d="M329.65509,264.20891c0,-0.41421 0.33579,-0.75 0.75,-0.75c0.41421,0 0.75,0.33579 0.75,0.75c0,0.41421 -0.33579,0.75 -0.75,0.75c-0.41421,0 -0.75,-0.33579 -0.75,-0.75z" fill="#1c0072" stroke="none" stroke-width="0.5"/><path d="M337.56744,263.24984c0,-0.41421 0.33579,-0.75 0.75,-0.75c0.41421,0 0.75,0.33579 0.75,0.75c0,0.41421 -0.33579,0.75 -0.75,0.75c-0.41421,0 -0.75,-0.33579 -0.75,-0.75z" fill="#1c0072" stroke="none" stroke-width="0.5"/><path d="M342.48269,261.93111c0,-0.41421 0.33579,-0.75 0.75,-0.75c0.41421,0 0.75,0.33579 0.75,0.75c0,0.41421 -0.33579,0.75 -0.75,0.75c-0.41421,0 -0.75,-0.33579 -0.75,-0.75z" fill="#1c0072" stroke="none" stroke-width="0.5"/><path d="M305.55838,270.92242c0,-0.41421 0.33579,-0.75 0.75,-0.75c0.41421,0 0.75,0.33579 0.75,0.75c0,0.41421 -0.33579,0.75 -0.75,0.75c-0.41421,0 -0.75,-0.33579 -0.75,-0.75z" fill="#1815bf" stroke="none" stroke-width="0.5"/><path d="M315.86842,275.71779c0,-0.41421 0.33579,-0.75 0.75,-0.75c0.41421,0 0.75,0.33579 0.75,0.75c0,0.41421 -0.33579,0.75 -0.75,0.75c-0.41421,0 -0.75,-0.33579 -0.75,-0.75z" fill="#1815bf" stroke="none" stroke-width="0.5"/><path d="M323.78077,274.39906c0,-0.41421 0.33579,-0.75 0.75,-0.75c0.41421,0 0.75,0.33579 0.75,0.75c0,0.41421 -0.33579,0.75 -0.75,0.75c-0.41421,0 -0.75,-0.33579 -0.75,-0.75z" fill="#1815bf" stroke="none" stroke-width="0.5"/><path d="M331.21358,273.43999c0,-0.41421 0.33579,-0.75 0.75,-0.75c0.41421,0 0.75,0.33579 0.75,0.75c0,0.41421 -0.33579,0.75 -0.75,0.75c-0.41421,0 -0.75,-0.33579 -0.75,-0.75z" fill="#1815bf" stroke="none" stroke-width="0.5"/><path d="M340.80431,273.32011c0,-0.41421 0.33579,-0.75 0.75,-0.75c0.41421,0 0.75,0.33579 0.75,0.75c0,0.41421 -0.33579,0.75 -0.75,0.75c-0.41421,0 -0.75,-0.33579 -0.75,-0.75z" fill="#1815bf" stroke="none" stroke-width="0.5"/></g><g stroke="#000000" stroke-linecap="round"><path d="M346.32908,201.92287l6.2192,36.16355l-3.22477,-3.68546l-0.69102,13.59012l-4.14614,-2.99444l-2.30341,9.21364l-8.06194,-13.12944l-2.99443,4.60682l-13.59012,-13.12944l0.92136,-26.48922z" fill="#2f1894" stroke-width="0"/><path d="M322.60395,207.45105l-0.92136,23.03411l-11.05637,12.66876l-1.84273,-8.75296l-9.21364,13.12944l-5.0675,-7.14057l-3.22478,3.22477l5.29784,-42.15241l25.7982,4.37648" fill="#2f1894" stroke-width="0"/><path d="M328.36248,228.18174l-15.20251,-1.38204" fill="none" stroke-width="2"/><path d="M318.89754,233.71042l4.73083,-28.70034" fill="none" stroke-width="1"/><path d="M326.98043,223.11424l-8.29228,-1.15171" fill="none" stroke-width="2"/><path d="M328.13213,215.51298l-8.9833,-0.23034" fill="none" stroke-width="2"/><path d="M325.59838,211.59719l-4.83716,0.23034" fill="none" stroke-width="2"/></g></g><path d="M214.52362,122.5036v-83.61608h213.18203v267.72501h-213.18203v-169.22364" fill="none" stroke="none" stroke-width="0" stroke-linecap="butt"/><path d="" fill="none" stroke="#000000" stroke-width="2" stroke-linecap="round"/><path d="M377.99956,128.95641c0.9665,0 1.75,0.7835 1.75,1.75c0,0.9665 -0.7835,1.75 -1.75,1.75c-0.23169,0 -0.45287,-0.04503 -0.65526,-0.12681c-0.20239,0.08178 -0.42357,0.12681 -0.65526,0.12681c-0.9665,0 -1.75,-0.7835 -1.75,-1.75c0,-0.9665 0.7835,-1.75 1.75,-1.75c0.23169,0 0.45287,0.04503 0.65526,0.12681c0.20239,-0.08178 0.42357,-0.12681 0.65526,-0.12681z" fill="#1815bf" stroke="none" stroke-width="0.5" stroke-linecap="butt"/><path d="M375.62626,135.38684c0,-0.69036 0.55964,-1.25 1.25,-1.25c0.69036,0 1.25,0.55964 1.25,1.25c0,0.69036 -0.55964,1.25 -1.25,1.25c-0.69036,0 -1.25,-0.55964 -1.25,-1.25z" fill="#1815bf" stroke="none" stroke-width="0.5" stroke-linecap="butt"/><g><path d="M217.72072,144.97946c0.57311,-17.73449 14.0435,-36.84013 14.0435,-36.84013c0,0 12.65294,18.99246 19.48524,21.2887c6.02514,2.02497 11.00071,-6.80391 12.45208,-9.29222c11.25621,-19.29814 33.43992,-32.02871 58.50908,-31.15398c35.45556,1.23715 63.25654,29.22011 62.09524,62.5017c-1.1613,33.28159 -30.8451,59.25876 -66.30065,58.02163c-21.53168,-0.7513 -40.24038,-11.36638 -51.3539,-27.04182c-2.46708,-3.47978 -11.14436,-13.35654 -18.84526,-13.6474c-8.07649,-0.30503 -24.5015,8.06329 -24.5015,8.06329c0,0 -6.04027,-17.77511 -5.58383,-31.89975z" fill="#1c19ee" stroke="#000000" stroke-width="0" stroke-linecap="butt"/><path d="M251.24946,129.42803c1.61486,0.54273 3.15434,0.30578 4.57076,-0.37982c3.86832,-1.8724 6.81893,-7.091 7.88131,-8.91239c11.25621,-19.29814 33.43992,-32.02871 58.50908,-31.15398c28.86795,1.00729 52.6615,19.74499 59.87976,44.63696c0.11219,0.38686 -131.98546,-4.57541 -130.84094,-4.19075z" fill="#1815bf" stroke="#000000" stroke-width="0" stroke-linecap="butt"/><path d="M263.70155,120.1358c11.25621,-19.29814 33.43992,-32.02871 58.50908,-31.15398c25.11451,0.87631 46.38839,15.17214 56.24882,35.26509c0.03658,0.07454 -115.04561,-3.61789 -114.75791,-4.11111z" fill="#1c0072" stroke="#000000" stroke-width="0" stroke-linecap="butt"/><path d="M272.11028,108.96859c12.23898,-12.85483 30.26661,-20.67882 50.10035,-19.98677c20.18062,0.70415 37.88142,10.07306 49.17332,24.15198c0.20963,0.26137 -100.35582,-2.69172 -100.05727,-3.09861c0.37962,-0.51737 0.78177,-1.06467 0.78359,-1.06659z" fill="#110042" stroke="#000000" stroke-width="0" stroke-linecap="butt"/><path d="M304.60133,199.03675l6.04692,-14.77028" fill="none" stroke="#1714b7" stroke-width="1" stroke-linecap="round"/><path d="M338.20265,200.43969l-6.14568,-15.4262" fill="none" stroke="#1714b7" stroke-width="1" stroke-linecap="round"/><path d="M317.83525,196.27178l0.09639,-2.7624" fill="none" stroke="#1714b7" stroke-width="1" stroke-linecap="round"/><path d="M328.56103,192.72787l2.62586,4.0098" fill="none" stroke="#1714b7" stroke-width="1" stroke-linecap="round"/><path d="M222.17376,126.12444c4.1173,-10.2223 9.59046,-17.98511 9.59046,-17.98511c0,0 12.65294,18.99246 19.48524,21.2887c0.6581,0.22118 -29.56569,-0.44856 -29.83309,-0.4965c-0.03976,-0.00712 0.73912,-2.76172 0.7574,-2.8071z" fill="#1815bf" stroke="#000000" stroke-width="0" stroke-linecap="butt"/><path d="M226.62124,116.67322c2.7849,-5.18934 5.14299,-8.53392 5.14299,-8.53392c0,0 2.66829,4.0052 6.21586,8.55942c0.1694,0.21747 -11.47999,0.20022 -11.35884,-0.0255z" fill="#1c0072" stroke="#000000" stroke-width="0" stroke-linecap="butt"/><path d="M271.70565,110.75743c0.0337,-0.96591 0.84406,-1.72162 1.80996,-1.68791c0.96591,0.0337 1.72162,0.84406 1.68791,1.80996c-0.0337,0.96591 -0.84406,1.72162 -1.80996,1.68791c-0.96591,-0.0337 -1.72162,-0.84406 -1.68791,-1.80996z" fill="#110042" stroke="none" stroke-width="0.5" stroke-linecap="butt"/><path d="M275.99596,111.2818c0.0337,-0.96591 0.84406,-1.72162 1.80996,-1.68791c0.96591,0.0337 1.72162,0.84406 1.68791,1.80996c-0.0337,0.96591 -0.84406,1.72162 -1.80996,1.68791c-0.96591,-0.0337 -1.72162,-0.84406 -1.68791,-1.80996z" fill="#110042" stroke="none" stroke-width="0.5" stroke-linecap="butt"/><path d="M281.23485,111.46459c0.0337,-0.96591 0.84406,-1.72162 1.80996,-1.68791c0.96591,0.0337 1.72162,0.84406 1.68791,1.80996c-0.0337,0.96591 -0.84406,1.72162 -1.80996,1.68791c-0.96591,-0.0337 -1.72162,-0.84406 -1.68791,-1.80996z" fill="#110042" stroke="none" stroke-width="0.5" stroke-linecap="butt"/><path d="M287.22217,111.6735c0.0337,-0.96591 0.84406,-1.72162 1.80996,-1.68791c0.96591,0.0337 1.72162,0.84406 1.68791,1.80996c-0.0337,0.96591 -0.84406,1.72162 -1.80996,1.68791c-0.96591,-0.0337 -1.72162,-0.84406 -1.68791,-1.80996z" fill="#110042" stroke="none" stroke-width="0.5" stroke-linecap="butt"/><path d="M292.86139,111.12095c0.0337,-0.96591 0.84406,-1.72162 1.80996,-1.68791c0.96591,0.0337 1.72162,0.84406 1.68791,1.80996c-0.0337,0.96591 -0.84406,1.72162 -1.80996,1.68791c-0.96591,-0.0337 -1.72162,-0.84406 -1.68791,-1.80996z" fill="#110042" stroke="none" stroke-width="0.5" stroke-linecap="butt"/><path d="M296.42288,111.05789c0.0337,-0.96591 0.84406,-1.72162 1.80996,-1.68791c0.96591,0.0337 1.72162,0.84406 1.68791,1.80996c-0.0337,0.96591 -0.84406,1.72162 -1.80996,1.68791c-0.96591,-0.0337 -1.72162,-0.84406 -1.68791,-1.80996z" fill="#110042" stroke="none" stroke-width="0.5" stroke-linecap="butt"/><path d="M305.40384,111.37127c0.0337,-0.96591 0.84406,-1.72162 1.80996,-1.68791c0.96591,0.0337 1.72162,0.84406 1.68791,1.80996c-0.0337,0.96591 -0.84406,1.72162 -1.80996,1.68791c-0.96591,-0.0337 -1.72162,-0.84406 -1.68791,-1.80996z" fill="#110042" stroke="none" stroke-width="0.5" stroke-linecap="butt"/><path d="M316.06874,111.7434c0.0337,-0.96591 0.84406,-1.72162 1.80996,-1.68791c0.96591,0.0337 1.72162,0.84406 1.68791,1.80996c-0.0337,0.96591 -0.84406,1.72162 -1.80996,1.68791c-0.96591,-0.0337 -1.72162,-0.84406 -1.68791,-1.80996z" fill="#110042" stroke="none" stroke-width="0.5" stroke-linecap="butt"/><path d="M319.95946,111.87915c0.02407,-0.68994 0.6029,-1.22972 1.29283,-1.20565c0.10746,0.00375 0.21127,0.02097 0.3099,0.04995c0.31553,-0.53359 0.90533,-0.88251 1.56846,-0.85937c0.96591,0.0337 1.72162,0.84406 1.68791,1.80996c-0.0337,0.96591 -0.84406,1.72162 -1.80996,1.68791c-0.4123,-0.01438 -0.78632,-0.17027 -1.07697,-0.41937c-0.21575,0.15319 -0.48166,0.23935 -0.76652,0.22941c-0.68994,-0.02407 -1.22972,-0.6029 -1.20565,-1.29283z" fill="#110042" stroke="none" stroke-width="0.5" stroke-linecap="butt"/><path d="M331.05006,111.89147c0.0337,-0.96591 0.84406,-1.72162 1.80996,-1.68791c0.96591,0.0337 1.72162,0.84406 1.68791,1.80996c-0.0337,0.96591 -0.84406,1.72162 -1.80996,1.68791c-0.96591,-0.0337 -1.72162,-0.84406 -1.68791,-1.80996z" fill="#110042" stroke="none" stroke-width="0.5" stroke-linecap="butt"/><path d="M334.99229,111.65436c0.0337,-0.96591 0.84406,-1.72162 1.80996,-1.68791c0.96591,0.0337 1.72162,0.84406 1.68791,1.80996c-0.0337,0.96591 -0.84406,1.72162 -1.80996,1.68791c-0.96591,-0.0337 -1.72162,-0.84406 -1.68791,-1.80996z" fill="#110042" stroke="none" stroke-width="0.5" stroke-linecap="butt"/><path d="M339.30219,111.6174c0.0337,-0.96591 0.84406,-1.72162 1.80996,-1.68791c0.96591,0.0337 1.72162,0.84406 1.68791,1.80996c-0.0337,0.96591 -0.84406,1.72162 -1.80996,1.68791c-0.96591,-0.0337 -1.72162,-0.84406 -1.68791,-1.80996z" fill="#110042" stroke="none" stroke-width="0.5" stroke-linecap="butt"/><path d="M346.97342,111.88508c0.0337,-0.96591 0.84406,-1.72162 1.80996,-1.68791c0.96591,0.0337 1.72162,0.84406 1.68791,1.80996c-0.0337,0.96591 -0.84406,1.72162 -1.80996,1.68791c-0.96591,-0.0337 -1.72162,-0.84406 -1.68791,-1.80996z" fill="#110042" stroke="none" stroke-width="0.5" stroke-linecap="butt"/><path d="M359.41563,111.50481c0.96591,0.0337 1.72162,0.84406 1.68791,1.80996c-0.0337,0.96591 -0.84406,1.72162 -1.80996,1.68791c-0.52129,-0.01819 -0.98136,-0.26259 -1.28914,-0.63555c-0.33303,0.35061 -0.80903,0.56235 -1.3303,0.54416c-0.96591,-0.0337 -1.72162,-0.84406 -1.68791,-1.80996c0.0337,-0.96591 0.84406,-1.72162 1.80996,-1.68791c0.52129,0.01819 0.98136,0.26259 1.28914,0.63555c0.33303,-0.35061 0.80903,-0.56235 1.3303,-0.54416z" fill="#110042" stroke="none" stroke-width="0.5" stroke-linecap="butt"/><path d="M366.70535,112.63415c0.68994,0.02407 1.22972,0.6029 1.20565,1.29283c-0.02407,0.68994 -0.6029,1.22972 -1.29283,1.20565c-0.44274,-0.01545 -0.82365,-0.25932 -1.0334,-0.61443c-0.33379,0.41571 -0.85271,0.67426 -1.42651,0.65425c-0.96591,-0.0337 -1.72162,-0.84406 -1.68791,-1.80996c0.0337,-0.96591 0.84406,-1.72162 1.80996,-1.68791c0.76231,0.0266 1.39366,0.53693 1.60942,1.22568c0.22388,-0.17597 0.50875,-0.27681 0.81561,-0.26611z" fill="#110042" stroke="none" stroke-width="0.5" stroke-linecap="butt"/><path d="M263.50129,120.39971c0.0337,-0.96591 0.84406,-1.72162 1.80996,-1.68791c0.96591,0.0337 1.72162,0.84406 1.68791,1.80996c-0.0337,0.96591 -0.84406,1.72162 -1.80996,1.68791c-0.96591,-0.0337 -1.72162,-0.84406 -1.68791,-1.80996z" fill="#1c0072" stroke="none" stroke-width="0.5" stroke-linecap="butt"/><path d="M276.08008,121.1549c0.21891,-0.75001 0.92435,-1.28578 1.74098,-1.25727c0.96591,0.0337 1.72162,0.84406 1.68791,1.80996c-0.0337,0.96591 -0.84406,1.72162 -1.80996,1.68791c-0.16003,-0.00558 -0.3143,-0.03249 -0.46016,-0.07788c-0.2267,0.1856 -0.51925,0.29274 -0.83506,0.28171c-0.48636,-0.01697 -0.89812,-0.30962 -1.09032,-0.72254c-0.31743,0.26 -0.72712,0.41011 -1.16943,0.39467c-0.96591,-0.0337 -1.72162,-0.84406 -1.68791,-1.80996c0.0337,-0.96591 0.84406,-1.72162 1.80996,-1.68791c0.83921,0.02927 1.51973,0.64482 1.66173,1.43929c0.04916,-0.0225 0.09999,-0.04191 0.15226,-0.05798z" fill="#1c0072" stroke="none" stroke-width="0.5" stroke-linecap="butt"/><path d="M286.30337,122.69399c-0.02407,0.68994 -0.6029,1.22972 -1.29283,1.20565c-0.37929,-0.01323 -0.71317,-0.19411 -0.93297,-0.46894c-0.0035,-0.00011 -0.007,-0.00021 -0.01052,-0.00035c-0.96591,-0.0337 -1.72162,-0.84406 -1.68791,-1.80996c0.0337,-0.96591 0.84406,-1.72162 1.80996,-1.68791c0.95512,0.03333 1.7047,0.82605 1.68875,1.77765c0.27234,0.23886 0.43913,0.59359 0.42552,0.98385z" fill="#1c0072" stroke="none" stroke-width="0.5" stroke-linecap="butt"/><path d="M293.95347,121.34305c0.28734,-0.61866 0.92436,-1.03759 1.64893,-1.01231c0.96591,0.0337 1.72162,0.84406 1.68791,1.80996c-0.0337,0.96591 -0.84406,1.72162 -1.80996,1.68791c-0.26864,-0.00937 -0.52104,-0.07883 -0.74468,-0.19499c-0.20914,0.13797 -0.46165,0.21458 -0.73111,0.20519c-0.50551,-0.01764 -0.93042,-0.33308 -1.11197,-0.77184c-0.32263,0.50283 -0.89464,0.82747 -1.53502,0.80512c-0.96591,-0.0337 -1.72162,-0.84406 -1.68791,-1.80996c0.0337,-0.96591 0.84406,-1.72162 1.80996,-1.68791c0.81459,0.02842 1.47968,0.60921 1.64785,1.36984c0.20916,-0.22754 0.50114,-0.37674 0.82601,-0.40101z" fill="#1c0072" stroke="none" stroke-width="0.5" stroke-linecap="butt"/><path d="M305.05782,121.28774c0.0337,-0.96591 0.84406,-1.72162 1.80996,-1.68791c0.96591,0.0337 1.72162,0.84406 1.68791,1.80996c-0.0337,0.96591 -0.84406,1.72162 -1.80996,1.68791c-0.96591,-0.0337 -1.72162,-0.84406 -1.68791,-1.80996z" fill="#1c0072" stroke="none" stroke-width="0.5" stroke-linecap="butt"/><path d="M311.8066,121.14856c0.0337,-0.96591 0.84406,-1.72162 1.80996,-1.68791c0.96591,0.0337 1.72162,0.84406 1.68791,1.80996c-0.0337,0.96591 -0.84406,1.72162 -1.80996,1.68791c-0.96591,-0.0337 -1.72162,-0.84406 -1.68791,-1.80996z" fill="#1c0072" stroke="none" stroke-width="0.5" stroke-linecap="butt"/><path d="M324.89729,121.79266c0.0337,-0.96591 0.84406,-1.72162 1.80996,-1.68791c0.96591,0.0337 1.72162,0.84406 1.68791,1.80996c-0.0337,0.96591 -0.84406,1.72162 -1.80996,1.68791c-0.96591,-0.0337 -1.72162,-0.84406 -1.68791,-1.80996z" fill="#1c0072" stroke="none" stroke-width="0.5" stroke-linecap="butt"/><path d="M328.34203,123.9735c0.0215,-0.61628 0.48562,-1.11276 1.0762,-1.19459c-0.03363,-0.14593 -0.04896,-0.29859 -0.0435,-0.45538c0.0337,-0.96591 0.84406,-1.72162 1.80996,-1.68791c0.96591,0.0337 1.72162,0.84406 1.68791,1.80996c-0.0337,0.96591 -0.84406,1.72162 -1.80996,1.68791c-0.07639,-0.00267 -0.15145,-0.01019 -0.22492,-0.02226c-0.04981,0.66555 -0.61708,1.17856 -1.29005,1.15508c-0.68994,-0.02407 -1.22972,-0.6029 -1.20565,-1.29283z" fill="#1c0072" stroke="none" stroke-width="0.5" stroke-linecap="butt"/><path d="M337.45785,125.79022c0.02407,-0.68994 0.6029,-1.22972 1.29283,-1.20565c0.00857,0.00029 0.01714,0.00069 0.02567,0.00115c-0.06683,-0.19584 -0.09979,-0.40693 -0.09216,-0.62603c0.0337,-0.96591 0.84406,-1.72162 1.80996,-1.68791c0.96591,0.0337 1.72162,0.84406 1.68791,1.80996c-0.0337,0.96591 -0.84406,1.72162 -1.80996,1.68791c-0.14603,-0.0051 -0.28727,-0.02794 -0.42169,-0.06639c0.00591,0.05705 0.00799,0.11518 0.00593,0.17414c-0.02407,0.68994 -0.6029,1.22972 -1.29283,1.20565c-0.68994,-0.02407 -1.22972,-0.6029 -1.20565,-1.29283z" fill="#1c0072" stroke="none" stroke-width="0.5" stroke-linecap="butt"/><path d="M345.27702,127.18705c0.01859,-0.53261 0.36779,-0.97575 0.84348,-1.13908c-0.65628,-0.27086 -1.10753,-0.92797 -1.08132,-1.67919c0.0337,-0.96591 0.84406,-1.72162 1.80996,-1.68791c0.96591,0.0337 1.72162,0.84406 1.68791,1.80996c-0.02871,0.82287 -0.62106,1.49316 -1.39306,1.65281c0.39107,0.22268 0.64828,0.64962 0.63149,1.13059c-0.02407,0.68994 -0.6029,1.22972 -1.29283,1.20565c-0.68994,-0.02407 -1.22972,-0.6029 -1.20565,-1.29283z" fill="#1c0072" stroke="none" stroke-width="0.5" stroke-linecap="butt"/><path d="M349.91693,124.16433c0.0337,-0.96591 0.84406,-1.72162 1.80996,-1.68791c0.96591,0.0337 1.72162,0.84406 1.68791,1.80996c-0.0337,0.96591 -0.84406,1.72162 -1.80996,1.68791c-0.96591,-0.0337 -1.72162,-0.84406 -1.68791,-1.80996z" fill="#1c0072" stroke="none" stroke-width="0.5" stroke-linecap="butt"/><path d="M362.61152,121.91954c0.96591,0.0337 1.72162,0.84406 1.68791,1.80996c-0.0337,0.96591 -0.84406,1.72162 -1.80996,1.68791c-0.80162,-0.02797 -1.45846,-0.59086 -1.63945,-1.33364c-0.23232,0.72836 -0.9268,1.24411 -1.72843,1.21614c-0.96591,-0.0337 -1.72162,-0.84406 -1.68791,-1.80996c0.0337,-0.96591 0.84406,-1.72162 1.80996,-1.68791c0.80162,0.02797 1.45846,0.59086 1.63945,1.33364c0.23232,-0.72836 0.9268,-1.24411 1.72843,-1.21614z" fill="#1c0072" stroke="none" stroke-width="0.5" stroke-linecap="butt"/><path d="M371.37927,122.9748c0.96591,0.0337 1.72162,0.84406 1.68791,1.80996c-0.0337,0.96591 -0.84406,1.72162 -1.80996,1.68791c-0.61762,-0.02155 -1.14928,-0.36063 -1.4436,-0.85487c-0.31649,0.25668 -0.72356,0.4046 -1.16278,0.38926c-0.96591,-0.0337 -1.72162,-0.84406 -1.68791,-1.80996c0.0337,-0.96591 0.84406,-1.72162 1.80996,-1.68791c0.61762,0.02155 1.14928,0.36063 1.4436,0.85487c0.31649,-0.25668 0.72356,-0.4046 1.16278,-0.38926z" fill="#1c0072" stroke="none" stroke-width="0.5" stroke-linecap="butt"/><path d="M374.44705,124.45825c0.0337,-0.96591 0.84406,-1.72162 1.80996,-1.68791c0.96591,0.0337 1.72162,0.84406 1.68791,1.80996c-0.0337,0.96591 -0.84406,1.72162 -1.80996,1.68791c-0.96591,-0.0337 -1.72162,-0.84406 -1.68791,-1.80996z" fill="#1c0072" stroke="none" stroke-width="0.5" stroke-linecap="butt"/><path d="M235.4954,115.79813c0.96591,0.0337 1.72162,0.84406 1.68791,1.80996c-0.0337,0.96591 -0.84406,1.72162 -1.80996,1.68791c-0.56477,-0.01971 -1.05768,-0.30494 -1.36294,-0.73153c-0.28974,0.6126 -0.9235,1.0264 -1.64377,1.00127c-0.88262,-0.0308 -1.58972,-0.71007 -1.67939,-1.56395c-0.27316,0.65134 -0.92768,1.09833 -1.67541,1.07225c-0.96591,-0.0337 -1.72162,-0.84406 -1.68791,-1.80996c0.0337,-0.96591 0.84406,-1.72162 1.80996,-1.68791c0.88262,0.0308 1.58972,0.71007 1.67939,1.56395c0.27316,-0.65134 0.92768,-1.09833 1.67541,-1.07225c0.56477,0.01971 1.05768,0.30494 1.36294,0.73153c0.28974,-0.6126 0.9235,-1.0264 1.64377,-1.00127z" fill="#1c0072" stroke="none" stroke-width="0.5" stroke-linecap="butt"/><path d="M257.93303,130.32129c0.0337,-0.96591 0.84406,-1.72162 1.80996,-1.68791c0.96591,0.0337 1.72162,0.84406 1.68791,1.80996c-0.0337,0.96591 -0.84406,1.72162 -1.80996,1.68791c-0.96591,-0.0337 -1.72162,-0.84406 -1.68791,-1.80996z" fill="#1815bf" stroke="none" stroke-width="0.5" stroke-linecap="butt"/><path d="M263.57876,129.58164c0.0337,-0.96591 0.84406,-1.72162 1.80996,-1.68791c0.96591,0.0337 1.72162,0.84406 1.68791,1.80996c-0.0337,0.96591 -0.84406,1.72162 -1.80996,1.68791c-0.96591,-0.0337 -1.72162,-0.84406 -1.68791,-1.80996z" fill="#1815bf" stroke="none" stroke-width="0.5" stroke-linecap="butt"/><path d="M270.8758,129.83626c0.0337,-0.96591 0.84406,-1.72162 1.80996,-1.68791c0.96591,0.0337 1.72162,0.84406 1.68791,1.80996c-0.0337,0.96591 -0.84406,1.72162 -1.80996,1.68791c-0.96591,-0.0337 -1.72162,-0.84406 -1.68791,-1.80996z" fill="#1815bf" stroke="none" stroke-width="0.5" stroke-linecap="butt"/><path d="M280.03082,130.53037c0.0337,-0.96591 0.84406,-1.72162 1.80996,-1.68791c0.96591,0.0337 1.72162,0.84406 1.68791,1.80996c-0.0337,0.96591 -0.84406,1.72162 -1.80996,1.68791c-0.96591,-0.0337 -1.72162,-0.84406 -1.68791,-1.80996z" fill="#1815bf" stroke="none" stroke-width="0.5" stroke-linecap="butt"/><path d="M309.21893,131.54881c0.0337,-0.96591 0.84406,-1.72162 1.80996,-1.68791c0.96591,0.0337 1.72162,0.84406 1.68791,1.80996c-0.0337,0.96591 -0.84406,1.72162 -1.80996,1.68791c-0.96591,-0.0337 -1.72162,-0.84406 -1.68791,-1.80996z" fill="#1815bf" stroke="none" stroke-width="0.5" stroke-linecap="butt"/><path d="M313.96978,133.21323c0.02332,-0.6685 0.56746,-1.19602 1.22885,-1.20626c-0.00001,-0.02064 0.00037,-0.04135 0.00109,-0.06214c0.0337,-0.96591 0.84406,-1.72162 1.80996,-1.68791c0.96591,0.0337 1.72162,0.84406 1.68791,1.80996c-0.0337,0.96591 -0.84406,1.72162 -1.80996,1.68791c-0.1702,-0.00594 -0.33386,-0.03598 -0.48783,-0.08675c-0.17536,0.50403 -0.66308,0.85761 -1.22438,0.83801c-0.68994,-0.02407 -1.22972,-0.6029 -1.20565,-1.29283z" fill="#1815bf" stroke="none" stroke-width="0.5" stroke-linecap="butt"/><path d="M320.0644,132.11459c0.0337,-0.96591 0.84406,-1.72162 1.80996,-1.68791c0.96591,0.0337 1.72162,0.84406 1.68791,1.80996c-0.0337,0.96591 -0.84406,1.72162 -1.80996,1.68791c-0.96591,-0.0337 -1.72162,-0.84406 -1.68791,-1.80996z" fill="#1815bf" stroke="none" stroke-width="0.5" stroke-linecap="butt"/><path d="M329.41958,132.44101c0.0337,-0.96591 0.84406,-1.72162 1.80996,-1.68791c0.96591,0.0337 1.72162,0.84406 1.68791,1.80996c-0.0337,0.96591 -0.84406,1.72162 -1.80996,1.68791c-0.96591,-0.0337 -1.72162,-0.84406 -1.68791,-1.80996z" fill="#1815bf" stroke="none" stroke-width="0.5" stroke-linecap="butt"/><path d="M365.89167,134.08828c0.0337,-0.96591 0.84406,-1.72162 1.80996,-1.68791c0.96591,0.0337 1.72162,0.84406 1.68791,1.80996c-0.0337,0.96591 -0.84406,1.72162 -1.80996,1.68791c-0.96591,-0.0337 -1.72162,-0.84406 -1.68791,-1.80996z" fill="#1815bf" stroke="none" stroke-width="0.5" stroke-linecap="butt"/><path d="M370.67517,134.81718c0.02407,-0.68994 0.6029,-1.22972 1.29283,-1.20565c0.23442,0.00818 0.45152,0.0804 0.63504,0.19927c0.29112,-0.60905 0.92296,-1.01986 1.64069,-0.99482c0.96591,0.0337 1.72162,0.84406 1.68791,1.80996c-0.0337,0.96591 -0.84406,1.72162 -1.80996,1.68791c-0.51107,-0.01783 -0.96331,-0.25309 -1.27089,-0.61379c-0.23862,0.26312 -0.58719,0.42334 -0.96998,0.40996c-0.68994,-0.02407 -1.22972,-0.6029 -1.20565,-1.29283z" fill="#1815bf" stroke="none" stroke-width="0.5" stroke-linecap="butt"/><path d="M221.62845,129.24186c0.0337,-0.96591 0.84406,-1.72162 1.80996,-1.68791c0.96591,0.0337 1.72162,0.84406 1.68791,1.80996c-0.0337,0.96591 -0.84406,1.72162 -1.80996,1.68791c-0.96591,-0.0337 -1.72162,-0.84406 -1.68791,-1.80996z" fill="#1815bf" stroke="none" stroke-width="0.5" stroke-linecap="butt"/><path d="M232.50004,129.05921c0.0337,-0.96591 0.84406,-1.72162 1.80996,-1.68791c0.96591,0.0337 1.72162,0.84406 1.68791,1.80996c-0.0337,0.96591 -0.84406,1.72162 -1.80996,1.68791c-0.96591,-0.0337 -1.72162,-0.84406 -1.68791,-1.80996z" fill="#1815bf" stroke="none" stroke-width="0.5" stroke-linecap="butt"/><path d="M237.53223,129.79678c0.0337,-0.96591 0.84406,-1.72162 1.80996,-1.68791c0.96591,0.0337 1.72162,0.84406 1.68791,1.80996c-0.0337,0.96591 -0.84406,1.72162 -1.80996,1.68791c-0.96591,-0.0337 -1.72162,-0.84406 -1.68791,-1.80996z" fill="#1815bf" stroke="none" stroke-width="0.5" stroke-linecap="butt"/><path d="M247.0069,128.56366c0.96591,0.0337 1.72162,0.84406 1.68791,1.80996c-0.0337,0.96591 -0.84406,1.72162 -1.80996,1.68791c-0.12844,-0.00448 -0.25316,-0.02269 -0.3728,-0.05318c-0.12147,0.02208 -0.24717,0.03154 -0.37561,0.02707c-0.96591,-0.0337 -1.72162,-0.84406 -1.68791,-1.80996c0.0337,-0.96591 0.84406,-1.72162 1.80996,-1.68791c0.12844,0.00448 0.25316,0.02269 0.3728,0.05318c0.12147,-0.02208 0.24717,-0.03154 0.37561,-0.02707z" fill="#1815bf" stroke="none" stroke-width="0.5" stroke-linecap="butt"/><path d="M276.21422,114.66137c0.02407,-0.68994 0.6029,-1.22972 1.29283,-1.20565c0.68994,0.02407 1.22972,0.6029 1.20565,1.29283c-0.02407,0.68994 -0.6029,1.22972 -1.29283,1.20565c-0.68994,-0.02407 -1.22972,-0.6029 -1.20565,-1.29283z" fill="#110042" stroke="none" stroke-width="0.5" stroke-linecap="butt"/><path d="M301.53193,113.85879c0.02407,-0.68994 0.6029,-1.22972 1.29283,-1.20565c0.68994,0.02407 1.22972,0.6029 1.20565,1.29283c-0.02407,0.68994 -0.6029,1.22972 -1.29283,1.20565c-0.68994,-0.02407 -1.22972,-0.6029 -1.20565,-1.29283z" fill="#110042" stroke="none" stroke-width="0.5" stroke-linecap="butt"/><path d="M310.02994,111.90735c0.02407,-0.68994 0.6029,-1.22972 1.29283,-1.20565c0.68994,0.02407 1.22972,0.6029 1.20565,1.29283c-0.02407,0.68994 -0.6029,1.22972 -1.29283,1.20565c-0.68994,-0.02407 -1.22972,-0.6029 -1.20565,-1.29283z" fill="#110042" stroke="none" stroke-width="0.5" stroke-linecap="butt"/><path d="M328.32036,113.85686c0.02407,-0.68994 0.6029,-1.22972 1.29283,-1.20565c0.68994,0.02407 1.22972,0.6029 1.20565,1.29283c-0.02407,0.68994 -0.6029,1.22972 -1.29283,1.20565c-0.68994,-0.02407 -1.22972,-0.6029 -1.20565,-1.29283z" fill="#110042" stroke="none" stroke-width="0.5" stroke-linecap="butt"/><path d="M340.08175,115.01659c0.02407,-0.68994 0.6029,-1.22972 1.29283,-1.20565c0.68994,0.02407 1.22972,0.6029 1.20565,1.29283c-0.02407,0.68994 -0.6029,1.22972 -1.29283,1.20565c-0.68994,-0.02407 -1.22972,-0.6029 -1.20565,-1.29283z" fill="#110042" stroke="none" stroke-width="0.5" stroke-linecap="butt"/><path d="M347.92703,115.665c0.02407,-0.68994 0.6029,-1.22972 1.29283,-1.20565c0.68994,0.02407 1.22972,0.6029 1.20565,1.29283c-0.02407,0.68994 -0.6029,1.22972 -1.29283,1.20565c-0.68994,-0.02407 -1.22972,-0.6029 -1.20565,-1.29283z" fill="#110042" stroke="none" stroke-width="0.5" stroke-linecap="butt"/><path d="M356.13347,116.70065c0.02407,-0.68994 0.6029,-1.22972 1.29283,-1.20565c0.68994,0.02407 1.22972,0.6029 1.20565,1.29283c-0.02407,0.68994 -0.6029,1.22972 -1.29283,1.20565c-0.68994,-0.02407 -1.22972,-0.6029 -1.20565,-1.29283z" fill="#110042" stroke="none" stroke-width="0.5" stroke-linecap="butt"/><path d="M267.8554,123.3616c0.02407,-0.68994 0.6029,-1.22972 1.29283,-1.20565c0.68994,0.02407 1.22972,0.6029 1.20565,1.29283c-0.02407,0.68994 -0.6029,1.22972 -1.29283,1.20565c-0.68994,-0.02407 -1.22972,-0.6029 -1.20565,-1.29283z" fill="#1c0072" stroke="none" stroke-width="0.5" stroke-linecap="butt"/><path d="M301.32732,125.09152c0.02407,-0.68994 0.6029,-1.22972 1.29283,-1.20565c0.68994,0.02407 1.22972,0.6029 1.20565,1.29283c-0.02407,0.68994 -0.6029,1.22972 -1.29283,1.20565c-0.68994,-0.02407 -1.22972,-0.6029 -1.20565,-1.29283z" fill="#1c0072" stroke="none" stroke-width="0.5" stroke-linecap="butt"/><path d="M308.01733,126.63628c0.02407,-0.68994 0.6029,-1.22972 1.29283,-1.20565c0.68994,0.02407 1.22972,0.6029 1.20565,1.29283c-0.02407,0.68994 -0.6029,1.22972 -1.29283,1.20565c-0.68994,-0.02407 -1.22972,-0.6029 -1.20565,-1.29283z" fill="#1c0072" stroke="none" stroke-width="0.5" stroke-linecap="butt"/><path d="M315.46453,122.58752c0.02407,-0.68994 0.6029,-1.22972 1.29283,-1.20565c0.68994,0.02407 1.22972,0.6029 1.20565,1.29283c-0.02407,0.68994 -0.6029,1.22972 -1.29283,1.20565c-0.68994,-0.02407 -1.22972,-0.6029 -1.20565,-1.29283z" fill="#1c0072" stroke="none" stroke-width="0.5" stroke-linecap="butt"/><path d="M360.57379,129.03211c0.02407,-0.68994 0.6029,-1.22972 1.29283,-1.20565c0.68994,0.02407 1.22972,0.6029 1.20565,1.29283c-0.02407,0.68994 -0.6029,1.22972 -1.29283,1.20565c-0.68994,-0.02407 -1.22972,-0.6029 -1.20565,-1.29283z" fill="#1c0072" stroke="none" stroke-width="0.5" stroke-linecap="butt"/><path d="M372.00017,129.05616c0.02407,-0.68994 0.6029,-1.22972 1.29283,-1.20565c0.68994,0.02407 1.22972,0.6029 1.20565,1.29283c-0.02407,0.68994 -0.6029,1.22972 -1.29283,1.20565c-0.68994,-0.02407 -1.22972,-0.6029 -1.20565,-1.29283z" fill="#1c0072" stroke="none" stroke-width="0.5" stroke-linecap="butt"/><path d="M227.48025,120.82881c0.02407,-0.68994 0.6029,-1.22972 1.29283,-1.20565c0.68994,0.02407 1.22972,0.6029 1.20565,1.29283c-0.02407,0.68994 -0.6029,1.22972 -1.29283,1.20565c-0.68994,-0.02407 -1.22972,-0.6029 -1.20565,-1.29283z" fill="#1c0072" stroke="none" stroke-width="0.5" stroke-linecap="butt"/><path d="M233.11293,120.46336c0.02407,-0.68994 0.6029,-1.22972 1.29283,-1.20565c0.68994,0.02407 1.22972,0.6029 1.20565,1.29283c-0.02407,0.68994 -0.6029,1.22972 -1.29283,1.20565c-0.68994,-0.02407 -1.22972,-0.6029 -1.20565,-1.29283z" fill="#1c0072" stroke="none" stroke-width="0.5" stroke-linecap="butt"/><path d="M228.70286,128.73938c0.02407,-0.68994 0.6029,-1.22972 1.29283,-1.20565c0.68994,0.02407 1.22972,0.6029 1.20565,1.29283c-0.02407,0.68994 -0.6029,1.22972 -1.29283,1.20565c-0.68994,-0.02407 -1.22972,-0.6029 -1.20565,-1.29283z" fill="#1815bf" stroke="none" stroke-width="0.5" stroke-linecap="butt"/><path d="M230.65002,131.99194c0.02407,-0.68994 0.6029,-1.22972 1.29283,-1.20565c0.68994,0.02407 1.22972,0.6029 1.20565,1.29283c-0.02407,0.68994 -0.6029,1.22972 -1.29283,1.20565c-0.68994,-0.02407 -1.22972,-0.6029 -1.20565,-1.29283z" fill="#1815bf" stroke="none" stroke-width="0.5" stroke-linecap="butt"/><path d="M236.22396,133.31043c0.02407,-0.68994 0.6029,-1.22972 1.29283,-1.20565c0.68994,0.02407 1.22972,0.6029 1.20565,1.29283c-0.02407,0.68994 -0.6029,1.22972 -1.29283,1.20565c-0.68994,-0.02407 -1.22972,-0.6029 -1.20565,-1.29283z" fill="#1815bf" stroke="none" stroke-width="0.5" stroke-linecap="butt"/><path d="M238.8434,133.40183c0.02407,-0.68994 0.6029,-1.22972 1.29283,-1.20565c0.68994,0.02407 1.22972,0.6029 1.20565,1.29283c-0.02407,0.68994 -0.6029,1.22972 -1.29283,1.20565c-0.68994,-0.02407 -1.22972,-0.6029 -1.20565,-1.29283z" fill="#1815bf" stroke="none" stroke-width="0.5" stroke-linecap="butt"/><path d="M252.01899,131.61358c0.02407,-0.68994 0.6029,-1.22972 1.29283,-1.20565c0.68994,0.02407 1.22972,0.6029 1.20565,1.29283c-0.02407,0.68994 -0.6029,1.22972 -1.29283,1.20565c-0.68994,-0.02407 -1.22972,-0.6029 -1.20565,-1.29283z" fill="#1815bf" stroke="none" stroke-width="0.5" stroke-linecap="butt"/><path d="M268.34268,130.87186c0.02407,-0.68994 0.6029,-1.22972 1.29283,-1.20565c0.68994,0.02407 1.22972,0.6029 1.20565,1.29283c-0.02407,0.68994 -0.6029,1.22972 -1.29283,1.20565c-0.68994,-0.02407 -1.22972,-0.6029 -1.20565,-1.29283z" fill="#1815bf" stroke="none" stroke-width="0.5" stroke-linecap="butt"/><path d="M319.69817,135.47377c0.02407,-0.68994 0.6029,-1.22972 1.29283,-1.20565c0.68994,0.02407 1.22972,0.6029 1.20565,1.29283c-0.02407,0.68994 -0.6029,1.22972 -1.29283,1.20565c-0.68994,-0.02407 -1.22972,-0.6029 -1.20565,-1.29283z" fill="#1815bf" stroke="none" stroke-width="0.5" stroke-linecap="butt"/><path d="M323.25313,135.5978c0.02407,-0.68994 0.6029,-1.22972 1.29283,-1.20565c0.68994,0.02407 1.22972,0.6029 1.20565,1.29283c-0.02407,0.68994 -0.6029,1.22972 -1.29283,1.20565c-0.68994,-0.02407 -1.22972,-0.6029 -1.20565,-1.29283z" fill="#1815bf" stroke="none" stroke-width="0.5" stroke-linecap="butt"/><path d="M273.46135,116.62595c0.01445,-0.41396 0.36173,-0.73784 0.7757,-0.72339c0.41396,0.01445 0.73784,0.36173 0.72339,0.7757c-0.01445,0.41396 -0.36173,0.73784 -0.7757,0.72339c-0.41396,-0.01445 -0.73784,-0.36173 -0.72339,-0.7757z" fill="#110042" stroke="none" stroke-width="0.5" stroke-linecap="butt"/><path d="M276.79004,117.86609c0.01445,-0.41396 0.36173,-0.73784 0.7757,-0.72339c0.41396,0.01445 0.73784,0.36173 0.72339,0.7757c-0.01445,0.41396 -0.36173,0.73784 -0.7757,0.72339c-0.41396,-0.01445 -0.73784,-0.36173 -0.72339,-0.7757z" fill="#110042" stroke="none" stroke-width="0.5" stroke-linecap="butt"/><path d="M292.06292,115.02704c0.01445,-0.41396 0.36173,-0.73784 0.7757,-0.72339c0.41396,0.01445 0.73784,0.36173 0.72339,0.7757c-0.01445,0.41396 -0.36173,0.73784 -0.7757,0.72339c-0.41396,-0.01445 -0.73784,-0.36173 -0.72339,-0.7757z" fill="#110042" stroke="none" stroke-width="0.5" stroke-linecap="butt"/><path d="M306.43724,116.46526c0.01445,-0.41396 0.36173,-0.73784 0.7757,-0.72339c0.41396,0.01445 0.73784,0.36173 0.72339,0.7757c-0.01445,0.41396 -0.36173,0.73784 -0.7757,0.72339c-0.41396,-0.01445 -0.73784,-0.36173 -0.72339,-0.7757z" fill="#110042" stroke="none" stroke-width="0.5" stroke-linecap="butt"/><path d="M312.7661,117.62275c0.01445,-0.41396 0.36173,-0.73784 0.7757,-0.72339c0.41396,0.01445 0.73784,0.36173 0.72339,0.7757c-0.01445,0.41396 -0.36173,0.73784 -0.7757,0.72339c-0.41396,-0.01445 -0.73784,-0.36173 -0.72339,-0.7757z" fill="#110042" stroke="none" stroke-width="0.5" stroke-linecap="butt"/><path d="M321.92765,118.12976c0.01445,-0.41396 0.36173,-0.73784 0.7757,-0.72339c0.41396,0.01445 0.73784,0.36173 0.72339,0.7757c-0.01445,0.41396 -0.36173,0.73784 -0.7757,0.72339c-0.41396,-0.01445 -0.73784,-0.36173 -0.72339,-0.7757z" fill="#110042" stroke="none" stroke-width="0.5" stroke-linecap="butt"/><path d="M332.03123,118.4823c0.01445,-0.41396 0.36173,-0.73784 0.7757,-0.72339c0.41396,0.01445 0.73784,0.36173 0.72339,0.7757c-0.01445,0.41396 -0.36173,0.73784 -0.7757,0.72339c-0.41396,-0.01445 -0.73784,-0.36173 -0.72339,-0.7757z" fill="#110042" stroke="none" stroke-width="0.5" stroke-linecap="butt"/><path d="M342.50248,119.035c0.01445,-0.41396 0.36173,-0.73784 0.7757,-0.72339c0.41396,0.01445 0.73784,0.36173 0.72339,0.7757c-0.01445,0.41396 -0.36173,0.73784 -0.7757,0.72339c-0.41396,-0.01445 -0.73784,-0.36173 -0.72339,-0.7757z" fill="#110042" stroke="none" stroke-width="0.5" stroke-linecap="butt"/><path d="M350.67628,121.0062c0.01445,-0.41396 0.36173,-0.73784 0.7757,-0.72339c0.41396,0.01445 0.73784,0.36173 0.72339,0.7757c-0.01445,0.41396 -0.36173,0.73784 -0.7757,0.72339c-0.41396,-0.01445 -0.73784,-0.36173 -0.72339,-0.7757z" fill="#110042" stroke="none" stroke-width="0.5" stroke-linecap="butt"/><path d="M362.47031,121.23039c0.01445,-0.41396 0.36173,-0.73784 0.7757,-0.72339c0.41396,0.01445 0.73784,0.36173 0.72339,0.7757c-0.01445,0.41396 -0.36173,0.73784 -0.7757,0.72339c-0.41396,-0.01445 -0.73784,-0.36173 -0.72339,-0.7757z" fill="#110042" stroke="none" stroke-width="0.5" stroke-linecap="butt"/><path d="M225.77819,124.8907c0.01445,-0.41396 0.36173,-0.73784 0.7757,-0.72339c0.41396,0.01445 0.73784,0.36173 0.72339,0.7757c-0.01445,0.41396 -0.36173,0.73784 -0.7757,0.72339c-0.41396,-0.01445 -0.73784,-0.36173 -0.72339,-0.7757z" fill="#1c0072" stroke="none" stroke-width="0.5" stroke-linecap="butt"/><path d="M232.08746,126.60951c0.01445,-0.41396 0.36173,-0.73784 0.7757,-0.72339c0.41396,0.01445 0.73784,0.36173 0.72339,0.7757c-0.01445,0.41396 -0.36173,0.73784 -0.7757,0.72339c-0.41396,-0.01445 -0.73784,-0.36173 -0.72339,-0.7757z" fill="#1c0072" stroke="none" stroke-width="0.5" stroke-linecap="butt"/><path d="M236.86297,123.96615c0.01445,-0.41396 0.36173,-0.73784 0.7757,-0.72339c0.41396,0.01445 0.73784,0.36173 0.72339,0.7757c-0.01445,0.41396 -0.36173,0.73784 -0.7757,0.72339c-0.41396,-0.01445 -0.73784,-0.36173 -0.72339,-0.7757z" fill="#1c0072" stroke="none" stroke-width="0.5" stroke-linecap="butt"/><path d="M261.88261,126.33782c0.01445,-0.41396 0.36173,-0.73784 0.7757,-0.72339c0.41396,0.01445 0.73784,0.36173 0.72339,0.7757c-0.01445,0.41396 -0.36173,0.73784 -0.7757,0.72339c-0.41396,-0.01445 -0.73784,-0.36173 -0.72339,-0.7757z" fill="#1c0072" stroke="none" stroke-width="0.5" stroke-linecap="butt"/><path d="M266.53406,127.24944c0.01445,-0.41396 0.36173,-0.73784 0.7757,-0.72339c0.41396,0.01445 0.73784,0.36173 0.72339,0.7757c-0.01445,0.41396 -0.36173,0.73784 -0.7757,0.72339c-0.41396,-0.01445 -0.73784,-0.36173 -0.72339,-0.7757z" fill="#1c0072" stroke="none" stroke-width="0.5" stroke-linecap="butt"/><path d="M276.64418,127.41488c0.01445,-0.41396 0.36173,-0.73784 0.7757,-0.72339c0.41396,0.01445 0.73784,0.36173 0.72339,0.7757c-0.01445,0.41396 -0.36173,0.73784 -0.7757,0.72339c-0.41396,-0.01445 -0.73784,-0.36173 -0.72339,-0.7757z" fill="#1c0072" stroke="none" stroke-width="0.5" stroke-linecap="butt"/><path d="M284.54822,126.37936c0.01445,-0.41396 0.36173,-0.73784 0.7757,-0.72339c0.41396,0.01445 0.73784,0.36173 0.72339,0.7757c-0.01445,0.41396 -0.36173,0.73784 -0.7757,0.72339c-0.41396,-0.01445 -0.73784,-0.36173 -0.72339,-0.7757z" fill="#1c0072" stroke="none" stroke-width="0.5" stroke-linecap="butt"/><path d="M300.58689,128.43764c0.01445,-0.41396 0.36173,-0.73784 0.7757,-0.72339c0.41396,0.01445 0.73784,0.36173 0.72339,0.7757c-0.01445,0.41396 -0.36173,0.73784 -0.7757,0.72339c-0.41396,-0.01445 -0.73784,-0.36173 -0.72339,-0.7757z" fill="#1c0072" stroke="none" stroke-width="0.5" stroke-linecap="butt"/><path d="M302.61891,129.25788c0.01445,-0.41396 0.36173,-0.73784 0.7757,-0.72339c0.41396,0.01445 0.73784,0.36173 0.72339,0.7757c-0.01445,0.41396 -0.36173,0.73784 -0.7757,0.72339c-0.41396,-0.01445 -0.73784,-0.36173 -0.72339,-0.7757z" fill="#1c0072" stroke="none" stroke-width="0.5" stroke-linecap="butt"/><path d="M330.38202,128.16598c0.01445,-0.41396 0.36173,-0.73784 0.7757,-0.72339c0.41396,0.01445 0.73784,0.36173 0.72339,0.7757c-0.01445,0.41396 -0.36173,0.73784 -0.7757,0.72339c-0.41396,-0.01445 -0.73784,-0.36173 -0.72339,-0.7757z" fill="#1c0072" stroke="none" stroke-width="0.5" stroke-linecap="butt"/><path d="M338.20118,129.56278c0.01445,-0.41396 0.36173,-0.73784 0.7757,-0.72339c0.41396,0.01445 0.73784,0.36173 0.72339,0.7757c-0.01445,0.41396 -0.36173,0.73784 -0.7757,0.72339c-0.41396,-0.01445 -0.73784,-0.36173 -0.72339,-0.7757z" fill="#1c0072" stroke="none" stroke-width="0.5" stroke-linecap="butt"/><path d="M357.673,129.86756c0.01445,-0.41396 0.36173,-0.73784 0.7757,-0.72339c0.41396,0.01445 0.73784,0.36173 0.72339,0.7757c-0.01445,0.41396 -0.36173,0.73784 -0.7757,0.72339c-0.41396,-0.01445 -0.73784,-0.36173 -0.72339,-0.7757z" fill="#1c0072" stroke="none" stroke-width="0.5" stroke-linecap="butt"/><path d="M367.89186,132.28476c0.01445,-0.41396 0.36173,-0.73784 0.7757,-0.72339c0.41396,0.01445 0.73784,0.36173 0.72339,0.7757c-0.01445,0.41396 -0.36173,0.73784 -0.7757,0.72339c-0.41396,-0.01445 -0.73784,-0.36173 -0.72339,-0.7757z" fill="#1c0072" stroke="none" stroke-width="0.5" stroke-linecap="butt"/><path d="M319.64754,124.41944c0.01445,-0.41396 0.36173,-0.73784 0.7757,-0.72339c0.41396,0.01445 0.73784,0.36173 0.72339,0.7757c-0.01445,0.41396 -0.36173,0.73784 -0.7757,0.72339c-0.41396,-0.01445 -0.73784,-0.36173 -0.72339,-0.7757z" fill="#1c0072" stroke="none" stroke-width="0.5" stroke-linecap="butt"/><path d="M223.93534,134.75495c0.01445,-0.41396 0.36173,-0.73784 0.7757,-0.72339c0.41396,0.01445 0.73784,0.36173 0.72339,0.7757c-0.01445,0.41396 -0.36173,0.73784 -0.7757,0.72339c-0.41396,-0.01445 -0.73784,-0.36173 -0.72339,-0.7757z" fill="#1815bf" stroke="none" stroke-width="0.5" stroke-linecap="butt"/><path d="M233.21217,137.32662c0.01445,-0.41396 0.36173,-0.73784 0.7757,-0.72339c0.41396,0.01445 0.73784,0.36173 0.72339,0.7757c-0.01445,0.41396 -0.36173,0.73784 -0.7757,0.72339c-0.41396,-0.01445 -0.73784,-0.36173 -0.72339,-0.7757z" fill="#1815bf" stroke="none" stroke-width="0.5" stroke-linecap="butt"/><path d="M242.23883,136.33026c0.01445,-0.41396 0.36173,-0.73784 0.7757,-0.72339c0.41396,0.01445 0.73784,0.36173 0.72339,0.7757c-0.01445,0.41396 -0.36173,0.73784 -0.7757,0.72339c-0.41396,-0.01445 -0.73784,-0.36173 -0.72339,-0.7757z" fill="#1815bf" stroke="none" stroke-width="0.5" stroke-linecap="butt"/><path d="M247.34284,135.00972c0.01445,-0.41396 0.36173,-0.73784 0.7757,-0.72339c0.41396,0.01445 0.73784,0.36173 0.72339,0.7757c-0.01445,0.41396 -0.36173,0.73784 -0.7757,0.72339c-0.41396,-0.01445 -0.73784,-0.36173 -0.72339,-0.7757z" fill="#1815bf" stroke="none" stroke-width="0.5" stroke-linecap="butt"/><path d="M262.88548,135.17738c0.01445,-0.41396 0.36173,-0.73784 0.7757,-0.72339c0.41396,0.01445 0.73784,0.36173 0.72339,0.7757c-0.01445,0.41396 -0.36173,0.73784 -0.7757,0.72339c-0.41396,-0.01445 -0.73784,-0.36173 -0.72339,-0.7757z" fill="#1815bf" stroke="none" stroke-width="0.5" stroke-linecap="butt"/><path d="M315.8031,137.96048c0.01445,-0.41396 0.36173,-0.73784 0.7757,-0.72339c0.41396,0.01445 0.73784,0.36173 0.72339,0.7757c-0.01445,0.41396 -0.36173,0.73784 -0.7757,0.72339c-0.41396,-0.01445 -0.73784,-0.36173 -0.72339,-0.7757z" fill="#1815bf" stroke="none" stroke-width="0.5" stroke-linecap="butt"/><path d="M320.2087,140.54951c0.01445,-0.41396 0.36173,-0.73784 0.7757,-0.72339c0.41396,0.01445 0.73784,0.36173 0.72339,0.7757c-0.01445,0.41396 -0.36173,0.73784 -0.7757,0.72339c-0.41396,-0.01445 -0.73784,-0.36173 -0.72339,-0.7757z" fill="#1815bf" stroke="none" stroke-width="0.5" stroke-linecap="butt"/><path d="M371.59907,138.78337c0.01445,-0.41396 0.36173,-0.73784 0.7757,-0.72339c0.41396,0.01445 0.73784,0.36173 0.72339,0.7757c-0.01445,0.41396 -0.36173,0.73784 -0.7757,0.72339c-0.41396,-0.01445 -0.73784,-0.36173 -0.72339,-0.7757z" fill="#1815bf" stroke="none" stroke-width="0.5" stroke-linecap="butt"/><path d="M269.51919,147.75408c0.10799,-3.09482 0.8102,-6.02882 1.99316,-8.69615c3.77088,-8.5026 37.88024,-9.00507 41.79956,-2.24631c2.13901,3.68865 3.29969,8.00427 3.14002,12.58008c-0.20287,5.81393 -2.50279,11.06025 -6.1475,15.03739c-4.47989,4.88851 -31.24735,4.11748 -35.37686,-0.84749c-3.55806,-4.2779 -5.61768,-9.82914 -5.40838,-15.82752z" fill="#ffffff" stroke="#000000" stroke-width="0" stroke-linecap="butt"/><path d="M282.57961,147.53154c0.28941,-8.2946 7.24814,-14.78408 15.54274,-14.49465c8.2946,0.28941 14.78408,7.24815 14.49465,15.54276c-0.28941,8.2946 -7.24815,14.78409 -15.54275,14.49466c-8.2946,-0.28941 -14.78407,-7.24815 -14.49464,-15.54276z" fill="#000000" stroke="#000000" stroke-width="0" stroke-linecap="butt"/><path d="M330.01881,166.45776c-4.08626,-4.39268 -6.49989,-10.34207 -6.27415,-16.81157c0.17309,-4.9609 1.87304,-9.50853 4.63246,-13.20703c4.44943,-5.96371 34.52841,-4.94204 38.55746,1.28147c2.52155,3.89492 3.91691,8.57442 3.74283,13.56321c-0.21403,6.13402 -2.76242,11.63623 -6.76161,15.68265c-4.45042,4.50297 -29.79739,3.89831 -33.89699,-0.50869z" fill="#ffffff" stroke="#000000" stroke-width="0" stroke-linecap="butt"/><path d="M367.34715,148.41753c-0.28942,8.29462 -7.24814,14.78409 -15.54274,14.49466c-8.2946,-0.28941 -14.78407,-7.24817 -14.49465,-15.54276c0.28942,-8.29462 7.24816,-14.78408 15.54275,-14.49466c8.2946,0.28941 14.78406,7.24816 14.49464,15.54275z" fill="#1b1b1b" stroke="#000000" stroke-width="0" stroke-linecap="butt"/></g></g></g></svg>