<svg version="1.1" xmlns="http://www.w3.org/2000/svg" xmlns:xlink="http://www.w3.org/1999/xlink" width="213.18203" height="313.85761" viewBox="0,0,213.18203,313.85761"><defs><linearGradient x1="304.83259" y1="83.43683" x2="292.70448" y2="120.29557" gradientUnits="userSpaceOnUse" id="color-1"><stop offset="0" stop-color="#4a4a4a"/><stop offset="1" stop-color="#000000"/></linearGradient><linearGradient x1="362.93583" y1="92.05118" x2="345.282" y2="126.60549" gradientUnits="userSpaceOnUse" id="color-2"><stop offset="0" stop-color="#4a4a4a"/><stop offset="1" stop-color="#000000"/></linearGradient></defs><g transform="translate(-214.52362,-10.33983)"><g stroke-miterlimit="10"><path d="M406.43891,157.47967c-11.54302,27.02793 -54.65014,166.71777 -54.65014,166.71777l-71.66883,-0.60281c0,0 -33.58389,-135.65782 -45.52846,-164.15935c-4.38085,-10.45336 -1.39733,-21.37784 10.68167,-21.29328c36.66884,0.25673 114.76209,0.80348 147.85539,1.03517c3.11068,0.02177 9.63005,0.72218 12.70179,4.34484c2.87921,3.3956 2.48145,9.57236 0.60859,13.95764z" fill="#000000" stroke="#000000" stroke-width="0" stroke-linecap="butt"/><g fill="#ffffff" stroke="#000000" stroke-width="0"><path d="M323.3043,181.19463c0,0 0.66244,49.99706 0.42278,59.40753c-0.08568,3.36444 -1.96224,1.04131 -1.96224,1.04131l-2.36722,7.49883l-5.53896,-23.33998l4.01405,-44.3883z" stroke-linecap="round"/><path d="M327.85426,175.29903c0,2.49546 0.34227,5.12596 -0.96013,6.79608c-1.37775,1.76676 -4.45995,2.50221 -6.60883,2.50221c-1.83596,0 -4.09049,-0.25608 -5.40105,-1.59183c-1.6734,-1.70556 -2.1679,-4.8266 -2.1679,-7.70647c0,-2.63461 0.46352,-6.10722 1.89669,-7.79914c1.36032,-1.6059 3.63666,-1.49915 5.67226,-1.49915c2.39913,0 4.96598,0.09501 6.35271,2.23432c1.02948,1.5882 1.21625,4.87595 1.21625,7.06398z" stroke-linecap="butt"/></g><path d="M214.52362,306.27923v-267.72501h213.18203v267.72501z" fill="none" stroke="none" stroke-width="0" stroke-linecap="butt"/><path d="" fill="none" stroke="#000000" stroke-width="2" stroke-linecap="round"/><path d="M258.77319,97.82781c3.60888,-33.10572 35.12498,-56.82654 70.39316,-52.98194c35.2682,3.84461 60.93315,33.79877 57.32426,66.9045c-3.60888,33.10572 -35.12497,56.82656 -70.39317,52.98195c-35.26819,-3.84461 -60.93314,-33.79878 -57.32426,-66.90451z" fill="#000000" stroke="#000000" stroke-width="2" stroke-linecap="butt"/><path d="M290.18582,130.41982c0.10239,-0.05561 0.22793,-0.08134 0.38174,-0.05792c0.74558,0.11354 0.6643,1.15508 0.6643,1.15508l-0.06675,0.35917c0.17379,1.12162 1.30175,4.77356 0.71474,5.62532c-0.71979,1.04441 -3.36728,-0.70347 -3.66454,-1.75687c-0.26432,-0.93668 0.70893,-3.50904 0.77979,-4.56823c0,0 0.08128,-1.04153 0.82686,-0.92799c0.15381,0.02343 0.27243,0.08635 0.36385,0.17146z" fill="#ffffff" stroke="none" stroke-width="0.5" stroke-linecap="butt"/><path d="M303.2856,132.55611c0.58825,-0.37796 0.93366,0.43634 0.93366,0.43634l0.70012,1.69124c0.11002,1.06252 0.51532,3.49696 -0.23371,4.32433c-0.55331,0.61119 -2.64516,0.02237 -3.08323,-0.94982c-0.43538,-0.96621 0.1683,-3.98169 0.25899,-5.14376c0,0 0.08128,-1.04153 0.82686,-0.92799c0.35002,0.05331 0.51781,0.31113 0.59732,0.56969z" fill="#ffffff" stroke="none" stroke-width="0.5" stroke-linecap="butt"/><path d="M318.17829,132.79135c0.74558,0.11354 0.6643,1.15508 0.6643,1.15508l-0.10403,1.2606c0.07005,0.68263 0.90201,5.29125 0.73244,5.65588c-0.53634,1.15325 -3.34847,-0.09456 -3.71489,-0.76571c-0.45993,-0.84246 0.15972,-4.09447 0.24431,-5.17836c0,0 0.08128,-1.04153 0.82686,-0.92799c0.23012,0.03504 0.38147,0.1585 0.48075,0.31243l0.0434,-0.58392c0,0 0.08128,-1.04153 0.82686,-0.92799z" fill="#ffffff" stroke="none" stroke-width="0.5" stroke-linecap="butt"/><path d="M329.80581,135.78125c0.11866,-0.22235 0.32097,-0.41385 0.6634,-0.3617c0.74558,0.11354 0.6643,1.15508 0.6643,1.15508l-0.03965,0.01199c0.18019,1.16289 1.61049,4.78452 1.27348,5.59145c-0.64817,1.55201 -3.87945,-0.51919 -4.21012,-1.25017c-0.49351,-1.09097 0.38024,-3.22017 0.46392,-4.38456c0,0 0.08128,-1.04153 0.82686,-0.92799c0.15045,0.02291 0.26723,0.08361 0.35781,0.16592z" fill="#ffffff" stroke="none" stroke-width="0.5" stroke-linecap="butt"/><path d="M341.08352,136.71594c0.0785,-0.02196 0.16789,-0.02798 0.26967,-0.01247c0.52282,0.07963 0.63906,0.61555 0.66186,0.92869c0.96023,1.26819 2.28591,4.14225 1.15587,5.64788c-0.18664,0.24867 -3.90105,0.10775 -4.077,-0.1735c-0.64081,-1.02431 0.38818,-5.81263 0.55436,-7.08909c0,0 0.1342,-1.03079 0.87208,-0.84334c0.73789,0.18747 0.6037,1.21825 0.6037,1.21825c-0.01402,0.10769 -0.0275,0.21558 -0.04054,0.32359z" fill="#ffffff" stroke="none" stroke-width="0.5" stroke-linecap="butt"/><path d="M347.59726,134.66252c0.00785,-0.01266 0.01598,-0.02533 0.0244,-0.03804c0.50974,-0.76853 1.0599,-0.05645 1.0599,-0.05645l0.6763,0.90155c0.39695,1.15273 2.18749,4.60267 1.52336,6.02047c-0.46816,0.99946 -4.33932,1.12875 -4.81647,0.11406c-0.24288,-0.51652 0.44523,-4.93126 0.34281,-5.92931c0,0 -0.10198,-1.03799 0.64106,-1.18043c0.24723,-0.0474 0.42349,0.03589 0.54864,0.16815z" fill="#ffffff" stroke="none" stroke-width="0.5" stroke-linecap="butt"/><path d="M354.359,134.99149c0.40564,-0.72803 0.98337,-0.2082 0.98337,-0.2082l0.14511,0.26214c0.86011,0.14451 3.02962,0.84022 3.07191,2.51014c0.03026,1.19446 -2.87624,2.61331 -3.54945,2.3261c-1.29806,-0.55382 -1.45235,-2.50678 -1.98179,-3.92353c0,0 -0.34595,-0.9296 0.3195,-1.41287c0.66148,-0.4804 1.00726,0.4353 1.01136,0.44624z" fill="#ffffff" stroke="none" stroke-width="0.5" stroke-linecap="butt"/><path d="M281.30846,118.83103c0.36139,0.05503 0.52851,0.32807 0.60479,0.59489c0.04055,0.04899 0.0807,0.10706 0.12004,0.17548c0.39473,0.68635 0.04488,1.25932 -0.0769,1.42479c0.45185,1.66724 1.08357,4.54901 -0.76931,5.39405c-0.57026,0.26008 -4.07738,-2.11207 -3.96312,-3.54038c0.12183,-1.52291 2.10427,-2.19976 3.25046,-3.00565l0.00718,-0.11516c0,0 0.08128,-1.04153 0.82686,-0.92799z" fill="#ffffff" stroke="none" stroke-width="0.5" stroke-linecap="butt"/><path d="M285.01516,126.66506c0.37487,-0.06293 0.76263,-0.00786 1.15497,0.17588l0.36524,0.05561l0.093,-0.28306l0.70277,0.45063c0.29445,0.17729 0.48498,0.60728 0.44842,1.0758c-0.04489,0.57522 -0.41509,0.99071 -0.82686,0.92799l-0.48265,-0.07349c0.09513,1.36248 -0.24803,3.03963 -0.69502,3.67214c-0.58577,0.82889 -1.47088,0.55921 -2.15686,0.46053c-0.51217,-0.07366 -1.9191,-0.20577 -2.1056,-0.87727c-0.1791,-0.64486 0.42945,-1.24698 0.62508,-1.8824c0.43191,-1.40287 1.02199,-2.46012 1.70181,-3.08387c0.17137,-0.77148 0.79053,-0.6772 0.79053,-0.6772c0.12839,0.01956 0.25679,0.0391 0.38518,0.05866z" fill="#ffffff" stroke="none" stroke-width="0.5" stroke-linecap="butt"/><path d="M296.87787,131.39985c0.11254,-0.15752 0.25137,-0.25936 0.42082,-0.28213c1.51,-0.20292 2.30695,5.38451 1.52029,6.4728c-0.80345,1.11149 -3.68562,-0.31723 -3.9503,-1.61948c-0.02712,-0.13342 0.95462,-2.95637 1.00394,-3.69345c0,0 0.08128,-1.04153 0.82686,-0.92799c0.06567,0.01 0.12493,0.02721 0.17838,0.05026z" fill="#ffffff" stroke="none" stroke-width="0.5" stroke-linecap="butt"/><path d="M310.62082,135.43801l0.72054,0.51581c0.29918,0.80394 1.54439,3.44934 1.26075,4.28039c-0.45079,1.32073 -4.22949,0.90102 -4.63251,-0.19888c-0.04107,-0.11209 1.16129,-3.95636 1.28423,-4.42171c0,0 0.25968,-0.98292 0.96329,-0.62015c0.20865,0.10758 0.3326,0.26969 0.40372,0.44454z" fill="#ffffff" stroke="none" stroke-width="0.5" stroke-linecap="butt"/><path d="M322.8393,137.28125c0.07727,-0.07249 0.17426,-0.13124 0.29573,-0.16797c0.73302,-0.22164 0.89169,0.80235 0.89169,0.80235l0.07609,0.75907c2.6953,3.46659 -2.07453,4.54263 -2.85316,2.707c-0.39773,-0.93766 0.07178,-3.75152 0.1642,-4.93588c0,0 0.08128,-1.04153 0.82686,-0.92799c0.74558,0.11354 0.6643,1.15508 0.6643,1.15508c-0.01575,0.20187 -0.03849,0.40493 -0.06571,0.60838z" fill="#ffffff" stroke="none" stroke-width="0.5" stroke-linecap="butt"/><path d="M296.18659,156.95469c-0.63305,0.40331 -0.96181,-0.48013 -0.96181,-0.48013c-0.35185,-0.94899 -1.94736,-4.98497 -1.65865,-5.96215c0.43842,-1.48386 3.95846,-1.90852 4.77772,-0.97463c1.09391,1.24696 0.17201,4.91297 -0.28967,6.28322l-0.94862,1.10061c0,0 -0.47953,0.53819 -0.91895,0.03309z" fill="#ffffff" stroke="none" stroke-width="0.5" stroke-linecap="butt"/><path d="M301.56803,156.93544c-0.57528,-0.67222 -0.09408,-1.47584 -0.09408,-1.47584l0.06656,-0.11113c-0.10305,-0.23001 -0.12594,-0.46291 -0.12594,-0.46291c-0.10971,-1.22766 -1.37671,-4.58083 -0.77803,-5.69567c0.70895,-1.32018 4.4296,-1.68115 5.06511,0.2071c0.78247,2.32489 -1.61277,4.9615 -2.49879,6.44122l-0.57833,0.96585c0,0 -0.48121,0.80363 -1.05648,0.13142z" fill="#ffffff" stroke="none" stroke-width="0.5" stroke-linecap="butt"/><path d="M309.43007,157.12247c-0.09436,0.28985 -0.30241,0.64117 -0.75186,0.57272c-0.74558,-0.11354 -0.6643,-1.15508 -0.6643,-1.15508l0.58802,-1.20439c0.01558,-1.27976 -0.37487,-4.54192 -0.00837,-5.16005c0.56775,-0.95759 3.80836,-1.58651 4.49623,-0.28262c1.54107,2.92118 -1.83073,6.27515 -3.6597,7.22941z" fill="#ffffff" stroke="none" stroke-width="0.5" stroke-linecap="butt"/><path d="M318.74808,157.12258c0.00868,0.04592 0.01629,0.08945 0.02269,0.13033c0,0 0.13309,0.8589 -0.40762,1.17373c-0.11565,0.23752 -0.32096,0.45381 -0.6823,0.39879c-0.74558,-0.11354 -0.6643,-1.15508 -0.6643,-1.15508l0.09105,-0.67072c0.01176,-0.03573 0.02402,-0.07481 0.03675,-0.11694c-0.30461,-1.37859 -0.81727,-3.35777 -0.45548,-4.42266c0.25276,-0.74393 2.92976,-3.63679 3.66062,-2.09834c0.63997,1.34714 -0.87011,4.88459 -1.60142,6.76088z" fill="#ffffff" stroke="none" stroke-width="0.5" stroke-linecap="butt"/><path d="M322.59138,158.25266c-0.15163,-0.40745 -0.10895,-0.72915 -0.01317,-0.96201c-0.02394,-0.18598 -0.01277,-0.32916 -0.01277,-0.32916c0.10369,-1.26813 0.41885,-4.98179 1.17928,-5.83522c0.77831,-0.87351 4.47026,-0.3579 4.65363,1.46317c0.14563,1.44616 -3.23775,4.96404 -3.9958,5.52872l-0.79977,0.58082c0,0 -0.66545,0.48327 -1.0114,-0.44632z" fill="#ffffff" stroke="none" stroke-width="0.5" stroke-linecap="butt"/><path d="M332.48655,160.78823c0,0 0.11777,1.03472 -0.62293,1.19922c-0.7407,0.16452 -0.85846,-0.8702 -0.85846,-0.8702c-0.15189,-1.33461 -1.2237,-5.86062 -0.26258,-7.03471c2.0652,-2.52283 3.54465,1.58356 2.93938,4.01763l-0.05933,0.0826l0.01878,0.0169l-0.80346,1.74254c-0.09117,0.20714 -0.23189,0.36449 -0.3966,0.44333c0.0149,0.13427 0.02993,0.26851 0.04522,0.40271z" fill="#ffffff" stroke="none" stroke-width="0.5" stroke-linecap="butt"/><path d="M337.51617,162.62884c-0.74558,-0.11354 -0.6643,-1.15508 -0.6643,-1.15508c0.10541,-1.30585 -0.54281,-4.47842 -0.26226,-5.40319c0.1496,-0.49315 2.39436,-1.19069 2.65721,-0.74073c0.34478,0.59021 0.28133,3.09652 0.27284,4.16177l-0.08525,0.15359l0.05041,0.02598l-0.35146,1.33031c-0.11154,0.45234 -0.43549,0.75337 -0.79032,0.69934c0,0 -0.08128,1.04153 -0.82686,0.92799z" fill="#ffffff" stroke="none" stroke-width="0.5" stroke-linecap="butt"/><path d="M276.60782,94.74672c0.26738,-1.95373 1.14111,-14.47137 6.82889,-22.51898c4.53006,-6.40956 13.35702,-8.99359 18.37186,-8.30729c5.29009,0.72397 14.48745,4.34882 18.37063,12.47535c4.41986,9.24967 3.16783,23.17234 2.95625,24.71838c-1.25582,9.17639 -6.9048,24.88475 -15.14058,27.61481c-3.2955,1.09242 -7.63509,-7.03221 -11.30695,-7.53471c-12.84826,-1.75833 -21.83841,-13.59933 -20.08008,-26.44754z" fill="url(#color-1)" stroke="#000000" stroke-width="2" stroke-linecap="butt"/><path d="M333.30719,98.88456c0.56474,-1.88934 3.3537,-14.12358 10.21176,-21.20043c5.46214,-5.6364 14.58154,-6.83179 19.43111,-5.38221c5.11575,1.52914 13.64601,6.5257 16.23285,15.15286c2.94435,9.81949 -0.43454,23.38383 -0.88143,24.87892c-3.71388,12.42484 -16.7969,19.48645 -29.2217,15.77259c-2.49749,-0.74652 -5.52828,4.37841 -7.54841,2.95623c-8.02992,-5.65309 -11.19151,-22.25062 -8.22415,-32.17793z" fill="url(#color-2)" stroke="#000000" stroke-width="2" stroke-linecap="butt"/><path d="M383.68906,117.84862c-0.1819,-0.72761 0.54571,-0.90951 0.54571,-0.90951l0.43254,-0.0631c1.5672,-1.02641 2.58097,-2.51652 3.16973,-4.19236c-0.23377,-0.87255 -0.30263,-1.72314 -0.15581,-2.49735c0,0 0.13326,-0.66631 0.78032,-0.60364c0.02653,-0.36074 0.039,-0.72236 0.03845,-1.08261c0,0 0,-0.75 0.75,-0.75c0.75,0 0.75,0.75 0.75,0.75c-0.00198,1.42993 -0.1892,2.85095 -0.5975,4.18248c0.95547,2.81264 3.93331,6.22932 6.01417,6.56752l0.68625,-0.1521c0,0 0.73544,-0.14709 0.88252,0.58835c0.14709,0.73544 -0.58835,0.88252 -0.58835,0.88252l-0.98042,0.18123c-2.43972,-0.52486 -5.32365,-3.22189 -6.81201,-6.11865c-0.71862,1.3652 -1.73697,2.56708 -3.1053,3.49269l-0.90079,0.27024c0,0 -0.72761,0.1819 -0.90951,-0.54571z" fill="#000000" stroke="none" stroke-width="0.5" stroke-linecap="butt"/><g stroke="#000000" stroke-width="0" stroke-linecap="butt"><path d="M260.01016,74.19619l-7.2307,-63.85636c0,0 51.04145,1.52782 75.84983,3.28913c24.06927,1.70884 70.85019,7.12609 70.85019,7.12609l-10.84796,63.09187z" fill="#000000"/><path d="M261.01252,73.41632l-1.54301,-10.39884l129.88066,13.08424l-1.79393,9.94553z" fill="#ffffff"/><path d="M240.70011,79.04627c0,0 -2.80019,-3.98514 -3.36896,-6.17747c-0.60753,-2.34183 -0.16761,-7.4546 -0.16761,-7.4546l175.12073,18.32971c0,0 -0.98733,3.93143 -1.95372,5.96163c-1.04974,2.2053 -4.11542,6.7884 -4.11542,6.7884c0,0 -1.73555,-0.18296 -4.84634,-0.51087c-1.47255,-0.15523 -5.16391,27.94996 -7.21456,27.7338c-0.53398,-0.05629 0.62608,-8.13295 0.84487,-15.42822c0.20674,-6.89353 -1.68325,-13.15448 -2.25269,-13.2145c-30.95505,-3.2631 -106.74271,-11.25222 -135.9118,-14.32705c-2.57087,-0.271 -2.8652,11.16178 -4.55282,10.39129c-4.33115,-1.97743 -4.5471,-11.35054 -5.39344,-11.43977c-3.44631,-0.36329 -6.18824,-0.65233 -6.18824,-0.65233z" fill="#000000"/></g></g></g></svg>