<svg version="1.1" xmlns="http://www.w3.org/2000/svg" xmlns:xlink="http://www.w3.org/1999/xlink" width="34.17311" height="34.17311" viewBox="0,0,34.17311,34.17311"><g transform="translate(-302.91345,-162.91346)"><g stroke-miterlimit="10"><path d="M309.98312,162.91346h20.03379c3.9166,0 7.06966,3.15307 7.06966,7.06966v20.03379c0,3.91659 -3.15306,7.06966 -7.06966,7.06966h-20.03379c-3.91659,0 -7.06966,-3.15307 -7.06966,-7.06966v-20.03379c0,-3.91659 3.15307,-7.06966 7.06966,-7.06966z" fill="#000000" fill-rule="evenodd" stroke="none" stroke-width="4.43922" stroke-linecap="round" stroke-linejoin="round"/><g fill-rule="nonzero" stroke="#ffffff" stroke-width="2" stroke-linecap="butt" stroke-linejoin="miter"><path d="M307.95682,188.37265c0,-6.25017 5.39772,-11.31693 12.05615,-11.31693c6.65843,0 12.05615,5.06676 12.05615,11.31693c0,0.04677 -24.1123,0.05074 -24.1123,0z" fill="#000000"/><path d="M309.25891,183.53383l-2.62418,-10.37351c0,0 8.4555,-0.8919 12.58807,-1.15733c4.00945,-0.25752 11.84919,-0.41222 11.84919,-0.41222l-0.37573,10.65257z" fill="#000000"/><path d="M309.40681,183.38269l-0.48764,-1.68111l21.72207,-0.75223l-0.07307,1.68111z" fill="#ffffff"/><path d="M306.23716,184.76536c0,0 -0.55132,-0.59474 -0.69429,-0.9437c-0.15272,-0.37276 -0.19473,-1.22617 -0.19473,-1.22617l29.30373,-0.90074c0,0 -0.07478,0.67077 -0.18873,1.02739c-0.12377,0.38738 -0.52685,1.21224 -0.52685,1.21224z" fill="#000000"/></g><path d="M307.95681,188.37265c0,-6.25017 5.39772,-11.31693 12.05615,-11.31693c6.65843,0 12.05615,5.06676 12.05615,11.31693c0,0.04677 -24.1123,0.05074 -24.1123,0z" fill="#000000" fill-rule="nonzero" stroke="#000000" stroke-width="0" stroke-linecap="butt" stroke-linejoin="miter"/><path d="M309.25891,183.53383l-2.62418,-10.37351c0,0 8.4555,-0.89191 12.58807,-1.15733c4.00945,-0.25752 11.84919,-0.41222 11.84919,-0.41222l-0.37573,10.65257z" fill="#000000" fill-rule="nonzero" stroke="#000000" stroke-width="0" stroke-linecap="butt" stroke-linejoin="miter"/><path d="M309.40681,183.38269l-0.48765,-1.68111l21.72207,-0.75223l-0.07307,1.68111z" fill="#ffffff" fill-rule="nonzero" stroke="#000000" stroke-width="0" stroke-linecap="butt" stroke-linejoin="miter"/><path d="M306.23716,184.76536c0,0 -0.55132,-0.59474 -0.69429,-0.9437c-0.15272,-0.37276 -0.19473,-1.22617 -0.19473,-1.22617l29.30373,-0.90074c0,0 -0.07478,0.67077 -0.18873,1.02739c-0.12377,0.38738 -0.52685,1.21225 -0.52685,1.21225z" fill="#000000" fill-rule="nonzero" stroke="#000000" stroke-width="0" stroke-linecap="butt" stroke-linejoin="miter"/><path d="M305.4178,191.06452v-2.79911h28.87504v2.79911z" fill="#000000" fill-rule="nonzero" stroke="none" stroke-width="0" stroke-linecap="butt" stroke-linejoin="miter"/></g></g></svg>