<svg version="1.1" xmlns="http://www.w3.org/2000/svg" xmlns:xlink="http://www.w3.org/1999/xlink" width="213.18203" height="280.18476" viewBox="0,0,213.18203,280.18476"><defs><linearGradient x1="376.96718" y1="70.72268" x2="378.29726" y2="109.85807" gradientUnits="userSpaceOnUse" id="color-1"><stop offset="0" stop-color="#000000" stop-opacity="0"/><stop offset="1" stop-color="#000000" stop-opacity="0.12941"/></linearGradient><linearGradient x1="243.19251" y1="89.24034" x2="254.48596" y2="126.73442" gradientUnits="userSpaceOnUse" id="color-2"><stop offset="0" stop-color="#000000" stop-opacity="0"/><stop offset="1" stop-color="#000000" stop-opacity="0.12941"/></linearGradient></defs><g transform="translate(-214.52362,-38.88751)"><g stroke-miterlimit="10"><g stroke-linecap="butt"><g><path d="M286.35186,319.07226l15.14285,-131.8421l37.78325,-0.15789l13.57389,132z" fill="#ffffff" stroke="#000000" stroke-width="0"/><path d="M295.03756,243.4497c2.31163,-20.12635 6.45715,-56.21953 6.45715,-56.21953l37.78325,-0.15789c0,0 3.72623,36.23595 5.80113,56.41339c0.06797,0.66099 -50.13384,0.76769 -50.04153,-0.03597z" fill="#c5c5c5" stroke="#000000" stroke-width="0"/><path d="M296.28412,232.59645c2.01457,-17.53997 5.21059,-45.36629 5.21059,-45.36629l37.78325,-0.15789c0,0 4.66307,45.11419 4.71681,45.63673c0.00337,0.03279 -47.73775,0.12343 -47.71065,-0.11255z" fill="#7e7e7e" stroke="#000000" stroke-width="0"/><path d="M297.74772,219.85353c1.58763,-13.82276 3.74699,-32.62337 3.74699,-32.62337l37.78325,-0.15789c0,0 1.95261,18.98827 3.38375,32.9055c0.00712,0.06919 -44.92683,-0.01249 -44.91399,-0.12423z" fill="#424242" stroke="#000000" stroke-width="0"/><path d="M297.5,220.16667c0,-0.9665 0.7835,-1.75 1.75,-1.75c0.9665,0 1.75,0.7835 1.75,1.75c0,0.9665 -0.7835,1.75 -1.75,1.75c-0.9665,0 -1.75,-0.7835 -1.75,-1.75z" fill="#424242" stroke="none" stroke-width="0.5"/><path d="M306.91667,217.75c0.9665,0 1.75,0.7835 1.75,1.75c0,0.9665 -0.7835,1.75 -1.75,1.75c-0.3017,0 -0.58556,-0.07635 -0.83333,-0.21077c-0.24777,0.13442 -0.53163,0.21077 -0.83333,0.21077c-0.9665,0 -1.75,-0.7835 -1.75,-1.75c0,-0.9665 0.7835,-1.75 1.75,-1.75c0.3017,0 0.58556,0.07635 0.83333,0.21077c0.24777,-0.13442 0.53163,-0.21077 0.83333,-0.21077z" fill="#424242" stroke="none" stroke-width="0.5"/><path d="M308.5,220.66667c0,-0.53086 0.33092,-0.98441 0.79772,-1.16566c0.26193,-0.63635 0.88812,-1.08434 1.61894,-1.08434c0.41516,0 0.79655,0.14456 1.09658,0.3861c0.20911,-0.21861 0.49678,-0.36146 0.81767,-0.3832c0.22793,-0.10871 0.48307,-0.16956 0.75242,-0.16956c0.61869,0 1.16238,0.32105 1.47358,0.80564c0.19664,-0.75131 0.88013,-1.30564 1.69308,-1.30564c0.9665,0 1.75,0.7835 1.75,1.75c0,0.9665 -0.7835,1.75 -1.75,1.75c-0.61869,0 -1.16238,-0.32105 -1.47358,-0.80564c-0.19664,0.75131 -0.88013,1.30564 -1.69308,1.30564c-0.49626,0 -0.94428,-0.20656 -1.26275,-0.5384c-0.31903,0.42793 -0.82911,0.70506 -1.40392,0.70506c-0.22382,0 -0.43782,-0.04201 -0.63455,-0.11859c-0.16145,0.07606 -0.34182,0.11859 -0.53212,0.11859c-0.69036,0 -1.25,-0.55964 -1.25,-1.25z" fill="#424242" stroke="none" stroke-width="0.5"/><path d="M332.91667,217.41667c0.9665,0 1.75,0.7835 1.75,1.75c0,0.9665 -0.7835,1.75 -1.75,1.75c-0.58936,0 -1.11067,-0.29134 -1.42777,-0.73785c-0.44514,0.90452 -1.57223,0.90452 -1.57223,0.90452h-2.5c0,0 -0.86581,0 -1.37944,-0.609c-0.31412,0.46781 -0.84806,0.77567 -1.4539,0.77567c-0.48967,0 -0.93237,-0.20111 -1.25,-0.52525c-0.31763,0.32414 -0.76033,0.52525 -1.25,0.52525c-0.9665,0 -1.75,-0.7835 -1.75,-1.75c0,-0.9665 0.7835,-1.75 1.75,-1.75c0.48967,0 0.93237,0.20111 1.25,0.52525c0.31763,-0.32414 0.76033,-0.52525 1.25,-0.52525c0.53241,0 1.00929,0.23775 1.33026,0.61289c0.48235,-0.77955 1.50308,-0.77955 1.50308,-0.77955h2.5c0,0 0.97758,0 1.47143,0.73064c0.29928,-0.53536 0.87165,-0.89731 1.52857,-0.89731z" fill="#424242" stroke="none" stroke-width="0.5"/><path d="M338.83334,221.16667c0,0.69036 -0.55964,1.25 -1.25,1.25c-0.54428,0 -1.0073,-0.34785 -1.17889,-0.83337c-0.96087,-0.00657 -1.73778,-0.78753 -1.73778,-1.74995c0,-0.9665 0.7835,-1.75 1.75,-1.75c0.72825,0 1.35259,0.44482 1.61616,1.07759c0.15789,-0.80422 0.86669,-1.41092 1.71717,-1.41092c0.3841,0 0.73931,0.12375 1.02792,0.33355c0.95362,0.01492 1.72208,0.79261 1.72208,1.74979c0,0.9665 -0.7835,1.75 -1.75,1.75c-0.3841,0 -0.73931,-0.12375 -1.02792,-0.33356c-0.33122,-0.00518 -0.6401,-0.10237 -0.9022,-0.26715c0.00887,0.06006 0.01345,0.12151 0.01345,0.18403z" fill="#424242" stroke="none" stroke-width="0.5"/><path d="M296.66667,232.83334c0,-0.9665 0.7835,-1.75 1.75,-1.75c0.9665,0 1.75,0.7835 1.75,1.75c0,0.9665 -0.7835,1.75 -1.75,1.75c-0.9665,0 -1.75,-0.7835 -1.75,-1.75z" fill="#7e7e7e" stroke="none" stroke-width="0.5"/><path d="M300.66667,232.16667c0,-0.9665 0.7835,-1.75 1.75,-1.75c0.9665,0 1.75,0.7835 1.75,1.75c0,0.9665 -0.7835,1.75 -1.75,1.75c-0.9665,0 -1.75,-0.7835 -1.75,-1.75z" fill="#7e7e7e" stroke="none" stroke-width="0.5"/><path d="M310.08333,230.25c0.9665,0 1.75,0.7835 1.75,1.75c0,0.9665 -0.7835,1.75 -1.75,1.75c-0.60339,0 -1.13547,-0.30538 -1.45009,-0.77001c-0.29284,0.5569 -0.87703,0.93668 -1.54991,0.93668c-0.9665,0 -1.75,-0.7835 -1.75,-1.75c0,-0.9665 0.7835,-1.75 1.75,-1.75c0.60339,0 1.13546,0.30538 1.45008,0.77002c0.29284,-0.5569 0.87703,-0.93668 1.54992,-0.93668z" fill="#7e7e7e" stroke="none" stroke-width="0.5"/><path d="M314.33333,232.83334c0,-0.9665 0.7835,-1.75 1.75,-1.75c0.9665,0 1.75,0.7835 1.75,1.75c0,0.9665 -0.7835,1.75 -1.75,1.75c-0.9665,0 -1.75,-0.7835 -1.75,-1.75z" fill="#7e7e7e" stroke="none" stroke-width="0.5"/><path d="M322.16667,232.83334c0,-0.9665 0.7835,-1.75 1.75,-1.75c0.9665,0 1.75,0.7835 1.75,1.75c0,0.9665 -0.7835,1.75 -1.75,1.75c-0.9665,0 -1.75,-0.7835 -1.75,-1.75z" fill="#7e7e7e" stroke="none" stroke-width="0.5"/><path d="M327.83333,232.66667c0,-0.9665 0.7835,-1.75 1.75,-1.75c0.9665,0 1.75,0.7835 1.75,1.75c0,0.9665 -0.7835,1.75 -1.75,1.75c-0.9665,0 -1.75,-0.7835 -1.75,-1.75z" fill="#7e7e7e" stroke="none" stroke-width="0.5"/><path d="M331.5,232.66667c0,-0.9665 0.7835,-1.75 1.75,-1.75c0.9665,0 1.75,0.7835 1.75,1.75c0,0.9665 -0.7835,1.75 -1.75,1.75c-0.9665,0 -1.75,-0.7835 -1.75,-1.75z" fill="#7e7e7e" stroke="none" stroke-width="0.5"/><path d="M341.75,230.91667c0.9665,0 1.75,0.7835 1.75,1.75c0,0.9665 -0.7835,1.75 -1.75,1.75c-0.14358,0 -0.28313,-0.01729 -0.41667,-0.0499c-0.13353,0.03261 -0.27308,0.0499 -0.41667,0.0499c-0.4482,0 -0.85706,-0.1685 -1.16667,-0.44561c-0.30961,0.27711 -0.71846,0.44561 -1.16667,0.44561c-0.2684,0 -0.52269,-0.06042 -0.75,-0.16841c-0.22731,0.10799 -0.4816,0.16841 -0.75,0.16841c-0.9665,0 -1.75,-0.7835 -1.75,-1.75c0,-0.9665 0.7835,-1.75 1.75,-1.75c0.2684,0 0.52269,0.06042 0.75,0.16841c0.22731,-0.10799 0.4816,-0.16841 0.75,-0.16841c0.4482,0 0.85706,0.1685 1.16667,0.44561c0.30961,-0.27711 0.71846,-0.44561 1.16667,-0.44561c0.14358,0 0.28313,0.0173 0.41667,0.04991c0.13353,-0.03261 0.27308,-0.04991 0.41667,-0.04991z" fill="#7e7e7e" stroke="none" stroke-width="0.5"/><path d="M317.83333,233c0,-0.9665 0.7835,-1.75 1.75,-1.75c0.9665,0 1.75,0.7835 1.75,1.75c0,0.9665 -0.7835,1.75 -1.75,1.75c-0.9665,0 -1.75,-0.7835 -1.75,-1.75z" fill="#7e7e7e" stroke="none" stroke-width="0.5"/><path d="M294.83333,244c0,-0.9665 0.7835,-1.75 1.75,-1.75c0.9665,0 1.75,0.7835 1.75,1.75c0,0.9665 -0.7835,1.75 -1.75,1.75c-0.9665,0 -1.75,-0.7835 -1.75,-1.75z" fill="#c5c5c5" stroke="none" stroke-width="0.5"/><path d="M341.33334,244.16667c0,-0.9665 0.7835,-1.75 1.75,-1.75c0.9665,0 1.75,0.7835 1.75,1.75c0,0.9665 -0.7835,1.75 -1.75,1.75c-0.9665,0 -1.75,-0.7835 -1.75,-1.75z" fill="#c5c5c5" stroke="none" stroke-width="0.5"/><path d="M335.33333,244c0,-0.9665 0.7835,-1.75 1.75,-1.75c0.37181,0 0.71654,0.11595 1,0.31367c0.28346,-0.19772 0.62819,-0.31367 1,-0.31367c0.9665,0 1.75,0.7835 1.75,1.75c0,0.9665 -0.7835,1.75 -1.75,1.75c-0.37181,0 -0.71654,-0.11595 -1,-0.31367c-0.28346,0.19772 -0.62819,0.31367 -1,0.31367c-0.9665,0 -1.75,-0.7835 -1.75,-1.75z" fill="#c5c5c5" stroke="none" stroke-width="0.5"/><path d="M331.66667,244.33334c0,-0.9665 0.7835,-1.75 1.75,-1.75c0.9665,0 1.75,0.7835 1.75,1.75c0,0.9665 -0.7835,1.75 -1.75,1.75c-0.9665,0 -1.75,-0.7835 -1.75,-1.75z" fill="#c5c5c5" stroke="none" stroke-width="0.5"/><path d="M326.66667,244.33334c0,-0.9665 0.7835,-1.75 1.75,-1.75c0.9665,0 1.75,0.7835 1.75,1.75c0,0.9665 -0.7835,1.75 -1.75,1.75c-0.9665,0 -1.75,-0.7835 -1.75,-1.75z" fill="#c5c5c5" stroke="none" stroke-width="0.5"/><path d="M319.67271,243.68801c0.14533,-1.74395 1.88929,-1.59862 1.88929,-1.59862l2,0.16666c0,0 1.74395,0.14533 1.59862,1.88929c-0.14533,1.74395 -1.88928,1.59862 -1.88928,1.59862l-2,-0.16666c0,0 -1.74396,-0.14533 -1.59863,-1.88929z" fill="#c5c5c5" stroke="none" stroke-width="0.5"/><path d="M306.91667,241.91667c0.24572,0 0.47962,0.05065 0.69182,0.14207c0.24705,-0.66682 0.88878,-1.14207 1.64152,-1.14207c0.58252,0 1.09858,0.28462 1.41667,0.72239c0.31809,-0.43777 0.83414,-0.72239 1.41667,-0.72239c0.53935,0 1.02171,0.24399 1.34273,0.62762c0.20294,-0.08229 0.42481,-0.12762 0.65727,-0.12762c0.9665,0 1.75,0.7835 1.75,1.75c0,0.9665 -0.7835,1.75 -1.75,1.75c-0.53935,0 -1.02171,-0.24399 -1.34273,-0.62762c-0.20294,0.08229 -0.42481,0.12762 -0.65727,0.12762c-0.58252,0 -1.09858,-0.28462 -1.41667,-0.72239c-0.31809,0.43777 -0.83414,0.72239 -1.41667,0.72239c-0.24572,0 -0.47962,-0.05065 -0.69182,-0.14207c-0.24705,0.66682 -0.88878,1.14207 -1.64152,1.14207c-0.79836,0 -1.47185,-0.5346 -1.68202,-1.26535c-0.30771,0.26902 -0.71048,0.43202 -1.15131,0.43202c-0.3017,0 -0.58556,-0.07635 -0.83333,-0.21077c-0.24777,0.13442 -0.53163,0.21077 -0.83333,0.21077c-0.21569,0 -0.42227,-0.03903 -0.61306,-0.1104c-0.29161,0.56074 -0.87788,0.94373 -1.55361,0.94373c-0.9665,0 -1.75,-0.7835 -1.75,-1.75c0,-0.9665 0.7835,-1.75 1.75,-1.75c0.21569,0 0.42227,0.03903 0.61306,0.1104c0.29161,-0.56074 0.87788,-0.94373 1.55361,-0.94373c0.3017,0 0.58556,0.07635 0.83333,0.21077c0.24777,-0.13442 0.53163,-0.21077 0.83333,-0.21077c0.79836,0 1.47185,0.5346 1.68202,1.26535c0.30771,-0.26902 0.71048,-0.43202 1.15131,-0.43202z" fill="#c5c5c5" stroke="none" stroke-width="0.5"/><path d="M301.66667,224.83334c0,-0.69036 0.55964,-1.25 1.25,-1.25c0.69036,0 1.25,0.55964 1.25,1.25c0,0.69036 -0.55964,1.25 -1.25,1.25c-0.69036,0 -1.25,-0.55964 -1.25,-1.25z" fill="#424242" stroke="none" stroke-width="0.5"/><path d="M316.16667,222.66667c0,-0.69036 0.55964,-1.25 1.25,-1.25c0.69036,0 1.25,0.55964 1.25,1.25c0,0.69036 -0.55964,1.25 -1.25,1.25c-0.69036,0 -1.25,-0.55964 -1.25,-1.25z" fill="#424242" stroke="none" stroke-width="0.5"/><path d="M319.16667,223.83334c0,-0.69036 0.55964,-1.25 1.25,-1.25c0.69036,0 1.25,0.55964 1.25,1.25c0,0.69036 -0.55964,1.25 -1.25,1.25c-0.69036,0 -1.25,-0.55964 -1.25,-1.25z" fill="#424242" stroke="none" stroke-width="0.5"/><path d="M324.66667,225.5c0,-0.69036 0.55964,-1.25 1.25,-1.25c0.69036,0 1.25,0.55964 1.25,1.25c0,0.69036 -0.55964,1.25 -1.25,1.25c-0.69036,0 -1.25,-0.55964 -1.25,-1.25z" fill="#424242" stroke="none" stroke-width="0.5"/><path d="M327.5,225.33334c0,-0.69036 0.55964,-1.25 1.25,-1.25c0.69036,0 1.25,0.55964 1.25,1.25c0,0.69036 -0.55964,1.25 -1.25,1.25c-0.69036,0 -1.25,-0.55964 -1.25,-1.25z" fill="#424242" stroke="none" stroke-width="0.5"/><path d="M331.83333,223.33334c0,-0.69036 0.55964,-1.25 1.25,-1.25c0.69036,0 1.25,0.55964 1.25,1.25c0,0.69036 -0.55964,1.25 -1.25,1.25c-0.69036,0 -1.25,-0.55964 -1.25,-1.25z" fill="#424242" stroke="none" stroke-width="0.5"/><path d="M299.33333,238.33334c0,-0.69036 0.55964,-1.25 1.25,-1.25c0.69036,0 1.25,0.55964 1.25,1.25c0,0.69036 -0.55964,1.25 -1.25,1.25c-0.69036,0 -1.25,-0.55964 -1.25,-1.25z" fill="#7e7e7e" stroke="none" stroke-width="0.5"/><path d="M312.33333,234.33334c0,-0.69036 0.55964,-1.25 1.25,-1.25c0.69036,0 1.25,0.55964 1.25,1.25c0,0.69036 -0.55964,1.25 -1.25,1.25c-0.69036,0 -1.25,-0.55964 -1.25,-1.25z" fill="#7e7e7e" stroke="none" stroke-width="0.5"/><path d="M318,233.66667c0,-0.69036 0.55964,-1.25 1.25,-1.25c0.69036,0 1.25,0.55964 1.25,1.25c0,0.69036 -0.55964,1.25 -1.25,1.25c-0.69036,0 -1.25,-0.55964 -1.25,-1.25z" fill="#7e7e7e" stroke="none" stroke-width="0.5"/><path d="M325.5,236.33334c0,-0.69036 0.55964,-1.25 1.25,-1.25c0.69036,0 1.25,0.55964 1.25,1.25c0,0.69036 -0.55964,1.25 -1.25,1.25c-0.69036,0 -1.25,-0.55964 -1.25,-1.25z" fill="#7e7e7e" stroke="none" stroke-width="0.5"/><path d="M336.16667,238c0,-0.69036 0.55964,-1.25 1.25,-1.25c0.69036,0 1.25,0.55964 1.25,1.25c0,0.69036 -0.55964,1.25 -1.25,1.25c-0.69036,0 -1.25,-0.55964 -1.25,-1.25z" fill="#7e7e7e" stroke="none" stroke-width="0.5"/><path d="M340,238.33334c0,-0.69036 0.55964,-1.25 1.25,-1.25c0.69036,0 1.25,0.55964 1.25,1.25c0,0.69036 -0.55964,1.25 -1.25,1.25c-0.69036,0 -1.25,-0.55964 -1.25,-1.25z" fill="#7e7e7e" stroke="none" stroke-width="0.5"/><path d="M305.5,236.66667c0,-0.69036 0.55964,-1.25 1.25,-1.25c0.69036,0 1.25,0.55964 1.25,1.25c0,0.69036 -0.55964,1.25 -1.25,1.25c-0.69036,0 -1.25,-0.55964 -1.25,-1.25z" fill="#7e7e7e" stroke="none" stroke-width="0.5"/><path d="M296.16667,249.33334c0,-0.69036 0.55964,-1.25 1.25,-1.25c0.69036,0 1.25,0.55964 1.25,1.25c0,0.69036 -0.55964,1.25 -1.25,1.25c-0.69036,0 -1.25,-0.55964 -1.25,-1.25z" fill="#c5c5c5" stroke="none" stroke-width="0.5"/><path d="M306.5,248.33334c0,-0.69036 0.55964,-1.25 1.25,-1.25c0.69036,0 1.25,0.55964 1.25,1.25c0,0.69036 -0.55964,1.25 -1.25,1.25c-0.69036,0 -1.25,-0.55964 -1.25,-1.25z" fill="#c5c5c5" stroke="none" stroke-width="0.5"/><path d="M310.83333,246.33334c0,-0.69036 0.55964,-1.25 1.25,-1.25c0.69036,0 1.25,0.55964 1.25,1.25c0,0.69036 -0.55964,1.25 -1.25,1.25c-0.69036,0 -1.25,-0.55964 -1.25,-1.25z" fill="#c5c5c5" stroke="none" stroke-width="0.5"/><path d="M317.16667,244.66667c0,-0.69036 0.55964,-1.25 1.25,-1.25c0.69036,0 1.25,0.55964 1.25,1.25c0,0.69036 -0.55964,1.25 -1.25,1.25c-0.69036,0 -1.25,-0.55964 -1.25,-1.25z" fill="#c5c5c5" stroke="none" stroke-width="0.5"/><path d="M332.33333,249.83334c0,-0.69036 0.55964,-1.25 1.25,-1.25c0.69036,0 1.25,0.55964 1.25,1.25c0,0.69036 -0.55964,1.25 -1.25,1.25c-0.69036,0 -1.25,-0.55964 -1.25,-1.25z" fill="#c5c5c5" stroke="none" stroke-width="0.5"/><path d="M341.66667,249.5c0,-0.69036 0.55964,-1.25 1.25,-1.25c0.69036,0 1.25,0.55964 1.25,1.25c0,0.69036 -0.55964,1.25 -1.25,1.25c-0.69036,0 -1.25,-0.55964 -1.25,-1.25z" fill="#c5c5c5" stroke="none" stroke-width="0.5"/><path d="M341,244.5c0,-0.69036 0.55964,-1.25 1.25,-1.25c0.69036,0 1.25,0.55964 1.25,1.25c0,0.69036 -0.55964,1.25 -1.25,1.25c-0.69036,0 -1.25,-0.55964 -1.25,-1.25z" fill="#c5c5c5" stroke="none" stroke-width="0.5"/><path d="M302.5,229.5c0,-0.41422 0.33578,-0.75 0.75,-0.75c0.41422,0 0.75,0.33578 0.75,0.75c0,0.41422 -0.33578,0.75 -0.75,0.75c-0.41422,0 -0.75,-0.33578 -0.75,-0.75z" fill="#424242" stroke="none" stroke-width="0.5"/><path d="M310.16667,226.66667c0,-0.41422 0.33578,-0.75 0.75,-0.75c0.41422,0 0.75,0.33578 0.75,0.75c0,0.41422 -0.33578,0.75 -0.75,0.75c-0.41422,0 -0.75,-0.33578 -0.75,-0.75z" fill="#424242" stroke="none" stroke-width="0.5"/><path d="M318.16667,229.33334c0,-0.41422 0.33578,-0.75 0.75,-0.75c0.41422,0 0.75,0.33578 0.75,0.75c0,0.41422 -0.33578,0.75 -0.75,0.75c-0.41422,0 -0.75,-0.33578 -0.75,-0.75z" fill="#424242" stroke="none" stroke-width="0.5"/><path d="M323.16667,230c0,-0.41422 0.33578,-0.75 0.75,-0.75c0.41422,0 0.75,0.33578 0.75,0.75c0,0.41422 -0.33578,0.75 -0.75,0.75c-0.41422,0 -0.75,-0.33578 -0.75,-0.75z" fill="#424242" stroke="none" stroke-width="0.5"/><path d="M329.66667,229.83334c0,-0.41422 0.33578,-0.75 0.75,-0.75c0.41422,0 0.75,0.33578 0.75,0.75c0,0.41422 -0.33578,0.75 -0.75,0.75c-0.41422,0 -0.75,-0.33578 -0.75,-0.75z" fill="#424242" stroke="none" stroke-width="0.5"/><path d="M341.33334,229.16667c0,-0.41422 0.33578,-0.75 0.75,-0.75c0.41422,0 0.75,0.33578 0.75,0.75c0,0.41422 -0.33578,0.75 -0.75,0.75c-0.41422,0 -0.75,-0.33578 -0.75,-0.75z" fill="#424242" stroke="none" stroke-width="0.5"/><path d="M301,242.16667c0,-0.41422 0.33578,-0.75 0.75,-0.75c0.41422,0 0.75,0.33578 0.75,0.75c0,0.41422 -0.33578,0.75 -0.75,0.75c-0.41422,0 -0.75,-0.33578 -0.75,-0.75z" fill="#7e7e7e" stroke="none" stroke-width="0.5"/><path d="M311.33333,239.83334c0,-0.41422 0.33578,-0.75 0.75,-0.75c0.41422,0 0.75,0.33578 0.75,0.75c0,0.41422 -0.33578,0.75 -0.75,0.75c-0.41422,0 -0.75,-0.33578 -0.75,-0.75z" fill="#7e7e7e" stroke="none" stroke-width="0.5"/><path d="M323.5,240c0,-0.41422 0.33578,-0.75 0.75,-0.75c0.41422,0 0.75,0.33578 0.75,0.75c0,0.41422 -0.33578,0.75 -0.75,0.75c-0.41422,0 -0.75,-0.33578 -0.75,-0.75z" fill="#7e7e7e" stroke="none" stroke-width="0.5"/><path d="M338,242.83334c0,-0.41422 0.33578,-0.75 0.75,-0.75c0.41422,0 0.75,0.33578 0.75,0.75c0,0.41422 -0.33578,0.75 -0.75,0.75c-0.41422,0 -0.75,-0.33578 -0.75,-0.75z" fill="#7e7e7e" stroke="none" stroke-width="0.5"/><path d="M300,254.66667c0,-0.41422 0.33578,-0.75 0.75,-0.75c0.41422,0 0.75,0.33578 0.75,0.75c0,0.41422 -0.33578,0.75 -0.75,0.75c-0.41422,0 -0.75,-0.33578 -0.75,-0.75z" fill="#c5c5c5" stroke="none" stroke-width="0.5"/><path d="M312.83333,250.83334c0,-0.41422 0.33578,-0.75 0.75,-0.75c0.41422,0 0.75,0.33578 0.75,0.75c0,0.41422 -0.33578,0.75 -0.75,0.75c-0.41422,0 -0.75,-0.33578 -0.75,-0.75z" fill="#c5c5c5" stroke="none" stroke-width="0.5"/><path d="M330.33333,255.66667c0,-0.41422 0.33578,-0.75 0.75,-0.75c0.41422,0 0.75,0.33578 0.75,0.75c0,0.41421 -0.33578,0.75 -0.75,0.75c-0.41422,0 -0.75,-0.33579 -0.75,-0.75z" fill="#c5c5c5" stroke="none" stroke-width="0.5"/><path d="M339.16667,255.66667c0,-0.41422 0.33578,-0.75 0.75,-0.75c0.41422,0 0.75,0.33578 0.75,0.75c0,0.41421 -0.33578,0.75 -0.75,0.75c-0.41422,0 -0.75,-0.33579 -0.75,-0.75z" fill="#c5c5c5" stroke="none" stroke-width="0.5"/></g><path d="M296.16293,233.6608c0.00584,-0.25247 -0.00434,-0.50932 -0.00434,-0.77985c0,0 0,-0.02409 0.00748,-0.05731c-0.00469,-0.1515 -0.00748,-0.29934 -0.00748,-0.44269c0,-3.07638 0.48233,-6.38564 1.07346,-9.39207c0.50942,-2.51696 0.93681,-5.70001 0.92654,-8.27459c0,0 0,-0.0363 0.01383,-0.08124c-0.00426,-0.01363 -0.00777,-0.02838 -0.01043,-0.04433c-0.0411,-0.2466 0.2055,-0.2877 0.2055,-0.2877l0.01361,-0.00227c0.8039,-0.13398 1.94832,-0.54857 3.13114,-0.9152c-0.03816,-0.08816 -0.03946,-0.18016 0.00343,-0.27561c0.2339,-0.52048 3.50469,-0.47449 4.03328,-0.47688l0.00052,0.00018v-0.00018l0.35902,-0.00012c0.00003,0 0.00006,0 0.00009,0c0.13807,0 0.25,0.11193 0.25,0.25c0,0.11246 -0.07426,0.20758 -0.17641,0.23899l-0.46887,0.15629l-0.02005,-0.06014c-0.47198,0.22753 -1.00947,0.41779 -1.58095,0.58009c0.77601,0.10237 1.53592,0.16805 2.23846,0.44374l0.0292,-0.0876l0.16982,0.05661l-0.13571,-0.17092c-0.0347,-0.04292 -0.05549,-0.09757 -0.05549,-0.15706c0,-0.13807 0.11193,-0.25 0.25,-0.25h0.5v0.0252c0.98813,-0.12584 1.99435,-0.13647 2.9884,-0.19151l0.00689,0.00191v-0.00201l0.49998,-0.00019c0.00004,0 0.00007,0 0.00011,0c0.13807,0 0.25,0.11193 0.25,0.25c0,0.11223 -0.07395,0.20718 -0.17578,0.2388l-0.46844,0.15754l-0.01918,-0.05703c-0.48424,0.23641 -1.01363,0.41452 -1.57003,0.54958c0.9708,0.31925 1.97355,0.58754 2.90575,0.9795c2.01073,0.84552 3.88519,1.61623 6.00613,2.14647c0.90029,0.22507 1.98539,0.26133 2.80812,0.68785l0.04653,-0.09305l0.32849,0.16424c0.08456,0.04009 0.14304,0.12623 0.14304,0.22603c0,0.13807 -0.11193,0.25 -0.25,0.25h-0.49139c-3.08415,0.2856 -5.96808,1.0327 -8.98953,1.68016c-2.65911,0.56981 -5.55029,1.31799 -8.28552,1.69064c2.5467,0.11538 5.08925,0.46794 7.64033,0.55874c2.3423,0.08337 4.65992,0.28959 6.99334,0.50665c0.84102,0.07823 1.79904,-0.00121 2.53038,0.36755l0.05938,-0.10434l0.2904,0.16528c0.07779,0.04238 0.13057,0.12487 0.13057,0.21968c0,0.13613 -0.1088,0.24684 -0.24418,0.24993l-0.499,0.01326c-1.22922,0.03266 -2.64356,0.51109 -3.92799,0.59684c0.50378,0.10701 1.00954,0.20896 1.51901,0.2622c2.28716,0.24075 7.14545,-0.05334 9.34601,1.2331l0.03999,-0.07997l0.32849,0.16424c0.08456,0.04009 0.14304,0.12623 0.14304,0.22603c0,0.13807 -0.11193,0.25 -0.25,0.25c-1.27778,0 -3.05556,0 -4.33333,0c-2.30033,0 -4.56189,0.49308 -6.83151,0.85622c-0.35341,0.05654 -0.8453,0.19795 -1.33397,0.28917c1.75691,0.54377 -0.90606,1.23088 -2.74348,1.62269c-3.13796,0.66407 3.02055,2.3952 5.29243,3.21986l0.02544,-0.10175l0.48,0.12c0.11133,0.02526 0.19444,0.12483 0.19444,0.2438c0,0.13807 -0.11193,0.25 -0.25,0.25c-0.44444,0 -1.38889,0 -1.83333,0c-2.12349,0 -4.19052,0.05264 -6.28034,0.49432c-0.59665,0.1261 -1.37214,0.51855 -2.07569,0.68609c1.9295,0.31326 3.85337,0.6482 5.77712,0.99782c3.44082,0.62532 6.87934,1.27532 10.33591,1.8071c2.7452,0.42234 6.6588,0.29309 9.30648,1.44917l0.01207,-0.04829l0.48,0.12c0.11133,0.02526 0.19444,0.12483 0.19444,0.2438c0,0.13807 -0.11193,0.25 -0.25,0.25h-0.5c-0.32033,-0.00066 -0.64256,-0.02324 -0.9575,-0.08173c-3.45137,-0.65665 -6.86651,-0.91827 -10.37584,-0.91827c-3.42152,0 -6.79293,-0.09906 -10.16416,0.56883c-1.52057,0.30056 -3.50811,0.13779 -4.932,0.76023c-0.36251,0.15847 0.68279,0.4145 1.05987,0.53421c0.93244,0.29602 1.85869,0.55405 2.81487,0.76677c2.65569,0.59092 6.77373,0.97886 9.19318,2.55841l0.02617,-0.05233l0.44237,0.22118c0.08456,0.04009 0.14304,0.12623 0.14304,0.22603c0,0.13807 -0.11193,0.25 -0.25,0.25h-0.5v-0.0073l-0.02448,0.0061c-2.6229,-0.5125 -5.62986,-0.33213 -8.30886,-0.33213c-2.38424,0 -4.20105,0.31891 -6.48016,0.87652c-0.36311,0.08884 -1.4293,0.37661 -2.04371,0.38495c0.65615,0.40556 1.28922,0.69047 1.80519,1.20858l0.06318,-0.06242l0.31722,0.32109c0.00003,0.00003 0.00005,0.00005 0.00008,0.00008c0.04461,0.04515 0.07216,0.10721 0.07216,0.1757c0,0.13807 -0.11193,0.25 -0.25,0.25c-0.00641,0 -0.01276,-0.00024 -0.01904,-0.00071l-0.49646,-0.03307l0.00038,-0.00571l-0.02254,0.00323c-1.8429,-0.46422 -5.42643,-0.70891 -7.28249,-0.17938c-0.15239,0.35523 -0.0891,1.43597 -0.32036,1.65458c-0.80961,0.76532 -1.09138,-1.01719 -1.09344,-1.34344c-0.012,-1.89735 0.33333,-3.67725 0.33333,-5.5c0,-2.17504 0.31047,-4.23607 0.82418,-6.32656c-0.08314,-0.04061 -0.14041,-0.126 -0.14041,-0.22476c0,-0.02228 0.00292,-0.04389 0.00839,-0.06445l0.11677,-0.48045l0.02032,0.00494c0.00717,-0.30587 0.05331,-0.59232 0.17502,-0.96212zM307.54357,214.17458c-0.12199,-0.00332 -0.24034,-0.01184 -0.35334,-0.02696c0.04512,0.01932 0.09042,0.03834 0.1359,0.05708c0.07251,-0.00977 0.14499,-0.01981 0.21744,-0.03012z" fill="#da3243" stroke="none" stroke-width="0.5"/><path d="M324.40858,219.79762c0,0 -0.25,0 -0.25,-0.25c0,-0.25 0.25,-0.25 0.25,-0.25c0.59546,0.00123 1.18996,0.05067 1.78543,0.11111c0.06897,-0.11111 0.21457,-0.11111 0.21457,-0.11111l0.35106,0.00063c0.5999,0.08467 1.57737,0.05324 2.19877,0.33211c0.03893,0.0004 0.07788,0.0006 0.11684,0.0006h0.5c0.13807,0 0.25,0.11193 0.25,0.25c0,0.13807 -0.11193,0.25 -0.25,0.25h-0.5c-1.56935,-0.00002 -3.11992,-0.33692 -4.66667,-0.33333z" fill="#da3243" stroke="none" stroke-width="0.5"/><path d="M337.50416,240.13519c-0.08668,-0.00276 -0.17406,-0.00424 -0.26225,-0.00424c0,0 -0.25,0 -0.25,-0.25c0,-0.25 0.25,-0.25 0.25,-0.25c0.60691,0 1.18886,0.07691 1.76373,0.1577c0.46653,0.00757 0.95645,0.04335 1.33389,0.16099c0.08005,0.00597 0.16023,0.01091 0.2406,0.01464h0.49512c0.13807,0 0.25,0.11193 0.25,0.25c0,0.13807 -0.11193,0.25 -0.25,0.25h-0.5v-0.00691l-0.00701,0.00681c-0.18635,-0.01192 -0.37023,-0.02908 -0.5527,-0.04941c-0.68403,0.00175 -1.35667,-0.11716 -2.10696,-0.11716h-0.16667c0,0 -0.18754,0 -0.23775,-0.16243z" fill="#da3243" stroke="none" stroke-width="0.5"/><path d="M306.65858,248.04762c0,-0.13807 0.11193,-0.25 0.25,-0.25c0.13807,0 0.25,0.11193 0.25,0.25c0,0.13807 -0.11193,0.25 -0.25,0.25c-0.13807,0 -0.25,-0.11193 -0.25,-0.25z" fill="#ff3b4e" stroke="none" stroke-width="0.5"/></g><path d="M214.52362,306.61252v-267.72501h213.18203v267.72501z" fill="none" stroke="none" stroke-width="0" stroke-linecap="butt"/><path d="" fill="none" stroke="#000000" stroke-width="0" stroke-linecap="round"/><g><g stroke-linecap="round"><path d="M334.43239,100.87589l53.55049,-48.49099l-8.52436,84.86011" fill="#a9a9a9" stroke="#000000" stroke-width="0"/><path d="M372.08164,110.06931c0,0 2.72262,-14.02239 4.60734,-20.73841c1.81287,-6.45999 6.49382,-18.81946 6.49382,-18.81946" fill="none" stroke="url(#color-1)" stroke-width="2"/></g><g stroke-linecap="round"><path d="M262.17082,153.04669l-35.29403,-77.6417l66.27502,28.75158" fill="#a9a9a9" stroke="#000000" stroke-width="0"/><path d="M237.23758,91.03401c0,0 8.39808,10.20491 12.18729,15.74204c3.93939,5.75658 11.01604,18.16469 11.01604,18.16469" fill="none" stroke="url(#color-2)" stroke-width="2"/></g><g><path d="M255.64396,161.24269c-1.13116,-33.28263 26.69516,-61.24042 62.15181,-62.44547c35.45666,-1.20505 65.11694,24.79897 66.2481,58.0816c1.13116,33.28263 -26.69515,61.24043 -62.15181,62.44548c-35.45665,1.20505 -65.11694,-24.79898 -66.2481,-58.08161z" fill="#ffffff" stroke="#000000" stroke-width="0" stroke-linecap="butt"/><g><path d="M260.18405,184.39737l6.89059,-0.69513l24.8414,25.66024l-7.04256,3.00504z" fill="#ffffff" stroke="none" stroke-width="0" stroke-linecap="round"/><path d="M288.07292,211.56736l-21.0964,9.93595l-0.5555,-16.34477l-35.26667,-20.46597l30.16509,-0.79473" fill="#ffffff" stroke="#000000" stroke-width="0" stroke-linecap="round"/><path d="M358.41836,209.86799l-7.23034,-2.51995l23.04189,-27.28763l6.9219,0.22569z" fill="#ffffff" stroke="none" stroke-width="0" stroke-linecap="round"/><path d="M379.98512,179.8648l30.14943,-1.25515l-33.79576,22.81315l0.5555,16.34478l-21.72232,-8.48069" fill="#ffffff" stroke="#000000" stroke-width="0" stroke-linecap="round"/><path d="M258.18059,142.36683c7.58522,-24.3787 31.13945,-42.60181 59.61518,-43.5696c28.745,-0.97694 53.68034,15.9292 62.69321,40.09878c0.0644,0.17271 -122.36771,3.6615 -122.30838,3.47082z" fill="#c5c5c5" stroke="#000000" stroke-width="0" stroke-linecap="butt"/><path d="M263.94595,129.56231c10.68582,-17.7154 30.63187,-29.97598 53.84981,-30.76507c23.58383,-0.80153 45.29217,11.07836 57.05753,28.48743c0.49035,0.72556 -111.03632,2.49148 -110.90734,2.27765z" fill="#7e7e7e" stroke="#000000" stroke-width="0" stroke-linecap="butt"/><path d="M273.90148,117.10262c11.1835,-10.79318 26.63489,-17.71881 43.89428,-18.3054c18.7445,-0.63706 35.86902,6.33028 48.01479,17.95732c0.11505,0.11013 -92.17262,0.60243 -91.90907,0.34808z" fill="#424242" stroke="#000000" stroke-width="0" stroke-linecap="butt"/><path d="M273.8217,118.02806c-0.03283,-0.96594 0.72361,-1.7756 1.68955,-1.80843c0.96594,-0.03283 1.7756,0.72361 1.80843,1.68955c0.03283,0.96594 -0.72361,1.7756 -1.68955,1.80843c-0.96594,0.03283 -1.7756,-0.72361 -1.80843,-1.68955z" fill="#424242" stroke="none" stroke-width="0.5" stroke-linecap="butt"/><path d="M278.64092,117.53075c-0.03283,-0.96594 0.72361,-1.7756 1.68955,-1.80843c0.96594,-0.03283 1.7756,0.72361 1.80843,1.68955c0.03283,0.96594 -0.72361,1.7756 -1.68955,1.80843c-0.96594,0.03283 -1.7756,-0.72361 -1.80843,-1.68955z" fill="#424242" stroke="none" stroke-width="0.5" stroke-linecap="butt"/><path d="M284.13208,117.17736c-0.03283,-0.96594 0.72361,-1.7756 1.68955,-1.80843c0.96594,-0.03283 1.7756,0.72361 1.80843,1.68955c0.03283,0.96594 -0.72361,1.7756 -1.68955,1.80843c-0.96594,0.03283 -1.7756,-0.72361 -1.80843,-1.68955z" fill="#424242" stroke="none" stroke-width="0.5" stroke-linecap="butt"/><path d="M301.45096,114.00393c0.96594,-0.03283 1.7756,0.72361 1.80843,1.68955c0.03283,0.96594 -0.72361,1.7756 -1.68955,1.80843c-0.09368,0.00318 -0.18587,-0.00105 -0.27603,-0.01218c-0.30538,0.42897 -0.80012,0.71582 -1.36702,0.73509c-0.48939,0.01663 -0.93866,-0.16933 -1.26712,-0.4825c-0.30644,0.33474 -0.74205,0.55078 -1.23144,0.56742c-0.96594,0.03283 -1.7756,-0.72361 -1.80843,-1.68955c-0.03283,-0.96594 0.72361,-1.7756 1.68955,-1.80843c0.48939,-0.01663 0.93866,0.16933 1.26712,0.4825c0.30644,-0.33474 0.74205,-0.55078 1.23144,-0.56742c0.09368,-0.00318 0.18586,0.00105 0.27603,0.01218c0.30538,-0.42897 0.80013,-0.71582 1.36703,-0.73509z" fill="#424242" stroke="none" stroke-width="0.5" stroke-linecap="butt"/><path d="M317.78863,117.19c-0.26389,1.72999 -1.99388,1.46609 -1.99388,1.46609l-2.68211,-0.40913c0,0 -0.25156,-0.03837 -0.54818,-0.18177c-0.14782,0.04649 -0.30429,0.07397 -0.46671,0.07949c-0.96594,0.03283 -1.7756,-0.72361 -1.80843,-1.68955c-0.03283,-0.96594 0.72361,-1.7756 1.68955,-1.80843c0.31148,-0.01059 0.60671,0.0609 0.86488,0.19502c0.42504,-0.11141 0.79668,-0.05473 0.79668,-0.05473l2.6821,0.40913c0,0 1.72999,0.2639 1.46609,1.99389z" fill="#424242" stroke="none" stroke-width="0.5" stroke-linecap="butt"/><path d="M322.3402,115.29513c0.96594,-0.03283 1.7756,0.72361 1.80843,1.68955c0.03283,0.96594 -0.72361,1.7756 -1.68955,1.80843c-0.54287,0.01845 -1.03638,-0.21239 -1.37037,-0.58961c-0.2737,0.20032 -0.6084,0.32335 -0.97294,0.33574c-0.96594,0.03283 -1.7756,-0.72361 -1.80843,-1.68955c-0.03283,-0.96594 0.72361,-1.7756 1.68955,-1.80843c0.54287,-0.01845 1.03638,0.21239 1.37037,0.58961c0.2737,-0.20032 0.6084,-0.32335 0.97294,-0.33574z" fill="#424242" stroke="none" stroke-width="0.5" stroke-linecap="butt"/><path d="M344.63115,116.12178c-0.03283,-0.96594 0.72361,-1.7756 1.68955,-1.80843c0.96594,-0.03283 1.7756,0.72361 1.80843,1.68955c0.03283,0.96594 -0.72361,1.7756 -1.68955,1.80843c-0.96594,0.03283 -1.7756,-0.72361 -1.80843,-1.68955z" fill="#424242" stroke="none" stroke-width="0.5" stroke-linecap="butt"/><path d="M355.18856,115.17931c0.96594,-0.03283 1.7756,0.72361 1.80843,1.68955c0.03283,0.96594 -0.72361,1.7756 -1.68955,1.80843c-0.54287,0.01845 -1.03638,-0.21239 -1.37037,-0.58961c-0.2737,0.20032 -0.6084,0.32335 -0.97294,0.33574c-0.96594,0.03283 -1.7756,-0.72361 -1.80843,-1.68955c-0.03283,-0.96594 0.72361,-1.7756 1.68955,-1.80843c0.54287,-0.01845 1.03638,0.21239 1.37037,0.58961c0.2737,-0.20032 0.6084,-0.32335 0.97294,-0.33574z" fill="#424242" stroke="none" stroke-width="0.5" stroke-linecap="butt"/><path d="M361.70179,115.45823c0.96594,-0.03283 1.7756,0.72361 1.80843,1.68955c0.03283,0.96594 -0.72361,1.7756 -1.68955,1.80843c-0.5106,0.01735 -0.97753,-0.18582 -1.30913,-0.52392c-0.25243,0.15796 -0.54858,0.25353 -0.8676,0.26437c-0.96594,0.03283 -1.7756,-0.72361 -1.80843,-1.68955c-0.03283,-0.96594 0.72361,-1.7756 1.68955,-1.80843c0.5106,-0.01735 0.97753,0.18582 1.30913,0.52392c0.25243,-0.15796 0.54859,-0.25353 0.86761,-0.26437z" fill="#424242" stroke="none" stroke-width="0.5" stroke-linecap="butt"/><path d="M303.97096,117.00339c-0.03283,-0.96594 0.72361,-1.7756 1.68955,-1.80843c0.96594,-0.03283 1.7756,0.72361 1.80843,1.68955c0.03283,0.96594 -0.72361,1.7756 -1.68955,1.80843c-0.96594,0.03283 -1.7756,-0.72361 -1.80843,-1.68955z" fill="#424242" stroke="none" stroke-width="0.5" stroke-linecap="butt"/><path d="M288.64081,117.35766c-0.03283,-0.96594 0.72361,-1.7756 1.68955,-1.80843c0.71048,-0.02415 1.3364,0.3787 1.63085,0.97783c0.07761,-0.86708 0.79118,-1.56043 1.68358,-1.59076c0.96594,-0.03283 1.7756,0.72361 1.80843,1.68955c0.03283,0.96594 -0.72361,1.7756 -1.68955,1.80843c-0.71048,0.02415 -1.3364,-0.37871 -1.63086,-0.97784c-0.07761,0.86708 -0.79118,1.56044 -1.68358,1.59077c-0.96594,0.03283 -1.7756,-0.72361 -1.80843,-1.68955z" fill="#424242" stroke="none" stroke-width="0.5" stroke-linecap="butt"/><path d="M372.91383,126.41705c0.96594,-0.03283 1.7756,0.72361 1.80843,1.68955c0.03283,0.96594 -0.72361,1.7756 -1.68955,1.80843c-0.61764,0.02099 -1.17139,-0.28071 -1.49901,-0.75355c-0.30259,0.30245 -0.71612,0.49531 -1.17744,0.51099c-0.96594,0.03283 -1.7756,-0.72361 -1.80843,-1.68955c-0.03283,-0.96594 0.72361,-1.7756 1.68955,-1.80843c0.61764,-0.02099 1.17139,0.28071 1.49901,0.75355c0.30259,-0.30244 0.71612,-0.49531 1.17744,-0.51099z" fill="#7e7e7e" stroke="none" stroke-width="0.5" stroke-linecap="butt"/><path d="M361.52357,127.38784c-0.03283,-0.96594 0.72361,-1.7756 1.68955,-1.80843c0.96594,-0.03283 1.7756,0.72361 1.80843,1.68955c0.03283,0.96594 -0.72361,1.7756 -1.68955,1.80843c-0.96594,0.03283 -1.7756,-0.72361 -1.80843,-1.68955z" fill="#7e7e7e" stroke="none" stroke-width="0.5" stroke-linecap="butt"/><path d="M356.54344,128.05739c-0.03283,-0.96594 0.72361,-1.7756 1.68955,-1.80843c0.96594,-0.03283 1.7756,0.72361 1.80843,1.68955c0.03283,0.96594 -0.72361,1.7756 -1.68955,1.80843c-0.96594,0.03283 -1.7756,-0.72361 -1.80843,-1.68955z" fill="#7e7e7e" stroke="none" stroke-width="0.5" stroke-linecap="butt"/><path d="M347.06024,128.71321c-0.03283,-0.96594 0.72361,-1.7756 1.68955,-1.80843c0.43018,-0.01462 0.82936,0.12729 1.14274,0.37455c0.27813,-0.55381 0.84242,-0.94231 1.50541,-0.96484c0.96594,-0.03283 1.7756,0.72361 1.80843,1.68955c0.03283,0.96594 -0.72361,1.7756 -1.68955,1.80843c-0.43018,0.01462 -0.82936,-0.12729 -1.14273,-0.37454c-0.27813,0.55381 -0.84242,0.9423 -1.50541,0.96483c-0.96594,0.03283 -1.7756,-0.72361 -1.80843,-1.68955z" fill="#7e7e7e" stroke="none" stroke-width="0.5" stroke-linecap="butt"/><path d="M334.21166,128.48283c-0.03283,-0.96594 0.72361,-1.7756 1.68955,-1.80843c0.43188,-0.01468 0.83252,0.12843 1.14645,0.37749c0.16632,-0.0595 0.34456,-0.09463 0.53058,-0.10095c0.96594,-0.03283 1.7756,0.72361 1.80843,1.68955c0.03283,0.96594 -0.72361,1.7756 -1.68955,1.80843c-0.43188,0.01468 -0.83251,-0.12843 -1.14645,-0.37749c-0.16632,0.0595 -0.34457,0.09464 -0.53058,0.10096c-0.96594,0.03283 -1.7756,-0.72361 -1.80843,-1.68955z" fill="#7e7e7e" stroke="none" stroke-width="0.5" stroke-linecap="butt"/><path d="M323.21235,128.68991c-0.03283,-0.96594 0.72361,-1.7756 1.68955,-1.80843c0.75107,-0.02553 1.40765,0.42612 1.67802,1.08241c0.17108,-0.75745 0.8353,-1.33459 1.64772,-1.3622c0.96594,-0.03283 1.7756,0.72361 1.80843,1.68955c0.03283,0.96594 -0.72361,1.7756 -1.68955,1.80843c-0.75107,0.02553 -1.40765,-0.42612 -1.67803,-1.08241c-0.17108,0.75745 -0.8353,1.33459 -1.64772,1.3622c-0.96594,0.03283 -1.7756,-0.72361 -1.80843,-1.68955z" fill="#7e7e7e" stroke="none" stroke-width="0.5" stroke-linecap="butt"/><path d="M317.37672,128.72147c-0.03283,-0.96594 0.72361,-1.7756 1.68955,-1.80843c0.96594,-0.03283 1.7756,0.72361 1.80843,1.68955c0.03283,0.96594 -0.72361,1.7756 -1.68955,1.80843c-0.96594,0.03283 -1.7756,-0.72361 -1.80843,-1.68955z" fill="#7e7e7e" stroke="none" stroke-width="0.5" stroke-linecap="butt"/><path d="M308.21534,129.03284c-0.03283,-0.96594 0.72361,-1.7756 1.68955,-1.80843c0.96594,-0.03283 1.7756,0.72361 1.80843,1.68955c0.03283,0.96594 -0.72361,1.7756 -1.68955,1.80843c-0.96594,0.03283 -1.7756,-0.72361 -1.80843,-1.68955z" fill="#7e7e7e" stroke="none" stroke-width="0.5" stroke-linecap="butt"/><path d="M303.05732,129.37491c-0.03283,-0.96594 0.72361,-1.7756 1.68955,-1.80843c0.96594,-0.03283 1.7756,0.72361 1.80843,1.68955c0.03283,0.96594 -0.72361,1.7756 -1.68955,1.80843c-0.96594,0.03283 -1.7756,-0.72361 -1.80843,-1.68955z" fill="#7e7e7e" stroke="none" stroke-width="0.5" stroke-linecap="butt"/><path d="M298.2381,129.87222c-0.03283,-0.96594 0.72361,-1.7756 1.68955,-1.80843c0.96594,-0.03283 1.7756,0.72361 1.80843,1.68955c0.03283,0.96594 -0.72361,1.7756 -1.68955,1.80843c-0.96594,0.03283 -1.7756,-0.72361 -1.80843,-1.68955z" fill="#7e7e7e" stroke="none" stroke-width="0.5" stroke-linecap="butt"/><path d="M290.55887,129.63292c-0.03283,-0.96594 0.72361,-1.7756 1.68955,-1.80843c0.96594,-0.03283 1.7756,0.72361 1.80843,1.68955c0.03283,0.96594 -0.72361,1.7756 -1.68955,1.80843c-0.96594,0.03283 -1.7756,-0.72361 -1.80843,-1.68955z" fill="#7e7e7e" stroke="none" stroke-width="0.5" stroke-linecap="butt"/><path d="M285.8666,128.95858c-0.03283,-0.96594 0.72361,-1.7756 1.68955,-1.80843c0.96594,-0.03283 1.7756,0.72361 1.80843,1.68955c0.03283,0.96594 -0.72361,1.7756 -1.68955,1.80843c-0.96594,0.03283 -1.7756,-0.72361 -1.80843,-1.68955z" fill="#7e7e7e" stroke="none" stroke-width="0.5" stroke-linecap="butt"/><path d="M279.17547,128.35217c-0.03283,-0.96594 0.72361,-1.7756 1.68955,-1.80843c0.96594,-0.03283 1.7756,0.72361 1.80843,1.68955c0.03283,0.96594 -0.72361,1.7756 -1.68955,1.80843c-0.96594,0.03283 -1.7756,-0.72361 -1.80843,-1.68955z" fill="#7e7e7e" stroke="none" stroke-width="0.5" stroke-linecap="butt"/><path d="M274.36757,129.18263c-0.03283,-0.96594 0.72361,-1.7756 1.68955,-1.80843c0.96594,-0.03283 1.7756,0.72361 1.80843,1.68955c0.03283,0.96594 -0.72361,1.7756 -1.68955,1.80843c-0.96594,0.03283 -1.7756,-0.72361 -1.80843,-1.68955z" fill="#7e7e7e" stroke="none" stroke-width="0.5" stroke-linecap="butt"/><path d="M268.90025,127.7842c0.77143,-0.02622 1.44318,0.45096 1.69916,1.13622c0.287,-0.52482 0.83585,-0.88885 1.477,-0.91064c0.96594,-0.03283 1.7756,0.72361 1.80843,1.68955c0.03283,0.96594 -0.72361,1.7756 -1.68955,1.80843c-0.77143,0.02622 -1.44318,-0.45096 -1.69916,-1.13622c-0.02639,0.04826 -0.055,0.09516 -0.08569,0.14056c-0.30304,0.44831 -0.80912,0.75031 -1.39132,0.77009c-0.57328,0.01948 -1.09151,-0.23904 -1.42498,-0.65438c-0.25237,0.61936 -0.85031,1.06523 -1.56197,1.08941c-0.96594,0.03283 -1.7756,-0.72361 -1.80843,-1.68955c-0.03283,-0.96594 0.72361,-1.7756 1.68955,-1.80843c0.57328,-0.01948 1.09151,0.23904 1.42498,0.65438c0.25237,-0.61936 0.85031,-1.06523 1.56197,-1.08941z" fill="#7e7e7e" stroke="none" stroke-width="0.5" stroke-linecap="butt"/><path d="M266.8376,140.69504c0.96594,-0.03283 1.7756,0.72361 1.80843,1.68955c0.03283,0.96594 -0.72361,1.7756 -1.68955,1.80843c-0.58218,0.01979 -1.10761,-0.24714 -1.44039,-0.67385c-0.30304,0.44832 -0.80912,0.75031 -1.39132,0.77009c-0.7794,0.02649 -1.45706,-0.46087 -1.70697,-1.15755c-0.20204,0.71203 -0.84503,1.24428 -1.62444,1.27077c-0.96594,0.03283 -1.7756,-0.72361 -1.80843,-1.68955c-0.03283,-0.96594 0.72361,-1.7756 1.68955,-1.80843c0.7794,-0.02649 1.45706,0.46088 1.70697,1.15756c0.20204,-0.71203 0.84503,-1.24429 1.62444,-1.27078c0.58218,-0.01979 1.10761,0.24714 1.44039,0.67385c0.30304,-0.44832 0.80912,-0.75031 1.39132,-0.77009z" fill="#c5c5c5" stroke="none" stroke-width="0.5" stroke-linecap="butt"/><path d="M272.16219,140.34731c0.96594,-0.03283 1.7756,0.72361 1.80843,1.68955c0.03187,0.93786 -0.68029,1.72839 -1.60584,1.80362c-0.22364,0.11579 -0.47589,0.1849 -0.74433,0.19402c-0.96594,0.03283 -1.7756,-0.72361 -1.80843,-1.68955c-0.03187,-0.93786 0.68029,-1.72838 1.60584,-1.80361c0.22364,-0.11579 0.47589,-0.18491 0.74433,-0.19403z" fill="#c5c5c5" stroke="none" stroke-width="0.5" stroke-linecap="butt"/><path d="M307.45129,140.89897c-0.03283,-0.96594 0.72361,-1.7756 1.68955,-1.80843c0.96594,-0.03283 1.7756,0.72361 1.80843,1.68955c0.03283,0.96594 -0.72361,1.7756 -1.68955,1.80843c-0.96594,0.03283 -1.7756,-0.72361 -1.80843,-1.68955z" fill="#c5c5c5" stroke="none" stroke-width="0.5" stroke-linecap="butt"/><path d="M318.30222,138.77917c0.96594,-0.03283 1.7756,0.72361 1.80843,1.68955c0.03283,0.96594 -0.72361,1.7756 -1.68955,1.80843c-0.02792,0.00095 -0.05571,0.00124 -0.08335,0.00088c-0.02756,0.00223 -0.0553,0.00383 -0.08322,0.00478c-0.96594,0.03283 -1.7756,-0.72361 -1.80843,-1.68955c-0.03283,-0.96594 0.72361,-1.7756 1.68955,-1.80843c0.02792,-0.00095 0.05571,-0.00124 0.08335,-0.00088c0.02756,-0.00223 0.0553,-0.00383 0.08322,-0.00478z" fill="#c5c5c5" stroke="none" stroke-width="0.5" stroke-linecap="butt"/><path d="M324.13099,140.99914c-0.03283,-0.96594 0.72361,-1.7756 1.68955,-1.80843c0.96594,-0.03283 1.7756,0.72361 1.80843,1.68955c0.03283,0.96594 -0.72361,1.7756 -1.68955,1.80843c-0.96594,0.03283 -1.7756,-0.72361 -1.80843,-1.68955z" fill="#c5c5c5" stroke="none" stroke-width="0.5" stroke-linecap="butt"/><path d="M362.28129,139.86931c-0.03283,-0.96594 0.72361,-1.7756 1.68955,-1.80843c0.96594,-0.03283 1.7756,0.72361 1.80843,1.68955c0.03283,0.96594 -0.72361,1.7756 -1.68955,1.80843c-0.96594,0.03283 -1.7756,-0.72361 -1.80843,-1.68955z" fill="#c5c5c5" stroke="none" stroke-width="0.5" stroke-linecap="butt"/><path d="M370.4194,141.34373c-0.96594,0.03283 -1.7756,-0.72361 -1.80843,-1.68955c-0.03283,-0.96594 0.72361,-1.7756 1.68955,-1.80843c0.44794,-0.01522 0.86229,0.13929 1.18113,0.40572c0.30002,-0.28747 0.70291,-0.46976 1.15086,-0.48498c0.96594,-0.03283 1.7756,0.72361 1.80843,1.68955c0.03283,0.96594 -0.72361,1.7756 -1.68955,1.80843c-0.44794,0.01522 -0.86229,-0.13929 -1.18113,-0.40572c-0.30002,0.28747 -0.70291,0.46976 -1.15086,0.48498z" fill="#c5c5c5" stroke="none" stroke-width="0.5" stroke-linecap="butt"/><path d="M374.61317,139.61695c-0.03283,-0.96594 0.72361,-1.7756 1.68955,-1.80843c0.96594,-0.03283 1.7756,0.72361 1.80843,1.68955c0.03283,0.96594 -0.72361,1.7756 -1.68955,1.80843c-0.96594,0.03283 -1.7756,-0.72361 -1.80843,-1.68955z" fill="#c5c5c5" stroke="none" stroke-width="0.5" stroke-linecap="butt"/><path d="M325.63644,116.60059c-0.03283,-0.96594 0.72361,-1.7756 1.68955,-1.80843c0.96594,-0.03283 1.7756,0.72361 1.80843,1.68955c0.03283,0.96594 -0.72361,1.7756 -1.68955,1.80843c-0.96594,0.03283 -1.7756,-0.72361 -1.80843,-1.68955z" fill="#424242" stroke="none" stroke-width="0.5" stroke-linecap="butt"/><path d="M332.49981,117.36791c-0.03283,-0.96594 0.72361,-1.7756 1.68955,-1.80843c0.96594,-0.03283 1.7756,0.72361 1.80843,1.68955c0.03283,0.96594 -0.72361,1.7756 -1.68955,1.80843c-0.96594,0.03283 -1.7756,-0.72361 -1.80843,-1.68955z" fill="#424242" stroke="none" stroke-width="0.5" stroke-linecap="butt"/><path d="M341.8516,115.29906c0.96594,-0.03283 1.7756,0.72361 1.80843,1.68955c0.03283,0.96594 -0.72361,1.7756 -1.68955,1.80843c-0.48939,0.01663 -0.93866,-0.16933 -1.26712,-0.4825c-0.30644,0.33474 -0.74205,0.55078 -1.23144,0.56742c-0.96594,0.03283 -1.7756,-0.72361 -1.80843,-1.68955c-0.03283,-0.96594 0.72361,-1.7756 1.68955,-1.80843c0.48939,-0.01663 0.93866,0.16933 1.26712,0.4825c0.30644,-0.33474 0.74205,-0.55078 1.23144,-0.56742z" fill="#424242" stroke="none" stroke-width="0.5" stroke-linecap="butt"/><path d="M280.02444,118.9846c-0.02345,-0.68995 0.51686,-1.26829 1.20682,-1.29174c0.68996,-0.02345 1.26829,0.51687 1.29174,1.20682c0.02345,0.68995 -0.51686,1.26829 -1.20682,1.29174c-0.68996,0.02345 -1.26829,-0.51687 -1.29174,-1.20682z" fill="#424242" stroke="none" stroke-width="0.5" stroke-linecap="butt"/><path d="M286.07759,120.4465c-0.02345,-0.68995 0.51686,-1.26829 1.20682,-1.29174c0.68996,-0.02345 1.26829,0.51687 1.29174,1.20682c0.02345,0.68995 -0.51686,1.26829 -1.20682,1.29174c-0.68996,0.02345 -1.26829,-0.51687 -1.29174,-1.20682z" fill="#424242" stroke="none" stroke-width="0.5" stroke-linecap="butt"/><path d="M293.1245,121.70787c-0.02345,-0.68995 0.51686,-1.26829 1.20682,-1.29174c0.68996,-0.02345 1.26829,0.51687 1.29174,1.20682c0.02345,0.68995 -0.51686,1.26829 -1.20682,1.29174c-0.68996,0.02345 -1.26829,-0.51687 -1.29174,-1.20682z" fill="#424242" stroke="none" stroke-width="0.5" stroke-linecap="butt"/><path d="M299.48248,122.32559c-0.02345,-0.68995 0.51686,-1.26829 1.20682,-1.29174c0.68996,-0.02345 1.26829,0.51687 1.29174,1.20682c0.02345,0.68995 -0.51686,1.26829 -1.20682,1.29174c-0.68996,0.02345 -1.26829,-0.51687 -1.29174,-1.20682z" fill="#424242" stroke="none" stroke-width="0.5" stroke-linecap="butt"/><path d="M304.79009,121.47815c-0.02345,-0.68995 0.51686,-1.26829 1.20682,-1.29174c0.68996,-0.02345 1.26829,0.51687 1.29174,1.20682c0.02345,0.68995 -0.51686,1.26829 -1.20682,1.29174c-0.68996,0.02345 -1.26829,-0.51687 -1.29174,-1.20682z" fill="#424242" stroke="none" stroke-width="0.5" stroke-linecap="butt"/><path d="M310.43084,120.6194c-0.02345,-0.68995 0.51686,-1.26829 1.20682,-1.29174c0.68996,-0.02345 1.26829,0.51687 1.29174,1.20682c0.02345,0.68995 -0.51686,1.26829 -1.20682,1.29174c-0.68996,0.02345 -1.26829,-0.51687 -1.29174,-1.20682z" fill="#424242" stroke="none" stroke-width="0.5" stroke-linecap="butt"/><path d="M319.51297,117.97604c-0.02345,-0.68995 0.51686,-1.26829 1.20682,-1.29174c0.68996,-0.02345 1.26829,0.51687 1.29174,1.20682c0.02345,0.68995 -0.51686,1.26829 -1.20682,1.29174c-0.68996,0.02345 -1.26829,-0.51687 -1.29174,-1.20682z" fill="#424242" stroke="none" stroke-width="0.5" stroke-linecap="butt"/><path d="M324.67099,117.63398c-0.02345,-0.68995 0.51686,-1.26829 1.20682,-1.29174c0.68996,-0.02345 1.26829,0.51687 1.29174,1.20682c0.02345,0.68995 -0.51686,1.26829 -1.20682,1.29174c-0.68996,0.02345 -1.26829,-0.51687 -1.29174,-1.20682z" fill="#424242" stroke="none" stroke-width="0.5" stroke-linecap="butt"/><path d="M330.1848,117.94688c-0.02345,-0.68995 0.51686,-1.26829 1.20682,-1.29174c0.68996,-0.02345 1.26829,0.51687 1.29174,1.20682c0.02345,0.68995 -0.51686,1.26829 -1.20682,1.29174c-0.68996,0.02345 -1.26829,-0.51687 -1.29174,-1.20682z" fill="#424242" stroke="none" stroke-width="0.5" stroke-linecap="butt"/><path d="M334.40567,119.47104c-0.02345,-0.68995 0.51686,-1.26829 1.20682,-1.29174c0.68996,-0.02345 1.26829,0.51687 1.29174,1.20682c0.02345,0.68995 -0.51686,1.26829 -1.20682,1.29174c-0.68996,0.02345 -1.26829,-0.51687 -1.29174,-1.20682z" fill="#424242" stroke="none" stroke-width="0.5" stroke-linecap="butt"/><path d="M337.47188,121.36799c-0.02345,-0.68995 0.51686,-1.26829 1.20682,-1.29174c0.68996,-0.02345 1.26829,0.51687 1.29174,1.20682c0.02345,0.68995 -0.51686,1.26829 -1.20682,1.29174c-0.68996,0.02345 -1.26829,-0.51687 -1.29174,-1.20682z" fill="#424242" stroke="none" stroke-width="0.5" stroke-linecap="butt"/><path d="M343.55899,123.82932c-0.02345,-0.68995 0.51686,-1.26829 1.20682,-1.29174c0.68996,-0.02345 1.26829,0.51687 1.29174,1.20682c0.02345,0.68995 -0.51686,1.26829 -1.20682,1.29174c-0.68996,0.02345 -1.26829,-0.51687 -1.29174,-1.20682z" fill="#424242" stroke="none" stroke-width="0.5" stroke-linecap="butt"/><path d="M350.56627,123.92469c-0.02345,-0.68995 0.51686,-1.26829 1.20682,-1.29174c0.68996,-0.02345 1.26829,0.51687 1.29174,1.20682c0.02345,0.68995 -0.51686,1.26829 -1.20682,1.29174c-0.68996,0.02345 -1.26829,-0.51687 -1.29174,-1.20682z" fill="#424242" stroke="none" stroke-width="0.5" stroke-linecap="butt"/><path d="M338.11399,135.35425c-0.02345,-0.68995 0.51686,-1.26829 1.20682,-1.29174c0.68996,-0.02345 1.26829,0.51687 1.29174,1.20682c0.02345,0.68995 -0.51686,1.26829 -1.20682,1.29174c-0.68996,0.02345 -1.26829,-0.51687 -1.29174,-1.20682z" fill="#7e7e7e" stroke="none" stroke-width="0.5" stroke-linecap="butt"/><path d="M358.91179,124.14134c-0.02345,-0.68995 0.51686,-1.26829 1.20682,-1.29174c0.68996,-0.02345 1.26829,0.51687 1.29174,1.20682c0.02345,0.68995 -0.51686,1.26829 -1.20682,1.29174c-0.68996,0.02345 -1.26829,-0.51687 -1.29174,-1.20682z" fill="#424242" stroke="none" stroke-width="0.5" stroke-linecap="butt"/><path d="M361.99737,121.7018c-0.02345,-0.68995 0.51686,-1.26829 1.20682,-1.29174c0.68996,-0.02345 1.26829,0.51687 1.29174,1.20682c0.02345,0.68995 -0.51686,1.26829 -1.20682,1.29174c-0.68996,0.02345 -1.26829,-0.51687 -1.29174,-1.20682z" fill="#424242" stroke="none" stroke-width="0.5" stroke-linecap="butt"/><path d="M362.69436,117.6758c-0.02345,-0.68995 0.51686,-1.26829 1.20682,-1.29174c0.68996,-0.02345 1.26829,0.51687 1.29174,1.20682c0.02345,0.68995 -0.51686,1.26829 -1.20682,1.29174c-0.68996,0.02345 -1.26829,-0.51687 -1.29174,-1.20682z" fill="#424242" stroke="none" stroke-width="0.5" stroke-linecap="butt"/><path d="M268.47859,132.55127c-0.02345,-0.68995 0.51686,-1.26829 1.20682,-1.29174c0.68996,-0.02345 1.26829,0.51687 1.29174,1.20682c0.02345,0.68995 -0.51686,1.26829 -1.20682,1.29174c-0.68996,0.02345 -1.26829,-0.51687 -1.29174,-1.20682z" fill="#7e7e7e" stroke="none" stroke-width="0.5" stroke-linecap="butt"/><path d="M273.4167,135.55193c-0.02345,-0.68995 0.51686,-1.26829 1.20682,-1.29174c0.68996,-0.02345 1.26829,0.51687 1.29174,1.20682c0.02345,0.68995 -0.51686,1.26829 -1.20682,1.29174c-0.68996,0.02345 -1.26829,-0.51687 -1.29174,-1.20682z" fill="#7e7e7e" stroke="none" stroke-width="0.5" stroke-linecap="butt"/><path d="M278.7979,136.86991c-0.02345,-0.68995 0.51686,-1.26829 1.20682,-1.29174c0.68996,-0.02345 1.26829,0.51687 1.29174,1.20682c0.02345,0.68995 -0.51686,1.26829 -1.20682,1.29174c-0.68996,0.02345 -1.26829,-0.51687 -1.29174,-1.20682z" fill="#7e7e7e" stroke="none" stroke-width="0.5" stroke-linecap="butt"/><path d="M286.07606,135.12168c-0.02345,-0.68995 0.51686,-1.26829 1.20682,-1.29174c0.68996,-0.02345 1.26829,0.51687 1.29174,1.20682c0.02345,0.68995 -0.51686,1.26829 -1.20682,1.29174c-0.68996,0.02345 -1.26829,-0.51687 -1.29174,-1.20682z" fill="#7e7e7e" stroke="none" stroke-width="0.5" stroke-linecap="butt"/><path d="M292.52702,133.56834c-0.02345,-0.68995 0.51686,-1.26829 1.20682,-1.29174c0.68996,-0.02345 1.26829,0.51687 1.29174,1.20682c0.02345,0.68995 -0.51686,1.26829 -1.20682,1.29174c-0.68996,0.02345 -1.26829,-0.51687 -1.29174,-1.20682z" fill="#7e7e7e" stroke="none" stroke-width="0.5" stroke-linecap="butt"/><path d="M296.46244,131.6002c-0.02345,-0.68995 0.51686,-1.26829 1.20682,-1.29174c0.68996,-0.02345 1.26829,0.51687 1.29174,1.20682c0.02345,0.68995 -0.51686,1.26829 -1.20682,1.29174c-0.68996,0.02345 -1.26829,-0.51687 -1.29174,-1.20682z" fill="#7e7e7e" stroke="none" stroke-width="0.5" stroke-linecap="butt"/><path d="M306.10654,130.77214c-0.02345,-0.68995 0.51686,-1.26829 1.20682,-1.29174c0.68996,-0.02345 1.26829,0.51687 1.29174,1.20682c0.02345,0.68995 -0.51686,1.26829 -1.20682,1.29174c-0.68996,0.02345 -1.26829,-0.51687 -1.29174,-1.20682z" fill="#7e7e7e" stroke="none" stroke-width="0.5" stroke-linecap="butt"/><path d="M315.12399,131.13271c-0.02345,-0.68995 0.51686,-1.26829 1.20682,-1.29174c0.68996,-0.02345 1.26829,0.51687 1.29174,1.20682c0.02345,0.68995 -0.51686,1.26829 -1.20682,1.29174c-0.68996,0.02345 -1.26829,-0.51687 -1.29174,-1.20682z" fill="#7e7e7e" stroke="none" stroke-width="0.5" stroke-linecap="butt"/><path d="M323.24958,134.69211c-0.02345,-0.68995 0.51686,-1.26829 1.20682,-1.29174c0.68996,-0.02345 1.26829,0.51687 1.29174,1.20682c0.02345,0.68995 -0.51686,1.26829 -1.20682,1.29174c-0.68996,0.02345 -1.26829,-0.51687 -1.29174,-1.20682z" fill="#7e7e7e" stroke="none" stroke-width="0.5" stroke-linecap="butt"/><path d="M330.61831,135.609c-0.02345,-0.68995 0.51686,-1.26829 1.20682,-1.29174c0.68996,-0.02345 1.26829,0.51687 1.29174,1.20682c0.02345,0.68995 -0.51686,1.26829 -1.20682,1.29174c-0.68996,0.02345 -1.26829,-0.51687 -1.29174,-1.20682z" fill="#7e7e7e" stroke="none" stroke-width="0.5" stroke-linecap="butt"/><path d="M344.84147,132.12387c-0.02345,-0.68995 0.51686,-1.26829 1.20682,-1.29174c0.68996,-0.02345 1.26829,0.51687 1.29174,1.20682c0.02345,0.68995 -0.51686,1.26829 -1.20682,1.29174c-0.68996,0.02345 -1.26829,-0.51687 -1.29174,-1.20682z" fill="#7e7e7e" stroke="none" stroke-width="0.5" stroke-linecap="butt"/><path d="M350.59785,129.76032c-0.02345,-0.68995 0.51686,-1.26829 1.20682,-1.29174c0.68996,-0.02345 1.26829,0.51687 1.29174,1.20682c0.02345,0.68995 -0.51686,1.26829 -1.20682,1.29174c-0.68996,0.02345 -1.26829,-0.51687 -1.29174,-1.20682z" fill="#7e7e7e" stroke="none" stroke-width="0.5" stroke-linecap="butt"/><path d="M361.25269,129.23144c-0.02345,-0.68995 0.51686,-1.26829 1.20682,-1.29174c0.68996,-0.02345 1.26829,0.51687 1.29174,1.20682c0.02345,0.68995 -0.51686,1.26829 -1.20682,1.29174c-0.68996,0.02345 -1.26829,-0.51687 -1.29174,-1.20682z" fill="#7e7e7e" stroke="none" stroke-width="0.5" stroke-linecap="butt"/><path d="M367.56866,133.51938c-0.02345,-0.68995 0.51686,-1.26829 1.20682,-1.29174c0.68996,-0.02345 1.26829,0.51687 1.29174,1.20682c0.02345,0.68995 -0.51686,1.26829 -1.20682,1.29174c-0.68996,0.02345 -1.26829,-0.51687 -1.29174,-1.20682z" fill="#7e7e7e" stroke="none" stroke-width="0.5" stroke-linecap="butt"/><path d="M370.96234,135.23843c-0.02345,-0.68995 0.51686,-1.26829 1.20682,-1.29174c0.68996,-0.02345 1.26829,0.51687 1.29174,1.20682c0.02345,0.68995 -0.51686,1.26829 -1.20682,1.29174c-0.68996,0.02345 -1.26829,-0.51687 -1.29174,-1.20682z" fill="#7e7e7e" stroke="none" stroke-width="0.5" stroke-linecap="butt"/><path d="M258.14969,147.57744c-0.02345,-0.68996 0.51686,-1.26829 1.20682,-1.29174c0.68996,-0.02345 1.26829,0.51686 1.29174,1.20682c0.02345,0.68996 -0.51686,1.26829 -1.20682,1.29174c-0.68996,0.02345 -1.26829,-0.51686 -1.29174,-1.20682z" fill="#c5c5c5" stroke="none" stroke-width="0.5" stroke-linecap="butt"/><path d="M266.78871,146.61679c-0.02345,-0.68996 0.51686,-1.26829 1.20682,-1.29174c0.68996,-0.02345 1.26829,0.51686 1.29174,1.20682c0.02345,0.68996 -0.51686,1.26829 -1.20682,1.29174c-0.68996,0.02345 -1.26829,-0.51686 -1.29174,-1.20682z" fill="#c5c5c5" stroke="none" stroke-width="0.5" stroke-linecap="butt"/><path d="M311.51125,142.59538c-0.02345,-0.68996 0.51686,-1.26829 1.20682,-1.29174c0.68996,-0.02345 1.26829,0.51686 1.29174,1.20682c0.02345,0.68996 -0.51686,1.26829 -1.20682,1.29174c-0.68996,0.02345 -1.26829,-0.51686 -1.29174,-1.20682z" fill="#c5c5c5" stroke="none" stroke-width="0.5" stroke-linecap="butt"/><path d="M317.08734,144.74055c-0.02345,-0.68996 0.51686,-1.26829 1.20682,-1.29174c0.68996,-0.02345 1.26829,0.51686 1.29174,1.20682c0.02345,0.68996 -0.51686,1.26829 -1.20682,1.29174c-0.68996,0.02345 -1.26829,-0.51686 -1.29174,-1.20682z" fill="#c5c5c5" stroke="none" stroke-width="0.5" stroke-linecap="butt"/><path d="M321.27425,145.2653c-0.02345,-0.68996 0.51686,-1.26829 1.20682,-1.29174c0.68996,-0.02345 1.26829,0.51686 1.29174,1.20682c0.02345,0.68996 -0.51686,1.26829 -1.20682,1.29174c-0.68996,0.02345 -1.26829,-0.51686 -1.29174,-1.20682z" fill="#c5c5c5" stroke="none" stroke-width="0.5" stroke-linecap="butt"/><path d="M326.80178,141.07513c-0.02345,-0.68996 0.51686,-1.26829 1.20682,-1.29174c0.68996,-0.02345 1.26829,0.51686 1.29174,1.20682c0.02345,0.68996 -0.51686,1.26829 -1.20682,1.29174c-0.68996,0.02345 -1.26829,-0.51686 -1.29174,-1.20682z" fill="#c5c5c5" stroke="none" stroke-width="0.5" stroke-linecap="butt"/><path d="M366.30163,140.39971c-0.02345,-0.68996 0.51686,-1.26829 1.20682,-1.29174c0.68996,-0.02345 1.26829,0.51686 1.29174,1.20682c0.02345,0.68996 -0.51686,1.26829 -1.20682,1.29174c-0.68996,0.02345 -1.26829,-0.51686 -1.29174,-1.20682z" fill="#c5c5c5" stroke="none" stroke-width="0.5" stroke-linecap="butt"/><path d="M373.04937,142.67183c-0.02345,-0.68996 0.51686,-1.26829 1.20682,-1.29174c0.68996,-0.02345 1.26829,0.51686 1.29174,1.20682c0.02345,0.68996 -0.51686,1.26829 -1.20682,1.29174c-0.68996,0.02345 -1.26829,-0.51686 -1.29174,-1.20682z" fill="#c5c5c5" stroke="none" stroke-width="0.5" stroke-linecap="butt"/><path d="M377.95591,139.83687c-0.02345,-0.68996 0.51686,-1.26829 1.20682,-1.29174c0.68996,-0.02345 1.26829,0.51686 1.29174,1.20682c0.02345,0.68996 -0.51686,1.26829 -1.20682,1.29174c-0.68996,0.02345 -1.26829,-0.51686 -1.29174,-1.20682z" fill="#c5c5c5" stroke="none" stroke-width="0.5" stroke-linecap="butt"/></g><g fill="#da3243" stroke="none" stroke-width="0.5" stroke-linecap="butt"><path d="M276.15695,217.11291c-0.01938,-0.00839 4.7372,-4.67558 6.05969,-6.11935c1.11681,-1.21912 2.446,-3.63806 4.07131,-4.98693c0.00421,-0.04719 0.00907,-0.0944 0.01458,-0.14163l-0.04573,0.00063l-0.00576,-0.41544c-0.00227,-0.13604 0.10496,-0.24931 0.24148,-0.25395c0.0881,-0.00299 0.16709,0.03998 0.21393,0.10735l0.18805,0.2623c0.07573,-0.04703 0.15206,-0.09138 0.22901,-0.13286l-0.00879,-0.25859c-0.00469,-0.13799 0.10337,-0.25366 0.24136,-0.25835c0.09974,-0.00339 0.18783,0.05213 0.23076,0.13528l0.07792,0.14343c0.01433,-0.00488 0.02869,-0.00965 0.04306,-0.01431c0.03723,-0.3795 0.07267,-0.7449 0.06383,-1.00514c-0.08184,-2.40798 -0.1651,-4.81591 -0.24514,-7.22395c0.07826,-1.03537 0.21363,-2.06217 0.36605,-3.08574c-0.08777,-1.93896 0.2135,-3.7702 0.42945,-5.76546l0.03714,-0.34311c0.01139,-0.12357 0.1132,-0.22228 0.24045,-0.22661c0.0881,-0.00299 0.1671,0.03998 0.21393,0.10735l0.28906,0.40321l-0.19826,0.14213c0.43294,1.39593 -0.065,4.11603 -0.47167,6.28584c0.02511,0.27498 0.05909,0.55279 0.10329,0.83425c0.60469,1.60941 1.1988,3.23066 1.96676,4.76981c0.01964,0.03937 0.7215,1.39564 0.95361,1.01286c0.24583,-0.4054 -0.18282,-1.06214 -0.08697,-1.61234c-0.01794,-0.04063 -0.03128,-0.08595 -0.03972,-0.13617l-0.006,0.0002l-0.01698,-0.49971c-0.00469,-0.13799 0.10337,-0.25366 0.24136,-0.25835c0.13799,-0.00469 0.25366,0.10337 0.25835,0.24136l0.01477,0.43466c0.03796,0.38219 4.65774,-2.07157 5.55071,-2.63895c0.93156,-0.5919 1.64993,-1.38606 2.27666,-2.26303c0.3731,-1.00941 0.76613,-1.90462 1.03056,-2.50949c0.14429,-0.32873 1.32083,-2.71368 1.56833,-1.24435c0.18783,1.11505 -0.98965,2.87012 -2.26394,4.29391c-0.86763,2.44171 -1.53349,5.414 0.13869,6.18025c0.65692,0.30102 1.85742,1.20947 2.53518,1.2746c0.12515,0.01203 1.17104,-0.90723 1.35307,-1.03498c1.15662,-0.81172 2.14638,-1.92261 3.32152,-2.70614l-0.03162,-0.03446l0.36733,-0.33716c0.04254,-0.03953 0.099,-0.06449 0.16159,-0.06662c0.13799,-0.00469 0.25366,0.10337 0.25835,0.24136c0.00151,0.04454 -0.00873,0.08677 -0.02793,0.12368l-0.16322,0.32949l-0.0073,-0.00361l-0.00358,0.02331c-0.82835,1.11715 -2.02051,2.3064 -2.23174,3.73857c-0.07872,0.5338 0.30134,3.67526 0.79663,3.08594c2.70914,-2.15578 4.75582,-4.99001 7.58474,-7.01805c2.13428,-1.53006 5.66226,-3.57167 8.44126,-3.97882l-0.0085,-0.01615l0.25139,-0.13234c0.03345,-0.01854 0.07168,-0.02965 0.11253,-0.03104c0.13799,-0.00469 0.25366,0.10337 0.25835,0.24136c0.00299,0.0881 -0.03998,0.1671 -0.10735,0.21393l-0.40321,0.28907c-2.29384,1.64353 -4.41913,3.5078 -6.73301,5.13662c-1.74849,1.23082 -3.63907,2.84311 -4.86384,4.61892c-0.28579,0.41438 -1.41768,2.35847 -0.63001,2.20012c1.10016,-0.03739 2.82831,0.24015 3.85584,-0.12079c1.67843,-0.58958 3.15966,-1.84501 4.8866,-2.34946l-0.02304,-0.05238l0.45247,-0.19907c0.02967,-0.01389 0.06257,-0.02213 0.09737,-0.02331c0.13799,-0.00469 0.25366,0.10337 0.25835,0.24136c0.00252,0.07412 -0.0275,0.14181 -0.0772,0.18931l-0.30306,0.29198c-1.16782,1.12514 -2.15173,2.36396 -3.17327,3.62266c-1.24791,1.53761 -3.78189,6.33522 -1.49555,7.39563l0.18667,-0.00634c0.13799,-0.00469 0.25366,0.10337 0.25835,0.24136c0.00235,0.069 -0.0235,0.1324 -0.06717,0.17916l-0.27584,0.29526l-0.00891,-0.00832l-0.02079,0.03538c-0.55214,0.30638 -1.01999,0.68206 -1.5352,1.05175c-2.16684,1.8598 -7.07605,0.10304 -9.70944,-0.13527c-2.59488,-0.86417 -4.99854,-1.53037 -7.49653,-2.68133c-2.39923,-0.70644 -4.72617,-1.49422 -6.8558,-2.7497c-0.00101,0.00004 -0.00201,0.00008 -0.00302,0.00011c-0.14225,0.00483 -0.20625,-0.07406 -0.23502,-0.14291c-0.01755,-0.01072 -0.03511,-0.02147 -0.05264,-0.03226c0,0 -0.1525,-0.09435 -0.11928,-0.25239c-0.01676,-0.01685 -0.0335,-0.03378 -0.0502,-0.05079c-0.20504,0.14193 -12.68949,5.14173 -12.68949,5.14173z"/><path d="M327.53765,192.53128c-0.15624,0.05805 -0.31247,0.11609 -0.4687,0.17414l-0.46322,0.17209c-0.01021,0.00407 -0.02076,0.00749 -0.0316,0.0102c-0.11186,0.06064 -0.22375,0.12124 -0.33567,0.18181l-0.01847,0.00118l0.00207,0.00557l-0.46322,0.1721c-0.02608,0.01039 -0.05437,0.01654 -0.08404,0.01754c-0.13799,0.00469 -0.25366,-0.10337 -0.25835,-0.24136c-0.00336,-0.09872 0.05101,-0.18603 0.13275,-0.22943l0.29748,-0.16589l0.02454,0.044l0.05697,-0.02117c0.21857,-0.1655 0.45177,-0.29436 0.70063,-0.40792l0.13217,-0.10004l0.02385,0.03152c0.09264,-0.03925 0.18736,-0.07706 0.28422,-0.11446c0.07869,-0.0426 0.1605,-0.07834 0.24543,-0.10553l0.22241,-0.06953c0,0 0.01543,-0.00483 0.03967,-0.00809c0.04645,-0.00688 0.11628,-0.00711 0.17703,0.03405c0.03822,0.02518 0.0727,0.06623 0.09449,0.13179c0.0229,0.06518 0.02077,0.11874 0.00596,0.16205c-0.02283,0.06974 -0.07819,0.1123 -0.11914,0.13529c-0.0203,0.01175 -0.03509,0.01741 -0.03624,0.01786c-0.02922,0.1233 -0.16098,0.17226 -0.16098,0.17226z"/><path d="M288.71789,185.45555c-0.02394,0.01596 -0.04906,0.03135 -0.07538,0.04593c0,0 -0.21967,0.11933 -0.33901,-0.10035c-0.11934,-0.21967 0.10035,-0.33901 0.10035,-0.33901c0.13085,-0.06943 0.25297,-0.13463 0.36504,-0.19048c0.00301,-0.01159 0.06558,-0.24084 0.30226,-0.18276c0.02715,0.00667 0.05054,0.01561 0.07063,0.02627c0.3635,-0.10443 0.51014,0.0813 0.33359,0.95933l-0.03498,0.03463l0.01158,0.00792l-0.28065,0.41008c-0.0432,0.0647 -0.11587,0.10835 -0.19956,0.11119c-0.1268,0.00431 -0.23476,-0.08659 -0.25507,-0.20842l-0.08963,-0.48805l0.09781,-0.01796c-0.00269,-0.02276 -0.00502,-0.04555 -0.00695,-0.06831z"/><path d="M305.04606,185.37717c0.18268,0.17066 0.01201,0.35336 0.01201,0.35336l-0.22425,0.22124c-0.10916,0.05929 -0.21832,0.11859 -0.32748,0.17789c0,0 -0.21968,0.11933 -0.33901,-0.10035c-0.11934,-0.21967 0.10035,-0.33901 0.10035,-0.33901c0.10916,-0.05929 0.21832,-0.11859 0.32748,-0.17789l0.09757,-0.12323c0,0 0.17067,-0.18267 0.35336,-0.01201z"/></g></g><g stroke="#000000"><g fill="#000000" stroke-width="0" stroke-linecap="round"><path d="M269.43374,158.18553l-4.42422,-9.71013l8.69493,4.27272z"/><path d="M271.39769,162.44516l-10.11862,-3.3873l9.05503,-3.44448z"/></g><path d="M269.27257,161.05528c-0.44048,-12.96053 9.70902,-23.82418 22.66955,-24.26467c12.96053,-0.44048 23.82418,9.70901 24.26467,22.66954c0.44048,12.96053 -9.70901,23.82419 -22.66954,24.26468c-12.96053,0.44048 -23.82419,-9.70902 -24.26468,-22.66955z" fill="#ffffff" stroke-width="0" stroke-linecap="butt"/><path d="M277.8025,161.55627c-0.28191,-8.29485 6.21385,-15.2477 14.50871,-15.52962c8.29485,-0.28191 15.2477,6.21386 15.52962,14.50873c0.28191,8.29485 -6.21386,15.24771 -14.50872,15.52963c-8.29485,0.28191 -15.24769,-6.21386 -15.52961,-14.50873z" fill="#ffffff" stroke-width="2" stroke-linecap="butt"/></g><path d="M269.27257,161.05528c-0.00302,-0.089 11.16225,15.69734 23.78998,15.2871c10.67595,-0.34683 23.1433,-16.90974 23.14424,-16.88223c0.44048,12.96053 -9.70901,23.82419 -22.66954,24.26468c-12.96053,0.44048 -23.82419,-9.70902 -24.26468,-22.66955z" fill="#efefef" stroke="#000000" stroke-width="0" stroke-linecap="butt"/><g stroke="#000000"><g fill="#000000" stroke-width="0" stroke-linecap="round"><path d="M365.44831,149.63007l8.38477,-4.85321l-3.75475,9.9881z"/><path d="M369.00542,152.25989l9.26799,2.82174l-9.8653,4.06649z"/></g><path d="M347.76439,181.88185c-12.96053,0.44048 -23.82418,-9.70902 -24.26467,-22.66955c-0.44048,-12.96053 9.70901,-23.82418 22.66954,-24.26467c12.96053,-0.44048 23.82419,9.70901 24.26468,22.66954c0.44048,12.96053 -9.70902,23.82419 -22.66955,24.26468z" fill="#ffffff" stroke-width="0" stroke-linecap="butt"/><path d="M361.70473,158.4914c0.28191,8.29487 -6.21385,15.24771 -14.50871,15.52963c-8.29485,0.28191 -15.2477,-6.21388 -15.52962,-14.50873c-0.28191,-8.29487 6.21387,-15.24771 14.50872,-15.52963c8.29485,-0.28191 15.24769,6.21387 15.52961,14.50872z" fill="#ffffff" stroke-width="2" stroke-linecap="butt"/></g><path d="M292.07525,191.5c0,0 27.83223,12.59071 45.25,8.25c17.41777,-4.34071 34,-28 34,-28c0,0 -13.08613,34.22414 -32.25,39c-19.16387,4.77586 -47,-19.25 -47,-19.25z" fill="#ffffff" stroke="#000000" stroke-width="1.5" stroke-linecap="round"/></g></g></g></svg>