<svg version="1.1" xmlns="http://www.w3.org/2000/svg" xmlns:xlink="http://www.w3.org/1999/xlink" width="213.18203" height="285.30992" viewBox="0,0,213.18203,285.30992"><g transform="translate(-214.52362,-38.88751)"><g stroke-miterlimit="10"><path d="M414.31656,167.33634c-12.49815,25.42999 -59.17216,156.86109 -59.17216,156.86109l-77.59906,-0.56717c0,0 -36.36278,-127.63746 -49.29571,-154.45391c-4.74335,-9.83534 -1.51295,-20.11394 11.56552,-20.03438c39.703,0.24155 124.25807,0.75598 160.08968,0.97397c3.36807,0.02049 10.42688,0.67948 13.7528,4.08796c3.11745,3.19484 2.68677,9.00642 0.65894,13.13244z" fill="#000000" stroke="#000000" stroke-width="0" stroke-linecap="butt"/><g fill="#ffffff" stroke="#000000" stroke-width="0"><path d="M324.18722,195.23249c0,0 0.96794,45.18636 0.61776,53.69135c-0.1252,3.04071 -2.86718,0.94112 -2.86718,0.94112l-3.45894,6.77729l-8.0934,-21.09422l5.86525,-40.11727z" stroke-linecap="round"/><path d="M330.83552,189.90414c0,2.25535 0.50011,4.63274 -1.40291,6.14216c-2.01313,1.59676 -6.51679,2.26144 -9.65667,2.26144c-2.68266,0 -5.97693,-0.23144 -7.89189,-1.43866c-2.44514,-1.54145 -3.16768,-4.36218 -3.16768,-6.96495c0,-2.38111 0.67728,-5.51959 2.77141,-7.04871c1.98766,-1.45139 5.3138,-1.3549 8.28818,-1.3549c3.50555,0 7.25618,0.08587 9.28243,2.01933c1.50426,1.43538 1.77715,4.40678 1.77715,6.38428z" stroke-linecap="butt"/></g><path d="M214.52362,306.61252v-267.72501h213.18203v267.72501z" fill="none" stroke="none" stroke-width="0" stroke-linecap="butt"/><path d="" fill="none" stroke="#000000" stroke-width="2" stroke-linecap="round"/><path d="M257.50036,125.32127c0,-33.30185 28.7599,-60.29833 64.23702,-60.29833c35.47713,0 64.23702,26.99648 64.23702,60.29833c0,33.30185 -28.75989,60.29834 -64.23702,60.29834c-35.47712,0 -64.23702,-26.99649 -64.23702,-60.29834z" fill="#000000" stroke="#000000" stroke-width="2" stroke-linecap="butt"/><g stroke="#000000" stroke-width="0" stroke-linecap="butt"><path d="M256.86411,120.18418l-14.10815,-62.69671c0,0 50.90643,-4.01247 75.75957,-4.94998c24.11271,-0.90958 71.20519,-0.59381 71.20519,-0.59381l-3.94689,63.89589z" fill="#000000"/><path d="M257.77605,119.30026l-2.66083,-10.17038l130.53369,-1.0678l-0.70559,10.08137z" fill="#ffffff"/><path d="M238.19338,127.0983c0,0 -3.21557,-3.65822 -4.01856,-5.776c-0.85774,-2.2622 -0.97447,-7.39253 -0.97447,-7.39253l176.07577,-0.75584c0,0 -0.55547,4.01527 -1.29616,6.13824c-0.80458,2.30607 -3.35553,7.1944 -3.35553,7.1944c0,0 -1.74515,0.0062 -4.87316,0.01733c-1.4807,0.00526 -2.1046,28.34496 -4.1666,28.3523c-0.53694,0.00191 -0.25896,-8.1529 -0.83204,-15.42891c-0.54152,-6.87534 -3.09887,-12.8946 -3.67147,-12.89256c-31.12636,0.11067 -107.33347,0.38161 -136.66399,0.4859c-2.5851,0.00919 -1.63874,11.40654 -3.39992,10.82347c-4.51993,-1.49642 -5.75036,-10.79093 -6.60138,-10.78791c-3.46538,0.01232 -6.22249,0.02212 -6.22249,0.02212z" fill="#000000"/></g><path d="M383.68906,117.84857c-0.1819,-0.72761 0.54571,-0.90951 0.54571,-0.90951l0.43254,-0.0631c1.5672,-1.02641 2.58097,-2.51652 3.16973,-4.19236c-0.23377,-0.87255 -0.30263,-1.72314 -0.15581,-2.49735c0,0 0.13326,-0.66631 0.78032,-0.60364c0.02653,-0.36074 0.039,-0.72236 0.03845,-1.08261c0,0 0,-0.75 0.75,-0.75c0.75,0 0.75,0.75 0.75,0.75c-0.00198,1.42993 -0.1892,2.85095 -0.5975,4.18248c0.95547,2.81264 3.93331,6.22932 6.01417,6.56752l0.68625,-0.1521c0,0 0.73544,-0.14709 0.88252,0.58835c0.14709,0.73544 -0.58835,0.88252 -0.58835,0.88252l-0.98042,0.18123c-2.43972,-0.52486 -5.32365,-3.22189 -6.81201,-6.11865c-0.71862,1.3652 -1.73697,2.56708 -3.1053,3.49269l-0.90079,0.27024c0,0 -0.72761,0.1819 -0.90951,-0.54571z" fill="#000000" stroke="none" stroke-width="0.5" stroke-linecap="butt"/><g fill="#ffffff" stroke="none" stroke-width="0.5" stroke-linecap="butt"><path d="M291.12786,158.89206c0.10044,-0.03887 0.227,-0.06336 0.38643,-0.06336c0.77287,0 0.77287,0.57532 0.77287,0.57532l-0.03966,0.20161c0.2677,0.59783 1.71514,2.4976 1.18189,3.01136c-0.65388,0.62997 -3.50575,-0.1041 -3.89447,-0.65442c-0.34565,-0.48935 0.44572,-1.97446 0.43365,-2.55855c0,0 0,-0.57532 0.77287,-0.57532c0.15944,0 0.28599,0.02448 0.38643,0.06336z"/><path d="M305.31046,159.47358c0.57241,-0.25522 0.99134,0.16058 0.99134,0.16058l0.85242,0.86502c0.19765,0.57086 0.80745,1.86609 0.10627,2.38001c-0.51796,0.37964 -2.70797,0.2321 -3.23446,-0.26219c-0.52325,-0.49125 -0.14589,-2.18753 -0.14589,-2.82943c0,0 0,-0.57532 0.77287,-0.57532c0.36282,0 0.55532,0.12679 0.65744,0.26132z"/><path d="M320.62558,158.63694c0.77287,0 0.77287,0.57532 0.77287,0.57532l-0.00579,0.69679c0.12633,0.36682 1.34702,2.81343 1.20246,3.02657c-0.45725,0.67413 -3.4378,0.22673 -3.86681,-0.10918c-0.5385,-0.42165 -0.16369,-2.24839 -0.16369,-2.84709c0,0 0,-0.57532 0.77287,-0.57532c0.23854,0 0.40346,0.05481 0.51747,0.13059l-0.00223,-0.32236c0,0 0,-0.57532 0.77287,-0.57532z"/><path d="M332.856,159.8484c0.10378,-0.13124 0.29572,-0.2526 0.65068,-0.2526c0.77287,0 0.77287,0.57532 0.77287,0.57532l-0.03966,0.00984c0.27755,0.61983 2.0323,2.47792 1.75156,2.94643c-0.53992,0.9011 -4.01569,0.03908 -4.41287,-0.33247c-0.59277,-0.55452 0.13211,-1.78945 0.12474,-2.43203c0,0 0,-0.57532 0.77287,-0.57532c0.15595,0 0.28044,0.02342 0.37981,0.06082z"/><path d="M344.05156,160.00857c0.07866,-0.01851 0.16975,-0.02923 0.27525,-0.02923c0.54195,0 0.70387,0.2829 0.75226,0.45194c1.08506,0.61246 2.67286,2.07117 1.63559,2.987c-0.17132,0.15127 -3.98769,0.38311 -4.19043,0.24421c-0.73834,-0.50589 -0.067,-3.20529 0.00119,-3.91592c0,0 0.05507,-0.57385 0.82597,-0.53286c0.7709,0.04099 0.71584,0.61485 0.71584,0.61485c-0.00575,0.05995 -0.01093,0.11997 -0.01566,0.18001z"/><path d="M350.64015,158.89206c0.00703,-0.00756 0.01434,-0.01515 0.02196,-0.02279c0.46075,-0.4619 1.08126,-0.11892 1.08126,-0.11892l0.76489,0.43592c0.4988,0.59626 2.60885,2.33068 2.04184,3.15985c-0.3997,0.5845 -4.35505,0.97689 -4.92496,0.46265c-0.2901,-0.26177 0.06189,-2.72891 -0.12281,-3.26521c0,0 -0.18745,-0.55814 0.56235,-0.69767c0.24948,-0.04643 0.4367,-0.01562 0.57548,0.04618z"/><path d="M357.59331,158.50953c0.35734,-0.43115 0.99073,-0.1954 0.99073,-0.1954l0.16961,0.13104c0.89266,0.00739 3.17076,0.20682 3.34759,1.11489c0.12648,0.64952 -2.73757,1.66566 -3.45018,1.56484c-1.37403,-0.19442 -1.68822,-1.24768 -2.34384,-1.97705c0,0 -0.42871,-0.47869 0.21435,-0.79781c0.63923,-0.31723 1.06666,0.15389 1.07173,0.15952z"/><path d="M281.46703,155.76036c0.37461,0 0.56764,0.13516 0.66712,0.27446c0.04545,0.02337 0.09123,0.05174 0.137,0.08582c0.45924,0.34185 0.14665,0.68372 0.03512,0.78416c0.59617,0.87256 1.47368,2.39316 -0.3569,3.00848c-0.5634,0.18938 -4.3458,-0.81399 -4.34292,-1.60319c0.00307,-0.84146 1.9798,-1.37574 3.08956,-1.91095l-0.00185,-0.06346c0,0 0,-0.57532 0.77287,-0.57532z"/><path d="M285.73063,158.63694c0.37899,-0.06552 0.78063,-0.06769 1.19723,0h0.3786l0.07265,-0.16225l0.75596,0.18758c0.31581,0.0723 0.54538,0.29118 0.54538,0.54999c0,0.31774 -0.34603,0.57532 -0.77287,0.57532h-0.50031c0.20637,0.73585 -0.01109,1.6799 -0.41844,2.06234c-0.53381,0.50117 -1.4621,0.42754 -2.17271,0.4307c-0.53056,0.00236 -1.98241,0.04721 -2.22715,-0.30385c-0.23502,-0.33713 0.34025,-0.71641 0.48986,-1.07953c0.33031,-0.80171 0.85029,-1.4279 1.49684,-1.82491c0.11388,-0.43538 0.7557,-0.43538 0.7557,-0.43538c0.13309,0 0.26619,0 0.39927,0z"/><path d="M298.14161,159.41663c0.1027,-0.09534 0.23678,-0.16247 0.40854,-0.18899c1.53065,-0.2363 2.79373,2.74755 2.07486,3.40703c-0.73421,0.67354 -3.80098,0.13322 -4.17623,-0.55567c-0.03845,-0.07058 0.7416,-1.6932 0.7332,-2.09965c0,0 0,-0.57532 0.77287,-0.57532c0.06807,0 0.13015,0.00446 0.18676,0.0126z"/><path d="M312.503,160.20562l0.77937,0.22168c0.37076,0.41399 1.85785,1.75455 1.63371,2.23179c-0.35622,0.75844 -4.26074,0.84344 -4.76154,0.27653c-0.05104,-0.05777 0.87337,-2.25626 0.96212,-2.5205c0,0 0.18745,-0.55814 0.93724,-0.41861c0.22235,0.04138 0.36228,0.11957 0.44912,0.2091z"/><path d="M325.75934,160.70046c0.07337,-0.046 0.16802,-0.08613 0.28953,-0.11628c0.7332,-0.18193 0.9776,0.36386 0.9776,0.36386l0.13862,0.40804c3.03824,1.6683 -1.76205,2.6522 -2.70643,1.71489c-0.4824,-0.4788 -0.22637,-2.05387 -0.22637,-2.70808c0,0 0,-0.57532 0.77287,-0.57532c0.77287,0 0.77287,0.57532 0.77287,0.57532c0,0.11151 -0.00706,0.22424 -0.01868,0.33758z"/><path d="M299.62357,169.11036c-0.61626,0.27278 -1.02369,-0.18214 -1.02369,-0.18214c-0.4363,-0.48879 -2.39341,-2.55934 -2.17577,-3.11676c0.3305,-0.84646 3.90255,-1.3709 4.81647,-0.9292c1.2203,0.58976 0.56895,2.66762 0.20554,3.454l-0.88381,0.67967c0,0 -0.44822,0.33366 -0.93874,0.09446z"/><path d="M305.2548,169.47133c-0.64307,-0.31913 -0.21435,-0.79781 -0.21435,-0.79781l0.05929,-0.0662c-0.12396,-0.11699 -0.16602,-0.24222 -0.16602,-0.24222c-0.21054,-0.66105 -1.77653,-2.38616 -1.25235,-3.04451c0.62072,-0.77961 4.40337,-1.28594 5.20535,-0.308c0.98743,1.20408 -1.25553,2.84248 -2.04489,3.72388l-0.51524,0.57532c0,0 -0.42871,0.47869 -1.07177,0.15956z"/><path d="M313.62136,169.1928c-0.07349,0.16607 -0.25854,0.37515 -0.72444,0.37515c-0.77287,0 -0.77287,-0.57532 -0.77287,-0.57532l0.50609,-0.70634c-0.08634,-0.6999 -0.74711,-2.4482 -0.42108,-2.8161c0.50506,-0.56994 3.77453,-1.18264 4.58344,-0.52804c1.81223,1.46652 -1.3738,3.57769 -3.17114,4.25066z"/><path d="M322.87085,168.16613c0.01256,0.02434 0.02384,0.04747 0.03367,0.06926c0,0 0.205,0.4578 -0.32375,0.67461c-0.09948,0.13928 -0.29251,0.27441 -0.66708,0.27441c-0.77287,0 -0.77287,-0.57532 -0.77287,-0.57532l0.03966,-0.3737c0.00919,-0.02048 0.01862,-0.04283 0.0283,-0.06689c-0.42225,-0.72723 -1.10565,-1.76502 -0.82014,-2.3764c0.19946,-0.4271 2.71058,-2.22883 3.58228,-1.44975c0.76329,0.68219 -0.50088,2.73875 -1.10006,3.82379z"/><path d="M326.93831,168.73645c-0.18791,-0.20981 -0.16991,-0.38897 -0.0904,-0.52405c-0.0394,-0.09953 -0.0394,-0.17863 -0.0394,-0.17863c0.00484,-0.70088 0.03083,-2.75429 0.74161,-3.28339c0.72748,-0.54153 4.55081,-0.56697 4.88424,0.41187c0.26479,0.77733 -2.91999,2.97894 -3.65141,3.35022l-0.77287,0.38355c0,0 -0.64307,0.31913 -1.07177,-0.15956z"/><path d="M337.23784,169.02508c0,0 0.20336,0.55504 -0.54227,0.70642c-0.74563,0.15138 -0.94899,-0.40366 -0.94899,-0.40366c-0.26229,-0.71592 -1.72209,-3.0975 -0.83136,-3.81831c1.91396,-1.54885 3.7578,0.56979 3.33233,1.94882l-0.05417,0.05002l0.02059,0.00766l-0.68378,1.01801c-0.07683,0.12066 -0.20842,0.21825 -0.37085,0.27498c0.02599,0.07206 0.05213,0.14409 0.07851,0.21608z"/><path d="M342.41751,168.79291c-0.77287,0 -0.77287,-0.57532 -0.77287,-0.57532c0.0036,-0.7216 -0.91407,-2.39959 -0.7006,-2.92771c0.11384,-0.28165 2.35764,-0.84902 2.66287,-0.62524c0.40038,0.29353 0.53573,1.66696 0.6122,2.24917l-0.07505,0.09093l0.05372,0.00999l-0.2537,0.75541c-0.0781,0.2562 -0.38591,0.44746 -0.75371,0.44746c0,0 0,0.57532 -0.77287,0.57532z"/></g></g></g></svg>