<svg version="1.1" xmlns="http://www.w3.org/2000/svg" xmlns:xlink="http://www.w3.org/1999/xlink" width="34.17311" height="34.17311" viewBox="0,0,34.17311,34.17311"><defs><linearGradient x1="319.3575" y1="180.714" x2="319.3575" y2="198.03025" gradientUnits="userSpaceOnUse" id="color-1"><stop offset="0" stop-color="#3c260d"/><stop offset="1" stop-color="#2b1b09"/></linearGradient><linearGradient x1="319.3575" y1="180.714" x2="319.3575" y2="198.03025" gradientUnits="userSpaceOnUse" id="color-2"><stop offset="0" stop-color="#3c260d"/><stop offset="1" stop-color="#2b1b09"/></linearGradient></defs><g transform="translate(-302.91346,-162.91347)"><g stroke-miterlimit="10"><path d="M309.98312,162.91348h20.03379c3.9166,0 7.06966,3.15307 7.06966,7.06966v20.03379c0,3.91659 -3.15306,7.06966 -7.06966,7.06966h-20.03379c-3.91659,0 -7.06966,-3.15307 -7.06966,-7.06966v-20.03379c0,-3.91659 3.15307,-7.06966 7.06966,-7.06966z" fill="#3c260d" fill-rule="evenodd" stroke="none" stroke-width="4.43922" stroke-linecap="round" stroke-linejoin="round"/><g fill-rule="nonzero" stroke="#000000" stroke-width="3" stroke-linecap="butt" stroke-linejoin="miter"><path d="M310.95219,184.07839c0.0051,-0.00159 0.01009,-0.00353 0.01491,-0.00587c0.02511,-0.01215 0.01617,-0.06915 0.04398,-0.07132c0.02324,-0.00181 0.01573,0.04976 0.02939,0.06865c0.04253,0.05883 0.17421,0.1853 0.24078,0.21253c0.21407,0.08757 0.1383,-0.09125 0.26854,-0.12273c0.05441,-0.01315 0.07241,0.10446 0.12604,0.1205c0.04689,0.01404 0.09168,-0.00584 0.1406,-0.00731c0.0091,-0.02495 0.00279,-0.06496 0.02738,-0.07498c0.01946,-0.00792 0.03214,0.03671 0.04877,0.04955c0.06712,0.05179 0.19437,0.13258 0.27648,0.15186c0.13826,0.03247 0.40962,-0.05343 0.53178,-0.12044c0.04944,-0.02713 0.07435,-0.13233 0.12717,-0.11254c0.02074,0.00777 0.00997,0.05004 0.01751,0.07086c0.05689,0.1572 0.11662,0.35509 0.31433,0.22429c0.03039,-0.02011 0.05231,-0.05136 0.0782,-0.07701c0,0 0.01552,-0.01543 0.01611,-0.0362c0.06394,0.04657 0.14125,0.05487 0.16826,0.00901c0.07811,0.19887 0.22465,0.41317 0.33719,0.59088c0.02898,0.04575 0.10834,0.16617 0.16689,0.17374c0.07469,0.00966 0.3064,-0.22145 0.34762,-0.19933c0.0619,0.03322 0.0627,0.15451 0.13223,0.16461c0.07923,0.01152 0.11067,-0.02858 0.1445,-0.06848c0.03469,0.00491 0.07562,-0.00645 0.10895,-0.02254c0.06426,0.05337 0.13637,0.08651 0.21993,0.08016c0.05775,0.05993 0.11289,0.12354 0.17001,0.13164c0.0295,0.00419 0.05261,-0.00847 0.07929,-0.02561c0.04505,0.01263 0.10122,0.02319 0.1508,0.03191c0.04807,0.0438 0.10026,0.0846 0.13972,0.13488c0.02304,0.02935 0.02546,0.07944 0.05937,0.09499c0.02807,0.01286 0.0559,0.01726 0.08349,0.01563c-0.00083,0.0601 0.00261,0.12161 0.00261,0.18402c0,0.03698 0.02417,0.18636 0.00754,0.21506c-0.02376,0.04099 -0.18214,0.01234 -0.21323,0.01912c-0.09911,0.02161 -0.23437,0.09769 -0.31952,0.04599c-0.15209,-0.12895 -0.29042,-0.17241 -0.47644,-0.06313c-0.04997,0.02935 -0.07253,0.12545 -0.12976,0.1163c-0.0811,-0.01298 -0.19682,-0.22887 -0.30775,-0.25635c-0.06255,-0.0155 -0.1852,0.01805 -0.23832,0.05126c-0.04411,0.02758 -0.06462,0.11576 -0.11562,0.10556c-0.13263,-0.02653 -0.14801,-0.34766 -0.32947,-0.36303c-0.04204,-0.00356 -0.07783,0.03442 -0.11638,0.05156c-0.0219,0.02645 -0.05102,0.04852 -0.06608,0.07938c-0.00986,0.02019 0.0145,0.05775 -0.0059,0.06714c-0.01912,0.00879 0.00367,-0.0431 -0.00299,-0.06306c-0.01094,-0.03277 -0.03181,-0.06152 -0.04891,-0.09153c-0.03163,-0.05551 -0.13554,-0.27025 -0.19844,-0.28475c-0.11644,-0.02686 -0.20981,0.17358 -0.22375,0.25402c-0.00359,0.02076 0.01811,0.05431 0.00215,0.06805c-0.01472,0.01268 -0.00535,-0.03934 -0.01391,-0.05679c-0.01411,-0.02874 -0.03744,-0.05259 -0.05361,-0.08023c-0.03287,-0.0562 -0.06979,-0.11236 -0.11581,-0.15842c-0.05156,-0.05162 -0.17629,-0.21355 -0.24632,-0.22852c-0.08038,-0.01719 -0.18109,0.04724 -0.24656,-0.00246c-0.18556,-0.13091 -0.38229,-0.34395 -0.6101,-0.40237c-0.08139,-0.02087 -0.18327,0.02278 -0.26304,-0.00021c-0.13282,-0.03829 -0.25921,-0.41631 -0.28062,-0.58796z" fill="#2b410d"/><path d="M327.19163,185.17283c-0.05793,0.10318 -0.09995,0.19241 -0.19563,0.08833l-0.04571,-0.08322c-0.00851,-0.01632 -0.01889,-0.02634 -0.03857,-0.02634c-0.02296,0 -0.04243,0.01534 -0.04884,0.03621l-0.03202,0.09613l0.02213,0.00738c-0.02146,0.05149 -0.04743,0.09619 -0.07918,0.09414c-0.11158,-0.00722 -0.1512,-0.16979 -0.2731,-0.1476c-0.13809,0.02513 -0.13699,0.35546 -0.32491,0.15928c-0.02026,-0.02115 -0.03708,-0.04595 -0.05088,-0.07179c-0.01427,-0.02668 -0.02234,-0.05627 -0.0333,-0.08448l-0.01864,-0.08549c-0.00459,-0.02349 -0.02684,-0.04136 -0.05167,-0.04136c-0.02819,0 -0.04827,0.01667 -0.04827,0.04487l-0.00285,0.08829c-0.02239,0.05159 -0.05258,0.09971 -0.09044,0.11248c-0.03314,0.01117 -0.07482,-0.01586 -0.1055,0.00091c-0.05357,0.02928 -0.04855,0.11559 -0.09219,0.15828c-0.02563,0.02508 -0.02862,-0.06698 -0.03476,-0.10232c-0.00826,-0.04745 -0.03148,-0.21424 -0.1031,-0.22341c-0.11259,-0.01442 -0.13243,0.17605 -0.22361,0.20314c-0.14605,0.04339 -0.26621,-0.13004 -0.34429,-0.21616l-0.05371,-0.08253c-0.00903,-0.01433 -0.01822,-0.02424 -0.03641,-0.02424c-0.02249,0 -0.04157,0.01444 -0.04838,0.03462l-0.02784,0.07625l0.02461,0.00892c-0.00607,0.02101 -0.01229,0.04182 -0.02008,0.06205c-0.02796,0.07264 -0.11183,-0.04626 -0.11496,-0.06436c-0.0116,-0.06717 -0.03348,-0.31188 -0.00705,-0.36949c0.01386,-0.03021 0.20732,-0.01175 0.22057,-0.01175c0.27004,0 0.52497,-0.03901 0.79618,-0.04304c0.18072,-0.09036 0.39487,-0.0036 0.58832,-0.04045c0.21022,-0.04005 0.3854,-0.13999 0.60487,-0.13999c0.07711,0 0.16947,-0.0324 0.23595,-0.06855c0.02954,-0.01605 0.16925,0.03879 0.19205,0.01409c0.02162,-0.02342 0.04877,0.02684 0.0969,0.01766c-0.0855,0.20553 -0.12427,0.42509 -0.23568,0.62353z" fill="#2b410d"/><path d="M327.61593,184.36546c0,0 0.04576,0.17731 -0.19339,0.25012c-0.60467,0.1841 -2.07556,0.3824 -3.67767,0.3824c-2.23573,0 -4.14937,0.46683 -4.14937,-0.45541c0,-0.92225 1.91362,-0.45542 4.14937,-0.45542c2.23573,0 3.87106,0.27831 3.87106,0.27831z" fill="#3c260d"/><g><path d="M312.7812,187.18488c0.74975,-0.33981 2.46222,-0.46643 2.58074,-0.91996c0.66031,-2.52698 -0.21937,-5.55092 -0.21937,-5.55092h9.90651c0,0 -0.32313,3.59942 -0.49672,6.68182c-0.19804,0 -0.39607,0 -0.5941,0c-3.79782,0 -7.59562,0 -11.39344,0c0.03242,-0.08222 0.0982,-0.15737 0.2164,-0.21094z" fill="url(#color-1)"/><path d="" fill="#2b1a07"/><path d="M318.55361,185.30618c0.00427,0.00313 0.00862,0.00687 0.01297,0.01112c-0.03084,-0.01207 -0.06489,-0.01946 -0.09893,-0.02658c-0.01526,-0.016 -0.03128,-0.03123 -0.04836,-0.04566c0.04458,0.00898 0.08938,0.0282 0.13433,0.06112zM318.46189,185.67206l-0.00187,-0.01067c0.0036,-0.00224 0.00738,-0.00509 0.01081,-0.00865c-0.00248,0.00639 -0.00545,0.01283 -0.00894,0.01933zM318.14761,185.55185c0.00392,-0.02714 0.05378,-0.07791 0.06806,-0.0856c0.00376,0.00008 0.02284,-0.00064 0.04612,-0.00123c-0.0209,0.02935 -0.03766,0.089 -0.07592,0.10122c-0.01259,-0.00509 -0.02573,-0.00926 -0.03824,-0.01439z" fill="#2b1a07"/><path d="" fill="#000000"/></g><path d="M313.87807,171.59099c0.45444,-0.1385 0.93439,-0.19302 1.38817,-0.33158c0.23117,-0.07059 0.60378,-0.19449 0.85176,-0.2266c0.69056,-0.09019 0.9819,0.04234 1.67559,0.07557c0.26745,0.01281 0.83833,-0.24593 1.1037,-0.21137c0.43212,0.05629 0.8263,0.35274 1.25261,0.44413c0.70026,0.15011 1.40356,0.31878 2.10897,0.44224c0.70397,0.1232 1.40885,0.24658 2.11275,0.37015c0.70391,0.12358 1.4084,0.24768 2.11231,0.37127c0.70447,0.12368 1.41905,0.18978 2.12941,0.27269c0.7068,0.0825 1.43657,0.03614 2.14806,0.03614c0.60729,0 1.22211,-0.02747 1.82865,0.00215c0.10553,0.00515 0.19384,0.03784 0.30036,0.03822c0.06671,0.01084 0.1308,0.02135 0.19758,0.03198c0.05102,0.00813 0.15066,-0.03475 0.15407,0.01679c0.00146,0.02226 -0.04122,0.01965 -0.05638,0.03602c-0.00038,0.00041 -0.11289,0.17061 -0.11414,0.1725c-0.11269,0.1704 -0.21958,0.34459 -0.33146,0.51551c-0.04756,0.07265 -0.15558,0.18441 -0.17657,0.26763c-0.04897,0.19416 0.08251,0.15613 0.16847,0.26757c0.03495,0.04531 0.03341,0.10951 0.05122,0.16389c0.0659,0.17784 -0.13162,0.41728 -0.27258,0.51357c-0.09451,0.06456 -0.27489,0.1289 -0.1816,0.28879c0.02981,0.05111 0.25207,0.1013 0.30991,0.12228c0.25613,0.09289 0.51355,0.18227 0.77072,0.27228c0.0975,0.03412 0.15902,0.06667 0.24381,0.11668c0.01814,0.0107 0.065,-0.00276 0.06062,0.01784c-0.00438,0.0206 -0.04844,-0.00987 -0.06932,-0.00708c-0.09536,0.01278 -0.19408,0.06008 -0.28623,0.08825c-0.34654,0.10591 -0.73577,0.17736 -1.07547,0.31488l-0.00136,-0.0053l-0.09786,0.02506c-0.0226,0.00527 -0.03944,0.02553 -0.03944,0.04973c0,0.0182 0.00954,0.0342 0.02388,0.04323l0.08486,0.05531l0.0005,-0.00076l0.0028,0.00274c0.19018,0.08675 0.35705,0.1701 0.52878,0.28739c0.00056,0.00038 0.19727,0.11142 0.16812,0.12567c-0.0499,0.02438 -0.11691,-0.01659 -0.17245,-0.01657c-0.1076,0.00006 -0.20644,0.0015 -0.30721,0.01394l-0.00021,-0.00898l-0.09517,0.00154c-0.02769,0.00056 -0.04998,0.02321 -0.04998,0.05105c0,0.01526 0.0067,0.02896 0.01731,0.03832l0.0761,0.06771l0.00022,-0.00026l0.00091,0.00124c0.11831,0.08688 0.09456,0.15813 -0.01706,0.23976c-0.16686,0.12721 -0.52076,0.31901 -0.41071,0.58323c0.06151,0.14769 0.3347,0.18763 0.3938,0.31511c0.02415,0.0521 -0.18442,0.09816 -0.1995,0.1037c-0.10395,0.03815 -0.41229,0.08628 -0.35871,0.26523c0.00698,0.02331 0.18177,0.09883 0.21246,0.11277c0.06023,0.02738 0.12399,0.04799 0.18083,0.08186c0.39345,0.23446 -0.28415,0.33837 -0.45102,0.40661c-0.04478,0.01832 -0.11863,0.01618 -0.13076,0.06301c-0.04174,0.16125 0.11055,0.12823 0.17181,0.16963c0.02416,0.01633 0.05411,0.07408 0.02648,0.08338c-0.0437,0.01472 -0.11413,0.01443 -0.17831,0.01588l-0.00009,-0.02824l-0.09529,0.00088c-0.02812,0.00008 -0.0509,0.02292 -0.0509,0.05106c0,0.02354 0.01593,0.04337 0.0376,0.04927l0.09357,0.02781c0.05134,0.02551 0.11251,0.03403 0.15697,0.07019c0.04622,0.03761 -0.09663,0.07314 -0.15296,0.09254c-0.15509,0.0534 -0.3623,-0.02866 -0.50423,0.03356c-0.04664,0.02044 -0.10376,0.05039 -0.11561,0.09991c-0.01794,0.07497 0.12393,0.19756 0.16616,0.24358c0.01292,0.01409 -0.03679,-0.02633 -0.05514,-0.03172c-0.0444,-0.01305 -0.09255,-0.04983 -0.13005,-0.02273c-0.03767,0.02722 -0.01712,0.09156 -0.02121,0.13787c-0.01172,0.13258 -0.00929,0.27862 0.0264,0.40599c0.0062,0.0217 0.08566,0.19794 0.03926,0.21877c-0.13312,0.05979 -0.29371,-0.18349 -0.34719,0.0781c-0.0029,0.0142 0.03964,0.18792 0.04273,0.20973c0.01947,0.1375 0.027,0.26994 0.05566,0.40699c0.01043,0.04989 0.08857,0.12868 0.04113,0.1473c-0.04886,0.01917 -0.08105,-0.07639 -0.12335,-0.10745c-0.06249,-0.04587 -0.11377,-0.08131 -0.17057,-0.11267l0.00589,-0.00804l-0.0819,-0.06002c-0.00853,-0.00641 -0.01257,-0.00842 -0.02407,-0.00842c-0.02819,0 -0.05104,0.02287 -0.05104,0.05106c0,0.00983 0.00277,0.01902 0.00759,0.02681l0.0517,0.08707c0.01231,0.02033 0.10844,0.21422 0.09306,0.23099c-0.01635,0.01782 -0.04734,-0.01572 -0.07137,-0.01297c-0.08123,0.00929 -0.08203,0.04925 -0.15612,0.03277c-0.02114,-0.0047 -0.04403,-0.01467 -0.05785,-0.02496l-0.03503,-0.07003c-0.00819,-0.01728 -0.01926,-0.02721 -0.03965,-0.02721c-0.02038,0 -0.03797,0.01195 -0.04616,0.02922l-0.03978,0.07958l0.00205,0.00103l-0.00517,0.00677c-0.02807,0.1977 -0.01133,0.38897 -0.02257,0.57873c-0.00282,0.0476 -0.02203,-0.11157 -0.06742,-0.1262c-0.19236,-0.06202 -0.19394,0.1735 -0.19669,0.27672c-0.00083,0.06238 -0.00801,0.18954 -0.03735,0.24285c-0.00712,0.01296 -0.00824,-0.03375 -0.01686,-0.04575c-0.01526,-0.02124 -0.1552,-0.15471 -0.16697,-0.15616c-0.06267,-0.0078 -0.18268,0.09795 -0.21235,0.14551c-0.04055,0.06503 -0.03794,0.30835 -0.1037,0.34501c-0.02397,0.01335 -0.06167,-0.01693 -0.08231,0.00115c-0.03294,0.02883 -0.04783,0.07608 -0.05516,0.11924c-0.00892,0.05254 0.07317,0.14033 0.02298,0.15825c-0.03392,0.01212 -0.0605,-0.03372 -0.08236,-0.07232c0.00151,-0.00086 0.00302,-0.00181 0.00457,-0.00286c0.04228,-0.02859 0.0137,-0.07086 0.0137,-0.07086l-0.08032,-0.1188c-0.00912,-0.0139 -0.01876,-0.02005 -0.03664,-0.02005c-0.02586,0 -0.04724,0.01925 -0.0506,0.0442l-0.01494,0.09843c-0.00768,0.03175 -0.45268,-0.56045 -0.44893,-0.8422l0.01768,0.02182c0.00883,0.01524 0.01912,0.02269 0.038,0.02269c0.02819,0 0.05104,-0.02282 0.05104,-0.05103c0,-0.00486 -0.00069,-0.00957 -0.00196,-0.01402l-0.02422,-0.0927c0.0007,-0.03021 0.00114,-0.06038 0.00127,-0.09059l0.03139,-0.03019c0,0 0.02878,-0.04215 -0.01338,-0.07092c-0.04216,-0.02878 -0.06465,0.01596 -0.06465,0.01596l-0.02761,0.0493l-0.00628,-0.04375v0c0,-0.0282 -0.01656,-0.04845 -0.04475,-0.04845c-0.02819,0 -0.05106,0.02288 -0.05106,0.05107v0l-0.00002,0.1021c-0.00043,0.34155 -0.10731,1.14545 -0.14094,1.16621l-0.05696,-0.06341c-0.00936,-0.01113 -0.01752,-0.01482 -0.03321,-0.01482c-0.02808,0 -0.05087,0.02268 -0.05106,0.05071l-0.00083,0.10201c-0.00038,0.03367 -0.0022,0.06719 -0.00497,0.10061c-0.02663,0.01342 -0.05086,0.0211 -0.06943,0.01911c0,0 -0.05106,0.00002 -0.05106,0.05107c0,0.05105 0.0453,0.04742 0.0453,0.04742c0.01907,-0.00109 0.04398,-0.001 0.06307,-0.00651c-0.01256,0.097 -0.02885,0.1938 -0.037,0.29156c-0.00535,0.06404 0.01162,0.22572 -0.01689,0.28092c-0.01434,0.02777 -0.13982,0.02235 -0.14035,0.02264c-0.03627,0.01986 -0.06185,0.05657 -0.08351,0.0918c-0.0115,0.01871 0.00853,0.07046 -0.01265,0.06467c-0.0238,-0.00651 0.00682,-0.06204 -0.01558,-0.07238c-0.0452,-0.02087 -0.10634,-0.02885 -0.14934,-0.00376c-0.00563,0.00329 -0.08115,0.1941 -0.08942,0.21477c-0.01886,0.0472 0.00324,0.132 -0.04577,0.14552c-0.05532,0.01528 -0.20668,-0.2716 -0.25383,-0.28244c-0.12009,-0.02762 -0.13755,0.08035 -0.17739,0.14338c-0.05186,0.08205 -0.17143,0.34047 -0.25589,0.38164c-0.05023,0.02449 -0.09337,-0.05841 -0.11317,-0.07337c-0.0539,-0.0407 -0.12374,-0.05674 -0.17779,-0.09723c-0.07272,-0.05448 -0.14981,-0.20924 -0.26212,-0.19441c-0.04258,0.00563 -0.06819,0.05233 -0.10228,0.07847c-0.08805,0.07847 -0.13095,0.1555 -0.18981,0.25666c-0.02868,0.04928 -0.03208,0.12135 -0.08092,0.15077c-0.03854,0.02321 -0.07902,-0.04396 -0.11409,-0.07214c-0.08765,-0.07044 -0.32431,-0.35926 -0.46146,-0.30508c-0.04144,0.01638 -0.0359,0.08175 -0.05732,0.12082c-0.03721,0.06787 -0.06105,0.06748 -0.09904,0.14337c-0.00927,0.01851 0.00417,0.06862 -0.01479,0.06032c-0.02082,-0.00911 0.00167,-0.05255 -0.00733,-0.07343c-0.01472,-0.03413 -0.03699,-0.05674 -0.06102,-0.08511c-0.07048,-0.08321 -0.15885,-0.15812 -0.23883,-0.23172c-0.23341,0.0245 -0.3218,0.24784 -0.48969,0.39392c-0.03258,0.02835 -0.15482,0.17088 -0.20366,0.16796c-0.0883,-0.00527 -0.16328,-0.32219 -0.3199,-0.21855c-0.03954,0.02616 -0.02623,0.09126 -0.03564,0.13773c-0.02793,0.13801 -0.06297,0.36013 -0.01959,0.51c-0.14781,-0.12963 -0.24937,-0.3246 -0.4003,-0.43998c-0.03901,-0.02982 -0.08266,-0.07691 -0.13088,-0.06765c-0.07522,0.01443 -0.20786,0.30356 -0.24887,0.36918c-0.0295,0.0472 -0.01875,0.14051 -0.07362,0.14992c-0.02177,0.00374 -0.02371,-0.03775 -0.03945,-0.05322c-0.11036,-0.10841 -0.29549,-0.42902 -0.40019,-0.19063c-0.01441,0.0328 -0.00999,0.07098 -0.01498,0.10646c-0.01358,0.10147 -0.02481,0.17132 -0.00387,0.26814c0.00266,0.01233 -0.00948,-0.02377 -0.0174,-0.03358c-0.04034,-0.04997 -0.08769,-0.09394 -0.13024,-0.14205c-0.07934,-0.08973 -0.21185,-0.2679 -0.34676,-0.27517c-0.11064,-0.00596 -0.27457,0.16882 -0.33595,0.24531c-0.03274,0.04078 -0.0519,0.11648 -0.1042,0.1174c-0.05024,0.00088 -0.06256,-0.07894 -0.09811,-0.11445c-0.07552,-0.07542 -0.13644,-0.15727 -0.20317,-0.24063c-0.0954,-0.02184 -0.24033,-0.08021 -0.33814,-0.03463c-0.05102,0.02378 -0.2022,0.12962 -0.25076,0.16635c-0.02152,0.01628 -0.026,0.0569 -0.05258,0.06155c-0.11294,0.01978 -0.15643,-0.11964 -0.30696,-0.02323c-0.0856,0.05482 -0.10471,0.10484 -0.11892,0.19939c-0.0032,0.02137 0.02296,0.05474 0.00379,0.06473c-0.0181,0.00944 -0.02607,-0.03168 -0.04143,-0.04512c-0.05319,-0.04653 -0.19112,-0.1778 -0.25772,-0.19136c-0.25464,-0.05186 -0.11176,0.16646 -0.25032,0.24538c-0.07097,-0.11194 -0.24266,-0.19819 -0.38175,-0.15452c-0.11055,0.03471 -0.19769,0.24564 -0.30284,0.26699c-0.10287,0.02088 -0.26822,-0.13421 -0.38098,-0.12798c-0.03778,0.00208 -0.07622,0.01916 -0.11463,0.04174c0.00077,-0.02703 -0.13945,0.06461 -0.23359,0.06321c-0.09744,-0.00145 -0.33809,-0.19026 -0.38049,-0.22454c-0.01954,-0.01175 -0.1843,-0.11247 -0.19914,-0.11404c-0.25763,-0.02702 -0.44238,0.41224 -0.70011,0.39692c-0.09843,-0.00585 -0.33014,-0.12378 -0.40594,-0.19024c-0.05033,-0.04412 -0.15685,-0.22624 -0.20985,-0.24384c-0.11517,-0.03825 -0.18678,0.07674 -0.26802,0.13554c-0.04323,-0.06537 -0.09053,-0.12608 -0.12066,-0.12752c-0.03701,-0.00177 -0.06,0.03655 -0.085,0.06904c-0.04685,0.00393 -0.11153,0.03896 -0.17834,0.07671c-0.00683,-0.00115 -0.01365,-0.00235 -0.02042,-0.00361c-0.06807,-0.03757 -0.21378,-0.09781 -0.28096,-0.11255c-0.0387,-0.00849 -0.08008,-0.01583 -0.12219,-0.02313c-0.00813,-0.00353 -0.01627,-0.00709 -0.02442,-0.01066c-0.05408,-0.07331 -0.11322,-0.13321 -0.17581,-0.12785c-0.01686,0.00145 -0.02855,0.01615 -0.03825,0.03492c-0.03371,-0.01541 -0.0757,-0.03608 -0.11666,-0.05927c-0.00576,-0.00714 -0.01228,-0.01151 -0.01886,-0.01402c-0.0244,-0.03161 -0.04851,-0.06067 -0.07235,-0.07503c-0.01612,-0.0097 -0.03389,-0.01614 -0.05255,-0.01991c-0.00399,-0.00537 -0.00731,-0.01067 -0.00987,-0.01588c-0.02559,-0.05202 0.00518,-0.22387 0.00518,-0.28381c0,0 -0.00003,-0.05107 -0.05108,-0.05107c-0.05105,0 -0.04663,0.04587 -0.04663,0.04587c0,0.07002 -0.02286,0.22151 -0.00379,0.30253c-0.00815,0.00169 -0.02051,0.0089 -0.02846,0.01106c-0.02708,-0.00785 -0.05583,-0.01284 -0.08409,-0.01349c-0.03159,-0.03817 -0.06058,-0.08038 -0.08754,-0.11968l-0.00199,-0.00144l0.00051,-0.00042l-0.06524,-0.07808c-0.00936,-0.01137 -0.02356,-0.01863 -0.03943,-0.01863c-0.02819,0 -0.04651,0.01777 -0.04651,0.04596c0,0.00421 0.00051,0.0083 0.00147,0.01221l0.022,0.09854l0.00446,-0.001c0.00335,0.06205 0.01283,0.12686 0.03654,0.16983c-0.01473,0.017 -0.03546,0.03365 -0.05673,0.03048c-0.06338,-0.00943 -0.04866,-0.13783 -0.10945,-0.15811c-0.15594,-0.05201 -0.24187,0.20361 -0.36662,0.19334c-0.04798,-0.00394 -0.12759,-0.18081 -0.14541,-0.21405c-0.09384,-0.17508 -0.2324,-0.34035 -0.29569,-0.52737l-0.00167,-0.00208l0.00065,-0.0003l-0.04219,-0.09174c-0.00784,-0.0181 -0.02588,-0.03079 -0.04688,-0.03079c-0.02717,0 -0.04428,0.01675 -0.04585,0.04353l-0.00827,0.05149c-0.09926,0.11862 -0.19214,-0.32464 -0.22785,-0.4409l-0.00295,-0.0033l0.0012,-0.0006l-0.0398,-0.07958c-0.00819,-0.01728 -0.02578,-0.02922 -0.04616,-0.02922c-0.01735,0 -0.03269,0.00866 -0.04191,0.0219c-0.02902,-0.07092 -0.07361,-0.13963 -0.09416,-0.21786c-0.01619,-0.06163 -0.02909,-0.1243 -0.03991,-0.1874c0.0056,-0.00752 0.00916,-0.01665 0.00992,-0.02654l0.00873,-0.10125l-0.0142,-0.00123c0.00491,-0.02663 0.00848,-0.05297 0.01116,-0.07944c0.00793,0.00507 0.02301,0.00421 0.03312,0.00421c0.02756,0 0.04436,-0.01803 0.04537,-0.04534l0.00431,-0.10177l-0.01598,-0.00069c0.01409,-0.1371 -0.02101,-0.24657 -0.04474,-0.41025c-0.00896,-0.06181 0.00797,-0.20202 -0.09354,-0.22294c-0.05138,-0.01058 -0.14613,0.10233 -0.19309,0.12476c-0.05919,0.02827 -0.13228,0.01092 -0.19398,0.0332c-0.02121,0.00767 -0.02825,0.04422 -0.05079,0.04468c-0.04465,0.00091 -0.00511,-0.08928 -0.00444,-0.13394l-0.00002,-0.09928c0,0 -0.00002,-0.05108 -0.05106,-0.05108c-0.05105,0 -0.04499,0.04794 -0.04499,0.04794l-0.00002,0.09923c0.00081,0.06791 -0.01769,0.19474 0.07608,0.23129c0.00815,0.00317 0.29926,-0.07397 0.31901,-0.08321c0.05255,-0.02462 0.072,-0.10637 0.12908,-0.11685c0.04516,-0.00829 0.00619,0.09164 0.01254,0.13711c0.00623,0.0446 0.0122,0.10468 0.02071,0.16732c-0.0194,0.00688 -0.03341,0.02512 -0.03399,0.04673c-0.00833,-0.00591 -0.02431,-0.00583 -0.03531,-0.00583c-0.02819,0 -0.04525,0.01929 -0.04525,0.04749l-0.00001,0.08052h0.00185l0.00045,0.01941l0.00265,-0.00006l-0.00253,0.00264c0.03783,0.30418 0.04472,0.637 0.23864,0.86942l-0.0133,0.01128l0.06581,0.07755c0.00936,0.01118 0.02342,0.01827 0.03914,0.01827c0.0027,0 0.00534,-0.0002 0.00793,-0.00061c0.03641,0.13515 0.06716,0.28976 0.15239,0.39932c-0.02038,0.00095 -0.03543,0.016 -0.03543,0.016c-0.03719,0.03761 -0.07036,0.11706 -0.12288,0.11084c-0.08909,-0.01057 -0.0883,-0.32076 -0.18831,-0.35027c-0.08677,-0.02559 -0.14842,0.08781 -0.20653,0.1203c-0.09541,0.05335 -0.26452,0.09312 -0.37303,0.10667c-0.19041,0.02379 -0.39713,-0.30209 -0.5148,-0.11147c-0.08227,-0.00632 -0.14661,-0.13557 -0.21666,-0.12847c-0.07152,0.00726 -0.09101,0.12072 -0.15802,0.14676c-0.13378,0.05199 -0.27164,-0.29429 -0.37081,-0.30531c-0.05412,-0.00601 -0.09073,0.09455 -0.14292,0.07907c-0.09855,-0.02922 -0.12442,-0.14231 -0.21258,-0.18023c-0.13808,-0.0594 -0.15097,-0.02999 -0.20076,0.08292c-0.00727,0.01649 0.0058,0.05662 -0.01221,0.05712c-0.03071,0.00086 -0.14697,-0.15918 -0.16355,-0.18446c-0.0762,-0.1143 -0.15069,-0.21775 -0.25527,-0.30894c-0.02955,-0.02577 -0.04802,-0.07928 -0.087,-0.075c-0.19777,0.02172 -0.15292,0.3553 -0.25798,0.44557c-0.01332,0.01145 -0.11439,-0.19117 -0.11591,-0.19422c-0.06095,-0.12187 -0.21654,-0.47313 -0.26232,-0.48317c-0.13297,-0.02917 -0.589,-0.88541 -0.6904,-1.37947l-0.00429,-0.00521l0.00178,-0.00087l-0.04032,-0.0822c-0.00811,-0.01746 -0.0258,-0.02958 -0.04632,-0.02958c-0.02562,0 -0.0403,0.01695 -0.04397,0.04155c0,0 -0.08086,0.13553 -0.10041,0.08339c-0.04395,-0.11721 -0.07202,-0.23978 -0.09942,-0.36219c0.00804,-0.00903 0.01293,-0.02092 0.01293,-0.03396c0,-0.00606 -0.00106,-0.01189 -0.003,-0.01728l-0.03191,-0.09576l-0.00256,0.00085l-0.01511,-0.04164c-0.0314,-0.18611 -0.09832,-0.37025 -0.16201,-0.54584l-0.02974,-0.08198c-0.0068,-0.02021 -0.0259,-0.03478 -0.0484,-0.03478c-0.02819,0 -0.04436,0.02157 -0.04436,0.04977l-0.00001,0.10208l0.02546,-0.00001c-0.01144,0.11258 -0.03251,0.2482 -0.04197,0.25355c-0.05452,0.03081 -0.16058,-0.22723 -0.1754,-0.25643l-0.03973,-0.07946c-0.00819,-0.01728 -0.02577,-0.02922 -0.04615,-0.02922c-0.02509,0 -0.03927,0.01683 -0.04355,0.04069l-0.01985,0.09916l0.02028,0.00406c-0.00432,0.02016 -0.01513,0.04169 -0.01962,0.0617c-0.00751,0.03351 -0.01699,-0.06689 -0.02007,-0.1011c-0.00305,-0.0339 -0.00844,-0.06756 -0.01267,-0.10134c-0.01304,-0.10404 0.03985,-0.48495 -0.09055,-0.52447c-0.04413,-0.01337 -0.08035,0.02959 -0.12275,0.04771c-0.15599,0.06665 -0.305,0.1336 -0.46564,0.19073c-0.0872,0.03101 -0.24974,0.10863 -0.22158,-0.00993c-0.00232,-0.14885 0.12333,-0.40482 0.21736,-0.52442c0.03542,-0.04505 0.16646,-0.10599 0.16658,-0.16857c0.00007,-0.03906 -0.07601,-0.03412 -0.09544,-0.068c-0.01238,-0.0216 0.01119,-0.04863 0.01443,-0.07331c0.00826,-0.06296 -0.00806,-0.13049 0.01402,-0.19004c0.04321,-0.11654 0.21263,-0.22342 0.20652,-0.36466c-0.00824,-0.19061 -0.32573,-0.22086 -0.46203,-0.261c-0.02912,-0.00857 -0.32271,-0.07409 -0.30165,-0.12524c0.02193,-0.05326 0.09569,-0.06448 0.14013,-0.1011c0.15021,-0.12375 0.35736,-0.24618 0.47994,-0.39677c0.01046,-0.01284 0.10619,-0.20081 0.10656,-0.21113c0.00365,-0.10233 -0.1156,-0.16858 -0.08468,-0.27826c0.03181,-0.11283 0.13807,-0.24036 0.19622,-0.34305c0.06328,-0.11199 0.29318,-0.3235 0.24129,-0.46374c-0.02321,-0.06276 -0.12795,-0.04833 -0.17808,-0.09265c-0.02002,-0.0177 0.14734,-0.1654 0.15285,-0.17092c0.12142,-0.12142 0.2532,-0.2134 0.38446,-0.32255c0.0308,-0.02561 0.08279,-0.04138 0.08879,-0.08097c0.02324,-0.15329 -0.28307,-0.31104 -0.38371,-0.38576c-0.07564,-0.10995 -0.15223,-0.2193 -0.22861,-0.32873c-0.03366,-0.04821 -0.106,-0.08094 -0.1077,-0.13972c-0.0018,-0.06212 0.16988,-0.26027 0.20645,-0.31971c0.19279,-0.31341 0.36568,-0.65384 0.61302,-0.92665c0.1107,-0.12208 0.50664,-0.43314 0.41935,-0.61469c-0.07898,-0.16425 -0.3528,-0.13832 -0.45914,-0.21941c-0.01129,-0.0086 -0.00173,-0.03289 0.00955,-0.04152c0.17867,-0.13665 0.52345,-0.20385 0.73564,-0.28963c0.66757,-0.26987 1.31817,-0.52163 2.01252,-0.71329c0.45927,-0.12679 0.91877,-0.25385 1.37804,-0.38064c0.127,-0.03506 0.34542,-0.14527 0.47425,-0.13428c0.06194,0.00529 0.11115,0.05575 0.16741,0.08222c0.15271,0.07182 0.30544,0.14359 0.45815,0.2154c-0.03751,0.01286 -0.0713,0.02668 -0.1118,0.03123l-0.03837,0.00008c0,0 -0.05103,0.0005 -0.0505,0.05155c0.00052,0.05105 0.04647,0.04601 0.04647,0.04601c0,0 0.71265,-0.41394 0.92281,-0.47677z" fill="#536112"/></g><g fill-rule="nonzero" stroke-linecap="butt" stroke-linejoin="miter"><path d="M310.95219,184.07839c0.00511,-0.00159 0.01009,-0.00355 0.01492,-0.00588c0.02511,-0.01215 0.01617,-0.06915 0.04398,-0.07132c0.02323,-0.00181 0.01573,0.04976 0.02939,0.06865c0.04253,0.05883 0.17422,0.18531 0.24077,0.21254c0.21409,0.08756 0.1383,-0.09124 0.26854,-0.12273c0.05442,-0.01316 0.0724,0.10446 0.12604,0.1205c0.04689,0.01404 0.09169,-0.00583 0.14061,-0.00731c0.0091,-0.02495 0.00279,-0.06497 0.02738,-0.07498c0.01946,-0.00793 0.03214,0.03671 0.04877,0.04955c0.06711,0.05179 0.19437,0.13258 0.27648,0.15186c0.13827,0.03247 0.40962,-0.05343 0.53178,-0.12044c0.04944,-0.02713 0.07435,-0.13232 0.12717,-0.11254c0.02074,0.00777 0.00997,0.05004 0.01751,0.07086c0.05689,0.1572 0.11662,0.35509 0.31433,0.22429c0.03039,-0.02011 0.05231,-0.05136 0.0782,-0.07701c0,0 0.01552,-0.01543 0.01611,-0.0362c0.06395,0.04656 0.14126,0.05487 0.16827,0.00901c0.07811,0.19887 0.22465,0.41317 0.33719,0.59088c0.02898,0.04575 0.10834,0.16617 0.16689,0.17374c0.0747,0.00966 0.3064,-0.22145 0.34762,-0.19933c0.0619,0.03322 0.06271,0.1545 0.13222,0.16461c0.07923,0.01152 0.11067,-0.02857 0.1445,-0.06848c0.03469,0.00491 0.07563,-0.00645 0.10895,-0.02254c0.06426,0.05337 0.13637,0.08651 0.21993,0.08016c0.05775,0.05993 0.11289,0.12354 0.17001,0.13164c0.0295,0.00419 0.05261,-0.00846 0.07929,-0.02561c0.04505,0.01263 0.10122,0.02319 0.1508,0.03191c0.04807,0.04379 0.10025,0.08461 0.13972,0.13488c0.02303,0.02935 0.02545,0.07944 0.05937,0.09499c0.02805,0.01286 0.0559,0.01726 0.0835,0.01563c-0.00083,0.0601 0.00261,0.12161 0.00261,0.18402c0,0.03698 0.02416,0.18636 0.00753,0.21506c-0.02376,0.041 -0.18213,0.01235 -0.21322,0.01913c-0.09911,0.02161 -0.23437,0.09769 -0.31952,0.04599c-0.15209,-0.12896 -0.29043,-0.1724 -0.47645,-0.06312c-0.04998,0.02936 -0.07252,0.12545 -0.12975,0.1163c-0.0811,-0.01298 -0.19682,-0.22887 -0.30775,-0.25635c-0.06256,-0.01549 -0.1852,0.01805 -0.23832,0.05126c-0.04411,0.02758 -0.06462,0.11578 -0.11563,0.10558c-0.13263,-0.02652 -0.14801,-0.34768 -0.32946,-0.36303c-0.04204,-0.00356 -0.07783,0.03442 -0.11639,0.05155c-0.0219,0.02645 -0.051,0.04853 -0.06608,0.07938c-0.00986,0.02019 0.01449,0.05775 -0.00591,0.06714c-0.01911,0.00879 0.00367,-0.0431 -0.00299,-0.06307c-0.01093,-0.03277 -0.03181,-0.06152 -0.04892,-0.09153c-0.03163,-0.05552 -0.13554,-0.27025 -0.19843,-0.28476c-0.11644,-0.02686 -0.20981,0.17359 -0.22374,0.25403c-0.00359,0.02076 0.0181,0.05431 0.00214,0.06805c-0.01472,0.01268 -0.00535,-0.03935 -0.01391,-0.05679c-0.01411,-0.02874 -0.03744,-0.05259 -0.05361,-0.08023c-0.03287,-0.0562 -0.06981,-0.11236 -0.11581,-0.15842c-0.05156,-0.05162 -0.17628,-0.21355 -0.24631,-0.22852c-0.08038,-0.01719 -0.18109,0.04724 -0.24656,-0.00246c-0.18556,-0.13091 -0.3823,-0.34395 -0.6101,-0.40237c-0.08137,-0.02086 -0.18326,0.02278 -0.26304,-0.00021c-0.13282,-0.03829 -0.25923,-0.41631 -0.28063,-0.58796z" fill="#2b410d" stroke="none" stroke-width="0.5"/><path d="M327.19163,185.17283c-0.05793,0.10319 -0.09995,0.19241 -0.19563,0.08833l-0.04571,-0.08322c-0.00852,-0.01632 -0.01889,-0.02634 -0.03857,-0.02634c-0.02296,0 -0.04242,0.01534 -0.04884,0.0362l-0.03202,0.09615l0.02213,0.00737c-0.02146,0.05149 -0.04743,0.09619 -0.07918,0.09414c-0.11158,-0.00723 -0.15121,-0.16978 -0.2731,-0.1476c-0.13809,0.02513 -0.13699,0.35545 -0.32491,0.15928c-0.02026,-0.02115 -0.03707,-0.04594 -0.05088,-0.07179c-0.01425,-0.02668 -0.02234,-0.05627 -0.0333,-0.08448l-0.01864,-0.08549c-0.00459,-0.02348 -0.02684,-0.04135 -0.05167,-0.04135c-0.02819,0 -0.04827,0.01668 -0.04827,0.04487l-0.00285,0.08829c-0.02238,0.05159 -0.05258,0.09972 -0.09044,0.11249c-0.03313,0.01117 -0.07482,-0.01586 -0.1055,0.00091c-0.05357,0.02928 -0.04855,0.11558 -0.09219,0.15828c-0.02564,0.02508 -0.02862,-0.06698 -0.03477,-0.10232c-0.00826,-0.04745 -0.03147,-0.21425 -0.1031,-0.22342c-0.11259,-0.01442 -0.13244,0.17606 -0.22362,0.20315c-0.14605,0.04339 -0.26621,-0.13005 -0.34429,-0.21616l-0.05371,-0.08252c-0.00905,-0.01433 -0.01821,-0.02425 -0.03641,-0.02425c-0.02249,0 -0.04158,0.01444 -0.04838,0.03463l-0.02783,0.07625l0.0246,0.00892c-0.00607,0.02101 -0.01229,0.04182 -0.02008,0.06205c-0.02796,0.07264 -0.11183,-0.04626 -0.11496,-0.06436c-0.0116,-0.06718 -0.03348,-0.31188 -0.00705,-0.36949c0.01386,-0.03021 0.20731,-0.01175 0.22057,-0.01175c0.27004,0 0.52497,-0.03901 0.79618,-0.04304c0.18072,-0.09036 0.39488,-0.0036 0.58832,-0.04045c0.21022,-0.04005 0.38539,-0.13999 0.60487,-0.13999c0.07711,0 0.16946,-0.0324 0.23593,-0.06855c0.02954,-0.01606 0.16926,0.03879 0.19206,0.01408c0.02161,-0.02343 0.04877,0.02684 0.0969,0.01766c-0.08551,0.20553 -0.12427,0.42509 -0.23568,0.62353z" fill="#2b410d" stroke="none" stroke-width="0.5"/><path d="M327.61593,184.36546c0,0 0.04576,0.17731 -0.19339,0.25012c-0.60467,0.1841 -2.07556,0.3824 -3.67766,0.3824c-2.23575,0 -4.14937,0.46683 -4.14937,-0.45541c0,-0.92225 1.91363,-0.45542 4.14937,-0.45542c2.23575,0 3.87106,0.27831 3.87106,0.27831z" fill="#3c260d" stroke="#000000" stroke-width="0"/><g stroke-width="0"><path d="M312.7812,187.18488c0.74975,-0.33981 2.46223,-0.46643 2.58074,-0.91996c0.66032,-2.52698 -0.21938,-5.55092 -0.21938,-5.55092h9.90651c0,0 -0.32313,3.59942 -0.49672,6.68183c-0.19804,0 -0.39607,0 -0.5941,0c-3.79782,0 -7.59562,0 -11.39344,0c0.03242,-0.08223 0.09819,-0.15737 0.21639,-0.21094z" fill="url(#color-2)" stroke="#000000"/><path d="" fill="#2b1a07" stroke="none"/><path d="M318.55361,185.30618c0.00427,0.00313 0.00862,0.00687 0.01297,0.01112c-0.03084,-0.01207 -0.06489,-0.01946 -0.09893,-0.02658c-0.01526,-0.016 -0.03129,-0.03122 -0.04836,-0.04566c0.0446,0.00897 0.08938,0.0282 0.13433,0.06112zM318.47083,185.65274c-0.00248,0.00638 -0.00545,0.01282 -0.00894,0.01932l-0.00187,-0.01067c0.00361,-0.00224 0.00738,-0.00509 0.01081,-0.00865zM318.21567,185.46625c0.00376,0.00008 0.02285,-0.00064 0.04611,-0.00123c-0.02091,0.02934 -0.03766,0.08899 -0.07593,0.10121c-0.01259,-0.00509 -0.02573,-0.00926 -0.03824,-0.01439c0.00392,-0.02715 0.05378,-0.07791 0.06806,-0.0856z" fill="#2b1a07" stroke="none"/><path d="" fill="#000000" stroke="none"/></g><path d="M312.9552,172.06778l0.04962,-0.00083c0.08108,-0.01043 0.1542,-0.03689 0.22283,-0.07245c0.11473,0.05396 0.2295,0.10788 0.34424,0.16184c0.01003,-0.03446 0.02718,-0.06157 0.04129,-0.09098c-0.09163,-0.04309 -0.18817,-0.09092 -0.27981,-0.13401c0.17677,-0.11808 0.33453,-0.27754 0.54469,-0.34036c0.45445,-0.1385 0.93439,-0.19302 1.38817,-0.33159c0.23117,-0.07059 0.39544,-0.19448 0.64342,-0.22659c0.69056,-0.0902 1.44023,0.00068 2.13392,0.03391c0.26745,0.0128 0.54667,0.00407 0.81205,0.03863c0.43212,0.05629 0.86797,0.18607 1.29428,0.27746c0.70026,0.15011 1.40355,0.27712 2.10897,0.40057c0.70397,0.1232 1.40885,0.24657 2.11275,0.37015c0.70391,0.12358 1.40839,0.24768 2.11231,0.37127c0.70448,0.12368 1.41906,0.18979 2.12943,0.27269c0.7068,0.0825 1.43656,0.03614 2.14806,0.03614c0.60729,0 1.22211,-0.02748 1.82866,0.00215c0.10553,0.00515 0.19383,0.03784 0.30035,0.03823c0.06671,0.01084 0.1308,0.02134 0.19758,0.03198c0.05102,0.00813 0.15066,-0.03475 0.15406,0.0168c0.00146,0.02226 -0.04123,0.01965 -0.05638,0.03601c-0.00038,0.00041 -0.11289,0.17062 -0.11413,0.1725c-0.11269,0.1704 -0.21958,0.34459 -0.33146,0.51551c-0.04755,0.07265 -0.15557,0.18441 -0.17657,0.26763c-0.04897,0.19416 0.0825,0.15614 0.16846,0.26757c0.03495,0.04531 0.03341,0.10952 0.05122,0.16389c0.0659,0.17784 -0.13161,0.41728 -0.27257,0.51358c-0.09451,0.06456 -0.2749,0.1289 -0.18161,0.28879c0.02983,0.05111 0.25209,0.10129 0.30991,0.12227c0.25614,0.09289 0.51355,0.18229 0.77071,0.27229c0.0975,0.03412 0.15901,0.06666 0.2438,0.11666c0.01814,0.0107 0.065,-0.00276 0.06061,0.01784c-0.00438,0.0206 -0.04843,-0.00987 -0.0693,-0.00708c-0.09536,0.01278 -0.19408,0.06007 -0.28623,0.08824c-0.34652,0.10591 -0.73577,0.17735 -1.07547,0.31488l-0.00136,-0.0053l-0.09786,0.02506c-0.0226,0.00526 -0.03944,0.02554 -0.03944,0.04974c0,0.0182 0.00954,0.03419 0.02388,0.04322l0.08485,0.05531l0.0005,-0.00076l0.00281,0.00274c0.19018,0.08676 0.35704,0.1701 0.52877,0.28739c0.00056,0.00037 0.19727,0.11143 0.16812,0.12567c-0.0499,0.02438 -0.1169,-0.0166 -0.17244,-0.01657c-0.1076,0.00006 -0.20645,0.0015 -0.30721,0.01394l-0.00022,-0.00897l-0.09517,0.00154c-0.02769,0.00057 -0.04998,0.02321 -0.04998,0.05104c0,0.01526 0.0067,0.02897 0.01731,0.03832l0.0761,0.06771l0.00023,-0.00025l0.00091,0.00123c0.11831,0.08688 0.09456,0.15813 -0.01706,0.23977c-0.16686,0.12721 -0.52076,0.31901 -0.41071,0.58323c0.06151,0.14769 0.3347,0.18762 0.3938,0.3151c0.02416,0.0521 -0.1844,0.09817 -0.19951,0.10371c-0.10395,0.03815 -0.4123,0.08628 -0.35871,0.26522c0.00698,0.02331 0.18177,0.09883 0.21245,0.11277c0.06023,0.02738 0.12399,0.04799 0.18084,0.08186c0.39346,0.23446 -0.28415,0.33837 -0.45103,0.40661c-0.04478,0.01831 -0.11863,0.01618 -0.13075,0.06301c-0.04174,0.16124 0.11056,0.12823 0.17181,0.16963c0.02416,0.01632 0.05411,0.07408 0.02648,0.08338c-0.0437,0.01472 -0.11413,0.01443 -0.1783,0.01588l-0.00009,-0.02825l-0.09529,0.00089c-0.02812,0.00009 -0.0509,0.02292 -0.0509,0.05106c0,0.02354 0.01594,0.04337 0.03761,0.04927l0.09355,0.02781c0.05134,0.02551 0.11251,0.03402 0.15697,0.07019c0.04622,0.03761 -0.09661,0.07314 -0.15296,0.09255c-0.15509,0.05339 -0.3623,-0.02866 -0.50423,0.03356c-0.04664,0.02044 -0.10376,0.05039 -0.11561,0.09991c-0.01794,0.07497 0.12392,0.19756 0.16616,0.24358c0.01292,0.01409 -0.0368,-0.02634 -0.05514,-0.03173c-0.0444,-0.01306 -0.09254,-0.04982 -0.13005,-0.02273c-0.03767,0.02722 -0.01711,0.09157 -0.02121,0.13787c-0.01172,0.13258 -0.0093,0.27862 0.02639,0.40599c0.0062,0.02169 0.08567,0.19793 0.03926,0.21877c-0.13312,0.05978 -0.2937,-0.18349 -0.34718,0.0781c-0.0029,0.01418 0.03963,0.18792 0.04272,0.20973c0.01947,0.1375 0.027,0.26993 0.05566,0.40699c0.01043,0.04989 0.08857,0.12868 0.04113,0.1473c-0.04886,0.01917 -0.08104,-0.07638 -0.12336,-0.10744c-0.06249,-0.04587 -0.11377,-0.08132 -0.17058,-0.11267l0.00589,-0.00803l-0.0819,-0.06002c-0.00853,-0.00641 -0.01256,-0.00843 -0.02405,-0.00843c-0.02819,0 -0.05106,0.02287 -0.05106,0.05106c0,0.00983 0.00277,0.01902 0.00759,0.02681l0.0517,0.08707c0.01232,0.02033 0.10844,0.21423 0.09306,0.231c-0.01635,0.01782 -0.04735,-0.01572 -0.07137,-0.01297c-0.08123,0.00929 -0.08203,0.04925 -0.15612,0.03277c-0.02114,-0.0047 -0.04404,-0.01467 -0.05786,-0.02496l-0.03503,-0.07002c-0.00819,-0.01727 -0.01927,-0.02721 -0.03965,-0.02721c-0.02038,0 -0.03797,0.01194 -0.04616,0.02922l-0.03978,0.07958l0.00205,0.00102l-0.00517,0.00677c-0.02807,0.1977 -0.01132,0.38897 -0.02257,0.57872c-0.00282,0.0476 -0.02204,-0.11157 -0.06743,-0.12619c-0.19236,-0.06201 -0.19394,0.17349 -0.19669,0.27672c-0.00083,0.06238 -0.008,0.18954 -0.03735,0.24285c-0.00712,0.01296 -0.00824,-0.03373 -0.01686,-0.04574c-0.01526,-0.02124 -0.1552,-0.15472 -0.16697,-0.15617c-0.06267,-0.00779 -0.18268,0.09795 -0.21235,0.14552c-0.04055,0.06503 -0.03794,0.30834 -0.1037,0.34501c-0.02397,0.01335 -0.06167,-0.01692 -0.08231,0.00115c-0.03294,0.02883 -0.04783,0.07608 -0.05516,0.11924c-0.00892,0.05254 0.07317,0.14033 0.02298,0.15825c-0.03392,0.01211 -0.0605,-0.03372 -0.08236,-0.07232c0.00151,-0.00086 0.00303,-0.00181 0.00457,-0.00285c0.0423,-0.02859 0.01369,-0.07086 0.01369,-0.07086l-0.08032,-0.11879c-0.00912,-0.01391 -0.01877,-0.02005 -0.03664,-0.02005c-0.02586,0 -0.04724,0.01925 -0.0506,0.04419l-0.01493,0.09844c-0.01191,0.04916 0.00069,0.11819 -0.04169,0.14562c-0.04771,0.03088 -0.13017,-0.03283 -0.17035,0.00736c-0.02487,0.02487 -0.02852,0.08247 -0.01995,0.135l-0.03162,-0.03599c-0.00934,-0.01208 -0.01805,-0.0165 -0.03449,-0.0165c-0.02785,0 -0.0505,0.02231 -0.05104,0.05004l-0.00142,0.06101c-0.03409,-0.03635 -0.08567,-0.09242 -0.13501,-0.13654c0.00295,-0.08184 -0.00538,-0.17642 -0.00248,-0.21122c0.02346,-0.28145 0.03537,-0.55922 0.03913,-0.84098l0.01768,0.02183c0.00883,0.01524 0.01912,0.0227 0.038,0.0227c0.02819,0 0.05104,-0.02283 0.05104,-0.05102c0,-0.00486 -0.00068,-0.00956 -0.00194,-0.01402l-0.02422,-0.0927c0.0007,-0.03021 0.00114,-0.06038 0.00127,-0.0906l0.03138,-0.03018c0,0 0.02878,-0.04214 -0.01338,-0.07093c-0.04216,-0.02878 -0.06465,0.01596 -0.06465,0.01596l-0.02761,0.0493l-0.00628,-0.04375v0c0,-0.0282 -0.01656,-0.04845 -0.04476,-0.04845c-0.02819,0 -0.05106,0.02288 -0.05106,0.05107v0l-0.00002,0.1021c-0.00043,0.34154 -0.01199,0.67565 -0.04035,1.01445c-0.00135,0.0162 0.00514,0.08802 0.00965,0.15332c-0.03868,-0.01814 -0.07661,-0.02231 -0.11024,-0.00156l-0.05696,-0.06341c-0.00936,-0.01114 -0.01751,-0.01482 -0.0332,-0.01482c-0.02808,0 -0.05087,0.02268 -0.05106,0.05071l-0.00083,0.10199c-0.00038,0.03366 -0.0022,0.0672 -0.00497,0.10061c-0.02664,0.01341 -0.05087,0.02111 -0.06943,0.01912c0,0 -0.05106,0.00002 -0.05106,0.05107c0,0.05105 0.0453,0.04742 0.0453,0.04742c0.01907,-0.00109 0.04397,-0.001 0.06306,-0.00651c-0.01256,0.097 -0.02884,0.19379 -0.037,0.29155c-0.00535,0.06404 0.01162,0.22573 -0.01689,0.28093c-0.01434,0.02777 -0.13982,0.02234 -0.14035,0.02263c-0.03627,0.01986 -0.06185,0.05657 -0.0835,0.0918c-0.0115,0.01871 0.00853,0.07046 -0.01265,0.06467c-0.0238,-0.00651 0.00682,-0.06204 -0.01558,-0.07238c-0.0452,-0.02087 -0.10633,-0.02884 -0.14933,-0.00376c-0.00563,0.00329 -0.08115,0.1941 -0.08942,0.21477c-0.01886,0.0472 0.00324,0.132 -0.04577,0.14552c-0.05532,0.01528 -0.20668,-0.2716 -0.25383,-0.28244c-0.12009,-0.02761 -0.13755,0.08035 -0.17739,0.14338c-0.05187,0.08204 -0.17143,0.34045 -0.25589,0.38163c-0.05023,0.02449 -0.09337,-0.05841 -0.11317,-0.07336c-0.0539,-0.0407 -0.12374,-0.05673 -0.17779,-0.09722c-0.07272,-0.05447 -0.14981,-0.20925 -0.26212,-0.19441c-0.04258,0.00563 -0.06819,0.05232 -0.10228,0.07846c-0.08805,0.07848 -0.13095,0.15551 -0.18982,0.25666c-0.02868,0.04927 -0.03207,0.12135 -0.08091,0.15077c-0.03854,0.02322 -0.07901,-0.04396 -0.11409,-0.07214c-0.08765,-0.07044 -0.3243,-0.35926 -0.46146,-0.30508c-0.04145,0.01638 -0.03591,0.08175 -0.05733,0.12082c-0.03721,0.06787 -0.06105,0.06748 -0.09904,0.14337c-0.00927,0.01851 0.00417,0.06862 -0.01479,0.06032c-0.02082,-0.00911 0.00166,-0.05255 -0.00734,-0.07343c-0.01472,-0.03412 -0.03698,-0.05674 -0.061,-0.0851c-0.07048,-0.08321 -0.15886,-0.15811 -0.23883,-0.23172c-0.23341,0.0245 -0.3218,0.24784 -0.4897,0.39393c-0.03258,0.02836 -0.15482,0.17087 -0.20365,0.16797c-0.0883,-0.00527 -0.1633,-0.32219 -0.3199,-0.21856c-0.03954,0.02616 -0.02623,0.09126 -0.03564,0.13773c-0.02794,0.13802 -0.06298,0.36014 -0.01959,0.51001c-0.14781,-0.12963 -0.24936,-0.3246 -0.40029,-0.43998c-0.03901,-0.02982 -0.08266,-0.07692 -0.13088,-0.06767c-0.07522,0.01443 -0.20786,0.30355 -0.24887,0.36917c-0.02949,0.0472 -0.01876,0.14051 -0.07362,0.14992c-0.02177,0.00373 -0.02369,-0.03774 -0.03945,-0.05321c-0.11035,-0.10841 -0.2955,-0.42903 -0.40019,-0.19064c-0.01441,0.0328 -0.01,0.07098 -0.01499,0.10646c-0.0136,0.10147 -0.02481,0.17133 -0.00387,0.26815c0.00266,0.01232 -0.00948,-0.02377 -0.0174,-0.03359c-0.04035,-0.04998 -0.08769,-0.09393 -0.13023,-0.14205c-0.07934,-0.08973 -0.21185,-0.26792 -0.34675,-0.27518c-0.11064,-0.00596 -0.27457,0.16882 -0.33596,0.24531c-0.03274,0.0408 -0.0519,0.11649 -0.10419,0.1174c-0.05024,0.00088 -0.06257,-0.07895 -0.09812,-0.11445c-0.07552,-0.07542 -0.13644,-0.15726 -0.20316,-0.24063c-0.0954,-0.02184 -0.24033,-0.08022 -0.33815,-0.03463c-0.05102,0.02378 -0.20221,0.12961 -0.25075,0.16634c-0.02152,0.01628 -0.026,0.05691 -0.05258,0.06156c-0.11295,0.01978 -0.15643,-0.11964 -0.30697,-0.02323c-0.0856,0.05482 -0.10471,0.10485 -0.11892,0.1994c-0.00322,0.02138 0.02296,0.05474 0.00379,0.06473c-0.0181,0.00944 -0.02605,-0.03168 -0.04143,-0.04512c-0.05319,-0.04653 -0.19113,-0.17781 -0.25773,-0.19137c-0.25464,-0.05186 -0.11176,0.16647 -0.25031,0.24538c-0.07096,-0.11194 -0.24266,-0.19819 -0.38175,-0.15453c-0.11055,0.03471 -0.1977,0.24564 -0.30285,0.267c-0.10287,0.02089 -0.26822,-0.13421 -0.38098,-0.12799c-0.03778,0.00209 -0.07622,0.01916 -0.11462,0.04173c0.00077,-0.02703 -0.13945,0.06461 -0.23359,0.06321c-0.09744,-0.00145 -0.3381,-0.19025 -0.3805,-0.22454c-0.01954,-0.01176 -0.18429,-0.11248 -0.19913,-0.11404c-0.25762,-0.02702 -0.44238,0.41224 -0.70011,0.39692c-0.09843,-0.00585 -0.33013,-0.12378 -0.40594,-0.19024c-0.05033,-0.04412 -0.15684,-0.22625 -0.20985,-0.24385c-0.11517,-0.03825 -0.18678,0.07674 -0.26803,0.13553c-0.04323,-0.06537 -0.09053,-0.12607 -0.12066,-0.12751c-0.03701,-0.00177 -0.06,0.03654 -0.085,0.06903c-0.04685,0.00394 -0.11153,0.03896 -0.17835,0.07671c-0.00684,-0.00114 -0.01364,-0.00234 -0.02041,-0.0036c-0.06807,-0.03757 -0.21379,-0.09781 -0.28096,-0.11255c-0.0387,-0.00849 -0.08008,-0.01583 -0.12219,-0.02312c-0.00813,-0.00354 -0.01627,-0.0071 -0.02442,-0.01067c-0.05408,-0.07331 -0.11322,-0.13321 -0.1758,-0.12785c-0.01686,0.00144 -0.02856,0.01615 -0.03826,0.03493c-0.0337,-0.01541 -0.07571,-0.03608 -0.11666,-0.05927c-0.00576,-0.00714 -0.01229,-0.0115 -0.01886,-0.014c-0.0244,-0.03161 -0.04851,-0.06066 -0.07235,-0.07502c-0.01612,-0.00971 -0.03388,-0.01615 -0.05254,-0.01991c-0.00399,-0.00537 -0.00732,-0.01067 -0.00988,-0.01588c-0.02559,-0.05202 0.00518,-0.22388 0.00518,-0.28381c0,0 -0.00002,-0.05106 -0.05107,-0.05106c-0.05105,0 -0.04664,0.04587 -0.04664,0.04587c0,0.07002 -0.02287,0.22152 -0.0038,0.30253c-0.00813,0.00169 -0.02051,0.0089 -0.02845,0.01105c-0.02708,-0.00785 -0.05584,-0.01284 -0.08409,-0.01348c-0.03159,-0.03817 -0.06058,-0.08037 -0.08754,-0.11967l-0.00199,-0.00144l0.00051,-0.00042l-0.06524,-0.07808c-0.00936,-0.01137 -0.02355,-0.01863 -0.03944,-0.01863c-0.02819,0 -0.04651,0.01778 -0.04651,0.04597c0,0.00421 0.00051,0.0083 0.00147,0.0122l0.022,0.09854l0.00446,-0.001c0.00335,0.06205 0.01282,0.12686 0.03652,0.16983c-0.01473,0.017 -0.03546,0.03365 -0.05673,0.03048c-0.06338,-0.00942 -0.04867,-0.13784 -0.10945,-0.15811c-0.15594,-0.05201 -0.24187,0.20359 -0.36662,0.19333c-0.04798,-0.00395 -0.1276,-0.18079 -0.14542,-0.21404c-0.09384,-0.17509 -0.23238,-0.34036 -0.29569,-0.52738l-0.00166,-0.00207l0.00064,-0.00029l-0.04219,-0.09175c-0.00784,-0.0181 -0.02589,-0.03079 -0.04687,-0.03079c-0.02717,0 -0.04427,0.01675 -0.04584,0.04353l-0.00827,0.05149c-0.09926,0.11863 -0.19214,-0.32464 -0.22785,-0.4409l-0.00294,-0.0033l0.0012,-0.0006l-0.0398,-0.07958c-0.00819,-0.01727 -0.02578,-0.02922 -0.04616,-0.02922c-0.01735,0 -0.03268,0.00866 -0.04191,0.02189c-0.02902,-0.07092 -0.07361,-0.13964 -0.09415,-0.21786c-0.01619,-0.06163 -0.02909,-0.1243 -0.03991,-0.1874c0.0056,-0.00752 0.00917,-0.01665 0.00992,-0.02656l0.00873,-0.10125l-0.0142,-0.00122c0.00489,-0.02662 0.00848,-0.05298 0.01117,-0.07945c0.00793,0.00507 0.02301,0.00422 0.03312,0.00422c0.02755,0 0.04436,-0.01803 0.04537,-0.04534l0.00431,-0.10177l-0.01598,-0.00069c0.0141,-0.13711 -0.02101,-0.24657 -0.04474,-0.41025c-0.00896,-0.06181 0.00797,-0.20201 -0.09354,-0.22293c-0.05138,-0.01058 -0.14613,0.10233 -0.19309,0.12476c-0.05919,0.02827 -0.13227,0.01092 -0.19398,0.0332c-0.02121,0.00767 -0.02824,0.04423 -0.05079,0.04468c-0.04465,0.00091 -0.00511,-0.08928 -0.00444,-0.13394l-0.00002,-0.09929c0,0 -0.00001,-0.05107 -0.05106,-0.05107c-0.05105,0 -0.045,0.04794 -0.045,0.04794l-0.00002,0.09923c0.00081,0.06791 -0.01768,0.19474 0.07609,0.23129c0.00815,0.00318 0.29926,-0.07396 0.31901,-0.08321c0.05255,-0.02462 0.072,-0.10637 0.12908,-0.11684c0.04516,-0.00829 0.00619,0.09164 0.01254,0.13711c0.00623,0.04461 0.01219,0.10468 0.0207,0.16732c-0.0194,0.00687 -0.03341,0.02513 -0.03398,0.04674c-0.00833,-0.00591 -0.02431,-0.00583 -0.03531,-0.00583c-0.02819,0 -0.04525,0.01929 -0.04525,0.04749l-0.00002,0.08052h0.00184l0.00045,0.01941l0.00265,-0.00006l-0.00253,0.00265c0.03783,0.30418 0.04472,0.637 0.23865,0.86941l-0.0133,0.01129l0.06581,0.07754c0.00936,0.01118 0.02342,0.01828 0.03914,0.01828c0.0027,0 0.00534,-0.00022 0.00793,-0.00062c0.03641,0.13515 0.06717,0.28976 0.15239,0.39932c-0.02038,0.00095 -0.03543,0.016 -0.03543,0.016c-0.03719,0.03761 -0.07036,0.11707 -0.12288,0.11084c-0.08909,-0.01056 -0.0883,-0.32077 -0.18831,-0.35027c-0.08677,-0.02559 -0.14842,0.08781 -0.20654,0.1203c-0.09541,0.05334 -0.26452,0.09311 -0.37303,0.10666c-0.19041,0.02378 -0.39713,-0.30209 -0.51479,-0.11148c-0.08227,-0.00632 -0.14661,-0.13557 -0.21666,-0.12847c-0.07152,0.00726 -0.09101,0.12073 -0.15801,0.14677c-0.13378,0.05199 -0.27165,-0.29429 -0.37082,-0.30531c-0.05412,-0.00602 -0.09073,0.09455 -0.14292,0.07907c-0.09855,-0.02922 -0.12442,-0.1423 -0.21258,-0.18023c-0.13808,-0.05939 -0.15096,-0.02999 -0.20075,0.08292c-0.00727,0.01648 0.00579,0.05662 -0.01222,0.05713c-0.03071,0.00086 -0.14697,-0.15918 -0.16354,-0.18446c-0.0762,-0.1143 -0.1507,-0.21775 -0.25527,-0.30894c-0.02955,-0.02577 -0.04802,-0.07929 -0.08699,-0.075c-0.19777,0.02172 -0.15293,0.3553 -0.25799,0.44558c-0.01332,0.01145 -0.11438,-0.19117 -0.11591,-0.19422c-0.06095,-0.12187 -0.10105,-0.25754 -0.1777,-0.37082c-0.02627,-0.03883 -0.03884,-0.10232 -0.08462,-0.11236c-0.13297,-0.02917 -0.13627,0.19831 -0.18642,0.05699c-0.17022,-0.4741 -0.40258,-0.9424 -0.50399,-1.43646l-0.00428,-0.0052l0.00178,-0.00088l-0.04032,-0.08219c-0.00811,-0.01746 -0.0258,-0.02958 -0.04632,-0.02958c-0.02562,0 -0.04031,0.01695 -0.04396,0.04156l-0.01666,0.09986l0.0106,0.00176c-0.01184,0.04648 -0.02592,0.09382 -0.03075,0.1413c-0.01821,-0.05402 -0.04405,-0.10739 -0.0636,-0.15952c-0.04395,-0.11721 -0.07203,-0.23978 -0.09943,-0.36219c0.00804,-0.00902 0.01292,-0.02093 0.01292,-0.03396c0,-0.00606 -0.00106,-0.01188 -0.003,-0.01728l-0.03191,-0.09575l-0.00256,0.00084l-0.01511,-0.04163c-0.0314,-0.18611 -0.09832,-0.37024 -0.16201,-0.54584l-0.02974,-0.08199c-0.0068,-0.02021 -0.02589,-0.03478 -0.04839,-0.03478c-0.02819,0 -0.04437,0.02157 -0.04437,0.04977l0,0.10207h0.02546c-0.01144,0.11258 -0.03251,0.2482 -0.04199,0.25355c-0.05451,0.03081 -0.16058,-0.22723 -0.1754,-0.25643l-0.03972,-0.07946c-0.00819,-0.01727 -0.02578,-0.02921 -0.04615,-0.02921c-0.02509,0 -0.03927,0.01684 -0.04355,0.04069l-0.01985,0.09916l0.02028,0.00405c-0.00433,0.02015 -0.01514,0.04169 -0.01963,0.0617c-0.00751,0.03351 -0.01698,-0.06689 -0.02006,-0.10109c-0.00306,-0.0339 -0.00844,-0.06757 -0.01267,-0.10134c-0.01304,-0.10404 0.03986,-0.48495 -0.09055,-0.52447c-0.04413,-0.01337 -0.08035,0.02958 -0.12275,0.04771c-0.15599,0.06665 -0.305,0.1336 -0.46564,0.19074c-0.0872,0.03101 -0.24973,0.10864 -0.22157,-0.00993c-0.00232,-0.14885 0.12332,-0.40482 0.21736,-0.52442c0.03542,-0.04505 0.16645,-0.106 0.16658,-0.16858c0.00007,-0.03905 -0.07601,-0.03411 -0.09544,-0.068c-0.01238,-0.0216 0.0112,-0.04862 0.01443,-0.07331c0.00826,-0.06296 -0.00806,-0.13049 0.01401,-0.19004c0.04321,-0.11654 0.21263,-0.22341 0.20652,-0.36467c-0.00824,-0.19061 -0.32573,-0.22085 -0.46203,-0.261c-0.02912,-0.00857 -0.32272,-0.07409 -0.30165,-0.12524c0.02193,-0.05325 0.09569,-0.06447 0.14013,-0.10109c0.15021,-0.12375 0.35736,-0.24618 0.47994,-0.39678c0.01045,-0.01284 0.1062,-0.20082 0.10657,-0.21114c0.00366,-0.10233 -0.11561,-0.16858 -0.08468,-0.27826c0.03181,-0.11283 0.13807,-0.24036 0.19621,-0.34305c0.06327,-0.11199 0.29319,-0.32349 0.24129,-0.46374c-0.02322,-0.06275 -0.12794,-0.04834 -0.17807,-0.09266c-0.02002,-0.0177 0.14733,-0.16539 0.15285,-0.17091c0.12142,-0.12142 0.25321,-0.2134 0.38447,-0.32256c0.03079,-0.02561 0.08279,-0.04139 0.08878,-0.08098c0.02323,-0.15329 -0.28307,-0.31104 -0.38371,-0.38575c-0.07564,-0.10995 -0.15222,-0.21929 -0.2286,-0.32873c-0.03366,-0.04822 -0.106,-0.08095 -0.10771,-0.13972c-0.0018,-0.06212 0.16988,-0.26027 0.20644,-0.31971c0.19279,-0.31341 0.36567,-0.65384 0.61302,-0.92665c0.1107,-0.12208 0.50666,-0.43315 0.41935,-0.6147c-0.07898,-0.16425 -0.35281,-0.13832 -0.45915,-0.2194c-0.01129,-0.0086 -0.00173,-0.03289 0.00955,-0.04152c0.17867,-0.13665 0.52345,-0.20383 0.73564,-0.28961c0.66757,-0.26987 1.31817,-0.52164 2.01252,-0.7133c0.45927,-0.12679 0.91877,-0.25384 1.37804,-0.38063c0.127,-0.03506 0.34542,-0.14527 0.47425,-0.13429c0.06194,0.00529 0.11115,0.05576 0.16741,0.08221c0.15271,0.07181 0.30544,0.14359 0.45815,0.21541c-0.03751,0.01286 -0.07129,0.02668 -0.1118,0.03123l-0.03838,0.00008c0,0 -0.05103,0.00051 -0.05051,0.05156c0.00052,0.05105 0.04648,0.04601 0.04648,0.04601z" fill="#536112" stroke="#536112" stroke-width="0.5"/></g><path d="M305.49877,190.57743v-3.28588h23.38732v3.28588z" fill="#3c260d" fill-rule="nonzero" stroke="none" stroke-width="0" stroke-linecap="butt" stroke-linejoin="miter"/></g></g></svg>