<svg version="1.1" xmlns="http://www.w3.org/2000/svg" xmlns:xlink="http://www.w3.org/1999/xlink" width="213.18203" height="280.18476" viewBox="0,0,213.18203,280.18476"><defs><radialGradient cx="287.40514" cy="193.53404" r="23.48066" gradientUnits="userSpaceOnUse" id="color-1"><stop offset="0" stop-color="#ffffff"/><stop offset="1" stop-color="#ff8484"/></radialGradient><radialGradient cx="354.56271" cy="178.10121" r="23.48066" gradientUnits="userSpaceOnUse" id="color-2"><stop offset="0" stop-color="#ffffff"/><stop offset="1" stop-color="#ff8484"/></radialGradient></defs><g transform="translate(-214.78369,-38.88751)"><g stroke-miterlimit="10"><path d="M214.78369,306.61252v-267.72501c0,0 153.66918,0 187.45214,0c12.51617,0 25.72989,0 25.72989,0v267.72501z" fill="none" stroke="none" stroke-width="0" stroke-linecap="butt"/><g stroke-width="0" stroke-linecap="butt"><g stroke="#000000"><path d="M311.69513,219.5c-9.04692,0 -9.04692,-4.75 -9.04692,-4.75l0.01747,-2.70485c-0.19665,-0.80165 -0.39331,-1.6033 -0.58996,-2.40495c-1.77495,-8.5556 2.86249,-16.82773 1.85971,-25.26172c-0.59313,-4.98856 -2.50419,-10.94186 -4.26635,-15.647c-1.91626,-5.11657 -6.10975,-9.49228 -6.53466,-14.76624c-0.45304,-5.62319 6.83326,-9.96004 6.33942,-15.21525c0,0 0,-4.75 9.04692,-4.75c9.04692,0 9.04692,4.75 9.04692,4.75c-0.08067,1.586 0.37598,3.20496 -0.24201,4.75799c-1.12763,2.83378 -4.91581,5.23328 -6.23658,8.04396c-1.29861,2.76354 1.558,6.36903 2.94,8.86381c2.90057,5.23604 4.55273,10.65128 6.06322,16.04632c1.02032,3.64434 2.27049,7.18507 1.90562,10.88392c-0.70528,7.14978 -3.51243,13.98466 -1.95315,21.18045c0.22659,0.97613 0.45319,1.95225 0.67978,2.92838l0.01749,3.29516c0,0 0,4.75 -9.04693,4.75z" fill="#39940f"/><path d="M326.74647,220.4936c-8.39986,-1.7641 -5.03992,-6.17437 -5.03992,-6.17437l0.62268,0.09743c0.00375,-0.92113 0.0075,-1.84225 0.01124,-2.76338c-1.71924,-8.85784 -6.53031,-17.57677 -6.98463,-26.51119c-0.308,-6.05701 0.48337,-10.07155 -0.5854,-15.84748c-1.23282,-6.66246 -4.30272,-13.23849 -5.12479,-19.9486c-0.55984,-4.5696 0.53881,-9.1209 -0.57886,-13.67351c0,0 -1.12213,-4.71332 7.85493,-5.30248c8.97706,-0.58916 10.0992,4.12416 10.0992,4.12416c1.11151,4.78842 0.09981,9.5322 0.69089,14.32649c0.80365,6.5184 3.84396,12.9103 5.03316,19.38474c1.26271,6.87455 0.34171,9.1496 0.68434,16.48585c0.41596,8.90627 5.32552,17.64477 6.98255,26.48881c0.00374,1.07887 0.00749,2.15774 0.01123,3.23661l-1.91681,3.43078c0,0 -3.35994,4.41026 -11.7598,2.64616z" fill="#448f21"/><path d="M320.42461,215.75l0.01748,-3.29516c0.22659,-0.97613 0.45319,-1.95225 0.67978,-2.92838c1.55928,-7.19579 -1.24788,-14.03067 -1.95316,-21.18045c-0.36487,-3.69885 0.88531,-7.23959 1.90562,-10.88392c1.51049,-5.39504 3.16266,-10.81028 6.06322,-16.04632c1.38201,-2.49478 4.23861,-6.10027 2.94,-8.86381c-1.32077,-2.81068 -5.10894,-5.21018 -6.23657,-8.04396c-0.61799,-1.55303 -0.16134,-3.172 -0.24201,-4.75799c0,0 0,-4.75 9.04692,-4.75c9.04693,0 9.04693,4.75 9.04693,4.75c-0.49385,5.25521 6.79246,9.59205 6.33941,15.21525c-0.42491,5.27396 -4.6184,9.64968 -6.53466,14.76624c-1.76216,4.70514 -3.67322,10.65844 -4.26635,15.647c-1.00278,8.43399 3.63466,16.70612 1.85971,25.26172c-0.19665,0.80165 -0.39332,1.6033 -0.58997,2.40495l0.01747,2.70485c0,0 0,4.75 -9.04692,4.75c-9.04692,0 -9.04692,-4.75 -9.04692,-4.75z" fill="#39940f"/><path d="M343.37092,217.07825l0.58885,-2.13422c0.38401,-1.97834 0.6012,-3.96882 0.6012,-5.95741c-0.63987,-3.3416 -1.35765,-8.40905 -2.91882,-11.75828c-2.44883,-5.25359 -5.50946,-9.46468 -5.97487,-14.97567c-0.50853,-6.0216 2.40533,-11.5545 3.19137,-17.50604c1.31904,-9.9871 -3.14057,-18.79444 -6.83067,-28.39839c0,0 -1.77425,-4.65776 7.09699,-5.58931c8.87124,-0.93155 10.64549,3.7262 10.64549,3.7262c1.38199,3.6646 3.94972,7.13486 5.13229,10.8196c2.08203,6.48735 2.86115,13.55968 2.00423,20.11534c-0.7337,5.6129 -3.57144,10.84328 -3.15735,16.49396c0.35728,4.87548 3.30722,8.33777 5.45282,13.02432c1.98495,4.33565 2.59455,9.16809 3.42989,13.57505c0,2.46143 -0.20973,4.92631 -0.66854,7.37592l-0.6809,2.53244c0,0 -1.27943,4.70226 -10.23542,4.03051c-8.956,-0.67175 -7.67657,-5.37401 -7.67657,-5.37401z" fill="#28670a"/><path d="M302.6604,218.84744l-1.91681,-3.43078c0.00374,-1.07887 0.00748,-2.15774 0.01122,-3.23661c1.65703,-8.84404 6.56659,-17.58254 6.98255,-26.48881c0.34263,-7.33624 -0.57836,-9.6113 0.68434,-16.48585c1.18921,-6.47443 4.22952,-12.86634 5.03316,-19.38474c0.59108,-4.79429 -0.42062,-9.53806 0.69089,-14.32649c0,0 1.12213,-4.71332 10.09919,-4.12416c8.97706,0.58916 7.85493,5.30248 7.85493,5.30248c-1.11768,4.55261 -0.01902,9.10391 -0.57886,13.67351c-0.82207,6.7101 -3.89197,13.28614 -5.12478,19.9486c-1.06878,5.77593 -0.2774,9.79047 -0.58541,15.84748c-0.45432,8.93442 -5.26539,17.65335 -6.98463,26.51119c0.00374,0.92113 0.00749,1.84225 0.01123,2.76338l0.62268,-0.09743c0,0 3.35994,4.41026 -5.03992,6.17437c-8.39986,1.76411 -11.7598,-2.64616 -11.7598,-2.64616z" fill="#448f21"/><path d="M354.07282,223.08333v-0.33333c0,-12.98322 -0.15995,-25.86921 -2.48647,-38.81987c-1.01641,-5.6579 -4.01473,-11.22883 -4.48328,-16.91745c-0.84856,-10.30231 -0.73215,-20.53995 -2.51618,-30.83263c0,0 -0.81907,-4.73049 8.1907,-5.16054c9.00977,-0.43005 9.82884,4.30045 9.82884,4.30045c1.79949,10.40347 1.77261,20.75085 2.5628,31.16737c0.41845,5.51622 3.41132,10.92652 4.40493,16.41588c2.40593,13.29197 2.5925,26.52065 2.5925,39.84679v0.33333c0,0 0,4.75 -9.04692,4.75c-9.04692,0 -9.04692,-4.75 -9.04692,-4.75z" fill="#275313"/></g><g stroke="none"><path d="M311.69513,219.5c-9.04692,0 -9.04692,-4.75 -9.04692,-4.75l0.01747,-2.70484c-0.19665,-0.80165 -0.39331,-1.6033 -0.58996,-2.40495c-1.77495,-8.55561 2.86249,-16.82773 1.85971,-25.26172c-0.59313,-4.98856 -2.50419,-10.94186 -4.26635,-15.64699c-1.91625,-5.11657 -6.10975,-9.49228 -6.53466,-14.76625c-0.45304,-5.62319 6.83326,-9.96004 6.33942,-15.21524c0,0 0,-4.75 9.04692,-4.75c9.04692,0 9.04692,4.75 9.04692,4.75c-0.08067,1.586 0.37598,3.20496 -0.24201,4.75799c-1.12764,2.83378 -4.9158,5.23328 -6.23658,8.04396c-1.29861,2.76354 1.55799,6.36903 2.94,8.86381c2.90057,5.23604 4.55274,10.65128 6.06322,16.04632c1.02032,3.64433 2.27049,7.18507 1.90562,10.88392c-0.70528,7.14978 -3.51243,13.98466 -1.95315,21.18045c0.22659,0.97613 0.45318,1.95225 0.67978,2.92838l0.01748,3.29515c0,0 0,4.75 -9.04692,4.75z" fill="#39940f"/><path d="M326.74647,220.4936c-8.39986,-1.7641 -5.03992,-6.17437 -5.03992,-6.17437l0.62268,0.09743c0.00374,-0.92113 0.00749,-1.84225 0.01124,-2.76338c-1.71924,-8.85784 -6.53031,-17.57677 -6.98463,-26.51119c-0.308,-6.05701 0.48337,-10.07155 -0.5854,-15.84748c-1.23282,-6.66245 -4.30272,-13.23849 -5.12479,-19.94859c-0.55983,-4.5696 0.53882,-9.12091 -0.57886,-13.67351c0,0 -1.12213,-4.71332 7.85493,-5.30248c8.97706,-0.58917 10.09919,4.12415 10.09919,4.12415c1.11151,4.78843 0.09981,9.5322 0.69089,14.32648c0.80364,6.5184 3.84396,12.91031 5.03317,19.38474c1.2627,6.87455 0.34171,9.1496 0.68434,16.48584c0.41596,8.90627 5.32552,17.64477 6.98255,26.48881c0.00374,1.07887 0.00749,2.15774 0.01123,3.23661l-1.9168,3.43078c0,0 -3.35994,4.41026 -11.7598,2.64616z" fill="#448f21"/><path d="M320.42461,215.75l0.01748,-3.29515c0.22659,-0.97613 0.45318,-1.95225 0.67978,-2.92838c1.55928,-7.1958 -1.24788,-14.03068 -1.95315,-21.18045c-0.36487,-3.69885 0.8853,-7.23959 1.90562,-10.88392c1.51048,-5.39504 3.16265,-10.81028 6.06322,-16.04632c1.38201,-2.49478 4.23862,-6.10027 2.94,-8.86381c-1.32077,-2.81068 -5.10894,-5.21018 -6.23658,-8.04396c-0.61799,-1.55303 -0.16134,-3.172 -0.24201,-4.75799c0,0 0,-4.75 9.04692,-4.75c9.04692,0 9.04692,4.75 9.04692,4.75c-0.49385,5.25521 6.79246,9.59206 6.33942,15.21524c-0.42491,5.27397 -4.61841,9.64968 -6.53466,14.76625c-1.76216,4.70513 -3.67322,10.65843 -4.26635,15.64699c-1.00278,8.43399 3.63466,16.70612 1.85971,25.26172c-0.19665,0.80165 -0.39331,1.6033 -0.58996,2.40495l0.01747,2.70484c0,0 0,4.75 -9.04692,4.75c-9.04692,0 -9.04692,-4.75 -9.04692,-4.75z" fill="#39940f"/><path d="M343.37092,217.07825l0.58885,-2.13423c0.38401,-1.97834 0.6012,-3.96882 0.6012,-5.95741c-0.63987,-3.34161 -1.35765,-8.40905 -2.91881,-11.75828c-2.44883,-5.2536 -5.50946,-9.46469 -5.97487,-14.97568c-0.50853,-6.02159 2.40533,-11.5545 3.19137,-17.50604c1.31904,-9.9871 -3.14057,-18.79444 -6.83066,-28.39839c0,0 -1.77425,-4.65776 7.09699,-5.58931c8.87124,-0.93155 10.64549,3.7262 10.64549,3.7262c1.38199,3.6646 3.94972,7.13486 5.13229,10.8196c2.08203,6.48735 2.86115,13.55968 2.00423,20.11534c-0.7337,5.6129 -3.57144,10.84328 -3.15735,16.49396c0.35729,4.87549 3.30721,8.33777 5.45282,13.02432c1.98495,4.33565 2.59455,9.16809 3.4299,13.57505c0,2.46142 -0.20973,4.92631 -0.66854,7.37592l-0.6809,2.53244c0,0 -1.27943,4.70226 -10.23542,4.03051c-8.956,-0.67175 -7.67657,-5.37401 -7.67657,-5.37401z" fill="#54660a"/><path d="M302.6604,218.84744l-1.9168,-3.43078c0.00374,-1.07887 0.00749,-2.15774 0.01123,-3.23661c1.65702,-8.84404 6.56659,-17.58254 6.98255,-26.48881c0.34263,-7.33624 -0.57837,-9.6113 0.68434,-16.48584c1.1892,-6.47443 4.22952,-12.86634 5.03317,-19.38474c0.59108,-4.79429 -0.42062,-9.53806 0.69089,-14.32649c0,0 1.12213,-4.71332 10.09919,-4.12415c8.97706,0.58916 7.85493,5.30248 7.85493,5.30248c-1.11768,4.5526 -0.01903,9.10391 -0.57886,13.67351c-0.82207,6.7101 -3.89197,13.28614 -5.12479,19.94859c-1.06877,5.77593 -0.2774,9.79048 -0.5854,15.84748c-0.45433,8.93442 -5.26539,17.65335 -6.98463,26.51119c0.00374,0.92113 0.00749,1.84225 0.01124,2.76338l0.62268,-0.09743c0,0 3.35994,4.41026 -5.03992,6.17437c-8.39986,1.76411 -11.7598,-2.64616 -11.7598,-2.64616z" fill="#448f21"/><path d="M354.07282,223.08333v-0.33333c0,-12.98322 -0.15995,-25.86921 -2.48648,-38.81987c-1.01642,-5.6579 -4.01473,-11.22883 -4.48327,-16.91745c-0.84856,-10.30231 -0.73215,-20.53995 -2.51618,-30.83263c0,0 -0.81907,-4.73049 8.1907,-5.16054c9.00977,-0.43005 9.82883,4.30045 9.82883,4.30045c1.79949,10.40348 1.77262,20.75085 2.5628,31.16737c0.41845,5.51621 3.41132,10.92652 4.40493,16.41588c2.40593,13.29197 2.59251,26.52065 2.59251,39.84679v0.33333c0,0 0,4.75 -9.04692,4.75c-9.04692,0 -9.04692,-4.75 -9.04692,-4.75z" fill="#544e13"/></g></g><g stroke-linecap="butt"><path d="M286.35186,319.07226l15.14285,-131.8421l37.78325,-0.15789l13.57389,132z" fill="#4cc114" stroke="#000000" stroke-width="0"/><path d="M294.36074,249.34246c2.44674,-21.30271 7.13397,-62.1123 7.13397,-62.1123l37.78325,-0.15789c0,0 4.24137,41.24545 6.4436,62.66116c0.0147,0.14299 -51.38554,-0.17575 -51.36082,-0.39097z" fill="#70b012" stroke="#000000" stroke-width="0"/><path d="M295.90586,235.88976c2.11119,-18.38116 5.58885,-48.6596 5.58885,-48.6596l37.78325,-0.15789c0,0 3.16673,30.79505 5.07534,49.35543c0.00135,0.01317 -48.45209,-0.49745 -48.44744,-0.53793z" fill="#84930f" stroke="#000000" stroke-width="0"/><path d="M297.80388,219.3646l3.69083,-32.13444l37.78325,-0.15789l3.28963,31.99021z" fill="#7a6c00" stroke="#000000" stroke-width="0"/><path d="M298.59344,221.41986c0,-0.21325 0.0534,-0.41403 0.14756,-0.58969c-0.46319,-0.31484 -0.76744,-0.84606 -0.76744,-1.44834c0,-0.9665 0.7835,-1.75 1.75,-1.75c0.95734,0 1.73514,0.76873 1.74979,1.72258c0.21187,-0.16514 0.47834,-0.26351 0.76778,-0.26351c0.08306,0 0.16423,0.0081 0.24276,0.02356c0.21741,-0.7192 0.88525,-1.24286 1.67539,-1.24286c0.84394,0 1.54835,0.59739 1.71343,1.39238c0.21736,-0.18282 0.49789,-0.29296 0.80414,-0.29296c0.69036,0 1.25,0.55964 1.25,1.25c0,0.69036 -0.55964,1.25 -1.25,1.25c-0.51569,0 -0.95845,-0.31228 -1.14948,-0.75806c-0.32067,0.40145 -0.81434,0.65864 -1.36809,0.65864c-0.34123,0 -0.65965,-0.09766 -0.92883,-0.26656c-0.22862,0.29556 -0.58674,0.48587 -0.98932,0.48587c-0.61327,0 -1.12339,-0.44164 -1.22966,-1.02423c-0.04485,0.04873 -0.09243,0.0949 -0.1425,0.13829c0.14149,0.20259 0.22448,0.44905 0.22448,0.71491c0,0.69036 -0.55964,1.25 -1.25,1.25c-0.69036,0 -1.25,-0.55964 -1.25,-1.25z" fill="#7a6c00" stroke="none" stroke-width="0.5"/><path d="M313.42104,221.18009c0,0.41421 -0.33579,0.75 -0.75,0.75c-0.28123,0 -0.52631,-0.15479 -0.65468,-0.38382c-0.23582,0.11835 -0.50209,0.18498 -0.78392,0.18498c-0.49496,0 -0.94193,-0.20549 -1.26025,-0.5358c-0.09557,0.0234 -0.19546,0.0358 -0.29824,0.0358c-0.69036,0 -1.25,-0.55964 -1.25,-1.25c0,-0.69036 0.55964,-1.25 1.25,-1.25c0.10278,0 0.20267,0.01241 0.29824,0.0358c0.31832,-0.33032 0.76529,-0.5358 1.26025,-0.5358c0.9665,0 1.75,0.7835 1.75,1.75c0,0.16966 -0.02414,0.33368 -0.06918,0.48881c0.29536,0.10073 0.50779,0.38057 0.50779,0.71003z" fill="#7a6c00" stroke="none" stroke-width="0.5"/><path d="M320.41235,220.94032c0,-0.58465 0.40138,-1.07555 0.9436,-1.21217c0.06807,-0.90426 0.82333,-1.61678 1.74501,-1.61678c0.64443,0 1.20751,0.34833 1.51122,0.86699c0.81745,0.1473 1.43762,0.86232 1.43762,1.7222c0,0.9665 -0.7835,1.75 -1.75,1.75c-0.64443,0 -1.20751,-0.34833 -1.51122,-0.86699c-0.01627,-0.00293 -0.03247,-0.00609 -0.04858,-0.00947c-0.21735,0.36878 -0.6186,0.61623 -1.07765,0.61623c-0.69036,0 -1.25,-0.55964 -1.25,-1.25z" fill="#7a6c00" stroke="none" stroke-width="0.5"/><path d="M334.19902,222.37893c0,-0.61792 0.44836,-1.13111 1.0375,-1.23201c-0.46681,-0.18125 -0.79773,-0.63481 -0.79773,-1.16567c0,-0.69036 0.55964,-1.25 1.25,-1.25c0.15358,0 0.30069,0.0277 0.43661,0.07837c0.30983,-0.49156 0.85754,-0.81814 1.48153,-0.81814c0.75535,0 1.39893,0.47856 1.64408,1.14902c0.16645,-0.79319 0.87001,-1.38879 1.71268,-1.38879c0.9665,0 1.75,0.7835 1.75,1.75c0,0.9665 -0.7835,1.75 -1.75,1.75c-0.75535,0 -1.39893,-0.47856 -1.64408,-1.14902c-0.16645,0.79319 -0.87001,1.38879 -1.71268,1.38879c-0.46772,0 -0.89259,-0.18349 -1.20654,-0.48242c-0.14663,0.10171 -0.31607,0.17285 -0.4991,0.2042c0.46681,0.18125 0.79773,0.63481 0.79773,1.16567c0,0.69036 -0.55964,1.25 -1.25,1.25c-0.69036,0 -1.25,-0.55964 -1.25,-1.25z" fill="#7a6c00" stroke="none" stroke-width="0.5"/><path d="M325.90656,219.50171c0,-0.9665 0.7835,-1.75 1.75,-1.75c0.9665,0 1.75,0.7835 1.75,1.75c0,0.9665 -0.7835,1.75 -1.75,1.75c-0.9665,0 -1.75,-0.7835 -1.75,-1.75z" fill="#7a6c00" stroke="none" stroke-width="0.5"/><path d="M313.19884,218.90229c0,-0.9665 0.7835,-1.75 1.75,-1.75c0.9665,0 1.75,0.7835 1.75,1.75c0,0.9665 -0.7835,1.75 -1.75,1.75c-0.9665,0 -1.75,-0.7835 -1.75,-1.75z" fill="#7a6c00" stroke="none" stroke-width="0.5"/><path d="M329.76331,220.58067c0,-0.63528 0.47391,-1.15988 1.08749,-1.23953c-0.01905,-0.10342 -0.029,-0.21003 -0.029,-0.31896c0,-0.9665 0.7835,-1.75 1.75,-1.75c0.9665,0 1.75,0.7835 1.75,1.75c0,0.9665 -0.7835,1.75 -1.75,1.75c-0.10893,0 -0.21554,-0.00995 -0.31896,-0.029c-0.07966,0.61358 -0.60425,1.08749 -1.23953,1.08749c-0.69036,0 -1.25,-0.55964 -1.25,-1.25z" fill="#7a6c00" stroke="none" stroke-width="0.5"/><path d="M318.25444,224.8965c0,-0.69036 0.55964,-1.25 1.25,-1.25c0.69036,0 1.25,0.55964 1.25,1.25c0,0.69036 -0.55964,1.25 -1.25,1.25c-0.69036,0 -1.25,-0.55964 -1.25,-1.25z" fill="#7a6c00" stroke="none" stroke-width="0.5"/><path d="M306.02626,224.8965c0,-0.69036 0.55964,-1.25 1.25,-1.25c0.69036,0 1.25,0.55964 1.25,1.25c0,0.69036 -0.55964,1.25 -1.25,1.25c-0.69036,0 -1.25,-0.55964 -1.25,-1.25z" fill="#7a6c00" stroke="none" stroke-width="0.5"/><path d="M317.53513,218.90229c0,-0.69036 0.55964,-1.25 1.25,-1.25c0.69036,0 1.25,0.55964 1.25,1.25c0,0.69036 -0.55964,1.25 -1.25,1.25c-0.69036,0 -1.25,-0.55964 -1.25,-1.25z" fill="#7a6c00" stroke="none" stroke-width="0.5"/><path d="M302.4502,228.85267c0,-0.41421 0.33579,-0.75 0.75,-0.75c0.41421,0 0.75,0.33579 0.75,0.75c0,0.41421 -0.33579,0.75 -0.75,0.75c-0.41421,0 -0.75,-0.33579 -0.75,-0.75z" fill="#7a6c00" stroke="none" stroke-width="0.5"/><path d="M311.92104,227.65383c0,-0.41421 0.33579,-0.75 0.75,-0.75c0.41421,0 0.75,0.33579 0.75,0.75c0,0.41421 -0.33579,0.75 -0.75,0.75c-0.41421,0 -0.75,-0.33579 -0.75,-0.75z" fill="#7a6c00" stroke="none" stroke-width="0.5"/><path d="M321.75154,227.41406c0,-0.41421 0.33579,-0.75 0.75,-0.75c0.41421,0 0.75,0.33579 0.75,0.75c0,0.41421 -0.33579,0.75 -0.75,0.75c-0.41421,0 -0.75,-0.33579 -0.75,-0.75z" fill="#7a6c00" stroke="none" stroke-width="0.5"/><path d="M327.14633,223.45789c0,-0.41421 0.33579,-0.75 0.75,-0.75c0.41421,0 0.75,0.33579 0.75,0.75c0,0.41421 -0.33579,0.75 -0.75,0.75c-0.41421,0 -0.75,-0.33579 -0.75,-0.75z" fill="#7a6c00" stroke="none" stroke-width="0.5"/><path d="M336.13763,226.69476c0,-0.41421 0.33579,-0.75 0.75,-0.75c0.41421,0 0.75,0.33579 0.75,0.75c0,0.41421 -0.33579,0.75 -0.75,0.75c-0.41421,0 -0.75,-0.33579 -0.75,-0.75z" fill="#7a6c00" stroke="none" stroke-width="0.5"/><path d="M339.85404,231.96966c0,-0.41421 0.33579,-0.75 0.75,-0.75c0.41421,0 0.75,0.33579 0.75,0.75c0,0.41421 -0.33579,0.75 -0.75,0.75c-0.41421,0 -0.75,-0.33579 -0.75,-0.75z" fill="#7a6c00" stroke="none" stroke-width="0.5"/><path d="M299.07298,237.7241c0,-0.07083 0.00589,-0.14028 0.01721,-0.2079c-0.05402,-0.04456 -0.10531,-0.0923 -0.15361,-0.14293c-0.32059,0.4035 -0.81555,0.66222 -1.37094,0.66222c-0.9665,0 -1.75,-0.7835 -1.75,-1.75c0,-0.9665 0.7835,-1.75 1.75,-1.75c0.49822,0 0.94781,0.2082 1.26651,0.54233c0.32059,-0.4035 0.81555,-0.66222 1.37094,-0.66222c0.9665,0 1.75,0.7835 1.75,1.75c0,0.44709 -0.16766,0.85501 -0.44353,1.16434c0.04114,0.12391 0.06341,0.25643 0.06341,0.39415c0,0.69036 -0.55964,1.25 -1.25,1.25c-0.69036,0 -1.25,-0.55964 -1.25,-1.25z" fill="#84930f" stroke="none" stroke-width="0.5"/><path d="M341.92277,239.81329c-0.53513,0 -0.99172,-0.33627 -1.17,-0.80903c-0.42499,-0.31928 -0.69989,-0.82756 -0.69989,-1.40004c0,-0.53481 0.2399,-1.01358 0.61796,-1.33458c0.12372,-0.84533 0.8518,-1.49438 1.73146,-1.49438c0.51375,0 0.97579,0.22138 1.29594,0.57395c0.35257,0.32014 0.57395,0.78219 0.57395,1.29594c0,0.61364 -0.31584,1.15352 -0.79383,1.46593c-0.06597,0.21837 -0.17347,0.41872 -0.3133,0.59187c-0.06944,0.62462 -0.59914,1.11035 -1.24229,1.11035z" fill="#84930f" stroke="none" stroke-width="0.5"/><path d="M337.48705,235.63491c0.69036,0 1.25,0.55964 1.25,1.25c0,0.69036 -0.55964,1.25 -1.25,1.25c-0.16961,0 -0.33133,-0.03378 -0.4788,-0.09498c-0.28964,0.56668 -0.87913,0.95463 -1.55923,0.95463c-0.40263,0 -0.7735,-0.13597 -1.0692,-0.3645c-0.31415,0.30009 -0.73985,0.48438 -1.2086,0.48438c-0.9665,0 -1.75,-0.7835 -1.75,-1.75c0,-0.81102 0.5517,-1.49318 1.30027,-1.69167c0.29925,-0.53547 0.87169,-0.89752 1.52868,-0.89752c0.58756,0 1.10749,0.28956 1.42487,0.73377c0.3713,0.04788 0.70613,0.21213 0.96675,0.45498c0.22252,-0.20435 0.51932,-0.3291 0.84526,-0.3291z" fill="#84930f" stroke="none" stroke-width="0.5"/><path d="M327.6054,239.16271c0,-0.17607 0.0364,-0.34364 0.10209,-0.49559c-0.24621,-0.08119 -0.46825,-0.21556 -0.65253,-0.3895c-0.32076,0.36598 -0.79167,0.59706 -1.31655,0.59706c-0.39881,0 -0.76646,-0.1334 -1.06076,-0.35802c0.02156,0.09197 0.03296,0.18785 0.03296,0.2864c0,0.69036 -0.55964,1.25 -1.25,1.25c-0.69036,0 -1.25,-0.55964 -1.25,-1.25c0,-0.32604 0.12483,-0.62292 0.32929,-0.84547c-0.16367,0.05064 -0.3376,0.0779 -0.5179,0.0779c-0.03864,0 -0.07699,-0.00125 -0.11501,-0.00372c-0.28814,0.57111 -0.88001,0.96279 -1.56337,0.96279c-0.15514,0 -0.30557,-0.02019 -0.4488,-0.05808c0.01341,0.07337 0.02042,0.14898 0.02042,0.22623c0,0.69036 -0.55964,1.25 -1.25,1.25c-0.69036,0 -1.25,-0.55964 -1.25,-1.25c0,-0.69036 0.55964,-1.25 1.25,-1.25c0.02047,0 0.04083,0.00049 0.06106,0.00147c-0.08549,-0.20627 -0.13268,-0.43243 -0.13268,-0.66961c0,-0.9665 0.7835,-1.75 1.75,-1.75c0.03864,0 0.07699,0.00125 0.11501,0.00372c0.28814,-0.57111 0.88001,-0.96279 1.56337,-0.96279c0.9665,0 1.75,0.7835 1.75,1.75c0,0.51323 -0.22093,0.97485 -0.57287,1.29496c0.08433,-0.01795 0.1718,-0.02739 0.26148,-0.02739c0.23123,0 0.4478,0.06279 0.63359,0.17224c-0.06844,-0.18732 -0.10579,-0.38961 -0.10579,-0.60062c0,-0.9665 0.7835,-1.75 1.75,-1.75c0.26984,0 0.52541,0.06107 0.75365,0.17015c0.30047,-0.53104 0.87045,-0.88945 1.52415,-0.88945c0.85055,0 1.55938,0.60679 1.71721,1.4111c0.17258,0.27117 0.27256,0.59307 0.27256,0.93832c0,0.43602 -0.15946,0.8348 -0.42324,1.14119c0.31647,0.2268 0.52266,0.59768 0.52266,1.01672c0,0.69036 -0.55964,1.25 -1.25,1.25c-0.69036,0 -1.25,-0.55964 -1.25,-1.25z" fill="#84930f" stroke="none" stroke-width="0.5"/><path d="M307.34498,238.92294c0,-0.69036 0.55964,-1.25 1.25,-1.25c0.08968,0 0.17715,0.00944 0.26148,0.02739c-0.35194,-0.32011 -0.57287,-0.78173 -0.57287,-1.29496c0,-0.9665 0.7835,-1.75 1.75,-1.75c0.18546,0 0.36419,0.02885 0.53193,0.08231c0.32002,-0.41465 0.82193,-0.68173 1.38622,-0.68173c0.9665,0 1.75,0.7835 1.75,1.75c0,0.9665 -0.7835,1.75 -1.75,1.75c-0.18546,0 -0.36419,-0.02885 -0.53193,-0.08231c-0.32002,0.41465 -0.82193,0.68173 -1.38622,0.68173c-0.1803,0 -0.35424,-0.02727 -0.5179,-0.0779c0.20447,0.22255 0.32929,0.51943 0.32929,0.84547c0,0.69036 -0.55964,1.25 -1.25,1.25c-0.69036,0 -1.25,-0.55964 -1.25,-1.25z" fill="#84930f" stroke="none" stroke-width="0.5"/><path d="M306.48823,237.24456c0,0.69036 -0.55964,1.25 -1.25,1.25c-0.33427,0 -0.6379,-0.13121 -0.86219,-0.34494c-0.89967,-0.0727 -1.60712,-0.82586 -1.60712,-1.74425c0,-0.78072 0.51124,-1.44203 1.21721,-1.66742c0.18208,-0.12935 0.38997,-0.22473 0.61444,-0.27692c0.3209,-0.39354 0.80958,-0.64485 1.35696,-0.64485c0.9665,0 1.75,0.7835 1.75,1.75c0,0.78151 -0.51227,1.44336 -1.21935,1.6681c0.00003,0.00342 0.00004,0.00685 0.00004,0.01028z" fill="#84930f" stroke="none" stroke-width="0.5"/><path d="M314.03803,236.40537c0,-0.9665 0.7835,-1.75 1.75,-1.75c0.9665,0 1.75,0.7835 1.75,1.75c0,0.9665 -0.7835,1.75 -1.75,1.75c-0.9665,0 -1.75,-0.7835 -1.75,-1.75z" fill="#84930f" stroke="none" stroke-width="0.5"/><path d="M310.82162,241.56039c0,-0.69036 0.55964,-1.25 1.25,-1.25c0.69036,0 1.25,0.55964 1.25,1.25c0,0.69036 -0.55964,1.25 -1.25,1.25c-0.69036,0 -1.25,-0.55964 -1.25,-1.25z" fill="#84930f" stroke="none" stroke-width="0.5"/><path d="M318.54536,241.05016c0.41421,0 0.75,0.33579 0.75,0.75c0,0.41421 -0.33579,0.75 -0.75,0.75c-0.18039,0 -0.34591,-0.06369 -0.47529,-0.1698c-0.14823,0.52491 -0.63074,0.90957 -1.20308,0.90957c-0.69036,0 -1.25,-0.55964 -1.25,-1.25c0,-0.69036 0.55964,-1.25 1.25,-1.25c0.44657,0 0.83844,0.23417 1.05952,0.58642c0.13516,-0.19698 0.36192,-0.32619 0.61886,-0.32619z" fill="#84930f" stroke="none" stroke-width="0.5"/><path d="M333.23995,241.44051c0,-0.69036 0.55964,-1.25 1.25,-1.25c0.69036,0 1.25,0.55964 1.25,1.25c0,0.69036 -0.55964,1.25 -1.25,1.25c-0.69036,0 -1.25,-0.55964 -1.25,-1.25z" fill="#84930f" stroke="none" stroke-width="0.5"/><path d="M301.13147,241.80016c0,-0.41421 0.33579,-0.75 0.75,-0.75c0.41421,0 0.75,0.33579 0.75,0.75c0,0.41421 -0.33579,0.75 -0.75,0.75c-0.41421,0 -0.75,-0.33579 -0.75,-0.75z" fill="#84930f" stroke="none" stroke-width="0.5"/><path d="M310.84209,244.91714c0,-0.41421 0.33579,-0.75 0.75,-0.75c0.41421,0 0.75,0.33579 0.75,0.75c0,0.41421 -0.33579,0.75 -0.75,0.75c-0.41421,0 -0.75,-0.33579 -0.75,-0.75z" fill="#84930f" stroke="none" stroke-width="0.5"/><path d="M317.31583,246.71541c0,-0.41421 0.33579,-0.75 0.75,-0.75c0.41421,0 0.75,0.33579 0.75,0.75c0,0.41421 -0.33579,0.75 -0.75,0.75c-0.41421,0 -0.75,-0.33579 -0.75,-0.75z" fill="#84930f" stroke="none" stroke-width="0.5"/><path d="M325.1083,243.47853c0,-0.41421 0.33579,-0.75 0.75,-0.75c0.41421,0 0.75,0.33579 0.75,0.75c0,0.41421 -0.33579,0.75 -0.75,0.75c-0.41421,0 -0.75,-0.33579 -0.75,-0.75z" fill="#84930f" stroke="none" stroke-width="0.5"/><path d="M330.62296,245.51656c0,-0.41421 0.33579,-0.75 0.75,-0.75c0.41421,0 0.75,0.33579 0.75,0.75c0,0.41421 -0.33579,0.75 -0.75,0.75c-0.41421,0 -0.75,-0.33579 -0.75,-0.75z" fill="#84930f" stroke="none" stroke-width="0.5"/><path d="M339.85404,247.31483c0,-0.41421 0.33579,-0.75 0.75,-0.75c0.41421,0 0.75,0.33579 0.75,0.75c0,0.41421 -0.33579,0.75 -0.75,0.75c-0.41421,0 -0.75,-0.33579 -0.75,-0.75z" fill="#84930f" stroke="none" stroke-width="0.5"/><path d="M342.4023,252.28123c-0.2096,0 -0.40716,-0.05159 -0.58066,-0.14276c-0.33723,0.25916 -0.75942,0.41323 -1.2176,0.41323c-0.87907,0 -1.62567,-0.56714 -1.89388,-1.35548c-0.36508,0.39143 -0.8854,0.63618 -1.46288,0.63618c-1.10457,0 -2,-0.89543 -2,-2c0,-1.10457 0.89543,-2 2,-2c0.87907,0 1.62567,0.56714 1.89388,1.35548c0.36508,-0.39143 0.8854,-0.63618 1.46288,-0.63618c0.59656,0 1.13212,0.26119 1.49855,0.67545c0.36644,-0.41426 0.90199,-0.67545 1.49855,-0.67545c1.10457,0 2,0.89543 2,2c0,1.10457 -0.89543,2 -2,2c-0.37476,0 -0.72544,-0.10307 -1.02525,-0.28242c-0.05673,0.00788 -0.11469,0.01196 -0.17359,0.01196z" fill="#70b012" stroke="none" stroke-width="0.5"/><path d="M327.36563,250.43181c0,-0.69036 0.55964,-1.25 1.25,-1.25c0.11675,0 0.22975,0.016 0.33695,0.04594c0.21667,-0.87034 1.00345,-1.51524 1.94085,-1.51524c0.71327,0 1.33932,0.37338 1.69338,0.93534c0.80396,0.25927 1.38557,1.01364 1.38557,1.90385c0,1.10457 -0.89543,2 -2,2c-0.71327,0 -1.33932,-0.37338 -1.69338,-0.93534c-0.25909,-0.08355 -0.49508,-0.21852 -0.69596,-0.39289c-0.22924,0.2798 -0.57747,0.45835 -0.96741,0.45835c-0.69036,0 -1.25,-0.55964 -1.25,-1.25z" fill="#70b012" stroke="none" stroke-width="0.5"/><path d="M313.45907,251.51077c0,-0.09118 0.00976,-0.18007 0.0283,-0.2657c-0.36205,0.36283 -0.86268,0.58732 -1.41575,0.58732c-0.52176,0 -0.99685,-0.19979 -1.35295,-0.52705c-0.06687,0.01106 -0.13554,0.01682 -0.20555,0.01682c-0.35272,0 -0.67132,-0.14609 -0.89859,-0.38107c-0.34419,0.60397 -0.99397,1.01119 -1.73886,1.01119c-1.08612,0 -1.97002,-0.86576 -1.99925,-1.94482c-0.1675,0.79409 -0.80613,1.41451 -1.60979,1.55515c-0.33189,0.24491 -0.7422,0.38967 -1.18632,0.38967c-0.62742,0 -1.18736,-0.28891 -1.55405,-0.74095c-0.20424,0.14529 -0.45402,0.23072 -0.72375,0.23072c-0.23374,0 -0.45249,-0.06415 -0.63961,-0.17581c-0.33884,0.62291 -0.99908,1.04569 -1.75807,1.04569c-0.53524,0 -1.02138,-0.21026 -1.38032,-0.55268c-0.17113,0.04766 -0.3515,0.07314 -0.53783,0.07314c-1.10457,0 -2,-0.89543 -2,-2c0,-1.10457 0.89543,-2 2,-2c0.53524,0 1.02138,0.21026 1.38032,0.55268c0.17113,-0.04766 0.3515,-0.07314 0.53783,-0.07314c0.68754,0 1.29406,0.34693 1.65403,0.87529c0.20782,-0.15406 0.4651,-0.24517 0.74365,-0.24517c0.17601,0 0.34352,0.03638 0.49542,0.10202c0.2805,-0.54938 0.80753,-0.95192 1.43524,-1.06177c0.33189,-0.24491 0.7422,-0.38967 1.18632,-0.38967c1.08612,0 1.97002,0.86576 1.99925,1.94482c0.06,-0.28447 0.18047,-0.54665 0.34732,-0.77247c-0.00003,-0.00384 -0.00005,-0.00768 -0.00005,-0.01153c0,-0.69036 0.55964,-1.25 1.25,-1.25c0.44005,0 0.827,0.22739 1.04974,0.57109c0.50293,0.18489 0.91102,0.56606 1.13142,1.05065c0.17724,-0.15286 0.39786,-0.2568 0.64089,-0.29086c0.34553,-0.59887 0.99247,-1.00193 1.73355,-1.00193c1.10457,0 2,0.89543 2,2c0,0.24022 -0.04235,0.47054 -0.11999,0.68392c0.21018,-0.16033 0.47269,-0.25554 0.75744,-0.25554c0.10619,0 0.20929,0.01324 0.30773,0.03816c-0.01968,-0.1126 -0.02993,-0.22843 -0.02993,-0.34666c0,-1.10457 0.89543,-2 2,-2c1.10457,0 2,0.89543 2,2c0,1.10457 -0.89543,2 -2,2c-0.37964,0 -0.73458,-0.10578 -1.03695,-0.28947c-0.07501,0.61865 -0.60196,1.09797 -1.24085,1.09797c-0.69036,0 -1.25,-0.55964 -1.25,-1.25z" fill="#70b012" stroke="none" stroke-width="0.5"/><path d="M301.59055,254.38799c0,-0.69036 0.55964,-1.25 1.25,-1.25c0.69036,0 1.25,0.55964 1.25,1.25c0,0.69036 -0.55964,1.25 -1.25,1.25c-0.69036,0 -1.25,-0.55964 -1.25,-1.25z" fill="#70b012" stroke="none" stroke-width="0.5"/><path d="M303.74846,252.94938c0,-0.69036 0.55964,-1.25 1.25,-1.25c0.69036,0 1.25,0.55964 1.25,1.25c0,0.69036 -0.55964,1.25 -1.25,1.25c-0.69036,0 -1.25,-0.55964 -1.25,-1.25z" fill="#70b012" stroke="none" stroke-width="0.5"/><path d="M316.57606,253.78857c0,-0.69036 0.55964,-1.25 1.25,-1.25c0.69036,0 1.25,0.55964 1.25,1.25c0,0.69036 -0.55964,1.25 -1.25,1.25c-0.69036,0 -1.25,-0.55964 -1.25,-1.25z" fill="#70b012" stroke="none" stroke-width="0.5"/><path d="M325.78957,251.39089c0,0.69036 -0.55964,1.25 -1.25,1.25c-0.02562,0 -0.05106,-0.00077 -0.0763,-0.00229c0.08162,0.16611 0.12746,0.35298 0.12746,0.55055c0,0.69036 -0.55964,1.25 -1.25,1.25c-0.69036,0 -1.25,-0.55964 -1.25,-1.25c0,-0.69036 0.55964,-1.25 1.25,-1.25c0.02562,0 0.05106,0.00077 0.0763,0.00229c-0.01785,-0.03633 -0.03399,-0.07365 -0.04831,-0.11186c-0.21567,-0.07945 -0.41388,-0.195 -0.58729,-0.33933c-0.31937,0.216 -0.70449,0.34214 -1.11907,0.34214c-1.10457,0 -2,-0.89543 -2,-2c0,-1.10457 0.89543,-2 2,-2c0.48625,0 0.93197,0.17353 1.27861,0.46203c0.31937,-0.216 0.70449,-0.34214 1.11907,-0.34214c1.10457,0 2,0.89543 2,2c0,0.40066 -0.11781,0.7738 -0.32069,1.08668c0.03269,0.11163 0.05023,0.22973 0.05023,0.35193z" fill="#70b012" stroke="none" stroke-width="0.5"/><path d="M334.91833,253.66868c0,-0.69036 0.55964,-1.25 1.25,-1.25c0.69036,0 1.25,0.55964 1.25,1.25c0,0.69036 -0.55964,1.25 -1.25,1.25c-0.69036,0 -1.25,-0.55964 -1.25,-1.25z" fill="#70b012" stroke="none" stroke-width="0.5"/><path d="M336.23705,256.06637c0,-0.69036 0.55964,-1.25 1.25,-1.25c0.69036,0 1.25,0.55964 1.25,1.25c0,0.69036 -0.55964,1.25 -1.25,1.25c-0.69036,0 -1.25,-0.55964 -1.25,-1.25z" fill="#70b012" stroke="none" stroke-width="0.5"/><path d="M300.29228,260.02254c0,-0.41421 0.33579,-0.75 0.75,-0.75c0.41421,0 0.75,0.33579 0.75,0.75c0,0.41421 -0.33579,0.75 -0.75,0.75c-0.41421,0 -0.75,-0.33579 -0.75,-0.75z" fill="#70b012" stroke="none" stroke-width="0.5"/><path d="M307.96487,258.22428c0,-0.41421 0.33579,-0.75 0.75,-0.75c0.41421,0 0.75,0.33579 0.75,0.75c0,0.41421 -0.33579,0.75 -0.75,0.75c-0.41421,0 -0.75,-0.33579 -0.75,-0.75z" fill="#70b012" stroke="none" stroke-width="0.5"/><path d="M313.23977,257.74474c0,-0.41421 0.33579,-0.75 0.75,-0.75c0.41421,0 0.75,0.33579 0.75,0.75c0,0.41421 -0.33579,0.75 -0.75,0.75c-0.41421,0 -0.75,-0.33579 -0.75,-0.75z" fill="#70b012" stroke="none" stroke-width="0.5"/><path d="M321.03224,260.50208c0,-0.41421 0.33579,-0.75 0.75,-0.75c0.41421,0 0.75,0.33579 0.75,0.75c0,0.41421 -0.33579,0.75 -0.75,0.75c-0.41421,0 -0.75,-0.33579 -0.75,-0.75z" fill="#70b012" stroke="none" stroke-width="0.5"/><path d="M332.66099,261.94069c0,-0.41421 0.33579,-0.75 0.75,-0.75c0.41421,0 0.75,0.33579 0.75,0.75c0,0.41421 -0.33579,0.75 -0.75,0.75c-0.41421,0 -0.75,-0.33579 -0.75,-0.75z" fill="#70b012" stroke="none" stroke-width="0.5"/><path d="M337.57624,262.06057c0,-0.41421 0.33579,-0.75 0.75,-0.75c0.41421,0 0.75,0.33579 0.75,0.75c0,0.41421 -0.33579,0.75 -0.75,0.75c-0.41421,0 -0.75,-0.33579 -0.75,-0.75z" fill="#70b012" stroke="none" stroke-width="0.5"/><path d="M342.85114,256.66579c0,-0.41421 0.33579,-0.75 0.75,-0.75c0.41421,0 0.75,0.33579 0.75,0.75c0,0.41421 -0.33579,0.75 -0.75,0.75c-0.41421,0 -0.75,-0.33579 -0.75,-0.75z" fill="#70b012" stroke="none" stroke-width="0.5"/><path d="M328.1054,258.58393c0,-0.41421 0.33579,-0.75 0.75,-0.75c0.41421,0 0.75,0.33579 0.75,0.75c0,0.41421 -0.33579,0.75 -0.75,0.75c-0.41421,0 -0.75,-0.33579 -0.75,-0.75z" fill="#70b012" stroke="none" stroke-width="0.5"/><path d="M293.93843,256.18625c0,-0.41421 0.33579,-0.75 0.75,-0.75c0.41421,0 0.75,0.33579 0.75,0.75c0,0.41421 -0.33579,0.75 -0.75,0.75c-0.41421,0 -0.75,-0.33579 -0.75,-0.75z" fill="#70b012" stroke="none" stroke-width="0.5"/></g><g stroke="#000000" stroke-width="0"><path d="M369.93237,174.21948l2.0931,6.94402l-7.6155,-2.4037z" fill="#000000" stroke-linecap="round"/><path d="M343.60844,119.2405c-1.21313,-0.92666 -1.94667,-2.39381 -1.85175,-4.04519c0.10706,-1.86245 1.24095,-3.49054 2.84244,-4.37326c1.42437,-2.19146 7.42409,-0.20074 9.20218,0.58903c6.49438,2.8846 12.5288,11.19831 14.85576,17.67004c7.29805,20.29726 -8.9453,42.34716 -5.62918,62.84729c1.85207,11.44937 10.14286,21.04609 12.33283,32.49943c0.71567,3.74293 0.54595,10.95241 -5.62097,10.95241c-1.76745,0 -3.2774,-1.33186 -4.4579,-2.53724c-0.93035,-0.94996 -0.30675,-5.23071 -0.31353,-5.987c-0.03181,-3.54538 -2.22281,-7.34467 -3.56656,-10.45606c-2.99686,-6.93908 -8.2967,-15.23951 -8.88692,-23.02562c-1.53024,-20.18673 8.78217,-39.80116 6.31156,-59.91543c-0.46609,-3.79461 -6.33716,-10.61812 -8.95317,-12.38575c-1.0036,-0.67812 -2.08393,-0.71775 -3.17137,-0.8034c-0.48099,-0.00212 -0.94314,-0.06651 -1.37869,-0.18527c-0.40127,-0.09174 -0.79946,-0.22973 -1.19101,-0.44899c-0.19749,-0.11059 -0.37045,-0.24374 -0.52373,-0.39498z" fill="#9efd71" stroke-linecap="butt"/><path d="M369.3995,107.87597c0.58053,-2.36854 2.83267,-4.16499 5.41656,-4.16499c1.51115,0 2.83818,0.61444 3.74125,1.59841c0.15556,0.1695 0.29854,0.34996 0.42772,0.54013c2.02357,1.79303 4.37173,3.35023 6.54734,4.97481c0.03935,0.02939 0.05317,0.08328 0.0919,0.11339c18.99717,14.77176 14.40868,44.16718 12.09004,65.40128c-0.19505,1.78626 -0.61593,3.55775 -0.79626,5.34466c-0.23728,2.35119 -0.35974,4.70807 -0.4058,7.05976c-0.05043,2.5748 3.53382,6.55975 2.23319,9.15146c-2.20681,4.39743 -4.2874,5.18268 -8.73849,3.29807c-4.23823,-1.79449 -3.72163,-17.84303 -3.59716,-19.76238c0.11627,-1.79304 0.76833,-4.15297 0.87542,-5.59464c0.81604,-10.98576 2.9285,-26.77174 1.18885,-38.89211c-0.82486,-5.74695 -2.7659,-11.85521 -7.11566,-15.84472c-3.25846,-2.98857 -12.72952,-6.77239 -12.11192,-12.59732c0.02346,-0.22116 0.07583,-0.42915 0.15303,-0.62582z" fill="#9efd71" stroke-linecap="butt"/><path d="M351.24861,113.85993c0.16109,-2.80256 2.6473,-5.07448 5.5531,-5.07448c0.45548,0 0.89422,0.05582 1.30968,0.16076c1.13031,-0.29288 2.82728,1.85536 3.48511,2.59501c3.09269,3.47737 5.52399,6.79951 7.96666,10.74878c12.23991,19.78933 1.96999,41.85034 1.36846,63.45071c-0.09687,3.47851 0.31205,7.57855 1.48113,10.83602c0.34983,0.97477 2.01361,2.90814 1.97734,3.5391c-0.09798,1.70466 -0.35968,3.72839 -1.67874,4.93377c-8.31031,7.59403 -11.25967,-8.18541 -11.79317,-11.94073c-0.17132,-1.20591 -0.35525,-2.51709 -0.41938,-3.7407c-0.94176,-17.97112 7.28597,-35.32754 3.47496,-53.38109c-1.29057,-6.11371 -5.40537,-11.59338 -9.35368,-16.20776c-0.78627,-0.91892 -4.63135,-4.4548 -3.37147,-5.91938z" fill="#67dc31" stroke-linecap="butt"/><path d="M395.83997,164.83193c0.70873,0.8796 1.10041,2.01074 1.02948,3.24475c-0.10706,1.86245 -1.24095,3.49055 -2.84245,4.37326c-0.55095,0.84766 -1.89869,0.85846 -3.06612,0.68978c-0.53019,-0.07661 -1.02318,-0.19024 -1.38746,-0.2793c-4.06955,-0.99503 -4.68974,-6.23276 -5.08634,-9.87606c-0.55766,-5.12288 -1.09163,-12.03355 -2.22419,-17.03879c-1.40015,-6.18784 -4.26545,-11.86194 -5.8262,-18.00491c-2.78213,-10.9502 -1.7508,-14.19804 -9.17425,-23.85577c-1.99828,-2.59972 -4.48848,-6.17793 -0.07803,-9.24089c4.97071,-3.45203 7.50853,1.37006 9.67978,4.10972c6.44761,8.13555 7.92343,16.19646 9.86498,26.23609c0.72936,3.77149 2.24358,6.55141 3.40521,10.19914c1.78429,5.60298 3.02411,11.40094 3.91491,17.24226c0.71103,4.66244 0.78563,8.26036 1.79069,12.20072z" fill="#67dc31" stroke-linecap="butt"/><path d="M373.8977,93.54338c1.19732,0.92771 1.91952,2.38547 1.82529,4.02481c-0.00257,0.04468 -0.00574,0.08923 -0.00948,0.13363c0.10563,0.61084 -0.07623,1.17086 -0.44248,1.68374c-0.86733,1.90488 -2.85936,3.2571 -5.10114,3.2571c-1.9977,0.93727 -4.58754,-2.61456 -5.8767,-3.30033c-4.55166,-2.42126 -10.01025,-5.23919 -15.53151,-5.24616c-6.24135,-0.00787 -13.59982,1.13491 -19.44828,3.96635c-1.36656,0.6616 -3.46692,2.74434 -5.29454,2.98434c-2.81408,0.36954 -5.34227,0.70717 -6.47074,-3.20938c-1.87424,-6.50481 10.10068,-9.95444 14.49574,-11.22616c12.34813,-3.57296 25.2695,-3.60027 36.04523,2.86156c2.42399,1.45358 4.4246,2.4518 5.80861,4.07049z" fill="#67dc31" stroke-linecap="butt"/><path d="M370.81119,101.36327c0.79967,0.90162 1.24991,2.10035 1.17429,3.41602c-0.00257,0.04468 -0.00574,0.08923 -0.00948,0.13363c0.06621,0.38287 0.01947,0.74578 -0.11482,1.08963c5.80953,7.41331 14.03998,18.62151 12.87934,27.01223c-0.85716,6.19673 -1.09246,12.50986 -2.9093,18.56178c-1.86188,6.20195 -5.19918,12.52298 -5.0479,19.07735c0.20103,8.7096 4.55159,17.59095 6.84999,25.78264c2.38473,8.49938 4.33369,17.25798 7.096,25.58759c0.90765,2.737 0.42543,5.99173 -3.46571,7.21999c-7.38285,2.33044 -9.33663,-13.10168 -10.41081,-17.20892c-0.43927,-1.6796 -0.89932,-3.35308 -1.35705,-5.0272c-0.66919,-2.44756 -1.2902,-4.91052 -2.02368,-7.33781c-2.72344,-9.01259 -7.53907,-18.97113 -7.2323,-28.65568c0.41425,-13.07772 7.43852,-24.60591 7.92187,-37.91631c0.35805,-9.85998 -9.83818,-17.68739 -14.53541,-24.94806c-0.43369,-0.67037 -0.6622,-1.48059 -0.68948,-2.32402c-0.00785,-0.1686 -0.00699,-0.33964 0.00296,-0.5127c0.01998,-0.34761 0.07573,-0.68706 0.16361,-1.01502c0.00612,-0.02433 0.0124,-0.04865 0.01884,-0.07293c-3.33373,-1.82818 -8.44654,-2.86545 -11.7412,-2.91821c-4.80088,-0.07689 -9.54071,-0.61929 -14.24983,0.52893c-2.88194,0.7027 -7.03528,5.21195 -10.03586,3.20859c-1.41625,-0.94557 -2.66638,-2.5549 -2.69663,-4.25508c-0.11586,-6.51217 10.70833,-9.25093 15.76672,-9.55362c10.35765,-0.61979 29.26661,-0.39445 34.64584,10.12717z" fill="#4cc513" stroke-linecap="butt"/><path d="M386.15679,130.33129c1.36749,0.26674 1.76146,3.68715 1.96382,4.91504c1.06053,6.43546 0.84265,12.9976 0.64619,19.58986c-0.21672,7.27194 -1.60235,14.48473 -1.79856,21.69645c-0.23542,8.65275 4.52486,16.87144 4.07468,25.46291c-0.35917,6.85491 -0.59314,13.71257 -1.1821,20.56498c-0.22968,2.67224 -2.14004,5.07448 -5.55311,5.07448c-3.41582,0 -5.04585,-2.40224 -4.96972,-5.07448c0.19121,-6.71238 0.83662,-13.43028 1.15796,-20.14499c0.37495,-7.83477 -3.2653,-16.17001 -4.00011,-24.02746c-0.64416,-6.88811 1.36726,-16.9191 1.73863,-23.37309c0.28778,-5.00119 0.41636,-10.75767 -0.20014,-15.75979c-0.23193,-1.88183 -1.17707,-4.21195 -0.695,-6.10029c0.05562,-0.21786 0.13819,-0.41969 0.24356,-0.60793c0.91746,-1.63918 3.56308,-2.24909 5.18988,-3.46362z" fill="#7ade4c" stroke-linecap="butt"/><path d="M345.98107,120.25799c-1.26718,0.78574 -5.76882,-1.85546 -7.47775,-1.85775c-1.65328,-0.00222 -3.3065,-0.00582 -4.96023,0c-2.45902,0.00866 -3.50197,2.64802 -6.52748,2.43532c-3.49785,-0.2459 -5.22035,-4.93389 -3.66114,-7.94281c1.34607,-2.59762 4.38362,-2.84363 6.71427,-3.8142c4.54401,-1.8923 12.23656,-1.69528 17.03249,1.1168c2.0249,1.1873 3.53343,2.84075 4.07063,4.99996z" fill="#9efd71" stroke-linecap="butt"/><path d="M359.62051,108.96229c1.25381,0.92328 2.01676,2.41425 1.92006,4.0964c-0.00257,0.04468 -0.00574,0.08923 -0.00948,0.13363c0.10563,0.61084 -0.07623,1.17086 -0.44248,1.68375c-0.86733,1.90488 -2.85937,3.2571 -5.10116,3.2571c-1.27419,0.59782 -2.23226,-0.06291 -3.02819,-0.96234c-0.70299,-0.51175 -1.25367,-1.20106 -1.58794,-2.00243c-0.15546,-0.16559 -0.3082,-0.29985 -0.46042,-0.3881c-2.46724,-1.43047 -5.8029,-3.55609 -8.84691,-3.9556c-3.31959,-0.43569 -7.40263,-0.48391 -10.60179,-0.43678c-2.09802,0.03091 -3.10897,3.72033 -6.21674,2.7024c-1.64576,-0.53906 -3.54597,-1.31204 -4.24876,-2.83673c-2.533,-5.49531 5.52636,-9.12839 9.71227,-10.01463c8.23638,-1.7438 23.38643,1.52304 28.91153,8.72333z" fill="#67dc31" stroke-linecap="butt"/></g><path d="M256.56567,149.89918c-0.40957,-32.88572 27.65894,-59.89856 62.69274,-60.33488c35.03382,-0.43631 63.76634,25.86912 64.17591,58.75482c0.40957,32.88572 -27.29928,48.14993 -62.33309,48.58625c-35.03381,0.43631 -64.126,-14.12048 -64.53556,-47.00619z" fill="#c8bfb0" stroke="#000000" stroke-width="0" stroke-linecap="butt"/><g><g fill="#a93232" stroke="none" stroke-width="0" stroke-linecap="butt"><path d="M328.42772,200.07011c0,2.1773 -2.01216,3.94235 -4.49428,3.94235c-2.48212,0 -4.49428,-1.76505 -4.49428,-3.94235c0,-2.1773 2.01216,-3.94235 4.49428,-3.94235c2.48212,0 4.49428,1.76505 4.49428,3.94235z"/><path d="M322.90842,201.17397c0,1.65475 -1.80035,2.99619 -4.0212,2.99619c-2.22085,0 -4.0212,-1.34144 -4.0212,-2.99619c0,-1.65475 1.80035,-2.99619 4.0212,-2.99619c2.22085,0 4.0212,1.34144 4.0212,2.99619z"/><path d="M319.28145,204.95863c0,1.56766 -2.04746,2.83849 -4.57313,2.83849c-2.52567,0 -4.57313,-1.27084 -4.57313,-2.83849c0,-1.56766 2.04746,-2.83849 4.57313,-2.83849c2.52567,0 4.57313,1.27084 4.57313,2.83849z"/><path d="M325.27383,200.70088c4.70297,0 8.51548,1.69445 8.51548,3.78466c0,2.09021 -3.81251,3.78466 -8.51548,3.78466c-4.70297,0 -8.51548,-1.69445 -8.51548,-3.78466c0,-2.09021 3.81251,-3.78466 8.51548,-3.78466z"/><path d="M314.07755,205.82594c0,1.08865 -1.30614,1.97118 -2.91734,1.97118c-1.6112,0 -2.91734,-0.88253 -2.91734,-1.97118c0,-1.08865 1.30614,-1.97118 2.91734,-1.97118c1.6112,0 2.91734,0.88253 2.91734,1.97118z"/></g><path d="M303.5886,93.8096c0,0 0.11434,-0.03811 0.2107,0.01798c1.01378,-0.2862 2.04676,-0.49111 3.07105,-0.73602c0.21976,-0.06084 0.44044,-0.11629 0.66221,-0.16552c0.3116,-0.08189 0.62182,-0.16996 0.92987,-0.26768l0.1661,0.07972c0.72357,-0.08583 1.46102,-0.09425 2.21764,0.00144l-1.932,1.3492c-0.26974,0.08484 -0.54331,0.16983 -0.81983,0.25449c-1.59663,0.98879 -4.12216,1.65027 -5.7782,2.23346l0.1045,0.3135c2.5127,-0.56565 5.39517,-0.50534 7.92149,-0.50534h0.13621c0,0 0.25,0 0.25,0.25c0,0.25 -0.25,0.25 -0.25,0.25h-0.13621c-2.47216,0 -5.29922,-0.06487 -7.76263,0.48191l0.05351,0.16054c0.04926,-0.01018 0.10029,-0.01553 0.15257,-0.01553c0.35693,0 0.65562,0.24933 0.73141,0.58332l0.29547,1.18189l-0.0032,0.0008l0.0055,0.00868c0.06061,0.27233 0.11557,0.52023 0.16408,0.75001c0.24229,0.29362 0.44868,0.65807 0.62531,1.05798c0.48464,-0.1057 1.05245,-0.26972 1.63075,-0.44847l0.60446,-0.50371c1.24965,-1.03962 2.14875,-1.68952 3.3416,-2.09819l-0.08834,-0.22085l1.37692,-0.55077c0.09037,-0.0386 0.18986,-0.05996 0.29434,-0.05996c0.41421,0 0.75,0.33579 0.75,0.75c0,0.23238 -0.10568,0.44007 -0.2716,0.57764l-0.77769,0.65369c-0.56234,0.4725 -1.2152,1.1973 -1.90301,1.96236c0.13771,0.42645 0.22331,0.90154 0.35486,1.2549c0.75359,2.02409 1.36236,4.142 1.96975,6.21498c0.38417,1.49594 0.63338,2.81074 0.7688,4.16075c0.15203,-0.08241 0.30379,-0.16533 0.4484,-0.25813c0.40794,-0.26177 0.83091,-0.50008 1.2639,-0.72007l-0.06064,-0.08085l1.19105,-0.89328c0.12637,-0.09693 0.28449,-0.15455 0.45606,-0.15455c0.41421,0 0.75,0.33579 0.75,0.75c0,0.1576 -0.04861,0.30384 -0.13165,0.42456l-0.59287,0.8893l-0.00236,-0.00157l-0.00221,0.00835c-0.89478,1.28084 -1.65283,2.53567 -2.36782,3.88283c0.34414,-0.43068 0.70309,-0.84668 1.07953,-1.20973c0.22199,-0.45947 0.4146,-0.8484 0.52574,-1.11748l0.1494,-0.08036l-0.04153,-0.0447l1.09737,-1.01968c0.13404,-0.12527 0.31406,-0.20195 0.512,-0.20195c0.41421,0 0.75,0.33579 0.75,0.75c0,0.14659 -0.04206,0.28336 -0.11476,0.3989l-0.7707,1.27267l-0.22684,-0.13737c-0.10805,0.20625 -0.22156,0.40699 -0.34008,0.60333c-0.03085,0.10364 -0.06332,0.21375 -0.0973,0.32878c0.95176,-0.12866 1.65771,0.09831 2.31312,0.60132c0.02465,-0.00245 0.04965,-0.0037 0.07495,-0.0037c0.41421,0 0.75,0.33579 0.75,0.75c0,0.01317 -0.00034,0.02626 -0.00101,0.03926c0.08496,0.09489 0.17048,0.19394 0.25699,0.29698l0.12153,0.1202c0,0 0.17678,0.17678 0,0.35355c-0.17678,0.17678 -0.35355,0 -0.35355,0l-0.13499,-0.13618l-0.17174,0.93684c-0.27155,1.48123 -0.48426,2.99741 -0.71714,4.49658c0.61841,-1.66512 1.48928,-3.48671 1.9054,-4.73228c0.02114,-1.77195 0.30905,-3.25944 0.84834,-4.83263c-0.08542,-0.12779 0.00967,-0.27042 0.00967,-0.27042c0.05401,-0.07946 0.11089,-0.15735 0.17047,-0.23372c0.11491,-0.30947 0.23922,-0.62364 0.37281,-0.94522l0.11493,-0.27665c0,0 0.09591,-0.23087 0.32678,-0.13496c0.23087,0.09591 0.13496,0.32678 0.13496,0.32678l-0.05645,0.13589c1.40892,-1.13616 3.42227,-1.82531 5.00093,-2.22597c0.28659,-0.46836 0.61139,-0.93253 0.95769,-1.29533c0.0922,-0.16966 0.1838,-0.33987 0.27471,-0.51068l0.03897,-0.03086l-0.01268,-0.00896l0.86005,-1.21642c0.13522,-0.19653 0.36172,-0.32539 0.61831,-0.32539c0.41421,0 0.75,0.33579 0.75,0.75c0,0.11358 -0.02525,0.22127 -0.07044,0.31775l-0.40492,0.91762l-0.17497,-0.07721l-0.3325,0.47028c-0.00903,0.01704 -0.01806,0.03408 -0.0271,0.05112c-0.03944,0.07758 -0.08021,0.15397 -0.12217,0.22945c-0.76424,1.43044 -1.56171,2.83336 -2.37329,4.20864c-0.36622,1.11302 -0.62155,2.32367 -1.208,3.28972c-0.83183,1.37025 -2.38232,2.60525 -3.36922,3.92046c-0.52805,0.70372 -1.01953,1.42745 -1.49625,2.15902c0.0303,0.01451 0.06104,0.03036 0.09222,0.04761c1.34852,0.7459 -0.04715,3.74307 -0.56285,4.55767l-0.27117,0.8135c-0.09425,0.30647 -0.3796,0.52924 -0.71698,0.52924c-0.33738,0 -0.62273,-0.22277 -0.71698,-0.52924l-0.29381,-0.88142l0.19246,-0.06415c-0.01315,-0.03582 -0.02557,-0.07139 -0.0373,-0.1068c-0.06777,0.0436 -0.13678,0.08341 -0.20682,0.11896l-0.04247,0.17358c-0.07449,0.33576 -0.37402,0.58684 -0.7322,0.58684c-0.06014,0 -0.11862,-0.00708 -0.17466,-0.02045l-0.264,0.79199c-0.09425,0.30647 -0.3796,0.52924 -0.71698,0.52924c-0.41421,0 -0.75,-0.33579 -0.75,-0.75v-0.89783h0.25871l0.07251,-0.21752c0.03619,-0.35018 0.14917,-0.63257 0.3239,-0.88905c-0.01769,-0.15137 -0.03096,-0.33958 -0.04073,-0.54238c-0.15083,-0.61525 -0.52972,-1.68101 -0.82792,-2.74643c-0.3309,-0.02219 -0.60301,-0.25899 -0.67833,-0.57241l-0.37517,-1.42117c-0.05356,-0.16812 -0.10913,-0.3341 -0.16503,-0.49873c-0.17173,-0.00143 -0.35664,-0.06862 -0.55532,-0.22663c-0.03746,-0.02979 -0.07273,-0.0611 -0.1059,-0.09387l-0.00312,0.90014c-0.00122,0.41317 -0.33654,0.74773 -0.75,0.74773c-0.36866,0 -0.6752,-0.266 -0.73816,-0.61654l-0.21615,-1.08073c-0.13621,0.13967 -0.32647,0.2264 -0.53697,0.2264c-0.41421,0 -0.75,-0.33579 -0.75,-0.75v-0.89783h0.29291c0.01686,-0.4512 0.08687,-0.89937 0.19905,-1.34325c-0.13258,-0.34791 -0.29552,-0.76456 -0.46783,-1.2186c-0.05522,0.01295 -0.11279,0.0198 -0.17195,0.0198c-0.35693,0 -0.65562,-0.24933 -0.73141,-0.58332l-0.29547,-1.18189l0.0139,-0.00347l-0.02268,-0.0362c-0.0406,-0.29276 -0.08091,-0.57871 -0.1196,-0.85921c-0.12522,-0.46186 -0.17337,-1.003 -0.19029,-1.51382c-0.01406,-0.13229 -0.02711,-0.26386 -0.03899,-0.39487c-0.07604,0.02595 -0.15757,0.04003 -0.24239,0.04003c-0.32267,0 -0.59775,-0.20377 -0.70358,-0.48964c-0.11551,0.07265 -0.25223,0.11467 -0.39876,0.11467c-0.34518,0 -0.6359,-0.23319 -0.72321,-0.55063l-0.38969,-1.29895l-0.12069,-0.24138l0.00896,-0.00448c-0.00744,-0.0079 -0.01488,-0.01579 -0.02232,-0.02369l-0.0041,-0.03193l-0.00808,0.00323l-0.55077,-1.37692c-0.0386,-0.09037 -0.05996,-0.18986 -0.05996,-0.29434c0,-0.00724 0.0001,-0.01446 0.00031,-0.02165c-0.01377,-0.03398 -0.02762,-0.06815 -0.04153,-0.1025l-0.00174,0.29808c-0.00206,0.41245 -0.33705,0.74617 -0.74999,0.74617c-0.36866,0 -0.6752,-0.266 -0.73816,-0.61654l-0.28882,-1.44409c-0.24591,-0.98193 -0.52833,-1.84509 -0.76798,-2.6844c-0.13715,0.17775 -0.35228,0.29224 -0.59415,0.29224c-0.08063,0 -0.15829,-0.01272 -0.23107,-0.03627l-0.23462,0.93849c-0.07579,0.33399 -0.37449,0.58332 -0.73141,0.58332c-0.30652,0 -0.5701,-0.18388 -0.68643,-0.44735l-0.39813,-0.85084l0.00638,-0.00299l-0.01568,-0.01769c-1.12296,-2.8327 -2.31632,-5.98406 -1.84307,-9.00798h-0.20728v-0.89783c0,-0.01946 0.00074,-0.03875 0.0022,-0.05783c-0.0944,-0.082 -0.19433,-0.16209 -0.30075,-0.24c0,0 -0.6,-0.45 -0.15,-1.05c0.45,-0.6 1.05,-0.15 1.05,-0.15c0.07842,0.05998 0.15406,0.12076 0.22716,0.18227c0.06977,-0.02145 0.14387,-0.03299 0.22067,-0.03299c0.3232,0 0.59864,0.20443 0.70409,0.49104c1.15953,0.03939 2.34261,0.04685 3.39096,-0.3026zM300.43354,94.81943c0.08739,0.00484 0.17078,0.02465 0.24767,0.05689c0.19388,-0.11442 0.42966,-0.18778 0.67252,-0.25244c-0.32874,0.00464 -0.65936,-0.00109 -0.98883,-0.01035zM320.78568,117.21036c0.13719,-0.15089 0.33507,-0.24561 0.55507,-0.24561c0.41421,0 0.75,0.33579 0.75,0.75v0.34763c0.72564,-0.60645 1.47774,-1.2051 1.90406,-1.93904c0.58821,-1.01266 1.19568,-2.02616 1.80335,-3.04977c0.11632,-0.34139 0.24558,-0.67157 0.40123,-0.97982c0.13826,-0.27382 0.32341,-0.6441 0.54396,-1.04413c-1.73464,0.47325 -3.97736,1.33285 -5.09419,2.7429c-0.42661,1.15722 -0.71617,2.24306 -0.86347,3.41783zM311.40408,108.75856c-0.60357,-2.05885 -1.2072,-4.16284 -1.95618,-6.17296c-0.0729,-0.19566 -0.15956,-0.61092 -0.26807,-1.00556c-0.30924,0.34197 -0.62334,0.68422 -0.93745,1.00835c0.34439,0.69891 0.68265,1.84382 0.76592,2.09365c0.33463,1.00398 0.96576,2.13604 1.56252,3.30692l0.02146,0.03219l-0.00378,0.00252c0.89558,1.76043 1.70619,3.60654 1.30953,5.23566c0.08926,-0.07334 0.18379,-0.13953 0.28149,-0.20144c-0.1266,-1.39897 -0.37644,-2.74475 -0.77542,-4.29933zM315.30059,118.61838c0.40162,-0.29936 0.82814,-0.53174 1.25617,-0.39227c0.34866,0.11361 0.56066,0.2819 0.67661,0.48086c0.02331,-0.0345 0.04682,-0.06889 0.07051,-0.10316l-0.11264,-0.05424l0.64354,-1.33655c0.03048,-0.06695 0.07051,-0.12863 0.11836,-0.1833c-0.54348,-0.35941 -1.14382,-0.48857 -1.98187,-0.32302c-0.1927,0.63582 -0.42043,1.33925 -0.67069,1.91168zM307.86704,105.91647c0.04104,0.32349 0.08041,0.64235 0.11644,0.9584c0.13413,0.7204 0.25241,1.44928 0.37117,2.19789c0.03813,0.03799 0.07574,0.07643 0.11281,0.11532c0.01149,-0.19117 0.03391,-0.38022 0.06337,-0.56238l0.08799,-1.10544c-0.26984,-0.51972 -0.52717,-1.05134 -0.75178,-1.60379zM305.5815,103.30449c0.18682,-0.47142 0.43092,-0.90729 0.71928,-1.31825c-0.30736,0.13979 -0.63403,0.2616 -0.96389,0.36062l0.25514,0.76543l-0.10904,0.03635c0.03324,0.05181 0.06607,0.10375 0.0985,0.15585zM300.77498,101.11964c0.03512,0.12349 0.07125,0.24678 0.10837,0.36993l0.10371,-0.03457c-0.07281,-0.11123 -0.14346,-0.223 -0.21208,-0.33536zM301.3058,102.77644c0.00076,-0.04876 0.00178,-0.09784 0.00308,-0.14719c-0.06156,-0.07464 -0.10896,-0.16138 -0.1381,-0.25613l-0.2033,-0.60991c0.10584,0.33772 0.21887,0.6749 0.33833,1.01323z" fill="#a93232" stroke="none" stroke-width="0.5" stroke-linecap="butt"/><g stroke-linecap="butt"><path d="M255.36488,148.57225c0,-24.71643 15.84245,-45.95954 38.51544,-55.26999c0.64104,-0.26324 2.55397,-2.31094 2.55397,-2.31094l2.54387,4.44437c0,0 0.47417,2.84561 1.59472,4.69612c0.51554,0.85138 3.57038,2.69166 3.57038,2.69166c0,0 1.33785,4.99489 3.05812,7.96884c1.0383,1.79499 4.99924,1.09082 4.99924,1.09082c0,0 -1.21462,4.05445 -0.4512,5.92824c0.46411,1.13913 4.24534,3.76439 4.24534,3.76439l2.91612,6.7775l1.90902,-6.61915c0,0 2.12299,-1.94179 4.51783,-6.61315c4.76399,-9.2926 11.96611,-24.61852 15.2087,-23.56925c25.19356,8.15242 43.2925,30.60246 43.2925,57.02053c0,27.3354 -19.37766,50.42241 -45.94209,57.81763c-1.26581,0.35239 -5.36139,1.34815 -5.36139,1.34815c0,0 -1.01478,-2.41018 -2.49234,-3.61449c-0.7351,-0.59916 -4.66669,-0.7428 -4.66669,-0.7428c0,0 -0.60095,-2.64078 -1.113,-3.17797c-0.65363,-0.68573 -3.27946,0.37555 -3.27946,0.37555c0,0 -2.25716,-0.16308 -2.67141,0.2172c-0.47366,0.43481 -0.21929,1.88795 -0.21929,1.88795c0,0 -3.44754,0.16444 -4.52243,0.99258c-0.63299,0.48768 -0.54697,2.99603 -0.54697,2.99603c0,0 -2.71444,-1.06034 -4.10631,-1.01846c-1.76862,0.05322 -3.33334,1.79072 -4.6409,1.4903c-28.07752,-6.45108 -48.91176,-30.22751 -48.91176,-58.57166z" fill="#4cc114" stroke="#000000" stroke-width="0"/><path d="M255.36488,148.57225c0,-24.71643 15.84245,-45.95954 38.51544,-55.26999c0.64104,-0.26324 2.55397,-2.31094 2.55397,-2.31094l2.54387,4.44437c0,0 0.47417,2.84561 1.59472,4.69612c0.51554,0.85138 3.57038,2.69166 3.57038,2.69166c0,0 1.33785,4.99489 3.05812,7.96884c1.0383,1.79499 4.99924,1.09082 4.99924,1.09082c0,0 -1.21462,4.05445 -0.4512,5.92824c0.46411,1.13913 4.24534,3.76439 4.24534,3.76439l2.91612,6.7775l1.90902,-6.61915c0,0 2.12299,-1.94179 4.51783,-6.61315c4.76399,-9.2926 11.96611,-24.61852 15.2087,-23.56925c25.19356,8.15242 43.2925,30.60246 43.2925,57.02053c0,5.30901 -0.73093,10.45776 -2.10349,15.36243c-0.01471,0.05255 -125.01263,-2.96952 -125.04152,-3.10077c-0.87127,-3.95916 -1.32904,-8.06022 -1.32904,-12.26165z" fill="#70b012" stroke="#000000" stroke-width="0"/><path d="M255.36488,148.57225c0,-24.71643 15.84245,-45.95954 38.51544,-55.26999c0.64104,-0.26324 2.55397,-2.31094 2.55397,-2.31094l2.54387,4.44437c0,0 0.47417,2.84561 1.59472,4.69612c0.51554,0.85138 3.57038,2.69166 3.57038,2.69166c0,0 1.33785,4.99489 3.05812,7.96884c1.0383,1.79499 4.99924,1.09082 4.99924,1.09082c0,0 -1.21462,4.05445 -0.4512,5.92824c0.46411,1.13913 4.24534,3.76439 4.24534,3.76439l2.91612,6.7775l1.90902,-6.61915c0,0 2.12299,-1.94179 4.51783,-6.61315c4.76399,-9.2926 11.96611,-24.61852 15.2087,-23.56925c25.19356,8.15242 43.2925,30.60246 43.2925,57.02053c0,0.1732 -128.47404,0.27117 -128.47404,0.00001z" fill="#84930f" stroke="#000000" stroke-width="0"/><path d="M258.13906,130.9885c5.48538,-16.91617 18.67928,-30.6799 35.74126,-37.68624c0.64104,-0.26324 2.55397,-2.31094 2.55397,-2.31094l2.54387,4.44437c0,0 0.47417,2.84561 1.59472,4.69612c0.51554,0.85138 3.57038,2.69166 3.57038,2.69166c0,0 1.33785,4.99489 3.05812,7.96884c1.0383,1.79499 4.99924,1.09082 4.99924,1.09082c0,0 -1.21462,4.05445 -0.4512,5.92824c0.46411,1.13913 4.24534,3.76439 4.24534,3.76439l2.91612,6.7775l1.90902,-6.61915c0,0 2.12299,-1.94179 4.51783,-6.61315c4.76399,-9.2926 11.96611,-24.61852 15.2087,-23.56925c19.32661,6.25393 34.47818,20.92173 40.48692,39.34024c0.12394,0.37991 -122.99781,0.4158 -122.89429,0.09655z" fill="#7a6c00" stroke="#000000" stroke-width="0"/><path d="M260.31539,134.03047c0,-0.30928 0.11232,-0.59233 0.2984,-0.81057c-0.07239,-0.00944 -0.14284,-0.02506 -0.21079,-0.04634c-0.26024,0.15346 -0.56365,0.2415 -0.88763,0.2415c-0.9665,0 -1.75,-0.7835 -1.75,-1.75c0,-0.9665 0.7835,-1.75 1.75,-1.75c0.55055,0 1.04172,0.25423 1.36251,0.6517c0.3108,-0.48668 0.8557,-0.80939 1.47598,-0.80939c0.25116,0 0.48997,0.05291 0.70588,0.1482c0.31187,-0.28778 0.72863,-0.46358 1.18645,-0.46358c0.26061,0 0.50791,0.05697 0.73014,0.15913c0.28431,-0.19963 0.63072,-0.31682 1.0045,-0.31682c0.9665,0 1.75,0.7835 1.75,1.75c0,0.9665 -0.7835,1.75 -1.75,1.75c-0.26061,0 -0.50791,-0.05697 -0.73014,-0.15913c-0.28431,0.19963 -0.63072,0.31682 -1.0045,0.31682c-0.25116,0 -0.48997,-0.05291 -0.70588,-0.1482c-0.26906,0.24828 -0.61618,0.41321 -1.00039,0.45381c0.17234,0.21425 0.27547,0.48652 0.27547,0.78288c0,0.69036 -0.55964,1.25 -1.25,1.25c-0.69036,0 -1.25,-0.55964 -1.25,-1.25z" fill="#7a6c00" stroke="none" stroke-width="0.5"/><path d="M274.95784,131.98045c0,0.69036 -0.55964,1.25 -1.25,1.25c-0.58037,0 -1.06836,-0.39553 -1.20912,-0.93173c-0.06889,0.00824 -0.13901,0.01249 -0.21013,0.01249c-0.10228,0 -0.20251,-0.00877 -0.29998,-0.02561c0.18011,0.21659 0.28842,0.49501 0.28842,0.79872c0,0.69036 -0.55964,1.25 -1.25,1.25c-0.69036,0 -1.25,-0.55964 -1.25,-1.25c0,-0.1897 0.04226,-0.36953 0.11787,-0.53059c-0.72218,-0.21557 -1.24865,-0.88487 -1.24865,-1.67713c0,-0.9665 0.7835,-1.75 1.75,-1.75c0.25116,0 0.48997,0.05291 0.70588,0.1482c0.31187,-0.28778 0.72863,-0.46358 1.18645,-0.46358c0.9665,0 1.75,0.7835 1.75,1.75c0,0.07111 -0.00424,0.14123 -0.01249,0.21013c0.5362,0.14076 0.93173,0.62875 0.93173,1.20912z" fill="#7a6c00" stroke="none" stroke-width="0.5"/><path d="M276.53097,130.24581c0,-0.9665 0.7835,-1.75 1.75,-1.75c0.9665,0 1.75,0.7835 1.75,1.75c0,0.9665 -0.7835,1.75 -1.75,1.75c-0.9665,0 -1.75,-0.7835 -1.75,-1.75z" fill="#7a6c00" stroke="none" stroke-width="0.5"/><path d="M330.62007,131.82275c0,-0.9665 0.7835,-1.75 1.75,-1.75c0.9665,0 1.75,0.7835 1.75,1.75c0,0.9665 -0.7835,1.75 -1.75,1.75c-0.9665,0 -1.75,-0.7835 -1.75,-1.75z" fill="#7a6c00" stroke="none" stroke-width="0.5"/><path d="M325.74692,133.70353c-0.20135,0 -0.39158,-0.04761 -0.56005,-0.13218c-0.02346,0.00093 -0.04704,0.0014 -0.07072,0.0014c-0.63526,0 -1.19147,-0.33849 -1.49809,-0.84495c-0.30663,0.50646 -0.86283,0.84495 -1.49809,0.84495c-0.39047,0 -0.75107,-0.12788 -1.04221,-0.34405c-0.30995,0.491 -0.85734,0.81714 -1.4809,0.81714c-0.56293,0 -1.06378,-0.26579 -1.3839,-0.67873c-0.24551,0.13124 -0.52598,0.20565 -0.82382,0.20565c-0.3727,0 -0.71819,-0.11651 -1.00203,-0.31509c-0.14511,0.5297 -0.62994,0.91895 -1.20569,0.91895c-0.58082,0 -1.06911,-0.39613 -1.20944,-0.93297c-0.31156,0.48266 -0.85414,0.80219 -1.47136,0.80219c-0.46343,0 -0.88479,-0.18014 -1.19787,-0.47422c-0.02113,0.00076 -0.04236,0.00114 -0.06368,0.00114c-0.9665,0 -1.75,-0.7835 -1.75,-1.75c0,-0.9665 0.7835,-1.75 1.75,-1.75c0.46343,0 0.88479,0.18014 1.19787,0.47422c0.02113,-0.00076 0.04236,-0.00114 0.06368,-0.00114c0.90167,0 1.64407,0.68192 1.73961,1.55816c0.22913,-0.26194 0.56584,-0.42739 0.9412,-0.42739c0.16194,0 0.31669,0.03079 0.4587,0.08685c0.03126,-0.93905 0.80236,-1.69071 1.74901,-1.69071c0.56293,0 1.06378,0.26579 1.3839,0.67873c0.24551,-0.13124 0.52598,-0.20565 0.82382,-0.20565c0.39047,0 0.75107,0.12788 1.04221,0.34405c0.30995,-0.491 0.85734,-0.81714 1.4809,-0.81714c0.63526,0 1.19147,0.33849 1.49809,0.84495c0.30663,-0.50646 0.86283,-0.84495 1.49809,-0.84495c0.88753,0 1.62074,0.6607 1.73464,1.51709c0.11389,-0.85639 0.84711,-1.51709 1.73464,-1.51709c0.9665,0 1.75,0.7835 1.75,1.75c0,0.9665 -0.7835,1.75 -1.75,1.75c-0.70699,0 -1.31606,-0.41924 -1.59217,-1.02268c-0.04929,0.64524 -0.58846,1.15346 -1.24633,1.15346z" fill="#7a6c00" stroke="none" stroke-width="0.5"/><path d="M258.24226,149.64219c0,0.69036 -0.55964,1.25 -1.25,1.25c-0.59059,0 -1.08552,-0.40958 -1.21623,-0.96018c-0.4202,-0.31964 -0.69146,-0.82498 -0.69146,-1.39368c0,-0.9665 0.7835,-1.75 1.75,-1.75c0.66959,0 1.25134,0.37605 1.54558,0.92848c0.31455,-0.46507 0.84688,-0.77079 1.45061,-0.77079c0.9665,0 1.75,0.7835 1.75,1.75c0,0.9665 -0.7835,1.75 -1.75,1.75c-0.66959,0 -1.25134,-0.37605 -1.54558,-0.92848c-0.01436,0.02123 -0.02917,0.04213 -0.04442,0.06268c0.001,0.02053 0.00151,0.04119 0.00151,0.06197z" fill="#84930f" stroke="none" stroke-width="0.5"/><path d="M268.18855,148.0768c0.69036,0 1.25,0.55964 1.25,1.25c0,0.69036 -0.55964,1.25 -1.25,1.25c-0.35929,0 -0.68318,-0.15159 -0.9112,-0.39429c-0.30608,0.26257 -0.70393,0.42121 -1.13883,0.42121c-0.9665,0 -1.75,-0.7835 -1.75,-1.75c0,-0.9665 0.7835,-1.75 1.75,-1.75c0.71922,0 1.33711,0.43388 1.6062,1.05417c0.13792,-0.0524 0.28752,-0.08108 0.44383,-0.08108z" fill="#84930f" stroke="none" stroke-width="0.5"/><path d="M316.13912,149.79989c0,-0.0914 0.00981,-0.18052 0.02844,-0.26634c-0.13584,-0.24876 -0.21305,-0.53412 -0.21305,-0.83752c0,-0.9665 0.7835,-1.75 1.75,-1.75c0.9665,0 1.75,0.7835 1.75,1.75c0,0.65285 -0.35749,1.2222 -0.88739,1.52298c-0.17229,0.48422 -0.63466,0.83088 -1.178,0.83088c-0.69036,0 -1.25,-0.55964 -1.25,-1.25z" fill="#84930f" stroke="none" stroke-width="0.5"/><path d="M320.05456,149.01141c0,-0.9665 0.7835,-1.75 1.75,-1.75c0.9665,0 1.75,0.7835 1.75,1.75c0,0.9665 -0.7835,1.75 -1.75,1.75c-0.9665,0 -1.75,-0.7835 -1.75,-1.75z" fill="#84930f" stroke="none" stroke-width="0.5"/><path d="M259.51537,159.11539c0.69036,0 1.25,0.55964 1.25,1.25c0,0.55089 -0.35636,1.01854 -0.85114,1.18501c-0.23183,0.69485 -0.88763,1.19576 -1.66042,1.19576c-0.9665,0 -1.75,-0.7835 -1.75,-1.75c0,-0.9665 0.7835,-1.75 1.75,-1.75c0.1933,0 0.37927,0.03134 0.55313,0.08921c0.20135,-0.13875 0.4454,-0.21999 0.70843,-0.21999z" fill="#70b012" stroke="none" stroke-width="0.5"/><path d="M268.81932,162.87695c-0.20135,0 -0.39158,-0.04761 -0.56005,-0.13218c-0.02346,0.00093 -0.04704,0.0014 -0.07072,0.0014c-0.59159,0 -1.11462,-0.29355 -1.43137,-0.74293c-0.27028,0.17092 -0.59061,0.26985 -0.93404,0.26985c-0.9665,0 -1.75,-0.7835 -1.75,-1.75c0,-0.9665 0.7835,-1.75 1.75,-1.75c0.59159,0 1.11462,0.29355 1.43137,0.74293c0.27028,-0.17092 0.59061,-0.26985 0.93404,-0.26985c0.25262,0 0.49273,0.05353 0.70962,0.14985c0.21689,-0.09633 0.45701,-0.14985 0.70962,-0.14985c0.9665,0 1.75,0.7835 1.75,1.75c0,0.9665 -0.7835,1.75 -1.75,1.75c-0.0702,0 -0.13943,-0.00413 -0.20747,-0.01217c-0.17358,0.09129 -0.37126,0.14295 -0.581,0.14295z" fill="#70b012" stroke="none" stroke-width="0.5"/><path d="M314.55063,160.69234c0.20135,0 0.39158,0.04761 0.56005,0.13218c0.02346,-0.00093 0.04704,-0.0014 0.07072,-0.0014c0.26061,0 0.50791,0.05697 0.73014,0.15913c0.28431,-0.19963 0.63072,-0.31682 1.0045,-0.31682c0.9665,0 1.75,0.7835 1.75,1.75c0,0.9665 -0.7835,1.75 -1.75,1.75c-0.26061,0 -0.50791,-0.05697 -0.73014,-0.15913c-0.28431,0.19963 -0.63072,0.31682 -1.0045,0.31682c-0.41348,0 -0.79347,-0.1434 -1.09294,-0.38318c-0.15371,0.04414 -0.31609,0.06779 -0.484,0.06779c-0.9665,0 -1.75,-0.7835 -1.75,-1.75c0,-0.9665 0.7835,-1.75 1.75,-1.75c0.2882,0 0.56013,0.06967 0.79987,0.19308c0.04799,-0.00559 0.09681,-0.00847 0.1463,-0.00847z" fill="#70b012" stroke="none" stroke-width="0.5"/><path d="M325.90461,160.98081c0.9665,0 1.75,0.7835 1.75,1.75c0,0.9665 -0.7835,1.75 -1.75,1.75c-0.43236,0 -0.8281,-0.1568 -1.13346,-0.41663c-0.26657,0.16421 -0.5805,0.25893 -0.91656,0.25893c-0.9665,0 -1.75,-0.7835 -1.75,-1.75c0,-0.9665 0.7835,-1.75 1.75,-1.75c0.43236,0 0.8281,0.1568 1.13346,0.41663c0.26657,-0.16421 0.5805,-0.25893 0.91656,-0.25893z" fill="#70b012" stroke="none" stroke-width="0.5"/><path d="M265.20391,135.44972c0,-0.69036 0.55964,-1.25 1.25,-1.25c0.69036,0 1.25,0.55964 1.25,1.25c0,0.69036 -0.55964,1.25 -1.25,1.25c-0.69036,0 -1.25,-0.55964 -1.25,-1.25z" fill="#7a6c00" stroke="none" stroke-width="0.5"/><path d="M317.40068,136.55358c0,-0.69036 0.55964,-1.25 1.25,-1.25c0.69036,0 1.25,0.55964 1.25,1.25c0,0.69036 -0.55964,1.25 -1.25,1.25c-0.69036,0 -1.25,-0.55964 -1.25,-1.25z" fill="#7a6c00" stroke="none" stroke-width="0.5"/><path d="M321.18534,136.39588c0,-0.69036 0.55964,-1.25 1.25,-1.25c0.69036,0 1.25,0.55964 1.25,1.25c0,0.69036 -0.55964,1.25 -1.25,1.25c-0.69036,0 -1.25,-0.55964 -1.25,-1.25z" fill="#7a6c00" stroke="none" stroke-width="0.5"/><path d="M257.79229,151.84991c0,-0.69036 0.55964,-1.25 1.25,-1.25c0.69036,0 1.25,0.55964 1.25,1.25c0,0.69036 -0.55964,1.25 -1.25,1.25c-0.69036,0 -1.25,-0.55964 -1.25,-1.25z" fill="#84930f" stroke="none" stroke-width="0.5"/><path d="M260.47309,152.63838c0,-0.69036 0.55964,-1.25 1.25,-1.25c0.69036,0 1.25,0.55964 1.25,1.25c0,0.69036 -0.55964,1.25 -1.25,1.25c-0.69036,0 -1.25,-0.55964 -1.25,-1.25z" fill="#84930f" stroke="none" stroke-width="0.5"/><path d="M318.18915,152.1653c0,-0.69036 0.55964,-1.25 1.25,-1.25c0.69036,0 1.25,0.55964 1.25,1.25c0,0.69036 -0.55964,1.25 -1.25,1.25c-0.69036,0 -1.25,-0.55964 -1.25,-1.25z" fill="#84930f" stroke="none" stroke-width="0.5"/><path d="M263.46928,164.62314c0,-0.69036 0.55964,-1.25 1.25,-1.25c0.69036,0 1.25,0.55964 1.25,1.25c0,0.69036 -0.55964,1.25 -1.25,1.25c-0.69036,0 -1.25,-0.55964 -1.25,-1.25z" fill="#70b012" stroke="none" stroke-width="0.5"/><path d="M321.80456,164.00391c0.69036,0 1.25,0.55964 1.25,1.25c0,0.69036 -0.55964,1.25 -1.25,1.25c-0.21779,0 -0.42258,-0.0557 -0.60089,-0.15363c-0.22908,0.28592 -0.58118,0.46902 -0.97606,0.46902c-0.69036,0 -1.25,-0.55964 -1.25,-1.25c0,-0.69036 0.55964,-1.25 1.25,-1.25c0.21779,0 0.42258,0.0557 0.60089,0.15363c0.22908,-0.28592 0.58118,-0.46902 0.97606,-0.46902z" fill="#70b012" stroke="none" stroke-width="0.5"/><path d="M257.9769,139.39207c0,-0.41421 0.33579,-0.75 0.75,-0.75c0.41421,0 0.75,0.33579 0.75,0.75c0,0.41421 -0.33579,0.75 -0.75,0.75c-0.41421,0 -0.75,-0.33579 -0.75,-0.75z" fill="#7a6c00" stroke="none" stroke-width="0.5"/><path d="M264.91544,141.12671c0,-0.41421 0.33579,-0.75 0.75,-0.75c0.41421,0 0.75,0.33579 0.75,0.75c0,0.41421 -0.33579,0.75 -0.75,0.75c-0.41421,0 -0.75,-0.33579 -0.75,-0.75z" fill="#7a6c00" stroke="none" stroke-width="0.5"/><path d="M316.95451,140.96901c0,-0.41421 0.33579,-0.75 0.75,-0.75c0.41421,0 0.75,0.33579 0.75,0.75c0,0.41421 -0.33579,0.75 -0.75,0.75c-0.41421,0 -0.75,-0.33579 -0.75,-0.75z" fill="#7a6c00" stroke="none" stroke-width="0.5"/><path d="M319.79301,142.86134c0,-0.41421 0.33579,-0.75 0.75,-0.75c0.41421,0 0.75,0.33579 0.75,0.75c0,0.41421 -0.33579,0.75 -0.75,0.75c-0.41421,0 -0.75,-0.33579 -0.75,-0.75z" fill="#7a6c00" stroke="none" stroke-width="0.5"/><path d="M261.28847,156.26535c0,-0.41421 0.33579,-0.75 0.75,-0.75c0.41421,0 0.75,0.33579 0.75,0.75c0,0.41421 -0.33579,0.75 -0.75,0.75c-0.41421,0 -0.75,-0.33579 -0.75,-0.75z" fill="#84930f" stroke="none" stroke-width="0.5"/><path d="M265.23083,154.05763c0,-0.41421 0.33579,-0.75 0.75,-0.75c0.41421,0 0.75,0.33579 0.75,0.75c0,0.41421 -0.33579,0.75 -0.75,0.75c-0.41421,0 -0.75,-0.33579 -0.75,-0.75z" fill="#84930f" stroke="none" stroke-width="0.5"/><path d="M318.37376,157.3692c0,-0.41421 0.33579,-0.75 0.75,-0.75c0.41421,0 0.75,0.33579 0.75,0.75c0,0.41421 -0.33579,0.75 -0.75,0.75c-0.41421,0 -0.75,-0.33579 -0.75,-0.75z" fill="#84930f" stroke="none" stroke-width="0.5"/><path d="M323.26228,158.47306c0,-0.41421 0.33579,-0.75 0.75,-0.75c0.41421,0 0.75,0.33579 0.75,0.75c0,0.41421 -0.33579,0.75 -0.75,0.75c-0.41421,0 -0.75,-0.33579 -0.75,-0.75z" fill="#84930f" stroke="none" stroke-width="0.5"/><path d="M261.28847,167.14624c0,-0.41421 0.33579,-0.75 0.75,-0.75c0.41421,0 0.75,0.33579 0.75,0.75c0,0.41421 -0.33579,0.75 -0.75,0.75c-0.41421,0 -0.75,-0.33579 -0.75,-0.75z" fill="#70b012" stroke="none" stroke-width="0.5"/><path d="M267.12316,168.2501c0,-0.41421 0.33579,-0.75 0.75,-0.75c0.41421,0 0.75,0.33579 0.75,0.75c0,0.41421 -0.33579,0.75 -0.75,0.75c-0.41421,0 -0.75,-0.33579 -0.75,-0.75z" fill="#70b012" stroke="none" stroke-width="0.5"/><path d="M313.64294,169.35396c0,-0.41421 0.33579,-0.75 0.75,-0.75c0.41421,0 0.75,0.33579 0.75,0.75c0,0.41421 -0.33579,0.75 -0.75,0.75c-0.41421,0 -0.75,-0.33579 -0.75,-0.75z" fill="#70b012" stroke="none" stroke-width="0.5"/><path d="M322.15842,173.29632c0,-0.41421 0.33579,-0.75 0.75,-0.75c0.41421,0 0.75,0.33579 0.75,0.75c0,0.41421 -0.33579,0.75 -0.75,0.75c-0.41421,0 -0.75,-0.33579 -0.75,-0.75z" fill="#70b012" stroke="none" stroke-width="0.5"/><path d="M326.57386,168.88088c0,-0.41421 0.33579,-0.75 0.75,-0.75c0.41421,0 0.75,0.33579 0.75,0.75c0,0.41421 -0.33579,0.75 -0.75,0.75c-0.41421,0 -0.75,-0.33579 -0.75,-0.75z" fill="#70b012" stroke="none" stroke-width="0.5"/></g><path d="M268.0559,148.66065c0,-12.96801 11.0743,-24.41674 24.04231,-24.41674c12.96801,0 24.22952,12.38481 24.22952,25.35282c0,12.96801 -9.57655,22.73179 -22.54456,22.73179c-12.96801,0 -25.72727,-10.69987 -25.72727,-23.66788z" fill="#000000" stroke="#000000" stroke-width="0" stroke-linecap="butt"/><path d="M345.79502,172.32855c-12.96801,0 -22.73178,-11.44874 -22.73178,-24.41675c0,-12.96801 11.44873,-20.85961 24.41674,-20.85961c12.96801,0 23.48066,8.45325 23.48066,21.42126c0,12.96801 -12.19761,23.85509 -25.16562,23.85509z" fill="#000000" stroke="#000000" stroke-width="0" stroke-linecap="butt"/><path d="M335.23583,192.04692c0,0 -10.49914,1.66667 -15.49896,1.62501c-5.00017,-0.04167 -14.50104,-1.87501 -14.50104,-1.87501" fill="none" stroke="#000000" stroke-width="0" stroke-linecap="round"/></g><path d="" fill="none" stroke="#000000" stroke-width="2" stroke-linecap="round"/><g stroke-linecap="butt"><path d="M290.18541,173.91496c-0.05012,0.14534 -0.0995,0.29041 -0.14807,0.43521c-0.23493,0.70042 -0.41274,1.39633 -0.59577,2.07172c-0.21322,3.22044 -0.46371,6.69604 0.15842,9.75389c0,0 0.14709,0.73544 -0.58835,0.88252c-0.73544,0.14709 -0.88252,-0.58835 -0.88252,-0.58835c-0.16918,-0.85894 -0.30047,-1.73401 -0.39997,-2.62204c-0.00542,0.00012 -0.01085,0.00017 -0.0163,0.00017c-0.41421,0 -0.75,-0.33579 -0.75,-0.75v-0.92136c0,-0.45739 -0.00701,-0.89717 0.00203,-1.33136c-0.00394,-0.0178 -0.0078,-0.03567 -0.01157,-0.05361c-0.2655,-0.11547 -0.45115,-0.3801 -0.45115,-0.68809v-1.14614c0,-6.37377 -0.23034,-12.74424 -0.23034,-19.11831c0,-1.42809 -0.4179,-3.77486 0.07659,-5.31638c-0.02471,-0.12522 -0.04909,-0.2505 -0.07314,-0.37586l0.02434,-0.07186h-0.02779v-1.38205c0,-0.41421 0.33579,-0.75 0.75,-0.75c0.41421,0 0.75,0.33579 0.75,0.75v0.12362l0.1312,-0.52164c0.07616,-0.33349 0.37461,-0.58232 0.73118,-0.58232c0.13419,0 0.26015,0.03524 0.36912,0.09697l0.05117,-0.20468c0.07579,-0.33399 0.37449,-0.58332 0.73141,-0.58332c0.41421,0 0.75,0.33579 0.75,0.75v1.5h-0.28624c0.05773,0.91714 0.01571,1.84447 -0.07966,2.77661c0.08845,0.41243 0.16682,0.82865 0.23764,1.24719l0.07461,0.18653l-0.04089,0.01636c0.02612,0.15994 0.05119,0.32018 0.07537,0.48065c0.86263,1.72488 1.39182,3.70057 1.71129,5.77891c0.08042,-0.65458 0.17066,-1.31006 0.27194,-1.96679c0.08052,-0.52214 0.15024,-1.02282 0.22138,-1.50616c0,-0.07181 0,-0.14362 0,-0.21544c0,-2.4912 -0.20952,-4.835 0.30785,-7.13464l-0.27643,-0.04258l0.22656,-1.471c0.05004,-0.36565 0.36364,-0.64735 0.74303,-0.64735c0.40391,0 0.73325,0.31929 0.74938,0.71925l0.06969,1.49418c0.02027,0.43461 0.03856,0.86935 0.05505,1.30422c0.08014,-0.02922 0.16666,-0.04516 0.25691,-0.04516c0.41421,0 0.75,0.33579 0.75,0.75v1.38205h-0.00798l0.00747,0.0277c-0.12211,1.61491 -0.43784,3.23652 -0.87167,4.8549c0.01889,4.24617 -0.04918,8.49625 -0.04918,12.73571c0,2.46639 0.43219,5.20298 -0.29217,7.52386l0.00487,0.08629l0.26279,0.06889l-0.23895,0.91157c-0.07871,0.32997 -0.37548,0.57533 -0.72955,0.57533c-0.40172,0 -0.72967,-0.31583 -0.74909,-0.71273l-0.04057,-0.71879c-0.13755,0.16737 -0.34616,0.27411 -0.57971,0.27411c-0.36866,0 -0.6752,-0.266 -0.73816,-0.61654l-0.22762,-1.13808l0.19499,-0.039c-0.6863,-1.86523 -0.8916,-3.82177 -1.28301,-5.86787c-0.02735,-0.14296 -0.05416,-0.28593 -0.08046,-0.42891z" fill="#43663c" stroke="none" stroke-width="0.5"/><g stroke="#000000" stroke-width="0"><path d="M264.10989,196.47894c-1.62643,-12.86561 7.48474,-24.61372 20.35035,-26.24015c12.86561,-1.62643 24.61372,7.48473 26.24015,20.35034c1.62643,12.86561 -7.48473,24.61373 -20.35034,26.24016c-12.86561,1.62643 -24.61373,-7.48474 -26.24016,-20.35035z" fill="url(#color-1)"/><path d="M270.98155,204.3009c-0.68992,-5.4575 3.17497,-10.44098 8.63248,-11.1309c5.4575,-0.68992 10.44098,3.17497 11.1309,8.63249c0.68992,5.4575 -3.17497,10.44099 -8.63248,11.13091c-5.4575,0.68992 -10.44098,-3.17497 -11.1309,-8.63249z" fill="#000000"/></g><path d="M287.41515,153.34332c0,0.13807 -0.11193,0.25 -0.25,0.25c-0.03953,0 -0.07692,-0.00917 -0.11015,-0.02551c-0.12561,0.09484 -0.28199,0.15108 -0.4515,0.15108c-0.3199,0 -0.59301,-0.20028 -0.70081,-0.48228c-0.33643,-0.01334 -0.67107,-0.02587 -1.00348,-0.03692c0.12866,0.13465 0.20768,0.31713 0.20768,0.51807c0,0.41421 -0.33579,0.75 -0.75,0.75c-0.41421,0 -0.75,-0.33579 -0.75,-0.75c0,-0.21598 0.09129,-0.41064 0.2374,-0.54749c-0.41466,-0.009 -0.82502,-0.01444 -1.23023,-0.01493l-0.05042,-0.02423l-0.00266,0.01854l-1.29505,-0.18565c-0.36913,-0.0469 -0.65452,-0.36211 -0.65452,-0.74398c0,-0.39834 0.31054,-0.72415 0.70274,-0.74854l1.49001,-0.10643l0.01248,0.17478c1.50026,-0.33808 3.06284,-0.50096 4.64034,-0.58732c-0.01908,-0.0128 -0.03794,-0.02673 -0.05634,-0.04189c-0.20331,0 -0.40662,0 -0.60994,0c-1.88198,0 -3.76395,0 -5.64593,0h-1.28111c-0.41421,0 -0.75,-0.33579 -0.75,-0.75c0,-0.38198 0.28556,-0.69727 0.65485,-0.74402l1.2996,-0.18566l0.02567,0.17968c0.04749,0 0.14597,0 0.19347,0c1.3748,-0.33375 2.7086,-0.34232 4.37187,-0.36633l0.55917,-0.00802c0,0 0.47998,-0.00689 0.67746,0.37436c3.08301,0 6.16602,0 9.24903,0c1.4332,0 3.42372,-0.36161 4.94903,0c0.08744,0 0.60946,0 0.69689,0h1.5c0.41421,0 0.75,0.33579 0.75,0.75c0,0.41421 -0.33579,0.75 -0.75,0.75c-0.70717,0 -2.91435,0 -3.62152,0c-1.23649,0.05901 -2.48402,0.02929 -3.75617,0.0109c0.13366,0.12416 0.22196,0.29648 0.2373,0.48936c0.62535,0.03549 1.21694,0.06083 1.75761,0.06173l0.05784,0.03205l0.00408,-0.02428l1.10203,0.18516c0.36107,0.05409 0.63795,0.36555 0.63795,0.74169c0,0.41421 -0.33579,0.75 -0.75,0.75h-1.5v-0.15602c-1.39197,0.24406 -2.84035,0.35866 -4.31102,0.3986c0.12153,0.13329 0.19563,0.31057 0.19563,0.50516c0,0.41421 -0.33579,0.75 -0.75,0.75c-0.41421,0 -0.75,-0.33579 -0.75,-0.75c0,-0.18648 0.06806,-0.35707 0.18069,-0.48827c-1.536,0.00579 -3.08669,-0.05384 -4.61389,-0.11761c0.00256,0.01435 0.0039,0.02913 0.0039,0.04423z" fill="#000000" stroke="none" stroke-width="0.5"/><path d="M286.97681,154.46663c0,-0.41421 0.33579,-0.75 0.75,-0.75c0.41421,0 0.75,0.33579 0.75,0.75c0,0.41421 -0.33579,0.75 -0.75,0.75c-0.41421,0 -0.75,-0.33579 -0.75,-0.75z" fill="#000000" stroke="none" stroke-width="0.5"/><path d="M295.21436,155.58993c0,-0.41421 0.33579,-0.75 0.75,-0.75c0.41421,0 0.75,0.33579 0.75,0.75c0,0.41421 -0.33579,0.75 -0.75,0.75c-0.41421,0 -0.75,-0.33579 -0.75,-0.75z" fill="#000000" stroke="none" stroke-width="0.5"/><path d="M292.59332,156.3388c0,-0.41421 0.33579,-0.75 0.75,-0.75c0.41421,0 0.75,0.33579 0.75,0.75c0,0.41421 -0.33579,0.75 -0.75,0.75c-0.41421,0 -0.75,-0.33579 -0.75,-0.75z" fill="#000000" stroke="none" stroke-width="0.5"/><path d="M281.36029,158.39819c0,-0.41421 0.33579,-0.75 0.75,-0.75c0.41421,0 0.75,0.33579 0.75,0.75c0,0.41421 -0.33579,0.75 -0.75,0.75c-0.41421,0 -0.75,-0.33579 -0.75,-0.75z" fill="#000000" stroke="none" stroke-width="0.5"/><path d="M289.22341,159.14706c0,-0.41421 0.33579,-0.75 0.75,-0.75c0.41421,0 0.75,0.33579 0.75,0.75c0,0.41421 -0.33579,0.75 -0.75,0.75c-0.41421,0 -0.75,-0.33579 -0.75,-0.75z" fill="#000000" stroke="none" stroke-width="0.5"/><path d="M288.78733,153.71776c0,-0.13807 0.11193,-0.25 0.25,-0.25c0.13807,0 0.25,0.11193 0.25,0.25c0,0.13807 -0.11193,0.25 -0.25,0.25c-0.13807,0 -0.25,-0.11193 -0.25,-0.25z" fill="#000000" stroke="none" stroke-width="0.5"/><path d="M292.53167,155.21549c0,-0.13807 0.11193,-0.25 0.25,-0.25c0.13807,0 0.25,0.11193 0.25,0.25c0,0.13807 -0.11193,0.25 -0.25,0.25c-0.13807,0 -0.25,-0.11193 -0.25,-0.25z" fill="#000000" stroke="none" stroke-width="0.5"/><path d="M285.79185,157.27488c0,-0.13807 0.11193,-0.25 0.25,-0.25c0.13807,0 0.25,0.11193 0.25,0.25c0,0.13807 -0.11193,0.25 -0.25,0.25c-0.13807,0 -0.25,-0.11193 -0.25,-0.25z" fill="#000000" stroke="none" stroke-width="0.5"/><path d="M287.28959,156.90045c0,-0.13807 0.11193,-0.25 0.25,-0.25c0.13807,0 0.25,0.11193 0.25,0.25c0,0.13807 -0.11193,0.25 -0.25,0.25c-0.13807,0 -0.25,-0.11193 -0.25,-0.25z" fill="#000000" stroke="none" stroke-width="0.5"/></g><g><path d="M365.48583,163.29692l2.25,6.5l-7,-2.25z" fill="#000000" stroke="#000000" stroke-width="0" stroke-linecap="round"/><path d="M344.1464,157.93194c0.1725,0 0.30532,0.03967 0.4076,0.10077c-0.31673,-3.97709 -0.22019,-8.15331 0.4621,-11.89367c0.04855,-0.48757 0.09711,-0.97514 0.14566,-1.4627l0.08026,-0.8026c0.0336,-0.38312 0.35526,-0.68362 0.7471,-0.68362c0.34853,0 0.64154,0.23774 0.7257,0.5599l0.40753,1.42634l-0.25693,0.07341c0.75597,2.20108 0.88602,4.56546 1.19499,6.96514c0.43857,3.4063 0.57455,6.90008 0.75159,10.37798c0.06927,0.29688 0.13803,0.59181 0.20593,0.88454c0.08791,-1.35645 0.15479,-2.71376 0.20567,-4.07173c-0.24898,-1.99741 -0.46334,-4.0037 -0.68828,-6.02968l-0.21922,-1.45951c-0.00677,-0.04051 -0.0103,-0.08212 -0.0103,-0.12456c0,-0.41421 0.33579,-0.75 0.75,-0.75c0.08718,0 0.17088,0.01487 0.24871,0.04222c-0.08328,-1.1828 -0.16913,-2.48271 0.08069,-3.54811c0.00006,-0.23796 0.00008,-0.47593 0.00008,-0.7139h-0.00001v-1.5c0,-0.41421 0.33579,-0.75 0.75,-0.75c0.41421,0 0.75,0.33579 0.75,0.75v0.81222c0,0.02328 0,0.04655 0,0.06983c0.05504,-0.01286 0.11241,-0.01967 0.17136,-0.01967c0.2994,0 0.55783,0.17544 0.67809,0.42912l0.45342,0.90683l-0.02608,0.01304l0.058,0.06032c1.5577,6.00723 2.41941,12.05795 3.32638,18.17976c0.42701,2.88219 1.23999,5.64085 1.05282,8.45355h0.27489v1.5c0,0.41421 -0.33579,0.75 -0.75,0.75c-0.35693,0 -0.65562,-0.24933 -0.73141,-0.58332l-0.2213,-0.8852c-1.28446,-3.84851 -2.42511,-7.75049 -3.53828,-11.65656c-0.00528,0.59781 -0.00991,1.19562 -0.01409,1.79344c0.12538,0.71069 0.25898,1.42279 0.40232,2.13716c0.39839,1.98558 1.0894,3.47758 1.07982,5.21971h0.31783v1.15171c0,0.41421 -0.33579,0.75 -0.75,0.75c-0.32193,0 -0.59649,-0.20283 -0.70285,-0.48768l-0.27658,-0.69146l0.09944,0.49721c0.01153,0.05225 0.0176,0.10655 0.0176,0.16227c0,0.41421 -0.33579,0.75 -0.75,0.75c-0.35693,0 -0.65562,-0.24933 -0.73141,-0.58332l-0.22654,-0.90614l0.04151,-0.01038l-0.05829,-0.07989c-0.00109,-0.17303 -0.00209,-0.34605 -0.003,-0.51907c-0.0773,-0.10245 -0.14999,-0.2144 -0.21852,-0.33427c-0.02426,0.17096 -0.05121,0.34159 -0.08134,0.51189l0.00325,0.01948h0.18161v1.15171c0,0.41421 -0.33579,0.75 -0.75,0.75c-0.37645,0 -0.68812,-0.27735 -0.74182,-0.63886l-0.22831,-1.36989c-0.51323,-3.11291 -0.72256,-6.31447 -0.8918,-9.53078c-0.37925,-1.49261 -0.74224,-3.02047 -1.06448,-4.55752c0.00429,0.6175 0.00996,1.23533 0.0167,1.85333c0.05949,0.4723 0.1248,0.9395 0.19563,1.40039c0.51188,3.33081 1.39101,6.14256 1.39101,9.55958c0,0 0,0.75 -0.75,0.75c-0.38859,0 -0.57585,-0.20134 -0.66608,-0.39538c0.01536,1.18985 0.02747,2.37725 0.03403,3.56118v1.15171c0,0.41421 -0.33579,0.75 -0.75,0.75c-0.41421,0 -0.75,-0.33579 -0.75,-0.75v-1.15171c0.00099,-0.14689 0.00182,-0.29385 0.00248,-0.44087c-0.41643,-0.9726 -0.30815,-2.43856 -0.48905,-3.43452c-0.64789,-3.56698 -1.12212,-7.58704 -1.12582,-11.21473v-1.49443c0,0 0,-0.75 0.75,-0.75zM351.70381,158.02519c0.19687,0.73247 0.38818,1.47038 0.59141,2.20848c0.67345,2.44586 1.37165,4.89308 2.10212,7.33026c-0.00389,-0.01893 -0.00785,-0.03778 -0.01187,-0.05654c-1.01446,-4.73549 -1.59663,-9.52862 -2.47599,-14.28646c-0.06108,0.7432 -0.12735,1.44459 -0.14314,2.03651c-0.02461,0.9228 -0.04517,1.84536 -0.06253,2.76776z" fill="#43663c" stroke="none" stroke-width="0.5" stroke-linecap="butt"/><g stroke="#000000" stroke-width="0" stroke-linecap="butt"><path d="M346.90022,200.29642c-12.25808,-4.23187 -18.7646,-17.59962 -14.53272,-29.8577c4.23187,-12.25808 17.59961,-18.7646 29.85769,-14.53273c12.25808,4.23187 18.76461,17.59961 14.53274,29.85769c-4.23187,12.25808 -17.59962,18.76461 -29.8577,14.53273z" fill="url(#color-2)"/><path d="M367.77205,183.27212c-2.12725,6.1618 -8.84683,9.43245 -15.00862,7.3052c-6.16179,-2.12724 -9.43243,-8.84685 -7.30519,-15.00863c2.12725,-6.1618 8.84684,-9.43244 15.00863,-7.3052c6.16179,2.12724 9.43243,8.84684 7.30519,15.00862z" fill="#000000"/></g><path d="M345.76301,148.66289c0,-0.41421 0.33579,-0.75 0.75,-0.75c0.41421,0 0.75,0.33579 0.75,0.75c0,0.41421 -0.33579,0.75 -0.75,0.75c-0.41421,0 -0.75,-0.33579 -0.75,-0.75z" fill="#000000" stroke="none" stroke-width="0.5" stroke-linecap="butt"/><path d="M351.94118,149.22454c0,-0.41421 0.33579,-0.75 0.75,-0.75c0.41421,0 0.75,0.33579 0.75,0.75c0,0.41421 -0.33579,0.75 -0.75,0.75c-0.41421,0 -0.75,-0.33579 -0.75,-0.75z" fill="#000000" stroke="none" stroke-width="0.5" stroke-linecap="butt"/><path d="M346.32466,143.29694l-0.42226,0.02661c-0.05326,0.01523 -0.10015,0.02971 -0.14121,0.0436c0.1564,-0.00987 0.31375,-0.01802 0.47188,-0.02462zM345.44099,143.29616c-0.13326,-0.00544 -0.23963,-0.11519 -0.23963,-0.24979c0,-0.13807 0.11193,-0.25 0.25,-0.25h0.87443c0.13807,0 0.25,0.11193 0.25,0.25c0,0.07117 -0.02974,0.1354 -0.07747,0.18093l0.04178,0.10437c0.26534,-0.00775 0.53258,-0.01144 0.80097,-0.01178c1.0756,-0.06684 2.17434,-0.1014 3.17374,-0.03479c0.13099,-0.01391 0.26182,-0.02923 0.39245,-0.04608c0.66308,-0.08554 1.31112,-0.22071 1.95763,-0.35788c-0.80467,0.01481 -1.61072,-0.02085 -2.41579,-0.02085c-2.84387,0 -5.72307,-0.17136 -8.53537,-0.56919c0,0 -0.74246,-0.10607 -0.6364,-0.84853c0.10607,-0.74246 0.84853,-0.6364 0.84853,-0.6364c3.25114,0.46938 6.53547,0.55411 9.82323,0.55411c0.08912,0 2.63985,-0.04223 2.82134,0.11201c1.12879,0.95937 0.89405,1.62465 0.22515,2.13459c0.24439,0 0.50386,0 0.50386,0c0.41421,0 0.75,0.33579 0.75,0.75c0,0.34853 -0.23774,0.64154 -0.5599,0.7257l-1.29458,0.36988l-0.07024,-0.24584c-0.31963,0.12081 -0.64536,0.22772 -0.97633,0.32217c-0.33515,0.17245 -0.66511,0.31837 -0.99253,0.44448c0.20654,0.13358 0.34324,0.36594 0.34324,0.63022c0,0.07797 -0.0119,0.15316 -0.03398,0.22385c0.13263,0.13528 0.21441,0.3206 0.21441,0.52501c0,0.41421 -0.33579,0.75 -0.75,0.75c-0.17704,0 -0.33975,-0.06134 -0.46804,-0.16393c-0.12829,0.10259 -0.291,0.16393 -0.46804,0.16393c-0.12209,0 -0.23736,-0.02917 -0.33923,-0.08092c0.09609,0.12607 0.15314,0.28348 0.15314,0.45423c0,0.41421 -0.33579,0.75 -0.75,0.75c-0.03468,0 -0.06882,-0.00235 -0.10225,-0.00691c0.0657,0.11149 0.10338,0.24145 0.10338,0.38022c0,0.41421 -0.33579,0.75 -0.75,0.75c-0.41421,0 -0.75,-0.33579 -0.75,-0.75c0,-0.41421 0.33579,-0.75 0.75,-0.75c0.03468,0 0.06882,0.00235 0.10225,0.00691c-0.0657,-0.11149 -0.10338,-0.24145 -0.10338,-0.38022c0,-0.41421 0.33579,-0.75 0.75,-0.75c0.12209,0 0.23736,0.02917 0.33923,0.08092c-0.09587,-0.12579 -0.15289,-0.28279 -0.15314,-0.45309c-0.74333,0.00014 -1.31889,0.02735 -1.83349,0.00074c-1.33985,0.09013 -2.69583,0.06886 -4.05445,0.03928c-0.03112,0.0139 -0.0656,0.02163 -0.10188,0.02163c-0.04019,0 -0.07817,-0.00949 -0.11182,-0.02634c-0.07698,-0.00171 -0.15397,-0.00343 -0.23096,-0.00514c0.30744,0.09366 0.53113,0.37949 0.53113,0.71756c0,0.41421 -0.33579,0.75 -0.75,0.75c-0.41421,0 -0.75,-0.33579 -0.75,-0.75c0,-0.34949 0.23905,-0.64315 0.56256,-0.72639c-0.56193,-0.0118 -1.12382,-0.02135 -1.68474,-0.02135h-0.93609c0,0 -0.75,0 -0.75,-0.75c0,-0.27587 0.10147,-0.45027 0.22977,-0.56052h-0.41586c-0.41421,0 -0.75,-0.33579 -0.75,-0.75c0,-0.41421 0.33579,-0.75 0.75,-0.75h0.58379c-0.01519,-0.0595 -0.02327,-0.12185 -0.02327,-0.18609c0,-0.41421 0.33579,-0.75 0.75,-0.75h1.48416c0.31067,0 0.66287,-0.01457 1.04616,-0.03784c0.4606,-0.08013 0.93661,-0.13748 1.4231,-0.1768c0.00925,-0.03269 0.01899,-0.06479 0.02942,-0.0961z" fill="#000000" stroke="none" stroke-width="0.5" stroke-linecap="butt"/><path d="M343.70362,149.59898c0,-0.41421 0.33579,-0.75 0.75,-0.75c0.41421,0 0.75,0.33579 0.75,0.75c0,0.41421 -0.33579,0.75 -0.75,0.75c-0.41421,0 -0.75,-0.33579 -0.75,-0.75z" fill="#000000" stroke="none" stroke-width="0.5" stroke-linecap="butt"/><path d="M344.63971,152.22002c0,-0.41421 0.33579,-0.75 0.75,-0.75c0.41421,0 0.75,0.33579 0.75,0.75c0,0.41421 -0.33579,0.75 -0.75,0.75c-0.41421,0 -0.75,-0.33579 -0.75,-0.75z" fill="#000000" stroke="none" stroke-width="0.5" stroke-linecap="butt"/><path d="M347.26075,152.22002c0,-0.41421 0.33579,-0.75 0.75,-0.75c0.41421,0 0.75,0.33579 0.75,0.75c0,0.41421 -0.33579,0.75 -0.75,0.75c-0.41421,0 -0.75,-0.33579 -0.75,-0.75z" fill="#000000" stroke="none" stroke-width="0.5" stroke-linecap="butt"/><path d="M356.05996,150.16063c0,-0.41421 0.33579,-0.75 0.75,-0.75c0.41421,0 0.75,0.33579 0.75,0.75c0,0.41421 -0.33579,0.75 -0.75,0.75c-0.41421,0 -0.75,-0.33579 -0.75,-0.75z" fill="#000000" stroke="none" stroke-width="0.5" stroke-linecap="butt"/><path d="M347.01188,149.59898c0,-0.13807 0.11193,-0.25 0.25,-0.25c0.13807,0 0.25,0.11193 0.25,0.25c0,0.13807 -0.11193,0.25 -0.25,0.25c-0.13807,0 -0.25,-0.11193 -0.25,-0.25z" fill="#000000" stroke="none" stroke-width="0.5" stroke-linecap="butt"/><path d="M350.19458,150.34785c0,-0.13807 0.11193,-0.25 0.25,-0.25c0.13807,0 0.25,0.11193 0.25,0.25c0,0.13807 -0.11193,0.25 -0.25,0.25c-0.13807,0 -0.25,-0.11193 -0.25,-0.25z" fill="#000000" stroke="none" stroke-width="0.5" stroke-linecap="butt"/></g><g stroke-width="0"><path d="M369.93237,174.21948l2.0931,6.94402l-7.6155,-2.4037z" fill="#000000" stroke="#000000" stroke-linecap="round"/><path d="M343.60843,119.2405c-1.21313,-0.92666 -1.94668,-2.39381 -1.85175,-4.04518c0.10706,-1.86245 1.24095,-3.49054 2.84245,-4.37326c1.42436,-2.19146 7.42409,-0.20074 9.20219,0.58903c6.49438,2.8846 12.52879,11.1983 14.85576,17.67004c7.29804,20.29726 -8.9453,42.34716 -5.62918,62.84729c1.85207,11.44937 10.14286,21.04609 12.33283,32.49943c0.71568,3.74293 0.54595,10.95241 -5.62098,10.95241c-1.76745,0 -3.2774,-1.33186 -4.4579,-2.53724c-0.93035,-0.94996 -0.30675,-5.23071 -0.31353,-5.987c-0.03182,-3.54538 -2.22281,-7.34467 -3.56656,-10.45606c-2.99686,-6.93908 -8.2967,-15.2395 -8.88692,-23.02562c-1.53025,-20.18673 8.78218,-39.80117 6.31156,-59.91544c-0.46609,-3.79461 -6.33716,-10.61811 -8.95317,-12.38575c-1.0036,-0.67813 -2.08394,-0.71775 -3.17137,-0.80341c-0.48099,-0.00212 -0.94314,-0.06652 -1.37869,-0.18527c-0.40127,-0.09174 -0.79946,-0.22973 -1.19101,-0.44899c-0.19749,-0.11059 -0.37044,-0.24374 -0.52373,-0.39498z" fill="#c2d183" stroke="none" stroke-linecap="butt"/><path d="M369.3995,107.87597c0.58053,-2.36855 2.83266,-4.16499 5.41656,-4.16499c1.51115,0 2.83819,0.61444 3.74126,1.59841c0.15556,0.1695 0.29854,0.34996 0.42772,0.54013c2.02357,1.79303 4.37173,3.35024 6.54734,4.97481c0.03935,0.02938 0.05317,0.08328 0.09191,0.1134c18.99717,14.77176 14.40868,44.16717 12.09004,65.40127c-0.19505,1.78626 -0.61592,3.55775 -0.79625,5.34467c-0.23728,2.35119 -0.35974,4.70808 -0.40581,7.05976c-0.05043,2.5748 3.53382,6.55975 2.23319,9.15146c-2.20681,4.39743 -4.2874,5.18268 -8.7385,3.29807c-4.23824,-1.79448 -3.72163,-17.84303 -3.59716,-19.76238c0.11628,-1.79304 0.76833,-4.15297 0.87542,-5.59464c0.81604,-10.98576 2.92851,-26.77175 1.18886,-38.89212c-0.82486,-5.74695 -2.76589,-11.85521 -7.11566,-15.84471c-3.25846,-2.98858 -12.72952,-6.77239 -12.11192,-12.59731c0.02345,-0.22116 0.07583,-0.42915 0.15302,-0.62582z" fill="#c2d183" stroke="none" stroke-linecap="butt"/><path d="M351.24861,113.85993c0.1611,-2.80256 2.6473,-5.07448 5.5531,-5.07448c0.45548,0 0.89422,0.05582 1.30968,0.16076c1.13031,-0.29288 2.82728,1.85536 3.48511,2.59501c3.09269,3.47738 5.52399,6.79951 7.96665,10.74877c12.23991,19.78933 1.97,41.85034 1.36846,63.45071c-0.09687,3.4785 0.31205,7.57855 1.48113,10.83602c0.34983,0.97477 2.01361,2.90813 1.97734,3.5391c-0.09799,1.70466 -0.35968,3.72839 -1.67875,4.93377c-8.31031,7.59404 -11.25967,-8.1854 -11.79317,-11.94073c-0.17132,-1.20591 -0.35525,-2.51709 -0.41937,-3.7407c-0.94176,-17.97112 7.28597,-35.32754 3.47496,-53.38109c-1.29057,-6.11371 -5.40537,-11.59339 -9.35368,-16.20777c-0.78627,-0.91892 -4.63136,-4.45481 -3.37147,-5.91938z" fill="#b8ae43" stroke="none" stroke-linecap="butt"/><path d="M395.83997,164.83193c0.70872,0.8796 1.10041,2.01074 1.02948,3.24475c-0.10706,1.86245 -1.24096,3.49055 -2.84245,4.37326c-0.55094,0.84766 -1.89869,0.85846 -3.06612,0.68978c-0.53019,-0.07661 -1.02318,-0.19023 -1.38746,-0.2793c-4.06955,-0.99503 -4.68974,-6.23276 -5.08634,-9.87606c-0.55766,-5.12288 -1.09163,-12.03355 -2.22419,-17.03879c-1.40015,-6.18784 -4.26545,-11.86194 -5.82621,-18.00491c-2.78213,-10.9502 -1.7508,-14.19804 -9.17425,-23.85577c-1.99828,-2.59972 -4.48848,-6.17793 -0.07803,-9.24089c4.9707,-3.45204 7.50853,1.37005 9.67978,4.10972c6.44761,8.13555 7.92342,16.19647 9.86498,26.2361c0.72936,3.77149 2.24359,6.55141 3.40522,10.19914c1.78429,5.60298 3.0241,11.40094 3.91491,17.24226c0.71103,4.66244 0.78563,8.26036 1.79069,12.20072z" fill="#b8ae43" stroke="none" stroke-linecap="butt"/><path d="M373.89769,93.54338c1.19732,0.9277 1.91952,2.38547 1.82529,4.02481c-0.00257,0.04468 -0.00573,0.08923 -0.00948,0.13363c0.10563,0.61084 -0.07623,1.17086 -0.44248,1.68374c-0.86733,1.90488 -2.85937,3.2571 -5.10115,3.2571c-1.99771,0.93728 -4.58753,-2.61456 -5.87669,-3.30033c-4.55166,-2.42126 -10.01025,-5.23919 -15.53151,-5.24615c-6.24135,-0.00787 -13.59982,1.13491 -19.44828,3.96635c-1.36656,0.66159 -3.46692,2.74434 -5.29454,2.98434c-2.81408,0.36954 -5.34227,0.70716 -6.47074,-3.20938c-1.87424,-6.50481 10.10068,-9.95444 14.49574,-11.22616c12.34813,-3.57296 25.26951,-3.60027 36.04524,2.86156c2.42399,1.45358 4.4246,2.45179 5.80861,4.07048z" fill="#b8ae43" stroke="none" stroke-linecap="butt"/><path d="M370.81119,101.36327c0.79967,0.90162 1.24992,2.10035 1.17429,3.41602c-0.00257,0.04468 -0.00573,0.08923 -0.00948,0.13363c0.06621,0.38287 0.01948,0.74578 -0.11482,1.08963c5.80954,7.41332 14.03997,18.62151 12.87933,27.01223c-0.85716,6.19674 -1.09246,12.50985 -2.90929,18.56177c-1.86188,6.20195 -5.19918,12.52298 -5.0479,19.07736c0.20103,8.70959 4.5516,17.59095 6.84999,25.78264c2.38473,8.49938 4.33369,17.25799 7.096,25.5876c0.90765,2.737 0.42543,5.99173 -3.46571,7.22c-7.38285,2.33044 -9.33663,-13.10168 -10.41081,-17.20892c-0.43927,-1.6796 -0.89932,-3.35308 -1.35705,-5.0272c-0.66919,-2.44756 -1.2902,-4.91051 -2.02368,-7.3378c-2.72344,-9.01258 -7.53907,-18.97113 -7.23229,-28.65568c0.41425,-13.07772 7.43851,-24.6059 7.92187,-37.91631c0.35805,-9.85998 -9.83818,-17.68739 -14.53541,-24.94807c-0.43369,-0.67036 -0.6622,-1.48059 -0.68948,-2.32402c-0.00785,-0.16861 -0.00699,-0.33964 0.00296,-0.5127c0.01998,-0.34761 0.07573,-0.68706 0.16362,-1.01502c0.00611,-0.02434 0.0124,-0.04865 0.01884,-0.07293c-1.11297,-0.61034 -2.42423,-1.13252 -3.79993,-1.55936c-2.74499,-0.85167 -5.74653,-1.3237 -7.94127,-1.35885c-4.80089,-0.07689 -9.5407,-0.61928 -14.24983,0.52893c-2.88194,0.7027 -7.03529,5.21195 -10.03586,3.20859c-1.41626,-0.94557 -2.66639,-2.5549 -2.69664,-4.25508c-0.11586,-6.51217 10.70834,-9.25093 15.76673,-9.55362c10.35765,-0.61979 29.2666,-0.39445 34.64584,10.12717z" fill="#b3c46f" stroke="none" stroke-linecap="butt"/><path d="M370.49012,106.33129c1.36749,0.26674 17.0948,27.68715 17.29715,28.91505c1.06053,6.43547 0.84265,12.99759 0.64619,19.58985c-0.21672,7.27194 -1.60235,14.48473 -1.79856,21.69645c-0.23542,8.65275 4.52485,16.87144 4.07468,25.46291c-0.35918,6.85491 -0.59314,13.71257 -1.18211,20.56498c-0.22968,2.67223 -2.14004,5.07448 -5.5531,5.07448c-3.41582,0 -5.04585,-2.40224 -4.96973,-5.07448c0.19121,-6.71238 0.83662,-13.43029 1.15796,-20.145c0.37494,-7.83477 -3.2653,-16.17001 -4.00011,-24.02746c-0.64416,-6.88811 1.36726,-16.9191 1.73864,-23.37309c0.28778,-5.00119 0.41636,-10.75767 -0.20014,-15.7598c-0.23193,-1.88183 -1.17707,-4.21195 -0.695,-6.10029c0.05562,-0.21787 -15.19514,-21.08635 -15.08978,-21.27459c0.91746,-1.63918 -1.2984,-5.85321 1.18988,-7.46362c2.48828,-1.61041 7.38402,1.9146 7.38402,1.9146z" fill="#c4de76" stroke="none" stroke-linecap="butt"/><path d="M345.98106,120.25799c-1.26719,0.78574 -5.76882,-1.85545 -7.47774,-1.85774c-1.65328,-0.00222 -3.3065,-0.00582 -4.96023,0c-2.45901,0.00866 -3.50197,2.64802 -6.52748,2.43532c-3.49785,-0.2459 -5.22035,-4.9339 -3.66115,-7.94281c1.34608,-2.59762 4.38362,-2.84363 6.71427,-3.8142c4.54401,-1.8923 12.23656,-1.69529 17.03249,1.1168c2.02489,1.18729 3.53343,2.84076 4.07063,4.99996z" fill="#c2d183" stroke="none" stroke-linecap="butt"/><path d="M359.62051,108.96229c1.25381,0.92328 2.01676,2.41425 1.92006,4.0964c-0.00257,0.04468 -0.00573,0.08923 -0.00948,0.13363c0.10563,0.61084 -0.07622,1.17086 -0.44247,1.68374c-0.86733,1.90488 -2.85937,3.2571 -5.10115,3.2571c-1.27419,0.59782 -2.23227,-0.06291 -3.0282,-0.96234c-0.70298,-0.51175 -1.25367,-1.20105 -1.58794,-2.00243c-0.15547,-0.16559 -0.3082,-0.29985 -0.46042,-0.3881c-2.46723,-1.43047 -5.80291,-3.55609 -8.84691,-3.9556c-3.31959,-0.43568 -7.40263,-0.48391 -10.60179,-0.43678c-2.09802,0.03091 -3.10897,3.72033 -6.21673,2.7024c-1.64576,-0.53906 -3.54598,-1.31203 -4.24877,-2.83672c-2.533,-5.4953 5.52636,-9.12839 9.71227,-10.01463c8.23638,-1.74379 23.38642,1.52304 28.91153,8.72332z" fill="#b8ae43" stroke="none" stroke-linecap="butt"/></g><path d="M330.61051,89.25522c2.61476,-5.48608 -1.32607,-9.12625 3.12899,-15.46315c4.45506,-6.3369 5.8361,-10.52167 12.78585,-14.96945c6.94975,-4.44779 7.03118,-8.14208 19.45592,-5.66501c12.42474,2.47707 24.40214,10.98248 28.579,15.2415c4.17686,4.25902 -0.21695,12.77784 1.23297,15.15684c1.44992,2.379 1.76047,1.01973 6.31435,-2.77336c4.55388,-3.79308 10.35353,-11.10987 10.35353,-11.10987c0,0 -2.47532,14.31359 -7.04484,18.73319c-4.56953,4.4196 -9.22448,7.47033 -14.85205,2.44524c-5.62757,-5.02509 3.70933,-10.73874 -2.89855,-18.29545c-6.60788,-7.5567 -15.4724,-10.59451 -22.93469,-11.24721c-7.46229,-0.6527 -12.5881,1.49145 -17.07628,7.74762c-4.48819,6.25617 -3.47382,14.24902 -5.00833,20.30174c-1.53452,6.05271 -7.68917,14.00446 -7.68917,14.00446c0,0 -2.71522,2.10847 -5.46706,1.13473c-2.75633,-0.97534 -3.05746,-7.23197 -3.05746,-7.23197c0,0 1.56305,-2.52379 4.17781,-8.00987z" fill="#026b00" stroke="#000000" stroke-width="0" stroke-linecap="round"/></g></g></svg>