<svg version="1.1" xmlns="http://www.w3.org/2000/svg" xmlns:xlink="http://www.w3.org/1999/xlink" width="285.09376" height="267.72501" viewBox="0,0,285.09376,267.72501"><g transform="translate(-190.1791,-31.19978)"><g stroke-miterlimit="10"><path d="M190.1791,298.92479v-267.72501h254.18333v267.72501z" fill="none" stroke="none" stroke-width="0" stroke-linecap="butt"/><path d="" fill="none" stroke="#000000" stroke-width="2" stroke-linecap="round"/><g><g stroke="#000000"><path d="M317.11895,210.5516l49.64209,11.15777l-36.00459,41.30411z" fill="#ff6300" stroke-width="5" stroke-linecap="round"/><path d="M285.57891,165.89425l27.91158,42.54147l-54.59696,4.64034z" fill="#ff6300" stroke-width="5" stroke-linecap="round"/><path d="M291.78387,114.03301l-9.44099,49.99701l-42.51994,-34.5603z" fill="#ff6300" stroke-width="5" stroke-linecap="round"/><path d="M337.15764,84.87588l-43.39824,26.55984l-2.92096,-54.71589z" fill="#ff6300" stroke-width="5" stroke-linecap="round"/><path d="M394.89908,93.06095l-49.46784,-11.90654l36.62455,-40.7554z" fill="#ff6300" stroke-width="5" stroke-linecap="round"/><path d="M429.12771,141.64586l-26.55983,-43.39824l54.71589,-2.92096z" fill="#ff6300" stroke-width="5" stroke-linecap="round"/><path d="M417.41678,192.58213l11.90655,-49.46783l40.75541,36.62456z" fill="#ff6300" stroke-width="5" stroke-linecap="round"/><path d="M371.39767,220.95l43.39824,-26.55984l2.92096,54.71589z" fill="#ff6300" stroke-width="5" stroke-linecap="round"/><path d="M282.44677,134.42198c8.69903,-38.10655 48.66028,-61.48542 89.25595,-52.21819c40.59569,9.26724 66.45302,47.6713 57.75399,85.77785c-8.69903,38.10655 -48.66028,61.48544 -89.25595,52.2182c-40.59567,-9.26725 -66.45301,-47.67131 -57.75398,-85.77786z" fill="#ffe63c" stroke-width="5" stroke-linecap="butt"/><path d="M317.11896,210.5516l49.64208,11.15777l-36.00458,41.30413z" fill="#ff6300" stroke-width="0" stroke-linecap="round"/><path d="M285.57892,165.89426l27.91158,42.54147l-54.59696,4.64034z" fill="#ff6300" stroke-width="0" stroke-linecap="round"/><path d="M291.78388,114.033l-9.441,49.99701l-42.51994,-34.5603z" fill="#ff6300" stroke-width="0" stroke-linecap="round"/><path d="M337.15764,84.87588l-43.39824,26.55984l-2.92096,-54.71589z" fill="#ff6300" stroke-width="0" stroke-linecap="round"/><path d="M394.89908,93.06095l-49.46783,-11.90655l36.62455,-40.7554z" fill="#ff6300" stroke-width="0" stroke-linecap="round"/><path d="M429.12771,141.64586l-26.55984,-43.39824l54.71589,-2.92096z" fill="#ff6300" stroke-width="0" stroke-linecap="round"/><path d="M417.41677,192.58212l11.90655,-49.46783l40.75541,36.62456z" fill="#ff6300" stroke-width="0" stroke-linecap="round"/><path d="M371.39767,220.94999l43.39824,-26.55984l2.92096,54.71589z" fill="#ff6300" stroke-width="0" stroke-linecap="round"/><path d="M282.44677,134.42198c8.69903,-38.10655 48.66028,-61.48542 89.25595,-52.21819c40.59569,9.26724 66.45302,47.6713 57.75399,85.77785c-8.69903,38.10655 -48.66028,61.48544 -89.25595,52.2182c-40.59567,-9.26725 -66.45301,-47.67131 -57.75398,-85.77786z" fill="#ffe63c" stroke-width="0" stroke-linecap="butt"/></g><path d="M319.9176,131.78868c1.36107,-5.9622 7.29774,-9.69216 13.25994,-8.3311c5.9622,1.36107 9.69216,7.29774 8.3311,13.25994c-1.36107,5.9622 -7.0154,5.76592 -12.9776,4.40487c-5.9622,-1.36107 -9.9745,-3.3715 -8.61345,-9.3337z" fill="#000000" stroke="none" stroke-width="NaN" stroke-linecap="butt"/><path d="M384.47064,154.50633c-5.9622,-1.36107 -11.00838,-4.22148 -9.64732,-10.18368c1.36107,-5.9622 7.29774,-9.69216 13.25994,-8.3311c5.9622,1.36107 9.69216,7.29774 8.3311,13.25994c-1.36107,5.9622 -5.98153,6.6159 -11.94373,5.25484z" fill="#000000" stroke="none" stroke-width="NaN" stroke-linecap="butt"/><path d="M365.81234,209.10218c0,0 -11.18635,8.344 -22.78846,5.69545c-11.60213,-2.64856 -19.22653,-15.2867 -19.22653,-15.2867c0,0 9.23049,5.60262 20.83261,8.25118c11.60213,2.64856 21.18238,1.34008 21.18238,1.34008z" fill="#000000" stroke="#000000" stroke-width="1.5" stroke-linecap="butt"/></g></g></g></svg>