<svg version="1.1" xmlns="http://www.w3.org/2000/svg" xmlns:xlink="http://www.w3.org/1999/xlink" width="219.62965" height="280.18475" viewBox="0,0,219.62965,280.18475"><defs><linearGradient x1="263.64819" y1="184.81101" x2="259.78815" y2="223.42135" gradientUnits="userSpaceOnUse" id="color-1"><stop offset="0" stop-color="#ffffff"/><stop offset="1" stop-color="#303030"/></linearGradient><linearGradient x1="317.38468" y1="176.58273" x2="313.36205" y2="216.81935" gradientUnits="userSpaceOnUse" id="color-2"><stop offset="0" stop-color="#ffffff"/><stop offset="1" stop-color="#303030"/></linearGradient></defs><g transform="translate(-208.076,-38.88751)"><g stroke-miterlimit="10"><g stroke="#000000"><g fill="#000000" stroke-width="0" stroke-linecap="butt"><path d="M286.35186,319.07226c0,0 -46.86488,-75.58442 -49.5701,-94.46024c-1.15747,-8.07637 33.54935,-17.32537 33.54935,-17.32537l39.46948,-30.62255c0,0 55.79138,-2.74144 59.26242,6.72194c7.32297,19.96526 -16.21118,135.68622 -16.21118,135.68622z"/></g><path d="M297.01343,228.92116l15.0746,37.19432l-4.42635,7.48525l-12.10845,-8.22254l-5.17385,-36.27774z" fill="#ffffff" stroke-width="2" stroke-linecap="round"/><path d="M301.26929,224.10277c0.56856,2.03949 1.58908,4.18935 0.3669,5.5543c-1.29289,1.44394 -4.91826,2.04501 -7.56264,2.04501c-2.25931,0 -5.09204,-0.20928 -7.00914,-1.30097c-2.44787,-1.39392 -3.7675,-3.9447 -4.42366,-6.29836c-0.60026,-2.15323 -0.82107,-4.99131 0.55708,-6.37409c1.30809,-1.31247 4.13366,-1.22522 6.63865,-1.22522c2.95234,0 6.13273,0.07764 8.32664,1.82607c1.62873,1.29799 2.60764,3.98502 3.10617,5.77325z" fill="#ffffff" stroke-width="2" stroke-linecap="butt"/></g><path d="M214.52362,306.61252v-267.72501h213.18203v267.72501z" fill="none" stroke="none" stroke-width="0" stroke-linecap="butt"/><path d="" fill="none" stroke="#000000" stroke-width="2" stroke-linecap="round"/><path d="M217.25549,261.10422c0,-0.41421 0.33579,-0.75 0.75,-0.75c0.41421,0 0.75,0.33579 0.75,0.75c0,0.41421 -0.33579,0.75 -0.75,0.75c-0.41421,0 -0.75,-0.33579 -0.75,-0.75z" fill="#000000" stroke="none" stroke-width="0.5" stroke-linecap="butt"/><g stroke="#000000" stroke-linecap="butt"><path d="M225.52903,203.57073c-2.73541,-33.18932 23.70979,-62.45692 59.06702,-65.37101c35.35725,-2.91409 66.23746,21.62882 68.97287,54.81813c2.73541,33.18932 -23.70978,62.45693 -59.06703,65.37103c-35.35722,2.91409 -66.23745,-21.62882 -68.97286,-54.81813z" fill="#000000" stroke-width="2"/><path d="M238.54166,201.96364c-0.29099,-3.53053 11.99487,-16.10763 23.373,-17.0454c11.37815,-0.93778 23.18884,10.26646 23.42962,13.18797c1.06519,12.9242 -8.54842,24.26483 -21.47259,25.33002c-12.9242,1.06519 -24.26483,-8.54844 -25.33001,-21.4726z" fill="url(#color-1)" stroke-width="2"/><path d="M247.36753,195.28604c-0.61429,-7.45327 4.9298,-13.99335 12.38308,-14.60764c7.45326,-0.61428 13.99336,4.92983 14.60764,12.3831c0.61429,7.45327 -4.92982,13.99336 -12.3831,14.60765c-7.45326,0.61428 -13.99333,-4.9298 -14.60764,-12.3831z" fill="#000000" stroke-width="5"/><path d="M317.44398,216.83407c-12.9242,1.06519 -24.26482,-8.54843 -25.33,-21.47259c-0.25099,-3.04528 10.51316,-17.93978 21.82211,-18.87184c11.30894,-0.93207 24.69919,11.60116 24.98052,15.01443c1.06519,12.9242 -8.54841,24.26484 -21.4726,25.33001z" fill="url(#color-2)" stroke-width="2"/><path d="M328.41685,184.78873c0.62274,7.55559 -4.99747,14.1854 -12.55303,14.80813c-7.55555,0.62272 -14.18539,-4.99749 -14.80812,-12.55305c-0.62274,-7.55559 4.99748,-14.18539 12.55303,-14.80813c7.55555,-0.62272 14.18539,4.99748 14.8081,12.55303z" fill="#000000" stroke-width="5"/><path d="M225.15875,202.0644l-12.90042,-52.87745c0,0 37.24971,-24.84929 64.5524,-28.87444c27.3027,-4.02515 64.52612,9.84479 64.52612,9.84479l11.74829,54.46546z" fill="#000000" stroke-width="2"/><path d="M221.22976,202.5698l2.54697,-8.96134l126.49795,-14.69163l1.81997,7.60258z" fill="#ffffff" stroke-width="0"/><path d="M214.87134,211.09627c0,0 -3.18788,-2.91688 -4.09982,-4.70734c-0.97413,-1.91257 -1.57067,-6.42589 -1.57067,-6.42589l155.21295,-17.608c0,0 -0.10356,3.59461 -0.55252,5.53818c-0.4877,2.11119 -2.2671,6.66779 -2.2671,6.66779z" fill="#000000" stroke-width="2"/></g><g fill-opacity="0.0902" fill="#ffffff" stroke="none" stroke-width="0.5" stroke-linecap="butt"><path d="M268.55942,229.50145c0.75,0 0.75,0.75 0.75,0.75v0.09526c0.16828,0.09383 0.26624,0.21022 0.3198,0.32971c0.42364,0.1777 0.42364,0.69019 0.42364,0.69019c0,0.7943 -0.09093,1.56545 -0.18308,2.3252c0.28229,1.35938 0.48587,2.71434 0.07107,3.27318c-0.08817,0.11879 -0.17477,0.22297 -0.25971,0.3136v0.03555c0,0 0,0.75 -0.75,0.75c-0.43801,0 -0.62022,-0.25581 -0.69601,-0.46863c-0.34175,-0.25257 -0.60687,-0.72884 -0.77736,-1.22421c-0.38836,-1.1284 -0.0767,-3.11423 0.37284,-4.5726c-0.01593,-0.38525 -0.02103,-0.77535 -0.02119,-1.17552v-0.37172c0,0 0,-0.75 0.75,-0.75z"/><path d="M276.74382,232.85349c0,0.44241 0,0.88481 0,1.32722c0.02351,0.10112 0.01913,0.1971 0,0.28357v0.99126c0,0.08073 -0.01275,0.15847 -0.03636,0.23134l0.0355,0.84757c0.00057,0.01201 0.00086,0.0241 0.00086,0.03626c0,0.41421 -0.33579,0.75 -0.75,0.75c-0.26446,0 -0.49695,-0.13688 -0.63049,-0.34365l-0.7313,-1.09695c-0.08187,-0.11901 -0.13027,-0.26282 -0.13162,-0.41786l-0.00206,-0.20163c-0.1455,-0.25554 -0.26798,-0.52198 -0.36001,-0.80009l0.03937,-0.12014h-0.04905v-1.11516c0,-0.25382 0.12609,-0.47819 0.31904,-0.6139l-0.22722,-1.32083c-0.00873,-0.04577 -0.01329,-0.09301 -0.01329,-0.14132c0,-0.41421 0.33579,-0.75 0.75,-0.75c0.29742,0 0.5544,0.17312 0.67568,0.42409l0.67317,1.32246l-0.01331,0.00677c0.45109,0.16661 0.45109,0.70101 0.45109,0.70101z"/><path d="M281.15118,233.93117c-0.13621,-0.31297 -0.23952,-0.64257 -0.32082,-0.96475l0.08029,-0.09147l-0.08615,0.00028l-0.00127,-0.39347h-0.0036l0.00002,-1.10896v0c0.00001,-0.41421 0.33579,-0.74999 0.75,-0.74999c0.40996,0 0.74309,0.32892 0.74989,0.73726c0.74353,0.0043 0.74353,0.74998 0.74353,0.74998c-0.00045,0.07421 -0.00141,0.14856 -0.00295,0.22301c0.0143,0.09748 0.00672,0.19081 -0.00819,0.26905c-0.03023,0.74412 -0.12638,1.49166 -0.35822,2.19468c-0.00117,0.05882 -0.00202,0.11801 -0.00236,0.17749v1.22469c0,0.41421 -0.33579,0.75 -0.75,0.75c-0.41421,0 -0.75,-0.33579 -0.75,-0.75v-0.37172v0v-0.9472c-0.00268,-0.37196 -0.01986,-0.67951 -0.04016,-0.94887z"/><path d="M292.58668,230.6551c0.71151,0.23717 0.47434,0.94868 0.47434,0.94868l-0.33323,0.96994c0,0.26695 0,1.02321 0,1.02321c0,0.41421 -0.33579,0.75 -0.75,0.75c-0.22135,0 -0.4203,-0.09589 -0.55758,-0.24839c-0.13728,0.1525 -0.33623,0.24839 -0.55758,0.24839c-0.41421,0 -0.75,-0.33579 -0.75,-0.75v-1.11516c0,0 0,-0.49693 0.4045,-0.6818c-0.02128,-0.14574 -0.0314,-0.29209 -0.03278,-0.43336v-1.11516c0,-0.41421 0.33579,-0.75 0.75,-0.75c0.33738,0 0.62273,0.22277 0.71698,0.52924l0.19848,0.59544c0.12005,-0.03027 0.26454,-0.02847 0.43687,0.02897z"/><path d="M296.80359,227.64941c0,-0.41421 0.33579,-0.75 0.75,-0.75c0.41421,0 0.75,0.33579 0.75,0.75v2.60204c0,0.27625 -0.14935,0.51762 -0.37172,0.64775v0.46741c0,0.41421 -0.33579,0.75 -0.75,0.75c-0.33738,0 -0.62273,-0.22277 -0.71698,-0.52924c-0.12391,-0.37172 -0.61406,-1.84219 -0.73797,-2.21391c0,0 -0.23717,-0.71151 0.47434,-0.94868c0.124,-0.04133 0.2336,-0.05385 0.33004,-0.04635c0.05489,-0.10551 0.14008,-0.20985 0.27229,-0.27956z"/><path d="M304.11,227.30962c0.71151,0.23717 0.47434,0.94868 0.47434,0.94868l-0.34292,0.99813c0.0031,0.35229 -0.04562,0.70157 -0.12733,1.04632l0.1344,0.01125l-0.03684,0.44023c0.02558,0.07554 0.03945,0.15649 0.03945,0.24067c0,0.12854 -0.03234,0.24952 -0.08931,0.35527l-0.00497,0.05944c-0.02838,0.38832 -0.35242,0.69456 -0.74798,0.69456c-0.35923,0 -0.65948,-0.25256 -0.73285,-0.58981l-0.25785,-1.07357l-0.01868,-0.01701c-0.00026,-0.02133 -0.00052,-0.04267 -0.00077,-0.064l-0.06941,-0.28898l0.00413,-0.00099l-0.00742,-0.01332c0.0006,-0.00511 0.00119,-0.01022 0.00179,-0.01532l-0.00479,0.00095l-0.28993,-1.45596c-0.01143,-0.05206 -0.01746,-0.10614 -0.01746,-0.16163c0,-0.41421 0.33579,-0.75 0.75,-0.75c0.14487,0 0.28015,0.04108 0.39483,0.11222l0.0009,-0.00278c0,0 0.23717,-0.71151 0.94868,-0.47434z"/><path d="M310.94146,227.32796c-0.00092,-0.01676 -0.00179,-0.03351 -0.00261,-0.05027h-0.0099v-1.48688c0,-0.41421 0.33579,-0.75 0.75,-0.75c0.27511,0 0.51562,0.14812 0.64614,0.36897c0.07319,-0.00547 0.15438,-0.00069 0.24439,0.01731c0.73544,0.14709 0.58835,0.88252 0.58835,0.88252c-0.19612,0.98058 -0.39223,1.96116 -0.58835,2.94174l-0.15237,0.76183c-0.06296,0.35054 -0.3695,0.61654 -0.73816,0.61654c-0.41421,0 -0.75,-0.33579 -0.75,-0.75v-1.8586h0.00156c0.00192,-0.23107 0.00561,-0.46214 0.01095,-0.69317z"/><path d="M317.25475,226.54081c-0.35924,0 -0.5464,-0.17207 -0.64392,-0.35137c-0.07315,0.09523 -0.14745,0.18961 -0.22283,0.28315l0.05069,0.02534l-0.36445,0.72891c-0.12026,0.25368 -0.37868,0.42912 -0.67809,0.42912c-0.33738,0 -0.62273,-0.22277 -0.71698,-0.52924l-0.36625,-1.09875l0.03517,-0.01172l-0.06397,-0.10531c-0.00323,-0.41177 -0.00646,-0.82353 -0.00968,-1.2353c0,0 0,-0.75 0.75,-0.75c0.75,0 0.75,0.75 0.75,0.75c-0.00042,0.04317 -0.00084,0.08634 -0.00126,0.12951c0.02864,-0.04327 0.05656,-0.08492 0.08299,-0.12453l0.34879,-0.69758c0.12026,-0.25368 0.37868,-0.42912 0.67809,-0.42912c0.2994,0 0.55783,0.17544 0.67809,0.42912l0.36445,0.72891l0.07918,1.07885c0,0 0,0.75 -0.75,0.75z"/><path d="M314.27443,239.17273c0,-0.45736 0.2789,-0.63581 0.49655,-0.70544c-0.09333,-0.50072 -0.11873,-1.02037 -0.12483,-1.52488c0,0 0,-0.75 0.75,-0.75c0.75,0 0.75,0.75 0.75,0.75c-0.00975,0.63905 -0.01055,1.33223 0.29254,1.89491l-1.41426,1.08541c0,0 -0.75,0 -0.75,-0.75z"/><path d="M310.97182,242.21911c0.05589,-0.02794 0.10944,-0.0489 0.16067,-0.06385l0.17415,-1.21908c0.04675,-0.36929 0.36204,-0.65485 0.74402,-0.65485c0.33738,0 0.62273,0.22277 0.71698,0.52924l0.36625,1.09875c0,0 0.23717,0.71151 -0.47434,0.94868c-0.04043,0.01348 -0.07933,0.02389 -0.11674,0.03154l-0.11985,0.83897c-0.04675,0.36929 -0.36204,0.65485 -0.74402,0.65485c-0.2994,0 -0.55783,-0.17544 -0.67809,-0.42912l-0.36445,-0.72891l0.36962,-0.18481l0.09005,-0.63034l1.48492,0.21213l-0.03818,0.26723c-0.02996,0.00613 -0.05897,0.01049 -0.08704,0.01324l-0.6567,1.4709l-1.16268,-1.14835c0,0 -0.33541,-0.67082 0.33541,-1.00623z"/><path d="M306.47113,247.41561c-0.00897,-0.10306 -0.00249,-0.19315 0.01536,-0.27188c-0.0119,-0.05305 -0.01818,-0.10823 -0.01818,-0.16488v-1.48688c0,-0.41421 0.33579,-0.75 0.75,-0.75c0.2994,0 0.55783,0.17544 0.67809,0.42912c0.12391,0.24781 0.61227,1.22453 0.73617,1.47235c0,0 0.33541,0.67082 -0.33541,1.00623c-0.23919,0.11959 -0.43573,0.11126 -0.58964,0.05102l-0.42418,0.39705c0,0 -0.74717,0.06504 -0.81221,-0.68214z"/><path d="M299.83764,248.78765c-0.43201,-0.17442 -0.43201,-0.69363 -0.43201,-0.69363l1.41864,-0.71145c0.26317,0.51876 0.2314,1.15346 0.48809,1.67546c0.26888,0.54679 -0.23114,-1.24952 -0.03845,-1.82758c0.20706,-0.62117 0.31751,-1.52104 0.93972,-1.72496c0.54685,-0.17922 0.96406,0.6287 1.44608,0.94305c0,0 0.53033,0.53033 0,1.06066c-0.39338,0.39338 -0.78675,0.20317 -0.96369,0.0787c0.13205,0.77904 0.18805,2.83426 -1.32157,2.96885c-0.73672,0.06568 -1.01947,-1.07605 -1.46574,-1.6659c-0.02528,-0.03341 -0.04885,-0.06787 -0.07108,-0.10319z"/><path d="M293.8727,249.50828c-0.67082,-0.33541 -0.33541,-1.00623 -0.33541,-1.00623l0.35148,-0.70297c0.05615,-0.14986 0.16578,-0.31762 0.37984,-0.40139c0.12761,-0.06451 0.28919,-0.09542 0.48474,-0.0387c0.20027,0.03672 0.33096,0.13663 0.41625,0.25139c0.15518,0.17195 0.17738,0.37277 0.15984,0.53252l-0.0021,0.26175c0.20736,3.27033 1.24089,-0.59259 2.63428,-1.35318c0,0 0.67082,-0.33541 1.00623,0.33541c0.33541,0.67082 -0.33541,1.00623 -0.33541,1.00623c-1.72362,0.7266 -2.69873,5.92635 -4.7023,1.16322c-0.00362,-0.00861 -0.00709,-0.01725 -0.01042,-0.02593c-0.01549,-0.00683 -0.03116,-0.0142 -0.04702,-0.02213z"/><path d="M290.11919,246.60057c0.75,0 0.75,0.75 0.75,0.75v1.02332c0.38164,-0.19299 0.76327,-0.38598 1.14491,-0.57898c0,0 0.67082,-0.33541 1.00623,0.33541c0.33541,0.67082 -0.33541,1.00623 -0.33541,1.00623c-0.40942,0.20204 -0.81884,0.40408 -1.22825,0.60612l-0.82848,0.76078c-0.13372,0.12362 -0.31253,0.19916 -0.509,0.19916c-0.41421,0 -0.75,-0.33579 -0.75,-0.75v-2.60204c0,0 0,-0.75 0.75,-0.75z"/><path d="M285.99691,248.40657l-1.00919,0.76629c0.15714,-0.1163 0.31428,-0.23261 0.47142,-0.34891v1.11516l-1.21486,-1.13797c0,0 -0.33541,-0.67082 0.33541,-1.00623c0.16317,-0.08159 0.3065,-0.10364 0.42998,-0.09029c0.02706,-0.05142 0.06136,-0.10247 0.10483,-0.1493v-0.19125c0.0355,0.03326 0.07101,0.06651 0.10651,0.09977c0.1059,-0.07178 0.24769,-0.11983 0.43753,-0.11983c0.75,0 0.75,0.75 0.75,0.75l-0.28431,0.21588c0.06838,0.06405 0.13675,0.1281 0.20513,0.19215l-0.29254,-0.08401v0.79114c0,0.41421 -0.33579,0.75 -0.75,0.75c-0.2994,0 -0.55783,-0.17544 -0.67809,-0.42912l-0.36445,-0.72891l0.29254,-0.14627v-0.56086h1.5v0.32402z"/><path d="M277.69381,244.90714c0,0 -0.53033,-0.53033 0,-1.06066c0.53033,-0.53033 1.06066,0 1.06066,0c0.16502,0.16777 0.33004,0.33555 0.49507,0.50332c0.15632,-1.25439 1.6745,-0.30572 2.28816,0.905l-1.45495,0.98717c0,0 -0.03557,0 -0.09121,-0.00775c-0.12903,0.22664 -0.37278,0.37947 -0.65223,0.37947c-0.2994,0 -0.55783,-0.17544 -0.67809,-0.42912l-0.32328,-0.64657c-0.21471,-0.21029 -0.42941,-0.42057 -0.64412,-0.63086z"/><path d="M271.6058,241.36674c0,0 -0.33541,-0.67082 0.33541,-1.00623c0.67082,-0.33541 1.00623,0.33541 1.00623,0.33541c0.01077,0.02555 0.02204,0.05156 0.03347,0.07793c0.02361,-0.01436 0.04874,-0.02826 0.07546,-0.04162c0.00819,-0.0041 0.01633,-0.00804 0.02442,-0.01184c0.11816,-0.25903 0.37941,-0.43906 0.68271,-0.43906c0.41421,0 0.75,0.33579 0.75,0.75v1.11516c0,0.41421 -0.33579,0.75 -0.75,0.75c-0.21384,0 -0.40678,-0.08949 -0.5434,-0.23307c-0.65429,-0.28089 -1.28507,-0.69354 -1.6143,-1.29668z"/></g></g></g></svg>