<svg version="1.1" xmlns="http://www.w3.org/2000/svg" xmlns:xlink="http://www.w3.org/1999/xlink" width="213.18203" height="281.18476" viewBox="0,0,213.18203,281.18476"><defs><linearGradient x1="320.08742" y1="187.07227" x2="320.08742" y2="244.23177" gradientUnits="userSpaceOnUse" id="color-1"><stop offset="0" stop-color="#7a6c00"/><stop offset="1" stop-color="#7a6c00" stop-opacity="0"/></linearGradient></defs><g transform="translate(-214.78369,-38.88751)"><g stroke-miterlimit="10"><g stroke-linecap="butt"><g stroke="#000000" stroke-width="3.5"><path d="M314.87026,219.0977c-9.04622,0.11266 -9.10538,-4.63697 -9.10538,-4.63697l-0.01622,-2.70485c-0.20662,-0.79913 -0.41325,-1.59828 -0.61986,-2.39742c-1.88136,-8.53283 2.65271,-16.86207 1.54497,-25.28292c-0.6552,-4.98078 -2.64026,-10.90982 -4.46088,-15.59266c-1.97983,-5.09232 -6.22748,-9.41546 -6.71804,-14.68371c-0.52303,-5.61711 6.70869,-10.04436 6.14945,-15.29302c0,0 -0.05915,-4.74963 8.98706,-4.86229c9.04622,-0.11266 9.10538,4.63697 9.10538,4.63697c-0.06092,1.58688 0.41587,3.20002 -0.18275,4.76063c-1.09226,2.8476 -4.85025,5.29409 -6.13592,8.121c-1.26409,2.77949 1.6372,6.34913 3.05016,8.82651c2.96554,5.19951 4.68502,10.59377 6.26257,15.96957c1.06563,3.63136 2.35979,7.15624 2.04102,10.85935c-0.61619,7.158 -3.338,14.02732 -1.68923,21.20313c0.23873,0.97323 0.47746,1.94646 0.7162,2.91969l0.05852,3.29469c0,0 0.05915,4.74963 -8.98707,4.86229z" fill="#39940f"/><path d="M293.32028,221.31851c-8.94695,0.78323 -10.28482,-3.90274 -10.28482,-3.90274l-0.71238,-2.52377c-0.48928,-2.44371 -0.72969,-4.9058 -0.76035,-7.36703c0.7804,-4.41701 1.32977,-9.25667 3.26058,-13.61671c2.08707,-4.7129 4.99366,-8.21167 5.29019,-13.09122c0.34369,-5.65539 -2.55897,-10.85003 -3.3625,-16.45336c-0.93851,-6.54449 -0.24751,-13.62597 1.75356,-20.13874c1.13659,-3.69919 3.66091,-7.20116 4.99715,-10.88268c0,0 1.7161,-4.67948 10.59826,-3.85848c8.88215,0.821 7.16603,5.50049 7.16603,5.50049c-3.57021,9.64916 -7.91978,18.51135 -6.47647,28.48125c0.8601,5.9413 3.84264,11.43748 3.40914,17.46495c-0.39675,5.51635 -3.4047,9.76524 -5.78792,15.04891c-1.51934,3.36842 -2.17396,8.4444 -2.77215,11.79373c0.02477,1.98843 0.26673,3.97605 0.67535,5.94946l0.61539,2.12672c0,0 1.33787,4.68596 -7.60905,5.4692z" fill="#28670a"/><path d="M329.9328,219.90379c-8.42118,-1.65935 -5.11642,-6.11113 -5.11642,-6.11113l0.62385,0.08966c-0.00772,-0.92111 -0.01544,-1.8422 -0.02317,-2.76331c-1.82941,-8.83574 -6.74869,-17.49408 -7.31424,-26.42215c-0.3834,-6.05271 0.35791,-10.07679 -0.78271,-15.83897c-1.3157,-6.64659 -4.46725,-13.18388 -5.37282,-19.88323c-0.6167,-4.56228 0.42518,-9.12691 -0.7491,-13.66524c0,0 -1.18073,-4.69897 7.78829,-5.39989c8.96903,-0.70091 10.14978,3.99807 10.14978,3.99807c1.17106,4.77421 0.21851,9.53022 0.86925,14.31677c0.88476,6.50789 4.00443,12.86143 5.27417,19.32057c1.34822,6.85829 0.45562,9.14464 0.88959,16.47605c0.52684,8.9004 5.54484,17.57708 7.31188,26.3998c0.01718,1.07873 0.03436,2.15748 0.05154,3.23623l-1.87394,3.45439c0,0 -3.30476,4.45176 -11.72593,2.79241z" fill="#448f21"/><path d="M281.31597,226.8495c-9.04622,0.11266 -9.10538,-4.63697 -9.10538,-4.63697l-0.00415,-0.33331c-0.16596,-13.32511 -0.14413,-26.55508 2.09609,-39.87599c0.92517,-5.50131 3.85043,-10.94846 4.20016,-16.46946c0.6604,-10.42556 0.50467,-20.7718 2.17447,-31.19687c0,0 0.76008,-4.74032 9.7745,-4.42251c9.01443,0.31782 8.25434,5.05815 8.25434,5.05815c-1.65571,10.3141 -1.41181,20.54949 -2.13202,30.86157c-0.39767,5.69402 -3.32637,11.30185 -4.27225,16.97196c-2.16508,12.97864 -2.16453,25.86561 -2.00284,38.84782l0.00415,0.33331c0,0 0.05915,4.74963 -8.98707,4.86229z" fill="#275313"/><path d="M323.55236,215.23929l-0.02355,-3.29512c0.21442,-0.97888 0.42885,-1.95774 0.64327,-2.93662c1.46955,-7.21465 -1.42251,-14.01404 -2.21677,-21.15449c-0.4109,-3.69403 0.79509,-7.25006 1.76993,-10.90681c1.44319,-5.41342 3.02779,-10.84882 5.86292,-16.12058c1.35083,-2.5118 4.16231,-6.15259 2.82939,-8.89973c-1.35567,-2.79401 -5.17343,-5.14615 -6.33625,-7.96567c-0.63728,-1.54521 -0.20084,-3.16975 -0.30125,-4.75461c0,0 -0.05915,-4.74963 8.98706,-4.86229c9.04623,-0.11267 9.10539,4.63697 9.10539,4.63697c-0.42836,5.26096 6.91139,9.50672 6.5284,15.13512c-0.35921,5.27884 -4.49787,9.70645 -6.35026,14.84647c-1.70343,4.72671 -3.54021,10.70335 -4.07116,15.69892c-0.89767,8.44582 3.84242,16.65956 2.17416,25.23661c-0.18665,0.80404 -0.37332,1.60807 -0.55997,2.41211l0.05115,2.70443c0,0 0.05915,4.74963 -8.98706,4.86229c-9.04622,0.11266 -9.10538,-4.63697 -9.10538,-4.63697z" fill="#39940f"/><path d="M346.51343,216.28168l0.56222,-2.14139c0.35934,-1.98297 0.55173,-3.976 0.52696,-5.96444c-0.68143,-3.33337 -1.46226,-8.3915 -3.06502,-11.72102c-2.51406,-5.22268 -5.62689,-9.39534 -6.1609,-14.9001c-0.58348,-6.0148 2.26126,-11.58355 2.97312,-17.54442c1.19457,-10.00276 -3.37438,-18.75387 -7.18379,-28.31112c0,0 -1.83212,-4.6353 7.02683,-5.67726c8.85894,-1.04196 10.69107,3.59334 10.69107,3.59334c1.42752,3.64711 4.03826,7.08511 5.26663,10.75484c2.16266,6.46093 3.0298,13.52299 2.25457,20.08883c-0.66374,5.6216 -3.43614,10.88692 -2.9517,16.53199c0.41797,4.87065 3.41079,8.29594 5.61459,12.95541c2.03879,4.31059 2.70852,9.13507 3.59868,13.53129c0.03065,2.46124 -0.14837,4.92854 -0.57664,7.38367l-0.64931,2.54073c0,0 -1.22077,4.71783 -10.18444,4.15766c-8.96367,-0.56017 -7.7429,-5.278 -7.7429,-5.278z" fill="#28670a"/><path d="M305.82809,218.55771l-1.95938,-3.40665c-0.0097,-1.07883 -0.01938,-2.15767 -0.02909,-3.2365c1.54677,-8.86398 6.34713,-17.66295 6.65214,-26.57371c0.25125,-7.33994 -0.69801,-9.60334 0.47898,-16.4931c1.10849,-6.48873 4.06897,-12.91802 4.79137,-19.44592c0.53133,-4.80128 -0.53936,-9.53209 0.51242,-14.33398c0,0 1.06335,-4.72693 10.04704,-4.24961c8.9837,0.47732 7.92036,5.20424 7.92036,5.20424c-1.0609,4.56618 0.09435,9.10344 -0.40854,13.67966c-0.73844,6.71983 -3.72621,13.33358 -4.87596,20.01088c-0.99677,5.7888 -0.15546,9.79316 -0.38802,15.85354c-0.34302,8.93938 -5.04514,17.71756 -6.65394,26.59611c0.01521,0.92101 0.03042,1.84202 0.04564,2.76302l0.62142,-0.10518c0,0 3.41459,4.36807 -4.96264,6.23666c-8.37723,1.86858 -11.79185,-2.49951 -11.79185,-2.49951z" fill="#448f21"/><path d="M357.28928,222.15301l-0.00415,-0.33331c-0.16168,-12.98221 -0.48209,-25.86521 -2.96971,-38.78589c-1.08679,-5.64481 -4.15425,-11.17796 -4.69361,-16.8603c-0.9768,-10.29094 -0.98788,-20.52925 -2.89996,-30.7989c0,0 -0.87792,-4.71993 8.1258,-5.26214c9.00372,-0.54222 9.88163,4.17772 9.88163,4.17772c1.92891,10.38025 2.03089,20.72716 2.95073,31.13304c0.48711,5.51058 3.54713,10.88319 4.60901,16.35975c2.57127,13.26098 2.92257,26.48631 3.08851,39.81141l0.00415,0.33331c0,0 0.05915,4.74963 -8.98706,4.86229c-9.04622,0.11266 -9.10538,-4.63697 -9.10538,-4.63697z" fill="#275313"/></g><g stroke="none" stroke-width="0.5"><path d="M314.87026,219.0977c-9.04622,0.11266 -9.10538,-4.63697 -9.10538,-4.63697l-0.01622,-2.70484c-0.20662,-0.79913 -0.41325,-1.59828 -0.61986,-2.39742c-1.88136,-8.53284 2.65271,-16.86207 1.54497,-25.28292c-0.6552,-4.98078 -2.64026,-10.90982 -4.46088,-15.59265c-1.97982,-5.09232 -6.22748,-9.41546 -6.71804,-14.68372c-0.52303,-5.61711 6.70869,-10.04436 6.14945,-15.29301c0,0 -0.05915,-4.74963 8.98706,-4.86229c9.04622,-0.11266 9.10538,4.63697 9.10538,4.63697c-0.06092,1.58688 0.41587,3.20002 -0.18275,4.76063c-1.09227,2.8476 -4.85024,5.29409 -6.13592,8.121c-1.26409,2.77949 1.63719,6.34913 3.05016,8.82651c2.96554,5.19951 4.68503,10.59377 6.26257,15.96957c1.06563,3.63135 2.35979,7.15624 2.04102,10.85935c-0.61619,7.158 -3.338,14.02732 -1.68923,21.20313c0.23873,0.97323 0.47745,1.94646 0.7162,2.91969l0.05852,3.29468c0,0 0.05915,4.74963 -8.98706,4.86229z" fill="#39940f"/><path d="M293.32028,221.31851c-8.94695,0.78323 -10.28482,-3.90274 -10.28482,-3.90274l-0.71238,-2.52377c-0.48928,-2.44371 -0.72969,-4.9058 -0.76035,-7.36703c0.7804,-4.41701 1.32977,-9.25667 3.26058,-13.61671c2.08708,-4.7129 4.99366,-8.21167 5.2902,-13.09122c0.34369,-5.65539 -2.55897,-10.85003 -3.36251,-16.45336c-0.9385,-6.54449 -0.2475,-13.62597 1.75357,-20.13874c1.13659,-3.69919 3.66091,-7.20116 4.99715,-10.88268c0,0 1.7161,-4.67949 10.59826,-3.85848c8.88215,0.821 7.16604,5.50049 7.16604,5.50049c-3.57022,9.64916 -7.91979,18.51134 -6.47647,28.48125c0.86009,5.9413 3.84265,11.43749 3.40914,17.46494c-0.39675,5.51635 -3.40469,9.76524 -5.78792,15.04891c-1.51934,3.36842 -2.17396,8.4444 -2.77215,11.79373c0.02477,1.98843 0.26673,3.97605 0.67535,5.94946l0.61539,2.12672c0,0 1.33788,4.68596 -7.60905,5.4692z" fill="#28670a"/><path d="M329.9328,219.90379c-8.42118,-1.65935 -5.11642,-6.11113 -5.11642,-6.11113l0.62385,0.08966c-0.00773,-0.9211 -0.01545,-1.8422 -0.02317,-2.76331c-1.82941,-8.83574 -6.74869,-17.49408 -7.31424,-26.42215c-0.3834,-6.05271 0.35791,-10.07679 -0.78271,-15.83897c-1.3157,-6.64658 -4.46725,-13.18388 -5.37282,-19.88322c-0.61669,-4.56228 0.4252,-9.12692 -0.7491,-13.66524c0,0 -1.18073,-4.69897 7.78829,-5.39989c8.96903,-0.70092 10.14977,3.99806 10.14977,3.99806c1.17105,4.77421 0.21851,9.53022 0.86924,14.31676c0.88475,6.50789 4.00444,12.86144 5.27418,19.32057c1.34822,6.8583 0.45562,9.14464 0.88959,16.47604c0.52684,8.9004 5.54484,17.57708 7.31188,26.3998c0.01718,1.07873 0.03436,2.15748 0.05154,3.23623l-1.87393,3.45439c0,0 -3.30476,4.45176 -11.72593,2.79241z" fill="#448f21"/><path d="M281.31597,226.8495c-9.04622,0.11266 -9.10538,-4.63697 -9.10538,-4.63697l-0.00415,-0.33332c-0.16596,-13.32511 -0.14413,-26.55508 2.09609,-39.87599c0.92517,-5.50131 3.85043,-10.94846 4.20016,-16.46946c0.6604,-10.42556 0.50467,-20.77179 2.17447,-31.19687c0,0 0.76008,-4.74033 9.7745,-4.42251c9.01443,0.31782 8.25434,5.05815 8.25434,5.05815c-1.65571,10.3141 -1.41181,20.54948 -2.13202,30.86157c-0.39766,5.69402 -3.32637,11.30185 -4.27225,16.97196c-2.16508,12.97863 -2.16454,25.86561 -2.00285,38.84782l0.00415,0.33332c0,0 0.05915,4.74963 -8.98706,4.86229z" fill="#275313"/><path d="M323.55236,215.23929l-0.02355,-3.29511c0.21442,-0.97888 0.42884,-1.95774 0.64327,-2.93662c1.46955,-7.21466 -1.42251,-14.01405 -2.21676,-21.15448c-0.4109,-3.69403 0.79508,-7.25006 1.76993,-10.90681c1.44318,-5.41343 3.02778,-10.84882 5.86292,-16.12058c1.35083,-2.5118 4.16232,-6.15259 2.82939,-8.89973c-1.35567,-2.79401 -5.17343,-5.14615 -6.33626,-7.96567c-0.63728,-1.54521 -0.20084,-3.16975 -0.30125,-4.75461c0,0 -0.05915,-4.74963 8.98706,-4.86229c9.04622,-0.11266 9.10538,4.63697 9.10538,4.63697c-0.42836,5.26096 6.91139,9.50673 6.52841,15.13511c-0.35921,5.27884 -4.49788,9.70645 -6.35026,14.84648c-1.70343,4.7267 -3.54021,10.70334 -4.07116,15.69891c-0.89767,8.44582 3.84242,16.65956 2.17416,25.23661c-0.18665,0.80404 -0.37331,1.60807 -0.55996,2.41211l0.05115,2.70442c0,0 0.05915,4.74963 -8.98706,4.86229c-9.04622,0.11266 -9.10538,-4.63697 -9.10538,-4.63697z" fill="#39940f"/><path d="M346.51343,216.28168l0.56222,-2.1414c0.35934,-1.98297 0.55173,-3.976 0.52696,-5.96444c-0.68144,-3.33338 -1.46226,-8.3915 -3.06502,-11.72103c-2.51406,-5.22269 -5.6269,-9.39535 -6.16091,-14.90011c-0.58348,-6.01479 2.26126,-11.58355 2.97312,-17.54442c1.19457,-10.00276 -3.37438,-18.75387 -7.18378,-28.31112c0,0 -1.83212,-4.6353 7.02683,-5.67726c8.85894,-1.04196 10.69107,3.59334 10.69107,3.59334c1.42752,3.64711 4.03826,7.08511 5.26663,10.75484c2.16266,6.46093 3.0298,13.52299 2.25457,20.08883c-0.66374,5.6216 -3.43614,10.88692 -2.9517,16.53199c0.41798,4.87066 3.41078,8.29594 5.61459,12.95541c2.03879,4.31059 2.70852,9.13507 3.59869,13.53129c0.03065,2.46123 -0.14837,4.92854 -0.57664,7.38367l-0.64931,2.54073c0,0 -1.22077,4.71783 -10.18444,4.15766c-8.96367,-0.56017 -7.7429,-5.278 -7.7429,-5.278z" fill="#28670a"/><path d="M305.82809,218.55771l-1.95937,-3.40665c-0.0097,-1.07883 -0.01937,-2.15767 -0.02908,-3.2365c1.54676,-8.86398 6.34713,-17.66295 6.65214,-26.57371c0.25125,-7.33994 -0.69802,-9.60334 0.47898,-16.49309c1.10848,-6.48873 4.06897,-12.91802 4.79138,-19.44592c0.53133,-4.80128 -0.53936,-9.53209 0.51242,-14.33398c0,0 1.06335,-4.72693 10.04704,-4.2496c8.9837,0.47732 7.92036,5.20424 7.92036,5.20424c-1.0609,4.56617 0.09434,9.10344 -0.40854,13.67966c-0.73844,6.71983 -3.72621,13.33358 -4.87598,20.01086c-0.99676,5.7888 -0.15546,9.79317 -0.38801,15.85354c-0.34303,8.93939 -5.04514,17.71756 -6.65394,26.59611c0.01521,0.92101 0.03042,1.84202 0.04565,2.76302l0.62142,-0.10518c0,0 3.41459,4.36807 -4.96264,6.23666c-8.37723,1.86858 -11.79185,-2.49951 -11.79185,-2.49951z" fill="#448f21"/><path d="M357.28928,222.15301l-0.00415,-0.33331c-0.16168,-12.98221 -0.48209,-25.86521 -2.96972,-38.78589c-1.0868,-5.64481 -4.15425,-11.17796 -4.6936,-16.8603c-0.9768,-10.29094 -0.98788,-20.52925 -2.89996,-30.7989c0,0 -0.87792,-4.71993 8.1258,-5.26214c9.00372,-0.54222 9.88162,4.17772 9.88162,4.17772c1.92891,10.38026 2.0309,20.72716 2.95073,31.13304c0.48711,5.51057 3.54713,10.88319 4.60901,16.35975c2.57127,13.26098 2.92258,26.48631 3.08852,39.81141l0.00415,0.33331c0,0 0.05915,4.74963 -8.98706,4.86229c-9.04622,0.11266 -9.10538,-4.63697 -9.10538,-4.63697z" fill="#275313"/></g></g><g stroke="#000000" stroke-width="3.5"><path d="M372.53908,173.09546l2.17941,6.91742l-7.64484,-2.30868z" fill="#000000" stroke-linecap="round"/><path d="M345.53253,118.44856c-1.22458,-0.91148 -1.97632,-2.36939 -1.90199,-4.02181c0.08386,-1.86364 1.19738,-3.50573 2.78777,-4.40831c1.39697,-2.20903 7.42102,-0.29318 9.2088,0.47439c6.5298,2.8035 12.66728,11.04142 15.07466,17.48366c7.55025,20.2048 -8.41725,42.45528 -4.84609,62.91252c1.99451,11.42542 10.40417,20.91815 12.73659,32.34333c0.76223,3.73373 0.68229,10.94476 -5.48415,11.02155c-1.76731,0.02201 -3.29374,-1.29094 -4.48915,-2.48152c-0.94211,-0.9383 -0.37187,-5.22648 -0.38806,-5.98263c-0.07596,-3.54471 -2.3141,-7.31642 -3.6965,-10.41084c-3.08304,-6.90122 -8.48584,-15.135 -9.17298,-22.91317c-1.78151,-20.16611 8.28583,-39.90744 5.56494,-59.98938c-0.51331,-3.78852 -6.4689,-10.53837 -9.10673,-12.27329c-1.01198,-0.66557 -2.09271,-0.69174 -3.18113,-0.76385c-0.48098,0.00388 -0.94389,-0.05476 -1.3809,-0.16808c-0.40238,-0.08673 -0.80226,-0.21975 -1.19651,-0.43413c-0.19886,-0.10813 -0.37345,-0.23911 -0.5286,-0.38842z" fill="#9efd71" stroke-linecap="butt"/><path d="M371.18007,106.76372c0.551,-2.37558 2.78058,-4.19994 5.36427,-4.23212c1.51103,-0.01882 2.84561,0.57905 3.76087,1.55169c0.15765,0.16754 0.30287,0.34621 0.43441,0.53476c2.04575,1.76769 4.41312,3.29553 6.60879,4.89289c0.03971,0.0289 0.0542,0.08261 0.09331,0.11223c19.17966,14.53404 14.95759,43.98432 12.90356,65.24565c-0.17279,1.78855 -0.57158,3.56514 -0.72964,5.35416c-0.20798,2.35396 -0.30109,4.71218 -0.31785,7.06427c-0.01836,2.57522 3.61524,6.51524 2.34698,9.12293c-2.15188,4.42456 -4.22253,5.23567 -8.69674,3.40664c-4.26025,-1.74157 -3.94355,-17.79529 -3.84299,-19.71605c0.09393,-1.79435 0.71655,-4.16221 0.80568,-5.60511c0.67917,-10.99507 2.59488,-26.80613 0.70443,-38.9039c-0.89636,-5.73623 -2.91332,-11.81985 -7.31243,-15.75488c-3.29543,-2.94775 -12.81287,-6.61334 -12.26785,-12.44551c0.0207,-0.22143 0.07048,-0.43006 0.14522,-0.62767z" fill="#9efd71" stroke-linecap="butt"/><path d="M353.10511,112.97326c0.12617,-2.80435 2.5839,-5.10706 5.48947,-5.14325c0.45545,-0.00568 0.89484,0.04468 1.31158,0.14444c1.12657,-0.30693 2.85017,1.82001 3.51716,2.55141c3.13576,3.43858 5.60823,6.73019 8.0999,10.64874c12.4854,19.63536 2.49101,41.82256 2.15852,63.42875c-0.05354,3.47945 0.4064,7.57408 1.61596,10.81674c0.36194,0.97034 2.04967,2.88283 2.02126,3.51421c-0.07675,1.70575 -0.31322,3.73257 -1.61716,4.95429c-8.2151,7.69693 -11.36073,-8.04456 -11.94097,-11.79294c-0.18632,-1.20368 -0.38657,-2.51247 -0.46593,-3.73518c-1.16549,-17.958 6.84546,-35.41553 2.80992,-53.42022c-1.3666,-6.09716 -5.54932,-11.52517 -9.5548,-16.09002c-0.79765,-0.90906 -4.68647,-4.39677 -3.44492,-5.87693z" fill="#67dc31" stroke-linecap="butt"/><path d="M398.32778,163.386c0.71963,0.87071 1.12537,1.99688 1.0698,3.23167c-0.08386,1.86364 -1.19738,3.50574 -2.78778,4.40832c-0.54036,0.85446 -1.88785,0.88203 -3.0573,0.72792c-0.5311,-0.07 -1.02548,-0.17748 -1.39083,-0.262c-4.08162,-0.94428 -4.767,-6.17388 -5.20893,-9.81195c-0.62141,-5.11554 -1.2414,-12.01902 -2.4362,-17.00977c-1.4771,-6.16993 -4.41283,-11.80791 -6.04997,-17.93096c-2.91828,-10.91471 -1.92747,-14.17514 -9.47062,-23.73967c-2.0305,-2.57463 -4.56506,-6.12155 -0.1931,-9.23921c4.92734,-3.51367 7.52501,1.27645 9.73021,3.98886c6.54843,8.05463 8.12451,16.09654 10.19094,26.11121c0.77627,3.76211 2.325,6.52296 3.53195,10.15594c1.85393,5.58032 3.16586,11.36239 4.12933,17.19217c0.76904,4.65323 0.88844,8.24993 1.94248,12.17748z" fill="#67dc31" stroke-linecap="butt"/><path d="M375.49943,92.37623c1.20878,0.91273 1.94907,2.36137 1.87527,4.00177c-0.00202,0.04471 -0.00462,0.08929 -0.00782,0.13373c0.11323,0.60948 -0.06164,1.17172 -0.42148,1.68912c-0.84354,1.91553 -2.81858,3.29245 -5.06019,3.32037c-1.98587,0.96207 -4.61975,-2.55722 -5.91734,-3.2269c-4.58145,-2.36439 -10.07471,-5.11413 -15.59563,-5.05233c-6.24097,0.06985 -13.58463,1.30418 -19.39738,4.20824c-1.35821,0.67857 -3.43248,2.78731 -5.25697,3.05004c-2.80926,0.40456 -5.33305,0.77365 -6.51021,-3.12854c-1.95511,-6.48096 9.97593,-10.07946 14.35481,-11.40581c12.30267,-3.72646 25.2227,-3.91468 36.07808,2.41246c2.44191,1.42328 4.45479,2.3965 5.85884,3.99783z" fill="#67dc31" stroke-linecap="butt"/><path d="M372.51054,100.23395c0.81083,0.89159 1.27596,2.08463 1.21673,3.40113c-0.00202,0.04471 -0.00462,0.08929 -0.00782,0.13373c0.07097,0.38202 0.02875,0.74548 -0.10124,1.09097c5.9014,7.34038 14.27079,18.44522 13.21474,26.84975c-0.77993,6.20692 -0.93658,12.5225 -2.67792,18.59656c-1.7845,6.22465 -5.04282,12.58675 -4.80993,19.13873c0.30948,8.70643 4.7703,17.5329 7.17053,25.69534c2.49039,8.46902 4.54827,17.20267 7.41409,25.49723c0.94166,2.72549 0.50001,5.98597 -3.37553,7.26259c-7.35326,2.42221 -9.49906,-12.98439 -10.62431,-17.07793c-0.46015,-1.67399 -0.94101,-3.34162 -1.41955,-5.00991c-0.69962,-2.43904 -1.35125,-4.89407 -2.1149,-7.31204c-2.83547,-8.97798 -7.77474,-18.87577 -7.58859,-28.56339c0.25137,-13.08187 7.13152,-24.69664 7.44907,-38.01202c0.23523,-9.86368 -10.05767,-17.5635 -14.84496,-24.76511c-0.442,-0.66491 -0.68058,-1.47222 -0.71837,-2.31526c-0.00995,-0.16848 -0.01123,-0.33953 -0.00342,-0.5127c0.01566,-0.34784 0.06717,-0.68795 0.15096,-1.01698c0.00582,-0.0244 0.01179,-0.0488 0.01793,-0.07316c-3.35624,-1.78652 -8.48156,-2.76004 -11.77663,-2.77177c-4.80146,-0.01709 -9.54768,-0.50042 -14.24214,0.70635c-2.87297,0.73854 -6.96983,5.29916 -9.99512,3.33332c-1.42792,-0.92787 -2.69798,-2.5215 -2.74941,-4.22117c-0.19695,-6.51022 10.5923,-9.38357 15.64652,-9.74922c10.34913,-0.74873 29.25942,-0.75888 34.76927,9.69493z" fill="#4cc513" stroke-linecap="butt"/><path d="M388.2157,129.00862c1.3707,0.24969 1.80725,3.66493 2.02488,4.89021c1.14058,6.42176 1.00445,12.9861 0.8901,19.58029c-0.12614,7.27407 -1.42185,14.50356 -1.52823,21.71717c-0.12765,8.65501 4.73462,16.81378 4.39146,25.41019c-0.27378,6.85885 -0.42233,13.7189 -0.92591,20.5781c-0.19638,2.6749 -2.07667,5.10074 -5.48948,5.14325c-3.41556,0.04254 -5.07538,-2.33921 -5.03252,-5.01219c0.1076,-6.71424 0.66931,-13.43966 0.907,-20.15784c0.27736,-7.83883 -3.46642,-16.12809 -4.29902,-23.97578c-0.72989,-6.87955 1.15646,-16.93481 1.44743,-23.39293c0.22547,-5.00439 0.28237,-10.76202 -0.39638,-15.75607c-0.25534,-1.87879 -1.22944,-4.19697 -0.77092,-6.09117c0.0529,-0.21853 0.13294,-0.42138 0.23597,-0.61091c0.89698,-1.65048 3.5348,-2.29329 5.14634,-3.52798z" fill="#7ade4c" stroke-linecap="butt"/><path d="M347.91765,119.43642c-1.25729,0.80146 -5.79148,-1.78348 -7.50031,-1.76449c-1.65318,0.01837 -3.30632,0.03536 -4.95985,0.06177c-2.45872,0.03929 -3.46871,2.69143 -6.49665,2.51642c-3.50064,-0.20232 -5.28138,-4.86849 -3.75977,-7.89659c1.31362,-2.61418 4.34787,-2.898 6.66625,-3.89752c4.5201,-1.94873 12.2145,-1.84753 17.04507,0.90461c2.03953,1.16199 3.56853,2.79653 4.13258,4.94888z" fill="#9efd71" stroke-linecap="butt"/><path d="M361.41536,107.97174c1.26521,0.90759 2.04667,2.38894 1.97093,4.07217c-0.00202,0.04471 -0.00462,0.08929 -0.00782,0.13373c0.11323,0.60948 -0.06164,1.17172 -0.42148,1.68913c-0.84354,1.91553 -2.81859,3.29245 -5.06021,3.32037c-1.26664,0.61364 -2.23287,-0.0351 -3.03994,-0.92455c-0.70931,-0.50295 -1.26852,-1.18535 -1.61275,-1.98251c-0.15752,-0.16365 -0.3119,-0.29599 -0.46522,-0.38234c-2.48486,-1.39963 -5.84673,-3.48355 -8.89548,-3.84512c-3.32475,-0.39432 -7.40808,-0.39168 -10.60641,-0.30471c-2.09747,0.05703 -3.06239,3.75876 -6.1826,2.7796c-1.65235,-0.51853 -3.56204,-1.26779 -4.28375,-2.7836c-2.60124,-5.46334 5.41225,-9.19651 9.5868,-10.1348c8.21403,-1.84623 23.40359,1.23169 29.01792,8.36261z" fill="#67dc31" stroke-linecap="butt"/></g><g stroke="#000000" stroke-width="3.5"><path d="M284.23792,168.02214l-7.72504,2.34639l2.41111,-6.53052z" fill="#000000" stroke-linecap="round"/><path d="M307.22323,112.38783c-0.40157,0.21026 -0.80604,0.34448 -1.21147,0.4354c-0.44097,0.11666 -0.90602,0.18273 -1.38707,0.19071c-1.09128,0.09378 -2.17336,0.14435 -3.20795,0.79206c-2.6968,1.68832 -8.88007,8.15301 -9.51999,11.71324c-3.39207,18.87181 6.02083,37.11624 3.56574,56.04423c-0.94694,7.30062 -6.62668,15.14162 -9.94126,21.67879c-1.48621,2.93117 -3.85112,6.51726 -4.04538,9.83862c-0.04145,0.70851 0.38597,4.71052 -0.58784,5.61194c-1.23564,1.14378 -2.80649,2.41014 -4.5738,2.43215c-6.16645,0.0768 -6.00582,-6.67421 -5.11869,-10.18912c2.71459,-10.75562 11.44446,-19.84812 13.82101,-30.59582c4.25519,-19.24378 -10.97657,-39.69566 -2.74907,-58.799c2.62331,-6.09105 9.0382,-13.95365 15.66425,-16.73654c1.81414,-0.76194 7.90462,-2.70135 9.22846,-0.66635c1.56093,0.80689 2.62013,2.31781 2.64184,4.06104c0.01925,1.54566 -0.78147,2.92908 -2.03696,3.81218c-0.1602,0.14358 -0.33924,0.27044 -0.54179,0.3765z" fill="#9efd71" stroke-linecap="butt"/><path d="M282.62101,102.27164c0.35066,5.44852 -9.29305,9.11076 -12.6882,11.95075c-4.53223,3.79113 -6.75298,9.53691 -7.84111,14.93036c-2.29487,11.37482 -0.90589,26.13526 -0.59327,36.41547c0.04103,1.34907 0.58489,3.55151 0.619,5.22961c0.03651,1.79631 -0.18226,16.82256 -4.5024,18.55623c-4.53711,1.82076 -6.58155,1.11111 -8.5867,-2.98049c-1.18178,-2.41145 2.58478,-6.18878 2.65234,-8.59998c0.06169,-2.20224 0.04723,-4.40843 -0.08229,-6.60782c-0.09844,-1.67155 -0.4381,-3.32567 -0.5513,-4.99644c-1.34552,-19.86112 -4.58674,-47.33868 15.08579,-61.41198c0.0401,-0.02869 0.05639,-0.07935 0.09709,-0.10735c2.24987,-1.54883 4.66921,-3.03669 6.77478,-4.74144c0.13788,-0.17976 0.28911,-0.35056 0.45243,-0.51126c0.94808,-0.93293 2.30318,-1.52501 3.81421,-1.54383c2.58369,-0.03218 4.75334,1.6225 5.2253,3.83389c0.06817,0.18326 0.11102,0.37743 0.12433,0.5843z" fill="#9efd71" stroke-linecap="butt"/><path d="M296.72955,112.65317c-4.15943,4.37147 -8.52499,9.55552 -10.09559,15.29831c-4.63792,16.95822 2.79389,33.11353 1.02877,49.95882c-0.12019,1.14696 -0.36418,2.37743 -0.59073,3.50915c-0.70553,3.52426 -4.37768,18.34159 -12.33938,11.33175c-1.26374,-1.11265 -1.43268,-3.00503 -1.45256,-4.60056c-0.00735,-0.59057 1.74487,-2.42227 2.13934,-3.3397c1.31826,-3.06582 1.915,-6.91145 1.97753,-10.16855c0.38824,-20.22559 -8.87003,-40.76226 4.27567,-59.45137c2.62343,-3.72971 5.20676,-6.87181 8.45854,-10.1676c0.69167,-0.70103 2.48694,-2.73441 3.60375,-2.47414c0.42024,-0.10346 0.86149,-0.16122 1.31695,-0.16689c2.90558,-0.03618 5.28748,2.06096 5.32015,4.68411c1.19268,1.35617 -2.81411,4.71613 -3.64244,5.58667z" fill="#67dc31" stroke-linecap="butt"/><path d="M255.79812,143.91659c1.15838,-5.48267 2.66378,-10.92905 4.70465,-16.1996c1.32868,-3.4313 2.97016,-6.05411 3.87228,-9.59595c2.40143,-9.42831 4.24647,-16.99734 11.06636,-24.69821c2.29661,-2.59328 5.0552,-7.14174 9.86734,-3.97012c4.26976,2.81415 1.6158,6.19688 -0.50145,8.65692c-7.86539,9.13885 -6.98295,12.16826 -10.2666,22.45996c-1.84211,5.77356 -4.96717,11.12418 -6.65074,16.93777c-1.36181,4.70251 -2.21238,11.18241 -3.00473,15.98795c-0.5635,3.41763 -1.42364,8.33152 -5.53847,9.31425c-0.36834,0.08797 -0.86648,0.20055 -1.40015,0.27891c-1.17507,0.17255 -2.52222,0.1792 -3.03428,-0.60794c-1.56094,-0.80689 -2.62014,-2.31781 -2.64184,-4.06103c-0.01439,-1.15502 0.42911,-2.21943 1.17807,-3.05219c1.18553,-3.70345 1.42498,-7.07455 2.34959,-11.45072z" fill="#67dc31" stroke-linecap="butt"/><path d="M284.65022,84.43286c11.07098,-6.18698 23.99011,-6.32233 36.17355,-3.1293c4.33645,1.13648 16.15238,4.21863 13.98023,10.33503c-1.30785,3.68269 -3.82038,3.39792 -6.61731,3.08682c-1.81649,-0.20205 -3.82125,-2.12681 -5.1574,-2.7295c-5.71828,-2.57937 -13.02381,-3.55818 -19.26503,-3.47308c-5.52115,0.07527 -11.10844,2.78282 -15.77069,5.1075c-1.32048,0.65841 -4.07285,4.01767 -6.02745,3.16461c-2.24161,0.02791 -4.17153,-1.2139 -4.95152,-2.98739c-0.34273,-0.47586 -0.4989,-0.99816 -0.36529,-1.57166c-0.00171,-0.04155 -0.00284,-0.08323 -0.00335,-0.12506c-0.01911,-1.53439 0.76984,-2.90888 2.00956,-3.79277c1.45808,-1.53347 3.50426,-2.49341 5.99466,-3.88515z" fill="#67dc31" stroke-linecap="butt"/><path d="M316.49069,85.68689c5.04413,0.22053 15.74199,2.65114 15.32776,8.75253c-0.10815,1.59293 -1.43193,3.11596 -2.8914,4.01932c-3.09214,1.91391 -7.03854,-2.25818 -9.88807,-2.88051c-4.65614,-1.01689 -9.42046,-0.4498 -14.22448,-0.31798c-3.29683,0.09045 -8.45676,1.12574 -11.87401,2.8797c0.00533,0.02266 0.0105,0.04536 0.01549,0.06809c0.07285,0.30612 0.11305,0.62338 0.1171,0.94873c0.00202,0.16198 -0.00497,0.32219 -0.02054,0.48021c-0.06593,0.79038 -0.33153,1.55216 -0.7959,2.1855c-5.02955,6.85957 -15.58364,14.31849 -15.67741,23.54988c-0.12657,12.46185 6.36893,23.17283 6.18392,35.41758c-0.13699,9.0677 -5.40855,18.45586 -8.54473,26.93185c-0.84464,2.28279 -1.57845,4.59756 -2.35974,6.89854c-0.53439,1.57385 -1.07111,3.14713 -1.58729,4.72587c-1.2623,3.86063 -3.92302,18.34024 -11.19851,16.24926c-3.83456,-1.10205 -4.16761,-4.14477 -3.13462,-6.71982c3.14376,-7.83676 5.49387,-16.06522 8.26787,-24.05629c2.67357,-7.70178 7.43073,-16.07514 8.03083,-24.23592c0.4516,-6.14137 -2.59581,-12.02073 -4.17338,-17.80691c-1.5394,-5.64621 -1.4854,-11.55678 -2.05856,-17.3506c-0.77609,-7.84514 7.96727,-18.44636 14.11602,-25.46276c-0.11853,-0.32041 -0.14863,-0.65976 -0.06488,-1.01922c-0.00171,-0.04155 -0.00284,-0.08323 -0.00335,-0.12506c-0.01533,-1.23144 0.4898,-2.3599 1.33072,-3.21441c5.86091,-9.9226 24.77873,-10.36915 35.10717,-9.91757z" fill="#4cc513" stroke-linecap="butt"/><path d="M268.15271,121.71886c1.57103,1.11739 4.1885,1.65574 5.03078,3.17975c0.09672,0.17501 0.17006,0.36303 0.21568,0.56641c0.3955,1.76281 -0.65632,3.95719 -0.97446,5.7228c-0.84563,4.69318 -0.98084,10.08368 -0.92224,14.76471c0.07563,6.04082 1.62726,15.41182 0.66755,21.87193c-1.09478,7.36923 -5.11666,15.22219 -5.10074,22.55635c0.01366,6.28567 0.35119,12.5703 0.23483,18.85541c-0.04632,2.50213 -1.78631,4.77261 -5.20186,4.81516c-3.41279,0.04251 -5.21295,-2.18389 -5.32016,-4.68411c-0.27495,-6.41132 -0.19466,-12.83198 -0.23972,-19.2485c-0.05647,-8.04203 5.08001,-15.79977 5.24108,-23.90187c0.13424,-6.75279 -0.92079,-13.49174 -0.80429,-20.30068c0.10561,-6.17253 0.18843,-12.31656 1.54374,-18.35787c0.25861,-1.15269 0.80927,-4.36149 2.18888,-4.62837z" fill="#7ade4c" stroke-linecap="butt"/><path d="M300.38754,108.31639c0.63609,-2.02922 2.22028,-3.59681 4.29942,-4.73416c4.92441,-2.69382 12.6254,-2.97415 17.08234,-1.25822c2.286,0.88011 5.31204,1.07273 6.53898,3.48915c1.42121,2.79903 -0.51596,7.21173 -4.0248,7.48563c-3.03503,0.23691 -3.95697,-2.2224 -6.4154,-2.19988c-1.65333,0.01514 -3.30659,0.0391 -4.95985,0.06177c-1.7089,0.02342 -6.33121,2.5535 -7.56229,1.83328z" fill="#9efd71" stroke-linecap="butt"/><path d="M321.53412,94.05194c4.14497,0.77802 12.03725,4.08077 9.25265,9.25977c-0.7726,1.43693 -2.70807,2.18464 -4.37841,2.71007c-3.15416,0.99219 -3.99598,-2.4511 -6.09244,-2.45392c-3.19676,-0.00431 -7.28169,0.09172 -10.62099,0.54115c-3.06207,0.41213 -6.49489,2.44474 -9.02748,3.81539c-0.15625,0.08457 -0.31512,0.21223 -0.47816,0.36927c-0.37096,0.7548 -0.95319,1.40734 -1.67956,1.89546c-0.83708,0.85241 -1.82537,1.48325 -3.07207,0.93914c-2.24161,0.02791 -4.17153,-1.2139 -4.95152,-2.98739c-0.34273,-0.47586 -0.4989,-0.99816 -0.36529,-1.57166c-0.00171,-0.04155 -0.00284,-0.08323 -0.00335,-0.12506c-0.01961,-1.57447 0.81159,-2.98056 2.10761,-3.86101c5.8546,-6.81332 21.15316,-10.06202 29.30899,-8.53118z" fill="#67dc31" stroke-linecap="butt"/></g><path d="M214.78369,306.61252v-267.72501c0,0 153.66918,0 187.45214,0c12.51617,0 25.72989,0 25.72989,0v267.72501z" fill="none" stroke="none" stroke-width="0" stroke-linecap="butt"/><path d="M286.35186,319.07226l15.14285,-131.8421l37.78325,-0.15789l13.57389,132z" fill="#4cc114" stroke="#000000" stroke-width="0" stroke-linecap="butt"/><path d="M295.01902,243.61117l6.47569,-56.38101l37.78325,-0.15789l5.87786,57.15951z" fill="url(#color-1)" stroke="#000000" stroke-width="0" stroke-linecap="butt"/><path d="M286.35186,319.07226l15.14285,-131.8421l37.78325,-0.15789l13.57389,132z" fill="none" stroke="#000000" stroke-width="2" stroke-linecap="butt"/><path d="M257.66108,148.87695c-0.41472,-33.29927 28.00676,-60.65181 63.48113,-61.09362c35.47438,-0.4418 64.56823,26.19443 64.98295,59.49369c0.41472,33.29927 -28.00675,60.65182 -63.48113,61.09363c-35.47437,0.4418 -64.56824,-26.19444 -64.98295,-59.4937z" fill="#4cc114" stroke="#000000" stroke-width="2" stroke-linecap="butt"/><path d="M271.29057,148.98284c-0.1615,-12.96701 10.21942,-23.60974 23.18643,-23.77125c12.96701,-0.1615 23.60974,10.21941 23.77125,23.18642c0.1615,12.96701 -10.21941,23.60975 -23.18642,23.77126c-12.96701,0.1615 -23.60975,-10.21942 -23.77126,-23.18643z" fill="#ffffff" stroke="#000000" stroke-width="2" stroke-linecap="butt"/><path d="M285.20879,149.60001c-0.10335,-8.299 6.54052,-15.11047 14.83952,-15.21382c8.299,-0.10335 15.11047,6.54053 15.21382,14.83954c0.10335,8.299 -6.54053,15.11048 -14.83954,15.21383c-8.299,0.10335 -15.11046,-6.54053 -15.21381,-14.83954z" fill="#000000" stroke="#000000" stroke-width="5" stroke-linecap="butt"/><path d="" fill="none" stroke="#000000" stroke-width="2" stroke-linecap="round"/><path d="M349.31608,171.4936c-12.96701,0.1615 -23.60974,-10.21942 -23.77125,-23.18643c-0.1615,-12.96701 10.21941,-23.60974 23.18642,-23.77125c12.96701,-0.1615 23.60975,10.21941 23.77126,23.18642c0.1615,12.96701 -10.21942,23.60975 -23.18643,23.77126z" fill="#ffffff" stroke="#000000" stroke-width="2" stroke-linecap="butt"/><path d="M369.35047,148.0055c0.10335,8.29902 -6.54052,15.11048 -14.83953,15.21383c-8.299,0.10335 -15.11047,-6.54055 -15.21382,-14.83954c-0.10335,-8.29902 6.54054,-15.11048 14.83954,-15.21383c8.299,-0.10335 15.11046,6.54054 15.21381,14.83953z" fill="#000000" stroke="#000000" stroke-width="5" stroke-linecap="butt"/><path d="M280.67142,121.96538c0,0 7.51663,-3.9027 12.73586,-4.17936c5.21923,-0.27665 12.0166,2.86732 12.0166,2.86732c0,0 -7.90104,-1.47935 -11.93169,-1.26569c-4.21218,0.22329 -12.82075,2.57774 -12.82075,2.57774z" fill="#000000" stroke="none" stroke-width="0" stroke-linecap="butt"/><path d="M346.72664,118.97503c-4.03483,-0.10925 -11.89493,1.57411 -11.89493,1.57411c0,0 6.7137,-3.31887 11.93834,-3.1774c5.22464,0.14147 12.83976,3.8483 12.83976,3.8483c0,0 -8.66663,-2.13083 -12.88317,-2.24501z" fill="#000000" stroke="none" stroke-width="0" stroke-linecap="butt"/><path d="M271.29057,148.98284c-0.1615,-12.96701 10.21942,-23.60974 23.18643,-23.77125c12.96701,-0.1615 23.60974,10.21941 23.77125,23.18642c0.00071,0.05695 -46.95713,0.6286 -46.95767,0.58483z" fill="#4cc114" stroke="#000000" stroke-width="2" stroke-linecap="butt"/><path d="M325.54483,148.30718c-0.1615,-12.96701 10.21941,-23.60974 23.18642,-23.77125c12.96701,-0.1615 23.60975,10.21941 23.77126,23.18642c0.00111,0.08883 -46.95624,0.69957 -46.95767,0.58483z" fill="#4cc114" stroke="#000000" stroke-width="2" stroke-linecap="butt"/><path d="M367.95687,162.22912l2.33077,6.47147l-7.02748,-2.16265z" fill="#000000" stroke="#000000" stroke-width="0.5" stroke-linecap="round"/><path d="M323.16667,197.41667c-6.33248,0.02609 -15.1002,-5.93946 -15.1002,-5.93946c0,0 9.52296,1.71488 14.52326,1.69428c4.99995,-0.0206 15.47752,-1.8179 15.47752,-1.8179c0,0 -8.56811,6.03699 -14.90058,6.06308z" fill="#000000" stroke="#000000" stroke-width="2" stroke-linecap="round"/><g stroke-width="0.5"><path d="M284.23792,168.02214l-7.72504,2.34639l2.41111,-6.53052z" fill="#000000" stroke="#000000" stroke-linecap="round"/><path d="M307.22323,112.38783c-0.40157,0.21026 -0.80604,0.34448 -1.21147,0.4354c-0.44097,0.11666 -0.90602,0.18273 -1.38707,0.19071c-1.09128,0.09378 -2.17336,0.14435 -3.20795,0.79206c-2.6968,1.68832 -8.88007,8.15301 -9.51999,11.71324c-3.39207,18.87181 6.02083,37.11624 3.56574,56.04423c-0.94694,7.30062 -6.62668,15.14162 -9.94126,21.67879c-1.48621,2.93117 -3.85112,6.51726 -4.04538,9.83862c-0.04145,0.70851 0.38597,4.71052 -0.58784,5.61194c-1.23564,1.14378 -2.80649,2.41014 -4.5738,2.43215c-6.16645,0.0768 -6.00582,-6.67421 -5.11869,-10.18912c2.71459,-10.75562 11.44446,-19.84812 13.82101,-30.59582c4.25519,-19.24378 -10.97657,-39.69566 -2.74907,-58.799c2.62331,-6.09105 9.0382,-13.95365 15.66425,-16.73654c1.81414,-0.76194 7.90462,-2.70135 9.22846,-0.66635c1.56093,0.80689 2.62013,2.31781 2.64184,4.06104c0.01925,1.54566 -0.78147,2.92908 -2.03696,3.81218c-0.1602,0.14358 -0.33924,0.27044 -0.54179,0.3765z" fill="#9efd71" stroke="none" stroke-linecap="butt"/><path d="M282.62101,102.27164c0.35066,5.44852 -9.29305,9.11076 -12.6882,11.95075c-4.53223,3.79113 -6.75298,9.53691 -7.84111,14.93036c-2.29487,11.37482 -0.90589,26.13526 -0.59327,36.41547c0.04103,1.34907 0.58489,3.55151 0.619,5.22961c0.03651,1.79631 -0.18226,16.82256 -4.5024,18.55623c-4.53711,1.82076 -6.58155,1.11111 -8.5867,-2.98049c-1.18178,-2.41145 2.58478,-6.18878 2.65234,-8.59998c0.06169,-2.20224 0.04723,-4.40843 -0.08229,-6.60782c-0.09844,-1.67155 -0.4381,-3.32567 -0.5513,-4.99644c-1.34552,-19.86112 -4.58674,-47.33868 15.08579,-61.41198c0.0401,-0.02869 0.05639,-0.07935 0.09709,-0.10735c2.24987,-1.54883 4.66921,-3.03669 6.77478,-4.74144c0.13788,-0.17976 0.28911,-0.35056 0.45243,-0.51126c0.94808,-0.93293 2.30318,-1.52501 3.81421,-1.54383c2.58369,-0.03218 4.75334,1.6225 5.2253,3.83389c0.06817,0.18326 0.11102,0.37743 0.12433,0.5843z" fill="#9efd71" stroke="none" stroke-linecap="butt"/><path d="M296.72955,112.65317c-4.15943,4.37147 -8.52499,9.55552 -10.09559,15.29831c-4.63792,16.95822 2.79389,33.11353 1.02877,49.95882c-0.12019,1.14696 -0.36418,2.37743 -0.59073,3.50915c-0.70553,3.52426 -4.37768,18.34159 -12.33938,11.33175c-1.26374,-1.11265 -1.43268,-3.00503 -1.45256,-4.60056c-0.00735,-0.59057 1.74487,-2.42227 2.13934,-3.3397c1.31826,-3.06582 1.915,-6.91145 1.97753,-10.16855c0.38824,-20.22559 -8.87003,-40.76226 4.27567,-59.45137c2.62343,-3.72971 5.20676,-6.87181 8.45854,-10.1676c0.69167,-0.70103 2.48694,-2.73441 3.60375,-2.47414c0.42024,-0.10346 0.86149,-0.16122 1.31695,-0.16689c2.90558,-0.03618 5.28748,2.06096 5.32015,4.68411c1.19268,1.35617 -2.81411,4.71613 -3.64244,5.58667z" fill="#67dc31" stroke="none" stroke-linecap="butt"/><path d="M255.79812,143.91659c1.15838,-5.48267 2.66378,-10.92905 4.70465,-16.1996c1.32868,-3.4313 2.97016,-6.05411 3.87228,-9.59595c2.40143,-9.42831 4.24647,-16.99734 11.06636,-24.69821c2.29661,-2.59328 5.0552,-7.14174 9.86734,-3.97012c4.26976,2.81415 1.6158,6.19688 -0.50145,8.65692c-7.86539,9.13885 -6.98295,12.16826 -10.2666,22.45996c-1.84211,5.77356 -4.96717,11.12418 -6.65074,16.93777c-1.36181,4.70251 -2.21238,11.18241 -3.00473,15.98795c-0.5635,3.41763 -1.42364,8.33152 -5.53847,9.31425c-0.36834,0.08797 -0.86648,0.20055 -1.40015,0.27891c-1.17507,0.17255 -2.52222,0.1792 -3.03428,-0.60794c-1.56094,-0.80689 -2.62014,-2.31781 -2.64184,-4.06103c-0.01439,-1.15502 0.42911,-2.21943 1.17807,-3.05219c1.18553,-3.70345 1.42498,-7.07455 2.34959,-11.45072z" fill="#67dc31" stroke="none" stroke-linecap="butt"/><path d="M284.65022,84.43286c11.07098,-6.18698 23.99011,-6.32233 36.17355,-3.1293c4.33645,1.13648 16.15238,4.21863 13.98023,10.33503c-1.30785,3.68269 -3.82038,3.39792 -6.61731,3.08682c-1.81649,-0.20205 -3.82125,-2.12681 -5.1574,-2.7295c-5.71828,-2.57937 -13.02381,-3.55818 -19.26503,-3.47308c-5.52115,0.07527 -11.10844,2.78282 -15.77069,5.1075c-1.32048,0.65841 -4.07285,4.01767 -6.02745,3.16461c-2.24161,0.02791 -4.17153,-1.2139 -4.95152,-2.98739c-0.34273,-0.47586 -0.4989,-0.99816 -0.36529,-1.57166c-0.00171,-0.04155 -0.00284,-0.08323 -0.00335,-0.12506c-0.01911,-1.53439 0.76984,-2.90888 2.00956,-3.79277c1.45808,-1.53347 3.50426,-2.49341 5.99466,-3.88515z" fill="#67dc31" stroke="none" stroke-linecap="butt"/><path d="M316.49069,85.68689c5.04413,0.22053 15.74199,2.65114 15.32776,8.75253c-0.10815,1.59293 -1.43193,3.11596 -2.8914,4.01932c-3.09214,1.91391 -7.03854,-2.25818 -9.88807,-2.88051c-4.65614,-1.01689 -9.42046,-0.4498 -14.22448,-0.31798c-3.29683,0.09045 -8.45676,1.12574 -11.87401,2.8797c0.00533,0.02266 0.0105,0.04536 0.01549,0.06809c0.07285,0.30612 0.11305,0.62338 0.1171,0.94873c0.00202,0.16198 -0.00497,0.32219 -0.02054,0.48021c-0.06593,0.79038 -0.33153,1.55216 -0.7959,2.1855c-5.02955,6.85957 -15.58364,14.31849 -15.67741,23.54988c-0.12657,12.46185 6.36893,23.17283 6.18392,35.41758c-0.13699,9.0677 -5.40855,18.45586 -8.54473,26.93185c-0.84464,2.28279 -1.57845,4.59756 -2.35974,6.89854c-0.53439,1.57385 -1.07111,3.14713 -1.58729,4.72587c-1.2623,3.86063 -3.92302,18.34024 -11.19851,16.24926c-3.83456,-1.10205 -4.16761,-4.14477 -3.13462,-6.71982c3.14376,-7.83676 5.49387,-16.06522 8.26787,-24.05629c2.67357,-7.70178 7.43073,-16.07514 8.03083,-24.23592c0.4516,-6.14137 -2.59581,-12.02073 -4.17338,-17.80691c-1.5394,-5.64621 -1.4854,-11.55678 -2.05856,-17.3506c-0.77609,-7.84514 7.96727,-18.44636 14.11602,-25.46276c-0.11853,-0.32041 -0.14863,-0.65976 -0.06488,-1.01922c-0.00171,-0.04155 -0.00284,-0.08323 -0.00335,-0.12506c-0.01533,-1.23144 0.4898,-2.3599 1.33072,-3.21441c5.86091,-9.9226 24.77873,-10.36915 35.10717,-9.91757z" fill="#4cc513" stroke="none" stroke-linecap="butt"/><path d="M268.15271,121.71886c1.57103,1.11739 4.1885,1.65574 5.03078,3.17975c0.09672,0.17501 0.17006,0.36303 0.21568,0.56641c0.3955,1.76281 -0.65632,3.95719 -0.97446,5.7228c-0.84563,4.69318 -0.98084,10.08368 -0.92224,14.76471c0.07563,6.04082 1.62726,15.41182 0.66755,21.87193c-1.09478,7.36923 -5.11666,15.22219 -5.10074,22.55635c0.01366,6.28567 0.35119,12.5703 0.23483,18.85541c-0.04632,2.50213 -1.78631,4.77261 -5.20186,4.81516c-3.41279,0.04251 -5.21295,-2.18389 -5.32016,-4.68411c-0.27495,-6.41132 -0.19466,-12.83198 -0.23972,-19.2485c-0.05647,-8.04203 5.08001,-15.79977 5.24108,-23.90187c0.13424,-6.75279 -0.92079,-13.49174 -0.80429,-20.30068c0.10561,-6.17253 0.18843,-12.31656 1.54374,-18.35787c0.25861,-1.15269 0.80927,-4.36149 2.18888,-4.62837z" fill="#7ade4c" stroke="none" stroke-linecap="butt"/><path d="M300.38754,108.31639c0.63609,-2.02922 2.22028,-3.59681 4.29942,-4.73416c4.92441,-2.69382 12.6254,-2.97415 17.08234,-1.25822c2.286,0.88011 5.31204,1.07273 6.53898,3.48915c1.42121,2.79903 -0.51596,7.21173 -4.0248,7.48563c-3.03503,0.23691 -3.95697,-2.2224 -6.4154,-2.19988c-1.65333,0.01514 -3.30659,0.0391 -4.95985,0.06177c-1.7089,0.02342 -6.33121,2.5535 -7.56229,1.83328z" fill="#9efd71" stroke="none" stroke-linecap="butt"/><path d="M321.53412,94.05194c4.14497,0.77802 12.03725,4.08077 9.25265,9.25977c-0.7726,1.43693 -2.70807,2.18464 -4.37841,2.71007c-3.15416,0.99219 -3.99598,-2.4511 -6.09244,-2.45392c-3.19676,-0.00431 -7.28169,0.09172 -10.62099,0.54115c-3.06207,0.41213 -6.49489,2.44474 -9.02748,3.81539c-0.15625,0.08457 -0.31512,0.21223 -0.47816,0.36927c-0.37096,0.7548 -0.95319,1.40734 -1.67956,1.89546c-0.83708,0.85241 -1.82537,1.48325 -3.07207,0.93914c-2.24161,0.02791 -4.17153,-1.2139 -4.95152,-2.98739c-0.34273,-0.47586 -0.4989,-0.99816 -0.36529,-1.57166c-0.00171,-0.04155 -0.00284,-0.08323 -0.00335,-0.12506c-0.01961,-1.57447 0.81159,-2.98056 2.10761,-3.86101c5.8546,-6.81332 21.15316,-10.06202 29.30899,-8.53118z" fill="#67dc31" stroke="none" stroke-linecap="butt"/></g><g stroke-width="0.5"><path d="M372.53908,173.09546l2.17941,6.91742l-7.64484,-2.30868z" fill="#000000" stroke="#000000" stroke-linecap="round"/><path d="M345.53252,118.44856c-1.22458,-0.91148 -1.97633,-2.36939 -1.90199,-4.0218c0.08386,-1.86364 1.19738,-3.50573 2.78778,-4.40832c1.39696,-2.20903 7.42102,-0.29318 9.20881,0.47439c6.5298,2.8035 12.66727,11.04141 15.07466,17.48366c7.55024,20.2048 -8.41725,42.45528 -4.84609,62.91252c1.99451,11.42542 10.40417,20.91815 12.73659,32.34333c0.76224,3.73373 0.68229,10.94476 -5.48416,11.02155c-1.76731,0.02201 -3.29374,-1.29094 -4.48915,-2.48152c-0.94211,-0.9383 -0.37187,-5.22648 -0.38806,-5.98263c-0.07597,-3.54471 -2.3141,-7.31642 -3.6965,-10.41084c-3.08304,-6.90122 -8.48584,-15.13499 -9.17298,-22.91317c-1.78152,-20.16611 8.28584,-39.90745 5.56493,-59.98939c-0.51331,-3.78852 -6.4689,-10.53836 -9.10673,-12.27329c-1.01198,-0.66558 -2.09272,-0.69174 -3.18113,-0.76386c-0.48098,0.00388 -0.9439,-0.05477 -1.3809,-0.16808c-0.40238,-0.08673 -0.80226,-0.21975 -1.19651,-0.43413c-0.19886,-0.10813 -0.37344,-0.23911 -0.5286,-0.38842z" fill="#9efd71" stroke="none" stroke-linecap="butt"/><path d="M371.18007,106.76372c0.551,-2.37559 2.78057,-4.19993 5.36427,-4.23212c1.51103,-0.01882 2.84562,0.57905 3.76088,1.55169c0.15765,0.16754 0.30287,0.34621 0.43441,0.53476c2.04575,1.76769 4.41312,3.29554 6.60879,4.89289c0.03971,0.02889 0.0542,0.08261 0.09332,0.11224c19.17966,14.53404 14.95759,43.98431 12.90356,65.24564c-0.17279,1.78855 -0.57157,3.56515 -0.72963,5.35417c-0.20798,2.35396 -0.30109,4.71219 -0.31786,7.06427c-0.01836,2.57522 3.61524,6.51524 2.34698,9.12293c-2.15188,4.42456 -4.22253,5.23567 -8.69675,3.40664c-4.26026,-1.74156 -3.94355,-17.79529 -3.84299,-19.71605c0.09394,-1.79435 0.71655,-4.16221 0.80568,-5.60511c0.67917,-10.99507 2.59489,-26.80614 0.70443,-38.90391c-0.89636,-5.73623 -2.91331,-11.81985 -7.31243,-15.75487c-3.29543,-2.94776 -12.81287,-6.61334 -12.26785,-12.4455c0.02069,-0.22143 0.07048,-0.43006 0.14521,-0.62767z" fill="#9efd71" stroke="none" stroke-linecap="butt"/><path d="M353.10511,112.97326c0.12618,-2.80435 2.5839,-5.10706 5.48947,-5.14325c0.45545,-0.00568 0.89484,0.04468 1.31158,0.14444c1.12657,-0.30693 2.85017,1.82001 3.51716,2.55141c3.13576,3.43859 5.60823,6.73019 8.09988,10.64873c12.4854,19.63536 2.49102,41.82256 2.15852,63.42875c-0.05354,3.47944 0.4064,7.57408 1.61596,10.81674c0.36194,0.97034 2.04967,2.88282 2.02126,3.51421c-0.07676,1.70575 -0.31322,3.73257 -1.61717,4.95429c-8.2151,7.69694 -11.36073,-8.04455 -11.94097,-11.79294c-0.18632,-1.20368 -0.38657,-2.51247 -0.46592,-3.73519c-1.16549,-17.958 6.84546,-35.41553 2.80992,-53.42022c-1.3666,-6.09716 -5.54933,-11.52518 -9.5548,-16.09003c-0.79765,-0.90906 -4.68648,-4.39679 -3.44492,-5.87693z" fill="#67dc31" stroke="none" stroke-linecap="butt"/><path d="M398.32778,163.386c0.71962,0.8707 1.12537,1.99688 1.0698,3.23167c-0.08386,1.86364 -1.19739,3.50574 -2.78778,4.40832c-0.54035,0.85446 -1.88785,0.88203 -3.0573,0.72792c-0.5311,-0.07 -1.02547,-0.17747 -1.39083,-0.262c-4.08162,-0.94428 -4.767,-6.17388 -5.20893,-9.81195c-0.62141,-5.11554 -1.2414,-12.01902 -2.4362,-17.00977c-1.4771,-6.16993 -4.41283,-11.80791 -6.04998,-17.93095c-2.91828,-10.91471 -1.92747,-14.17514 -9.47062,-23.73967c-2.0305,-2.57463 -4.56506,-6.12155 -0.1931,-9.23921c4.92733,-3.51368 7.52501,1.27644 9.73021,3.98886c6.54843,8.05463 8.1245,16.09655 10.19094,26.11122c0.77627,3.76211 2.32501,6.52296 3.53196,10.15595c1.85393,5.58032 3.16585,11.36239 4.12933,17.19217c0.76904,4.65323 0.88844,8.24993 1.94248,12.17748z" fill="#67dc31" stroke="none" stroke-linecap="butt"/><path d="M375.49942,92.37623c1.20878,0.91272 1.94907,2.36137 1.87527,4.00177c-0.00202,0.04471 -0.00461,0.08929 -0.00782,0.13373c0.11323,0.60948 -0.06164,1.17172 -0.42148,1.68912c-0.84354,1.91553 -2.81859,3.29245 -5.0602,3.32037c-1.98588,0.96208 -4.61974,-2.55723 -5.91733,-3.2269c-4.58145,-2.36439 -10.07471,-5.11413 -15.59563,-5.05232c-6.24097,0.06985 -13.58463,1.30418 -19.39738,4.20824c-1.35821,0.67856 -3.43248,2.78731 -5.25697,3.05004c-2.80926,0.40456 -5.33305,0.77364 -6.51021,-3.12854c-1.95511,-6.48096 9.97593,-10.07946 14.35481,-11.40581c12.30267,-3.72646 25.22271,-3.91468 36.07809,2.41246c2.44191,1.42328 4.45479,2.39649 5.85884,3.99782z" fill="#67dc31" stroke="none" stroke-linecap="butt"/><path d="M372.51054,100.23395c0.81083,0.89159 1.27597,2.08462 1.21673,3.40113c-0.00202,0.04471 -0.00461,0.08929 -0.00782,0.13373c0.07097,0.38202 0.02876,0.74548 -0.10124,1.09097c5.90141,7.34039 14.27078,18.44522 13.21473,26.84975c-0.77993,6.20693 -0.93658,12.52249 -2.67791,18.59655c-1.7845,6.22465 -5.04282,12.58675 -4.80993,19.13874c0.30948,8.70642 4.77031,17.5329 7.17053,25.69534c2.49039,8.46902 4.54827,17.20268 7.4141,25.49724c0.94166,2.72549 0.50001,5.98597 -3.37553,7.2626c-7.35326,2.42221 -9.49906,-12.98439 -10.62431,-17.07793c-0.46015,-1.67399 -0.94101,-3.34162 -1.41955,-5.00991c-0.69962,-2.43904 -1.35125,-4.89406 -2.11491,-7.31203c-2.83547,-8.97797 -7.77474,-18.87577 -7.58858,-28.56338c0.25137,-13.08187 7.13151,-24.69663 7.44907,-38.01202c0.23523,-9.86368 -10.05767,-17.5635 -14.84496,-24.76512c-0.442,-0.6649 -0.68058,-1.47222 -0.71837,-2.31526c-0.00996,-0.16849 -0.01123,-0.33953 -0.00342,-0.5127c0.01566,-0.34784 0.06717,-0.68795 0.15097,-1.01698c0.00581,-0.02441 0.01179,-0.0488 0.01793,-0.07316c-3.35623,-1.78651 -8.48155,-2.76003 -11.77663,-2.77177c-4.80147,-0.0171 -9.54767,-0.50042 -14.24214,0.70635c-2.87297,0.73854 -6.96984,5.29916 -9.99512,3.33332c-1.42793,-0.92787 -2.69799,-2.5215 -2.74942,-4.22117c-0.19695,-6.51022 10.59231,-9.38357 15.64653,-9.74922c10.34913,-0.74873 29.25941,-0.75888 34.76927,9.69493z" fill="#4cc513" stroke="none" stroke-linecap="butt"/><path d="M372.25137,105.20559c1.3707,0.24969 17.43827,27.47211 17.6559,28.69741c1.14059,6.42177 1.00445,12.98609 0.8901,19.58028c-0.12614,7.27407 -1.42185,14.50356 -1.52823,21.71717c-0.12765,8.65501 4.73461,16.81378 4.39146,25.41019c-0.27379,6.85885 -0.42233,13.7189 -0.92592,20.5781c-0.19638,2.67489 -2.07667,5.10074 -5.48947,5.14325c-3.41556,0.04254 -5.07538,-2.33921 -5.03253,-5.01219c0.1076,-6.71424 0.6693,-13.43967 0.907,-20.15785c0.27734,-7.83884 -3.46642,-16.12809 -4.29902,-23.97578c-0.72989,-6.87955 1.15646,-16.93481 1.44744,-23.39293c0.22547,-5.00439 0.28237,-10.76202 -0.39638,-15.75608c-0.25534,-1.87879 -1.22944,-4.19697 -0.77092,-6.09117c0.0529,-0.21854 -15.45656,-20.89548 -15.35355,-21.08503c0.89698,-1.65048 -1.37119,-5.83659 1.09684,-7.47786c2.46803,-1.64128 7.40729,1.8225 7.40729,1.8225z" fill="#7ade4c" stroke="none" stroke-linecap="butt"/><path d="M347.91764,119.43642c-1.2573,0.80146 -5.79149,-1.78347 -7.5003,-1.76447c-1.65318,0.01837 -3.30632,0.03536 -4.95985,0.06177c-2.45871,0.03929 -3.46871,2.69143 -6.49665,2.51642c-3.50064,-0.20232 -5.28138,-4.8685 -3.75978,-7.89659c1.31363,-2.61418 4.34787,-2.898 6.66625,-3.89752c4.5201,-1.94873 12.2145,-1.84754 17.04507,0.90461c2.03952,1.16198 3.56853,2.79654 4.13258,4.94888z" fill="#9efd71" stroke="none" stroke-linecap="butt"/><path d="M361.41536,107.97174c1.26521,0.90759 2.04667,2.38894 1.97093,4.07217c-0.00202,0.04471 -0.00461,0.08929 -0.00782,0.13373c0.11323,0.60948 -0.06163,1.17171 -0.42147,1.68912c-0.84354,1.91553 -2.81859,3.29245 -5.0602,3.32037c-1.26664,0.61364 -2.23288,-0.03511 -3.03995,-0.92455c-0.7093,-0.50295 -1.26852,-1.18534 -1.61275,-1.98251c-0.15753,-0.16365 -0.3119,-0.29599 -0.46522,-0.38234c-2.48485,-1.39963 -5.84674,-3.48356 -8.89548,-3.84512c-3.32475,-0.39431 -7.40808,-0.39168 -10.60641,-0.30471c-2.09747,0.05703 -3.06239,3.75876 -6.18259,2.7796c-1.65235,-0.51853 -3.56204,-1.26778 -4.28376,-2.78359c-2.60123,-5.46333 5.41225,-9.19651 9.5868,-10.1348c8.21403,-1.84622 23.40357,1.23168 29.01792,8.3626z" fill="#67dc31" stroke="none" stroke-linecap="butt"/></g><path d="M332.1622,88.62748c2.54623,-5.51822 -1.43962,-9.10903 2.93618,-15.50091c4.3758,-6.3919 5.70461,-10.59353 12.59844,-15.12751c6.89383,-4.53399 6.92923,-8.22901 19.38386,-5.90687c12.45463,2.32215 24.53701,10.67774 28.76659,14.88442c4.22957,4.20668 -0.05782,12.77955 1.42163,15.14031c1.47944,2.36076 1.77303,0.99774 6.27932,-2.85178c4.50629,-3.8495 10.21438,-11.23795 10.21438,-11.23795c0,0 -2.29688,14.3433 -6.811,18.81947c-4.51413,4.47616 -9.13074,7.58463 -14.82045,2.63001c-5.68971,-4.95462 3.57531,-10.78409 -3.12616,-18.25794c-6.70148,-7.47382 -15.60314,-10.40101 -23.07298,-10.96073c-7.46984,-0.55973 -12.56855,1.6481 -16.97847,7.95967c-4.40994,6.31159 -3.2961,14.29117 -4.75512,20.36253c-1.45902,6.07135 -7.51418,14.09913 -7.51418,14.09913c0,0 -2.68875,2.14212 -5.4525,1.20273c-2.76827,-0.94094 -3.14728,-7.19333 -3.14728,-7.19333c0,0 1.5315,-2.54306 4.07773,-8.06127z" fill="#026b00" stroke="#000000" stroke-width="2" stroke-linecap="round"/><g stroke-linecap="butt"><g stroke="#000000" stroke-width="2"><path d="M269.9366,127.83182c-0.75312,-3.54255 1.10363,-8.79136 4.7161,-9.55935c3.61247,-0.76799 7.61266,3.23568 8.3658,6.77823c0.75312,3.54255 -1.66519,5.73506 -5.27765,6.50304c-3.61247,0.76799 -7.05112,-0.17936 -7.80424,-3.72191z" fill="#d995cc"/><path d="M283.25213,123.99813c-3.50922,-0.89563 -7.39068,-4.88714 -6.47735,-8.46563c0.91332,-3.57849 6.27555,-5.38886 9.78477,-4.49324c3.50922,0.89563 4.40222,4.03536 3.4889,7.61383c-0.91332,3.57849 -3.28709,6.24064 -6.79631,5.34501z" fill="#d995cc"/><path d="M282.23875,108.87464c-1.21555,3.41164 -5.54811,6.90831 -9.02706,5.66875c-3.47897,-1.23955 -4.78695,-6.74593 -3.57139,-10.15757c1.21555,-3.41164 4.42427,-4.01117 7.90324,-2.77163c3.47897,1.23955 5.91079,3.84878 4.69522,7.26042z" fill="#d995cc"/><path d="M268.8896,105.15974c2.51902,2.60218 3.73226,8.03594 1.0787,10.60467c-2.65356,2.56873 -8.16903,1.29971 -10.68805,-1.30248c-2.51902,-2.60218 -1.63373,-5.74409 1.01982,-8.31282c2.65356,-2.56873 6.07051,-3.59156 8.58952,-0.98938z" fill="#d995cc"/><path d="M260.30432,117.15301c3.00993,-2.01422 8.57298,-2.23833 10.62695,0.83102c2.05398,3.06935 -0.17891,8.26985 -3.18884,10.28407c-3.00994,2.01423 -5.94344,0.58248 -7.99742,-2.48687c-2.05398,-3.06935 -2.45064,-6.61399 0.55929,-8.62822z" fill="#d995cc"/><path d="M265.21366,117.5032c-0.04787,-3.84392 3.02943,-6.99884 6.87335,-7.04671c3.84392,-0.04787 6.99883,3.02944 7.0467,6.87335c0.04787,3.84392 -3.02943,6.99884 -6.87334,7.0467c-3.84392,0.04787 -6.99884,-3.02943 -7.04671,-6.87335z" fill="#d8a51e"/></g><g stroke="none" stroke-width="0"><path d="M269.9366,127.83182c-0.75312,-3.54255 1.10363,-8.79136 4.7161,-9.55935c3.61247,-0.76799 7.61266,3.23569 8.3658,6.77823c0.75312,3.54255 -1.66519,5.73506 -5.27765,6.50304c-3.61247,0.76799 -7.05112,-0.17936 -7.80424,-3.72191z" fill="#d995cc"/><path d="M283.25213,123.99813c-3.50922,-0.89563 -7.39068,-4.88713 -6.47735,-8.46563c0.91332,-3.57849 6.27555,-5.38886 9.78477,-4.49324c3.50922,0.89563 4.40222,4.03536 3.4889,7.61384c-0.91332,3.57849 -3.28709,6.24064 -6.79631,5.345z" fill="#d995cc"/><path d="M282.23875,108.87465c-1.21555,3.41164 -5.54812,6.90831 -9.02707,5.66876c-3.47897,-1.23955 -4.78695,-6.74593 -3.5714,-10.15756c1.21555,-3.41164 4.42426,-4.01118 7.90323,-2.77163c3.47897,1.23955 5.9108,3.84879 4.69523,7.26043z" fill="#d995cc"/><path d="M268.8896,105.15974c2.51901,2.60219 3.73224,8.03595 1.07869,10.60468c-2.65355,2.56873 -8.16903,1.29971 -10.68804,-1.30248c-2.51901,-2.60219 -1.63373,-5.74409 1.01981,-8.31281c2.65355,-2.56873 6.07052,-3.59157 8.58953,-0.98939z" fill="#d995cc"/><path d="M260.30432,117.15301c3.00993,-2.01422 8.57298,-2.23832 10.62695,0.83102c2.05398,3.06934 -0.17891,8.26985 -3.18884,10.28407c-3.00994,2.01423 -5.94344,0.58248 -7.99742,-2.48687c-2.05398,-3.06934 -2.45064,-6.61399 0.55929,-8.62822z" fill="#d995cc"/><path d="M265.21366,117.5032c-0.04787,-3.84392 3.02943,-6.99884 6.87334,-7.0467c3.84392,-0.04787 6.99883,3.02944 7.0467,6.87335c0.04787,3.84392 -3.02943,6.99884 -6.87334,7.0467c-3.84392,0.04787 -6.99883,-3.02944 -7.0467,-6.87335z" fill="#d8a51e"/></g></g><g stroke-linecap="butt"><g stroke="#000000" stroke-width="2"><path d="M389.835,178.30503c-1.77774,-1.98304 -2.51626,-6.00999 -0.49408,-7.82282c2.02218,-1.81283 6.0393,-0.72506 7.81704,1.25798c1.77774,1.98304 1.03876,4.26682 -0.98342,6.07966c-2.02218,1.81283 -4.56181,2.46822 -6.33956,0.48517z" fill="#d995cc"/><path d="M396.92143,170.98348c-2.56569,0.71422 -6.50262,-0.4093 -7.23093,-3.02561c-0.72831,-2.61632 2.0278,-5.73471 4.59349,-6.44892c2.56569,-0.71422 4.28507,0.96074 5.01338,3.57705c0.72831,2.61632 0.18974,5.18327 -2.37595,5.89748z" fill="#d995cc"/><path d="M390.73601,161.71122c0.47447,2.62064 -1.00743,6.43714 -3.67979,6.92097c-2.67235,0.48384 -5.52318,-2.54819 -5.99765,-5.16883c-0.47447,-2.62064 1.35196,-4.17817 4.02431,-4.66202c2.67235,-0.48384 5.17867,0.28924 5.65314,2.90986z" fill="#d995cc"/><path d="M380.86336,164.23178c2.55934,0.73663 5.32315,3.75708 4.57197,6.36693c-0.75118,2.60985 -4.73291,3.8208 -7.29224,3.08417c-2.55934,-0.73663 -3.1456,-3.06431 -2.39443,-5.67416c0.75118,-2.60985 2.55537,-4.51357 5.11471,-3.77694z" fill="#d995cc"/><path d="M379.78173,175.02374c1.18153,-2.3868 4.6467,-4.56727 7.0806,-3.36242c2.43391,1.20486 2.91489,5.33875 1.73336,7.72555c-1.18153,2.3868 -3.57646,2.54831 -6.01037,1.34345c-2.43391,-1.20486 -3.98513,-3.31979 -2.8036,-5.70658z" fill="#d995cc"/><path d="M383.04042,173.44891c-1.43843,-2.43352 -0.63174,-5.57236 1.80178,-7.01078c2.43353,-1.43843 5.57235,-0.63174 7.01077,1.80179c1.43843,2.43353 0.63174,5.57236 -1.80178,7.01078c-2.43352,1.43843 -5.57236,0.63174 -7.01078,-1.80179z" fill="#d8a51e"/></g><g stroke="none" stroke-width="0"><path d="M389.835,178.30503c-1.77774,-1.98304 -2.51626,-6.00999 -0.49408,-7.82283c2.02218,-1.81283 6.0393,-0.72505 7.81704,1.25799c1.77774,1.98304 1.03876,4.26682 -0.98342,6.07966c-2.02218,1.81283 -4.56181,2.46822 -6.33956,0.48517z" fill="#ffc37a"/><path d="M396.92143,170.98348c-2.56569,0.71422 -6.50263,-0.40928 -7.23093,-3.02561c-0.72831,-2.61633 2.0278,-5.73471 4.59349,-6.44892c2.56569,-0.71422 4.28507,0.96074 5.01338,3.57706c0.72831,2.61633 0.18974,5.18326 -2.37595,5.89747z" fill="#ffc37a"/><path d="M390.73602,161.71123c0.47447,2.62064 -1.00744,6.43713 -3.67979,6.92097c-2.67235,0.48384 -5.52318,-2.54819 -5.99765,-5.16883c-0.47447,-2.62064 1.35195,-4.17817 4.0243,-4.66202c2.67235,-0.48384 5.17868,0.28923 5.65315,2.90987z" fill="#ffc37a"/><path d="M380.86335,164.23178c2.55934,0.73664 5.32315,3.75709 4.57197,6.36693c-0.75118,2.60985 -4.7329,3.82081 -7.29224,3.08417c-2.55934,-0.73664 -3.1456,-3.06431 -2.39443,-5.67416c0.75118,-2.60985 2.55536,-4.51358 5.1147,-3.77694z" fill="#ffc37a"/><path d="M379.78173,175.02374c1.18153,-2.3868 4.64671,-4.56726 7.0806,-3.36242c2.4339,1.20485 2.91489,5.33875 1.73336,7.72555c-1.18153,2.3868 -3.57647,2.5483 -6.01037,1.34345c-2.4339,-1.20485 -3.98513,-3.31979 -2.8036,-5.70658z" fill="#ffc37a"/><path d="M383.04042,173.44891c-1.43843,-2.43352 -0.63175,-5.57236 1.80178,-7.01078c2.43353,-1.43843 5.57235,-0.63174 7.01077,1.80179c1.43843,2.43353 0.63174,5.57236 -1.80178,7.01078c-2.43352,1.43843 -5.57235,0.63174 -7.01077,-1.80179z" fill="#d8a51e"/></g></g><g stroke-linecap="butt"><g stroke="#000000" stroke-width="2"><path d="M253.09534,177.51517c-1.74674,-2.38256 -2.02205,-4.97915 0.31442,-6.69209c2.33645,-1.71294 6.8563,-1.97143 8.60304,0.41114c1.74674,2.38256 0.05893,6.50396 -2.27753,8.2169c-2.33645,1.71294 -4.89317,0.44662 -6.63992,-1.93594z" fill="#d995cc"/><path d="M252.62226,163.26053c1.36111,-2.62205 3.56647,-4.02007 6.13776,-2.68531c2.5713,1.33476 4.80698,5.27146 3.44589,7.89352c-1.36112,2.62204 -5.80361,2.93652 -8.3749,1.60177c-2.57129,-1.33476 -2.56984,-4.18791 -1.20874,-6.80996z" fill="#d995cc"/><path d="M269.16099,159.75313c2.73642,1.1134 4.33195,3.18039 3.24009,5.86386c-1.09187,2.68346 -4.80552,5.27281 -7.54195,4.15941c-2.73642,-1.1134 -3.45942,-5.50795 -2.36755,-8.19142c1.09187,-2.68346 3.93297,-2.94523 6.6694,-1.83183z" fill="#d995cc"/><path d="M277.03585,171.64454c0.21528,2.94642 -0.92999,5.29299 -3.8194,5.50412c-2.8894,0.21112 -6.85686,-1.96949 -7.07214,-4.91592c-0.21528,-2.94642 3.40314,-5.54289 6.29253,-5.75401c2.8894,-0.21112 4.38372,2.21941 4.599,5.16582z" fill="#d995cc"/><path d="M266.90963,183.65614c-2.86071,0.73761 -5.37399,0.02946 -6.09734,-2.77588c-0.72334,-2.80533 0.71429,-7.09827 3.57499,-7.83588c2.86071,-0.73761 6.06123,2.3594 6.78456,5.16474c0.72334,2.80533 -1.40152,4.7094 -4.26223,5.44702z" fill="#d995cc"/><path d="M260.18902,176.15131c-2.26844,-2.0761 -2.42435,-5.59807 -0.34825,-7.86653c2.0761,-2.26844 5.59807,-2.42437 7.86652,-0.34827c2.26844,2.0761 2.42436,5.59807 0.34826,7.86652c-2.0761,2.26844 -5.59807,2.42437 -7.86652,0.34827z" fill="#d8a51e"/></g><g stroke="none" stroke-width="0"><path d="M253.09534,177.51517c-1.74674,-2.38256 -2.02205,-4.97915 0.31442,-6.69209c2.33645,-1.71294 6.8563,-1.97144 8.60304,0.41113c1.74674,2.38256 0.05892,6.50397 -2.27754,8.21691c-2.33645,1.71294 -4.89317,0.44662 -6.63992,-1.93594z" fill="#807bff"/><path d="M252.62226,163.26053c1.36111,-2.62205 3.56647,-4.02007 6.13777,-2.68532c2.5713,1.33476 4.80698,5.27145 3.44589,7.89352c-1.36112,2.62204 -5.80361,2.93652 -8.3749,1.60177c-2.57129,-1.33476 -2.56985,-4.18791 -1.20875,-6.80995z" fill="#807bff"/><path d="M269.16099,159.75313c2.73642,1.1134 4.33195,3.18039 3.24009,5.86386c-1.09187,2.68346 -4.80552,5.27281 -7.54195,4.15941c-2.73642,-1.1134 -3.45942,-5.50795 -2.36755,-8.19142c1.09187,-2.68346 3.93298,-2.94524 6.66941,-1.83184z" fill="#807bff"/><path d="M277.03585,171.64454c0.21527,2.94642 -0.92999,5.29299 -3.8194,5.50412c-2.8894,0.21112 -6.85687,-1.96948 -7.07214,-4.91591c-0.21527,-2.94642 3.40314,-5.5429 6.29253,-5.75402c2.8894,-0.21112 4.38373,2.21942 4.599,5.16583z" fill="#807bff"/><path d="M266.90963,183.65614c-2.86071,0.73761 -5.37399,0.02946 -6.09734,-2.77588c-0.72334,-2.80533 0.71429,-7.09827 3.57499,-7.83588c2.86071,-0.73761 6.06123,2.3594 6.78456,5.16474c0.72334,2.80533 -1.40152,4.7094 -4.26223,5.44702z" fill="#807bff"/><path d="M260.18902,176.15131c-2.26844,-2.0761 -2.42435,-5.59807 -0.34825,-7.86653c2.0761,-2.26844 5.59807,-2.42437 7.86652,-0.34827c2.26844,2.0761 2.42435,5.59807 0.34825,7.86653c-2.0761,2.26844 -5.59807,2.42437 -7.86652,0.34827z" fill="#d8a51e"/></g></g></g></g></svg>