<svg version="1.1" xmlns="http://www.w3.org/2000/svg" xmlns:xlink="http://www.w3.org/1999/xlink" width="282.47334" height="267.72501" viewBox="0,0,282.47334,267.72501"><g transform="translate(-190.1791,-31.19978)"><g stroke-miterlimit="10"><path d="M190.1791,298.92479v-267.72501h254.18333v267.72501z" fill="none" stroke="none" stroke-width="0" stroke-linecap="butt"/><path d="" fill="none" stroke="#000000" stroke-width="2" stroke-linecap="round"/><g><g stroke="#000000"><path d="M315.41562,209.05599l49.94333,9.72094l-34.79797,42.32566z" fill="#ff6300" stroke-width="5" stroke-linecap="round"/><path d="M282.60034,165.32716l29.12729,41.71851l-54.44036,6.21354z" fill="#ff6300" stroke-width="5" stroke-linecap="round"/><path d="M287.30651,113.30849l-7.99464,50.24857l-43.49931,-33.31921z" fill="#ff6300" stroke-width="5" stroke-linecap="round"/><path d="M331.8202,82.85446l-42.61392,27.80083l-4.49831,-54.60884z" fill="#ff6300" stroke-width="5" stroke-linecap="round"/><path d="M389.77375,89.37027l-49.79075,-10.47443l35.4335,-41.79506z" fill="#ff6300" stroke-width="5" stroke-linecap="round"/><path d="M425.38981,136.94746l-27.80082,-42.61392l54.60884,-4.49831z" fill="#ff6300" stroke-width="5" stroke-linecap="round"/><path d="M415.15328,188.20039l10.47444,-49.79074l41.79507,35.43351z" fill="#ff6300" stroke-width="5" stroke-linecap="round"/><path d="M369.97174,217.88411l42.61392,-27.80083l4.49831,54.60884z" fill="#ff6300" stroke-width="5" stroke-linecap="round"/><path d="M278.56152,133.95835c7.59603,-38.34166 46.86616,-62.86368 87.71229,-54.7715c40.84615,8.09219 67.80068,45.73428 60.20466,84.07593c-7.59603,38.34166 -46.86616,62.8637 -87.71229,54.77151c-40.84613,-8.0922 -67.80067,-45.73429 -60.20465,-84.07594z" fill="#ffe63c" stroke-width="5" stroke-linecap="butt"/><path d="M315.41563,209.05599l49.94332,9.72094l-34.79796,42.32568z" fill="#ff6300" stroke-width="0" stroke-linecap="round"/><path d="M282.60035,165.32717l29.12729,41.71851l-54.44036,6.21354z" fill="#ff6300" stroke-width="0" stroke-linecap="round"/><path d="M287.30652,113.30848l-7.99465,50.24857l-43.49931,-33.31921z" fill="#ff6300" stroke-width="0" stroke-linecap="round"/><path d="M331.8202,82.85446l-42.61392,27.80083l-4.49831,-54.60884z" fill="#ff6300" stroke-width="0" stroke-linecap="round"/><path d="M389.77375,89.37027l-49.79074,-10.47444l35.4335,-41.79506z" fill="#ff6300" stroke-width="0" stroke-linecap="round"/><path d="M425.38981,136.94746l-27.80083,-42.61392l54.60884,-4.49831z" fill="#ff6300" stroke-width="0" stroke-linecap="round"/><path d="M415.15327,188.20038l10.47444,-49.79074l41.79507,35.43351z" fill="#ff6300" stroke-width="0" stroke-linecap="round"/><path d="M369.97174,217.8841l42.61392,-27.80083l4.49831,54.60884z" fill="#ff6300" stroke-width="0" stroke-linecap="round"/><path d="M278.56152,133.95835c7.59603,-38.34166 46.86616,-62.86368 87.71229,-54.7715c40.84615,8.09219 67.80068,45.73428 60.20466,84.07593c-7.59603,38.34166 -46.86616,62.8637 -87.71229,54.77151c-40.84613,-8.0922 -67.80067,-45.73429 -60.20465,-84.07594z" fill="#ffe63c" stroke-width="0" stroke-linecap="butt"/></g><path d="M315.94078,130.24511c1.18849,-5.99899 7.01508,-9.89867 13.01407,-8.71018c5.99899,1.18849 9.89867,7.01508 8.71018,13.01407c-1.18849,5.99899 -6.84613,5.96592 -12.84512,4.77744c-5.99899,-1.18849 -10.06762,-3.08233 -8.87914,-9.08132z" fill="#000000" stroke="none" stroke-width="NaN" stroke-linecap="butt"/><path d="M381.12236,151.09094c-5.99899,-1.18849 -11.12559,-3.90213 -9.93711,-9.90111c1.18849,-5.99899 7.01508,-9.89867 13.01407,-8.71018c5.99899,1.18849 9.89867,7.01508 8.71018,13.01407c-1.18849,5.99899 -5.78817,6.78571 -11.78716,5.59723z" fill="#000000" stroke="none" stroke-width="NaN" stroke-linecap="butt"/><path d="M364.04692,206.20236c0,0 -10.94097,8.66325 -22.61466,6.35053c-11.67371,-2.31273 -19.65955,-14.72565 -19.65955,-14.72565c0,0 9.38828,5.33399 21.06199,7.64672c11.67371,2.31273 21.21222,0.72841 21.21222,0.72841z" fill="#000000" stroke="#000000" stroke-width="1.5" stroke-linecap="butt"/></g></g></g></svg>