<svg version="1.1" xmlns="http://www.w3.org/2000/svg" xmlns:xlink="http://www.w3.org/1999/xlink" width="213.18203" height="280.18476" viewBox="0,0,213.18203,280.18476"><defs><radialGradient cx="286.77513" cy="200.30568" r="23.48066" gradientUnits="userSpaceOnUse" id="color-1"><stop offset="0" stop-color="#ffffff"/><stop offset="1" stop-color="#ff8484"/></radialGradient><radialGradient cx="350.33631" cy="186.18542" r="23.48066" gradientUnits="userSpaceOnUse" id="color-2"><stop offset="0" stop-color="#ffffff"/><stop offset="1" stop-color="#ff8484"/></radialGradient></defs><g transform="translate(-214.78369,-38.88751)"><g stroke-miterlimit="10"><path d="M214.78369,306.61252v-267.72501c0,0 153.66918,0 187.45214,0c12.51617,0 25.72989,0 25.72989,0v267.72501z" fill="none" stroke="none" stroke-width="0" stroke-linecap="butt"/><g stroke-width="0" stroke-linecap="butt"><g stroke="#000000"><path d="M319.53966,224.70741c-9.02632,0.61016 -9.34668,-4.12902 -9.34668,-4.12902l-0.165,-2.69987c-0.25027,-0.78656 -0.50055,-1.57312 -0.75082,-2.35968c-2.34794,-8.41641 1.72104,-16.98247 0.15172,-25.32963c-0.92823,-4.9372 -3.23645,-10.74805 -5.31194,-15.32363c-2.25698,-4.97568 -6.73604,-9.0586 -7.51568,-14.29189c-0.83126,-5.57983 6.14595,-10.39823 5.2988,-15.60816c0,0 -0.32036,-4.73918 8.70596,-5.34935c9.02632,-0.61016 9.34668,4.12902 9.34668,4.12902c0.02648,1.58783 0.59128,3.1723 0.07944,4.76348c-0.93394,2.90338 -4.55166,5.55291 -5.67986,8.44627c-1.10927,2.84483 1.98401,6.24945 3.53112,8.64534c3.24711,5.02849 5.26073,10.31997 7.13165,15.60085c1.26379,3.56723 2.74991,7.01558 2.63534,10.73061c-0.22146,7.18107 -2.56125,14.18971 -0.5202,21.26395c0.29191,0.95863 0.58383,1.91724 0.87573,2.87586l0.23969,3.28648c0,0 0.32036,4.73918 -8.70597,5.34935z" fill="#39940f"/><path d="M334.62374,224.68362c-8.49971,-1.19356 -5.44487,-5.8204 -5.44487,-5.8204l0.62783,0.05521c-0.05838,-0.91929 -0.11677,-1.83856 -0.17516,-2.75785c-2.31274,-8.72172 -7.70089,-17.09632 -8.75676,-25.97975c-0.71581,-6.02245 -0.197,-10.08122 -1.65289,-15.77191c-1.67936,-6.56414 -5.18578,-12.91815 -6.45854,-19.55754c-0.86676,-4.52144 -0.07757,-9.13647 -1.49974,-13.60334c0,0 -1.43746,-4.62691 7.47942,-5.82018c8.91688,-1.19327 10.35436,3.43364 10.35436,3.43364c1.43193,4.70255 0.74248,9.50376 1.65556,14.24727c1.24145,6.44936 4.70593,12.62165 6.32909,19.00114c1.72348,6.77373 0.95802,9.10572 1.79466,16.40216c1.01569,8.85794 6.50343,17.24542 8.75317,25.95756c0.0765,1.07616 0.153,2.15232 0.2295,3.22848l-1.68106,3.55225c0,0 -3.05484,4.62683 -11.55455,3.43327z" fill="#448f21"/><path d="M327.99635,220.37719l-0.2048,-3.28884c0.16024,-0.98919 0.32049,-1.97837 0.48073,-2.96756c1.07041,-7.28457 -2.19133,-13.91456 -3.37721,-21.00049c-0.61351,-3.66582 0.39502,-7.28281 1.16722,-10.98766c1.14319,-5.48463 2.42637,-10.99897 4.96718,-16.41871c1.2106,-2.58231 3.81753,-6.37225 2.33549,-9.04191c-1.50733,-2.7152 -5.4487,-4.85375 -6.76489,-7.60502c-0.72133,-1.50781 -0.37491,-3.1539 -0.56236,-4.73083c0,0 -0.32036,-4.73918 8.70596,-5.34935c9.02633,-0.61016 9.34669,4.12902 9.34669,4.12902c-0.13829,5.27655 7.42392,9.1121 7.35116,14.75305c-0.06824,5.29061 -3.95707,9.93919 -5.52388,15.17334c-1.44081,4.81327 -2.946,10.88191 -3.20133,15.89911c-0.43167,8.48242 4.75312,16.42294 3.55924,25.07877c-0.14214,0.81309 -0.28429,1.62618 -0.42643,2.43926l0.19986,2.69751c0,0 0.32036,4.73918 -8.70596,5.34935c-9.02632,0.61016 -9.34668,-4.12902 -9.34668,-4.12902z" fill="#39940f"/><path d="M350.97999,220.15482l0.44357,-2.16908c0.24971,-1.99973 0.33216,-4.00033 0.19804,-5.98439c-0.86379,-3.29084 -1.9217,-8.29834 -3.7052,-11.53465c-2.79758,-5.07647 -6.13525,-9.07155 -6.97129,-14.5386c-0.91349,-5.97359 1.62057,-11.69042 2.00342,-17.68142c0.64246,-10.05332 -4.401,-18.53983 -8.73043,-27.87304c0,0 -2.08435,-4.52749 6.70386,-6.05524c8.78821,-1.52774 10.87256,2.99974 10.87256,2.99974c1.626,3.56305 4.42193,6.85223 5.85032,10.44882c2.51482,6.33216 3.76916,13.33584 3.35633,19.93436c-0.35347,5.6496 -2.83199,11.05946 -2.03774,16.66935c0.68529,4.84028 3.86202,8.09573 6.31882,12.6269c2.27285,4.1919 3.20698,8.97223 4.33764,13.31281c0.16601,2.45583 0.123,4.92924 -0.16955,7.40421l-0.50855,2.5726c0,0 -0.95938,4.77784 -9.94028,4.71165c-8.98091,-0.06619 -8.02154,-4.84403 -8.02154,-4.84403z" fill="#28670a"/><path d="M310.48149,224.66568l-2.14383,-3.29369c-0.06903,-1.07667 -0.13806,-2.15333 -0.2071,-3.23c1.05678,-8.93566 5.3658,-17.98538 5.18013,-26.89943c-0.15294,-7.34264 -1.22527,-9.55041 -0.4291,-16.49447c0.74984,-6.53989 3.35213,-13.1223 3.71431,-19.68006c0.26639,-4.82324 -1.06295,-9.48797 -0.27692,-14.34047c0,0 0.80169,-4.77827 9.79804,-4.7959c8.99636,-0.01763 8.19467,4.76064 8.19467,4.76064c-0.80809,4.61763 0.59503,9.08446 0.34466,13.68142c-0.36764,6.75027 -2.98703,13.51838 -3.76769,20.24882c-0.67679,5.83486 0.38354,9.78689 0.48475,15.85088c0.14929,8.94472 -4.06278,17.96827 -5.1807,26.9219c0.06586,0.91878 0.13172,1.83755 0.19758,2.75633l0.61469,-0.1392c0,0 3.64974,4.17361 -4.61202,6.50023c-8.26175,2.32662 -11.91149,-1.847 -11.91149,-1.847z" fill="#448f21"/><path d="M362.06253,225.42445l-0.02248,-0.33257c-0.87564,-12.95366 -1.90432,-25.79952 -5.09899,-38.56378c-1.39569,-5.57647 -4.76291,-10.93249 -5.61406,-16.57656c-1.54146,-10.22162 -2.11579,-20.4438 -4.58994,-30.59272c0,0 -1.13625,-4.66448 7.824,-5.70121c8.96025,-1.03673 10.0965,3.62776 10.0965,3.62776c2.49705,10.25842 3.1681,20.58405 4.65903,30.92356c0.78953,5.47544 4.14048,10.67157 5.50206,16.08141c3.29692,13.09944 4.37526,26.28541 5.27404,39.58121l0.02248,0.33257c0,0 0.32036,4.73918 -8.70596,5.34935c-9.02632,0.61016 -9.34668,-4.12902 -9.34668,-4.12902z" fill="#275313"/></g><g stroke="none"><path d="M319.53966,224.70741c-9.02632,0.61016 -9.34668,-4.12902 -9.34668,-4.12902l-0.165,-2.69986c-0.25027,-0.78656 -0.50055,-1.57312 -0.75082,-2.35968c-2.34794,-8.41642 1.72104,-16.98247 0.15172,-25.32963c-0.92823,-4.9372 -3.23645,-10.74805 -5.31194,-15.32362c-2.25697,-4.97568 -6.73604,-9.0586 -7.51568,-14.2919c-0.83126,-5.57983 6.14595,-10.39823 5.2988,-15.60815c0,0 -0.32036,-4.73918 8.70596,-5.34935c9.02632,-0.61016 9.34668,4.12902 9.34668,4.12902c0.02648,1.58783 0.59128,3.1723 0.07944,4.76348c-0.93395,2.90338 -4.55165,5.55291 -5.67986,8.44627c-1.10927,2.84483 1.984,6.24945 3.53112,8.64534c3.24711,5.02849 5.26074,10.31997 7.13165,15.60085c1.26379,3.56722 2.74991,7.01558 2.63534,10.73061c-0.22146,7.18107 -2.56125,14.18971 -0.5202,21.26395c0.29191,0.95863 0.58382,1.91724 0.87573,2.87586l0.23968,3.28647c0,0 0.32036,4.73918 -8.70596,5.34935z" fill="#39940f"/><path d="M334.62374,224.68362c-8.49971,-1.19356 -5.44487,-5.8204 -5.44487,-5.8204l0.62783,0.05521c-0.05839,-0.91928 -0.11678,-1.83856 -0.17516,-2.75785c-2.31274,-8.72172 -7.70089,-17.09632 -8.75676,-25.97975c-0.71581,-6.02245 -0.197,-10.08122 -1.65289,-15.77191c-1.67936,-6.56413 -5.18578,-12.91815 -6.45854,-19.55753c-0.86675,-4.52144 -0.07756,-9.13648 -1.49974,-13.60334c0,0 -1.43746,-4.62691 7.47942,-5.82018c8.91688,-1.19328 10.35435,3.43363 10.35435,3.43363c1.43193,4.70256 0.74248,9.50376 1.65556,14.24726c1.24144,6.44936 4.70593,12.62166 6.3291,19.00114c1.72347,6.77373 0.95802,9.10572 1.79466,16.40215c1.01569,8.85794 6.50343,17.24542 8.75317,25.95756c0.0765,1.07616 0.153,2.15232 0.2295,3.22848l-1.68105,3.55225c0,0 -3.05484,4.62683 -11.55455,3.43327z" fill="#448f21"/><path d="M327.99635,220.37719l-0.2048,-3.28883c0.16024,-0.98919 0.32048,-1.97837 0.48073,-2.96756c1.07041,-7.28458 -2.19133,-13.91457 -3.3772,-21.00049c-0.61351,-3.66582 0.39501,-7.28281 1.16722,-10.98766c1.14318,-5.48463 2.42636,-10.99897 4.96718,-16.41871c1.2106,-2.58231 3.81754,-6.37225 2.33549,-9.04191c-1.50733,-2.7152 -5.4487,-4.85375 -6.7649,-7.60502c-0.72133,-1.50781 -0.37491,-3.1539 -0.56236,-4.73083c0,0 -0.32036,-4.73918 8.70596,-5.34935c9.02632,-0.61016 9.34668,4.12902 9.34668,4.12902c-0.13829,5.27655 7.42392,9.11211 7.35117,14.75304c-0.06824,5.29062 -3.95708,9.93919 -5.52388,15.17335c-1.44081,4.81326 -2.94601,10.8819 -3.20133,15.8991c-0.43167,8.48242 4.75312,16.42294 3.55924,25.07877c-0.14214,0.81309 -0.28428,1.62618 -0.42642,2.43926l0.19986,2.6975c0,0 0.32036,4.73918 -8.70596,5.34935c-9.02632,0.61016 -9.34668,-4.12902 -9.34668,-4.12902z" fill="#39940f"/><path d="M350.97999,220.15482l0.44357,-2.16909c0.24971,-1.99973 0.33216,-4.00033 0.19804,-5.98439c-0.86379,-3.29085 -1.9217,-8.29834 -3.70519,-11.53465c-2.79758,-5.07648 -6.13525,-9.07156 -6.97129,-14.53861c-0.91349,-5.97358 1.62057,-11.69042 2.00342,-17.68142c0.64246,-10.05332 -4.401,-18.53983 -8.73042,-27.87304c0,0 -2.08435,-4.52749 6.70386,-6.05524c8.78821,-1.52774 10.87256,2.99974 10.87256,2.99974c1.626,3.56305 4.42193,6.85223 5.85032,10.44882c2.51482,6.33216 3.76916,13.33584 3.35633,19.93436c-0.35347,5.6496 -2.83199,11.05946 -2.03774,16.66935c0.6853,4.84029 3.86201,8.09573 6.31882,12.6269c2.27285,4.1919 3.20698,8.97223 4.33765,13.31281c0.16601,2.45582 0.123,4.92924 -0.16955,7.40421l-0.50855,2.5726c0,0 -0.95938,4.77784 -9.94028,4.71165c-8.98091,-0.06619 -8.02154,-4.84403 -8.02154,-4.84403z" fill="#54660a"/><path d="M310.48149,224.66568l-2.14382,-3.29369c-0.06903,-1.07667 -0.13805,-2.15333 -0.20709,-3.23c1.05677,-8.93566 5.3658,-17.98538 5.18013,-26.89943c-0.15294,-7.34264 -1.22528,-9.55041 -0.42909,-16.49446c0.74983,-6.53989 3.35213,-13.1223 3.71432,-19.68006c0.26639,-4.82324 -1.06295,-9.48797 -0.27692,-14.34047c0,0 0.80169,-4.77827 9.79804,-4.79589c8.99636,-0.01763 8.19467,4.76064 8.19467,4.76064c-0.80809,4.61762 0.59502,9.08446 0.34466,13.68142c-0.36764,6.75027 -2.98703,13.51838 -3.7677,20.24881c-0.67678,5.83486 0.38354,9.7869 0.48476,15.85088c0.14928,8.94472 -4.06278,17.96827 -5.1807,26.9219c0.06586,0.91878 0.13172,1.83755 0.19759,2.75633l0.61469,-0.1392c0,0 3.64974,4.17361 -4.61202,6.50023c-8.26175,2.32662 -11.91149,-1.847 -11.91149,-1.847z" fill="#448f21"/><path d="M362.06253,225.42445l-0.02248,-0.33257c-0.87564,-12.95366 -1.90432,-25.79952 -5.099,-38.56378c-1.3957,-5.57647 -4.76291,-10.93249 -5.61405,-16.57656c-1.54146,-10.22162 -2.11579,-20.4438 -4.58994,-30.59272c0,0 -1.13625,-4.66448 7.824,-5.70121c8.96025,-1.03673 10.09649,3.62776 10.09649,3.62776c2.49705,10.25843 3.16811,20.58405 4.65903,30.92356c0.78953,5.47543 4.14048,10.67157 5.50206,16.08141c3.29692,13.09944 4.37527,26.28541 5.27405,39.58121l0.02248,0.33257c0,0 0.32036,4.73918 -8.70596,5.34935c-9.02632,0.61016 -9.34668,-4.12902 -9.34668,-4.12902z" fill="#544e13"/></g></g><g stroke-linecap="butt"><path d="M286.35186,319.07226l15.14285,-131.8421l37.78325,-0.15789l13.57389,132z" fill="#4cc114" stroke="#000000" stroke-width="0"/><path d="M294.36074,249.34246c2.44674,-21.30271 7.13397,-62.1123 7.13397,-62.1123l37.78325,-0.15789c0,0 4.24137,41.24545 6.4436,62.66116c0.0147,0.14299 -51.38554,-0.17575 -51.36082,-0.39097z" fill="#70b012" stroke="#000000" stroke-width="0"/><path d="M295.90586,235.88976c2.11119,-18.38116 5.58885,-48.6596 5.58885,-48.6596l37.78325,-0.15789c0,0 3.16673,30.79505 5.07534,49.35543c0.00135,0.01317 -48.45209,-0.49745 -48.44744,-0.53793z" fill="#84930f" stroke="#000000" stroke-width="0"/><path d="M297.80388,219.3646l3.69083,-32.13444l37.78325,-0.15789l3.28963,31.99021z" fill="#7a6c00" stroke="#000000" stroke-width="0"/><path d="M298.59344,221.41986c0,-0.21325 0.0534,-0.41403 0.14756,-0.58969c-0.46319,-0.31484 -0.76744,-0.84606 -0.76744,-1.44834c0,-0.9665 0.7835,-1.75 1.75,-1.75c0.95734,0 1.73514,0.76873 1.74979,1.72258c0.21187,-0.16514 0.47834,-0.26351 0.76778,-0.26351c0.08306,0 0.16423,0.0081 0.24276,0.02356c0.21741,-0.7192 0.88525,-1.24286 1.67539,-1.24286c0.84394,0 1.54835,0.59739 1.71343,1.39238c0.21736,-0.18282 0.49789,-0.29296 0.80414,-0.29296c0.69036,0 1.25,0.55964 1.25,1.25c0,0.69036 -0.55964,1.25 -1.25,1.25c-0.51569,0 -0.95845,-0.31228 -1.14948,-0.75806c-0.32067,0.40145 -0.81434,0.65864 -1.36809,0.65864c-0.34123,0 -0.65965,-0.09766 -0.92883,-0.26656c-0.22862,0.29556 -0.58674,0.48587 -0.98932,0.48587c-0.61327,0 -1.12339,-0.44164 -1.22966,-1.02423c-0.04485,0.04873 -0.09243,0.0949 -0.1425,0.13829c0.14149,0.20259 0.22448,0.44905 0.22448,0.71491c0,0.69036 -0.55964,1.25 -1.25,1.25c-0.69036,0 -1.25,-0.55964 -1.25,-1.25z" fill="#7a6c00" stroke="none" stroke-width="0.5"/><path d="M313.42104,221.18009c0,0.41421 -0.33579,0.75 -0.75,0.75c-0.28123,0 -0.52631,-0.15479 -0.65468,-0.38382c-0.23582,0.11835 -0.50209,0.18498 -0.78392,0.18498c-0.49496,0 -0.94193,-0.20549 -1.26025,-0.5358c-0.09557,0.0234 -0.19546,0.0358 -0.29824,0.0358c-0.69036,0 -1.25,-0.55964 -1.25,-1.25c0,-0.69036 0.55964,-1.25 1.25,-1.25c0.10278,0 0.20267,0.01241 0.29824,0.0358c0.31832,-0.33032 0.76529,-0.5358 1.26025,-0.5358c0.9665,0 1.75,0.7835 1.75,1.75c0,0.16966 -0.02414,0.33368 -0.06918,0.48881c0.29536,0.10073 0.50779,0.38057 0.50779,0.71003z" fill="#7a6c00" stroke="none" stroke-width="0.5"/><path d="M320.41235,220.94032c0,-0.58465 0.40138,-1.07555 0.9436,-1.21217c0.06807,-0.90426 0.82333,-1.61678 1.74501,-1.61678c0.64443,0 1.20751,0.34833 1.51122,0.86699c0.81745,0.1473 1.43762,0.86232 1.43762,1.7222c0,0.9665 -0.7835,1.75 -1.75,1.75c-0.64443,0 -1.20751,-0.34833 -1.51122,-0.86699c-0.01627,-0.00293 -0.03247,-0.00609 -0.04858,-0.00947c-0.21735,0.36878 -0.6186,0.61623 -1.07765,0.61623c-0.69036,0 -1.25,-0.55964 -1.25,-1.25z" fill="#7a6c00" stroke="none" stroke-width="0.5"/><path d="M334.19902,222.37893c0,-0.61792 0.44836,-1.13111 1.0375,-1.23201c-0.46681,-0.18125 -0.79773,-0.63481 -0.79773,-1.16567c0,-0.69036 0.55964,-1.25 1.25,-1.25c0.15358,0 0.30069,0.0277 0.43661,0.07837c0.30983,-0.49156 0.85754,-0.81814 1.48153,-0.81814c0.75535,0 1.39893,0.47856 1.64408,1.14902c0.16645,-0.79319 0.87001,-1.38879 1.71268,-1.38879c0.9665,0 1.75,0.7835 1.75,1.75c0,0.9665 -0.7835,1.75 -1.75,1.75c-0.75535,0 -1.39893,-0.47856 -1.64408,-1.14902c-0.16645,0.79319 -0.87001,1.38879 -1.71268,1.38879c-0.46772,0 -0.89259,-0.18349 -1.20654,-0.48242c-0.14663,0.10171 -0.31607,0.17285 -0.4991,0.2042c0.46681,0.18125 0.79773,0.63481 0.79773,1.16567c0,0.69036 -0.55964,1.25 -1.25,1.25c-0.69036,0 -1.25,-0.55964 -1.25,-1.25z" fill="#7a6c00" stroke="none" stroke-width="0.5"/><path d="M325.90656,219.50171c0,-0.9665 0.7835,-1.75 1.75,-1.75c0.9665,0 1.75,0.7835 1.75,1.75c0,0.9665 -0.7835,1.75 -1.75,1.75c-0.9665,0 -1.75,-0.7835 -1.75,-1.75z" fill="#7a6c00" stroke="none" stroke-width="0.5"/><path d="M313.19884,218.90229c0,-0.9665 0.7835,-1.75 1.75,-1.75c0.9665,0 1.75,0.7835 1.75,1.75c0,0.9665 -0.7835,1.75 -1.75,1.75c-0.9665,0 -1.75,-0.7835 -1.75,-1.75z" fill="#7a6c00" stroke="none" stroke-width="0.5"/><path d="M329.76331,220.58067c0,-0.63528 0.47391,-1.15988 1.08749,-1.23953c-0.01905,-0.10342 -0.029,-0.21003 -0.029,-0.31896c0,-0.9665 0.7835,-1.75 1.75,-1.75c0.9665,0 1.75,0.7835 1.75,1.75c0,0.9665 -0.7835,1.75 -1.75,1.75c-0.10893,0 -0.21554,-0.00995 -0.31896,-0.029c-0.07966,0.61358 -0.60425,1.08749 -1.23953,1.08749c-0.69036,0 -1.25,-0.55964 -1.25,-1.25z" fill="#7a6c00" stroke="none" stroke-width="0.5"/><path d="M318.25444,224.8965c0,-0.69036 0.55964,-1.25 1.25,-1.25c0.69036,0 1.25,0.55964 1.25,1.25c0,0.69036 -0.55964,1.25 -1.25,1.25c-0.69036,0 -1.25,-0.55964 -1.25,-1.25z" fill="#7a6c00" stroke="none" stroke-width="0.5"/><path d="M306.02626,224.8965c0,-0.69036 0.55964,-1.25 1.25,-1.25c0.69036,0 1.25,0.55964 1.25,1.25c0,0.69036 -0.55964,1.25 -1.25,1.25c-0.69036,0 -1.25,-0.55964 -1.25,-1.25z" fill="#7a6c00" stroke="none" stroke-width="0.5"/><path d="M317.53513,218.90229c0,-0.69036 0.55964,-1.25 1.25,-1.25c0.69036,0 1.25,0.55964 1.25,1.25c0,0.69036 -0.55964,1.25 -1.25,1.25c-0.69036,0 -1.25,-0.55964 -1.25,-1.25z" fill="#7a6c00" stroke="none" stroke-width="0.5"/><path d="M302.4502,228.85267c0,-0.41421 0.33579,-0.75 0.75,-0.75c0.41421,0 0.75,0.33579 0.75,0.75c0,0.41421 -0.33579,0.75 -0.75,0.75c-0.41421,0 -0.75,-0.33579 -0.75,-0.75z" fill="#7a6c00" stroke="none" stroke-width="0.5"/><path d="M311.92104,227.65383c0,-0.41421 0.33579,-0.75 0.75,-0.75c0.41421,0 0.75,0.33579 0.75,0.75c0,0.41421 -0.33579,0.75 -0.75,0.75c-0.41421,0 -0.75,-0.33579 -0.75,-0.75z" fill="#7a6c00" stroke="none" stroke-width="0.5"/><path d="M321.75154,227.41406c0,-0.41421 0.33579,-0.75 0.75,-0.75c0.41421,0 0.75,0.33579 0.75,0.75c0,0.41421 -0.33579,0.75 -0.75,0.75c-0.41421,0 -0.75,-0.33579 -0.75,-0.75z" fill="#7a6c00" stroke="none" stroke-width="0.5"/><path d="M327.14633,223.45789c0,-0.41421 0.33579,-0.75 0.75,-0.75c0.41421,0 0.75,0.33579 0.75,0.75c0,0.41421 -0.33579,0.75 -0.75,0.75c-0.41421,0 -0.75,-0.33579 -0.75,-0.75z" fill="#7a6c00" stroke="none" stroke-width="0.5"/><path d="M336.13763,226.69476c0,-0.41421 0.33579,-0.75 0.75,-0.75c0.41421,0 0.75,0.33579 0.75,0.75c0,0.41421 -0.33579,0.75 -0.75,0.75c-0.41421,0 -0.75,-0.33579 -0.75,-0.75z" fill="#7a6c00" stroke="none" stroke-width="0.5"/><path d="M339.85404,231.96966c0,-0.41421 0.33579,-0.75 0.75,-0.75c0.41421,0 0.75,0.33579 0.75,0.75c0,0.41421 -0.33579,0.75 -0.75,0.75c-0.41421,0 -0.75,-0.33579 -0.75,-0.75z" fill="#7a6c00" stroke="none" stroke-width="0.5"/><path d="M299.07298,237.7241c0,-0.07083 0.00589,-0.14028 0.01721,-0.2079c-0.05402,-0.04456 -0.10531,-0.0923 -0.15361,-0.14293c-0.32059,0.4035 -0.81555,0.66222 -1.37094,0.66222c-0.9665,0 -1.75,-0.7835 -1.75,-1.75c0,-0.9665 0.7835,-1.75 1.75,-1.75c0.49822,0 0.94781,0.2082 1.26651,0.54233c0.32059,-0.4035 0.81555,-0.66222 1.37094,-0.66222c0.9665,0 1.75,0.7835 1.75,1.75c0,0.44709 -0.16766,0.85501 -0.44353,1.16434c0.04114,0.12391 0.06341,0.25643 0.06341,0.39415c0,0.69036 -0.55964,1.25 -1.25,1.25c-0.69036,0 -1.25,-0.55964 -1.25,-1.25z" fill="#84930f" stroke="none" stroke-width="0.5"/><path d="M341.92277,239.81329c-0.53513,0 -0.99172,-0.33627 -1.17,-0.80903c-0.42499,-0.31928 -0.69989,-0.82756 -0.69989,-1.40004c0,-0.53481 0.2399,-1.01358 0.61796,-1.33458c0.12372,-0.84533 0.8518,-1.49438 1.73146,-1.49438c0.51375,0 0.97579,0.22138 1.29594,0.57395c0.35257,0.32014 0.57395,0.78219 0.57395,1.29594c0,0.61364 -0.31584,1.15352 -0.79383,1.46593c-0.06597,0.21837 -0.17347,0.41872 -0.3133,0.59187c-0.06944,0.62462 -0.59914,1.11035 -1.24229,1.11035z" fill="#84930f" stroke="none" stroke-width="0.5"/><path d="M337.48705,235.63491c0.69036,0 1.25,0.55964 1.25,1.25c0,0.69036 -0.55964,1.25 -1.25,1.25c-0.16961,0 -0.33133,-0.03378 -0.4788,-0.09498c-0.28964,0.56668 -0.87913,0.95463 -1.55923,0.95463c-0.40263,0 -0.7735,-0.13597 -1.0692,-0.3645c-0.31415,0.30009 -0.73985,0.48438 -1.2086,0.48438c-0.9665,0 -1.75,-0.7835 -1.75,-1.75c0,-0.81102 0.5517,-1.49318 1.30027,-1.69167c0.29925,-0.53547 0.87169,-0.89752 1.52868,-0.89752c0.58756,0 1.10749,0.28956 1.42487,0.73377c0.3713,0.04788 0.70613,0.21213 0.96675,0.45498c0.22252,-0.20435 0.51932,-0.3291 0.84526,-0.3291z" fill="#84930f" stroke="none" stroke-width="0.5"/><path d="M327.6054,239.16271c0,-0.17607 0.0364,-0.34364 0.10209,-0.49559c-0.24621,-0.08119 -0.46825,-0.21556 -0.65253,-0.3895c-0.32076,0.36598 -0.79167,0.59706 -1.31655,0.59706c-0.39881,0 -0.76646,-0.1334 -1.06076,-0.35802c0.02156,0.09197 0.03296,0.18785 0.03296,0.2864c0,0.69036 -0.55964,1.25 -1.25,1.25c-0.69036,0 -1.25,-0.55964 -1.25,-1.25c0,-0.32604 0.12483,-0.62292 0.32929,-0.84547c-0.16367,0.05064 -0.3376,0.0779 -0.5179,0.0779c-0.03864,0 -0.07699,-0.00125 -0.11501,-0.00372c-0.28814,0.57111 -0.88001,0.96279 -1.56337,0.96279c-0.15514,0 -0.30557,-0.02019 -0.4488,-0.05808c0.01341,0.07337 0.02042,0.14898 0.02042,0.22623c0,0.69036 -0.55964,1.25 -1.25,1.25c-0.69036,0 -1.25,-0.55964 -1.25,-1.25c0,-0.69036 0.55964,-1.25 1.25,-1.25c0.02047,0 0.04083,0.00049 0.06106,0.00147c-0.08549,-0.20627 -0.13268,-0.43243 -0.13268,-0.66961c0,-0.9665 0.7835,-1.75 1.75,-1.75c0.03864,0 0.07699,0.00125 0.11501,0.00372c0.28814,-0.57111 0.88001,-0.96279 1.56337,-0.96279c0.9665,0 1.75,0.7835 1.75,1.75c0,0.51323 -0.22093,0.97485 -0.57287,1.29496c0.08433,-0.01795 0.1718,-0.02739 0.26148,-0.02739c0.23123,0 0.4478,0.06279 0.63359,0.17224c-0.06844,-0.18732 -0.10579,-0.38961 -0.10579,-0.60062c0,-0.9665 0.7835,-1.75 1.75,-1.75c0.26984,0 0.52541,0.06107 0.75365,0.17015c0.30047,-0.53104 0.87045,-0.88945 1.52415,-0.88945c0.85055,0 1.55938,0.60679 1.71721,1.4111c0.17258,0.27117 0.27256,0.59307 0.27256,0.93832c0,0.43602 -0.15946,0.8348 -0.42324,1.14119c0.31647,0.2268 0.52266,0.59768 0.52266,1.01672c0,0.69036 -0.55964,1.25 -1.25,1.25c-0.69036,0 -1.25,-0.55964 -1.25,-1.25z" fill="#84930f" stroke="none" stroke-width="0.5"/><path d="M307.34498,238.92294c0,-0.69036 0.55964,-1.25 1.25,-1.25c0.08968,0 0.17715,0.00944 0.26148,0.02739c-0.35194,-0.32011 -0.57287,-0.78173 -0.57287,-1.29496c0,-0.9665 0.7835,-1.75 1.75,-1.75c0.18546,0 0.36419,0.02885 0.53193,0.08231c0.32002,-0.41465 0.82193,-0.68173 1.38622,-0.68173c0.9665,0 1.75,0.7835 1.75,1.75c0,0.9665 -0.7835,1.75 -1.75,1.75c-0.18546,0 -0.36419,-0.02885 -0.53193,-0.08231c-0.32002,0.41465 -0.82193,0.68173 -1.38622,0.68173c-0.1803,0 -0.35424,-0.02727 -0.5179,-0.0779c0.20447,0.22255 0.32929,0.51943 0.32929,0.84547c0,0.69036 -0.55964,1.25 -1.25,1.25c-0.69036,0 -1.25,-0.55964 -1.25,-1.25z" fill="#84930f" stroke="none" stroke-width="0.5"/><path d="M306.48823,237.24456c0,0.69036 -0.55964,1.25 -1.25,1.25c-0.33427,0 -0.6379,-0.13121 -0.86219,-0.34494c-0.89967,-0.0727 -1.60712,-0.82586 -1.60712,-1.74425c0,-0.78072 0.51124,-1.44203 1.21721,-1.66742c0.18208,-0.12935 0.38997,-0.22473 0.61444,-0.27692c0.3209,-0.39354 0.80958,-0.64485 1.35696,-0.64485c0.9665,0 1.75,0.7835 1.75,1.75c0,0.78151 -0.51227,1.44336 -1.21935,1.6681c0.00003,0.00342 0.00004,0.00685 0.00004,0.01028z" fill="#84930f" stroke="none" stroke-width="0.5"/><path d="M314.03803,236.40537c0,-0.9665 0.7835,-1.75 1.75,-1.75c0.9665,0 1.75,0.7835 1.75,1.75c0,0.9665 -0.7835,1.75 -1.75,1.75c-0.9665,0 -1.75,-0.7835 -1.75,-1.75z" fill="#84930f" stroke="none" stroke-width="0.5"/><path d="M310.82162,241.56039c0,-0.69036 0.55964,-1.25 1.25,-1.25c0.69036,0 1.25,0.55964 1.25,1.25c0,0.69036 -0.55964,1.25 -1.25,1.25c-0.69036,0 -1.25,-0.55964 -1.25,-1.25z" fill="#84930f" stroke="none" stroke-width="0.5"/><path d="M318.54536,241.05016c0.41421,0 0.75,0.33579 0.75,0.75c0,0.41421 -0.33579,0.75 -0.75,0.75c-0.18039,0 -0.34591,-0.06369 -0.47529,-0.1698c-0.14823,0.52491 -0.63074,0.90957 -1.20308,0.90957c-0.69036,0 -1.25,-0.55964 -1.25,-1.25c0,-0.69036 0.55964,-1.25 1.25,-1.25c0.44657,0 0.83844,0.23417 1.05952,0.58642c0.13516,-0.19698 0.36192,-0.32619 0.61886,-0.32619z" fill="#84930f" stroke="none" stroke-width="0.5"/><path d="M333.23995,241.44051c0,-0.69036 0.55964,-1.25 1.25,-1.25c0.69036,0 1.25,0.55964 1.25,1.25c0,0.69036 -0.55964,1.25 -1.25,1.25c-0.69036,0 -1.25,-0.55964 -1.25,-1.25z" fill="#84930f" stroke="none" stroke-width="0.5"/><path d="M301.13147,241.80016c0,-0.41421 0.33579,-0.75 0.75,-0.75c0.41421,0 0.75,0.33579 0.75,0.75c0,0.41421 -0.33579,0.75 -0.75,0.75c-0.41421,0 -0.75,-0.33579 -0.75,-0.75z" fill="#84930f" stroke="none" stroke-width="0.5"/><path d="M310.84209,244.91714c0,-0.41421 0.33579,-0.75 0.75,-0.75c0.41421,0 0.75,0.33579 0.75,0.75c0,0.41421 -0.33579,0.75 -0.75,0.75c-0.41421,0 -0.75,-0.33579 -0.75,-0.75z" fill="#84930f" stroke="none" stroke-width="0.5"/><path d="M317.31583,246.71541c0,-0.41421 0.33579,-0.75 0.75,-0.75c0.41421,0 0.75,0.33579 0.75,0.75c0,0.41421 -0.33579,0.75 -0.75,0.75c-0.41421,0 -0.75,-0.33579 -0.75,-0.75z" fill="#84930f" stroke="none" stroke-width="0.5"/><path d="M325.1083,243.47853c0,-0.41421 0.33579,-0.75 0.75,-0.75c0.41421,0 0.75,0.33579 0.75,0.75c0,0.41421 -0.33579,0.75 -0.75,0.75c-0.41421,0 -0.75,-0.33579 -0.75,-0.75z" fill="#84930f" stroke="none" stroke-width="0.5"/><path d="M330.62296,245.51656c0,-0.41421 0.33579,-0.75 0.75,-0.75c0.41421,0 0.75,0.33579 0.75,0.75c0,0.41421 -0.33579,0.75 -0.75,0.75c-0.41421,0 -0.75,-0.33579 -0.75,-0.75z" fill="#84930f" stroke="none" stroke-width="0.5"/><path d="M339.85404,247.31483c0,-0.41421 0.33579,-0.75 0.75,-0.75c0.41421,0 0.75,0.33579 0.75,0.75c0,0.41421 -0.33579,0.75 -0.75,0.75c-0.41421,0 -0.75,-0.33579 -0.75,-0.75z" fill="#84930f" stroke="none" stroke-width="0.5"/><path d="M342.4023,252.28123c-0.2096,0 -0.40716,-0.05159 -0.58066,-0.14276c-0.33723,0.25916 -0.75942,0.41323 -1.2176,0.41323c-0.87907,0 -1.62567,-0.56714 -1.89388,-1.35548c-0.36508,0.39143 -0.8854,0.63618 -1.46288,0.63618c-1.10457,0 -2,-0.89543 -2,-2c0,-1.10457 0.89543,-2 2,-2c0.87907,0 1.62567,0.56714 1.89388,1.35548c0.36508,-0.39143 0.8854,-0.63618 1.46288,-0.63618c0.59656,0 1.13212,0.26119 1.49855,0.67545c0.36644,-0.41426 0.90199,-0.67545 1.49855,-0.67545c1.10457,0 2,0.89543 2,2c0,1.10457 -0.89543,2 -2,2c-0.37476,0 -0.72544,-0.10307 -1.02525,-0.28242c-0.05673,0.00788 -0.11469,0.01196 -0.17359,0.01196z" fill="#70b012" stroke="none" stroke-width="0.5"/><path d="M327.36563,250.43181c0,-0.69036 0.55964,-1.25 1.25,-1.25c0.11675,0 0.22975,0.016 0.33695,0.04594c0.21667,-0.87034 1.00345,-1.51524 1.94085,-1.51524c0.71327,0 1.33932,0.37338 1.69338,0.93534c0.80396,0.25927 1.38557,1.01364 1.38557,1.90385c0,1.10457 -0.89543,2 -2,2c-0.71327,0 -1.33932,-0.37338 -1.69338,-0.93534c-0.25909,-0.08355 -0.49508,-0.21852 -0.69596,-0.39289c-0.22924,0.2798 -0.57747,0.45835 -0.96741,0.45835c-0.69036,0 -1.25,-0.55964 -1.25,-1.25z" fill="#70b012" stroke="none" stroke-width="0.5"/><path d="M313.45907,251.51077c0,-0.09118 0.00976,-0.18007 0.0283,-0.2657c-0.36205,0.36283 -0.86268,0.58732 -1.41575,0.58732c-0.52176,0 -0.99685,-0.19979 -1.35295,-0.52705c-0.06687,0.01106 -0.13554,0.01682 -0.20555,0.01682c-0.35272,0 -0.67132,-0.14609 -0.89859,-0.38107c-0.34419,0.60397 -0.99397,1.01119 -1.73886,1.01119c-1.08612,0 -1.97002,-0.86576 -1.99925,-1.94482c-0.1675,0.79409 -0.80613,1.41451 -1.60979,1.55515c-0.33189,0.24491 -0.7422,0.38967 -1.18632,0.38967c-0.62742,0 -1.18736,-0.28891 -1.55405,-0.74095c-0.20424,0.14529 -0.45402,0.23072 -0.72375,0.23072c-0.23374,0 -0.45249,-0.06415 -0.63961,-0.17581c-0.33884,0.62291 -0.99908,1.04569 -1.75807,1.04569c-0.53524,0 -1.02138,-0.21026 -1.38032,-0.55268c-0.17113,0.04766 -0.3515,0.07314 -0.53783,0.07314c-1.10457,0 -2,-0.89543 -2,-2c0,-1.10457 0.89543,-2 2,-2c0.53524,0 1.02138,0.21026 1.38032,0.55268c0.17113,-0.04766 0.3515,-0.07314 0.53783,-0.07314c0.68754,0 1.29406,0.34693 1.65403,0.87529c0.20782,-0.15406 0.4651,-0.24517 0.74365,-0.24517c0.17601,0 0.34352,0.03638 0.49542,0.10202c0.2805,-0.54938 0.80753,-0.95192 1.43524,-1.06177c0.33189,-0.24491 0.7422,-0.38967 1.18632,-0.38967c1.08612,0 1.97002,0.86576 1.99925,1.94482c0.06,-0.28447 0.18047,-0.54665 0.34732,-0.77247c-0.00003,-0.00384 -0.00005,-0.00768 -0.00005,-0.01153c0,-0.69036 0.55964,-1.25 1.25,-1.25c0.44005,0 0.827,0.22739 1.04974,0.57109c0.50293,0.18489 0.91102,0.56606 1.13142,1.05065c0.17724,-0.15286 0.39786,-0.2568 0.64089,-0.29086c0.34553,-0.59887 0.99247,-1.00193 1.73355,-1.00193c1.10457,0 2,0.89543 2,2c0,0.24022 -0.04235,0.47054 -0.11999,0.68392c0.21018,-0.16033 0.47269,-0.25554 0.75744,-0.25554c0.10619,0 0.20929,0.01324 0.30773,0.03816c-0.01968,-0.1126 -0.02993,-0.22843 -0.02993,-0.34666c0,-1.10457 0.89543,-2 2,-2c1.10457,0 2,0.89543 2,2c0,1.10457 -0.89543,2 -2,2c-0.37964,0 -0.73458,-0.10578 -1.03695,-0.28947c-0.07501,0.61865 -0.60196,1.09797 -1.24085,1.09797c-0.69036,0 -1.25,-0.55964 -1.25,-1.25z" fill="#70b012" stroke="none" stroke-width="0.5"/><path d="M301.59055,254.38799c0,-0.69036 0.55964,-1.25 1.25,-1.25c0.69036,0 1.25,0.55964 1.25,1.25c0,0.69036 -0.55964,1.25 -1.25,1.25c-0.69036,0 -1.25,-0.55964 -1.25,-1.25z" fill="#70b012" stroke="none" stroke-width="0.5"/><path d="M303.74846,252.94938c0,-0.69036 0.55964,-1.25 1.25,-1.25c0.69036,0 1.25,0.55964 1.25,1.25c0,0.69036 -0.55964,1.25 -1.25,1.25c-0.69036,0 -1.25,-0.55964 -1.25,-1.25z" fill="#70b012" stroke="none" stroke-width="0.5"/><path d="M316.57606,253.78857c0,-0.69036 0.55964,-1.25 1.25,-1.25c0.69036,0 1.25,0.55964 1.25,1.25c0,0.69036 -0.55964,1.25 -1.25,1.25c-0.69036,0 -1.25,-0.55964 -1.25,-1.25z" fill="#70b012" stroke="none" stroke-width="0.5"/><path d="M325.78957,251.39089c0,0.69036 -0.55964,1.25 -1.25,1.25c-0.02562,0 -0.05106,-0.00077 -0.0763,-0.00229c0.08162,0.16611 0.12746,0.35298 0.12746,0.55055c0,0.69036 -0.55964,1.25 -1.25,1.25c-0.69036,0 -1.25,-0.55964 -1.25,-1.25c0,-0.69036 0.55964,-1.25 1.25,-1.25c0.02562,0 0.05106,0.00077 0.0763,0.00229c-0.01785,-0.03633 -0.03399,-0.07365 -0.04831,-0.11186c-0.21567,-0.07945 -0.41388,-0.195 -0.58729,-0.33933c-0.31937,0.216 -0.70449,0.34214 -1.11907,0.34214c-1.10457,0 -2,-0.89543 -2,-2c0,-1.10457 0.89543,-2 2,-2c0.48625,0 0.93197,0.17353 1.27861,0.46203c0.31937,-0.216 0.70449,-0.34214 1.11907,-0.34214c1.10457,0 2,0.89543 2,2c0,0.40066 -0.11781,0.7738 -0.32069,1.08668c0.03269,0.11163 0.05023,0.22973 0.05023,0.35193z" fill="#70b012" stroke="none" stroke-width="0.5"/><path d="M334.91833,253.66868c0,-0.69036 0.55964,-1.25 1.25,-1.25c0.69036,0 1.25,0.55964 1.25,1.25c0,0.69036 -0.55964,1.25 -1.25,1.25c-0.69036,0 -1.25,-0.55964 -1.25,-1.25z" fill="#70b012" stroke="none" stroke-width="0.5"/><path d="M336.23705,256.06637c0,-0.69036 0.55964,-1.25 1.25,-1.25c0.69036,0 1.25,0.55964 1.25,1.25c0,0.69036 -0.55964,1.25 -1.25,1.25c-0.69036,0 -1.25,-0.55964 -1.25,-1.25z" fill="#70b012" stroke="none" stroke-width="0.5"/><path d="M300.29228,260.02254c0,-0.41421 0.33579,-0.75 0.75,-0.75c0.41421,0 0.75,0.33579 0.75,0.75c0,0.41421 -0.33579,0.75 -0.75,0.75c-0.41421,0 -0.75,-0.33579 -0.75,-0.75z" fill="#70b012" stroke="none" stroke-width="0.5"/><path d="M307.96487,258.22428c0,-0.41421 0.33579,-0.75 0.75,-0.75c0.41421,0 0.75,0.33579 0.75,0.75c0,0.41421 -0.33579,0.75 -0.75,0.75c-0.41421,0 -0.75,-0.33579 -0.75,-0.75z" fill="#70b012" stroke="none" stroke-width="0.5"/><path d="M313.23977,257.74474c0,-0.41421 0.33579,-0.75 0.75,-0.75c0.41421,0 0.75,0.33579 0.75,0.75c0,0.41421 -0.33579,0.75 -0.75,0.75c-0.41421,0 -0.75,-0.33579 -0.75,-0.75z" fill="#70b012" stroke="none" stroke-width="0.5"/><path d="M321.03224,260.50208c0,-0.41421 0.33579,-0.75 0.75,-0.75c0.41421,0 0.75,0.33579 0.75,0.75c0,0.41421 -0.33579,0.75 -0.75,0.75c-0.41421,0 -0.75,-0.33579 -0.75,-0.75z" fill="#70b012" stroke="none" stroke-width="0.5"/><path d="M332.66099,261.94069c0,-0.41421 0.33579,-0.75 0.75,-0.75c0.41421,0 0.75,0.33579 0.75,0.75c0,0.41421 -0.33579,0.75 -0.75,0.75c-0.41421,0 -0.75,-0.33579 -0.75,-0.75z" fill="#70b012" stroke="none" stroke-width="0.5"/><path d="M337.57624,262.06057c0,-0.41421 0.33579,-0.75 0.75,-0.75c0.41421,0 0.75,0.33579 0.75,0.75c0,0.41421 -0.33579,0.75 -0.75,0.75c-0.41421,0 -0.75,-0.33579 -0.75,-0.75z" fill="#70b012" stroke="none" stroke-width="0.5"/><path d="M342.85114,256.66579c0,-0.41421 0.33579,-0.75 0.75,-0.75c0.41421,0 0.75,0.33579 0.75,0.75c0,0.41421 -0.33579,0.75 -0.75,0.75c-0.41421,0 -0.75,-0.33579 -0.75,-0.75z" fill="#70b012" stroke="none" stroke-width="0.5"/><path d="M328.1054,258.58393c0,-0.41421 0.33579,-0.75 0.75,-0.75c0.41421,0 0.75,0.33579 0.75,0.75c0,0.41421 -0.33579,0.75 -0.75,0.75c-0.41421,0 -0.75,-0.33579 -0.75,-0.75z" fill="#70b012" stroke="none" stroke-width="0.5"/><path d="M293.93843,256.18625c0,-0.41421 0.33579,-0.75 0.75,-0.75c0.41421,0 0.75,0.33579 0.75,0.75c0,0.41421 -0.33579,0.75 -0.75,0.75c-0.41421,0 -0.75,-0.33579 -0.75,-0.75z" fill="#70b012" stroke="none" stroke-width="0.5"/></g><g stroke="#000000" stroke-width="0"><path d="M374.59038,175.60222l2.55667,6.78704l-7.76028,-1.8846z" fill="#000000" stroke-linecap="round"/><path d="M344.61837,122.52382c-1.27287,-0.84273 -2.10369,-2.25707 -2.12036,-3.91109c-0.0188,-1.86543 1.00271,-3.56629 2.54102,-4.55501c1.27333,-2.28254 7.39365,-0.701 9.22095,-0.03295c6.67414,2.44002 13.25553,10.32782 16.01368,16.62787c8.65037,19.75883 -6.06886,42.85405 -1.37767,63.08385c2.62005,11.29839 11.5392,20.31409 14.49665,31.59365c0.96648,3.68614 1.28338,10.89065 -4.86949,11.30657c-1.76343,0.1192 -3.35976,-1.10779 -4.61887,-2.2308c-0.9923,-0.88505 -0.65883,-5.19811 -0.71661,-5.95222c-0.27085,-3.53516 -2.71311,-7.17803 -4.26364,-10.19171c-3.45804,-6.72116 -9.30563,-14.64524 -10.41963,-22.37382c-2.88824,-20.03756 6.07781,-40.30284 2.25623,-60.20468c-0.72095,-3.75453 -7.03886,-10.16654 -9.76813,-11.75371c-1.04705,-0.60889 -2.12759,-0.57557 -3.21833,-0.58768c-0.48004,0.03032 -0.94548,-0.00275 -1.38805,-0.09186c-0.40654,-0.06447 -0.81313,-0.17529 -1.21858,-0.36764c-0.2045,-0.09702 -0.38605,-0.2182 -0.54918,-0.35876z" fill="#9efd71" stroke-linecap="butt"/><path d="M369.58423,109.44571c0.41946,-2.4023 2.54532,-4.34655 5.12332,-4.52082c1.50771,-0.10192 2.87316,0.42162 3.84054,1.34244c0.16664,0.15862 0.32146,0.32903 0.46317,0.51005c2.13989,1.65247 4.58773,3.04775 6.86795,4.5219c0.04124,0.02667 0.05867,0.0795 0.09934,0.10693c19.95019,13.45687 17.3547,43.09483 16.47346,64.43696c-0.07413,1.79535 -0.37458,3.59119 -0.43398,5.38619c-0.07817,2.36184 -0.04139,4.72161 0.07126,7.07105c0.12334,2.57234 3.96819,6.30648 2.84532,8.98001c-1.9052,4.53625 -3.9281,5.46004 -8.49616,3.87992c-4.34961,-1.50456 -4.91657,-17.5514 -4.92183,-19.47477c-0.00493,-1.7968 0.48649,-4.19533 0.4961,-5.64094c0.07325,-11.01578 1.11623,-26.90829 -1.43691,-38.88374c-1.21058,-5.67823 -3.55917,-11.64167 -8.16809,-15.32873c-3.4526,-2.762 -13.15729,-5.89844 -12.93396,-11.75176c0.00849,-0.22224 0.04671,-0.43329 0.11047,-0.63472z" fill="#9efd71" stroke-linecap="butt"/><path d="M351.87826,116.64022c-0.02829,-2.80704 2.29903,-5.24147 5.19821,-5.43745c0.45444,-0.03072 0.89595,-0.00462 1.31754,0.07206c1.10798,-0.36845 2.94598,1.66045 3.65219,2.35405c3.32018,3.26087 5.97,6.41147 8.67346,10.187c13.54672,18.91876 4.78807,41.62218 5.64473,63.21394c0.13796,3.47712 0.82247,7.54025 2.20859,10.71145c0.41478,0.94896 2.20516,2.76571 2.21153,3.39768c0.01721,1.70739 -0.1074,3.74416 -1.34216,5.03576c-7.77921,8.13722 -11.78609,-7.40737 -12.57165,-11.11816c-0.25226,-1.19161 -0.5242,-2.4874 -0.67071,-3.7039c-2.15167,-17.86668 4.88674,-35.7385 -0.1332,-53.49391c-1.69997,-6.01275 -6.17497,-11.20242 -10.4255,-15.54c-0.84646,-0.8638 -4.92126,-4.1323 -3.76302,-5.67852z" fill="#67dc31" stroke-linecap="butt"/><path d="M399.80586,164.48872c0.76644,0.8298 1.23352,1.93195 1.24598,3.16793c0.0188,1.86543 -1.00271,3.5663 -2.54103,4.55501c-0.49253,0.88289 -1.83647,0.98456 -3.01262,0.895c-0.53415,-0.04068 -1.03368,-0.1208 -1.40314,-0.18509c-4.12739,-0.7183 -5.09943,-5.90227 -5.74084,-9.51053c-0.9019,-5.0736 -1.90074,-11.93253 -3.3683,-16.84998c-1.8143,-6.07932 -5.05576,-11.54725 -7.02726,-17.57097c-3.51432,-10.73763 -2.70439,-14.04763 -10.7623,-23.1827c-2.16907,-2.45903 -4.89493,-5.86114 -0.7011,-9.21459c4.72657,-3.77942 7.58384,0.86053 9.93492,3.44752c6.98163,7.68217 8.99775,15.62519 11.61199,25.51101c0.98206,3.71371 2.68033,6.38518 4.08533,9.94625c2.15812,5.46988 3.78615,11.17102 5.06889,16.93896c1.02387,4.60387 1.34096,8.18857 2.60948,12.05217z" fill="#67dc31" stroke-linecap="butt"/><path d="M373.10554,94.84238c1.25716,0.84485 2.07604,2.25058 2.09258,3.89254c0.00045,0.04475 0.00029,0.08941 -0.00045,0.13397c0.14659,0.60232 0.00291,1.17334 -0.32791,1.70975c-0.73688,1.95904 -2.63318,3.44253 -4.86985,3.59373c-1.92994,1.06987 -4.75343,-2.2992 -6.08591,-2.89647c-4.7046,-2.10876 -10.34081,-4.55213 -15.84997,-4.1867c-6.22767,0.41309 -13.49231,2.04956 -19.13649,5.269c-1.31883,0.75226 -3.27394,2.97192 -5.08121,3.33463c-2.78275,0.55849 -5.28241,1.06587 -6.67246,-2.76566c-2.30869,-6.36359 9.40631,-10.61301 13.70559,-12.17825c12.07904,-4.39764 24.96914,-5.29636 36.15615,0.424c2.51651,1.28679 4.57989,2.1478 6.06992,3.66946z" fill="#67dc31" stroke-linecap="butt"/><path d="M370.55346,102.85263c0.85866,0.84563 1.38872,2.01127 1.40201,3.32904c0.00045,0.04475 0.00029,0.08941 -0.00045,0.13397c0.09188,0.37753 0.06972,0.74277 -0.04107,1.09489c6.29629,7.00461 15.26393,17.63219 14.67184,26.08209c-0.43727,6.24043 -0.24625,12.55506 -1.65079,18.71573c-1.43935,6.3134 -4.34274,12.84512 -3.74975,19.37436c0.78799,8.67621 5.72764,17.24392 8.57329,25.26194c2.95254,8.31919 5.48778,16.9264 8.80558,25.05074c1.09018,2.66955 0.82857,5.94939 -2.97087,7.43729c-7.20886,2.82307 -10.199,-12.44215 -11.54775,-16.46759c-0.55155,-1.64615 -1.12342,-3.28479 -1.69302,-4.92423c-0.83274,-2.39685 -1.61845,-4.81232 -2.51397,-7.18462c-3.32509,-8.80839 -8.8014,-18.41947 -9.1485,-28.10265c-0.46871,-13.07588 5.76205,-25.05157 5.34659,-38.36426c-0.30777,-9.86168 -11.00869,-16.98359 -16.18492,-23.91092c-0.47792,-0.63959 -0.76055,-1.43256 -0.84465,-2.27223c-0.0192,-0.16769 -0.02988,-0.3384 -0.03163,-0.51173c-0.00351,-0.34817 0.02922,-0.6906 0.09478,-1.02374c0.00447,-0.02469 0.00909,-0.04938 0.01388,-0.07403c-3.44944,-1.59918 -8.62057,-2.28925 -11.91128,-2.11969c-4.79513,0.24708 -9.56075,0.02559 -14.18171,1.4888c-2.82798,0.89547 -6.66774,5.67457 -9.79661,3.87815c-1.4768,-0.8479 -2.83262,-2.36925 -2.97747,-4.06352c-0.55481,-6.48953 10.06002,-9.95208 15.08648,-10.59524c10.29226,-1.31694 29.17337,-2.36742 35.24997,7.76745z" fill="#4cc513" stroke-linecap="butt"/><path d="M387.81785,130.71972c1.38237,0.1739 2.00613,3.55995 2.29084,4.7714c1.49215,6.34928 1.71735,12.91117 1.96594,19.50167c0.27422,7.27 -0.62179,14.55982 -0.33116,21.76835c0.3487,8.64893 5.65244,16.52785 5.78273,25.13012c0.10397,6.86353 0.33305,13.72135 0.20758,20.59788c-0.04893,2.68165 -1.79292,5.20726 -5.19822,5.43745c-3.40804,0.23038 -5.19638,-2.05646 -5.30065,-4.72775c-0.26194,-6.70999 -0.07108,-13.45613 -0.20334,-20.17722c-0.15431,-7.84222 -4.34844,-15.91297 -5.61152,-23.70297c-1.10726,-6.82898 0.22305,-16.97279 0.15829,-23.43713c-0.05018,-5.00921 -0.31013,-10.76126 -1.26259,-15.71041c-0.35832,-1.8619 -1.45846,-4.12297 -1.10485,-6.03953c0.0408,-0.22112 0.10957,-0.42805 0.202,-0.62297c0.80482,-1.69733 3.40328,-2.48428 4.94446,-3.80576z" fill="#7ade4c" stroke-linecap="butt"/><path d="M347.05422,123.37898c-1.2113,0.86942 -5.88082,-1.46216 -7.58602,-1.34919c-1.64967,0.10929 -3.29936,0.2172 -4.94894,0.33454c-2.45284,0.17449 -3.3154,2.87818 -6.34837,2.87002c-3.50647,-0.00943 -5.54123,-4.57057 -4.1885,-7.6778c1.16781,-2.68249 4.18185,-3.13281 6.44174,-4.25835c4.40604,-2.19446 12.09436,-2.51671 17.06903,-0.03449c2.10037,1.04803 3.71698,2.59597 4.39858,4.71403z" fill="#9efd71" stroke-linecap="butt"/><path d="M359.90078,111.18909c1.31323,0.83662 2.175,2.27273 2.19197,3.95758c0.00045,0.04475 0.00029,0.08941 -0.00045,0.13397c0.14659,0.60232 0.00291,1.17334 -0.32791,1.70976c-0.73688,1.95904 -2.63319,3.44253 -4.86987,3.59373c-1.23097,0.6824 -2.23142,0.08779 -3.0862,-0.75591c-0.7359,-0.46317 -1.33182,-1.11377 -1.71938,-1.89077c-0.16627,-0.15473 -0.32772,-0.27838 -0.48555,-0.35616c-2.5581,-1.26081 -6.02953,-3.15662 -9.09355,-3.34992c-3.34142,-0.21081 -7.41841,0.01646 -10.60711,0.27925c-2.09116,0.17234 -2.85098,3.92154 -6.02032,3.11553c-1.67837,-0.42684 -3.62639,-1.0699 -4.43041,-2.54372c-2.89786,-5.31196 4.89812,-9.48033 9.01473,-10.64686c8.10002,-2.29533 23.4359,-0.05771 29.43404,6.75355z" fill="#67dc31" stroke-linecap="butt"/></g><path d="M259.84155,158.98324c-2.62659,-32.78322 23.55614,-61.62761 58.48075,-64.42577c34.92462,-2.79815 65.36587,21.50954 67.99246,54.29274c2.62659,32.78322 -23.98968,49.88148 -58.91429,52.67963c-34.92461,2.79815 -64.93233,-9.76339 -67.55892,-42.5466z" fill="#c8bfb0" stroke="#000000" stroke-width="0" stroke-linecap="butt"/><g><g fill="#a93232" stroke="none" stroke-width="0" stroke-linecap="butt"><path d="M334.92372,204.19324c0.14685,2.17234 -1.74169,4.06908 -4.21816,4.23649c-2.47647,0.1674 -4.60309,-1.45792 -4.74994,-3.63026c-0.14685,-2.17234 1.74169,-4.06908 4.21816,-4.23649c2.47647,-0.1674 4.60309,1.45792 4.74994,3.63026z"/><path d="M329.49143,205.66683c0.1116,1.65098 -1.59417,3.11079 -3.80997,3.26057c-2.21579,0.14978 -4.10252,-1.06718 -4.21412,-2.71816c-0.1116,-1.65098 1.59417,-3.11079 3.80997,-3.26057c2.21579,-0.14978 4.10252,1.06718 4.21412,2.71816z"/><path d="M326.12797,209.6875c0.10573,1.56409 -1.85136,2.97012 -4.37128,3.14046c-2.51992,0.17034 -4.64843,-0.95951 -4.75416,-2.5236c-0.10573,-1.56409 1.85136,-2.97012 4.37128,-3.14046c2.51992,-0.17034 4.64843,0.95951 4.75416,2.5236z"/><path d="M331.81955,205.03529c4.69226,-0.31719 8.61037,1.11627 8.75134,3.20172c0.14097,2.08545 -3.54858,4.03317 -8.24084,4.35036c-4.69226,0.31719 -8.61037,-1.11627 -8.75134,-3.20172c-0.14097,-2.08545 3.54858,-4.03317 8.24084,-4.35036z"/><path d="M320.99442,210.9038c0.07342,1.08617 -1.17022,2.05478 -2.77775,2.16345c-1.60753,0.10867 -2.97022,-0.68376 -3.04364,-1.76993c-0.07342,-1.08617 1.17022,-2.05478 2.77775,-2.16345c1.60753,-0.10867 2.97022,0.68376 3.04364,1.76993z"/></g><path d="M302.97448,99.84994c0,0 0.11151,-0.04573 0.21143,0.00373c0.99217,-0.35392 2.00898,-0.62803 3.01442,-0.94147c0.21516,-0.07552 0.43159,-0.14573 0.64954,-0.20981c0.30537,-0.10272 0.60894,-0.21151 0.9097,-0.32978l0.1711,0.06834c0.71613,-0.13444 1.45134,-0.19257 2.21269,-0.14813l-1.83661,1.47643c-0.2634,0.10284 -0.53062,0.20609 -0.8008,0.3092c-1.52631,1.09422 -4.00147,1.92453 -5.61441,2.61808l0.12541,0.30574c2.46883,-0.73383 5.3488,-0.86806 7.86937,-1.03845l0.1359,-0.00919c0,0 0.24943,-0.01686 0.26629,0.23257c0.01686,0.24943 -0.23257,0.26629 -0.23257,0.26629l-0.1359,0.00919c-2.46653,0.16673 -5.29153,0.29268 -7.71245,1.00436l0.06422,0.15657c0.04846,-0.01348 0.09901,-0.02226 0.15118,-0.02578c0.35612,-0.02407 0.67094,0.20454 0.76909,0.53266l0.37451,1.15927l-0.00314,0.00101l0.00607,0.00829c0.07884,0.26762 0.15039,0.51125 0.21429,0.73724c0.26154,0.27661 0.49204,0.62631 0.69524,1.0134c0.47641,-0.13815 1.03186,-0.34009 1.59679,-0.55743l0.56911,-0.54333c1.17669,-1.12153 2.02991,-1.83059 3.19248,-2.31878l-0.10303,-0.21439l1.33664,-0.64238c0.08756,-0.04461 0.18538,-0.07263 0.28963,-0.07968c0.41327,-0.02794 0.77094,0.28444 0.79888,0.69771c0.01567,0.23185 -0.07576,0.4462 -0.23202,0.59464l-0.73183,0.70465c-0.52919,0.50935 -1.13168,1.27653 -1.76633,2.08624c0.16616,0.41619 0.28361,0.88443 0.43869,1.22811c0.88839,1.96866 1.63861,4.04069 2.38443,6.06798c0.48419,1.46662 0.82151,2.76162 1.04767,4.09942c0.14613,-0.09248 0.29195,-0.18544 0.42997,-0.28778c0.38936,-0.28869 0.79529,-0.55498 1.21246,-0.80367l-0.06595,-0.07658l1.12809,-0.97158c0.11954,-0.10523 0.27342,-0.17339 0.4446,-0.18496c0.41327,-0.02794 0.77094,0.28444 0.79888,0.69771c0.01063,0.15724 -0.02801,0.30643 -0.10272,0.43247l-0.53154,0.92726l-0.00246,-0.00141l-0.00164,0.00848c-0.80636,1.33827 -1.47805,2.64137 -2.10055,4.03368c0.31431,-0.45291 0.64439,-0.89217 0.99548,-1.27978c0.1905,-0.4734 0.35644,-0.87443 0.44918,-1.15039l0.14364,-0.09025l-0.04445,-0.0418l1.0261,-1.09137c0.12529,-0.13403 0.29972,-0.22267 0.49721,-0.23602c0.41327,-0.02794 0.77094,0.28444 0.79888,0.69771c0.00989,0.14626 -0.02285,0.28555 -0.0876,0.40573l-0.68311,1.32175l-0.23559,-0.12176c-0.09389,0.21307 -0.19361,0.42101 -0.29861,0.62489c-0.02379,0.10548 -0.04876,0.21753 -0.0749,0.33459c0.94092,-0.19256 1.66057,-0.01372 2.34841,0.44394c0.02443,-0.00411 0.04929,-0.00704 0.07453,-0.00875c0.41327,-0.02794 0.77094,0.28444 0.79888,0.69771c0.00089,0.01314 0.00143,0.02622 0.00164,0.03924c0.09117,0.08894 0.18317,0.182 0.27643,0.27897l0.12936,0.11173c0,0 0.1883,0.16445 0.02384,0.35274c-0.16445,0.1883 -0.35274,0.02384 -0.35274,0.02384l-0.14387,-0.12677l-0.10816,0.94629c-0.17103,1.49617 -0.281,3.02325 -0.41224,4.53471c0.5047,-1.70304 1.25073,-3.57921 1.5819,-4.85001c-0.09842,-1.76934 0.08852,-3.27286 0.52047,-4.87884c-0.09384,-0.12174 -0.00859,-0.27046 -0.00859,-0.27046c0.04853,-0.08292 0.10003,-0.16447 0.15432,-0.24469c0.09378,-0.31652 0.19661,-0.63835 0.30821,-0.96821l0.09601,-0.28377c0,0 0.08012,-0.23681 0.31693,-0.15669c0.23681,0.08012 0.15669,0.31693 0.15669,0.31693l-0.04716,0.13939c1.32908,-1.2286 3.29137,-2.05197 4.83941,-2.55819c0.25435,-0.48662 0.5471,-0.97164 0.86815,-1.35697c0.08055,-0.17549 0.16046,-0.35149 0.23964,-0.52804l0.0368,-0.03342l-0.01326,-0.00808l0.77605,-1.27166c0.12166,-0.2052 0.33895,-0.34905 0.59496,-0.36635c0.41327,-0.02794 0.77094,0.28444 0.79888,0.69771c0.00766,0.11332 -0.01027,0.22247 -0.04885,0.32178l-0.34211,0.94284l-0.17978,-0.06523l-0.30003,0.49163c-0.00786,0.01761 -0.01572,0.03522 -0.02359,0.05283c-0.03412,0.08006 -0.06964,0.15903 -0.10642,0.23717c-0.66602,1.47873 -1.36706,2.93224 -2.08404,4.35912c-0.29032,1.13519 -0.46342,2.3603 -0.98338,3.3637c-0.73752,1.42323 -2.20119,2.75999 -3.09714,4.13877c-0.47939,0.73773 -0.92094,1.49296 -1.34723,2.25502c0.03121,0.01243 0.06295,0.02617 0.09522,0.04128c1.39576,0.65325 0.20541,3.73773 -0.25418,4.58525l-0.21569,0.82994c-0.07337,0.31213 -0.34304,0.55364 -0.67965,0.57639c-0.33661,0.02275 -0.63634,-0.18026 -0.75104,-0.47968l-0.35259,-0.8596l0.1877,-0.07698c-0.01554,-0.03485 -0.03033,-0.0695 -0.04442,-0.10404c-0.06468,0.04807 -0.13084,0.09245 -0.19833,0.13264l-0.03067,0.17605c-0.05168,0.34002 -0.33359,0.61073 -0.69095,0.63489c-0.06,0.00406 -0.11883,0.00094 -0.17564,-0.00862l-0.20998,0.80799c-0.07337,0.31213 -0.34304,0.55364 -0.67965,0.57639c-0.41327,0.02794 -0.77094,-0.28444 -0.79888,-0.69771l-0.06055,-0.89579l0.25812,-0.01745l0.05767,-0.22192c0.01249,-0.35182 0.10617,-0.64119 0.2632,-0.90887c-0.02786,-0.14983 -0.05379,-0.33672 -0.07722,-0.5384c-0.19198,-0.60368 -0.64189,-1.64146 -1.01127,-2.68434c-0.33164,0.00018 -0.6191,-0.21773 -0.71539,-0.52536l-0.47017,-1.39263c-0.06478,-0.16412 -0.13141,-0.32598 -0.19829,-0.48646c-0.17144,0.01016 -0.36046,-0.04441 -0.56934,-0.18866c-0.03938,-0.0272 -0.07669,-0.05606 -0.11199,-0.08651l0.0576,0.8983c0.02665,0.41231 -0.28534,0.76873 -0.69786,0.79661c-0.36782,0.02486 -0.6916,-0.21986 -0.77806,-0.56535l-0.28855,-1.06369c-0.12648,0.14854 -0.31046,0.2479 -0.52048,0.2621c-0.41327,0.02794 -0.77094,-0.28444 -0.79888,-0.69771l-0.06055,-0.89579l0.29224,-0.01976c-0.01361,-0.45131 0.02601,-0.90318 0.108,-1.35362c-0.15574,-0.33818 -0.34641,-0.74289 -0.54895,-1.18427c-0.05422,0.01664 -0.1112,0.02736 -0.17022,0.03135c-0.35612,0.02407 -0.67094,-0.20454 -0.76909,-0.53266l-0.37451,-1.15927l0.01363,-0.0044l-0.02507,-0.03459c-0.06025,-0.28936 -0.11976,-0.57194 -0.17728,-0.84919c-0.15608,-0.45236 -0.24062,-0.98902 -0.29196,-1.49754c-0.02295,-0.13104 -0.04484,-0.26143 -0.06553,-0.39134c-0.07412,0.03102 -0.15451,0.05057 -0.23914,0.05629c-0.32194,0.02176 -0.61013,-0.16299 -0.735,-0.44107c-0.11035,0.08028 -0.24392,0.13142 -0.39012,0.1413c-0.34439,0.02328 -0.65018,-0.18977 -0.7587,-0.5006l-0.47641,-1.26971l-0.13669,-0.23269l0.00864,-0.00507c-0.00796,-0.00738 -0.01591,-0.01475 -0.02387,-0.02213l-0.00624,-0.03158l-0.00784,0.00377l-0.64238,-1.33664c-0.04461,-0.08756 -0.07263,-0.18538 -0.07968,-0.28963c-0.00049,-0.00722 -0.00088,-0.01443 -0.00115,-0.02162c-0.01603,-0.03297 -0.03215,-0.06613 -0.04835,-0.09947l0.01837,0.29752c0.02576,0.41165 -0.28596,0.7672 -0.69796,0.79505c-0.36782,0.02486 -0.6916,-0.21986 -0.77806,-0.56535l-0.38556,-1.42132c-0.31158,-0.96311 -0.65157,-1.80526 -0.94728,-2.62649c-0.12485,0.1866 -0.33177,0.31533 -0.57309,0.33165c-0.08045,0.00544 -0.15879,-0.00202 -0.23299,-0.0206l-0.17079,0.95218c-0.05309,0.33834 -0.3343,0.60725 -0.6904,0.63132c-0.30582,0.02067 -0.5812,-0.14501 -0.71504,-0.40004l-0.45461,-0.82205l0.00616,-0.00341l-0.01684,-0.01659c-1.31145,-2.75051 -2.71464,-5.81421 -2.44641,-8.86316l-0.20681,0.01398l-0.06055,-0.89579c-0.00131,-0.01942 -0.00188,-0.03871 -0.00171,-0.05785c-0.09972,-0.07545 -0.20482,-0.14861 -0.31625,-0.21917c0,0 -0.62898,-0.40851 -0.22048,-1.03749c0.40851,-0.62898 1.03749,-0.22048 1.03749,-0.22048c0.08229,0.05455 0.16185,0.11009 0.23894,0.16653c0.06816,-0.02611 0.14132,-0.04262 0.21794,-0.0478c0.32246,-0.0218 0.61106,0.16359 0.7356,0.44244c1.15955,-0.0389 2.34044,-0.11125 3.36283,-0.53061zM299.89472,101.07026c0.08752,-0.00106 0.17205,0.01308 0.25094,0.04006c0.18572,-0.12724 0.41602,-0.21633 0.65396,-0.29722c-0.32768,0.0268 -0.65793,0.04338 -0.98728,0.05636zM321.71066,122.03757c0.1267,-0.1598 0.31774,-0.26765 0.53724,-0.28249c0.41327,-0.02794 0.77094,0.28444 0.79888,0.69771l0.02345,0.34684c0.68309,-0.65401 1.3931,-1.30202 1.76895,-2.06304c0.51857,-1.05003 1.0563,-2.10219 1.59355,-3.16445c0.09303,-0.34846 0.19973,-0.6866 0.33423,-1.00465c0.11948,-0.28252 0.27923,-0.66445 0.4723,-1.07844c-1.69877,0.58916 -3.87841,1.59807 -4.8976,3.08023c-0.34759,1.18336 -0.56326,2.28625 -0.63099,3.46828zM311.78039,114.23775c-0.74105,-2.01345 -1.48521,-4.07194 -2.36806,-6.02697c-0.08593,-0.1903 -0.2004,-0.59877 -0.33528,-0.98519c-0.28547,0.36205 -0.57577,0.7247 -0.86731,1.06928c0.39074,0.67409 0.80545,1.79358 0.90538,2.03723c0.40158,0.97913 1.10762,2.06604 1.782,3.19401l0.02358,0.03067l-0.0036,0.00277c1.01227,1.69602 1.94555,3.48326 1.65966,5.13542c0.08411,-0.07919 0.17396,-0.15161 0.26726,-0.21997c-0.22066,-1.38725 -0.5607,-2.71311 -1.06362,-4.23724zM316.33302,123.81233c0.38052,-0.32577 0.79039,-0.58638 1.22685,-0.4761c0.35553,0.08984 0.5784,0.24344 0.7075,0.43413c0.02093,-0.03599 0.04207,-0.07189 0.06339,-0.10768l-0.11604,-0.04652l0.55193,-1.37691c0.0259,-0.06885 0.06167,-0.13309 0.10573,-0.19087c-0.56648,-0.32194 -1.17417,-0.41031 -1.99914,-0.18862c-0.14938,0.64737 -0.32915,1.36456 -0.54023,1.95256zM308.05972,111.64069c0.06276,0.31999 0.12355,0.63546 0.18081,0.94836c0.18241,0.70971 0.34958,1.42896 0.51856,2.16785c0.04061,0.03533 0.08072,0.07115 0.12033,0.10745c-0.00143,-0.19151 0.00819,-0.38164 0.0253,-0.56537l0.01323,-1.10886c-0.30428,-0.50034 -0.59688,-1.01339 -0.85823,-1.54943zM305.60322,109.1888c0.1546,-0.48295 0.36875,-0.93429 0.62873,-1.36376c-0.29723,0.1602 -0.61494,0.30377 -0.93737,0.42481l0.30618,0.74648l-0.10634,0.04362c0.03666,0.04945 0.07292,0.09906 0.10879,0.14885zM300.66029,107.3331c0.04337,0.12084 0.08773,0.24141 0.13307,0.36178l0.10114,-0.04149c-0.08015,-0.10607 -0.15817,-0.21282 -0.23422,-0.32029zM301.30164,108.95033c-0.00253,-0.0487 -0.00482,-0.09774 -0.00685,-0.14706c-0.06645,-0.07032 -0.1196,-0.15366 -0.15506,-0.24623l-0.24397,-0.59481c0.12838,0.32981 0.26389,0.6586 0.4059,0.9881z" fill="#a93232" stroke="none" stroke-width="0.5" stroke-linecap="butt"/><g stroke-linecap="butt"><path d="M258.554,157.74032c-1.66698,-24.66015 12.70667,-46.92338 34.70009,-57.74179c0.62183,-0.30588 2.39229,-2.47793 2.39229,-2.47793l2.83783,4.26268c0,0 0.66501,2.80715 1.90782,4.57787c0.57179,0.81467 3.74379,2.44473 3.74379,2.44473c0,0 1.67168,4.89329 3.58861,7.74444c1.157,1.72088 5.06143,0.75117 5.06143,0.75117c0,0 -0.9384,4.12714 -0.05035,5.94517c0.53988,1.10523 4.48956,3.46949 4.48956,3.46949l3.36658,6.56539l1.45825,-6.73283c0,0 1.98719,-2.08055 4.06152,-6.90279c4.12641,-9.59275 10.27848,-25.36951 13.58446,-24.54132c25.68603,6.43469 45.25789,27.61295 47.03964,53.97086c1.84362,27.27316 -15.93283,51.61451 -41.93801,60.78452c-1.23916,0.43696 -5.25826,1.70668 -5.25826,1.70668c0,0 -1.17502,-2.33625 -2.73044,-3.43817c-0.77384,-0.54822 -4.70616,-0.42637 -4.70616,-0.42637c0,0 -0.77769,-2.59424 -1.3248,-3.09567c-0.69839,-0.64008 -3.24666,0.59588 -3.24666,0.59588c0,0 -2.26302,-0.01048 -2.65068,0.39688c-0.44326,0.46577 -0.09146,1.89844 -0.09146,1.89844c0,0 -3.4286,0.39658 -4.44519,1.29533c-0.59866,0.52926 -0.34366,3.0261 -0.34366,3.0261c0,0 -2.77977,-0.87485 -4.16565,-0.73919c-1.761,0.17238 -3.20498,2.01146 -4.52982,1.79991c-28.44868,-4.54272 -50.83906,-26.85986 -52.75072,-55.13947z" fill="#4cc114" stroke="#000000" stroke-width="0"/><path d="M258.554,157.74032c-1.66698,-24.66015 12.70667,-46.92338 34.70009,-57.74179c0.62183,-0.30588 2.39229,-2.47793 2.39229,-2.47793l2.83783,4.26268c0,0 0.66501,2.80715 1.90782,4.57787c0.57179,0.81467 3.74379,2.44473 3.74379,2.44473c0,0 1.67168,4.89329 3.58861,7.74444c1.157,1.72088 5.06143,0.75117 5.06143,0.75117c0,0 -0.9384,4.12714 -0.05035,5.94517c0.53988,1.10523 4.48956,3.46949 4.48956,3.46949l3.36658,6.56539l1.45825,-6.73283c0,0 1.98719,-2.08055 4.06152,-6.90279c4.12641,-9.59275 10.27848,-25.36951 13.58446,-24.54132c25.68603,6.43469 45.25789,27.61295 47.03964,53.97086c0.35806,5.29692 -0.02395,10.48325 -1.06259,15.46932c-0.01113,0.05342 -124.92826,5.46864 -124.96593,5.33963c-1.13631,-3.89138 -1.86963,-7.95223 -2.15299,-12.14409z" fill="#70b012" stroke="#000000" stroke-width="0"/><path d="M258.554,157.74032c-1.66698,-24.66015 12.70667,-46.92338 34.70009,-57.74179c0.62183,-0.30588 2.39229,-2.47793 2.39229,-2.47793l2.83783,4.26268c0,0 0.66501,2.80715 1.90782,4.57787c0.57179,0.81467 3.74379,2.44473 3.74379,2.44473c0,0 1.67168,4.89329 3.58861,7.74444c1.157,1.72088 5.06143,0.75117 5.06143,0.75117c0,0 -0.9384,4.12714 -0.05035,5.94517c0.53988,1.10523 4.48956,3.46949 4.48956,3.46949l3.36658,6.56539l1.45825,-6.73283c0,0 1.98719,-2.08055 4.06152,-6.90279c4.12641,-9.59275 10.27848,-25.36951 13.58446,-24.54132c25.68603,6.43469 45.25789,27.61295 47.03964,53.97086c0.01168,0.17281 -128.16322,8.9354 -128.18151,8.66486z" fill="#84930f" stroke="#000000" stroke-width="0"/><path d="M260.13594,140.0095c4.33199,-17.24761 16.56756,-31.86985 33.11816,-40.01098c0.62183,-0.30588 2.39229,-2.47793 2.39229,-2.47793l2.83783,4.26268c0,0 0.66501,2.80715 1.90782,4.57787c0.57179,0.81467 3.74379,2.44473 3.74379,2.44473c0,0 1.67168,4.89329 3.58861,7.74444c1.157,1.72088 5.06143,0.75117 5.06143,0.75117c0,0 -0.9384,4.12714 -0.05035,5.94517c0.53988,1.10523 4.48956,3.46949 4.48956,3.46949l3.36658,6.56539l1.45825,-6.73283c0,0 1.98719,-2.08055 4.06152,-6.90279c4.12641,-9.59275 10.27848,-25.36951 13.58446,-24.54132c19.7044,4.93622 35.81073,18.54873 43.04801,36.52005c0.14928,0.37069 -122.68971,8.71036 -122.60795,8.38485z" fill="#7a6c00" stroke="#000000" stroke-width="0"/><path d="M262.51248,142.89776c-0.02086,-0.30858 0.07211,-0.59856 0.24305,-0.82885c-0.07286,-0.00454 -0.1442,-0.01537 -0.21344,-0.03202c-0.2493,0.17066 -0.54608,0.27897 -0.86932,0.30082c-0.9643,0.06518 -1.79886,-0.66369 -1.86404,-1.62799c-0.06518,-0.9643 0.66369,-1.79886 1.62799,-1.86404c0.5493,-0.03713 1.05649,0.18339 1.40336,0.55832c0.27727,-0.50653 0.79916,-0.86526 1.41803,-0.90709c0.25059,-0.01694 0.49242,0.01974 0.71427,0.10025c0.29175,-0.30816 0.69571,-0.51167 1.15248,-0.54254c0.26002,-0.01758 0.5106,0.02258 0.73921,0.10952c0.2702,-0.21835 0.60792,-0.35864 0.98085,-0.38385c0.9643,-0.06518 1.79886,0.66369 1.86404,1.62799c0.06518,0.9643 -0.66369,1.79886 -1.62799,1.86404c-0.26002,0.01758 -0.5106,-0.02258 -0.73921,-0.10952c-0.2702,0.21835 -0.60792,0.35864 -0.98085,0.38385c-0.25059,0.01694 -0.49242,-0.01974 -0.71427,-0.10025c-0.2517,0.26586 -0.58691,0.45383 -0.96751,0.52025c0.1864,0.20214 0.30766,0.46683 0.32764,0.76252c0.04656,0.68879 -0.47406,1.2849 -1.16285,1.33146c-0.68879,0.04656 -1.2849,-0.47406 -1.33146,-1.16285z" fill="#7a6c00" stroke="none" stroke-width="0.5"/><path d="M276.98332,139.86486c0.04656,0.68879 -0.47406,1.2849 -1.16285,1.33146c-0.57905,0.03914 -1.0926,-0.32257 -1.26921,-0.84806c-0.06818,0.01287 -0.13785,0.02184 -0.20881,0.02663c-0.10205,0.0069 -0.20264,0.00491 -0.30102,-0.00532c0.19431,0.20395 0.32115,0.47443 0.34163,0.77745c0.04656,0.68879 -0.47406,1.2849 -1.16285,1.33146c-0.68879,0.04656 -1.2849,-0.47406 -1.33146,-1.16285c-0.01279,-0.18927 0.01724,-0.37154 0.08182,-0.53733c-0.73507,-0.16637 -1.30549,-0.79864 -1.35892,-1.5891c-0.06518,-0.9643 0.66369,-1.79886 1.62799,-1.86404c0.25059,-0.01694 0.49242,0.01974 0.71427,0.10025c0.29175,-0.30816 0.69571,-0.51167 1.15248,-0.54254c0.9643,-0.06518 1.79886,0.66369 1.86404,1.62799c0.0048,0.07095 0.00529,0.14119 0.00171,0.21049c0.54447,0.10428 0.97201,0.56448 1.01116,1.14353z" fill="#7a6c00" stroke="none" stroke-width="0.5"/><path d="M278.43588,138.02807c-0.06518,-0.9643 0.66369,-1.79886 1.62799,-1.86404c0.9643,-0.06518 1.79886,0.66369 1.86404,1.62799c0.06518,0.9643 -0.66369,1.79886 -1.62799,1.86404c-0.9643,0.06518 -1.79886,-0.66369 -1.86404,-1.62799z" fill="#7a6c00" stroke="none" stroke-width="0.5"/><path d="M332.50818,135.95342c-0.06518,-0.9643 0.66369,-1.79886 1.62799,-1.86404c0.9643,-0.06518 1.79886,0.66369 1.86404,1.62799c0.06518,0.9643 -0.66369,1.79886 -1.62799,1.86404c-0.9643,0.06518 -1.79886,-0.66369 -1.86404,-1.62799z" fill="#7a6c00" stroke="none" stroke-width="0.5"/><path d="M327.77297,138.15858c-0.20089,0.01358 -0.3939,-0.02109 -0.56769,-0.09411c-0.02334,0.00251 -0.04684,0.00457 -0.07046,0.00617c-0.63381,0.04284 -1.21159,-0.25736 -1.55167,-0.74199c-0.27177,0.52599 -0.80388,0.90122 -1.43769,0.94406c-0.38958,0.02633 -0.75798,-0.07693 -1.06304,-0.27298c-0.27613,0.51079 -0.80028,0.8731 -1.42242,0.91516c-0.56165,0.03797 -1.07928,-0.19344 -1.42653,-0.58385c-0.2361,0.1475 -0.51091,0.24066 -0.80807,0.26074c-0.37185,0.02514 -0.72441,-0.06781 -1.021,-0.24679c-0.10905,0.53828 -0.56653,0.95934 -1.14097,0.99817c-0.5795,0.03917 -1.09339,-0.32312 -1.26961,-0.84928c-0.2783,0.50257 -0.79809,0.85797 -1.41391,0.8996c-0.46237,0.03126 -0.89492,-0.12006 -1.22713,-0.39235c-0.02103,0.00218 -0.04219,0.00399 -0.06346,0.00543c-0.9643,0.06518 -1.79886,-0.66369 -1.86404,-1.62799c-0.06518,-0.9643 0.66369,-1.79886 1.62799,-1.86404c0.46237,-0.03126 0.89492,0.12006 1.22713,0.39235c0.02103,-0.00218 0.04219,-0.00399 0.06346,-0.00543c0.89962,-0.06081 1.68632,0.56948 1.84074,1.43729c0.21094,-0.2768 0.53573,-0.46458 0.91023,-0.4899c0.16157,-0.01092 0.31805,0.00936 0.46351,0.05572c-0.03214,-0.93902 0.6865,-1.74097 1.631,-1.80482c0.56165,-0.03797 1.07928,0.19344 1.42653,0.58385c0.2361,-0.1475 0.51091,-0.24066 0.80807,-0.26074c0.38958,-0.02633 0.75798,0.07693 1.06304,0.27298c0.27613,-0.51079 0.80028,-0.8731 1.42242,-0.91516c0.63381,-0.04284 1.21159,0.25736 1.55167,0.74199c0.27177,-0.52599 0.80388,-0.90122 1.43769,-0.94406c0.88551,-0.05986 1.66161,0.54989 1.83301,1.39664c0.05587,-0.86212 0.74286,-1.57077 1.62837,-1.63063c0.9643,-0.06518 1.79886,0.66369 1.86404,1.62799c0.06518,0.9643 -0.66369,1.79886 -1.62799,1.86404c-0.70538,0.04768 -1.34134,-0.32952 -1.65752,-0.91297c-0.00566,0.6471 -0.50933,1.19052 -1.1657,1.23489z" fill="#7a6c00" stroke="none" stroke-width="0.5"/><path d="M261.49699,158.61376c0.04656,0.68879 -0.47406,1.2849 -1.16285,1.33146c-0.58925,0.03983 -1.11067,-0.33544 -1.27822,-0.87597c-0.4408,-0.29057 -0.74553,-0.77647 -0.78388,-1.34387c-0.06518,-0.9643 0.66369,-1.79886 1.62799,-1.86404c0.66807,-0.04516 1.27385,0.2908 1.60468,0.82213c0.28247,-0.48523 0.79297,-0.82615 1.39532,-0.86687c0.9643,-0.06518 1.79886,0.66369 1.86404,1.62799c0.06518,0.9643 -0.66369,1.79886 -1.62799,1.86404c-0.66807,0.04516 -1.27385,-0.2908 -1.60468,-0.82213c-0.0129,0.02215 -0.02626,0.044 -0.04009,0.06553c0.00238,0.02042 0.00428,0.04099 0.00569,0.06173z" fill="#84930f" stroke="none" stroke-width="0.5"/><path d="M271.31505,156.38111c0.68879,-0.04656 1.2849,0.47406 1.33146,1.16285c0.04656,0.68879 -0.47406,1.2849 -1.16285,1.33146c-0.35847,0.02423 -0.69185,-0.10517 -0.93572,-0.33194c-0.28767,0.28262 -0.67392,0.46773 -1.10783,0.49706c-0.9643,0.06518 -1.79886,-0.66369 -1.86404,-1.62799c-0.06518,-0.9643 0.66369,-1.79886 1.62799,-1.86404c0.71758,-0.04851 1.36333,0.34271 1.67364,0.94344c0.13407,-0.06158 0.2814,-0.10029 0.43735,-0.11083z" fill="#84930f" stroke="none" stroke-width="0.5"/><path d="M319.27266,154.86628c-0.00616,-0.09119 -0.00239,-0.18077 0.01041,-0.26765c-0.15231,-0.23903 -0.24859,-0.51853 -0.26905,-0.82124c-0.06518,-0.9643 0.66369,-1.79886 1.62799,-1.86404c0.9643,-0.06518 1.79886,0.66369 1.86404,1.62799c0.04403,0.65136 -0.27425,1.24353 -0.78265,1.57936c-0.13924,0.49474 -0.57718,0.87179 -1.11928,0.90844c-0.68879,0.04656 -1.2849,-0.47406 -1.33146,-1.16285z" fill="#84930f" stroke="none" stroke-width="0.5"/><path d="M323.126,153.81552c-0.06518,-0.9643 0.66369,-1.79886 1.62799,-1.86404c0.9643,-0.06518 1.79886,0.66369 1.86404,1.62799c0.06518,0.9643 -0.66369,1.79886 -1.62799,1.86404c-0.9643,0.06518 -1.79886,-0.66369 -1.86404,-1.62799z" fill="#84930f" stroke="none" stroke-width="0.5"/><path d="M263.40611,167.97952c0.68879,-0.04656 1.2849,0.47406 1.33146,1.16285c0.03715,0.54964 -0.28685,1.04026 -0.76928,1.23972c-0.18444,0.7089 -0.80496,1.2529 -1.57599,1.30502c-0.9643,0.06518 -1.79886,-0.66369 -1.86404,-1.62799c-0.06518,-0.9643 0.66369,-1.79886 1.62799,-1.86404c0.19286,-0.01304 0.38052,0.00569 0.55789,0.0517c0.19153,-0.15201 0.42955,-0.24953 0.69198,-0.26727z" fill="#70b012" stroke="none" stroke-width="0.5"/><path d="M272.94257,171.10502c-0.20089,0.01358 -0.3939,-0.02109 -0.56769,-0.09411c-0.02334,0.00251 -0.04684,0.00457 -0.07046,0.00617c-0.59024,0.0399 -1.13188,-0.21771 -1.47822,-0.6447c-0.25814,0.18876 -0.57107,0.30907 -0.91371,0.33223c-0.9643,0.06518 -1.79886,-0.66369 -1.86404,-1.62799c-0.06518,-0.9643 0.66369,-1.79886 1.62799,-1.86404c0.59024,-0.0399 1.13188,0.21771 1.47822,0.6447c0.25814,-0.18876 0.57107,-0.30907 0.91371,-0.33223c0.25204,-0.01704 0.49522,0.02018 0.71811,0.10165c0.2099,-0.11074 0.44586,-0.18033 0.6979,-0.19737c0.9643,-0.06518 1.79886,0.66369 1.86404,1.62799c0.06518,0.9643 -0.66369,1.79886 -1.62799,1.86404c-0.07004,0.00473 -0.13939,0.00528 -0.20782,0.00185c-0.16703,0.10279 -0.36077,0.16766 -0.57004,0.18181z" fill="#70b012" stroke="none" stroke-width="0.5"/><path d="M318.42242,165.84106c0.20089,-0.01358 0.3939,0.02109 0.56769,0.09411c0.02334,-0.00251 0.04684,-0.00457 0.07046,-0.00617c0.26002,-0.01758 0.5106,0.02258 0.73921,0.10952c0.2702,-0.21835 0.60792,-0.35864 0.98085,-0.38385c0.9643,-0.06518 1.79886,0.66369 1.86404,1.62799c0.06518,0.9643 -0.66369,1.79886 -1.62799,1.86404c-0.26002,0.01758 -0.5106,-0.02258 -0.73921,-0.10952c-0.2702,0.21835 -0.60792,0.35864 -0.98085,0.38385c-0.41254,0.02789 -0.80133,-0.08956 -1.11629,-0.30859c-0.15038,0.05441 -0.3108,0.08895 -0.47833,0.10028c-0.9643,0.06518 -1.79886,-0.66369 -1.86404,-1.62799c-0.06518,-0.9643 0.66369,-1.79886 1.62799,-1.86404c0.28754,-0.01944 0.56355,0.03173 0.81107,0.13869c0.0475,-0.00881 0.09602,-0.01498 0.1454,-0.01832z" fill="#70b012" stroke="none" stroke-width="0.5"/><path d="M329.77,165.36312c0.9643,-0.06518 1.79886,0.66369 1.86404,1.62799c0.06518,0.9643 -0.66369,1.79886 -1.62799,1.86404c-0.43138,0.02916 -0.83679,-0.10059 -1.15898,-0.33924c-0.25489,0.18181 -0.56171,0.29749 -0.89701,0.32016c-0.9643,0.06518 -1.79886,-0.66369 -1.86404,-1.62799c-0.06518,-0.9643 0.66369,-1.79886 1.62799,-1.86404c0.43138,-0.02916 0.83679,0.10059 1.15898,0.33924c0.25489,-0.18181 0.56171,-0.29749 0.89701,-0.32016z" fill="#70b012" stroke="none" stroke-width="0.5"/><path d="M267.48559,143.98408c-0.04656,-0.68879 0.47406,-1.2849 1.16285,-1.33146c0.68879,-0.04656 1.2849,0.47406 1.33146,1.16285c0.04656,0.68879 -0.47406,1.2849 -1.16285,1.33146c-0.68879,0.04656 -1.2849,-0.47406 -1.33146,-1.16285z" fill="#7a6c00" stroke="none" stroke-width="0.5"/><path d="M319.63795,141.56505c-0.04656,-0.68879 0.47406,-1.2849 1.16285,-1.33146c0.68879,-0.04656 1.2849,0.47406 1.33146,1.16285c0.04656,0.68879 -0.47406,1.2849 -1.16285,1.33146c-0.68879,0.04656 -1.2849,-0.47406 -1.33146,-1.16285z" fill="#7a6c00" stroke="none" stroke-width="0.5"/><path d="M323.40336,141.15245c-0.04656,-0.68879 0.47406,-1.2849 1.16285,-1.33146c0.68879,-0.04656 1.2849,0.47406 1.33146,1.16285c0.04656,0.68879 -0.47406,1.2849 -1.16285,1.33146c-0.68879,0.04656 -1.2849,-0.47406 -1.33146,-1.16285z" fill="#7a6c00" stroke="none" stroke-width="0.5"/><path d="M261.19694,160.8468c-0.04656,-0.68879 0.47406,-1.2849 1.16285,-1.33146c0.68879,-0.04656 1.2849,0.47406 1.33146,1.16285c0.04656,0.68879 -0.47406,1.2849 -1.16285,1.33146c-0.68879,0.04656 -1.2849,-0.47406 -1.33146,-1.16285z" fill="#84930f" stroke="none" stroke-width="0.5"/><path d="M263.92481,161.45267c-0.04656,-0.68879 0.47406,-1.2849 1.16285,-1.33146c0.68879,-0.04656 1.2849,0.47406 1.33146,1.16285c0.04656,0.68879 -0.47406,1.2849 -1.16285,1.33146c-0.68879,0.04656 -1.2849,-0.47406 -1.33146,-1.16285z" fill="#84930f" stroke="none" stroke-width="0.5"/><path d="M321.47755,157.08804c-0.04656,-0.68879 0.47406,-1.2849 1.16285,-1.33146c0.68879,-0.04656 1.2849,0.47406 1.33146,1.16285c0.04656,0.68879 -0.47406,1.2849 -1.16285,1.33146c-0.68879,0.04656 -1.2849,-0.47406 -1.33146,-1.16285z" fill="#84930f" stroke="none" stroke-width="0.5"/><path d="M267.72249,173.20806c-0.04656,-0.68879 0.47406,-1.2849 1.16285,-1.33146c0.68879,-0.04656 1.2849,0.47406 1.33146,1.16285c0.04656,0.68879 -0.47406,1.2849 -1.16285,1.33146c-0.68879,0.04656 -1.2849,-0.47406 -1.33146,-1.16285z" fill="#70b012" stroke="none" stroke-width="0.5"/><path d="M325.88318,168.65586c0.68879,-0.04656 1.2849,0.47406 1.33146,1.16285c0.04656,0.68879 -0.47406,1.2849 -1.16285,1.33146c-0.21729,0.01469 -0.42537,-0.02707 -0.60988,-0.11275c-0.20927,0.30072 -0.54822,0.50715 -0.9422,0.53378c-0.68879,0.04656 -1.2849,-0.47406 -1.33146,-1.16285c-0.04656,-0.68879 0.47406,-1.2849 1.16285,-1.33146c0.21729,-0.01469 0.42537,0.02707 0.60988,0.11275c0.20927,-0.30072 0.54822,-0.50715 0.9422,-0.53378z" fill="#70b012" stroke="none" stroke-width="0.5"/><path d="M260.54092,148.40487c-0.02794,-0.41327 0.28444,-0.77094 0.69771,-0.79888c0.41327,-0.02794 0.77094,0.28444 0.79888,0.69771c0.02794,0.41327 -0.28444,0.77094 -0.69771,0.79888c-0.41327,0.02794 -0.77094,-0.28444 -0.79888,-0.69771z" fill="#7a6c00" stroke="none" stroke-width="0.5"/><path d="M267.58065,149.6676c-0.02794,-0.41327 0.28444,-0.77094 0.69771,-0.79888c0.41327,-0.02794 0.77094,0.28444 0.79888,0.69771c0.02794,0.41327 -0.28444,0.77094 -0.69771,0.79888c-0.41327,0.02794 -0.77094,-0.28444 -0.79888,-0.69771z" fill="#7a6c00" stroke="none" stroke-width="0.5"/><path d="M319.4906,146.00052c-0.02794,-0.41327 0.28444,-0.77094 0.69771,-0.79888c0.41327,-0.02794 0.77094,0.28444 0.79888,0.69771c0.02794,0.41327 -0.28444,0.77094 -0.69771,0.79888c-0.41327,0.02794 -0.77094,-0.28444 -0.79888,-0.69771z" fill="#7a6c00" stroke="none" stroke-width="0.5"/><path d="M322.45026,147.6971c-0.02794,-0.41327 0.28444,-0.77094 0.69771,-0.79888c0.41327,-0.02794 0.77094,0.28444 0.79888,0.69771c0.02794,0.41327 -0.28444,0.77094 -0.69771,0.79888c-0.41327,0.02794 -0.77094,-0.28444 -0.79888,-0.69771z" fill="#7a6c00" stroke="none" stroke-width="0.5"/><path d="M264.98296,165.01639c-0.02794,-0.41327 0.28444,-0.77094 0.69771,-0.79888c0.41327,-0.02794 0.77094,0.28444 0.79888,0.69771c0.02794,0.41327 -0.28444,0.77094 -0.69771,0.79888c-0.41327,0.02794 -0.77094,-0.28444 -0.79888,-0.69771z" fill="#84930f" stroke="none" stroke-width="0.5"/><path d="M268.76744,162.5478c-0.02794,-0.41327 0.28444,-0.77094 0.69771,-0.79888c0.41327,-0.02794 0.77094,0.28444 0.79888,0.69771c0.02794,0.41327 -0.28444,0.77094 -0.69771,0.79888c-0.41327,0.02794 -0.77094,-0.28444 -0.79888,-0.69771z" fill="#84930f" stroke="none" stroke-width="0.5"/><path d="M322.01271,162.26764c-0.02794,-0.41327 0.28444,-0.77094 0.69771,-0.79888c0.41327,-0.02794 0.77094,0.28444 0.79888,0.69771c0.02794,0.41327 -0.28444,0.77094 -0.69771,0.79888c-0.41327,0.02794 -0.77094,-0.28444 -0.79888,-0.69771z" fill="#84930f" stroke="none" stroke-width="0.5"/><path d="M326.96455,163.03929c-0.02794,-0.41327 0.28444,-0.77094 0.69771,-0.79888c0.41327,-0.02794 0.77094,0.28444 0.79888,0.69771c0.02794,0.41327 -0.28444,0.77094 -0.69771,0.79888c-0.41327,0.02794 -0.77094,-0.28444 -0.79888,-0.69771z" fill="#84930f" stroke="none" stroke-width="0.5"/><path d="M265.71681,175.8725c-0.02794,-0.41327 0.28444,-0.77094 0.69771,-0.79888c0.41327,-0.02794 0.77094,0.28444 0.79888,0.69771c0.02794,0.41327 -0.28444,0.77094 -0.69771,0.79888c-0.41327,0.02794 -0.77094,-0.28444 -0.79888,-0.69771z" fill="#70b012" stroke="none" stroke-width="0.5"/><path d="M271.61266,176.58033c-0.02794,-0.41327 0.28444,-0.77094 0.69771,-0.79888c0.41327,-0.02794 0.77094,0.28444 0.79888,0.69771c0.02794,0.41327 -0.28444,0.77094 -0.69771,0.79888c-0.41327,0.02794 -0.77094,-0.28444 -0.79888,-0.69771z" fill="#70b012" stroke="none" stroke-width="0.5"/><path d="M318.10097,174.54418c-0.02794,-0.41327 0.28444,-0.77094 0.69771,-0.79888c0.41327,-0.02794 0.77094,0.28444 0.79888,0.69771c0.02794,0.41327 -0.28444,0.77094 -0.69771,0.79888c-0.41327,0.02794 -0.77094,-0.28444 -0.79888,-0.69771z" fill="#70b012" stroke="none" stroke-width="0.5"/><path d="M326.86295,177.90324c-0.02794,-0.41327 0.28444,-0.77094 0.69771,-0.79888c0.41327,-0.02794 0.77094,0.28444 0.79888,0.69771c0.02794,0.41327 -0.28444,0.77094 -0.69771,0.79888c-0.41327,0.02794 -0.77094,-0.28444 -0.79888,-0.69771z" fill="#70b012" stroke="none" stroke-width="0.5"/><path d="M330.97054,173.20006c-0.02794,-0.41327 0.28444,-0.77094 0.69771,-0.79888c0.41327,-0.02794 0.77094,0.28444 0.79888,0.69771c0.02794,0.41327 -0.28444,0.77094 -0.69771,0.79888c-0.41327,0.02794 -0.77094,-0.28444 -0.79888,-0.69771z" fill="#70b012" stroke="none" stroke-width="0.5"/></g><path d="M271.22208,156.97258c-0.87462,-12.93848 9.40231,-25.10804 22.3408,-25.98266c12.93848,-0.87462 25.00964,10.72247 25.88425,23.66095c0.87462,12.93848 -8.02161,23.32591 -20.9601,24.20053c-12.93848,0.87462 -26.39034,-8.94035 -27.26495,-21.87883z" fill="#000000" stroke="#000000" stroke-width="0" stroke-linecap="butt"/><path d="M350.38046,175.34352c-12.93848,0.87462 -23.45217,-9.88954 -24.32679,-22.82802c-0.87462,-12.93848 10.0158,-21.58427 22.95428,-22.45888c12.93848,-0.87462 23.99732,6.85036 24.87194,19.78885c0.87462,12.93848 -10.56095,24.62343 -23.49943,25.49805z" fill="#000000" stroke="#000000" stroke-width="0" stroke-linecap="butt"/><path d="M341.17521,195.72915c0,0 -10.36283,2.37098 -15.35407,2.66663c-4.9916,0.29566 -14.59448,-0.89273 -14.59448,-0.89273" fill="none" stroke="#000000" stroke-width="0" stroke-linecap="round"/></g><path d="" fill="none" stroke="#000000" stroke-width="2" stroke-linecap="round"/><g stroke-linecap="butt"><path d="M291.30043,181.01423c-0.06293,0.14027 -0.1251,0.28034 -0.18643,0.42021c-0.29669,0.67658 -0.53608,1.35378 -0.77883,2.01007c-0.50064,3.18843 -1.06124,6.62765 -0.71533,9.72892c0,0 0.08067,0.74566 -0.66499,0.82631c-0.74566,0.08067 -0.82631,-0.66499 -0.82631,-0.66499c-0.09162,-0.87063 -0.14404,-1.75395 -0.16365,-2.64731c-0.00541,-0.00036 -0.01082,-0.0008 -0.01625,-0.00129c-0.41255,-0.03707 -0.71693,-0.40158 -0.67986,-0.81413l0.08248,-0.91766c0.04094,-0.45556 0.07333,-0.89419 0.1212,-1.32584c-0.00233,-0.01808 -0.00458,-0.03622 -0.00672,-0.05443c-0.25409,-0.13877 -0.41532,-0.41896 -0.38774,-0.72572l0.1026,-1.14154c0.57055,-6.34818 0.91138,-12.7137 1.48195,-19.06218c0.12783,-1.42236 -0.07832,-3.79711 0.55218,-5.28818c-0.0134,-0.12693 -0.02647,-0.25389 -0.0392,-0.3809l0.03068,-0.06939l-0.02768,-0.00249l0.12371,-1.3765c0.03707,-0.41255 0.40158,-0.71693 0.81413,-0.67986c0.41255,0.03707 0.71693,0.40158 0.67986,0.81413l-0.01106,0.12313l0.17737,-0.5078c0.1057,-0.32534 0.42523,-0.54645 0.78037,-0.51453c0.13365,0.01201 0.25595,0.05838 0.35896,0.12962l0.06929,-0.19928c0.10538,-0.32586 0.42521,-0.54746 0.78069,-0.51551c0.41255,0.03707 0.71693,0.40158 0.67986,0.81413l-0.13427,1.49397l-0.28509,-0.02562c-0.0246,0.91863 -0.14946,1.83847 -0.32788,2.75833c0.05117,0.4187 0.09198,0.84025 0.12504,1.26345l0.05761,0.19246l-0.04219,0.01263c0.0117,0.16163 0.02233,0.32348 0.03205,0.48547c0.70477,1.79517 1.05498,3.8103 1.18713,5.90889c0.13869,-0.64475 0.28725,-1.28953 0.4469,-1.93455c0.12693,-0.51283 0.24119,-1.00526 0.35531,-1.4803c0.00643,-0.07152 0.01285,-0.14304 0.01929,-0.21458c0.223,-2.4812 0.22412,-4.83435 0.94527,-7.07844l-0.27151,-0.06715l0.35732,-1.44481c0.08257,-0.3597 0.42013,-0.6122 0.798,-0.57824c0.40229,0.03616 0.70172,0.38364 0.68199,0.78344l-0.06434,1.49442c-0.01871,0.43468 -0.03942,0.86931 -0.06191,1.30391c0.08244,-0.02193 0.17003,-0.03006 0.25992,-0.02198c0.41255,0.03707 0.71693,0.40158 0.67986,0.81413l-0.12371,1.3765l-0.00795,-0.00071l0.00496,0.02825c-0.26618,1.5975 -0.7258,3.18433 -1.30275,4.75738c-0.36128,4.23082 -0.80952,8.45774 -1.18902,12.68018c-0.22078,2.45648 -0.03528,5.22078 -0.96449,7.4675l-0.00287,0.08638l0.25557,0.09214l-0.31959,0.88652c-0.10794,0.3216 -0.42547,0.53941 -0.77812,0.50771c-0.40011,-0.03596 -0.69847,-0.37988 -0.68228,-0.77693l0.02393,-0.71954c-0.15198,0.15439 -0.3693,0.24202 -0.60192,0.22111c-0.36718,-0.033 -0.64868,-0.32538 -0.68001,-0.68014l-0.12483,-1.15389l0.1977,-0.02139c-0.51658,-1.91918 -0.54592,-3.88623 -0.7526,-5.95916c-0.01444,-0.14483 -0.02835,-0.28963 -0.04174,-0.43439z" fill="#43663c" stroke="none" stroke-width="0.5"/><g stroke="#000000" stroke-width="0"><path d="M263.30979,201.15349c-0.46824,-12.95955 9.65797,-23.84492 22.61752,-24.31316c12.95955,-0.46824 23.84492,9.65796 24.31316,22.61751c0.46824,12.95955 -9.65797,23.84493 -22.61751,24.31317c-12.95955,0.46824 -23.84493,-9.65798 -24.31317,-22.61752z" fill="url(#color-1)"/><path d="M269.45368,209.55917c-0.19863,-5.49735 4.09685,-10.11486 9.5942,-10.31349c5.49735,-0.19863 10.11486,4.09685 10.31348,9.59421c0.19863,5.49735 -4.09685,10.11487 -9.5942,10.3135c-5.49735,0.19863 -10.11486,-4.09685 -10.31348,-9.59421z" fill="#000000"/></g><path d="M290.38275,160.27719c-0.01236,0.13752 -0.13386,0.23898 -0.27138,0.22662c-0.03937,-0.00353 -0.07579,-0.01602 -0.10743,-0.03526c-0.1336,0.08322 -0.29438,0.12523 -0.46321,0.11006c-0.31861,-0.02863 -0.5727,-0.25256 -0.65482,-0.54308c-0.33388,-0.0434 -0.66606,-0.08584 -0.99615,-0.1266c0.11609,0.14563 0.17846,0.33445 0.16047,0.53458c-0.03707,0.41255 -0.40158,0.71693 -0.81413,0.67986c-0.41255,-0.03707 -0.71693,-0.40158 -0.67986,-0.81413c0.01933,-0.21512 0.12768,-0.40082 0.28545,-0.52404c-0.41219,-0.04608 -0.82042,-0.08823 -1.22396,-0.12499l-0.04805,-0.02864l-0.00431,0.01823l-1.27323,-0.30083c-0.36345,-0.07976 -0.61948,-0.41924 -0.5853,-0.79958c0.03565,-0.39674 0.37411,-0.69345 0.76693,-0.68263l1.49356,0.02738l-0.00321,0.1752c1.5245,-0.20242 3.09539,-0.22478 4.67428,-0.16959c-0.01786,-0.01445 -0.0354,-0.03002 -0.05237,-0.04676c-0.2025,-0.0182 -0.40498,-0.0364 -0.60749,-0.0546c-1.87442,-0.16846 -3.74884,-0.33692 -5.62326,-0.50539l-1.27596,-0.11468c-0.41255,-0.03707 -0.71693,-0.40158 -0.67986,-0.81413c0.0342,-0.38045 0.34683,-0.66891 0.71882,-0.68241l1.311,-0.06858l0.00948,0.18126c0.0473,0.00425 0.14539,0.01307 0.19269,0.01732c1.39916,-0.20934 2.72837,-0.09849 4.38711,0.02649l0.55765,0.04207c0,0 0.47867,0.0361 0.64123,0.4335c3.07063,0.27598 6.14127,0.55195 9.2119,0.82793c1.42745,0.12829 3.44235,-0.05369 4.92916,0.44301c0.08709,0.00782 0.60701,0.05456 0.69409,0.06238l1.49397,0.13427c0.41255,0.03707 0.71693,0.40158 0.67986,0.81413c-0.03707,0.41255 -0.40158,0.71693 -0.81413,0.67986c-0.70433,-0.06331 -2.90265,-0.26087 -3.60698,-0.32418c-1.2368,-0.05191 -2.47667,-0.19318 -3.74206,-0.32537c0.12201,0.13562 0.19453,0.31515 0.19254,0.50864c0.61966,0.09132 1.20661,0.16952 1.74503,0.21881l0.05474,0.0371l0.00623,-0.02382l1.08103,0.28306c0.35478,0.08619 0.60267,0.42119 0.569,0.79582c-0.03707,0.41255 -0.40158,0.71693 -0.81413,0.67986l-1.49397,-0.13427l0.01397,-0.15539c-1.40823,0.11847 -2.86105,0.10297 -4.32939,0.01111c0.10911,0.14363 0.16704,0.32684 0.14962,0.52065c-0.03707,0.41255 -0.40158,0.71693 -0.81413,0.67986c-0.41255,-0.03707 -0.71693,-0.40158 -0.67986,-0.81413c0.01669,-0.18574 0.09975,-0.34955 0.22367,-0.47013c-1.53035,-0.13173 -3.06948,-0.32993 -4.58484,-0.53015c0.00126,0.01452 0.00128,0.02936 -0.00008,0.0444z" fill="#000000" stroke="none" stroke-width="0.5"/><path d="M289.84561,161.35676c0.03707,-0.41255 0.40158,-0.71693 0.81413,-0.67986c0.41255,0.03707 0.71693,0.40158 0.67986,0.81413c-0.03707,0.41255 -0.40158,0.71693 -0.81413,0.67986c-0.41255,-0.03707 -0.71693,-0.40158 -0.67986,-0.81413z" fill="#000000" stroke="none" stroke-width="0.5"/><path d="M297.94955,163.21293c0.03707,-0.41255 0.40158,-0.71693 0.81413,-0.67986c0.41255,0.03707 0.71693,0.40158 0.67986,0.81413c-0.03707,0.41255 -0.40158,0.71693 -0.81413,0.67986c-0.41255,-0.03707 -0.71693,-0.40158 -0.67986,-0.81413z" fill="#000000" stroke="none" stroke-width="0.5"/><path d="M295.27199,163.72417c0.03707,-0.41255 0.40158,-0.71693 0.81413,-0.67986c0.41255,0.03707 0.71693,0.40158 0.67986,0.81413c-0.03707,0.41255 -0.40158,0.71693 -0.81413,0.67986c-0.41255,-0.03707 -0.71693,-0.40158 -0.67986,-0.81413z" fill="#000000" stroke="none" stroke-width="0.5"/><path d="M283.89971,164.76978c0.03707,-0.41255 0.40158,-0.71693 0.81413,-0.67986c0.41255,0.03707 0.71693,0.40158 0.67986,0.81413c-0.03707,0.41255 -0.40158,0.71693 -0.81413,0.67986c-0.41255,-0.03707 -0.71693,-0.40158 -0.67986,-0.81413z" fill="#000000" stroke="none" stroke-width="0.5"/><path d="M291.66424,166.2195c0.03707,-0.41255 0.40158,-0.71693 0.81413,-0.67986c0.41255,0.03707 0.71693,0.40158 0.67986,0.81413c-0.03707,0.41255 -0.40158,0.71693 -0.81413,0.67986c-0.41255,-0.03707 -0.71693,-0.40158 -0.67986,-0.81413z" fill="#000000" stroke="none" stroke-width="0.5"/><path d="M291.7159,160.77296c0.01236,-0.13752 0.13386,-0.23898 0.27138,-0.22662c0.13752,0.01236 0.23898,0.13386 0.22662,0.27138c-0.01236,0.13752 -0.13386,0.23898 -0.27138,0.22662c-0.13752,-0.01236 -0.23898,-0.13386 -0.22662,-0.27138z" fill="#000000" stroke="none" stroke-width="0.5"/><path d="M295.31114,162.59985c0.01236,-0.13752 0.13386,-0.23898 0.27138,-0.22662c0.13752,0.01236 0.23898,0.13386 0.22662,0.27138c-0.01236,0.13752 -0.13386,0.23898 -0.27138,0.22662c-0.13752,-0.01236 -0.23898,-0.13386 -0.22662,-0.27138z" fill="#000000" stroke="none" stroke-width="0.5"/><path d="M288.41403,164.04766c0.01236,-0.13752 0.13386,-0.23898 0.27138,-0.22662c0.13752,0.01236 0.23898,0.13386 0.22662,0.27138c-0.01236,0.13752 -0.13386,0.23898 -0.27138,0.22662c-0.13752,-0.01236 -0.23898,-0.13386 -0.22662,-0.27138z" fill="#000000" stroke="none" stroke-width="0.5"/><path d="M289.93928,163.80881c0.01236,-0.13752 0.13386,-0.23898 0.27138,-0.22662c0.13752,0.01236 0.23898,0.13386 0.22662,0.27138c-0.01236,0.13752 -0.13386,0.23898 -0.27138,0.22662c-0.13752,-0.01236 -0.23898,-0.13386 -0.22662,-0.27138z" fill="#000000" stroke="none" stroke-width="0.5"/></g><g><path d="M364.48953,174.43093l0.62639,6.84983l-6.25662,-3.86229z" fill="#000000" stroke="#000000" stroke-width="0" stroke-linecap="round"/><path d="M345.05815,164.10737c0.16747,0.04135 0.28691,0.1117 0.37157,0.19553c0.6458,-3.93707 1.74055,-7.9684 3.2995,-11.43618c0.16401,-0.46171 0.32802,-0.92344 0.49202,-1.38514l0.27031,-0.75997c0.12445,-0.3639 0.50876,-0.57853 0.88918,-0.48461c0.33837,0.08354 0.56585,0.38458 0.57034,0.71752l0.05376,1.48245l-0.26703,0.00968c0.20634,2.31812 -0.23413,4.64475 -0.50937,7.04853c-0.39069,3.41212 -1.09613,6.83665 -1.75789,10.25559c-0.00391,0.30483 -0.00785,0.60764 -0.01209,0.90812c0.41048,-1.29584 0.80076,-2.59754 1.17566,-3.90373c0.23705,-1.99886 0.50984,-3.99804 0.77708,-6.01888l0.13701,-1.46951c0.00313,-0.04095 0.00968,-0.0822 0.01985,-0.1234c0.09928,-0.40214 0.50577,-0.64765 0.90791,-0.54837c0.08464,0.0209 0.16233,0.05539 0.23134,0.1006c0.20266,-1.16828 0.4309,-2.45087 0.92881,-3.42533c0.05709,-0.23101 0.11415,-0.46204 0.1712,-0.69307h-0.00001l0.35954,-1.45627c0.09928,-0.40214 0.50577,-0.64765 0.90791,-0.54837c0.40214,0.09928 0.64765,0.50577 0.54837,0.90791l-0.19469,0.78854c-0.00558,0.0226 -0.01116,0.04519 -0.01674,0.06779c0.05652,0.00071 0.11385,0.00785 0.17108,0.02198c0.29067,0.07177 0.49951,0.30404 0.55547,0.57915l0.22284,0.98907l-0.02844,0.00641l0.04185,0.07246c0.07238,6.20548 -0.54137,12.28636 -1.12821,18.4471c-0.27628,2.90052 -0.14825,5.77363 -1.00415,8.45946l0.26687,0.06589l-0.35954,1.45627c-0.09928,0.40214 -0.50577,0.64765 -0.90791,0.54837c-0.34653,-0.08556 -0.57674,-0.39921 -0.57027,-0.74163l-0.00267,-0.91244c-0.32454,-4.0442 -0.49664,-8.10583 -0.64109,-12.16486c-0.14842,0.57911 -0.29621,1.15839 -0.44356,1.73778c-0.04862,0.72003 -0.08961,1.44339 -0.12168,2.17129c-0.08916,2.02319 0.22408,3.63733 -0.20281,5.32638l0.30857,0.07618l-0.27606,1.11814c-0.09928,0.40214 -0.50577,0.64765 -0.90791,0.54837c-0.31255,-0.07717 -0.53048,-0.33989 -0.56546,-0.64194l-0.10278,-0.7376l-0.02264,0.50655c-0.00133,0.05349 -0.00845,0.10766 -0.02181,0.16175c-0.09928,0.40214 -0.50577,0.64765 -0.90791,0.54837c-0.34653,-0.08556 -0.57674,-0.39921 -0.57027,-0.74163l-0.00274,-0.93403l0.04279,-0.00013l-0.03744,-0.09154c0.04041,-0.16825 0.08092,-0.33646 0.12151,-0.50466c-0.05049,-0.11799 -0.09423,-0.24411 -0.13203,-0.3769c-0.06453,0.16017 -0.1316,0.31936 -0.20167,0.47747l-0.00151,0.0197l0.17632,0.04353l-0.27606,1.11814c-0.09928,0.40214 -0.50577,0.64765 -0.90791,0.54837c-0.36547,-0.09023 -0.60158,-0.43421 -0.56706,-0.79804l0.1067,-1.38468c0.24789,-3.14518 0.81206,-6.30359 1.41869,-9.4667c-0.01042,-1.54 0.0034,-3.11033 0.05897,-4.67981c-0.14384,0.60052 -0.28644,1.20171 -0.42802,1.8033c-0.05545,0.47279 -0.10403,0.94202 -0.14575,1.40646c-0.30142,3.3564 -0.12189,6.29691 -0.94094,9.61432c0,0 -0.17977,0.72813 -0.90791,0.54837c-0.37727,-0.09314 -0.51081,-0.3335 -0.55189,-0.54351c-0.27029,1.15884 -0.54315,2.31453 -0.82057,3.46552l-0.27606,1.11814c-0.09928,0.40214 -0.50577,0.64765 -0.90791,0.54837c-0.40214,-0.09928 -0.64765,-0.50577 -0.54837,-0.90791l0.27606,-1.11814c0.03617,-0.14237 0.0722,-0.28484 0.10808,-0.42742c-0.17116,-1.04406 0.28534,-2.44133 0.34845,-3.45163c0.22599,-3.61829 0.72918,-7.63483 1.59513,-11.15765l0.35821,-1.45087c0,0 0.17977,-0.72813 0.90791,-0.54837zM352.3729,166.0094c0.01556,0.7583 0.02441,1.52056 0.0448,2.28585c0.06756,2.53598 0.15881,5.07922 0.2838,7.62044c0.00076,-0.01931 0.00143,-0.03856 0.00202,-0.05774c0.1502,-4.8406 0.73389,-9.63355 1.02061,-14.46347c-0.23745,0.70689 -0.4699,1.37195 -0.62711,1.94284c-0.24509,0.89 -0.48618,1.78073 -0.72413,2.67209z" fill="#43663c" stroke="none" stroke-width="0.5" stroke-linecap="butt"/><g stroke="#000000" stroke-width="0" stroke-linecap="butt"><path d="M337.57708,205.89692c-10.88636,-7.04672 -13.99901,-21.58436 -6.95227,-32.47073c7.04672,-10.88636 21.58435,-13.99901 32.47071,-6.95229c10.88636,7.04672 13.99902,21.58435 6.9523,32.47072c-7.04672,10.88636 -21.58436,13.99902 -32.47072,6.95229z" fill="url(#color-2)"/><path d="M361.92112,194.37182c-3.5422,5.47227 -10.84985,7.03692 -16.32211,3.49472c-5.47227,-3.54219 -7.03689,-10.84986 -3.49471,-16.32212c3.5422,-5.47227 10.84986,-7.03691 16.32212,-3.49472c5.47227,3.54219 7.0369,10.84985 3.49471,16.32211z" fill="#000000"/></g><path d="M348.8494,155.49604c0.09928,-0.40214 0.50577,-0.64765 0.90791,-0.54837c0.40214,0.09928 0.64765,0.50577 0.54837,0.90791c-0.09928,0.40214 -0.50577,0.64765 -0.90791,0.54837c-0.40214,-0.09928 -0.64765,-0.50577 -0.54837,-0.90791z" fill="#000000" stroke="none" stroke-width="0.5" stroke-linecap="butt"/><path d="M354.71283,157.5222c0.09928,-0.40214 0.50577,-0.64765 0.90791,-0.54837c0.40214,0.09928 0.64765,0.50577 0.54837,0.90791c-0.09928,0.40214 -0.50577,0.64765 -0.90791,0.54837c-0.40214,-0.09928 -0.64765,-0.50577 -0.54837,-0.90791z" fill="#000000" stroke="none" stroke-width="0.5" stroke-linecap="butt"/><path d="M350.68087,150.42114l-0.41633,-0.07538c-0.05536,0.00202 -0.10435,0.00484 -0.14754,0.00848c0.15421,0.0279 0.30892,0.05771 0.46403,0.08921zM349.82315,150.20857c-0.12807,-0.03722 -0.20503,-0.16927 -0.17277,-0.29995c0.0331,-0.13405 0.16859,-0.21588 0.30264,-0.18279l0.84894,0.20959c0.13405,0.0331 0.21588,0.16859 0.18279,0.30264c-0.01706,0.0691 -0.06133,0.12433 -0.11858,0.15708l0.01554,0.11134c0.25946,0.05607 0.5198,0.11656 0.78044,0.18056c1.06026,0.19293 2.13526,0.42273 3.08956,0.72696c0.1305,0.01789 0.26119,0.03438 0.39205,0.04934c0.66425,0.07589 1.3258,0.09999 1.98635,0.12179c-0.78476,-0.1785 -1.55877,-0.40633 -2.34037,-0.5993c-2.76096,-0.68167 -5.51516,-1.53816 -8.15011,-2.59849c0,0 -0.69539,-0.28094 -0.41446,-0.97634c0.28094,-0.69539 0.97634,-0.41446 0.97634,-0.41446c3.04385,1.23498 6.21213,2.10449 9.40404,2.89255c0.08652,0.02136 2.57302,0.59176 2.71224,0.78501c0.86592,1.20197 0.47857,1.79159 -0.29307,2.12632c0.23726,0.05858 0.48917,0.12077 0.48917,0.12077c0.40214,0.09928 0.64765,0.50577 0.54837,0.90791c-0.08354,0.33837 -0.38458,0.56585 -0.71752,0.57034l-1.3455,0.04879l-0.00927,-0.25551c-0.33927,0.04067 -0.68113,0.06639 -1.02509,0.07875c-0.36672,0.08709 -0.72203,0.14966 -1.07013,0.19362c0.1685,0.1792 0.24552,0.43755 0.18217,0.69412c-0.01869,0.0757 -0.04826,0.14584 -0.08665,0.20918c0.09633,0.16313 0.13131,0.36265 0.08232,0.56109c-0.09928,0.40214 -0.50577,0.64765 -0.90791,0.54837c-0.17188,-0.04244 -0.31514,-0.14099 -0.4151,-0.27134c-0.14914,0.06885 -0.32181,0.0894 -0.49369,0.04696c-0.11853,-0.02927 -0.22345,-0.08521 -0.30995,-0.15988c0.06307,0.14542 0.08072,0.31193 0.0398,0.4777c-0.09928,0.40214 -0.50577,0.64765 -0.90791,0.54837c-0.03367,-0.00831 -0.06625,-0.01877 -0.09761,-0.03122c0.03706,0.12399 0.04249,0.25919 0.00923,0.39391c-0.09928,0.40214 -0.50577,0.64765 -0.90791,0.54837c-0.40214,-0.09928 -0.64765,-0.50577 -0.54837,-0.90791c0.09928,-0.40214 0.50577,-0.64765 0.90791,-0.54837c0.03367,0.00831 0.06625,0.01877 0.09761,0.03122c-0.03706,-0.12399 -0.04249,-0.25919 -0.00923,-0.39391c0.09928,-0.40214 0.50577,-0.64765 0.90791,-0.54837c0.11853,0.02927 0.22345,0.08521 0.30995,0.15988c-0.06293,-0.14511 -0.08065,-0.31119 -0.04007,-0.47659c-0.72169,-0.17804 -1.287,-0.28958 -1.78022,-0.43876c-1.32239,-0.23365 -2.63375,-0.57933 -3.94567,-0.9337c-0.03354,0.00604 -0.06887,0.00528 -0.10409,-0.00342c-0.03902,-0.00963 -0.07361,-0.02795 -0.10224,-0.05238c-0.07433,-0.02011 -0.14866,-0.04024 -0.22299,-0.06035c0.27603,0.16462 0.42469,0.49573 0.34366,0.82395c-0.09928,0.40214 -0.50577,0.64765 -0.90791,0.54837c-0.40214,-0.09928 -0.64765,-0.50577 -0.54837,-0.90791c0.08377,-0.3393 0.38624,-0.5671 0.72028,-0.57037c-0.54272,-0.14615 -1.08594,-0.29011 -1.6305,-0.42456l-0.9088,-0.22438c0,0 -0.72813,-0.17977 -0.54837,-0.90791c0.06612,-0.26783 0.20644,-0.41282 0.35742,-0.48911l-0.40373,-0.09968c-0.40214,-0.09928 -0.64765,-0.50577 -0.54837,-0.90791c0.09928,-0.40214 0.50577,-0.64765 0.90791,-0.54837l0.56677,0.13994c-0.00049,-0.06141 0.00661,-0.12387 0.02201,-0.18625c0.09928,-0.40214 0.50577,-0.64765 0.90791,-0.54837l1.44089,0.35575c0.30161,0.07447 0.64704,0.14475 1.02474,0.21403c0.46638,0.03261 0.94227,0.09103 1.424,0.16946c0.01681,-0.02952 0.03397,-0.05835 0.0516,-0.08625z" fill="#000000" stroke="none" stroke-width="0.5" stroke-linecap="butt"/><path d="M346.62566,155.9112c0.09928,-0.40214 0.50577,-0.64765 0.90791,-0.54837c0.40214,0.09928 0.64765,0.50577 0.54837,0.90791c-0.09928,0.40214 -0.50577,0.64765 -0.90791,0.54837c-0.40214,-0.09928 -0.64765,-0.50577 -0.54837,-0.90791z" fill="#000000" stroke="none" stroke-width="0.5" stroke-linecap="butt"/><path d="M346.90621,158.68021c0.09928,-0.40214 0.50577,-0.64765 0.90791,-0.54837c0.40214,0.09928 0.64765,0.50577 0.54837,0.90791c-0.09928,0.40214 -0.50577,0.64765 -0.90791,0.54837c-0.40214,-0.09928 -0.64765,-0.50577 -0.54837,-0.90791z" fill="#000000" stroke="none" stroke-width="0.5" stroke-linecap="butt"/><path d="M349.45085,159.30847c0.09928,-0.40214 0.50577,-0.64765 0.90791,-0.54837c0.40214,0.09928 0.64765,0.50577 0.54837,0.90791c-0.09928,0.40214 -0.50577,0.64765 -0.90791,0.54837c-0.40214,-0.09928 -0.64765,-0.50577 -0.54837,-0.90791z" fill="#000000" stroke="none" stroke-width="0.5" stroke-linecap="butt"/><path d="M358.48717,159.41826c0.09928,-0.40214 0.50577,-0.64765 0.90791,-0.54837c0.40214,0.09928 0.64765,0.50577 0.54837,0.90791c-0.09928,0.40214 -0.50577,0.64765 -0.90791,0.54837c-0.40214,-0.09928 -0.64765,-0.50577 -0.54837,-0.90791z" fill="#000000" stroke="none" stroke-width="0.5" stroke-linecap="butt"/><path d="M349.83748,156.70419c0.0331,-0.13405 0.16859,-0.21588 0.30264,-0.18279c0.13405,0.0331 0.21588,0.16859 0.18279,0.30264c-0.0331,0.13405 -0.16859,0.21588 -0.30264,0.18279c-0.13405,-0.0331 -0.21588,-0.16859 -0.18279,-0.30264z" fill="#000000" stroke="none" stroke-width="0.5" stroke-linecap="butt"/><path d="M352.7479,158.19411c0.0331,-0.13405 0.16859,-0.21588 0.30264,-0.18279c0.13405,0.0331 0.21588,0.16859 0.18279,0.30264c-0.0331,0.13405 -0.16859,0.21588 -0.30264,0.18279c-0.13405,-0.0331 -0.21588,-0.16859 -0.18279,-0.30264z" fill="#000000" stroke="none" stroke-width="0.5" stroke-linecap="butt"/></g><g stroke-width="0"><path d="M374.59038,175.60222l2.55667,6.78704l-7.76028,-1.8846z" fill="#000000" stroke="#000000" stroke-linecap="round"/><path d="M344.61836,122.52383c-1.27287,-0.84273 -2.1037,-2.25707 -2.12036,-3.91108c-0.0188,-1.86543 1.00271,-3.56629 2.54103,-4.55501c1.27332,-2.28254 7.39365,-0.701 9.22096,-0.03295c6.67414,2.44002 13.25552,10.32781 16.01368,16.62787c8.65036,19.75883 -6.06886,42.85405 -1.37767,63.08385c2.62005,11.29839 11.5392,20.31409 14.49665,31.59365c0.96649,3.68614 1.28338,10.89065 -4.8695,11.30658c-1.76343,0.1192 -3.35976,-1.10779 -4.61887,-2.2308c-0.9923,-0.88505 -0.65883,-5.19811 -0.71661,-5.95222c-0.27086,-3.53516 -2.71311,-7.17803 -4.26364,-10.19171c-3.45804,-6.72116 -9.30563,-14.64523 -10.41963,-22.37382c-2.88825,-20.03756 6.07782,-40.30285 2.25623,-60.20469c-0.72095,-3.75453 -7.03886,-10.16653 -9.76813,-11.75371c-1.04705,-0.6089 -2.1276,-0.57557 -3.21833,-0.58769c-0.48004,0.03032 -0.94548,-0.00276 -1.38805,-0.09186c-0.40654,-0.06447 -0.81313,-0.17529 -1.21858,-0.36764c-0.2045,-0.09702 -0.38604,-0.2182 -0.54918,-0.35876z" fill="#c2d183" stroke="none" stroke-linecap="butt"/><path d="M369.58423,109.44571c0.41946,-2.40231 2.54531,-4.34655 5.12332,-4.52082c1.50771,-0.10192 2.87317,0.42162 3.84054,1.34244c0.16664,0.15862 0.32146,0.32903 0.46317,0.51005c2.13989,1.65247 4.58773,3.04776 6.86795,4.5219c0.04124,0.02666 0.05867,0.0795 0.09935,0.10694c19.95019,13.45687 17.3547,43.09482 16.47346,64.43695c-0.07413,1.79535 -0.37457,3.59119 -0.43397,5.3862c-0.07817,2.36184 -0.04139,4.72162 0.07125,7.07105c0.12334,2.57234 3.96819,6.30648 2.84532,8.98001c-1.9052,4.53625 -3.9281,5.46004 -8.49617,3.87992c-4.34962,-1.50455 -4.91657,-17.5514 -4.92183,-19.47477c-0.00492,-1.7968 0.48649,-4.19533 0.4961,-5.64094c0.07325,-11.01578 1.11624,-26.9083 -1.4369,-38.88375c-1.21058,-5.67823 -3.55916,-11.64167 -8.16809,-15.32872c-3.4526,-2.76201 -13.15729,-5.89844 -12.93396,-11.75175c0.00848,-0.22224 0.04671,-0.43329 0.11046,-0.63472z" fill="#c2d183" stroke="none" stroke-linecap="butt"/><path d="M351.87826,116.64022c-0.02828,-2.80704 2.29903,-5.24147 5.19821,-5.43745c0.45444,-0.03072 0.89595,-0.00462 1.31754,0.07206c1.10798,-0.36845 2.94598,1.66045 3.65219,2.35405c3.32018,3.26088 5.97,6.41147 8.67345,10.18699c13.54672,18.91876 4.78808,41.62218 5.64473,63.21394c0.13796,3.47711 0.82247,7.54025 2.20859,10.71145c0.41478,0.94896 2.20516,2.7657 2.21153,3.39768c0.0172,1.70739 -0.1074,3.74416 -1.34217,5.03576c-7.77921,8.13723 -11.78609,-7.40736 -12.57165,-11.11816c-0.25226,-1.19161 -0.5242,-2.4874 -0.6707,-3.7039c-2.15167,-17.86668 4.88674,-35.7385 -0.1332,-53.49391c-1.69997,-6.01275 -6.17497,-11.20243 -10.4255,-15.54001c-0.84646,-0.8638 -4.92127,-4.13231 -3.76302,-5.67852z" fill="#b8ae43" stroke="none" stroke-linecap="butt"/><path d="M399.80586,164.48872c0.76643,0.8298 1.23352,1.93195 1.24598,3.16793c0.0188,1.86543 -1.00272,3.5663 -2.54103,4.55501c-0.49252,0.88289 -1.83647,0.98456 -3.01262,0.895c-0.53415,-0.04068 -1.03368,-0.12079 -1.40314,-0.18509c-4.12739,-0.7183 -5.09943,-5.90227 -5.74084,-9.51053c-0.9019,-5.0736 -1.90074,-11.93253 -3.3683,-16.84998c-1.8143,-6.07932 -5.05576,-11.54725 -7.02727,-17.57097c-3.51432,-10.73763 -2.70439,-14.04763 -10.7623,-23.1827c-2.16907,-2.45903 -4.89493,-5.86114 -0.7011,-9.21459c4.72656,-3.77943 7.58384,0.86052 9.93492,3.44752c6.98163,7.68217 8.99774,15.6252 11.61199,25.51102c0.98206,3.71371 2.68034,6.38518 4.08534,9.94625c2.15812,5.46988 3.78614,11.17102 5.06889,16.93896c1.02387,4.60387 1.34096,8.18857 2.60948,12.05217z" fill="#b8ae43" stroke="none" stroke-linecap="butt"/><path d="M373.10553,94.84238c1.25716,0.84484 2.07604,2.25058 2.09258,3.89254c0.00045,0.04475 0.0003,0.08941 -0.00045,0.13397c0.14659,0.60232 0.00291,1.17334 -0.32791,1.70975c-0.73688,1.95904 -2.63319,3.44253 -4.86986,3.59373c-1.92995,1.06988 -4.75342,-2.2992 -6.0859,-2.89647c-4.7046,-2.10876 -10.34081,-4.55213 -15.84997,-4.18669c-6.22767,0.41309 -13.49231,2.04956 -19.13649,5.269c-1.31883,0.75225 -3.27394,2.97192 -5.08121,3.33463c-2.78275,0.55849 -5.28241,1.06586 -6.67246,-2.76566c-2.30869,-6.36359 9.40631,-10.61301 13.70559,-12.17825c12.07904,-4.39764 24.96915,-5.29636 36.15616,0.424c2.51651,1.28679 4.57988,2.14779 6.06991,3.66945z" fill="#b8ae43" stroke="none" stroke-linecap="butt"/><path d="M370.55346,102.85263c0.85866,0.84563 1.38873,2.01127 1.40201,3.32904c0.00045,0.04475 0.0003,0.08941 -0.00045,0.13397c0.09188,0.37753 0.06973,0.74277 -0.04107,1.09489c6.2963,7.00462 15.26392,17.63219 14.67183,26.08209c-0.43727,6.24044 -0.24625,12.55505 -1.65078,18.71572c-1.43935,6.3134 -4.34274,12.84512 -3.74975,19.37437c0.78798,8.6762 5.72765,17.24392 8.57329,25.26194c2.95254,8.31919 5.48778,16.92641 8.80558,25.05075c1.09018,2.66955 0.82857,5.94939 -2.97087,7.4373c-7.20886,2.82307 -10.199,-12.44215 -11.54775,-16.46759c-0.55155,-1.64615 -1.12342,-3.28479 -1.69302,-4.92423c-0.83274,-2.39685 -1.61845,-4.81231 -2.51397,-7.18461c-3.32509,-8.80838 -8.8014,-18.41947 -9.14849,-28.10266c-0.46871,-13.07588 5.76204,-25.05156 5.34659,-38.36426c-0.30777,-9.86168 -11.00869,-16.98359 -16.18492,-23.91093c-0.47791,-0.63958 -0.76055,-1.43256 -0.84465,-2.27223c-0.0192,-0.1677 -0.02988,-0.3384 -0.03163,-0.51173c-0.00351,-0.34817 0.02922,-0.6906 0.09479,-1.02374c0.00445,-0.0247 0.00909,-0.04938 0.01388,-0.07403c-1.1516,-0.53389 -2.49509,-0.96644 -3.89645,-1.29953c-2.79618,-0.6646 -5.82272,-0.93312 -8.01483,-0.82016c-4.79514,0.24708 -9.56074,0.0256 -14.18171,1.4888c-2.82798,0.89547 -6.66775,5.67457 -9.79661,3.87815c-1.47681,-0.8479 -2.83263,-2.36925 -2.97748,-4.06352c-0.55481,-6.48953 10.06003,-9.95208 15.08649,-10.59524c10.29226,-1.31694 29.17336,-2.36742 35.24997,7.76745z" fill="#b3c46f" stroke="none" stroke-linecap="butt"/><path d="M370.56819,107.83099c1.38237,0.1739 18.92322,26.47116 19.20792,27.68262c1.49215,6.34929 1.71735,12.91116 1.96594,19.50166c0.27422,7.27 -0.62179,14.55982 -0.33116,21.76835c0.3487,8.64893 5.65243,16.52785 5.78273,25.13012c0.10396,6.86353 0.33305,13.72135 0.20757,20.59788c-0.04893,2.68164 -1.79292,5.20726 -5.19821,5.43745c-3.40804,0.23038 -5.19638,-2.05646 -5.30066,-4.72775c-0.26194,-6.70999 -0.07108,-13.45614 -0.20334,-20.17723c-0.15432,-7.84222 -4.34844,-15.91297 -5.61152,-23.70297c-1.10726,-6.82898 0.22305,-16.97279 0.1583,-23.43713c-0.05018,-5.00921 -0.31013,-10.76126 -1.26259,-15.71042c-0.35832,-1.8619 -1.45846,-4.12297 -1.10485,-6.03953c0.0408,-0.22113 -16.5827,-20.01351 -16.49027,-20.20843c0.80482,-1.69733 -1.69021,-5.75231 0.68379,-7.52688c2.374,-1.77456 7.49634,1.41223 7.49634,1.41223z" fill="#c4de76" stroke="none" stroke-linecap="butt"/><path d="M347.05421,123.37898c-1.21131,0.86942 -5.88082,-1.46215 -7.58601,-1.34918c-1.64967,0.10929 -3.29936,0.2172 -4.94894,0.33454c-2.45283,0.17449 -3.3154,2.87818 -6.34837,2.87002c-3.50647,-0.00943 -5.54123,-4.57058 -4.18851,-7.6778c1.16782,-2.68249 4.18185,-3.13281 6.44174,-4.25835c4.40604,-2.19446 12.09436,-2.51672 17.06903,-0.03449c2.10036,1.04802 3.71698,2.59598 4.39858,4.71403z" fill="#c2d183" stroke="none" stroke-linecap="butt"/><path d="M359.90078,111.18909c1.31323,0.83662 2.175,2.27273 2.19197,3.95758c0.00045,0.04475 0.0003,0.08941 -0.00045,0.13397c0.14659,0.60232 0.00292,1.17333 -0.3279,1.70975c-0.73688,1.95904 -2.63319,3.44253 -4.86986,3.59373c-1.23097,0.6824 -2.23143,0.08779 -3.08621,-0.75591c-0.73589,-0.46317 -1.33182,-1.11376 -1.71938,-1.89077c-0.16628,-0.15473 -0.32772,-0.27838 -0.48555,-0.35616c-2.55809,-1.26081 -6.02954,-3.15662 -9.09355,-3.34992c-3.34142,-0.2108 -7.41841,0.01646 -10.60711,0.27925c-2.09116,0.17234 -2.85098,3.92154 -6.02031,3.11553c-1.67837,-0.42684 -3.62639,-1.06989 -4.43042,-2.54371c-2.89786,-5.31195 4.89812,-9.48033 9.01473,-10.64686c8.10002,-2.29532 23.43589,-0.05771 29.43404,6.75354z" fill="#b8ae43" stroke="none" stroke-linecap="butt"/></g><path d="M329.6277,93.48346c2.2388,-5.64994 -1.93856,-9.01603 2.07896,-15.63897c4.01753,-6.62294 5.11318,-10.89132 11.74713,-15.7977c6.63395,-4.90638 6.46603,-8.59775 19.02955,-6.9643c12.56351,1.63345 25.08728,9.31169 29.54188,13.2793c4.4546,3.96762 0.64534,12.76338 2.25241,15.03917c1.60707,2.27579 1.82524,0.89867 6.11293,-3.19291c4.28769,-4.09158 9.58066,-11.78286 9.58066,-11.78286c0,0 -1.50431,14.44794 -5.76535,19.16567c-4.26105,4.71773 -8.69964,8.07546 -14.65331,3.44136c-5.95367,-4.6341 2.97662,-10.96446 -4.12587,-18.0583c-7.10249,-7.09383 -16.15171,-9.52686 -23.64103,-9.67479c-7.48932,-0.14792 -12.45885,2.33705 -16.51486,8.88168c-4.05603,6.54463 -2.50489,14.45087 -3.62769,20.5933c-1.1228,6.14242 -6.72714,14.49116 -6.72714,14.49116c0,0 -2.56683,2.2868 -5.37808,1.50087c-2.81584,-0.78722 -3.53825,-7.00929 -3.53825,-7.00929c0,0 1.38928,-2.62346 3.62808,-8.2734z" fill="#026b00" stroke="#000000" stroke-width="0" stroke-linecap="round"/></g></g></svg>