<svg version="1.1" xmlns="http://www.w3.org/2000/svg" xmlns:xlink="http://www.w3.org/1999/xlink" width="34.17311" height="34.17311" viewBox="0,0,34.17311,34.17311"><g transform="translate(-302.91346,-162.91347)"><g stroke-miterlimit="10"><path d="M309.98312,162.91347h20.03379c3.9166,0 7.06966,3.15307 7.06966,7.06966v20.03379c0,3.91659 -3.15306,7.06966 -7.06966,7.06966h-20.03379c-3.91659,0 -7.06966,-3.15307 -7.06966,-7.06966v-20.03379c0,-3.91659 3.15307,-7.06966 7.06966,-7.06966z" fill="#a2f30f" fill-rule="evenodd" stroke="none" stroke-width="4.43922" stroke-linecap="round" stroke-linejoin="round"/><g fill="#a2f30f" fill-rule="nonzero" stroke="#000000" stroke-width="2" stroke-linejoin="miter"><path d="M322.54258,178.4256c5.72172,0 10.62325,3.29638 12.66685,7.97636c0.55171,1.26344 0.07777,2.62771 0.1728,4.05519c-9.10258,0.00116 -17.38844,-0.10348 -26.49072,-0.08467c0.49112,-6.67507 6.41523,-11.94689 13.65106,-11.94689z" stroke-linecap="butt"/><path d="M305.02646,180.79958l2.82862,1.67408l-0.80818,-11.31446l10.27538,5.65723l-1.26999,-7.27358l4.27178,4.21406l0.8659,-2.77089l2.94407,4.90678l3.11725,-4.32951l7.44676,13.79672l-15.06684,5.03362c-3.87007,-0.01821 -7.74007,-0.0304 -11.6099,-0.01896z" stroke-linecap="round"/></g><g fill="#a2f30f" fill-rule="nonzero" stroke="#000000" stroke-width="0" stroke-linejoin="miter"><path d="M322.54258,178.4256c6.17006,0 11.38635,3.8332 13.09362,9.10104c0.30336,0.93603 0.18943,1.91735 0.25688,2.93051c-9.10258,0.00116 -17.89928,-0.10348 -27.00156,-0.08467c0.49112,-6.67507 6.41523,-11.94689 13.65106,-11.94689z" stroke-linecap="butt"/><path d="M305.02646,180.79958l2.82862,1.67408l-0.80818,-11.31446l10.27538,5.65723l-1.26999,-7.27358l4.27178,4.21406l0.8659,-2.77089l2.94407,4.90678l3.11725,-4.32951l7.44676,13.79672l-15.06684,5.03362c-3.87007,-0.01821 -7.74007,-0.0304 -11.6099,-0.01896z" stroke-linecap="round"/></g><path d="" fill="none" fill-rule="nonzero" stroke="#000000" stroke-width="2" stroke-linecap="round" stroke-linejoin="miter"/><path d="M306.31354,193.07982v-2.86068l30.65018,0.20433l-0.81734,2.65635z" fill="#a2f30f" fill-rule="nonzero" stroke="none" stroke-width="0" stroke-linecap="butt" stroke-linejoin="miter"/></g></g></svg>