<svg version="1.1" xmlns="http://www.w3.org/2000/svg" xmlns:xlink="http://www.w3.org/1999/xlink" width="213.18203" height="281.18476" viewBox="0,0,213.18203,281.18476"><defs><linearGradient x1="391.36457" y1="68.51026" x2="391.36457" y2="107.66824" gradientUnits="userSpaceOnUse" id="color-1"><stop offset="0" stop-color="#000000" stop-opacity="0"/><stop offset="1" stop-color="#000000" stop-opacity="0.12941"/></linearGradient><linearGradient x1="271.24833" y1="68.51026" x2="271.24833" y2="107.66824" gradientUnits="userSpaceOnUse" id="color-2"><stop offset="0" stop-color="#000000" stop-opacity="0"/><stop offset="1" stop-color="#000000" stop-opacity="0.12941"/></linearGradient><linearGradient x1="320.08742" y1="187.07227" x2="320.08742" y2="244.23177" gradientUnits="userSpaceOnUse" id="color-3"><stop offset="0" stop-color="#424242"/><stop offset="1" stop-color="#424242" stop-opacity="0"/></linearGradient></defs><g transform="translate(-214.52362,-38.88751)"><g stroke-miterlimit="10"><g stroke-width="2" stroke-linecap="round"><path d="M347.83011,97.20129l55.16668,-46.64406l-11.40188,84.5216" fill="#ffffff" stroke="#000000"/><path d="M385.14536,107.66824c0,0 3.19735,-13.92182 5.3091,-20.56995c2.03125,-6.39468 7.12931,-18.58803 7.12931,-18.58803" fill="none" stroke="url(#color-1)"/></g><g stroke-width="2" stroke-linecap="round"><path d="M271.01799,135.07882l-11.40188,-84.52159l55.16668,46.64406" fill="#ffffff" stroke="#000000"/><path d="M265.02913,68.51026c0,0 5.09806,12.19335 7.12931,18.58803c2.11176,6.64812 5.30911,20.56994 5.30911,20.56994" fill="none" stroke="url(#color-2)"/></g><g stroke="#000000" stroke-linecap="butt"><path d="M286.35186,319.07226l15.14285,-131.8421l37.78325,-0.15789l13.57389,132z" fill="#ffffff" stroke-width="0"/><path d="M295.01902,243.61117l6.47569,-56.38101l37.78325,-0.15789l5.87786,57.15951z" fill="url(#color-3)" stroke-width="0"/><path d="M286.35186,319.07226l15.14285,-131.8421l37.78325,-0.15789l13.57389,132z" fill="none" stroke-width="2"/></g><g fill="#ffffff"><path d="M267.03667,154.85706c0,-33.30185 28.7599,-60.29833 64.23702,-60.29833c35.47713,0 64.23702,26.99648 64.23702,60.29833c0,33.30185 -28.75989,60.29834 -64.23702,60.29834c-35.47712,0 -64.23702,-26.99649 -64.23702,-60.29834z" stroke="#000000" stroke-width="2" stroke-linecap="butt"/><path d="M270.78765,178.15259l6.91023,-0.46068l23.95547,26.48922l-7.14057,2.76409z" stroke="none" stroke-width="0" stroke-linecap="round"/><path d="M297.73755,206.2542l-21.42172,9.21364v-16.35421l-34.55115,-21.65206l30.17468,0.23034" stroke="#000000" stroke-width="2" stroke-linecap="round"/><path d="M368.10012,206.94523l-7.14057,-2.76409l23.95547,-26.48922l6.91024,0.46068z" stroke="none" stroke-width="0" stroke-linecap="round"/><path d="M390.67355,177.69191l30.17467,-0.23034l-34.55115,21.65205v16.35422l-21.42172,-9.21364" stroke="#000000" stroke-width="2" stroke-linecap="round"/></g><path d="M214.52362,306.61252v-267.72501h213.18203v267.72501z" fill="none" stroke="none" stroke-width="0" stroke-linecap="butt"/><g fill="#000000" stroke="#000000" stroke-width="2" stroke-linecap="round"><path d="M280.92234,152.27006l-4.09184,-9.8548l8.54478,4.56559z"/><path d="M282.74047,156.59394l-9.99773,-3.72904l9.1668,-3.13492z"/></g><path d="M280.66378,155.13268c0,-12.96801 10.51265,-23.48065 23.48066,-23.48065c12.96801,0 23.48065,10.51264 23.48065,23.48065c0,12.96801 -10.51264,23.48066 -23.48065,23.48066c-12.96801,0 -23.48066,-10.51265 -23.48066,-23.48066z" fill="#ffffff" stroke="#000000" stroke-width="2" stroke-linecap="butt"/><path d="M296.05515,156.2224c0,-8.29964 6.72818,-15.02784 15.02783,-15.02784c8.29964,0 15.02784,6.72819 15.02784,15.02785c0,8.29964 -6.72819,15.02785 -15.02784,15.02785c-8.29964,0 -15.02783,-6.72819 -15.02783,-15.02785z" fill="#ffffff" stroke="#000000" stroke-width="5" stroke-linecap="butt"/><path d="" fill="none" stroke="#000000" stroke-width="2" stroke-linecap="round"/><g fill="#000000" stroke="#000000" stroke-width="2" stroke-linecap="round"><path d="M377.17211,146.98085l8.54478,-4.5656l-4.09185,9.8548z"/><path d="M380.63784,149.72998l9.1668,3.13492l-9.99773,3.72905z"/></g><path d="M358.4029,178.61336c-12.96801,0 -23.48065,-10.51265 -23.48065,-23.48066c0,-12.96801 10.51264,-23.48065 23.48065,-23.48065c12.96801,0 23.48066,10.51264 23.48066,23.48065c0,12.96801 -10.51265,23.48066 -23.48066,23.48066z" fill="#ffffff" stroke="#000000" stroke-width="2" stroke-linecap="butt"/><path d="M379.4145,156.60774c0,8.29966 -6.72818,15.02785 -15.02783,15.02785c-8.29964,0 -15.02784,-6.72821 -15.02784,-15.02785c0,-8.29966 6.7282,-15.02785 15.02784,-15.02785c8.29964,0 15.02783,6.7282 15.02783,15.02784z" fill="#ffffff" stroke="#000000" stroke-width="5" stroke-linecap="butt"/><path d="M292.78554,123.54149c0,0 7.6761,-3.57887 12.90237,-3.63287c5.22628,-0.054 11.88349,3.37677 11.88349,3.37677c0,0 -7.83084,-1.81468 -11.86692,-1.77297c-4.21786,0.04358 -12.91895,2.02907 -12.91895,2.02907z" fill="#000000" stroke="none" stroke-width="0" stroke-linecap="butt"/><path d="M357.02541,121.50061c-4.02426,-0.31146 -11.9589,0.9756 -11.9589,0.9756c0,0 6.87169,-2.978 12.08266,-2.57469c5.21097,0.40329 12.63061,4.48738 12.63061,4.48738c0,0 -8.54887,-2.56279 -12.75437,-2.88828z" fill="#000000" stroke="none" stroke-width="0" stroke-linecap="butt"/><path d="M280.66378,155.13268c0,-12.96801 10.51265,-23.48065 23.48066,-23.48065c12.96801,0 23.48065,10.51264 23.48065,23.48065c0,0.44895 -46.96131,0.36386 -46.96131,0z" fill="#ffffff" stroke="#000000" stroke-width="2" stroke-linecap="butt"/><path d="M334.92225,155.1327c0,-12.96801 10.51264,-23.48065 23.48065,-23.48065c12.96801,0 23.48066,10.51264 23.48066,23.48065c0,0.79028 -46.96131,0.82709 -46.96131,0z" fill="#ffffff" stroke="#000000" stroke-width="2" stroke-linecap="butt"/><path d="M309.48495,197.73158c0,0 10.69084,0.9963 18.24862,0.91279c5.95254,-0.06577 23.44311,-1.37347 23.44311,-1.37347c0,0 -29.23988,11.812 -48.88625,12.02909c-19.64637,0.21709 7.19452,-11.56841 7.19452,-11.56841z" fill="#000000" stroke="#000000" stroke-width="2" stroke-linecap="round"/></g></g></svg>