<svg version="1.1" xmlns="http://www.w3.org/2000/svg" xmlns:xlink="http://www.w3.org/1999/xlink" width="213.18203" height="280.18476" viewBox="0,0,213.18203,280.18476"><g transform="translate(-214.52366,-38.88751)"><g stroke-miterlimit="10"><path d="M214.52366,306.61252v-267.72501h213.18203v267.72501z" fill="none" stroke="none" stroke-width="0" stroke-linecap="butt"/><g stroke-linecap="butt"><path d="M286.35186,319.07226l15.14285,-131.8421l37.78325,-0.15789l13.57389,132z" fill="#ffde00" stroke="#000000" stroke-width="0"/><path d="M295.02207,243.58459c2.31493,-20.15511 6.47264,-56.35442 6.47264,-56.35442l37.78325,-0.15789c0,0 3.78255,36.7836 5.87254,57.10776c0.0284,0.27618 -50.18276,-0.12241 -50.12843,-0.59544z" fill="#ffd000" stroke="#000000" stroke-width="0"/><path d="M295.87397,236.16758c2.11908,-18.44989 5.62075,-48.93741 5.62075,-48.93741l37.78325,-0.15789c0,0 3.18158,30.93942 5.095,49.54658c0.01626,0.15819 -48.52436,-0.23049 -48.49901,-0.45128z" fill="#ffba00" stroke="#000000" stroke-width="0"/><path d="M297.18737,224.73245c1.76117,-15.33371 4.30736,-37.50229 4.30736,-37.50229l37.78325,-0.15789c0,0 2.29028,22.27196 3.87233,37.65667c0.03152,0.30644 -46.01653,0.47013 -45.96294,0.00351z" fill="#ff9400" stroke="#000000" stroke-width="0"/><path d="M297.30629,225.2c0,-0.9665 0.7835,-1.75 1.75,-1.75c0.9665,0 1.75,0.7835 1.75,1.75c0,0.9665 -0.7835,1.75 -1.75,1.75c-0.9665,0 -1.75,-0.7835 -1.75,-1.75z" fill="#ff9400" stroke="none" stroke-width="0.5"/><path d="M302.1063,225c0,-0.9665 0.7835,-1.75 1.75,-1.75c0.9665,0 1.75,0.7835 1.75,1.75c0,0.9665 -0.7835,1.75 -1.75,1.75c-0.9665,0 -1.75,-0.7835 -1.75,-1.75z" fill="#ff9400" stroke="none" stroke-width="0.5"/><path d="M310.0063,224.7c0,0.20376 -0.15491,0.50257 -0.39532,0.8042c-0.19407,0.3744 -0.51941,0.6698 -0.91508,0.82523c-0.57459,0.35896 -1.19332,0.46407 -1.52779,-0.12125c-0.5158,-0.30442 -0.86181,-0.86589 -0.86181,-1.50818c0,-0.9665 0.7835,-1.75 1.75,-1.75c0.16638,0 0.32733,0.02322 0.47979,0.06659c0.78789,-0.19193 1.47021,0.14517 1.47021,1.68341z" fill="#ff9400" stroke="none" stroke-width="0.5"/><path d="M313.20628,224.8c0,-0.9665 0.7835,-1.75 1.75,-1.75c0.9665,0 1.75,0.7835 1.75,1.75c0,0.9665 -0.7835,1.75 -1.75,1.75c-0.9665,0 -1.75,-0.7835 -1.75,-1.75z" fill="#ff9400" stroke="none" stroke-width="0.5"/><path d="M318.80629,225c0,-0.9665 0.7835,-1.75 1.75,-1.75c0.9665,0 1.75,0.7835 1.75,1.75c0,0.9665 -0.7835,1.75 -1.75,1.75c-0.9665,0 -1.75,-0.7835 -1.75,-1.75z" fill="#ff9400" stroke="none" stroke-width="0.5"/><path d="M328.80629,225.3c0,1.08578 -2.67165,2.84962 -3.43819,1.50817c-0.5158,-0.30442 -0.86181,-0.86588 -0.86181,-1.50817c0,-0.9665 0.7835,-1.75 1.75,-1.75c0.11721,0 0.23174,0.01152 0.34249,0.0335c1.10464,-0.46689 2.20751,-0.30042 2.20751,1.7165z" fill="#ff9400" stroke="none" stroke-width="0.5"/><path d="M331.5063,225.6c0,-0.9665 0.7835,-1.75 1.75,-1.75c0.9665,0 1.75,0.7835 1.75,1.75c0,0.9665 -0.7835,1.75 -1.75,1.75c-0.9665,0 -1.75,-0.7835 -1.75,-1.75z" fill="#ff9400" stroke="none" stroke-width="0.5"/><path d="M335.7063,225.5c0,-0.9665 0.7835,-1.75 1.75,-1.75c0.9665,0 1.75,0.7835 1.75,1.75c0,0.9665 -0.7835,1.75 -1.75,1.75c-0.9665,0 -1.75,-0.7835 -1.75,-1.75z" fill="#ff9400" stroke="none" stroke-width="0.5"/><path d="M339.3063,225.1c0,-0.9665 0.7835,-1.75 1.75,-1.75c0.9665,0 1.75,0.7835 1.75,1.75c0,0.9665 -0.7835,1.75 -1.75,1.75c-0.9665,0 -1.75,-0.7835 -1.75,-1.75z" fill="#ff9400" stroke="none" stroke-width="0.5"/><path d="M295.80629,235.9c0,-0.9665 0.7835,-1.75 1.75,-1.75c0.9665,0 1.75,0.7835 1.75,1.75c0,0.9665 -0.7835,1.75 -1.75,1.75c-0.9665,0 -1.75,-0.7835 -1.75,-1.75z" fill="#ffba00" stroke="none" stroke-width="0.5"/><path d="M304.4063,236.9c0,-0.9665 0.7835,-1.75 1.75,-1.75c0.9665,0 1.75,0.7835 1.75,1.75c0,0.9665 -0.7835,1.75 -1.75,1.75c-0.9665,0 -1.75,-0.7835 -1.75,-1.75z" fill="#ffba00" stroke="none" stroke-width="0.5"/><path d="M308.4063,237c0,-0.9665 0.7835,-1.75 1.75,-1.75c0.9665,0 1.75,0.7835 1.75,1.75c0,0.9665 -0.7835,1.75 -1.75,1.75c-0.9665,0 -1.75,-0.7835 -1.75,-1.75z" fill="#ffba00" stroke="none" stroke-width="0.5"/><path d="M315.3563,235.35c0.9665,0 1.75,0.7835 1.75,1.75c0,0.9665 -0.7835,1.75 -1.75,1.75c-0.28825,0 -0.56023,-0.06969 -0.8,-0.19315c-0.23977,0.12346 -0.51175,0.19315 -0.8,0.19315c-0.9665,0 -1.75,-0.7835 -1.75,-1.75c0,-0.9665 0.7835,-1.75 1.75,-1.75c0.28825,0 0.56023,0.06969 0.8,0.19315c0.23977,-0.12346 0.51174,-0.19315 0.8,-0.19315z" fill="#ffba00" stroke="none" stroke-width="0.5"/><path d="M321.6563,234.85c0.9665,0 1.75,0.7835 1.75,1.75c0,0.9665 -0.7835,1.75 -1.75,1.75c-0.20547,0 -0.40266,-0.03541 -0.58581,-0.10046c-0.30265,0.25016 -0.69087,0.40046 -1.11419,0.40046c-0.9665,0 -1.75,-0.7835 -1.75,-1.75c0,-0.9665 0.7835,-1.75 1.75,-1.75c0.20547,0 0.40267,0.03541 0.58582,0.10046c0.30265,-0.25016 0.69086,-0.40046 1.11418,-0.40046z" fill="#ffba00" stroke="none" stroke-width="0.5"/><path d="M325.6063,236.6c0,-0.9665 0.7835,-1.75 1.75,-1.75c0.9665,0 1.75,0.7835 1.75,1.75c0,0.9665 -0.7835,1.75 -1.75,1.75c-0.9665,0 -1.75,-0.7835 -1.75,-1.75z" fill="#ffba00" stroke="none" stroke-width="0.5"/><path d="M331.0063,236.6c0,-0.9665 0.7835,-1.75 1.75,-1.75c0.9665,0 1.75,0.7835 1.75,1.75c0,0.9665 -0.7835,1.75 -1.75,1.75c-0.9665,0 -1.75,-0.7835 -1.75,-1.75z" fill="#ffba00" stroke="none" stroke-width="0.5"/><path d="M334.9063,236.7c0,-0.9665 0.7835,-1.75 1.75,-1.75c0.9665,0 1.75,0.7835 1.75,1.75c0,0.9665 -0.7835,1.75 -1.75,1.75c-0.9665,0 -1.75,-0.7835 -1.75,-1.75z" fill="#ffba00" stroke="none" stroke-width="0.5"/><path d="M339.3063,236.6c0,-0.9665 0.7835,-1.75 1.75,-1.75c0.9665,0 1.75,0.7835 1.75,1.75c0,0.9665 -0.7835,1.75 -1.75,1.75c-0.9665,0 -1.75,-0.7835 -1.75,-1.75z" fill="#ffba00" stroke="none" stroke-width="0.5"/><path d="M295.13963,243.5c0,-0.9665 0.45017,-1.75 1.41667,-1.75c0.9665,0 1.75,0.7835 1.75,1.75c0,0.9665 -0.7835,1.75 -1.75,1.75c-0.9665,0 -1.41667,-0.7835 -1.41667,-1.75z" fill="#ffd000" stroke="none" stroke-width="0.5"/><path d="M298.5063,243.4c0,-0.9665 0.7835,-1.75 1.75,-1.75c0.9665,0 1.75,0.7835 1.75,1.75c0,0.9665 -0.7835,1.75 -1.75,1.75c-0.9665,0 -1.75,-0.7835 -1.75,-1.75z" fill="#ffd000" stroke="none" stroke-width="0.5"/><path d="M303.9063,243.4c0,-0.9665 0.7835,-1.75 1.75,-1.75c0.9665,0 1.75,0.7835 1.75,1.75c0,0.9665 -0.7835,1.75 -1.75,1.75c-0.9665,0 -1.75,-0.7835 -1.75,-1.75z" fill="#ffd000" stroke="none" stroke-width="0.5"/><path d="M315.2563,241.85c0.9665,0 1.75,0.7835 1.75,1.75c0,0.9665 -0.7835,1.75 -1.75,1.75c-0.64743,0 -1.21276,-0.35158 -1.51544,-0.87425c-0.20725,0.7353 -0.88297,1.27425 -1.68455,1.27425c-0.9665,0 -1.75,-0.7835 -1.75,-1.75c0,-0.9665 0.7835,-1.75 1.75,-1.75c0.64743,0 1.21276,0.35159 1.51544,0.87425c0.20725,-0.7353 0.88297,-1.27425 1.68455,-1.27425z" fill="#ffd000" stroke="none" stroke-width="0.5"/><path d="M320.1063,244.2c0,-0.9665 0.7835,-1.75 1.75,-1.75c0.9665,0 1.75,0.7835 1.75,1.75c0,0.9665 -0.7835,1.75 -1.75,1.75c-0.9665,0 -1.75,-0.7835 -1.75,-1.75z" fill="#ffd000" stroke="none" stroke-width="0.5"/><path d="M324.20628,244.1c0,-0.9665 0.7835,-1.75 1.75,-1.75c0.9665,0 1.75,0.7835 1.75,1.75c0,0.9665 -0.7835,1.75 -1.75,1.75c-0.9665,0 -1.75,-0.7835 -1.75,-1.75z" fill="#ffd000" stroke="none" stroke-width="0.5"/><path d="M332.30629,244.1c0,-0.9665 0.7835,-1.75 1.75,-1.75c0.9665,0 1.75,0.7835 1.75,1.75c0,0.9665 -0.7835,1.75 -1.75,1.75c-0.9665,0 -1.75,-0.7835 -1.75,-1.75z" fill="#ffd000" stroke="none" stroke-width="0.5"/><path d="M340.0063,244.5c0,-0.9665 0.7835,-1.75 1.75,-1.75c0.9665,0 1.75,0.7835 1.75,1.75c0,0.9665 -0.7835,1.75 -1.75,1.75c-0.9665,0 -1.75,-0.7835 -1.75,-1.75z" fill="#ffd000" stroke="none" stroke-width="0.5"/><path d="M300.96344,230.22381c0,-0.69036 0.55964,-1.25 1.25,-1.25c0.69036,0 1.25,0.55964 1.25,1.25c0,0.69036 -0.55964,1.25 -1.25,1.25c-0.69036,0 -1.25,-0.55964 -1.25,-1.25z" fill="#ff9400" stroke="none" stroke-width="0.5"/><path d="M305.39201,226.9381c0,-0.69036 0.55964,-1.25 1.25,-1.25c0.69036,0 1.25,0.55964 1.25,1.25c0,0.69036 -0.55964,1.25 -1.25,1.25c-0.69036,0 -1.25,-0.55964 -1.25,-1.25z" fill="#ff9400" stroke="none" stroke-width="0.5"/><path d="M308.53486,224.65238c0,-0.69036 0.55964,-1.25 1.25,-1.25c0.69036,0 1.25,0.55964 1.25,1.25c0,0.69036 -0.55964,1.25 -1.25,1.25c-0.69036,0 -1.25,-0.55964 -1.25,-1.25z" fill="#ff9400" stroke="none" stroke-width="0.5"/><path d="M316.90288,226.2114c-0.55901,1.11803 -1.67705,0.55902 -1.67705,0.55902l-1.42857,-0.71429c0,0 -1.11803,-0.55902 -0.55902,-1.67705c0.55901,-1.11803 1.67705,-0.55902 1.67705,-0.55902l1.42857,0.71428c0,0 1.11803,0.55902 0.55901,1.67705z" fill="#ff9400" stroke="none" stroke-width="0.5"/><path d="M321.85674,228.72407c-0.64312,1.07187 -1.71499,0.42875 -1.71499,0.42875l-1.42858,-0.85715c0,0 -1.07187,-0.64312 -0.42874,-1.71498c0.64312,-1.07187 1.71499,-0.42874 1.71499,-0.42874l1.42857,0.85714c0,0 1.07187,0.64312 0.42875,1.71499z" fill="#ff9400" stroke="none" stroke-width="0.5"/><path d="M323.67773,229.79524c0,-0.69036 0.55964,-1.25 1.25,-1.25c0.69036,0 1.25,0.55964 1.25,1.25c0,0.69036 -0.55964,1.25 -1.25,1.25c-0.69036,0 -1.25,-0.55964 -1.25,-1.25z" fill="#ff9400" stroke="none" stroke-width="0.5"/><path d="M328.67773,231.22381c0,-0.69036 0.55964,-1.25 1.25,-1.25c0.69036,0 1.25,0.55964 1.25,1.25c0,0.69036 -0.55964,1.25 -1.25,1.25c-0.69036,0 -1.25,-0.55964 -1.25,-1.25z" fill="#ff9400" stroke="none" stroke-width="0.5"/><path d="M335.87594,228.59239c1.06,0.6625 0.39749,1.72249 0.39749,1.72249l-0.71429,1.14286c0,0 -0.66249,1.06 -1.72249,0.3975c-1.06,-0.6625 -0.3975,-1.72249 -0.3975,-1.72249l0.71428,-1.14286c0,0 0.6625,-1.05999 1.7225,-0.39749z" fill="#ff9400" stroke="none" stroke-width="0.5"/><path d="M337.39201,226.50953c0,-0.69036 0.55964,-1.25 1.25,-1.25c0.69036,0 1.25,0.55964 1.25,1.25c0,0.69036 -0.55964,1.25 -1.25,1.25c-0.69036,0 -1.25,-0.55964 -1.25,-1.25z" fill="#ff9400" stroke="none" stroke-width="0.5"/><path d="M340.67773,225.08095c0,-0.69036 0.55964,-1.25 1.25,-1.25c0.69036,0 1.25,0.55964 1.25,1.25c0,0.69036 -0.55964,1.25 -1.25,1.25c-0.69036,0 -1.25,-0.55964 -1.25,-1.25z" fill="#ff9400" stroke="none" stroke-width="0.5"/><path d="M299.67773,240.36667c0,-0.69036 0.55964,-1.25 1.25,-1.25c0.69036,0 1.25,0.55964 1.25,1.25c0,0.69036 -0.55964,1.25 -1.25,1.25c-0.69036,0 -1.25,-0.55964 -1.25,-1.25z" fill="#ffba00" stroke="none" stroke-width="0.5"/><path d="M302.1063,236.79524c0,-0.69036 0.55964,-1.25 1.25,-1.25c0.69036,0 1.25,0.55964 1.25,1.25c0,0.69036 -0.55964,1.25 -1.25,1.25c-0.69036,0 -1.25,-0.55964 -1.25,-1.25z" fill="#ffba00" stroke="none" stroke-width="0.5"/><path d="M305.67773,235.79524c0,-0.69036 0.55964,-1.25 1.25,-1.25c0.69036,0 1.25,0.55964 1.25,1.25c0,0.69036 -0.55964,1.25 -1.25,1.25c-0.69036,0 -1.25,-0.55964 -1.25,-1.25z" fill="#ffba00" stroke="none" stroke-width="0.5"/><path d="M314.6063,236.9381c0,1.25 -1.25,1.25 -1.25,1.25h-1.85714c0,0 -1.25,0 -1.25,-1.25c0,-1.25 1.25,-1.25 1.25,-1.25h1.85714c0,0 1.25,0 1.25,1.25z" fill="#ffba00" stroke="none" stroke-width="0.5"/><path d="M320.1063,238.22381c0,-0.69036 0.55964,-1.25 1.25,-1.25c0.69036,0 1.25,0.55964 1.25,1.25c0,0.69036 -0.55964,1.25 -1.25,1.25c-0.69036,0 -1.25,-0.55964 -1.25,-1.25z" fill="#ffba00" stroke="none" stroke-width="0.5"/><path d="M326.82057,239.50953c0,-0.69036 0.55964,-1.25 1.25,-1.25c0.69036,0 1.25,0.55964 1.25,1.25c0,0.69036 -0.55964,1.25 -1.25,1.25c-0.69036,0 -1.25,-0.55964 -1.25,-1.25z" fill="#ffba00" stroke="none" stroke-width="0.5"/><path d="M329.53486,240.08095c0,-0.69036 0.55964,-1.25 1.25,-1.25c0.69036,0 1.25,0.55964 1.25,1.25c0,0.69036 -0.55964,1.25 -1.25,1.25c-0.69036,0 -1.25,-0.55964 -1.25,-1.25z" fill="#ffba00" stroke="none" stroke-width="0.5"/><path d="M337.47433,237.37908c0.55901,1.11803 -0.55901,1.67705 -0.55901,1.67705l-1.71429,0.85714c0,0 -1.11804,0.55902 -1.67705,-0.55902c-0.55901,-1.11803 0.55902,-1.67705 0.55902,-1.67705l1.71429,-0.85714c0,0 1.11804,-0.55902 1.67705,0.55902z" fill="#ffba00" stroke="none" stroke-width="0.5"/><path d="M338.39201,237.22381c0,-0.69036 0.55964,-1.25 1.25,-1.25c0.69036,0 1.25,0.55964 1.25,1.25c0,0.69036 -0.55964,1.25 -1.25,1.25c-0.69036,0 -1.25,-0.55964 -1.25,-1.25z" fill="#ffba00" stroke="none" stroke-width="0.5"/><path d="M341.96344,238.08095c0,-0.69036 0.55964,-1.25 1.25,-1.25c0.69036,0 1.25,0.55964 1.25,1.25c0,0.69036 -0.55964,1.25 -1.25,1.25c-0.69036,0 -1.25,-0.55964 -1.25,-1.25z" fill="#ffba00" stroke="none" stroke-width="0.5"/><path d="M297.67773,247.79524c0,-0.69036 0.55964,-1.25 1.25,-1.25c0.69036,0 1.25,0.55964 1.25,1.25c0,0.69036 -0.55964,1.25 -1.25,1.25c-0.69036,0 -1.25,-0.55964 -1.25,-1.25z" fill="#ffd000" stroke="none" stroke-width="0.5"/><path d="M304.1063,244.65238c0,-0.69036 0.55964,-1.25 1.25,-1.25c0.69036,0 1.25,0.55964 1.25,1.25c0,0.69036 -0.55964,1.25 -1.25,1.25c-0.69036,0 -1.25,-0.55964 -1.25,-1.25z" fill="#ffd000" stroke="none" stroke-width="0.5"/><path d="M309.53486,243.50953c0,-0.69036 0.55964,-1.25 1.25,-1.25c0.69036,0 1.25,0.55964 1.25,1.25c0,0.69036 -0.55964,1.25 -1.25,1.25c-0.69036,0 -1.25,-0.55964 -1.25,-1.25z" fill="#ffd000" stroke="none" stroke-width="0.5"/><path d="M313.39201,244.50953c0,-0.69036 0.55964,-1.25 1.25,-1.25c0.69036,0 1.25,0.55964 1.25,1.25c0,0.69036 -0.55964,1.25 -1.25,1.25c-0.69036,0 -1.25,-0.55964 -1.25,-1.25z" fill="#ffd000" stroke="none" stroke-width="0.5"/><path d="M321.53486,246.08095c0,-0.69036 0.55964,-1.25 1.25,-1.25c0.69036,0 1.25,0.55964 1.25,1.25c0,0.69036 -0.55964,1.25 -1.25,1.25c-0.69036,0 -1.25,-0.55964 -1.25,-1.25z" fill="#ffd000" stroke="none" stroke-width="0.5"/><path d="M327.82057,247.79524c0,-0.69036 0.55964,-1.25 1.25,-1.25c0.69036,0 1.25,0.55964 1.25,1.25c0,0.69036 -0.55964,1.25 -1.25,1.25c-0.69036,0 -1.25,-0.55964 -1.25,-1.25z" fill="#ffd000" stroke="none" stroke-width="0.5"/><path d="M335.58202,247.97867c0.24514,1.22573 -0.98058,1.47087 -0.98058,1.47087l-1.42857,0.28572c0,0 -1.22573,0.24515 -1.47087,-0.98058c-0.24514,-1.22573 0.98058,-1.47087 0.98058,-1.47087l1.42857,-0.28572c0,0 1.22573,-0.24515 1.47087,0.98058z" fill="#ffd000" stroke="none" stroke-width="0.5"/><path d="M340.07057,243.25953c0.69036,0 1.25,0.55964 1.25,1.25c0,0.59132 -0.41059,1.08673 -0.96222,1.21671c-0.19344,0.44018 -0.63329,0.74757 -1.14493,0.74757c-0.69036,0 -1.25,-0.55964 -1.25,-1.25c0,-0.59132 0.41059,-1.08673 0.96222,-1.21671c0.19344,-0.44018 0.63329,-0.74758 1.14493,-0.74758z" fill="#ffd000" stroke="none" stroke-width="0.5"/><path d="M301.6063,233.7c0,-0.41421 0.33579,-0.75 0.75,-0.75c0.41421,0 0.75,0.33579 0.75,0.75c0,0.41421 -0.33579,0.75 -0.75,0.75c-0.41421,0 -0.75,-0.33579 -0.75,-0.75z" fill="#ff9400" stroke="none" stroke-width="0.5"/><path d="M311.43962,234.03333c0,-0.41421 0.33579,-0.75 0.75,-0.75c0.41421,0 0.75,0.33579 0.75,0.75c0,0.41421 -0.33579,0.75 -0.75,0.75c-0.41421,0 -0.75,-0.33579 -0.75,-0.75z" fill="#ff9400" stroke="none" stroke-width="0.5"/><path d="M320.93962,232.86667c0,-0.41421 0.33579,-0.75 0.75,-0.75c0.41421,0 0.75,0.33579 0.75,0.75c0,0.41421 -0.33579,0.75 -0.75,0.75c-0.41421,0 -0.75,-0.33579 -0.75,-0.75z" fill="#ff9400" stroke="none" stroke-width="0.5"/><path d="M339.43963,233.86667c0,-0.41421 0.33579,-0.75 0.75,-0.75c0.41421,0 0.75,0.33579 0.75,0.75c0,0.41421 -0.33579,0.75 -0.75,0.75c-0.41421,0 -0.75,-0.33579 -0.75,-0.75z" fill="#ff9400" stroke="none" stroke-width="0.5"/><path d="M302.43962,241.86667c0,-0.41421 0.33579,-0.75 0.75,-0.75c0.41421,0 0.75,0.33579 0.75,0.75c0,0.41421 -0.33579,0.75 -0.75,0.75c-0.41421,0 -0.75,-0.33579 -0.75,-0.75z" fill="#ffba00" stroke="none" stroke-width="0.5"/><path d="M325.43962,241.86667c0,-0.41421 0.33579,-0.75 0.75,-0.75c0.41421,0 0.75,0.33579 0.75,0.75c0,0.41421 -0.33579,0.75 -0.75,0.75c-0.41421,0 -0.75,-0.33579 -0.75,-0.75z" fill="#ffba00" stroke="none" stroke-width="0.5"/><path d="M337.6063,243.36667c0,-0.41421 0.33579,-0.75 0.75,-0.75c0.41421,0 0.75,0.33579 0.75,0.75c0,0.41421 -0.33579,0.75 -0.75,0.75c-0.41421,0 -0.75,-0.33579 -0.75,-0.75z" fill="#ffba00" stroke="none" stroke-width="0.5"/><path d="M311.77296,242.2c0,-0.41421 0.33579,-0.75 0.75,-0.75c0.41421,0 0.75,0.33579 0.75,0.75c0,0.41421 -0.33579,0.75 -0.75,0.75c-0.41421,0 -0.75,-0.33579 -0.75,-0.75z" fill="#ffba00" stroke="none" stroke-width="0.5"/><path d="M306.77296,253.86667c0,-0.41421 0.33579,-0.75 0.75,-0.75c0.41421,0 0.75,0.33579 0.75,0.75c0,0.41421 -0.33579,0.75 -0.75,0.75c-0.41421,0 -0.75,-0.33579 -0.75,-0.75z" fill="#ffd000" stroke="none" stroke-width="0.5"/><path d="M313.43962,249.2c0,-0.41421 0.33579,-0.75 0.75,-0.75c0.41421,0 0.75,0.33579 0.75,0.75c0,0.41421 -0.33579,0.75 -0.75,0.75c-0.41421,0 -0.75,-0.33579 -0.75,-0.75z" fill="#ffd000" stroke="none" stroke-width="0.5"/><path d="M321.27296,250.36667c0,-0.41421 0.33579,-0.75 0.75,-0.75c0.41421,0 0.75,0.33579 0.75,0.75c0,0.41421 -0.33579,0.75 -0.75,0.75c-0.41421,0 -0.75,-0.33579 -0.75,-0.75z" fill="#ffd000" stroke="none" stroke-width="0.5"/><path d="M331.93962,251.86667c0,-0.41421 0.33579,-0.75 0.75,-0.75c0.41421,0 0.75,0.33579 0.75,0.75c0,0.41421 -0.33579,0.75 -0.75,0.75c-0.41421,0 -0.75,-0.33579 -0.75,-0.75z" fill="#ffd000" stroke="none" stroke-width="0.5"/><path d="M339.93963,247.53333c0,-0.41421 0.33579,-0.75 0.75,-0.75c0.41421,0 0.75,0.33579 0.75,0.75c0,0.41421 -0.33579,0.75 -0.75,0.75c-0.41421,0 -0.75,-0.33579 -0.75,-0.75z" fill="#ffd000" stroke="none" stroke-width="0.5"/></g><path d="" fill="none" stroke="#000000" stroke-width="2" stroke-linecap="round"/><g><path d="M398.82558,90.78012v29.42307l-13.00585,-13.00585l-24.62583,24.62584l-5.01045,-5.01045l28.14381,-28.14381l11.51338,11.51337v-20.89464z" fill="#ffbc61" stroke="#000000" stroke-width="0" stroke-linecap="round"/><path d="M394.07307,56.4532l23.23997,23.23997l-19.40217,1.49247l9.38127,21.32107l-33.68729,-28.14381l20.89465,-4.26421z" fill="#ff9400" stroke="#000000" stroke-width="0" stroke-linecap="round"/><path d="M243.3689,89.28764v20.89465l11.51338,-11.51338l28.14381,28.14381l-5.01045,5.01045l-24.62583,-24.62583l-13.00585,13.00585v-29.42307z" fill="#ffbc61" stroke="#000000" stroke-width="0" stroke-linecap="round"/><path d="M244.71003,70.09868l20.89465,4.26421l-33.68729,28.14381l9.38127,-21.32107l-19.40217,-1.49247l23.23996,-23.23996z" fill="#ff9400" stroke="#000000" stroke-width="0" stroke-linecap="round"/><path d="M377.69163,158.36791l48.61204,17.9097l-48.61204,19.18896z" fill="#ffb800" stroke="#000000" stroke-width="0" stroke-linecap="butt"/><path d="M264.26354,194.82693l-48.61204,-19.18896l48.61204,-17.9097z" fill="#ffb800" stroke="#000000" stroke-width="0" stroke-linecap="butt"/><path d="M255.52262,171.07225c0,-33.30185 28.7599,-60.29833 64.23702,-60.29833c35.47713,0 64.23702,26.99648 64.23702,60.29833c0,22.80238 -13.48375,42.64856 -33.37507,52.89622c-0.2,0.10304 -22.30715,26.91945 -29.98063,26.35905c-8.91643,-0.65118 -31.09446,-26.02781 -31.47182,-26.22001c-20.04,-10.20648 -33.64652,-30.12932 -33.64652,-53.03527z" fill="#ffde00" stroke="#000000" stroke-width="0" stroke-linecap="butt"/><path d="M258.06116,154.23243c7.76363,-25.10672 32.44792,-43.45851 61.69847,-43.45851c29.96997,0 55.14628,19.26561 62.24041,45.32307c0.03539,0.12999 -123.99809,-1.67305 -123.93887,-1.86456z" fill="#ffd000" stroke="#000000" stroke-width="0" stroke-linecap="butt"/><path d="M259.59578,149.89572c9.13417,-22.85538 32.62532,-39.12179 60.16384,-39.12179c27.6486,0 51.21738,16.39669 60.27267,39.39615c0.03335,0.0847 -120.48565,-0.1514 -120.43651,-0.27435z" fill="#ffba00" stroke="#000000" stroke-width="0" stroke-linecap="butt"/><path d="M263.22901,142.41128c10.86377,-18.84073 32.10518,-31.63736 56.53063,-31.63736c24.3797,0 45.58727,12.74873 56.46946,31.53153c0.03445,0.05945 -113.04312,0.18047 -113.00009,0.10583z" fill="#ff9400" stroke="#000000" stroke-width="0" stroke-linecap="butt"/><g><path d="M268.99199,171.34787c0,-12.96801 10.97333,2.77823 23.94134,2.77823c12.96801,0 23.01997,-15.74624 23.01997,-2.77823c0,12.96801 -10.51264,4.5927 -23.48065,4.5927c-12.96801,0 -23.48066,8.37531 -23.48066,-4.5927z" fill="#000000" stroke="none" stroke-width="0" stroke-linecap="butt"/><path d="M293.9833,171.69997v5.67699" fill="none" stroke="#5d5d5d" stroke-width="0.5" stroke-linecap="round"/><path d="M289.25248,172.33075v5.67699" fill="none" stroke="#5d5d5d" stroke-width="0.5" stroke-linecap="round"/><path d="M299.81798,177.85004v-5.67699" fill="none" stroke="#5d5d5d" stroke-width="0.5" stroke-linecap="round"/></g><g><path d="M346.80379,175.94059c-12.96801,0 -23.94133,8.37531 -23.94133,-4.5927c0,-12.96801 11.20366,1.39618 24.17167,1.39618c12.96801,0 23.3546,-4.06815 23.01998,-1.39618c-0.12733,1.01671 -10.28231,4.5927 -23.25032,4.5927z" fill="#000000" stroke="none" stroke-width="0" stroke-linecap="butt"/><path d="M365.26106,169.33456v5.67699" fill="none" stroke="#5d5d5d" stroke-width="0.5" stroke-linecap="round"/><path d="M361.4764,169.96534v5.67699" fill="none" stroke="#5d5d5d" stroke-width="0.5" stroke-linecap="round"/><path d="M354.22247,176.2731v-5.67699" fill="none" stroke="#5d5d5d" stroke-width="0.5" stroke-linecap="round"/><path d="M343.49927,177.06157v-5.67699" fill="none" stroke="#5d5d5d" stroke-width="0.5" stroke-linecap="round"/></g><g stroke="#000000" stroke-width="0" stroke-linecap="round"><path d="M319.19264,111.45905l-1.2,-36.49866l14.92475,29.42308l26.33152,-19.08236l-6.28972,32.94105l17.69648,11.86622l-17.48327,2.41889" fill="#f58300"/><path d="M317.99262,111.45905v-37.09866l14.92475,29.42308l26.33152,-19.08236l-6.28972,32.94105l17.69648,12.36622l-17.48327,1.91889" fill="#ff9400"/></g><path d="M263.27297,143.36667c0,-0.9665 0.7835,-1.75 1.75,-1.75c0.9665,0 1.75,0.7835 1.75,1.75c0,0.9665 -0.7835,1.75 -1.75,1.75c-0.9665,0 -1.75,-0.7835 -1.75,-1.75z" fill="#ff9400" stroke="none" stroke-width="0.5" stroke-linecap="butt"/><path d="M372.43963,143.2c0,-0.9665 0.7835,-1.75 1.75,-1.75c0.9665,0 1.75,0.7835 1.75,1.75c0,0.9665 -0.7835,1.75 -1.75,1.75c-0.9665,0 -1.75,-0.7835 -1.75,-1.75z" fill="#ff9400" stroke="none" stroke-width="0.5" stroke-linecap="butt"/><path d="M368.6063,142.7c0,-0.9665 0.7835,-1.75 1.75,-1.75c0.9665,0 1.75,0.7835 1.75,1.75c0,0.9665 -0.7835,1.75 -1.75,1.75c-0.9665,0 -1.75,-0.7835 -1.75,-1.75z" fill="#ff9400" stroke="none" stroke-width="0.5" stroke-linecap="butt"/><path d="M364.27297,142.7c0,-0.9665 0.7835,-1.75 1.75,-1.75c0.9665,0 1.75,0.7835 1.75,1.75c0,0.9665 -0.7835,1.75 -1.75,1.75c-0.9665,0 -1.75,-0.7835 -1.75,-1.75z" fill="#ff9400" stroke="none" stroke-width="0.5" stroke-linecap="butt"/><path d="M354.6063,142.2c0,-0.9665 0.7835,-1.75 1.75,-1.75c0.45878,0 0.87634,0.17655 1.18842,0.46541c0.27927,-0.18861 0.6159,-0.29874 0.97825,-0.29874c0.9665,0 1.75,0.7835 1.75,1.75c0,0.9665 -0.7835,1.75 -1.75,1.75c-0.45878,0 -0.87634,-0.17655 -1.18842,-0.46541c-0.27927,0.18861 -0.6159,0.29874 -0.97825,0.29874c-0.9665,0 -1.75,-0.7835 -1.75,-1.75z" fill="#ff9400" stroke="none" stroke-width="0.5" stroke-linecap="butt"/><path d="M344.1063,142.03334c0,-0.9665 0.7835,-1.75 1.75,-1.75c0.02794,0 0.05572,0.00066 0.08334,0.00195c0.02762,-0.00129 0.0554,-0.00195 0.08333,-0.00195c0.9665,0 1.75,0.7835 1.75,1.75c0,0.9665 -0.7835,1.75 -1.75,1.75c-0.02794,0 -0.05572,-0.00065 -0.08333,-0.00195c-0.02762,0.00129 -0.0554,0.00195 -0.08334,0.00195c-0.9665,0 -1.75,-0.7835 -1.75,-1.75z" fill="#ff9400" stroke="none" stroke-width="0.5" stroke-linecap="butt"/><path d="M335.6063,142.03334c0,-0.9665 0.7835,-1.75 1.75,-1.75c0.08488,0 0.16835,0.00604 0.25,0.01772c0.08165,-0.01168 0.16512,-0.01772 0.25,-0.01772c0.9665,0 1.75,0.7835 1.75,1.75c0,0.9665 -0.7835,1.75 -1.75,1.75c-0.08488,0 -0.16835,-0.00605 -0.25,-0.01772c-0.08165,0.01168 -0.16512,0.01772 -0.25,0.01772c-0.9665,0 -1.75,-0.7835 -1.75,-1.75z" fill="#ff9400" stroke="none" stroke-width="0.5" stroke-linecap="butt"/><path d="M329.8563,140.61667c0.9665,0 1.75,0.7835 1.75,1.75c0,0.9665 -0.7835,1.75 -1.75,1.75c-0.44919,0 -0.85886,-0.16924 -1.1687,-0.44743c-0.32097,0.37583 -0.79831,0.6141 -1.3313,0.6141c-0.9665,0 -1.75,-0.7835 -1.75,-1.75c0,-0.9665 0.7835,-1.75 1.75,-1.75c0.44919,0 0.85886,0.16924 1.16871,0.44743c0.32097,-0.37583 0.79831,-0.6141 1.33129,-0.6141z" fill="#ff9400" stroke="none" stroke-width="0.5" stroke-linecap="butt"/><path d="M314.43962,142.2c0,-0.9665 0.7835,-1.75 1.75,-1.75c0.81289,0 1.49633,0.55424 1.69304,1.30545c0.24793,-0.66509 0.8888,-1.13878 1.6403,-1.13878c0.9665,0 1.75,0.7835 1.75,1.75c0,0.9665 -0.7835,1.75 -1.75,1.75c-0.81289,0 -1.49633,-0.55424 -1.69304,-1.30544c-0.24793,0.66509 -0.88879,1.13878 -1.64029,1.13878c-0.9665,0 -1.75,-0.7835 -1.75,-1.75z" fill="#ff9400" stroke="none" stroke-width="0.5" stroke-linecap="butt"/><path d="M309.77297,142.03334c0,-0.9665 0.7835,-1.75 1.75,-1.75c0.9665,0 1.75,0.7835 1.75,1.75c0,0.9665 -0.7835,1.75 -1.75,1.75c-0.9665,0 -1.75,-0.7835 -1.75,-1.75z" fill="#ff9400" stroke="none" stroke-width="0.5" stroke-linecap="butt"/><path d="M303.77297,141.7c0,-0.9665 0.7835,-1.75 1.75,-1.75c0.9665,0 1.75,0.7835 1.75,1.75c0,0.9665 -0.7835,1.75 -1.75,1.75c-0.9665,0 -1.75,-0.7835 -1.75,-1.75z" fill="#ff9400" stroke="none" stroke-width="0.5" stroke-linecap="butt"/><path d="M298.1063,141.7c0,-0.9665 0.7835,-1.75 1.75,-1.75c0.9665,0 1.75,0.7835 1.75,1.75c0,0.9665 -0.7835,1.75 -1.75,1.75c-0.9665,0 -1.75,-0.7835 -1.75,-1.75z" fill="#ff9400" stroke="none" stroke-width="0.5" stroke-linecap="butt"/><path d="M294.43962,141.7c0,-0.9665 0.7835,-1.75 1.75,-1.75c0.9665,0 1.75,0.7835 1.75,1.75c0,0.9665 -0.7835,1.75 -1.75,1.75c-0.9665,0 -1.75,-0.7835 -1.75,-1.75z" fill="#ff9400" stroke="none" stroke-width="0.5" stroke-linecap="butt"/><path d="M290.43962,142.2c0,-0.9665 0.7835,-1.75 1.75,-1.75c0.9665,0 1.75,0.7835 1.75,1.75c0,0.9665 -0.7835,1.75 -1.75,1.75c-0.9665,0 -1.75,-0.7835 -1.75,-1.75z" fill="#ff9400" stroke="none" stroke-width="0.5" stroke-linecap="butt"/><path d="M285.93962,142.86667c0,-0.9665 0.7835,-1.75 1.75,-1.75c0.9665,0 1.75,0.7835 1.75,1.75c0,0.9665 -0.7835,1.75 -1.75,1.75c-0.9665,0 -1.75,-0.7835 -1.75,-1.75z" fill="#ff9400" stroke="none" stroke-width="0.5" stroke-linecap="butt"/><path d="M279.43962,142.7c0,-0.9665 0.7835,-1.75 1.75,-1.75c0.9665,0 1.75,0.7835 1.75,1.75c0,0.9665 -0.7835,1.75 -1.75,1.75c-0.9665,0 -1.75,-0.7835 -1.75,-1.75z" fill="#ff9400" stroke="none" stroke-width="0.5" stroke-linecap="butt"/><path d="M273.43962,141.7c0,-0.9665 0.7835,-1.75 1.75,-1.75c0.9665,0 1.75,0.7835 1.75,1.75c0,0.9665 -0.7835,1.75 -1.75,1.75c-0.9665,0 -1.75,-0.7835 -1.75,-1.75z" fill="#ff9400" stroke="none" stroke-width="0.5" stroke-linecap="butt"/><path d="M268.27297,142.53334c0,-0.9665 0.7835,-1.75 1.75,-1.75c0.9665,0 1.75,0.7835 1.75,1.75c0,0.9665 -0.7835,1.75 -1.75,1.75c-0.9665,0 -1.75,-0.7835 -1.75,-1.75z" fill="#ff9400" stroke="none" stroke-width="0.5" stroke-linecap="butt"/><path d="M259.3563,150.49167c0,-0.9665 0.7835,-1.75 1.75,-1.75c0.9665,0 1.75,0.7835 1.75,1.75c0,0.9665 -0.7835,1.75 -1.75,1.75c-0.9665,0 -1.75,-0.7835 -1.75,-1.75z" fill="#ffba00" stroke="none" stroke-width="0.5" stroke-linecap="butt"/><path d="M374.6063,150.86667c0,-0.9665 0.7835,-1.75 1.75,-1.75c0.36356,0 0.70123,0.11087 0.98104,0.30063c0.30676,-0.26521 0.70662,-0.42563 1.14396,-0.42563c0.9665,0 1.75,0.7835 1.75,1.75c0,0.9665 -0.7835,1.75 -1.75,1.75c-0.36356,0 -0.70123,-0.11087 -0.98104,-0.30063c-0.30676,0.26521 -0.70662,0.42563 -1.14396,0.42563c-0.9665,0 -1.75,-0.7835 -1.75,-1.75z" fill="#ffba00" stroke="none" stroke-width="0.5" stroke-linecap="butt"/><path d="M365.27297,150.7c0,-0.9665 0.7835,-1.75 1.75,-1.75c0.37181,0 0.71654,0.11595 1,0.31367c0.26204,-0.18278 0.57643,-0.29568 0.91618,-0.3117c0.22744,-0.10813 0.4819,-0.16864 0.75049,-0.16864c0.9665,0 1.75,0.7835 1.75,1.75c0,0.9384 -0.73861,1.70428 -1.66618,1.74803c-0.22744,0.10813 -0.4819,0.16864 -0.75049,0.16864c-0.37181,0 -0.71654,-0.11595 -1,-0.31367c-0.28346,0.19772 -0.62819,0.31367 -1,0.31367c-0.9665,0 -1.75,-0.7835 -1.75,-1.75z" fill="#ffba00" stroke="none" stroke-width="0.5" stroke-linecap="butt"/><path d="M353.6063,149.86667c0,-0.9665 0.7835,-1.75 1.75,-1.75c0.36475,0 0.70344,0.11159 0.98379,0.3025c0.32099,-0.38835 0.80637,-0.63583 1.34955,-0.63583c0.9665,0 1.75,0.7835 1.75,1.75c0,0.9665 -0.7835,1.75 -1.75,1.75c-0.36475,0 -0.70344,-0.11159 -0.98378,-0.30249c-0.32099,0.38835 -0.80637,0.63583 -1.34956,0.63583c-0.9665,0 -1.75,-0.7835 -1.75,-1.75z" fill="#ffba00" stroke="none" stroke-width="0.5" stroke-linecap="butt"/><path d="M348.1063,149.86667c0,-0.9665 0.7835,-1.75 1.75,-1.75c0.9665,0 1.75,0.7835 1.75,1.75c0,0.9665 -0.7835,1.75 -1.75,1.75c-0.9665,0 -1.75,-0.7835 -1.75,-1.75z" fill="#ffba00" stroke="none" stroke-width="0.5" stroke-linecap="butt"/><path d="M341.6063,149.86667c0,-0.9665 0.7835,-1.75 1.75,-1.75c0.9665,0 1.75,0.7835 1.75,1.75c0,0.9665 -0.7835,1.75 -1.75,1.75c-0.9665,0 -1.75,-0.7835 -1.75,-1.75z" fill="#ffba00" stroke="none" stroke-width="0.5" stroke-linecap="butt"/><path d="M337.1063,149.86667c0,-0.9665 0.7835,-1.75 1.75,-1.75c0.9665,0 1.75,0.7835 1.75,1.75c0,0.9665 -0.7835,1.75 -1.75,1.75c-0.9665,0 -1.75,-0.7835 -1.75,-1.75z" fill="#ffba00" stroke="none" stroke-width="0.5" stroke-linecap="butt"/><path d="M329.93962,149.7c0,-0.9665 0.7835,-1.75 1.75,-1.75c0.9665,0 1.75,0.7835 1.75,1.75c0,0.9665 -0.7835,1.75 -1.75,1.75c-0.9665,0 -1.75,-0.7835 -1.75,-1.75z" fill="#ffba00" stroke="none" stroke-width="0.5" stroke-linecap="butt"/><path d="M321.6063,149.86667c0,-0.9665 0.7835,-1.75 1.75,-1.75c0.46159,0 0.88143,0.17871 1.19412,0.47071c0.31137,-0.48369 0.85455,-0.80404 1.47255,-0.80404c0.9665,0 1.75,0.7835 1.75,1.75c0,0.9665 -0.7835,1.75 -1.75,1.75c-0.46159,0 -0.88143,-0.17871 -1.19412,-0.4707c-0.31137,0.4837 -0.85455,0.80403 -1.47255,0.80403c-0.9665,0 -1.75,-0.7835 -1.75,-1.75z" fill="#ffba00" stroke="none" stroke-width="0.5" stroke-linecap="butt"/><path d="M312.77297,150.03334c0,-0.9665 0.7835,-1.75 1.75,-1.75c0.9665,0 1.75,0.7835 1.75,1.75c0,0.9665 -0.7835,1.75 -1.75,1.75c-0.9665,0 -1.75,-0.7835 -1.75,-1.75z" fill="#ffba00" stroke="none" stroke-width="0.5" stroke-linecap="butt"/><path d="M306.43962,150.03334c0,-0.9665 0.7835,-1.75 1.75,-1.75c0.9665,0 1.75,0.7835 1.75,1.75c0,0.9665 -0.7835,1.75 -1.75,1.75c-0.9665,0 -1.75,-0.7835 -1.75,-1.75z" fill="#ffba00" stroke="none" stroke-width="0.5" stroke-linecap="butt"/><path d="M301.77297,150.03334c0,-0.9665 0.7835,-1.75 1.75,-1.75c0.9665,0 1.75,0.7835 1.75,1.75c0,0.9665 -0.7835,1.75 -1.75,1.75c-0.9665,0 -1.75,-0.7835 -1.75,-1.75z" fill="#ffba00" stroke="none" stroke-width="0.5" stroke-linecap="butt"/><path d="M294.27297,149.36667c0,-0.9665 0.7835,-1.75 1.75,-1.75c0.9665,0 1.75,0.7835 1.75,1.75c0,0.9665 -0.7835,1.75 -1.75,1.75c-0.9665,0 -1.75,-0.7835 -1.75,-1.75z" fill="#ffba00" stroke="none" stroke-width="0.5" stroke-linecap="butt"/><path d="M289.43962,148.86667c0,-0.9665 0.7835,-1.75 1.75,-1.75c0.9665,0 1.75,0.7835 1.75,1.75c0,0.9665 -0.7835,1.75 -1.75,1.75c-0.9665,0 -1.75,-0.7835 -1.75,-1.75z" fill="#ffba00" stroke="none" stroke-width="0.5" stroke-linecap="butt"/><path d="M285.27297,148.86667c0,-0.9665 0.7835,-1.75 1.75,-1.75c0.9665,0 1.75,0.7835 1.75,1.75c0,0.9665 -0.7835,1.75 -1.75,1.75c-0.9665,0 -1.75,-0.7835 -1.75,-1.75z" fill="#ffba00" stroke="none" stroke-width="0.5" stroke-linecap="butt"/><path d="M278.43962,149.53334c0,-0.9665 0.7835,-1.75 1.75,-1.75c0.3361,0 0.65007,0.09475 0.91666,0.259c0.26659,-0.16425 0.58057,-0.259 0.91667,-0.259c0.9665,0 1.75,0.7835 1.75,1.75c0,0.9665 -0.7835,1.75 -1.75,1.75c-0.3361,0 -0.65008,-0.09475 -0.91667,-0.259c-0.26659,0.16425 -0.58056,0.259 -0.91666,0.259c-0.9665,0 -1.75,-0.7835 -1.75,-1.75z" fill="#ffba00" stroke="none" stroke-width="0.5" stroke-linecap="butt"/><path d="M267.1063,150.03334c0,-0.9665 0.7835,-1.75 1.75,-1.75c0.69955,0 1.30323,0.41045 1.58334,1.00368c0.28011,-0.59322 0.88379,-1.00368 1.58333,-1.00368c0.9665,0 1.75,0.7835 1.75,1.75c0,0.9665 -0.7835,1.75 -1.75,1.75c-0.69955,0 -1.30322,-0.41046 -1.58333,-1.00368c-0.28011,0.59322 -0.88379,1.00368 -1.58334,1.00368c-0.9665,0 -1.75,-0.7835 -1.75,-1.75z" fill="#ffba00" stroke="none" stroke-width="0.5" stroke-linecap="butt"/><path d="M262.77297,149.53334c0,-0.9665 0.7835,-1.75 1.75,-1.75c0.9665,0 1.75,0.7835 1.75,1.75c0,0.9665 -0.7835,1.75 -1.75,1.75c-0.9665,0 -1.75,-0.7835 -1.75,-1.75z" fill="#ffba00" stroke="none" stroke-width="0.5" stroke-linecap="butt"/><path d="M378.27297,155.7c0,-0.9665 0.7835,-1.75 1.75,-1.75c0.9665,0 1.75,0.7835 1.75,1.75c0,0.9665 -0.7835,1.75 -1.75,1.75c-0.9665,0 -1.75,-0.7835 -1.75,-1.75z" fill="#ffd000" stroke="none" stroke-width="0.5" stroke-linecap="butt"/><path d="M261.8563,152.95c0.9665,0 1.75,0.7835 1.75,1.75c0,0.9665 -0.7835,1.75 -1.75,1.75c-0.18611,0 -0.36544,-0.02905 -0.53369,-0.08288c-0.30529,0.25958 -0.70084,0.41621 -1.13297,0.41621c-0.9665,0 -1.75,-0.7835 -1.75,-1.75c0,-0.9665 0.7835,-1.75 1.75,-1.75c0.18611,0 0.36545,0.02905 0.5337,0.08287c0.30529,-0.25958 0.70083,-0.41621 1.13296,-0.41621z" fill="#ffd000" stroke="none" stroke-width="0.5" stroke-linecap="butt"/><path d="M268.27297,155.03334c0,-0.9665 0.7835,-1.75 1.75,-1.75c0.9665,0 1.75,0.7835 1.75,1.75c0,0.9665 -0.7835,1.75 -1.75,1.75c-0.9665,0 -1.75,-0.7835 -1.75,-1.75z" fill="#ffd000" stroke="none" stroke-width="0.5" stroke-linecap="butt"/><path d="M283.52297,152.61667c0.9665,0 1.75,0.7835 1.75,1.75c0,0.9665 -0.7835,1.75 -1.75,1.75c-0.53935,0 -1.02172,-0.24399 -1.34273,-0.62762c-0.20294,0.08229 -0.4248,0.12762 -0.65727,0.12762c-0.9665,0 -1.75,-0.7835 -1.75,-1.75c0,-0.9665 0.7835,-1.75 1.75,-1.75c0.53935,0 1.02171,0.24399 1.34273,0.62762c0.20294,-0.08229 0.42481,-0.12762 0.65727,-0.12762z" fill="#ffd000" stroke="none" stroke-width="0.5" stroke-linecap="butt"/><path d="M288.93962,155.03334c0,-0.9665 0.7835,-1.75 1.75,-1.75c0.9665,0 1.75,0.7835 1.75,1.75c0,0.9665 -0.7835,1.75 -1.75,1.75c-0.9665,0 -1.75,-0.7835 -1.75,-1.75z" fill="#ffd000" stroke="none" stroke-width="0.5" stroke-linecap="butt"/><path d="M295.27297,155.03334c0,-0.9665 0.7835,-1.75 1.75,-1.75c0.9665,0 1.75,0.7835 1.75,1.75c0,0.9665 -0.7835,1.75 -1.75,1.75c-0.9665,0 -1.75,-0.7835 -1.75,-1.75z" fill="#ffd000" stroke="none" stroke-width="0.5" stroke-linecap="butt"/><path d="M304.6063,155.03334c0,-0.9665 0.7835,-1.75 1.75,-1.75c0.9665,0 1.75,0.7835 1.75,1.75c0,0.9665 -0.7835,1.75 -1.75,1.75c-0.9665,0 -1.75,-0.7835 -1.75,-1.75z" fill="#ffd000" stroke="none" stroke-width="0.5" stroke-linecap="butt"/><path d="M313.1063,155.03334c0,-0.9665 0.7835,-1.75 1.75,-1.75c0.9665,0 1.75,0.7835 1.75,1.75c0,0.9665 -0.7835,1.75 -1.75,1.75c-0.9665,0 -1.75,-0.7835 -1.75,-1.75z" fill="#ffd000" stroke="none" stroke-width="0.5" stroke-linecap="butt"/><path d="M319.77297,154.86667c0,-0.9665 0.7835,-1.75 1.75,-1.75c0.9665,0 1.75,0.7835 1.75,1.75c0,0.9665 -0.7835,1.75 -1.75,1.75c-0.9665,0 -1.75,-0.7835 -1.75,-1.75z" fill="#ffd000" stroke="none" stroke-width="0.5" stroke-linecap="butt"/><path d="M332.6063,155.7c0,1.75 -1.75,1.75 -1.75,1.75l-1.3166,-0.12516c-0.55556,-0.22222 -1.11111,-0.44445 -1.66666,-0.66666c0,0 -1.62484,-0.64994 -0.9749,-2.27477c0.64994,-1.62483 2.27477,-0.9749 2.27477,-0.9749c0.55556,0.22222 1.11111,0.44445 1.66667,0.66666l0.01673,-0.12517c0,0 1.75,0 1.75,1.75z" fill="#ffd000" stroke="none" stroke-width="0.5" stroke-linecap="butt"/><path d="M335.27297,155.53334c0,-0.9665 0.7835,-1.75 1.75,-1.75c0.9665,0 1.75,0.7835 1.75,1.75c0,0.9665 -0.7835,1.75 -1.75,1.75c-0.9665,0 -1.75,-0.7835 -1.75,-1.75z" fill="#ffd000" stroke="none" stroke-width="0.5" stroke-linecap="butt"/><path d="M346.02297,152.95c0.9665,0 1.75,0.7835 1.75,1.75c0,0.9665 -0.7835,1.75 -1.75,1.75c-0.3361,0 -0.65008,-0.09475 -0.91667,-0.259c-0.26659,0.16425 -0.58056,0.259 -0.91666,0.259c-0.77985,0 -1.44056,-0.51011 -1.66667,-1.21486c-0.22611,0.70476 -0.88682,1.21486 -1.66667,1.21486c-0.9665,0 -1.75,-0.7835 -1.75,-1.75c0,-0.9665 0.7835,-1.75 1.75,-1.75c0.77985,0 1.44056,0.51011 1.66667,1.21487c0.22611,-0.70476 0.88681,-1.21487 1.66667,-1.21487c0.3361,0 0.65007,0.09475 0.91666,0.259c0.26659,-0.16425 0.58057,-0.259 0.91667,-0.259z" fill="#ffd000" stroke="none" stroke-width="0.5" stroke-linecap="butt"/><path d="M350.93963,155.86667c0,-0.9665 0.7835,-1.75 1.75,-1.75c0.9665,0 1.75,0.7835 1.75,1.75c0,0.9665 -0.7835,1.75 -1.75,1.75c-0.9665,0 -1.75,-0.7835 -1.75,-1.75z" fill="#ffd000" stroke="none" stroke-width="0.5" stroke-linecap="butt"/><path d="M356.27297,155.7c0,-0.9665 0.7835,-1.75 1.75,-1.75c0.9665,0 1.75,0.7835 1.75,1.75c0,0.9665 -0.7835,1.75 -1.75,1.75c-0.9665,0 -1.75,-0.7835 -1.75,-1.75z" fill="#ffd000" stroke="none" stroke-width="0.5" stroke-linecap="butt"/><path d="M366.68963,154.28334c0.9665,0 1.75,0.7835 1.75,1.75c0,0.9665 -0.7835,1.75 -1.75,1.75c-0.64292,0 -1.20486,-0.34669 -1.50907,-0.86332c-0.10508,0.01969 -0.21348,0.02998 -0.32427,0.02998c-0.9665,0 -1.75,-0.7835 -1.75,-1.75c0,-0.9665 0.7835,-1.75 1.75,-1.75c0.64292,0 1.20486,0.3467 1.50907,0.86332c0.10508,-0.01969 0.21348,-0.02999 0.32427,-0.02999z" fill="#ffd000" stroke="none" stroke-width="0.5" stroke-linecap="butt"/><path d="M373.27297,156.2c0,-0.9665 0.7835,-1.75 1.75,-1.75c0.9665,0 1.75,0.7835 1.75,1.75c0,0.9665 -0.7835,1.75 -1.75,1.75c-0.9665,0 -1.75,-0.7835 -1.75,-1.75z" fill="#ffd000" stroke="none" stroke-width="0.5" stroke-linecap="butt"/><path d="M267.24915,143.15238c0,-0.69035 0.55964,-1.25 1.25,-1.25c0.69036,0 1.25,0.55965 1.25,1.25c0,0.69035 -0.55964,1.25 -1.25,1.25c-0.69036,0 -1.25,-0.55965 -1.25,-1.25z" fill="#ff9400" stroke="none" stroke-width="0.5" stroke-linecap="butt"/><path d="M275.07057,144.47381c0.69036,0 1.25,0.55965 1.25,1.25c0,0.69035 -0.55964,1.25 -1.25,1.25c-0.04831,0 -0.09598,-0.00274 -0.14285,-0.00808c-0.04688,0.00534 -0.09454,0.00808 -0.14285,0.00808c-0.69036,0 -1.25,-0.55965 -1.25,-1.25c0,-0.10971 0.01414,-0.21612 0.04068,-0.31751c-0.21542,0.17614 -0.49071,0.2818 -0.79068,0.2818c-0.69036,0 -1.25,-0.55965 -1.25,-1.25c0,-0.69035 0.55964,-1.25 1.25,-1.25c0.69036,0 1.25,0.55965 1.25,1.25c0,0.10971 -0.01414,0.21612 -0.04068,0.31751c0.21542,-0.17614 0.49072,-0.2818 0.79068,-0.2818c0.04831,0 0.09598,0.00274 0.14285,0.00808c0.04688,-0.00534 0.09454,-0.00808 0.14285,-0.00808z" fill="#ff9400" stroke="none" stroke-width="0.5" stroke-linecap="butt"/><path d="M279.39201,144.4381c0,-0.69035 0.55964,-1.25 1.25,-1.25c0.69036,0 1.25,0.55965 1.25,1.25c0,0.69035 -0.55964,1.25 -1.25,1.25c-0.69036,0 -1.25,-0.55965 -1.25,-1.25z" fill="#ff9400" stroke="none" stroke-width="0.5" stroke-linecap="butt"/><path d="M284.39201,143.4381c0,-0.69035 0.55964,-1.25 1.25,-1.25c0.69036,0 1.25,0.55965 1.25,1.25c0,0.69035 -0.55964,1.25 -1.25,1.25c-0.69036,0 -1.25,-0.55965 -1.25,-1.25z" fill="#ff9400" stroke="none" stroke-width="0.5" stroke-linecap="butt"/><path d="M295.82057,145.86667c0,-0.69035 0.55964,-1.25 1.25,-1.25c0.69036,0 1.25,0.55965 1.25,1.25c0,0.69035 -0.55964,1.25 -1.25,1.25c-0.69036,0 -1.25,-0.55965 -1.25,-1.25z" fill="#ff9400" stroke="none" stroke-width="0.5" stroke-linecap="butt"/><path d="M304.17116,141.84547c0.59262,1.10059 -0.50797,1.69321 -0.50797,1.69321l-1.85714,1c0,0 -1.10059,0.59262 -1.69322,-0.50796c-0.59262,-1.10059 0.50797,-1.69322 0.50797,-1.69322l1.85714,-1c0,0 1.10059,-0.59262 1.69322,0.50797z" fill="#ff9400" stroke="none" stroke-width="0.5" stroke-linecap="butt"/><path d="M305.67773,141.58095c0,-0.69035 0.55964,-1.25 1.25,-1.25c0.69036,0 1.25,0.55965 1.25,1.25c0,0.69035 -0.55964,1.25 -1.25,1.25c-0.69036,0 -1.25,-0.55965 -1.25,-1.25z" fill="#ff9400" stroke="none" stroke-width="0.5" stroke-linecap="butt"/><path d="M313.39201,143.86667c0,-0.69035 0.55964,-1.25 1.25,-1.25c0.69036,0 1.25,0.55965 1.25,1.25c0,0.69035 -0.55964,1.25 -1.25,1.25c-0.69036,0 -1.25,-0.55965 -1.25,-1.25z" fill="#ff9400" stroke="none" stroke-width="0.5" stroke-linecap="butt"/><path d="M320.67772,145.86667c0,-0.69036 0.55964,-1.25 1.25,-1.25c0.69036,0 1.25,0.55964 1.25,1.25c0,0.69036 -0.55964,1.25 -1.25,1.25c-0.69036,0 -1.25,-0.55964 -1.25,-1.25z" fill="#ff9400" stroke="none" stroke-width="0.5" stroke-linecap="butt"/><path d="M326.53486,143.29524c0,-0.69036 0.55964,-1.25 1.25,-1.25c0.69036,0 1.25,0.55964 1.25,1.25c0,0.69036 -0.55964,1.25 -1.25,1.25c-0.69036,0 -1.25,-0.55964 -1.25,-1.25z" fill="#ff9400" stroke="none" stroke-width="0.5" stroke-linecap="butt"/><path d="M331.53486,142.29524c0,-0.69036 0.55964,-1.25 1.25,-1.25c0.69036,0 1.25,0.55964 1.25,1.25c0,0.69036 -0.55964,1.25 -1.25,1.25c-0.69036,0 -1.25,-0.55964 -1.25,-1.25z" fill="#ff9400" stroke="none" stroke-width="0.5" stroke-linecap="butt"/><path d="M334.96344,143.15238c0,-0.69036 0.55964,-1.25 1.25,-1.25c0.69036,0 1.25,0.55964 1.25,1.25c0,0.69036 -0.55964,1.25 -1.25,1.25c-0.69036,0 -1.25,-0.55964 -1.25,-1.25z" fill="#ff9400" stroke="none" stroke-width="0.5" stroke-linecap="butt"/><path d="M342.96344,146.58095c0,-0.69036 0.55964,-1.25 1.25,-1.25c0.69036,0 1.25,0.55964 1.25,1.25c0,0.69036 -0.55964,1.25 -1.25,1.25c-0.69036,0 -1.25,-0.55964 -1.25,-1.25z" fill="#ff9400" stroke="none" stroke-width="0.5" stroke-linecap="butt"/><path d="M348.53487,146.00952c0,-0.69036 0.55964,-1.25 1.25,-1.25c0.69036,0 1.25,0.55964 1.25,1.25c0,0.69036 -0.55964,1.25 -1.25,1.25c-0.69036,0 -1.25,-0.55964 -1.25,-1.25z" fill="#ff9400" stroke="none" stroke-width="0.5" stroke-linecap="butt"/><path d="M352.1063,143.4381c0,-0.69036 0.55964,-1.25 1.25,-1.25c0.69036,0 1.25,0.55964 1.25,1.25c0,0.69036 -0.55964,1.25 -1.25,1.25c-0.69036,0 -1.25,-0.55964 -1.25,-1.25z" fill="#ff9400" stroke="none" stroke-width="0.5" stroke-linecap="butt"/><path d="M355.53487,143.72381c0,-0.69036 0.55964,-1.25 1.25,-1.25c0.69036,0 1.25,0.55964 1.25,1.25c0,0.69036 -0.55964,1.25 -1.25,1.25c-0.69036,0 -1.25,-0.55964 -1.25,-1.25z" fill="#ff9400" stroke="none" stroke-width="0.5" stroke-linecap="butt"/><path d="M362.96344,144.29524c0,-0.69036 0.55964,-1.25 1.25,-1.25c0.69036,0 1.25,0.55964 1.25,1.25c0,0.69036 -0.55964,1.25 -1.25,1.25c-0.69036,0 -1.25,-0.55964 -1.25,-1.25z" fill="#ff9400" stroke="none" stroke-width="0.5" stroke-linecap="butt"/><path d="M368.49915,144.47381c0.69036,0 1.25,0.55964 1.25,1.25c0,0.69036 -0.55964,1.25 -1.25,1.25c-0.47852,0 -0.89423,-0.26888 -1.10431,-0.6638c-0.22708,0.23323 -0.54447,0.37809 -0.89569,0.37809c-0.69036,0 -1.25,-0.55964 -1.25,-1.25c0,-0.69036 0.55964,-1.25 1.25,-1.25c0.47852,0 0.89423,0.26888 1.10431,0.6638c0.22708,-0.23323 0.54447,-0.37809 0.89569,-0.37809z" fill="#ff9400" stroke="none" stroke-width="0.5" stroke-linecap="butt"/><path d="M266.67772,151.86667c0,-0.69036 0.55964,-1.25 1.25,-1.25c0.69036,0 1.25,0.55964 1.25,1.25c0,0.69036 -0.55964,1.25 -1.25,1.25c-0.69036,0 -1.25,-0.55964 -1.25,-1.25z" fill="#ffba00" stroke="none" stroke-width="0.5" stroke-linecap="butt"/><path d="M273.1063,150.00952c0,-0.69036 0.55964,-1.25 1.25,-1.25c0.69036,0 1.25,0.55964 1.25,1.25c0,0.69036 -0.55964,1.25 -1.25,1.25c-0.69036,0 -1.25,-0.55964 -1.25,-1.25z" fill="#ffba00" stroke="none" stroke-width="0.5" stroke-linecap="butt"/><path d="M279.39201,149.4381c0,-0.69036 0.55964,-1.25 1.25,-1.25c0.69036,0 1.25,0.55964 1.25,1.25c0,0.69036 -0.55964,1.25 -1.25,1.25c-0.69036,0 -1.25,-0.55964 -1.25,-1.25z" fill="#ffba00" stroke="none" stroke-width="0.5" stroke-linecap="butt"/><path d="M282.1063,152.00952c0,-0.69036 0.55964,-1.25 1.25,-1.25c0.69036,0 1.25,0.55964 1.25,1.25c0,0.69036 -0.55964,1.25 -1.25,1.25c-0.69036,0 -1.25,-0.55964 -1.25,-1.25z" fill="#ffba00" stroke="none" stroke-width="0.5" stroke-linecap="butt"/><path d="M290.21344,149.1881c0.69036,0 1.25,0.55964 1.25,1.25c0,0.69036 -0.55964,1.25 -1.25,1.25c-0.22168,0 -0.42989,-0.05771 -0.61041,-0.15892c-0.04665,0.64783 -0.58701,1.15892 -1.24673,1.15892c-0.69036,0 -1.25,-0.55964 -1.25,-1.25c0,-0.69036 0.55964,-1.25 1.25,-1.25c0.22168,0 0.42989,0.05771 0.61041,0.15892c0.04665,-0.64783 0.58701,-1.15892 1.24673,-1.15892z" fill="#ffba00" stroke="none" stroke-width="0.5" stroke-linecap="butt"/><path d="M296.39201,150.29524c0,-0.69036 0.55964,-1.25 1.25,-1.25c0.69036,0 1.25,0.55964 1.25,1.25c0,0.69036 -0.55964,1.25 -1.25,1.25c-0.69036,0 -1.25,-0.55964 -1.25,-1.25z" fill="#ffba00" stroke="none" stroke-width="0.5" stroke-linecap="butt"/><path d="M302.67772,152.58095c0,-0.69036 0.55964,-1.25 1.25,-1.25c0.69036,0 1.25,0.55964 1.25,1.25c0,0.69036 -0.55964,1.25 -1.25,1.25c-0.69036,0 -1.25,-0.55964 -1.25,-1.25z" fill="#ffba00" stroke="none" stroke-width="0.5" stroke-linecap="butt"/><path d="M310.24915,151.29524c0,-0.69036 0.55964,-1.25 1.25,-1.25c0.69036,0 1.25,0.55964 1.25,1.25c0,0.69036 -0.55964,1.25 -1.25,1.25c-0.69036,0 -1.25,-0.55964 -1.25,-1.25z" fill="#ffba00" stroke="none" stroke-width="0.5" stroke-linecap="butt"/><path d="M313.1063,150.4381c0,-0.69036 0.55964,-1.25 1.25,-1.25c0.69036,0 1.25,0.55964 1.25,1.25c0,0.69036 -0.55964,1.25 -1.25,1.25c-0.69036,0 -1.25,-0.55964 -1.25,-1.25z" fill="#ffba00" stroke="none" stroke-width="0.5" stroke-linecap="butt"/><path d="M321.24915,152.86667c0,-0.69036 0.55964,-1.25 1.25,-1.25c0.69036,0 1.25,0.55964 1.25,1.25c0,0.69036 -0.55964,1.25 -1.25,1.25c-0.69036,0 -1.25,-0.55964 -1.25,-1.25z" fill="#ffba00" stroke="none" stroke-width="0.5" stroke-linecap="butt"/><path d="M331.39201,151.15238c0,-0.69036 0.55964,-1.25 1.25,-1.25c0.69036,0 1.25,0.55964 1.25,1.25c0,0.69036 -0.55964,1.25 -1.25,1.25c-0.69036,0 -1.25,-0.55964 -1.25,-1.25z" fill="#ffba00" stroke="none" stroke-width="0.5" stroke-linecap="butt"/><path d="M333.67772,149.72381c0,-0.69036 0.55964,-1.25 1.25,-1.25c0.69036,0 1.25,0.55964 1.25,1.25c0,0.69036 -0.55964,1.25 -1.25,1.25c-0.69036,0 -1.25,-0.55964 -1.25,-1.25z" fill="#ffba00" stroke="none" stroke-width="0.5" stroke-linecap="butt"/><path d="M342.53487,151.4381c0,-0.69036 0.55964,-1.25 1.25,-1.25c0.69036,0 1.25,0.55964 1.25,1.25c0,0.69036 -0.55964,1.25 -1.25,1.25c-0.69036,0 -1.25,-0.55964 -1.25,-1.25z" fill="#ffba00" stroke="none" stroke-width="0.5" stroke-linecap="butt"/><path d="M345.82057,153.00952c0,-0.69036 0.55964,-1.25 1.25,-1.25c0.69036,0 1.25,0.55964 1.25,1.25c0,0.69036 -0.55964,1.25 -1.25,1.25c-0.69036,0 -1.25,-0.55964 -1.25,-1.25z" fill="#ffba00" stroke="none" stroke-width="0.5" stroke-linecap="butt"/><path d="M350.96344,151.86667c0,-0.69036 0.55964,-1.25 1.25,-1.25c0.69036,0 1.25,0.55964 1.25,1.25c0,0.69036 -0.55964,1.25 -1.25,1.25c-0.69036,0 -1.25,-0.55964 -1.25,-1.25z" fill="#ffba00" stroke="none" stroke-width="0.5" stroke-linecap="butt"/><path d="M358.67772,151.00952c0,-0.69036 0.55964,-1.25 1.25,-1.25c0.69036,0 1.25,0.55964 1.25,1.25c0,0.69036 -0.55964,1.25 -1.25,1.25c-0.69036,0 -1.25,-0.55964 -1.25,-1.25z" fill="#ffba00" stroke="none" stroke-width="0.5" stroke-linecap="butt"/><path d="M363.82057,151.72381c0,-0.69036 0.55964,-1.25 1.25,-1.25c0.69036,0 1.25,0.55964 1.25,1.25c0,0.69036 -0.55964,1.25 -1.25,1.25c-0.69036,0 -1.25,-0.55964 -1.25,-1.25z" fill="#ffba00" stroke="none" stroke-width="0.5" stroke-linecap="butt"/><path d="M368.82057,153.86667c0,-0.69036 0.55964,-1.25 1.25,-1.25c0.69036,0 1.25,0.55964 1.25,1.25c0,0.69036 -0.55964,1.25 -1.25,1.25c-0.69036,0 -1.25,-0.55964 -1.25,-1.25z" fill="#ffba00" stroke="none" stroke-width="0.5" stroke-linecap="butt"/><path d="M373.67772,152.4381c0,-0.69036 0.55964,-1.25 1.25,-1.25c0.69036,0 1.25,0.55964 1.25,1.25c0,0.69036 -0.55964,1.25 -1.25,1.25c-0.69036,0 -1.25,-0.55964 -1.25,-1.25z" fill="#ffba00" stroke="none" stroke-width="0.5" stroke-linecap="butt"/><path d="M265.1063,154.72381c0,-0.69036 0.55964,-1.25 1.25,-1.25c0.69036,0 1.25,0.55964 1.25,1.25c0,0.69036 -0.55964,1.25 -1.25,1.25c-0.69036,0 -1.25,-0.55964 -1.25,-1.25z" fill="#ffd000" stroke="none" stroke-width="0.5" stroke-linecap="butt"/><path d="M272.3563,155.90238c0.69036,0 1.25,0.55964 1.25,1.25c0,0.69036 -0.55964,1.25 -1.25,1.25c-0.36852,0 -0.69979,-0.15947 -0.92857,-0.41317c-0.22878,0.2537 -0.56005,0.41317 -0.92857,0.41317c-0.69036,0 -1.25,-0.55964 -1.25,-1.25c0,-0.69036 0.55964,-1.25 1.25,-1.25c0.36852,0 0.69979,0.15947 0.92857,0.41317c0.22878,-0.2537 0.56005,-0.41317 0.92857,-0.41317z" fill="#ffd000" stroke="none" stroke-width="0.5" stroke-linecap="butt"/><path d="M275.82057,155.4381c0,-0.69036 0.55964,-1.25 1.25,-1.25c0.69036,0 1.25,0.55964 1.25,1.25c0,0.69036 -0.55964,1.25 -1.25,1.25c-0.69036,0 -1.25,-0.55964 -1.25,-1.25z" fill="#ffd000" stroke="none" stroke-width="0.5" stroke-linecap="butt"/><path d="M278.82057,154.58095c0,-0.69036 0.55964,-1.25 1.25,-1.25c0.69036,0 1.25,0.55964 1.25,1.25c0,0.69036 -0.55964,1.25 -1.25,1.25c-0.69036,0 -1.25,-0.55964 -1.25,-1.25z" fill="#ffd000" stroke="none" stroke-width="0.5" stroke-linecap="butt"/><path d="M283.1063,154.86667c0,-0.69036 0.55964,-1.25 1.25,-1.25c0.69036,0 1.25,0.55964 1.25,1.25c0,0.69036 -0.55964,1.25 -1.25,1.25c-0.69036,0 -1.25,-0.55964 -1.25,-1.25z" fill="#ffd000" stroke="none" stroke-width="0.5" stroke-linecap="butt"/><path d="M289.24915,155.86667c0,-0.69036 0.55964,-1.25 1.25,-1.25c0.69036,0 1.25,0.55964 1.25,1.25c0,0.69036 -0.55964,1.25 -1.25,1.25c-0.69036,0 -1.25,-0.55964 -1.25,-1.25z" fill="#ffd000" stroke="none" stroke-width="0.5" stroke-linecap="butt"/><path d="M294.96344,157.86667c0,-0.69036 0.55964,-1.25 1.25,-1.25c0.69036,0 1.25,0.55964 1.25,1.25c0,0.69036 -0.55964,1.25 -1.25,1.25c-0.69036,0 -1.25,-0.55964 -1.25,-1.25z" fill="#ffd000" stroke="none" stroke-width="0.5" stroke-linecap="butt"/><path d="M298.67772,158.86667c0,-0.69036 0.55964,-1.25 1.25,-1.25c0.69036,0 1.25,0.55964 1.25,1.25c0,0.69036 -0.55964,1.25 -1.25,1.25c-0.69036,0 -1.25,-0.55964 -1.25,-1.25z" fill="#ffd000" stroke="none" stroke-width="0.5" stroke-linecap="butt"/><path d="M305.53486,160.15238c0,-0.69036 0.55964,-1.25 1.25,-1.25c0.69036,0 1.25,0.55964 1.25,1.25c0,0.69036 -0.55964,1.25 -1.25,1.25c-0.69036,0 -1.25,-0.55964 -1.25,-1.25z" fill="#ffd000" stroke="none" stroke-width="0.5" stroke-linecap="butt"/><path d="M311.39201,158.58095c0,-0.69036 0.55964,-1.25 1.25,-1.25c0.69036,0 1.25,0.55964 1.25,1.25c0,0.69036 -0.55964,1.25 -1.25,1.25c-0.69036,0 -1.25,-0.55964 -1.25,-1.25z" fill="#ffd000" stroke="none" stroke-width="0.5" stroke-linecap="butt"/><path d="M319.3563,154.61667c0.69036,0 1.25,0.55964 1.25,1.25c0,0.69036 -0.55964,1.25 -1.25,1.25c-0.41182,0 -0.77712,-0.19915 -1.00486,-0.50639c-0.20154,0.13917 -0.44597,0.22068 -0.70942,0.22068c-0.69036,0 -1.25,-0.55964 -1.25,-1.25c0,-0.69036 0.55964,-1.25 1.25,-1.25c0.41182,0 0.77712,0.19915 1.00486,0.50639c0.20154,-0.13917 0.44597,-0.22068 0.70942,-0.22068z" fill="#ffd000" stroke="none" stroke-width="0.5" stroke-linecap="butt"/><path d="M326.24915,157.15238c0,-0.69036 0.55964,-1.25 1.25,-1.25c0.69036,0 1.25,0.55964 1.25,1.25c0,0.69036 -0.55964,1.25 -1.25,1.25c-0.69036,0 -1.25,-0.55964 -1.25,-1.25z" fill="#ffd000" stroke="none" stroke-width="0.5" stroke-linecap="butt"/><path d="M331.82057,159.00952c0,-0.69036 0.55964,-1.25 1.25,-1.25c0.69036,0 1.25,0.55964 1.25,1.25c0,0.69036 -0.55964,1.25 -1.25,1.25c-0.69036,0 -1.25,-0.55964 -1.25,-1.25z" fill="#ffd000" stroke="none" stroke-width="0.5" stroke-linecap="butt"/><path d="M334.82057,159.72381c0,-0.69036 0.55964,-1.25 1.25,-1.25c0.69036,0 1.25,0.55964 1.25,1.25c0,0.69036 -0.55964,1.25 -1.25,1.25c-0.69036,0 -1.25,-0.55964 -1.25,-1.25z" fill="#ffd000" stroke="none" stroke-width="0.5" stroke-linecap="butt"/><path d="M341.96344,160.72381c0,-0.69036 0.55964,-1.25 1.25,-1.25c0.69036,0 1.25,0.55964 1.25,1.25c0,0.69036 -0.55964,1.25 -1.25,1.25c-0.69036,0 -1.25,-0.55964 -1.25,-1.25z" fill="#ffd000" stroke="none" stroke-width="0.5" stroke-linecap="butt"/><path d="M348.1063,159.72381c0,-0.69036 0.55964,-1.25 1.25,-1.25c0.69036,0 1.25,0.55964 1.25,1.25c0,0.69036 -0.55964,1.25 -1.25,1.25c-0.69036,0 -1.25,-0.55964 -1.25,-1.25z" fill="#ffd000" stroke="none" stroke-width="0.5" stroke-linecap="butt"/><path d="M352.96344,157.86667c0,-0.69036 0.55964,-1.25 1.25,-1.25c0.69036,0 1.25,0.55964 1.25,1.25c0,0.69036 -0.55964,1.25 -1.25,1.25c-0.69036,0 -1.25,-0.55964 -1.25,-1.25z" fill="#ffd000" stroke="none" stroke-width="0.5" stroke-linecap="butt"/><path d="M356.67772,156.15238c0,-0.69036 0.55964,-1.25 1.25,-1.25c0.69036,0 1.25,0.55964 1.25,1.25c0,0.69036 -0.55964,1.25 -1.25,1.25c-0.69036,0 -1.25,-0.55964 -1.25,-1.25z" fill="#ffd000" stroke="none" stroke-width="0.5" stroke-linecap="butt"/><path d="M364.92772,156.04524c0.69036,0 1.25,0.55964 1.25,1.25c0,0.69036 -0.55964,1.25 -1.25,1.25c-0.02397,0 -0.04779,-0.00067 -0.07143,-0.00201c-0.02364,0.00133 -0.04746,0.00201 -0.07143,0.00201c-0.69036,0 -1.25,-0.55964 -1.25,-1.25c0,-0.69036 0.55964,-1.25 1.25,-1.25c0.02397,0 0.04779,0.00067 0.07143,0.00201c0.02364,-0.00133 0.04746,-0.00201 0.07143,-0.00201z" fill="#ffd000" stroke="none" stroke-width="0.5" stroke-linecap="butt"/><path d="M371.64201,159.33095c0.69036,0 1.25,0.55964 1.25,1.25c0,0.69036 -0.55964,1.25 -1.25,1.25c-0.44158,0 -0.82969,-0.22898 -1.05205,-0.57468c-0.02999,0.00215 -0.06027,0.00325 -0.0908,0.00325c-0.49263,0 -0.9187,-0.28498 -1.12236,-0.69907c-0.4141,-0.20365 -0.69907,-0.62972 -0.69907,-1.12236c0,-0.69036 0.55964,-1.25 1.25,-1.25c0.2059,0 0.40017,0.04978 0.57143,0.13796c0.23851,0.12281 0.43239,0.32009 0.55093,0.56111c0.20498,0.10081 0.37833,0.25612 0.50113,0.44703c0.02999,-0.00215 0.06027,-0.00325 0.0908,-0.00325z" fill="#ffd000" stroke="none" stroke-width="0.5" stroke-linecap="butt"/><path d="M378.82057,156.4381c0,-0.69036 0.55964,-1.25 1.25,-1.25c0.69036,0 1.25,0.55964 1.25,1.25c0,0.69036 -0.55964,1.25 -1.25,1.25c-0.69036,0 -1.25,-0.55964 -1.25,-1.25z" fill="#ffd000" stroke="none" stroke-width="0.5" stroke-linecap="butt"/><path d="M268.27296,147.03333c0,-0.41421 0.33579,-0.75 0.75,-0.75c0.41421,0 0.75,0.33579 0.75,0.75c0,0.41421 -0.33579,0.75 -0.75,0.75c-0.41421,0 -0.75,-0.33579 -0.75,-0.75z" fill="#ff9400" stroke="none" stroke-width="0.5" stroke-linecap="butt"/><path d="M275.6063,147.86667c0,-0.41421 0.33579,-0.75 0.75,-0.75c0.41421,0 0.75,0.33579 0.75,0.75c0,0.41421 -0.33579,0.75 -0.75,0.75c-0.41421,0 -0.75,-0.33579 -0.75,-0.75z" fill="#ff9400" stroke="none" stroke-width="0.5" stroke-linecap="butt"/><path d="M281.77296,145.53333c0,-0.41421 0.33579,-0.75 0.75,-0.75c0.41421,0 0.75,0.33579 0.75,0.75c0,0.41421 -0.33579,0.75 -0.75,0.75c-0.41421,0 -0.75,-0.33579 -0.75,-0.75z" fill="#ff9400" stroke="none" stroke-width="0.5" stroke-linecap="butt"/><path d="M291.1063,149.03333c0,-0.41421 0.33579,-0.75 0.75,-0.75c0.41421,0 0.75,0.33579 0.75,0.75c0,0.41421 -0.33579,0.75 -0.75,0.75c-0.41421,0 -0.75,-0.33579 -0.75,-0.75z" fill="#ff9400" stroke="none" stroke-width="0.5" stroke-linecap="butt"/><path d="M296.77296,148.53333c0,-0.41421 0.33579,-0.75 0.75,-0.75c0.41421,0 0.75,0.33579 0.75,0.75c0,0.41421 -0.33579,0.75 -0.75,0.75c-0.41421,0 -0.75,-0.33579 -0.75,-0.75z" fill="#ff9400" stroke="none" stroke-width="0.5" stroke-linecap="butt"/><path d="M312.93962,148.53333c0,-0.41421 0.33579,-0.75 0.75,-0.75c0.41421,0 0.75,0.33579 0.75,0.75c0,0.41421 -0.33579,0.75 -0.75,0.75c-0.41421,0 -0.75,-0.33579 -0.75,-0.75z" fill="#ff9400" stroke="none" stroke-width="0.5" stroke-linecap="butt"/><path d="M331.43962,146.2c0,-0.41421 0.33579,-0.75 0.75,-0.75c0.41421,0 0.75,0.33579 0.75,0.75c0,0.41421 -0.33579,0.75 -0.75,0.75c-0.41421,0 -0.75,-0.33579 -0.75,-0.75z" fill="#ff9400" stroke="none" stroke-width="0.5" stroke-linecap="butt"/><path d="M342.77296,149.53333c0,-0.41421 0.33579,-0.75 0.75,-0.75c0.41421,0 0.75,0.33579 0.75,0.75c0,0.41421 -0.33579,0.75 -0.75,0.75c-0.41421,0 -0.75,-0.33579 -0.75,-0.75z" fill="#ff9400" stroke="none" stroke-width="0.5" stroke-linecap="butt"/><path d="M357.43963,147.53333c0,-0.41421 0.33579,-0.75 0.75,-0.75c0.41421,0 0.75,0.33579 0.75,0.75c0,0.41421 -0.33579,0.75 -0.75,0.75c-0.41421,0 -0.75,-0.33579 -0.75,-0.75z" fill="#ff9400" stroke="none" stroke-width="0.5" stroke-linecap="butt"/><path d="M368.1063,149.53333c0,-0.41421 0.33579,-0.75 0.75,-0.75c0.41421,0 0.75,0.33579 0.75,0.75c0,0.41421 -0.33579,0.75 -0.75,0.75c-0.41421,0 -0.75,-0.33579 -0.75,-0.75z" fill="#ff9400" stroke="none" stroke-width="0.5" stroke-linecap="butt"/><path d="M269.6063,154.36667c0,-0.41421 0.33579,-0.75 0.75,-0.75c0.41421,0 0.75,0.33579 0.75,0.75c0,0.41421 -0.33579,0.75 -0.75,0.75c-0.41421,0 -0.75,-0.33579 -0.75,-0.75z" fill="#ffba00" stroke="none" stroke-width="0.5" stroke-linecap="butt"/><path d="M278.6063,152.36667c0,-0.41421 0.33579,-0.75 0.75,-0.75c0.41421,0 0.75,0.33579 0.75,0.75c0,0.41421 -0.33579,0.75 -0.75,0.75c-0.41421,0 -0.75,-0.33579 -0.75,-0.75z" fill="#ffba00" stroke="none" stroke-width="0.5" stroke-linecap="butt"/><path d="M290.77296,154.2c0,-0.41421 0.33579,-0.75 0.75,-0.75c0.41421,0 0.75,0.33579 0.75,0.75c0,0.41421 -0.33579,0.75 -0.75,0.75c-0.41421,0 -0.75,-0.33579 -0.75,-0.75z" fill="#ffba00" stroke="none" stroke-width="0.5" stroke-linecap="butt"/><path d="M318.43962,154.53333c0,-0.41421 0.33579,-0.75 0.75,-0.75c0.41421,0 0.75,0.33579 0.75,0.75c0,0.41421 -0.33579,0.75 -0.75,0.75c-0.41421,0 -0.75,-0.33579 -0.75,-0.75z" fill="#ffba00" stroke="none" stroke-width="0.5" stroke-linecap="butt"/><path d="M344.77296,155.36667c0,-0.41421 0.33579,-0.75 0.75,-0.75c0.41421,0 0.75,0.33579 0.75,0.75c0,0.41421 -0.33579,0.75 -0.75,0.75c-0.41421,0 -0.75,-0.33579 -0.75,-0.75z" fill="#ffba00" stroke="none" stroke-width="0.5" stroke-linecap="butt"/><path d="M352.43963,155.7c0,-0.41421 0.33579,-0.75 0.75,-0.75c0.41421,0 0.75,0.33579 0.75,0.75c0,0.41421 -0.33579,0.75 -0.75,0.75c-0.41421,0 -0.75,-0.33579 -0.75,-0.75z" fill="#ffba00" stroke="none" stroke-width="0.5" stroke-linecap="butt"/><path d="M373.6063,155.7c0,-0.41421 0.33579,-0.75 0.75,-0.75c0.41421,0 0.75,0.33579 0.75,0.75c0,0.41421 -0.33579,0.75 -0.75,0.75c-0.41421,0 -0.75,-0.33579 -0.75,-0.75z" fill="#ffba00" stroke="none" stroke-width="0.5" stroke-linecap="butt"/><path d="M265.43962,158.36667c0,-0.41421 0.33579,-0.75 0.75,-0.75c0.41421,0 0.75,0.33579 0.75,0.75c0,0.41421 -0.33579,0.75 -0.75,0.75c-0.41421,0 -0.75,-0.33579 -0.75,-0.75z" fill="#ffd000" stroke="none" stroke-width="0.5" stroke-linecap="butt"/><path d="M276.27296,160.36667c0,-0.41421 0.33579,-0.75 0.75,-0.75c0.41421,0 0.75,0.33579 0.75,0.75c0,0.41421 -0.33579,0.75 -0.75,0.75c-0.41421,0 -0.75,-0.33579 -0.75,-0.75z" fill="#ffd000" stroke="none" stroke-width="0.5" stroke-linecap="butt"/><path d="M298.77296,162.7c0,-0.41421 0.33579,-0.75 0.75,-0.75c0.41421,0 0.75,0.33579 0.75,0.75c0,0.41421 -0.33579,0.75 -0.75,0.75c-0.41421,0 -0.75,-0.33579 -0.75,-0.75z" fill="#ffd000" stroke="none" stroke-width="0.5" stroke-linecap="butt"/><path d="M308.93962,162.7c0,-0.41421 0.33579,-0.75 0.75,-0.75c0.41421,0 0.75,0.33579 0.75,0.75c0,0.41421 -0.33579,0.75 -0.75,0.75c-0.41421,0 -0.75,-0.33579 -0.75,-0.75z" fill="#ffd000" stroke="none" stroke-width="0.5" stroke-linecap="butt"/><path d="M334.27296,162.53333c0,-0.41421 0.33579,-0.75 0.75,-0.75c0.41421,0 0.75,0.33579 0.75,0.75c0,0.41421 -0.33579,0.75 -0.75,0.75c-0.41421,0 -0.75,-0.33579 -0.75,-0.75z" fill="#ffd000" stroke="none" stroke-width="0.5" stroke-linecap="butt"/><path d="M353.77296,163.86667c0,-0.41421 0.33579,-0.75 0.75,-0.75c0.41421,0 0.75,0.33579 0.75,0.75c0,0.41421 -0.33579,0.75 -0.75,0.75c-0.41421,0 -0.75,-0.33579 -0.75,-0.75z" fill="#ffd000" stroke="none" stroke-width="0.5" stroke-linecap="butt"/><path d="M372.6063,164.2c0,-0.41421 0.33579,-0.75 0.75,-0.75c0.41421,0 0.75,0.33579 0.75,0.75c0,0.41421 -0.33579,0.75 -0.75,0.75c-0.41421,0 -0.75,-0.33579 -0.75,-0.75z" fill="#ffd000" stroke="none" stroke-width="0.5" stroke-linecap="butt"/></g><path d="M319.02752,209.9074c23.71799,2.35043 49.02611,-19.15986 49.47548,-17.61576c0.31808,1.09294 -41.86495,55.5937 -47.33946,56.89826c-7.97463,2.2169 -49.22328,-57.56258 -49.14688,-58.83492c0.2195,-3.65537 23.29287,17.20199 47.01086,19.55243z" fill="#000000" stroke="none" stroke-width="0" stroke-linecap="round"/><g stroke="none" stroke-width="0" stroke-linecap="butt"><path d="M307.35916,237.91619c0,0 -0.24904,-1.06759 -0.24904,-1.54281c0,-0.40814 0.24904,-1.13799 0.24904,-1.13799c0,0 9.15087,1.45455 13.4284,1.45455c4.00899,0 11.48339,-1.45455 11.48339,-1.45455c0,0 0.24904,0.78465 0.24904,1.2289c0,0.52629 -0.24904,1.72463 -0.24904,1.72463c0,0 -8.08037,10.86636 -11.70924,11.09023c-4.05244,0.25 -13.20255,-11.36296 -13.20255,-11.36296z" fill="#a93232"/><path d="M324.97398,233.82792c0.11497,2.76143 -0.30449,8.94374 -1.73482,9c-1.79877,0.07075 -2.24516,-6.23857 -2.36012,-9c-0.00179,-0.04296 4.09314,-0.04314 4.09494,0z" fill="#fff8f7"/><path d="M327.73545,233.82136c0.09161,2.20034 -0.24262,7.12647 -1.38232,7.1713c-1.43328,0.05638 -1.78897,-4.97097 -1.88057,-7.1713c-0.00142,-0.03423 3.26146,-0.03437 3.26289,0z" fill="#fff8f7"/><path d="M330.24474,233.81743c0.07759,1.86368 -0.2055,6.03612 -1.17083,6.07409c-1.21399,0.04775 -1.51526,-4.2104 -1.59285,-6.07409c-0.00121,-0.02899 2.76246,-0.02911 2.76367,0z" fill="#fff8f7"/><path d="M332.27207,233.72142c0.05943,1.42743 -0.1574,4.62316 -0.89675,4.65225c-0.92982,0.03657 -1.16056,-3.22482 -1.21999,-4.65225c-0.00092,-0.02221 2.11581,-0.0223 2.11674,0z" fill="#fff8f7"/><path d="M318.49465,233.55325c-0.10803,2.59468 -0.52746,8.52301 -2.21761,8.45653c-1.34396,-0.05286 -1.73809,-5.86186 -1.63006,-8.45653c0.00169,-0.04053 3.84935,-0.04037 3.84767,0z" fill="#fff8f7"/><path d="M315.14949,233.54864c-0.09161,2.20033 -0.4473,7.22768 -1.88057,7.1713c-1.1397,-0.04483 -1.47392,-4.97097 -1.38232,-7.1713c0.00143,-0.03437 3.26432,-0.03423 3.26289,0z" fill="#fff8f7"/><path d="M312.14095,233.5447c-0.07759,1.86368 -0.37886,6.12184 -1.59284,6.07408c-0.96533,-0.03797 -1.24842,-4.21041 -1.17083,-6.07408c0.00121,-0.02911 2.76488,-0.029 2.76367,0z" fill="#fff8f7"/><path d="M309.46673,233.44869c-0.05943,1.42742 -0.29017,4.68883 -1.21998,4.65225c-0.73936,-0.02908 -0.95619,-3.22483 -0.89676,-4.65225c0.00093,-0.0223 2.11766,-0.02221 2.11674,0z" fill="#fff8f7"/><path d="M321.64917,233.73702c-0.11497,2.76143 -0.56135,9.07075 -2.36012,9c-1.43033,-0.05626 -1.84978,-6.23857 -1.73482,-9c0.0018,-0.04314 4.09673,-0.04296 4.09494,0z" fill="#fff8f7"/></g><g stroke="none" stroke-width="0" stroke-linecap="butt"><path d="M297.36082,214.19321c0,0 -4.11557,-3.60293 -4.68325,-5.7907c-0.70074,-2.70051 -2.26336,-8.41338 -2.26336,-8.41338c0,0 20.61705,9.60704 30.59184,9.92077c10.07241,0.31679 26.99702,-6.3794 26.99702,-6.3794c0,0 -1.09975,4.66565 -1.71325,7.11003c-0.5169,2.0595 -2.77514,4.65885 -2.77514,4.65885c0,0 -13.87565,2.1059 -22.05569,1.84798c-8.17766,-0.25786 -24.09816,-2.95415 -24.09816,-2.95415z" fill="#a93232"/><path d="M316.36923,220.83057c0.11865,-2.76112 0.57936,-9.06924 2.43582,-8.99364c1.4762,0.06011 1.90911,6.24355 1.79045,9.00467c-0.00186,0.04314 -4.22812,0.03192 -4.22628,-0.01103z" fill="#fff8f7"/><path d="M312.83295,220.54958c0.11506,-2.67775 0.56186,-8.79541 2.36228,-8.7221c1.43163,0.0583 1.85147,6.05505 1.7364,8.7328c-0.0018,0.04183 -4.10046,0.03096 -4.09867,-0.0107z" fill="#fff8f7"/><path d="M309.38293,220.35778c0.11865,-2.76112 0.57936,-9.06924 2.43582,-8.99364c1.4762,0.06011 1.90911,6.24355 1.79046,9.00467c-0.00186,0.04314 -4.22813,0.03192 -4.22628,-0.01103z" fill="#fff8f7"/><path d="M306.19168,219.71569c0.1091,-2.53881 0.53271,-8.33904 2.2397,-8.26952c1.35735,0.05527 1.7554,5.74086 1.6463,8.27967c-0.00171,0.03966 -3.88769,0.02935 -3.886,-0.01014z" fill="#fff8f7"/><path d="M302.74163,219.25246c0.1079,-2.51102 0.52688,-8.24776 2.21519,-8.17902c1.34249,0.05466 1.73618,5.67803 1.62828,8.18905c-0.00169,0.03923 -3.84514,0.02903 -3.84346,-0.01003z" fill="#fff8f7"/><path d="M299.63662,218.97163c0.1079,-2.51102 0.52688,-8.24776 2.21519,-8.17902c1.34249,0.05466 1.73618,5.67803 1.62828,8.18905c-0.00169,0.03923 -3.84514,0.02903 -3.84346,-0.01003z" fill="#fff8f7"/><path d="M296.70412,217.51105c0.10193,-2.37207 0.49773,-7.79139 2.09261,-7.72644c1.2682,0.05164 1.64011,5.36384 1.53818,7.73592c-0.00159,0.03706 -3.63238,0.02743 -3.6308,-0.00948z" fill="#fff8f7"/><path d="M320.26243,220.74982c-0.11865,-2.76174 0.31426,-8.94292 1.79045,-8.99533c1.85646,-0.0659 2.31716,6.24462 2.43582,9.00636c0.00184,0.04296 -4.22442,0.03211 -4.22628,-0.01103z" fill="#fff8f7"/><path d="M323.92631,220.48764c-0.11507,-2.67835 0.30477,-8.67291 1.73639,-8.72374c1.8004,-0.06392 2.2472,6.05609 2.36228,8.73444c0.00179,0.04166 -4.09688,0.03114 -4.09867,-0.0107z" fill="#fff8f7"/><path d="M327.2487,220.31351c-0.11865,-2.76174 0.31426,-8.94292 1.79045,-8.99533c1.85646,-0.0659 2.31716,6.24462 2.43582,9.00636c0.00184,0.04296 -4.22442,0.03211 -4.22628,-0.01103z" fill="#fff8f7"/><path d="M330.78022,219.68897c-0.1091,-2.53937 0.28896,-8.22289 1.64631,-8.27107c1.70699,-0.0606 2.1306,5.74184 2.2397,8.28122c0.0017,0.0395 -3.8843,0.02952 -3.886,-0.01014z" fill="#fff8f7"/><path d="M334.27279,219.24387c-0.1079,-2.51158 0.28578,-8.13288 1.62828,-8.18055c1.6883,-0.05994 2.10729,5.679 2.21518,8.19058c0.00168,0.03907 -3.84177,0.0292 -3.84346,-0.01003z" fill="#fff8f7"/><path d="M337.37783,218.97924c-0.1079,-2.51158 0.28579,-8.13288 1.62828,-8.18055c1.6883,-0.05994 2.10729,5.679 2.21518,8.19058c0.00168,0.03907 -3.84178,0.0292 -3.84347,-0.01003z" fill="#fff8f7"/><path d="M340.52301,217.53453c-0.10193,-2.37261 0.26998,-7.68287 1.53819,-7.72789c1.59489,-0.05663 1.99068,5.36477 2.09261,7.73737c0.00158,0.0369 -3.62921,0.02759 -3.6308,-0.00948z" fill="#fff8f7"/></g><g fill="none" stroke="#5d5d5d" stroke-width="0.5" stroke-linecap="round"><path d="M268.18574,187.06905l4.60225,3.32378"/><path d="M272.68146,191.05355l-5.65075,-0.54518"/><path d="M269.93431,185.48939l3.15528,4.71937"/><path d="M267.49532,188.78359l5.26413,2.00734"/><path d="M372.70115,189.11907l-4.60225,3.32377"/><path d="M368.20542,193.10358l5.65075,-0.54518"/><path d="M370.79487,188.01249l-3.15528,4.71937"/><path d="M368.12742,192.84095l5.26413,-2.00734"/></g></g></g></svg>