<svg version="1.1" xmlns="http://www.w3.org/2000/svg" xmlns:xlink="http://www.w3.org/1999/xlink" width="201.17002" height="328.31048" viewBox="0,0,201.17002,328.31048"><defs><linearGradient x1="307.11682" y1="74.66811" x2="292.69575" y2="110.99944" gradientUnits="userSpaceOnUse" id="color-1"><stop offset="0" stop-color="#4a4a4a"/><stop offset="1" stop-color="#000000"/></linearGradient><linearGradient x1="361.03345" y1="88.54803" x2="341.60648" y2="122.05219" gradientUnits="userSpaceOnUse" id="color-2"><stop offset="0" stop-color="#4a4a4a"/><stop offset="1" stop-color="#000000"/></linearGradient></defs><g transform="translate(-220.52962,4.11304)"><g stroke-miterlimit="10"><path d="" fill="none" stroke="#000000" stroke-width="2" stroke-linecap="round"/><path d="M401.63121,154.37295l-51.57081,169.82449l-67.63056,-0.61404l-42.96311,-167.21838l10.0798,-21.69008l139.52429,1.05446l11.98609,4.4258l0.5743,14.21774z" fill="#000000" stroke="#000000" stroke-width="0" stroke-linecap="butt"/><g fill="#ffffff" stroke="#000000" stroke-width="0"><path d="M323.18092,178.52984l0.39896,60.51457l-1.85168,1.06071l-2.23384,7.63857l-5.22686,-23.77491l3.78787,-45.21546z" stroke-linecap="round"/><path d="M327.47451,172.52437l-0.90603,6.92272l-6.23645,2.54883l-5.09672,-1.62149l-2.04575,-7.85008l1.78982,-7.94447l5.35265,-1.52709l5.99476,2.27596z" stroke-linecap="butt"/></g><path d="M220.52963,305.94533v-272.71395h201.17002v272.71395z" fill="none" stroke="none" stroke-width="0" stroke-linecap="butt"/><path d="M262.63785,85.19881l70.51637,-47.54049l48.40905,72.96322l-70.51638,47.5405l-48.40904,-72.96322z" fill="#000000" stroke="#000000" stroke-width="2" stroke-linecap="butt"/><path d="M289.49857,121.05069l0.36362,-0.02502l0.52988,1.23091l-0.09218,0.35858l0.21109,5.77172l-3.30107,-2.10692l1.10731,-4.56683l0.85334,-0.86859l0.32801,0.20617z" fill="#ffffff" stroke="none" stroke-width="0.5" stroke-linecap="butt"/><path d="M301.63855,124.377l0.84197,0.52536l0.51963,1.77816l-0.57397,4.36761l-2.8207,-1.23652l0.66486,-5.19693l0.85335,-0.86859l0.51486,0.63093z" fill="#ffffff" stroke="none" stroke-width="0.5" stroke-linecap="butt"/><path d="M315.61976,125.93271l0.52987,1.2309l-0.20106,1.27005l0.22522,5.80429l-3.4296,-1.10555l0.65389,-5.23334l0.85334,-0.86859l0.42636,0.35957l0.08864,-0.58872l0.85335,-0.86859z" fill="#ffffff" stroke="none" stroke-width="0.5" stroke-linecap="butt"/><path d="M326.30575,129.99507l0.65329,-0.30838l0.52987,1.2309l-0.03825,0.00866l0.73913,5.78676l-3.85548,-1.64097l0.79532,-4.40837l0.85335,-0.86859l0.32277,0.20002z" fill="#ffffff" stroke="none" stroke-width="0.5" stroke-linecap="butt"/><path d="M336.83125,131.94088l0.25453,0.0112l0.54613,1.00095l0.62394,5.83362l-3.81854,-0.5366l1.10191,-7.14491l0.88892,-0.77869l0.46773,1.28966l-0.06462,0.32479z" fill="#ffffff" stroke="none" stroke-width="0.5" stroke-linecap="butt"/><path d="M343.12298,130.43312l0.02605,-0.03645l1.00103,0.03645l0.56193,0.97469l0.93889,6.24422l-4.53727,-0.31018l0.80802,-5.98668l0.69936,-1.1412z" fill="#ffffff" stroke="none" stroke-width="0.5" stroke-linecap="butt"/><path d="M349.45269,131.36491l0.94151,-0.12431l0.11494,0.27885l2.68224,2.81892l-3.52737,2.04662l-1.54163,-4.15681l0.4161,-1.40551l0.91421,0.54228z" fill="#ffffff" stroke="none" stroke-width="0.5" stroke-linecap="butt"/><path d="M282.10243,108.50547l0.51982,0.65717l0.09847,0.18869l-0.18901,1.43905l-1.16511,5.40579l-3.43565,-3.9432l3.30196,-2.76266l0.01618,-0.11623l0.85335,-0.86859z" fill="#ffffff" stroke="none" stroke-width="0.5" stroke-linecap="butt"/><path d="M284.94528,116.78315l1.07136,0.28061l0.3388,0.08873l0.11062,-0.27903l0.62375,0.51945l0.33343,1.13137l-0.85335,0.86859l-0.44771,-0.11726l-0.95421,3.66499l-2.06537,0.27661l-1.90759,-1.07644l0.74185,-1.85497l1.85249,-2.97898l0.79865,-0.61731l0.3573,0.09359z" fill="#ffffff" stroke="none" stroke-width="0.5" stroke-linecap="butt"/><path d="M295.70943,122.637l0.41871,-0.24909l0.89895,6.70297l-3.58096,-1.99277l1.24636,-3.65929l0.85335,-0.86859l0.16357,0.06679z" fill="#ffffff" stroke="none" stroke-width="0.5" stroke-linecap="butt"/><path d="M308.29823,127.95019l0.63512,0.58716l0.83456,4.45518l-4.33868,-0.61148l1.56953,-4.37354l0.95639,-0.54414l0.34311,0.48682z" fill="#ffffff" stroke="none" stroke-width="0.5" stroke-linecap="butt"/><path d="M319.63372,130.90119l0.29178,-0.1443l0.77254,0.89307l0.00934,0.77703l-2.904,2.49472l0.55872,-4.99435l0.85334,-0.86859l0.52988,1.23091l-0.11162,0.61157z" fill="#ffffff" stroke="none" stroke-width="0.5" stroke-linecap="butt"/><path d="M292.96605,148.50864l-0.86486,-0.57229l-1.07085,-6.19699l4.57134,-0.56654l-0.78706,6.35052l-0.98196,1.033l-0.8666,-0.04769z" fill="#ffffff" stroke="none" stroke-width="0.5" stroke-linecap="butt"/><path d="M298.02667,148.96499l0.03246,-1.50599l0.07168,-0.10688l-0.08047,-0.4809l-0.26481,-5.8487l4.7447,0.65808l-2.87676,6.31551l-0.62282,0.92899l-1.00395,0.03994z" fill="#ffffff" stroke="none" stroke-width="0.5" stroke-linecap="butt"/><path d="M305.40238,149.85004l-0.75374,0.51471l-0.52987,-1.23091l0.65146,-1.1702l0.41486,-5.23711l4.25002,0.1108l-4.03271,7.01269z" fill="#ffffff" stroke="none" stroke-width="0.5" stroke-linecap="butt"/><path d="M314.16215,150.67415l0.01065,0.13426l-0.47935,1.15504l-0.67409,0.34435l-0.52987,-1.23091l0.14054,-0.67258l0.04413,-0.11542l-0.06588,-4.52834l3.61321,-1.80567l-2.05934,6.71925z" fill="#ffffff" stroke="none" stroke-width="0.5" stroke-linecap="butt"/><path d="M317.68262,152.16082l0.06643,-0.97741l0.01496,-0.33516l1.58667,-5.81723l4.25498,1.89634l-4.20934,5.25713l-0.79944,0.51869l-0.91424,-0.54236z" fill="#ffffff" stroke="none" stroke-width="0.5" stroke-linecap="butt"/><path d="M326.77726,155.60893l-0.68385,1.16187l-0.73574,-0.95898l0.32945,-7.16197l2.43415,4.33698l-0.06255,0.07858l0.01627,0.01882l-0.89808,1.69726l-0.40915,0.41482l0.00952,0.41267z" fill="#ffffff" stroke="none" stroke-width="0.5" stroke-linecap="butt"/><path d="M331.35478,157.92155l-0.52987,-1.23091l0.19609,-5.50629l2.5587,-0.51671l-0.08445,4.24744l-0.09273,0.14832l0.04526,0.03083l-0.43939,1.31891l-0.80027,0.63979l-0.85334,0.86859z" fill="#ffffff" stroke="none" stroke-width="0.5" stroke-linecap="butt"/><path d="M279.65644,83.6493l8.26459,-22.24812l17.95177,-6.80548l16.24806,14.28439l0.75416,25.34536l-16.4958,26.6843l-10.01229,-8.64602l-16.71045,-28.61438z" fill="url(#color-1)" stroke="#000000" stroke-width="2" stroke-linecap="butt"/><path d="M332.62003,92.86235l11.33677,-20.61092l18.70794,-3.74348l14.019,16.81245l-2.86677,25.1689l-28.76319,13.42172l-7.33837,2.33243l-5.09536,-33.38107z" fill="url(#color-2)" stroke="#000000" stroke-width="2" stroke-linecap="butt"/><path d="M378.42999,116.56222l0.58753,-0.8747l0.41179,-0.02578l3.32328,-3.97406l0.05811,-2.54806l0.78303,-0.54356l0.12484,-1.09522l0.76651,-0.69477l0.64362,0.82742l-0.90434,4.19149l5.11584,7.19649l0.6576,-0.09366l0.78145,0.67509l-0.6254,0.84354l-0.93653,0.09721l-5.90266,-6.81154l-3.2054,3.26973l-0.86896,0.19458l-0.81032,-0.63421z" fill="#000000" stroke="none" stroke-width="0.5" stroke-linecap="butt"/><g stroke="#000000" stroke-width="0" stroke-linecap="butt"><path d="M265.73667,61.3271l-1.56626,-65.44014l71.03629,10.0453l66.02184,13.49688l-15.36671,63.06563z" fill="#000000"/><path d="M266.74287,60.62433l-0.59867,-10.68908l121.02775,24.76331l-2.50122,9.93397z" fill="#ffffff"/><path d="M247.18614,64.54129l-2.66106,-6.56675l0.45314,-7.57967l163.12781,34.08699l-2.32507,5.87703l-4.42499,6.52485l-4.51415,-0.94699l-9.05436,27.50596l2.05817,-15.58167l-1.03517,-13.60913l-126.59575,-26.55783l-5.13135,10.14235l-4.13316,-12.08591l-5.76407,-1.20921z" fill="#000000"/></g></g></g></svg>