<svg version="1.1" xmlns="http://www.w3.org/2000/svg" xmlns:xlink="http://www.w3.org/1999/xlink" width="220.72637" height="287.86249" viewBox="0,0,220.72637,287.86249"><g transform="translate(-214.52362,-38.88751)"><g stroke-miterlimit="10"><path d="M367.41667,326.08333l-92.33333,0.66667l17,-114l-27.66667,-15.33333l-12.66667,-35.33333l-24.5,6.08333l-2.91667,-8.91667l6.91667,-5.58333l-8.16667,-3.25l-3,-14.66667l26.08333,3.33333l7.25,-37l46,-25.33333l59,3c0,0 13.55879,4.03641 13.8835,4.56894c2.50656,4.11075 21.78316,48.43106 21.78316,48.43106l4.33334,-8l36.83333,9.33333l-28.16667,42l-12.33333,-7l-12.33333,26.33333l-29.66667,12.66667z" fill="#ffffff" stroke="#000000" stroke-width="0" stroke-linecap="round"/><path d="M214.52362,306.61252v-267.72501h213.18203v267.72501z" fill="none" stroke="none" stroke-width="0" stroke-linecap="butt"/><path d="M260.08333,144.83333h167.16667" fill="none" stroke="#99d9ea" stroke-width="1" stroke-linecap="round"/><path d="M417.16667,158.75l-159.41667,-0.25" fill="none" stroke="#99d9ea" stroke-width="1" stroke-linecap="round"/><path d="M255.75,101.75v69.5" fill="none" stroke="#fd0006" stroke-width="1.5" stroke-linecap="round"/><path d="M352.92464,305.17956c0.2173,1.4385 0.46452,2.87349 0.73075,4.30435c0.00745,0.09181 0.02221,0.18481 0.02977,0.27673c0.06171,0.75051 0.84967,4.37139 0.51326,5.27939c-0.0815,-1.25186 -0.26737,-2.45929 -0.37147,-2.99999c-0.43023,-2.23476 -0.70393,-4.59267 -0.90231,-6.86048z" fill="#ffffff" stroke="none" stroke-width="0.5" stroke-linecap="butt"/><path d="M343.57334,211.89322c0.68046,3.18462 1.60158,6.40122 1.89366,9.5575c0.38934,4.20723 0.31212,8.41505 0.83859,12.6286c1.11937,8.95876 0.85126,18.15186 1.95262,27.09062c-0.19058,-0.86255 -0.40378,-1.82323 -0.62452,-2.68262c-0.32776,-8.74565 -0.6937,-17.20254 -2.06052,-25.94532c-0.62867,-5.30063 -0.94403,-10.63838 -1.57786,-15.93098c-0.01171,-0.09778 -0.03318,-0.29499 -0.04517,-0.39257c-0.05561,-1.20303 -0.13603,-2.30259 -0.2767,-3.49473c-0.02879,-0.24393 -0.06848,-0.58712 -0.10008,-0.83051z" fill="#ffffff" stroke="none" stroke-width="0.5" stroke-linecap="butt"/><path d="M343.90265,231.09572c0.05599,0.51727 0.11459,1.03423 0.17595,1.55087c0.98915,6.33408 1.46447,12.6677 1.77062,18.94815c-0.74622,-3.08372 -1.43436,-6.21179 -1.79938,-9.28991c-0.42915,-3.61889 -0.25136,-7.49333 -0.14719,-11.2091z" fill="#ffffff" stroke="none" stroke-width="0.5" stroke-linecap="butt"/><path d="M352.13355,288.41331c-0.68547,-4.39457 -1.16158,-8.89747 -1.68076,-13.28772c0.6125,4.0498 1.17782,8.2101 1.60593,12.26232c0.03614,0.34213 0.0594,0.68393 0.07483,1.0254z" fill="#ffffff" stroke="none" stroke-width="0.5" stroke-linecap="butt"/><path d="M287.62464,316.5394c1.60391,0.23842 4.44262,-0.0834 5.2766,-0.0834c7.48554,0 14.97141,-0.0049 22.45695,-0.0049c10.37252,0 20.84467,0.00486 31.21718,0.00486c1.97093,0 3.9794,0.09557 5.95788,0.03879c0.0009,0.02437 0.00182,0.0489 0.00276,0.07338c0.01279,0.33427 0.40497,0.76062 0.16314,0.99175c-0.13878,0.13263 -3.60494,-0.20805 -3.98181,-0.20805c-10.49277,0 -21.08522,0.00493 -31.57799,0.00493c-9.87214,0 -19.75195,-0.11665 -29.62324,0.00972c0.03782,-0.27522 0.07396,-0.55176 0.10854,-0.82709z" fill="#ffffff" stroke="none" stroke-width="0.5" stroke-linecap="butt"/><path d="M288.69204,300.54537c0.18464,-3.67204 0.46663,-7.44026 1.07672,-11.09671c-0.22184,3.10014 -0.33277,6.29754 -0.80751,9.37383c-0.08864,0.57439 -0.17949,1.14857 -0.26921,1.72287z" fill="#ffffff" stroke="none" stroke-width="0.5" stroke-linecap="butt"/><path d="M286.35488,318.29884c-0.25513,0 -0.51144,-0.00013 -0.76657,-0.00013l-0.00055,-0.02116c-0.09442,-0.46584 -0.18956,-0.93178 -0.28397,-1.39762c0.03757,-10.25792 1.39354,-20.62329 2.93843,-30.75086c1.5475,-10.14472 3.47267,-20.27978 5.24723,-30.38709c0.07853,-0.44731 0.15568,-0.89492 0.23142,-1.34283c-0.08182,0.82663 -0.18793,1.74766 -0.29505,2.56377c-1.33877,10.19951 -2.74256,20.26227 -4.76029,30.3509c-1.34909,6.7543 -1.23526,13.42018 -1.85031,20.20998c-0.31784,3.50882 -0.71331,7.15043 -0.45947,10.67167c0.00299,0.00128 -0.00387,0.10208 -0.00088,0.10337z" fill="#ffffff" stroke="none" stroke-width="0.5" stroke-linecap="butt"/><path d="M295.69551,247.22337c0.16107,-3.35996 0.24441,-6.78645 0.53187,-10.12517c0.4774,-3.31432 1.03526,-6.68157 1.62135,-9.97057c0.03309,-0.1291 0.06706,-0.25796 0.10134,-0.38664c-0.49721,6.83234 -1.35842,13.71592 -2.25456,20.48238z" fill="#ffffff" stroke="none" stroke-width="0.5" stroke-linecap="butt"/><path d="" fill="none" stroke="#000000" stroke-width="2" stroke-linecap="round"/><path d="" fill="#000000" stroke="none" stroke-width="0.5" stroke-linecap="butt"/><path d="M232.65917,157.38385c-0.06462,-0.74721 0.68259,-0.81183 0.68259,-0.81183l0.73216,-0.05361c2.01398,-0.88951 3.95934,-1.76078 5.88843,-2.54965c-0.31214,-0.02603 -0.62422,-0.05407 -0.93629,-0.08421c-0.34043,-0.03586 -0.68087,-0.07171 -1.0213,-0.10757l-0.08426,-0.071l-0.01557,0.0393l-0.87271,-0.34592c-0.2631,-0.09796 -0.46016,-0.34031 -0.48595,-0.6386c-0.03569,-0.41268 0.26991,-0.77615 0.68259,-0.81184c0.02387,-0.00206 0.04756,-0.00297 0.07104,-0.00281l0.21929,-0.00069c-0.34975,-0.14257 -0.73486,-0.3045 -1.13014,-0.48369c-1.26453,-0.42762 -2.47574,-0.92272 -3.54229,-1.56205l-0.02934,-0.04344l-0.01069,0.01321l-1.06946,-0.86534c-0.15338,-0.12373 -0.25807,-0.30734 -0.27639,-0.51918c-0.03569,-0.41268 0.26991,-0.77614 0.68259,-0.81183c0.14502,-0.01254 0.28395,0.01705 0.40472,0.07864l1.33687,0.65265l-0.09495,0.19449c1.32794,0.47722 2.47234,1.11162 3.78457,1.7166c0.96168,0.30006 1.95137,0.56567 2.91658,0.83255c0.41485,0.05457 0.8081,0.13309 1.11749,0.31566c0.40049,0.11669 0.79275,0.23614 1.17275,0.36116c0.85229,-0.03653 1.70853,-0.07522 2.5688,-0.14962c5.81528,-0.50293 11.63057,-1.00585 17.44586,-1.50878l0.42551,-0.0368c0,0 0.74721,-0.06462 0.81183,0.68259c0.06462,0.74721 -0.68259,0.81183 -0.68259,0.81183c-3.92714,0.33963 -8.27979,0.71606 -12.20693,1.05569c4.64807,-0.17172 9.29614,-0.59479 13.92692,-0.99527c0,0 0.74721,-0.06462 0.81183,0.68259c0.06462,0.74721 -0.68259,0.81183 -0.68259,0.81183c-7.84417,0.67839 -15.71633,1.39022 -23.57313,0.90989c-0.22959,0.51513 -0.51055,0.95736 -0.77629,1.115c-0.74748,0.44341 -1.78877,0.18895 -2.52461,0.65142c-1.33147,0.83682 -2.41097,1.49176 -3.88524,2.1176l-0.96988,0.0936c0,0 -0.74721,0.06462 -0.81183,-0.68259z" fill="#000000" stroke="none" stroke-width="0.5" stroke-linecap="butt"/><path d="M420.93765,142.3349c0.30111,-1.80489 1.34288,-4.80737 2.77983,-6.43769c-0.32792,0.05636 -0.66123,0.11701 -0.93347,0.08491c-1.5247,-0.17973 -2.9835,-0.49773 -4.48316,-0.82087c-0.58526,-0.1261 -1.17052,-0.25222 -1.75579,-0.37832c0.03375,0.37205 0.06667,0.74418 0.09886,1.11635c0.20225,2.33859 0.40449,4.67716 0.60674,7.01575c0.00859,0.64235 0.35069,1.37381 0.03424,1.92933c0.09308,2.17986 0.1421,4.33889 0.27055,6.36435c0.23449,-0.52441 0.53045,-1.04352 0.76743,-1.63703c0.30588,-0.76608 0.59955,-1.53791 0.89134,-2.31054c0.4222,-1.63857 1.17855,-3.04133 1.72344,-4.92623zM416.35138,132.75528c-0.15544,0.00895 -0.00274,0.28075 0.04145,0.46042c0.74133,0.15974 1.48265,0.31947 2.22398,0.47921c0.2657,0.05726 0.65249,0.10843 1.11432,0.16222c-1.21191,-0.55632 -2.63365,-1.14482 -3.37975,-1.10185zM411.79795,146.05354c-3.86444,1.15617 -7.65274,0.77451 -11.52346,0.58936c-1.90124,0.16377 -3.80247,0.32752 -5.70364,0.49194c0,0 -0.74721,0.06462 -0.81183,-0.68259c-0.03531,-0.40831 0.17179,-0.6128 0.36692,-0.7143c0.01237,-0.00644 0.02468,-0.01245 0.03689,-0.01809c0.11084,-0.49363 0.66748,-0.54176 0.66748,-0.54176c1.77631,-0.15236 3.52302,-0.10933 5.25316,-0.02686c3.58165,-0.31091 7.16332,-0.62177 10.74536,-0.92805c0.32698,-0.02795 2.45247,0.19005 3.64335,0.25217c0.36289,-0.03525 0.68167,-0.10758 0.91634,-0.25115c0.0125,-0.03707 0.02286,-0.07473 0.0313,-0.1129c-0.0331,-0.38278 -0.06621,-0.76557 -0.09931,-1.14835c-0.07394,-0.32904 -0.14983,-0.66082 -0.13767,-0.97299c-0.09336,-1.19536 -0.18392,-2.39095 -0.27671,-3.58637c-0.14421,-1.03276 -0.375,-2.139 -0.25096,-3.12393c-0.01979,-0.23529 -0.03983,-0.47057 -0.06018,-0.70582l-0.12861,-1.48711c-0.03145,-0.36369 0.20217,-0.68916 0.54056,-0.78572c0.09912,-0.37996 0.28785,-0.69673 0.62372,-0.86127c1.68946,-0.82763 6.11776,1.8458 7.65554,2.48278c0.80122,0.33189 2.19536,-0.37539 2.56971,0.40689c0.12196,0.25486 0.0834,0.52095 -0.02737,0.79006c0.31838,0.18897 0.54879,0.40859 0.65566,0.66556c0.25804,0.62042 -2.39745,4.04183 -2.7156,4.62876c-1.38477,2.55465 -2.24712,5.40343 -3.34727,8.1103c0.05658,0.73782 0.14418,1.54437 -0.0121,1.93285c-0.25703,0.63895 -1.2821,2.23763 -2.33958,3.05514l-0.38973,0.71048c-0.11523,0.2175 -0.33506,0.37392 -0.59854,0.3967c-0.41268,0.03569 -0.77614,-0.26991 -0.81183,-0.68259c-0.00984,-0.11372 -0.01995,-0.23066 -0.03031,-0.35049c-0.63061,-1.11717 -0.79987,-4.2958 -0.8736,-5.14432l-0.03679,-0.42551c0,0 -0.0444,-0.51337 0.36592,-0.72586c-0.04422,-0.51138 -0.08594,-0.99375 -0.12359,-1.42903c-0.48647,0.09465 -1.10748,0.09197 -1.74426,0.0536c-0.77601,-0.00224 -1.51341,-0.01576 -2.02897,0.1385z" fill="#000000" stroke="none" stroke-width="0.5" stroke-linecap="butt"/><path d="M411.33211,142.95801c-0.45549,-0.09338 -0.84273,-0.1667 -1.10251,-0.24663c-0.72481,-0.22302 -1.53897,-0.48339 -2.26378,-0.7064c-0.02855,-0.18281 -0.15364,-0.47947 0.00198,-0.475c0.74705,0.02147 2.20483,0.76937 3.3643,1.42804z" fill="#ffffff" stroke="none" stroke-width="0.5" stroke-linecap="butt"/><path d="M419.20007,147.30909c-0.29179,0.77264 -0.58679,1.54405 -0.89267,2.31012c-0.23699,0.59351 -0.53411,1.11222 -0.7686,1.63663c-0.12844,-2.02545 -0.20261,-4.2042 -0.29569,-6.38404c0.31645,-0.55553 -0.03374,-1.31107 -0.04233,-1.95342c-0.20225,-2.33859 -0.37958,-4.72383 -0.58183,-7.06242c-0.03219,-0.37218 -0.06277,-0.74558 -0.09652,-1.11762c0.58526,0.1261 1.17878,0.24891 1.76404,0.37502c1.49967,0.32315 2.98856,0.64157 4.51327,0.82129c0.27224,0.03209 0.61089,-0.02643 0.93881,-0.0828c-1.43694,1.63032 -2.46355,4.6437 -2.76465,6.44859c-0.54489,1.8849 -1.35163,3.37007 -1.77382,5.00865z" fill="#ffffff" stroke="none" stroke-width="0.5" stroke-linecap="butt"/><path d="M260.41667,102.16667h107.33333" fill="none" stroke="#99d9ea" stroke-width="1" stroke-linecap="round"/><path d="M257.75,126.83333h127.83333" fill="none" stroke="#99d9ea" stroke-width="1" stroke-linecap="round"/><path d="M390.41667,174.16667h-130.66667" fill="none" stroke="#99d9ea" stroke-width="1" stroke-linecap="round"/><path d="M262.41667,189.16667h122" fill="none" stroke="#99d9ea" stroke-width="1" stroke-linecap="round"/><path d="M280.58333,205.5h76.16667" fill="none" stroke="#99d9ea" stroke-width="1" stroke-linecap="round"/><path d="M290.91667,224.16667h63.16667" fill="none" stroke="#99d9ea" stroke-width="1" stroke-linecap="round"/><path d="M288.08333,243.16667h68" fill="none" stroke="#99d9ea" stroke-width="1" stroke-linecap="round"/><path d="M285.41667,260.16667h74.33333" fill="none" stroke="#99d9ea" stroke-width="1" stroke-linecap="round"/><path d="M283.41667,274.83333h76.66667" fill="none" stroke="#99d9ea" stroke-width="1" stroke-linecap="round"/><path d="M280.41667,293.16667h82.33333" fill="none" stroke="#99d9ea" stroke-width="1" stroke-linecap="round"/><path d="M277.41667,310.83333h88" fill="none" stroke="#99d9ea" stroke-width="1" stroke-linecap="round"/><path d="M343.66873,212.67395c0.14067,1.19214 0.2306,2.39125 0.28621,3.59428c0.01199,0.09759 0.02384,0.19526 0.03555,0.29304c0.63383,5.2926 0.94971,10.6303 1.57838,15.93093c1.36683,8.74278 1.74094,17.29933 2.0687,26.04498c0.22075,0.85939 0.42531,1.72045 0.61589,2.583c-1.10136,-8.93876 -0.83637,-18.03271 -1.95574,-26.99147c-0.52647,-4.21355 -0.43992,-8.42076 -0.82925,-12.628c-0.29208,-3.15628 -1.20995,-6.37309 -1.89041,-9.55771c0.03161,0.24338 0.06187,0.48702 0.09066,0.73095zM344.08112,242.26581c0.36502,3.07811 1.01689,6.19546 1.7631,9.27917c-0.30615,-6.28045 -0.77222,-12.5145 -1.76137,-18.84858c-0.06137,-0.51664 -0.11975,-1.03363 -0.17574,-1.55089c-0.10417,3.71578 -0.25513,7.50141 0.17401,11.12029zM356.22044,314.32804c0,0 0.1819,0.72761 -0.5457,0.90951c-0.03509,0.00878 -0.06891,0.01543 -0.1015,0.02015c-0.09096,0.41858 -0.24698,0.77232 -0.49345,1.02161c-0.21418,0.21663 -0.52403,0.24124 -0.8522,0.22346c-0.0122,0.42025 -0.04704,0.81413 -0.11281,1.15383c1.06435,-0.00452 2.12936,-0.00606 3.19543,-0.00606h0.27758c0,0 0.75,0 0.75,0.75c0,0.75 -0.75,0.75 -0.75,0.75h-0.27758c-4.89319,0 -9.76364,0.03247 -14.65272,0.23618c-10.26087,0.42737 -20.52685,0.36237 -30.79395,0.36237c-8.99926,0 -17.9985,0 -26.99776,0c-0.25995,0.00122 -0.43007,-0.0887 -0.5414,-0.20641c-0.11921,-0.11091 -0.21084,-0.28144 -0.21084,-0.54359c0,-0.01674 0.00037,-0.0331 0.0011,-0.0491l0.00836,-0.42788c-0.1017,-0.51474 -0.20341,-1.02947 -0.30511,-1.54422c-0.02524,-10.37259 1.42898,-20.82819 2.99075,-31.06649c1.54919,-10.15582 3.42046,-20.26087 5.19696,-30.37922c1.10905,-6.31677 1.92633,-12.69593 2.84568,-19.05053c0.29323,-3.26194 0.74122,-6.4798 1.52042,-9.59048c0.13114,-0.73681 0.26638,-1.47268 0.40636,-2.20748c1.62,-8.4963 2.48709,-16.93756 3.79799,-25.46755c0.01671,-0.24855 0.12228,-0.40595 0.24887,-0.50563c0.11805,-0.11157 0.29102,-0.19347 0.54264,-0.17186l0.48425,0.0025c4.53755,-0.60501 8.95918,-0.52803 13.52654,-0.64864c5.53478,-0.14125 11.32781,-0.54383 16.83409,-1.2098c2.79612,-0.33819 5.753,-1.37777 8.49574,-1.43451c0.21988,-0.04758 0.39345,0.01534 0.52152,0.10574c0.13898,0.07635 0.2731,0.20686 0.32549,0.42997l0.31291,0.68941c0.21572,1.09175 0.38301,2.22074 0.48705,3.35031c0.07225,0.04044 0.13906,0.08396 0.19981,0.13078c0.7124,0.54898 1.22022,4.16757 1.69675,5.1472c0.07903,5.35389 2.20096,10.8089 2.71033,16.26019c0.39163,4.19117 0.29967,8.38354 0.82412,12.58094c1.25556,10.04879 0.76222,20.2724 2.42505,30.24938c1.2681,7.60858 2.54462,15.33711 3.33551,23.02102c0.23527,2.28576 -0.08986,4.55285 0.29421,6.83886c0.62851,5.14131 0.88067,10.13549 1.29994,15.29468c0.31239,1.66731 0.66634,3.32843 1.07957,4.98137zM346.1201,258.66056c-1.37352,-5.26841 -2.88628,-10.80212 -3.52854,-16.2181c-0.58211,-4.90884 -0.11907,-10.11244 -0.11907,-15.05098c0,-3.63647 0.1552,-7.32637 -0.01103,-10.97853c-0.4121,-3.34757 -0.97706,-6.59116 -1.27756,-9.90163c-0.34611,-1.94115 -0.69782,-3.88084 -0.96824,-5.83513c-1.6362,-0.17318 -4.02391,0.12027 -5.11133,0.07588c-5.49397,-0.22424 -10.90667,-0.53448 -16.39375,-0.11568c-5.16545,0.00187 -10.34345,1.13816 -15.2919,1.19765l-0.06113,-0.02477c-0.3275,1.31561 -0.77498,2.59571 -1.20729,3.8809c-1.1076,6.93144 -2.19091,13.95467 -2.68578,20.8778c-0.66487,9.25234 -1.96846,18.41725 -3.177,27.56766c-1.32409,10.0252 -2.998,19.95728 -4.39835,29.96516c-0.87684,4.97107 -0.68522,9.95718 -1.44178,14.89967c-0.79616,5.20122 -1.65223,10.38798 -2.10276,15.64297c-0.11268,0.14195 -0.4038,0.30637 -0.50176,0.44646c-0.0049,0.0459 -0.00984,0.0918 -0.01482,0.1377c0.00738,0.01007 0.01716,0.01985 0.0296,0.02929c0.56154,0.42624 1.38862,-0.29985 2.09361,-0.29985c2.49397,0 4.98794,0 7.48192,0c5.99156,0 11.98313,0 17.97469,0c10.37252,0 20.74503,0 31.11755,0c1.79325,0 3.5865,0 5.37975,0c0.16931,0 0.35082,0.038 0.53605,0.08999c-0.0373,-1.41398 -0.08516,-2.72519 -0.37853,-4.24304c-1.12106,-5.80026 -0.87797,-11.87108 -1.71429,-17.72445c-1.40787,-9.85505 -3.65354,-20.08227 -4.04237,-30.01889c-0.05544,-1.44144 -0.10781,-2.876 -0.16127,-4.30536c-0.00819,-0.03158 -0.0164,-0.06317 -0.02463,-0.09474zM340.39722,196.7675l-0.00912,-0.0166c-0.90594,0.02939 -1.85138,0.17786 -2.80978,0.37108c0.96956,0.03711 1.9451,0.10575 2.92825,0.21233c-0.03487,-0.19032 -0.07137,-0.37936 -0.10936,-0.56682zM336.66425,199.3145c0.7427,0.03032 2.07826,-0.04763 3.32837,0.01916c-0.04676,-0.18612 -0.09351,-0.37224 -0.14027,-0.55836c-3.79156,-0.36301 -7.47308,-0.16458 -11.13873,0.21232c2.64551,0.08033 5.29285,0.2184 7.95063,0.32688zM286.35083,318.24523c-0.25384,-3.52125 0.14024,-7.16301 0.45808,-10.67183c0.61505,-6.7898 0.47456,-13.4677 1.82364,-20.222c2.01772,-10.08862 3.4611,-20.23853 4.79987,-30.43804c0.10712,-0.8161 0.20009,-1.63801 0.28192,-2.46464c-0.07574,0.44791 -0.1528,0.89554 -0.23133,1.34285c-1.77456,10.10731 -3.64402,20.2013 -5.19152,30.34602c-1.54489,10.12757 -2.9433,20.43489 -2.98087,30.69281c0.09442,0.46584 0.18883,0.93169 0.28325,1.39753l0.00054,0.02115c0.25513,0 0.51027,0 0.7654,0c-0.00299,-0.00128 -0.00599,-0.00257 -0.00898,-0.00385zM302.83862,200.03187c0.04073,0.00276 0.08356,0.00846 0.1286,0.01747c0.23937,0.04788 0.38525,0.15807 0.47314,0.28496c0.85406,0.00669 1.67382,-0.35469 2.49872,-0.57855c0.16876,-0.0458 0.33992,-0.08874 0.51328,-0.129c-1.22675,0.06805 -2.45573,0.16587 -3.69245,0.31203c0.03033,0.0294 0.05637,0.06071 0.07871,0.0931zM353.8212,311.99036c0.10409,0.54071 0.28973,1.74816 0.37123,3.00002c0.3364,-0.908 -0.45698,-4.43055 -0.51869,-5.18106c-0.00756,-0.09192 -0.01506,-0.18378 -0.02251,-0.27559c-0.26623,-1.43086 -0.50248,-2.86614 -0.71978,-4.30464c0.19838,2.26781 0.4595,4.52652 0.88974,6.76127zM352.05197,287.33838c-0.42811,-4.05222 -0.9804,-8.11338 -1.5929,-12.16317c0.51918,4.39025 0.98273,8.79393 1.66821,13.1885c-0.01543,-0.34147 -0.03916,-0.6832 -0.07531,-1.02533zM342.79183,205.44624c-0.06043,-0.11719 -0.143,-0.36154 -0.23754,-0.67814c0.02945,0.49392 0.06639,0.98571 0.10944,1.47592c0.06287,0.35423 0.12554,0.70851 0.1875,1.06294c-0.04822,-0.62356 -0.07029,-1.24404 -0.05939,-1.86072zM287.5661,317.36596c9.87129,-0.12637 19.75079,-0.0147 29.62293,-0.0147c10.49277,0 20.98553,0 31.4783,0c0.37687,0 3.84303,0.34044 3.98181,0.2078c0.24183,-0.23113 -0.15034,-0.65594 -0.16313,-0.99021c-0.00094,-0.02447 -0.00186,-0.0489 -0.00276,-0.07327c-1.97848,0.05678 -3.98694,-0.03853 -5.95787,-0.03853c-10.37252,0 -20.74503,0 -31.11755,0c-7.48554,0 -14.97107,0 -22.4566,0c-0.83398,0 -3.67269,0.32153 -5.2766,0.0831c-0.03458,0.27533 -0.07072,0.5506 -0.10853,0.82581zM288.96476,298.77262c0.47474,-3.0763 0.57733,-6.17405 0.79917,-9.2742c-0.61009,3.65645 -0.88242,7.32514 -1.06706,10.99718c0.08972,-0.5743 0.17925,-1.1486 0.26789,-1.72298zM297.9446,226.79069c-0.03429,0.12868 -0.06796,0.25758 -0.10105,0.38667c-0.58609,3.28901 -1.08969,6.59695 -1.56709,9.91127c-0.28746,3.33872 -0.4144,6.72508 -0.57547,10.08504c0.89614,-6.76646 1.7464,-13.55064 2.24362,-20.38298z" fill="#000000" stroke="none" stroke-width="0.5" stroke-linecap="butt"/><path d="M346.1947,258.75692c0.05346,1.42936 0.10491,2.87195 0.16035,4.31339c0.38883,9.93662 2.61803,20.19211 4.02589,30.04715c0.83631,5.85336 0.58648,11.92907 1.70754,17.72933c0.29337,1.51786 0.34,2.82979 0.3773,4.24376c-0.18523,-0.05198 -0.36702,-0.08983 -0.53633,-0.08983c-1.79325,0 -3.58983,0.00169 -5.38308,0.00169c-10.37252,0 -20.77015,0.00445 -31.14267,0.00445c-5.99156,0 -11.99748,-0.00338 -17.98904,-0.00338c-2.49397,0 -4.99284,-0.00226 -7.48682,-0.00226c-0.70499,0 -1.53321,0.72546 -2.09474,0.29922c-0.01243,-0.00944 -0.02225,-0.01923 -0.02963,-0.0293c0.00498,-0.04589 0.05906,-0.17888 0.06396,-0.22478c0.09796,-0.14009 0.34004,-0.21736 0.45273,-0.35931c0.45053,-5.25499 1.30175,-10.44485 2.09792,-15.64607c0.75656,-4.94249 0.55755,-9.93514 1.43439,-14.9062c1.40035,-10.00789 3.06155,-19.98178 4.38564,-30.00697c1.20855,-9.15041 2.53398,-18.34924 3.19886,-27.60158c0.49487,-6.92314 1.58943,-13.9519 2.69702,-20.88334c0.43231,-1.28519 0.88174,-2.56592 1.20924,-3.88153l0.06117,0.02476c4.94845,-0.05949 10.13949,-1.19786 15.30494,-1.19973c5.48708,-0.4188 10.91368,-0.10695 16.40766,0.11729c1.08742,0.04439 3.47902,-0.24787 5.11522,-0.07469c0.27042,1.95429 0.62452,3.89488 0.97064,5.83603c0.3005,3.31046 0.8702,6.5563 1.2823,9.90387c0.16623,3.65216 0.01687,7.34574 0.01687,10.98221c0,4.93854 -0.4514,10.15412 0.13072,15.06296c0.64225,5.41599 2.16382,10.9795 3.53734,16.24791c0.00823,0.03157 0.01644,0.06334 0.02463,0.09492z" fill="#ffffff" stroke="none" stroke-width="0.5" stroke-linecap="butt"/><g stroke="none" stroke-width="0.5" stroke-linecap="butt"><path d="M389.46208,173.73547c-1.77034,3.8615 -3.86949,7.61204 -6.43638,10.91075c-2.25181,2.89379 -5.65698,4.40884 -8.2954,6.80918c-2.97098,1.90168 -6.09563,3.5692 -9.30194,5.08773c-5.51022,2.81965 -10.94011,5.12391 -16.58182,6.82355c-0.79429,0.305 -1.58622,0.6097 -2.37479,0.9153c-3.09371,1.19199 -6.5335,1.56287 -9.7634,2.02657c-1.64271,0.23583 -3.31187,0.44962 -4.99149,0.6111c-2.55007,0.46495 -5.11837,0.86918 -7.55473,0.88145c-0.38137,0.00191 -0.76516,-0.00563 -1.15086,-0.02178c-1.27411,0.1228 -2.54485,0.26607 -3.81335,0.45826c0.02792,0.11734 0.02582,0.25991 -0.0276,0.4321c-0.22573,0.72773 -0.91652,0.52891 -0.91652,0.52891c-7.6569,-2.20389 -16.55258,-3.59306 -23.36845,-7.63599c-3.69101,-3.07678 -9.06294,-4.00224 -12.67727,-7.33377c-2.04031,-1.88066 -3.6594,-4.61891 -4.96357,-7.44326c-0.11264,-0.14856 -0.22485,-0.29663 -0.33679,-0.44388c-4.25101,-5.59202 -7.69582,-11.67925 -9.92907,-18.4468c-1.58268,-4.81089 -2.32472,-9.61703 -2.51038,-14.47721c-0.63358,-3.02155 -1.11037,-6.07905 -1.40222,-9.15932c-0.16118,-7.31345 2.62025,-13.5731 5.91866,-19.87046c1.12733,-2.74071 2.48615,-5.39711 4.05867,-7.83685c0.30678,-0.55382 0.64282,-1.09713 1.03467,-1.625c6.36761,-8.5354 13.56862,-15.05738 22.86188,-19.75776c4.34499,-2.30734 8.87724,-3.92709 13.50532,-5.1426c1.12022,-0.52244 2.21492,-1.02188 3.47435,-1.30137c7.39733,-1.61771 14.94768,-3.15986 22.44439,-3.23134c0.66758,-0.0854 1.33066,-0.14619 1.98354,-0.16506c0.74448,-0.02152 1.51812,0.005 2.31259,0.07364c4.44858,-0.07113 8.80939,0.54704 12.89337,2.62932c3.28519,1.68869 7.30096,2.57593 10.35921,4.66514c4.12105,2.81525 7.56944,6.94716 10.4281,11.36566c1.58272,2.44634 3.13864,4.9455 4.66695,7.47771c0.35874,0.46379 0.71463,0.92841 1.06736,1.39415c1.38836,1.65837 2.70665,3.37659 3.90994,5.18948c2.32431,3.50444 4.9739,6.99648 6.6848,10.90526c0.75644,1.72817 1.33603,3.59832 1.77912,5.53572c0.36937,1.02784 0.71292,2.07297 1.02877,3.13714c0.34441,1.35061 0.63441,2.71304 0.86892,4.08397c1.50203,5.17946 2.11903,10.61942 1.11599,16.21798c-1.00388,5.5489 -3.16803,10.84833 -6.00057,15.73239zM309.06746,204.9568c-5.07154,-1.38358 -9.90749,-3.26322 -14.55685,-5.54069c0.42325,0.27487 0.83291,0.56684 1.22509,0.88097c6.25614,3.66537 14.29409,5.09079 21.44344,7.02116c0.07094,-0.1202 0.17407,-0.20181 0.27076,-0.2562c-2.87766,-0.57318 -5.73528,-1.38799 -8.38243,-2.10523zM267.54405,164.61283c0.24073,0.91055 0.51074,1.82082 0.81214,2.7312c0.90778,2.75089 2.02042,5.38584 3.30955,7.91867c-0.27632,-0.71984 -0.55434,-1.43429 -0.85084,-2.12497c-1.1922,-2.78084 -2.29175,-5.62681 -3.27086,-8.52491zM296.16592,198.53361c3.36428,1.60083 6.82947,2.98661 10.41363,4.11158c-2.18306,-0.85317 -4.35476,-1.74031 -6.53723,-2.61262c-1.28195,-0.51238 -2.58365,-0.99492 -3.8764,-1.49897zM265.77729,135.34425c-0.8378,2.78417 -1.32613,5.67276 -1.26044,8.74937c0.03508,0.36581 0.07279,0.73131 0.1131,1.09649c0.1861,-2.63833 0.48552,-5.30146 0.85492,-7.99839c0.08418,-0.61015 0.18172,-1.22649 0.29242,-1.84746zM282.68754,192.57947c0.16773,0.17249 0.33865,0.33856 0.51286,0.49765c1.97755,1.80595 4.47097,2.91589 6.93114,4.04953c-2.50349,-1.39119 -4.95489,-2.89406 -7.36243,-4.4921c-0.02726,-0.01824 -0.05445,-0.0366 -0.08157,-0.05509zM377.8297,187.33007c1.49683,-1.0413 2.95535,-2.13273 4.08092,-3.5936c0.50552,-0.6561 0.9925,-1.32907 1.46205,-2.01642c-0.05992,-0.02679 -0.12155,-0.06462 -0.18432,-0.11583c-0.55752,-0.45488 -0.09139,-1.05672 -0.09139,-1.05672l0.26306,-0.33962c1.72134,-2.21973 3.33801,-4.57577 4.77992,-7.04328c0.98939,-2.1495 1.87497,-4.33661 2.68192,-6.50568c1.74723,-4.85358 2.65835,-9.87232 2.79221,-14.88452c-0.78355,8.23328 -3.85025,16.03293 -8.09253,23.32035c-1.69528,4.55396 -4.3906,8.69283 -7.69182,12.23533zM287.20151,104.48045c-2.73771,2.05884 -5.35674,4.26315 -7.80523,6.56734c-1.92413,1.80766 -3.65969,3.9658 -5.18733,6.33953c-0.65301,1.19121 -1.1626,2.44017 -1.82348,3.67368c-0.7088,1.32295 -1.42076,2.63521 -2.1112,3.94688c-1.67032,4.0793 -2.81017,8.3476 -3.35059,12.32382c-0.19166,1.39926 -0.36492,2.78936 -0.51316,4.17157c1.48028,-5.89614 4.11064,-11.58577 6.7006,-17.10085c3.30344,-7.86086 8.1495,-14.22889 14.09037,-19.92198zM276.98508,182.28645c3.47217,4.54537 8.78737,8.74219 12.95902,11.52488c3.25638,2.17745 7.06225,3.36465 10.67762,4.80965c5.32007,2.12633 10.57512,4.34459 16.09147,5.93072c4.74437,1.37207 9.88173,1.36022 14.91094,0.87242c1.98947,-0.3649 3.96802,-0.76812 5.85976,-1.04545c3.79366,-0.55616 7.42449,-1.37828 10.96925,-2.44338c5.42248,-2.08064 10.95815,-4.17529 16.26783,-6.6793c0.34233,-0.17476 0.68498,-0.35153 1.02804,-0.53032c8.01571,-4.17732 15.18222,-11.38769 18.47308,-20.2398c5.01134,-8.67982 8.4277,-17.97789 8.11579,-28.00014c-0.07977,-2.58517 -0.26194,-5.32889 -0.65729,-8.02936c-1.24506,-3.27595 -2.7926,-6.42453 -4.41553,-9.41135c-2.89891,-5.34005 -5.93063,-10.7213 -9.08118,-15.96793c-4.43156,-5.08056 -9.48831,-9.60685 -13.60938,-14.83238c-2.25617,-1.15974 -4.11818,-3.12278 -6.10576,-4.94026c-0.13568,-0.08245 -0.27173,-0.16393 -0.40815,-0.24442c-3.19644,-1.88684 -7.62486,-3.89139 -12.00633,-5.10233c-1.30359,-0.21563 -2.59874,-0.41965 -3.83706,-0.67219c-1.46492,-0.16336 -2.93462,-0.25326 -4.40734,-0.28088c-1.44204,0.10984 -2.88891,0.27667 -4.33236,0.47202c-0.78213,0.14208 -1.55857,0.28253 -2.31932,0.39175c-10.00279,1.436 -19.08528,2.87192 -28.47102,7.24304c-0.37811,0.17607 -0.75581,0.35574 -1.13298,0.53894c-3.23309,1.65638 -6.2955,3.58595 -9.19744,6.14684c-7.72006,6.52609 -13.95751,13.73147 -17.93113,23.18117c-4.14337,8.828 -8.52596,18.1843 -7.67149,28.08798c1.07959,5.42484 2.70678,11.11181 4.46593,16.31947c1.35181,4.00177 3.64722,7.50141 5.21488,11.40444c0.17433,0.48376 0.35744,0.98448 0.55013,1.49618zM286.13835,192.99448c-2.09712,-1.55723 -4.28467,-3.35675 -6.29602,-5.30218c1.11034,1.39185 2.31834,2.71686 3.75171,3.65945c0.84238,0.55914 1.69037,1.10701 2.54431,1.64273zM360.70558,92.63079c0.61699,0.50547 1.21181,1.02506 1.77563,1.54828c3.13156,2.32837 6.05608,5.11123 8.7866,8.07165c-2.36249,-3.21887 -5.07331,-6.11477 -8.18348,-8.27421c-0.73824,-0.51256 -1.54049,-0.95097 -2.37875,-1.34573z" fill="#000000"/><path d="M363.05221,93.9382c3.11018,2.15944 5.89008,5.12732 8.25257,8.3462c-2.73052,-2.96043 -5.6554,-5.74288 -8.78696,-8.07125c-0.56382,-0.52322 -1.2322,-1.11056 -1.84921,-1.61602c0.83826,0.39475 1.64536,0.82851 2.3836,1.34108z" fill="#ffffff"/><path d="M385.52334,175.04477c4.24228,-7.28742 7.32745,-15.08279 8.111,-23.31608c-0.13386,5.0122 -1.02177,10.05197 -2.769,14.90555c-0.80695,2.16907 -1.7082,4.4224 -2.69759,6.5719c-1.44191,2.46751 -3.09721,4.8308 -4.81856,7.05053l-0.26385,0.33945c0,0 -0.44424,0.50427 0.11329,0.95915c0.06277,0.05121 0.10462,0.18706 0.16456,0.21385c-0.46956,0.68735 -0.96002,1.35952 -1.46554,2.01561c-1.12559,1.46087 -2.55084,2.45833 -4.04767,3.49963c3.30122,-3.5425 5.97807,-7.68565 7.67336,-12.2396z" fill="#ffffff"/><path d="M283.61973,191.39466c-1.43338,-0.9426 -2.70531,-2.34272 -3.81565,-3.73457c2.01135,1.94544 4.27539,3.80937 6.37251,5.3666c-0.85393,-0.53572 -1.71449,-1.07289 -2.55687,-1.63204z" fill="#ffffff"/><path d="M282.81181,192.66057c2.40754,1.59803 4.8589,3.10095 7.36239,4.49214c-2.46017,-1.13365 -5.04,-2.29387 -7.01756,-4.09981c-0.1742,-0.15909 -0.34406,-0.32702 -0.51178,-0.4995c0.02711,0.01848 0.13967,0.08892 0.16694,0.10717z" fill="#ffffff"/><path d="M299.9962,200.01328c2.18248,0.87231 4.44681,1.79711 6.62986,2.65029c-3.58417,-1.12498 -7.14236,-2.54748 -10.50664,-4.14831c1.29275,0.50405 2.59483,0.98565 3.87678,1.49802z" fill="#ffffff"/><path d="M317.40233,207.04663c-0.0967,0.05439 -0.10513,0.1681 -0.17606,0.28831c-7.14934,-1.93037 -15.28234,-3.38678 -21.53848,-7.05214c-0.39218,-0.31413 -0.70662,-0.57559 -1.12987,-0.85045c4.64936,2.27748 9.39367,4.1178 14.46521,5.50137c2.64716,0.71723 5.50156,1.53973 8.37921,2.11291z" fill="#ffffff"/><path d="M265.48018,137.2415c-0.3694,2.69693 -0.66981,5.35995 -0.85592,7.99828c-0.04032,-0.36517 -0.08105,-0.73111 -0.11613,-1.09692c-0.06568,-3.07661 0.43725,-6.06409 1.27504,-8.84826c-0.1107,0.62098 -0.21882,1.33676 -0.30299,1.94691z" fill="#ffffff"/><path d="M273.15784,124.38459c-2.58997,5.51508 -5.24254,11.17895 -6.72282,17.07508c0.14825,-1.38222 0.26864,-2.68754 0.46031,-4.08681c0.54042,-3.97622 1.66087,-8.27095 3.33117,-12.35024c0.69045,-1.31167 1.40436,-2.6587 2.11316,-3.98165c0.66087,-1.23351 1.19526,-2.50781 1.84827,-3.69902c1.52765,-2.37374 3.29482,-4.53538 5.21895,-6.34303c2.44847,-2.30419 5.03243,-4.41604 7.77014,-6.47488c-5.94088,5.69308 -10.71574,11.99969 -14.01918,19.86055z" fill="#ffffff"/><path d="M276.39293,180.81735c-1.56765,-3.90303 -3.86763,-7.41156 -5.21942,-11.41333c-1.75915,-5.20765 -3.3895,-10.90775 -4.4691,-16.33258c-0.85447,-9.90368 3.53135,-19.28342 7.67472,-28.11143c3.97363,-9.4497 10.22578,-16.6753 17.94584,-23.20138c2.90194,-2.56089 5.97223,-4.49578 9.20533,-6.15216c0.37717,-0.1832 0.75582,-0.36337 1.13393,-0.53945c9.38574,-4.37113 18.49273,-5.81261 28.49552,-7.24861c0.76075,-0.10922 1.53913,-0.24955 2.32126,-0.39163c1.44345,-0.19534 2.89388,-0.36181 4.33591,-0.47165c1.47271,0.02761 2.94598,0.11814 4.4109,0.28151c1.23834,0.25254 2.53657,0.45735 3.84016,0.67298c4.38147,1.21094 8.81979,3.2195 12.01625,5.10634c0.13642,0.08048 0.27282,0.16215 0.4085,0.2446c1.98757,1.81749 3.85506,3.78398 6.11121,4.94372c4.12106,5.22553 9.18961,9.76393 13.62116,14.84449c3.15053,5.24663 6.1889,10.64166 9.08781,15.98171c1.62293,2.98682 3.1722,6.14343 4.41726,9.41938c0.39535,2.70046 0.57794,5.45057 0.65772,8.03573c0.31191,10.02224 -3.10983,19.34307 -8.12117,28.02289c-3.29087,8.85209 -10.47179,16.07974 -18.4875,20.25705c-0.34306,0.17879 -0.68648,0.35613 -1.0288,0.53089c-5.30969,2.50402 -10.85843,4.60549 -16.28093,6.68614c-3.54475,1.0651 -7.18494,1.88947 -10.9786,2.44564c-1.89174,0.27733 -3.87534,0.68101 -5.86481,1.04591c-5.0292,0.4878 -10.17918,0.49854 -14.92354,-0.87354c-5.51635,-1.58613 -10.78492,-3.80949 -16.10499,-5.93582c-3.61537,-1.445 -7.42911,-2.63761 -10.6855,-4.81505c-4.17165,-2.78269 -9.49613,-6.98976 -12.9683,-11.53512c-0.19268,-0.51171 -0.37649,-1.01345 -0.55082,-1.49721z" fill="#ffffff"/></g><g fill="#000000" stroke="none" stroke-width="0.5" stroke-linecap="butt"><path d="M375.55676,151.85387c-1.36029,2.23335 -3.09987,4.14599 -5.19311,5.51837c-8.1184,5.29416 -20.44554,6.44215 -29.6816,3.73392c-0.21297,-0.11415 -0.45891,-0.22956 -0.72208,-0.34845c-0.33261,0.47462 -0.9021,0.21974 -0.9021,0.21974c-8.38576,-3.7532 -9.60673,-13.45408 -8.64389,-21.65188c0.37689,-3.18599 0.53517,-6.67787 1.68716,-9.70899c2.62361,-6.90327 10.32787,-9.62637 16.6929,-11.81089c10.04696,-0.36473 23.11519,1.60675 28.12799,11.32301c0.75389,1.46125 1.30537,3.07093 1.66206,4.76412c0.28238,0.7528 0.53986,1.47139 0.77395,2.12214c0.60039,5.69607 0.43788,9.89713 -2.49343,14.99143l-0.49529,0.60727c0,0 -0.35212,0.41878 -0.81254,0.24022zM365.5345,121.53862c-5.21234,-1.9419 -11.29761,-2.38429 -16.46445,-2.25853c-4.26016,1.55853 -9.29661,3.21052 -12.65508,6.49009c4.9318,-3.75096 12.4553,-4.27779 18.7677,-4.82079c3.17862,-0.01129 6.87769,-0.03631 10.35183,0.58924zM331.65472,145.41071c0.17737,4.00382 1.15447,7.94581 3.58818,10.86837c-0.39683,-0.85598 -0.73412,-1.7407 -1.07859,-2.57403c-1.08513,-2.62508 -1.96147,-5.42892 -2.50958,-8.29433zM377.12813,134.26229c-1.0394,-2.77253 -2.42825,-6.08278 -4.25912,-7.80821c-4.41568,-4.16142 -11.93844,-4.02145 -17.61932,-4.00619c-8.63751,0.75118 -20.38738,1.18416 -22.32043,11.94616c-1.13581,6.23169 0.22751,12.95265 2.62117,18.73774c0.6841,1.65335 1.313,3.56313 2.55435,4.91025c0.64817,0.7034 2.29778,1.21541 3.14563,1.67597c8.79415,2.52494 20.57817,1.42936 28.2939,-3.60221c6.42469,-4.1648 9.20664,-14.03156 7.58383,-21.85352z"/><path d="M322.41365,131.20694c-0.12731,0.08477 -0.24595,0.12629 -0.35414,0.13867c1.78088,3.48182 2.85947,7.34309 3.59616,11.18889c0.39358,2.07493 0.9278,5.5245 0.36251,7.60034c-1.92871,7.08263 -11.52319,13.41269 -18.41909,14.08763c-7.31766,0.68236 -14.26536,-2.11453 -19.64032,-6.82786c-0.27878,0.07808 -0.54928,-0.04692 -0.54928,-0.04692c-6.02561,-2.82541 -9.00308,-10.61249 -8.545,-17.03644c0.17049,-2.39079 1.32855,-5.06701 1.94353,-7.38865c2.48572,-9.38407 12.64764,-15.04881 22.14126,-14.15277c4.56165,0.12395 9.08614,1.40906 13.04962,3.88036c2.69398,1.88611 4.70089,4.63071 6.51179,7.34924l0.11157,0.16757c0,0 0.41566,0.62428 -0.2086,1.03994zM303.09728,120.2696c-4.48683,-0.15578 -9.02157,0.87844 -13.04005,3.06958c-5.39625,5.35188 -9.05356,11.15652 -8.36079,19.04554c0.17106,1.94797 0.07662,4.74528 1.1028,6.42614c5.03667,8.61112 14.45434,14.86981 24.66055,13.91809c6.28648,-0.55278 15.31594,-6.53951 17.10467,-12.96394c0.51337,-1.84381 -0.02235,-5.09041 -0.38204,-6.94829c-1.2493,-6.52182 -3.46996,-13.11392 -8.73351,-17.61182c-2.59148,-2.21452 -5.93827,-3.29877 -9.11922,-4.26271c-1.05464,-0.32511 -2.13728,-0.54743 -3.23243,-0.67259z"/><path d="M309.2435,147.13837c0.83651,-0.19743 1.74578,-0.39568 1.88317,-0.35579c0.55487,0.16107 1.00813,0.47134 1.35991,0.87491c0.7754,0.1366 1.42512,0.61143 1.86892,1.70464c0.23442,0.57742 0.66726,1.16214 0.57603,1.77861c-0.18904,1.27751 -1.28556,2.33746 -2.5717,2.82241c0.01853,0.54518 -0.04192,0.97773 -0.23652,1.1675c-0.50293,0.4904 -1.40466,0.07367 -2.10675,0.05121c-0.77515,-0.02481 -1.52236,-0.12743 -2.20542,-0.32238c-0.7056,-0.09906 -3.10347,-0.43544 -3.31389,-0.59194c-0.39197,-0.29153 -0.66164,-0.79275 -0.81,-1.37372c-0.54663,-1.18824 -0.36199,-2.76801 0.596,-3.7755c0.00897,-0.24144 0.06197,-0.4661 0.20998,-0.6524c0.21008,-0.26442 2.85753,-0.86621 3.33211,-0.98181c0.11385,-0.02773 0.41888,-0.10433 0.80054,-0.19739c0.09467,-0.08826 0.18572,-0.17861 0.26966,-0.27311c0.06986,0.02628 0.19111,0.06897 0.34798,0.12476zM310.54528,149.48959c0.15304,0.02498 0.30196,0.04976 0.44563,0.07339c0.03406,-0.05566 0.05748,-0.11062 0.06872,-0.16424c-0.03078,0.00956 -0.06112,0.01743 -0.09093,0.02338c-0.12194,0.02433 -0.26454,0.04653 -0.42342,0.06747zM306.1362,151.68649c0.36273,0.97849 1.0462,1.33545 1.98143,1.57203c0.14743,-0.05588 0.31398,-0.11411 0.49225,-0.17467c-0.1073,-0.2312 -0.22838,-0.52632 -0.35209,-0.85403c-0.76876,-0.08345 -1.48455,-0.39678 -1.94379,-0.94709c-0.07412,0.11496 -0.13415,0.24864 -0.17778,0.40376zM311.85454,150.85837c0.03638,-0.1893 0.05512,-0.38753 0.05527,-0.58692c-0.04989,0.07005 -0.09849,0.13989 -0.14387,0.2096c0.02821,0.11841 0.05799,0.24478 0.08859,0.37732zM307.51541,150.64817c0.06638,0.04961 0.14791,0.0865 0.24145,0.11199c-0.01326,-0.04328 -0.02635,-0.08641 -0.03921,-0.12932c-0.06853,0.00401 -0.13601,0.0097 -0.20224,0.01732z"/><path d="M352.31844,131.39836c-1.78823,0.95094 -4.40348,1.5892 -5.8025,1.26544c-2.17584,-0.50353 -2.6865,-3.37695 -1.11087,-4.89587c0.20628,-0.19885 2.90685,-0.65257 3.33975,-0.73065c0.98411,-0.1775 1.96364,-0.38274 2.95236,-0.53252c1.22298,-0.18528 4.80113,0.6258 4.35377,2.84766c-0.13975,0.69411 -1.16029,0.81502 -1.7735,1.16898c-0.38965,0.22492 -1.11089,0.56125 -1.959,0.87697zM351.04057,129.82315c0.09508,-0.05512 0.19218,-0.11431 0.2919,-0.17818c-0.1477,0.06815 -0.29789,0.13357 -0.45001,0.19593c0.05302,-0.00549 0.10579,-0.01141 0.15812,-0.01776z"/></g><path d="M356.12288,185.3289c-0.31172,-0.68215 0.37044,-0.99387 0.37044,-0.99387l0.79352,-0.35471c1.50832,-0.23675 2.94562,-0.59308 4.42587,-0.96314c3.41403,-0.85351 6.34588,-1.988 9.26992,-3.95302c1.33802,-0.89918 2.19361,-1.40185 3.11632,-2.71493c0.24128,-0.34335 1.18946,-1.18123 0.86641,-0.91338c-0.96269,0.79821 -2.4305,1.00314 -3.58886,1.37279c-2.828,0.90247 -5.55535,2.00404 -8.42699,2.78743c-8.43645,2.29821 -16.19551,2.54368 -24.60052,0.14225c0,0 -0.72114,-0.20604 -0.5151,-0.92718c0.20604,-0.72114 0.92718,-0.5151 0.92718,-0.5151c8.14564,2.32733 15.61337,2.08656 23.79377,-0.14711c3.32809,-0.9074 6.51212,-2.17755 9.79442,-3.22542c0.4664,-0.1489 2.92562,-0.99367 3.29544,-0.825c1.87882,0.85689 -0.55435,3.77359 -1.22246,4.44417c-3.17679,3.18856 -8.11029,4.87085 -12.34574,5.92971c-1.45735,0.36434 -2.87382,0.72481 -4.36056,0.94524l-0.5992,0.2817c0,0 -0.68215,0.31172 -0.99387,-0.37044z" fill="#000000" stroke="none" stroke-width="0.5" stroke-linecap="butt"/></g></g></svg>