<svg version="1.1" xmlns="http://www.w3.org/2000/svg" xmlns:xlink="http://www.w3.org/1999/xlink" width="213.18203" height="297.04643" viewBox="0,0,213.18203,297.04643"><defs><linearGradient x1="320.08745" y1="187.07227" x2="320.08745" y2="244.23177" gradientUnits="userSpaceOnUse" id="color-1"><stop offset="0" stop-color="#0221b0"/><stop offset="1" stop-color="#0221b0" stop-opacity="0"/></linearGradient></defs><g transform="translate(-214.52368,-23.02584)"><g stroke-miterlimit="10"><path d="M214.52369,306.61252v-283.58668h213.18203v283.58668z" fill="none" stroke="none" stroke-width="0" stroke-linecap="butt"/><path d="M286.35186,319.07226l15.14285,-131.8421l37.78325,-0.15789l13.57389,132z" fill="#015bb1" stroke="#000000" stroke-width="0" stroke-linecap="butt"/><path d="M295.01905,243.61117l6.47569,-56.38101l37.78325,-0.15789l5.87786,57.15951z" fill="url(#color-1)" stroke="#000000" stroke-width="0" stroke-linecap="butt"/><path d="M286.35186,319.07226l15.14285,-131.8421l37.78325,-0.15789l13.57389,132z" fill="none" stroke="#000000" stroke-width="2" stroke-linecap="butt"/><path d="" fill="none" stroke="#000000" stroke-width="2" stroke-linecap="round"/><g stroke-linecap="butt"><g stroke="#000000" stroke-width="2"><path d="M282.96331,111.46284l36.62222,-74.55435l35.09777,76.15998z" fill="#015bb1"/><path d="M322.4414,112.51684l73.5421,-42.86169l-12.45822,87.90943z" fill="#015bb1"/><path d="M256.04693,152.77615l-21.43652,-83.12101l78.92907,44.35808z" fill="#015bb1"/><path d="M255.6642,155.45562c0,-33.30185 28.7599,-60.29833 64.23702,-60.29833c35.47713,0 64.23702,26.99648 64.23702,60.29833c0,33.30185 -28.75989,60.29834 -64.23702,60.29834c-35.47712,0 -64.23702,-26.99649 -64.23702,-60.29834z" fill="#015bb1"/><path d="M375.02422,186.43373c-5.01388,7.84436 -12.65188,14.52747 -20.99285,20.51578c-10.33613,7.42072 -22.07235,13.2936 -35.02794,13.2936c-13.62455,0 -24.47215,-6.32882 -34.6165,-14.37169c-7.70862,-6.11172 -15.64347,-12.83381 -20.40851,-20.72494c-5.29257,-8.76474 33.36796,-2.26571 56.38352,-1.99891c23.01556,0.2668 60.4492,-5.76766 54.66228,3.28616z" fill="#ffe192"/></g><path d="M294.22981,189.19914c-0.0079,2.83552 -0.00299,5.6711 -0.00299,8.50663c0,1.48372 -0.00374,3.06304 0.20223,4.57636c0.18106,0.6034 0.40277,1.29236 0.37878,1.83406c0.02209,0.07596 0.04503,0.15155 0.06883,0.22674l-0.0019,0.0153l0.00509,-0.00098l0.09038,0.46997c0.00357,0.01683 0.00546,0.03429 0.00546,0.05219c0,0.13807 -0.11193,0.25 -0.25,0.25c-0.11898,0 -0.21854,-0.08311 -0.2438,-0.19444l-0.12,-0.48l0.02471,-0.00618c-0.02026,-0.06404 -0.03989,-0.12838 -0.05892,-0.193c-1.05369,-2.42768 -0.98862,-5.77042 -0.97125,-8.41681c-0.06981,0.38256 -0.13971,0.7651 -0.20967,1.14763l-0.03504,0.48648c-0.00819,0.13067 -0.11677,0.23411 -0.2495,0.23411c-0.10394,0 -0.19307,-0.06344 -0.23078,-0.1537l-0.1936,-0.43571l0.09809,-0.04358c-0.92006,-2.04063 -0.50414,-5.7425 -0.35314,-8.28673l-0.05791,-0.25791c-0.09771,-0.43595 -0.24471,-1.03478 -0.39678,-1.70879c0.00128,0.71549 -0.04466,1.4157 -0.17514,2.07865l0.0015,0.01752l0.04345,0.00014l-0.00165,0.49989c0,0.00004 0,0.00007 0,0.0001c-0.00045,0.13769 -0.1122,0.24917 -0.25,0.24917c-0.13171,0 -0.23964,-0.10186 -0.2493,-0.2311l-0.04135,-0.4833c-0.23708,-1.06337 -0.44325,-2.13281 -0.6348,-3.20507c-0.10279,0.4764 -0.17242,0.93257 -0.19095,1.35867c-0.11578,2.66303 -0.12145,5.32136 -0.12175,7.98679l-0.00006,0.5v0c-0.00002,0.13806 -0.11194,0.24997 -0.25,0.24997c-0.12791,0 -0.23339,-0.09606 -0.24822,-0.21998l-0.06655,-0.49199l0.03442,-0.00466c-0.97352,-2.6389 -1.00812,-6.01192 -1.56976,-8.78574c-0.04692,0.39415 -0.10709,0.78136 -0.18745,1.15816l0.03689,0.00015l-0.00209,0.49986c0,0.00004 0,0.00009 0,0.00013c-0.00056,0.13759 -0.11228,0.24895 -0.25,0.24895c-0.12387,0 -0.2267,-0.09009 -0.24654,-0.20832l-0.09128,-0.48708c-0.07168,-0.38638 -0.11923,-0.78025 -0.15499,-1.17773c0.00003,0.67676 0.00007,1.35353 0.00007,2.03029v0.5c0,0.13807 -0.11193,0.25 -0.25,0.25c-0.13807,0 -0.25,-0.11193 -0.25,-0.25v-0.5c0,-0.0159 -0.00002,-0.03183 -0.00005,-0.04779c-1.22188,-1.70719 -1.39533,-5.94771 -1.62971,-8.34768c-0.08904,-0.01965 -0.17787,-0.03987 -0.26644,-0.06072c-0.21319,0.72017 -0.37151,1.61569 -0.49371,2.26056l0.07428,0.00327l-0.02192,0.49819c-0.00508,0.13359 -0.11498,0.24033 -0.24982,0.24033c-0.11246,0 -0.20758,-0.07426 -0.23899,-0.17641l-0.15629,-0.46887l0.01176,-0.00392l-0.02089,-0.03232c-0.02548,-0.89761 -0.06989,-1.7788 -0.09757,-2.6521c-1.50053,-0.49194 -2.85275,-1.26954 -3.7957,-2.68135c0,0 -0.13868,-0.20801 0.06934,-0.34669c0.20801,-0.13868 0.34669,0.06934 0.34669,0.06934c0.61374,0.92243 1.42158,1.55493 2.33548,2.00876c-0.29489,-0.29069 -0.5271,-0.63348 -0.67736,-1.03884l-0.09634,0.03358l-0.16267,-0.46664c-0.01024,-0.02731 -0.01585,-0.0569 -0.01585,-0.08779c0,-0.13807 0.11193,-0.25 0.25,-0.25c0.05919,0 0.11357,0.02057 0.15639,0.05495l0.36522,0.28778c0.40715,0.13202 0.80905,0.26128 1.20745,0.38646c0.02383,-1.02961 0.11058,-2.05745 0.32016,-3.09784h-0.02172v-0.5c0,-0.13807 0.11193,-0.25 0.25,-0.25c0.0998,0 0.18594,0.05848 0.22603,0.14304l0.1848,0.36959l-0.00886,0.00443l0.0205,0.02277c0.29927,1.27745 0.54946,2.54052 0.75436,3.8253c0.46717,0.1317 0.93306,0.2549 1.40067,0.36739c0.02277,-0.11462 0.1239,-0.20102 0.2452,-0.20102c0.10906,0 0.20181,0.06983 0.23597,0.16723l0.05992,0.15884c1.2891,0.28538 2.59987,0.48352 3.99445,0.54854c0.17353,-0.48763 0.36398,-0.95152 0.5721,-1.38089l-0.03008,-0.01003l0.15629,-0.46887c0.03142,-0.10216 0.12653,-0.17641 0.23899,-0.17641c0.0998,0 0.18594,0.05848 0.22603,0.14304l0.1848,0.36959l-0.0167,0.00835l0.0364,0.04599c0.0076,0.49792 0.01738,0.99592 0.02849,1.49405c0.54888,0.00423 1.10656,0.01556 1.66742,0.02107c0.07648,-0.4625 0.16502,-0.90893 0.2676,-1.3321h-0.02299v-0.5c0,-0.13807 0.11193,-0.25 0.25,-0.25c0.12425,0 0.22733,0.09064 0.24672,0.20941l0.07283,0.39905c0.09041,0.49537 0.18494,0.98557 0.27828,1.47347c0.0828,-0.0011 0.16558,-0.00251 0.24834,-0.00427c0.73115,-0.25377 1.45978,-0.53103 2.17662,-0.7898c0.03569,-0.54338 0.09866,-1.07557 0.2013,-1.58884l0.08708,-0.43014c0.02121,-0.11658 0.12326,-0.20497 0.24595,-0.20497c0.13807,0 0.25,0.11193 0.25,0.25v0.5h-0.05011c0.06554,0.37787 0.10272,0.77134 0.1168,1.17596c0.34881,-0.11728 0.69384,-0.22597 1.03397,-0.32099c0.09603,-0.37811 0.2183,-0.72919 0.37251,-1.04394l-0.08103,-0.03448l0.18496,-0.43469c0.03679,-0.09224 0.12693,-0.15743 0.2323,-0.15743c0.13807,0 0.25,0.11193 0.25,0.25v0.5v0c0,0.16667 0,0.33333 0,0.5c0,0.06016 -0.00002,0.12032 -0.00007,0.18047c0.00029,-0.00008 0.00057,-0.00016 0.00086,-0.00024c0.01174,-0.1335 0.03113,-0.26091 0.06086,-0.37821c0,-0.07882 0,-0.15763 0,-0.23645v0v-0.5c0,-0.13807 0.11193,-0.25 0.25,-0.25c0.13807,0 0.25,0.11193 0.25,0.25v0.5v0c0,0.07197 0,0.14393 0,0.2159c0.01168,0.06033 0.02278,0.12102 0.03333,0.18204c0.11198,-0.04876 0.22327,-0.10114 0.33401,-0.15603c0.02968,-0.22681 0.05332,-0.45455 0.06558,-0.68738l0.00318,-0.43058c0.00087,-0.13733 0.11246,-0.24839 0.24999,-0.24839c0.13807,0 0.25,0.11193 0.25,0.25v0.5h-0.00662c-0.00206,0.03382 -0.00433,0.06754 -0.0068,0.10118c0.01496,0.06535 0.02943,0.13125 0.04341,0.19767c0.44508,-0.24636 0.88559,-0.50178 1.33172,-0.69267l0.3446,-0.14679c0.03143,-0.01424 0.06632,-0.02217 0.10307,-0.02217c0.13807,0 0.25,0.11193 0.25,0.25c0,0.05719 -0.0192,0.1099 -0.05152,0.15202l-0.29848,0.39798l-0.02825,-0.02119c-0.36502,0.68103 -0.79508,1.22981 -1.28001,1.67162c-0.01621,0.19104 -0.04387,0.39025 -0.07413,0.57693c0.18932,2.31093 0.09584,4.86607 0.27889,6.8716c0.252,2.77195 0.43252,5.46086 0.49418,8.21119c0.09733,0.90695 0.12336,1.78753 0.02323,2.59266c0,0.12999 0,0.25997 0,0.38996v0.5c0,0.13807 -0.11193,0.25 -0.25,0.25c-0.13807,0 -0.25,-0.11193 -0.25,-0.25c0,-0.02357 0,-0.47643 0,-0.5c0,-0.07977 0,-0.15954 0,-0.23932c-0.1192,-0.52196 0.00684,-1.20452 -0.09059,-1.70397c-0.47655,-2.44302 -0.73231,-4.92962 -1.12029,-7.38953c-0.08063,-0.51131 -0.15545,-1.02383 -0.22449,-1.53732c-0.10668,0.94341 -0.18834,1.89003 -0.26232,2.83751c0.00179,0.04599 0.00362,0.09195 0.00551,0.1379c0.42817,2.43328 1.2837,5.52529 0.87888,7.76309c0.00093,0.08539 0.00185,0.17079 0.00278,0.25618l-0.00203,0.00102h0.00204v0.37443c0,0.13807 -0.11193,0.25 -0.25,0.25c-0.13807,0 -0.25,-0.11193 -0.25,-0.25v-0.37382c-0.00043,-0.08374 -0.00086,-0.16749 -0.00129,-0.25123c-0.03013,-0.11559 -0.04662,-0.24839 -0.05516,-0.38917c-0.26642,-1.3655 -0.46077,-2.71235 -0.59795,-4.06006c-0.1136,1.32697 -0.25363,2.64996 -0.46797,3.96245c-0.07219,0.44176 -0.16079,0.87905 -0.2498,1.31768c0,2.11558 0,4.23116 0,6.34675v0.5c0,0.13807 -0.11193,0.25 -0.25,0.25c-0.11722,0 -0.21559,-0.08067 -0.24264,-0.18953l-0.13,-0.47718l0.04592,-0.01251c-1.27916,-2.75013 -1.04659,-6.55225 -1.04659,-9.43843c0,-3.48175 -0.5604,-6.94301 -0.56165,-10.41573c0,-0.13628 -0.00118,-0.27368 -0.00331,-0.41206c-0.17514,0.82732 -0.34653,1.61769 -0.47214,2.33548c-0.58792,3.35962 -0.33507,6.91043 -0.33507,10.30961c0,2.49849 0,4.99698 0,7.49548v0.4293c0,0.13807 -0.11193,0.25 -0.25,0.25c-0.08815,0 -0.16565,-0.04563 -0.21016,-0.11455l-0.2752,-0.4128l0.12424,-0.08283c-1.17478,-2.2326 -0.41833,-7.29965 -0.51515,-9.53498c-0.15142,-3.49575 -0.20425,-6.99613 -0.38796,-10.49017c-0.0699,-1.32935 -0.27305,-2.60769 -0.50928,-3.88887c-0.07255,0.01245 -0.14517,0.02474 -0.21785,0.03686c-0.00233,0.03203 -0.0041,0.06313 -0.00523,0.0932c-0.06122,1.63293 -0.30627,3.28075 -0.44827,4.91728c0.06357,0.52142 0.1117,1.04797 0.15715,1.56809c0.01289,-0.00159 0.02658,-0.00244 0.04111,-0.00244c0.25,0 0.25,0.25 0.25,0.25v0.30826c0,0.63858 0.02526,1.22768 -0.04476,1.8207c0.00881,0.06018 0.01791,0.11995 0.02732,0.1793h0.01745v0.5c0,0.13807 -0.11193,0.25 -0.25,0.25c-0.13579,0 -0.2463,-0.10826 -0.24991,-0.24318l-0.01404,-0.45148c-0.01349,-0.08335 -0.02845,-0.16951 -0.04471,-0.25823zM293.85425,182.82937c0.0471,-0.82121 0.11377,-1.64741 0.20881,-2.4463c-0.48698,0.07237 -0.97595,0.13541 -1.46539,0.1855c0.01482,0.57371 0.03038,1.14763 0.0454,1.72183c0.042,-0.13263 0.08347,-0.24959 0.12353,-0.34794l0.18777,-0.45713c0.03603,-0.0938 0.12697,-0.16038 0.23346,-0.16038c0.11201,0 0.20681,0.07366 0.23861,0.17519l0.15872,0.46804l-0.04654,0.01578c0.12085,0.27099 0.22508,0.55369 0.31563,0.84541zM287.67987,180.49423c-0.09094,-0.01513 -0.18216,-0.03019 -0.27361,-0.04524c0.06222,0.58787 0.14615,1.17113 0.24524,1.75213c0.15066,-0.6602 0.2945,-1.23765 0.37449,-1.63761l0.00324,-0.01618c-0.11671,-0.01624 -0.23317,-0.03392 -0.34935,-0.05311zM283.88559,177.70476c0.27227,0.08411 0.54316,0.1661 0.81324,0.24554c-0.13522,-0.8181 -0.28924,-1.62801 -0.46015,-2.4404c-0.10304,0.45474 -0.27539,0.91995 -0.31004,1.31157c-0.02605,0.29439 -0.03927,0.58884 -0.04306,0.88329zM300.03054,190.55279c0.08135,-0.73508 0.17103,-1.47129 0.269,-2.21237c0.01477,-0.11166 0.0297,-0.22342 0.04478,-0.33527c-0.00419,-0.04531 -0.00834,-0.09064 -0.01246,-0.13597c-0.23937,-2.63305 -0.25414,-5.26928 -0.24683,-7.90955c-0.01575,0.11294 -0.02901,0.22026 -0.03867,0.32047c-0.18842,1.95581 -0.01579,4.01099 -0.01581,5.97595c0,1.43225 0,2.86449 0,4.29674zM302.37451,177.54683c0.1378,-0.18145 0.27609,-0.35637 0.4202,-0.5144c-0.19331,0.10381 -0.38614,0.21073 -0.57976,0.31556c0.00897,0.05271 0.01769,0.10569 0.02615,0.15893c0.05037,-0.00491 0.08689,-0.00098 0.10568,0.01396c0.00976,0.00776 0.01899,0.01643 0.02772,0.02595zM295.51878,180.22823c0.23298,1.27303 0.43188,2.54425 0.50134,3.86518c0.1838,3.49558 0.2367,6.9975 0.38819,10.49478c0.02776,0.6409 0.07422,1.30592 0.12675,1.9846c-0.00036,-3.42677 -0.25009,-7.00172 0.34255,-10.38839c0.32391,-1.85096 0.61167,-3.69932 0.84456,-5.56059c-0.00418,-0.15414 -0.00756,-0.30821 -0.00987,-0.46206c-0.65154,0.05013 -1.32721,0.06552 -2.01894,0.06629c-0.05819,0.00006 -0.11639,0.00013 -0.17458,0.00018zM291.00003,179.63795c-0.43195,-0.02227 -0.85674,-0.05665 -1.27597,-0.10204l0.14683,0.44049c0.19439,0.01682 0.38737,0.03616 0.57854,0.05925c-0.00414,-0.01804 -0.00632,-0.03683 -0.00632,-0.05612c0,-0.13807 0.11193,-0.25 0.25,-0.25v0h0.27758c0.00972,-0.0306 0.01951,-0.06113 0.02935,-0.09158zM284.49402,179.21754c0.09732,-0.216 0.20337,-0.40902 0.31588,-0.56492c-0.00705,-0.0467 -0.01416,-0.09336 -0.02134,-0.13999c-0.29933,-0.08725 -0.59919,-0.17816 -0.90023,-0.27229c0.00512,0.23556 0.01497,0.47111 0.02779,0.70662c0.08959,0.05223 0.18338,0.10109 0.28226,0.14582c0.09775,0.04421 0.19632,0.08574 0.29563,0.12476zM301.81901,182.53529c-0.09554,0.56464 -0.18895,1.12885 -0.27548,1.69478c0.122,1.15003 0.27277,2.29659 0.4527,3.43716c0.12803,0.81174 0.3321,1.73641 0.54005,2.70944c-0.08677,-1.47318 -0.2021,-2.94777 -0.33842,-4.44726c-0.1041,-1.14986 -0.25397,-2.27051 -0.37885,-3.39412zM299.34103,179.94118c-0.26966,0.05589 -0.54553,0.10139 -0.82688,0.13828c-0.0616,0.57687 -0.15004,1.16122 -0.25254,1.74223c0.03961,0.86459 0.08397,1.71716 0.08397,2.52548c-0.0013,3.47219 0.56165,6.93423 0.56165,10.41573c0,2.18791 -0.04811,4.24668 0.4059,6.39029c0.04825,0.22783 0.13064,0.51304 0.2174,0.82312c0,-1.48231 0,-2.96461 0,-4.44692c-0.09756,-0.40412 -0.05568,-0.92115 0,-1.39443c0,-3.29297 0,-6.58594 0,-9.87891c0.00002,-1.60351 -0.29963,-4.0955 -0.18951,-6.31486zM289.61517,192.25495c0.00891,-1.37056 0.02905,-2.74034 0.07462,-4.11095c-0.04486,0.06689 -0.12118,0.11093 -0.20778,0.11093c-0.13752,0 -0.24911,-0.11104 -0.24999,-0.24836l-0.00376,-0.49901c-0.00088,-0.05931 -0.00313,-0.12027 -0.00666,-0.18278c-0.16412,-0.41972 -0.24205,-1.02167 -0.26754,-1.70727c-0.22743,-1.07077 -0.53355,-2.26112 -0.66327,-3.30312c-0.06821,0.77464 -0.10009,1.56638 -0.14534,2.35031c0.08335,0.37477 0.16914,0.75 0.2556,1.12633c0.49197,2.14137 0.86791,4.29571 1.21412,6.46391zM285.44404,179.5158c0.15869,0.03882 0.31863,0.07315 0.47958,0.10367c-0.11632,-0.30682 -0.35659,-0.91227 -0.5046,-0.87478c-0.02877,0.00729 -0.05697,0.0189 -0.08463,0.03455c0.01929,0.13187 0.03811,0.26403 0.05648,0.39651c0.01525,0.10999 0.03307,0.22344 0.05317,0.34005zM289.82106,182.272c0.04686,0.8339 0.09543,1.69443 0.09738,2.53841c0.04329,-0.36349 0.09354,-0.7343 0.15102,-1.10872c-0.06314,-0.37795 -0.12575,-0.75599 -0.18854,-1.13398c-0.01503,-0.09048 -0.03568,-0.18982 -0.05987,-0.29571zM292.05724,180.61844c-0.05269,0.00431 -0.10537,0.00846 -0.15806,0.01244c-0.06888,0.28113 -0.14632,0.5663 -0.22915,0.85378l0.0006,0.00256l-0.00143,0.00034c-0.00783,0.02717 -0.01571,0.05436 -0.02363,0.08156c0.29988,0.85846 0.43556,1.80292 0.52426,2.76607c-0.03855,-1.23996 -0.08632,-2.4809 -0.11259,-3.71675zM290.88203,184.03017c0.07462,0.53237 0.13784,1.06933 0.19889,1.59857c-0.02335,-0.64802 -0.0601,-1.29588 -0.09235,-1.94389c-0.036,0.11548 -0.07159,0.23062 -0.10654,0.34532zM290.69077,180.69039c-0.1911,0.00406 -0.38197,0.00543 -0.57252,0.00387c0.1228,0.32555 0.22906,0.66766 0.32224,1.02171c0.07687,-0.34525 0.16023,-0.68806 0.25028,-1.02558zM287.3071,179.14952c0.00992,0.21971 0.02344,0.43856 0.04024,0.65666c0.62898,0.05433 1.26228,0.08247 1.88624,0.12286v-0.32395v0v0c0,-0.04487 0.01182,-0.08697 0.03251,-0.12337c-0.66352,-0.08514 -1.31434,-0.19736 -1.95899,-0.3322zM288.70865,180.62562c0.16055,0.37297 0.29552,0.77603 0.40907,1.19816c0.03478,-0.42956 0.06725,-0.82458 0.08891,-1.16027c-0.16638,-0.01006 -0.33239,-0.02264 -0.49798,-0.03789zM286.31843,178.92463c0.09039,0.15518 0.17352,0.33117 0.24997,0.52177c0.02421,-0.14587 0.05105,-0.29007 0.08074,-0.43241l-0.03583,-0.00099l0.00048,-0.01749c-0.09854,-0.02314 -0.19698,-0.04677 -0.29536,-0.07088zM283.96921,179.75381c0.0222,0.30071 0.04604,0.60131 0.06788,0.90174c0.05907,-0.27425 0.13374,-0.55431 0.22111,-0.82191c-0.09677,-0.02568 -0.19313,-0.05226 -0.289,-0.07983zM293.09459,182.49485c-0.58272,1.76839 -0.18172,3.67064 -0.35705,5.48234c0.05782,1.69708 0.39977,3.99081 0.4428,6.03489c0.05815,-0.31846 0.11638,-0.63689 0.17471,-0.95531c-0.00439,-2.64006 -0.0054,-5.28014 -0.00263,-7.9202c-0.17745,-0.95286 -0.29572,-1.87784 -0.25784,-2.64171zM299.3601,179.61953c0.0053,-0.07647 0.01113,-0.15254 0.01754,-0.22816c-0.26017,0.06632 -0.53326,0.12128 -0.81527,0.16657c-0.00378,0.04892 -0.00779,0.09791 -0.01201,0.14698c0.2743,-0.01857 0.54548,-0.04587 0.80974,-0.0854zM299.50946,178.35767c0.00203,-0.01146 0.00408,-0.0229 0.00616,-0.03432c-0.30073,0.08628 -0.6043,0.18208 -0.91016,0.28414c-0.00041,0.04013 -0.00101,0.08034 -0.00181,0.12064c0.30316,-0.14543 0.60251,-0.26459 0.90582,-0.37046zM297.43496,179.01821c0.09556,-0.02155 0.19095,-0.04356 0.28614,-0.06604c0.00043,-0.01255 0.00086,-0.0251 0.00131,-0.03765c-0.09566,0.0343 -0.19148,0.06889 -0.28745,0.10369zM297.56492,179.73995c0.04794,-0.00047 0.09593,-0.00108 0.14394,-0.00184c-0.00001,-0.00929 -0.00001,-0.01858 -0.00001,-0.02786c-0.04791,0.00991 -0.09589,0.01981 -0.14393,0.02971zM301.36195,179.23306c-0.0023,0.00124 -0.00459,0.00247 -0.00689,0.00371c0.00064,0.03287 0.00119,0.06579 0.00165,0.09875c0.00179,-0.03416 0.00354,-0.06831 0.00524,-0.10246zM301.38248,178.76154c0.00556,-0.14995 0.01018,-0.2998 0.01379,-0.44956c-0.00788,0.00231 -0.01575,0.00462 -0.02361,0.00692c-0.01845,0.02202 -0.03739,0.04371 -0.05683,0.06508c0.01039,0.13797 0.0187,0.27708 0.02513,0.41718c0.01392,-0.01308 0.02776,-0.02629 0.04151,-0.03962zM301.28824,177.82262c0.00361,-0.00147 0.00722,-0.00294 0.01083,-0.00441l-0.00337,-0.01348c-0.01172,0.00504 -0.02345,0.01004 -0.03519,0.015c0.00043,0.00355 0.00087,0.0071 0.0013,0.01064c0.0088,-0.00258 0.01761,-0.00516 0.02643,-0.00776zM301.43573,177.74274c-0.03526,0.01605 -0.07059,0.03181 -0.10601,0.04725l0.10259,-0.02565c0.00114,-0.00721 0.00228,-0.01441 0.00342,-0.02161zM300.58851,182.20758c0.03402,-0.88324 0.06254,-1.766 0.06514,-2.64831c-0.02247,0.00877 -0.045,0.01742 -0.06759,0.02597c-0.00304,0.87455 -0.00471,1.74865 0.00245,2.62234zM283.49886,178.11703c-0.30906,-0.09901 -0.61966,-0.20117 -0.93253,-0.306c0.3093,0.28203 0.59676,0.58674 0.935,0.85205c-0.00224,-0.1822 -0.00318,-0.36419 -0.00247,-0.54605zM300.58707,179.30931c0.02153,-0.00908 0.04285,-0.0185 0.06397,-0.02825c-0.00407,-0.11215 -0.01215,-0.23554 -0.0215,-0.36611c-0.0136,0.00762 -0.0273,0.01518 -0.04108,0.02267c-0.00046,0.1239 -0.00093,0.2478 -0.00139,0.37168zM286.39653,183.48406c-0.0312,-0.87071 -0.038,-1.73948 0.01263,-2.57689c-0.06577,-0.21948 -0.14104,-0.4399 -0.22838,-0.66378c-0.20598,-0.03635 -0.41197,-0.07418 -0.61738,-0.11425c0.21338,1.00033 0.53918,2.16748 0.83314,3.35492z" fill="#390200" stroke="none" stroke-width="0.5"/><path d="M334.66693,178.58359c0.07236,0.6169 0.06775,1.26594 0.02106,1.92354c0.04086,3.37657 0.08172,6.75314 0.12258,10.1297c0.03417,2.8235 0.63347,6.53072 0.01076,9.39188c0.0005,0.00845 0.00099,0.0169 0.00149,0.02535l0.00082,0.01395l0.02927,0.00002l-0.00029,0.49998c0,0.00001 0,0.00001 0,0.00002c-0.00008,0.138 -0.11198,0.24985 -0.25,0.24985c-0.13373,0 -0.24293,-0.105 -0.24967,-0.23705c-0.10766,-1.83017 -0.24457,-4.15775 -0.35223,-5.98792c-0.19347,-3.28902 -0.38694,-6.57803 -0.58041,-9.86705l-0.01344,-0.02688l0.01152,-0.00576c-0.00245,-0.04166 -0.0049,-0.08332 -0.00735,-0.12498c-1.39891,-2.50858 -1.08323,-6.66202 -3.66312,-8.15413c-0.09353,-0.15084 -0.18684,-0.30529 -0.27964,-0.46289c-0.73724,-0.28052 -1.47614,-0.54776 -2.21903,-0.78652l-0.47035,-0.15192c-0.10329,-0.03072 -0.17861,-0.12639 -0.17861,-0.23966c0,-0.1322 0.10262,-0.24044 0.23254,-0.2494l0.44893,-0.0355l0.00766,0.09685c0.22887,-0.02807 0.468,-0.03614 0.7155,-0.02724c-0.19977,-0.14876 -0.38708,-0.30708 -0.55976,-0.47606l-0.04296,0.05614l-0.39493,-0.30218c-0.06086,-0.0456 -0.10025,-0.1183 -0.10025,-0.2002c0,-0.13807 0.11193,-0.25 0.25,-0.25c0.04198,0 0.08155,0.01035 0.11629,0.02863l0.44271,0.22132c0.00001,0 0.00001,0.00001 0.00002,0.00001c0.22571,0.11277 0.45905,0.22367 0.69798,0.33382c-0.62408,-1.30267 -1.15685,-2.68593 -1.47909,-3.97446l0.00167,-0.01284l-0.00378,0.00055l-0.06532,-0.4467c-0.00215,-0.01318 -0.00326,-0.0267 -0.00326,-0.04049c0,-0.13807 0.11193,-0.25 0.25,-0.25c0.09266,0 0.17355,0.05041 0.21673,0.12531l0.25489,0.42482l-0.03035,0.01821c1.50972,1.73736 2.11724,3.774 3.59983,5.38598c0.13229,0.06258 0.26408,0.12607 0.39509,0.19063c0.4522,0.15884 0.90468,0.32766 1.34979,0.49438c-0.01487,-0.25271 -0.02973,-0.50542 -0.0446,-0.75812c0,0 -0.01468,-0.24957 0.23489,-0.26425c0.24957,-0.01468 0.26425,0.23489 0.26425,0.23489c0.0192,0.32636 0.0384,0.65272 0.05759,0.97908c0.09485,0.03534 0.18922,0.07036 0.28303,0.10495c0.0788,0.02274 0.15762,0.04544 0.23644,0.06814c-0.23162,-0.62238 -0.4567,-1.22449 -0.68126,-1.7859l-0.00304,-0.00761c0,0 -0.09285,-0.23212 0.13927,-0.32497c0.23212,-0.09285 0.32497,0.13927 0.32497,0.13927l0.00304,0.00761c0.29262,0.73154 0.60491,1.4555 0.92474,2.17652c0.42718,0.12495 0.85333,0.253 1.27652,0.3897c-0.21542,-1.13747 -0.33509,-2.2424 -0.18022,-3.21696l-0.00231,-0.01783l-0.06997,-0.00192l0.01268,-0.46283c0.00319,-0.1353 0.11386,-0.244 0.24993,-0.244c0.12835,0 0.23411,0.09672 0.24836,0.22125l0.06383,0.49247c0.02283,0.17615 0.04747,0.35189 0.07364,0.52731c0.05032,0.20953 0.08269,0.43858 0.10678,0.66831c0.02954,0.17425 0.06024,0.34824 0.09184,0.52204l-0.03717,-0.40035c-0.0009,-0.00864 -0.00136,-0.0174 -0.00136,-0.02628c0,-0.13807 0.11193,-0.25 0.25,-0.25c0.12535,0 0.22916,0.09226 0.24722,0.21258l0.08231,0.48898c0.09844,0.58478 0.20043,1.16899 0.30378,1.75296c0.05829,-0.00064 0.11853,-0.00126 0.18137,-0.00126h0.06165c0,0 0.17117,0 0.23024,0.14163c0.45594,0.08672 0.91047,0.17528 1.36445,0.26293c0.37281,-0.02682 0.75855,-0.04194 1.15079,-0.04976v-0.29202c0,-0.13807 0.11193,-0.25 0.25,-0.25c0.13178,0 0.23975,0.10197 0.24931,0.23131l0.02575,0.30424c1.06951,-0.00593 2.16557,0.0271 3.16233,0.01306c0.01299,-1.72898 0.086,-3.46775 0.49191,-5.00231l-0.03461,-0.00229l0.03288,-0.49699c0.00755,-0.13129 0.1164,-0.23542 0.24958,-0.23542c0.11958,0 0.21955,0.08395 0.24418,0.19613l0.11653,0.48093c0.39189,1.61733 0.6921,3.2645 0.91768,4.91332c0.06374,-0.01087 0.12619,-0.02249 0.18726,-0.03491c1.2156,-0.24714 2.43012,-0.3883 3.63315,-0.53855c-0.07985,-1.88305 -0.13532,-3.81979 0.20971,-5.4836c-0.00009,-0.06242 -0.00014,-0.12498 -0.00016,-0.1877v-0.0001h-0.0002l0.00004,-0.5v0c0.00001,-0.13806 0.11194,-0.24998 0.25,-0.24998c0.13804,0 0.24996,0.11188 0.25,0.24992v0.00001l0.00016,0.49999c0.00003,0.07963 0.0001,0.15901 0.00023,0.23815c0.13199,0.52299 0.05897,1.24612 0.01955,1.81524c0.0277,1.18091 0.09236,2.32907 0.23946,3.49252c1.11433,-0.15232 2.21624,-0.33943 3.2973,-0.6544c0.02218,-0.89426 0.09986,-1.76011 0.27308,-2.55882c-0.0037,-0.02456 -0.00743,-0.04913 -0.01117,-0.0737l0.01572,-0.01749l-0.01657,0.00024l-0.00006,-0.00411l-0.00832,-0.00002l0.00121,-0.49992c0,-0.00003 0,-0.00005 0,-0.00008c0.00033,-0.13779 0.11213,-0.24939 0.25,-0.24939c0.13703,0 0.24831,0.11024 0.24998,0.24688l0.00695,0.48649c0.12008,0.77554 0.21683,1.5465 0.29365,2.3163c0.33967,-0.13015 0.67695,-0.27635 1.01156,-0.44162c1.04844,-0.9377 1.82324,-1.48042 2.61391,-2.66527l0.23345,-0.42705c0.04171,-0.07995 0.12538,-0.13453 0.22179,-0.13453c0.13604,0 0.2467,0.10866 0.24993,0.24392l0.01383,0.49895l-0.03783,0.00105c0.21431,1.20081 0.16982,2.45763 0.02098,3.72436c0.50213,-0.61557 0.99829,-1.23257 1.51716,-1.81007c0.19224,-0.23021 0.39804,-0.46005 0.62297,-0.68813l-0.00594,-0.00356l0.25489,-0.42482c0.04318,-0.07489 0.12407,-0.12531 0.21673,-0.12531c0.13807,0 0.25,0.11193 0.25,0.25c0,0.04377 -0.01125,0.08492 -0.03102,0.12071l-0.20586,0.39106l-0.01334,-0.00702l-0.0066,0.03886c-0.04632,0.0464 -0.09188,0.09287 -0.13671,0.13941c-0.16126,0.55392 -0.74524,1.09851 -1.06447,1.52782c-0.41886,0.5633 -0.959,1.20239 -1.56319,1.83784c-0.00375,0.00454 -0.00751,0.00908 -0.01128,0.01362c-0.24127,1.52203 -0.55916,3.03633 -0.68674,4.46318c-0.02553,3.48247 -0.02514,6.96481 -0.02514,10.44737c0,2.33333 0,4.66667 0,7v0.5c0,0.13807 -0.11193,0.25 -0.25,0.25c-0.12076,0 -0.22153,-0.08563 -0.24489,-0.19948l-0.10966,-0.48272l0.07615,-0.0173c-0.78823,-2.2676 -0.33415,-5.79179 -0.19502,-8.38252c-0.05936,-0.02563 -0.10682,-0.0736 -0.13178,-0.13332l-0.20075,-0.45169l0.04835,-0.02149c-0.61014,-1.00063 -0.98781,-2.23597 -1.23903,-3.53584c0.00018,3.0499 0.00053,6.0998 -0.00006,9.1497c0.00929,0.1665 0.01856,0.33292 0.02773,0.49928c0.26198,1.5739 0.44188,3.14152 0.28534,4.4351h0.06147v0.5c0,0.13807 -0.11193,0.25 -0.25,0.25c-0.10439,0 -0.19383,-0.06398 -0.23126,-0.15486l-0.18718,-0.4269l0.01626,-0.00713l-0.03174,-0.04085c-0.00294,-0.15919 -0.00619,-0.31828 -0.00975,-0.47729c-1.09876,-2.22859 -0.78469,-6.89853 -0.98974,-9.03787c-0.33245,-3.4686 -0.12708,-7.03565 -0.12709,-10.51917c0,-0.1632 -0.00053,-0.32606 -0.00162,-0.48863c-0.02002,0.00046 -0.04003,0.00092 -0.06005,0.00139c0,0.64734 0,1.29468 0,1.94203c-0.00309,1.81091 -0.55201,3.71159 -0.93033,5.47758l-0.00627,0.0111l0.00275,0.00088l-0.15093,0.47067c-0.03056,0.10354 -0.12636,0.17911 -0.23981,0.17911c-0.09832,0 -0.18338,-0.05676 -0.22421,-0.13929l-0.22834,-0.43888l0.04325,-0.0225c-1.19514,-1.8971 -1.59436,-4.6778 -1.99629,-7.10883c-0.24643,0.01138 -0.49335,0.01712 -0.74054,0.01743c-0.13296,2.94729 -0.26405,5.91767 -0.75649,8.82635l-0.01585,0.02334l0.00688,0.00279l-0.18602,0.45784c-0.03579,0.09428 -0.12697,0.16128 -0.2338,0.16128c-0.11332,0 -0.20902,-0.07539 -0.2397,-0.17875l-0.15164,-0.47044l0.02488,-0.00802c-0.58444,-1.16498 -0.99167,-2.4604 -1.2674,-3.79418c-0.00741,0.14711 -0.01163,0.27847 -0.01163,0.39113v0.49774c0,0.13807 -0.11193,0.25 -0.25,0.25c-0.13807,0 -0.25,-0.11193 -0.25,-0.25v-0.35632c-0.25063,-1.86802 -0.59589,-3.72288 -0.92395,-5.5807c-0.33666,0.00571 -0.67364,0.00885 -1.011,0.00885c-0.21186,-0.00112 -0.42722,-0.01151 -0.64555,-0.03022c-0.01613,0.24448 -0.03324,0.48893 -0.05155,0.73334c-0.19483,2.60064 -0.43026,5.21334 -0.54132,7.82442c0.05211,0.81283 0.11035,1.6254 0.17804,2.43765c0.23684,2.84211 1.01079,6.49965 0.78045,9.41695l0.0299,-0.00374l0.06153,0.49223c0.00159,0.01141 0.00242,0.02307 0.00242,0.03492c0,0.13807 -0.11193,0.25 -0.25,0.25c-0.10229,0 -0.19023,-0.06143 -0.22894,-0.14941l-0.19613,-0.42051c-1.29709,-2.79364 -0.95073,-6.40607 -0.94085,-9.42221c0.00287,-0.87606 0.02593,-1.75281 0.06298,-2.62974c-0.04772,-0.74633 -0.09032,-1.49288 -0.13037,-2.23957c-0.00108,0.08813 -0.00164,0.17544 -0.00164,0.2619c0,0.33333 0,0.66667 0,1v0.43156c0,0.13807 -0.11193,0.25 -0.25,0.25c-0.11898,0 -0.21854,-0.08311 -0.2438,-0.19444l-0.12,-0.48l0.02973,-0.00743c-1.03463,-2.10737 -1.56064,-4.81306 -1.86377,-7.25987c-0.04255,1.87159 -0.18893,3.6963 -0.53214,5.56486c-0.00586,0.49217 -0.01257,0.98417 -0.01383,1.47639l-0.00128,0.49992c0,0.00003 0,0.00005 0,0.00008c-0.00035,0.13778 -0.11214,0.24936 -0.25,0.24936c-0.11737,0 -0.21585,-0.08089 -0.24274,-0.18996l-0.12912,-0.47743l0.03142,-0.0085c-1.18647,-2.34539 -1.80845,-5.62124 -2.27624,-8.26402c0.02563,0.19482 0.04908,0.39013 0.06996,0.58599c0.36911,3.46247 0.31486,6.94968 0.71232,10.40157c0.13247,1.15046 0.19861,2.33593 0.29237,3.51409c0.02161,0.11814 0.04371,0.23611 0.06633,0.35389c0.3454,1.79888 0.69213,3.58091 1.18648,5.34602l0.13329,0.47593c0.00703,0.02308 0.01082,0.04758 0.01082,0.07296c0,0.13807 -0.11193,0.25 -0.25,0.25c-0.10654,0 -0.19752,-0.06665 -0.23351,-0.16052l-0.1875,-0.45724l0.05238,-0.02148l-0.00519,-0.01855c-1.01646,-1.69262 -1.22891,-4.0533 -1.35469,-6.25894c-0.53826,-3.15193 -0.75293,-6.4133 -1.03328,-9.58769c-0.06664,-0.75454 -0.15267,-1.59981 -0.23328,-2.4878c-0.77107,-1.21437 -1.40651,-2.67039 -1.9767,-4.12906c0.00004,0.13077 0.00047,0.26153 0.00119,0.39228zM334.3205,191.51456c-0.00308,-0.29055 -0.00638,-0.58111 -0.00989,-0.87168c-0.02678,-2.2126 -0.05355,-4.4252 -0.08033,-6.63781c-0.03157,0.22714 -0.06027,0.4496 -0.08433,0.66619l-0.04307,0.38773c-0.00902,0.09233 -0.06826,0.16993 -0.15005,0.20513c0.12256,2.08348 0.24511,4.16695 0.36767,6.25043zM333.73623,181.58138c0.03709,-1.25925 0.13027,-2.54771 0.4297,-3.26047c-0.00011,-0.05063 -0.00017,-0.10127 -0.00017,-0.1519v-0.39612c-0.22297,-0.0808 -0.44565,-0.16332 -0.6681,-0.24715c0.07952,1.35188 0.15904,2.70376 0.23857,4.05564zM333.23026,181.49503c-0.08166,-1.38822 -0.16332,-2.77643 -0.24498,-4.16465c-0.83397,-0.32136 -1.66538,-0.65667 -2.49757,-0.98396c0.99059,0.90814 2.08412,3.13093 2.74255,5.14861zM329.55764,174.48011c-0.25269,-0.26663 -0.49646,-0.54264 -0.72533,-0.82458c0.10327,0.21689 0.20882,0.43186 0.31596,0.64425c0.13551,0.05994 0.27207,0.11999 0.40937,0.18033zM336.54155,175.5004c0.00351,-0.02584 0.00708,-0.0516 0.01073,-0.07727l-0.02456,0.00228c0.00459,0.025 0.0092,0.04999 0.01382,0.07499zM343.79065,195.83406c0.00191,1.33083 0.07203,2.67497 0.35375,3.92375c-0.00507,-0.04334 -0.01061,-0.08524 -0.0168,-0.12547c-0.19351,-1.25873 -0.27552,-2.52731 -0.33695,-3.79828zM344.69968,177.45176c0.29896,-0.0127 0.58508,-0.0321 0.85438,-0.0609c-0.15955,-1.16621 -0.35677,-2.33159 -0.59789,-3.48595c-0.04458,0.35878 -0.10192,0.70349 -0.11871,0.97206c-0.05363,0.85811 -0.09642,1.71646 -0.13778,2.57479zM346.5232,178.91901c-0.06813,-0.00004 -0.13617,-0.0004 -0.20414,-0.00107c0.05162,0.26382 0.10625,0.52977 0.16268,0.79734c0.18489,0.02536 0.36946,0.05025 0.55379,0.0746c0.01465,-0.09891 0.03074,-0.19698 0.04837,-0.29411c-0.00004,-0.08108 -0.00006,-0.16217 -0.00008,-0.24325v-0.00004h-0.00009v-0.33716c-0.18748,0.00254 -0.37439,0.00369 -0.56053,0.00369zM350.66682,178.63201c-0.05099,0.00839 -0.10204,0.01656 -0.15313,0.0245c-0.01464,0.49952 -0.0322,0.99925 -0.05316,1.49946c0.17543,0.01305 0.35117,0.02507 0.52729,0.03597c-0.07132,-0.39488 -0.14591,-0.77464 -0.22774,-1.13313c-0.03261,-0.14287 -0.06368,-0.28511 -0.09326,-0.42679zM355.67864,180.66307c-0.07846,0.04216 -0.15629,0.08208 -0.23338,0.1196c0.00108,0.16636 0.00161,0.33301 0.00161,0.49998c0.00002,3.46738 -0.20609,7.01897 0.12481,10.47147c0.06077,0.63406 0.17578,1.34614 0.31107,2.1005c-0.00015,-2.69511 0.00018,-5.39021 0.00009,-8.08532c-0.00003,-0.97528 -0.00323,-1.95041 -0.0088,-2.92551c-0.04419,-0.53886 -0.08637,-1.05473 -0.13528,-1.53355c-0.02208,-0.21618 -0.04205,-0.43185 -0.06012,-0.64717zM358.72431,173.46946c0.00489,-0.0033 0.00979,-0.0066 0.01469,-0.0099l0.01029,-0.02058c-0.00832,0.0102 -0.01665,0.02036 -0.02498,0.03048zM349.93183,178.23863c-0.01181,-0.32712 -0.02604,-0.65873 -0.04055,-0.99297c-1.1762,0.14799 -2.36384,0.2905 -3.55493,0.53266c-0.07068,0.01437 -0.14184,0.02868 -0.21347,0.04293c0.0313,0.19704 0.06536,0.39574 0.10165,0.59588c0.0994,0.00131 0.19896,0.00194 0.2987,0.00188c1.11816,0 2.27139,-0.03864 3.40861,-0.18038zM345.99435,180.65709c-0.478,-0.09956 -0.95978,-0.19482 -1.44343,-0.28957c-0.00537,0.09172 -0.01085,0.18343 -0.01644,0.27514c0.20823,0.01623 0.41318,0.02419 0.6143,0.02296c0.2818,0 0.56366,-0.00302 0.84556,-0.00852zM336.12169,177.93032c-0.3224,-0.15614 -0.66504,-0.30382 -1.02109,-0.44678c0.01574,0.03491 0.03148,0.06982 0.04722,0.10473c0.05472,0.01848 0.10947,0.03683 0.16424,0.05504c0.26189,0.08727 0.53224,0.18374 0.80963,0.28702zM356.07215,176.36936c0.29277,0.89049 0.42957,1.89217 0.48037,2.93365c0.00979,-0.00491 0.01955,-0.00984 0.02928,-0.01477c0.35106,-0.30171 0.66417,-0.66018 0.94068,-1.0547c0.02497,-1.12202 0.1372,-2.20254 0.41986,-3.15267v-0.00113l-0.04986,-0.00513l0.03646,-0.35437c-0.48467,0.40781 -0.95245,0.83231 -1.42817,1.27567c-0.14014,0.13004 -0.28307,0.25444 -0.42862,0.37344zM358.8878,173.95645c-0.19092,0.14316 -0.37735,0.28841 -0.56056,0.43586c0.06924,0.04446 0.11511,0.12213 0.11511,0.21052c0,0.46514 0,1.43028 0,1.89543c0.18298,-0.45972 0.33033,-0.92784 0.44348,-1.3828c0.10055,-0.40434 -0.03675,-0.78889 0.00198,-1.159zM358.44234,179.9199c0.08263,-0.51416 0.17143,-1.02736 0.25687,-1.54055c-0.08305,0.0816 -0.16855,0.16208 -0.25687,0.24135c0,0.32738 0,0.65475 0,0.98213c0,0.10569 0,0.21138 0,0.31707zM357.52384,179.38149c-0.31575,0.26147 -0.63373,0.50575 -0.94808,0.72466c0.01155,1.06131 -0.0456,2.14439 -0.10063,3.177c0.21844,1.62537 0.49844,3.2232 0.84936,4.85247c0.07694,0.35725 0.27301,0.85277 0.43064,1.34086c0,-1.62722 0,-3.25444 0.00002,-4.88165c0.00002,-1.52178 -0.19196,-3.38235 -0.23131,-5.21333zM354.3201,180.81087c-0.2015,0.00622 -0.40294,0.01316 -0.60434,0.02071c-0.61211,0.13599 -1.23226,0.2307 -1.85688,0.28755c0.6888,2.20216 1.57615,4.72349 1.6758,6.67776c0.36319,-1.63924 0.85363,-3.39361 0.85054,-5.05944c0,-0.60618 -0.02782,-1.25428 -0.06512,-1.92657zM351.58661,180.22448c0.78606,0.03667 1.5814,0.04946 2.3929,0.03114c0.10141,-0.02561 0.20257,-0.05243 0.30346,-0.08048c-0.05114,-0.84626 -0.10803,-1.72094 -0.13619,-2.59072c-0.94553,0.45173 -1.95301,0.75638 -2.98769,0.95902c0.02811,0.13415 0.05757,0.26883 0.08845,0.4041c0.09122,0.39961 0.20747,0.82815 0.33907,1.27695zM349.25,189.40846c0.40954,-2.71971 0.53924,-5.48278 0.66419,-8.23047c-0.47103,-0.01317 -0.94249,-0.04552 -1.41291,-0.0956c-0.21381,0.00932 -0.4277,0.01812 -0.64167,0.02627c0.03618,0.9705 -0.03598,2.11026 -0.11555,3.13022c0.08173,0.65436 0.20554,1.29384 0.39314,1.89187c0.25591,0.81579 0.9603,2.21532 1.11281,3.27771zM347.58388,179.40403c0.0568,0.13848 0.10354,0.29785 0.14157,0.47431c0.74371,0.09226 1.48547,0.17349 2.23137,0.23731c0.00913,-0.44433 0.00382,-0.90636 -0.00909,-1.38018c-0.78514,0.09749 -1.57796,0.14775 -2.36395,0.1696l0.00006,0.34738c0.00001,0.05053 0.00002,0.10106 0.00004,0.15159zM343.99604,181.07811c-0.15307,-0.02126 -0.30735,-0.04611 -0.46268,-0.07423c0.00943,0.47947 0.00353,0.96674 -0.01165,1.45586c0.05464,0.98723 0.10378,1.97444 0.15336,2.96148c0.09058,-1.19826 0.18853,-2.3953 0.27802,-3.58983c0.01846,-0.24641 0.03241,-0.49779 0.04295,-0.75328zM342.77775,187.04236c0,-2.06602 0,-4.13203 0,-6.19805c-0.51297,-0.12272 -1.03407,-0.27466 -1.55751,-0.44527c0.24104,1.97185 0.68045,3.87846 1.25291,5.79024c0.07135,0.23828 0.18976,0.53594 0.30459,0.85307zM339.80139,186.97083c0.3909,-2.17848 0.16558,-4.65539 0.28657,-6.96544c-0.80524,-0.29517 -1.60617,-0.61647 -2.38176,-0.92551c0.01268,0.07145 0.02535,0.1429 0.03799,0.21436c0.4079,2.30497 1.13618,4.48962 1.74657,6.74658c0.06917,0.25577 0.19319,0.58325 0.31062,0.93002zM336.50202,180.59223c-0.03341,-0.4836 -0.06101,-0.97058 -0.07924,-1.45403c-0.04466,-0.19271 -0.09,-0.38635 -0.13515,-0.58046c-0.03919,-0.0151 -0.07361,-0.03979 -0.1004,-0.07119c-0.25801,-0.09704 -0.51113,-0.18937 -0.75843,-0.2753c0.28507,0.63285 0.56832,1.26637 0.84148,1.90374c0.06075,0.14176 0.14219,0.30343 0.23174,0.47724zM331.19372,176.09341c0.08957,0.03548 0.17914,0.07098 0.26871,0.10649c-0.01494,-0.0115 -0.0299,-0.02306 -0.04487,-0.03467c-0.07463,-0.02395 -0.14925,-0.0479 -0.22384,-0.07182zM344.0123,180.5861c0.00273,-0.10695 0.00501,-0.21451 0.0069,-0.32261c-0.17321,-0.03391 -0.34657,-0.06793 -0.51999,-0.10223c0.00726,0.11433 0.01338,0.22934 0.01847,0.34494c0.16637,0.03074 0.33132,0.05752 0.49462,0.0799zM344.02776,179.36425c0.00065,-0.19143 0.00079,-0.384 0.00081,-0.57739c-0.23265,-0.02335 -0.4647,-0.04938 -0.69625,-0.07774c0.03273,0.18608 0.06086,0.37536 0.08487,0.56738c0.20332,0.02907 0.40683,0.05828 0.61057,0.08775zM345.89717,179.63387c-0.04043,-0.24243 -0.08006,-0.48498 -0.11862,-0.72769c-0.38415,-0.01285 -0.76602,-0.03503 -1.14606,-0.06506c-0.01003,0.20218 -0.02026,0.40435 -0.03082,0.60651c0.43486,0.06318 0.86632,0.12566 1.29551,0.18624zM345.7004,178.40409c-0.02471,-0.16227 -0.04886,-0.32462 -0.0724,-0.48706c-0.31277,0.05887 -0.63296,0.11592 -0.95882,0.17012c-0.00411,0.08549 -0.00822,0.17097 -0.01236,0.25646c0.3462,0.02722 0.69394,0.04776 1.04357,0.06048zM348.36522,180.56433c0.2182,-0.01172 0.43639,-0.02401 0.65455,-0.03663c-0.40424,-0.04174 -0.80798,-0.0878 -1.21219,-0.13716c0.00386,0.03353 0.00752,0.06743 0.01098,0.10169c0.18196,0.02668 0.36421,0.05075 0.54665,0.07211zM350.57089,178.14738c-0.01305,-0.06973 -0.02576,-0.13935 -0.03813,-0.20886c-0.00172,0.07194 -0.00349,0.14388 -0.00533,0.21583c0.01449,-0.00231 0.02898,-0.00463 0.04346,-0.00697zM354.93493,179.97527c-0.00988,-0.52718 -0.02615,-1.05179 -0.04971,-1.57499c0,0.53052 0,1.06105 0,1.59157c0.01658,-0.00549 0.03315,-0.01102 0.04971,-0.01658zM355.23882,176.12994c0.00693,0.07822 0.01365,0.15643 0.02019,0.23465c0.08413,-0.05954 0.16745,-0.12077 0.24992,-0.18373l-0.00013,-0.1547c-0.08984,0.03572 -0.17983,0.07029 -0.26998,0.10378zM355.30318,176.9338c0.06822,0.95095 0.10902,1.90311 0.12885,2.86294c0.05989,-0.02294 0.11966,-0.04636 0.1793,-0.07026c-0.05905,-0.97683 -0.0849,-1.95066 -0.09719,-2.93552c-0.06982,0.04869 -0.14015,0.09629 -0.21096,0.14284zM337.45822,177.68843c0.00447,0.02509 0.00894,0.05018 0.01341,0.07527c0.05652,-0.01409 0.11381,-0.02755 0.17184,-0.04042c-0.06172,-0.01165 -0.12347,-0.02327 -0.18525,-0.03484zM340.12035,179.50232c0.00246,-0.03184 0.00501,-0.06363 0.00764,-0.09539c-0.27634,-0.07354 -0.55135,-0.1508 -0.82464,-0.2325c-0.02199,-0.00355 -0.04398,-0.00711 -0.06597,-0.01068c0.29288,0.11499 0.58761,0.22853 0.88297,0.33857zM346.60146,180.2746c0.12204,0.0257 0.24431,0.05029 0.36678,0.07374c0.00202,-0.02129 0.0041,-0.04255 0.00623,-0.06378c-0.12718,-0.01676 -0.25446,-0.03378 -0.38189,-0.05103c0.00296,0.01368 0.00592,0.02737 0.00888,0.04106zM358.44234,177.69559c0.15066,-0.17041 0.29918,-0.34332 0.44622,-0.51774c0.03853,-0.266 0.07417,-0.5322 0.1056,-0.79872c-0.14359,0.44515 -0.32918,0.8814 -0.55182,1.2956c0,0.00695 0,0.0139 0,0.02086zM354.12904,176.48899c-1.05832,0.29593 -2.13502,0.47589 -3.22364,0.6248c0.04589,0.31347 0.09817,0.62853 0.15771,0.9461c1.06814,-0.20749 2.10625,-0.52814 3.07011,-1.01774c-0.00314,-0.18503 -0.00465,-0.36953 -0.00418,-0.55315zM344.02865,178.18872c-0.12859,0.01937 -0.25786,0.03821 -0.38771,0.05647c0.12904,0.01473 0.25825,0.02868 0.38764,0.04179c0.00002,-0.03274 0.00004,-0.06549 0.00007,-0.09826zM346.90514,181.67495c0.00144,-0.17943 0.00524,-0.35796 0.01189,-0.53515c-0.04217,0.00116 -0.08434,0.00229 -0.12652,0.00338c0.03846,0.177 0.07678,0.3543 0.11463,0.53177zM340.1889,178.80684c0.01051,-0.0864 0.0218,-0.17244 0.0339,-0.25807c-0.42641,0.01218 -0.84981,0.01296 -1.26685,0.00038c0.13539,0.04384 0.2713,0.08642 0.40769,0.12782c0.27504,0.04444 0.55011,0.08763 0.82526,0.12987zM341.16075,179.87193c0.53872,0.18072 1.07483,0.3418 1.60099,0.47085c-0.00701,-0.10628 -0.01554,-0.2186 -0.02393,-0.3345c-0.53424,-0.10941 -1.06783,-0.22393 -1.59821,-0.34864c0.00679,0.07086 0.01384,0.14162 0.02116,0.21229zM341.01723,178.51354c0.01794,0.14157 0.03479,0.28328 0.0506,0.42534c0.5439,0.08015 1.08845,0.1579 1.63419,0.23565c0.00169,-0.18934 0.01333,-0.37343 0.0415,-0.54249c-0.36118,-0.0502 -0.72137,-0.1054 -1.08096,-0.16429c-0.21506,0.01765 -0.43031,0.03299 -0.64533,0.04578z" fill="#390200" stroke="none" stroke-width="0.5"/><g fill="#000000" stroke="#000000" stroke-width="2"><path d="M346.73118,179.21192c-12.96801,0 -23.48065,-10.51265 -23.48065,-23.48066c0,-12.96801 10.51264,-23.48065 23.48065,-23.48065c12.96801,0 23.48066,10.51264 23.48066,23.48065c0,12.96801 -10.51265,23.48066 -23.48066,23.48066z"/></g><g fill="#000000" stroke="#000000" stroke-width="2"><path d="M268.99199,155.73124c0,-12.96801 10.51265,-23.48065 23.48066,-23.48065c12.96801,0 23.48065,10.51264 23.48065,23.48065c0,12.96801 -10.51264,23.48066 -23.48065,23.48066c-12.96801,0 -23.48066,-10.51265 -23.48066,-23.48066z"/></g><g><path d="M335.93481,174.16278c1.27375,1.19169 0.1222,4.49228 -2.57206,7.37206c-2.69426,2.87979 -7.18472,3.05657 -7.18472,3.05657c0,0 -0.1222,-4.49228 2.57206,-7.37207c2.69426,-2.87979 5.91097,-4.24826 7.18472,-3.05657z" fill="#0f0f0f" stroke="#000000" stroke-width="2"/><path d="M330.70408,177.12137c-0.06775,0.03486 -0.13635,0.06849 -0.20588,0.10075c-0.00322,0.00233 -0.00644,0.00465 -0.00967,0.00697l0.04052,0.04052l-0.27243,0.27243c-0.04524,0.04524 -0.10774,0.07322 -0.17678,0.07322c-0.13807,0 -0.25,-0.11193 -0.25,-0.25c0,-0.04199 0.01035,-0.08156 0.02864,-0.1163l0.13396,-0.26793l0.03359,0.01679l0.01324,-0.08177c0.11839,-0.06424 0.2345,-0.12974 0.34874,-0.19644c0.47889,-0.68091 1.85193,-1.66741 2.3043,-1.8936l0.26793,-0.13396c0.03474,-0.01829 0.07431,-0.02864 0.1163,-0.02864c0.13807,0 0.25,0.11193 0.25,0.25c0,0.04199 -0.01035,0.08156 -0.02864,0.1163l-0.13396,0.26793l-0.07425,-0.03713c-0.05569,0.11218 -0.12131,0.2125 -0.19401,0.30447c-0.03134,0.05846 -0.07777,0.09328 -0.07777,0.09328c-0.00073,0.00055 -0.00147,0.0011 -0.0022,0.00165c-0.42096,0.4705 -1.02194,0.73108 -1.34614,1.34936l-0.49339,0.18452c0,0 -0.17226,0.05742 -0.27211,-0.07242z" fill="#ffffff" stroke="none" stroke-width="0.5"/></g></g><path d="M269.25073,180.819c0,0 31.99447,18.41763 49.42623,18.57957c15.37582,0.14284 53.3719,-16.84678 53.3719,-16.84678l2.20271,0.99782c0,0 -31.783,33.65036 -55.66085,33.50946c-23.87785,-0.1409 -51.15723,-35.44145 -51.15723,-35.44145z" fill="#000000" stroke="#000000" stroke-width="2" stroke-linecap="butt"/></g></g></svg>