<svg version="1.1" xmlns="http://www.w3.org/2000/svg" xmlns:xlink="http://www.w3.org/1999/xlink" width="213.18203" height="310.11666" viewBox="0,0,213.18203,310.11666"><defs><linearGradient x1="318.60651" y1="-3.50414" x2="318.60651" y2="199.27076" gradientUnits="userSpaceOnUse" id="color-1"><stop offset="0" stop-color="#3e2119"/><stop offset="1" stop-color="#3a1f18"/></linearGradient></defs><g transform="translate(-214.52362,3.50414)"><g stroke-miterlimit="10"><g stroke-linecap="butt"><g><g stroke="none" stroke-width="0.5"><path d="M337.14149,287.30814c-2.64851,0.54601 -5.311,-2.27893 -6.26059,-5.01064c-0.6981,1.12773 -1.84074,1.97709 -3.24226,2.26602c-0.44595,0.09194 -0.89027,0.12139 -1.32387,0.09435c-0.15764,0.37575 -0.33214,0.74708 -0.52672,1.10325c1.20117,1.14796 1.96769,2.62285 1.61273,4.13774c0.27448,0.88751 0.39008,1.84494 0.32614,2.77535c0.05334,0.21551 0.10124,0.43972 0.14333,0.67279c0.10636,0.58895 0.09255,1.16619 -0.01818,1.71876c-0.20777,2.01342 -1.63362,3.76107 -3.66393,4.31058c-2.28915,1.03243 -4.92126,0.62589 -5.70728,-2.44103c-0.22801,-0.42082 -0.39897,-0.88174 -0.5006,-1.3747c-0.1114,-0.54039 -0.13106,-1.07837 -0.06963,-1.59779c-0.59716,-0.99441 -0.96485,-2.04345 -0.97324,-2.94529l-0.66405,-1.45501c0.04675,-0.07103 0.09243,-0.14401 0.13713,-0.21871c-1.95846,-2.20724 -2.99291,-5.68464 -1.10914,-6.85861c0.21236,-0.39353 0.47676,-0.75787 0.78611,-1.08223c0.05565,-0.20208 0.12383,-0.39981 0.20382,-0.59212c0.04352,-0.3271 0.08873,-0.65327 0.13318,-0.98003c-0.01269,-0.03715 -0.02497,-0.07453 -0.03684,-0.11213c-1.75655,-1.97725 -3.25927,-4.98365 -1.79155,-6.27733c0.15231,-0.44487 0.36633,-0.86506 0.63393,-1.24824c-0.54047,-0.94841 -0.96901,-1.96128 -1.18166,-2.89237c-0.16172,-0.11237 -0.31723,-0.25132 -0.46511,-0.4191c-1.61897,-0.55429 -2.91114,-1.92583 -3.28167,-3.72316c-0.20929,-1.01518 -0.09479,-2.02189 0.27294,-2.91294c-0.00053,0.00011 -0.00106,0.00022 -0.00158,0.00033c-1.35227,0.27878 -2.67451,-0.59146 -2.95329,-1.94373c-0.03798,-0.18423 -0.05464,-0.3679 -0.05165,-0.54845c-0.67666,-0.32699 -1.19887,-0.95418 -1.36233,-1.74708c-0.27878,-1.35227 0.59146,-2.67451 1.94373,-2.95329c1.16581,-0.24034 2.30929,0.37331 2.7811,1.41358c0.27123,-0.82169 0.96206,-1.47971 1.87036,-1.66696c0.11487,-0.02368 0.22954,-0.03907 0.34336,-0.04658c0.33229,-0.65649 0.94994,-1.16078 1.72658,-1.32089c0.457,-0.09421 0.91055,-0.0572 1.32158,0.08529c0.26695,-0.83023 0.96128,-1.49667 1.87634,-1.68532c0.11482,-0.02367 0.22942,-0.03906 0.34318,-0.04657c0.10746,-0.03809 0.2188,-0.06928 0.33361,-0.09295c0.32249,-0.06648 0.64327,-0.06762 0.94859,-0.01246c0.33344,-0.33318 0.7647,-0.57593 1.26087,-0.67822c0.31868,-0.0657 0.6357,-0.06759 0.93777,-0.01438c0.25641,-0.16834 0.54832,-0.29199 0.867,-0.35768c0.24071,-0.04962 0.48047,-0.06285 0.71355,-0.04342c0.34835,-0.56981 0.92278,-0.99948 1.62849,-1.14497c0.42397,-0.08741 0.845,-0.06186 1.23184,0.05607c0.35016,-0.55333 0.91592,-0.96922 1.60791,-1.11187c0.1941,-0.04001 0.38758,-0.05636 0.57745,-0.051c0.04401,-0.02044 0.08879,-0.03967 0.13432,-0.05765c0.70314,-0.8815 1.70697,-1.53146 2.89765,-1.77693c0.23648,-0.04875 0.4725,-0.07994 0.70671,-0.09444c0.11272,-0.1575 0.24294,-0.30341 0.39449,-0.43517c1.16359,-1.01174 2.84942,-1.77702 4.53957,-1.98389c0.13599,-0.16532 0.29346,-0.31368 0.46929,-0.44036c0.35322,-0.50199 0.89093,-0.87574 1.53953,-1.00946c0.81532,-0.16808 1.61973,0.08153 2.1911,0.60265c0.21437,-0.11805 0.44985,-0.20635 0.70211,-0.25835c0.53435,-0.11016 1.064,-0.04091 1.52645,0.1666c0.02165,-0.01637 0.0436,-0.03239 0.06583,-0.04808c0.3383,-0.63029 0.94327,-1.11161 1.69867,-1.26734c0.15414,-0.03178 0.30788,-0.04863 0.45974,-0.05153c0.14063,-0.05739 0.2885,-0.10273 0.44264,-0.1345c0.53705,-0.11072 1.06937,-0.04021 1.53346,0.16975c0.07263,0.00431 0.14519,0.00993 0.21764,0.01685c0.34906,-0.41492 0.835,-0.71976 1.40727,-0.83774c0.87655,-0.18071 1.74047,0.12137 2.31576,0.72457c0.29276,-0.22763 0.64088,-0.39335 1.02862,-0.47329c1.35227,-0.27878 2.67451,0.59146 2.95329,1.94373c0.17506,0.84915 -0.10296,1.68646 -0.66891,2.261c-0.05888,0.14475 -0.13108,0.28347 -0.21544,0.41433c0.23469,0.4274 0.41034,0.89664 0.51394,1.39917c0.32854,1.59363 -0.14082,3.1664 -1.13515,4.30365c-0.02577,0.0378 -0.05248,0.07497 -0.08021,0.11147c0.02555,0.09529 0.04847,0.19192 0.06865,0.2898c0.55756,2.70455 -1.18292,5.34901 -3.88746,5.90657c-0.17441,0.03596 -0.34858,0.06236 -0.52195,0.07956c-0.73075,0.40969 -2.25802,1.1314 -3.91741,1.8604c-1.00977,2.94683 -3.24692,6.12227 -5.81494,6.37881c-0.03217,0.99014 -0.35934,1.93027 -0.91142,2.71393c0.99698,1.35173 1.4487,3.23389 1.22932,4.97373c0.978,1.67721 1.18594,3.99527 0.57982,5.93429c0.68124,3.02782 -0.53892,6.9104 -3.84041,7.59103z" fill="#c1788e"/><path d="M323.55948,259.13956c0.3093,0.39285 -0.08355,0.70215 -0.08355,0.70215l-0.29633,0.20064c-0.61572,2.80032 -5.50596,3.62121 -6.94142,1.23147c0,0 -0.25063,-0.43265 0.18202,-0.68327c0.43264,-0.25064 0.68327,0.18202 0.68327,0.18202c1.11943,2.0333 4.67875,0.58512 5.24081,-1.27998l0.51305,-0.43658c0,0 0.39285,-0.3093 0.70215,0.08356z" fill-opacity="0.12157" fill="#59434a"/><path d="M333.74838,253.88308c-0.00297,-0.14632 0.03985,-0.42704 0.39721,-0.50071c0.4897,-0.10096 0.59066,0.38875 0.59066,0.38875l-0.13389,0.7194c-1.41132,1.11115 -3.39553,1.92064 -5.16453,2.29453c0,0 -0.4897,0.10096 -0.59066,-0.38875c-0.10096,-0.4897 0.38875,-0.59066 0.38875,-0.59066c1.53321,-0.30659 3.23652,-0.99235 4.51246,-1.92256z" fill-opacity="0.12157" fill="#59434a"/><path d="M349.57219,249.30146c0.10096,0.4897 -0.38875,0.59066 -0.38875,0.59066l-0.24286,-0.00383c-1.68317,1.31896 -4.20861,2.09031 -6.29251,2.52706c0,0 -0.4897,0.10096 -0.59066,-0.38875c-0.10096,-0.4897 0.38875,-0.59066 0.38875,-0.59066c1.92726,-0.38971 4.32686,-1.10726 5.87583,-2.33337l0.65954,-0.18987c0,0 0.4897,-0.10096 0.59066,0.38875z" fill-opacity="0.12157" fill="#59434a"/><path d="M345.69959,259.03686c0.10096,0.4897 -0.38875,0.59066 -0.38875,0.59066l-0.45526,0.03996c-0.76972,-0.20505 -1.49627,-0.50682 -2.2629,-0.70941c0,0 -0.48316,-0.12871 -0.35445,-0.61185c0.12871,-0.48315 0.61185,-0.35445 0.61185,-0.35445c0.76716,0.20581 1.49285,0.50427 2.26291,0.7094l-0.00407,-0.05306c0,0 0.4897,-0.10096 0.59066,0.38875z" fill-opacity="0.12157" fill="#59434a"/><path d="M339.02087,261.12616c0.3093,0.39286 -0.08355,0.70215 -0.08355,0.70215l-0.50322,0.37916c-1.66973,0.36675 -4.74046,1.6928 -5.39844,-0.32467c0,0 -0.10096,-0.4897 0.38875,-0.59066c0.4897,-0.10096 0.59066,0.38875 0.59066,0.38875c-0.06689,0.73389 3.23686,-0.23652 3.9975,-0.38023l0.30615,-0.25806c0,0 0.39285,-0.3093 0.70215,0.08356z" fill-opacity="0.12157" fill="#59434a"/><path d="M322.93936,273.37162c-0.10096,-0.4897 0.38875,-0.59066 0.38875,-0.59066l-0.0263,0.08894c2.03497,-2.02513 2.0128,-3.93133 1.45508,-6.6532l-0.18706,0.03856c-1.90623,0.39298 -3.80418,0.54907 -5.68643,0.93711c0,0 -0.4897,0.10096 -0.59066,-0.38875c-0.10096,-0.4897 0.38875,-0.59066 0.38875,-0.59066c1.88533,-0.38867 3.77871,-0.54382 5.68643,-0.93711l0.2256,-0.04651c0,0 0.46368,-0.09559 0.58167,0.35045c0.00009,0.00033 0.00017,0.00065 0.00026,0.00098c0.45721,-0.06887 0.55293,0.39549 0.55293,0.39549c0.63256,3.06833 0.57797,5.31009 -1.72085,7.60212l-0.4775,0.18196c0,0 -0.4897,0.10096 -0.59066,-0.38875z" fill-opacity="0.12157" fill="#59434a"/><path d="M324.86703,286.14457c-0.10096,-0.4897 0.38875,-0.59066 0.38875,-0.59066l0.24285,0.00382c1.6011,-1.22251 0.30043,-4.01862 -0.03604,-5.65076c-0.09928,-0.48155 -0.17385,-2.24502 -0.64829,-2.23195c0,0 -0.48316,-0.1287 -0.35445,-0.61185c0.12871,-0.48316 0.61185,-0.35445 0.61185,-0.35445c1.23544,0.45944 1.12336,1.79852 1.3703,2.99634c0.44659,2.16628 1.723,4.98985 -0.32477,6.63838l-0.65954,0.18987c0,0 -0.4897,0.10096 -0.59066,-0.38875z" fill-opacity="0.12157" fill="#59434a"/><path d="M330.31645,273.95351c0.4965,0.05909 0.43741,0.55558 0.43741,0.55558l-0.09151,0.75835c-0.56285,2.11292 0.19318,4.17096 0.62409,6.26115c0,0 0.10096,0.4897 -0.38875,0.59066c-0.4897,0.10096 -0.59066,-0.38875 -0.59066,-0.38875c-0.45828,-2.22297 -1.22667,-4.39944 -0.62681,-6.65132l0.08064,-0.68825c0,0 0.05909,-0.4965 0.55557,-0.43742z" fill-opacity="0.12157" fill="#59434a"/><path d="M332.2887,267.22462c0.48316,0.12871 0.35445,0.61185 0.35445,0.61185l-0.15943,0.57343c-0.38018,0.58514 -1.06114,1.43042 -1.18026,2.0546c0,0 -0.1287,0.48315 -0.61185,0.35445c-0.48316,-0.12871 -0.35444,-0.61186 -0.35444,-0.61186c0.23437,-0.76186 0.77538,-1.51903 1.23397,-2.20606l0.10573,-0.42198c0,0 0.1287,-0.48315 0.61186,-0.35444z" fill-opacity="0.12157" fill="#59434a"/><path d="M323.29575,283.12429c0.35864,0.34839 0.01024,0.70703 0.01024,0.70703l-0.67618,0.69586c-1.20743,1.34949 -2.89393,1.84997 -4.69772,1.64991c0,0 -0.4965,-0.05909 -0.43742,-0.55557c0.05909,-0.4965 0.55558,-0.43742 0.55558,-0.43742c1.47537,0.19049 2.87924,-0.22806 3.84613,-1.3367l0.69234,-0.71288c0,0 0.34839,-0.35864 0.70703,-0.01024z" fill-opacity="0.12157" fill="#59434a"/></g><path d="M301.76676,197.85594l36.97318,-7.78349l18.8973,52.93355c0,0 -8.46986,-2.11348 -10.81067,0.77071c-1.61383,1.98845 -2.321,7.95878 -2.321,7.95878c0,0 -4.32321,-3.87211 -6.42118,-5.30125c-3.24899,-2.21324 -5.84441,4.57362 -6.36289,6.98173c-0.50785,2.35875 -1.20153,8.14834 -1.20153,8.14834c0,0 -1.54278,-4.03162 -3.12413,-5.84352c-2.35183,-2.6947 -6.20241,-5.02106 -9.19773,-2.56494c-2.96396,2.43041 -3.71792,5.70194 -4.94587,9.16085c-0.80494,2.26741 -1.79724,6.78371 -1.79724,6.78371c0,0 -0.75478,-1.31396 -1.19892,-2.34894c-1.03218,-2.40119 -5.38259,-0.10648 -7.33042,-0.48723c0,0 1.40305,-8.56228 1.11264,-14.05815c-0.2904,-5.49586 -2.27157,-54.35015 -2.27157,-54.35015z" fill="#e00d0d" stroke="#000000" stroke-width="0"/><g fill="#c10c0c"><path d="M301.76676,197.85594l36.97318,-7.78349l12.68859,35.73485l-48.1101,9.88286l-1.55169,-37.83422z" stroke="#000000" stroke-width="0"/><path d="M309.2895,237.53921c-0.05511,-0.26734 0.03947,-0.53077 0.22649,-0.70327c-0.08325,-0.01365 -0.16495,-0.03328 -0.24451,-0.05852c-0.24735,0.34369 -0.61939,0.59911 -1.0668,0.69135c-0.48586,0.10016 -0.9662,-0.01157 -1.34505,-0.27207c-0.24667,0.31709 -0.60316,0.55131 -1.02745,0.63878c-0.94659,0.19515 -1.87215,-0.41402 -2.0673,-1.36061c-0.19515,-0.94659 0.41402,-1.87215 1.36061,-2.0673c0.48586,-0.10016 0.9662,0.01157 1.34505,0.27207c0.24667,-0.31709 0.60316,-0.55131 1.02745,-0.63878c0.30358,-0.06258 0.60499,-0.04244 0.88084,0.04503c0.24735,-0.34369 0.61939,-0.59911 1.0668,-0.69135c0.37956,-0.07825 0.75575,-0.02718 1.08282,0.12311c0.20407,-0.5443 0.67469,-0.97506 1.28608,-1.1011c0.7313,-0.15076 1.45004,0.17854 1.82914,0.77259c-0.05551,-0.62395 0.36466,-1.20397 0.99294,-1.33349c0.2531,-0.05218 0.50411,-0.02386 0.72642,0.06748c0.17421,-0.1107 0.37108,-0.19223 0.58523,-0.23638c0.63472,-0.13085 1.25999,0.09993 1.66193,0.55159c0.24607,-0.37621 0.63615,-0.65814 1.11122,-0.75608c0.29603,-0.06103 0.59002,-0.0434 0.86024,0.03862c0.03886,-0.54437 0.43387,-1.01896 0.99471,-1.13458c0.67614,-0.13939 1.33725,0.29572 1.47664,0.97187c0.13939,0.67614 -0.29572,1.33725 -0.97187,1.47664c-0.09712,0.02002 -0.19392,0.0282 -0.28892,0.0255c0.18414,0.94049 -0.42335,1.85591 -1.36412,2.04986c-0.63472,0.13085 -1.25999,-0.09993 -1.66193,-0.55159c-0.24607,0.37621 -0.63615,0.65813 -1.11122,0.75607c-0.737,0.15194 -1.46126,-0.18369 -1.83796,-0.78654c-0.36781,-0.02099 -0.70536,-0.20461 -0.92416,-0.49266c0.01107,0.06449 0.01844,0.12882 0.02227,0.19274c0.39517,0.14298 0.70894,0.48185 0.80001,0.9236c0.13939,0.67614 -0.29572,1.33725 -0.97187,1.47664c-0.52862,0.10898 -1.04808,-0.13323 -1.31618,-0.56722c-0.34736,0.05233 -0.68868,-0.00204 -0.98868,-0.1399c-0.17388,0.46379 -0.54129,0.84513 -1.02439,1.02577c0.1715,0.10443 0.30087,0.27705 0.34461,0.48923c0.08364,0.40569 -0.17743,0.80235 -0.58312,0.88599c-0.40569,0.08364 -0.80235,-0.17743 -0.88599,-0.58312z" stroke="none" stroke-width="0.5"/><path d="M323.04874,238.37481c-0.03217,-0.15603 -0.01334,-0.31073 0.04509,-0.44679c-0.67057,0.12938 -1.32245,-0.3042 -1.46075,-0.97504c-0.10923,-0.52984 0.13433,-1.05045 0.57019,-1.31801c-0.25467,-0.17652 -0.44453,-0.44743 -0.51203,-0.77486c-0.13939,-0.67614 0.29572,-1.33725 0.97187,-1.47664c0.19595,-0.0404 0.39064,-0.03253 0.57173,0.01545c-0.03957,-0.09751 -0.07088,-0.19998 -0.09289,-0.30674c-0.01576,-0.07645 -0.02628,-0.15277 -0.03179,-0.22858c-0.18586,-0.17116 -0.32173,-0.40012 -0.37664,-0.66647c-0.13939,-0.67614 0.29572,-1.33725 0.97187,-1.47664c0.3912,-0.08065 0.77736,0.03102 1.06037,0.27042c0.42158,-0.02227 0.8255,0.10963 1.14709,0.35312c0.16858,-0.61466 0.66805,-1.11484 1.33506,-1.25235c0.94659,-0.19515 1.87215,0.41402 2.0673,1.36061c0.08102,0.39302 0.02339,0.78241 -0.13947,1.11742c0.55762,0.02541 1.04854,0.42483 1.16641,0.99657c0.13939,0.67614 -0.29572,1.33725 -0.97187,1.47664c-0.67614,0.13939 -1.33725,-0.29572 -1.47664,-0.97187c-0.03815,-0.18504 -0.03327,-0.36895 0.00781,-0.54135c-0.49593,0.08664 -0.98243,-0.04558 -1.35714,-0.32927c-0.16858,0.61466 -0.66805,1.11484 -1.33506,1.25235c-0.37623,0.07756 -0.74913,0.02806 -1.07418,-0.11918c0.00162,0.00721 0.00317,0.01446 0.00467,0.02172c0.10923,0.52984 -0.13433,1.05045 -0.57019,1.31801c0.25467,0.17652 0.44452,0.44742 0.51203,0.77486c0.07752,0.37604 -0.02266,0.74743 -0.24316,1.02701c0.32606,0.02386 0.61014,0.26067 0.67942,0.59673c0.08364,0.40569 -0.17743,0.80235 -0.58312,0.88599c-0.40569,0.08364 -0.80235,-0.17743 -0.88599,-0.58312z" stroke="none" stroke-width="0.5"/><path d="M334.48697,228.9874c0.08031,-0.01656 0.16042,-0.025 0.23946,-0.0259c0.07296,-0.03043 0.14988,-0.05436 0.23019,-0.07092c0.32664,-0.06734 0.64976,-0.0006 0.91226,0.16262c0.10952,-0.29077 0.32558,-0.536 0.61054,-0.67846c0.10755,-0.70267 0.64001,-1.29739 1.37701,-1.44932c0.78232,-0.16128 1.55028,0.22681 1.90342,0.90072c0.75863,0.05782 1.41882,0.60966 1.5801,1.39198c0.19515,0.94659 -0.41402,1.87215 -1.36061,2.0673c-0.78232,0.16128 -1.55028,-0.22681 -1.90342,-0.90072c-0.04837,-0.00368 -0.09633,-0.00938 -0.14379,-0.01701c-0.16807,0.17181 -0.3874,0.2971 -0.6405,0.34928c-0.32664,0.06734 -0.64976,0.0006 -0.91226,-0.16261c-0.03843,0.10205 -0.09,0.19848 -0.15305,0.28684c-0.0292,0.55396 -0.42741,1.04035 -0.99614,1.15759c-0.28595,0.05895 -0.5692,0.01515 -0.81145,-0.10619c-0.10065,0.47008 -0.46933,0.85985 -0.97037,0.96314c-0.58044,0.11966 -1.14982,-0.18407 -1.38754,-0.70022c-0.45439,-0.23386 -0.80284,-0.66374 -0.91406,-1.20322c-0.19515,-0.94659 0.41402,-1.87215 1.36061,-2.0673c0.53222,-0.10972 1.05778,0.03483 1.45061,0.35064c0.14937,-0.11978 0.32858,-0.20692 0.52897,-0.24823z" stroke="none" stroke-width="0.5"/><path d="M345.83008,228.53724c0.13939,0.67614 -0.29572,1.33725 -0.97187,1.47664c-0.6104,0.12584 -1.20858,-0.21656 -1.42167,-0.78182c-0.57346,-0.1907 -1.03239,-0.67358 -1.16318,-1.30803c-0.19515,-0.94659 0.41402,-1.87215 1.36061,-2.0673c0.94659,-0.19515 1.87215,0.41402 2.0673,1.36061c0.06326,0.30684 0.04201,0.61146 -0.04786,0.88972c0.08306,0.1274 0.1441,0.27221 0.17667,0.43018z" stroke="none" stroke-width="0.5"/><path d="M346.78661,228.34005c-0.12091,-0.58651 0.19045,-1.1617 0.71644,-1.39488c0.1532,-0.63968 0.66239,-1.16579 1.3492,-1.30739c0.16286,-0.03357 0.32508,-0.04334 0.48308,-0.03168c0.1405,-0.07321 0.29338,-0.12839 0.45623,-0.16196c0.94659,-0.19515 1.87215,0.41402 2.0673,1.36061c0.19515,0.94659 -0.41402,1.87215 -1.36061,2.0673c-0.16286,0.03357 -0.32509,0.04334 -0.48309,0.03167c-0.1405,0.07321 -0.29338,0.1284 -0.45622,0.16197c-0.25845,0.05328 -0.51532,0.04661 -0.7562,-0.01052c-0.15145,0.12417 -0.33437,0.21446 -0.53949,0.25675c-0.67614,0.13939 -1.33725,-0.29572 -1.47664,-0.97187z" stroke="none" stroke-width="0.5"/><path d="M307.89498,240.27481c-0.08364,-0.40569 0.17743,-0.80235 0.58312,-0.88599c0.40569,-0.08364 0.80235,0.17743 0.88599,0.58312c0.08364,0.40569 -0.17743,0.80235 -0.58312,0.88599c-0.40569,0.08364 -0.80235,-0.17743 -0.88599,-0.58312z" stroke="none" stroke-width="0.5"/><path d="M326.48882,239.62408c-0.08364,-0.40569 0.17743,-0.80235 0.58312,-0.88599c0.40569,-0.08364 0.80235,0.17743 0.88599,0.58312c0.08364,0.40569 -0.17743,0.80235 -0.58312,0.88599c-0.40569,0.08364 -0.80235,-0.17743 -0.88599,-0.58312z" stroke="none" stroke-width="0.5"/><path d="M331.85125,235.94808c-0.08364,-0.40569 0.17743,-0.80235 0.58312,-0.88599c0.40569,-0.08364 0.80235,0.17743 0.88599,0.58312c0.08364,0.40569 -0.17743,0.80235 -0.58312,0.88599c-0.40569,0.08364 -0.80235,-0.17743 -0.88599,-0.58312z" stroke="none" stroke-width="0.5"/><path d="M335.15223,233.55389c-0.08364,-0.40569 0.17743,-0.80235 0.58312,-0.88599c0.40569,-0.08364 0.80235,0.17743 0.88599,0.58312c0.08364,0.40569 -0.17743,0.80235 -0.58312,0.88599c-0.40569,0.08364 -0.80235,-0.17743 -0.88599,-0.58312z" stroke="none" stroke-width="0.5"/><path d="M347.98189,232.25541c-0.08364,-0.40569 0.17743,-0.80235 0.58312,-0.88599c0.40569,-0.08364 0.80235,0.17743 0.88599,0.58312c0.08364,0.40569 -0.17743,0.80235 -0.58312,0.88599c-0.40569,0.08364 -0.80235,-0.17743 -0.88599,-0.58312z" stroke="none" stroke-width="0.5"/><path d="M352.24388,233.33526c-0.08364,-0.40569 0.17743,-0.80235 0.58312,-0.88599c0.40569,-0.08364 0.80235,0.17743 0.88599,0.58312c0.08364,0.40569 -0.17743,0.80235 -0.58312,0.88599c-0.40569,0.08364 -0.80235,-0.17743 -0.88599,-0.58312z" stroke="none" stroke-width="0.5"/></g><g fill="#b70b0b"><path d="M301.76676,197.85594l36.97318,-7.78349l10.32003,28.9076l-46.03652,9.55397l-1.2567,-30.67807z" stroke="#000000" stroke-width="0"/><path d="M307.43054,230.1512c-0.46284,0.09542 -0.91981,-0.03351 -1.25805,-0.31248c-0.18055,0.10412 -0.38057,0.18157 -0.59586,0.22595c-1.08182,0.22302 -2.1396,-0.47317 -2.36263,-1.55499c-0.22302,-1.08182 0.47317,-2.1396 1.55499,-2.36263c0.62793,-0.12945 1.24775,0.05078 1.70095,0.43637c0.09771,-0.83289 0.71674,-1.54682 1.58306,-1.72542c1.08182,-0.22302 2.1396,0.47317 2.36263,1.55499c0.22302,1.08182 -0.47317,2.1396 -1.55499,2.36263c-0.07958,0.01641 -0.15903,0.02784 -0.23803,0.03451c-0.05495,0.64465 -0.52607,1.20377 -1.19205,1.34107z" stroke="none" stroke-width="0.5"/><path d="M312.74213,230.09514c-0.1615,-0.78339 0.31968,-1.54996 1.08334,-1.75245c-0.09351,-0.08893 -0.17874,-0.18717 -0.2541,-0.29368c-0.19341,0.11925 -0.41057,0.20733 -0.64601,0.25587c-1.08182,0.22302 -2.1396,-0.47317 -2.36263,-1.55499c-0.22302,-1.08182 0.47317,-2.1396 1.55499,-2.36263c0.80291,-0.16552 1.59256,0.17527 2.03755,0.80427c0.19341,-0.11925 0.41057,-0.20733 0.64601,-0.25587c1.08182,-0.22302 2.1396,0.47317 2.36263,1.55499c0.22302,1.08182 -0.47317,2.1396 -1.55499,2.36263c-0.06786,0.01399 -0.13562,0.02437 -0.20309,0.03125c0.13172,0.17307 0.22767,0.37763 0.27452,0.60488c0.16727,0.81137 -0.35488,1.60471 -1.16624,1.77197c-0.81136,0.16727 -1.6047,-0.35487 -1.77197,-1.16624z" stroke="none" stroke-width="0.5"/><path d="M326.29972,228.15699c0.16727,0.81137 -0.35488,1.60471 -1.16624,1.77197c-0.76092,0.15687 -1.50599,-0.29261 -1.73366,-1.01835c-0.70129,0.00525 -1.33175,-0.4844 -1.47873,-1.19739c-0.06419,-0.31134 -0.02686,-0.62005 0.08937,-0.89172c-0.19055,-0.07776 -0.36801,-0.18441 -0.52587,-0.31568c-0.18707,0.71187 -0.76158,1.29317 -1.53131,1.45185c-1.08182,0.22302 -2.1396,-0.47317 -2.36263,-1.55499c-0.22302,-1.08182 0.47317,-2.1396 1.55499,-2.36263c0.61998,-0.12781 1.23208,0.04628 1.68368,0.42184c0.18707,-0.71187 0.76158,-1.29317 1.53131,-1.45185c1.08182,-0.22302 2.1396,0.47317 2.36263,1.55499c0.1261,0.61168 -0.04166,1.21566 -0.40683,1.66542c0.23184,0.1818 0.41147,0.43239 0.50457,0.72916c0.70129,-0.00525 1.33173,0.4844 1.47872,1.19739z" stroke="none" stroke-width="0.5"/><path d="M331.91393,223.32742c0.16727,0.81137 -0.35488,1.60471 -1.16624,1.77197c-0.58978,0.12159 -1.17004,-0.1211 -1.50722,-0.57435c-0.13172,0.05932 -0.27193,0.10519 -0.4193,0.13557c-0.34145,0.07039 -0.68051,0.04922 -0.99168,-0.04676c-0.05828,0.64114 -0.52821,1.19603 -1.19132,1.33274c-0.81136,0.16727 -1.6047,-0.35487 -1.77197,-1.16624c-0.16727,-0.81137 0.35488,-1.60471 1.16624,-1.77197c0.13625,-0.02809 0.27199,-0.03674 0.40436,-0.02784c-0.14699,-1.03713 0.53666,-2.02314 1.57673,-2.23755c1.02615,-0.21155 2.03068,0.40395 2.32168,1.39113c0.74054,-0.0552 1.42479,0.44656 1.57873,1.19329z" stroke="none" stroke-width="0.5"/><path d="M336.3801,223.63073c-0.03716,-0.18026 -0.04029,-0.35962 -0.01379,-0.53143c-0.04847,0.01385 -0.09782,0.026 -0.148,0.03634c-1.08182,0.22302 -2.1396,-0.47317 -2.36263,-1.55499c-0.22302,-1.08182 0.47317,-2.1396 1.55499,-2.36263c1.08182,-0.22302 2.1396,0.47317 2.36263,1.55499c0.07572,0.36729 0.04548,0.73182 -0.06983,1.06184c0.20645,-0.02041 0.40915,0.00267 0.59789,0.06251c-0.09866,-0.17553 -0.17228,-0.36907 -0.21511,-0.57683c-0.22302,-1.08182 0.47317,-2.1396 1.55499,-2.36263c1.08182,-0.22302 2.1396,0.47317 2.36263,1.55499c0.22302,1.08182 -0.47317,2.1396 -1.55499,2.36263c-0.42617,0.08786 -0.8486,0.03306 -1.21775,-0.13176c0.03752,0.08904 0.06695,0.18302 0.0872,0.28125c0.16727,0.81137 -0.35488,1.60471 -1.16624,1.77197c-0.81136,0.16727 -1.6047,-0.35487 -1.77197,-1.16624z" stroke="none" stroke-width="0.5"/><path d="M347.28042,218.60707c1.08182,-0.22302 2.1396,0.47317 2.36263,1.55499c0.22302,1.08182 -0.47317,2.1396 -1.55499,2.36263c-0.66793,0.1377 -1.32671,-0.07501 -1.7855,-0.51254c-0.25258,0.22298 -0.56501,0.38509 -0.91866,0.458c-1.08182,0.22302 -2.1396,-0.47317 -2.36263,-1.55499c-0.22302,-1.08182 0.47317,-2.1396 1.55499,-2.36263c0.66793,-0.1377 1.32671,0.07501 1.7855,0.51254c0.25258,-0.22298 0.56501,-0.38509 0.91866,-0.458z" stroke="none" stroke-width="0.5"/><path d="M332.54408,226.99207c-0.16727,-0.81137 0.35488,-1.60471 1.16624,-1.77197c0.81136,-0.16727 1.6047,0.35487 1.77197,1.16624c0.16727,0.81137 -0.35488,1.60471 -1.16624,1.77197c-0.81136,0.16727 -1.6047,-0.35487 -1.77197,-1.16624z" stroke="none" stroke-width="0.5"/><path d="M306.22839,232.78445c-0.08364,-0.40569 0.17743,-0.80235 0.58312,-0.88599c0.40569,-0.08364 0.80235,0.17743 0.88599,0.58312c0.08364,0.40569 -0.17743,0.80235 -0.58312,0.88599c-0.40569,0.08364 -0.80235,-0.17743 -0.88599,-0.58312z" stroke="none" stroke-width="0.5"/><path d="M349.20226,223.92508c-0.08364,-0.40569 0.17743,-0.80235 0.58312,-0.88599c0.40569,-0.08364 0.80235,0.17743 0.88599,0.58312c0.08364,0.40569 -0.17743,0.80235 -0.58312,0.88599c-0.40569,0.08364 -0.80235,-0.17743 -0.88599,-0.58312z" stroke="none" stroke-width="0.5"/><path d="M344.46448,225.88106c-0.08364,-0.40569 0.17743,-0.80235 0.58312,-0.88599c0.40569,-0.08364 0.80235,0.17743 0.88599,0.58312c0.08364,0.40569 -0.17743,0.80235 -0.58312,0.88599c-0.40569,0.08364 -0.80235,-0.17743 -0.88599,-0.58312z" stroke="none" stroke-width="0.5"/><path d="M343.72133,223.46375c-0.08364,-0.40569 0.17743,-0.80235 0.58312,-0.88599c0.40569,-0.08364 0.80235,0.17743 0.88599,0.58312c0.08364,0.40569 -0.17743,0.80235 -0.58312,0.88599c-0.40569,0.08364 -0.80235,-0.17743 -0.88599,-0.58312z" stroke="none" stroke-width="0.5"/></g><g fill="#a50a0a"><path d="M301.76676,197.85594l36.97318,-7.78349l8.04099,22.52375l-44.09498,7.75828l-0.9192,-22.49854z" stroke="#000000" stroke-width="0"/><path d="M307.22061,221.07382c-0.00694,-0.03367 -0.01246,-0.0673 -0.01659,-0.10084c-0.12838,0.06238 -0.26651,0.10993 -0.4127,0.14006c-0.20908,0.0431 -0.41715,0.04696 -0.61654,0.01663c-0.24732,0.3474 -0.62146,0.60582 -1.07207,0.69871c-0.94659,0.19515 -1.87215,-0.41402 -2.0673,-1.36061c-0.19515,-0.94659 0.41402,-1.87215 1.36061,-2.0673c0.20908,-0.0431 0.41715,-0.04696 0.61653,-0.01662c0.24732,-0.3474 0.62147,-0.60582 1.07207,-0.69871c0.59876,-0.12344 1.18909,0.07494 1.59149,0.47696c0.1821,-0.59035 0.67188,-1.06597 1.31967,-1.19952c0.94659,-0.19515 1.87215,0.41402 2.0673,1.36061c0.19515,0.94659 -0.41402,1.87215 -1.36061,2.0673c-0.02633,0.00543 -0.05263,0.01023 -0.07889,0.01442c0.01862,0.0529 0.0339,0.10767 0.04554,0.16414c0.13939,0.67614 -0.29572,1.33725 -0.97187,1.47664c-0.67614,0.13939 -1.33725,-0.29572 -1.47664,-0.97187z" stroke="none" stroke-width="0.5"/><path d="M315.93352,219.39999c-0.01155,-0.05604 -0.01915,-0.11198 -0.02301,-0.16751c-0.42217,-0.07282 -0.8031,-0.29927 -1.06911,-0.63087c-0.24725,0.35149 -0.6237,0.61321 -1.07781,0.70683c-0.94659,0.19515 -1.87215,-0.41402 -2.0673,-1.36061c-0.19515,-0.94659 0.41402,-1.87215 1.36061,-2.0673c0.66592,-0.13728 1.32142,0.12348 1.71955,0.61976c0.24725,-0.35149 0.62371,-0.61322 1.07782,-0.70684c0.94659,-0.19515 1.87215,0.41402 2.0673,1.36061c0.06815,0.33057 0.0382,0.65858 -0.06994,0.95381c0.26389,0.17608 0.46128,0.45209 0.5304,0.78735c0.13939,0.67614 -0.29572,1.33725 -0.97187,1.47664c-0.67614,0.13939 -1.33725,-0.29572 -1.47664,-0.97187z" stroke="none" stroke-width="0.5"/><path d="M324.72016,215.45544c0.06322,-0.01303 0.12632,-0.02104 0.18886,-0.0243c-0.03875,-0.84464 0.54075,-1.61588 1.39517,-1.79202c0.55557,-0.11453 1.10391,0.048 1.50157,0.3932c0.72834,0.0859 1.35248,0.62738 1.50868,1.38505c0.19515,0.94659 -0.41402,1.87215 -1.36061,2.0673c-0.55557,0.11453 -1.10391,-0.04799 -1.50157,-0.3932c-0.0957,-0.01128 -0.1896,-0.03043 -0.28088,-0.05691c-0.12695,0.4275 -0.47913,0.77304 -0.94644,0.86938c-0.06009,0.01239 -0.12006,0.02024 -0.17955,0.02378c-0.10556,0.46283 -0.47151,0.84486 -0.96678,0.94697c-0.44102,0.09092 -0.87564,-0.06258 -1.16326,-0.36795c-0.15632,0.28457 -0.39076,0.52471 -0.68113,0.68666c-0.16173,0.15008 -0.36525,0.25924 -0.59711,0.30704c-0.40597,0.08369 -0.80651,-0.03972 -1.09198,-0.29808c-0.4367,-0.23773 -0.76973,-0.65901 -0.87799,-1.18411c-0.19515,-0.94659 0.41402,-1.87215 1.36061,-2.0673c0.76396,-0.1575 1.51424,0.2089 1.87789,0.85377c0.17135,-0.18682 0.40094,-0.32343 0.66819,-0.37852c0.06009,-0.01239 0.12004,-0.02025 0.17955,-0.02378c0.10556,-0.46283 0.47151,-0.84486 0.96679,-0.94697z" stroke="none" stroke-width="0.5"/><path d="M344.2723,210.5469c0.94659,-0.19515 1.87215,0.41402 2.0673,1.36061c0.19515,0.94659 -0.41402,1.87215 -1.36061,2.0673c-0.16286,0.03357 -0.32508,0.04334 -0.48308,0.03167c-0.1405,0.07321 -0.29338,0.1284 -0.45622,0.16197c-0.94659,0.19515 -1.87215,-0.41402 -2.0673,-1.36061c-0.19515,-0.94659 0.41402,-1.87215 1.36061,-2.0673c0.16286,-0.03357 0.32508,-0.04334 0.48308,-0.03167c0.1405,-0.07321 0.29338,-0.1284 0.45622,-0.16197z" stroke="none" stroke-width="0.5"/><path d="M332.68379,214.3033c0.01628,-0.00336 0.03254,-0.00637 0.04879,-0.00907c-0.00555,-0.02246 -0.0107,-0.04513 -0.01541,-0.06798c-0.19515,-0.94659 0.41402,-1.87215 1.36061,-2.0673c0.18528,-0.0382 0.36976,-0.04558 0.54811,-0.02565c0.23929,-0.25844 0.55863,-0.44733 0.92987,-0.52386c0.94659,-0.19515 1.87215,0.41402 2.0673,1.36061c0.19515,0.94659 -0.41402,1.87215 -1.36061,2.0673c-0.18528,0.0382 -0.36975,0.04558 -0.54811,0.02565c-0.23929,0.25844 -0.55863,0.44733 -0.92988,0.52386c-0.20346,0.04195 -0.40597,0.04673 -0.60044,0.019c-0.03412,0.54912 -0.43073,1.02953 -0.99547,1.14596c-0.40659,0.08382 -0.80776,-0.04011 -1.09329,-0.29928c-0.09857,0.47306 -0.46837,0.86603 -0.97176,0.9698c-0.67614,0.13939 -1.33725,-0.29572 -1.47664,-0.97187c-0.13939,-0.67614 0.29572,-1.33725 0.97187,-1.47664c0.40659,-0.08382 0.80776,0.04011 1.09329,0.29928c0.09857,-0.47306 0.46837,-0.86603 0.97176,-0.9698z" stroke="none" stroke-width="0.5"/><path d="M339.44794,215.89879c-0.13939,-0.67614 0.29572,-1.33725 0.97187,-1.47664c0.67614,-0.13939 1.33725,0.29572 1.47664,0.97187c0.13939,0.67614 -0.29572,1.33725 -0.97187,1.47664c-0.67614,0.13939 -1.33725,-0.29572 -1.47664,-0.97187z" stroke="none" stroke-width="0.5"/><path d="M309.45204,225.26518c-0.08364,-0.40569 0.17743,-0.80235 0.58312,-0.88599c0.40569,-0.08364 0.80235,0.17743 0.88599,0.58312c0.08364,0.40569 -0.17743,0.80235 -0.58312,0.88599c-0.40569,0.08364 -0.80235,-0.17743 -0.88599,-0.58312z" stroke="none" stroke-width="0.5"/><path d="M306.75762,222.88293c-0.08364,-0.40569 0.17743,-0.80235 0.58312,-0.88599c0.40569,-0.08364 0.80235,0.17743 0.88599,0.58312c0.08364,0.40569 -0.17743,0.80235 -0.58312,0.88599c-0.40569,0.08364 -0.80235,-0.17743 -0.88599,-0.58312z" stroke="none" stroke-width="0.5"/><path d="M318.04031,222.39301c-0.08364,-0.40569 0.17743,-0.80235 0.58312,-0.88599c0.40569,-0.08364 0.80235,0.17743 0.88599,0.58312c0.08364,0.40569 -0.17743,0.80235 -0.58312,0.88599c-0.40569,0.08364 -0.80235,-0.17743 -0.88599,-0.58312z" stroke="none" stroke-width="0.5"/><path d="M324.81894,219.64908c-0.08364,-0.40569 0.17743,-0.80235 0.58312,-0.88599c0.40569,-0.08364 0.80235,0.17743 0.88599,0.58312c0.04394,0.21316 -0.00728,0.42381 -0.12463,0.58788c0.09861,0.09966 0.17044,0.22808 0.20086,0.37564c0.08364,0.40569 -0.17743,0.80235 -0.58312,0.88599c-0.40569,0.08364 -0.80235,-0.17743 -0.88599,-0.58312c-0.04394,-0.21316 0.00728,-0.42381 0.12463,-0.58788c-0.09861,-0.09966 -0.17044,-0.22808 -0.20086,-0.37564z" stroke="none" stroke-width="0.5"/><path d="M334.89603,218.06124c-0.08364,-0.40569 0.17743,-0.80235 0.58312,-0.88599c0.40569,-0.08364 0.80235,0.17743 0.88599,0.58312c0.08364,0.40569 -0.17743,0.80235 -0.58312,0.88599c-0.40569,0.08364 -0.80235,-0.17743 -0.88599,-0.58312z" stroke="none" stroke-width="0.5"/><path d="M337.22374,218.07098c-0.08364,-0.40569 0.17743,-0.80235 0.58312,-0.88599c0.40569,-0.08364 0.80235,0.17743 0.88599,0.58312c0.08364,0.40569 -0.17743,0.80235 -0.58312,0.88599c-0.40569,0.08364 -0.80235,-0.17743 -0.88599,-0.58312z" stroke="none" stroke-width="0.5"/></g></g><path d="M348.39575,196.56854c1.86223,9.03304 -8.64752,18.83365 -23.47417,21.89027c-14.82666,3.05662 -28.35566,-1.78823 -30.21789,-10.82127c-1.86223,-9.03304 8.64752,-18.83365 23.47417,-21.89027c14.82666,-3.05662 28.35566,1.78823 30.21789,10.82127z" fill="#4c291f" stroke="none" stroke-width="0"/></g><path d="M315.25178,199.27076v-202.7749h6.70946v202.7749z" fill="url(#color-1)" stroke="none" stroke-width="0" stroke-linecap="butt"/><path d="M214.52362,306.61252v-267.72501h213.18203v267.72501z" fill="none" stroke="none" stroke-width="0" stroke-linecap="butt"/><path d="" fill="none" stroke="#000000" stroke-width="2" stroke-linecap="round"/><g stroke-linecap="butt"><path d="M257.25572,159.78812c-1.86723,-32.46388 24.65528,-60.39359 59.23969,-62.38279c17.64201,-1.01472 45.9895,15.28099 45.9895,15.28099c0,0 3.26556,6.96893 6.18272,10.91743c2.91716,3.9485 9.38448,10.15343 9.38448,10.15343c0,0 4.06198,12.17099 4.44484,18.82742c1.86723,32.46388 -24.65528,60.39361 -59.23969,62.38281c-34.58441,1.9892 -64.1343,-22.71541 -66.00154,-55.17929z" fill="#e0d6c6" stroke="#000000" stroke-width="0"/><path d="M257.25572,159.78812c-1.86723,-32.46388 24.65528,-60.39359 59.23969,-62.38279c17.64201,-1.01472 45.9895,15.28099 45.9895,15.28099c0,0 3.26556,6.96893 6.18272,10.91743c2.91716,3.9485 9.38448,10.15343 9.38448,10.15343c0,0 4.06198,12.17099 4.44484,18.82742c0.47904,8.32869 -0.9105,16.35895 -3.82539,23.72931c-1.04974,2.6543 -113.3725,9.41594 -114.74213,6.89206c-3.83088,-7.05936 -6.18817,-14.97627 -6.67371,-23.41784z" fill="#c8bfb0" stroke="#000000" stroke-width="0"/><path d="M360.7893,160.68921c0.03964,0.68922 -0.48694,1.28007 -1.17616,1.31972c-0.49446,0.02844 -0.9383,-0.23456 -1.16429,-0.63996c-0.25997,0.18604 -0.57399,0.30314 -0.91674,0.32285c-0.53784,0.03094 -1.03289,-0.18442 -1.37537,-0.54823c-0.25445,0.17475 -0.55837,0.2844 -0.88903,0.30342c-0.96491,0.0555 -1.7921,-0.68172 -1.8476,-1.64662c-0.0555,-0.96491 0.68172,-1.7921 1.64662,-1.8476c0.53784,-0.03094 1.03289,0.18442 1.37537,0.54823c0.21449,-0.14732 0.46416,-0.24836 0.73536,-0.28785c0.28489,-0.25533 0.65508,-0.41946 1.06671,-0.44313c0.96491,-0.0555 1.7921,0.68172 1.8476,1.64662c0.0043,0.07468 0.00385,0.14853 -0.0011,0.22127c0.39197,0.19217 0.67178,0.58441 0.69863,1.0513z" fill="#9d958a" stroke="none" stroke-width="0.5"/><path d="M257.25572,159.78812c-1.86723,-32.46388 24.65528,-60.39359 59.23969,-62.38279c17.64201,-1.01472 45.9895,15.28099 45.9895,15.28099c0,0 3.26556,6.96893 6.18272,10.91743c2.91716,3.9485 9.38448,10.15343 9.38448,10.15343c0,0 4.06198,12.17099 4.44484,18.82742c0.10705,1.86115 0.12079,3.7074 0.04504,5.53473c-0.03538,0.85338 -124.61943,7.70626 -124.77201,6.67831c-0.24447,-1.64698 -0.41695,-3.3177 -0.51426,-5.00951z" fill="#9d958a" stroke="#000000" stroke-width="0"/><path d="M260.15328,138.57805c7.72636,-22.62403 29.62943,-39.63628 56.34213,-41.17272c17.64201,-1.01472 45.9895,15.28099 45.9895,15.28099c0,0 3.26556,6.96893 6.18272,10.91743c2.91716,3.9485 9.38448,10.15343 9.38448,10.15343c0,0 -119.10088,8.34067 -117.89883,4.82087z" fill="#8e887d" stroke="#000000" stroke-width="0"/><path d="M360.71201,147.38823c0.49917,-0.02871 0.52789,0.47046 0.52789,0.47046l-0.01652,1.01447c-0.51209,0.34201 -0.9631,0.79203 -1.31547,1.29703c-2.42825,2.06104 -2.11277,5.37401 -4.06129,7.54164c-1.03863,1.15542 -2.84232,0.02281 -2.18602,2.08797c0,0 0.14892,0.47731 -0.32838,0.62623c-0.47731,0.14892 -0.62623,-0.32838 -0.62623,-0.32838c-0.88224,-2.87303 1.23979,-1.72906 2.39409,-3.05116c1.91237,-2.19035 1.57854,-5.46189 4.07177,-7.55322c0.31289,-0.43399 0.68321,-0.87936 1.17224,-1.09638l-0.10253,-0.48079c0,0 -0.02871,-0.49917 0.47046,-0.52789z" fill="#928673" stroke="none" stroke-width="0.5"/><path d="M355.27878,170.66324c-2.61233,0.10142 -5.90984,-0.62852 -6.34986,-0.82638c-3.66772,-1.64922 -9.5324,-6.18423 -8.24169,-9.87707c1.29071,-3.69284 6.8746,-2.31285 12.34284,-0.40161c3.34331,1.16855 6.80793,5.8368 6.47044,8.6807c-0.21449,1.80751 -3.63848,2.40172 -4.22174,2.42436z" fill="#8f8d8b" stroke="none" stroke-width="0"/><path d="M340.50769,161.18246c-0.01592,-0.41426 0.03998,-0.82338 0.17954,-1.22267c1.29071,-3.69284 7.20758,-2.01609 12.67582,-0.10485c0.18296,0.06395 -12.84618,1.56623 -12.85536,1.32752z" fill="#706e6d" stroke="none" stroke-width="0"/><path d="M351.51853,137.59408c-0.00999,-0.17374 0.01599,-0.34122 0.0715,-0.49521c-0.29353,-0.12495 -0.54727,-0.32816 -0.73343,-0.58485c-0.12883,0.79176 -0.79279,1.41641 -1.6269,1.46439c-0.96491,0.0555 -1.7921,-0.68172 -1.8476,-1.64662c-0.0555,-0.96491 0.68172,-1.7921 1.64662,-1.8476c0.6182,-0.03556 1.17987,0.25428 1.51828,0.7209c0.12883,-0.79176 0.7928,-1.4164 1.62691,-1.46438c0.96491,-0.0555 1.7921,0.68172 1.8476,1.64662c0.02655,0.46154 -0.12828,0.89156 -0.40263,1.2207c0.22718,0.21175 0.37629,0.50796 0.39553,0.84249c0.03964,0.68922 -0.48694,1.28007 -1.17616,1.31972c-0.68922,0.03964 -1.28007,-0.48694 -1.31972,-1.17616z" fill="#8e887d" stroke="none" stroke-width="0.5"/><path d="M356.04732,138.08371c-0.03964,-0.68922 0.48694,-1.28007 1.17616,-1.31972c0.68922,-0.03964 1.28007,0.48694 1.31972,1.17616c0.03964,0.68922 -0.48694,1.28007 -1.17616,1.31972c-0.68922,0.03964 -1.28007,-0.48694 -1.31972,-1.17616z" fill="#8e887d" stroke="none" stroke-width="0.5"/><path d="M352.63582,140.71778c-0.03964,-0.68922 0.48694,-1.28007 1.17616,-1.31972c0.68922,-0.03964 1.28007,0.48694 1.31972,1.17616c0.03964,0.68922 -0.48694,1.28007 -1.17616,1.31972c-0.68922,0.03964 -1.28007,-0.48694 -1.31972,-1.17616z" fill="#8e887d" stroke="none" stroke-width="0.5"/><path d="M360.30981,140.46391c-0.03964,-0.68922 0.48694,-1.28007 1.17616,-1.31972c0.68922,-0.03964 1.28007,0.48694 1.31972,1.17616c0.03964,0.68922 -0.48694,1.28007 -1.17616,1.31972c-0.68922,0.03964 -1.28007,-0.48694 -1.31972,-1.17616z" fill="#8e887d" stroke="none" stroke-width="0.5"/><path d="M370.98804,141.34994c-0.01926,-0.33489 0.18428,-0.63107 0.48202,-0.74425c-0.18411,-0.20394 -0.30255,-0.46966 -0.31955,-0.76531c-0.01809,-0.31445 0.08169,-0.60842 0.26101,-0.83892c-0.05883,0.01207 -0.11927,0.02005 -0.18099,0.0236c-0.68922,0.03964 -1.28007,-0.48694 -1.31972,-1.17616c-0.00552,-0.09602 -0.00005,-0.19015 0.01532,-0.28113c-0.27044,-0.04631 -0.51304,-0.1801 -0.69557,-0.37265c-0.05484,0.00842 -0.11056,0.01432 -0.16708,0.01757c-0.46946,0.027 -0.90632,-0.13365 -1.23757,-0.41687c-0.20544,0.34361 -0.57198,0.58271 -1.00178,0.60743c-0.58227,0.03349 -1.09433,-0.33715 -1.26313,-0.86856c-0.19882,0.09483 -0.419,0.15345 -0.65249,0.16688c-0.63397,0.03646 -1.2085,-0.26927 -1.54375,-0.75696c-0.27713,0.52292 -0.81281,0.89251 -1.44678,0.92897c-0.43877,0.02524 -0.84908,-0.11344 -1.17128,-0.36291c-0.28308,0.50076 -0.80696,0.85175 -1.42393,0.88724c-0.81339,0.04678 -1.52891,-0.46973 -1.76682,-1.21108c-0.06516,0.0034 -0.12969,0.00319 -0.19339,-0.00046c-0.29937,0.36996 -0.74768,0.61719 -1.26024,0.64667c-0.96491,0.0555 -1.7921,-0.68172 -1.8476,-1.64662c-0.0555,-0.96491 0.68172,-1.7921 1.64662,-1.8476c0.06836,-0.00393 0.13603,-0.00389 0.20278,-0.00006c0.29937,-0.36995 0.74768,-0.61718 1.26024,-0.64666c0.81339,-0.04678 1.52891,0.46973 1.76683,1.21108c0.43523,-0.02273 0.84198,0.11574 1.16189,0.36343c0.28308,-0.50076 0.80696,-0.85175 1.42393,-0.88724c0.63397,-0.03646 1.2085,0.26928 1.54375,0.75696c0.25444,-0.48009 0.72682,-0.83096 1.29311,-0.91341c0.28489,-0.25534 0.65509,-0.41945 1.06671,-0.44312c0.52213,-0.03003 1.00395,0.17206 1.34498,0.51674c0.28854,-0.27042 0.66991,-0.4451 1.09558,-0.46959c0.76974,-0.04427 1.45184,0.41592 1.72445,1.09374c0.24171,0.12898 0.45043,0.3133 0.60834,0.53704c0.16626,-0.09838 0.35787,-0.15956 0.56404,-0.17142c0.57818,-0.03326 1.08715,0.33197 1.25953,0.85741c0.20484,-0.34639 0.57292,-0.58775 1.00487,-0.61259c0.43737,-0.02516 0.83511,0.17771 1.07754,0.50545c0.64069,0.01924 1.17147,0.52569 1.20897,1.17768c0.03964,0.68922 -0.48694,1.28007 -1.17616,1.31972c-0.43737,0.02516 -0.83511,-0.1777 -1.07754,-0.50544c-0.53158,-0.01597 -0.9875,-0.36733 -1.14879,-0.85894c-0.1116,0.18871 -0.27164,0.34625 -0.46406,0.45459c0.42613,0.1791 0.73602,0.58862 0.76436,1.0812c0.01809,0.31445 -0.08169,0.60842 -0.26101,0.83892c0.05883,-0.01207 0.11927,-0.02004 0.18099,-0.02359c0.68922,-0.03964 1.28007,0.48694 1.31972,1.17616c0.03964,0.68922 -0.48694,1.28007 -1.17616,1.31972c-0.01369,0.00079 -0.02735,0.00136 -0.04095,0.0017c0.0317,0.07605 0.0513,0.15865 0.0563,0.24556c0.02379,0.41354 -0.29216,0.76804 -0.7057,0.79183c-0.41354,0.02379 -0.76804,-0.29216 -0.79183,-0.7057z" fill="#8e887d" stroke="none" stroke-width="0.5"/><path d="M377.58574,135.40529c0.68922,-0.03964 1.28007,0.48694 1.31972,1.17616c0.03668,0.6378 -0.41152,1.19136 -1.02478,1.30182c-0.21347,0.24913 -0.52411,0.41439 -0.87752,0.43472c-0.68922,0.03964 -1.28007,-0.48694 -1.31972,-1.17616c-0.03668,-0.6378 0.41151,-1.19136 1.02477,-1.30183c0.21347,-0.24913 0.52412,-0.41438 0.87753,-0.43471z" fill="#8e887d" stroke="none" stroke-width="0.5"/><path d="M349.20163,147.2912c-0.02379,-0.41354 0.29216,-0.76804 0.7057,-0.79183c0.41354,-0.02379 0.76804,0.29216 0.79183,0.7057c0.02379,0.41354 -0.29216,0.76804 -0.7057,0.79183c-0.41354,0.02379 -0.76804,-0.29216 -0.79183,-0.7057z" fill="#8e887d" stroke="none" stroke-width="0.5"/><path d="M354.36395,142.49365c-0.02379,-0.41354 0.29216,-0.76804 0.7057,-0.79183c0.41354,-0.02379 0.76804,0.29216 0.79183,0.7057c0.02379,0.41354 -0.29216,0.76804 -0.7057,0.79183c-0.41354,0.02379 -0.76804,-0.29216 -0.79183,-0.7057z" fill="#8e887d" stroke="none" stroke-width="0.5"/><path d="M359.69414,143.8748c-0.02379,-0.41354 0.29216,-0.76804 0.7057,-0.79183c0.41354,-0.02379 0.76804,0.29216 0.79183,0.7057c0.02379,0.41354 -0.29216,0.76804 -0.7057,0.79183c-0.41354,0.02379 -0.76804,-0.29216 -0.79183,-0.7057z" fill="#8e887d" stroke="none" stroke-width="0.5"/><path d="M367.65594,142.10418c-0.02379,-0.41354 0.29216,-0.76804 0.7057,-0.79183c0.41354,-0.02379 0.76804,0.29216 0.79183,0.7057c0.02379,0.41354 -0.29216,0.76804 -0.7057,0.79183c-0.41354,0.02379 -0.76804,-0.29216 -0.79183,-0.7057z" fill="#8e887d" stroke="none" stroke-width="0.5"/><path d="M374.27958,146.41137c-0.02379,-0.41354 0.29216,-0.76804 0.7057,-0.79183c0.41354,-0.02379 0.76804,0.29216 0.79183,0.7057c0.02379,0.41354 -0.29216,0.76804 -0.7057,0.79183c-0.41354,0.02379 -0.76804,-0.29216 -0.79183,-0.7057z" fill="#8e887d" stroke="none" stroke-width="0.5"/><path d="M378.10745,133.95238c-0.25563,0.35428 -0.47473,0.54818 -1.11013,0.81718c-4.95123,2.09613 -9.96649,-3.29619 -13.90914,-8.72296c-3.94266,-5.42677 -6.93711,-11.05921 -1.98589,-13.15534c0.48693,-0.20614 0.64063,-0.21913 1.09151,-0.29513c0.56383,-0.09504 3.3862,6.20943 7.46188,11.78048c3.65591,4.99726 8.64955,9.30166 8.45177,9.57577z" fill="#5e5d5b" stroke="none" stroke-width="0"/><path d="M371.28684,161.77316c-0.00239,-0.04157 -0.00273,-0.08279 -0.00109,-0.12355c-0.02199,0.00209 -0.04411,0.00378 -0.06635,0.00506c-0.96491,0.0555 -1.7921,-0.68172 -1.8476,-1.64662c-0.0555,-0.96491 0.68172,-1.7921 1.64662,-1.8476c0.37656,-0.02166 0.73214,0.07742 1.02908,0.26362c0.29784,-0.33254 0.72217,-0.55188 1.20307,-0.57954c0.42977,-0.02472 0.83223,0.10782 1.15136,0.3477c0.11707,-0.03221 0.2393,-0.05264 0.36541,-0.05989c0.57398,-0.03301 1.09925,0.21448 1.44232,0.62356c0.2939,-0.44571 0.78733,-0.7518 1.36131,-0.78481c0.34728,-0.01997 0.67673,0.06273 0.95878,0.2218c0.12915,-0.05142 0.26614,-0.088 0.409,-0.1075c0.21232,-0.67311 0.82253,-1.17791 1.56901,-1.22084c0.81741,-0.04702 1.536,0.47486 1.77033,1.22212c0.52877,0.0294 0.38418,3.47242 0.00117,3.49445c-0.67494,0.03882 -1.28252,-0.31023 -1.60572,-0.85377c-0.28888,0.47489 -0.79866,0.80454 -1.39556,0.83887c-0.34728,0.01997 -0.67673,-0.06273 -0.95878,-0.2218c-0.17029,0.0678 -0.3542,0.10979 -0.54724,0.12089c-0.57398,0.03301 -1.09925,-0.21448 -1.44232,-0.62355c-0.2939,0.44571 -0.78733,0.75179 -1.36131,0.7848c-0.12831,0.00738 -0.25418,0.00075 -0.37613,-0.01857c-0.11892,0.03318 -0.24321,0.0542 -0.37152,0.06157c-0.14992,0.00862 -0.29652,-0.00189 -0.43741,-0.02942c0.0337,0.68469 -0.49102,1.26973 -1.17672,1.30917c-0.68922,0.03964 -1.28007,-0.48694 -1.31972,-1.17616z" fill="#9d958a" stroke="none" stroke-width="0.5"/><path d="M367.81595,157.90783c0.68922,-0.03964 1.28007,0.48694 1.31972,1.17616c0.02527,0.43936 -0.17956,0.83873 -0.50994,1.08085c-0.08578,0.24321 -0.22401,0.46271 -0.40184,0.64408c0.01145,0.06588 0.01925,0.13308 0.02319,0.20145c0.00119,0.02076 0.00202,0.04146 0.00249,0.06209c0.66145,-0.00469 1.21736,0.51043 1.25577,1.17822c0.03964,0.68922 -0.48694,1.28007 -1.17616,1.31972c-0.56069,0.03225 -1.05629,-0.31024 -1.24297,-0.81017c-0.15279,0.05423 -0.31573,0.08797 -0.48575,0.09774c-0.94355,0.05427 -1.75541,-0.64948 -1.84278,-1.58289c-0.0832,0.0018 -0.16526,-0.00229 -0.24578,-0.01188c-0.25478,0.58694 -0.8233,1.01215 -1.50569,1.0514c-0.96491,0.0555 -1.7921,-0.68172 -1.8476,-1.64662c-0.0555,-0.96491 0.68172,-1.7921 1.64662,-1.8476c0.10513,-0.00605 0.20861,-0.00267 0.30964,0.00937c0.25478,-0.58694 0.8233,-1.01216 1.50569,-1.05141c0.38425,-0.0221 0.74668,0.08152 1.04723,0.27517c0.27636,-0.22683 0.62451,-0.37132 1.00877,-0.39343c0.374,-0.02151 0.72733,0.07608 1.02304,0.25985c0.03821,-0.00577 0.07703,-0.00983 0.11637,-0.01209z" fill="#9d958a" stroke="none" stroke-width="0.5"/><path d="M360.90599,163.87046c-0.03964,-0.68922 0.48694,-1.28007 1.17616,-1.31972c0.68922,-0.03964 1.28007,0.48694 1.31972,1.17616c0.03964,0.68922 -0.48694,1.28007 -1.17616,1.31972c-0.68922,0.03964 -1.28007,-0.48694 -1.31972,-1.17616z" fill="#9d958a" stroke="none" stroke-width="0.5"/><path d="M377.38616,163.48514c-0.03964,-0.68922 0.48694,-1.28007 1.17616,-1.31972c0.68922,-0.03964 1.28007,0.48694 1.31972,1.17616c0.03964,0.68922 -0.48694,1.28007 -1.17616,1.31972c-0.68922,0.03964 -1.28007,-0.48694 -1.31972,-1.17616z" fill="#9d958a" stroke="none" stroke-width="0.5"/><path d="M362.88137,169.94522c-0.02379,-0.41354 0.29216,-0.76804 0.7057,-0.79183c0.41354,-0.02379 0.76804,0.29216 0.79183,0.7057c0.02379,0.41354 -0.29216,0.76804 -0.7057,0.79183c-0.41354,0.02379 -0.76804,-0.29216 -0.79183,-0.7057z" fill="#9d958a" stroke="none" stroke-width="0.5"/><path d="M363.82007,166.70327c-0.02379,-0.41354 0.29216,-0.76804 0.7057,-0.79183c0.41354,-0.02379 0.76804,0.29216 0.79183,0.7057c0.02379,0.41354 -0.29216,0.76804 -0.7057,0.79183c-0.41354,0.02379 -0.76804,-0.29216 -0.79183,-0.7057z" fill="#9d958a" stroke="none" stroke-width="0.5"/><path d="M369.77964,165.98543c-0.02379,-0.41354 0.29216,-0.76804 0.7057,-0.79183c0.41354,-0.02379 0.76804,0.29216 0.79183,0.7057c0.02379,0.41354 -0.29216,0.76804 -0.7057,0.79183c-0.41354,0.02379 -0.76804,-0.29216 -0.79183,-0.7057z" fill="#9d958a" stroke="none" stroke-width="0.5"/><path d="M379.00264,166.58012c-0.02379,-0.41354 0.29216,-0.76804 0.7057,-0.79183c0.41354,-0.02379 0.76804,0.29216 0.79183,0.7057c0.02379,0.41354 -0.29216,0.76804 -0.7057,0.79183c-0.41354,0.02379 -0.76804,-0.29216 -0.79183,-0.7057z" fill="#9d958a" stroke="none" stroke-width="0.5"/><path d="M365.28319,181.5041c-0.02553,-0.44388 0.1838,-0.84696 0.52017,-1.08826c-0.05621,-0.01442 -0.11139,-0.03158 -0.16537,-0.05133c-0.28022,0.51184 -0.81003,0.87208 -1.43552,0.90806c-0.16949,0.00975 -0.33473,-0.00496 -0.49228,-0.04107c-0.15705,0.75626 -0.8053,1.34365 -1.61316,1.39012c-0.77874,0.04479 -1.46779,-0.42676 -1.73386,-1.11761c-0.2576,0.18108 -0.56722,0.29489 -0.9047,0.3143c-0.91669,0.05273 -1.7091,-0.61004 -1.83359,-1.50377c-0.19083,0.70811 -0.81729,1.24693 -1.58961,1.29135c-0.47979,0.0276 -0.92552,-0.14081 -1.25928,-0.43574c-0.29152,0.40186 -0.75085,0.67707 -1.28208,0.718c-0.28895,0.2723 -0.67168,0.44829 -1.09907,0.47287c-0.63221,0.03636 -1.20529,-0.26758 -1.54095,-0.7529c-0.07394,0.5863 -0.55724,1.05495 -1.16844,1.0901c-0.68922,0.03964 -1.28007,-0.48694 -1.31972,-1.17616c-0.03964,-0.68922 0.48694,-1.28007 1.17616,-1.31972c0.39477,-0.02271 0.75728,0.14036 1.00241,0.41334c-0.00025,-0.12726 0.01325,-0.25169 0.03916,-0.37178c-0.2273,-0.27651 -0.3721,-0.62503 -0.39423,-1.00976c-0.05139,-0.89349 0.57695,-1.66891 1.43638,-1.82286c0.12632,-0.79475 0.7916,-1.42257 1.62792,-1.47068c0.96491,-0.0555 1.7921,0.68172 1.8476,1.64662c0.01694,0.2945 -0.03997,0.57618 -0.15466,0.827c0.2542,-0.17427 0.55769,-0.2836 0.88783,-0.30259c0.91669,-0.05273 1.7091,0.61004 1.83359,1.50377c0.19083,-0.70811 0.81729,-1.24693 1.58961,-1.29135c0.17935,-0.01032 0.35395,0.00676 0.51973,0.04759c0.26854,-0.55022 0.81844,-0.94319 1.47318,-0.98085c0.3745,-0.02154 0.72826,0.07634 1.0242,0.26059c0.11239,-0.81089 0.78471,-1.45614 1.63301,-1.50493c0.71649,-0.04121 1.35704,0.35466 1.6621,0.95629c0.1762,-0.07286 0.36739,-0.11794 0.56848,-0.12951c0.41091,-0.02363 0.79685,0.09649 1.10885,0.31675c0.29742,-0.41559 0.77338,-0.69789 1.32331,-0.72952c0.67848,-0.03902 1.28888,0.3139 1.61076,0.86232c0.2649,0.05681 0.50035,0.1981 0.67481,0.39573c-0.00962,-0.0594 -0.01627,-0.11985 -0.0198,-0.18124c-0.0555,-0.96491 0.68172,-1.7921 1.64662,-1.8476c0.24118,-0.01387 0.47376,0.02178 0.68784,0.09814c0.36925,0.1317 0.68345,0.38451 0.89178,0.71314c0.30324,0.14653 0.55915,0.37835 0.73478,0.66611c0.0192,-0.06666 0.04383,-0.13113 0.07342,-0.19288c-0.17109,-0.25255 -0.27834,-0.55313 -0.29713,-0.87981c-0.0555,-0.96491 0.68172,-1.7921 1.64662,-1.8476c0.96491,-0.0555 1.7921,0.68172 1.8476,1.64662c0.038,0.66066 -0.29563,1.25677 -0.81952,1.58481c0.01924,0.67335 -0.50081,1.24402 -1.17774,1.28296c-0.41183,0.02369 -0.78854,-0.1548 -1.03351,-0.44934c-0.01739,0.12987 -0.04914,0.25555 -0.09368,0.37527c0.37197,0.1984 0.63465,0.5802 0.66063,1.03187c0.03964,0.68922 -0.48694,1.28007 -1.17616,1.31972c-0.68922,0.03964 -1.28007,-0.48694 -1.31972,-1.17616c-0.00088,-0.01525 -0.00148,-0.03048 -0.0018,-0.04563c-0.53604,-0.0598 -1.00426,-0.36375 -1.28299,-0.80342c-0.26144,-0.12633 -0.48769,-0.31606 -0.65765,-0.55036c0.00023,0.00342 0.00043,0.00685 0.00063,0.01028c0.03964,0.68922 -0.48694,1.28007 -1.17616,1.31972c-0.16102,0.00926 -0.31668,-0.01239 -0.4612,-0.0598c-0.22518,0.12684 -0.48204,0.20556 -0.75746,0.2214c-0.41091,0.02363 -0.79685,-0.09649 -1.10885,-0.31675c-0.16391,0.22904 -0.38206,0.4176 -0.63693,0.54601c0.42052,0.18145 0.7254,0.58819 0.75349,1.07657c0.03964,0.68922 -0.48694,1.28007 -1.17616,1.31972c-0.68922,0.03964 -1.28007,-0.48694 -1.31972,-1.17616z" fill="#c8bfb0" stroke="none" stroke-width="0.5"/><path d="M345.18221,182.68437c-0.25107,0.01444 -0.48907,-0.04625 -0.69215,-0.16258c-0.08764,0.01887 -0.17787,0.03126 -0.27018,0.03656c-0.44322,0.02549 -0.85738,-0.11627 -1.18105,-0.37053c-0.29238,0.2897 -0.68756,0.47801 -1.13077,0.5035c-0.96491,0.0555 -1.7921,-0.68172 -1.8476,-1.64662c-0.0555,-0.96491 0.68172,-1.7921 1.64662,-1.8476c0.15497,-0.00891 0.3064,0.00262 0.45164,0.03227c0.29911,-0.38723 0.75808,-0.6476 1.28493,-0.6779c0.02795,-0.00161 0.0558,-0.00255 0.08351,-0.00284c0.03364,-0.0039 0.05248,-0.00498 0.05248,-0.00498c0.58929,-0.03389 1.17857,-0.06779 1.76786,-0.10168l0.32301,0.02262c0.22509,-0.12671 0.48181,-0.20536 0.75708,-0.22119c0.96491,-0.0555 1.7921,0.68172 1.8476,1.64662c0.01816,0.31571 -0.04855,0.61669 -0.18033,0.8807c-0.33654,1.37017 -1.83473,1.24336 -1.83473,1.24336l-0.03877,-0.00424c-0.19622,0.37931 -0.58191,0.64824 -1.03917,0.67454z" fill="#c8bfb0" stroke="none" stroke-width="0.5"/><path d="M342.62472,186.08189c-0.03964,-0.68922 0.48694,-1.28007 1.17616,-1.31972c0.68922,-0.03964 1.28007,0.48694 1.31972,1.17616c0.03964,0.68922 -0.48694,1.28007 -1.17616,1.31972c-0.68922,0.03964 -1.28007,-0.48694 -1.31972,-1.17616z" fill="#c8bfb0" stroke="none" stroke-width="0.5"/><path d="M352.12833,185.26239c-0.03964,-0.68922 0.48694,-1.28007 1.17616,-1.31972c0.68922,-0.03964 1.28007,0.48694 1.31972,1.17616c0.03964,0.68922 -0.48694,1.28007 -1.17616,1.31972c-0.68922,0.03964 -1.28007,-0.48694 -1.31972,-1.17616z" fill="#c8bfb0" stroke="none" stroke-width="0.5"/><path d="M357.89765,183.56616c-0.03964,-0.68922 0.48694,-1.28007 1.17616,-1.31972c0.68922,-0.03964 1.28007,0.48694 1.31972,1.17616c0.03964,0.68922 -0.48694,1.28007 -1.17616,1.31972c-0.68922,0.03964 -1.28007,-0.48694 -1.31972,-1.17616z" fill="#c8bfb0" stroke="none" stroke-width="0.5"/><path d="M347.53991,191.66606c-0.02378,-0.41353 0.29217,-0.76804 0.7057,-0.79183c0.41353,-0.02378 0.76804,0.29217 0.79183,0.7057c0.02378,0.41353 -0.29217,0.76804 -0.7057,0.79183c-0.41353,0.02378 -0.76804,-0.29217 -0.79183,-0.7057z" fill="#c8bfb0" stroke="none" stroke-width="0.5"/><path d="M348.75723,184.36477c-0.02378,-0.41353 0.29217,-0.76804 0.7057,-0.79183c0.41353,-0.02378 0.76804,0.29217 0.79183,0.7057c0.02378,0.41353 -0.29217,0.76804 -0.7057,0.79183c-0.41353,0.02378 -0.76804,-0.29217 -0.79183,-0.7057z" fill="#c8bfb0" stroke="none" stroke-width="0.5"/><path d="M351.83983,188.14421c-0.02378,-0.41353 0.29217,-0.76804 0.7057,-0.79183c0.41353,-0.02378 0.76804,0.29217 0.79183,0.7057c0.02378,0.41353 -0.29217,0.76804 -0.7057,0.79183c-0.41353,0.02378 -0.76804,-0.29217 -0.79183,-0.7057z" fill="#c8bfb0" stroke="none" stroke-width="0.5"/><path d="M353.51864,188.86628c-0.02378,-0.41353 0.29217,-0.76804 0.7057,-0.79183c0.41353,-0.02378 0.76804,0.29217 0.79183,0.7057c0.02378,0.41353 -0.29217,0.76804 -0.7057,0.79183c-0.41353,0.02378 -0.76804,-0.29217 -0.79183,-0.7057z" fill="#c8bfb0" stroke="none" stroke-width="0.5"/><path d="M357.57663,192.99893c-0.02378,-0.41353 0.29217,-0.76804 0.7057,-0.79183c0.41353,-0.02378 0.76804,0.29217 0.79183,0.7057c0.02378,0.41353 -0.29217,0.76804 -0.7057,0.79183c-0.41353,0.02378 -0.76804,-0.29217 -0.79183,-0.7057z" fill="#c8bfb0" stroke="none" stroke-width="0.5"/><path d="M358.61583,187.34516c-0.02378,-0.41353 0.29217,-0.76804 0.7057,-0.79183c0.41353,-0.02378 0.76804,0.29217 0.79183,0.7057c0.02378,0.41353 -0.29217,0.76804 -0.7057,0.79183c-0.41353,0.02378 -0.76804,-0.29217 -0.79183,-0.7057z" fill="#c8bfb0" stroke="none" stroke-width="0.5"/><path d="M367.64107,185.32522c-0.02378,-0.41353 0.29217,-0.76804 0.7057,-0.79183c0.41353,-0.02378 0.76804,0.29217 0.79183,0.7057c0.02378,0.41353 -0.29217,0.76804 -0.7057,0.79183c-0.41353,0.02378 -0.76804,-0.29217 -0.79183,-0.7057z" fill="#c8bfb0" stroke="none" stroke-width="0.5"/><path d="M369.94507,185.05626c-0.02378,-0.41353 0.29217,-0.76804 0.7057,-0.79183c0.41353,-0.02378 0.76804,0.29217 0.79183,0.7057c0.02378,0.41353 -0.29217,0.76804 -0.7057,0.79183c-0.41353,0.02378 -0.76804,-0.29217 -0.79183,-0.7057z" fill="#c8bfb0" stroke="none" stroke-width="0.5"/><path d="M352.8295,184.88098c-0.18509,-0.46448 0.27939,-0.64958 0.27939,-0.64958l0.40925,-0.13395c0.37198,-0.65681 -0.09123,-1.4838 -0.13696,-2.21949c-0.00854,-1.41857 -2.1929,-3.21314 -2.52435,-4.84856c-0.17251,-0.85122 -0.11153,-1.85422 0.65673,-2.40854c0.39866,-0.28765 1.43395,-0.15446 1.4052,-0.83461c-0.06091,-1.44111 -0.9919,-2.43721 -0.58289,-4.00826c0,0 0.13061,-0.48264 0.61326,-0.35203c0.48264,0.13061 0.35203,0.61326 0.35203,0.61326c-0.40468,1.42386 0.77267,2.49718 0.61627,3.79889c-0.23404,1.94788 -2.51765,0.86838 -2.07985,2.99594c0.38046,1.84889 2.38825,3.24039 2.54197,4.98648c0.06818,1.30974 0.51823,1.81062 -0.20976,3.03544l-0.69069,0.30437c0,0 -0.46448,0.18509 -0.64958,-0.27939z" fill="#928673" stroke="none" stroke-width="0.5"/><path d="M367.81454,194.14552c-0.13061,0.48264 -0.61326,0.35203 -0.61326,0.35203l-0.67887,-0.19757c-1.00345,-0.94957 -0.71567,-3.88132 0.14413,-5.06082c0.32554,-0.44659 1.47016,-0.81809 1.74752,-1.33614c0.66857,-1.24874 0.84096,-4.25127 1.12442,-5.76315c0.31148,-1.64146 1.47931,-2.87523 1.80755,-4.41067c0.30348,-1.41962 0.16449,-3.2581 0.69678,-4.61731c0.42835,-1.09378 1.91877,-1.03344 2.62961,-1.81394c0.76924,-0.84464 0.97587,-3.07048 1.32108,-4.17582c0.2692,-1.71406 -0.04445,-3.56032 -0.13693,-5.28953c-0.03074,-0.57492 -0.49707,-1.55177 -0.24889,-2.09727c1.09074,-2.3976 4.56748,-2.36276 6.325,-3.73214c0,0 0.39942,-0.30078 0.7002,0.09864c0.30078,0.39942 -0.09864,0.7002 -0.09864,0.7002c-1.85991,1.36507 -4.54262,1.32722 -6.01925,3.35377c-0.32481,0.44578 0.30624,1.06886 0.33993,1.61939c0.11217,1.83316 0.39221,3.7549 0.11278,5.57265c-0.40871,1.3212 -0.63208,3.57313 -1.54874,4.61547c-0.42463,0.48285 -2.31244,0.92203 -2.43181,1.47761c-0.30125,1.40202 -0.32975,3.05606 -0.65628,4.4618c-0.36795,1.58402 -1.49493,2.76368 -1.80991,4.42362c-0.31489,1.64177 -0.46399,4.57931 -1.19958,5.99718c-0.34486,0.66473 -1.44516,0.97423 -1.84015,1.49559c-0.35094,0.46322 -0.91465,3.2957 -0.4828,3.60148l0.46408,0.11174c0,0 0.48264,0.13061 0.35203,0.61326z" fill="#928673" stroke="none" stroke-width="0.5"/><g><g><path d="M255.34766,159.89418c-1.91227,-33.2469 25.24998,-61.8503 60.66856,-63.88748c0.69305,-0.03986 6.38732,-0.30321 11.33055,-1.61336c4.07627,-1.08037 7.61986,-3.25501 7.61986,-3.25501c0,0 -0.21828,3.57742 1.99261,6.843c1.51229,2.23373 6.05895,6.42759 6.05895,6.42759c0,0 -1.0983,6.73975 0.28703,11.4013c0.78697,2.64809 5.03639,8.38761 5.03639,8.38761c0,0 -3.40065,5.1458 -2.84369,7.63014c0.97643,4.35538 4.85041,11.67165 4.85041,11.67165c0,0 -8.25438,4.82916 -8.2867,8.41128c-0.08555,9.48198 6.76039,16.94797 6.76039,16.94797c0,0 -9.30138,9.35107 -10.00207,14.43628c-1.06805,7.75138 8.23448,15.66687 8.23448,15.66687c0,0 -5.42718,5.6396 -5.02245,7.99258c1.68703,9.80814 8.62479,15.48126 8.62479,15.48126c0,0 -25.62081,-6.15196 -28.01439,-6.01429c-35.41858,2.03718 -65.38244,-23.28049 -67.29471,-56.52739z" fill="#e00d0d" stroke="#000000" stroke-width="0"/><g fill="#c10c0c"><path d="M255.34766,159.89418c-1.91227,-33.2469 25.24998,-61.8503 60.66856,-63.88748c0.69305,-0.03986 6.38732,-0.30321 11.33055,-1.61336c4.07627,-1.08037 7.61986,-3.25501 7.61986,-3.25501c0,0 -0.21828,3.57742 1.99261,6.843c1.51229,2.23373 6.05895,6.42759 6.05895,6.42759c0,0 -1.0983,6.73975 0.28703,11.4013c0.78697,2.64809 5.03639,8.38761 5.03639,8.38761c0,0 -3.40065,5.1458 -2.84369,7.63014c0.97643,4.35538 4.85041,11.67165 4.85041,11.67165c0,0 -8.25438,4.82916 -8.2867,8.41128c-0.08555,9.48198 6.76039,16.94797 6.76039,16.94797c0,0 -6.1828,6.21582 -8.84642,11.26782c-0.04425,0.0839 -78.42385,2.64657 -78.4351,2.62451c-3.54407,-6.94271 -5.72128,-14.6588 -6.19282,-22.85703z" stroke="#000000" stroke-width="0"/><path d="M265.12472,182.87306c-0.00843,-0.14651 0.00142,-0.28985 0.02757,-0.4278c-0.2284,0.64378 -0.82471,1.12086 -1.54947,1.16254c-0.96491,0.0555 -1.7921,-0.68172 -1.8476,-1.64662c-0.0555,-0.96491 0.68172,-1.7921 1.64662,-1.8476c0.96491,-0.0555 1.7921,0.68172 1.8476,1.64662c0.00843,0.14651 -0.00142,0.28985 -0.02757,0.4278c0.2284,-0.64378 0.82471,-1.12086 1.54947,-1.16254c0.58314,-0.03354 1.11599,0.22245 1.45859,0.64326c0.2921,-0.45731 0.79208,-0.77271 1.37522,-0.80625c0.96491,-0.0555 1.7921,0.68172 1.8476,1.64662c0.0555,0.96491 -0.68172,1.7921 -1.64662,1.8476c-0.58314,0.03354 -1.11599,-0.22245 -1.45859,-0.64326c-0.2921,0.45731 -0.79208,0.77271 -1.37522,0.80625c-0.96491,0.0555 -1.7921,-0.68172 -1.8476,-1.64662z" stroke="none" stroke-width="0.5"/><path d="M272.21422,184.36075c-0.01132,-0.19679 0.05431,-0.38024 0.17077,-0.52102c-0.17627,-0.25521 -0.2869,-0.56051 -0.30601,-0.8928c-0.04105,-0.7137 0.35159,-1.35206 0.94927,-1.65853c0.29864,-0.39808 0.76419,-0.66678 1.29992,-0.6976c0.96491,-0.0555 1.7921,0.68172 1.8476,1.64662c0.03632,0.63152 -0.26692,1.20405 -0.75132,1.53985c0.0196,0.07682 0.03216,0.15662 0.03688,0.23875c0.03964,0.68922 -0.48694,1.28007 -1.17616,1.31972c-0.37023,0.02129 -0.71207,-0.1208 -0.95534,-0.36371c-0.0963,0.05409 -0.2061,0.08765 -0.32379,0.09442c-0.41353,0.02378 -0.76804,-0.29217 -0.79183,-0.7057z" stroke="none" stroke-width="0.5"/><path d="M291.3169,182.31428c0.03964,0.68922 -0.48694,1.28007 -1.17616,1.31972c-0.07683,0.00442 -0.15244,0.00181 -0.2262,-0.00729c-0.03197,0.00955 -0.06436,0.01823 -0.09712,0.02598c-0.25263,0.59212 -0.82373,1.02198 -1.51001,1.06145c-0.3029,0.01742 -0.59222,-0.04327 -0.84837,-0.16461c-0.08462,0.02353 -0.17302,0.03844 -0.26427,0.04369c-0.68922,0.03964 -1.28007,-0.48694 -1.31972,-1.17616c-0.00962,-0.16727 0.01411,-0.32874 0.06542,-0.47796c-0.0713,-0.09793 -0.13274,-0.20367 -0.18281,-0.31586c-0.18669,-0.26027 -0.30421,-0.57486 -0.32397,-0.9183c-0.0555,-0.96491 0.68172,-1.7921 1.64662,-1.8476c0.562,-0.03232 1.07729,0.20427 1.42059,0.59814c0.23757,-0.14512 0.5133,-0.23551 0.81065,-0.25262c0.93525,-0.05379 1.74114,0.63716 1.84032,1.55834c0.09463,0.1637 0.15341,0.35143 0.16501,0.55308z" stroke="none" stroke-width="0.5"/><path d="M335.5792,180.24231c-0.03469,-0.60316 0.24038,-1.15252 0.68719,-1.49321c0.28721,-0.48293 0.8014,-0.81917 1.40458,-0.85386c0.96491,-0.0555 1.7921,0.68172 1.8476,1.64662c0.03469,0.60316 -0.24038,1.15252 -0.68719,1.49321c-0.28721,0.48293 -0.8014,0.81917 -1.40458,0.85386c-0.96491,0.0555 -1.7921,-0.68172 -1.8476,-1.64662z" stroke="none" stroke-width="0.5"/><path d="M277.26524,182.49068c-0.0555,-0.96491 0.68172,-1.7921 1.64662,-1.8476c0.96491,-0.0555 1.7921,0.68172 1.8476,1.64662c0.0555,0.96491 -0.68172,1.7921 -1.64662,1.8476c-0.96491,0.0555 -1.7921,-0.68172 -1.8476,-1.64662z" stroke="none" stroke-width="0.5"/><path d="M305.73393,183.06461c0.03964,0.68922 -0.48694,1.28007 -1.17616,1.31972c-0.46605,0.02681 -0.88712,-0.2053 -1.1232,-0.57151c-0.10574,0.0266 -0.2155,0.04366 -0.32838,0.05015c-0.05051,0.0029 -0.10063,0.00363 -0.15029,0.00228c-0.03279,0.89165 -0.7396,1.62845 -1.64837,1.68072c-0.39831,0.02291 -0.77315,-0.08926 -1.07994,-0.29677c-0.06455,0.01425 -0.13107,0.02355 -0.19919,0.02746c-0.48584,0.02794 -0.9228,-0.22547 -1.15227,-0.61888c-0.12338,0.18873 -0.28243,0.35266 -0.46819,0.48175c-0.07512,0.58499 -0.55786,1.05219 -1.16808,1.08729c-0.68922,0.03964 -1.28007,-0.48694 -1.31972,-1.17616c-0.00748,-0.13004 0.0052,-0.25657 0.03532,-0.37657c-0.05484,-0.08187 -0.10301,-0.16871 -0.14365,-0.25981c-0.18669,-0.26027 -0.30421,-0.57486 -0.32397,-0.9183c-0.00311,-0.05411 -0.00374,-0.10778 -0.00195,-0.16092l-0.65045,0.12094c0.01884,0.07518 0.03092,0.1532 0.03553,0.23341c0.03964,0.68922 -0.48694,1.28007 -1.17616,1.31972c-0.68922,0.03964 -1.28007,-0.48694 -1.31972,-1.17616c-0.00661,-0.115 0.00253,-0.22727 0.02557,-0.33469c-0.44407,-0.29415 -0.74886,-0.78663 -0.78179,-1.35931c-0.0555,-0.96491 0.68172,-1.7921 1.64662,-1.8476c0.58407,-0.03359 1.11768,0.22327 1.46023,0.64526l0.54677,-0.09951c0.44563,-0.02644 0.89125,-0.05288 1.33688,-0.07932c0,0 1.14425,-0.06581 1.3044,1.02428c0.00954,0.00402 0.01903,0.00812 0.02848,0.01231c0.09312,-0.83211 0.77462,-1.50068 1.6387,-1.55038c0.2598,-0.01494 0.50961,0.02758 0.73708,0.11655c0.01962,-0.00179 0.03934,-0.00325 0.05915,-0.00439c0.38208,-0.02198 0.74257,0.08034 1.0421,0.27188c0.0767,-0.0149 0.15531,-0.02484 0.23548,-0.02945c0.14763,-0.00849 0.29202,0.00157 0.43093,0.02817c0.17593,-0.1089 0.37305,-0.18768 0.58459,-0.22871c0.27558,-0.22456 0.62192,-0.36751 1.00395,-0.38948c0.96491,-0.0555 1.7921,0.68172 1.8476,1.64662c0.01336,0.23228 -0.01921,0.45658 -0.08985,0.66405c0.17402,0.20118 0.28545,0.45925 0.30191,0.74534z" stroke="none" stroke-width="0.5"/><path d="M313.32699,183.25969c0.03964,0.68922 -0.48694,1.28007 -1.17616,1.31972c-0.5748,0.03306 -1.08118,-0.32771 -1.25647,-0.8482c-0.27197,0.21455 -0.6102,0.35071 -0.98228,0.37211c-0.53994,0.03106 -1.03675,-0.1861 -1.37936,-0.55249l-0.7035,0.04046c0,0 -1.74711,0.10049 -1.8476,-1.64662c-0.10049,-1.74711 1.64662,-1.8476 1.64662,-1.8476l2.83381,-0.16299c0,0 0.86511,-0.04976 1.41283,0.52952c0.22876,-0.10817 0.42739,-0.1321 0.42739,-0.1321c1.45122,-0.17352 2.83995,-0.43868 4.22717,-0.75224c0.15995,-0.08938 0.34212,-0.14483 0.53734,-0.15606c0.04676,-0.00269 0.09306,-0.00277 0.13878,-0.00038c0.75202,-0.17775 1.50652,-0.36762 2.27317,-0.56276l0.93627,-0.23831c0,0 1.21137,-0.30833 1.5197,0.90305c0.02824,0.11093 0.04373,0.21429 0.04857,0.31053c0.1989,0.24246 0.33443,0.54015 0.37958,0.86898c0.09373,-0.83147 0.77494,-1.49931 1.63855,-1.54899c0.96491,-0.0555 1.7921,0.68172 1.8476,1.64662c0.0555,0.96491 -0.68172,1.7921 -1.64662,1.8476c-0.15831,0.00911 -0.31292,-0.00313 -0.46101,-0.0342c0.00124,0.01499 0.0023,0.03005 0.00317,0.04515c0.0555,0.96491 -0.68172,1.7921 -1.64662,1.8476c-0.96491,0.0555 -1.7921,-0.68172 -1.8476,-1.64662c-0.00404,-0.07023 -0.00388,-0.13974 0.00026,-0.20827c-0.20247,-0.04476 -0.39247,-0.1248 -0.56279,-0.23368c-0.52173,-0.04007 -0.98457,-0.31104 -1.27932,-0.71558c-0.1211,0.0294 -0.24209,0.05856 -0.36298,0.08742c0.51893,0.12752 0.91686,0.58098 0.94915,1.14233c0.03964,0.68922 -0.48694,1.28007 -1.17616,1.31972c-0.06148,0.00354 -0.12217,0.00257 -0.18177,-0.00262c-0.29801,0.33464 -0.72372,0.55552 -1.20643,0.58329c-0.96491,0.0555 -1.7921,-0.68172 -1.8476,-1.64662c-0.01382,-0.24022 0.0215,-0.47192 0.09724,-0.68529c-0.49536,0.08755 -0.9946,0.16689 -1.50003,0.23645c0.08415,0.156 0.13628,0.33244 0.14713,0.52107z" stroke="none" stroke-width="0.5"/><path d="M272.85887,187.79867c-0.03964,-0.68922 0.48694,-1.28007 1.17616,-1.31972c0.68922,-0.03964 1.28007,0.48694 1.31972,1.17616c0.03964,0.68922 -0.48694,1.28007 -1.17616,1.31972c-0.68922,0.03964 -1.28007,-0.48694 -1.31972,-1.17616z" stroke="none" stroke-width="0.5"/><path d="M284.19023,181.78803c0.68922,-0.03964 1.28007,0.48694 1.31972,1.17616c0.03964,0.68922 -0.48694,1.28007 -1.17616,1.31972c-0.38957,0.02241 -0.74772,-0.13609 -0.99266,-0.40261c-0.04324,0.61816 -0.5402,1.12259 -1.1752,1.15912c-0.68922,0.03964 -1.28007,-0.48694 -1.31972,-1.17616c-0.03964,-0.68922 0.48694,-1.28007 1.17616,-1.31972c0.38957,-0.02241 0.74772,0.13609 0.99266,0.40261c0.04324,-0.61816 0.5402,-1.12259 1.1752,-1.15912z" stroke="none" stroke-width="0.5"/><path d="M302.40739,187.52072c-0.01848,-0.32127 0.1681,-0.60692 0.44618,-0.72954c-0.23316,-0.21236 -0.38663,-0.51257 -0.40617,-0.8523c-0.03964,-0.68922 0.48694,-1.28007 1.17616,-1.31972c0.68922,-0.03964 1.28007,0.48694 1.31972,1.17616c0.0388,0.67451 -0.46471,1.2548 -1.13225,1.31643c0.05378,0.09608 0.08714,0.20554 0.09388,0.32284c0.02378,0.41353 -0.29217,0.76804 -0.7057,0.79183c-0.41353,0.02378 -0.76804,-0.29217 -0.79183,-0.7057z" stroke="none" stroke-width="0.5"/><path d="M310.50369,185.94936c-0.03964,-0.68922 0.48694,-1.28007 1.17616,-1.31972c0.68922,-0.03964 1.28007,0.48694 1.31972,1.17616c0.03964,0.68922 -0.48694,1.28007 -1.17616,1.31972c-0.68922,0.03964 -1.28007,-0.48694 -1.31972,-1.17616z" stroke="none" stroke-width="0.5"/><path d="M332.94832,182.93778c0.0379,-0.0057 0.07639,-0.0097 0.11539,-0.01195c0.68922,-0.03964 1.28007,0.48694 1.31972,1.17616c0.03964,0.68922 -0.48694,1.28007 -1.17616,1.31972c-0.68922,0.03964 -1.28007,-0.48694 -1.31972,-1.17616c-0.01856,-0.32262 0.08696,-0.62369 0.27515,-0.85675c-0.25584,-0.03239 -0.47429,-0.19471 -0.58244,-0.42194c-0.12918,0.03889 -0.26494,0.06337 -0.40554,0.07145c-0.809,0.04653 -1.52119,-0.46419 -1.76294,-1.19913c-0.11425,0.03075 -0.23336,0.05031 -0.35614,0.05738c-0.96491,0.0555 -1.7921,-0.68172 -1.8476,-1.64662c-0.0555,-0.96491 0.68172,-1.7921 1.64662,-1.8476c0.46706,-0.02686 0.90186,0.13201 1.23249,0.41254c0.31795,0.14281 0.56753,0.41522 0.67753,0.75375c0.0683,-0.01218 0.13806,-0.02045 0.20907,-0.02454c0.45524,-0.02618 0.87983,0.12408 1.20718,0.39147c0.29454,-0.30315 0.6991,-0.50111 1.15434,-0.52729c0.96491,-0.0555 1.7921,0.68172 1.8476,1.64662c0.0555,0.96491 -0.68172,1.7921 -1.64662,1.8476c-0.19237,0.01106 -0.37926,-0.00938 -0.55566,-0.05686c-0.00877,0.03158 -0.01957,0.06235 -0.03225,0.09216z" stroke="none" stroke-width="0.5"/><path d="M282.7372,188.81004c-0.0232,-0.40338 0.27686,-0.75062 0.67544,-0.78949c-0.06268,-0.10212 -0.10173,-0.22077 -0.10909,-0.34877c-0.02378,-0.41353 0.29217,-0.76804 0.7057,-0.79183c0.41353,-0.02378 0.76804,0.29217 0.79183,0.7057c0.0232,0.40338 -0.27686,0.75062 -0.67544,0.78949c0.06268,0.10212 0.10173,0.22077 0.10909,0.34877c0.02378,0.41353 -0.29217,0.76804 -0.7057,0.79183c-0.41353,0.02378 -0.76804,-0.29217 -0.79183,-0.7057z" stroke="none" stroke-width="0.5"/><path d="M277.2904,190.22901c-0.02378,-0.41353 0.29217,-0.76804 0.7057,-0.79183c0.41353,-0.02378 0.76804,0.29217 0.79183,0.7057c0.02378,0.41353 -0.29217,0.76804 -0.7057,0.79183c-0.41353,0.02378 -0.76804,-0.29217 -0.79183,-0.7057z" stroke="none" stroke-width="0.5"/><path d="M304.68041,191.33885c-0.02378,-0.41353 0.29217,-0.76804 0.7057,-0.79183c0.41353,-0.02378 0.76804,0.29217 0.79183,0.7057c0.02378,0.41353 -0.29217,0.76804 -0.7057,0.79183c-0.41353,0.02378 -0.76804,-0.29217 -0.79183,-0.7057z" stroke="none" stroke-width="0.5"/><path d="M320.41825,187.59047c-0.02378,-0.41353 0.29217,-0.76804 0.7057,-0.79183c0.41353,-0.02378 0.76804,0.29217 0.79183,0.7057c0.02378,0.41353 -0.29217,0.76804 -0.7057,0.79183c-0.41353,0.02378 -0.76804,-0.29217 -0.79183,-0.7057z" stroke="none" stroke-width="0.5"/></g><g fill="#b70b0b"><path d="M255.34766,159.89418c-1.91227,-33.2469 25.24998,-61.8503 60.66856,-63.88748c0.69305,-0.03986 6.38732,-0.30321 11.33055,-1.61336c4.07627,-1.08037 7.61986,-3.25501 7.61986,-3.25501c0,0 -0.21828,3.57742 1.99261,6.843c1.51229,2.23373 6.05895,6.42759 6.05895,6.42759c0,0 -1.0983,6.73975 0.28703,11.4013c0.78697,2.64809 5.03639,8.38761 5.03639,8.38761c0,0 -3.40065,5.1458 -2.84369,7.63014c0.97643,4.35538 4.85041,11.67165 4.85041,11.67165c0,0 -8.25438,4.82916 -8.2867,8.41128c-0.03088,3.42275 0.84143,6.58282 1.96889,9.22386c0.04178,0.09784 -88.07389,4.45159 -88.12522,4.11282c-0.2665,-1.75891 -0.4536,-3.54442 -0.55765,-5.35341z" stroke="#000000" stroke-width="0"/><path d="M259.06345,162.35627c0.70855,-0.04075 1.34284,0.34594 1.65184,0.93636c0.30908,0.29536 0.51131,0.70398 0.53779,1.16445c0.0555,0.96491 -0.68172,1.7921 -1.64662,1.8476c-0.33413,0.01922 -0.65175,-0.05662 -0.92653,-0.20405c-0.29937,0.36941 -0.74734,0.61624 -1.25944,0.6457c-0.96491,0.0555 -1.47723,-0.69983 -1.53273,-1.66473c-0.0555,-0.96491 0.36685,-1.77399 1.33175,-1.82949c0.1376,-0.00791 0.27241,0.00029 0.40257,0.02298c0.27866,-0.51754 0.8115,-0.88258 1.44136,-0.91881z" stroke="none" stroke-width="0.5"/><path d="M271.50783,164.51064c0.68922,-0.03964 1.28007,0.48694 1.31972,1.17616c0.03964,0.68922 -0.48694,1.28007 -1.17616,1.31972c-0.44407,0.02554 -0.84729,-0.18397 -1.08857,-0.52059c-0.20307,0.09947 -0.4289,0.16097 -0.66882,0.17477c-0.96491,0.0555 -1.7921,-0.68172 -1.8476,-1.64662c-0.0555,-0.96491 0.68172,-1.7921 1.64662,-1.8476c0.86147,-0.04955 1.61316,0.53277 1.80393,1.34484c0.00362,-0.00024 0.00726,-0.00047 0.01089,-0.00068z" stroke="none" stroke-width="0.5"/><path d="M262.44565,163.75666c-0.0555,-0.96491 0.68172,-1.7921 1.64662,-1.8476c0.96491,-0.0555 1.7921,0.68172 1.8476,1.64662c0.0555,0.96491 -0.68172,1.7921 -1.64662,1.8476c-0.96491,0.0555 -1.7921,-0.68172 -1.8476,-1.64662z" stroke="none" stroke-width="0.5"/><path d="M307.57349,165.41424c-0.31182,0.01794 -0.6035,-0.08003 -0.83312,-0.25652c-0.22308,0.12397 -0.47686,0.20087 -0.74872,0.21651c-0.96491,0.0555 -1.7921,-0.68172 -1.8476,-1.64662c-0.0555,-0.96491 0.68172,-1.7921 1.64662,-1.8476c0.68569,-0.03944 1.30184,0.32144 1.62093,0.87985c0.02336,-0.90019 0.73374,-1.64711 1.64897,-1.69975c0.4128,-0.02374 0.8004,0.0976 1.11314,0.31979c0.15092,-0.05289 0.31168,-0.08583 0.47931,-0.09547c0.05306,-0.00305 0.10571,-0.00371 0.15783,-0.00206c0.05159,-0.00761 0.10396,-0.013 0.15703,-0.01605c0.96491,-0.0555 1.7921,0.68172 1.8476,1.64662c0.0555,0.96491 -0.68172,1.7921 -1.64662,1.8476c-0.05306,0.00305 -0.10571,0.00371 -0.15783,0.00206c-0.05159,0.00761 -0.10396,0.013 -0.15703,0.01605c-0.30035,0.01728 -0.58736,-0.04225 -0.8419,-0.16155c-0.09456,0.5625 -0.56747,1.00543 -1.16101,1.03957c-0.34744,0.01998 -0.66988,-0.10393 -0.90932,-0.32002c-0.11524,0.04329 -0.23889,0.07015 -0.36826,0.07759z" stroke="none" stroke-width="0.5"/><path d="M337.01152,161.20535c-0.0555,-0.96491 0.68172,-1.7921 1.64662,-1.8476c0.16367,-0.00941 0.32337,0.00398 0.47601,0.03742c0.14781,-0.05072 0.30493,-0.08234 0.46858,-0.09175c0.71741,-0.04126 1.3587,0.35569 1.66328,0.95861c0.18351,-0.07949 0.38386,-0.12863 0.59512,-0.14079c0.96491,-0.0555 1.7921,0.68172 1.8476,1.64662c0.0555,0.96491 -0.68172,1.7921 -1.64662,1.8476c-0.71741,0.04126 -1.3587,-0.35569 -1.66328,-0.95861c-0.18351,0.07949 -0.38386,0.12863 -0.59512,0.14079c-0.16367,0.00941 -0.32337,-0.00398 -0.47601,-0.03742c-0.14781,0.05072 -0.30493,0.08234 -0.46858,0.09175c-0.96491,0.0555 -1.7921,-0.68172 -1.8476,-1.64662z" stroke="none" stroke-width="0.5"/><path d="M330.8876,161.56915c0.68922,-0.03964 1.28007,0.48694 1.31972,1.17616c0.03964,0.68922 -0.48694,1.28007 -1.17616,1.31972c-0.5748,0.03306 -1.08118,-0.32771 -1.25647,-0.8482c-0.20829,0.16432 -0.45544,0.28265 -0.7269,0.33867c-0.14601,0.20314 -0.33475,0.37426 -0.55395,0.49961c-0.25307,0.59107 -0.82365,1.01997 -1.50914,1.0594c-0.96491,0.0555 -1.7921,-0.68172 -1.8476,-1.64662c-0.03943,-0.68549 0.32123,-1.30148 0.87938,-1.62065c0.22091,-0.51595 0.68375,-0.90833 1.25377,-1.02596c0.29755,-0.41397 0.77257,-0.69501 1.32119,-0.72656c0.94509,-0.05436 1.75808,0.65178 1.84321,1.58749c0.13857,-0.06411 0.29128,-0.10375 0.45296,-0.11305z" stroke="none" stroke-width="0.5"/><path d="M334.27324,164.83785c-0.00807,-0.14037 0.023,-0.27394 0.08375,-0.39008c-0.04994,-0.08641 -0.0899,-0.17952 -0.11819,-0.27783c-0.76803,-0.14802 -1.36763,-0.80151 -1.4146,-1.61806c-0.0555,-0.96491 0.68172,-1.7921 1.64662,-1.8476c0.96491,-0.0555 1.7921,0.68172 1.8476,1.64662c0.01063,0.18482 -0.00783,0.36459 -0.05139,0.53484c0.2414,0.21303 0.40093,0.51867 0.42088,0.86549c0.03531,0.61388 -0.37858,1.14973 -0.9565,1.28755c-0.09615,0.2792 -0.35328,0.48676 -0.66634,0.50477c-0.41353,0.02378 -0.76804,-0.29217 -0.79183,-0.7057z" stroke="none" stroke-width="0.5"/><path d="M319.84743,164.40395c-0.00621,-0.10794 0.00147,-0.21348 0.0215,-0.31485c-0.35024,-0.29892 -0.58269,-0.73476 -0.61122,-1.23077c-0.00461,-0.08009 -0.00375,-0.15923 0.00224,-0.23706c-0.01487,-0.07663 -0.0248,-0.15515 -0.02941,-0.23524c-0.0555,-0.96491 0.68172,-1.7921 1.64662,-1.8476c0.96491,-0.0555 1.7921,0.68172 1.8476,1.64662c0.00461,0.08009 0.00375,0.15923 -0.00224,0.23706c0.01487,0.07663 0.0248,0.15515 0.02941,0.23524c0.00508,0.0883 0.00352,0.17546 -0.00425,0.26097c0.46775,0.15895 0.81593,0.58866 0.84604,1.1122c0.03396,0.59043 -0.34763,1.10868 -0.89102,1.27003c0.0145,0.06518 0.02395,0.13238 0.02791,0.2012c0.03964,0.68922 -0.48694,1.28007 -1.17616,1.31972c-0.68922,0.03964 -1.28007,-0.48694 -1.31972,-1.17616c-0.00744,-0.12938 0.00507,-0.25528 0.03486,-0.37473c-0.24212,-0.21308 -0.40219,-0.51919 -0.42217,-0.86663z" stroke="none" stroke-width="0.5"/><path d="M315.8755,161.45791c0.96491,-0.0555 1.7921,0.68172 1.8476,1.64662c0.0555,0.96491 -0.68172,1.7921 -1.64662,1.8476c-0.30104,0.01732 -0.58868,-0.04254 -0.84367,-0.16238c-0.13494,0.04235 -0.27724,0.0689 -0.42486,0.07739c-0.96491,0.0555 -1.7921,-0.68172 -1.8476,-1.64662c-0.0555,-0.96491 0.68172,-1.7921 1.64662,-1.8476c0.30104,-0.01732 0.58868,0.04254 0.84367,0.16238c0.13494,-0.04235 0.27724,-0.0689 0.42486,-0.07739z" stroke="none" stroke-width="0.5"/><path d="M300.44217,165.67803c0.01336,0.23229 -0.08048,0.44595 -0.23858,0.59284c-0.18541,0.41063 -0.58718,0.70672 -1.06814,0.73439c-0.47935,0.02757 -0.91112,-0.21875 -1.14296,-0.60319c-0.14707,0.05022 -0.30332,0.08152 -0.46605,0.09088c-0.94439,0.05432 -1.75687,-0.65073 -1.84302,-1.5854c-0.18728,0.08307 -0.39242,0.13443 -0.60904,0.14688c-0.59686,0.03433 -1.14105,-0.23467 -1.48247,-0.67324c-0.12094,0.80108 -0.78898,1.4357 -1.62999,1.48408c-0.13926,0.00801 -0.27564,-0.00049 -0.40726,-0.0238c-0.20564,0.68445 -0.82115,1.20014 -1.57599,1.24356c-0.76998,0.04429 -1.45227,-0.4162 -1.72471,-1.09437c-0.16903,0.06676 -0.35141,0.1081 -0.54276,0.1191c-0.25265,0.01453 -0.49587,-0.02529 -0.71825,-0.10931c-0.2986,0.39903 -0.76472,0.66847 -1.30122,0.69933c-0.55,0.03163 -1.05527,-0.19429 -1.39837,-0.57314c-0.15826,0.46903 -0.58857,0.81842 -1.11306,0.84858c-0.42271,0.02431 -0.80843,-0.16437 -1.05266,-0.47293c-0.1388,0.50194 -0.58449,0.88301 -1.1333,0.91458c-0.68922,0.03964 -1.28007,-0.48694 -1.31972,-1.17616c-0.01024,-0.17812 0.01733,-0.34966 0.07575,-0.50683c-0.18902,0.16266 -0.41368,0.28595 -0.66185,0.35625c-0.20731,0.68165 -0.82152,1.19464 -1.5743,1.23794c-0.54063,0.0311 -1.03802,-0.18666 -1.38067,-0.55389c-0.024,0.00236 -0.04816,0.00425 -0.07246,0.00565c-0.83257,0.04789 -1.56262,-0.49442 -1.78286,-1.26393c-0.51567,-0.27918 -0.87915,-0.81103 -0.9153,-1.43946c-0.0555,-0.96491 0.68172,-1.7921 1.64662,-1.8476c0.83257,-0.04789 1.56262,0.49442 1.78286,1.26393c0.08414,0.04555 0.16423,0.09783 0.2395,0.15616c0.26696,-0.55478 0.81921,-0.95171 1.4774,-0.98957c0.96491,-0.0555 1.7921,0.68172 1.8476,1.64662c0.01742,0.3028 -0.04324,0.59203 -0.16448,0.84811c0.18637,-0.13435 0.41196,-0.21896 0.65833,-0.23313c0.42271,-0.02431 0.80843,0.16437 1.05266,0.47293c0.1388,-0.50194 0.58449,-0.88301 1.1333,-0.91458c0.30548,-0.01757 0.59163,0.07609 0.81903,0.24585c0.10626,-0.81779 0.78157,-1.47056 1.63499,-1.51964c0.25265,-0.01453 0.49587,0.02529 0.71825,0.10931c0.2986,-0.39903 0.76472,-0.66847 1.30122,-0.69933c0.51032,-0.02935 0.98211,0.16302 1.3216,0.49355c-0.03662,-0.12521 -0.05972,-0.25652 -0.06753,-0.39234c-0.0555,-0.96491 0.68172,-1.7921 1.64662,-1.8476c0.92975,-0.05348 1.73165,0.62905 1.83849,1.54209c0.39887,0.09047 0.74875,0.318 0.994,0.63305c0.12094,-0.80108 0.78898,-1.4357 1.62999,-1.48408c0.94439,-0.05432 1.75687,0.65073 1.84302,1.5854c0.15961,-0.0708 0.3322,-0.11856 0.51382,-0.13884c0.02235,-0.02361 0.04536,-0.0466 0.069,-0.06896c-0.10897,-0.21129 -0.17641,-0.44833 -0.19094,-0.70098c-0.0555,-0.96491 0.68172,-1.7921 1.64662,-1.8476c0.67564,-0.03886 1.28377,0.31096 1.60671,0.85545c0.0073,-0.00051 0.01463,-0.00098 0.02196,-0.0014c0.10998,-0.00633 0.21816,-0.00235 0.32363,0.01108c0.252,-0.59362 0.82384,-1.02481 1.51125,-1.06435c0.96491,-0.0555 1.7921,0.68172 1.8476,1.64662c0.0555,0.96491 -0.68172,1.7921 -1.64662,1.8476c-0.10998,0.00633 -0.21816,0.00235 -0.32363,-0.01108c-0.252,0.59362 -0.82384,1.02481 -1.51125,1.06435c-0.13926,0.00801 -0.27564,-0.00049 -0.40726,-0.0238c-0.03021,0.10057 -0.06928,0.19749 -0.11634,0.28982c0.02737,0.03614 0.05283,0.07383 0.07622,0.11295c0.17391,0.12779 0.29162,0.32929 0.30498,0.56157z" stroke="none" stroke-width="0.5"/><path d="M293.35881,167.98091c-0.03964,-0.68922 0.48694,-1.28007 1.17616,-1.31972c0.68922,-0.03964 1.28007,0.48694 1.31972,1.17616c0.03964,0.68922 -0.48694,1.28007 -1.17616,1.31972c-0.68922,0.03964 -1.28007,-0.48694 -1.31972,-1.17616z" stroke="none" stroke-width="0.5"/><path d="M331.84514,167.03091c-0.03964,-0.68922 0.48694,-1.28007 1.17616,-1.31972c0.68922,-0.03964 1.28007,0.48694 1.31972,1.17616c0.03964,0.68922 -0.48694,1.28007 -1.17616,1.31972c-0.68922,0.03964 -1.28007,-0.48694 -1.31972,-1.17616z" stroke="none" stroke-width="0.5"/><path d="M262.88877,170.52323c-0.02378,-0.41353 0.29217,-0.76804 0.7057,-0.79183c0.41353,-0.02378 0.76804,0.29217 0.79183,0.7057c0.02378,0.41353 -0.29217,0.76804 -0.7057,0.79183c-0.41353,0.02378 -0.76804,-0.29217 -0.79183,-0.7057z" stroke="none" stroke-width="0.5"/><path d="M274.9443,171.40938c-0.02378,-0.41353 0.29217,-0.76804 0.7057,-0.79183c0.41353,-0.02378 0.76804,0.29217 0.79183,0.7057c0.02378,0.41353 -0.29217,0.76804 -0.7057,0.79183c-0.41353,0.02378 -0.76804,-0.29217 -0.79183,-0.7057z" stroke="none" stroke-width="0.5"/><path d="M282.88289,169.37323c-0.02378,-0.41353 0.29217,-0.76804 0.7057,-0.79183c0.41353,-0.02378 0.76804,0.29217 0.79183,0.7057c0.02378,0.41353 -0.29217,0.76804 -0.7057,0.79183c-0.41353,0.02378 -0.76804,-0.29217 -0.79183,-0.7057z" stroke="none" stroke-width="0.5"/><path d="M280.44893,168.24959c-0.02378,-0.41353 0.29217,-0.76804 0.7057,-0.79183c0.41353,-0.02378 0.76804,0.29217 0.79183,0.7057c0.02378,0.41353 -0.29217,0.76804 -0.7057,0.79183c-0.41353,0.02378 -0.76804,-0.29217 -0.79183,-0.7057z" stroke="none" stroke-width="0.5"/><path d="M298.99548,169.39421c-0.02378,-0.41353 0.29217,-0.76804 0.7057,-0.79183c0.41353,-0.02378 0.76804,0.29217 0.79183,0.7057c0.02378,0.41353 -0.29217,0.76804 -0.7057,0.79183c-0.41353,0.02378 -0.76804,-0.29217 -0.79183,-0.7057z" stroke="none" stroke-width="0.5"/><path d="M295.46505,171.17682c-0.02378,-0.41353 0.29217,-0.76804 0.7057,-0.79183c0.41353,-0.02378 0.76804,0.29217 0.79183,0.7057c0.02378,0.41353 -0.29217,0.76804 -0.7057,0.79183c-0.41353,0.02378 -0.76804,-0.29217 -0.79183,-0.7057z" stroke="none" stroke-width="0.5"/><path d="M315.00846,167.6834c-0.02378,-0.41353 0.29217,-0.76804 0.7057,-0.79183c0.41353,-0.02378 0.76804,0.29217 0.79183,0.7057c0.02378,0.41353 -0.29217,0.76804 -0.7057,0.79183c-0.41353,0.02378 -0.76804,-0.29217 -0.79183,-0.7057z" stroke="none" stroke-width="0.5"/><path d="M317.61447,171.7983c-0.02378,-0.41353 0.29217,-0.76804 0.7057,-0.79183c0.41353,-0.02378 0.76804,0.29217 0.79183,0.7057c0.02378,0.41353 -0.29217,0.76804 -0.7057,0.79183c-0.41353,0.02378 -0.76804,-0.29217 -0.79183,-0.7057z" stroke="none" stroke-width="0.5"/><path d="M327.50913,168.07008c-0.02378,-0.41353 0.29217,-0.76804 0.7057,-0.79183c0.41353,-0.02378 0.76804,0.29217 0.79183,0.7057c0.02378,0.41353 -0.29217,0.76804 -0.7057,0.79183c-0.41353,0.02378 -0.76804,-0.29217 -0.79183,-0.7057z" stroke="none" stroke-width="0.5"/></g><g fill="#a50a0a"><path d="M258.26111,138.33141c7.86426,-23.24892 30.3356,-40.7476 57.75511,-42.32469c0.69305,-0.03986 6.38732,-0.30321 11.33055,-1.61336c4.07627,-1.08037 7.61986,-3.25501 7.61986,-3.25501c0,0 -0.21828,3.57742 1.99261,6.843c1.51229,2.23373 6.05895,6.42759 6.05895,6.42759c0,0 -1.0983,6.73975 0.28703,11.4013c0.78697,2.64809 5.03639,8.38761 5.03639,8.38761c0,0 -3.40065,5.1458 -2.84369,7.63014c0.10504,0.46851 0.5397,2.10787 0.70336,2.63211c0.20092,0.64358 -88.12704,4.42375 -87.94017,3.87131z" stroke="#000000" stroke-width="0"/><path d="M263.44874,136.98923c0.96491,-0.0555 1.7921,0.68172 1.8476,1.64662c0.0555,0.96491 -0.68172,1.7921 -1.64662,1.8476c-0.69312,0.03987 -1.3152,-0.32931 -1.63121,-0.8981c-0.24871,0.60126 -0.82435,1.03934 -1.51747,1.07921c-0.96491,0.0555 -1.7921,-0.68172 -1.8476,-1.64662c-0.0555,-0.96491 0.68172,-1.7921 1.64662,-1.8476c0.69312,-0.03987 1.31519,0.32931 1.6312,0.8981c0.24871,-0.60126 0.82436,-1.03934 1.51748,-1.07921z" stroke="none" stroke-width="0.5"/><path d="M278.15714,139.79158c0.0555,0.96491 -0.68172,1.7921 -1.64662,1.8476c-0.80302,0.04619 -1.51068,-0.45668 -1.7575,-1.18289c-0.45582,-0.0433 -0.86458,-0.26298 -1.15244,-0.59322c-0.23757,0.14512 -0.5133,0.23551 -0.81065,0.25262c-0.16053,0.00923 -0.31726,-0.00348 -0.46725,-0.03553c-0.24445,0.61084 -0.82479,1.05758 -1.52506,1.09785c-0.92443,0.05317 -1.72247,-0.62128 -1.83659,-1.52646c-0.2985,0.34202 -0.72904,0.56834 -1.21804,0.59647c-0.08009,0.00461 -0.15923,0.00375 -0.23706,-0.00224c-0.07663,0.01487 -0.15515,0.0248 -0.23524,0.02941c-0.96491,0.0555 -1.7921,-0.68172 -1.8476,-1.64662c-0.0555,-0.96491 0.68172,-1.7921 1.64662,-1.8476c0.08009,-0.00461 0.15923,-0.00375 0.23706,0.00224c0.07663,-0.01487 0.15515,-0.0248 0.23524,-0.02941c0.92443,-0.05317 1.72248,0.62128 1.83659,1.52646c0.2985,-0.34201 0.72903,-0.56834 1.21804,-0.59647c0.16053,-0.00923 0.31726,0.00348 0.46725,0.03553c0.24445,-0.61083 0.82479,-1.05757 1.52506,-1.09784c0.562,-0.03232 1.07729,0.20427 1.42058,0.59814c0.23757,-0.14512 0.5133,-0.23551 0.81065,-0.25262c0.49287,-0.02835 0.94981,0.15013 1.28631,0.46014c-0.01145,-0.06588 -0.01927,-0.13311 -0.0232,-0.20149c-0.0555,-0.96491 0.68172,-1.7921 1.64662,-1.8476c0.96491,-0.0555 1.7921,0.68172 1.8476,1.64662c0.0555,0.96491 -0.68172,1.7921 -1.64662,1.8476c-0.03229,0.00186 -0.06442,0.00282 -0.09638,0.00293c0.1859,0.2599 0.3029,0.57379 0.3226,0.9164z" stroke="none" stroke-width="0.5"/><path d="M279.92512,138.11034c-0.0555,-0.96491 0.68172,-1.7921 1.64662,-1.8476c0.96491,-0.0555 1.7921,0.68172 1.8476,1.64662c0.0555,0.96491 -0.68172,1.7921 -1.64662,1.8476c-0.96491,0.0555 -1.7921,-0.68172 -1.8476,-1.64662z" stroke="none" stroke-width="0.5"/><path d="M284.98113,138.13545c-0.0555,-0.96491 0.68172,-1.7921 1.64662,-1.8476c0.70246,-0.0404 1.33193,0.33933 1.6438,0.92118c0.74177,0.16775 1.31432,0.80951 1.36017,1.60667c0.0555,0.96491 -0.68172,1.7921 -1.64662,1.8476c-0.70246,0.0404 -1.33193,-0.33933 -1.6438,-0.92118c-0.74177,-0.16775 -1.31432,-0.80951 -1.36017,-1.60667z" stroke="none" stroke-width="0.5"/><path d="M308.78637,140.08329c-0.01249,-0.21722 0.01519,-0.42745 0.07659,-0.62348c-0.03193,0.00359 -0.06413,0.00632 -0.09659,0.00819c-0.56609,0.03256 -1.0848,-0.20773 -1.42807,-0.60678c-0.2679,-0.05396 -0.5149,-0.16948 -0.72458,-0.33195c-0.26696,0.55478 -0.81921,0.9517 -1.4774,0.98956c-0.96491,0.0555 -1.7921,-0.68172 -1.8476,-1.64662c-0.0555,-0.96491 0.68172,-1.7921 1.64662,-1.8476c0.43901,-0.02525 0.84952,0.1136 1.17182,0.36332c0.26696,-0.55478 0.81921,-0.9517 1.4774,-0.98956c0.56609,-0.03256 1.0848,0.20773 1.42807,0.60678c0.57503,0.11581 1.05378,0.51533 1.27369,1.05367c0.19595,-0.70015 0.81874,-1.23113 1.58518,-1.27521c0.45447,-0.02614 0.87839,0.12358 1.20552,0.39012c0.43848,-0.80058 1.45275,-0.85893 1.45275,-0.85893l1.88921,-0.10866c0,0 0.59699,-0.03434 1.11311,0.2861c0.21998,-0.12929 0.47147,-0.21213 0.74175,-0.23431c0.28507,-0.49246 0.80447,-0.83657 1.41504,-0.87169c0.74804,-0.04303 1.41333,0.39039 1.70044,1.03697c0.27831,-0.23277 0.63117,-0.3813 1.02121,-0.40374c0.66617,-0.03832 1.2667,0.30122 1.59296,0.83266c0.28638,-0.1275 0.52269,-0.15941 0.52269,-0.15941l1.14149,-0.15414c0.2741,-0.53306 0.81512,-0.91129 1.45683,-0.9482c0.54912,-0.03158 1.05365,0.19357 1.39672,0.57132c0.21381,-0.67051 0.8228,-1.17284 1.56736,-1.21567c0.7854,-0.04517 1.47956,0.43486 1.74059,1.13538c0.29313,-0.29406 0.69136,-0.48549 1.1385,-0.51121c0.74422,-0.04281 1.40652,0.38597 1.696,1.02707c0.08338,-0.01727 0.16904,-0.02865 0.25659,-0.03369c0.13925,-0.00801 0.27564,0.00048 0.40726,0.0238c0.20564,-0.68444 0.82114,-1.20014 1.57599,-1.24356c0.02639,-0.00152 0.05267,-0.00244 0.07882,-0.00279c0.02603,-0.00266 0.05223,-0.00475 0.07862,-0.00626c0.50152,-0.02885 0.96584,0.15647 1.30394,0.47659c0.29366,-0.44742 0.78804,-0.75488 1.36338,-0.78797c0.47967,-0.02759 0.9253,0.14072 1.25903,0.43551c0.11008,-0.02867 0.22458,-0.04697 0.34249,-0.05376c0.02128,-0.00122 0.04249,-0.00206 0.06363,-0.00252c0.29568,-0.31157 0.706,-0.51561 1.16867,-0.54222c0.40144,-0.02309 0.77903,0.09103 1.08715,0.30167c0.23768,-0.14529 0.51357,-0.23579 0.81112,-0.2529c0.96491,-0.0555 1.7921,0.68172 1.8476,1.64662c0.0555,0.96491 -0.68172,1.7921 -1.64662,1.8476c-0.40144,0.02309 -0.77903,-0.09103 -1.08715,-0.30167c-0.23768,0.14529 -0.51357,0.23578 -0.81112,0.25289c-0.02128,0.00122 -0.04249,0.00206 -0.06364,0.00253c-0.29568,0.31157 -0.706,0.51561 -1.16866,0.54222c-0.47967,0.02759 -0.9253,-0.14072 -1.25902,-0.4355c-0.11008,0.02867 -0.22458,0.04697 -0.34249,0.05376c-0.50152,0.02885 -0.96584,-0.15647 -1.30394,-0.47659c-0.29366,0.44741 -0.78804,0.75488 -1.36338,0.78797c-0.02639,0.00152 -0.05266,0.00244 -0.07882,0.00279c-0.02603,0.00266 -0.05224,0.00475 -0.07862,0.00626c-0.13925,0.00801 -0.27564,-0.00049 -0.40726,-0.02381c-0.20564,0.68444 -0.82114,1.20015 -1.57599,1.24357c-0.2094,0.01204 -0.41233,-0.01324 -0.60229,-0.0701c-0.29034,0.27895 -0.67788,0.45964 -1.11138,0.48458c-0.84081,0.04836 -1.57704,-0.50521 -1.78925,-1.28684c-0.19678,0.09266 -0.41425,0.14993 -0.6447,0.16319c-0.8115,0.04668 -1.52559,-0.46734 -1.76516,-1.20593c-0.11571,-0.07839 -0.22172,-0.17037 -0.31563,-0.27378c-0.07465,0.23411 -0.19748,0.44773 -0.35743,0.62843c-0.17342,1.20914 -1.50325,1.38872 -1.50325,1.38872l-2.03759,0.27515c0,0 -1.21944,0.16467 -1.7513,-0.80469c-0.19335,0.08911 -0.40634,0.14418 -0.63175,0.15715c-0.39005,0.02243 -0.7576,-0.08467 -1.06077,-0.28399c-0.21109,0.67523 -0.82229,1.18207 -1.57033,1.22509c-0.61057,0.03512 -1.166,-0.24717 -1.50565,-0.7037c-0.38099,0.0126 -0.73879,-0.09815 -1.03391,-0.29701c-0.41119,0.2227 -0.82088,0.24626 -0.82088,0.24626l-1.88921,0.10866c0,0 -0.71275,0.041 -1.25395,-0.38463c-0.27749,0.46628 -0.76661,0.79571 -1.34309,0.84885c0.08307,0.18727 0.13443,0.39243 0.14688,0.60904c0.0555,0.96491 -0.68172,1.7921 -1.64662,1.8476c-0.96491,0.0555 -1.7921,-0.68172 -1.8476,-1.64662zM310.35155,138.1928c-0.00479,0.01713 -0.00984,0.03416 -0.01515,0.05108c0.01174,-0.00132 0.02354,-0.00253 0.03537,-0.00362c-0.00696,-0.0157 -0.01371,-0.03151 -0.02022,-0.04747z" stroke="none" stroke-width="0.5"/><path d="M296.61296,134.13398c0.96491,-0.0555 1.7921,0.68172 1.8476,1.64662c0.00275,0.04784 0.00355,0.09533 0.00247,0.14242c0.05134,-0.00295 0.10069,-0.00579 0.1478,-0.0085c0,0 1.29971,-0.07476 1.72159,1.0257c0.45449,0.29256 0.76761,0.79095 0.80103,1.37187c0.0555,0.96491 -0.68172,1.7921 -1.64662,1.8476c-0.61033,0.0351 -1.16557,-0.24696 -1.50527,-0.70319c-0.51042,0.02936 -1.02082,0.05871 -1.53124,0.08807l-0.62974,0.03622c0,0 -0.17805,0.01024 -0.42372,-0.03265c-0.24117,0.15092 -0.52262,0.24503 -0.82669,0.26252c-0.70531,0.04057 -1.33706,-0.34243 -1.6476,-0.92831c-0.29385,0.44607 -0.78748,0.75246 -1.36175,0.78549c-0.96491,0.0555 -1.7921,-0.68172 -1.8476,-1.64662c-0.0555,-0.96491 0.68172,-1.7921 1.64662,-1.8476c0.60273,-0.03467 1.15173,0.23998 1.49247,0.68622c0.26203,-0.56841 0.82124,-0.97725 1.48972,-1.0157c0.21661,-0.01246 0.4263,0.01504 0.62187,0.07609c-0.02158,-0.93838 0.7047,-1.73193 1.64909,-1.78625z" stroke="none" stroke-width="0.5"/><path d="M302.69506,135.52165c0.96491,-0.0555 1.7921,0.68172 1.8476,1.64662c0.0555,0.96491 -0.68172,1.7921 -1.64662,1.8476c-0.34687,0.01995 -0.67595,-0.06254 -0.95777,-0.22123c-0.19172,0.08746 -0.40259,0.14152 -0.62562,0.15435c-0.96491,0.0555 -1.7921,-0.68172 -1.8476,-1.64662c-0.0555,-0.96491 0.68172,-1.7921 1.64662,-1.8476c0.34687,-0.01995 0.67595,0.06254 0.95777,0.22123c0.19172,-0.08746 0.40259,-0.14152 0.62562,-0.15435z" stroke="none" stroke-width="0.5"/><path d="M308.7627,136.92555c-0.0555,-0.96491 0.68172,-1.7921 1.64662,-1.8476c0.96491,-0.0555 1.7921,0.68172 1.8476,1.64662c0.0555,0.96491 -0.68172,1.7921 -1.64662,1.8476c-0.96491,0.0555 -1.7921,-0.68172 -1.8476,-1.64662z" stroke="none" stroke-width="0.5"/><path d="M332.54429,135.71566c-0.0555,-0.96491 0.68172,-1.7921 1.64662,-1.8476c0.28317,-0.01629 0.55449,0.0357 0.79792,0.14169c0.22967,-0.13319 0.49324,-0.21595 0.77642,-0.23224c0.96491,-0.0555 1.7921,0.68172 1.8476,1.64662c0.0555,0.96491 -0.68172,1.7921 -1.64662,1.8476c-0.28317,0.01629 -0.55449,-0.0357 -0.79792,-0.14169c-0.22967,0.13319 -0.49324,0.21595 -0.77642,0.23224c-0.96491,0.0555 -1.7921,-0.68172 -1.8476,-1.64662z" stroke="none" stroke-width="0.5"/><path d="M282.86175,136.51984c-0.03964,-0.68922 0.48694,-1.28007 1.17616,-1.31972c0.68922,-0.03964 1.28007,0.48694 1.31972,1.17616c0.03964,0.68922 -0.48694,1.28007 -1.17616,1.31972c-0.68922,0.03964 -1.28007,-0.48694 -1.31972,-1.17616z" stroke="none" stroke-width="0.5"/><path d="M288.09884,139.69363c-0.03964,-0.68922 0.48694,-1.28007 1.17616,-1.31972c0.05332,-0.00307 0.10606,-0.00274 0.158,0.00078c0.05119,-0.00946 0.10354,-0.01582 0.15686,-0.01889c0.68922,-0.03964 1.28007,0.48694 1.31972,1.17616c0.03964,0.68922 -0.48694,1.28007 -1.17616,1.31972c-0.05332,0.00307 -0.10606,0.00274 -0.158,-0.00078c-0.05119,0.00946 -0.10354,0.01582 -0.15686,0.01889c-0.68922,0.03964 -1.28007,-0.48694 -1.31972,-1.17616z" stroke="none" stroke-width="0.5"/><path d="M291.36524,141.55917c-0.03964,-0.68922 0.48694,-1.28007 1.17616,-1.31972c0.68922,-0.03964 1.28007,0.48694 1.31972,1.17616c0.03964,0.68922 -0.48694,1.28007 -1.17616,1.31972c-0.68922,0.03964 -1.28007,-0.48694 -1.31972,-1.17616z" stroke="none" stroke-width="0.5"/><path d="M296.8211,140.29764c-0.03964,-0.68922 0.48694,-1.28007 1.17616,-1.31972c0.68922,-0.03964 1.28007,0.48694 1.31972,1.17616c0.03964,0.68922 -0.48694,1.28007 -1.17616,1.31972c-0.68922,0.03964 -1.28007,-0.48694 -1.31972,-1.17616z" stroke="none" stroke-width="0.5"/><path d="M307.76554,141.08973c-0.03964,-0.68922 0.48694,-1.28007 1.17616,-1.31972c0.68922,-0.03964 1.28007,0.48694 1.31972,1.17616c0.03964,0.68922 -0.48694,1.28007 -1.17616,1.31972c-0.68922,0.03964 -1.28007,-0.48694 -1.31972,-1.17616z" stroke="none" stroke-width="0.5"/><path d="M322.67649,139.44232c-0.03964,-0.68922 0.48694,-1.28007 1.17616,-1.31972c0.68922,-0.03964 1.28007,0.48694 1.31972,1.17616c0.03964,0.68922 -0.48694,1.28007 -1.17616,1.31972c-0.68922,0.03964 -1.28007,-0.48694 -1.31972,-1.17616z" stroke="none" stroke-width="0.5"/><path d="M326.72627,143.47416c-0.02174,-0.37792 0.24027,-0.70655 0.60119,-0.7785c-0.13675,-0.18747 -0.22295,-0.41514 -0.23726,-0.66402c-0.03964,-0.68922 0.48694,-1.28007 1.17616,-1.31972c0.68922,-0.03964 1.28007,0.48694 1.31972,1.17616c0.03964,0.68922 -0.48694,1.28007 -1.17616,1.31972c-0.07497,0.00431 -0.14875,0.00193 -0.22082,-0.00664c0.01903,0.05925 0.03095,0.12185 0.03469,0.18688c0.02378,0.41353 -0.29217,0.76804 -0.7057,0.79183c-0.41353,0.02378 -0.76804,-0.29217 -0.79183,-0.7057z" stroke="none" stroke-width="0.5"/><path d="M335.89718,138.10824c-0.10091,-0.74318 0.64227,-0.84409 0.64227,-0.84409l0.84795,-0.11441c0.12605,-0.02837 0.26843,-0.05236 0.4168,-0.0672l0.28667,-0.32166l0.05564,0.04959c0.04112,-0.06555 0.08224,-0.1311 0.12336,-0.19665l0.23738,0.01196l-0.02204,-0.09739l0.92177,-0.20864c0.04394,-0.01077 0.08949,-0.0177 0.13629,-0.02039c0.3628,-0.02087 0.68017,0.21976 0.76864,0.55835c0.00492,0.00293 0.00981,0.00592 0.01465,0.00896c0.21161,-0.30519 0.55648,-0.51339 0.95599,-0.53637c0.68922,-0.03964 1.28007,0.48694 1.31972,1.17616c0.03964,0.68922 -0.48694,1.28007 -1.17616,1.31972c-0.49826,0.02866 -0.94511,-0.23861 -1.16946,-0.64932c-0.08667,0.04223 -0.18296,0.06833 -0.28522,0.07421l-0.35046,0.02016c0.00283,0.04519 0.00232,0.09342 -0.00204,0.1449c-0.01588,0.1876 -0.07487,0.32412 -0.15432,0.42339c-0.06081,0.27433 -0.27278,0.49519 -0.54855,0.56455c-0.01684,0.64285 -0.52421,1.17619 -1.17783,1.21379c-0.68922,0.03964 -1.28007,-0.48694 -1.31972,-1.17616c-0.01437,-0.24991 0.0457,-0.48688 0.16097,-0.68933c-0.22464,-0.0168 -0.61152,-0.12275 -0.68231,-0.64411z" stroke="none" stroke-width="0.5"/><path d="M265.84632,140.0258c-0.03964,-0.68922 0.48694,-1.28007 1.17616,-1.31972c0.68922,-0.03964 1.28007,0.48694 1.31972,1.17616c0.03964,0.68922 -0.48694,1.28007 -1.17616,1.31972c-0.68922,0.03964 -1.28007,-0.48694 -1.31972,-1.17616z" stroke="none" stroke-width="0.5"/><path d="M262.25806,143.54924c-0.03964,-0.68922 0.48694,-1.28007 1.17616,-1.31972c0.68922,-0.03964 1.28007,0.48694 1.31972,1.17616c0.03964,0.68922 -0.48694,1.28007 -1.17616,1.31972c-0.68922,0.03964 -1.28007,-0.48694 -1.31972,-1.17616z" stroke="none" stroke-width="0.5"/><path d="M261.38385,139.33475c-0.03964,-0.68922 0.48694,-1.28007 1.17616,-1.31972c0.68922,-0.03964 1.28007,0.48694 1.31972,1.17616c0.03964,0.68922 -0.48694,1.28007 -1.17616,1.31972c-0.68922,0.03964 -1.28007,-0.48694 -1.31972,-1.17616z" stroke="none" stroke-width="0.5"/><path d="M275.46791,139.78831c-0.03964,-0.68922 0.48694,-1.28007 1.17616,-1.31972c0.68922,-0.03964 1.28007,0.48694 1.31972,1.17616c0.03964,0.68922 -0.48694,1.28007 -1.17616,1.31972c-0.68922,0.03964 -1.28007,-0.48694 -1.31972,-1.17616z" stroke="none" stroke-width="0.5"/><path d="M272.43695,142.01605c-0.03964,-0.68922 0.48694,-1.28007 1.17616,-1.31972c0.68922,-0.03964 1.28007,0.48694 1.31972,1.17616c0.03964,0.68922 -0.48694,1.28007 -1.17616,1.31972c-0.68922,0.03964 -1.28007,-0.48694 -1.31972,-1.17616z" stroke="none" stroke-width="0.5"/><path d="M273.70724,147.15549c-0.02378,-0.41353 0.29217,-0.76804 0.7057,-0.79183c0.41353,-0.02378 0.76804,0.29217 0.79183,0.7057c0.02378,0.41353 -0.29217,0.76804 -0.7057,0.79183c-0.41353,0.02378 -0.76804,-0.29217 -0.79183,-0.7057z" stroke="none" stroke-width="0.5"/><path d="M286.60571,140.72724c-0.02378,-0.41353 0.29217,-0.76804 0.7057,-0.79183c0.41353,-0.02378 0.76804,0.29217 0.79183,0.7057c0.02378,0.41353 -0.29217,0.76804 -0.7057,0.79183c-0.41353,0.02378 -0.76804,-0.29217 -0.79183,-0.7057z" stroke="none" stroke-width="0.5"/><path d="M282.93945,140.14834c-0.02378,-0.41353 0.29217,-0.76804 0.7057,-0.79183c0.41353,-0.02378 0.76804,0.29217 0.79183,0.7057c0.02378,0.41353 -0.29217,0.76804 -0.7057,0.79183c-0.41353,0.02378 -0.76804,-0.29217 -0.79183,-0.7057z" stroke="none" stroke-width="0.5"/><path d="M289.89578,145.75051c-0.02378,-0.41353 0.29217,-0.76804 0.7057,-0.79183c0.41353,-0.02378 0.76804,0.29217 0.79183,0.7057c0.02378,0.41353 -0.29217,0.76804 -0.7057,0.79183c-0.41353,0.02378 -0.76804,-0.29217 -0.79183,-0.7057z" stroke="none" stroke-width="0.5"/><path d="M302.93214,147.21207c-0.02378,-0.41353 0.29217,-0.76804 0.7057,-0.79183c0.41353,-0.02378 0.76804,0.29217 0.79183,0.7057c0.02378,0.41353 -0.29217,0.76804 -0.7057,0.79183c-0.41353,0.02378 -0.76804,-0.29217 -0.79183,-0.7057z" stroke="none" stroke-width="0.5"/><path d="M319.31575,138.21402c-0.02378,-0.41353 0.29217,-0.76804 0.7057,-0.79183c0.41353,-0.02378 0.76804,0.29217 0.79183,0.7057c0.02378,0.41353 -0.29217,0.76804 -0.7057,0.79183c-0.41353,0.02378 -0.76804,-0.29217 -0.79183,-0.7057z" stroke="none" stroke-width="0.5"/><path d="M314.53141,142.91194c-0.02378,-0.41353 0.29217,-0.76804 0.7057,-0.79183c0.41353,-0.02378 0.76804,0.29217 0.79183,0.7057c0.02378,0.41353 -0.29217,0.76804 -0.7057,0.79183c-0.41353,0.02378 -0.76804,-0.29217 -0.79183,-0.7057z" stroke="none" stroke-width="0.5"/><path d="M314.10788,141.04085c-0.02378,-0.41353 0.29217,-0.76804 0.7057,-0.79183c0.41353,-0.02378 0.76804,0.29217 0.79183,0.7057c0.02378,0.41353 -0.29217,0.76804 -0.7057,0.79183c-0.41353,0.02378 -0.76804,-0.29217 -0.79183,-0.7057z" stroke="none" stroke-width="0.5"/><path d="M338.70936,143.10084c-0.02378,-0.41353 0.29217,-0.76804 0.7057,-0.79183c0.41353,-0.02378 0.76804,0.29217 0.79183,0.7057c0.02378,0.41353 -0.29217,0.76804 -0.7057,0.79183c-0.41353,0.02378 -0.76804,-0.29217 -0.79183,-0.7057z" stroke="none" stroke-width="0.5"/></g></g><path d="M311.35083,149.05625l6.50456,-24.29319l9.67272,23.36272c0,0 -4.36607,5.04747 -8.14463,5.2648c-3.77856,0.21733 -8.03265,-4.33433 -8.03265,-4.33433z" fill="#ba2d2d" stroke="#000000" stroke-width="0"/><path d="M282.32489,174.21276c-2.9298,-2.81509 -9.62758,-10.05862 -8.71242,-16.67653c1.15432,-8.34731 6.51869,-24.84745 6.51869,-24.84745c0,0 4.61943,15.77526 8.5143,21.49877c1.85783,2.73008 6.64275,5.99941 9.78936,7.96733c1.71671,1.07365 -1.59098,7.38098 -5.2863,10.14682c-3.69531,2.76585 -10.01862,2.68454 -10.82362,1.91106z" fill="#ba2d2d" stroke="#000000" stroke-width="0"/><path d="M260.41417,142.79309l-22.4857,-31.49856l37.58122,7.46407c0,0 0.23498,7.97531 -3.44628,14.14038c-3.91862,6.56257 -11.64924,9.89411 -11.64924,9.89411z" fill="#ba2d2d" stroke="#000000" stroke-width="0"/></g></g></g></g></svg>