<svg version="1.1" xmlns="http://www.w3.org/2000/svg" xmlns:xlink="http://www.w3.org/1999/xlink" width="215.15594" height="281.18476" viewBox="0,0,215.15594,281.18476"><defs><linearGradient x1="364.4813" y1="71.90867" x2="364.90981" y2="111.0643" gradientUnits="userSpaceOnUse" id="color-1"><stop offset="0" stop-color="#000000" stop-opacity="0"/><stop offset="1" stop-color="#000000" stop-opacity="0.12941"/></linearGradient><linearGradient x1="244.37226" y1="73.2231" x2="244.80076" y2="112.37874" gradientUnits="userSpaceOnUse" id="color-2"><stop offset="0" stop-color="#000000" stop-opacity="0"/><stop offset="1" stop-color="#000000" stop-opacity="0.12941"/></linearGradient><linearGradient x1="320.08742" y1="187.07227" x2="320.08742" y2="244.23177" gradientUnits="userSpaceOnUse" id="color-3"><stop offset="0" stop-color="#424242"/><stop offset="1" stop-color="#424242" stop-opacity="0"/></linearGradient></defs><g transform="translate(-212.54971,-38.88751)"><g stroke-miterlimit="10"><g stroke-width="2" stroke-linecap="round"><path d="M321.26341,101.07438l54.65295,-47.24496l-10.47627,84.6413" fill="#ffffff" stroke="#000000"/><path d="M358.69098,111.13236c0,0 3.04481,-13.95597 5.08368,-20.62682c1.96116,-6.41652 6.92547,-18.66493 6.92547,-18.66493" fill="none" stroke="url(#color-1)"/></g><g stroke-width="2" stroke-linecap="round"><path d="M244.87039,139.7902l-12.32613,-84.39176l55.6738,46.03758" fill="#ffffff" stroke="#000000"/><path d="M238.15343,73.29116c0,0 5.23119,12.13684 7.3323,18.5089c2.18438,6.62461 5.53389,20.51062 5.53389,20.51062" fill="none" stroke="url(#color-2)"/></g><g stroke="#000000" stroke-linecap="butt"><path d="M286.35186,319.07226l15.14285,-131.8421l37.78325,-0.15789l13.57389,132z" fill="#ffffff" stroke-width="0"/><path d="M295.01902,243.61117l6.47569,-56.38101l37.78325,-0.15789l5.87786,57.15951z" fill="url(#color-3)" stroke-width="0"/><path d="M286.35186,319.07226l15.14285,-131.8421l37.78325,-0.15789l13.57389,132z" fill="none" stroke-width="2"/></g><g fill="#ffffff"><path d="M241.10575,159.61083c-0.36443,-33.29986 28.09834,-60.60944 63.57333,-60.99766c35.475,-0.38822 64.5286,26.29191 64.89302,59.59176c0.36443,33.29986 -28.09833,60.60946 -63.57333,60.99767c-35.47499,0.38822 -64.5286,-26.29192 -64.89302,-59.59177z" stroke="#000000" stroke-width="2" stroke-linecap="butt"/><path d="M245.11143,182.86391l6.90478,-0.53628l24.24391,26.22548l-7.10989,2.84207z" stroke="none" stroke-width="0" stroke-linecap="round"/><path d="M272.36723,210.66893l-21.31961,9.44751l-0.17897,-16.35324l-34.78602,-21.27266l30.1754,-0.09988" stroke="#000000" stroke-width="2" stroke-linecap="round"/><path d="M342.73315,210.58993l-7.17039,-2.68578l23.66417,-26.74978l6.91487,0.38503z" stroke="none" stroke-width="0" stroke-linecap="round"/><path d="M364.9851,181.09134l30.17033,-0.56052l-34.31214,22.02885l0.17897,16.35325l-21.52127,-8.97867" stroke="#000000" stroke-width="2" stroke-linecap="round"/></g><path d="M214.52362,306.61252v-267.72501h213.18203v267.72501z" fill="none" stroke="none" stroke-width="0" stroke-linecap="butt"/><g fill="#000000" stroke="#000000" stroke-width="2" stroke-linecap="round"><path d="M254.96228,156.87203l-4.19944,-9.80943l8.59423,4.47181z"/><path d="M256.82761,161.17575l-10.03793,-3.61941l9.13194,-3.23504z"/></g><path d="M254.73505,159.7373c-0.14191,-12.96724 10.25507,-23.59429 23.2223,-23.73619c12.96724,-0.14191 23.59428,10.25506 23.73619,23.22229c0.14191,12.96724 -10.25506,23.59429 -23.22229,23.7362c-12.96724,0.14191 -23.5943,-10.25507 -23.7362,-23.2223z" fill="#ffffff" stroke="#000000" stroke-width="2" stroke-linecap="butt"/><path d="M256.92563,159.47595c-0.09083,-8.29914 6.56333,-15.10056 14.86248,-15.19139c8.29914,-0.09083 15.10056,6.56334 15.1914,14.8625c0.09083,8.29914 -6.56334,15.10057 -14.86249,15.19141c-8.29914,0.09083 -15.10055,-6.56334 -15.19139,-14.8625z" fill="#ffffff" stroke="#000000" stroke-width="5" stroke-linecap="butt"/><path d="" fill="none" stroke="#000000" stroke-width="2" stroke-linecap="round"/><g fill="#000000" stroke="#000000" stroke-width="2" stroke-linecap="round"><path d="M351.1484,150.52987l8.4943,-4.65884l-3.98377,9.89898z"/><path d="M354.644,153.24091l9.20056,3.03442l-9.95633,3.83823z"/></g><path d="M332.72646,182.36587c-12.96724,0.14191 -23.59429,-10.25507 -23.73619,-23.2223c-0.14191,-12.96724 10.25506,-23.59428 23.22229,-23.73619c12.96724,-0.14191 23.59429,10.25506 23.7362,23.22229c0.14191,12.96724 -10.25507,23.5943 -23.2223,23.7362z" fill="#ffffff" stroke="#000000" stroke-width="2" stroke-linecap="butt"/><path d="M341.50824,159.21856c0.09082,8.29916 -6.56333,15.10057 -14.86248,15.1914c-8.29914,0.09083 -15.10056,-6.56336 -15.1914,-14.8625c-0.09082,-8.29916 6.56334,-15.10057 14.86249,-15.19141c8.29914,-0.09083 15.10055,6.56335 15.19139,14.86249z" fill="#ffffff" stroke="#000000" stroke-width="5" stroke-linecap="butt"/><path d="M266.51039,128.01536c0,0 7.63647,-3.66265 12.86184,-3.77384c5.22538,-0.1112 11.91973,3.24653 11.91973,3.24653c0,0 -7.85023,-1.72888 -11.88562,-1.643c-4.21713,0.08973 -12.89598,2.17032 -12.89598,2.17032z" fill="#000000" stroke="none" stroke-width="0" stroke-linecap="butt"/><path d="M330.72408,125.27162c-4.02743,-0.2674 -11.94751,1.1064 -11.94751,1.1064c0,0 6.83869,-3.05301 12.05376,-2.70676c5.21507,0.34624 12.67895,4.34889 12.67895,4.34889c0,0 -8.57641,-2.46908 -12.78522,-2.74853z" fill="#000000" stroke="none" stroke-width="0" stroke-linecap="butt"/><path d="M254.73505,159.7373c-0.14191,-12.96724 10.25507,-23.59429 23.2223,-23.73619c12.96724,-0.14191 23.59428,10.25506 23.73619,23.22229c0.00491,0.44893 -46.95451,0.87774 -46.9585,0.5139z" fill="#ffffff" stroke="#000000" stroke-width="2" stroke-linecap="butt"/><path d="M308.99028,159.14357c-0.14191,-12.96724 10.25506,-23.59428 23.22229,-23.73619c12.96724,-0.14191 23.59429,10.25506 23.7362,23.22229c0.00865,0.79023 -46.94945,1.34094 -46.9585,0.5139z" fill="#ffffff" stroke="#000000" stroke-width="2" stroke-linecap="butt"/><path d="M301.59365,226.62993c-11.98014,-0.39214 -16.37634,-24.80437 -16.37634,-24.80437c0,0 18.96931,3.36153 33.35765,3.82284c6.54972,0.20999 14.20885,-2.16201 15.07258,-2.2376c0,0 -20.07376,23.61127 -32.05389,23.21913z" fill="#000000" stroke="#000000" stroke-width="2" stroke-linecap="round"/></g></g></svg>