<svg version="1.1" xmlns="http://www.w3.org/2000/svg" xmlns:xlink="http://www.w3.org/1999/xlink" width="223.19079" height="272.93481" viewBox="0,0,223.19079,272.93481"><defs><linearGradient x1="318.96396" y1="240.85417" x2="318.96396" y2="276.16738" gradientUnits="userSpaceOnUse" id="color-1"><stop offset="0" stop-color="#005cff" stop-opacity="0"/><stop offset="1" stop-color="#005cff" stop-opacity="0.2"/></linearGradient><radialGradient cx="326.63001" cy="151.0461" r="64.23702" gradientUnits="userSpaceOnUse" id="color-2"><stop offset="0" stop-color="#aca5f2"/><stop offset="1" stop-color="#f3ca58"/></radialGradient><radialGradient cx="299.20812" cy="150.38175" r="23.48066" gradientUnits="userSpaceOnUse" id="color-3"><stop offset="0" stop-color="#ffffff"/><stop offset="1" stop-color="#ff6d6d"/></radialGradient><radialGradient cx="353.43477" cy="152.24093" r="23.48066" gradientUnits="userSpaceOnUse" id="color-4"><stop offset="0" stop-color="#ffffff"/><stop offset="1" stop-color="#ff6d6d"/></radialGradient></defs><g transform="translate(-213.40902,-46.13752)"><g stroke-miterlimit="10"><path d="M213.40902,313.86253v-267.72501h213.18203v267.72501z" fill="none" stroke="none" stroke-width="0" stroke-linecap="butt"/><g stroke-linecap="butt"><g><g stroke-width="0"><path d="M370.70107,269.87901c-0.06778,1.44597 -1.41901,-4.97989 -6.32499,-5.20986c-4.90598,-0.22997 -8.51273,-3.00784 -8.44495,-4.45381c0.06778,-1.44597 4.09981,0.87984 9.00579,1.10981c4.90598,0.22997 5.83193,7.10789 5.76415,8.55386z" fill="#f29d0f" stroke="#000000"/><path d="M363.39927,263.5207c0,8.78876 -6.18635,0.14404 -15.95739,0.14404c-9.77104,0 -15.01123,-7.44009 -15.01123,-16.22885c0,-8.78876 7.92099,-4.71717 17.69203,-4.71717c9.77104,0 13.27659,12.01322 13.27659,20.80198z" fill="#f2d40e" stroke="#000000"/><path d="M357.81448,254.49468c0,-0.69036 0.55964,-1.25 1.25,-1.25c0.69036,0 1.25,0.55964 1.25,1.25c0,0.69036 -0.55964,1.25 -1.25,1.25c-0.69036,0 -1.25,-0.55964 -1.25,-1.25z" fill="#000000" stroke="none"/></g><path d="M286.35186,319.07232c0,0 -1.89355,-25.93292 0.55642,-47.26366c2.58988,-22.54893 14.58643,-84.57844 14.58643,-84.57844l37.78325,-0.15789c0,0 9.71821,48.53571 12.06959,71.4019c2.15633,20.96935 1.5043,60.5981 1.5043,60.5981z" fill="#f3ca58" stroke="#000000" stroke-width="0"/><path d="M293.32495,231.42273c3.92467,-22.12412 8.16979,-44.1925 8.16979,-44.1925l37.78325,-0.15789c0,0 4.58735,22.91064 8.22116,44.66623c0.01212,0.07254 -54.19728,-0.18574 -54.1742,-0.31584z" fill="#f2bc49" stroke="#000000" stroke-width="0"/><path d="M294.35562,225.21111c3.47387,-19.2454 7.13909,-37.98086 7.13909,-37.98086l37.78325,-0.15789c0,0 3.7397,19.39228 7.08641,38.61124c0.00071,0.00407 -52.0355,-0.32431 -52.00875,-0.47248z" fill="#ffc72e" stroke="#000000" stroke-width="0"/><path d="M309.43057,274.95005c-0.60434,0 -1.13393,-0.23881 -1.42855,-0.59687c-0.40832,-0.03148 -0.71369,-0.15576 -0.71369,-0.15576c-2.81592,-1.14616 -6.6205,-2.20571 -9.08745,-3.72458c-5.15584,-3.1744 -6.48202,-7.967 -2.60749,-12.21832c3.34303,-3.66814 9.07756,-4.44116 14.1588,-5.7515c3.39017,-0.87425 6.25511,-2.47282 9.63619,-3.37881c2.25387,-0.97114 5.50095,-1.85595 7.42542,-3.16024c1.26199,-0.8553 1.68883,-2.21259 2.8379,-3.12013c0.82862,-0.65444 4.11036,-2.27023 5.42408,-1.94755c2.52904,0.62119 4.05401,5.49475 4.87382,7.17382c0.81561,1.67047 2.09706,2.72111 2.94108,4.38572c2.22816,4.39447 2.39218,10.85669 -0.38497,15.07163c-4.12178,4.62147 -13.47245,8.29221 -20.91425,8.62036c-3.3941,0.14966 -6.97675,-0.59431 -10.29739,-1.01544l-1.59475,-0.19833c-0.0875,0.01053 -0.17726,0.016 -0.26874,0.016z" fill="url(#color-1)" stroke="none" stroke-width="0.5"/><path d="M296.01192,216.4565c2.97215,-16.24462 5.48281,-29.22625 5.48281,-29.22625l37.78325,-0.15789c0,0 2.77645,13.86644 5.72037,30.26775c0.00971,0.0541 -49.03891,-0.59676 -48.98643,-0.88361z" fill="#ff9600" stroke="#000000" stroke-width="0"/><g stroke-width="0"><path d="M356.84064,264.74938c-0.16935,10.05097 -14.10853,4.57839 -35.80932,4.57839c-21.70078,0 -38.91576,4.34675 -38.50428,-5.05147c0.52608,-12.01574 17.11889,-0.63604 38.81967,-0.63604c21.70078,0 35.63747,-7.40967 35.49394,1.10912z" fill="#f2d40e" stroke="#000000"/><path d="M344.09441,266.38599c0,-0.97798 0.79281,-1.77078 1.77078,-1.77078c0.97798,0 1.77078,0.79281 1.77078,1.77078c0,0.97798 -0.79281,1.77078 -1.77078,1.77078c-0.97798,0 -1.77078,-0.79281 -1.77078,-1.77078z" fill="#080700" stroke="none"/><path d="M348.70223,261.04886c-0.3209,3.37178 -1.40371,2.88109 -2.86307,2.7422c-1.45936,-0.13889 -2.74263,0.12661 -2.42173,-3.24517c0.3209,-3.37178 3.22345,-5.85366 3.22345,-5.85366c0,0 2.38226,2.98485 2.06135,6.35663z" fill="#f2d40e" stroke="none"/><path d="M340.02663,267.57169c2.8247,-1.86894 3.12333,-0.71826 3.93224,0.50431c0.80891,1.22257 1.82178,2.05407 -1.00292,3.92301c-2.8247,1.86894 -6.57922,1.17036 -6.57922,1.17036c0,0 0.82521,-3.72874 3.64991,-5.59769z" fill="#f2d40e" stroke="none"/><path d="M345.92962,271.74289c-0.96942,-3.24532 0.21842,-3.1974 1.62304,-3.61698c1.40462,-0.41958 2.49413,-1.14777 3.46355,2.09755c0.96942,3.24532 -0.78801,6.63589 -0.78801,6.63589c0,0 -3.32917,-1.87113 -4.29858,-5.11645z" fill="#f2d40e" stroke="none"/><path d="M343.03152,260.28157c2.52782,2.25433 1.49142,2.83668 0.51571,3.93076c-0.97571,1.09408 -1.52125,2.28558 -4.04907,0.03125c-2.52782,-2.25433 -2.81034,-6.06283 -2.81034,-6.06283c0,0 3.81588,-0.15351 6.3437,2.10082z" fill="#f2d40e" stroke="none"/></g></g><path d="M295.94244,216.86718c0,-0.9665 0.7835,-1.75 1.75,-1.75c0.9665,0 1.75,0.7835 1.75,1.75c0,0.9665 -0.7835,1.75 -1.75,1.75c-0.9665,0 -1.75,-0.7835 -1.75,-1.75z" fill="#ff9600" stroke="none" stroke-width="0.5"/><path d="M345.50939,219.11523c0,0.69036 -0.55964,1.25 -1.25,1.25c-0.58846,0 -1.08194,-0.40663 -1.2148,-0.95423c-0.74057,-0.20381 -1.28455,-0.8821 -1.28455,-1.68743c0,-0.9665 0.7835,-1.75 1.75,-1.75c0.9665,0 1.5359,0.7835 1.5359,1.75c0,0.13554 -0.0112,0.26747 -0.03312,0.39415c0.30166,0.22821 0.49657,0.59009 0.49657,0.99751z" fill="#ff9600" stroke="none" stroke-width="0.5"/><path d="M337.26392,216.86718c0,-0.9665 0.7835,-1.75 1.75,-1.75c0.9665,0 1.75,0.7835 1.75,1.75c0,0.9665 -0.7835,1.75 -1.75,1.75c-0.9665,0 -1.75,-0.7835 -1.75,-1.75z" fill="#ff9600" stroke="none" stroke-width="0.5"/><path d="M331.055,216.86718c0,-0.9665 0.7835,-1.75 1.75,-1.75c0.53678,0 1.01712,0.24168 1.33813,0.62215c0.32101,-0.38047 0.80135,-0.62215 1.33813,-0.62215c0.9665,0 1.75,0.7835 1.75,1.75c0,0.9665 -0.7835,1.75 -1.75,1.75c-0.53678,0 -1.01711,-0.24168 -1.33813,-0.62215c-0.32101,0.38047 -0.80135,0.62215 -1.33813,0.62215c-0.9665,0 -1.75,-0.7835 -1.75,-1.75z" fill="#ff9600" stroke="none" stroke-width="0.5"/><path d="M323.09801,218.15177c0,-0.69036 0.55964,-1.25 1.25,-1.25c0.31567,0 0.604,0.11701 0.824,0.31002c-0.00317,-0.04309 -0.0048,-0.08662 -0.0048,-0.13053c0,-0.9665 0.7835,-1.75 1.75,-1.75c0.3111,0 0.60325,0.08118 0.8564,0.22351c0.25315,-0.14234 0.5453,-0.22351 0.8564,-0.22351c0.9665,0 1.75,0.7835 1.75,1.75c0,0.9665 -0.7835,1.75 -1.75,1.75c-0.3111,0 -0.60325,-0.08118 -0.8564,-0.22351c-0.00778,0.00438 -0.0156,0.00869 -0.02345,0.01295c-0.22316,0.34139 -0.60877,0.56697 -1.04706,0.56697c-0.50801,0 -0.94524,-0.30304 -1.14077,-0.73822c-0.13354,0.54664 -0.62656,0.95233 -1.21434,0.95233c-0.69036,0 -1.25,-0.55964 -1.25,-1.25z" fill="#ff9600" stroke="none" stroke-width="0.5"/><path d="M308.78848,216.86718c0,-0.90794 2.40865,-2.84656 3.17344,-1.50817c0.25014,0.14763 0.46034,0.3557 0.61052,0.60413c0.3065,-0.50702 0.86302,-0.84596 1.4987,-0.84596c0.47595,0 0.90752,0.19 1.223,0.49829c0.06029,-0.02457 0.12224,-0.04518 0.18548,-0.06204c0.19423,-0.07435 0.4051,-0.1151 0.62549,-0.1151c0.45635,0 0.87191,0.17468 1.18346,0.46083c0.02256,0.01482 0.04468,0.02996 0.06638,0.04539c0.23587,-0.11841 0.50221,-0.18507 0.78412,-0.18507c0.20657,0 0.40479,0.03579 0.58877,0.10151c0.18399,-0.06572 0.3822,-0.10151 0.58878,-0.10151c0.9665,0 1.75,0.7835 1.75,1.75c0,0.9665 -0.7835,1.75 -1.75,1.75c-0.20657,0 -0.40479,-0.0358 -0.58878,-0.10152c-0.18399,0.06572 -0.3822,0.10152 -0.58877,0.10152c-0.48323,0 -0.92072,-0.19586 -1.23741,-0.51253c-0.23892,0.12235 -0.50968,0.19138 -0.79655,0.19138c-0.13446,0 -0.26537,-0.01516 -0.39113,-0.04387c-0.435,0.10573 -0.83124,0.0274 -1.07466,-0.37157c-0.17815,0.06112 -0.36929,0.09429 -0.56817,0.09429c-0.63569,0 -1.1922,-0.33894 -1.4987,-0.84596c-0.3065,0.50702 -0.86302,0.84596 -1.49871,0.84596c-0.09804,0 -0.1942,-0.00807 -0.28785,-0.02356c-1.01047,0.44353 -1.99741,0.27119 -1.99741,-1.72644z" fill="#ff9600" stroke="none" stroke-width="0.5"/><path d="M304.03971,215.46069c0.265,-0.5145 2.3117,-1.46315 2.78381,-0.63695c0.5158,0.30442 0.86181,0.86589 0.86181,1.50818c0,0.9665 -0.7835,1.75 -1.75,1.75c-0.36156,0 -0.69751,-0.10965 -0.97641,-0.29751c-0.96798,-0.1522 -1.60936,-0.98382 -0.91921,-2.32372z" fill="#ff9600" stroke="none" stroke-width="0.5"/><path d="M299.90331,216.22487c0,-0.9665 0.7835,-1.75 1.75,-1.75c0.9665,0 1.75,0.7835 1.75,1.75c0,0.9665 -0.7835,1.75 -1.75,1.75c-0.9665,0 -1.75,-0.7835 -1.75,-1.75z" fill="#ff9600" stroke="none" stroke-width="0.5"/><path d="M300.3687,224.71647c0.69036,0 1.25,0.55964 1.25,1.25c0,0.69036 -0.55964,1.25 -1.25,1.25c-0.1789,0 -0.34902,-0.03758 -0.5029,-0.10528c-0.30099,0.24459 -0.6848,0.39118 -1.10286,0.39118c-0.49002,0 -0.93301,-0.2014 -1.25068,-0.52595c-0.28296,0.19661 -0.62671,0.31185 -0.99738,0.31185c-0.9665,0 -1.75,-0.7835 -1.75,-1.75c0,-0.9665 0.7835,-1.75 1.75,-1.75c0.49002,0 0.933,0.2014 1.25068,0.52595c0.28296,-0.19661 0.62672,-0.31185 0.99738,-0.31185c0.5849,0 1.10277,0.28694 1.42053,0.72773c0.06044,-0.00897 0.12229,-0.01363 0.18522,-0.01363z" fill="#ffc72e" stroke="none" stroke-width="0.5"/><path d="M305.22058,228.21453c0,-0.27336 0.08774,-0.52621 0.2366,-0.73195c-0.32446,-0.0491 -0.6197,-0.18731 -0.85998,-0.38887c-0.30406,0.25507 -0.6961,0.40866 -1.12403,0.40866c-0.9665,0 -1.75,-0.7835 -1.75,-1.75c0,-0.9665 0.7835,-1.75 1.75,-1.75c0.42793,0 0.81997,0.15359 1.12403,0.40866c0.30406,-0.25507 0.6961,-0.40866 1.12403,-0.40866c0.48265,0 0.91966,0.19539 1.23626,0.51138c0.30332,-0.25248 0.69335,-0.40433 1.11885,-0.40433c0.9665,0 1.75,0.7835 1.75,1.75c0,0.9665 -0.7835,1.75 -1.75,1.75c-0.19957,0 -0.39134,-0.03341 -0.57002,-0.09494c0.13526,0.19973 0.21427,0.44066 0.21427,0.70005c0,0.69036 -0.55964,1.25 -1.25,1.25c-0.69036,0 -1.25,-0.55964 -1.25,-1.25z" fill="#ffc72e" stroke="none" stroke-width="0.5"/><path d="M327.88067,223.89532c0.9665,0 1.75,0.7835 1.75,1.75c0,0.9665 -0.7835,1.75 -1.75,1.75c-0.68291,0 -1.27445,-0.39117 -1.56279,-0.96166c-0.31642,0.45199 -0.841,0.74755 -1.43462,0.74755c-0.9665,0 -1.75,-0.7835 -1.75,-1.75c0,-0.9665 0.7835,-1.75 1.75,-1.75c0.68291,0 1.27445,0.39117 1.5628,0.96166c0.31642,-0.45199 0.841,-0.74755 1.43461,-0.74755z" fill="#ffc72e" stroke="none" stroke-width="0.5"/><path d="M331.12679,228.32157c0,-0.51662 0.3134,-0.96004 0.76045,-1.1505c-0.43936,-0.31793 -0.7252,-0.83494 -0.7252,-1.41871c0,-0.9665 0.7835,-1.75 1.75,-1.75c0.17045,0 0.3352,0.02437 0.49098,0.06981c0.78988,-0.18737 1.47312,0.15276 1.47312,1.68019c0,0.22004 -0.17418,0.54241 -0.4399,0.86046c-0.19302,0.34118 -0.4973,0.61113 -0.86354,0.76055c-0.08123,0.05076 -0.16337,0.09658 -0.2455,0.13625c0.18679,0.21843 0.29959,0.50202 0.29959,0.81196c0,0.69036 -0.55964,1.25 -1.25,1.25c-0.69036,0 -1.25,-0.55964 -1.25,-1.25z" fill="#ffc72e" stroke="none" stroke-width="0.5"/><path d="M335.94406,226.82287c0,-0.68096 0.54451,-1.23474 1.22187,-1.24969c0.08974,-0.88233 0.83493,-1.57082 1.74094,-1.57082c0.33328,0 0.6448,0.09316 0.90993,0.25487c0.26513,-0.16171 0.57665,-0.25487 0.90992,-0.25487c0.9665,0 1.75,0.7835 1.75,1.75c0,0.9665 -0.7835,1.75 -1.75,1.75c-0.32024,0 -0.62038,-0.08602 -0.8786,-0.23621c-0.11041,0.06321 -0.23139,0.11005 -0.35963,0.13724c-0.18197,0.06411 -0.37773,0.09897 -0.58163,0.09897c-0.21143,0 -0.41411,-0.0375 -0.60174,-0.1062c-0.20783,0.40195 -0.62736,0.6767 -1.11107,0.6767c-0.69036,0 -1.25,-0.55964 -1.25,-1.25z" fill="#ffc72e" stroke="none" stroke-width="0.5"/><path d="M342.36709,228.64272c0,-0.64099 0.48246,-1.16929 1.10406,-1.24157c-0.45205,-0.31641 -0.74766,-0.84103 -0.74766,-1.43469c0,-0.9665 0.7835,-1.75 1.75,-1.75c0.9665,0 1.75,0.7835 1.75,1.75c0,0.9665 -0.7835,1.75 -1.75,1.75c-0.00571,0 -0.01142,-0.00002 -0.01711,-0.00008c0.25227,0.2287 0.41071,0.55902 0.41071,0.92634c0,0.69036 -0.55964,1.25 -1.25,1.25c-0.69036,0 -1.25,-0.55964 -1.25,-1.25z" fill="#ffc72e" stroke="none" stroke-width="0.5"/><path d="M297.79949,229.9972c0.9665,0 1.75,0.7835 1.75,1.75c0,0.9665 -0.7835,1.75 -1.75,1.75c-0.53678,0 -1.01712,-0.24167 -1.33813,-0.62215c-0.32101,0.38047 -0.80135,0.62215 -1.33813,0.62215c-0.9665,0 -1.75,-0.7835 -1.75,-1.75c0,-0.9665 0.7835,-1.75 1.75,-1.75c0.53678,0 1.01711,0.24168 1.33813,0.62215c0.32101,-0.38047 0.80135,-0.62215 1.33813,-0.62215z" fill="#f2bc49" stroke="none" stroke-width="0.5"/><path d="M303.93598,232.49655c0,-0.69036 0.55964,-1.25 1.25,-1.25c0.27335,0 0.52621,0.08774 0.73195,0.2366c0.06109,-0.40368 0.26009,-0.76211 0.54745,-1.02577c0.3199,-0.34867 0.77933,-0.56724 1.28981,-0.56724c0.9665,0 1.75,0.7835 1.75,1.75c0,0.51048 -0.21858,0.96991 -0.56724,1.28981c-0.3199,0.34867 -0.77933,0.56724 -1.28981,0.56724c-0.51031,0 -0.96959,-0.21842 -1.28947,-0.56687c-0.17633,0.47654 -0.63484,0.81623 -1.17269,0.81623c-0.69036,0 -1.25,-0.55964 -1.25,-1.25z" fill="#f2bc49" stroke="none" stroke-width="0.5"/><path d="M317.71088,229.569c0.9665,0 1.75,0.7835 1.75,1.75c0,0.9665 -0.7835,1.75 -1.75,1.75c-0.63448,0 -1.19009,-0.33766 -1.49696,-0.84308c-0.26839,0.6219 -0.88711,1.05718 -1.6075,1.05718c-0.9665,0 -1.75,-0.7835 -1.75,-1.75c0,-0.9665 0.7835,-1.75 1.75,-1.75c0.63448,0 1.19009,0.33766 1.49696,0.84308c0.26839,-0.6219 0.88711,-1.05718 1.6075,-1.05718z" fill="#f2bc49" stroke="none" stroke-width="0.5"/><path d="M320.34995,231.10489c0,-0.9665 0.7835,-1.75 1.75,-1.75c0.9665,0 1.75,0.7835 1.75,1.75c0,0.9665 -0.7835,1.75 -1.75,1.75c-0.9665,0 -1.75,-0.7835 -1.75,-1.75z" fill="#f2bc49" stroke="none" stroke-width="0.5"/><path d="M327.41526,231.10489c0,-0.9665 0.7835,-1.75 1.75,-1.75c0.9665,0 1.75,0.7835 1.75,1.75c0,0.9665 -0.7835,1.75 -1.75,1.75c-0.9665,0 -1.75,-0.7835 -1.75,-1.75z" fill="#f2bc49" stroke="none" stroke-width="0.5"/><path d="M338.62033,234.20934c0,-0.33082 0.12851,-0.63162 0.33833,-0.85521c-0.2128,0.09204 -0.44749,0.14305 -0.6941,0.14305c-0.9665,0 -1.75,-0.7835 -1.75,-1.75c0,-0.9665 0.7835,-1.75 1.75,-1.75c0.42778,0 0.81972,0.15349 1.12373,0.40841c0.32101,-0.38068 0.80148,-0.6225 1.33843,-0.6225c0.9665,0 1.75,0.7835 1.75,1.75c0,0.9665 -0.7835,1.75 -1.75,1.75c-0.00571,0 -0.01141,-0.00003 -0.01711,-0.00009c0.25227,0.2287 0.41071,0.55902 0.41071,0.92634c0,0.69036 -0.55964,1.25 -1.25,1.25c-0.69036,0 -1.25,-0.55964 -1.25,-1.25zM339.603,232.87468c-0.04618,0.05477 -0.09566,0.10666 -0.14814,0.15537c0.08593,-0.03027 0.17616,-0.05142 0.26953,-0.06227c-0.04184,-0.02928 -0.08234,-0.06036 -0.12139,-0.0931z" fill="#f2bc49" stroke="none" stroke-width="0.5"/><path d="M345.65105,229.89013c0.9665,0 1.75,0.7835 1.75,1.75c0,0.9665 -0.7835,1.75 -1.75,1.75c-0.33299,0 -0.64426,-0.09301 -0.90924,-0.25446c-0.12092,0.02642 -0.24651,0.04036 -0.37536,0.04036c-0.9665,0 -1.75,-0.7835 -1.75,-1.75c0,-0.9665 0.7835,-1.75 1.75,-1.75c0.33299,0 0.64425,0.093 0.90924,0.25445c0.12092,-0.02642 0.24652,-0.04035 0.37537,-0.04035z" fill="#f2bc49" stroke="none" stroke-width="0.5"/><path d="M301.68791,220.0787c0,-0.69036 0.55964,-1.25 1.25,-1.25c0.69036,0 1.25,0.55964 1.25,1.25c0,0.69036 -0.55964,1.25 -1.25,1.25c-0.69036,0 -1.25,-0.55964 -1.25,-1.25z" fill="#ff9600" stroke="none" stroke-width="0.5"/><path d="M311.32246,220.50689c0,-0.69036 0.55964,-1.25 1.25,-1.25c0.69036,0 1.25,0.55964 1.25,1.25c0,0.69036 -0.55964,1.25 -1.25,1.25c-0.69036,0 -1.25,-0.55964 -1.25,-1.25z" fill="#ff9600" stroke="none" stroke-width="0.5"/><path d="M330.91269,220.50689c0,-0.69036 0.55964,-1.25 1.25,-1.25c0.69036,0 1.25,0.55964 1.25,1.25c0,0.69036 -0.55964,1.25 -1.25,1.25c-0.69036,0 -1.25,-0.55964 -1.25,-1.25z" fill="#ff9600" stroke="none" stroke-width="0.5"/><path d="M336.80047,221.79149c0,-0.69036 0.55964,-1.25 1.25,-1.25c0.69036,0 1.25,0.55964 1.25,1.25c0,0.69036 -0.55964,1.25 -1.25,1.25c-0.69036,0 -1.25,-0.55964 -1.25,-1.25z" fill="#ff9600" stroke="none" stroke-width="0.5"/><path d="M301.04561,228.74977c0,-0.69036 0.55964,-1.25 1.25,-1.25c0.69036,0 1.25,0.55964 1.25,1.25c0,0.69036 -0.55964,1.25 -1.25,1.25c-0.69036,0 -1.25,-0.55964 -1.25,-1.25z" fill="#ffc72e" stroke="none" stroke-width="0.5"/><path d="M317.53138,227.35813c0,-0.1411 0.02338,-0.27673 0.06647,-0.40324c-0.19722,0.07701 -0.41183,0.11928 -0.63632,0.11928c-0.37248,0 -0.71777,-0.11637 -1.00152,-0.31473c-0.30617,0.26291 -0.70428,0.42178 -1.13949,0.42178c-0.38732,0 -0.74524,-0.12582 -1.03514,-0.33882c-0.2268,0.23088 -0.54256,0.37408 -0.89177,0.37408c-0.13883,0 -0.27238,-0.02264 -0.39715,-0.06441c-0.22837,0.29941 -0.58887,0.49262 -0.9945,0.49262c-0.69036,0 -1.25,-0.55964 -1.25,-1.25c0,-0.69036 0.55964,-1.25 1.25,-1.25c0.13883,0 0.27238,0.02264 0.39715,0.06441c0.22837,-0.29941 0.58887,-0.49262 0.9945,-0.49262c0.10774,0 0.2123,0.01363 0.31204,0.03926c0.2643,-0.63113 0.88781,-1.07452 1.61487,-1.07452c0.37248,0 0.71777,0.11637 1.00151,0.31474c0.30617,-0.26291 0.70428,-0.42178 1.1395,-0.42178c0.9665,0 1.75,0.7835 1.75,1.75c0,0.29354 -0.07228,0.5702 -0.2,0.81316c0.08691,-0.01913 0.17721,-0.0292 0.26986,-0.0292c0.69036,0 1.25,0.55964 1.25,1.25c0,0.69036 -0.55964,1.25 -1.25,1.25c-0.69036,0 -1.25,-0.55964 -1.25,-1.25z" fill="#ffc72e" stroke="none" stroke-width="0.5"/><path d="M320.63585,228.10746c0,-0.69036 0.55964,-1.25 1.25,-1.25c0.69036,0 1.25,0.55964 1.25,1.25c0,0.69036 -0.55964,1.25 -1.25,1.25c-0.69036,0 -1.25,-0.55964 -1.25,-1.25z" fill="#ffc72e" stroke="none" stroke-width="0.5"/><path d="M325.02492,228.32157c0,-0.69036 0.55964,-1.25 1.25,-1.25c0.69036,0 1.25,0.55964 1.25,1.25c0,0.69036 -0.55964,1.25 -1.25,1.25c-0.69036,0 -1.25,-0.55964 -1.25,-1.25z" fill="#ffc72e" stroke="none" stroke-width="0.5"/><path d="M294.94372,236.13627c0,-0.69036 0.55964,-1.25 1.25,-1.25c0.69036,0 1.25,0.55964 1.25,1.25c0,0.69036 -0.55964,1.25 -1.25,1.25c-0.69036,0 -1.25,-0.55964 -1.25,-1.25z" fill="#f2bc49" stroke="none" stroke-width="0.5"/><path d="M301.36676,232.60359c0,-0.69036 0.55964,-1.25 1.25,-1.25c0.69036,0 1.25,0.55964 1.25,1.25c0,0.69036 -0.55964,1.25 -1.25,1.25c-0.69036,0 -1.25,-0.55964 -1.25,-1.25z" fill="#f2bc49" stroke="none" stroke-width="0.5"/><path d="M308.32504,234.1023c0,-0.69036 0.55964,-1.25 1.25,-1.25c0.69036,0 1.25,0.55964 1.25,1.25c0,0.69036 -0.55964,1.25 -1.25,1.25c-0.69036,0 -1.25,-0.55964 -1.25,-1.25z" fill="#f2bc49" stroke="none" stroke-width="0.5"/><path d="M310.7872,234.74461c0,-0.69036 0.55964,-1.25 1.25,-1.25c0.69036,0 1.25,0.55964 1.25,1.25c0,0.69036 -0.55964,1.25 -1.25,1.25c-0.69036,0 -1.25,-0.55964 -1.25,-1.25z" fill="#f2bc49" stroke="none" stroke-width="0.5"/><path d="M314.85512,235.27985c0,-0.69036 0.55964,-1.25 1.25,-1.25c0.69036,0 1.25,0.55964 1.25,1.25c0,0.69036 -0.55964,1.25 -1.25,1.25c-0.69036,0 -1.25,-0.55964 -1.25,-1.25z" fill="#f2bc49" stroke="none" stroke-width="0.5"/><path d="M321.3852,235.3869c0,-0.69036 0.55964,-1.25 1.25,-1.25c0.69036,0 1.25,0.55964 1.25,1.25c0,0.69036 -0.55964,1.25 -1.25,1.25c-0.69036,0 -1.25,-0.55964 -1.25,-1.25z" fill="#f2bc49" stroke="none" stroke-width="0.5"/><path d="M326.63067,234.1023c0,-0.69036 0.55964,-1.25 1.25,-1.25c0.69036,0 1.25,0.55964 1.25,1.25c0,0.69036 -0.55964,1.25 -1.25,1.25c-0.69036,0 -1.25,-0.55964 -1.25,-1.25z" fill="#f2bc49" stroke="none" stroke-width="0.5"/><path d="M332.69793,231.24655c0.69036,0 1.25,0.55964 1.25,1.25c0,0.69036 -0.55964,1.25 -1.25,1.25c-0.0544,0 -0.108,-0.00348 -0.16057,-0.01022c-0.05257,0.00674 -0.10617,0.01022 -0.16057,0.01022c-0.69036,0 -1.25,-0.55964 -1.25,-1.25c0,-0.69036 0.55964,-1.25 1.25,-1.25c0.0544,0 0.108,0.00348 0.16057,0.01022c0.05257,-0.00674 0.10617,-0.01022 0.16057,-0.01022z" fill="#f2bc49" stroke="none" stroke-width="0.5"/><path d="M341.08249,234.74461c0,-0.69036 0.55964,-1.25 1.25,-1.25c0.69036,0 1.25,0.55964 1.25,1.25c0,0.69036 -0.55964,1.25 -1.25,1.25c-0.69036,0 -1.25,-0.55964 -1.25,-1.25z" fill="#f2bc49" stroke="none" stroke-width="0.5"/><path d="M304.86418,223.5043c0,-0.41422 0.33578,-0.75 0.75,-0.75c0.41422,0 0.75,0.33578 0.75,0.75c0,0.41422 -0.33578,0.75 -0.75,0.75c-0.41422,0 -0.75,-0.33578 -0.75,-0.75z" fill="#ff9600" stroke="none" stroke-width="0.5"/><path d="M315.89036,221.89854c0,-0.41422 0.33578,-0.75 0.75,-0.75c0.41422,0 0.75,0.33578 0.75,0.75c0,0.41422 -0.33578,0.75 -0.75,0.75c-0.41422,0 -0.75,-0.33578 -0.75,-0.75z" fill="#ff9600" stroke="none" stroke-width="0.5"/><path d="M329.80692,223.82546c0,-0.41422 0.33578,-0.75 0.75,-0.75c0.41422,0 0.75,0.33578 0.75,0.75c0,0.41422 -0.33578,0.75 -0.75,0.75c-0.41422,0 -0.75,-0.33578 -0.75,-0.75z" fill="#ff9600" stroke="none" stroke-width="0.5"/><path d="M338.47802,224.57481c0,-0.41422 0.33578,-0.75 0.75,-0.75c0.41422,0 0.75,0.33578 0.75,0.75c0,0.41422 -0.33578,0.75 -0.75,0.75c-0.41422,0 -0.75,-0.33578 -0.75,-0.75z" fill="#ff9600" stroke="none" stroke-width="0.5"/><path d="M296.62129,228.85681c0,-0.41422 0.33578,-0.75 0.75,-0.75c0.41422,0 0.75,0.33578 0.75,0.75c0,0.41422 -0.33578,0.75 -0.75,0.75c-0.41422,0 -0.75,-0.33578 -0.75,-0.75z" fill="#ffc72e" stroke="none" stroke-width="0.5"/><path d="M313.00001,230.03438c0,-0.41422 0.33578,-0.75 0.75,-0.75c0.41422,0 0.75,0.33578 0.75,0.75c0,0.41422 -0.33578,0.75 -0.75,0.75c-0.41422,0 -0.75,-0.33578 -0.75,-0.75z" fill="#ffc72e" stroke="none" stroke-width="0.5"/><path d="M335.05241,230.03438c0,-0.41422 0.33578,-0.75 0.75,-0.75c0.41422,0 0.75,0.33578 0.75,0.75c0,0.41422 -0.33578,0.75 -0.75,0.75c-0.41422,0 -0.75,-0.33578 -0.75,-0.75z" fill="#ffc72e" stroke="none" stroke-width="0.5"/><path d="M339.22738,231.64013c0,-0.41422 0.33578,-0.75 0.75,-0.75c0.41422,0 0.75,0.33578 0.75,0.75c0,0.41422 -0.33578,0.75 -0.75,0.75c-0.41422,0 -0.75,-0.33578 -0.75,-0.75z" fill="#ffc72e" stroke="none" stroke-width="0.5"/><path d="M299.51165,237.31382c0,-0.41422 0.33578,-0.75 0.75,-0.75c0.41422,0 0.75,0.33578 0.75,0.75c0,0.41422 -0.33578,0.75 -0.75,0.75c-0.41422,0 -0.75,-0.33578 -0.75,-0.75z" fill="#f2bc49" stroke="none" stroke-width="0.5"/><path d="M302.29497,235.81509c0,-0.41422 0.33578,-0.75 0.75,-0.75c0.41422,0 0.75,0.33578 0.75,0.75c0,0.41422 -0.33578,0.75 -0.75,0.75c-0.41422,0 -0.75,-0.33578 -0.75,-0.75z" fill="#f2bc49" stroke="none" stroke-width="0.5"/><path d="M311.39426,237.84906c0,-0.41422 0.33578,-0.75 0.75,-0.75c0.41422,0 0.75,0.33578 0.75,0.75c0,0.41422 -0.33578,0.75 -0.75,0.75c-0.41422,0 -0.75,-0.33578 -0.75,-0.75z" fill="#f2bc49" stroke="none" stroke-width="0.5"/><path d="M315.67627,240.31123c0,-0.41422 0.33578,-0.75 0.75,-0.75c0.41422,0 0.75,0.33578 0.75,0.75c0,0.41422 -0.33578,0.75 -0.75,0.75c-0.41422,0 -0.75,-0.33578 -0.75,-0.75z" fill="#f2bc49" stroke="none" stroke-width="0.5"/><path d="M326.59542,238.49137c0,-0.41422 0.33578,-0.75 0.75,-0.75c0.41422,0 0.75,0.33578 0.75,0.75c0,0.41422 -0.33578,0.75 -0.75,0.75c-0.41422,0 -0.75,-0.33578 -0.75,-0.75z" fill="#f2bc49" stroke="none" stroke-width="0.5"/><path d="M336.22996,236.45742c0,-0.41422 0.33578,-0.75 0.75,-0.75c0.41422,0 0.75,0.33578 0.75,0.75c0,0.41422 -0.33578,0.75 -0.75,0.75c-0.41422,0 -0.75,-0.33578 -0.75,-0.75z" fill="#f2bc49" stroke="none" stroke-width="0.5"/><path d="M342.22479,239.02663c0,-0.41422 0.33578,-0.75 0.75,-0.75c0.41422,0 0.75,0.33578 0.75,0.75c0,0.41422 -0.33578,0.75 -0.75,0.75c-0.41422,0 -0.75,-0.33578 -0.75,-0.75z" fill="#f2bc49" stroke="none" stroke-width="0.5"/></g><path d="" fill="none" stroke="#000000" stroke-width="2" stroke-linecap="round"/><g><g><path d="M378.99127,121.25696l57.60854,-20.78328c0,0 -2.66825,35.09362 -7.52879,52.59183c-5.24483,18.88162 -22.87516,56.86378 -22.87516,56.86378l-28.18217,-25.22188z" fill="#f3ca58" stroke="#000000" stroke-width="0" stroke-linecap="round"/><path d="M382.16956,175.92955c8.80965,5.70519 16.71346,11.04164 16.71346,11.04164c0,0 -8.78249,-3.69641 -17.59212,-9.40159c-8.80965,-5.70519 -15.96114,-10.40933 -15.19745,-11.58857c0.76368,-1.17925 7.26647,4.24334 16.07611,9.94852z" fill="#ff9600" stroke="#000000" stroke-width="0" stroke-linecap="butt"/><path d="M377.92449,155.58269c0.1888,-1.39218 8.38168,0.74502 18.78212,2.15552c10.40044,1.41051 19.82429,2.87313 19.82429,2.87313c0,0 -9.52044,0.39544 -19.9209,-1.01507c-10.40045,-1.4105 -18.87433,-2.6214 -18.68552,-4.01358z" fill="#ff9600" stroke="#000000" stroke-width="0" stroke-linecap="butt"/><g stroke="#000000" stroke-width="0" stroke-linecap="round"><g fill="#f2bc49"><path d="M378.91858,125.97483c0.03776,-2.45068 0.07269,-4.71788 0.07269,-4.71788l57.60854,-20.78328c0,0 -1.01039,13.28901 -2.92027,27.58933c-0.04108,0.30749 -54.7618,-2.03387 -54.76096,-2.08815z"/></g><g fill="#ffc72e"><path d="M378.99127,121.25696l57.60854,-20.78328c0,0 -0.78192,10.28414 -2.27027,22.49388c-0.0031,0.02544 -55.33827,-1.71059 -55.33827,-1.71059z"/></g><g fill="#ff9600"><path d="M406.70748,111.25784c9.77585,-3.52681 29.89234,-10.78419 29.89234,-10.78419c0,0 -0.09568,2.95478 -0.45816,6.70035c-0.13291,1.37334 -0.46363,2.84746 -0.60795,4.32911c-0.00126,0.01284 -29.01039,-0.17885 -28.82623,-0.24529z"/></g></g><path d="M433.09815,113.28758c-0.96593,-0.03311 -1.72213,-0.843 -1.68901,-1.80893c0.03311,-0.96593 0.843,-1.72213 1.80893,-1.68901c0.96593,0.03311 1.72213,0.843 1.68901,1.80893c-0.03311,0.96593 -0.843,1.72213 -1.80893,1.68901z" fill="#ff9600" stroke="none" stroke-width="0.5" stroke-linecap="butt"/><path d="M429.32393,114.09481c-0.64243,-0.02203 -1.1921,-0.38767 -1.47847,-0.91428c-0.24351,0.70853 -0.92747,1.20645 -1.71519,1.17944c-0.23157,-0.00793 -0.45107,-0.06052 -0.65053,-0.14919c-0.20507,0.0748 -0.42766,0.11222 -0.65922,0.10429c-0.96593,-0.03311 -1.72213,-0.843 -1.68901,-1.80893c0.03311,-0.96593 0.843,-1.72213 1.80893,-1.68901c0.23157,0.00793 0.45107,0.06052 0.65053,0.14919c0.20507,-0.0748 0.42766,-0.11222 0.65922,-0.10429c0.64244,0.02202 1.1921,0.38767 1.47847,0.91429c0.24351,-0.70853 0.92747,-1.20646 1.71518,-1.17945c0.96593,0.03311 1.72213,0.843 1.68901,1.80893c-0.03311,0.96593 -0.843,1.72213 -1.80893,1.68901z" fill="#ff9600" stroke="none" stroke-width="0.5" stroke-linecap="butt"/><path d="M421.29756,113.25763c-0.96593,-0.03311 -1.72213,-0.843 -1.68901,-1.80893c0.03311,-0.96593 0.843,-1.72213 1.80893,-1.68901c0.96593,0.03311 1.72213,0.843 1.68901,1.80893c-0.03311,0.96593 -0.843,1.72213 -1.80893,1.68901z" fill="#ff9600" stroke="none" stroke-width="0.5" stroke-linecap="butt"/><path d="M415.33179,112.11198c-0.03079,-0.14022 -0.0447,-0.28653 -0.03956,-0.43662c0.03311,-0.96593 0.843,-1.72213 1.80893,-1.68901c0.96593,0.03311 1.72213,0.843 1.68901,1.80893c-0.03311,0.96593 -0.843,1.72213 -1.80893,1.68901c-0.15008,-0.00515 -0.29509,-0.02906 -0.43288,-0.06936c-0.02915,0.6849 -0.60527,1.21943 -1.29169,1.19589c-0.68994,-0.02365 -1.23008,-0.60216 -1.20643,-1.2921c0.02354,-0.68643 0.59626,-1.22457 1.28156,-1.20675z" fill="#ff9600" stroke="none" stroke-width="0.5" stroke-linecap="butt"/><path d="M412.11648,113.31752c-0.96593,-0.03311 -1.72213,-0.843 -1.68901,-1.80893c0.03311,-0.96593 0.843,-1.72213 1.80893,-1.68901c0.96593,0.03311 1.72213,0.843 1.68901,1.80893c-0.03311,0.96593 -0.843,1.72213 -1.80893,1.68901z" fill="#ff9600" stroke="none" stroke-width="0.5" stroke-linecap="butt"/><path d="M432.00012,117.99479c-0.68995,-0.02365 -1.23008,-0.60216 -1.20643,-1.2921c0.02365,-0.68994 0.60215,-1.23009 1.2921,-1.20643c0.68995,0.02365 1.23008,0.60216 1.20643,1.2921c-0.02365,0.68994 -0.60215,1.23009 -1.2921,1.20643z" fill="#ff9600" stroke="none" stroke-width="0.5" stroke-linecap="butt"/><path d="M425.00659,119.81564c-0.68995,-0.02365 -1.23008,-0.60216 -1.20643,-1.2921c0.02365,-0.68994 0.60215,-1.23009 1.2921,-1.20643c0.68995,0.02365 1.23008,0.60216 1.20643,1.2921c-0.02365,0.68994 -0.60215,1.23009 -1.2921,1.20643z" fill="#ff9600" stroke="none" stroke-width="0.5" stroke-linecap="butt"/><path d="M421.20563,115.93875c-0.68994,-0.02365 -1.23008,-0.60216 -1.20643,-1.2921c0.02365,-0.68994 0.60216,-1.23008 1.2921,-1.20643c0.68995,0.02365 1.23008,0.60216 1.20643,1.2921c-0.02365,0.68994 -0.60215,1.23009 -1.2921,1.20643z" fill="#ff9600" stroke="none" stroke-width="0.5" stroke-linecap="butt"/><path d="M405.90775,114.10298c-0.68995,-0.02365 -1.23008,-0.60216 -1.20643,-1.2921c0.02365,-0.68994 0.60215,-1.23009 1.2921,-1.20643c0.68995,0.02365 1.23008,0.60216 1.20643,1.2921c-0.02365,0.68994 -0.60215,1.23009 -1.2921,1.20643z" fill="#ff9600" stroke="none" stroke-width="0.5" stroke-linecap="butt"/><path d="M401.68874,116.95557c-0.68995,-0.02365 -1.23008,-0.60216 -1.20643,-1.2921c0.02365,-0.68994 0.60215,-1.23009 1.2921,-1.20643c0.68995,0.02365 1.23008,0.60216 1.20643,1.2921c-0.02365,0.68994 -0.60215,1.23009 -1.2921,1.20643z" fill="#ff9600" stroke="none" stroke-width="0.5" stroke-linecap="butt"/><path d="M432.06429,125.05374c-0.96593,-0.03311 -1.72213,-0.843 -1.68901,-1.80893c0.03311,-0.96593 0.843,-1.72213 1.80893,-1.68901c0.96593,0.03311 1.72213,0.843 1.68901,1.80893c-0.03311,0.96593 -0.843,1.72213 -1.80893,1.68901z" fill="#ffc72e" stroke="none" stroke-width="0.5" stroke-linecap="butt"/><path d="M426.85735,123.93859c-0.96593,-0.03311 -1.72213,-0.843 -1.68901,-1.80893c0.03311,-0.96593 0.843,-1.72213 1.80893,-1.68901c0.96593,0.03311 1.72213,0.843 1.68901,1.80893c-0.03311,0.96593 -0.843,1.72213 -1.80893,1.68901z" fill="#ffc72e" stroke="none" stroke-width="0.5" stroke-linecap="butt"/><path d="M418.98892,121.41502c0.20327,-0.07322 0.42359,-0.10975 0.65268,-0.10191c0.50754,0.0174 0.95717,0.24925 1.26483,0.60554c0.00855,0.00017 0.0171,0.0004 0.02568,0.00069c0.96593,0.03311 1.72213,0.843 1.68901,1.80893c-0.03311,0.96593 -0.843,1.72213 -1.80893,1.68901c-0.50754,-0.0174 -0.95717,-0.24925 -1.26483,-0.60554c-0.00855,-0.00017 -0.0171,-0.0004 -0.02568,-0.00069c-0.47585,-0.01632 -0.9008,-0.22114 -1.20555,-0.54028c-0.20328,0.07322 -0.42359,0.10975 -0.65268,0.10191c-0.96593,-0.03311 -1.72213,-0.843 -1.68901,-1.80893c0.03311,-0.96593 0.843,-1.72213 1.80893,-1.68901c0.47585,0.01632 0.9008,0.22114 1.20556,0.54028z" fill="#ffc72e" stroke="none" stroke-width="0.5" stroke-linecap="butt"/><path d="M408.18384,125.18026c-0.68995,-0.02365 -1.23008,-0.60216 -1.20643,-1.2921c0.02029,-0.59175 0.44873,-1.07331 1.00555,-1.18347c-0.26469,-0.3185 -0.418,-0.73161 -0.40271,-1.17805c0.03311,-0.96593 0.843,-1.72213 1.80893,-1.68901c0.53462,0.01833 1.00499,0.2746 1.31285,0.66359c0.32764,-0.47352 0.88194,-0.77568 1.50019,-0.75449c0.96593,0.03311 1.72213,0.843 1.68901,1.80893c-0.03311,0.96593 -0.843,1.72213 -1.80893,1.68901c-0.53462,-0.01833 -1.00498,-0.27461 -1.31284,-0.6636c-0.31748,0.45885 -0.84782,0.75679 -1.44292,0.75552c0.10236,0.189 0.15728,0.40687 0.14938,0.6372c-0.02365,0.68994 -0.60215,1.23009 -1.2921,1.20643z" fill="#ffc72e" stroke="none" stroke-width="0.5" stroke-linecap="butt"/><path d="M404.9658,123.18804c-0.96593,-0.03311 -1.72213,-0.843 -1.68901,-1.80893c0.03311,-0.96593 0.843,-1.72213 1.80893,-1.68901c0.96593,0.03311 1.72213,0.843 1.68901,1.80893c-0.03311,0.96593 -0.843,1.72213 -1.80893,1.68901z" fill="#ffc72e" stroke="none" stroke-width="0.5" stroke-linecap="butt"/><path d="M394.26325,122.44962c-0.02016,-0.04147 -0.03872,-0.08385 -0.0556,-0.12706c-0.334,0.40448 -0.84545,0.65496 -1.41024,0.63559c-0.63465,-0.02176 -1.17875,-0.37883 -1.46792,-0.89517c-0.32386,0.49534 -0.89115,0.81429 -1.52578,0.79253c-0.5648,-0.01937 -1.05787,-0.30429 -1.3634,-0.73069c-0.28938,0.61278 -0.92288,1.02697 -1.64316,1.00227c-0.96593,-0.03311 -1.72213,-0.843 -1.68901,-1.80893c0.03311,-0.96593 0.843,-1.72213 1.80893,-1.68901c0.5648,0.01937 1.05786,0.3043 1.36339,0.73069c0.28938,-0.61278 0.92288,-1.02697 1.64316,-1.00227c0.63465,0.02176 1.17875,0.37884 1.46791,0.89518c0.32386,-0.49534 0.89115,-0.8143 1.52579,-0.79255c0.72028,0.0247 1.32394,0.4813 1.57065,1.11246c0.334,-0.40448 0.84544,-0.65496 1.41024,-0.63559c0.71486,0.02452 1.31488,0.47447 1.56505,1.0983c0.324,-0.28797 0.7549,-0.45677 1.22232,-0.44075c0.96593,0.03311 1.72213,0.843 1.68901,1.80893c-0.03311,0.96593 -0.843,1.72213 -1.80893,1.68901c-0.71487,-0.02452 -1.31488,-0.47447 -1.56505,-1.0983c-0.11419,0.10148 -0.24165,0.18818 -0.37931,0.2572c-0.1367,0.56432 -0.65459,0.97436 -1.25764,0.95369c-0.68995,-0.02365 -1.23008,-0.60216 -1.20643,-1.2921c0.00566,-0.16493 0.04301,-0.32129 0.10601,-0.46343z" fill="#ffc72e" stroke="none" stroke-width="0.5" stroke-linecap="butt"/><path d="M431.7104,129.91212c-0.96593,-0.03311 -1.72213,-0.843 -1.68901,-1.80893c0.03311,-0.96593 0.843,-1.72213 1.80893,-1.68901c0.96593,0.03311 1.72213,0.843 1.68901,1.80893c-0.03311,0.96593 -0.843,1.72213 -1.80893,1.68901z" fill="#f2bc49" stroke="none" stroke-width="0.5" stroke-linecap="butt"/><path d="M424.31107,127.17699c0.27643,-0.16233 0.60073,-0.25071 0.94483,-0.23891c0.51431,0.01764 0.96915,0.25548 1.27706,0.61984c0.21599,-0.75394 0.92302,-1.29373 1.74233,-1.26563c0.96593,0.03311 1.72213,0.843 1.68901,1.80893c-0.03311,0.96593 -0.843,1.72213 -1.80893,1.68901c-0.51431,-0.01764 -0.96916,-0.25548 -1.27707,-0.61985c-0.21599,0.75394 -0.92302,1.29373 -1.74233,1.26563c-0.34409,-0.0118 -0.66157,-0.12217 -0.92625,-0.30307c-0.27643,0.16233 -0.60072,0.25071 -0.94482,0.23892c-0.96593,-0.03311 -1.72213,-0.843 -1.68901,-1.80893c0.03311,-0.96593 0.843,-1.72213 1.80893,-1.68901c0.34409,0.0118 0.66156,0.12217 0.92624,0.30306z" fill="#f2bc49" stroke="none" stroke-width="0.5" stroke-linecap="butt"/><path d="M418.78717,129.8437c-0.96593,-0.03311 -1.72213,-0.843 -1.68901,-1.80893c0.03311,-0.96593 0.843,-1.72213 1.80893,-1.68901c0.96593,0.03311 1.72213,0.843 1.68901,1.80893c-0.03311,0.96593 -0.843,1.72213 -1.80893,1.68901z" fill="#f2bc49" stroke="none" stroke-width="0.5" stroke-linecap="butt"/><path d="M413.43587,126.23653c0.33415,-0.37951 0.8293,-0.6119 1.3741,-0.59323c0.96593,0.03311 1.72213,0.843 1.68901,1.80893c-0.03311,0.96593 -0.843,1.72213 -1.80893,1.68901c-0.18068,-0.00619 -0.35402,-0.03957 -0.51622,-0.09605c-0.33415,0.37951 -0.8293,0.6119 -1.3741,0.59323c-0.96593,-0.03311 -1.72213,-0.843 -1.68901,-1.80893c0.03311,-0.96593 0.843,-1.72213 1.80893,-1.68901c0.18069,0.00619 0.35402,0.03957 0.51623,0.09605z" fill="#f2bc49" stroke="none" stroke-width="0.5" stroke-linecap="butt"/><path d="M406.38751,128.83031c-0.09917,0.01387 -0.20089,0.0194 -0.3044,0.01584c-0.56793,-0.01947 -1.06335,-0.30746 -1.36846,-0.73782c-0.32639,0.30022 -0.76638,0.4773 -1.24462,0.46092c-0.47823,-0.0164 -0.90505,-0.2232 -1.21013,-0.54508c-0.33387,0.40846 -0.84786,0.66185 -1.41578,0.64238c-0.96593,-0.03311 -1.72213,-0.843 -1.68901,-1.80893c0.03311,-0.96593 0.843,-1.72213 1.80893,-1.68901c0.47824,0.0164 0.90505,0.2232 1.21013,0.54508c0.33387,-0.40846 0.84786,-0.66185 1.41579,-0.64238c0.56793,0.01947 1.06335,0.30746 1.36847,0.73783c0.32639,-0.30022 0.76638,-0.4773 1.24461,-0.46092c0.71486,0.02452 1.31488,0.47447 1.56505,1.0983c0.324,-0.28797 0.7549,-0.45678 1.22232,-0.44076c0.96593,0.03311 1.72213,0.843 1.68901,1.80893c-0.03311,0.96593 -0.843,1.72213 -1.80893,1.68901c-0.08019,-0.00275 -0.15894,-0.01085 -0.23591,-0.02396c-0.23684,0.31592 -0.61919,0.51482 -1.04372,0.50027c-0.64189,-0.02201 -1.15412,-0.52425 -1.20331,-1.1497z" fill="#f2bc49" stroke="none" stroke-width="0.5" stroke-linecap="butt"/><path d="M397.12119,127.97691c-0.96593,-0.03311 -1.72213,-0.843 -1.68901,-1.80893c0.03311,-0.96593 0.843,-1.72213 1.80893,-1.68901c0.96593,0.03311 1.72213,0.843 1.68901,1.80893c-0.03311,0.96593 -0.843,1.72213 -1.80893,1.68901z" fill="#f2bc49" stroke="none" stroke-width="0.5" stroke-linecap="butt"/><path d="M393.54051,128.60347c-0.96593,-0.03311 -1.72213,-0.843 -1.68901,-1.80893c0.03311,-0.96593 0.843,-1.72213 1.80893,-1.68901c0.96593,0.03311 1.72213,0.843 1.68901,1.80893c-0.03311,0.96593 -0.843,1.72213 -1.80893,1.68901z" fill="#f2bc49" stroke="none" stroke-width="0.5" stroke-linecap="butt"/><path d="M427.72222,127.02836c-0.68994,-0.02365 -1.23008,-0.60216 -1.20643,-1.2921c0.02365,-0.68994 0.60216,-1.23008 1.2921,-1.20643c0.68995,0.02365 1.23008,0.60216 1.20643,1.2921c-0.02365,0.68994 -0.60215,1.23009 -1.2921,1.20643z" fill="#ffc72e" stroke="none" stroke-width="0.5" stroke-linecap="butt"/><path d="M414.62142,124.8654c-0.68995,-0.02365 -1.23008,-0.60216 -1.20643,-1.2921c0.02365,-0.68994 0.60215,-1.23009 1.2921,-1.20643c0.68994,0.02365 1.23008,0.60216 1.20643,1.2921c-0.02365,0.68994 -0.60216,1.23008 -1.2921,1.20643z" fill="#ffc72e" stroke="none" stroke-width="0.5" stroke-linecap="butt"/><path d="M401.74624,125.49511c-0.68995,-0.02365 -1.23008,-0.60216 -1.20643,-1.2921c0.02365,-0.68994 0.60215,-1.23009 1.2921,-1.20643c0.68995,0.02365 1.23008,0.60216 1.20643,1.2921c-0.02365,0.68994 -0.60215,1.23009 -1.2921,1.20643z" fill="#ffc72e" stroke="none" stroke-width="0.5" stroke-linecap="butt"/><path d="M427.66109,135.05977c-0.68995,-0.02365 -1.23008,-0.60216 -1.20643,-1.2921c0.02365,-0.68994 0.60215,-1.23009 1.2921,-1.20643c0.68995,0.02365 1.23008,0.60216 1.20643,1.2921c-0.02365,0.68994 -0.60215,1.23009 -1.2921,1.20643z" fill="#f2bc49" stroke="none" stroke-width="0.5" stroke-linecap="butt"/><path d="M422.61434,135.4223c-0.68994,-0.02365 -1.23009,-0.60215 -1.20643,-1.2921c0.02365,-0.68994 0.60216,-1.23008 1.2921,-1.20643c0.68995,0.02365 1.23009,0.60215 1.20643,1.2921c-0.02365,0.68995 -0.60215,1.23009 -1.2921,1.20643z" fill="#f2bc49" stroke="none" stroke-width="0.5" stroke-linecap="butt"/><path d="M418.34216,135.06162c-0.68994,-0.02365 -1.23009,-0.60215 -1.20643,-1.2921c0.02365,-0.68994 0.60216,-1.23008 1.2921,-1.20643c0.68995,0.02365 1.23009,0.60215 1.20643,1.2921c-0.02365,0.68995 -0.60215,1.23009 -1.2921,1.20643z" fill="#f2bc49" stroke="none" stroke-width="0.5" stroke-linecap="butt"/><path d="M408.7793,132.80572c-0.68995,-0.02365 -1.23008,-0.60216 -1.20643,-1.2921c0.02365,-0.68994 0.60215,-1.23009 1.2921,-1.20643c0.68995,0.02365 1.23008,0.60216 1.20643,1.2921c-0.02365,0.68994 -0.60215,1.23009 -1.2921,1.20643z" fill="#f2bc49" stroke="none" stroke-width="0.5" stroke-linecap="butt"/><path d="M402.83568,131.20948c-0.68995,-0.02365 -1.23008,-0.60216 -1.20643,-1.2921c0.02365,-0.68994 0.60215,-1.23009 1.2921,-1.20643c0.68995,0.02365 1.23008,0.60216 1.20643,1.2921c-0.02365,0.68994 -0.60215,1.23009 -1.2921,1.20643z" fill="#f2bc49" stroke="none" stroke-width="0.5" stroke-linecap="butt"/><path d="M398.61183,132.56423c-0.68995,-0.02365 -1.23008,-0.60216 -1.20643,-1.2921c0.02365,-0.68994 0.60215,-1.23009 1.2921,-1.20643c0.68995,0.02365 1.23008,0.60216 1.20643,1.2921c-0.02365,0.68994 -0.60215,1.23009 -1.2921,1.20643z" fill="#f2bc49" stroke="none" stroke-width="0.5" stroke-linecap="butt"/><path d="M395.73414,132.14424c-0.68995,-0.02365 -1.23008,-0.60216 -1.20643,-1.2921c0.02365,-0.68994 0.60215,-1.23009 1.2921,-1.20643c0.68995,0.02365 1.23008,0.60216 1.20643,1.2921c-0.02365,0.68994 -0.60215,1.23009 -1.2921,1.20643z" fill="#f2bc49" stroke="none" stroke-width="0.5" stroke-linecap="butt"/><path d="M425.52808,137.91398c-0.41398,-0.01419 -0.73805,-0.36128 -0.72386,-0.77526c0.01419,-0.41398 0.36128,-0.73805 0.77526,-0.72386c0.41398,0.01419 0.73805,0.36128 0.72386,0.77526c-0.01419,0.41398 -0.36128,0.73805 -0.77526,0.72386z" fill="#f2bc49" stroke="none" stroke-width="0.5" stroke-linecap="butt"/><path d="M417.02471,139.12203c-0.41398,-0.01419 -0.73805,-0.36128 -0.72386,-0.77526c0.01419,-0.41398 0.36128,-0.73805 0.77526,-0.72386c0.41398,0.01419 0.73805,0.36128 0.72386,0.77526c-0.01419,0.41398 -0.36128,0.73805 -0.77526,0.72386z" fill="#f2bc49" stroke="none" stroke-width="0.5" stroke-linecap="butt"/><path d="M403.50393,139.83673c-0.41398,-0.01419 -0.73805,-0.36128 -0.72386,-0.77526c0.01419,-0.41398 0.36128,-0.73805 0.77526,-0.72386c0.41398,0.01419 0.73805,0.36128 0.72386,0.77526c-0.01419,0.41398 -0.36128,0.73805 -0.77526,0.72386z" fill="#f2bc49" stroke="none" stroke-width="0.5" stroke-linecap="butt"/><path d="M424.26439,127.90912c-0.41398,-0.01419 -0.73805,-0.36129 -0.72386,-0.77526c0.01419,-0.41397 0.36128,-0.73805 0.77526,-0.72386c0.41398,0.01419 0.73805,0.36129 0.72386,0.77526c-0.01419,0.41397 -0.36128,0.73805 -0.77526,0.72386z" fill="#ffc72e" stroke="none" stroke-width="0.5" stroke-linecap="butt"/><path d="M407.79197,127.23724c-0.41398,-0.01419 -0.73805,-0.36129 -0.72386,-0.77526c0.01419,-0.41397 0.36128,-0.73805 0.77526,-0.72386c0.41398,0.01419 0.73805,0.36129 0.72386,0.77526c-0.01419,0.41397 -0.36128,0.73805 -0.77526,0.72386z" fill="#ffc72e" stroke="none" stroke-width="0.5" stroke-linecap="butt"/><path d="M393.49964,125.46187c-0.41398,-0.01419 -0.73805,-0.36129 -0.72386,-0.77526c0.01419,-0.41397 0.36128,-0.73805 0.77526,-0.72386c0.41398,0.01419 0.73805,0.36129 0.72386,0.77526c-0.01419,0.41397 -0.36128,0.73805 -0.77526,0.72386z" fill="#ffc72e" stroke="none" stroke-width="0.5" stroke-linecap="butt"/><path d="M368.801,140.73673c-0.5855,-1.27711 7.47925,-3.85597 17.02002,-8.23004c9.54077,-4.37408 18.28441,-8.18154 18.28441,-8.18154c0,0 -7.83095,5.42879 -17.37172,9.80286c-9.54077,4.37407 -17.34721,7.88582 -17.93272,6.60871z" fill="#ff9600" stroke="#000000" stroke-width="0" stroke-linecap="butt"/></g><g><path d="M272.6955,181.09656l-29.84342,23.23248c0,0 -14.98757,-39.10046 -18.92688,-58.29696c-3.6507,-17.79002 -3.90914,-52.98398 -3.90914,-52.98398l56.04983,24.68006z" fill="#f3ca58" stroke="#000000" stroke-width="0" stroke-linecap="round"/><path d="M285.8703,163.23058c0.68112,1.22877 -6.77576,5.43207 -15.95546,10.52049c-9.17969,5.08843 -18.19473,8.17465 -18.19473,8.17465c0,0 8.25076,-4.7826 17.43047,-9.87102c9.1797,-5.08843 16.0386,-10.05291 16.71973,-8.82413z" fill="#ff9600" stroke="#000000" stroke-width="0" stroke-linecap="butt"/><path d="M274.77924,152.04635c0.09301,1.40185 -8.4439,2.02951 -18.91652,2.7244c-10.47263,0.69488 -19.94363,-0.35169 -19.94363,-0.35169c0,0 9.50191,-0.81375 19.97452,-1.50863c10.47263,-0.69488 18.79264,-2.26594 18.88565,-0.86409z" fill="#ff9600" stroke="#000000" stroke-width="0" stroke-linecap="butt"/><g stroke="#000000" stroke-width="0" stroke-linecap="round"><g fill="#f2bc49"><path d="M221.0399,120.77266c-0.92597,-14.39756 -1.02384,-27.72456 -1.02384,-27.72456l56.04983,24.68006c0,0 -0.12043,2.26428 -0.25061,4.71178c-0.00288,0.0542 -54.75549,-1.35769 -54.77538,-1.66729z"/></g><g fill="#ffc72e"><path d="M220.74042,115.64466c-0.64862,-12.28302 -0.72435,-22.59655 -0.72435,-22.59655l56.04983,24.68006c0,0 -55.32414,-2.05792 -55.32549,-2.08351z"/></g><g fill="#ff9600"><path d="M220.32426,104.12471c-0.04251,-1.48808 -0.27149,-2.98137 -0.31002,-4.36058c-0.10509,-3.76161 0.00182,-6.71599 0.00182,-6.71599c0,0 19.5722,8.6181 29.08355,12.80616c0.17918,0.07889 -28.77498,-1.71668 -28.77535,-1.72958z"/></g></g><path d="M220.94289,104.26281c0.03311,-0.96593 0.843,-1.72213 1.80893,-1.68901c0.96593,0.03311 1.72213,0.843 1.68901,1.80893c-0.03311,0.96593 -0.843,1.72213 -1.80893,1.68901c-0.96593,-0.03311 -1.72213,-0.843 -1.68901,-1.80893z" fill="#ff9600" stroke="none" stroke-width="0.5" stroke-linecap="butt"/><path d="M224.65296,105.32665c0.03311,-0.96593 0.843,-1.72213 1.80893,-1.68901c0.78772,0.02701 1.43596,0.57062 1.63038,1.29415c0.32176,-0.50576 0.89517,-0.83292 1.53762,-0.81088c0.23157,0.00793 0.45107,0.06052 0.65053,0.14919c0.20507,-0.0748 0.42766,-0.11222 0.65922,-0.10429c0.96593,0.03311 1.72213,0.843 1.68901,1.80893c-0.03311,0.96593 -0.843,1.72213 -1.80893,1.68901c-0.23157,-0.00793 -0.45107,-0.06052 -0.65053,-0.14919c-0.20507,0.0748 -0.42766,0.11222 -0.65922,0.10429c-0.78772,-0.02701 -1.43596,-0.57061 -1.63038,-1.29414c-0.32176,0.50576 -0.89517,0.83291 -1.53762,0.81087c-0.96593,-0.03311 -1.72213,-0.843 -1.68901,-1.80893z" fill="#ff9600" stroke="none" stroke-width="0.5" stroke-linecap="butt"/><path d="M232.71782,105.04118c0.03311,-0.96593 0.843,-1.72213 1.80893,-1.68901c0.96593,0.03311 1.72213,0.843 1.68901,1.80893c-0.03311,0.96593 -0.843,1.72213 -1.80893,1.68901c-0.96593,-0.03311 -1.72213,-0.843 -1.68901,-1.80893z" fill="#ff9600" stroke="none" stroke-width="0.5" stroke-linecap="butt"/><path d="M241.63293,107.40744c-0.02365,0.68994 -0.60215,1.23009 -1.2921,1.20643c-0.68643,-0.02354 -1.22457,-0.59626 -1.20676,-1.28156c-0.14022,0.03079 -0.28653,0.0447 -0.43662,0.03956c-0.96593,-0.03311 -1.72213,-0.843 -1.68901,-1.80893c0.03311,-0.96593 0.843,-1.72213 1.80893,-1.68901c0.96593,0.03311 1.72213,0.843 1.68901,1.80893c-0.00515,0.15008 -0.02905,0.29509 -0.06936,0.43288c0.6849,0.02915 1.21942,0.60526 1.19588,1.29169z" fill="#ff9600" stroke="none" stroke-width="0.5" stroke-linecap="butt"/><path d="M241.87323,105.72972c0.03311,-0.96593 0.843,-1.72213 1.80893,-1.68901c0.96593,0.03311 1.72213,0.843 1.68901,1.80893c-0.03311,0.96593 -0.843,1.72213 -1.80893,1.68901c-0.96593,-0.03311 -1.72213,-0.843 -1.68901,-1.80893z" fill="#ff9600" stroke="none" stroke-width="0.5" stroke-linecap="butt"/><path d="M222.19852,109.55104c0.02365,-0.68994 0.60215,-1.23009 1.2921,-1.20643c0.68995,0.02365 1.23008,0.60216 1.20643,1.2921c-0.02365,0.68994 -0.60215,1.23009 -1.2921,1.20643c-0.68995,-0.02365 -1.23008,-0.60216 -1.20643,-1.2921z" fill="#ff9600" stroke="none" stroke-width="0.5" stroke-linecap="butt"/><path d="M229.05092,111.84657c0.02365,-0.68994 0.60215,-1.23009 1.2921,-1.20643c0.68995,0.02365 1.23008,0.60216 1.20643,1.2921c-0.02365,0.68994 -0.60215,1.23009 -1.2921,1.20643c-0.68995,-0.02365 -1.23008,-0.60216 -1.20643,-1.2921z" fill="#ff9600" stroke="none" stroke-width="0.5" stroke-linecap="butt"/><path d="M233.10848,108.23912c0.02365,-0.68994 0.60215,-1.23009 1.2921,-1.20643c0.68995,0.02365 1.23008,0.60216 1.20643,1.2921c-0.02365,0.68994 -0.60215,1.23009 -1.2921,1.20643c-0.68995,-0.02365 -1.23008,-0.60216 -1.20643,-1.2921z" fill="#ff9600" stroke="none" stroke-width="0.5" stroke-linecap="butt"/><path d="M248.49616,107.45541c0.02365,-0.68995 0.60215,-1.23009 1.2921,-1.20643c0.68995,0.02365 1.23009,0.60215 1.20643,1.2921c-0.02365,0.68995 -0.60215,1.23009 -1.2921,1.20643c-0.68995,-0.02365 -1.23009,-0.60215 -1.20643,-1.2921z" fill="#ff9600" stroke="none" stroke-width="0.5" stroke-linecap="butt"/><path d="M252.50988,110.59025c0.02365,-0.68995 0.60215,-1.23009 1.2921,-1.20643c0.68995,0.02365 1.23009,0.60215 1.20643,1.2921c-0.02365,0.68995 -0.60215,1.23009 -1.2921,1.20643c-0.68995,-0.02365 -1.23009,-0.60215 -1.20643,-1.2921z" fill="#ff9600" stroke="none" stroke-width="0.5" stroke-linecap="butt"/><path d="M221.16846,116.07218c0.03311,-0.96593 0.843,-1.72213 1.80893,-1.68901c0.96593,0.03311 1.72213,0.843 1.68901,1.80893c-0.03311,0.96593 -0.843,1.72213 -1.80893,1.68901c-0.96593,-0.03311 -1.72213,-0.843 -1.68901,-1.80893z" fill="#ffc72e" stroke="none" stroke-width="0.5" stroke-linecap="butt"/><path d="M226.43954,115.31625c0.03311,-0.96593 0.843,-1.72213 1.80893,-1.68901c0.96593,0.03311 1.72213,0.843 1.68901,1.80893c-0.03311,0.96593 -0.843,1.72213 -1.80893,1.68901c-0.96593,-0.03311 -1.72213,-0.843 -1.68901,-1.80893z" fill="#ffc72e" stroke="none" stroke-width="0.5" stroke-linecap="butt"/><path d="M237.39108,114.69c0.96593,0.03311 1.72213,0.843 1.68901,1.80893c-0.03311,0.96593 -0.843,1.72213 -1.80893,1.68901c-0.2291,-0.00786 -0.4464,-0.05942 -0.64417,-0.14637c-0.32591,0.2975 -0.76388,0.47276 -1.23974,0.45644c-0.00858,-0.0003 -0.01713,-0.00065 -0.02567,-0.00106c-0.33133,0.33437 -0.79578,0.53489 -1.30332,0.51749c-0.96593,-0.03311 -1.72213,-0.843 -1.68901,-1.80893c0.03311,-0.96593 0.843,-1.72213 1.80893,-1.68901c0.00858,0.0003 0.01713,0.00065 0.02567,0.00106c0.33133,-0.33437 0.79578,-0.53489 1.30332,-0.51749c0.2291,0.00786 0.4464,0.05942 0.64417,0.14637c0.32591,-0.2975 0.76388,-0.47276 1.23974,-0.45644z" fill="#ffc72e" stroke="none" stroke-width="0.5" stroke-linecap="butt"/><path d="M245.46674,118.35079c0.0079,-0.23033 0.07762,-0.44394 0.19268,-0.62548c-0.59378,-0.0395 -1.10247,-0.37304 -1.38777,-0.85257c-0.33376,0.36699 -0.82059,0.59045 -1.35521,0.57213c-0.96593,-0.03311 -1.72213,-0.843 -1.68901,-1.80893c0.03311,-0.96593 0.843,-1.72213 1.80893,-1.68901c0.61824,0.0212 1.15056,0.3606 1.44499,0.85545c0.33376,-0.36699 0.82059,-0.59045 1.35521,-0.57213c0.96593,0.03311 1.72213,0.843 1.68901,1.80893c-0.01531,0.44644 -0.19655,0.84808 -0.48243,1.14771c0.54799,0.14804 0.94244,0.65782 0.92214,1.24957c-0.02365,0.68995 -0.60215,1.23009 -1.2921,1.20643c-0.68995,-0.02365 -1.23009,-0.60215 -1.20643,-1.2921z" fill="#ffc72e" stroke="none" stroke-width="0.5" stroke-linecap="butt"/><path d="M248.3311,116.0668c0.03311,-0.96593 0.843,-1.72213 1.80893,-1.68901c0.96593,0.03311 1.72213,0.843 1.68901,1.80893c-0.03311,0.96593 -0.843,1.72213 -1.80893,1.68901c-0.96593,-0.03311 -1.72213,-0.843 -1.68901,-1.80893z" fill="#ffc72e" stroke="none" stroke-width="0.5" stroke-linecap="butt"/><path d="M260.82213,118.34166c-0.02365,0.68995 -0.60215,1.23009 -1.2921,1.20643c-0.60304,-0.02068 -1.09165,-0.46523 -1.18936,-1.03758c-0.13261,-0.07828 -0.25384,-0.1735 -0.36081,-0.28255c-0.2923,0.60521 -0.9217,1.01304 -1.6366,0.98853c-0.96593,-0.03311 -1.72213,-0.843 -1.68901,-1.80893c0.03311,-0.96593 0.843,-1.72213 1.80893,-1.68901c0.46743,0.01602 0.88574,0.21394 1.18926,0.52342c0.2923,-0.60521 0.9217,-1.01304 1.6366,-0.98853c0.5648,0.01937 1.05786,0.3043 1.36339,0.7307c0.28938,-0.61278 0.92288,-1.02697 1.64316,-1.00227c0.63465,0.02176 1.17876,0.37884 1.46792,0.89518c0.32386,-0.49533 0.89114,-0.8143 1.52579,-0.79255c0.72028,0.0247 1.32394,0.4813 1.57065,1.11246c0.334,-0.40448 0.84544,-0.65497 1.41023,-0.63561c0.96593,0.03311 1.72213,0.843 1.68901,1.80893c-0.03311,0.96593 -0.843,1.72213 -1.80893,1.68901c-0.72028,-0.0247 -1.32394,-0.4813 -1.57065,-1.11246c-0.334,0.40448 -0.84544,0.65497 -1.41023,0.63561c-0.63465,-0.02176 -1.17876,-0.37884 -1.46792,-0.89518c-0.32386,0.49533 -0.89114,0.8143 -1.52579,0.79255c-0.5648,-0.01937 -1.05786,-0.3043 -1.36339,-0.7307c-0.01981,0.04193 -0.04123,0.08294 -0.06417,0.12295c0.05311,0.14613 0.07968,0.30468 0.07403,0.4696z" fill="#ffc72e" stroke="none" stroke-width="0.5" stroke-linecap="butt"/><path d="M221.18878,120.94336c0.03311,-0.96593 0.843,-1.72213 1.80893,-1.68901c0.96593,0.03311 1.72213,0.843 1.68901,1.80893c-0.03311,0.96593 -0.843,1.72213 -1.80893,1.68901c-0.96593,-0.03311 -1.72213,-0.843 -1.68901,-1.80893z" fill="#f2bc49" stroke="none" stroke-width="0.5" stroke-linecap="butt"/><path d="M231.39189,120.29146c0.96593,0.03311 1.72213,0.843 1.68901,1.80893c-0.03311,0.96593 -0.843,1.72213 -1.80893,1.68901c-0.34409,-0.0118 -0.66157,-0.12217 -0.92625,-0.30307c-0.27643,0.16233 -0.60073,0.25071 -0.94483,0.23891c-0.8193,-0.02809 -1.48769,-0.61501 -1.65155,-1.38198c-0.33212,0.34242 -0.8022,0.54856 -1.3165,0.53092c-0.96593,-0.03311 -1.72213,-0.843 -1.68901,-1.80893c0.03311,-0.96593 0.843,-1.72213 1.80893,-1.68901c0.8193,0.02809 1.48769,0.61501 1.65155,1.38198c0.33212,-0.34242 0.8022,-0.54856 1.3165,-0.53092c0.34409,0.0118 0.66157,0.12217 0.92625,0.30307c0.27643,-0.16233 0.60073,-0.25071 0.94483,-0.23891z" fill="#f2bc49" stroke="none" stroke-width="0.5" stroke-linecap="butt"/><path d="M234.08636,121.76022c0.03311,-0.96593 0.843,-1.72213 1.80893,-1.68901c0.96593,0.03311 1.72213,0.843 1.68901,1.80893c-0.03311,0.96593 -0.843,1.72213 -1.80893,1.68901c-0.96593,-0.03311 -1.72213,-0.843 -1.68901,-1.80893z" fill="#f2bc49" stroke="none" stroke-width="0.5" stroke-linecap="butt"/><path d="M241.88272,120.27649c0.96593,0.03311 1.72213,0.843 1.68901,1.80893c-0.03311,0.96593 -0.843,1.72213 -1.80893,1.68901c-0.54479,-0.01868 -1.02286,-0.28443 -1.33024,-0.68595c-0.1657,0.04525 -0.34092,0.06666 -0.5216,0.06047c-0.96593,-0.03311 -1.72213,-0.843 -1.68901,-1.80893c0.03311,-0.96593 0.843,-1.72213 1.80893,-1.68901c0.54479,0.01868 1.02286,0.28443 1.33024,0.68595c0.1657,-0.04525 0.34092,-0.06666 0.5216,-0.06047z" fill="#f2bc49" stroke="none" stroke-width="0.5" stroke-linecap="butt"/><path d="M246.93606,124.47199c-0.42455,-0.01457 -0.79236,-0.23918 -1.00701,-0.57059c-0.07769,0.00779 -0.15681,0.01049 -0.23701,0.00774c-0.96593,-0.03311 -1.72213,-0.843 -1.68901,-1.80893c0.03311,-0.96593 0.843,-1.72213 1.80893,-1.68901c0.46743,0.01602 0.88574,0.21394 1.18926,0.52342c0.2923,-0.60521 0.9217,-1.01304 1.6366,-0.98853c0.47823,0.0164 0.90505,0.22321 1.21013,0.54508c0.33387,-0.40845 0.84786,-0.66185 1.41579,-0.64238c0.56793,0.01947 1.06335,0.30746 1.36847,0.73783c0.32639,-0.30022 0.76638,-0.4773 1.24461,-0.46092c0.96593,0.03311 1.72213,0.843 1.68901,1.80893c-0.03311,0.96593 -0.843,1.72213 -1.80893,1.68901c-0.56793,-0.01947 -1.06335,-0.30746 -1.36847,-0.73783c-0.32639,0.30022 -0.76638,0.4773 -1.24461,0.46092c-0.47823,-0.0164 -0.90505,-0.22321 -1.21013,-0.54508c-0.33387,0.40845 -0.84786,0.66185 -1.41579,0.64238c-0.10353,-0.00354 -0.20461,-0.01603 -0.30261,-0.03666c-0.09191,0.62061 -0.63733,1.08659 -1.27922,1.06458z" fill="#f2bc49" stroke="none" stroke-width="0.5" stroke-linecap="butt"/><path d="M255.8293,121.38172c0.03311,-0.96593 0.843,-1.72213 1.80893,-1.68901c0.96593,0.03311 1.72213,0.843 1.68901,1.80893c-0.03311,0.96593 -0.843,1.72213 -1.80893,1.68901c-0.96593,-0.03311 -1.72213,-0.843 -1.68901,-1.80893z" fill="#f2bc49" stroke="none" stroke-width="0.5" stroke-linecap="butt"/><path d="M259.35866,122.25202c0.03311,-0.96593 0.843,-1.72213 1.80893,-1.68901c0.96593,0.03311 1.72213,0.843 1.68901,1.80893c-0.03311,0.96593 -0.843,1.72213 -1.80893,1.68901c-0.96593,-0.03311 -1.72213,-0.843 -1.68901,-1.80893z" fill="#f2bc49" stroke="none" stroke-width="0.5" stroke-linecap="butt"/><path d="M225.84768,118.85639c0.02365,-0.68995 0.60215,-1.23009 1.2921,-1.20643c0.68995,0.02365 1.23009,0.60215 1.20643,1.2921c-0.02365,0.68995 -0.60215,1.23009 -1.2921,1.20643c-0.68995,-0.02365 -1.23009,-0.60215 -1.20643,-1.2921z" fill="#ffc72e" stroke="none" stroke-width="0.5" stroke-linecap="butt"/><path d="M239.06583,117.59575c0.02365,-0.68995 0.60215,-1.23009 1.2921,-1.20643c0.68995,0.02365 1.23009,0.60215 1.20643,1.2921c-0.02365,0.68995 -0.60215,1.23009 -1.2921,1.20643c-0.68995,-0.02365 -1.23009,-0.60215 -1.20643,-1.2921z" fill="#ffc72e" stroke="none" stroke-width="0.5" stroke-linecap="butt"/><path d="M251.86766,119.1058c0.02365,-0.68995 0.60215,-1.23009 1.2921,-1.20643c0.68995,0.02365 1.23009,0.60215 1.20643,1.2921c-0.02365,0.68995 -0.60215,1.23009 -1.2921,1.20643c-0.68995,-0.02365 -1.23009,-0.60215 -1.20643,-1.2921z" fill="#ffc72e" stroke="none" stroke-width="0.5" stroke-linecap="butt"/><path d="M225.35858,126.87312c0.02365,-0.68995 0.60215,-1.23009 1.2921,-1.20643c0.68995,0.02365 1.23009,0.60215 1.20643,1.2921c-0.02365,0.68995 -0.60215,1.23009 -1.2921,1.20643c-0.68995,-0.02365 -1.23009,-0.60215 -1.20643,-1.2921z" fill="#f2bc49" stroke="none" stroke-width="0.5" stroke-linecap="butt"/><path d="M230.36866,127.58045c0.02365,-0.68995 0.60215,-1.23009 1.2921,-1.20643c0.68995,0.02365 1.23009,0.60215 1.20643,1.2921c-0.02365,0.68995 -0.60215,1.23009 -1.2921,1.20643c-0.68995,-0.02365 -1.23009,-0.60215 -1.20643,-1.2921z" fill="#f2bc49" stroke="none" stroke-width="0.5" stroke-linecap="butt"/><path d="M234.65551,127.51322c0.02365,-0.68995 0.60215,-1.23009 1.2921,-1.20643c0.68995,0.02365 1.23009,0.60215 1.20643,1.2921c-0.02365,0.68995 -0.60215,1.23009 -1.2921,1.20643c-0.68995,-0.02365 -1.23009,-0.60215 -1.20643,-1.2921z" fill="#f2bc49" stroke="none" stroke-width="0.5" stroke-linecap="butt"/><path d="M244.35041,125.91756c0.02365,-0.68995 0.60215,-1.23009 1.2921,-1.20643c0.68995,0.02365 1.23009,0.60215 1.20643,1.2921c-0.02365,0.68995 -0.60215,1.23009 -1.2921,1.20643c-0.68995,-0.02365 -1.23009,-0.60215 -1.20643,-1.2921z" fill="#f2bc49" stroke="none" stroke-width="0.5" stroke-linecap="butt"/><path d="M250.3894,124.73213c0.02365,-0.68995 0.60215,-1.23009 1.2921,-1.20643c0.68995,0.02365 1.23009,0.60215 1.20643,1.2921c-0.02365,0.68995 -0.60215,1.23009 -1.2921,1.20643c-0.68995,-0.02365 -1.23009,-0.60215 -1.20643,-1.2921z" fill="#f2bc49" stroke="none" stroke-width="0.5" stroke-linecap="butt"/><path d="M254.51056,126.37301c0.02365,-0.68995 0.60215,-1.23009 1.2921,-1.20643c0.68995,0.02365 1.23009,0.60215 1.20643,1.2921c-0.02365,0.68995 -0.60215,1.23009 -1.2921,1.20643c-0.68995,-0.02365 -1.23009,-0.60215 -1.20643,-1.2921z" fill="#f2bc49" stroke="none" stroke-width="0.5" stroke-linecap="butt"/><path d="M257.41023,126.15107c0.02365,-0.68995 0.60215,-1.23009 1.2921,-1.20643c0.68995,0.02365 1.23009,0.60215 1.20643,1.2921c-0.02365,0.68995 -0.60215,1.23009 -1.2921,1.20643c-0.68995,-0.02365 -1.23009,-0.60215 -1.20643,-1.2921z" fill="#f2bc49" stroke="none" stroke-width="0.5" stroke-linecap="butt"/><path d="M227.77367,130.38356c0.01419,-0.41397 0.36129,-0.73805 0.77526,-0.72386c0.41397,0.01419 0.73805,0.36129 0.72386,0.77526c-0.01419,0.41397 -0.36129,0.73805 -0.77526,0.72386c-0.41397,-0.01419 -0.73805,-0.36129 -0.72386,-0.77526z" fill="#f2bc49" stroke="none" stroke-width="0.5" stroke-linecap="butt"/><path d="M236.17433,132.17114c0.01419,-0.41397 0.36129,-0.73805 0.77526,-0.72386c0.41397,0.01419 0.73805,0.36129 0.72386,0.77526c-0.01419,0.41397 -0.36129,0.73805 -0.77526,0.72386c-0.41397,-0.01419 -0.73805,-0.36129 -0.72386,-0.77526z" fill="#f2bc49" stroke="none" stroke-width="0.5" stroke-linecap="butt"/><path d="M249.61443,133.81018c0.01419,-0.41397 0.36129,-0.73805 0.77526,-0.72386c0.41397,0.01419 0.73805,0.36129 0.72386,0.77526c-0.01419,0.41397 -0.36129,0.73805 -0.77526,0.72386c-0.41397,-0.01419 -0.73805,-0.36129 -0.72386,-0.77526z" fill="#f2bc49" stroke="none" stroke-width="0.5" stroke-linecap="butt"/><path d="M229.71962,120.48872c0.01419,-0.41397 0.36129,-0.73805 0.77526,-0.72386c0.41397,0.01419 0.73805,0.36129 0.72386,0.77526c-0.01419,0.41397 -0.36129,0.73805 -0.77526,0.72386c-0.41397,-0.01419 -0.73805,-0.36129 -0.72386,-0.77526z" fill="#ffc72e" stroke="none" stroke-width="0.5" stroke-linecap="butt"/><path d="M246.19938,120.94663c0.01419,-0.41397 0.36129,-0.73805 0.77526,-0.72386c0.41397,0.01419 0.73805,0.36129 0.72386,0.77526c-0.01419,0.41397 -0.36129,0.73805 -0.77526,0.72386c-0.41397,-0.01419 -0.73805,-0.36129 -0.72386,-0.77526z" fill="#ffc72e" stroke="none" stroke-width="0.5" stroke-linecap="butt"/><path d="M260.57975,120.15429c0.01419,-0.41397 0.36129,-0.73805 0.77526,-0.72386c0.41397,0.01419 0.73805,0.36129 0.72386,0.77526c-0.01419,0.41397 -0.36129,0.73805 -0.77526,0.72386c-0.41397,-0.01419 -0.73805,-0.36129 -0.72386,-0.77526z" fill="#ffc72e" stroke="none" stroke-width="0.5" stroke-linecap="butt"/><path d="M284.89806,137.86011c-0.6716,1.23401 -8.2192,-2.80415 -17.43798,-7.8214c-9.21878,-5.01724 -16.65952,-10.96962 -16.65952,-10.96962c0,0 8.46236,4.39735 17.68113,9.41461c9.21878,5.01724 17.08797,8.1424 16.41638,9.37641z" fill="#ff9600" stroke="#000000" stroke-width="0" stroke-linecap="butt"/></g><g><path d="M262.43072,148.84504c1.14108,-33.2823 30.80912,-59.27747 66.26541,-58.06185c35.45629,1.21561 63.27428,29.18169 62.13319,62.46399c-1.14108,33.2823 -30.80911,59.27748 -66.26541,58.06186c-35.45628,-1.21561 -63.27427,-29.1817 -62.13319,-62.464z" fill="url(#color-2)" stroke="#000000" stroke-width="0" stroke-linecap="butt"/><path d="M270.00075,122.3279c11.17839,-19.50365 33.47225,-32.40948 58.69538,-31.54471c25.33007,0.86844 46.76176,15.38953 56.52131,35.74816c0.02712,0.05656 -115.25544,-4.13584 -115.21671,-4.20345z" fill="#f2bc49" stroke="#000000" stroke-width="0" stroke-linecap="butt"/><path d="M272.7012,117.82286c12.08936,-15.61375 33.85167,-27.79884 55.99492,-27.03965c22.64983,0.77655 43.31751,14.30499 54.17529,31.32651c0.12759,0.20002 -110.50128,-3.85927 -110.17021,-4.28686z" fill="#ffc72e" stroke="#000000" stroke-width="0" stroke-linecap="butt"/><path d="M280.55333,108.88145c12.19725,-12.17237 28.91104,-18.75761 48.14281,-18.09826c19.78345,0.67828 35.82449,8.06006 47.14827,21.67126c0.04802,0.0577 -95.40611,-3.45822 -95.29107,-3.57301z" fill="#ff9600" stroke="#000000" stroke-width="0" stroke-linecap="butt"/><path d="M275.74126,149.57715c0.44435,-12.96039 11.31103,-23.10666 24.27144,-22.6623c12.96039,0.44435 23.10666,11.31102 22.6623,24.27143c-0.44435,12.96039 -11.31102,23.10667 -24.27142,22.66231c-12.96039,-0.44435 -23.10667,-11.31103 -22.66231,-24.27143z" fill="url(#color-3)" stroke="#000000" stroke-width="0" stroke-linecap="butt"/><path d="M289.1227,149.12321c0.16452,-4.79868 4.18799,-8.55542 8.98669,-8.39089c4.79868,0.16452 8.55542,4.188 8.39089,8.9867c-0.16452,4.79868 -4.188,8.55543 -8.98669,8.3909c-4.79868,-0.16452 -8.55542,-4.188 -8.39089,-8.9867z" fill="#000000" stroke="#000000" stroke-width="0" stroke-linecap="butt"/><path d="M352.6302,175.70782c-12.96039,-0.44435 -23.10666,-11.31103 -22.6623,-24.27144c0.44435,-12.96039 11.31102,-23.10666 24.27143,-22.6623c12.96039,0.44435 23.10667,11.31102 22.66231,24.27142c-0.44435,12.96039 -11.31103,23.10667 -24.27143,22.66231z" fill="url(#color-4)" stroke="#000000" stroke-width="0" stroke-linecap="butt"/><path d="M360.44811,153.00883c-0.45353,4.26006 -3.88541,6.98627 -8.2345,6.78301c-4.34909,-0.20326 -7.2486,-3.35372 -6.80867,-7.48607c0.43994,-4.13237 3.75844,-8.30638 8.46652,-8.08635c4.7081,0.22005 7.03017,4.52938 6.57664,8.78942z" fill="#000000" stroke="#000000" stroke-width="0" stroke-linecap="butt"/><path d="M299.19221,79.41007c0,0 11.71396,-39.05003 29.13615,-22.97062c1.32551,1.22337 2.46032,2.48506 3.42575,3.77222c11.72391,15.63075 -1.52883,35.01285 -1.52883,35.01285" fill="none" stroke="#ff9600" stroke-width="6" stroke-linecap="round"/><path d="M311.67507,92.75504c0.49501,6.08616 -4.34588,11.44636 -10.81242,11.9723c-6.46655,0.52596 -12.11002,-3.98149 -12.60503,-10.06766c-0.49501,-6.08616 3.93593,-15.29372 10.40249,-15.81968c6.46655,-0.52596 12.51995,7.82888 13.01497,13.91505z" fill="#ffffff" stroke="#000000" stroke-width="0" stroke-linecap="butt"/><path d="M268.60275,158.23306c3.98172,-2.12308 8.53617,0.80821 12.64221,1.58293c4.58359,0.86481 10.40103,2.01922 15.05794,1.33857c1.94076,-0.28366 3.42717,-1.32759 5.46807,-1.30604c5.41225,-0.99745 12.7913,-0.72579 18.09923,0.5766c1.9235,0.47197 3.71407,1.57689 5.65407,2.02875c5.89439,1.37291 13.21267,-0.24524 19.04395,-1.31582c9.46772,-0.87545 19.95651,-1.49586 29.11034,1.26904c2.35726,0.71201 4.62796,1.57167 6.88679,2.55792c1.00783,0.44004 2.62315,0.23543 3.05515,1.24675c0.78485,1.83735 -3.87316,4.26701 -4.7456,4.98586c-3.8218,2.15538 -7.62428,4.41739 -11.51439,6.43899c-1.47054,0.76421 -3.74157,2.39561 -5.45571,2.69618c-7.8825,1.3821 -16.18788,-1.01759 -23.88392,-2.57407c-11.81066,-2.37135 -24.13551,-0.6399 -35.92209,0.84478c-2.10621,0.26529 -3.92387,1.16368 -6.06243,1.27517c-5.67659,-0.20034 -9.41131,-2.68319 -14.5966,-4.86138c-3.79096,-1.59248 -7.67625,-3.21894 -10.927,-5.7956c-2.48946,-1.97323 -5.30786,-4.05953 -5.57223,-7.45967c0.36977,-1.54263 2.0061,-2.44903 3.44148,-3.44273c0.13554,-0.04121 0.22076,-0.08618 0.22076,-0.08618z" fill-opacity="0.41176" fill="#6ee8ff" stroke="none" stroke-width="0.5" stroke-linecap="butt"/><path d="M388.11064,128.69072l-1.41278,41.20684l-25.36736,13.88078l-35.99235,-5.61303l-34.9347,3.87274l-25.03983,-15.83945l1.42855,-41.66725z" fill-opacity="0.08235" fill="#00ffff" stroke="#f1da3e" stroke-width="7.5" stroke-linecap="round"/><path d="M280.2156,109.87618c0.03311,-0.96593 0.843,-1.72213 1.80893,-1.68901c0.96593,0.03311 1.72213,0.843 1.68901,1.80893c-0.03311,0.96593 -0.843,1.72213 -1.80893,1.68901c-0.96593,-0.03311 -1.72213,-0.843 -1.68901,-1.80893z" fill="#ff9600" stroke="none" stroke-width="0.5" stroke-linecap="butt"/><path d="M290.06764,108.30515c0.96593,0.03311 1.72213,0.843 1.68901,1.80893c-0.03311,0.96593 -0.843,1.72213 -1.80893,1.68901c-0.76727,-0.0263 -1.40219,-0.5427 -1.61431,-1.23812c-0.25925,0.67925 -0.92806,1.15096 -1.69531,1.12466c-0.96593,-0.03311 -1.72213,-0.843 -1.68901,-1.80893c0.03311,-0.96593 0.843,-1.72213 1.80893,-1.68901c0.76727,0.0263 1.40219,0.5427 1.61431,1.23812c0.25925,-0.67925 0.92806,-1.15096 1.69531,-1.12466z" fill="#ff9600" stroke="none" stroke-width="0.5" stroke-linecap="butt"/><path d="M295.22559,109.28627c0.03311,-0.96593 0.843,-1.72213 1.80893,-1.68901c0.96593,0.03311 1.72213,0.843 1.68901,1.80893c-0.03311,0.96593 -0.843,1.72213 -1.80893,1.68901c-0.96593,-0.03311 -1.72213,-0.843 -1.68901,-1.80893z" fill="#ff9600" stroke="none" stroke-width="0.5" stroke-linecap="butt"/><path d="M302.32306,109.37184c0.03311,-0.96593 0.843,-1.72213 1.80893,-1.68901c0.96593,0.03311 1.72213,0.843 1.68901,1.80893c-0.03311,0.96593 -0.843,1.72213 -1.80893,1.68901c-0.96593,-0.03311 -1.72213,-0.843 -1.68901,-1.80893z" fill="#ff9600" stroke="none" stroke-width="0.5" stroke-linecap="butt"/><path d="M309.24131,110.08239c0.03311,-0.96593 0.843,-1.72213 1.80893,-1.68901c0.96593,0.03311 1.72213,0.843 1.68901,1.80893c-0.03311,0.96593 -0.843,1.72213 -1.80893,1.68901c-0.96593,-0.03311 -1.72213,-0.843 -1.68901,-1.80893z" fill="#ff9600" stroke="none" stroke-width="0.5" stroke-linecap="butt"/><path d="M316.17038,110.47773c0.03311,-0.96593 0.843,-1.72213 1.80893,-1.68901c0.96593,0.03311 1.72213,0.843 1.68901,1.80893c-0.03311,0.96593 -0.843,1.72213 -1.80893,1.68901c-0.96593,-0.03311 -1.72213,-0.843 -1.68901,-1.80893z" fill="#ff9600" stroke="none" stroke-width="0.5" stroke-linecap="butt"/><path d="M319.81142,110.1292c0.03311,-0.96593 0.843,-1.72213 1.80893,-1.68901c0.96593,0.03311 1.72213,0.843 1.68901,1.80893c-0.03311,0.96593 -0.843,1.72213 -1.80893,1.68901c-0.96593,-0.03311 -1.72213,-0.843 -1.68901,-1.80893z" fill="#ff9600" stroke="none" stroke-width="0.5" stroke-linecap="butt"/><path d="M324.70247,110.13911c0.03311,-0.96593 0.843,-1.72213 1.80893,-1.68901c0.96593,0.03311 1.72213,0.843 1.68901,1.80893c-0.03311,0.96593 -0.843,1.72213 -1.80893,1.68901c-0.96593,-0.03311 -1.72213,-0.843 -1.68901,-1.80893z" fill="#ff9600" stroke="none" stroke-width="0.5" stroke-linecap="butt"/><path d="M331.79455,110.38227c0.03311,-0.96593 0.843,-1.72213 1.80893,-1.68901c0.96593,0.03311 1.72213,0.843 1.68901,1.80893c-0.03311,0.96593 -0.843,1.72213 -1.80893,1.68901c-0.96593,-0.03311 -1.72213,-0.843 -1.68901,-1.80893z" fill="#ff9600" stroke="none" stroke-width="0.5" stroke-linecap="butt"/><path d="M336.35959,110.69657c0.03311,-0.96593 0.843,-1.72213 1.80893,-1.68901c0.96593,0.03311 1.72213,0.843 1.68901,1.80893c-0.03311,0.96593 -0.843,1.72213 -1.80893,1.68901c-0.96593,-0.03311 -1.72213,-0.843 -1.68901,-1.80893z" fill="#ff9600" stroke="none" stroke-width="0.5" stroke-linecap="butt"/><path d="M339.79981,111.60345c0.03311,-0.96593 0.843,-1.72213 1.80893,-1.68901c0.96593,0.03311 1.72213,0.843 1.68901,1.80893c-0.03311,0.96593 -0.843,1.72213 -1.80893,1.68901c-0.96593,-0.03311 -1.72213,-0.843 -1.68901,-1.80893z" fill="#ff9600" stroke="none" stroke-width="0.5" stroke-linecap="butt"/><path d="M353.41266,110.79249c0.96593,0.03311 1.72213,0.843 1.68901,1.80893c-0.03311,0.96593 -0.843,1.72213 -1.80893,1.68901c-0.58378,-0.02003 -1.09093,-0.32374 -1.39354,-0.77416c-0.33277,0.42862 -0.85953,0.69691 -1.44329,0.67688c-0.40187,-0.01378 -0.76742,-0.16201 -1.05494,-0.39999c-0.24999,0.12291 -0.53301,0.18775 -0.83087,0.17754c-0.96593,-0.03311 -1.72213,-0.843 -1.68901,-1.80893c0.03311,-0.96593 0.843,-1.72213 1.80893,-1.68901c0.40187,0.01378 0.76741,0.162 1.05494,0.39999c0.24999,-0.12291 0.53301,-0.18774 0.83087,-0.17753c0.58378,0.02003 1.09092,0.32373 1.39353,0.77415c0.33277,-0.42862 0.85953,-0.6969 1.44329,-0.67687z" fill="#ff9600" stroke="none" stroke-width="0.5" stroke-linecap="butt"/><path d="M363.19475,110.8123c0.96593,0.03311 1.72213,0.843 1.68901,1.80893c-0.03311,0.96593 -0.843,1.72213 -1.80893,1.68901c-0.22225,-0.00762 -0.43339,-0.05637 -0.6264,-0.13868c-0.19818,0.06889 -0.41216,0.10307 -0.6344,0.09545c-0.96593,-0.03311 -1.72213,-0.843 -1.68901,-1.80893c0.03311,-0.96593 0.843,-1.72213 1.80893,-1.68901c0.22225,0.00762 0.43339,0.05637 0.62639,0.13868c0.19818,-0.06889 0.41216,-0.10307 0.63441,-0.09545z" fill="#ff9600" stroke="none" stroke-width="0.5" stroke-linecap="butt"/><path d="M366.58667,112.67962c0.03311,-0.96593 0.843,-1.72213 1.80893,-1.68901c0.96593,0.03311 1.72213,0.843 1.68901,1.80893c-0.03311,0.96593 -0.843,1.72213 -1.80893,1.68901c-0.96593,-0.03311 -1.72213,-0.843 -1.68901,-1.80893z" fill="#ff9600" stroke="none" stroke-width="0.5" stroke-linecap="butt"/><path d="M370.07011,112.32567c0.03311,-0.96593 0.843,-1.72213 1.80893,-1.68901c0.96593,0.03311 1.72213,0.843 1.68901,1.80893c-0.03311,0.96593 -0.843,1.72213 -1.80893,1.68901c-0.96593,-0.03311 -1.72213,-0.843 -1.68901,-1.80893z" fill="#ff9600" stroke="none" stroke-width="0.5" stroke-linecap="butt"/><path d="M378.96034,122.42226c0.03311,-0.96593 0.843,-1.72213 1.80893,-1.68901c0.96593,0.03311 1.72213,0.843 1.68901,1.80893c-0.03311,0.96593 -0.843,1.72213 -1.80893,1.68901c-0.96593,-0.03311 -1.72213,-0.843 -1.68901,-1.80893z" fill="#ffc72e" stroke="none" stroke-width="0.5" stroke-linecap="butt"/><path d="M368.56943,121.75043c0.03311,-0.96593 0.843,-1.72213 1.80893,-1.68901c0.76211,0.02612 1.39369,0.53582 1.61,1.22419c0.32292,-0.5001 0.89301,-0.82279 1.53122,-0.80091c0.96593,0.03311 1.72213,0.843 1.68901,1.80893c-0.03311,0.96593 -0.843,1.72213 -1.80893,1.68901c-0.76211,-0.02612 -1.39369,-0.53582 -1.61,-1.22419c-0.32292,0.5001 -0.89301,0.82279 -1.53122,0.80091c-0.96593,-0.03311 -1.72213,-0.843 -1.68901,-1.80893z" fill="#ffc72e" stroke="none" stroke-width="0.5" stroke-linecap="butt"/><path d="M360.07517,120.98584c0.03311,-0.96593 0.843,-1.72213 1.80893,-1.68901c0.08026,0.00276 0.15907,0.01085 0.23609,0.02398c0.29501,-0.19844 0.65304,-0.30907 1.03552,-0.29597c0.96593,0.03311 1.72213,0.843 1.68901,1.80893c-0.03311,0.96593 -0.843,1.72213 -1.80893,1.68901c-0.08026,-0.00276 -0.15907,-0.01086 -0.23609,-0.02398c-0.29501,0.19844 -0.65304,0.30908 -1.03552,0.29598c-0.96593,-0.03311 -1.72213,-0.843 -1.68901,-1.80893z" fill="#ffc72e" stroke="none" stroke-width="0.5" stroke-linecap="butt"/><path d="M354.41772,120.31852c0.03311,-0.96593 0.843,-1.72213 1.80893,-1.68901c0.96593,0.03311 1.72213,0.843 1.68901,1.80893c-0.03311,0.96593 -0.843,1.72213 -1.80893,1.68901c-0.96593,-0.03311 -1.72213,-0.843 -1.68901,-1.80893z" fill="#ffc72e" stroke="none" stroke-width="0.5" stroke-linecap="butt"/><path d="M345.11381,120.15732c0.03311,-0.96593 0.843,-1.72213 1.80893,-1.68901c0.96593,0.03311 1.72213,0.843 1.68901,1.80893c-0.03311,0.96593 -0.843,1.72213 -1.80893,1.68901c-0.96593,-0.03311 -1.72213,-0.843 -1.68901,-1.80893z" fill="#ffc72e" stroke="none" stroke-width="0.5" stroke-linecap="butt"/><path d="M338.65756,119.77819c0.03311,-0.96593 0.843,-1.72213 1.80893,-1.68901c0.96593,0.03311 1.72213,0.843 1.68901,1.80893c-0.03311,0.96593 -0.843,1.72213 -1.80893,1.68901c-0.96593,-0.03311 -1.72213,-0.843 -1.68901,-1.80893z" fill="#ffc72e" stroke="none" stroke-width="0.5" stroke-linecap="butt"/><path d="M329.96245,120.26901c0.03311,-0.96593 0.843,-1.72213 1.80893,-1.68901c0.96593,0.03311 1.72213,0.843 1.68901,1.80893c-0.03311,0.96593 -0.843,1.72213 -1.80893,1.68901c-0.96593,-0.03311 -1.72213,-0.843 -1.68901,-1.80893z" fill="#ffc72e" stroke="none" stroke-width="0.5" stroke-linecap="butt"/><path d="M312.0391,118.39221c0.03311,-0.96593 0.843,-1.72213 1.80893,-1.68901c0.96593,0.03311 1.72213,0.843 1.68901,1.80893c-0.03311,0.96593 -0.843,1.72213 -1.80893,1.68901c-0.96593,-0.03311 -1.72213,-0.843 -1.68901,-1.80893z" fill="#ffc72e" stroke="none" stroke-width="0.5" stroke-linecap="butt"/><path d="M293.40429,118.85782c0.03311,-0.96593 0.843,-1.72213 1.80893,-1.68901c0.96593,0.03311 1.72213,0.843 1.68901,1.80893c-0.03311,0.96593 -0.843,1.72213 -1.80893,1.68901c-0.96593,-0.03311 -1.72213,-0.843 -1.68901,-1.80893z" fill="#ffc72e" stroke="none" stroke-width="0.5" stroke-linecap="butt"/><path d="M285.85563,118.12565c0.03311,-0.96593 0.843,-1.72213 1.80893,-1.68901c0.96593,0.03311 1.72213,0.843 1.68901,1.80893c-0.03311,0.96593 -0.843,1.72213 -1.80893,1.68901c-0.96593,-0.03311 -1.72213,-0.843 -1.68901,-1.80893z" fill="#ffc72e" stroke="none" stroke-width="0.5" stroke-linecap="butt"/><path d="M275.61154,117.77444c0.03311,-0.96593 0.843,-1.72213 1.80893,-1.68901c0.96593,0.03311 1.72213,0.843 1.68901,1.80893c-0.03311,0.96593 -0.843,1.72213 -1.80893,1.68901c-0.96593,-0.03311 -1.72213,-0.843 -1.68901,-1.80893z" fill="#ffc72e" stroke="none" stroke-width="0.5" stroke-linecap="butt"/><path d="M300.80616,119.26939c0.03311,-0.96593 0.843,-1.72213 1.80893,-1.68901c0.96593,0.03311 1.72213,0.843 1.68901,1.80893c-0.03311,0.96593 -0.843,1.72213 -1.80893,1.68901c-0.96593,-0.03311 -1.72213,-0.843 -1.68901,-1.80893z" fill="#ffc72e" stroke="none" stroke-width="0.5" stroke-linecap="butt"/><path d="M306.61582,120.09972c0.03311,-0.96593 0.843,-1.72213 1.80893,-1.68901c0.96593,0.03311 1.72213,0.843 1.68901,1.80893c-0.03311,0.96593 -0.843,1.72213 -1.80893,1.68901c-0.96593,-0.03311 -1.72213,-0.843 -1.68901,-1.80893z" fill="#ffc72e" stroke="none" stroke-width="0.5" stroke-linecap="butt"/><path d="M316.41413,119.64672c0.03311,-0.96593 0.843,-1.72213 1.80893,-1.68901c0.96593,0.03311 1.72213,0.843 1.68901,1.80893c-0.03311,0.96593 -0.843,1.72213 -1.80893,1.68901c-0.96593,-0.03311 -1.72213,-0.843 -1.68901,-1.80893z" fill="#ffc72e" stroke="none" stroke-width="0.5" stroke-linecap="butt"/><path d="M325.09301,119.6287c0.03311,-0.96593 0.843,-1.72213 1.80893,-1.68901c0.96593,0.03311 1.72213,0.843 1.68901,1.80893c-0.03311,0.96593 -0.843,1.72213 -1.80893,1.68901c-0.96593,-0.03311 -1.72213,-0.843 -1.68901,-1.80893z" fill="#ffc72e" stroke="none" stroke-width="0.5" stroke-linecap="butt"/><path d="M279.66248,113.20712c0.02365,-0.68995 0.60215,-1.23009 1.2921,-1.20643c0.68995,0.02365 1.23009,0.60215 1.20643,1.2921c-0.02365,0.68995 -0.60215,1.23009 -1.2921,1.20643c-0.68995,-0.02365 -1.23009,-0.60215 -1.20643,-1.2921z" fill="#ff9600" stroke="none" stroke-width="0.5" stroke-linecap="butt"/><path d="M289.64332,111.67604c0.02365,-0.68995 0.60215,-1.23009 1.2921,-1.20643c0.68995,0.02365 1.23009,0.60215 1.20643,1.2921c-0.02365,0.68995 -0.60215,1.23009 -1.2921,1.20643c-0.68995,-0.02365 -1.23009,-0.60215 -1.20643,-1.2921z" fill="#ff9600" stroke="none" stroke-width="0.5" stroke-linecap="butt"/><path d="M292.34622,109.33345c0.02365,-0.68995 0.60215,-1.23009 1.2921,-1.20643c0.68995,0.02365 1.23009,0.60215 1.20643,1.2921c-0.02365,0.68995 -0.60215,1.23009 -1.2921,1.20643c-0.68995,-0.02365 -1.23009,-0.60215 -1.20643,-1.2921z" fill="#ff9600" stroke="none" stroke-width="0.5" stroke-linecap="butt"/><path d="M309.49592,111.7947c0.02365,-0.68995 0.60215,-1.23009 1.2921,-1.20643c0.68995,0.02365 1.23009,0.60215 1.20643,1.2921c-0.02365,0.68995 -0.60215,1.23009 -1.2921,1.20643c-0.68995,-0.02365 -1.23009,-0.60215 -1.20643,-1.2921z" fill="#ff9600" stroke="none" stroke-width="0.5" stroke-linecap="butt"/><path d="M314.29657,113.83257c0.02365,-0.68995 0.60215,-1.23009 1.2921,-1.20643c0.68995,0.02365 1.23009,0.60215 1.20643,1.2921c-0.02365,0.68995 -0.60215,1.23009 -1.2921,1.20643c-0.68995,-0.02365 -1.23009,-0.60215 -1.20643,-1.2921z" fill="#ff9600" stroke="none" stroke-width="0.5" stroke-linecap="butt"/><path d="M321.75521,114.8376c0.02365,-0.68995 0.60215,-1.23009 1.2921,-1.20643c0.68995,0.02365 1.23009,0.60215 1.20643,1.2921c-0.02365,0.68995 -0.60215,1.23009 -1.2921,1.20643c-0.68995,-0.02365 -1.23009,-0.60215 -1.20643,-1.2921z" fill="#ff9600" stroke="none" stroke-width="0.5" stroke-linecap="butt"/><path d="M334.49133,114.8996c0.02365,-0.68995 0.60215,-1.23009 1.2921,-1.20643c0.68995,0.02365 1.23009,0.60215 1.20643,1.2921c-0.02365,0.68995 -0.60215,1.23009 -1.2921,1.20643c-0.68995,-0.02365 -1.23009,-0.60215 -1.20643,-1.2921z" fill="#ff9600" stroke="none" stroke-width="0.5" stroke-linecap="butt"/><path d="M339.21391,113.75022c0.02365,-0.68995 0.60215,-1.23009 1.2921,-1.20643c0.68995,0.02365 1.23009,0.60215 1.20643,1.2921c-0.02365,0.68995 -0.60215,1.23009 -1.2921,1.20643c-0.68995,-0.02365 -1.23009,-0.60215 -1.20643,-1.2921z" fill="#ff9600" stroke="none" stroke-width="0.5" stroke-linecap="butt"/><path d="M347.89784,111.80001c0.02365,-0.68995 0.60215,-1.23009 1.2921,-1.20643c0.68995,0.02365 1.23009,0.60215 1.20643,1.2921c-0.02365,0.68995 -0.60215,1.23009 -1.2921,1.20643c-0.68995,-0.02365 -1.23009,-0.60215 -1.20643,-1.2921z" fill="#ff9600" stroke="none" stroke-width="0.5" stroke-linecap="butt"/><path d="M359.27289,113.31398c0.02365,-0.68995 0.60215,-1.23009 1.2921,-1.20643c0.68995,0.02365 1.23009,0.60215 1.20643,1.2921c-0.02365,0.68995 -0.60215,1.23009 -1.2921,1.20643c-0.68995,-0.02365 -1.23009,-0.60215 -1.20643,-1.2921z" fill="#ff9600" stroke="none" stroke-width="0.5" stroke-linecap="butt"/><path d="M370.22241,116.31196c0.02365,-0.68995 0.60215,-1.23009 1.2921,-1.20643c0.68995,0.02365 1.23009,0.60215 1.20643,1.2921c-0.02365,0.68995 -0.60215,1.23009 -1.2921,1.20643c-0.68995,-0.02365 -1.23009,-0.60215 -1.20643,-1.2921z" fill="#ff9600" stroke="none" stroke-width="0.5" stroke-linecap="butt"/><path d="M284.24006,114.48802c0.01419,-0.41397 0.36129,-0.73805 0.77526,-0.72386c0.41397,0.01419 0.73805,0.36129 0.72386,0.77526c-0.01419,0.41397 -0.36129,0.73805 -0.77526,0.72386c-0.41397,-0.01419 -0.73805,-0.36129 -0.72386,-0.77526z" fill="#ff9600" stroke="none" stroke-width="0.5" stroke-linecap="butt"/><path d="M292.84057,114.97023c0.01419,-0.41397 0.36129,-0.73805 0.77526,-0.72386c0.41397,0.01419 0.73805,0.36129 0.72386,0.77526c-0.01419,0.41397 -0.36129,0.73805 -0.77526,0.72386c-0.41397,-0.01419 -0.73805,-0.36129 -0.72386,-0.77526z" fill="#ff9600" stroke="none" stroke-width="0.5" stroke-linecap="butt"/><path d="M303.64044,114.59118c0.01419,-0.41397 0.36129,-0.73805 0.77526,-0.72386c0.41397,0.01419 0.73805,0.36129 0.72386,0.77526c-0.01419,0.41397 -0.36129,0.73805 -0.77526,0.72386c-0.41397,-0.01419 -0.73805,-0.36129 -0.72386,-0.77526z" fill="#ff9600" stroke="none" stroke-width="0.5" stroke-linecap="butt"/><path d="M316.82243,118.04036c0.01419,-0.41397 0.36129,-0.73805 0.77526,-0.72386c0.41397,0.01419 0.73805,0.36129 0.72386,0.77526c-0.01419,0.41397 -0.36129,0.73805 -0.77526,0.72386c-0.41397,-0.01419 -0.73805,-0.36129 -0.72386,-0.77526z" fill="#ff9600" stroke="none" stroke-width="0.5" stroke-linecap="butt"/><path d="M327.77087,115.60583c0.01419,-0.41397 0.36129,-0.73805 0.77526,-0.72386c0.41397,0.01419 0.73805,0.36129 0.72386,0.77526c-0.01419,0.41397 -0.36129,0.73805 -0.77526,0.72386c-0.41397,-0.01419 -0.73805,-0.36129 -0.72386,-0.77526z" fill="#ff9600" stroke="none" stroke-width="0.5" stroke-linecap="butt"/><path d="M340.97852,118.30657c0.01419,-0.41397 0.36129,-0.73805 0.77526,-0.72386c0.41397,0.01419 0.73805,0.36129 0.72386,0.77526c-0.01419,0.41397 -0.36129,0.73805 -0.77526,0.72386c-0.41397,-0.01419 -0.73805,-0.36129 -0.72386,-0.77526z" fill="#ff9600" stroke="none" stroke-width="0.5" stroke-linecap="butt"/><path d="M353.39816,116.67177c0.01419,-0.41397 0.36129,-0.73805 0.77526,-0.72386c0.41397,0.01419 0.73805,0.36129 0.72386,0.77526c-0.01419,0.41397 -0.36129,0.73805 -0.77526,0.72386c-0.41397,-0.01419 -0.73805,-0.36129 -0.72386,-0.77526z" fill="#ff9600" stroke="none" stroke-width="0.5" stroke-linecap="butt"/><path d="M374.87702,118.53214c0.01419,-0.41397 0.36129,-0.73805 0.77526,-0.72386c0.41397,0.01419 0.73805,0.36129 0.72386,0.77526c-0.01419,0.41397 -0.36129,0.73805 -0.77526,0.72386c-0.41397,-0.01419 -0.73805,-0.36129 -0.72386,-0.77526z" fill="#ff9600" stroke="none" stroke-width="0.5" stroke-linecap="butt"/><path d="M363.61849,119.08277c0.01419,-0.41397 0.36129,-0.73805 0.77526,-0.72386c0.41397,0.01419 0.73805,0.36129 0.72386,0.77526c-0.01419,0.41397 -0.36129,0.73805 -0.77526,0.72386c-0.41397,-0.01419 -0.73805,-0.36129 -0.72386,-0.77526z" fill="#ff9600" stroke="none" stroke-width="0.5" stroke-linecap="butt"/></g><g stroke="none" stroke-width="0.5" stroke-linecap="butt"><g><path d="M339.35084,196.52623l2.88272,0.39034c3.56857,1.59714 6.7259,2.87196 8.3168,6.78561c1.49342,3.67381 0.37454,8.58364 -0.42181,12.29936c-1.33556,6.23176 -4.29429,15.28658 -11.22925,17.34331c-2.68676,0.79683 -4.29663,0.37195 -6.91127,0.06743c-10.10711,-2.62779 -19.91866,-8.07046 -24.2914,-18.10017c-3.71031,-8.5103 4.37486,-16.46404 12.24323,-17.89714c-2.07192,-3.95148 -3.04507,-8.65019 1.49854,-11.34574c1.1993,-0.7115 2.69112,-1.07431 4.07829,-0.93188c1.46694,0.15064 2.7619,1.05956 4.05573,1.76712c4.32644,2.36598 7.47633,5.53204 9.62528,9.61685c0.09668,-0.00005 0.15315,0.00492 0.15315,0.00492z" fill="#f3ca58"/><path d="M308.60436,199.21895c2.42366,-3.92804 5.783,-6.87093 10.26132,-8.93504c1.33926,-0.61728 2.69342,-1.43538 4.16722,-1.4852c1.39368,-0.04711 2.85713,0.41704 4.00489,1.209c4.34831,3.00039 3.05564,7.62143 0.71796,11.42174c7.75175,1.96864 15.27318,10.45744 10.98872,18.69365c-5.0494,9.70666 -15.21068,14.46457 -25.47402,16.39395c-2.62934,0.12473 -4.26455,0.43835 -6.89042,-0.54063c-6.7778,-2.52686 -9.10944,-11.76307 -10.01506,-18.07167c-0.53998,-3.76154 -1.31997,-8.73646 0.42157,-12.29936c1.8552,-3.79548 5.09244,-4.85107 8.76202,-6.20005l2.90269,-0.19199c0,0 0.05669,-0.00109 0.15313,0.00558z" fill="#ff9600"/><path d="M308.40444,199.58676c2.42366,-3.92804 5.783,-6.87093 10.26132,-8.93504c1.33926,-0.61728 2.69342,-1.43538 4.16722,-1.4852c1.39368,-0.04711 2.85713,0.41704 4.00489,1.209c4.34831,3.00039 3.05563,7.62143 0.71794,11.42173c7.75175,1.96864 15.27318,10.45745 10.98872,18.69366c-5.0494,9.70666 -15.21068,14.46457 -25.47402,16.39395c-2.62934,0.12473 -4.26455,0.43835 -6.89042,-0.54063c-6.7778,-2.52686 -9.10944,-11.76307 -10.01506,-18.07167c-0.53998,-3.76154 -1.31997,-8.73646 0.42156,-12.29937c1.8552,-3.79548 5.09244,-4.85107 8.76202,-6.20005l2.90268,-0.19199c0,0 0.05669,-0.00109 0.15313,0.00558z" fill="#f3ca58"/></g><path d="M303.04323,219.03036c0.04326,0.04906 0.08477,0.10061 0.12459,0.15452c4.60124,0.86783 4.1356,8.30704 3.2758,11.23248c-0.78342,2.66559 -2.00139,5.09387 -3.57245,7.21235c-0.53985,0.9881 -1.11611,1.96132 -1.68344,2.92829c-2.1141,3.60336 -4.28912,7.57688 -8.6697,8.94997c-1.45948,0.45747 -3.06466,0.09585 -4.58837,-0.03705c-1.50273,-0.13107 -3.23443,0.12377 -4.46233,-0.75238c-0.26604,-0.18983 -0.50364,-0.40008 -0.71495,-0.62799c-0.16501,-0.09175 -0.32865,-0.19264 -0.49077,-0.30324c-2.28474,-1.55875 -3.52089,-5.03307 -2.74797,-7.76658c0.09965,-1.04148 0.4974,-2.17206 0.69997,-3.14837c0.19647,-0.9468 1.95286,-4.14588 2.9727,-5.69345c1.86976,-5.42191 6.67268,-8.67501 11.88433,-11.16682l-0.06227,-0.08923l2.41236,-1.68328c0.44486,-0.57086 0.90227,-1.13183 1.37179,-1.68233c0,0 1.62771,-1.89751 3.52522,-0.2698c1.133,0.97189 1.00917,2.03999 0.72545,2.74289z" fill="#f3ca58"/><path d="M342.46392,217.47656c2.00453,-1.49393 3.49848,0.5106 3.49848,0.5106c0.43071,0.58136 0.84863,1.17234 1.25334,1.77234l2.2914,1.84454l-0.06823,0.08475c5.02877,2.8429 9.59758,6.41731 11.09161,11.95455c0.91147,1.61379 2.44462,4.92565 2.57578,5.88367c0.13523,0.98786 0.45463,2.14303 0.48271,3.18889c0.58387,2.78005 -0.88732,6.16153 -3.27344,7.56015c-0.1693,0.09924 -0.33948,0.18869 -0.51039,0.26893c-0.22641,0.21289 -0.47784,0.40637 -0.75628,0.57755c-1.28502,0.79 -2.99519,0.41715 -4.50338,0.445c-1.52924,0.02822 -3.15541,0.27908 -4.58015,-0.27728c-4.27625,-1.66988 -6.17401,-5.78304 -8.03636,-9.52273c-0.49977,-1.00357 -1.00802,-2.01397 -1.47893,-3.03672c-1.42228,-2.22112 -2.47109,-4.72711 -3.07012,-7.44009c-0.65741,-2.97746 -0.61246,-10.43107 4.03742,-10.98174c0.04342,-0.05105 0.08837,-0.09965 0.13489,-0.14562c-0.23489,-0.72068 -0.28528,-1.79475 0.91164,-2.68676z" fill="#f3ca58"/></g></g></g></g></svg>