<svg version="1.1" xmlns="http://www.w3.org/2000/svg" xmlns:xlink="http://www.w3.org/1999/xlink" width="34.17311" height="34.17311" viewBox="0,0,34.17311,34.17311"><g transform="translate(-302.91345,-162.91346)"><g stroke-miterlimit="10"><path d="M309.98312,162.91347h20.03379c3.9166,0 7.06966,3.15307 7.06966,7.06966v20.03379c0,3.91659 -3.15306,7.06966 -7.06966,7.06966h-20.03379c-3.91659,0 -7.06966,-3.15307 -7.06966,-7.06966v-20.03379c0,-3.91659 3.15307,-7.06966 7.06966,-7.06966z" fill="#b0b0b0" fill-rule="evenodd" stroke="none" stroke-width="4.43922" stroke-linecap="round" stroke-linejoin="round"/><path d="" fill="none" fill-rule="nonzero" stroke="#000000" stroke-width="2" stroke-linecap="round" stroke-linejoin="miter"/><g fill-rule="nonzero" stroke-linecap="butt" stroke-linejoin="miter"><g stroke="#000000" stroke-width="2"><path d="M314.08594,183.19835l6.69847,-13.63654l6.41964,13.93022z" fill="#015bb1"/><path d="M321.30677,183.39114l13.45139,-7.83972l-2.1097,14.88677c-0.59667,-0.00066 -1.19334,-0.00167 -1.79001,-0.00295z" fill="#015bb1"/><path d="M305.24184,175.55142l14.4367,8.11342l-10.00129,6.74312c-0.20101,0.00116 -0.40201,0.00241 -0.60302,0.00373z" fill="#015bb1"/><path d="M320.84216,180.21595c6.19995,0 11.27829,4.5077 11.71846,10.22214c-7.8116,-0.00906 -15.62354,-0.07756 -23.43482,-0.02674c0.45392,-5.70176 5.52609,-10.1954 11.71636,-10.1954z" fill="#015bb1"/><path d="" fill="#015bb1"/><path d="" fill="#ffe192"/></g><path fill="#390200" stroke="none" stroke-width="2"/><path fill="#390200" stroke="none" stroke-width="2"/><path d="" fill="#390200" stroke="none" stroke-width="2"/><path fill="#390200" stroke="none" stroke-width="2"/><path d="" fill="#390200" stroke="none" stroke-width="2"/><path fill="#390200" stroke="none" stroke-width="2"/><path d="" fill="#390200" stroke="none" stroke-width="2"/><g fill="none" stroke="none" stroke-width="1" font-family="sans-serif" font-weight="normal" font-size="12" text-anchor="start"/><g fill="none" stroke="none" stroke-width="1" font-family="sans-serif" font-weight="normal" font-size="12" text-anchor="start"/><g stroke-width="2"><path d="" fill="#0f0f0f" stroke="#000000"/><path d="" fill="#ffffff" stroke="none"/></g></g><g fill-rule="nonzero" stroke-linecap="butt" stroke-linejoin="miter"><g stroke="#000000" stroke-width="0"><path d="M314.08594,183.19835l6.69847,-13.63654l6.41964,13.93022z" fill="#b0b0b0"/><path d="M321.30677,183.39114l13.45139,-7.83972l-2.1097,14.88677c-0.59667,-0.00066 -1.19334,-0.00167 -1.79001,-0.00295z" fill="#b0b0b0"/><path d="M305.24184,175.55142l14.4367,8.11342l-10.00129,6.74312c-0.20101,0.00116 -0.40201,0.00241 -0.60302,0.00373z" fill="#b0b0b0"/><path d="M320.84216,180.21595c6.19995,0 11.27829,4.5077 11.71846,10.22214c-7.8116,-0.00906 -15.62354,-0.07756 -23.43482,-0.02674c0.45392,-5.70176 5.52609,-10.1954 11.71636,-10.1954z" fill="#b0b0b0"/><path d="" fill="#015bb1"/><path d="" fill="#ffe192"/></g><path fill="#390200" stroke="none" stroke-width="0"/><path fill="#390200" stroke="none" stroke-width="0"/><path d="" fill="#390200" stroke="none" stroke-width="0"/><path fill="#390200" stroke="none" stroke-width="0"/><path d="" fill="#390200" stroke="none" stroke-width="0"/><path fill="#390200" stroke="none" stroke-width="0"/><path d="" fill="#390200" stroke="none" stroke-width="0"/><g fill="none" stroke="none" stroke-width="1" font-family="sans-serif" font-weight="normal" font-size="12" text-anchor="start"/><g fill="none" stroke="none" stroke-width="1" font-family="sans-serif" font-weight="normal" font-size="12" text-anchor="start"/><g stroke-width="0"><path d="" fill="#0f0f0f" stroke="#000000"/><path d="" fill="#ffffff" stroke="none"/></g></g><path d="" fill="#000000" fill-rule="nonzero" stroke="#000000" stroke-width="0" stroke-linecap="butt" stroke-linejoin="miter"/><path d="M306.46749,192.34357v-2.5h27.1v2.5z" fill="#b0b0b0" fill-rule="nonzero" stroke="none" stroke-width="0" stroke-linecap="butt" stroke-linejoin="miter"/></g></g></svg>