<svg version="1.1" xmlns="http://www.w3.org/2000/svg" xmlns:xlink="http://www.w3.org/1999/xlink" width="213.18203" height="281.18476" viewBox="0,0,213.18203,281.18476"><defs><linearGradient x1="320.08742" y1="187.07227" x2="320.08742" y2="244.23177" gradientUnits="userSpaceOnUse" id="color-1"><stop offset="0" stop-color="#7a6b00"/><stop offset="1" stop-color="#7a6b00" stop-opacity="0"/></linearGradient></defs><g transform="translate(-214.78369,-38.88751)"><g stroke-miterlimit="10"><g stroke-linecap="butt"><g stroke="#000000" stroke-width="3.5"><path d="M308.50165,223.22756c-9.04011,0.35089 -9.22435,-4.39553 -9.22435,-4.39553l-0.08746,-2.70349c-0.22759,-0.79343 -0.4552,-1.58684 -0.6828,-2.38026c-2.10546,-8.48031 2.20766,-16.9261 0.8785,-25.31484c-0.78617,-4.96181 -2.9267,-10.8365 -4.87003,-15.46975c-2.11327,-5.03839 -6.47333,-9.24816 -7.10246,-14.50167c-0.6708,-5.60139 6.4418,-10.21758 5.74451,-15.44968c0,0 -0.18424,-4.74643 8.85588,-5.09733c9.04011,-0.35089 9.22435,4.39553 9.22435,4.39553c-0.0191,1.58794 0.5,3.18797 -0.05728,4.7638c-1.01687,2.87538 -4.70914,5.42001 -5.91989,8.2798c-1.19045,2.81183 1.80387,6.3038 3.28158,8.74311c3.10147,5.1196 4.96243,10.46668 6.68103,15.79907c1.1609,3.60202 2.54747,7.0916 2.32633,10.80182c-0.42744,7.17175 -2.96738,14.11037 -1.13017,21.24027c0.26428,0.9666 0.52857,1.9332 0.79285,2.89982l0.14528,3.292c0,0 0.18424,4.74643 -8.85589,5.09733z" fill="#39940f"/><path d="M287.01765,226.01521c-8.9232,1.01861 -10.38405,-3.63049 -10.38405,-3.63049l-0.77861,-2.50412c-0.55348,-2.42997 -0.85866,-4.88487 -0.95412,-7.34444c0.66379,-4.43603 1.08549,-9.28849 2.90079,-13.69787c1.96222,-4.76624 4.77563,-8.34034 4.94354,-13.22601c0.19461,-5.66249 -2.84387,-10.77886 -3.79471,-16.35908c-1.11056,-6.51749 -0.60633,-13.61471 1.22251,-20.17794c1.03876,-3.72784 3.46997,-7.29509 4.70878,-11.01052c0,0 1.59226,-4.72305 10.49296,-4.1363c8.90069,0.58677 7.30843,5.30983 7.30843,5.30983c-3.31482,9.73985 -7.42947,18.71353 -5.72406,28.64197c1.0163,5.91658 4.14255,11.3323 3.86797,17.3691c-0.25131,5.52489 -3.14631,9.85153 -5.38952,15.19614c-1.43009,3.40727 -1.95079,8.49873 -2.46055,11.86265c0.07713,1.9871 0.37136,3.96765 0.83181,5.9296l0.67119,2.10977c0,0 1.46085,4.6491 -7.46236,5.66771z" fill="#28670a"/><path d="M323.5802,223.63663c-8.46196,-1.43697 -5.2756,-5.97424 -5.2756,-5.97424l0.62599,0.07321c-0.03198,-0.92058 -0.06396,-1.84116 -0.09596,-2.76174c-2.06151,-8.7845 -7.20714,-17.31025 -8.00765,-26.22033c-0.5427,-6.04051 0.09237,-10.08272 -1.19962,-15.81285c-1.49031,-6.60963 -4.81296,-13.06164 -5.89466,-19.73482c-0.73665,-4.54444 0.18464,-9.13493 -1.10878,-13.64076c0,0 -1.3041,-4.66624 7.64336,-5.60315c8.94745,-0.9369 10.25156,3.72934 10.25156,3.72934c1.29639,4.7417 0.46945,9.52116 1.24604,14.28891c1.05587,6.48233 4.34181,12.75149 5.78123,19.17494c1.5284,6.82039 0.69634,9.12946 1.32325,16.4469c0.7611,8.88343 6.00589,17.42494 8.0047,26.19805c0.04559,1.07792 0.09117,2.15582 0.13676,3.23374l-1.78231,3.50254c0,0 -3.18636,4.53726 -11.64831,3.10029z" fill="#448f21"/><path d="M275.1632,231.86047c-9.04011,0.35089 -9.22435,-4.39553 -9.22435,-4.39553l-0.01293,-0.33308c-0.51686,-13.31611 -0.84352,-26.54208 1.04506,-39.91736c0.77996,-5.52376 3.56072,-11.04607 3.76491,-16.57438c0.38558,-10.43933 -0.04262,-20.77789 1.352,-31.24332c0,0 0.63497,-4.75869 9.65464,-4.67844c9.01967,0.08026 8.38469,4.83898 8.38469,4.83898c-1.38346,10.35414 -0.87007,20.57956 -1.31841,30.90702c-0.24756,5.70251 -3.02754,11.38555 -3.82374,17.07861c-1.82247,13.03116 -1.48249,25.91366 -0.97892,38.88709l0.01293,0.33308c0,0 0.18424,4.74643 -8.85589,5.09733z" fill="#275313"/><path d="M317.07912,219.14181l-0.11034,-3.29336c0.18856,-0.98418 0.37713,-1.96836 0.56569,-2.95255c1.27902,-7.25086 -1.79114,-13.97171 -2.7732,-21.08875c-0.50806,-3.68191 0.60384,-7.26848 1.48204,-10.94965c1.3001,-5.44957 2.74099,-10.92481 5.43628,-16.26942c1.28421,-2.54651 3.99881,-6.26008 2.594,-8.97117c-1.42879,-2.75733 -5.30718,-5.0081 -6.54387,-7.79601c-0.67776,-1.52789 -0.28425,-3.16335 -0.42637,-4.74502c0,0 -0.18424,-4.74643 8.85588,-5.09733c9.04012,-0.35089 9.22436,4.39553 9.22436,4.39553c-0.28965,5.27041 7.15938,9.32138 6.92477,14.95791c-0.22003,5.28647 -4.24065,9.82154 -5.95702,15.00858c-1.57834,4.76994 -3.25705,10.79289 -3.65625,15.80071c-0.6749,8.46654 4.27989,16.55258 2.83812,25.17057c-0.16541,0.80868 -0.33084,1.61735 -0.49624,2.42602l0.12236,2.70213c0,0 0.18424,4.74643 -8.85588,5.09733c-9.04011,0.35089 -9.22435,-4.39553 -9.22435,-4.39553z" fill="#39940f"/><path d="M340.05968,219.57906l0.50562,-2.15545c0.30699,-1.99174 0.44681,-3.98915 0.36968,-5.97625c-0.76899,-3.31426 -1.68278,-8.35006 -3.37268,-11.63623c-2.65075,-5.15465 -5.87242,-9.24387 -6.55122,-14.73266c-0.74171,-5.99734 1.95536,-11.6391 2.50998,-17.61664c0.93068,-10.03074 -3.86717,-18.65848 -7.92699,-28.11209c0,0 -1.95357,-4.58543 6.87486,-5.86037c8.82844,-1.27494 10.78201,3.31051 10.78201,3.31051c1.52309,3.60824 4.22349,6.97631 5.54808,10.6124c2.33209,6.40172 3.38492,13.4385 2.78292,20.02247c-0.51545,5.63714 -3.14818,10.97364 -2.51523,16.60402c0.54611,4.85796 3.62813,8.20323 5.95388,12.80303c2.15162,4.25539 2.94819,9.06055 3.95383,13.4318c0.09547,2.45958 -0.0185,4.93073 -0.38195,7.39631l-0.58217,2.55695c0,0 -1.09609,4.74834 -10.07139,4.42447c-8.97532,-0.32387 -7.87923,-5.07223 -7.87923,-5.07223z" fill="#28670a"/><path d="M299.44841,222.92592l-2.04844,-3.35385c-0.03811,-1.0782 -0.07622,-2.1564 -0.11432,-3.23461c1.31276,-8.90165 5.87969,-17.82401 5.94989,-26.7397c0.05782,-7.34401 -0.95072,-9.58163 0.0444,-16.49999c0.93719,-6.51568 3.7273,-13.02071 4.27752,-19.56537c0.40468,-4.81362 -0.79024,-9.51457 0.13469,-14.34251c0,0 0.93847,-4.75329 9.93163,-4.51276c8.99316,0.24053 8.05468,4.99383 8.05468,4.99383c-0.94026,4.59253 0.3341,9.0978 -0.04808,13.68567c-0.56119,6.73693 -3.37372,13.42709 -4.34719,20.13235c-0.84395,5.81304 0.10255,9.79386 0.0297,15.85826c-0.10744,8.94532 -4.57672,17.84429 -5.95111,26.76214c0.03946,0.92029 0.07895,1.84057 0.1184,2.76087l0.61843,-0.12151c0,0 3.52847,4.27662 -4.79665,6.36521c-8.32513,2.08857 -11.85358,-2.18806 -11.85358,-2.18806z" fill="#448f21"/><path d="M350.98644,225.16454l-0.01293,-0.33308c-0.50358,-12.97346 -1.1632,-25.84354 -3.99027,-38.69422c-1.23509,-5.61422 -4.44724,-11.06467 -5.13607,-16.73083c-1.24751,-10.26165 -1.52827,-20.4961 -3.71016,-30.71184c0,0 -1.00192,-4.69516 7.98438,-5.47435c8.98631,-0.77918 9.98823,3.91599 9.98823,3.91599c2.20165,10.32584 2.57613,20.66648 3.76973,31.04451c0.63208,5.49583 3.83255,10.78599 5.03832,16.23268c2.91966,13.18866 3.61919,26.40014 4.13606,39.71625l0.01293,0.33308c0,0 0.18424,4.74643 -8.85588,5.09733c-9.04011,0.35089 -9.22435,-4.39553 -9.22435,-4.39553z" fill="#275313"/></g><g stroke="none" stroke-width="0.5"><path d="M308.50165,223.22756c-9.04011,0.35089 -9.22435,-4.39553 -9.22435,-4.39553l-0.08745,-2.70348c-0.22759,-0.79343 -0.4552,-1.58684 -0.6828,-2.38026c-2.10546,-8.48032 2.20766,-16.9261 0.8785,-25.31484c-0.78617,-4.96181 -2.9267,-10.8365 -4.87003,-15.46974c-2.11326,-5.0384 -6.47333,-9.24816 -7.10247,-14.50168c-0.6708,-5.60139 6.4418,-10.21758 5.74451,-15.44967c0,0 -0.18424,-4.74643 8.85588,-5.09733c9.04011,-0.35089 9.22435,4.39553 9.22435,4.39553c-0.0191,1.58794 0.5,3.18797 -0.05728,4.7638c-1.01688,2.87539 -4.70913,5.42001 -5.91989,8.2798c-1.19045,2.81183 1.80386,6.3038 3.28158,8.74311c3.10147,5.1196 4.96244,10.46668 6.68103,15.79907c1.1609,3.60201 2.54747,7.0916 2.32633,10.80182c-0.42744,7.17175 -2.96738,14.11037 -1.13017,21.24027c0.26428,0.9666 0.52856,1.9332 0.79285,2.89982l0.14527,3.29199c0,0 0.18424,4.74643 -8.85588,5.09733z" fill="#39940f"/><path d="M287.01765,226.01521c-8.9232,1.01861 -10.38405,-3.63049 -10.38405,-3.63049l-0.77861,-2.50412c-0.55348,-2.42997 -0.85866,-4.88487 -0.95412,-7.34444c0.66379,-4.43603 1.08549,-9.28849 2.90079,-13.69787c1.96223,-4.76624 4.77563,-8.34034 4.94355,-13.22601c0.19461,-5.66249 -2.84387,-10.77886 -3.79472,-16.35909c-1.11055,-6.51749 -0.60632,-13.61472 1.22252,-20.17794c1.03876,-3.72784 3.46997,-7.29509 4.70878,-11.01052c0,0 1.59225,-4.72307 10.49296,-4.1363c8.90069,0.58677 7.30844,5.30983 7.30844,5.30983c-3.31483,9.73985 -7.42948,18.71352 -5.72406,28.64197c1.01629,5.91658 4.14256,11.3323 3.86797,17.36909c-0.25131,5.52489 -3.1463,9.85152 -5.38952,15.19614c-1.43009,3.40727 -1.95079,8.49873 -2.46055,11.86265c0.07713,1.9871 0.37136,3.96765 0.83181,5.9296l0.67119,2.10977c0,0 1.46086,4.6491 -7.46236,5.66771z" fill="#28670a"/><path d="M323.5802,223.63663c-8.46196,-1.43697 -5.2756,-5.97424 -5.2756,-5.97424l0.62599,0.07321c-0.032,-0.92057 -0.06397,-1.84116 -0.09596,-2.76174c-2.06151,-8.7845 -7.20714,-17.31025 -8.00765,-26.22033c-0.5427,-6.04051 0.09237,-10.08272 -1.19962,-15.81285c-1.49031,-6.60962 -4.81296,-13.06164 -5.89466,-19.73481c-0.73664,-4.54444 0.18465,-9.13494 -1.10878,-13.64076c0,0 -1.3041,-4.66624 7.64336,-5.60315c8.94745,-0.93691 10.25155,3.72933 10.25155,3.72933c1.29639,4.74171 0.46945,9.52116 1.24604,14.2889c1.05586,6.48233 4.34181,12.7515 5.78124,19.17494c1.52839,6.82039 0.69634,9.12946 1.32325,16.44689c0.7611,8.88343 6.00589,17.42494 8.0047,26.19805c0.04559,1.07792 0.09117,2.15582 0.13676,3.23374l-1.7823,3.50254c0,0 -3.18636,4.53726 -11.64831,3.10029z" fill="#448f21"/><path d="M275.1632,231.86047c-9.04011,0.35089 -9.22435,-4.39553 -9.22435,-4.39553l-0.01293,-0.33309c-0.51686,-13.31611 -0.84352,-26.54208 1.04506,-39.91736c0.77996,-5.52376 3.56072,-11.04607 3.76491,-16.57438c0.38558,-10.43933 -0.04262,-20.77788 1.352,-31.24332c0,0 0.63497,-4.7587 9.65464,-4.67844c9.01967,0.08026 8.38469,4.83898 8.38469,4.83898c-1.38346,10.35414 -0.87007,20.57955 -1.31841,30.90702c-0.24755,5.70251 -3.02754,11.38555 -3.82374,17.07861c-1.82247,13.03115 -1.4825,25.91366 -0.97893,38.88709l0.01293,0.33309c0,0 0.18424,4.74643 -8.85588,5.09733z" fill="#275313"/><path d="M317.07912,219.14181l-0.11034,-3.29335c0.18856,-0.98418 0.37712,-1.96836 0.56569,-2.95255c1.27901,-7.25087 -1.79114,-13.97172 -2.77319,-21.08875c-0.50806,-3.68191 0.60383,-7.26848 1.48204,-10.94965c1.30009,-5.44957 2.74098,-10.92481 5.43628,-16.26942c1.28421,-2.54651 3.99882,-6.26008 2.594,-8.97117c-1.42879,-2.75733 -5.30718,-5.0081 -6.54388,-7.79601c-0.67776,-1.52789 -0.28425,-3.16335 -0.42637,-4.74502c0,0 -0.18424,-4.74643 8.85588,-5.09733c9.04011,-0.35089 9.22435,4.39553 9.22435,4.39553c-0.28965,5.27041 7.15938,9.32139 6.92479,14.9579c-0.22003,5.28648 -4.24066,9.82154 -5.95702,15.00859c-1.57833,4.76993 -3.25705,10.79288 -3.65625,15.8007c-0.6749,8.46654 4.27989,16.55258 2.83812,25.17057c-0.16541,0.80868 -0.33083,1.61735 -0.49623,2.42602l0.12236,2.70212c0,0 0.18424,4.74643 -8.85588,5.09733c-9.04011,0.35089 -9.22435,-4.39553 -9.22435,-4.39553z" fill="#39940f"/><path d="M340.05968,219.57906l0.50562,-2.15546c0.30699,-1.99174 0.44681,-3.98915 0.36968,-5.97625c-0.769,-3.31427 -1.68278,-8.35006 -3.37267,-11.63623c-2.65075,-5.15466 -5.87241,-9.24388 -6.55122,-14.73267c-0.7417,-5.99733 1.95536,-11.6391 2.50998,-17.61664c0.93068,-10.03074 -3.86717,-18.65848 -7.92699,-28.11209c0,0 -1.95357,-4.58543 6.87486,-5.86037c8.82844,-1.27494 10.78201,3.31051 10.78201,3.31051c1.52309,3.60824 4.22349,6.97631 5.54808,10.6124c2.33209,6.40172 3.38492,13.4385 2.78292,20.02247c-0.51545,5.63714 -3.14818,10.97364 -2.51523,16.60402c0.54612,4.85797 3.62812,8.20323 5.95388,12.80303c2.15162,4.25539 2.94819,9.06055 3.95384,13.4318c0.09547,2.45957 -0.0185,4.93073 -0.38195,7.39631l-0.58217,2.55695c0,0 -1.09609,4.74834 -10.07139,4.42447c-8.97532,-0.32387 -7.87923,-5.07223 -7.87923,-5.07223z" fill="#28670a"/><path d="M299.44841,222.92592l-2.04843,-3.35385c-0.03811,-1.0782 -0.07621,-2.1564 -0.11431,-3.23462c1.31275,-8.90166 5.87969,-17.82401 5.94989,-26.7397c0.05782,-7.34401 -0.95073,-9.58163 0.0444,-16.49998c0.93718,-6.51569 3.7273,-13.02071 4.27753,-19.56537c0.40468,-4.81362 -0.79024,-9.51457 0.13469,-14.34251c0,0 0.93847,-4.75329 9.93163,-4.51275c8.99316,0.24053 8.05468,4.99383 8.05468,4.99383c-0.94026,4.59252 0.33409,9.0978 -0.04808,13.68567c-0.56119,6.73693 -3.37372,13.42709 -4.3472,20.13234c-0.84394,5.81304 0.10255,9.79387 0.02971,15.85826c-0.10745,8.94532 -4.57672,17.84429 -5.95111,26.76214c0.03946,0.92029 0.07895,1.84057 0.11841,2.76087l0.61843,-0.12151c0,0 3.52847,4.27662 -4.79665,6.36521c-8.32513,2.08857 -11.85358,-2.18806 -11.85358,-2.18806z" fill="#448f21"/><path d="M350.98644,225.16454l-0.01293,-0.33308c-0.50358,-12.97346 -1.1632,-25.84354 -3.99028,-38.69422c-1.2351,-5.61422 -4.44724,-11.06467 -5.13606,-16.73083c-1.24751,-10.26165 -1.52827,-20.4961 -3.71016,-30.71184c0,0 -1.00192,-4.69516 7.98438,-5.47435c8.98631,-0.77918 9.98822,3.91599 9.98822,3.91599c2.20165,10.32585 2.57614,20.66648 3.76973,31.04451c0.63208,5.49582 3.83255,10.78599 5.03832,16.23268c2.91966,13.18866 3.6192,26.40014 4.13607,39.71625l0.01293,0.33308c0,0 0.18424,4.74643 -8.85588,5.09733c-9.04011,0.35089 -9.22435,-4.39553 -9.22435,-4.39553z" fill="#275313"/></g></g><g stroke="#000000" stroke-width="3.5"><path d="M364.93881,175.72232l2.36086,6.85761l-7.70299,-2.10651z" fill="#000000" stroke-linecap="round"/><path d="M336.50227,121.80572c-1.24816,-0.87891 -2.03805,-2.3165 -2.00725,-3.97032c0.03474,-1.86521 1.10463,-3.53604 2.67068,-4.48021c1.3383,-2.24506 7.41071,-0.48853 9.2181,0.23167c6.60138,2.63054 12.95371,10.70395 15.52994,17.08054c8.07982,19.99892 -7.29609,42.66225 -3.18734,63.01833c2.29476,11.36892 10.95153,20.63685 13.58408,31.99664c0.8603,3.71236 0.97033,10.92299 -5.19194,11.16219c-1.76612,0.06855 -3.3266,-1.20374 -4.55295,-2.36243c-0.9665,-0.91316 -0.50939,-5.21488 -0.54551,-5.97034c-0.1693,-3.54148 -2.50601,-7.25293 -3.96942,-10.30987c-3.26374,-6.81762 -8.88154,-14.90624 -9.77331,-22.66361c-2.31205,-20.11219 7.23183,-40.11184 3.98292,-60.11515c-0.61292,-3.77368 -6.74424,-10.36433 -9.42683,-12.02917c-1.02915,-0.63868 -2.11021,-0.63638 -3.20014,-0.6798c-0.48071,0.01653 -0.94501,-0.02988 -1.38484,-0.13165c-0.40453,-0.07611 -0.80777,-0.19855 -1.20753,-0.40246c-0.20163,-0.10285 -0.37963,-0.22919 -0.53866,-0.37437z" fill="#9efd71" stroke-linecap="butt"/><path d="M361.83313,109.44939c0.48823,-2.38927 2.669,-4.27173 5.25094,-4.37194c1.51001,-0.05861 2.85987,0.5039 3.80043,1.4521c0.16202,0.16334 0.31189,0.33812 0.44834,0.52313c2.09159,1.7132 4.49838,3.17815 6.73537,4.71712c0.04046,0.02784 0.05636,0.08116 0.09623,0.10974c19.55582,14.02381 16.11092,43.57509 14.61761,64.88314c-0.12562,1.79249 -0.47747,3.57896 -0.58837,5.37152c-0.14591,2.35863 -0.17686,4.71848 -0.13167,7.07018c0.04947,2.57482 3.78559,6.41776 2.58645,9.05796c-2.03459,4.47972 -4.08316,5.34507 -8.60399,3.63452c-4.30464,-1.62875 -4.41089,-17.68526 -4.36096,-19.60799c0.04664,-1.79621 0.60667,-4.17964 0.65777,-5.62438c0.38933,-11.00915 1.88792,-26.86519 -0.32052,-38.90895c-1.04715,-5.71063 -3.22364,-11.739 -7.72486,-15.55681c-3.37193,-2.85994 -12.98261,-6.27357 -12.59141,-12.11806c0.01487,-0.22191 0.05913,-0.43177 0.12864,-0.63129z" fill="#9efd71" stroke-linecap="butt"/><path d="M343.92799,116.13286c0.05226,-2.8067 2.44849,-5.17334 5.3521,-5.28604c0.45513,-0.01766 0.89572,0.0211 1.31493,0.10984c1.11811,-0.33649 2.89711,1.7443 3.58314,2.45789c3.22523,3.35479 5.78356,6.58014 8.37757,10.43169c12.99825,19.2997 3.59173,41.74244 3.82845,63.34988c0.03811,3.47965 0.60576,7.56074 1.90031,10.77042c0.38738,0.96046 2.12489,2.82785 2.11312,3.45973c-0.03179,1.70718 -0.21481,3.73954 -1.48612,4.99518c-8.00951,7.91064 -11.56867,-7.74254 -12.24744,-11.47433c-0.21796,-1.19836 -0.45261,-2.50142 -0.56416,-3.72161c-1.63808,-17.92107 5.91027,-35.58356 1.4019,-53.47571c-1.52673,-6.05905 -5.85097,-11.37501 -9.97528,-15.83277c-0.82132,-0.88773 -4.80065,-4.27182 -3.59852,-5.78416z" fill="#67dc31" stroke-linecap="butt"/><path d="M390.46281,165.33697c0.74232,0.85145 1.17757,1.96655 1.15456,3.20237c-0.03474,1.86521 -1.10463,3.53605 -2.67069,4.48021c-0.51766,0.86839 -1.86397,0.93146 -3.03705,0.80819c-0.53276,-0.05598 -1.02979,-0.15041 -1.39725,-0.22528c-4.10508,-0.83643 -4.92796,-6.04617 -5.46556,-9.67135c-0.75594,-5.0974 -1.55754,-11.98215 -2.88339,-16.9397c-1.6391,-6.12888 -4.72232,-11.68757 -6.52016,-17.76539c-3.20476,-10.83405 -2.30017,-14.11945 -10.09263,-23.48199c-2.09761,-2.52026 -4.72473,-5.99919 -0.43639,-9.23091c4.83308,-3.64223 7.55602,1.0778 9.83189,3.73118c6.7583,7.87935 8.54567,15.87696 10.87515,25.83372c0.87509,3.74037 2.496,6.45945 3.79823,10.0594c2.00026,5.52956 3.46404,11.27506 4.58072,17.07744c0.89134,4.63135 1.10542,8.22366 2.26257,12.12209z" fill="#67dc31" stroke-linecap="butt"/><path d="M365.77204,94.95313c1.2324,0.88058 2.0106,2.30923 1.98003,3.95098c-0.00083,0.04474 -0.00228,0.08938 -0.00429,0.1339c0.12924,0.60628 -0.03076,1.17294 -0.37684,1.69964c-0.7928,1.93709 -2.73088,3.36556 -4.97097,3.4525c-1.95984,1.01405 -4.6855,-2.43466 -6.00029,-3.06991c-4.64215,-2.24289 -10.20593,-4.84698 -15.72331,-4.6398c-6.23695,0.23422 -13.54557,1.66154 -19.2798,4.71769c-1.33987,0.71411 -3.35787,2.87674 -5.1748,3.18745c-2.79763,0.47842 -5.31083,0.91385 -6.59035,-2.95599c-2.12513,-6.42723 9.70699,-10.33872 14.04941,-11.77995c12.20026,-4.04921 25.11085,-4.57767 36.12909,1.46135c2.47855,1.35848 4.51637,2.27834 5.96211,3.84213z" fill="#67dc31" stroke-linecap="butt"/><path d="M362.99115,102.88684c0.83404,0.86993 1.33044,2.05029 1.3059,3.3679c-0.00083,0.04474 -0.00228,0.08938 -0.00429,0.1339c0.081,0.38001 0.04838,0.74447 -0.07246,1.09326c6.09269,7.1824 14.75167,18.06294 13.91735,26.49236c-0.61617,6.22531 -0.60642,12.54282 -2.18717,18.66066c-1.61993,6.2695 -4.70955,12.71521 -4.30417,19.25878c0.53869,8.69525 5.23046,17.40117 7.84485,25.49755c2.71259,8.40049 4.9998,17.07691 8.08311,25.29311c1.01313,2.69973 0.6575,5.97072 -3.18307,7.34898c-7.28691,2.61504 -9.83777,-12.72969 -11.07045,-16.79217c-0.50408,-1.6613 -1.0287,-3.31567 -1.55102,-4.97079c-0.76362,-2.41977 -1.47969,-4.85678 -2.30676,-7.25379c-3.07095,-8.90018 -8.26922,-18.66444 -8.33831,-28.3536c-0.0933,-13.08394 6.47855,-24.87591 6.44528,-38.19503c-0.02465,-9.86645 -10.5168,-17.2925 -15.49212,-24.36551c-0.45937,-0.65304 -0.71913,-1.4538 -0.7791,-2.29553c-0.01438,-0.16816 -0.02016,-0.33912 -0.01693,-0.51243c0.00649,-0.34812 0.04902,-0.68949 0.12412,-1.02059c0.00517,-0.02454 0.0105,-0.04909 0.01599,-0.07361c-3.40213,-1.6975 -8.55132,-2.53568 -11.84555,-2.46061c-4.80024,0.10938 -9.55755,-0.24877 -14.2186,1.08123c-2.85252,0.81396 -6.82784,5.4809 -9.90386,3.59544c-1.45186,-0.88993 -2.76347,-2.44956 -2.85964,-4.14729c-0.36836,-6.50278 10.34147,-9.6593 15.38431,-10.15796c10.32582,-1.02106 29.22929,-1.5293 35.01256,8.77577z" fill="#4cc513" stroke-linecap="butt"/><path d="M379.44876,131.23786c1.3768,0.2135 1.90315,3.61605 2.15298,4.83517c1.30934,6.38949 1.34614,12.95514 1.40552,19.55006c0.06549,7.27487 -1.03934,14.53598 -0.95568,21.74989c0.10036,8.65537 5.17583,16.68324 5.05922,25.28571c-0.09303,6.86368 -0.06083,13.72525 -0.38356,20.59536c-0.12587,2.67914 -1.9416,5.15366 -5.35211,5.28605c-3.41325,0.13249 -5.13523,-2.20473 -5.1628,-4.8779c-0.06928,-6.71475 0.31508,-13.45262 0.37574,-20.17474c0.07078,-7.84341 -3.89002,-16.0312 -4.92903,-23.85423c-0.91084,-6.85794 0.71,-16.9594 0.83076,-23.42294c0.09359,-5.00859 -0.0012,-10.76572 -0.81126,-15.74017c-0.30475,-1.87142 -1.33955,-4.16313 -0.93108,-6.06874c0.04713,-0.21985 0.12181,-0.42473 0.2198,-0.61692c0.85319,-1.67353 3.47316,-2.3856 5.05164,-3.66231z" fill="#7ade4c" stroke-linecap="butt"/><path d="M338.91257,122.73041c-1.23574,0.8343 -5.83645,-1.63032 -7.54418,-1.56631c-1.65212,0.06191 -3.30425,0.12242 -4.9565,0.19239c-2.45683,0.10403 -3.39662,2.78185 -6.42811,2.68666c-3.50476,-0.11005 -5.40779,-4.72771 -3.96646,-7.79482c1.2443,-2.64787 4.27002,-3.01151 6.56128,-4.07176c4.4672,-2.06712 12.1616,-2.16862 17.06299,0.45533c2.06943,1.10787 3.64096,2.70157 4.26149,4.83832z" fill="#9efd71" stroke-linecap="butt"/><path d="M352.10363,110.91419c1.28868,0.87396 2.10888,2.33421 2.0775,4.01884c-0.00083,0.04474 -0.00228,0.08938 -0.00429,0.1339c0.12924,0.60628 -0.03076,1.17294 -0.37684,1.69965c-0.7928,1.93709 -2.73089,3.36556 -4.97099,3.4525c-1.25004,0.64679 -2.23302,0.02372 -3.06324,-0.84416c-0.72231,-0.4841 -1.2993,-1.15154 -1.66441,-1.93933c-0.16176,-0.15943 -0.3196,-0.28767 -0.47512,-0.36995c-2.52086,-1.3337 -5.93645,-3.32834 -8.99368,-3.60949c-3.33399,-0.30661 -7.41583,-0.19643 -10.61075,-0.02525c-2.09524,0.11226 -2.96234,3.83812 -6.10725,2.94149c-1.66543,-0.47483 -3.59419,-1.17352 -4.35559,-2.66981c-2.74423,-5.39293 5.16815,-9.33587 9.31653,-10.38379c8.16255,-2.06195 23.4279,0.61482 29.22812,7.59539z" fill="#67dc31" stroke-linecap="butt"/></g><g stroke="#000000" stroke-width="3.5"><path d="M276.53465,172.97655l-7.66057,2.54904l2.23826,-6.59177z" fill="#000000" stroke-linecap="round"/><path d="M298.04662,116.75613c-0.39588,0.22076 -0.79669,0.36558 -1.19959,0.46716c-0.43774,0.12823 -0.9009,0.20653 -1.38156,0.22718c-1.08842,0.12249 -2.1688,0.20153 -3.18597,0.87628c-2.65139,1.75876 -8.66224,8.38408 -9.20817,11.95992c-2.89382,18.95461 6.99635,36.94479 5.04067,55.93087c-0.75431,7.32302 -6.22556,15.31092 -9.36681,21.9331c-1.40849,2.9693 -3.67812,6.61644 -3.78483,9.94176c-0.02277,0.70935 0.5099,4.69872 -0.43981,5.62548c-1.20507,1.17593 -2.74204,2.48323 -4.50816,2.55177c-6.1623,0.23919 -6.17954,-6.51371 -5.3853,-10.05077c2.43036,-10.82339 10.91771,-20.14267 13.01033,-30.94925c3.74685,-19.34918 -12.01832,-39.39276 -4.29684,-58.70618c2.46198,-6.15803 8.66754,-14.18688 15.21798,-17.14332c1.79344,-0.80945 7.83073,-2.90861 9.20771,-0.90919c1.58162,0.7655 2.68028,2.24799 2.74789,3.99004c0.05995,1.54462 -0.70405,2.94865 -1.93584,3.86451c-0.15637,0.14775 -0.33201,0.27929 -0.53167,0.39064z" fill="#9efd71" stroke-linecap="butt"/><path d="M273.18649,107.29146c0.49404,5.4374 -9.04985,9.35238 -12.36901,12.2808c-4.4308,3.9092 -6.49945,9.71148 -7.44515,15.13172c-1.99447,11.43132 -0.21719,26.15006 0.36609,36.41846c0.07654,1.34752 0.67823,3.53487 0.75654,5.21149c0.08381,1.79473 0.26088,16.82152 -4.01208,18.66838c-4.48758,1.93963 -6.55,1.28408 -8.66223,-2.75329c-1.24487,-2.37948 2.42088,-6.25473 2.42489,-8.66687c0.00366,-2.20311 -0.06889,-4.40813 -0.2563,-6.60337c-0.14244,-1.66838 -0.52555,-3.31298 -0.68271,-4.98019c-1.86818,-19.8188 -5.83202,-47.20145 13.463,-61.78802c0.03934,-0.02974 0.05429,-0.08081 0.09423,-0.10988c2.2083,-1.60756 4.5876,-3.15863 6.64754,-4.91824c0.1331,-0.18332 0.27978,-0.35806 0.43881,-0.52301c0.92318,-0.95758 2.26222,-1.58514 3.77222,-1.64376c2.58195,-0.10022 4.79442,1.49674 5.32447,3.69494c0.07298,0.18139 0.12093,0.37437 0.13968,0.58082z" fill="#9efd71" stroke-linecap="butt"/><path d="M287.56355,117.29778c-4.04285,4.47951 -8.27035,9.77675 -9.68914,15.55891c-4.18965,17.07451 3.6651,33.02846 2.3443,49.91438c-0.08994,1.14972 -0.30143,2.38619 -0.49811,3.52348c-0.61246,3.54162 -3.89306,18.45054 -12.03662,11.65283c-1.2926,-1.07898 -1.51133,-2.96625 -1.57322,-4.5607c-0.0229,-0.59018 1.68046,-2.46739 2.05064,-3.39489c1.23705,-3.09948 1.73229,-6.95948 1.709,-10.21712c-0.14463,-20.22881 -9.94062,-40.51449 2.70828,-59.54336c2.52428,-3.7975 5.02395,-7.00657 8.1878,-10.38686c0.67297,-0.719 2.41406,-2.79897 3.53733,-2.5682c0.41737,-0.11448 0.85695,-0.18386 1.31209,-0.20152c2.90361,-0.1127 5.33994,1.92097 5.44168,4.54236c1.22799,1.3243 -2.68892,4.78861 -3.49403,5.68068z" fill="#67dc31" stroke-linecap="butt"/><path d="M247.4698,149.62845c1.01357,-5.51127 2.37499,-10.99542 4.27633,-16.3179c1.23784,-3.4651 2.80967,-6.13024 3.61818,-9.69461c2.15226,-9.48829 3.79729,-17.1033 10.41198,-24.98113c2.22751,-2.65287 4.86533,-7.27242 9.75934,-4.22864c4.34239,2.70071 1.77846,6.15218 -0.27326,8.66712c-7.62196,9.34285 -6.66003,12.34797 -9.67146,22.72259c-1.6894,5.82007 -4.67245,11.25115 -6.20231,17.10707c-1.23748,4.73674 -1.91708,11.23679 -2.58258,16.06154c-0.47329,3.43128 -1.20369,8.36613 -5.29121,9.4569c-0.36589,0.09763 -0.86091,0.22331 -1.39232,0.31569c-1.17012,0.20344 -2.51662,0.24557 -3.04923,-0.52779c-1.58163,-0.7655 -2.68029,-2.24799 -2.7479,-3.99004c-0.0448,-1.15424 0.37049,-2.22996 1.09726,-3.08216c1.08756,-3.7334 1.23815,-7.10963 2.04717,-11.50864z" fill="#67dc31" stroke-linecap="butt"/><path d="M274.74512,89.40542c10.90417,-6.47645 23.81525,-6.95201 36.07858,-4.08099c4.36489,1.02187 16.2579,3.79172 14.2476,9.96322c-1.21039,3.71586 -3.72955,3.49736 -6.5337,3.26005c-1.82118,-0.15412 -3.87595,-2.02542 -5.2275,-2.59272c-5.78423,-2.42787 -13.11301,-3.21392 -19.34983,-2.96446c-5.51725,0.22066 -11.03128,3.07443 -15.6307,5.52111c-1.30268,0.69297 -3.96562,4.12356 -5.94202,3.32227c-2.24008,0.08695 -4.20205,-1.1036 -5.02848,-2.85594c-0.35514,-0.46667 -0.52501,-0.98468 -0.40657,-1.56148c-0.0028,-0.04149 -0.00503,-0.08313 -0.00666,-0.12493c-0.05952,-1.53336 0.69295,-2.92815 1.90897,-3.84439c1.41717,-1.57134 3.43736,-2.58484 5.89026,-4.04171z" fill="#67dc31" stroke-linecap="butt"/><path d="M306.60758,89.82037c5.04818,0.0876 15.80636,2.23558 15.55298,8.34577c-0.06616,1.59523 -1.34936,3.1526 -2.78452,4.09408c-3.04066,1.99468 -7.09559,-2.072 -9.96051,-2.61908c-4.68132,-0.8939 -9.42904,-0.20152 -14.22792,0.05679c-3.29331,0.17726 -8.42418,1.3481 -11.79403,3.19146c0.00592,0.02252 0.01168,0.04507 0.01727,0.06765c0.08088,0.3041 0.12942,0.62019 0.14204,0.94533c0.00629,0.16188 0.00351,0.3222 -0.00788,0.48059c-0.04508,0.79185 -0.29054,1.56037 -0.73806,2.20571c-4.84712,6.98967 -15.20109,14.72398 -15.05168,23.95464c0.20171,12.46086 6.97709,22.99704 7.11465,35.2424c0.10188,9.06817 -4.92057,18.59191 -7.8324,27.14758c-0.78422,2.30424 -1.45681,4.63754 -2.17722,6.95829c-0.49275,1.58737 -0.98784,3.17424 -1.46225,4.76604c-1.16016,3.89254 -3.43859,18.43722 -10.76663,16.53858c-3.86226,-1.00067 -4.27533,-4.03355 -3.31052,-6.63492c2.93625,-7.91684 5.06883,-16.20434 7.63137,-24.26571c2.46978,-7.76953 7.00474,-16.26528 7.38968,-24.43904c0.28968,-6.15114 -2.91153,-11.94819 -4.64095,-17.6908c-1.68758,-5.6037 -1.7893,-11.51364 -2.51485,-17.29035c-0.98245,-7.82199 7.47864,-18.64981 13.44046,-25.82574c-0.12693,-0.31718 -0.16596,-0.65562 -0.09171,-1.01717c-0.0028,-0.04149 -0.00503,-0.08313 -0.00666,-0.12493c-0.04777,-1.23062 0.42747,-2.37198 1.24559,-3.24834c5.59753,-10.07353 24.49702,-11.01821 34.83377,-10.83884z" fill="#4cc513" stroke-linecap="butt"/><path d="M259.23543,127.11302c1.59991,1.07563 4.23065,1.54485 5.11278,3.04614c0.10131,0.1724 0.17957,0.35843 0.23053,0.56053c0.4418,1.75179 -0.55186,3.97311 -0.82339,5.74648c-0.72173,4.71381 -0.7149,10.10602 -0.53303,14.78388c0.23472,6.03674 2.03263,15.3636 1.24341,21.84676c-0.90029,7.39551 -4.71394,15.35168 -4.50485,22.68287c0.17921,6.28314 0.68217,12.55668 0.73138,18.84269c0.01959,2.50248 -1.65998,4.81801 -5.07322,4.95049c-3.4105,0.13238 -5.26866,-2.04582 -5.44169,-4.54236c-0.44372,-6.40186 -0.53258,-12.8224 -0.74664,-19.23551c-0.26827,-8.03775 4.6621,-15.92809 4.6097,-24.03163c-0.04366,-6.75398 -1.27583,-13.46281 -1.33871,-20.27245c-0.057,-6.17317 -0.13605,-12.31726 1.05968,-18.39216c0.22816,-1.15909 0.69411,-4.3813 2.06621,-4.68443z" fill="#7ade4c" stroke-linecap="butt"/><path d="M291.10606,112.86615c0.58243,-2.04527 2.12477,-3.65404 4.17323,-4.84577c4.85175,-2.82259 12.54268,-3.30566 17.04327,-1.70771c2.30839,0.81959 5.33844,0.93243 6.6286,3.3157c1.49445,2.76064 -0.32583,7.22282 -3.82623,7.58905c-3.02773,0.31678 -4.01412,-2.1174 -6.47111,-2.03014c-1.65235,0.05868 -3.30442,0.12618 -4.9565,0.19239c-1.70769,0.06843 -6.26175,2.71937 -7.51137,2.03183z" fill="#9efd71" stroke-linecap="butt"/><path d="M311.86959,98.04966c4.16404,0.66856 12.14054,3.76229 9.49334,9.01285c-0.73448,1.45677 -2.64959,2.25521 -4.30551,2.82445c-3.12694,1.07494 -4.05915,-2.34499 -6.15495,-2.2926c-3.19576,0.07989 -7.27675,0.28348 -10.60304,0.82071c-3.05016,0.49263 -6.42824,2.61496 -8.92386,4.05184c-0.15396,0.08864 -0.30942,0.22045 -0.46827,0.38173c-0.35095,0.76432 -0.91579,1.43195 -1.62905,1.93903c-0.81434,0.87417 -1.78566,1.53081 -3.04627,1.01973c-2.24008,0.08695 -4.20205,-1.1036 -5.02848,-2.85594c-0.35514,-0.46667 -0.52501,-0.98468 -0.40657,-1.56148c-0.0028,-0.04149 -0.00503,-0.08313 -0.00666,-0.12493c-0.06108,-1.5734 0.7328,-3.0009 2.00518,-3.91519c5.67311,-6.96517 20.88079,-10.6157 29.07411,-9.30021z" fill="#67dc31" stroke-linecap="butt"/></g><path d="M214.78369,306.61252v-267.72501c0,0 153.66918,0 187.45214,0c12.51617,0 25.72989,0 25.72989,0v267.72501z" fill="none" stroke="none" stroke-width="0" stroke-linecap="butt"/><path d="M286.35186,319.07226l15.14285,-131.8421l37.78325,-0.15789l13.57389,132z" fill="#4cc114" stroke="#000000" stroke-width="0" stroke-linecap="butt"/><path d="M295.01902,243.61117l6.47569,-56.38101l37.78325,-0.15789l5.87786,57.15951z" fill="url(#color-1)" stroke="#000000" stroke-width="0" stroke-linecap="butt"/><path d="M286.35186,319.07226l15.14285,-131.8421l37.78325,-0.15789l13.57389,132z" fill="none" stroke="#000000" stroke-width="2" stroke-linecap="butt"/><path d="M249.46277,154.53802c-1.29166,-33.27678 26.39951,-61.36845 61.84993,-62.74447c35.45043,-1.37602 65.23577,24.48465 66.52743,57.76145c1.29166,33.27678 -26.3995,61.36845 -61.84993,62.74448c-35.45042,1.37602 -65.23577,-24.48466 -66.52743,-57.76146z" fill="#4cc114" stroke="#000000" stroke-width="2" stroke-linecap="butt"/><path d="M263.09031,154.28489c-0.50298,-12.95825 9.59402,-23.87073 22.55227,-24.37371c12.95825,-0.50298 23.87073,9.59401 24.37371,22.55226c0.50298,12.95825 -9.59401,23.87074 -22.55225,24.37372c-12.95825,0.50298 -23.87074,-9.59402 -24.37372,-22.55226z" fill="#ffffff" stroke="#000000" stroke-width="2" stroke-linecap="butt"/><path d="M265.99658,155.17382c-0.32191,-8.2934 6.14025,-15.27749 14.43365,-15.59941c8.2934,-0.32191 15.27749,6.14026 15.59941,14.43367c0.32191,8.2934 -6.14026,15.2775 -14.43366,15.59942c-8.2934,0.32191 -15.27748,-6.14026 -15.5994,-14.43367z" fill="#000000" stroke="#000000" stroke-width="5" stroke-linecap="butt"/><path d="" fill="none" stroke="#000000" stroke-width="2" stroke-linecap="round"/><path d="M341.68167,174.7327c-12.95825,0.50298 -23.87073,-9.59402 -24.37371,-22.55227c-0.50298,-12.95825 9.59401,-23.87073 22.55226,-24.37371c12.95825,-0.50298 23.87074,9.59401 24.37372,22.55225c0.50298,12.95825 -9.59402,23.87074 -22.55226,24.37372z" fill="#ffffff" stroke="#000000" stroke-width="2" stroke-linecap="butt"/><path d="M349.78237,150.92286c0.3219,8.29342 -6.14025,15.2775 -14.43365,15.59942c-8.2934,0.32191 -15.27749,-6.14028 -15.59941,-14.43367c-0.3219,-8.29342 6.14027,-15.2775 14.43366,-15.59942c8.2934,-0.32191 15.27748,6.14027 15.5994,14.43366z" fill="#000000" stroke="#000000" stroke-width="5" stroke-linecap="butt"/><path d="M271.7563,127.02972c0,0 7.41122,-4.09934 12.62135,-4.51337c5.21013,-0.41402 12.08794,2.54981 12.08794,2.54981c0,0 -7.93727,-1.27073 -11.96089,-0.95099c-4.20483,0.33416 -12.74841,2.91454 -12.74841,2.91454z" fill="#000000" stroke="none" stroke-width="0" stroke-linecap="butt"/><path d="M337.70982,122.30055c-4.03631,-0.00294 -11.84934,1.88687 -11.84934,1.88687c0,0 6.62395,-3.49455 11.8505,-3.49075c5.22655,0.0038 12.93667,3.50878 12.93667,3.50878c0,0 -8.71976,-1.90182 -12.93785,-1.9049z" fill="#000000" stroke="none" stroke-width="0" stroke-linecap="butt"/><path d="M263.09031,154.28489c-0.50298,-12.95825 9.59402,-23.87073 22.55227,-24.37371c12.95825,-0.50298 23.87073,9.59401 24.37371,22.55226c0.0022,0.05692 -46.92428,1.8652 -46.92597,1.82145z" fill="#4cc114" stroke="#000000" stroke-width="2" stroke-linecap="butt"/><path d="M317.30795,152.18044c-0.50298,-12.95825 9.59401,-23.87073 22.55226,-24.37371c12.95825,-0.50298 23.87074,9.59401 24.37372,22.55225c0.00344,0.08876 -46.92152,1.93614 -46.92597,1.82145z" fill="#4cc114" stroke="#000000" stroke-width="2" stroke-linecap="butt"/><path d="M360.07197,164.98044l2.50042,6.40784l-7.082,-1.9768z" fill="#000000" stroke="#000000" stroke-width="0.5" stroke-linecap="round"/><path d="M317.5,201.75c-5.89444,0.17962 -16.52728,-5.95414 -16.52728,-5.95414c0,0 9.56483,1.46345 14.56285,1.31116c4.99767,-0.15229 15.42427,-2.22493 15.42427,-2.22493c0,0 -7.5654,6.68829 -13.45984,6.86791z" fill="#000000" stroke="#000000" stroke-width="2" stroke-linecap="round"/><g stroke-width="0.5"><path d="M276.53465,172.97655l-7.66057,2.54904l2.23826,-6.59177z" fill="#000000" stroke="#000000" stroke-linecap="round"/><path d="M298.04662,116.75613c-0.39588,0.22076 -0.79669,0.36558 -1.19959,0.46716c-0.43774,0.12823 -0.9009,0.20653 -1.38156,0.22718c-1.08842,0.12249 -2.1688,0.20153 -3.18597,0.87628c-2.65139,1.75876 -8.66224,8.38408 -9.20817,11.95992c-2.89382,18.95461 6.99635,36.94479 5.04067,55.93087c-0.75431,7.32302 -6.22556,15.31092 -9.36681,21.9331c-1.40849,2.9693 -3.67812,6.61644 -3.78483,9.94176c-0.02277,0.70935 0.5099,4.69872 -0.43981,5.62548c-1.20507,1.17593 -2.74204,2.48323 -4.50816,2.55177c-6.1623,0.23919 -6.17954,-6.51371 -5.3853,-10.05077c2.43036,-10.82339 10.91771,-20.14267 13.01033,-30.94925c3.74685,-19.34918 -12.01832,-39.39276 -4.29684,-58.70618c2.46198,-6.15803 8.66754,-14.18688 15.21798,-17.14332c1.79344,-0.80945 7.83073,-2.90861 9.20771,-0.90919c1.58162,0.7655 2.68028,2.24799 2.74789,3.99004c0.05995,1.54462 -0.70405,2.94865 -1.93584,3.86451c-0.15637,0.14775 -0.33201,0.27929 -0.53167,0.39064z" fill="#9efd71" stroke="none" stroke-linecap="butt"/><path d="M273.18649,107.29146c0.49404,5.4374 -9.04985,9.35238 -12.36901,12.2808c-4.4308,3.9092 -6.49945,9.71148 -7.44515,15.13172c-1.99447,11.43132 -0.21719,26.15006 0.36609,36.41846c0.07654,1.34752 0.67823,3.53487 0.75654,5.21149c0.08381,1.79473 0.26088,16.82152 -4.01208,18.66838c-4.48758,1.93963 -6.55,1.28408 -8.66223,-2.75329c-1.24487,-2.37948 2.42088,-6.25473 2.42489,-8.66687c0.00366,-2.20311 -0.06889,-4.40813 -0.2563,-6.60337c-0.14244,-1.66838 -0.52555,-3.31298 -0.68271,-4.98019c-1.86818,-19.8188 -5.83202,-47.20145 13.463,-61.78802c0.03934,-0.02974 0.05429,-0.08081 0.09423,-0.10988c2.2083,-1.60756 4.5876,-3.15863 6.64754,-4.91824c0.1331,-0.18332 0.27978,-0.35806 0.43881,-0.52301c0.92318,-0.95758 2.26222,-1.58514 3.77222,-1.64376c2.58195,-0.10022 4.79442,1.49674 5.32447,3.69494c0.07298,0.18139 0.12093,0.37437 0.13968,0.58082z" fill="#9efd71" stroke="none" stroke-linecap="butt"/><path d="M287.56355,117.29778c-4.04285,4.47951 -8.27035,9.77675 -9.68914,15.55891c-4.18965,17.07451 3.6651,33.02846 2.3443,49.91438c-0.08994,1.14972 -0.30143,2.38619 -0.49811,3.52348c-0.61246,3.54162 -3.89306,18.45054 -12.03662,11.65283c-1.2926,-1.07898 -1.51133,-2.96625 -1.57322,-4.5607c-0.0229,-0.59018 1.68046,-2.46739 2.05064,-3.39489c1.23705,-3.09948 1.73229,-6.95948 1.709,-10.21712c-0.14463,-20.22881 -9.94062,-40.51449 2.70828,-59.54336c2.52428,-3.7975 5.02395,-7.00657 8.1878,-10.38686c0.67297,-0.719 2.41406,-2.79897 3.53733,-2.5682c0.41737,-0.11448 0.85695,-0.18386 1.31209,-0.20152c2.90361,-0.1127 5.33994,1.92097 5.44168,4.54236c1.22799,1.3243 -2.68892,4.78861 -3.49403,5.68068z" fill="#67dc31" stroke="none" stroke-linecap="butt"/><path d="M247.4698,149.62845c1.01357,-5.51127 2.37499,-10.99542 4.27633,-16.3179c1.23784,-3.4651 2.80967,-6.13024 3.61818,-9.69461c2.15226,-9.48829 3.79729,-17.1033 10.41198,-24.98113c2.22751,-2.65287 4.86533,-7.27242 9.75934,-4.22864c4.34239,2.70071 1.77846,6.15218 -0.27326,8.66712c-7.62196,9.34285 -6.66003,12.34797 -9.67146,22.72259c-1.6894,5.82007 -4.67245,11.25115 -6.20231,17.10707c-1.23748,4.73674 -1.91708,11.23679 -2.58258,16.06154c-0.47329,3.43128 -1.20369,8.36613 -5.29121,9.4569c-0.36589,0.09763 -0.86091,0.22331 -1.39232,0.31569c-1.17012,0.20344 -2.51662,0.24557 -3.04923,-0.52779c-1.58163,-0.7655 -2.68029,-2.24799 -2.7479,-3.99004c-0.0448,-1.15424 0.37049,-2.22996 1.09726,-3.08216c1.08756,-3.7334 1.23815,-7.10963 2.04717,-11.50864z" fill="#67dc31" stroke="none" stroke-linecap="butt"/><path d="M274.74512,89.40542c10.90417,-6.47645 23.81525,-6.95201 36.07858,-4.08099c4.36489,1.02187 16.2579,3.79172 14.2476,9.96322c-1.21039,3.71586 -3.72955,3.49736 -6.5337,3.26005c-1.82118,-0.15412 -3.87595,-2.02542 -5.2275,-2.59272c-5.78423,-2.42787 -13.11301,-3.21392 -19.34983,-2.96446c-5.51725,0.22066 -11.03128,3.07443 -15.6307,5.52111c-1.30268,0.69297 -3.96562,4.12356 -5.94202,3.32227c-2.24008,0.08695 -4.20205,-1.1036 -5.02848,-2.85594c-0.35514,-0.46667 -0.52501,-0.98468 -0.40657,-1.56148c-0.0028,-0.04149 -0.00503,-0.08313 -0.00666,-0.12493c-0.05952,-1.53336 0.69295,-2.92815 1.90897,-3.84439c1.41717,-1.57134 3.43736,-2.58484 5.89026,-4.04171z" fill="#67dc31" stroke="none" stroke-linecap="butt"/><path d="M306.60758,89.82037c5.04818,0.0876 15.80636,2.23558 15.55298,8.34577c-0.06616,1.59523 -1.34936,3.1526 -2.78452,4.09408c-3.04066,1.99468 -7.09559,-2.072 -9.96051,-2.61908c-4.68132,-0.8939 -9.42904,-0.20152 -14.22792,0.05679c-3.29331,0.17726 -8.42418,1.3481 -11.79403,3.19146c0.00592,0.02252 0.01168,0.04507 0.01727,0.06765c0.08088,0.3041 0.12942,0.62019 0.14204,0.94533c0.00629,0.16188 0.00351,0.3222 -0.00788,0.48059c-0.04508,0.79185 -0.29054,1.56037 -0.73806,2.20571c-4.84712,6.98967 -15.20109,14.72398 -15.05168,23.95464c0.20171,12.46086 6.97709,22.99704 7.11465,35.2424c0.10188,9.06817 -4.92057,18.59191 -7.8324,27.14758c-0.78422,2.30424 -1.45681,4.63754 -2.17722,6.95829c-0.49275,1.58737 -0.98784,3.17424 -1.46225,4.76604c-1.16016,3.89254 -3.43859,18.43722 -10.76663,16.53858c-3.86226,-1.00067 -4.27533,-4.03355 -3.31052,-6.63492c2.93625,-7.91684 5.06883,-16.20434 7.63137,-24.26571c2.46978,-7.76953 7.00474,-16.26528 7.38968,-24.43904c0.28968,-6.15114 -2.91153,-11.94819 -4.64095,-17.6908c-1.68758,-5.6037 -1.7893,-11.51364 -2.51485,-17.29035c-0.98245,-7.82199 7.47864,-18.64981 13.44046,-25.82574c-0.12693,-0.31718 -0.16596,-0.65562 -0.09171,-1.01717c-0.0028,-0.04149 -0.00503,-0.08313 -0.00666,-0.12493c-0.04777,-1.23062 0.42747,-2.37198 1.24559,-3.24834c5.59753,-10.07353 24.49702,-11.01821 34.83377,-10.83884z" fill="#4cc513" stroke="none" stroke-linecap="butt"/><path d="M259.23543,127.11302c1.59991,1.07563 4.23065,1.54485 5.11278,3.04614c0.10131,0.1724 0.17957,0.35843 0.23053,0.56053c0.4418,1.75179 -0.55186,3.97311 -0.82339,5.74648c-0.72173,4.71381 -0.7149,10.10602 -0.53303,14.78388c0.23472,6.03674 2.03263,15.3636 1.24341,21.84676c-0.90029,7.39551 -4.71394,15.35168 -4.50485,22.68287c0.17921,6.28314 0.68217,12.55668 0.73138,18.84269c0.01959,2.50248 -1.65998,4.81801 -5.07322,4.95049c-3.4105,0.13238 -5.26866,-2.04582 -5.44169,-4.54236c-0.44372,-6.40186 -0.53258,-12.8224 -0.74664,-19.23551c-0.26827,-8.03775 4.6621,-15.92809 4.6097,-24.03163c-0.04366,-6.75398 -1.27583,-13.46281 -1.33871,-20.27245c-0.057,-6.17317 -0.13605,-12.31726 1.05968,-18.39216c0.22816,-1.15909 0.69411,-4.3813 2.06621,-4.68443z" fill="#7ade4c" stroke="none" stroke-linecap="butt"/><path d="M291.10606,112.86615c0.58243,-2.04527 2.12477,-3.65404 4.17323,-4.84577c4.85175,-2.82259 12.54268,-3.30566 17.04327,-1.70771c2.30839,0.81959 5.33844,0.93243 6.6286,3.3157c1.49445,2.76064 -0.32583,7.22282 -3.82623,7.58905c-3.02773,0.31678 -4.01412,-2.1174 -6.47111,-2.03014c-1.65235,0.05868 -3.30442,0.12618 -4.9565,0.19239c-1.70769,0.06843 -6.26175,2.71937 -7.51137,2.03183z" fill="#9efd71" stroke="none" stroke-linecap="butt"/><path d="M311.86959,98.04966c4.16404,0.66856 12.14054,3.76229 9.49334,9.01285c-0.73448,1.45677 -2.64959,2.25521 -4.30551,2.82445c-3.12694,1.07494 -4.05915,-2.34499 -6.15495,-2.2926c-3.19576,0.07989 -7.27675,0.28348 -10.60304,0.82071c-3.05016,0.49263 -6.42824,2.61496 -8.92386,4.05184c-0.15396,0.08864 -0.30942,0.22045 -0.46827,0.38173c-0.35095,0.76432 -0.91579,1.43195 -1.62905,1.93903c-0.81434,0.87417 -1.78566,1.53081 -3.04627,1.01973c-2.24008,0.08695 -4.20205,-1.1036 -5.02848,-2.85594c-0.35514,-0.46667 -0.52501,-0.98468 -0.40657,-1.56148c-0.0028,-0.04149 -0.00503,-0.08313 -0.00666,-0.12493c-0.06108,-1.5734 0.7328,-3.0009 2.00518,-3.91519c5.67311,-6.96517 20.88079,-10.6157 29.07411,-9.30021z" fill="#67dc31" stroke="none" stroke-linecap="butt"/></g><g stroke-width="0.5"><path d="M364.93881,175.72232l2.36086,6.85761l-7.70299,-2.10651z" fill="#000000" stroke="#000000" stroke-linecap="round"/><path d="M336.50226,121.80572c-1.24816,-0.87891 -2.03806,-2.3165 -2.00725,-3.97031c0.03474,-1.86521 1.10463,-3.53604 2.67069,-4.48021c1.33829,-2.24506 7.41071,-0.48853 9.21811,0.23167c6.60138,2.63054 12.9537,10.70393 15.52994,17.08054c8.07981,19.99892 -7.29609,42.66225 -3.18734,63.01833c2.29476,11.36892 10.95153,20.63685 13.58408,31.99664c0.86031,3.71236 0.97033,10.92299 -5.19195,11.16219c-1.76612,0.06855 -3.3266,-1.20374 -4.55295,-2.36243c-0.9665,-0.91316 -0.50939,-5.21488 -0.54551,-5.97034c-0.16931,-3.54148 -2.50601,-7.25293 -3.96942,-10.30987c-3.26374,-6.81762 -8.88154,-14.90623 -9.77331,-22.66361c-2.31207,-20.11218 7.23184,-40.11185 3.98292,-60.11516c-0.61292,-3.77368 -6.74423,-10.36432 -9.42683,-12.02917c-1.02916,-0.63869 -2.11022,-0.63638 -3.20015,-0.67981c-0.48071,0.01653 -0.94501,-0.02989 -1.38484,-0.13165c-0.40453,-0.07611 -0.80777,-0.19855 -1.20753,-0.40246c-0.20163,-0.10285 -0.37962,-0.22919 -0.53866,-0.37437z" fill="#9efd71" stroke="none" stroke-linecap="butt"/><path d="M361.83313,109.44939c0.48823,-2.38928 2.66899,-4.27172 5.25094,-4.37194c1.51001,-0.05861 2.85988,0.50389 3.80044,1.4521c0.16202,0.16334 0.31189,0.33812 0.44834,0.52313c2.09159,1.7132 4.49838,3.17816 6.73537,4.71712c0.04046,0.02783 0.05636,0.08116 0.09624,0.10975c19.55582,14.02381 16.11092,43.57508 14.61761,64.88313c-0.12562,1.79249 -0.47746,3.57896 -0.58836,5.37153c-0.14591,2.35863 -0.17686,4.71849 -0.13168,7.07018c0.04947,2.57482 3.78559,6.41776 2.58645,9.05796c-2.03459,4.47972 -4.08316,5.34507 -8.604,3.63452c-4.30466,-1.62874 -4.41089,-17.68526 -4.36096,-19.60799c0.04665,-1.79621 0.60667,-4.17964 0.65777,-5.62438c0.38933,-11.00915 1.88793,-26.8652 -0.32051,-38.90896c-1.04715,-5.71063 -3.22363,-11.739 -7.72486,-15.5568c-3.37193,-2.85995 -12.98261,-6.27357 -12.59141,-12.11805c0.01486,-0.22191 0.05913,-0.43177 0.12863,-0.63129z" fill="#9efd71" stroke="none" stroke-linecap="butt"/><path d="M343.92799,116.13286c0.05227,-2.8067 2.44849,-5.17334 5.3521,-5.28604c0.45513,-0.01766 0.89572,0.0211 1.31493,0.10984c1.11811,-0.33649 2.89711,1.7443 3.58314,2.45789c3.22523,3.3548 5.78356,6.58014 8.37756,10.43168c12.99825,19.2997 3.59174,41.74244 3.82845,63.34988c0.03811,3.47964 0.60576,7.56074 1.90031,10.77042c0.38738,0.96046 2.12489,2.82784 2.11312,3.45973c-0.0318,1.70718 -0.21481,3.73954 -1.48613,4.99518c-8.00951,7.91065 -11.56867,-7.74253 -12.24744,-11.47433c-0.21796,-1.19836 -0.45261,-2.50142 -0.56415,-3.72161c-1.63808,-17.92107 5.91027,-35.58356 1.4019,-53.47571c-1.52673,-6.05905 -5.85097,-11.37502 -9.97528,-15.83278c-0.82132,-0.88773 -4.80066,-4.27183 -3.59852,-5.78416z" fill="#67dc31" stroke="none" stroke-linecap="butt"/><path d="M390.46281,165.33697c0.74231,0.85145 1.17757,1.96655 1.15456,3.20237c-0.03474,1.86521 -1.10464,3.53606 -2.67069,4.48021c-0.51765,0.86838 -1.86397,0.93146 -3.03705,0.80819c-0.53276,-0.05598 -1.02978,-0.1504 -1.39725,-0.22528c-4.10508,-0.83643 -4.92796,-6.04617 -5.46556,-9.67135c-0.75594,-5.0974 -1.55754,-11.98215 -2.88339,-16.9397c-1.6391,-6.12888 -4.72232,-11.68757 -6.52017,-17.76539c-3.20476,-10.83405 -2.30017,-14.11945 -10.09263,-23.48199c-2.09761,-2.52026 -4.72473,-5.99919 -0.43639,-9.23091c4.83307,-3.64224 7.55602,1.07779 9.83189,3.73118c6.7583,7.87935 8.54566,15.87697 10.87515,25.83373c0.87509,3.74037 2.49601,6.45945 3.79824,10.0594c2.00026,5.52956 3.46403,11.27506 4.58072,17.07744c0.89134,4.63135 1.10542,8.22366 2.26257,12.12209z" fill="#67dc31" stroke="none" stroke-linecap="butt"/><path d="M365.77203,94.95313c1.2324,0.88057 2.0106,2.30923 1.98003,3.95098c-0.00083,0.04474 -0.00227,0.08938 -0.00429,0.1339c0.12924,0.60628 -0.03076,1.17294 -0.37684,1.69964c-0.7928,1.93709 -2.73089,3.36556 -4.97098,3.4525c-1.95985,1.01406 -4.68549,-2.43466 -6.00028,-3.06991c-4.64215,-2.24289 -10.20593,-4.84698 -15.7233,-4.63979c-6.23695,0.23422 -13.54557,1.66154 -19.2798,4.71769c-1.33987,0.7141 -3.35787,2.87674 -5.1748,3.18745c-2.79763,0.47842 -5.31083,0.91384 -6.59035,-2.95599c-2.12513,-6.42723 9.70699,-10.33872 14.04941,-11.77995c12.20026,-4.04921 25.11086,-4.57767 36.1291,1.46135c2.47855,1.35848 4.51637,2.27833 5.96211,3.84212z" fill="#67dc31" stroke="none" stroke-linecap="butt"/><path d="M362.99115,102.88684c0.83404,0.86993 1.33045,2.05029 1.3059,3.3679c-0.00083,0.04474 -0.00227,0.08938 -0.00429,0.1339c0.081,0.38001 0.04839,0.74447 -0.07246,1.09326c6.0927,7.18241 14.75166,18.06294 13.91734,26.49237c-0.61617,6.22532 -0.60642,12.54281 -2.18716,18.66065c-1.61993,6.2695 -4.70955,12.71521 -4.30417,19.25879c0.53869,8.69524 5.23047,17.40118 7.84485,25.49755c2.71259,8.40049 4.9998,17.07692 8.08311,25.29312c1.01313,2.69973 0.6575,5.97072 -3.18307,7.34899c-7.28691,2.61504 -9.83777,-12.72969 -11.07045,-16.79217c-0.50408,-1.6613 -1.0287,-3.31567 -1.55102,-4.97079c-0.76362,-2.41977 -1.47969,-4.85677 -2.30676,-7.25378c-3.07095,-8.90017 -8.26922,-18.66444 -8.3383,-28.3536c-0.0933,-13.08394 6.47854,-24.8759 6.44528,-38.19503c-0.02465,-9.86645 -10.5168,-17.2925 -15.49212,-24.36552c-0.45937,-0.65303 -0.71913,-1.4538 -0.7791,-2.29553c-0.01438,-0.16817 -0.02016,-0.33912 -0.01693,-0.51243c0.00649,-0.34812 0.04902,-0.68949 0.12413,-1.02059c0.00516,-0.02455 0.0105,-0.04909 0.01599,-0.07361c-3.40212,-1.69749 -8.55131,-2.53567 -11.84555,-2.46061c-4.80025,0.10938 -9.55754,-0.24876 -14.2186,1.08123c-2.85252,0.81396 -6.82785,5.4809 -9.90386,3.59544c-1.45187,-0.88992 -2.76348,-2.44956 -2.85965,-4.14729c-0.36836,-6.50278 10.34148,-9.6593 15.38432,-10.15796c10.32582,-1.02106 29.22927,-1.52929 35.01256,8.77577z" fill="#4cc513" stroke="none" stroke-linecap="butt"/><path d="M362.86301,107.86358c1.3768,0.2135 18.15581,27.00328 18.40565,28.22241c1.30934,6.3895 1.34614,12.95513 1.40551,19.55005c0.06549,7.27487 -1.03934,14.53598 -0.95568,21.74989c0.10036,8.65537 5.17582,16.68325 5.05922,25.28571c-0.09304,6.86368 -0.06083,13.72525 -0.38357,20.59536c-0.12587,2.67913 -1.9416,5.15366 -5.3521,5.28604c-3.41325,0.13249 -5.13523,-2.20473 -5.16281,-4.8779c-0.06928,-6.71475 0.31508,-13.45263 0.37573,-20.17475c0.07077,-7.84341 -3.89002,-16.0312 -4.92903,-23.85423c-0.91084,-6.85794 0.71,-16.9594 0.83077,-23.42294c0.09359,-5.00859 -0.0012,-10.76572 -0.81125,-15.74018c-0.30475,-1.87142 -1.33955,-4.16313 -0.93108,-6.06874c0.04713,-0.21986 -16.00157,-20.48112 -15.90359,-20.67331c0.85319,-1.67353 -1.52445,-5.79844 0.8995,-7.50416c2.42395,-1.70571 7.45273,1.62676 7.45273,1.62676z" fill="#7ade4c" stroke="none" stroke-linecap="butt"/><path d="M338.91256,122.73041c-1.23575,0.8343 -5.83645,-1.63031 -7.54418,-1.5663c-1.65212,0.06191 -3.30425,0.12242 -4.9565,0.19239c-2.45682,0.10403 -3.39662,2.78185 -6.42811,2.68666c-3.50476,-0.11005 -5.40779,-4.72772 -3.96646,-7.79482c1.24432,-2.64788 4.27002,-3.01151 6.56128,-4.07176c4.4672,-2.06712 12.1616,-2.16863 17.06299,0.45533c2.06942,1.10786 3.64096,2.70158 4.26149,4.83832z" fill="#9efd71" stroke="none" stroke-linecap="butt"/><path d="M352.10363,110.91419c1.28868,0.87396 2.10888,2.33421 2.0775,4.01884c-0.00083,0.04474 -0.00227,0.08938 -0.00429,0.1339c0.12924,0.60628 -0.03075,1.17294 -0.37683,1.69963c-0.7928,1.93709 -2.73089,3.36556 -4.97098,3.4525c-1.25004,0.64679 -2.23303,0.02372 -3.06325,-0.84416c-0.7223,-0.4841 -1.29931,-1.15153 -1.66441,-1.93933c-0.16177,-0.15943 -0.3196,-0.28767 -0.47512,-0.36995c-2.52085,-1.3337 -5.93646,-3.32834 -8.99368,-3.60949c-3.33399,-0.3066 -7.41583,-0.19643 -10.61075,-0.02525c-2.09524,0.11226 -2.96234,3.83812 -6.10724,2.94149c-1.66543,-0.47483 -3.5942,-1.17351 -4.3556,-2.6698c-2.74423,-5.39292 5.16815,-9.33587 9.31653,-10.38379c8.16255,-2.06194 23.42789,0.61482 29.22812,7.59538z" fill="#67dc31" stroke="none" stroke-linecap="butt"/></g><path d="M322.35109,92.34714c2.40001,-5.58337 -1.67904,-9.06794 2.52688,-15.57288c4.20593,-6.50493 5.42361,-10.74011 12.19562,-15.4541c6.77201,-4.71399 6.71009,-8.40866 19.22155,-6.41538c12.51148,1.9933 24.80975,10.02775 29.14866,14.12156c4.3389,4.09382 0.27881,12.77664 1.81992,15.09761c1.5411,2.32097 1.7987,0.95068 6.20203,-3.01618c4.40334,-3.96686 9.91483,-11.50308 9.91483,-11.50308c0,0 -1.91828,14.39883 -6.31294,18.99234c-4.39467,4.59351 -8.92779,7.82249 -14.74603,3.01946c-5.81824,-4.80304 3.29002,-10.87453 -3.60599,-18.16925c-6.89601,-7.29472 -15.87168,-9.98642 -23.35367,-10.3492c-7.48199,-0.36278 -12.52079,1.97857 -16.76294,8.40411c-4.24216,6.42555 -2.91854,14.37303 -4.21713,20.48072c-1.2986,6.10768 -7.14021,14.29216 -7.14021,14.29216c0,0 -2.6314,2.2122 -5.41894,1.34592c-2.79208,-0.8677 -3.33567,-7.10794 -3.33567,-7.10794c0,0 1.46399,-2.58251 3.86399,-8.16589z" fill="#026b00" stroke="#000000" stroke-width="2" stroke-linecap="round"/><g stroke-linecap="butt"><g stroke="#000000" stroke-width="2"><path d="M261.1797,133.17687c-0.84618,-3.52148 0.87169,-8.81739 4.46268,-9.68025c3.59098,-0.86287 7.69525,3.03405 8.54141,6.55552c0.84618,3.52148 -1.51355,5.77693 -5.10453,6.63979c-3.59098,0.86287 -7.0534,0.00641 -7.89958,-3.51505z" fill="#d995cc"/><path d="M274.38963,128.99379c-3.5316,-0.8029 -7.51683,-4.69078 -6.69808,-8.29207c0.81875,-3.6013 6.13143,-5.55228 9.66303,-4.7494c3.5316,0.8029 4.50697,3.91801 3.68823,7.51929c-0.81875,3.6013 -3.12157,6.32505 -6.65318,5.52217z" fill="#d995cc"/><path d="M272.97826,113.90223c-1.12528,3.44247 -5.36421,7.05205 -8.87462,5.90456c-3.51041,-1.14749 -4.96297,-6.6175 -3.8377,-10.05996c1.12528,-3.44247 4.31708,-4.12631 7.82749,-2.97883c3.51041,1.14749 6.01011,3.69176 4.88482,7.13423z" fill="#d995cc"/><path d="M259.5359,110.54024c2.58669,2.53493 3.94262,7.93485 1.35765,10.57257c-2.58498,2.63773 -8.13197,1.51442 -10.71864,-1.02051c-2.58669,-2.53493 -1.78446,-5.69907 0.80053,-8.33679c2.58498,-2.63773 5.9738,-3.75022 8.56049,-1.21528z" fill="#d995cc"/><path d="M251.26949,122.75547c2.95584,-2.0928 8.51105,-2.46336 10.64516,0.55082c2.1341,3.01418 0.03897,8.27169 -2.91687,10.36449c-2.95584,2.09281 -5.92603,0.73882 -8.06014,-2.27535c-2.1341,-3.01418 -2.624,-6.54715 0.33184,-8.63996z" fill="#d995cc"/><path d="M256.18636,122.97623c-0.14911,-3.84133 2.84403,-7.07621 6.68536,-7.22531c3.84133,-0.14911 7.0762,2.84403 7.2253,6.68536c0.14911,3.84133 -2.84403,7.07621 -6.68535,7.22531c-3.84133,0.14911 -7.07621,-2.84403 -7.22531,-6.68536z" fill="#d8a51e"/></g><g stroke="none" stroke-width="0"><path d="M261.1797,133.17687c-0.84618,-3.52148 0.87169,-8.81739 4.46268,-9.68025c3.59098,-0.86287 7.69525,3.03406 8.54141,6.55552c0.84618,3.52148 -1.51355,5.77693 -5.10453,6.63979c-3.59098,0.86287 -7.0534,0.00641 -7.89958,-3.51505z" fill="#d995cc"/><path d="M274.38963,128.99379c-3.5316,-0.8029 -7.51683,-4.69077 -6.69808,-8.29207c0.81875,-3.6013 6.13143,-5.55228 9.66303,-4.7494c3.5316,0.8029 4.50697,3.91801 3.68823,7.5193c-0.81875,3.6013 -3.12157,6.32505 -6.65317,5.52216z" fill="#d995cc"/><path d="M272.97826,113.90224c-1.12528,3.44247 -5.36422,7.05205 -8.87463,5.90456c-3.51041,-1.14749 -4.96297,-6.6175 -3.8377,-10.05995c1.12528,-3.44247 4.31707,-4.12631 7.82748,-2.97883c3.51041,1.14749 6.01012,3.69177 4.88484,7.13424z" fill="#d995cc"/><path d="M259.5359,110.54024c2.58668,2.53494 3.9426,7.93487 1.35764,10.57258c-2.58497,2.63773 -8.13197,1.51442 -10.71863,-1.02051c-2.58668,-2.53494 -1.78446,-5.69907 0.80052,-8.33679c2.58497,-2.63773 5.97381,-3.75023 8.5605,-1.21529z" fill="#d995cc"/><path d="M251.26949,122.75547c2.95584,-2.0928 8.51105,-2.46335 10.64516,0.55082c2.13411,3.01418 0.03897,8.27169 -2.91687,10.36449c-2.95584,2.09281 -5.92603,0.73882 -8.06014,-2.27535c-2.13411,-3.01418 -2.624,-6.54715 0.33184,-8.63996z" fill="#d995cc"/><path d="M256.18636,122.97623c-0.14911,-3.84133 2.84403,-7.07621 6.68535,-7.22531c3.84133,-0.14911 7.0762,2.84403 7.2253,6.68536c0.14911,3.84133 -2.84403,7.07621 -6.68535,7.22531c-3.84133,0.14911 -7.0762,-2.84403 -7.2253,-6.68536z" fill="#d8a51e"/></g></g><g stroke-linecap="butt"><g stroke="#000000" stroke-width="2"><path d="M382.36594,180.47453c-1.82935,-1.93552 -2.67369,-5.94163 -0.69996,-7.80709c1.97373,-1.86546 6.01811,-0.88387 7.84747,1.05165c1.82935,1.93552 1.1508,4.23799 -0.82294,6.10346c-1.97373,1.86546 -4.49521,2.58752 -6.32457,0.65198z" fill="#d995cc"/><path d="M389.25706,172.96886c-2.54599,0.78154 -6.51115,-0.23787 -7.30811,-2.8341c-0.79696,-2.59623 1.87606,-5.78613 4.42203,-6.56768c2.54599,-0.78154 4.3089,0.84755 5.10586,3.44376c0.79696,2.59623 0.3262,5.17647 -2.21979,5.95802z" fill="#d995cc"/><path d="M382.82957,163.86274c0.54333,2.60722 -0.83752,6.46144 -3.49622,7.0155c-2.65869,0.55406 -5.58838,-2.40184 -6.13172,-5.00906c-0.54333,-2.60722 1.24144,-4.21233 3.90011,-4.76639c2.65869,-0.55406 5.18448,0.15273 5.72782,2.75996z" fill="#d995cc"/><path d="M373.02673,166.64246c2.57784,0.66897 5.42025,3.61556 4.73808,6.2443c-0.68217,2.62873 -4.63063,3.94413 -7.20847,3.27517c-2.57784,-0.66897 -3.22522,-2.98039 -2.54305,-5.60911c0.68217,-2.62873 2.4356,-4.57932 5.01344,-3.91035z" fill="#d995cc"/><path d="M372.22973,177.45917c1.11825,-2.41709 4.52479,-4.68807 6.98957,-3.54776c2.46481,1.14033 3.0545,5.26013 1.93625,7.67721c-1.11825,2.41709 -3.50809,2.64163 -5.97289,1.5013c-2.46481,-1.14033 -4.07118,-3.21367 -2.95294,-5.63077z" fill="#d995cc"/><path d="M375.4458,175.79905c-1.50203,-2.39478 -0.7783,-5.55379 1.61649,-7.05581c2.39479,-1.50203 5.55378,-0.7783 7.0558,1.6165c1.50203,2.39479 0.7783,5.55379 -1.61649,7.05581c-2.39478,1.50203 -5.55379,0.7783 -7.0558,-1.6165z" fill="#d8a51e"/></g><g stroke="none" stroke-width="0"><path d="M382.36594,180.47453c-1.82935,-1.93552 -2.67369,-5.94163 -0.69996,-7.8071c1.97373,-1.86546 6.01811,-0.88387 7.84747,1.05166c1.82935,1.93552 1.1508,4.23799 -0.82294,6.10346c-1.97373,1.86546 -4.49521,2.58752 -6.32457,0.65198z" fill="#ffc37a"/><path d="M389.25706,172.96886c-2.54599,0.78154 -6.51115,-0.23786 -7.30811,-2.8341c-0.79696,-2.59624 1.87606,-5.78613 4.42203,-6.56768c2.54599,-0.78154 4.3089,0.84755 5.10586,3.44377c0.79696,2.59624 0.3262,5.17646 -2.21978,5.95801z" fill="#ffc37a"/><path d="M382.82957,163.86275c0.54333,2.60722 -0.83753,6.46143 -3.49622,7.0155c-2.65869,0.55406 -5.58838,-2.40184 -6.13172,-5.00906c-0.54333,-2.60722 1.24143,-4.21233 3.9001,-4.76639c2.65869,-0.55406 5.1845,0.15274 5.72783,2.75997z" fill="#ffc37a"/><path d="M373.02672,166.64246c2.57785,0.66898 5.42026,3.61557 4.73808,6.2443c-0.68217,2.62873 -4.63063,3.94414 -7.20847,3.27517c-2.57785,-0.66898 -3.22522,-2.98039 -2.54305,-5.60911c0.68217,-2.62873 2.43559,-4.57933 5.01343,-3.91035z" fill="#ffc37a"/><path d="M372.22973,177.45917c1.11825,-2.41709 4.5248,-4.68806 6.98957,-3.54776c2.4648,1.14032 3.0545,5.26013 1.93625,7.67721c-1.11825,2.41709 -3.5081,2.64162 -5.97289,1.5013c-2.4648,-1.14032 -4.07118,-3.21367 -2.95294,-5.63077z" fill="#ffc37a"/><path d="M375.4458,175.79905c-1.50203,-2.39478 -0.77831,-5.55379 1.61649,-7.05581c2.39479,-1.50203 5.55378,-0.7783 7.0558,1.6165c1.50203,2.39479 0.7783,5.55379 -1.61649,7.05581c-2.39478,1.50203 -5.55378,0.7783 -7.0558,-1.6165z" fill="#d8a51e"/></g></g><g stroke-linecap="butt"><g stroke="#000000" stroke-width="2"><path d="M245.65292,183.28657c-1.80889,-2.33572 -2.15249,-4.92416 0.13805,-6.69805c2.29053,-1.77389 6.802,-2.15133 8.61089,0.18441c1.80889,2.33572 0.23021,6.50016 -2.06031,8.27404c-2.29053,1.77389 -4.87972,0.57535 -6.68861,-1.76038z" fill="#d995cc"/><path d="M244.80453,169.04935c1.29157,-2.65699 3.45934,-4.11262 6.0649,-2.84605c2.60557,1.26657 4.94416,5.14303 3.6526,7.80001c-1.29158,2.65699 -5.72424,3.08837 -8.32981,1.8218c-2.60556,-1.26657 -2.67925,-4.11877 -1.38769,-6.77576z" fill="#d995cc"/><path d="M261.24516,165.10753c2.76481,1.04094 4.41422,3.06519 3.39341,5.77648c-1.02081,2.7113 -4.66497,5.39755 -7.42978,4.35661c-2.76481,-1.04094 -3.60329,-5.41492 -2.58248,-8.12622c1.02081,-2.7113 3.85403,-3.04781 6.61884,-2.00686z" fill="#d995cc"/><path d="M269.43048,176.7874c0.29282,2.93973 -0.79026,5.31564 -3.67309,5.6028c-2.88283,0.28715 -6.90635,-1.78822 -7.19918,-4.72794c-0.29282,-2.93973 3.25596,-5.63061 6.13879,-5.91776c2.88283,-0.28715 4.44066,2.10316 4.73346,5.0429z" fill="#d995cc"/><path d="M259.62416,189.06155c-2.84028,0.81271 -5.37135,0.17101 -6.16833,-2.61432c-0.79699,-2.78532 0.52708,-7.11462 3.36736,-7.92732c2.84028,-0.81271 6.12126,2.19893 6.91825,4.98424c0.79699,2.78532 -1.27699,4.74468 -4.11727,5.5574z" fill="#d995cc"/><path d="M252.70821,181.73634c-2.32235,-2.01565 -2.57097,-5.53227 -0.55533,-7.85462c2.01565,-2.32235 5.53228,-2.57099 7.85461,-0.55536c2.32235,2.01565 2.57098,5.53228 0.55534,7.85462c-2.01565,2.32235 -5.53228,2.57099 -7.85461,0.55536z" fill="#d8a51e"/></g><g stroke="none" stroke-width="0"><path d="M245.65292,183.28657c-1.80889,-2.33572 -2.15249,-4.92416 0.13805,-6.69805c2.29053,-1.77389 6.802,-2.15134 8.61089,0.1844c1.80889,2.33572 0.2302,6.50017 -2.06032,8.27405c-2.29053,1.77389 -4.87972,0.57535 -6.68861,-1.76038z" fill="#807bff"/><path d="M244.80453,169.04935c1.29157,-2.65699 3.45934,-4.11262 6.06491,-2.84605c2.60557,1.26657 4.94416,5.14302 3.6526,7.80001c-1.29158,2.65699 -5.72424,3.08837 -8.32981,1.8218c-2.60556,-1.26657 -2.67926,-4.11877 -1.3877,-6.77575z" fill="#807bff"/><path d="M261.24516,165.10753c2.76481,1.04094 4.41422,3.06519 3.39341,5.77648c-1.02081,2.7113 -4.66497,5.39755 -7.42978,4.35661c-2.76481,-1.04094 -3.60329,-5.41492 -2.58248,-8.12622c1.02081,-2.7113 3.85404,-3.04782 6.61884,-2.00687z" fill="#807bff"/><path d="M269.43048,176.7874c0.29281,2.93973 -0.79026,5.31564 -3.67309,5.6028c-2.88283,0.28715 -6.90636,-1.78821 -7.19918,-4.72793c-0.29281,-2.93973 3.25595,-5.63062 6.13879,-5.91777c2.88283,-0.28715 4.44066,2.10317 4.73346,5.0429z" fill="#807bff"/><path d="M259.62416,189.06155c-2.84028,0.81271 -5.37135,0.17101 -6.16833,-2.61432c-0.79699,-2.78532 0.52708,-7.11462 3.36736,-7.92732c2.84028,-0.81271 6.12126,2.19893 6.91825,4.98424c0.79699,2.78532 -1.27699,4.74468 -4.11727,5.5574z" fill="#807bff"/><path d="M252.70821,181.73634c-2.32235,-2.01565 -2.57097,-5.53227 -0.55533,-7.85462c2.01565,-2.32235 5.53228,-2.57099 7.85461,-0.55536c2.32235,2.01565 2.57097,5.53227 0.55533,7.85462c-2.01565,2.32235 -5.53228,2.57099 -7.85461,0.55536z" fill="#d8a51e"/></g></g></g></g></svg>