<svg version="1.1" xmlns="http://www.w3.org/2000/svg" xmlns:xlink="http://www.w3.org/1999/xlink" width="272.41083" height="267.72501" viewBox="0,0,272.41083,267.72501"><g transform="translate(-190.1791,-31.19978)"><g stroke-miterlimit="10"><path d="M190.1791,298.92479v-267.72501h254.18333v267.72501z" fill="none" stroke="none" stroke-width="0" stroke-linecap="butt"/><path d="" fill="none" stroke="#000000" stroke-width="2" stroke-linecap="round"/><g><g stroke="#000000"><path d="M301.9971,201.56301l47.8741,17.2309l-40.85119,36.51768z" fill="#ff6300" stroke-width="5" stroke-linecap="round"/><path d="M276.24165,153.33739l22.41756,45.67588l-54.75083,-2.16964z" fill="#ff6300" stroke-width="5" stroke-linecap="round"/><path d="M288.83336,102.64678l-15.57142,48.43928l-37.9033,-39.56892z" fill="#ff6300" stroke-width="5" stroke-linecap="round"/><path d="M337.47419,79.34471l-46.35831,20.96996l3.8905,-54.65551z" fill="#ff6300" stroke-width="5" stroke-linecap="round"/><path d="M393.75389,94.63081l-47.60828,-17.95227l41.39828,-35.89628z" fill="#ff6300" stroke-width="5" stroke-linecap="round"/><path d="M421.68984,147.08723l-20.96995,-46.35831l54.65551,3.8905z" fill="#ff6300" stroke-width="5" stroke-linecap="round"/><path d="M403.74948,196.17687l17.95228,-47.60827l35.89629,41.39829z" fill="#ff6300" stroke-width="5" stroke-linecap="round"/><path d="M354.56622,218.6157l46.35831,-20.96996l-3.8905,54.65551z" fill="#ff6300" stroke-width="5" stroke-linecap="round"/><path d="M277.03865,121.71969c13.35989,-36.73276 55.91309,-54.97278 95.04523,-40.74024c39.13216,14.23255 60.02469,55.54811 46.66481,92.28086c-13.35989,36.73276 -55.91309,54.9728 -95.04523,40.74025c-39.13214,-14.23256 -60.02468,-55.54812 -46.6648,-92.28087z" fill="#ffe63c" stroke-width="5" stroke-linecap="butt"/><path d="M301.99711,201.56301l47.87409,17.2309l-40.85118,36.5177z" fill="#ff6300" stroke-width="0" stroke-linecap="round"/><path d="M276.24166,153.3374l22.41756,45.67588l-54.75083,-2.16964z" fill="#ff6300" stroke-width="0" stroke-linecap="round"/><path d="M288.83337,102.64677l-15.57143,48.43928l-37.9033,-39.56892z" fill="#ff6300" stroke-width="0" stroke-linecap="round"/><path d="M337.47419,79.34471l-46.35831,20.96996l3.8905,-54.65551z" fill="#ff6300" stroke-width="0" stroke-linecap="round"/><path d="M393.75389,94.63081l-47.60827,-17.95228l41.39828,-35.89628z" fill="#ff6300" stroke-width="0" stroke-linecap="round"/><path d="M421.68984,147.08723l-20.96996,-46.35831l54.65551,3.8905z" fill="#ff6300" stroke-width="0" stroke-linecap="round"/><path d="M403.74947,196.17686l17.95228,-47.60827l35.89629,41.39829z" fill="#ff6300" stroke-width="0" stroke-linecap="round"/><path d="M354.56622,218.61569l46.35831,-20.96996l-3.8905,54.65551z" fill="#ff6300" stroke-width="0" stroke-linecap="round"/><path d="M277.03865,121.71969c13.35989,-36.73276 55.91309,-54.97278 95.04523,-40.74024c39.13216,14.23255 60.02469,55.54811 46.66481,92.28086c-13.35989,36.73276 -55.91309,54.9728 -95.04523,40.74025c-39.13214,-14.23256 -60.02468,-55.54812 -46.6648,-92.28087z" fill="#ffe63c" stroke-width="0" stroke-linecap="butt"/></g><path d="M314.54665,123.75595c2.09031,-5.74726 8.4439,-8.7118 14.19117,-6.62149c5.74726,2.09031 8.7118,8.4439 6.62149,14.19117c-2.09031,5.74726 -7.6766,4.85093 -13.42386,2.76063c-5.74726,-2.09031 -9.47911,-4.58304 -7.38881,-10.3303z" fill="#000000" stroke="none" stroke-width="NaN" stroke-linecap="butt"/><path d="M375.78218,154.30748c-5.74726,-2.09031 -10.39954,-5.55473 -8.30924,-11.30198c2.09031,-5.74726 8.4439,-8.7118 14.19117,-6.62149c5.74726,2.09031 8.7118,8.4439 6.62149,14.19117c-2.09031,5.74726 -6.75618,5.82261 -12.50344,3.73231z" fill="#000000" stroke="none" stroke-width="NaN" stroke-linecap="butt"/><path d="M350.49406,206.16643c0,0 -12.1352,6.89157 -23.31903,2.82395c-11.18385,-4.06762 -17.18126,-17.55412 -17.18126,-17.55412c0,0 8.46402,6.7046 19.64787,10.77224c11.18385,4.06762 20.85243,3.95794 20.85243,3.95794z" fill="#000000" stroke="#000000" stroke-width="1.5" stroke-linecap="butt"/></g></g></g></svg>