<svg version="1.1" xmlns="http://www.w3.org/2000/svg" xmlns:xlink="http://www.w3.org/1999/xlink" width="213.18203" height="302.29588" viewBox="0,0,213.18203,302.29588"><defs><linearGradient x1="320.08742" y1="187.07227" x2="320.08742" y2="244.23177" gradientUnits="userSpaceOnUse" id="color-1"><stop offset="0" stop-color="#7c0000"/><stop offset="1" stop-color="#7c0000" stop-opacity="0"/></linearGradient></defs><g transform="translate(-214.52362,-17.77639)"><g stroke-miterlimit="10"><g><path d="M324.13648,114.27504c0,0 23.50532,-111.59181 64.95617,-93.51846c41.45085,18.07336 -16.35421,114.70984 -16.35421,114.70984" fill="#ff7be1" stroke="#000000" stroke-width="2" stroke-linecap="round"/><path d="M385.27352,31.7118c13.69813,5.19467 8.56929,31.32055 0.56504,52.3667c-8.00426,21.04615 -17.493,42.45861 -35.53987,34.2135c-13.01919,-5.9481 -8.5693,-26.94407 -0.56504,-47.99022c8.00426,-21.04615 20.88326,-44.14813 35.53987,-38.58998z" fill="#ffffff" stroke="none" stroke-width="0" stroke-linecap="butt"/></g><g><path d="M266.29975,135.46642c0,0 -57.80506,-96.63648 -16.35421,-114.70983c41.45085,-18.07335 64.95617,93.51846 64.95617,93.51846" fill="#ff7be1" stroke="#000000" stroke-width="2" stroke-linecap="round"/><path d="M289.30454,70.30177c8.00425,21.04615 12.45415,42.04211 -0.56504,47.99022c-18.04687,8.24511 -27.53562,-13.16735 -35.53987,-34.2135c-8.00425,-21.04615 -13.13309,-47.17203 0.56504,-52.3667c14.65662,-5.55815 27.53562,17.54383 35.53987,38.58998z" fill="#ffffff" stroke="none" stroke-width="0" stroke-linecap="butt"/></g><g stroke="#000000" stroke-linecap="butt"><path d="M286.35186,319.07226l15.14285,-131.8421l37.78325,-0.15789l13.57389,132z" fill="#ff7be1" stroke-width="0"/><path d="M295.01902,243.61117l6.47569,-56.38101l37.78325,-0.15789l5.87786,57.15951z" fill="url(#color-1)" stroke-width="0"/><path d="M286.35186,319.07226l15.14285,-131.8421l37.78325,-0.15789l13.57389,132z" fill="none" stroke-width="2"/></g><path d="M214.52362,306.61252v-267.72501c0,0 32.72627,0 56.15261,0c39.17509,0 157.02942,0 157.02942,0v267.72501z" fill="none" stroke="none" stroke-width="0" stroke-linecap="butt"/><path d="M255.36488,156.952c0,-33.30185 28.7599,-60.29833 64.23702,-60.29833c35.47713,0 64.23702,26.99648 64.23702,60.29833c0,33.30185 -28.75989,60.29834 -64.23702,60.29834c-35.47712,0 -64.23702,-26.99649 -64.23702,-60.29834z" fill="#ff7be1" stroke="#000000" stroke-width="2" stroke-linecap="butt"/><path d="M269.94117,162.13647l-5.99095,-10.29695l8.61199,2.05939z" fill="#000000" stroke="#000000" stroke-width="2" stroke-linecap="round"/><path d="M268.99199,157.22762c0,-12.96801 10.51265,-23.48065 23.48066,-23.48065c12.96801,0 23.48065,10.51264 23.48065,23.48065c0,12.96801 -10.51264,23.48066 -23.48065,23.48066c-12.96801,0 -23.48066,-10.51265 -23.48066,-23.48066z" fill="#ffffff" stroke="#000000" stroke-width="2" stroke-linecap="butt"/><path d="M276.90144,158.01806c0,-8.29964 6.72818,-15.02784 15.02783,-15.02784c8.29964,0 15.02784,6.72819 15.02784,15.02785c0,8.29964 -6.72819,15.02785 -15.02784,15.02785c-8.29964,0 -15.02783,-6.72819 -15.02783,-15.02785z" fill="#000000" stroke="#000000" stroke-width="5" stroke-linecap="butt"/><path d="M366.64159,153.89891l8.61199,-2.05939l-5.99095,10.29695z" fill="#000000" stroke="#000000" stroke-width="2" stroke-linecap="round"/><path d="" fill="none" stroke="#000000" stroke-width="2" stroke-linecap="round"/><path d="M346.73111,180.7083c-12.96801,0 -23.48065,-10.51265 -23.48065,-23.48066c0,-12.96801 10.51264,-23.48065 23.48065,-23.48065c12.96801,0 23.48066,10.51264 23.48066,23.48065c0,12.96801 -10.51265,23.48066 -23.48066,23.48066z" fill="#ffffff" stroke="#000000" stroke-width="2" stroke-linecap="butt"/><path d="M362.05645,157.80485c0,8.29966 -6.72818,15.02785 -15.02783,15.02785c-8.29964,0 -15.02784,-6.72821 -15.02784,-15.02785c0,-8.29966 6.7282,-15.02785 15.02784,-15.02785c8.29964,0 15.02783,6.7282 15.02783,15.02784z" fill="#000000" stroke="#000000" stroke-width="5" stroke-linecap="butt"/><path d="M281.11375,125.63643c0,0 7.6761,-3.57887 12.90237,-3.63287c5.22628,-0.054 11.88349,3.37677 11.88349,3.37677c0,0 -7.83084,-1.81468 -11.86692,-1.77297c-4.21786,0.04358 -12.91895,2.02907 -12.91895,2.02907z" fill="#000000" stroke="none" stroke-width="0" stroke-linecap="butt"/><path d="M345.35362,123.59555c-4.02426,-0.31146 -11.9589,0.9756 -11.9589,0.9756c0,0 6.87169,-2.978 12.08266,-2.57469c5.21097,0.40329 12.63061,4.48738 12.63061,4.48738c0,0 -8.54887,-2.56279 -12.75437,-2.88828z" fill="#000000" stroke="none" stroke-width="0" stroke-linecap="butt"/><path d="M268.99199,157.22762c0,-12.96801 10.51265,-23.48065 23.48066,-23.48065c12.96801,0 23.48065,10.51264 23.48065,23.48065c0,3.14072 -46.96131,3.34238 -46.96131,0z" fill="#ff5c9a" stroke="#000000" stroke-width="2" stroke-linecap="butt"/><path d="M323.25046,157.22764c0,-12.96801 10.51264,-23.48065 23.48065,-23.48065c12.96801,0 23.48066,10.51264 23.48066,23.48065c0,3.22865 -46.96131,3.25476 -46.96131,0z" fill="#ff5c9a" stroke="#000000" stroke-width="2" stroke-linecap="butt"/><g><path d="M308.68036,100.13398c0.74936,7.34025 -9.44762,16.03344 -16.00825,9.79628c-1.45631,-2.11341 0.702,-7.77059 0.702,-7.77059c0,0 -3.50582,-6.44527 -2.33648,-8.90561c4.19592,-5.64839 16.89338,-0.46033 17.64274,6.87992z" fill="#ff2f80" stroke="#000000" stroke-width="2" stroke-linecap="butt"/><path d="M300.44478,96.57551l6.83729,3.46967l-5.1439,6.31359" fill="none" stroke="#e01a40" stroke-width="1.5" stroke-linecap="round"/><path d="M306.64141,100.57367l-3.89555,0.39769" fill="none" stroke="#e01a40" stroke-width="1" stroke-linecap="round"/><path d="M340.17876,88.23726c1.64239,2.17329 -0.4887,9.19403 -0.4887,9.19403c0,0 3.25695,5.10434 2.25774,7.46843c-5.16493,7.43422 -16.90821,0.9809 -17.65757,-6.35935c-0.74937,-7.34025 10.63779,-14.98709 15.88853,-10.30311z" fill="#ff2f80" stroke="#000000" stroke-width="2" stroke-linecap="butt"/><path d="M331.95532,103.31477l-6.31359,-5.1439l5.99511,-4.77973" fill="none" stroke="#e01a40" stroke-width="1.5" stroke-linecap="round"/><path d="M326.37597,98.55898l3.89555,-0.39769" fill="none" stroke="#e01a40" stroke-width="1" stroke-linecap="round"/><path d="M307.51523,91.49872c1.77855,-1.65199 14.80574,-2.22598 17.04527,-0.24474c1.69079,1.49579 2.56286,13.18108 -0.47106,15.19013c-1.56251,1.03469 -12.15959,2.48447 -14.00679,1.64649c-3.13594,-1.42262 -4.72439,-14.5884 -2.56743,-16.59188z" fill="#ff2f80" stroke="#000000" stroke-width="2" stroke-linecap="butt"/></g><path d="M297.58906,198.22019c0,0 13.0504,4.54974 22.74503,4.48915c9.69463,-0.06059 21.54793,-3.29204 21.54793,-3.29204c0,0 -8.29186,15.184 -20.94937,15.26311c-12.65751,0.07911 -23.34359,-16.46022 -23.34359,-16.46022z" fill="#000000" stroke="#000000" stroke-width="2" stroke-linecap="round"/></g></g></svg>