<svg version="1.1" xmlns="http://www.w3.org/2000/svg" xmlns:xlink="http://www.w3.org/1999/xlink" width="213.18203" height="280.18476" viewBox="0,0,213.18203,280.18476"><g transform="translate(-214.52362,-38.88751)"><g stroke-miterlimit="10"><g stroke-linecap="butt"><path d="M286.35186,319.07226l15.14285,-131.8421l37.78325,-0.15789l13.57389,132z" fill="#a93232" stroke="#000000" stroke-width="0"/><path d="M293.00635,261.13452c2.74487,-23.89841 8.48836,-73.90436 8.48836,-73.90436l37.78325,-0.15789c0,0 5.18875,49.85827 7.69612,74.24128c0.01364,0.13261 -53.98445,-0.03335 -53.96772,-0.17903z" fill="#9d2f3a" stroke="#000000" stroke-width="0"/><path d="M294.04743,252.07032c2.50278,-21.79059 7.44728,-64.84016 7.44728,-64.84016l37.78325,-0.15789c0,0 4.4242,43.02332 6.66599,64.82381c0.03141,0.30549 -51.94147,0.56558 -51.89652,0.17424z" fill="#942c3b" stroke="#000000" stroke-width="0"/><path d="M301.49471,187.23016l37.78325,-0.15789l7.53186,58.01527c0,0 -5.52306,-0.76412 -6.92133,-0.90214l0.00749,-0.04127l-0.48712,-0.0884c-0.016,-0.00322 -0.03254,-0.0049 -0.04949,-0.0049c-0.13807,0 -0.25,0.11193 -0.25,0.25c0,0.04409 0.01141,0.08552 0.03145,0.12148l0.23231,0.43736c0.123,0.23124 0.24538,0.5705 0.38232,0.90381c-0.37148,-0.33345 -0.77382,-0.64017 -1.12919,-0.99429c-0.38626,-0.38297 -2.23559,-1.95898 -2.85854,-1.56149c-1.49667,0.95499 1.14954,7.14342 -2.20456,3.67889c-0.34409,-0.39178 -1.32011,-1.90788 -1.8599,-1.93658c-0.71283,-0.03789 -2.08925,3.10834 -2.2473,3.02684c-0.63202,-0.32591 -1.62122,-2.43297 -2.09521,-3.07026c-0.20167,-0.19552 -1.03491,-1.17622 -1.31894,-1.12193c-0.29258,0.05593 -0.71091,1.29206 -0.77558,1.54857c-0.3107,1.23257 -1.43283,4.47865 -1.20436,6.0625c-1.23125,-1.34336 -2.04426,-3.20717 -3.15722,-4.70131l0.02198,-0.01167l-0.20246,-0.38135c-0.0412,-0.08148 -0.1257,-0.13736 -0.22325,-0.13736c-0.1113,0 -0.20561,0.07273 -0.238,0.17325l-0.16255,0.4667c-0.05451,0.15652 -0.10902,0.31304 -0.16353,0.46957c-0.18509,0.49576 -0.61517,2.88396 -1.12868,3.05381c-0.42363,0.14012 -1.28892,-2.21834 -1.58993,-2.3507c-0.84379,-0.37102 -1.31275,1.23764 -1.29003,2.25784c-1.94281,-2.33382 -2.99468,-4.92948 -6.16706,-6.09861c-2.49887,-0.88899 -4.81101,1.71067 -5.3339,3.92684c-0.04559,0.19324 -0.10282,0.46112 -0.14855,0.7564c-0.37996,-1.536 -0.9571,-3.47767 -1.63956,-3.56104c-0.94022,-0.11486 -1.74563,1.9818 -1.75639,3.24301c-1.17689,-1.06694 -2.9206,0.67637 -3.37136,1.68632c-0.05109,-0.36434 -1.54165,-2.501 -1.65072,-2.8319c0.21987,-1.20535 -3.61083,-1.26063 -3.61083,-1.26063z" fill="#a2f30f" stroke="#000000" stroke-width="0"/><path d="M301.49471,187.23016l37.78325,-0.15789c0,0 4.42084,34.05212 5.78825,44.5848c0.01988,0.15319 -50.50566,-0.27517 -50.46947,-0.50562c1.69416,-10.78723 6.89797,-43.9213 6.89797,-43.9213z" fill="#75f20f" stroke="#000000" stroke-width="0"/><path d="M301.49471,187.23016l37.78325,-0.15789c0,0 2.99108,23.83918 4.32515,34.1151c0.01396,0.10756 -47.56257,0.2241 -47.5334,0.03837c1.60192,-10.19991 5.425,-33.99558 5.425,-33.99558z" fill="#33965e" stroke="#000000" stroke-width="0"/><path d="M301.49471,187.23016l37.78325,-0.15789c0,0 2.54744,19.28154 3.76806,28.68356c0.01222,0.09411 -45.95233,-0.50319 -45.94397,-0.55642c1.50063,-9.55496 4.39265,-27.96925 4.39265,-27.96925z" fill="#2d7a1a" stroke="#000000" stroke-width="0"/><path d="M296.95582,214.9c0,-0.9665 0.7835,-1.75 1.75,-1.75c0.9665,0 1.75,0.7835 1.75,1.75c0,0.9665 -0.7835,1.75 -1.75,1.75c-0.9665,0 -1.75,-0.7835 -1.75,-1.75z" fill="#2d7a1a" stroke="none" stroke-width="0.5"/><path d="M304.35582,214.7c0,-0.9665 0.7835,-1.75 1.75,-1.75c0.9665,0 1.75,0.7835 1.75,1.75c0,0.9665 -0.7835,1.75 -1.75,1.75c-0.9665,0 -1.75,-0.7835 -1.75,-1.75z" fill="#2d7a1a" stroke="none" stroke-width="0.5"/><path d="M310.65582,214.9c0,-0.30962 0.11257,-0.59294 0.29901,-0.81128c0.29248,-0.55801 0.87728,-0.93872 1.55099,-0.93872c0.9665,0 1.75,0.7835 1.75,1.75c0,0.9665 -0.7835,1.75 -1.75,1.75c-0.67371,0 -1.25851,-0.3807 -1.55099,-0.93872c-0.18644,-0.21834 -0.29901,-0.50166 -0.29901,-0.81128z" fill="#2d7a1a" stroke="none" stroke-width="0.5"/><path d="M316.90582,216.75c-0.30962,0 -0.59294,-0.11257 -0.81128,-0.29901c-0.55801,-0.29248 -0.93872,-0.87728 -0.93872,-1.55099c0,-0.9665 0.7835,-1.75 1.75,-1.75c0.11289,0 0.22328,0.01069 0.33022,0.03111c0.25622,-0.14704 0.55318,-0.23111 0.86978,-0.23111c0.9665,0 1.75,0.7835 1.75,1.75c0,0.9665 -0.7835,1.75 -1.75,1.75c-0.11289,0 -0.22328,-0.01069 -0.33022,-0.03111c-0.01927,0.01106 -0.03877,0.02176 -0.0585,0.0321c-0.21834,0.18644 -0.50166,0.29901 -0.81128,0.29901z" fill="#2d7a1a" stroke="none" stroke-width="0.5"/><path d="M324.05582,216.9c0,-0.48464 0.27581,-0.90486 0.67902,-1.11227c-0.23728,-0.29867 -0.37902,-0.67665 -0.37902,-1.08773c0,-0.9665 0.7835,-1.75 1.75,-1.75c0.9665,0 1.75,0.7835 1.75,1.75c0,0.84585 -0.6001,1.55153 -1.39777,1.71454c0.06296,0.14926 0.09777,0.31329 0.09777,0.48546c0,0.69036 -0.55964,1.25 -1.25,1.25c-0.69036,0 -1.25,-0.55964 -1.25,-1.25z" fill="#2d7a1a" stroke="none" stroke-width="0.5"/><path d="M330.55582,215.5c0,-0.9665 0.7835,-1.75 1.75,-1.75c0.9665,0 1.75,0.7835 1.75,1.75c0,0.9665 -0.7835,1.75 -1.75,1.75c-0.9665,0 -1.75,-0.7835 -1.75,-1.75z" fill="#2d7a1a" stroke="none" stroke-width="0.5"/><path d="M334.15582,215.5c0,-0.9665 0.7835,-1.75 1.75,-1.75c0.9665,0 1.75,0.7835 1.75,1.75c0,0.9665 -0.7835,1.75 -1.75,1.75c-0.9665,0 -1.75,-0.7835 -1.75,-1.75z" fill="#2d7a1a" stroke="none" stroke-width="0.5"/><path d="M338.15582,215.5c0,-0.9665 0.7835,-1.75 1.75,-1.75c0.9665,0 1.75,0.7835 1.75,1.75c0,0.9665 -0.7835,1.75 -1.75,1.75c-0.9665,0 -1.75,-0.7835 -1.75,-1.75z" fill="#2d7a1a" stroke="none" stroke-width="0.5"/><path d="M296.15582,221.3c0,-0.9665 0.7835,-1.75 1.75,-1.75c0.9665,0 1.75,0.7835 1.75,1.75c0,0.9665 -0.7835,1.75 -1.75,1.75c-0.9665,0 -1.75,-0.7835 -1.75,-1.75z" fill="#33965e" stroke="none" stroke-width="0.5"/><path d="M340.55582,221.1c0,-0.9665 0.7835,-1.75 1.75,-1.75c0.9665,0 1.75,0.7835 1.75,1.75c0,0.9665 -0.7835,1.75 -1.75,1.75c-0.9665,0 -1.75,-0.7835 -1.75,-1.75z" fill="#33965e" stroke="none" stroke-width="0.5"/><path d="M334.85582,220.3c0,-0.69036 0.55964,-1.25 1.25,-1.25c0.05573,0 0.11061,0.00365 0.16441,0.01072c0.31654,-0.3156 0.75328,-0.51072 1.23559,-0.51072c0.03356,0 0.0669,0.00094 0.1,0.00281c0.0331,-0.00186 0.06644,-0.00281 0.1,-0.00281c0.9665,0 1.75,0.7835 1.75,1.75c0,0.9665 -0.7835,1.75 -1.75,1.75c-0.03356,0 -0.0669,-0.00094 -0.1,-0.00281c-0.0331,0.00186 -0.06644,0.00281 -0.1,0.00281c-0.48231,0 -0.91905,-0.19511 -1.23559,-0.51072c-0.0538,0.00707 -0.10868,0.01072 -0.16441,0.01072c-0.69036,0 -1.25,-0.55964 -1.25,-1.25z" fill="#33965e" stroke="none" stroke-width="0.5"/><path d="M330.15582,221.1c0,-0.9665 0.7835,-1.75 1.75,-1.75c0.03356,0 0.0669,0.00094 0.1,0.00281c0.0331,-0.00186 0.06644,-0.00281 0.1,-0.00281c0.9665,0 1.75,0.7835 1.75,1.75c0,0.9665 -0.7835,1.75 -1.75,1.75c-0.03356,0 -0.0669,-0.00094 -0.1,-0.00281c-0.0331,0.00186 -0.06644,0.00281 -0.1,0.00281c-0.9665,0 -1.75,-0.7835 -1.75,-1.75z" fill="#33965e" stroke="none" stroke-width="0.5"/><path d="M321.30582,222.75c-0.40726,0 -0.76903,-0.19476 -0.99725,-0.49623c-0.48298,-0.23274 -1.12626,-0.75728 -0.92452,-1.86682c0.31305,-1.72177 2.03482,-1.40872 2.03482,-1.40872l2.2,0.4c0,0 0.06959,0.01265 0.17824,0.04686c0.16098,-0.04883 0.33178,-0.07509 0.50871,-0.07509c0.9665,0 1.75,0.7835 1.75,1.75c0,0.9665 -0.7835,1.75 -1.75,1.75c-0.16787,0 -0.33022,-0.02364 -0.4839,-0.06776c-0.44113,0.11008 -0.82915,0.03954 -0.82915,0.03954l-1.12553,-0.20464c-0.16881,0.085 -0.35953,0.13287 -0.56142,0.13287z" fill="#33965e" stroke="none" stroke-width="0.5"/><path d="M314.35582,220.9c0,-0.96207 0.77634,-1.74282 1.73674,-1.74995c0.24298,-0.12776 0.51968,-0.20005 0.81326,-0.20005c0.9665,0 1.75,0.7835 1.75,1.75c0,0.96207 -0.77634,1.74282 -1.73674,1.74995c-0.24298,0.12776 -0.51968,0.20005 -0.81326,0.20005c-0.9665,0 -1.75,-0.7835 -1.75,-1.75z" fill="#33965e" stroke="none" stroke-width="0.5"/><path d="M312.55582,220.9c0,1.25 -1.25,1.25 -1.25,1.25h-1.8c0,0 -0.41051,0 -0.76102,-0.23525c-0.24888,0.66323 -0.88881,1.13525 -1.63898,1.13525c-0.54604,0 -1.03367,-0.25009 -1.3546,-0.64197c-0.05477,0.63978 -0.59144,1.14197 -1.2454,1.14197c-0.69036,0 -1.25,-0.55964 -1.25,-1.25c0,-0.06435 0.00486,-0.12756 0.01424,-0.18929c-0.43315,-0.31856 -0.71424,-0.83181 -0.71424,-1.41071c0,-0.9665 0.7835,-1.75 1.75,-1.75c0.7237,0 1.3448,0.43929 1.61118,1.06577c0.31213,-0.28908 0.72984,-0.46577 1.18882,-0.46577c0.5401,0 1.02305,0.24467 1.34406,0.62922c0.35114,-0.52922 1.05594,-0.52922 1.05594,-0.52922h1.8c0,0 1.25,0 1.25,1.25z" fill="#33965e" stroke="none" stroke-width="0.5"/><path d="M294.55582,231.5c0,-0.9665 0.3835,-1.75 1.35,-1.75c0.9665,0 1.75,0.7835 1.75,1.75c0,0.9665 -0.7835,1.75 -1.75,1.75c-0.9665,0 -1.35,-0.7835 -1.35,-1.75z" fill="#75f20f" stroke="none" stroke-width="0.5"/><path d="M306.15582,232.3c0,0.69036 -0.55964,1.25 -1.25,1.25c-0.19142,0 -0.37279,-0.04303 -0.53497,-0.11994c-0.08643,0.01313 -0.17493,0.01994 -0.26503,0.01994c-0.9665,0 -1.75,-0.7835 -1.75,-1.75c0,-0.9665 0.7835,-1.75 1.75,-1.75c0.88869,0 1.62266,0.66243 1.73508,1.52045c0.19593,0.22069 0.31492,0.51123 0.31492,0.82955z" fill="#75f20f" stroke="none" stroke-width="0.5"/><path d="M311.95582,232.1c0,0.69036 -0.55964,1.25 -1.25,1.25c-0.61753,0 -1.13048,-0.4478 -1.23182,-1.0364c-0.43538,-0.31834 -0.71818,-0.83294 -0.71818,-1.4136c0,-0.9665 0.7835,-1.75 1.75,-1.75c0.9665,0 1.75,0.7835 1.75,1.75c0,0.37295 -0.11667,0.71866 -0.3155,1.00261c0.0102,0.0643 0.0155,0.13022 0.0155,0.19739z" fill="#75f20f" stroke="none" stroke-width="0.5"/><path d="M314.95582,230.3c0,-0.9665 0.7835,-1.75 1.75,-1.75c0.9665,0 1.75,0.7835 1.75,1.75c0,0.9665 -0.7835,1.75 -1.75,1.75c-0.9665,0 -1.75,-0.7835 -1.75,-1.75z" fill="#75f20f" stroke="none" stroke-width="0.5"/><path d="M324.35582,230.3c0,-0.9665 0.7835,-1.75 1.75,-1.75c0.9665,0 1.75,0.7835 1.75,1.75c0,0.9665 -0.7835,1.75 -1.75,1.75c-0.9665,0 -1.75,-0.7835 -1.75,-1.75z" fill="#75f20f" stroke="none" stroke-width="0.5"/><path d="M331.55582,230.7c0,-0.9665 0.7835,-1.75 1.75,-1.75c0.9665,0 1.75,0.7835 1.75,1.75c0,0.9665 -0.7835,1.75 -1.75,1.75c-0.9665,0 -1.75,-0.7835 -1.75,-1.75z" fill="#75f20f" stroke="none" stroke-width="0.5"/><path d="M335.45582,231.7c0,-0.69036 0.55964,-1.25 1.25,-1.25c0.05771,0 0.11451,0.00391 0.17014,0.01148c0.25512,-0.65072 0.88868,-1.11148 1.62986,-1.11148c0.51885,0 0.98496,0.2258 1.30543,0.58449c0.29973,-0.24057 0.68034,-0.38449 1.09457,-0.38449c0.9665,0 1.75,0.7835 1.75,1.75c0,0.9665 -0.7835,1.75 -1.75,1.75c-0.51885,0 -0.98496,-0.2258 -1.30543,-0.58449c-0.29973,0.24057 -0.68034,0.38449 -1.09457,0.38449c-0.33782,0 -0.65328,-0.09572 -0.92074,-0.26152c-0.22583,0.2235 -0.53643,0.36152 -0.87926,0.36152c-0.69036,0 -1.25,-0.55964 -1.25,-1.25z" fill="#75f20f" stroke="none" stroke-width="0.5"/><path d="M299.05582,233.1c0,-0.69036 0.55964,-1.25 1.25,-1.25c0.69036,0 1.25,0.55964 1.25,1.25c0,0.68623 -0.55297,1.2433 -1.23763,1.24994c0.26787,0.22926 0.43763,0.56984 0.43763,0.95006c0,0.69036 -0.55964,1.25 -1.25,1.25c-0.69036,0 -1.25,-0.55964 -1.25,-1.25c0,-0.68623 0.55297,-1.2433 1.23763,-1.24994c-0.26787,-0.22926 -0.43763,-0.56984 -0.43763,-0.95006z" fill="#75f20f" stroke="none" stroke-width="0.5"/><path d="M315.25582,233.3c0,-0.69036 0.55964,-1.25 1.25,-1.25c0.69036,0 1.25,0.55964 1.25,1.25c0,0.69036 -0.55964,1.25 -1.25,1.25c-0.69036,0 -1.25,-0.55964 -1.25,-1.25z" fill="#75f20f" stroke="none" stroke-width="0.5"/><path d="M321.10582,236.65c-0.33583,0 -0.62011,-0.22073 -0.71567,-0.52502c-0.32306,-0.22599 -0.53433,-0.60081 -0.53433,-1.02498c0,-0.69036 0.55964,-1.25 1.25,-1.25c0.69036,0 1.25,0.55964 1.25,1.25c0,0.42417 -0.21127,0.79899 -0.53433,1.02498c-0.09556,0.30429 -0.37984,0.52502 -0.71567,0.52502z" fill="#75f20f" stroke="none" stroke-width="0.5"/><path d="M325.05582,235.1c0,-0.69036 0.55964,-1.25 1.25,-1.25c0.69036,0 1.25,0.55964 1.25,1.25c0,0.69036 -0.55964,1.25 -1.25,1.25c-0.69036,0 -1.25,-0.55964 -1.25,-1.25z" fill="#75f20f" stroke="none" stroke-width="0.5"/><path d="M329.45582,232.7c0,-0.69036 0.55964,-1.25 1.25,-1.25c0.69036,0 1.25,0.55964 1.25,1.25c0,0.69036 -0.55964,1.25 -1.25,1.25c-0.69036,0 -1.25,-0.55964 -1.25,-1.25z" fill="#75f20f" stroke="none" stroke-width="0.5"/><path d="M341.45582,234.5c0,-0.69036 0.55964,-1.25 1.25,-1.25c0.69036,0 1.25,0.55964 1.25,1.25c0,0.69036 -0.55964,1.25 -1.25,1.25c-0.69036,0 -1.25,-0.55964 -1.25,-1.25z" fill="#75f20f" stroke="none" stroke-width="0.5"/><path d="M298.25582,224.7c0,-0.69036 0.55964,-1.25 1.25,-1.25c0.69036,0 1.25,0.55964 1.25,1.25c0,0.69036 -0.55964,1.25 -1.25,1.25c-0.69036,0 -1.25,-0.55964 -1.25,-1.25z" fill="#33965e" stroke="none" stroke-width="0.5"/><path d="M325.25582,224.5c0,-0.69036 0.55964,-1.25 1.25,-1.25c0.69036,0 1.25,0.55964 1.25,1.25c0,0.69036 -0.55964,1.25 -1.25,1.25c-0.69036,0 -1.25,-0.55964 -1.25,-1.25z" fill="#33965e" stroke="none" stroke-width="0.5"/><path d="M337.45582,223.9c0,-0.69036 0.55964,-1.25 1.25,-1.25c0.69036,0 1.25,0.55964 1.25,1.25c0,0.69036 -0.55964,1.25 -1.25,1.25c-0.69036,0 -1.25,-0.55964 -1.25,-1.25z" fill="#33965e" stroke="none" stroke-width="0.5"/><path d="M301.45582,218.5c0,-0.69036 0.55964,-1.25 1.25,-1.25c0.69036,0 1.25,0.55964 1.25,1.25c0,0.69036 -0.55964,1.25 -1.25,1.25c-0.69036,0 -1.25,-0.55964 -1.25,-1.25z" fill="#2d7a1a" stroke="none" stroke-width="0.5"/><path d="M329.45582,218.1c0,-0.69036 0.55964,-1.25 1.25,-1.25c0.69036,0 1.25,0.55964 1.25,1.25c0,0.69036 -0.55964,1.25 -1.25,1.25c-0.69036,0 -1.25,-0.55964 -1.25,-1.25z" fill="#2d7a1a" stroke="none" stroke-width="0.5"/><path d="M339.05582,218.5c0,-0.69036 0.55964,-1.25 1.25,-1.25c0.69036,0 1.25,0.55964 1.25,1.25c0,0.69036 -0.55964,1.25 -1.25,1.25c-0.69036,0 -1.25,-0.55964 -1.25,-1.25z" fill="#2d7a1a" stroke="none" stroke-width="0.5"/><path d="M298.55582,219.9c0,-0.41421 0.33579,-0.75 0.75,-0.75c0.41421,0 0.75,0.33579 0.75,0.75c0,0.41421 -0.33579,0.75 -0.75,0.75c-0.41421,0 -0.75,-0.33579 -0.75,-0.75z" fill="#2d7a1a" stroke="none" stroke-width="0.5"/><path d="M311.75582,219.9c0,-0.41421 0.33579,-0.75 0.75,-0.75c0.41421,0 0.75,0.33579 0.75,0.75c0,0.41421 -0.33579,0.75 -0.75,0.75c-0.41421,0 -0.75,-0.33579 -0.75,-0.75z" fill="#2d7a1a" stroke="none" stroke-width="0.5"/><path d="M315.75582,219.5c0,-0.41421 0.33579,-0.75 0.75,-0.75c0.41421,0 0.75,0.33579 0.75,0.75c0,0.41421 -0.33579,0.75 -0.75,0.75c-0.41421,0 -0.75,-0.33579 -0.75,-0.75z" fill="#2d7a1a" stroke="none" stroke-width="0.5"/><path d="M336.55582,219.1c0,-0.41421 0.33579,-0.75 0.75,-0.75c0.41421,0 0.75,0.33579 0.75,0.75c0,0.41421 -0.33579,0.75 -0.75,0.75c-0.41421,0 -0.75,-0.33579 -0.75,-0.75z" fill="#2d7a1a" stroke="none" stroke-width="0.5"/><path d="M301.35582,228.9c0,-0.41421 0.33579,-0.75 0.75,-0.75c0.41421,0 0.75,0.33579 0.75,0.75c0,0.41421 -0.33579,0.75 -0.75,0.75c-0.41421,0 -0.75,-0.33579 -0.75,-0.75z" fill="#33965e" stroke="none" stroke-width="0.5"/><path d="M307.75582,225.9c0,-0.41421 0.33579,-0.75 0.75,-0.75c0.41421,0 0.75,0.33579 0.75,0.75c0,0.41421 -0.33579,0.75 -0.75,0.75c-0.41421,0 -0.75,-0.33579 -0.75,-0.75z" fill="#33965e" stroke="none" stroke-width="0.5"/><path d="M312.55582,225.1c0,-0.41421 0.33579,-0.75 0.75,-0.75c0.41421,0 0.75,0.33579 0.75,0.75c0,0.41421 -0.33579,0.75 -0.75,0.75c-0.41421,0 -0.75,-0.33579 -0.75,-0.75z" fill="#33965e" stroke="none" stroke-width="0.5"/><path d="M322.55582,227.7c0,-0.41421 0.33579,-0.75 0.75,-0.75c0.41421,0 0.75,0.33579 0.75,0.75c0,0.41421 -0.33579,0.75 -0.75,0.75c-0.41421,0 -0.75,-0.33579 -0.75,-0.75z" fill="#33965e" stroke="none" stroke-width="0.5"/><path d="M338.75582,229.7c0,-0.41421 0.33579,-0.75 0.75,-0.75c0.41421,0 0.75,0.33579 0.75,0.75c0,0.41421 -0.33579,0.75 -0.75,0.75c-0.41421,0 -0.75,-0.33579 -0.75,-0.75z" fill="#33965e" stroke="none" stroke-width="0.5"/><path d="M299.55582,239.7c0,-0.41421 0.33579,-0.75 0.75,-0.75c0.41421,0 0.75,0.33579 0.75,0.75c0,0.41421 -0.33579,0.75 -0.75,0.75c-0.41421,0 -0.75,-0.33579 -0.75,-0.75z" fill="#75f20f" stroke="none" stroke-width="0.5"/><path d="M307.15582,237.3c0,-0.41421 0.33579,-0.75 0.75,-0.75c0.41421,0 0.75,0.33579 0.75,0.75c0,0.41421 -0.33579,0.75 -0.75,0.75c-0.41421,0 -0.75,-0.33579 -0.75,-0.75z" fill="#75f20f" stroke="none" stroke-width="0.5"/><path d="M329.55582,238.1c0,-0.41421 0.33579,-0.75 0.75,-0.75c0.41421,0 0.75,0.33579 0.75,0.75c0,0.41421 -0.33579,0.75 -0.75,0.75c-0.41421,0 -0.75,-0.33579 -0.75,-0.75z" fill="#75f20f" stroke="none" stroke-width="0.5"/><path d="M341.15582,238.5c0,-0.41421 0.33579,-0.75 0.75,-0.75c0.41421,0 0.75,0.33579 0.75,0.75c0,0.41421 -0.33579,0.75 -0.75,0.75c-0.41421,0 -0.75,-0.33579 -0.75,-0.75z" fill="#75f20f" stroke="none" stroke-width="0.5"/><path d="M298.34471,254.36667c0,-0.42979 0.21691,-0.80892 0.54723,-1.03388c-0.64321,-0.05358 -1.18761,-0.45502 -1.44453,-1.01565c-0.08673,0.88544 -0.83336,1.57731 -1.74159,1.57731c-0.9665,0 -1.75,-0.7835 -1.75,-1.75c0,-0.9665 0.7835,-1.75 1.75,-1.75c0.70663,0 1.31544,0.41882 1.59175,1.02176c0.08673,-0.88544 0.83336,-1.57731 1.74159,-1.57731c0.9665,0 1.75,0.7835 1.75,1.75c0,0.67535 -0.38256,1.26135 -0.94279,1.55312c0.56974,0.11646 0.99835,0.6205 0.99835,1.22466c0,0.69036 -0.55964,1.25 -1.25,1.25c-0.69036,0 -1.25,-0.55964 -1.25,-1.25z" fill="#942c3b" stroke="none" stroke-width="0.5"/><path d="M342.17804,252.14444c0,-0.9665 0.7835,-1.75 1.75,-1.75c0.9665,0 1.75,0.7835 1.75,1.75c0,0.9665 -0.7835,1.75 -1.75,1.75c-0.9665,0 -1.75,-0.7835 -1.75,-1.75z" fill="#942c3b" stroke="none" stroke-width="0.5"/><path d="M306.92804,253.95c-0.36192,0 -0.68791,-0.15381 -0.91617,-0.39962c-0.064,0.00709 -0.12904,0.01074 -0.19494,0.01074c-0.9665,0 -1.75,-0.7835 -1.75,-1.75c0,-0.9665 0.7835,-1.75 1.75,-1.75c0.45394,0 0.86751,0.17284 1.1785,0.45629c0.2914,-0.21685 0.65257,-0.34518 1.04372,-0.34518c0.9665,0 1.75,0.7835 1.75,1.75c0,0.9665 -0.7835,1.75 -1.75,1.75c-0.10075,0 -0.19951,-0.00851 -0.2956,-0.02486c-0.2189,0.18861 -0.50389,0.30264 -0.81551,0.30264z" fill="#942c3b" stroke="none" stroke-width="0.5"/><path d="M311.56693,254.14444c0,-0.4588 0.24718,-0.85987 0.61563,-1.0773c-0.21241,-0.28966 -0.33786,-0.64709 -0.33786,-1.03381c0,-0.9665 0.7835,-1.75 1.75,-1.75c0.9665,0 1.75,0.7835 1.75,1.75c0,0.8274 -0.57421,1.52069 -1.34588,1.70311c0.04413,0.12787 0.0681,0.26514 0.0681,0.408c0,0.69036 -0.55964,1.25 -1.25,1.25c-0.69036,0 -1.25,-0.55964 -1.25,-1.25z" fill="#942c3b" stroke="none" stroke-width="0.5"/><path d="M316.17804,252.25556c0,-0.9665 0.7835,-1.75 1.75,-1.75c0.9665,0 1.75,0.7835 1.75,1.75c0,0.9665 -0.7835,1.75 -1.75,1.75c-0.9665,0 -1.75,-0.7835 -1.75,-1.75z" fill="#942c3b" stroke="none" stroke-width="0.5"/><path d="M321.62249,252.25556c0,-0.9665 0.7835,-1.75 1.75,-1.75c0.9665,0 1.75,0.7835 1.75,1.75c0,0.9665 -0.7835,1.75 -1.75,1.75c-0.9665,0 -1.75,-0.7835 -1.75,-1.75z" fill="#942c3b" stroke="none" stroke-width="0.5"/><path d="M331.81693,250.56111c0.69036,0 1.25,0.55964 1.25,1.25c0,0.69036 -0.55964,1.25 -1.25,1.25c-0.43659,0 -0.82091,-0.22383 -1.04445,-0.563c-0.11809,0.8517 -0.84913,1.50744 -1.73333,1.50744c-0.9665,0 -1.75,-0.7835 -1.75,-1.75c0,-0.9665 0.7835,-1.75 1.75,-1.75c0.6895,0 1.28587,0.39876 1.57107,0.97824c0.14385,-0.5316 0.62961,-0.92268 1.20671,-0.92268z" fill="#942c3b" stroke="none" stroke-width="0.5"/><path d="M333.2336,252.25556c0,-0.69036 0.55964,-1.25 1.25,-1.25c0.00368,0 0.00735,0.00002 0.01102,0.00005c0.30057,-0.24324 0.68332,-0.38894 1.1001,-0.38894c0.9665,0 1.75,0.7835 1.75,1.75c0,0.9665 -0.7835,1.75 -1.75,1.75c-0.54207,0 -1.02658,-0.24646 -1.34758,-0.63345c-0.57729,-0.11053 -1.01353,-0.61815 -1.01353,-1.22766z" fill="#942c3b" stroke="none" stroke-width="0.5"/><path d="M337.51138,251.92222c0,-0.9665 0.7835,-1.75 1.75,-1.75c0.9665,0 1.75,0.7835 1.75,1.75c0,0.9665 -0.7835,1.75 -1.75,1.75c-0.9665,0 -1.75,-0.7835 -1.75,-1.75z" fill="#942c3b" stroke="none" stroke-width="0.5"/><path d="M294.34471,264.36667c0,-0.51341 0.30953,-0.95453 0.75215,-1.14693c-0.05556,0.00532 -0.11187,0.00804 -0.16882,0.00804c-0.9665,0 -1.75,-0.7835 -1.75,-1.75c0,-0.9665 0.7835,-1.75 1.75,-1.75c0.9665,0 1.75,0.7835 1.75,1.75c0,0.75127 -0.4734,1.39197 -1.13817,1.64007c0.01818,-0.00078 0.03647,-0.00118 0.05484,-0.00118c0.69036,0 1.25,0.55964 1.25,1.25c0,0.69036 -0.55964,1.25 -1.25,1.25c-0.69036,0 -1.25,-0.55964 -1.25,-1.25z" fill="#9d2f3a" stroke="none" stroke-width="0.5"/><path d="M304.37249,261.00556c0.69036,0 1.25,0.55964 1.25,1.25c0,0.69036 -0.55964,1.25 -1.25,1.25c-0.55684,0 -1.02864,-0.3641 -1.1903,-0.86722c-0.21399,0.09327 -0.45025,0.145 -0.69859,0.145c-0.28498,0 -0.55405,-0.06812 -0.79182,-0.18896c-0.37915,-0.07253 -0.69748,-0.31634 -0.87138,-0.64782c-0.11448,0.57228 -0.61973,1.00345 -1.22569,1.00345c-0.69036,0 -1.25,-0.55964 -1.25,-1.25c0,-0.69036 0.55964,-1.25 1.25,-1.25c0.48106,0 0.89866,0.27175 1.10764,0.67012c0.00845,-0.04226 0.01904,-0.08376 0.03164,-0.12437c0.01046,-0.49645 0.22766,-0.94204 0.56896,-1.25417c0.31998,-0.3499 0.78024,-0.56936 1.29175,-0.56936c0.9665,0 1.75,0.7835 1.75,1.75c0,0.02805 -0.00066,0.05595 -0.00197,0.08368c0.00989,-0.00023 0.0198,-0.00035 0.02974,-0.00035z" fill="#9d2f3a" stroke="none" stroke-width="0.5"/><path d="M308.40026,260.58889c0,-0.9665 0.7835,-1.75 1.75,-1.75c0.9665,0 1.75,0.7835 1.75,1.75c0,0.9665 -0.7835,1.75 -1.75,1.75c-0.9665,0 -1.75,-0.7835 -1.75,-1.75z" fill="#9d2f3a" stroke="none" stroke-width="0.5"/><path d="M317.17804,262.14444c0,0.53381 -0.33462,0.98948 -0.80554,1.16867c-0.19295,0.12189 -0.42158,0.19244 -0.66668,0.19244c-0.4865,0 -0.90809,-0.27793 -1.11465,-0.68367c-0.57431,-0.28703 -0.96869,-0.88063 -0.96869,-1.56633c0,-0.9665 0.7835,-1.75 1.75,-1.75c0.9665,0 1.75,0.7835 1.75,1.75c0,0.1364 -0.01561,0.26915 -0.04513,0.39658c0.0648,0.15108 0.10068,0.31751 0.10068,0.49231z" fill="#9d2f3a" stroke="none" stroke-width="0.5"/><path d="M321.26138,263.28333c-0.28271,0 -0.5435,-0.09385 -0.75291,-0.2521c-0.3057,0.26111 -0.70243,0.41877 -1.13598,0.41877c-0.9665,0 -1.75,-0.7835 -1.75,-1.75c0,-0.9665 0.7835,-1.75 1.75,-1.75c0.47739,0 0.91014,0.19116 1.22587,0.5011c0.32096,-0.37474 0.79759,-0.61222 1.32968,-0.61222c0.9665,0 1.75,0.7835 1.75,1.75c0,0.9665 -0.7835,1.75 -1.75,1.75c-0.16876,0 -0.33194,-0.02389 -0.48634,-0.06847c-0.05888,0.00851 -0.11909,0.01291 -0.18032,0.01291z" fill="#9d2f3a" stroke="none" stroke-width="0.5"/><path d="M326.90026,264.36667c0,-0.07667 0.0069,-0.15173 0.02012,-0.22458c-0.22599,0.22465 -0.5374,0.36347 -0.88123,0.36347c-0.69036,0 -1.25,-0.55964 -1.25,-1.25c0,-0.22437 0.05911,-0.43493 0.16262,-0.61696c-0.27401,-0.3089 -0.44039,-0.71543 -0.44039,-1.16082c0,-0.9665 0.7835,-1.75 1.75,-1.75c0.9665,0 1.75,0.7835 1.75,1.75c0,0.60178 -0.30375,1.13262 -0.7663,1.44756c0.02874,0.10519 0.04408,0.21591 0.04408,0.33022c0,0.07667 -0.0069,0.15173 -0.02012,0.22458c0.22599,-0.22465 0.5374,-0.36347 0.88123,-0.36347c0.69036,0 1.25,0.55964 1.25,1.25c0,0.69036 -0.55964,1.25 -1.25,1.25c-0.69036,0 -1.25,-0.55964 -1.25,-1.25z" fill="#9d2f3a" stroke="none" stroke-width="0.5"/><path d="M339.78915,262.25556c0,-0.63642 0.47561,-1.16175 1.09078,-1.23995c0.16256,-0.79825 0.86852,-1.39893 1.71478,-1.39893c0.9665,0 1.75,0.7835 1.75,1.75c0,0.9665 -0.7835,1.75 -1.75,1.75c-0.19893,0 -0.3901,-0.03319 -0.56829,-0.09434c-0.22871,0.29405 -0.5859,0.48323 -0.98727,0.48323c-0.69036,0 -1.25,-0.55964 -1.25,-1.25z" fill="#9d2f3a" stroke="none" stroke-width="0.5"/><path d="M300.67804,252.7c0,-0.69036 0.55964,-1.25 1.25,-1.25c0.69036,0 1.25,0.55964 1.25,1.25c0,0.69036 -0.55964,1.25 -1.25,1.25c-0.69036,0 -1.25,-0.55964 -1.25,-1.25z" fill="#942c3b" stroke="none" stroke-width="0.5"/><path d="M316.12249,255.47778c0,-0.69036 0.55964,-1.25 1.25,-1.25c0.69036,0 1.25,0.55964 1.25,1.25c0,0.69036 -0.55964,1.25 -1.25,1.25c-0.69036,0 -1.25,-0.55964 -1.25,-1.25z" fill="#942c3b" stroke="none" stroke-width="0.5"/><path d="M320.90026,255.81111c0,-0.69036 0.55964,-1.25 1.25,-1.25c0.69036,0 1.25,0.55964 1.25,1.25c0,0.69036 -0.55964,1.25 -1.25,1.25c-0.69036,0 -1.25,-0.55964 -1.25,-1.25z" fill="#942c3b" stroke="none" stroke-width="0.5"/><path d="M325.45582,254.25556c0,-0.69036 0.55964,-1.25 1.25,-1.25c0.69036,0 1.25,0.55964 1.25,1.25c0,0.69036 -0.55964,1.25 -1.25,1.25c-0.69036,0 -1.25,-0.55964 -1.25,-1.25z" fill="#942c3b" stroke="none" stroke-width="0.5"/><path d="M341.12249,254.92222c0,-0.69036 0.55964,-1.25 1.25,-1.25c0.69036,0 1.25,0.55964 1.25,1.25c0,0.69036 -0.55964,1.25 -1.25,1.25c-0.69036,0 -1.25,-0.55964 -1.25,-1.25z" fill="#942c3b" stroke="none" stroke-width="0.5"/><path d="M306.12249,263.58889c0,-0.69036 0.55964,-1.25 1.25,-1.25c0.69036,0 1.25,0.55964 1.25,1.25c0,0.69036 -0.55964,1.25 -1.25,1.25c-0.69036,0 -1.25,-0.55964 -1.25,-1.25z" fill="#9d2f3a" stroke="none" stroke-width="0.5"/><path d="M313.03915,263.89444c0.69036,0 1.25,0.55964 1.25,1.25c0,0.69036 -0.55964,1.25 -1.25,1.25c-0.07584,0 -0.1501,-0.00675 -0.22222,-0.01969c-0.07212,0.01294 -0.14638,0.01969 -0.22222,0.01969c-0.69036,0 -1.25,-0.55964 -1.25,-1.25c0,-0.69036 0.55964,-1.25 1.25,-1.25c0.07584,0 0.1501,0.00675 0.22222,0.01969c0.07212,-0.01294 0.14638,-0.01969 0.22222,-0.01969z" fill="#9d2f3a" stroke="none" stroke-width="0.5"/><path d="M333.12249,261.25556c0,-0.69036 0.55964,-1.25 1.25,-1.25c0.34808,0 0.66294,0.14228 0.88958,0.37185c0.3154,-0.45942 0.84439,-0.76074 1.44376,-0.76074c0.9665,0 1.75,0.7835 1.75,1.75c0,0.9665 -0.7835,1.75 -1.75,1.75c-0.65894,0 -1.23282,-0.36419 -1.53133,-0.90227c-0.21706,0.18175 -0.49675,0.29116 -0.802,0.29116c-0.12419,0 -0.24416,-0.01811 -0.35739,-0.05184c0.03373,0.11324 0.05184,0.2332 0.05184,0.35739c0,0.62988 -0.46589,1.15095 -1.07188,1.23741c0.11608,0.18971 0.18299,0.41279 0.18299,0.65148c0,0.69036 -0.55964,1.25 -1.25,1.25c-0.69036,0 -1.25,-0.55964 -1.25,-1.25c0,-0.62988 0.46589,-1.15095 1.07188,-1.23741c-0.11608,-0.18971 -0.18299,-0.41279 -0.18299,-0.65148c0,-0.10888 0.01392,-0.21452 0.04008,-0.31522c-0.10888,0.10837 -0.23195,0.2025 -0.36617,0.27936c-0.64198,0.44665 -1.394,0.62292 -1.75654,-0.01153c-0.5158,-0.30441 -0.86182,-0.86589 -0.86182,-1.50818c0,-0.9665 0.7835,-1.75 1.75,-1.75c0.17212,0 0.33844,0.02485 0.49556,0.07115c0.79343,-0.17182 1.47667,0.18767 1.47667,1.67885c0,0.13848 -0.048,0.29648 -0.13201,0.46103c0.17909,-0.09908 0.38507,-0.15548 0.60423,-0.15548c0.12419,0 0.24416,0.01811 0.35739,0.05184c-0.03373,-0.11324 -0.05184,-0.2332 -0.05184,-0.35739z" fill="#9d2f3a" stroke="none" stroke-width="0.5"/><path d="M341.67804,265.14444c0,-0.69036 0.55964,-1.25 1.25,-1.25c0.69036,0 1.25,0.55964 1.25,1.25c0,0.69036 -0.55964,1.25 -1.25,1.25c-0.69036,0 -1.25,-0.55964 -1.25,-1.25z" fill="#9d2f3a" stroke="none" stroke-width="0.5"/><path d="M294.7336,256.03333c0,-0.41421 0.33579,-0.75 0.75,-0.75c0.41421,0 0.75,0.33579 0.75,0.75c0,0.41421 -0.33579,0.75 -0.75,0.75c-0.41421,0 -0.75,-0.33579 -0.75,-0.75z" fill="#942c3b" stroke="none" stroke-width="0.5"/><path d="M297.95582,257.47778c0,-0.41421 0.33579,-0.75 0.75,-0.75c0.41421,0 0.75,0.33579 0.75,0.75c0,0.41421 -0.33579,0.75 -0.75,0.75c-0.41421,0 -0.75,-0.33579 -0.75,-0.75z" fill="#942c3b" stroke="none" stroke-width="0.5"/><path d="M304.17804,258.25556c0,-0.41421 0.33579,-0.75 0.75,-0.75c0.41421,0 0.75,0.33579 0.75,0.75c0,0.41421 -0.33579,0.75 -0.75,0.75c-0.41421,0 -0.75,-0.33579 -0.75,-0.75z" fill="#942c3b" stroke="none" stroke-width="0.5"/><path d="M307.06693,256.58889c0,-0.41421 0.33579,-0.75 0.75,-0.75c0.41421,0 0.75,0.33579 0.75,0.75c0,0.41421 -0.33579,0.75 -0.75,0.75c-0.41421,0 -0.75,-0.33579 -0.75,-0.75z" fill="#942c3b" stroke="none" stroke-width="0.5"/><path d="M313.40026,257.7c0,-0.41421 0.33579,-0.75 0.75,-0.75c0.41421,0 0.75,0.33579 0.75,0.75c0,0.41421 -0.33579,0.75 -0.75,0.75c-0.41421,0 -0.75,-0.33579 -0.75,-0.75z" fill="#942c3b" stroke="none" stroke-width="0.5"/><path d="M319.62249,258.7c0,-0.41421 0.33579,-0.75 0.75,-0.75c0.41421,0 0.75,0.33579 0.75,0.75c0,0.41421 -0.33579,0.75 -0.75,0.75c-0.41421,0 -0.75,-0.33579 -0.75,-0.75z" fill="#942c3b" stroke="none" stroke-width="0.5"/><path d="M328.06693,257.81111c0,-0.41421 0.33579,-0.75 0.75,-0.75c0.41421,0 0.75,0.33579 0.75,0.75c0,0.41421 -0.33579,0.75 -0.75,0.75c-0.41421,0 -0.75,-0.33579 -0.75,-0.75z" fill="#942c3b" stroke="none" stroke-width="0.5"/><path d="M331.62249,257.47778c0,-0.41421 0.33579,-0.75 0.75,-0.75c0.41421,0 0.75,0.33579 0.75,0.75c0,0.41421 -0.33579,0.75 -0.75,0.75c-0.41421,0 -0.75,-0.33579 -0.75,-0.75z" fill="#942c3b" stroke="none" stroke-width="0.5"/><path d="M340.40026,258.36667c0,-0.41421 0.33579,-0.75 0.75,-0.75c0.41421,0 0.75,0.33579 0.75,0.75c0,0.41421 -0.33579,0.75 -0.75,0.75c-0.41421,0 -0.75,-0.33579 -0.75,-0.75z" fill="#942c3b" stroke="none" stroke-width="0.5"/><path d="M299.06693,268.36667c0,-0.41421 0.33579,-0.75 0.75,-0.75c0.41421,0 0.75,0.33579 0.75,0.75c0,0.41421 -0.33579,0.75 -0.75,0.75c-0.41421,0 -0.75,-0.33579 -0.75,-0.75z" fill="#9d2f3a" stroke="none" stroke-width="0.5"/><path d="M302.40026,266.25556c0,-0.41421 0.33579,-0.75 0.75,-0.75c0.41421,0 0.75,0.33579 0.75,0.75c0,0.41421 -0.33579,0.75 -0.75,0.75c-0.41421,0 -0.75,-0.33579 -0.75,-0.75z" fill="#9d2f3a" stroke="none" stroke-width="0.5"/><path d="M312.62249,268.81111c0,-0.41421 0.33579,-0.75 0.75,-0.75c0.41421,0 0.75,0.33579 0.75,0.75c0,0.41421 -0.33579,0.75 -0.75,0.75c-0.41421,0 -0.75,-0.33579 -0.75,-0.75z" fill="#9d2f3a" stroke="none" stroke-width="0.5"/><path d="M318.7336,269.14444c0,-0.41421 0.33579,-0.75 0.75,-0.75c0.41421,0 0.75,0.33579 0.75,0.75c0,0.41421 -0.33579,0.75 -0.75,0.75c-0.41421,0 -0.75,-0.33579 -0.75,-0.75z" fill="#9d2f3a" stroke="none" stroke-width="0.5"/><path d="M327.62249,267.58889c0,-0.41421 0.33579,-0.75 0.75,-0.75c0.41421,0 0.75,0.33579 0.75,0.75c0,0.41421 -0.33579,0.75 -0.75,0.75c-0.41421,0 -0.75,-0.33579 -0.75,-0.75z" fill="#9d2f3a" stroke="none" stroke-width="0.5"/><path d="M341.17804,267.7c0,-0.41421 0.33579,-0.75 0.75,-0.75c0.41421,0 0.75,0.33579 0.75,0.75c0,0.41421 -0.33579,0.75 -0.75,0.75c-0.41421,0 -0.75,-0.33579 -0.75,-0.75z" fill="#9d2f3a" stroke="none" stroke-width="0.5"/></g><path d="M214.52362,306.61252v-267.72501h213.18203v267.72501z" fill="none" stroke="none" stroke-width="0" stroke-linecap="butt"/><path d="" fill="none" stroke="#000000" stroke-width="2" stroke-linecap="round"/><path d="" fill-opacity="0.73333" fill="#2d7a1a" stroke="none" stroke-width="0" stroke-linecap="butt"/><g><path d="M259.35839,153.20277c0.06952,-31.42401 27.26407,-56.83815 60.74067,-56.76408c33.47662,0.07407 60.55842,25.6083 60.4889,57.0323c-0.04587,20.73275 -11.89932,38.8494 -29.57422,48.75574c-2.62067,1.46881 -8.48231,6.69506 -11.33942,7.78466c-7.07964,2.69989 -11.61848,3.53153 -19.73325,3.51357c-8.71158,-0.01927 -16.01778,-2.45889 -23.49747,-5.58155c-1.93494,-0.80782 -4.88255,-4.30161 -6.70426,-5.28806c-18.19686,-9.85361 -30.42771,-28.32144 -30.38095,-49.45257z" fill="#a93232" stroke="#000000" stroke-width="0" stroke-linecap="butt"/><path d="M300.08806,205.51979l-1.16598,-6.26086l41.98306,0.73518l-2.07468,5.47517z" fill="#7c2532" stroke="none" stroke-width="0" stroke-linecap="butt"/><g fill="#fff8f7" stroke="none" stroke-width="0" stroke-linecap="butt"><path d="M316.71114,210.06423c-1.53043,-0.00339 -2.76539,-2.58817 -2.75833,-5.77328c0.00049,-0.22208 5.54258,-0.16547 5.54219,0.01227c-0.00705,3.18511 -1.25342,5.7644 -2.78385,5.76101z"/><path d="M311.90422,209.61899c-1.53001,0.02303 -2.85788,-2.53975 -2.96586,-5.72413c-0.00753,-0.22202 5.53462,-0.26107 5.54065,-0.08338c0.10799,3.18437 -1.04478,5.78448 -2.5748,5.80749z"/><path d="M302.60495,208.35117c-1.41056,0.1099 -2.94789,-2.18129 -3.43369,-5.11753c-0.03387,-0.20473 5.08101,-0.56184 5.10812,-0.39798c0.48581,2.93623 -0.26385,5.40559 -1.67442,5.51549z"/><path d="M307.09718,208.95083c-1.45236,0.07075 -2.88552,-2.32251 -3.20102,-5.34553c-0.022,-0.21076 5.24187,-0.42493 5.25949,-0.25624c0.3155,3.02301 -0.60607,5.53101 -2.05842,5.60177z"/><path d="M319.35069,204.30289c0.00039,-0.17774 5.54266,-0.20981 5.54218,0.01226c-0.00705,3.18511 -1.25342,5.7644 -2.78385,5.76101c-1.53043,-0.00339 -2.76538,-2.58817 -2.75833,-5.77328z"/><path d="M324.47306,203.97814c0.00681,-0.17767 5.54875,-0.11409 5.54024,0.1079c-0.12208,3.18387 -1.46127,5.74073 -2.99116,5.71094c-1.5299,-0.02979 -2.67115,-2.63498 -2.54907,-5.81883z"/><path d="M334.67704,202.97521c0.02784,-0.16372 5.1411,0.216 5.1063,0.42058c-0.4988,2.93405 -2.04623,5.21841 -3.4563,5.10228c-1.41007,-0.11614 -2.14881,-2.58879 -1.65001,-5.52284z"/><path d="M329.79877,203.39474c0.01835,-0.16861 5.28122,0.06884 5.25829,0.27951c-0.32888,3.02159 -1.77262,5.4085 -3.22466,5.33132c-1.45203,-0.07718 -2.36253,-2.58924 -2.03362,-5.61082z"/></g><g fill="#fff8f7" stroke="none" stroke-width="0" stroke-linecap="butt"><path d="M319.59799,202.24072c-0.00048,0.21682 -5.89378,0.25785 -5.89318,-0.01303c0.0086,-3.8854 1.3348,-7.03221 2.96216,-7.02861c1.62735,0.00361 2.93962,3.15626 2.93102,7.04166z"/><path d="M314.15226,202.10957c-0.0073,0.21673 -5.90022,0.1411 -5.89107,-0.12971c0.13091,-3.88391 1.55582,-7.00341 3.18259,-6.96759c1.62677,0.03582 2.8394,3.21338 2.70849,7.09729z"/><path d="M303.30614,201.3086c-0.02966,0.19973 -5.46662,-0.26172 -5.42957,-0.51129c0.5314,-3.57931 2.17765,-6.36646 3.67696,-6.22526c1.49934,0.14119 2.284,3.15724 1.7526,6.73656z"/><path d="M308.4908,202.02958c-0.01957,0.2057 -5.61568,-0.08215 -5.59122,-0.33914c0.35077,-3.68603 1.88678,-6.59824 3.43074,-6.50458c1.54398,0.09365 2.51125,3.15769 2.16048,6.84372z"/><path d="M322.51789,195.212c1.62736,0.00361 2.93963,3.15625 2.93103,7.04166c-0.0006,0.2709 -5.89366,0.20378 -5.89318,-0.01303c0.0086,-3.8854 1.3348,-7.03221 2.96216,-7.02861z"/><path d="M327.74186,195.04833c1.62692,-0.02862 3.03799,3.09715 3.15173,6.98163c0.00791,0.27083 -5.88526,0.32039 -5.8916,0.10363c-0.11373,-3.88445 1.11295,-7.05664 2.73988,-7.08526z"/><path d="M337.63394,194.65188c1.49994,-0.13455 3.13383,2.65985 3.64938,6.24149c0.03594,0.24971 -5.40302,0.68711 -5.43178,0.48725c-0.51554,-3.58163 0.28244,-6.59418 1.7824,-6.72873z"/><path d="M332.85449,195.24453c1.54437,-0.08682 3.06747,2.83217 3.40193,6.51971c0.02331,0.25711 -5.57401,0.52017 -5.59266,0.31439c-0.33445,-3.68755 0.64638,-6.74728 2.19075,-6.83411z"/></g><path d="M302.45915,193.51496c-0.20831,0.13822 -0.34654,-0.0701 -0.34654,-0.0701l-0.18884,-0.2848c-0.82964,-1.20008 -2.39987,0.00306 -3.10187,0.70242c0,0 -0.17717,0.17639 -0.35355,-0.00077c-0.17639,-0.17717 0.00077,-0.35355 0.00077,-0.35355c0.98652,-0.98153 2.74649,-2.05681 3.86343,-0.63596l0.19668,0.29624c0,0 0.13822,0.20831 -0.0701,0.34654z" fill="#872929" stroke="none" stroke-width="0.5" stroke-linecap="butt"/><path d="M306.86479,193.76011c-0.14532,-0.00032 -0.20598,-0.08493 -0.2313,-0.15573c-0.82491,-0.2118 -1.82156,0.10208 -2.62641,0.24229c0,0 -0.24629,0.0429 -0.28919,-0.2034c-0.04291,-0.24629 0.2034,-0.28919 0.2034,-0.28919c0.96499,-0.16809 2.06254,-0.49053 3.02387,-0.17768l0.1702,0.33426c0,0 -0.00055,0.25 -0.25055,0.24945z" fill="#872929" stroke="none" stroke-width="0.5" stroke-linecap="butt"/><path d="M312.66755,193.38614c-0.17846,-0.0004 -0.22925,-0.1279 -0.24369,-0.20084c-0.60535,-0.28375 -1.8175,0.19746 -2.32595,0.53997c0,0 -0.20831,0.13822 -0.34654,-0.0701c-0.13822,-0.20831 0.0701,-0.34654 0.0701,-0.34654c0.75653,-0.49564 2.18904,-0.98175 2.98599,-0.47688l0.11065,0.30495c0,0 -0.00055,0.25 -0.25055,0.24945z" fill="#872929" stroke="none" stroke-width="0.5" stroke-linecap="butt"/><path d="M317.16677,193.38383c0.05184,0.24456 -0.19272,0.2964 -0.19272,0.2964l-0.37617,0.07974c-0.73744,0.15632 -0.85025,0.13743 -1.32317,0.70239c0,0 -0.16048,0.19171 -0.35217,0.03123c-0.1917,-0.16048 -0.03123,-0.35217 -0.03123,-0.35217c0.52243,-0.62409 0.79742,-0.69984 1.6029,-0.87059l0.37616,-0.07974c0,0 0.24456,-0.05184 0.2964,0.19272z" fill="#872929" stroke="none" stroke-width="0.5" stroke-linecap="butt"/><path d="M324.06024,193.91833c-0.17717,0.17639 -0.35355,-0.00078 -0.35355,-0.00078l-0.04351,-0.05633c-1.14888,-0.67313 -2.2925,-0.03228 -3.36218,0.39423c0,0 -0.23233,0.09234 -0.32466,-0.13998c-0.09234,-0.23232 0.13999,-0.32465 0.13999,-0.32465c1.2425,-0.49212 2.47268,-1.10617 3.79522,-0.36352l0.14947,0.1375c0,0 0.17639,0.17717 -0.00077,0.35355z" fill="#872929" stroke="none" stroke-width="0.5" stroke-linecap="butt"/><path d="M331.02317,193.64364c-0.17717,0.17639 -0.35355,-0.00077 -0.35355,-0.00077l-0.13985,-0.15316c-1.46794,-0.30625 -2.4902,0.24077 -3.84666,0.77988c0,0 -0.23233,0.09234 -0.32466,-0.13998c-0.09234,-0.23232 0.13998,-0.32466 0.13998,-0.32466c1.48877,-0.59169 2.66379,-1.2103 4.27945,-0.74933l0.24607,0.23449c0,0 0.17639,0.17717 -0.00077,0.35355z" fill="#872929" stroke="none" stroke-width="0.5" stroke-linecap="butt"/><path d="M334.60061,193.84496c-0.17717,0.17639 -0.35355,-0.00077 -0.35355,-0.00077l-0.11199,-0.13945c-0.5527,0.05286 -0.93358,0.11563 -1.46981,0.29305c0,0 -0.23735,0.07853 -0.31588,-0.15881c-0.07853,-0.23735 0.1588,-0.31588 0.1588,-0.31588c0.65299,-0.21606 1.12809,-0.3155 1.81924,-0.27988l0.27396,0.24821c0,0 0.17639,0.17717 -0.00077,0.35355z" fill="#872929" stroke="none" stroke-width="0.5" stroke-linecap="butt"/><path d="M338.95247,193.66119c-0.17717,0.17639 -0.35355,-0.00077 -0.35355,-0.00077l-0.05845,-0.0656c-1.20898,-0.82219 -1.8353,0.12915 -2.97446,0.50607c0,0 -0.23735,0.07853 -0.31588,-0.15881c-0.07853,-0.23735 0.1588,-0.31588 0.1588,-0.31588c1.29935,-0.42993 2.00217,-1.37794 3.4098,-0.4468l0.13451,0.12823c0,0 0.17639,0.17717 -0.00077,0.35355z" fill="#872929" stroke="none" stroke-width="0.5" stroke-linecap="butt"/><path d="M302.73703,208.3591c0.17639,0.17717 -0.00077,0.35355 -0.00077,0.35355l-0.27385,0.16931c-0.93576,-0.00207 -2.17138,-0.03341 -2.63905,-0.91762c0,0 -0.11131,-0.22385 0.11254,-0.33516c0.22385,-0.11131 0.33516,0.11254 0.33516,0.11254c0.30477,0.67311 1.50236,0.63872 2.19245,0.64024l-0.08003,-0.02366c0,0 0.17717,-0.17639 0.35354,0.00077z" fill="#872929" stroke="none" stroke-width="0.5" stroke-linecap="butt"/><path d="M307.93254,209.61108c-0.00055,0.25 -0.25055,0.24945 -0.25055,0.24945l-0.14436,-0.00517c-0.91855,0.17936 -1.32022,-0.04241 -2.11049,-0.51894c0,0 -0.21408,-0.12909 -0.085,-0.34318c0.12909,-0.21408 0.34318,-0.085 0.34318,-0.085c0.69365,0.41828 0.95819,0.61636 1.75531,0.45661l0.24244,-0.00432c0,0 0.25,0.00055 0.24945,0.25055z" fill="#872929" stroke="none" stroke-width="0.5" stroke-linecap="butt"/><path d="M313.34551,210.59002c-0.00055,0.25 -0.25055,0.24945 -0.25055,0.24945l-0.2949,-0.00071c-0.69837,-0.02921 -1.34808,-0.18264 -2.00734,-0.40402c0,0 -0.23699,-0.07957 -0.15741,-0.31658c0.07958,-0.23699 0.31658,-0.15741 0.31658,-0.15741c0.61053,0.20501 1.21155,0.35263 1.85889,0.37812l0.28529,0.00058c0,0 0.25,0.00055 0.24945,0.25055z" fill="#872929" stroke="none" stroke-width="0.5" stroke-linecap="butt"/><path d="M317.58824,210.23026c0.07853,0.23735 -0.15881,0.31588 -0.15881,0.31588l-0.32934,0.10557c-0.86989,-0.00193 -1.06145,0.18828 -1.89195,-0.22074c0,0 -0.22337,-0.1123 -0.11106,-0.33566c0.1123,-0.22337 0.33566,-0.11106 0.33566,-0.11106c0.4742,0.24249 1.05574,0.17256 1.58835,0.17374l0.25128,-0.08654c0,0 0.23735,-0.07853 0.31588,0.1588z" fill="#872929" stroke="none" stroke-width="0.5" stroke-linecap="butt"/><path d="M323.78206,210.35908c0.06009,0.24267 -0.18257,0.30277 -0.18257,0.30277l-0.41403,0.10098c-1.54205,0.02218 -2.41602,0.59127 -3.85253,-0.43962c0,0 -0.2031,-0.14575 -0.05734,-0.34887c0.14576,-0.2031 0.34887,-0.05734 0.34887,-0.05734c1.29712,0.93086 2.09005,0.39257 3.49485,0.35023l0.36,-0.09071c0,0 0.24268,-0.0601 0.30277,0.18257z" fill="#872929" stroke="none" stroke-width="0.5" stroke-linecap="butt"/><path d="M327.94743,210.42894c-0.00055,0.25 -0.25056,0.24944 -0.25056,0.24944l-0.2901,-0.00064c-0.70992,-0.00449 -1.53084,-0.08815 -2.20576,-0.3078c0,0 -0.23699,-0.07958 -0.15741,-0.31659c0.07958,-0.23699 0.31659,-0.15741 0.31659,-0.15741c0.60663,0.21193 1.40637,0.28354 2.0477,0.2818l0.2901,0.00064c0,0 0.25,0.00055 0.24945,0.25055z" fill="#872929" stroke="none" stroke-width="0.5" stroke-linecap="butt"/><path d="M332.68003,209.60518c0.06009,0.24267 -0.18257,0.30277 -0.18257,0.30277l-0.4171,0.10137c-0.61703,0.0014 -1.04642,-0.31265 -1.57709,-0.29171c0,0 -0.25,-0.00056 -0.24944,-0.25056c0.00055,-0.25 0.25055,-0.24945 0.25055,-0.24945c0.60014,0.01786 0.89302,0.29067 1.51599,0.29533l0.35691,-0.09032c0,0 0.24268,-0.0601 0.30277,0.18257z" fill="#872929" stroke="none" stroke-width="0.5" stroke-linecap="butt"/><path d="M337.51603,209.13239c0.06009,0.24267 -0.18257,0.30277 -0.18257,0.30277l-0.37773,0.09336c-0.77868,0.24985 -1.35195,0.04267 -2.08249,-0.20087c0,0 -0.23699,-0.07957 -0.15741,-0.31658c0.07958,-0.23699 0.31658,-0.15741 0.31658,-0.15741c0.62565,0.21145 1.11196,0.42534 1.7846,0.19449l0.39628,-0.09831c0,0 0.24268,-0.0601 0.30277,0.18257z" fill="#872929" stroke="none" stroke-width="0.5" stroke-linecap="butt"/><g><g fill="#a2f30f" stroke="#000000" stroke-width="0"><path d="M255.34818,148.68511c0.07368,-33.30176 28.89324,-60.23454 64.37028,-60.15605c35.47705,0.07849 64.17713,27.13854 64.10345,60.4403c-0.03033,13.70624 -4.93006,26.33359 -13.15924,36.4429c-0.77341,0.95011 2.38618,5.793 2.38618,5.793c0,0 -4.45155,-2.29779 -8.79515,-1.79237c-1.51271,0.17602 -2.87563,3.42166 -2.87563,3.42166c0,0 -5.72183,-1.75558 -8.3416,-1.49599c-1.6406,0.16258 -4.82289,4.77838 -4.82289,4.77838c0,0 -3.40226,-3.34891 -4.01774,-3.32097c-1.03084,0.04677 -5.3186,6.14952 -5.3186,6.14952l-4.48265,-5.02443l-5.34018,5.42507c0,0 -1.70217,-8.7178 -2.46545,-8.69324c-1.2126,0.039 -2.58172,4.63171 -2.58172,4.63171c0,0 -3.0647,-3.41042 -4.67185,-3.72098c-1.76044,-0.34019 -3.53189,2.93202 -3.53189,2.93202c0,0 -4.19504,-3.00426 -4.39559,-3.00215c-1.21439,0.0127 -5.41261,2.0248 -5.41261,2.0248c0,0 -4.55332,-1.78784 -5.79727,-1.77526c-1.86462,0.01887 -6.41266,4.00542 -6.41266,4.00542c0,0 -4.1239,-5.62002 -5.58702,-5.61457c-2.43971,0.00909 -7.41293,3.17988 -7.41293,3.17988c0,0 -1.98324,-3.84379 -3.58395,-3.83937c-1.10657,0.00307 -3.71682,5.53373 -3.71682,5.53373c0,0 -0.07452,-4.86468 -0.99186,-5.73133c-1.05944,-1.0009 -4.29524,2.21959 -4.29524,2.21959c0,0 0.98034,-5.29754 0.62231,-5.73039c-8.47089,-10.24167 -13.50261,-23.11216 -13.4717,-37.08087z" stroke-linecap="butt"/><path d="M256.57175,161.04809l-19.10402,-61.55676l13.261,7.88802l-3.67631,-53.12197l48.17704,26.6635l-5.88618,-34.15763l20.00932,19.82647l4.09359,-12.99842l13.7694,23.06453l14.6783,-20.29169l34.81411,64.84339" stroke-linecap="round"/></g><g fill="#75f20f" stroke="#000000" stroke-width="0"><path d="M247.78494,132.06834c0.07368,-33.30176 36.45649,-43.61777 71.93352,-43.53928c28.51039,0.06308 52.64409,17.55138 60.98476,41.70095c0.07919,0.22929 -132.91828,1.83834 -132.91828,1.83834z" stroke-linecap="butt"/><path d="M247.49619,131.80492c-3.2594,-10.5024 -10.02846,-32.31358 -10.02846,-32.31358l13.261,7.88802l-3.67631,-53.12197l48.17704,26.6635l-5.88618,-34.15763l20.00932,19.82647l4.09359,-12.99842l13.7694,23.06453l14.6783,-20.29169l34.81411,64.84339" stroke-linecap="round"/></g><g fill="#33965e" stroke="#000000" stroke-width="0" stroke-linecap="round"><path d="M242.20922,115.16932c-2.3103,-7.44424 -4.74148,-15.67799 -4.74148,-15.67799l13.261,7.88802l-3.67631,-53.12197l48.17704,26.66351l-5.88618,-34.15763l20.00932,19.82646l4.09359,-12.99842l13.7694,23.06453l14.6783,-20.29169c0,0 25.36573,46.87314 30.86377,57.11359"/></g><g fill="#2d7a1a" stroke="#000000" stroke-width="0" stroke-linecap="round"><path d="M249.82846,94.37057c-0.67152,-9.70323 -2.77605,-40.11318 -2.77605,-40.11318l48.17704,26.6635l-5.88618,-34.15763l20.00932,19.82647l4.09359,-12.99842l13.7694,23.06453l14.6783,-20.29169c0,0 11.3774,21.1911 20.16834,37.56474"/></g><path d="M313.42637,160.36093l-4.58459,14.62327" fill="none" stroke="#81c10c" stroke-width="2" stroke-linecap="round"/><path d="M329.43983,173.67482l-4.57442,-14.64352" fill="none" stroke="#81c10c" stroke-width="2" stroke-linecap="round"/><path d="M268.96686,152.51372c0.0287,-12.96797 10.56458,-23.45733 23.53256,-23.42864c12.96797,0.0287 23.45733,10.56457 23.42865,23.53255c-0.0287,12.96797 -10.56457,23.45734 -23.53255,23.42865c-12.96797,-0.0287 -23.45734,-10.56457 -23.42865,-23.53256z" fill="#81c10c" stroke="none" stroke-width="0" stroke-linecap="butt"/><path d="M346.65383,176.16634c-12.96797,-0.0287 -23.45733,-10.56458 -23.42865,-23.53256c0.0287,-12.96797 10.56457,-23.45733 23.53255,-23.42864c12.96797,0.0287 23.45734,10.56457 23.42865,23.53255c-0.0287,12.96797 -10.56457,23.45734 -23.53256,23.42866z" fill="#81c10c" stroke="none" stroke-width="0" stroke-linecap="butt"/><path d="M268.97465,148.99087c0.0287,-12.96797 10.56458,-23.45733 23.53256,-23.42865c12.96797,0.0287 23.45733,10.56457 23.42865,23.53255c-0.0287,12.96797 -10.56457,23.45734 -23.53255,23.42865c-12.96797,-0.0287 -23.45734,-10.56457 -23.42865,-23.53256z" fill="#ffffff" stroke="#000000" stroke-width="0" stroke-linecap="butt"/><path d="M346.66164,172.6435c-12.96797,-0.0287 -23.45733,-10.56458 -23.42865,-23.53256c0.0287,-12.96797 10.56457,-23.45733 23.53255,-23.42864c12.96797,0.0287 23.45734,10.56456 23.42866,23.53255c-0.0287,12.96797 -10.56457,23.45734 -23.53256,23.42865z" fill="#ffffff" stroke="#000000" stroke-width="0" stroke-linecap="butt"/><path d="M255.0113,93.46197c0.9665,0.00214 1.74826,0.78737 1.74612,1.75387c-0.00214,0.9665 -0.78737,1.74826 -1.75387,1.74612c-0.85299,-0.00189 -1.56209,-0.61373 -1.71541,-1.42181c-0.31093,0.4908 -0.85933,0.81611 -1.48326,0.81473c-0.9665,-0.00214 -1.74826,-0.78737 -1.74613,-1.75387c0.00214,-0.9665 0.78737,-1.74826 1.75388,-1.74612c0.85299,0.00189 1.56209,0.61373 1.71541,1.42181c0.31093,-0.4908 0.85933,-0.81611 1.48326,-0.81473z" fill="#2d7a1a" stroke="none" stroke-width="0.5" stroke-linecap="butt"/><path d="M265.01083,93.68411c0.9665,0.00214 1.74826,0.78737 1.74613,1.75387c-0.00214,0.9665 -0.78737,1.74826 -1.75388,1.74613c-0.72044,-0.00159 -1.33825,-0.43831 -1.60522,-1.0609c-0.07699,-0.04313 -0.14895,-0.09417 -0.21478,-0.15201c-0.05832,0.00574 -0.11749,0.00861 -0.17733,0.00848c-0.9665,-0.00214 -1.74826,-0.78737 -1.74612,-1.75387c0.00214,-0.9665 0.78737,-1.74826 1.75387,-1.74612c0.7857,0.00174 1.44932,0.52099 1.66896,1.23444c0.10639,-0.01996 0.21616,-0.03027 0.32838,-0.03002z" fill="#2d7a1a" stroke="none" stroke-width="0.5" stroke-linecap="butt"/><path d="M278.85959,94.26474c0.00214,-0.9665 0.78737,-1.74826 1.75387,-1.74612c0.9665,0.00214 1.74826,0.78737 1.74612,1.75387c-0.00214,0.9665 -0.78737,1.74826 -1.75387,1.74612c-0.9665,-0.00214 -1.74826,-0.78737 -1.74612,-1.75387z" fill="#2d7a1a" stroke="none" stroke-width="0.5" stroke-linecap="butt"/><path d="M291.26089,93.69219c0.00214,-0.9665 0.78737,-1.74826 1.75387,-1.74612c0.9665,0.00214 1.74826,0.78737 1.74612,1.75387c-0.00214,0.9665 -0.78737,1.74826 -1.75387,1.74612c-0.9665,-0.00214 -1.74826,-0.78737 -1.74612,-1.75387z" fill="#2d7a1a" stroke="none" stroke-width="0.5" stroke-linecap="butt"/><path d="M304.0604,93.9205c-0.00152,0.69036 -0.5624,1.24876 -1.25276,1.24724c-0.41362,-0.00091 -0.77987,-0.20261 -1.00671,-0.51266c-0.06313,0.00674 -0.12724,0.01015 -0.19218,0.01002c-0.9665,-0.00214 -1.74826,-0.78737 -1.74612,-1.75387c0.00214,-0.9665 0.78737,-1.74826 1.75387,-1.74613c0.92448,0.00204 1.67995,0.72059 1.742,1.6289c0.41652,0.20353 0.70299,0.63178 0.70191,1.12652z" fill="#2d7a1a" stroke="none" stroke-width="0.5" stroke-linecap="butt"/><path d="M315.61337,92.59606c0.9665,0.00214 1.74826,0.78737 1.74612,1.75387c-0.00214,0.9665 -0.78737,1.74826 -1.75387,1.74612c-0.61822,-0.00137 -1.16085,-0.32314 -1.4711,-0.80781c-0.04199,0.00292 -0.08438,0.00436 -0.12714,0.00427c-0.9665,-0.00214 -1.74826,-0.78737 -1.74612,-1.75387c0.00214,-0.9665 0.78737,-1.74826 1.75387,-1.74612c0.61822,0.00137 1.16085,0.32314 1.4711,0.80781c0.04199,-0.00292 0.08438,-0.00436 0.12714,-0.00427z" fill="#2d7a1a" stroke="none" stroke-width="0.5" stroke-linecap="butt"/><path d="M327.05948,94.3714c0.00164,-0.73716 0.45881,-1.36685 1.1045,-1.62322c0.31828,-0.32289 0.76105,-0.52264 1.25025,-0.52157c0.9665,0.00214 1.74826,0.78737 1.74612,1.75387c-0.00164,0.73716 -0.45881,1.36685 -1.1045,1.62322c-0.31828,0.32289 -0.76105,0.52264 -1.25025,0.52157c-0.9665,-0.00214 -1.74826,-0.78737 -1.74612,-1.75387z" fill="#2d7a1a" stroke="none" stroke-width="0.5" stroke-linecap="butt"/><path d="M343.41375,92.45756c0.9665,0.00214 1.74826,0.78737 1.74612,1.75387c-0.00214,0.9665 -0.78737,1.74826 -1.75387,1.74612c-0.36848,-0.00081 -0.7101,-0.11546 -0.99167,-0.31056c-0.18944,0.06967 -0.39424,0.10749 -0.60788,0.10703c-0.9665,-0.00214 -1.74826,-0.78737 -1.74613,-1.75387c0.00214,-0.9665 0.78737,-1.74826 1.75388,-1.74612c0.36848,0.00081 0.7101,0.11545 0.99167,0.31056c0.18944,-0.06967 0.39424,-0.10749 0.60788,-0.10703z" fill="#2d7a1a" stroke="none" stroke-width="0.5" stroke-linecap="butt"/><path d="M345.6603,94.01254c0.00214,-0.9665 0.78737,-1.74826 1.75387,-1.74612c0.9665,0.00214 1.74826,0.78737 1.74612,1.75387c-0.00214,0.9665 -0.78737,1.74826 -1.75387,1.74612c-0.9665,-0.00214 -1.74826,-0.78737 -1.74612,-1.75387z" fill="#2d7a1a" stroke="none" stroke-width="0.5" stroke-linecap="butt"/><path d="M358.46028,94.04086c0.00214,-0.9665 0.78737,-1.74826 1.75387,-1.74612c0.9665,0.00214 1.74826,0.78737 1.74612,1.75387c-0.00214,0.9665 -0.78737,1.74826 -1.75387,1.74612c-0.9665,-0.00214 -1.74826,-0.78737 -1.74612,-1.75387z" fill="#2d7a1a" stroke="none" stroke-width="0.5" stroke-linecap="butt"/><path d="M349.96118,93.62206c0.00152,-0.69036 0.5624,-1.24876 1.25276,-1.24724c0.686,0.00151 1.24171,0.55536 1.2472,1.23973c0.29402,-0.5564 0.87912,-0.93502 1.55214,-0.93352c0.9665,0.00214 1.74826,0.78737 1.74613,1.75387c-0.00214,0.9665 -0.78737,1.74826 -1.75388,1.74612c-0.9665,-0.00214 -1.74826,-0.78737 -1.74612,-1.75387c0.0001,-0.0433 0.00176,-0.08624 0.00495,-0.12874c-0.2227,0.34748 -0.61263,0.5774 -1.05594,0.57642c-0.69036,-0.00152 -1.24876,-0.5624 -1.24724,-1.25276z" fill="#2d7a1a" stroke="none" stroke-width="0.5" stroke-linecap="butt"/><path d="M332.05991,94.18246c0.00214,-0.9665 0.78737,-1.74826 1.75387,-1.74613c0.9665,0.00214 1.74826,0.78737 1.74612,1.75388c-0.00214,0.9665 -0.78737,1.74826 -1.75387,1.74612c-0.9665,-0.00214 -1.74826,-0.78737 -1.74612,-1.75387z" fill="#2d7a1a" stroke="none" stroke-width="0.5" stroke-linecap="butt"/><path d="M305.45908,94.5236c0.00214,-0.9665 0.78737,-1.74826 1.75387,-1.74612c0.9665,0.00214 1.74826,0.78737 1.74613,1.75387c-0.00214,0.9665 -0.78737,1.74826 -1.75387,1.74612c-0.9665,-0.00214 -1.74826,-0.78737 -1.74613,-1.75387z" fill="#2d7a1a" stroke="none" stroke-width="0.5" stroke-linecap="butt"/><path d="M294.65777,95.0997c0.00214,-0.9665 0.78737,-1.74826 1.75387,-1.74612c0.9665,0.00214 1.74826,0.78737 1.74612,1.75387c-0.00214,0.9665 -0.78737,1.74826 -1.75387,1.74612c-0.9665,-0.00214 -1.74826,-0.78737 -1.74612,-1.75387z" fill="#2d7a1a" stroke="none" stroke-width="0.5" stroke-linecap="butt"/><path d="M286.05736,95.28067c0.00214,-0.9665 0.78737,-1.74826 1.75387,-1.74612c0.9665,0.00214 1.74826,0.78737 1.74612,1.75387c-0.00214,0.9665 -0.78737,1.74826 -1.75387,1.74612c-0.9665,-0.00214 -1.74826,-0.78737 -1.74612,-1.75387z" fill="#2d7a1a" stroke="none" stroke-width="0.5" stroke-linecap="butt"/><path d="M273.65694,95.45324c0.00214,-0.9665 0.78737,-1.74826 1.75387,-1.74612c0.9665,0.00214 1.74826,0.78737 1.74613,1.75387c-0.00214,0.9665 -0.78737,1.74826 -1.75388,1.74612c-0.9665,-0.00214 -1.74826,-0.78737 -1.74612,-1.75387z" fill="#2d7a1a" stroke="none" stroke-width="0.5" stroke-linecap="butt"/><path d="M266.85696,95.4382c0.00214,-0.9665 0.78737,-1.74826 1.75387,-1.74612c0.9665,0.00214 1.74826,0.78737 1.74613,1.75387c-0.00214,0.9665 -0.78737,1.74826 -1.75388,1.74612c-0.9665,-0.00214 -1.74826,-0.78737 -1.74612,-1.75387z" fill="#2d7a1a" stroke="none" stroke-width="0.5" stroke-linecap="butt"/><path d="M258.15434,96.61895c0.00028,-0.12337 0.0184,-0.24254 0.05195,-0.35503c-0.67104,-0.24605 -1.14921,-0.89124 -1.14753,-1.6474c0.00214,-0.9665 0.78737,-1.74826 1.75387,-1.74612c0.9665,0.00214 1.74826,0.78737 1.74612,1.75387c-0.00086,0.3911 -0.12995,0.75195 -0.34739,1.04283c0.27166,0.2299 0.44382,0.57364 0.44298,0.95739c-0.00152,0.69036 -0.5624,1.24876 -1.25276,1.24724c-0.69036,-0.00152 -1.24876,-0.5624 -1.24724,-1.25276z" fill="#2d7a1a" stroke="none" stroke-width="0.5" stroke-linecap="butt"/><path d="M242.81454,114.58505c0.00214,-0.9665 0.78737,-1.74826 1.75387,-1.74612c0.9665,0.00214 1.74826,0.78737 1.74612,1.75387c-0.00214,0.9665 -0.78737,1.74826 -1.75387,1.74612c-0.9665,-0.00214 -1.74826,-0.78737 -1.74612,-1.75387z" fill="#33965e" stroke="none" stroke-width="0.5" stroke-linecap="butt"/><path d="M254.11142,116.01005c0.00061,-0.27567 0.09041,-0.53028 0.24202,-0.73662c-0.32075,0.41704 -0.82515,0.68533 -1.3919,0.68408c-0.9665,-0.00214 -1.74826,-0.78737 -1.74613,-1.75387c0.00214,-0.9665 0.78737,-1.74826 1.75388,-1.74612c0.9665,0.00214 1.74826,0.78737 1.74612,1.75387c-0.00086,0.38823 -0.12807,0.74666 -0.34263,1.03644c0.22922,-0.29581 0.58825,-0.48591 0.99142,-0.485c0.69036,0.00152 1.24876,0.5624 1.24724,1.25276c-0.00152,0.69036 -0.5624,1.24876 -1.25276,1.24724c-0.69036,-0.00152 -1.24876,-0.5624 -1.24724,-1.25276z" fill="#33965e" stroke="none" stroke-width="0.5" stroke-linecap="butt"/><path d="M269.36879,112.69379c0.9665,0.00214 1.74826,0.78737 1.74612,1.75387c-0.00214,0.9665 -0.78737,1.74826 -1.75387,1.74612c-0.57246,-0.00126 -1.08011,-0.27726 -1.39845,-0.70292c-0.32021,0.42425 -0.82909,0.69799 -1.40155,0.69673c-0.9665,-0.00214 -1.74826,-0.78737 -1.74612,-1.75387c0.00214,-0.9665 0.78737,-1.74826 1.75387,-1.74612c0.57246,0.00126 1.08011,0.27726 1.39845,0.70292c0.32021,-0.42425 0.82909,-0.69799 1.40155,-0.69673z" fill="#33965e" stroke="none" stroke-width="0.5" stroke-linecap="butt"/><path d="M370.36987,112.31726c0.9665,0.00214 1.74826,0.78737 1.74612,1.75387c-0.00214,0.9665 -0.78737,1.74826 -1.75387,1.74612c-0.61936,-0.00136 -1.16285,-0.32433 -1.47281,-0.81049c-0.32173,0.37116 -0.79701,0.60547 -1.32674,0.6043c-0.9665,-0.00214 -1.74826,-0.78737 -1.74612,-1.75387c0.00214,-0.9665 0.78737,-1.74826 1.75387,-1.74612c0.61936,0.00136 1.16286,0.32432 1.47282,0.81049c0.32173,-0.37116 0.79701,-0.60546 1.32674,-0.60429z" fill="#33965e" stroke="none" stroke-width="0.5" stroke-linecap="butt"/><path d="M354.81603,114.03284c0.00214,-0.9665 0.78737,-1.74826 1.75387,-1.74612c0.9665,0.00214 1.74826,0.78737 1.74613,1.75387c-0.00214,0.9665 -0.78737,1.74826 -1.75387,1.74612c-0.9665,-0.00214 -1.74826,-0.78737 -1.74613,-1.75387z" fill="#33965e" stroke="none" stroke-width="0.5" stroke-linecap="butt"/><path d="M350.61649,113.82356c0.00214,-0.9665 0.78737,-1.74826 1.75387,-1.74613c0.9665,0.00214 1.74826,0.78737 1.74612,1.75388c-0.00214,0.9665 -0.78737,1.74826 -1.75387,1.74612c-0.9665,-0.00214 -1.74826,-0.78737 -1.74612,-1.75387z" fill="#33965e" stroke="none" stroke-width="0.5" stroke-linecap="butt"/><path d="M345.61695,113.61249c0.00214,-0.9665 0.78737,-1.74826 1.75387,-1.74612c0.9665,0.00214 1.74826,0.78737 1.74612,1.75387c-0.00214,0.9665 -0.78737,1.74826 -1.75387,1.74612c-0.9665,-0.00214 -1.74826,-0.78737 -1.74612,-1.75387z" fill="#33965e" stroke="none" stroke-width="0.5" stroke-linecap="butt"/><path d="M343.14883,115.40231c-0.3979,1.18498 -1.58289,0.78707 -1.58289,0.78707l-1.19911,-0.40266c0,0 -1.18497,-0.39791 -0.78707,-1.58289c0.3979,-1.18498 1.58288,-0.78707 1.58288,-0.78707l0.06236,0.02094c0.08514,-0.88891 0.83499,-1.5831 1.74583,-1.58108c0.9665,0.00214 1.74826,0.78737 1.74612,1.75387c-0.00199,0.89755 -0.67932,1.63578 -1.55,1.73485c-0.00563,0.01879 -0.01166,0.03777 -0.0181,0.05698z" fill="#33965e" stroke="none" stroke-width="0.5" stroke-linecap="butt"/><path d="M336.01652,113.79124c0.00214,-0.9665 0.78737,-1.74826 1.75388,-1.74612c0.9665,0.00214 1.74826,0.78737 1.74612,1.75387c-0.00214,0.9665 -0.78737,1.74826 -1.75387,1.74612c-0.23029,-0.00051 -0.45011,-0.04547 -0.65131,-0.12677c-0.48827,-0.1009 -0.87219,-0.48651 -0.97092,-0.97522c-0.08039,-0.20157 -0.1244,-0.42158 -0.12389,-0.65187z" fill="#33965e" stroke="none" stroke-width="0.5" stroke-linecap="butt"/><path d="M327.81654,113.7731c0.00388,-1.75 1.75387,-1.74612 1.75387,-1.74612l2.19999,0.00487c0,0 1.74999,0.00388 1.74612,1.75387c-0.00388,1.75 -1.75387,1.74612 -1.75387,1.74612l-2.19999,-0.00487c0,0 -1.75,-0.00388 -1.74613,-1.75387z" fill="#33965e" stroke="none" stroke-width="0.5" stroke-linecap="butt"/><path d="M322.61611,113.96161c0.00214,-0.9665 0.78737,-1.74826 1.75387,-1.74613c0.9665,0.00214 1.74826,0.78737 1.74613,1.75388c-0.00214,0.9665 -0.78737,1.74826 -1.75388,1.74612c-0.9665,-0.00214 -1.74826,-0.78737 -1.74612,-1.75387z" fill="#33965e" stroke="none" stroke-width="0.5" stroke-linecap="butt"/><path d="M316.81524,114.34877c0.00214,-0.9665 0.78737,-1.74826 1.75387,-1.74612c0.9665,0.00214 1.74826,0.78737 1.74613,1.75387c-0.00214,0.9665 -0.78737,1.74826 -1.75387,1.74612c-0.9665,-0.00214 -1.74826,-0.78737 -1.74613,-1.75387z" fill="#33965e" stroke="none" stroke-width="0.5" stroke-linecap="butt"/><path d="M312.01526,114.33815c0.00214,-0.9665 0.78737,-1.74826 1.75387,-1.74612c0.9665,0.00214 1.74826,0.78737 1.74612,1.75387c-0.00214,0.9665 -0.78737,1.74826 -1.75387,1.74613c-0.9665,-0.00214 -1.74826,-0.78737 -1.74612,-1.75388z" fill="#33965e" stroke="none" stroke-width="0.5" stroke-linecap="butt"/><path d="M304.01528,114.32045c0.00214,-0.9665 0.78737,-1.74826 1.75387,-1.74612c0.9665,0.00214 1.74826,0.78737 1.74612,1.75387c-0.00214,0.9665 -0.78737,1.74826 -1.75387,1.74612c-0.9665,-0.00214 -1.74826,-0.78737 -1.74612,-1.75387z" fill="#33965e" stroke="none" stroke-width="0.5" stroke-linecap="butt"/><path d="M297.21529,114.30541c0.00214,-0.9665 0.78737,-1.74826 1.75387,-1.74612c0.9665,0.00214 1.74826,0.78737 1.74612,1.75387c-0.00214,0.9665 -0.78737,1.74826 -1.75387,1.74613c-0.9665,-0.00214 -1.74826,-0.78737 -1.74612,-1.75388z" fill="#33965e" stroke="none" stroke-width="0.5" stroke-linecap="butt"/><path d="M295.80324,114.07906c-0.17952,1.23705 -1.41656,1.05754 -1.41656,1.05754l-1.20378,-0.17469c-0.26328,0.6359 -0.89053,1.08261 -1.62144,1.08101c-0.9665,-0.00214 -1.74826,-0.78737 -1.74613,-1.75387c0.00214,-0.9665 0.78737,-1.74826 1.75388,-1.74612c0.27627,0.00061 0.53746,0.06521 0.76954,0.17974c0.42369,-0.34795 1.00743,-0.26324 1.00743,-0.26324l1.39955,0.20309c0,0 1.23705,0.17952 1.05753,1.41655z" fill="#33965e" stroke="none" stroke-width="0.5" stroke-linecap="butt"/><path d="M289.41265,115.48814c-0.00152,0.69036 -0.5624,1.24876 -1.25276,1.24724c-0.493,-0.00109 -0.91871,-0.28744 -1.12126,-0.70248l-1.47718,-0.00327c0,0 -1.75,-0.00388 -1.74613,-1.75388c0.00388,-1.75 1.75388,-1.74612 1.75388,-1.74612l2.19999,0.00488c0,0 1.75,0.00388 1.74613,1.75387c-0.00073,0.32819 -0.06288,0.59468 -0.16336,0.81111c0.0397,0.12237 0.061,0.25303 0.0607,0.38866z" fill="#33965e" stroke="none" stroke-width="0.5" stroke-linecap="butt"/><path d="M273.01447,114.65187c0.00214,-0.9665 0.78737,-1.74826 1.75388,-1.74612c0.42806,0.00096 0.81989,0.1555 1.12342,0.41139c0.31193,-0.48572 0.85738,-0.80702 1.47746,-0.80565c0.9665,0.00214 1.74826,0.78737 1.74613,1.75387c-0.00214,0.9665 -0.78737,1.74826 -1.75387,1.74612c-0.42806,-0.00096 -0.81989,-0.1555 -1.12343,-0.41139c-0.31193,0.48572 -0.85738,0.80702 -1.47746,0.80565c-0.9665,-0.00214 -1.74826,-0.78737 -1.74613,-1.75387z" fill="#33965e" stroke="none" stroke-width="0.5" stroke-linecap="butt"/><path d="M359.62001,112.24348c0.00214,-0.9665 0.78737,-1.74826 1.75387,-1.74613c0.9665,0.00214 1.74826,0.78737 1.74612,1.75388c-0.00214,0.9665 -0.78737,1.74826 -1.75387,1.74612c-0.9665,-0.00214 -1.74826,-0.78737 -1.74612,-1.75387z" fill="#33965e" stroke="none" stroke-width="0.5" stroke-linecap="butt"/><path d="M248.37735,131.39739c0.00214,-0.9665 0.78737,-1.74826 1.75388,-1.74612c0.9665,0.00214 1.74826,0.78737 1.74612,1.75387c-0.00214,0.9665 -0.78737,1.74826 -1.75387,1.74612c-0.9665,-0.00214 -1.74826,-0.78737 -1.74613,-1.75387z" fill="#75f20f" stroke="none" stroke-width="0.5" stroke-linecap="butt"/><path d="M264.12831,130.98225c0.69036,0.00152 1.24876,0.5624 1.24724,1.25276c-0.00152,0.69036 -0.5624,1.24876 -1.25276,1.24724c-0.16084,-0.00035 -0.3145,-0.03107 -0.45562,-0.08672c-0.50651,0.38459 -1.14505,0.38317 -1.14505,0.38317l-1.33208,-0.00294c0.1151,0.18965 0.18118,0.41232 0.18064,0.65041c-0.00152,0.69036 -0.5624,1.24876 -1.25277,1.24723c-0.69036,-0.00152 -1.24876,-0.5624 -1.24724,-1.25276c0.00104,-0.46812 0.25925,-0.87557 0.64064,-1.08891c-0.0394,-0.03389 -0.0777,-0.07034 -0.11453,-0.1096c-0.31985,0.33771 -0.77283,0.54796 -1.27468,0.54685c-0.9665,-0.00214 -1.74826,-0.78737 -1.74613,-1.75387c0.00214,-0.9665 0.78737,-1.74826 1.75388,-1.74612c0.50185,0.00111 0.95389,0.21336 1.27224,0.55248c0.51913,-0.54852 1.32775,-0.54674 1.32775,-0.54674l1.79999,0.00398c0,0 0.95746,0.00212 1.45439,0.71143c0.04727,-0.00531 0.09535,-0.00799 0.14406,-0.00789z" fill="#75f20f" stroke="none" stroke-width="0.5" stroke-linecap="butt"/><path d="M267.87111,134.24054c0.00051,-0.22771 0.06186,-0.44105 0.16865,-0.6247c-0.40566,-0.32136 -0.66545,-0.8187 -0.66422,-1.3764c0.00214,-0.9665 0.78737,-1.74826 1.75387,-1.74612c0.17374,0.00038 0.34151,0.02607 0.49985,0.07358c0.15853,-0.0468 0.32642,-0.07175 0.50015,-0.07137c0.9665,0.00214 1.74826,0.78737 1.74613,1.75387c-0.00198,0.89127 -0.66988,1.62545 -1.53176,1.73266c0.0181,0.08513 0.02754,0.17346 0.02734,0.26402c-0.00152,0.69036 -0.5624,1.24876 -1.25276,1.24724c-0.69036,-0.00152 -1.24876,-0.5624 -1.24724,-1.25276z" fill="#75f20f" stroke="none" stroke-width="0.5" stroke-linecap="butt"/><path d="M322.17585,132.16068c-0.00152,0.69036 -0.5624,1.24876 -1.25276,1.24724c-0.12157,-0.00026 -0.23904,-0.01788 -0.35009,-0.0505c-0.29294,0.21896 -0.6567,0.34828 -1.05057,0.3474c-0.59715,-0.00132 -1.12379,-0.30158 -1.43857,-0.75884c-0.29072,0.56659 -0.88135,0.9537 -1.56185,0.9522c-0.5382,-0.00119 -1.01912,-0.24521 -1.33928,-0.62813c-0.25415,0.1428 -0.54752,0.22395 -0.85982,0.22326c-0.7857,-0.00174 -1.44932,-0.521 -1.66896,-1.23445c-0.10639,0.01996 -0.21616,0.03027 -0.32838,0.03002c-0.9665,-0.00214 -1.74826,-0.78737 -1.74612,-1.75387c0.00214,-0.9665 0.78737,-1.74826 1.75387,-1.74612c0.7857,0.00174 1.44931,0.52099 1.66896,1.23445c0.10639,-0.01996 0.21617,-0.03027 0.32839,-0.03002c0.5382,0.00119 1.01912,0.24521 1.33928,0.62813c0.25415,-0.1428 0.54752,-0.22394 0.85982,-0.22325c0.59715,0.00132 1.12378,0.30158 1.43857,0.75884c0.29072,-0.56659 0.88136,-0.9537 1.56186,-0.9522c0.57254,0.00126 1.08025,0.27733 1.39858,0.70309c0.6903,0.00159 1.24863,0.56245 1.24711,1.25277z" fill="#75f20f" stroke="none" stroke-width="0.5" stroke-linecap="butt"/><path d="M324.47495,132.56577c0.00041,-0.18608 0.04146,-0.36257 0.11474,-0.5211c-0.08826,-0.05629 -0.17112,-0.12025 -0.24766,-0.19099c-0.18193,0.10258 -0.39209,0.16092 -0.61586,0.16043c-0.69036,-0.00152 -1.24876,-0.5624 -1.24724,-1.25277c0.00152,-0.69036 0.5624,-1.24876 1.25277,-1.24723c0.12571,0.00028 0.24703,0.01911 0.36142,0.05387c0.317,-0.45441 0.84409,-0.75121 1.44013,-0.7499c0.9665,0.00214 1.74826,0.78737 1.74612,1.75387c-0.0011,0.49686 -0.20916,0.94489 -0.5424,1.26272c0.15023,0.2068 0.23858,0.46143 0.23797,0.73662c-0.00152,0.69036 -0.5624,1.24876 -1.25276,1.24724c-0.69036,-0.00152 -1.24876,-0.5624 -1.24724,-1.25276z" fill="#75f20f" stroke="none" stroke-width="0.5" stroke-linecap="butt"/><path d="M363.17973,130.45139c0.00214,-0.9665 0.78737,-1.74826 1.75388,-1.74612c0.9665,0.00214 1.74826,0.78737 1.74612,1.75387c-0.00214,0.9665 -0.78737,1.74826 -1.75387,1.74612c-0.9665,-0.00214 -1.74826,-0.78737 -1.74613,-1.75387z" fill="#75f20f" stroke="none" stroke-width="0.5" stroke-linecap="butt"/><path d="M374.97838,131.0775c-0.00152,0.69036 -0.5624,1.24876 -1.25276,1.24724c-0.17655,-0.0004 -0.34448,-0.03736 -0.49662,-0.10373c-0.25287,-0.01435 -0.49133,-0.08237 -0.7042,-0.19282c-0.15448,0.51653 -0.63389,0.8925 -1.20053,0.89124c-0.56886,-0.00125 -1.04812,-0.38231 -1.19835,-0.90265c-0.96634,-0.00232 -1.74792,-0.78748 -1.74579,-1.75387c0.00214,-0.9665 0.78737,-1.74826 1.75387,-1.74612c0.75517,0.00166 1.39757,0.48142 1.64136,1.15218c0.29199,-0.56271 0.88053,-0.94659 1.5582,-0.9451c0.9665,0.00214 1.74826,0.78737 1.74612,1.75388c-0.00046,0.20508 -0.03617,0.40184 -0.10138,0.58455c0.00004,0.00507 0.00007,0.01014 0.00006,0.01522z" fill="#75f20f" stroke="none" stroke-width="0.5" stroke-linecap="butt"/><path d="M375.47527,132.4786c0.00144,-0.65194 0.50173,-1.18621 1.1388,-1.24237c-0.02339,-0.11473 -0.03554,-0.23353 -0.03526,-0.35519c0.00214,-0.9665 0.78737,-1.74826 1.75387,-1.74612c0.9665,0.00214 1.74826,0.78737 1.74612,1.75387c-0.00214,0.9665 -0.78737,1.74826 -1.75387,1.74612c-0.12167,-0.00027 -0.24042,-0.01295 -0.35504,-0.03683c-0.05897,0.63682 -0.59544,1.13474 -1.24739,1.13329c-0.69036,-0.00152 -1.24876,-0.5624 -1.24724,-1.25276z" fill="#75f20f" stroke="none" stroke-width="0.5" stroke-linecap="butt"/><path d="M252.06496,137.00556c0.00152,-0.69036 0.5624,-1.24876 1.25276,-1.24724c0.69036,0.00152 1.24876,0.5624 1.24724,1.25276c-0.00152,0.69036 -0.5624,1.24876 -1.25276,1.24724c-0.69036,-0.00152 -1.24876,-0.5624 -1.24724,-1.25276z" fill="#75f20f" stroke="none" stroke-width="0.5" stroke-linecap="butt"/><path d="M314.26922,135.14319c0.00152,-0.69036 0.5624,-1.24876 1.25276,-1.24724c0.69036,0.00152 1.24876,0.5624 1.24724,1.25276c-0.00152,0.69036 -0.5624,1.24876 -1.25276,1.24724c-0.69036,-0.00152 -1.24876,-0.5624 -1.24724,-1.25276z" fill="#75f20f" stroke="none" stroke-width="0.5" stroke-linecap="butt"/><path d="M368.07353,133.26223c0.00152,-0.69036 0.5624,-1.24876 1.25276,-1.24724c0.69036,0.00152 1.24876,0.5624 1.24724,1.25276c-0.00152,0.69036 -0.5624,1.24876 -1.25276,1.24724c-0.69036,-0.00152 -1.24876,-0.5624 -1.24724,-1.25276z" fill="#75f20f" stroke="none" stroke-width="0.5" stroke-linecap="butt"/><path d="M377.8704,134.68391c0.00152,-0.69036 0.5624,-1.24876 1.25277,-1.24724c0.69036,0.00152 1.24876,0.5624 1.24724,1.25276c-0.00152,0.69036 -0.5624,1.24876 -1.25277,1.24724c-0.69036,-0.00152 -1.24876,-0.5624 -1.24724,-1.25276z" fill="#75f20f" stroke="none" stroke-width="0.5" stroke-linecap="butt"/><path d="M247.70037,120.99587c0.00152,-0.69036 0.5624,-1.24876 1.25276,-1.24724c0.69036,0.00152 1.24876,0.5624 1.24724,1.25276c-0.00152,0.69036 -0.5624,1.24876 -1.25276,1.24724c-0.69036,-0.00152 -1.24876,-0.5624 -1.24724,-1.25276z" fill="#33965e" stroke="none" stroke-width="0.5" stroke-linecap="butt"/><path d="M250.50744,117.80208c0.00152,-0.69036 0.5624,-1.24876 1.25276,-1.24724c0.69036,0.00152 1.24876,0.5624 1.24724,1.25276c-0.00152,0.69036 -0.5624,1.24876 -1.25276,1.24724c-0.69036,-0.00152 -1.24876,-0.5624 -1.24724,-1.25276z" fill="#33965e" stroke="none" stroke-width="0.5" stroke-linecap="butt"/><path d="M259.9114,116.02287c0.00152,-0.69036 0.5624,-1.24876 1.25276,-1.24724c0.69036,0.00152 1.24876,0.5624 1.24724,1.25276c-0.00152,0.69036 -0.5624,1.24876 -1.25276,1.24724c-0.69036,-0.00152 -1.24876,-0.5624 -1.24724,-1.25276z" fill="#33965e" stroke="none" stroke-width="0.5" stroke-linecap="butt"/><path d="M274.90738,117.85606c0.00152,-0.69036 0.5624,-1.24876 1.25276,-1.24724c0.69036,0.00152 1.24876,0.5624 1.24724,1.25276c-0.00152,0.69036 -0.5624,1.24876 -1.25276,1.24724c-0.69036,-0.00152 -1.24876,-0.5624 -1.24724,-1.25276z" fill="#33965e" stroke="none" stroke-width="0.5" stroke-linecap="butt"/><path d="M280.30428,119.26801c0.00152,-0.69036 0.5624,-1.24876 1.25276,-1.24724c0.69036,0.00152 1.24876,0.5624 1.24724,1.25276c-0.00152,0.69036 -0.5624,1.24876 -1.25276,1.24724c-0.69036,-0.00152 -1.24876,-0.5624 -1.24724,-1.25276z" fill="#33965e" stroke="none" stroke-width="0.5" stroke-linecap="butt"/><path d="M311.96912,118.68712c-0.95087,0.81138 -1.76225,-0.13948 -1.76225,-0.13948l-1.1969,-1.40266c0,0 -0.81138,-0.95087 0.13948,-1.76225c0.95087,-0.81138 1.76225,0.13948 1.76225,0.13948l1.1969,1.40265c0,0 0.81138,0.95087 -0.13948,1.76225z" fill="#33965e" stroke="none" stroke-width="0.5" stroke-linecap="butt"/><path d="M317.10241,120.14943c0.00152,-0.69036 0.5624,-1.24876 1.25276,-1.24724c0.69036,0.00152 1.24876,0.5624 1.24724,1.25276c-0.00152,0.69036 -0.5624,1.24876 -1.25276,1.24724c-0.69036,-0.00152 -1.24876,-0.5624 -1.24724,-1.25276z" fill="#33965e" stroke="none" stroke-width="0.5" stroke-linecap="butt"/><path d="M319.90108,120.75562c0.00152,-0.69036 0.5624,-1.24876 1.25276,-1.24724c0.69036,0.00152 1.24876,0.5624 1.24724,1.25276c-0.00152,0.69036 -0.5624,1.24876 -1.25276,1.24724c-0.69036,-0.00152 -1.24876,-0.5624 -1.24724,-1.25276z" fill="#33965e" stroke="none" stroke-width="0.5" stroke-linecap="butt"/><path d="M361.71204,115.8481c0.00152,-0.69036 0.5624,-1.24876 1.25276,-1.24724c0.69036,0.00152 1.24876,0.5624 1.24724,1.25276c-0.00152,0.69036 -0.5624,1.24876 -1.25276,1.24724c-0.69036,-0.00152 -1.24876,-0.5624 -1.24724,-1.25276z" fill="#33965e" stroke="none" stroke-width="0.5" stroke-linecap="butt"/><path d="M367.3045,119.2605c0.00152,-0.69036 0.5624,-1.24876 1.25276,-1.24724c0.69036,0.00152 1.24876,0.5624 1.24724,1.25276c-0.00152,0.69036 -0.5624,1.24876 -1.25276,1.24724c-0.69036,-0.00152 -1.24876,-0.5624 -1.24724,-1.25276z" fill="#33965e" stroke="none" stroke-width="0.5" stroke-linecap="butt"/><path d="M252.54505,100.80654c0.00152,-0.69036 0.5624,-1.24876 1.25276,-1.24724c0.69036,0.00152 1.24876,0.5624 1.24724,1.25276c-0.00152,0.69036 -0.5624,1.24876 -1.25276,1.24724c-0.69036,-0.00152 -1.24876,-0.5624 -1.24724,-1.25276z" fill="#2d7a1a" stroke="none" stroke-width="0.5" stroke-linecap="butt"/><path d="M275.74808,99.45787c0.00152,-0.69036 0.5624,-1.24876 1.25276,-1.24724c0.69036,0.00152 1.24876,0.5624 1.24724,1.25276c-0.00152,0.69036 -0.5624,1.24876 -1.25276,1.24724c-0.69036,-0.00152 -1.24876,-0.5624 -1.24724,-1.25276z" fill="#2d7a1a" stroke="none" stroke-width="0.5" stroke-linecap="butt"/><path d="M283.1401,103.07424c0.00152,-0.69036 0.5624,-1.24876 1.25276,-1.24724c0.69036,0.00152 1.24876,0.5624 1.24724,1.25276c-0.00152,0.69036 -0.5624,1.24876 -1.25276,1.24724c-0.69036,-0.00152 -1.24876,-0.5624 -1.24724,-1.25276z" fill="#2d7a1a" stroke="none" stroke-width="0.5" stroke-linecap="butt"/><path d="M297.55335,97.10612c0.00152,-0.69036 0.5624,-1.24876 1.25276,-1.24724c0.69036,0.00152 1.24876,0.5624 1.24724,1.25276c-0.00152,0.69036 -0.5624,1.24876 -1.25276,1.24724c-0.69036,-0.00152 -1.24876,-0.5624 -1.24724,-1.25276z" fill="#2d7a1a" stroke="none" stroke-width="0.5" stroke-linecap="butt"/><path d="M326.14708,99.96939c0.00152,-0.69036 0.5624,-1.24876 1.25276,-1.24724c0.69036,0.00152 1.24876,0.5624 1.24724,1.25276c-0.00152,0.69036 -0.5624,1.24876 -1.25276,1.24724c-0.69036,-0.00152 -1.24876,-0.5624 -1.24724,-1.25276z" fill="#2d7a1a" stroke="none" stroke-width="0.5" stroke-linecap="butt"/><path d="M330.74486,100.97955c0.00152,-0.69036 0.5624,-1.24876 1.25276,-1.24724c0.69036,0.00152 1.24876,0.5624 1.24724,1.25276c-0.00152,0.69036 -0.5624,1.24876 -1.25276,1.24724c-0.69036,-0.00152 -1.24876,-0.5624 -1.24724,-1.25276z" fill="#2d7a1a" stroke="none" stroke-width="0.5" stroke-linecap="butt"/><path d="M345.75322,97.21276c0.00152,-0.69036 0.5624,-1.24876 1.25277,-1.24724c0.69036,0.00152 1.24876,0.5624 1.24724,1.25276c-0.00152,0.69036 -0.5624,1.24876 -1.25277,1.24724c-0.69036,-0.00152 -1.24876,-0.5624 -1.24724,-1.25276z" fill="#2d7a1a" stroke="none" stroke-width="0.5" stroke-linecap="butt"/><path d="M358.94701,100.04196c0.00152,-0.69036 0.5624,-1.24876 1.25276,-1.24724c0.69036,0.00152 1.24876,0.5624 1.24724,1.25276c-0.00152,0.69036 -0.5624,1.24876 -1.25276,1.24724c-0.69036,-0.00152 -1.24876,-0.5624 -1.24724,-1.25276z" fill="#2d7a1a" stroke="none" stroke-width="0.5" stroke-linecap="butt"/><path d="M252.62868,108.20675c0.00092,-0.41421 0.33744,-0.74926 0.75165,-0.74834c0.41421,0.00092 0.74926,0.33744 0.74834,0.75166c-0.00092,0.41421 -0.33744,0.74926 -0.75165,0.74834c-0.41421,-0.00092 -0.74926,-0.33744 -0.74834,-0.75166z" fill="#2d7a1a" stroke="none" stroke-width="0.5" stroke-linecap="butt"/><path d="M260.82733,108.82489c0.00092,-0.41421 0.33744,-0.74926 0.75165,-0.74834c0.41421,0.00092 0.74926,0.33745 0.74834,0.75166c-0.00092,0.41421 -0.33744,0.74926 -0.75166,0.74834c-0.41421,-0.00092 -0.74926,-0.33744 -0.74834,-0.75165z" fill="#2d7a1a" stroke="none" stroke-width="0.5" stroke-linecap="butt"/><path d="M267.82731,108.84037c0.00092,-0.41421 0.33744,-0.74926 0.75165,-0.74834c0.41421,0.00092 0.74926,0.33744 0.74834,0.75165c-0.00092,0.41421 -0.33744,0.74926 -0.75165,0.74834c-0.41421,-0.00092 -0.74926,-0.33744 -0.74834,-0.75165z" fill="#2d7a1a" stroke="none" stroke-width="0.5" stroke-linecap="butt"/><path d="M276.62773,108.65984c0.00092,-0.41421 0.33745,-0.74926 0.75166,-0.74834c0.41421,0.00092 0.74926,0.33744 0.74834,0.75166c-0.00092,0.41421 -0.33744,0.74926 -0.75165,0.74834c-0.41421,-0.00092 -0.74926,-0.33744 -0.74834,-0.75165z" fill="#2d7a1a" stroke="none" stroke-width="0.5" stroke-linecap="butt"/><path d="M291.22814,108.49214c0.00092,-0.41421 0.33744,-0.74926 0.75165,-0.74834c0.41421,0.00092 0.74926,0.33744 0.74834,0.75165c-0.00092,0.41421 -0.33744,0.74926 -0.75165,0.74834c-0.41421,-0.00092 -0.74926,-0.33744 -0.74834,-0.75165z" fill="#2d7a1a" stroke="none" stroke-width="0.5" stroke-linecap="butt"/><path d="M305.62943,107.92401c0.00092,-0.41421 0.33744,-0.74926 0.75165,-0.74834c0.41421,0.00092 0.74926,0.33744 0.74834,0.75165c-0.00092,0.41421 -0.33744,0.74926 -0.75165,0.74834c-0.41421,-0.00092 -0.74926,-0.33744 -0.74834,-0.75165z" fill="#2d7a1a" stroke="none" stroke-width="0.5" stroke-linecap="butt"/><path d="M315.42985,107.7457c0.00092,-0.41421 0.33744,-0.74926 0.75165,-0.74834c0.41421,0.00092 0.74926,0.33744 0.74834,0.75165c-0.00092,0.41421 -0.33744,0.74926 -0.75165,0.74834c-0.41421,-0.00092 -0.74926,-0.33744 -0.74834,-0.75165z" fill="#2d7a1a" stroke="none" stroke-width="0.5" stroke-linecap="butt"/><path d="M324.22983,107.76516c0.00092,-0.41421 0.33744,-0.74926 0.75166,-0.74834c0.41421,0.00092 0.74926,0.33744 0.74834,0.75165c-0.00092,0.41421 -0.33744,0.74926 -0.75165,0.74834c-0.41421,-0.00092 -0.74926,-0.33745 -0.74834,-0.75166z" fill="#2d7a1a" stroke="none" stroke-width="0.5" stroke-linecap="butt"/><path d="M335.42715,108.98994c0.00092,-0.41421 0.33744,-0.74926 0.75165,-0.74834c0.41421,0.00092 0.74926,0.33744 0.74834,0.75165c-0.00092,0.41421 -0.33744,0.74926 -0.75165,0.74834c-0.41421,-0.00092 -0.74926,-0.33744 -0.74834,-0.75165z" fill="#2d7a1a" stroke="none" stroke-width="0.5" stroke-linecap="butt"/><path d="M342.42714,109.00542c0.00092,-0.41421 0.33744,-0.74926 0.75165,-0.74834c0.41421,0.00092 0.74926,0.33744 0.74834,0.75165c-0.00092,0.41421 -0.33744,0.74926 -0.75165,0.74834c-0.41421,-0.00092 -0.74926,-0.33744 -0.74834,-0.75165z" fill="#2d7a1a" stroke="none" stroke-width="0.5" stroke-linecap="butt"/><path d="M353.82709,109.03065c0.00092,-0.41421 0.33744,-0.74926 0.75165,-0.74834c0.41421,0.00092 0.74926,0.33744 0.74834,0.75165c-0.00092,0.41421 -0.33744,0.74926 -0.75165,0.74834c-0.41421,-0.00092 -0.74926,-0.33744 -0.74834,-0.75165z" fill="#2d7a1a" stroke="none" stroke-width="0.5" stroke-linecap="butt"/><path d="M360.22709,109.04481c0.00092,-0.41421 0.33744,-0.74926 0.75166,-0.74834c0.41421,0.00092 0.74926,0.33744 0.74834,0.75166c-0.00092,0.41421 -0.33744,0.74926 -0.75166,0.74834c-0.41421,-0.00092 -0.74926,-0.33744 -0.74834,-0.75166z" fill="#2d7a1a" stroke="none" stroke-width="0.5" stroke-linecap="butt"/><path d="M249.78886,126.20051c0.00092,-0.41421 0.33744,-0.74926 0.75166,-0.74834c0.41421,0.00092 0.74926,0.33744 0.74834,0.75165c-0.00092,0.41421 -0.33744,0.74926 -0.75165,0.74834c-0.41421,-0.00092 -0.74926,-0.33745 -0.74834,-0.75166z" fill="#33965e" stroke="none" stroke-width="0.5" stroke-linecap="butt"/><path d="M259.39547,123.22175c0.00092,-0.41421 0.33744,-0.74926 0.75165,-0.74834c0.41421,0.00092 0.74926,0.33744 0.74834,0.75165c-0.00092,0.41421 -0.33744,0.74926 -0.75165,0.74834c-0.41421,-0.00092 -0.74926,-0.33744 -0.74834,-0.75165z" fill="#33965e" stroke="none" stroke-width="0.5" stroke-linecap="butt"/><path d="M269.58704,127.0443c0.00092,-0.41421 0.33744,-0.74926 0.75166,-0.74834c0.41421,0.00092 0.74926,0.33744 0.74834,0.75165c-0.00092,0.41421 -0.33744,0.74926 -0.75166,0.74834c-0.41421,-0.00092 -0.74926,-0.33744 -0.74834,-0.75165z" fill="#33965e" stroke="none" stroke-width="0.5" stroke-linecap="butt"/><path d="M292.79938,121.49566c0.00092,-0.41421 0.33744,-0.74926 0.75165,-0.74834c0.41421,0.00092 0.74926,0.33744 0.74834,0.75165c-0.00092,0.41421 -0.33744,0.74926 -0.75165,0.74834c-0.41421,-0.00092 -0.74926,-0.33744 -0.74834,-0.75165z" fill="#33965e" stroke="none" stroke-width="0.5" stroke-linecap="butt"/><path d="M312.79888,121.73991c0.00092,-0.41421 0.33744,-0.74926 0.75165,-0.74834c0.41421,0.00092 0.74926,0.33744 0.74834,0.75166c-0.00092,0.41421 -0.33744,0.74926 -0.75165,0.74834c-0.41421,-0.00092 -0.74926,-0.33744 -0.74834,-0.75166z" fill="#33965e" stroke="none" stroke-width="0.5" stroke-linecap="butt"/><path d="M322.5878,126.76158c0.00092,-0.41421 0.33744,-0.74926 0.75165,-0.74834c0.41421,0.00092 0.74926,0.33744 0.74834,0.75165c-0.00092,0.41421 -0.33744,0.74926 -0.75165,0.74834c-0.41421,-0.00092 -0.74926,-0.33744 -0.74834,-0.75165z" fill="#33965e" stroke="none" stroke-width="0.5" stroke-linecap="butt"/><path d="M341.99882,121.80451c0.00092,-0.41421 0.33744,-0.74926 0.75165,-0.74834c0.41421,0.00092 0.74926,0.33744 0.74834,0.75165c-0.00092,0.41421 -0.33744,0.74926 -0.75165,0.74834c-0.41421,-0.00092 -0.74926,-0.33744 -0.74834,-0.75165z" fill="#33965e" stroke="none" stroke-width="0.5" stroke-linecap="butt"/><path d="M332.19928,121.58283c0.00092,-0.41421 0.33744,-0.74926 0.75165,-0.74834c0.41421,0.00092 0.74926,0.33744 0.74834,0.75165c-0.00092,0.41421 -0.33744,0.74926 -0.75165,0.74834c-0.41421,-0.00092 -0.74926,-0.33744 -0.74834,-0.75165z" fill="#33965e" stroke="none" stroke-width="0.5" stroke-linecap="butt"/><path d="M351.39746,122.42531c0.00092,-0.41421 0.33744,-0.74926 0.75165,-0.74834c0.41421,0.00092 0.74926,0.33744 0.74834,0.75165c-0.00092,0.41421 -0.33744,0.74926 -0.75165,0.74834c-0.41421,-0.00092 -0.74926,-0.33744 -0.74834,-0.75165z" fill="#33965e" stroke="none" stroke-width="0.5" stroke-linecap="butt"/><path d="M367.38547,127.86069c0.00092,-0.41421 0.33744,-0.74926 0.75165,-0.74834c0.41421,0.00092 0.74926,0.33744 0.74834,0.75165c-0.00092,0.41421 -0.33744,0.74926 -0.75165,0.74834c-0.41421,-0.00092 -0.74926,-0.33744 -0.74834,-0.75165z" fill="#33965e" stroke="none" stroke-width="0.5" stroke-linecap="butt"/><path d="M255.35212,142.81286c0.00092,-0.41421 0.33744,-0.74926 0.75165,-0.74834c0.41421,0.00092 0.74926,0.33744 0.74834,0.75166c-0.00092,0.41421 -0.33744,0.74926 -0.75165,0.74834c-0.41421,-0.00092 -0.74926,-0.33744 -0.74834,-0.75166z" fill="#75f20f" stroke="none" stroke-width="0.5" stroke-linecap="butt"/><path d="M261.95741,140.42746c0.00092,-0.41421 0.33744,-0.74926 0.75166,-0.74834c0.41421,0.00092 0.74926,0.33744 0.74834,0.75165c-0.00092,0.41421 -0.33744,0.74926 -0.75166,0.74834c-0.41421,-0.00092 -0.74926,-0.33744 -0.74834,-0.75165z" fill="#75f20f" stroke="none" stroke-width="0.5" stroke-linecap="butt"/><path d="M264.74943,144.03365c0.00092,-0.41421 0.33744,-0.74926 0.75166,-0.74834c0.41421,0.00092 0.74926,0.33744 0.74834,0.75165c-0.00092,0.41421 -0.33744,0.74926 -0.75166,0.74834c-0.41421,-0.00092 -0.74926,-0.33744 -0.74834,-0.75165z" fill="#75f20f" stroke="none" stroke-width="0.5" stroke-linecap="butt"/><path d="M318.75816,140.15313c0.00092,-0.41421 0.33744,-0.74926 0.75165,-0.74834c0.41421,0.00092 0.74926,0.33744 0.74834,0.75166c-0.00092,0.41421 -0.33744,0.74926 -0.75165,0.74834c-0.41421,-0.00092 -0.74926,-0.33744 -0.74834,-0.75166z" fill="#75f20f" stroke="none" stroke-width="0.5" stroke-linecap="butt"/><path d="M372.56112,138.87217c0.00092,-0.41421 0.33744,-0.74926 0.75165,-0.74834c0.41421,0.00092 0.74926,0.33745 0.74834,0.75166c-0.00092,0.41421 -0.33744,0.74926 -0.75166,0.74834c-0.41421,-0.00092 -0.74926,-0.33744 -0.74834,-0.75165z" fill="#75f20f" stroke="none" stroke-width="0.5" stroke-linecap="butt"/><path d="M380.9558,141.29075c0.00092,-0.41421 0.33744,-0.74926 0.75166,-0.74834c0.41421,0.00092 0.74926,0.33744 0.74834,0.75165c-0.00092,0.41421 -0.33744,0.74926 -0.75166,0.74834c-0.41421,-0.00092 -0.74926,-0.33744 -0.74834,-0.75165z" fill="#75f20f" stroke="none" stroke-width="0.5" stroke-linecap="butt"/></g><path d="M362.0376,149.77401c-0.01836,8.29964 -6.76141,15.01293 -15.06104,14.99457c-8.29962,-0.01836 -15.01292,-6.76144 -14.99455,-15.06106c0.01836,-8.29964 6.76143,-15.01293 15.06105,-14.99457c8.29962,0.01836 15.01291,6.76143 14.99455,15.06105z" fill="#191919" stroke="#000000" stroke-width="0" stroke-linecap="butt"/><path d="M281.72247,149.58845c0.01223,-5.52908 4.50434,-10.00137 10.03343,-9.98914c5.52908,0.01223 10.00138,4.50436 9.98914,10.03344c-0.01223,5.52908 -4.50436,10.00138 -10.03344,9.98914c-5.52908,-0.01223 -10.00136,-4.50436 -9.98913,-10.03344z" fill="none" stroke="#191919" stroke-width="5" stroke-linecap="butt"/><path d="M286.34232,149.59867c0.00659,-2.97761 2.42577,-5.38611 5.40337,-5.37952c2.97761,0.00659 5.3861,2.42576 5.37951,5.40337c-0.00659,2.97761 -2.42576,5.38611 -5.40337,5.37952c-2.97761,-0.00659 -5.3861,-2.42576 -5.37951,-5.40337z" fill="none" stroke="#191919" stroke-width="1" stroke-linecap="butt"/></g></g></g></svg>