<svg version="1.1" xmlns="http://www.w3.org/2000/svg" xmlns:xlink="http://www.w3.org/1999/xlink" width="222.12928" height="285.30994" viewBox="0,0,222.12928,285.30994"><g transform="translate(-204.98869,-38.8875)"><g stroke-miterlimit="10"><path d="" fill="none" stroke="#000000" stroke-width="2" stroke-linecap="round"/><path d="M410.64348,170.92061c-12.06293,24.84892 -55.92089,153.27684 -55.92089,153.27684l-80.07147,-0.55421c0,0 -41.68079,-124.72096 -55.89841,-150.92466c-5.21453,-9.6106 -2.21763,-19.65434 11.27701,-19.5766c40.96641,0.23603 128.21213,0.73871 165.18395,0.95171c3.47525,0.02002 10.7788,0.66395 14.3212,3.99455c3.32036,3.12184 3.06584,8.80062 1.10863,12.83237z" fill="#000000" stroke="#000000" stroke-width="0" stroke-linecap="butt"/><g fill="#ffffff" stroke="#000000" stroke-width="0"><path d="M319.87727,195.2325c0,0 2.47805,45.18636 2.4121,53.69135c-0.02358,3.04071 -2.83573,0.94112 -2.83573,0.94112l-3.23245,6.77729l-8.79836,-21.09422l4.52455,-40.11727z" stroke-linecap="round"/><path d="M326.3475,189.90415c0.07537,2.25535 0.65493,4.63274 -1.19764,6.14216c-1.95977,1.59676 -6.44121,2.26144 -9.58109,2.26144c-2.68266,0 -5.98466,-0.23144 -7.93997,-1.43866c-2.49665,-1.54145 -3.31346,-4.36218 -3.40045,-6.96495c-0.07958,-2.38111 0.49282,-5.51959 2.53585,-7.04871c1.93916,-1.45139 5.26852,-1.3549 8.2429,-1.3549c3.50555,0 7.25905,0.08587 9.34992,2.01933c1.55223,1.43538 1.92442,4.40678 1.99051,6.38428z" stroke-linecap="butt"/></g><path d="M213.93594,306.61252l-8.94725,-267.72501h213.18203l8.94725,267.72501z" fill="none" stroke="none" stroke-width="0" stroke-linecap="butt"/><path d="M251.10465,132.82128c-1.11293,-33.30185 26.74476,-60.29833 62.22188,-60.29833c35.47713,0 65.13923,26.99648 66.25216,60.29833c1.11293,33.30185 -26.74475,60.29834 -62.22188,60.29834c-35.47712,0 -65.13923,-26.99649 -66.25216,-60.29834z" fill="#000000" stroke="#000000" stroke-width="2" stroke-linecap="butt"/><g stroke="#000000" stroke-width="0" stroke-linecap="butt"><path d="M250.54737,135.18419l-16.20345,-62.69671c0,0 50.77233,-4.01247 75.59414,-4.94998c24.08231,-0.90958 71.18535,-0.59381 71.18535,-0.59381l-1.81152,63.89589z" fill="#000000"/><path d="M251.42977,134.30028l-3.00072,-10.17038l130.498,-1.0678l-0.36867,10.08137z" fill="#ffffff"/><path d="M232.10771,142.09832c0,0 -3.33783,-3.65822 -4.21159,-5.776c-0.93334,-2.2622 -1.22153,-7.39253 -1.22153,-7.39253l176.05051,-0.75584c0,0 -0.42128,4.01527 -1.09102,6.13824c-0.72751,2.30607 -3.1151,7.1944 -3.1151,7.1944c0,0 -1.74494,0.0062 -4.87258,0.01733c-1.48052,0.00526 -1.15732,28.34496 -3.21908,28.3523c-0.53688,0.00191 -0.53143,-8.1529 -1.34767,-15.42891c-0.77129,-6.87534 -3.5298,-12.8946 -4.10233,-12.89256c-31.12266,0.11067 -107.32072,0.38161 -136.64775,0.4859c-2.58479,0.00919 -1.25754,11.40654 -3.0382,10.82347c-4.56994,-1.49642 -6.11099,-10.79093 -6.96191,-10.78791c-3.46497,0.01232 -6.22175,0.02212 -6.22175,0.02212z" fill="#000000"/></g><path d="M377.04362,125.34859c-0.20622,-0.72761 0.51531,-0.90951 0.51531,-0.90951l0.43043,-0.0631c1.5329,-1.02641 2.49687,-2.51652 3.02962,-4.19236c-0.26293,-0.87255 -0.36022,-1.72314 -0.23927,-2.49735c0,0 0.11099,-0.66631 0.76015,-0.60364c0.01447,-0.36074 0.01486,-0.72236 0.00227,-1.08261c0,0 -0.02506,-0.75 0.72494,-0.75c0.75,0 0.77506,0.75 0.77506,0.75c0.04581,1.42993 -0.09392,2.85095 -0.45772,4.18248c1.04947,2.81264 4.14149,6.22932 6.23365,6.56752l0.68117,-0.1521c0,0 0.73052,-0.14709 0.90218,0.58835c0.17167,0.73544 -0.55886,0.88252 -0.55886,0.88252l-0.97436,0.18123c-2.45726,-0.52486 -5.43132,-3.22189 -7.01649,-6.11865c-0.673,1.3652 -1.65118,2.56708 -2.98858,3.49269l-0.89176,0.27024c0,0 -0.72153,0.1819 -0.92775,-0.54571z" fill="#000000" stroke="none" stroke-width="0.5" stroke-linecap="butt"/><path d="M285.85407,166.39207c0.09914,-0.03887 0.22488,-0.06336 0.38431,-0.06336c0.77287,0 0.7921,0.57532 0.7921,0.57532l-0.03292,0.20161c0.28768,0.59783 1.79861,2.4976 1.28253,3.01136c-0.63283,0.62997 -3.50923,-0.1041 -3.91634,-0.65442c-0.362,-0.48935 0.37973,-1.97446 0.34814,-2.55855c0,0 -0.01923,-0.57532 0.75364,-0.57532c0.15944,0 0.28681,0.02448 0.38855,0.06336z" fill="#ffffff" stroke="none" stroke-width="0.5" stroke-linecap="butt"/><path d="M299.62295,168.9736c0.56388,-0.25522 0.99671,0.16058 0.99671,0.16058l0.88133,0.86502c0.21673,0.57086 0.86981,1.86609 0.18581,2.38001c-0.50527,0.37964 -2.70021,0.2321 -3.24322,-0.26219c-0.53967,-0.49125 -0.219,-2.18753 -0.24045,-2.82943c0,0 -0.01923,-0.57532 0.75364,-0.57532c0.36282,0 0.55956,0.12679 0.66617,0.26132z" fill="#ffffff" stroke="none" stroke-width="0.5" stroke-linecap="butt"/><path d="M315.41011,168.13696c0.77287,0 0.7921,0.57532 0.7921,0.57532l0.0175,0.69679c0.13859,0.36682 1.44104,2.81343 1.30361,3.02657c-0.43472,0.67413 -3.43022,0.22673 -3.87046,-0.10918c-0.55259,-0.42165 -0.23883,-2.24839 -0.25884,-2.84709c0,0 -0.01923,-0.57532 0.75364,-0.57532c0.23854,0 0.40529,0.05481 0.52183,0.13059l-0.013,-0.32236c0,0 -0.01923,-0.57532 0.75364,-0.57532z" fill="#ffffff" stroke="none" stroke-width="0.5" stroke-linecap="butt"/><path d="M328.42266,169.09842c0.09939,-0.13124 0.28728,-0.2526 0.64224,-0.2526c0.77287,0 0.7921,0.57532 0.7921,0.57532l-0.03933,0.00984c0.29826,0.61983 2.11511,2.47792 1.85003,2.94643c-0.50981,0.9011 -4.01438,0.03908 -4.42398,-0.33247c-0.6113,-0.55452 0.07231,-1.78945 0.04346,-2.43203c0,0 -0.01923,-0.57532 0.75364,-0.57532c0.15595,0 0.28122,0.02342 0.38184,0.06082z" fill="#ffffff" stroke="none" stroke-width="0.5" stroke-linecap="butt"/><path d="M338.8318,168.00859c0.07804,-0.01851 0.16877,-0.02923 0.27427,-0.02923c0.54195,0 0.71332,0.2829 0.76736,0.45194c1.10553,0.61246 2.74208,2.07117 1.73541,2.987c-0.16626,0.15127 -3.97489,0.38311 -4.18227,0.24421c-0.75525,-0.50589 -0.17412,-3.20529 -0.12968,-3.91592c0,0 0.03589,-0.57385 0.80816,-0.53286c0.77227,0.04099 0.73639,0.61485 0.73639,0.61485c-0.00375,0.05995 -0.00692,0.11997 -0.00964,0.18001z" fill="#ffffff" stroke="none" stroke-width="0.5" stroke-linecap="butt"/><path d="M345.36636,166.39207c0.00678,-0.00756 0.01383,-0.01515 0.0212,-0.02279c0.44531,-0.4619 1.07729,-0.11892 1.07729,-0.11892l0.77946,0.43592c0.51873,0.59626 2.68674,2.33068 2.14744,3.15985c-0.38017,0.5845 -4.3224,0.97689 -4.9095,0.46265c-0.29885,-0.26177 -0.02931,-2.72891 -0.23193,-3.26521c0,0 -0.2061,-0.55814 0.53903,-0.69767c0.24793,-0.04643 0.43618,-0.01562 0.57702,0.04618z" fill="#ffffff" stroke="none" stroke-width="0.5" stroke-linecap="butt"/><path d="M352.30674,166.00955c0.34293,-0.43115 0.9842,-0.1954 0.9842,-0.1954l0.17399,0.13104c0.89291,0.00739 3.17767,0.20682 3.38485,1.11489c0.14819,0.64952 -2.6819,1.66566 -3.39788,1.56484c-1.38053,-0.19442 -1.72992,-1.24768 -2.40991,-1.97705c0,0 -0.44471,-0.47869 0.18769,-0.79781c0.62863,-0.31723 1.0718,0.15389 1.07706,0.15952z" fill="#ffffff" stroke="none" stroke-width="0.5" stroke-linecap="butt"/><path d="M276.08858,163.26038c0.37461,0 0.57216,0.13516 0.67629,0.27446c0.04623,0.02337 0.09296,0.05174 0.13987,0.08582c0.47066,0.34185 0.1695,0.68372 0.06133,0.78416c0.62533,0.87256 1.55366,2.39316 -0.25636,3.00848c-0.55707,0.18938 -4.373,-0.81399 -4.3965,-1.60319c-0.02505,-0.84146 1.93382,-1.37574 3.0257,-1.91095l-0.00397,-0.06346c0,0 -0.01923,-0.57532 0.75364,-0.57532z" fill="#ffffff" stroke="none" stroke-width="0.5" stroke-linecap="butt"/><path d="M280.44832,166.13696c0.3768,-0.06552 0.77837,-0.06769 1.19723,0h0.3786l0.06723,-0.16225l0.76223,0.18758c0.31823,0.0723 0.55511,0.29118 0.56376,0.54999c0.01062,0.31774 -0.3268,0.57532 -0.75364,0.57532h-0.50031c0.23096,0.73585 0.04505,1.6799 -0.34952,2.06234c-0.51706,0.50117 -1.44781,0.42754 -2.15832,0.4307c-0.53048,0.00236 -1.98083,0.04721 -2.2373,-0.30385c-0.24629,-0.33713 0.31631,-0.71641 0.45378,-1.07953c0.30352,-0.80171 0.80257,-1.4279 1.43585,-1.82491c0.09933,-0.43538 0.74115,-0.43538 0.74115,-0.43538c0.13309,0 0.26619,0 0.39927,0z" fill="#ffffff" stroke="none" stroke-width="0.5" stroke-linecap="butt"/><path d="M293.18548,168.41665c0.09951,-0.09534 0.23135,-0.16247 0.40222,-0.18899c1.52275,-0.2363 2.88555,2.74755 2.18872,3.40703c-0.7117,0.67354 -3.79653,0.13322 -4.1948,-0.55567c-0.04081,-0.07058 0.68501,-1.6932 0.66303,-2.09965c0,0 -0.01923,-0.57532 0.75364,-0.57532c0.06807,0 0.1303,0.00446 0.18718,0.0126z" fill="#ffffff" stroke="none" stroke-width="0.5" stroke-linecap="butt"/><path d="M307.33995,169.70564l0.78678,0.22168c0.3846,0.41399 1.91649,1.75455 1.7083,2.23179c-0.33087,0.75844 -4.23255,0.84344 -4.7523,0.27653c-0.05297,-0.05777 0.79797,-2.25626 0.87789,-2.5205c0,0 0.1688,-0.55814 0.92325,-0.41861c0.22373,0.04138 0.36628,0.11957 0.45611,0.2091z" fill="#ffffff" stroke="none" stroke-width="0.5" stroke-linecap="butt"/><path d="M321.13789,170.95048c0.07183,-0.046 0.16514,-0.08613 0.28564,-0.11628c0.72712,-0.18193 0.98976,0.36386 0.98976,0.36386l0.15226,0.40804c3.09399,1.6683 -1.67341,2.6522 -2.64912,1.71489c-0.4984,-0.4788 -0.29501,-2.05387 -0.31687,-2.70808c0,0 -0.01923,-0.57532 0.75364,-0.57532c0.77287,0 0.7921,0.57532 0.7921,0.57532c0.00373,0.11151 0.00043,0.22424 -0.0074,0.33758z" fill="#ffffff" stroke="none" stroke-width="0.5" stroke-linecap="butt"/><path d="M294.44192,184.11038c-0.60714,0.27278 -1.02978,-0.18214 -1.02978,-0.18214c-0.45264,-0.48879 -2.47894,-2.55934 -2.27993,-3.11676c0.30221,-0.84646 3.85674,-1.3709 4.78542,-0.9292c1.24001,0.58976 0.6581,2.66762 0.32097,3.454l-0.8611,0.67967c0,0 -0.43707,0.33366 -0.93558,0.09446z" fill="#ffffff" stroke="none" stroke-width="0.5" stroke-linecap="butt"/><path d="M299.25231,189.47135c-0.65374,-0.31913 -0.24101,-0.79781 -0.24101,-0.79781l0.05708,-0.0662c-0.12787,-0.11699 -0.17411,-0.24222 -0.17411,-0.24222c-0.23263,-0.66105 -1.85627,-2.38616 -1.3541,-3.04451c0.59467,-0.77961 4.36039,-1.28594 5.19506,-0.308c1.02767,1.20408 -1.16054,2.84248 -1.92044,3.72388l-0.49601,0.57532c0,0 -0.41271,0.47869 -1.06644,0.15956z" fill="#ffffff" stroke="none" stroke-width="0.5" stroke-linecap="butt"/><path d="M307.64298,190.19282c-0.06794,0.16607 -0.246,0.37515 -0.7119,0.37515c-0.77287,0 -0.7921,-0.57532 -0.7921,-0.57532l0.48248,-0.70634c-0.10973,-0.6999 -0.82893,-2.4482 -0.51519,-2.8161c0.48601,-0.56994 3.73501,-1.18264 4.56579,-0.52804c1.86124,1.46652 -1.25424,3.57769 -3.02908,4.25066z" fill="#ffffff" stroke="none" stroke-width="0.5" stroke-linecap="butt"/><path d="M317.12487,189.66615c0.01337,0.02434 0.02543,0.04747 0.03598,0.06926c0,0 0.2203,0.4578 -0.3012,0.67461c-0.09483,0.13928 -0.28334,0.27441 -0.65791,0.27441c-0.77287,0 -0.7921,-0.57532 -0.7921,-0.57532l0.02717,-0.3737c0.00851,-0.02048 0.01719,-0.04283 0.02606,-0.06689c-0.44655,-0.72723 -1.16464,-1.76502 -0.89956,-2.3764c0.18519,-0.4271 2.63609,-2.22883 3.53383,-1.44975c0.78609,0.68219 -0.40935,2.73875 -0.97227,3.82379z" fill="#ffffff" stroke="none" stroke-width="0.5" stroke-linecap="butt"/><path d="M321.45304,189.98646c-0.19492,-0.20981 -0.18291,-0.38897 -0.10791,-0.52405c-0.04273,-0.09953 -0.04537,-0.17863 -0.04537,-0.17863c-0.01858,-0.70088 -0.06122,-2.75429 0.63188,-3.28339c0.70938,-0.54153 4.53186,-0.56697 4.898,0.41187c0.29077,0.77733 -2.82044,2.97894 -3.53945,3.35022l-0.76005,0.38355c0,0 -0.6324,0.31913 -1.0771,-0.15956z" fill="#ffffff" stroke="none" stroke-width="0.5" stroke-linecap="butt"/><path d="M331.38689,186.5251c0,0 0.22191,0.55504 -0.51866,0.70642c-0.74057,0.15138 -0.96248,-0.40366 -0.96248,-0.40366c-0.28622,-0.71592 -1.82561,-3.0975 -0.95897,-3.81831c1.8622,-1.54885 3.77684,0.56979 3.39746,1.94882l-0.0525,0.05002l0.02085,0.00766l-0.64976,1.01801c-0.0728,0.12066 -0.20113,0.21825 -0.36166,0.27498c0.0284,0.07206 0.05695,0.14409 0.08573,0.21608z" fill="#ffffff" stroke="none" stroke-width="0.5" stroke-linecap="butt"/><path d="M337.22525,183.79293c-0.77287,0 -0.7921,-0.57532 -0.7921,-0.57532c-0.02052,-0.7216 -0.99426,-2.39959 -0.79844,-2.92771c0.10443,-0.28165 2.32927,-0.84902 2.64197,-0.62524c0.41019,0.29353 0.59144,1.66696 0.68737,2.24917l-0.07201,0.09093l0.05405,0.00999l-0.22845,0.75541c-0.06954,0.2562 -0.37096,0.44746 -0.73876,0.44746c0,0 0.01923,0.57532 -0.75364,0.57532z" fill="#ffffff" stroke="none" stroke-width="0.5" stroke-linecap="butt"/></g></g></svg>