<svg version="1.1" xmlns="http://www.w3.org/2000/svg" xmlns:xlink="http://www.w3.org/1999/xlink" width="213.18203" height="281.18476" viewBox="0,0,213.18203,281.18476"><defs><linearGradient x1="320.08742" y1="187.07227" x2="320.08742" y2="244.23177" gradientUnits="userSpaceOnUse" id="color-1"><stop offset="0" stop-color="#7a6b00"/><stop offset="1" stop-color="#7a6b00" stop-opacity="0"/></linearGradient></defs><g transform="translate(-214.78369,-38.88751)"><g stroke-miterlimit="10"><g stroke-linecap="butt"><g stroke="#000000" stroke-width="3.5"><path d="M311.69513,219.5c-9.04692,0 -9.04692,-4.75 -9.04692,-4.75l0.01747,-2.70485c-0.19665,-0.80165 -0.39331,-1.6033 -0.58996,-2.40495c-1.77495,-8.5556 2.86249,-16.82773 1.85971,-25.26172c-0.59313,-4.98856 -2.50419,-10.94186 -4.26635,-15.647c-1.91626,-5.11657 -6.10975,-9.49228 -6.53466,-14.76624c-0.45304,-5.62319 6.83326,-9.96004 6.33942,-15.21525c0,0 0,-4.75 9.04692,-4.75c9.04692,0 9.04692,4.75 9.04692,4.75c-0.08067,1.586 0.37598,3.20496 -0.24201,4.75799c-1.12763,2.83378 -4.91581,5.23328 -6.23658,8.04396c-1.29861,2.76354 1.558,6.36903 2.94,8.86381c2.90057,5.23604 4.55273,10.65128 6.06322,16.04632c1.02032,3.64434 2.27049,7.18507 1.90562,10.88392c-0.70528,7.14978 -3.51243,13.98466 -1.95315,21.18045c0.22659,0.97613 0.45319,1.95225 0.67978,2.92838l0.01749,3.29516c0,0 0,4.75 -9.04693,4.75z" fill="#39940f"/><path d="M290.11917,221.45226c-8.956,0.67175 -10.23542,-4.03051 -10.23542,-4.03051l-0.6809,-2.53244c-0.45881,-2.44961 -0.66854,-4.9145 -0.66854,-7.37592c0.83535,-4.40695 1.44495,-9.2394 3.4299,-13.57505c2.1456,-4.68655 5.09553,-8.14884 5.45281,-13.02432c0.41409,-5.65068 -2.42365,-10.88106 -3.15734,-16.49396c-0.85693,-6.55566 -0.07781,-13.62799 2.00422,-20.11534c1.18257,-3.68475 3.7503,-7.15501 5.13229,-10.8196c0,0 1.77425,-4.65775 10.64549,-3.7262c8.87124,0.93155 7.09698,5.58931 7.09698,5.58931c-3.69009,9.60395 -8.1497,18.41129 -6.83066,28.39839c0.78605,5.95155 3.6999,11.48445 3.19137,17.50605c-0.46541,5.51099 -3.52605,9.72208 -5.97487,14.97567c-1.56117,3.34924 -2.27895,8.41668 -2.91881,11.75829c0,1.98859 0.21719,3.97907 0.6012,5.95741l0.58885,2.13422c0,0 1.27942,4.70226 -7.67657,5.37401z" fill="#28670a"/><path d="M326.74647,220.4936c-8.39986,-1.7641 -5.03992,-6.17437 -5.03992,-6.17437l0.62268,0.09743c0.00375,-0.92113 0.0075,-1.84225 0.01124,-2.76338c-1.71924,-8.85784 -6.53031,-17.57677 -6.98463,-26.51119c-0.308,-6.05701 0.48337,-10.07155 -0.5854,-15.84748c-1.23282,-6.66246 -4.30272,-13.23849 -5.12479,-19.9486c-0.55984,-4.5696 0.53881,-9.1209 -0.57886,-13.67351c0,0 -1.12213,-4.71332 7.85493,-5.30248c8.97706,-0.58916 10.0992,4.12416 10.0992,4.12416c1.11151,4.78842 0.09981,9.5322 0.69089,14.32649c0.80365,6.5184 3.84396,12.9103 5.03316,19.38474c1.26271,6.87455 0.34171,9.1496 0.68434,16.48585c0.41596,8.90627 5.32552,17.64477 6.98255,26.48881c0.00374,1.07887 0.00749,2.15774 0.01123,3.23661l-1.91681,3.43078c0,0 -3.35994,4.41026 -11.7598,2.64616z" fill="#448f21"/><path d="M278.04692,226.83333c-9.04692,0 -9.04692,-4.75 -9.04692,-4.75v-0.33333c0,-13.32614 0.18658,-26.55482 2.59251,-39.84679c0.99361,-5.48936 3.98647,-10.89966 4.40493,-16.41588c0.79019,-10.41652 0.76331,-20.7639 2.5628,-31.16737c0,0 0.81906,-4.73049 9.82883,-4.30045c9.00977,0.43005 8.1907,5.16054 8.1907,5.16054c-1.78402,10.29268 -1.66761,20.53032 -2.51618,30.83263c-0.46855,5.68862 -3.46686,11.25955 -4.48327,16.91745c-2.32653,12.95067 -2.48647,25.83665 -2.48647,38.81987v0.33333c0,0 0,4.75 -9.04693,4.75z" fill="#275313"/><path d="M320.42461,215.75l0.01748,-3.29516c0.22659,-0.97613 0.45319,-1.95225 0.67978,-2.92838c1.55928,-7.19579 -1.24788,-14.03067 -1.95316,-21.18045c-0.36487,-3.69885 0.88531,-7.23959 1.90562,-10.88392c1.51049,-5.39504 3.16266,-10.81028 6.06322,-16.04632c1.38201,-2.49478 4.23861,-6.10027 2.94,-8.86381c-1.32077,-2.81068 -5.10894,-5.21018 -6.23657,-8.04396c-0.61799,-1.55303 -0.16134,-3.172 -0.24201,-4.75799c0,0 0,-4.75 9.04692,-4.75c9.04693,0 9.04693,4.75 9.04693,4.75c-0.49385,5.25521 6.79246,9.59205 6.33941,15.21525c-0.42491,5.27396 -4.6184,9.64968 -6.53466,14.76624c-1.76216,4.70514 -3.67322,10.65844 -4.26635,15.647c-1.00278,8.43399 3.63466,16.70612 1.85971,25.26172c-0.19665,0.80165 -0.39332,1.6033 -0.58997,2.40495l0.01747,2.70485c0,0 0,4.75 -9.04692,4.75c-9.04692,0 -9.04692,-4.75 -9.04692,-4.75z" fill="#39940f"/><path d="M343.37092,217.07825l0.58885,-2.13422c0.38401,-1.97834 0.6012,-3.96882 0.6012,-5.95741c-0.63987,-3.3416 -1.35765,-8.40905 -2.91882,-11.75828c-2.44883,-5.25359 -5.50946,-9.46468 -5.97487,-14.97567c-0.50853,-6.0216 2.40533,-11.5545 3.19137,-17.50604c1.31904,-9.9871 -3.14057,-18.79444 -6.83067,-28.39839c0,0 -1.77425,-4.65776 7.09699,-5.58931c8.87124,-0.93155 10.64549,3.7262 10.64549,3.7262c1.38199,3.6646 3.94972,7.13486 5.13229,10.8196c2.08203,6.48735 2.86115,13.55968 2.00423,20.11534c-0.7337,5.6129 -3.57144,10.84328 -3.15735,16.49396c0.35728,4.87548 3.30722,8.33777 5.45282,13.02432c1.98495,4.33565 2.59455,9.16809 3.42989,13.57505c0,2.46143 -0.20973,4.92631 -0.66854,7.37592l-0.6809,2.53244c0,0 -1.27943,4.70226 -10.23542,4.03051c-8.956,-0.67175 -7.67657,-5.37401 -7.67657,-5.37401z" fill="#28670a"/><path d="M302.6604,218.84744l-1.91681,-3.43078c0.00374,-1.07887 0.00748,-2.15774 0.01122,-3.23661c1.65703,-8.84404 6.56659,-17.58254 6.98255,-26.48881c0.34263,-7.33624 -0.57836,-9.6113 0.68434,-16.48585c1.18921,-6.47443 4.22952,-12.86634 5.03316,-19.38474c0.59108,-4.79429 -0.42062,-9.53806 0.69089,-14.32649c0,0 1.12213,-4.71332 10.09919,-4.12416c8.97706,0.58916 7.85493,5.30248 7.85493,5.30248c-1.11768,4.55261 -0.01902,9.10391 -0.57886,13.67351c-0.82207,6.7101 -3.89197,13.28614 -5.12478,19.9486c-1.06878,5.77593 -0.2774,9.79047 -0.58541,15.84748c-0.45432,8.93442 -5.26539,17.65335 -6.98463,26.51119c0.00374,0.92113 0.00749,1.84225 0.01123,2.76338l0.62268,-0.09743c0,0 3.35994,4.41026 -5.03992,6.17437c-8.39986,1.76411 -11.7598,-2.64616 -11.7598,-2.64616z" fill="#448f21"/><path d="M354.07282,223.08333v-0.33333c0,-12.98322 -0.15995,-25.86921 -2.48647,-38.81987c-1.01641,-5.6579 -4.01473,-11.22883 -4.48328,-16.91745c-0.84856,-10.30231 -0.73215,-20.53995 -2.51618,-30.83263c0,0 -0.81907,-4.73049 8.1907,-5.16054c9.00977,-0.43005 9.82884,4.30045 9.82884,4.30045c1.79949,10.40347 1.77261,20.75085 2.5628,31.16737c0.41845,5.51622 3.41132,10.92652 4.40493,16.41588c2.40593,13.29197 2.5925,26.52065 2.5925,39.84679v0.33333c0,0 0,4.75 -9.04692,4.75c-9.04692,0 -9.04692,-4.75 -9.04692,-4.75z" fill="#275313"/></g><g stroke="none" stroke-width="0.5"><path d="M311.69513,219.5c-9.04692,0 -9.04692,-4.75 -9.04692,-4.75l0.01747,-2.70484c-0.19665,-0.80165 -0.39331,-1.6033 -0.58996,-2.40495c-1.77495,-8.55561 2.86249,-16.82773 1.85971,-25.26172c-0.59313,-4.98856 -2.50419,-10.94186 -4.26635,-15.64699c-1.91625,-5.11657 -6.10975,-9.49228 -6.53466,-14.76625c-0.45304,-5.62319 6.83326,-9.96004 6.33942,-15.21524c0,0 0,-4.75 9.04692,-4.75c9.04692,0 9.04692,4.75 9.04692,4.75c-0.08067,1.586 0.37598,3.20496 -0.24201,4.75799c-1.12764,2.83378 -4.9158,5.23328 -6.23658,8.04396c-1.29861,2.76354 1.55799,6.36903 2.94,8.86381c2.90057,5.23604 4.55274,10.65128 6.06322,16.04632c1.02032,3.64433 2.27049,7.18507 1.90562,10.88392c-0.70528,7.14978 -3.51243,13.98466 -1.95315,21.18045c0.22659,0.97613 0.45318,1.95225 0.67978,2.92838l0.01748,3.29515c0,0 0,4.75 -9.04692,4.75z" fill="#39940f"/><path d="M290.11917,221.45226c-8.956,0.67175 -10.23542,-4.03051 -10.23542,-4.03051l-0.6809,-2.53244c-0.45881,-2.44961 -0.66854,-4.9145 -0.66854,-7.37592c0.83535,-4.40695 1.44495,-9.2394 3.4299,-13.57505c2.14561,-4.68655 5.09553,-8.14884 5.45282,-13.02432c0.41409,-5.65068 -2.42365,-10.88106 -3.15735,-16.49396c-0.85692,-6.55566 -0.0778,-13.62799 2.00423,-20.11534c1.18257,-3.68475 3.7503,-7.15501 5.13229,-10.8196c0,0 1.77424,-4.65776 10.64549,-3.7262c8.87124,0.93155 7.09699,5.58931 7.09699,5.58931c-3.6901,9.60395 -8.14971,18.41128 -6.83066,28.39839c0.78604,5.95155 3.69991,11.48445 3.19137,17.50604c-0.46541,5.51099 -3.52604,9.72208 -5.97487,14.97567c-1.56117,3.34924 -2.27895,8.41668 -2.91881,11.75829c0,1.98859 0.21719,3.97907 0.6012,5.95741l0.58885,2.13422c0,0 1.27943,4.70226 -7.67657,5.37401z" fill="#28670a"/><path d="M326.74647,220.4936c-8.39986,-1.7641 -5.03992,-6.17437 -5.03992,-6.17437l0.62268,0.09743c0.00374,-0.92113 0.00749,-1.84225 0.01124,-2.76338c-1.71924,-8.85784 -6.53031,-17.57677 -6.98463,-26.51119c-0.308,-6.05701 0.48337,-10.07155 -0.5854,-15.84748c-1.23282,-6.66245 -4.30272,-13.23849 -5.12479,-19.94859c-0.55983,-4.5696 0.53882,-9.12091 -0.57886,-13.67351c0,0 -1.12213,-4.71332 7.85493,-5.30248c8.97706,-0.58917 10.09919,4.12415 10.09919,4.12415c1.11151,4.78843 0.09981,9.5322 0.69089,14.32648c0.80364,6.5184 3.84396,12.91031 5.03317,19.38474c1.2627,6.87455 0.34171,9.1496 0.68434,16.48584c0.41596,8.90627 5.32552,17.64477 6.98255,26.48881c0.00374,1.07887 0.00749,2.15774 0.01123,3.23661l-1.9168,3.43078c0,0 -3.35994,4.41026 -11.7598,2.64616z" fill="#448f21"/><path d="M278.04692,226.83333c-9.04692,0 -9.04692,-4.75 -9.04692,-4.75v-0.33334c0,-13.32614 0.18658,-26.55482 2.59251,-39.84679c0.99361,-5.48936 3.98647,-10.89966 4.40493,-16.41588c0.79019,-10.41652 0.76331,-20.76389 2.5628,-31.16737c0,0 0.81906,-4.7305 9.82883,-4.30045c9.00977,0.43005 8.1907,5.16054 8.1907,5.16054c-1.78402,10.29268 -1.66761,20.53031 -2.51618,30.83263c-0.46854,5.68862 -3.46686,11.25955 -4.48327,16.91745c-2.32653,12.95066 -2.48648,25.83665 -2.48648,38.81987v0.33334c0,0 0,4.75 -9.04692,4.75z" fill="#275313"/><path d="M320.42461,215.75l0.01748,-3.29515c0.22659,-0.97613 0.45318,-1.95225 0.67978,-2.92838c1.55928,-7.1958 -1.24788,-14.03068 -1.95315,-21.18045c-0.36487,-3.69885 0.8853,-7.23959 1.90562,-10.88392c1.51048,-5.39504 3.16265,-10.81028 6.06322,-16.04632c1.38201,-2.49478 4.23862,-6.10027 2.94,-8.86381c-1.32077,-2.81068 -5.10894,-5.21018 -6.23658,-8.04396c-0.61799,-1.55303 -0.16134,-3.172 -0.24201,-4.75799c0,0 0,-4.75 9.04692,-4.75c9.04692,0 9.04692,4.75 9.04692,4.75c-0.49385,5.25521 6.79246,9.59206 6.33942,15.21524c-0.42491,5.27397 -4.61841,9.64968 -6.53466,14.76625c-1.76216,4.70513 -3.67322,10.65843 -4.26635,15.64699c-1.00278,8.43399 3.63466,16.70612 1.85971,25.26172c-0.19665,0.80165 -0.39331,1.6033 -0.58996,2.40495l0.01747,2.70484c0,0 0,4.75 -9.04692,4.75c-9.04692,0 -9.04692,-4.75 -9.04692,-4.75z" fill="#39940f"/><path d="M343.37092,217.07825l0.58885,-2.13423c0.38401,-1.97834 0.6012,-3.96882 0.6012,-5.95741c-0.63987,-3.34161 -1.35765,-8.40905 -2.91881,-11.75828c-2.44883,-5.2536 -5.50946,-9.46469 -5.97487,-14.97568c-0.50853,-6.02159 2.40533,-11.5545 3.19137,-17.50604c1.31904,-9.9871 -3.14057,-18.79444 -6.83066,-28.39839c0,0 -1.77425,-4.65776 7.09699,-5.58931c8.87124,-0.93155 10.64549,3.7262 10.64549,3.7262c1.38199,3.6646 3.94972,7.13486 5.13229,10.8196c2.08203,6.48735 2.86115,13.55968 2.00423,20.11534c-0.7337,5.6129 -3.57144,10.84328 -3.15735,16.49396c0.35729,4.87549 3.30721,8.33777 5.45282,13.02432c1.98495,4.33565 2.59455,9.16809 3.4299,13.57505c0,2.46142 -0.20973,4.92631 -0.66854,7.37592l-0.6809,2.53244c0,0 -1.27943,4.70226 -10.23542,4.03051c-8.956,-0.67175 -7.67657,-5.37401 -7.67657,-5.37401z" fill="#28670a"/><path d="M302.6604,218.84744l-1.9168,-3.43078c0.00374,-1.07887 0.00749,-2.15774 0.01123,-3.23661c1.65702,-8.84404 6.56659,-17.58254 6.98255,-26.48881c0.34263,-7.33624 -0.57837,-9.6113 0.68434,-16.48584c1.1892,-6.47443 4.22952,-12.86634 5.03317,-19.38474c0.59108,-4.79429 -0.42062,-9.53806 0.69089,-14.32649c0,0 1.12213,-4.71332 10.09919,-4.12415c8.97706,0.58916 7.85493,5.30248 7.85493,5.30248c-1.11768,4.5526 -0.01903,9.10391 -0.57886,13.67351c-0.82207,6.7101 -3.89197,13.28614 -5.12479,19.94859c-1.06877,5.77593 -0.2774,9.79048 -0.5854,15.84748c-0.45433,8.93442 -5.26539,17.65335 -6.98463,26.51119c0.00374,0.92113 0.00749,1.84225 0.01124,2.76338l0.62268,-0.09743c0,0 3.35994,4.41026 -5.03992,6.17437c-8.39986,1.76411 -11.7598,-2.64616 -11.7598,-2.64616z" fill="#448f21"/><path d="M354.07282,223.08333v-0.33333c0,-12.98322 -0.15995,-25.86921 -2.48648,-38.81987c-1.01642,-5.6579 -4.01473,-11.22883 -4.48327,-16.91745c-0.84856,-10.30231 -0.73215,-20.53995 -2.51618,-30.83263c0,0 -0.81907,-4.73049 8.1907,-5.16054c9.00977,-0.43005 9.82883,4.30045 9.82883,4.30045c1.79949,10.40348 1.77262,20.75085 2.5628,31.16737c0.41845,5.51621 3.41132,10.92652 4.40493,16.41588c2.40593,13.29197 2.59251,26.52065 2.59251,39.84679v0.33333c0,0 0,4.75 -9.04692,4.75c-9.04692,0 -9.04692,-4.75 -9.04692,-4.75z" fill="#275313"/></g></g><g stroke="#000000" stroke-width="3.5"><path d="M369.93237,174.21948l2.0931,6.94402l-7.6155,-2.4037z" fill="#000000" stroke-linecap="round"/><path d="M343.60844,119.2405c-1.21313,-0.92666 -1.94667,-2.39381 -1.85175,-4.04519c0.10706,-1.86245 1.24095,-3.49054 2.84244,-4.37326c1.42437,-2.19146 7.42409,-0.20074 9.20218,0.58903c6.49438,2.8846 12.5288,11.19831 14.85576,17.67004c7.29805,20.29726 -8.9453,42.34716 -5.62918,62.84729c1.85207,11.44937 10.14286,21.04609 12.33283,32.49943c0.71567,3.74293 0.54595,10.95241 -5.62097,10.95241c-1.76745,0 -3.2774,-1.33186 -4.4579,-2.53724c-0.93035,-0.94996 -0.30675,-5.23071 -0.31353,-5.987c-0.03181,-3.54538 -2.22281,-7.34467 -3.56656,-10.45606c-2.99686,-6.93908 -8.2967,-15.23951 -8.88692,-23.02562c-1.53024,-20.18673 8.78217,-39.80116 6.31156,-59.91543c-0.46609,-3.79461 -6.33716,-10.61812 -8.95317,-12.38575c-1.0036,-0.67812 -2.08393,-0.71775 -3.17137,-0.8034c-0.48099,-0.00212 -0.94314,-0.06651 -1.37869,-0.18527c-0.40127,-0.09174 -0.79946,-0.22973 -1.19101,-0.44899c-0.19749,-0.11059 -0.37045,-0.24374 -0.52373,-0.39498z" fill="#9efd71" stroke-linecap="butt"/><path d="M369.3995,107.87597c0.58053,-2.36854 2.83267,-4.16499 5.41656,-4.16499c1.51115,0 2.83818,0.61444 3.74125,1.59841c0.15556,0.1695 0.29854,0.34996 0.42772,0.54013c2.02357,1.79303 4.37173,3.35023 6.54734,4.97481c0.03935,0.02939 0.05317,0.08328 0.0919,0.11339c18.99717,14.77176 14.40868,44.16718 12.09004,65.40128c-0.19505,1.78626 -0.61593,3.55775 -0.79626,5.34466c-0.23728,2.35119 -0.35974,4.70807 -0.4058,7.05976c-0.05043,2.5748 3.53382,6.55975 2.23319,9.15146c-2.20681,4.39743 -4.2874,5.18268 -8.73849,3.29807c-4.23823,-1.79449 -3.72163,-17.84303 -3.59716,-19.76238c0.11627,-1.79304 0.76833,-4.15297 0.87542,-5.59464c0.81604,-10.98576 2.9285,-26.77174 1.18885,-38.89211c-0.82486,-5.74695 -2.7659,-11.85521 -7.11566,-15.84472c-3.25846,-2.98857 -12.72952,-6.77239 -12.11192,-12.59732c0.02346,-0.22116 0.07583,-0.42915 0.15303,-0.62582z" fill="#9efd71" stroke-linecap="butt"/><path d="M351.24861,113.85993c0.16109,-2.80256 2.6473,-5.07448 5.5531,-5.07448c0.45548,0 0.89422,0.05582 1.30968,0.16076c1.13031,-0.29288 2.82728,1.85536 3.48511,2.59501c3.09269,3.47737 5.52399,6.79951 7.96666,10.74878c12.23991,19.78933 1.96999,41.85034 1.36846,63.45071c-0.09687,3.47851 0.31205,7.57855 1.48113,10.83602c0.34983,0.97477 2.01361,2.90814 1.97734,3.5391c-0.09798,1.70466 -0.35968,3.72839 -1.67874,4.93377c-8.31031,7.59403 -11.25967,-8.18541 -11.79317,-11.94073c-0.17132,-1.20591 -0.35525,-2.51709 -0.41938,-3.7407c-0.94176,-17.97112 7.28597,-35.32754 3.47496,-53.38109c-1.29057,-6.11371 -5.40537,-11.59338 -9.35368,-16.20776c-0.78627,-0.91892 -4.63135,-4.4548 -3.37147,-5.91938z" fill="#67dc31" stroke-linecap="butt"/><path d="M395.83997,164.83193c0.70873,0.8796 1.10041,2.01074 1.02948,3.24475c-0.10706,1.86245 -1.24095,3.49055 -2.84245,4.37326c-0.55095,0.84766 -1.89869,0.85846 -3.06612,0.68978c-0.53019,-0.07661 -1.02318,-0.19024 -1.38746,-0.2793c-4.06955,-0.99503 -4.68974,-6.23276 -5.08634,-9.87606c-0.55766,-5.12288 -1.09163,-12.03355 -2.22419,-17.03879c-1.40015,-6.18784 -4.26545,-11.86194 -5.8262,-18.00491c-2.78213,-10.9502 -1.7508,-14.19804 -9.17425,-23.85577c-1.99828,-2.59972 -4.48848,-6.17793 -0.07803,-9.24089c4.97071,-3.45203 7.50853,1.37006 9.67978,4.10972c6.44761,8.13555 7.92343,16.19646 9.86498,26.23609c0.72936,3.77149 2.24358,6.55141 3.40521,10.19914c1.78429,5.60298 3.02411,11.40094 3.91491,17.24226c0.71103,4.66244 0.78563,8.26036 1.79069,12.20072z" fill="#67dc31" stroke-linecap="butt"/><path d="M373.8977,93.54338c1.19732,0.92771 1.91952,2.38547 1.82529,4.02481c-0.00257,0.04468 -0.00574,0.08923 -0.00948,0.13363c0.10563,0.61084 -0.07623,1.17086 -0.44248,1.68374c-0.86733,1.90488 -2.85936,3.2571 -5.10114,3.2571c-1.9977,0.93727 -4.58754,-2.61456 -5.8767,-3.30033c-4.55166,-2.42126 -10.01025,-5.23919 -15.53151,-5.24616c-6.24135,-0.00787 -13.59982,1.13491 -19.44828,3.96635c-1.36656,0.6616 -3.46692,2.74434 -5.29454,2.98434c-2.81408,0.36954 -5.34227,0.70717 -6.47074,-3.20938c-1.87424,-6.50481 10.10068,-9.95444 14.49574,-11.22616c12.34813,-3.57296 25.2695,-3.60027 36.04523,2.86156c2.42399,1.45358 4.4246,2.4518 5.80861,4.07049z" fill="#67dc31" stroke-linecap="butt"/><path d="M370.81119,101.36327c0.79967,0.90162 1.24991,2.10035 1.17429,3.41602c-0.00257,0.04468 -0.00574,0.08923 -0.00948,0.13363c0.06621,0.38287 0.01947,0.74578 -0.11482,1.08963c5.80953,7.41331 14.03998,18.62151 12.87934,27.01223c-0.85716,6.19673 -1.09246,12.50986 -2.9093,18.56178c-1.86188,6.20195 -5.19918,12.52298 -5.0479,19.07735c0.20103,8.7096 4.55159,17.59095 6.84999,25.78264c2.38473,8.49938 4.33369,17.25798 7.096,25.58759c0.90765,2.737 0.42543,5.99173 -3.46571,7.21999c-7.38285,2.33044 -9.33663,-13.10168 -10.41081,-17.20892c-0.43927,-1.6796 -0.89932,-3.35308 -1.35705,-5.0272c-0.66919,-2.44756 -1.2902,-4.91052 -2.02368,-7.33781c-2.72344,-9.01259 -7.53907,-18.97113 -7.2323,-28.65568c0.41425,-13.07772 7.43852,-24.60591 7.92187,-37.91631c0.35805,-9.85998 -9.83818,-17.68739 -14.53541,-24.94806c-0.43369,-0.67037 -0.6622,-1.48059 -0.68948,-2.32402c-0.00785,-0.1686 -0.00699,-0.33964 0.00296,-0.5127c0.01998,-0.34761 0.07573,-0.68706 0.16361,-1.01502c0.00612,-0.02433 0.0124,-0.04865 0.01884,-0.07293c-3.33373,-1.82818 -8.44654,-2.86545 -11.7412,-2.91821c-4.80088,-0.07689 -9.54071,-0.61929 -14.24983,0.52893c-2.88194,0.7027 -7.03528,5.21195 -10.03586,3.20859c-1.41625,-0.94557 -2.66638,-2.5549 -2.69663,-4.25508c-0.11586,-6.51217 10.70833,-9.25093 15.76672,-9.55362c10.35765,-0.61979 29.26661,-0.39445 34.64584,10.12717z" fill="#4cc513" stroke-linecap="butt"/><path d="M386.15679,130.33129c1.36749,0.26674 1.76146,3.68715 1.96382,4.91504c1.06053,6.43546 0.84265,12.9976 0.64619,19.58986c-0.21672,7.27194 -1.60235,14.48473 -1.79856,21.69645c-0.23542,8.65275 4.52486,16.87144 4.07468,25.46291c-0.35917,6.85491 -0.59314,13.71257 -1.1821,20.56498c-0.22968,2.67224 -2.14004,5.07448 -5.55311,5.07448c-3.41582,0 -5.04585,-2.40224 -4.96972,-5.07448c0.19121,-6.71238 0.83662,-13.43028 1.15796,-20.14499c0.37495,-7.83477 -3.2653,-16.17001 -4.00011,-24.02746c-0.64416,-6.88811 1.36726,-16.9191 1.73863,-23.37309c0.28778,-5.00119 0.41636,-10.75767 -0.20014,-15.75979c-0.23193,-1.88183 -1.17707,-4.21195 -0.695,-6.10029c0.05562,-0.21786 0.13819,-0.41969 0.24356,-0.60793c0.91746,-1.63918 3.56308,-2.24909 5.18988,-3.46362z" fill="#7ade4c" stroke-linecap="butt"/><path d="M345.98107,120.25799c-1.26718,0.78574 -5.76882,-1.85546 -7.47775,-1.85775c-1.65328,-0.00222 -3.3065,-0.00582 -4.96023,0c-2.45902,0.00866 -3.50197,2.64802 -6.52748,2.43532c-3.49785,-0.2459 -5.22035,-4.93389 -3.66114,-7.94281c1.34607,-2.59762 4.38362,-2.84363 6.71427,-3.8142c4.54401,-1.8923 12.23656,-1.69528 17.03249,1.1168c2.0249,1.1873 3.53343,2.84075 4.07063,4.99996z" fill="#9efd71" stroke-linecap="butt"/><path d="M359.62051,108.96229c1.25381,0.92328 2.01676,2.41425 1.92006,4.0964c-0.00257,0.04468 -0.00574,0.08923 -0.00948,0.13363c0.10563,0.61084 -0.07623,1.17086 -0.44248,1.68375c-0.86733,1.90488 -2.85937,3.2571 -5.10116,3.2571c-1.27419,0.59782 -2.23226,-0.06291 -3.02819,-0.96234c-0.70299,-0.51175 -1.25367,-1.20106 -1.58794,-2.00243c-0.15546,-0.16559 -0.3082,-0.29985 -0.46042,-0.3881c-2.46724,-1.43047 -5.8029,-3.55609 -8.84691,-3.9556c-3.31959,-0.43569 -7.40263,-0.48391 -10.60179,-0.43678c-2.09802,0.03091 -3.10897,3.72033 -6.21674,2.7024c-1.64576,-0.53906 -3.54597,-1.31204 -4.24876,-2.83673c-2.533,-5.49531 5.52636,-9.12839 9.71227,-10.01463c8.23638,-1.7438 23.38643,1.52304 28.91153,8.72333z" fill="#67dc31" stroke-linecap="butt"/></g><g stroke="#000000" stroke-width="3.5"><path d="M281.70123,168.04692l-7.75367,2.25l2.49225,-6.5z" fill="#000000" stroke-linecap="round"/><path d="M305.37759,112.70317c-0.40415,0.20524 -0.81027,0.33441 -1.21681,0.42028c-0.44238,0.11115 -0.90823,0.17143 -1.38934,0.17342c-1.09236,0.08018 -2.17498,0.11727 -3.21756,0.75204c-2.71762,1.65461 -8.98091,8.04179 -9.66512,11.59377c-3.62682,18.82811 5.55814,37.18835 2.86753,56.08429c-1.03778,7.28825 -6.81473,15.05793 -10.21046,21.5533c-1.5226,2.91244 -3.93198,6.4688 -4.16759,9.78748c-0.05026,0.70793 0.32728,4.71497 -0.65767,5.60418c-1.24978,1.1283 -2.83629,2.375 -4.60374,2.375c-6.16693,0 -5.92224,-6.74849 -4.99141,-10.25208c2.84832,-10.72098 11.69075,-19.70406 14.20095,-30.42133c4.49451,-19.1893 -10.48138,-39.82927 -2.01662,-58.82867c2.69897,-6.05791 9.21127,-13.84002 15.87146,-16.54017c1.82349,-0.73928 7.93765,-2.6027 9.23604,-0.55137c1.55075,0.82627 2.59106,2.35026 2.59106,4.09362c0,1.54578 -0.81788,2.91912 -2.08427,3.78652c-0.16198,0.14157 -0.34259,0.2662 -0.54643,0.36973z" fill="#9efd71" stroke-linecap="butt"/><path d="M280.90326,102.28139c0.28278,5.45247 -9.40578,8.99433 -12.83603,11.79181c-4.57909,3.7344 -6.87123,9.45208 -8.02644,14.83156c-2.43635,11.34536 -1.23129,26.12196 -1.04672,36.40526c0.02422,1.34948 0.54062,3.55852 0.55383,5.23691c0.01414,1.79663 -0.39175,16.81898 -4.73314,18.49872c-4.55943,1.76411 -6.59488,1.02906 -8.54892,-3.08719c-1.15165,-2.42598 2.66165,-6.15612 2.75923,-8.56629c0.08911,-2.20131 0.10213,-4.40749 0,-6.60834c-0.07762,-1.67265 -0.39666,-3.33087 -0.48903,-5.00292c-1.09808,-19.87634 -3.99687,-47.39213 15.8494,-61.21934c0.04046,-0.02819 0.05738,-0.07864 0.09842,-0.10614c2.26899,-1.52069 4.70666,-2.97832 6.8333,-4.65671c0.14011,-0.17802 0.29346,-0.34694 0.45876,-0.50559c0.95963,-0.92105 2.32199,-1.49621 3.83314,-1.49621c2.58389,0 4.73276,1.68157 5.17715,3.89867c0.06589,0.18409 0.10631,0.37878 0.11705,0.5858z" fill="#9efd71" stroke-linecap="butt"/><path d="M294.8814,112.8378c-4.21355,4.31933 -8.64333,9.44862 -10.28532,15.1714c-4.84875,16.89916 2.3813,33.14576 0.40654,49.96776c-0.13446,1.14537 -0.39376,2.37271 -0.63439,3.50151c-0.74937,3.5152 -4.60575,18.28566 -12.47954,11.17721c-1.24978,-1.1283 -1.39515,-3.02264 -1.39515,-4.61829c0,-0.59062 1.7749,-2.40036 2.18077,-3.3128c1.35633,-3.04917 2.00092,-6.88706 2.104,-10.14314c0.64008,-20.21919 -8.36173,-40.86956 5.01571,-59.39351c2.66967,-3.69674 5.29194,-6.80644 8.58451,-10.06147c0.70035,-0.69236 2.5208,-2.70323 3.63428,-2.42907c0.42149,-0.09822 0.86344,-0.15048 1.31892,-0.15048c2.9058,0 5.26141,2.12664 5.26141,4.75c1.1757,1.37092 -2.87263,4.68072 -3.71173,5.54088z" fill="#67dc31" stroke-linecap="butt"/><path d="M253.56383,143.58907c1.22657,-5.46781 2.79967,-10.89503 4.90602,-16.13975c1.37131,-3.41448 3.04532,-6.01665 3.99148,-9.54698c2.51865,-9.39767 4.45781,-16.94315 11.37307,-24.55849c2.32873,-2.56448 5.14374,-7.07824 9.91601,-3.84693c4.23438,2.8671 1.5385,6.21652 -0.60922,8.65c-7.97859,9.04019 -7.13395,12.08035 -10.54551,22.33037c-1.91386,5.75017 -5.10532,11.06146 -6.86116,16.85363c-1.42027,4.68519 -2.35147,11.15398 -3.2036,15.94929c-0.60602,3.41034 -1.52728,8.31315 -5.65403,9.24456c-0.3694,0.08337 -0.86892,0.18974 -1.40352,0.26145c-1.17713,0.1579 -2.52425,0.14778 -3.02647,-0.64567c-1.55076,-0.82627 -2.59107,-2.35026 -2.59107,-4.09362c0,-1.15511 0.45671,-2.21392 1.21599,-3.03728c1.23155,-3.6884 1.51297,-7.05626 2.49201,-11.42057z" fill="#67dc31" stroke-linecap="butt"/><path d="M283.15446,84.46926c11.14716,-6.04864 24.06698,-6.02308 36.20972,-2.67858c4.32196,1.1904 16.09859,4.41945 13.85044,10.50833c-1.35361,3.66611 -3.86239,3.35008 -6.65523,3.00417c-1.81383,-0.22465 -3.79447,-2.17423 -5.123,-2.79352c-5.68571,-2.65039 -12.97849,-3.7201 -19.22029,-3.71273c-5.52166,0.00651 -11.14223,2.64426 -15.83307,4.9107c-1.32858,0.64192 -4.12257,3.96665 -6.0664,3.0893c-2.24178,0 -4.15609,-1.26575 -4.91393,-3.04883c-0.33677,-0.48009 -0.48643,-1.0043 -0.34569,-1.57608c-0.00119,-0.04157 -0.0018,-0.08326 -0.0018,-0.12509c0,-1.53451 0.806,-2.89907 2.05665,-3.76745c1.47706,-1.51519 3.53504,-2.44957 6.04258,-3.8102z" fill="#67dc31" stroke-linecap="butt"/><path d="M314.97684,86.11972c5.04099,0.28333 15.70776,2.84697 15.21757,8.94273c-0.12798,1.59146 -1.47062,3.09789 -2.94123,3.983c-3.11573,1.87525 -7.00988,-2.34566 -9.85143,-3.00343c-4.64312,-1.07479 -9.41412,-0.56708 -14.21942,-0.4951c-3.2977,0.04939 -8.47013,1.02034 -11.90894,2.73161c0.00504,0.02273 0.00993,0.04549 0.01464,0.06827c0.06903,0.307 0.10527,0.62474 0.10527,0.95012c0,0.162 -0.00898,0.3221 -0.02652,0.47992c-0.07576,0.7895 -0.35084,1.54792 -0.82306,2.17542c-5.11458,6.79641 -15.76074,14.12331 -15.96946,23.35282c-0.28175,12.45931 6.07986,23.25035 5.74238,35.49184c-0.24991,9.06529 -5.63797,18.38707 -8.87946,26.82336c-0.873,2.27209 -1.63558,4.57755 -2.44547,6.86861c-0.55395,1.56707 -1.11021,3.13354 -1.64602,4.70574c-1.31027,3.84461 -4.15111,18.28997 -11.4,16.10854c-3.82054,-1.14972 -4.11567,-4.19635 -3.05069,-6.75833c3.24111,-7.797 5.69352,-15.99555 8.56681,-23.95146c2.76927,-7.66789 7.63034,-15.98135 8.33202,-24.13403c0.52804,-6.13527 -2.44592,-12.05212 -3.9513,-17.8575c-1.46896,-5.66494 -1.34137,-11.57438 -1.84233,-17.37488c-0.67833,-7.8542 8.19637,-18.34571 14.43203,-25.285c-0.11453,-0.32186 -0.1404,-0.66156 -0.05219,-1.01995c-0.00119,-0.04157 -0.0018,-0.08326 -0.0018,-0.12509c0,-1.23154 0.51915,-2.35362 1.37065,-3.19759c5.98403,-9.84884 24.90594,-10.05977 35.22796,-9.47961z" fill="#4cc513" stroke-linecap="butt"/><path d="M266.1939,121.54692c1.55699,1.13687 4.16755,1.70778 4.99079,3.24215c0.09454,0.1762 0.16552,0.36512 0.20861,0.56905c0.37352,1.7676 -0.70555,3.94871 -1.04565,5.71022c-0.90402,4.68228 -1.10634,10.07068 -1.10604,14.75208c0.0004,6.0413 1.43521,15.43088 0.39512,21.87855c-1.18646,7.35503 -5.30583,15.15729 -5.38124,22.49108c-0.06462,6.28536 0.19463,12.5737 0,18.85688c-0.07748,2.50136 -1.8456,4.75 -5.26141,4.75c-3.41306,0 -5.18534,-2.24864 -5.26142,-4.75c-0.19508,-6.41425 -0.03485,-12.83341 0,-19.25c0.04368,-8.04211 5.27638,-15.73528 5.53833,-23.83475c0.21833,-6.75059 -0.7527,-13.50217 -0.55142,-20.30912c0.18247,-6.17073 0.34179,-12.31326 1.77224,-18.33722c0.27294,-1.14938 0.86352,-4.35108 2.24635,-4.60076z" fill="#7ade4c" stroke-linecap="butt"/><path d="M298.59313,108.54692c0.66131,-2.02114 2.2649,-3.56888 4.35804,-4.68025c4.95758,-2.63228 12.66145,-2.81669 17.09668,-1.04539c2.27486,0.90851 5.29826,1.13879 6.49502,3.57031c1.38625,2.81652 -0.60573,7.20475 -4.11771,7.43493c-3.03774,0.1991 -3.92898,-2.2715 -6.3875,-2.2796c-1.65339,-0.00545 -3.30682,-0.00208 -4.96023,0c-1.70905,0.00214 -6.36251,2.47445 -7.58453,1.73896z" fill="#9efd71" stroke-linecap="butt"/><path d="M319.91571,94.54692c4.13497,0.82957 11.98549,4.23035 9.13662,9.37427c-0.79043,1.42719 -2.73507,2.15075 -4.41183,2.65533c-3.16628,0.95284 -3.96515,-2.50066 -6.0614,-2.5296c-3.19646,-0.04412 -7.28226,0.00102 -10.6269,0.40885c-3.06697,0.37396 -6.52483,2.36367 -9.07429,3.70267c-0.15729,0.08261 -0.31774,0.20829 -0.48272,0.36329c-0.38033,0.75013 -0.97064,1.39536 -1.70304,1.87439c-0.84763,0.84192 -1.84369,1.4604 -3.08352,0.90081c-2.24178,0 -4.15609,-1.26575 -4.91393,-3.04883c-0.33677,-0.48009 -0.48643,-1.0043 -0.34569,-1.57608c-0.00119,-0.04157 -0.0018,-0.08326 -0.0018,-0.12509c0,-1.57459 0.84864,-2.97022 2.15553,-3.83447c5.93899,-6.73988 21.27682,-9.79782 29.41296,-8.16553z" fill="#67dc31" stroke-linecap="butt"/></g><path d="M214.78369,306.61252v-267.72501c0,0 153.66918,0 187.45214,0c12.51617,0 25.72989,0 25.72989,0v267.72501z" fill="none" stroke="none" stroke-width="0" stroke-linecap="butt"/><path d="M286.35186,319.07226l15.14285,-131.8421l37.78325,-0.15789l13.57389,132z" fill="#4cc114" stroke="#000000" stroke-width="0" stroke-linecap="butt"/><path d="M295.01902,243.61117l6.47569,-56.38101l37.78325,-0.15789l5.87786,57.15951z" fill="url(#color-1)" stroke="#000000" stroke-width="0" stroke-linecap="butt"/><path d="M286.35186,319.07226l15.14285,-131.8421l37.78325,-0.15789l13.57389,132z" fill="none" stroke="#000000" stroke-width="2" stroke-linecap="butt"/><path d="M255.36488,148.57225c0,-33.30185 28.7599,-60.29833 64.23702,-60.29833c35.47713,0 64.23702,26.99648 64.23702,60.29833c0,33.30185 -28.75989,60.29834 -64.23702,60.29834c-35.47712,0 -64.23702,-26.99649 -64.23702,-60.29834z" fill="#4cc114" stroke="#000000" stroke-width="2" stroke-linecap="butt"/><path d="M268.99199,148.84787c0,-12.96801 10.51265,-23.48065 23.48066,-23.48065c12.96801,0 23.48065,10.51264 23.48065,23.48065c0,12.96801 -10.51264,23.48066 -23.48065,23.48066c-12.96801,0 -23.48066,-10.51265 -23.48066,-23.48066z" fill="#ffffff" stroke="#000000" stroke-width="2" stroke-linecap="butt"/><path d="M276.90144,149.63831c0,-8.29964 6.72818,-15.02784 15.02783,-15.02784c8.29964,0 15.02784,6.72819 15.02784,15.02785c0,8.29964 -6.72819,15.02785 -15.02784,15.02785c-8.29964,0 -15.02783,-6.72819 -15.02783,-15.02785z" fill="#000000" stroke="#000000" stroke-width="5" stroke-linecap="butt"/><path d="" fill="none" stroke="#000000" stroke-width="2" stroke-linecap="round"/><path d="M346.73111,172.32855c-12.96801,0 -23.48065,-10.51265 -23.48065,-23.48066c0,-12.96801 10.51264,-23.48065 23.48065,-23.48065c12.96801,0 23.48066,10.51264 23.48066,23.48065c0,12.96801 -10.51265,23.48066 -23.48066,23.48066z" fill="#ffffff" stroke="#000000" stroke-width="2" stroke-linecap="butt"/><path d="M362.05645,149.4251c0,8.29966 -6.72818,15.02785 -15.02783,15.02785c-8.29964,0 -15.02784,-6.72821 -15.02784,-15.02785c0,-8.29966 6.7282,-15.02785 15.02784,-15.02785c8.29964,0 15.02783,6.7282 15.02783,15.02784z" fill="#000000" stroke="#000000" stroke-width="5" stroke-linecap="butt"/><path d="M278.70857,121.94932c0,0 7.56465,-3.8088 12.78691,-4.02044c5.22227,-0.21163 11.97995,3.01674 11.97995,3.01674c0,0 -7.88201,-1.57763 -11.915,-1.41418c-4.21463,0.17081 -12.85186,2.41788 -12.85186,2.41788z" fill="#000000" stroke="none" stroke-width="0" stroke-linecap="butt"/><path d="M344.7959,119.78181c-4.03315,-0.15949 -11.91361,1.42586 -11.91361,1.42586c0,0 6.75451,-3.235 11.97698,-3.02848c5.22247,0.20652 12.79084,4.0079 12.79084,4.0079c0,0 -8.63943,-2.2386 -12.85422,-2.40528z" fill="#000000" stroke="none" stroke-width="0" stroke-linecap="butt"/><path d="M268.99199,148.84787c0,-12.96801 10.51265,-23.48065 23.48066,-23.48065c12.96801,0 23.48065,10.51264 23.48065,23.48065c0,0.05695 -46.96131,0.04378 -46.96131,0z" fill="#4cc114" stroke="#000000" stroke-width="2" stroke-linecap="butt"/><path d="M323.25046,148.84789c0,-12.96801 10.51264,-23.48065 23.48065,-23.48065c12.96801,0 23.48066,10.51264 23.48066,23.48065c0,0.08883 -46.96131,0.11477 -46.96131,0z" fill="#4cc114" stroke="#000000" stroke-width="2" stroke-linecap="butt"/><path d="M365.48583,163.29692l2.25,6.5l-7,-2.25z" fill="#000000" stroke="#000000" stroke-width="0.5" stroke-linecap="round"/><path d="M335.23583,192.04692c0,0 -10.49914,1.66667 -15.49896,1.62501c-5.00017,-0.04167 -14.50104,-1.87501 -14.50104,-1.87501" fill="none" stroke="#000000" stroke-width="2" stroke-linecap="round"/><g stroke-width="0.5"><path d="M281.70123,168.04692l-7.75367,2.25l2.49225,-6.5z" fill="#000000" stroke="#000000" stroke-linecap="round"/><path d="M305.37759,112.70317c-0.40415,0.20524 -0.81027,0.33441 -1.21681,0.42028c-0.44238,0.11115 -0.90823,0.17143 -1.38934,0.17342c-1.09236,0.08018 -2.17498,0.11727 -3.21756,0.75204c-2.71762,1.65461 -8.98091,8.04179 -9.66512,11.59377c-3.62682,18.82811 5.55814,37.18835 2.86753,56.08429c-1.03778,7.28825 -6.81473,15.05793 -10.21046,21.5533c-1.5226,2.91244 -3.93198,6.4688 -4.16759,9.78748c-0.05026,0.70793 0.32728,4.71497 -0.65767,5.60418c-1.24978,1.1283 -2.83629,2.375 -4.60374,2.375c-6.16693,0 -5.92224,-6.74849 -4.99141,-10.25208c2.84832,-10.72098 11.69075,-19.70406 14.20095,-30.42133c4.49451,-19.1893 -10.48138,-39.82927 -2.01662,-58.82867c2.69897,-6.05791 9.21127,-13.84002 15.87146,-16.54017c1.82349,-0.73928 7.93765,-2.6027 9.23604,-0.55137c1.55075,0.82627 2.59106,2.35026 2.59106,4.09362c0,1.54578 -0.81788,2.91912 -2.08427,3.78652c-0.16198,0.14157 -0.34259,0.2662 -0.54643,0.36973z" fill="#9efd71" stroke="none" stroke-linecap="butt"/><path d="M280.90326,102.28139c0.28278,5.45247 -9.40578,8.99433 -12.83603,11.79181c-4.57909,3.7344 -6.87123,9.45208 -8.02644,14.83156c-2.43635,11.34536 -1.23129,26.12196 -1.04672,36.40526c0.02422,1.34948 0.54062,3.55852 0.55383,5.23691c0.01414,1.79663 -0.39175,16.81898 -4.73314,18.49872c-4.55943,1.76411 -6.59488,1.02906 -8.54892,-3.08719c-1.15165,-2.42598 2.66165,-6.15612 2.75923,-8.56629c0.08911,-2.20131 0.10213,-4.40749 0,-6.60834c-0.07762,-1.67265 -0.39666,-3.33087 -0.48903,-5.00292c-1.09808,-19.87634 -3.99687,-47.39213 15.8494,-61.21934c0.04046,-0.02819 0.05738,-0.07864 0.09842,-0.10614c2.26899,-1.52069 4.70666,-2.97832 6.8333,-4.65671c0.14011,-0.17802 0.29346,-0.34694 0.45876,-0.50559c0.95963,-0.92105 2.32199,-1.49621 3.83314,-1.49621c2.58389,0 4.73276,1.68157 5.17715,3.89867c0.06589,0.18409 0.10631,0.37878 0.11705,0.5858z" fill="#9efd71" stroke="none" stroke-linecap="butt"/><path d="M294.8814,112.8378c-4.21355,4.31933 -8.64333,9.44862 -10.28532,15.1714c-4.84875,16.89916 2.3813,33.14576 0.40654,49.96776c-0.13446,1.14537 -0.39376,2.37271 -0.63439,3.50151c-0.74937,3.5152 -4.60575,18.28566 -12.47954,11.17721c-1.24978,-1.1283 -1.39515,-3.02264 -1.39515,-4.61829c0,-0.59062 1.7749,-2.40036 2.18077,-3.3128c1.35633,-3.04917 2.00092,-6.88706 2.104,-10.14314c0.64008,-20.21919 -8.36173,-40.86956 5.01571,-59.39351c2.66967,-3.69674 5.29194,-6.80644 8.58451,-10.06147c0.70035,-0.69236 2.5208,-2.70323 3.63428,-2.42907c0.42149,-0.09822 0.86344,-0.15048 1.31892,-0.15048c2.9058,0 5.26141,2.12664 5.26141,4.75c1.1757,1.37092 -2.87263,4.68072 -3.71173,5.54088z" fill="#67dc31" stroke="none" stroke-linecap="butt"/><path d="M253.56383,143.58907c1.22657,-5.46781 2.79967,-10.89503 4.90602,-16.13975c1.37131,-3.41448 3.04532,-6.01665 3.99148,-9.54698c2.51865,-9.39767 4.45781,-16.94315 11.37307,-24.55849c2.32873,-2.56448 5.14374,-7.07824 9.91601,-3.84693c4.23438,2.8671 1.5385,6.21652 -0.60922,8.65c-7.97859,9.04019 -7.13395,12.08035 -10.54551,22.33037c-1.91386,5.75017 -5.10532,11.06146 -6.86116,16.85363c-1.42027,4.68519 -2.35147,11.15398 -3.2036,15.94929c-0.60602,3.41034 -1.52728,8.31315 -5.65403,9.24456c-0.3694,0.08337 -0.86892,0.18974 -1.40352,0.26145c-1.17713,0.1579 -2.52425,0.14778 -3.02647,-0.64567c-1.55076,-0.82627 -2.59107,-2.35026 -2.59107,-4.09362c0,-1.15511 0.45671,-2.21392 1.21599,-3.03728c1.23155,-3.6884 1.51297,-7.05626 2.49201,-11.42057z" fill="#67dc31" stroke="none" stroke-linecap="butt"/><path d="M283.15446,84.46926c11.14716,-6.04864 24.06698,-6.02308 36.20972,-2.67858c4.32196,1.1904 16.09859,4.41945 13.85044,10.50833c-1.35361,3.66611 -3.86239,3.35008 -6.65523,3.00417c-1.81383,-0.22465 -3.79447,-2.17423 -5.123,-2.79352c-5.68571,-2.65039 -12.97849,-3.7201 -19.22029,-3.71273c-5.52166,0.00651 -11.14223,2.64426 -15.83307,4.9107c-1.32858,0.64192 -4.12257,3.96665 -6.0664,3.0893c-2.24178,0 -4.15609,-1.26575 -4.91393,-3.04883c-0.33677,-0.48009 -0.48643,-1.0043 -0.34569,-1.57608c-0.00119,-0.04157 -0.0018,-0.08326 -0.0018,-0.12509c0,-1.53451 0.806,-2.89907 2.05665,-3.76745c1.47706,-1.51519 3.53504,-2.44957 6.04258,-3.8102z" fill="#67dc31" stroke="none" stroke-linecap="butt"/><path d="M314.97684,86.11972c5.04099,0.28333 15.70776,2.84697 15.21757,8.94273c-0.12798,1.59146 -1.47062,3.09789 -2.94123,3.983c-3.11573,1.87525 -7.00988,-2.34566 -9.85143,-3.00343c-4.64312,-1.07479 -9.41412,-0.56708 -14.21942,-0.4951c-3.2977,0.04939 -8.47013,1.02034 -11.90894,2.73161c0.00504,0.02273 0.00993,0.04549 0.01464,0.06827c0.06903,0.307 0.10527,0.62474 0.10527,0.95012c0,0.162 -0.00898,0.3221 -0.02652,0.47992c-0.07576,0.7895 -0.35084,1.54792 -0.82306,2.17542c-5.11458,6.79641 -15.76074,14.12331 -15.96946,23.35282c-0.28175,12.45931 6.07986,23.25035 5.74238,35.49184c-0.24991,9.06529 -5.63797,18.38707 -8.87946,26.82336c-0.873,2.27209 -1.63558,4.57755 -2.44547,6.86861c-0.55395,1.56707 -1.11021,3.13354 -1.64602,4.70574c-1.31027,3.84461 -4.15111,18.28997 -11.4,16.10854c-3.82054,-1.14972 -4.11567,-4.19635 -3.05069,-6.75833c3.24111,-7.797 5.69352,-15.99555 8.56681,-23.95146c2.76927,-7.66789 7.63034,-15.98135 8.33202,-24.13403c0.52804,-6.13527 -2.44592,-12.05212 -3.9513,-17.8575c-1.46896,-5.66494 -1.34137,-11.57438 -1.84233,-17.37488c-0.67833,-7.8542 8.19637,-18.34571 14.43203,-25.285c-0.11453,-0.32186 -0.1404,-0.66156 -0.05219,-1.01995c-0.00119,-0.04157 -0.0018,-0.08326 -0.0018,-0.12509c0,-1.23154 0.51915,-2.35362 1.37065,-3.19759c5.98403,-9.84884 24.90594,-10.05977 35.22796,-9.47961z" fill="#4cc513" stroke="none" stroke-linecap="butt"/><path d="M266.1939,121.54692c1.55699,1.13687 4.16755,1.70778 4.99079,3.24215c0.09454,0.1762 0.16552,0.36512 0.20861,0.56905c0.37352,1.7676 -0.70555,3.94871 -1.04565,5.71022c-0.90402,4.68228 -1.10634,10.07068 -1.10604,14.75208c0.0004,6.0413 1.43521,15.43088 0.39512,21.87855c-1.18646,7.35503 -5.30583,15.15729 -5.38124,22.49108c-0.06462,6.28536 0.19463,12.5737 0,18.85688c-0.07748,2.50136 -1.8456,4.75 -5.26141,4.75c-3.41306,0 -5.18534,-2.24864 -5.26142,-4.75c-0.19508,-6.41425 -0.03485,-12.83341 0,-19.25c0.04368,-8.04211 5.27638,-15.73528 5.53833,-23.83475c0.21833,-6.75059 -0.7527,-13.50217 -0.55142,-20.30912c0.18247,-6.17073 0.34179,-12.31326 1.77224,-18.33722c0.27294,-1.14938 0.86352,-4.35108 2.24635,-4.60076z" fill="#7ade4c" stroke="none" stroke-linecap="butt"/><path d="M298.59313,108.54692c0.66131,-2.02114 2.2649,-3.56888 4.35804,-4.68025c4.95758,-2.63228 12.66145,-2.81669 17.09668,-1.04539c2.27486,0.90851 5.29826,1.13879 6.49502,3.57031c1.38625,2.81652 -0.60573,7.20475 -4.11771,7.43493c-3.03774,0.1991 -3.92898,-2.2715 -6.3875,-2.2796c-1.65339,-0.00545 -3.30682,-0.00208 -4.96023,0c-1.70905,0.00214 -6.36251,2.47445 -7.58453,1.73896z" fill="#9efd71" stroke="none" stroke-linecap="butt"/><path d="M319.91571,94.54692c4.13497,0.82957 11.98549,4.23035 9.13662,9.37427c-0.79043,1.42719 -2.73507,2.15075 -4.41183,2.65533c-3.16628,0.95284 -3.96515,-2.50066 -6.0614,-2.5296c-3.19646,-0.04412 -7.28226,0.00102 -10.6269,0.40885c-3.06697,0.37396 -6.52483,2.36367 -9.07429,3.70267c-0.15729,0.08261 -0.31774,0.20829 -0.48272,0.36329c-0.38033,0.75013 -0.97064,1.39536 -1.70304,1.87439c-0.84763,0.84192 -1.84369,1.4604 -3.08352,0.90081c-2.24178,0 -4.15609,-1.26575 -4.91393,-3.04883c-0.33677,-0.48009 -0.48643,-1.0043 -0.34569,-1.57608c-0.00119,-0.04157 -0.0018,-0.08326 -0.0018,-0.12509c0,-1.57459 0.84864,-2.97022 2.15553,-3.83447c5.93899,-6.73988 21.27682,-9.79782 29.41296,-8.16553z" fill="#67dc31" stroke="none" stroke-linecap="butt"/></g><g stroke-width="0.5"><path d="M369.93237,174.21948l2.0931,6.94402l-7.6155,-2.4037z" fill="#000000" stroke="#000000" stroke-linecap="round"/><path d="M343.60843,119.2405c-1.21313,-0.92666 -1.94668,-2.39381 -1.85175,-4.04518c0.10706,-1.86245 1.24095,-3.49054 2.84245,-4.37326c1.42436,-2.19146 7.42409,-0.20074 9.20219,0.58903c6.49438,2.8846 12.52879,11.1983 14.85576,17.67004c7.29804,20.29726 -8.9453,42.34716 -5.62918,62.84729c1.85207,11.44937 10.14286,21.04609 12.33283,32.49943c0.71568,3.74293 0.54595,10.95241 -5.62098,10.95241c-1.76745,0 -3.2774,-1.33186 -4.4579,-2.53724c-0.93035,-0.94996 -0.30675,-5.23071 -0.31353,-5.987c-0.03182,-3.54538 -2.22281,-7.34467 -3.56656,-10.45606c-2.99686,-6.93908 -8.2967,-15.2395 -8.88692,-23.02562c-1.53025,-20.18673 8.78218,-39.80117 6.31156,-59.91544c-0.46609,-3.79461 -6.33716,-10.61811 -8.95317,-12.38575c-1.0036,-0.67813 -2.08394,-0.71775 -3.17137,-0.80341c-0.48099,-0.00212 -0.94314,-0.06652 -1.37869,-0.18527c-0.40127,-0.09174 -0.79946,-0.22973 -1.19101,-0.44899c-0.19749,-0.11059 -0.37044,-0.24374 -0.52373,-0.39498z" fill="#9efd71" stroke="none" stroke-linecap="butt"/><path d="M369.3995,107.87597c0.58053,-2.36855 2.83266,-4.16499 5.41656,-4.16499c1.51115,0 2.83819,0.61444 3.74126,1.59841c0.15556,0.1695 0.29854,0.34996 0.42772,0.54013c2.02357,1.79303 4.37173,3.35024 6.54734,4.97481c0.03935,0.02938 0.05317,0.08328 0.09191,0.1134c18.99717,14.77176 14.40868,44.16717 12.09004,65.40127c-0.19505,1.78626 -0.61592,3.55775 -0.79625,5.34467c-0.23728,2.35119 -0.35974,4.70808 -0.40581,7.05976c-0.05043,2.5748 3.53382,6.55975 2.23319,9.15146c-2.20681,4.39743 -4.2874,5.18268 -8.7385,3.29807c-4.23824,-1.79448 -3.72163,-17.84303 -3.59716,-19.76238c0.11628,-1.79304 0.76833,-4.15297 0.87542,-5.59464c0.81604,-10.98576 2.92851,-26.77175 1.18886,-38.89212c-0.82486,-5.74695 -2.76589,-11.85521 -7.11566,-15.84471c-3.25846,-2.98858 -12.72952,-6.77239 -12.11192,-12.59731c0.02345,-0.22116 0.07583,-0.42915 0.15302,-0.62582z" fill="#9efd71" stroke="none" stroke-linecap="butt"/><path d="M351.24861,113.85993c0.1611,-2.80256 2.6473,-5.07448 5.5531,-5.07448c0.45548,0 0.89422,0.05582 1.30968,0.16076c1.13031,-0.29288 2.82728,1.85536 3.48511,2.59501c3.09269,3.47738 5.52399,6.79951 7.96665,10.74877c12.23991,19.78933 1.97,41.85034 1.36846,63.45071c-0.09687,3.4785 0.31205,7.57855 1.48113,10.83602c0.34983,0.97477 2.01361,2.90813 1.97734,3.5391c-0.09799,1.70466 -0.35968,3.72839 -1.67875,4.93377c-8.31031,7.59404 -11.25967,-8.1854 -11.79317,-11.94073c-0.17132,-1.20591 -0.35525,-2.51709 -0.41937,-3.7407c-0.94176,-17.97112 7.28597,-35.32754 3.47496,-53.38109c-1.29057,-6.11371 -5.40537,-11.59339 -9.35368,-16.20777c-0.78627,-0.91892 -4.63136,-4.45481 -3.37147,-5.91938z" fill="#67dc31" stroke="none" stroke-linecap="butt"/><path d="M395.83997,164.83193c0.70872,0.8796 1.10041,2.01074 1.02948,3.24475c-0.10706,1.86245 -1.24096,3.49055 -2.84245,4.37326c-0.55094,0.84766 -1.89869,0.85846 -3.06612,0.68978c-0.53019,-0.07661 -1.02318,-0.19023 -1.38746,-0.2793c-4.06955,-0.99503 -4.68974,-6.23276 -5.08634,-9.87606c-0.55766,-5.12288 -1.09163,-12.03355 -2.22419,-17.03879c-1.40015,-6.18784 -4.26545,-11.86194 -5.82621,-18.00491c-2.78213,-10.9502 -1.7508,-14.19804 -9.17425,-23.85577c-1.99828,-2.59972 -4.48848,-6.17793 -0.07803,-9.24089c4.9707,-3.45204 7.50853,1.37005 9.67978,4.10972c6.44761,8.13555 7.92342,16.19647 9.86498,26.2361c0.72936,3.77149 2.24359,6.55141 3.40522,10.19914c1.78429,5.60298 3.0241,11.40094 3.91491,17.24226c0.71103,4.66244 0.78563,8.26036 1.79069,12.20072z" fill="#67dc31" stroke="none" stroke-linecap="butt"/><path d="M373.89769,93.54338c1.19732,0.9277 1.91952,2.38547 1.82529,4.02481c-0.00257,0.04468 -0.00573,0.08923 -0.00948,0.13363c0.10563,0.61084 -0.07623,1.17086 -0.44248,1.68374c-0.86733,1.90488 -2.85937,3.2571 -5.10115,3.2571c-1.99771,0.93728 -4.58753,-2.61456 -5.87669,-3.30033c-4.55166,-2.42126 -10.01025,-5.23919 -15.53151,-5.24615c-6.24135,-0.00787 -13.59982,1.13491 -19.44828,3.96635c-1.36656,0.66159 -3.46692,2.74434 -5.29454,2.98434c-2.81408,0.36954 -5.34227,0.70716 -6.47074,-3.20938c-1.87424,-6.50481 10.10068,-9.95444 14.49574,-11.22616c12.34813,-3.57296 25.26951,-3.60027 36.04524,2.86156c2.42399,1.45358 4.4246,2.45179 5.80861,4.07048z" fill="#67dc31" stroke="none" stroke-linecap="butt"/><path d="M370.81119,101.36327c0.79967,0.90162 1.24992,2.10035 1.17429,3.41602c-0.00257,0.04468 -0.00573,0.08923 -0.00948,0.13363c0.06621,0.38287 0.01948,0.74578 -0.11482,1.08963c5.80954,7.41332 14.03997,18.62151 12.87933,27.01223c-0.85716,6.19674 -1.09246,12.50985 -2.90929,18.56177c-1.86188,6.20195 -5.19918,12.52298 -5.0479,19.07736c0.20103,8.70959 4.5516,17.59095 6.84999,25.78264c2.38473,8.49938 4.33369,17.25799 7.096,25.5876c0.90765,2.737 0.42543,5.99173 -3.46571,7.22c-7.38285,2.33044 -9.33663,-13.10168 -10.41081,-17.20892c-0.43927,-1.6796 -0.89932,-3.35308 -1.35705,-5.0272c-0.66919,-2.44756 -1.2902,-4.91051 -2.02368,-7.3378c-2.72344,-9.01258 -7.53907,-18.97113 -7.23229,-28.65568c0.41425,-13.07772 7.43851,-24.6059 7.92187,-37.91631c0.35805,-9.85998 -9.83818,-17.68739 -14.53541,-24.94807c-0.43369,-0.67036 -0.6622,-1.48059 -0.68948,-2.32402c-0.00785,-0.16861 -0.00699,-0.33964 0.00296,-0.5127c0.01998,-0.34761 0.07573,-0.68706 0.16362,-1.01502c0.00611,-0.02434 0.0124,-0.04865 0.01884,-0.07293c-3.33372,-1.82817 -8.44653,-2.86544 -11.7412,-2.91821c-4.80089,-0.07689 -9.5407,-0.61928 -14.24983,0.52893c-2.88194,0.7027 -7.03529,5.21195 -10.03586,3.20859c-1.41626,-0.94557 -2.66639,-2.5549 -2.69664,-4.25508c-0.11586,-6.51217 10.70834,-9.25093 15.76673,-9.55362c10.35765,-0.61979 29.2666,-0.39445 34.64584,10.12717z" fill="#4cc513" stroke="none" stroke-linecap="butt"/><path d="M370.49012,106.33129c1.36749,0.26674 17.0948,27.68715 17.29715,28.91505c1.06053,6.43547 0.84265,12.99759 0.64619,19.58985c-0.21672,7.27194 -1.60235,14.48473 -1.79856,21.69645c-0.23542,8.65275 4.52485,16.87144 4.07468,25.46291c-0.35918,6.85491 -0.59314,13.71257 -1.18211,20.56498c-0.22968,2.67223 -2.14004,5.07448 -5.5531,5.07448c-3.41582,0 -5.04585,-2.40224 -4.96973,-5.07448c0.19121,-6.71238 0.83662,-13.43029 1.15796,-20.145c0.37494,-7.83477 -3.2653,-16.17001 -4.00011,-24.02746c-0.64416,-6.88811 1.36726,-16.9191 1.73864,-23.37309c0.28778,-5.00119 0.41636,-10.75767 -0.20014,-15.7598c-0.23193,-1.88183 -1.17707,-4.21195 -0.695,-6.10029c0.05562,-0.21787 -15.19514,-21.08635 -15.08978,-21.27459c0.91746,-1.63918 -1.2984,-5.85321 1.18988,-7.46362c2.48828,-1.61041 7.38402,1.9146 7.38402,1.9146z" fill="#7ade4c" stroke="none" stroke-linecap="butt"/><path d="M345.98106,120.25799c-1.26719,0.78574 -5.76882,-1.85545 -7.47774,-1.85774c-1.65328,-0.00222 -3.3065,-0.00582 -4.96023,0c-2.45901,0.00866 -3.50197,2.64802 -6.52748,2.43532c-3.49785,-0.2459 -5.22035,-4.9339 -3.66115,-7.94281c1.34608,-2.59762 4.38362,-2.84363 6.71427,-3.8142c4.54401,-1.8923 12.23656,-1.69529 17.03249,1.1168c2.02489,1.18729 3.53343,2.84076 4.07063,4.99996z" fill="#9efd71" stroke="none" stroke-linecap="butt"/><path d="M359.62051,108.96229c1.25381,0.92328 2.01676,2.41425 1.92006,4.0964c-0.00257,0.04468 -0.00573,0.08923 -0.00948,0.13363c0.10563,0.61084 -0.07622,1.17086 -0.44247,1.68374c-0.86733,1.90488 -2.85937,3.2571 -5.10115,3.2571c-1.27419,0.59782 -2.23227,-0.06291 -3.0282,-0.96234c-0.70298,-0.51175 -1.25367,-1.20105 -1.58794,-2.00243c-0.15547,-0.16559 -0.3082,-0.29985 -0.46042,-0.3881c-2.46723,-1.43047 -5.80291,-3.55609 -8.84691,-3.9556c-3.31959,-0.43568 -7.40263,-0.48391 -10.60179,-0.43678c-2.09802,0.03091 -3.10897,3.72033 -6.21673,2.7024c-1.64576,-0.53906 -3.54598,-1.31203 -4.24877,-2.83672c-2.533,-5.4953 5.52636,-9.12839 9.71227,-10.01463c8.23638,-1.74379 23.38642,1.52304 28.91153,8.72332z" fill="#67dc31" stroke="none" stroke-linecap="butt"/></g><path d="M330.61051,89.25522c2.61476,-5.48608 -1.32607,-9.12625 3.12899,-15.46315c4.45506,-6.3369 5.8361,-10.52167 12.78585,-14.96945c6.94975,-4.44779 7.03118,-8.14208 19.45592,-5.66501c12.42474,2.47707 24.40214,10.98248 28.579,15.2415c4.17686,4.25902 -0.21695,12.77784 1.23297,15.15684c1.44992,2.379 1.76047,1.01973 6.31435,-2.77336c4.55388,-3.79308 10.35353,-11.10987 10.35353,-11.10987c0,0 -2.47532,14.31359 -7.04484,18.73319c-4.56953,4.4196 -9.22448,7.47033 -14.85205,2.44524c-5.62757,-5.02509 3.70933,-10.73874 -2.89855,-18.29545c-6.60788,-7.5567 -15.4724,-10.59451 -22.93469,-11.24721c-7.46229,-0.6527 -12.5881,1.49145 -17.07628,7.74762c-4.48819,6.25617 -3.47382,14.24902 -5.00833,20.30174c-1.53452,6.05271 -7.68917,14.00446 -7.68917,14.00446c0,0 -2.71522,2.10847 -5.46706,1.13473c-2.75633,-0.97534 -3.05746,-7.23197 -3.05746,-7.23197c0,0 1.56305,-2.52379 4.17781,-8.00987z" fill="#026b00" stroke="#000000" stroke-width="2" stroke-linecap="round"/><g stroke-linecap="butt"><g stroke="#000000" stroke-width="2"><path d="M267.90152,127.68162c-0.70895,-3.55165 1.21303,-8.77694 4.83478,-9.49988c3.62175,-0.72294 7.57178,3.33023 8.28073,6.88188c0.70895,3.55165 -1.73647,5.71387 -5.35822,6.43681c-3.62175,0.72294 -7.04834,-0.26716 -7.75729,-3.81881z" fill="#d995cc"/><path d="M281.26375,124.01406c-3.4978,-0.93927 -7.32924,-4.9788 -6.37143,-8.54563c0.95781,-3.56683 6.34217,-5.31029 9.83997,-4.37103c3.4978,0.93927 4.35162,4.08987 3.39381,7.65669c-0.95781,3.56683 -3.36455,6.19922 -6.86235,5.25996z" fill="#d995cc"/><path d="M280.43879,108.87911c-1.25795,3.39624 -5.6337,6.83868 -9.09696,5.5559c-3.46326,-1.28278 -4.70257,-6.80501 -3.44462,-10.20125c1.25795,-3.39624 4.47388,-3.95577 7.93714,-2.67299c3.46326,1.28278 5.86239,3.92209 4.60444,7.31833z" fill="#d995cc"/><path d="M267.13694,104.99826c2.48642,2.63336 3.63189,8.0818 0.94655,10.61728c-2.68534,2.53548 -8.18458,1.19788 -10.671,-1.43548c-2.48642,-2.63336 -1.56207,-5.76399 1.12327,-8.29947c2.68534,-2.53548 6.11477,-3.51569 8.60118,-0.88233z" fill="#d995cc"/><path d="M258.40297,116.88369c3.03479,-1.97658 8.60019,-2.1314 10.61578,0.96329c2.01559,3.09469 -0.28188,8.26698 -3.31667,10.24356c-3.03479,1.97659 -5.95023,0.50842 -7.96582,-2.58627c-2.01559,-3.09469 -2.36809,-6.644 0.6667,-8.62058z" fill="#d995cc"/><path d="M263.30757,117.29499c0,-3.84422 3.11635,-6.96057 6.96057,-6.96057c3.84422,0 6.96056,3.11635 6.96056,6.96057c0,3.84422 -3.11635,6.96057 -6.96056,6.96057c-3.84422,0 -6.96057,-3.11635 -6.96057,-6.96057z" fill="#d8a51e"/></g><g stroke="none" stroke-width="0"><path d="M267.90152,127.68162c-0.70895,-3.55165 1.21303,-8.77694 4.83478,-9.49988c3.62175,-0.72294 7.57178,3.33024 8.28073,6.88188c0.70895,3.55165 -1.73647,5.71387 -5.35822,6.43681c-3.62175,0.72294 -7.04834,-0.26716 -7.75729,-3.81881z" fill="#d995cc"/><path d="M281.26375,124.01406c-3.4978,-0.93927 -7.32924,-4.97879 -6.37143,-8.54563c0.95781,-3.56683 6.34217,-5.31029 9.83997,-4.37103c3.4978,0.93927 4.35162,4.08987 3.39381,7.6567c-0.95781,3.56683 -3.36455,6.19922 -6.86235,5.25995z" fill="#d995cc"/><path d="M280.43879,108.87912c-1.25795,3.39624 -5.63371,6.83868 -9.09697,5.5559c-3.46326,-1.28278 -4.70257,-6.80501 -3.44462,-10.20124c1.25795,-3.39624 4.47387,-3.95577 7.93713,-2.67299c3.46326,1.28278 5.8624,3.9221 4.60445,7.31834z" fill="#d995cc"/><path d="M267.13694,104.99826c2.48641,2.63336 3.63187,8.08181 0.94654,10.61729c-2.68533,2.53548 -8.18458,1.19788 -10.67099,-1.43548c-2.48641,-2.63336 -1.56207,-5.76399 1.12326,-8.29947c2.68533,-2.53548 6.11478,-3.5157 8.60119,-0.88234z" fill="#d995cc"/><path d="M258.40297,116.88369c3.03479,-1.97658 8.60019,-2.13139 10.61578,0.96329c2.01559,3.09468 -0.28188,8.26698 -3.31667,10.24356c-3.03479,1.97659 -5.95023,0.50842 -7.96582,-2.58627c-2.01559,-3.09468 -2.36809,-6.644 0.6667,-8.62058z" fill="#d995cc"/><path d="M263.30757,117.29499c0,-3.84422 3.11635,-6.96057 6.96056,-6.96057c3.84422,0 6.96056,3.11635 6.96056,6.96057c0,3.84422 -3.11635,6.96057 -6.96056,6.96057c-3.84422,0 -6.96056,-3.11635 -6.96056,-6.96057z" fill="#d8a51e"/></g></g><g stroke-linecap="butt"><g stroke="#000000" stroke-width="2"><path d="M387.16207,179.64405c-1.75291,-2.00502 -2.44122,-6.04086 -0.39662,-7.82836c2.0446,-1.78751 6.04786,-0.64979 7.80077,1.35523c1.75291,2.00502 0.98555,4.27943 -1.05905,6.06694c-2.0446,1.78751 -4.59219,2.41122 -6.3451,0.40619z" fill="#d995cc"/><path d="M394.33912,172.41131c-2.57438,0.68221 -6.49702,-0.49024 -7.19269,-3.11542c-0.69567,-2.62518 2.09906,-5.70901 4.67344,-6.39122c2.57438,-0.68221 4.27278,1.01403 4.96845,3.63921c0.69567,2.62518 0.12518,5.18523 -2.4492,5.86744z" fill="#d995cc"/><path d="M388.26966,163.06274c0.4418,2.62634 -1.08751,6.42409 -3.76569,6.87461c-2.67817,0.45052 -5.49102,-2.61678 -5.93282,-5.24312c-0.4418,-2.62634 1.40388,-4.16101 4.08205,-4.61153c2.67817,-0.45052 5.17466,0.3537 5.61646,2.98004z" fill="#d995cc"/><path d="M378.36638,165.46016c2.54996,0.76845 5.27594,3.82308 4.49232,6.42337c-0.78362,2.60029 -4.78012,3.76156 -7.33008,2.99311c-2.54996,-0.76845 -3.1072,-3.10324 -2.32358,-5.70353c0.78362,-2.60029 2.61138,-4.4814 5.16134,-3.71295z" fill="#d995cc"/><path d="M377.15044,176.23781c1.21116,-2.3719 4.70321,-4.50905 7.12192,-3.27398c2.41872,1.23507 2.84818,5.37464 1.63702,7.74654c-1.21116,2.3719 -3.60791,2.50357 -6.02663,1.2685c-2.41872,-1.23507 -3.94348,-3.36916 -2.73232,-5.74106z" fill="#d995cc"/><path d="M380.42848,174.70368c-1.40801,-2.45124 -0.5623,-5.57979 1.88894,-6.9878c2.45125,-1.40801 5.57978,-0.5623 6.98779,1.88895c1.40801,2.45125 0.5623,5.57979 -1.88894,6.9878c-2.45124,1.40801 -5.57979,0.5623 -6.9878,-1.88895z" fill="#d8a51e"/></g><g stroke="none" stroke-width="0"><path d="M387.16207,179.64405c-1.75291,-2.00502 -2.44122,-6.04086 -0.39662,-7.82837c2.0446,-1.78751 6.04786,-0.64978 7.80077,1.35524c1.75291,2.00502 0.98555,4.27943 -1.05905,6.06694c-2.0446,1.78751 -4.59219,2.41122 -6.3451,0.40619z" fill="#ffc37a"/><path d="M394.33912,172.41131c-2.57438,0.68221 -6.49702,-0.49023 -7.19269,-3.11542c-0.69567,-2.62519 2.09906,-5.70901 4.67344,-6.39122c2.57438,-0.68221 4.27278,1.01403 4.96845,3.63922c0.69567,2.62519 0.12518,5.18522 -2.4492,5.86743z" fill="#ffc37a"/><path d="M388.26966,163.06275c0.4418,2.62634 -1.08752,6.42408 -3.76569,6.87461c-2.67817,0.45052 -5.49102,-2.61678 -5.93282,-5.24312c-0.4418,-2.62634 1.40387,-4.16101 4.08204,-4.61153c2.67817,-0.45052 5.17467,0.35371 5.61647,2.98005z" fill="#ffc37a"/><path d="M378.36637,165.46016c2.54996,0.76846 5.27594,3.82309 4.49232,6.42337c-0.78362,2.60029 -4.78012,3.76157 -7.33008,2.99311c-2.54996,-0.76846 -3.1072,-3.10324 -2.32358,-5.70353c0.78362,-2.60029 2.61137,-4.48141 5.16133,-3.71295z" fill="#ffc37a"/><path d="M377.15044,176.23781c1.21116,-2.3719 4.70322,-4.50904 7.12192,-3.27398c2.41871,1.23506 2.84818,5.37464 1.63702,7.74654c-1.21116,2.3719 -3.60792,2.50356 -6.02663,1.2685c-2.41871,-1.23506 -3.94348,-3.36916 -2.73232,-5.74106z" fill="#ffc37a"/><path d="M380.42848,174.70368c-1.40801,-2.45124 -0.56231,-5.57979 1.88894,-6.9878c2.45125,-1.40801 5.57978,-0.5623 6.98779,1.88895c1.40801,2.45125 0.5623,5.57979 -1.88894,6.9878c-2.45124,1.40801 -5.57978,0.5623 -6.98779,-1.88895z" fill="#d8a51e"/></g></g><g stroke-linecap="butt"><g stroke="#000000" stroke-width="2"><path d="M250.44285,177.15139c-1.71694,-2.40413 -1.95988,-5.00395 0.39773,-6.68766c2.35761,-1.68371 6.88032,-1.88589 8.59726,0.51825c1.71694,2.40413 -0.02208,6.50419 -2.37968,8.1879c-2.35761,1.68371 -4.89836,0.38565 -6.6153,-2.01848z" fill="#d995cc"/><path d="M250.14731,162.89197c1.39365,-2.60489 3.61625,-3.97535 6.17072,-2.60867c2.55448,1.36668 4.74097,5.33092 3.34732,7.93581c-1.39366,2.60489 -5.83972,2.86403 -8.3942,1.49734c-2.55447,-1.36668 -2.51749,-4.21959 -1.12384,-6.82449z" fill="#d995cc"/><path d="M266.72845,159.5908c2.72235,1.1474 4.29201,3.23409 3.16681,5.90375c-1.1252,2.66966 -4.87081,5.21256 -7.59316,4.06516c-2.72235,-1.1474 -3.39055,-5.55061 -2.26535,-8.22027c1.1252,-2.66966 3.96934,-2.89603 6.6917,-1.74863z" fill="#d995cc"/><path d="M274.4546,171.57935c0.17858,2.94887 -0.99584,5.281 -3.88764,5.45612c-2.8918,0.17512 -6.8318,-2.05474 -7.01038,-5.00361c-0.17858,-2.94887 3.4719,-5.50008 6.3637,-5.6752c2.8918,-0.17512 4.35574,2.27382 4.53431,5.22269z" fill="#d995cc"/><path d="M264.17959,183.46391c-2.86967,0.70193 -5.37394,-0.03746 -6.06229,-2.8516c-0.68835,-2.81413 0.80263,-7.08882 3.6723,-7.79075c2.86967,-0.70193 6.03137,2.4347 6.71972,5.24883c0.68835,2.81413 -1.46006,4.69158 -4.32973,5.39352z" fill="#d995cc"/><path d="M257.55296,175.87597c-2.24242,-2.1042 -2.35446,-5.62783 -0.25026,-7.87025c2.1042,-2.24242 5.62783,-2.35448 7.87025,-0.25028c2.24242,2.1042 2.35447,5.62783 0.25027,7.87025c-2.1042,2.24242 -5.62783,2.35448 -7.87025,0.25028z" fill="#d8a51e"/></g><g stroke="none" stroke-width="0"><path d="M250.44285,177.15139c-1.71694,-2.40413 -1.95988,-5.00395 0.39773,-6.68766c2.35761,-1.68371 6.88032,-1.8859 8.59726,0.51824c1.71694,2.40413 -0.02209,6.5042 -2.37969,8.18791c-2.35761,1.68371 -4.89836,0.38565 -6.6153,-2.01848z" fill="#807bff"/><path d="M250.14731,162.89197c1.39365,-2.60489 3.61625,-3.97535 6.17073,-2.60867c2.55448,1.36668 4.74097,5.33091 3.34732,7.93581c-1.39366,2.60489 -5.83972,2.86403 -8.3942,1.49734c-2.55447,-1.36668 -2.5175,-4.21959 -1.12385,-6.82448z" fill="#807bff"/><path d="M266.72845,159.5908c2.72235,1.1474 4.29201,3.23409 3.16681,5.90375c-1.1252,2.66966 -4.87081,5.21256 -7.59316,4.06516c-2.72235,-1.1474 -3.39055,-5.55061 -2.26535,-8.22027c1.1252,-2.66966 3.96935,-2.89604 6.69171,-1.74864z" fill="#807bff"/><path d="M274.4546,171.57935c0.17857,2.94887 -0.99584,5.281 -3.88764,5.45612c-2.8918,0.17512 -6.83181,-2.05473 -7.01038,-5.0036c-0.17857,-2.94887 3.4719,-5.50009 6.3637,-5.67521c2.8918,-0.17512 4.35574,2.27383 4.53431,5.2227z" fill="#807bff"/><path d="M264.17959,183.46391c-2.86967,0.70193 -5.37394,-0.03746 -6.06229,-2.8516c-0.68835,-2.81413 0.80263,-7.08882 3.6723,-7.79075c2.86967,-0.70193 6.03137,2.4347 6.71972,5.24883c0.68835,2.81413 -1.46006,4.69158 -4.32973,5.39352z" fill="#807bff"/><path d="M257.55296,175.87597c-2.24242,-2.1042 -2.35446,-5.62783 -0.25026,-7.87025c2.1042,-2.24242 5.62783,-2.35448 7.87025,-0.25028c2.24242,2.1042 2.35446,5.62783 0.25026,7.87025c-2.1042,2.24242 -5.62783,2.35448 -7.87025,0.25028z" fill="#d8a51e"/></g></g></g></g></svg>