<svg version="1.1" xmlns="http://www.w3.org/2000/svg" xmlns:xlink="http://www.w3.org/1999/xlink" width="214.06855" height="295.44033" viewBox="0,0,214.06855,295.44033"><g transform="translate(-213.63717,-38.88751)"><g stroke-miterlimit="10"><path d="M339.11623,296.93773c-0.61998,-0.42206 -0.19792,-1.04203 -0.19792,-1.04203l0.55957,-0.82198c1.13454,-1.66629 2.33933,-3.27978 3.5316,-4.90509c6.44455,-7.93514 13.88047,-14.97726 20.44162,-22.85064c2.97866,-3.5744 4.1909,-7.12628 5.80037,-11.48133c0.95942,-2.59608 2.11714,-4.60666 0.3473,-7.21188c-1.4588,-2.14737 -4.68652,-4.049 -6.65894,-5.76691c-2.81071,-2.45505 -6.97053,-6.54648 -8.62734,-9.88956c-2.73219,-5.51299 -1.47622,-12.20333 0.26096,-17.71249c1.94089,-3.8967 4.18492,-7.58178 7.01242,-10.90931c2.70542,-3.18385 6.01932,-5.94735 8.51605,-9.28639c0,0 0.45,-0.6 1.05,-0.15c0.6,0.45 0.15,1.05 0.15,1.05c-5.16211,6.86363 -11.39388,12.00255 -15.33759,19.85736c-1.59246,5.10697 -2.84573,11.36511 -0.30761,16.48524c1.564,3.15504 5.60086,7.10796 8.26828,9.42404c2.08008,1.81168 5.3701,3.78173 6.91453,6.05514c2.04622,3.01206 0.93882,5.54448 -0.18106,8.57476c-1.66595,4.50786 -2.96257,8.21068 -6.05503,11.92164c-6.54926,7.85912 -13.97096,14.88968 -20.4067,22.8071c-1.17407,1.60152 -2.36147,3.19074 -3.4789,4.83245l-0.55957,0.82198c0,0 -0.42206,0.61997 -1.04203,0.19792z" fill="#000000" stroke="none" stroke-width="0" stroke-linecap="butt"/><g stroke-linecap="butt"><path d="M384.90224,303.97715v-92.407h9.3835v92.407z" fill="#ab4a1e" stroke="#000000" stroke-width="0"/><path d="M384.90224,259.92513v-48.35498h9.3835v48.35498z" fill="#9a441c" stroke="#000000" stroke-width="0"/><path d="M384.90224,247.94982v-36.37967h9.3835v36.37967z" fill="#933b1b" stroke="#000000" stroke-width="0"/><path d="M384.90224,235.00427c0,-9.86977 0,-23.43412 0,-23.43412h9.3835c0,0 0,13.69377 0,23.62351c0,0.15541 -9.3835,-0.07963 -9.3835,-0.18939z" fill="#7c3116" stroke="#000000" stroke-width="0"/><path d="M392.34207,236.59748c-0.82842,0 -1.5,-0.67157 -1.5,-1.5c0,-0.82843 0.67158,-1.5 1.5,-1.5c0.82842,0 1.5,0.67157 1.5,1.5c0,0.82843 -0.67158,1.5 -1.5,1.5z" fill="#7c3116" stroke="none" stroke-width="0.5"/><path d="M388.36474,233.93822c0.25898,-0.21292 0.59054,-0.34074 0.95197,-0.34074c0.82842,0 1.5,0.67157 1.5,1.5c0,0.82843 -0.67158,1.5 -1.5,1.5c-0.44424,0 -0.84337,-0.19311 -1.11803,-0.49997c-0.25898,0.21292 -0.59054,0.34074 -0.95197,0.34074c-0.82842,0 -1.5,-0.67157 -1.5,-1.5c0,-0.82843 0.67158,-1.5 1.5,-1.5c0.44424,0 0.84337,0.19312 1.11803,0.49998z" fill="#7c3116" stroke="none" stroke-width="0.5"/><path d="M392.50133,241.8298c-0.55228,0 -1,-0.44771 -1,-1c0,-0.55229 0.44772,-1 1,-1c0.55228,0 1,0.44771 1,1c0,0.55229 -0.44772,1 -1,1z" fill="#7c3116" stroke="none" stroke-width="0.5"/><path d="M388.52055,245.49211c-0.55228,0 -1,-0.44771 -1,-1c0,-0.55229 0.44772,-1 1,-1c0.55228,0 1,0.44771 1,1c0,0.55229 -0.44772,1 -1,1z" fill="#7c3116" stroke="none" stroke-width="0.5"/><path d="M386.45055,240.07826c-0.55228,0 -1,-0.44771 -1,-1c0,-0.55229 0.44772,-1 1,-1c0.55228,0 1,0.44771 1,1c0,0.55229 -0.44772,1 -1,1z" fill="#7c3116" stroke="none" stroke-width="0.5"/><path d="M392.50133,246.10673c-0.27614,0 -0.5,-0.22386 -0.5,-0.5c0,-0.27614 0.22386,-0.5 0.5,-0.5c0.27614,0 0.5,0.22386 0.5,0.5c0,0.27614 -0.22386,0.5 -0.5,0.5z" fill="#7c3116" stroke="none" stroke-width="0.5"/><path d="M388.04283,247.22135c-0.27614,0 -0.5,-0.22386 -0.5,-0.5c0,-0.27614 0.22386,-0.5 0.5,-0.5c0.27614,0 0.5,0.22386 0.5,0.5c0,0.27614 -0.22386,0.5 -0.5,0.5z" fill="#7c3116" stroke="none" stroke-width="0.5"/><path d="M385.65439,244.19596c-0.27614,0 -0.5,-0.22386 -0.5,-0.5c0,-0.27614 0.22386,-0.5 0.5,-0.5c0.27614,0 0.5,0.22386 0.5,0.5c0,0.27614 -0.22386,0.5 -0.5,0.5z" fill="#7c3116" stroke="none" stroke-width="0.5"/><path d="M392.50133,249.97289c-0.82842,0 -1.5,-0.67157 -1.5,-1.5c0,-0.82843 0.67158,-1.5 1.5,-1.5c0.82842,0 1.5,0.67157 1.5,1.5c0,0.82843 -0.67158,1.5 -1.5,1.5z" fill="#933b1b" stroke="none" stroke-width="0.5"/><path d="M386.56672,250.13152c-0.80851,-0.0228 -1.45694,-0.68537 -1.45694,-1.4994c0,-0.82843 0.67158,-1.5 1.5,-1.5c0.61082,0 1.13637,0.36509 1.37032,0.88897c0.27472,-0.34751 0.70001,-0.57051 1.17738,-0.57051c0.82842,0 1.5,0.67157 1.5,1.5c0,0.82843 -0.67158,1.5 -1.5,1.5c-0.34517,0 -0.66312,-0.11658 -0.9166,-0.31253c-0.17892,0.27081 -0.48607,0.44946 -0.83495,0.44946c-0.35167,0 -0.66094,-0.18152 -0.83922,-0.45599z" fill="#933b1b" stroke="none" stroke-width="0.5"/><path d="M391.38667,253.6129c-0.55228,0 -1,-0.44771 -1,-1c0,-0.55229 0.44772,-1 1,-1c0.55228,0 1,0.44771 1,1c0,0.55229 -0.44772,1 -1,1z" fill="#933b1b" stroke="none" stroke-width="0.5"/><path d="M386.62941,251.46334c0.14279,-0.37787 0.5079,-0.64659 0.93576,-0.64659c0.55228,0 1,0.44771 1,1c0,0.50491 -0.3742,0.92242 -0.8604,0.99033c-0.14279,0.37787 -0.50789,0.64659 -0.93576,0.64659c-0.55228,0 -1,-0.44771 -1,-1c0,-0.50491 0.37419,-0.92242 0.86039,-0.99033z" fill="#933b1b" stroke="none" stroke-width="0.5"/><path d="M386.92821,258.04906c-0.27614,0 -0.5,-0.22386 -0.5,-0.5c0,-0.27614 0.22386,-0.5 0.5,-0.5c0.27614,0 0.5,0.22386 0.5,0.5c0,0.27614 -0.22386,0.5 -0.5,0.5z" fill="#933b1b" stroke="none" stroke-width="0.5"/><path d="M391.38667,255.97906c-0.27614,0 -0.5,-0.22386 -0.5,-0.5c0,-0.27614 0.22386,-0.5 0.5,-0.5c0.27614,0 0.5,0.22386 0.5,0.5c0,0.27614 -0.22386,0.5 -0.5,0.5z" fill="#933b1b" stroke="none" stroke-width="0.5"/><path d="M388.20209,255.34213c-0.27614,0 -0.5,-0.22386 -0.5,-0.5c0,-0.27614 0.22386,-0.5 0.5,-0.5c0.27614,0 0.5,0.22386 0.5,0.5c0,0.27614 -0.22386,0.5 -0.5,0.5z" fill="#933b1b" stroke="none" stroke-width="0.5"/><path d="M387.18137,258.93649c0.22951,0.039 0.44126,0.13014 0.62264,0.2608c0.24642,-0.1775 0.54889,-0.28207 0.87578,-0.28207c0.15222,0 0.29915,0.02267 0.43759,0.06484c0.27514,-0.33146 0.69028,-0.54253 1.15472,-0.54253c0.56709,0 1.06069,0.31471 1.31567,0.779c0.22234,-0.5501 0.76147,-0.93822 1.39126,-0.93822c0.82842,0 1.5,0.67158 1.5,1.5c0,0.82842 -0.67158,1.5 -1.5,1.5c-0.56709,0 -1.0607,-0.3147 -1.31567,-0.77899c-0.22234,0.5501 -0.76147,0.93822 -1.39126,0.93822c-0.15222,0 -0.29916,-0.02267 -0.4376,-0.06483c-0.27514,0.33146 -0.69027,0.54252 -1.15471,0.54252c-0.32689,0 -0.62936,-0.10456 -0.87578,-0.28206c-0.24642,0.1775 -0.54888,0.28206 -0.87577,0.28206c-0.82842,0 -1.5,-0.67158 -1.5,-1.5c0,-0.16503 0.02666,-0.32385 0.07589,-0.47236c-0.03474,-0.10155 -0.05358,-0.21047 -0.05358,-0.32379c0,-0.55228 0.44772,-1 1,-1c0.28841,0 0.54831,0.1221 0.73082,0.31743z" fill="#9a441c" stroke="none" stroke-width="0.5"/><path d="M391.70516,264.9183c-0.55228,0 -1,-0.44772 -1,-1c0,-0.55228 0.44772,-1 1,-1c0.55228,0 1,0.44772 1,1c0,0.55228 -0.44772,1 -1,1z" fill="#9a441c" stroke="none" stroke-width="0.5"/><path d="M386.92821,264.44061c-0.55228,0 -1,-0.44772 -1,-1c0,-0.55228 0.44772,-1 1,-1c0.55228,0 1,0.44772 1,1c0,0.55228 -0.44772,1 -1,1z" fill="#9a441c" stroke="none" stroke-width="0.5"/><path d="M392.34207,267.60293c-0.27614,0 -0.5,-0.22386 -0.5,-0.5c0,-0.27614 0.22386,-0.5 0.5,-0.5c0.27614,0 0.5,0.22386 0.5,0.5c0,0.27614 -0.22386,0.5 -0.5,0.5z" fill="#9a441c" stroke="none" stroke-width="0.5"/><path d="M389.47594,265.69216c-0.27614,0 -0.5,-0.22386 -0.5,-0.5c0,-0.27614 0.22386,-0.5 0.5,-0.5c0.27614,0 0.5,0.22386 0.5,0.5c0,0.27614 -0.22386,0.5 -0.5,0.5z" fill="#9a441c" stroke="none" stroke-width="0.5"/><path d="M388.83902,268.23985c-0.27614,0 -0.5,-0.22386 -0.5,-0.5c0,-0.27614 0.22386,-0.5 0.5,-0.5c0.27614,0 0.5,0.22386 0.5,0.5c0,0.27614 -0.22386,0.5 -0.5,0.5z" fill="#9a441c" stroke="none" stroke-width="0.5"/><path d="M387.56517,269.83216c-0.27614,0 -0.5,-0.22386 -0.5,-0.5c0,-0.27614 0.22386,-0.5 0.5,-0.5c0.27614,0 0.5,0.22386 0.5,0.5c0,0.27614 -0.22386,0.5 -0.5,0.5z" fill="#9a441c" stroke="none" stroke-width="0.5"/></g><g stroke-linecap="butt"><path d="M402.07091,334.32784v-122.75769h12.46546v122.75769z" fill="#ab4a1e" stroke="#000000" stroke-width="0"/><path d="M402.07091,275.80711v-64.23696h12.46546v64.23696z" fill="#9a441c" stroke="#000000" stroke-width="0"/><path d="M402.07091,255.73204v-44.16189h12.46546v44.16189z" fill="#933b1b" stroke="#000000" stroke-width="0"/><path d="M402.07091,231.91601c0,-6.98777 0,-20.34586 0,-20.34586h12.46546c0,0 0,13.51597 0,20.34586c0,0.01328 -12.46546,0.06137 -12.46546,0z" fill="#7c3116" stroke="#000000" stroke-width="0"/><path d="M413.09655,233.41286c-0.82842,0 -1.5,-0.67157 -1.5,-1.5c0,-0.82843 0.67158,-1.5 1.5,-1.5c0.82842,0 1.5,0.67157 1.5,1.5c0,0.82843 -0.67158,1.5 -1.5,1.5z" fill="#7c3116" stroke="none" stroke-width="0.5"/><path d="M408.79731,233.25363c-0.82842,0 -1.5,-0.67157 -1.5,-1.5c0,-0.82843 0.67158,-1.5 1.5,-1.5c0.82842,0 1.5,0.67157 1.5,1.5c0,0.82843 -0.67158,1.5 -1.5,1.5z" fill="#7c3116" stroke="none" stroke-width="0.5"/><path d="M404.17961,229.8536c0.15004,-0.05037 0.31068,-0.07767 0.47769,-0.07767c0.82842,0 1.5,0.67157 1.5,1.5c0,0.82843 -0.67158,1.5 -1.5,1.5c-0.16701,0 -0.32765,-0.0273 -0.47769,-0.07766c-0.15004,0.05037 -0.31069,0.07766 -0.4777,0.07766c-0.82842,0 -1.5,-0.67157 -1.5,-1.5c0,-0.82843 0.67158,-1.5 1.5,-1.5c0.16701,0 0.32765,0.0273 0.4777,0.07767z" fill="#7c3116" stroke="none" stroke-width="0.5"/><path d="M412.93732,236.57517c-0.55228,0 -1,-0.44771 -1,-1c0,-0.55229 0.44772,-1 1,-1c0.55228,0 1,0.44771 1,1c0,0.55229 -0.44772,1 -1,1z" fill="#7c3116" stroke="none" stroke-width="0.5"/><path d="M409.91192,236.89363c-0.55228,0 -1,-0.44771 -1,-1c0,-0.55229 0.44772,-1 1,-1c0.55228,0 1,0.44771 1,1c0,0.55229 -0.44772,1 -1,1z" fill="#7c3116" stroke="none" stroke-width="0.5"/><path d="M405.77192,238.96364c-0.55228,0 -1,-0.44771 -1,-1c0,-0.55229 0.44772,-1 1,-1c0.55228,0 1,0.44771 1,1c0,0.55229 -0.44772,1 -1,1z" fill="#7c3116" stroke="none" stroke-width="0.5"/><path d="M411.98193,241.3298c-0.27614,0 -0.5,-0.22386 -0.5,-0.5c0,-0.27614 0.22386,-0.5 0.5,-0.5c0.27614,0 0.5,0.22386 0.5,0.5c0,0.27614 -0.22386,0.5 -0.5,0.5z" fill="#7c3116" stroke="none" stroke-width="0.5"/><path d="M408.63808,242.12595c-0.27614,0 -0.5,-0.22386 -0.5,-0.5c0,-0.27614 0.22386,-0.5 0.5,-0.5c0.27614,0 0.5,0.22386 0.5,0.5c0,0.27614 -0.22386,0.5 -0.5,0.5z" fill="#7c3116" stroke="none" stroke-width="0.5"/><path d="M406.40884,246.26596c-0.27614,0 -0.5,-0.22386 -0.5,-0.5c0,-0.27614 0.22386,-0.5 0.5,-0.5c0.27614,0 0.5,0.22386 0.5,0.5c0,0.27614 -0.22386,0.5 -0.5,0.5z" fill="#7c3116" stroke="none" stroke-width="0.5"/><path d="M412.45962,257.13829c-0.82842,0 -1.5,-0.67157 -1.5,-1.5c0,-0.82843 0.67158,-1.5 1.5,-1.5c0.82842,0 1.5,0.67157 1.5,1.5c0,0.82843 -0.67158,1.5 -1.5,1.5z" fill="#933b1b" stroke="none" stroke-width="0.5"/><path d="M404.58745,254.63337c0.21059,-0.11271 0.45122,-0.17661 0.70677,-0.17661c0.42204,0 0.80338,0.1743 1.07594,0.45484c0.25588,-0.46117 0.74775,-0.7733 1.31252,-0.7733c0.29249,0 0.56543,0.08371 0.79615,0.22849c0.23073,-0.14478 0.50367,-0.22849 0.79616,-0.22849c0.82842,0 1.5,0.67157 1.5,1.5c0,0.82843 -0.67158,1.5 -1.5,1.5c-0.29249,0 -0.56543,-0.08372 -0.79616,-0.2285c-0.23073,0.14477 -0.50367,0.2285 -0.79615,0.2285c-0.42204,0 -0.80337,-0.1743 -1.07593,-0.45484c-0.22059,0.39757 -0.61657,0.68437 -1.08345,0.75592c-0.21059,0.11271 -0.45122,0.17661 -0.70678,0.17661c-0.82842,0 -1.5,-0.67158 -1.5,-1.5c0,-0.75054 0.55123,-1.37232 1.27092,-1.48261z" fill="#933b1b" stroke="none" stroke-width="0.5"/><path d="M410.38962,260.30061c-0.55228,0 -1,-0.44772 -1,-1c0,-0.55228 0.44772,-1 1,-1c0.55228,0 1,0.44772 1,1c0,0.55228 -0.44772,1 -1,1z" fill="#933b1b" stroke="none" stroke-width="0.5"/><path d="M404.81653,260.14137c-0.55228,0 -1,-0.44772 -1,-1c0,-0.55228 0.44772,-1 1,-1c0.55228,0 1,0.44772 1,1c0,0.55228 -0.44772,1 -1,1z" fill="#933b1b" stroke="none" stroke-width="0.5"/><path d="M411.66344,263.30368c-0.27614,0 -0.5,-0.22386 -0.5,-0.5c0,-0.27614 0.22386,-0.5 0.5,-0.5c0.27614,0 0.5,0.22386 0.5,0.5c0,0.27614 -0.22386,0.5 -0.5,0.5z" fill="#933b1b" stroke="none" stroke-width="0.5"/><path d="M406.24958,265.53292c-0.27614,0 -0.5,-0.22386 -0.5,-0.5c0,-0.27614 0.22386,-0.5 0.5,-0.5c0.27614,0 0.5,0.22386 0.5,0.5c0,0.27614 -0.22386,0.5 -0.5,0.5z" fill="#933b1b" stroke="none" stroke-width="0.5"/><path d="M410.23039,269.5137c-0.27614,0 -0.5,-0.22386 -0.5,-0.5c0,-0.27614 0.22386,-0.5 0.5,-0.5c0.27614,0 0.5,0.22386 0.5,0.5c0,0.27614 -0.22386,0.5 -0.5,0.5z" fill="#933b1b" stroke="none" stroke-width="0.5"/><path d="M413.09655,277.51987c-0.82842,0 -1.5,-0.67158 -1.5,-1.5c0,-0.82842 0.67158,-1.5 1.5,-1.5c0.82842,0 1.5,0.67158 1.5,1.5c0,0.82842 -0.67158,1.5 -1.5,1.5z" fill="#9a441c" stroke="none" stroke-width="0.5"/><path d="M409.43423,278.93064c-0.55228,0 -1,-0.44772 -1,-1c0,-0.039 0.00223,-0.07748 0.00657,-0.11532c-0.349,-0.01305 -0.65225,-0.20495 -0.82078,-0.48671c-0.21686,0.1218 -0.46706,0.19126 -0.7335,0.19126c-0.32689,0 -0.62935,-0.10456 -0.87577,-0.28206c-0.24642,0.1775 -0.54888,0.28206 -0.87577,0.28206c-0.08129,0 -0.16106,-0.00646 -0.23884,-0.01891c-0.07778,0.01245 -0.15756,0.01891 -0.23885,0.01891c-0.82842,0 -1.5,-0.67158 -1.5,-1.5c0,-0.82842 0.67158,-1.5 1.5,-1.5c0.08129,0 0.16107,0.00647 0.23885,0.01891c0.07778,-0.01245 0.15755,-0.01891 0.23884,-0.01891c0.32689,0 0.62935,0.10457 0.87577,0.28207c0.24642,-0.1775 0.54888,-0.28207 0.87577,-0.28207c0.36302,0 0.69592,0.12896 0.95539,0.34356c0.25947,-0.2146 0.59236,-0.34356 0.95538,-0.34356c0.82842,0 1.5,0.67158 1.5,1.5c0,0.39528 -0.1529,0.75484 -0.40276,1.02278c0.32065,0.16656 0.53969,0.50169 0.53969,0.88799c0,0.55228 -0.44772,1 -1,1z" fill="#9a441c" stroke="none" stroke-width="0.5"/><path d="M412.14116,282.91142c-0.55228,0 -1,-0.44772 -1,-1c0,-0.55228 0.44772,-1 1,-1c0.55228,0 1,0.44772 1,1c0,0.55228 -0.44772,1 -1,1z" fill="#9a441c" stroke="none" stroke-width="0.5"/><path d="M404.6573,281.00065c-0.55228,0 -1,-0.44772 -1,-1c0,-0.55228 0.44772,-1 1,-1c0.55228,0 1,0.44772 1,1c0,0.55228 -0.44772,1 -1,1z" fill="#9a441c" stroke="none" stroke-width="0.5"/><path d="M413.4501,292.45576l-0.47769,0.47769c0,0 -0.35356,0.35355 -0.70711,0c-0.35355,-0.35355 0,-0.70711 0,-0.70711l0.47769,-0.47769c0,0 0.35355,-0.35355 0.70711,0c0.35355,0.35355 0,0.70711 0,0.70711z" fill="#9a441c" stroke="none" stroke-width="0.5"/><path d="M411.345,286.23296c-0.27614,0 -0.5,-0.22386 -0.5,-0.5c0,-0.27614 0.22386,-0.5 0.5,-0.5c0.27614,0 0.5,0.22386 0.5,0.5c0,0.27614 -0.22386,0.5 -0.5,0.5z" fill="#9a441c" stroke="none" stroke-width="0.5"/><path d="M407.68269,284.16296c-0.27614,0 -0.5,-0.22386 -0.5,-0.5c0,-0.27614 0.22386,-0.5 0.5,-0.5c0.27614,0 0.5,0.22386 0.5,0.5c0,0.27614 -0.22386,0.5 -0.5,0.5z" fill="#9a441c" stroke="none" stroke-width="0.5"/><path d="M403.38345,288.30297c-0.27614,0 -0.5,-0.22386 -0.5,-0.5c0,-0.27614 0.22386,-0.5 0.5,-0.5c0.27614,0 0.5,0.22386 0.5,0.5c0,0.27614 -0.22386,0.5 -0.5,0.5z" fill="#9a441c" stroke="none" stroke-width="0.5"/><path d="M407.205,289.57682c-0.27614,0 -0.5,-0.22386 -0.5,-0.5c0,-0.27614 0.22386,-0.5 0.5,-0.5c0.27614,0 0.5,0.22386 0.5,0.5c0,0.27614 -0.22386,0.5 -0.5,0.5z" fill="#9a441c" stroke="none" stroke-width="0.5"/></g><path d="M338.45852,181.4817c0.74999,0.00418 0.74581,0.75417 0.74581,0.75417l-0.00814,1.46102c-0.11987,9.52776 -8.82394,15.60647 -15.45445,21.34607c-8.08195,5.72539 -16.66397,14.79315 -26.94308,14.79315c-6.37581,0 -12.61726,-0.0549 -18.96597,-0.65384c-4.51772,-0.4262 -7.61587,-0.64469 -11.47758,-3.11824c-1.94173,-3.81196 -2.02153,-7.73198 -1.24603,-11.64295c-1.64443,3.71149 -3.28798,7.42335 -4.93232,11.13487c-1.30809,2.95254 -0.49984,4.37804 0.61255,7.35771c0.25293,0.67751 0.70851,3.06297 1.24534,3.51164c1.19873,1.00187 3.81591,1.53707 5.28094,2.15281c3.68755,1.54984 7.37509,3.09968 11.06264,4.64952c2.96819,1.2475 6.07492,0.6476 9.27591,0.51423c3.8942,-0.16226 8.05892,0.07894 11.91084,-0.49211c2.88175,-0.42722 5.81329,-1.5055 8.6366,-2.23458c1.90138,-0.491 5.20305,-0.67811 6.83091,-1.73145c1.78836,-1.15719 3.42668,-3.82631 4.8699,-5.4181c3.69429,-4.07459 7.38858,-8.14916 11.08287,-12.22375c3.89976,-4.30121 6.15544,-10.22515 8.83446,-15.36892c0.71226,-1.36756 3.00599,-4.2739 3.04345,-5.76288c0.04759,-1.89105 -0.88142,-3.34619 -1.79264,-4.8995c-0.1621,-0.24516 -0.32419,-0.49032 -0.48629,-0.73548l-0.4923,-0.48713c0,0 -0.53033,-0.53033 0,-1.06066c0.53033,-0.53033 1.06066,0 1.06066,0l0.59165,0.59682c0.19922,0.29682 0.39844,0.59364 0.59766,0.89046c1.08582,1.84899 2.17019,3.67525 2.00119,5.94004c-0.13654,1.82987 -2.34177,4.57685 -3.193,6.21124c-2.74253,5.2657 -5.05949,11.27831 -9.05358,15.68356c-3.69429,4.07459 -7.38858,8.14916 -11.08287,12.22375c-1.54199,1.70072 -3.27425,4.46825 -5.20543,5.6944c-1.80585,1.14658 -5.15307,1.36321 -7.23158,1.89996c-2.87541,0.74253 -5.85608,1.8308 -8.79167,2.26601c-3.9061,0.57908 -8.12018,0.34251 -12.06836,0.50702c-3.44177,0.14341 -6.71131,0.7183 -9.91955,-0.63009c-3.68754,-1.54984 -7.37509,-3.09968 -11.06264,-4.64952c-1.62132,-0.68142 -4.49014,-1.31558 -5.7817,-2.49671c-0.1374,-0.12565 -1.02181,-2.56118 -1.04403,-2.62069c-1.3723,-3.67587 -2.77013,-6.133 -1.10334,-9.89519c3.55629,-8.02706 7.10889,-16.05576 10.67462,-24.07864c0,0 0.24598,-0.55346 0.79321,-0.44461c0.11921,-0.02356 0.2606,-0.01524 0.42648,0.04697c0.70225,0.26334 0.4389,0.96559 0.4389,0.96559c-1.82454,4.86544 -3.84145,9.79644 -4.83031,14.89879c-0.34751,1.79312 -0.8234,3.69176 -0.33681,5.5215c0.2883,1.0841 1.06199,2.15994 1.50035,3.20454c3.5639,2.07692 6.38022,2.23758 10.50181,2.62641c6.30212,0.59454 12.49577,0.64721 18.82509,0.64721c6.41884,0 10.01033,-2.98365 15.0432,-6.67786c3.61641,-2.65451 7.31063,-5.20697 10.9744,-7.79573c6.22769,-5.4041 14.76716,-11.21516 14.88,-20.17924l0.00811,-1.45575c0,0 0.00417,-0.74999 0.75417,-0.74581z" fill="#000000" stroke="none" stroke-width="0" stroke-linecap="butt"/><g stroke-linecap="butt"><path d="M248.8192,303.97715v-92.407h9.3835v92.407z" fill="#ab4a1e" stroke="#000000" stroke-width="0"/><path d="M248.8192,259.92513v-48.35498h9.3835v48.35498z" fill="#9a441c" stroke="#000000" stroke-width="0"/><path d="M248.8192,247.94982v-36.37967h9.3835v36.37967z" fill="#933b1b" stroke="#000000" stroke-width="0"/><path d="M248.8192,235.19366c0,-9.92974 0,-23.62351 0,-23.62351h9.3835c0,0 0,13.56435 0,23.43412c0,0.10976 -9.3835,0.3448 -9.3835,0.18939z" fill="#7c3116" stroke="#000000" stroke-width="0"/><path d="M249.26286,235.09748c0,-0.82843 0.67157,-1.5 1.5,-1.5c0.82843,0 1.5,0.67157 1.5,1.5c0,0.82843 -0.67157,1.5 -1.5,1.5c-0.82843,0 -1.5,-0.67157 -1.5,-1.5z" fill="#7c3116" stroke="none" stroke-width="0.5"/><path d="M255.85824,233.43825c0.82843,0 1.5,0.67157 1.5,1.5c0,0.82843 -0.67157,1.5 -1.5,1.5c-0.36143,0 -0.693,-0.12782 -0.95197,-0.34074c-0.27466,0.30686 -0.67379,0.49997 -1.11803,0.49997c-0.82843,0 -1.5,-0.67157 -1.5,-1.5c0,-0.82843 0.67157,-1.5 1.5,-1.5c0.36143,0 0.693,0.12783 0.95197,0.34074c0.27466,-0.30686 0.67379,-0.49998 1.11803,-0.49998z" fill="#7c3116" stroke="none" stroke-width="0.5"/><path d="M249.60359,240.8298c0,-0.55229 0.44771,-1 1,-1c0.55229,0 1,0.44771 1,1c0,0.55229 -0.44771,1 -1,1c-0.55229,0 -1,-0.44771 -1,-1z" fill="#7c3116" stroke="none" stroke-width="0.5"/><path d="M253.58441,244.49211c0,-0.55229 0.44771,-1 1,-1c0.55229,0 1,0.44771 1,1c0,0.55229 -0.44771,1 -1,1c-0.55229,0 -1,-0.44771 -1,-1z" fill="#7c3116" stroke="none" stroke-width="0.5"/><path d="M255.65437,239.07826c0,-0.55229 0.44771,-1 1,-1c0.55228,0 1,0.44771 1,1c0,0.55229 -0.44772,1 -1,1c-0.55228,0 -1,-0.44771 -1,-1z" fill="#7c3116" stroke="none" stroke-width="0.5"/><path d="M250.10359,245.60673c0,-0.27614 0.22386,-0.5 0.5,-0.5c0.27614,0 0.5,0.22386 0.5,0.5c0,0.27614 -0.22386,0.5 -0.5,0.5c-0.27614,0 -0.5,-0.22386 -0.5,-0.5z" fill="#7c3116" stroke="none" stroke-width="0.5"/><path d="M254.5621,246.72135c0,-0.27614 0.22386,-0.5 0.5,-0.5c0.27614,0 0.5,0.22386 0.5,0.5c0,0.27614 -0.22386,0.5 -0.5,0.5c-0.27614,0 -0.5,-0.22386 -0.5,-0.5z" fill="#7c3116" stroke="none" stroke-width="0.5"/><path d="M256.95054,243.69596c0,-0.27614 0.22386,-0.5 0.5,-0.5c0.27614,0 0.5,0.22386 0.5,0.5c0,0.27614 -0.22386,0.5 -0.5,0.5c-0.27614,0 -0.5,-0.22386 -0.5,-0.5z" fill="#7c3116" stroke="none" stroke-width="0.5"/><path d="M249.10359,248.47289c0,-0.82843 0.67157,-1.5 1.5,-1.5c0.82843,0 1.5,0.67157 1.5,1.5c0,0.82843 -0.67157,1.5 -1.5,1.5c-0.82843,0 -1.5,-0.67157 -1.5,-1.5z" fill="#933b1b" stroke="none" stroke-width="0.5"/><path d="M255.69902,250.58751c-0.34887,0 -0.65602,-0.17865 -0.83495,-0.44946c-0.25348,0.19595 -0.57142,0.31253 -0.9166,0.31253c-0.82843,0 -1.5,-0.67157 -1.5,-1.5c0,-0.82843 0.67157,-1.5 1.5,-1.5c0.47737,0 0.90266,0.223 1.17738,0.57051c0.23395,-0.52388 0.7595,-0.88897 1.37032,-0.88897c0.82842,0 1.5,0.67157 1.5,1.5c0,0.81402 -0.64842,1.4766 -1.45693,1.4994c-0.17828,0.27446 -0.48755,0.45599 -0.83922,0.45599z" fill="#933b1b" stroke="none" stroke-width="0.5"/><path d="M250.71821,252.6129c0,-0.55229 0.44771,-1 1,-1c0.55229,0 1,0.44771 1,1c0,0.55229 -0.44771,1 -1,1c-0.55229,0 -1,-0.44771 -1,-1z" fill="#933b1b" stroke="none" stroke-width="0.5"/><path d="M257.33592,252.45367c0,0.55229 -0.44772,1 -1,1c-0.42786,0 -0.79298,-0.26872 -0.93576,-0.64659c-0.4862,-0.06791 -0.8604,-0.48542 -0.8604,-0.99033c0,-0.55229 0.44771,-1 1,-1c0.42786,0 0.79297,0.26872 0.93576,0.64659c0.4862,0.06791 0.8604,0.48542 0.8604,0.99033z" fill="#933b1b" stroke="none" stroke-width="0.5"/><path d="M255.67672,257.54906c0,-0.27614 0.22386,-0.5 0.5,-0.5c0.27614,0 0.5,0.22386 0.5,0.5c0,0.27614 -0.22386,0.5 -0.5,0.5c-0.27614,0 -0.5,-0.22386 -0.5,-0.5z" fill="#933b1b" stroke="none" stroke-width="0.5"/><path d="M251.21821,255.47906c0,-0.27614 0.22386,-0.5 0.5,-0.5c0.27614,0 0.5,0.22386 0.5,0.5c0,0.27614 -0.22386,0.5 -0.5,0.5c-0.27614,0 -0.5,-0.22386 -0.5,-0.5z" fill="#933b1b" stroke="none" stroke-width="0.5"/><path d="M254.40283,254.84213c0,-0.27614 0.22386,-0.5 0.5,-0.5c0.27614,0 0.5,0.22386 0.5,0.5c0,0.27614 -0.22386,0.5 -0.5,0.5c-0.27614,0 -0.5,-0.22386 -0.5,-0.5z" fill="#933b1b" stroke="none" stroke-width="0.5"/><path d="M256.65435,258.61906c0.55228,0 1,0.44772 1,1c0,0.11332 -0.01884,0.22224 -0.05358,0.32379c0.04924,0.14851 0.07589,0.30733 0.07589,0.47236c0,0.82842 -0.67158,1.5 -1.5,1.5c-0.32689,0 -0.62935,-0.10456 -0.87577,-0.28206c-0.24642,0.1775 -0.54889,0.28206 -0.87578,0.28206c-0.46444,0 -0.87957,-0.21107 -1.15471,-0.54252c-0.13844,0.04216 -0.28538,0.06483 -0.4376,0.06483c-0.62978,0 -1.16891,-0.38812 -1.39126,-0.93822c-0.25498,0.46429 -0.74858,0.77899 -1.31567,0.77899c-0.82843,0 -1.5,-0.67158 -1.5,-1.5c0,-0.82842 0.67157,-1.5 1.5,-1.5c0.62978,0 1.16892,0.38813 1.39126,0.93822c0.25498,-0.46429 0.74857,-0.779 1.31567,-0.779c0.46444,0 0.87958,0.21107 1.15472,0.54253c0.13844,-0.04216 0.28537,-0.06484 0.43759,-0.06484c0.32689,0 0.62936,0.10456 0.87578,0.28207c0.18139,-0.13066 0.39314,-0.22179 0.62265,-0.2608c0.18251,-0.19533 0.4424,-0.31743 0.73081,-0.31743z" fill="#9a441c" stroke="none" stroke-width="0.5"/><path d="M250.39978,263.9183c0,-0.55228 0.44771,-1 1,-1c0.55229,0 1,0.44772 1,1c0,0.55228 -0.44771,1 -1,1c-0.55229,0 -1,-0.44772 -1,-1z" fill="#9a441c" stroke="none" stroke-width="0.5"/><path d="M255.17672,263.44061c0,-0.55228 0.44771,-1 1,-1c0.55228,0 1,0.44772 1,1c0,0.55228 -0.44772,1 -1,1c-0.55229,0 -1,-0.44772 -1,-1z" fill="#9a441c" stroke="none" stroke-width="0.5"/><path d="M250.26286,267.10293c0,-0.27614 0.22386,-0.5 0.5,-0.5c0.27614,0 0.5,0.22386 0.5,0.5c0,0.27614 -0.22386,0.5 -0.5,0.5c-0.27614,0 -0.5,-0.22386 -0.5,-0.5z" fill="#9a441c" stroke="none" stroke-width="0.5"/><path d="M253.12901,265.19216c0,-0.27614 0.22386,-0.5 0.5,-0.5c0.27614,0 0.5,0.22386 0.5,0.5c0,0.27614 -0.22386,0.5 -0.5,0.5c-0.27614,0 -0.5,-0.22386 -0.5,-0.5z" fill="#9a441c" stroke="none" stroke-width="0.5"/><path d="M253.76592,267.73985c0,-0.27614 0.22386,-0.5 0.5,-0.5c0.27614,0 0.5,0.22386 0.5,0.5c0,0.27614 -0.22386,0.5 -0.5,0.5c-0.27614,0 -0.5,-0.22386 -0.5,-0.5z" fill="#9a441c" stroke="none" stroke-width="0.5"/><path d="M255.03975,269.33216c0,-0.27614 0.22386,-0.5 0.5,-0.5c0.27614,0 0.5,0.22386 0.5,0.5c0,0.27614 -0.22386,0.5 -0.5,0.5c-0.27614,0 -0.5,-0.22386 -0.5,-0.5z" fill="#9a441c" stroke="none" stroke-width="0.5"/></g><g stroke-linecap="butt"><path d="M227.34911,334.32784v-122.75769h12.46546v122.75769z" fill="#ab4a1e" stroke="#000000" stroke-width="0"/><path d="M227.34911,275.80711v-64.23696h12.46546v64.23696z" fill="#9a441c" stroke="#000000" stroke-width="0"/><path d="M227.34911,255.73204v-44.16189h12.46546v44.16189z" fill="#933b1b" stroke="#000000" stroke-width="0"/><path d="M227.34911,231.91601c0,-6.82989 0,-20.34586 0,-20.34586h12.46546c0,0 0,13.35809 0,20.34586c0,0.06137 -12.46546,0.01328 -12.46546,0z" fill="#7c3116" stroke="#000000" stroke-width="0"/><path d="M227.28893,231.91286c0,-0.82843 0.67157,-1.5 1.5,-1.5c0.82843,0 1.5,0.67157 1.5,1.5c0,0.82843 -0.67157,1.5 -1.5,1.5c-0.82843,0 -1.5,-0.67157 -1.5,-1.5z" fill="#7c3116" stroke="none" stroke-width="0.5"/><path d="M231.58818,231.75363c0,-0.82843 0.67157,-1.5 1.5,-1.5c0.82843,0 1.5,0.67157 1.5,1.5c0,0.82843 -0.67157,1.5 -1.5,1.5c-0.82843,0 -1.5,-0.67157 -1.5,-1.5z" fill="#7c3116" stroke="none" stroke-width="0.5"/><path d="M238.18356,229.77593c0.82843,0 1.5,0.67157 1.5,1.5c0,0.82843 -0.67157,1.5 -1.5,1.5c-0.16701,0 -0.32765,-0.0273 -0.47769,-0.07766c-0.15005,0.05037 -0.31068,0.07766 -0.47769,0.07766c-0.82843,0 -1.5,-0.67157 -1.5,-1.5c0,-0.82843 0.67157,-1.5 1.5,-1.5c0.16701,0 0.32765,0.0273 0.47769,0.07767c0.15005,-0.05037 0.31068,-0.07767 0.47769,-0.07767z" fill="#7c3116" stroke="none" stroke-width="0.5"/><path d="M227.9482,235.57517c0,-0.55229 0.44771,-1 1,-1c0.55229,0 1,0.44771 1,1c0,0.55229 -0.44771,1 -1,1c-0.55229,0 -1,-0.44771 -1,-1z" fill="#7c3116" stroke="none" stroke-width="0.5"/><path d="M230.97357,235.89363c0,-0.55229 0.44771,-1 1,-1c0.55229,0 1,0.44771 1,1c0,0.55229 -0.44771,1 -1,1c-0.55229,0 -1,-0.44771 -1,-1z" fill="#7c3116" stroke="none" stroke-width="0.5"/><path d="M235.1136,237.96364c0,-0.55229 0.44771,-1 1,-1c0.55229,0 1,0.44771 1,1c0,0.55229 -0.44771,1 -1,1c-0.55229,0 -1,-0.44771 -1,-1z" fill="#7c3116" stroke="none" stroke-width="0.5"/><path d="M229.40355,240.8298c0,-0.27614 0.22386,-0.5 0.5,-0.5c0.27614,0 0.5,0.22386 0.5,0.5c0,0.27614 -0.22386,0.5 -0.5,0.5c-0.27614,0 -0.5,-0.22386 -0.5,-0.5z" fill="#7c3116" stroke="none" stroke-width="0.5"/><path d="M232.7474,241.62595c0,-0.27614 0.22386,-0.5 0.5,-0.5c0.27614,0 0.5,0.22386 0.5,0.5c0,0.27614 -0.22386,0.5 -0.5,0.5c-0.27614,0 -0.5,-0.22386 -0.5,-0.5z" fill="#7c3116" stroke="none" stroke-width="0.5"/><path d="M234.97663,245.76596c0,-0.27614 0.22386,-0.5 0.5,-0.5c0.27614,0 0.5,0.22386 0.5,0.5c0,0.27614 -0.22386,0.5 -0.5,0.5c-0.27614,0 -0.5,-0.22386 -0.5,-0.5z" fill="#7c3116" stroke="none" stroke-width="0.5"/><path d="M227.92585,255.63829c0,-0.82843 0.67157,-1.5 1.5,-1.5c0.82843,0 1.5,0.67157 1.5,1.5c0,0.82843 -0.67157,1.5 -1.5,1.5c-0.82843,0 -1.5,-0.67157 -1.5,-1.5z" fill="#933b1b" stroke="none" stroke-width="0.5"/><path d="M238.56899,256.11598c0,0.82842 -0.67157,1.5 -1.5,1.5c-0.25555,0 -0.49619,-0.06391 -0.70678,-0.17661c-0.46687,-0.07155 -0.86286,-0.35835 -1.08345,-0.75592c-0.27256,0.28054 -0.65389,0.45484 -1.07593,0.45484c-0.29249,0 -0.56543,-0.08372 -0.79615,-0.2285c-0.23073,0.14477 -0.50367,0.2285 -0.79616,0.2285c-0.82843,0 -1.5,-0.67157 -1.5,-1.5c0,-0.82843 0.67157,-1.5 1.5,-1.5c0.29249,0 0.56543,0.08371 0.79616,0.22849c0.23073,-0.14478 0.50367,-0.22849 0.79615,-0.22849c0.56477,0 1.05665,0.31213 1.31252,0.7733c0.27256,-0.28054 0.6539,-0.45484 1.07594,-0.45484c0.25555,0 0.49618,0.06391 0.70677,0.17661c0.71969,0.11029 1.27092,0.73208 1.27092,1.48261z" fill="#933b1b" stroke="none" stroke-width="0.5"/><path d="M230.49586,259.30061c0,-0.55228 0.44771,-1 1,-1c0.55229,0 1,0.44772 1,1c0,0.55228 -0.44771,1 -1,1c-0.55229,0 -1,-0.44772 -1,-1z" fill="#933b1b" stroke="none" stroke-width="0.5"/><path d="M236.06899,259.14137c0,-0.55228 0.44771,-1 1,-1c0.55229,0 1,0.44772 1,1c0,0.55228 -0.44771,1 -1,1c-0.55229,0 -1,-0.44772 -1,-1z" fill="#933b1b" stroke="none" stroke-width="0.5"/><path d="M229.72204,262.80368c0,-0.27614 0.22386,-0.5 0.5,-0.5c0.27614,0 0.5,0.22386 0.5,0.5c0,0.27614 -0.22386,0.5 -0.5,0.5c-0.27614,0 -0.5,-0.22386 -0.5,-0.5z" fill="#933b1b" stroke="none" stroke-width="0.5"/><path d="M235.1359,265.03292c0,-0.27614 0.22386,-0.5 0.5,-0.5c0.27614,0 0.5,0.22386 0.5,0.5c0,0.27614 -0.22386,0.5 -0.5,0.5c-0.27614,0 -0.5,-0.22386 -0.5,-0.5z" fill="#933b1b" stroke="none" stroke-width="0.5"/><path d="M231.15513,269.0137c0,-0.27614 0.22386,-0.5 0.5,-0.5c0.27614,0 0.5,0.22386 0.5,0.5c0,0.27614 -0.22386,0.5 -0.5,0.5c-0.27614,0 -0.5,-0.22386 -0.5,-0.5z" fill="#933b1b" stroke="none" stroke-width="0.5"/><path d="M227.28893,276.01987c0,-0.82842 0.67157,-1.5 1.5,-1.5c0.82843,0 1.5,0.67158 1.5,1.5c0,0.82842 -0.67157,1.5 -1.5,1.5c-0.82843,0 -1.5,-0.67158 -1.5,-1.5z" fill="#9a441c" stroke="none" stroke-width="0.5"/><path d="M231.45127,277.93064c0,-0.3863 0.21904,-0.72143 0.53969,-0.88799c-0.24987,-0.26794 -0.40277,-0.62751 -0.40277,-1.02278c0,-0.82842 0.67157,-1.5 1.5,-1.5c0.36302,0 0.69592,0.12896 0.95539,0.34356c0.25947,-0.2146 0.59237,-0.34356 0.95539,-0.34356c0.32689,0 0.62935,0.10457 0.87577,0.28207c0.24642,-0.1775 0.54889,-0.28207 0.87577,-0.28207c0.08129,0 0.16107,0.00647 0.23884,0.01891c0.07778,-0.01245 0.15756,-0.01891 0.23885,-0.01891c0.82843,0 1.5,0.67158 1.5,1.5c0,0.82842 -0.67157,1.5 -1.5,1.5c-0.08129,0 -0.16107,-0.00646 -0.23885,-0.01891c-0.07778,0.01245 -0.15756,0.01891 -0.23884,0.01891c-0.32689,0 -0.62935,-0.10456 -0.87577,-0.28206c-0.24642,0.1775 -0.54888,0.28206 -0.87577,0.28206c-0.26643,0 -0.51664,-0.06946 -0.7335,-0.19126c-0.16853,0.28176 -0.47178,0.47366 -0.82078,0.48671c0.00435,0.03784 0.00657,0.07632 0.00657,0.11532c0,0.55228 -0.44771,1 -1,1c-0.55229,0 -1,-0.44772 -1,-1z" fill="#9a441c" stroke="none" stroke-width="0.5"/><path d="M228.74434,281.91142c0,-0.55228 0.44771,-1 1,-1c0.55229,0 1,0.44772 1,1c0,0.55228 -0.44771,1 -1,1c-0.55229,0 -1,-0.44772 -1,-1z" fill="#9a441c" stroke="none" stroke-width="0.5"/><path d="M236.22822,280.00065c0,-0.55228 0.44771,-1 1,-1c0.55229,0 1,0.44772 1,1c0,0.55228 -0.44771,1 -1,1c-0.55229,0 -1,-0.44772 -1,-1z" fill="#9a441c" stroke="none" stroke-width="0.5"/><path d="M228.43542,291.74866c0.35356,-0.35355 0.70711,0 0.70711,0l0.4777,0.47769c0,0 0.35356,0.35356 0,0.70711c-0.35356,0.35355 -0.70711,0 -0.70711,0l-0.47769,-0.47769c0,0 -0.35356,-0.35355 0,-0.70711z" fill="#9a441c" stroke="none" stroke-width="0.5"/><path d="M230.04047,285.73296c0,-0.27614 0.22386,-0.5 0.5,-0.5c0.27614,0 0.5,0.22386 0.5,0.5c0,0.27614 -0.22386,0.5 -0.5,0.5c-0.27614,0 -0.5,-0.22386 -0.5,-0.5z" fill="#9a441c" stroke="none" stroke-width="0.5"/><path d="M233.70279,283.66296c0,-0.27614 0.22386,-0.5 0.5,-0.5c0.27614,0 0.5,0.22386 0.5,0.5c0,0.27614 -0.22386,0.5 -0.5,0.5c-0.27614,0 -0.5,-0.22386 -0.5,-0.5z" fill="#9a441c" stroke="none" stroke-width="0.5"/><path d="M238.00204,287.80297c0,-0.27614 0.22386,-0.5 0.5,-0.5c0.27614,0 0.5,0.22386 0.5,0.5c0,0.27614 -0.22386,0.5 -0.5,0.5c-0.27614,0 -0.5,-0.22386 -0.5,-0.5z" fill="#9a441c" stroke="none" stroke-width="0.5"/><path d="M234.1805,289.07682c0,-0.27614 0.22386,-0.5 0.5,-0.5c0.27614,0 0.5,0.22386 0.5,0.5c0,0.27614 -0.22386,0.5 -0.5,0.5c-0.27614,0 -0.5,-0.22386 -0.5,-0.5z" fill="#9a441c" stroke="none" stroke-width="0.5"/></g><g><path d="M390.56636,196.39479l35.79662,6.7747v11.11052h-212.72581v-11.11052l38.43736,-6.7747z" fill="#ab4a1e" stroke="#000000" stroke-width="0" stroke-linecap="round"/><path d="M390.56636,196.39479c0,0 16.46745,3.11655 23.01942,4.35655c0.05273,0.00998 -186.9758,0.11995 -186.8255,0.09345c5.77626,-1.01808 25.31425,-4.45 25.31425,-4.45z" fill="#933b1b" stroke="#000000" stroke-width="0" stroke-linecap="round"/><path d="M390.56636,196.39479c0,0 7.50319,1.34414 11.60157,2.11978c0.10366,0.01962 -163.06368,0.16627 -162.65855,0.09487c4.93653,-0.87008 12.56515,-2.21465 12.56515,-2.21465z" fill="#7c3116" stroke="#000000" stroke-width="0" stroke-linecap="round"/><path d="M396.234,197.16552c0.55228,0 1,0.44771 1,1c0,0.10043 -0.01481,0.1974 -0.04235,0.28886c0.157,-0.34673 0.50604,-0.58795 0.91143,-0.58795c0.55228,0 1,0.44771 1,1c0,0.55229 -0.44772,1 -1,1c-0.55228,0 -1,-0.44771 -1,-1c0,-0.10043 0.01481,-0.19741 0.04235,-0.28886c-0.157,0.34673 -0.50605,0.58795 -0.91143,0.58795c-0.21803,0 -0.41976,-0.06978 -0.58409,-0.18822c-0.02042,0.01471 -0.04142,0.02868 -0.06295,0.04185c-0.07353,0.47979 -0.48805,0.84727 -0.98841,0.84727c-0.37491,0 -0.70163,-0.20632 -0.87282,-0.51161c-0.09335,0.02882 -0.19254,0.04434 -0.29535,0.04434c-0.55228,0 -1,-0.44771 -1,-1c0,-0.55229 0.44772,-1 1,-1c0.29214,0 0.55502,0.12527 0.73786,0.32503c0.16303,-0.33095 0.50372,-0.55867 0.89759,-0.55867c0.21803,0 0.41976,0.06978 0.58409,0.18822c0.16433,-0.11844 0.36606,-0.18822 0.58409,-0.18822z" fill="#7c3116" stroke="none" stroke-width="0.5" stroke-linecap="butt"/><path d="M245.53939,197.39916c0.55229,0 1,0.44771 1,1c0,0.55229 -0.44771,1 -1,1c-0.39003,0 -0.7279,-0.22329 -0.89277,-0.54901c-0.09924,0.44777 -0.49867,0.78265 -0.97631,0.78265c-0.55229,0 -1,-0.44771 -1,-1c0,-0.55229 0.44771,-1 1,-1c0.39003,0 0.72791,0.22329 0.89277,0.549c0.09924,-0.44777 0.49867,-0.78264 0.97631,-0.78264z" fill="#7c3116" stroke="none" stroke-width="0.5" stroke-linecap="butt"/><path d="M249.74486,197.16552c0.55229,0 1,0.44771 1,1c0,0.55229 -0.44771,1 -1,1c-0.16879,0 -0.32781,-0.04182 -0.46727,-0.11566c-0.13946,0.07384 -0.29848,0.11566 -0.46727,0.11566c-0.0881,0 -0.17354,-0.01139 -0.25493,-0.03279c-0.17839,0.16535 -0.41719,0.26642 -0.67961,0.26642c-0.55229,0 -1,-0.44771 -1,-1c0,-0.55229 0.44771,-1 1,-1c0.0881,0 0.17354,0.01139 0.25493,0.03278c0.17839,-0.16535 0.41719,-0.26642 0.67961,-0.26642c0.16879,0 0.32781,0.04182 0.46727,0.11566c0.13946,-0.07384 0.29848,-0.11566 0.46727,-0.11566z" fill="#7c3116" stroke="none" stroke-width="0.5" stroke-linecap="butt"/><path d="M408.55116,200.96914c0,-0.55229 0.44772,-1 1,-1c0.55228,0 1,0.44771 1,1c0,0.55229 -0.44772,1 -1,1c-0.55228,0 -1,-0.44771 -1,-1z" fill="#933b1b" stroke="none" stroke-width="0.5" stroke-linecap="butt"/><path d="M403.8785,201.20278c0,-1 1,-1 1,-1h1.63545c0,0 1,0 1,1c0,1 -1,1 -1,1h-1.63545c0,0 -1,0 -1,-1z" fill="#933b1b" stroke="none" stroke-width="0.5" stroke-linecap="butt"/><path d="M398.27126,201.20278c0,-0.55229 0.44772,-1 1,-1c0.55228,0 1,0.44771 1,1c0,0.55229 -0.44772,1 -1,1c-0.55228,0 -1,-0.44771 -1,-1z" fill="#933b1b" stroke="none" stroke-width="0.5" stroke-linecap="butt"/><path d="M394.76674,200.50187c0,-0.55229 0.44772,-1 1,-1c0.55228,0 1,0.44771 1,1c0,0.55229 -0.44772,1 -1,1c-0.55228,0 -1,-0.44771 -1,-1z" fill="#933b1b" stroke="none" stroke-width="0.5" stroke-linecap="butt"/><path d="M392.43039,200.26824c0,-0.55229 0.44772,-1 1,-1c0.55228,0 1,0.44771 1,1c0,0.55229 -0.44772,1 -1,1c-0.55228,0 -1,-0.44771 -1,-1z" fill="#933b1b" stroke="none" stroke-width="0.5" stroke-linecap="butt"/><path d="M384.01953,200.96914c0,-0.55229 0.44772,-1 1,-1c0.12331,0 0.24139,0.02231 0.35045,0.06313c0.10906,-0.04082 0.22715,-0.06313 0.35045,-0.06313c0.55228,0 1,0.44771 1,1c0,0.55229 -0.44772,1 -1,1c-0.12331,0 -0.24139,-0.02231 -0.35045,-0.06313c-0.10906,0.04082 -0.22715,0.06313 -0.35045,0.06313c-0.55228,0 -1,-0.44771 -1,-1z" fill="#933b1b" stroke="none" stroke-width="0.5" stroke-linecap="butt"/><path d="M375.37503,201.20278c0,-0.55229 0.44772,-1 1,-1c0.55228,0 1,0.44771 1,1c0,0.55229 -0.44772,1 -1,1c-0.55228,0 -1,-0.44771 -1,-1z" fill="#933b1b" stroke="none" stroke-width="0.5" stroke-linecap="butt"/><path d="M367.43144,200.96914c0,-0.55229 0.44772,-1 1,-1c0.55228,0 1,0.44771 1,1c0,0.55229 -0.44772,1 -1,1c-0.55228,0 -1,-0.44771 -1,-1z" fill="#933b1b" stroke="none" stroke-width="0.5" stroke-linecap="butt"/><path d="M359.02058,200.73551c0,-0.55229 0.44772,-1 1,-1c0.55228,0 1,0.44771 1,1c0,0.55229 -0.44772,1 -1,1c-0.55228,0 -1,-0.44771 -1,-1z" fill="#933b1b" stroke="none" stroke-width="0.5" stroke-linecap="butt"/><path d="M350.14245,201.20278c0,-0.55229 0.44772,-1 1,-1c0.10281,0 0.202,0.01551 0.29535,0.04433c0.1712,-0.30528 0.49791,-0.5116 0.87282,-0.5116c0.55228,0 1,0.44771 1,1c0,0.55229 -0.44772,1 -1,1c-0.10281,0 -0.202,-0.01552 -0.29535,-0.04433c-0.1712,0.30528 -0.49792,0.51161 -0.87283,0.51161c-0.55228,0 -1,-0.44771 -1,-1z" fill="#933b1b" stroke="none" stroke-width="0.5" stroke-linecap="butt"/><path d="M335.42341,200.73551c0,-0.55229 0.44772,-1 1,-1c0.55228,0 1,0.44771 1,1c0,0.55229 -0.44772,1 -1,1c-0.55228,0 -1,-0.44771 -1,-1z" fill="#933b1b" stroke="none" stroke-width="0.5" stroke-linecap="butt"/><path d="M330.04981,201.20278c0,-0.55229 0.44772,-1 1,-1c0.55228,0 1,0.44771 1,1c0,0.55229 -0.44772,1 -1,1c-0.55228,0 -1,-0.44771 -1,-1z" fill="#933b1b" stroke="none" stroke-width="0.5" stroke-linecap="butt"/><path d="M323.27439,201.20278c0,-0.55229 0.44772,-1 1,-1c0.55228,0 1,0.44771 1,1c0,0.55229 -0.44772,1 -1,1c-0.55228,0 -1,-0.44771 -1,-1z" fill="#933b1b" stroke="none" stroke-width="0.5" stroke-linecap="butt"/><path d="M319.06897,201.43641c0,-0.55229 0.44772,-1 1,-1c0.55228,0 1,0.44771 1,1c0,0.55229 -0.44772,1 -1,1c-0.55228,0 -1,-0.44771 -1,-1z" fill="#933b1b" stroke="none" stroke-width="0.5" stroke-linecap="butt"/><path d="M312.52718,200.73551c0,-0.55229 0.44772,-1 1,-1c0.55228,0 1,0.44771 1,1c0,0.55229 -0.44772,1 -1,1c-0.55228,0 -1,-0.44771 -1,-1z" fill="#933b1b" stroke="none" stroke-width="0.5" stroke-linecap="butt"/><path d="M309.25629,200.73551c0,-0.55229 0.44772,-1 1,-1c0.55228,0 1,0.44771 1,1c0,0.55229 -0.44772,1 -1,1c-0.55228,0 -1,-0.44771 -1,-1z" fill="#933b1b" stroke="none" stroke-width="0.5" stroke-linecap="butt"/><path d="M298.74271,200.96914c0,-0.55229 0.44772,-1 1,-1c0.55228,0 1,0.44771 1,1c0,0.55229 -0.44772,1 -1,1c-0.55228,0 -1,-0.44771 -1,-1z" fill="#933b1b" stroke="none" stroke-width="0.5" stroke-linecap="butt"/><path d="M294.07001,200.73551c0,-1 1,-1 1,-1h1.63545c0,0 1,0 1,1c0,1 -1,1 -1,1h-1.63545c0,0 -1,0 -1,-1z" fill="#933b1b" stroke="none" stroke-width="0.5" stroke-linecap="butt"/><path d="M285.89278,200.73551c0,-0.55229 0.44772,-1 1,-1c0.55228,0 1,0.44771 1,1c0,0.55229 -0.44772,1 -1,1c-0.55228,0 -1,-0.44771 -1,-1z" fill="#933b1b" stroke="none" stroke-width="0.5" stroke-linecap="butt"/><path d="M273.04286,200.96914c0,-0.55229 0.44772,-1 1,-1c0.55228,0 1,0.44771 1,1c0,0.55229 -0.44772,1 -1,1c-0.55228,0 -1,-0.44771 -1,-1z" fill="#933b1b" stroke="none" stroke-width="0.5" stroke-linecap="butt"/><path d="M262.99656,201.67005c0,-0.55229 0.44772,-1 1,-1c0.55228,0 1,0.44771 1,1c0,0.55229 -0.44772,1 -1,1c-0.55228,0 -1,-0.44771 -1,-1z" fill="#933b1b" stroke="none" stroke-width="0.5" stroke-linecap="butt"/><path d="M253.6512,201.67005c0,-0.55229 0.44771,-1 1,-1c0.55229,0 1,0.44771 1,1c0,0.55229 -0.44771,1 -1,1c-0.55229,0 -1,-0.44771 -1,-1z" fill="#933b1b" stroke="none" stroke-width="0.5" stroke-linecap="butt"/><path d="M244.77307,201.67005c0,-0.55229 0.44771,-1 1,-1c0.55229,0 1,0.44771 1,1c0,0.55229 -0.44771,1 -1,1c-0.55229,0 -1,-0.44771 -1,-1z" fill="#933b1b" stroke="none" stroke-width="0.5" stroke-linecap="butt"/><path d="M239.6331,200.50187c0,-0.55229 0.44771,-1 1,-1c0.55229,0 1,0.44771 1,1c0,0.55229 -0.44771,1 -1,1c-0.55229,0 -1,-0.44771 -1,-1z" fill="#933b1b" stroke="none" stroke-width="0.5" stroke-linecap="butt"/><path d="M234.49309,200.50187c0,-0.55229 0.44771,-1 1,-1c0.42666,0 0.79091,0.2672 0.93454,0.64338c0.14363,-0.37618 0.50788,-0.64338 0.93454,-0.64338c0.55229,0 1,0.44771 1,1c0,0.55229 -0.44771,1 -1,1c-0.42666,0 -0.79091,-0.2672 -0.93454,-0.64338c-0.14363,0.37618 -0.50788,0.64338 -0.93454,0.64338c-0.55229,0 -1,-0.44771 -1,-1z" fill="#933b1b" stroke="none" stroke-width="0.5" stroke-linecap="butt"/><path d="M242.70306,200.26824c0,-0.27614 0.22386,-0.5 0.5,-0.5c0.27614,0 0.5,0.22386 0.5,0.5c0,0.27614 -0.22386,0.5 -0.5,0.5c-0.27614,0 -0.5,-0.22386 -0.5,-0.5z" fill="#7c3116" stroke="none" stroke-width="0.5" stroke-linecap="butt"/><path d="M247.14215,200.26824c0,-0.27614 0.22386,-0.5 0.5,-0.5c0.27614,0 0.5,0.22386 0.5,0.5c0,0.27614 -0.22386,0.5 -0.5,0.5c-0.27614,0 -0.5,-0.22386 -0.5,-0.5z" fill="#7c3116" stroke="none" stroke-width="0.5" stroke-linecap="butt"/><path d="M399.70579,199.56733c0,-0.27614 0.22386,-0.5 0.5,-0.5c0.27614,0 0.5,0.22386 0.5,0.5c0,0.27614 -0.22386,0.5 -0.5,0.5c-0.27614,0 -0.5,-0.22386 -0.5,-0.5z" fill="#7c3116" stroke="none" stroke-width="0.5" stroke-linecap="butt"/><path d="M395.0331,200.26824c0,-0.27614 0.22386,-0.5 0.5,-0.5c0.27614,0 0.5,0.22386 0.5,0.5c0,0.27614 -0.22386,0.5 -0.5,0.5c-0.27614,0 -0.5,-0.22386 -0.5,-0.5z" fill="#7c3116" stroke="none" stroke-width="0.5" stroke-linecap="butt"/><path d="M242.93668,203.07186c0,-0.27614 0.22386,-0.5 0.5,-0.5c0.27614,0 0.5,0.22386 0.5,0.5c0,0.27614 -0.22386,0.5 -0.5,0.5c-0.27614,0 -0.5,-0.22386 -0.5,-0.5z" fill="#933b1b" stroke="none" stroke-width="0.5" stroke-linecap="butt"/><path d="M252.04844,204.24003c0,-0.27614 0.22386,-0.5 0.5,-0.5c0.27614,0 0.5,0.22386 0.5,0.5c0,0.27614 -0.22386,0.5 -0.5,0.5c-0.27614,0 -0.5,-0.22386 -0.5,-0.5z" fill="#933b1b" stroke="none" stroke-width="0.5" stroke-linecap="butt"/><path d="M272.6083,207.51092c0,-0.27614 0.22386,-0.5 0.5,-0.5c0.27614,0 0.5,0.22386 0.5,0.5c0,0.27614 -0.22386,0.5 -0.5,0.5c-0.27614,0 -0.5,-0.22386 -0.5,-0.5z" fill="#933b1b" stroke="none" stroke-width="0.5" stroke-linecap="butt"/><path d="M292.23366,204.7073c0,-0.27614 0.22386,-0.5 0.5,-0.5c0.27614,0 0.5,0.22386 0.5,0.5c0,0.27614 -0.22386,0.5 -0.5,0.5c-0.27614,0 -0.5,-0.22386 -0.5,-0.5z" fill="#933b1b" stroke="none" stroke-width="0.5" stroke-linecap="butt"/><path d="M310.92447,202.13732c0,-0.27614 0.22386,-0.5 0.5,-0.5c0.27614,0 0.5,0.22386 0.5,0.5c0,0.27614 -0.22386,0.5 -0.5,0.5c-0.27614,0 -0.5,-0.22386 -0.5,-0.5z" fill="#933b1b" stroke="none" stroke-width="0.5" stroke-linecap="butt"/><path d="M330.31615,204.94094c0,-0.27614 0.22386,-0.5 0.5,-0.5c0.27614,0 0.5,0.22386 0.5,0.5c0,0.27614 -0.22386,0.5 -0.5,0.5c-0.27614,0 -0.5,-0.22386 -0.5,-0.5z" fill="#933b1b" stroke="none" stroke-width="0.5" stroke-linecap="butt"/><path d="M353.44607,205.64184c0,-0.27614 0.22386,-0.5 0.5,-0.5c0.27614,0 0.5,0.22386 0.5,0.5c0,0.27614 -0.22386,0.5 -0.5,0.5c-0.27614,0 -0.5,-0.22386 -0.5,-0.5z" fill="#933b1b" stroke="none" stroke-width="0.5" stroke-linecap="butt"/><path d="M368.16508,206.81002c0,-0.27614 0.22386,-0.5 0.5,-0.5c0.27614,0 0.5,0.22386 0.5,0.5c0,0.27614 -0.22386,0.5 -0.5,0.5c-0.27614,0 -0.5,-0.22386 -0.5,-0.5z" fill="#933b1b" stroke="none" stroke-width="0.5" stroke-linecap="butt"/><path d="M383.81861,206.10911c0,-0.27614 0.22386,-0.5 0.5,-0.5c0.27614,0 0.5,0.22386 0.5,0.5c0,0.27614 -0.22386,0.5 -0.5,0.5c-0.27614,0 -0.5,-0.22386 -0.5,-0.5z" fill="#933b1b" stroke="none" stroke-width="0.5" stroke-linecap="butt"/><path d="M397.36945,205.17457c0,-0.27614 0.22386,-0.5 0.5,-0.5c0.27614,0 0.5,0.22386 0.5,0.5c0,0.27614 -0.22386,0.5 -0.5,0.5c-0.27614,0 -0.5,-0.22386 -0.5,-0.5z" fill="#933b1b" stroke="none" stroke-width="0.5" stroke-linecap="butt"/><path d="M407.64939,204.47367c0,-0.27614 0.22386,-0.5 0.5,-0.5c0.27614,0 0.5,0.22386 0.5,0.5c0,0.27614 -0.22386,0.5 -0.5,0.5c-0.27614,0 -0.5,-0.22386 -0.5,-0.5z" fill="#933b1b" stroke="none" stroke-width="0.5" stroke-linecap="butt"/></g><g stroke-linecap="round"><path d="M298.57194,68.23247c-2.50352,-0.75106 -4.58732,-2.53442 -3.51482,-5.09648c1.0725,-2.56206 1.68379,-3.95868 6.67816,-2.46037c4.99437,1.49831 10.89593,7.7326 10.89593,7.7326c0,0 -11.55575,0.5753 -14.05927,-0.17575z" fill="#1859da" stroke="#000000" stroke-width="0"/><path d="M307.359,84.57638l5.79945,-16.3439" fill="none" stroke="#000000" stroke-width="1"/><path d="M323.60947,68.43913c1.91238,0.57372 3.50414,1.93598 2.68489,3.89308c-0.81926,1.9571 -1.2862,3.02395 -5.10128,1.87942c-3.81509,-1.14452 -8.32315,-5.90675 -8.32315,-5.90675c0,0 8.82716,-0.43947 10.73954,0.13425z" fill="#1859da" stroke="#000000" stroke-width="0"/><path d="M269.04749,111.99195c0,0 0.18644,-38.48829 34.97243,-33.56651c47.47773,6.71751 22.31909,40.94763 22.31909,40.94763z" fill="#ac2121" stroke="#000000" stroke-width="0"/><path d="M332.19478,95.00039c3.80151,12.13117 -5.64164,24.19694 -5.64164,24.19694l-20.38594,-2.63611l12.14834,-34.50581c0,0 10.41036,1.87528 13.87924,12.94498z" fill="#161ccc" stroke="none" stroke-width="0"/><path d="M288.73046,79.65564c0,0 9.20764,-2.24392 13.93771,-1.76242c5.03391,0.51244 15.82309,4.06322 15.82309,4.06322l-12.5382,35.132l-32.33632,-8.43556l15.11371,-28.99724z" fill="#d6b318" stroke="none" stroke-width="0"/></g><path d="M214.52369,306.61252v-267.72501h213.18203v267.72501z" fill="none" stroke="none" stroke-width="0" stroke-linecap="butt"/><path d="" fill="none" stroke="#000000" stroke-width="0" stroke-linecap="round"/><path d="M254.46103,117.61566c0,0 4.19243,-12.74201 11.95038,-11.95038c7.75794,0.79162 16.87196,7.04441 29.87595,9.91221c13.00399,2.8678 16.3439,0.28076 16.3439,0.28076" fill="#063000" stroke="#000000" stroke-width="0" stroke-linecap="round"/><path d="M254.63673,116.9127c0,0 4.01669,-12.03904 11.77464,-11.24742c7.75794,0.79162 17.28404,8.00592 30.28803,10.87372c13.00399,2.8678 15.93182,-0.68075 15.93182,-0.68075" fill="none" stroke="#000000" stroke-width="0" stroke-linecap="round"/><g stroke="#000000" stroke-width="0" stroke-linecap="butt"><path d="M252.00903,199.30395v-82.38044h82.38044v82.38044z" fill="#c7c1b5"/><path d="M256.34486,189.00639v-67.74707h73.43782v67.74707z" fill="#ff0000"/></g><g fill="none" stroke-opacity="0.3451" stroke="#000000" stroke-width="1" stroke-linecap="round"><path d="M256.56987,185.21386h72.40524"/><path d="M256.56987,177.65701h72.75671"/><path d="M328.97513,170.80311h-72.40524"/><path d="M329.32658,163.24626h-72.75671"/><path d="M256.56987,156.39236h72.40524"/><path d="M329.32658,148.83551h-72.75671"/><path d="M256.56989,141.98161h72.40524"/><path d="M256.56987,134.42476h72.75671"/><path d="M329.32658,126.51642h-72.75671"/></g><g><path d="M336.55742,199.03296v-98.63974h55.28161v98.63974z" fill="#c7c1b5" stroke="#000000" stroke-width="0" stroke-linecap="butt"/><path d="M341.16416,147.81617v-35.49946h46.339v35.49947z" fill="#b6ad9c" stroke="none" stroke-width="0" stroke-linecap="butt"/><path d="M343.60312,125.59513v-8.67162h42.00319v8.67162z" fill="#857f72" stroke="none" stroke-width="0" stroke-linecap="butt"/><path d="M343.60312,137.78961v-8.67163h42.00319v8.67163z" fill="#857f72" stroke="none" stroke-width="0" stroke-linecap="butt"/><path d="M345.563,144.02234c0,-0.41422 0.33578,-0.75 0.75,-0.75c0.41422,0 0.75,0.33578 0.75,0.75c0,0.41422 -0.33578,0.75 -0.75,0.75c-0.41422,0 -0.75,-0.33578 -0.75,-0.75z" fill="#000000" stroke="none" stroke-width="0" stroke-linecap="butt"/><path d="M355.25562,143.75134h-5.96174" fill="none" stroke="#000000" stroke-width="1" stroke-linecap="round"/></g><path d="M267.99305,105.84102l44.2867,9.66575c0,0 -4.07606,2.72897 -7.02963,2.81185c-8.86197,0.24865 -37.25706,-12.4776 -37.25706,-12.4776z" fill="#249d2e" stroke="#000000" stroke-width="0" stroke-linecap="round"/><path d="M307.1237,144.35273c-0.12693,-0.21538 0.08846,-0.34231 0.08846,-0.34231l0.21404,-0.12614c1.86667,-1.10004 3.76473,-2.13892 5.66378,-3.18193c0.67983,-0.45203 1.35748,-0.9085 2.03566,-1.36462c-0.90187,-1.49278 -1.83737,-2.96213 -2.81192,-4.42396c0,0 -0.13868,-0.20801 0.06934,-0.34669c0.20801,-0.13868 0.34669,0.06934 0.34669,0.06934c0.97413,1.46119 1.90947,2.93001 2.81133,4.42204c0.82437,-0.55377 1.6503,-1.10558 2.48262,-1.64683c-0.10911,-0.52896 -0.2237,-1.03143 -0.33182,-1.49282c-1.81507,-3.52314 -4.05096,-4.85709 -8.05893,-4.85677c-3.24955,0.00026 -5.98422,0.28392 -8.99102,1.15485c-0.44015,0.26936 -0.85797,0.57635 -1.24709,0.92873c0.45535,1.17189 0.9221,2.33946 1.42312,3.49496c0.18984,0.43784 0.38482,0.87501 0.58269,1.31193c2.87662,-1.79449 5.75288,-3.58957 8.63003,-5.38322c0.14945,-0.07988 0.29892,-0.15976 0.44837,-0.23964l0.40059,-0.21397c0,0 0.22052,-0.11777 0.3383,0.10274c0.11778,0.22052 -0.10273,0.33829 -0.10273,0.33829l-0.4006,0.21397c-0.14457,0.07716 -0.28913,0.15432 -0.4337,0.23148c-2.88997,1.8039 -5.78088,3.6063 -8.67138,5.40935c1.11955,2.44941 2.30638,4.8958 3.17156,7.41467l0.05068,0.14757c0,0 0.08121,0.23644 -0.15523,0.31765c-0.23644,0.08121 -0.31766,-0.15523 -0.31766,-0.15523l-0.05068,-0.14757c-0.85276,-2.48271 -2.02042,-4.89501 -3.12571,-7.3094c-2.55939,1.63107 -4.38483,3.47718 -6.46438,5.7167c0,0 -0.17011,0.1832 -0.35331,0.01308c-0.1832,-0.17012 -0.01309,-0.35331 -0.01309,-0.35331c2.12177,-2.28498 3.99678,-4.1736 6.62138,-5.83579c-0.20862,-0.45972 -0.41411,-0.91969 -0.61388,-1.3804c-0.47549,-1.09662 -0.9202,-2.20408 -1.35359,-3.31578c-0.15717,0.16383 -0.30872,0.33639 -0.45417,0.51828c-2.13412,2.64765 -5.85924,3.95959 -7.02416,7.4927c-0.69298,2.06048 -1.73211,4.35677 -1.6152,6.42403c1.05028,2.91434 3.07921,4.43679 5.553,6.4136c0.57006,0.10646 1.20113,0.12581 1.84659,0.10899c2.62356,-0.44619 5.23557,-0.91295 7.84922,-1.45399c3.34625,-1.06089 6.58769,-2.20872 9.81536,-3.5943c0.21717,-0.09322 0.43457,-0.209 0.65066,-0.34456c0.75234,-0.91817 1.38585,-1.97212 1.90686,-3.22253c0.27759,-0.39494 0.4888,-0.83896 0.64498,-1.31814c-0.4071,-0.65253 -0.80282,-1.31207 -1.17658,-1.98121c-0.52773,-0.94503 -1.06676,-1.87689 -1.61836,-2.79926c-0.67773,0.45572 -1.35509,0.91161 -2.03486,1.36274c-1.8999,1.04565 -3.8005,2.08394 -5.66893,3.18501l-0.21404,0.12613c0,0 -0.21538,0.12693 -0.34231,-0.08845zM320.62435,135.78018c0,0 0.21437,-0.12862 0.343,0.08575c0.12862,0.21437 -0.08575,0.343 -0.08575,0.343c-0.15096,0.09058 -0.30156,0.18177 -0.45183,0.27354c0.24991,1.50847 0.26673,3.08843 0.26785,4.63867c-0.00497,1.31574 -0.51285,2.90697 -1.31454,4.38719c0.136,0.21009 0.27249,0.41961 0.40909,0.62865l0.25549,0.39097c0,0 0.13675,0.20927 -0.07252,0.34604c-0.20927,0.13676 -0.34604,-0.07252 -0.34604,-0.07252l-0.25549,-0.39097c-0.08972,-0.13729 -0.17937,-0.27479 -0.26888,-0.41252c-0.84449,1.41715 -1.94714,2.68733 -3.11302,3.4503c-1.27664,1.54136 -2.88874,2.71406 -4.82476,3.77472c1.6334,-0.54922 3.23027,-1.20857 4.71433,-1.91043c3.47618,-1.64401 4.79641,-4.3081 6.28054,-7.72483c1.25894,-2.84727 0.52447,-7.32322 -0.52682,-10.11283c-1.05403,-2.86502 -5.11631,-5.46206 -8.05944,-5.46118c-3.37826,0.00101 -7.11247,-0.39962 -10.38777,0.4545c-1.64772,0.42969 -3.32409,0.98952 -4.95136,1.66411c0.26644,0.69085 0.53003,1.3825 0.79546,2.07337c0.0769,-0.02794 0.15438,-0.05548 0.23246,-0.0826c0.40083,-0.13381 0.79565,-0.25731 1.18607,-0.37108c2.14792,-1.28529 4.78161,-1.73596 7.2568,-2.16184c3.4674,-0.59659 7.45131,-0.87382 10.08944,1.59501c1.44671,1.36222 2.17197,3.00848 2.53555,4.7713c0.09724,-0.05901 0.19461,-0.11778 0.29214,-0.1763zM317.43872,142.32279c0.29381,0.52629 0.60147,1.04653 0.91763,1.56205c0.3922,-1.82324 0.14092,-4.01943 -0.22748,-5.94459c-0.78048,0.50953 -1.55561,1.02788 -2.3295,1.54775c0.55888,0.93404 1.10489,1.87771 1.63935,2.83479zM297.04654,128.46587c0,0 -0.09285,-0.23212 0.13927,-0.32497c0.23212,-0.09285 0.32497,0.13927 0.32497,0.13927c0.18444,0.46109 0.36572,0.92317 0.54526,1.38577c1.64517,-0.68141 3.33958,-1.2471 5.0056,-1.68156c3.31972,-0.86571 7.09036,-0.46964 10.5138,-0.47067c3.17951,-0.00096 7.35246,2.72865 8.52747,5.78485c1.10757,2.93898 1.80219,7.485 0.51754,10.48836c-1.53329,3.52993 -2.93174,6.27807 -6.52537,7.97763c-3.08321,1.45816 -6.6473,2.73293 -10.02585,3.2395c-2.60747,0.39096 -7.88972,1.82733 -10.29241,0.24311c-0.27991,0.04682 -0.55998,0.09354 -0.84022,0.14023c-0.81012,0.13499 -2.83292,0.92844 -3.56597,0.63501c-1.57386,-0.63 -3.57276,-4.35444 -4.1115,-5.8609c-1.24786,-3.51826 -2.0808,-6.69906 -0.73781,-10.34625c1.36376,-3.69375 3.47337,-5.72413 6.8158,-7.76802c1.33398,-0.8155 2.77274,-1.54832 4.25812,-2.18684c-0.18066,-0.46553 -0.36309,-0.93053 -0.54869,-1.39453zM289.35074,145.19526c0.25,-0.00153 0.25153,0.24847 0.25153,0.24847l0.00038,0.06192c0.00088,0.1428 0.00176,0.28559 0.00259,0.42838c0.31593,-1.52425 0.9529,-3.08618 1.44815,-4.55872c1.23904,-3.62255 4.93686,-4.90639 7.10758,-7.64559c0.20463,-0.2559 0.42052,-0.49422 0.64648,-0.7165c-0.02109,-0.05452 -0.04215,-0.10904 -0.06319,-0.16357c-3.1356,1.2439 -5.27309,3.20311 -7.78732,5.52723c-2.23401,2.06509 -3.44317,6.51226 -3.11903,9.48113c0.29465,2.71501 2.3845,4.41427 4.81881,5.26951c-0.65226,-0.64396 -1.25219,-1.33559 -1.75579,-1.83064c-0.98868,-0.97188 -1.40438,-2.06925 -1.4789,-3.22848c-0.11473,-0.32584 -0.21768,-0.66822 -0.30817,-1.02947c-0.00489,-0.51008 -0.00808,-1.02015 -0.0112,-1.53024l-0.00038,-0.06193c0,0 -0.00153,-0.24999 0.24847,-0.25152zM301.07282,154.33004c3.08556,0.00757 6.70785,0.1247 9.41805,-1.31152c1.64733,-0.86753 3.04641,-1.78965 4.2139,-2.9265c-3.09556,1.30693 -6.20825,2.40616 -9.41747,3.41905c-1.40442,0.29261 -2.80863,0.56261 -4.21448,0.81897zM293.5979,132.47384c-3.25434,1.98891 -5.28161,3.92331 -6.60753,7.5146c-1.30726,3.53075 -0.46722,6.60229 0.73999,10.00593c0.49453,1.4072 2.40119,4.93693 3.83172,5.56615c0.53235,0.23415 2.64684,-0.55876 3.29233,-0.66632c0.12216,-0.02035 0.24429,-0.04073 0.36638,-0.0611c-0.57353,-0.12566 -1.14827,-0.47588 -1.70143,-0.92421c-3.0342,-0.76944 -5.82164,-2.70824 -6.17855,-5.99693c-0.33684,-3.1218 0.92539,-7.7287 3.27672,-9.90224c2.55948,-2.36595 4.75271,-4.35927 7.94712,-5.62653c-0.26324,-0.68516 -0.52472,-1.37108 -0.78895,-2.05622c-1.45741,0.62736 -2.86897,1.34674 -4.1778,2.14687zM297.39853,154.97412c-0.2758,0.04683 -0.55173,0.09343 -0.8278,0.13989c1.9345,0.81106 5.36927,0.15506 7.80468,-0.31225c-1.40344,0.05009 -2.79973,0.01949 -4.08904,0.02986c-0.88467,0.00711 -1.89817,0.11197 -2.88783,0.1425zM317.13293,147.81438c0.62032,-0.66225 1.19239,-1.45029 1.67012,-2.28275c-0.0942,-0.14635 -0.1881,-0.293 -0.28156,-0.43997c-0.147,0.3643 -0.32858,0.70499 -0.5498,1.01559c-0.25046,0.61189 -0.53015,1.1788 -0.83876,1.70713zM320.19763,141.1215c-0.00106,-1.44494 -0.00598,-2.93337 -0.21926,-4.36109c-0.46782,0.29035 -0.93263,0.58577 -1.39529,0.88477c0.43646,2.20494 0.73167,4.80043 0.1462,6.83987c0.11483,0.18262 0.23049,0.3647 0.34671,0.54631c0.69377,-1.33998 1.12848,-2.75072 1.12164,-3.90986zM317.45502,131.55026c-2.5124,-2.35118 -6.35698,-2.03616 -9.66302,-1.46733c-1.54295,0.26548 -3.16064,0.53487 -4.6749,1.02592c2.10024,-0.4001 4.18032,-0.54662 6.51579,-0.54681c4.20664,-0.00034 6.64431,1.46268 8.52814,5.18393c0.10309,0.4263 0.21067,0.88789 0.31403,1.37363c0.46849,-0.30147 0.93926,-0.59912 1.41317,-0.89145c-0.33033,-1.73548 -1.01455,-3.35941 -2.43321,-4.67791z" fill="#ffffff" stroke="none" stroke-width="0.5" stroke-linecap="butt"/><path d="M275.19535,180.7158c-0.21151,-0.13328 -0.07823,-0.34479 -0.07823,-0.34479l0.21193,-0.33632c0.01892,-0.02985 0.03772,-0.05983 0.0564,-0.08993c-0.01139,-0.07838 0.0177,-0.14735 0.0177,-0.14735c0.25911,-0.61425 0.71214,-1.68823 0.97125,-2.30248c0.38477,-0.91215 0.76954,-1.8243 1.15431,-2.73644c0.42275,-1.38512 0.80053,-2.77554 1.22767,-4.04133c0.99826,-2.95687 2.13558,-5.39305 2.4205,-8.52717c0,0 0.02263,-0.24897 0.27161,-0.22634c0.24897,0.02263 0.22634,0.27161 0.22634,0.27161c-0.26108,2.87191 -1.22378,5.16944 -2.15228,7.79659c0.31094,-0.73713 0.62189,-1.47426 0.93283,-2.21139c1.16323,-2.75759 2.89156,-5.2933 4.41358,-7.86903c0,0 0.12718,-0.21523 0.34241,-0.08805c0.21523,0.12718 0.08805,0.34241 0.08805,0.34241c-1.51038,2.55603 -3.22906,5.07261 -4.38335,7.809c-0.98244,2.32901 -1.96488,4.65801 -2.94733,6.98702c-0.58,1.87966 -1.2428,3.74602 -2.21667,5.29946l-0.21193,0.33632c0,0 -0.13328,0.21151 -0.34479,0.07823z" fill="#ffffff" stroke="none" stroke-width="0.5" stroke-linecap="butt"/><path d="M314.15022,183.4753c-0.22725,0.1042 -0.33145,-0.12305 -0.33145,-0.12305l-0.00093,-0.00202c-0.44451,-0.96945 -0.89842,-1.9327 -1.32978,-2.90545c0.29566,1.22801 0.55522,2.4646 0.82811,3.70002l0.05937,0.26877c0,0 0.05392,0.24412 -0.19019,0.29804c-0.24412,0.05392 -0.29804,-0.19019 -0.29804,-0.19019l-0.05937,-0.26877c-0.43054,-1.94911 -0.82718,-3.90137 -1.38731,-5.81761c-0.26568,-0.9089 -0.53239,-1.81731 -0.80061,-2.72519c-0.94859,-2.57879 -1.89831,-5.15743 -2.79562,-7.7543c-0.97632,-2.82555 -1.83016,-5.69951 -3.16784,-8.37487c0,0 -0.1118,-0.22361 0.1118,-0.33541c0.22361,-0.1118 0.33541,0.1118 0.33541,0.1118c0.8116,1.6232 1.44706,3.31823 2.03901,5.0316c-0.49844,-1.51746 -1.01954,-3.02695 -1.58211,-4.52715c0,0 -0.08778,-0.23408 0.1463,-0.32186c0.23408,-0.08778 0.32186,0.1463 0.32186,0.1463c1.05719,2.81917 1.96859,5.671 2.85785,8.54692c0.75308,2.43548 1.48613,4.8757 2.20825,7.31978c0.25846,0.70262 0.51683,1.40526 0.77402,2.10829c0.68583,1.87469 1.55157,3.66677 2.38337,5.4809l0.00093,0.00202c0,0 0.1042,0.22725 -0.12305,0.33145z" fill="#ffffff" stroke="none" stroke-width="0.5" stroke-linecap="butt"/><path d="M268.78263,180.40385c-0.20442,-0.14392 -0.0605,-0.34834 -0.0605,-0.34834l0.20425,-0.2901c1.37921,-1.95113 2.34749,-4.45976 3.55919,-6.55972c1.76173,-3.05318 4.05593,-5.68805 6.04982,-8.58788c1.737,-2.52622 3.34705,-4.82952 4.48752,-7.68069c0,0 0.09285,-0.23212 0.32497,-0.13927c0.23212,0.09285 0.13927,0.32497 0.13927,0.32497c-1.15436,2.88591 -2.78233,5.22235 -4.53975,7.77828c-1.98625,2.88873 -4.27395,5.51331 -6.02875,8.55448c-1.22145,2.11684 -2.19914,4.62426 -3.58344,6.59767l-0.20425,0.2901c0,0 -0.14392,0.20442 -0.34834,0.0605z" fill="#ffffff" stroke="none" stroke-width="0.5" stroke-linecap="butt"/><path d="M276.53622,174.96165c-0.24972,-0.01186 -0.23786,-0.26158 -0.23786,-0.26158l0.0062,-0.13055c0.03238,-0.68167 0.042,-1.35267 0.16808,-2.02418c0.54758,-2.89759 2.24932,-5.63138 3.50756,-8.30514c0,0 0.10645,-0.2262 0.33265,-0.11976c0.2262,0.10645 0.11976,0.33265 0.11976,0.33265c-1.23916,2.63321 -2.92968,5.33297 -3.46867,8.18509c-0.12321,0.64751 -0.12871,1.2973 -0.15995,1.95505l-0.0062,0.13055c0,0 -0.01186,0.24972 -0.26158,0.23786z" fill="#ffffff" stroke="none" stroke-width="0.5" stroke-linecap="butt"/><path d="M313.24894,177.06662c-0.22066,0.11751 -0.33817,-0.10315 -0.33817,-0.10315l-0.17034,-0.31986c-1.62742,-3.06034 -2.55132,-6.51686 -3.60987,-9.85195c-0.84445,-2.66056 -1.3705,-6.08818 -2.91409,-8.40356c0,0 -0.13868,-0.20801 0.06934,-0.34669c0.20801,-0.13868 0.34669,0.06934 0.34669,0.06934c1.57333,2.35999 2.11452,5.81973 2.97464,8.52965c1.04891,3.30472 1.95982,6.74008 3.57462,9.76819l0.17034,0.31986c0,0 0.11751,0.22066 -0.10315,0.33817z" fill="#ffffff" stroke="none" stroke-width="0.5" stroke-linecap="butt"/></g></g></svg>