<svg version="1.1" xmlns="http://www.w3.org/2000/svg" xmlns:xlink="http://www.w3.org/1999/xlink" width="213.18203" height="309.40818" viewBox="0,0,213.18203,309.40818"><defs><linearGradient x1="320.08742" y1="187.07227" x2="320.08742" y2="244.23177" gradientUnits="userSpaceOnUse" id="color-1"><stop offset="0" stop-color="#671d06"/><stop offset="1" stop-color="#671d06" stop-opacity="0"/></linearGradient><radialGradient cx="310.88785" cy="25.86697" r="64.30757" gradientUnits="userSpaceOnUse" id="color-2"><stop offset="0" stop-color="#a4aeae"/><stop offset="1" stop-color="#767d7d"/></radialGradient></defs><g transform="translate(-214.52362,-10.66409)"><g stroke-miterlimit="10"><g stroke="#000000" stroke-linecap="butt"><path d="M286.35186,319.07226l15.14285,-131.8421l37.78325,-0.15789l13.57389,132z" fill="#9c4209" stroke-width="0"/><path d="M295.01902,243.61117l6.47569,-56.38101l37.78325,-0.15789l5.87786,57.15951z" fill="url(#color-1)" stroke-width="0"/><path d="M286.35186,319.07226l15.14285,-131.8421l37.78325,-0.15789l13.57389,132z" fill="none" stroke-width="2"/></g><path d="M214.52362,306.61251v-291.88681h213.18203v291.88681z" fill="none" stroke="none" stroke-width="0" stroke-linecap="butt"/><path d="" fill="none" stroke="#000000" stroke-width="2" stroke-linecap="round"/><g><path d="M256.92567,154.43743c-5.31347,-32.87523 18.77057,-64.11464 53.79318,-69.77519c35.02264,-5.66055 67.7215,16.4013 73.03498,49.27652c5.31347,32.87523 -18.77056,64.11464 -53.79318,69.7752c-35.02263,5.66055 -67.7215,-16.40131 -73.03498,-49.27653z" fill="#9c4209" stroke="#000000" stroke-width="2" stroke-linecap="butt"/><path d="M270.42218,152.53525c-2.06911,-12.80187 6.63152,-24.85719 19.43339,-26.92629c12.80187,-2.06911 24.85719,6.63151 26.92629,19.43338c2.06911,12.80187 -6.63151,24.85719 -19.43338,26.9263c-12.80187,2.06911 -24.8572,-6.63152 -26.9263,-19.43339z" fill="#ffffff" stroke="#000000" stroke-width="2" stroke-linecap="butt"/><path d="M284.98702,154.21721c-1.32425,-8.19332 4.24423,-15.90883 12.43753,-17.23308c8.19332,-1.32425 15.90884,4.24424 17.23308,12.43755c1.32425,8.19332 -4.24423,15.90885 -12.43754,17.23309c-8.19332,1.32425 -15.90883,-4.24424 -17.23307,-12.43756z" fill="#000000" stroke="#000000" stroke-width="5" stroke-linecap="butt"/><path d="M350.91184,163.31148c-12.80187,2.06911 -24.85719,-6.63152 -26.92629,-19.43339c-2.06911,-12.80187 6.63151,-24.85719 19.43339,-26.92629c12.80187,-2.06911 24.85719,6.63151 26.9263,19.43338c2.06911,12.80187 -6.63152,24.8572 -19.43339,26.9263z" fill="#ffffff" stroke="#000000" stroke-width="2" stroke-linecap="butt"/><path d="M363.39259,130.51445c1.20961,7.484 -3.87678,14.53155 -11.36078,15.74116c-7.48397,1.2096 -14.53155,-3.87681 -15.74115,-11.3608c-1.20961,-7.484 3.8768,-14.53155 11.36079,-15.74116c7.48397,-1.2096 14.53154,3.8768 15.74114,11.36078z" fill="#000000" stroke="#000000" stroke-width="5" stroke-linecap="butt"/><path d="M275.26185,126.18381c0,0 6.19209,-5.77831 11.14518,-7.44673c4.95309,-1.66843 12.34516,-0.46583 12.34516,-0.46583c0,0 -8.00804,0.69732 -11.83316,1.98579c-3.99738,1.3465 -11.65717,5.92678 -11.65717,5.92678z" fill="#000000" stroke="none" stroke-width="0" stroke-linecap="butt"/><path d="M343.21777,109.04109c-3.95033,0.82859 -11.2065,4.28735 -11.2065,4.28735c0,0 5.76201,-4.78411 10.87724,-5.85705c5.11523,-1.07295 13.38201,0.7686 13.38201,0.7686c0,0 -8.92451,-0.06478 -13.05275,0.80112z" fill="#000000" stroke="none" stroke-width="0" stroke-linecap="butt"/><g stroke="#000000" stroke-linecap="round"><path d="M379.87697,126.55012c0,0 -15.58543,10.05678 -55.92751,3.3543c-35.37568,-5.87735 -56.31376,-19.85532 -56.31376,-19.85532l33.64811,-94.6793c0,0 21.70313,-5.69441 43.86085,-2.96542c31.13449,3.83458 39.01998,12.53896 39.01998,12.53896z" fill="url(#color-2)" stroke-width="2"/><path d="M379.87697,126.55012c0,0 -15.58543,10.05678 -55.92751,3.3543c-35.37568,-5.87735 -56.31376,-19.85532 -56.31376,-19.85532c0,0 57.88925,6.68302 91.84491,2.01041c15.36405,-2.11424 21.31972,-41.55557 21.31972,-41.55557l-0.92336,56.04616z" fill-opacity="0.3451" fill="#4d5252" stroke-width="0"/><path d="M379.87697,126.55012c0,0 -15.58543,10.05678 -55.92751,3.3543c-35.37568,-5.87735 -56.31376,-19.85532 -56.31376,-19.85532l33.64811,-94.6793c0,0 21.70313,-5.69441 43.86085,-2.96542c31.13449,3.83458 39.01998,12.53896 39.01998,12.53896z" fill="none" stroke-width="2"/></g><path d="M374.83216,120.96425l3.8964,77.69138l-20.44595,-5.35592" fill="none" stroke="#000000" stroke-width="2" stroke-linecap="round"/><path d="M319.89696,200.25987l5.3862,-28.4458l9.05746,27.20239z" fill="#000000" stroke="#000000" stroke-width="2" stroke-linecap="round"/></g></g></g></svg>