<svg version="1.1" xmlns="http://www.w3.org/2000/svg" xmlns:xlink="http://www.w3.org/1999/xlink" width="213.18203" height="304.34661" viewBox="0,0,213.18203,304.34661"><defs><radialGradient cx="292.4772" cy="145.23587" r="23.48066" gradientUnits="userSpaceOnUse" id="color-1"><stop offset="0" stop-color="#ffffff"/><stop offset="1" stop-color="#ffc0c0"/></radialGradient></defs><g transform="translate(-214.52362,-14.7257)"><g stroke-miterlimit="10"><path d="M214.52362,306.61251v-291.88681h213.18203v291.88681z" fill="none" stroke="none" stroke-width="0" stroke-linecap="butt"/><g stroke-linecap="butt"><path d="M286.35186,319.0723l15.14285,-131.8421l37.78325,-0.15789l13.57389,132z" fill="#9c4209" stroke="#000000" stroke-width="0"/><path d="M294.22844,250.49448c2.47092,-21.51321 7.26628,-63.26425 7.26628,-63.26425l37.78325,-0.15789c0,0 4.38898,42.68081 6.62338,64.40935c0.00164,0.01602 -51.6851,-0.881 -51.6729,-0.98721z" fill="#973007" stroke="#000000" stroke-width="0"/><path d="M295.94368,235.56058c0.72966,-6.35283 1.62173,-14.1196 2.47549,-21.55293c1.60549,-13.9783 3.07554,-26.77743 3.07554,-26.77743l37.78325,-0.15789c0,0 3.09646,30.11173 4.982,48.44774c0.00398,0.0387 -48.33922,0.24027 -48.31628,0.0405z" fill="#7b280f" stroke="#000000" stroke-width="0"/><path d="M297.45003,222.44543c1.6814,-14.63921 4.04468,-35.2152 4.04468,-35.2152l37.78325,-0.15789c0,0 2.07567,20.185 3.56363,34.65471c0.00565,0.05498 -45.40964,0.87585 -45.39156,0.71838z" fill="#671d06" stroke="#000000" stroke-width="0"/><path d="M339.24775,222.58258c0,-0.9665 0.7835,-1.75 1.75,-1.75c0.9665,0 1.75,0.7835 1.75,1.75c0,0.9665 -0.7835,1.75 -1.75,1.75c-0.9665,0 -1.75,-0.7835 -1.75,-1.75z" fill="#671d06" stroke="none" stroke-width="0.5"/><path d="M333.2568,222.7698c0,-0.9665 0.7835,-1.75 1.75,-1.75c0.32998,0 0.63863,0.09133 0.90205,0.25009c0.30847,-0.27217 0.71362,-0.43731 1.15734,-0.43731c0.9665,0 1.75,0.7835 1.75,1.75c0,0.9665 -0.7835,1.75 -1.75,1.75c-0.32998,0 -0.63863,-0.09133 -0.90205,-0.25009c-0.30847,0.27217 -0.71362,0.43731 -1.15734,0.43731c-0.9665,0 -1.75,-0.7835 -1.75,-1.75z" fill="#671d06" stroke="none" stroke-width="0.5"/><path d="M329.51245,222.02092c0,-0.9665 0.7835,-1.75 1.75,-1.75c0.30646,0 0.59453,0.07878 0.84505,0.21718c0.31185,0.12682 0.56095,0.37592 0.68777,0.68777c0.13841,0.25052 0.21718,0.53858 0.21718,0.84505c0,0.34786 -0.10149,0.67201 -0.27648,0.94446c0.05791,0.1739 0.08927,0.35993 0.08927,0.55328c0,0.9665 -0.7835,1.75 -1.75,1.75c-0.9665,0 -1.75,-0.7835 -1.75,-1.75c0,-0.34786 0.10149,-0.67201 0.27648,-0.94446c-0.05791,-0.1739 -0.08927,-0.35993 -0.08927,-0.55328z" fill="#671d06" stroke="none" stroke-width="0.5"/><path d="M314.16064,221.8337c0,-0.9665 0.7835,-1.75 1.75,-1.75c0.19646,0 0.38536,0.03237 0.56165,0.09208c0.17629,-0.0597 0.36519,-0.09208 0.56165,-0.09208c0.9665,0 1.75,0.7835 1.75,1.75c0,0.9665 -0.7835,1.75 -1.75,1.75c-0.19646,0 -0.38536,-0.03237 -0.56165,-0.09208c-0.17629,0.0597 -0.36519,0.09208 -0.56165,0.09208c-0.9665,0 -1.75,-0.7835 -1.75,-1.75z" fill="#671d06" stroke="none" stroke-width="0.5"/><path d="M314.10351,223.14422c0,0.9665 -0.7835,1.75 -1.75,1.75c-0.67613,0 -1.26271,-0.38344 -1.55413,-0.94474c-0.56129,-0.29142 -0.94474,-0.878 -0.94474,-1.55413c0,-0.9665 0.7835,-1.75 1.75,-1.75c0.67613,0 1.26271,0.38344 1.55413,0.94474c0.56129,0.29142 0.94474,0.878 0.94474,1.55413z" fill="#671d06" stroke="none" stroke-width="0.5"/><path d="M324.1482,221.14536c0.37026,0 0.70291,0.16098 0.9318,0.41677c0.20158,-0.74396 0.8815,-1.2912 1.68924,-1.2912c0.9665,0 1.75,0.7835 1.75,1.75c0,0.60801 -0.31007,1.14359 -0.7807,1.45726c-0.15589,0.80676 -0.86588,1.41604 -1.71817,1.41604c-0.79762,0 -1.47061,-0.53362 -1.68144,-1.26333c-0.06219,0.00952 -0.12588,0.01446 -0.19073,0.01446c-0.50469,0 -0.93952,-0.2991 -1.1369,-0.7297c-0.22154,0.71242 -0.88604,1.2297 -1.67135,1.2297c-0.9665,0 -1.75,-0.7835 -1.75,-1.75c0,-0.9665 0.7835,-1.75 1.75,-1.75c0.78532,0 1.44982,0.51728 1.67135,1.2297c0.19739,-0.43061 0.63222,-0.7297 1.1369,-0.7297z" fill="#671d06" stroke="none" stroke-width="0.5"/><path d="M300.24492,236.9983c0,-0.08636 0.00876,-0.17067 0.02543,-0.25209c-0.244,-0.09995 -0.46041,-0.25341 -0.63463,-0.4458c-0.19003,0.76091 -0.87816,1.32459 -1.69793,1.32459c-0.9665,0 -1.75,-0.7835 -1.75,-1.75c0,-0.9665 0.7835,-1.75 1.75,-1.75c0.51461,0 0.97734,0.22212 1.29754,0.57572c0.19003,-0.76091 0.87816,-1.32459 1.69793,-1.32459c0.9665,0 1.75,0.7835 1.75,1.75c0,0.36642 -0.11262,0.70654 -0.30512,0.98763c0.22659,0.22626 0.36677,0.53903 0.36677,0.88454c0,0.69036 -0.55964,1.25 -1.25,1.25c-0.69036,0 -1.25,-0.55964 -1.25,-1.25z" fill="#7b280f" stroke="none" stroke-width="0.5"/><path d="M340.06166,238.06109c-0.59012,0 -1.08473,-0.40893 -1.21592,-0.95887c-0.2891,0.21103 -0.64535,0.33557 -1.03069,0.33557c-0.48169,0 -0.91793,-0.19461 -1.23437,-0.5095c-0.28575,0.20296 -0.63506,0.32229 -1.01224,0.32229c-0.9665,0 -1.75,-0.7835 -1.75,-1.75c0,-0.9665 0.7835,-1.75 1.75,-1.75c0.48169,0 0.91793,0.19461 1.23437,0.5095c0.28575,-0.20296 0.63506,-0.32229 1.01224,-0.32229c0.12633,0 0.24952,0.01339 0.36826,0.03881c0.30481,-0.25781 0.699,-0.41325 1.12948,-0.41325c0.9665,0 1.75,0.7835 1.75,1.75c0,0.0418 -0.00147,0.08326 -0.00435,0.12433c0.31616,-0.45395 0.84191,-0.75102 1.43704,-0.75102c0.9665,0 1.75,0.7835 1.75,1.75c0,0.9665 -0.7835,1.75 -1.75,1.75c-0.56672,0 -1.07052,-0.26939 -1.39034,-0.6871c-0.22368,0.33835 -0.60752,0.56153 -1.04348,0.56153z" fill="#7b280f" stroke="none" stroke-width="0.5"/><path d="M322.71098,236.24943c0,-0.69036 0.55964,-1.25 1.25,-1.25c0.44714,0 0.83944,0.23477 1.06037,0.58777c-0.0014,-0.02871 -0.00211,-0.05759 -0.00211,-0.08664c0,-0.9665 0.7835,-1.75 1.75,-1.75c0.16211,0 0.31907,0.02204 0.46804,0.06329c0.14898,-0.04125 0.30594,-0.06329 0.46804,-0.06329c0.9665,0 1.75,0.7835 1.75,1.75c0,0.67465 -0.38176,1.26013 -0.94105,1.55221c0.00329,0.04382 0.00496,0.08809 0.00496,0.13275c0,0.9665 -0.7835,1.75 -1.75,1.75c-0.9665,0 -1.75,-0.7835 -1.75,-1.75c0,-0.1089 0.00995,-0.21548 0.02898,-0.31888c-0.215,0.37792 -0.62136,0.63279 -1.08724,0.63279c-0.69036,0 -1.25,-0.55964 -1.25,-1.25zM325.23501,236.34304c-0.00852,-0.01549 -0.01682,-0.03112 -0.02488,-0.04689c-0.00139,0.03773 -0.00445,0.07504 -0.0091,0.11184c0.01089,-0.02192 0.02222,-0.04357 0.03399,-0.06495z" fill="#7b280f" stroke="none" stroke-width="0.5"/><path d="M317.28168,239.61935c0,-0.69036 0.55964,-1.25 1.25,-1.25c0.05371,0 0.10663,0.00339 0.15856,0.00996c-0.55842,-0.2774 -0.94764,-0.84428 -0.97133,-1.50432c-0.9369,-0.03363 -1.6861,-0.80375 -1.6861,-1.74886c0,-0.9665 0.7835,-1.75 1.75,-1.75c0.12852,0 0.2538,0.01385 0.37443,0.04015c0.12063,-0.0263 0.24592,-0.04015 0.37443,-0.04015c0.9665,0 1.75,0.7835 1.75,1.75c0,0.04466 -0.00167,0.08893 -0.00496,0.13275c0.55928,0.29208 0.94105,0.87756 0.94105,1.55221c0,0.9665 -0.7835,1.75 -1.75,1.75c-0.1089,0 -0.21548,-0.00995 -0.31888,-0.02898c0.37792,0.215 0.63279,0.62136 0.63279,1.08724c0,0.69036 -0.55964,1.25 -1.25,1.25c-0.69036,0 -1.25,-0.55964 -1.25,-1.25z" fill="#7b280f" stroke="none" stroke-width="0.5"/><path d="M312.10578,237.74717c0,0.69036 -0.55964,1.25 -1.25,1.25c-0.56162,0 -1.03673,-0.37038 -1.1944,-0.88021c-0.15565,0.04536 -0.32026,0.06969 -0.49056,0.06969c-0.9665,0 -1.75,-0.7835 -1.75,-1.75c0,-0.9665 0.7835,-1.75 1.75,-1.75c0.9665,0 1.75,0.7835 1.75,1.75c0,0.0208 -0.00036,0.04151 -0.00108,0.06213c0.66063,0.0333 1.18604,0.57949 1.18604,1.24839z" fill="#7b280f" stroke="none" stroke-width="0.5"/><path d="M310.79073,235.12612c0,-0.9665 0.7835,-1.75 1.75,-1.75c0.9665,0 1.75,0.7835 1.75,1.75c0,0.9665 -0.7835,1.75 -1.75,1.75c-0.9665,0 -1.75,-0.7835 -1.75,-1.75z" fill="#7b280f" stroke="none" stroke-width="0.5"/><path d="M301.3077,249.22793c0.69036,0 1.25,0.55964 1.25,1.25c0,0.69036 -0.55964,1.25 -1.25,1.25c-0.42713,0 -0.80423,-0.21424 -1.02969,-0.54112c-0.22547,0.32688 -0.60256,0.54112 -1.02969,0.54112c-0.03941,0 -0.0784,-0.00182 -0.11688,-0.00539c-0.28467,0.20046 -0.6318,0.31817 -1.00642,0.31817c-0.48169,0 -0.91793,-0.19461 -1.23437,-0.5095c-0.28575,0.20296 -0.63506,0.32229 -1.01224,0.32229c-0.9665,0 -1.75,-0.7835 -1.75,-1.75c0,-0.9665 0.7835,-1.75 1.75,-1.75c0.48169,0 0.91793,0.19461 1.23437,0.5095c0.28575,-0.20296 0.63506,-0.32229 1.01224,-0.32229c0.58223,0 1.09805,0.28433 1.41618,0.72172c0.30389,0.07296 0.56459,0.25692 0.73682,0.50662c0.22547,-0.32688 0.60256,-0.54112 1.02969,-0.54112z" fill="#973007" stroke="none" stroke-width="0.5"/><path d="M342.12105,249.2896c0.80708,0 1.48656,0.54635 1.68875,1.28938c0.22606,-0.10652 0.47861,-0.16608 0.74508,-0.16608c0.9665,0 1.37557,0.7835 1.37557,1.75c0,0.9665 -0.40907,1.75 -1.37557,1.75c-0.80708,0 -1.48656,-0.54635 -1.68875,-1.28938c-0.22606,0.10652 -0.47861,0.16608 -0.74508,0.16608c-0.53493,0 -1.01381,-0.24001 -1.33481,-0.61822c-0.31122,0.48448 -0.85485,0.80544 -1.47345,0.80544c-0.9665,0 -1.75,-0.7835 -1.75,-1.75c0,-0.9665 0.7835,-1.75 1.75,-1.75c0.53493,0 1.01381,0.24001 1.33481,0.61822c0.31122,-0.48448 0.85485,-0.80544 1.47345,-0.80544z" fill="#973007" stroke="none" stroke-width="0.5"/><path d="M335.1335,251.22681c0,0.69036 -0.55964,1.25 -1.25,1.25c-0.03941,0 -0.0784,-0.00182 -0.11688,-0.00539c-0.28467,0.20046 -0.6318,0.31817 -1.00642,0.31817c-0.9665,0 -1.75,-0.7835 -1.75,-1.75c0,-0.65513 0.36,-1.22619 0.89296,-1.52613c0.10216,-0.58761 0.61464,-1.03439 1.23147,-1.03439c0.69036,0 1.25,0.55964 1.25,1.25c0,0.11552 -0.01567,0.22738 -0.045,0.33357c0.46477,0.18224 0.79387,0.63477 0.79387,1.16417z" fill="#973007" stroke="none" stroke-width="0.5"/><path d="M325.58089,251.0396c0,-0.9665 0.7835,-1.75 1.75,-1.75c0.9665,0 1.75,0.7835 1.75,1.75c0,0.9665 -0.7835,1.75 -1.75,1.75c-0.9665,0 -1.75,-0.7835 -1.75,-1.75z" fill="#973007" stroke="none" stroke-width="0.5"/><path d="M318.46664,250.66516c0,-0.9665 0.7835,-1.75 1.75,-1.75c0.34786,0 0.67201,0.10149 0.94446,0.27648c0.1739,-0.05791 0.35993,-0.08927 0.55328,-0.08927c0.9665,0 1.75,0.7835 1.75,1.75c0,0.9665 -0.7835,1.75 -1.75,1.75c-0.34786,0 -0.67201,-0.10149 -0.94446,-0.27648c-0.1739,0.05791 -0.35993,0.08927 -0.55328,0.08927c-0.9665,0 -1.75,-0.7835 -1.75,-1.75z" fill="#973007" stroke="none" stroke-width="0.5"/><path d="M308.48247,251.97568c0,-0.69036 0.55964,-1.25 1.25,-1.25c0.28465,0 0.54708,0.09515 0.75722,0.25537c-0.04775,-0.15934 -0.0734,-0.32823 -0.0734,-0.50311c0,-0.9665 0.7835,-1.75 1.75,-1.75c0.67205,0 1.25562,0.37883 1.54882,0.9346c0.25244,-0.65616 0.88878,-1.12181 1.63387,-1.12181c0.9665,0 1.75,0.7835 1.75,1.75c0,0.9665 -0.7835,1.75 -1.75,1.75c-0.67205,0 -1.25562,-0.37883 -1.54882,-0.9346c-0.25244,0.65616 -0.88878,1.12181 -1.63387,1.12181c-0.46678,0 -0.89087,-0.18275 -1.20463,-0.4806c0.01367,0.07403 0.02081,0.15035 0.02081,0.22834c0,0.69036 -0.55964,1.25 -1.25,1.25c-0.69036,0 -1.25,-0.55964 -1.25,-1.25z" fill="#973007" stroke="none" stroke-width="0.5"/><path d="M304.23813,250.29072c0,-0.9665 0.7835,-1.75 1.75,-1.75c0.9665,0 1.75,0.7835 1.75,1.75c0,0.9665 -0.7835,1.75 -1.75,1.75c-0.9665,0 -1.75,-0.7835 -1.75,-1.75z" fill="#973007" stroke="none" stroke-width="0.5"/><path d="M300.0577,224.82918c0,-0.26433 0.08204,-0.50949 0.22205,-0.71141c-0.10062,-0.05522 -0.19522,-0.12005 -0.28257,-0.19324c-0.30395,0.2547 -0.69572,0.40805 -1.1233,0.40805c-0.9665,0 -1.56278,-0.7835 -1.56278,-1.75c0,-0.9665 0.59628,-1.75 1.56278,-1.75c0.42758,0 0.81935,0.15335 1.1233,0.40805c0.30395,-0.2547 0.69572,-0.40805 1.1233,-0.40805c0.523,0 0.99241,0.22942 1.31309,0.59312c0.02752,-0.02297 0.05576,-0.04512 0.08468,-0.06639c0.31857,-0.43298 0.83172,-0.71394 1.41049,-0.71394c0.9665,0 1.75,0.7835 1.75,1.75c0,0.40843 -0.13992,0.78418 -0.37443,1.08193c-0.09781,0.12418 -0.21207,0.2348 -0.33951,0.32856c-0.31857,0.43298 -0.83172,0.71394 -1.41049,0.71394c-0.523,0 -0.99241,-0.22942 -1.31309,-0.59312c-0.01244,0.01039 -0.02504,0.02061 -0.03777,0.03065c0.21922,0.22519 0.35425,0.53276 0.35425,0.87186c0,0.69036 -0.55964,1.25 -1.25,1.25c-0.06939,0 -0.13746,-0.00565 -0.20377,-0.01653c0.31365,0.22711 0.51768,0.59629 0.51768,1.01313c0,0.69036 -0.55964,1.25 -1.25,1.25c-0.69036,0 -1.25,-0.55964 -1.25,-1.25c0,-0.69036 0.55964,-1.25 1.25,-1.25c0.06939,0 0.13746,0.00565 0.20377,0.01653c-0.31365,-0.22711 -0.51768,-0.59629 -0.51768,-1.01313z" fill="#671d06" stroke="none" stroke-width="0.5"/><path d="M308.29526,224.82918c0,-0.69036 0.55964,-1.25 1.25,-1.25c0.69036,0 1.25,0.55964 1.25,1.25c0,0.69036 -0.55964,1.25 -1.25,1.25c-0.69036,0 -1.25,-0.55964 -1.25,-1.25z" fill="#671d06" stroke="none" stroke-width="0.5"/><path d="M310.72908,227.26301c0,-0.69036 0.55964,-1.25 1.25,-1.25c0.69036,0 1.25,0.55964 1.25,1.25c0,0.69036 -0.55964,1.25 -1.25,1.25c-0.69036,0 -1.25,-0.55964 -1.25,-1.25z" fill="#671d06" stroke="none" stroke-width="0.5"/><path d="M336.19062,226.70135c0,-0.69036 0.55964,-1.25 1.25,-1.25c0.69036,0 1.25,0.55964 1.25,1.25c0,0.69036 -0.55964,1.25 -1.25,1.25c-0.69036,0 -1.25,-0.55964 -1.25,-1.25z" fill="#671d06" stroke="none" stroke-width="0.5"/><path d="M297.06222,240.181c0,-0.69036 0.55964,-1.25 1.25,-1.25c0.69036,0 1.25,0.55964 1.25,1.25c0,0.69036 -0.55964,1.25 -1.25,1.25c-0.69036,0 -1.25,-0.55964 -1.25,-1.25z" fill="#7b280f" stroke="none" stroke-width="0.5"/><path d="M304.92535,235.12612c0,-0.69036 0.55964,-1.25 1.25,-1.25c0.69036,0 1.25,0.55964 1.25,1.25c0,0.69036 -0.55964,1.25 -1.25,1.25c-0.69036,0 -1.25,-0.55964 -1.25,-1.25z" fill="#7b280f" stroke="none" stroke-width="0.5"/><path d="M312.22682,239.61935c0,-0.69036 0.55964,-1.25 1.25,-1.25c0.69036,0 1.25,0.55964 1.25,1.25c0,0.69036 -0.55964,1.25 -1.25,1.25c-0.69036,0 -1.25,-0.55964 -1.25,-1.25z" fill="#7b280f" stroke="none" stroke-width="0.5"/><path d="M332.82071,239.24491c0,-0.69036 0.55964,-1.25 1.25,-1.25c0.69036,0 1.25,0.55964 1.25,1.25c0,0.69036 -0.55964,1.25 -1.25,1.25c-0.69036,0 -1.25,-0.55964 -1.25,-1.25z" fill="#7b280f" stroke="none" stroke-width="0.5"/><path d="M297.43666,255.34559c0,-0.69036 0.55964,-1.25 1.25,-1.25c0.69036,0 1.25,0.55964 1.25,1.25c0,0.69036 -0.55964,1.25 -1.25,1.25c-0.69036,0 -1.25,-0.55964 -1.25,-1.25z" fill="#973007" stroke="none" stroke-width="0.5"/><path d="M313.60351,255.15837c0,0.69036 -0.55964,1.25 -1.25,1.25c-0.39286,0 -0.7434,-0.18124 -0.97255,-0.46467c-0.10914,-0.08824 -0.20313,-0.19448 -0.27745,-0.3142c-0.11868,-0.19119 -0.18722,-0.41676 -0.18722,-0.65835c0,-0.69036 0.55964,-1.25 1.25,-1.25c0.39286,0 0.7434,0.18124 0.97255,0.46467c0.28343,0.22915 0.46467,0.57969 0.46467,0.97255z" fill="#973007" stroke="none" stroke-width="0.5"/><path d="M322.52377,255.90724c0,-0.22676 0.06038,-0.43942 0.16594,-0.62278c-0.01303,0.0004 -0.02612,0.0006 -0.03925,0.0006c-0.69036,0 -1.25,-0.55964 -1.25,-1.25c0,-0.69036 0.55964,-1.25 1.25,-1.25c0.69036,0 1.25,0.55964 1.25,1.25c0,0.22676 -0.06038,0.43942 -0.16594,0.62278c0.01303,-0.0004 0.02612,-0.0006 0.03925,-0.0006c0.69036,0 1.25,0.55964 1.25,1.25c0,0.69036 -0.55964,1.25 -1.25,1.25c-0.69036,0 -1.25,-0.55964 -1.25,-1.25z" fill="#973007" stroke="none" stroke-width="0.5"/><path d="M338.99888,256.6561c0,-0.18187 0.03884,-0.35467 0.10868,-0.51055c-0.29399,-0.22871 -0.48312,-0.58586 -0.48312,-0.98718c0,-0.69036 0.55964,-1.25 1.25,-1.25c0.69036,0 1.25,0.55964 1.25,1.25c0,0.18187 -0.03884,0.35467 -0.10868,0.51055c0.29399,0.22871 0.48312,0.58586 0.48312,0.98718c0,0.69036 -0.55964,1.25 -1.25,1.25c-0.69036,0 -1.25,-0.55964 -1.25,-1.25z" fill="#973007" stroke="none" stroke-width="0.5"/><path d="M297.93666,232.50508c0,-0.41421 0.33579,-0.75 0.75,-0.75c0.41421,0 0.75,0.33579 0.75,0.75c0,0.41421 -0.33579,0.75 -0.75,0.75c-0.41421,0 -0.75,-0.33579 -0.75,-0.75z" fill="#671d06" stroke="none" stroke-width="0.5"/><path d="M305.987,231.38178c0,-0.41421 0.33579,-0.75 0.75,-0.75c0.41421,0 0.75,0.33579 0.75,0.75c0,0.41421 -0.33579,0.75 -0.75,0.75c-0.41421,0 -0.75,-0.33579 -0.75,-0.75z" fill="#671d06" stroke="none" stroke-width="0.5"/><path d="M317.40725,230.4457c0,-0.41421 0.33579,-0.75 0.75,-0.75c0.41421,0 0.75,0.33579 0.75,0.75c0,0.41421 -0.33579,0.75 -0.75,0.75c-0.41421,0 -0.75,-0.33579 -0.75,-0.75z" fill="#671d06" stroke="none" stroke-width="0.5"/><path d="M324.89594,231.00735c0,-0.41421 0.33579,-0.75 0.75,-0.75c0.41421,0 0.75,0.33579 0.75,0.75c0,0.41421 -0.33579,0.75 -0.75,0.75c-0.41421,0 -0.75,-0.33579 -0.75,-0.75z" fill="#671d06" stroke="none" stroke-width="0.5"/><path d="M337.62671,233.8156c0,-0.41421 0.33579,-0.75 0.75,-0.75c0.41421,0 0.75,0.33579 0.75,0.75c0,0.41421 -0.33579,0.75 -0.75,0.75c-0.41421,0 -0.75,-0.33579 -0.75,-0.75z" fill="#671d06" stroke="none" stroke-width="0.5"/><path d="M297.37501,246.35917c0,-0.41421 0.33579,-0.75 0.75,-0.75c0.41421,0 0.75,0.33579 0.75,0.75c0,0.41421 -0.33579,0.75 -0.75,0.75c-0.41421,0 -0.75,-0.33579 -0.75,-0.75z" fill="#7b280f" stroke="none" stroke-width="0.5"/><path d="M302.42987,243.36368c0,-0.41421 0.33579,-0.75 0.75,-0.75c0.41421,0 0.75,0.33579 0.75,0.75c0,0.41421 -0.33579,0.75 -0.75,0.75c-0.41421,0 -0.75,-0.33579 -0.75,-0.75z" fill="#7b280f" stroke="none" stroke-width="0.5"/><path d="M319.0922,245.42308c0,-0.41421 0.33579,-0.75 0.75,-0.75c0.41421,0 0.75,0.33579 0.75,0.75c0,0.41421 -0.33579,0.75 -0.75,0.75c-0.41421,0 -0.75,-0.33579 -0.75,-0.75z" fill="#7b280f" stroke="none" stroke-width="0.5"/><path d="M323.02377,248.23134c0,-0.41421 0.33579,-0.75 0.75,-0.75c0.41421,0 0.75,0.33579 0.75,0.75c0,0.41421 -0.33579,0.75 -0.75,0.75c-0.41421,0 -0.75,-0.33579 -0.75,-0.75z" fill="#7b280f" stroke="none" stroke-width="0.5"/><path d="M334.06958,245.61029c0,-0.41421 0.33579,-0.75 0.75,-0.75c0.41421,0 0.75,0.33579 0.75,0.75c0,0.41421 -0.33579,0.75 -0.75,0.75c-0.41421,0 -0.75,-0.33579 -0.75,-0.75z" fill="#7b280f" stroke="none" stroke-width="0.5"/><path d="M338.18836,247.10803c0,-0.41421 0.33579,-0.75 0.75,-0.75c0.41421,0 0.75,0.33579 0.75,0.75c0,0.41421 -0.33579,0.75 -0.75,0.75c-0.41421,0 -0.75,-0.33579 -0.75,-0.75z" fill="#7b280f" stroke="none" stroke-width="0.5"/><path d="M298.87274,264.70644c0,-0.41421 0.33579,-0.75 0.75,-0.75c0.41421,0 0.75,0.33579 0.75,0.75c0,0.41421 -0.33579,0.75 -0.75,0.75c-0.41421,0 -0.75,-0.33579 -0.75,-0.75z" fill="#973007" stroke="none" stroke-width="0.5"/><path d="M302.24265,260.02601c0,-0.41421 0.33579,-0.75 0.75,-0.75c0.41421,0 0.75,0.33579 0.75,0.75c0,0.41421 -0.33579,0.75 -0.75,0.75c-0.41421,0 -0.75,-0.33579 -0.75,-0.75z" fill="#973007" stroke="none" stroke-width="0.5"/><path d="M313.47569,260.7749c0,-0.41421 0.33579,-0.75 0.75,-0.75c0.41421,0 0.75,0.33579 0.75,0.75c0,0.41421 -0.33579,0.75 -0.75,0.75c-0.41421,0 -0.75,-0.33579 -0.75,-0.75z" fill="#973007" stroke="none" stroke-width="0.5"/><path d="M331.58485,263.02149c0,-0.41421 0.33579,-0.75 0.75,-0.75c0.41421,0 0.75,0.33579 0.75,0.75c0,0.41421 -0.33579,0.75 -0.75,0.75c-0.41421,0 -0.75,-0.33579 -0.75,-0.75z" fill="#973007" stroke="none" stroke-width="0.5"/></g><g stroke-linecap="butt"><path d="M360.92885,105.68546c0.07276,3.56124 -1.77574,6.48717 -4.12869,6.53524c-2.35295,0.04807 -4.3194,-2.79994 -4.39215,-6.36117c-0.07276,-3.56124 1.77573,-6.48717 4.12869,-6.53524c2.35295,-0.04807 4.3194,2.79994 4.39215,6.36117z" fill="#a93232" stroke="none" stroke-width="0"/><path d="M367.79788,114.8759c0.10783,5.27827 -3.92899,9.64142 -9.01647,9.74535c-5.08749,0.10393 -9.29914,-4.0907 -9.40697,-9.36898c-0.10783,-5.27827 3.92898,-9.64141 9.01649,-9.74534c5.08749,-0.10393 9.29913,4.0907 9.40696,9.36897z" fill="#a93232" stroke="none" stroke-width="0"/><path d="M371.8987,123.89248c0.07535,3.68843 -1.66792,6.71535 -3.8937,6.76083c-2.22578,0.04547 -4.09122,-2.90773 -4.16657,-6.59617c-0.07535,-3.68843 1.66792,-6.71535 3.8937,-6.76083c2.22578,-0.04547 4.09122,2.90773 4.16657,6.59617z" fill="#a93232" stroke="none" stroke-width="0"/><path d="M377.40009,133.80202c0.10263,5.0239 -3.21666,9.16608 -7.41385,9.25182c-4.19719,0.08574 -7.68287,-3.91742 -7.7855,-8.94132c-0.10263,-5.0239 3.21665,-9.16608 7.41384,-9.25182c4.19719,-0.08574 7.68288,3.91742 7.78551,8.94132z" fill="#a93232" stroke="none" stroke-width="0"/><path d="M381.09442,145.4764c0.08704,4.26077 -1.74985,7.75378 -4.10281,7.80184c-2.35295,0.04807 -4.33097,-3.36701 -4.41801,-7.62778c-0.08704,-4.26077 1.74985,-7.75379 4.1028,-7.80185c2.35295,-0.04807 4.33098,3.367 4.41802,7.62779z" fill="#a93232" stroke="none" stroke-width="0"/><path d="M357.58948,100.10914c0.03248,1.58985 -0.97224,2.89973 -2.24412,2.9257c-1.27188,0.02599 -2.32926,-1.24177 -2.36173,-2.83162c-0.03248,-1.58985 0.97224,-2.89974 2.24412,-2.92571c1.27188,-0.02599 2.32926,1.24178 2.36173,2.83163z" fill="#a93232" stroke="none" stroke-width="0"/><path d="M369.69433,117.48662c0.03897,1.90781 -0.75428,3.47125 -1.77177,3.49204c-1.01749,0.02078 -1.87394,-1.50895 -1.91291,-3.41677c-0.03897,-1.90781 0.75428,-3.47125 1.77177,-3.49204c1.01749,-0.02078 1.87394,1.50895 1.91291,3.41677z" fill="#a93232" stroke="none" stroke-width="0"/><path d="M258.5944,144.83221c-0.65008,-31.82176 26.3046,-58.17981 60.20494,-58.87236c13.56073,-0.27703 26.17871,3.59474 36.47988,10.37732c-0.53256,0.69406 -1.05898,1.39144 -1.40499,2.19719c-0.10324,0.2404 -0.75101,1.40152 -0.59391,1.61189c0.13416,0.17964 1.44238,-0.06084 1.6961,-0.06851c3.86065,-0.12034 -0.2039,3.5053 0.44916,5.44719c0.25616,0.76169 2.36023,0.84858 3.02493,0.99861c0.28324,0.06314 0.65209,-0.14046 0.869,0.05231c0.1486,0.13207 0.02686,2.02764 0.04099,2.32918c0.10918,2.33078 0.21836,4.66155 0.32755,6.99233c0.01703,0.36361 -0.10248,1.9658 0.18293,2.1846c1.04179,0.79866 4.43761,-1.87392 5.37412,-1.20371c0.25204,0.18037 0.43201,2.37694 0.51739,2.78111c0.72318,3.42355 1.46881,6.84328 2.16603,10.27221c0.07722,0.37979 0.17811,1.89815 0.49385,2.11034c0.68172,0.45814 3.00217,-1.63777 3.65256,-2.00037c0.38097,-0.21241 0.65213,-0.9577 1.05055,-0.78017c0.02724,0.01214 0.28322,2.51348 0.33485,2.78044c0.66414,3.43183 1.01141,7.1698 2.12281,10.48183c1.39279,-0.41311 1.70707,-2.16061 2.88588,-2.72302c0.22232,-0.10606 -0.06118,0.48969 -0.06658,0.73595c-0.01098,0.49987 -0.01939,0.99982 -0.02909,1.49971c-0.02585,1.33309 -0.05171,2.66616 -0.07756,3.99925c-0.01802,0.92934 -0.63114,4.49866 -0.03377,5.17008c0.41517,0.46664 1.48917,0.19897 2.5898,-0.24431c-3.86697,27.82189 -28.92,49.60653 -59.69829,50.2353c-33.90034,0.69255 -61.90902,-24.54267 -62.5591,-56.36443z" fill="#c8bfb0" stroke="#000000" stroke-width="0"/><path d="M258.5944,144.83221c-0.65008,-31.82176 26.3046,-58.17981 60.20494,-58.87236c13.56073,-0.27703 26.17871,3.59474 36.47988,10.37732c-0.53256,0.69406 -1.05898,1.39144 -1.40499,2.19719c-0.10324,0.2404 -0.75101,1.40152 -0.59391,1.61189c0.13416,0.17964 1.44238,-0.06084 1.6961,-0.06851c3.86065,-0.12034 -0.2039,3.5053 0.44916,5.44719c0.25616,0.76169 2.36023,0.84858 3.02493,0.99861c0.28324,0.06314 0.65209,-0.14046 0.869,0.05231c0.1486,0.13207 0.02686,2.02764 0.04099,2.32918c0.10918,2.33078 0.21836,4.66155 0.32755,6.99233c0.01703,0.36361 -0.10248,1.9658 0.18293,2.1846c1.04179,0.79866 4.43761,-1.87392 5.37412,-1.20371c0.25204,0.18037 0.43201,2.37694 0.51739,2.78111c0.72318,3.42355 1.46881,6.84328 2.16603,10.27221c0.07722,0.37979 0.17811,1.89815 0.49385,2.11034c0.68172,0.45814 3.00217,-1.63777 3.65256,-2.00037c0.38097,-0.21241 0.65213,-0.9577 1.05055,-0.78017c0.02724,0.01214 0.28322,2.51348 0.33485,2.78044c0.66414,3.43183 1.01141,7.1698 2.12281,10.48183c1.39279,-0.41311 1.70707,-2.16061 2.88588,-2.72302c0.22232,-0.10606 -0.06118,0.48969 -0.06658,0.73595c-0.01098,0.49987 0.01884,2.87159 0.00915,3.3715c-0.00096,0.04957 -119.7367,2.98184 -119.73958,2.93115c-0.03793,-0.66595 -0.06386,-1.33503 -0.07759,-2.00704z" fill="#9d958a" stroke="#000000" stroke-width="0"/><path d="M262.65591,123.03359c8.70188,-21.24967 30.42368,-36.54833 56.14345,-37.07376c13.56073,-0.27703 26.17871,3.59474 36.47988,10.37732c-0.53256,0.69406 -1.05898,1.39144 -1.40499,2.19719c-0.10324,0.2404 -0.75101,1.40152 -0.59391,1.61189c0.13416,0.17964 1.44238,-0.06084 1.6961,-0.06851c3.86065,-0.12034 -0.2039,3.5053 0.44916,5.44719c0.25616,0.76169 2.36023,0.84858 3.02493,0.99861c0.28324,0.06314 0.65209,-0.14046 0.869,0.05231c0.1486,0.13207 0.02686,2.02764 0.04099,2.32918c0.10918,2.33078 0.21836,4.66155 0.32755,6.99233c0.01703,0.36361 -0.10248,1.9658 0.18293,2.1846c1.04179,0.79866 4.43761,-1.87392 5.37412,-1.20371c0.25204,0.18037 0.43201,2.37694 0.51739,2.78111c0.04361,0.20643 0.73056,2.48884 0.73056,2.48884c0,0 -104.07488,1.46593 -103.83716,0.88539z" fill="#8e887d" stroke="#000000" stroke-width="0"/><path d="M342.91155,116.23469l0.05715,-0.06232c0.09817,-0.0015 0.19731,-0.0037 0.29732,-0.00651c0.94573,-0.15819 1.92089,-0.13707 2.864,-0.35356c-1.40354,-0.28195 -2.63861,-0.64899 -3.29245,-1.05212l0.17394,-0.08076c-0.42129,-0.07292 -0.81998,-0.13545 -1.18772,-0.18017c-0.50413,-0.0613 -2.86692,0.00473 -2.35257,-1.08644c0.13367,-0.28356 1.87731,-0.24187 2.18801,-0.26495c0.95655,-0.07103 1.90561,-0.15641 2.85282,-0.25674l-0.38167,-0.18118v0l0.49479,-0.26016c0.06996,-0.00143 0.14018,-0.00333 0.21066,-0.00559c0.35865,-0.09408 0.75353,-0.14903 1.16694,-0.17821c0.01143,-0.04701 0.0354,-0.0974 0.07309,-0.15136c-0.18835,-0.01197 -0.37024,-0.02353 -0.54365,-0.03397c-0.35101,0.02019 -0.70249,0.01898 -0.99558,-0.04504c-0.09354,-0.00159 -0.18004,-0.00174 -0.2587,-0.00015l-0.75492,-0.23468c0.22324,-0.07952 0.45421,-0.14916 0.69179,-0.21004l0.05298,-0.05518c0.06496,-0.00132 0.13033,-0.00297 0.19608,-0.00492c0.39079,-0.08866 0.79784,-0.15538 1.21653,-0.20467c1.69723,-0.56786 3.86296,-0.45629 5.5558,-0.24964l0.64524,0.24086c0.46962,0.01624 0.92695,0.02784 1.36582,0.02875c0.09464,-0.00196 0.18869,-0.00235 0.282,-0.00097c0.07786,-0.00072 0.15507,-0.00184 0.23161,-0.00338c0.18287,-0.00374 0.36574,-0.00747 0.54862,-0.01121c-0.40437,-0.21892 -1.93704,-0.25901 -2.29059,-0.30602c-2.2648,-0.30122 -5.03458,-0.32282 -7.09482,-1.34534l0.71265,-0.29191c0.33149,-0.05622 0.80057,-0.1683 1.32112,-0.28356c-0.20065,-0.03587 -0.39963,-0.08316 -0.59647,-0.14482l0.72389,-0.30844c0.34478,-0.03266 0.85421,-0.13702 1.39557,-0.23009c-2.57276,-0.19675 -5.42573,-0.37248 -7.54709,-1.42761l0.74177,-0.2472c0.33167,-0.0098 0.66327,-0.02261 0.9947,-0.03842c2.33069,-0.11111 4.66137,-0.22222 6.99206,-0.33331c0.0513,-0.00245 0.10578,-0.00676 0.16292,-0.01255c-1.69701,-0.14033 -3.45467,-0.34167 -4.83182,-1.09281l0.68694,-0.34432c0.09036,-0.01904 0.1987,-0.0399 0.32151,-0.06156c-0.00805,-0.00132 -0.01611,-0.00267 -0.02415,-0.00401c-0.07942,0.00054 -0.15749,0.00163 -0.23408,0.00336l-0.06039,-0.05764c-0.23808,-0.04808 -0.47043,-0.10579 -0.69509,-0.1756l0.74414,-0.26663c0.07492,-0.0017 0.15037,-0.00403 0.2263,-0.00695c0.35139,-0.1051 0.8121,-0.12208 1.30756,-0.09314c1.2501,-0.11967 2.56087,-0.30612 3.77206,-0.35074c-1.22553,-0.13101 -2.50672,-0.25192 -3.58561,-0.73227l0.74432,-0.24839c0.38032,-0.00802 0.82177,-0.04971 1.29342,-0.1005c-1.87147,-0.09275 -3.75074,-0.29169 -5.01539,-0.98585l0.66374,-0.22976c0.59595,-0.22009 2.37212,-0.69045 1.30047,-1.21094l0.07336,-0.03951c-0.3157,-0.34241 -0.22441,-0.91756 0.0632,-1.53332c-0.72911,0.10721 -1.39491,0.21511 -1.54215,0.23211l-0.76731,-0.12804c0.7509,-0.60038 1.57164,-0.88679 2.45422,-1.2539l0.1713,-0.01509c-0.07672,-0.04137 -0.12956,-0.12173 -0.13147,-0.21509c-0.00126,-0.06186 0.02006,-0.11892 0.05638,-0.16333l0.31305,-0.38787l0.08449,0.06819c0.3399,-0.34963 0.7417,-0.54932 1.2664,-0.84075l0.05251,-0.0456c-1.2976,0.2125 -2.70649,0.48457 -3.22642,0.49718c0,0 -0.24995,0.0051 -0.25505,-0.24484c-0.0051,-0.24995 0.24484,-0.25505 0.24484,-0.25505c1.56881,-0.02522 10.06791,-1.42814 4.74401,1.19051c-0.83622,0.32811 -1.50146,0.39045 -2.36914,0.41264c-0.16596,0.15953 -0.31605,0.32479 -0.43058,0.50765c0.89372,-0.11263 1.74273,-0.13287 1.94673,0.18387c0.0698,0.10838 0.03262,0.36087 -0.04938,0.65743c0.7921,0.14561 1.60727,0.22892 2.01582,0.28194l0.71349,0.30299c-0.92654,0.47745 -1.93225,0.55002 -2.94205,0.64744c-0.07818,0.02064 -0.16324,0.04483 -0.25258,0.07096c-0.02342,0.06239 -0.04205,0.11433 -0.054,0.15283c0,0 -0.0742,0.23873 -0.31293,0.16453c-0.10553,-0.0328 -0.1499,-0.09774 -0.16659,-0.16001c-0.28266,0.08095 -0.56067,0.15202 -0.76938,0.17199c0.02452,0.23698 -0.46045,0.58475 -0.98169,0.88135c2.231,-0.13708 5.70537,0.81651 7.30245,1.00503l0.72475,0.24031c-0.6761,0.46102 -1.64307,0.62793 -2.66653,0.67615c0.1624,0.03399 0.30843,0.06188 0.43214,0.07977l0.68984,0.32632c-0.61896,0.51297 -1.45277,0.77657 -2.36605,0.90697l0.46535,0.19523c-0.25365,0.08694 -0.51065,0.14907 -0.7701,0.19321l-0.0009,0.0007c-0.00069,-0.00006 -0.00139,-0.00013 -0.00206,-0.0002c-0.68302,0.11585 -1.38308,0.10728 -2.08426,0.09895c1.48946,0.23869 3.14049,0.68805 4.05686,0.80427l0.73545,0.22439c-2.50004,1.16344 -6.18849,0.86243 -9.13959,0.88389c0.15226,0.03679 0.29329,0.06879 0.41675,0.0899c2.13206,0.36473 4.28316,0.58765 6.43072,0.8442l0.71488,0.3019c-0.29017,0.13742 -0.58956,0.24331 -0.8954,0.3264l0.42627,0.11913c-1.1232,0.63203 -2.54147,0.73043 -3.8894,0.86356c0.25589,0.06388 0.50061,0.13169 0.7085,0.16993c1.45303,0.26718 5.97257,0.25034 6.93767,1.42955c0.04309,-0.00088 0.08617,-0.00176 0.12926,-0.00264c0.58097,-0.01186 1.58547,-0.20332 2.26311,-0.04623c0.0788,-0.00161 0.15757,-0.00321 0.23637,-0.00483l0.75495,0.23463c-0.22322,0.07951 -0.45415,0.14916 -0.6917,0.21002l-0.05304,0.05525c-0.06397,0.00131 -0.12796,0.00261 -0.19192,0.00392c-1.54165,0.35049 -3.3368,0.35904 -5.10146,0.30313c-0.49181,0.04138 -0.98385,0.08183 -1.4735,0.13468c-0.04494,0.01875 -0.09013,0.03708 -0.13557,0.055c0.57392,0.11927 1.19136,0.3159 1.67347,0.39343l0.69569,0.26239c-0.26402,0.30278 -0.6267,0.53312 -1.04723,0.71536l0.05046,0.02298c-0.85156,0.5323 -1.7925,0.7548 -2.76954,0.85346c0.86621,0.11502 1.77391,0.35975 2.3828,0.45672l0.70414,0.3381c-0.30477,0.10726 -0.63541,0.18417 -0.98629,0.23575c0.73494,0.12304 1.45697,0.2826 2.15216,0.50413c-0.13784,0.35329 -0.35944,0.63767 -0.6416,0.86833c1.01745,-0.00801 2.03495,-0.0123 3.05247,-0.01841c0.37765,-0.00226 1.80731,-0.23065 1.55611,0.71707c-0.10129,0.38212 -2.77751,0.50899 -3.17197,0.56275c-0.95394,0.13 -1.90786,0.26004 -2.8618,0.39008c1.32593,-0.02919 2.65206,-0.06898 3.9797,0.03774l0.72697,0.263c-1.13378,0.70706 -2.52596,1.05652 -3.95165,1.31981l0.65628,0.15512c-0.29028,0.17342 -0.57905,0.30665 -0.87256,0.42308c-0.12933,0.09402 -0.31109,0.14182 -0.47752,0.17649c-0.23587,0.08253 -0.47674,0.16242 -0.72565,0.25098c-0.23876,0.08495 -0.78114,0.25725 -1.06325,0.34331c0.65608,-0.09183 2.55865,0.4852 2.6641,1.11334c0.02862,0.1705 -0.0093,0.33043 -0.09491,0.47983c0.02008,0.04987 0.03476,0.1077 0.04346,0.17408c0.10671,0.04834 0.21047,0.09971 0.31105,0.15432l-0.3167,0.15371c-0.13774,0.49711 -1.30967,1.39663 -2.18015,2.04476c0.18012,0.02689 0.35923,0.05554 0.53703,0.08625c1.58123,-0.41513 3.67745,-0.57091 5.25714,-0.84849c0.26681,-0.06771 0.53195,-0.12347 0.7941,-0.16328c0.11604,-0.02844 0.22699,-0.05825 0.3322,-0.08968l0.07732,0.04078c0.24163,-0.02057 0.48005,-0.02543 0.71419,-0.01132l-0.64838,0.44963c-0.05738,0.01714 -0.11488,0.03434 -0.17248,0.05158c-0.72584,0.56819 -2.23796,1.00154 -3.55105,1.32704c0.07589,0.0309 0.15102,0.0627 0.22537,0.09542l-0.69412,0.34528c-0.11583,0.02213 -0.23166,0.04426 -0.34749,0.0664l-0.10874,0.07887c-0.14381,0.05618 -0.27176,0.09752 -0.39041,0.12601c-0.74663,0.83903 -1.34981,1.91407 -1.94722,2.93595c0.66065,-0.51869 1.49122,-0.9902 1.93291,-1.30758l0.76229,-0.09985c-0.25968,0.68833 -0.68226,1.05663 -1.19959,1.41341c1.64507,-0.55892 4.32166,-0.71261 5.58523,-0.90649l0.74813,0.20665c-0.71349,0.39993 -1.52101,0.66328 -2.36121,0.87303c0.28034,-0.0187 0.53459,-0.03955 0.7482,-0.06785l0.75584,0.09759c0.63059,-0.06093 1.23986,-0.11437 1.80681,-0.17238l0.75277,0.09966c-0.8117,1.08332 -2.32356,1.58254 -3.53902,2.17835c1.31091,-0.26395 5.29336,-0.18741 4.63447,0.95832c-0.20588,0.35799 -1.15013,0.67446 -2.12777,0.9332c0.7846,0.06363 1.53216,0.19024 2.21436,0.4105l-0.21602,0.1025c0.53811,0.02752 1.00083,0.04828 1.3357,0.04314l0.6966,0.36872c-0.79603,0.60821 -1.72639,1.04833 -2.67777,1.43757c0.15671,0.04089 0.31147,0.08502 0.46402,0.13271l-0.25806,0.22354c1.70657,-0.04093 3.6525,0.14028 3.86392,0.70697c0.45742,1.22605 -2.49056,1.64383 -3.12863,1.81481c-0.087,0.02331 -0.17401,0.04662 -0.261,0.06994c1.59507,-0.17427 3.19547,-0.36596 4.7934,-0.43844l0.75453,0.17167c-1.19568,0.95013 -2.77391,1.47865 -4.314,1.94796c1.46512,-0.02562 3.19477,0.17779 4.02945,0.1616l0.75171,0.20062c-1.78774,1.16299 -4.21216,1.77341 -6.53675,2.30276c0.8341,-0.01689 1.70355,-0.11294 2.51343,-0.02606c0.00277,-0.00039 0.00554,-0.0008 0.00831,-0.00119l0.00359,0.00248c0.26637,0.02919 0.52624,0.07834 0.77623,0.15679l-0.59071,0.27971c0.48892,0.02328 1.16742,0.07647 1.24442,0.25979c0.11245,0.26774 -0.86358,1.2525 -1.03052,1.45065c-0.20562,0.102 -0.42398,0.20172 -0.65113,0.30069c0.44095,-0.01637 0.94599,0.01045 1.10778,0.28784c0.15749,0.27002 -0.46935,0.64313 -0.32862,0.89405c0.10124,-0.0111 0.20148,-0.02261 0.30067,-0.03458c0.66187,-0.07989 1.32372,-0.15978 1.98559,-0.23967l0.20008,0.15457c0.2008,-0.02993 0.39482,-0.03412 0.57489,0.00744l-0.71505,0.3344c-0.27283,0.03293 -0.54566,0.06587 -0.81849,0.09879c-0.4608,0.10267 -0.98223,0.17462 -1.36708,0.16512c-1.64105,0.19992 -3.27886,0.42171 -4.91637,0.64736c0.61954,-0.00022 1.30959,0.13445 1.81514,0.16184c1.4988,0.08121 2.99815,0.15645 4.49706,0.23834c1.43076,-0.04606 2.82705,0.00976 4.08852,0.38304l-0.51677,0.23496c0.12485,0.05738 0.24966,0.11482 0.37447,0.17229l0.59934,0.44769c-1.13182,0.69342 -2.42469,1.2319 -3.76743,1.70011c0.40264,0.05183 0.79338,0.12616 1.16752,0.22905l-0.66629,0.40502c-1.77454,0.47282 -3.55549,0.81343 -5.3195,1.34377c-0.47883,0.14396 -0.95766,0.28791 -1.43649,0.43187c-0.05489,0.01651 -0.13009,0.03756 -0.21344,0.06123c0.53111,-0.04673 1.08943,-0.0285 1.48134,-0.03667c0.21841,-0.00454 0.43683,-0.00908 0.65524,-0.01361c2.74066,-0.35174 5.80734,-0.8769 8.28629,-0.33982l-0.24576,0.17283c1.11458,-0.02434 2.22921,-0.04812 3.34389,-0.06371l0.68781,0.39987c-2.06393,1.3317 -4.63194,1.80369 -6.90976,2.79809c-0.09455,0.0554 -0.18805,0.11177 -0.28076,0.16885c1.45093,-0.16343 3.58826,0.1434 4.60903,0.12324c0.34792,-0.00686 1.65014,-0.22004 1.68416,0.45104c0.00618,0.1218 -0.20005,0.29067 -0.49365,0.46946c0.49478,0.0182 0.97373,0.07006 1.42669,0.17005l-0.66757,0.3619c-0.63256,0.2061 -1.20122,0.43845 -1.79781,0.73309c-5.43007,2.68176 2.44748,0.70919 4.40836,0.96798l-0.61507,0.48141c-0.16055,0.06311 -0.32946,0.13639 -0.5046,0.21656c0.41565,-0.14982 0.83255,-0.28356 1.25322,-0.38671l-0.38157,0.66781c-0.00649,0.00508 -0.01298,0.01019 -0.01948,0.01532c0.02623,0.00109 0.05245,0.00219 0.07867,0.00329c0.22834,-0.12833 0.45846,-0.24856 0.69002,-0.35698l0.02463,0.38678c0.14333,0.00597 0.28666,0.01196 0.43,0.01793c-0.00916,-0.40067 0.34213,-1.02898 0.61716,-1.53981l0.40875,-0.62952c0.16696,0.53302 0.11771,1.5457 -0.14527,2.35073l0.2943,0.10799c-0.13405,0.03696 -0.2544,0.06414 -0.36213,0.08241c-0.11707,0.3019 -0.26723,0.56304 -0.45032,0.74154c-0.88386,0.86163 -1.40912,0.24125 -1.29615,-0.65184c-0.0221,-0.00092 -0.04421,-0.00185 -0.06632,-0.00276c-0.49925,0.52973 -1.36864,0.85092 -1.9303,1.22643l-0.71528,0.26139c0.08645,-0.43239 0.27418,-0.7749 0.52273,-1.0711c-0.8971,0.28424 -1.88586,0.4498 -2.45534,0.61152l-0.77267,-0.03849c0.36642,-0.54215 0.87206,-0.93629 1.44474,-1.24953c-0.21863,-0.02197 -0.43719,-0.04466 -0.65571,-0.06774c-0.98855,0.08552 -1.84897,0.06569 -2.16674,-0.1234c-0.06002,-0.03571 -0.11281,-0.07207 -0.15889,-0.10895c-0.48408,-0.0267 -1.2973,-0.08061 -1.37971,-0.27351c-0.2426,-0.56791 1.18176,-1.49134 2.13014,-2.03376c-2.17008,0.28074 -5.35377,0.62708 -6.00101,-0.48548c0.63122,-0.57834 1.26543,-1.06263 1.93472,-1.48124l0.00781,-0.00733c0.01271,-0.0071 0.02559,-0.0143 0.03864,-0.02158c0.31997,-0.19819 0.64808,-0.38159 0.98781,-0.55327c-0.83353,0.04377 -1.69591,-0.00726 -2.43992,0.01691c-0.34349,0.01116 -1.63407,0.22881 -1.66317,-0.44315c-0.03223,-0.74425 2.11927,-1.31893 3.26246,-1.58976c-2.10018,0.14337 -4.28361,0.35286 -6.33506,0.27437c-0.25284,0.0261 -0.52761,0.03633 -0.71707,-0.04015c-0.27286,-0.02044 -0.54285,-0.04689 -0.80943,-0.08025l0.43208,-0.62244c0.59044,-0.53268 1.01976,-0.78818 1.76955,-1.0531c0.54487,-0.19252 1.08974,-0.38503 1.63461,-0.57755c-1.11441,-0.0635 -2.12935,-0.14717 -2.71369,-0.13532l-0.7518,-0.20012c0.78504,-0.51316 1.70428,-0.85656 2.67542,-1.12095c-1.09042,-0.01492 -2.07086,-0.06194 -2.65236,-0.04811l-0.7358,-0.17553c0.80657,-0.70684 2.21527,-1.07194 3.77573,-1.27889c-0.73113,-0.01035 -1.4616,-0.04006 -2.19096,-0.10173c-1.49466,-0.12638 -2.98934,-0.25275 -4.484,-0.37912l-0.72707,-0.28464c1.31961,-0.59875 2.91875,-0.90301 4.56476,-1.09426c0.56981,-0.42551 1.25471,-0.78498 1.96603,-1.10954c-0.86184,-0.01738 -1.71743,-0.07073 -2.59299,-0.20999c-0.98758,-0.15707 -1.97517,-0.31413 -2.96277,-0.4712l-0.70411,-0.31088c0.62594,-0.36862 1.30838,-0.65095 2.02462,-0.87316c-0.17948,-0.0357 -0.35461,-0.07978 -0.52445,-0.13345l0.6644,-0.40252c0.32148,-0.08812 0.64296,-0.17624 0.96443,-0.26436c0.42749,-0.11718 0.85481,-0.23448 1.28187,-0.35229c-0.20852,-0.13322 -0.31827,-0.29157 -0.28445,-0.47571c0.08659,-0.47146 0.63811,-0.80385 1.32982,-1.04595c-0.68265,-0.01787 -1.38313,-0.06221 -2.01997,-0.10447c-0.55017,0.03025 -1.05969,0.0249 -1.46319,-0.04543c-0.81726,-0.0217 -1.52356,-0.04352 -1.95588,-0.01949l-0.75891,-0.21667c1.12442,-0.54158 2.51606,-0.7832 3.91176,-0.94133c-1.08541,-0.1342 -2.15092,-0.34957 -2.83692,-0.41779c-0.32407,-0.03223 -2.0687,-0.03124 -2.1976,-0.35395c-0.21448,-0.53696 0.99194,-1.1353 1.29579,-1.22943c1.5876,-0.46048 3.2085,-0.8475 4.75799,-1.41315c-0.23493,-0.03964 -0.46618,-0.09192 -0.69244,-0.15994l0.29745,-0.22492c-2.01387,-0.10201 -4.51542,-0.64785 -5.71838,-0.73235l-0.73794,-0.23431c0.80046,-0.43354 1.72209,-0.72432 2.69757,-0.93235l0.15506,-0.12637c0.1397,-0.05906 0.28051,-0.11521 0.42218,-0.16917c-1.21548,0.02441 -2.43094,0.04913 -3.64641,0.0739l-0.75389,-0.21636c0.68039,-0.34303 1.44452,-0.5738 2.24928,-0.73578c-1.18066,0.02412 -2.36133,0.04824 -3.542,0.07236c-0.16663,0.00341 -0.33326,0.00681 -0.49989,0.01022l-0.7542,-0.21967c1.10837,-0.52742 2.43947,-0.80971 3.82107,-0.9925c-1.38614,0.02677 -2.77223,0.05475 -4.15835,0.08289c-0.66653,0.01353 -1.33305,0.02705 -1.99959,0.04059l-0.7334,-0.13823c0.1895,-0.31063 1.67874,-1.69187 1.6908,-1.9357c0.03464,-0.70048 -2.42962,-2.02987 -2.1175,-2.85103c0.20298,-0.53399 3.53793,-0.79706 4.11568,-0.90745c1.00468,-0.19197 2.00938,-0.38394 3.01406,-0.57591l0.24023,-0.22438c-0.00247,-0.00053 -0.00494,-0.00106 -0.00741,-0.00159c-0.88241,0.11739 -1.76533,0.16691 -2.63863,0.11407l0.20541,-0.50776c-1.60151,-0.22851 -3.20303,-0.45704 -4.80454,-0.68555l-0.70958,-0.31159c2.01097,-1.01156 4.68937,-1.28204 7.0714,-1.6414c0.02306,-0.01605 0.04621,-0.03198 0.06943,-0.04778c-0.38267,-0.04243 -0.75128,-0.09203 -1.0379,-0.10072c-2.33226,-0.0707 -4.66452,-0.1414 -6.99679,-0.2121c-0.16658,-0.00505 -0.33318,-0.0101 -0.49977,-0.01515l-0.74082,-0.23886c1.90217,-1.09339 4.43276,-1.54173 6.83951,-1.91557c-0.20843,-0.03606 -0.41461,-0.08755 -0.61785,-0.15768l0.66558,-0.39822c0.43627,-0.11859 1.08163,-0.32942 1.82064,-0.56233c-1.65899,-0.18924 -3.71022,-0.08005 -5.02119,-0.22173l-0.72734,-0.2649c0.48361,-0.24579 1.00749,-0.44587 1.55929,-0.61081c-0.17793,-0.04923 -0.35374,-0.10409 -0.52721,-0.16517l0.68228,-0.37375c0.25349,-0.05665 0.52236,-0.11371 0.80232,-0.16929l0.64946,-0.41838c0.48742,-0.08177 1.02586,-0.14134 1.57915,-0.20543c-0.15014,0.003 -0.30027,0.00602 -0.45041,0.00902l-0.74631,-0.17481c0.36763,-0.34696 0.72228,-0.55635 1.09106,-0.6907c-0.00376,-0.0002 -0.00753,-0.00038 -0.01128,-0.00057c-1.32937,-0.06425 -2.67194,-0.0215 -4.00919,0.01696c-0.38869,0.04393 -0.76653,0.06126 -1.07619,0.02791c-0.13265,0.0028 -0.26519,0.00526 -0.39761,0.00727l-0.73942,-0.23814c0.22212,-0.08409 0.44731,-0.1486 0.67469,-0.19948zM347.10959,100.04224c0.30166,-0.07845 0.7579,-0.19367 1.26688,-0.29981c0.0509,-0.12591 0.10451,-0.25934 0.15504,-0.3885c-0.61531,-0.14664 -1.18424,-0.32325 -1.51429,-0.52394c-0.04563,0.31058 -0.1222,1.00064 0.0294,1.24617zM351.66046,117.42646c-0.19507,0.07596 -0.40088,0.14105 -0.61413,0.19744c0.2581,0.01132 0.5066,0.03244 0.74216,0.06485l-0.36605,0.24546c0.87906,-0.07137 1.72953,-0.14379 2.51281,-0.25054c0.53105,-0.07237 1.1395,-0.22417 1.72542,-0.28421c-0.01377,-0.0002 -0.0268,-0.00026 -0.03902,-0.0002c-0.49999,0.003 -0.99999,0.00599 -1.49996,0.009c-0.82052,0.00492 -1.64087,0.00985 -2.4612,0.01821zM360.90908,146.97239c-0.72945,0.30032 -1.47369,0.61848 -2.13004,0.9945c1.31926,-0.12045 2.6366,-0.19385 3.83423,-0.31208c0.10746,-0.22597 0.35155,-0.48184 0.25818,-0.69128c-0.03862,-0.08664 -1.16882,0.0019 -1.25955,0.00279c-0.23593,0.00227 -0.47006,0.00462 -0.70285,0.00608zM370.30195,159.37755c-0.2291,0.10469 -0.41068,0.18598 -0.48957,0.22746c-0.59828,0.31458 -1.10573,0.6399 -1.64133,1.05224c-0.32475,0.25001 -1.32287,0.4749 -0.99554,0.72153c0.05098,0.03841 0.33522,0.05004 0.66516,0.05277c-0.03411,-0.52044 0.7843,-1.04456 1.21946,-1.2618c0.44733,-0.22333 0.89663,-0.44282 1.34493,-0.66422c0.10729,-0.05298 0.2138,-0.10403 0.32,-0.15332c-0.12415,0.00342 -0.24151,0.00833 -0.34756,0.01808c-0.02448,0.00225 -0.04967,0.00467 -0.07554,0.00726zM351.31099,131.39543c-0.29193,-0.02385 -0.57354,-0.07218 -0.84045,-0.15205l0.47237,-0.31408c-0.31643,0.00989 -0.6314,0.0016 -0.94425,-0.02959c-0.43554,0.30713 -0.8883,0.58017 -1.37472,0.77901l0.22985,-0.73997c0.5849,-0.90676 1.37451,-2.71484 2.33922,-3.69594c-0.0103,-0.00153 -0.02063,-0.00315 -0.031,-0.00484c-1.12055,0.21411 -2.24109,0.42823 -3.36164,0.64232c-0.37815,0.07226 -3.70343,0.49212 -3.74215,0.59398c-0.15309,0.40276 0.6162,0.60632 0.87886,0.94788c0.89377,1.16232 1.55667,2.57147 -0.03211,3.29621c0.61181,-0.01241 1.22362,-0.02484 1.83543,-0.03725c2.59159,-0.0526 5.86492,-0.59331 8.61575,-0.27821l0.20966,-0.31817c0.67001,-0.34402 1.53293,-0.94797 2.36023,-1.30925c-0.7427,0.09105 -1.47657,0.20079 -2.20841,0.32477c-1.45621,0.59476 -3.48564,0.70466 -4.82326,0.9863l-0.7838,-0.15108c0.3722,-0.20681 0.77519,-0.3852 1.20043,-0.54005zM349.14815,124.28688c-1.13028,0.22211 -2.26058,0.44423 -3.39086,0.66633c-0.23255,0.0457 -0.51027,0.1287 -0.79825,0.20208c1.33006,0.13887 2.76644,0.23123 4.1677,0.40609c0.67404,-0.51432 1.51357,-1.08615 2.06587,-1.67626c-0.05939,0.01168 -0.11878,0.02334 -0.17817,0.03501c-0.55837,0.29422 -1.18484,0.50876 -1.48019,0.64462l-0.77491,0.10738c0.05904,-0.07666 0.19871,-0.21635 0.38883,-0.38525zM347.76537,98.6689c0.26118,0.10544 0.58065,0.19463 0.92093,0.27036c0.0554,-0.16069 0.08716,-0.27788 0.07354,-0.30718c-0.02705,-0.05825 -0.44573,-0.02844 -0.99446,0.03681zM344.20636,114.27629c0.94757,-0.21075 2.31802,-0.4551 3.62616,-0.60254c-1.04594,-0.00575 -2.08529,-0.0435 -3.07306,-0.35518l0.18311,-0.13467c-1.76853,0.04793 -3.61597,0.06291 -5.04729,0.49382c-0.16605,0.04999 0.32703,0.13006 0.49987,0.14409c0.49655,0.04031 0.99444,0.12094 1.48903,0.18108c0.77369,0.09409 1.54782,0.1847 2.32219,0.2734zM348.29791,112.97033c0.88103,0.07583 1.75353,0.20763 2.35276,0.30815c0.34219,-0.06595 0.68452,-0.1223 1.02554,-0.1665c-0.55368,-0.08448 -1.0465,-0.15233 -1.51559,-0.30212l-0.02635,0.02746c-0.53426,0.01091 -1.16898,0.0738 -1.83633,0.13303zM350.87539,116.36988c0.11589,0.03482 0.23026,0.07246 0.34293,0.11309l-0.71909,0.31175c-0.26431,0.02948 -0.56877,0.09335 -0.88353,0.16159c0.63072,-0.01263 1.26145,-0.02177 1.89222,-0.02876c0.47481,-0.16296 0.90203,-0.37578 1.24854,-0.66295c-0.46171,0.09277 -1.11871,0.1243 -1.88108,0.10525zM348.90017,121.40164c-1.608,0.32001 -3.21225,0.65182 -4.80653,1.04212c-0.22943,0.05616 -0.5168,0.15449 -0.82399,0.25242c2.42574,-0.04869 5.54687,-0.34416 7.83254,0.28176c0.16699,-0.06408 0.32179,-0.10241 0.45537,-0.10485c0.02018,-0.04841 0.02932,-0.09703 0.02559,-0.14564c-0.04529,-0.5902 -2.65716,-0.50292 -2.7581,-1.05359c-0.01679,-0.09163 0.01155,-0.18293 0.07513,-0.27222zM356.88228,132.77499l-0.59875,0.28462c-0.90819,0.12826 -1.81638,0.25651 -2.72456,0.38477c1.62986,-0.08667 3.24102,-0.06947 4.60907,0.28381c0.22414,-0.07396 0.44827,-0.14793 0.67241,-0.22188c0.11978,-0.03952 1.5145,-0.43752 1.31528,-0.57848c-0.5595,-0.39585 -2.00619,-0.23596 -3.27346,-0.15284zM358.7099,137.78972c-1.83443,0.77899 -3.798,1.23238 -5.71717,1.78904c-0.104,0.02747 -0.99359,0.50657 -0.97075,0.56374c0.2205,0.55201 1.19126,-0.01695 1.78276,0.04188c0.91668,0.09116 1.87961,0.10527 2.84435,0.12553l0.56577,-0.29468c1.12194,-0.30168 2.24431,-0.6018 3.36652,-0.9025c0.33389,-0.08947 3.0024,-0.58664 2.78958,-1.15707c-0.034,-0.09114 -1.52132,-0.24912 -1.70303,-0.24581c-0.95553,0.01736 -1.97069,0.11355 -2.95806,0.07989zM364.08131,142.0873c-0.64453,0.04084 -1.30388,0.08505 -1.95834,0.10221l-0.1265,0.07067c-0.89717,0.20284 -2.04235,0.27418 -2.87978,0.64618c-0.15818,0.07027 -1.28269,0.78759 -0.99041,0.89062c0.03858,0.0136 0.07748,0.02642 0.11667,0.03848c1.68269,-0.46583 3.36131,-0.9416 5.03258,-1.45121c0.22531,-0.0687 0.50566,-0.18239 0.80578,-0.29695zM357.25846,145.22743c-0.21249,0.04897 -0.42302,0.10237 -0.6311,0.16101c-0.42815,0.12066 -1.03873,0.38762 -1.61362,0.53182c0.71793,0.11418 1.43587,0.22836 2.1538,0.34254c1.23529,0.19646 2.42927,0.21718 3.66002,0.21021c0.60511,-0.25094 1.19528,-0.48874 1.71659,-0.7323c0.25713,-0.32013 1.03729,-0.48516 0.87829,-0.86375c-0.29003,-0.69053 -1.49918,-0.03361 -2.24686,0.01015c-1.19287,0.06981 -2.5889,0.30602 -3.91711,0.34031zM356.92454,148.92973c-0.17246,0.02385 -0.34493,0.04768 -0.51741,0.07149c-0.1722,0.02377 -0.37862,0.06727 -0.60201,0.11494c0.53886,0.04557 1.07774,0.09112 1.6166,0.13669c-0.2103,-0.04074 -0.41854,-0.0852 -0.62445,-0.13382zM368.18055,150.35141c-0.30048,-0.13835 -0.60092,-0.27671 -0.90063,-0.41667c-0.12088,0.01459 -0.24178,0.02918 -0.36266,0.04377c-0.45231,0.05458 -0.95076,0.14027 -1.4795,0.24205c0.25785,0.01543 0.51108,0.04053 0.75869,0.07702l-0.64933,0.44039c-0.17539,0.05334 -0.38961,0.12474 -0.63367,0.20853c-0.11251,0.0453 -0.23252,0.08668 -0.35906,0.12442c-0.83578,0.29144 -1.91785,0.67661 -2.98009,0.9877c0.6524,-0.04155 1.30907,-0.07279 1.9539,-0.07273c0.7977,-0.28184 1.59539,-0.56369 2.39309,-0.84553c0.62973,-0.22249 1.5247,-0.7213 2.25928,-0.78898zM364.92059,158.25109c-0.50172,0.32493 -1.01069,0.64378 -1.57603,0.91194c0.32947,0.37163 1.97666,0.01414 2.50438,-0.01616c1.37643,-0.07905 2.95515,-0.34907 4.47446,-0.4375c0.31258,-0.19131 0.6479,-0.37716 0.95152,-0.45592c-0.113,0.0017 -0.22231,0.00296 -0.29052,0.00487c-0.66632,0.0186 -1.33316,0.02633 -1.99961,0.03948c-1.32747,0.02621 -2.74001,0.1628 -4.06421,-0.04671zM367.01079,156.39733c1.25468,-0.6331 2.71672,-1.29056 3.92338,-1.59038c-1.10882,0.02491 -2.21786,0.04368 -3.3267,0.0659c-0.63623,0.15593 -1.2725,0.31167 -1.90874,0.46753c-0.48563,0.11897 -0.97098,0.23922 -1.45693,0.35689c-4.46538,1.08121 0.79823,0.47986 2.76899,0.70007zM359.64739,141.29555c0.12239,0.00497 0.24388,0.01182 0.3643,0.02071c0.82516,-0.33614 2.07756,-0.95038 3.22127,-1.37846c-1.25258,0.17992 -2.55228,0.41971 -3.81351,0.52419c0.36742,0.04378 0.72835,0.10121 1.08,0.17748l-0.55007,0.60087c-0.08942,0.01419 -0.19063,0.03287 -0.30201,0.0552zM353.07904,136.14047c1.8467,0.05425 3.82044,0.04513 5.61943,0.3498c0.75251,-0.3927 1.61056,-0.843 2.3444,-1.05634c-2.10369,0.11591 -4.46578,0.49086 -6.58971,0.44406c-0.31869,0.05136 -0.63682,0.10502 -0.95421,0.16165c-0.12991,0.02318 -0.27157,0.05966 -0.41991,0.10085zM346.07855,119.34618c1.31167,0.14153 2.62334,0.2832 3.93502,0.42477c0.80015,-0.24793 1.67743,-0.50516 2.5026,-0.69316c-1.79921,0.06324 -3.66846,0.22313 -5.41939,0.04244c-0.00997,0.00136 -0.01995,0.00271 -0.02991,0.00407c-0.27399,0.03731 -0.62319,0.13324 -0.98831,0.22186zM361.67938,153.23442c0.366,-0.09341 0.73232,-0.18364 1.09885,-0.27274c-0.06398,-0.00051 -0.12822,-0.00127 -0.19264,-0.00227c-0.3037,0.09204 -0.60618,0.1834 -0.9062,0.27503zM349.46832,99.55126c-0.15322,-0.02875 -0.30958,-0.05955 -0.46606,-0.09231c-0.02042,0.05859 -0.0414,0.11711 -0.06255,0.17492c0.17566,-0.03084 0.35307,-0.05892 0.52861,-0.0826zM356.14994,134.31646c0.08591,-0.0028 0.17171,-0.00523 0.25736,-0.00726c0.02515,-0.00829 0.05031,-0.0166 0.07546,-0.0249c-0.1109,0.01075 -0.22185,0.02145 -0.33282,0.03215zM375.8405,162.46139c-0.09522,-0.00397 -0.19044,-0.00794 -0.28566,-0.01191c-0.15059,0.70451 0.01759,0.50675 0.28566,0.01191zM348.25395,97.15678c0.53465,-0.03665 1.01167,-0.12103 1.58474,-0.3453c2.25683,-1.11254 1.1151,-1.09304 -0.61212,-0.83881c0.00297,0.01459 0.00467,0.02963 0.00498,0.04503c0.00086,0.04198 -0.00868,0.08175 -0.02626,0.11686l-0.21227,0.44715l-0.15261,-0.07245c-0.16262,0.2415 -0.37011,0.4501 -0.58647,0.64753zM347.76233,97.11283c-0.0476,0.02405 -0.09572,0.04742 -0.14453,0.06997c0.02803,-0.00064 0.0558,-0.00132 0.08333,-0.00204c0.02039,-0.02292 0.04081,-0.04556 0.0612,-0.06795z" fill="#a93232" stroke="none" stroke-width="0.5"/><path d="M255.37154,145.71819c-0.68017,-33.2949 27.52233,-60.87316 62.99205,-61.59777c11.76424,-0.24033 22.85035,2.50355 32.43888,7.49332c-0.2675,0.29432 -0.52143,0.60207 -0.75776,0.92711c-1.15034,1.59233 -1.72266,3.54858 -0.79851,5.39671c0.38933,0.7786 1.35806,1.02804 1.78584,1.73926c0.27366,0.45498 -0.69473,1.57842 -0.9498,1.93874c-0.40284,0.56969 -1.48206,1.57766 -1.16963,2.33756c0.23535,0.57245 1.63777,0.91607 1.40613,1.65194c-0.21185,0.67299 -1.5263,1.45024 -1.32597,2.22476c0.23823,0.92107 0.16519,1.02044 -0.45905,2.26475c-1.37317,2.46551 -3.31436,8.00274 0.1377,9.66355c1.03349,0.48873 2.40748,0.43521 3.29818,0.84025c0.3705,0.16847 -0.05427,1.39533 -0.10393,1.64543c-0.33334,1.67904 -0.4523,3.311 -0.42224,5.02012c0.05756,2.19406 2.28968,2.90991 2.83047,4.59806c0.27108,0.84621 -1.02951,2.19759 -1.4738,2.88189l-0.01459,0.0055c0.00108,0.00404 0.00217,0.00807 0.00325,0.01211c-0.00375,0.00589 -0.00744,0.01172 -0.01106,0.01749l0.02456,0.03267c0.00335,0.01242 0.00668,0.02485 0.01003,0.03726l-0.04539,-0.00062l-0.00046,0.03295l-0.01559,0.00032l0.00941,0.46058c0.00162,0.07926 0.03996,0.14915 0.09843,0.19376c-0.13917,0.43746 0.19073,0.59153 0.66629,0.57821c-0.01874,0.03597 -0.02897,0.07703 -0.02808,0.12043c0.0028,0.13713 0.1155,0.24622 0.25232,0.24489l0.49959,-0.00393l-0.00145,-0.18373c0.88983,-0.05819 2.2122,-0.22208 2.2948,-0.15295c0.1099,0.09198 -0.16598,1.49482 -0.23116,1.67197c-0.63545,1.72694 -0.6907,3.08187 -0.62682,4.94531c0.18374,0.31607 0.73975,1.03824 1.04106,1.21581c0.1333,0.07855 1.32623,-0.06692 1.35236,-0.03717c0.06212,0.07073 -1.40097,4.68336 1.48292,8.08683c1.02603,1.21088 2.25012,4.05897 3.66779,4.31637c1.54886,0.28123 4.64048,-0.3291 4.64048,-0.3291c0,0 0.27644,5.84416 2.26933,6.57091c2.08467,0.76022 7.33427,0.46582 7.33427,0.46582c0,0 -4.70254,13.53813 -6.20294,16.63974c-6.2763,11.03755 -17.27766,24.70365 -50.44272,25.00667c-35.47564,0.32413 -64.77501,-25.67884 -65.45519,-58.97374z" fill="#9c4209" stroke="#000000" stroke-width="0"/><path d="M255.37154,145.71819c-0.68017,-33.2949 27.52233,-60.87316 62.99205,-61.59777c11.76424,-0.24033 22.85035,2.50355 32.43888,7.49332c-0.2675,0.29432 -0.52143,0.60207 -0.75776,0.92711c-1.15034,1.59233 -1.72266,3.54858 -0.79851,5.39671c0.38933,0.7786 1.35806,1.02804 1.78584,1.73926c0.27366,0.45498 -0.69473,1.57842 -0.9498,1.93874c-0.40284,0.56969 -1.48206,1.57766 -1.16963,2.33756c0.23535,0.57245 1.63777,0.91607 1.40613,1.65194c-0.21185,0.67299 -1.5263,1.45024 -1.32597,2.22476c0.23823,0.92107 0.16519,1.02044 -0.45905,2.26475c-1.37317,2.46551 -3.31436,8.00274 0.1377,9.66355c1.03349,0.48873 2.40748,0.43521 3.29818,0.84025c0.3705,0.16847 -0.05427,1.39533 -0.10393,1.64543c-0.33334,1.67904 -0.4523,3.311 -0.42224,5.02012c0.05756,2.19406 2.28968,2.90991 2.83047,4.59806c0.27108,0.84621 -1.02951,2.19759 -1.4738,2.88189l-0.01459,0.0055c0.00108,0.00404 0.00217,0.00807 0.00325,0.01211c-0.00375,0.00589 -0.00744,0.01172 -0.01106,0.01749l0.02456,0.03267c0.00335,0.01242 0.00668,0.02485 0.01003,0.03726l-0.04539,-0.00062l-0.00046,0.03295l-0.01559,0.00032l0.00941,0.46058c0.00162,0.07926 0.03996,0.14915 0.09843,0.19376c-0.13917,0.43746 0.19073,0.59153 0.66629,0.57821c-0.01874,0.03597 -0.02897,0.07703 -0.02808,0.12043c0.0028,0.13713 0.1155,0.24622 0.25232,0.24489l0.49959,-0.00393l-0.00145,-0.18373c0.88983,-0.05819 2.2122,-0.22208 2.2948,-0.15295c0.1099,0.09198 -0.16598,1.49482 -0.23116,1.67197c-0.63545,1.72694 -0.6907,3.08187 -0.62682,4.94531c0.18374,0.31607 0.73975,1.03824 1.04106,1.21581c0.1333,0.07855 1.32623,-0.06692 1.35236,-0.03717c0.06212,0.07074 -1.40097,4.68336 1.48292,8.08683c1.02603,1.21088 2.25011,4.05896 3.66779,4.31637c1.54886,0.28123 4.64048,-0.32911 4.64048,-0.32911c0,0 0.14605,3.08775 0.9912,5.05353c0.20846,0.48489 -110.42332,1.9523 -110.42852,1.93713c-1.87198,-5.44492 -2.93657,-11.24319 -3.05993,-17.28128z" fill="#973007" stroke="#000000" stroke-width="0"/><path d="M255.37154,145.71819c-0.05033,-2.46341 0.05747,-4.89553 0.3146,-7.28781c3.21828,-29.94099 29.83206,-53.63897 62.67745,-54.30996c11.76424,-0.24033 22.85035,2.50355 32.43888,7.49332c-0.2675,0.29432 -0.52143,0.60207 -0.75776,0.92711c-1.15034,1.59233 -1.72266,3.54858 -0.79851,5.39671c0.38933,0.7786 1.35806,1.02804 1.78584,1.73926c0.27366,0.45498 -0.69473,1.57842 -0.9498,1.93874c-0.40284,0.56969 -1.48206,1.57766 -1.16963,2.33756c0.23535,0.57245 1.63777,0.91607 1.40613,1.65194c-0.21185,0.67299 -1.5263,1.45024 -1.32597,2.22476c0.23823,0.92107 0.16519,1.02044 -0.45905,2.26475c-1.37317,2.46551 -3.31436,8.00274 0.1377,9.66355c1.03349,0.48873 2.40748,0.43521 3.29818,0.84025c0.3705,0.16847 -0.05427,1.39533 -0.10393,1.64543c-0.33334,1.67904 -0.4523,3.311 -0.42224,5.02012c0.05756,2.19406 2.28968,2.90991 2.83047,4.59806c0.27108,0.84621 -1.02951,2.19759 -1.4738,2.88189l-0.01459,0.0055c0.00108,0.00404 0.00217,0.00807 0.00325,0.01211c-0.00375,0.00589 -0.00744,0.01172 -0.01106,0.01749l0.02456,0.03267c0.00335,0.01242 0.00668,0.02485 0.01003,0.03726l-0.04539,-0.00062l-0.00046,0.03295l-0.01559,0.00032l0.00941,0.46058c0.00162,0.07926 0.03996,0.14915 0.09843,0.19376c-0.13917,0.43746 0.19073,0.59153 0.66629,0.57821c-0.01874,0.03597 -0.02897,0.07703 -0.02808,0.12043c0.0028,0.13713 0.1155,0.24622 0.25232,0.24489l0.49959,-0.00393l-0.00145,-0.18373c0.88983,-0.05819 2.2122,-0.22208 2.2948,-0.15295c0.1099,0.09198 -0.16598,1.49482 -0.23116,1.67197c-0.63545,1.72694 -0.6907,3.08187 -0.62682,4.94531c0.18374,0.31607 0.73975,1.03824 1.04106,1.21581c0.1333,0.07855 1.32623,-0.06692 1.35236,-0.03717c0.15823,0.18015 -102.70602,1.78469 -102.70605,1.78348z" fill="#7b280f" stroke="#000000" stroke-width="0"/><path d="M260.2754,121.37596c9.50526,-21.43197 31.80096,-36.7185 58.08819,-37.25553c11.76424,-0.24033 22.85035,2.50355 32.43888,7.49332c-0.2675,0.29432 -0.52143,0.60207 -0.75776,0.92711c-1.15034,1.59233 -1.72266,3.54858 -0.79851,5.39671c0.38933,0.7786 1.35806,1.02804 1.78584,1.73926c0.27366,0.45498 -0.69473,1.57842 -0.9498,1.93874c-0.40284,0.56969 -1.48206,1.57766 -1.16963,2.33756c0.23535,0.57245 1.63777,0.91607 1.40613,1.65194c-0.21185,0.67299 -1.5263,1.45024 -1.32597,2.22476c0.23823,0.92107 0.16519,1.02044 -0.45905,2.26475c-1.37317,2.46551 -3.31436,8.00274 0.1377,9.66355c1.03349,0.48873 2.40748,0.43521 3.29818,0.84025c0.02174,0.00989 -91.74428,0.89057 -91.69417,0.77756z" fill="#671d06" stroke="#000000" stroke-width="0"/><path d="M269.00143,145.71546c-0.26487,-12.96531 10.03087,-23.69047 22.99618,-23.95533c12.96531,-0.26487 23.69047,10.03086 23.95533,22.99617c0.26487,12.96531 -10.03086,23.69048 -22.99617,23.95534c-12.96531,0.26487 -23.69048,-10.03087 -23.95534,-22.99618z" fill="url(#color-1)" stroke="#000000" stroke-width="0"/><path d="M259.76714,122.09361c-0.01974,-0.9663 0.74759,-1.76564 1.71389,-1.78538c0.9663,-0.01974 1.76564,0.74759 1.78538,1.71389c0.01974,0.9663 -0.74759,1.76564 -1.71389,1.78538c-0.9663,0.01974 -1.76564,-0.74759 -1.78538,-1.71389z" fill="#671d06" stroke="none" stroke-width="0.5"/><path d="M269.10646,123.96263c-0.00261,-0.12764 0.01401,-0.25117 0.04719,-0.36789c-0.01052,-0.00254 -0.02099,-0.00517 -0.03143,-0.00789c-0.2602,0.07132 -0.45694,0.07534 -0.45694,0.07534c-0.62393,0.01274 -1.43503,0.02931 -2.05896,0.04206c0,0 -0.3616,0.00738 -0.75938,-0.14894c-0.22296,0.11007 -0.47301,0.17412 -0.73804,0.17953c-0.9663,0.01974 -1.76564,-0.74759 -1.78538,-1.71389c-0.01974,-0.9663 0.74759,-1.76564 1.71389,-1.78538c0.26503,-0.00542 0.51749,0.04838 0.74475,0.14924c0.39107,-0.17245 0.75266,-0.17983 0.75266,-0.17983c0.62393,-0.01274 1.24785,-0.02549 1.87178,-0.03824l0.18718,-0.00383c0,0 0.19675,-0.00402 0.45965,0.05661c0.15093,-0.04609 0.31066,-0.07235 0.47624,-0.07573c0.9663,-0.01974 1.76564,0.74759 1.78538,1.71389c0.00769,0.37632 -0.104,0.7273 -0.30031,1.01679c0.3475,0.21581 0.58221,0.59765 0.59118,1.03709c0.0141,0.69022 -0.53399,1.26117 -1.22421,1.27527c-0.69022,0.0141 -1.26117,-0.53399 -1.27527,-1.22421z" fill="#671d06" stroke="none" stroke-width="0.5"/><path d="M281.30097,121.84094c0.0141,0.69022 -0.53399,1.26117 -1.22421,1.27527c-0.47982,0.0098 -0.90201,-0.25209 -1.11954,-0.64455c-0.12529,0.03134 -0.25602,0.04922 -0.39061,0.05197c-0.0462,0.00095 -0.09202,0.00009 -0.13738,-0.0025c-0.23691,0.12793 -0.50698,0.20292 -0.79469,0.20879c-0.9663,0.01974 -1.76564,-0.74759 -1.78538,-1.71389c-0.01974,-0.9663 0.74759,-1.76564 1.71389,-1.78538c0.0462,-0.00095 0.09202,-0.00009 0.13738,0.0025c0.23691,-0.12793 0.50698,-0.20292 0.79469,-0.20879c0.93212,-0.01904 1.7089,0.69431 1.78039,1.61216c0.57312,0.10389 1.0131,0.59959 1.02546,1.20444z" fill="#671d06" stroke="none" stroke-width="0.5"/><path d="M290.82341,120.71014c-0.01974,-0.9663 0.74759,-1.76564 1.71389,-1.78538c0.9663,-0.01974 1.76564,0.74759 1.78538,1.71389c0.01974,0.9663 -0.74759,1.76564 -1.71389,1.78538c-0.9663,0.01974 -1.76564,-0.74759 -1.78538,-1.71389z" fill="#671d06" stroke="none" stroke-width="0.5"/><path d="M297.37464,120.5763c-0.01974,-0.9663 0.74759,-1.76564 1.71389,-1.78538c0.9663,-0.01974 1.76564,0.74759 1.78538,1.71389c0.01974,0.9663 -0.74759,1.76564 -1.71389,1.78538c-0.9663,0.01974 -1.76564,-0.74759 -1.78538,-1.71389z" fill="#671d06" stroke="none" stroke-width="0.5"/><path d="M308.66396,120.03169c0.69022,-0.0141 1.26117,0.53399 1.27527,1.22421c0.0141,0.69022 -0.53399,1.26117 -1.22421,1.27527c-0.29864,0.0061 -0.57494,-0.09305 -0.79349,-0.26341c-0.22998,0.67791 -0.86491,1.1719 -1.62198,1.18736c-0.69646,0.01423 -1.3062,-0.38042 -1.59981,-0.96375c-0.74908,-0.18553 -1.31124,-0.85468 -1.32776,-1.6631c-0.01974,-0.9663 0.74759,-1.76564 1.71389,-1.78538c0.69646,-0.01423 1.3062,0.38042 1.59981,0.96375c0.37871,0.09381 0.70966,0.31122 0.94646,0.60776c0.21672,-0.34285 0.59592,-0.57383 1.03179,-0.58273z" fill="#671d06" stroke="none" stroke-width="0.5"/><path d="M312.5552,121.20245c-0.01974,-0.9663 0.74759,-1.76564 1.71389,-1.78538c0.57865,-0.01182 1.09743,0.25861 1.42477,0.68499c0.4394,0.30966 0.73078,0.81696 0.7426,1.39561c0.01974,0.9663 -0.74759,1.76564 -1.71389,1.78538c-0.57865,0.01182 -1.09743,-0.25861 -1.42477,-0.68499c-0.4394,-0.30966 -0.73078,-0.81696 -0.7426,-1.39561z" fill="#671d06" stroke="none" stroke-width="0.5"/><path d="M327.19078,119.46596c0.54631,-0.01116 1.0179,0.32989 1.19779,0.81483c0.10235,-0.02089 0.20802,-0.03287 0.31618,-0.03507c0.9663,-0.01974 1.76564,0.74759 1.78538,1.71389c0.01974,0.9663 -0.74759,1.76564 -1.71389,1.78538c-0.887,0.01812 -1.63333,-0.62696 -1.7651,-1.48035c-0.28346,0.43578 -0.75611,0.73844 -1.3041,0.7894c-0.3066,0.46169 -0.82699,0.77055 -1.42307,0.78273c-0.9663,0.01974 -1.76564,-0.74759 -1.78538,-1.71389c-0.01886,-0.92317 0.68068,-1.69397 1.58577,-1.77813c0.3066,-0.46169 0.82699,-0.77055 1.42307,-0.78273c0.3193,-0.00652 0.62036,0.07289 0.8811,0.21702c0.21413,-0.18944 0.49403,-0.30677 0.80225,-0.31307z" fill="#671d06" stroke="none" stroke-width="0.5"/><path d="M347.20565,124.61423c-0.01164,-0.56977 0.35984,-1.05828 0.87811,-1.21935c-0.07923,-0.08051 -0.14768,-0.17176 -0.20292,-0.27142c-0.12529,0.03134 -0.25602,0.04922 -0.39061,0.05197c-0.30184,0.00617 -0.58738,-0.06447 -0.83798,-0.19397c-0.09382,0.01759 -0.19033,0.02772 -0.28891,0.02974c-0.83917,0.01715 -1.55243,-0.55932 -1.73851,-1.34419c-0.21868,0.69761 -0.86321,1.21008 -1.63452,1.22584c-0.63489,0.01297 -1.1977,-0.31383 -1.51467,-0.8136c-0.2963,0.51229 -0.8453,0.8618 -1.48018,0.87478c-0.9663,0.01974 -1.76564,-0.74759 -1.78538,-1.71389c-0.01974,-0.9663 0.74759,-1.76564 1.71389,-1.78538c0.63489,-0.01297 1.1977,0.31383 1.51467,0.8136c0.2963,-0.51229 0.8453,-0.8618 1.48018,-0.87478c0.83917,-0.01715 1.55243,0.55932 1.73851,1.34419c0.21868,-0.69761 0.86321,-1.21008 1.63452,-1.22584c0.30184,-0.00617 0.58738,0.06447 0.83798,0.19397c0.09382,-0.01759 0.19033,-0.02772 0.28891,-0.02974c0.78094,-0.01596 1.45285,0.48219 1.69229,1.18397c0.27056,-0.18405 0.59577,-0.29442 0.94731,-0.3016c0.9663,-0.01974 1.76564,0.74759 1.78538,1.71389c0.01974,0.9663 -0.74759,1.76564 -1.71389,1.78538c-0.20574,0.00421 -0.40391,-0.02728 -0.58859,-0.08876c0.10035,0.17547 0.15946,0.37782 0.16388,0.59414c0.0141,0.69022 -0.53399,1.26117 -1.22421,1.27527c-0.69022,0.0141 -1.26117,-0.53399 -1.27527,-1.22421z" fill="#671d06" stroke="none" stroke-width="0.5"/><path d="M334.46652,121.3166c-0.01974,-0.9663 0.74759,-1.76564 1.71389,-1.78538c0.9663,-0.01974 1.76564,0.74759 1.78538,1.71389c0.01974,0.9663 -0.74759,1.76564 -1.71389,1.78538c-0.9663,0.01974 -1.76564,-0.74759 -1.78538,-1.71389z" fill="#671d06" stroke="none" stroke-width="0.5"/><path d="M282.02604,120.88986c-0.01974,-0.9663 0.74759,-1.76564 1.71389,-1.78538c0.9663,-0.01974 1.76564,0.74759 1.78538,1.71389c0.01974,0.9663 -0.74759,1.76564 -1.71389,1.78538c-0.9663,0.01974 -1.76564,-0.74759 -1.78538,-1.71389z" fill="#671d06" stroke="none" stroke-width="0.5"/><path d="M271.74271,121.6617c-0.01974,-0.9663 0.74759,-1.76564 1.71389,-1.78538c0.9663,-0.01974 1.76564,0.74759 1.78538,1.71389c0.01974,0.9663 -0.74759,1.76564 -1.71389,1.78538c-0.9663,0.01974 -1.76564,-0.74759 -1.78538,-1.71389z" fill="#671d06" stroke="none" stroke-width="0.5"/><path d="M351.42001,144.56455c-0.01974,-0.9663 0.74759,-1.76564 1.71389,-1.78538c0.09859,-0.00201 0.19543,0.00417 0.28989,0.01792c0.24509,-0.13964 0.52752,-0.22187 0.82936,-0.22803c0.9663,-0.01974 1.76564,0.74759 1.78538,1.71389c0.01974,0.9663 -0.74759,1.76564 -1.71389,1.78538c-0.09859,0.00201 -0.19543,-0.00417 -0.28989,-0.01792c-0.24509,0.13964 -0.52752,0.22187 -0.82936,0.22803c-0.9663,0.01974 -1.76564,-0.74759 -1.78538,-1.71389z" fill="#7b280f" stroke="none" stroke-width="0.5"/><path d="M343.50835,145.28795c-0.0141,-0.69022 0.53399,-1.26117 1.22421,-1.27527c0.21047,-0.0043 0.40987,0.04367 0.58576,0.13202c0.21455,-0.70449 0.86242,-1.22349 1.6387,-1.23935c0.42749,-0.00874 0.82232,0.13658 1.1314,0.38502c0.29868,-0.26086 0.68724,-0.42218 1.11473,-0.4309c0.9663,-0.01974 1.76564,0.74759 1.78538,1.71389c0.01974,0.9663 -0.74759,1.76564 -1.71389,1.78538c-0.42749,0.00874 -0.82232,-0.13658 -1.1314,-0.38502c-0.29868,0.26086 -0.68724,0.42218 -1.11473,0.4309c-0.47015,0.0096 -0.90075,-0.1671 -1.22129,-0.46239c-0.21802,0.33578 -0.59318,0.56113 -1.02359,0.56992c-0.69022,0.0141 -1.26117,-0.53399 -1.27527,-1.22421z" fill="#7b280f" stroke="none" stroke-width="0.5"/><path d="M342.29103,146.62361c0.0141,0.69022 -0.53399,1.26117 -1.22421,1.27527c-0.6743,0.01378 -1.23478,-0.50902 -1.27341,-1.17672c-0.08096,0.01321 -0.16383,0.02088 -0.24821,0.0226c-0.9663,0.01974 -1.76564,-0.74759 -1.78538,-1.71389c-0.01974,-0.9663 0.74759,-1.76564 1.71389,-1.78538c0.9663,-0.01974 1.76564,0.74759 1.78538,1.71389c0.00318,0.15551 -0.01403,0.30669 -0.04917,0.451c0.60005,0.08093 1.06836,0.58894 1.08112,1.21322z" fill="#7b280f" stroke="none" stroke-width="0.5"/><path d="M329.51587,147.82087c-0.00765,-0.37427 0.15002,-0.71347 0.40601,-0.94784c-0.1533,0.04762 -0.31578,0.07477 -0.48431,0.07821c-0.56868,0.01161 -1.07955,-0.24937 -1.4077,-0.66309c-0.19019,0.12536 -0.4169,0.20027 -0.66147,0.20527c-0.69022,0.0141 -1.26117,-0.53399 -1.27527,-1.22421c-0.00005,-0.00259 -0.00009,-0.00517 -0.00014,-0.00775c-0.36189,-0.09996 -0.67753,-0.31349 -0.9052,-0.60055c-0.19019,0.12536 -0.4169,0.20027 -0.66147,0.20527c-0.69022,0.0141 -1.26117,-0.53399 -1.27527,-1.22421c-0.0141,-0.69022 0.53399,-1.26117 1.22421,-1.27527c0.24456,-0.005 0.47416,0.06058 0.66931,0.17807c0.31098,-0.42678 0.81076,-0.70842 1.37944,-0.72003c0.9663,-0.01974 1.76564,0.74759 1.78538,1.71389c0.00218,0.10671 -0.00525,0.21138 -0.02147,0.31319c0.29352,-0.24255 0.66791,-0.39147 1.07817,-0.39984c0.63489,-0.01297 1.1977,0.31383 1.51467,0.8136c0.2963,-0.51229 0.8453,-0.8618 1.48018,-0.87478c0.9663,-0.01974 1.76564,0.74759 1.78538,1.71389c0.01974,0.9663 -0.74759,1.76564 -1.71389,1.78538c-0.63489,0.01297 -1.1977,-0.31383 -1.51467,-0.8136c-0.11174,0.1932 -0.25943,0.36324 -0.4341,0.50083c0.08258,-0.01904 0.16834,-0.02989 0.25643,-0.03169c0.69022,-0.0141 1.26117,0.53399 1.27527,1.22421c0.0141,0.69022 -0.53399,1.26117 -1.22421,1.27527c-0.69022,0.0141 -1.26117,-0.53399 -1.27527,-1.22421z" fill="#7b280f" stroke="none" stroke-width="0.5"/><path d="M263.46665,144.17481c0.02992,-0.00061 0.0596,-0.00016 0.08903,0.0013c0.2019,-0.08711 0.42371,-0.13736 0.65712,-0.14214c0.9663,-0.01974 1.76564,0.74759 1.78538,1.71389c0.01974,0.9663 -0.74759,1.76564 -1.71389,1.78538c-0.81262,0.01661 -1.50714,-0.52342 -1.71925,-1.27029c-0.17789,-0.19654 -0.29433,-0.45016 -0.31827,-0.73103c-0.02381,0.92915 -0.77484,1.68425 -1.71368,1.70344c-0.33956,0.00694 -0.6585,-0.08332 -0.93024,-0.24524c-0.12979,0.07042 -0.27359,0.11856 -0.42636,0.13919c0.11203,0.18281 0.17847,0.39689 0.18317,0.62672c0.0141,0.69022 -0.53399,1.26117 -1.22421,1.27527c-0.69022,0.0141 -1.26117,-0.53399 -1.27527,-1.22421c-0.00087,-0.04261 0.0004,-0.08475 0.00372,-0.12635c-0.91142,-0.04325 -1.646,-0.78643 -1.66492,-1.71227c-0.01974,-0.9663 0.74759,-1.76564 1.71389,-1.78538c0.56868,-0.01161 1.07955,0.24937 1.4077,0.66309c0.18555,-0.12229 0.40586,-0.19658 0.64359,-0.20476c0.29191,-0.52891 0.85002,-0.89211 1.49745,-0.90534c0.93885,-0.01918 1.72009,0.70464 1.78183,1.63203c0.02886,-0.65289 0.56054,-1.17978 1.22324,-1.19332z" fill="#7b280f" stroke="none" stroke-width="0.5"/><path d="M262.30697,160.73872c0.9663,-0.01974 1.76564,0.74759 1.78538,1.71389c0.01974,0.9663 -0.74759,1.76564 -1.71389,1.78538c-0.6314,0.0129 -1.1915,-0.31025 -1.50942,-0.80537c-0.26816,0.17921 -0.58898,0.28647 -0.93537,0.29354c-0.9663,0.01974 -1.76564,-0.74759 -1.78538,-1.71389c-0.01974,-0.9663 0.74759,-1.76564 1.71389,-1.78538c0.6314,-0.0129 1.1915,0.31025 1.50942,0.80537c0.26816,-0.17921 0.58898,-0.28647 0.93537,-0.29354z" fill="#973007" stroke="none" stroke-width="0.5"/><path d="M365.43963,161.69299c-0.01974,-0.9663 0.74759,-1.76564 1.71389,-1.78538c0.9663,-0.01974 1.76564,0.74759 1.78538,1.71389c0.01974,0.9663 -0.74759,1.76564 -1.71389,1.78538c-0.9663,0.01974 -1.76564,-0.74759 -1.78538,-1.71389z" fill="#973007" stroke="none" stroke-width="0.5"/><path d="M354.18217,160.61217c-0.01974,-0.9663 0.74759,-1.76564 1.71389,-1.78538c0.9663,-0.01974 1.76564,0.74759 1.78538,1.71389c0.01974,0.9663 -0.74759,1.76564 -1.71389,1.78538c-0.9663,0.01974 -1.76564,-0.74759 -1.78538,-1.71389z" fill="#973007" stroke="none" stroke-width="0.5"/><path d="M350.82015,164.05147c-0.00071,-0.03503 0.00001,-0.06976 0.00214,-0.10411c-0.42665,-0.311 -0.70819,-0.81069 -0.71981,-1.37928c-0.01974,-0.9663 0.74759,-1.76564 1.71389,-1.78538c0.9663,-0.01974 1.76564,0.74759 1.78538,1.71389c0.00841,0.41203 -0.12626,0.79369 -0.35846,1.09752c0.04668,0.12687 0.07342,0.26355 0.07633,0.4063c0.0141,0.69022 -0.53399,1.26117 -1.22421,1.27527c-0.69022,0.0141 -1.26117,-0.53399 -1.27527,-1.22421z" fill="#973007" stroke="none" stroke-width="0.5"/><path d="M344.83855,161.55207c-0.01974,-0.9663 0.74759,-1.76564 1.71389,-1.78538c0.9663,-0.01974 1.76564,0.74759 1.78538,1.71389c0.01974,0.9663 -0.74759,1.76564 -1.71389,1.78538c-0.9663,0.01974 -1.76564,-0.74759 -1.78538,-1.71389z" fill="#973007" stroke="none" stroke-width="0.5"/><path d="M335.84254,161.17408c-0.01974,-0.9663 0.74759,-1.76564 1.71389,-1.78538c0.9663,-0.01974 1.76564,0.74759 1.78538,1.71389c0.01974,0.9663 -0.74759,1.76564 -1.71389,1.78538c-0.9663,0.01974 -1.76564,-0.74759 -1.78538,-1.71389z" fill="#973007" stroke="none" stroke-width="0.5"/><path d="M328.00017,162.27058c-0.01974,-0.9663 0.74759,-1.76564 1.71389,-1.78538c0.9663,-0.01974 1.76564,0.74759 1.78538,1.71389c0.01974,0.9663 -0.74759,1.76564 -1.71389,1.78538c-0.9663,0.01974 -1.76564,-0.74759 -1.78538,-1.71389z" fill="#973007" stroke="none" stroke-width="0.5"/><path d="M320.07705,162.43243c-0.0141,-0.69022 0.53399,-1.26117 1.22421,-1.27527c0.05534,-0.00113 0.10992,0.00136 0.16351,0.00723c0.29027,-0.53463 0.8515,-0.90259 1.50323,-0.9159c0.9663,-0.01974 1.76564,0.74759 1.78538,1.71389c0.01974,0.9663 -0.74759,1.76564 -1.71389,1.78538c-0.37695,0.0077 -0.72851,-0.10437 -1.01827,-0.30131c-0.1917,0.12832 -0.42114,0.20513 -0.66889,0.2102c-0.69022,0.0141 -1.26117,-0.53399 -1.27527,-1.22421z" fill="#973007" stroke="none" stroke-width="0.5"/><path d="M274.84993,163.54363c0.0141,0.69022 -0.53399,1.26117 -1.22421,1.27527c-0.61244,0.01251 -1.13096,-0.4176 -1.24991,-0.99687c-0.12037,-0.01778 -0.23684,-0.04786 -0.34806,-0.08893c-0.25579,0.62693 -0.86533,1.07446 -1.58532,1.08917c-0.41622,0.00851 -0.80146,-0.12903 -1.10678,-0.36558c-0.22362,0.27949 -0.56507,0.4614 -0.95092,0.46928c-0.37086,0.00758 -0.70729,-0.14715 -0.94141,-0.39904c-0.22552,0.11318 -0.47919,0.17913 -0.74827,0.18464c-0.9663,0.01974 -1.76564,-0.74759 -1.78538,-1.71389c-0.01974,-0.9663 0.74759,-1.76564 1.71389,-1.78538c0.79219,-0.01618 1.47216,0.49663 1.70236,1.21437c0.00258,-0.00007 0.00517,-0.00012 0.00775,-0.00018c0.14761,-0.00302 0.28976,0.01968 0.42219,0.06398c0.23556,-0.66766 0.86546,-1.15215 1.61509,-1.16747c0.22561,-0.00461 0.4421,0.03369 0.6417,0.1074c0.25579,-0.62693 0.86533,-1.07446 1.58532,-1.08917c0.9663,-0.01974 1.76564,0.74759 1.78538,1.71389c0.00349,0.17109 -0.01768,0.33695 -0.06028,0.49418c0.31186,0.22142 0.51845,0.5826 0.52686,0.99435z" fill="#973007" stroke="none" stroke-width="0.5"/><path d="M260.15251,125.6436c-0.0141,-0.69022 0.53399,-1.26117 1.22421,-1.27527c0.69022,-0.0141 1.26117,0.53399 1.27527,1.22421c0.0141,0.69022 -0.53399,1.26117 -1.22421,1.27527c-0.69022,0.0141 -1.26117,-0.53399 -1.27527,-1.22421z" fill="#671d06" stroke="none" stroke-width="0.5"/><path d="M273.8471,126.86189c-0.0141,-0.69022 0.53399,-1.26117 1.22421,-1.27527c0.69022,-0.0141 1.26117,0.53399 1.27527,1.22421c0.0141,0.69022 -0.53399,1.26117 -1.22421,1.27527c-0.69022,0.0141 -1.26117,-0.53399 -1.27527,-1.22421z" fill="#671d06" stroke="none" stroke-width="0.5"/><path d="M312.00087,124.58439c-0.0141,-0.69022 0.53399,-1.26117 1.22421,-1.27527c0.69022,-0.0141 1.26117,0.53399 1.27527,1.22421c0.0141,0.69022 -0.53399,1.26117 -1.22421,1.27527c-0.69022,0.0141 -1.26117,-0.53399 -1.27527,-1.22421z" fill="#671d06" stroke="none" stroke-width="0.5"/><path d="M317.86074,127.27352c-0.0141,-0.69022 0.53399,-1.26117 1.22421,-1.27527c0.69022,-0.0141 1.26117,0.53399 1.27527,1.22421c0.0141,0.69022 -0.53399,1.26117 -1.22421,1.27527c-0.69022,0.0141 -1.26117,-0.53399 -1.27527,-1.22421z" fill="#671d06" stroke="none" stroke-width="0.5"/><path d="M331.22285,121.38287c-0.0141,-0.69022 0.53399,-1.26117 1.22421,-1.27527c0.69022,-0.0141 1.26117,0.53399 1.27527,1.22421c0.0141,0.69022 -0.53399,1.26117 -1.22421,1.27527c-0.69022,0.0141 -1.26117,-0.53399 -1.27527,-1.22421z" fill="#671d06" stroke="none" stroke-width="0.5"/><path d="M336.71985,124.64116c-0.0141,-0.69022 0.53399,-1.26117 1.22421,-1.27527c0.69022,-0.0141 1.26117,0.53399 1.27527,1.22421c0.0141,0.69022 -0.53399,1.26117 -1.22421,1.27527c-0.69022,0.0141 -1.26117,-0.53399 -1.27527,-1.22421z" fill="#671d06" stroke="none" stroke-width="0.5"/><path d="M339.37475,126.27225c-0.0141,-0.69022 0.53399,-1.26117 1.22421,-1.27527c0.69022,-0.0141 1.26117,0.53399 1.27527,1.22421c0.0141,0.69022 -0.53399,1.26117 -1.22421,1.27527c-0.69022,0.0141 -1.26117,-0.53399 -1.27527,-1.22421z" fill="#671d06" stroke="none" stroke-width="0.5"/><path d="M265.84853,147.81074c-0.0141,-0.69022 0.53399,-1.26117 1.22421,-1.27527c0.69022,-0.0141 1.26117,0.53399 1.27527,1.22421c0.0141,0.69022 -0.53399,1.26117 -1.22421,1.27527c-0.69022,0.0141 -1.26117,-0.53399 -1.27527,-1.22421z" fill="#7b280f" stroke="none" stroke-width="0.5"/><path d="M318.0483,145.62082c-0.0141,-0.69022 0.53399,-1.26117 1.22421,-1.27527c0.02504,-0.00051 0.04993,-0.00028 0.07462,0.00066c0.25401,-0.63077 0.86549,-1.08174 1.5883,-1.09651c0.9663,-0.01974 1.76564,0.74759 1.78538,1.71389c0.01974,0.9663 -0.74759,1.76564 -1.71389,1.78538c-0.3193,0.00652 -0.62036,-0.07289 -0.8811,-0.21702c-0.18041,0.15959 -0.40749,0.26803 -0.65886,0.30199c0.11203,0.18281 0.17847,0.39689 0.18317,0.62672c0.0141,0.69022 -0.53399,1.26117 -1.22421,1.27527c-0.69022,0.0141 -1.26117,-0.53399 -1.27527,-1.22421c-0.0131,-0.64167 0.45967,-1.18025 1.08082,-1.26418c-0.11203,-0.18281 -0.17847,-0.39689 -0.18317,-0.62672z" fill="#7b280f" stroke="none" stroke-width="0.5"/><path d="M332.54132,149.25712c-0.0141,-0.69022 0.53399,-1.26117 1.22421,-1.27527c0.69022,-0.0141 1.26117,0.53399 1.27527,1.22421c0.0141,0.69022 -0.53399,1.26117 -1.22421,1.27527c-0.69022,0.0141 -1.26117,-0.53399 -1.27527,-1.22421z" fill="#7b280f" stroke="none" stroke-width="0.5"/><path d="M354.78448,150.30076c-0.00846,-0.41412 0.32041,-0.7567 0.73453,-0.76516c0.07219,-0.00148 0.14222,0.00731 0.20868,0.025c-0.09776,-0.17372 -0.15526,-0.37339 -0.15962,-0.58663c-0.0141,-0.69022 0.53399,-1.26117 1.22421,-1.27527c0.69022,-0.0141 1.26117,0.53399 1.27527,1.22421c0.0141,0.69022 -0.53399,1.26117 -1.22421,1.27527c-0.21324,0.00435 -0.41509,-0.04495 -0.59266,-0.13553c0.0204,0.06567 0.03202,0.13529 0.0335,0.20748c0.00846,0.41412 -0.32041,0.7567 -0.73453,0.76516c-0.41412,0.00846 -0.7567,-0.32041 -0.76516,-0.73453z" fill="#7b280f" stroke="none" stroke-width="0.5"/><path d="M261.37576,167.18952c-0.0141,-0.69022 0.53399,-1.26117 1.22421,-1.27527c0.69022,-0.0141 1.26117,0.53399 1.27527,1.22421c0.0141,0.69022 -0.53399,1.26117 -1.22421,1.27527c-0.69022,0.0141 -1.26117,-0.53399 -1.27527,-1.22421z" fill="#973007" stroke="none" stroke-width="0.5"/><path d="M274.31017,167.86155c-0.0141,-0.69022 0.53399,-1.26117 1.22421,-1.27527c0.69022,-0.0141 1.26117,0.53399 1.27527,1.22421c0.0141,0.69022 -0.53399,1.26117 -1.22421,1.27527c-0.69022,0.0141 -1.26117,-0.53399 -1.27527,-1.22421z" fill="#973007" stroke="none" stroke-width="0.5"/><path d="M319.57785,162.25537c0.0141,0.69022 -0.53399,1.26117 -1.22421,1.27527c-0.12355,0.00252 -0.24327,-0.01297 -0.35666,-0.04405c-0.2294,0.11801 -0.48855,0.18692 -0.76385,0.19254c-0.28391,0.0058 -0.55341,-0.05635 -0.79295,-0.17151c-0.292,-0.00065 -0.5678,-0.07313 -0.81027,-0.20097c0.14543,0.19959 0.23336,0.44418 0.23878,0.70981c0.0141,0.69022 -0.53399,1.26117 -1.22421,1.27527c-0.31556,0.00645 -0.6062,-0.10462 -0.83008,-0.29305c-0.07976,0.60136 -0.58837,1.07106 -1.21359,1.08383c-0.69022,0.0141 -1.26117,-0.53399 -1.27527,-1.22421c-0.0141,-0.69022 0.53399,-1.26117 1.22421,-1.27527c0.31556,-0.00645 0.6062,0.10462 0.83008,0.29305c0.01627,-0.12268 0.05039,-0.23989 0.09971,-0.34886c-0.78728,-0.15741 -1.38776,-0.84444 -1.40484,-1.68033c-0.01974,-0.9663 0.74759,-1.76564 1.71389,-1.78538c0.52149,-0.01065 0.99437,0.20793 1.3223,0.56332c0.31315,-0.36848 0.7767,-0.6062 1.29819,-0.61686c0.28391,-0.0058 0.55341,0.05635 0.79295,0.17151c0.66213,0.00148 1.24102,0.3723 1.53662,0.92041c0.4796,0.1668 0.82819,0.61806 0.83916,1.15549z" fill="#973007" stroke="none" stroke-width="0.5"/><path d="M333.02484,166.72261c0.69022,-0.0141 1.26117,0.53399 1.27527,1.22421c0.0141,0.69022 -0.53399,1.26117 -1.22421,1.27527c-0.20295,0.00414 -0.39559,-0.04032 -0.56678,-0.1227c-0.1958,0.41647 -0.61507,0.70861 -1.10634,0.71864c-0.69022,0.0141 -1.26117,-0.53399 -1.27527,-1.22421c-0.0141,-0.69022 0.53399,-1.26117 1.22421,-1.27527c0.20295,-0.00414 0.39559,0.04032 0.56678,0.1227c0.1958,-0.41647 0.61507,-0.70861 1.10634,-0.71864z" fill="#973007" stroke="none" stroke-width="0.5"/><path d="M354.79677,166.21729c-0.0141,-0.69022 0.53399,-1.26117 1.22421,-1.27527c0.69022,-0.0141 1.26117,0.53399 1.27527,1.22421c0.0141,0.69022 -0.53399,1.26117 -1.22421,1.27527c-0.69022,0.0141 -1.26117,-0.53399 -1.27527,-1.22421z" fill="#973007" stroke="none" stroke-width="0.5"/><path d="M359.89265,168.17301c-0.0141,-0.69022 0.53399,-1.26117 1.22421,-1.27527c0.69022,-0.0141 1.26117,0.53399 1.27527,1.22421c0.0141,0.69022 -0.53399,1.26117 -1.22421,1.27527c-0.69022,0.0141 -1.26117,-0.53399 -1.27527,-1.22421z" fill="#973007" stroke="none" stroke-width="0.5"/><path d="M359.93071,160.86924c-0.0141,-0.69022 0.53399,-1.26117 1.22421,-1.27527c0.69022,-0.0141 1.26117,0.53399 1.27527,1.22421c0.0141,0.69022 -0.53399,1.26117 -1.22421,1.27527c-0.69022,0.0141 -1.26117,-0.53399 -1.27527,-1.22421z" fill="#973007" stroke="none" stroke-width="0.5"/><path d="M258.14279,131.11509c-0.00846,-0.41412 0.32041,-0.7567 0.73453,-0.76516c0.41412,-0.00846 0.7567,0.32041 0.76516,0.73453c0.00846,0.41412 -0.32041,0.7567 -0.73453,0.76516c-0.41412,0.00846 -0.7567,-0.32041 -0.76516,-0.73453z" fill="#671d06" stroke="none" stroke-width="0.5"/><path d="M262.4326,130.27842c-0.00846,-0.41412 0.32041,-0.7567 0.73453,-0.76516c0.41412,-0.00846 0.7567,0.32041 0.76516,0.73453c0.00846,0.41412 -0.32041,0.7567 -0.73453,0.76516c-0.41412,0.00846 -0.7567,-0.32041 -0.76516,-0.73453z" fill="#671d06" stroke="none" stroke-width="0.5"/><path d="M267.9296,133.53674c-0.00846,-0.41412 0.32041,-0.7567 0.73453,-0.76516c0.41412,-0.00846 0.7567,0.32041 0.76516,0.73453c0.00846,0.41412 -0.32041,0.7567 -0.73453,0.76516c-0.41412,0.00846 -0.7567,-0.32041 -0.76516,-0.73453z" fill="#671d06" stroke="none" stroke-width="0.5"/><path d="M319.03688,132.86719c-0.00846,-0.41412 0.32041,-0.7567 0.73453,-0.76516c0.41412,-0.00846 0.7567,0.32041 0.76516,0.73453c0.00846,0.41412 -0.32041,0.7567 -0.73453,0.76516c-0.41412,0.00846 -0.7567,-0.32041 -0.76516,-0.73453z" fill="#671d06" stroke="none" stroke-width="0.5"/><path d="M327.39108,129.3259c-0.00846,-0.41412 0.32041,-0.7567 0.73453,-0.76516c0.41412,-0.00846 0.7567,0.32041 0.76516,0.73453c0.00846,0.41412 -0.32041,0.7567 -0.73453,0.76516c-0.41412,0.00846 -0.7567,-0.32041 -0.76516,-0.73453z" fill="#671d06" stroke="none" stroke-width="0.5"/><path d="M335.68809,132.15251c-0.00846,-0.41412 0.32041,-0.7567 0.73453,-0.76516c0.41412,-0.00846 0.7567,0.32041 0.76516,0.73453c0.00846,0.41412 -0.32041,0.7567 -0.73453,0.76516c-0.41412,0.00846 -0.7567,-0.32041 -0.76516,-0.73453z" fill="#671d06" stroke="none" stroke-width="0.5"/><path d="M342.48768,135.00969c-0.00846,-0.41412 0.32041,-0.7567 0.73453,-0.76516c0.41412,-0.00846 0.7567,0.32041 0.76516,0.73453c0.00846,0.41412 -0.32041,0.7567 -0.73453,0.76516c-0.41412,0.00846 -0.7567,-0.32041 -0.76516,-0.73453z" fill="#671d06" stroke="none" stroke-width="0.5"/><path d="M258.21584,153.02258c-0.00846,-0.41412 0.32041,-0.7567 0.73453,-0.76516c0.41412,-0.00846 0.7567,0.32041 0.76516,0.73453c0.00846,0.41412 -0.32041,0.7567 -0.73453,0.76516c-0.41412,0.00846 -0.7567,-0.32041 -0.76516,-0.73453z" fill="#7b280f" stroke="none" stroke-width="0.5"/><path d="M262.83028,149.74495c-0.00846,-0.41412 0.32041,-0.7567 0.73453,-0.76516c0.41412,-0.00846 0.7567,0.32041 0.76516,0.73453c0.00846,0.41412 -0.32041,0.7567 -0.73453,0.76516c-0.41412,0.00846 -0.7567,-0.32041 -0.76516,-0.73453z" fill="#7b280f" stroke="none" stroke-width="0.5"/><path d="M268.57182,155.80712c-0.00846,-0.41412 0.32041,-0.7567 0.73453,-0.76516c0.41412,-0.00846 0.7567,0.32041 0.76516,0.73453c0.00846,0.41412 -0.32041,0.7567 -0.73453,0.76516c-0.41412,0.00846 -0.7567,-0.32041 -0.76516,-0.73453z" fill="#7b280f" stroke="none" stroke-width="0.5"/><path d="M320.03816,154.38121c-0.00846,-0.41412 0.32041,-0.7567 0.73453,-0.76516c0.41412,-0.00846 0.7567,0.32041 0.76516,0.73453c0.00846,0.41412 -0.32041,0.7567 -0.73453,0.76516c-0.41412,0.00846 -0.7567,-0.32041 -0.76516,-0.73453z" fill="#7b280f" stroke="none" stroke-width="0.5"/><path d="M324.80537,149.41515c-0.00846,-0.41412 0.32041,-0.7567 0.73453,-0.76516c0.41412,-0.00846 0.7567,0.32041 0.76516,0.73453c0.00846,0.41412 -0.32041,0.7567 -0.73453,0.76516c-0.41412,0.00846 -0.7567,-0.32041 -0.76516,-0.73453z" fill="#7b280f" stroke="none" stroke-width="0.5"/><path d="M330.84478,151.72611c-0.00846,-0.41412 0.32041,-0.7567 0.73453,-0.76516c0.41412,-0.00846 0.7567,0.32041 0.76516,0.73453c0.00846,0.41412 -0.32041,0.7567 -0.73453,0.76516c-0.41412,0.00846 -0.7567,-0.32041 -0.76516,-0.73453z" fill="#7b280f" stroke="none" stroke-width="0.5"/><path d="M344.21856,155.57254c-0.00846,-0.41412 0.32041,-0.7567 0.73453,-0.76516c0.41412,-0.00846 0.7567,0.32041 0.76516,0.73453c0.00846,0.41412 -0.32041,0.7567 -0.73453,0.76516c-0.41412,0.00846 -0.7567,-0.32041 -0.76516,-0.73453z" fill="#7b280f" stroke="none" stroke-width="0.5"/><path d="M270.89725,171.30189c-0.00846,-0.41412 0.32041,-0.7567 0.73453,-0.76516c0.41412,-0.00846 0.7567,0.32041 0.76516,0.73453c0.00846,0.41412 -0.32041,0.7567 -0.73453,0.76516c-0.41412,0.00846 -0.7567,-0.32041 -0.76516,-0.73453z" fill="#973007" stroke="none" stroke-width="0.5"/><path d="M297.89296,172.81022c-0.00846,-0.41412 0.32041,-0.7567 0.73453,-0.76516c0.41412,-0.00846 0.7567,0.32041 0.76516,0.73453c0.00846,0.41412 -0.32041,0.7567 -0.73453,0.76516c-0.41412,0.00846 -0.7567,-0.32041 -0.76516,-0.73453z" fill="#973007" stroke="none" stroke-width="0.5"/><path d="M307.28629,174.30363c-0.00846,-0.41412 0.32041,-0.7567 0.73453,-0.76516c0.41412,-0.00846 0.7567,0.32041 0.76516,0.73453c0.00846,0.41412 -0.32041,0.7567 -0.73453,0.76516c-0.41412,0.00846 -0.7567,-0.32041 -0.76516,-0.73453z" fill="#973007" stroke="none" stroke-width="0.5"/><path d="M328.40684,172.37411c-0.00846,-0.41412 0.32041,-0.7567 0.73453,-0.76516c0.41412,-0.00846 0.7567,0.32041 0.76516,0.73453c0.00846,0.41412 -0.32041,0.7567 -0.73453,0.76516c-0.41412,0.00846 -0.7567,-0.32041 -0.76516,-0.73453z" fill="#973007" stroke="none" stroke-width="0.5"/><path d="M355.67367,168.82097c-0.00846,-0.41412 0.32041,-0.7567 0.73453,-0.76516c0.41412,-0.00846 0.7567,0.32041 0.76516,0.73453c0.00846,0.41412 -0.32041,0.7567 -0.73453,0.76516c-0.41412,0.00846 -0.7567,-0.32041 -0.76516,-0.73453z" fill="#973007" stroke="none" stroke-width="0.5"/></g><path d="" fill="none" stroke="#000000" stroke-width="2" stroke-linecap="round"/><path d="M290.07252,143.83093c-0.13069,-6.39752 4.94957,-11.6897 11.34709,-11.82039c6.39752,-0.13069 10.85317,7.96005 10.98387,14.35758c0.13069,6.39752 -4.0825,10.17529 -10.48002,10.30598c-6.39752,0.13069 -11.72024,-6.44565 -11.85094,-12.84316z" fill="#000000" stroke="#000000" stroke-width="0" stroke-linecap="butt"/><path d="M324.54662,197.44474l21.68337,-21.41644l-1.37734,20.17597z" fill="#000000" stroke="#000000" stroke-width="2" stroke-linecap="round"/></g></g></svg>