<svg version="1.1" xmlns="http://www.w3.org/2000/svg" xmlns:xlink="http://www.w3.org/1999/xlink" width="34.17311" height="34.17311" viewBox="0,0,34.17311,34.17311"><defs><radialGradient cx="320.11458" cy="170.10541" r="11.34069" gradientUnits="userSpaceOnUse" id="color-1"><stop offset="0" stop-color="#a4aeae"/><stop offset="1" stop-color="#767d7d"/></radialGradient></defs><g transform="translate(-302.91346,-162.91348)"><g stroke-miterlimit="10"><path d="M309.98312,162.91349h20.03379c3.9166,0 7.06966,3.15307 7.06966,7.06966v20.03379c0,3.91659 -3.15306,7.06966 -7.06966,7.06966h-20.03379c-3.91659,0 -7.06966,-3.15307 -7.06966,-7.06966v-20.03379c0,-3.91659 3.15307,-7.06966 7.06966,-7.06966z" fill="#9c9c9c" fill-rule="evenodd" stroke="none" stroke-width="4.43922" stroke-linecap="round" stroke-linejoin="round"/><path d="M307.10258,190.97006c0,-5.8728 5.07182,-10.63366 11.32824,-10.63366c6.25642,0 11.32824,4.76085 11.32824,10.63366c0,0.35783 -0.01883,0.71154 -0.05561,1.0603c-7.5151,0.04657 -15.03057,0.02072 -22.5458,-0.00504c-0.03643,-0.34712 -0.05507,-0.69914 -0.05507,-1.05526z" fill="#9c4209" fill-rule="nonzero" stroke="#000000" stroke-width="3" stroke-linecap="butt" stroke-linejoin="miter"/><path d="M323.40263,185.495c-0.71103,0.0331 -2.0716,0.43106 -2.0716,0.43106c0,0 1.13773,-0.67075 2.05844,-0.71361c0.92071,-0.04286 2.30807,0.51035 2.30807,0.51035c0,0 -1.55186,-0.26239 -2.29492,-0.2278z" fill="#000000" fill-rule="nonzero" stroke="none" stroke-width="3" stroke-linecap="butt" stroke-linejoin="miter"/><g fill-rule="nonzero" stroke="#000000" stroke-width="3" stroke-linecap="round" stroke-linejoin="miter"><path d="M329.29203,189.57467c0,0 -2.99626,1.31226 -9.83088,-0.98971c-5.99323,-2.01859 -9.24507,-5.04117 -9.24507,-5.04117l8.5219,-15.53608c0,0 3.93856,-0.38067 7.71924,0.71788c5.31235,1.54362 6.44022,3.28086 6.44022,3.28086z" fill="url(#color-1)"/><path d="M329.29203,189.57467c0,0 -2.99626,1.31226 -9.83088,-0.98971c-5.99323,-2.01859 -9.24507,-5.04117 -9.24507,-5.04117l8.5219,-15.53608c0,0 3.93856,-0.38067 7.71924,0.71788c5.31235,1.54362 6.44022,3.28086 6.44022,3.28086z" fill="none"/></g><path d="M328.17525,192.03886c0.21841,-1.97522 0.39571,-3.57859 0.39571,-3.57859" fill="none" fill-rule="nonzero" stroke="#000000" stroke-width="3" stroke-linecap="round" stroke-linejoin="miter"/><path d="M307.10258,190.97006c0,-5.8728 5.07182,-10.63366 11.32824,-10.63366c6.25642,0 11.32824,4.76085 11.32824,10.63366c0,0.35783 -0.01883,0.71154 -0.05561,1.0603c-7.5151,0.04657 -15.03057,0.02072 -22.5458,-0.00504c-0.03643,-0.34712 -0.05507,-0.69914 -0.05507,-1.05526z" fill="#9c9c9c" fill-rule="nonzero" stroke="#000000" stroke-width="0" stroke-linecap="butt" stroke-linejoin="miter"/><path d="M323.40263,185.495c-0.71103,0.0331 -2.0716,0.43106 -2.0716,0.43106c0,0 1.13773,-0.67075 2.05844,-0.71361c0.92071,-0.04286 2.30807,0.51035 2.30807,0.51035c0,0 -1.55186,-0.26239 -2.29492,-0.2278z" fill="#000000" fill-rule="nonzero" stroke="none" stroke-width="0" stroke-linecap="butt" stroke-linejoin="miter"/><g fill-rule="nonzero" stroke="#000000" stroke-width="0" stroke-linecap="round" stroke-linejoin="miter"><path d="M329.29203,189.57467c0,0 -2.99626,1.31226 -9.83088,-0.98971c-5.99323,-2.01859 -9.24507,-5.04117 -9.24507,-5.04117l8.5219,-15.53608c0,0 3.93856,-0.38067 7.71924,0.71788c5.31235,1.54362 6.44022,3.28086 6.44022,3.28086z" fill="#a4aeae"/><path d="M329.29203,189.57467c0,0 -2.99626,1.31226 -9.83088,-0.98971c-5.99323,-2.01859 -9.24507,-5.04117 -9.24507,-5.04117l8.5219,-15.53608c0,0 3.93856,-0.38067 7.71924,0.71788c5.31235,1.54362 6.44022,3.28086 6.44022,3.28086z" fill="#7d7d7d"/></g><path d="M328.17525,192.03886c0.21841,-1.97522 0.39571,-3.57859 0.39571,-3.57859" fill="none" fill-rule="nonzero" stroke="#000000" stroke-width="2" stroke-linecap="round" stroke-linejoin="miter"/><path d="M305.62484,193.97271v-2.0625h27.84379v2.0625z" fill="#9c9c9c" fill-rule="nonzero" stroke="none" stroke-width="0" stroke-linecap="butt" stroke-linejoin="miter"/></g></g></svg>