<svg version="1.1" xmlns="http://www.w3.org/2000/svg" xmlns:xlink="http://www.w3.org/1999/xlink" width="223.69302" height="280.18476" viewBox="0,0,223.69302,280.18476"><defs><radialGradient cx="292.47265" cy="148.84787" r="23.48066" gradientUnits="userSpaceOnUse" id="color-1"><stop offset="0" stop-color="#ffffff"/><stop offset="1" stop-color="#ffe0e0"/></radialGradient><radialGradient cx="346.73112" cy="148.8479" r="23.48066" gradientUnits="userSpaceOnUse" id="color-2"><stop offset="0" stop-color="#ffffff"/><stop offset="1" stop-color="#ffe0e0"/></radialGradient></defs><g transform="translate(-208.15349,-38.88751)"><g stroke-miterlimit="10"><path d="M214.52362,306.61252v-267.72501h213.18203v267.72501z" fill="none" stroke="none" stroke-width="0" stroke-linecap="butt"/><g stroke-width="0" stroke-linecap="butt"><path d="M415.61892,108.17358c0,34.7927 -42.81005,62.99776 -95.61892,62.99776c-52.80887,0 -95.61892,-28.20506 -95.61892,-62.99776c0,-34.7927 42.81005,-62.99776 95.61892,-62.99776c52.80887,0 95.61892,28.20506 95.61892,62.99776z" fill="#9cd0ff" stroke="#000000"/><path d="M327.24176,61.08214c0,6.48791 -2.93912,11.74739 -6.56472,11.74739c-3.62559,0 -6.56472,-5.25949 -6.56472,-11.74739c0,-6.48791 6.56472,-11.74739 6.56472,-11.74739c0,0 6.56472,5.25949 6.56472,11.74739z" fill="#d8fdff" stroke="none"/><path d="M303.36183,57.3505c-6.09482,2.22398 -12.04314,1.26582 -13.28596,-2.14011c-0.63274,-1.73402 0.07619,-3.76821 1.72896,-5.64094c1.01993,-1.15567 9.52804,-2.51142 15.1895,-2.84022c3.18412,-0.18493 5.15283,0.42742 5.15283,0.42742c0,0 -2.69052,7.96987 -8.78534,10.19385z" fill="#d8fdff" stroke="none"/><path d="M327.85283,47.15665c0,0 1.96871,-0.61235 5.15283,-0.42742c5.66146,0.32881 14.16957,1.68455 15.1895,2.84023c1.65277,1.87273 2.3617,3.90692 1.72896,5.64094c-1.24282,3.40593 -7.19114,4.36409 -13.28596,2.14011c-6.09482,-2.22398 -8.78533,-10.19386 -8.78533,-10.19386z" fill="#d8fdff" stroke="none"/></g><g stroke="#000000" stroke-width="0" stroke-linecap="round"><path d="M319.93129,98.4272l34.59485,3.41677c0,0 21.54333,-3.91094 32.03227,2.98968c10.48894,6.90062 6.83355,12.81291 6.83355,12.81291c0,0 8.66702,-1.25306 17.08388,2.56258c8.41686,3.81564 8.54194,17.51097 8.54194,17.51097c0,0 13.35055,1.88116 12.81291,7.68774c-0.53765,5.80658 -14.94839,15.37549 -14.94839,15.37549c0,0 6.39359,8.99477 3.84387,14.0942c-2.54971,5.09943 -11.10452,0.4271 -11.10452,0.4271c0,0 5.81182,13.14889 0.4271,17.08388c-5.38472,3.93499 -22.63614,-0.85419 -22.63614,-0.85419c0,0 -2.92062,14.57862 -10.25033,17.93807c-7.3297,3.35945 -20.50065,-3.84387 -20.50065,-3.84387c0,0 -1.68664,6.8065 -5.12516,7.26065c-3.43853,0.45415 -17.51097,-4.27097 -17.51097,-4.27097l-16.22968,2.98968" fill="#d8fdff"/><path d="M322.20417,211.60789l-16.22968,-2.98968c0,0 -14.07244,4.72512 -17.51097,4.27097c-3.43852,-0.45415 -5.12516,-7.26065 -5.12516,-7.26065c0,0 -13.17095,7.20332 -20.50065,3.84387c-7.32971,-3.35945 -10.25033,-17.93807 -10.25033,-17.93807c0,0 -17.25142,4.78918 -22.63614,0.85419c-5.38472,-3.93499 0.4271,-17.08388 0.4271,-17.08388c0,0 -8.55481,4.67233 -11.10452,-0.4271c-2.54972,-5.09943 3.84387,-14.0942 3.84387,-14.0942c0,0 -14.41074,-9.56891 -14.94839,-15.37549c-0.53764,-5.80658 12.81291,-7.68774 12.81291,-7.68774c0,0 0.12508,-13.69533 8.54194,-17.51097c8.41686,-3.81564 17.08388,-2.56258 17.08388,-2.56258c0,0 -3.65539,-5.91229 6.83355,-12.81291c10.48894,-6.90062 32.03227,-2.98968 32.03227,-2.98968l34.59485,-3.41677" fill="#d8fdff"/><g><g><path d="M307.18944,165.43515c4.78461,-12.6633 13.00385,-33.81464 18.08773,-27.41846c5.08389,6.39618 -10.93453,24.57773 -8.43999,39.55654c2.49453,14.97879 16.43798,10.96123 18.31199,19.72142c1.87401,8.76019 -5.60543,20.976 -6.94678,33.40567c-1.34136,12.42966 7.68506,17.33599 -0.57947,27.39311c-16.54156,20.12943 -16.7396,6.24469 -19.2796,-2.01474c-2.4882,-11.96394 10.76823,-24.36633 9.74707,-39.41995c-1.02116,-15.05359 -12.22839,-14.35551 -13.98464,-22.60815c-1.75625,-8.25264 -1.70092,-15.95212 3.08368,-28.61542z" fill="#9cd0ff"/><path d="M296.98008,175.96284c4.98316,-12.03709 13.52695,-32.16482 18.27679,-26.82219c4.74984,5.34265 -11.26851,23.52431 -9.26296,36.96095c2.00556,13.43662 15.62475,8.39644 17.19986,16.21389c1.57511,7.81745 -6.00662,19.71067 -7.64742,31.19592c-1.6408,11.48523 6.9696,15.07953 -1.31348,25.07814c-16.57869,20.01232 -16.38936,7.3493 -18.62344,0.05471c-2.08219,-10.68344 11.10161,-23.31491 10.52557,-36.96467c-0.57605,-13.64974 -11.45318,-11.91056 -12.92812,-19.27599c-1.47494,-7.36544 -1.20995,-14.40366 3.7732,-26.44075z" fill="#9cd0ff"/><path d="M287.12008,173.17697c5.15189,-12.22861 13.97146,-32.66941 18.43744,-27.00455c4.46598,5.66486 -11.55234,23.84651 -9.9623,37.7548c1.59004,13.90829 14.9337,9.18087 16.2548,17.28666c1.3211,8.10578 -6.34754,20.09767 -8.2428,31.87176c-1.89526,11.77409 6.36163,15.76968 -1.93722,25.78618c-16.61024,20.04812 -16.09173,7.01145 -18.06585,-0.57823c-1.73717,-11.07509 11.3849,-23.63647 11.1871,-37.7156c-0.19781,-14.07909 -10.79442,-12.65835 -12.03032,-20.29514c-1.2359,-7.63678 -0.79275,-14.87726 4.35913,-27.10586z" fill="#7dbcf3"/></g><g fill="#7dbcf3"><path d="M271.77729,153.22097c4.78461,-7.2321 13.00384,-19.05345 18.08773,-6.88637c5.08389,12.1671 -10.93452,12.16552 -8.43999,29.97598c2.49453,17.81044 16.43797,29.62063 18.31199,40.50808c1.87402,10.88745 -5.60543,14.61305 -6.94678,25.5201c-0.12821,1.04256 -0.1617,2.12391 -0.12462,3.2277c0.35088,10.44381 7.0197,22.89651 -0.45485,23.50763c-16.54156,1.35244 -16.73959,-12.75709 -19.27959,-23.89977c-2.4882,-14.7884 10.76823,-12.14289 9.74707,-28.35566c-1.02117,-16.21275 -12.22839,-28.23645 -13.98464,-38.48268c-1.75625,-10.24623 -1.70092,-17.8829 3.08368,-25.11501z"/><path d="M261.56793,152.15961c4.98316,-6.3805 13.52695,-16.80985 18.27679,-6.07547c4.74984,10.73438 -11.26852,10.73299 -9.26296,26.4462c2.00556,15.71322 15.62475,26.1327 17.19986,35.73812c1.57511,9.60542 -6.00662,12.89231 -7.64742,22.51502c-1.6408,9.6227 6.9696,22.99102 -1.31348,23.58716c-16.57869,1.1932 -16.38935,-11.25491 -18.62344,-21.0855c-2.08219,-13.04702 11.1016,-10.71303 10.52556,-25.01668c-0.57605,-14.30364 -11.45317,-24.91152 -12.92812,-33.95121c-1.47495,-9.03971 -1.20996,-15.77713 3.7732,-22.15764z"/><path d="M251.70792,138.18123c5.15189,-6.3805 13.97146,-16.80985 18.43744,-6.07547c4.46598,10.73438 -11.55234,10.73299 -9.9623,26.4462c1.59004,15.7132 14.9337,26.1327 16.2548,35.73813c1.3211,9.60542 -6.34754,12.89231 -8.2428,22.51502c-1.89526,9.6227 6.36163,22.99102 -1.93722,23.58716c-16.61024,1.19318 -16.09173,-11.25491 -18.06585,-21.0855c-1.73717,-13.04702 11.3849,-10.71303 11.1871,-25.01668c-0.19781,-14.30364 -10.79441,-24.91152 -12.03031,-33.95122c-1.2359,-9.03969 -0.79275,-15.77713 4.35913,-22.15764z"/></g></g><g><g><path d="M333.48677,165.43516c4.7846,12.6633 4.83993,20.36278 3.08368,28.61542c-1.75625,8.25264 -12.96348,7.55458 -13.98464,22.60815c-1.02116,15.05361 12.23527,27.456 9.74707,39.41995c-2.54,8.25941 -2.73803,22.14417 -19.27959,2.01474c-8.26454,-10.05711 0.76188,-14.96345 -0.57948,-27.39312c-1.34136,-12.42968 -8.8208,-24.64548 -6.94678,-33.40566c1.87401,-8.76018 15.81746,-4.74261 18.31199,-19.72142c2.49453,-14.97882 -13.52388,-33.16037 -8.43999,-39.55654c5.08389,-6.39617 13.30312,14.75515 18.08773,27.41846z" fill="#9cd0ff"/><path d="M343.69613,175.96285c4.98316,12.03708 5.24815,19.07531 3.7732,26.44075c-1.47494,7.36543 -12.35207,5.62625 -12.92812,19.276c-0.57605,13.64977 12.60776,26.28123 10.52557,36.96467c-2.23408,7.29459 -2.04475,19.95761 -18.62344,-0.05471c-8.28309,-9.9986 0.32732,-13.59291 -1.31348,-25.07814c-1.6408,-11.48525 -9.22253,-23.37847 -7.64742,-31.19592c1.57511,-7.81745 15.1943,-2.77726 17.19986,-16.21388c2.00556,-13.43663 -14.0128,-31.61831 -9.26296,-36.96096c4.74984,-5.34264 13.29363,14.78509 18.27679,26.82217z" fill="#9cd0ff"/><path d="M353.55614,173.17698c5.15188,12.22861 5.59503,19.46909 4.35913,27.10587c-1.2359,7.63678 -11.8325,6.21604 -12.03031,20.29513c-0.1978,14.07913 12.92427,26.64052 11.1871,37.7156c-1.97413,7.58968 -1.45562,20.62636 -18.06585,0.57822c-8.29885,-10.0165 -0.04196,-14.01209 -1.93722,-25.78617c-1.89526,-11.77409 -9.5639,-23.76597 -8.2428,-31.87176c1.3211,-8.10578 14.66476,-3.37837 16.2548,-17.28666c1.59004,-13.9083 -14.42828,-32.08994 -9.9623,-37.75481c4.46598,-5.66487 13.28555,14.77594 18.43744,27.00454z" fill="#7dbcf3"/></g><g fill="#7dbcf3"><path d="M368.50215,153.22097c4.7846,7.23211 4.83993,14.86879 3.08368,25.11501c-1.75625,10.24623 -12.96348,22.26993 -13.98464,38.48268c-1.02116,16.21276 12.23527,13.56727 9.74707,28.35567c-2.54,11.14267 -2.73804,25.25221 -19.2796,23.89977c-7.4766,-0.6113 -0.8021,-13.07061 -0.45457,-23.51617c0.03662,-1.10083 0.00298,-2.17929 -0.12491,-3.21916c-1.34136,-10.90705 -8.8208,-14.63265 -6.94678,-25.5201c1.87401,-10.88745 15.81746,-22.69762 18.31199,-40.50808c2.49453,-17.81047 -13.52388,-17.80888 -8.43999,-29.97598c5.08389,-12.1671 13.30312,-0.34573 18.08773,6.88637z"/><path d="M378.71151,152.15961c4.98316,6.38051 5.24814,13.11794 3.7732,22.15764c-1.47494,9.03969 -12.35207,19.64758 -12.92812,33.95122c-0.57605,14.30367 12.60776,11.96966 10.52557,25.01668c-2.23408,9.83058 -2.04475,22.27868 -18.62344,21.0855c-8.28309,-0.59614 0.32732,-13.96446 -1.31348,-23.58716c-1.6408,-9.6227 -9.22253,-12.90961 -7.64743,-22.51502c1.57511,-9.60542 15.19431,-20.02491 17.19986,-35.73813c2.00556,-15.71322 -14.01281,-15.71183 -9.26296,-26.4462c4.74984,-10.73438 13.29363,-0.30502 18.27679,6.07547z"/><path d="M388.57152,138.18125c5.15188,6.38051 5.59503,13.11794 4.35913,22.15764c-1.2359,9.03969 -11.83251,19.64757 -12.03032,33.95121c-0.1978,14.30367 12.92428,11.96967 11.1871,25.01669c-1.97412,9.83058 -1.45561,22.27868 -18.06585,21.08549c-8.29885,-0.59614 -0.04196,-13.96446 -1.93722,-23.58716c-1.89526,-9.6227 -9.5639,-12.90961 -8.2428,-22.51502c1.3211,-9.60542 14.66476,-20.02491 16.2548,-35.73812c1.59004,-15.71322 -14.42829,-15.71183 -9.9623,-26.4462c4.46598,-10.73438 13.28556,-0.30502 18.43745,6.07547z"/></g></g></g><g stroke-linecap="butt"><path d="M286.35186,319.07226l15.14285,-131.8421l37.78325,-0.15789c0,0 3.87977,37.72902 5.99511,58.29981c2.37838,23.12873 7.57878,73.70019 7.57878,73.70019z" fill="#91aaff" stroke="#000000" stroke-width="0"/><path d="M295.56414,238.89439c2.16999,-18.89314 5.93057,-51.66423 5.93057,-51.66423l37.78325,-0.15789c0,0 3.26993,31.79857 5.44261,52.92695c0.00757,0.07358 -49.22403,-0.51628 -49.15643,-1.10483z" fill="#7f9dff" stroke="#000000" stroke-width="0"/><path d="M296.48404,230.98519c1.93398,-16.83834 5.01067,-43.75503 5.01067,-43.75503l37.78325,-0.15789c0,0 2.57324,24.95118 4.64701,45.11763c0.00069,0.0067 -47.44886,-1.13565 -47.44093,-1.20471z" fill="#7670e6" stroke="#000000" stroke-width="0"/><path d="M297.27844,223.93945c1.73382,-15.09564 4.21628,-36.70929 4.21628,-36.70929l37.78325,-0.15789c0,0 1.99948,19.44403 3.91025,38.02547c0.00239,0.02325 -45.92303,-1.04296 -45.90978,-1.15829z" fill="#8a6be6" stroke="#000000" stroke-width="0"/><path d="M297.56296,224.05c0,-0.9665 0.7835,-1.75 1.75,-1.75c0.9665,0 1.75,0.7835 1.75,1.75c0,0.9665 -0.7835,1.75 -1.75,1.75c-0.9665,0 -1.75,-0.7835 -1.75,-1.75z" fill="#8a6be6" stroke="none" stroke-width="0.5"/><path d="M310.36453,224.42469c-0.00104,-0.02477 -0.00157,-0.04967 -0.00157,-0.07469c0,-0.9665 0.7835,-1.75 1.75,-1.75c0.16637,0 0.32733,0.02322 0.47979,0.06659c0.78789,-0.19193 1.47021,0.14517 1.47021,1.68341c0,0.20375 -0.1549,0.50257 -0.39532,0.80419c-0.19406,0.37441 -0.5194,0.6698 -0.91508,0.82524c-0.35676,0.22288 -0.73055,0.34789 -1.04274,0.27054c-0.21234,0.38739 -0.62394,0.65003 -1.09687,0.65003c-0.65173,0 -1.18696,-0.49877 -1.24482,-1.13542c-0.3082,0.27104 -0.7125,0.43542 -1.15518,0.43542c-0.49377,0 -0.93977,-0.2045 -1.25794,-0.53341c-0.11062,0.02192 -0.225,0.03341 -0.34206,0.03341c-0.9665,0 -1.75,-0.7835 -1.75,-1.75c0,-0.9665 0.7835,-1.75 1.75,-1.75c0.49377,0 0.93977,0.2045 1.25794,0.53341c0.11062,-0.02192 0.225,-0.03341 0.34206,-0.03341c0.9665,0 1.75,0.7835 1.75,1.75c0,0.04551 -0.00174,0.09061 -0.00515,0.13524c0.12305,-0.07587 0.26024,-0.13101 0.40671,-0.16055z" fill="#8a6be6" stroke="none" stroke-width="0.5"/><path d="M318.16296,227.15c0,-0.5558 0.36275,-1.02688 0.86441,-1.1894c-0.62575,-0.26671 -1.06441,-0.88743 -1.06441,-1.6106c0,-0.9665 0.7835,-1.75 1.75,-1.75c0.44147,0 0.84476,0.16347 1.15264,0.43318c0.321,-0.38683 0.80541,-0.63318 1.34736,-0.63318c0.11058,0 0.21876,0.01026 0.32365,0.02987c1.06858,-0.4575 2.12635,-0.28875 2.12635,1.72013c0,1.02025 -2.57217,2.84871 -3.33818,1.50818c-0.09417,-0.05558 -0.18268,-0.11972 -0.26445,-0.19136c-0.2545,0.3067 -0.61173,0.52509 -1.01892,0.60241c0.37173,0.21662 0.62156,0.61952 0.62156,1.08077c0,0.69036 -0.55964,1.25 -1.25,1.25c-0.69036,0 -1.25,-0.55964 -1.25,-1.25z" fill="#8a6be6" stroke="none" stroke-width="0.5"/><path d="M331.81296,222.6c0.9665,0 1.75,0.7835 1.75,1.75c0,0.9665 -0.7835,1.75 -1.75,1.75c-0.80195,0 -1.47791,-0.53942 -1.68483,-1.27522c-0.26414,0.63151 -0.88784,1.07522 -1.61517,1.07522c-0.9665,0 -1.75,-0.7835 -1.75,-1.75c0,-0.9665 0.7835,-1.75 1.75,-1.75c0.80195,0 1.47791,0.53942 1.68483,1.27522c0.26414,-0.63151 0.88784,-1.07522 1.61517,-1.07522z" fill="#8a6be6" stroke="none" stroke-width="0.5"/><path d="M336.41296,227.2c-0.57313,0 -1.05617,-0.38572 -1.20369,-0.91173c-0.87053,-0.10091 -1.54631,-0.84067 -1.54631,-1.73827c0,-0.9665 0.7835,-1.75 1.75,-1.75c0.51885,0 0.98496,0.2258 1.30543,0.58449c0.29973,-0.24057 0.68034,-0.38449 1.09457,-0.38449c0.9665,0 1.75,0.7835 1.75,1.75c0,0.9665 -0.7835,1.75 -1.75,1.75c-0.09094,0 -0.18025,-0.00694 -0.26745,-0.02031c-0.19937,0.42556 -0.63154,0.72031 -1.13255,0.72031z" fill="#8a6be6" stroke="none" stroke-width="0.5"/><path d="M341.96296,228.65c0,0.69036 -0.55964,1.25 -1.25,1.25c-0.6827,0 -1.23758,-0.5473 -1.24979,-1.22709c-0.41471,-0.20343 -0.70021,-0.62983 -0.70021,-1.12291c0,-0.69036 0.55964,-1.25 1.25,-1.25c0.03469,0 0.06905,0.00141 0.10302,0.00418c-0.2216,-0.29319 -0.35302,-0.65834 -0.35302,-1.05418c0,-0.9665 0.7835,-1.75 1.75,-1.75c0.9665,0 1.75,0.7835 1.75,1.75c0,0.9665 -0.7835,1.75 -1.75,1.75c-0.138,0 -0.27227,-0.01597 -0.40106,-0.04617c0.09292,0.17092 0.14712,0.36593 0.15085,0.57326c0.41471,0.20343 0.70021,0.62983 0.70021,1.12291z" fill="#8a6be6" stroke="none" stroke-width="0.5"/><path d="M298.76296,233.95c0,-0.4169 0.20409,-0.78613 0.51781,-1.01323c-0.14891,0.04121 -0.30579,0.06323 -0.46781,0.06323c-0.9665,0 -1.75,-0.7835 -1.75,-1.75c0,-0.9665 0.7835,-1.75 1.75,-1.75c0.7626,0 1.41127,0.48779 1.65103,1.16838c0.31476,-0.46372 0.84629,-0.76838 1.44897,-0.76838c0.56724,0 1.07145,0.26988 1.39122,0.68825c0.32057,-0.36087 0.78812,-0.58825 1.30878,-0.58825c0.9665,0 1.75,0.7835 1.75,1.75c0,0.9665 -0.7835,1.75 -1.75,1.75c-0.56724,0 -1.07145,-0.26988 -1.39122,-0.68825c-0.32057,0.36087 -0.78812,0.58825 -1.30878,0.58825c-0.36719,0 -0.70796,-0.11309 -0.98939,-0.30633c0.21045,0.2237 0.33939,0.52496 0.33939,0.85633c0,0.69036 -0.55964,1.25 -1.25,1.25c-0.69036,0 -1.25,-0.55964 -1.25,-1.25zM300.01296,232.7c0.24616,0 0.4757,0.07115 0.66918,0.19402c-0.18625,-0.18428 -0.33132,-0.41009 -0.42021,-0.6624c-0.13445,0.19807 -0.30844,0.36712 -0.51064,0.49581c0.08438,-0.01797 0.17192,-0.02743 0.26166,-0.02743z" fill="#7670e6" stroke="none" stroke-width="0.5"/><path d="M310.41296,231.9c0.69036,0 1.25,0.55964 1.25,1.25c0,0.69036 -0.55964,1.25 -1.25,1.25c-0.61613,0 -1.12814,-0.44576 -1.23112,-1.03238c-0.20607,0.0853 -0.43198,0.13238 -0.66888,0.13238c-0.9665,0 -1.75,-0.7835 -1.75,-1.75c0,-0.9665 0.7835,-1.75 1.75,-1.75c0.9665,0 1.75,0.7835 1.75,1.75c0,0.05387 -0.00243,0.10716 -0.0072,0.15979c0.05149,-0.00646 0.10396,-0.00979 0.1572,-0.00979z" fill="#7670e6" stroke="none" stroke-width="0.5"/><path d="M317.36296,232.65c0,0.69036 -0.55964,1.25 -1.25,1.25c-0.11835,0 -0.23286,-0.01645 -0.34136,-0.04718c-0.67168,0.35224 -1.39238,0.42564 -1.74682,-0.19464c-0.0029,-0.00171 -0.0058,-0.00343 -0.00869,-0.00516c-0.21519,0.09452 -0.45303,0.14698 -0.70313,0.14698c-0.9665,0 -1.75,-0.7835 -1.75,-1.75c0,-0.9665 0.7835,-1.75 1.75,-1.75c0.32782,0 0.63459,0.09014 0.89687,0.24698c0.21519,-0.09452 0.45303,-0.14698 0.70313,-0.14698c0.10322,0 0.20435,0.00894 0.30266,0.02608c1.0331,-0.44879 2.04734,-0.27781 2.04734,1.72392c0,0.00303 -0.00002,0.00606 -0.00007,0.00911c0.06442,0.1507 0.10007,0.31663 0.10007,0.49089z" fill="#7670e6" stroke="none" stroke-width="0.5"/><path d="M317.36296,231.75c0,-0.9665 0.7835,-1.75 1.75,-1.75c0.9665,0 1.75,0.7835 1.75,1.75c0,0.9665 -0.7835,1.75 -1.75,1.75c-0.9665,0 -1.75,-0.7835 -1.75,-1.75z" fill="#7670e6" stroke="none" stroke-width="0.5"/><path d="M322.46296,232.65c0,-0.42437 0.21148,-0.79936 0.5348,-1.02531c-0.08683,-0.20763 -0.1348,-0.43556 -0.1348,-0.67469c0,-0.9665 0.7835,-1.75 1.75,-1.75c0.67766,0 1.26535,0.38518 1.5561,0.94854c0.24528,-0.67021 0.88873,-1.14854 1.6439,-1.14854c0.9665,0 1.75,0.7835 1.75,1.75c0,0.9665 -0.7835,1.75 -1.75,1.75c-0.67766,0 -1.26535,-0.38518 -1.5561,-0.94854c-0.20636,0.56386 -0.69455,0.9919 -1.29399,1.11355c-0.00804,0.68344 -0.56457,1.23499 -1.24991,1.23499c-0.69036,0 -1.25,-0.55964 -1.25,-1.25z" fill="#7670e6" stroke="none" stroke-width="0.5"/><path d="M331.26296,230.75c0,-0.9665 0.7835,-1.75 1.75,-1.75c0.9665,0 1.75,0.7835 1.75,1.75c0,0.9665 -0.7835,1.75 -1.75,1.75c-0.9665,0 -1.75,-0.7835 -1.75,-1.75z" fill="#7670e6" stroke="none" stroke-width="0.5"/><path d="M299.71296,237.8c0.69036,0 1.25,0.55964 1.25,1.25c0,0.69036 -0.55964,1.25 -1.25,1.25c-0.19896,0 -0.38707,-0.04648 -0.55404,-0.12918c-0.29412,0.55281 -0.87609,0.92918 -1.54596,0.92918c-0.9665,0 -1.75,-0.7835 -1.75,-1.75c0,-0.9665 0.7835,-1.75 1.75,-1.75c0.49185,0 0.9363,0.20291 1.25422,0.52958c0.22258,-0.20464 0.51959,-0.32958 0.84578,-0.32958z" fill="#7f9dff" stroke="none" stroke-width="0.5"/><path d="M306.86296,242.15c0,-0.10314 0.01249,-0.20337 0.03605,-0.29925c-0.01316,-0.00319 -0.02625,-0.00653 -0.03929,-0.01002c-0.04648,0.648 -0.58691,1.15926 -1.24676,1.15926c-0.69036,0 -1.25,-0.55964 -1.25,-1.25c0,-0.16387 0.03153,-0.32038 0.08886,-0.46378c-0.24907,0.1363 -0.53492,0.21378 -0.83886,0.21378c-0.04426,0 -0.08814,-0.00164 -0.13158,-0.00487c-0.17938,0.47057 -0.63486,0.80487 -1.16842,0.80487c-0.69036,0 -1.25,-0.55964 -1.25,-1.25c0,-0.53356 0.3343,-0.98904 0.80487,-1.16842c-0.00323,-0.04344 -0.00487,-0.08732 -0.00487,-0.13158c0,-0.9665 0.7835,-1.75 1.75,-1.75c0.9665,0 1.75,0.7835 1.75,1.75c0,0.30394 -0.07749,0.58979 -0.21378,0.83886c0.13903,-0.05558 0.29038,-0.08692 0.44881,-0.08878c-0.02297,-0.11312 -0.03502,-0.23019 -0.03502,-0.35009c0,-0.9665 0.7835,-1.75 1.75,-1.75c0.9665,0 1.75,0.7835 1.75,1.75c0,0.34856 -0.1019,0.67332 -0.27754,0.94611c0.3473,0.22206 0.57754,0.61109 0.57754,1.05389c0,0.69036 -0.55964,1.25 -1.25,1.25c-0.69036,0 -1.25,-0.55964 -1.25,-1.25z" fill="#7f9dff" stroke="none" stroke-width="0.5"/><path d="M313.21296,239.6c0.69036,0 1.25,0.55964 1.25,1.25c0,0.69036 -0.55964,1.25 -1.25,1.25c-0.357,0 -0.67904,-0.14966 -0.90682,-0.38966c-0.2381,0.12128 -0.50766,0.18966 -0.79318,0.18966c-0.9665,0 -1.75,-0.7835 -1.75,-1.75c0,-0.9665 0.7835,-1.75 1.75,-1.75c0.77457,0 1.43161,0.50322 1.66201,1.20057c0.01262,-0.00038 0.02528,-0.00057 0.03799,-0.00057z" fill="#7f9dff" stroke="none" stroke-width="0.5"/><path d="M318.56296,242.35c0,-0.69036 0.55964,-1.25 1.25,-1.25c0.03035,0 0.06046,0.00108 0.09027,0.00321c-0.39091,-0.32095 -0.64027,-0.80796 -0.64027,-1.35321c0,-0.9665 0.7835,-1.75 1.75,-1.75c0.9665,0 1.75,0.7835 1.75,1.75c0,0.9665 -0.7835,1.75 -1.75,1.75c-0.10564,0 -0.20909,-0.00936 -0.30958,-0.0273c0.22236,0.22567 0.35958,0.53546 0.35958,0.8773c0,0.69036 -0.55964,1.25 -1.25,1.25c-0.69036,0 -1.25,-0.55964 -1.25,-1.25zM314.76296,240.05c0,-0.69036 0.55964,-1.25 1.25,-1.25c0.00997,0 0.01992,0.00012 0.02983,0.00035c0.31175,-0.48163 0.85374,-0.80035 1.47017,-0.80035c0.9665,0 1.75,0.7835 1.75,1.75c0,0.9665 -0.7835,1.75 -1.75,1.75c-0.3681,0 -0.70965,-0.11365 -0.99148,-0.30777c-0.15535,0.06927 -0.32744,0.10777 -0.50852,0.10777c-0.69036,0 -1.25,-0.55964 -1.25,-1.25z" fill="#7f9dff" stroke="none" stroke-width="0.5"/><path d="M326.66296,240.25c0,-0.04623 0.00251,-0.09187 0.0074,-0.1368c-0.23446,0.69019 -0.88794,1.1868 -1.6574,1.1868c-0.9665,0 -1.75,-0.7835 -1.75,-1.75c0,-0.9665 0.7835,-1.75 1.75,-1.75c0.9665,0 1.75,0.7835 1.75,1.75c0,0.08658 -0.00629,0.17169 -0.01843,0.2549c0.17382,-0.45603 0.60695,-0.78409 1.11916,-0.80394c-0.00048,-0.01693 -0.00073,-0.03391 -0.00073,-0.05095c0,-0.9665 0.7835,-1.75 1.75,-1.75c0.9665,0 1.75,0.7835 1.75,1.75c0,0.9665 -0.7835,1.75 -1.75,1.75c-0.17642,0 -0.34675,-0.02611 -0.50733,-0.07467c-0.15939,0.50697 -0.63309,0.87467 -1.19267,0.87467c-0.69036,0 -1.25,-0.55964 -1.25,-1.25z" fill="#7f9dff" stroke="none" stroke-width="0.5"/><path d="M331.76296,238.95c0,-0.9665 0.7835,-1.75 1.75,-1.75c0.9665,0 1.75,0.7835 1.75,1.75c0,0.9665 -0.7835,1.75 -1.75,1.75c-0.9665,0 -1.75,-0.7835 -1.75,-1.75z" fill="#7f9dff" stroke="none" stroke-width="0.5"/><path d="M340.56296,242.45c0,-0.39315 0.1815,-0.7439 0.46528,-0.97305c-0.16391,-0.02682 -0.32017,-0.07641 -0.46541,-0.14543c0.00009,0.00615 0.00013,0.0123 0.00013,0.01847c0,0.69036 -0.55964,1.25 -1.25,1.25c-0.68037,0 -1.23378,-0.54357 -1.24965,-1.22013c-0.25175,0.14023 -0.54172,0.22013 -0.85035,0.22013c-0.9665,0 -1.75,-0.7835 -1.75,-1.75c0,-0.9665 0.7835,-1.75 1.75,-1.75c0.9665,0 1.75,0.7835 1.75,1.75c0,0.10504 -0.00925,0.20791 -0.02699,0.30785c0.11896,-0.03758 0.24561,-0.05785 0.37699,-0.05785c0.10067,0 0.19856,0.0119 0.29235,0.03437c-0.02772,-0.12369 -0.04235,-0.25232 -0.04235,-0.38437c0,-0.9665 0.7835,-1.75 1.75,-1.75c0.53566,0 1.01511,0.24066 1.33611,0.61977c0.08607,-0.01302 0.17419,-0.01977 0.26389,-0.01977c0.9665,0 1.75,0.7835 1.75,1.75c0,0.9331 -0.73028,1.69563 -1.65048,1.74722c0.03285,0.11188 0.05048,0.23027 0.05048,0.35278c0,0.69036 -0.55964,1.25 -1.25,1.25c-0.69036,0 -1.25,-0.55964 -1.25,-1.25z" fill="#7f9dff" stroke="none" stroke-width="0.5"/><path d="M299.96296,228.05c0,-0.69036 0.55964,-1.25 1.25,-1.25c0.69036,0 1.25,0.55964 1.25,1.25c0,0.69036 -0.55964,1.25 -1.25,1.25c-0.69036,0 -1.25,-0.55964 -1.25,-1.25z" fill="#8a6be6" stroke="none" stroke-width="0.5"/><path d="M302.86296,225.85c0,-0.69036 0.55964,-1.25 1.25,-1.25c0.69036,0 1.25,0.55964 1.25,1.25c0,0.69036 -0.55964,1.25 -1.25,1.25c-0.69036,0 -1.25,-0.55964 -1.25,-1.25z" fill="#8a6be6" stroke="none" stroke-width="0.5"/><path d="M314.46296,225.65c0,-0.69036 0.55964,-1.25 1.25,-1.25c0.69036,0 1.25,0.55964 1.25,1.25c0,0.69036 -0.55964,1.25 -1.25,1.25c-0.69036,0 -1.25,-0.55964 -1.25,-1.25z" fill="#8a6be6" stroke="none" stroke-width="0.5"/><path d="M326.61296,226.7c0.69036,0 1.25,0.55964 1.25,1.25c0,0.69036 -0.55964,1.25 -1.25,1.25c-0.35538,0 -0.67613,-0.14831 -0.90372,-0.3864c-0.21624,0.1789 -0.49371,0.2864 -0.79628,0.2864c-0.69036,0 -1.25,-0.55964 -1.25,-1.25c0,-0.69036 0.55964,-1.25 1.25,-1.25c0.35538,0 0.67613,0.14831 0.90372,0.3864c0.21624,-0.1789 0.49371,-0.2864 0.79628,-0.2864z" fill="#8a6be6" stroke="none" stroke-width="0.5"/><path d="M331.76296,227.45c0,-0.69036 0.55964,-1.25 1.25,-1.25c0.69036,0 1.25,0.55964 1.25,1.25c0,0.69036 -0.55964,1.25 -1.25,1.25c-0.69036,0 -1.25,-0.55964 -1.25,-1.25z" fill="#8a6be6" stroke="none" stroke-width="0.5"/><path d="M306.31296,235.1c0.69036,0 1.25,0.55964 1.25,1.25c0,0.69036 -0.55964,1.25 -1.25,1.25c-0.03832,0 -0.07624,-0.00172 -0.11368,-0.0051c-0.197,0.12966 -0.43285,0.2051 -0.68632,0.2051c-0.69036,0 -1.25,-0.55964 -1.25,-1.25c0,-0.69036 0.55964,-1.25 1.25,-1.25c0.03832,0 0.07624,0.00172 0.11368,0.0051c0.197,-0.12966 0.43285,-0.2051 0.68632,-0.2051z" fill="#7670e6" stroke="none" stroke-width="0.5"/><path d="M327.86296,233.75c0,-0.69036 0.55964,-1.25 1.25,-1.25c0.69036,0 1.25,0.55964 1.25,1.25c0,0.69036 -0.55964,1.25 -1.25,1.25c-0.69036,0 -1.25,-0.55964 -1.25,-1.25z" fill="#7670e6" stroke="none" stroke-width="0.5"/><path d="M330.16296,235.35c0,-0.69036 0.55964,-1.25 1.25,-1.25c0.69036,0 1.25,0.55964 1.25,1.25c0,0.69036 -0.55964,1.25 -1.25,1.25c-0.69036,0 -1.25,-0.55964 -1.25,-1.25z" fill="#7670e6" stroke="none" stroke-width="0.5"/><path d="M334.16296,236.05c0,-0.69036 0.55964,-1.25 1.25,-1.25c0.69036,0 1.25,0.55964 1.25,1.25c0,0.69036 -0.55964,1.25 -1.25,1.25c-0.69036,0 -1.25,-0.55964 -1.25,-1.25z" fill="#7670e6" stroke="none" stroke-width="0.5"/><path d="M339.86296,234.05c0,-0.07272 0.00621,-0.14399 0.01813,-0.21331c-0.149,0.04126 -0.30599,0.06331 -0.46813,0.06331c-0.71556,0 -1.33081,-0.42946 -1.60206,-1.0447c-0.30666,0.50632 -0.86278,0.8447 -1.49794,0.8447c-0.9665,0 -1.75,-0.7835 -1.75,-1.75c0,-0.9665 0.7835,-1.75 1.75,-1.75c0.71556,0 1.33081,0.42946 1.60206,1.0447c0.30666,-0.50632 0.86278,-0.8447 1.49794,-0.8447c0.38873,0 0.74786,0.12675 1.03831,0.34117c0.30901,-0.27447 0.71588,-0.44117 1.16169,-0.44117c0.9665,0 1.75,0.7835 1.75,1.75c0,0.72231 -0.43761,1.34241 -1.06216,1.60964c0.04034,0.12282 0.06216,0.25404 0.06216,0.39036c0,0.69036 -0.55964,1.25 -1.25,1.25c-0.16142,0 -0.3157,-0.0306 -0.45735,-0.08631c0.00486,0.04477 0.00735,0.09025 0.00735,0.13631c0,0.69036 -0.55964,1.25 -1.25,1.25c-0.69036,0 -1.25,-0.55964 -1.25,-1.25c0,-0.69036 0.55964,-1.25 1.25,-1.25c0.16142,0 0.3157,0.0306 0.45735,0.08631c-0.00486,-0.04477 -0.00735,-0.09025 -0.00735,-0.13631z" fill="#7670e6" stroke="none" stroke-width="0.5"/><path d="M321.36296,243.75c0,-0.69036 0.55964,-1.25 1.25,-1.25c0.69036,0 1.25,0.55964 1.25,1.25c0,0.69036 -0.55964,1.25 -1.25,1.25c-0.69036,0 -1.25,-0.55964 -1.25,-1.25z" fill="#7f9dff" stroke="none" stroke-width="0.5"/><path d="M327.66296,244.35c0,-0.69036 0.55964,-1.25 1.25,-1.25c0.69036,0 1.25,0.55964 1.25,1.25c0,0.69036 -0.55964,1.25 -1.25,1.25c-0.69036,0 -1.25,-0.55964 -1.25,-1.25z" fill="#7f9dff" stroke="none" stroke-width="0.5"/><path d="M330.66296,244.05c0,-0.69036 0.55964,-1.25 1.25,-1.25c0.69036,0 1.25,0.55964 1.25,1.25c0,0.69036 -0.55964,1.25 -1.25,1.25c-0.69036,0 -1.25,-0.55964 -1.25,-1.25z" fill="#7f9dff" stroke="none" stroke-width="0.5"/><path d="M334.26296,242.75c0,-0.69036 0.55964,-1.25 1.25,-1.25c0.69036,0 1.25,0.55964 1.25,1.25c0,0.69036 -0.55964,1.25 -1.25,1.25c-0.69036,0 -1.25,-0.55964 -1.25,-1.25z" fill="#7f9dff" stroke="none" stroke-width="0.5"/><path d="M298.56296,244.05c0,-0.69036 0.55964,-1.25 1.25,-1.25c0.69036,0 1.25,0.55964 1.25,1.25c0,0.69036 -0.55964,1.25 -1.25,1.25c-0.69036,0 -1.25,-0.55964 -1.25,-1.25z" fill="#7f9dff" stroke="none" stroke-width="0.5"/><path d="M301.86296,230.15c0,-0.41421 0.33579,-0.75 0.75,-0.75c0.41421,0 0.75,0.33579 0.75,0.75c0,0.41421 -0.33579,0.75 -0.75,0.75c-0.41421,0 -0.75,-0.33579 -0.75,-0.75z" fill="#8a6be6" stroke="none" stroke-width="0.5"/><path d="M313.76296,230.15c0,-0.41421 0.33579,-0.75 0.75,-0.75c0.41421,0 0.75,0.33579 0.75,0.75c0,0.41421 -0.33579,0.75 -0.75,0.75c-0.41421,0 -0.75,-0.33579 -0.75,-0.75z" fill="#8a6be6" stroke="none" stroke-width="0.5"/><path d="M321.46296,230.05c0,-0.41421 0.33579,-0.75 0.75,-0.75c0.41421,0 0.75,0.33579 0.75,0.75c0,0.41421 -0.33579,0.75 -0.75,0.75c-0.41421,0 -0.75,-0.33579 -0.75,-0.75z" fill="#8a6be6" stroke="none" stroke-width="0.5"/><path d="M327.16296,230.75c0,-0.41421 0.33579,-0.75 0.75,-0.75c0.41421,0 0.75,0.33579 0.75,0.75c0,0.41421 -0.33579,0.75 -0.75,0.75c-0.41421,0 -0.75,-0.33579 -0.75,-0.75z" fill="#8a6be6" stroke="none" stroke-width="0.5"/><path d="M335.06296,230.45c0,-0.41421 0.33579,-0.75 0.75,-0.75c0.41421,0 0.75,0.33579 0.75,0.75c0,0.41421 -0.33579,0.75 -0.75,0.75c-0.41421,0 -0.75,-0.33579 -0.75,-0.75z" fill="#8a6be6" stroke="none" stroke-width="0.5"/><path d="M339.86296,232.35c0,-0.41421 0.33579,-0.75 0.75,-0.75c0.41421,0 0.75,0.33579 0.75,0.75c0,0.41421 -0.33579,0.75 -0.75,0.75c-0.41421,0 -0.75,-0.33579 -0.75,-0.75z" fill="#8a6be6" stroke="none" stroke-width="0.5"/><path d="M300.46296,236.85c0,-0.41421 0.33579,-0.75 0.75,-0.75c0.41421,0 0.75,0.33579 0.75,0.75c0,0.41421 -0.33579,0.75 -0.75,0.75c-0.41421,0 -0.75,-0.33579 -0.75,-0.75z" fill="#7670e6" stroke="none" stroke-width="0.5"/><path d="M306.26296,239.35c0,-0.41421 0.33579,-0.75 0.75,-0.75c0.41421,0 0.75,0.33579 0.75,0.75c0,0.41421 -0.33579,0.75 -0.75,0.75c-0.41421,0 -0.75,-0.33579 -0.75,-0.75z" fill="#7670e6" stroke="none" stroke-width="0.5"/><path d="M313.96296,236.55c0,-0.41421 0.33579,-0.75 0.75,-0.75c0.41421,0 0.75,0.33579 0.75,0.75c0,0.41421 -0.33579,0.75 -0.75,0.75c-0.41421,0 -0.75,-0.33579 -0.75,-0.75z" fill="#7670e6" stroke="none" stroke-width="0.5"/><path d="M323.06296,235.65c0,-0.41421 0.33579,-0.75 0.75,-0.75c0.41421,0 0.75,0.33579 0.75,0.75c0,0.41421 -0.33579,0.75 -0.75,0.75c-0.41421,0 -0.75,-0.33579 -0.75,-0.75z" fill="#7670e6" stroke="none" stroke-width="0.5"/><path d="M331.46296,238.15c0,-0.41421 0.33579,-0.75 0.75,-0.75c0.41421,0 0.75,0.33579 0.75,0.75c0,0.41421 -0.33579,0.75 -0.75,0.75c-0.41421,0 -0.75,-0.33579 -0.75,-0.75z" fill="#7670e6" stroke="none" stroke-width="0.5"/><path d="M338.86296,239.75c0,-0.41421 0.33579,-0.75 0.75,-0.75c0.41421,0 0.75,0.33579 0.75,0.75c0,0.41421 -0.33579,0.75 -0.75,0.75c-0.41421,0 -0.75,-0.33579 -0.75,-0.75z" fill="#7670e6" stroke="none" stroke-width="0.5"/><path d="M341.16296,237.65c0,-0.41421 0.33579,-0.75 0.75,-0.75c0.41421,0 0.75,0.33579 0.75,0.75c0,0.41421 -0.33579,0.75 -0.75,0.75c-0.41421,0 -0.75,-0.33579 -0.75,-0.75z" fill="#7670e6" stroke="none" stroke-width="0.5"/><path d="M301.56296,246.05c0,-0.41421 0.33579,-0.75 0.75,-0.75c0.41421,0 0.75,0.33579 0.75,0.75c0,0.41421 -0.33579,0.75 -0.75,0.75c-0.41421,0 -0.75,-0.33579 -0.75,-0.75z" fill="#7f9dff" stroke="none" stroke-width="0.5"/><path d="M309.26296,245.95c0,-0.41421 0.33579,-0.75 0.75,-0.75c0.41421,0 0.75,0.33579 0.75,0.75c0,0.41421 -0.33579,0.75 -0.75,0.75c-0.41421,0 -0.75,-0.33579 -0.75,-0.75z" fill="#7f9dff" stroke="none" stroke-width="0.5"/><path d="M314.36296,252.25c0,-0.41421 0.33579,-0.75 0.75,-0.75c0.41421,0 0.75,0.33579 0.75,0.75c0,0.41421 -0.33579,0.75 -0.75,0.75c-0.41421,0 -0.75,-0.33579 -0.75,-0.75z" fill="#7f9dff" stroke="none" stroke-width="0.5"/><path d="M320.46296,248.95c0,-0.41421 0.33579,-0.75 0.75,-0.75c0.41421,0 0.75,0.33579 0.75,0.75c0,0.41421 -0.33579,0.75 -0.75,0.75c-0.41421,0 -0.75,-0.33579 -0.75,-0.75z" fill="#7f9dff" stroke="none" stroke-width="0.5"/><path d="M325.96296,246.85c0,-0.41421 0.33579,-0.75 0.75,-0.75c0.41421,0 0.75,0.33579 0.75,0.75c0,0.41421 -0.33579,0.75 -0.75,0.75c-0.41421,0 -0.75,-0.33579 -0.75,-0.75z" fill="#7f9dff" stroke="none" stroke-width="0.5"/><path d="M331.26296,248.35c0,-0.41421 0.33579,-0.75 0.75,-0.75c0.41421,0 0.75,0.33579 0.75,0.75c0,0.41421 -0.33579,0.75 -0.75,0.75c-0.41421,0 -0.75,-0.33579 -0.75,-0.75z" fill="#7f9dff" stroke="none" stroke-width="0.5"/><path d="M337.56296,249.75c0,-0.41421 0.33579,-0.75 0.75,-0.75c0.41421,0 0.75,0.33579 0.75,0.75c0,0.41421 -0.33579,0.75 -0.75,0.75c-0.41421,0 -0.75,-0.33579 -0.75,-0.75z" fill="#7f9dff" stroke="none" stroke-width="0.5"/><path d="M342.56296,246.25c0,-0.41421 0.33579,-0.75 0.75,-0.75c0.41421,0 0.75,0.33579 0.75,0.75c0,0.41421 -0.33579,0.75 -0.75,0.75c-0.41421,0 -0.75,-0.33579 -0.75,-0.75z" fill="#7f9dff" stroke="none" stroke-width="0.5"/></g><path d="" fill="none" stroke="#000000" stroke-width="0" stroke-linecap="round"/><g><path d="M255.66416,148.57225c0,-26.22326 17.23443,-38.95992 42.13774,-47.26099c6.72229,-2.24075 15.15687,3.12361 22.69784,3.12361c35.47713,0 63.63847,10.83554 63.63847,44.13739c0,33.30185 -28.75989,60.29834 -64.23702,60.29834c-35.47712,0 -64.23702,-26.99649 -64.23702,-60.29834z" fill="#91aaff" stroke="#000000" stroke-width="0" stroke-linecap="butt"/><g stroke-width="0" stroke-linecap="butt"><path d="M268.99199,148.84787c0,-12.96801 10.51265,-23.48065 23.48066,-23.48065c12.96801,0 23.48065,10.51264 23.48065,23.48065c0,12.96801 -10.51264,23.48066 -23.48065,23.48066c-12.96801,0 -23.48066,-10.51265 -23.48066,-23.48066z" fill="url(#color-1)" stroke="#000000"/><path d="M269.84332,168.22565l2.75625,-6.95012c0,0 1.44231,1.8498 2.25681,2.78148c0.96139,1.09971 3.34428,3.39665 3.34428,3.39665z" fill="#000000" stroke="none"/></g><g stroke-width="0" stroke-linecap="butt"><path d="M346.73111,172.32855c-12.96801,0 -23.48065,-10.51265 -23.48065,-23.48066c0,-12.96801 10.51264,-23.48065 23.48065,-23.48065c12.96801,0 23.48066,10.51264 23.48066,23.48065c0,12.96801 -10.51265,23.48066 -23.48066,23.48066z" fill="url(#color-2)" stroke="#000000"/><path d="M358.62169,169.34599c0,0 2.11541,-1.30906 3.06683,-2.25696c1.09528,-1.09123 3.53426,-3.72117 3.53426,-3.72117l1.63295,7.49899z" fill="#000000" stroke="none"/></g><path d="M271.61573,149.49545c0,-7.03728 5.70483,-12.74213 12.74212,-12.74213c7.03728,0 12.74213,5.70484 12.74213,12.74214c0,7.03728 -5.70484,12.74214 -12.74213,12.74214c-7.03728,0 -12.74212,-5.70484 -12.74212,-12.74214z" fill="#000000" stroke="#000000" stroke-width="0" stroke-linecap="butt"/><path d="M367.34216,147.71081c0,5.61713 -4.55357,10.17071 -10.17069,10.17071c-5.61712,0 -10.1707,-4.55359 -10.1707,-10.17071c0,-5.61713 4.55358,-10.17071 10.1707,-10.17071c5.61712,0 10.17069,4.55358 10.17069,10.1707z" fill="#000000" stroke="#000000" stroke-width="0" stroke-linecap="butt"/><path d="M309.77745,198.70341l-4.06667,-5.4l30.40359,-1.56436l-2.83692,6.66436z" fill="#ffffff" stroke="#000000" stroke-width="1" stroke-linecap="round"/></g><g><path d="M282.33441,179.02929c11.13801,14.77334 23.13969,26.86794 18.58274,30.30355c-4.55695,3.43561 -13.61357,-7.08877 -24.75158,-21.86211c-11.13801,-14.77334 -34.22083,-40.40464 -24.91607,-44.30355c5.77413,-2.4195 13.55944,9.54769 21.61956,21.9551c3.14769,4.84541 6.33728,9.75796 9.46536,13.90702z" fill="#9cd0ff" stroke="none" stroke-width="0" stroke-linecap="butt"/><path d="M345.82923,205.393c0,9.90223 -11.78398,8.27519 -26.60439,8.27519c-14.82041,0 -27.06507,1.62704 -27.06507,-8.27519c0,-9.90223 12.70535,-4.1376 27.52576,-4.1376c14.82041,0 26.14371,-5.76464 26.14371,4.1376z" fill="#9cd0ff" stroke="#000000" stroke-width="0" stroke-linecap="butt"/><path d="M274.39917,186.18597c14.01935,12.07331 30.98091,20.01228 27.2568,24.33665c-3.72411,4.32438 -16.47447,-3.03843 -30.49382,-15.11174c-14.01935,-12.07331 -37.34892,-43.55584 -29.08346,-49.34049c7.13227,-4.99157 18.30113,28.04227 32.32048,40.11558z" fill="#9cd0ff" stroke="none" stroke-width="0" stroke-linecap="butt"/><path d="M389.6127,142.83384c9.30476,3.89891 -13.77806,29.53021 -24.91607,44.30355c-11.13801,14.77334 -20.19463,25.29772 -24.75158,21.86211c-4.55695,-3.43561 7.44473,-15.53021 18.58274,-30.30355c11.13801,-14.77334 23.05584,-39.22648 31.08492,-35.86211z" fill="#9cd0ff" stroke="none" stroke-width="0" stroke-linecap="butt"/><path d="M398.78351,145.73706c8.26546,5.78465 -15.06411,37.26718 -29.08346,49.34049c-14.01935,12.07331 -26.76971,19.43612 -30.49382,15.11174c-3.72411,-4.32438 13.23745,-12.26334 27.2568,-24.33665c14.01935,-12.07331 25.18821,-45.10714 32.32047,-40.11558z" fill="#9cd0ff" stroke="none" stroke-width="0" stroke-linecap="butt"/><path d="M292.22458,233.39571c-6.61123,11.54091 -12.90895,20.04285 -17.61081,17.66571c-4.39314,-2.22105 -0.28066,-12.58671 6.33057,-24.12762c6.61123,-11.54091 15.19542,-23.08081 19.94415,-20.83238c2.56528,1.21461 1.51537,6.21254 -1.09319,12.431c-1.94239,4.63039 -4.74898,9.93752 -7.57072,14.86329z" fill="#9cd0ff" stroke="none" stroke-width="0" stroke-linecap="butt"/><path d="M298.51493,234.05943c-3.52557,12.82464 -7.50509,22.62809 -12.6511,21.49809c-4.80812,-1.0558 -3.40944,-12.1194 0.11613,-24.94403c3.52557,-12.82464 7.99179,-26.49176 13.1511,-25.49809c4.86239,0.93649 2.90945,16.11939 -0.61613,28.94403z" fill="#9cd0ff" stroke="none" stroke-width="0" stroke-linecap="butt"/><path d="M340.9815,208.43476c4.74872,-2.24842 10.99958,6.12481 17.61081,17.66572c6.61123,11.54091 10.72371,21.90657 6.33058,24.12762c-4.70186,2.37714 -10.99959,-6.12481 -17.61082,-17.66572c-6.61123,-11.54091 -10.806,-22.00859 -6.33057,-24.12762z" fill="#9cd0ff" stroke="none" stroke-width="0" stroke-linecap="butt"/><path d="M339.40559,205.28206c5.15931,-0.99367 10.79219,11.67345 14.31777,24.49809c3.52558,12.82464 4.92424,23.88823 0.11613,24.94403c-5.14601,1.13 -9.12553,-8.67345 -12.6511,-21.49809c-3.52558,-12.82463 -6.64518,-27.00754 -1.78279,-27.94403z" fill="#9cd0ff" stroke="none" stroke-width="0" stroke-linecap="butt"/><path d="M340.24412,203.1c0,0 -10.99097,3.71709 -17.4828,4.97155c-7.22878,1.39687 -26.71721,2.42845 -26.71721,2.42845" fill="none" stroke="#7dbcf3" stroke-width="1" stroke-linecap="round"/></g><g stroke="#000000"><path d="M216.76312,156.03976c-3.93802,-3.23471 -8.3025,-7.48562 -8.59382,-10.63191c-0.53764,-5.80658 12.81291,-7.68774 12.81291,-7.68774c0,0 -3.33004,-16.9201 5.08682,-20.73574c8.41686,-3.81564 17.7749,-1.41087 17.7749,-1.41087c0,0 4.63689,-12.82252 15.12583,-19.72314c5.36443,-3.52923 13.2658,-4.45715 18.58061,-2.94593c5.0771,1.44363 7.69313,5.25409 7.69313,5.25409c0,0 1.00292,-5.66588 3.80378,-7.07039c2.80086,-1.4045 7.99653,1.15308 7.99653,1.15308c0,0 4.86373,-7.95242 9.80389,-8.00896c4.94016,-0.05655 13.22099,7.74541 13.22099,7.74541" fill="#d8fdff" stroke-width="0" stroke-linecap="round"/><path d="M319.93129,91.97766c0,0 8.28083,-7.80196 13.22099,-7.74541c4.94016,0.05655 9.8039,8.00897 9.8039,8.00897c0,0 5.19567,-2.55759 7.99653,-1.15309c2.80086,1.4045 3.80378,7.07039 3.80378,7.07039c0,0 2.61603,-3.81046 7.69313,-5.25409c5.31481,-1.51122 13.21618,-0.58331 18.58061,2.94593c10.48894,6.90062 15.12583,19.72314 15.12583,19.72314c0,0 9.35804,-2.40477 17.7749,1.41087c8.41686,3.81564 5.08682,20.73574 5.08682,20.73574c0,0 13.35055,1.88116 12.81291,7.68774c-0.29132,3.14629 -4.6558,7.3972 -8.59382,10.63191" fill="#d8fdff" stroke-width="0" stroke-linecap="round"/><path d="M232.66121,153.28845c0,0 4.36148,-19.90417 10.95553,-28.07944c8.13066,-10.08036 51.25009,-28.79126 51.25009,-28.79126c0,0 20.35987,-3.58583 26.50558,-4.21724c3.51122,-0.36074 7.12421,0.76212 7.12421,0.76212c0,0 53.06763,28.10066 64.05902,38.64259c9.41872,9.03356 19.74992,21.98251 19.74992,21.98251c0,0 -67.34347,-4.88257 -89.7978,-4.88257c-23.49034,0 -72.78777,3.68546 -72.78777,3.68546z" fill="#d8fdff" stroke-width="0" stroke-linecap="butt"/><path d="M232.25147,153.33365c0,0 59.68115,-4.59179 89.78106,-4.49261c30.44971,0.10033 91.87993,5.09116 91.87993,5.09116" fill="none" stroke-width="1" stroke-linecap="round"/></g></g></g></svg>