<svg version="1.1" xmlns="http://www.w3.org/2000/svg" xmlns:xlink="http://www.w3.org/1999/xlink" width="34.17311" height="34.17311" viewBox="0,0,34.17311,34.17311"><g transform="translate(-302.91345,-162.91346)"><g stroke-miterlimit="10"><path d="M309.98312,162.91347h20.03379c3.9166,0 7.06966,3.15307 7.06966,7.06966v20.03379c0,3.91659 -3.15306,7.06966 -7.06966,7.06966h-20.03379c-3.91659,0 -7.06966,-3.15307 -7.06966,-7.06966v-20.03379c0,-3.91659 3.15307,-7.06966 7.06966,-7.06966z" fill="#8b21e0" fill-rule="evenodd" stroke="none" stroke-width="4.43922" stroke-linecap="round" stroke-linejoin="round"/><path d="" fill="#6719a7" fill-rule="nonzero" stroke="#000000" stroke-width="2" stroke-linecap="butt" stroke-linejoin="miter"/><path d="" fill="#6719a7" fill-rule="nonzero" stroke="#000000" stroke-width="2" stroke-linecap="butt" stroke-linejoin="miter"/><path d="" fill="#8b21e0" fill-rule="nonzero" stroke="#000000" stroke-width="2" stroke-linecap="butt" stroke-linejoin="miter"/><path d="" fill="none" fill-rule="nonzero" stroke="#000000" stroke-width="2" stroke-linecap="round" stroke-linejoin="miter"/><path d="M329.54573,184.23674l3.97089,-3.78902c0,0 -0.16902,2.85634 -0.04365,3.96555c0.09307,0.82347 0.72824,2.0916 0.72824,2.0916c0,0 -0.07415,0.17851 -0.18726,0.4598c-1.5622,-0.00451 -3.1244,-0.00795 -4.6866,-0.01035z" fill="#6719a7" fill-rule="nonzero" stroke="#000000" stroke-width="3" stroke-linecap="butt" stroke-linejoin="miter"/><path d="M332.33444,184.47923l-2.09154,0.78812" fill="none" fill-rule="nonzero" stroke="#4b1797" stroke-width="2" stroke-linecap="round" stroke-linejoin="miter"/><path d="M305.79879,186.50486c0,0 0.63517,-1.26813 0.72824,-2.0916c0.12537,-1.1092 -0.04365,-3.96555 -0.04365,-3.96555l3.97089,3.78902l0.21998,2.73751c-1.55882,0.0056 -3.11764,0.01217 -4.67645,0.01967c-0.1197,-0.2981 -0.19901,-0.48905 -0.19901,-0.48905z" fill="#6719a7" fill-rule="nonzero" stroke="#000000" stroke-width="3" stroke-linecap="butt" stroke-linejoin="miter"/><path d="M307.66556,184.47923l2.09154,0.78812" fill="none" fill-rule="nonzero" stroke="#4b1797" stroke-width="2" stroke-linecap="round" stroke-linejoin="miter"/><path d="M319.99933,176.93934c5.98282,0 10.8581,4.45122 11.07238,10.01809c-7.38188,-0.01501 -14.76383,-0.00641 -22.14564,0.0235c0.20144,-5.57784 5.08202,-10.04159 11.07326,-10.04159z" fill="#8b21e0" fill-rule="nonzero" stroke="#000000" stroke-width="3" stroke-linecap="butt" stroke-linejoin="miter"/><path d="M315.0383,179.00789c0.46881,1.43224 -1.11284,2.28857 -2.48559,2.28857c-0.54538,0 -3.47417,-0.52601 -3.95322,-2.10333c-0.72676,-2.39293 1.10388,-6.18703 1.10388,-6.18703c0,0 0.5082,2.96236 2.06082,4.6337c0.97633,1.05098 2.90448,0.23884 3.27412,1.3681z" fill="#6719a7" fill-rule="nonzero" stroke="#000000" stroke-width="3" stroke-linecap="butt" stroke-linejoin="miter"/><path d="M328.23362,177.63979c1.55262,-1.67134 2.06082,-4.6337 2.06082,-4.6337c0,0 1.83064,3.79411 1.10388,6.18704c-0.47905,1.57732 -3.40784,2.10333 -3.95322,2.10333c-1.37276,0 -2.95441,-0.85633 -2.48559,-2.28857c0.36964,-1.12926 2.29779,-0.31712 3.27412,-1.3681z" fill="#6719a7" fill-rule="nonzero" stroke="#000000" stroke-width="3" stroke-linecap="butt" stroke-linejoin="miter"/><path d="M329.54573,184.23674l3.97089,-3.78902c0,0 -0.16902,2.85634 -0.04365,3.96555c0.09307,0.82347 0.72824,2.0916 0.72824,2.0916c0,0 -0.07415,0.17851 -0.18726,0.4598c-1.5622,-0.00451 -3.1244,-0.00795 -4.6866,-0.01035z" fill="#6719a7" fill-rule="nonzero" stroke="#000000" stroke-width="0" stroke-linecap="butt" stroke-linejoin="miter"/><path d="M332.33444,184.47923l-2.09154,0.78812" fill="none" fill-rule="nonzero" stroke="#4b1797" stroke-width="1" stroke-linecap="round" stroke-linejoin="miter"/><path d="M305.79879,186.50486c0,0 0.63517,-1.26813 0.72824,-2.0916c0.12537,-1.1092 -0.04365,-3.96555 -0.04365,-3.96555l3.97089,3.78902l0.21998,2.73751c-1.55882,0.0056 -3.11764,0.01217 -4.67645,0.01967c-0.1197,-0.2981 -0.19901,-0.48905 -0.19901,-0.48905z" fill="#6719a7" fill-rule="nonzero" stroke="#000000" stroke-width="0" stroke-linecap="butt" stroke-linejoin="miter"/><path d="M307.66556,184.47923l2.09154,0.78812" fill="none" fill-rule="nonzero" stroke="#4b1797" stroke-width="1" stroke-linecap="round" stroke-linejoin="miter"/><path d="M319.99933,176.93934c5.98282,0 10.8581,4.45122 11.07238,10.01809c-7.38188,-0.01501 -14.76383,-0.00641 -22.14564,0.0235c0.20144,-5.57784 5.08202,-10.04159 11.07326,-10.04159z" fill="#8b21e0" fill-rule="nonzero" stroke="#000000" stroke-width="0" stroke-linecap="butt" stroke-linejoin="miter"/><path d="M315.0383,179.00789c0.46881,1.43224 -1.11284,2.28857 -2.48559,2.28857c-0.54538,0 -3.47417,-0.52601 -3.95322,-2.10333c-0.72676,-2.39293 1.10388,-6.18703 1.10388,-6.18703c0,0 0.5082,2.96236 2.06082,4.6337c0.97633,1.05098 2.90448,0.23884 3.27412,1.3681z" fill="#6719a7" fill-rule="nonzero" stroke="#000000" stroke-width="0" stroke-linecap="butt" stroke-linejoin="miter"/><path d="M328.23362,177.63979c1.55262,-1.67134 2.06082,-4.6337 2.06082,-4.6337c0,0 1.83064,3.79411 1.10388,6.18704c-0.47905,1.57732 -3.40784,2.10333 -3.95322,2.10333c-1.37276,0 -2.95441,-0.85633 -2.48559,-2.28857c0.36964,-1.12926 2.29779,-0.31712 3.27412,-1.3681z" fill="#6719a7" fill-rule="nonzero" stroke="#000000" stroke-width="0" stroke-linecap="butt" stroke-linejoin="miter"/><path d="M303.93488,189.71104v-2.81517h31.74884v2.81517z" fill="#8b21e0" fill-rule="nonzero" stroke="none" stroke-width="0" stroke-linecap="butt" stroke-linejoin="miter"/></g></g></svg>