<svg version="1.1" xmlns="http://www.w3.org/2000/svg" xmlns:xlink="http://www.w3.org/1999/xlink" width="213.18203" height="281.18476" viewBox="0,0,213.18203,281.18476"><defs><linearGradient x1="320.08742" y1="187.07227" x2="320.08742" y2="244.23177" gradientUnits="userSpaceOnUse" id="color-1"><stop offset="0" stop-color="#3e3e3e"/><stop offset="1" stop-color="#3e3e3e" stop-opacity="0"/></linearGradient></defs><g transform="translate(-214.78369,-38.88751)"><g stroke-miterlimit="10"><g stroke="#000000" stroke-linecap="butt"><path d="M286.35186,319.07226l15.14285,-131.8421l37.78325,-0.15789l13.57389,132z" fill="#808080" stroke-width="0"/><path d="M295.01902,243.61117l6.47569,-56.38101l37.78325,-0.15789l5.87786,57.15951z" fill="url(#color-1)" stroke-width="0"/><path d="M286.35186,319.07226l15.14285,-131.8421l37.78325,-0.15789l13.57389,132z" fill="none" stroke-width="2"/></g><path d="M214.78369,306.61252v-267.72501h213.18203v267.72501z" fill="none" stroke="none" stroke-width="0" stroke-linecap="butt"/><path d="" fill="none" stroke="#000000" stroke-width="2" stroke-linecap="round"/><g><path d="M343.07609,109.38636c0,0 35.50261,-13.06503 48.36536,-17.22711c8.16272,-2.64127 21.34645,-5.33 21.34645,-5.33c0,0 -10.07251,14.19708 -15.21198,22.44668c-5.9106,9.48737 -18.2627,31.28502 -18.2627,31.28502z" fill="#656565" stroke="#000000" stroke-width="2" stroke-linecap="butt"/><path d="M254.90505,136.24301c0,0 -12.3521,-21.79765 -18.2627,-31.28502c-5.13947,-8.24959 -15.21197,-22.44667 -15.21197,-22.44667c0,0 13.18373,2.68873 21.34645,5.33c12.86274,4.16208 48.36536,17.22711 48.36536,17.22711z" fill="#656565" stroke="#000000" stroke-width="2" stroke-linecap="butt"/><path d="M252.39113,153.0329c0,-33.30185 28.7599,-60.29833 64.23702,-60.29833c35.47713,0 64.23702,26.99648 64.23702,60.29833c0,33.30185 -28.75989,60.29834 -64.23702,60.29834c-35.47712,0 -64.23702,-26.99649 -64.23702,-60.29834z" fill="#808080" stroke="#000000" stroke-width="2" stroke-linecap="butt"/><path d="M266.01823,156.56038c0,-12.96801 10.51265,-23.48065 23.48066,-23.48065c12.96801,0 23.48065,10.51264 23.48065,23.48065c0,12.96801 -10.51264,23.48066 -23.48065,23.48066c-12.96801,0 -23.48066,-10.51265 -23.48066,-23.48066z" fill-opacity="0.30588" fill="#000000" stroke="#000000" stroke-width="0" stroke-linecap="butt"/><path d="M343.75736,180.04106c-12.96801,0 -23.48065,-10.51265 -23.48065,-23.48066c0,-12.96801 10.51264,-23.48065 23.48065,-23.48065c12.96801,0 23.48066,10.51264 23.48066,23.48065c0,12.96801 -10.51265,23.48066 -23.48066,23.48066z" fill-opacity="0.30588" fill="#000000" stroke="#000000" stroke-width="0" stroke-linecap="butt"/><path d="M266.01823,153.30851c0,-12.96801 10.51265,-23.48065 23.48066,-23.48065c12.96801,0 23.48065,10.51264 23.48065,23.48065c0,12.96801 -10.51264,23.48066 -23.48065,23.48066c-12.96801,0 -23.48066,-10.51265 -23.48066,-23.48066z" fill="#ffffff" stroke="#000000" stroke-width="2" stroke-linecap="butt"/><path d="M277.64489,154.09896c0,-8.29964 6.72818,-15.02784 15.02783,-15.02784c8.29964,0 15.02784,6.72819 15.02784,15.02785c0,8.29964 -6.72819,15.02785 -15.02784,15.02785c-8.29964,0 -15.02783,-6.72819 -15.02783,-15.02785z" fill="#ffffff" stroke="#000000" stroke-width="5" stroke-linecap="butt"/><path d="M343.75736,176.7892c-12.96801,0 -23.48065,-10.51265 -23.48065,-23.48066c0,-12.96801 10.51264,-23.48065 23.48065,-23.48065c12.96801,0 23.48066,10.51264 23.48066,23.48065c0,12.96801 -10.51265,23.48066 -23.48066,23.48066z" fill="#ffffff" stroke="#000000" stroke-width="2" stroke-linecap="butt"/><path d="M362.05646,153.88575c0,8.29966 -6.72818,15.02785 -15.02783,15.02785c-8.29964,0 -15.02784,-6.72821 -15.02784,-15.02785c0,-8.29966 6.7282,-15.02785 15.02784,-15.02785c8.29964,0 15.02783,6.7282 15.02783,15.02784z" fill="#ffffff" stroke="#000000" stroke-width="5" stroke-linecap="butt"/><path d="M275.50237,125.9039c0,0 7.65992,-3.61335 12.8859,-3.69086c5.22598,-0.0775 11.89856,3.32328 11.89856,3.32328c0,0 -7.83891,-1.77944 -11.87477,-1.71958c-4.21762,0.06256 -12.90969,2.08715 -12.90969,2.08715z" fill="#000000" stroke="none" stroke-width="0" stroke-linecap="butt"/><path d="M343.37726,125.44121c-4.0356,-0.07481 -11.88106,1.67559 -11.88106,1.67559c0,0 6.68512,-3.37606 11.91078,-3.2792c5.22565,0.09686 12.87214,3.73857 12.87214,3.73857c0,0 -8.68451,-2.05679 -12.90187,-2.13496z" fill="#000000" stroke="none" stroke-width="0" stroke-linecap="butt"/><path d="M304.35833,203.21984c0,0 2.80055,-0.60098 5.11079,-0.57502c3.50358,0.03936 17.91597,1.21465 17.91597,1.21465" fill="none" stroke="#000000" stroke-width="2" stroke-linecap="round"/><path d="M266.01823,153.30851c0,-12.96801 10.51265,-23.48065 23.48066,-23.48065c12.96801,0 23.48065,10.51264 23.48065,23.48065c0,1.60737 -46.96131,1.63444 -46.96131,0z" fill="#000000" stroke="#000000" stroke-width="2" stroke-linecap="butt"/><path d="M320.27671,153.30854c0,-12.96801 10.51264,-23.48065 23.48065,-23.48065c12.96801,0 23.48066,10.51264 23.48066,23.48065c0,3.32025 -46.96131,3.16117 -46.96131,0z" fill="#000000" stroke="#000000" stroke-width="2" stroke-linecap="butt"/><path d="M269.81869,185.16362c0,-0.55229 0.44772,-1 1,-1c0.55228,0 1,0.44771 1,1c0,0.55229 -0.44772,1 -1,1c-0.55228,0 -1,-0.44771 -1,-1z" fill="#000000" stroke="none" stroke-width="0.5" stroke-linecap="butt"/><path d="M281.41759,182.17602c0,-0.55229 0.44772,-1 1,-1c0.55228,0 1,0.44771 1,1c0,0.55229 -0.44772,1 -1,1c-0.55228,0 -1,-0.44771 -1,-1z" fill="#000000" stroke="none" stroke-width="0.5" stroke-linecap="butt"/><path d="M277.02406,193.95066c0,-0.55229 0.44772,-1 1,-1c0.55228,0 1,0.44771 1,1c0,0.55229 -0.44772,1 -1,1c-0.55228,0 -1,-0.44771 -1,-1z" fill="#000000" stroke="none" stroke-width="0.5" stroke-linecap="butt"/><path d="M346.61745,183.40621c0,-0.55229 0.44772,-1 1,-1c0.55228,0 1,0.44771 1,1c0,0.55229 -0.44772,1 -1,1c-0.55228,0 -1,-0.44771 -1,-1z" fill="#000000" stroke="none" stroke-width="0.5" stroke-linecap="butt"/><path d="M361.37968,186.3938c0,-0.55229 0.44772,-1 1,-1c0.55228,0 1,0.44771 1,1c0,0.55229 -0.44772,1 -1,1c-0.55228,0 -1,-0.44771 -1,-1z" fill="#000000" stroke="none" stroke-width="0.5" stroke-linecap="butt"/><path d="M346.61745,197.28974c0,-0.55229 0.44772,-1 1,-1c0.55228,0 1,0.44771 1,1c0,0.55229 -0.44772,1 -1,1c-0.55228,0 -1,-0.44771 -1,-1z" fill="#000000" stroke="none" stroke-width="0.5" stroke-linecap="butt"/></g></g></g></svg>