<svg version="1.1" xmlns="http://www.w3.org/2000/svg" xmlns:xlink="http://www.w3.org/1999/xlink" width="213.18203" height="305.34657" viewBox="0,0,213.18203,305.34657"><defs><linearGradient x1="320.08742" y1="187.07227" x2="320.08742" y2="244.23177" gradientUnits="userSpaceOnUse" id="color-1"><stop offset="0" stop-color="#671d06"/><stop offset="1" stop-color="#671d06" stop-opacity="0"/></linearGradient><radialGradient cx="315.51415" cy="35.73509" r="64.30757" gradientUnits="userSpaceOnUse" id="color-2"><stop offset="0" stop-color="#a4aeae"/><stop offset="1" stop-color="#767d7d"/></radialGradient></defs><g transform="translate(-214.52362,-14.7257)"><g stroke-miterlimit="10"><g stroke="#000000" stroke-linecap="butt"><path d="M286.35186,319.07226l15.14285,-131.8421l37.78325,-0.15789l13.57389,132z" fill="#9c4209" stroke-width="0"/><path d="M295.01902,243.61117l6.47569,-56.38101l37.78325,-0.15789l5.87786,57.15951z" fill="url(#color-1)" stroke-width="0"/><path d="M286.35186,319.07226l15.14285,-131.8421l37.78325,-0.15789l13.57389,132z" fill="none" stroke-width="2"/></g><path d="M214.52362,306.61251v-291.88681h213.18203v291.88681z" fill="none" stroke="none" stroke-width="0" stroke-linecap="butt"/><path d="" fill="none" stroke="#000000" stroke-width="2" stroke-linecap="round"/><g><path d="M240.28966,153.13849c0.40675,-33.29937 29.49424,-59.94257 64.9687,-59.50926c35.47449,0.43331 63.90249,27.77905 63.49575,61.07842c-0.40675,33.29937 -29.49423,59.94257 -64.9687,59.50927c-35.47448,-0.43331 -63.90249,-27.77906 -63.49575,-61.07843z" fill="#9c4209" stroke="#000000" stroke-width="2" stroke-linecap="butt"/><path d="M253.91239,153.58053c0.15839,-12.96704 10.79866,-23.3505 23.76569,-23.1921c12.96704,0.15839 23.3505,10.79865 23.19211,23.76568c-0.15839,12.96704 -10.79865,23.3505 -23.76568,23.19212c-12.96704,-0.15839 -23.35051,-10.79866 -23.19211,-23.76569z" fill="#ffffff" stroke="#000000" stroke-width="2" stroke-linecap="butt"/><path d="M257.93612,158.85203c0.10137,-8.29903 6.91124,-14.94454 15.21024,-14.84317c8.29903,0.10137 14.94455,6.91125 14.84317,15.21026c-0.10137,8.29903 -6.91124,14.94456 -15.21025,14.84318c-8.29903,-0.10137 -14.94454,-6.91125 -14.84316,-15.21027z" fill="#000000" stroke="#000000" stroke-width="5" stroke-linecap="butt"/><path d="M331.35891,178.00897c-12.96704,-0.15839 -23.3505,-10.79866 -23.1921,-23.76569c0.15839,-12.96704 10.79865,-23.3505 23.76569,-23.1921c12.96704,0.15839 23.3505,10.79865 23.19212,23.76568c-0.15839,12.96704 -10.79866,23.35051 -23.76569,23.19211z" fill="#ffffff" stroke="#000000" stroke-width="2" stroke-linecap="butt"/><path d="M338.13091,149.69873c-0.09259,7.58056 -6.31289,13.65074 -13.89345,13.55815c-7.58053,-0.09259 -13.65074,-6.31292 -13.55814,-13.89347c0.09259,-7.58056 6.31291,-13.65074 13.89346,-13.55815c7.58053,0.09259 13.65073,6.31291 13.55813,13.89345z" fill="#000000" stroke="#000000" stroke-width="5" stroke-linecap="butt"/><path d="M263.20219,128.45046c0,0 7.0918,-4.63003 12.25772,-5.42375c5.16592,-0.79373 12.24198,1.65951 12.24198,1.65951c0,0 -8.00891,-0.68721 -11.9984,-0.07424c-4.16915,0.64057 -12.50129,3.83849 -12.50129,3.83849z" fill="#000000" stroke="none" stroke-width="0" stroke-linecap="butt"/><path d="M333.09179,123.22328c-4.03392,0.13842 -11.77598,2.30071 -11.77598,2.30071c0,0 6.4975,-3.72438 11.72097,-3.90363c5.22347,-0.17926 13.05162,3.05356 13.05162,3.05356c0,0 -8.78101,-1.59527 -12.99661,-1.45062z" fill="#000000" stroke="none" stroke-width="0" stroke-linecap="butt"/><g stroke="#000000" stroke-linecap="round"><path d="M366.20266,146.76333c0,0 -17.07999,7.23314 -55.67352,-6.29264c-33.84238,-11.86065 -52.07126,-29.22426 -52.07126,-29.22426l49.396,-87.50086c0,0 22.35836,-1.88568 43.71911,4.60511c30.01465,9.12039 36.28949,19.04881 36.28949,19.04881z" fill="url(#color-2)" stroke-width="2"/><path d="M366.20266,146.76333c0,0 -17.07999,7.23314 -55.67352,-6.29264c-33.84238,-11.86065 -52.07126,-29.22426 -52.07126,-29.22426c0,0 55.88375,16.51771 90.13755,17.74121c15.49895,0.5536 28.13443,-37.28069 28.13443,-37.28069l-10.52721,55.05636z" fill-opacity="0.3451" fill="#4d5252" stroke-width="0"/><path d="M366.20266,146.76333c0,0 -17.07999,7.23314 -55.67352,-6.29264c-33.84238,-11.86065 -52.07126,-29.22426 -52.07126,-29.22426l49.396,-87.50086c0,0 22.35836,-1.88568 43.71911,4.60511c30.01465,9.12039 36.28949,19.04881 36.28949,19.04881z" fill="none" stroke-width="2"/></g><path d="M362.19122,140.39463l-9.49327,77.20758l-10.67403,-6.92641" fill="none" stroke="#000000" stroke-width="2" stroke-linecap="round"/><path d="M294.83545,202.39616c0.33151,-4.63335 1.47004,-14.74121 7.82829,-14.18934c6.35826,0.55187 7.08924,8.80751 6.61449,15.44291c-0.47475,6.6354 -5.93183,8.87494 -8.33944,8.66597c-2.40665,-0.20889 -6.43485,-5.28618 -6.10334,-9.91954z" fill="#000000" stroke="#000000" stroke-width="2" stroke-linecap="round"/></g></g></g></svg>