<svg version="1.1" xmlns="http://www.w3.org/2000/svg" xmlns:xlink="http://www.w3.org/1999/xlink" width="213.18203" height="305.34656" viewBox="0,0,213.18203,305.34656"><defs><linearGradient x1="320.08742" y1="187.07227" x2="320.08742" y2="244.23177" gradientUnits="userSpaceOnUse" id="color-1"><stop offset="0" stop-color="#671d06"/><stop offset="1" stop-color="#671d06" stop-opacity="0"/></linearGradient><radialGradient cx="329.1498" cy="30.25882" r="64.30757" gradientUnits="userSpaceOnUse" id="color-2"><stop offset="0" stop-color="#a4aeae"/><stop offset="1" stop-color="#767d7d"/></radialGradient></defs><g transform="translate(-214.52362,-14.72571)"><g stroke-miterlimit="10"><path d="M214.52362,306.61252v-291.88681h213.18203v291.88681z" fill="none" stroke="none" stroke-width="0" stroke-linecap="butt"/><path d="M286.35186,319.07226l15.14285,-131.8421l37.78325,-0.15789l13.57389,132z" fill="#9c4209" stroke="#000000" stroke-width="0" stroke-linecap="butt"/><path d="M295.01902,243.61117l6.47569,-56.38101l37.78325,-0.15789l5.87786,57.15951z" fill="url(#color-1)" stroke="#000000" stroke-width="0" stroke-linecap="butt"/><path d="M286.35186,319.07226l15.14285,-131.8421l37.78325,-0.15789l13.57389,132z" fill="none" stroke="#000000" stroke-width="2" stroke-linecap="butt"/><path d="M255.36488,148.57225c0,-33.30185 28.7599,-60.29833 64.23702,-60.29833c35.47713,0 64.23702,26.99648 64.23702,60.29833c0,33.30185 -28.75989,60.29834 -64.23702,60.29834c-35.47712,0 -64.23702,-26.99649 -64.23702,-60.29834z" fill="#9c4209" stroke="#000000" stroke-width="2" stroke-linecap="butt"/><path d="M268.99199,148.84787c0,-12.96801 10.51265,-23.48065 23.48066,-23.48065c12.96801,0 23.48065,10.51264 23.48065,23.48065c0,12.96801 -10.51264,23.48066 -23.48065,23.48066c-12.96801,0 -23.48066,-10.51265 -23.48066,-23.48066z" fill="#ffffff" stroke="#000000" stroke-width="2" stroke-linecap="butt"/><path d="M270.21048,150.75347c0,-8.29964 6.72818,-15.02784 15.02783,-15.02784c8.29964,0 15.02784,6.72819 15.02784,15.02785c0,8.29964 -6.72819,15.02785 -15.02784,15.02785c-8.29964,0 -15.02783,-6.72819 -15.02783,-15.02785z" fill="#000000" stroke="#000000" stroke-width="5" stroke-linecap="butt"/><path d="" fill="none" stroke="#000000" stroke-width="2" stroke-linecap="round"/><path d="M346.73111,172.32855c-12.96801,0 -23.48065,-10.51265 -23.48065,-23.48066c0,-12.96801 10.51264,-23.48065 23.48065,-23.48065c12.96801,0 23.48066,10.51264 23.48066,23.48065c0,12.96801 -10.51265,23.48066 -23.48066,23.48066z" fill="#ffffff" stroke="#000000" stroke-width="2" stroke-linecap="butt"/><path d="M362.05645,151.84128c0,7.58113 -6.14569,13.72683 -13.72681,13.72683c-7.5811,0 -13.72682,-6.14572 -13.72682,-13.72683c0,-7.58113 6.14571,-13.72683 13.72682,-13.72683c7.5811,0 13.72681,6.14571 13.72681,13.72682z" fill="#000000" stroke="#000000" stroke-width="5" stroke-linecap="butt"/><path d="M277.97417,123.6062c0,0 7.03472,-4.71631 12.19056,-5.57306c5.15585,-0.85676 12.26133,1.50987 12.26133,1.50987c0,0 -8.01671,-0.58934 -11.99841,0.07231c-4.16102,0.69145 -12.45348,3.99089 -12.45348,3.99089z" fill="#000000" stroke="none" stroke-width="0" stroke-linecap="butt"/><path d="M347.79471,117.5258c-4.03193,0.18768 -11.747,2.44437 -11.747,2.44437c0,0 6.45152,-3.80347 11.67242,-4.04651c5.22089,-0.24304 13.08794,2.89392 13.08794,2.89392c0,0 -8.79984,-1.4879 -13.01336,-1.29177z" fill="#000000" stroke="none" stroke-width="0" stroke-linecap="butt"/><path d="M319.11335,204.16182l2.60204,0.37172" fill="none" stroke="#000000" stroke-width="2" stroke-linecap="round"/><g stroke="#000000" stroke-linecap="round"><path d="M381.19061,140.65968c0,0 -16.99037,7.44122 -55.74622,-5.61217c-33.98472,-11.44642 -52.42432,-28.58609 -52.42432,-28.58609l48.3236,-88.09765c0,0 22.33367,-2.15862 43.7721,4.07078c30.12379,8.75312 36.51944,18.60415 36.51944,18.60415z" fill="url(#color-2)" stroke-width="2"/><path d="M381.19061,140.65968c0,0 -16.99037,7.44122 -55.74622,-5.61217c-33.98472,-11.44642 -52.42432,-28.58609 -52.42432,-28.58609c0,0 56.08133,15.83392 90.34752,16.63896c15.50456,0.36426 27.67699,-37.62155 27.67699,-37.62155c0,0 -9.85397,55.18084 -9.85397,55.18084z" fill-opacity="0.3451" fill="#4d5252" stroke-width="0"/><path d="M381.19061,140.65968c0,0 -16.99037,7.44122 -55.74622,-5.61217c-33.98472,-11.44642 -52.42432,-28.58609 -52.42432,-28.58609l48.3236,-88.09765c0,0 22.33367,-2.15862 43.7721,4.07078c30.12379,8.75312 36.51944,18.60415 36.51944,18.60415z" fill="none" stroke-width="2"/></g><path d="M377.10169,134.34044l-8.54956,77.31777l-19.32945,-8.54956" fill="none" stroke="#000000" stroke-width="2" stroke-linecap="round"/></g></g></svg>