<svg version="1.1" xmlns="http://www.w3.org/2000/svg" xmlns:xlink="http://www.w3.org/1999/xlink" width="213.18203" height="280.18476" viewBox="0,0,213.18203,280.18476"><defs><linearGradient x1="291.13914" y1="126.90169" x2="292.96694" y2="173.82743" gradientUnits="userSpaceOnUse" id="color-1"><stop offset="0" stop-color="#ffffff"/><stop offset="1" stop-color="#5d5d5d"/></linearGradient><linearGradient x1="345.35648" y1="124.78989" x2="347.18429" y2="171.71561" gradientUnits="userSpaceOnUse" id="color-2"><stop offset="0" stop-color="#ffffff"/><stop offset="1" stop-color="#5d5d5d"/></linearGradient></defs><g transform="translate(-214.52362,-38.88751)"><g stroke-miterlimit="10"><path d="M272.11014,268.26063c0.69149,-2.74535 3.73555,-4.81339 7.38606,-4.81339c3.23495,0 5.99367,1.62399 7.06104,3.9042c0.02618,0.07181 0.05544,0.14128 0.09106,0.20598c0.34257,0.62235 6.73325,-1.09492 7.52542,-0.84255c2.34967,0.74856 3.72445,2.88263 4.72133,4.73523c1.2385,2.30161 -2.89731,8.99139 -4.21952,11.08073c-3.44549,5.44452 -7.01511,14.21661 -13.0943,18.09006c-4.36095,2.77864 -11.57075,2.22268 -14.41858,-1.68103c-2.09573,-2.87275 -0.89147,-7.62841 -0.51474,-10.63945c0.49433,-3.9509 1.65871,-7.91056 2.73717,-11.78969c1.14878,-4.13207 1.39016,-6.40714 2.72506,-8.25009z" fill="#8b21e0" stroke="none" stroke-width="0.5" stroke-linecap="butt"/><path d="M370.04217,276.51072c1.07846,3.87913 2.24284,7.83879 2.73717,11.78969c0.37673,3.01104 1.58099,7.76671 -0.51474,10.63945c-2.84783,3.90371 -10.05764,4.45967 -14.41858,1.68103c-6.07919,-3.87345 -9.64881,-12.64553 -13.0943,-18.09006c-1.32221,-2.08934 -5.45801,-8.77911 -4.21952,-11.08073c0.99688,-1.8526 2.37167,-3.98667 4.72133,-4.73523c0.79217,-0.25237 7.18285,1.4649 7.52542,0.84255c0.03562,-0.06471 0.06488,-0.13418 0.09105,-0.20598c1.06737,-2.2802 3.82608,-3.9042 7.06104,-3.9042c3.65051,0 6.69458,2.06803 7.38607,4.81339c1.3349,1.84295 1.57628,4.11802 2.72506,8.25009z" fill="#8b21e0" stroke="none" stroke-width="0.5" stroke-linecap="butt"/><g stroke-linecap="butt"><path d="M286.35186,319.07226l15.14285,-131.8421l37.78325,-0.15789l13.57389,132z" fill="#8b21e0" stroke="#000000" stroke-width="0"/><path d="M296.01666,234.92516c2.08346,-18.13983 5.47805,-47.69499 5.47805,-47.69499l37.78325,-0.15789c0,0 3.04845,29.64481 4.91793,47.82466c0.02749,0.26726 -48.23894,0.54804 -48.17924,0.02822z" fill="#7822e0" stroke="#000000" stroke-width="0"/><path d="M297.13133,225.22012c1.77782,-15.47868 4.36338,-37.98996 4.36338,-37.98996l37.78325,-0.15789c0,0 2.35959,22.94598 3.97074,38.61368c0.0124,0.12054 -46.15083,-0.17447 -46.11737,-0.46582z" fill="#551cba" stroke="#000000" stroke-width="0"/><path d="M298.09859,216.79867c1.47239,-12.81944 3.39612,-29.56851 3.39612,-29.56851l37.78325,-0.15789c0,0 1.79848,17.4894 3.15533,30.68411c0.00563,0.0547 -44.35225,-0.8049 -44.3347,-0.95771z" fill="#3a1aaf" stroke="#000000" stroke-width="0"/><path d="M298.125,217c0,-0.57891 0.28111,-1.09217 0.71427,-1.41073c0.31856,-0.43316 0.83182,-0.71427 1.41073,-0.71427c0.9665,0 1.75,0.7835 1.75,1.75c0,0.57891 -0.28111,1.09217 -0.71427,1.41073c-0.31856,0.43316 -0.83182,0.71427 -1.41073,0.71427c-0.9665,0 -1.75,-0.7835 -1.75,-1.75z" fill="#3a1aaf" stroke="none" stroke-width="0.5"/><path d="M338.5,217.625c0,-0.9665 0.7835,-1.75 1.75,-1.75c0.9665,0 1.75,0.7835 1.75,1.75c0,0.9665 -0.7835,1.75 -1.75,1.75c-0.9665,0 -1.75,-0.7835 -1.75,-1.75z" fill="#3a1aaf" stroke="none" stroke-width="0.5"/><path d="M331.75,217c0,-0.9665 0.7835,-1.75 1.75,-1.75c0.9665,0 1.75,0.7835 1.75,1.75c0,0.9665 -0.7835,1.75 -1.75,1.75c-0.9665,0 -1.75,-0.7835 -1.75,-1.75z" fill="#3a1aaf" stroke="none" stroke-width="0.5"/><path d="M325.5,217.5c0,-0.9665 0.7835,-1.75 1.75,-1.75c0.2202,0 0.4309,0.04066 0.625,0.1149c0.1941,-0.07424 0.4048,-0.1149 0.625,-0.1149c0.9665,0 1.75,0.7835 1.75,1.75c0,0.9665 -0.7835,1.75 -1.75,1.75c-0.2202,0 -0.4309,-0.04066 -0.625,-0.1149c-0.1941,0.07424 -0.4048,0.1149 -0.625,0.1149c-0.9665,0 -1.75,-0.7835 -1.75,-1.75z" fill="#3a1aaf" stroke="none" stroke-width="0.5"/><path d="M317,217.375c0,-0.9665 0.7835,-1.75 1.75,-1.75c0.2202,0 0.4309,0.04066 0.625,0.1149c0.1941,-0.07424 0.4048,-0.1149 0.625,-0.1149c0.9665,0 1.75,0.7835 1.75,1.75c0,0.9665 -0.7835,1.75 -1.75,1.75c-0.2202,0 -0.4309,-0.04066 -0.625,-0.1149c-0.1941,0.07424 -0.4048,0.1149 -0.625,0.1149c-0.9665,0 -1.75,-0.7835 -1.75,-1.75z" fill="#3a1aaf" stroke="none" stroke-width="0.5"/><path d="M313.25,217.125c0,-0.9665 0.7835,-1.75 1.75,-1.75c0.9665,0 1.75,0.7835 1.75,1.75c0,0.9665 -0.7835,1.75 -1.75,1.75c-0.9665,0 -1.75,-0.7835 -1.75,-1.75z" fill="#3a1aaf" stroke="none" stroke-width="0.5"/><path d="M306.5,217c0,-0.9665 0.7835,-1.75 1.75,-1.75c0.9665,0 1.75,0.7835 1.75,1.75c0,0.9665 -0.7835,1.75 -1.75,1.75c-0.9665,0 -1.75,-0.7835 -1.75,-1.75z" fill="#3a1aaf" stroke="none" stroke-width="0.5"/><path d="M302.625,217c0,-0.9665 0.7835,-1.75 1.75,-1.75c0.9665,0 1.75,0.7835 1.75,1.75c0,0.9665 -0.7835,1.75 -1.75,1.75c-0.9665,0 -1.75,-0.7835 -1.75,-1.75z" fill="#3a1aaf" stroke="none" stroke-width="0.5"/><path d="M297.125,225.125c0,-0.9665 0.7835,-1.75 1.75,-1.75c0.9665,0 1.75,0.7835 1.75,1.75c0,0.9665 -0.7835,1.75 -1.75,1.75c-0.9665,0 -1.75,-0.7835 -1.75,-1.75z" fill="#551cba" stroke="none" stroke-width="0.5"/><path d="M337.625,225.5c0,-0.9665 0.7835,-1.75 1.75,-1.75c0.43734,0 0.8372,0.16042 1.14396,0.42563c0.27981,-0.18976 0.61748,-0.30063 0.98104,-0.30063c0.9665,0 1.75,0.7835 1.75,1.75c0,0.9665 -0.7835,1.75 -1.75,1.75c-0.43734,0 -0.8372,-0.16042 -1.14396,-0.42563c-0.27981,0.18976 -0.61748,0.30063 -0.98104,0.30063c-0.9665,0 -1.75,-0.7835 -1.75,-1.75z" fill="#551cba" stroke="none" stroke-width="0.5"/><path d="M330.5,225.875c0,-0.9665 0.7835,-1.75 1.75,-1.75c0.78848,0 1.45517,0.52145 1.67401,1.23832c0.28322,-0.58494 0.8825,-0.98832 1.57599,-0.98832c0.9665,0 1.75,0.7835 1.75,1.75c0,0.9665 -0.7835,1.75 -1.75,1.75c-0.78848,0 -1.45517,-0.52145 -1.67401,-1.23832c-0.28322,0.58494 -0.8825,0.98832 -1.57599,0.98832c-0.9665,0 -1.75,-0.7835 -1.75,-1.75z" fill="#551cba" stroke="none" stroke-width="0.5"/><path d="M327,225.75c0,-0.9665 0.7835,-1.75 1.75,-1.75c0.9665,0 1.75,0.7835 1.75,1.75c0,0.9665 -0.7835,1.75 -1.75,1.75c-0.9665,0 -1.75,-0.7835 -1.75,-1.75z" fill="#551cba" stroke="none" stroke-width="0.5"/><path d="M316.25,225.125c0,-0.9665 0.7835,-1.75 1.75,-1.75c0.58711,0 1.1067,0.28913 1.42415,0.73276c0.32092,-0.37217 0.79587,-0.60776 1.32585,-0.60776c0.76142,0 1.40928,0.48629 1.64992,1.16524c0.27225,-0.61285 0.88626,-1.04024 1.60008,-1.04024c0.9665,0 1.75,0.7835 1.75,1.75c0,0.9665 -0.7835,1.75 -1.75,1.75c-0.76142,0 -1.40928,-0.48629 -1.64992,-1.16524c-0.27225,0.61285 -0.88626,1.04024 -1.60008,1.04024c-0.58711,0 -1.1067,-0.28913 -1.42415,-0.73276c-0.32092,0.37217 -0.79587,0.60776 -1.32585,0.60776c-0.9665,0 -1.75,-0.7835 -1.75,-1.75z" fill="#551cba" stroke="none" stroke-width="0.5"/><path d="M307.625,225c0,-0.9665 0.7835,-1.75 1.75,-1.75c0.80543,0 1.48377,0.54412 1.6875,1.28483c0.20373,-0.7407 0.88207,-1.28483 1.6875,-1.28483c0.9665,0 1.75,0.7835 1.75,1.75c0,0.9665 -0.7835,1.75 -1.75,1.75c-0.80543,0 -1.48377,-0.54412 -1.6875,-1.28483c-0.20373,0.7407 -0.88207,1.28483 -1.6875,1.28483c-0.9665,0 -1.75,-0.7835 -1.75,-1.75z" fill="#551cba" stroke="none" stroke-width="0.5"/><path d="M300.5,225.125c0,-0.9665 0.7835,-1.75 1.75,-1.75c0.6587,0 1.2324,0.36393 1.531,0.90168c0.27524,-0.60558 0.88544,-1.02668 1.594,-1.02668c0.9665,0 1.75,0.7835 1.75,1.75c0,0.9665 -0.7835,1.75 -1.75,1.75c-0.6587,0 -1.2324,-0.36393 -1.531,-0.90168c-0.27524,0.60558 -0.88544,1.02668 -1.594,1.02668c-0.9665,0 -1.75,-0.7835 -1.75,-1.75z" fill="#551cba" stroke="none" stroke-width="0.5"/><path d="M302.875,233.375c0.9665,0 1.75,0.7835 1.75,1.75c0,0.9665 -0.7835,1.75 -1.75,1.75c-0.55774,0 -1.05454,-0.26092 -1.375,-0.66735c-0.32046,0.40643 -0.81726,0.66735 -1.375,0.66735c-0.45833,0 -0.87552,-0.1762 -1.1875,-0.46455c-0.31198,0.28835 -0.72917,0.46455 -1.1875,0.46455c-0.9665,0 -1.75,-0.7835 -1.75,-1.75c0,-0.9665 0.7835,-1.75 1.75,-1.75c0.45833,0 0.87552,0.1762 1.1875,0.46455c0.31198,-0.28835 0.72917,-0.46455 1.1875,-0.46455c0.55774,0 1.05454,0.26092 1.375,0.66735c0.32046,-0.40643 0.81726,-0.66735 1.375,-0.66735z" fill="#7822e0" stroke="none" stroke-width="0.5"/><path d="M312.625,233.25c0.9665,0 1.75,0.7835 1.75,1.75c0,0.9665 -0.7835,1.75 -1.75,1.75c-0.27524,0 -0.53563,-0.06354 -0.76731,-0.17675c-0.28013,0.19045 -0.61841,0.30175 -0.98269,0.30175c-0.73651,0 -1.36676,-0.45499 -1.625,-1.09923c-0.25824,0.64424 -0.88849,1.09923 -1.625,1.09923c-0.9665,0 -1.75,-0.7835 -1.75,-1.75c0,-0.9665 0.7835,-1.75 1.75,-1.75c0.73651,0 1.36676,0.45499 1.625,1.09923c0.25824,-0.64424 0.88849,-1.09923 1.625,-1.09923c0.27524,0 0.53563,0.06354 0.76731,0.17675c0.28013,-0.19045 0.61841,-0.30175 0.98269,-0.30175z" fill="#7822e0" stroke="none" stroke-width="0.5"/><path d="M315.5,235.25c0,-0.9665 0.7835,-1.75 1.75,-1.75c0.9665,0 1.75,0.7835 1.75,1.75c0,0.9665 -0.7835,1.75 -1.75,1.75c-0.9665,0 -1.75,-0.7835 -1.75,-1.75z" fill="#7822e0" stroke="none" stroke-width="0.5"/><path d="M322.75,235.875c0,-0.9665 0.7835,-1.75 1.75,-1.75c0.9665,0 1.75,0.7835 1.75,1.75c0,0.9665 -0.7835,1.75 -1.75,1.75c-0.9665,0 -1.75,-0.7835 -1.75,-1.75z" fill="#7822e0" stroke="none" stroke-width="0.5"/><path d="M329.375,235.75c0,-0.9665 0.7835,-1.75 1.75,-1.75c0.9665,0 1.75,0.7835 1.75,1.75c0,0.9665 -0.7835,1.75 -1.75,1.75c-0.9665,0 -1.75,-0.7835 -1.75,-1.75z" fill="#7822e0" stroke="none" stroke-width="0.5"/><path d="M334.875,234.75c0,-0.9665 0.7835,-1.75 1.75,-1.75c0.9665,0 1.75,0.7835 1.75,1.75c0,0.9665 -0.7835,1.75 -1.75,1.75c-0.9665,0 -1.75,-0.7835 -1.75,-1.75z" fill="#7822e0" stroke="none" stroke-width="0.5"/><path d="M340,235c0,-0.9665 0.7835,-1.75 1.75,-1.75c0.9665,0 1.75,0.7835 1.75,1.75c0,0.9665 -0.7835,1.75 -1.75,1.75c-0.9665,0 -1.75,-0.7835 -1.75,-1.75z" fill="#7822e0" stroke="none" stroke-width="0.5"/><path d="M301.16667,220.83333c0,-0.69036 0.55964,-1.25 1.25,-1.25c0.69036,0 1.25,0.55964 1.25,1.25c0,0.69036 -0.55964,1.25 -1.25,1.25c-0.69036,0 -1.25,-0.55964 -1.25,-1.25z" fill="#3a1aaf" stroke="none" stroke-width="0.5"/><path d="M305.5,217.83333c0,-0.69036 0.55964,-1.25 1.25,-1.25c0.69036,0 1.25,0.55964 1.25,1.25c0,0.69036 -0.55964,1.25 -1.25,1.25c-0.69036,0 -1.25,-0.55964 -1.25,-1.25z" fill="#3a1aaf" stroke="none" stroke-width="0.5"/><path d="M311.66667,217.33333c0,-0.69036 0.55964,-1.25 1.25,-1.25c0.69036,0 1.25,0.55964 1.25,1.25c0,0.69036 -0.55964,1.25 -1.25,1.25c-0.69036,0 -1.25,-0.55964 -1.25,-1.25z" fill="#3a1aaf" stroke="none" stroke-width="0.5"/><path d="M314.66667,220c0,-0.69036 0.55964,-1.25 1.25,-1.25c0.69036,0 1.25,0.55964 1.25,1.25c0,0.69036 -0.55964,1.25 -1.25,1.25c-0.69036,0 -1.25,-0.55964 -1.25,-1.25z" fill="#3a1aaf" stroke="none" stroke-width="0.5"/><path d="M323.25,221.08333c0.69036,0 1.25,0.55964 1.25,1.25c0,0.69036 -0.55964,1.25 -1.25,1.25c-0.28931,0 -0.55566,-0.09828 -0.76748,-0.26328c-0.21988,0.35792 -0.61499,0.59662 -1.06585,0.59662c-0.69036,0 -1.25,-0.55964 -1.25,-1.25c0,-0.69036 0.55964,-1.25 1.25,-1.25c0.28931,0 0.55566,0.09828 0.76748,0.26328c0.21988,-0.35792 0.61499,-0.59662 1.06585,-0.59662z" fill="#3a1aaf" stroke="none" stroke-width="0.5"/><path d="M328,218.5c0,-0.69036 0.55964,-1.25 1.25,-1.25c0.69036,0 1.25,0.55964 1.25,1.25c0,0.69036 -0.55964,1.25 -1.25,1.25c-0.69036,0 -1.25,-0.55964 -1.25,-1.25z" fill="#3a1aaf" stroke="none" stroke-width="0.5"/><path d="M333.66667,218.16667c0,-0.69036 0.55964,-1.25 1.25,-1.25c0.69036,0 1.25,0.55964 1.25,1.25c0,0.69036 -0.55964,1.25 -1.25,1.25c-0.69036,0 -1.25,-0.55964 -1.25,-1.25z" fill="#3a1aaf" stroke="none" stroke-width="0.5"/><path d="M339.83333,222.33333c0,0.69036 -0.55964,1.25 -1.25,1.25c-0.54205,0 -1.00352,-0.34502 -1.17677,-0.82743c-0.24986,-0.22855 -0.40656,-0.55726 -0.40656,-0.92257c0,-0.69036 0.55964,-1.25 1.25,-1.25c0.54205,0 1.00352,0.34502 1.17677,0.82743c0.24986,0.22855 0.40656,0.55726 0.40656,0.92257z" fill="#3a1aaf" stroke="none" stroke-width="0.5"/><path d="M298.66667,226.16667c0,-0.69036 0.55964,-1.25 1.25,-1.25c0.69036,0 1.25,0.55964 1.25,1.25c0,0.69036 -0.55964,1.25 -1.25,1.25c-0.69036,0 -1.25,-0.55964 -1.25,-1.25z" fill="#551cba" stroke="none" stroke-width="0.5"/><path d="M303.5,231.16667c0,-0.69036 0.55964,-1.25 1.25,-1.25c0.69036,0 1.25,0.55964 1.25,1.25c0,0.69036 -0.55964,1.25 -1.25,1.25c-0.69036,0 -1.25,-0.55964 -1.25,-1.25z" fill="#551cba" stroke="none" stroke-width="0.5"/><path d="M309.38356,228.20639c0.96028,0.80023 0.16005,1.76051 0.16005,1.76051l-0.83333,1c0,0 -0.80023,0.96028 -1.76051,0.16005c-0.96028,-0.80023 -0.16005,-1.76051 -0.16005,-1.76051l0.83333,-1c0,0 0.80023,-0.96028 1.76051,-0.16005z" fill="#551cba" stroke="none" stroke-width="0.5"/><path d="M313.91667,224.75c0.69036,0 1.25,0.55964 1.25,1.25c0,0.69036 -0.55964,1.25 -1.25,1.25c-0.23693,0 -0.45847,-0.06592 -0.64727,-0.18042c-0.0607,0.00906 -0.12284,0.01375 -0.18606,0.01375c-0.69036,0 -1.25,-0.55964 -1.25,-1.25c0,-0.69036 0.55964,-1.25 1.25,-1.25c0.23693,0 0.45847,0.06592 0.64727,0.18042c0.0607,-0.00906 0.12284,-0.01375 0.18606,-0.01375z" fill="#551cba" stroke="none" stroke-width="0.5"/><path d="M320.83333,229.16667c0,-0.69036 0.55964,-1.25 1.25,-1.25c0.69036,0 1.25,0.55964 1.25,1.25c0,0.69036 -0.55964,1.25 -1.25,1.25c-0.69036,0 -1.25,-0.55964 -1.25,-1.25z" fill="#551cba" stroke="none" stroke-width="0.5"/><path d="M323.66667,230.33333c0,-0.69036 0.55964,-1.25 1.25,-1.25c0.69036,0 1.25,0.55964 1.25,1.25c0,0.69036 -0.55964,1.25 -1.25,1.25c-0.69036,0 -1.25,-0.55964 -1.25,-1.25z" fill="#551cba" stroke="none" stroke-width="0.5"/><path d="M329.16667,226.83333c0,-0.69036 0.55964,-1.25 1.25,-1.25c0.69036,0 1.25,0.55964 1.25,1.25c0,0.69036 -0.55964,1.25 -1.25,1.25c-0.69036,0 -1.25,-0.55964 -1.25,-1.25z" fill="#551cba" stroke="none" stroke-width="0.5"/><path d="M333,225.83333c0,-0.69036 0.55964,-1.25 1.25,-1.25c0.69036,0 1.25,0.55964 1.25,1.25c0,0.69036 -0.55964,1.25 -1.25,1.25c-0.69036,0 -1.25,-0.55964 -1.25,-1.25z" fill="#551cba" stroke="none" stroke-width="0.5"/><path d="M340.5,230.83333c0,-0.69036 0.55964,-1.25 1.25,-1.25c0.69036,0 1.25,0.55964 1.25,1.25c0,0.69036 -0.55964,1.25 -1.25,1.25c-0.69036,0 -1.25,-0.55964 -1.25,-1.25z" fill="#551cba" stroke="none" stroke-width="0.5"/><path d="M299,238.83333c0,-0.69036 0.55964,-1.25 1.25,-1.25c0.69036,0 1.25,0.55964 1.25,1.25c0,0.69036 -0.55964,1.25 -1.25,1.25c-0.69036,0 -1.25,-0.55964 -1.25,-1.25z" fill="#7822e0" stroke="none" stroke-width="0.5"/><path d="M307.58333,234.75c0.69036,0 1.25,0.55964 1.25,1.25c0,0.69036 -0.55964,1.25 -1.25,1.25c-0.19188,0 -0.37366,-0.04323 -0.53614,-0.12049c-0.21637,0.17935 -0.4942,0.28716 -0.7972,0.28716c-0.69036,0 -1.25,-0.55964 -1.25,-1.25c0,-0.69036 0.55964,-1.25 1.25,-1.25c0.19188,0 0.37366,0.04323 0.53614,0.12049c0.21637,-0.17935 0.4942,-0.28716 0.7972,-0.28716z" fill="#7822e0" stroke="none" stroke-width="0.5"/><path d="M314.66667,239c0,-0.69036 0.55964,-1.25 1.25,-1.25c0.69036,0 1.25,0.55964 1.25,1.25c0,0.69036 -0.55964,1.25 -1.25,1.25c-0.69036,0 -1.25,-0.55964 -1.25,-1.25z" fill="#7822e0" stroke="none" stroke-width="0.5"/><path d="M320.83333,242.5c0,-0.69036 0.55964,-1.25 1.25,-1.25c0.69036,0 1.25,0.55964 1.25,1.25c0,0.69036 -0.55964,1.25 -1.25,1.25c-0.69036,0 -1.25,-0.55964 -1.25,-1.25z" fill="#7822e0" stroke="none" stroke-width="0.5"/><path d="M320.83333,235c0,-0.69036 0.55964,-1.25 1.25,-1.25c0.69036,0 1.25,0.55964 1.25,1.25c0,0.69036 -0.55964,1.25 -1.25,1.25c-0.69036,0 -1.25,-0.55964 -1.25,-1.25z" fill="#7822e0" stroke="none" stroke-width="0.5"/><path d="M326,236.16667c0,-0.69036 0.55964,-1.25 1.25,-1.25c0.69036,0 1.25,0.55964 1.25,1.25c0,0.69036 -0.55964,1.25 -1.25,1.25c-0.69036,0 -1.25,-0.55964 -1.25,-1.25z" fill="#7822e0" stroke="none" stroke-width="0.5"/><path d="M331.5,236.16667c0,-0.69036 0.55964,-1.25 1.25,-1.25c0.69036,0 1.25,0.55964 1.25,1.25c0,0.69036 -0.55964,1.25 -1.25,1.25c-0.69036,0 -1.25,-0.55964 -1.25,-1.25z" fill="#7822e0" stroke="none" stroke-width="0.5"/><path d="M339.25,239.25c0.69036,0 1.25,0.55964 1.25,1.25c0,0.69036 -0.55964,1.25 -1.25,1.25c-0.56616,0 -1.04441,-0.3764 -1.19816,-0.89261c-0.19819,0.42859 -0.63196,0.72594 -1.13517,0.72594c-0.69036,0 -1.25,-0.55964 -1.25,-1.25c0,-0.69036 0.55964,-1.25 1.25,-1.25c0.56616,0 1.04441,0.3764 1.19816,0.89261c0.19819,-0.42859 0.63196,-0.72594 1.13517,-0.72594z" fill="#7822e0" stroke="none" stroke-width="0.5"/><path d="M340,235.33333c0,-0.69036 0.55964,-1.25 1.25,-1.25c0.69036,0 1.25,0.55964 1.25,1.25c0,0.69036 -0.55964,1.25 -1.25,1.25c-0.69036,0 -1.25,-0.55964 -1.25,-1.25z" fill="#7822e0" stroke="none" stroke-width="0.5"/><path d="M301,223c0,-0.41421 0.33579,-0.75 0.75,-0.75c0.41421,0 0.75,0.33579 0.75,0.75c0,0.41421 -0.33579,0.75 -0.75,0.75c-0.41421,0 -0.75,-0.33579 -0.75,-0.75z" fill="#3a1aaf" stroke="none" stroke-width="0.5"/><path d="M321.66667,225c0,-0.41421 0.33579,-0.75 0.75,-0.75c0.41421,0 0.75,0.33579 0.75,0.75c0,0.41421 -0.33579,0.75 -0.75,0.75c-0.41421,0 -0.75,-0.33579 -0.75,-0.75z" fill="#3a1aaf" stroke="none" stroke-width="0.5"/><path d="M338.66667,224.66667c0,-0.41421 0.33579,-0.75 0.75,-0.75c0.41421,0 0.75,0.33579 0.75,0.75c0,0.41421 -0.33579,0.75 -0.75,0.75c-0.41421,0 -0.75,-0.33579 -0.75,-0.75z" fill="#3a1aaf" stroke="none" stroke-width="0.5"/><path d="M302.83333,233.5c0,-0.41421 0.33579,-0.75 0.75,-0.75c0.41421,0 0.75,0.33579 0.75,0.75c0,0.41421 -0.33579,0.75 -0.75,0.75c-0.41421,0 -0.75,-0.33579 -0.75,-0.75z" fill="#551cba" stroke="none" stroke-width="0.5"/><path d="M322.5,233.33333c0,-0.41421 0.33579,-0.75 0.75,-0.75c0.41421,0 0.75,0.33579 0.75,0.75c0,0.41421 -0.33579,0.75 -0.75,0.75c-0.41421,0 -0.75,-0.33579 -0.75,-0.75z" fill="#551cba" stroke="none" stroke-width="0.5"/><path d="M341.33333,235c0,-0.41421 0.33579,-0.75 0.75,-0.75c0.41421,0 0.75,0.33579 0.75,0.75c0,0.41421 -0.33579,0.75 -0.75,0.75c-0.41421,0 -0.75,-0.33579 -0.75,-0.75z" fill="#551cba" stroke="none" stroke-width="0.5"/><path d="M301.66667,241.33333c0,-0.41421 0.33579,-0.75 0.75,-0.75c0.41421,0 0.75,0.33579 0.75,0.75c0,0.41421 -0.33579,0.75 -0.75,0.75c-0.41421,0 -0.75,-0.33579 -0.75,-0.75z" fill="#7822e0" stroke="none" stroke-width="0.5"/><path d="M314.5,244.16667c0,-0.41421 0.33579,-0.75 0.75,-0.75c0.41421,0 0.75,0.33579 0.75,0.75c0,0.41421 -0.33579,0.75 -0.75,0.75c-0.41421,0 -0.75,-0.33579 -0.75,-0.75z" fill="#7822e0" stroke="none" stroke-width="0.5"/><path d="M338,245.16667c0,-0.41421 0.33579,-0.75 0.75,-0.75c0.41421,0 0.75,0.33579 0.75,0.75c0,0.41421 -0.33579,0.75 -0.75,0.75c-0.41421,0 -0.75,-0.33579 -0.75,-0.75z" fill="#7822e0" stroke="none" stroke-width="0.5"/></g><path d="M214.52362,306.61252v-267.72501h213.18203v267.72501z" fill="none" stroke="none" stroke-width="0" stroke-linecap="butt"/><path d="" fill="none" stroke="#000000" stroke-width="2" stroke-linecap="round"/><path d="M348.09345,279.76011c-0.17678,0.17677 -0.35355,0 -0.35355,0l-0.30273,-0.3073c-0.18961,-0.09309 -0.38215,-0.18574 -0.57705,-0.27765c0.1706,0.17506 0.34622,0.36109 0.52428,0.55569l0.04239,0.00904c0.96745,0.96746 2.14938,2.03589 2.65974,3.30561c0.27002,0.23032 0.50572,0.4617 0.68142,0.69992l0.06432,0.31487c0,0 0.01712,0.18501 -0.13765,0.2508c0.36897,0.41782 0.74899,0.77747 1.13564,1.02777c0.98203,1.09903 2.08443,2.12612 2.90511,3.35515l0.10286,-0.01127c0,0 0.23392,0.08822 0.14569,0.32214c-0.08823,0.23391 -0.32214,0.14569 -0.32214,0.14569l-0.34243,-0.17921c-0.79498,-1.19449 -1.87315,-2.18077 -2.81754,-3.25553c-0.98239,-0.67187 -1.89968,-1.9514 -2.72124,-3.14018c-1.23839,-0.94227 -2.59489,-1.9086 -2.61389,-3.49232c0,0 0,-0.11726 0.0803,-0.19117c-0.91474,-0.41318 -1.86679,-0.80319 -2.80088,-1.13837c-0.14632,-0.03607 -0.29417,-0.06982 -0.44388,-0.10066l-0.36401,-0.17953c0,0 -0.01018,-0.00508 -0.0251,-0.01526c-0.04132,-0.02615 -0.09259,-0.07164 -0.11016,-0.14272c-0.01263,-0.04442 -0.01185,-0.09821 0.01591,-0.16137c0.02504,-0.06429 0.06252,-0.10288 0.10286,-0.12536c0.06268,-0.03784 0.1311,-0.03376 0.17881,-0.02302c0.01774,0.00336 0.02853,0.00696 0.02853,0.00696c0.23451,0.07916 0.47118,0.1615 0.70909,0.24678c0.04289,0.00993 0.08564,0.02009 0.12826,0.03048c-0.01349,-0.06248 -0.00371,-0.13967 0.07349,-0.21686c0.17678,-0.17677 0.35355,0 0.35355,0c0.23489,0.23489 0.50902,0.42083 0.80814,0.57409c1.04522,0.33607 2.064,0.71102 3.21276,0.85461c0,0 0.24807,0.03101 0.21706,0.27908c-0.03101,0.24807 -0.27908,0.21706 -0.27908,0.21706c-0.02155,-0.00269 -0.04306,-0.00547 -0.06453,-0.00831c-0.05012,0.01273 -0.09116,0.00943 -0.09116,0.00943l-0.31369,-0.02594c0.04905,0.02457 0.09791,0.04922 0.14657,0.07394l0.36393,0.35936c0,0 0.17678,0.17678 0,0.35356zM347.70697,281.05603c-0.18253,-0.24018 -0.40901,-0.44565 -0.62511,-0.65315c0.21793,0.33132 0.50671,0.6382 0.82981,0.92888c-0.06916,-0.09509 -0.1374,-0.18718 -0.2047,-0.27573z" fill="#751cbd" stroke="none" stroke-width="0.5" stroke-linecap="butt"/><path d="M272.52055,274.57308l0.13421,0.13935c0.07632,0.05354 0.15079,0.10324 0.22447,0.1497c1.01875,0.17851 2.15312,0.11299 3.06294,0.49132l0.23508,-0.02012c0,0 0.25,0 0.25,0.25c0,0.25 -0.25,0.25 -0.25,0.25l-0.4316,-0.02012c-0.53053,-0.23456 -1.10969,-0.31854 -1.69559,-0.37737c0.02431,0.03039 0.04332,0.06951 0.04664,0.11884c1.46053,0.4725 2.98794,0.67155 4.77199,0.91763c1.41433,0.19508 2.88054,0.52942 4.30856,0.52768h0.33333c0,0 0.25,0 0.25,0.25c0,0.25 -0.25,0.25 -0.25,0.25h-0.33333c-1.45266,-0.00165 -2.93821,-0.33393 -4.37687,-0.53237c-2.61728,-0.36101 -4.71009,-0.63846 -6.8286,-1.77376c-0.18029,-0.08838 -0.37074,-0.19873 -0.56191,-0.32129c-0.29136,-0.17723 -0.58411,-0.37212 -0.87967,-0.58707c0,0 -0.0677,-0.04924 -0.09626,-0.12991c-0.09089,-0.07506 -0.17678,-0.14852 -0.25606,-0.2187l-0.00063,0.0631c0,0 -0.25,0 -0.25,-0.25c0,-0.25 0.25,-0.25 0.25,-0.25l0.3327,0.0631c0.14339,0.12786 0.322,0.27914 0.5167,0.43277c0.09325,0.0099 0.16071,0.07736 0.16071,0.07736c0.10195,0.10348 0.2101,0.19422 0.32357,0.27399c0.08858,0.05587 0.17699,0.10999 0.26526,0.16245c0.10676,0.0567 0.21714,0.10592 0.33054,0.14889c0.01232,-0.02789 0.03165,-0.05653 0.06025,-0.08519c0.17663,-0.17692 0.35356,-0.00029 0.35356,-0.00029z" fill="#751cbd" stroke="none" stroke-width="0.5" stroke-linecap="butt"/><path d="M291.3338,279.40656l0.36394,-0.35936c0.04866,-0.02472 0.09752,-0.04937 0.14657,-0.07394l-0.31369,0.02594c0,0 -0.04104,0.0033 -0.09116,-0.00943c-0.02147,0.00285 -0.04298,0.00562 -0.06454,0.00831c0,0 -0.24807,0.03101 -0.27908,-0.21706c-0.03101,-0.24807 0.21706,-0.27908 0.21706,-0.27908c1.14875,-0.1436 2.16754,-0.51854 3.21276,-0.85461c0.29912,-0.15326 0.57325,-0.3392 0.80814,-0.57409c0,0 0.17678,-0.17677 0.35356,0c0.0772,0.07719 0.08697,0.15439 0.07349,0.21686c0.04262,-0.01039 0.08536,-0.02055 0.12825,-0.03048c0.23791,-0.08528 0.47458,-0.16762 0.70909,-0.24678c0,0 0.01079,-0.0036 0.02854,-0.00696c0.04771,-0.01074 0.11613,-0.01481 0.17881,0.02302c0.04034,0.02248 0.07782,0.06107 0.10286,0.12536c0.02776,0.06316 0.02854,0.11695 0.01591,0.16137c-0.01757,0.07108 -0.06884,0.11657 -0.11016,0.14272c-0.01492,0.01018 -0.0251,0.01526 -0.0251,0.01526l-0.364,0.17953c-0.14972,0.03084 -0.29756,0.06459 -0.44389,0.10066c-0.9341,0.33518 -1.88614,0.72519 -2.80088,1.13837c0.08031,0.0739 0.08031,0.19117 0.08031,0.19117c-0.019,1.58372 -1.3755,2.55005 -2.61389,3.49232c-0.82156,1.18877 -1.73885,2.4683 -2.72124,3.14018c-0.9444,1.07476 -2.02256,2.06103 -2.81754,3.25553l-0.34244,0.17921c0,0 -0.23391,0.08822 -0.32214,-0.14569c-0.08823,-0.23391 0.14569,-0.32214 0.14569,-0.32214l0.10286,0.01127c0.82067,-1.22904 1.92307,-2.25612 2.90511,-3.35515c0.38664,-0.2503 0.76666,-0.60994 1.13563,-1.02777c-0.15477,-0.06579 -0.13765,-0.2508 -0.13765,-0.2508l0.06432,-0.31487c0.1757,-0.23822 0.41141,-0.4696 0.68143,-0.69992c0.51036,-1.26972 1.69229,-2.33816 2.65974,-3.30561l0.04239,-0.00904c0.17806,-0.19459 0.35368,-0.38062 0.52427,-0.55569c-0.1949,0.0919 -0.38744,0.18456 -0.57705,0.27765l-0.30273,0.3073c0,0 -0.17678,0.17677 -0.35356,0c-0.17678,-0.17677 0,-0.35356 0,-0.35356zM291.51558,281.33177c0.3231,-0.29068 0.61188,-0.59756 0.82981,-0.92888c-0.2161,0.20749 -0.44258,0.41296 -0.62511,0.65315c-0.0673,0.08856 -0.13554,0.18065 -0.2047,0.27573z" fill="#751cbd" stroke="none" stroke-width="0.5" stroke-linecap="butt"/><path d="M367.26026,274.57337c0.02861,0.02865 0.04794,0.0573 0.06026,0.08519c0.1134,-0.04297 0.22378,-0.09219 0.33054,-0.14889c0.08828,-0.05246 0.17669,-0.10659 0.26526,-0.16245c0.11347,-0.07977 0.22163,-0.17051 0.32358,-0.27399c0,0 0.06746,-0.06746 0.16071,-0.07736c0.1947,-0.15363 0.37331,-0.30491 0.5167,-0.43277l0.3327,-0.0631c0,0 0.25,0 0.25,0.25c0,0.25 -0.25,0.25 -0.25,0.25l-0.00063,-0.0631c-0.07927,0.07018 -0.16517,0.14364 -0.25606,0.2187c-0.02855,0.08068 -0.09626,0.12991 -0.09626,0.12991c-0.29555,0.21495 -0.58831,0.40984 -0.87966,0.58707c-0.19117,0.12256 -0.38162,0.2329 -0.56191,0.32129c-2.11851,1.1353 -4.21132,1.41275 -6.8286,1.77376c-1.43867,0.19843 -2.92421,0.53072 -4.37687,0.53237h-0.33333c0,0 -0.25,0 -0.25,-0.25c0,-0.25 0.25,-0.25 0.25,-0.25h0.33333c1.42802,0.00173 2.89423,-0.33261 4.30856,-0.52768c1.78405,-0.24607 3.31145,-0.44513 4.77199,-0.91763c0.00333,-0.04934 0.02233,-0.08845 0.04664,-0.11884c-0.58591,0.05883 -1.16505,0.14282 -1.69559,0.37737l-0.4316,0.02012c0,0 -0.25,0 -0.25,-0.25c0,-0.25 0.25,-0.25 0.25,-0.25l0.23507,0.02012c0.90982,-0.37833 2.04419,-0.31281 3.06294,-0.49132c0.07369,-0.04647 0.14815,-0.09616 0.22447,-0.1497l0.13421,-0.13935c0,0 0.17692,-0.17663 0.35355,0.00029z" fill="#751cbd" stroke="none" stroke-width="0.5" stroke-linecap="butt"/><g><g><g><path d="M373.75608,128.9025l22.1496,-22.84703c0,0 -0.33463,16.58584 0.64196,22.9835c0.72501,4.74963 4.69092,11.95297 4.69092,11.95297c0,0 -5.06473,13.67301 -6.43063,20.05353c-1.15834,5.41104 -1.24515,15.80267 -1.24515,15.80267l-21.43546,-8.48639z" fill="#6719a7" stroke="#000000" stroke-width="0" stroke-linecap="round"/><path d="M378.87802,161.06386l11.87976,-2.04561" fill="none" stroke="#4b1797" stroke-width="2" stroke-linecap="round"/><path d="M389.96671,129.67808l-11.93909,5.03778" fill="none" stroke="#4b1797" stroke-width="2" stroke-linecap="round"/><path d="M267.84641,172.4236l-20.71041,10.12802c0,0 -0.89484,-10.35339 -2.47057,-15.65794c-1.85805,-6.25495 -7.97099,-19.49257 -7.97099,-19.49257c0,0 3.3936,-7.48999 3.74696,-12.28162c0.47598,-6.45424 -1.14774,-22.96379 -1.14774,-22.96379l23.85962,21.05492z" fill="#6719a7" stroke="#000000" stroke-width="0" stroke-linecap="round"/><path d="M260.54851,165.67291l-12.00289,-1.11534" fill="none" stroke="#4b1797" stroke-width="2" stroke-linecap="round"/><path d="M259.34687,139.33859l-12.29477,-4.09383" fill="none" stroke="#4b1797" stroke-width="2" stroke-linecap="round"/><path d="M254.96266,151.53345c-1.29617,-33.27661 26.39119,-61.37201 61.84144,-62.75284c35.45024,-1.38083 65.23909,24.47581 66.53525,57.75244c0.84928,21.8034 -10.74435,41.38244 -28.81168,52.68004c-4.52335,2.82846 -2.29385,23.7051 2.78201,41.35771c5.59269,19.44999 12.3991,35.7158 -33.7802,36.28725c-48.22757,0.59679 -42.53964,-14.21306 -37.75413,-33.30724c4.40338,-17.56947 6.39121,-39.40787 1.58156,-41.96325c-18.66082,-9.91465 -31.5514,-28.41564 -32.39425,-50.05406z" fill="#8b21e0" stroke="#000000" stroke-width="0" stroke-linecap="butt"/><path d="M257.65676,131.63988c8.30142,-23.08583 31.71382,-41.79073 59.14734,-42.8593c28.26597,-1.101 52.93269,15.11437 62.42664,38.60029c0.01758,0.0435 -121.59429,4.31547 -121.57399,4.25901z" fill="#7822e0" stroke="#000000" stroke-width="0" stroke-linecap="butt"/><path d="M259.86897,126.05705c9.3691,-21.06244 31.08885,-36.26973 56.93512,-37.27647c26.02212,-1.01358 48.99372,12.649 59.88458,33.14955c0.04874,0.09176 -116.88776,4.27991 -116.81969,4.12691z" fill="#551cba" stroke="#000000" stroke-width="0" stroke-linecap="butt"/><path d="M264.56917,117.48463c10.90342,-16.51244 30.04894,-27.83987 52.2349,-28.70405c21.47968,-0.83665 40.88093,8.32631 53.12495,23.0806c0.54935,0.66198 1.08429,1.33521 1.60438,2.01931c0.04805,0.0632 -107.02184,3.69139 -106.96424,3.60414z" fill="#3a1aaf" stroke="#000000" stroke-width="0" stroke-linecap="butt"/><path d="M268.70676,154.27167c-0.50474,-12.95819 9.59078,-23.87202 22.54896,-24.37675c12.95819,-0.50474 23.87201,9.59077 24.37675,22.54895c0.50474,12.95819 -9.59077,23.87202 -22.54894,24.37676c-12.95819,0.50474 -23.87203,-9.59078 -24.37676,-22.54895z" fill="#6320d7" stroke="#000000" stroke-width="0" stroke-linecap="butt"/><path d="M347.30087,174.70881c-12.95819,0.50474 -23.87202,-9.59078 -24.37675,-22.54896c-0.50474,-12.95819 9.59077,-23.87201 22.54895,-24.37675c12.95819,-0.50474 23.87202,9.59077 24.37676,22.54894c0.50474,12.95819 -9.59078,23.87203 -22.54895,24.37676z" fill="#6320d7" stroke="#000000" stroke-width="0" stroke-linecap="butt"/><path d="M288.53008,101.88387c3.03914,8.19162 -5.93059,13.50949 -13.8834,13.81927c-3.15954,0.12307 -20.24565,-2.26338 -23.37687,-11.2932c-4.75032,-13.69899 4.99896,-36.09253 4.99896,-36.09253c0,0 3.61263,17.04722 12.9846,26.37944c5.89332,5.86836 16.88044,0.72825 19.2767,7.18702z" fill="#4f2373" stroke="#000000" stroke-width="0" stroke-linecap="butt"/><path d="M364.66599,90.98042c8.61768,-10.03295 10.89336,-27.30953 10.89336,-27.30953c0,0 11.46162,21.56734 7.79127,35.59434c-2.41936,9.24602 -19.26807,12.95427 -22.42762,13.07733c-7.95281,0.30978 -17.30904,-4.2943 -14.91626,-12.69748c1.88661,-6.62559 13.24024,-2.35568 18.65925,-8.66466z" fill="#4f2373" stroke="#000000" stroke-width="0" stroke-linecap="butt"/><path d="M274.86589,119.49557c-0.00668,-0.17185 0.02163,-0.33693 0.07861,-0.48839c-0.43277,-0.10672 -0.80429,-0.37514 -1.04381,-0.73973c-0.28621,0.51974 -0.82976,0.88105 -1.46585,0.90584c-0.81227,0.03164 -1.51676,-0.49557 -1.74257,-1.23856c-0.22186,0.67424 -0.84381,1.17251 -1.59474,1.20176c-0.36682,0.01429 -0.71166,-0.0854 -1.00037,-0.26747c-0.30366,0.42648 -0.79462,0.71266 -1.35823,0.73463c-0.96576,0.03763 -1.77917,-0.7148 -1.81679,-1.68056c-0.03763,-0.96576 0.7148,-1.77917 1.68056,-1.81679c0.36682,-0.01429 0.71166,0.0854 1.00037,0.26747c0.30366,-0.42648 0.79462,-0.71266 1.35823,-0.73463c0.81227,-0.03164 1.51676,0.49557 1.74257,1.23856c0.22186,-0.67424 0.84381,-1.17251 1.59474,-1.20176c0.6361,-0.02478 1.20612,0.29318 1.53188,0.78908c0.28621,-0.51974 0.82976,-0.88105 1.46585,-0.90584c0.44788,-0.01745 0.86298,0.13502 1.18312,0.39986c0.29859,-0.28895 0.70058,-0.47322 1.14845,-0.49067c0.96576,-0.03763 1.77917,0.7148 1.81679,1.68056c0.03763,0.96576 -0.7148,1.77917 -1.68056,1.81679c-0.18035,0.00702 -0.35537,-0.0135 -0.52103,-0.05781c0.07131,0.14906 0.11405,0.31478 0.12089,0.49038c0.02687,0.68983 -0.51055,1.27084 -1.2004,1.29771c-0.68983,0.02687 -1.27084,-0.51055 -1.29771,-1.2004z" fill="#3a1aaf" stroke="none" stroke-width="0.5" stroke-linecap="butt"/><path d="M282.43594,116.86561c-0.02687,-0.68983 0.51055,-1.27084 1.2004,-1.29771c0.1366,-0.00532 0.26896,0.01149 0.39355,0.04724c0.29198,-0.25895 0.67194,-0.42231 1.09232,-0.43869c0.96576,-0.03763 1.77917,0.7148 1.81679,1.68056c0.03763,0.96576 -0.7148,1.77917 -1.68056,1.81679c-0.55964,0.0218 -1.06814,-0.22169 -1.40413,-0.61827c-0.03964,0.00536 -0.0799,0.00889 -0.12069,0.01048c-0.68983,0.02687 -1.27084,-0.51055 -1.29771,-1.2004z" fill="#3a1aaf" stroke="none" stroke-width="0.5" stroke-linecap="butt"/><path d="M288.75797,116.45257c-0.03763,-0.96576 0.7148,-1.77917 1.68056,-1.81679c0.96576,-0.03763 1.77917,0.7148 1.81679,1.68056c0.03763,0.96576 -0.7148,1.77917 -1.68056,1.81679c-0.96576,0.03763 -1.77917,-0.7148 -1.81679,-1.68056z" fill="#3a1aaf" stroke="none" stroke-width="0.5" stroke-linecap="butt"/><path d="M296.71948,115.3085c-0.02687,-0.68983 0.51055,-1.27084 1.2004,-1.29771c0.53542,-0.02086 1.00527,0.29824 1.20135,0.76469c0.27485,-0.20687 0.61334,-0.335 0.98312,-0.34939c0.96576,-0.03763 1.77917,0.7148 1.81679,1.68056c0.03763,0.96576 -0.7148,1.77917 -1.68056,1.81679c-0.90648,0.03529 -1.67875,-0.62541 -1.80124,-1.50527c-0.1308,0.05318 -0.27292,0.08492 -0.42217,0.09074c-0.68983,0.02687 -1.27084,-0.51055 -1.29771,-1.2004z" fill="#3a1aaf" stroke="none" stroke-width="0.5" stroke-linecap="butt"/><path d="M303.59952,116.37485c-0.03763,-0.96576 0.7148,-1.77917 1.68056,-1.81679c0.96576,-0.03763 1.77917,0.7148 1.81679,1.68056c0.03763,0.96576 -0.7148,1.77917 -1.68056,1.81679c-0.96576,0.03763 -1.77917,-0.7148 -1.81679,-1.68056z" fill="#3a1aaf" stroke="none" stroke-width="0.5" stroke-linecap="butt"/><path d="M308.49407,117.85215c-0.02687,-0.68983 0.51055,-1.27084 1.2004,-1.29771c0.1756,-0.00684 0.34415,0.02289 0.4983,0.08239c-0.05708,-0.16172 -0.09114,-0.33461 -0.09818,-0.51496c-0.03763,-0.96576 0.7148,-1.77917 1.68056,-1.81679c0.96576,-0.03763 1.77917,0.7148 1.81679,1.68056c0.03763,0.96576 -0.7148,1.77917 -1.68056,1.81679c-0.34151,0.0133 -0.66398,-0.0722 -0.93982,-0.23096c0.0112,0.05968 0.01817,0.12089 0.0206,0.18337c0.02687,0.68983 -0.51055,1.27084 -1.2004,1.29771c-0.68983,0.02687 -1.27084,-0.51055 -1.29771,-1.2004z" fill="#3a1aaf" stroke="none" stroke-width="0.5" stroke-linecap="butt"/><path d="M318.07556,115.47741c-0.03763,-0.96576 0.7148,-1.77917 1.68056,-1.81679c0.96576,-0.03763 1.77917,0.7148 1.81679,1.68056c0.03763,0.96576 -0.7148,1.77917 -1.68056,1.81679c-0.96576,0.03763 -1.77917,-0.7148 -1.81679,-1.68056z" fill="#3a1aaf" stroke="none" stroke-width="0.5" stroke-linecap="butt"/><path d="M330.38245,114.55856c0.0168,0.00805 0.03341,0.01648 0.04979,0.02526c0.15521,-0.77434 0.8239,-1.37113 1.64786,-1.40324c0.37153,-0.01447 0.72051,0.08797 1.01145,0.27451c0.27555,-0.2086 0.61551,-0.33789 0.98703,-0.35236c0.96576,-0.03763 1.77917,0.7148 1.81679,1.68056c0.03763,0.96576 -0.7148,1.77917 -1.68056,1.81679c-0.37153,0.01447 -0.72051,-0.08797 -1.01145,-0.27451c-0.27555,0.2086 -0.61551,0.33789 -0.98703,0.35236c-0.47739,0.0186 -0.91753,-0.15585 -1.24517,-0.45366c-0.19364,0.40529 -0.59987,0.69233 -1.07992,0.71103c-0.39658,0.01545 -0.75719,-0.1556 -0.99722,-0.4349c-0.20729,0.0983 -0.43742,0.1572 -0.68116,0.16669c-0.77926,0.03035 -1.45933,-0.45365 -1.7127,-1.14906c-0.15072,0.54136 -0.55614,0.98034 -1.08368,1.17364c0.03358,0.10518 0.05367,0.21659 0.05819,0.33229c0.02687,0.68983 -0.51055,1.27084 -1.2004,1.29771c-0.68983,0.02687 -1.27084,-0.51055 -1.29771,-1.2004c-0.01569,-0.40285 0.16106,-0.76858 0.44824,-1.00852c-0.2128,-0.2772 -0.34489,-0.62068 -0.35953,-0.99645c-0.03763,-0.96576 0.7148,-1.77917 1.68056,-1.81679c0.77926,-0.03035 1.45933,0.45365 1.7127,1.14906c0.19849,-0.71301 0.83886,-1.24845 1.61813,-1.27881c0.82245,-0.03203 1.53439,0.5089 1.75084,1.26659c0.19826,-0.00249 0.38684,0.04156 0.55498,0.12222z" fill="#3a1aaf" stroke="none" stroke-width="0.5" stroke-linecap="butt"/><path d="M340.64285,116.7667c-0.00947,-0.24288 0.05103,-0.47228 0.16352,-0.66874c-0.52413,-0.285 -0.88911,-0.83089 -0.914,-1.47031c-0.03763,-0.96576 0.7148,-1.77917 1.68056,-1.81679c0.96576,-0.03763 1.77917,0.7148 1.81679,1.68056c0.02116,0.54319 -0.2076,1.03817 -0.58369,1.37405c0.19745,0.21149 0.3228,0.49216 0.33493,0.80396c0.02687,0.68983 -0.51055,1.27084 -1.2004,1.29771c-0.68983,0.02687 -1.27084,-0.51055 -1.29771,-1.2004z" fill="#3a1aaf" stroke="none" stroke-width="0.5" stroke-linecap="butt"/><path d="M346.54748,114.20161c-0.03763,-0.96576 0.7148,-1.77917 1.68056,-1.81679c0.96576,-0.03763 1.77917,0.7148 1.81679,1.68056c0.03763,0.96576 -0.7148,1.77917 -1.68056,1.81679c-0.96576,0.03763 -1.77917,-0.7148 -1.81679,-1.68056z" fill="#3a1aaf" stroke="none" stroke-width="0.5" stroke-linecap="butt"/><path d="M353.07499,114.78132c-0.03763,-0.96576 0.7148,-1.77917 1.68056,-1.81679c0.96576,-0.03763 1.77917,0.7148 1.81679,1.68056c0.03763,0.96576 -0.7148,1.77917 -1.68056,1.81679c-0.96576,0.03763 -1.77917,-0.7148 -1.81679,-1.68056z" fill="#3a1aaf" stroke="none" stroke-width="0.5" stroke-linecap="butt"/><path d="M360.03077,113.50962c-0.03763,-0.96576 0.7148,-1.77917 1.68056,-1.81679c0.96576,-0.03763 1.77917,0.7148 1.81679,1.68056c0.03763,0.96576 -0.7148,1.77917 -1.68056,1.81679c-0.96576,0.03763 -1.77917,-0.7148 -1.81679,-1.68056z" fill="#3a1aaf" stroke="none" stroke-width="0.5" stroke-linecap="butt"/><path d="M368.92446,112.74622c0.06668,-0.0026 0.13265,-0.00142 0.19769,0.00332c0.20484,-0.09564 0.43172,-0.15293 0.67178,-0.16228c0.96576,-0.03763 1.77917,0.7148 1.81679,1.68056c0.03763,0.96576 -0.7148,1.77917 -1.68056,1.81679c-0.06668,0.0026 -0.13265,0.00142 -0.19769,-0.00332c-0.20484,0.09564 -0.43172,0.15293 -0.67178,0.16228c-0.95663,0.03726 -1.7638,-0.70066 -1.8155,-1.65326c-0.30079,0.44998 -0.80546,0.75459 -1.38769,0.77727c-0.96576,0.03763 -1.77917,-0.7148 -1.81679,-1.68056c-0.03763,-0.96576 0.7148,-1.77917 1.68056,-1.81679c0.95663,-0.03726 1.7638,0.70066 1.8155,1.65326c0.30079,-0.44998 0.80546,-0.75459 1.38769,-0.77727z" fill="#3a1aaf" stroke="none" stroke-width="0.5" stroke-linecap="butt"/><path d="M264.46248,124.32083c0.96576,-0.03763 1.77917,0.7148 1.81679,1.68056c0.03763,0.96576 -0.7148,1.77917 -1.68056,1.81679c-0.51445,0.02004 -0.98568,-0.18411 -1.31944,-0.52526c-0.27604,0.55323 -0.83737,0.94286 -1.49878,0.96862c-0.96576,0.03763 -1.77917,-0.7148 -1.81679,-1.68056c-0.03763,-0.96576 0.7148,-1.77917 1.68056,-1.81679c0.51445,-0.02004 0.98568,0.18411 1.31944,0.52526c0.27604,-0.55323 0.83737,-0.94286 1.49878,-0.96862z" fill="#551cba" stroke="none" stroke-width="0.5" stroke-linecap="butt"/><path d="M267.9771,126.76921c-0.00703,-0.18065 0.02463,-0.35384 0.08759,-0.51156c-0.38418,-0.30619 -0.63793,-0.7715 -0.65856,-1.30092c-0.03763,-0.96576 0.7148,-1.77917 1.68056,-1.81679c0.96576,-0.03763 1.77917,0.7148 1.81679,1.68056c0.02063,0.52943 -0.19616,1.01307 -0.55537,1.3482c0.07505,0.15235 0.12008,0.32255 0.12711,0.5032c0.02687,0.68983 -0.51055,1.27084 -1.2004,1.29771c-0.68983,0.02687 -1.27084,-0.51055 -1.29771,-1.2004z" fill="#551cba" stroke="none" stroke-width="0.5" stroke-linecap="butt"/><path d="M274.9718,126.49676c0.02687,0.68983 -0.51055,1.27084 -1.2004,1.29771c-0.23061,0.00899 -0.44907,-0.0451 -0.63871,-0.14686c-0.90655,-0.03247 -1.64831,-0.75955 -1.68418,-1.68079c-0.03763,-0.96576 0.7148,-1.77917 1.68056,-1.81679c0.96576,-0.03763 1.77917,0.7148 1.81679,1.68056c0.00483,0.12395 -0.00336,0.24537 -0.02334,0.36297c0.02823,0.09656 0.0452,0.19811 0.04928,0.30318z" fill="#551cba" stroke="none" stroke-width="0.5" stroke-linecap="butt"/><path d="M282.62186,123.78028c0.96576,-0.03763 1.77917,0.7148 1.81679,1.68056c0.03763,0.96576 -0.7148,1.77917 -1.68056,1.81679c-0.44788,0.01745 -0.86298,-0.13502 -1.18312,-0.39986c-0.29859,0.28895 -0.70058,0.47322 -1.14845,0.49067c-0.96576,0.03763 -1.77917,-0.7148 -1.81679,-1.68056c-0.03763,-0.96576 0.7148,-1.77917 1.68056,-1.81679c0.44788,-0.01745 0.86298,0.13502 1.18312,0.39986c0.29859,-0.28895 0.70058,-0.47322 1.14845,-0.49067z" fill="#551cba" stroke="none" stroke-width="0.5" stroke-linecap="butt"/><path d="M285.92454,125.06938c-0.03763,-0.96576 0.7148,-1.77917 1.68056,-1.81679c0.96576,-0.03763 1.77917,0.7148 1.81679,1.68056c0.03763,0.96576 -0.7148,1.77917 -1.68056,1.81679c-0.96576,0.03763 -1.77917,-0.7148 -1.81679,-1.68056z" fill="#551cba" stroke="none" stroke-width="0.5" stroke-linecap="butt"/><path d="M294.2386,124.41196c-0.03763,-0.96576 0.7148,-1.77917 1.68056,-1.81679c0.96576,-0.03763 1.77917,0.7148 1.81679,1.68056c0.03763,0.96576 -0.7148,1.77917 -1.68056,1.81679c-0.96576,0.03763 -1.77917,-0.7148 -1.81679,-1.68056z" fill="#551cba" stroke="none" stroke-width="0.5" stroke-linecap="butt"/><path d="M301.58583,124.62615c-0.03763,-0.96576 0.7148,-1.77917 1.68056,-1.81679c0.96576,-0.03763 1.77917,0.7148 1.81679,1.68056c0.03763,0.96576 -0.7148,1.77917 -1.68056,1.81679c-0.96576,0.03763 -1.77917,-0.7148 -1.81679,-1.68056z" fill="#551cba" stroke="none" stroke-width="0.5" stroke-linecap="butt"/><path d="M310.83854,124.51594c0.68983,-0.02687 1.27084,0.51055 1.29771,1.2004c0.02687,0.68983 -0.51055,1.27084 -1.2004,1.29771c-0.66285,0.02582 -1.22521,-0.46939 -1.29203,-1.12018c-0.22356,0.11754 -0.47617,0.1883 -0.74537,0.19878c-0.96576,0.03763 -1.77917,-0.7148 -1.81679,-1.68056c-0.03763,-0.96576 0.7148,-1.77917 1.68056,-1.81679c0.96576,-0.03763 1.77917,0.7148 1.81679,1.68056c0.0037,0.09513 -0.00025,0.1888 -0.01134,0.28039c0.08682,-0.02286 0.17745,-0.03666 0.27088,-0.04031z" fill="#551cba" stroke="none" stroke-width="0.5" stroke-linecap="butt"/><path d="M317.56436,124.05865c-0.10817,-0.21596 -0.17314,-0.45788 -0.18315,-0.71493c-0.03763,-0.96576 0.7148,-1.77917 1.68056,-1.81679c0.96576,-0.03763 1.77917,0.7148 1.81679,1.68056c0.03763,0.96576 -0.7148,1.77917 -1.68056,1.81679c-0.36091,0.01405 -0.70055,-0.08222 -0.98639,-0.25873c0.04289,0.11832 0.06848,0.24519 0.07365,0.37768c0.02687,0.68983 -0.51055,1.27084 -1.2004,1.29771c-0.56714,0.02209 -1.06071,-0.33723 -1.23329,-0.84909c-0.14707,0.04689 -0.30283,0.07494 -0.46457,0.08124c-0.96576,0.03763 -1.77917,-0.7148 -1.81679,-1.68056c-0.03763,-0.96576 0.7148,-1.77917 1.68056,-1.81679c0.96576,-0.03763 1.77917,0.7148 1.81679,1.68056c0.00113,0.02879 0.00154,0.05744 0.00128,0.08594c0.17623,0.00443 0.34396,0.04561 0.4955,0.11638z" fill="#551cba" stroke="none" stroke-width="0.5" stroke-linecap="butt"/><path d="M327.55964,123.44764c0.03763,0.96576 -0.7148,1.77917 -1.68056,1.81679c-0.48488,0.01888 -0.93136,-0.16137 -1.26054,-0.4678c-0.85621,-0.08432 -1.54051,-0.78953 -1.57496,-1.67346c-0.03763,-0.96576 0.7148,-1.77917 1.68056,-1.81679c0.48488,-0.01888 0.93136,0.16137 1.26054,0.4678c0.85621,0.08432 1.54051,0.78953 1.57496,1.67346z" fill="#551cba" stroke="none" stroke-width="0.5" stroke-linecap="butt"/><path d="M329.55812,123.36981c-0.03763,-0.96576 0.7148,-1.77917 1.68056,-1.81679c0.96576,-0.03763 1.77917,0.7148 1.81679,1.68056c0.03763,0.96576 -0.7148,1.77917 -1.68056,1.81679c-0.96576,0.03763 -1.77917,-0.7148 -1.81679,-1.68056z" fill="#551cba" stroke="none" stroke-width="0.5" stroke-linecap="butt"/><path d="M335.70715,122.79671c-0.03763,-0.96576 0.7148,-1.77917 1.68056,-1.81679c0.96576,-0.03763 1.77917,0.7148 1.81679,1.68056c0.03763,0.96576 -0.7148,1.77917 -1.68056,1.81679c-0.96576,0.03763 -1.77917,-0.7148 -1.81679,-1.68056z" fill="#551cba" stroke="none" stroke-width="0.5" stroke-linecap="butt"/><path d="M343.70109,122.48535c-0.03763,-0.96576 0.7148,-1.77917 1.68056,-1.81679c0.96576,-0.03763 1.77917,0.7148 1.81679,1.68056c0.03763,0.96576 -0.7148,1.77917 -1.68056,1.81679c-0.96576,0.03763 -1.77917,-0.7148 -1.81679,-1.68056z" fill="#551cba" stroke="none" stroke-width="0.5" stroke-linecap="butt"/><path d="M348.53724,122.46375c-0.03763,-0.96576 0.7148,-1.77917 1.68056,-1.81679c0.96576,-0.03763 1.77917,0.7148 1.81679,1.68056c0.03763,0.96576 -0.7148,1.77917 -1.68056,1.81679c-0.96576,0.03763 -1.77917,-0.7148 -1.81679,-1.68056z" fill="#551cba" stroke="none" stroke-width="0.5" stroke-linecap="butt"/><path d="M355.57086,123.19054c-0.03763,-0.96576 0.7148,-1.77917 1.68056,-1.81679c0.96576,-0.03763 1.77917,0.7148 1.81679,1.68056c0.03763,0.96576 -0.7148,1.77917 -1.68056,1.81679c-0.96576,0.03763 -1.77917,-0.7148 -1.81679,-1.68056z" fill="#551cba" stroke="none" stroke-width="0.5" stroke-linecap="butt"/><path d="M360.28588,124.34123c-0.00701,-0.18005 0.02441,-0.35269 0.08696,-0.50998c-0.28563,-0.29797 -0.46759,-0.69757 -0.48492,-1.14244c-0.03763,-0.96576 0.7148,-1.77917 1.68056,-1.81679c0.96576,-0.03763 1.77917,0.7148 1.81679,1.68056c0.02221,0.57024 -0.23101,1.08734 -0.64094,1.42302c0.02246,0.08604 0.03604,0.17582 0.03965,0.26833c0.02687,0.68983 -0.51055,1.27084 -1.2004,1.29771c-0.68983,0.02687 -1.27084,-0.51055 -1.29771,-1.2004z" fill="#551cba" stroke="none" stroke-width="0.5" stroke-linecap="butt"/><path d="M365.54381,122.30171c-0.03763,-0.96576 0.7148,-1.77917 1.68056,-1.81679c0.96576,-0.03763 1.77917,0.7148 1.81679,1.68056c0.03763,0.96576 -0.7148,1.77917 -1.68056,1.81679c-0.96576,0.03763 -1.77917,-0.7148 -1.81679,-1.68056z" fill="#551cba" stroke="none" stroke-width="0.5" stroke-linecap="butt"/><path d="M374.2061,119.87938c0.96576,-0.03763 1.77917,0.7148 1.81679,1.68056c0.03763,0.96576 -0.7148,1.77917 -1.68056,1.81679c-0.42519,0.01656 -0.82085,-0.12 -1.13376,-0.36051c-0.25271,0.16106 -0.55017,0.25929 -0.87121,0.2718c-0.96576,0.03763 -1.77917,-0.7148 -1.81679,-1.68056c-0.03763,-0.96576 0.7148,-1.77917 1.68056,-1.81679c0.42519,-0.01656 0.82085,0.12 1.13376,0.36051c0.25271,-0.16106 0.55017,-0.25929 0.87121,-0.2718z" fill="#551cba" stroke="none" stroke-width="0.5" stroke-linecap="butt"/><path d="M261.02563,130.29244c0.96576,-0.03763 1.77917,0.7148 1.81679,1.68056c0.03763,0.96576 -0.7148,1.77917 -1.68056,1.81679c-0.32103,0.0125 -0.62525,-0.0623 -0.88971,-0.2032c-0.29327,0.2641 -0.67709,0.43103 -1.10228,0.4476c-0.96576,0.03763 -1.77917,-0.7148 -1.81679,-1.68056c-0.03763,-0.96576 0.7148,-1.77917 1.68056,-1.81679c0.32103,-0.0125 0.62525,0.0623 0.88971,0.2032c0.29327,-0.2641 0.67709,-0.43103 1.10228,-0.4476z" fill="#7822e0" stroke="none" stroke-width="0.5" stroke-linecap="butt"/><path d="M375.16199,129.43275c-0.00427,-0.10997 0.00577,-0.21718 0.0285,-0.31981c-0.3061,0.36157 -0.75713,0.59838 -1.26782,0.61827c-0.05616,0.00218 -0.11182,0.00171 -0.16685,-0.00133c-0.05461,0.00731 -0.11006,0.01212 -0.16625,0.01432c-0.96576,0.03763 -1.77917,-0.7148 -1.81679,-1.68056c-0.03763,-0.96576 0.7148,-1.77917 1.68056,-1.81679c0.05616,-0.00218 0.11182,-0.00171 0.16685,0.00133c0.05461,-0.00731 0.11006,-0.01212 0.16625,-0.01432c0.96576,-0.03763 1.77917,0.7148 1.81679,1.68056c0.00797,0.20424 -0.01943,0.40168 -0.07667,0.5864c0.15892,-0.15922 0.36088,-0.2761 0.58796,-0.3313c-0.00573,-0.9399 0.73569,-1.72141 1.68188,-1.75828c0.96576,-0.03763 1.77917,0.7148 1.81679,1.68056c0.03763,0.96576 -0.7148,1.77917 -1.68056,1.81679c-0.12825,0.005 -0.2538,-0.00394 -0.3752,-0.02546c-0.18573,0.42577 -0.60244,0.73069 -1.09772,0.74999c-0.68983,0.02687 -1.27084,-0.51055 -1.29771,-1.2004z" fill="#7822e0" stroke="none" stroke-width="0.5" stroke-linecap="butt"/><path d="M365.77735,128.29716c-0.03763,-0.96576 0.7148,-1.77917 1.68056,-1.81679c0.38384,-0.01495 0.74356,0.09489 1.04012,0.29328c0.26822,-0.00625 0.52414,0.04838 0.75431,0.15144c0.073,-0.01223 0.1476,-0.01999 0.22353,-0.02296c0.96576,-0.03763 1.77917,0.7148 1.81679,1.68056c0.03763,0.96576 -0.7148,1.77917 -1.68056,1.81679c-0.27836,0.01083 -0.54408,-0.04395 -0.78221,-0.15057c-0.073,0.01223 -0.1476,0.01999 -0.22353,0.02296c-0.38384,0.01495 -0.74356,-0.09489 -1.04012,-0.29328c-0.95348,0.02223 -1.75163,-0.72498 -1.78888,-1.68143z" fill="#7822e0" stroke="none" stroke-width="0.5" stroke-linecap="butt"/><path d="M363.77455,126.12346c0.96576,-0.03763 1.77917,0.7148 1.81679,1.68056c0.03763,0.96576 -0.7148,1.77917 -1.68056,1.81679c-0.54716,0.02132 -1.04543,-0.21095 -1.38139,-0.59196c-0.21997,0.67756 -0.84352,1.179 -1.59688,1.20833c-0.96576,0.03763 -1.77917,-0.7148 -1.81679,-1.68056c-0.03763,-0.96576 0.7148,-1.77917 1.68056,-1.81679c0.54716,-0.02132 1.04543,0.21095 1.38139,0.59196c0.21997,-0.67756 0.84352,-1.179 1.59688,-1.20833z" fill="#7822e0" stroke="none" stroke-width="0.5" stroke-linecap="butt"/><path d="M323.29658,129.61825c-0.03763,-0.96576 0.7148,-1.77917 1.68056,-1.81679c0.72769,-0.02835 1.36888,0.39186 1.65688,1.01387c0.12648,-0.80976 0.81111,-1.44359 1.66097,-1.47669c0.96576,-0.03763 1.77917,0.7148 1.81679,1.68056c0.03763,0.96576 -0.7148,1.77917 -1.68056,1.81679c-0.72769,0.02835 -1.36888,-0.39186 -1.65688,-1.01387c-0.12648,0.80976 -0.81111,1.44359 -1.66097,1.47669c-0.96576,0.03763 -1.77917,-0.7148 -1.81679,-1.68056z" fill="#7822e0" stroke="none" stroke-width="0.5" stroke-linecap="butt"/><path d="M321.44518,129.18998c0.03763,0.96576 -0.7148,1.77917 -1.68056,1.81679c-0.56781,0.02211 -1.08294,-0.22884 -1.41871,-0.63571c-0.43174,-0.30312 -0.72202,-0.79716 -0.74413,-1.36495c-0.03763,-0.96576 0.7148,-1.77917 1.68056,-1.81679c0.56781,-0.02211 1.08294,0.22884 1.41871,0.63571c0.43174,0.30312 0.72202,0.79716 0.74413,1.36495z" fill="#7822e0" stroke="none" stroke-width="0.5" stroke-linecap="butt"/><path d="M311.96315,131.97782c-0.61468,0.02394 -1.14295,-0.40016 -1.26978,-0.98089c-0.03866,-0.04724 -0.0749,-0.09655 -0.10854,-0.14775c-0.28621,0.51974 -0.82976,0.88105 -1.46585,0.90584c-0.96576,0.03763 -1.77917,-0.7148 -1.81679,-1.68056c-0.03763,-0.96576 0.7148,-1.77917 1.68056,-1.81679c0.61822,-0.02409 1.174,0.27557 1.50382,0.74768c0.16725,-0.75838 0.82865,-1.33892 1.64099,-1.37055c0.96576,-0.03763 1.77917,0.7148 1.81679,1.68056c0.01118,0.28701 -0.04741,0.56057 -0.16067,0.80431c-0.06838,0.52034 -0.36664,0.97205 -0.79279,1.24488c-0.20897,0.35306 -0.5873,0.5961 -1.02774,0.61327z" fill="#7822e0" stroke="none" stroke-width="0.5" stroke-linecap="butt"/><path d="M262.83594,131.80647c-0.03763,-0.96576 0.7148,-1.77917 1.68056,-1.81679c0.96576,-0.03763 1.77917,0.7148 1.81679,1.68056c0.03763,0.96576 -0.7148,1.77917 -1.68056,1.81679c-0.96576,0.03763 -1.77917,-0.7148 -1.81679,-1.68056z" fill="#7822e0" stroke="none" stroke-width="0.5" stroke-linecap="butt"/><path d="M267.88405,132.94418c-0.02382,-0.61162 0.39594,-1.13768 0.97224,-1.26783c-0.01716,-0.0877 -0.0278,-0.17786 -0.03138,-0.26994c-0.03652,-0.93768 0.67171,-1.73175 1.59688,-1.81155c0.22306,-0.1169 0.47496,-0.18727 0.74336,-0.19773c0.43917,-0.01711 0.84683,0.12915 1.16437,0.38457c0.19955,0.07445 0.37557,0.1986 0.51238,0.35794c0.30548,-0.40324 0.7825,-0.67149 1.32747,-0.69272c0.96576,-0.03763 1.77917,0.7148 1.81679,1.68056c0.03763,0.96576 -0.7148,1.77917 -1.68056,1.81679c-0.67238,0.0262 -1.27091,-0.33057 -1.5852,-0.87564c-0.2825,0.45434 -0.76816,0.7717 -1.33532,0.82063c-0.22306,0.1169 -0.47496,0.18727 -0.74336,0.19773c-0.09208,0.00358 -0.18279,0 -0.27156,-0.01029c-0.08494,0.58467 -0.57677,1.04409 -1.18838,1.06792c-0.68983,0.02687 -1.27084,-0.51055 -1.29771,-1.2004z" fill="#7822e0" stroke="none" stroke-width="0.5" stroke-linecap="butt"/><path d="M268.59016,151.27847c-0.50474,-12.95819 9.59078,-23.87202 22.54896,-24.37675c12.95819,-0.50474 23.87201,9.59077 24.37675,22.54895c0.50474,12.95819 -9.59077,23.87202 -22.54894,24.37676c-12.95819,0.50474 -23.87203,-9.59078 -24.37676,-22.54895z" fill="url(#color-1)" stroke="#000000" stroke-width="0" stroke-linecap="butt"/><path d="M347.18428,171.71562c-12.95819,0.50474 -23.87202,-9.59078 -24.37675,-22.54896c-0.50474,-12.95819 9.59077,-23.87201 22.54895,-24.37675c12.95819,-0.50474 23.87202,9.59077 24.37676,22.54894c0.50474,12.95819 -9.59078,23.87203 -22.54895,24.37676z" fill="url(#color-2)" stroke="#000000" stroke-width="0" stroke-linecap="butt"/><path d="M270.45363,121.83575c-0.02687,-0.68983 0.51055,-1.27084 1.2004,-1.29771c0.68983,-0.02687 1.27084,0.51055 1.29771,1.2004c0.02687,0.68983 -0.51055,1.27084 -1.2004,1.29771c-0.68983,0.02687 -1.27084,-0.51055 -1.29771,-1.2004z" fill="#3a1aaf" stroke="none" stroke-width="0.5" stroke-linecap="butt"/><path d="M287.92092,120.655c-0.02687,-0.68983 0.51055,-1.27084 1.2004,-1.29771c0.68983,-0.02687 1.27084,0.51055 1.29771,1.2004c0.02687,0.68983 -0.51055,1.27084 -1.2004,1.29771c-0.68983,0.02687 -1.27084,-0.51055 -1.29771,-1.2004z" fill="#3a1aaf" stroke="none" stroke-width="0.5" stroke-linecap="butt"/><path d="M292.67921,118.63494c-0.02687,-0.68983 0.51055,-1.27084 1.2004,-1.29771c0.68983,-0.02687 1.27084,0.51055 1.29771,1.2004c0.02687,0.68983 -0.51055,1.27084 -1.2004,1.29771c-0.68983,0.02687 -1.27084,-0.51055 -1.29771,-1.2004z" fill="#3a1aaf" stroke="none" stroke-width="0.5" stroke-linecap="butt"/><path d="M315.67041,122.24282c-0.00198,-0.05109 0.00117,-0.10119 0.00903,-0.14978c-0.49938,-0.14801 -0.87224,-0.60073 -0.89364,-1.15011c-0.02687,-0.68983 0.51055,-1.27084 1.2004,-1.29771c0.68983,-0.02687 1.27084,0.51055 1.29771,1.2004c0.01289,0.3307 -0.10391,0.63639 -0.30503,0.868c0.11235,0.12549 0.18331,0.28935 0.19039,0.47081c0.01612,0.4139 -0.30634,0.76251 -0.72024,0.77862c-0.4139,0.01612 -0.76251,-0.30634 -0.77862,-0.72024z" fill="#3a1aaf" stroke="none" stroke-width="0.5" stroke-linecap="butt"/><path d="M317.4245,120.17298c-0.02687,-0.68983 0.51055,-1.27084 1.2004,-1.29771c0.68983,-0.02687 1.27084,0.51055 1.29771,1.2004c0.02687,0.68983 -0.51055,1.27084 -1.2004,1.29771c-0.68983,0.02687 -1.27084,-0.51055 -1.29771,-1.2004z" fill="#3a1aaf" stroke="none" stroke-width="0.5" stroke-linecap="butt"/><path d="M351.88538,118.49709c-0.02687,-0.68983 0.51055,-1.27084 1.2004,-1.29771c0.68983,-0.02687 1.27084,0.51055 1.29771,1.2004c0.02687,0.68983 -0.51055,1.27084 -1.2004,1.29771c-0.68983,0.02687 -1.27084,-0.51055 -1.29771,-1.2004z" fill="#3a1aaf" stroke="none" stroke-width="0.5" stroke-linecap="butt"/><path d="M358.2269,118.58367c-0.02687,-0.68983 0.51055,-1.27084 1.2004,-1.29771c0.68983,-0.02687 1.27084,0.51055 1.29771,1.2004c0.02687,0.68983 -0.51055,1.27084 -1.2004,1.29771c-0.68983,0.02687 -1.27084,-0.51055 -1.29771,-1.2004z" fill="#3a1aaf" stroke="none" stroke-width="0.5" stroke-linecap="butt"/><path d="M362.1525,116.59605c-0.02687,-0.68983 0.51055,-1.27084 1.2004,-1.29771c0.68983,-0.02687 1.27084,0.51055 1.29771,1.2004c0.02687,0.68983 -0.51055,1.27084 -1.2004,1.29771c-0.68983,0.02687 -1.27084,-0.51055 -1.29771,-1.2004z" fill="#3a1aaf" stroke="none" stroke-width="0.5" stroke-linecap="butt"/><path d="M262.64344,131.14679c-0.01612,-0.4139 0.30634,-0.76251 0.72024,-0.77862c0.03734,-0.00146 0.07414,-0.00015 0.11022,0.00372c-0.0207,-0.08252 -0.03325,-0.16839 -0.03668,-0.25678c-0.02687,-0.68983 0.51055,-1.27084 1.2004,-1.29771c0.68983,-0.02687 1.27084,0.51055 1.29771,1.2004c0.02687,0.68983 -0.51055,1.27084 -1.2004,1.29771c-0.2133,0.00831 -0.4162,-0.03734 -0.59554,-0.12476c-0.03555,0.36756 -0.33804,0.66151 -0.71732,0.67629c-0.4139,0.01612 -0.76251,-0.30634 -0.77862,-0.72024z" fill="#551cba" stroke="none" stroke-width="0.5" stroke-linecap="butt"/><path d="M276.38846,128.60989c-0.02687,-0.68983 0.51055,-1.27084 1.2004,-1.29771c0.68983,-0.02687 1.27084,0.51055 1.29771,1.2004c0.02687,0.68983 -0.51055,1.27084 -1.2004,1.29771c-0.68983,0.02687 -1.27084,-0.51055 -1.29771,-1.2004z" fill="#551cba" stroke="none" stroke-width="0.5" stroke-linecap="butt"/><path d="M306.71826,127.92889c-0.02687,-0.68983 0.51055,-1.27084 1.2004,-1.29771c0.68983,-0.02687 1.27084,0.51055 1.29771,1.2004c0.02687,0.68983 -0.51055,1.27084 -1.2004,1.29771c-0.68983,0.02687 -1.27084,-0.51055 -1.29771,-1.2004z" fill="#551cba" stroke="none" stroke-width="0.5" stroke-linecap="butt"/><path d="M321.5663,128.01772c-0.00216,-0.05511 0.00171,-0.10908 0.011,-0.16124c-0.13312,0.05526 -0.27814,0.08826 -0.43058,0.0942c-0.68983,0.02687 -1.27084,-0.51055 -1.29771,-1.2004c-0.02687,-0.68983 0.51055,-1.27084 1.2004,-1.29771c0.68983,-0.02687 1.27084,0.51055 1.29771,1.2004c0.00824,0.21155 -0.03659,0.41286 -0.12261,0.59108c0.02044,-0.00247 0.04112,-0.00414 0.06204,-0.00497c0.09002,-0.00349 0.17697,0.00901 0.25807,0.03499c-0.00594,-0.042 -0.00981,-0.08469 -0.0115,-0.128c-0.02687,-0.68983 0.51055,-1.27084 1.2004,-1.29771c0.68983,-0.02687 1.27084,0.51055 1.29771,1.2004c0.02687,0.68983 -0.51055,1.27084 -1.2004,1.29771c-0.28838,0.01123 -0.55776,-0.07615 -0.77557,-0.23209c-0.05795,0.34256 -0.34938,0.60948 -0.71032,0.62354c-0.4139,0.01612 -0.76251,-0.30634 -0.77862,-0.72024z" fill="#551cba" stroke="none" stroke-width="0.5" stroke-linecap="butt"/><path d="M327.16381,126.13175c-0.02687,-0.68983 0.51055,-1.27084 1.2004,-1.29771c0.68983,-0.02687 1.27084,0.51055 1.29771,1.2004c0.02687,0.68983 -0.51055,1.27084 -1.2004,1.29771c-0.68983,0.02687 -1.27084,-0.51055 -1.29771,-1.2004z" fill="#551cba" stroke="none" stroke-width="0.5" stroke-linecap="butt"/><path d="M363.15599,125.23019c-0.02687,-0.68983 0.51055,-1.27084 1.2004,-1.29771c0.68983,-0.02687 1.27084,0.51055 1.29771,1.2004c0.02687,0.68983 -0.51055,1.27084 -1.2004,1.29771c-0.68983,0.02687 -1.27084,-0.51055 -1.29771,-1.2004z" fill="#551cba" stroke="none" stroke-width="0.5" stroke-linecap="butt"/><path d="M368.44848,128.35991c-0.00496,-0.12718 0.02206,-0.24818 0.07387,-0.35528c-0.4509,-0.17448 -0.7784,-0.60379 -0.79841,-1.11763c-0.02687,-0.68983 0.51055,-1.27084 1.2004,-1.29771c0.68983,-0.02687 1.27084,0.51055 1.29771,1.2004c0.01616,0.4152 -0.17207,0.79097 -0.47495,1.03023c0.11807,0.12682 0.19298,0.29491 0.20025,0.4816c0.01612,0.4139 -0.30634,0.76251 -0.72024,0.77862c-0.4139,0.01612 -0.76251,-0.30634 -0.77862,-0.72024z" fill="#551cba" stroke="none" stroke-width="0.5" stroke-linecap="butt"/><path d="M371.33594,125.41196c-0.02687,-0.68983 0.51055,-1.27084 1.2004,-1.29771c0.68983,-0.02687 1.27084,0.51055 1.29771,1.2004c0.02687,0.68983 -0.51055,1.27084 -1.2004,1.29771c-0.68983,0.02687 -1.27084,-0.51055 -1.29771,-1.2004z" fill="#551cba" stroke="none" stroke-width="0.5" stroke-linecap="butt"/><path d="M261.90368,137.84733c-0.02687,-0.68983 0.51055,-1.27084 1.2004,-1.29771c0.68983,-0.02687 1.27084,0.51055 1.29771,1.2004c0.02687,0.68983 -0.51055,1.27084 -1.2004,1.29771c-0.68983,0.02687 -1.27084,-0.51055 -1.29771,-1.2004z" fill="#7822e0" stroke="none" stroke-width="0.5" stroke-linecap="butt"/><path d="M317.04589,131.86324c0.02687,0.68983 -0.51055,1.27084 -1.2004,1.29771c-0.62754,0.02445 -1.16502,-0.41811 -1.27719,-1.01755c-0.49862,-0.14847 -0.87075,-0.60082 -0.89212,-1.14966c-0.02687,-0.68983 0.51055,-1.27084 1.2004,-1.29771c0.62754,-0.02445 1.16502,0.41811 1.27719,1.01755c0.49862,0.14847 0.87075,0.60082 0.89212,1.14966z" fill="#7822e0" stroke="none" stroke-width="0.5" stroke-linecap="butt"/><path d="M317.61686,133.67572c-0.02687,-0.68983 0.51055,-1.27084 1.2004,-1.29771c0.68983,-0.02687 1.27084,0.51055 1.29771,1.2004c0.02687,0.68983 -0.51055,1.27084 -1.2004,1.29771c-0.68983,0.02687 -1.27084,-0.51055 -1.29771,-1.2004z" fill="#7822e0" stroke="none" stroke-width="0.5" stroke-linecap="butt"/><path d="M366.40022,131.44196c-0.02687,-0.68983 0.51055,-1.27084 1.2004,-1.29771c0.68983,-0.02687 1.27084,0.51055 1.29771,1.2004c0.02687,0.68983 -0.51055,1.27084 -1.2004,1.29771c-0.68983,0.02687 -1.27084,-0.51055 -1.29771,-1.2004z" fill="#7822e0" stroke="none" stroke-width="0.5" stroke-linecap="butt"/><path d="M371.24935,131.75346c-0.02687,-0.68983 0.51055,-1.27084 1.2004,-1.29771c0.68983,-0.02687 1.27084,0.51055 1.29771,1.2004c0.02687,0.68983 -0.51055,1.27084 -1.2004,1.29771c-0.68983,0.02687 -1.27084,-0.51055 -1.29771,-1.2004z" fill="#7822e0" stroke="none" stroke-width="0.5" stroke-linecap="butt"/><path d="M275.00211,122.99292c-0.01612,-0.4139 0.30634,-0.76251 0.72024,-0.77862c0.4139,-0.01612 0.76251,0.30634 0.77862,0.72024c0.01612,0.4139 -0.30634,0.76251 -0.72024,0.77862c-0.4139,0.01612 -0.76251,-0.30634 -0.77862,-0.72024z" fill="#3a1aaf" stroke="none" stroke-width="0.5" stroke-linecap="butt"/><path d="M291.00945,122.86979c-0.01612,-0.4139 0.30634,-0.76251 0.72024,-0.77862c0.4139,-0.01612 0.76251,0.30634 0.77862,0.72024c0.01612,0.4139 -0.30634,0.76251 -0.72024,0.77862c-0.4139,0.01612 -0.76251,-0.30634 -0.77862,-0.72024z" fill="#3a1aaf" stroke="none" stroke-width="0.5" stroke-linecap="butt"/><path d="M356.12674,120.33341c-0.01612,-0.4139 0.30634,-0.76251 0.72024,-0.77862c0.4139,-0.01612 0.76251,0.30634 0.77862,0.72024c0.01612,0.4139 -0.30634,0.76251 -0.72024,0.77862c-0.4139,0.01612 -0.76251,-0.30634 -0.77862,-0.72024z" fill="#3a1aaf" stroke="none" stroke-width="0.5" stroke-linecap="butt"/><path d="M360.32267,121.00394c-0.01612,-0.4139 0.30634,-0.76251 0.72024,-0.77862c0.4139,-0.01612 0.76251,0.30634 0.77862,0.72024c0.01612,0.4139 -0.30634,0.76251 -0.72024,0.77862c-0.4139,0.01612 -0.76251,-0.30634 -0.77862,-0.72024z" fill="#3a1aaf" stroke="none" stroke-width="0.5" stroke-linecap="butt"/><path d="M308.46151,129.86251c-0.01612,-0.4139 0.30634,-0.76251 0.72024,-0.77862c0.4139,-0.01612 0.76251,0.30634 0.77862,0.72024c0.01612,0.4139 -0.30634,0.76251 -0.72024,0.77862c-0.4139,0.01612 -0.76251,-0.30634 -0.77862,-0.72024z" fill="#551cba" stroke="none" stroke-width="0.5" stroke-linecap="butt"/><path d="M327.60716,128.94997c-0.01612,-0.4139 0.30634,-0.76251 0.72024,-0.77862c0.4139,-0.01612 0.76251,0.30634 0.77862,0.72024c0.01612,0.4139 -0.30634,0.76251 -0.72024,0.77862c-0.4139,0.01612 -0.76251,-0.30634 -0.77862,-0.72024z" fill="#551cba" stroke="none" stroke-width="0.5" stroke-linecap="butt"/><path d="M264.38444,141.58694c-0.01612,-0.4139 0.30634,-0.76251 0.72024,-0.77862c0.4139,-0.01612 0.76251,0.30634 0.77862,0.72024c0.01612,0.4139 -0.30634,0.76251 -0.72024,0.77862c-0.4139,0.01612 -0.76251,-0.30634 -0.77862,-0.72024z" fill="#7822e0" stroke="none" stroke-width="0.5" stroke-linecap="butt"/><path d="M317.048,136.19977c-0.01612,-0.4139 0.30634,-0.76251 0.72024,-0.77862c0.4139,-0.01612 0.76251,0.30634 0.77862,0.72024c0.01612,0.4139 -0.30634,0.76251 -0.72024,0.77862c-0.4139,0.01612 -0.76251,-0.30634 -0.77862,-0.72024z" fill="#7822e0" stroke="none" stroke-width="0.5" stroke-linecap="butt"/><path d="M370.51395,134.284c-0.01612,-0.4139 0.30634,-0.76251 0.72024,-0.77862c0.4139,-0.01612 0.76251,0.30634 0.77862,0.72024c0.01612,0.4139 -0.30634,0.76251 -0.72024,0.77862c-0.4139,0.01612 -0.76251,-0.30634 -0.77862,-0.72024z" fill="#7822e0" stroke="none" stroke-width="0.5" stroke-linecap="butt"/></g><path d="M300.23716,128.56764c-1.51777,3.635 -5.05487,5.82369 -9.25006,5.9871c-4.06201,0.15823 -7.65001,-1.45506 -9.5054,-4.77641c-0.37718,-0.6752 4.25942,-2.69979 8.97343,-2.97406c4.99087,-0.29037 10.0735,1.0652 9.78199,1.76338z" fill="#000000" stroke="#000000" stroke-width="0" stroke-linecap="butt"/><path d="M353.32318,125.9907c-1.41686,3.54499 -4.81588,6.1102 -8.8769,6.26836c-3.88151,0.15119 -7.17731,-1.65701 -8.94886,-4.83168c-0.38712,-0.6937 4.78147,-2.47006 9.63632,-2.73219c4.43061,-0.23921 8.42963,0.69456 8.18945,1.2955z" fill="#000000" stroke="#000000" stroke-width="0" stroke-linecap="butt"/></g><g stroke="none" stroke-width="0" stroke-linecap="butt"><path d="M351.53778,226.79794c0.99526,25.55142 29.81683,47.48613 -26.85282,47.98151c-63.05609,0.5512 -30.67637,-19.34991 -31.67163,-44.90131c-0.99526,-25.55141 15.42975,-47.13627 28.06749,-47.62853c12.63774,-0.49226 29.46171,18.99691 30.45697,44.54833z" fill="#000000"/><path d="M310.22613,190.53681c2.681,-0.2473 0.85289,9.24646 0.85289,9.24646c0,0 -3.5339,-8.99916 -0.85289,-9.24646z" fill="#e2e2e2"/><path d="M313.70172,187.54729c2.69226,-0.02533 0.08735,9.2853 0.08735,9.2853c0,0 -2.77962,-9.25996 -0.08735,-9.2853z" fill="#e2e2e2"/><path d="M330.61212,198.73652c0,0 -2.56104,-9.3228 0.13108,-9.28479c2.69211,0.038 -0.13108,9.28479 -0.13108,9.28479z" fill="#e2e2e2"/><path d="M328.3154,195.98083c0,0 -3.32125,-9.07981 -0.63516,-9.26396c2.68609,-0.18417 0.63516,9.26396 0.63516,9.26396z" fill="#e2e2e2"/><path d="M325.04961,194.25151c0,0 -3.21711,-9.11721 -0.52909,-9.27062c2.68801,-0.15342 0.52909,9.27062 0.52909,9.27062z" fill="#e2e2e2"/><path d="M317.03636,185.12944c2.69181,-0.05615 0.19362,9.28369 0.19362,9.28369c0,0 -2.88543,-9.22755 -0.19362,-9.28369z" fill="#e2e2e2"/><path d="M319.57898,183.42204c2.69181,-0.05615 0.19362,9.28369 0.19362,9.28369c0,0 -2.88543,-9.22755 -0.19362,-9.28369z" fill="#e2e2e2"/><path d="M322.73322,192.59041c0,0 -3.2171,-9.11722 -0.52909,-9.27063c2.68801,-0.15342 0.52909,9.27063 0.52909,9.27063z" fill="#e2e2e2"/></g><g stroke="none" stroke-width="0" stroke-linecap="butt"><path d="M307.2138,262.2765c0.39661,10.18204 -7.67717,18.76324 -18.03326,19.16663c-10.35611,0.40338 -19.0729,-7.5238 -19.4695,-17.70584c-0.39661,-10.18204 -0.40136,-19.29473 18.03326,-19.16663c29.28435,0.20349 19.0729,7.52379 19.4695,17.70584z" fill="#751cbd"/><path d="M358.11712,241.82955c18.36882,-1.56163 19.0729,7.52379 19.4695,17.70584c0.39661,10.18204 -7.67717,18.76324 -18.03326,19.16663c-10.35611,0.40338 -19.0729,-7.5238 -19.4695,-17.70584c-0.39661,-10.18204 -11.14651,-16.68588 18.03326,-19.16663z" fill="#751cbd"/><path d="M307.23835,262.90681c0.39661,10.18204 -7.67717,18.76324 -18.03326,19.16663c-10.35611,0.40338 -19.0729,-7.5238 -19.4695,-17.70584c-0.39661,-10.18204 -0.40136,-19.29473 18.03326,-19.16663c29.28435,0.20349 19.0729,7.52379 19.4695,17.70584z" fill="#8b21e0"/><path d="M358.14168,242.45985c18.36882,-1.56163 19.0729,7.52379 19.4695,17.70584c0.39661,10.18204 -7.67717,18.76324 -18.03326,19.16663c-10.35611,0.40338 -19.0729,-7.5238 -19.4695,-17.70584c-0.39661,-10.18204 -11.14651,-16.68588 18.03326,-19.16663z" fill="#8b21e0"/></g></g></g></g></svg>