<svg version="1.1" xmlns="http://www.w3.org/2000/svg" xmlns:xlink="http://www.w3.org/1999/xlink" width="213.18203" height="285.5931" viewBox="0,0,213.18203,285.5931"><defs><linearGradient x1="320.08742" y1="187.07227" x2="320.08742" y2="244.23177" gradientUnits="userSpaceOnUse" id="color-1"><stop offset="0" stop-color="#2d7a1a" stop-opacity="0.73333"/><stop offset="1" stop-color="#2d7a1a" stop-opacity="0"/></linearGradient></defs><g transform="translate(-214.52362,-34.47917)"><g stroke-miterlimit="10"><g stroke="#000000" stroke-linecap="butt"><path d="M286.35186,319.07226l15.14285,-131.8421l37.78325,-0.15789l13.57389,132z" fill="#a2f30f" stroke-width="0"/><path d="M295.01902,243.61117l6.47569,-56.38101l37.78325,-0.15789l5.87786,57.15951z" fill="url(#color-1)" stroke-width="0"/><path d="M286.35186,319.07226l15.14285,-131.8421l37.78325,-0.15789l13.57389,132z" fill="none" stroke-width="2"/></g><path d="M214.52362,306.61252v-267.72501h213.18203v267.72501z" fill="none" stroke="none" stroke-width="0" stroke-linecap="butt"/><g fill="#a2f30f" stroke="#000000" stroke-width="2"><path d="M255.36488,139.38274c0,-33.30185 28.7599,-60.29833 64.23702,-60.29833c35.47713,0 64.23702,26.99648 64.23702,60.29833c0,33.30185 -28.75989,60.29834 -64.23702,60.29834c-35.47712,0 -64.23702,-26.99649 -64.23702,-60.29834z" stroke-linecap="butt"/><path d="M256.61579,151.74299l-19.24017,-61.51434l13.27843,7.85866l-3.79384,-53.1137l48.23592,26.55685l-5.96174,-34.14452l20.05313,19.78214l4.06482,-13.00744l13.8204,23.034l14.63337,-20.32412l34.95749,64.7662" stroke-linecap="round"/></g><path d="" fill="none" stroke="#000000" stroke-width="2" stroke-linecap="round"/><path d="M352.93465,190.39377l-66.76951,-0.39324c0,0 0.70819,-5.19133 32.32035,-4.70805c33.97303,0.51937 34.44916,5.10129 34.44916,5.10129z" fill="#ffffff" stroke="#000000" stroke-width="2" stroke-linecap="round"/><path d="M308.91653,165.5634l4.55222,-14.63337" fill="none" stroke="#81c10c" stroke-width="2" stroke-linecap="round"/><path d="M324.90484,149.57509l4.6068,14.63337" fill="none" stroke="#81c10c" stroke-width="2" stroke-linecap="round"/><path d="M268.99199,143.18121c0,-12.96801 10.51265,-23.48065 23.48066,-23.48065c12.96801,0 23.48065,10.51264 23.48065,23.48065c0,12.96801 -10.51264,23.48066 -23.48065,23.48066c-12.96801,0 -23.48066,-10.51265 -23.48066,-23.48066z" fill="#81c10c" stroke="none" stroke-width="0" stroke-linecap="butt"/><path d="M346.73111,166.66189c-12.96801,0 -23.48065,-10.51265 -23.48065,-23.48066c0,-12.96801 10.51264,-23.48065 23.48065,-23.48065c12.96801,0 23.48066,10.51264 23.48066,23.48065c0,12.96801 -10.51265,23.48066 -23.48066,23.48066z" fill="#81c10c" stroke="none" stroke-width="0" stroke-linecap="butt"/><path d="M268.99199,139.65836c0,-12.96801 10.51265,-23.48065 23.48066,-23.48065c12.96801,0 23.48065,10.51264 23.48065,23.48065c0,12.96801 -10.51264,23.48066 -23.48065,23.48066c-12.96801,0 -23.48066,-10.51265 -23.48066,-23.48066z" fill="#ffffff" stroke="#000000" stroke-width="2" stroke-linecap="butt"/><path d="M282.32119,140.04232c0,-5.0819 4.11969,-9.2016 9.20159,-9.2016c5.0819,0 9.2016,4.11969 9.2016,9.2016c0,5.0819 -4.11969,9.2016 -9.2016,9.2016c-5.0819,0 -9.20159,-4.11969 -9.20159,-9.2016z" fill="none" stroke="#000000" stroke-width="5" stroke-linecap="butt"/><path d="M346.73111,163.13904c-12.96801,0 -23.48065,-10.51265 -23.48065,-23.48066c0,-12.96801 10.51264,-23.48065 23.48065,-23.48065c12.96801,0 23.48066,10.51264 23.48066,23.48065c0,12.96801 -10.51265,23.48066 -23.48066,23.48066z" fill="#ffffff" stroke="#000000" stroke-width="2" stroke-linecap="butt"/><path d="M360.05645,141.40227c0,7.10304 -5.75814,12.86118 -12.86116,12.86118c-7.10303,0 -12.86117,-5.75815 -12.86117,-12.86118c0,-7.10304 5.75815,-12.86118 12.86117,-12.86118c7.10303,0 12.86116,5.75815 12.86116,12.86117z" fill="#000000" stroke="#000000" stroke-width="5" stroke-linecap="butt"/></g></g></svg>