<svg version="1.1" xmlns="http://www.w3.org/2000/svg" xmlns:xlink="http://www.w3.org/1999/xlink" width="213.18203" height="280.18477" viewBox="0,0,213.18203,280.18477"><defs><radialGradient cx="346.73113" cy="143.34791" r="23.48065" gradientUnits="userSpaceOnUse" id="color-1"><stop offset="0" stop-color="#ffffff"/><stop offset="1" stop-color="#ffc5c5"/></radialGradient><radialGradient cx="288.7303" cy="157.56348" r="23.48065" gradientUnits="userSpaceOnUse" id="color-2"><stop offset="0" stop-color="#ffffff"/><stop offset="1" stop-color="#ffc5c5"/></radialGradient></defs><g transform="translate(-214.52362,-38.88751)"><g stroke-miterlimit="10"><path d="M214.52362,306.61252v-267.72501h213.18203v267.72501z" fill="none" stroke="none" stroke-width="0" stroke-linecap="butt"/><g stroke-linecap="butt"><path d="M286.35186,319.07227l15.14285,-131.8421l37.78325,-0.15789l13.57389,132z" fill="#b9bebf" stroke="#000000" stroke-width="0"/><path d="M294.32241,249.6762l7.1723,-62.44603l37.78325,-0.15789l6.41697,62.40218z" fill="#b0b4b5" stroke="#000000" stroke-width="0"/><path d="M295.77954,236.98961l5.71517,-49.75944l37.78325,-0.15789l5.06409,49.24606z" fill="#949797" stroke="#000000" stroke-width="0"/><path d="M297.33812,223.41976l4.15659,-36.18959l37.78325,-0.15789l3.73466,36.31786z" fill="#808384" stroke="#000000" stroke-width="0"/><path d="M286.35186,319.07227l15.14285,-131.8421l37.78325,-0.15789l13.57389,132z" fill="none" stroke="#000000" stroke-width="0"/><path d="M301.58333,221.33333c0.9665,0 1.75,0.7835 1.75,1.75c0,0.9665 -0.7835,1.75 -1.75,1.75c-0.48967,0 -0.93237,-0.20112 -1.25,-0.52525c-0.31763,0.32414 -0.76033,0.52525 -1.25,0.52525c-0.9665,0 -1.75,-0.7835 -1.75,-1.75c0,-0.9665 0.7835,-1.75 1.75,-1.75c0.48967,0 0.93237,0.20112 1.25,0.52525c0.31763,-0.32414 0.76033,-0.52525 1.25,-0.52525z" fill="#808384" stroke="none" stroke-width="0.5"/><path d="M308.66667,223.91667c0,-0.69036 0.55964,-1.25 1.25,-1.25c0.09056,0 0.17887,0.00963 0.26396,0.02792c0.10912,-0.86164 0.84477,-1.52792 1.73604,-1.52792c0.9665,0 1.75,0.7835 1.75,1.75c0,0.9665 -0.7835,1.75 -1.75,1.75c-0.31421,0 -0.60908,-0.08281 -0.86397,-0.22779c-0.1978,0.42958 -0.63209,0.72779 -1.13603,0.72779c-0.69036,0 -1.25,-0.55964 -1.25,-1.25z" fill="#808384" stroke="none" stroke-width="0.5"/><path d="M303,225.08333c0,-0.67677 0.53783,-1.22791 1.20938,-1.24935c-0.23549,-0.29808 -0.37605,-0.67461 -0.37605,-1.08398c0,-0.9665 0.7835,-1.75 1.75,-1.75c0.9665,0 1.75,0.7835 1.75,1.75c0,0.9665 -0.7835,1.75 -1.75,1.75c-0.08003,0 -0.15881,-0.00537 -0.23599,-0.01578c0.09733,0.17789 0.15266,0.38204 0.15266,0.59911c0,0.69036 -0.55964,1.25 -1.25,1.25c-0.69036,0 -1.25,-0.55964 -1.25,-1.25z" fill="#808384" stroke="none" stroke-width="0.5"/><path d="M318,223.75c0,-0.3338 0.13084,-0.63704 0.34403,-0.86123c0.09678,-0.87493 0.83857,-1.55544 1.73931,-1.55544c0.9665,0 1.75,0.7835 1.75,1.75c0,0.9665 -0.7835,1.75 -1.75,1.75c-0.06477,0 -0.12872,-0.00352 -0.19167,-0.01038c-0.18757,0.11242 -0.40707,0.17704 -0.64167,0.17704c-0.69036,0 -1.25,-0.55964 -1.25,-1.25z" fill="#808384" stroke="none" stroke-width="0.5"/><path d="M330.83333,225.08333c0,-0.10842 0.02301,-0.21147 0.0644,-0.30453c-0.17549,-0.09804 -0.33235,-0.22542 -0.46396,-0.3755c-0.45059,-0.18889 -0.76711,-0.63414 -0.76711,-1.15331c0,-0.51917 0.31651,-0.96442 0.76711,-1.15331c0.32075,-0.36576 0.79152,-0.59669 1.31623,-0.59669c0.9665,0 1.75,0.7835 1.75,1.75c0,0.28201 -0.0667,0.54843 -0.1852,0.78436c0.01218,0.07005 0.01853,0.1421 0.01853,0.21564c0,0.64715 -0.49178,1.17943 -1.12201,1.24353c-0.13393,0.20462 -0.36517,0.33981 -0.62799,0.33981c-0.41421,0 -0.75,-0.33579 -0.75,-0.75z" fill="#808384" stroke="none" stroke-width="0.5"/><path d="M338,223.25c0,-0.35134 0.14495,-0.66882 0.37831,-0.89591c0.17942,-0.7758 0.87469,-1.35409 1.70503,-1.35409c0.9665,0 1.75,0.7835 1.75,1.75c0,0.9665 -0.7835,1.75 -1.75,1.75c-0.15648,0 -0.30817,-0.02054 -0.45251,-0.05907c-0.12007,0.03836 -0.24803,0.05907 -0.38082,0.05907c-0.69036,0 -1.25,-0.55964 -1.25,-1.25z" fill="#808384" stroke="none" stroke-width="0.5"/><path d="M322.16667,226.08333c0,-0.69036 0.55964,-1.25 1.25,-1.25c0.13259,0 0.26035,0.02064 0.38026,0.05889c-0.1875,-0.27873 -0.29693,-0.61437 -0.29693,-0.97556c0,-0.9665 0.7835,-1.75 1.75,-1.75c0.63991,0 1.1996,0.34346 1.50478,0.85609c0.19194,-0.12004 0.41881,-0.18942 0.66188,-0.18942c0.69036,0 1.25,0.55964 1.25,1.25c0,0.69036 -0.55964,1.25 -1.25,1.25c-0.31203,0 -0.59736,-0.11433 -0.81638,-0.30339c-0.32098,0.38886 -0.80669,0.63672 -1.35029,0.63672c-0.25724,0 -0.50152,-0.0555 -0.72152,-0.15519c0.08832,0.17137 0.13818,0.36579 0.13818,0.57186c0,0.69036 -0.55964,1.25 -1.25,1.25c-0.69036,0 -1.25,-0.55964 -1.25,-1.25z" fill="#808384" stroke="none" stroke-width="0.5"/><path d="M314.16667,223.91667c0,-0.69036 0.55964,-1.25 1.25,-1.25c0.69036,0 1.25,0.55964 1.25,1.25c0,0.69036 -0.55964,1.25 -1.25,1.25c-0.69036,0 -1.25,-0.55964 -1.25,-1.25z" fill="#808384" stroke="none" stroke-width="0.5"/><path d="M335.33333,227.08333c0,-0.69036 0.55964,-1.25 1.25,-1.25c0.69036,0 1.25,0.55964 1.25,1.25c0,0.69036 -0.55964,1.25 -1.25,1.25c-0.69036,0 -1.25,-0.55964 -1.25,-1.25z" fill="#808384" stroke="none" stroke-width="0.5"/><path d="M334,223.91667c0,-0.69036 0.55964,-1.25 1.25,-1.25c0.69036,0 1.25,0.55964 1.25,1.25c0,0.69036 -0.55964,1.25 -1.25,1.25c-0.69036,0 -1.25,-0.55964 -1.25,-1.25z" fill="#808384" stroke="none" stroke-width="0.5"/><path d="M302.16667,227.25c0,-0.41421 0.33579,-0.75 0.75,-0.75c0.41421,0 0.75,0.33579 0.75,0.75c0,0.41421 -0.33579,0.75 -0.75,0.75c-0.41421,0 -0.75,-0.33579 -0.75,-0.75z" fill="#808384" stroke="none" stroke-width="0.5"/><path d="M305.83333,227.25c0,-0.41421 0.33579,-0.75 0.75,-0.75c0.41421,0 0.75,0.33579 0.75,0.75c0,0.41421 -0.33579,0.75 -0.75,0.75c-0.41421,0 -0.75,-0.33579 -0.75,-0.75z" fill="#808384" stroke="none" stroke-width="0.5"/><path d="M308.66667,229.25c0,-0.41421 0.33579,-0.75 0.75,-0.75c0.41421,0 0.75,0.33579 0.75,0.75c0,0.41421 -0.33579,0.75 -0.75,0.75c-0.41421,0 -0.75,-0.33579 -0.75,-0.75z" fill="#808384" stroke="none" stroke-width="0.5"/><path d="M316.33333,225.08333c0,-0.41421 0.33579,-0.75 0.75,-0.75c0.41421,0 0.75,0.33579 0.75,0.75c0,0.41421 -0.33579,0.75 -0.75,0.75c-0.41421,0 -0.75,-0.33579 -0.75,-0.75z" fill="#808384" stroke="none" stroke-width="0.5"/><path d="M320.5,229.41667c0,-0.41421 0.33579,-0.75 0.75,-0.75c0.41421,0 0.75,0.33579 0.75,0.75c0,0.41421 -0.33579,0.75 -0.75,0.75c-0.41421,0 -0.75,-0.33579 -0.75,-0.75z" fill="#808384" stroke="none" stroke-width="0.5"/><path d="M339.5,226.75c0,-0.41421 0.33579,-0.75 0.75,-0.75c0.41421,0 0.75,0.33579 0.75,0.75c0,0.41421 -0.33579,0.75 -0.75,0.75c-0.41421,0 -0.75,-0.33579 -0.75,-0.75z" fill="#808384" stroke="none" stroke-width="0.5"/><path d="M295.83333,236.91667c0,-0.9665 0.45017,-1.75 1.41667,-1.75c0.9665,0 1.75,0.7835 1.75,1.75c0,0.9665 -0.7835,1.75 -1.75,1.75c-0.9665,0 -1.41667,-0.7835 -1.41667,-1.75z" fill="#949797" stroke="none" stroke-width="0.5"/><path d="M338,236.41667c0,-0.9665 0.7835,-1.75 1.75,-1.75c0.75082,0 1.39121,0.47284 1.63963,1.13698c0.31265,-0.29177 0.73233,-0.47032 1.19371,-0.47032c0.9665,0 1.75,0.7835 1.75,1.75c0,0.9665 -0.7835,1.75 -1.75,1.75c-0.75082,0 -1.39121,-0.47284 -1.63963,-1.13698c-0.31265,0.29177 -0.73233,0.47032 -1.19371,0.47032c-0.9665,0 -1.75,-0.7835 -1.75,-1.75z" fill="#949797" stroke="none" stroke-width="0.5"/><path d="M335.5,236.75c0,0.2508 -0.07386,0.48434 -0.20101,0.68007c-0.16088,0.80041 -0.86787,1.40326 -1.71565,1.40326c-0.9665,0 -1.75,-0.7835 -1.75,-1.75c0,-0.9665 0.7835,-1.75 1.75,-1.75c0.26935,0 0.5245,0.06085 0.75243,0.16956c0.65036,0.04407 1.16424,0.58557 1.16424,1.2471z" fill="#949797" stroke="none" stroke-width="0.5"/><path d="M318.91667,236.16667c0.69036,0 1.25,0.55964 1.25,1.25c0,0.69036 -0.55964,1.25 -1.25,1.25c-0.61981,0 -1.13426,-0.45111 -1.23293,-1.04292c-0.31874,0.33448 -0.76856,0.54292 -1.26707,0.54292c-0.70153,0 -1.30665,-0.41279 -1.58571,-1.00874c0.00158,0.03049 0.00238,0.06119 0.00238,0.09207c0,0.9665 -0.7835,1.75 -1.75,1.75c-0.9665,0 -1.75,-0.7835 -1.75,-1.75c0,-0.9665 0.7835,-1.75 1.75,-1.75c0.70153,0 1.30665,0.41279 1.58571,1.00874c-0.00158,-0.03049 -0.00238,-0.06119 -0.00238,-0.09207c0,-0.9665 0.7835,-1.75 1.75,-1.75c0.96647,0 1.74995,0.78345 1.75,1.74991c0.20892,-0.15692 0.4686,-0.24991 0.75,-0.24991z" fill="#949797" stroke="none" stroke-width="0.5"/><path d="M305,239.25c0,-0.15798 0.02931,-0.30912 0.08278,-0.44827c-0.10774,0.02074 -0.21899,0.0316 -0.33278,0.0316c-0.70139,0 -1.30641,-0.41263 -1.58554,-1.00838c-0.03877,0.65546 -0.5826,1.17504 -1.24779,1.17504c-0.69036,0 -1.25,-0.55964 -1.25,-1.25c0,-0.26691 0.08366,-0.51428 0.22618,-0.71732c-0.34416,-0.31958 -0.55951,-0.77598 -0.55951,-1.28268c0,-0.9665 0.7835,-1.75 1.75,-1.75c0.91476,0 1.66559,0.70186 1.74336,1.59645c0.26801,-0.16678 0.58441,-0.26311 0.92331,-0.26311c0.9665,0 1.75,0.7835 1.75,1.75c0,0.33612 -0.09476,0.6501 -0.25902,0.9167c0.003,-0.00002 0.00601,-0.00003 0.00902,-0.00003c0.69036,0 1.25,0.55964 1.25,1.25c0,0.69036 -0.55964,1.25 -1.25,1.25c-0.69036,0 -1.25,-0.55964 -1.25,-1.25z" fill="#949797" stroke="none" stroke-width="0.5"/><path d="M325.87928,236.84991c0.18095,-0.77369 0.87521,-1.34991 1.70405,-1.34991c0.9665,0 1.75,0.7835 1.75,1.75c0,0.9665 -0.7835,1.75 -1.75,1.75c-0.19614,0 -0.38474,-0.03227 -0.56079,-0.09179c-0.22909,0.26063 -0.56494,0.42512 -0.93921,0.42512c-0.68126,0 -1.23523,-0.545 -1.24971,-1.22279c-0.31807,0.43799 -0.83425,0.72279 -1.41696,0.72279c-0.9665,0 -1.75,-0.7835 -1.75,-1.75c0,-0.9665 0.7835,-1.75 1.75,-1.75c0.9665,0 1.75,0.7835 1.75,1.75c0,0.05318 -0.00237,0.10581 -0.00702,0.15778c0.18518,-0.20298 0.43638,-0.3447 0.71963,-0.39121z" fill="#949797" stroke="none" stroke-width="0.5"/><path d="M315.66667,240.08333c0,-0.69036 0.55964,-1.25 1.25,-1.25c0.69036,0 1.25,0.55964 1.25,1.25c0,0.69036 -0.55964,1.25 -1.25,1.25c-0.69036,0 -1.25,-0.55964 -1.25,-1.25z" fill="#949797" stroke="none" stroke-width="0.5"/><path d="M339,239.75c0,-0.69036 0.55964,-1.25 1.25,-1.25c0.69036,0 1.25,0.55964 1.25,1.25c0,0.69036 -0.55964,1.25 -1.25,1.25c-0.69036,0 -1.25,-0.55964 -1.25,-1.25z" fill="#949797" stroke="none" stroke-width="0.5"/><path d="M296.83333,243.41667c0,-0.41421 0.33579,-0.75 0.75,-0.75c0.41421,0 0.75,0.33579 0.75,0.75c0,0.41421 -0.33579,0.75 -0.75,0.75c-0.41421,0 -0.75,-0.33579 -0.75,-0.75z" fill="#949797" stroke="none" stroke-width="0.5"/><path d="M312.66667,243.25c0,-0.41421 0.33579,-0.75 0.75,-0.75c0.41421,0 0.75,0.33579 0.75,0.75c0,0.41421 -0.33579,0.75 -0.75,0.75c-0.41421,0 -0.75,-0.33579 -0.75,-0.75z" fill="#949797" stroke="none" stroke-width="0.5"/><path d="M339.66667,246.25c0,-0.41421 0.33579,-0.75 0.75,-0.75c0.41421,0 0.75,0.33579 0.75,0.75c0,0.41421 -0.33579,0.75 -0.75,0.75c-0.41421,0 -0.75,-0.33579 -0.75,-0.75z" fill="#949797" stroke="none" stroke-width="0.5"/><path d="M294.83333,249.75c0,-0.9665 0.7835,-1.75 1.75,-1.75c0.9665,0 1.75,0.7835 1.75,1.75c0,0.9665 -0.7835,1.75 -1.75,1.75c-0.9665,0 -1.75,-0.7835 -1.75,-1.75z" fill="#b0b4b5" stroke="none" stroke-width="0.5"/><path d="M337.83333,249.58333c0,-0.9665 0.7835,-1.75 1.75,-1.75c0.77857,0 1.43839,0.50843 1.66554,1.21138c0.23665,-0.12861 0.50627,-0.20422 0.79295,-0.2109c0.32046,-0.40632 0.81719,-0.66715 1.37484,-0.66715c0.9665,0 1.75,0.7835 1.75,1.75c0,0.95262 -0.76117,1.72747 -1.70849,1.74952c-0.32046,0.40632 -0.81719,0.66715 -1.37484,0.66715c-0.77857,0 -1.43839,-0.50843 -1.66554,-1.21138c-0.24803,0.1348 -0.5323,0.21138 -0.83446,0.21138c-0.9665,0 -1.75,-0.7835 -1.75,-1.75z" fill="#b0b4b5" stroke="none" stroke-width="0.5"/><path d="M330.33333,248.58333c0,-0.9665 0.7835,-1.75 1.75,-1.75c0.9665,0 1.75,0.7835 1.75,1.75c0,0.20047 -0.03371,0.39306 -0.09576,0.57242c0.28578,-0.20304 0.63517,-0.32242 1.01243,-0.32242c0.9665,0 1.75,0.7835 1.75,1.75c0,0.9665 -0.7835,1.75 -1.75,1.75c-0.9665,0 -1.75,-0.7835 -1.75,-1.75c0,-0.20047 0.03371,-0.39306 0.09576,-0.57242c-0.28578,0.20304 -0.63517,0.32242 -1.01243,0.32242c-0.9665,0 -1.75,-0.7835 -1.75,-1.75z" fill="#b0b4b5" stroke="none" stroke-width="0.5"/><path d="M326,250.58333c0,-0.9665 0.7835,-1.75 1.75,-1.75c0.9665,0 1.75,0.7835 1.75,1.75c0,0.9665 -0.7835,1.75 -1.75,1.75c-0.9665,0 -1.75,-0.7835 -1.75,-1.75z" fill="#b0b4b5" stroke="none" stroke-width="0.5"/><path d="M315.25,247.66667c0.9665,0 1.75,0.7835 1.75,1.75c0,0.7897 -0.52307,1.45723 -1.24165,1.67502c-0.21779,0.71858 -0.88532,1.24165 -1.67502,1.24165c-0.9665,0 -1.75,-0.7835 -1.75,-1.75c0,-0.7897 0.52307,-1.45723 1.24165,-1.67502c0.21779,-0.71858 0.88532,-1.24165 1.67502,-1.24165z" fill="#b0b4b5" stroke="none" stroke-width="0.5"/><path d="M305,250.75c0,-0.9665 0.7835,-1.75 1.75,-1.75c0.9665,0 1.75,0.7835 1.75,1.75c0,0.9665 -0.7835,1.75 -1.75,1.75c-0.9665,0 -1.75,-0.7835 -1.75,-1.75z" fill="#b0b4b5" stroke="none" stroke-width="0.5"/><path d="M300,250.41667c0,-0.9665 0.7835,-1.75 1.75,-1.75c0.9665,0 1.75,0.7835 1.75,1.75c0,0.9665 -0.7835,1.75 -1.75,1.75c-0.9665,0 -1.75,-0.7835 -1.75,-1.75z" fill="#b0b4b5" stroke="none" stroke-width="0.5"/><path d="M317.83333,249.25c0,-0.9665 0.7835,-1.75 1.75,-1.75c0.9665,0 1.75,0.7835 1.75,1.75c0,0.9665 -0.7835,1.75 -1.75,1.75c-0.9665,0 -1.75,-0.7835 -1.75,-1.75z" fill="#b0b4b5" stroke="none" stroke-width="0.5"/></g><g><g><path d="M252.6706,143.3551c-0.77764,-0.40796 0.02237,-1.63422 0.00791,-2.39707c-0.0103,-0.54363 -1.0551,-0.6967 -0.56391,-0.85443c8.68559,-2.78915 30.55578,-8.04842 67.78288,-8.2185c30.9185,-0.14126 56.32099,6.06067 66.79233,8.64979c0.8748,0.2163 0.23678,0.85581 0.3274,1.35421c0.09697,0.53333 0.86813,0.92796 0.14709,1.19421c-0.94525,0.34903 -1.32845,0.42769 -1.33459,0.77102c-0.0104,0.58207 -2.0296,1.41214 -2.05746,1.99008c-1.54333,32.01506 -29.68301,57.52619 -64.17034,57.52619c-34.22135,0 -62.19259,-25.11914 -64.1299,-56.78663c-0.03013,-0.4925 -1.01393,-0.94435 -1.48053,-1.47872c-0.63434,-0.72646 -0.84294,-1.49941 -1.32088,-1.75014z" fill="#b9bebf" stroke="#000000" stroke-width="0" stroke-linecap="butt"/><path d="M252.6706,143.3551c-0.77764,-0.40796 0.02237,-1.63422 0.00791,-2.39707c-0.0103,-0.54363 -1.0551,-0.6967 -0.56391,-0.85443c8.68559,-2.78915 30.55578,-8.04842 67.78288,-8.2185c30.9185,-0.14126 56.32099,6.06067 66.79233,8.64979c0.8748,0.2163 0.23678,0.85581 0.3274,1.35421c0.09697,0.53333 0.86813,0.92796 0.14709,1.19421c-0.94525,0.34903 -1.32845,0.42769 -1.33459,0.77102c-0.0104,0.58207 -2.0296,1.41214 -2.05746,1.99008c-0.39405,8.17432 -2.52198,15.67463 -6.04672,22.68456c-0.37518,0.74615 -27.12052,0.95562 -54.91059,0.8096c-30.10237,-0.15817 -60.43055,1.01656 -60.79683,0.25444c-3.14698,-6.54778 -6.08474,-15.46773 -6.54609,-23.00904c-0.03013,-0.4925 -1.01393,-0.94435 -1.48053,-1.47872c-0.63434,-0.72646 -0.84294,-1.49941 -1.32088,-1.75014z" fill="#b0b4b5" stroke="#000000" stroke-width="0" stroke-linecap="butt"/><path d="M252.6706,143.3551c-0.77764,-0.40796 0.02237,-1.63422 0.00791,-2.39707c-0.0103,-0.54363 -1.0551,-0.6967 -0.56391,-0.85443c8.68559,-2.78915 30.55578,-8.04842 67.78288,-8.2185c30.9185,-0.14126 56.32099,6.06067 66.79233,8.64979c0.8748,0.2163 0.23678,0.85581 0.3274,1.35421c0.09697,0.53333 0.86813,0.92796 0.14709,1.19421c-0.94525,0.34903 -1.32845,0.42769 -1.33459,0.77102c-0.0104,0.58207 -2.0296,1.41214 -2.05746,1.99008c-0.26522,5.50173 -1.31588,10.81139 -3.04921,15.83252c-0.04414,0.12786 -122.47145,-0.67565 -122.55411,-0.92908c-1.47367,-4.51855 -2.39709,-9.26279 -2.69692,-14.16388c-0.03013,-0.4925 -1.01393,-0.94435 -1.48053,-1.47872c-0.63434,-0.72646 -0.84294,-1.49941 -1.32088,-1.75014z" fill="#949797" stroke="#000000" stroke-width="0" stroke-linecap="butt"/><path d="M252.6706,143.3551c-0.77764,-0.40796 0.02237,-1.63422 0.00791,-2.39707c-0.0103,-0.54363 -1.0551,-0.6967 -0.56391,-0.85443c8.68559,-2.78915 30.55578,-8.04842 67.78288,-8.2185c30.9185,-0.14126 56.32099,6.06067 66.79233,8.64979c0.8748,0.2163 0.23678,0.85581 0.3274,1.35421c0.09697,0.53333 0.86813,0.92796 0.14709,1.19421c-0.94525,0.34903 -1.32845,0.42769 -1.33459,0.77102c-0.0104,0.58207 -2.0296,1.41214 -2.05746,1.99008c-0.09161,1.90044 -0.27694,3.77795 -0.55176,5.62858c-0.13139,0.88478 -127.14325,0.66121 -127.2796,-0.29092c-0.21705,-1.51558 -0.37411,-3.049 -0.46888,-4.5981c-0.03013,-0.4925 -1.01393,-0.94435 -1.48053,-1.47872c-0.63434,-0.72646 -0.84294,-1.49941 -1.32088,-1.75014z" fill="#808384" stroke="#000000" stroke-width="0" stroke-linecap="butt"/><path d="M256.91855,140.22274c0,0 39.11998,-7.32399 62.98152,-7.13854c23.86154,0.18545 61.50072,8.04241 61.50072,8.04241c0,0 -41.53131,0.69844 -62.28579,0.54774c-20.73959,-0.15059 -62.19645,-1.45161 -62.19645,-1.45161z" fill="#845757" stroke="#000000" stroke-width="0" stroke-linecap="round"/><path d="M383.24177,145.355c0,0 -1.76999,1.25056 -2.80279,1.52338c-1.1606,0.30657 -3.82221,0.22662 -3.82221,0.22662" fill="none" stroke="#737777" stroke-width="0.5" stroke-linecap="round"/><path d="M385.24177,143.605c0,0 -3.41349,1.03327 -4.99359,1.2895c-1.49896,0.24308 -4.25641,0.2105 -4.25641,0.2105" fill="none" stroke="#737777" stroke-width="0.5" stroke-linecap="round"/><path d="M386.49177,141.855c0,0 -2.57475,0.58919 -3.87239,0.76887c-1.40253,0.1942 -4.25261,0.35613 -4.25261,0.35613" fill="none" stroke="#737777" stroke-width="0.5" stroke-linecap="round"/><path d="M261.49176,146.73c0,0 -1.98511,0.17244 -2.99433,0.06946c-1.03194,-0.1053 -3.13066,-0.69446 -3.13066,-0.69446" fill="none" stroke="#737777" stroke-width="0.5" stroke-linecap="round"/><path d="M264.49177,144.98c0,0 -4.13038,-0.09015 -6.00048,-0.24416c-1.64175,-0.1352 -4.62452,-0.63084 -4.62452,-0.63084" fill="none" stroke="#737777" stroke-width="0.5" stroke-linecap="round"/><path d="M265.74177,143.355c0,0 -5.08052,-0.12241 -7.29254,-0.50225c-1.84666,-0.31711 -5.08246,-1.62275 -5.08246,-1.62275" fill="none" stroke="#737777" stroke-width="0.5" stroke-linecap="round"/><path d="M271.10666,138.71989c0.17678,-0.17677 0.35355,0 0.35355,0l0.02882,0.09649c0.84819,0.13474 2.11134,0.64503 2.95096,0.40351c0.09645,-0.02775 -0.48711,-0.40896 -1.10478,-0.79262c-0.44391,-0.1419 -0.88433,-0.29433 -1.32086,-0.46921l-0.00787,-0.0075l-0.00152,0.00305l-0.32849,-0.16425c-0.08456,-0.04009 -0.14304,-0.12623 -0.14304,-0.22603c0,-0.13807 0.11193,-0.25 0.25,-0.25h0.5v0.21409c0.03489,0.01374 0.0698,0.02734 0.10474,0.04081c0.55395,0.10541 1.25047,0.31291 1.78654,0.59501c0.24325,0.07281 0.48745,0.14433 0.73251,0.2166c0.47231,0.13986 0.9391,0.22515 1.42838,0.28715c0.23586,0.02989 0.47285,0.04966 0.7097,0.07065c0.52186,-0.15331 1.04336,-0.32538 1.56718,-0.5157c0.04157,-0.23962 -0.13658,-0.52205 -0.63369,-0.77236c-1.24077,-0.62473 -2.8773,-0.00203 -3.40783,-1.68464c1.24026,-0.25311 2.7241,-0.03831 4.19349,0.22225l-0.02894,-0.00965c-0.10215,-0.03142 -0.17641,-0.12653 -0.17641,-0.23899c0,-0.13807 0.11193,-0.25 0.25,-0.25c0.02576,0 0.0506,0.00389 0.07399,0.01113l0.47535,0.1353l-0.00589,0.02069c0.0421,0.00737 0.08607,0.01505 0.13177,0.02307c1.12923,0.06852 2.38481,0.30815 3.51791,0.56731c0.14266,-0.05385 0.29071,-0.09361 0.44788,-0.11447v-0.15158h0.5c0.13807,0 0.25,0.11193 0.25,0.25c0,0.09993 -0.05864,0.18617 -0.14338,0.22619l-0.05732,0.02856c0.04478,0.01111 0.0892,0.02218 0.13322,0.03319l0.48,0.12c0.11133,0.02526 0.19444,0.12483 0.19444,0.2438c0,0.13807 -0.11193,0.25 -0.25,0.25c-0.00902,0 -0.01793,-0.00048 -0.02671,-0.00141l-0.49458,-0.0467l0.0037,-0.03916c-0.1163,0.01315 -0.23416,0.02436 -0.35341,0.03375c0.33085,0.2597 0.56683,0.56411 0.64953,0.92164l0.05298,-0.01223c0.01968,-0.00499 0.04031,-0.00763 0.06154,-0.00763c0.13807,0 0.25,0.11193 0.25,0.25c0,0.0998 -0.05848,0.18594 -0.14304,0.22603l-0.32849,0.16424l-0.00521,-0.01042l-0.02193,0.02204c-0.18077,0.04259 -0.36229,0.08554 -0.54442,0.12864c-0.85966,0.47006 -2.38077,0.79091 -3.70072,1.05725c0.05146,0.00027 0.09952,-0.00088 0.14355,-0.00387c2.30057,-0.15614 4.61982,-0.68664 6.89092,-1.05034c1.2282,-0.19645 2.50579,-0.30615 3.77372,-0.44795c-0.63198,0.00147 -1.24269,-0.04002 -1.77564,-0.16895c-0.06847,0 -0.13693,0 -0.2054,0l-0.5,-0.25v0l0.5,-0.25c0.06847,0 0.13693,0 0.2054,0c1.57167,-0.38022 3.81973,0 5.2946,0l0.12333,0.05285l0.01409,0.00281l-0.00052,-0.00757l0.49625,-0.03471c0.00659,-0.00052 0.01325,-0.00079 0.01997,-0.00079c0.13807,0 0.25,0.11193 0.25,0.25c0,0.10764 -0.06803,0.1994 -0.16344,0.23461l-0.45952,0.1818l-0.02096,-0.05299c-1.71843,0.96397 -3.78897,0.95099 -5.61603,1.5645c0.47767,-0.03882 0.97413,-0.03449 1.33434,-0.06452c2.25925,-0.18839 4.56806,-0.62813 6.83337,-0.625c0.38525,-0.07089 0.85044,0.02042 1.29253,0.08098c0.18196,-0.44743 0.6448,-0.81081 1.09911,-0.79282c-0.19902,-0.24491 -0.40057,-0.48631 -0.57262,-0.72719c0,0 -0.0542,-0.07586 -0.05006,-0.16804c-0.29206,-0.38685 -0.55655,-0.72677 -0.61016,-0.8187l-0.01912,-0.03289c0,0 -0.12568,-0.21611 0.09044,-0.34179c0.21612,-0.12568 0.34179,0.09044 0.34179,0.09044l0.01912,0.03289c0.17122,0.29529 0.90263,1.09682 1.29155,1.78974c0.2628,0.33136 0.5154,0.66873 0.69682,1.02457l0.16441,0.32883c0.01829,0.03474 0.02864,0.07431 0.02864,0.1163c0,0.13807 -0.11193,0.25 -0.25,0.25c-0.0598,0 -0.1147,-0.02101 -0.15773,-0.05603l-0.38888,-0.3111l0.03419,-0.04273c-0.12039,-0.07253 -0.23917,-0.14784 -0.35693,-0.22418c-0.20833,0.04077 -0.47663,0.07782 -0.76234,0.11119c0.01579,0.28301 0.04372,0.54402 0.09646,0.56019c1.57405,0.48276 3.49854,-0.12515 5.06356,-0.5363c3.28964,-0.86425 6.90264,-1.97427 10.26671,-2.3148l0.00603,0.00109l-0.00008,-0.00148l0.35033,-0.01871c0.00507,-0.00031 0.0102,-0.00046 0.01535,-0.00046c0.13807,0 0.25,0.11193 0.25,0.25c0,0.05253 -0.01621,0.10128 -0.04388,0.14152l-0.27546,0.41318l-0.11341,-0.07561c-0.64006,0.70713 -1.74379,1.17336 -2.99453,1.50227c0.00279,0.01997 0.00462,0.04048 0.00545,0.06154c1.67827,-0.32486 3.70406,-0.8962 5.02256,-0.68196l0.01363,-0.10901l0.33391,0.04177c0.12502,0.0138 0.22227,0.11978 0.22227,0.24848c0,0.11827 -0.08213,0.21735 -0.19245,0.24334l-0.47887,0.12407c-0.15319,0.03946 -0.31385,0.09627 -0.47945,0.16321c-0.01112,0.0046 -0.02235,0.00918 -0.03369,0.01372c-0.22042,0.09052 -0.44921,0.19798 -0.6805,0.30553c0.67643,0.08282 1.36035,0.18957 2.04733,0.30564c0.76764,0.0075 1.52954,0.04573 2.27082,0.15079c3.6896,0.53199 5.45907,0.44562 6.82556,-2.62494l0.05224,-0.41791c0.01379,-0.12502 0.11978,-0.22228 0.24848,-0.22228c0.10219,0 0.19006,0.06132 0.22883,0.14916l0.13003,0.27803c0.31642,0.31132 0.63026,0.62504 0.94414,0.93892c0.101,0.101 0.20142,0.19535 0.30133,0.28341c0.03868,-0.08804 0.12666,-0.14953 0.22899,-0.14953c0.03809,0 0.07419,0.00852 0.1065,0.02375l0.45194,0.20086l-0.00964,0.02168c1.15102,0.19524 2.26075,0.52075 3.37056,0.84882c0.35426,-0.00945 0.70183,-0.01923 1.04013,-0.03141c0.69004,-0.08979 1.40609,-0.1516 2.16746,-0.06104c0.12432,-0.00063 0.24867,-0.00111 0.37305,-0.00174v-0.00093h0.5c0.13807,0 0.25,0.11193 0.25,0.25c0,0.13804 -0.11188,0.24995 -0.24991,0.25c3.38886,0 6.77772,0 10.16658,0c3.39441,0 6.79838,0.33631 10.16667,0.33333c3.43907,0 6.78146,0.00101 10.14462,-0.00178c2.86534,-0.00238 6.54503,-0.69775 9.44164,-0.12477c0.01361,-0.00096 0.02722,-0.00191 0.04083,-0.00286l0.01231,-0.00087l-0.00047,-0.02569l0.49918,-0.00901c0.00175,-0.00003 0.00349,-0.00006 0.00525,-0.00006c0.13807,0 0.25,0.11193 0.25,0.25c0,0.1057 -0.06559,0.19608 -0.1583,0.23265c0.11135,0.03988 0.22017,0.08178 0.32622,0.12572l0.01429,-0.05714l0.44846,0.11211c0.81403,-0.1814 1.63581,-0.19084 2.6217,0.25679l-0.67895,0.41932c-0.35498,0.01799 -0.7084,0.04122 -1.06072,0.06837c-1.21846,0.32289 -2.62923,0.40814 -4.03585,0.41061c-0.55515,0.05951 -1.11199,0.11602 -1.67234,0.16423c-0.06673,0.09873 -0.13728,0.19321 -0.21029,0.2849c0.02236,0.01127 0.0448,0.02383 0.0673,0.03773l-0.07554,0.10782c0.0244,0.25949 -0.04629,0.46674 -0.14673,0.66073c0.18449,1.41908 -0.41644,3.42821 -0.41593,4.50784c-0.00108,0.18001 -0.00215,0.36003 -0.00323,0.54005l-0.43403,0.68259c-0.65154,-1.7663 0.04294,-3.65579 0.40082,-5.43544c-0.00879,-0.12364 -0.02311,-0.24187 -0.04391,-0.35334c-0.29505,0.34009 -0.56856,0.70034 -0.74041,1.16589l-0.48668,0.54357c-0.22519,-0.75231 -0.34886,-1.76943 -0.38326,-2.60085c-0.21884,0.00493 -0.43856,0.00754 -0.65929,0.00754c-2.23546,0 -4.47094,0 -6.7064,0c-0.77085,0.10581 -1.54184,0.21701 -2.31534,0.31219c-0.72075,0.08869 -1.53643,0.40609 -2.26851,0.39063c-0.04602,0.02778 -0.09103,0.05636 -0.13502,0.08575l-0.45468,-0.18874c-0.04052,-0.01478 -0.08054,-0.03135 -0.12005,-0.04983l0.42527,-0.23857c0.15895,-0.11556 0.3352,-0.21896 0.52615,-0.31143c-3.31714,0 -6.63428,0 -9.95142,0c-3.5,0 -7,0 -10.5,0c-0.61509,0 -1.23016,0 -1.84525,0c-3.01671,0.3279 -6.26437,0 -9.25475,0c-2.8102,0 -5.62041,0 -8.43061,0c-0.00074,0.0104 -0.0015,0.02082 -0.00228,0.03125l0.12547,0.03845l-0.14652,0.47805l-0.02907,-0.00891c-0.03947,0.32575 -0.09307,0.6595 -0.15699,0.99001c0.05978,2.17165 0.11576,5.4524 -0.40983,7.33813c-0.00002,0.00593 -0.00005,0.01187 -0.00007,0.0178l0.07869,0.01311l-0.08152,0.48915c-0.0179,0.12051 -0.12178,0.21295 -0.24727,0.21295c-0.13807,0 -0.25,-0.11193 -0.25,-0.25v-0.4c0,-0.13304 -0.00005,-0.26608 -0.00015,-0.39913c-0.48505,-1.31698 -0.2756,-3.30383 -0.00707,-5.12654c0.00071,-0.48704 0.0023,-0.97407 0.00518,-1.46107c-0.00313,-0.14351 -0.00358,-0.28808 -0.00291,-0.43442c-0.0297,-0.34219 -0.18607,-0.67495 -0.29974,-1.00644c-0.08645,0.94551 -0.11865,2.18767 -0.37943,3.10978c-0.01027,0.26381 -0.01955,0.52326 -0.02257,0.77525l-0.03845,0.04499l0.01875,0.00938l-0.12975,0.2595c-0.02324,0.67649 -0.0406,1.35273 -0.04386,2.02915v0.39955c0,0.13807 -0.11193,0.25 -0.25,0.25c-0.13807,0 -0.25,-0.11193 -0.25,-0.25v-0.5h0.00058c0.00027,-0.03898 0.00057,-0.07797 0.00093,-0.11696c-0.27607,-0.5761 -0.47555,-1.60763 -0.56757,-2.67664c-0.34013,-1.0328 -0.72732,-2.75805 -1.0276,-3.76064c-0.16447,0.01163 -0.33155,0.02375 -0.50074,0.03604c-0.00344,0.12147 -0.00532,0.25779 -0.00558,0.40989l-0.00002,0.20833c0,0 -0.00002,0.25001 -0.25002,0.24999c-0.25,-0.00002 -0.24998,-0.25002 -0.24998,-0.25002l0.00002,-0.20913c0.00014,-0.08716 0.00874,-0.21878 0.02713,-0.37449c-1.96861,0.14028 -4.15161,0.26114 -5.81268,-0.13665c-2.54104,0.24473 -5.33199,-0.1555 -7.74891,-0.21458c-3.34866,-0.08191 -6.68292,-0.20564 -10.03266,-0.21461c-1.72224,0.34207 -3.86624,0.55156 -5.72952,0.53406c-0.26445,0.20958 -1.86655,0.2649 -2.15338,0.26542c-2.27792,0.00413 -4.71364,-0.24226 -6.926,-0.8c-0.81128,0 -1.62256,0 -2.43383,0c0.17122,0.25619 0.3309,0.53715 0.48345,0.83822c1.18261,2.44571 1.42585,7.53895 1.42634,10.2952c0.00003,0.47219 0.00004,0.94438 0.00004,1.41657v0.00001v0.5c0,0.13807 -0.11193,0.25 -0.25,0.25c-0.13807,0 -0.25,-0.11193 -0.25,-0.25v-0.5v0c0,-0.47217 -0.00001,-0.94435 -0.00004,-1.41652c-0.00036,-2.02178 -0.60457,-3.8123 -0.80716,-5.79061c-0.12586,-1.22905 -0.00975,-3.21393 -0.56642,-4.2811c-0.13976,-0.28313 -0.44101,-0.67644 -0.83014,-1.06177c-0.12727,0 -0.25453,0 -0.3818,0c-0.11984,0.01057 -0.24109,0.01957 -0.3614,0.02531c0.00277,0.01356 0.00445,0.02753 0.00493,0.04179l0.01943,0.49844l-0.05897,0.0023c0.02528,0.15333 0.04467,0.30749 0.05937,0.46229c0.18065,0.13305 0.32185,0.26956 0.39549,0.40746c0.55818,1.0453 -0.1733,4.52423 -0.1733,5.81241v0.5c0,0.13807 -0.11193,0.25 -0.25,0.25c-0.13807,0 -0.25,-0.11193 -0.25,-0.25v-0.487c-0.51286,-0.70239 -0.57141,-2.40929 -0.52609,-3.97221c-0.2412,-0.62456 -0.2898,-1.29933 -0.29118,-1.99579c-0.08086,0.2105 -0.17053,0.42129 -0.25495,0.62557c0.06523,2.52084 0.19064,5.38273 -0.25473,7.72942h0.02695v0.5c0,0.13807 -0.11193,0.25 -0.25,0.25c-0.0998,0 -0.18595,-0.05848 -0.22603,-0.14304l-0.19758,-0.39516l0.01875,-0.00938l-0.03845,-0.04499c-0.00223,-0.17926 -0.00446,-0.35851 -0.00669,-0.53777c0.00003,-2.2652 -0.3665,-5.42329 0.38336,-7.87043c0.00694,-0.27739 0.01205,-0.55505 0.01464,-0.83309c-0.18788,-0.09243 -0.34568,-0.17348 -0.44423,-0.23627c-0.08733,-0.05577 -0.19189,-0.1397 -0.30431,-0.23612c-0.28825,0.71974 -0.54947,1.7268 -0.54947,2.25624v0.5c0,0.12633 -0.0937,0.23077 -0.2154,0.24762c0.12703,1.20483 0.18151,2.42456 -0.06147,3.58725l0.04721,0.00264l-0.02783,0.49757c-0.00642,0.13235 -0.11576,0.2377 -0.2497,0.2377c-0.11329,0 -0.20898,-0.07536 -0.23968,-0.17868l-0.15179,-0.47038l0.00396,-0.00128l-0.00789,-0.0122c-0.37822,-1.86723 -0.3974,-3.59168 -0.3974,-5.51024c0,-0.31438 0.14926,-1.32351 -0.04304,-1.8196c-0.21625,-0.00774 -0.43292,-0.01418 -0.65005,-0.01911c-0.19224,0.11127 -0.4121,0.24457 -0.59306,0.35416c0.99149,1.8796 0.7219,5.34446 0.30181,6.81476c-0.18201,0.62349 -0.11484,1.26959 -0.12017,1.91707l-0.02841,0.03956l0.01504,0.00601l-0.18353,0.45883c-0.03545,0.09495 -0.12697,0.16256 -0.23428,0.16256c-0.13671,0 -0.24778,-0.10972 -0.24997,-0.2459l-0.00931,-0.4975c-0.71196,-2.51334 -1.99583,-7.72771 -0.16407,-8.84071c-0.05462,-0.06884 -0.11242,-0.13244 -0.17354,-0.19034c-2.78244,-0.11572 -5.29857,-1.18977 -8.01741,-1.18977c0,0 -0.25,0 -0.25,-0.25c0,-0.25 0.25,-0.25 0.25,-0.25c2.30899,0 4.45924,0.76879 6.75092,1.07559c-0.00061,-0.00823 -0.00092,-0.01676 -0.00092,-0.0256c0,-0.02103 0.00177,-0.04028 0.00501,-0.05792c-0.92986,-0.16672 -3.0077,-0.59811 -2.42449,-1.3216c0.44486,-0.55185 2.8691,0.11292 4.30728,0.42163c0.80383,-0.05775 1.67595,-0.04453 2.55296,-0.00068c-0.19642,-0.15616 -1.16923,-0.48357 -2.19923,-1.1692l-0.40465,-0.2159c-0.08123,-0.04128 -0.13688,-0.12564 -0.13688,-0.22301c0,-0.13807 0.11193,-0.25 0.25,-0.25c0.02969,0 0.05817,0.00517 0.08459,0.01467l0.4688,0.15627l-0.01015,0.03047c1.42055,0.14392 2.90404,0.55539 4.26,0.9062l0.40175,0.062c0,0 0.24705,0.03832 0.20873,0.28536c-0.03832,0.24705 -0.28537,0.20873 -0.28537,0.20873l-0.42638,-0.06646c-0.46961,-0.12235 -1.35948,-0.20577 -2.22825,-0.35049c0.31649,0.19842 0.58326,0.41645 0.71974,0.65228c0.2174,0.01424 0.43407,0.02973 0.64902,0.04581c0.36286,0.01004 0.72662,0.02493 1.08926,0.04235c0.05404,-0.15386 0.23493,-0.15386 0.23493,-0.15386c0.59763,0 1.18329,-0.02314 1.76013,-0.06884c-0.47882,-0.11229 -0.90497,-0.232 -1.13239,-0.26755l-0.30451,-0.23684c0,0 -0.17678,-0.17678 0,-0.35355zM282.83099,137.11543c-0.04265,0.0005 -0.08541,0.0008 -0.12827,0.00094c-1.14992,0.82955 -2.63118,1.58488 -4.10654,2.18819c0.07168,-0.01134 0.14336,-0.02266 0.21505,-0.03396c0.33193,-0.05212 0.66512,-0.11067 0.99896,-0.17401c1.32972,-0.45251 2.73854,-0.86947 4.05689,-0.94877c-0.025,-0.41081 -0.44822,-0.75278 -1.03609,-1.03238zM277.05043,136.46307c-0.1533,-0.02904 -0.37293,-0.04628 -0.61373,-0.06674c1.06354,0.31698 2.29406,0.77745 2.5594,1.20224c0.09132,0.1462 0.15847,0.28014 0.20387,0.40272c0.03008,-0.01166 0.06018,-0.02339 0.09028,-0.03517c0.74507,-0.29155 1.48487,-0.58075 2.21733,-0.88766c-1.55391,-0.09774 -3.14959,-0.36765 -4.45715,-0.61539zM274.98362,138.91631c0.03375,0.10463 0.03787,0.21337 0.00598,0.32565c0.26506,-0.05199 0.52914,-0.10887 0.7926,-0.17059c-0.31549,-0.05029 -0.59295,-0.10611 -0.79858,-0.15506zM309.36677,139.89667c0,-0.02573 0.00265,-0.04882 0.0074,-0.06952c-1.51319,0.23664 -2.98116,0.36999 -3.9218,0.55779c-0.48821,0.09748 -0.97467,0.1945 -1.45943,0.30804l-0.48049,0.11252c-0.01993,0.00511 -0.04082,0.00784 -0.06235,0.00784c-0.13807,0 -0.25,-0.11193 -0.25,-0.25c0,-0.07981 0.0374,-0.15089 0.09563,-0.19666l0.25079,-0.20063c-1.47294,0.41595 -3.56656,0.98385 -4.72785,0.27661c-0.40443,-0.24631 -0.54039,-0.58535 -0.50756,-0.91473c-0.53957,0.05204 -1.02436,0.09119 -1.17189,0.11773c-1.93889,0.00258 -4.10041,0.54379 -6.1895,0.7755c1.01013,0.10017 2.02238,0.20846 3.04109,0.31476c0.68447,0.07143 1.36412,0.14789 2.04118,0.22456c0.36915,0.01211 0.73145,0.01952 1.08478,0.01952c3.46666,0 6.93334,0 10.4,0c0.55894,0.00108 1.11997,0.01563 1.68248,0.0395c0.42694,-0.034 0.8541,-0.05595 1.28139,-0.06847c-0.04091,-0.2243 0.04423,-0.49295 0.29072,-0.81424c-0.35687,0.00765 -0.64314,0.0095 -0.82073,0.00988h-0.33387c0,0 -0.25,0 -0.25,-0.25zM298.96021,138.74011c0.00388,0.05518 0.00638,0.28435 0.01623,0.53373c0.19862,-0.00468 0.37964,-0.03922 0.53028,-0.1275c-0.25837,-0.26073 -0.56374,-0.65108 -0.54652,-0.40624zM359.11677,141.14667c-0.55919,0 -1.11838,0 -1.67758,0c0.86303,0.01915 1.72713,0.03231 2.59283,0.03328c0.67442,-0.00027 1.34884,-0.00042 2.02325,-0.00048c-0.97668,-0.01931 -1.95498,-0.0328 -2.9385,-0.0328zM338.11677,141.14667c-1.01876,0 -1.98082,-0.09589 -2.92745,-0.25554c-1.29471,0.1062 -2.58509,0.22848 -3.87588,0.30602c-0.02496,0.02347 -0.05187,0.04754 -0.08081,0.07226c-0.29627,0.25307 -1.74021,0.04395 -2.14152,0.04395c-0.77454,0.00001 -1.83411,0.12014 -2.91734,0.19511c-0.04104,0.08194 -0.12578,0.1382 -0.22367,0.1382h-0.5v-0.00395c-0.35436,-0.00988 -0.7053,-0.0293 -1.0556,-0.05532c-0.35723,-0.01572 -0.71684,-0.04847 -1.07786,-0.07389c-0.84786,0.04854 -1.69562,0.09423 -2.54222,0.12542c2.40948,0.06959 4.82153,0.14106 7.24235,0.14106c2.87745,0 5.75489,0 8.63234,0c0.40708,-0.04521 0.80977,-0.10267 1.20681,-0.17486c3.3261,-0.60475 6.98453,-0.22514 10.36086,-0.22514c0.1236,0 0.24716,-0.00011 0.37068,-0.00034c-0.7634,-0.07262 -1.53258,-0.15315 -2.30428,-0.23299c-2.72213,0 -5.44427,0 -8.1664,0zM333.04323,140.43167c-0.55235,0.0732 -1.0617,0.10481 -1.54223,0.08267c0.03985,0.05204 0.06827,0.10676 0.07968,0.16617c0.6298,-0.0407 1.25963,-0.09107 1.89001,-0.14402c-0.14222,-0.03397 -0.28466,-0.06895 -0.42746,-0.10482zM316.81849,140.9584c0.18053,0.06099 0.35694,0.12628 0.52688,0.19894c0.36617,0.01122 0.73203,0.019 1.09749,0.02166c-0.55049,-0.05304 -1.09465,-0.12302 -1.62437,-0.2206zM303.75064,140.10835c-0.00657,0.00186 -0.01315,0.00371 -0.01975,0.00557l0.00551,0.00688c0.00473,-0.00417 0.00948,-0.00831 0.01424,-0.01245zM311.38777,140.11926c-0.06033,0.10095 -0.13377,0.2088 -0.22146,0.32402c-0.16712,0.19927 -0.16793,0.36239 -0.04449,0.4957c1.06207,-0.00933 2.12461,0.03142 3.18603,0.08194c0.05806,-0.09081 0.12264,-0.1659 0.19419,-0.21852c-0.09837,-0.0537 -0.19302,-0.10681 -0.28295,-0.15854c-0.14585,0.00178 -0.29111,0.00281 -0.43565,0.00281h-0.5c-0.13807,0 -0.25,-0.11193 -0.25,-0.25c0,-0.09266 0.05041,-0.17355 0.12531,-0.21673l0.17612,-0.10567l-0.0942,-0.06743c-0.64734,0.05848 -1.29465,0.09257 -1.85289,0.11243zM327.05248,138.01734c0.32398,1.01794 -0.13452,1.68725 -0.96529,2.11954c0.9201,-0.2094 1.90199,-0.33293 2.89578,-0.41063c-0.41409,-0.26446 -0.82633,-0.60282 -1.25009,-1.02658c-0.22715,-0.22715 -0.45411,-0.45441 -0.68041,-0.68233zM348.61677,140.64667c1.09369,0 2.18739,0 3.28108,0c-1.703,-0.08334 -3.40924,-0.16667 -5.11441,-0.16667c-0.71794,0 -1.43588,0 -2.15382,0c0.55633,0.05305 1.11255,0.10964 1.66748,0.16667c0.77323,0 1.54644,0 2.31967,0zM330.59148,140.39855c-0.14091,-0.03065 -0.2799,-0.06739 -0.41739,-0.11059c-0.86773,0.07864 -1.73428,0.17462 -2.60023,0.296c-0.19771,0.05492 -0.39225,0.11731 -0.58315,0.18795c0.1922,0.01144 0.37923,0.02162 0.55926,0.02904c0.49403,-0.01504 0.98748,-0.02442 1.48014,-0.02581c0.58967,-0.00164 1.17877,-0.02008 1.76772,-0.04952c0.1163,-0.05154 0.11325,-0.12519 -0.07713,-0.22934c-0.0434,-0.0326 -0.08645,-0.06518 -0.12921,-0.09773zM322.63358,140.92165c0.1153,-0.0357 0.23446,-0.06678 0.35689,-0.09375c-0.15831,0.01049 -0.31614,0.01861 -0.47247,0.02464l0.01975,0.05923c0.03197,0.00335 0.06391,0.00665 0.09584,0.00988zM322.11256,140.86376c0.07725,0.00931 0.15442,0.0183 0.23149,0.02695l0.10715,-0.03572c-0.11389,0.00397 -0.2269,0.00686 -0.33864,0.00876zM314.18775,137.69291c-1.6196,0.18287 -3.2934,0.53879 -4.95729,0.95301c0.53488,-0.00134 1.19031,0.00468 1.67809,0.1382c1.11658,-0.27917 2.21425,-0.62292 3.2792,-1.09121zM311.11335,139.52964c0.00087,-0.01052 0.00126,-0.02077 0.0012,-0.03075c-0.14372,0.03305 -0.28877,0.06455 -0.43471,0.09464c0.13999,-0.0177 0.28478,-0.03927 0.43351,-0.06388zM307.23962,139.53857c0.68334,-0.12547 1.36523,-0.25088 2.04272,-0.38907c-0.69216,0.02317 -1.37368,0.18589 -2.04272,0.38907zM374.08417,141.68087c0.51292,0.01666 1.00148,-0.01078 1.43227,-0.12457c0.28191,-0.07447 0.55112,-0.158 0.8118,-0.24298c-0.2819,0 -0.56743,0 -0.85505,0c-0.45087,0.14956 -0.91524,0.27023 -1.38901,0.36754zM287.3374,140.00678l0.32758,-0.17401c0.41379,-0.21841 1.35523,-0.58743 2.4271,-0.94388c-1.01838,0.10796 -2.03562,0.21058 -3.02235,0.36841c-1.07087,0.1711 -2.30971,0.46774 -3.59054,0.7227c0.01252,0 0.02506,0 0.03758,0c1.24831,0 2.48411,0.04867 3.7152,0.12776c0.02429,-0.04325 0.06106,-0.07854 0.10543,-0.10098zM275.71423,139.76942c0.51404,-0.15542 1.03466,-0.34338 1.55387,-0.55273c-0.02407,-0.00062 -0.04818,-0.00134 -0.07233,-0.00217c-1.15774,0.34062 -2.31754,0.59097 -3.50642,0.74594c0.25628,0.00888 0.50849,0.01521 0.75576,0.01798c0.42298,-0.06996 0.846,-0.13968 1.26911,-0.20902zM270.1667,142.04612c0.03931,-0.07043 0.0801,-0.13978 0.12244,-0.208l-0.13025,-0.04274c0.00515,0.08103 0.00776,0.16475 0.00781,0.25074zM270.9727,142.07166l0.05534,-0.16604c-0.02038,-0.00121 -0.04062,-0.0026 -0.06071,-0.00419c0.00086,0.05578 0.00268,0.11257 0.00537,0.17023zM269.66492,141.89157c-0.00428,-0.18005 -0.01621,-0.32368 -0.03451,-0.43498c-0.15129,-0.01086 -0.30268,-0.02143 -0.45418,-0.03167c-0.01974,0.03336 -0.03969,0.06923 -0.05977,0.10734c0.15835,0.10839 0.28963,0.2029 0.37309,0.25614c0.0516,0.03298 0.11054,0.06742 0.17537,0.10317zM267.57635,142.20528c-0.00326,0.15978 -0.00957,0.30611 -0.00957,0.42472c0,0.68782 -0.00222,1.35722 0.01034,2.01851c0.0729,-0.7738 0.13621,-1.4895 0.09051,-1.99788c-0.00589,-0.06548 -0.04392,-0.23695 -0.09127,-0.44534zM267.83669,142.3083c0.09569,-0.32449 0.23512,-0.64035 0.40744,-0.91993c-0.00977,-0.00779 -0.01945,-0.01545 -0.02904,-0.02294c-0.14738,-0.0082 -0.29492,-0.01595 -0.44262,-0.02317c0.00981,0.31515 0.033,0.63773 0.06422,0.96604zM271.63051,145.48781c0.04625,-0.64688 0.04948,-1.23821 -0.04409,-1.65706c0.00249,0.37355 -0.00788,0.74885 -0.01451,1.12354c0.01968,0.17646 0.03943,0.3546 0.05861,0.53352zM265.65437,148.1188c0.31694,-1.34727 0.55464,-4.58658 -0.28053,-6.23669c-1.76127,0.95461 -0.28852,3.90598 0.28053,6.23669zM265.39754,140.77984c0.01724,0 0.03446,0.00002 0.05169,0.00004c-0.14285,-0.01147 -0.28343,-0.02527 -0.42137,-0.04164c0.01663,0.01194 0.03309,0.02414 0.04937,0.03661c0.10635,0.00314 0.21311,0.00484 0.32031,0.00499zM315.88619,142.60041c0.01493,-0.04103 0.03144,-0.08131 0.04964,-0.12075c0.02679,-0.05805 0.06527,-0.11723 0.11352,-0.17638c-0.07713,0.00365 -0.15529,0.00766 -0.23443,0.01198c0.02423,0.09202 0.048,0.18724 0.07128,0.28515zM318.06128,142.65516c0.07177,-0.13449 0.14366,-0.26506 0.1768,-0.37516c-0.10332,0 -0.20664,0 -0.30996,0c0.0478,0.1232 0.09212,0.24831 0.13317,0.37516zM316.58122,145.18465c0.00028,-0.00692 0.00056,-0.01384 0.00083,-0.02076c-0.06087,-0.76653 -0.1116,-1.57803 -0.00457,-2.23935c-0.0464,0.05575 -0.08745,0.11656 -0.12356,0.18201c-0.10433,0.81714 0.03689,1.84624 0.09191,2.4683c0.009,-0.12937 0.02096,-0.25954 0.0354,-0.3902zM372.86022,142.15495c-0.15217,0.01226 -0.30461,0.02384 -0.45738,0.03464c0.0356,0.04601 0.06849,0.09435 0.09884,0.14487c0.00085,-0.01197 0.00165,-0.02393 0.00242,-0.03589zM360.08312,141.67999c-0.46087,0.00015 -0.92173,0.00035 -1.3826,0.00061c-1.15662,0.03594 -2.31254,0.06997 -3.46906,0.0994c1.42843,0 2.85688,0 4.28531,0c0.35928,0 0.71857,0 1.07785,0c0.19295,-0.0361 0.39095,-0.06736 0.59274,-0.09434c-0.35084,-0.00363 -0.70187,-0.00566 -1.05317,-0.00566c-0.01703,0 -0.03406,0 -0.05109,-0.00001zM307.05175,141.58l0.13321,-0.1c-1.9483,0 -3.89661,0 -5.84491,0c0.95051,0.06225 1.90738,0.10003 2.87673,0.1c0.94499,0 1.88998,0 2.83497,0zM272.37853,141.06871c0.02814,0.00372 0.05624,0.0074 0.08432,0.01104c0.47262,-0.03868 0.95637,-0.0586 1.44507,-0.06558c-0.25466,-0.05118 -0.50729,-0.10679 -0.75746,-0.16774c-0.29249,0.04809 -0.58501,0.09099 -0.87826,0.12826c0.03595,0.03044 0.07138,0.06179 0.10633,0.09402zM371.70805,142.23283c-0.16937,0.00903 -0.33919,0.01692 -0.50951,0.02353c0.05815,0.3398 0.17971,0.75818 0.2259,1.14616c0.17586,-0.31642 0.39458,-0.62808 0.64149,-0.83159c-0.04264,-0.06419 -0.09102,-0.12186 -0.14568,-0.17225c-0.06629,-0.0611 -0.13721,-0.11621 -0.2122,-0.16585zM375.89013,141.84956c0.17316,-0.01535 0.34488,-0.03407 0.5149,-0.05663c-0.17162,0.01873 -0.34324,0.03767 -0.5149,0.05663zM341.1514,141.78c0.9317,0 1.8634,0 2.7951,0c-0.93372,-0.02209 -1.86944,-0.0309 -2.7951,0zM285.38689,140.51468c0.97461,0.16142 1.97807,0.24792 2.9693,0.38063c0.39211,-0.04912 0.79263,-0.08287 1.19895,-0.10459c-1.38597,-0.12491 -2.77154,-0.22579 -4.16825,-0.27604zM278.26225,141.88c1.11141,0.13948 2.23013,0.20804 3.34745,0.22852c-0.4201,-0.08748 -0.84696,-0.16223 -1.27845,-0.22852c-0.68966,0 -1.37934,0 -2.069,0zM296.07013,141.48c0.04733,0.00126 0.09466,0.00253 0.14199,0.0038c-0.0112,-0.00126 -0.0224,-0.00254 -0.0336,-0.0038c-0.03613,0 -0.07226,0 -0.10839,0zM372.29364,144.66393c0.01389,-0.13328 0.0253,-0.26519 0.03348,-0.39464c-0.01844,0.12681 -0.02889,0.25877 -0.03348,0.39464z" fill="#f25d5d" stroke="none" stroke-width="0.5" stroke-linecap="butt"/><path d="M330.00704,136.17514c-0.11181,0.2236 -0.33541,0.1118 -0.33541,0.1118l-0.36822,-0.18783c-0.34447,-0.34295 -1.08758,-1.16683 -1.22153,-1.90868c-0.00699,-0.00481 -0.01401,-0.00963 -0.02107,-0.01447c-0.33871,0.29121 -0.62374,0.28741 -0.87745,0.11786c-1.04199,0.37167 -2.08303,0.60971 -2.39302,-0.22606c-0.42964,-0.06927 -0.99982,-0.3149 -1.41075,-0.46924c-0.0753,0.02916 -0.15654,0.04593 -0.24509,0.04752c-0.32506,0.00585 -0.56216,-0.13246 -0.78064,-0.314c-0.60332,0.32951 -1.1539,0.7079 -1.48576,1.00117c-0.00086,0.0237 -0.00133,0.04495 -0.00133,0.06345v0.5c0,0.13807 -0.11193,0.25 -0.25,0.25c-0.11246,0 -0.20758,-0.07425 -0.23899,-0.17641l-0.15629,-0.46887l0.14529,-0.04843v-0.05628c0,-0.29687 0.17592,-1.38637 0.10873,-1.73692c-0.0438,-0.01588 -0.08756,-0.03189 -0.13127,-0.04802c-0.28663,0.09458 -0.56957,0.25115 -0.85303,0.42599c-0.57389,0.51033 -1.26536,1.27969 -1.69588,1.78053l-0.10622,0.31868c-0.03141,0.10216 -0.12653,0.17641 -0.23899,0.17641c-0.13807,0 -0.25,-0.11193 -0.25,-0.25c0,-0.01566 0.00144,-0.03099 0.00419,-0.04585l0.06893,-0.41254c0.03507,-0.20988 0.07849,-0.40389 0.12053,-0.58085c-1.42282,0.23048 -3.06335,0.1021 -4.60519,0.01515c0.22677,0.09136 0.44287,0.20073 0.64526,0.33136c0.35601,0.22978 1.21188,1.20194 0.65335,1.67277c-0.27486,0.2317 -2.68556,-0.61268 -3.10366,-0.7075c-0.46567,-0.10561 -0.93713,-0.19196 -1.41238,-0.26505c-0.06765,0.04081 -0.13612,0.08055 -0.20493,0.11911c-0.3474,0.33339 -0.80247,0.57358 -1.18983,0.55082c-0.21164,0.07786 -0.38491,0.12885 -0.49244,0.14701l-0.48834,0.08247c-0.015,0.00281 -0.03048,0.00428 -0.04631,0.00428c-0.13807,0 -0.25,-0.11193 -0.25,-0.25c0,-0.06718 0.0265,-0.12817 0.06961,-0.17309c-1.23016,0.16761 -3.34459,-0.04014 -4.74409,-0.63885c-0.14161,0.02328 -0.28322,0.04679 -0.42486,0.07051c-0.20504,0.03433 -0.41704,0.07439 -0.63498,0.11906c0.02231,0.03741 0.03512,0.08114 0.03512,0.12786c0,0.13807 -0.11193,0.25 -0.25,0.25h-0.5v-0.12702c-0.07481,-0.01046 -0.14744,-0.02488 -0.21816,-0.04264c-2.34924,0.55864 -5.16126,1.43094 -7.38206,1.46388c0.0707,0.02688 0.1424,0.05174 0.21518,0.07435l0.4538,0.14101c0.10463,0.02987 0.18124,0.1262 0.18124,0.24042c0,0.13807 -0.11193,0.25 -0.25,0.25c-0.01348,0 -0.02671,-0.00106 -0.03961,-0.00312l-0.49072,-0.0701c-0.30814,0.01871 -0.60663,-0.01927 -0.69068,-0.22275c-0.01051,-0.02546 -0.01376,-0.0562 -0.01059,-0.09148c-0.71227,-0.25896 -1.35503,-0.56876 -2.00684,-1.03516c-0.00403,-0.00288 -0.00806,-0.00585 -0.01211,-0.00889c-0.5551,0.06186 -1.10316,0.1204 -1.63497,0.18455c-0.20981,0.45615 -0.41665,0.91545 -0.63245,1.36673l0.01469,0.00245l-0.08177,0.48909c-0.01795,0.12044 -0.12181,0.21284 -0.24725,0.21284c-0.13807,0 -0.25,-0.11193 -0.25,-0.25c0,-0.01057 0.00065,-0.02099 0.00193,-0.03122l0.05481,-0.49333c0.02356,-0.21205 0.0824,-0.65834 0.12611,-1.1619c-0.09848,0.01462 -0.19612,0.02967 -0.29285,0.04521c-0.38505,0.06188 -1.84701,0.49529 -2.15114,0.16052c-0.02929,-0.03224 -0.05214,-0.06837 -0.06901,-0.10791c-0.25185,0.1024 -0.5421,0.16924 -0.89624,0.17992c-0.55561,0.01675 -0.77952,-0.20519 -0.80948,-0.52605c-0.12466,-0.01414 -0.22152,-0.11996 -0.22152,-0.2484c0,-0.08425 0.04167,-0.15875 0.10552,-0.20405l0.22787,-0.16573c0.21191,-0.5629 0.66671,-1.16658 0.94435,-1.38501c0.55072,-0.43325 2.15993,-0.91629 1.93959,0.13185c0.48248,-0.42468 0.97161,-0.69655 1.22683,-0.57853c0.17658,0.08166 0.29791,0.27597 0.3788,0.53774c1.91582,-0.22472 3.91622,-0.23575 5.18385,-0.3617c0.47278,-0.00501 0.94567,-0.01193 1.41859,-0.01767c0.39933,-0.56944 1.75502,-0.18892 2.97634,-0.15069c0.92442,0.02894 1.81456,-0.35176 1.91077,-0.26884c0.16482,-0.27275 4.9971,-1.48917 6.06933,-0.23372c0.38203,-0.04617 0.748,-0.01863 0.97389,0.21803c0.02453,0.0257 0.04784,0.05494 0.07,0.0873c0.03407,0 0.06814,0 0.10222,0c0.41336,-0.05673 0.81813,-0.09512 1.20515,-0.1062c0.95806,-0.40772 2.18919,-0.81038 2.58303,-0.51546c0.26876,0.20126 0.40374,0.41084 0.43748,0.62166c0.03096,0 0.06191,0 0.09286,0c1.87892,-0.59057 3.94,-0.90697 5.42977,-1.1422c1.38846,-0.21923 1.64606,0.22706 1.58665,1.02935c0.17402,-0.06534 0.34204,-0.14651 0.50633,-0.2364c0.30665,-0.28788 0.65179,-0.55137 0.98612,-0.74312l-0.25588,-0.0853c-0.10215,-0.03142 -0.17641,-0.12653 -0.17641,-0.23899c0,-0.13807 0.11193,-0.25 0.25,-0.25h0.33333v0.01999l0.04728,-0.01548c0.11365,0.04413 0.22748,0.0876 0.34147,0.13045c0.93737,-0.21376 2.29584,-0.09624 3.60709,0.05984c0.17327,-0.01981 0.34278,-0.02658 0.50515,-0.0189c0.23025,-0.3373 1.74368,-0.25313 2.13656,0.31c0.12624,0.0068 0.24601,0.01067 0.35835,0.01102c0.72994,0.00224 1.50562,-0.19632 2.00471,0.22985c0.40129,-0.61241 2.33402,-0.50991 2.70438,0.18377c0.88536,-0.11547 1.74352,-0.08599 2.26505,0.43004l0.15051,-0.41678c0.03319,-0.09913 0.12682,-0.17057 0.23712,-0.17057c0.13092,0 0.23833,0.10063 0.24911,0.22876l0.04588,0.47777c0.02713,0.09351 0.0522,0.17714 0.07552,0.25154c0.00661,0.00309 0.01287,0.00597 0.01877,0.00862c0.12115,0.05462 0.25191,0.11529 0.38993,0.18141c0.02774,-0.08527 0.05849,-0.18405 0.09443,-0.29125l-0.07312,-0.01838l0.12062,-0.47983c0.02537,-0.11118 0.12486,-0.19414 0.24373,-0.19414c0.11767,0 0.21635,0.08129 0.24295,0.19078l0.12745,0.47792c0.09255,0.34707 0.18283,0.62545 0.2717,0.84368c0.28503,0.15724 0.57615,0.32741 0.85978,0.50688c0.07072,-0.06716 0.14236,-0.15463 0.21536,-0.25812c-0.59852,-0.37502 -1.05453,-0.97695 -0.24986,-1.439c0.37691,-0.75384 0.7838,-0.75682 1.12639,-0.44736c0.0431,-0.0752 0.12416,-0.12586 0.21705,-0.12586c0.13807,0 0.25,0.11193 0.25,0.25v0.33333c0,0.07652 0.00426,0.15545 0.01099,0.23583c0.16294,0.34095 0.27626,0.71622 0.31306,1.00069c0.37761,-0.01995 0.80872,-0.05961 1.26677,-0.10574c0.2261,-0.11243 0.5506,-0.19183 0.97698,-0.21363c0.83335,-0.04259 2.75438,-0.28464 4.14089,-0.16715h0.04131v0c0.02506,0 0.04925,0.00368 0.07207,0.01054c0.51186,0.052 0.94117,0.15744 1.20063,0.3464c0.25541,0.186 0.38779,0.34082 0.4323,0.46949c0.91503,-0.21845 1.85676,-0.32456 2.32554,-0.32456c0.96479,0.2825 1.13046,0.66057 0.90971,1.01946c0.2434,-0.02887 0.49101,-0.05119 0.74193,-0.06791c0.50915,-0.11998 1.15305,-0.1396 1.72462,-0.03896c0.83735,0.01126 1.68727,0.05788 2.51913,0.10804c1.52306,-0.13482 3.89174,-0.18146 4.99191,0.14416c0.08294,0 0.16589,0 0.24883,0h0.5c0.13807,0 0.25,0.11193 0.25,0.25c0,0.13807 -0.11193,0.25 -0.25,0.25c-0.13205,0 -0.7641,0 -0.89615,0c-0.77563,0.09243 -1.57262,0.0554 -2.37241,0c-0.40405,0 -0.80809,0 -1.21214,0c0.68194,0.10331 1.35959,0.20844 2.02823,0.29962c0.54675,0.07456 1.54983,0.01771 2.20928,0.19915c0.08088,0.00075 0.16194,0.00123 0.24319,0.00123h0.5c0.13807,0 0.25,0.11193 0.25,0.25c0,0.08849 -0.04598,0.16625 -0.11535,0.21068c0.57629,0.05266 1.15213,0.11863 1.67209,0.21308c0.84307,0.03677 2.26806,0.18605 2.68965,-0.07411c-0.0004,-0.00036 -0.00079,-0.00071 -0.00119,-0.00106l-0.00383,-0.00661l-0.00146,0.00146l-0.33333,-0.33333c-0.04524,-0.04524 -0.07322,-0.10774 -0.07322,-0.17678c0,-0.13807 0.11193,-0.25 0.25,-0.25c0.02969,0 0.05818,0.00517 0.08459,0.01467l0.4688,0.15627l-0.0155,0.04652c0.41557,0.09556 0.7806,0.28403 0.50362,0.66541c0.76546,0.67722 1.75174,1.46366 2.62515,1.45046c0,0 0.25,0 0.25,0.25c0,0.25 -0.25,0.25 -0.25,0.25c-0.5149,-0.00618 -1.03531,-0.21164 -1.53386,-0.50847l-0.48958,0.0043l-0.00043,-0.04897c-1.36606,0.25 -3.67437,0.4588 -4.4409,0.01581c-0.47785,-0.27616 -0.57614,-0.49881 -0.46038,-0.67615c-1.40384,-0.18231 -2.82171,-0.5547 -4.12752,-0.79212l-0.00738,-0.00421l-0.00059,0.00236l-0.48,-0.12c-0.06487,-0.01472 -0.12016,-0.05466 -0.15501,-0.10898c-1.20023,-0.16058 -2.43027,-0.43469 -3.61817,-0.64276c0.27305,1.14812 -2.18051,1.23312 -2.96181,1.3318c-0.59862,0.07159 -2.33672,-0.01853 -3.41394,-0.46853c-1.24126,0.09781 -2.73937,0.05725 -3.09481,-0.55643c-1.23789,-0.10904 -2.45443,-0.39454 -3.47874,-0.87747c-0.04154,-0.06212 -0.07516,-0.12204 -0.10137,-0.17979c-0.12041,-0.01591 -0.23303,-0.03634 -0.33777,-0.06066c-0.91289,0.01663 -1.82746,0.02336 -2.74672,0.0236c0.16161,0.13184 0.31209,0.26577 0.44738,0.40069c0.03758,0.02359 0.0751,0.04747 0.11257,0.07166l0.06579,-0.06579l0.33334,0.33334v0c0.04524,0.04524 0.07322,0.10774 0.07322,0.17678c0,0.13807 -0.11193,0.25 -0.25,0.25c-0.05187,0 -0.10005,-0.0158 -0.13999,-0.04284l-0.29778,-0.19514c-0.13007,-0.08524 -0.26082,-0.16655 -0.39224,-0.24436c-0.36515,-0.10712 -0.73948,-0.31284 -1.11201,-0.55924c-0.31019,0.16497 -0.61935,0.19287 -0.8718,-0.00631c-0.10344,-0.08161 -0.1889,-0.25813 -0.26097,-0.4775c-0.49739,-0.18681 -1.00465,-0.35959 -1.52258,-0.53796c-0.09829,0.10995 -0.22939,0.20532 -0.37881,0.28377c-0.13738,0.18434 -0.2985,0.31803 -0.47767,0.35819c-0.02855,0.02819 -0.06178,0.04909 -0.10036,0.06133c-0.13254,0.04203 -0.36952,-0.04857 -0.6219,-0.18033c-0.1836,-0.02044 -0.34316,-0.07331 -0.45373,-0.16263c-0.11748,-0.09491 -0.20079,-0.18171 -0.25494,-0.26099c-0.08069,-0.05095 -0.149,-0.09348 -0.19867,-0.12116c-0.99813,-0.37933 -2.07268,-0.66936 -2.4999,-0.49895v0.33412c0,0.08903 -0.04654,0.1672 -0.11662,0.21149c0.11885,0.2586 0.38664,0.61322 0.84664,1.08606l0.29845,0.1455c0,0 0.22361,0.11181 0.1118,0.33541zM306.94942,135.20407c0.0125,0.1288 0.02232,0.2438 0.03081,0.33626c0.00619,-0.00568 0.01266,-0.01105 0.0194,-0.0161l0.19626,-0.15005c-0.08267,-0.0523 -0.16481,-0.10919 -0.24647,-0.17012zM333.12049,133.93333c0.07786,0.00092 0.15156,0.00372 0.21906,0.00816c0.01736,-0.03579 0.03487,-0.07203 0.05248,-0.10855c-0.07353,-0.13805 -0.15967,-0.2865 -0.23733,-0.41226c-0.01232,0.00661 -0.02457,0.01441 -0.03673,0.02351c-0.03879,0.02901 -0.02017,0.22971 0.00253,0.48915zM334.03958,134.11896c0.06309,0.02176 0.12602,0.04344 0.1888,0.06509c-0.07953,-0.078 -0.15579,-0.17413 -0.22534,-0.28911c-0.00169,-0.00125 -0.00339,-0.00251 -0.00508,-0.00377c0.00927,0.03371 0.01792,0.06827 0.02592,0.1037c0.00955,0.04227 0.01467,0.08366 0.0157,0.12409zM311.02414,134.23136c-0.19467,0.06139 -0.38959,0.12311 -0.58493,0.18488c-0.07333,0.07378 -0.15389,0.14625 -0.23998,0.21706c0.31658,0.07882 0.61635,0.15178 0.89489,0.21496c0.60681,0.13762 2.20127,0.85898 2.70141,0.78899c0.2238,-0.03132 -1.78009,-1.16987 -2.00733,-1.23606c-0.25203,-0.07342 -0.50696,-0.12863 -0.76406,-0.16983zM296.69665,134.60515c0.01051,-0.0005 0.02101,-0.001 0.03152,-0.00151c0.06586,-0.0349 0.13108,-0.06761 0.19581,-0.09812l-0.20761,0.07549c-0.00657,0.00805 -0.01314,0.0161 -0.01971,0.02414zM283.92961,136.19386c0.2296,0.2626 0.63684,0.15334 1.09131,-0.1068c0.0291,-0.13691 0.08817,-0.28775 0.16984,-0.44527c-0.24991,0.05539 -0.4966,0.09943 -0.73462,0.12498c-0.20538,0.073 -0.39395,0.13384 -0.54233,0.1833l-0.11039,0.0368c0.02618,0.07041 0.06734,0.1397 0.12619,0.207zM289.96951,134.93571c0.22296,0.12563 0.44146,0.2725 0.65981,0.42895c0.69223,-0.11125 1.38445,-0.2225 2.07667,-0.33375c-0.66234,-0.02749 -1.30767,-0.05091 -1.92255,-0.05091c-0.23926,0 -0.51738,-0.01961 -0.81393,-0.04429zM324.60105,132.06255c0.0969,0.0266 0.18896,0.06043 0.27511,0.1019c0.33235,0.04047 0.64997,0.07672 0.94362,0.10296c-0.25164,-0.34867 -0.5226,-0.56536 -0.84657,-0.45514c-0.14189,0.04827 -0.26334,0.13698 -0.37216,0.25029zM328.86257,133.06796c0.00016,0.01604 0.0003,0.03207 0.00045,0.04811c0.06747,0.00297 0.13988,0.0114 0.21618,0.02443c0.50225,-0.07217 1.1422,-0.23381 1.79564,-0.3478c-0.28967,-0.51418 -0.58333,-0.91536 -0.92954,-0.95376c-0.26327,-0.0292 -0.7302,0.66069 -1.08273,1.22902zM337.40719,134.7599c-0.05594,0.07761 -0.11462,0.15304 -0.17543,0.22533l0.47611,-0.11903l0.01053,0.04211c0.03082,-0.01396 0.0618,-0.02776 0.09289,-0.04138c-0.08999,-0.01944 -0.17634,-0.0401 -0.25869,-0.06197c-0.04654,-0.01236 -0.09525,-0.02746 -0.14541,-0.04506zM347.28406,136.50414c0.04797,0.0341 0.10126,0.0666 0.15917,0.09754c0.72686,-0.05453 1.36317,-0.14663 1.53396,-0.19194c0.34905,-0.09124 0.60894,-0.16941 0.79401,-0.23591c-0.02054,-0.04125 -0.03533,-0.08141 -0.04473,-0.12046c-0.23617,0.00072 -0.4658,-0.01455 -0.66914,-0.06124c-0.37014,0.18929 -0.79041,0.33564 -1.13665,0.40456c-0.2074,0.04128 -0.41998,0.07713 -0.63662,0.10744zM348.68956,136.97719c0.829,0.14599 1.72688,0.17472 2.08893,0.12601c0.07677,-0.00969 0.21144,-0.02044 0.38037,-0.0347c-0.37042,-0.14751 -0.77782,-0.31367 -1.05451,-0.51826c-0.24277,0.11265 -0.57083,0.22769 -0.99894,0.34277c-0.08698,0.02308 -0.23093,0.05279 -0.41586,0.08417zM350.91266,135.98566c-0.07565,0.00371 -0.15528,0.00897 -0.23784,0.01494c0.00458,0.05828 -0.01225,0.11886 -0.05365,0.18124c0.10177,0.06443 0.22744,0.13457 0.37964,0.21067c0.28102,0.14051 0.56119,0.28277 0.84006,0.42751c0.54356,0 0.78042,-0.35216 1.04356,-0.69857c-0.58735,-0.08169 -1.15911,-0.13451 -1.70598,-0.13523c-0.08859,-0.00019 -0.1772,-0.00038 -0.26579,-0.00057zM353.29649,136.23314c-0.19925,0.1742 -0.33958,0.4024 -0.51633,0.60359c0.31404,-0.08471 0.54708,-0.19817 0.58381,-0.35239c0.02105,-0.08841 -0.00501,-0.17248 -0.06748,-0.2512zM344.82173,136.04648c0.57998,0.01833 1.16152,0.0025 1.7346,-0.03388c0.21821,-0.73273 1.82504,-0.84395 2.96592,-0.62863c0.01753,-0.00262 0.03508,-0.00521 0.05266,-0.00776c-0.02725,-0.20982 -0.51005,-0.53939 -0.65535,-0.56474c-0.77195,0 -3.67949,0.45843 -4.07821,1.19504c-0.00736,0.01359 -0.01388,0.02691 -0.01961,0.03997zM344.62294,134.51515c0.21715,0.06793 0.40714,0.15014 0.55639,0.2458c0.10231,-0.00688 0.20467,-0.01397 0.30708,-0.02125c0.23911,-0.01445 0.56435,0.13493 0.71692,-0.04975c0.2026,-0.24523 -0.62985,-0.09165 -0.94664,-0.12045c-0.21298,-0.01936 -0.42345,-0.03866 -0.63375,-0.05435zM337.13376,134.04397c0.14929,-0.26469 0.30574,-0.56988 0.47251,-0.88455l-0.01996,-0.00499l0.01589,-0.06357c-0.17406,-0.19595 -0.39276,-0.18253 -0.64198,0.31591c-0.49526,0.20201 -0.23403,0.45122 0.17354,0.6372zM328.36663,132.93678c-0.10501,-0.21675 -0.86773,-0.20313 -1.49604,-0.16884c0.42983,0.18081 0.84259,0.43422 1.15016,0.70596c0.00163,-0.00063 0.00326,-0.00126 0.00489,-0.00189c0.00223,-0.00307 0.00446,-0.00616 0.00669,-0.00929c0.08486,-0.11668 0.19905,-0.30652 0.3343,-0.52594zM283.91031,135.32876c0.25292,-0.15686 0.53588,-0.29434 0.8422,-0.41514c0.8256,-0.64381 1.2074,-1.39769 -0.0552,-0.40442c-0.20373,0.16028 -0.58107,0.47041 -0.78699,0.81956zM291.40347,134.48761c0.82993,0.01902 1.71087,0.06963 2.60771,0.10477c0.05468,-0.07975 0.11318,-0.16582 0.17503,-0.25669c-0.34721,0.00296 -0.69441,0.00581 -1.04159,0.00914c-0.57256,0.05747 -1.15556,0.09938 -1.74115,0.14278zM287.58735,135.85355c0.01641,-0.30493 0.02196,-0.60935 0.0066,-0.87801c-0.214,0.0522 -0.44339,0.11731 -0.68244,0.18782c-0.56671,0.30668 -0.94007,0.746 -1.43035,1.06697c0.24171,0.08835 1.46541,-0.27381 1.6973,-0.31108c0.1363,-0.02191 0.2726,-0.0438 0.40889,-0.06571zM287.08522,134.32307c0.12252,-0.01935 0.24593,-0.03758 0.36999,-0.05477c-0.03067,-0.06211 -0.06695,-0.11114 -0.10958,-0.14451c-0.01319,-0.01032 -0.11291,0.06776 -0.26042,0.19928zM288.83508,135.65302c0.29912,-0.04808 0.59824,-0.09615 0.89736,-0.14422c-0.25937,-0.34494 -0.50254,-0.65734 -0.63722,-0.38927c-0.08848,0.17612 -0.17494,0.35419 -0.26014,0.5335zM292.97854,135.87709c0.06667,-0.08208 0.13362,-0.16286 0.19894,-0.24072c-0.59544,0.11023 -1.2019,0.198 -1.80767,0.2746c0.22618,0.16527 0.45717,0.32695 0.69745,0.47297l0.3751,-0.20045c0.18008,-0.09623 0.3587,-0.19882 0.53618,-0.3064zM306.36264,134.71323c-0.58776,-0.05354 -1.17454,-0.10729 -1.75674,-0.17216c-0.4221,0.0623 -0.84394,0.12644 -1.26573,0.19248c1.08934,0.21791 2.32799,0.21587 3.24561,0.51004c-0.12594,-0.1499 -0.18505,-0.3355 -0.22314,-0.53036zM309.10528,133.45973c0.03303,0.00638 0.06578,0.01314 0.09824,0.02027c0.36394,0 0.72787,0 1.09181,0c-0.03152,-0.07105 -0.0823,-0.14176 -0.155,-0.21167c-0.10586,-0.10179 -0.53214,0.02521 -1.03505,0.1914zM313.21869,133.56697c1.46393,0.08826 2.98979,0.17948 4.29751,-0.07185c0.11278,-0.57926 0.00646,-0.83049 -1.05157,-0.66344c-1.10907,0.17512 -2.18256,0.43503 -3.24594,0.73529zM325.30557,133.10056c-0.08159,0.09078 -0.12125,0.23644 -0.10602,0.45045c0.07972,0.01047 0.12735,0.00835 0.12916,-0.0111c0.01605,-0.17241 0.00722,-0.31796 -0.02313,-0.43935zM323.3459,133.05435c0.06532,-0.04882 0.12908,-0.11469 0.19227,-0.19233c-0.06295,0.00052 -0.12604,0.00086 -0.18922,0.00098c-0.08902,0.03461 -0.17881,0.07178 -0.26887,0.1111c0.05949,0.01797 0.11902,0.03588 0.17858,0.05373c0.01524,0.00457 0.04528,0.01374 0.08725,0.02652zM331.58529,134.11244c-0.17068,-0.29085 -0.33109,-0.60715 -0.48902,-0.90887c-0.3585,0.07346 -0.7207,0.15924 -1.04401,0.23583c0.62885,0.24819 1.25409,0.56492 1.52547,0.66884c0.00252,0.0014 0.00504,0.00279 0.00756,0.0042zM332.79688,133.06273c-0.28557,-0.0721 -0.75323,-0.02967 -1.26666,0.05854c0.17007,0.32573 0.34164,0.64793 0.52903,0.91934c0.19937,-0.04994 0.42937,-0.08048 0.65381,-0.09571c-0.05856,-0.35948 -0.08265,-0.72209 0.08382,-0.88217zM326.3568,133.17287c-0.27785,-0.12043 -0.53265,-0.19621 -0.73227,-0.19394c0.18283,0.39563 0.18457,0.81673 -0.22282,1.01232c0.28111,0.2168 0.8197,0.12199 1.41461,-0.0695c-0.16046,-0.21514 -0.31102,-0.47988 -0.45952,-0.74889zM320.92804,133.34104c0.11917,-0.1353 0.25669,-0.26422 0.4081,-0.38493c-0.13531,-0.04444 -0.27034,-0.08965 -0.40503,-0.13582c0.00658,0.16254 0.00397,0.34186 -0.00306,0.52075zM308.19757,134.13684c0.23484,0.05576 0.46628,0.11226 0.69313,0.16845c0.12517,-0.06425 0.25316,-0.12643 0.38364,-0.18661c-0.3585,0.00089 -0.71803,0.01045 -1.07677,0.01816zM307.09705,134.78078c0.18056,0.12772 0.36503,0.23444 0.55471,0.31386c0.09744,-0.07852 0.19876,-0.15476 0.30365,-0.2288c-0.28571,-0.03022 -0.57197,-0.05815 -0.85836,-0.08506zM296.54516,135.10028c-0.08285,0.07523 -0.16478,0.15091 -0.24437,0.22493c0.72132,-0.12739 1.44813,-0.23886 2.17523,-0.34598l0.04151,-0.06886c-0.64074,0.10724 -1.3025,0.16434 -1.97238,0.18991zM295.38126,135.23925c-0.25792,0.14805 -0.52047,0.28965 -0.77831,0.42365c0.20854,-0.04698 0.41792,-0.09179 0.62799,-0.13473c0.04447,-0.09781 0.09488,-0.19407 0.15031,-0.28893zM288.24325,134.83928c-0.06387,0.01175 -0.1276,0.02391 -0.19117,0.0365c0.02491,0.28456 0.02869,0.59362 0.02028,0.89982c0.02405,-0.00386 0.04811,-0.00774 0.07216,-0.0116c0.21086,-0.37631 0.45633,-0.71173 0.69369,-0.91487c-0.20301,-0.01003 -0.40323,-0.01466 -0.59497,-0.00984zM324.69893,133.44233c0.00671,-0.26287 0.0731,-0.4632 0.184,-0.61038c-0.26321,0.00767 -0.53486,0.01576 -0.81142,0.02177c-0.07294,0.12305 -0.1472,0.2427 -0.22712,0.35017c0.26756,0.07876 0.58324,0.16891 0.85454,0.23844zM337.84475,134.27664c-0.02119,-0.05836 -0.03939,-0.11672 -0.05499,-0.17616c-0.02179,0.04883 -0.04512,0.09783 -0.06986,0.14677c0.04325,0.01107 0.0851,0.02091 0.12485,0.02939zM344.8236,135.34253c0.03077,-0.02088 0.06269,-0.04144 0.09568,-0.06167c-0.00151,-0.00051 -0.00302,-0.00101 -0.00454,-0.00152c-0.13056,0.00831 -0.26104,0.0163 -0.39147,0.02399c0.10054,0.01198 0.20067,0.02498 0.30033,0.03921zM344.29554,136.02005c0.02119,-0.06902 0.05077,-0.14189 0.08933,-0.21877c-0.60183,0.03478 -1.34985,-0.01572 -2.01612,-0.08376c0.62682,0.16275 1.27388,0.25706 1.92679,0.30254zM346.6983,136.64062c-0.01688,-0.02119 -0.0326,-0.04279 -0.0471,-0.06481c-0.2869,0.02508 -0.57874,0.04079 -0.87318,0.04683c0.27979,0.02297 0.59676,0.02666 0.92027,0.01798zM366.11935,137.52834c-0.09884,0.05223 -0.21656,0.0931 -0.34833,0.12463c0.24579,0.06467 0.48463,0.12881 0.71032,0.18516c-0.12414,-0.1034 -0.245,-0.20743 -0.36199,-0.3098zM332.82328,134.55238c-0.00993,-0.06507 -0.02314,-0.13712 -0.03769,-0.21355c-0.14238,0.00467 -0.28377,0.02661 -0.43572,0.06069c0.06729,0.06835 0.13701,0.12884 0.20966,0.17982c0.08607,-0.00589 0.17528,-0.01475 0.26375,-0.02696zM294.82862,134.61199c0.13165,-0.09548 0.26326,-0.19104 0.39494,-0.28604c-0.16762,0.00181 -0.33524,0.00347 -0.50287,0.00503c-0.06573,0.094 -0.13025,0.18746 -0.19321,0.27955c0.09389,0.00287 0.18788,0.00546 0.28193,0.00774c0.0064,-0.00208 0.0128,-0.00418 0.01921,-0.00628z" fill="#f25d5d" stroke="none" stroke-width="0.5" stroke-linecap="butt"/><path d="M305.31023,137.92545c-0.44657,0.07095 -0.79564,0.11754 -0.95025,0.1466c-0.69223,0.13014 -1.3752,0.25564 -2.05304,0.37351c-2.07669,0.89942 -4.1874,1.88151 -6.22582,2.56603c1.9033,-0.0283 3.83787,-0.31253 5.74241,-0.53214l0.3827,-0.17327l0.01344,0.02966c0.00293,-0.0011 0.02033,-0.00763 0.02326,-0.00873c1.09053,-0.8105 2.4096,-1.40001 3.78981,-1.85868c-0.08915,0.00853 -0.1783,0.01707 -0.26745,0.0256l-0.40402,-0.23161c0,0 -0.1863,-0.14799 -0.05104,-0.33697zM327.52906,133.81805l0.00363,-0.03618l0.49473,0.04972c0.12443,0.01097 0.22269,0.1131 0.22757,0.23918c0.00952,0.005 0.01797,0.01065 0.02526,0.01701c0.41921,0.36582 -0.38837,1.75371 -0.16247,2.0166c0.06957,0.08097 1.61388,0.01558 1.82139,0.02744c0.44491,0.02543 0.87599,0.03804 1.29637,0.03966c-0.07111,-0.03385 -0.13862,-0.06488 -0.20225,-0.09282l-0.41178,-0.18078c-0.09082,-0.03745 -0.15474,-0.12687 -0.15474,-0.23121c0,-0.13807 0.11193,-0.25 0.25,-0.25c0.02263,0 0.04454,0.00301 0.06538,0.00864l0.47998,0.11858l-0.00878,0.03555c0.93896,0.03136 1.92648,0.19776 2.92659,0.43258c1.92181,-0.20547 3.77006,-0.57244 5.93054,-0.8783c0.79473,0.0839 -0.62642,-1.89883 -0.18493,-2.4281c0.37457,-0.44905 1.3088,0.26531 1.62174,0.43477c1.76186,0.95404 3.68442,1.31167 5.62153,1.80728c2.81883,0.72119 6.50625,1.08622 9.19512,2.38767l0.00843,-0.03296l0.47928,0.12262c0.11068,0.02573 0.19316,0.125 0.19316,0.24351c0,0.13697 -0.11016,0.24821 -0.24671,0.24997c-1.99977,0.03011 -4.49902,0.06775 -6.49879,0.09786c-2.83697,0.04272 -5.67395,0.08543 -8.51092,0.12815c1.83071,0.45229 3.66141,0.90459 5.49212,1.35688l0.48036,0.11867c0.11165,0.02502 0.19509,0.12474 0.19509,0.24395c0,0.13774 -0.1114,0.24946 -0.24901,0.25l-0.49985,0.00227l-0.00025,-0.05568c-2.36903,0.38502 -5.49612,-0.31938 -8.04982,-0.72457c-0.02963,0.10284 -0.12349,0.17846 -0.23534,0.18061c-1.16638,0.02616 -2.83011,0.06349 -3.99649,0.08965c-0.18077,0.00405 -0.36154,0.00811 -0.5423,0.01217c-1.14342,0.3777 -3.19334,0.23465 -3.75072,0.26057c-1.33652,0.06216 -3.8541,0.68257 -5.09416,0.2166c-0.07772,-0.0292 -0.22187,-0.1265 -0.40677,-0.26964c-0.23447,0.00526 -0.46894,0.01052 -0.70341,0.01578c-0.78148,0.01753 -1.62365,0.07957 -2.49428,0.14953c-0.04317,0.07494 -0.12409,0.12539 -0.21678,0.12539c-0.04771,0 -0.0923,-0.01336 -0.13022,-0.03655l-0.09087,-0.05335c-2.2141,0.18024 -4.57453,0.37194 -6.5663,-0.00946l0.00084,0.03749l-0.49896,0.01119c-0.00216,0.00006 -0.00434,0.00008 -0.00652,0.00008c-0.13807,0 -0.25,-0.11193 -0.25,-0.25c0,-0.12567 0.09273,-0.22968 0.21349,-0.24735c0.82231,-0.13508 2.134,-0.35056 2.95631,-0.48564c0.96688,-0.15883 1.87997,-0.48369 2.7591,-0.89561c-0.01614,-0.01785 -0.03244,-0.03549 -0.04887,-0.05291c-0.44572,-0.00596 -0.89144,-0.01192 -1.33717,-0.0179c-0.29143,0.00583 -0.59227,0.0182 -0.90064,0.03506c-1.23031,0.16525 -2.4716,0.23025 -3.47912,0.29743c-0.65992,0.04399 -1.58102,0.26176 -2.13071,0.05353c-0.95024,0.00838 -1.87491,-0.03987 -2.73025,-0.19178c-1.80777,1.05454 -4.75185,2.36486 -6.60918,2.55868c-0.30093,0.02978 -0.60283,0.06251 -0.90547,0.09694l-0.01512,0.00568c-0.02881,0.01159 -0.06028,0.01796 -0.09324,0.01796c-0.01765,0 -0.03487,-0.00183 -0.05149,-0.00531c-1.96682,0.22725 -3.9632,0.51712 -5.92634,0.5288l-0.49977,0.00271c-0.00052,0 -0.00105,0.00001 -0.00158,0.00001c-0.13807,0 -0.25,-0.11193 -0.25,-0.25c0,-0.06656 0.02601,-0.12705 0.06843,-0.17185l0.34254,-0.36348l0.06202,0.05844c0.69493,-0.72126 1.76175,-1.29772 2.94756,-1.78366c-1.51092,0.17773 -3.03458,0.28913 -4.61761,0.30063c-0.33333,0.00242 -0.66665,0.00485 -0.99998,0.00727l-0.40877,0.00297c-0.0007,0 -0.00141,0 -0.00212,0c-0.13807,0 -0.25,-0.11193 -0.25,-0.25c0,-0.0998 0.05848,-0.18594 0.14304,-0.22602l0.39515,-0.19758l0.03935,0.0787c0.58018,-0.33534 1.31368,-0.58469 2.12469,-0.77684c-1.48841,0.32623 -2.9791,0.55247 -4.30307,0.44521c-0.01572,0.00274 -0.03145,0.00547 -0.04718,0.00821l-0.0156,0.00271l0.00348,0.03323l-0.49382,0.0517c-0.00968,0.00114 -0.01952,0.00172 -0.02949,0.00172c-0.13807,0 -0.25,-0.11193 -0.25,-0.25c0,-0.12492 0.09162,-0.22844 0.21133,-0.24702l0.48844,-0.08495c1.94026,-0.33743 3.87595,-0.67171 5.80213,-1.08237c2.20995,-0.47115 4.68579,-0.70514 6.81565,-1.45101c0.21488,-0.07525 0.44617,-0.2065 0.68551,-0.35119c-1.22169,0.22927 -2.46865,0.38365 -3.67858,0.59885c-3.44592,0.6129 -6.89183,1.22579 -10.33775,1.83868c-2.76813,0.49235 -6.46524,1.80513 -9.38258,1.55471c-0.00043,0.00009 -0.00085,0.00017 -0.00128,0.00026l0.00514,0.04625l-0.49334,0.05481c-0.01022,0.00127 -0.02065,0.00193 -0.03122,0.00193c-0.13094,0 -0.23838,-0.10067 -0.24912,-0.22885c-1.3112,0.28659 -2.59714,0.45032 -3.65088,0.35598v0.07287h-0.5c-0.13807,0 -0.25,-0.11193 -0.25,-0.25c0,-0.101 0.05989,-0.18801 0.1461,-0.22745l0.42622,-0.20616l0.00303,0.00625l0.01794,-0.01524c0.80975,-0.22405 1.58237,-0.49652 2.36892,-0.79147c0,0 0.16707,-0.06265 0.27185,0.05905c0.96878,-0.20822 2.03447,-0.34256 3.06421,-0.48224c0.02742,-0.0311 0.06245,-0.05533 0.10218,-0.06977l0.46038,-0.17958c1.40675,-0.54845 3.26276,-1.35441 4.84434,-1.24583l0.00154,-0.08976l0.49939,0.00856c0.09154,0.00134 0.17116,0.05189 0.21361,0.12637c1.22248,-0.31963 2.44625,-0.62753 3.71487,-0.81214c0.49605,-0.07203 0.97822,-0.17705 1.46812,-0.28257l0.0133,0.00286l-0.0005,-0.0046l0.40359,-0.04437c0.01013,-0.00125 0.02044,-0.00189 0.03091,-0.00189c0.13807,0 0.25,0.11193 0.25,0.25c0,0.11246 -0.07426,0.20758 -0.17642,0.23899l-0.46887,0.15629l-0.01162,-0.03484c-1.55758,0.89978 -3.53032,1.46679 -5.45929,1.94517c0.76063,-0.13529 1.52127,-0.27058 2.2819,-0.40587c3.44592,-0.6129 6.89184,-1.22579 10.33776,-1.83868c1.77939,-0.31649 3.64409,-0.49631 5.38246,-0.98955l0.39044,-0.1105c0.02328,-0.00716 0.048,-0.01102 0.07362,-0.01102c0.13807,0 0.25,0.11193 0.25,0.25c0,0.0998 -0.05848,0.18595 -0.14304,0.22603l-0.44236,0.22118l-0.02208,-0.04414c-0.63655,0.47075 -1.36059,0.83364 -2.13415,1.12357c1.53664,-0.12474 3.06745,-0.16157 4.62448,-0.17232c0.51342,-0.1214 0.9409,-0.14949 1.16501,-0.00414c0.3654,-0.00038 0.73265,-0.00018 1.10215,-0.00018c0.37885,0.03843 0.60911,0.15586 0.72907,0.32075c0.94018,-0.72502 1.82279,-1.49352 2.5918,-2.23397l0.21465,-0.40582c0.04113,-0.08168 0.12573,-0.13771 0.22343,-0.13771c0.13807,0 0.25,0.11193 0.25,0.25c0,0.02592 -0.00394,0.05092 -0.01126,0.07443l-0.13617,0.4751l-0.01763,-0.00505l-0.00056,0.05085c-0.47087,0.60038 -0.93192,1.24192 -1.28959,1.92658c0.2978,-0.00707 0.59555,-0.01413 0.89328,-0.02106c0.13454,-0.14327 0.29912,-0.25115 0.52602,-0.29262c0.15245,-0.02785 0.2495,0.11559 0.34608,0.27274c0.28965,-0.00643 0.5793,-0.01264 0.86893,-0.01856c0.3322,-0.32333 0.70982,-0.75284 0.81766,-0.85183c0.41269,-0.37884 1.0378,-1.13671 1.67191,-1.69736c-0.10863,-0.0272 -0.18909,-0.12546 -0.18909,-0.24253c0,-0.10578 0.0657,-0.19621 0.15851,-0.23273l0.45565,-0.19141l0.01412,0.03362c0.1442,-0.08539 0.2928,-0.16255 0.44686,-0.22727l0.45584,-0.19149c0.03114,-0.01393 0.06565,-0.02167 0.10197,-0.02167c0.13807,0 0.25,0.11193 0.25,0.25c0,0.07321 -0.03147,0.13907 -0.08161,0.18479l-0.28418,0.26087c2.61034,0.18815 5.74142,0.10661 8.2066,0.87274zM318.84769,133.41149c-0.46855,0.56128 -1.07229,1.23256 -1.67719,1.82532c0.87892,-0.53227 1.8889,-1.09378 2.39421,-1.00662c0.4909,0.08468 0.90076,0.72321 1.23467,1.5563c0.09104,-0.00466 0.18712,-0.00911 0.2852,-0.01269c0.02859,-0.07143 0.0892,-0.12658 0.16407,-0.14774l0.47248,-0.14538l0.00995,0.03231c0.01932,-0.00452 0.03864,-0.00903 0.05796,-0.01355c1.16748,-0.61934 2.66588,-1.05695 4.04948,-1.33625c-0.31531,-0.05378 -0.61082,-0.11047 -0.8433,-0.13383c-2.04918,-0.20595 -4.09836,-0.41191 -6.14754,-0.61787zM323.25508,137.4065c0.07912,0.08016 0.17284,0.17298 0.27678,0.27427c1.89577,0.02529 3.79154,0.05063 5.68731,0.07591c0.28734,0.00383 1.0155,-0.04221 1.8678,-0.05345c0.84737,-0.1319 1.74945,-0.18166 2.66861,-0.18846c-0.565,-0.30253 -1.10496,-0.60196 -1.58122,-0.85869c-0.72415,0.0251 -1.4732,0.0201 -2.26371,-0.02507c-0.38874,-0.02221 -1.91991,0.09272 -2.17209,-0.20076c-0.23951,-0.27874 0.31554,-1.87621 0.21294,-1.96574c-0.3268,-0.28518 -0.81692,0.29794 -1.23925,0.39674c-0.1875,0.04387 -0.37501,0.08773 -0.56251,0.13159l-0.16849,0.3234l-0.12408,-0.06465c-0.48998,0.77496 -1.46235,1.51297 -2.60208,2.15491zM335.48681,136.35113c1.52307,0.42719 3.03915,0.94519 4.42271,1.3216c3.46076,-0.05211 6.92151,-0.10422 10.38227,-0.15633c1.47404,-0.0222 2.94808,-0.04439 4.42212,-0.06658c-0.33098,-0.1081 -0.64228,-0.21998 -0.88744,-0.2827c-2.26052,-0.57835 -4.52105,-1.1567 -6.78156,-1.73505c-1.4266,-0.36499 -3.01904,-0.58819 -4.3888,-1.12481c-0.61116,-0.23943 -1.21097,-0.64846 -1.78656,-0.96527c-0.18792,-0.10343 -0.54158,-0.52784 -0.56155,-0.31427c-0.09257,0.98997 1.38302,2.20473 -0.12741,2.60108c-1.6861,0.2387 -3.19306,0.51444 -4.69376,0.72233zM329.2125,138.25663c-1.7167,-0.02289 -3.43341,-0.04573 -5.15012,-0.06859c0.43771,0.41192 0.91829,0.84989 1.25142,1.13371c3.0343,-0.06806 6.0686,-0.13614 9.10289,-0.2042c0.13144,-0.0653 0.21986,-0.14552 0.25017,-0.24389c0.00481,-0.01561 0.00808,-0.0307 0.0099,-0.0453c-1.46904,-0.15116 -2.93807,-0.30232 -4.40711,-0.45348l-0.49456,-0.05089c-0.05993,-0.00541 -0.11377,-0.03198 -0.15397,-0.07217c-0.14188,0.00457 -0.27856,0.00654 -0.40863,0.00481zM324.5456,139.33898c-0.3997,-0.34981 -0.84858,-0.77202 -1.22452,-1.16082c-0.52038,-0.00693 -1.04077,-0.01387 -1.56115,-0.02081c-0.07867,0.03541 -0.15748,0.07032 -0.23636,0.10471c0.09412,0.41813 0.17252,0.80741 0.23573,1.13067l0.00433,0.00866c0.88433,-0.01984 1.76866,-0.03968 2.65299,-0.05951c0.04299,-0.00097 0.08598,-0.00193 0.12897,-0.00289zM324.7914,135.31059c-0.11221,0.02625 -0.22442,0.0525 -0.33664,0.07875c-0.74521,0.25811 -1.47805,0.47648 -2.06441,0.52301c0.00544,0.00627 0.01004,0.01279 0.01378,0.01957c0.30225,0.54895 -0.43988,0.88979 -0.70999,1.06671c-0.13452,0.08333 -0.27612,0.16141 -0.42391,0.23461c0.02785,0.1028 0.05482,0.20564 0.08092,0.30803c0.5292,-0.29686 1.04894,-0.6127 1.56402,-0.92851c0.33209,-0.24859 0.76052,-0.50102 0.89887,-0.60036c0.32578,-0.23394 0.65157,-0.46788 0.97735,-0.70181zM317.11891,135.84299c1.02458,-0.01591 2.04932,-0.02595 3.07462,-0.02607c0.02857,0 0.06853,-0.0014 0.11772,-0.00372c-0.18791,-0.61012 -0.43498,-1.05381 -0.81927,-1.08834c-0.48487,-0.04357 -1.52146,0.58546 -2.37308,1.11812zM311.89005,137.02918c0.05444,-0.19427 0.1189,-0.38624 0.19206,-0.57563c-0.3205,0.01059 -0.63917,0.02346 -0.95635,0.03856c-0.05812,0.25492 -0.2118,0.53315 -0.40592,0.78928c0.1538,-0.03278 0.30581,-0.06516 0.45576,-0.09729c0.22911,-0.04909 0.46789,-0.10143 0.71445,-0.15492zM311.62994,135.96965c0.22278,-0.00883 0.44637,-0.01656 0.67085,-0.02319c0.11496,-0.2417 0.24275,-0.47855 0.38034,-0.70989c-0.05959,0.03685 -0.11677,0.07342 -0.17034,0.11004c-0.29251,0.1999 -0.58594,0.409 -0.88084,0.62305zM305.6744,136.47511c0.25212,-0.1089 0.5233,-0.22268 0.80016,-0.33218c-2.16677,0.04998 -4.30303,0.19418 -6.50036,0.60866c-1.3793,0.26018 -3.00734,0.73753 -4.65446,1.11469c2.33938,-0.49641 5.2069,-0.57238 6.91476,-0.86841c1.16224,-0.20146 2.30369,-0.37608 3.4399,-0.52276zM289.31743,136.11082c-1.57832,0.42678 -3.20311,0.98868 -4.79996,1.31038c-0.50779,0.18736 -1.07738,0.38861 -1.68304,0.5869c0.29046,-0.06736 0.57941,-0.13975 0.86591,-0.21985c1.88485,-0.52643 3.75205,-1.0914 5.61708,-1.67744zM304.47682,137.54537c0.68222,-0.1113 2.60131,-0.41742 3.68265,-0.84419c-0.74269,0.0693 -1.48281,0.15096 -2.22487,0.2447c-0.68138,0.2774 -1.24962,0.51876 -1.3918,0.57386c-0.02198,0.00852 -0.04398,0.01706 -0.06598,0.02563zM294.97538,138.78403c2.0178,-0.07104 3.95173,-0.29854 5.90656,-0.60787c1.07918,-0.34332 2.1267,-0.64384 2.97387,-0.93776c-0.50868,0.07865 -1.02019,0.16272 -1.53592,0.25212c-2.29905,0.3985 -4.5981,0.797 -6.89715,1.1955c-0.13342,0.02312 -0.28483,0.05809 -0.44736,0.09801zM312.62981,136.4377c-0.06637,0.15508 -0.12664,0.31227 -0.17983,0.47158c0.24718,-0.05196 0.50022,-0.10355 0.7574,-0.15289c0.07565,-0.10921 0.14271,-0.22421 0.20884,-0.3376c-0.23842,0.00575 -0.47685,0.0115 -0.7153,0.01718c-0.02371,0.00056 -0.04742,0.00114 -0.07111,0.00173zM316.28987,136.354c-0.02409,0.01399 -0.0475,0.02741 -0.07015,0.04019c1.32969,-0.02688 2.59914,0.18354 3.5887,0.87053c0.27423,-0.07812 0.53759,-0.16644 0.78584,-0.26661c-0.05146,-0.25524 -0.10465,-0.50731 -0.16302,-0.74546c-0.29627,0.03426 -0.56507,0.06432 -0.73765,0.06434c-1.13498,0.00014 -2.2694,0.0152 -3.40373,0.03701zM320.95207,136.19475c0.063,0.17996 0.12289,0.36561 0.17973,0.55392c0.10269,-0.05489 0.20148,-0.11257 0.29598,-0.17319c0.19166,-0.1143 0.76383,-0.2948 0.55522,-0.37403c-0.19022,-0.07225 -0.59885,-0.05005 -1.03093,-0.0067zM320.48039,138.68695c-0.96845,0.36769 -1.88946,0.64496 -2.60198,0.80159c1.00653,-0.02258 2.01307,-0.04515 3.0196,-0.06773c-0.10562,-0.18568 -0.2104,-0.37184 -0.31414,-0.55857c-0.03337,-0.06007 -0.06788,-0.11849 -0.10348,-0.17529zM339.82349,138.17408c-0.00766,0.00011 -0.01533,0.00023 -0.02299,0.00035c-0.78683,0.01185 -1.57364,0.02369 -2.36047,0.03554c0.29062,0.15452 0.57281,0.31633 0.84392,0.48692c2.08832,0.21489 4.17665,0.42977 6.26497,0.64465c-1.39467,-0.34456 -2.78934,-0.68913 -4.18401,-1.0337c-0.18048,-0.04459 -0.36095,-0.08917 -0.54143,-0.13376zM308.40506,137.73915c0.61725,-0.3639 1.23181,-0.76905 1.83044,-1.19856c-0.33936,0.02081 -0.67735,0.04421 -1.01436,0.07016c-0.59472,0.662 -2.31006,1.04326 -3.5545,1.25601c0.00367,0.0026 0.00563,0.00415 0.00563,0.00415l0.04538,0.12538c0.8958,-0.08572 1.79161,-0.17143 2.68741,-0.25715zM318.02592,137.6304c0.37281,-0.05378 0.7422,-0.11795 1.10013,-0.1957c-1.15909,-0.60828 -2.66112,-0.64047 -4.15076,-0.46476c-0.62193,0.25499 -1.27272,0.47994 -1.93594,0.66912c-0.05586,0.03442 -0.11742,0.0661 -0.18577,0.09453c1.72411,-0.03442 3.44823,-0.06888 5.17235,-0.10319zM314.70387,136.5127c-0.02116,-0.04 -0.04126,-0.08196 -0.06106,-0.1232c-0.23203,0.00541 -0.46407,0.01093 -0.69611,0.0165c-0.07261,0.07866 -0.13242,0.16271 -0.18562,0.24932c0.3111,-0.05363 0.62632,-0.10221 0.94279,-0.14263zM334.13506,136.7687c0.65874,0.25292 1.32187,0.51416 1.96558,0.79722c0.51611,0.02117 1.0276,0.04543 1.52783,0.06586c-1.16447,-0.28769 -2.32893,-0.57539 -3.4934,-0.86308zM335.11091,139.10198c0.60892,-0.01366 1.21783,-0.02732 1.82675,-0.04098c-0.59055,-0.06077 -1.18111,-0.12153 -1.77166,-0.1823c-0.00402,0.08064 -0.02296,0.1549 -0.05509,0.22328zM334.81446,138.24951c0.04712,0.03266 0.09012,0.06716 0.1286,0.10361c0.19704,0.02027 0.39407,0.04055 0.59111,0.06083c-0.11885,-0.05514 -0.23833,-0.11189 -0.35809,-0.16989c-0.12054,0.00181 -0.24107,0.00363 -0.36161,0.00545zM322.85937,137.6718c-0.00977,-0.01159 -0.01938,-0.02309 -0.02884,-0.03449c-0.02117,0.01112 -0.04239,0.0222 -0.06364,0.03325c0.03082,0.00041 0.06165,0.00082 0.09248,0.00123zM320.69097,137.48483c-0.139,0.05297 -0.28175,0.10269 -0.42766,0.1494c0.00106,0.00101 0.00214,0.00203 0.0032,0.00304c0.15205,0.00202 0.30411,0.00404 0.45616,0.00606c-0.0106,-0.05261 -0.02116,-0.10548 -0.0317,-0.1585zM308.92432,136.11716c-0.27153,0.00051 -0.54208,0.00145 -0.81182,0.00315c-0.10661,0.03461 -0.22091,0.07355 -0.34083,0.11583c0.38296,-0.0377 0.76641,-0.07216 1.15095,-0.10331c0.00074,-0.00521 0.00131,-0.01044 0.0017,-0.01567z" fill="#f25d5d" stroke="none" stroke-width="0.5" stroke-linecap="butt"/></g><path d="M264.5,152.75c0,0.41421 -0.33579,0.75 -0.75,0.75c-0.1545,0 -0.29809,-0.04672 -0.41741,-0.12679c0.00049,0.01443 0.00074,0.02891 0.00074,0.04346c0,0.44431 -0.23181,0.83448 -0.58109,1.05615c0.0524,0.13793 0.08109,0.28754 0.08109,0.44385c0,0.69036 -0.55964,1.25 -1.25,1.25c-0.69036,0 -1.25,-0.55964 -1.25,-1.25c0,-0.44431 0.23181,-0.83448 0.58109,-1.05615c-0.0524,-0.13793 -0.08109,-0.28754 -0.08109,-0.44385c0,-0.03422 0.00138,-0.06812 0.00407,-0.10164c-0.08295,0.01206 -0.16778,0.01831 -0.25407,0.01831c-0.89485,0 -1.63283,-0.67164 -1.73733,-1.53832c-0.31847,0.33179 -0.76645,0.53832 -1.26267,0.53832c-0.9665,0 -1.75,-0.7835 -1.75,-1.75c0,-0.9665 0.7835,-1.75 1.75,-1.75c0.89485,0 1.63283,0.67164 1.73733,1.53832c0.31847,-0.33179 0.76645,-0.53832 1.26267,-0.53832c0.63991,0 1.1996,0.34346 1.50478,0.85609c0.19194,-0.12004 0.41881,-0.18942 0.66188,-0.18942c0.69036,0 1.25,0.55964 1.25,1.25c0,0.09704 -0.01106,0.1915 -0.03198,0.28218c0.30788,0.09339 0.53198,0.37943 0.53198,0.71782z" fill="#808384" stroke="none" stroke-width="0.5" stroke-linecap="butt"/><path d="M375.5,154.25c0,-0.15063 0.02664,-0.29503 0.07547,-0.42875c-0.60774,-0.0849 -1.07547,-0.60679 -1.07547,-1.23791c0,-0.37016 0.16089,-0.70273 0.41656,-0.93161c-0.15864,-0.26335 -0.24989,-0.57188 -0.24989,-0.90172c0,-0.9665 0.7835,-1.75 1.75,-1.75c0.85049,0 1.55928,0.6067 1.71718,1.41093c0.26357,-0.63277 0.88791,-1.07759 1.61616,-1.07759c0.42551,0 0.81555,0.15186 1.11887,0.40435c0.25878,-0.1511 0.55984,-0.23768 0.88113,-0.23768c0.9665,0 1.75,0.7835 1.75,1.75c0,0.9665 -0.7835,1.75 -1.75,1.75c-0.42551,0 -0.81555,-0.15186 -1.11887,-0.40435c-0.25878,0.1511 -0.55984,0.23768 -0.88113,0.23768c-0.14908,0 -0.29382,-0.01864 -0.43199,-0.05372c-0.09417,0.59711 -0.6111,1.05372 -1.23468,1.05372c-0.05352,0 -0.10625,-0.00336 -0.158,-0.00989c0.04832,0.13311 0.07467,0.27676 0.07467,0.42656c0,0.69036 -0.55964,1.25 -1.25,1.25c-0.69036,0 -1.25,-0.55964 -1.25,-1.25z" fill="#808384" stroke="none" stroke-width="0.5" stroke-linecap="butt"/><path d="M369.5,154.75c0,-0.23833 0.11117,-0.4507 0.28448,-0.58808c-0.28616,-0.16809 -0.4995,-0.4468 -0.58129,-0.77738c-0.27425,0.17845 -0.60161,0.28213 -0.9532,0.28213c-0.9665,0 -1.75,-0.7835 -1.75,-1.75c0,-0.9665 0.7835,-1.75 1.75,-1.75c0.96243,0 1.7434,0.77692 1.74996,1.73781c0.10625,-0.03756 0.21909,-0.06116 0.33633,-0.0686c-0.10874,-0.22796 -0.16962,-0.48314 -0.16962,-0.75254c0,-0.9665 0.7835,-1.75 1.75,-1.75c0.9665,0 1.75,0.7835 1.75,1.75c0,0.19905 -0.03323,0.39035 -0.09446,0.56863c0.1637,0.21138 0.26112,0.47666 0.26112,0.7647c0,0.69036 -0.55964,1.25 -1.25,1.25c-0.36832,0 -0.69944,-0.1593 -0.92821,-0.41277c-0.06448,0.47262 -0.39314,0.86116 -0.83229,1.01197c0.11053,0.13064 0.17717,0.29961 0.17717,0.48414c0,0.41421 -0.33579,0.75 -0.75,0.75c-0.41421,0 -0.75,-0.33579 -0.75,-0.75z" fill="#808384" stroke="none" stroke-width="0.5" stroke-linecap="butt"/><path d="M322.66667,155.41667c0,-0.27344 0.14634,-0.51271 0.36497,-0.64376c-0.38232,-0.12366 -0.68405,-0.42651 -0.80615,-0.80953c-0.27554,-0.05725 -0.52733,-0.17929 -0.73873,-0.34948c-0.22757,0.23792 -0.54819,0.3861 -0.90342,0.3861c-0.22831,0 -0.44232,-0.06121 -0.62652,-0.16811c0.02796,0.0786 0.04319,0.16324 0.04319,0.25144c0,0.41421 -0.33579,0.75 -0.75,0.75c-0.41421,0 -0.75,-0.33579 -0.75,-0.75c0,-0.41421 0.33579,-0.75 0.75,-0.75c0.0882,0 0.17284,0.01522 0.25144,0.04319c-0.065,-0.11201 -0.11311,-0.23503 -0.14084,-0.36559c-0.6059,-0.27511 -1.02727,-0.88548 -1.02727,-1.59426c0,-0.9665 0.7835,-1.75 1.75,-1.75c0.7267,0 1.34995,0.44295 1.61448,1.07358c0.25976,-0.15269 0.56241,-0.24025 0.88552,-0.24025c0.9665,0 1.75,0.7835 1.75,1.75c0,0.14822 -0.01843,0.29213 -0.05311,0.42957c0.23812,0.22759 0.38645,0.54835 0.38645,0.90376c0,0.55601 -0.36302,1.02723 -0.86497,1.18958c0.21863,0.13105 0.36497,0.37031 0.36497,0.64376c0,0.41421 -0.33579,0.75 -0.75,0.75c-0.41421,0 -0.75,-0.33579 -0.75,-0.75z" fill="#808384" stroke="none" stroke-width="0.5" stroke-linecap="butt"/><path d="M310.33333,151.58333c0,-0.9665 0.7835,-1.75 1.75,-1.75c0.9665,0 1.75,0.7835 1.75,1.75c0,0.9665 -0.7835,1.75 -1.75,1.75c-0.9665,0 -1.75,-0.7835 -1.75,-1.75z" fill="#808384" stroke="none" stroke-width="0.5" stroke-linecap="butt"/><path d="M268.5,153.08333c0,0.69036 -0.55964,1.25 -1.25,1.25c-0.43036,0 -0.80993,-0.21749 -1.03478,-0.54855c-0.07861,-0.05339 -0.15081,-0.1155 -0.21522,-0.18494c-0.20686,-0.22302 -0.33333,-0.52166 -0.33333,-0.84984c0,-0.69036 0.55964,-1.25 1.25,-1.25c0.43036,0 0.80993,0.21749 1.03478,0.54855c0.33106,0.22485 0.54855,0.60442 0.54855,1.03478z" fill="#808384" stroke="none" stroke-width="0.5" stroke-linecap="butt"/><path d="M314.66667,152.75c0,-0.01388 0.00023,-0.0277 0.00067,-0.04147c-0.10643,-0.1839 -0.16734,-0.39744 -0.16734,-0.6252c0,-0.69036 0.55964,-1.25 1.25,-1.25c0.69036,0 1.25,0.55964 1.25,1.25c0,0.01388 -0.00023,0.0277 -0.00067,0.04147c0.10643,0.1839 0.16734,0.39744 0.16734,0.6252c0,0.69036 -0.55964,1.25 -1.25,1.25c-0.69036,0 -1.25,-0.55964 -1.25,-1.25z" fill="#808384" stroke="none" stroke-width="0.5" stroke-linecap="butt"/><path d="M315.83333,155.25c0,-0.69036 0.55964,-1.25 1.25,-1.25c0.69036,0 1.25,0.55964 1.25,1.25c0,0.69036 -0.55964,1.25 -1.25,1.25c-0.69036,0 -1.25,-0.55964 -1.25,-1.25z" fill="#808384" stroke="none" stroke-width="0.5" stroke-linecap="butt"/><path d="M257.5,154.91667c0,-0.41421 0.33579,-0.75 0.75,-0.75c0.41421,0 0.75,0.33579 0.75,0.75c0,0.41421 -0.33579,0.75 -0.75,0.75c-0.41421,0 -0.75,-0.33579 -0.75,-0.75z" fill="#808384" stroke="none" stroke-width="0.5" stroke-linecap="butt"/><path d="M265.5,155.91667c0,-0.41421 0.33579,-0.75 0.75,-0.75c0.41421,0 0.75,0.33579 0.75,0.75c0,0.41421 -0.33579,0.75 -0.75,0.75c-0.41421,0 -0.75,-0.33579 -0.75,-0.75z" fill="#808384" stroke="none" stroke-width="0.5" stroke-linecap="butt"/><path d="M310.83333,154.91667c0,-0.41421 0.33579,-0.75 0.75,-0.75c0.41421,0 0.75,0.33579 0.75,0.75c0,0.41421 -0.33579,0.75 -0.75,0.75c-0.41421,0 -0.75,-0.33579 -0.75,-0.75z" fill="#808384" stroke="none" stroke-width="0.5" stroke-linecap="butt"/><path d="M314,157.08333c0,-0.41421 0.33579,-0.75 0.75,-0.75c0.41421,0 0.75,0.33579 0.75,0.75c0,0.41421 -0.33579,0.75 -0.75,0.75c-0.41421,0 -0.75,-0.33579 -0.75,-0.75z" fill="#808384" stroke="none" stroke-width="0.5" stroke-linecap="butt"/><path d="M375.5,156.25c0,-0.41421 0.33579,-0.75 0.75,-0.75c0.41421,0 0.75,0.33579 0.75,0.75c0,0.41421 -0.33579,0.75 -0.75,0.75c-0.41421,0 -0.75,-0.33579 -0.75,-0.75z" fill="#808384" stroke="none" stroke-width="0.5" stroke-linecap="butt"/><path d="M380.16667,157.58333c0,-0.41421 0.33579,-0.75 0.75,-0.75c0.41421,0 0.75,0.33579 0.75,0.75c0,0.41421 -0.33579,0.75 -0.75,0.75c-0.41421,0 -0.75,-0.33579 -0.75,-0.75z" fill="#808384" stroke="none" stroke-width="0.5" stroke-linecap="butt"/><path d="M260.5,162.58333c0,-0.17573 0.03626,-0.343 0.10172,-0.49472c-0.16381,0.05073 -0.33791,0.07805 -0.51838,0.07805c-0.9665,0 -1.75,-0.7835 -1.75,-1.75c0,-0.9665 0.7835,-1.75 1.75,-1.75c0.8929,0 1.62962,0.66872 1.73664,1.53266c0.27393,-0.60879 0.88581,-1.03266 1.5967,-1.03266c0.58797,0 1.10821,0.28997 1.42553,0.7347c0.12781,-0.04409 0.26501,-0.06803 0.4078,-0.06803c0.69036,0 1.25,0.55964 1.25,1.25c0,0.69036 -0.55964,1.25 -1.25,1.25c-0.22327,0 -0.43287,-0.05854 -0.61429,-0.1611c-0.31513,0.30602 -0.74508,0.49444 -1.21904,0.49444c-0.14374,0 -0.28343,-0.01733 -0.4171,-0.05001c-0.01766,0.67495 -0.57035,1.21668 -1.24956,1.21668c-0.69036,0 -1.25,-0.55964 -1.25,-1.25zM261.68003,161.134c-0.0332,0.07379 -0.07137,0.14486 -0.11407,0.21278c0.04936,-0.00728 0.09966,-0.01168 0.15072,-0.01302c-0.01595,-0.06523 -0.02824,-0.1319 -0.03665,-0.19976z" fill="#949797" stroke="none" stroke-width="0.5" stroke-linecap="butt"/><path d="M377.83333,162.91667c0,0.69036 -0.55964,1.25 -1.25,1.25c-0.24815,0 -0.47941,-0.07231 -0.67386,-0.197c-0.10567,0.01992 -0.21469,0.03034 -0.32614,0.03034c-0.51089,0 -0.97065,-0.21893 -1.29058,-0.56808c-0.25765,0.14929 -0.55689,0.23475 -0.87608,0.23475c-0.9665,0 -1.75,-0.7835 -1.75,-1.75c0,-0.9665 0.7835,-1.75 1.75,-1.75c0.51089,0 0.97065,0.21893 1.29058,0.56808c0.25765,-0.14929 0.55689,-0.23475 0.87608,-0.23475c0.84301,0 1.54679,0.59607 1.71288,1.38974c0.02563,0.01782 0.05056,0.03658 0.07474,0.05623c-0.02465,-0.117 -0.03762,-0.2383 -0.03762,-0.36263c0,-0.9665 0.7835,-1.75 1.75,-1.75c0.9665,0 1.75,0.7835 1.75,1.75c0,0.9665 -0.7835,1.75 -1.75,1.75c-0.49231,0 -0.93713,-0.20329 -1.25511,-0.53049c0.00338,0.03749 0.00511,0.07546 0.00511,0.11383z" fill="#949797" stroke="none" stroke-width="0.5" stroke-linecap="butt"/><path d="M368.08333,164c-0.13279,0 -0.26075,-0.02071 -0.38082,-0.05907c-0.14434,0.03853 -0.29603,0.05907 -0.45251,0.05907c-0.9665,0 -1.75,-0.7835 -1.75,-1.75c0,-0.9665 0.7835,-1.75 1.75,-1.75c0.49626,0 0.94427,0.20656 1.26275,0.5384c0.31903,-0.42794 0.82911,-0.70507 1.40392,-0.70507c0.9665,0 1.75,0.7835 1.75,1.75c0,0.9665 -0.7835,1.75 -1.75,1.75c-0.32984,0 -0.63837,-0.09125 -0.90172,-0.24989c-0.22888,0.25567 -0.56146,0.41656 -0.93161,0.41656z" fill="#949797" stroke="none" stroke-width="0.5" stroke-linecap="butt"/><path d="M331.91667,160.5c0.69036,0 1.25,0.55964 1.25,1.25c0,0.69036 -0.55964,1.25 -1.25,1.25c-0.53183,0 -0.98609,-0.33214 -1.16667,-0.8003c-0.18058,0.46816 -0.63483,0.8003 -1.16667,0.8003c-0.07353,0 -0.14559,-0.00635 -0.21564,-0.01853c-0.23593,0.11849 -0.50236,0.1852 -0.78436,0.1852c-0.83171,0 -1.5279,-0.5802 -1.70591,-1.35794c-0.09562,0.01618 -0.19387,0.0246 -0.29409,0.0246c-0.14584,0 -0.28751,-0.01784 -0.42295,-0.05145c0.10989,0.18605 0.17295,0.40306 0.17295,0.63479c0,0.69036 -0.55964,1.25 -1.25,1.25c-0.63832,0 -1.16489,-0.47846 -1.24064,-1.0963c-0.5472,-0.1899 -0.971,-0.64373 -1.11906,-1.20915c-0.16291,0.43701 -0.49546,0.79138 -0.91757,0.98304c-0.12,0.56511 -0.62185,0.98907 -1.22273,0.98907c-0.69036,0 -1.25,-0.55964 -1.25,-1.25c0,-0.22044 0.05706,-0.42755 0.15722,-0.60736c-0.10096,-0.22115 -0.15722,-0.46699 -0.15722,-0.72597c0,-0.9665 0.7835,-1.75 1.75,-1.75c0.81289,0 1.49633,0.55424 1.69304,1.30545c0.01714,-0.04598 0.03616,-0.09105 0.05696,-0.13511c0.28011,-0.59322 0.88379,-1.00368 1.58333,-1.00368c0.21569,0 0.42227,0.03902 0.61306,0.11039c0.2916,-0.56074 0.87788,-0.94372 1.5536,-0.94372c0.83171,0 1.5279,0.5802 1.70591,1.35794c0.09562,-0.01618 0.19387,-0.0246 0.29409,-0.0246c0.68571,0 1.2793,0.39438 1.56633,0.96869c0.27353,0.13925 0.48898,0.37623 0.60034,0.66495c0.18058,-0.46816 0.63483,-0.8003 1.16667,-0.8003z" fill="#949797" stroke="none" stroke-width="0.5" stroke-linecap="butt"/><path d="M317.5,162.75c0,0.69036 -0.55964,1.25 -1.25,1.25c-0.60992,0 -1.11782,-0.43683 -1.22789,-1.0147c-0.85883,-0.11169 -1.52211,-0.84603 -1.52211,-1.7353c0,-0.9665 0.7835,-1.75 1.75,-1.75c0.9665,0 1.75,0.7835 1.75,1.75c0,0.15821 -0.021,0.31153 -0.06035,0.4573c0.33769,0.2238 0.56035,0.60725 0.56035,1.0427z" fill="#949797" stroke="none" stroke-width="0.5" stroke-linecap="butt"/><path d="M311,162.41667c0,-0.69036 0.55964,-1.25 1.25,-1.25c0.69036,0 1.25,0.55964 1.25,1.25c0,0.69036 -0.55964,1.25 -1.25,1.25c-0.69036,0 -1.25,-0.55964 -1.25,-1.25z" fill="#949797" stroke="none" stroke-width="0.5" stroke-linecap="butt"/><path d="M319.66667,164.58333c0,-0.69036 0.55964,-1.25 1.25,-1.25c0.69036,0 1.25,0.55964 1.25,1.25c0,0.69036 -0.55964,1.25 -1.25,1.25c-0.69036,0 -1.25,-0.55964 -1.25,-1.25z" fill="#949797" stroke="none" stroke-width="0.5" stroke-linecap="butt"/><path d="M326.66667,165.41667c0,-0.69036 0.55964,-1.25 1.25,-1.25c0.69036,0 1.25,0.55964 1.25,1.25c0,0.69036 -0.55964,1.25 -1.25,1.25c-0.69036,0 -1.25,-0.55964 -1.25,-1.25z" fill="#949797" stroke="none" stroke-width="0.5" stroke-linecap="butt"/><path d="M365.66667,166.08333c0,-0.69036 0.55964,-1.25 1.25,-1.25c0.69036,0 1.25,0.55964 1.25,1.25c0,0.69036 -0.55964,1.25 -1.25,1.25c-0.69036,0 -1.25,-0.55964 -1.25,-1.25z" fill="#949797" stroke="none" stroke-width="0.5" stroke-linecap="butt"/><path d="M360.33333,163.75c0,-0.15412 0.04649,-0.29738 0.12621,-0.41653c-0.28224,-0.16285 -0.49489,-0.43281 -0.58242,-0.75434c-0.1425,0.05649 -0.29785,0.08754 -0.46045,0.08754c-0.69036,0 -1.25,-0.55964 -1.25,-1.25c0,-0.69036 0.55964,-1.25 1.25,-1.25c0.57645,0 1.06176,0.39019 1.20622,0.92087c0.1425,-0.05649 0.29785,-0.08754 0.46045,-0.08754c0.32808,0 0.62664,0.1264 0.84964,0.33315c0.24029,-0.6796 0.88846,-1.16648 1.65036,-1.16648c0.9665,0 1.75,0.7835 1.75,1.75c0,0.9665 -0.7835,1.75 -1.75,1.75c-0.5967,0 -1.12365,-0.29864 -1.43953,-0.75461c-0.10869,0.17372 -0.25887,0.31882 -0.43667,0.42141c0.07972,0.11915 0.12621,0.26241 0.12621,0.41653c0,0.41421 -0.33579,0.75 -0.75,0.75c-0.41421,0 -0.75,-0.33579 -0.75,-0.75z" fill="#949797" stroke="none" stroke-width="0.5" stroke-linecap="butt"/><path d="M263.66667,165.08333c0,-0.41421 0.33579,-0.75 0.75,-0.75c0.41421,0 0.75,0.33579 0.75,0.75c0,0.41421 -0.33579,0.75 -0.75,0.75c-0.41421,0 -0.75,-0.33579 -0.75,-0.75z" fill="#949797" stroke="none" stroke-width="0.5" stroke-linecap="butt"/><path d="M320.5,166.91667c0,-0.41421 0.33579,-0.75 0.75,-0.75c0.41421,0 0.75,0.33579 0.75,0.75c0,0.41421 -0.33579,0.75 -0.75,0.75c-0.41421,0 -0.75,-0.33579 -0.75,-0.75z" fill="#949797" stroke="none" stroke-width="0.5" stroke-linecap="butt"/><path d="M359.33333,166.58333c0,-0.41421 0.33579,-0.75 0.75,-0.75c0.41421,0 0.75,0.33579 0.75,0.75c0,0.41421 -0.33579,0.75 -0.75,0.75c-0.41421,0 -0.75,-0.33579 -0.75,-0.75z" fill="#949797" stroke="none" stroke-width="0.5" stroke-linecap="butt"/><path d="M264.33333,171.75c0,-0.27564 0.08922,-0.53045 0.24036,-0.73711c-0.06013,-0.04254 -0.11746,-0.08879 -0.17165,-0.1384c-0.20151,0.08096 -0.42157,0.12551 -0.65204,0.12551c-0.9665,0 -1.75,-0.7835 -1.75,-1.75c0,-0.9665 0.7835,-1.75 1.75,-1.75c0.4553,0 0.86999,0.17387 1.18129,0.45884c0.20151,-0.08096 0.42157,-0.12551 0.65204,-0.12551c0.9665,0 1.75,0.7835 1.75,1.75c0,0.59046 -0.29243,1.11262 -0.74036,1.42955c0.15114,0.20666 0.24036,0.46147 0.24036,0.73711c0,0.69036 -0.55964,1.25 -1.25,1.25c-0.69036,0 -1.25,-0.55964 -1.25,-1.25z" fill="#b0b4b5" stroke="none" stroke-width="0.5" stroke-linecap="butt"/><path d="M318.25,168c0.07814,0 0.15461,0.00717 0.22879,0.02089c0.08839,-0.01375 0.17897,-0.02089 0.27121,-0.02089c0.9665,0 1.75,0.7835 1.75,1.75c0,0.9665 -0.7835,1.75 -1.75,1.75c-0.95737,0 -1.73519,-0.76878 -1.74979,-1.72267c-0.31808,0.43793 -0.83422,0.72267 -1.41688,0.72267c-0.9665,0 -1.75,-0.7835 -1.75,-1.75c0,-0.9665 0.7835,-1.75 1.75,-1.75c0.858,0 1.57178,0.61746 1.72123,1.43226c0.2292,-0.26476 0.56776,-0.43226 0.94544,-0.43226z" fill="#b0b4b5" stroke="none" stroke-width="0.5" stroke-linecap="butt"/><path d="M323.33333,168.58333c0,-0.9665 0.7835,-1.75 1.75,-1.75c0.9665,0 1.75,0.7835 1.75,1.75c0,0.9665 -0.7835,1.75 -1.75,1.75c-0.9665,0 -1.75,-0.7835 -1.75,-1.75z" fill="#b0b4b5" stroke="none" stroke-width="0.5" stroke-linecap="butt"/><path d="M335.5,170.91667c0,-0.63644 0.47565,-1.16179 1.09086,-1.23997c-0.16153,-0.21061 -0.25753,-0.47411 -0.25753,-0.76003c0,-0.69036 0.55964,-1.25 1.25,-1.25c0.04388,0 0.08722,0.00226 0.12993,0.00667c0.29018,-0.21372 0.64871,-0.34 1.03673,-0.34c0.70153,0 1.30665,0.41279 1.58571,1.00874c-0.00158,-0.03049 -0.00238,-0.06119 -0.00238,-0.09207c0,-0.9665 0.7835,-1.75 1.75,-1.75c0.9665,0 1.75,0.7835 1.75,1.75c0,0.9665 -0.7835,1.75 -1.75,1.75c-0.70153,0 -1.30665,-0.41279 -1.58571,-1.00874c0.00158,0.03049 0.00238,0.06119 0.00238,0.09207c0,0.9665 -0.7835,1.75 -1.75,1.75c-0.27957,0 -0.54383,-0.06556 -0.77825,-0.18214c0.0185,0.08556 0.02825,0.17438 0.02825,0.26547c0,0.69036 -0.55964,1.25 -1.25,1.25c-0.69036,0 -1.25,-0.55964 -1.25,-1.25z" fill="#b0b4b5" stroke="none" stroke-width="0.5" stroke-linecap="butt"/><path d="M356.5,170.08333c0,-0.9665 0.7835,-1.75 1.75,-1.75c0.7009,0 1.30557,0.41205 1.58496,1.00714c0.03989,-0.93115 0.8074,-1.6738 1.74837,-1.6738c0.9665,0 1.75,0.7835 1.75,1.75c0,0.9665 -0.7835,1.75 -1.75,1.75c-0.7009,0 -1.30557,-0.41205 -1.58496,-1.00714c-0.03989,0.93115 -0.8074,1.6738 -1.74837,1.6738c-0.9665,0 -1.75,-0.7835 -1.75,-1.75z" fill="#b0b4b5" stroke="none" stroke-width="0.5" stroke-linecap="butt"/><path d="M366.33333,169.91667c0,-0.9665 0.7835,-1.75 1.75,-1.75c0.26869,0 0.52324,0.06056 0.75075,0.16876c0.28044,-0.59237 0.88366,-1.0021 1.58259,-1.0021c0.9665,0 1.75,0.7835 1.75,1.75c0,0.9665 -0.7835,1.75 -1.75,1.75c-0.26869,0 -0.52324,-0.06056 -0.75075,-0.16876c-0.28044,0.59237 -0.88366,1.0021 -1.58259,1.0021c-0.9665,0 -1.75,-0.7835 -1.75,-1.75z" fill="#b0b4b5" stroke="none" stroke-width="0.5" stroke-linecap="butt"/><path d="M374.16667,168.91667c0,-0.9665 0.7835,-1.75 1.75,-1.75c0.9665,0 1.75,0.7835 1.75,1.75c0,0.9665 -0.7835,1.75 -1.75,1.75c-0.9665,0 -1.75,-0.7835 -1.75,-1.75z" fill="#b0b4b5" stroke="none" stroke-width="0.5" stroke-linecap="butt"/><path d="M349.25,167.5c0.69036,0 1.25,0.55964 1.25,1.25c0,0.09177 -0.00989,0.18124 -0.02866,0.26738c0.22702,0.29517 0.362,0.66479 0.362,1.06595c0,0.9665 -0.7835,1.75 -1.75,1.75c-0.9665,0 -1.75,-0.7835 -1.75,-1.75c0,-0.55774 0.26092,-1.05454 0.66735,-1.375c0.02198,-0.67107 0.57291,-1.20834 1.24932,-1.20834z" fill="#b0b4b5" stroke="none" stroke-width="0.5" stroke-linecap="butt"/><path d="M327.66667,169.08333c0,-0.9665 0.7835,-1.75 1.75,-1.75c0.9665,0 1.75,0.7835 1.75,1.75c0,0.9665 -0.7835,1.75 -1.75,1.75c-0.9665,0 -1.75,-0.7835 -1.75,-1.75z" fill="#b0b4b5" stroke="none" stroke-width="0.5" stroke-linecap="butt"/><path d="M311.58333,171.5c0.41421,0 0.75,0.33579 0.75,0.75c0,0.41421 -0.33579,0.75 -0.75,0.75c-0.27612,0 -0.51739,-0.14921 -0.64757,-0.3714c-0.19689,0.12943 -0.43253,0.20474 -0.68576,0.20474c-0.69036,0 -1.25,-0.55964 -1.25,-1.25c0,-0.57201 0.38422,-1.05428 0.90865,-1.20282c-0.35336,-0.32019 -0.57532,-0.78276 -0.57532,-1.29718c0,-0.9665 0.7835,-1.75 1.75,-1.75c0.9665,0 1.75,0.7835 1.75,1.75c0,0.91215 -0.69786,1.6613 -1.58879,1.74267c0.14544,0.1907 0.23727,0.42447 0.25303,0.67884c0.02814,-0.0032 0.05676,-0.00485 0.08576,-0.00485z" fill="#b0b4b5" stroke="none" stroke-width="0.5" stroke-linecap="butt"/><path d="M371.33333,171.41667c0,-0.69036 0.55964,-1.25 1.25,-1.25c0.69036,0 1.25,0.55964 1.25,1.25c0,0.69036 -0.55964,1.25 -1.25,1.25c-0.69036,0 -1.25,-0.55964 -1.25,-1.25z" fill="#b0b4b5" stroke="none" stroke-width="0.5" stroke-linecap="butt"/><path d="M323.33333,172.08333c0,-0.69036 0.55964,-1.25 1.25,-1.25c0.69036,0 1.25,0.55964 1.25,1.25c0,0.69036 -0.55964,1.25 -1.25,1.25c-0.69036,0 -1.25,-0.55964 -1.25,-1.25z" fill="#b0b4b5" stroke="none" stroke-width="0.5" stroke-linecap="butt"/><path d="M370.33333,175.08333c0,-0.41421 0.33579,-0.75 0.75,-0.75c0.41421,0 0.75,0.33579 0.75,0.75c0,0.41421 -0.33579,0.75 -0.75,0.75c-0.41421,0 -0.75,-0.33579 -0.75,-0.75z" fill="#b0b4b5" stroke="none" stroke-width="0.5" stroke-linecap="butt"/><path d="M360.5,174.08333c0,-0.41421 0.33579,-0.75 0.75,-0.75c0.41421,0 0.75,0.33579 0.75,0.75c0,0.41421 -0.33579,0.75 -0.75,0.75c-0.41421,0 -0.75,-0.33579 -0.75,-0.75z" fill="#b0b4b5" stroke="none" stroke-width="0.5" stroke-linecap="butt"/><path d="M346.83333,172.25c0,-0.41421 0.33579,-0.75 0.75,-0.75c0.41421,0 0.75,0.33579 0.75,0.75c0,0.41421 -0.33579,0.75 -0.75,0.75c-0.41421,0 -0.75,-0.33579 -0.75,-0.75z" fill="#b0b4b5" stroke="none" stroke-width="0.5" stroke-linecap="butt"/><path d="M329.16667,175.25c0,-0.41421 0.33579,-0.75 0.75,-0.75c0.41421,0 0.75,0.33579 0.75,0.75c0,0.41421 -0.33579,0.75 -0.75,0.75c-0.41421,0 -0.75,-0.33579 -0.75,-0.75z" fill="#b0b4b5" stroke="none" stroke-width="0.5" stroke-linecap="butt"/><path d="M318,173.41667c0,-0.41421 0.33579,-0.75 0.75,-0.75c0.41421,0 0.75,0.33579 0.75,0.75c0,0.41421 -0.33579,0.75 -0.75,0.75c-0.41421,0 -0.75,-0.33579 -0.75,-0.75z" fill="#b0b4b5" stroke="none" stroke-width="0.5" stroke-linecap="butt"/><path d="M267.66667,174.58333c0,-0.41421 0.33579,-0.75 0.75,-0.75c0.41421,0 0.75,0.33579 0.75,0.75c0,0.41421 -0.33579,0.75 -0.75,0.75c-0.41421,0 -0.75,-0.33579 -0.75,-0.75z" fill="#b0b4b5" stroke="none" stroke-width="0.5" stroke-linecap="butt"/></g><path d="" fill="none" stroke="#000000" stroke-width="2" stroke-linecap="round"/><g stroke="#000000" stroke-width="0" stroke-linecap="butt"><path d="M401.55309,134.7096c0,0.04814 -163.10618,0.05607 -163.10618,0c0,-6.65305 36.51256,-12.0464 81.55309,-12.0464c45.04053,0 81.55309,5.39336 81.55309,12.0464z" fill="#cad6d8"/><path d="M276.04492,144.82137c-4.46784,-0.41963 -12.83571,-1.54663 -12.83571,-1.54663c0,0 35.45188,-7.67447 46.16224,-11.08976c8.05192,-2.56758 13.69251,-9.48661 13.69251,-9.48661c0,0 14.88372,0.41458 19.11397,0.57322c2.07658,0.07787 4.64393,0.32362 4.64393,0.32362c0,0 -22.03183,6.63619 -31.41046,10.07418c-9.09758,3.33496 -24.04382,12.14639 -24.04382,12.14639c0,0 -10.77379,-0.56717 -15.32266,-0.99441z" fill="#faffff"/></g><g stroke-width="0.5"><path d="M306.69272,199.79608c0,0 -1.08019,-6.0062 1.52909,-6.89959c2.60929,-0.89338 14.44254,-3.82352 23.26445,-1.58934c8.8219,2.23418 1.10386,7.76071 1.10386,7.76071c0,0 -8.18861,0.8566 -12.37641,0.97436c-4.43093,0.12459 -13.52099,-0.24614 -13.52099,-0.24614z" fill="#000000" stroke="#000000" stroke-linecap="round"/><path d="M308.70379,198.36959l-0.78847,-2.5231c0,0 8.28622,1.57314 12.29222,1.49355c3.9298,-0.07808 11.51959,-1.96664 11.51959,-1.96664l-0.78847,2.52311c0,0 -6.91983,1.41108 -10.57072,1.48821c-3.80678,0.08042 -11.66417,-1.01513 -11.66417,-1.01513z" fill="#ffffff" stroke="#000000" stroke-linecap="round"/><path d="M330.72372,214.94429c-0.53033,-0.53033 0,-1.06066 0,-1.06066l0.09604,0.19289c0.0695,-2.3629 0.13899,-4.7258 0.20849,-7.08869c0.05819,-1.97835 0.06024,-3.97032 0.14004,-5.95206c-0.0736,0.02646 -0.14943,0.04957 -0.22684,0.06924c-0.11591,0.21021 -0.23252,0.42194 -0.35905,0.63352l0.3686,0.4625c0,0 0.38587,0.64312 -0.25725,1.02899c-0.64312,0.38587 -1.02899,-0.25725 -1.02899,-0.25725l-0.57757,-1.11444c0.08085,-0.24665 0.16219,-0.48178 0.2476,-0.70865c-1.61203,0.41613 -4.39574,-0.02051 -5.80776,-0.02051l-0.66244,-0.5251c-0.10177,-0.06719 -0.19655,-0.14198 -0.28372,-0.2249c0.18085,-0.17202 0.35006,-0.30434 0.51269,-0.4064l0.43347,-0.3436c0.18995,0 0.40461,0.00194 0.63654,0.00518c0.0108,-0.0009 0.02162,-0.00176 0.03246,-0.00258c-0.05732,-0.66681 0.62695,-0.78086 0.62695,-0.78086c2.3654,-0.39105 4.32695,-1.05205 6.36058,-2.26874c0.41887,-0.2506 1.67018,-1.0965 2.16531,-0.8675c0.53477,0.24733 1.04597,0.85902 1.01461,1.44738c-0.03149,0.59076 -1.01329,0.62636 -1.49056,1.00329l1.33158,0.53286c-0.60216,0.42387 -1.20473,0.86753 -1.85921,1.20324c-0.22303,2.21463 0.23591,5.30739 0.18229,7.13047c-0.0695,2.3629 -0.13899,4.7258 -0.20849,7.08869l-0.53473,0.82367c0,0 -0.53033,0.53033 -1.06066,0zM331.35493,198.17915c-0.10145,0.06811 -0.20044,0.13398 -0.29422,0.19592c0.09068,-0.01937 0.18134,-0.03865 0.27198,-0.05784c0.00668,-0.04622 0.01406,-0.09231 0.02224,-0.13808z" fill="#f25d5d" stroke="none" stroke-linecap="butt"/></g><path d="M318.50753,136.61613v-86.50472l-6.60953,-4.93184c0,0 5.37613,2.76173 8.0234,2.76173c2.75014,0 8.18061,-2.76173 8.18061,-2.76173l-6.60953,4.93184v86.66241z" fill="#9ea2a2" stroke="#000000" stroke-width="0" stroke-linecap="butt"/><g stroke="#000000" stroke-width="0" stroke-linecap="butt"><path d="M346.73112,166.82856c-12.96801,0 -23.48065,-10.51265 -23.48065,-23.48066c0,-0.66152 -0.42926,-0.88654 -0.69715,-1.25393c-0.93939,-1.2883 -2.71861,-1.50314 -1.93021,-3.54469c1.758,-4.55227 51.54487,-5.65644 53.18316,-1.42308c0.28859,0.74574 -0.49421,1.71054 -0.72497,2.38446c-0.31965,0.9335 -0.26914,1.53854 -1.02035,2.28862c-0.61759,0.61666 -1.84917,0.58336 -1.84917,1.54862c0,12.96801 -10.51265,23.48066 -23.48066,23.48066z" fill="url(#color-1)"/><path d="M358.7188,146.48344c0,5.29498 -4.29241,9.5874 -9.58739,9.5874c-5.29497,0 -9.5874,-4.29243 -9.5874,-9.5874c0,-5.29498 4.29243,-9.5874 9.5874,-9.5874c5.29497,0 9.58739,4.29243 9.58739,9.5874z" fill="#000000"/></g><g stroke="#000000" stroke-width="0" stroke-linecap="butt"><path d="M268.99652,170.28822c-5.00973,-7.76919 -4.85359,-17.38482 -0.40282,-24.81212c0.57894,-0.96612 -1.50811,-2.51127 3.7317,-3.79371c8.68978,-2.12682 27.02892,-3.5311 33.86251,-0.37351c1.80585,0.83443 1.28159,1.98743 2.27617,3.52986c7.02768,10.89867 3.88964,25.43084 -7.00903,32.45852c-10.89867,7.02768 -25.43084,3.88963 -32.45853,-7.00904z" fill="url(#color-2)"/><path d="M274.45235,171.51078c-4.49777,-6.97525 -2.4894,-16.27598 4.48584,-20.77375c6.97524,-4.49778 16.27598,-2.4894 20.77376,4.48587c4.49777,6.97525 2.48941,16.27599 -4.48585,20.77376c-6.97524,4.49778 -16.27597,2.48939 -20.77375,-4.48588z" fill="#000000"/></g><g stroke="#000000" stroke-width="0" stroke-linecap="butt"><path d="M401.55309,134.59532c0,6.65305 -36.51256,12.0464 -81.55309,12.0464c-45.04052,0 -81.55309,-5.39336 -81.55309,-12.0464c0,-0.42686 163.10618,-0.40498 163.10618,0z" fill="#cad6d8"/><path d="M276.04492,144.70709c-4.46784,-0.41963 -12.83571,-1.54663 -12.83571,-1.54663c0,0 35.45188,-7.67447 46.16224,-11.08976c0.54222,-0.1729 6.5489,1.29784 6.03995,1.48441c-9.09758,3.33496 -24.04382,12.14639 -24.04382,12.14639c0,0 -10.77379,-0.56717 -15.32266,-0.99441z" fill="#faffff"/></g></g></g></svg>