<svg version="1.1" xmlns="http://www.w3.org/2000/svg" xmlns:xlink="http://www.w3.org/1999/xlink" width="213.18203" height="280.18476" viewBox="0,0,213.18203,280.18476"><defs><linearGradient x1="295.06569" y1="126.09492" x2="292.98743" y2="173.01023" gradientUnits="userSpaceOnUse" id="color-1"><stop offset="0" stop-color="#ffffff"/><stop offset="1" stop-color="#5d5d5d"/></linearGradient><linearGradient x1="349.27099" y1="128.49613" x2="347.19274" y2="175.41142" gradientUnits="userSpaceOnUse" id="color-2"><stop offset="0" stop-color="#ffffff"/><stop offset="1" stop-color="#5d5d5d"/></linearGradient></defs><g transform="translate(-214.52362,-38.88751)"><g stroke-miterlimit="10"><path d="M272.11014,268.26063c0.69149,-2.74535 3.73555,-4.81339 7.38606,-4.81339c3.23495,0 5.99367,1.62399 7.06104,3.9042c0.02618,0.07181 0.05544,0.14128 0.09106,0.20598c0.34257,0.62235 6.73325,-1.09492 7.52542,-0.84255c2.34967,0.74856 3.72445,2.88263 4.72133,4.73523c1.2385,2.30161 -2.89731,8.99139 -4.21952,11.08073c-3.44549,5.44452 -7.01511,14.21661 -13.0943,18.09006c-4.36095,2.77864 -11.57075,2.22268 -14.41858,-1.68103c-2.09573,-2.87275 -0.89147,-7.62841 -0.51474,-10.63945c0.49433,-3.9509 1.65871,-7.91056 2.73717,-11.78969c1.14878,-4.13207 1.39016,-6.40714 2.72506,-8.25009z" fill="#8b21e0" stroke="none" stroke-width="0.5" stroke-linecap="butt"/><path d="M370.04217,276.51072c1.07846,3.87913 2.24284,7.83879 2.73717,11.78969c0.37673,3.01104 1.58099,7.76671 -0.51474,10.63945c-2.84783,3.90371 -10.05764,4.45967 -14.41858,1.68103c-6.07919,-3.87345 -9.64881,-12.64553 -13.0943,-18.09006c-1.32221,-2.08934 -5.45801,-8.77911 -4.21952,-11.08073c0.99688,-1.8526 2.37167,-3.98667 4.72133,-4.73523c0.79217,-0.25237 7.18285,1.4649 7.52542,0.84255c0.03562,-0.06471 0.06488,-0.13418 0.09105,-0.20598c1.06737,-2.2802 3.82608,-3.9042 7.06104,-3.9042c3.65051,0 6.69458,2.06803 7.38607,4.81339c1.3349,1.84295 1.57628,4.11802 2.72506,8.25009z" fill="#8b21e0" stroke="none" stroke-width="0.5" stroke-linecap="butt"/><g stroke-linecap="butt"><path d="M286.35186,319.07226l15.14285,-131.8421l37.78325,-0.15789l13.57389,132z" fill="#8b21e0" stroke="#000000" stroke-width="0"/><path d="M296.01666,234.92516c2.08346,-18.13983 5.47805,-47.69499 5.47805,-47.69499l37.78325,-0.15789c0,0 3.04845,29.64481 4.91793,47.82466c0.02749,0.26726 -48.23894,0.54804 -48.17924,0.02822z" fill="#7822e0" stroke="#000000" stroke-width="0"/><path d="M297.13133,225.22012c1.77782,-15.47868 4.36338,-37.98996 4.36338,-37.98996l37.78325,-0.15789c0,0 2.35959,22.94598 3.97074,38.61368c0.0124,0.12054 -46.15083,-0.17447 -46.11737,-0.46582z" fill="#551cba" stroke="#000000" stroke-width="0"/><path d="M298.09859,216.79867c1.47239,-12.81944 3.39612,-29.56851 3.39612,-29.56851l37.78325,-0.15789c0,0 1.79848,17.4894 3.15533,30.68411c0.00563,0.0547 -44.35225,-0.8049 -44.3347,-0.95771z" fill="#3a1aaf" stroke="#000000" stroke-width="0"/><path d="M298.125,217c0,-0.57891 0.28111,-1.09217 0.71427,-1.41073c0.31856,-0.43316 0.83182,-0.71427 1.41073,-0.71427c0.9665,0 1.75,0.7835 1.75,1.75c0,0.57891 -0.28111,1.09217 -0.71427,1.41073c-0.31856,0.43316 -0.83182,0.71427 -1.41073,0.71427c-0.9665,0 -1.75,-0.7835 -1.75,-1.75z" fill="#3a1aaf" stroke="none" stroke-width="0.5"/><path d="M338.5,217.625c0,-0.9665 0.7835,-1.75 1.75,-1.75c0.9665,0 1.75,0.7835 1.75,1.75c0,0.9665 -0.7835,1.75 -1.75,1.75c-0.9665,0 -1.75,-0.7835 -1.75,-1.75z" fill="#3a1aaf" stroke="none" stroke-width="0.5"/><path d="M331.75,217c0,-0.9665 0.7835,-1.75 1.75,-1.75c0.9665,0 1.75,0.7835 1.75,1.75c0,0.9665 -0.7835,1.75 -1.75,1.75c-0.9665,0 -1.75,-0.7835 -1.75,-1.75z" fill="#3a1aaf" stroke="none" stroke-width="0.5"/><path d="M325.5,217.5c0,-0.9665 0.7835,-1.75 1.75,-1.75c0.2202,0 0.4309,0.04066 0.625,0.1149c0.1941,-0.07424 0.4048,-0.1149 0.625,-0.1149c0.9665,0 1.75,0.7835 1.75,1.75c0,0.9665 -0.7835,1.75 -1.75,1.75c-0.2202,0 -0.4309,-0.04066 -0.625,-0.1149c-0.1941,0.07424 -0.4048,0.1149 -0.625,0.1149c-0.9665,0 -1.75,-0.7835 -1.75,-1.75z" fill="#3a1aaf" stroke="none" stroke-width="0.5"/><path d="M317,217.375c0,-0.9665 0.7835,-1.75 1.75,-1.75c0.2202,0 0.4309,0.04066 0.625,0.1149c0.1941,-0.07424 0.4048,-0.1149 0.625,-0.1149c0.9665,0 1.75,0.7835 1.75,1.75c0,0.9665 -0.7835,1.75 -1.75,1.75c-0.2202,0 -0.4309,-0.04066 -0.625,-0.1149c-0.1941,0.07424 -0.4048,0.1149 -0.625,0.1149c-0.9665,0 -1.75,-0.7835 -1.75,-1.75z" fill="#3a1aaf" stroke="none" stroke-width="0.5"/><path d="M313.25,217.125c0,-0.9665 0.7835,-1.75 1.75,-1.75c0.9665,0 1.75,0.7835 1.75,1.75c0,0.9665 -0.7835,1.75 -1.75,1.75c-0.9665,0 -1.75,-0.7835 -1.75,-1.75z" fill="#3a1aaf" stroke="none" stroke-width="0.5"/><path d="M306.5,217c0,-0.9665 0.7835,-1.75 1.75,-1.75c0.9665,0 1.75,0.7835 1.75,1.75c0,0.9665 -0.7835,1.75 -1.75,1.75c-0.9665,0 -1.75,-0.7835 -1.75,-1.75z" fill="#3a1aaf" stroke="none" stroke-width="0.5"/><path d="M302.625,217c0,-0.9665 0.7835,-1.75 1.75,-1.75c0.9665,0 1.75,0.7835 1.75,1.75c0,0.9665 -0.7835,1.75 -1.75,1.75c-0.9665,0 -1.75,-0.7835 -1.75,-1.75z" fill="#3a1aaf" stroke="none" stroke-width="0.5"/><path d="M297.125,225.125c0,-0.9665 0.7835,-1.75 1.75,-1.75c0.9665,0 1.75,0.7835 1.75,1.75c0,0.9665 -0.7835,1.75 -1.75,1.75c-0.9665,0 -1.75,-0.7835 -1.75,-1.75z" fill="#551cba" stroke="none" stroke-width="0.5"/><path d="M337.625,225.5c0,-0.9665 0.7835,-1.75 1.75,-1.75c0.43734,0 0.8372,0.16042 1.14396,0.42563c0.27981,-0.18976 0.61748,-0.30063 0.98104,-0.30063c0.9665,0 1.75,0.7835 1.75,1.75c0,0.9665 -0.7835,1.75 -1.75,1.75c-0.43734,0 -0.8372,-0.16042 -1.14396,-0.42563c-0.27981,0.18976 -0.61748,0.30063 -0.98104,0.30063c-0.9665,0 -1.75,-0.7835 -1.75,-1.75z" fill="#551cba" stroke="none" stroke-width="0.5"/><path d="M330.5,225.875c0,-0.9665 0.7835,-1.75 1.75,-1.75c0.78848,0 1.45517,0.52145 1.67401,1.23832c0.28322,-0.58494 0.8825,-0.98832 1.57599,-0.98832c0.9665,0 1.75,0.7835 1.75,1.75c0,0.9665 -0.7835,1.75 -1.75,1.75c-0.78848,0 -1.45517,-0.52145 -1.67401,-1.23832c-0.28322,0.58494 -0.8825,0.98832 -1.57599,0.98832c-0.9665,0 -1.75,-0.7835 -1.75,-1.75z" fill="#551cba" stroke="none" stroke-width="0.5"/><path d="M327,225.75c0,-0.9665 0.7835,-1.75 1.75,-1.75c0.9665,0 1.75,0.7835 1.75,1.75c0,0.9665 -0.7835,1.75 -1.75,1.75c-0.9665,0 -1.75,-0.7835 -1.75,-1.75z" fill="#551cba" stroke="none" stroke-width="0.5"/><path d="M316.25,225.125c0,-0.9665 0.7835,-1.75 1.75,-1.75c0.58711,0 1.1067,0.28913 1.42415,0.73276c0.32092,-0.37217 0.79587,-0.60776 1.32585,-0.60776c0.76142,0 1.40928,0.48629 1.64992,1.16524c0.27225,-0.61285 0.88626,-1.04024 1.60008,-1.04024c0.9665,0 1.75,0.7835 1.75,1.75c0,0.9665 -0.7835,1.75 -1.75,1.75c-0.76142,0 -1.40928,-0.48629 -1.64992,-1.16524c-0.27225,0.61285 -0.88626,1.04024 -1.60008,1.04024c-0.58711,0 -1.1067,-0.28913 -1.42415,-0.73276c-0.32092,0.37217 -0.79587,0.60776 -1.32585,0.60776c-0.9665,0 -1.75,-0.7835 -1.75,-1.75z" fill="#551cba" stroke="none" stroke-width="0.5"/><path d="M307.625,225c0,-0.9665 0.7835,-1.75 1.75,-1.75c0.80543,0 1.48377,0.54412 1.6875,1.28483c0.20373,-0.7407 0.88207,-1.28483 1.6875,-1.28483c0.9665,0 1.75,0.7835 1.75,1.75c0,0.9665 -0.7835,1.75 -1.75,1.75c-0.80543,0 -1.48377,-0.54412 -1.6875,-1.28483c-0.20373,0.7407 -0.88207,1.28483 -1.6875,1.28483c-0.9665,0 -1.75,-0.7835 -1.75,-1.75z" fill="#551cba" stroke="none" stroke-width="0.5"/><path d="M300.5,225.125c0,-0.9665 0.7835,-1.75 1.75,-1.75c0.6587,0 1.2324,0.36393 1.531,0.90168c0.27524,-0.60558 0.88544,-1.02668 1.594,-1.02668c0.9665,0 1.75,0.7835 1.75,1.75c0,0.9665 -0.7835,1.75 -1.75,1.75c-0.6587,0 -1.2324,-0.36393 -1.531,-0.90168c-0.27524,0.60558 -0.88544,1.02668 -1.594,1.02668c-0.9665,0 -1.75,-0.7835 -1.75,-1.75z" fill="#551cba" stroke="none" stroke-width="0.5"/><path d="M302.875,233.375c0.9665,0 1.75,0.7835 1.75,1.75c0,0.9665 -0.7835,1.75 -1.75,1.75c-0.55774,0 -1.05454,-0.26092 -1.375,-0.66735c-0.32046,0.40643 -0.81726,0.66735 -1.375,0.66735c-0.45833,0 -0.87552,-0.1762 -1.1875,-0.46455c-0.31198,0.28835 -0.72917,0.46455 -1.1875,0.46455c-0.9665,0 -1.75,-0.7835 -1.75,-1.75c0,-0.9665 0.7835,-1.75 1.75,-1.75c0.45833,0 0.87552,0.1762 1.1875,0.46455c0.31198,-0.28835 0.72917,-0.46455 1.1875,-0.46455c0.55774,0 1.05454,0.26092 1.375,0.66735c0.32046,-0.40643 0.81726,-0.66735 1.375,-0.66735z" fill="#7822e0" stroke="none" stroke-width="0.5"/><path d="M312.625,233.25c0.9665,0 1.75,0.7835 1.75,1.75c0,0.9665 -0.7835,1.75 -1.75,1.75c-0.27524,0 -0.53563,-0.06354 -0.76731,-0.17675c-0.28013,0.19045 -0.61841,0.30175 -0.98269,0.30175c-0.73651,0 -1.36676,-0.45499 -1.625,-1.09923c-0.25824,0.64424 -0.88849,1.09923 -1.625,1.09923c-0.9665,0 -1.75,-0.7835 -1.75,-1.75c0,-0.9665 0.7835,-1.75 1.75,-1.75c0.73651,0 1.36676,0.45499 1.625,1.09923c0.25824,-0.64424 0.88849,-1.09923 1.625,-1.09923c0.27524,0 0.53563,0.06354 0.76731,0.17675c0.28013,-0.19045 0.61841,-0.30175 0.98269,-0.30175z" fill="#7822e0" stroke="none" stroke-width="0.5"/><path d="M315.5,235.25c0,-0.9665 0.7835,-1.75 1.75,-1.75c0.9665,0 1.75,0.7835 1.75,1.75c0,0.9665 -0.7835,1.75 -1.75,1.75c-0.9665,0 -1.75,-0.7835 -1.75,-1.75z" fill="#7822e0" stroke="none" stroke-width="0.5"/><path d="M322.75,235.875c0,-0.9665 0.7835,-1.75 1.75,-1.75c0.9665,0 1.75,0.7835 1.75,1.75c0,0.9665 -0.7835,1.75 -1.75,1.75c-0.9665,0 -1.75,-0.7835 -1.75,-1.75z" fill="#7822e0" stroke="none" stroke-width="0.5"/><path d="M329.375,235.75c0,-0.9665 0.7835,-1.75 1.75,-1.75c0.9665,0 1.75,0.7835 1.75,1.75c0,0.9665 -0.7835,1.75 -1.75,1.75c-0.9665,0 -1.75,-0.7835 -1.75,-1.75z" fill="#7822e0" stroke="none" stroke-width="0.5"/><path d="M334.875,234.75c0,-0.9665 0.7835,-1.75 1.75,-1.75c0.9665,0 1.75,0.7835 1.75,1.75c0,0.9665 -0.7835,1.75 -1.75,1.75c-0.9665,0 -1.75,-0.7835 -1.75,-1.75z" fill="#7822e0" stroke="none" stroke-width="0.5"/><path d="M340,235c0,-0.9665 0.7835,-1.75 1.75,-1.75c0.9665,0 1.75,0.7835 1.75,1.75c0,0.9665 -0.7835,1.75 -1.75,1.75c-0.9665,0 -1.75,-0.7835 -1.75,-1.75z" fill="#7822e0" stroke="none" stroke-width="0.5"/><path d="M301.16667,220.83333c0,-0.69036 0.55964,-1.25 1.25,-1.25c0.69036,0 1.25,0.55964 1.25,1.25c0,0.69036 -0.55964,1.25 -1.25,1.25c-0.69036,0 -1.25,-0.55964 -1.25,-1.25z" fill="#3a1aaf" stroke="none" stroke-width="0.5"/><path d="M305.5,217.83333c0,-0.69036 0.55964,-1.25 1.25,-1.25c0.69036,0 1.25,0.55964 1.25,1.25c0,0.69036 -0.55964,1.25 -1.25,1.25c-0.69036,0 -1.25,-0.55964 -1.25,-1.25z" fill="#3a1aaf" stroke="none" stroke-width="0.5"/><path d="M311.66667,217.33333c0,-0.69036 0.55964,-1.25 1.25,-1.25c0.69036,0 1.25,0.55964 1.25,1.25c0,0.69036 -0.55964,1.25 -1.25,1.25c-0.69036,0 -1.25,-0.55964 -1.25,-1.25z" fill="#3a1aaf" stroke="none" stroke-width="0.5"/><path d="M314.66667,220c0,-0.69036 0.55964,-1.25 1.25,-1.25c0.69036,0 1.25,0.55964 1.25,1.25c0,0.69036 -0.55964,1.25 -1.25,1.25c-0.69036,0 -1.25,-0.55964 -1.25,-1.25z" fill="#3a1aaf" stroke="none" stroke-width="0.5"/><path d="M323.25,221.08333c0.69036,0 1.25,0.55964 1.25,1.25c0,0.69036 -0.55964,1.25 -1.25,1.25c-0.28931,0 -0.55566,-0.09828 -0.76748,-0.26328c-0.21988,0.35792 -0.61499,0.59662 -1.06585,0.59662c-0.69036,0 -1.25,-0.55964 -1.25,-1.25c0,-0.69036 0.55964,-1.25 1.25,-1.25c0.28931,0 0.55566,0.09828 0.76748,0.26328c0.21988,-0.35792 0.61499,-0.59662 1.06585,-0.59662z" fill="#3a1aaf" stroke="none" stroke-width="0.5"/><path d="M328,218.5c0,-0.69036 0.55964,-1.25 1.25,-1.25c0.69036,0 1.25,0.55964 1.25,1.25c0,0.69036 -0.55964,1.25 -1.25,1.25c-0.69036,0 -1.25,-0.55964 -1.25,-1.25z" fill="#3a1aaf" stroke="none" stroke-width="0.5"/><path d="M333.66667,218.16667c0,-0.69036 0.55964,-1.25 1.25,-1.25c0.69036,0 1.25,0.55964 1.25,1.25c0,0.69036 -0.55964,1.25 -1.25,1.25c-0.69036,0 -1.25,-0.55964 -1.25,-1.25z" fill="#3a1aaf" stroke="none" stroke-width="0.5"/><path d="M339.83333,222.33333c0,0.69036 -0.55964,1.25 -1.25,1.25c-0.54205,0 -1.00352,-0.34502 -1.17677,-0.82743c-0.24986,-0.22855 -0.40656,-0.55726 -0.40656,-0.92257c0,-0.69036 0.55964,-1.25 1.25,-1.25c0.54205,0 1.00352,0.34502 1.17677,0.82743c0.24986,0.22855 0.40656,0.55726 0.40656,0.92257z" fill="#3a1aaf" stroke="none" stroke-width="0.5"/><path d="M298.66667,226.16667c0,-0.69036 0.55964,-1.25 1.25,-1.25c0.69036,0 1.25,0.55964 1.25,1.25c0,0.69036 -0.55964,1.25 -1.25,1.25c-0.69036,0 -1.25,-0.55964 -1.25,-1.25z" fill="#551cba" stroke="none" stroke-width="0.5"/><path d="M303.5,231.16667c0,-0.69036 0.55964,-1.25 1.25,-1.25c0.69036,0 1.25,0.55964 1.25,1.25c0,0.69036 -0.55964,1.25 -1.25,1.25c-0.69036,0 -1.25,-0.55964 -1.25,-1.25z" fill="#551cba" stroke="none" stroke-width="0.5"/><path d="M309.38356,228.20639c0.96028,0.80023 0.16005,1.76051 0.16005,1.76051l-0.83333,1c0,0 -0.80023,0.96028 -1.76051,0.16005c-0.96028,-0.80023 -0.16005,-1.76051 -0.16005,-1.76051l0.83333,-1c0,0 0.80023,-0.96028 1.76051,-0.16005z" fill="#551cba" stroke="none" stroke-width="0.5"/><path d="M313.91667,224.75c0.69036,0 1.25,0.55964 1.25,1.25c0,0.69036 -0.55964,1.25 -1.25,1.25c-0.23693,0 -0.45847,-0.06592 -0.64727,-0.18042c-0.0607,0.00906 -0.12284,0.01375 -0.18606,0.01375c-0.69036,0 -1.25,-0.55964 -1.25,-1.25c0,-0.69036 0.55964,-1.25 1.25,-1.25c0.23693,0 0.45847,0.06592 0.64727,0.18042c0.0607,-0.00906 0.12284,-0.01375 0.18606,-0.01375z" fill="#551cba" stroke="none" stroke-width="0.5"/><path d="M320.83333,229.16667c0,-0.69036 0.55964,-1.25 1.25,-1.25c0.69036,0 1.25,0.55964 1.25,1.25c0,0.69036 -0.55964,1.25 -1.25,1.25c-0.69036,0 -1.25,-0.55964 -1.25,-1.25z" fill="#551cba" stroke="none" stroke-width="0.5"/><path d="M323.66667,230.33333c0,-0.69036 0.55964,-1.25 1.25,-1.25c0.69036,0 1.25,0.55964 1.25,1.25c0,0.69036 -0.55964,1.25 -1.25,1.25c-0.69036,0 -1.25,-0.55964 -1.25,-1.25z" fill="#551cba" stroke="none" stroke-width="0.5"/><path d="M329.16667,226.83333c0,-0.69036 0.55964,-1.25 1.25,-1.25c0.69036,0 1.25,0.55964 1.25,1.25c0,0.69036 -0.55964,1.25 -1.25,1.25c-0.69036,0 -1.25,-0.55964 -1.25,-1.25z" fill="#551cba" stroke="none" stroke-width="0.5"/><path d="M333,225.83333c0,-0.69036 0.55964,-1.25 1.25,-1.25c0.69036,0 1.25,0.55964 1.25,1.25c0,0.69036 -0.55964,1.25 -1.25,1.25c-0.69036,0 -1.25,-0.55964 -1.25,-1.25z" fill="#551cba" stroke="none" stroke-width="0.5"/><path d="M340.5,230.83333c0,-0.69036 0.55964,-1.25 1.25,-1.25c0.69036,0 1.25,0.55964 1.25,1.25c0,0.69036 -0.55964,1.25 -1.25,1.25c-0.69036,0 -1.25,-0.55964 -1.25,-1.25z" fill="#551cba" stroke="none" stroke-width="0.5"/><path d="M299,238.83333c0,-0.69036 0.55964,-1.25 1.25,-1.25c0.69036,0 1.25,0.55964 1.25,1.25c0,0.69036 -0.55964,1.25 -1.25,1.25c-0.69036,0 -1.25,-0.55964 -1.25,-1.25z" fill="#7822e0" stroke="none" stroke-width="0.5"/><path d="M307.58333,234.75c0.69036,0 1.25,0.55964 1.25,1.25c0,0.69036 -0.55964,1.25 -1.25,1.25c-0.19188,0 -0.37366,-0.04323 -0.53614,-0.12049c-0.21637,0.17935 -0.4942,0.28716 -0.7972,0.28716c-0.69036,0 -1.25,-0.55964 -1.25,-1.25c0,-0.69036 0.55964,-1.25 1.25,-1.25c0.19188,0 0.37366,0.04323 0.53614,0.12049c0.21637,-0.17935 0.4942,-0.28716 0.7972,-0.28716z" fill="#7822e0" stroke="none" stroke-width="0.5"/><path d="M314.66667,239c0,-0.69036 0.55964,-1.25 1.25,-1.25c0.69036,0 1.25,0.55964 1.25,1.25c0,0.69036 -0.55964,1.25 -1.25,1.25c-0.69036,0 -1.25,-0.55964 -1.25,-1.25z" fill="#7822e0" stroke="none" stroke-width="0.5"/><path d="M320.83333,242.5c0,-0.69036 0.55964,-1.25 1.25,-1.25c0.69036,0 1.25,0.55964 1.25,1.25c0,0.69036 -0.55964,1.25 -1.25,1.25c-0.69036,0 -1.25,-0.55964 -1.25,-1.25z" fill="#7822e0" stroke="none" stroke-width="0.5"/><path d="M320.83333,235c0,-0.69036 0.55964,-1.25 1.25,-1.25c0.69036,0 1.25,0.55964 1.25,1.25c0,0.69036 -0.55964,1.25 -1.25,1.25c-0.69036,0 -1.25,-0.55964 -1.25,-1.25z" fill="#7822e0" stroke="none" stroke-width="0.5"/><path d="M326,236.16667c0,-0.69036 0.55964,-1.25 1.25,-1.25c0.69036,0 1.25,0.55964 1.25,1.25c0,0.69036 -0.55964,1.25 -1.25,1.25c-0.69036,0 -1.25,-0.55964 -1.25,-1.25z" fill="#7822e0" stroke="none" stroke-width="0.5"/><path d="M331.5,236.16667c0,-0.69036 0.55964,-1.25 1.25,-1.25c0.69036,0 1.25,0.55964 1.25,1.25c0,0.69036 -0.55964,1.25 -1.25,1.25c-0.69036,0 -1.25,-0.55964 -1.25,-1.25z" fill="#7822e0" stroke="none" stroke-width="0.5"/><path d="M339.25,239.25c0.69036,0 1.25,0.55964 1.25,1.25c0,0.69036 -0.55964,1.25 -1.25,1.25c-0.56616,0 -1.04441,-0.3764 -1.19816,-0.89261c-0.19819,0.42859 -0.63196,0.72594 -1.13517,0.72594c-0.69036,0 -1.25,-0.55964 -1.25,-1.25c0,-0.69036 0.55964,-1.25 1.25,-1.25c0.56616,0 1.04441,0.3764 1.19816,0.89261c0.19819,-0.42859 0.63196,-0.72594 1.13517,-0.72594z" fill="#7822e0" stroke="none" stroke-width="0.5"/><path d="M340,235.33333c0,-0.69036 0.55964,-1.25 1.25,-1.25c0.69036,0 1.25,0.55964 1.25,1.25c0,0.69036 -0.55964,1.25 -1.25,1.25c-0.69036,0 -1.25,-0.55964 -1.25,-1.25z" fill="#7822e0" stroke="none" stroke-width="0.5"/><path d="M301,223c0,-0.41421 0.33579,-0.75 0.75,-0.75c0.41421,0 0.75,0.33579 0.75,0.75c0,0.41421 -0.33579,0.75 -0.75,0.75c-0.41421,0 -0.75,-0.33579 -0.75,-0.75z" fill="#3a1aaf" stroke="none" stroke-width="0.5"/><path d="M321.66667,225c0,-0.41421 0.33579,-0.75 0.75,-0.75c0.41421,0 0.75,0.33579 0.75,0.75c0,0.41421 -0.33579,0.75 -0.75,0.75c-0.41421,0 -0.75,-0.33579 -0.75,-0.75z" fill="#3a1aaf" stroke="none" stroke-width="0.5"/><path d="M338.66667,224.66667c0,-0.41421 0.33579,-0.75 0.75,-0.75c0.41421,0 0.75,0.33579 0.75,0.75c0,0.41421 -0.33579,0.75 -0.75,0.75c-0.41421,0 -0.75,-0.33579 -0.75,-0.75z" fill="#3a1aaf" stroke="none" stroke-width="0.5"/><path d="M302.83333,233.5c0,-0.41421 0.33579,-0.75 0.75,-0.75c0.41421,0 0.75,0.33579 0.75,0.75c0,0.41421 -0.33579,0.75 -0.75,0.75c-0.41421,0 -0.75,-0.33579 -0.75,-0.75z" fill="#551cba" stroke="none" stroke-width="0.5"/><path d="M322.5,233.33333c0,-0.41421 0.33579,-0.75 0.75,-0.75c0.41421,0 0.75,0.33579 0.75,0.75c0,0.41421 -0.33579,0.75 -0.75,0.75c-0.41421,0 -0.75,-0.33579 -0.75,-0.75z" fill="#551cba" stroke="none" stroke-width="0.5"/><path d="M341.33333,235c0,-0.41421 0.33579,-0.75 0.75,-0.75c0.41421,0 0.75,0.33579 0.75,0.75c0,0.41421 -0.33579,0.75 -0.75,0.75c-0.41421,0 -0.75,-0.33579 -0.75,-0.75z" fill="#551cba" stroke="none" stroke-width="0.5"/><path d="M301.66667,241.33333c0,-0.41421 0.33579,-0.75 0.75,-0.75c0.41421,0 0.75,0.33579 0.75,0.75c0,0.41421 -0.33579,0.75 -0.75,0.75c-0.41421,0 -0.75,-0.33579 -0.75,-0.75z" fill="#7822e0" stroke="none" stroke-width="0.5"/><path d="M314.5,244.16667c0,-0.41421 0.33579,-0.75 0.75,-0.75c0.41421,0 0.75,0.33579 0.75,0.75c0,0.41421 -0.33579,0.75 -0.75,0.75c-0.41421,0 -0.75,-0.33579 -0.75,-0.75z" fill="#7822e0" stroke="none" stroke-width="0.5"/><path d="M338,245.16667c0,-0.41421 0.33579,-0.75 0.75,-0.75c0.41421,0 0.75,0.33579 0.75,0.75c0,0.41421 -0.33579,0.75 -0.75,0.75c-0.41421,0 -0.75,-0.33579 -0.75,-0.75z" fill="#7822e0" stroke="none" stroke-width="0.5"/></g><path d="M214.52362,306.61252v-267.72501h213.18203v267.72501z" fill="none" stroke="none" stroke-width="0" stroke-linecap="butt"/><path d="" fill="none" stroke="#000000" stroke-width="2" stroke-linecap="round"/><path d="M348.09345,279.76011c-0.17678,0.17677 -0.35355,0 -0.35355,0l-0.30273,-0.3073c-0.18961,-0.09309 -0.38215,-0.18574 -0.57705,-0.27765c0.1706,0.17506 0.34622,0.36109 0.52428,0.55569l0.04239,0.00904c0.96745,0.96746 2.14938,2.03589 2.65974,3.30561c0.27002,0.23032 0.50572,0.4617 0.68142,0.69992l0.06432,0.31487c0,0 0.01712,0.18501 -0.13765,0.2508c0.36897,0.41782 0.74899,0.77747 1.13564,1.02777c0.98203,1.09903 2.08443,2.12612 2.90511,3.35515l0.10286,-0.01127c0,0 0.23392,0.08822 0.14569,0.32214c-0.08823,0.23391 -0.32214,0.14569 -0.32214,0.14569l-0.34243,-0.17921c-0.79498,-1.19449 -1.87315,-2.18077 -2.81754,-3.25553c-0.98239,-0.67187 -1.89968,-1.9514 -2.72124,-3.14018c-1.23839,-0.94227 -2.59489,-1.9086 -2.61389,-3.49232c0,0 0,-0.11726 0.0803,-0.19117c-0.91474,-0.41318 -1.86679,-0.80319 -2.80088,-1.13837c-0.14632,-0.03607 -0.29417,-0.06982 -0.44388,-0.10066l-0.36401,-0.17953c0,0 -0.01018,-0.00508 -0.0251,-0.01526c-0.04132,-0.02615 -0.09259,-0.07164 -0.11016,-0.14272c-0.01263,-0.04442 -0.01185,-0.09821 0.01591,-0.16137c0.02504,-0.06429 0.06252,-0.10288 0.10286,-0.12536c0.06268,-0.03784 0.1311,-0.03376 0.17881,-0.02302c0.01774,0.00336 0.02853,0.00696 0.02853,0.00696c0.23451,0.07916 0.47118,0.1615 0.70909,0.24678c0.04289,0.00993 0.08564,0.02009 0.12826,0.03048c-0.01349,-0.06248 -0.00371,-0.13967 0.07349,-0.21686c0.17678,-0.17677 0.35355,0 0.35355,0c0.23489,0.23489 0.50902,0.42083 0.80814,0.57409c1.04522,0.33607 2.064,0.71102 3.21276,0.85461c0,0 0.24807,0.03101 0.21706,0.27908c-0.03101,0.24807 -0.27908,0.21706 -0.27908,0.21706c-0.02155,-0.00269 -0.04306,-0.00547 -0.06453,-0.00831c-0.05012,0.01273 -0.09116,0.00943 -0.09116,0.00943l-0.31369,-0.02594c0.04905,0.02457 0.09791,0.04922 0.14657,0.07394l0.36393,0.35936c0,0 0.17678,0.17678 0,0.35356zM347.70697,281.05603c-0.18253,-0.24018 -0.40901,-0.44565 -0.62511,-0.65315c0.21793,0.33132 0.50671,0.6382 0.82981,0.92888c-0.06916,-0.09509 -0.1374,-0.18718 -0.2047,-0.27573z" fill="#751cbd" stroke="none" stroke-width="0.5" stroke-linecap="butt"/><path d="M272.52055,274.57308l0.13421,0.13935c0.07632,0.05354 0.15079,0.10324 0.22447,0.1497c1.01875,0.17851 2.15312,0.11299 3.06294,0.49132l0.23508,-0.02012c0,0 0.25,0 0.25,0.25c0,0.25 -0.25,0.25 -0.25,0.25l-0.4316,-0.02012c-0.53053,-0.23456 -1.10969,-0.31854 -1.69559,-0.37737c0.02431,0.03039 0.04332,0.06951 0.04664,0.11884c1.46053,0.4725 2.98794,0.67155 4.77199,0.91763c1.41433,0.19508 2.88054,0.52942 4.30856,0.52768h0.33333c0,0 0.25,0 0.25,0.25c0,0.25 -0.25,0.25 -0.25,0.25h-0.33333c-1.45266,-0.00165 -2.93821,-0.33393 -4.37687,-0.53237c-2.61728,-0.36101 -4.71009,-0.63846 -6.8286,-1.77376c-0.18029,-0.08838 -0.37074,-0.19873 -0.56191,-0.32129c-0.29136,-0.17723 -0.58411,-0.37212 -0.87967,-0.58707c0,0 -0.0677,-0.04924 -0.09626,-0.12991c-0.09089,-0.07506 -0.17678,-0.14852 -0.25606,-0.2187l-0.00063,0.0631c0,0 -0.25,0 -0.25,-0.25c0,-0.25 0.25,-0.25 0.25,-0.25l0.3327,0.0631c0.14339,0.12786 0.322,0.27914 0.5167,0.43277c0.09325,0.0099 0.16071,0.07736 0.16071,0.07736c0.10195,0.10348 0.2101,0.19422 0.32357,0.27399c0.08858,0.05587 0.17699,0.10999 0.26526,0.16245c0.10676,0.0567 0.21714,0.10592 0.33054,0.14889c0.01232,-0.02789 0.03165,-0.05653 0.06025,-0.08519c0.17663,-0.17692 0.35356,-0.00029 0.35356,-0.00029z" fill="#751cbd" stroke="none" stroke-width="0.5" stroke-linecap="butt"/><path d="M291.3338,279.40656l0.36394,-0.35936c0.04866,-0.02472 0.09752,-0.04937 0.14657,-0.07394l-0.31369,0.02594c0,0 -0.04104,0.0033 -0.09116,-0.00943c-0.02147,0.00285 -0.04298,0.00562 -0.06454,0.00831c0,0 -0.24807,0.03101 -0.27908,-0.21706c-0.03101,-0.24807 0.21706,-0.27908 0.21706,-0.27908c1.14875,-0.1436 2.16754,-0.51854 3.21276,-0.85461c0.29912,-0.15326 0.57325,-0.3392 0.80814,-0.57409c0,0 0.17678,-0.17677 0.35356,0c0.0772,0.07719 0.08697,0.15439 0.07349,0.21686c0.04262,-0.01039 0.08536,-0.02055 0.12825,-0.03048c0.23791,-0.08528 0.47458,-0.16762 0.70909,-0.24678c0,0 0.01079,-0.0036 0.02854,-0.00696c0.04771,-0.01074 0.11613,-0.01481 0.17881,0.02302c0.04034,0.02248 0.07782,0.06107 0.10286,0.12536c0.02776,0.06316 0.02854,0.11695 0.01591,0.16137c-0.01757,0.07108 -0.06884,0.11657 -0.11016,0.14272c-0.01492,0.01018 -0.0251,0.01526 -0.0251,0.01526l-0.364,0.17953c-0.14972,0.03084 -0.29756,0.06459 -0.44389,0.10066c-0.9341,0.33518 -1.88614,0.72519 -2.80088,1.13837c0.08031,0.0739 0.08031,0.19117 0.08031,0.19117c-0.019,1.58372 -1.3755,2.55005 -2.61389,3.49232c-0.82156,1.18877 -1.73885,2.4683 -2.72124,3.14018c-0.9444,1.07476 -2.02256,2.06103 -2.81754,3.25553l-0.34244,0.17921c0,0 -0.23391,0.08822 -0.32214,-0.14569c-0.08823,-0.23391 0.14569,-0.32214 0.14569,-0.32214l0.10286,0.01127c0.82067,-1.22904 1.92307,-2.25612 2.90511,-3.35515c0.38664,-0.2503 0.76666,-0.60994 1.13563,-1.02777c-0.15477,-0.06579 -0.13765,-0.2508 -0.13765,-0.2508l0.06432,-0.31487c0.1757,-0.23822 0.41141,-0.4696 0.68143,-0.69992c0.51036,-1.26972 1.69229,-2.33816 2.65974,-3.30561l0.04239,-0.00904c0.17806,-0.19459 0.35368,-0.38062 0.52427,-0.55569c-0.1949,0.0919 -0.38744,0.18456 -0.57705,0.27765l-0.30273,0.3073c0,0 -0.17678,0.17677 -0.35356,0c-0.17678,-0.17677 0,-0.35356 0,-0.35356zM291.51558,281.33177c0.3231,-0.29068 0.61188,-0.59756 0.82981,-0.92888c-0.2161,0.20749 -0.44258,0.41296 -0.62511,0.65315c-0.0673,0.08856 -0.13554,0.18065 -0.2047,0.27573z" fill="#751cbd" stroke="none" stroke-width="0.5" stroke-linecap="butt"/><path d="M367.26026,274.57337c0.02861,0.02865 0.04794,0.0573 0.06026,0.08519c0.1134,-0.04297 0.22378,-0.09219 0.33054,-0.14889c0.08828,-0.05246 0.17669,-0.10659 0.26526,-0.16245c0.11347,-0.07977 0.22163,-0.17051 0.32358,-0.27399c0,0 0.06746,-0.06746 0.16071,-0.07736c0.1947,-0.15363 0.37331,-0.30491 0.5167,-0.43277l0.3327,-0.0631c0,0 0.25,0 0.25,0.25c0,0.25 -0.25,0.25 -0.25,0.25l-0.00063,-0.0631c-0.07927,0.07018 -0.16517,0.14364 -0.25606,0.2187c-0.02855,0.08068 -0.09626,0.12991 -0.09626,0.12991c-0.29555,0.21495 -0.58831,0.40984 -0.87966,0.58707c-0.19117,0.12256 -0.38162,0.2329 -0.56191,0.32129c-2.11851,1.1353 -4.21132,1.41275 -6.8286,1.77376c-1.43867,0.19843 -2.92421,0.53072 -4.37687,0.53237h-0.33333c0,0 -0.25,0 -0.25,-0.25c0,-0.25 0.25,-0.25 0.25,-0.25h0.33333c1.42802,0.00173 2.89423,-0.33261 4.30856,-0.52768c1.78405,-0.24607 3.31145,-0.44513 4.77199,-0.91763c0.00333,-0.04934 0.02233,-0.08845 0.04664,-0.11884c-0.58591,0.05883 -1.16505,0.14282 -1.69559,0.37737l-0.4316,0.02012c0,0 -0.25,0 -0.25,-0.25c0,-0.25 0.25,-0.25 0.25,-0.25l0.23507,0.02012c0.90982,-0.37833 2.04419,-0.31281 3.06294,-0.49132c0.07369,-0.04647 0.14815,-0.09616 0.22447,-0.1497l0.13421,-0.13935c0,0 0.17692,-0.17663 0.35355,0.00029z" fill="#751cbd" stroke="none" stroke-width="0.5" stroke-linecap="butt"/><g><g><g><path d="M377.23057,134.95465l23.97167,-20.92727c0,0 -1.71183,16.50066 -1.27029,22.95735c0.32779,4.79345 3.68135,12.30146 3.68135,12.30146c0,0 -6.1835,13.20481 -8.07492,19.44975c-1.60401,5.29606 -2.55412,15.64453 -2.55412,15.64453l-20.65605,-10.23842z" fill="#6719a7" stroke="#000000" stroke-width="0" stroke-linecap="round"/><path d="M391.67071,166.37914l-12.00867,1.05127" fill="none" stroke="#4b1797" stroke-width="2" stroke-linecap="round"/><path d="M381.00422,141.10288l12.31645,-4.02816" fill="none" stroke="#4b1797" stroke-width="2" stroke-linecap="round"/><path d="M268.07046,169.52363l-21.48045,8.37186c0,0 -0.03133,-10.39194 -1.16078,-15.80909c-1.33181,-6.38773 -6.3235,-20.08757 -6.3235,-20.08757c0,0 4.00431,-7.18206 4.75466,-11.92775c1.01071,-6.39236 0.76462,-22.97974 0.76462,-22.97974l22.02733,22.96493z" fill="#6719a7" stroke="#000000" stroke-width="0" stroke-linecap="round"/><path d="M261.35882,162.1898l-11.86868,-2.10898" fill="none" stroke="#4b1797" stroke-width="2" stroke-linecap="round"/><path d="M262.34984,135.84672l-11.91202,-5.10142" fill="none" stroke="#4b1797" stroke-width="2" stroke-linecap="round"/><path d="M256.96734,147.63504c1.47375,-33.26922 31.40019,-58.96649 66.84256,-57.39647c35.44237,1.57002 62.97937,29.81281 61.50561,63.08204c-0.96562,21.79856 -14.14625,40.34639 -33.08996,50.10343c-4.74276,2.44277 -4.25592,23.43247 -0.66463,41.44584c3.95696,19.84749 9.38807,36.62267 -36.67898,33.35444c-48.11034,-3.4132 -41.21132,-17.69913 -34.85555,-36.32956c5.84825,-17.14275 9.64407,-38.74041 5.06342,-41.68666c-17.77232,-11.43115 -29.08079,-30.93941 -28.12248,-52.57302z" fill="#8b21e0" stroke="#000000" stroke-width="0" stroke-linecap="butt"/><path d="M261.30537,128.03418c10.19124,-22.31609 35.07711,-39.01061 62.50454,-37.79563c28.25969,1.25184 51.49352,19.46103 59.00284,43.6547c0.0139,0.04481 -121.53231,-5.80449 -121.50739,-5.85907z" fill="#7822e0" stroke="#000000" stroke-width="0" stroke-linecap="butt"/><path d="M263.97389,122.65451c11.08707,-20.21097 33.99549,-33.56064 59.83601,-32.41596c26.01634,1.15248 47.77305,16.67684 56.92255,38.01156c0.04095,0.09549 -116.83911,-5.44879 -116.75856,-5.59561z" fill="#551cba" stroke="#000000" stroke-width="0" stroke-linecap="butt"/><path d="M269.37023,114.50235c12.23796,-15.5492 32.25861,-25.24637 54.43965,-24.2638c21.47491,0.9513 40.04756,11.6949 51.02308,27.41568c0.49244,0.70534 0.96958,1.4207 1.43102,2.14566c0.04263,0.06697 -106.9584,-5.21538 -106.89375,-5.29754z" fill="#3a1aaf" stroke="#000000" stroke-width="0" stroke-linecap="butt"/><path d="M270.43634,151.50599c0.57389,-12.95531 11.54148,-22.99241 24.49678,-22.41851c12.95531,0.57389 22.9924,11.54147 22.41851,24.49677c-0.57389,12.95531 -11.54147,22.99241 -24.49676,22.41852c-12.95531,-0.57389 -22.99242,-11.54148 -22.41852,-24.49677z" fill="#6320d7" stroke="#000000" stroke-width="0" stroke-linecap="butt"/><path d="M347.06016,178.40396c-12.95531,-0.57389 -22.99241,-11.54148 -22.41851,-24.49678c0.57389,-12.95531 11.54147,-22.9924 24.49677,-22.41851c12.95531,0.57389 22.99241,11.54147 22.41852,24.49676c-0.57389,12.95531 -11.54148,22.99242 -24.49677,22.41852z" fill="#6320d7" stroke="#000000" stroke-width="0" stroke-linecap="butt"/><path d="M294.54475,100.94681c2.34787,8.41585 -7.03277,12.9699 -14.98382,12.61769c-3.15884,-0.13993 -19.98752,-3.93806 -22.35749,-13.19686c-3.59544,-14.04638 7.98112,-35.55224 7.98112,-35.55224c0,0 2.18343,17.28848 10.74743,27.36727c5.38525,6.33782 16.76153,2.12857 18.61275,8.76414z" fill="#4f2373" stroke="#000000" stroke-width="0" stroke-linecap="butt"/><path d="M371.32342,96.40832c9.42165,-9.28208 13.12522,-26.30977 13.12522,-26.30977c0,0 9.62963,22.44525 4.80627,36.1187c-3.17938,9.01298 -20.27798,11.3082 -23.43682,11.16826c-7.95104,-0.35221 -16.89229,-5.7179 -13.80944,-13.89317c2.4307,-6.44589 13.39021,-1.24721 19.31478,-7.08402z" fill="#4f2373" stroke="#000000" stroke-width="0" stroke-linecap="butt"/><path d="M279.46422,117.36204c0.00762,-0.17181 0.04956,-0.33397 0.11893,-0.48017c-0.4224,-0.14232 -0.77033,-0.44068 -0.97872,-0.82392c-0.32841,0.49416 -0.90011,0.80905 -1.53606,0.78089c-0.81209,-0.03597 -1.47033,-0.61991 -1.63361,-1.37909c-0.27712,0.65347 -0.93833,1.09833 -1.68909,1.06507c-0.36674,-0.01624 -0.7021,-0.14425 -0.97468,-0.34968c-0.33805,0.39977 -0.8511,0.64416 -1.41458,0.61921c-0.96555,-0.04276 -1.71361,-0.86018 -1.67084,-1.82573c0.04276,-0.96555 0.86018,-1.71361 1.82573,-1.67084c0.36674,0.01624 0.7021,0.14425 0.97468,0.34968c0.33805,-0.39977 0.8511,-0.64416 1.41458,-0.61921c0.81209,0.03597 1.47033,0.61991 1.63361,1.37909c0.27712,-0.65347 0.93833,-1.09833 1.68909,-1.06507c0.63596,0.02817 1.17758,0.3924 1.461,0.91366c0.32841,-0.49416 0.90011,-0.80905 1.53606,-0.78089c0.44778,0.01983 0.84877,0.20627 1.1458,0.4968c0.32157,-0.26314 0.73748,-0.41336 1.18525,-0.39353c0.96555,0.04276 1.71361,0.86018 1.67084,1.82573c-0.04276,0.96555 -0.86018,1.71361 -1.82573,1.67084c-0.18031,-0.00799 -0.35302,-0.04299 -0.51442,-0.10091c0.05868,0.15447 0.0875,0.32317 0.07972,0.49873c-0.03055,0.68968 -0.6144,1.22401 -1.30409,1.19346c-0.68968,-0.03055 -1.22401,-0.6144 -1.19346,-1.30409z" fill="#3a1aaf" stroke="none" stroke-width="0.5" stroke-linecap="butt"/><path d="M287.22664,115.37028c0.03055,-0.68968 0.6144,-1.22401 1.30409,-1.19346c0.13657,0.00605 0.26707,0.0338 0.38826,0.07978c0.31249,-0.23379 0.70471,-0.36501 1.125,-0.3464c0.96555,0.04276 1.71361,0.86018 1.67084,1.82573c-0.04276,0.96555 -0.86018,1.71361 -1.82573,1.67084c-0.55952,-0.02478 -1.04602,-0.30969 -1.34789,-0.73282c-0.03995,0.00205 -0.08036,0.00222 -0.12114,0.00041c-0.68968,-0.03055 -1.22401,-0.6144 -1.19346,-1.30409z" fill="#3a1aaf" stroke="none" stroke-width="0.5" stroke-linecap="butt"/><path d="M293.56113,115.48406c0.04276,-0.96555 0.86018,-1.71361 1.82573,-1.67084c0.96555,0.04276 1.71361,0.86018 1.67084,1.82573c-0.04276,0.96555 -0.86018,1.71361 -1.82573,1.67084c-0.96555,-0.04276 -1.71361,-0.86018 -1.67084,-1.82573z" fill="#3a1aaf" stroke="none" stroke-width="0.5" stroke-linecap="butt"/><path d="M301.59018,115.00558c0.03055,-0.68968 0.6144,-1.22401 1.30409,-1.19346c0.5353,0.02371 0.97701,0.38075 1.13365,0.86188c0.29109,-0.18331 0.63906,-0.28287 1.00876,-0.26648c0.96555,0.04276 1.71361,0.86018 1.67084,1.82573c-0.04276,0.96555 -0.86018,1.71361 -1.82573,1.67084c-0.90628,-0.04016 -1.62097,-0.76276 -1.66991,-1.64975c-0.13477,0.04213 -0.27903,0.06195 -0.42825,0.05534c-0.68968,-0.03055 -1.22401,-0.6144 -1.19346,-1.30409z" fill="#3a1aaf" stroke="none" stroke-width="0.5" stroke-linecap="butt"/><path d="M308.3578,116.64001c0.04276,-0.96555 0.86018,-1.71361 1.82573,-1.67084c0.96555,0.04276 1.71361,0.86018 1.67084,1.82573c-0.04276,0.96555 -0.86018,1.71361 -1.82573,1.67084c-0.96555,-0.04276 -1.71361,-0.86018 -1.67084,-1.82573z" fill="#3a1aaf" stroke="none" stroke-width="0.5" stroke-linecap="butt"/><path d="M313.11265,118.51895c0.03055,-0.68968 0.6144,-1.22401 1.30409,-1.19346c0.17556,0.00778 0.34106,0.05141 0.48973,0.12352c-0.04344,-0.1659 -0.06302,-0.34103 -0.05504,-0.52134c0.04276,-0.96555 0.86018,-1.71361 1.82573,-1.67084c0.96555,0.04276 1.71361,0.86018 1.67084,1.82573c-0.04276,0.96555 -0.86018,1.71361 -1.82573,1.67084c-0.34143,-0.01513 -0.65568,-0.12713 -0.91738,-0.30826c0.0062,0.0604 0.00806,0.12198 0.00529,0.18445c-0.03055,0.68968 -0.6144,1.22401 -1.30409,1.19346c-0.68968,-0.03055 -1.22401,-0.6144 -1.19346,-1.30409z" fill="#3a1aaf" stroke="none" stroke-width="0.5" stroke-linecap="butt"/><path d="M322.85835,116.94869c0.04276,-0.96555 0.86018,-1.71361 1.82573,-1.67084c0.96555,0.04276 1.71361,0.86018 1.67084,1.82573c-0.04276,0.96555 -0.86018,1.71361 -1.82573,1.67084c-0.96555,-0.04276 -1.71361,-0.86018 -1.67084,-1.82573z" fill="#3a1aaf" stroke="none" stroke-width="0.5" stroke-linecap="butt"/><path d="M335.19903,117.05578c0.01607,0.00942 0.03192,0.0192 0.04752,0.02931c0.21902,-0.75876 0.935,-1.29792 1.75878,-1.26144c0.37145,0.01646 0.71071,0.14754 0.98514,0.35762c0.29193,-0.18498 0.64146,-0.28557 1.0129,-0.26911c0.96555,0.04276 1.71361,0.86018 1.67084,1.82573c-0.04276,0.96555 -0.86018,1.71361 -1.82573,1.67084c-0.37145,-0.01646 -0.71071,-0.14754 -0.98514,-0.35762c-0.29193,0.18498 -0.64146,0.28557 -1.0129,0.26911c-0.47728,-0.02114 -0.9014,-0.23156 -1.20316,-0.55557c-0.22665,0.3878 -0.65533,0.64008 -1.13527,0.61882c-0.39649,-0.01756 -0.74164,-0.21799 -0.95763,-0.51627c-0.21474,0.08073 -0.44897,0.1203 -0.69266,0.10951c-0.77909,-0.03452 -1.41658,-0.57336 -1.61128,-1.28742c-0.19519,0.52696 -0.63569,0.93073 -1.17747,1.07952c0.02472,0.10761 0.03548,0.2203 0.03037,0.33598c-0.03055,0.68968 -0.6144,1.22401 -1.30409,1.19346c-0.68968,-0.03055 -1.22401,-0.6144 -1.19346,-1.30409c0.01784,-0.40276 0.22438,-0.75254 0.5305,-0.96778c-0.18903,-0.29393 -0.29212,-0.6472 -0.27548,-1.02288c0.04276,-0.96555 0.86018,-1.71361 1.82573,-1.67084c0.77909,0.03452 1.41658,0.57336 1.61128,1.28742c0.25706,-0.69405 0.93971,-1.17442 1.71881,-1.13991c0.82227,0.03643 1.48679,0.63465 1.63952,1.40771c0.19778,0.01399 0.38205,0.07356 0.5429,0.16792z" fill="#3a1aaf" stroke="none" stroke-width="0.5" stroke-linecap="butt"/><path d="M345.24043,120.10897c0.01075,-0.24283 0.0901,-0.46641 0.21853,-0.65284c-0.49863,-0.32757 -0.81698,-0.9019 -0.78865,-1.54118c0.04276,-0.96555 0.86018,-1.71361 1.82573,-1.67084c0.96555,0.04276 1.71361,0.86018 1.67084,1.82573c-0.02405,0.54307 -0.29316,1.01733 -0.69586,1.32079c0.17919,0.22717 0.28078,0.51728 0.26696,0.82901c-0.03055,0.68968 -0.6144,1.22401 -1.30409,1.19346c-0.68968,-0.03055 -1.22401,-0.6144 -1.19346,-1.30409z" fill="#3a1aaf" stroke="none" stroke-width="0.5" stroke-linecap="butt"/><path d="M351.3378,118.04345c0.04276,-0.96555 0.86018,-1.71361 1.82573,-1.67084c0.96555,0.04276 1.71361,0.86018 1.67084,1.82573c-0.04276,0.96555 -0.86018,1.71361 -1.82573,1.67084c-0.96555,-0.04276 -1.71361,-0.86018 -1.67084,-1.82573z" fill="#3a1aaf" stroke="none" stroke-width="0.5" stroke-linecap="butt"/><path d="M357.79456,119.16362c0.04276,-0.96555 0.86018,-1.71361 1.82573,-1.67084c0.96555,0.04276 1.71361,0.86018 1.67084,1.82573c-0.04276,0.96555 -0.86018,1.71361 -1.82573,1.67084c-0.96555,-0.04276 -1.71361,-0.86018 -1.67084,-1.82573z" fill="#3a1aaf" stroke="none" stroke-width="0.5" stroke-linecap="butt"/><path d="M364.83196,118.47438c0.04276,-0.96555 0.86018,-1.71361 1.82573,-1.67084c0.96555,0.04276 1.71361,0.86018 1.67084,1.82573c-0.04276,0.96555 -0.86018,1.71361 -1.82573,1.67084c-0.96555,-0.04276 -1.71361,-0.86018 -1.67084,-1.82573z" fill="#3a1aaf" stroke="none" stroke-width="0.5" stroke-linecap="butt"/><path d="M373.75833,118.45272c0.06667,0.00295 0.13231,0.00961 0.19673,0.01974c0.21208,-0.07829 0.44294,-0.11652 0.68294,-0.10589c0.96555,0.04276 1.71361,0.86018 1.67084,1.82573c-0.04276,0.96555 -0.86018,1.71361 -1.82573,1.67084c-0.06667,-0.00295 -0.13231,-0.00961 -0.19673,-0.01974c-0.21208,0.07829 -0.44294,0.11652 -0.68294,0.10589c-0.95642,-0.04237 -1.69947,-0.84482 -1.67183,-1.79842c-0.33715,0.42343 -0.86538,0.68504 -1.44748,0.65926c-0.96555,-0.04276 -1.71361,-0.86018 -1.67084,-1.82573c0.04276,-0.96555 0.86018,-1.71361 1.82573,-1.67084c0.95642,0.04237 1.69947,0.84482 1.67183,1.79842c0.33715,-0.42343 0.86538,-0.68504 1.44748,-0.65926z" fill="#3a1aaf" stroke="none" stroke-width="0.5" stroke-linecap="butt"/><path d="M268.69579,121.30603c0.96555,0.04276 1.71361,0.86018 1.67084,1.82573c-0.04276,0.96555 -0.86018,1.71361 -1.82573,1.67084c-0.51434,-0.02278 -0.96697,-0.26539 -1.27122,-0.63309c-0.32106,0.52838 -0.91283,0.87001 -1.57409,0.84071c-0.96555,-0.04276 -1.71361,-0.86018 -1.67084,-1.82573c0.04276,-0.96555 0.86018,-1.71361 1.82573,-1.67084c0.51434,0.02278 0.96697,0.26539 1.27122,0.63309c0.32106,-0.52838 0.91283,-0.87001 1.57409,-0.84071z" fill="#551cba" stroke="none" stroke-width="0.5" stroke-linecap="butt"/><path d="M271.99479,124.03803c0.00801,-0.18061 0.05395,-0.35057 0.1298,-0.50251c-0.35741,-0.33706 -0.57161,-0.82185 -0.54817,-1.35115c0.04276,-0.96555 0.86018,-1.71361 1.82573,-1.67084c0.96555,0.04276 1.71361,0.86018 1.67084,1.82573c-0.02344,0.52931 -0.27967,0.99326 -0.66549,1.29738c0.06213,0.15806 0.09286,0.33141 0.08485,0.51202c-0.03055,0.68968 -0.6144,1.22401 -1.30409,1.19346c-0.68968,-0.03055 -1.22401,-0.6144 -1.19346,-1.30409z" fill="#551cba" stroke="none" stroke-width="0.5" stroke-linecap="butt"/><path d="M278.98793,124.34781c-0.03055,0.68968 -0.6144,1.22401 -1.30409,1.19346c-0.23056,-0.01021 -0.44377,-0.08226 -0.6243,-0.19943c-0.90072,-0.1077 -1.57949,-0.8939 -1.53867,-1.81494c0.04276,-0.96555 0.86018,-1.71361 1.82573,-1.67084c0.96555,0.04276 1.71361,0.86018 1.67084,1.82573c-0.00549,0.12392 -0.02374,0.24424 -0.05342,0.35978c0.02011,0.09857 0.02858,0.20118 0.02391,0.30623z" fill="#551cba" stroke="none" stroke-width="0.5" stroke-linecap="butt"/><path d="M286.83728,122.27648c0.96555,0.04276 1.71361,0.86018 1.67084,1.82573c-0.04276,0.96555 -0.86018,1.71361 -1.82573,1.67084c-0.44778,-0.01983 -0.84877,-0.20627 -1.1458,-0.4968c-0.32157,0.26314 -0.73748,0.41336 -1.18525,0.39353c-0.96555,-0.04276 -1.71361,-0.86018 -1.67084,-1.82573c0.04276,-0.96555 0.86018,-1.71361 1.82573,-1.67084c0.44778,0.01983 0.84877,0.20627 1.1458,0.4968c0.32157,-0.26314 0.73748,-0.41336 1.18525,-0.39353z" fill="#551cba" stroke="none" stroke-width="0.5" stroke-linecap="butt"/><path d="M290.02141,123.83559c0.04276,-0.96555 0.86018,-1.71361 1.82573,-1.67084c0.96555,0.04276 1.71361,0.86018 1.67084,1.82573c-0.04276,0.96555 -0.86018,1.71361 -1.82573,1.67084c-0.96555,-0.04276 -1.71361,-0.86018 -1.67084,-1.82573z" fill="#551cba" stroke="none" stroke-width="0.5" stroke-linecap="butt"/><path d="M298.36134,123.87138c0.04276,-0.96555 0.86018,-1.71361 1.82573,-1.67084c0.96555,0.04276 1.71361,0.86018 1.67084,1.82573c-0.04276,0.96555 -0.86018,1.71361 -1.82573,1.67084c-0.96555,-0.04276 -1.71361,-0.86018 -1.67084,-1.82573z" fill="#551cba" stroke="none" stroke-width="0.5" stroke-linecap="butt"/><path d="M305.66535,124.69542c0.04276,-0.96555 0.86018,-1.71361 1.82573,-1.67084c0.96555,0.04276 1.71361,0.86018 1.67084,1.82573c-0.04276,0.96555 -0.86018,1.71361 -1.82573,1.67084c-0.96555,-0.04276 -1.71361,-0.86018 -1.67084,-1.82573z" fill="#551cba" stroke="none" stroke-width="0.5" stroke-linecap="butt"/><path d="M314.89522,125.35453c0.68968,0.03055 1.22401,0.6144 1.19346,1.30409c-0.03055,0.68968 -0.6144,1.22401 -1.30409,1.19346c-0.6627,-0.02935 -1.18196,-0.56959 -1.19447,-1.22368c-0.23255,0.09855 -0.49017,0.14808 -0.75931,0.13615c-0.96555,-0.04276 -1.71361,-0.86018 -1.67084,-1.82573c0.04276,-0.96555 0.86018,-1.71361 1.82573,-1.67084c0.96555,0.04276 1.71361,0.86018 1.67084,1.82573c-0.00422,0.09511 -0.01594,0.18813 -0.0346,0.27848c0.08842,-0.01557 0.17988,-0.02179 0.27329,-0.01766z" fill="#551cba" stroke="none" stroke-width="0.5" stroke-linecap="butt"/><path d="M321.63577,125.45777c-0.08985,-0.2242 -0.13449,-0.47068 -0.1231,-0.72768c0.04276,-0.96555 0.86018,-1.71361 1.82573,-1.67084c0.96555,0.04276 1.71361,0.86018 1.67084,1.82573c-0.04276,0.96555 -0.86018,1.71361 -1.82573,1.67084c-0.36083,-0.01599 -0.69129,-0.14015 -0.96148,-0.33981c0.03291,0.12148 0.04787,0.25003 0.04201,0.38249c-0.03055,0.68968 -0.6144,1.22401 -1.30409,1.19346c-0.56701,-0.02512 -1.02902,-0.42421 -1.15846,-0.94864c-0.15046,0.03451 -0.30801,0.04951 -0.46971,0.04235c-0.96555,-0.04276 -1.71361,-0.86018 -1.67084,-1.82573c0.04276,-0.96555 0.86018,-1.71361 1.82573,-1.67084c0.96555,0.04276 1.71361,0.86018 1.67084,1.82573c-0.00127,0.02878 -0.00324,0.05737 -0.00587,0.08575c0.17525,0.01906 0.33898,0.07404 0.48411,0.15716z" fill="#551cba" stroke="none" stroke-width="0.5" stroke-linecap="butt"/><path d="M331.64726,125.67952c-0.04276,0.96555 -0.86018,1.71361 -1.82573,1.67084c-0.48477,-0.02148 -0.91473,-0.23821 -1.2173,-0.57094c-0.84624,-0.15518 -1.46957,-0.91482 -1.43044,-1.79856c0.04276,-0.96555 0.86018,-1.71361 1.82573,-1.67084c0.48477,0.02148 0.91473,0.23821 1.2173,0.57094c0.84624,0.15518 1.46957,0.91482 1.43044,1.79856z" fill="#551cba" stroke="none" stroke-width="0.5" stroke-linecap="butt"/><path d="M333.64529,125.76805c0.04276,-0.96555 0.86018,-1.71361 1.82573,-1.67084c0.96555,0.04276 1.71361,0.86018 1.67084,1.82573c-0.04276,0.96555 -0.86018,1.71361 -1.82573,1.67084c-0.96555,-0.04276 -1.71361,-0.86018 -1.67084,-1.82573z" fill="#551cba" stroke="none" stroke-width="0.5" stroke-linecap="butt"/><path d="M339.82068,125.70794c0.04276,-0.96555 0.86018,-1.71361 1.82573,-1.67084c0.96555,0.04276 1.71361,0.86018 1.67084,1.82573c-0.04276,0.96555 -0.86018,1.71361 -1.82573,1.67084c-0.96555,-0.04276 -1.71361,-0.86018 -1.67084,-1.82573z" fill="#551cba" stroke="none" stroke-width="0.5" stroke-linecap="butt"/><path d="M347.81284,126.06199c0.04276,-0.96555 0.86018,-1.71361 1.82573,-1.67084c0.96555,0.04276 1.71361,0.86018 1.67084,1.82573c-0.04276,0.96555 -0.86018,1.71361 -1.82573,1.67084c-0.96555,-0.04276 -1.71361,-0.86018 -1.67084,-1.82573z" fill="#551cba" stroke="none" stroke-width="0.5" stroke-linecap="butt"/><path d="M352.63406,126.44237c0.04276,-0.96555 0.86018,-1.71361 1.82573,-1.67084c0.96555,0.04276 1.71361,0.86018 1.67084,1.82573c-0.04276,0.96555 -0.86018,1.71361 -1.82573,1.67084c-0.96555,-0.04276 -1.71361,-0.86018 -1.67084,-1.82573z" fill="#551cba" stroke="none" stroke-width="0.5" stroke-linecap="butt"/><path d="M359.58295,127.75117c0.04276,-0.96555 0.86018,-1.71361 1.82573,-1.67084c0.96555,0.04276 1.71361,0.86018 1.67084,1.82573c-0.04276,0.96555 -0.86018,1.71361 -1.82573,1.67084c-0.96555,-0.04276 -1.71361,-0.86018 -1.67084,-1.82573z" fill="#551cba" stroke="none" stroke-width="0.5" stroke-linecap="butt"/><path d="M364.18603,129.28972c0.00798,-0.18001 0.05364,-0.34944 0.12904,-0.50099c-0.25988,-0.32068 -0.408,-0.73402 -0.3883,-1.17879c0.04276,-0.96555 0.86018,-1.71361 1.82573,-1.67084c0.96555,0.04276 1.71361,0.86018 1.67084,1.82573c-0.02526,0.57011 -0.32057,1.06438 -0.75698,1.36483c0.01523,0.08761 0.0213,0.17821 0.01721,0.2707c-0.03055,0.68968 -0.6144,1.22401 -1.30409,1.19346c-0.68968,-0.03055 -1.22401,-0.6144 -1.19346,-1.30409z" fill="#551cba" stroke="none" stroke-width="0.5" stroke-linecap="butt"/><path d="M369.59527,127.69421c0.04276,-0.96555 0.86018,-1.71361 1.82573,-1.67084c0.96555,0.04276 1.71361,0.86018 1.67084,1.82573c-0.04276,0.96555 -0.86018,1.71361 -1.82573,1.67084c-0.96555,-0.04276 -1.71361,-0.86018 -1.67084,-1.82573z" fill="#551cba" stroke="none" stroke-width="0.5" stroke-linecap="butt"/><path d="M378.4289,126.00014c0.96555,0.04276 1.71361,0.86018 1.67084,1.82573c-0.04276,0.96555 -0.86018,1.71361 -1.82573,1.67084c-0.4251,-0.01883 -0.80804,-0.1878 -1.09988,-0.45348c-0.26522,0.1395 -0.56981,0.21267 -0.89078,0.19846c-0.96555,-0.04276 -1.71361,-0.86018 -1.67084,-1.82573c0.04276,-0.96555 0.86018,-1.71361 1.82573,-1.67084c0.4251,0.01883 0.80804,0.1878 1.09988,0.45348c0.26522,-0.1395 0.56981,-0.21267 0.89078,-0.19846z" fill="#551cba" stroke="none" stroke-width="0.5" stroke-linecap="butt"/><path d="M264.77457,126.97137c0.96555,0.04276 1.71361,0.86018 1.67084,1.82573c-0.04276,0.96555 -0.86018,1.71361 -1.82573,1.67084c-0.32096,-0.01422 -0.61791,-0.11405 -0.86975,-0.27644c-0.3142,0.23881 -0.71057,0.37327 -1.13566,0.35445c-0.96555,-0.04276 -1.71361,-0.86018 -1.67084,-1.82573c0.04276,-0.96555 0.86018,-1.71361 1.82573,-1.67084c0.32096,0.01422 0.61791,0.11405 0.86975,0.27644c0.3142,-0.23881 0.71057,-0.37327 1.13566,-0.35445z" fill="#7822e0" stroke="none" stroke-width="0.5" stroke-linecap="butt"/><path d="M378.58755,135.5999c0.00488,-0.10994 0.0238,-0.21595 0.05498,-0.31634c-0.33509,0.33488 -0.80424,0.53339 -1.31482,0.51077c-0.05615,-0.00249 -0.11158,-0.00759 -0.16616,-0.01519c-0.05503,0.00275 -0.11069,0.00293 -0.16686,0.00045c-0.96555,-0.04276 -1.71361,-0.86018 -1.67084,-1.82573c0.04276,-0.96555 0.86018,-1.71361 1.82573,-1.67084c0.05615,0.00249 0.11158,0.00759 0.16616,0.01519c0.05503,-0.00275 0.11069,-0.00293 0.16686,-0.00045c0.96555,0.04276 1.71361,0.86018 1.67084,1.82573c-0.00903,0.2042 -0.05274,0.39868 -0.12514,0.578c0.1716,-0.14546 0.38258,-0.24515 0.61346,-0.28129c0.0724,-0.93712 0.8762,-1.65432 1.82218,-1.61243c0.96555,0.04276 1.71361,0.86018 1.67084,1.82573c-0.04276,0.96555 -0.86018,1.71361 -1.82573,1.67084c-0.12822,-0.00568 -0.25259,-0.02502 -0.37179,-0.05655c-0.22047,0.40886 -0.66108,0.6781 -1.15625,0.65617c-0.68968,-0.03055 -1.22401,-0.6144 -1.19346,-1.30409z" fill="#7822e0" stroke="none" stroke-width="0.5" stroke-linecap="butt"/><path d="M369.32975,133.68833c0.04276,-0.96555 0.86018,-1.71361 1.82573,-1.67084c0.38375,0.017 0.7331,0.15635 1.01215,0.3787c0.26781,0.01606 0.51831,0.09177 0.73912,0.2136c0.07376,-0.00612 0.14875,-0.00765 0.22466,-0.0043c0.96555,0.04276 1.71361,0.86018 1.67084,1.82573c-0.04276,0.96555 -0.86018,1.71361 -1.82573,1.67084c-0.2783,-0.01234 -0.53855,-0.08901 -0.76699,-0.21505c-0.07376,0.00612 -0.14875,0.00765 -0.22466,0.0043c-0.38375,-0.017 -0.7331,-0.15635 -1.01215,-0.3787c-0.95203,-0.05709 -1.68532,-0.86804 -1.64296,-1.82428z" fill="#7822e0" stroke="none" stroke-width="0.5" stroke-linecap="butt"/><path d="M367.51452,131.35571c0.96555,0.04276 1.71361,0.86018 1.67084,1.82573c-0.04276,0.96555 -0.86018,1.71361 -1.82573,1.67084c-0.54704,-0.02423 -1.02428,-0.2971 -1.32742,-0.70471c-0.27552,0.65694 -0.93858,1.10482 -1.69177,1.07144c-0.96555,-0.04276 -1.71361,-0.86018 -1.67084,-1.82573c0.04276,-0.96555 0.86018,-1.71361 1.82573,-1.67084c0.54704,0.02423 1.02428,0.2971 1.32742,0.70471c0.27552,-0.65694 0.93858,-1.10482 1.69177,-1.07144z" fill="#7822e0" stroke="none" stroke-width="0.5" stroke-linecap="butt"/><path d="M326.88614,131.47451c0.04276,-0.96555 0.86018,-1.71361 1.82573,-1.67084c0.72753,0.03222 1.33158,0.50426 1.56689,1.14806c0.19334,-0.79645 0.92827,-1.37119 1.77794,-1.33355c0.96555,0.04276 1.71361,0.86018 1.67084,1.82573c-0.04276,0.96555 -0.86018,1.71361 -1.82573,1.67084c-0.72753,-0.03222 -1.33158,-0.50426 -1.56689,-1.14806c-0.19334,0.79645 -0.92827,1.37119 -1.77794,1.33355c-0.96555,-0.04276 -1.71361,-0.86018 -1.67084,-1.82573z" fill="#7822e0" stroke="none" stroke-width="0.5" stroke-linecap="butt"/><path d="M325.07673,130.89386c-0.04276,0.96555 -0.86018,1.71361 -1.82573,1.67084c-0.56768,-0.02515 -1.06018,-0.31805 -1.36097,-0.75141c-0.40506,-0.33795 -0.65327,-0.85441 -0.62812,-1.42207c0.04276,-0.96555 0.86018,-1.71361 1.82573,-1.67084c0.56768,0.02515 1.06018,0.31805 1.36097,0.75141c0.40506,0.33795 0.65327,0.85441 0.62812,1.42207z" fill="#7822e0" stroke="none" stroke-width="0.5" stroke-linecap="butt"/><path d="M315.39582,132.88406c-0.61454,-0.02723 -1.10574,-0.49376 -1.18387,-1.08302c-0.0346,-0.05029 -0.06662,-0.10244 -0.09589,-0.15626c-0.32841,0.49416 -0.90011,0.80905 -1.53606,0.78089c-0.96555,-0.04276 -1.71361,-0.86018 -1.67084,-1.82573c0.04276,-0.96555 0.86018,-1.71361 1.82573,-1.67084c0.61808,0.02737 1.14704,0.37218 1.43648,0.87007c0.2297,-0.74186 0.93705,-1.26542 1.74921,-1.22944c0.96555,0.04276 1.71361,0.86018 1.67084,1.82573c-0.01271,0.28695 -0.09383,0.55469 -0.22696,0.78818c-0.11139,0.51286 -0.44615,0.93822 -0.8935,1.17469c-0.23759,0.33447 -0.63481,0.54523 -1.07515,0.52574z" fill="#7822e0" stroke="none" stroke-width="0.5" stroke-linecap="butt"/><path d="M266.45279,128.63061c0.04276,-0.96555 0.86018,-1.71361 1.82573,-1.67084c0.96555,0.04276 1.71361,0.86018 1.67084,1.82573c-0.04276,0.96555 -0.86018,1.71361 -1.82573,1.67084c-0.96555,-0.04276 -1.71361,-0.86018 -1.67084,-1.82573z" fill="#7822e0" stroke="none" stroke-width="0.5" stroke-linecap="butt"/><path d="M271.38889,130.1839c0.02709,-0.61148 0.48912,-1.10084 1.07424,-1.18265c-0.00981,-0.08882 -0.01292,-0.17955 -0.00884,-0.27161c0.04153,-0.93747 0.8133,-1.66994 1.7419,-1.67258c0.232,-0.09796 0.48888,-0.14715 0.75722,-0.13527c0.43907,0.01945 0.83317,0.19908 1.12838,0.48c0.19267,0.09078 0.35777,0.22912 0.48086,0.39928c0.33793,-0.37646 0.8356,-0.60414 1.38045,-0.58c0.96555,0.04276 1.71361,0.86018 1.67084,1.82573c-0.04276,0.96555 -0.86018,1.71361 -1.82573,1.67084c-0.67223,-0.02977 -1.23904,-0.43504 -1.50695,-1.00435c-0.31928,0.42929 -0.82963,0.70519 -1.3989,0.70682c-0.232,0.09796 -0.48888,0.14715 -0.75722,0.13527c-0.09206,-0.00408 -0.18216,-0.01519 -0.26977,-0.03282c-0.13323,0.57559 -0.66154,0.99255 -1.27302,0.96547c-0.68968,-0.03055 -1.22401,-0.6144 -1.19346,-1.30409z" fill="#7822e0" stroke="none" stroke-width="0.5" stroke-linecap="butt"/><path d="M270.5689,148.51345c0.57389,-12.95531 11.54148,-22.99241 24.49678,-22.41851c12.95531,0.57389 22.9924,11.54147 22.41851,24.49677c-0.57389,12.95531 -11.54147,22.99241 -24.49676,22.41852c-12.95531,-0.57389 -22.99242,-11.54148 -22.41852,-24.49677z" fill="url(#color-1)" stroke="#000000" stroke-width="0" stroke-linecap="butt"/><path d="M347.19273,175.41143c-12.95531,-0.57389 -22.99241,-11.54148 -22.41851,-24.49678c0.57389,-12.95531 11.54147,-22.9924 24.49677,-22.41851c12.95531,0.57389 22.99241,11.54147 22.41852,24.49676c-0.57389,12.95531 -11.54148,22.99242 -24.49677,22.41852z" fill="url(#color-2)" stroke="#000000" stroke-width="0" stroke-linecap="butt"/><path d="M274.87274,119.32744c0.03055,-0.68968 0.6144,-1.22401 1.30409,-1.19346c0.68968,0.03055 1.22401,0.6144 1.19346,1.30409c-0.03055,0.68968 -0.6144,1.22401 -1.30409,1.19346c-0.68968,-0.03055 -1.22401,-0.6144 -1.19346,-1.30409z" fill="#3a1aaf" stroke="none" stroke-width="0.5" stroke-linecap="butt"/><path d="M292.37773,119.60239c0.03055,-0.68968 0.6144,-1.22401 1.30409,-1.19346c0.68968,0.03055 1.22401,0.6144 1.19346,1.30409c-0.03055,0.68968 -0.6144,1.22401 -1.30409,1.19346c-0.68968,-0.03055 -1.22401,-0.6144 -1.19346,-1.30409z" fill="#3a1aaf" stroke="none" stroke-width="0.5" stroke-linecap="butt"/><path d="M297.28744,117.98475c0.03055,-0.68968 0.6144,-1.22401 1.30409,-1.19346c0.68968,0.03055 1.22401,0.6144 1.19346,1.30409c-0.03055,0.68968 -0.6144,1.22401 -1.30409,1.19346c-0.68968,-0.03055 -1.22401,-0.6144 -1.19346,-1.30409z" fill="#3a1aaf" stroke="none" stroke-width="0.5" stroke-linecap="butt"/><path d="M319.89928,123.49082c0.00227,-0.05108 0.00958,-0.10074 0.02145,-0.14851c-0.48535,-0.189 -0.8193,-0.67114 -0.79497,-1.2204c0.03055,-0.68968 0.6144,-1.22401 1.30409,-1.19346c0.68968,0.03055 1.22401,0.6144 1.19346,1.30409c-0.01464,0.33063 -0.15644,0.62555 -0.37611,0.83965c0.10153,0.13439 0.15863,0.30358 0.15061,0.485c-0.01833,0.41381 -0.36865,0.73441 -0.78246,0.71607c-0.41381,-0.01833 -0.73441,-0.36865 -0.71607,-0.78246z" fill="#3a1aaf" stroke="none" stroke-width="0.5" stroke-linecap="butt"/><path d="M321.81931,121.57392c0.03055,-0.68968 0.6144,-1.22401 1.30409,-1.19346c0.68968,0.03055 1.22401,0.6144 1.19346,1.30409c-0.03055,0.68968 -0.6144,1.22401 -1.30409,1.19346c-0.68968,-0.03055 -1.22401,-0.6144 -1.19346,-1.30409z" fill="#3a1aaf" stroke="none" stroke-width="0.5" stroke-linecap="butt"/><path d="M356.30026,122.76768c0.03055,-0.68968 0.6144,-1.22401 1.30409,-1.19346c0.68968,0.03055 1.22401,0.6144 1.19346,1.30409c-0.03055,0.68968 -0.6144,1.22401 -1.30409,1.19346c-0.68968,-0.03055 -1.22401,-0.6144 -1.19346,-1.30409z" fill="#3a1aaf" stroke="none" stroke-width="0.5" stroke-linecap="butt"/><path d="M362.61265,123.38097c0.03055,-0.68968 0.6144,-1.22401 1.30409,-1.19346c0.68968,0.03055 1.22401,0.6144 1.19346,1.30409c-0.03055,0.68968 -0.6144,1.22401 -1.30409,1.19346c-0.68968,-0.03055 -1.22401,-0.6144 -1.19346,-1.30409z" fill="#3a1aaf" stroke="none" stroke-width="0.5" stroke-linecap="butt"/><path d="M366.68985,121.72646c0.03055,-0.68968 0.6144,-1.22401 1.30409,-1.19346c0.68968,0.03055 1.22401,0.6144 1.19346,1.30409c-0.03055,0.68968 -0.6144,1.22401 -1.30409,1.19346c-0.68968,-0.03055 -1.22401,-0.6144 -1.19346,-1.30409z" fill="#3a1aaf" stroke="none" stroke-width="0.5" stroke-linecap="butt"/><path d="M266.31578,127.95721c0.01833,-0.41381 0.36865,-0.73441 0.78246,-0.71607c0.03733,0.00165 0.0739,0.00601 0.10953,0.01287c-0.01377,-0.08395 -0.01914,-0.17057 -0.01521,-0.25894c0.03055,-0.68968 0.6144,-1.22401 1.30409,-1.19346c0.68968,0.03055 1.22401,0.6144 1.19346,1.30409c-0.03055,0.68968 -0.6144,1.22401 -1.30409,1.19346c-0.21325,-0.00944 -0.41166,-0.0718 -0.58311,-0.17382c-0.06597,0.36333 -0.39185,0.63113 -0.77104,0.61434c-0.41381,-0.01833 -0.73441,-0.36865 -0.71607,-0.78246z" fill="#551cba" stroke="none" stroke-width="0.5" stroke-linecap="butt"/><path d="M280.22408,126.57136c0.03055,-0.68968 0.6144,-1.22401 1.30409,-1.19346c0.68968,0.03055 1.22401,0.6144 1.19346,1.30409c-0.03055,0.68968 -0.6144,1.22401 -1.30409,1.19346c-0.68968,-0.03055 -1.22401,-0.6144 -1.19346,-1.30409z" fill="#551cba" stroke="none" stroke-width="0.5" stroke-linecap="butt"/><path d="M310.50556,128.41326c0.03055,-0.68968 0.6144,-1.22401 1.30409,-1.19346c0.68968,0.03055 1.22401,0.6144 1.19346,1.30409c-0.03055,0.68968 -0.6144,1.22401 -1.30409,1.19346c-0.68968,-0.03055 -1.22401,-0.6144 -1.19346,-1.30409z" fill="#551cba" stroke="none" stroke-width="0.5" stroke-linecap="butt"/><path d="M325.29485,129.73572c0.00243,-0.0551 0.01077,-0.10856 0.02436,-0.15977c-0.13725,0.04401 -0.28451,0.06484 -0.43692,0.05809c-0.68968,-0.03055 -1.22401,-0.6144 -1.19346,-1.30409c0.03055,-0.68968 0.6144,-1.22401 1.30409,-1.19346c0.68968,0.03055 1.22401,0.6144 1.19346,1.30409c-0.00937,0.2115 -0.07077,0.40839 -0.17131,0.57885c0.02057,-0.00076 0.04132,-0.00071 0.06224,0.0002c0.09,0.004 0.17561,0.02369 0.25427,0.05632c-0.00243,-0.04235 -0.00274,-0.08521 -0.00082,-0.12851c0.03055,-0.68968 0.6144,-1.22401 1.30409,-1.19346c0.68968,0.03055 1.22401,0.6144 1.19346,1.30409c-0.03055,0.68968 -0.6144,1.22401 -1.30409,1.19346c-0.28832,-0.01277 -0.5495,-0.12224 -0.7536,-0.29574c-0.08622,0.33656 -0.39882,0.57834 -0.75968,0.56235c-0.41381,-0.01833 -0.73441,-0.36865 -0.71607,-0.78246z" fill="#551cba" stroke="none" stroke-width="0.5" stroke-linecap="butt"/><path d="M331.02973,128.32145c0.03055,-0.68968 0.6144,-1.22401 1.30409,-1.19346c0.68968,0.03055 1.22401,0.6144 1.19346,1.30409c-0.03055,0.68968 -0.6144,1.22401 -1.30409,1.19346c-0.68968,-0.03055 -1.22401,-0.6144 -1.19346,-1.30409z" fill="#551cba" stroke="none" stroke-width="0.5" stroke-linecap="butt"/><path d="M366.97234,130.41413c0.03055,-0.68968 0.6144,-1.22401 1.30409,-1.19346c0.68968,0.03055 1.22401,0.6144 1.19346,1.30409c-0.03055,0.68968 -0.6144,1.22401 -1.30409,1.19346c-0.68968,-0.03055 -1.22401,-0.6144 -1.19346,-1.30409z" fill="#551cba" stroke="none" stroke-width="0.5" stroke-linecap="butt"/><path d="M371.98642,133.97285c0.00563,-0.12715 0.04261,-0.24549 0.10314,-0.34791c-0.43484,-0.21135 -0.72553,-0.66639 -0.70277,-1.18012c0.03055,-0.68968 0.6144,-1.22401 1.30409,-1.19346c0.68968,0.03055 1.22401,0.6144 1.19346,1.30409c-0.0184,0.41511 -0.23721,0.77393 -0.55892,0.9872c0.10712,0.13619 0.1678,0.30993 0.15953,0.49658c-0.01833,0.41381 -0.36865,0.73441 -0.78246,0.71607c-0.41381,-0.01833 -0.73441,-0.36865 -0.71607,-0.78246z" fill="#551cba" stroke="none" stroke-width="0.5" stroke-linecap="butt"/><path d="M375.10888,131.27506c0.03055,-0.68968 0.6144,-1.22401 1.30409,-1.19346c0.68968,0.03055 1.22401,0.6144 1.19346,1.30409c-0.03055,0.68968 -0.6144,1.22401 -1.30409,1.19346c-0.68968,-0.03055 -1.22401,-0.6144 -1.19346,-1.30409z" fill="#551cba" stroke="none" stroke-width="0.5" stroke-linecap="butt"/><path d="M265.02173,134.5731c0.03055,-0.68968 0.6144,-1.22401 1.30409,-1.19346c0.68968,0.03055 1.22401,0.6144 1.19346,1.30409c-0.03055,0.68968 -0.6144,1.22401 -1.30409,1.19346c-0.68968,-0.03055 -1.22401,-0.6144 -1.19346,-1.30409z" fill="#7822e0" stroke="none" stroke-width="0.5" stroke-linecap="butt"/><path d="M320.4705,133.19227c-0.03055,0.68968 -0.6144,1.22401 -1.30409,1.19346c-0.6274,-0.02779 -1.12624,-0.51348 -1.18821,-1.12017c-0.48456,-0.18939 -0.81781,-0.67111 -0.79349,-1.21982c0.03055,-0.68968 0.6144,-1.22401 1.30409,-1.19346c0.6274,0.02779 1.12624,0.51348 1.18821,1.12017c0.48456,0.18939 0.81781,0.67111 0.79349,1.21982z" fill="#7822e0" stroke="none" stroke-width="0.5" stroke-linecap="butt"/><path d="M320.88887,135.04593c0.03055,-0.68968 0.6144,-1.22401 1.30409,-1.19346c0.68968,0.03055 1.22401,0.6144 1.19346,1.30409c-0.03055,0.68968 -0.6144,1.22401 -1.30409,1.19346c-0.68968,-0.03055 -1.22401,-0.6144 -1.19346,-1.30409z" fill="#7822e0" stroke="none" stroke-width="0.5" stroke-linecap="butt"/><path d="M369.68912,136.87402c0.03055,-0.68968 0.6144,-1.22401 1.30409,-1.19346c0.68968,0.03055 1.22401,0.6144 1.19346,1.30409c-0.03055,0.68968 -0.6144,1.22401 -1.30409,1.19346c-0.68968,-0.03055 -1.22401,-0.6144 -1.19346,-1.30409z" fill="#7822e0" stroke="none" stroke-width="0.5" stroke-linecap="butt"/><path d="M374.49559,137.58742c0.03055,-0.68968 0.6144,-1.22401 1.30409,-1.19346c0.68968,0.03055 1.22401,0.6144 1.19346,1.30409c-0.03055,0.68968 -0.6144,1.22401 -1.30409,1.19346c-0.68968,-0.03055 -1.22401,-0.6144 -1.19346,-1.30409z" fill="#7822e0" stroke="none" stroke-width="0.5" stroke-linecap="butt"/><path d="M279.30932,120.85861c0.01833,-0.41381 0.36865,-0.73441 0.78246,-0.71607c0.41381,0.01833 0.73441,0.36865 0.71607,0.78246c-0.01833,0.41381 -0.36865,0.73441 -0.78246,0.71607c-0.41381,-0.01833 -0.73441,-0.36865 -0.71607,-0.78246z" fill="#3a1aaf" stroke="none" stroke-width="0.5" stroke-linecap="butt"/><path d="M295.27152,122.06619c0.01833,-0.41381 0.36865,-0.73441 0.78246,-0.71607c0.41381,0.01833 0.73441,0.36865 0.71607,0.78246c-0.01833,0.41381 -0.36865,0.73441 -0.78246,0.71607c-0.41381,-0.01833 -0.73441,-0.36865 -0.71607,-0.78246z" fill="#3a1aaf" stroke="none" stroke-width="0.5" stroke-linecap="butt"/><path d="M360.37435,124.95012c0.01833,-0.41381 0.36865,-0.73441 0.78246,-0.71607c0.41381,0.01833 0.73441,0.36865 0.71607,0.78246c-0.01833,0.41381 -0.36865,0.73441 -0.78246,0.71607c-0.41381,-0.01833 -0.73441,-0.36865 -0.71607,-0.78246z" fill="#3a1aaf" stroke="none" stroke-width="0.5" stroke-linecap="butt"/><path d="M364.50004,125.96703c0.01833,-0.41381 0.36865,-0.73441 0.78246,-0.71607c0.41381,0.01833 0.73441,0.36865 0.71607,0.78246c-0.01833,0.41381 -0.36865,0.73441 -0.78246,0.71607c-0.41381,-0.01833 -0.73441,-0.36865 -0.71607,-0.78246z" fill="#3a1aaf" stroke="none" stroke-width="0.5" stroke-linecap="butt"/><path d="M312.08209,130.48506c0.01833,-0.41381 0.36865,-0.73441 0.78246,-0.71607c0.41381,0.01833 0.73441,0.36865 0.71607,0.78246c-0.01833,0.41381 -0.36865,0.73441 -0.78246,0.71607c-0.41381,-0.01833 -0.73441,-0.36865 -0.71607,-0.78246z" fill="#551cba" stroke="none" stroke-width="0.5" stroke-linecap="butt"/><path d="M331.23734,131.16677c0.01833,-0.41381 0.36865,-0.73441 0.78246,-0.71607c0.41381,0.01833 0.73441,0.36865 0.71607,0.78246c-0.01833,0.41381 -0.36865,0.73441 -0.78246,0.71607c-0.41381,-0.01833 -0.73441,-0.36865 -0.71607,-0.78246z" fill="#551cba" stroke="none" stroke-width="0.5" stroke-linecap="butt"/><path d="M267.18313,138.50593c0.01833,-0.41381 0.36865,-0.73441 0.78246,-0.71607c0.41381,0.01833 0.73441,0.36865 0.71607,0.78246c-0.01833,0.41381 -0.36865,0.73441 -0.78246,0.71607c-0.41381,-0.01833 -0.73441,-0.36865 -0.71607,-0.78246z" fill="#7822e0" stroke="none" stroke-width="0.5" stroke-linecap="butt"/><path d="M320.11222,137.51398c0.01833,-0.41381 0.36865,-0.73441 0.78246,-0.71607c0.41381,0.01833 0.73441,0.36865 0.71607,0.78246c-0.01833,0.41381 -0.36865,0.73441 -0.78246,0.71607c-0.41381,-0.01833 -0.73441,-0.36865 -0.71607,-0.78246z" fill="#7822e0" stroke="none" stroke-width="0.5" stroke-linecap="butt"/><path d="M373.55243,140.0481c0.01833,-0.41381 0.36865,-0.73441 0.78246,-0.71607c0.41381,0.01833 0.73441,0.36865 0.71607,0.78246c-0.01833,0.41381 -0.36865,0.73441 -0.78246,0.71607c-0.41381,-0.01833 -0.73441,-0.36865 -0.71607,-0.78246z" fill="#7822e0" stroke="none" stroke-width="0.5" stroke-linecap="butt"/></g><path d="M303.9938,128.51119c-1.8146,3.49629 -5.52136,5.38346 -9.71562,5.19767c-4.06111,-0.17989 -7.50263,-2.08578 -9.07558,-5.54983c-0.31976,-0.70421 4.46905,-2.33647 9.18955,-2.21804c4.99774,0.1254 9.95013,1.89867 9.60161,2.57021z" fill="#000000" stroke="#000000" stroke-width="0" stroke-linecap="butt"/><path d="M357.11034,130.35485c-1.70656,3.41498 -5.30701,5.68884 -9.36712,5.50897c-3.88065,-0.1719 -7.01478,-2.24775 -8.51637,-5.55866c-0.32813,-0.72347 4.9702,-2.06415 9.83004,-1.92192c4.43516,0.12982 8.34275,1.3927 8.05346,1.9716z" fill="#000000" stroke="#000000" stroke-width="0" stroke-linecap="butt"/></g><g stroke="none" stroke-width="0" stroke-linecap="butt"><path d="M346.95358,230.66501c-1.13162,25.54574 25.76738,49.79978 -30.74741,45.58394c-62.88378,-4.69095 -28.96219,-21.83232 -27.83057,-47.37804c1.13162,-25.54573 19.29361,-45.69094 31.92855,-45.13124c12.63493,0.5597 27.78107,21.3796 26.64945,46.92534z" fill="#000000"/><path d="M308.79829,191.09613c2.69228,-0.02364 0.08152,9.28535 0.08152,9.28535c0,0 -2.77381,-9.26171 -0.08152,-9.28535z" fill="#e2e2e2"/><path d="M312.5103,188.40579c2.68505,0.1985 -0.6846,9.26044 -0.6846,9.26044c0,0 -2.00046,-9.45893 0.6846,-9.26044z" fill="#e2e2e2"/><path d="M328.43233,200.96164c0,0 -1.77741,-9.50338 0.90223,-9.24178c2.67964,0.2616 -0.90223,9.24178 -0.90223,9.24178z" fill="#e2e2e2"/><path d="M326.37257,198.02462c0,0 -2.55519,-9.32441 0.13691,-9.2847c2.6921,0.03969 -0.13691,9.2847 -0.13691,9.2847z" fill="#e2e2e2"/><path d="M323.26179,196.02988c0,0 -2.4483,-9.35303 0.24317,-9.28252c2.69146,0.0705 -0.24317,9.28252 -0.24317,9.28252z" fill="#e2e2e2"/><path d="M316.03434,186.27342c2.68716,0.16775 -0.57857,9.26767 -0.57857,9.26767c0,0 -2.1086,-9.43542 0.57857,-9.26767z" fill="#e2e2e2"/><path d="M318.71006,184.78323c2.68716,0.16775 -0.57857,9.26767 -0.57857,9.26767c0,0 -2.1086,-9.43542 0.57857,-9.26767z" fill="#e2e2e2"/><path d="M321.09146,194.18202c0,0 -2.44829,-9.35304 0.24317,-9.28253c2.69146,0.0705 -0.24317,9.28253 -0.24317,9.28253z" fill="#e2e2e2"/></g><g stroke="none" stroke-width="0" stroke-linecap="butt"><path d="M299.83449,262.33732c-0.45094,10.17978 -9.20992,18.06033 -19.56371,17.60168c-10.35381,-0.45865 -18.38166,-9.08282 -17.93072,-19.2626c0.45094,-10.17978 1.20351,-19.26134 19.56371,-17.60168c29.16614,2.63645 18.38166,9.08281 17.93072,19.2626z" fill="#751cbd"/><path d="M352.26096,246.1914c18.43506,-0.0297 18.38166,9.08281 17.93072,19.2626c-0.45094,10.17978 -9.20992,18.06033 -19.56371,17.60168c-10.35381,-0.45865 -18.38166,-9.08282 -17.93072,-19.2626c0.45094,-10.17978 -9.72128,-17.55449 19.56371,-17.60168z" fill="#751cbd"/><path d="M299.80658,262.96749c-0.45094,10.17978 -9.20992,18.06033 -19.56371,17.60168c-10.35381,-0.45865 -18.38166,-9.08282 -17.93072,-19.2626c0.45094,-10.17978 1.20351,-19.26134 19.56371,-17.60168c29.16614,2.63645 18.38166,9.08281 17.93072,19.2626z" fill="#8b21e0"/><path d="M352.23306,246.82156c18.43506,-0.0297 18.38166,9.08281 17.93072,19.2626c-0.45094,10.17978 -9.20992,18.06033 -19.56371,17.60168c-10.35381,-0.45865 -18.38166,-9.08282 -17.93072,-19.2626c0.45094,-10.17978 -9.72128,-17.55449 19.56371,-17.60168z" fill="#8b21e0"/></g></g></g></g></svg>