<svg version="1.1" xmlns="http://www.w3.org/2000/svg" xmlns:xlink="http://www.w3.org/1999/xlink" width="213.18203" height="281.18476" viewBox="0,0,213.18203,281.18476"><defs><linearGradient x1="320.08742" y1="187.07227" x2="320.08742" y2="244.23177" gradientUnits="userSpaceOnUse" id="color-1"><stop offset="0" stop-color="#7a1a35" stop-opacity="0.73333"/><stop offset="1" stop-color="#7a1a35" stop-opacity="0"/></linearGradient></defs><g transform="translate(-214.52362,-38.88751)"><g stroke-miterlimit="10"><path d="M214.52362,306.61252v-267.72501h213.18203v267.72501z" fill="none" stroke="none" stroke-width="0" stroke-linecap="butt"/><path d="M311.89799,89.60426l7.8888,-23.8796l8.31522,23.8796z" fill="#bb1919" stroke="#000000" stroke-width="2" stroke-linecap="butt"/><path d="M365.4992,117.3063c-4.0292,-5.94351 -4.25257,-13.91916 -4.25257,-13.91916l37.09061,-9.60976l-20.63988,32.73777c0,0 -7.90918,-2.88213 -12.19817,-9.20886z" fill="#bb1919" stroke="#000000" stroke-width="2" stroke-linecap="butt"/><path d="M261.40502,126.51516l-20.63988,-32.73777l37.09061,9.60976c0,0 -0.22337,7.97564 -4.25257,13.91915c-4.28899,6.32673 -12.19816,9.20886 -12.19816,9.20886z" fill="#bb1919" stroke="#000000" stroke-width="2" stroke-linecap="butt"/><path d="M286.35186,319.07226l15.14285,-131.8421l37.78325,-0.15789l13.57389,132z" fill="#e00d0d" stroke="#000000" stroke-width="0" stroke-linecap="butt"/><path d="M295.01902,243.61117l6.47569,-56.38101l37.78325,-0.15789l5.87786,57.15951z" fill="url(#color-1)" stroke="#000000" stroke-width="0" stroke-linecap="butt"/><path d="M286.35186,319.07226l15.14285,-131.8421l37.78325,-0.15789l13.57389,132z" fill="none" stroke="#000000" stroke-width="2" stroke-linecap="butt"/><path d="M255.36488,147.08537c0,-33.30185 28.7599,-60.29833 64.23702,-60.29833c35.47713,0 64.23702,26.99648 64.23702,60.29833c0,33.30185 -28.75989,60.29834 -64.23702,60.29834c-35.47712,0 -64.23702,-26.99649 -64.23702,-60.29834z" fill="#e00d0d" stroke="#000000" stroke-width="2" stroke-linecap="butt"/><path d="M268.99199,147.36099c0,-12.96801 10.51265,-23.48065 23.48066,-23.48065c12.96801,0 23.48065,10.51264 23.48065,23.48065c0,12.96801 -10.51264,23.48066 -23.48065,23.48066c-12.96801,0 -23.48066,-10.51265 -23.48066,-23.48066z" fill="#ffffff" stroke="#000000" stroke-width="2" stroke-linecap="butt"/><path d="M276.90144,148.15143c0,-8.29964 6.72818,-15.02784 15.02783,-15.02784c8.29964,0 15.02784,6.72819 15.02784,15.02785c0,8.29964 -6.72819,15.02785 -15.02784,15.02785c-8.29964,0 -15.02783,-6.72819 -15.02783,-15.02785z" fill="#000000" stroke="#000000" stroke-width="5" stroke-linecap="butt"/><path d="" fill="none" stroke="#000000" stroke-width="2" stroke-linecap="round"/><path d="M346.73111,170.84167c-12.96801,0 -23.48065,-10.51265 -23.48065,-23.48066c0,-12.96801 10.51264,-23.48065 23.48065,-23.48065c12.96801,0 23.48066,10.51264 23.48066,23.48065c0,12.96801 -10.51265,23.48066 -23.48066,23.48066z" fill="#ffffff" stroke="#000000" stroke-width="2" stroke-linecap="butt"/><path d="M362.05645,147.93822c0,8.29966 -6.72818,15.02785 -15.02783,15.02785c-8.29964,0 -15.02784,-6.72821 -15.02784,-15.02785c0,-8.29966 6.7282,-15.02785 15.02784,-15.02785c8.29964,0 15.02783,6.7282 15.02783,15.02784z" fill="#000000" stroke="#000000" stroke-width="5" stroke-linecap="butt"/><path d="M281.49685,112.31027c0,0 8.37062,-1.28981 13.40353,0.11966c5.03292,1.40947 10.46533,6.56482 10.46533,6.56482c0,0 -7.01109,-3.93188 -10.89785,-5.02036c-4.06181,-1.13751 -12.97101,-1.66412 -12.97101,-1.66412z" fill="#000000" stroke="none" stroke-width="0" stroke-linecap="butt"/><path d="M345.0158,113.92834c-3.96079,0.77708 -11.26138,4.14105 -11.26138,4.14105c0,0 5.82382,-4.70868 10.9526,-5.71492c5.12877,-1.00625 13.37086,0.94279 13.37086,0.94279c0,0 -8.92291,-0.18099 -13.06208,0.63109z" fill="#000000" stroke="none" stroke-width="0" stroke-linecap="butt"/><path d="M269.60777,141.99569c2.42681,-10.38255 11.74279,-18.11535 22.86488,-18.11535c12.96801,0 23.48065,10.51264 23.48065,23.48065c0,1.52069 -46.51936,-4.62157 -46.34553,-5.3653z" fill="#e00d0d" stroke="#000000" stroke-width="2" stroke-linecap="butt"/><path d="M323.25046,147.36101c0,-12.96801 10.51264,-23.48065 23.48065,-23.48065c11.10978,0 20.41745,7.71571 22.8568,18.08091c0.09021,0.38332 -46.33745,9.03583 -46.33745,5.39974z" fill="#e00d0d" stroke="#000000" stroke-width="2" stroke-linecap="butt"/><path d="M281.47539,105.27133c-2.76332,-2.97868 -9.03411,-10.59486 -7.74044,-17.1493c1.63174,-8.26725 7.93473,-24.43213 7.93473,-24.43213c0,0 3.70596,16.01449 7.26574,21.95221c1.698,2.83226 6.28729,6.37095 9.3157,8.51631c1.65223,1.17046 -2.01219,7.27744 -5.86023,9.82653c-3.84803,2.54909 -10.15624,2.10482 -10.9155,1.28639z" fill="#bb1919" stroke="#000000" stroke-width="2" stroke-linecap="butt"/><path d="M346.7115,103.98494c-3.84803,-2.54909 -7.51245,-8.65607 -5.86023,-9.82653c3.02841,-2.14536 7.6177,-5.68405 9.3157,-8.51631c3.55978,-5.93771 7.26574,-21.9522 7.26574,-21.9522c0,0 6.30299,16.16488 7.93473,24.43213c1.29368,6.55445 -4.97713,14.17063 -7.74044,17.14931c-0.75925,0.81843 -7.06747,1.2627 -10.9155,-1.2864z" fill="#bb1919" stroke="#000000" stroke-width="2" stroke-linecap="butt"/><path d="M307.15784,197.8484l26.43813,0.63963" fill="none" stroke="#000000" stroke-width="2" stroke-linecap="round"/></g></g></svg>