<svg version="1.1" xmlns="http://www.w3.org/2000/svg" xmlns:xlink="http://www.w3.org/1999/xlink" width="213.65024" height="281.18476" viewBox="0,0,213.65024,281.18476"><defs><linearGradient x1="320.08742" y1="187.07227" x2="320.08742" y2="244.23177" gradientUnits="userSpaceOnUse" id="color-1"><stop offset="0" stop-color="#7a6b00"/><stop offset="1" stop-color="#7a6b00" stop-opacity="0"/></linearGradient></defs><g transform="translate(-214.78369,-38.88751)"><g stroke-miterlimit="10"><g stroke-linecap="butt"><g stroke="#000000" stroke-width="3.5"><path d="M314.77472,220.94852c-9.02138,-0.67934 -8.6647,-5.41593 -8.6647,-5.41593l0.22053,-2.6959c-0.1359,-0.81415 -0.27181,-1.62831 -0.4077,-2.44246c-1.12749,-8.66473 4.11802,-16.56527 3.75138,-25.05075c-0.21686,-5.01901 -1.67549,-11.09901 -3.07936,-15.92319c-1.52664,-5.24602 -5.37972,-9.92427 -5.4074,-15.21524c-0.02951,-5.64133 7.56187,-9.4188 7.46405,-14.69626c0,0 0.35668,-4.73659 9.37806,-4.05725c9.02138,0.67934 8.6647,5.41593 8.6647,5.41593c-0.19954,1.57546 0.13426,3.22414 -0.59861,4.72638c-1.33724,2.7411 -5.2949,4.84937 -6.823,7.55294c-1.50246,2.65822 1.07535,6.46804 2.26611,9.05955c2.4992,5.43906 3.74006,10.96308 4.84117,16.45631c0.74378,3.71067 1.72455,7.33528 1.08296,10.99629c-1.24017,7.07663 -4.55263,13.68143 -3.53809,20.97399c0.15265,0.99039 0.30531,1.98077 0.45797,2.97116l-0.23,3.28717c0,0 -0.35668,4.73659 -9.37807,4.05725z" fill="#39940f"/><path d="M293.11307,221.27512c-8.98116,-0.00266 -9.90387,-4.78772 -9.90387,-4.78772l-0.48881,-2.57642c-0.27357,-2.47715 -0.29762,-4.95083 -0.11279,-7.4053c1.16391,-4.33178 2.13466,-9.10481 4.43958,-13.27917c2.49146,-4.5122 5.69305,-7.74321 6.41542,-12.57809c0.83723,-5.60363 -1.59974,-11.03233 -1.90988,-16.68448c-0.36224,-6.6015 0.94575,-13.59536 3.50904,-19.90805c1.45592,-3.58555 4.27699,-6.8532 5.93025,-10.40367c0,0 2.11899,-4.51137 10.89524,-2.9163c8.77624,1.59507 6.65724,6.10645 6.65724,6.10645c-4.40084,9.29974 -9.50921,17.74734 -8.94383,27.80529c0.33692,5.99377 2.82708,11.72985 1.86782,17.69627c-0.87792,5.46048 -4.24613,9.42986 -7.08254,14.48473c-1.80826,3.22255 -2.90453,8.22179 -3.79351,11.50592c-0.14932,1.98298 -0.08221,3.98414 0.15216,5.98574l0.42693,2.17241c0,0 0.92271,4.78506 -8.05844,4.7824z" fill="#28670a"/><path d="M329.70895,223.06954c-8.24368,-2.38987 -4.56205,-6.53539 -4.56205,-6.53539l0.61361,0.14391c0.07291,-0.91825 0.14581,-1.83649 0.21871,-2.75473c-1.04924,-8.96193 -5.19202,-18.01751 -4.97416,-26.96082c0.1477,-6.06304 1.23829,-10.00682 0.60625,-15.8467c-0.72905,-6.73622 -3.29648,-13.52421 -3.61237,-20.2771c-0.21512,-4.59874 1.22218,-9.05469 0.44953,-13.67837c0,0 -0.76503,-4.78427 8.23092,-4.69768c8.99596,0.0866 9.761,4.87087 9.761,4.87087c0.74881,4.85837 -0.61625,9.51278 -0.38685,14.33792c0.31191,6.56034 2.86366,13.1625 3.56333,19.70796c0.74293,6.94996 -0.34631,9.14943 -0.55553,16.49069c-0.25399,8.91236 3.98552,17.99485 4.97377,26.93835c-0.07728,1.0761 -0.15456,2.15221 -0.23184,3.22832l-2.16902,3.27716c0,0 -3.68162,4.14551 -11.9253,1.75564z" fill="#448f21"/><path d="M280.67084,225.73448c-9.02138,-0.67934 -8.6647,-5.41593 -8.6647,-5.41593l0.02503,-0.33239c1.00067,-13.28852 2.18008,-26.46584 5.57732,-39.53962c1.40301,-5.39925 4.79368,-10.56954 5.62518,-16.03876c1.57014,-10.32778 2.32033,-20.64796 4.89595,-30.88693c0,0 1.17196,-4.65563 10.124,-3.55025c8.95204,1.10539 7.78007,5.76102 7.78007,5.76102c-2.55187,10.12966 -3.20454,20.34713 -4.82432,30.55664c-0.89439,5.63738 -4.30256,10.96743 -5.74096,16.53303c-3.29244,12.73941 -4.41954,25.57699 -5.39446,38.52356l-0.02503,0.33239c0,0 -0.35668,4.73659 -9.37807,4.05725z" fill="#275313"/><path d="M323.76114,217.86462l0.26487,-3.28454c0.29925,-0.95636 0.59851,-1.91271 0.89776,-2.86907c2.09522,-7.05839 -0.19078,-14.08476 -0.35719,-21.26732c-0.08609,-3.71581 1.42644,-7.15267 2.71752,-10.7101c1.91134,-5.26638 3.96548,-10.54227 7.25103,-15.54572c1.56544,-2.38396 4.68472,-5.76477 3.59729,-8.61802c-1.10598,-2.90192 -4.70328,-5.5791 -5.61493,-8.48956c-0.49963,-1.59505 0.0773,-3.17516 0.11595,-4.76273c0,0 0.35668,-4.73659 9.37806,-4.05725c9.02139,0.67934 8.66471,5.41593 8.66471,5.41593c-0.88707,5.20329 6.05301,10.07502 5.17899,15.64832c-0.81974,5.22716 -5.32996,9.27564 -7.62502,14.23386c-2.1105,4.55953 -4.4632,10.35252 -5.42925,15.28246c-1.63326,8.33488 2.36992,16.93188 -0.04246,25.33005c-0.25629,0.78462 -0.5126,1.56924 -0.76889,2.35386l-0.18569,2.69853c0,0 -0.35668,4.73659 -9.37806,4.05725c-9.02138,-0.67934 -8.6647,-5.41593 -8.6647,-5.41593z" fill="#39940f"/><path d="M346.54293,220.91217l0.74745,-2.08398c0.53148,-1.94392 0.89752,-3.91247 1.04685,-5.89545c-0.38714,-3.38021 -0.72237,-8.48726 -2.02764,-11.94426c-2.04742,-5.42264 -4.78319,-9.85167 -4.83347,-15.38205c-0.05493,-6.04279 3.26618,-11.34126 4.4969,-17.21697c2.06526,-9.85986 -1.72041,-18.97721 -4.67893,-28.83113c0,0 -1.41949,-4.77784 7.49666,-5.04061c8.91614,-0.26277 10.33563,4.51506 10.33563,4.51506c1.10291,3.75803 3.40281,7.4113 4.30535,11.17444c1.58901,6.62538 1.83487,13.73624 0.48809,20.20905c-1.15311,5.54196 -4.37559,10.54448 -4.38698,16.2103c-0.00983,4.88854 2.67179,8.56257 4.45942,13.39701c1.65378,4.47246 1.89879,9.33703 2.40085,13.79428c-0.18483,2.45448 -0.57906,4.89665 -1.22052,7.30489l-0.86914,2.47416c0,0 -1.62891,4.59291 -10.50918,3.25054c-8.88027,-1.34237 -7.25136,-5.93528 -7.25136,-5.93528z" fill="#28670a"/><path d="M305.81449,219.61938l-1.65378,-3.56503c0.08474,-1.07554 0.16949,-2.15109 0.25423,-3.22663c2.31646,-8.69464 7.86834,-17.03981 8.9519,-25.8897c0.89255,-7.2898 0.14499,-9.62759 1.92034,-16.38792c1.67202,-6.36685 5.18372,-12.51242 6.47457,-18.95207c0.94942,-4.73637 0.29679,-9.54272 1.76473,-14.23416c0,0 1.47289,-4.61575 10.38036,-3.35416c8.90747,1.26159 7.43459,5.87734 7.43459,5.87734c-1.45638,4.45583 -0.70259,9.07678 -1.60398,13.59144c-1.32362,6.62943 -4.87865,12.95638 -6.60827,19.50746c-1.49948,5.67937 -1.01179,9.742 -1.77376,15.75878c-1.12393,8.87508 -6.57613,17.20813 -8.95566,25.91186c-0.06544,0.91881 -0.13087,1.83761 -0.19631,2.75642l0.62824,-0.0504c0,0 3.01928,4.65011 -5.48933,5.77849c-8.50861,1.12838 -11.5279,-3.52174 -11.5279,-3.52174z" fill="#448f21"/><path d="M356.76369,227.70391l0.02503,-0.33239c0.97492,-12.94656 1.78304,-25.80818 0.43556,-38.89698c-0.58868,-5.71825 -3.16021,-11.4986 -3.20028,-17.20634c-0.07256,-10.33694 0.81228,-20.53694 -0.19383,-30.93452c0,0 -0.46154,-4.77864 8.55508,-4.53092c9.01663,0.24771 9.47817,5.02636 9.47817,5.02636c1.0132,10.50922 0.20941,20.82537 0.21518,31.27182c0.00305,5.53207 2.58121,11.15183 3.15981,16.7003c1.40103,13.43511 0.59372,26.64045 -0.40695,39.92896l-0.02503,0.33239c0,0 -0.35668,4.73659 -9.37806,4.05725c-9.02138,-0.67934 -8.6647,-5.41593 -8.6647,-5.41593z" fill="#275313"/></g><g stroke="none" stroke-width="0.5"><path d="M314.77472,220.94852c-9.02138,-0.67934 -8.6647,-5.41593 -8.6647,-5.41593l0.22053,-2.69589c-0.1359,-0.81415 -0.27181,-1.62831 -0.4077,-2.44246c-1.12749,-8.66474 4.11802,-16.56527 3.75138,-25.05075c-0.21686,-5.01901 -1.67549,-11.09901 -3.07936,-15.92318c-1.52663,-5.24602 -5.37972,-9.92427 -5.4074,-15.21525c-0.02951,-5.64133 7.56187,-9.4188 7.46405,-14.69625c0,0 0.35668,-4.73659 9.37806,-4.05725c9.02138,0.67934 8.6647,5.41593 8.6647,5.41593c-0.19954,1.57546 0.13426,3.22414 -0.59861,4.72638c-1.33725,2.7411 -5.29489,4.84937 -6.823,7.55294c-1.50246,2.65822 1.07534,6.46804 2.26611,9.05955c2.4992,5.43906 3.74007,10.96308 4.84117,16.45631c0.74378,3.71066 1.72455,7.33528 1.08296,10.99629c-1.24017,7.07663 -4.55263,13.68143 -3.53809,20.97399c0.15265,0.99039 0.3053,1.98077 0.45797,2.97116l-0.23,3.28716c0,0 -0.35668,4.73659 -9.37806,4.05725z" fill="#39940f"/><path d="M293.11307,221.27512c-8.98116,-0.00266 -9.90387,-4.78772 -9.90387,-4.78772l-0.48881,-2.57642c-0.27357,-2.47715 -0.29762,-4.95083 -0.11279,-7.4053c1.16391,-4.33178 2.13466,-9.10481 4.43958,-13.27917c2.49147,-4.5122 5.69305,-7.74321 6.41543,-12.57809c0.83723,-5.60363 -1.59974,-11.03233 -1.90989,-16.68448c-0.36223,-6.6015 0.94576,-13.59536 3.50905,-19.90805c1.45592,-3.58555 4.27699,-6.8532 5.93025,-10.40367c0,0 2.11899,-4.51138 10.89524,-2.9163c8.77624,1.59507 6.65725,6.10645 6.65725,6.10645c-4.40085,9.29974 -9.50922,17.74733 -8.94383,27.80529c0.33691,5.99377 2.82709,11.72986 1.86782,17.69626c-0.87792,5.46048 -4.24612,9.42986 -7.08254,14.48473c-1.80826,3.22255 -2.90453,8.22179 -3.79351,11.50592c-0.14932,1.98298 -0.08221,3.98414 0.15216,5.98574l0.42693,2.17241c0,0 0.92272,4.78506 -8.05844,4.7824z" fill="#28670a"/><path d="M329.70895,223.06954c-8.24368,-2.38987 -4.56205,-6.53539 -4.56205,-6.53539l0.61361,0.14391c0.0729,-0.91825 0.1458,-1.83649 0.21871,-2.75473c-1.04924,-8.96193 -5.19202,-18.01751 -4.97416,-26.96082c0.1477,-6.06304 1.23829,-10.00682 0.60625,-15.8467c-0.72905,-6.73621 -3.29648,-13.52421 -3.61237,-20.27709c-0.21511,-4.59874 1.2222,-9.0547 0.44953,-13.67837c0,0 -0.76503,-4.78427 8.23092,-4.69768c8.99596,0.08659 9.76099,4.87086 9.76099,4.87086c0.7488,4.85837 -0.61625,9.51278 -0.38685,14.33791c0.3119,6.56034 2.86366,13.16251 3.56334,19.70796c0.74292,6.94996 -0.34631,9.14943 -0.55553,16.49068c-0.25399,8.91236 3.98552,17.99485 4.97377,26.93835c-0.07728,1.0761 -0.15456,2.15221 -0.23184,3.22832l-2.16901,3.27716c0,0 -3.68162,4.14551 -11.9253,1.75564z" fill="#448f21"/><path d="M280.67084,225.73448c-9.02138,-0.67934 -8.6647,-5.41593 -8.6647,-5.41593l0.02503,-0.3324c1.00067,-13.28852 2.18008,-26.46584 5.57732,-39.53962c1.40301,-5.39925 4.79368,-10.56954 5.62518,-16.03876c1.57014,-10.32778 2.32033,-20.64795 4.89595,-30.88693c0,0 1.17196,-4.65564 10.124,-3.55025c8.95204,1.10539 7.78007,5.76102 7.78007,5.76102c-2.55187,10.12966 -3.20454,20.34712 -4.82432,30.55664c-0.89438,5.63738 -4.30256,10.96743 -5.74096,16.53303c-3.29244,12.7394 -4.41955,25.57699 -5.39447,38.52356l-0.02503,0.3324c0,0 -0.35668,4.73659 -9.37806,4.05725z" fill="#275313"/><path d="M323.76114,217.86462l0.26487,-3.28453c0.29925,-0.95636 0.5985,-1.91271 0.89776,-2.86907c2.09522,-7.0584 -0.19078,-14.08477 -0.35718,-21.26731c-0.08609,-3.71581 1.42643,-7.15267 2.71752,-10.7101c1.91133,-5.26639 3.96547,-10.54227 7.25103,-15.54572c1.56544,-2.38396 4.68473,-5.76477 3.59729,-8.61802c-1.10598,-2.90192 -4.70328,-5.5791 -5.61494,-8.48956c-0.49963,-1.59505 0.0773,-3.17516 0.11595,-4.76273c0,0 0.35668,-4.73659 9.37806,-4.05725c9.02138,0.67934 8.6647,5.41593 8.6647,5.41593c-0.88707,5.20329 6.05301,10.07503 5.179,15.64831c-0.81974,5.22717 -5.32997,9.27564 -7.62502,14.23387c-2.1105,4.55952 -4.4632,10.35251 -5.42925,15.28245c-1.63326,8.33488 2.36992,16.93188 -0.04246,25.33005c-0.25629,0.78462 -0.51259,1.56924 -0.76888,2.35386l-0.18569,2.69852c0,0 -0.35668,4.73659 -9.37806,4.05725c-9.02138,-0.67934 -8.6647,-5.41593 -8.6647,-5.41593z" fill="#39940f"/><path d="M346.54293,220.91217l0.74745,-2.08399c0.53148,-1.94392 0.89752,-3.91247 1.04685,-5.89545c-0.38714,-3.38022 -0.72237,-8.48726 -2.02763,-11.94426c-2.04742,-5.42265 -4.78319,-9.85168 -4.83347,-15.38206c-0.05493,-6.04278 3.26618,-11.34126 4.4969,-17.21697c2.06526,-9.85986 -1.72041,-18.97721 -4.67892,-28.83113c0,0 -1.41949,-4.77784 7.49666,-5.04061c8.91614,-0.26277 10.33563,4.51506 10.33563,4.51506c1.10291,3.75803 3.40281,7.4113 4.30535,11.17444c1.58901,6.62538 1.83487,13.73624 0.48809,20.20905c-1.15311,5.54196 -4.37559,10.54448 -4.38698,16.2103c-0.00982,4.88855 2.67178,8.56257 4.45942,13.39701c1.65378,4.47246 1.89879,9.33703 2.40086,13.79428c-0.18483,2.45447 -0.57906,4.89665 -1.22052,7.30489l-0.86914,2.47416c0,0 -1.62891,4.59291 -10.50918,3.25054c-8.88027,-1.34237 -7.25136,-5.93528 -7.25136,-5.93528z" fill="#28670a"/><path d="M305.81449,219.61938l-1.65377,-3.56503c0.08474,-1.07554 0.1695,-2.15109 0.25424,-3.22663c2.31645,-8.69464 7.86834,-17.03981 8.9519,-25.8897c0.89255,-7.2898 0.14498,-9.62759 1.92034,-16.38791c1.67201,-6.36685 5.18372,-12.51242 6.47458,-18.95207c0.94942,-4.73637 0.29679,-9.54272 1.76473,-14.23416c0,0 1.47289,-4.61575 10.38036,-3.35415c8.90747,1.26159 7.43459,5.87734 7.43459,5.87734c-1.45638,4.45582 -0.7026,9.07678 -1.60398,13.59144c-1.32362,6.62943 -4.87865,12.95638 -6.60828,19.50744c-1.49947,5.67937 -1.01179,9.74201 -1.77375,15.75878c-1.12394,8.87508 -6.57613,17.20813 -8.95566,25.91186c-0.06544,0.91881 -0.13087,1.83761 -0.1963,2.75642l0.62824,-0.0504c0,0 3.01928,4.65011 -5.48933,5.77849c-8.50861,1.12838 -11.5279,-3.52174 -11.5279,-3.52174z" fill="#448f21"/><path d="M356.76369,227.70391l0.02503,-0.33239c0.97492,-12.94656 1.78304,-25.80818 0.43555,-38.89698c-0.58869,-5.71825 -3.16021,-11.4986 -3.20027,-17.20634c-0.07256,-10.33694 0.81228,-20.53694 -0.19383,-30.93452c0,0 -0.46154,-4.77864 8.55508,-4.53092c9.01663,0.24771 9.47816,5.02636 9.47816,5.02636c1.0132,10.50923 0.20942,20.82537 0.21518,31.27182c0.00305,5.53206 2.58121,11.15183 3.15981,16.7003c1.40103,13.43511 0.59373,26.64045 -0.40694,39.92896l-0.02503,0.33239c0,0 -0.35668,4.73659 -9.37806,4.05725c-9.02138,-0.67934 -8.6647,-5.41593 -8.6647,-5.41593z" fill="#275313"/></g></g><g stroke="#000000" stroke-width="3.5"><path d="M379.79833,177.68087l1.98048,6.97698l-7.57561,-2.5266z" fill="#000000" stroke-linecap="round"/><path d="M354.36735,122.28319c-1.19798,-0.94617 -1.90769,-2.42499 -1.78607,-4.07462c0.13718,-1.86047 1.29726,-3.47 2.91283,-4.3267c1.45964,-2.16813 7.42636,-0.0806 9.19145,0.73784c6.44686,2.98929 12.34599,11.39955 14.56793,17.90807c6.96871,20.41268 -9.62927,42.19689 -6.64525,62.74799c1.66659,11.47784 9.80103,21.20744 11.80541,32.69471c0.65502,3.75402 0.36868,10.95981 -5.79744,10.86003c-1.76722,-0.0286 -3.25543,-1.38471 -4.41627,-2.60903c-0.91486,-0.96489 -0.22209,-5.23499 -0.21663,-5.99129c0.02556,-3.54543 -2.10369,-7.37967 -3.39693,-10.5124c-2.8842,-6.98666 -8.04906,-15.37175 -8.51323,-23.16639c-1.20344,-20.20884 9.42497,-39.65387 7.28011,-59.80547c-0.40463,-3.80166 -6.16454,-10.71925 -8.75161,-12.52898c-0.9925,-0.69427 -2.07204,-0.75137 -3.15796,-0.8546c-0.48089,-0.0099 -0.94194,-0.08176 -1.37552,-0.20755c-0.39973,-0.09822 -0.79564,-0.24263 -1.18359,-0.4682c-0.19568,-0.11377 -0.36646,-0.2497 -0.51727,-0.4034z" fill="#9efd71" stroke-linecap="butt"/><path d="M380.33891,111.33742c0.61878,-2.35884 2.89968,-4.11861 5.48324,-4.07681c1.51095,0.02445 2.82787,0.66028 3.7149,1.65873c0.15279,0.17199 0.29284,0.35474 0.41892,0.54698c1.9943,1.82554 4.31696,3.42052 6.46599,5.08009c0.03887,0.03002 0.05182,0.08413 0.09006,0.11486c18.75569,15.07718 13.69221,44.39451 11.03033,65.58832c-0.22392,1.78287 -0.67342,3.54731 -0.88263,5.33108c-0.27529,2.34704 -0.43587,4.70163 -0.51997,7.05227c-0.09208,2.57364 3.42723,6.61607 2.08483,9.18639c-2.27767,4.36115 -4.37069,5.11263 -8.7907,3.15626c-4.20864,-1.86283 -3.43247,-17.9009 -3.27695,-19.81799c0.14526,-1.79093 0.83542,-4.14 0.96582,-5.57975c0.99368,-10.97112 3.36125,-26.72085 1.81793,-38.86778c-0.73177,-5.75954 -2.57373,-11.89841 -6.85838,-15.95777c-3.20969,-3.04089 -12.61829,-6.97745 -11.90652,-12.79163c0.02703,-0.22075 0.08276,-0.42786 0.16313,-0.62326z" fill="#9efd71" stroke-linecap="butt"/><path d="M362.09357,117.02693c0.20641,-2.79959 2.72905,-5.03099 5.63447,-4.98398c0.45542,0.00737 0.8932,0.07028 1.30691,0.18193c1.1349,-0.27456 2.79689,1.90085 3.44267,2.65105c3.03602,3.52695 5.41325,6.88799 7.79171,10.87627c11.91814,19.98477 1.29263,41.87673 0.34171,63.46455c-0.15314,3.47649 0.1894,7.58261 1.30562,10.85857c0.33402,0.98031 1.9663,2.94033 1.91982,3.57063c-0.12555,1.70285 -0.41995,3.72208 -1.75834,4.90596c-8.43209,7.45858 -11.12576,-8.36651 -11.59844,-12.12997c-0.15178,-1.20852 -0.31448,-2.52251 -0.3588,-3.747c-0.65089,-17.984 7.85658,-35.20504 4.33816,-53.31788c-1.19148,-6.13379 -5.21709,-11.67931 -9.09023,-16.35698c-0.7713,-0.93152 -4.55867,-4.52914 -3.27526,-5.97315z" fill="#67dc31" stroke-linecap="butt"/><path d="M405.85442,168.7137c0.69441,0.89096 1.06774,2.02828 0.97685,3.26098c-0.13718,1.86047 -1.29726,3.47001 -2.91284,4.3267c-0.5646,0.83864 -1.91233,0.82763 -3.07688,0.64009c-0.52888,-0.08518 -1.01997,-0.20676 -1.38276,-0.30171c-4.05292,-1.06074 -4.58829,-6.30782 -4.92589,-9.95705c-0.4747,-5.13123 -0.8968,-12.04964 -1.94822,-17.07254c-1.29986,-6.20968 -4.07297,-11.9294 -5.53414,-18.09681c-2.60461,-10.99378 -1.52086,-14.2245 -8.78709,-24.00108c-1.95595,-2.63171 -4.38794,-6.24974 0.07149,-9.24094c5.02591,-3.37116 7.48538,1.49136 9.61202,4.26579c6.31514,8.2388 7.66035,16.32253 9.43922,26.39226c0.66825,3.7828 2.1373,6.58686 3.23975,10.25289c1.69341,5.63111 2.83926,11.44837 3.63543,17.30334c0.63551,4.67333 0.65188,8.27199 1.59306,12.2281z" fill="#67dc31" stroke-linecap="butt"/><path d="M385.0684,97.07948c1.18216,0.94696 1.88067,2.41621 1.75993,4.05382c-0.00329,0.04463 -0.00718,0.08913 -0.01164,0.13346c0.09573,0.61247 -0.09517,1.16947 -0.46966,1.67636c-0.89804,1.89059 -2.91169,3.21041 -5.15317,3.17415c-2.0126,0.90482 -4.54464,-2.68844 -5.82253,-3.39498c-4.51189,-2.49458 -9.92417,-5.40046 -15.4446,-5.49676c-6.24041,-0.10885 -13.6164,0.91473 -19.50991,3.65118c-1.37708,0.63941 -3.51087,2.68789 -5.34213,2.89829c-2.81969,0.32397 -5.35301,0.62065 -6.41797,-3.31365c-1.76876,-6.53428 10.26041,-9.78972 14.67547,-10.99017c12.40432,-3.37271 25.32444,-3.19097 35.99422,3.44436c2.40016,1.49261 4.38435,2.52306 5.74199,4.16393z" fill="#67dc31" stroke-linecap="butt"/><path d="M381.85577,104.84841c0.78498,0.91444 1.21576,2.1203 1.11887,3.43457c-0.00329,0.04463 -0.00718,0.08913 -0.01164,0.13346c0.06,0.38389 0.0074,0.746 -0.13244,1.08763c5.68883,7.50633 13.73687,18.84623 12.44063,27.21707c-0.95731,6.18205 -1.29471,12.49055 -3.20922,18.51228c-1.96197,6.17101 -5.40111,12.43722 -5.35589,18.99319c0.06009,8.71172 4.26639,17.66229 6.43196,25.89009c2.2469,8.53685 4.05391,17.32584 6.68109,25.69904c0.86325,2.75133 0.32844,5.99783 -3.58207,7.16297c-7.41959,2.21069 -9.12343,-13.25102 -10.13103,-17.3751c-0.41204,-1.68648 -0.84496,-3.36719 -1.27554,-5.0485c-0.6295,-2.45807 -1.21058,-4.93075 -1.90469,-7.36959c-2.57727,-9.05547 -7.23115,-19.09062 -6.76773,-28.76894c0.62578,-13.06931 7.83565,-24.48235 8.53428,-37.78318c0.51752,-9.8529 -9.55073,-17.84425 -14.12987,-25.17996c-0.42279,-0.6773 -0.63816,-1.49111 -0.65179,-2.33487c-0.00512,-0.1687 -0.0015,-0.33971 0.01125,-0.51258c0.02561,-0.34724 0.08684,-0.68574 0.18001,-1.01224c0.00651,-0.02423 0.01319,-0.04844 0.02001,-0.07262c-3.30372,-1.88188 -8.39907,-3.00173 -11.69245,-3.10779c-4.79901,-0.15455 -9.52944,-0.77357 -14.25653,0.29832c-2.89293,0.65598 -7.11869,5.09744 -10.08646,3.0458c-1.40077,-0.96836 -2.62469,-2.59771 -2.62744,-4.29815c-0.01049,-6.51319 10.8566,-9.07646 15.91922,-9.29728c10.36632,-0.45214 29.26916,0.07911 34.47746,10.68638z" fill="#4cc513" stroke-linecap="butt"/><path d="M396.7307,134.06092c1.363,0.28883 1.70158,3.71517 1.88404,4.94617c0.95627,6.45178 0.63225,13.00953 0.32916,19.59775c-0.33434,7.26749 -1.83649,14.45691 -2.14935,21.66451c-0.37538,8.64781 4.25131,16.94244 3.66219,25.5255c-0.47003,6.84821 -0.81491,13.70118 -1.51466,20.54316c-0.27288,2.66818 -2.22185,5.0392 -5.63448,4.98398c-3.41538,-0.05527 -5.00633,-2.48356 -4.88697,-5.15422c0.29979,-6.70841 1.0538,-13.41499 1.48373,-20.12362c0.50166,-7.82767 -3.00326,-16.22072 -3.61085,-24.08903c-0.53264,-6.89763 1.64082,-16.89476 2.11656,-23.34191c0.36866,-4.99588 0.59036,-10.74952 0.05486,-15.76096c-0.20146,-1.88533 -1.10877,-4.23045 -0.59621,-6.11074c0.05914,-0.21693 0.14496,-0.4174 0.25336,-0.60391c0.94386,-1.62412 3.599,-2.19115 5.24524,-3.3792z" fill="#7ade4c" stroke-linecap="butt"/><path d="M356.72321,123.33893c-1.27972,0.76514 -5.73804,-1.94855 -7.44672,-1.97849c-1.65303,-0.02897 -3.30598,-0.05931 -4.95959,-0.08025c-2.45884,-0.03112 -3.54435,2.59102 -6.56603,2.32939c-3.49341,-0.30246 -5.13984,-5.0177 -3.53215,-8.001c1.38792,-2.5755 4.42905,-2.77233 6.7751,-3.70507c4.57404,-1.81853 12.26238,-1.49708 17.01219,1.39222c2.00543,1.21991 3.48701,2.89755 3.98921,5.06516z" fill="#9efd71" stroke-linecap="butt"/><path d="M370.54361,112.26538c1.23871,0.94344 1.97744,2.44656 1.85354,4.12692c-0.00329,0.04463 -0.00718,0.08913 -0.01164,0.13346c0.09573,0.61247 -0.09517,1.16947 -0.46966,1.67637c-0.89804,1.89059 -2.9117,3.21041 -5.15319,3.17414c-1.28369,0.57712 -2.23095,-0.09901 -3.01223,-1.0112c-0.69462,-0.52305 -1.23407,-1.22119 -1.55533,-2.02786c-0.15276,-0.16809 -0.3033,-0.3048 -0.45408,-0.3955c-2.44377,-1.4702 -5.74461,-3.6495 -8.78175,-4.09821c-3.3121,-0.48934 -7.39383,-0.60361 -10.59334,-0.60825c-2.09825,-0.00304 -3.16875,3.66954 -6.25964,2.60147c-1.63683,-0.56562 -3.52428,-1.36924 -4.20231,-2.9051c-2.44376,-5.53557 5.67333,-9.03779 9.87303,-9.85618c8.26352,-1.61032 23.35873,1.90121 28.76661,9.18995z" fill="#67dc31" stroke-linecap="butt"/></g><g stroke="#000000" stroke-width="3.5"><path d="M293.38866,170.61046l-7.71085,2.39261l2.37195,-6.54485z" fill="#000000" stroke-linecap="round"/><path d="M316.04035,114.83947c-0.4003,0.21266 -0.80396,0.34929 -1.20885,0.44265c-0.44026,0.11929 -0.90492,0.18815 -1.38591,0.19901c-1.0907,0.10031 -2.17245,0.15736 -3.20315,0.81125c-2.68664,1.70445 -8.83108,8.20605 -9.44967,11.77005c-3.27898,18.89179 6.24302,37.07952 3.90134,56.02187c-0.90319,7.30615 -6.53587,15.18104 -9.81124,21.73794c-1.46863,2.94002 -3.81202,6.54021 -3.98638,9.86267c-0.0372,0.70874 0.41418,4.70813 -0.55421,5.61535c-1.22876,1.15116 -2.792,2.42691 -4.55915,2.4595c-6.16588,0.11373 -6.04569,-6.63812 -5.17963,-10.15828c2.65012,-10.77169 11.32538,-19.91631 13.63751,-30.67805c4.13986,-19.26893 -11.21413,-39.6292 -3.10119,-58.78148c2.58679,-6.10665 8.95447,-14.00754 15.56372,-16.83005c1.80954,-0.77279 7.8883,-2.74865 9.2243,-0.7216c1.56573,0.79753 2.63396,2.30208 2.66611,4.04514c0.02851,1.54552 -0.76391,2.9337 -2.01409,3.82431c-0.15934,0.14454 -0.33762,0.27247 -0.53952,0.37974z" fill="#9efd71" stroke-linecap="butt"/><path d="M291.37799,104.87082c0.38328,5.44633 -9.23831,9.16626 -12.61639,12.02653c-4.50944,3.81821 -6.69574,9.57719 -7.75155,14.97706c-2.2267,11.38836 -0.74934,26.14022 -0.37515,36.41837c0.0491,1.3488 0.60615,3.54795 0.65031,5.2258c0.04727,1.79606 -0.0815,16.82335 -4.39118,18.58286c-4.52613,1.8479 -6.57478,1.15051 -8.6044,-2.92901c-1.19619,-2.40433 2.54766,-6.20415 2.60078,-8.61572c0.0485,-2.20258 0.02083,-4.40863 -0.12187,-6.60721c-0.10845,-1.67094 -0.45802,-3.32299 -0.58121,-4.99305c-1.46445,-19.85271 -4.87019,-47.31036 14.7177,-61.50123c0.03993,-0.02893 0.05592,-0.07969 0.09644,-0.10794c2.24056,-1.56228 4.65094,-3.06461 6.74626,-4.78193c0.1368,-0.18058 0.28701,-0.35229 0.44936,-0.51396c0.94248,-0.93859 2.29401,-1.53878 3.8049,-1.56664c2.58345,-0.04765 4.76297,1.594 5.24817,3.80253c0.06927,0.18285 0.11328,0.37675 0.12783,0.58355z" fill="#9efd71" stroke-linecap="butt"/><path d="M305.54843,115.16766c-4.13318,4.39631 -8.46761,9.60641 -10.00378,15.3585c-4.53627,16.9857 2.99217,33.0962 1.32797,49.95176c-0.11332,1.14766 -0.34994,2.37957 -0.56971,3.51262c-0.68441,3.52842 -4.26774,18.36748 -12.27129,11.40545c-1.27038,-1.10506 -1.45066,-2.9964 -1.48008,-4.59177c-0.01089,-0.59052 1.73033,-2.43268 2.1193,-3.35245c1.29987,-3.07366 1.87357,-6.92279 1.91659,-10.18022c0.26709,-20.22755 -9.11402,-40.7084 3.91952,-59.47591c2.60104,-3.74535 5.16552,-6.90288 8.3975,-10.21808c0.68746,-0.70516 2.47052,-2.74926 3.58887,-2.49568c0.41961,-0.10597 0.86052,-0.16638 1.31592,-0.17478c2.90531,-0.05359 5.29973,2.02925 5.34811,4.65216c1.20078,1.349 -2.78582,4.7329 -3.60891,5.60839z" fill="#67dc31" stroke-linecap="butt"/><path d="M264.805,146.67567c1.12553,-5.4895 2.59827,-10.94481 4.60754,-16.22749c1.3081,-3.43919 2.93385,-6.07179 3.81474,-9.61896c2.34491,-9.44252 4.14459,-17.02248 10.91823,-24.76405c2.28104,-2.60699 5.01233,-7.1719 9.84338,-4.02915c4.28653,2.78852 1.65288,6.18709 -0.4496,8.65976c-7.81052,9.18579 -6.90995,12.20986 -10.1319,22.52105c-1.80749,5.78448 -4.90046,11.15373 -6.54918,16.9773c-1.33362,4.71058 -2.14537,11.19545 -2.90892,16.00566c-0.54302,3.42094 -1.37371,8.3399 -5.48258,9.34725c-0.3678,0.09017 -0.86527,0.20574 -1.39846,0.28729c-1.17401,0.17958 -2.5211,0.1943 -3.03786,-0.58975c-1.56574,-0.79753 -2.63397,-2.30208 -2.66612,-4.04514c-0.0213,-1.15491 0.41581,-2.22196 1.15977,-3.05919c1.16332,-3.71049 1.38258,-7.08296 2.28097,-11.46459z" fill="#67dc31" stroke-linecap="butt"/><path d="M293.30031,87.0202c11.03372,-6.25318 23.95181,-6.4659 36.15417,-3.3459c4.34318,1.11049 16.17736,4.12181 14.04188,10.25111c-1.28577,3.69045 -3.79996,3.42074 -6.5987,3.12639c-1.81766,-0.19116 -3.83392,-2.10388 -5.17365,-2.69856c-5.73362,-2.54508 -13.04489,-3.48012 -19.28549,-3.35764c-5.5206,0.10834 -11.09157,2.8493 -15.73982,5.20186c-1.31651,0.66631 -4.04872,4.042 -6.00839,3.20065c-2.2414,0.04134 -4.17873,-1.18889 -4.96932,-2.95769c-0.34557,-0.47379 -0.50487,-0.99516 -0.37469,-1.56944c-0.00196,-0.04154 -0.00333,-0.08321 -0.0041,-0.12503c-0.0283,-1.53425 0.7524,-2.91344 1.98682,-3.80474c1.44887,-1.54217 3.48926,-2.51435 5.97128,-3.92099z" fill="#67dc31" stroke-linecap="butt"/><path d="M325.14772,88.08352c5.04536,0.19031 15.75759,2.5568 15.3799,8.66057c-0.09861,1.59355 -1.41324,3.12448 -2.86727,4.03657c-3.08062,1.93239 -7.05194,-2.21598 -9.90515,-2.82124c-4.66215,-0.98898 -9.42298,-0.39337 -14.22614,-0.23278c-3.29623,0.11019 -8.44987,1.17637 -11.85654,2.95077c0.00546,0.02263 0.01077,0.0453 0.01589,0.06799c0.07468,0.30568 0.11677,0.62269 0.12278,0.94801c0.00299,0.16197 -0.00304,0.32221 -0.01766,0.48032c-0.06119,0.79076 -0.32223,1.55412 -0.7828,2.19022c-4.98837,6.88957 -15.4976,14.41157 -15.53608,23.64336c-0.05192,12.46239 6.50761,23.13427 6.39594,35.37991c-0.08268,9.06836 -5.29792,18.48792 -8.38328,26.98255c-0.83095,2.2878 -1.55088,4.60694 -2.31839,6.91255c-0.52496,1.57702 -1.05224,3.15349 -1.55896,4.73529c-1.23915,3.86812 -3.8131,18.36341 -11.10099,16.31604c-3.84109,-1.07907 -4.19236,-4.11973 -3.17481,-6.70092c3.09676,-7.85545 5.39756,-16.09783 8.12365,-24.10538c2.62739,-7.71765 7.33432,-16.11935 7.88553,-24.28358c0.4148,-6.14397 -2.66777,-12.00496 -4.27995,-17.78159c-1.57318,-5.63688 -1.55459,-11.54768 -2.16245,-17.33795c-0.82306,-7.84035 7.85664,-18.49374 13.96327,-25.54685c-0.12045,-0.31969 -0.15258,-0.65885 -0.07099,-1.01882c-0.00196,-0.04154 -0.00333,-0.08321 -0.0041,-0.12503c-0.02271,-1.23133 0.47566,-2.36279 1.31145,-3.22232c5.80138,-9.95752 24.71618,-10.51737 35.04714,-10.12767z" fill="#4cc513" stroke-linecap="butt"/><path d="M277.02642,124.40435c1.5777,1.10797 4.19834,1.63063 5.04973,3.14956c0.09777,0.17443 0.17223,0.36201 0.21907,0.56511c0.40605,1.76041 -0.63261,3.96105 -0.94016,5.72853c-0.81751,4.69816 -0.92043,10.08937 -0.83379,14.76997c0.11181,6.04026 1.71954,15.40179 0.79854,21.86754c-1.05062,7.37566 -5.0254,15.25256 -4.96555,22.5865c0.0513,6.28548 0.42648,12.56798 0.34775,18.85367c-0.03134,2.50236 -1.75769,4.78323 -5.17292,4.84623c-3.41248,0.06294 -5.22593,-2.15263 -5.34812,-4.65216c-0.31334,-6.40956 -0.27152,-12.83058 -0.355,-19.24672c-0.10463,-8.04154 4.9853,-15.82991 5.09783,-23.93283c0.0938,-6.75347 -1.00158,-13.48599 -0.92587,-20.2955c0.06864,-6.17305 0.11465,-12.31747 1.43376,-18.36679c0.2517,-1.15422 0.78313,-4.36626 2.16112,-4.6414z" fill="#7ade4c" stroke-linecap="butt"/><path d="M309.18039,110.80906c0.62392,-2.033 2.1987,-3.61004 4.27099,-4.75983c4.90819,-2.72326 12.60735,-3.04971 17.07449,-1.36051c2.29123,0.86641 5.31836,1.04089 6.55976,3.44993c1.43795,2.79047 -0.47276,7.21469 -3.9799,7.50961c-3.03355,0.25509 -3.9702,-2.19866 -6.42845,-2.16142c-1.65321,0.02504 -3.3063,0.0589 -4.95939,0.09147c-1.70872,0.03366 -6.3158,2.59137 -7.55117,1.87854z" fill="#9efd71" stroke-linecap="butt"/><path d="M330.24116,96.4182c4.14956,0.75318 12.06147,4.0086 9.30794,9.20418c-0.76398,1.44153 -2.69494,2.20082 -4.36211,2.73625c-3.14817,1.01107 -4.01059,-2.42711 -6.10702,-2.41738c-3.19673,0.01484 -7.28101,0.13532 -10.61756,0.60476c-3.05955,0.43045 -6.48013,2.4836 -9.00447,3.86939c-0.15574,0.0855 -0.31384,0.21411 -0.47594,0.37213c-0.36643,0.75701 -0.94474,1.41302 -1.66818,1.90548c-0.83196,0.85741 -1.81645,1.49415 -3.06639,0.95752c-2.2414,0.04134 -4.17873,-1.18889 -4.96932,-2.95769c-0.34557,-0.47379 -0.50487,-0.99516 -0.37469,-1.56944c-0.00196,-0.04154 -0.00333,-0.08321 -0.0041,-0.12503c-0.02904,-1.57432 0.79372,-2.98537 2.08445,-3.87357c5.81369,-6.84826 21.09252,-10.18853 29.25737,-8.70657z" fill="#67dc31" stroke-linecap="butt"/></g><path d="M214.78369,306.61252v-267.72501c0,0 153.66918,0 187.45214,0c12.51617,0 25.72989,0 25.72989,0v267.72501z" fill="none" stroke="none" stroke-width="0" stroke-linecap="butt"/><path d="M286.35186,319.07226l15.14285,-131.8421l37.78325,-0.15789l13.57389,132z" fill="#4cc114" stroke="#000000" stroke-width="0" stroke-linecap="butt"/><path d="M295.01902,243.61117l6.47569,-56.38101l37.78325,-0.15789l5.87786,57.15951z" fill="url(#color-1)" stroke="#000000" stroke-width="0" stroke-linecap="butt"/><path d="M286.35186,319.07226l15.14285,-131.8421l37.78325,-0.15789l13.57389,132z" fill="none" stroke="#000000" stroke-width="2" stroke-linecap="butt"/><path d="M263.92952,145.99114c2.50066,-33.20783 33.20655,-57.96849 68.58351,-55.30448c35.37697,2.66401 62.02847,31.74387 59.52781,64.9517c-2.50066,33.20783 -33.20654,57.9685 -68.58351,55.30449c-35.37696,-2.66401 -62.02847,-31.74388 -59.52781,-64.95171z" fill="#4cc114" stroke="#000000" stroke-width="2" stroke-linecap="butt"/><path d="M277.49746,147.28925c0.97378,-12.9314 12.24615,-22.62495 25.17755,-21.65118c12.9314,0.97378 22.62495,12.24614 21.65118,25.17754c-0.97378,12.9314 -12.24614,22.62496 -25.17754,21.65119c-12.9314,-0.97378 -22.62496,-12.24615 -21.65119,-25.17755z" fill="#ffffff" stroke="#000000" stroke-width="2" stroke-linecap="butt"/><path d="M291.30829,149.12193c0.62323,-8.27621 7.83764,-14.48019 16.11385,-13.85696c8.27621,0.62323 14.48019,7.83765 13.85696,16.11387c-0.62323,8.27621 -7.83765,14.4802 -16.11387,13.85697c-8.27621,-0.62323 -14.48018,-7.83765 -13.85695,-16.11387z" fill="#000000" stroke="#000000" stroke-width="5" stroke-linecap="butt"/><path d="" fill="none" stroke="#000000" stroke-width="2" stroke-linecap="round"/><path d="M353.25392,176.54113c-12.9314,-0.97378 -22.62495,-12.24615 -21.65118,-25.17755c0.97378,-12.9314 12.24614,-22.62495 25.17754,-21.65118c12.9314,0.97378 22.62496,12.24614 21.65119,25.17754c-0.97378,12.9314 -12.24615,22.62496 -25.17755,21.65119z" fill="#ffffff" stroke="#000000" stroke-width="2" stroke-linecap="butt"/><path d="M375.26674,154.8962c-0.62323,8.27623 -7.83764,14.4802 -16.11386,13.85697c-8.27621,-0.62323 -14.48019,-7.83767 -13.85696,-16.11387c0.62323,-8.27623 7.83766,-14.4802 16.11387,-13.85697c8.27621,0.62323 14.48018,7.83766 13.85695,16.11386z" fill="#000000" stroke="#000000" stroke-width="5" stroke-linecap="butt"/><path d="M289.20644,121.19627c0,0 7.8293,-3.23001 13.05271,-3.04891c5.22342,0.18111 11.7196,3.90781 11.7196,3.90781c0,0 -7.74129,-2.16504 -11.77517,-2.30489c-4.21556,-0.14615 -12.99714,1.446 -12.99714,1.446z" fill="#000000" stroke="none" stroke-width="0" stroke-linecap="butt"/><path d="M355.26995,123.99743c-4.00979,-0.46189 -11.98704,0.52723 -11.98704,0.52723c0,0 6.97836,-2.71867 12.17058,-2.12057c5.19222,0.5981 12.45377,4.95706 12.45377,4.95706c0,0 -8.44694,-2.88102 -12.63731,-3.36372z" fill="#000000" stroke="none" stroke-width="0" stroke-linecap="butt"/><path d="M277.49746,147.28925c0.97378,-12.9314 12.24615,-22.62495 25.17755,-21.65118c12.9314,0.97378 22.62495,12.24614 21.65118,25.17754c-0.00428,0.05679 -46.83201,-3.48271 -46.82872,-3.52636z" fill="#4cc114" stroke="#000000" stroke-width="2" stroke-linecap="butt"/><path d="M331.60274,151.36359c0.97378,-12.9314 12.24614,-22.62495 25.17754,-21.65118c12.9314,0.97378 22.62496,12.24614 21.65119,25.17754c-0.00667,0.08858 -46.83734,-3.41192 -46.82872,-3.52636z" fill="#4cc114" stroke="#000000" stroke-width="2" stroke-linecap="butt"/><path d="M372.63388,168.94331l1.75556,6.6506l-6.81128,-2.76928z" fill="#000000" stroke="#000000" stroke-width="0.5" stroke-linecap="round"/><path d="M310.4139,192.83862c0,0 9.33638,2.54159 14.3193,2.95861c4.98258,0.41699 15.57723,-0.45659 15.57723,-0.45659c0,0 -10.79,10.44181 -19.14376,9.74269c-8.35376,-0.69912 -10.75277,-12.24471 -10.75277,-12.24471z" fill="#000000" stroke="#000000" stroke-width="2" stroke-linecap="round"/><g stroke-width="0.5"><path d="M293.38866,170.61046l-7.71085,2.39261l2.37195,-6.54485z" fill="#000000" stroke="#000000" stroke-linecap="round"/><path d="M316.04035,114.83947c-0.4003,0.21266 -0.80396,0.34929 -1.20885,0.44265c-0.44026,0.11929 -0.90492,0.18815 -1.38591,0.19901c-1.0907,0.10031 -2.17245,0.15736 -3.20315,0.81125c-2.68664,1.70445 -8.83108,8.20605 -9.44967,11.77005c-3.27898,18.89179 6.24302,37.07952 3.90134,56.02187c-0.90319,7.30615 -6.53587,15.18104 -9.81124,21.73794c-1.46863,2.94002 -3.81202,6.54021 -3.98638,9.86267c-0.0372,0.70874 0.41418,4.70813 -0.55421,5.61535c-1.22876,1.15116 -2.792,2.42691 -4.55915,2.4595c-6.16588,0.11373 -6.04569,-6.63812 -5.17963,-10.15828c2.65012,-10.77169 11.32538,-19.91631 13.63751,-30.67805c4.13986,-19.26893 -11.21413,-39.6292 -3.10119,-58.78148c2.58679,-6.10665 8.95447,-14.00754 15.56372,-16.83005c1.80954,-0.77279 7.8883,-2.74865 9.2243,-0.7216c1.56573,0.79753 2.63396,2.30208 2.66611,4.04514c0.02851,1.54552 -0.76391,2.9337 -2.01409,3.82431c-0.15934,0.14454 -0.33762,0.27247 -0.53952,0.37974z" fill="#9efd71" stroke="none" stroke-linecap="butt"/><path d="M291.37799,104.87082c0.38328,5.44633 -9.23831,9.16626 -12.61639,12.02653c-4.50944,3.81821 -6.69574,9.57719 -7.75155,14.97706c-2.2267,11.38836 -0.74934,26.14022 -0.37515,36.41837c0.0491,1.3488 0.60615,3.54795 0.65031,5.2258c0.04727,1.79606 -0.0815,16.82335 -4.39118,18.58286c-4.52613,1.8479 -6.57478,1.15051 -8.6044,-2.92901c-1.19619,-2.40433 2.54766,-6.20415 2.60078,-8.61572c0.0485,-2.20258 0.02083,-4.40863 -0.12187,-6.60721c-0.10845,-1.67094 -0.45802,-3.32299 -0.58121,-4.99305c-1.46445,-19.85271 -4.87019,-47.31036 14.7177,-61.50123c0.03993,-0.02893 0.05592,-0.07969 0.09644,-0.10794c2.24056,-1.56228 4.65094,-3.06461 6.74626,-4.78193c0.1368,-0.18058 0.28701,-0.35229 0.44936,-0.51396c0.94248,-0.93859 2.29401,-1.53878 3.8049,-1.56664c2.58345,-0.04765 4.76297,1.594 5.24817,3.80253c0.06927,0.18285 0.11328,0.37675 0.12783,0.58355z" fill="#9efd71" stroke="none" stroke-linecap="butt"/><path d="M305.54843,115.16766c-4.13318,4.39631 -8.46761,9.60641 -10.00378,15.3585c-4.53627,16.9857 2.99217,33.0962 1.32797,49.95176c-0.11332,1.14766 -0.34994,2.37957 -0.56971,3.51262c-0.68441,3.52842 -4.26774,18.36748 -12.27129,11.40545c-1.27038,-1.10506 -1.45066,-2.9964 -1.48008,-4.59177c-0.01089,-0.59052 1.73033,-2.43268 2.1193,-3.35245c1.29987,-3.07366 1.87357,-6.92279 1.91659,-10.18022c0.26709,-20.22755 -9.11402,-40.7084 3.91952,-59.47591c2.60104,-3.74535 5.16552,-6.90288 8.3975,-10.21808c0.68746,-0.70516 2.47052,-2.74926 3.58887,-2.49568c0.41961,-0.10597 0.86052,-0.16638 1.31592,-0.17478c2.90531,-0.05359 5.29973,2.02925 5.34811,4.65216c1.20078,1.349 -2.78582,4.7329 -3.60891,5.60839z" fill="#67dc31" stroke="none" stroke-linecap="butt"/><path d="M264.805,146.67567c1.12553,-5.4895 2.59827,-10.94481 4.60754,-16.22749c1.3081,-3.43919 2.93385,-6.07179 3.81474,-9.61896c2.34491,-9.44252 4.14459,-17.02248 10.91823,-24.76405c2.28104,-2.60699 5.01233,-7.1719 9.84338,-4.02915c4.28653,2.78852 1.65288,6.18709 -0.4496,8.65976c-7.81052,9.18579 -6.90995,12.20986 -10.1319,22.52105c-1.80749,5.78448 -4.90046,11.15373 -6.54918,16.9773c-1.33362,4.71058 -2.14537,11.19545 -2.90892,16.00566c-0.54302,3.42094 -1.37371,8.3399 -5.48258,9.34725c-0.3678,0.09017 -0.86527,0.20574 -1.39846,0.28729c-1.17401,0.17958 -2.5211,0.1943 -3.03786,-0.58975c-1.56574,-0.79753 -2.63397,-2.30208 -2.66612,-4.04514c-0.0213,-1.15491 0.41581,-2.22196 1.15977,-3.05919c1.16332,-3.71049 1.38258,-7.08296 2.28097,-11.46459z" fill="#67dc31" stroke="none" stroke-linecap="butt"/><path d="M293.30031,87.0202c11.03372,-6.25318 23.95181,-6.4659 36.15417,-3.3459c4.34318,1.11049 16.17736,4.12181 14.04188,10.25111c-1.28577,3.69045 -3.79996,3.42074 -6.5987,3.12639c-1.81766,-0.19116 -3.83392,-2.10388 -5.17365,-2.69856c-5.73362,-2.54508 -13.04489,-3.48012 -19.28549,-3.35764c-5.5206,0.10834 -11.09157,2.8493 -15.73982,5.20186c-1.31651,0.66631 -4.04872,4.042 -6.00839,3.20065c-2.2414,0.04134 -4.17873,-1.18889 -4.96932,-2.95769c-0.34557,-0.47379 -0.50487,-0.99516 -0.37469,-1.56944c-0.00196,-0.04154 -0.00333,-0.08321 -0.0041,-0.12503c-0.0283,-1.53425 0.7524,-2.91344 1.98682,-3.80474c1.44887,-1.54217 3.48926,-2.51435 5.97128,-3.92099z" fill="#67dc31" stroke="none" stroke-linecap="butt"/><path d="M325.14772,88.08352c5.04536,0.19031 15.75759,2.5568 15.3799,8.66057c-0.09861,1.59355 -1.41324,3.12448 -2.86727,4.03657c-3.08062,1.93239 -7.05194,-2.21598 -9.90515,-2.82124c-4.66215,-0.98898 -9.42298,-0.39337 -14.22614,-0.23278c-3.29623,0.11019 -8.44987,1.17637 -11.85654,2.95077c0.00546,0.02263 0.01077,0.0453 0.01589,0.06799c0.07468,0.30568 0.11677,0.62269 0.12278,0.94801c0.00299,0.16197 -0.00304,0.32221 -0.01766,0.48032c-0.06119,0.79076 -0.32223,1.55412 -0.7828,2.19022c-4.98837,6.88957 -15.4976,14.41157 -15.53608,23.64336c-0.05192,12.46239 6.50761,23.13427 6.39594,35.37991c-0.08268,9.06836 -5.29792,18.48792 -8.38328,26.98255c-0.83095,2.2878 -1.55088,4.60694 -2.31839,6.91255c-0.52496,1.57702 -1.05224,3.15349 -1.55896,4.73529c-1.23915,3.86812 -3.8131,18.36341 -11.10099,16.31604c-3.84109,-1.07907 -4.19236,-4.11973 -3.17481,-6.70092c3.09676,-7.85545 5.39756,-16.09783 8.12365,-24.10538c2.62739,-7.71765 7.33432,-16.11935 7.88553,-24.28358c0.4148,-6.14397 -2.66777,-12.00496 -4.27995,-17.78159c-1.57318,-5.63688 -1.55459,-11.54768 -2.16245,-17.33795c-0.82306,-7.84035 7.85664,-18.49374 13.96327,-25.54685c-0.12045,-0.31969 -0.15258,-0.65885 -0.07099,-1.01882c-0.00196,-0.04154 -0.00333,-0.08321 -0.0041,-0.12503c-0.02271,-1.23133 0.47566,-2.36279 1.31145,-3.22232c5.80138,-9.95752 24.71618,-10.51737 35.04714,-10.12767z" fill="#4cc513" stroke="none" stroke-linecap="butt"/><path d="M277.02642,124.40435c1.5777,1.10797 4.19834,1.63063 5.04973,3.14956c0.09777,0.17443 0.17223,0.36201 0.21907,0.56511c0.40605,1.76041 -0.63261,3.96105 -0.94016,5.72853c-0.81751,4.69816 -0.92043,10.08937 -0.83379,14.76997c0.11181,6.04026 1.71954,15.40179 0.79854,21.86754c-1.05062,7.37566 -5.0254,15.25256 -4.96555,22.5865c0.0513,6.28548 0.42648,12.56798 0.34775,18.85367c-0.03134,2.50236 -1.75769,4.78323 -5.17292,4.84623c-3.41248,0.06294 -5.22593,-2.15263 -5.34812,-4.65216c-0.31334,-6.40956 -0.27152,-12.83058 -0.355,-19.24672c-0.10463,-8.04154 4.9853,-15.82991 5.09783,-23.93283c0.0938,-6.75347 -1.00158,-13.48599 -0.92587,-20.2955c0.06864,-6.17305 0.11465,-12.31747 1.43376,-18.36679c0.2517,-1.15422 0.78313,-4.36626 2.16112,-4.6414z" fill="#7ade4c" stroke="none" stroke-linecap="butt"/><path d="M309.18039,110.80906c0.62392,-2.033 2.1987,-3.61004 4.27099,-4.75983c4.90819,-2.72326 12.60735,-3.04971 17.07449,-1.36051c2.29123,0.86641 5.31836,1.04089 6.55976,3.44993c1.43795,2.79047 -0.47276,7.21469 -3.9799,7.50961c-3.03355,0.25509 -3.9702,-2.19866 -6.42845,-2.16142c-1.65321,0.02504 -3.3063,0.0589 -4.95939,0.09147c-1.70872,0.03366 -6.3158,2.59137 -7.55117,1.87854z" fill="#9efd71" stroke="none" stroke-linecap="butt"/><path d="M330.24116,96.4182c4.14956,0.75318 12.06147,4.0086 9.30794,9.20418c-0.76398,1.44153 -2.69494,2.20082 -4.36211,2.73625c-3.14817,1.01107 -4.01059,-2.42711 -6.10702,-2.41738c-3.19673,0.01484 -7.28101,0.13532 -10.61756,0.60476c-3.05955,0.43045 -6.48013,2.4836 -9.00447,3.86939c-0.15574,0.0855 -0.31384,0.21411 -0.47594,0.37213c-0.36643,0.75701 -0.94474,1.41302 -1.66818,1.90548c-0.83196,0.85741 -1.81645,1.49415 -3.06639,0.95752c-2.2414,0.04134 -4.17873,-1.18889 -4.96932,-2.95769c-0.34557,-0.47379 -0.50487,-0.99516 -0.37469,-1.56944c-0.00196,-0.04154 -0.00333,-0.08321 -0.0041,-0.12503c-0.02904,-1.57432 0.79372,-2.98537 2.08445,-3.87357c5.81369,-6.84826 21.09252,-10.18853 29.25737,-8.70657z" fill="#67dc31" stroke="none" stroke-linecap="butt"/></g><g stroke-width="0.5"><path d="M379.79833,177.68087l1.98048,6.97698l-7.57561,-2.5266z" fill="#000000" stroke="#000000" stroke-linecap="round"/><path d="M354.36734,122.28319c-1.19798,-0.94617 -1.9077,-2.42499 -1.78606,-4.07461c0.13718,-1.86047 1.29726,-3.47 2.91284,-4.3267c1.45963,-2.16813 7.42636,-0.0806 9.19146,0.73784c6.44686,2.98929 12.34598,11.39954 14.56793,17.90807c6.9687,20.41268 -9.62927,42.19689 -6.64525,62.74799c1.66659,11.47784 9.80103,21.20744 11.80541,32.69471c0.65503,3.75402 0.36868,10.95981 -5.79745,10.86003c-1.76722,-0.0286 -3.25543,-1.38471 -4.41627,-2.60903c-0.91486,-0.96489 -0.22209,-5.23499 -0.21663,-5.99129c0.02555,-3.54543 -2.10369,-7.37967 -3.39693,-10.5124c-2.8842,-6.98666 -8.04906,-15.37174 -8.51323,-23.16639c-1.20345,-20.20884 9.42497,-39.65388 7.2801,-59.80548c-0.40463,-3.80166 -6.16454,-10.71924 -8.75161,-12.52898c-0.9925,-0.69428 -2.07205,-0.75137 -3.15796,-0.85461c-0.48089,-0.0099 -0.94194,-0.08177 -1.37552,-0.20755c-0.39973,-0.09822 -0.79564,-0.24263 -1.18359,-0.4682c-0.19568,-0.11377 -0.36645,-0.2497 -0.51727,-0.4034z" fill="#9efd71" stroke="none" stroke-linecap="butt"/><path d="M380.33891,111.33742c0.61878,-2.35885 2.89967,-4.11861 5.48324,-4.07681c1.51095,0.02445 2.82788,0.66028 3.71491,1.65873c0.15279,0.17199 0.29284,0.35474 0.41892,0.54698c1.9943,1.82554 4.31696,3.42053 6.46599,5.08009c0.03887,0.03001 0.05182,0.08413 0.09007,0.11487c18.75569,15.07718 13.69221,44.3945 11.03033,65.58831c-0.22392,1.78287 -0.6734,3.54732 -0.88262,5.33109c-0.27529,2.34704 -0.43587,4.70164 -0.51998,7.05227c-0.09208,2.57364 3.42723,6.61607 2.08483,9.18639c-2.27767,4.36115 -4.37069,5.11263 -8.79071,3.15626c-4.20866,-1.86282 -3.43247,-17.9009 -3.27695,-19.81799c0.14527,-1.79093 0.83542,-4.14 0.96582,-5.57975c0.99368,-10.97112 3.36126,-26.72086 1.81793,-38.86779c-0.73177,-5.75954 -2.57372,-11.89841 -6.85838,-15.95776c-3.20969,-3.0409 -12.61829,-6.97745 -11.90652,-12.79162c0.02702,-0.22075 0.08276,-0.42786 0.16312,-0.62326z" fill="#9efd71" stroke="none" stroke-linecap="butt"/><path d="M362.09357,117.02693c0.20642,-2.79959 2.72905,-5.03099 5.63447,-4.98398c0.45542,0.00737 0.8932,0.07028 1.30691,0.18193c1.1349,-0.27456 2.79689,1.90085 3.44267,2.65105c3.03603,3.52696 5.41325,6.88799 7.7917,10.87626c11.91814,19.98477 1.29264,41.87673 0.34171,63.46455c-0.15314,3.47648 0.1894,7.58261 1.30562,10.85857c0.33402,0.98031 1.96629,2.94032 1.91982,3.57063c-0.12556,1.70285 -0.41995,3.72208 -1.75835,4.90596c-8.43209,7.45859 -11.12576,-8.3665 -11.59844,-12.12997c-0.15178,-1.20852 -0.31448,-2.52251 -0.35879,-3.747c-0.65089,-17.984 7.85658,-35.20504 4.33816,-53.31788c-1.19148,-6.13379 -5.21709,-11.67932 -9.09023,-16.35699c-0.7713,-0.93152 -4.55868,-4.52916 -3.27526,-5.97315z" fill="#67dc31" stroke="none" stroke-linecap="butt"/><path d="M405.85442,168.7137c0.6944,0.89095 1.06774,2.02828 0.97685,3.26098c-0.13718,1.86047 -1.29727,3.47001 -2.91284,4.3267c-0.56459,0.83864 -1.91233,0.82763 -3.07688,0.64009c-0.52888,-0.08518 -1.01997,-0.20675 -1.38276,-0.30171c-4.05292,-1.06074 -4.58829,-6.30782 -4.92589,-9.95705c-0.4747,-5.13123 -0.8968,-12.04964 -1.94822,-17.07254c-1.29986,-6.20968 -4.07297,-11.9294 -5.53415,-18.09681c-2.60461,-10.99378 -1.52086,-14.2245 -8.78709,-24.00108c-1.95595,-2.63171 -4.38794,-6.24974 0.07149,-9.24094c5.0259,-3.37117 7.48538,1.49135 9.61202,4.26579c6.31514,8.2388 7.66034,16.32254 9.43922,26.39227c0.66825,3.7828 2.13731,6.58685 3.23976,10.2529c1.69341,5.63111 2.83925,11.44837 3.63543,17.30334c0.63551,4.67333 0.65188,8.27199 1.59306,12.2281z" fill="#67dc31" stroke="none" stroke-linecap="butt"/><path d="M385.06839,97.07949c1.18216,0.94695 1.88067,2.41621 1.75993,4.05382c-0.00329,0.04463 -0.00717,0.08913 -0.01164,0.13346c0.09573,0.61247 -0.09517,1.16947 -0.46966,1.67636c-0.89804,1.89059 -2.9117,3.21041 -5.15318,3.17414c-2.01261,0.90483 -4.54463,-2.68844 -5.82252,-3.39498c-4.51189,-2.49458 -9.92417,-5.40046 -15.4446,-5.49675c-6.24041,-0.10885 -13.6164,0.91473 -19.50991,3.65118c-1.37708,0.6394 -3.51087,2.68789 -5.34213,2.89829c-2.81969,0.32397 -5.35301,0.62064 -6.41797,-3.31365c-1.76876,-6.53428 10.26041,-9.78972 14.67547,-10.99017c12.40432,-3.37271 25.32445,-3.19097 35.99423,3.44436c2.40016,1.49261 4.38435,2.52305 5.74199,4.16392z" fill="#67dc31" stroke="none" stroke-linecap="butt"/><path d="M381.85577,104.84841c0.78498,0.91444 1.21577,2.1203 1.11887,3.43457c-0.00329,0.04463 -0.00717,0.08913 -0.01164,0.13346c0.06,0.38389 0.00741,0.746 -0.13244,1.08763c5.68884,7.50634 13.73686,18.84623 12.44062,27.21707c-0.95731,6.18206 -1.29471,12.49054 -3.20922,18.51227c-1.96197,6.17101 -5.40111,12.43722 -5.35589,18.9932c0.06009,8.71171 4.2664,17.66229 6.43196,25.89009c2.2469,8.53685 4.05391,17.32585 6.68109,25.69905c0.86325,2.75133 0.32844,5.99783 -3.58207,7.16298c-7.41959,2.21069 -9.12343,-13.25102 -10.13103,-17.3751c-0.41204,-1.68648 -0.84496,-3.36719 -1.27554,-5.0485c-0.6295,-2.45807 -1.21058,-4.93074 -1.9047,-7.36958c-2.57727,-9.05546 -7.23115,-19.09062 -6.76772,-28.76894c0.62578,-13.06931 7.83564,-24.48234 8.53428,-37.78318c0.51752,-9.8529 -9.55073,-17.84425 -14.12987,-25.17997c-0.42279,-0.67729 -0.63816,-1.49111 -0.65179,-2.33487c-0.00512,-0.16871 -0.0015,-0.33971 0.01125,-0.51258c0.02561,-0.34724 0.08684,-0.68574 0.18002,-1.01224c0.0065,-0.02424 0.01319,-0.04844 0.02001,-0.07262c-3.30371,-1.88187 -8.39906,-3.00172 -11.69245,-3.10779c-4.79902,-0.15456 -9.52943,-0.77356 -14.25653,0.29832c-2.89293,0.65598 -7.1187,5.09744 -10.08646,3.0458c-1.40078,-0.96836 -2.6247,-2.59771 -2.62745,-4.29815c-0.01049,-6.51319 10.85661,-9.07647 15.91923,-9.29728c10.36632,-0.45214 29.26915,0.07911 34.47746,10.68638z" fill="#4cc513" stroke="none" stroke-linecap="butt"/><path d="M381.45437,109.81059c1.363,0.28883 16.64462,27.9601 16.82707,29.19111c0.95627,6.45179 0.63225,13.00952 0.32916,19.59774c-0.33434,7.26749 -1.83649,14.45691 -2.14935,21.66451c-0.37538,8.64781 4.2513,16.94244 3.66219,25.5255c-0.47004,6.84821 -0.81491,13.70118 -1.51467,20.54316c-0.27288,2.66817 -2.22185,5.0392 -5.63447,4.98398c-3.41538,-0.05527 -5.00633,-2.48356 -4.88698,-5.15422c0.29979,-6.70841 1.0538,-13.415 1.48373,-20.12363c0.50165,-7.82768 -3.00326,-16.22072 -3.61085,-24.08903c-0.53264,-6.89763 1.64082,-16.89476 2.11657,-23.3419c0.36866,-4.99588 0.59036,-10.74952 0.05486,-15.76097c-0.20146,-1.88533 -1.10877,-4.23045 -0.59621,-6.11074c0.05913,-0.21694 -14.852,-21.32943 -14.7436,-21.51594c0.94386,-1.62412 -1.20353,-5.87345 1.31048,-7.44339c2.51401,-1.56994 7.35207,2.03382 7.35207,2.03382z" fill="#7ade4c" stroke="none" stroke-linecap="butt"/><path d="M356.7232,123.33893c-1.27973,0.76514 -5.73805,-1.94854 -7.44671,-1.97847c-1.65303,-0.02897 -3.30598,-0.05931 -4.95959,-0.08025c-2.45883,-0.03112 -3.54435,2.59102 -6.56603,2.32939c-3.49341,-0.30246 -5.13984,-5.01771 -3.53216,-8.001c1.38793,-2.5755 4.42905,-2.77233 6.7751,-3.70507c4.57404,-1.81853 12.26238,-1.49709 17.01219,1.39222c2.00542,1.2199 3.48701,2.89756 3.98921,5.06516z" fill="#9efd71" stroke="none" stroke-linecap="butt"/><path d="M370.54361,112.26538c1.23871,0.94344 1.97744,2.44656 1.85354,4.12692c-0.00329,0.04463 -0.00717,0.08913 -0.01164,0.13346c0.09573,0.61247 -0.09516,1.16947 -0.46965,1.67636c-0.89804,1.89059 -2.9117,3.21041 -5.15318,3.17414c-1.28369,0.57712 -2.23096,-0.09902 -3.01224,-1.0112c-0.69461,-0.52305 -1.23407,-1.22118 -1.55533,-2.02786c-0.15277,-0.16809 -0.3033,-0.3048 -0.45408,-0.3955c-2.44376,-1.4702 -5.74462,-3.64951 -8.78175,-4.09821c-3.3121,-0.48933 -7.39383,-0.60361 -10.59334,-0.60825c-2.09825,-0.00304 -3.16875,3.66954 -6.25963,2.60146c-1.63683,-0.56562 -3.52429,-1.36923 -4.20232,-2.90508c-2.44376,-5.53556 5.67333,-9.03779 9.87303,-9.85618c8.26352,-1.61031 23.35872,1.9012 28.76661,9.18994z" fill="#67dc31" stroke="none" stroke-linecap="butt"/></g><path d="M343.41688,92.49184c3.01933,-5.27425 -0.63703,-9.20006 4.2813,-15.18453c4.91832,-5.98448 6.6097,-10.05373 13.87382,-13.96709c7.26412,-3.91337 7.62272,-7.59112 19.82638,-4.18806c12.20366,3.40306 23.50856,12.78385 27.35382,17.34449c3.84525,4.56064 -1.17584,12.72547 0.09135,15.20663c1.26719,2.48116 1.67893,1.14905 6.50478,-2.29138c4.82585,-3.44042 11.15855,-10.30105 11.15855,-10.30105c0,0 -3.54315,14.0873 -8.43164,18.1513c-4.8885,4.06399 -9.75939,6.75657 -14.99373,1.32308c-5.23434,-5.43348 4.50524,-10.42988 -1.51655,-18.46145c-6.02179,-8.03156 -14.63317,-11.72643 -22.02538,-12.93764c-7.39221,-1.21121 -12.66455,0.54199 -17.60984,6.44347c-4.9453,5.90149 -4.53398,13.94794 -6.51866,19.86834c-1.98469,5.92039 -8.71907,13.38754 -8.71907,13.38754c0,0 -2.86588,1.89863 -5.53683,0.721c-2.67531,-1.17956 -2.50577,-7.44114 -2.50577,-7.44114c0,0 1.74815,-2.39929 4.76748,-7.67354z" fill="#026b00" stroke="#000000" stroke-width="2" stroke-linecap="round"/><g stroke-linecap="butt"><g stroke="#000000" stroke-width="2"><path d="M278.84688,130.50651c-0.77433,-3.53797 1.05096,-8.79781 4.65876,-9.58743c3.6078,-0.78961 7.63191,3.19003 8.40624,6.728c0.77433,3.53797 -1.6308,5.74493 -5.2386,6.53453c-3.6078,0.78961 -7.05207,-0.13713 -7.8264,-3.6751z" fill="#d995cc"/><path d="M292.13921,126.59315c-3.51452,-0.8746 -7.41982,-4.84279 -6.52794,-8.42668c0.89187,-3.58389 6.24316,-5.42635 9.75768,-4.55176c3.51452,0.8746 4.4263,4.00892 3.53444,7.5928c-0.89187,3.58389 -3.24966,6.26021 -6.76418,5.38562z" fill="#d995cc"/><path d="M291.03527,111.47599c-1.1951,3.41886 -5.50663,6.94141 -8.99295,5.72272c-3.48633,-1.2187 -4.82727,-6.71713 -3.63216,-10.13599c1.1951,-3.41886 4.40017,-4.0376 7.8865,-2.81891c3.48633,1.2187 5.93373,3.81331 4.73862,7.23217z" fill="#d995cc"/><path d="M277.66411,107.84111c2.53456,2.58706 3.78032,8.01344 1.14219,10.59802c-2.63812,2.58457 -8.16109,1.34861 -10.69566,-1.23844c-2.53456,-2.58706 -1.66811,-5.7342 0.97002,-8.31877c2.63812,-2.58457 6.04889,-3.62786 8.58344,-1.0408z" fill="#d995cc"/><path d="M269.15082,119.88559c2.99782,-2.03221 8.55942,-2.28964 10.63174,0.76735c2.07232,3.057 -0.12938,8.27077 -3.12719,10.30299c-2.99783,2.03222 -5.93984,0.61807 -8.01217,-2.43893c-2.07232,-3.057 -2.49021,-6.59919 0.5076,-8.63141z" fill="#d995cc"/><path d="M274.06216,120.20637c-0.07089,-3.84357 2.98746,-7.01686 6.83102,-7.08775c3.84357,-0.07089 7.01685,2.98746 7.08774,6.83102c0.07089,3.84357 -2.98746,7.01686 -6.83101,7.08775c-3.84357,0.07089 -7.01686,-2.98746 -7.08775,-6.83102z" fill="#d8a51e"/></g><g stroke="none" stroke-width="0"><path d="M278.84688,130.50651c-0.77433,-3.53797 1.05096,-8.79781 4.65876,-9.58743c3.6078,-0.78961 7.63191,3.19004 8.40624,6.728c0.77433,3.53797 -1.6308,5.74493 -5.2386,6.53453c-3.6078,0.78961 -7.05207,-0.13713 -7.8264,-3.6751z" fill="#d995cc"/><path d="M292.13921,126.59315c-3.51452,-0.8746 -7.41982,-4.84278 -6.52794,-8.42668c0.89187,-3.58389 6.24316,-5.42635 9.75768,-4.55176c3.51452,0.8746 4.4263,4.00892 3.53444,7.59281c-0.89187,3.58389 -3.24966,6.26021 -6.76418,5.38561z" fill="#d995cc"/><path d="M291.03527,111.476c-1.1951,3.41886 -5.50664,6.94141 -8.99296,5.72272c-3.48633,-1.2187 -4.82727,-6.71713 -3.63217,-10.13598c1.1951,-3.41886 4.40016,-4.03761 7.88649,-2.81891c3.48633,1.2187 5.93374,3.81332 4.73863,7.23218z" fill="#d995cc"/><path d="M277.66411,107.84111c2.53455,2.58706 3.7803,8.01345 1.14219,10.59803c-2.63811,2.58457 -8.16109,1.34861 -10.69565,-1.23844c-2.53455,-2.58706 -1.66811,-5.7342 0.97001,-8.31877c2.63811,-2.58457 6.0489,-3.62787 8.58345,-1.04081z" fill="#d995cc"/><path d="M269.15082,119.88559c2.99782,-2.03221 8.55942,-2.28963 10.63174,0.76735c2.07232,3.05699 -0.12938,8.27077 -3.12719,10.30299c-2.99783,2.03222 -5.93984,0.61807 -8.01217,-2.43893c-2.07232,-3.05699 -2.49021,-6.59919 0.5076,-8.63141z" fill="#d995cc"/><path d="M274.06216,120.20637c-0.07089,-3.84357 2.98746,-7.01686 6.83101,-7.08775c3.84357,-0.07089 7.01685,2.98746 7.08774,6.83102c0.07089,3.84357 -2.98746,7.01686 -6.83101,7.08775c-3.84357,0.07089 -7.01685,-2.98746 -7.08774,-6.83102z" fill="#d8a51e"/></g></g><g stroke-linecap="butt"><g stroke="#000000" stroke-width="2"><path d="M396.93801,183.38348c-1.72024,-2.03312 -2.34316,-6.07957 -0.26991,-7.83375c2.07325,-1.75419 6.05758,-0.55186 7.77782,1.48126c1.72024,2.03312 0.91618,4.29481 -1.15707,6.04902c-2.07325,1.75419 -4.6306,2.33661 -6.35084,0.30348z" fill="#d995cc"/><path d="M404.23114,176.26781c-2.58508,0.64047 -6.48823,-0.59529 -7.14134,-3.23138c-0.65311,-2.63609 2.19115,-5.6743 4.77623,-6.31477c2.58508,-0.64047 4.25581,1.08302 4.90892,3.71912c0.65311,2.63609 0.04127,5.18658 -2.54381,5.82704z" fill="#d995cc"/><path d="M398.31373,166.82227c0.39925,2.63314 -1.1913,6.40565 -3.87642,6.81278c-2.68511,0.40713 -5.44796,-2.70528 -5.84722,-5.33842c-0.39925,-2.63314 1.47102,-4.13775 4.15613,-4.54489c2.68511,-0.40713 5.16826,0.43737 5.56751,3.07052z" fill="#d995cc"/><path d="M388.37296,169.05915c2.5372,0.80961 5.2134,3.90794 4.38781,6.49521c-0.82559,2.58728 -4.84035,3.68373 -7.37755,2.87413c-2.5372,-0.80961 -3.05658,-3.1531 -2.231,-5.74038c0.82559,-2.58728 2.68354,-4.43857 5.22074,-3.62896z" fill="#d995cc"/><path d="M386.98281,179.81572c1.24938,-2.352 4.77555,-4.43237 7.17396,-3.15833c2.39842,1.27404 2.76085,5.42002 1.51147,7.77201c-1.24938,2.352 -3.64794,2.44487 -6.04637,1.17083c-2.39842,-1.27404 -3.88845,-3.43252 -2.63908,-5.78451z" fill="#d995cc"/><path d="M390.28523,178.33482c-1.36817,-2.4737 -0.47195,-5.58816 2.00175,-6.95633c2.47371,-1.36817 5.58815,-0.47195 6.95632,2.00176c1.36817,2.47371 0.47195,5.58816 -2.00175,6.95633c-2.4737,1.36817 -5.58816,0.47195 -6.95633,-2.00176z" fill="#d8a51e"/></g><g stroke="none" stroke-width="0"><path d="M396.93801,183.38348c-1.72024,-2.03312 -2.34316,-6.07957 -0.26991,-7.83376c2.07325,-1.75419 6.05758,-0.55185 7.77782,1.48127c1.72024,2.03312 0.91618,4.29481 -1.15707,6.04902c-2.07325,1.75419 -4.6306,2.33661 -6.35084,0.30348z" fill="#ffc37a"/><path d="M404.23114,176.26781c-2.58508,0.64047 -6.48824,-0.59528 -7.14134,-3.23138c-0.65311,-2.6361 2.19115,-5.6743 4.77623,-6.31477c2.58508,-0.64047 4.25581,1.08302 4.90892,3.71913c0.65311,2.6361 0.04127,5.18657 -2.54381,5.82703z" fill="#ffc37a"/><path d="M398.31373,166.82228c0.39925,2.63314 -1.19131,6.40564 -3.87642,6.81278c-2.68511,0.40713 -5.44796,-2.70528 -5.84722,-5.33842c-0.39925,-2.63314 1.47101,-4.13775 4.15612,-4.54489c2.68511,-0.40713 5.16827,0.43738 5.56752,3.07053z" fill="#ffc37a"/><path d="M388.37295,169.05915c2.5372,0.80962 5.2134,3.90795 4.38781,6.49521c-0.82559,2.58728 -4.84035,3.68374 -7.37755,2.87413c-2.5372,-0.80962 -3.05658,-3.1531 -2.231,-5.74038c0.82559,-2.58728 2.68353,-4.43858 5.22073,-3.62896z" fill="#ffc37a"/><path d="M386.98281,179.81572c1.24938,-2.352 4.77556,-4.43236 7.17396,-3.15833c2.39841,1.27403 2.76085,5.42002 1.51147,7.77201c-1.24938,2.352 -3.64795,2.44486 -6.04637,1.17083c-2.39841,-1.27403 -3.88845,-3.43252 -2.63908,-5.78451z" fill="#ffc37a"/><path d="M390.28523,178.33482c-1.36817,-2.4737 -0.47196,-5.58816 2.00175,-6.95633c2.47371,-1.36817 5.58815,-0.47195 6.95632,2.00176c1.36817,2.47371 0.47195,5.58816 -2.00175,6.95633c-2.4737,1.36817 -5.58815,0.47195 -6.95632,-2.00176z" fill="#d8a51e"/></g></g><g stroke-linecap="butt"><g stroke="#000000" stroke-width="2"><path d="M262.3035,180.28983c-1.76098,-2.37206 -2.05183,-4.96695 0.27433,-6.69385c2.32615,-1.7269 6.84437,-2.01246 8.60535,0.35961c1.76098,2.37206 0.09788,6.50349 -2.22828,8.23039c-2.32615,1.7269 -4.89042,0.47592 -6.6514,-1.89614z" fill="#d995cc"/><path d="M261.74504,166.03829c1.34537,-2.63015 3.54232,-4.04136 6.12157,-2.72203c2.57925,1.31934 4.83847,5.24258 3.4931,7.87273c-1.34539,2.63014 -5.78591,2.97123 -8.36516,1.6519c-2.57924,-1.31934 -2.59488,-4.17245 -1.2495,-6.8026z" fill="#d995cc"/><path d="M278.26248,162.4319c2.74304,1.097 4.35092,3.15439 3.27515,5.84434c-1.07577,2.68996 -4.77385,5.3015 -7.5169,4.2045c-2.74304,-1.097 -3.49234,-5.48714 -2.41656,-8.1771c1.07577,-2.68996 3.91526,-2.96874 6.65831,-1.87174z" fill="#d995cc"/><path d="M286.20841,174.27593c0.23293,2.94507 -0.89828,5.29847 -3.78636,5.52689c-2.88808,0.22842 -6.86853,-1.9284 -7.10146,-4.87348c-0.23293,-2.94507 3.36987,-5.56317 6.25796,-5.79159c2.88808,-0.22842 4.39693,2.19311 4.62985,5.13818z" fill="#d995cc"/><path d="M276.15431,186.34796c-2.85624,0.75473 -5.37371,0.06165 -6.11385,-2.73931c-0.74013,-2.80095 0.67176,-7.10242 3.528,-7.85715c2.85624,-0.75473 6.07525,2.32306 6.81538,5.12401c0.74013,2.80095 -1.37329,4.71771 -4.22953,5.47245z" fill="#d995cc"/><path d="M269.38888,178.88351c-2.28084,-2.06248 -2.45784,-5.58345 -0.39536,-7.86429c2.06248,-2.28084 5.58345,-2.45786 7.86429,-0.39538c2.28084,2.06248 2.45785,5.58345 0.39537,7.86429c-2.06248,2.28084 -5.58345,2.45786 -7.86429,0.39538z" fill="#d8a51e"/></g><g stroke="none" stroke-width="0"><path d="M262.3035,180.28983c-1.76098,-2.37206 -2.05183,-4.96695 0.27433,-6.69385c2.32615,-1.7269 6.84437,-2.01247 8.60535,0.3596c1.76098,2.37206 0.09787,6.5035 -2.22829,8.2304c-2.32615,1.7269 -4.89042,0.47592 -6.6514,-1.89614z" fill="#807bff"/><path d="M261.74504,166.03829c1.34537,-2.63015 3.54232,-4.04136 6.12158,-2.72203c2.57925,1.31934 4.83847,5.24257 3.4931,7.87273c-1.34539,2.63014 -5.78591,2.97123 -8.36516,1.6519c-2.57924,-1.31934 -2.59489,-4.17245 -1.24951,-6.80259z" fill="#807bff"/><path d="M278.26248,162.4319c2.74304,1.097 4.35092,3.15439 3.27515,5.84434c-1.07577,2.68996 -4.77385,5.3015 -7.5169,4.2045c-2.74304,-1.097 -3.49234,-5.48714 -2.41656,-8.1771c1.07577,-2.68996 3.91527,-2.96875 6.65832,-1.87175z" fill="#807bff"/><path d="M286.20841,174.27593c0.23292,2.94507 -0.89828,5.29847 -3.78636,5.52689c-2.88808,0.22842 -6.86854,-1.92838 -7.10146,-4.87347c-0.23292,-2.94507 3.36987,-5.56318 6.25796,-5.7916c2.88808,-0.22842 4.39693,2.19312 4.62985,5.13819z" fill="#807bff"/><path d="M276.15431,186.34796c-2.85624,0.75473 -5.37371,0.06165 -6.11385,-2.73931c-0.74013,-2.80095 0.67176,-7.10242 3.528,-7.85715c2.85624,-0.75473 6.07525,2.32306 6.81538,5.12401c0.74013,2.80095 -1.37329,4.71771 -4.22953,5.47245z" fill="#807bff"/><path d="M269.38888,178.88351c-2.28084,-2.06248 -2.45784,-5.58345 -0.39536,-7.86429c2.06248,-2.28084 5.58345,-2.45786 7.86429,-0.39538c2.28084,2.06248 2.45784,5.58345 0.39536,7.86429c-2.06248,2.28084 -5.58345,2.45786 -7.86429,0.39538z" fill="#d8a51e"/></g></g></g></g></svg>