<svg version="1.1" xmlns="http://www.w3.org/2000/svg" xmlns:xlink="http://www.w3.org/1999/xlink" width="195.91775" height="194.00719" viewBox="0,0,195.91775,194.00719"><defs><linearGradient x1="320.08742" y1="187.07227" x2="320.08742" y2="222.79696" gradientUnits="userSpaceOnUse" id="color-1"><stop offset="0" stop-color="#3e3e3e"/><stop offset="1" stop-color="#3e3e3e" stop-opacity="0"/></linearGradient></defs><g transform="translate(-222.12403,-76.56508)"><g stroke-miterlimit="10"><g stroke="#000000" stroke-linecap="butt"><path d="M286.35186,269.57226l15.14285,-82.40131l37.78325,-0.09868l13.57389,82.5z" fill="#808080" stroke-width="0"/><path d="M295.01902,222.40908l6.47569,-35.23813l37.78325,-0.09868l5.87786,35.72469z" fill="url(#color-1)" stroke-width="0"/><path d="M286.35186,269.57226l15.14285,-82.40131l37.78325,-0.09868l13.57389,82.5z" fill="none" stroke-width="2"/></g><path d="" fill="none" stroke="#000000" stroke-width="2" stroke-linecap="round"/><g><path d="M346.04985,104.92572c0,0 35.50261,-13.06503 48.36536,-17.22711c8.16272,-2.64127 21.34645,-5.33 21.34645,-5.33c0,0 -10.07251,14.19708 -15.21198,22.44668c-5.9106,9.48737 -18.2627,31.28502 -18.2627,31.28502z" fill="#656565" stroke="#000000" stroke-width="2" stroke-linecap="butt"/><path d="M257.87881,131.78237c0,0 -12.3521,-21.79765 -18.2627,-31.28502c-5.13947,-8.24959 -15.21197,-22.44667 -15.21197,-22.44667c0,0 13.18373,2.68873 21.34645,5.33c12.86274,4.16208 48.36536,17.22711 48.36536,17.22711z" fill="#656565" stroke="#000000" stroke-width="2" stroke-linecap="butt"/><path d="M255.36489,148.57226c0,-33.30185 28.7599,-60.29833 64.23702,-60.29833c35.47713,0 64.23702,26.99648 64.23702,60.29833c0,33.30185 -28.75989,60.29834 -64.23702,60.29834c-35.47712,0 -64.23702,-26.99649 -64.23702,-60.29834z" fill="#808080" stroke="#000000" stroke-width="2" stroke-linecap="butt"/><path d="M268.99199,152.09974c0,-12.96801 10.51265,-23.48065 23.48066,-23.48065c12.96801,0 23.48065,10.51264 23.48065,23.48065c0,12.96801 -10.51264,23.48066 -23.48065,23.48066c-12.96801,0 -23.48066,-10.51265 -23.48066,-23.48066z" fill-opacity="0.30588" fill="#000000" stroke="#000000" stroke-width="0" stroke-linecap="butt"/><path d="M346.73112,175.58042c-12.96801,0 -23.48065,-10.51265 -23.48065,-23.48066c0,-12.96801 10.51264,-23.48065 23.48065,-23.48065c12.96801,0 23.48066,10.51264 23.48066,23.48065c0,12.96801 -10.51265,23.48066 -23.48066,23.48066z" fill-opacity="0.30588" fill="#000000" stroke="#000000" stroke-width="0" stroke-linecap="butt"/><path d="M268.99199,148.84787c0,-12.96801 10.51265,-23.48065 23.48066,-23.48065c12.96801,0 23.48065,10.51264 23.48065,23.48065c0,12.96801 -10.51264,23.48066 -23.48065,23.48066c-12.96801,0 -23.48066,-10.51265 -23.48066,-23.48066z" fill="#ffffff" stroke="#000000" stroke-width="2" stroke-linecap="butt"/><path d="M282.90145,149.38832c0,-8.29964 6.72818,-15.02784 15.02783,-15.02784c8.29964,0 15.02784,6.72819 15.02784,15.02785c0,8.29964 -6.72819,15.02785 -15.02784,15.02785c-8.29964,0 -15.02783,-6.72819 -15.02783,-15.02785z" fill="#ffffff" stroke="#000000" stroke-width="5" stroke-linecap="butt"/><path d="M346.73112,172.32856c-12.96801,0 -23.48065,-10.51265 -23.48065,-23.48066c0,-12.96801 10.51264,-23.48065 23.48065,-23.48065c12.96801,0 23.48066,10.51264 23.48066,23.48065c0,12.96801 -10.51265,23.48066 -23.48066,23.48066z" fill="#ffffff" stroke="#000000" stroke-width="2" stroke-linecap="butt"/><path d="M367.80646,149.42511c0,8.29966 -6.72818,15.02785 -15.02783,15.02785c-8.29964,0 -15.02784,-6.72821 -15.02784,-15.02785c0,-8.29966 6.7282,-15.02785 15.02784,-15.02785c8.29964,0 15.02783,6.7282 15.02783,15.02784z" fill="#ffffff" stroke="#000000" stroke-width="5" stroke-linecap="butt"/><path d="M278.47613,121.44326c0,0 7.65992,-3.61335 12.8859,-3.69086c5.22598,-0.0775 11.89856,3.32328 11.89856,3.32328c0,0 -7.83891,-1.77944 -11.87477,-1.71958c-4.21762,0.06256 -12.90969,2.08715 -12.90969,2.08715z" fill="#000000" stroke="none" stroke-width="0" stroke-linecap="butt"/><path d="M346.35102,120.98057c-4.0356,-0.07481 -11.88106,1.67559 -11.88106,1.67559c0,0 6.68512,-3.37606 11.91078,-3.2792c5.22565,0.09686 12.87214,3.73857 12.87214,3.73857c0,0 -8.68451,-2.05679 -12.90187,-2.13496z" fill="#000000" stroke="none" stroke-width="0" stroke-linecap="butt"/><path d="M326.30785,198.97241c0,0 -14.2726,-2.90159 -18.31492,-3.29171c-1.96062,-0.18922 -4.61735,1.0785 -4.61735,1.0785" fill="none" stroke="#000000" stroke-width="2" stroke-linecap="round"/><path d="M268.99199,148.84787c0,-12.96801 10.51265,-23.48065 23.48066,-23.48065c12.96801,0 23.48065,10.51264 23.48065,23.48065c0,1.60737 -46.96131,1.63444 -46.96131,0z" fill="#000000" stroke="#000000" stroke-width="2" stroke-linecap="butt"/><path d="M323.25047,148.8479c0,-12.96801 10.51264,-23.48065 23.48065,-23.48065c12.96801,0 23.48066,10.51264 23.48066,23.48065c0,3.32025 -46.96131,3.16117 -46.96131,0z" fill="#000000" stroke="#000000" stroke-width="2" stroke-linecap="butt"/><path d="M272.79245,180.70298c0,-0.55229 0.44772,-1 1,-1c0.55228,0 1,0.44771 1,1c0,0.55229 -0.44772,1 -1,1c-0.55228,0 -1,-0.44771 -1,-1z" fill="#000000" stroke="none" stroke-width="0.5" stroke-linecap="butt"/><path d="M284.39135,177.71538c0,-0.55229 0.44772,-1 1,-1c0.55228,0 1,0.44771 1,1c0,0.55229 -0.44772,1 -1,1c-0.55228,0 -1,-0.44771 -1,-1z" fill="#000000" stroke="none" stroke-width="0.5" stroke-linecap="butt"/><path d="M279.99782,189.49002c0,-0.55229 0.44772,-1 1,-1c0.55228,0 1,0.44771 1,1c0,0.55229 -0.44772,1 -1,1c-0.55228,0 -1,-0.44771 -1,-1z" fill="#000000" stroke="none" stroke-width="0.5" stroke-linecap="butt"/><path d="M349.59121,178.94557c0,-0.55229 0.44772,-1 1,-1c0.55228,0 1,0.44771 1,1c0,0.55229 -0.44772,1 -1,1c-0.55228,0 -1,-0.44771 -1,-1z" fill="#000000" stroke="none" stroke-width="0.5" stroke-linecap="butt"/><path d="M364.35344,181.93316c0,-0.55229 0.44772,-1 1,-1c0.55228,0 1,0.44771 1,1c0,0.55229 -0.44772,1 -1,1c-0.55228,0 -1,-0.44771 -1,-1z" fill="#000000" stroke="none" stroke-width="0.5" stroke-linecap="butt"/><path d="M349.59121,192.8291c0,-0.55229 0.44772,-1 1,-1c0.55228,0 1,0.44771 1,1c0,0.55229 -0.44772,1 -1,1c-0.55228,0 -1,-0.44771 -1,-1z" fill="#000000" stroke="none" stroke-width="0.5" stroke-linecap="butt"/></g></g></g></svg>