<svg version="1.1" xmlns="http://www.w3.org/2000/svg" xmlns:xlink="http://www.w3.org/1999/xlink" width="213.18203" height="280.18476" viewBox="0,0,213.18203,280.18476"><g transform="translate(-214.52362,-38.88751)"><g stroke-miterlimit="10"><g stroke-linecap="butt"><path d="M286.35186,319.07226l15.14285,-131.8421l37.78325,-0.15789l13.57389,132z" fill="#a93232" stroke="#000000" stroke-width="0"/><path d="M293.00635,261.13452c2.74487,-23.89841 8.48836,-73.90436 8.48836,-73.90436l37.78325,-0.15789c0,0 5.18875,49.85827 7.69612,74.24128c0.01364,0.13261 -53.98445,-0.03335 -53.96772,-0.17903z" fill="#9d2f3a" stroke="#000000" stroke-width="0"/><path d="M294.04743,252.07032c2.50278,-21.79059 7.44728,-64.84016 7.44728,-64.84016l37.78325,-0.15789c0,0 4.4242,43.02332 6.66599,64.82381c0.03141,0.30549 -51.94147,0.56558 -51.89652,0.17424z" fill="#942c3b" stroke="#000000" stroke-width="0"/><path d="M301.49471,187.23016l37.78325,-0.15789l7.53186,58.01527c0,0 -5.52306,-0.76412 -6.92133,-0.90214l0.00749,-0.04127l-0.48712,-0.0884c-0.016,-0.00322 -0.03254,-0.0049 -0.04949,-0.0049c-0.13807,0 -0.25,0.11193 -0.25,0.25c0,0.04409 0.01141,0.08552 0.03145,0.12148l0.23231,0.43736c0.123,0.23124 0.24538,0.5705 0.38232,0.90381c-0.37148,-0.33345 -0.77382,-0.64017 -1.12919,-0.99429c-0.38626,-0.38297 -2.23559,-1.95898 -2.85854,-1.56149c-1.49667,0.95499 1.14954,7.14342 -2.20456,3.67889c-0.34409,-0.39178 -1.32011,-1.90788 -1.8599,-1.93658c-0.71283,-0.03789 -2.08925,3.10834 -2.2473,3.02684c-0.63202,-0.32591 -1.62122,-2.43297 -2.09521,-3.07026c-0.20167,-0.19552 -1.03491,-1.17622 -1.31894,-1.12193c-0.29258,0.05593 -0.71091,1.29206 -0.77558,1.54857c-0.3107,1.23257 -1.43283,4.47865 -1.20436,6.0625c-1.23125,-1.34336 -2.04426,-3.20717 -3.15722,-4.70131l0.02198,-0.01167l-0.20246,-0.38135c-0.0412,-0.08148 -0.1257,-0.13736 -0.22325,-0.13736c-0.1113,0 -0.20561,0.07273 -0.238,0.17325l-0.16255,0.4667c-0.05451,0.15652 -0.10902,0.31304 -0.16353,0.46957c-0.18509,0.49576 -0.61517,2.88396 -1.12868,3.05381c-0.42363,0.14012 -1.28892,-2.21834 -1.58993,-2.3507c-0.84379,-0.37102 -1.31275,1.23764 -1.29003,2.25784c-1.94281,-2.33382 -2.99468,-4.92948 -6.16706,-6.09861c-2.49887,-0.88899 -4.81101,1.71067 -5.3339,3.92684c-0.04559,0.19324 -0.10282,0.46112 -0.14855,0.7564c-0.37996,-1.536 -0.9571,-3.47767 -1.63956,-3.56104c-0.94022,-0.11486 -1.74563,1.9818 -1.75639,3.24301c-1.17689,-1.06694 -2.9206,0.67637 -3.37136,1.68632c-0.05109,-0.36434 -1.54165,-2.501 -1.65072,-2.8319c0.21987,-1.20535 -3.61083,-1.26063 -3.61083,-1.26063z" fill="#a2f30f" stroke="#000000" stroke-width="0"/><path d="M301.49471,187.23016l37.78325,-0.15789c0,0 4.42084,34.05212 5.78825,44.5848c0.01988,0.15319 -50.50566,-0.27517 -50.46947,-0.50562c1.69416,-10.78723 6.89797,-43.9213 6.89797,-43.9213z" fill="#75f20f" stroke="#000000" stroke-width="0"/><path d="M301.49471,187.23016l37.78325,-0.15789c0,0 2.99108,23.83918 4.32515,34.1151c0.01396,0.10756 -47.56257,0.2241 -47.5334,0.03837c1.60192,-10.19991 5.425,-33.99558 5.425,-33.99558z" fill="#33965e" stroke="#000000" stroke-width="0"/><path d="M301.49471,187.23016l37.78325,-0.15789c0,0 2.54744,19.28154 3.76806,28.68356c0.01222,0.09411 -45.95233,-0.50319 -45.94397,-0.55642c1.50063,-9.55496 4.39265,-27.96925 4.39265,-27.96925z" fill="#2d7a1a" stroke="#000000" stroke-width="0"/><path d="M296.95582,214.9c0,-0.9665 0.7835,-1.75 1.75,-1.75c0.9665,0 1.75,0.7835 1.75,1.75c0,0.9665 -0.7835,1.75 -1.75,1.75c-0.9665,0 -1.75,-0.7835 -1.75,-1.75z" fill="#2d7a1a" stroke="none" stroke-width="0.5"/><path d="M304.35582,214.7c0,-0.9665 0.7835,-1.75 1.75,-1.75c0.9665,0 1.75,0.7835 1.75,1.75c0,0.9665 -0.7835,1.75 -1.75,1.75c-0.9665,0 -1.75,-0.7835 -1.75,-1.75z" fill="#2d7a1a" stroke="none" stroke-width="0.5"/><path d="M310.65582,214.9c0,-0.30962 0.11257,-0.59294 0.29901,-0.81128c0.29248,-0.55801 0.87728,-0.93872 1.55099,-0.93872c0.9665,0 1.75,0.7835 1.75,1.75c0,0.9665 -0.7835,1.75 -1.75,1.75c-0.67371,0 -1.25851,-0.3807 -1.55099,-0.93872c-0.18644,-0.21834 -0.29901,-0.50166 -0.29901,-0.81128z" fill="#2d7a1a" stroke="none" stroke-width="0.5"/><path d="M316.90582,216.75c-0.30962,0 -0.59294,-0.11257 -0.81128,-0.29901c-0.55801,-0.29248 -0.93872,-0.87728 -0.93872,-1.55099c0,-0.9665 0.7835,-1.75 1.75,-1.75c0.11289,0 0.22328,0.01069 0.33022,0.03111c0.25622,-0.14704 0.55318,-0.23111 0.86978,-0.23111c0.9665,0 1.75,0.7835 1.75,1.75c0,0.9665 -0.7835,1.75 -1.75,1.75c-0.11289,0 -0.22328,-0.01069 -0.33022,-0.03111c-0.01927,0.01106 -0.03877,0.02176 -0.0585,0.0321c-0.21834,0.18644 -0.50166,0.29901 -0.81128,0.29901z" fill="#2d7a1a" stroke="none" stroke-width="0.5"/><path d="M324.05582,216.9c0,-0.48464 0.27581,-0.90486 0.67902,-1.11227c-0.23728,-0.29867 -0.37902,-0.67665 -0.37902,-1.08773c0,-0.9665 0.7835,-1.75 1.75,-1.75c0.9665,0 1.75,0.7835 1.75,1.75c0,0.84585 -0.6001,1.55153 -1.39777,1.71454c0.06296,0.14926 0.09777,0.31329 0.09777,0.48546c0,0.69036 -0.55964,1.25 -1.25,1.25c-0.69036,0 -1.25,-0.55964 -1.25,-1.25z" fill="#2d7a1a" stroke="none" stroke-width="0.5"/><path d="M330.55582,215.5c0,-0.9665 0.7835,-1.75 1.75,-1.75c0.9665,0 1.75,0.7835 1.75,1.75c0,0.9665 -0.7835,1.75 -1.75,1.75c-0.9665,0 -1.75,-0.7835 -1.75,-1.75z" fill="#2d7a1a" stroke="none" stroke-width="0.5"/><path d="M334.15582,215.5c0,-0.9665 0.7835,-1.75 1.75,-1.75c0.9665,0 1.75,0.7835 1.75,1.75c0,0.9665 -0.7835,1.75 -1.75,1.75c-0.9665,0 -1.75,-0.7835 -1.75,-1.75z" fill="#2d7a1a" stroke="none" stroke-width="0.5"/><path d="M338.15582,215.5c0,-0.9665 0.7835,-1.75 1.75,-1.75c0.9665,0 1.75,0.7835 1.75,1.75c0,0.9665 -0.7835,1.75 -1.75,1.75c-0.9665,0 -1.75,-0.7835 -1.75,-1.75z" fill="#2d7a1a" stroke="none" stroke-width="0.5"/><path d="M296.15582,221.3c0,-0.9665 0.7835,-1.75 1.75,-1.75c0.9665,0 1.75,0.7835 1.75,1.75c0,0.9665 -0.7835,1.75 -1.75,1.75c-0.9665,0 -1.75,-0.7835 -1.75,-1.75z" fill="#33965e" stroke="none" stroke-width="0.5"/><path d="M340.55582,221.1c0,-0.9665 0.7835,-1.75 1.75,-1.75c0.9665,0 1.75,0.7835 1.75,1.75c0,0.9665 -0.7835,1.75 -1.75,1.75c-0.9665,0 -1.75,-0.7835 -1.75,-1.75z" fill="#33965e" stroke="none" stroke-width="0.5"/><path d="M334.85582,220.3c0,-0.69036 0.55964,-1.25 1.25,-1.25c0.05573,0 0.11061,0.00365 0.16441,0.01072c0.31654,-0.3156 0.75328,-0.51072 1.23559,-0.51072c0.03356,0 0.0669,0.00094 0.1,0.00281c0.0331,-0.00186 0.06644,-0.00281 0.1,-0.00281c0.9665,0 1.75,0.7835 1.75,1.75c0,0.9665 -0.7835,1.75 -1.75,1.75c-0.03356,0 -0.0669,-0.00094 -0.1,-0.00281c-0.0331,0.00186 -0.06644,0.00281 -0.1,0.00281c-0.48231,0 -0.91905,-0.19511 -1.23559,-0.51072c-0.0538,0.00707 -0.10868,0.01072 -0.16441,0.01072c-0.69036,0 -1.25,-0.55964 -1.25,-1.25z" fill="#33965e" stroke="none" stroke-width="0.5"/><path d="M330.15582,221.1c0,-0.9665 0.7835,-1.75 1.75,-1.75c0.03356,0 0.0669,0.00094 0.1,0.00281c0.0331,-0.00186 0.06644,-0.00281 0.1,-0.00281c0.9665,0 1.75,0.7835 1.75,1.75c0,0.9665 -0.7835,1.75 -1.75,1.75c-0.03356,0 -0.0669,-0.00094 -0.1,-0.00281c-0.0331,0.00186 -0.06644,0.00281 -0.1,0.00281c-0.9665,0 -1.75,-0.7835 -1.75,-1.75z" fill="#33965e" stroke="none" stroke-width="0.5"/><path d="M321.30582,222.75c-0.40726,0 -0.76903,-0.19476 -0.99725,-0.49623c-0.48298,-0.23274 -1.12626,-0.75728 -0.92452,-1.86682c0.31305,-1.72177 2.03482,-1.40872 2.03482,-1.40872l2.2,0.4c0,0 0.06959,0.01265 0.17824,0.04686c0.16098,-0.04883 0.33178,-0.07509 0.50871,-0.07509c0.9665,0 1.75,0.7835 1.75,1.75c0,0.9665 -0.7835,1.75 -1.75,1.75c-0.16787,0 -0.33022,-0.02364 -0.4839,-0.06776c-0.44113,0.11008 -0.82915,0.03954 -0.82915,0.03954l-1.12553,-0.20464c-0.16881,0.085 -0.35953,0.13287 -0.56142,0.13287z" fill="#33965e" stroke="none" stroke-width="0.5"/><path d="M314.35582,220.9c0,-0.96207 0.77634,-1.74282 1.73674,-1.74995c0.24298,-0.12776 0.51968,-0.20005 0.81326,-0.20005c0.9665,0 1.75,0.7835 1.75,1.75c0,0.96207 -0.77634,1.74282 -1.73674,1.74995c-0.24298,0.12776 -0.51968,0.20005 -0.81326,0.20005c-0.9665,0 -1.75,-0.7835 -1.75,-1.75z" fill="#33965e" stroke="none" stroke-width="0.5"/><path d="M312.55582,220.9c0,1.25 -1.25,1.25 -1.25,1.25h-1.8c0,0 -0.41051,0 -0.76102,-0.23525c-0.24888,0.66323 -0.88881,1.13525 -1.63898,1.13525c-0.54604,0 -1.03367,-0.25009 -1.3546,-0.64197c-0.05477,0.63978 -0.59144,1.14197 -1.2454,1.14197c-0.69036,0 -1.25,-0.55964 -1.25,-1.25c0,-0.06435 0.00486,-0.12756 0.01424,-0.18929c-0.43315,-0.31856 -0.71424,-0.83181 -0.71424,-1.41071c0,-0.9665 0.7835,-1.75 1.75,-1.75c0.7237,0 1.3448,0.43929 1.61118,1.06577c0.31213,-0.28908 0.72984,-0.46577 1.18882,-0.46577c0.5401,0 1.02305,0.24467 1.34406,0.62922c0.35114,-0.52922 1.05594,-0.52922 1.05594,-0.52922h1.8c0,0 1.25,0 1.25,1.25z" fill="#33965e" stroke="none" stroke-width="0.5"/><path d="M294.55582,231.5c0,-0.9665 0.3835,-1.75 1.35,-1.75c0.9665,0 1.75,0.7835 1.75,1.75c0,0.9665 -0.7835,1.75 -1.75,1.75c-0.9665,0 -1.35,-0.7835 -1.35,-1.75z" fill="#75f20f" stroke="none" stroke-width="0.5"/><path d="M306.15582,232.3c0,0.69036 -0.55964,1.25 -1.25,1.25c-0.19142,0 -0.37279,-0.04303 -0.53497,-0.11994c-0.08643,0.01313 -0.17493,0.01994 -0.26503,0.01994c-0.9665,0 -1.75,-0.7835 -1.75,-1.75c0,-0.9665 0.7835,-1.75 1.75,-1.75c0.88869,0 1.62266,0.66243 1.73508,1.52045c0.19593,0.22069 0.31492,0.51123 0.31492,0.82955z" fill="#75f20f" stroke="none" stroke-width="0.5"/><path d="M311.95582,232.1c0,0.69036 -0.55964,1.25 -1.25,1.25c-0.61753,0 -1.13048,-0.4478 -1.23182,-1.0364c-0.43538,-0.31834 -0.71818,-0.83294 -0.71818,-1.4136c0,-0.9665 0.7835,-1.75 1.75,-1.75c0.9665,0 1.75,0.7835 1.75,1.75c0,0.37295 -0.11667,0.71866 -0.3155,1.00261c0.0102,0.0643 0.0155,0.13022 0.0155,0.19739z" fill="#75f20f" stroke="none" stroke-width="0.5"/><path d="M314.95582,230.3c0,-0.9665 0.7835,-1.75 1.75,-1.75c0.9665,0 1.75,0.7835 1.75,1.75c0,0.9665 -0.7835,1.75 -1.75,1.75c-0.9665,0 -1.75,-0.7835 -1.75,-1.75z" fill="#75f20f" stroke="none" stroke-width="0.5"/><path d="M324.35582,230.3c0,-0.9665 0.7835,-1.75 1.75,-1.75c0.9665,0 1.75,0.7835 1.75,1.75c0,0.9665 -0.7835,1.75 -1.75,1.75c-0.9665,0 -1.75,-0.7835 -1.75,-1.75z" fill="#75f20f" stroke="none" stroke-width="0.5"/><path d="M331.55582,230.7c0,-0.9665 0.7835,-1.75 1.75,-1.75c0.9665,0 1.75,0.7835 1.75,1.75c0,0.9665 -0.7835,1.75 -1.75,1.75c-0.9665,0 -1.75,-0.7835 -1.75,-1.75z" fill="#75f20f" stroke="none" stroke-width="0.5"/><path d="M335.45582,231.7c0,-0.69036 0.55964,-1.25 1.25,-1.25c0.05771,0 0.11451,0.00391 0.17014,0.01148c0.25512,-0.65072 0.88868,-1.11148 1.62986,-1.11148c0.51885,0 0.98496,0.2258 1.30543,0.58449c0.29973,-0.24057 0.68034,-0.38449 1.09457,-0.38449c0.9665,0 1.75,0.7835 1.75,1.75c0,0.9665 -0.7835,1.75 -1.75,1.75c-0.51885,0 -0.98496,-0.2258 -1.30543,-0.58449c-0.29973,0.24057 -0.68034,0.38449 -1.09457,0.38449c-0.33782,0 -0.65328,-0.09572 -0.92074,-0.26152c-0.22583,0.2235 -0.53643,0.36152 -0.87926,0.36152c-0.69036,0 -1.25,-0.55964 -1.25,-1.25z" fill="#75f20f" stroke="none" stroke-width="0.5"/><path d="M299.05582,233.1c0,-0.69036 0.55964,-1.25 1.25,-1.25c0.69036,0 1.25,0.55964 1.25,1.25c0,0.68623 -0.55297,1.2433 -1.23763,1.24994c0.26787,0.22926 0.43763,0.56984 0.43763,0.95006c0,0.69036 -0.55964,1.25 -1.25,1.25c-0.69036,0 -1.25,-0.55964 -1.25,-1.25c0,-0.68623 0.55297,-1.2433 1.23763,-1.24994c-0.26787,-0.22926 -0.43763,-0.56984 -0.43763,-0.95006z" fill="#75f20f" stroke="none" stroke-width="0.5"/><path d="M315.25582,233.3c0,-0.69036 0.55964,-1.25 1.25,-1.25c0.69036,0 1.25,0.55964 1.25,1.25c0,0.69036 -0.55964,1.25 -1.25,1.25c-0.69036,0 -1.25,-0.55964 -1.25,-1.25z" fill="#75f20f" stroke="none" stroke-width="0.5"/><path d="M321.10582,236.65c-0.33583,0 -0.62011,-0.22073 -0.71567,-0.52502c-0.32306,-0.22599 -0.53433,-0.60081 -0.53433,-1.02498c0,-0.69036 0.55964,-1.25 1.25,-1.25c0.69036,0 1.25,0.55964 1.25,1.25c0,0.42417 -0.21127,0.79899 -0.53433,1.02498c-0.09556,0.30429 -0.37984,0.52502 -0.71567,0.52502z" fill="#75f20f" stroke="none" stroke-width="0.5"/><path d="M325.05582,235.1c0,-0.69036 0.55964,-1.25 1.25,-1.25c0.69036,0 1.25,0.55964 1.25,1.25c0,0.69036 -0.55964,1.25 -1.25,1.25c-0.69036,0 -1.25,-0.55964 -1.25,-1.25z" fill="#75f20f" stroke="none" stroke-width="0.5"/><path d="M329.45582,232.7c0,-0.69036 0.55964,-1.25 1.25,-1.25c0.69036,0 1.25,0.55964 1.25,1.25c0,0.69036 -0.55964,1.25 -1.25,1.25c-0.69036,0 -1.25,-0.55964 -1.25,-1.25z" fill="#75f20f" stroke="none" stroke-width="0.5"/><path d="M341.45582,234.5c0,-0.69036 0.55964,-1.25 1.25,-1.25c0.69036,0 1.25,0.55964 1.25,1.25c0,0.69036 -0.55964,1.25 -1.25,1.25c-0.69036,0 -1.25,-0.55964 -1.25,-1.25z" fill="#75f20f" stroke="none" stroke-width="0.5"/><path d="M298.25582,224.7c0,-0.69036 0.55964,-1.25 1.25,-1.25c0.69036,0 1.25,0.55964 1.25,1.25c0,0.69036 -0.55964,1.25 -1.25,1.25c-0.69036,0 -1.25,-0.55964 -1.25,-1.25z" fill="#33965e" stroke="none" stroke-width="0.5"/><path d="M325.25582,224.5c0,-0.69036 0.55964,-1.25 1.25,-1.25c0.69036,0 1.25,0.55964 1.25,1.25c0,0.69036 -0.55964,1.25 -1.25,1.25c-0.69036,0 -1.25,-0.55964 -1.25,-1.25z" fill="#33965e" stroke="none" stroke-width="0.5"/><path d="M337.45582,223.9c0,-0.69036 0.55964,-1.25 1.25,-1.25c0.69036,0 1.25,0.55964 1.25,1.25c0,0.69036 -0.55964,1.25 -1.25,1.25c-0.69036,0 -1.25,-0.55964 -1.25,-1.25z" fill="#33965e" stroke="none" stroke-width="0.5"/><path d="M301.45582,218.5c0,-0.69036 0.55964,-1.25 1.25,-1.25c0.69036,0 1.25,0.55964 1.25,1.25c0,0.69036 -0.55964,1.25 -1.25,1.25c-0.69036,0 -1.25,-0.55964 -1.25,-1.25z" fill="#2d7a1a" stroke="none" stroke-width="0.5"/><path d="M329.45582,218.1c0,-0.69036 0.55964,-1.25 1.25,-1.25c0.69036,0 1.25,0.55964 1.25,1.25c0,0.69036 -0.55964,1.25 -1.25,1.25c-0.69036,0 -1.25,-0.55964 -1.25,-1.25z" fill="#2d7a1a" stroke="none" stroke-width="0.5"/><path d="M339.05582,218.5c0,-0.69036 0.55964,-1.25 1.25,-1.25c0.69036,0 1.25,0.55964 1.25,1.25c0,0.69036 -0.55964,1.25 -1.25,1.25c-0.69036,0 -1.25,-0.55964 -1.25,-1.25z" fill="#2d7a1a" stroke="none" stroke-width="0.5"/><path d="M298.55582,219.9c0,-0.41421 0.33579,-0.75 0.75,-0.75c0.41421,0 0.75,0.33579 0.75,0.75c0,0.41421 -0.33579,0.75 -0.75,0.75c-0.41421,0 -0.75,-0.33579 -0.75,-0.75z" fill="#2d7a1a" stroke="none" stroke-width="0.5"/><path d="M311.75582,219.9c0,-0.41421 0.33579,-0.75 0.75,-0.75c0.41421,0 0.75,0.33579 0.75,0.75c0,0.41421 -0.33579,0.75 -0.75,0.75c-0.41421,0 -0.75,-0.33579 -0.75,-0.75z" fill="#2d7a1a" stroke="none" stroke-width="0.5"/><path d="M315.75582,219.5c0,-0.41421 0.33579,-0.75 0.75,-0.75c0.41421,0 0.75,0.33579 0.75,0.75c0,0.41421 -0.33579,0.75 -0.75,0.75c-0.41421,0 -0.75,-0.33579 -0.75,-0.75z" fill="#2d7a1a" stroke="none" stroke-width="0.5"/><path d="M336.55582,219.1c0,-0.41421 0.33579,-0.75 0.75,-0.75c0.41421,0 0.75,0.33579 0.75,0.75c0,0.41421 -0.33579,0.75 -0.75,0.75c-0.41421,0 -0.75,-0.33579 -0.75,-0.75z" fill="#2d7a1a" stroke="none" stroke-width="0.5"/><path d="M301.35582,228.9c0,-0.41421 0.33579,-0.75 0.75,-0.75c0.41421,0 0.75,0.33579 0.75,0.75c0,0.41421 -0.33579,0.75 -0.75,0.75c-0.41421,0 -0.75,-0.33579 -0.75,-0.75z" fill="#33965e" stroke="none" stroke-width="0.5"/><path d="M307.75582,225.9c0,-0.41421 0.33579,-0.75 0.75,-0.75c0.41421,0 0.75,0.33579 0.75,0.75c0,0.41421 -0.33579,0.75 -0.75,0.75c-0.41421,0 -0.75,-0.33579 -0.75,-0.75z" fill="#33965e" stroke="none" stroke-width="0.5"/><path d="M312.55582,225.1c0,-0.41421 0.33579,-0.75 0.75,-0.75c0.41421,0 0.75,0.33579 0.75,0.75c0,0.41421 -0.33579,0.75 -0.75,0.75c-0.41421,0 -0.75,-0.33579 -0.75,-0.75z" fill="#33965e" stroke="none" stroke-width="0.5"/><path d="M322.55582,227.7c0,-0.41421 0.33579,-0.75 0.75,-0.75c0.41421,0 0.75,0.33579 0.75,0.75c0,0.41421 -0.33579,0.75 -0.75,0.75c-0.41421,0 -0.75,-0.33579 -0.75,-0.75z" fill="#33965e" stroke="none" stroke-width="0.5"/><path d="M338.75582,229.7c0,-0.41421 0.33579,-0.75 0.75,-0.75c0.41421,0 0.75,0.33579 0.75,0.75c0,0.41421 -0.33579,0.75 -0.75,0.75c-0.41421,0 -0.75,-0.33579 -0.75,-0.75z" fill="#33965e" stroke="none" stroke-width="0.5"/><path d="M299.55582,239.7c0,-0.41421 0.33579,-0.75 0.75,-0.75c0.41421,0 0.75,0.33579 0.75,0.75c0,0.41421 -0.33579,0.75 -0.75,0.75c-0.41421,0 -0.75,-0.33579 -0.75,-0.75z" fill="#75f20f" stroke="none" stroke-width="0.5"/><path d="M307.15582,237.3c0,-0.41421 0.33579,-0.75 0.75,-0.75c0.41421,0 0.75,0.33579 0.75,0.75c0,0.41421 -0.33579,0.75 -0.75,0.75c-0.41421,0 -0.75,-0.33579 -0.75,-0.75z" fill="#75f20f" stroke="none" stroke-width="0.5"/><path d="M329.55582,238.1c0,-0.41421 0.33579,-0.75 0.75,-0.75c0.41421,0 0.75,0.33579 0.75,0.75c0,0.41421 -0.33579,0.75 -0.75,0.75c-0.41421,0 -0.75,-0.33579 -0.75,-0.75z" fill="#75f20f" stroke="none" stroke-width="0.5"/><path d="M341.15582,238.5c0,-0.41421 0.33579,-0.75 0.75,-0.75c0.41421,0 0.75,0.33579 0.75,0.75c0,0.41421 -0.33579,0.75 -0.75,0.75c-0.41421,0 -0.75,-0.33579 -0.75,-0.75z" fill="#75f20f" stroke="none" stroke-width="0.5"/><path d="M298.34471,254.36667c0,-0.42979 0.21691,-0.80892 0.54723,-1.03388c-0.64321,-0.05358 -1.18761,-0.45502 -1.44453,-1.01565c-0.08673,0.88544 -0.83336,1.57731 -1.74159,1.57731c-0.9665,0 -1.75,-0.7835 -1.75,-1.75c0,-0.9665 0.7835,-1.75 1.75,-1.75c0.70663,0 1.31544,0.41882 1.59175,1.02176c0.08673,-0.88544 0.83336,-1.57731 1.74159,-1.57731c0.9665,0 1.75,0.7835 1.75,1.75c0,0.67535 -0.38256,1.26135 -0.94279,1.55312c0.56974,0.11646 0.99835,0.6205 0.99835,1.22466c0,0.69036 -0.55964,1.25 -1.25,1.25c-0.69036,0 -1.25,-0.55964 -1.25,-1.25z" fill="#942c3b" stroke="none" stroke-width="0.5"/><path d="M342.17804,252.14444c0,-0.9665 0.7835,-1.75 1.75,-1.75c0.9665,0 1.75,0.7835 1.75,1.75c0,0.9665 -0.7835,1.75 -1.75,1.75c-0.9665,0 -1.75,-0.7835 -1.75,-1.75z" fill="#942c3b" stroke="none" stroke-width="0.5"/><path d="M306.92804,253.95c-0.36192,0 -0.68791,-0.15381 -0.91617,-0.39962c-0.064,0.00709 -0.12904,0.01074 -0.19494,0.01074c-0.9665,0 -1.75,-0.7835 -1.75,-1.75c0,-0.9665 0.7835,-1.75 1.75,-1.75c0.45394,0 0.86751,0.17284 1.1785,0.45629c0.2914,-0.21685 0.65257,-0.34518 1.04372,-0.34518c0.9665,0 1.75,0.7835 1.75,1.75c0,0.9665 -0.7835,1.75 -1.75,1.75c-0.10075,0 -0.19951,-0.00851 -0.2956,-0.02486c-0.2189,0.18861 -0.50389,0.30264 -0.81551,0.30264z" fill="#942c3b" stroke="none" stroke-width="0.5"/><path d="M311.56693,254.14444c0,-0.4588 0.24718,-0.85987 0.61563,-1.0773c-0.21241,-0.28966 -0.33786,-0.64709 -0.33786,-1.03381c0,-0.9665 0.7835,-1.75 1.75,-1.75c0.9665,0 1.75,0.7835 1.75,1.75c0,0.8274 -0.57421,1.52069 -1.34588,1.70311c0.04413,0.12787 0.0681,0.26514 0.0681,0.408c0,0.69036 -0.55964,1.25 -1.25,1.25c-0.69036,0 -1.25,-0.55964 -1.25,-1.25z" fill="#942c3b" stroke="none" stroke-width="0.5"/><path d="M316.17804,252.25556c0,-0.9665 0.7835,-1.75 1.75,-1.75c0.9665,0 1.75,0.7835 1.75,1.75c0,0.9665 -0.7835,1.75 -1.75,1.75c-0.9665,0 -1.75,-0.7835 -1.75,-1.75z" fill="#942c3b" stroke="none" stroke-width="0.5"/><path d="M321.62249,252.25556c0,-0.9665 0.7835,-1.75 1.75,-1.75c0.9665,0 1.75,0.7835 1.75,1.75c0,0.9665 -0.7835,1.75 -1.75,1.75c-0.9665,0 -1.75,-0.7835 -1.75,-1.75z" fill="#942c3b" stroke="none" stroke-width="0.5"/><path d="M331.81693,250.56111c0.69036,0 1.25,0.55964 1.25,1.25c0,0.69036 -0.55964,1.25 -1.25,1.25c-0.43659,0 -0.82091,-0.22383 -1.04445,-0.563c-0.11809,0.8517 -0.84913,1.50744 -1.73333,1.50744c-0.9665,0 -1.75,-0.7835 -1.75,-1.75c0,-0.9665 0.7835,-1.75 1.75,-1.75c0.6895,0 1.28587,0.39876 1.57107,0.97824c0.14385,-0.5316 0.62961,-0.92268 1.20671,-0.92268z" fill="#942c3b" stroke="none" stroke-width="0.5"/><path d="M333.2336,252.25556c0,-0.69036 0.55964,-1.25 1.25,-1.25c0.00368,0 0.00735,0.00002 0.01102,0.00005c0.30057,-0.24324 0.68332,-0.38894 1.1001,-0.38894c0.9665,0 1.75,0.7835 1.75,1.75c0,0.9665 -0.7835,1.75 -1.75,1.75c-0.54207,0 -1.02658,-0.24646 -1.34758,-0.63345c-0.57729,-0.11053 -1.01353,-0.61815 -1.01353,-1.22766z" fill="#942c3b" stroke="none" stroke-width="0.5"/><path d="M337.51138,251.92222c0,-0.9665 0.7835,-1.75 1.75,-1.75c0.9665,0 1.75,0.7835 1.75,1.75c0,0.9665 -0.7835,1.75 -1.75,1.75c-0.9665,0 -1.75,-0.7835 -1.75,-1.75z" fill="#942c3b" stroke="none" stroke-width="0.5"/><path d="M294.34471,264.36667c0,-0.51341 0.30953,-0.95453 0.75215,-1.14693c-0.05556,0.00532 -0.11187,0.00804 -0.16882,0.00804c-0.9665,0 -1.75,-0.7835 -1.75,-1.75c0,-0.9665 0.7835,-1.75 1.75,-1.75c0.9665,0 1.75,0.7835 1.75,1.75c0,0.75127 -0.4734,1.39197 -1.13817,1.64007c0.01818,-0.00078 0.03647,-0.00118 0.05484,-0.00118c0.69036,0 1.25,0.55964 1.25,1.25c0,0.69036 -0.55964,1.25 -1.25,1.25c-0.69036,0 -1.25,-0.55964 -1.25,-1.25z" fill="#9d2f3a" stroke="none" stroke-width="0.5"/><path d="M304.37249,261.00556c0.69036,0 1.25,0.55964 1.25,1.25c0,0.69036 -0.55964,1.25 -1.25,1.25c-0.55684,0 -1.02864,-0.3641 -1.1903,-0.86722c-0.21399,0.09327 -0.45025,0.145 -0.69859,0.145c-0.28498,0 -0.55405,-0.06812 -0.79182,-0.18896c-0.37915,-0.07253 -0.69748,-0.31634 -0.87138,-0.64782c-0.11448,0.57228 -0.61973,1.00345 -1.22569,1.00345c-0.69036,0 -1.25,-0.55964 -1.25,-1.25c0,-0.69036 0.55964,-1.25 1.25,-1.25c0.48106,0 0.89866,0.27175 1.10764,0.67012c0.00845,-0.04226 0.01904,-0.08376 0.03164,-0.12437c0.01046,-0.49645 0.22766,-0.94204 0.56896,-1.25417c0.31998,-0.3499 0.78024,-0.56936 1.29175,-0.56936c0.9665,0 1.75,0.7835 1.75,1.75c0,0.02805 -0.00066,0.05595 -0.00197,0.08368c0.00989,-0.00023 0.0198,-0.00035 0.02974,-0.00035z" fill="#9d2f3a" stroke="none" stroke-width="0.5"/><path d="M308.40026,260.58889c0,-0.9665 0.7835,-1.75 1.75,-1.75c0.9665,0 1.75,0.7835 1.75,1.75c0,0.9665 -0.7835,1.75 -1.75,1.75c-0.9665,0 -1.75,-0.7835 -1.75,-1.75z" fill="#9d2f3a" stroke="none" stroke-width="0.5"/><path d="M317.17804,262.14444c0,0.53381 -0.33462,0.98948 -0.80554,1.16867c-0.19295,0.12189 -0.42158,0.19244 -0.66668,0.19244c-0.4865,0 -0.90809,-0.27793 -1.11465,-0.68367c-0.57431,-0.28703 -0.96869,-0.88063 -0.96869,-1.56633c0,-0.9665 0.7835,-1.75 1.75,-1.75c0.9665,0 1.75,0.7835 1.75,1.75c0,0.1364 -0.01561,0.26915 -0.04513,0.39658c0.0648,0.15108 0.10068,0.31751 0.10068,0.49231z" fill="#9d2f3a" stroke="none" stroke-width="0.5"/><path d="M321.26138,263.28333c-0.28271,0 -0.5435,-0.09385 -0.75291,-0.2521c-0.3057,0.26111 -0.70243,0.41877 -1.13598,0.41877c-0.9665,0 -1.75,-0.7835 -1.75,-1.75c0,-0.9665 0.7835,-1.75 1.75,-1.75c0.47739,0 0.91014,0.19116 1.22587,0.5011c0.32096,-0.37474 0.79759,-0.61222 1.32968,-0.61222c0.9665,0 1.75,0.7835 1.75,1.75c0,0.9665 -0.7835,1.75 -1.75,1.75c-0.16876,0 -0.33194,-0.02389 -0.48634,-0.06847c-0.05888,0.00851 -0.11909,0.01291 -0.18032,0.01291z" fill="#9d2f3a" stroke="none" stroke-width="0.5"/><path d="M326.90026,264.36667c0,-0.07667 0.0069,-0.15173 0.02012,-0.22458c-0.22599,0.22465 -0.5374,0.36347 -0.88123,0.36347c-0.69036,0 -1.25,-0.55964 -1.25,-1.25c0,-0.22437 0.05911,-0.43493 0.16262,-0.61696c-0.27401,-0.3089 -0.44039,-0.71543 -0.44039,-1.16082c0,-0.9665 0.7835,-1.75 1.75,-1.75c0.9665,0 1.75,0.7835 1.75,1.75c0,0.60178 -0.30375,1.13262 -0.7663,1.44756c0.02874,0.10519 0.04408,0.21591 0.04408,0.33022c0,0.07667 -0.0069,0.15173 -0.02012,0.22458c0.22599,-0.22465 0.5374,-0.36347 0.88123,-0.36347c0.69036,0 1.25,0.55964 1.25,1.25c0,0.69036 -0.55964,1.25 -1.25,1.25c-0.69036,0 -1.25,-0.55964 -1.25,-1.25z" fill="#9d2f3a" stroke="none" stroke-width="0.5"/><path d="M339.78915,262.25556c0,-0.63642 0.47561,-1.16175 1.09078,-1.23995c0.16256,-0.79825 0.86852,-1.39893 1.71478,-1.39893c0.9665,0 1.75,0.7835 1.75,1.75c0,0.9665 -0.7835,1.75 -1.75,1.75c-0.19893,0 -0.3901,-0.03319 -0.56829,-0.09434c-0.22871,0.29405 -0.5859,0.48323 -0.98727,0.48323c-0.69036,0 -1.25,-0.55964 -1.25,-1.25z" fill="#9d2f3a" stroke="none" stroke-width="0.5"/><path d="M300.67804,252.7c0,-0.69036 0.55964,-1.25 1.25,-1.25c0.69036,0 1.25,0.55964 1.25,1.25c0,0.69036 -0.55964,1.25 -1.25,1.25c-0.69036,0 -1.25,-0.55964 -1.25,-1.25z" fill="#942c3b" stroke="none" stroke-width="0.5"/><path d="M316.12249,255.47778c0,-0.69036 0.55964,-1.25 1.25,-1.25c0.69036,0 1.25,0.55964 1.25,1.25c0,0.69036 -0.55964,1.25 -1.25,1.25c-0.69036,0 -1.25,-0.55964 -1.25,-1.25z" fill="#942c3b" stroke="none" stroke-width="0.5"/><path d="M320.90026,255.81111c0,-0.69036 0.55964,-1.25 1.25,-1.25c0.69036,0 1.25,0.55964 1.25,1.25c0,0.69036 -0.55964,1.25 -1.25,1.25c-0.69036,0 -1.25,-0.55964 -1.25,-1.25z" fill="#942c3b" stroke="none" stroke-width="0.5"/><path d="M325.45582,254.25556c0,-0.69036 0.55964,-1.25 1.25,-1.25c0.69036,0 1.25,0.55964 1.25,1.25c0,0.69036 -0.55964,1.25 -1.25,1.25c-0.69036,0 -1.25,-0.55964 -1.25,-1.25z" fill="#942c3b" stroke="none" stroke-width="0.5"/><path d="M341.12249,254.92222c0,-0.69036 0.55964,-1.25 1.25,-1.25c0.69036,0 1.25,0.55964 1.25,1.25c0,0.69036 -0.55964,1.25 -1.25,1.25c-0.69036,0 -1.25,-0.55964 -1.25,-1.25z" fill="#942c3b" stroke="none" stroke-width="0.5"/><path d="M306.12249,263.58889c0,-0.69036 0.55964,-1.25 1.25,-1.25c0.69036,0 1.25,0.55964 1.25,1.25c0,0.69036 -0.55964,1.25 -1.25,1.25c-0.69036,0 -1.25,-0.55964 -1.25,-1.25z" fill="#9d2f3a" stroke="none" stroke-width="0.5"/><path d="M313.03915,263.89444c0.69036,0 1.25,0.55964 1.25,1.25c0,0.69036 -0.55964,1.25 -1.25,1.25c-0.07584,0 -0.1501,-0.00675 -0.22222,-0.01969c-0.07212,0.01294 -0.14638,0.01969 -0.22222,0.01969c-0.69036,0 -1.25,-0.55964 -1.25,-1.25c0,-0.69036 0.55964,-1.25 1.25,-1.25c0.07584,0 0.1501,0.00675 0.22222,0.01969c0.07212,-0.01294 0.14638,-0.01969 0.22222,-0.01969z" fill="#9d2f3a" stroke="none" stroke-width="0.5"/><path d="M333.12249,261.25556c0,-0.69036 0.55964,-1.25 1.25,-1.25c0.34808,0 0.66294,0.14228 0.88958,0.37185c0.3154,-0.45942 0.84439,-0.76074 1.44376,-0.76074c0.9665,0 1.75,0.7835 1.75,1.75c0,0.9665 -0.7835,1.75 -1.75,1.75c-0.65894,0 -1.23282,-0.36419 -1.53133,-0.90227c-0.21706,0.18175 -0.49675,0.29116 -0.802,0.29116c-0.12419,0 -0.24416,-0.01811 -0.35739,-0.05184c0.03373,0.11324 0.05184,0.2332 0.05184,0.35739c0,0.62988 -0.46589,1.15095 -1.07188,1.23741c0.11608,0.18971 0.18299,0.41279 0.18299,0.65148c0,0.69036 -0.55964,1.25 -1.25,1.25c-0.69036,0 -1.25,-0.55964 -1.25,-1.25c0,-0.62988 0.46589,-1.15095 1.07188,-1.23741c-0.11608,-0.18971 -0.18299,-0.41279 -0.18299,-0.65148c0,-0.10888 0.01392,-0.21452 0.04008,-0.31522c-0.10888,0.10837 -0.23195,0.2025 -0.36617,0.27936c-0.64198,0.44665 -1.394,0.62292 -1.75654,-0.01153c-0.5158,-0.30441 -0.86182,-0.86589 -0.86182,-1.50818c0,-0.9665 0.7835,-1.75 1.75,-1.75c0.17212,0 0.33844,0.02485 0.49556,0.07115c0.79343,-0.17182 1.47667,0.18767 1.47667,1.67885c0,0.13848 -0.048,0.29648 -0.13201,0.46103c0.17909,-0.09908 0.38507,-0.15548 0.60423,-0.15548c0.12419,0 0.24416,0.01811 0.35739,0.05184c-0.03373,-0.11324 -0.05184,-0.2332 -0.05184,-0.35739z" fill="#9d2f3a" stroke="none" stroke-width="0.5"/><path d="M341.67804,265.14444c0,-0.69036 0.55964,-1.25 1.25,-1.25c0.69036,0 1.25,0.55964 1.25,1.25c0,0.69036 -0.55964,1.25 -1.25,1.25c-0.69036,0 -1.25,-0.55964 -1.25,-1.25z" fill="#9d2f3a" stroke="none" stroke-width="0.5"/><path d="M294.7336,256.03333c0,-0.41421 0.33579,-0.75 0.75,-0.75c0.41421,0 0.75,0.33579 0.75,0.75c0,0.41421 -0.33579,0.75 -0.75,0.75c-0.41421,0 -0.75,-0.33579 -0.75,-0.75z" fill="#942c3b" stroke="none" stroke-width="0.5"/><path d="M297.95582,257.47778c0,-0.41421 0.33579,-0.75 0.75,-0.75c0.41421,0 0.75,0.33579 0.75,0.75c0,0.41421 -0.33579,0.75 -0.75,0.75c-0.41421,0 -0.75,-0.33579 -0.75,-0.75z" fill="#942c3b" stroke="none" stroke-width="0.5"/><path d="M304.17804,258.25556c0,-0.41421 0.33579,-0.75 0.75,-0.75c0.41421,0 0.75,0.33579 0.75,0.75c0,0.41421 -0.33579,0.75 -0.75,0.75c-0.41421,0 -0.75,-0.33579 -0.75,-0.75z" fill="#942c3b" stroke="none" stroke-width="0.5"/><path d="M307.06693,256.58889c0,-0.41421 0.33579,-0.75 0.75,-0.75c0.41421,0 0.75,0.33579 0.75,0.75c0,0.41421 -0.33579,0.75 -0.75,0.75c-0.41421,0 -0.75,-0.33579 -0.75,-0.75z" fill="#942c3b" stroke="none" stroke-width="0.5"/><path d="M313.40026,257.7c0,-0.41421 0.33579,-0.75 0.75,-0.75c0.41421,0 0.75,0.33579 0.75,0.75c0,0.41421 -0.33579,0.75 -0.75,0.75c-0.41421,0 -0.75,-0.33579 -0.75,-0.75z" fill="#942c3b" stroke="none" stroke-width="0.5"/><path d="M319.62249,258.7c0,-0.41421 0.33579,-0.75 0.75,-0.75c0.41421,0 0.75,0.33579 0.75,0.75c0,0.41421 -0.33579,0.75 -0.75,0.75c-0.41421,0 -0.75,-0.33579 -0.75,-0.75z" fill="#942c3b" stroke="none" stroke-width="0.5"/><path d="M328.06693,257.81111c0,-0.41421 0.33579,-0.75 0.75,-0.75c0.41421,0 0.75,0.33579 0.75,0.75c0,0.41421 -0.33579,0.75 -0.75,0.75c-0.41421,0 -0.75,-0.33579 -0.75,-0.75z" fill="#942c3b" stroke="none" stroke-width="0.5"/><path d="M331.62249,257.47778c0,-0.41421 0.33579,-0.75 0.75,-0.75c0.41421,0 0.75,0.33579 0.75,0.75c0,0.41421 -0.33579,0.75 -0.75,0.75c-0.41421,0 -0.75,-0.33579 -0.75,-0.75z" fill="#942c3b" stroke="none" stroke-width="0.5"/><path d="M340.40026,258.36667c0,-0.41421 0.33579,-0.75 0.75,-0.75c0.41421,0 0.75,0.33579 0.75,0.75c0,0.41421 -0.33579,0.75 -0.75,0.75c-0.41421,0 -0.75,-0.33579 -0.75,-0.75z" fill="#942c3b" stroke="none" stroke-width="0.5"/><path d="M299.06693,268.36667c0,-0.41421 0.33579,-0.75 0.75,-0.75c0.41421,0 0.75,0.33579 0.75,0.75c0,0.41421 -0.33579,0.75 -0.75,0.75c-0.41421,0 -0.75,-0.33579 -0.75,-0.75z" fill="#9d2f3a" stroke="none" stroke-width="0.5"/><path d="M302.40026,266.25556c0,-0.41421 0.33579,-0.75 0.75,-0.75c0.41421,0 0.75,0.33579 0.75,0.75c0,0.41421 -0.33579,0.75 -0.75,0.75c-0.41421,0 -0.75,-0.33579 -0.75,-0.75z" fill="#9d2f3a" stroke="none" stroke-width="0.5"/><path d="M312.62249,268.81111c0,-0.41421 0.33579,-0.75 0.75,-0.75c0.41421,0 0.75,0.33579 0.75,0.75c0,0.41421 -0.33579,0.75 -0.75,0.75c-0.41421,0 -0.75,-0.33579 -0.75,-0.75z" fill="#9d2f3a" stroke="none" stroke-width="0.5"/><path d="M318.7336,269.14444c0,-0.41421 0.33579,-0.75 0.75,-0.75c0.41421,0 0.75,0.33579 0.75,0.75c0,0.41421 -0.33579,0.75 -0.75,0.75c-0.41421,0 -0.75,-0.33579 -0.75,-0.75z" fill="#9d2f3a" stroke="none" stroke-width="0.5"/><path d="M327.62249,267.58889c0,-0.41421 0.33579,-0.75 0.75,-0.75c0.41421,0 0.75,0.33579 0.75,0.75c0,0.41421 -0.33579,0.75 -0.75,0.75c-0.41421,0 -0.75,-0.33579 -0.75,-0.75z" fill="#9d2f3a" stroke="none" stroke-width="0.5"/><path d="M341.17804,267.7c0,-0.41421 0.33579,-0.75 0.75,-0.75c0.41421,0 0.75,0.33579 0.75,0.75c0,0.41421 -0.33579,0.75 -0.75,0.75c-0.41421,0 -0.75,-0.33579 -0.75,-0.75z" fill="#9d2f3a" stroke="none" stroke-width="0.5"/></g><path d="M214.52362,306.61252v-267.72501h213.18203v267.72501z" fill="none" stroke="none" stroke-width="0" stroke-linecap="butt"/><path d="" fill="none" stroke="#000000" stroke-width="2" stroke-linecap="round"/><path d="" fill-opacity="0.73333" fill="#2d7a1a" stroke="none" stroke-width="0" stroke-linecap="butt"/><g><path d="M265.15061,158.74128c-0.55982,-31.41909 26.12029,-57.37277 59.59166,-57.96916c33.47139,-0.59639 61.05914,24.39035 61.61896,55.80944c0.36936,20.72951 -11.11889,39.07991 -28.59185,49.33824c-2.59072,1.52101 -8.19314,21.14508 -11.02786,22.29167c-7.02415,2.84113 -11.54543,3.76351 -19.65892,3.90807c-8.71022,0.1552 -16.06381,-2.13761 -23.60455,-5.10985c-1.95074,-0.7689 -5.12111,-18.48445 -6.9622,-19.43421c-18.39055,-9.4872 -30.9888,-27.70638 -31.36526,-48.83421z" fill="#a93232" stroke="#000000" stroke-width="0" stroke-linecap="butt"/><path d="M307.07326,224.51358l-1.44452,-20.51773l41.98937,-0.10576l-1.81123,19.79711z" fill="#7c2532" stroke="none" stroke-width="0" stroke-linecap="butt"/><g fill="#fff8f7" stroke="none" stroke-width="0" stroke-linecap="butt"><path d="M323.78402,228.72419c-1.53019,0.02726 -2.81667,-2.53226 -2.87341,-5.71688c-0.00396,-0.22204 5.53815,-0.27644 5.54131,-0.09873c0.05674,3.18461 -1.13772,5.78835 -2.66792,5.81561z"/><path d="M318.96914,228.37531c-1.52925,0.05366 -2.90817,-2.482 -3.07991,-5.66358c-0.01197,-0.22182 5.52829,-0.37186 5.53788,-0.19433c0.17175,3.18158 -0.92872,5.80425 -2.45797,5.8579z"/><path d="M309.64635,227.294c-1.40808,0.13813 -2.99098,-2.12181 -3.5355,-5.04772c-0.03797,-0.20401 5.06874,-0.66348 5.09912,-0.5002c0.54451,2.92591 -0.15555,5.4098 -1.56363,5.54792z"/><path d="M314.14968,227.80356c-1.45065,0.09983 -2.93145,-2.26426 -3.30744,-5.28036c-0.02622,-0.21029 5.23231,-0.52983 5.25329,-0.36151c0.37599,3.01609 -0.49518,5.54204 -1.94583,5.64187z"/><path d="M326.30766,222.91115c-0.00317,-0.17771 5.53735,-0.32077 5.54131,-0.09874c0.05674,3.18461 -1.13772,5.78835 -2.66792,5.81561c-1.53019,0.02726 -2.81666,-2.53227 -2.8734,-5.71688z"/><path d="M331.42248,222.48389c0.00325,-0.17777 5.54535,-0.2252 5.54129,-0.00308c-0.0583,3.18567 -1.34601,5.76885 -2.87619,5.76971c-1.53019,0.00085 -2.72338,-2.58095 -2.66509,-5.76662z"/><path d="M341.60435,221.2768c0.02456,-0.16425 5.14439,0.113 5.11371,0.31823c-0.43993,2.94345 -1.94131,5.25835 -3.35343,5.17047c-1.41211,-0.08788 -2.20022,-2.54524 -1.76028,-5.4887z"/><path d="M336.73545,221.79393c0.01497,-0.16895 5.28154,-0.03694 5.26284,0.17414c-0.2683,3.02757 -1.66395,5.44292 -3.11723,5.39483c-1.45329,-0.04809 -2.41391,-2.5414 -2.14558,-5.56897z"/></g><g fill="#fff8f7" stroke="none" stroke-width="0" stroke-linecap="butt"><path d="M326.36021,206.56296c0.00386,0.21679 -5.88743,0.37585 -5.89226,0.10499c-0.06922,-3.88479 1.1937,-7.05754 2.82079,-7.08653c1.62709,-0.02899 3.00224,3.09676 3.07145,6.98154z"/><path d="M320.91295,206.5409c-0.00296,0.21684 -5.8962,0.25923 -5.89249,-0.01169c0.0531,-3.88576 1.41525,-7.03317 3.04241,-7.02994c1.62717,0.00323 2.90319,3.15587 2.85009,7.04163z"/><path d="M310.05297,205.9573c-0.02565,0.20029 -5.47077,-0.15219 -5.43872,-0.40244c0.45961,-3.58924 2.0497,-6.40879 3.55155,-6.29766c1.50187,0.11113 2.34677,3.11087 1.88716,6.7001z"/><path d="M315.25102,206.5743c-0.01545,0.20605 -5.6162,0.03034 -5.59689,-0.2271c0.27688,-3.69232 1.75425,-6.63469 3.29979,-6.57199c1.54553,0.06271 2.57398,3.10676 2.29711,6.79909z"/><path d="M329.13877,199.47717c1.62711,-0.02899 3.00225,3.09675 3.07146,6.98154c0.00483,0.27086 -5.8884,0.32178 -5.89226,0.10499c-0.06922,-3.88479 1.1937,-7.05754 2.82079,-7.08653z"/><path d="M334.35842,199.20892c1.62602,-0.0612 3.09941,3.0357 3.29092,6.9171c0.01334,0.27061 -5.87766,0.43819 -5.88833,0.22159c-0.1915,-3.8814 0.9714,-7.0775 2.59743,-7.1387z"/><path d="M344.24058,198.61442c1.49696,-0.16457 3.18647,2.59656 3.77365,6.16715c0.04094,0.24895 -5.38817,0.79519 -5.42093,0.59594c-0.58717,-3.57059 0.15032,-6.59852 1.64729,-6.76308z"/><path d="M339.47395,199.30268c1.54232,-0.11773 3.12358,2.77016 3.53181,6.45027c0.02846,0.25659 -5.56247,0.63169 -5.58525,0.42634c-0.40824,-3.68011 0.51112,-6.75887 2.05344,-6.8766z"/></g><path d="M309.05006,198.18221c-0.2055,0.14236 -0.34787,-0.06315 -0.34787,-0.06315l-0.19451,-0.28096c-0.85351,-1.18322 -2.39933,0.05112 -3.08717,0.7644c0,0 -0.1736,0.1799 -0.35349,0.0063c-0.1799,-0.1736 -0.0063,-0.35349 -0.0063,-0.35349c0.96667,-1.00109 2.70475,-2.1114 3.84993,-0.71321l0.20257,0.29224c0,0 0.14236,0.20551 -0.06315,0.34787z" fill="#872929" stroke="none" stroke-width="0.5" stroke-linecap="butt"/><path d="M313.45973,198.33907c-0.14529,0.00259 -0.20764,-0.08078 -0.23437,-0.15106c-0.82899,-0.19524 -1.81915,0.13855 -2.62103,0.29484c0,0 -0.24539,0.04783 -0.29321,-0.19756c-0.04783,-0.24538 0.19755,-0.29321 0.19755,-0.29321c0.96143,-0.18739 2.05229,-0.53175 3.01971,-0.2382l0.17686,0.33077c0,0 0.00445,0.24996 -0.24551,0.25442z" fill="#872929" stroke="none" stroke-width="0.5" stroke-linecap="butt"/><path d="M319.25384,197.84896c-0.17843,0.00318 -0.23176,-0.12328 -0.24767,-0.19592c-0.61091,-0.27157 -1.81319,0.23382 -2.31467,0.58644c0,0 -0.20551,0.14236 -0.34787,-0.06315c-0.14236,-0.2055 0.06315,-0.34787 0.06315,-0.34787c0.74645,-0.5107 2.16895,-1.02539 2.97584,-0.53659l0.11673,0.30268c0,0 0.00445,0.24996 -0.24551,0.25442z" fill="#872929" stroke="none" stroke-width="0.5" stroke-linecap="butt"/><path d="M323.75211,197.75653c0.05673,0.24348 -0.18675,0.3002 -0.18675,0.3002l-0.37449,0.08726c-0.73416,0.17106 -0.84733,0.15442 -1.30884,0.72875c0,0 -0.15661,0.19488 -0.35148,0.03828c-0.19488,-0.1566 -0.03828,-0.35148 -0.03828,-0.35148c0.50982,-0.63444 0.78325,-0.71567 1.58514,-0.90251l0.37448,-0.08725c0,0 0.24348,-0.05673 0.3002,0.18675z" fill="#872929" stroke="none" stroke-width="0.5" stroke-linecap="butt"/><path d="M330.65491,198.15287c-0.1736,0.1799 -0.35349,0.0063 -0.35349,0.0063l-0.04463,-0.05544c-1.16212,-0.64998 -2.29268,0.01364 -3.35361,0.46149c0,0 -0.23043,0.09697 -0.3274,-0.13346c-0.09697,-0.23043 0.13346,-0.3274 0.13346,-0.3274c1.2324,-0.51691 2.45003,-1.15547 3.78718,-0.43946l0.15219,0.13448c0,0 0.1799,0.1736 0.0063,0.35349z" fill="#872929" stroke="none" stroke-width="0.5" stroke-linecap="butt"/><path d="M337.61095,197.73879c-0.1736,0.1799 -0.35349,0.0063 -0.35349,0.0063l-0.14289,-0.15033c-1.47377,-0.27679 -2.48488,0.2906 -3.83027,0.85676c0,0 -0.23043,0.09697 -0.3274,-0.13346c-0.09697,-0.23043 0.13346,-0.3274 0.13346,-0.3274c1.47663,-0.62139 2.63901,-1.2634 4.26357,-0.83488l0.25073,0.22951c0,0 0.1799,0.1736 0.0063,0.35349z" fill="#872929" stroke="none" stroke-width="0.5" stroke-linecap="butt"/><path d="M341.19168,197.86842c-0.1736,0.1799 -0.35349,0.0063 -0.35349,0.0063l-0.11475,-0.13718c-0.55153,0.06392 -0.93108,0.1343 -1.46364,0.32243c0,0 -0.23572,0.08327 -0.319,-0.15245c-0.08327,-0.23572 0.15245,-0.31899 0.15245,-0.31899c0.64853,-0.22909 1.12155,-0.33803 1.81327,-0.31626l0.27887,0.24266c0,0 0.1799,0.1736 0.0063,0.35349z" fill="#872929" stroke="none" stroke-width="0.5" stroke-linecap="butt"/><path d="M345.53899,197.59753c-0.1736,0.1799 -0.35349,0.0063 -0.35349,0.0063l-0.05976,-0.06441c-1.2252,-0.79781 -1.83234,0.16588 -2.96372,0.56554c0,0 -0.23572,0.08327 -0.319,-0.15245c-0.08327,-0.23572 0.15245,-0.31899 0.15245,-0.31899c1.29048,-0.45586 1.97417,-1.41777 3.40016,-0.515l0.13705,0.12551c0,0 0.1799,0.1736 0.0063,0.35349z" fill="#872929" stroke="none" stroke-width="0.5" stroke-linecap="butt"/><path d="M309.77856,227.29927c0.1799,0.1736 0.0063,0.35349 0.0063,0.35349l-0.27041,0.17476c-0.93561,0.01667 -2.17161,0.01008 -2.6569,-0.86459c0,0 -0.11577,-0.22158 0.1058,-0.33735c0.22158,-0.11577 0.33735,0.1058 0.33735,0.1058c0.31818,0.66687 1.51485,0.6085 2.20483,0.59621l-0.08048,-0.02205c0,0 0.1736,-0.1799 0.35349,-0.0063z" fill="#872929" stroke="none" stroke-width="0.5" stroke-linecap="butt"/><path d="M314.99809,228.44694c0.00445,0.24996 -0.24551,0.25442 -0.24551,0.25442l-0.14444,-0.00228c-0.91477,0.19772 -1.32081,-0.01595 -2.12046,-0.47657c0,0 -0.21663,-0.12478 -0.09185,-0.34142c0.12478,-0.21663 0.34142,-0.09185 0.34142,-0.09185c0.70189,0.40431 0.97034,0.59704 1.76411,0.42136l0.2423,-0.00917c0,0 0.24996,-0.00445 0.25442,0.24551z" fill="#872929" stroke="none" stroke-width="0.5" stroke-linecap="butt"/><path d="M320.42959,229.31729c0.00445,0.24996 -0.24551,0.25442 -0.24551,0.25442l-0.29485,0.0052c-0.69882,-0.01521 -1.35147,-0.15561 -2.01503,-0.36374c0,0 -0.23854,-0.07482 -0.16372,-0.31336c0.07482,-0.23854 0.31336,-0.16372 0.31336,-0.16372c0.61451,0.19274 1.21837,0.32829 1.86609,0.34082l0.28524,-0.00513c0,0 0.24996,-0.00445 0.25442,0.24551z" fill="#872929" stroke="none" stroke-width="0.5" stroke-linecap="butt"/><path d="M324.66426,228.87263c0.08327,0.23572 -0.15245,0.319 -0.15245,0.319l-0.32716,0.11214c-0.86975,0.0155 -1.05747,0.20949 -1.89599,-0.18281c0,0 -0.22556,-0.1078 -0.11775,-0.33336c0.1078,-0.22557 0.33336,-0.11776 0.33336,-0.11776c0.47896,0.23294 1.05899,0.15138 1.59151,0.1419l0.2495,-0.09156c0,0 0.23572,-0.08327 0.319,0.15245z" fill="#872929" stroke="none" stroke-width="0.5" stroke-linecap="butt"/><path d="M330.85942,228.87739c0.06494,0.24142 -0.17647,0.30636 -0.17647,0.30636l-0.41192,0.10925c-1.5413,0.05306 -2.40369,0.63954 -3.86057,-0.36238c0,0 -0.20598,-0.14166 -0.06432,-0.34765c0.14166,-0.20599 0.34765,-0.06433 0.34765,-0.06433c1.3155,0.90469 2.0975,0.35063 3.50116,0.28017l0.3581,-0.09791c0,0 0.24143,-0.06494 0.30636,0.17647z" fill="#872929" stroke="none" stroke-width="0.5" stroke-linecap="butt"/><path d="M335.02535,228.86381c0.00445,0.24996 -0.24551,0.25441 -0.24551,0.25441l-0.29006,0.00517c-0.70987,0.00972 -1.5323,-0.05748 -2.21148,-0.26357c0,0 -0.23854,-0.07482 -0.16372,-0.31337c0.07482,-0.23854 0.31337,-0.16372 0.31337,-0.16372c0.61075,0.19974 1.41176,0.25531 2.05293,0.24073l0.29006,-0.00517c0,0 0.24996,-0.00445 0.25442,0.24551z" fill="#872929" stroke="none" stroke-width="0.5" stroke-linecap="butt"/><path d="M339.74051,227.94543c0.06494,0.24142 -0.17647,0.30636 -0.17647,0.30636l-0.41499,0.1097c-0.61688,0.01376 -1.05248,-0.29164 -1.58262,-0.26007c0,0 -0.24996,0.00445 -0.25441,-0.24551c-0.00445,-0.24996 0.24551,-0.25442 0.24551,-0.25442c0.60038,0.00583 0.89865,0.27273 1.5216,0.26491l0.35503,-0.09745c0,0 0.24143,-0.06494 0.30636,0.17647z" fill="#872929" stroke="none" stroke-width="0.5" stroke-linecap="butt"/><path d="M344.56607,227.37588c0.06494,0.24142 -0.17647,0.30636 -0.17647,0.30636l-0.37579,0.1009c-0.77353,0.2654 -1.35082,0.06974 -2.0861,-0.15912c0,0 -0.23854,-0.07482 -0.16372,-0.31336c0.07482,-0.23854 0.31336,-0.16372 0.31336,-0.16372c0.62976,0.19887 1.12025,0.40297 1.78813,0.15871l0.39423,-0.10624c0,0 0.24143,-0.06494 0.30636,0.17647z" fill="#872929" stroke="none" stroke-width="0.5" stroke-linecap="butt"/><g><g fill="#a2f30f" stroke="#000000" stroke-width="0"><path d="M261.05073,154.30484c-0.59327,-33.29656 27.68112,-60.80112 63.15261,-61.43315c35.4715,-0.63203 64.70777,25.84781 65.30104,59.14437c0.24418,13.7041 -4.40169,26.42704 -12.42675,36.69914c-0.75422,0.96541 2.50173,5.74405 2.50173,5.74405c0,0 -4.49668,-2.20818 -8.82927,-1.61587c-1.50889,0.20628 -2.80652,3.47856 -2.80652,3.47856c0,0 -5.75585,-1.64065 -8.36989,-1.32863c-1.63702,0.1954 -4.72623,4.874 -4.72623,4.874c0,0 -3.46865,-3.2801 -4.08344,-3.23985c-1.02969,0.06741 -5.19438,6.2548 -5.19438,6.2548l-4.58237,-4.93364l-5.23047,5.53093c0,0 -1.87642,-8.68195 -2.63906,-8.64212c-1.21158,0.06328 -2.48844,4.68248 -2.48844,4.68248c0,0 -3.13239,-3.34836 -4.74542,-3.62667c-1.76689,-0.30486 -3.47246,3.00217 -3.47246,3.00217c0,0 -4.25437,-2.91964 -4.45483,-2.91352c-1.21389,0.03701 -5.37098,2.13279 -5.37098,2.13279c0,0 -4.58822,-1.69629 -5.83166,-1.6588c-1.86386,0.05621 -6.33115,4.13304 -6.33115,4.13304c0,0 -4.23564,-5.5363 -5.69834,-5.50155c-2.43903,0.05794 -7.34776,3.3277 -7.34776,3.3277c0,0 -2.05982,-3.80331 -3.66013,-3.76681c-1.10629,0.02523 -3.60525,5.60706 -3.60525,5.60706c0,0 -0.17193,-4.86221 -1.10644,-5.71032c-1.07927,-0.97949 -4.24992,2.30517 -4.24992,2.30517c0,0 0.87404,-5.31611 0.50742,-5.7417c-8.67431,-10.06997 -13.96277,-22.83711 -14.21162,-36.80363z" stroke-linecap="butt"/><path d="M262.52165,166.64084l-20.333,-61.16181l13.41632,7.62086l-4.73946,-53.03768l48.70137,25.69331l-6.56908,-34.03289l20.40237,19.42175l3.83245,-13.07779l14.22856,22.78413l14.26897,-20.58159l36.10575,64.13315" stroke-linecap="round"/></g><g fill="#75f20f" stroke="#000000" stroke-width="0"><path d="M253.15621,137.84287c-0.59327,-33.29656 35.57564,-44.33915 71.04713,-44.97118c28.50594,-0.50791 52.98503,16.49355 61.80768,40.47123c0.08377,0.22766 -132.8548,4.49994 -132.8548,4.49994z" stroke-linecap="butt"/><path d="M252.86225,137.58528c-3.46907,-10.43502 -10.6736,-32.10625 -10.6736,-32.10625l13.41632,7.62086l-4.73946,-53.03768l48.70137,25.69331l-6.56908,-34.03289l20.40237,19.42175l3.83245,-13.07779l14.22856,22.78413l14.26897,-20.58159l36.10575,64.13315" stroke-linecap="round"/></g><g fill="#33965e" stroke="#000000" stroke-width="0" stroke-linecap="round"><path d="M247.24317,121.05891c-2.45893,-7.39649 -5.05452,-15.57989 -5.05452,-15.57989l13.41632,7.62086l-4.73946,-53.03768l48.70137,25.69331l-6.56908,-34.03289l20.40237,19.42175l3.83245,-13.07779l14.22856,22.78413l14.26897,-20.58159c0,0 26.29938,46.35574 32.00141,56.48403"/></g><g fill="#2d7a1a" stroke="#000000" stroke-width="0" stroke-linecap="round"><path d="M254.44436,100.11174c-0.86571,-9.68783 -3.57884,-40.04954 -3.57884,-40.04954l48.70137,25.69331l-6.56908,-34.03289l20.40237,19.42175l3.83245,-13.07779l14.22856,22.78413l14.26897,-20.58159c0,0 11.79952,20.95899 20.91661,37.1533"/></g><path d="M315.0603,179.52731l4.2908,-14.71215" fill="none" stroke="#81c10c" stroke-width="2" stroke-linecap="round"/><path d="M330.76124,163.25671l4.86676,14.54898" fill="none" stroke="#81c10c" stroke-width="2" stroke-linecap="round"/><path d="M274.74335,157.85994c-0.23103,-12.96595 10.09267,-23.66421 23.05862,-23.89523c12.96595,-0.23103 23.66421,10.09266 23.89524,23.05861c0.23103,12.96595 -10.09267,23.66421 -23.05862,23.89524c-12.96595,0.23103 -23.66422,-10.09267 -23.89524,-23.05862z" fill="#81c10c" stroke="none" stroke-width="0" stroke-linecap="butt"/><path d="M352.88845,179.95196c-12.96595,0.23103 -23.66421,-10.09268 -23.89524,-23.05863c-0.23103,-12.96595 10.09267,-23.6642 23.05862,-23.89523c12.96595,-0.23103 23.66421,10.09266 23.89524,23.05861c0.23103,12.96595 -10.09267,23.66422 -23.05862,23.89525z" fill="#81c10c" stroke="none" stroke-width="0" stroke-linecap="butt"/><path d="M274.68059,154.33765c-0.23103,-12.96595 10.09267,-23.66421 23.05862,-23.89524c12.96595,-0.23103 23.66421,10.09267 23.89524,23.05862c0.23103,12.96595 -10.09267,23.66421 -23.05862,23.89524c-12.96595,0.23103 -23.66422,-10.09267 -23.89524,-23.05862z" fill="#ffffff" stroke="#000000" stroke-width="0" stroke-linecap="butt"/><path d="M352.82569,176.42967c-12.96595,0.23103 -23.66421,-10.09267 -23.89524,-23.05862c-0.23103,-12.96595 10.09266,-23.6642 23.05861,-23.89523c12.96595,-0.23103 23.66422,10.09266 23.89525,23.05861c0.23103,12.96595 -10.09267,23.66422 -23.05862,23.89524z" fill="#ffffff" stroke="#000000" stroke-width="0" stroke-linecap="butt"/><path d="M259.60796,99.09953c0.96635,-0.01722 1.76368,0.7522 1.7809,1.71855c0.01722,0.96635 -0.7522,1.76368 -1.71855,1.7809c-0.85285,0.01519 -1.57406,-0.58232 -1.74354,-1.38717c-0.30104,0.49693 -0.84281,0.83316 -1.46664,0.84427c-0.96635,0.01722 -1.76368,-0.7522 -1.7809,-1.71854c-0.01722,-0.96635 0.7522,-1.76368 1.71855,-1.7809c0.85285,-0.01519 1.57406,0.58232 1.74354,1.38717c0.30104,-0.49693 0.84281,-0.83316 1.46664,-0.84427z" fill="#2d7a1a" stroke="none" stroke-width="0.5" stroke-linecap="butt"/><path d="M269.60993,99.12134c0.96635,-0.01722 1.76368,0.7522 1.7809,1.71854c0.01722,0.96635 -0.7522,1.76368 -1.71855,1.7809c-0.72033,0.01283 -1.34675,-0.41143 -1.62615,-1.02853c-0.07784,-0.04158 -0.15082,-0.09117 -0.21778,-0.14768c-0.0582,0.00691 -0.11729,0.01096 -0.17713,0.01203c-0.96635,0.01722 -1.76368,-0.7522 -1.7809,-1.71855c-0.01722,-0.96635 0.7522,-1.76368 1.71855,-1.7809c0.78557,-0.014 1.45946,0.49187 1.69334,1.20077c0.10597,-0.02208 0.21551,-0.03459 0.32772,-0.03659z" fill="#2d7a1a" stroke="none" stroke-width="0.5" stroke-linecap="butt"/><path d="M283.46754,99.42452c-0.01722,-0.96635 0.7522,-1.76368 1.71855,-1.7809c0.96635,-0.01722 1.76368,0.7522 1.7809,1.71855c0.01722,0.96635 -0.7522,1.76368 -1.71855,1.7809c-0.96635,0.01722 -1.76368,-0.7522 -1.7809,-1.71855z" fill="#2d7a1a" stroke="none" stroke-width="0.5" stroke-linecap="butt"/><path d="M295.85488,98.60371c-0.01722,-0.96635 0.7522,-1.76368 1.71855,-1.7809c0.96635,-0.01722 1.76368,0.7522 1.7809,1.71855c0.01722,0.96635 -0.7522,1.76368 -1.71855,1.7809c-0.96635,0.01722 -1.76368,-0.7522 -1.7809,-1.71855z" fill="#2d7a1a" stroke="none" stroke-width="0.5" stroke-linecap="butt"/><path d="M308.65641,98.57564c0.0123,0.69025 -0.53728,1.25977 -1.22753,1.27207c-0.41355,0.00737 -0.78378,-0.18696 -1.01677,-0.4924c-0.06298,0.00801 -0.12701,0.0127 -0.19194,0.01386c-0.96635,0.01722 -1.76368,-0.7522 -1.7809,-1.71855c-0.01722,-0.96635 0.7522,-1.76368 1.71854,-1.7809c0.92433,-0.01647 1.69404,0.68679 1.77428,1.59369c0.42051,0.19515 0.71551,0.61757 0.72432,1.11224z" fill="#2d7a1a" stroke="none" stroke-width="0.5" stroke-linecap="butt"/><path d="M320.18053,97.02009c0.96635,-0.01722 1.76368,0.7522 1.7809,1.71855c0.01722,0.96635 -0.7522,1.76368 -1.71855,1.7809c-0.61812,0.01101 -1.16709,-0.29983 -1.48698,-0.77818c-0.04192,0.00376 -0.08427,0.00605 -0.12702,0.00682c-0.96635,0.01722 -1.76368,-0.7522 -1.7809,-1.71855c-0.01722,-0.96635 0.7522,-1.76368 1.71855,-1.7809c0.61812,-0.01101 1.16709,0.29983 1.48698,0.77818c0.04192,-0.00376 0.08427,-0.00605 0.12702,-0.00682z" fill="#2d7a1a" stroke="none" stroke-width="0.5" stroke-linecap="butt"/><path d="M331.65989,98.56583c-0.01313,-0.73704 0.43134,-1.37576 1.07177,-1.64502c0.31174,-0.3292 0.75043,-0.53778 1.23955,-0.5465c0.96635,-0.01722 1.76368,0.7522 1.7809,1.71855c0.01313,0.73704 -0.43134,1.37576 -1.07177,1.64502c-0.31174,0.3292 -0.75043,0.53778 -1.23955,0.5465c-0.96635,0.01722 -1.76368,-0.7522 -1.7809,-1.71855z" fill="#2d7a1a" stroke="none" stroke-width="0.5" stroke-linecap="butt"/><path d="M347.97256,96.32487c0.96635,-0.01722 1.76368,0.7522 1.7809,1.71855c0.01722,0.96635 -0.7522,1.76368 -1.71855,1.7809c-0.36842,0.00656 -0.71228,-0.10121 -0.9977,-0.29064c-0.188,0.07345 -0.392,0.11537 -0.60561,0.11918c-0.96635,0.01722 -1.76368,-0.7522 -1.7809,-1.71854c-0.01722,-0.96635 0.7522,-1.76368 1.71855,-1.7809c0.36842,-0.00656 0.71227,0.10121 0.99769,0.29064c0.188,-0.07345 0.392,-0.11537 0.60562,-0.11918z" fill="#2d7a1a" stroke="none" stroke-width="0.5" stroke-linecap="butt"/><path d="M350.24981,97.83454c-0.01722,-0.96635 0.7522,-1.76368 1.71855,-1.7809c0.96635,-0.01722 1.76368,0.7522 1.7809,1.71855c0.01722,0.96635 -0.7522,1.76368 -1.71855,1.7809c-0.96635,0.01722 -1.76368,-0.7522 -1.7809,-1.71855z" fill="#2d7a1a" stroke="none" stroke-width="0.5" stroke-linecap="butt"/><path d="M363.04778,97.6065c-0.01722,-0.96635 0.7522,-1.76368 1.71855,-1.7809c0.96635,-0.01722 1.76368,0.7522 1.7809,1.71855c0.01722,0.96635 -0.7522,1.76368 -1.71855,1.7809c-0.96635,0.01722 -1.76368,-0.7522 -1.7809,-1.71855z" fill="#2d7a1a" stroke="none" stroke-width="0.5" stroke-linecap="butt"/><path d="M354.542,97.35799c-0.0123,-0.69025 0.53728,-1.25977 1.22753,-1.27207c0.68589,-0.01222 1.25259,0.53038 1.27177,1.2145c0.28282,-0.56218 0.86023,-0.95244 1.53313,-0.96443c0.96635,-0.01722 1.76368,0.7522 1.7809,1.71854c0.01722,0.96635 -0.7522,1.76368 -1.71855,1.7809c-0.96635,0.01722 -1.76368,-0.7522 -1.7809,-1.71855c-0.00077,-0.04329 0.00004,-0.08625 0.00237,-0.12881c-0.2157,0.35187 -0.60094,0.58955 -1.04418,0.59745c-0.69025,0.0123 -1.25977,-0.53728 -1.27207,-1.22753z" fill="#2d7a1a" stroke="none" stroke-width="0.5" stroke-linecap="butt"/><path d="M336.65553,98.27679c-0.01722,-0.96635 0.7522,-1.76368 1.71854,-1.7809c0.96635,-0.01722 1.76368,0.7522 1.7809,1.71855c0.01722,0.96635 -0.7522,1.76368 -1.71855,1.7809c-0.96635,0.01722 -1.76368,-0.7522 -1.7809,-1.71855z" fill="#2d7a1a" stroke="none" stroke-width="0.5" stroke-linecap="butt"/><path d="M310.06688,99.15061c-0.01722,-0.96635 0.7522,-1.76368 1.71855,-1.7809c0.96635,-0.01722 1.76368,0.7522 1.7809,1.71854c0.01722,0.96635 -0.7522,1.76368 -1.71855,1.7809c-0.96635,0.01722 -1.76368,-0.7522 -1.7809,-1.71854z" fill="#2d7a1a" stroke="none" stroke-width="0.5" stroke-linecap="butt"/><path d="M299.27928,99.94292c-0.01722,-0.96635 0.7522,-1.76368 1.71855,-1.7809c0.96635,-0.01722 1.76368,0.7522 1.7809,1.71855c0.01722,0.96635 -0.7522,1.76368 -1.71855,1.7809c-0.96635,0.01722 -1.76368,-0.7522 -1.7809,-1.71855z" fill="#2d7a1a" stroke="none" stroke-width="0.5" stroke-linecap="butt"/><path d="M290.68421,100.29609c-0.01722,-0.96635 0.7522,-1.76368 1.71855,-1.7809c0.96635,-0.01722 1.76368,0.7522 1.7809,1.71855c0.01722,0.96635 -0.7522,1.76368 -1.71855,1.7809c-0.96635,0.01722 -1.76368,-0.7522 -1.7809,-1.71855z" fill="#2d7a1a" stroke="none" stroke-width="0.5" stroke-linecap="butt"/><path d="M278.28974,100.71697c-0.01722,-0.96635 0.7522,-1.76368 1.71855,-1.7809c0.96635,-0.01722 1.76368,0.7522 1.7809,1.71854c0.01722,0.96635 -0.7522,1.76368 -1.71855,1.7809c-0.96635,0.01722 -1.76368,-0.7522 -1.7809,-1.71855z" fill="#2d7a1a" stroke="none" stroke-width="0.5" stroke-linecap="butt"/><path d="M271.49082,100.83811c-0.01722,-0.96635 0.7522,-1.76368 1.71855,-1.7809c0.96635,-0.01722 1.76368,0.7522 1.7809,1.71854c0.01722,0.96635 -0.7522,1.76368 -1.71855,1.7809c-0.96635,0.01722 -1.76368,-0.7522 -1.7809,-1.71855z" fill="#2d7a1a" stroke="none" stroke-width="0.5" stroke-linecap="butt"/><path d="M262.81358,102.19291c-0.0022,-0.12335 0.01354,-0.24285 0.04484,-0.356c-0.67584,-0.23256 -1.16682,-0.86805 -1.18029,-1.62409c-0.01722,-0.96635 0.7522,-1.76368 1.71855,-1.7809c0.96635,-0.01722 1.76368,0.7522 1.7809,1.71855c0.00697,0.39104 -0.11487,0.75439 -0.32644,1.04958c0.27621,0.22442 0.45522,0.56463 0.46206,0.94832c0.0123,0.69025 -0.53728,1.25977 -1.22753,1.27207c-0.69025,0.0123 -1.25977,-0.53728 -1.27207,-1.22753z" fill="#2d7a1a" stroke="none" stroke-width="0.5" stroke-linecap="butt"/><path d="M247.83668,120.46262c-0.01722,-0.96635 0.7522,-1.76368 1.71855,-1.7809c0.96635,-0.01722 1.76368,0.7522 1.7809,1.71855c0.01722,0.96635 -0.7522,1.76368 -1.71855,1.7809c-0.96635,0.01722 -1.76368,-0.7522 -1.7809,-1.71855z" fill="#33965e" stroke="none" stroke-width="0.5" stroke-linecap="butt"/><path d="M259.15982,121.66109c-0.00491,-0.27562 0.07976,-0.532 0.22722,-0.74133c-0.31232,0.42338 -0.81126,0.70172 -1.37792,0.71182c-0.96635,0.01722 -1.76368,-0.7522 -1.7809,-1.71854c-0.01722,-0.96635 0.7522,-1.76368 1.71855,-1.7809c0.96635,-0.01722 1.76368,0.7522 1.7809,1.71855c0.00692,0.38817 -0.11309,0.74908 -0.32181,1.0431c0.22325,-0.30034 0.57839,-0.49758 0.9815,-0.50477c0.69025,-0.0123 1.25977,0.53728 1.27207,1.22753c0.0123,0.69025 -0.53728,1.25977 -1.22753,1.27207c-0.69025,0.0123 -1.25977,-0.53728 -1.27207,-1.22753z" fill="#33965e" stroke="none" stroke-width="0.5" stroke-linecap="butt"/><path d="M274.34772,118.03995c0.96635,-0.01722 1.76368,0.7522 1.7809,1.71855c0.01722,0.96635 -0.7522,1.76368 -1.71855,1.7809c-0.57237,0.0102 -1.08544,-0.25557 -1.41224,-0.67478c-0.31166,0.43058 -0.81494,0.71446 -1.38731,0.72466c-0.96635,0.01722 -1.76368,-0.7522 -1.7809,-1.71855c-0.01722,-0.96635 0.7522,-1.76368 1.71855,-1.7809c0.57237,-0.0102 1.08544,0.25557 1.41224,0.67478c0.31166,-0.43058 0.81494,-0.71446 1.38731,-0.72466z" fill="#33965e" stroke="none" stroke-width="0.5" stroke-linecap="butt"/><path d="M375.32101,115.64072c0.96635,-0.01722 1.76368,0.7522 1.7809,1.71855c0.01722,0.96635 -0.7522,1.76368 -1.71855,1.7809c-0.61926,0.01104 -1.16911,-0.30097 -1.48874,-0.78083c-0.31423,0.37752 -0.78473,0.62131 -1.31438,0.63075c-0.96635,0.01722 -1.76368,-0.7522 -1.7809,-1.71855c-0.01722,-0.96635 0.7522,-1.76368 1.71855,-1.7809c0.61926,-0.01104 1.16912,0.30097 1.48875,0.78083c0.31423,-0.37752 0.78472,-0.62131 1.31437,-0.63074z" fill="#33965e" stroke="none" stroke-width="0.5" stroke-linecap="butt"/><path d="M359.80465,117.66746c-0.01722,-0.96635 0.7522,-1.76368 1.71855,-1.7809c0.96635,-0.01722 1.76368,0.7522 1.7809,1.71854c0.01722,0.96635 -0.7522,1.76368 -1.71855,1.7809c-0.96635,0.01722 -1.76368,-0.7522 -1.7809,-1.71854z" fill="#33965e" stroke="none" stroke-width="0.5" stroke-linecap="butt"/><path d="M355.60176,117.54232c-0.01722,-0.96635 0.7522,-1.76368 1.71854,-1.7809c0.96635,-0.01722 1.76368,0.7522 1.7809,1.71855c0.01722,0.96635 -0.7522,1.76368 -1.71855,1.7809c-0.96635,0.01722 -1.76368,-0.7522 -1.7809,-1.71855z" fill="#33965e" stroke="none" stroke-width="0.5" stroke-linecap="butt"/><path d="M350.59898,117.43143c-0.01722,-0.96635 0.7522,-1.76368 1.71855,-1.7809c0.96635,-0.01722 1.76368,0.7522 1.7809,1.71855c0.01722,0.96635 -0.7522,1.76368 -1.71855,1.7809c-0.96635,0.01722 -1.76368,-0.7522 -1.7809,-1.71855z" fill="#33965e" stroke="none" stroke-width="0.5" stroke-linecap="butt"/><path d="M348.16721,119.27032c-0.37409,1.1927 -1.56681,0.81861 -1.56681,0.81861l-1.20693,-0.37856c0,0 -1.1927,-0.37409 -0.81861,-1.56681c0.37409,-1.1927 1.5668,-0.81861 1.5668,-0.81861l0.06276,0.01968c0.06732,-0.89043 0.80312,-1.5995 1.71381,-1.61573c0.96635,-0.01722 1.76368,0.7522 1.7809,1.71855c0.01599,0.89741 -0.64642,1.64906 -1.51495,1.76553c-0.00526,0.01889 -0.0109,0.03801 -0.01696,0.05734z" fill="#33965e" stroke="none" stroke-width="0.5" stroke-linecap="butt"/><path d="M341.00407,117.80242c-0.01722,-0.96635 0.7522,-1.76368 1.71855,-1.7809c0.96635,-0.01722 1.76368,0.7522 1.7809,1.71855c0.01722,0.96635 -0.7522,1.76368 -1.71855,1.7809c-0.23025,0.0041 -0.45092,-0.03645 -0.65372,-0.1137c-0.4902,-0.0911 -0.88176,-0.46895 -0.99026,-0.95559c-0.08441,-0.19992 -0.13282,-0.419 -0.13692,-0.64926z" fill="#33965e" stroke="none" stroke-width="0.5" stroke-linecap="butt"/><path d="M332.80537,117.9485c-0.03118,-1.74972 1.71855,-1.7809 1.71855,-1.7809l2.19965,-0.03919c0,0 1.74972,-0.03118 1.7809,1.71855c0.03118,1.74972 -1.71855,1.7809 -1.71855,1.7809l-2.19965,0.03919c0,0 -1.74972,0.03118 -1.7809,-1.71854z" fill="#33965e" stroke="none" stroke-width="0.5" stroke-linecap="butt"/><path d="M327.60976,118.24111c-0.01722,-0.96635 0.7522,-1.76368 1.71854,-1.7809c0.96635,-0.01722 1.76368,0.7522 1.7809,1.71855c0.01722,0.96635 -0.7522,1.76368 -1.71855,1.7809c-0.96635,0.01722 -1.76368,-0.7522 -1.7809,-1.71855z" fill="#33965e" stroke="none" stroke-width="0.5" stroke-linecap="butt"/><path d="M321.8178,118.74437c-0.01722,-0.96635 0.7522,-1.76368 1.71855,-1.7809c0.96635,-0.01722 1.76368,0.7522 1.7809,1.71854c0.01722,0.96635 -0.7522,1.76368 -1.71855,1.7809c-0.96635,0.01722 -1.76368,-0.7522 -1.7809,-1.71854z" fill="#33965e" stroke="none" stroke-width="0.5" stroke-linecap="butt"/><path d="M317.01857,118.82988c-0.01722,-0.96635 0.7522,-1.76368 1.71855,-1.7809c0.96635,-0.01722 1.76368,0.7522 1.7809,1.71855c0.01722,0.96635 -0.7522,1.76368 -1.71854,1.7809c-0.96635,0.01722 -1.76368,-0.7522 -1.7809,-1.71855z" fill="#33965e" stroke="none" stroke-width="0.5" stroke-linecap="butt"/><path d="M309.01984,118.97241c-0.01722,-0.96635 0.7522,-1.76368 1.71855,-1.7809c0.96635,-0.01722 1.76368,0.7522 1.7809,1.71855c0.01722,0.96635 -0.7522,1.76368 -1.71855,1.7809c-0.96635,0.01722 -1.76368,-0.7522 -1.7809,-1.71855z" fill="#33965e" stroke="none" stroke-width="0.5" stroke-linecap="butt"/><path d="M302.22092,119.09355c-0.01722,-0.96635 0.7522,-1.76368 1.71855,-1.7809c0.96635,-0.01722 1.76368,0.7522 1.7809,1.71855c0.01722,0.96635 -0.7522,1.76368 -1.71854,1.7809c-0.96635,0.01722 -1.76368,-0.7522 -1.7809,-1.71855z" fill="#33965e" stroke="none" stroke-width="0.5" stroke-linecap="butt"/><path d="M300.80461,118.89553c-0.15471,1.24039 -1.39509,1.08569 -1.39509,1.08569l-1.20704,-0.15054c-0.25049,0.64105 -0.86867,1.10024 -1.59947,1.11326c-0.96635,0.01722 -1.76368,-0.7522 -1.7809,-1.71854c-0.01722,-0.96635 0.7522,-1.76368 1.71855,-1.7809c0.27622,-0.00492 0.53866,0.05443 0.77299,0.16429c0.41663,-0.35637 1.00195,-0.28336 1.00195,-0.28336l1.40334,0.17503c0,0 1.24039,0.15471 1.08569,1.39509z" fill="#33965e" stroke="none" stroke-width="0.5" stroke-linecap="butt"/><path d="M294.44353,120.43232c0.0123,0.69025 -0.53728,1.25977 -1.22753,1.27207c-0.49292,0.00878 -0.92428,-0.26898 -1.1351,-0.67989l-1.47695,0.02632c0,0 -1.74972,0.03117 -1.7809,-1.71855c-0.03118,-1.74972 1.71855,-1.7809 1.71855,-1.7809l2.19965,-0.03919c0,0 1.74972,-0.03118 1.7809,1.71854c0.00584,0.32814 -0.05095,0.59583 -0.14708,0.81422c0.04213,0.12156 0.06605,0.25175 0.06847,0.38737z" fill="#33965e" stroke="none" stroke-width="0.5" stroke-linecap="butt"/><path d="M278.03188,119.92461c-0.01722,-0.96635 0.7522,-1.76368 1.71855,-1.7809c0.42799,-0.00762 0.82283,0.13905 1.13143,0.38882c0.30213,-0.49187 0.84105,-0.82403 1.46102,-0.83507c0.96635,-0.01722 1.76368,0.7522 1.7809,1.71854c0.01722,0.96635 -0.7522,1.76368 -1.71855,1.7809c-0.42799,0.00762 -0.82284,-0.13905 -1.13144,-0.38881c-0.30213,0.49187 -0.84105,0.82403 -1.46102,0.83507c-0.96635,0.01722 -1.76368,-0.7522 -1.7809,-1.71854z" fill="#33965e" stroke="none" stroke-width="0.5" stroke-linecap="butt"/><path d="M364.57182,115.78224c-0.01722,-0.96635 0.7522,-1.76368 1.71854,-1.7809c0.96635,-0.01722 1.76368,0.7522 1.7809,1.71855c0.01722,0.96635 -0.7522,1.76368 -1.71855,1.7809c-0.96635,0.01722 -1.76368,-0.7522 -1.7809,-1.71855z" fill="#33965e" stroke="none" stroke-width="0.5" stroke-linecap="butt"/><path d="M253.73508,137.16019c-0.01722,-0.96635 0.7522,-1.76368 1.71855,-1.7809c0.96635,-0.01722 1.76368,0.7522 1.7809,1.71855c0.01722,0.96635 -0.7522,1.76368 -1.71855,1.7809c-0.96635,0.01722 -1.76368,-0.7522 -1.7809,-1.71854z" fill="#75f20f" stroke="none" stroke-width="0.5" stroke-linecap="butt"/><path d="M269.47457,136.42968c0.69025,-0.0123 1.25977,0.53728 1.27207,1.22753c0.0123,0.69025 -0.53728,1.25977 -1.22753,1.27207c-0.16081,0.00287 -0.31507,-0.02477 -0.45727,-0.07757c-0.49871,0.39466 -1.13714,0.40603 -1.13714,0.40603l-1.33187,0.02373c0.11887,0.1873 0.18939,0.40861 0.19363,0.64665c0.0123,0.69025 -0.53728,1.25977 -1.22753,1.27207c-0.69025,0.0123 -1.25977,-0.53728 -1.27207,-1.22753c-0.00834,-0.46805 0.24167,-0.88058 0.6187,-1.10151c-0.04007,-0.03308 -0.07909,-0.06877 -0.1167,-0.10729c-0.31302,0.34405 -0.7617,0.56333 -1.26348,0.57227c-0.96635,0.01722 -1.76368,-0.7522 -1.7809,-1.71854c-0.01722,-0.96635 0.7522,-1.76368 1.71855,-1.7809c0.50177,-0.00894 0.95797,0.19421 1.28306,0.5269c0.50803,-0.55881 1.31652,-0.57322 1.31652,-0.57322l1.79971,-0.03207c0,0 0.95731,-0.01706 1.46835,0.68216c0.04715,-0.00626 0.09517,-0.0099 0.14387,-0.01077z" fill="#75f20f" stroke="none" stroke-width="0.5" stroke-linecap="butt"/><path d="M273.28187,139.61236c-0.00406,-0.22767 0.05302,-0.44221 0.15611,-0.62795c-0.41203,-0.31317 -0.68172,-0.80521 -0.69166,-1.36282c-0.01722,-0.96635 0.7522,-1.76368 1.71855,-1.7809c0.17371,-0.0031 0.34197,0.01923 0.50121,0.06355c0.15756,-0.04997 0.32491,-0.07827 0.49863,-0.08137c0.96635,-0.01722 1.76368,0.7522 1.7809,1.71854c0.01588,0.89113 -0.63719,1.63854 -1.49675,1.76299c0.0198,0.08475 0.031,0.17287 0.03262,0.26342c0.0123,0.69025 -0.53728,1.25977 -1.22753,1.27207c-0.69025,0.0123 -1.25977,-0.53728 -1.27207,-1.22753z" fill="#75f20f" stroke="none" stroke-width="0.5" stroke-linecap="butt"/><path d="M327.53406,136.44535c0.0123,0.69025 -0.53728,1.25977 -1.22753,1.27207c-0.12155,0.00217 -0.23935,-0.01309 -0.35103,-0.04348c-0.28849,0.22478 -0.64959,0.36135 -1.0434,0.36837c-0.59706,0.01064 -1.1296,-0.27902 -1.45348,-0.72987c-0.27931,0.5723 -0.86207,0.97116 -1.54248,0.98329c-0.53812,0.00959 -1.02382,-0.22475 -1.3516,-0.60118c-0.25123,0.14786 -0.54293,0.23487 -0.85518,0.24044c-0.78557,0.014 -1.45947,-0.49187 -1.69334,-1.20078c-0.10597,0.02208 -0.21551,0.03459 -0.32772,0.03659c-0.96635,0.01722 -1.76368,-0.7522 -1.7809,-1.71855c-0.01722,-0.96635 0.7522,-1.76368 1.71855,-1.7809c0.78557,-0.014 1.45946,0.49187 1.69334,1.20077c0.10597,-0.02208 0.21552,-0.03459 0.32772,-0.0366c0.53812,-0.00959 1.02382,0.22475 1.3516,0.60118c0.25123,-0.14786 0.54293,-0.23487 0.85518,-0.24043c0.59706,-0.01064 1.12959,0.27902 1.45348,0.72987c0.27931,-0.5723 0.86208,-0.97116 1.54248,-0.98329c0.57245,-0.0102 1.08559,0.25564 1.41238,0.67494c0.69019,-0.01223 1.25964,0.53734 1.27194,1.22754z" fill="#75f20f" stroke="none" stroke-width="0.5" stroke-linecap="butt"/><path d="M329.84082,136.80431c-0.00332,-0.18605 0.03419,-0.36333 0.10427,-0.52329c-0.08937,-0.05451 -0.1735,-0.1168 -0.25143,-0.18599c-0.17983,0.10621 -0.38879,0.16875 -0.61252,0.17273c-0.69025,0.0123 -1.25977,-0.53729 -1.27207,-1.22754c-0.0123,-0.69025 0.53728,-1.25977 1.22753,-1.27207c0.12569,-0.00224 0.24737,0.01415 0.36242,0.04663c0.30784,-0.46067 0.82889,-0.76796 1.42482,-0.77858c0.96635,-0.01722 1.76368,0.7522 1.7809,1.71855c0.00885,0.49678 -0.19019,0.9489 -0.51701,1.27332c0.15433,0.20376 0.24778,0.45656 0.25268,0.7317c0.0123,0.69025 -0.53728,1.25977 -1.22753,1.27207c-0.69025,0.0123 -1.25977,-0.53728 -1.27207,-1.22753z" fill="#75f20f" stroke="none" stroke-width="0.5" stroke-linecap="butt"/><path d="M368.49548,133.91521c-0.01722,-0.96635 0.7522,-1.76368 1.71855,-1.7809c0.96635,-0.01722 1.76368,0.7522 1.7809,1.71855c0.01722,0.96635 -0.7522,1.76368 -1.71855,1.7809c-0.96635,0.01722 -1.76368,-0.7522 -1.7809,-1.71854z" fill="#75f20f" stroke="none" stroke-width="0.5" stroke-linecap="butt"/><path d="M380.3043,134.3049c0.0123,0.69025 -0.53728,1.25977 -1.22753,1.27207c-0.17652,0.00314 -0.34516,-0.03046 -0.49859,-0.09376c-0.25311,-0.00928 -0.49288,-0.07251 -0.70792,-0.17868c-0.14411,0.51952 -0.61588,0.90502 -1.18244,0.91511c-0.56877,0.01013 -1.05557,-0.36125 -1.21618,-0.87847c-0.96619,0.01704 -1.76334,-0.75232 -1.78056,-1.71855c-0.01722,-0.96635 0.7522,-1.76368 1.71855,-1.7809c0.75505,-0.01345 1.40692,0.45334 1.6641,1.11907c0.28066,-0.56845 0.8614,-0.96404 1.53895,-0.97611c0.96635,-0.01722 1.76368,0.7522 1.7809,1.71855c0.00365,0.20505 -0.02811,0.40248 -0.08966,0.58647c0.00015,0.00507 0.00027,0.01014 0.00036,0.01522z" fill="#75f20f" stroke="none" stroke-width="0.5" stroke-linecap="butt"/><path d="M380.82916,135.69577c-0.01161,-0.65184 0.47787,-1.19602 1.1137,-1.26492c-0.02568,-0.11424 -0.04021,-0.23277 -0.04237,-0.35442c-0.01722,-0.96635 0.7522,-1.76368 1.71855,-1.7809c0.96635,-0.01722 1.76368,0.7522 1.7809,1.71855c0.01722,0.96635 -0.7522,1.76368 -1.71855,1.7809c-0.12165,0.00217 -0.24063,-0.00814 -0.35571,-0.02972c-0.0462,0.63787 -0.5726,1.14643 -1.22445,1.15805c-0.69025,0.0123 -1.25977,-0.53728 -1.27207,-1.22753z" fill="#75f20f" stroke="none" stroke-width="0.5" stroke-linecap="butt"/><path d="M257.53426,142.69339c-0.0123,-0.69025 0.53728,-1.25977 1.22753,-1.27207c0.69025,-0.0123 1.25977,0.53728 1.27207,1.22753c0.0123,0.69025 -0.53728,1.25977 -1.22753,1.27207c-0.69025,0.0123 -1.25977,-0.53728 -1.27207,-1.22753z" fill="#75f20f" stroke="none" stroke-width="0.5" stroke-linecap="butt"/><path d="M319.68876,139.58561c-0.0123,-0.69025 0.53728,-1.25977 1.22753,-1.27207c0.69025,-0.0123 1.25977,0.53728 1.27207,1.22753c0.0123,0.69025 -0.53728,1.25977 -1.22753,1.27207c-0.69025,0.0123 -1.25977,-0.53728 -1.27207,-1.22753z" fill="#75f20f" stroke="none" stroke-width="0.5" stroke-linecap="butt"/><path d="M373.44459,136.62748c-0.0123,-0.69025 0.53728,-1.25977 1.22753,-1.27207c0.69025,-0.0123 1.25977,0.53728 1.27207,1.22753c0.0123,0.69025 -0.53728,1.25977 -1.22753,1.27207c-0.69025,0.0123 -1.25977,-0.53728 -1.27207,-1.22753z" fill="#75f20f" stroke="none" stroke-width="0.5" stroke-linecap="butt"/><path d="M383.26797,137.85267c-0.0123,-0.69025 0.53729,-1.25977 1.22754,-1.27207c0.69025,-0.0123 1.25977,0.53728 1.27207,1.22753c0.0123,0.69025 -0.53729,1.25977 -1.22754,1.27207c-0.69025,0.0123 -1.25977,-0.53728 -1.27207,-1.22753z" fill="#75f20f" stroke="none" stroke-width="0.5" stroke-linecap="butt"/><path d="M252.84992,126.77431c-0.0123,-0.69025 0.53728,-1.25977 1.22753,-1.27207c0.69025,-0.0123 1.25977,0.53728 1.27207,1.22753c0.0123,0.69025 -0.53728,1.25977 -1.22753,1.27207c-0.69025,0.0123 -1.25977,-0.53728 -1.27207,-1.22753z" fill="#33965e" stroke="none" stroke-width="0.5" stroke-linecap="butt"/><path d="M255.59246,123.52494c-0.0123,-0.69025 0.53728,-1.25977 1.22753,-1.27207c0.69025,-0.0123 1.25977,0.53728 1.27207,1.22753c0.0123,0.69025 -0.53728,1.25977 -1.22753,1.27207c-0.69025,0.0123 -1.25977,-0.53728 -1.27207,-1.22753z" fill="#33965e" stroke="none" stroke-width="0.5" stroke-linecap="butt"/><path d="M264.9589,121.55777c-0.0123,-0.69025 0.53728,-1.25977 1.22753,-1.27207c0.69025,-0.0123 1.25977,0.53728 1.27207,1.22753c0.0123,0.69025 -0.53728,1.25977 -1.22753,1.27207c-0.69025,0.0123 -1.25977,-0.53728 -1.27207,-1.22753z" fill="#33965e" stroke="none" stroke-width="0.5" stroke-linecap="butt"/><path d="M279.98859,123.09025c-0.0123,-0.69025 0.53728,-1.25977 1.22753,-1.27207c0.69025,-0.0123 1.25977,0.53728 1.27207,1.22753c0.0123,0.69025 -0.53728,1.25977 -1.22753,1.27207c-0.69025,0.0123 -1.25977,-0.53728 -1.27207,-1.22753z" fill="#33965e" stroke="none" stroke-width="0.5" stroke-linecap="butt"/><path d="M285.41267,124.39383c-0.0123,-0.69025 0.53728,-1.25977 1.22753,-1.27207c0.69025,-0.0123 1.25977,0.53728 1.27207,1.22753c0.0123,0.69025 -0.53728,1.25977 -1.22753,1.27207c-0.69025,0.0123 -1.25977,-0.53728 -1.27207,-1.22753z" fill="#33965e" stroke="none" stroke-width="0.5" stroke-linecap="butt"/><path d="M317.05955,123.17891c-0.93443,0.83027 -1.7647,-0.10416 -1.7647,-0.10416l-1.22475,-1.3784c0,0 -0.83027,-0.93443 0.10416,-1.7647c0.93443,-0.83027 1.7647,0.10416 1.7647,0.10416l1.22475,1.3784c0,0 0.83027,0.93443 -0.10416,1.7647z" fill="#33965e" stroke="none" stroke-width="0.5" stroke-linecap="butt"/><path d="M322.22109,124.53811c-0.0123,-0.69025 0.53728,-1.25977 1.22753,-1.27207c0.69025,-0.0123 1.25977,0.53728 1.27207,1.22753c0.0123,0.69025 -0.53728,1.25977 -1.22753,1.27207c-0.69025,0.0123 -1.25977,-0.53728 -1.27207,-1.22753z" fill="#33965e" stroke="none" stroke-width="0.5" stroke-linecap="butt"/><path d="M325.03133,125.08813c-0.0123,-0.69025 0.53728,-1.25977 1.22753,-1.27207c0.69025,-0.0123 1.25977,0.53728 1.27207,1.22753c0.0123,0.69025 -0.53728,1.25977 -1.22753,1.27207c-0.69025,0.0123 -1.25977,-0.53728 -1.27207,-1.22753z" fill="#33965e" stroke="none" stroke-width="0.5" stroke-linecap="butt"/><path d="M366.73562,119.34426c-0.0123,-0.69025 0.53728,-1.25977 1.22753,-1.27207c0.69025,-0.0123 1.25977,0.53728 1.27207,1.22753c0.0123,0.69025 -0.53728,1.25977 -1.22753,1.27207c-0.69025,0.0123 -1.25977,-0.53728 -1.27207,-1.22753z" fill="#33965e" stroke="none" stroke-width="0.5" stroke-linecap="butt"/><path d="M372.39531,122.64395c-0.0123,-0.69025 0.53728,-1.25977 1.22753,-1.27207c0.69025,-0.0123 1.25977,0.53728 1.27207,1.22753c0.0123,0.69025 -0.53728,1.25977 -1.22753,1.27207c-0.69025,0.0123 -1.25977,-0.53728 -1.27207,-1.22753z" fill="#33965e" stroke="none" stroke-width="0.5" stroke-linecap="butt"/><path d="M257.28929,106.49201c-0.0123,-0.69025 0.53728,-1.25977 1.22753,-1.27207c0.69025,-0.0123 1.25977,0.53728 1.27207,1.22753c0.0123,0.69025 -0.53728,1.25977 -1.22753,1.27207c-0.69025,0.0123 -1.25977,-0.53728 -1.27207,-1.22753z" fill="#2d7a1a" stroke="none" stroke-width="0.5" stroke-linecap="butt"/><path d="M280.46067,104.67892c-0.0123,-0.69025 0.53728,-1.25977 1.22753,-1.27207c0.69025,-0.0123 1.25977,0.53728 1.27207,1.22753c0.0123,0.69025 -0.53728,1.25977 -1.22753,1.27207c-0.69025,0.0123 -1.25977,-0.53728 -1.27207,-1.22753z" fill="#2d7a1a" stroke="none" stroke-width="0.5" stroke-linecap="butt"/><path d="M287.92363,108.14652c-0.0123,-0.69025 0.53728,-1.25977 1.22753,-1.27207c0.69025,-0.0123 1.25977,0.53728 1.27207,1.22753c0.0123,0.69025 -0.53728,1.25977 -1.22753,1.27207c-0.69025,0.0123 -1.25977,-0.53728 -1.27207,-1.22753z" fill="#2d7a1a" stroke="none" stroke-width="0.5" stroke-linecap="butt"/><path d="M302.21445,101.89093c-0.0123,-0.69025 0.53728,-1.25977 1.22753,-1.27207c0.69025,-0.0123 1.25977,0.53728 1.27207,1.22753c0.0123,0.69025 -0.53728,1.25977 -1.22753,1.27207c-0.69025,0.0123 -1.25977,-0.53728 -1.27207,-1.22753z" fill="#2d7a1a" stroke="none" stroke-width="0.5" stroke-linecap="butt"/><path d="M330.85979,104.18098c-0.0123,-0.69025 0.53728,-1.25977 1.22753,-1.27207c0.69025,-0.0123 1.25977,0.53728 1.27207,1.22753c0.0123,0.69025 -0.53728,1.25977 -1.22753,1.27207c-0.69025,0.0123 -1.25977,-0.53728 -1.27207,-1.22753z" fill="#2d7a1a" stroke="none" stroke-width="0.5" stroke-linecap="butt"/><path d="M335.47688,105.09887c-0.0123,-0.69025 0.53728,-1.25977 1.22753,-1.27207c0.69025,-0.0123 1.25977,0.53728 1.27207,1.22753c0.0123,0.69025 -0.53728,1.25977 -1.22753,1.27207c-0.69025,0.0123 -1.25977,-0.53728 -1.27207,-1.22753z" fill="#2d7a1a" stroke="none" stroke-width="0.5" stroke-linecap="butt"/><path d="M350.4068,101.03225c-0.0123,-0.69025 0.53729,-1.25977 1.22754,-1.27207c0.69025,-0.0123 1.25977,0.53728 1.27207,1.22753c0.0123,0.69025 -0.53729,1.25977 -1.22754,1.27207c-0.69025,0.0123 -1.25977,-0.53728 -1.27207,-1.22753z" fill="#2d7a1a" stroke="none" stroke-width="0.5" stroke-linecap="butt"/><path d="M363.65459,103.59665c-0.0123,-0.69025 0.53728,-1.25977 1.22753,-1.27207c0.69025,-0.0123 1.25977,0.53728 1.27207,1.22753c0.0123,0.69025 -0.53728,1.25977 -1.22753,1.27207c-0.69025,0.0123 -1.25977,-0.53728 -1.27207,-1.22753z" fill="#2d7a1a" stroke="none" stroke-width="0.5" stroke-linecap="butt"/><path d="M257.52111,113.88905c-0.00738,-0.41415 0.32237,-0.75586 0.73652,-0.76324c0.41415,-0.00738 0.75586,0.32237 0.76324,0.73652c0.00738,0.41415 -0.32237,0.75586 -0.73652,0.76324c-0.41415,0.00738 -0.75586,-0.32237 -0.76324,-0.73652z" fill="#2d7a1a" stroke="none" stroke-width="0.5" stroke-linecap="butt"/><path d="M265.73049,114.34287c-0.00738,-0.41415 0.32237,-0.75586 0.73652,-0.76324c0.41415,-0.00738 0.75587,0.32238 0.76324,0.73652c0.00738,0.41415 -0.32237,0.75586 -0.73652,0.76324c-0.41415,0.00738 -0.75586,-0.32237 -0.76324,-0.73652z" fill="#2d7a1a" stroke="none" stroke-width="0.5" stroke-linecap="butt"/><path d="M272.72938,114.21817c-0.00738,-0.41415 0.32237,-0.75586 0.73652,-0.76324c0.41415,-0.00738 0.75586,0.32237 0.76324,0.73652c0.00738,0.41415 -0.32237,0.75586 -0.73652,0.76324c-0.41415,0.00738 -0.75586,-0.32237 -0.76324,-0.73652z" fill="#2d7a1a" stroke="none" stroke-width="0.5" stroke-linecap="butt"/><path d="M281.52442,113.86143c-0.00738,-0.41415 0.32238,-0.75587 0.73652,-0.76324c0.41415,-0.00738 0.75586,0.32237 0.76324,0.73652c0.00738,0.41415 -0.32237,0.75586 -0.73652,0.76324c-0.41415,0.00738 -0.75586,-0.32237 -0.76324,-0.73652z" fill="#2d7a1a" stroke="none" stroke-width="0.5" stroke-linecap="butt"/><path d="M296.11854,113.40136c-0.00738,-0.41415 0.32237,-0.75586 0.73652,-0.76324c0.41415,-0.00738 0.75586,0.32237 0.76324,0.73652c0.00738,0.41415 -0.32237,0.75586 -0.73652,0.76324c-0.41415,0.00738 -0.75586,-0.32237 -0.76324,-0.73652z" fill="#2d7a1a" stroke="none" stroke-width="0.5" stroke-linecap="butt"/><path d="M310.50557,112.54492c-0.00738,-0.41415 0.32237,-0.75586 0.73652,-0.76324c0.41415,-0.00738 0.75586,0.32237 0.76324,0.73652c0.00738,0.41415 -0.32237,0.75586 -0.73652,0.76324c-0.41415,0.00738 -0.75586,-0.32237 -0.76324,-0.73652z" fill="#2d7a1a" stroke="none" stroke-width="0.5" stroke-linecap="butt"/><path d="M320.30045,112.17036c-0.00738,-0.41415 0.32237,-0.75586 0.73652,-0.76324c0.41415,-0.00738 0.75586,0.32237 0.76324,0.73652c0.00738,0.41415 -0.32237,0.75586 -0.73652,0.76324c-0.41415,0.00738 -0.75586,-0.32237 -0.76324,-0.73652z" fill="#2d7a1a" stroke="none" stroke-width="0.5" stroke-linecap="butt"/><path d="M329.09905,112.01359c-0.00738,-0.41415 0.32237,-0.75586 0.73652,-0.76324c0.41415,-0.00738 0.75586,0.32237 0.76324,0.73652c0.00738,0.41415 -0.32237,0.75586 -0.73652,0.76324c-0.41415,0.00738 -0.75587,-0.32238 -0.76324,-0.73652z" fill="#2d7a1a" stroke="none" stroke-width="0.5" stroke-linecap="butt"/><path d="M340.31865,113.01387c-0.00738,-0.41415 0.32237,-0.75586 0.73652,-0.76324c0.41415,-0.00738 0.75586,0.32237 0.76324,0.73652c0.00738,0.41415 -0.32237,0.75586 -0.73652,0.76324c-0.41415,0.00738 -0.75586,-0.32237 -0.76324,-0.73652z" fill="#2d7a1a" stroke="none" stroke-width="0.5" stroke-linecap="butt"/><path d="M347.31754,112.88917c-0.00738,-0.41415 0.32237,-0.75586 0.73652,-0.76324c0.41415,-0.00738 0.75586,0.32237 0.76324,0.73652c0.00738,0.41415 -0.32237,0.75586 -0.73652,0.76324c-0.41415,0.00738 -0.75586,-0.32237 -0.76324,-0.73652z" fill="#2d7a1a" stroke="none" stroke-width="0.5" stroke-linecap="butt"/><path d="M358.71573,112.68607c-0.00738,-0.41415 0.32237,-0.75586 0.73652,-0.76324c0.41415,-0.00738 0.75586,0.32237 0.76324,0.73652c0.00738,0.41415 -0.32237,0.75586 -0.73652,0.76324c-0.41415,0.00738 -0.75586,-0.32237 -0.76324,-0.73652z" fill="#2d7a1a" stroke="none" stroke-width="0.5" stroke-linecap="butt"/><path d="M365.11472,112.57205c-0.00738,-0.41415 0.32237,-0.75586 0.73652,-0.76324c0.41415,-0.00738 0.75586,0.32237 0.76324,0.73652c0.00738,0.41415 -0.32237,0.75586 -0.73652,0.76324c-0.41415,0.00738 -0.75586,-0.32237 -0.76324,-0.73652z" fill="#2d7a1a" stroke="none" stroke-width="0.5" stroke-linecap="butt"/><path d="M255.04222,131.93608c-0.00738,-0.41415 0.32237,-0.75586 0.73652,-0.76324c0.41415,-0.00738 0.75586,0.32237 0.76324,0.73652c0.00738,0.41415 -0.32237,0.75586 -0.73652,0.76324c-0.41415,0.00738 -0.75587,-0.32238 -0.76324,-0.73652z" fill="#33965e" stroke="none" stroke-width="0.5" stroke-linecap="butt"/><path d="M264.58725,128.76553c-0.00738,-0.41415 0.32237,-0.75586 0.73652,-0.76324c0.41415,-0.00738 0.75586,0.32237 0.76324,0.73652c0.00738,0.41415 -0.32237,0.75586 -0.73652,0.76324c-0.41415,0.00738 -0.75586,-0.32237 -0.76324,-0.73652z" fill="#33965e" stroke="none" stroke-width="0.5" stroke-linecap="butt"/><path d="M274.85333,132.38321c-0.00738,-0.41415 0.32237,-0.75586 0.73652,-0.76324c0.41415,-0.00738 0.75586,0.32237 0.76324,0.73652c0.00738,0.41415 -0.32237,0.75586 -0.73652,0.76324c-0.41415,0.00738 -0.75586,-0.32237 -0.76324,-0.73652z" fill="#33965e" stroke="none" stroke-width="0.5" stroke-linecap="butt"/><path d="M297.94988,126.37079c-0.00738,-0.41415 0.32237,-0.75586 0.73652,-0.76324c0.41415,-0.00738 0.75586,0.32237 0.76324,0.73652c0.00738,0.41415 -0.32237,0.75586 -0.73652,0.76324c-0.41415,0.00738 -0.75586,-0.32237 -0.76324,-0.73652z" fill="#33965e" stroke="none" stroke-width="0.5" stroke-linecap="butt"/><path d="M317.95028,126.21446c-0.00738,-0.41415 0.32237,-0.75586 0.73652,-0.76324c0.41415,-0.00738 0.75586,0.32237 0.76324,0.73652c0.00738,0.41415 -0.32237,0.75586 -0.73652,0.76324c-0.41415,0.00738 -0.75586,-0.32237 -0.76324,-0.73652z" fill="#33965e" stroke="none" stroke-width="0.5" stroke-linecap="butt"/><path d="M327.83779,131.03908c-0.00738,-0.41415 0.32237,-0.75586 0.73652,-0.76324c0.41415,-0.00738 0.75586,0.32237 0.76324,0.73652c0.00738,0.41415 -0.32237,0.75586 -0.73652,0.76324c-0.41415,0.00738 -0.75586,-0.32237 -0.76324,-0.73652z" fill="#33965e" stroke="none" stroke-width="0.5" stroke-linecap="butt"/><path d="M347.14564,125.69426c-0.00738,-0.41415 0.32237,-0.75586 0.73652,-0.76324c0.41415,-0.00738 0.75586,0.32237 0.76324,0.73652c0.00738,0.41415 -0.32237,0.75586 -0.73652,0.76324c-0.41415,0.00738 -0.75586,-0.32237 -0.76324,-0.73652z" fill="#33965e" stroke="none" stroke-width="0.5" stroke-linecap="butt"/><path d="M337.34363,125.66888c-0.00738,-0.41415 0.32237,-0.75586 0.73652,-0.76324c0.41415,-0.00738 0.75586,0.32237 0.76324,0.73652c0.00738,0.41415 -0.32237,0.75586 -0.73652,0.76324c-0.41415,0.00738 -0.75586,-0.32237 -0.76324,-0.73652z" fill="#33965e" stroke="none" stroke-width="0.5" stroke-linecap="butt"/><path d="M356.55484,126.1267c-0.00738,-0.41415 0.32237,-0.75586 0.73652,-0.76324c0.41415,-0.00738 0.75586,0.32237 0.76324,0.73652c0.00738,0.41415 -0.32237,0.75586 -0.73652,0.76324c-0.41415,0.00738 -0.75586,-0.32237 -0.76324,-0.73652z" fill="#33965e" stroke="none" stroke-width="0.5" stroke-linecap="butt"/><path d="M372.6485,131.2408c-0.00738,-0.41415 0.32237,-0.75586 0.73652,-0.76324c0.41415,-0.00738 0.75586,0.32237 0.76324,0.73652c0.00738,0.41415 -0.32237,0.75586 -0.73652,0.76324c-0.41415,0.00738 -0.75586,-0.32237 -0.76324,-0.73652z" fill="#33965e" stroke="none" stroke-width="0.5" stroke-linecap="butt"/><path d="M260.93706,148.43368c-0.00738,-0.41415 0.32237,-0.75586 0.73652,-0.76324c0.41415,-0.00738 0.75586,0.32237 0.76324,0.73652c0.00738,0.41415 -0.32237,0.75586 -0.73652,0.76324c-0.41415,0.00738 -0.75586,-0.32237 -0.76324,-0.73652z" fill="#75f20f" stroke="none" stroke-width="0.5" stroke-linecap="butt"/><path d="M267.49326,145.91648c-0.00738,-0.41415 0.32237,-0.75586 0.73652,-0.76324c0.41415,-0.00738 0.75586,0.32237 0.76324,0.73652c0.00738,0.41415 -0.32237,0.75586 -0.73652,0.76324c-0.41415,0.00738 -0.75586,-0.32237 -0.76324,-0.73652z" fill="#75f20f" stroke="none" stroke-width="0.5" stroke-linecap="butt"/><path d="M270.35695,149.46603c-0.00738,-0.41415 0.32237,-0.75586 0.73652,-0.76324c0.41415,-0.00738 0.75586,0.32237 0.76324,0.73652c0.00738,0.41415 -0.32237,0.75586 -0.73652,0.76324c-0.41415,0.00738 -0.75586,-0.32237 -0.76324,-0.73652z" fill="#75f20f" stroke="none" stroke-width="0.5" stroke-linecap="butt"/><path d="M324.27712,144.50465c-0.00738,-0.41415 0.32237,-0.75586 0.73652,-0.76324c0.41415,-0.00738 0.75586,0.32237 0.76324,0.73652c0.00738,0.41415 -0.32237,0.75586 -0.73652,0.76324c-0.41415,0.00738 -0.75586,-0.32237 -0.76324,-0.73652z" fill="#75f20f" stroke="none" stroke-width="0.5" stroke-linecap="butt"/><path d="M378.04364,142.14642c-0.00738,-0.41415 0.32237,-0.75586 0.73652,-0.76324c0.41415,-0.00738 0.75587,0.32238 0.76324,0.73652c0.00738,0.41415 -0.32237,0.75586 -0.73652,0.76324c-0.41415,0.00738 -0.75586,-0.32237 -0.76324,-0.73652z" fill="#75f20f" stroke="none" stroke-width="0.5" stroke-linecap="butt"/><path d="M386.48506,144.39639c-0.00738,-0.41415 0.32237,-0.75586 0.73652,-0.76324c0.41415,-0.00738 0.75586,0.32237 0.76324,0.73652c0.00738,0.41415 -0.32237,0.75586 -0.73652,0.76324c-0.41415,0.00738 -0.75586,-0.32237 -0.76324,-0.73652z" fill="#75f20f" stroke="none" stroke-width="0.5" stroke-linecap="butt"/></g><path d="M280.74769,153.82497c-0.16811,-9.43501 7.34418,-17.21987 16.77918,-17.38799c9.43501,-0.16811 17.21988,7.34418 17.38799,16.7792c0.16811,9.43501 -7.34418,17.21988 -16.7792,17.38799c-9.43501,0.16811 -17.21986,-7.34418 -17.38797,-16.7792z" fill="none" stroke="#191919" stroke-width="5" stroke-linecap="butt"/><path d="M367.74056,153.25683c0.14786,8.29834 -6.45939,15.14533 -14.75772,15.29319c-8.29832,0.14786 -15.14532,-6.45942 -15.29317,-14.75774c-0.14786,-8.29834 6.45941,-15.14533 14.75773,-15.29319c8.29832,-0.14786 15.14531,6.45941 15.29317,14.75773z" fill="#191919" stroke="#000000" stroke-width="0" stroke-linecap="butt"/><path d="M288.63114,153.6845c-0.09054,-5.08109 3.95511,-9.27353 9.0362,-9.36407c5.08109,-0.09054 9.27353,3.95511 9.36406,9.03621c0.09054,5.08109 -3.95511,9.27353 -9.03621,9.36406c-5.08109,0.09054 -9.27353,-3.95511 -9.36406,-9.03621z" fill="none" stroke="#191919" stroke-width="5" stroke-linecap="butt"/></g></g></g></svg>