<svg version="1.1" xmlns="http://www.w3.org/2000/svg" xmlns:xlink="http://www.w3.org/1999/xlink" width="34.17311" height="34.17311" viewBox="0,0,34.17311,34.17311"><g transform="translate(-302.91345,-162.91346)"><g stroke-miterlimit="10"><path d="M309.98312,162.91347h20.03379c3.9166,0 7.06966,3.15307 7.06966,7.06966v20.03379c0,3.91659 -3.15306,7.06966 -7.06966,7.06966h-20.03379c-3.91659,0 -7.06966,-3.15307 -7.06966,-7.06966v-20.03379c0,-3.91659 3.15307,-7.06966 7.06966,-7.06966z" fill="#e6e6e6" fill-rule="evenodd" stroke="none" stroke-width="4.43922" stroke-linecap="round" stroke-linejoin="round"/><g fill-rule="nonzero" stroke-width="2.5" stroke-linejoin="miter"><g><path d="M320.77655,184.40773c0,0 3.95313,-18.76756 10.92436,-15.72797c6.97123,3.03958 -2.75046,19.29195 -2.75046,19.29195" fill="#ff7be1" stroke="#000000" stroke-linecap="round"/><path d="M331.05861,170.52221c2.30376,0.87364 1.44119,5.26751 0.09503,8.80705c-1.34616,3.53955 -2.94198,7.1407 -5.97711,5.75404c-2.18957,-1.00036 -1.44119,-4.53146 -0.09503,-8.07101c1.34616,-3.53955 3.51216,-7.42486 5.97711,-6.49008z" fill="#ffffff" stroke="none" stroke-linecap="butt"/></g><g><path d="M311.04955,187.97171c0,0 -9.72169,-16.25236 -2.75046,-19.29195c6.97123,-3.03958 10.92436,15.72797 10.92436,15.72797" fill="#ff7be1" stroke="#000000" stroke-linecap="round"/><path d="M314.91851,177.01229c1.34616,3.53955 2.09454,7.07066 -0.09503,8.07102c-3.03513,1.38666 -4.63095,-2.21449 -5.97711,-5.75404c-1.34616,-3.53955 -2.20873,-7.93341 0.09503,-8.80705c2.46495,-0.93478 4.63095,2.95053 5.97711,6.49008z" fill="#ffffff" stroke="none" stroke-linecap="butt"/></g><path d="M309.21052,191.58516c0,-5.60072 4.83685,-10.141 10.80341,-10.141c5.96656,0 10.80341,4.54028 10.80341,10.141c0,0.1111 -21.60682,0.06802 -21.60682,0z" fill="#ff7be1" stroke="#000000" stroke-linecap="butt"/><g><path d="M318.17714,182.02948c0.12603,1.23449 -1.58891,2.69651 -2.69227,1.64754c-0.24493,-0.35543 0.11807,-1.30686 0.11807,-1.30686c0,0 -0.58961,-1.08397 -0.39295,-1.49775c0.70567,-0.94995 2.84114,-0.07742 2.96717,1.15707z" fill="#ff2f80" stroke="#000000" stroke-linecap="butt"/><path d="M316.79208,181.43102l1.1499,0.58353l-0.8651,1.06182" fill="none" stroke="#e01a40" stroke-linecap="round"/><path d="M317.83423,182.10343l-0.65515,0.06688" fill="none" stroke="#e01a40" stroke-linecap="round"/><path d="M323.47455,180.02869c0.27622,0.36551 -0.08219,1.54626 -0.08219,1.54626c0,0 0.54775,0.85845 0.37971,1.25605c-0.86864,1.25029 -2.84362,0.16496 -2.96965,-1.06952c-0.12603,-1.23449 1.78907,-2.52053 2.67214,-1.73278z" fill="#ff2f80" stroke="#000000" stroke-linecap="butt"/><path d="M322.09153,182.56443l-1.06182,-0.8651l1.00826,-0.80386" fill="none" stroke="#e01a40" stroke-linecap="round"/><path d="M321.1532,181.7646l0.65516,-0.06689" fill="none" stroke="#e01a40" stroke-linecap="round"/><path d="M317.98119,180.5772c0.29912,-0.27783 2.49004,-0.37436 2.86668,-0.04116c0.28436,0.25156 0.43102,2.2168 -0.07922,2.55468c-0.26279,0.17401 -2.04501,0.41784 -2.35567,0.27691c-0.5274,-0.23925 -0.79455,-2.45349 -0.43179,-2.79043z" fill="#ff2f80" stroke="#000000" stroke-linecap="butt"/></g></g><g fill-rule="nonzero" stroke-linejoin="miter"><g stroke-width="0"><path d="M320.41391,184.19015c0,0 4.31577,-18.54998 11.287,-15.51039c6.97123,3.03958 -2.75046,19.29195 -2.75046,19.29195" fill="#e6e6e6" stroke="#000000" stroke-linecap="round"/><path d="M331.05861,170.52221c2.30376,0.87364 1.44119,5.26751 0.09503,8.80705c-1.34616,3.53955 -2.94198,7.1407 -5.97711,5.75404c-2.18957,-1.00036 -1.44119,-4.53146 -0.09503,-8.07101c1.34616,-3.53955 3.51216,-7.42486 5.97711,-6.49008z" fill="#ffffff" stroke="none" stroke-linecap="butt"/></g><g stroke-width="0"><path d="M311.04955,187.97171c0,0 -9.72169,-16.25236 -2.75046,-19.29195c6.97123,-3.03958 10.92436,15.72797 10.92436,15.72797" fill="#e6e6e6" stroke="#000000" stroke-linecap="round"/><path d="M314.91851,177.01229c1.34616,3.53955 2.09454,7.07066 -0.09503,8.07102c-3.03513,1.38666 -4.63095,-2.21449 -5.97711,-5.75404c-1.34616,-3.53955 -2.20873,-7.93341 0.09503,-8.80705c2.46495,-0.93478 4.63095,2.95053 5.97711,6.49008z" fill="#ffffff" stroke="none" stroke-linecap="butt"/></g><path d="M309.21052,191.58516c0,-5.60072 4.83685,-10.141 10.80341,-10.141c5.96656,0 10.80341,4.54028 10.80341,10.141c0,0.1111 -21.60682,0.06802 -21.60682,0z" fill="#e6e6e6" stroke="#000000" stroke-width="0" stroke-linecap="butt"/><g><path d="M318.17714,182.02948c0.12603,1.23449 -1.58891,2.69651 -2.69227,1.64754c-0.24493,-0.35543 0.11807,-1.30686 0.11807,-1.30686c0,0 -0.58961,-1.08397 -0.39295,-1.49775c0.70567,-0.94995 2.84114,-0.07742 2.96717,1.15707z" fill="#bbbbbb" stroke="#000000" stroke-width="0" stroke-linecap="butt"/><path d="M316.79208,181.43102l1.1499,0.58353l-0.8651,1.06182" fill="none" stroke="#7c7c7c" stroke-width="0.5" stroke-linecap="round"/><path d="M317.83423,182.10343l-0.65515,0.06688" fill="none" stroke="#7c7c7c" stroke-width="0.25" stroke-linecap="round"/><path d="M323.47455,180.02869c0.27622,0.36551 -0.08219,1.54626 -0.08219,1.54626c0,0 0.54775,0.85845 0.37971,1.25605c-0.86864,1.25029 -2.84362,0.16496 -2.96965,-1.06952c-0.12603,-1.23449 1.78907,-2.52053 2.67214,-1.73278z" fill="#bbbbbb" stroke="#000000" stroke-width="0" stroke-linecap="butt"/><path d="M322.09153,182.56443l-1.06182,-0.8651l1.00826,-0.80386" fill="none" stroke="#7c7c7c" stroke-width="0.5" stroke-linecap="round"/><path d="M321.1532,181.7646l0.65516,-0.06689" fill="none" stroke="#7c7c7c" stroke-width="0.25" stroke-linecap="round"/><path d="M317.98119,180.5772c0.29912,-0.27783 2.49004,-0.37436 2.86668,-0.04116c0.28436,0.25156 0.43102,2.2168 -0.07922,2.55468c-0.26279,0.17401 -2.04501,0.41784 -2.35567,0.27691c-0.5274,-0.23925 -0.79455,-2.45349 -0.43179,-2.79043z" fill="#bbbbbb" stroke="#000000" stroke-width="0" stroke-linecap="butt"/></g></g><path d="M306.94158,193.27212v-2.03077h25.23958v2.03077z" fill="#e6e6e6" fill-rule="nonzero" stroke="none" stroke-width="0" stroke-linecap="butt" stroke-linejoin="miter"/></g></g></svg>