<svg version="1.1" xmlns="http://www.w3.org/2000/svg" xmlns:xlink="http://www.w3.org/1999/xlink" width="34.17311" height="34.17311" viewBox="0,0,34.17311,34.17311"><g transform="translate(-302.91346,-162.91347)"><g stroke-miterlimit="10"><path d="M309.98312,162.91347h20.03379c3.9166,0 7.06966,3.15307 7.06966,7.06966v20.03379c0,3.91659 -3.15306,7.06966 -7.06966,7.06966h-20.03379c-3.91659,0 -7.06966,-3.15307 -7.06966,-7.06966v-20.03379c0,-3.91659 3.15307,-7.06966 7.06966,-7.06966z" fill="#ffde00" fill-rule="evenodd" stroke="none" stroke-width="4.43922" stroke-linecap="round" stroke-linejoin="round"/><g fill-rule="nonzero" stroke="#000000" stroke-width="2" stroke-linejoin="miter"><path d="M331.91115,176.23753v4.38385l-1.93778,-1.93778l-3.66908,3.66908l-0.74653,-0.74652l4.19324,-4.19324l1.71542,1.71541v-3.11316z" fill="#ffea61" stroke-linecap="round"/><path d="M331.20306,171.12305l3.4626,3.4626l-2.8908,0.22237l1.39774,3.17669l-5.01918,-4.19324l3.11316,-0.63534z" fill="#ffde00" stroke-linecap="round"/><path d="M308.74915,176.01517v3.11316l1.71541,-1.71541l4.19324,4.19324l-0.74652,0.74652l-3.66908,-3.66908l-1.93779,1.93778v-4.38385z" fill="#ffea61" stroke-linecap="round"/><path d="M308.94896,173.15614l3.11316,0.63534l-5.01918,4.19324l1.39774,-3.1767l-2.89079,-0.22237l3.4626,-3.4626z" fill="#ffde00" stroke-linecap="round"/><path d="M328.76233,186.30767c0,0 5.03217,1.76185 6.06483,2.1423c0.37497,0.13815 0.3394,0.29063 0.12575,0.29429c-1.70934,0.02929 -3.66899,0.04139 -5.37852,0.0563c-0.27069,0.00236 -0.54137,0.00472 -0.81206,0.00708z" fill="#ffb800" stroke-linecap="butt"/><path d="M311.86231,186.21236v2.64927c-2.08035,-0.00799 -4.32734,-0.01379 -6.40757,-0.00146c-0.32174,0.00191 -0.46334,-0.20852 0.0515,-0.3982c1.21297,-0.44688 6.35607,-2.24961 6.35607,-2.24961z" fill="#ffb800" stroke-linecap="butt"/><path d="M310.53647,188.20053c0,-4.96176 4.28503,-8.98405 9.57089,-8.98405c5.28586,0 9.57089,4.02229 9.57089,8.98405c0,0.20138 -0.00706,0.40123 -0.02096,0.59931c-0.02763,0.00024 -0.05527,0.00048 -0.0829,0.00072c-3.64725,0.0318 -7.29455,0.06387 -10.94193,0.07444c-2.69022,0.00779 -5.38056,-0.00968 -8.07083,-0.01794c-0.01668,-0.2168 -0.02517,-0.43574 -0.02517,-0.65653z" fill="#ffde00" stroke-linecap="butt"/><path d="M319.86758,179.31856v-5.52746l2.22369,4.38385l3.92322,-2.84315l-0.93713,4.908l2.63666,1.84248l-2.60489,0.28591" fill="#ffde00" stroke-linecap="round"/></g><path d="" fill="none" fill-rule="nonzero" stroke="#000000" stroke-width="2" stroke-linecap="round" stroke-linejoin="miter"/><g fill-rule="nonzero" stroke="#000000" stroke-width="0" stroke-linejoin="miter"><path d="M331.91115,176.23753v4.38384l-1.93779,-1.93779l-3.66908,3.66909l-0.74652,-0.74652l4.19324,-4.19324l1.71542,1.71542v-3.11316z" fill="#ffea61" stroke-linecap="round"/><path d="M331.20306,171.12305l3.4626,3.4626l-2.89079,0.22237l1.39775,3.1767l-5.01918,-4.19324l3.11316,-0.63534z" fill="#ffde00" stroke-linecap="round"/><path d="M308.74914,176.01516v3.11316l1.71542,-1.71542l4.19324,4.19324l-0.74652,0.74652l-3.66908,-3.66908l-1.93779,1.93779v-4.38384z" fill="#ffea61" stroke-linecap="round"/><path d="M308.94896,173.15614l3.11316,0.63534l-5.01918,4.19324l1.39775,-3.1767l-2.89079,-0.22237l3.4626,-3.4626z" fill="#ffde00" stroke-linecap="round"/><path d="M328.76234,186.30766l6.58151,2.42477c-1.9229,0.03814 -3.84625,0.05136 -5.76946,0.06813c-0.27068,0.00236 -0.54137,0.00472 -0.81205,0.00708z" fill="#ffb800" stroke-linecap="butt"/><path d="M311.86231,186.21236v2.64926c-2.40211,-0.00922 -4.80419,-0.01553 -7.20613,0.00563z" fill="#ffb800" stroke-linecap="butt"/><path d="M310.53647,188.20053c0,-4.96175 4.28503,-8.98405 9.57089,-8.98405c5.28586,0 9.57089,4.0223 9.57089,8.98405c0,0.20139 -0.00706,0.40123 -0.02096,0.59931c-0.02763,0.00024 -0.05527,0.00048 -0.0829,0.00072c-3.64725,0.03181 -7.29455,0.06387 -10.94193,0.07443c-2.69022,0.0078 -5.38055,-0.00968 -8.07083,-0.01793c-0.01668,-0.2168 -0.02517,-0.43574 -0.02517,-0.65653z" fill="#ffde00" stroke-linecap="butt"/><path d="M319.86758,179.31856v-5.52745l2.22369,4.38384l3.92322,-2.84314l-0.93713,4.908l2.63666,1.84248l-2.60489,0.2859" fill="#ffde00" stroke-linecap="round"/></g><path d="M303.87282,191.09985v-2.41667h32.41667v2.41667z" fill="#ffde00" fill-rule="nonzero" stroke="none" stroke-width="0" stroke-linecap="butt" stroke-linejoin="miter"/></g></g></svg>