<svg version="1.1" xmlns="http://www.w3.org/2000/svg" xmlns:xlink="http://www.w3.org/1999/xlink" width="34.17311" height="34.17311" viewBox="0,0,34.17311,34.17311"><g transform="translate(-302.91346,-162.91348)"><g stroke-miterlimit="10"><path d="" fill="#babebf" fill-rule="nonzero" stroke="#000000" stroke-width="2.5" stroke-linecap="butt" stroke-linejoin="miter"/><path d="" fill="#ffc633" fill-rule="nonzero" stroke="#000000" stroke-width="2.5" stroke-linecap="butt" stroke-linejoin="miter"/><path d="M309.98312,162.91348h20.03379c3.9166,0 7.06966,3.15307 7.06966,7.06966v20.03379c0,3.91659 -3.15306,7.06966 -7.06966,7.06966h-20.03379c-3.91659,0 -7.06966,-3.15307 -7.06966,-7.06966v-20.03379c0,-3.91659 3.15307,-7.06966 7.06966,-7.06966z" fill="#e00d0d" fill-rule="evenodd" stroke="none" stroke-width="4.43922" stroke-linecap="round" stroke-linejoin="round"/><path d="" fill="#babebf" fill-rule="nonzero" stroke="#000000" stroke-width="0" stroke-linecap="butt" stroke-linejoin="miter"/><path d="M318.66322,176.67375l1.37794,-4.17104l1.45241,4.17104z" fill="#bb1919" fill-rule="nonzero" stroke="#000000" stroke-width="2" stroke-linecap="butt" stroke-linejoin="miter"/><path d="M328.02573,181.51246c-0.70378,-1.03815 -0.74279,-2.43125 -0.74279,-2.43125l6.47861,-1.67853l-3.60517,5.7183c0,0 -1.38149,-0.50342 -2.13065,-1.60851z" fill="#bb1919" fill-rule="nonzero" stroke="#000000" stroke-width="2" stroke-linecap="butt" stroke-linejoin="miter"/><path d="M309.84362,183.12097l-3.60517,-5.7183l6.47861,1.67853c0,0 -0.03902,1.3931 -0.7428,2.43125c-0.74916,1.10509 -2.13065,1.60851 -2.13065,1.60851z" fill="#bb1919" fill-rule="nonzero" stroke="#000000" stroke-width="2" stroke-linecap="butt" stroke-linejoin="miter"/><path d="M308.78859,186.71396c0,-5.81683 5.02348,-10.5323 11.22027,-10.5323c6.19678,0 11.22027,4.71547 11.22027,10.5323c0,0.3185 -0.01506,0.82651 -0.04455,1.13782c-7.44873,0.01477 -14.8975,-0.15196 -22.34621,-0.13928c-0.03293,-0.32869 -0.04977,-0.66176 -0.04977,-0.99854z" fill="#e00d0d" fill-rule="nonzero" stroke="#000000" stroke-width="2" stroke-linecap="butt" stroke-linejoin="miter"/><path d="M313.34931,179.41032c-0.48267,-0.52029 -1.57798,-1.8506 -1.35202,-2.99547c0.28501,-1.44404 1.38596,-4.26756 1.38596,-4.26756c0,0 0.64732,2.79724 1.26911,3.83438c0.29659,0.49471 1.0982,1.11282 1.62717,1.48755c0.28859,0.20445 -0.35147,1.27115 -1.02361,1.7164c-0.67214,0.44525 -1.77399,0.36765 -1.90661,0.22469z" fill="#bb1919" fill-rule="nonzero" stroke="#000000" stroke-width="2" stroke-linecap="butt" stroke-linejoin="miter"/><path d="M324.74409,179.18562c-0.67214,-0.44525 -1.3122,-1.51195 -1.02361,-1.7164c0.52897,-0.37473 1.33059,-0.99283 1.62717,-1.48755c0.62178,-1.03714 1.2691,-3.83438 1.2691,-3.83438c0,0 1.10095,2.82352 1.38596,4.26756c0.22596,1.14486 -0.86935,2.47518 -1.35202,2.99547c-0.13262,0.14296 -1.23447,0.22056 -1.90661,-0.22469z" fill="#bb1919" fill-rule="nonzero" stroke="#000000" stroke-width="2" stroke-linecap="butt" stroke-linejoin="miter"/><path d="M318.66322,176.67375l1.37793,-4.17104l1.45242,4.17104z" fill="#bb1919" fill-rule="nonzero" stroke="#000000" stroke-width="0" stroke-linecap="butt" stroke-linejoin="miter"/><path d="M328.02573,181.51246c-0.70378,-1.03815 -0.74279,-2.43126 -0.74279,-2.43126l6.47861,-1.67853l-3.60517,5.7183c0,0 -1.38149,-0.50342 -2.13065,-1.60851z" fill="#bb1919" fill-rule="nonzero" stroke="#000000" stroke-width="0" stroke-linecap="butt" stroke-linejoin="miter"/><path d="M309.84362,183.12097l-3.60517,-5.7183l6.47861,1.67853c0,0 -0.03902,1.3931 -0.7428,2.43126c-0.74916,1.10509 -2.13065,1.60851 -2.13065,1.60851z" fill="#bb1919" fill-rule="nonzero" stroke="#000000" stroke-width="0" stroke-linecap="butt" stroke-linejoin="miter"/><path d="M308.78859,186.71396c0,-5.81683 5.02349,-10.5323 11.22027,-10.5323c6.19678,0 11.22027,4.71547 11.22027,10.5323c0,0.3185 -0.01506,0.82651 -0.04455,1.13782c-7.44873,0.01477 -14.8975,-0.15196 -22.34621,-0.13928c-0.03293,-0.32869 -0.04977,-0.66176 -0.04977,-0.99853z" fill="#e00d0d" fill-rule="nonzero" stroke="#000000" stroke-width="0" stroke-linecap="butt" stroke-linejoin="miter"/><path d="M313.34931,179.41032c-0.48267,-0.52029 -1.57799,-1.8506 -1.35202,-2.99547c0.28502,-1.44404 1.38596,-4.26756 1.38596,-4.26756c0,0 0.64732,2.79725 1.26911,3.83439c0.29659,0.49471 1.0982,1.11281 1.62717,1.48754c0.2886,0.20445 -0.35147,1.27115 -1.0236,1.7164c-0.67214,0.44525 -1.77399,0.36765 -1.90661,0.2247z" fill="#bb1919" fill-rule="nonzero" stroke="#000000" stroke-width="0" stroke-linecap="butt" stroke-linejoin="miter"/><path d="M324.74408,179.18562c-0.67214,-0.44525 -1.3122,-1.51195 -1.0236,-1.7164c0.52897,-0.37473 1.33058,-0.99283 1.62717,-1.48754c0.62179,-1.03714 1.2691,-3.83439 1.2691,-3.83439c0,0 1.10094,2.82352 1.38596,4.26756c0.22597,1.14486 -0.86935,2.47518 -1.35202,2.99547c-0.13262,0.14296 -1.23447,0.22055 -1.90661,-0.2247z" fill="#bb1919" fill-rule="nonzero" stroke="#000000" stroke-width="0" stroke-linecap="butt" stroke-linejoin="miter"/><path d="M306.47097,190.9316v-3.42857h27.28571v3.42857z" fill="#e00d0d" fill-rule="nonzero" stroke="none" stroke-width="0" stroke-linecap="butt" stroke-linejoin="miter"/></g></g></svg>