<svg version="1.1" xmlns="http://www.w3.org/2000/svg" xmlns:xlink="http://www.w3.org/1999/xlink" width="34.17311" height="34.17311" viewBox="0,0,34.17311,34.17311"><g transform="translate(-302.91345,-162.91346)"><g stroke-miterlimit="10"><path d="M309.98312,162.91347h20.03379c3.9166,0 7.06966,3.15307 7.06966,7.06966v20.03379c0,3.91659 -3.15306,7.06966 -7.06966,7.06966h-20.03379c-3.91659,0 -7.06966,-3.15307 -7.06966,-7.06966v-20.03379c0,-3.91659 3.15307,-7.06966 7.06966,-7.06966z" fill="#ffca15" fill-rule="evenodd" stroke="none" stroke-width="4.43922" stroke-linecap="round" stroke-linejoin="round"/><path d="M309.21534,184.15719l-2.1648,-4.69919l-1.7424,1.5312l-0.264,-4.8576" fill="none" fill-rule="nonzero" stroke="#000000" stroke-width="2" stroke-linecap="round" stroke-linejoin="miter"/><path d="M304.55704,175.70921c0,-0.26902 0.21808,-0.48711 0.4871,-0.48711c0.26902,0 0.4871,0.21809 0.4871,0.48711c0,0.26902 -0.21808,0.48711 -0.4871,0.48711c-0.26902,0 -0.4871,-0.21809 -0.4871,-0.48711z" fill="#000000" fill-rule="nonzero" stroke="#000000" stroke-width="2" stroke-linecap="butt" stroke-linejoin="miter"/><path d="M334.31643,184.3156c0.47126,0 0.88596,0.36554 1.12653,0.91907c-0.75142,0.00057 -1.50284,0.00151 -2.25426,0.00279c0.24037,-0.55509 0.65568,-0.92186 1.12773,-0.92186z" fill="#ffca15" fill-rule="nonzero" stroke="#000000" stroke-width="2" stroke-linecap="butt" stroke-linejoin="miter"/><path d="M309.45294,184.3156c0.51163,0 0.9566,0.43086 1.18444,1.06536c-0.79282,0.00867 -1.58564,0.01772 -2.37844,0.02713c0.22478,-0.64932 0.67512,-1.09249 1.194,-1.09249z" fill="#ffca15" fill-rule="nonzero" stroke="#000000" stroke-width="2" stroke-linecap="butt" stroke-linejoin="miter"/><path d="M321.88205,174.5243c6.59567,0 12.02438,4.69009 12.70759,10.71118c-8.47775,0.00952 -16.95546,0.06442 -25.43239,0.16209c0.60328,-6.0988 6.07005,-10.87327 12.7248,-10.87327z" fill="#ffca15" fill-rule="nonzero" stroke="#000000" stroke-width="2" stroke-linecap="butt" stroke-linejoin="miter"/><path d="M309.15727,181.042c0,-0.49352 0.19917,-0.96283 0.48047,-0.96283c1.81912,0 20.46865,0 24.28797,0c0.43815,0 0.68112,0.41154 0.68112,0.85722c0,0.61353 0,2.37473 0,4.29906c-8.48347,0.00947 -16.96691,0.06438 -25.44956,0.16212c0,-1.92723 0,-3.71047 0,-4.35557z" fill="#ffca15" fill-rule="nonzero" stroke="#000000" stroke-width="2" stroke-linecap="butt" stroke-linejoin="miter"/><path d="M309.97567,181.57193c0,-0.43954 0.18678,-0.85752 0.45056,-0.85752c1.70589,0 19.19467,0 22.77627,0c0.41088,0 0.63873,0.36653 0.63873,0.76346c0,0.53895 0,2.07225 0,3.75855c-7.95545,0.01144 -15.91084,0.06278 -23.86557,0.15184c0,-1.69225 0,-3.24882 0,-3.81634z" fill="#000000" fill-rule="nonzero" stroke="#000000" stroke-width="2" stroke-linecap="butt" stroke-linejoin="miter"/><path d="M309.21534,184.15719l-2.1648,-4.69919l-1.7424,1.5312l-0.264,-4.8576" fill="none" fill-rule="nonzero" stroke="#000000" stroke-width="2" stroke-linecap="round" stroke-linejoin="miter"/><path d="M304.55704,175.70921c0,-0.26902 0.21808,-0.48711 0.4871,-0.48711c0.26902,0 0.4871,0.21809 0.4871,0.48711c0,0.26902 -0.21808,0.48711 -0.4871,0.48711c-0.26902,0 -0.4871,-0.21809 -0.4871,-0.48711z" fill="#000000" fill-rule="nonzero" stroke="#000000" stroke-width="2" stroke-linecap="butt" stroke-linejoin="miter"/><path d="M334.31643,184.45084c0.47126,0 0.88596,0.36554 1.12653,0.91907c-0.75142,0.00057 -1.50284,0.00151 -2.25426,0.00279c0.24037,-0.55509 0.65568,-0.92186 1.12773,-0.92186z" fill="#ffca15" fill-rule="nonzero" stroke="#000000" stroke-width="2" stroke-linecap="butt" stroke-linejoin="miter"/><path d="M309.45294,184.38322c0.51163,0 0.9566,0.43086 1.18444,1.06536c-0.79282,0.00867 -1.58564,0.01772 -2.37844,0.02713c0.22478,-0.64932 0.67512,-1.09249 1.194,-1.09249z" fill="#ffca15" fill-rule="nonzero" stroke="#000000" stroke-width="2" stroke-linecap="butt" stroke-linejoin="miter"/><path d="M321.88205,174.5243c6.59567,0 12.02438,4.84948 12.70759,10.87057c-8.47775,0.00952 -16.95546,-0.09497 -25.43239,0.0027c0.60328,-6.0988 6.07005,-10.87327 12.7248,-10.87327z" fill="#ffca15" fill-rule="nonzero" stroke="#000000" stroke-width="2" stroke-linecap="butt" stroke-linejoin="miter"/><path d="M309.15727,181.042c0,-0.49352 0.19917,-0.96283 0.48047,-0.96283c1.81912,0 20.46865,0 24.28797,0c0.43815,0 0.68112,0.41154 0.68112,0.85722c0,0.61353 0,2.37473 0,4.29906c-8.48347,0.00947 -16.96691,0.06438 -25.44956,0.16212c0,-1.92723 0,-3.71047 0,-4.35557z" fill="#ffca15" fill-rule="nonzero" stroke="#000000" stroke-width="2" stroke-linecap="butt" stroke-linejoin="miter"/><path d="M309.97567,181.57193c0,-0.43954 0.18678,-0.85752 0.45056,-0.85752c1.70589,0 19.19467,0 22.77627,0c0.41088,0 0.63873,0.36653 0.63873,0.76346c0,0.53895 0,2.27512 0,3.96142c-7.95545,0.01144 -15.91084,-0.07247 -23.86557,0.0166c0,-1.69225 0,-3.31645 0,-3.88397z" fill="#000000" fill-rule="nonzero" stroke="#000000" stroke-width="2" stroke-linecap="butt" stroke-linejoin="miter"/><path d="M309.21534,184.15719l-2.1648,-4.69919l-1.7424,1.5312l-0.264,-4.8576" fill="none" fill-rule="nonzero" stroke="#000000" stroke-width="1" stroke-linecap="round" stroke-linejoin="miter"/><path d="M304.55704,175.70921c0,-0.26902 0.21808,-0.48711 0.4871,-0.48711c0.26902,0 0.4871,0.21809 0.4871,0.48711c0,0.26902 -0.21808,0.48711 -0.4871,0.48711c-0.26902,0 -0.4871,-0.21809 -0.4871,-0.48711z" fill="#000000" fill-rule="nonzero" stroke="#000000" stroke-width="1" stroke-linecap="butt" stroke-linejoin="miter"/><path d="M334.31643,184.3156c0.47126,0 0.88596,0.36554 1.12653,0.91907c-0.75142,0.00057 -1.50284,0.00151 -2.25426,0.00279c0.24037,-0.55509 0.65568,-0.92186 1.12773,-0.92186z" fill="#ffca15" fill-rule="nonzero" stroke="#000000" stroke-width="0" stroke-linecap="butt" stroke-linejoin="miter"/><path d="M309.45294,184.3156c0.51163,0 0.9566,0.43086 1.18444,1.06536c-0.79282,0.00867 -1.58564,0.01772 -2.37844,0.02713c0.22478,-0.64932 0.67512,-1.09249 1.194,-1.09249z" fill="#ffca15" fill-rule="nonzero" stroke="#000000" stroke-width="0" stroke-linecap="butt" stroke-linejoin="miter"/><path d="M321.88205,174.5243c6.59567,0 12.02438,4.69009 12.70759,10.71118c-8.47775,0.00952 -16.95546,0.06442 -25.43239,0.16209c0.60328,-6.0988 6.07005,-10.87327 12.7248,-10.87327z" fill="#ffca15" fill-rule="nonzero" stroke="#000000" stroke-width="0" stroke-linecap="butt" stroke-linejoin="miter"/><path d="M309.15727,181.042c0,-0.49352 0.19917,-0.96283 0.48047,-0.96283c1.81912,0 20.46865,0 24.28797,0c0.43815,0 0.68112,0.41154 0.68112,0.85722c0,0.61353 0,2.37473 0,4.29906c-8.48347,0.00947 -16.96691,0.06438 -25.44956,0.16212c0,-1.92723 0,-3.71047 0,-4.35557z" fill="#ffca15" fill-rule="nonzero" stroke="#000000" stroke-width="0" stroke-linecap="butt" stroke-linejoin="miter"/><path d="M309.97567,181.57193c0,-0.43954 0.18678,-0.85752 0.45056,-0.85752c1.70589,0 19.19467,0 22.77627,0c0.41088,0 0.63873,0.36653 0.63873,0.76346c0,0.53895 0,2.07225 0,3.75855c-7.95545,0.01144 -15.91084,0.06278 -23.86557,0.15184c0,-1.69225 0,-3.24882 0,-3.81634z" fill="#000000" fill-rule="nonzero" stroke="#000000" stroke-width="0" stroke-linecap="butt" stroke-linejoin="miter"/><path d="M309.21534,184.15719l-2.1648,-4.69919l-1.7424,1.5312l-0.264,-4.8576" fill="none" fill-rule="nonzero" stroke="#000000" stroke-width="1" stroke-linecap="round" stroke-linejoin="miter"/><path d="M304.55704,175.70921c0,-0.26902 0.21808,-0.48711 0.4871,-0.48711c0.26902,0 0.4871,0.21809 0.4871,0.48711c0,0.26902 -0.21808,0.48711 -0.4871,0.48711c-0.26902,0 -0.4871,-0.21809 -0.4871,-0.48711z" fill="#000000" fill-rule="nonzero" stroke="#000000" stroke-width="1" stroke-linecap="butt" stroke-linejoin="miter"/><path d="M334.31643,184.45084c0.47126,0 0.88596,0.36554 1.12653,0.91907c-0.75142,0.00057 -1.50284,0.00151 -2.25426,0.00279c0.24037,-0.55509 0.65568,-0.92186 1.12773,-0.92186z" fill="#ffca15" fill-rule="nonzero" stroke="#000000" stroke-width="0" stroke-linecap="butt" stroke-linejoin="miter"/><path d="M309.45294,184.38322c0.51163,0 0.9566,0.43086 1.18444,1.06536c-0.79282,0.00867 -1.58564,0.01772 -2.37844,0.02713c0.22478,-0.64932 0.67512,-1.09249 1.194,-1.09249z" fill="#ffca15" fill-rule="nonzero" stroke="#000000" stroke-width="0" stroke-linecap="butt" stroke-linejoin="miter"/><path d="M321.88205,174.5243c6.59567,0 12.02438,4.84948 12.70759,10.87057c-8.47775,0.00952 -16.95546,-0.09497 -25.43239,0.0027c0.60328,-6.0988 6.07005,-10.87327 12.7248,-10.87327z" fill="#ffca15" fill-rule="nonzero" stroke="#000000" stroke-width="0" stroke-linecap="butt" stroke-linejoin="miter"/><path d="M309.15727,181.042c0,-0.49352 0.19917,-0.96283 0.48047,-0.96283c1.81912,0 20.46865,0 24.28797,0c0.43815,0 0.68112,0.41154 0.68112,0.85722c0,0.61353 0,2.37473 0,4.29906c-8.48347,0.00947 -16.96691,0.06438 -25.44956,0.16212c0,-1.92723 0,-3.71047 0,-4.35557z" fill="#ffca15" fill-rule="nonzero" stroke="#000000" stroke-width="0" stroke-linecap="butt" stroke-linejoin="miter"/><path d="M309.97567,181.57193c0,-0.43954 0.18678,-0.85752 0.45056,-0.85752c1.70589,0 19.19467,0 22.77627,0c0.41088,0 0.63873,0.36653 0.63873,0.76346c0,0.53895 0,2.27512 0,3.96142c-7.95545,0.01144 -15.91084,-0.07247 -23.86557,0.01659c0,-1.69225 0,-3.31644 0,-3.88397z" fill="#000000" fill-rule="nonzero" stroke="#000000" stroke-width="0" stroke-linecap="butt" stroke-linejoin="miter"/><path d="M304.78829,190.2745v-4.90403h32.28486v4.90403z" fill="#ffca15" fill-rule="nonzero" stroke="none" stroke-width="0" stroke-linecap="butt" stroke-linejoin="miter"/></g></g></svg>