<svg version="1.1" xmlns="http://www.w3.org/2000/svg" xmlns:xlink="http://www.w3.org/1999/xlink" width="213.18203" height="280.18475" viewBox="0,0,213.18203,280.18475"><g transform="translate(-214.52362,-38.88752)"><g stroke-miterlimit="10"><g><path d="M291.52221,219.05856l-5.38698,-3.59132l7.7812,-14.36529l52.97199,-2.09494l9.27757,19.15371l-5.0877,2.69349l3.59132,9.87614l-4.78843,-0.89783c0,0 -18.8293,5.6049 -27.52496,5.55938c-10.13651,-0.05307 -29.6369,-5.85866 -29.6369,-5.85866l-6.58409,-3.29205l2.99277,-5.38698z" fill="#251375" stroke="#000000" stroke-width="0" stroke-linecap="round"/><g stroke-linecap="butt"><path d="M286.35186,319.07226l15.14285,-131.8421l37.78325,-0.15789l13.57389,132z" fill="#1c19ee" stroke="#000000" stroke-width="0"/><path d="M292.44624,265.508c2.68827,-23.40563 9.04847,-78.27784 9.04847,-78.27784l37.78325,-0.15789c0,0 5.71636,55.07295 8.12401,78.48629c0.01436,0.13966 -54.97581,0.12422 -54.95573,-0.05056z" fill="#1815bf" stroke="#000000" stroke-width="0"/><path d="M293.56364,256.29001c2.58099,-22.4716 8.53049,-69.05985 8.53049,-69.05985l37.78325,-0.15789c0,0 4.24282,47.05732 6.5846,69.83005c0.00407,0.03958 -52.91685,-0.45117 -52.89834,-0.61231z" fill="#1c0072" stroke="#000000" stroke-width="0"/><path d="M294.20505,245.4867c2.36047,-20.55158 7.28967,-58.25653 7.28967,-58.25653l37.78325,-0.15789c0,0 3.98836,38.78497 6.13101,59.62138c0.01596,0.15516 -51.22768,-1.0002 -51.20393,-1.20695z" fill="#110042" stroke="#000000" stroke-width="0"/><path d="M297.31707,243.63711c0.9665,0 1.75,0.7835 1.75,1.75c0,0.9665 -0.7835,1.75 -1.75,1.75c-0.30408,0 -0.59004,-0.07755 -0.83919,-0.21396c-0.24915,0.13641 -0.53511,0.21396 -0.83919,0.21396c-0.9665,0 -1.75,-0.7835 -1.75,-1.75c0,-0.9665 0.7835,-1.75 1.75,-1.75c0.30408,0 0.59004,0.07755 0.83919,0.21396c0.24915,-0.13641 0.53511,-0.21396 0.83919,-0.21396z" fill="#110042" stroke="none" stroke-width="0.5"/><path d="M304.86977,247.59618c-0.26262,0 -0.50632,-0.08099 -0.70749,-0.21934c-0.00394,0.00003 -0.00787,0.00004 -0.01182,0.00004c-0.66142,0 -1.23714,-0.36694 -1.53469,-0.90836c-0.31293,0.47499 -0.85106,0.78847 -1.46241,0.78847c-0.9665,0 -1.75,-0.7835 -1.75,-1.75c0,-0.9665 0.7835,-1.75 1.75,-1.75c0.66142,0 1.23714,0.36694 1.53469,0.90836c0.31293,-0.47499 0.85106,-0.78847 1.46241,-0.78847c0.47768,0 0.91066,0.19139 1.22644,0.50167c0.21217,-0.09139 0.44602,-0.14201 0.6917,-0.14201c0.9665,0 1.75,0.7835 1.75,1.75c0,0.9665 -0.7835,1.75 -1.75,1.75c-0.29401,0 -0.57108,-0.0725 -0.81432,-0.20061c-0.12114,0.03912 -0.25036,0.06026 -0.38452,0.06026z" fill="#110042" stroke="none" stroke-width="0.5"/><path d="M309.25433,248.26433c0,-0.24704 0.07166,-0.47734 0.19533,-0.67124c-0.62073,-0.2689 -1.05498,-0.88701 -1.05498,-1.60655c0,-0.9665 0.7835,-1.75 1.75,-1.75c0.9665,0 1.75,0.7835 1.75,1.75c0,0.52353 -0.22989,0.99337 -0.59423,1.31407c0.27723,0.22928 0.45388,0.57587 0.45388,0.96373c0,0.69036 -0.55964,1.25 -1.25,1.25c-0.69036,0 -1.25,-0.55964 -1.25,-1.25z" fill="#110042" stroke="none" stroke-width="0.5"/><path d="M312.23096,246.34618c0,-0.9665 0.7835,-1.75 1.75,-1.75c0.9665,0 1.75,0.7835 1.75,1.75c0,0.9665 -0.7835,1.75 -1.75,1.75c-0.9665,0 -1.75,-0.7835 -1.75,-1.75z" fill="#110042" stroke="none" stroke-width="0.5"/><path d="M316.54679,246.70583c0,-0.9665 0.7835,-1.75 1.75,-1.75c0.9665,0 1.75,0.7835 1.75,1.75c0,0.9665 -0.7835,1.75 -1.75,1.75c-0.9665,0 -1.75,-0.7835 -1.75,-1.75z" fill="#110042" stroke="none" stroke-width="0.5"/><path d="M321.00297,247.90467c0,-0.33427 0.13121,-0.6379 0.34494,-0.86219c0.0727,-0.89967 0.82586,-1.60712 1.74425,-1.60712c0.9665,0 1.75,0.7835 1.75,1.75c0,0.9665 -0.7835,1.75 -1.75,1.75c-0.04215,0 -0.08396,-0.00149 -0.12537,-0.00442c-0.20238,0.14103 -0.44844,0.22373 -0.71382,0.22373c-0.69036,0 -1.25,-0.55964 -1.25,-1.25z" fill="#110042" stroke="none" stroke-width="0.5"/><path d="M324.8188,247.66491c0,-0.9665 0.7835,-1.75 1.75,-1.75c0.9665,0 1.75,0.7835 1.75,1.75c0,0.9665 -0.7835,1.75 -1.75,1.75c-0.9665,0 -1.75,-0.7835 -1.75,-1.75z" fill="#110042" stroke="none" stroke-width="0.5"/><path d="M292.68985,257.01587c0,-0.9665 0.7835,-1.75 1.75,-1.75c0.9665,0 1.75,0.7835 1.75,1.75c0,0.9665 -0.7835,1.75 -1.75,1.75c-0.9665,0 -1.75,-0.7835 -1.75,-1.75z" fill="#1c0072" stroke="none" stroke-width="0.5"/><path d="M297.00568,256.65621c0,-0.9665 0.7835,-1.75 1.75,-1.75c0.9665,0 1.75,0.7835 1.75,1.75c0,0.9665 -0.7835,1.75 -1.75,1.75c-0.9665,0 -1.75,-0.7835 -1.75,-1.75z" fill="#1c0072" stroke="none" stroke-width="0.5"/><path d="M302.52035,256.65621c0,-0.9665 0.7835,-1.75 1.75,-1.75c0.9665,0 1.75,0.7835 1.75,1.75c0,0.9665 -0.7835,1.75 -1.75,1.75c-0.9665,0 -1.75,-0.7835 -1.75,-1.75z" fill="#1c0072" stroke="none" stroke-width="0.5"/><path d="M312.90201,256.12552c0.69036,0 1.25,0.55964 1.25,1.25c0,0.69036 -0.55964,1.25 -1.25,1.25c-0.29701,0 -0.56983,-0.10359 -0.78429,-0.27661c-0.30541,0.26003 -0.70131,0.41696 -1.13385,0.41696c-0.9665,0 -1.75,-0.7835 -1.75,-1.75c0,-0.9665 0.7835,-1.75 1.75,-1.75c0.6653,0 1.24389,0.37126 1.5399,0.9179c0.11932,-0.03784 0.2464,-0.05825 0.37825,-0.05825z" fill="#1c0072" stroke="none" stroke-width="0.5"/><path d="M315.96784,259.29366c0,-0.53514 0.33628,-0.99174 0.80906,-1.17001c-0.14641,-0.25582 -0.2301,-0.55215 -0.2301,-0.86802c0,-0.9665 0.7835,-1.75 1.75,-1.75c0.9665,0 1.75,0.7835 1.75,1.75c0,0.92058 -0.71082,1.67514 -1.61355,1.74476c0.02262,0.09406 0.03459,0.19227 0.03459,0.29327c0,0.69036 -0.55964,1.25 -1.25,1.25c-0.69036,0 -1.25,-0.55964 -1.25,-1.25z" fill="#1c0072" stroke="none" stroke-width="0.5"/><path d="M320.98251,257.37552c0,-0.9665 0.7835,-1.75 1.75,-1.75c0.9665,0 1.75,0.7835 1.75,1.75c0,0.9665 -0.7835,1.75 -1.75,1.75c-0.9665,0 -1.75,-0.7835 -1.75,-1.75z" fill="#1c0072" stroke="none" stroke-width="0.5"/><path d="M327.21648,257.61529c0,-0.9665 0.7835,-1.75 1.75,-1.75c0.9665,0 1.75,0.7835 1.75,1.75c0,0.9665 -0.7835,1.75 -1.75,1.75c-0.9665,0 -1.75,-0.7835 -1.75,-1.75z" fill="#1c0072" stroke="none" stroke-width="0.5"/><path d="M333.45045,257.73517c0,-0.9665 0.7835,-1.75 1.75,-1.75c0.9665,0 1.75,0.7835 1.75,1.75c0,0.9665 -0.7835,1.75 -1.75,1.75c-0.9665,0 -1.75,-0.7835 -1.75,-1.75z" fill="#1c0072" stroke="none" stroke-width="0.5"/><path d="M338.91686,259.70448c-0.6377,0 -1.16387,-0.47753 -1.24042,-1.09451c-0.31493,-0.31645 -0.50958,-0.75271 -0.50958,-1.23444c0,-0.9665 0.7835,-1.75 1.75,-1.75c0.9665,0 1.75,0.7835 1.75,1.75c0,0.48173 -0.19464,0.91799 -0.50958,1.23444c-0.07655,0.61698 -0.60272,1.09451 -1.24042,1.09451z" fill="#1c0072" stroke="none" stroke-width="0.5"/><path d="M344.55141,255.38575c0.9665,0 1.75,0.7835 1.75,1.75c0,0.9665 -0.7835,1.75 -1.75,1.75c-0.41782,0 -0.80145,-0.14643 -1.10235,-0.39077c-0.27062,0.17155 -0.59155,0.27088 -0.93568,0.27088c-0.9665,0 -1.75,-0.7835 -1.75,-1.75c0,-0.9665 0.7835,-1.75 1.75,-1.75c0.41782,0 0.80145,0.14643 1.10235,0.39077c0.27062,-0.17155 0.59155,-0.27088 0.93568,-0.27088z" fill="#1c0072" stroke="none" stroke-width="0.5"/><path d="M328.3159,247.06548c0,-0.68593 0.5525,-1.24283 1.23675,-1.24993c0.28494,-0.58022 0.8817,-0.97961 1.57174,-0.97961c0.77321,0 1.4293,0.50145 1.66079,1.19689c0.19278,-0.75696 0.87899,-1.31678 1.69596,-1.31678c0.71758,0 1.33428,0.43189 1.60435,1.04991c0.31969,-0.41951 0.82461,-0.69026 1.39276,-0.69026c0.50831,0 0.96601,0.21672 1.28573,0.56281c0.31152,-0.48288 0.85423,-0.80257 1.47161,-0.80257c0.70841,0 1.31851,0.42093 1.59383,1.02632c0.24592,-0.66898 0.88875,-1.1462 1.64304,-1.1462c0.9665,0 1.75,0.7835 1.75,1.75c0,0.9665 -0.7835,1.75 -1.75,1.75c-0.70841,0 -1.31851,-0.42093 -1.59383,-1.02632c-0.24592,0.66898 -0.88875,1.1462 -1.64304,1.1462c-0.50831,0 -0.96601,-0.21672 -1.28573,-0.56281c-0.31152,0.48288 -0.85423,0.80257 -1.47161,0.80257c-0.71758,0 -1.33428,-0.43189 -1.60435,-1.04991c-0.31969,0.41951 -0.82461,0.69026 -1.39276,0.69026c-0.77321,0 -1.4293,-0.50145 -1.66079,-1.19689c-0.19278,0.75696 -0.87899,1.31678 -1.69596,1.31678c-0.31528,0 -0.61108,-0.08337 -0.86657,-0.22927c-0.19812,0.13193 -0.43604,0.20881 -0.69192,0.20881c-0.69036,0 -1.25,-0.55964 -1.25,-1.25z" fill="#110042" stroke="none" stroke-width="0.5"/><path d="M292.68985,265.76741c0,-0.9665 0.7835,-1.75 1.75,-1.75c0.9665,0 1.75,0.7835 1.75,1.75c0,0.9665 -0.7835,1.75 -1.75,1.75c-0.9665,0 -1.75,-0.7835 -1.75,-1.75z" fill="#1815bf" stroke="none" stroke-width="0.5"/><path d="M302.90047,267.92532c0,-0.17789 0.03716,-0.3471 0.10414,-0.50029c-0.43869,-0.31799 -0.72402,-0.8346 -0.72402,-1.41785c0,-0.9665 0.7835,-1.75 1.75,-1.75c0.9665,0 1.75,0.7835 1.75,1.75c0,0.50479 -0.21372,0.95966 -0.55562,1.27905c0.11147,0.18701 0.1755,0.40557 0.1755,0.63909c0,0.69036 -0.55964,1.25 -1.25,1.25c-0.69036,0 -1.25,-0.55964 -1.25,-1.25z" fill="#1815bf" stroke="none" stroke-width="0.5"/><path d="M308.17537,267.44578c0,-0.03049 0.00109,-0.06073 0.00324,-0.09068c-0.3112,-0.31592 -0.50324,-0.74955 -0.50324,-1.22804c0,-0.87967 0.64905,-1.60774 1.49438,-1.73146c0.321,-0.37806 0.79977,-0.61796 1.33458,-0.61796c0.81991,0 1.50813,0.56386 1.69803,1.32497c0.3179,-0.43956 0.83503,-0.72555 1.41896,-0.72555c0.9665,0 1.75,0.7835 1.75,1.75c0,0.9665 -0.7835,1.75 -1.75,1.75c-0.81991,0 -1.50813,-0.56386 -1.69803,-1.32497c-0.27063,0.37419 -0.68564,0.6371 -1.16334,0.70701c-0.02809,0.03308 -0.05738,0.0651 -0.08782,0.096c0.00215,0.02995 0.00324,0.06019 0.00324,0.09068c0,0.69036 -0.55964,1.25 -1.25,1.25c-0.69036,0 -1.25,-0.55964 -1.25,-1.25z" fill="#1815bf" stroke="none" stroke-width="0.5"/><path d="M321.22227,266.48671c0,-0.9665 0.7835,-1.75 1.75,-1.75c0.9665,0 1.75,0.7835 1.75,1.75c0,0.9665 -0.7835,1.75 -1.75,1.75c-0.9665,0 -1.75,-0.7835 -1.75,-1.75z" fill="#1815bf" stroke="none" stroke-width="0.5"/><path d="M332.32323,268.3566c-0.9665,0 -1.75,-0.7835 -1.75,-1.75c0,-0.9665 0.7835,-1.75 1.75,-1.75c0.25842,0 0.50376,0.05601 0.72453,0.15656c0.21972,-0.71542 0.8857,-1.23552 1.67315,-1.23552c0.9665,0 1.75,0.7835 1.75,1.75c0,0.9665 -0.7835,1.75 -1.75,1.75c-0.25842,0 -0.50376,-0.05601 -0.72453,-0.15656c-0.21972,0.71542 -0.8857,1.23552 -1.67315,1.23552z" fill="#1815bf" stroke="none" stroke-width="0.5"/><path d="M338.12593,266.84636c0,-0.9665 0.7835,-1.75 1.75,-1.75c0.9665,0 1.75,0.7835 1.75,1.75c0,0.9665 -0.7835,1.75 -1.75,1.75c-0.9665,0 -1.75,-0.7835 -1.75,-1.75z" fill="#1815bf" stroke="none" stroke-width="0.5"/><path d="M325.89775,266.24694c0,-0.9665 0.7835,-1.75 1.75,-1.75c0.9665,0 1.75,0.7835 1.75,1.75c0,0.9665 -0.7835,1.75 -1.75,1.75c-0.9665,0 -1.75,-0.7835 -1.75,-1.75z" fill="#1815bf" stroke="none" stroke-width="0.5"/><path d="M296.52615,266.00717c0,-0.9665 0.7835,-1.75 1.75,-1.75c0.9665,0 1.75,0.7835 1.75,1.75c0,0.9665 -0.7835,1.75 -1.75,1.75c-0.9665,0 -1.75,-0.7835 -1.75,-1.75z" fill="#1815bf" stroke="none" stroke-width="0.5"/><path d="M342.82188,266.72648c0,-0.39183 0.18029,-0.74156 0.46244,-0.97075c-0.22764,-0.29538 -0.36302,-0.66552 -0.36302,-1.06728c0,-0.9665 0.7835,-1.75 1.75,-1.75c0.9665,0 1.75,0.7835 1.75,1.75c0,0.75996 -0.48441,1.40677 -1.1613,1.64852c0.04016,0.12258 0.06188,0.25351 0.06188,0.38951c0,0.69036 -0.55964,1.25 -1.25,1.25c-0.69036,0 -1.25,-0.55964 -1.25,-1.25z" fill="#1815bf" stroke="none" stroke-width="0.5"/><path d="M296.42673,250.78189c0,-0.69036 0.55964,-1.25 1.25,-1.25c0.69036,0 1.25,0.55964 1.25,1.25c0,0.69036 -0.55964,1.25 -1.25,1.25c-0.69036,0 -1.25,-0.55964 -1.25,-1.25z" fill="#110042" stroke="none" stroke-width="0.5"/><path d="M311.65201,250.18247c0,-0.69036 0.55964,-1.25 1.25,-1.25c0.69036,0 1.25,0.55964 1.25,1.25c0,0.69036 -0.55964,1.25 -1.25,1.25c-0.69036,0 -1.25,-0.55964 -1.25,-1.25z" fill="#110042" stroke="none" stroke-width="0.5"/><path d="M317.16668,250.42224c0,-0.69036 0.55964,-1.25 1.25,-1.25c0.69036,0 1.25,0.55964 1.25,1.25c0,0.69036 -0.55964,1.25 -1.25,1.25c-0.69036,0 -1.25,-0.55964 -1.25,-1.25z" fill="#110042" stroke="none" stroke-width="0.5"/><path d="M335.26918,250.30236c0,-0.69036 0.55964,-1.25 1.25,-1.25c0.69036,0 1.25,0.55964 1.25,1.25c0,0.69036 -0.55964,1.25 -1.25,1.25c-0.69036,0 -1.25,-0.55964 -1.25,-1.25z" fill="#110042" stroke="none" stroke-width="0.5"/><path d="M298.70452,261.57146c0,-0.69036 0.55964,-1.25 1.25,-1.25c0.69036,0 1.25,0.55964 1.25,1.25c0,0.69036 -0.55964,1.25 -1.25,1.25c-0.69036,0 -1.25,-0.55964 -1.25,-1.25z" fill="#1c0072" stroke="none" stroke-width="0.5"/><path d="M306.01745,257.4954c0,-0.69036 0.55964,-1.25 1.25,-1.25c0.69036,0 1.25,0.55964 1.25,1.25c0,0.69036 -0.55964,1.25 -1.25,1.25c-0.69036,0 -1.25,-0.55964 -1.25,-1.25z" fill="#1c0072" stroke="none" stroke-width="0.5"/><path d="M322.80123,261.69135c0,-0.69036 0.55964,-1.25 1.25,-1.25c0.69036,0 1.25,0.55964 1.25,1.25c0,0.69036 -0.55964,1.25 -1.25,1.25c-0.69036,0 -1.25,-0.55964 -1.25,-1.25z" fill="#1c0072" stroke="none" stroke-width="0.5"/><path d="M327.35683,262.051c0,-0.69036 0.55964,-1.25 1.25,-1.25c0.69036,0 1.25,0.55964 1.25,1.25c0,0.69036 -0.55964,1.25 -1.25,1.25c-0.69036,0 -1.25,-0.55964 -1.25,-1.25z" fill="#1c0072" stroke="none" stroke-width="0.5"/><path d="M330.95335,261.45158c0,-0.69036 0.55964,-1.25 1.25,-1.25c0.69036,0 1.25,0.55964 1.25,1.25c0,0.69036 -0.55964,1.25 -1.25,1.25c-0.69036,0 -1.25,-0.55964 -1.25,-1.25z" fill="#1c0072" stroke="none" stroke-width="0.5"/><path d="M297.02615,270.08323c0,-0.69036 0.55964,-1.25 1.25,-1.25c0.69036,0 1.25,0.55964 1.25,1.25c0,0.69036 -0.55964,1.25 -1.25,1.25c-0.69036,0 -1.25,-0.55964 -1.25,-1.25z" fill="#1815bf" stroke="none" stroke-width="0.5"/><path d="M316.56726,266.72648c0,-0.69036 0.55964,-1.25 1.25,-1.25c0.69036,0 1.25,0.55964 1.25,1.25c0,0.69036 -0.55964,1.25 -1.25,1.25c-0.69036,0 -1.25,-0.55964 -1.25,-1.25z" fill="#1815bf" stroke="none" stroke-width="0.5"/><path d="M319.08482,269.12416c0,-0.69036 0.55964,-1.25 1.25,-1.25c0.69036,0 1.25,0.55964 1.25,1.25c0,0.69036 -0.55964,1.25 -1.25,1.25c-0.69036,0 -1.25,-0.55964 -1.25,-1.25z" fill="#1815bf" stroke="none" stroke-width="0.5"/><path d="M324.23984,269.96335c0,-0.69036 0.55964,-1.25 1.25,-1.25c0.69036,0 1.25,0.55964 1.25,1.25c0,0.69036 -0.55964,1.25 -1.25,1.25c-0.69036,0 -1.25,-0.55964 -1.25,-1.25z" fill="#1815bf" stroke="none" stroke-width="0.5"/><path d="M329.63462,270.323c0,-0.69036 0.55964,-1.25 1.25,-1.25c0.69036,0 1.25,0.55964 1.25,1.25c0,0.69036 -0.55964,1.25 -1.25,1.25c-0.69036,0 -1.25,-0.55964 -1.25,-1.25z" fill="#1815bf" stroke="none" stroke-width="0.5"/><path d="M336.5879,269.36393c0,-0.69036 0.55964,-1.25 1.25,-1.25c0.69036,0 1.25,0.55964 1.25,1.25c0,0.69036 -0.55964,1.25 -1.25,1.25c-0.69036,0 -1.25,-0.55964 -1.25,-1.25z" fill="#1815bf" stroke="none" stroke-width="0.5"/><path d="M299.08464,254.13865c0,-0.41421 0.33579,-0.75 0.75,-0.75c0.41421,0 0.75,0.33579 0.75,0.75c0,0.41421 -0.33579,0.75 -0.75,0.75c-0.41421,0 -0.75,-0.33579 -0.75,-0.75z" fill="#110042" stroke="none" stroke-width="0.5"/><path d="M305.07885,250.66201c0,-0.41421 0.33579,-0.75 0.75,-0.75c0.41421,0 0.75,0.33579 0.75,0.75c0,0.41421 -0.33579,0.75 -0.75,0.75c-0.41421,0 -0.75,-0.33579 -0.75,-0.75z" fill="#110042" stroke="none" stroke-width="0.5"/><path d="M311.67247,253.17957c0,-0.41421 0.33579,-0.75 0.75,-0.75c0.41421,0 0.75,0.33579 0.75,0.75c0,0.41421 -0.33579,0.75 -0.75,0.75c-0.41421,0 -0.75,-0.33579 -0.75,-0.75z" fill="#110042" stroke="none" stroke-width="0.5"/><path d="M320.06436,253.89888c0,-0.41421 0.33579,-0.75 0.75,-0.75c0.41421,0 0.75,0.33579 0.75,0.75c0,0.41421 -0.33579,0.75 -0.75,0.75c-0.41421,0 -0.75,-0.33579 -0.75,-0.75z" fill="#110042" stroke="none" stroke-width="0.5"/><path d="M337.92709,256.05679c0,-0.41421 0.33579,-0.75 0.75,-0.75c0.41421,0 0.75,0.33579 0.75,0.75c0,0.41421 -0.33579,0.75 -0.75,0.75c-0.41421,0 -0.75,-0.33579 -0.75,-0.75z" fill="#110042" stroke="none" stroke-width="0.5"/><path d="M303.76012,262.53054c0,-0.41421 0.33579,-0.75 0.75,-0.75c0.41421,0 0.75,0.33579 0.75,0.75c0,0.41421 -0.33579,0.75 -0.75,0.75c-0.41421,0 -0.75,-0.33579 -0.75,-0.75z" fill="#1c0072" stroke="none" stroke-width="0.5"/><path d="M321.02343,264.20891c0,-0.41421 0.33579,-0.75 0.75,-0.75c0.41421,0 0.75,0.33579 0.75,0.75c0,0.41421 -0.33579,0.75 -0.75,0.75c-0.41421,0 -0.75,-0.33579 -0.75,-0.75z" fill="#1c0072" stroke="none" stroke-width="0.5"/><path d="M323.90065,265.0481c0,-0.41421 0.33579,-0.75 0.75,-0.75c0.41421,0 0.75,0.33579 0.75,0.75c0,0.41421 -0.33579,0.75 -0.75,0.75c-0.41421,0 -0.75,-0.33579 -0.75,-0.75z" fill="#1c0072" stroke="none" stroke-width="0.5"/><path d="M329.65509,264.20891c0,-0.41421 0.33579,-0.75 0.75,-0.75c0.41421,0 0.75,0.33579 0.75,0.75c0,0.41421 -0.33579,0.75 -0.75,0.75c-0.41421,0 -0.75,-0.33579 -0.75,-0.75z" fill="#1c0072" stroke="none" stroke-width="0.5"/><path d="M337.56744,263.24984c0,-0.41421 0.33579,-0.75 0.75,-0.75c0.41421,0 0.75,0.33579 0.75,0.75c0,0.41421 -0.33579,0.75 -0.75,0.75c-0.41421,0 -0.75,-0.33579 -0.75,-0.75z" fill="#1c0072" stroke="none" stroke-width="0.5"/><path d="M342.48269,261.93111c0,-0.41421 0.33579,-0.75 0.75,-0.75c0.41421,0 0.75,0.33579 0.75,0.75c0,0.41421 -0.33579,0.75 -0.75,0.75c-0.41421,0 -0.75,-0.33579 -0.75,-0.75z" fill="#1c0072" stroke="none" stroke-width="0.5"/><path d="M305.55838,270.92242c0,-0.41421 0.33579,-0.75 0.75,-0.75c0.41421,0 0.75,0.33579 0.75,0.75c0,0.41421 -0.33579,0.75 -0.75,0.75c-0.41421,0 -0.75,-0.33579 -0.75,-0.75z" fill="#1815bf" stroke="none" stroke-width="0.5"/><path d="M315.86842,275.71779c0,-0.41421 0.33579,-0.75 0.75,-0.75c0.41421,0 0.75,0.33579 0.75,0.75c0,0.41421 -0.33579,0.75 -0.75,0.75c-0.41421,0 -0.75,-0.33579 -0.75,-0.75z" fill="#1815bf" stroke="none" stroke-width="0.5"/><path d="M323.78077,274.39906c0,-0.41421 0.33579,-0.75 0.75,-0.75c0.41421,0 0.75,0.33579 0.75,0.75c0,0.41421 -0.33579,0.75 -0.75,0.75c-0.41421,0 -0.75,-0.33579 -0.75,-0.75z" fill="#1815bf" stroke="none" stroke-width="0.5"/><path d="M331.21358,273.43999c0,-0.41421 0.33579,-0.75 0.75,-0.75c0.41421,0 0.75,0.33579 0.75,0.75c0,0.41421 -0.33579,0.75 -0.75,0.75c-0.41421,0 -0.75,-0.33579 -0.75,-0.75z" fill="#1815bf" stroke="none" stroke-width="0.5"/><path d="M340.80431,273.32011c0,-0.41421 0.33579,-0.75 0.75,-0.75c0.41421,0 0.75,0.33579 0.75,0.75c0,0.41421 -0.33579,0.75 -0.75,0.75c-0.41421,0 -0.75,-0.33579 -0.75,-0.75z" fill="#1815bf" stroke="none" stroke-width="0.5"/></g><g stroke="#000000" stroke-linecap="round"><path d="M346.32908,201.92287l6.2192,36.16355l-3.22477,-3.68546l-0.69102,13.59012l-4.14614,-2.99444l-2.30341,9.21364l-8.06194,-13.12944l-2.99443,4.60682l-13.59012,-13.12944l0.92136,-26.48922z" fill="#2f1894" stroke-width="0"/><path d="M322.60395,207.45105l-0.92136,23.03411l-11.05637,12.66876l-1.84273,-8.75296l-9.21364,13.12944l-5.0675,-7.14057l-3.22478,3.22477l5.29784,-42.15241l25.7982,4.37648" fill="#2f1894" stroke-width="0"/><path d="M313.15997,226.7997l15.20251,1.38204" fill="none" stroke-width="2"/><path d="M318.89754,233.71042l4.73083,-28.70034" fill="none" stroke-width="1"/><path d="M318.68815,221.96253l8.29228,1.15171" fill="none" stroke-width="2"/><path d="M328.13213,215.51298l-8.9833,-0.23034" fill="none" stroke-width="2"/><path d="M325.59838,211.59719l-4.83716,0.23034" fill="none" stroke-width="2"/></g></g><path d="M214.52362,122.5036v-83.61608h213.18203v267.72501h-213.18203v-169.22364" fill="none" stroke="none" stroke-width="0" stroke-linecap="butt"/><path d="" fill="none" stroke="#000000" stroke-width="2" stroke-linecap="round"/><path d="M377.99956,128.95641c0.9665,0 1.75,0.7835 1.75,1.75c0,0.9665 -0.7835,1.75 -1.75,1.75c-0.23169,0 -0.45287,-0.04503 -0.65526,-0.12681c-0.20239,0.08178 -0.42357,0.12681 -0.65526,0.12681c-0.9665,0 -1.75,-0.7835 -1.75,-1.75c0,-0.9665 0.7835,-1.75 1.75,-1.75c0.23169,0 0.45287,0.04503 0.65526,0.12681c0.20239,-0.08178 0.42357,-0.12681 0.65526,-0.12681z" fill="#1815bf" stroke="none" stroke-width="0.5" stroke-linecap="butt"/><path d="M375.62626,135.38684c0,-0.69036 0.55964,-1.25 1.25,-1.25c0.69036,0 1.25,0.55964 1.25,1.25c0,0.69036 -0.55964,1.25 -1.25,1.25c-0.69036,0 -1.25,-0.55964 -1.25,-1.25z" fill="#1815bf" stroke="none" stroke-width="0.5" stroke-linecap="butt"/><g><path d="M218.09921,136.21877c1.482,-17.68175 15.91462,-36.07132 15.91462,-36.07132c0,0 11.66212,19.61646 18.36765,22.26012c5.91334,2.33135 11.33522,-6.2307 12.91231,-8.64129c12.23124,-18.69538 35.03872,-30.27135 60.03002,-28.11192c35.34543,3.05411 61.67451,32.42621 58.80766,65.60443c-2.86685,33.17822 -33.84401,57.59865 -69.18943,54.54455c-21.4648,-1.85472 -39.60441,-13.41543 -49.89927,-29.64028c-2.28535,-3.60174 -10.44461,-13.91058 -18.12045,-14.59605c-8.05021,-0.71889 -24.88283,6.79594 -24.88283,6.79594c0,0 -5.1206,-18.06153 -3.94027,-32.14417z" fill="#1c19ee" stroke="#000000" stroke-width="0" stroke-linecap="butt"/><path d="M252.38148,122.40757c1.5849,0.62485 3.1345,0.46717 4.58423,-0.14488c3.95927,-1.67152 7.17367,-6.73191 8.32807,-8.49641c12.23124,-18.69538 35.03872,-30.27135 60.03002,-28.11192c28.77828,2.48666 51.57942,22.42012 57.51142,47.64956c0.0922,0.39211 -131.57704,-11.3392 -130.45376,-10.89634z" fill="#1815bf" stroke="#000000" stroke-width="0" stroke-linecap="butt"/><path d="M265.2938,113.76627c12.23124,-18.69538 35.03872,-30.27135 60.03002,-28.11192c25.0365,2.16333 45.54912,17.53153 54.36596,38.10379c0.03271,0.07632 -114.70861,-9.51406 -114.39599,-9.99188z" fill="#1c0072" stroke="#000000" stroke-width="0" stroke-linecap="butt"/><path d="M274.26425,103.04506c12.88222,-12.21015 31.28743,-19.09916 51.05957,-17.39071c20.11794,1.73833 37.31489,12.00282 47.86979,26.64239c0.19595,0.27178 -100.08566,-7.83564 -99.76663,-8.22668c0.40566,-0.49722 0.83535,-1.02317 0.83727,-1.02499z" fill="#110042" stroke="#000000" stroke-width="0" stroke-linecap="butt"/><path d="M302.09275,194.6612l6.79656,-14.44068" fill="none" stroke="#1714b7" stroke-width="1" stroke-linecap="round"/><path d="M335.57788,197.78577l-5.34635,-15.72112" fill="none" stroke="#1714b7" stroke-width="1" stroke-linecap="round"/><path d="M315.45107,192.57866l0.23795,-2.75382" fill="none" stroke="#1714b7" stroke-width="1" stroke-linecap="round"/><path d="M328.76124,193.72877l-2.41673,-4.13921" fill="none" stroke="#1714b7" stroke-width="1" stroke-linecap="round"/><path d="M223.51351,117.61698c4.6362,-9.99766 10.50033,-17.46952 10.50033,-17.46952c0,0 11.66212,19.61646 18.36765,22.26012c0.64589,0.25464 -29.50376,-1.96446 -29.76835,-2.02605c-0.03934,-0.00915 0.8798,-2.72017 0.90039,-2.76456z" fill="#1815bf" stroke="#000000" stroke-width="0" stroke-linecap="butt"/><path d="M228.4399,108.40632c3.04741,-5.03967 5.57394,-8.25889 5.57394,-8.25889c0,0 2.45934,4.13679 5.76865,8.86698c0.15802,0.22587 -11.47515,-0.38888 -11.34258,-0.60809z" fill="#1c0072" stroke="#000000" stroke-width="0" stroke-linecap="butt"/><path d="M273.7684,104.81079c0.0832,-0.96291 0.93125,-1.67606 1.89415,-1.59285c0.96291,0.0832 1.67606,0.93125 1.59285,1.89415c-0.0832,0.96291 -0.93125,1.67606 -1.89415,1.59285c-0.96291,-0.0832 -1.67606,-0.93125 -1.59285,-1.89415z" fill="#110042" stroke="none" stroke-width="0.5" stroke-linecap="butt"/><path d="M278.02617,105.55453c0.0832,-0.96291 0.93125,-1.67606 1.89415,-1.59285c0.96291,0.0832 1.67606,0.93125 1.59285,1.89415c-0.0832,0.96291 -0.93125,1.67606 -1.89415,1.59285c-0.96291,-0.0832 -1.67606,-0.93125 -1.59285,-1.89415z" fill="#110042" stroke="none" stroke-width="0.5" stroke-linecap="butt"/><path d="M283.24879,106.00579c0.0832,-0.96291 0.93125,-1.67606 1.89415,-1.59285c0.96291,0.0832 1.67606,0.93125 1.59285,1.89415c-0.0832,0.96291 -0.93125,1.67606 -1.89415,1.59285c-0.96291,-0.0832 -1.67606,-0.93125 -1.59285,-1.89415z" fill="#110042" stroke="none" stroke-width="0.5" stroke-linecap="butt"/><path d="M289.21751,106.52153c0.0832,-0.96291 0.93125,-1.67606 1.89415,-1.59285c0.96291,0.0832 1.67606,0.93125 1.59285,1.89415c-0.0832,0.96291 -0.93125,1.67606 -1.89415,1.59285c-0.96291,-0.0832 -1.67606,-0.93125 -1.59285,-1.89415z" fill="#110042" stroke="none" stroke-width="0.5" stroke-linecap="butt"/><path d="M294.87765,106.25895c0.0832,-0.96291 0.93125,-1.67606 1.89415,-1.59285c0.96291,0.0832 1.67606,0.93125 1.59285,1.89415c-0.0832,0.96291 -0.93125,1.67606 -1.89415,1.59285c-0.96291,-0.0832 -1.67606,-0.93125 -1.59285,-1.89415z" fill="#110042" stroke="none" stroke-width="0.5" stroke-linecap="butt"/><path d="M298.43769,106.37865c0.0832,-0.96291 0.93125,-1.67606 1.89415,-1.59285c0.96291,0.0832 1.67606,0.93125 1.59285,1.89415c-0.0832,0.96291 -0.93125,1.67606 -1.89415,1.59285c-0.96291,-0.0832 -1.67606,-0.93125 -1.59285,-1.89415z" fill="#110042" stroke="none" stroke-width="0.5" stroke-linecap="butt"/><path d="M307.39075,107.15227c0.0832,-0.96291 0.93125,-1.67606 1.89415,-1.59285c0.96291,0.0832 1.67606,0.93125 1.59285,1.89415c-0.0832,0.96291 -0.93125,1.67606 -1.89415,1.59285c-0.96291,-0.0832 -1.67606,-0.93125 -1.59285,-1.89415z" fill="#110042" stroke="none" stroke-width="0.5" stroke-linecap="butt"/><path d="M318.02252,108.07094c0.0832,-0.96291 0.93125,-1.67606 1.89415,-1.59285c0.96291,0.0832 1.67606,0.93125 1.59285,1.89415c-0.0832,0.96291 -0.93125,1.67606 -1.89415,1.59285c-0.96291,-0.0832 -1.67606,-0.93125 -1.59285,-1.89415z" fill="#110042" stroke="none" stroke-width="0.5" stroke-linecap="butt"/><path d="M321.90116,108.40607c0.05943,-0.6878 0.66518,-1.19718 1.35297,-1.13775c0.10713,0.00926 0.20992,0.03178 0.30693,0.06578c0.34248,-0.5167 0.9494,-0.83491 1.61047,-0.77779c0.96291,0.0832 1.67606,0.93125 1.59285,1.89415c-0.0832,0.96291 -0.93125,1.67606 -1.89415,1.59285c-0.41102,-0.03551 -0.77655,-0.21038 -1.05404,-0.47406c-0.22332,0.14192 -0.4933,0.21433 -0.77728,0.18979c-0.6878,-0.05943 -1.19718,-0.66518 -1.13775,-1.35297z" fill="#110042" stroke="none" stroke-width="0.5" stroke-linecap="butt"/><path d="M332.97653,108.98724c0.0832,-0.96291 0.93125,-1.67606 1.89415,-1.59285c0.96291,0.0832 1.67606,0.93125 1.59285,1.89415c-0.0832,0.96291 -0.93125,1.67606 -1.89415,1.59285c-0.96291,-0.0832 -1.67606,-0.93125 -1.59285,-1.89415z" fill="#110042" stroke="none" stroke-width="0.5" stroke-linecap="butt"/><path d="M336.92573,108.95264c0.0832,-0.96291 0.93125,-1.67606 1.89415,-1.59285c0.96291,0.0832 1.67606,0.93125 1.59285,1.89415c-0.0832,0.96291 -0.93125,1.67606 -1.89415,1.59285c-0.96291,-0.0832 -1.67606,-0.93125 -1.59285,-1.89415z" fill="#110042" stroke="none" stroke-width="0.5" stroke-linecap="butt"/><path d="M341.23185,109.1368c0.0832,-0.96291 0.93125,-1.67606 1.89415,-1.59285c0.96291,0.0832 1.67606,0.93125 1.59285,1.89415c-0.0832,0.96291 -0.93125,1.67606 -1.89415,1.59285c-0.96291,-0.0832 -1.67606,-0.93125 -1.59285,-1.89415z" fill="#110042" stroke="none" stroke-width="0.5" stroke-linecap="butt"/><path d="M348.87926,109.7976c0.0832,-0.96291 0.93125,-1.67606 1.89415,-1.59285c0.96291,0.0832 1.67606,0.93125 1.59285,1.89415c-0.0832,0.96291 -0.93125,1.67606 -1.89415,1.59285c-0.96291,-0.0832 -1.67606,-0.93125 -1.59285,-1.89415z" fill="#110042" stroke="none" stroke-width="0.5" stroke-linecap="butt"/><path d="M361.32459,110.05602c0.96291,0.0832 1.67606,0.93125 1.59285,1.89415c-0.0832,0.96291 -0.93125,1.67606 -1.89415,1.59285c-0.51967,-0.0449 -0.9666,-0.31258 -1.25484,-0.70084c-0.35058,0.33307 -0.83681,0.52011 -1.35646,0.47521c-0.96291,-0.0832 -1.67606,-0.93125 -1.59285,-1.89415c0.0832,-0.96291 0.93125,-1.67606 1.89415,-1.59285c0.51967,0.0449 0.9666,0.31258 1.25484,0.70084c0.35058,-0.33307 0.83681,-0.52011 1.35646,-0.47521z" fill="#110042" stroke="none" stroke-width="0.5" stroke-linecap="butt"/><path d="M368.54679,111.55777c0.6878,0.05943 1.19718,0.66518 1.13775,1.35297c-0.05943,0.6878 -0.66518,1.19718 -1.35297,1.13775c-0.44136,-0.03814 -0.80926,-0.30123 -1.00052,-0.66663c-0.35467,0.39804 -0.88617,0.62964 -1.45819,0.58022c-0.96291,-0.0832 -1.67606,-0.93125 -1.59285,-1.89415c0.0832,-0.96291 0.93125,-1.67606 1.89415,-1.59285c0.75994,0.06567 1.36429,0.60771 1.54443,1.30662c0.23261,-0.16426 0.52228,-0.25035 0.82819,-0.22393z" fill="#110042" stroke="none" stroke-width="0.5" stroke-linecap="butt"/><path d="M265.08027,114.01956c0.0832,-0.96291 0.93125,-1.67606 1.89415,-1.59285c0.96291,0.0832 1.67606,0.93125 1.59285,1.89415c-0.0832,0.96291 -0.93125,1.67606 -1.89415,1.59285c-0.96291,-0.0832 -1.67606,-0.93125 -1.59285,-1.89415z" fill="#1c0072" stroke="none" stroke-width="0.5" stroke-linecap="butt"/><path d="M277.60377,115.41895c0.25709,-0.73779 0.98908,-1.23668 1.80318,-1.16632c0.96291,0.0832 1.67606,0.93125 1.59285,1.89415c-0.0832,0.96291 -0.93125,1.67606 -1.89415,1.59285c-0.15953,-0.01378 -0.31222,-0.04857 -0.45556,-0.10138c-0.23592,0.17373 -0.53358,0.26572 -0.84841,0.23851c-0.48485,-0.04189 -0.88106,-0.35528 -1.05182,-0.77751c-0.33035,0.24338 -0.7472,0.37227 -1.18813,0.33417c-0.96291,-0.0832 -1.67606,-0.93125 -1.59285,-1.89415c0.0832,-0.96291 0.93125,-1.67606 1.89415,-1.59285c0.8366,0.07228 1.48466,0.72192 1.58572,1.52263c0.05025,-0.01995 0.10201,-0.03673 0.15503,-0.05009z" fill="#1c0072" stroke="none" stroke-width="0.5" stroke-linecap="butt"/><path d="M287.73466,117.48038c-0.05943,0.6878 -0.66518,1.19718 -1.35297,1.13775c-0.37811,-0.03267 -0.70228,-0.23043 -0.90769,-0.51618c-0.00349,-0.00029 -0.00698,-0.00057 -0.01049,-0.00089c-0.96291,-0.0832 -1.67606,-0.93125 -1.59285,-1.89415c0.0832,-0.96291 0.93125,-1.67606 1.89415,-1.59285c0.95215,0.08228 1.66009,0.9124 1.59535,1.86193c0.25973,0.25251 0.40811,0.61533 0.3745,1.00438z" fill="#1c0072" stroke="none" stroke-width="0.5" stroke-linecap="butt"/><path d="M295.44398,116.52361c0.31869,-0.60311 0.97636,-0.98881 1.69868,-0.9264c0.96291,0.0832 1.67606,0.93125 1.59285,1.89415c-0.0832,0.96291 -0.93125,1.67606 -1.89415,1.59285c-0.26781,-0.02314 -0.51631,-0.10545 -0.7337,-0.23293c-0.21594,0.12706 -0.47205,0.19062 -0.74067,0.16742c-0.50394,-0.04355 -0.91211,-0.38036 -1.07092,-0.82786c-0.348,0.48562 -0.9359,0.78049 -1.5743,0.72533c-0.96291,-0.0832 -1.67606,-0.93125 -1.59285,-1.89415c0.0832,-0.96291 0.93125,-1.67606 1.89415,-1.59285c0.81206,0.07016 1.44648,0.6843 1.57542,1.45256c0.22056,-0.21651 0.5198,-0.35054 0.84549,-0.35811z" fill="#1c0072" stroke="none" stroke-width="0.5" stroke-linecap="butt"/><path d="M306.53655,117.03794c0.0832,-0.96291 0.93125,-1.67606 1.89415,-1.59285c0.96291,0.0832 1.67606,0.93125 1.59285,1.89415c-0.0832,0.96291 -0.93125,1.67606 -1.89415,1.59285c-0.96291,-0.0832 -1.67606,-0.93125 -1.59285,-1.89415z" fill="#1c0072" stroke="none" stroke-width="0.5" stroke-linecap="butt"/><path d="M313.28358,117.2451c0.0832,-0.96291 0.93125,-1.67606 1.89415,-1.59285c0.96291,0.0832 1.67606,0.93125 1.59285,1.89415c-0.0832,0.96291 -0.93125,1.67606 -1.89415,1.59285c-0.96291,-0.0832 -1.67606,-0.93125 -1.59285,-1.89415z" fill="#1c0072" stroke="none" stroke-width="0.5" stroke-linecap="butt"/><path d="M326.32401,118.55981c0.0832,-0.96291 0.93125,-1.67606 1.89415,-1.59285c0.96291,0.0832 1.67606,0.93125 1.59285,1.89415c-0.0832,0.96291 -0.93125,1.67606 -1.89415,1.59285c-0.96291,-0.0832 -1.67606,-0.93125 -1.59285,-1.89415z" fill="#1c0072" stroke="none" stroke-width="0.5" stroke-linecap="butt"/><path d="M329.65235,120.91446c0.05308,-0.61437 0.54206,-1.08639 1.13606,-1.13782c-0.0261,-0.14746 -0.03358,-0.30071 -0.02009,-0.45701c0.0832,-0.96291 0.93125,-1.67606 1.89415,-1.59285c0.96291,0.0832 1.67606,0.93125 1.59285,1.89415c-0.0832,0.96291 -0.93125,1.67606 -1.89415,1.59285c-0.07615,-0.00658 -0.15073,-0.01794 -0.22348,-0.03377c-0.08388,0.66212 -0.67672,1.14536 -1.3476,1.08739c-0.6878,-0.05943 -1.19718,-0.66518 -1.13775,-1.35297z" fill="#1c0072" stroke="none" stroke-width="0.5" stroke-linecap="butt"/><path d="M338.66299,123.19636c0.05943,-0.6878 0.66518,-1.19718 1.35297,-1.13775c0.00854,0.00073 0.01708,0.00157 0.02558,0.00247c-0.0567,-0.19901 -0.07879,-0.41151 -0.05993,-0.62993c0.0832,-0.96291 0.93125,-1.67606 1.89415,-1.59285c0.96291,0.0832 1.67606,0.93125 1.59285,1.89415c-0.0832,0.96291 -0.93125,1.67606 -1.89415,1.59285c-0.14558,-0.01258 -0.28546,-0.04264 -0.41773,-0.08793c0.00298,0.05728 0.00207,0.11544 -0.00301,0.17421c-0.05943,0.6878 -0.66518,1.19718 -1.35297,1.13775c-0.6878,-0.05943 -1.19718,-0.66518 -1.13775,-1.35297z" fill="#1c0072" stroke="none" stroke-width="0.5" stroke-linecap="butt"/><path d="M346.40022,124.99241c0.04588,-0.53096 0.41735,-0.9556 0.9008,-1.09432c-0.64152,-0.30417 -1.05847,-0.98356 -0.99377,-1.73244c0.0832,-0.96291 0.93125,-1.67606 1.89415,-1.59285c0.96291,0.0832 1.67606,0.93125 1.59285,1.89415c-0.07088,0.82031 -0.69683,1.45934 -1.476,1.57918c0.37913,0.24245 0.61411,0.68202 0.57267,1.16149c-0.05943,0.6878 -0.66518,1.19718 -1.35297,1.13775c-0.6878,-0.05943 -1.19718,-0.66518 -1.13775,-1.35297z" fill="#1c0072" stroke="none" stroke-width="0.5" stroke-linecap="butt"/><path d="M351.18906,122.21166c0.0832,-0.96291 0.93125,-1.67606 1.89415,-1.59285c0.96291,0.0832 1.67606,0.93125 1.59285,1.89415c-0.0832,0.96291 -0.93125,1.67606 -1.89415,1.59285c-0.96291,-0.0832 -1.67606,-0.93125 -1.59285,-1.89415z" fill="#1c0072" stroke="none" stroke-width="0.5" stroke-linecap="butt"/><path d="M363.98208,120.62096c0.96291,0.0832 1.67606,0.93125 1.59285,1.89415c-0.0832,0.96291 -0.93125,1.67606 -1.89415,1.59285c-0.79913,-0.06905 -1.42623,-0.66489 -1.56889,-1.41598c-0.26937,0.71549 -0.98939,1.19493 -1.78853,1.12588c-0.96291,-0.0832 -1.67606,-0.93125 -1.59285,-1.89415c0.0832,-0.96291 0.93125,-1.67606 1.89415,-1.59285c0.79913,0.06905 1.42623,0.66489 1.56889,1.41598c0.26937,-0.71549 0.98939,-1.19493 1.78853,-1.12588z" fill="#1c0072" stroke="none" stroke-width="0.5" stroke-linecap="butt"/><path d="M372.68417,122.12455c0.96291,0.0832 1.67606,0.93125 1.59285,1.89415c-0.0832,0.96291 -0.93125,1.67606 -1.89415,1.59285c-0.6157,-0.0532 -1.12927,-0.4191 -1.39785,-0.92779c-0.32924,0.24011 -0.74336,0.36695 -1.18122,0.32911c-0.96291,-0.0832 -1.67606,-0.93125 -1.59285,-1.89415c0.0832,-0.96291 0.93125,-1.67606 1.89415,-1.59285c0.6157,0.0532 1.12927,0.4191 1.39785,0.92779c0.32924,-0.24011 0.74336,-0.36695 1.18122,-0.32911z" fill="#1c0072" stroke="none" stroke-width="0.5" stroke-linecap="butt"/><path d="M375.67182,123.7634c0.0832,-0.96291 0.93125,-1.67606 1.89415,-1.59285c0.96291,0.0832 1.67606,0.93125 1.59285,1.89415c-0.0832,0.96291 -0.93125,1.67606 -1.89415,1.59285c-0.96291,-0.0832 -1.67606,-0.93125 -1.59285,-1.89415z" fill="#1c0072" stroke="none" stroke-width="0.5" stroke-linecap="butt"/><path d="M237.34727,107.98755c0.96291,0.0832 1.67606,0.93125 1.59285,1.89415c-0.0832,0.96291 -0.93125,1.67606 -1.89415,1.59285c-0.56302,-0.04865 -1.04065,-0.35879 -1.32362,-0.80047c-0.32078,0.59693 -0.97493,0.97768 -1.69296,0.91564c-0.87988,-0.07603 -1.55121,-0.79068 -1.59696,-1.64803c-0.30621,0.63647 -0.98279,1.0493 -1.7282,0.9849c-0.96291,-0.0832 -1.67606,-0.93125 -1.59285,-1.89415c0.0832,-0.96291 0.93125,-1.67606 1.89415,-1.59285c0.87988,0.07603 1.55121,0.79068 1.59696,1.64803c0.30621,-0.63647 0.98279,-1.0493 1.7282,-0.9849c0.56302,0.04865 1.04065,0.35879 1.32362,0.80047c0.32078,-0.59693 0.97493,-0.97768 1.69296,-0.91564z" fill="#1c0072" stroke="none" stroke-width="0.5" stroke-linecap="butt"/><path d="M259.01044,123.64247c0.0832,-0.96291 0.93125,-1.67606 1.89415,-1.59285c0.96291,0.0832 1.67606,0.93125 1.59285,1.89415c-0.0832,0.96291 -0.93125,1.67606 -1.89415,1.59285c-0.96291,-0.0832 -1.67606,-0.93125 -1.59285,-1.89415z" fill="#1815bf" stroke="none" stroke-width="0.5" stroke-linecap="butt"/><path d="M264.68668,123.19337c0.0832,-0.96291 0.93125,-1.67606 1.89415,-1.59285c0.96291,0.0832 1.67606,0.93125 1.59285,1.89415c-0.0832,0.96291 -0.93125,1.67606 -1.89415,1.59285c-0.96291,-0.0832 -1.67606,-0.93125 -1.59285,-1.89415z" fill="#1815bf" stroke="none" stroke-width="0.5" stroke-linecap="butt"/><path d="M271.96105,123.82194c0.0832,-0.96291 0.93125,-1.67606 1.89415,-1.59285c0.96291,0.0832 1.67606,0.93125 1.59285,1.89415c-0.0832,0.96291 -0.93125,1.67606 -1.89415,1.59285c-0.96291,-0.0832 -1.67606,-0.93125 -1.59285,-1.89415z" fill="#1815bf" stroke="none" stroke-width="0.5" stroke-linecap="butt"/><path d="M281.06842,124.98472c0.0832,-0.96291 0.93125,-1.67606 1.89415,-1.59285c0.96291,0.0832 1.67606,0.93125 1.59285,1.89415c-0.0832,0.96291 -0.93125,1.67606 -1.89415,1.59285c-0.96291,-0.0832 -1.67606,-0.93125 -1.59285,-1.89415z" fill="#1815bf" stroke="none" stroke-width="0.5" stroke-linecap="butt"/><path d="M310.16587,127.49894c0.0832,-0.96291 0.93125,-1.67606 1.89415,-1.59285c0.96291,0.0832 1.67606,0.93125 1.59285,1.89415c-0.0832,0.96291 -0.93125,1.67606 -1.89415,1.59285c-0.96291,-0.0832 -1.67606,-0.93125 -1.59285,-1.89415z" fill="#1815bf" stroke="none" stroke-width="0.5" stroke-linecap="butt"/><path d="M314.82509,129.40485c0.05758,-0.66642 0.62806,-1.16534 1.2891,-1.14164c0.00105,-0.02061 0.00249,-0.04128 0.00428,-0.062c0.0832,-0.96291 0.93125,-1.67606 1.89415,-1.59285c0.96291,0.0832 1.67606,0.93125 1.59285,1.89415c-0.0832,0.96291 -0.93125,1.67606 -1.89415,1.59285c-0.16967,-0.01466 -0.33157,-0.05306 -0.48274,-0.11166c-0.20098,0.49437 -0.7062,0.82247 -1.26575,0.77411c-0.6878,-0.05943 -1.19718,-0.66518 -1.13775,-1.35297z" fill="#1815bf" stroke="none" stroke-width="0.5" stroke-linecap="butt"/><path d="M320.96804,128.62026c0.0832,-0.96291 0.93125,-1.67606 1.89415,-1.59285c0.96291,0.0832 1.67606,0.93125 1.59285,1.89415c-0.0832,0.96291 -0.93125,1.67606 -1.89415,1.59285c-0.96291,-0.0832 -1.67606,-0.93125 -1.59285,-1.89415z" fill="#1815bf" stroke="none" stroke-width="0.5" stroke-linecap="butt"/><path d="M330.29417,129.4261c0.0832,-0.96291 0.93125,-1.67606 1.89415,-1.59285c0.96291,0.0832 1.67606,0.93125 1.59285,1.89415c-0.0832,0.96291 -0.93125,1.67606 -1.89415,1.59285c-0.96291,-0.0832 -1.67606,-0.93125 -1.59285,-1.89415z" fill="#1815bf" stroke="none" stroke-width="0.5" stroke-linecap="butt"/><path d="M366.63376,132.94193c0.0832,-0.96291 0.93125,-1.67606 1.89415,-1.59285c0.96291,0.0832 1.67606,0.93125 1.59285,1.89415c-0.0832,0.96291 -0.93125,1.67606 -1.89415,1.59285c-0.96291,-0.0832 -1.67606,-0.93125 -1.59285,-1.89415z" fill="#1815bf" stroke="none" stroke-width="0.5" stroke-linecap="butt"/><path d="M371.37357,133.91523c0.05943,-0.6878 0.66518,-1.19718 1.35297,-1.13775c0.23369,0.02019 0.4468,0.10345 0.62398,0.23158c0.32198,-0.59332 0.97406,-0.97118 1.68956,-0.90936c0.96291,0.0832 1.67606,0.93125 1.59285,1.89415c-0.0832,0.96291 -0.93125,1.67606 -1.89415,1.59285c-0.50948,-0.04402 -0.94906,-0.30217 -1.23773,-0.67817c-0.2518,0.25053 -0.60813,0.39266 -0.98973,0.35967c-0.6878,-0.05943 -1.19718,-0.66518 -1.13775,-1.35297z" fill="#1815bf" stroke="none" stroke-width="0.5" stroke-linecap="butt"/><path d="M222.80901,120.70232c0.0832,-0.96291 0.93125,-1.67606 1.89415,-1.59285c0.96291,0.0832 1.67606,0.93125 1.59285,1.89415c-0.0832,0.96291 -0.93125,1.67606 -1.89415,1.59285c-0.96291,-0.0832 -1.67606,-0.93125 -1.59285,-1.89415z" fill="#1815bf" stroke="none" stroke-width="0.5" stroke-linecap="butt"/><path d="M233.67566,121.07754c0.0832,-0.96291 0.93125,-1.67606 1.89415,-1.59285c0.96291,0.0832 1.67606,0.93125 1.59285,1.89415c-0.0832,0.96291 -0.93125,1.67606 -1.89415,1.59285c-0.96291,-0.0832 -1.67606,-0.93125 -1.59285,-1.89415z" fill="#1815bf" stroke="none" stroke-width="0.5" stroke-linecap="butt"/><path d="M238.6634,122.07225c0.0832,-0.96291 0.93125,-1.67606 1.89415,-1.59285c0.96291,0.0832 1.67606,0.93125 1.59285,1.89415c-0.0832,0.96291 -0.93125,1.67606 -1.89415,1.59285c-0.96291,-0.0832 -1.67606,-0.93125 -1.59285,-1.89415z" fill="#1815bf" stroke="none" stroke-width="0.5" stroke-linecap="butt"/><path d="M248.18884,121.32673c0.96291,0.0832 1.67606,0.93125 1.59285,1.89415c-0.0832,0.96291 -0.93125,1.67606 -1.89415,1.59285c-0.12804,-0.01106 -0.25166,-0.03565 -0.36958,-0.07223c-0.12244,0.01582 -0.24846,0.01882 -0.3765,0.00777c-0.96291,-0.0832 -1.67606,-0.93125 -1.59285,-1.89415c0.0832,-0.96291 0.93125,-1.67606 1.89415,-1.59285c0.12804,0.01106 0.25166,0.03565 0.36958,0.07223c0.12244,-0.01582 0.24846,-0.01882 0.3765,-0.00777z" fill="#1815bf" stroke="none" stroke-width="0.5" stroke-linecap="butt"/><path d="M278.0708,108.94084c0.05943,-0.6878 0.66518,-1.19718 1.35297,-1.13775c0.6878,0.05943 1.19718,0.66518 1.13775,1.35297c-0.05943,0.6878 -0.66518,1.19718 -1.35297,1.13775c-0.6878,-0.05943 -1.19718,-0.66518 -1.13775,-1.35297z" fill="#110042" stroke="none" stroke-width="0.5" stroke-linecap="butt"/><path d="M303.39635,109.43792c0.05943,-0.6878 0.66518,-1.19718 1.35297,-1.13775c0.6878,0.05943 1.19718,0.66518 1.13775,1.35297c-0.05943,0.6878 -0.66518,1.19718 -1.35297,1.13775c-0.6878,-0.05943 -1.19718,-0.66518 -1.13775,-1.35297z" fill="#110042" stroke="none" stroke-width="0.5" stroke-linecap="butt"/><path d="M311.98326,107.92493c0.05943,-0.6878 0.66518,-1.19718 1.35297,-1.13775c0.6878,0.05943 1.19718,0.66518 1.13775,1.35297c-0.05943,0.6878 -0.66518,1.19718 -1.35297,1.13775c-0.6878,-0.05943 -1.19718,-0.66518 -1.13775,-1.35297z" fill="#110042" stroke="none" stroke-width="0.5" stroke-linecap="butt"/><path d="M330.14961,110.81003c0.05943,-0.6878 0.66518,-1.19718 1.35297,-1.13775c0.6878,0.05943 1.19718,0.66518 1.13775,1.35297c-0.05943,0.6878 -0.66518,1.19718 -1.35297,1.13775c-0.6878,-0.05943 -1.19718,-0.66518 -1.13775,-1.35297z" fill="#110042" stroke="none" stroke-width="0.5" stroke-linecap="butt"/><path d="M341.83604,112.5715c0.05943,-0.6878 0.66518,-1.19718 1.35297,-1.13775c0.6878,0.05943 1.19718,0.66518 1.13775,1.35297c-0.05943,0.6878 -0.66518,1.19718 -1.35297,1.13775c-0.6878,-0.05943 -1.19718,-0.66518 -1.13775,-1.35297z" fill="#110042" stroke="none" stroke-width="0.5" stroke-linecap="butt"/><path d="M349.63773,113.62145c0.05943,-0.6878 0.66518,-1.19718 1.35297,-1.13775c0.6878,0.05943 1.19718,0.66518 1.13775,1.35297c-0.05943,0.6878 -0.66518,1.19718 -1.35297,1.13775c-0.6878,-0.05943 -1.19718,-0.66518 -1.13775,-1.35297z" fill="#110042" stroke="none" stroke-width="0.5" stroke-linecap="butt"/><path d="M357.78025,115.07667c0.05943,-0.6878 0.66518,-1.19718 1.35297,-1.13775c0.6878,0.05943 1.19718,0.66518 1.13775,1.35297c-0.05943,0.6878 -0.66518,1.19718 -1.35297,1.13775c-0.6878,-0.05943 -1.19718,-0.66518 -1.13775,-1.35297z" fill="#110042" stroke="none" stroke-width="0.5" stroke-linecap="butt"/><path d="M269.27673,117.20088c0.05943,-0.6878 0.66518,-1.19718 1.35297,-1.13775c0.6878,0.05943 1.19718,0.66518 1.13775,1.35297c-0.05943,0.6878 -0.66518,1.19718 -1.35297,1.13775c-0.6878,-0.05943 -1.19718,-0.66518 -1.13775,-1.35297z" fill="#1c0072" stroke="none" stroke-width="0.5" stroke-linecap="butt"/><path d="M302.61586,120.64537c0.05943,-0.6878 0.66518,-1.19718 1.35297,-1.13775c0.6878,0.05943 1.19718,0.66518 1.13775,1.35297c-0.05943,0.6878 -0.66518,1.19718 -1.35297,1.13775c-0.6878,-0.05943 -1.19718,-0.66518 -1.13775,-1.35297z" fill="#1c0072" stroke="none" stroke-width="0.5" stroke-linecap="butt"/><path d="M309.21783,122.53124c0.05943,-0.6878 0.66518,-1.19718 1.35297,-1.13775c0.6878,0.05943 1.19718,0.66518 1.13775,1.35297c-0.05943,0.6878 -0.66518,1.19718 -1.35297,1.13775c-0.6878,-0.05943 -1.19718,-0.66518 -1.13775,-1.35297z" fill="#1c0072" stroke="none" stroke-width="0.5" stroke-linecap="butt"/><path d="M316.86289,118.86979c0.05943,-0.6878 0.66518,-1.19718 1.35297,-1.13775c0.6878,0.05943 1.19718,0.66518 1.13775,1.35297c-0.05943,0.6878 -0.66518,1.19718 -1.35297,1.13775c-0.6878,-0.05943 -1.19718,-0.66518 -1.13775,-1.35297z" fill="#1c0072" stroke="none" stroke-width="0.5" stroke-linecap="butt"/><path d="M361.58222,127.61965c0.05943,-0.6878 0.66518,-1.19718 1.35297,-1.13775c0.6878,0.05943 1.19718,0.66518 1.13775,1.35297c-0.05943,0.6878 -0.66518,1.19718 -1.35297,1.13775c-0.6878,-0.05943 -1.19718,-0.66518 -1.13775,-1.35297z" fill="#1c0072" stroke="none" stroke-width="0.5" stroke-linecap="butt"/><path d="M372.99232,128.22975c0.05943,-0.6878 0.66518,-1.19718 1.35297,-1.13775c0.6878,0.05943 1.19718,0.66518 1.13775,1.35297c-0.05943,0.6878 -0.66518,1.19718 -1.35297,1.13775c-0.6878,-0.05943 -1.19718,-0.66518 -1.13775,-1.35297z" fill="#1c0072" stroke="none" stroke-width="0.5" stroke-linecap="butt"/><path d="M229.08463,112.6005c0.05943,-0.6878 0.66518,-1.19718 1.35297,-1.13775c0.6878,0.05943 1.19718,0.66518 1.13775,1.35297c-0.05943,0.6878 -0.66518,1.19718 -1.35297,1.13775c-0.6878,-0.05943 -1.19718,-0.66518 -1.13775,-1.35297z" fill="#1c0072" stroke="none" stroke-width="0.5" stroke-linecap="butt"/><path d="M234.72864,112.52444c0.05943,-0.6878 0.66518,-1.19718 1.35297,-1.13775c0.6878,0.05943 1.19718,0.66518 1.13775,1.35297c-0.05943,0.6878 -0.66518,1.19718 -1.35297,1.13775c-0.6878,-0.05943 -1.19718,-0.66518 -1.13775,-1.35297z" fill="#1c0072" stroke="none" stroke-width="0.5" stroke-linecap="butt"/><path d="M229.89989,120.56336c0.05943,-0.6878 0.66518,-1.19718 1.35297,-1.13775c0.6878,0.05943 1.19718,0.66518 1.13775,1.35297c-0.05943,0.6878 -0.66518,1.19718 -1.35297,1.13775c-0.6878,-0.05943 -1.19718,-0.66518 -1.13775,-1.35297z" fill="#1815bf" stroke="none" stroke-width="0.5" stroke-linecap="butt"/><path d="M231.67765,123.91152c0.05943,-0.6878 0.66518,-1.19718 1.35297,-1.13775c0.6878,0.05943 1.19718,0.66518 1.13775,1.35297c-0.05943,0.6878 -0.66518,1.19718 -1.35297,1.13775c-0.6878,-0.05943 -1.19718,-0.66518 -1.13775,-1.35297z" fill="#1815bf" stroke="none" stroke-width="0.5" stroke-linecap="butt"/><path d="M237.17663,125.51417c0.05943,-0.6878 0.66518,-1.19718 1.35297,-1.13775c0.6878,0.05943 1.19718,0.66518 1.13775,1.35297c-0.05943,0.6878 -0.66518,1.19718 -1.35297,1.13775c-0.6878,-0.05943 -1.19718,-0.66518 -1.13775,-1.35297z" fill="#1815bf" stroke="none" stroke-width="0.5" stroke-linecap="butt"/><path d="M239.78793,125.73981c0.05943,-0.6878 0.66518,-1.19718 1.35297,-1.13775c0.6878,0.05943 1.19718,0.66518 1.13775,1.35297c-0.05943,0.6878 -0.66518,1.19718 -1.35297,1.13775c-0.6878,-0.05943 -1.19718,-0.66518 -1.13775,-1.35297z" fill="#1815bf" stroke="none" stroke-width="0.5" stroke-linecap="butt"/><path d="M253.0379,124.62972c0.05943,-0.6878 0.66518,-1.19718 1.35297,-1.13775c0.6878,0.05943 1.19718,0.66518 1.13775,1.35297c-0.05943,0.6878 -0.66518,1.19718 -1.35297,1.13775c-0.6878,-0.05943 -1.19718,-0.66518 -1.13775,-1.35297z" fill="#1815bf" stroke="none" stroke-width="0.5" stroke-linecap="butt"/><path d="M269.37815,124.72625c0.05943,-0.6878 0.66518,-1.19718 1.35297,-1.13775c0.6878,0.05943 1.19718,0.66518 1.13775,1.35297c-0.05943,0.6878 -0.66518,1.19718 -1.35297,1.13775c-0.6878,-0.05943 -1.19718,-0.66518 -1.13775,-1.35297z" fill="#1815bf" stroke="none" stroke-width="0.5" stroke-linecap="butt"/><path d="M320.43,131.95623c0.05943,-0.6878 0.66518,-1.19718 1.35297,-1.13775c0.6878,0.05943 1.19718,0.66518 1.13775,1.35297c-0.05943,0.6878 -0.66518,1.19718 -1.35297,1.13775c-0.6878,-0.05943 -1.19718,-0.66518 -1.13775,-1.35297z" fill="#1815bf" stroke="none" stroke-width="0.5" stroke-linecap="butt"/><path d="M323.97392,132.26244c0.05943,-0.6878 0.66518,-1.19718 1.35297,-1.13775c0.6878,0.05943 1.19718,0.66518 1.13775,1.35297c-0.05943,0.6878 -0.66518,1.19718 -1.35297,1.13775c-0.6878,-0.05943 -1.19718,-0.66518 -1.13775,-1.35297z" fill="#1815bf" stroke="none" stroke-width="0.5" stroke-linecap="butt"/><path d="M275.22078,110.76164c0.03566,-0.41267 0.3991,-0.71831 0.81178,-0.68265c0.41267,0.03566 0.71831,0.3991 0.68265,0.81178c-0.03566,0.41267 -0.3991,0.71831 -0.81178,0.68265c-0.41267,-0.03566 -0.71831,-0.3991 -0.68265,-0.81178z" fill="#110042" stroke="none" stroke-width="0.5" stroke-linecap="butt"/><path d="M278.48148,112.17088c0.03566,-0.41267 0.3991,-0.71831 0.81178,-0.68265c0.41267,0.03566 0.71831,0.3991 0.68265,0.81178c-0.03566,0.41267 -0.3991,0.71831 -0.81178,0.68265c-0.41267,-0.03566 -0.71831,-0.3991 -0.68265,-0.81178z" fill="#110042" stroke="none" stroke-width="0.5" stroke-linecap="butt"/><path d="M293.87988,110.11895c0.03566,-0.41267 0.3991,-0.71831 0.81178,-0.68265c0.41267,0.03566 0.71831,0.3991 0.68265,0.81178c-0.03566,0.41267 -0.3991,0.71831 -0.81178,0.68265c-0.41267,-0.03566 -0.71831,-0.3991 -0.68265,-0.81178z" fill="#110042" stroke="none" stroke-width="0.5" stroke-linecap="butt"/><path d="M308.16151,112.29256c0.03566,-0.41267 0.3991,-0.71831 0.81178,-0.68265c0.41267,0.03566 0.71831,0.3991 0.68265,0.81178c-0.03566,0.41267 -0.3991,0.71831 -0.81178,0.68265c-0.41267,-0.03566 -0.71831,-0.3991 -0.68265,-0.81178z" fill="#110042" stroke="none" stroke-width="0.5" stroke-linecap="butt"/><path d="M314.42267,113.77315c0.03566,-0.41267 0.3991,-0.71831 0.81178,-0.68265c0.41267,0.03566 0.71831,0.3991 0.68265,0.81178c-0.03566,0.41267 -0.3991,0.71831 -0.81178,0.68265c-0.41267,-0.03566 -0.71831,-0.3991 -0.68265,-0.81178z" fill="#110042" stroke="none" stroke-width="0.5" stroke-linecap="butt"/><path d="M323.54615,114.74941c0.03566,-0.41267 0.3991,-0.71831 0.81178,-0.68265c0.41267,0.03566 0.71831,0.3991 0.68265,0.81178c-0.03566,0.41267 -0.3991,0.71831 -0.81178,0.68265c-0.41267,-0.03566 -0.71831,-0.3991 -0.68265,-0.81178z" fill="#110042" stroke="none" stroke-width="0.5" stroke-linecap="butt"/><path d="M333.61835,115.61972c0.03566,-0.41267 0.3991,-0.71831 0.81178,-0.68265c0.41267,0.03566 0.71831,0.3991 0.68265,0.81178c-0.03566,0.41267 -0.3991,0.71831 -0.81178,0.68265c-0.41267,-0.03566 -0.71831,-0.3991 -0.68265,-0.81178z" fill="#110042" stroke="none" stroke-width="0.5" stroke-linecap="butt"/><path d="M344.04747,116.70878c0.03566,-0.41267 0.3991,-0.71831 0.81178,-0.68265c0.41267,0.03566 0.71831,0.3991 0.68265,0.81178c-0.03566,0.41267 -0.3991,0.71831 -0.81178,0.68265c-0.41267,-0.03566 -0.71831,-0.3991 -0.68265,-0.81178z" fill="#110042" stroke="none" stroke-width="0.5" stroke-linecap="butt"/><path d="M352.1094,119.09664c0.03566,-0.41267 0.3991,-0.71831 0.81178,-0.68265c0.41267,0.03566 0.71831,0.3991 0.68265,0.81178c-0.03566,0.41267 -0.3991,0.71831 -0.81178,0.68265c-0.41267,-0.03566 -0.71831,-0.3991 -0.68265,-0.81178z" fill="#110042" stroke="none" stroke-width="0.5" stroke-linecap="butt"/><path d="M363.87641,119.92547c0.03566,-0.41267 0.3991,-0.71831 0.81178,-0.68265c0.41267,0.03566 0.71831,0.3991 0.68265,0.81178c-0.03566,0.41267 -0.3991,0.71831 -0.81178,0.68265c-0.41267,-0.03566 -0.71831,-0.3991 -0.68265,-0.81178z" fill="#110042" stroke="none" stroke-width="0.5" stroke-linecap="butt"/><path d="M227.17647,116.56974c0.03566,-0.41267 0.3991,-0.71831 0.81178,-0.68265c0.41267,0.03566 0.71831,0.3991 0.68265,0.81178c-0.03566,0.41267 -0.3991,0.71831 -0.81178,0.68265c-0.41267,-0.03566 -0.71831,-0.3991 -0.68265,-0.81178z" fill="#1c0072" stroke="none" stroke-width="0.5" stroke-linecap="butt"/><path d="M233.38928,118.6099c0.03566,-0.41267 0.3991,-0.71831 0.81178,-0.68265c0.41267,0.03566 0.71831,0.3991 0.68265,0.81178c-0.03566,0.41267 -0.3991,0.71831 -0.81178,0.68265c-0.41267,-0.03566 -0.71831,-0.3991 -0.68265,-0.81178z" fill="#1c0072" stroke="none" stroke-width="0.5" stroke-linecap="butt"/><path d="M238.29408,116.21497c0.03566,-0.41267 0.3991,-0.71831 0.81178,-0.68265c0.41267,0.03566 0.71831,0.3991 0.68265,0.81178c-0.03566,0.41267 -0.3991,0.71831 -0.81178,0.68265c-0.41267,-0.03566 -0.71831,-0.3991 -0.68265,-0.81178z" fill="#1c0072" stroke="none" stroke-width="0.5" stroke-linecap="butt"/><path d="M263.15914,119.86683c0.03566,-0.41267 0.3991,-0.71831 0.81178,-0.68265c0.41267,0.03566 0.71831,0.3991 0.68265,0.81178c-0.03566,0.41267 -0.3991,0.71831 -0.81178,0.68265c-0.41267,-0.03566 -0.71831,-0.3991 -0.68265,-0.81178z" fill="#1c0072" stroke="none" stroke-width="0.5" stroke-linecap="butt"/><path d="M267.75771,121.01583c0.03566,-0.41267 0.3991,-0.71831 0.81178,-0.68265c0.41267,0.03566 0.71831,0.3991 0.68265,0.81178c-0.03566,0.41267 -0.3991,0.71831 -0.81178,0.68265c-0.41267,-0.03566 -0.71831,-0.3991 -0.68265,-0.81178z" fill="#1c0072" stroke="none" stroke-width="0.5" stroke-linecap="butt"/><path d="M277.84604,121.69962c0.03566,-0.41267 0.3991,-0.71831 0.81178,-0.68265c0.41267,0.03566 0.71831,0.3991 0.68265,0.81178c-0.03566,0.41267 -0.3991,0.71831 -0.81178,0.68265c-0.41267,-0.03566 -0.71831,-0.3991 -0.68265,-0.81178z" fill="#1c0072" stroke="none" stroke-width="0.5" stroke-linecap="butt"/><path d="M285.79279,121.07088c0.03566,-0.41267 0.3991,-0.71831 0.81178,-0.68265c0.41267,0.03566 0.71831,0.3991 0.68265,0.81178c-0.03566,0.41267 -0.3991,0.71831 -0.81178,0.68265c-0.41267,-0.03566 -0.71831,-0.3991 -0.68265,-0.81178z" fill="#1c0072" stroke="none" stroke-width="0.5" stroke-linecap="butt"/><path d="M301.70477,123.94911c0.03566,-0.41267 0.3991,-0.71831 0.81178,-0.68265c0.41267,0.03566 0.71831,0.3991 0.68265,0.81178c-0.03566,0.41267 -0.3991,0.71831 -0.81178,0.68265c-0.41267,-0.03566 -0.71831,-0.3991 -0.68265,-0.81178z" fill="#1c0072" stroke="none" stroke-width="0.5" stroke-linecap="butt"/><path d="M303.69204,124.87249c0.03566,-0.41267 0.3991,-0.71831 0.81178,-0.68265c0.41267,0.03566 0.71831,0.3991 0.68265,0.81178c-0.03566,0.41267 -0.3991,0.71831 -0.81178,0.68265c-0.41267,-0.03566 -0.71831,-0.3991 -0.68265,-0.81178z" fill="#1c0072" stroke="none" stroke-width="0.5" stroke-linecap="butt"/><path d="M331.47461,125.20606c0.03566,-0.41267 0.3991,-0.71831 0.81178,-0.68265c0.41267,0.03566 0.71831,0.3991 0.68265,0.81178c-0.03566,0.41267 -0.3991,0.71831 -0.81178,0.68265c-0.41267,-0.03566 -0.71831,-0.3991 -0.68265,-0.81178z" fill="#1c0072" stroke="none" stroke-width="0.5" stroke-linecap="butt"/><path d="M339.21184,127.00208c0.03566,-0.41267 0.3991,-0.71831 0.81178,-0.68265c0.41267,0.03566 0.71831,0.3991 0.68265,0.81178c-0.03566,0.41267 -0.3991,0.71831 -0.81178,0.68265c-0.41267,-0.03566 -0.71831,-0.3991 -0.68265,-0.81178z" fill="#1c0072" stroke="none" stroke-width="0.5" stroke-linecap="butt"/><path d="M358.64239,128.30521c0.03566,-0.41267 0.3991,-0.71831 0.81178,-0.68265c0.41267,0.03566 0.71831,0.3991 0.68265,0.81178c-0.03566,0.41267 -0.3991,0.71831 -0.81178,0.68265c-0.41267,-0.03566 -0.71831,-0.3991 -0.68265,-0.81178z" fill="#1c0072" stroke="none" stroke-width="0.5" stroke-linecap="butt"/><path d="M368.72382,131.24338c0.03566,-0.41267 0.3991,-0.71831 0.81178,-0.68265c0.41267,0.03566 0.71831,0.3991 0.68265,0.81178c-0.03566,0.41267 -0.3991,0.71831 -0.81178,0.68265c-0.41267,-0.03566 -0.71831,-0.3991 -0.68265,-0.81178z" fill="#1c0072" stroke="none" stroke-width="0.5" stroke-linecap="butt"/><path d="M320.94643,120.91386c0.03566,-0.41267 0.3991,-0.71831 0.81178,-0.68265c0.41267,0.03566 0.71831,0.3991 0.68265,0.81178c-0.03566,0.41267 -0.3991,0.71831 -0.81178,0.68265c-0.41267,-0.03566 -0.71831,-0.3991 -0.68265,-0.81178z" fill="#1c0072" stroke="none" stroke-width="0.5" stroke-linecap="butt"/><path d="M224.83009,126.32648c0.03566,-0.41267 0.3991,-0.71831 0.81178,-0.68265c0.41267,0.03566 0.71831,0.3991 0.68265,0.81178c-0.03566,0.41267 -0.3991,0.71831 -0.81178,0.68265c-0.41267,-0.03566 -0.71831,-0.3991 -0.68265,-0.81178z" fill="#1815bf" stroke="none" stroke-width="0.5" stroke-linecap="butt"/><path d="M233.9628,129.37059c0.03566,-0.41267 0.3991,-0.71831 0.81178,-0.68265c0.41267,0.03566 0.71831,0.3991 0.68265,0.81178c-0.03566,0.41267 -0.3991,0.71831 -0.81178,0.68265c-0.41267,-0.03566 -0.71831,-0.3991 -0.68265,-0.81178z" fill="#1815bf" stroke="none" stroke-width="0.5" stroke-linecap="butt"/><path d="M243.02869,128.83854c0.03566,-0.41267 0.3991,-0.71831 0.81178,-0.68265c0.41267,0.03566 0.71831,0.3991 0.68265,0.81178c-0.03566,0.41267 -0.3991,0.71831 -0.81178,0.68265c-0.41267,-0.03566 -0.71831,-0.3991 -0.68265,-0.81178z" fill="#1815bf" stroke="none" stroke-width="0.5" stroke-linecap="butt"/><path d="M248.19371,127.78153c0.03566,-0.41267 0.3991,-0.71831 0.81178,-0.68265c0.41267,0.03566 0.71831,0.3991 0.68265,0.81178c-0.03566,0.41267 -0.3991,0.71831 -0.81178,0.68265c-0.41267,-0.03566 -0.71831,-0.3991 -0.68265,-0.81178z" fill="#1815bf" stroke="none" stroke-width="0.5" stroke-linecap="butt"/><path d="M263.70729,128.74619c0.03566,-0.41267 0.3991,-0.71831 0.81178,-0.68265c0.41267,0.03566 0.71831,0.3991 0.68265,0.81178c-0.03566,0.41267 -0.3991,0.71831 -0.81178,0.68265c-0.41267,-0.03566 -0.71831,-0.3991 -0.68265,-0.81178z" fill="#1815bf" stroke="none" stroke-width="0.5" stroke-linecap="butt"/><path d="M316.4125,134.23988c0.03566,-0.41267 0.3991,-0.71831 0.81178,-0.68265c0.41267,0.03566 0.71831,0.3991 0.68265,0.81178c-0.03566,0.41267 -0.3991,0.71831 -0.81178,0.68265c-0.41267,-0.03566 -0.71831,-0.3991 -0.68265,-0.81178z" fill="#1815bf" stroke="none" stroke-width="0.5" stroke-linecap="butt"/><path d="M320.67951,137.05148c0.03566,-0.41267 0.3991,-0.71831 0.81178,-0.68265c0.41267,0.03566 0.71831,0.3991 0.68265,0.81178c-0.03566,0.41267 -0.3991,0.71831 -0.81178,0.68265c-0.41267,-0.03566 -0.71831,-0.3991 -0.68265,-0.81178z" fill="#1815bf" stroke="none" stroke-width="0.5" stroke-linecap="butt"/><path d="M372.09282,137.92358c0.03566,-0.41267 0.3991,-0.71831 0.81178,-0.68265c0.41267,0.03566 0.71831,0.3991 0.68265,0.81178c-0.03566,0.41267 -0.3991,0.71831 -0.81178,0.68265c-0.41267,-0.03566 -0.71831,-0.3991 -0.68265,-0.81178z" fill="#1815bf" stroke="none" stroke-width="0.5" stroke-linecap="butt"/><path d="M269.68718,141.64659c0.26659,-3.08521 1.11836,-5.97933 2.43658,-8.58247c4.20203,-8.29799 38.29227,-7.05026 41.85976,-0.09936c1.947,3.79351 2.88479,8.16298 2.49063,12.72458c-0.50081,5.79587 -3.0668,10.91732 -6.91071,14.70228c-4.72474,4.65229 -31.41741,2.50932 -35.28682,-2.66093c-3.33395,-4.45477 -5.10613,-10.10434 -4.58943,-16.08409z" fill="#ffffff" stroke="#000000" stroke-width="0" stroke-linecap="butt"/><path d="M282.74183,142.09424c0.71448,-8.26884 7.99691,-14.39285 16.26574,-13.67835c8.26884,0.71448 14.39285,7.99692 13.67835,16.26576c-0.71448,8.26884 -7.99692,14.39286 -16.26575,13.67836c-8.26884,-0.71448 -14.39284,-7.99692 -13.67834,-16.26576z" fill="#000000" stroke="#000000" stroke-width="0" stroke-linecap="butt"/><path d="M329.14782,163.42881c-3.85557,-4.59649 -5.96087,-10.66185 -5.40359,-17.11126c0.42732,-4.94549 2.35829,-9.39994 5.30378,-12.95204c4.74946,-5.72764 34.73645,-3.1645 38.44098,3.25748c2.31845,4.01913 3.47195,8.76404 3.04222,13.73733c-0.52838,6.11497 -3.35563,11.47922 -7.55711,15.31519c-4.67553,4.26877 -29.95812,2.36481 -33.82628,-2.24667z" fill="#ffffff" stroke="#000000" stroke-width="0" stroke-linecap="butt"/><path d="M367.35234,147.32697c-0.71449,8.26886 -7.99691,14.39286 -16.26574,13.67836c-8.26884,-0.71448 -14.39284,-7.99694 -13.67835,-16.26576c0.71449,-8.26886 7.99693,-14.39285 16.26575,-13.67836c8.26884,0.71448 14.39283,7.99693 13.67834,16.26575z" fill="#1b1b1b" stroke="#000000" stroke-width="0" stroke-linecap="butt"/></g></g></g></svg>