<svg version="1.1" xmlns="http://www.w3.org/2000/svg" xmlns:xlink="http://www.w3.org/1999/xlink" width="34.17311" height="34.17311" viewBox="0,0,34.17311,34.17311"><g transform="translate(-302.91346,-162.91348)"><g stroke-miterlimit="10"><path d="" fill="#babebf" fill-rule="nonzero" stroke="#000000" stroke-width="2.5" stroke-linecap="butt" stroke-linejoin="miter"/><path d="" fill="#ffc633" fill-rule="nonzero" stroke="#000000" stroke-width="2.5" stroke-linecap="butt" stroke-linejoin="miter"/><path d="M309.98312,162.91348h20.03379c3.9166,0 7.06966,3.15307 7.06966,7.06966v20.03379c0,3.91659 -3.15306,7.06966 -7.06966,7.06966h-20.03379c-3.91659,0 -7.06966,-3.15307 -7.06966,-7.06966v-20.03379c0,-3.91659 3.15307,-7.06966 7.06966,-7.06966z" fill="#babebf" fill-rule="evenodd" stroke="none" stroke-width="4.43922" stroke-linecap="round" stroke-linejoin="round"/><path d="" fill="#babebf" fill-rule="nonzero" stroke="#000000" stroke-width="0" stroke-linecap="butt" stroke-linejoin="miter"/><g fill-rule="nonzero" stroke="#000000" stroke-linejoin="miter"><path d="M331.66625,179.45807v-6.73597" fill="none" stroke-width="1.5" stroke-linecap="round"/><path d="M330.70397,171.7315c0,-0.54709 0.4435,-0.99059 0.99059,-0.99059c0.54708,0 0.99058,0.4435 0.99058,0.99059c0,0.54709 -0.4435,0.99058 -0.99058,0.99058c-0.54708,0 -0.99059,-0.4435 -0.99059,-0.99058z" fill="#000000" stroke-width="2.5" stroke-linecap="butt"/></g><g fill-rule="nonzero" stroke="#000000" stroke-linejoin="miter"><path d="M308.8094,172.72209v6.73599" fill="none" stroke-width="1.5" stroke-linecap="round"/><path d="M307.84711,171.7315c0,-0.54709 0.4435,-0.99059 0.99059,-0.99059c0.54708,0 0.99059,0.4435 0.99059,0.99059c0,0.54709 -0.4435,0.99058 -0.99059,0.99058c-0.54708,0 -0.99059,-0.4435 -0.99059,-0.99058z" fill="#000000" stroke-width="2.5" stroke-linecap="butt"/></g><path d="M306.51748,188.64842c5.67166,-0.00357 11.3442,0.08383 17.01591,0.06319c3.25894,-0.01186 6.52212,0.06786 9.77961,-0.00795c0.01451,-0.23997 0.02187,-0.48174 0.02187,-0.72512c0,-6.9562 -6.00745,-12.59529 -13.41802,-12.59529c-7.41057,0 -13.41802,5.6391 -13.41802,12.59529c0,0.22472 0.00626,0.44806 0.01865,0.66988z" fill="#babebf" fill-rule="nonzero" stroke="#000000" stroke-width="2.5" stroke-linecap="butt" stroke-linejoin="miter"/><path d="M306.32993,188.64857c5.73416,-0.00566 23.96406,0.13685 27.34013,0.04614c0,-3.71196 0,-7.45637 0,-8.51076c0,-0.56827 -0.66125,-1.0655 -1.77267,-1.0655c-5.27132,0 -20.66907,0 -23.67256,0c-0.99244,0 -1.8949,0.64443 -1.8949,1.68237c0,1.84336 0,4.92784 0,7.84775z" fill="#ffc633" fill-rule="nonzero" stroke="#000000" stroke-width="2.5" stroke-linecap="butt" stroke-linejoin="miter"/><path d="M307.26391,181.56696c0,-0.93478 0.8408,-1.51518 1.76544,-1.51518c2.79829,0 17.14402,0 22.05518,0c1.03548,0 1.65157,0.44782 1.65157,0.95961c0,1.00439 0,4.71909 0,8.24283c-0.4315,0.00032 -0.86298,0.00102 -1.29446,0.00223c-8.05907,0.0226 -16.11917,-0.10973 -24.17773,-0.04814c0,-2.79137 0,-5.8599 0,-7.64135z" fill="#000000" fill-rule="nonzero" stroke="#000000" stroke-width="1.5" stroke-linecap="butt" stroke-linejoin="miter"/><g fill-rule="nonzero" stroke="#000000" stroke-width="0.5" stroke-linejoin="miter"><path d="M331.66625,179.45807v-6.73597" fill="none" stroke-linecap="round"/><path d="M330.70397,171.7315c0,-0.54709 0.4435,-0.99059 0.99059,-0.99059c0.54708,0 0.99058,0.4435 0.99058,0.99059c0,0.54709 -0.4435,0.99058 -0.99058,0.99058c-0.54708,0 -0.99059,-0.4435 -0.99059,-0.99058z" fill="#000000" stroke-linecap="butt"/></g><g fill-rule="nonzero" stroke="#000000" stroke-linejoin="miter"><path d="M308.8094,172.72209v6.73599" fill="none" stroke-width="1.5" stroke-linecap="round"/><path d="M307.84711,171.7315c0,-0.54709 0.4435,-0.99059 0.99059,-0.99059c0.54708,0 0.99059,0.4435 0.99059,0.99059c0,0.54709 -0.4435,0.99058 -0.99059,0.99058c-0.54708,0 -0.99059,-0.4435 -0.99059,-0.99058z" fill="#000000" stroke-width="0.5" stroke-linecap="butt"/></g><path d="M306.49883,187.97853c0,-6.9562 6.00745,-12.59529 13.41802,-12.59529c7.41057,0 13.41802,5.6391 13.41802,12.59529c0,0.43055 -0.02301,0.85605 -0.06795,1.27549c-0.60845,0.00003 -18.41211,-0.1151 -26.70435,-0.03985c-0.04217,-0.40653 -0.06374,-0.81872 -0.06374,-1.23564z" fill="#babebf" fill-rule="nonzero" stroke="#000000" stroke-width="0" stroke-linecap="butt" stroke-linejoin="miter"/><path d="M306.32993,180.80081c0,-1.03794 0.90246,-1.68237 1.8949,-1.68237c3.00349,0 18.40124,0 23.67256,0c1.11142,0 1.77267,0.49723 1.77267,1.0655c0,1.10742 0,5.1822 0,9.07016c-0.74284,-0.0003 -18.97038,-0.11783 -27.34013,-0.03776c0,-3.08083 0,-6.45217 0,-8.41553z" fill="#ffc633" fill-rule="nonzero" stroke="#000000" stroke-width="0" stroke-linecap="butt" stroke-linejoin="miter"/><path d="M307.26391,181.56696c0,-0.93478 0.8408,-1.51518 1.76544,-1.51518c2.79829,0 17.14402,0 22.05518,0c1.03548,0 1.65157,0.44782 1.65157,0.95961c0,1.00439 0,4.71909 0,8.24283c-0.4315,0.00032 -17.41363,-0.1075 -25.47218,-0.04591c0,-2.79137 0,-5.8599 0,-7.64135z" fill="#000000" fill-rule="nonzero" stroke="#000000" stroke-width="0" stroke-linecap="butt" stroke-linejoin="miter"/><path d="M304.78114,191.9908v-3h31v3z" fill="#babebf" fill-rule="nonzero" stroke="none" stroke-width="0" stroke-linecap="butt" stroke-linejoin="miter"/></g></g></svg>