<svg version="1.1" xmlns="http://www.w3.org/2000/svg" xmlns:xlink="http://www.w3.org/1999/xlink" width="213.18203" height="281.18476" viewBox="0,0,213.18203,281.18476"><defs><linearGradient x1="320.08742" y1="187.07227" x2="320.08742" y2="244.23177" gradientUnits="userSpaceOnUse" id="color-1"><stop offset="0" stop-color="#2713b5"/><stop offset="1" stop-color="#2713b5" stop-opacity="0"/></linearGradient></defs><g transform="translate(-214.52362,-38.88751)"><g stroke-miterlimit="10"><path d="M308.25196,219.48511c0,6.60461 -4.68483,11.95872 -10.46387,11.95872c-5.77904,0 -10.46388,-5.3541 -10.46388,-11.95872c0,-6.60461 4.68484,-11.95871 10.46388,-11.95871c5.77904,0 10.46387,5.3541 10.46387,11.95871z" fill="#4372d5" stroke="#000000" stroke-width="2" stroke-linecap="butt"/><g stroke="#000000" stroke-linecap="butt"><path d="M286.35186,319.07226l15.14285,-131.8421l37.78325,-0.15789l13.57389,132z" fill="#4372d5" stroke-width="0"/><path d="M295.01902,243.61117l6.47569,-56.38101l37.78325,-0.15789l5.87786,57.15951z" fill="url(#color-1)" stroke-width="0"/><path d="M286.35186,319.07226l15.14285,-131.8421l37.78325,-0.15789l13.57389,132z" fill="none" stroke-width="2"/></g><path d="M214.52362,306.61252v-267.72501h213.18203v267.72501z" fill="none" stroke="none" stroke-width="0" stroke-linecap="butt"/><path d="" fill="none" stroke="#000000" stroke-width="2" stroke-linecap="round"/><g stroke="#000000"><path d="M246.74323,168.561l-15.66914,-11.24311l20.47671,-23.68176z" fill="#435656" stroke-width="2" stroke-linecap="round"/><path d="M250.11979,148.44256l-33.16911,-53.20878l4.29216,-30.49627l103.73779,-23.40353l8.75296,82.00141z" fill="#ab1a21" stroke-width="2" stroke-linecap="round"/><path d="M247.97642,148.57225c0,-33.30185 28.7599,-60.29833 64.23702,-60.29833c35.47713,0 64.23702,26.99648 64.23702,60.29833c0,33.30185 -28.75989,60.29834 -64.23702,60.29834c-35.47712,0 -64.23702,-26.99649 -64.23702,-60.29834z" fill="#4372d5" stroke-width="2" stroke-linecap="butt"/><path d="M261.30425,148.84787c0,-12.96801 10.51265,-23.48065 23.48066,-23.48065c12.96801,0 23.48065,10.51264 23.48065,23.48065c0,12.96801 -10.51264,23.48066 -23.48065,23.48066c-12.96801,0 -23.48066,-10.51265 -23.48066,-23.48066z" fill="#ffffff" stroke-width="2" stroke-linecap="butt"/><path d="M265.79692,149.63831c0,-8.29964 6.72818,-15.02784 15.02783,-15.02784c8.29964,0 15.02784,6.72819 15.02784,15.02785c0,8.29964 -6.72819,15.02785 -15.02784,15.02785c-8.29964,0 -15.02783,-6.72819 -15.02783,-15.02785z" fill="#000000" stroke-width="5" stroke-linecap="butt"/><path d="M310.00846,88.55389l50.44468,-21.19137l1.16843,14.95748l36.6075,36.86925l-7.83159,5.29784l-0.92136,34.32081l-4.83717,-4.60682l-14.51148,43.7648l-5.52818,-7.60125l-19.57899,26.71956l-5.52819,-10.13501l-26.25888,14.0508c0,0 5.13132,-29.15107 4.37648,-48.14128c-0.75484,-18.99021 -8.75296,-61.96174 -8.75296,-61.96174" fill="#4372d5" stroke-width="2" stroke-linecap="round"/><path d="M275.91799,112.7397c0,0 5.40861,-9.22462 8.52262,-6.44955c3.11401,2.77507 25.33751,36.62422 25.33751,36.62422l0.69102,-3.9158" fill="none" stroke-width="1" stroke-linecap="round"/><path d="M311.16017,202.34237c0,0 -16.86403,-2.02176 -22.14472,-3.822c-4.81038,-1.6399 -8.2603,-6.54335 -8.2603,-6.54335" fill="none" stroke-width="1.5" stroke-linecap="round"/><path d="M309.54777,81.70948l-49.29298,-13.35978" fill="none" stroke-width="1" stroke-linecap="round"/><path d="M297.80039,56.60231l-24.64649,33.86013" fill="none" stroke-width="1" stroke-linecap="round"/></g><g stroke-linecap="butt"><path d="M298.63555,223.07371c3.38447,13.38218 6.0621,24.24728 -4.48977,26.91594c-10.55187,2.66866 -13.36155,-8.16305 -16.74602,-21.54523c-3.38447,-13.38218 -1.37432,-25.43286 4.48978,-26.91594c5.8641,-1.48308 13.36154,8.16305 16.74602,21.54523z" fill="#4372d5" stroke="#000000" stroke-width="2"/><g stroke="none" stroke-width="0.5"><path d="M271.64868,216.30452c-0.68263,0.17489 -1.06608,-0.49615 -1.06608,-0.49615c-4.60196,-8.09135 -3.69432,-17.05521 0.99608,-24.86157c2.17689,-2.49603 4.58106,-4.94567 7.3571,-6.78858c6.43684,-4.27318 15.27299,-4.10675 22.65704,-4.10675c6.32608,0.01031 14.68908,2.53209 15.78267,9.86425c0.35899,2.4069 -0.89366,3.71319 -1.32058,5.73802c-0.12403,0.58828 0.80886,2.46272 0.95057,2.91794c-0.38826,2.62161 -1.33313,4.54305 -3.65389,5.98373c-0.71454,0.44357 -1.75576,0.3795 -2.31193,1.01036c-0.48111,0.54572 0.17282,1.49484 -0.06754,2.1815c-0.66165,1.8902 -1.98375,2.72445 -3.59825,3.72686c-2.08283,1.29318 -4.07513,0.41671 -6.14722,1.01763c-0.54757,0.1588 -1.23681,2.93896 -1.58458,3.52218c-1.75527,2.85279 -4.21284,3.00266 -7.18889,3.64343c-6.03643,1.2997 -14.36884,2.02672 -19.43005,-2.10898c-0.43664,-0.43705 -0.89725,-0.85101 -1.37443,-1.24387zM271.84604,213.94829c0.29663,0.0799 0.49912,0.2824 0.49912,0.2824l0.29203,0.30067c0.60321,0.48377 1.18758,0.99368 1.73459,1.54019c4.35645,3.72925 12.43106,2.74644 17.63896,1.63537c2.32653,-0.49635 4.58505,-0.42478 5.91632,-2.72196c0.88544,-1.46523 0.7866,-3.51696 2.53419,-4.34095c0.35802,-0.16881 2.17489,-0.0297 2.74562,-0.07361c1.89866,-0.14605 3.95911,-0.9001 5.32198,-2.29631c1.08308,-1.10959 0.06431,-2.76263 0.84111,-3.8093c0.66424,-0.895 1.97818,-1.03103 2.93015,-1.61068c1.62869,-0.99171 2.34696,-2.30319 2.71149,-4.126c-0.38127,-1.03312 -1.1143,-2.30586 -0.9216,-3.44745c0.33056,-1.95831 1.60856,-2.82953 1.30046,-5.12058c-0.8377,-6.22932 -8.63648,-8.11801 -13.79765,-8.10861c-6.92212,0 -15.48739,-0.28894 -21.52624,3.75638c-2.58091,1.7289 -4.83211,3.99461 -6.8714,6.31663c-4.09521,6.83847 -5.02777,14.6981 -1.34913,21.8238z" fill="#000000"/><path d="M272.96199,192.10481c2.03929,-2.32202 4.30402,-4.6061 6.88493,-6.33501c6.03885,-4.04532 14.65879,-3.76311 21.58091,-3.76311c5.16117,-0.0094 12.98338,1.90369 13.82108,8.13302c0.30809,2.29105 -0.9669,3.17115 -1.29746,5.12947c-0.1927,1.14159 0.54154,2.42216 0.9228,3.45528c-0.36453,1.8228 -1.08305,3.14413 -2.71174,4.13584c-0.95196,0.57965 -2.26693,0.72124 -2.93117,1.61624c-0.7768,1.04667 0.23823,2.71004 -0.84485,3.81962c-1.36286,1.39621 -3.43194,2.16263 -5.3306,2.30868c-0.57073,0.0439 -2.39316,-0.09017 -2.75119,0.07864c-1.74759,0.82398 -1.66198,2.88308 -2.54742,4.34831c-1.33127,2.29718 -3.60861,2.22874 -5.93514,2.72509c-5.2079,1.11107 -13.31892,2.07663 -17.67537,-1.65262c-0.54701,-0.5465 -1.13431,-1.06013 -1.73752,-1.5439l-0.29251,-0.30137c0,0 -0.20307,-0.20336 -0.4997,-0.28327c-3.67863,-7.1257 -2.75026,-15.03247 1.34495,-21.87094z" fill="#4372d5"/></g><path d="M278.98629,217.71954c-0.02282,0.04272 -0.03919,0.08429 -0.04833,0.12444zM277.07422,217.15418l0.00678,-0.05299c2.04359,-4.28101 9.15622,-3.06243 13.15699,-3.06243c1.45454,0 3.50256,-0.329 4.81858,0.55415c1.33191,0.89382 1.11993,2.53315 1.1769,4.00297c-0.04345,3.61083 -1.92331,5.36573 -5.19767,6.38463c-5.85534,1.82202 -14.19245,0.32657 -14.21353,-7.1335c0,0 0,-0.39891 0.25196,-0.69284z" fill="#4372d5" stroke="none" stroke-width="0.5"/></g><path d="M256.19398,215.53097l-10.13501,11.05637l-18.42728,-24.87683l23.72513,3.9158" fill="none" stroke="#d600ff" stroke-width="1.5" stroke-linecap="round"/><path d="M247.44102,197.56438l-5.75853,1.38205l4.37648,-10.36535l3.45512,5.0675" fill="none" stroke="#d600ff" stroke-width="1.5" stroke-linecap="round"/><path d="M263.79524,219.67712l1.38205,3.22477l-10.36535,-1.38205l2.76409,-3.22477" fill="none" stroke="#d600ff" stroke-width="1.5" stroke-linecap="round"/></g></g></svg>