<svg version="1.1" xmlns="http://www.w3.org/2000/svg" xmlns:xlink="http://www.w3.org/1999/xlink" width="221.27889" height="272.93481" viewBox="0,0,221.27889,272.93481"><defs><linearGradient x1="318.96396" y1="240.85412" x2="318.96396" y2="276.16737" gradientUnits="userSpaceOnUse" id="color-1"><stop offset="0" stop-color="#005cff" stop-opacity="0"/><stop offset="1" stop-color="#005cff" stop-opacity="0.2"/></linearGradient><radialGradient cx="323.20142" cy="151.0161" r="64.23702" gradientUnits="userSpaceOnUse" id="color-2"><stop offset="0" stop-color="#aca5f2"/><stop offset="1" stop-color="#f3ca58"/></radialGradient><radialGradient cx="295.81339" cy="149.50097" r="23.48066" gradientUnits="userSpaceOnUse" id="color-3"><stop offset="0" stop-color="#ffffff"/><stop offset="1" stop-color="#ff6d6d"/></radialGradient><radialGradient cx="349.95619" cy="153.0423" r="23.48066" gradientUnits="userSpaceOnUse" id="color-4"><stop offset="0" stop-color="#ffffff"/><stop offset="1" stop-color="#ff6d6d"/></radialGradient></defs><g transform="translate(-213.40901,-46.13751)"><g stroke-miterlimit="10"><path d="M213.40901,313.86252v-267.72501h213.18203v267.72501z" fill="none" stroke="none" stroke-width="0" stroke-linecap="butt"/><g stroke-linecap="butt"><g><g stroke-width="0"><path d="M370.70106,269.87901c-0.06778,1.44597 -1.41901,-4.97989 -6.32499,-5.20986c-4.90598,-0.22997 -8.51273,-3.00784 -8.44495,-4.45381c0.06778,-1.44597 4.09981,0.87984 9.00579,1.10981c4.90598,0.22997 5.83193,7.10789 5.76415,8.55386z" fill="#f29d0f" stroke="#000000"/><path d="M363.39926,263.52066c0,8.78876 -6.18635,0.14404 -15.95739,0.14404c-9.77104,0 -15.01123,-7.44009 -15.01123,-16.22885c0,-8.78876 7.92099,-4.71717 17.69203,-4.71717c9.77104,0 13.27659,12.01322 13.27659,20.80198z" fill="#f2d40e" stroke="#000000"/><path d="M357.81447,254.49463c0,-0.69036 0.55964,-1.25 1.25,-1.25c0.69036,0 1.25,0.55964 1.25,1.25c0,0.69036 -0.55964,1.25 -1.25,1.25c-0.69036,0 -1.25,-0.55964 -1.25,-1.25z" fill="#000000" stroke="none"/></g><path d="M286.35186,319.07231c0,0 -1.89355,-25.93292 0.55642,-47.26366c2.58988,-22.54893 14.58643,-84.57844 14.58643,-84.57844l37.78325,-0.15789c0,0 9.71821,48.53571 12.06959,71.4019c2.15633,20.96935 1.5043,60.5981 1.5043,60.5981z" fill="#f3ca58" stroke="#000000" stroke-width="0"/><path d="M293.32494,231.4227c3.92467,-22.12412 8.16979,-44.1925 8.16979,-44.1925l37.78325,-0.15789c0,0 4.58735,22.91064 8.22116,44.66623c0.01212,0.07254 -54.19728,-0.18574 -54.1742,-0.31584z" fill="#f2bc49" stroke="#000000" stroke-width="0"/><path d="M294.35562,225.21107c3.47387,-19.2454 7.13909,-37.98086 7.13909,-37.98086l37.78325,-0.15789c0,0 3.7397,19.39228 7.08641,38.61124c0.00071,0.00407 -52.0355,-0.32431 -52.00875,-0.47248z" fill="#ffc72e" stroke="#000000" stroke-width="0"/><path d="M309.43057,274.95001c-0.60434,0 -1.13393,-0.23881 -1.42855,-0.59687c-0.40832,-0.03148 -0.71369,-0.15576 -0.71369,-0.15576c-2.81592,-1.14616 -6.6205,-2.20571 -9.08745,-3.72458c-5.15584,-3.1744 -6.48202,-7.967 -2.60749,-12.21832c3.34303,-3.66814 9.07756,-4.44116 14.1588,-5.7515c3.39017,-0.87425 6.25511,-2.47282 9.63619,-3.37881c2.25387,-0.97114 5.50095,-1.85595 7.42542,-3.16024c1.26199,-0.8553 1.68883,-2.21259 2.8379,-3.12013c0.82862,-0.65444 4.11036,-2.27023 5.42408,-1.94755c2.52904,0.62119 4.05401,5.49475 4.87382,7.17382c0.81561,1.67047 2.09706,2.72111 2.94108,4.38572c2.22816,4.39447 2.39218,10.85669 -0.38497,15.07163c-4.12178,4.62147 -13.47245,8.29221 -20.91425,8.62036c-3.3941,0.14966 -6.97675,-0.59431 -10.29739,-1.01544l-1.59475,-0.19833c-0.0875,0.01053 -0.17726,0.016 -0.26874,0.016z" fill="url(#color-1)" stroke="none" stroke-width="0.5"/><path d="M296.01191,216.45645c2.97215,-16.24462 5.48281,-29.22625 5.48281,-29.22625l37.78325,-0.15789c0,0 2.77645,13.86644 5.72037,30.26775c0.00971,0.0541 -49.03891,-0.59676 -48.98643,-0.88361z" fill="#ff9600" stroke="#000000" stroke-width="0"/><g stroke-width="0"><path d="M356.84063,264.74936c-0.16935,10.05097 -14.10853,4.57839 -35.80932,4.57839c-21.70078,0 -38.91576,4.34675 -38.50428,-5.05147c0.52608,-12.01574 17.11889,-0.63604 38.81967,-0.63604c21.70078,0 35.63747,-7.40967 35.49394,1.10912z" fill="#f2d40e" stroke="#000000"/><path d="M344.0944,266.38599c0,-0.97798 0.79281,-1.77078 1.77078,-1.77078c0.97798,0 1.77078,0.79281 1.77078,1.77078c0,0.97798 -0.79281,1.77078 -1.77078,1.77078c-0.97798,0 -1.77078,-0.79281 -1.77078,-1.77078z" fill="#080700" stroke="none"/><path d="M348.70222,261.04884c-0.3209,3.37178 -1.40371,2.88109 -2.86307,2.7422c-1.45936,-0.13889 -2.74263,0.12661 -2.42173,-3.24517c0.3209,-3.37178 3.22345,-5.85366 3.22345,-5.85366c0,0 2.38226,2.98485 2.06135,6.35663z" fill="#f2d40e" stroke="none"/><path d="M340.02662,267.57169c2.8247,-1.86894 3.12333,-0.71826 3.93224,0.50431c0.80891,1.22257 1.82178,2.05407 -1.00292,3.92301c-2.8247,1.86894 -6.57922,1.17036 -6.57922,1.17036c0,0 0.82521,-3.72874 3.64991,-5.59769z" fill="#f2d40e" stroke="none"/><path d="M345.92961,271.74288c-0.96942,-3.24532 0.21842,-3.1974 1.62304,-3.61698c1.40462,-0.41958 2.49413,-1.14777 3.46355,2.09755c0.96942,3.24532 -0.78801,6.63589 -0.78801,6.63589c0,0 -3.32917,-1.87113 -4.29858,-5.11645z" fill="#f2d40e" stroke="none"/><path d="M343.03151,260.28155c2.52782,2.25433 1.49142,2.83668 0.51571,3.93076c-0.97571,1.09408 -1.52125,2.28558 -4.04907,0.03125c-2.52782,-2.25433 -2.81034,-6.06283 -2.81034,-6.06283c0,0 3.81588,-0.15351 6.3437,2.10082z" fill="#f2d40e" stroke="none"/></g></g><path d="M295.94243,216.86713c0,-0.9665 0.7835,-1.75 1.75,-1.75c0.9665,0 1.75,0.7835 1.75,1.75c0,0.9665 -0.7835,1.75 -1.75,1.75c-0.9665,0 -1.75,-0.7835 -1.75,-1.75z" fill="#ff9600" stroke="none" stroke-width="0.5"/><path d="M345.50938,219.11519c0,0.69036 -0.55964,1.25 -1.25,1.25c-0.58846,0 -1.08194,-0.40663 -1.2148,-0.95423c-0.74057,-0.20381 -1.28455,-0.8821 -1.28455,-1.68743c0,-0.9665 0.7835,-1.75 1.75,-1.75c0.9665,0 1.5359,0.7835 1.5359,1.75c0,0.13554 -0.0112,0.26747 -0.03312,0.39415c0.30166,0.22821 0.49657,0.59009 0.49657,0.99751z" fill="#ff9600" stroke="none" stroke-width="0.5"/><path d="M337.26391,216.86713c0,-0.9665 0.7835,-1.75 1.75,-1.75c0.9665,0 1.75,0.7835 1.75,1.75c0,0.9665 -0.7835,1.75 -1.75,1.75c-0.9665,0 -1.75,-0.7835 -1.75,-1.75z" fill="#ff9600" stroke="none" stroke-width="0.5"/><path d="M331.05499,216.86713c0,-0.9665 0.7835,-1.75 1.75,-1.75c0.53678,0 1.01712,0.24168 1.33813,0.62215c0.32101,-0.38047 0.80135,-0.62215 1.33813,-0.62215c0.9665,0 1.75,0.7835 1.75,1.75c0,0.9665 -0.7835,1.75 -1.75,1.75c-0.53678,0 -1.01711,-0.24168 -1.33813,-0.62215c-0.32101,0.38047 -0.80135,0.62215 -1.33813,0.62215c-0.9665,0 -1.75,-0.7835 -1.75,-1.75z" fill="#ff9600" stroke="none" stroke-width="0.5"/><path d="M323.098,218.15174c0,-0.69036 0.55964,-1.25 1.25,-1.25c0.31567,0 0.604,0.11701 0.824,0.31002c-0.00317,-0.04309 -0.0048,-0.08662 -0.0048,-0.13053c0,-0.9665 0.7835,-1.75 1.75,-1.75c0.3111,0 0.60325,0.08118 0.8564,0.22351c0.25315,-0.14234 0.5453,-0.22351 0.8564,-0.22351c0.9665,0 1.75,0.7835 1.75,1.75c0,0.9665 -0.7835,1.75 -1.75,1.75c-0.3111,0 -0.60325,-0.08118 -0.8564,-0.22351c-0.00778,0.00438 -0.0156,0.00869 -0.02345,0.01295c-0.22316,0.34139 -0.60877,0.56697 -1.04706,0.56697c-0.50801,0 -0.94524,-0.30304 -1.14077,-0.73822c-0.13354,0.54664 -0.62656,0.95233 -1.21434,0.95233c-0.69036,0 -1.25,-0.55964 -1.25,-1.25z" fill="#ff9600" stroke="none" stroke-width="0.5"/><path d="M308.78848,216.86713c0,-0.90794 2.40865,-2.84656 3.17344,-1.50817c0.25014,0.14763 0.46034,0.3557 0.61052,0.60413c0.3065,-0.50702 0.86302,-0.84596 1.4987,-0.84596c0.47595,0 0.90752,0.19 1.223,0.49829c0.06029,-0.02457 0.12224,-0.04518 0.18548,-0.06204c0.19423,-0.07435 0.4051,-0.1151 0.62549,-0.1151c0.45635,0 0.87191,0.17468 1.18346,0.46083c0.02256,0.01482 0.04468,0.02996 0.06638,0.04539c0.23587,-0.11841 0.50221,-0.18507 0.78412,-0.18507c0.20657,0 0.40479,0.03579 0.58877,0.10151c0.18399,-0.06572 0.3822,-0.10151 0.58878,-0.10151c0.9665,0 1.75,0.7835 1.75,1.75c0,0.9665 -0.7835,1.75 -1.75,1.75c-0.20657,0 -0.40479,-0.0358 -0.58878,-0.10152c-0.18399,0.06572 -0.3822,0.10152 -0.58877,0.10152c-0.48323,0 -0.92072,-0.19586 -1.23741,-0.51253c-0.23892,0.12235 -0.50968,0.19138 -0.79655,0.19138c-0.13446,0 -0.26537,-0.01516 -0.39113,-0.04387c-0.435,0.10573 -0.83124,0.0274 -1.07466,-0.37157c-0.17815,0.06112 -0.36929,0.09429 -0.56817,0.09429c-0.63569,0 -1.1922,-0.33894 -1.4987,-0.84596c-0.3065,0.50702 -0.86302,0.84596 -1.49871,0.84596c-0.09804,0 -0.1942,-0.00807 -0.28785,-0.02356c-1.01047,0.44353 -1.99741,0.27119 -1.99741,-1.72644z" fill="#ff9600" stroke="none" stroke-width="0.5"/><path d="M304.0397,215.46065c0.265,-0.5145 2.3117,-1.46315 2.78381,-0.63695c0.5158,0.30442 0.86181,0.86589 0.86181,1.50818c0,0.9665 -0.7835,1.75 -1.75,1.75c-0.36156,0 -0.69751,-0.10965 -0.97641,-0.29751c-0.96798,-0.1522 -1.60936,-0.98382 -0.91921,-2.32372z" fill="#ff9600" stroke="none" stroke-width="0.5"/><path d="M299.9033,216.22483c0,-0.9665 0.7835,-1.75 1.75,-1.75c0.9665,0 1.75,0.7835 1.75,1.75c0,0.9665 -0.7835,1.75 -1.75,1.75c-0.9665,0 -1.75,-0.7835 -1.75,-1.75z" fill="#ff9600" stroke="none" stroke-width="0.5"/><path d="M300.36869,224.71642c0.69036,0 1.25,0.55964 1.25,1.25c0,0.69036 -0.55964,1.25 -1.25,1.25c-0.1789,0 -0.34902,-0.03758 -0.5029,-0.10528c-0.30099,0.24459 -0.6848,0.39118 -1.10286,0.39118c-0.49002,0 -0.93301,-0.2014 -1.25068,-0.52595c-0.28296,0.19661 -0.62671,0.31185 -0.99738,0.31185c-0.9665,0 -1.75,-0.7835 -1.75,-1.75c0,-0.9665 0.7835,-1.75 1.75,-1.75c0.49002,0 0.933,0.2014 1.25068,0.52595c0.28296,-0.19661 0.62672,-0.31185 0.99738,-0.31185c0.5849,0 1.10277,0.28694 1.42053,0.72773c0.06044,-0.00897 0.12229,-0.01363 0.18522,-0.01363z" fill="#ffc72e" stroke="none" stroke-width="0.5"/><path d="M305.22057,228.21448c0,-0.27336 0.08774,-0.52621 0.2366,-0.73195c-0.32446,-0.0491 -0.6197,-0.18731 -0.85998,-0.38887c-0.30406,0.25507 -0.6961,0.40866 -1.12403,0.40866c-0.9665,0 -1.75,-0.7835 -1.75,-1.75c0,-0.9665 0.7835,-1.75 1.75,-1.75c0.42793,0 0.81997,0.15359 1.12403,0.40866c0.30406,-0.25507 0.6961,-0.40866 1.12403,-0.40866c0.48265,0 0.91966,0.19539 1.23626,0.51138c0.30332,-0.25248 0.69335,-0.40433 1.11885,-0.40433c0.9665,0 1.75,0.7835 1.75,1.75c0,0.9665 -0.7835,1.75 -1.75,1.75c-0.19957,0 -0.39134,-0.03341 -0.57002,-0.09494c0.13526,0.19973 0.21427,0.44066 0.21427,0.70005c0,0.69036 -0.55964,1.25 -1.25,1.25c-0.69036,0 -1.25,-0.55964 -1.25,-1.25z" fill="#ffc72e" stroke="none" stroke-width="0.5"/><path d="M327.88066,223.89527c0.9665,0 1.75,0.7835 1.75,1.75c0,0.9665 -0.7835,1.75 -1.75,1.75c-0.68291,0 -1.27445,-0.39117 -1.56279,-0.96166c-0.31642,0.45199 -0.841,0.74755 -1.43462,0.74755c-0.9665,0 -1.75,-0.7835 -1.75,-1.75c0,-0.9665 0.7835,-1.75 1.75,-1.75c0.68291,0 1.27445,0.39117 1.5628,0.96166c0.31642,-0.45199 0.841,-0.74755 1.43461,-0.74755z" fill="#ffc72e" stroke="none" stroke-width="0.5"/><path d="M331.12678,228.32152c0,-0.51662 0.3134,-0.96004 0.76045,-1.1505c-0.43936,-0.31793 -0.7252,-0.83494 -0.7252,-1.41871c0,-0.9665 0.7835,-1.75 1.75,-1.75c0.17045,0 0.3352,0.02437 0.49098,0.06981c0.78988,-0.18737 1.47312,0.15276 1.47312,1.68019c0,0.22004 -0.17418,0.54241 -0.4399,0.86046c-0.19302,0.34118 -0.4973,0.61113 -0.86354,0.76055c-0.08123,0.05076 -0.16337,0.09658 -0.2455,0.13625c0.18679,0.21843 0.29959,0.50202 0.29959,0.81196c0,0.69036 -0.55964,1.25 -1.25,1.25c-0.69036,0 -1.25,-0.55964 -1.25,-1.25z" fill="#ffc72e" stroke="none" stroke-width="0.5"/><path d="M335.94405,226.82283c0,-0.68096 0.54451,-1.23474 1.22187,-1.24969c0.08974,-0.88233 0.83493,-1.57082 1.74094,-1.57082c0.33328,0 0.6448,0.09316 0.90993,0.25487c0.26513,-0.16171 0.57665,-0.25487 0.90992,-0.25487c0.9665,0 1.75,0.7835 1.75,1.75c0,0.9665 -0.7835,1.75 -1.75,1.75c-0.32024,0 -0.62038,-0.08602 -0.8786,-0.23621c-0.11041,0.06321 -0.23139,0.11005 -0.35963,0.13724c-0.18197,0.06411 -0.37773,0.09897 -0.58163,0.09897c-0.21143,0 -0.41411,-0.0375 -0.60174,-0.1062c-0.20783,0.40195 -0.62736,0.6767 -1.11107,0.6767c-0.69036,0 -1.25,-0.55964 -1.25,-1.25z" fill="#ffc72e" stroke="none" stroke-width="0.5"/><path d="M342.36708,228.64268c0,-0.64099 0.48246,-1.16929 1.10406,-1.24157c-0.45205,-0.31641 -0.74766,-0.84103 -0.74766,-1.43469c0,-0.9665 0.7835,-1.75 1.75,-1.75c0.9665,0 1.75,0.7835 1.75,1.75c0,0.9665 -0.7835,1.75 -1.75,1.75c-0.00571,0 -0.01142,-0.00002 -0.01711,-0.00008c0.25227,0.2287 0.41071,0.55902 0.41071,0.92634c0,0.69036 -0.55964,1.25 -1.25,1.25c-0.69036,0 -1.25,-0.55964 -1.25,-1.25z" fill="#ffc72e" stroke="none" stroke-width="0.5"/><path d="M297.79948,229.99715c0.9665,0 1.75,0.7835 1.75,1.75c0,0.9665 -0.7835,1.75 -1.75,1.75c-0.53678,0 -1.01712,-0.24167 -1.33813,-0.62215c-0.32101,0.38047 -0.80135,0.62215 -1.33813,0.62215c-0.9665,0 -1.75,-0.7835 -1.75,-1.75c0,-0.9665 0.7835,-1.75 1.75,-1.75c0.53678,0 1.01711,0.24168 1.33813,0.62215c0.32101,-0.38047 0.80135,-0.62215 1.33813,-0.62215z" fill="#f2bc49" stroke="none" stroke-width="0.5"/><path d="M303.93597,232.4965c0,-0.69036 0.55964,-1.25 1.25,-1.25c0.27335,0 0.52621,0.08774 0.73195,0.2366c0.06109,-0.40368 0.26009,-0.76211 0.54745,-1.02577c0.3199,-0.34867 0.77933,-0.56724 1.28981,-0.56724c0.9665,0 1.75,0.7835 1.75,1.75c0,0.51048 -0.21858,0.96991 -0.56724,1.28981c-0.3199,0.34867 -0.77933,0.56724 -1.28981,0.56724c-0.51031,0 -0.96959,-0.21842 -1.28947,-0.56687c-0.17633,0.47654 -0.63484,0.81623 -1.17269,0.81623c-0.69036,0 -1.25,-0.55964 -1.25,-1.25z" fill="#f2bc49" stroke="none" stroke-width="0.5"/><path d="M317.71087,229.56895c0.9665,0 1.75,0.7835 1.75,1.75c0,0.9665 -0.7835,1.75 -1.75,1.75c-0.63448,0 -1.19009,-0.33766 -1.49696,-0.84308c-0.26839,0.6219 -0.88711,1.05718 -1.6075,1.05718c-0.9665,0 -1.75,-0.7835 -1.75,-1.75c0,-0.9665 0.7835,-1.75 1.75,-1.75c0.63448,0 1.19009,0.33766 1.49696,0.84308c0.26839,-0.6219 0.88711,-1.05718 1.6075,-1.05718z" fill="#f2bc49" stroke="none" stroke-width="0.5"/><path d="M320.34994,231.10484c0,-0.9665 0.7835,-1.75 1.75,-1.75c0.9665,0 1.75,0.7835 1.75,1.75c0,0.9665 -0.7835,1.75 -1.75,1.75c-0.9665,0 -1.75,-0.7835 -1.75,-1.75z" fill="#f2bc49" stroke="none" stroke-width="0.5"/><path d="M327.41526,231.10484c0,-0.9665 0.7835,-1.75 1.75,-1.75c0.9665,0 1.75,0.7835 1.75,1.75c0,0.9665 -0.7835,1.75 -1.75,1.75c-0.9665,0 -1.75,-0.7835 -1.75,-1.75z" fill="#f2bc49" stroke="none" stroke-width="0.5"/><path d="M338.62032,234.20931c0,-0.33082 0.12851,-0.63162 0.33833,-0.85521c-0.2128,0.09204 -0.44749,0.14305 -0.6941,0.14305c-0.9665,0 -1.75,-0.7835 -1.75,-1.75c0,-0.9665 0.7835,-1.75 1.75,-1.75c0.42778,0 0.81972,0.15349 1.12373,0.40841c0.32101,-0.38068 0.80148,-0.6225 1.33843,-0.6225c0.9665,0 1.75,0.7835 1.75,1.75c0,0.9665 -0.7835,1.75 -1.75,1.75c-0.00571,0 -0.01141,-0.00003 -0.01711,-0.00009c0.25227,0.2287 0.41071,0.55902 0.41071,0.92634c0,0.69036 -0.55964,1.25 -1.25,1.25c-0.69036,0 -1.25,-0.55964 -1.25,-1.25zM339.60299,232.87464c-0.04618,0.05477 -0.09566,0.10666 -0.14814,0.15537c0.08593,-0.03027 0.17616,-0.05142 0.26953,-0.06227c-0.04184,-0.02928 -0.08234,-0.06036 -0.12139,-0.0931z" fill="#f2bc49" stroke="none" stroke-width="0.5"/><path d="M345.65104,229.8901c0.9665,0 1.75,0.7835 1.75,1.75c0,0.9665 -0.7835,1.75 -1.75,1.75c-0.33299,0 -0.64426,-0.09301 -0.90924,-0.25446c-0.12092,0.02642 -0.24651,0.04036 -0.37536,0.04036c-0.9665,0 -1.75,-0.7835 -1.75,-1.75c0,-0.9665 0.7835,-1.75 1.75,-1.75c0.33299,0 0.64425,0.093 0.90924,0.25445c0.12092,-0.02642 0.24652,-0.04035 0.37537,-0.04035z" fill="#f2bc49" stroke="none" stroke-width="0.5"/><path d="M301.68791,220.07865c0,-0.69036 0.55964,-1.25 1.25,-1.25c0.69036,0 1.25,0.55964 1.25,1.25c0,0.69036 -0.55964,1.25 -1.25,1.25c-0.69036,0 -1.25,-0.55964 -1.25,-1.25z" fill="#ff9600" stroke="none" stroke-width="0.5"/><path d="M311.32245,220.50685c0,-0.69036 0.55964,-1.25 1.25,-1.25c0.69036,0 1.25,0.55964 1.25,1.25c0,0.69036 -0.55964,1.25 -1.25,1.25c-0.69036,0 -1.25,-0.55964 -1.25,-1.25z" fill="#ff9600" stroke="none" stroke-width="0.5"/><path d="M330.91268,220.50685c0,-0.69036 0.55964,-1.25 1.25,-1.25c0.69036,0 1.25,0.55964 1.25,1.25c0,0.69036 -0.55964,1.25 -1.25,1.25c-0.69036,0 -1.25,-0.55964 -1.25,-1.25z" fill="#ff9600" stroke="none" stroke-width="0.5"/><path d="M336.80046,221.79145c0,-0.69036 0.55964,-1.25 1.25,-1.25c0.69036,0 1.25,0.55964 1.25,1.25c0,0.69036 -0.55964,1.25 -1.25,1.25c-0.69036,0 -1.25,-0.55964 -1.25,-1.25z" fill="#ff9600" stroke="none" stroke-width="0.5"/><path d="M301.0456,228.74973c0,-0.69036 0.55964,-1.25 1.25,-1.25c0.69036,0 1.25,0.55964 1.25,1.25c0,0.69036 -0.55964,1.25 -1.25,1.25c-0.69036,0 -1.25,-0.55964 -1.25,-1.25z" fill="#ffc72e" stroke="none" stroke-width="0.5"/><path d="M317.53137,227.35808c0,-0.1411 0.02338,-0.27673 0.06647,-0.40324c-0.19722,0.07701 -0.41183,0.11928 -0.63632,0.11928c-0.37248,0 -0.71777,-0.11637 -1.00152,-0.31473c-0.30617,0.26291 -0.70428,0.42178 -1.13949,0.42178c-0.38732,0 -0.74524,-0.12582 -1.03514,-0.33882c-0.2268,0.23088 -0.54256,0.37408 -0.89177,0.37408c-0.13883,0 -0.27238,-0.02264 -0.39715,-0.06441c-0.22837,0.29941 -0.58887,0.49262 -0.9945,0.49262c-0.69036,0 -1.25,-0.55964 -1.25,-1.25c0,-0.69036 0.55964,-1.25 1.25,-1.25c0.13883,0 0.27238,0.02264 0.39715,0.06441c0.22837,-0.29941 0.58887,-0.49262 0.9945,-0.49262c0.10774,0 0.2123,0.01363 0.31204,0.03926c0.2643,-0.63113 0.88781,-1.07452 1.61487,-1.07452c0.37248,0 0.71777,0.11637 1.00151,0.31474c0.30617,-0.26291 0.70428,-0.42178 1.1395,-0.42178c0.9665,0 1.75,0.7835 1.75,1.75c0,0.29354 -0.07228,0.5702 -0.2,0.81316c0.08691,-0.01913 0.17721,-0.0292 0.26986,-0.0292c0.69036,0 1.25,0.55964 1.25,1.25c0,0.69036 -0.55964,1.25 -1.25,1.25c-0.69036,0 -1.25,-0.55964 -1.25,-1.25z" fill="#ffc72e" stroke="none" stroke-width="0.5"/><path d="M320.63584,228.10743c0,-0.69036 0.55964,-1.25 1.25,-1.25c0.69036,0 1.25,0.55964 1.25,1.25c0,0.69036 -0.55964,1.25 -1.25,1.25c-0.69036,0 -1.25,-0.55964 -1.25,-1.25z" fill="#ffc72e" stroke="none" stroke-width="0.5"/><path d="M325.02491,228.32152c0,-0.69036 0.55964,-1.25 1.25,-1.25c0.69036,0 1.25,0.55964 1.25,1.25c0,0.69036 -0.55964,1.25 -1.25,1.25c-0.69036,0 -1.25,-0.55964 -1.25,-1.25z" fill="#ffc72e" stroke="none" stroke-width="0.5"/><path d="M294.94372,236.13622c0,-0.69036 0.55964,-1.25 1.25,-1.25c0.69036,0 1.25,0.55964 1.25,1.25c0,0.69036 -0.55964,1.25 -1.25,1.25c-0.69036,0 -1.25,-0.55964 -1.25,-1.25z" fill="#f2bc49" stroke="none" stroke-width="0.5"/><path d="M301.36675,232.60355c0,-0.69036 0.55964,-1.25 1.25,-1.25c0.69036,0 1.25,0.55964 1.25,1.25c0,0.69036 -0.55964,1.25 -1.25,1.25c-0.69036,0 -1.25,-0.55964 -1.25,-1.25z" fill="#f2bc49" stroke="none" stroke-width="0.5"/><path d="M308.32503,234.10226c0,-0.69036 0.55964,-1.25 1.25,-1.25c0.69036,0 1.25,0.55964 1.25,1.25c0,0.69036 -0.55964,1.25 -1.25,1.25c-0.69036,0 -1.25,-0.55964 -1.25,-1.25z" fill="#f2bc49" stroke="none" stroke-width="0.5"/><path d="M310.7872,234.74456c0,-0.69036 0.55964,-1.25 1.25,-1.25c0.69036,0 1.25,0.55964 1.25,1.25c0,0.69036 -0.55964,1.25 -1.25,1.25c-0.69036,0 -1.25,-0.55964 -1.25,-1.25z" fill="#f2bc49" stroke="none" stroke-width="0.5"/><path d="M314.85511,235.27981c0,-0.69036 0.55964,-1.25 1.25,-1.25c0.69036,0 1.25,0.55964 1.25,1.25c0,0.69036 -0.55964,1.25 -1.25,1.25c-0.69036,0 -1.25,-0.55964 -1.25,-1.25z" fill="#f2bc49" stroke="none" stroke-width="0.5"/><path d="M321.38519,235.38686c0,-0.69036 0.55964,-1.25 1.25,-1.25c0.69036,0 1.25,0.55964 1.25,1.25c0,0.69036 -0.55964,1.25 -1.25,1.25c-0.69036,0 -1.25,-0.55964 -1.25,-1.25z" fill="#f2bc49" stroke="none" stroke-width="0.5"/><path d="M326.63066,234.10226c0,-0.69036 0.55964,-1.25 1.25,-1.25c0.69036,0 1.25,0.55964 1.25,1.25c0,0.69036 -0.55964,1.25 -1.25,1.25c-0.69036,0 -1.25,-0.55964 -1.25,-1.25z" fill="#f2bc49" stroke="none" stroke-width="0.5"/><path d="M332.69793,231.2465c0.69036,0 1.25,0.55964 1.25,1.25c0,0.69036 -0.55964,1.25 -1.25,1.25c-0.0544,0 -0.108,-0.00348 -0.16057,-0.01022c-0.05257,0.00674 -0.10617,0.01022 -0.16057,0.01022c-0.69036,0 -1.25,-0.55964 -1.25,-1.25c0,-0.69036 0.55964,-1.25 1.25,-1.25c0.0544,0 0.108,0.00348 0.16057,0.01022c0.05257,-0.00674 0.10617,-0.01022 0.16057,-0.01022z" fill="#f2bc49" stroke="none" stroke-width="0.5"/><path d="M341.08248,234.74456c0,-0.69036 0.55964,-1.25 1.25,-1.25c0.69036,0 1.25,0.55964 1.25,1.25c0,0.69036 -0.55964,1.25 -1.25,1.25c-0.69036,0 -1.25,-0.55964 -1.25,-1.25z" fill="#f2bc49" stroke="none" stroke-width="0.5"/><path d="M304.86417,223.50426c0,-0.41422 0.33578,-0.75 0.75,-0.75c0.41422,0 0.75,0.33578 0.75,0.75c0,0.41422 -0.33578,0.75 -0.75,0.75c-0.41422,0 -0.75,-0.33578 -0.75,-0.75z" fill="#ff9600" stroke="none" stroke-width="0.5"/><path d="M315.89036,221.8985c0,-0.41422 0.33578,-0.75 0.75,-0.75c0.41422,0 0.75,0.33578 0.75,0.75c0,0.41422 -0.33578,0.75 -0.75,0.75c-0.41422,0 -0.75,-0.33578 -0.75,-0.75z" fill="#ff9600" stroke="none" stroke-width="0.5"/><path d="M329.80692,223.82541c0,-0.41422 0.33578,-0.75 0.75,-0.75c0.41422,0 0.75,0.33578 0.75,0.75c0,0.41422 -0.33578,0.75 -0.75,0.75c-0.41422,0 -0.75,-0.33578 -0.75,-0.75z" fill="#ff9600" stroke="none" stroke-width="0.5"/><path d="M338.47801,224.57477c0,-0.41422 0.33578,-0.75 0.75,-0.75c0.41422,0 0.75,0.33578 0.75,0.75c0,0.41422 -0.33578,0.75 -0.75,0.75c-0.41422,0 -0.75,-0.33578 -0.75,-0.75z" fill="#ff9600" stroke="none" stroke-width="0.5"/><path d="M296.62128,228.85678c0,-0.41422 0.33578,-0.75 0.75,-0.75c0.41422,0 0.75,0.33578 0.75,0.75c0,0.41422 -0.33578,0.75 -0.75,0.75c-0.41422,0 -0.75,-0.33578 -0.75,-0.75z" fill="#ffc72e" stroke="none" stroke-width="0.5"/><path d="M313,230.03434c0,-0.41422 0.33578,-0.75 0.75,-0.75c0.41422,0 0.75,0.33578 0.75,0.75c0,0.41422 -0.33578,0.75 -0.75,0.75c-0.41422,0 -0.75,-0.33578 -0.75,-0.75z" fill="#ffc72e" stroke="none" stroke-width="0.5"/><path d="M335.0524,230.03434c0,-0.41422 0.33578,-0.75 0.75,-0.75c0.41422,0 0.75,0.33578 0.75,0.75c0,0.41422 -0.33578,0.75 -0.75,0.75c-0.41422,0 -0.75,-0.33578 -0.75,-0.75z" fill="#ffc72e" stroke="none" stroke-width="0.5"/><path d="M339.22737,231.6401c0,-0.41422 0.33578,-0.75 0.75,-0.75c0.41422,0 0.75,0.33578 0.75,0.75c0,0.41422 -0.33578,0.75 -0.75,0.75c-0.41422,0 -0.75,-0.33578 -0.75,-0.75z" fill="#ffc72e" stroke="none" stroke-width="0.5"/><path d="M299.51164,237.31377c0,-0.41422 0.33578,-0.75 0.75,-0.75c0.41422,0 0.75,0.33578 0.75,0.75c0,0.41422 -0.33578,0.75 -0.75,0.75c-0.41422,0 -0.75,-0.33578 -0.75,-0.75z" fill="#f2bc49" stroke="none" stroke-width="0.5"/><path d="M302.29496,235.81506c0,-0.41422 0.33578,-0.75 0.75,-0.75c0.41422,0 0.75,0.33578 0.75,0.75c0,0.41422 -0.33578,0.75 -0.75,0.75c-0.41422,0 -0.75,-0.33578 -0.75,-0.75z" fill="#f2bc49" stroke="none" stroke-width="0.5"/><path d="M311.39425,237.84901c0,-0.41422 0.33578,-0.75 0.75,-0.75c0.41422,0 0.75,0.33578 0.75,0.75c0,0.41422 -0.33578,0.75 -0.75,0.75c-0.41422,0 -0.75,-0.33578 -0.75,-0.75z" fill="#f2bc49" stroke="none" stroke-width="0.5"/><path d="M315.67626,240.31118c0,-0.41422 0.33578,-0.75 0.75,-0.75c0.41422,0 0.75,0.33578 0.75,0.75c0,0.41422 -0.33578,0.75 -0.75,0.75c-0.41422,0 -0.75,-0.33578 -0.75,-0.75z" fill="#f2bc49" stroke="none" stroke-width="0.5"/><path d="M326.59541,238.49133c0,-0.41422 0.33578,-0.75 0.75,-0.75c0.41422,0 0.75,0.33578 0.75,0.75c0,0.41422 -0.33578,0.75 -0.75,0.75c-0.41422,0 -0.75,-0.33578 -0.75,-0.75z" fill="#f2bc49" stroke="none" stroke-width="0.5"/><path d="M336.22995,236.45737c0,-0.41422 0.33578,-0.75 0.75,-0.75c0.41422,0 0.75,0.33578 0.75,0.75c0,0.41422 -0.33578,0.75 -0.75,0.75c-0.41422,0 -0.75,-0.33578 -0.75,-0.75z" fill="#f2bc49" stroke="none" stroke-width="0.5"/><path d="M342.22478,239.02658c0,-0.41422 0.33578,-0.75 0.75,-0.75c0.41422,0 0.75,0.33578 0.75,0.75c0,0.41422 -0.33578,0.75 -0.75,0.75c-0.41422,0 -0.75,-0.33578 -0.75,-0.75z" fill="#f2bc49" stroke="none" stroke-width="0.5"/></g><path d="" fill="none" stroke="#000000" stroke-width="2" stroke-linecap="round"/><g><g><path d="M376.46205,122.86645l58.22585,-18.98526c0,0 -3.75617,34.9939 -9.15748,52.33281c-5.82833,18.70973 -24.62903,56.1264 -24.62903,56.1264l-27.38577,-26.08442z" fill="#f3ca58" stroke="#000000" stroke-width="0" stroke-linecap="round"/><path d="M377.94192,177.61135c8.62833,5.97587 16.36272,11.55506 16.36272,11.55506c0,0 -8.66354,-3.96721 -17.29186,-9.94307c-8.62833,-5.97587 -15.63037,-10.8997 -14.83045,-12.05469c0.79992,-1.15498 7.13125,4.46684 15.75959,10.44268z" fill="#ff9600" stroke="#000000" stroke-width="0" stroke-linecap="butt"/><path d="M374.33039,157.14254c0.23192,-1.38566 8.35451,1.00479 18.70617,2.73743c10.35165,1.73264 19.72557,3.48704 19.72557,3.48704c0,0 -9.52814,0.09976 -19.8798,-1.63286c-10.35166,-1.73263 -18.78387,-3.20594 -18.55194,-4.5916z" fill="#ff9600" stroke="#000000" stroke-width="0" stroke-linecap="butt"/><g stroke="#000000" stroke-width="0" stroke-linecap="round"><g fill="#f2bc49"><path d="M376.24296,127.5798c0.1138,-2.44832 0.21909,-4.71335 0.21909,-4.71335l58.22585,-18.98526c0,0 -1.42236,13.25124 -3.77516,27.48541c-0.05059,0.30609 -54.67229,-3.73256 -54.66976,-3.78678z"/></g><g fill="#ffc72e"><path d="M376.46205,122.86645l58.22585,-18.98526c0,0 -1.10073,10.25491 -2.96733,22.41259c-0.00389,0.02533 -55.25852,-3.42731 -55.25852,-3.42731z"/></g><g fill="#ff9600"><path d="M404.47524,113.73238c9.8806,-3.2217 30.21265,-9.85121 30.21265,-9.85121c0,0 -0.18734,2.95039 -0.66589,6.6829c-0.17546,1.36856 -0.55178,2.83169 -0.74201,4.30817c-0.00165,0.01279 -28.99087,-1.07918 -28.80473,-1.13985z"/></g></g><path d="M430.7902,116.58022c-0.96444,-0.06308 -1.69513,-0.89605 -1.63205,-1.86049c0.06308,-0.96444 0.89605,-1.69513 1.86049,-1.63205c0.96444,0.06308 1.69513,0.89605 1.63205,1.86049c-0.06308,0.96444 -0.89605,1.69513 -1.86049,1.63205z" fill="#ff9600" stroke="none" stroke-width="0.5" stroke-linecap="butt"/><path d="M426.99274,117.26994c-0.64144,-0.04196 -1.1795,-0.42447 -1.44938,-0.95973c-0.26539,0.70063 -0.96446,1.17709 -1.75097,1.12564c-0.23121,-0.01512 -0.44897,-0.07449 -0.64559,-0.1693c-0.2073,0.06839 -0.43093,0.0989 -0.66214,0.08378c-0.96444,-0.06308 -1.69513,-0.89605 -1.63205,-1.86049c0.06308,-0.96444 0.89605,-1.69513 1.86049,-1.63205c0.23121,0.01512 0.44897,0.07449 0.64559,0.1693c0.2073,-0.06839 0.43093,-0.0989 0.66214,-0.08378c0.64146,0.04196 1.1795,0.42447 1.44938,0.95974c0.26539,-0.70063 0.96446,-1.1771 1.75097,-1.12565c0.96444,0.06308 1.69513,0.89605 1.63205,1.86049c-0.06308,0.96444 -0.89605,1.69513 -1.86049,1.63205z" fill="#ff9600" stroke="none" stroke-width="0.5" stroke-linecap="butt"/><path d="M418.99622,116.18406c-0.96444,-0.06308 -1.69513,-0.89605 -1.63205,-1.86049c0.06308,-0.96444 0.89605,-1.69513 1.86049,-1.63205c0.96444,0.06308 1.69513,0.89605 1.63205,1.86049c-0.06308,0.96444 -0.89605,1.69513 -1.86049,1.63205z" fill="#ff9600" stroke="none" stroke-width="0.5" stroke-linecap="butt"/><path d="M413.0689,114.85379c-0.02642,-0.14111 -0.03578,-0.28778 -0.02598,-0.43763c0.06308,-0.96444 0.89605,-1.69513 1.86049,-1.63205c0.96444,0.06308 1.69513,0.89605 1.63205,1.86049c-0.06308,0.96444 -0.89605,1.69513 -1.86049,1.63205c-0.14986,-0.0098 -0.29405,-0.03819 -0.43052,-0.08277c-0.0504,0.68367 -0.64282,1.20006 -1.32819,1.15523c-0.68888,-0.04506 -1.21082,-0.64004 -1.16576,-1.32892c0.04483,-0.68538 0.63398,-1.20548 1.31839,-1.16639z" fill="#ff9600" stroke="none" stroke-width="0.5" stroke-linecap="butt"/><path d="M409.81771,115.95896c-0.96444,-0.06308 -1.69513,-0.89605 -1.63205,-1.86049c0.06308,-0.96444 0.89605,-1.69513 1.86049,-1.63205c0.96444,0.06308 1.69513,0.89605 1.63205,1.86049c-0.06308,0.96444 -0.89605,1.69513 -1.86049,1.63205z" fill="#ff9600" stroke="none" stroke-width="0.5" stroke-linecap="butt"/><path d="M429.54661,121.25111c-0.68889,-0.04506 -1.21082,-0.64004 -1.16576,-1.32892c0.04506,-0.68888 0.64003,-1.21081 1.32892,-1.16576c0.68889,0.04506 1.21082,0.64004 1.16576,1.32892c-0.04506,0.68888 -0.64003,1.21081 -1.32892,1.16576z" fill="#ff9600" stroke="none" stroke-width="0.5" stroke-linecap="butt"/><path d="M422.49992,122.85399c-0.68889,-0.04506 -1.21082,-0.64004 -1.16576,-1.32892c0.04506,-0.68888 0.64003,-1.21081 1.32892,-1.16576c0.68889,0.04506 1.21082,0.64004 1.16576,1.32892c-0.04506,0.68888 -0.64003,1.21081 -1.32892,1.16576z" fill="#ff9600" stroke="none" stroke-width="0.5" stroke-linecap="butt"/><path d="M418.82113,118.86104c-0.68888,-0.04506 -1.21082,-0.64004 -1.16576,-1.32892c0.04506,-0.68888 0.64004,-1.21082 1.32892,-1.16576c0.68889,0.04506 1.21082,0.64004 1.16576,1.32892c-0.04506,0.68888 -0.64003,1.21081 -1.32892,1.16576z" fill="#ff9600" stroke="none" stroke-width="0.5" stroke-linecap="butt"/><path d="M403.58759,116.55133c-0.68889,-0.04506 -1.21082,-0.64004 -1.16576,-1.32892c0.04506,-0.68888 0.64003,-1.21081 1.32892,-1.16576c0.68889,0.04506 1.21082,0.64004 1.16576,1.32892c-0.04506,0.68888 -0.64003,1.21081 -1.32892,1.16576z" fill="#ff9600" stroke="none" stroke-width="0.5" stroke-linecap="butt"/><path d="M399.28209,119.27161c-0.68889,-0.04506 -1.21082,-0.64004 -1.16576,-1.32892c0.04506,-0.68888 0.64003,-1.21081 1.32892,-1.16576c0.68889,0.04506 1.21082,0.64004 1.16576,1.32892c-0.04506,0.68888 -0.64003,1.21081 -1.32892,1.16576z" fill="#ff9600" stroke="none" stroke-width="0.5" stroke-linecap="butt"/><path d="M429.39165,128.30865c-0.96444,-0.06308 -1.69513,-0.89605 -1.63205,-1.86049c0.06308,-0.96444 0.89605,-1.69513 1.86049,-1.63205c0.96444,0.06308 1.69513,0.89605 1.63205,1.86049c-0.06308,0.96444 -0.89605,1.69513 -1.86049,1.63205z" fill="#ffc72e" stroke="none" stroke-width="0.5" stroke-linecap="butt"/><path d="M424.22183,127.03241c-0.96444,-0.06308 -1.69513,-0.89605 -1.63205,-1.86049c0.06308,-0.96444 0.89605,-1.69513 1.86049,-1.63205c0.96444,0.06308 1.69513,0.89605 1.63205,1.86049c-0.06308,0.96444 -0.89605,1.69513 -1.86049,1.63205z" fill="#ffc72e" stroke="none" stroke-width="0.5" stroke-linecap="butt"/><path d="M416.43552,124.26585c0.20543,-0.06687 0.42679,-0.09655 0.65553,-0.0816c0.50676,0.03315 0.94898,0.27885 1.24543,0.64449c0.00854,0.00045 0.01709,0.00092 0.02565,0.00149c0.96444,0.06308 1.69513,0.89605 1.63205,1.86049c-0.06308,0.96444 -0.89605,1.69513 -1.86049,1.63205c-0.50676,-0.03315 -0.94898,-0.27885 -1.24543,-0.64449c-0.00854,-0.00045 -0.01709,-0.00092 -0.02565,-0.00149c-0.47512,-0.03108 -0.8935,-0.249 -1.18821,-0.57742c-0.20544,0.06687 -0.42679,0.09655 -0.65553,0.0816c-0.96444,-0.06308 -1.69513,-0.89605 -1.63205,-1.86049c0.06308,-0.96444 0.89605,-1.69513 1.86049,-1.63205c0.47512,0.03108 0.8935,0.249 1.18822,0.57743z" fill="#ffc72e" stroke="none" stroke-width="0.5" stroke-linecap="butt"/><path d="M405.51878,127.69391c-0.68889,-0.04506 -1.21082,-0.64004 -1.16576,-1.32892c0.03865,-0.59083 0.48181,-1.05886 1.0418,-1.15168c-0.25468,-0.32656 -0.39509,-0.74422 -0.36595,-1.18998c0.06308,-0.96444 0.89605,-1.69513 1.86049,-1.63205c0.53379,0.03491 0.99598,0.30567 1.29161,0.70402c0.34218,-0.46313 0.90559,-0.74793 1.52287,-0.70756c0.96444,0.06308 1.69513,0.89605 1.63205,1.86049c-0.06308,0.96444 -0.89605,1.69513 -1.86049,1.63205c-0.53379,-0.03491 -0.99597,-0.30568 -1.2916,-0.70403c-0.33158,0.44878 -0.8709,0.73012 -1.46567,0.71038c0.09645,0.19207 0.14458,0.41156 0.12954,0.64153c-0.04506,0.68888 -0.64003,1.21081 -1.32892,1.16576z" fill="#ffc72e" stroke="none" stroke-width="0.5" stroke-linecap="butt"/><path d="M402.36413,125.60277c-0.96444,-0.06308 -1.69513,-0.89605 -1.63205,-1.86049c0.06308,-0.96444 0.89605,-1.69513 1.86049,-1.63205c0.96444,0.06308 1.69513,0.89605 1.63205,1.86049c-0.06308,0.96444 -0.89605,1.69513 -1.86049,1.63205z" fill="#ffc72e" stroke="none" stroke-width="0.5" stroke-linecap="butt"/><path d="M391.68965,124.53254c-0.01887,-0.04208 -0.03609,-0.08503 -0.05163,-0.12873c-0.3464,0.39392 -0.86537,0.62841 -1.42928,0.59152c-0.63367,-0.04144 -1.16642,-0.41523 -1.43944,-0.94031c-0.33908,0.48504 -0.91599,0.78623 -1.54964,0.74479c-0.56392,-0.03689 -1.04792,-0.33698 -1.34005,-0.77266c-0.30826,0.6035 -0.95431,0.99783 -1.67347,0.9508c-0.96444,-0.06308 -1.69513,-0.89605 -1.63205,-1.86049c0.06308,-0.96444 0.89605,-1.69513 1.86049,-1.63205c0.56392,0.03689 1.04791,0.33698 1.34004,0.77266c0.30826,-0.6035 0.95431,-0.99783 1.67347,-0.9508c0.63367,0.04144 1.16641,0.41524 1.43943,0.94032c0.33908,-0.48504 0.916,-0.78624 1.54965,-0.7448c0.71916,0.04704 1.30836,0.52217 1.53537,1.16068c0.3464,-0.39392 0.86536,-0.62841 1.42928,-0.59152c0.71377,0.04669 1.29951,0.51507 1.5302,1.14635c0.33278,-0.27777 0.7687,-0.43312 1.2354,-0.40259c0.96444,0.06308 1.69513,0.89605 1.63205,1.86049c-0.06308,0.96444 -0.89605,1.69513 -1.86049,1.63205c-0.71378,-0.04669 -1.29951,-0.51507 -1.5302,-1.14635c-0.11729,0.0979 -0.24738,0.18059 -0.38712,0.2453c-0.15414,0.5598 -0.6845,0.95358 -1.28663,0.91419c-0.68889,-0.04506 -1.21082,-0.64004 -1.16576,-1.32892c0.01077,-0.16467 0.05295,-0.3198 0.12034,-0.45991z" fill="#ffc72e" stroke="none" stroke-width="0.5" stroke-linecap="butt"/><path d="M428.88713,133.1537c-0.96444,-0.06308 -1.69513,-0.89605 -1.63205,-1.86049c0.06308,-0.96444 0.89605,-1.69513 1.86049,-1.63205c0.96444,0.06308 1.69513,0.89605 1.63205,1.86049c-0.06308,0.96444 -0.89605,1.69513 -1.86049,1.63205z" fill="#f2bc49" stroke="none" stroke-width="0.5" stroke-linecap="butt"/><path d="M421.57627,130.19022c0.28134,-0.15367 0.60823,-0.23194 0.95179,-0.20947c0.51352,0.03358 0.96075,0.28544 1.2572,0.65918c0.23929,-0.74689 0.96273,-1.26445 1.78076,-1.21094c0.96444,0.06308 1.69513,0.89605 1.63205,1.86049c-0.06308,0.96444 -0.89605,1.69513 -1.86049,1.63205c-0.51352,-0.03358 -0.96076,-0.28544 -1.25721,-0.65918c-0.23929,0.74689 -0.96273,1.26445 -1.78076,1.21094c-0.34356,-0.02247 -0.65747,-0.14264 -0.91639,-0.33166c-0.28134,0.15367 -0.60822,0.23194 -0.95178,0.20947c-0.96444,-0.06308 -1.69513,-0.89605 -1.63205,-1.86049c0.06308,-0.96444 0.89605,-1.69513 1.86049,-1.63205c0.34356,0.02247 0.65746,0.14264 0.91638,0.33166z" fill="#f2bc49" stroke="none" stroke-width="0.5" stroke-linecap="butt"/><path d="M415.97225,132.6842c-0.96444,-0.06308 -1.69513,-0.89605 -1.63205,-1.86049c0.06308,-0.96444 0.89605,-1.69513 1.86049,-1.63205c0.96444,0.06308 1.69513,0.89605 1.63205,1.86049c-0.06308,0.96444 -0.89605,1.69513 -1.86049,1.63205z" fill="#f2bc49" stroke="none" stroke-width="0.5" stroke-linecap="butt"/><path d="M410.7355,128.91269c0.34576,-0.36895 0.8479,-0.58587 1.39185,-0.55029c0.96444,0.06308 1.69513,0.89605 1.63205,1.86049c-0.06308,0.96444 -0.89605,1.69513 -1.86049,1.63205c-0.1804,-0.0118 -0.35262,-0.05054 -0.51299,-0.11202c-0.34576,0.36895 -0.8479,0.58587 -1.39185,0.55029c-0.96444,-0.06308 -1.69513,-0.89605 -1.63205,-1.86049c0.06308,-0.96444 0.89605,-1.69513 1.86049,-1.63205c0.18041,0.0118 0.35262,0.05054 0.513,0.11202z" fill="#f2bc49" stroke="none" stroke-width="0.5" stroke-linecap="butt"/><path d="M403.61002,131.28646c-0.09955,0.01079 -0.2014,0.01315 -0.30475,0.00638c-0.56705,-0.03709 -1.0533,-0.34033 -1.34491,-0.77995c-0.33556,0.28995 -0.78083,0.4533 -1.25833,0.42207c-0.47749,-0.03123 -0.89769,-0.25117 -1.19262,-0.58236c-0.34639,0.3979 -0.86799,0.63521 -1.43504,0.59812c-0.96444,-0.06308 -1.69513,-0.89605 -1.63205,-1.86049c0.06308,-0.96444 0.89605,-1.69513 1.86049,-1.63205c0.4775,0.03123 0.89769,0.25117 1.19262,0.58236c0.34639,-0.3979 0.86799,-0.63521 1.43505,-0.59812c0.56705,0.03709 1.0533,0.34033 1.34492,0.77996c0.33556,-0.28995 0.78083,-0.4533 1.25832,-0.42206c0.71377,0.04669 1.29951,0.51507 1.5302,1.14635c0.33278,-0.27777 0.7687,-0.43313 1.2354,-0.4026c0.96444,0.06308 1.69513,0.89605 1.63205,1.86049c-0.06308,0.96444 -0.89605,1.69513 -1.86049,1.63205c-0.08007,-0.00524 -0.15853,-0.01579 -0.23507,-0.03127c-0.24653,0.30842 -0.63486,0.49536 -1.05875,0.46763c-0.64091,-0.04192 -1.13729,-0.55982 -1.16705,-1.18649z" fill="#f2bc49" stroke="none" stroke-width="0.5" stroke-linecap="butt"/><path d="M394.37466,130.14588c-0.96444,-0.06308 -1.69513,-0.89605 -1.63205,-1.86049c0.06308,-0.96444 0.89605,-1.69513 1.86049,-1.63205c0.96444,0.06308 1.69513,0.89605 1.63205,1.86049c-0.06308,0.96444 -0.89605,1.69513 -1.86049,1.63205z" fill="#f2bc49" stroke="none" stroke-width="0.5" stroke-linecap="butt"/><path d="M390.77625,130.66099c-0.96444,-0.06308 -1.69513,-0.89605 -1.63205,-1.86049c0.06308,-0.96444 0.89605,-1.69513 1.86049,-1.63205c0.96444,0.06308 1.69513,0.89605 1.63205,1.86049c-0.06308,0.96444 -0.89605,1.69513 -1.86049,1.63205z" fill="#f2bc49" stroke="none" stroke-width="0.5" stroke-linecap="butt"/><path d="M424.99038,130.14755c-0.68888,-0.04506 -1.21082,-0.64004 -1.16576,-1.32892c0.04506,-0.68888 0.64004,-1.21082 1.32892,-1.16576c0.68889,0.04506 1.21082,0.64004 1.16576,1.32892c-0.04506,0.68888 -0.64003,1.21081 -1.32892,1.16576z" fill="#ffc72e" stroke="none" stroke-width="0.5" stroke-linecap="butt"/><path d="M411.96304,127.57902c-0.68889,-0.04506 -1.21082,-0.64004 -1.16576,-1.32892c0.04506,-0.68888 0.64003,-1.21081 1.32892,-1.16576c0.68888,0.04506 1.21082,0.64004 1.16576,1.32892c-0.04506,0.68888 -0.64004,1.21082 -1.32892,1.16576z" fill="#ffc72e" stroke="none" stroke-width="0.5" stroke-linecap="butt"/><path d="M399.07451,127.80881c-0.68889,-0.04506 -1.21082,-0.64004 -1.16576,-1.32892c0.04506,-0.68888 0.64003,-1.21081 1.32892,-1.16576c0.68889,0.04506 1.21082,0.64004 1.16576,1.32892c-0.04506,0.68888 -0.64003,1.21081 -1.32892,1.16576z" fill="#ffc72e" stroke="none" stroke-width="0.5" stroke-linecap="butt"/><path d="M424.68002,138.1732c-0.68889,-0.04506 -1.21082,-0.64004 -1.16576,-1.32892c0.04506,-0.68888 0.64003,-1.21081 1.32892,-1.16576c0.68889,0.04506 1.21082,0.64004 1.16576,1.32892c-0.04506,0.68888 -0.64003,1.21081 -1.32892,1.16576z" fill="#f2bc49" stroke="none" stroke-width="0.5" stroke-linecap="butt"/><path d="M419.62443,138.37892c-0.68888,-0.04506 -1.21081,-0.64003 -1.16576,-1.32892c0.04506,-0.68888 0.64004,-1.21082 1.32892,-1.16576c0.68889,0.04506 1.21081,0.64003 1.16576,1.32892c-0.04506,0.68889 -0.64003,1.21081 -1.32892,1.16576z" fill="#f2bc49" stroke="none" stroke-width="0.5" stroke-linecap="butt"/><path d="M415.36552,137.88581c-0.68888,-0.04506 -1.21081,-0.64003 -1.16576,-1.32892c0.04506,-0.68888 0.64004,-1.21082 1.32892,-1.16576c0.68889,0.04506 1.21081,0.64003 1.16576,1.32892c-0.04506,0.68889 -0.64003,1.21081 -1.32892,1.16576z" fill="#f2bc49" stroke="none" stroke-width="0.5" stroke-linecap="butt"/><path d="M405.87729,135.33419c-0.68889,-0.04506 -1.21082,-0.64004 -1.16576,-1.32892c0.04506,-0.68888 0.64003,-1.21081 1.32892,-1.16576c0.68889,0.04506 1.21082,0.64004 1.16576,1.32892c-0.04506,0.68888 -0.64003,1.21081 -1.32892,1.16576z" fill="#f2bc49" stroke="none" stroke-width="0.5" stroke-linecap="butt"/><path d="M399.98607,133.55424c-0.68889,-0.04506 -1.21082,-0.64004 -1.16576,-1.32892c0.04506,-0.68888 0.64003,-1.21081 1.32892,-1.16576c0.68889,0.04506 1.21082,0.64004 1.16576,1.32892c-0.04506,0.68888 -0.64003,1.21081 -1.32892,1.16576z" fill="#f2bc49" stroke="none" stroke-width="0.5" stroke-linecap="butt"/><path d="M395.72219,134.77725c-0.68889,-0.04506 -1.21082,-0.64004 -1.16576,-1.32892c0.04506,-0.68888 0.64003,-1.21081 1.32892,-1.16576c0.68889,0.04506 1.21082,0.64004 1.16576,1.32892c-0.04506,0.68888 -0.64003,1.21081 -1.32892,1.16576z" fill="#f2bc49" stroke="none" stroke-width="0.5" stroke-linecap="butt"/><path d="M392.85895,134.26814c-0.68889,-0.04506 -1.21082,-0.64004 -1.16576,-1.32892c0.04506,-0.68888 0.64003,-1.21081 1.32892,-1.16576c0.68889,0.04506 1.21082,0.64004 1.16576,1.32892c-0.04506,0.68888 -0.64003,1.21081 -1.32892,1.16576z" fill="#f2bc49" stroke="none" stroke-width="0.5" stroke-linecap="butt"/><path d="M422.45944,140.95983c-0.41333,-0.02704 -0.72648,-0.38401 -0.69945,-0.79734c0.02704,-0.41333 0.38401,-0.72648 0.79734,-0.69945c0.41333,0.02704 0.72648,0.38401 0.69945,0.79734c-0.02704,0.41333 -0.38401,0.72648 -0.79734,0.69945z" fill="#f2bc49" stroke="none" stroke-width="0.5" stroke-linecap="butt"/><path d="M413.92268,141.90338c-0.41333,-0.02704 -0.72648,-0.38401 -0.69945,-0.79734c0.02704,-0.41333 0.38401,-0.72648 0.79734,-0.69945c0.41333,0.02704 0.72648,0.38401 0.69945,0.79734c-0.02704,0.41333 -0.38401,0.72648 -0.79734,0.69945z" fill="#f2bc49" stroke="none" stroke-width="0.5" stroke-linecap="butt"/><path d="M400.38622,142.19807c-0.41333,-0.02704 -0.72648,-0.38401 -0.69945,-0.79734c0.02704,-0.41333 0.38401,-0.72648 0.79734,-0.69945c0.41333,0.02704 0.72648,0.38401 0.69945,0.79734c-0.02704,0.41333 -0.38401,0.72648 -0.79734,0.69945z" fill="#f2bc49" stroke="none" stroke-width="0.5" stroke-linecap="butt"/><path d="M421.5069,130.92055c-0.41333,-0.02704 -0.72648,-0.38402 -0.69945,-0.79734c0.02704,-0.41332 0.38401,-0.72648 0.79734,-0.69945c0.41333,0.02704 0.72648,0.38402 0.69945,0.79734c-0.02704,0.41332 -0.38401,0.72648 -0.79734,0.69945z" fill="#ffc72e" stroke="none" stroke-width="0.5" stroke-linecap="butt"/><path d="M405.06325,129.73775c-0.41333,-0.02704 -0.72648,-0.38402 -0.69945,-0.79734c0.02704,-0.41332 0.38401,-0.72648 0.79734,-0.69945c0.41333,0.02704 0.72648,0.38402 0.69945,0.79734c-0.02704,0.41332 -0.38401,0.72648 -0.79734,0.69945z" fill="#ffc72e" stroke="none" stroke-width="0.5" stroke-linecap="butt"/><path d="M390.83292,127.51963c-0.41333,-0.02704 -0.72648,-0.38402 -0.69945,-0.79734c0.02704,-0.41332 0.38401,-0.72648 0.79734,-0.69945c0.41333,0.02704 0.72648,0.38402 0.69945,0.79734c-0.02704,0.41332 -0.38401,0.72648 -0.79734,0.69945z" fill="#ffc72e" stroke="none" stroke-width="0.5" stroke-linecap="butt"/><path d="M365.67207,142.02057c-0.54558,-1.29468 7.59532,-3.62197 17.26726,-7.69782c9.67194,-4.07585 18.52955,-7.61009 18.52955,-7.61009c0,0 -7.99566,5.18312 -17.66759,9.25896c-9.67194,4.07584 -17.58361,7.34361 -18.12919,6.04895z" fill="#ff9600" stroke="#000000" stroke-width="0" stroke-linecap="butt"/></g><g><path d="M268.36024,179.37812l-30.55011,22.29502c0,0 -13.76677,-39.54681 -17.10839,-58.85631c-3.09679,-17.89476 -2.26277,-53.07979 -2.26277,-53.07979l55.25683,26.40779z" fill="#f3ca58" stroke="#000000" stroke-width="0" stroke-linecap="round"/><path d="M282.0832,161.92963c0.64265,1.24933 -6.94109,5.21917 -16.2743,10.02021c-9.3332,4.80106 -18.43968,7.60599 -18.43968,7.60599c0,0 8.39522,-4.52422 17.72844,-9.32526c9.33321,-4.80106 16.34288,-9.55027 16.98555,-8.30093z" fill="#ff9600" stroke="#000000" stroke-width="0" stroke-linecap="butt"/><path d="M271.3446,150.40657c0.04945,1.40405 -8.50283,1.76646 -18.99197,2.13597c-10.48916,0.3695 -19.92312,-0.97052 -19.92312,-0.97052c0,0 9.52258,-0.51844 20.01173,-0.88795c10.48916,-0.3695 18.85391,-1.68157 18.90337,-0.2775z" fill="#ff9600" stroke="#000000" stroke-width="0" stroke-linecap="butt"/><g stroke="#000000" stroke-width="0" stroke-linecap="round"><g fill="#f2bc49"><path d="M218.6018,117.48002c-0.47867,-14.41936 -0.16286,-27.74297 -0.16286,-27.74297l55.25683,26.40779c0,0 -0.19064,2.25944 -0.39672,4.70173c-0.00456,0.0541 -54.68697,-3.0565 -54.69725,-3.36656z"/></g><g fill="#ffc72e"><path d="M218.46163,112.34518c-0.26708,-12.29722 -0.02267,-22.60814 -0.02267,-22.60814l55.25683,26.40779c0,0 -55.23361,-3.77403 -55.23417,-3.79965z"/></g><g fill="#ff9600"><path d="M218.40322,100.81787c0.0037,-1.48867 -0.17883,-2.98837 -0.17453,-4.36812c0.01171,-3.76306 0.21027,-6.7127 0.21027,-6.7127c0,0 19.29529,9.22142 28.67207,13.70266c0.17664,0.08441 -28.70783,-2.60895 -28.7078,-2.62185z"/></g></g><path d="M219.01725,100.9751c0.06308,-0.96444 0.89605,-1.69513 1.86049,-1.63205c0.96444,0.06308 1.69513,0.89605 1.63205,1.86049c-0.06308,0.96444 -0.89605,1.69513 -1.86049,1.63205c-0.96444,-0.06308 -1.69513,-0.89605 -1.63205,-1.86049z" fill="#ff9600" stroke="none" stroke-width="0.5" stroke-linecap="butt"/><path d="M222.69252,102.15358c0.06308,-0.96444 0.89605,-1.69513 1.86049,-1.63205c0.7865,0.05145 1.41757,0.61491 1.58943,1.34413c0.3373,-0.49554 0.9206,-0.80473 1.56205,-0.76276c0.23121,0.01512 0.44897,0.07449 0.64559,0.1693c0.2073,-0.06839 0.43093,-0.0989 0.66214,-0.08378c0.96444,0.06308 1.69513,0.89605 1.63205,1.86049c-0.06308,0.96444 -0.89605,1.69513 -1.86049,1.63205c-0.23121,-0.01512 -0.44897,-0.07449 -0.64559,-0.1693c-0.2073,0.06839 -0.43093,0.0989 -0.66214,0.08378c-0.7865,-0.05145 -1.41757,-0.6149 -1.58943,-1.34412c-0.3373,0.49554 -0.9206,0.80472 -1.56204,0.76275c-0.96444,-0.06308 -1.69513,-0.89605 -1.63205,-1.86049z" fill="#ff9600" stroke="none" stroke-width="0.5" stroke-linecap="butt"/><path d="M230.76235,102.11855c0.06308,-0.96444 0.89605,-1.69513 1.86049,-1.63205c0.96444,0.06308 1.69513,0.89605 1.63205,1.86049c-0.06308,0.96444 -0.89605,1.69513 -1.86049,1.63205c-0.96444,-0.06308 -1.69513,-0.89605 -1.63205,-1.86049z" fill="#ff9600" stroke="none" stroke-width="0.5" stroke-linecap="butt"/><path d="M239.59972,104.76036c-0.04506,0.68888 -0.64003,1.21081 -1.32892,1.16576c-0.68538,-0.04483 -1.20548,-0.63398 -1.1664,-1.31839c-0.14111,0.02642 -0.28778,0.03578 -0.43763,0.02598c-0.96444,-0.06308 -1.69513,-0.89605 -1.63205,-1.86049c0.06308,-0.96444 0.89605,-1.69513 1.86049,-1.63205c0.96444,0.06308 1.69513,0.89605 1.63205,1.86049c-0.0098,0.14986 -0.03818,0.29406 -0.08277,0.43052c0.68367,0.0504 1.20005,0.64282 1.15522,1.32819z" fill="#ff9600" stroke="none" stroke-width="0.5" stroke-linecap="butt"/><path d="M239.892,103.09091c0.06308,-0.96444 0.89605,-1.69513 1.86049,-1.63205c0.96444,0.06308 1.69513,0.89605 1.63205,1.86049c-0.06308,0.96444 -0.89605,1.69513 -1.86049,1.63205c-0.96444,-0.06308 -1.69513,-0.89605 -1.63205,-1.86049z" fill="#ff9600" stroke="none" stroke-width="0.5" stroke-linecap="butt"/><path d="M220.10815,106.29974c0.04506,-0.68888 0.64003,-1.21081 1.32892,-1.16576c0.68889,0.04506 1.21082,0.64004 1.16576,1.32892c-0.04506,0.68888 -0.64003,1.21081 -1.32892,1.16576c-0.68889,-0.04506 -1.21082,-0.64004 -1.16576,-1.32892z" fill="#ff9600" stroke="none" stroke-width="0.5" stroke-linecap="butt"/><path d="M226.88601,108.80685c0.04506,-0.68888 0.64003,-1.21081 1.32892,-1.16576c0.68889,0.04506 1.21082,0.64004 1.16576,1.32892c-0.04506,0.68888 -0.64003,1.21081 -1.32892,1.16576c-0.68889,-0.04506 -1.21082,-0.64004 -1.16576,-1.32892z" fill="#ff9600" stroke="none" stroke-width="0.5" stroke-linecap="butt"/><path d="M231.05356,105.32709c0.04506,-0.68888 0.64003,-1.21081 1.32892,-1.16576c0.68889,0.04506 1.21082,0.64004 1.16576,1.32892c-0.04506,0.68888 -0.64003,1.21081 -1.32892,1.16576c-0.68889,-0.04506 -1.21082,-0.64004 -1.16576,-1.32892z" fill="#ff9600" stroke="none" stroke-width="0.5" stroke-linecap="butt"/><path d="M246.45817,105.02133c0.04506,-0.68889 0.64003,-1.21081 1.32892,-1.16576c0.68889,0.04506 1.21081,0.64003 1.16576,1.32892c-0.04506,0.68889 -0.64003,1.21081 -1.32892,1.16576c-0.68889,-0.04506 -1.21081,-0.64003 -1.16576,-1.32892z" fill="#ff9600" stroke="none" stroke-width="0.5" stroke-linecap="butt"/><path d="M250.37266,108.27923c0.04506,-0.68889 0.64003,-1.21081 1.32892,-1.16576c0.68889,0.04506 1.21081,0.64003 1.16576,1.32892c-0.04506,0.68889 -0.64003,1.21081 -1.32892,1.16576c-0.68889,-0.04506 -1.21081,-0.64003 -1.16576,-1.32892z" fill="#ff9600" stroke="none" stroke-width="0.5" stroke-linecap="butt"/><path d="M218.87619,112.78577c0.06308,-0.96444 0.89605,-1.69513 1.86049,-1.63205c0.96444,0.06308 1.69513,0.89605 1.63205,1.86049c-0.06308,0.96444 -0.89605,1.69513 -1.86049,1.63205c-0.96444,-0.06308 -1.69513,-0.89605 -1.63205,-1.86049z" fill="#ffc72e" stroke="none" stroke-width="0.5" stroke-linecap="butt"/><path d="M224.16818,112.19381c0.06308,-0.96444 0.89605,-1.69513 1.86049,-1.63205c0.96444,0.06308 1.69513,0.89605 1.63205,1.86049c-0.06308,0.96444 -0.89605,1.69513 -1.86049,1.63205c-0.96444,-0.06308 -1.69513,-0.89605 -1.63205,-1.86049z" fill="#ffc72e" stroke="none" stroke-width="0.5" stroke-linecap="butt"/><path d="M235.13388,111.90777c0.96444,0.06308 1.69513,0.89605 1.63205,1.86049c-0.06308,0.96444 -0.89605,1.69513 -1.86049,1.63205c-0.22874,-0.01496 -0.44434,-0.07323 -0.63932,-0.16629c-0.33497,0.28725 -0.77818,0.44882 -1.25331,0.41775c-0.00857,-0.00056 -0.0171,-0.00118 -0.02562,-0.00186c-0.34155,0.32392 -0.812,0.50993 -1.31876,0.47678c-0.96444,-0.06308 -1.69513,-0.89605 -1.63205,-1.86049c0.06308,-0.96444 0.89605,-1.69513 1.86049,-1.63205c0.00857,0.00056 0.0171,0.00118 0.02562,0.00186c0.34155,-0.32392 0.812,-0.50993 1.31876,-0.47678c0.22874,0.01496 0.44434,0.07323 0.63932,0.16629c0.33497,-0.28725 0.77818,-0.44882 1.25331,-0.41775z" fill="#ffc72e" stroke="none" stroke-width="0.5" stroke-linecap="butt"/><path d="M243.09204,115.81744c0.01505,-0.22996 0.09135,-0.44132 0.212,-0.6192c-0.59227,-0.05791 -1.09036,-0.40708 -1.36064,-0.89524c-0.345,0.35646 -0.83852,0.56469 -1.37231,0.52979c-0.96444,-0.06308 -1.69513,-0.89605 -1.63205,-1.86049c0.06308,-0.96444 0.89605,-1.69513 1.86049,-1.63205c0.61728,0.04038 1.13881,0.39613 1.41774,0.89989c0.345,-0.35646 0.83852,-0.56469 1.37231,-0.52979c0.96444,0.06308 1.69513,0.89605 1.63205,1.86049c-0.02915,0.44575 -0.22277,0.84157 -0.51783,1.13218c0.54313,0.16498 0.92156,0.68674 0.88292,1.27757c-0.04506,0.68889 -0.64003,1.21081 -1.32892,1.16576c-0.68889,-0.04506 -1.21081,-0.64003 -1.16576,-1.32892z" fill="#ffc72e" stroke="none" stroke-width="0.5" stroke-linecap="butt"/><path d="M246.0259,113.62345c0.06308,-0.96444 0.89605,-1.69513 1.86049,-1.63205c0.96444,0.06308 1.69513,0.89605 1.63205,1.86049c-0.06308,0.96444 -0.89605,1.69513 -1.86049,1.63205c-0.96444,-0.06308 -1.69513,-0.89605 -1.63205,-1.86049z" fill="#ffc72e" stroke="none" stroke-width="0.5" stroke-linecap="butt"/><path d="M258.44032,116.28491c-0.04506,0.68889 -0.64003,1.21081 -1.32892,1.16576c-0.60212,-0.03938 -1.07668,-0.49889 -1.15659,-1.074c-0.13011,-0.08236 -0.24833,-0.18129 -0.35187,-0.29362c-0.31095,0.59585 -0.95271,0.98395 -1.66648,0.93726c-0.96444,-0.06308 -1.69513,-0.89605 -1.63205,-1.86049c0.06308,-0.96444 0.89605,-1.69513 1.86049,-1.63205c0.4667,0.03053 0.87867,0.24133 1.17245,0.56009c0.31095,-0.59585 0.95271,-0.98395 1.66648,-0.93726c0.56392,0.03689 1.04791,0.33698 1.34004,0.77267c0.30826,-0.6035 0.95431,-0.99783 1.67347,-0.9508c0.63367,0.04144 1.16642,0.41524 1.43944,0.94032c0.33908,-0.48503 0.91599,-0.78624 1.54965,-0.7448c0.71916,0.04704 1.30836,0.52217 1.53537,1.16068c0.3464,-0.39392 0.86537,-0.62842 1.42927,-0.59154c0.96444,0.06308 1.69513,0.89605 1.63205,1.86049c-0.06308,0.96444 -0.89605,1.69513 -1.86049,1.63205c-0.71916,-0.04704 -1.30836,-0.52217 -1.53537,-1.16068c-0.3464,0.39392 -0.86537,0.62842 -1.42927,0.59154c-0.63367,-0.04144 -1.16642,-0.41524 -1.43944,-0.94032c-0.33908,0.48503 -0.91599,0.78624 -1.54965,0.7448c-0.56392,-0.03689 -1.04791,-0.33698 -1.34004,-0.77267c-0.0211,0.0413 -0.04379,0.08163 -0.06796,0.12091c0.04855,0.14771 0.07018,0.30701 0.05941,0.47167z" fill="#ffc72e" stroke="none" stroke-width="0.5" stroke-linecap="butt"/><path d="M218.74531,117.65525c0.06308,-0.96444 0.89605,-1.69513 1.86049,-1.63205c0.96444,0.06308 1.69513,0.89605 1.63205,1.86049c-0.06308,0.96444 -0.89605,1.69513 -1.86049,1.63205c-0.96444,-0.06308 -1.69513,-0.89605 -1.63205,-1.86049z" fill="#f2bc49" stroke="none" stroke-width="0.5" stroke-linecap="butt"/><path d="M228.96372,117.32033c0.96444,0.06308 1.69513,0.89605 1.63205,1.86049c-0.06308,0.96444 -0.89605,1.69513 -1.86049,1.63205c-0.34356,-0.02247 -0.65747,-0.14264 -0.91639,-0.33166c-0.28134,0.15367 -0.60823,0.23194 -0.95179,0.20947c-0.81803,-0.05351 -1.4679,-0.6609 -1.60786,-1.43258c-0.34259,0.33195 -0.81884,0.52339 -1.33234,0.4898c-0.96444,-0.06308 -1.69513,-0.89605 -1.63205,-1.86049c0.06308,-0.96444 0.89605,-1.69513 1.86049,-1.63205c0.81803,0.05351 1.4679,0.6609 1.60786,1.43258c0.34259,-0.33195 0.81884,-0.52339 1.33234,-0.4898c0.34356,0.02247 0.65747,0.14264 0.91639,0.33166c0.28134,-0.15367 0.60823,-0.23194 0.95179,-0.20947z" fill="#f2bc49" stroke="none" stroke-width="0.5" stroke-linecap="butt"/><path d="M231.61131,118.87202c0.06308,-0.96444 0.89605,-1.69513 1.86049,-1.63205c0.96444,0.06308 1.69513,0.89605 1.63205,1.86049c-0.06308,0.96444 -0.89605,1.69513 -1.86049,1.63205c-0.96444,-0.06308 -1.69513,-0.89605 -1.63205,-1.86049z" fill="#f2bc49" stroke="none" stroke-width="0.5" stroke-linecap="butt"/><path d="M239.44998,117.63097c0.96444,0.06308 1.69513,0.89605 1.63205,1.86049c-0.06308,0.96444 -0.89605,1.69513 -1.86049,1.63205c-0.54395,-0.03558 -1.01354,-0.31606 -1.3083,-0.72689c-0.16702,0.04008 -0.34282,0.05605 -0.52323,0.04425c-0.96444,-0.06308 -1.69513,-0.89605 -1.63205,-1.86049c0.06308,-0.96444 0.89605,-1.69513 1.86049,-1.63205c0.54395,0.03558 1.01354,0.31606 1.3083,0.72689c0.16702,-0.04008 0.34282,-0.05605 0.52323,-0.04425z" fill="#f2bc49" stroke="none" stroke-width="0.5" stroke-linecap="butt"/><path d="M244.37067,121.9813c-0.42389,-0.02773 -0.78455,-0.26365 -0.98881,-0.60157c-0.0779,0.00539 -0.15707,0.00562 -0.23713,0.00038c-0.96444,-0.06308 -1.69513,-0.89605 -1.63205,-1.86049c0.06308,-0.96444 0.89605,-1.69513 1.86049,-1.63205c0.4667,0.03053 0.87867,0.24133 1.17245,0.56009c0.31095,-0.59585 0.95271,-0.98395 1.66648,-0.93726c0.47749,0.03123 0.89769,0.25118 1.19262,0.58236c0.34639,-0.39789 0.86799,-0.63521 1.43505,-0.59812c0.56705,0.03709 1.0533,0.34033 1.34492,0.77996c0.33556,-0.28995 0.78083,-0.4533 1.25832,-0.42206c0.96444,0.06308 1.69513,0.89605 1.63205,1.86049c-0.06308,0.96444 -0.89605,1.69513 -1.86049,1.63205c-0.56705,-0.03709 -1.0533,-0.34033 -1.34492,-0.77996c-0.33556,0.28995 -0.78083,0.4533 -1.25832,0.42206c-0.47749,-0.03123 -0.89769,-0.25118 -1.19262,-0.58236c-0.34639,0.39789 -0.86799,0.63521 -1.43505,0.59812c-0.10336,-0.00677 -0.20402,-0.02237 -0.30133,-0.04602c-0.11113,0.61746 -0.67075,1.06629 -1.31166,1.02437z" fill="#f2bc49" stroke="none" stroke-width="0.5" stroke-linecap="butt"/><path d="M253.35553,119.16853c0.06308,-0.96444 0.89605,-1.69513 1.86049,-1.63205c0.96444,0.06308 1.69513,0.89605 1.63205,1.86049c-0.06308,0.96444 -0.89605,1.69513 -1.86049,1.63205c-0.96444,-0.06308 -1.69513,-0.89605 -1.63205,-1.86049z" fill="#f2bc49" stroke="none" stroke-width="0.5" stroke-linecap="butt"/><path d="M256.85619,120.14795c0.06308,-0.96444 0.89605,-1.69513 1.86049,-1.63205c0.96444,0.06308 1.69513,0.89605 1.63205,1.86049c-0.06308,0.96444 -0.89605,1.69513 -1.86049,1.63205c-0.96444,-0.06308 -1.69513,-0.89605 -1.63205,-1.86049z" fill="#f2bc49" stroke="none" stroke-width="0.5" stroke-linecap="butt"/><path d="M223.46673,115.71388c0.04506,-0.68889 0.64003,-1.21081 1.32892,-1.16576c0.68889,0.04506 1.21081,0.64003 1.16576,1.32892c-0.04506,0.68889 -0.64003,1.21081 -1.32892,1.16576c-0.68889,-0.04506 -1.21081,-0.64003 -1.16576,-1.32892z" fill="#ffc72e" stroke="none" stroke-width="0.5" stroke-linecap="butt"/><path d="M236.71764,114.8641c0.04506,-0.68889 0.64003,-1.21081 1.32892,-1.16576c0.68889,0.04506 1.21081,0.64003 1.16576,1.32892c-0.04506,0.68889 -0.64003,1.21081 -1.32892,1.16576c-0.68889,-0.04506 -1.21081,-0.64003 -1.16576,-1.32892z" fill="#ffc72e" stroke="none" stroke-width="0.5" stroke-linecap="butt"/><path d="M249.46644,116.77076c0.04506,-0.68889 0.64003,-1.21081 1.32892,-1.16576c0.68889,0.04506 1.21081,0.64003 1.16576,1.32892c-0.04506,0.68889 -0.64003,1.21081 -1.32892,1.16576c-0.68889,-0.04506 -1.21081,-0.64003 -1.16576,-1.32892z" fill="#ffc72e" stroke="none" stroke-width="0.5" stroke-linecap="butt"/><path d="M222.72907,123.71157c0.04506,-0.68889 0.64003,-1.21081 1.32892,-1.16576c0.68889,0.04506 1.21081,0.64003 1.16576,1.32892c-0.04506,0.68889 -0.64003,1.21081 -1.32892,1.16576c-0.68889,-0.04506 -1.21081,-0.64003 -1.16576,-1.32892z" fill="#f2bc49" stroke="none" stroke-width="0.5" stroke-linecap="butt"/><path d="M227.71478,124.57407c0.04506,-0.68889 0.64003,-1.21081 1.32892,-1.16576c0.68889,0.04506 1.21081,0.64003 1.16576,1.32892c-0.04506,0.68889 -0.64003,1.21081 -1.32892,1.16576c-0.68889,-0.04506 -1.21081,-0.64003 -1.16576,-1.32892z" fill="#f2bc49" stroke="none" stroke-width="0.5" stroke-linecap="butt"/><path d="M232.00164,124.6399c0.04506,-0.68889 0.64003,-1.21081 1.32892,-1.16576c0.68889,0.04506 1.21081,0.64003 1.16576,1.32892c-0.04506,0.68889 -0.64003,1.21081 -1.32892,1.16576c-0.68889,-0.04506 -1.21081,-0.64003 -1.16576,-1.32892z" fill="#f2bc49" stroke="none" stroke-width="0.5" stroke-linecap="butt"/><path d="M241.7414,123.34592c0.04506,-0.68889 0.64003,-1.21081 1.32892,-1.16576c0.68889,0.04506 1.21081,0.64003 1.16576,1.32892c-0.04506,0.68889 -0.64003,1.21081 -1.32892,1.16576c-0.68889,-0.04506 -1.21081,-0.64003 -1.16576,-1.32892z" fill="#f2bc49" stroke="none" stroke-width="0.5" stroke-linecap="butt"/><path d="M247.81427,122.34849c0.04506,-0.68889 0.64003,-1.21081 1.32892,-1.16576c0.68889,0.04506 1.21081,0.64003 1.16576,1.32892c-0.04506,0.68889 -0.64003,1.21081 -1.32892,1.16576c-0.68889,-0.04506 -1.21081,-0.64003 -1.16576,-1.32892z" fill="#f2bc49" stroke="none" stroke-width="0.5" stroke-linecap="butt"/><path d="M251.88252,124.11649c0.04506,-0.68889 0.64003,-1.21081 1.32892,-1.16576c0.68889,0.04506 1.21081,0.64003 1.16576,1.32892c-0.04506,0.68889 -0.64003,1.21081 -1.32892,1.16576c-0.68889,-0.04506 -1.21081,-0.64003 -1.16576,-1.32892z" fill="#f2bc49" stroke="none" stroke-width="0.5" stroke-linecap="butt"/><path d="M254.78768,123.98467c0.04506,-0.68889 0.64003,-1.21081 1.32892,-1.16576c0.68889,0.04506 1.21081,0.64003 1.16576,1.32892c-0.04506,0.68889 -0.64003,1.21081 -1.32892,1.16576c-0.68889,-0.04506 -1.21081,-0.64003 -1.16576,-1.32892z" fill="#f2bc49" stroke="none" stroke-width="0.5" stroke-linecap="butt"/><path d="M225.03404,127.29526c0.02704,-0.41332 0.38402,-0.72648 0.79734,-0.69945c0.41332,0.02704 0.72648,0.38402 0.69945,0.79734c-0.02704,0.41332 -0.38402,0.72648 -0.79734,0.69945c-0.41332,-0.02704 -0.72648,-0.38402 -0.69945,-0.79734z" fill="#f2bc49" stroke="none" stroke-width="0.5" stroke-linecap="butt"/><path d="M233.37517,129.34273c0.02704,-0.41332 0.38402,-0.72648 0.79734,-0.69945c0.41332,0.02704 0.72648,0.38402 0.69945,0.79734c-0.02704,0.41332 -0.38402,0.72648 -0.79734,0.69945c-0.41332,-0.02704 -0.72648,-0.38402 -0.69945,-0.79734z" fill="#f2bc49" stroke="none" stroke-width="0.5" stroke-linecap="butt"/><path d="M246.75792,131.39814c0.02704,-0.41332 0.38402,-0.72648 0.79734,-0.69945c0.41332,0.02704 0.72648,0.38402 0.69945,0.79734c-0.02704,0.41332 -0.38402,0.72648 -0.79734,0.69945c-0.41332,-0.02704 -0.72648,-0.38402 -0.69945,-0.79734z" fill="#f2bc49" stroke="none" stroke-width="0.5" stroke-linecap="butt"/><path d="M227.28615,117.4656c0.02704,-0.41332 0.38402,-0.72648 0.79734,-0.69945c0.41332,0.02704 0.72648,0.38402 0.69945,0.79734c-0.02704,0.41332 -0.38402,0.72648 -0.79734,0.69945c-0.41332,-0.02704 -0.72648,-0.38402 -0.69945,-0.79734z" fill="#ffc72e" stroke="none" stroke-width="0.5" stroke-linecap="butt"/><path d="M243.74376,118.43477c0.02704,-0.41332 0.38402,-0.72648 0.79734,-0.69945c0.41332,0.02704 0.72648,0.38402 0.69945,0.79734c-0.02704,0.41332 -0.38402,0.72648 -0.79734,0.69945c-0.41332,-0.02704 -0.72648,-0.38402 -0.69945,-0.79734z" fill="#ffc72e" stroke="none" stroke-width="0.5" stroke-linecap="butt"/><path d="M258.14179,118.08913c0.02704,-0.41332 0.38402,-0.72648 0.79734,-0.69945c0.41332,0.02704 0.72648,0.38402 0.69945,0.79734c-0.02704,0.41332 -0.38402,0.72648 -0.79734,0.69945c-0.41332,-0.02704 -0.72648,-0.38402 -0.69945,-0.79734z" fill="#ffc72e" stroke="none" stroke-width="0.5" stroke-linecap="butt"/><path d="M281.89886,136.54122c-0.70957,1.21257 -8.12819,-3.0579 -17.18682,-8.35885c-9.05863,-5.30095 -16.31104,-11.4814 -16.31104,-11.4814c0,0 8.3218,4.65788 17.38042,9.95884c9.05863,5.30095 16.82703,8.66884 16.11746,9.8814z" fill="#ff9600" stroke="#000000" stroke-width="0" stroke-linecap="butt"/></g><g><path d="M259.10139,146.82353c2.17352,-33.23085 32.63408,-58.29269 68.03556,-55.97719c35.40148,2.31549 62.33807,31.13149 60.16455,64.36234c-2.17352,33.23085 -32.63407,58.29269 -68.03556,55.9772c-35.40147,-2.31549 -62.33806,-31.1315 -60.16455,-64.36235z" fill="url(#color-2)" stroke="#000000" stroke-width="0" stroke-linecap="butt"/><path d="M267.49079,120.55411c11.77834,-19.1473 34.46202,-31.35498 59.64617,-29.70776c25.29092,1.6542 46.26158,16.83348 55.38456,37.4852c0.02535,0.05738 -115.07156,-7.71107 -115.03073,-7.77744z" fill="#f2bc49" stroke="#000000" stroke-width="0" stroke-linecap="butt"/><path d="M270.32977,116.13505c12.56814,-15.23101 34.69816,-26.73479 56.80718,-25.28869c22.61482,1.47917 42.85264,15.64256 53.1769,32.99286c0.12131,0.20388 -110.32827,-7.28707 -109.98409,-7.70417z" fill="#ffc72e" stroke="#000000" stroke-width="0" stroke-linecap="butt"/><path d="M278.45563,107.44166c12.56918,-11.78796 29.4793,-17.85126 48.68133,-16.59532c19.75286,1.29197 35.55707,9.16807 46.45294,23.12418c0.04619,0.05917 -95.25281,-6.41769 -95.13427,-6.52886z" fill="#ff9600" stroke="#000000" stroke-width="0" stroke-linecap="butt"/><path d="M272.38279,147.96842c0.8464,-12.94035 12.02275,-22.74445 24.96311,-21.89807c12.94035,0.8464 22.74445,12.02274 21.89807,24.9631c-0.8464,12.94035 -12.02274,22.74446 -24.9631,21.89808c-12.94035,-0.8464 -22.74446,-12.02275 -21.89808,-24.96311z" fill="url(#color-3)" stroke="#000000" stroke-width="0" stroke-linecap="butt"/><path d="M285.77188,147.92999c0.31339,-4.79126 4.45151,-8.42131 9.24277,-8.10792c4.79126,0.31339 8.42131,4.45152 8.10792,9.24278c-0.31339,4.79126 -4.45152,8.42132 -9.24277,8.10793c-4.79126,-0.31339 -8.42131,-4.45152 -8.10792,-9.24278z" fill="#000000" stroke="#000000" stroke-width="0" stroke-linecap="butt"/><path d="M348.42367,176.47288c-12.94035,-0.8464 -22.74445,-12.02275 -21.89807,-24.96311c0.8464,-12.94035 12.02274,-22.74445 24.9631,-21.89807c12.94035,0.8464 22.74446,12.02274 21.89808,24.9631c-0.8464,12.94035 -12.02275,22.74446 -24.96311,21.89808z" fill="url(#color-4)" stroke="#000000" stroke-width="0" stroke-linecap="butt"/><path d="M362.2012,156.81049c-0.41649,6.36771 -5.91615,11.19213 -12.28387,10.77563c-6.3677,-0.41649 -11.19212,-5.91618 -10.77563,-12.28388c0.41649,-6.36771 5.91617,-11.19212 12.28388,-10.77563c6.3677,0.41649 11.19211,5.91617 10.77562,12.28388z" fill="#000000" stroke="#000000" stroke-width="0" stroke-linecap="butt"/><path d="M298.00025,78.56298c0,0 12.92032,-38.66765 29.83505,-22.05524c1.2869,1.26391 2.38199,2.56023 3.30702,3.87673c11.23312,15.9871 -2.61478,34.94853 -2.61478,34.94853" fill="none" stroke="#ff9600" stroke-width="6" stroke-linecap="round"/><path d="M310.06288,92.28895c0.30587,6.09859 -4.69905,11.30595 -11.17881,11.63094c-6.47976,0.32499 -11.9806,-4.35544 -12.28648,-10.45403c-0.30587,-6.09859 4.40871,-15.1642 10.88848,-15.48919c6.47976,-0.32499 12.27094,8.2137 12.57681,14.31229z" fill="#ffffff" stroke="#000000" stroke-width="0" stroke-linecap="butt"/><path d="M264.97907,156.39858c4.0457,-1.99848 8.50697,1.07275 12.58698,1.97454c4.55453,1.00668 10.33335,2.34107 15.00913,1.80528c1.94862,-0.22329 3.46671,-1.22058 5.50597,-1.1357c5.4406,-0.829 12.80767,-0.32843 18.07261,1.13807c1.90792,0.53144 3.66333,1.6914 5.58839,2.20325c5.84893,1.55518 13.21393,0.16496 19.0756,-0.72412c9.49033,-0.58116 19.99333,-0.87573 29.05693,2.17193c2.33402,0.78482 4.57695,1.71456 6.80408,2.77043c0.99371,0.47111 2.61457,0.31673 3.01498,1.34097c0.72744,1.86083 -4.00374,4.14474 -4.89806,4.83616c-3.88684,2.03572 -7.75771,4.17862 -11.70868,6.07851c-1.49355,0.71819 -3.81412,2.27835 -5.53677,2.52555c-7.9216,1.13679 -16.14849,-1.51954 -23.79253,-3.31412c-11.73137,-2.73678 -24.10402,-1.38869 -35.93101,-0.27056c-2.11342,0.19979 -3.95809,1.04133 -6.09908,1.0864c-5.66764,-0.37643 -9.32349,-2.974 -14.43869,-5.31207c-3.73971,-1.70937 -7.57264,-3.45563 -10.74185,-6.13195c-2.42702,-2.04954 -5.17931,-4.22232 -5.33802,-7.62904c0.41746,-1.5304 2.08114,-2.38559 3.54667,-3.33425c0.13676,-0.03698 0.22332,-0.07929 0.22332,-0.07929z" fill-opacity="0.41176" fill="#6ee8ff" stroke="none" stroke-width="0.5" stroke-linecap="butt"/><path d="M385.34631,130.57967l-2.69104,41.14312l-25.78595,13.08675l-35.80079,-6.72744l-35.03808,2.7866l-24.53616,-16.60898l2.7211,-41.60284z" fill-opacity="0.08235" fill="#00ffff" stroke="#f1da3e" stroke-width="7.5" stroke-linecap="round"/><path d="M278.08719,108.42542c0.06308,-0.96444 0.89605,-1.69513 1.86049,-1.63205c0.96444,0.06308 1.69513,0.89605 1.63205,1.86049c-0.06308,0.96444 -0.89605,1.69513 -1.86049,1.63205c-0.96444,-0.06308 -1.69513,-0.89605 -1.63205,-1.86049z" fill="#ff9600" stroke="none" stroke-width="0.5" stroke-linecap="butt"/><path d="M287.98324,107.16093c0.96444,0.06308 1.69513,0.89605 1.63205,1.86049c-0.06308,0.96444 -0.89605,1.69513 -1.86049,1.63205c-0.76607,-0.05011 -1.38467,-0.58596 -1.57511,-1.28763c-0.28021,0.67088 -0.96334,1.12159 -1.72941,1.0715c-0.96444,-0.06308 -1.69513,-0.89605 -1.63205,-1.86049c0.06308,-0.96444 0.89605,-1.69513 1.86049,-1.63205c0.76607,0.05011 1.38467,0.58596 1.57511,1.28763c0.28021,-0.67088 0.96334,-1.12159 1.72941,-1.0715z" fill="#ff9600" stroke="none" stroke-width="0.5" stroke-linecap="butt"/><path d="M293.10825,108.30169c0.06308,-0.96444 0.89605,-1.69513 1.86049,-1.63205c0.96444,0.06308 1.69513,0.89605 1.63205,1.86049c-0.06308,0.96444 -0.89605,1.69513 -1.86049,1.63205c-0.96444,-0.06308 -1.69513,-0.89605 -1.63205,-1.86049z" fill="#ff9600" stroke="none" stroke-width="0.5" stroke-linecap="butt"/><path d="M300.19965,108.60748c0.06308,-0.96444 0.89605,-1.69513 1.86049,-1.63205c0.96444,0.06308 1.69513,0.89605 1.63205,1.86049c-0.06308,0.96444 -0.89605,1.69513 -1.86049,1.63205c-0.96444,-0.06308 -1.69513,-0.89605 -1.63205,-1.86049z" fill="#ff9600" stroke="none" stroke-width="0.5" stroke-linecap="butt"/><path d="M307.09252,109.53242c0.06308,-0.96444 0.89605,-1.69513 1.86049,-1.63205c0.96444,0.06308 1.69513,0.89605 1.63205,1.86049c-0.06308,0.96444 -0.89605,1.69513 -1.86049,1.63205c-0.96444,-0.06308 -1.69513,-0.89605 -1.63205,-1.86049z" fill="#ff9600" stroke="none" stroke-width="0.5" stroke-linecap="butt"/><path d="M314.00597,110.14263c0.06308,-0.96444 0.89605,-1.69513 1.86049,-1.63205c0.96444,0.06308 1.69513,0.89605 1.63205,1.86049c-0.06308,0.96444 -0.89605,1.69513 -1.86049,1.63205c-0.96444,-0.06308 -1.69513,-0.89605 -1.63205,-1.86049z" fill="#ff9600" stroke="none" stroke-width="0.5" stroke-linecap="butt"/><path d="M317.65608,109.90728c0.06308,-0.96444 0.89605,-1.69513 1.86049,-1.63205c0.96444,0.06308 1.69513,0.89605 1.63205,1.86049c-0.06308,0.96444 -0.89605,1.69513 -1.86049,1.63205c-0.96444,-0.06308 -1.69513,-0.89605 -1.63205,-1.86049z" fill="#ff9600" stroke="none" stroke-width="0.5" stroke-linecap="butt"/><path d="M322.54448,110.06898c0.06308,-0.96444 0.89605,-1.69513 1.86049,-1.63205c0.96444,0.06308 1.69513,0.89605 1.63205,1.86049c-0.06308,0.96444 -0.89605,1.69513 -1.86049,1.63205c-0.96444,-0.06308 -1.69513,-0.89605 -1.63205,-1.86049z" fill="#ff9600" stroke="none" stroke-width="0.5" stroke-linecap="butt"/><path d="M329.62559,110.53213c0.06308,-0.96444 0.89605,-1.69513 1.86049,-1.63205c0.96444,0.06308 1.69513,0.89605 1.63205,1.86049c-0.06308,0.96444 -0.89605,1.69513 -1.86049,1.63205c-0.96444,-0.06308 -1.69513,-0.89605 -1.63205,-1.86049z" fill="#ff9600" stroke="none" stroke-width="0.5" stroke-linecap="butt"/><path d="M334.17867,110.98797c0.06308,-0.96444 0.89605,-1.69513 1.86049,-1.63205c0.96444,0.06308 1.69513,0.89605 1.63205,1.86049c-0.06308,0.96444 -0.89605,1.69513 -1.86049,1.63205c-0.96444,-0.06308 -1.69513,-0.89605 -1.63205,-1.86049z" fill="#ff9600" stroke="none" stroke-width="0.5" stroke-linecap="butt"/><path d="M337.58909,112.00119c0.06308,-0.96444 0.89605,-1.69513 1.86049,-1.63205c0.96444,0.06308 1.69513,0.89605 1.63205,1.86049c-0.06308,0.96444 -0.89605,1.69513 -1.86049,1.63205c-0.96444,-0.06308 -1.69513,-0.89605 -1.63205,-1.86049z" fill="#ff9600" stroke="none" stroke-width="0.5" stroke-linecap="butt"/><path d="M351.22054,111.61314c0.96444,0.06308 1.69513,0.89605 1.63205,1.86049c-0.06308,0.96444 -0.89605,1.69513 -1.86049,1.63205c-0.58287,-0.03813 -1.08035,-0.35745 -1.36885,-0.81703c-0.34591,0.4181 -0.88074,0.66989 -1.46359,0.63178c-0.40124,-0.02624 -0.76203,-0.18574 -1.04202,-0.43254c-0.25369,0.11509 -0.53857,0.17112 -0.83598,0.15168c-0.96444,-0.06308 -1.69513,-0.89605 -1.63205,-1.86049c0.06308,-0.96444 0.89605,-1.69513 1.86049,-1.63205c0.40124,0.02624 0.76203,0.18573 1.04202,0.43254c0.25369,-0.11509 0.53857,-0.17111 0.83598,-0.15167c0.58287,0.03813 1.08035,0.35744 1.36884,0.81702c0.34591,-0.4181 0.88075,-0.66988 1.4636,-0.63177z" fill="#ff9600" stroke="none" stroke-width="0.5" stroke-linecap="butt"/><path d="M360.99731,111.93655c0.96444,0.06308 1.69513,0.89605 1.63205,1.86049c-0.06308,0.96444 -0.89605,1.69513 -1.86049,1.63205c-0.22191,-0.01452 -0.43144,-0.06979 -0.6218,-0.15805c-0.20022,0.06271 -0.41516,0.09022 -0.63707,0.07572c-0.96444,-0.06308 -1.69513,-0.89605 -1.63205,-1.86049c0.06308,-0.96444 0.89605,-1.69513 1.86049,-1.63205c0.22191,0.01452 0.43144,0.06979 0.62179,0.15805c0.20022,-0.06271 0.41516,-0.09022 0.63708,-0.07571z" fill="#ff9600" stroke="none" stroke-width="0.5" stroke-linecap="butt"/><path d="M364.32964,113.90824c0.06308,-0.96444 0.89605,-1.69513 1.86049,-1.63205c0.96444,0.06308 1.69513,0.89605 1.63205,1.86049c-0.06308,0.96444 -0.89605,1.69513 -1.86049,1.63205c-0.96444,-0.06308 -1.69513,-0.89605 -1.63205,-1.86049z" fill="#ff9600" stroke="none" stroke-width="0.5" stroke-linecap="butt"/><path d="M367.8224,113.66258c0.06308,-0.96444 0.89605,-1.69513 1.86049,-1.63205c0.96444,0.06308 1.69513,0.89605 1.63205,1.86049c-0.06308,0.96444 -0.89605,1.69513 -1.86049,1.63205c-0.96444,-0.06308 -1.69513,-0.89605 -1.63205,-1.86049z" fill="#ff9600" stroke="none" stroke-width="0.5" stroke-linecap="butt"/><path d="M376.39495,124.03022c0.06308,-0.96444 0.89605,-1.69513 1.86049,-1.63205c0.96444,0.06308 1.69513,0.89605 1.63205,1.86049c-0.06308,0.96444 -0.89605,1.69513 -1.86049,1.63205c-0.96444,-0.06308 -1.69513,-0.89605 -1.63205,-1.86049z" fill="#ffc72e" stroke="none" stroke-width="0.5" stroke-linecap="butt"/><path d="M366.0299,123.03622c0.06308,-0.96444 0.89605,-1.69513 1.86049,-1.63205c0.76094,0.04977 1.37639,0.57882 1.57123,1.27356c0.33829,-0.48983 0.91812,-0.79467 1.55535,-0.753c0.96444,0.06308 1.69513,0.89605 1.63205,1.86049c-0.06308,0.96444 -0.89605,1.69513 -1.86049,1.63205c-0.76094,-0.04977 -1.37639,-0.57882 -1.57123,-1.27356c-0.33829,0.48983 -0.91812,0.79467 -1.55535,0.753c-0.96444,-0.06308 -1.69513,-0.89605 -1.63205,-1.86049z" fill="#ffc72e" stroke="none" stroke-width="0.5" stroke-linecap="butt"/><path d="M357.56346,122.00836c0.06308,-0.96444 0.89605,-1.69513 1.86049,-1.63205c0.08014,0.00524 0.15866,0.01579 0.23525,0.03131c0.30103,-0.18918 0.66231,-0.28865 1.04421,-0.26368c0.96444,0.06308 1.69513,0.89605 1.63205,1.86049c-0.06308,0.96444 -0.89605,1.69513 -1.86049,1.63205c-0.08014,-0.00524 -0.15866,-0.0158 -0.23525,-0.03131c-0.30103,0.18918 -0.66232,0.28866 -1.04421,0.26369c-0.96444,-0.06308 -1.69513,-0.89605 -1.63205,-1.86049z" fill="#ffc72e" stroke="none" stroke-width="0.5" stroke-linecap="butt"/><path d="M351.92945,121.16577c0.06308,-0.96444 0.89605,-1.69513 1.86049,-1.63205c0.96444,0.06308 1.69513,0.89605 1.63205,1.86049c-0.06308,0.96444 -0.89605,1.69513 -1.86049,1.63205c-0.96444,-0.06308 -1.69513,-0.89605 -1.63205,-1.86049z" fill="#ffc72e" stroke="none" stroke-width="0.5" stroke-linecap="butt"/><path d="M342.63504,120.71588c0.06308,-0.96444 0.89605,-1.69513 1.86049,-1.63205c0.96444,0.06308 1.69513,0.89605 1.63205,1.86049c-0.06308,0.96444 -0.89605,1.69513 -1.86049,1.63205c-0.96444,-0.06308 -1.69513,-0.89605 -1.63205,-1.86049z" fill="#ffc72e" stroke="none" stroke-width="0.5" stroke-linecap="butt"/><path d="M336.19366,120.13654c0.06308,-0.96444 0.89605,-1.69513 1.86049,-1.63205c0.96444,0.06308 1.69513,0.89605 1.63205,1.86049c-0.06308,0.96444 -0.89605,1.69513 -1.86049,1.63205c-0.96444,-0.06308 -1.69513,-0.89605 -1.63205,-1.86049z" fill="#ffc72e" stroke="none" stroke-width="0.5" stroke-linecap="butt"/><path d="M327.48751,120.35726c0.06308,-0.96444 0.89605,-1.69513 1.86049,-1.63205c0.96444,0.06308 1.69513,0.89605 1.63205,1.86049c-0.06308,0.96444 -0.89605,1.69513 -1.86049,1.63205c-0.96444,-0.06308 -1.69513,-0.89605 -1.63205,-1.86049z" fill="#ffc72e" stroke="none" stroke-width="0.5" stroke-linecap="butt"/><path d="M309.63104,117.92507c0.06308,-0.96444 0.89605,-1.69513 1.86049,-1.63205c0.96444,0.06308 1.69513,0.89605 1.63205,1.86049c-0.06308,0.96444 -0.89605,1.69513 -1.86049,1.63205c-0.96444,-0.06308 -1.69513,-0.89605 -1.63205,-1.86049z" fill="#ffc72e" stroke="none" stroke-width="0.5" stroke-linecap="butt"/><path d="M290.99076,117.81209c0.06308,-0.96444 0.89605,-1.69513 1.86049,-1.63205c0.96444,0.06308 1.69513,0.89605 1.63205,1.86049c-0.06308,0.96444 -0.89605,1.69513 -1.86049,1.63205c-0.96444,-0.06308 -1.69513,-0.89605 -1.63205,-1.86049z" fill="#ffc72e" stroke="none" stroke-width="0.5" stroke-linecap="butt"/><path d="M283.46846,116.84598c0.06308,-0.96444 0.89605,-1.69513 1.86049,-1.63205c0.96444,0.06308 1.69513,0.89605 1.63205,1.86049c-0.06308,0.96444 -0.89605,1.69513 -1.86049,1.63205c-0.96444,-0.06308 -1.69513,-0.89605 -1.63205,-1.86049z" fill="#ffc72e" stroke="none" stroke-width="0.5" stroke-linecap="butt"/><path d="M273.2402,116.17698c0.06308,-0.96444 0.89605,-1.69513 1.86049,-1.63205c0.96444,0.06308 1.69513,0.89605 1.63205,1.86049c-0.06308,0.96444 -0.89605,1.69513 -1.86049,1.63205c-0.96444,-0.06308 -1.69513,-0.89605 -1.63205,-1.86049z" fill="#ffc72e" stroke="none" stroke-width="0.5" stroke-linecap="butt"/><path d="M298.3763,118.45318c0.06308,-0.96444 0.89605,-1.69513 1.86049,-1.63205c0.96444,0.06308 1.69513,0.89605 1.63205,1.86049c-0.06308,0.96444 -0.89605,1.69513 -1.86049,1.63205c-0.96444,-0.06308 -1.69513,-0.89605 -1.63205,-1.86049z" fill="#ffc72e" stroke="none" stroke-width="0.5" stroke-linecap="butt"/><path d="M304.15738,119.46343c0.06308,-0.96444 0.89605,-1.69513 1.86049,-1.63205c0.96444,0.06308 1.69513,0.89605 1.63205,1.86049c-0.06308,0.96444 -0.89605,1.69513 -1.86049,1.63205c-0.96444,-0.06308 -1.69513,-0.89605 -1.63205,-1.86049z" fill="#ffc72e" stroke="none" stroke-width="0.5" stroke-linecap="butt"/><path d="M313.96502,119.31477c0.06308,-0.96444 0.89605,-1.69513 1.86049,-1.63205c0.96444,0.06308 1.69513,0.89605 1.63205,1.86049c-0.06308,0.96444 -0.89605,1.69513 -1.86049,1.63205c-0.96444,-0.06308 -1.69513,-0.89605 -1.63205,-1.86049z" fill="#ffc72e" stroke="none" stroke-width="0.5" stroke-linecap="butt"/><path d="M322.64028,119.56612c0.06308,-0.96444 0.89605,-1.69513 1.86049,-1.63205c0.96444,0.06308 1.69513,0.89605 1.63205,1.86049c-0.06308,0.96444 -0.89605,1.69513 -1.86049,1.63205c-0.96444,-0.06308 -1.69513,-0.89605 -1.63205,-1.86049z" fill="#ffc72e" stroke="none" stroke-width="0.5" stroke-linecap="butt"/><path d="M277.43095,111.73759c0.04506,-0.68889 0.64003,-1.21081 1.32892,-1.16576c0.68889,0.04506 1.21081,0.64003 1.16576,1.32892c-0.04506,0.68889 -0.64003,1.21081 -1.32892,1.16576c-0.68889,-0.04506 -1.21081,-0.64003 -1.16576,-1.32892z" fill="#ff9600" stroke="none" stroke-width="0.5" stroke-linecap="butt"/><path d="M287.4545,110.51703c0.04506,-0.68889 0.64003,-1.21081 1.32892,-1.16576c0.68889,0.04506 1.21081,0.64003 1.16576,1.32892c-0.04506,0.68889 -0.64003,1.21081 -1.32892,1.16576c-0.68889,-0.04506 -1.21081,-0.64003 -1.16576,-1.32892z" fill="#ff9600" stroke="none" stroke-width="0.5" stroke-linecap="butt"/><path d="M290.22881,108.25945c0.04506,-0.68889 0.64003,-1.21081 1.32892,-1.16576c0.68889,0.04506 1.21081,0.64003 1.16576,1.32892c-0.04506,0.68889 -0.64003,1.21081 -1.32892,1.16576c-0.68889,-0.04506 -1.21081,-0.64003 -1.16576,-1.32892z" fill="#ff9600" stroke="none" stroke-width="0.5" stroke-linecap="butt"/><path d="M307.29388,111.2518c0.04506,-0.68889 0.64003,-1.21081 1.32892,-1.16576c0.68889,0.04506 1.21081,0.64003 1.16576,1.32892c-0.04506,0.68889 -0.64003,1.21081 -1.32892,1.16576c-0.68889,-0.04506 -1.21081,-0.64003 -1.16576,-1.32892z" fill="#ff9600" stroke="none" stroke-width="0.5" stroke-linecap="butt"/><path d="M312.02895,113.43769c0.04506,-0.68889 0.64003,-1.21081 1.32892,-1.16576c0.68889,0.04506 1.21081,0.64003 1.16576,1.32892c-0.04506,0.68889 -0.64003,1.21081 -1.32892,1.16576c-0.68889,-0.04506 -1.21081,-0.64003 -1.16576,-1.32892z" fill="#ff9600" stroke="none" stroke-width="0.5" stroke-linecap="butt"/><path d="M319.45279,114.67373c0.04506,-0.68889 0.64003,-1.21081 1.32892,-1.16576c0.68889,0.04506 1.21081,0.64003 1.16576,1.32892c-0.04506,0.68889 -0.64003,1.21081 -1.32892,1.16576c-0.68889,-0.04506 -1.21081,-0.64003 -1.16576,-1.32892z" fill="#ff9600" stroke="none" stroke-width="0.5" stroke-linecap="butt"/><path d="M332.18086,115.13099c0.04506,-0.68889 0.64003,-1.21081 1.32892,-1.16576c0.68889,0.04506 1.21081,0.64003 1.16576,1.32892c-0.04506,0.68889 -0.64003,1.21081 -1.32892,1.16576c-0.68889,-0.04506 -1.21081,-0.64003 -1.16576,-1.32892z" fill="#ff9600" stroke="none" stroke-width="0.5" stroke-linecap="butt"/><path d="M336.93685,114.12873c0.04506,-0.68889 0.64003,-1.21081 1.32892,-1.16576c0.68889,0.04506 1.21081,0.64003 1.16576,1.32892c-0.04506,0.68889 -0.64003,1.21081 -1.32892,1.16576c-0.68889,-0.04506 -1.21081,-0.64003 -1.16576,-1.32892z" fill="#ff9600" stroke="none" stroke-width="0.5" stroke-linecap="butt"/><path d="M345.6771,112.44901c0.04506,-0.68889 0.64003,-1.21081 1.32892,-1.16576c0.68889,0.04506 1.21081,0.64003 1.16576,1.32892c-0.04506,0.68889 -0.64003,1.21081 -1.32892,1.16576c-0.68889,-0.04506 -1.21081,-0.64003 -1.16576,-1.32892z" fill="#ff9600" stroke="none" stroke-width="0.5" stroke-linecap="butt"/><path d="M356.99969,114.3153c0.04506,-0.68889 0.64003,-1.21081 1.32892,-1.16576c0.68889,0.04506 1.21081,0.64003 1.16576,1.32892c-0.04506,0.68889 -0.64003,1.21081 -1.32892,1.16576c-0.68889,-0.04506 -1.21081,-0.64003 -1.16576,-1.32892z" fill="#ff9600" stroke="none" stroke-width="0.5" stroke-linecap="butt"/><path d="M367.85089,117.65166c0.04506,-0.68889 0.64003,-1.21081 1.32892,-1.16576c0.68889,0.04506 1.21081,0.64003 1.16576,1.32892c-0.04506,0.68889 -0.64003,1.21081 -1.32892,1.16576c-0.68889,-0.04506 -1.21081,-0.64003 -1.16576,-1.32892z" fill="#ff9600" stroke="none" stroke-width="0.5" stroke-linecap="butt"/><path d="M281.96656,113.15996c0.02704,-0.41332 0.38402,-0.72648 0.79734,-0.69945c0.41332,0.02704 0.72648,0.38402 0.69945,0.79734c-0.02704,0.41332 -0.38402,0.72648 -0.79734,0.69945c-0.41332,-0.02704 -0.72648,-0.38402 -0.69945,-0.79734z" fill="#ff9600" stroke="none" stroke-width="0.5" stroke-linecap="butt"/><path d="M290.54798,113.90886c0.02704,-0.41332 0.38402,-0.72648 0.79734,-0.69945c0.41332,0.02704 0.72648,0.38402 0.69945,0.79734c-0.02704,0.41332 -0.38402,0.72648 -0.79734,0.69945c-0.41332,-0.02704 -0.72648,-0.38402 -0.69945,-0.79734z" fill="#ff9600" stroke="none" stroke-width="0.5" stroke-linecap="butt"/><path d="M301.35441,113.8652c0.02704,-0.41332 0.38402,-0.72648 0.79734,-0.69945c0.41332,0.02704 0.72648,0.38402 0.69945,0.79734c-0.02704,0.41332 -0.38402,0.72648 -0.79734,0.69945c-0.41332,-0.02704 -0.72648,-0.38402 -0.69945,-0.79734z" fill="#ff9600" stroke="none" stroke-width="0.5" stroke-linecap="butt"/><path d="M314.42298,117.72186c0.02704,-0.41332 0.38402,-0.72648 0.79734,-0.69945c0.41332,0.02704 0.72648,0.38402 0.69945,0.79734c-0.02704,0.41332 -0.38402,0.72648 -0.79734,0.69945c-0.41332,-0.02704 -0.72648,-0.38402 -0.69945,-0.79734z" fill="#ff9600" stroke="none" stroke-width="0.5" stroke-linecap="butt"/><path d="M325.44172,115.62829c0.02704,-0.41332 0.38402,-0.72648 0.79734,-0.69945c0.41332,0.02704 0.72648,0.38402 0.69945,0.79734c-0.02704,0.41332 -0.38402,0.72648 -0.79734,0.69945c-0.41332,-0.02704 -0.72648,-0.38402 -0.69945,-0.79734z" fill="#ff9600" stroke="none" stroke-width="0.5" stroke-linecap="butt"/><path d="M338.55917,118.73767c0.02704,-0.41332 0.38402,-0.72648 0.79734,-0.69945c0.41332,0.02704 0.72648,0.38402 0.69945,0.79734c-0.02704,0.41332 -0.38402,0.72648 -0.79734,0.69945c-0.41332,-0.02704 -0.72648,-0.38402 -0.69945,-0.79734z" fill="#ff9600" stroke="none" stroke-width="0.5" stroke-linecap="butt"/><path d="M351.02357,117.48913c0.02704,-0.41332 0.38402,-0.72648 0.79734,-0.69945c0.41332,0.02704 0.72648,0.38402 0.69945,0.79734c-0.02704,0.41332 -0.38402,0.72648 -0.79734,0.69945c-0.41332,-0.02704 -0.72648,-0.38402 -0.69945,-0.79734z" fill="#ff9600" stroke="none" stroke-width="0.5" stroke-linecap="butt"/><path d="M372.43433,120.01525c0.02704,-0.41332 0.38402,-0.72648 0.79734,-0.69945c0.41332,0.02704 0.72648,0.38402 0.69945,0.79734c-0.02704,0.41332 -0.38402,0.72648 -0.79734,0.69945c-0.41332,-0.02704 -0.72648,-0.38402 -0.69945,-0.79734z" fill="#ff9600" stroke="none" stroke-width="0.5" stroke-linecap="butt"/><path d="M361.16415,120.21618c0.02704,-0.41332 0.38402,-0.72648 0.79734,-0.69945c0.41332,0.02704 0.72648,0.38402 0.69945,0.79734c-0.02704,0.41332 -0.38402,0.72648 -0.79734,0.69945c-0.41332,-0.02704 -0.72648,-0.38402 -0.69945,-0.79734z" fill="#ff9600" stroke="none" stroke-width="0.5" stroke-linecap="butt"/></g><path d="M298.8441,205.52759c0,0 11.64532,-7.75138 27.69928,-5.29097c15.79742,2.5054 10.65723,8.76096 10.65723,8.76096c0,0 -3.40488,0.52637 -7.989,0.90065c-5.24212,0.428 -12.02631,0.6571 -17.02438,-0.32726c-9.36878,-1.84518 -13.34313,-4.04337 -13.34313,-4.04337z" fill="#000000" stroke="#000000" stroke-width="0" stroke-linecap="round"/><path d="M312.29106,208.33385c7.54693,1.32566 21.77883,-0.89623 21.77883,-0.89623l0.36221,1.6754c0,0 -14.59611,1.62298 -22.33815,0.13669c-7.74203,-1.48629 -10.63548,-4.03924 -10.63548,-4.03924l1.23136,-0.88574c0,0 3.50185,2.93773 9.60121,4.00912z" fill="#ffffff" stroke="#000000" stroke-width="0" stroke-linecap="round"/><path d="M314.67015,213.94538c-0.2003,-1.07192 -0.31582,-2.12275 -0.47727,-3.18962c-0.13531,0.00435 -0.27069,0.00709 -0.40612,0.00823c0.02002,0.36277 -0.02435,0.73676 -0.00728,1.10003l0.00487,0.18716c0,0 0.03248,1.24958 -1.21709,1.28207l-0.00001,0.00001c-1.24958,0.03248 -1.28207,-1.21709 -1.28207,-1.21709l-0.00487,-0.18716c0.00447,-0.66948 -0.10885,-1.11239 -0.28944,-1.36498c-0.28539,-0.04299 -0.57032,-0.09277 -0.85456,-0.14924c-0.25729,0.14553 -0.52055,0.42499 -0.74575,0.80677c0.16182,1.47761 -0.17329,3.45856 -0.37579,4.96786c0.01303,0.48705 -0.01612,0.95963 -0.13783,1.40379c-0.00149,0.06246 -0.00168,0.12197 -0.00046,0.1783l0.03473,1.33573c0.01794,0.69013 -0.52696,1.26412 -1.21709,1.28207c-0.69013,0.01794 -1.26412,-0.52696 -1.28207,-1.21709l-0.03893,-1.49724l0.00123,-0.00003c-0.0024,-0.14615 -0.00374,-0.29082 -0.0042,-0.43414c-0.3099,-0.52466 -0.1064,-1.3286 -0.06989,-2.4423c0.02362,-0.72041 0.07195,-1.5589 0.20489,-2.40504c0.0065,-0.83467 -0.02024,-1.6746 -0.11843,-2.55321l-0.43884,-0.75587c-0.10915,-0.17986 -0.17431,-0.38975 -0.18017,-0.61514c-0.0056,-0.21529 0.04357,-0.41927 0.13487,-0.59861l-0.31469,-0.09805c-1.00491,-0.31512 -1.54498,-0.54379 -2.0522,-0.98828l-0.08905,0.11592l-0.79523,-0.61092c-0.17736,-0.13386 -0.29373,-0.34483 -0.29845,-0.58422c-0.00815,-0.41413 0.32097,-0.75646 0.73509,-0.76462l0.78831,-0.01551l0.00053,0.02708l0.07343,-0.02489c4.0103,0.70308 7.96736,1.43554 11.94471,2.14166c0,0 0.09104,0.01635 0.20343,0.06954c2.36179,-0.03901 4.7105,-0.35853 7.08528,-0.50627c0.29544,-0.10788 0.58998,-0.22354 0.88351,-0.34711c2.32695,-0.31559 4.49478,-0.51053 6.75731,-0.60681c0.4696,-0.09673 0.93365,-0.14496 1.33631,-0.04523c0.18753,-0.00477 0.37603,-0.0089 0.56559,-0.01243l0.04746,0.02297l0.00216,-0.01899l1.17327,0.13325c0.37311,0.03664 0.66807,0.34757 0.67563,0.73163c0.00815,0.41413 -0.32097,0.75646 -0.73509,0.76462l-1.24581,0.42681c-0.74831,0.01571 -1.47742,0.22852 -2.19742,0.26426c-2.78234,0.53324 -5.31975,0.64053 -8.04296,1.25543l-0.77743,0.02987c0,0 -0.48624,0.00957 -0.68333,-0.37825c-0.06465,0.01411 -0.12935,0.02787 -0.19407,0.04132c-0.02904,0.02583 -0.0593,0.05032 -0.09069,0.07338l-1.16575,0.87931c-1.165,1.60693 -2.28064,3.69561 -2.86809,5.59421c0,0 -0.0739,0.23717 -0.27314,0.39598c-0.04952,4.3025 1.19268,9.0389 1.18785,13.08547c-0.15783,0.34226 -0.31567,0.68451 -0.47349,1.02677l-0.11801,0.69462c0,0 -0.13259,0.73819 -0.87077,0.6056c-0.73819,-0.13259 -0.6056,-0.87077 -0.6056,-0.87077l0.16627,-0.88824c0.14508,-0.2946 0.29016,-0.58921 0.43524,-0.88382c-0.22809,-4.36285 -1.48287,-9.58202 -1.12798,-14.18998c-0.22065,-0.18233 -0.27455,-0.47058 -0.27455,-0.47058z" fill-opacity="0.41176" fill="#6ee8ff" stroke="none" stroke-width="0.5" stroke-linecap="butt"/></g></g></g></svg>