<svg version="1.1" xmlns="http://www.w3.org/2000/svg" xmlns:xlink="http://www.w3.org/1999/xlink" width="213.18203" height="280.18476" viewBox="0,0,213.18203,280.18476"><g transform="translate(-214.52362,-38.88751)"><g stroke-miterlimit="10"><g stroke-linecap="butt"><path d="M286.35186,319.07226l15.14285,-131.8421l37.78325,-0.15789l13.57389,132z" fill="#a93232" stroke="#000000" stroke-width="0"/><path d="M293.00635,261.13452c2.74487,-23.89841 8.48836,-73.90436 8.48836,-73.90436l37.78325,-0.15789c0,0 5.18875,49.85827 7.69612,74.24128c0.01364,0.13261 -53.98445,-0.03335 -53.96772,-0.17903z" fill="#9d2f3a" stroke="#000000" stroke-width="0"/><path d="M294.04743,252.07032c2.50278,-21.79059 7.44728,-64.84016 7.44728,-64.84016l37.78325,-0.15789c0,0 4.4242,43.02332 6.66599,64.82381c0.03141,0.30549 -51.94147,0.56558 -51.89652,0.17424z" fill="#942c3b" stroke="#000000" stroke-width="0"/><path d="M301.49471,187.23016l37.78325,-0.15789l7.53186,58.01527c0,0 -5.52306,-0.76412 -6.92133,-0.90214l0.00749,-0.04127l-0.48712,-0.0884c-0.016,-0.00322 -0.03254,-0.0049 -0.04949,-0.0049c-0.13807,0 -0.25,0.11193 -0.25,0.25c0,0.04409 0.01141,0.08552 0.03145,0.12148l0.23231,0.43736c0.123,0.23124 0.24538,0.5705 0.38232,0.90381c-0.37148,-0.33345 -0.77382,-0.64017 -1.12919,-0.99429c-0.38626,-0.38297 -2.23559,-1.95898 -2.85854,-1.56149c-1.49667,0.95499 1.14954,7.14342 -2.20456,3.67889c-0.34409,-0.39178 -1.32011,-1.90788 -1.8599,-1.93658c-0.71283,-0.03789 -2.08925,3.10834 -2.2473,3.02684c-0.63202,-0.32591 -1.62122,-2.43297 -2.09521,-3.07026c-0.20167,-0.19552 -1.03491,-1.17622 -1.31894,-1.12193c-0.29258,0.05593 -0.71091,1.29206 -0.77558,1.54857c-0.3107,1.23257 -1.43283,4.47865 -1.20436,6.0625c-1.23125,-1.34336 -2.04426,-3.20717 -3.15722,-4.70131l0.02198,-0.01167l-0.20246,-0.38135c-0.0412,-0.08148 -0.1257,-0.13736 -0.22325,-0.13736c-0.1113,0 -0.20561,0.07273 -0.238,0.17325l-0.16255,0.4667c-0.05451,0.15652 -0.10902,0.31304 -0.16353,0.46957c-0.18509,0.49576 -0.61517,2.88396 -1.12868,3.05381c-0.42363,0.14012 -1.28892,-2.21834 -1.58993,-2.3507c-0.84379,-0.37102 -1.31275,1.23764 -1.29003,2.25784c-1.94281,-2.33382 -2.99468,-4.92948 -6.16706,-6.09861c-2.49887,-0.88899 -4.81101,1.71067 -5.3339,3.92684c-0.04559,0.19324 -0.10282,0.46112 -0.14855,0.7564c-0.37996,-1.536 -0.9571,-3.47767 -1.63956,-3.56104c-0.94022,-0.11486 -1.74563,1.9818 -1.75639,3.24301c-1.17689,-1.06694 -2.9206,0.67637 -3.37136,1.68632c-0.05109,-0.36434 -1.54165,-2.501 -1.65072,-2.8319c0.21987,-1.20535 -3.61083,-1.26063 -3.61083,-1.26063z" fill="#a2f30f" stroke="#000000" stroke-width="0"/><path d="M301.49471,187.23016l37.78325,-0.15789c0,0 4.42084,34.05212 5.78825,44.5848c0.01988,0.15319 -50.50566,-0.27517 -50.46947,-0.50562c1.69416,-10.78723 6.89797,-43.9213 6.89797,-43.9213z" fill="#75f20f" stroke="#000000" stroke-width="0"/><path d="M301.49471,187.23016l37.78325,-0.15789c0,0 2.99108,23.83918 4.32515,34.1151c0.01396,0.10756 -47.56257,0.2241 -47.5334,0.03837c1.60192,-10.19991 5.425,-33.99558 5.425,-33.99558z" fill="#33965e" stroke="#000000" stroke-width="0"/><path d="M301.49471,187.23016l37.78325,-0.15789c0,0 2.54744,19.28154 3.76806,28.68356c0.01222,0.09411 -45.95233,-0.50319 -45.94397,-0.55642c1.50063,-9.55496 4.39265,-27.96925 4.39265,-27.96925z" fill="#2d7a1a" stroke="#000000" stroke-width="0"/><path d="M296.95582,214.9c0,-0.9665 0.7835,-1.75 1.75,-1.75c0.9665,0 1.75,0.7835 1.75,1.75c0,0.9665 -0.7835,1.75 -1.75,1.75c-0.9665,0 -1.75,-0.7835 -1.75,-1.75z" fill="#2d7a1a" stroke="none" stroke-width="0.5"/><path d="M304.35582,214.7c0,-0.9665 0.7835,-1.75 1.75,-1.75c0.9665,0 1.75,0.7835 1.75,1.75c0,0.9665 -0.7835,1.75 -1.75,1.75c-0.9665,0 -1.75,-0.7835 -1.75,-1.75z" fill="#2d7a1a" stroke="none" stroke-width="0.5"/><path d="M310.65582,214.9c0,-0.30962 0.11257,-0.59294 0.29901,-0.81128c0.29248,-0.55801 0.87728,-0.93872 1.55099,-0.93872c0.9665,0 1.75,0.7835 1.75,1.75c0,0.9665 -0.7835,1.75 -1.75,1.75c-0.67371,0 -1.25851,-0.3807 -1.55099,-0.93872c-0.18644,-0.21834 -0.29901,-0.50166 -0.29901,-0.81128z" fill="#2d7a1a" stroke="none" stroke-width="0.5"/><path d="M316.90582,216.75c-0.30962,0 -0.59294,-0.11257 -0.81128,-0.29901c-0.55801,-0.29248 -0.93872,-0.87728 -0.93872,-1.55099c0,-0.9665 0.7835,-1.75 1.75,-1.75c0.11289,0 0.22328,0.01069 0.33022,0.03111c0.25622,-0.14704 0.55318,-0.23111 0.86978,-0.23111c0.9665,0 1.75,0.7835 1.75,1.75c0,0.9665 -0.7835,1.75 -1.75,1.75c-0.11289,0 -0.22328,-0.01069 -0.33022,-0.03111c-0.01927,0.01106 -0.03877,0.02176 -0.0585,0.0321c-0.21834,0.18644 -0.50166,0.29901 -0.81128,0.29901z" fill="#2d7a1a" stroke="none" stroke-width="0.5"/><path d="M324.05582,216.9c0,-0.48464 0.27581,-0.90486 0.67902,-1.11227c-0.23728,-0.29867 -0.37902,-0.67665 -0.37902,-1.08773c0,-0.9665 0.7835,-1.75 1.75,-1.75c0.9665,0 1.75,0.7835 1.75,1.75c0,0.84585 -0.6001,1.55153 -1.39777,1.71454c0.06296,0.14926 0.09777,0.31329 0.09777,0.48546c0,0.69036 -0.55964,1.25 -1.25,1.25c-0.69036,0 -1.25,-0.55964 -1.25,-1.25z" fill="#2d7a1a" stroke="none" stroke-width="0.5"/><path d="M330.55582,215.5c0,-0.9665 0.7835,-1.75 1.75,-1.75c0.9665,0 1.75,0.7835 1.75,1.75c0,0.9665 -0.7835,1.75 -1.75,1.75c-0.9665,0 -1.75,-0.7835 -1.75,-1.75z" fill="#2d7a1a" stroke="none" stroke-width="0.5"/><path d="M334.15582,215.5c0,-0.9665 0.7835,-1.75 1.75,-1.75c0.9665,0 1.75,0.7835 1.75,1.75c0,0.9665 -0.7835,1.75 -1.75,1.75c-0.9665,0 -1.75,-0.7835 -1.75,-1.75z" fill="#2d7a1a" stroke="none" stroke-width="0.5"/><path d="M338.15582,215.5c0,-0.9665 0.7835,-1.75 1.75,-1.75c0.9665,0 1.75,0.7835 1.75,1.75c0,0.9665 -0.7835,1.75 -1.75,1.75c-0.9665,0 -1.75,-0.7835 -1.75,-1.75z" fill="#2d7a1a" stroke="none" stroke-width="0.5"/><path d="M296.15582,221.3c0,-0.9665 0.7835,-1.75 1.75,-1.75c0.9665,0 1.75,0.7835 1.75,1.75c0,0.9665 -0.7835,1.75 -1.75,1.75c-0.9665,0 -1.75,-0.7835 -1.75,-1.75z" fill="#33965e" stroke="none" stroke-width="0.5"/><path d="M340.55582,221.1c0,-0.9665 0.7835,-1.75 1.75,-1.75c0.9665,0 1.75,0.7835 1.75,1.75c0,0.9665 -0.7835,1.75 -1.75,1.75c-0.9665,0 -1.75,-0.7835 -1.75,-1.75z" fill="#33965e" stroke="none" stroke-width="0.5"/><path d="M334.85582,220.3c0,-0.69036 0.55964,-1.25 1.25,-1.25c0.05573,0 0.11061,0.00365 0.16441,0.01072c0.31654,-0.3156 0.75328,-0.51072 1.23559,-0.51072c0.03356,0 0.0669,0.00094 0.1,0.00281c0.0331,-0.00186 0.06644,-0.00281 0.1,-0.00281c0.9665,0 1.75,0.7835 1.75,1.75c0,0.9665 -0.7835,1.75 -1.75,1.75c-0.03356,0 -0.0669,-0.00094 -0.1,-0.00281c-0.0331,0.00186 -0.06644,0.00281 -0.1,0.00281c-0.48231,0 -0.91905,-0.19511 -1.23559,-0.51072c-0.0538,0.00707 -0.10868,0.01072 -0.16441,0.01072c-0.69036,0 -1.25,-0.55964 -1.25,-1.25z" fill="#33965e" stroke="none" stroke-width="0.5"/><path d="M330.15582,221.1c0,-0.9665 0.7835,-1.75 1.75,-1.75c0.03356,0 0.0669,0.00094 0.1,0.00281c0.0331,-0.00186 0.06644,-0.00281 0.1,-0.00281c0.9665,0 1.75,0.7835 1.75,1.75c0,0.9665 -0.7835,1.75 -1.75,1.75c-0.03356,0 -0.0669,-0.00094 -0.1,-0.00281c-0.0331,0.00186 -0.06644,0.00281 -0.1,0.00281c-0.9665,0 -1.75,-0.7835 -1.75,-1.75z" fill="#33965e" stroke="none" stroke-width="0.5"/><path d="M321.30582,222.75c-0.40726,0 -0.76903,-0.19476 -0.99725,-0.49623c-0.48298,-0.23274 -1.12626,-0.75728 -0.92452,-1.86682c0.31305,-1.72177 2.03482,-1.40872 2.03482,-1.40872l2.2,0.4c0,0 0.06959,0.01265 0.17824,0.04686c0.16098,-0.04883 0.33178,-0.07509 0.50871,-0.07509c0.9665,0 1.75,0.7835 1.75,1.75c0,0.9665 -0.7835,1.75 -1.75,1.75c-0.16787,0 -0.33022,-0.02364 -0.4839,-0.06776c-0.44113,0.11008 -0.82915,0.03954 -0.82915,0.03954l-1.12553,-0.20464c-0.16881,0.085 -0.35953,0.13287 -0.56142,0.13287z" fill="#33965e" stroke="none" stroke-width="0.5"/><path d="M314.35582,220.9c0,-0.96207 0.77634,-1.74282 1.73674,-1.74995c0.24298,-0.12776 0.51968,-0.20005 0.81326,-0.20005c0.9665,0 1.75,0.7835 1.75,1.75c0,0.96207 -0.77634,1.74282 -1.73674,1.74995c-0.24298,0.12776 -0.51968,0.20005 -0.81326,0.20005c-0.9665,0 -1.75,-0.7835 -1.75,-1.75z" fill="#33965e" stroke="none" stroke-width="0.5"/><path d="M312.55582,220.9c0,1.25 -1.25,1.25 -1.25,1.25h-1.8c0,0 -0.41051,0 -0.76102,-0.23525c-0.24888,0.66323 -0.88881,1.13525 -1.63898,1.13525c-0.54604,0 -1.03367,-0.25009 -1.3546,-0.64197c-0.05477,0.63978 -0.59144,1.14197 -1.2454,1.14197c-0.69036,0 -1.25,-0.55964 -1.25,-1.25c0,-0.06435 0.00486,-0.12756 0.01424,-0.18929c-0.43315,-0.31856 -0.71424,-0.83181 -0.71424,-1.41071c0,-0.9665 0.7835,-1.75 1.75,-1.75c0.7237,0 1.3448,0.43929 1.61118,1.06577c0.31213,-0.28908 0.72984,-0.46577 1.18882,-0.46577c0.5401,0 1.02305,0.24467 1.34406,0.62922c0.35114,-0.52922 1.05594,-0.52922 1.05594,-0.52922h1.8c0,0 1.25,0 1.25,1.25z" fill="#33965e" stroke="none" stroke-width="0.5"/><path d="M294.55582,231.5c0,-0.9665 0.3835,-1.75 1.35,-1.75c0.9665,0 1.75,0.7835 1.75,1.75c0,0.9665 -0.7835,1.75 -1.75,1.75c-0.9665,0 -1.35,-0.7835 -1.35,-1.75z" fill="#75f20f" stroke="none" stroke-width="0.5"/><path d="M306.15582,232.3c0,0.69036 -0.55964,1.25 -1.25,1.25c-0.19142,0 -0.37279,-0.04303 -0.53497,-0.11994c-0.08643,0.01313 -0.17493,0.01994 -0.26503,0.01994c-0.9665,0 -1.75,-0.7835 -1.75,-1.75c0,-0.9665 0.7835,-1.75 1.75,-1.75c0.88869,0 1.62266,0.66243 1.73508,1.52045c0.19593,0.22069 0.31492,0.51123 0.31492,0.82955z" fill="#75f20f" stroke="none" stroke-width="0.5"/><path d="M311.95582,232.1c0,0.69036 -0.55964,1.25 -1.25,1.25c-0.61753,0 -1.13048,-0.4478 -1.23182,-1.0364c-0.43538,-0.31834 -0.71818,-0.83294 -0.71818,-1.4136c0,-0.9665 0.7835,-1.75 1.75,-1.75c0.9665,0 1.75,0.7835 1.75,1.75c0,0.37295 -0.11667,0.71866 -0.3155,1.00261c0.0102,0.0643 0.0155,0.13022 0.0155,0.19739z" fill="#75f20f" stroke="none" stroke-width="0.5"/><path d="M314.95582,230.3c0,-0.9665 0.7835,-1.75 1.75,-1.75c0.9665,0 1.75,0.7835 1.75,1.75c0,0.9665 -0.7835,1.75 -1.75,1.75c-0.9665,0 -1.75,-0.7835 -1.75,-1.75z" fill="#75f20f" stroke="none" stroke-width="0.5"/><path d="M324.35582,230.3c0,-0.9665 0.7835,-1.75 1.75,-1.75c0.9665,0 1.75,0.7835 1.75,1.75c0,0.9665 -0.7835,1.75 -1.75,1.75c-0.9665,0 -1.75,-0.7835 -1.75,-1.75z" fill="#75f20f" stroke="none" stroke-width="0.5"/><path d="M331.55582,230.7c0,-0.9665 0.7835,-1.75 1.75,-1.75c0.9665,0 1.75,0.7835 1.75,1.75c0,0.9665 -0.7835,1.75 -1.75,1.75c-0.9665,0 -1.75,-0.7835 -1.75,-1.75z" fill="#75f20f" stroke="none" stroke-width="0.5"/><path d="M335.45582,231.7c0,-0.69036 0.55964,-1.25 1.25,-1.25c0.05771,0 0.11451,0.00391 0.17014,0.01148c0.25512,-0.65072 0.88868,-1.11148 1.62986,-1.11148c0.51885,0 0.98496,0.2258 1.30543,0.58449c0.29973,-0.24057 0.68034,-0.38449 1.09457,-0.38449c0.9665,0 1.75,0.7835 1.75,1.75c0,0.9665 -0.7835,1.75 -1.75,1.75c-0.51885,0 -0.98496,-0.2258 -1.30543,-0.58449c-0.29973,0.24057 -0.68034,0.38449 -1.09457,0.38449c-0.33782,0 -0.65328,-0.09572 -0.92074,-0.26152c-0.22583,0.2235 -0.53643,0.36152 -0.87926,0.36152c-0.69036,0 -1.25,-0.55964 -1.25,-1.25z" fill="#75f20f" stroke="none" stroke-width="0.5"/><path d="M299.05582,233.1c0,-0.69036 0.55964,-1.25 1.25,-1.25c0.69036,0 1.25,0.55964 1.25,1.25c0,0.68623 -0.55297,1.2433 -1.23763,1.24994c0.26787,0.22926 0.43763,0.56984 0.43763,0.95006c0,0.69036 -0.55964,1.25 -1.25,1.25c-0.69036,0 -1.25,-0.55964 -1.25,-1.25c0,-0.68623 0.55297,-1.2433 1.23763,-1.24994c-0.26787,-0.22926 -0.43763,-0.56984 -0.43763,-0.95006z" fill="#75f20f" stroke="none" stroke-width="0.5"/><path d="M315.25582,233.3c0,-0.69036 0.55964,-1.25 1.25,-1.25c0.69036,0 1.25,0.55964 1.25,1.25c0,0.69036 -0.55964,1.25 -1.25,1.25c-0.69036,0 -1.25,-0.55964 -1.25,-1.25z" fill="#75f20f" stroke="none" stroke-width="0.5"/><path d="M321.10582,236.65c-0.33583,0 -0.62011,-0.22073 -0.71567,-0.52502c-0.32306,-0.22599 -0.53433,-0.60081 -0.53433,-1.02498c0,-0.69036 0.55964,-1.25 1.25,-1.25c0.69036,0 1.25,0.55964 1.25,1.25c0,0.42417 -0.21127,0.79899 -0.53433,1.02498c-0.09556,0.30429 -0.37984,0.52502 -0.71567,0.52502z" fill="#75f20f" stroke="none" stroke-width="0.5"/><path d="M325.05582,235.1c0,-0.69036 0.55964,-1.25 1.25,-1.25c0.69036,0 1.25,0.55964 1.25,1.25c0,0.69036 -0.55964,1.25 -1.25,1.25c-0.69036,0 -1.25,-0.55964 -1.25,-1.25z" fill="#75f20f" stroke="none" stroke-width="0.5"/><path d="M329.45582,232.7c0,-0.69036 0.55964,-1.25 1.25,-1.25c0.69036,0 1.25,0.55964 1.25,1.25c0,0.69036 -0.55964,1.25 -1.25,1.25c-0.69036,0 -1.25,-0.55964 -1.25,-1.25z" fill="#75f20f" stroke="none" stroke-width="0.5"/><path d="M341.45582,234.5c0,-0.69036 0.55964,-1.25 1.25,-1.25c0.69036,0 1.25,0.55964 1.25,1.25c0,0.69036 -0.55964,1.25 -1.25,1.25c-0.69036,0 -1.25,-0.55964 -1.25,-1.25z" fill="#75f20f" stroke="none" stroke-width="0.5"/><path d="M298.25582,224.7c0,-0.69036 0.55964,-1.25 1.25,-1.25c0.69036,0 1.25,0.55964 1.25,1.25c0,0.69036 -0.55964,1.25 -1.25,1.25c-0.69036,0 -1.25,-0.55964 -1.25,-1.25z" fill="#33965e" stroke="none" stroke-width="0.5"/><path d="M325.25582,224.5c0,-0.69036 0.55964,-1.25 1.25,-1.25c0.69036,0 1.25,0.55964 1.25,1.25c0,0.69036 -0.55964,1.25 -1.25,1.25c-0.69036,0 -1.25,-0.55964 -1.25,-1.25z" fill="#33965e" stroke="none" stroke-width="0.5"/><path d="M337.45582,223.9c0,-0.69036 0.55964,-1.25 1.25,-1.25c0.69036,0 1.25,0.55964 1.25,1.25c0,0.69036 -0.55964,1.25 -1.25,1.25c-0.69036,0 -1.25,-0.55964 -1.25,-1.25z" fill="#33965e" stroke="none" stroke-width="0.5"/><path d="M301.45582,218.5c0,-0.69036 0.55964,-1.25 1.25,-1.25c0.69036,0 1.25,0.55964 1.25,1.25c0,0.69036 -0.55964,1.25 -1.25,1.25c-0.69036,0 -1.25,-0.55964 -1.25,-1.25z" fill="#2d7a1a" stroke="none" stroke-width="0.5"/><path d="M329.45582,218.1c0,-0.69036 0.55964,-1.25 1.25,-1.25c0.69036,0 1.25,0.55964 1.25,1.25c0,0.69036 -0.55964,1.25 -1.25,1.25c-0.69036,0 -1.25,-0.55964 -1.25,-1.25z" fill="#2d7a1a" stroke="none" stroke-width="0.5"/><path d="M339.05582,218.5c0,-0.69036 0.55964,-1.25 1.25,-1.25c0.69036,0 1.25,0.55964 1.25,1.25c0,0.69036 -0.55964,1.25 -1.25,1.25c-0.69036,0 -1.25,-0.55964 -1.25,-1.25z" fill="#2d7a1a" stroke="none" stroke-width="0.5"/><path d="M298.55582,219.9c0,-0.41421 0.33579,-0.75 0.75,-0.75c0.41421,0 0.75,0.33579 0.75,0.75c0,0.41421 -0.33579,0.75 -0.75,0.75c-0.41421,0 -0.75,-0.33579 -0.75,-0.75z" fill="#2d7a1a" stroke="none" stroke-width="0.5"/><path d="M311.75582,219.9c0,-0.41421 0.33579,-0.75 0.75,-0.75c0.41421,0 0.75,0.33579 0.75,0.75c0,0.41421 -0.33579,0.75 -0.75,0.75c-0.41421,0 -0.75,-0.33579 -0.75,-0.75z" fill="#2d7a1a" stroke="none" stroke-width="0.5"/><path d="M315.75582,219.5c0,-0.41421 0.33579,-0.75 0.75,-0.75c0.41421,0 0.75,0.33579 0.75,0.75c0,0.41421 -0.33579,0.75 -0.75,0.75c-0.41421,0 -0.75,-0.33579 -0.75,-0.75z" fill="#2d7a1a" stroke="none" stroke-width="0.5"/><path d="M336.55582,219.1c0,-0.41421 0.33579,-0.75 0.75,-0.75c0.41421,0 0.75,0.33579 0.75,0.75c0,0.41421 -0.33579,0.75 -0.75,0.75c-0.41421,0 -0.75,-0.33579 -0.75,-0.75z" fill="#2d7a1a" stroke="none" stroke-width="0.5"/><path d="M301.35582,228.9c0,-0.41421 0.33579,-0.75 0.75,-0.75c0.41421,0 0.75,0.33579 0.75,0.75c0,0.41421 -0.33579,0.75 -0.75,0.75c-0.41421,0 -0.75,-0.33579 -0.75,-0.75z" fill="#33965e" stroke="none" stroke-width="0.5"/><path d="M307.75582,225.9c0,-0.41421 0.33579,-0.75 0.75,-0.75c0.41421,0 0.75,0.33579 0.75,0.75c0,0.41421 -0.33579,0.75 -0.75,0.75c-0.41421,0 -0.75,-0.33579 -0.75,-0.75z" fill="#33965e" stroke="none" stroke-width="0.5"/><path d="M312.55582,225.1c0,-0.41421 0.33579,-0.75 0.75,-0.75c0.41421,0 0.75,0.33579 0.75,0.75c0,0.41421 -0.33579,0.75 -0.75,0.75c-0.41421,0 -0.75,-0.33579 -0.75,-0.75z" fill="#33965e" stroke="none" stroke-width="0.5"/><path d="M322.55582,227.7c0,-0.41421 0.33579,-0.75 0.75,-0.75c0.41421,0 0.75,0.33579 0.75,0.75c0,0.41421 -0.33579,0.75 -0.75,0.75c-0.41421,0 -0.75,-0.33579 -0.75,-0.75z" fill="#33965e" stroke="none" stroke-width="0.5"/><path d="M338.75582,229.7c0,-0.41421 0.33579,-0.75 0.75,-0.75c0.41421,0 0.75,0.33579 0.75,0.75c0,0.41421 -0.33579,0.75 -0.75,0.75c-0.41421,0 -0.75,-0.33579 -0.75,-0.75z" fill="#33965e" stroke="none" stroke-width="0.5"/><path d="M299.55582,239.7c0,-0.41421 0.33579,-0.75 0.75,-0.75c0.41421,0 0.75,0.33579 0.75,0.75c0,0.41421 -0.33579,0.75 -0.75,0.75c-0.41421,0 -0.75,-0.33579 -0.75,-0.75z" fill="#75f20f" stroke="none" stroke-width="0.5"/><path d="M307.15582,237.3c0,-0.41421 0.33579,-0.75 0.75,-0.75c0.41421,0 0.75,0.33579 0.75,0.75c0,0.41421 -0.33579,0.75 -0.75,0.75c-0.41421,0 -0.75,-0.33579 -0.75,-0.75z" fill="#75f20f" stroke="none" stroke-width="0.5"/><path d="M329.55582,238.1c0,-0.41421 0.33579,-0.75 0.75,-0.75c0.41421,0 0.75,0.33579 0.75,0.75c0,0.41421 -0.33579,0.75 -0.75,0.75c-0.41421,0 -0.75,-0.33579 -0.75,-0.75z" fill="#75f20f" stroke="none" stroke-width="0.5"/><path d="M341.15582,238.5c0,-0.41421 0.33579,-0.75 0.75,-0.75c0.41421,0 0.75,0.33579 0.75,0.75c0,0.41421 -0.33579,0.75 -0.75,0.75c-0.41421,0 -0.75,-0.33579 -0.75,-0.75z" fill="#75f20f" stroke="none" stroke-width="0.5"/><path d="M298.34471,254.36667c0,-0.42979 0.21691,-0.80892 0.54723,-1.03388c-0.64321,-0.05358 -1.18761,-0.45502 -1.44453,-1.01565c-0.08673,0.88544 -0.83336,1.57731 -1.74159,1.57731c-0.9665,0 -1.75,-0.7835 -1.75,-1.75c0,-0.9665 0.7835,-1.75 1.75,-1.75c0.70663,0 1.31544,0.41882 1.59175,1.02176c0.08673,-0.88544 0.83336,-1.57731 1.74159,-1.57731c0.9665,0 1.75,0.7835 1.75,1.75c0,0.67535 -0.38256,1.26135 -0.94279,1.55312c0.56974,0.11646 0.99835,0.6205 0.99835,1.22466c0,0.69036 -0.55964,1.25 -1.25,1.25c-0.69036,0 -1.25,-0.55964 -1.25,-1.25z" fill="#942c3b" stroke="none" stroke-width="0.5"/><path d="M342.17804,252.14444c0,-0.9665 0.7835,-1.75 1.75,-1.75c0.9665,0 1.75,0.7835 1.75,1.75c0,0.9665 -0.7835,1.75 -1.75,1.75c-0.9665,0 -1.75,-0.7835 -1.75,-1.75z" fill="#942c3b" stroke="none" stroke-width="0.5"/><path d="M306.92804,253.95c-0.36192,0 -0.68791,-0.15381 -0.91617,-0.39962c-0.064,0.00709 -0.12904,0.01074 -0.19494,0.01074c-0.9665,0 -1.75,-0.7835 -1.75,-1.75c0,-0.9665 0.7835,-1.75 1.75,-1.75c0.45394,0 0.86751,0.17284 1.1785,0.45629c0.2914,-0.21685 0.65257,-0.34518 1.04372,-0.34518c0.9665,0 1.75,0.7835 1.75,1.75c0,0.9665 -0.7835,1.75 -1.75,1.75c-0.10075,0 -0.19951,-0.00851 -0.2956,-0.02486c-0.2189,0.18861 -0.50389,0.30264 -0.81551,0.30264z" fill="#942c3b" stroke="none" stroke-width="0.5"/><path d="M311.56693,254.14444c0,-0.4588 0.24718,-0.85987 0.61563,-1.0773c-0.21241,-0.28966 -0.33786,-0.64709 -0.33786,-1.03381c0,-0.9665 0.7835,-1.75 1.75,-1.75c0.9665,0 1.75,0.7835 1.75,1.75c0,0.8274 -0.57421,1.52069 -1.34588,1.70311c0.04413,0.12787 0.0681,0.26514 0.0681,0.408c0,0.69036 -0.55964,1.25 -1.25,1.25c-0.69036,0 -1.25,-0.55964 -1.25,-1.25z" fill="#942c3b" stroke="none" stroke-width="0.5"/><path d="M316.17804,252.25556c0,-0.9665 0.7835,-1.75 1.75,-1.75c0.9665,0 1.75,0.7835 1.75,1.75c0,0.9665 -0.7835,1.75 -1.75,1.75c-0.9665,0 -1.75,-0.7835 -1.75,-1.75z" fill="#942c3b" stroke="none" stroke-width="0.5"/><path d="M321.62249,252.25556c0,-0.9665 0.7835,-1.75 1.75,-1.75c0.9665,0 1.75,0.7835 1.75,1.75c0,0.9665 -0.7835,1.75 -1.75,1.75c-0.9665,0 -1.75,-0.7835 -1.75,-1.75z" fill="#942c3b" stroke="none" stroke-width="0.5"/><path d="M331.81693,250.56111c0.69036,0 1.25,0.55964 1.25,1.25c0,0.69036 -0.55964,1.25 -1.25,1.25c-0.43659,0 -0.82091,-0.22383 -1.04445,-0.563c-0.11809,0.8517 -0.84913,1.50744 -1.73333,1.50744c-0.9665,0 -1.75,-0.7835 -1.75,-1.75c0,-0.9665 0.7835,-1.75 1.75,-1.75c0.6895,0 1.28587,0.39876 1.57107,0.97824c0.14385,-0.5316 0.62961,-0.92268 1.20671,-0.92268z" fill="#942c3b" stroke="none" stroke-width="0.5"/><path d="M333.2336,252.25556c0,-0.69036 0.55964,-1.25 1.25,-1.25c0.00368,0 0.00735,0.00002 0.01102,0.00005c0.30057,-0.24324 0.68332,-0.38894 1.1001,-0.38894c0.9665,0 1.75,0.7835 1.75,1.75c0,0.9665 -0.7835,1.75 -1.75,1.75c-0.54207,0 -1.02658,-0.24646 -1.34758,-0.63345c-0.57729,-0.11053 -1.01353,-0.61815 -1.01353,-1.22766z" fill="#942c3b" stroke="none" stroke-width="0.5"/><path d="M337.51138,251.92222c0,-0.9665 0.7835,-1.75 1.75,-1.75c0.9665,0 1.75,0.7835 1.75,1.75c0,0.9665 -0.7835,1.75 -1.75,1.75c-0.9665,0 -1.75,-0.7835 -1.75,-1.75z" fill="#942c3b" stroke="none" stroke-width="0.5"/><path d="M294.34471,264.36667c0,-0.51341 0.30953,-0.95453 0.75215,-1.14693c-0.05556,0.00532 -0.11187,0.00804 -0.16882,0.00804c-0.9665,0 -1.75,-0.7835 -1.75,-1.75c0,-0.9665 0.7835,-1.75 1.75,-1.75c0.9665,0 1.75,0.7835 1.75,1.75c0,0.75127 -0.4734,1.39197 -1.13817,1.64007c0.01818,-0.00078 0.03647,-0.00118 0.05484,-0.00118c0.69036,0 1.25,0.55964 1.25,1.25c0,0.69036 -0.55964,1.25 -1.25,1.25c-0.69036,0 -1.25,-0.55964 -1.25,-1.25z" fill="#9d2f3a" stroke="none" stroke-width="0.5"/><path d="M304.37249,261.00556c0.69036,0 1.25,0.55964 1.25,1.25c0,0.69036 -0.55964,1.25 -1.25,1.25c-0.55684,0 -1.02864,-0.3641 -1.1903,-0.86722c-0.21399,0.09327 -0.45025,0.145 -0.69859,0.145c-0.28498,0 -0.55405,-0.06812 -0.79182,-0.18896c-0.37915,-0.07253 -0.69748,-0.31634 -0.87138,-0.64782c-0.11448,0.57228 -0.61973,1.00345 -1.22569,1.00345c-0.69036,0 -1.25,-0.55964 -1.25,-1.25c0,-0.69036 0.55964,-1.25 1.25,-1.25c0.48106,0 0.89866,0.27175 1.10764,0.67012c0.00845,-0.04226 0.01904,-0.08376 0.03164,-0.12437c0.01046,-0.49645 0.22766,-0.94204 0.56896,-1.25417c0.31998,-0.3499 0.78024,-0.56936 1.29175,-0.56936c0.9665,0 1.75,0.7835 1.75,1.75c0,0.02805 -0.00066,0.05595 -0.00197,0.08368c0.00989,-0.00023 0.0198,-0.00035 0.02974,-0.00035z" fill="#9d2f3a" stroke="none" stroke-width="0.5"/><path d="M308.40026,260.58889c0,-0.9665 0.7835,-1.75 1.75,-1.75c0.9665,0 1.75,0.7835 1.75,1.75c0,0.9665 -0.7835,1.75 -1.75,1.75c-0.9665,0 -1.75,-0.7835 -1.75,-1.75z" fill="#9d2f3a" stroke="none" stroke-width="0.5"/><path d="M317.17804,262.14444c0,0.53381 -0.33462,0.98948 -0.80554,1.16867c-0.19295,0.12189 -0.42158,0.19244 -0.66668,0.19244c-0.4865,0 -0.90809,-0.27793 -1.11465,-0.68367c-0.57431,-0.28703 -0.96869,-0.88063 -0.96869,-1.56633c0,-0.9665 0.7835,-1.75 1.75,-1.75c0.9665,0 1.75,0.7835 1.75,1.75c0,0.1364 -0.01561,0.26915 -0.04513,0.39658c0.0648,0.15108 0.10068,0.31751 0.10068,0.49231z" fill="#9d2f3a" stroke="none" stroke-width="0.5"/><path d="M321.26138,263.28333c-0.28271,0 -0.5435,-0.09385 -0.75291,-0.2521c-0.3057,0.26111 -0.70243,0.41877 -1.13598,0.41877c-0.9665,0 -1.75,-0.7835 -1.75,-1.75c0,-0.9665 0.7835,-1.75 1.75,-1.75c0.47739,0 0.91014,0.19116 1.22587,0.5011c0.32096,-0.37474 0.79759,-0.61222 1.32968,-0.61222c0.9665,0 1.75,0.7835 1.75,1.75c0,0.9665 -0.7835,1.75 -1.75,1.75c-0.16876,0 -0.33194,-0.02389 -0.48634,-0.06847c-0.05888,0.00851 -0.11909,0.01291 -0.18032,0.01291z" fill="#9d2f3a" stroke="none" stroke-width="0.5"/><path d="M326.90026,264.36667c0,-0.07667 0.0069,-0.15173 0.02012,-0.22458c-0.22599,0.22465 -0.5374,0.36347 -0.88123,0.36347c-0.69036,0 -1.25,-0.55964 -1.25,-1.25c0,-0.22437 0.05911,-0.43493 0.16262,-0.61696c-0.27401,-0.3089 -0.44039,-0.71543 -0.44039,-1.16082c0,-0.9665 0.7835,-1.75 1.75,-1.75c0.9665,0 1.75,0.7835 1.75,1.75c0,0.60178 -0.30375,1.13262 -0.7663,1.44756c0.02874,0.10519 0.04408,0.21591 0.04408,0.33022c0,0.07667 -0.0069,0.15173 -0.02012,0.22458c0.22599,-0.22465 0.5374,-0.36347 0.88123,-0.36347c0.69036,0 1.25,0.55964 1.25,1.25c0,0.69036 -0.55964,1.25 -1.25,1.25c-0.69036,0 -1.25,-0.55964 -1.25,-1.25z" fill="#9d2f3a" stroke="none" stroke-width="0.5"/><path d="M339.78915,262.25556c0,-0.63642 0.47561,-1.16175 1.09078,-1.23995c0.16256,-0.79825 0.86852,-1.39893 1.71478,-1.39893c0.9665,0 1.75,0.7835 1.75,1.75c0,0.9665 -0.7835,1.75 -1.75,1.75c-0.19893,0 -0.3901,-0.03319 -0.56829,-0.09434c-0.22871,0.29405 -0.5859,0.48323 -0.98727,0.48323c-0.69036,0 -1.25,-0.55964 -1.25,-1.25z" fill="#9d2f3a" stroke="none" stroke-width="0.5"/><path d="M300.67804,252.7c0,-0.69036 0.55964,-1.25 1.25,-1.25c0.69036,0 1.25,0.55964 1.25,1.25c0,0.69036 -0.55964,1.25 -1.25,1.25c-0.69036,0 -1.25,-0.55964 -1.25,-1.25z" fill="#942c3b" stroke="none" stroke-width="0.5"/><path d="M316.12249,255.47778c0,-0.69036 0.55964,-1.25 1.25,-1.25c0.69036,0 1.25,0.55964 1.25,1.25c0,0.69036 -0.55964,1.25 -1.25,1.25c-0.69036,0 -1.25,-0.55964 -1.25,-1.25z" fill="#942c3b" stroke="none" stroke-width="0.5"/><path d="M320.90026,255.81111c0,-0.69036 0.55964,-1.25 1.25,-1.25c0.69036,0 1.25,0.55964 1.25,1.25c0,0.69036 -0.55964,1.25 -1.25,1.25c-0.69036,0 -1.25,-0.55964 -1.25,-1.25z" fill="#942c3b" stroke="none" stroke-width="0.5"/><path d="M325.45582,254.25556c0,-0.69036 0.55964,-1.25 1.25,-1.25c0.69036,0 1.25,0.55964 1.25,1.25c0,0.69036 -0.55964,1.25 -1.25,1.25c-0.69036,0 -1.25,-0.55964 -1.25,-1.25z" fill="#942c3b" stroke="none" stroke-width="0.5"/><path d="M341.12249,254.92222c0,-0.69036 0.55964,-1.25 1.25,-1.25c0.69036,0 1.25,0.55964 1.25,1.25c0,0.69036 -0.55964,1.25 -1.25,1.25c-0.69036,0 -1.25,-0.55964 -1.25,-1.25z" fill="#942c3b" stroke="none" stroke-width="0.5"/><path d="M306.12249,263.58889c0,-0.69036 0.55964,-1.25 1.25,-1.25c0.69036,0 1.25,0.55964 1.25,1.25c0,0.69036 -0.55964,1.25 -1.25,1.25c-0.69036,0 -1.25,-0.55964 -1.25,-1.25z" fill="#9d2f3a" stroke="none" stroke-width="0.5"/><path d="M313.03915,263.89444c0.69036,0 1.25,0.55964 1.25,1.25c0,0.69036 -0.55964,1.25 -1.25,1.25c-0.07584,0 -0.1501,-0.00675 -0.22222,-0.01969c-0.07212,0.01294 -0.14638,0.01969 -0.22222,0.01969c-0.69036,0 -1.25,-0.55964 -1.25,-1.25c0,-0.69036 0.55964,-1.25 1.25,-1.25c0.07584,0 0.1501,0.00675 0.22222,0.01969c0.07212,-0.01294 0.14638,-0.01969 0.22222,-0.01969z" fill="#9d2f3a" stroke="none" stroke-width="0.5"/><path d="M333.12249,261.25556c0,-0.69036 0.55964,-1.25 1.25,-1.25c0.34808,0 0.66294,0.14228 0.88958,0.37185c0.3154,-0.45942 0.84439,-0.76074 1.44376,-0.76074c0.9665,0 1.75,0.7835 1.75,1.75c0,0.9665 -0.7835,1.75 -1.75,1.75c-0.65894,0 -1.23282,-0.36419 -1.53133,-0.90227c-0.21706,0.18175 -0.49675,0.29116 -0.802,0.29116c-0.12419,0 -0.24416,-0.01811 -0.35739,-0.05184c0.03373,0.11324 0.05184,0.2332 0.05184,0.35739c0,0.62988 -0.46589,1.15095 -1.07188,1.23741c0.11608,0.18971 0.18299,0.41279 0.18299,0.65148c0,0.69036 -0.55964,1.25 -1.25,1.25c-0.69036,0 -1.25,-0.55964 -1.25,-1.25c0,-0.62988 0.46589,-1.15095 1.07188,-1.23741c-0.11608,-0.18971 -0.18299,-0.41279 -0.18299,-0.65148c0,-0.10888 0.01392,-0.21452 0.04008,-0.31522c-0.10888,0.10837 -0.23195,0.2025 -0.36617,0.27936c-0.64198,0.44665 -1.394,0.62292 -1.75654,-0.01153c-0.5158,-0.30441 -0.86182,-0.86589 -0.86182,-1.50818c0,-0.9665 0.7835,-1.75 1.75,-1.75c0.17212,0 0.33844,0.02485 0.49556,0.07115c0.79343,-0.17182 1.47667,0.18767 1.47667,1.67885c0,0.13848 -0.048,0.29648 -0.13201,0.46103c0.17909,-0.09908 0.38507,-0.15548 0.60423,-0.15548c0.12419,0 0.24416,0.01811 0.35739,0.05184c-0.03373,-0.11324 -0.05184,-0.2332 -0.05184,-0.35739z" fill="#9d2f3a" stroke="none" stroke-width="0.5"/><path d="M341.67804,265.14444c0,-0.69036 0.55964,-1.25 1.25,-1.25c0.69036,0 1.25,0.55964 1.25,1.25c0,0.69036 -0.55964,1.25 -1.25,1.25c-0.69036,0 -1.25,-0.55964 -1.25,-1.25z" fill="#9d2f3a" stroke="none" stroke-width="0.5"/><path d="M294.7336,256.03333c0,-0.41421 0.33579,-0.75 0.75,-0.75c0.41421,0 0.75,0.33579 0.75,0.75c0,0.41421 -0.33579,0.75 -0.75,0.75c-0.41421,0 -0.75,-0.33579 -0.75,-0.75z" fill="#942c3b" stroke="none" stroke-width="0.5"/><path d="M297.95582,257.47778c0,-0.41421 0.33579,-0.75 0.75,-0.75c0.41421,0 0.75,0.33579 0.75,0.75c0,0.41421 -0.33579,0.75 -0.75,0.75c-0.41421,0 -0.75,-0.33579 -0.75,-0.75z" fill="#942c3b" stroke="none" stroke-width="0.5"/><path d="M304.17804,258.25556c0,-0.41421 0.33579,-0.75 0.75,-0.75c0.41421,0 0.75,0.33579 0.75,0.75c0,0.41421 -0.33579,0.75 -0.75,0.75c-0.41421,0 -0.75,-0.33579 -0.75,-0.75z" fill="#942c3b" stroke="none" stroke-width="0.5"/><path d="M307.06693,256.58889c0,-0.41421 0.33579,-0.75 0.75,-0.75c0.41421,0 0.75,0.33579 0.75,0.75c0,0.41421 -0.33579,0.75 -0.75,0.75c-0.41421,0 -0.75,-0.33579 -0.75,-0.75z" fill="#942c3b" stroke="none" stroke-width="0.5"/><path d="M313.40026,257.7c0,-0.41421 0.33579,-0.75 0.75,-0.75c0.41421,0 0.75,0.33579 0.75,0.75c0,0.41421 -0.33579,0.75 -0.75,0.75c-0.41421,0 -0.75,-0.33579 -0.75,-0.75z" fill="#942c3b" stroke="none" stroke-width="0.5"/><path d="M319.62249,258.7c0,-0.41421 0.33579,-0.75 0.75,-0.75c0.41421,0 0.75,0.33579 0.75,0.75c0,0.41421 -0.33579,0.75 -0.75,0.75c-0.41421,0 -0.75,-0.33579 -0.75,-0.75z" fill="#942c3b" stroke="none" stroke-width="0.5"/><path d="M328.06693,257.81111c0,-0.41421 0.33579,-0.75 0.75,-0.75c0.41421,0 0.75,0.33579 0.75,0.75c0,0.41421 -0.33579,0.75 -0.75,0.75c-0.41421,0 -0.75,-0.33579 -0.75,-0.75z" fill="#942c3b" stroke="none" stroke-width="0.5"/><path d="M331.62249,257.47778c0,-0.41421 0.33579,-0.75 0.75,-0.75c0.41421,0 0.75,0.33579 0.75,0.75c0,0.41421 -0.33579,0.75 -0.75,0.75c-0.41421,0 -0.75,-0.33579 -0.75,-0.75z" fill="#942c3b" stroke="none" stroke-width="0.5"/><path d="M340.40026,258.36667c0,-0.41421 0.33579,-0.75 0.75,-0.75c0.41421,0 0.75,0.33579 0.75,0.75c0,0.41421 -0.33579,0.75 -0.75,0.75c-0.41421,0 -0.75,-0.33579 -0.75,-0.75z" fill="#942c3b" stroke="none" stroke-width="0.5"/><path d="M299.06693,268.36667c0,-0.41421 0.33579,-0.75 0.75,-0.75c0.41421,0 0.75,0.33579 0.75,0.75c0,0.41421 -0.33579,0.75 -0.75,0.75c-0.41421,0 -0.75,-0.33579 -0.75,-0.75z" fill="#9d2f3a" stroke="none" stroke-width="0.5"/><path d="M302.40026,266.25556c0,-0.41421 0.33579,-0.75 0.75,-0.75c0.41421,0 0.75,0.33579 0.75,0.75c0,0.41421 -0.33579,0.75 -0.75,0.75c-0.41421,0 -0.75,-0.33579 -0.75,-0.75z" fill="#9d2f3a" stroke="none" stroke-width="0.5"/><path d="M312.62249,268.81111c0,-0.41421 0.33579,-0.75 0.75,-0.75c0.41421,0 0.75,0.33579 0.75,0.75c0,0.41421 -0.33579,0.75 -0.75,0.75c-0.41421,0 -0.75,-0.33579 -0.75,-0.75z" fill="#9d2f3a" stroke="none" stroke-width="0.5"/><path d="M318.7336,269.14444c0,-0.41421 0.33579,-0.75 0.75,-0.75c0.41421,0 0.75,0.33579 0.75,0.75c0,0.41421 -0.33579,0.75 -0.75,0.75c-0.41421,0 -0.75,-0.33579 -0.75,-0.75z" fill="#9d2f3a" stroke="none" stroke-width="0.5"/><path d="M327.62249,267.58889c0,-0.41421 0.33579,-0.75 0.75,-0.75c0.41421,0 0.75,0.33579 0.75,0.75c0,0.41421 -0.33579,0.75 -0.75,0.75c-0.41421,0 -0.75,-0.33579 -0.75,-0.75z" fill="#9d2f3a" stroke="none" stroke-width="0.5"/><path d="M341.17804,267.7c0,-0.41421 0.33579,-0.75 0.75,-0.75c0.41421,0 0.75,0.33579 0.75,0.75c0,0.41421 -0.33579,0.75 -0.75,0.75c-0.41421,0 -0.75,-0.33579 -0.75,-0.75z" fill="#9d2f3a" stroke="none" stroke-width="0.5"/></g><path d="M214.52362,306.61252v-267.72501h213.18203v267.72501z" fill="none" stroke="none" stroke-width="0" stroke-linecap="butt"/><path d="" fill="none" stroke="#000000" stroke-width="2" stroke-linecap="round"/><path d="" fill-opacity="0.73333" fill="#2d7a1a" stroke="none" stroke-width="0" stroke-linecap="butt"/><g><path d="M271.15853,171.67454c-4.60633,-31.08463 18.5046,-60.2618 51.61967,-65.16901c33.11508,-4.90721 63.69433,16.31378 68.30066,47.39842c3.03914,20.50885 -5.9871,40.18736 -21.9915,52.61302c-2.37298,1.84236 -5.3983,22.025 -8.06151,23.52752c-6.59918,3.72311 -10.96379,5.22076 -18.99091,6.41027c-8.61749,1.277 -16.20534,-0.04849 -24.06637,-2.02362c-2.03359,-0.51095 -7.46174,-17.66983 -9.40993,-18.37427c-19.46032,-7.03673 -34.30258,-23.4794 -37.40012,-44.38232z" fill="#a93232" stroke="#000000" stroke-width="0" stroke-linecap="butt"/><path d="M321.21191,231.49229l-4.07802,-20.1602l41.62522,-5.51899l0.75653,19.86539z" fill="#7c2532" stroke="none" stroke-width="0" stroke-linecap="butt"/><g fill="#fff8f7" stroke="none" stroke-width="0" stroke-linecap="butt"><path d="M338.32608,233.51307c-1.5139,0.22434 -3.11966,-2.14795 -3.58655,-5.29866c-0.03255,-0.21967 5.45627,-0.98822 5.48233,-0.81241c0.46689,3.15071 -0.38187,5.88672 -1.89578,6.11107z"/><path d="M333.50641,233.78794c-1.50956,0.25039 -3.20392,-2.0863 -3.78446,-5.21918c-0.04048,-0.21843 5.4342,-1.08158 5.46659,-0.90676c0.58055,3.13287 -0.17257,5.87554 -1.68214,6.12593z"/><path d="M324.12203,233.91773c-1.37852,0.31853 -3.2396,-1.71844 -4.15684,-4.54972c-0.06396,-0.19741 4.94088,-1.3115 4.99206,-1.15351c0.91724,2.83128 0.54329,5.38469 -0.83523,5.70323z"/><path d="M328.65347,233.84238c-1.42567,0.28604 -3.19893,-1.86738 -3.96068,-4.80982c-0.05312,-0.20515 5.12032,-1.20006 5.16283,-1.03585c0.76175,2.94243 0.22355,5.55962 -1.20212,5.84567z"/><path d="M340.07913,227.42316c-0.02606,-0.17582 5.44977,-1.03208 5.48232,-0.81241c0.46689,3.15071 -0.38187,5.88672 -1.89578,6.11107c-1.5139,0.22434 -3.11966,-2.14795 -3.58655,-5.29866z"/><path d="M345.09616,226.33996c-0.01969,-0.1767 5.47002,-0.93833 5.49463,-0.71755c0.35295,3.1666 -0.59094,5.89425 -2.10823,6.0924c-1.51731,0.19815 -3.03344,-2.20825 -3.3864,-5.37484z"/><path d="M355.03739,223.83009c0.00317,-0.16605 5.11602,-0.55126 5.11206,-0.34379c-0.05673,2.97561 -1.24709,5.46476 -2.65876,5.5597c-1.41166,0.09493 -2.51004,-2.2403 -2.4533,-5.21591z"/><path d="M350.27581,224.9707c-0.00693,-0.16947 5.23269,-0.71764 5.24136,-0.5059c0.12431,3.03689 -0.94825,5.61203 -2.3956,5.75173c-1.44735,0.1397 -2.72144,-2.20894 -2.84573,-5.24583z"/></g><g fill="#fff8f7" stroke="none" stroke-width="0" stroke-linecap="butt"><path d="M338.02331,211.20465c0.03178,0.21448 -5.78982,1.13183 -5.82953,0.86386c-0.56955,-3.84344 0.27374,-7.15254 1.88351,-7.39109c1.60977,-0.23855 3.37647,2.6838 3.94602,6.52723z"/><path d="M332.61867,211.88516c0.02503,0.21541 -5.81356,1.01733 -5.84481,0.74818c-0.44837,-3.86017 0.49657,-7.15694 2.11058,-7.36354c1.614,-0.2066 3.28587,2.75519 3.73425,6.61536z"/><path d="M321.77409,212.70671c0.00039,0.20193 -5.44473,0.55448 -5.44522,0.30219c-0.00702,-3.61854 1.20624,-6.61958 2.70988,-6.70303c1.50366,-0.08345 2.7283,2.7823 2.73532,6.40084z"/><path d="M327.00831,212.64832c0.01125,0.20632 -5.56541,0.75424 -5.57946,0.49646c-0.20152,-3.6972 0.88413,-6.8055 2.42485,-6.9426c1.54072,-0.1371 2.95308,2.74894 3.15461,6.44614z"/><path d="M339.86503,203.81975c1.60979,-0.23855 3.37648,2.68379 3.94603,6.52723c0.03971,0.26797 -5.79775,1.07834 -5.82953,0.86386c-0.56955,-3.84344 0.27374,-7.15254 1.88351,-7.39109z"/><path d="M345.00651,202.88072c1.60455,-0.27035 3.46496,2.61072 4.15534,6.43503c0.04812,0.26663 -5.77209,1.1924 -5.81061,0.97899c-0.69037,-3.82431 0.05072,-7.14368 1.65529,-7.41402z"/><path d="M354.72952,201.01698c1.46324,-0.35621 3.49468,2.16402 4.53734,5.6291c0.0727,0.24159 -5.24066,1.4833 -5.29884,1.28994c-1.04266,-3.46507 -0.70175,-6.56282 0.76151,-6.91903z"/><path d="M350.09144,202.3141c1.51426,-0.31562 3.45469,2.34428 4.33403,5.94103c0.06131,0.25078 -5.43459,1.34365 -5.48366,1.14294c-0.87934,-3.59675 -0.36463,-6.76835 1.14963,-7.08397z"/></g><path d="M319.77704,205.12584c-0.18543,0.16767 -0.35311,-0.01777 -0.35311,-0.01777l-0.22911,-0.25354c-0.99895,-1.06329 -2.37271,0.36006 -2.96284,1.15608c0,0 -0.14896,0.20079 -0.34973,0.05183c-0.20079,-0.14896 -0.05183,-0.34973 -0.05183,-0.34973c0.82952,-1.11738 2.40993,-2.44253 3.72583,-1.20367l0.23856,0.26369c0,0 0.16767,0.18543 -0.01777,0.35311z" fill="#872929" stroke="none" stroke-width="0.5" stroke-linecap="butt"/><path d="M324.17012,204.7128c-0.14375,0.0213 -0.21632,-0.05334 -0.25189,-0.11958c-0.84724,-0.08672 -1.7861,0.37195 -2.56113,0.63034c0,0 -0.23717,0.07907 -0.31623,-0.1581c-0.07907,-0.23717 0.1581,-0.31623 0.1581,-0.31623c0.92925,-0.30979 1.9666,-0.79193 2.96378,-0.62558l0.21804,0.30521c0,0 0.03665,0.2473 -0.21065,0.28395z" fill="#872929" stroke="none" stroke-width="0.5" stroke-linecap="butt"/><path d="M329.85267,203.4797c-0.17653,0.02616 -0.24572,-0.09237 -0.27086,-0.16235c-0.64083,-0.19053 -1.7679,0.46566 -2.21973,0.88c0,0 -0.18543,0.16767 -0.35311,-0.01777c-0.16767,-0.18543 0.01777,-0.35311 0.01777,-0.35311c0.67437,-0.60268 2.01863,-1.29649 2.88181,-0.91581l0.15478,0.2851c0,0 0.03665,0.2473 -0.21065,0.28395z" fill="#872929" stroke="none" stroke-width="0.5" stroke-linecap="butt"/><path d="M334.30147,202.80803c0.08765,0.23413 -0.14648,0.32178 -0.14648,0.32178l-0.36011,0.13482c-0.70598,0.26429 -0.82035,0.26239 -1.20395,0.89143c0,0 -0.13017,0.21345 -0.34361,0.08328c-0.21344,-0.13017 -0.08327,-0.34361 -0.08327,-0.34361c0.42376,-0.69488 0.68443,-0.81069 1.45554,-1.09937l0.36011,-0.13481c0,0 0.23413,-0.08765 0.32178,0.14648z" fill="#872929" stroke="none" stroke-width="0.5" stroke-linecap="butt"/><path d="M341.19775,202.31102c-0.14896,0.20079 -0.34973,0.05182 -0.34973,0.05182l-0.0514,-0.04922c-1.23623,-0.49471 -2.27178,0.30915 -3.26611,0.89005c0,0 -0.21601,0.12587 -0.34188,-0.09013c-0.12587,-0.216 0.09013,-0.34187 0.09013,-0.34187c1.15546,-0.6715 2.28059,-1.46173 3.69891,-0.92411l0.16826,0.11374c0,0 0.20079,0.14896 0.05183,0.34973z" fill="#872929" stroke="none" stroke-width="0.5" stroke-linecap="butt"/><path d="M348.04233,201.00348c-0.14896,0.20079 -0.34973,0.05183 -0.34973,0.05183l-0.16109,-0.13065c-1.49716,-0.08445 -2.42666,0.60857 -3.68783,1.34349c0,0 -0.21601,0.12587 -0.34188,-0.09013c-0.12587,-0.216 0.09013,-0.34188 0.09013,-0.34188c1.38418,-0.80659 2.45408,-1.59313 4.12033,-1.37766l0.27823,0.19526c0,0 0.20079,0.14896 0.05183,0.34973z" fill="#872929" stroke="none" stroke-width="0.5" stroke-linecap="butt"/><path d="M351.60989,200.67033c-0.14896,0.20079 -0.34973,0.05183 -0.34973,0.05183l-0.13148,-0.12124c-0.53868,0.1345 -0.906,0.25323 -1.40984,0.50846c0,0 -0.22302,0.11297 -0.33599,-0.11005c-0.11297,-0.22302 0.11005,-0.33599 0.11005,-0.33599c0.61358,-0.3108 1.0686,-0.47982 1.75735,-0.54742l0.30783,0.20468c0,0 0.20079,0.14896 0.05183,0.34973z" fill="#872929" stroke="none" stroke-width="0.5" stroke-linecap="butt"/><path d="M355.88599,199.84115c-0.14896,0.20079 -0.34973,0.05183 -0.34973,0.05183l-0.06756,-0.05616c-1.31784,-0.63317 -1.79566,0.40076 -2.86606,0.94296c0,0 -0.22302,0.11297 -0.33599,-0.11005c-0.11297,-0.22302 0.11005,-0.33599 0.11005,-0.33599c1.22093,-0.61845 1.77488,-1.66048 3.30537,-0.94912l0.15209,0.10679c0,0 0.20079,0.14896 0.05183,0.34973z" fill="#872929" stroke="none" stroke-width="0.5" stroke-linecap="butt"/><path d="M324.25381,233.90591c0.20079,0.14896 0.05183,0.34973 0.05183,0.34973l-0.24562,0.20817c-0.92565,0.13717 -2.15218,0.29001 -2.7462,-0.51479c0,0 -0.14337,-0.20481 0.06142,-0.34818c0.20481,-0.14337 0.34818,0.06142 0.34818,0.06142c0.40151,0.62028 1.58067,0.4081 2.2633,0.30694l-0.08266,-0.01149c0,0 0.14895,-0.20078 0.34973,-0.05183z" fill="#872929" stroke="none" stroke-width="0.5" stroke-linecap="butt"/><path d="M329.57775,234.37099c0.03665,0.2473 -0.21065,0.28395 -0.21065,0.28395l-0.14352,0.01636c-0.88164,0.31402 -1.31184,0.15449 -2.1642,-0.19918c0,0 -0.23091,-0.09581 -0.1351,-0.32672c0.09581,-0.23091 0.32672,-0.1351 0.32672,-0.1351c0.74817,0.31043 1.03922,0.46694 1.80371,0.19038l0.2391,-0.04034c0,0 0.2473,-0.03665 0.28395,0.21065z" fill="#872929" stroke="none" stroke-width="0.5" stroke-linecap="butt"/><path d="M335.07613,234.53374c0.03665,0.2473 -0.21065,0.28395 -0.21065,0.28395l-0.29172,0.04318c-0.69495,0.07502 -1.36025,0.01995 -2.04511,-0.10089c0,0 -0.2462,-0.04344 -0.20276,-0.28963c0.04344,-0.2462 0.28963,-0.20276 0.28963,-0.20276c0.63423,0.1119 1.25053,0.16846 1.89446,0.09736l0.2822,-0.04187c0,0 0.2473,-0.03665 0.28395,0.21065z" fill="#872929" stroke="none" stroke-width="0.5" stroke-linecap="butt"/><path d="M339.21812,233.54677c0.11297,0.22302 -0.11005,0.33599 -0.11005,0.33599l-0.30997,0.15339c-0.86049,0.12751 -1.02163,0.34409 -1.90373,0.06319c0,0 -0.23758,-0.07782 -0.15975,-0.3154c0.07781,-0.23758 0.3154,-0.15976 0.3154,-0.15976c0.505,0.16924 1.06967,0.01357 1.59652,-0.0645l0.23561,-0.12296c0,0 0.22302,-0.11297 0.33599,0.11004z" fill="#872929" stroke="none" stroke-width="0.5" stroke-linecap="butt"/><path d="M345.36218,232.75269c0.09553,0.23103 -0.1355,0.32656 -0.1355,0.32656l-0.39439,0.16145c-1.52159,0.25135 -2.30116,0.94413 -3.87507,0.13843c0,0 -0.22253,-0.11392 -0.10861,-0.33645c0.11392,-0.22254 0.33645,-0.10861 0.33645,-0.10861c1.42117,0.72751 2.1252,0.07725 3.50805,-0.1736l0.34249,-0.14326c0,0 0.23104,-0.09553 0.32656,0.13549z" fill="#872929" stroke="none" stroke-width="0.5" stroke-linecap="butt"/><path d="M349.49158,232.20206c0.03665,0.2473 -0.21065,0.28394 -0.21065,0.28394l-0.28697,0.04253c-0.70269,0.10117 -1.52692,0.14058 -2.227,0.02378c0,0 -0.2462,-0.04344 -0.20276,-0.28964c0.04344,-0.2462 0.28964,-0.20276 0.28964,-0.20276c0.6314,0.11932 1.4329,0.07115 2.06683,-0.02598l0.28697,-0.04253c0,0 0.2473,-0.03665 0.28395,0.21065z" fill="#872929" stroke="none" stroke-width="0.5" stroke-linecap="butt"/><path d="M354.04897,230.68338c0.09553,0.23103 -0.1355,0.32656 -0.1355,0.32656l-0.39738,0.1623c-0.60996,0.09319 -1.08129,-0.1535 -1.60294,-0.05383c0,0 -0.2473,0.03665 -0.28394,-0.21065c-0.03665,-0.2473 0.21065,-0.28395 0.21065,-0.28395c0.59612,-0.07163 0.92632,0.15458 1.54306,0.0665l0.3395,-0.14241c0,0 0.23104,-0.09553 0.32656,0.13549z" fill="#872929" stroke="none" stroke-width="0.5" stroke-linecap="butt"/><path d="M358.76081,229.49638c0.09553,0.23103 -0.13549,0.32656 -0.13549,0.32656l-0.35964,0.14851c-0.73285,0.36292 -1.33055,0.24333 -2.0892,0.11119c0,0 -0.2462,-0.04344 -0.20276,-0.28963c0.04344,-0.2462 0.28963,-0.20276 0.28963,-0.20276c0.65015,0.11601 1.16285,0.25516 1.79367,-0.07318l0.37724,-0.15618c0,0 0.23104,-0.09553 0.32656,0.13549z" fill="#872929" stroke="none" stroke-width="0.5" stroke-linecap="butt"/><g><g fill="#a2f30f" stroke="#000000" stroke-width="0"><path d="M266.52084,167.80377c-4.88158,-32.94212 19.61035,-63.86278 54.70424,-69.06323c35.0939,-5.20045 67.50043,17.28862 72.38201,50.23074c2.00915,13.55821 -0.95744,26.77399 -7.59103,37.99509c-0.62345,1.0546 3.22148,5.37353 3.22148,5.37353c0,0 -4.74386,-1.60995 -8.96392,-0.46394c-1.46969,0.39912 -2.33457,3.8114 -2.33457,3.8114c0,0 -5.91934,-0.88479 -8.47134,-0.23832c-1.59816,0.40484 -4.05832,5.44271 -4.05832,5.44271c0,0 -3.86263,-2.80547 -4.4671,-2.68628c-1.01241,0.19961 -4.34453,6.87235 -4.34453,6.87235l-5.18027,-4.3016l-4.47364,6.15918c0,0 -2.98021,-8.36753 -3.73135,-8.2297c-1.19331,0.21897 -1.86391,4.96425 -1.86391,4.96425c0,0 -3.53798,-2.91652 -5.17343,-2.98452c-1.79145,-0.07449 -3.05637,3.42485 -3.05637,3.42485c0,0 -4.59531,-2.34671 -4.79331,-2.31479c-1.19899,0.19322 -5.05114,2.80752 -5.05114,2.80752c0,0 -4.76864,-1.09053 -5.99686,-0.89301c-1.84106,0.29607 -5.74539,4.91488 -5.74539,4.91488c0,0 -4.91413,-4.94395 -6.36014,-4.72088c-2.4112,0.37195 -6.85735,4.24734 -6.85735,4.24734c0,0 -2.53302,-3.50597 -4.11527,-3.26343c-1.0938,0.16767 -2.85218,6.02511 -2.85218,6.02511c0,0 -0.79743,-4.79946 -1.83349,-5.51999c-1.19656,-0.83215 -3.91722,2.83391 -3.91722,2.83391c0,0 0.18129,-5.38443 -0.23715,-5.7592c-9.90032,-8.86744 -16.79083,-20.84611 -18.83845,-34.66396z" stroke-linecap="butt"/><path d="M269.57008,179.84714l-28.04948,-58.02952l14.28696,5.82734l-11.53858,-51.98384l51.60773,19.19927l-10.90245,-32.90178l22.7363,16.62895l2.1142,-13.46278l17.04757,20.75931l11.49607,-22.24963l44.07369,58.94232" stroke-linecap="round"/></g><g fill="#75f20f" stroke="#000000" stroke-width="0"><path d="M256.56961,152.49714c-4.88158,-32.94212 29.56157,-48.55615 64.65547,-53.75659c28.20249,-4.17923 54.66941,9.52397 66.51009,32.16391c0.11242,0.21495 -131.16556,21.59269 -131.16556,21.59269z" stroke-linecap="butt"/><path d="M256.24489,152.27961c-4.7856,-9.90061 -14.72428,-30.46199 -14.72428,-30.46199l14.28696,5.82734l-11.53858,-51.98384l51.60773,19.19927l-10.90245,-32.90178l22.7363,16.62895l2.1142,-13.46278l17.04757,20.75931l11.49607,-22.24963l44.07369,58.94232" stroke-linecap="round"/></g><g fill="#33965e" stroke="#000000" stroke-width="0" stroke-linecap="round"><path d="M248.54181,136.61572c-3.3921,-7.01769 -7.0212,-14.7981 -7.0212,-14.7981l14.28696,5.82734l-11.53858,-51.98384l51.60773,19.19928l-10.90245,-32.90178l22.7363,16.62894l2.1142,-13.46278l17.04757,20.75931l11.49607,-22.24962c0,0 32.05695,42.57774 39.01733,51.88626"/></g><g fill="#2d7a1a" stroke="#000000" stroke-width="0" stroke-linecap="round"><path d="M252.98195,114.91488c-2.10763,-9.49534 -8.71296,-39.25376 -8.71296,-39.25376l51.60773,19.19927l-10.90245,-32.90178l22.7363,16.62895l2.1142,-13.46278l17.04757,20.75931l11.49607,-22.24963c0,0 14.40347,19.2626 25.53255,34.14617"/></g><path d="M323.33174,185.85171l2.358,-15.14259" fill="none" stroke="#81c10c" stroke-width="2" stroke-linecap="round"/><path d="M336.80368,167.69244l6.70208,13.80001" fill="none" stroke="#81c10c" stroke-width="2" stroke-linecap="round"/><path d="M280.55755,169.56367c-1.90093,-12.82793 6.95716,-24.76802 19.78509,-26.66894c12.82793,-1.90093 24.76802,6.95715 26.66895,19.78508c1.90093,12.82793 -6.95715,24.76802 -19.78508,26.66895c-12.82793,1.90093 -24.76803,-6.95716 -26.66895,-19.78508z" fill="#81c10c" stroke="none" stroke-width="0" stroke-linecap="butt"/><path d="M360.89887,181.39525c-12.82793,1.90093 -24.76802,-6.95716 -26.66895,-19.78509c-1.90093,-12.82793 6.95715,-24.76801 19.78508,-26.66894c12.82793,-1.90093 24.76802,6.95715 26.66895,19.78507c1.90093,12.82793 -6.95715,24.76803 -19.78508,26.66896z" fill="#81c10c" stroke="none" stroke-width="0" stroke-linecap="butt"/><path d="M280.04115,166.07887c-1.90093,-12.82793 6.95716,-24.76802 19.78509,-26.66895c12.82793,-1.90093 24.76802,6.95715 26.66895,19.78508c1.90093,12.82793 -6.95715,24.76802 -19.78508,26.66895c-12.82793,1.90093 -24.76803,-6.95716 -26.66895,-19.78508z" fill="#ffffff" stroke="#000000" stroke-width="0" stroke-linecap="butt"/><path d="M360.38247,177.91045c-12.82793,1.90093 -24.76802,-6.95716 -26.66895,-19.78509c-1.90093,-12.82793 6.95715,-24.76801 19.78508,-26.66894c12.82793,-1.90093 24.76803,6.95714 26.66896,19.78507c1.90093,12.82793 -6.95716,24.76803 -19.78508,26.66895z" fill="#ffffff" stroke="#000000" stroke-width="0" stroke-linecap="butt"/><path d="M257.97193,113.24533c0.95606,-0.14168 1.84594,0.51851 1.98762,1.47457c0.14168,0.95606 -0.51851,1.84594 -1.47457,1.98762c-0.84377,0.12503 -1.63601,-0.3745 -1.90785,-1.15078c-0.23446,0.5316 -0.72835,0.93487 -1.34554,1.02633c-0.95606,0.14168 -1.84595,-0.51851 -1.98763,-1.47457c-0.14168,-0.95606 0.51852,-1.84595 1.47458,-1.98762c0.84377,-0.12503 1.63601,0.3745 1.90785,1.15078c0.23446,-0.5316 0.72835,-0.93487 1.34554,-1.02633z" fill="#2d7a1a" stroke="none" stroke-width="0.5" stroke-linecap="butt"/><path d="M267.89323,111.97731c0.95606,-0.14168 1.84595,0.51851 1.98763,1.47457c0.14168,0.95606 -0.51851,1.84595 -1.47457,1.98763c-0.71266,0.1056 -1.38856,-0.23434 -1.74519,-0.81027c-0.08255,-0.0312 -0.16131,-0.07096 -0.23501,-0.11837c-0.05682,0.01435 -0.1149,0.02599 -0.1741,0.03476c-0.95606,0.14168 -1.84594,-0.51851 -1.98762,-1.47457c-0.14168,-0.95606 0.51851,-1.84594 1.47457,-1.98762c0.77721,-0.11517 1.5107,0.29958 1.83403,0.97241c0.10224,-0.03556 0.20925,-0.06209 0.32026,-0.07855z" fill="#2d7a1a" stroke="none" stroke-width="0.5" stroke-linecap="butt"/><path d="M281.67424,110.49115c-0.14168,-0.95606 0.51851,-1.84594 1.47457,-1.98762c0.95606,-0.14168 1.84594,0.51851 1.98762,1.47457c0.14168,0.95606 -0.51851,1.84594 -1.47457,1.98762c-0.95606,0.14168 -1.84594,-0.51851 -1.98762,-1.47457z" fill="#2d7a1a" stroke="none" stroke-width="0.5" stroke-linecap="butt"/><path d="M293.85234,108.07997c-0.14168,-0.95606 0.51851,-1.84594 1.47457,-1.98762c0.95606,-0.14168 1.84594,0.51851 1.98762,1.47457c0.14168,0.95606 -0.51851,1.84594 -1.47457,1.98762c-0.95606,0.14168 -1.84594,-0.51851 -1.98762,-1.47457z" fill="#2d7a1a" stroke="none" stroke-width="0.5" stroke-linecap="butt"/><path d="M306.5434,106.40151c0.1012,0.6829 -0.37036,1.31853 -1.05326,1.41973c-0.40915,0.06063 -0.80134,-0.08434 -1.07177,-0.35719c-0.06142,0.01606 -0.12432,0.02897 -0.18856,0.03849c-0.95606,0.14168 -1.84594,-0.51851 -1.98762,-1.47457c-0.14168,-0.95606 0.51851,-1.84595 1.47457,-1.98763c0.91449,-0.13552 1.76846,0.46263 1.96496,1.35161c0.44216,0.1393 0.78916,0.52016 0.86168,1.00956z" fill="#2d7a1a" stroke="none" stroke-width="0.5" stroke-linecap="butt"/><path d="M317.77074,103.37302c0.95606,-0.14168 1.84594,0.51851 1.98762,1.47457c0.14168,0.95606 -0.51851,1.84594 -1.47457,1.98762c-0.61154,0.09062 -1.19601,-0.14684 -1.57491,-0.57995c-0.04108,0.00913 -0.08279,0.01687 -0.12508,0.02314c-0.95606,0.14168 -1.84594,-0.51851 -1.98762,-1.47457c-0.14168,-0.95606 0.51851,-1.84594 1.47457,-1.98762c0.61154,-0.09062 1.19601,0.14684 1.57491,0.57995c0.04108,-0.00913 0.08279,-0.01687 0.12508,-0.02314z" fill="#2d7a1a" stroke="none" stroke-width="0.5" stroke-linecap="butt"/><path d="M329.35359,103.42571c-0.10806,-0.7292 0.25035,-1.41989 0.85071,-1.76949c0.2667,-0.36665 0.67482,-0.63005 1.15874,-0.70176c0.95606,-0.14168 1.84594,0.51851 1.98762,1.47457c0.10806,0.7292 -0.25035,1.41989 -0.85071,1.76949c-0.2667,0.36665 -0.67482,0.63005 -1.15874,0.70176c-0.95606,0.14168 -1.84594,-0.51851 -1.98762,-1.47457z" fill="#2d7a1a" stroke="none" stroke-width="0.5" stroke-linecap="butt"/><path d="M345.24113,99.10009c0.95606,-0.14168 1.84594,0.51851 1.98762,1.47457c0.14168,0.95606 -0.51851,1.84594 -1.47457,1.98762c-0.3645,0.05401 -0.71938,-0.00852 -1.02684,-0.15957c-0.17696,0.09708 -0.37385,0.16495 -0.58519,0.19627c-0.95606,0.14168 -1.84595,-0.51851 -1.98763,-1.47457c-0.14168,-0.95606 0.51852,-1.84595 1.47458,-1.98762c0.3645,-0.05401 0.71937,0.00852 1.02684,0.15957c0.17696,-0.09708 0.37385,-0.16495 0.5852,-0.19627z" fill="#2d7a1a" stroke="none" stroke-width="0.5" stroke-linecap="butt"/><path d="M347.69403,100.30353c-0.14168,-0.95606 0.51851,-1.84594 1.47457,-1.98762c0.95606,-0.14168 1.84594,0.51851 1.98762,1.47457c0.14168,0.95606 -0.51851,1.84594 -1.47457,1.98762c-0.95606,0.14168 -1.84594,-0.51851 -1.98762,-1.47457z" fill="#2d7a1a" stroke="none" stroke-width="0.5" stroke-linecap="butt"/><path d="M360.35576,98.42723c-0.14168,-0.95606 0.51851,-1.84594 1.47457,-1.98762c0.95606,-0.14168 1.84594,0.51851 1.98762,1.47457c0.14168,0.95606 -0.51851,1.84594 -1.47457,1.98762c-0.95606,0.14168 -1.84594,-0.51851 -1.98762,-1.47457z" fill="#2d7a1a" stroke="none" stroke-width="0.5" stroke-linecap="butt"/><path d="M351.88895,99.27753c-0.1012,-0.6829 0.37036,-1.31853 1.05326,-1.41973c0.67859,-0.10056 1.31052,0.36444 1.41775,1.04038c0.20797,-0.59395 0.73024,-1.0554 1.39598,-1.15406c0.95606,-0.14168 1.84595,0.51851 1.98763,1.47457c0.14168,0.95606 -0.51852,1.84595 -1.47458,1.98762c-0.95606,0.14168 -1.84594,-0.51851 -1.98762,-1.47457c-0.00635,-0.04283 -0.01109,-0.08554 -0.01426,-0.12804c-0.16853,0.37674 -0.51991,0.66211 -0.95843,0.7271c-0.6829,0.1012 -1.31853,-0.37036 -1.41973,-1.05326z" fill="#2d7a1a" stroke="none" stroke-width="0.5" stroke-linecap="butt"/><path d="M334.27026,102.49494c-0.14168,-0.95606 0.51851,-1.84595 1.47457,-1.98763c0.95606,-0.14168 1.84595,0.51852 1.98762,1.47458c0.14168,0.95606 -0.51851,1.84594 -1.47457,1.98762c-0.95606,0.14168 -1.84594,-0.51851 -1.98762,-1.47457z" fill="#2d7a1a" stroke="none" stroke-width="0.5" stroke-linecap="butt"/><path d="M308.01622,106.7898c-0.14168,-0.95606 0.51851,-1.84594 1.47457,-1.98762c0.95606,-0.14168 1.84595,0.51851 1.98763,1.47457c0.14168,0.95606 -0.51851,1.84594 -1.47457,1.98762c-0.95606,0.14168 -1.84595,-0.51851 -1.98763,-1.47457z" fill="#2d7a1a" stroke="none" stroke-width="0.5" stroke-linecap="butt"/><path d="M297.42084,108.96645c-0.14168,-0.95606 0.51851,-1.84594 1.47457,-1.98762c0.95606,-0.14168 1.84594,0.51851 1.98762,1.47457c0.14168,0.95606 -0.51851,1.84594 -1.47457,1.98762c-0.95606,0.14168 -1.84594,-0.51851 -1.98762,-1.47457z" fill="#2d7a1a" stroke="none" stroke-width="0.5" stroke-linecap="butt"/><path d="M288.94305,110.42493c-0.14168,-0.95606 0.51851,-1.84594 1.47457,-1.98762c0.95606,-0.14168 1.84594,0.51851 1.98762,1.47457c0.14168,0.95606 -0.51851,1.84594 -1.47457,1.98762c-0.95606,0.14168 -1.84594,-0.51851 -1.98762,-1.47457z" fill="#2d7a1a" stroke="none" stroke-width="0.5" stroke-linecap="butt"/><path d="M276.70632,112.44044c-0.14168,-0.95606 0.51851,-1.84594 1.47457,-1.98762c0.95606,-0.14168 1.84595,0.51851 1.98763,1.47457c0.14168,0.95606 -0.51852,1.84595 -1.47458,1.98762c-0.95606,0.14168 -1.84594,-0.51851 -1.98762,-1.47457z" fill="#2d7a1a" stroke="none" stroke-width="0.5" stroke-linecap="butt"/><path d="M269.97977,113.43722c-0.14168,-0.95606 0.51851,-1.84594 1.47457,-1.98762c0.95606,-0.14168 1.84595,0.51851 1.98763,1.47457c0.14168,0.95606 -0.51852,1.84595 -1.47458,1.98762c-0.95606,0.14168 -1.84594,-0.51851 -1.98762,-1.47457z" fill="#2d7a1a" stroke="none" stroke-width="0.5" stroke-linecap="butt"/><path d="M261.54965,115.89956c-0.01809,-0.12204 -0.01788,-0.24257 -0.00144,-0.35881c-0.70019,-0.14347 -1.26901,-0.71035 -1.37985,-1.45835c-0.14168,-0.95606 0.51851,-1.84594 1.47457,-1.98762c0.95606,-0.14168 1.84594,0.51851 1.98762,1.47457c0.05733,0.38688 -0.01664,0.76291 -0.18838,1.08291c0.30284,0.18693 0.52422,0.50123 0.58047,0.88083c0.1012,0.6829 -0.37036,1.31853 -1.05326,1.41973c-0.6829,0.1012 -1.31853,-0.37036 -1.41973,-1.05326z" fill="#2d7a1a" stroke="none" stroke-width="0.5" stroke-linecap="butt"/><path d="M249.05347,135.94788c-0.14168,-0.95606 0.51851,-1.84594 1.47457,-1.98762c0.95606,-0.14168 1.84594,0.51851 1.98762,1.47457c0.14168,0.95606 -0.51851,1.84594 -1.47457,1.98762c-0.95606,0.14168 -1.84594,-0.51851 -1.98762,-1.47457z" fill="#33965e" stroke="none" stroke-width="0.5" stroke-linecap="butt"/><path d="M260.43663,135.67634c-0.04041,-0.27269 0.0105,-0.53784 0.12974,-0.76443c-0.25513,0.46012 -0.71401,0.80047 -1.27464,0.88355c-0.95606,0.14168 -1.84595,-0.51851 -1.98763,-1.47457c-0.14168,-0.95606 0.51852,-1.84595 1.47458,-1.98762c0.95606,-0.14168 1.84594,0.51851 1.98762,1.47457c0.05691,0.38403 -0.01556,0.7574 -0.18463,1.07589c0.18266,-0.32662 0.50941,-0.56801 0.90822,-0.62711c0.6829,-0.1012 1.31853,0.37036 1.41973,1.05326c0.1012,0.6829 -0.37036,1.31853 -1.05326,1.41973c-0.6829,0.1012 -1.31853,-0.37036 -1.41973,-1.05326z" fill="#33965e" stroke="none" stroke-width="0.5" stroke-linecap="butt"/><path d="M275.03083,130.12709c0.95606,-0.14168 1.84594,0.51851 1.98762,1.47457c0.14168,0.95606 -0.51851,1.84594 -1.47457,1.98762c-0.56628,0.08392 -1.10934,-0.11348 -1.48746,-0.48705c-0.25354,0.46717 -0.71602,0.81357 -1.28229,0.89749c-0.95606,0.14168 -1.84594,-0.51851 -1.98762,-1.47457c-0.14168,-0.95606 0.51851,-1.84594 1.47457,-1.98762c0.56628,-0.08392 1.10934,0.11348 1.48746,0.48705c0.25354,-0.46717 0.71602,-0.81357 1.28229,-0.89749z" fill="#33965e" stroke="none" stroke-width="0.5" stroke-linecap="butt"/><path d="M374.85187,114.72839c0.95606,-0.14168 1.84594,0.51851 1.98762,1.47457c0.14168,0.95606 -0.51851,1.84594 -1.47457,1.98762c-0.61267,0.09079 -1.19816,-0.14772 -1.577,-0.58236c-0.26293,0.41488 -0.69807,0.71731 -1.22208,0.79496c-0.95606,0.14168 -1.84594,-0.51851 -1.98762,-1.47457c-0.14168,-0.95606 0.51851,-1.84594 1.47457,-1.98762c0.61267,-0.09079 1.19817,0.14771 1.577,0.58235c0.26293,-0.41488 0.69806,-0.7173 1.22207,-0.79495z" fill="#33965e" stroke="none" stroke-width="0.5" stroke-linecap="butt"/><path d="M359.72637,118.7389c-0.14168,-0.95606 0.51851,-1.84594 1.47457,-1.98762c0.95606,-0.14168 1.84595,0.51851 1.98763,1.47457c0.14168,0.95606 -0.51851,1.84594 -1.47457,1.98762c-0.95606,0.14168 -1.84595,-0.51851 -1.98763,-1.47457z" fill="#33965e" stroke="none" stroke-width="0.5" stroke-linecap="butt"/><path d="M355.54242,119.15672c-0.14168,-0.95606 0.51851,-1.84595 1.47457,-1.98763c0.95606,-0.14168 1.84595,0.51852 1.98762,1.47458c0.14168,0.95606 -0.51851,1.84594 -1.47457,1.98762c-0.95606,0.14168 -1.84594,-0.51851 -1.98762,-1.47457z" fill="#33965e" stroke="none" stroke-width="0.5" stroke-linecap="butt"/><path d="M350.56711,119.69181c-0.14168,-0.95606 0.51851,-1.84594 1.47457,-1.98762c0.95606,-0.14168 1.84594,0.51851 1.98762,1.47457c0.14168,0.95606 -0.51851,1.84594 -1.47457,1.98762c-0.95606,0.14168 -1.84594,-0.51851 -1.98762,-1.47457z" fill="#33965e" stroke="none" stroke-width="0.5" stroke-linecap="butt"/><path d="M348.39275,121.82891c-0.21718,1.23098 -1.44818,1.0138 -1.44818,1.0138l-1.24567,-0.21978c0,0 -1.23098,-0.21718 -1.0138,-1.44818c0.21718,-1.23098 1.44817,-1.0138 1.44817,-1.0138l0.06477,0.01143c-0.04806,-0.89168 0.59017,-1.6897 1.49117,-1.82322c0.95606,-0.14168 1.84594,0.51851 1.98762,1.47457c0.13157,0.88785 -0.4284,1.71865 -1.27465,1.94613c-0.00278,0.01941 -0.00591,0.0391 -0.00942,0.05905z" fill="#33965e" stroke="none" stroke-width="0.5" stroke-linecap="butt"/><path d="M341.10013,121.29687c-0.14168,-0.95606 0.51852,-1.84595 1.47458,-1.98762c0.95606,-0.14168 1.84594,0.51851 1.98762,1.47457c0.14168,0.95606 -0.51851,1.84594 -1.47457,1.98762c-0.2278,0.03376 -0.45186,0.02199 -0.66292,-0.02846c-0.49786,-0.02714 -0.93486,-0.35134 -1.10521,-0.81993c-0.10949,-0.18737 -0.18574,-0.39838 -0.21949,-0.62618z" fill="#33965e" stroke="none" stroke-width="0.5" stroke-linecap="butt"/><path d="M332.98871,122.49888c-0.25653,-1.7311 1.47457,-1.98762 1.47457,-1.98762l2.17624,-0.32249c0,0 1.73109,-0.25653 1.98762,1.47457c0.25653,1.7311 -1.47457,1.98762 -1.47457,1.98762l-2.17623,0.32249c0,0 -1.7311,0.25653 -1.98763,-1.47457z" fill="#33965e" stroke="none" stroke-width="0.5" stroke-linecap="butt"/><path d="M327.8742,123.45897c-0.14168,-0.95606 0.51851,-1.84595 1.47457,-1.98763c0.95606,-0.14168 1.84595,0.51851 1.98763,1.47457c0.14168,0.95606 -0.51852,1.84595 -1.47458,1.98762c-0.95606,0.14168 -1.84594,-0.51851 -1.98762,-1.47457z" fill="#33965e" stroke="none" stroke-width="0.5" stroke-linecap="butt"/><path d="M322.19548,124.70484c-0.14168,-0.95606 0.51851,-1.84594 1.47457,-1.98762c0.95606,-0.14168 1.84595,0.51851 1.98763,1.47457c0.14168,0.95606 -0.51851,1.84594 -1.47457,1.98762c-0.95606,0.14168 -1.84595,-0.51851 -1.98763,-1.47457z" fill="#33965e" stroke="none" stroke-width="0.5" stroke-linecap="butt"/><path d="M317.44733,125.40845c-0.14168,-0.95606 0.51851,-1.84594 1.47457,-1.98762c0.95606,-0.14168 1.84594,0.51851 1.98762,1.47457c0.14168,0.95606 -0.51851,1.84595 -1.47457,1.98763c-0.95606,0.14168 -1.84595,-0.51852 -1.98762,-1.47458z" fill="#33965e" stroke="none" stroke-width="0.5" stroke-linecap="butt"/><path d="M309.53375,126.58114c-0.14168,-0.95606 0.51851,-1.84594 1.47457,-1.98762c0.95606,-0.14168 1.84594,0.51851 1.98762,1.47457c0.14168,0.95606 -0.51851,1.84594 -1.47457,1.98762c-0.95606,0.14168 -1.84594,-0.51851 -1.98762,-1.47457z" fill="#33965e" stroke="none" stroke-width="0.5" stroke-linecap="butt"/><path d="M302.8072,127.57793c-0.14168,-0.95606 0.51851,-1.84594 1.47457,-1.98762c0.95606,-0.14168 1.84594,0.51851 1.98762,1.47457c0.14168,0.95606 -0.51851,1.84595 -1.47457,1.98763c-0.95606,0.14168 -1.84595,-0.51852 -1.98762,-1.47458z" fill="#33965e" stroke="none" stroke-width="0.5" stroke-linecap="butt"/><path d="M301.37718,127.56418c0.00652,1.24998 -1.24346,1.25651 -1.24346,1.25651l-1.21637,0.00635c-0.16574,0.66799 -0.71955,1.20306 -1.44258,1.31021c-0.95606,0.14168 -1.84595,-0.51851 -1.98763,-1.47457c-0.14168,-0.95606 0.51852,-1.84595 1.47458,-1.98762c0.27328,-0.0405 0.54118,-0.01548 0.78772,0.06325c0.3672,-0.40712 0.95705,-0.41019 0.95705,-0.41019l1.41419,-0.00738c0,0 1.24998,-0.00652 1.25651,1.24346z" fill="#33965e" stroke="none" stroke-width="0.5" stroke-linecap="butt"/><path d="M295.26736,129.90834c0.1012,0.6829 -0.37036,1.31853 -1.05326,1.41973c-0.48768,0.07227 -0.95125,-0.14756 -1.21329,-0.52785l-1.46123,0.21654c0,0 -1.7311,0.25652 -1.98763,-1.47457c-0.25653,-1.7311 1.47458,-1.98762 1.47458,-1.98762l2.17623,-0.32248c0,0 1.7311,-0.25653 1.98763,1.47457c0.04811,0.32465 0.02631,0.59742 -0.04087,0.82639c0.05745,0.11511 0.09796,0.24113 0.11785,0.37531z" fill="#33965e" stroke="none" stroke-width="0.5" stroke-linecap="butt"/><path d="M278.92725,131.52099c-0.14168,-0.95606 0.51852,-1.84595 1.47458,-1.98762c0.42344,-0.06275 0.8339,0.0318 1.17212,0.23968c0.23619,-0.52672 0.72778,-0.92559 1.34115,-1.01649c0.95606,-0.14168 1.84595,0.51851 1.98763,1.47457c0.14168,0.95606 -0.51851,1.84594 -1.47457,1.98762c-0.42344,0.06275 -0.8339,-0.0318 -1.17213,-0.23968c-0.23619,0.52672 -0.72778,0.92559 -1.34115,1.01649c-0.95606,0.14168 -1.84595,-0.51851 -1.98763,-1.47457z" fill="#33965e" stroke="none" stroke-width="0.5" stroke-linecap="butt"/><path d="M364.21067,116.25473c-0.14168,-0.95606 0.51851,-1.84595 1.47457,-1.98763c0.95606,-0.14168 1.84595,0.51852 1.98762,1.47458c0.14168,0.95606 -0.51851,1.84594 -1.47457,1.98762c-0.95606,0.14168 -1.84594,-0.51851 -1.98762,-1.47457z" fill="#33965e" stroke="none" stroke-width="0.5" stroke-linecap="butt"/><path d="M257.05562,151.74553c-0.14168,-0.95606 0.51852,-1.84595 1.47458,-1.98762c0.95606,-0.14168 1.84594,0.51851 1.98762,1.47457c0.14168,0.95606 -0.51851,1.84594 -1.47457,1.98762c-0.95606,0.14168 -1.84595,-0.51851 -1.98763,-1.47457z" fill="#75f20f" stroke="none" stroke-width="0.5" stroke-linecap="butt"/><path d="M272.56953,148.99166c0.6829,-0.1012 1.31853,0.37036 1.41973,1.05326c0.1012,0.6829 -0.37036,1.31853 -1.05326,1.41973c-0.1591,0.02358 -0.31564,0.01606 -0.46345,-0.01797c-0.44366,0.45566 -1.07529,0.54927 -1.07529,0.54927l-1.31769,0.19526c0.14203,0.17041 0.2405,0.38078 0.2754,0.61629c0.1012,0.6829 -0.37036,1.31853 -1.05327,1.41973c-0.6829,0.1012 -1.31853,-0.37036 -1.41973,-1.05326c-0.06862,-0.46306 0.12611,-0.90439 0.47151,-1.1721c-0.044,-0.02764 -0.08729,-0.058 -0.12956,-0.09135c-0.26605,0.38154 -0.68271,0.65684 -1.17914,0.73041c-0.95606,0.14168 -1.84595,-0.51851 -1.98763,-1.47457c-0.14168,-0.95606 0.51852,-1.84595 1.47458,-1.98762c0.49643,-0.07356 0.97502,0.06907 1.34029,0.35706c0.43174,-0.61965 1.23162,-0.73818 1.23162,-0.73818l1.78056,-0.26386c0,0 0.94712,-0.14035 1.54405,0.48714c0.04595,-0.01229 0.0931,-0.02209 0.14128,-0.02923z" fill="#75f20f" stroke="none" stroke-width="0.5" stroke-linecap="butt"/><path d="M276.75542,151.65686c-0.03338,-0.22525 -0.00444,-0.44535 0.07384,-0.64284c-0.44897,-0.25743 -0.77986,-0.71059 -0.86161,-1.26226c-0.14168,-0.95606 0.51851,-1.84594 1.47457,-1.98762c0.17186,-0.02547 0.34159,-0.02503 0.50522,-0.00161c0.14981,-0.06986 0.31211,-0.11951 0.48397,-0.14498c0.95606,-0.14168 1.84595,0.51851 1.98763,1.47457c0.13065,0.88164 -0.4206,1.70702 -1.25694,1.94126c0.03056,0.08149 0.05303,0.16743 0.06631,0.25702c0.1012,0.6829 -0.37036,1.31853 -1.05326,1.41973c-0.6829,0.1012 -1.31853,-0.37036 -1.41973,-1.05326z" fill="#75f20f" stroke="none" stroke-width="0.5" stroke-linecap="butt"/><path d="M330.14638,141.521c0.1012,0.6829 -0.37036,1.31853 -1.05326,1.41973c-0.12026,0.01782 -0.23904,0.01788 -0.35371,0.00215c-0.2571,0.2601 -0.59758,0.4421 -0.98719,0.49983c-0.5907,0.08754 -1.15615,-0.13104 -1.53546,-0.53637c-0.20318,0.60353 -0.72965,1.07421 -1.40281,1.17396c-0.53239,0.07889 -1.04425,-0.09086 -1.41783,-0.42189c-0.23007,0.17902 -0.50811,0.30292 -0.81704,0.3487c-0.77721,0.11517 -1.5107,-0.29958 -1.83404,-0.97241c-0.10224,0.03556 -0.20925,0.06209 -0.32026,0.07855c-0.95606,0.14168 -1.84594,-0.51851 -1.98762,-1.47457c-0.14168,-0.95606 0.51851,-1.84594 1.47457,-1.98762c0.77721,-0.11517 1.5107,0.29958 1.83403,0.97241c0.10224,-0.03556 0.20926,-0.0621 0.32027,-0.07855c0.53239,-0.07889 1.04425,0.09086 1.41783,0.42189c0.23007,-0.17902 0.50812,-0.30291 0.81704,-0.34869c0.5907,-0.08754 1.15614,0.13104 1.53546,0.53637c0.20318,-0.60353 0.72966,-1.07421 1.40282,-1.17397c0.56636,-0.08393 1.10949,0.11353 1.48762,0.4872c0.68286,-0.10112 1.31841,0.37043 1.4196,1.05329z" fill="#75f20f" stroke="none" stroke-width="0.5" stroke-linecap="butt"/><path d="M332.48017,141.57953c-0.02728,-0.18407 -0.01294,-0.3647 0.03593,-0.53237c-0.09565,-0.04253 -0.18711,-0.09346 -0.27331,-0.15202c-0.16464,0.12851 -0.36378,0.21747 -0.58513,0.25027c-0.6829,0.1012 -1.31854,-0.37037 -1.41973,-1.05327c-0.1012,-0.6829 0.37036,-1.31853 1.05327,-1.41973c0.12435,-0.01843 0.24713,-0.01786 0.36541,-0.00049c0.24588,-0.49652 0.72295,-0.86843 1.31254,-0.9558c0.95606,-0.14168 1.84594,0.51851 1.98762,1.47457c0.07283,0.4915 -0.06626,0.9655 -0.34851,1.32935c0.17932,0.18216 0.30458,0.4208 0.34492,0.69301c0.1012,0.6829 -0.37036,1.31853 -1.05326,1.41973c-0.6829,0.1012 -1.31853,-0.37036 -1.41973,-1.05326z" fill="#75f20f" stroke="none" stroke-width="0.5" stroke-linecap="butt"/><path d="M370.43964,133.73042c-0.14168,-0.95606 0.51852,-1.84595 1.47458,-1.98762c0.95606,-0.14168 1.84594,0.51851 1.98762,1.47457c0.14168,0.95606 -0.51851,1.84594 -1.47457,1.98762c-0.95606,0.14168 -1.84595,-0.51851 -1.98763,-1.47457z" fill="#75f20f" stroke="none" stroke-width="0.5" stroke-linecap="butt"/><path d="M382.20013,132.59423c0.1012,0.6829 -0.37036,1.31853 -1.05326,1.41973c-0.17464,0.02588 -0.3462,0.0143 -0.50652,-0.02869c-0.25219,0.02343 -0.49811,-0.00835 -0.72504,-0.08591c-0.07592,0.53377 -0.49405,0.97688 -1.05457,1.05994c-0.56271,0.08339 -1.09334,-0.22213 -1.3193,-0.71432c-0.95593,0.14147 -1.84563,-0.51867 -1.98729,-1.47462c-0.14168,-0.95606 0.51851,-1.84594 1.47457,-1.98762c0.74701,-0.1107 1.45363,0.26814 1.79451,0.89516c0.20502,-0.59989 0.72991,-1.06706 1.40025,-1.1664c0.95606,-0.14168 1.84595,0.51852 1.98762,1.47458c0.03006,0.20286 0.02402,0.40275 -0.01329,0.59313c0.0008,0.00501 0.00158,0.01002 0.00232,0.01505z" fill="#75f20f" stroke="none" stroke-width="0.5" stroke-linecap="butt"/><path d="M382.89995,133.90581c-0.09557,-0.6449 0.31967,-1.24765 0.9413,-1.39796c-0.04019,-0.10997 -0.06988,-0.22564 -0.08772,-0.346c-0.14168,-0.95606 0.51851,-1.84594 1.47457,-1.98762c0.95606,-0.14168 1.84594,0.51851 1.98762,1.47457c0.14168,0.95606 -0.51851,1.84594 -1.47457,1.98762c-0.12036,0.01783 -0.23967,0.02296 -0.35657,0.01639c0.03643,0.63851 -0.42,1.21069 -1.06491,1.30626c-0.6829,0.1012 -1.31853,-0.37036 -1.41973,-1.05326z" fill="#75f20f" stroke="none" stroke-width="0.5" stroke-linecap="butt"/><path d="M261.53654,156.74267c-0.1012,-0.6829 0.37036,-1.31853 1.05326,-1.41973c0.6829,-0.1012 1.31853,0.37036 1.41973,1.05326c0.1012,0.6829 -0.37036,1.31853 -1.05326,1.41973c-0.6829,0.1012 -1.31853,-0.37036 -1.41973,-1.05326z" fill="#75f20f" stroke="none" stroke-width="0.5" stroke-linecap="butt"/><path d="M322.77148,145.64663c-0.1012,-0.6829 0.37036,-1.31853 1.05326,-1.41973c0.6829,-0.1012 1.31853,0.37036 1.41973,1.05326c0.1012,0.6829 -0.37036,1.31853 -1.05326,1.41973c-0.6829,0.1012 -1.31853,-0.37036 -1.41973,-1.05326z" fill="#75f20f" stroke="none" stroke-width="0.5" stroke-linecap="butt"/><path d="M375.69715,135.7819c-0.1012,-0.6829 0.37036,-1.31853 1.05326,-1.41973c0.6829,-0.1012 1.31853,0.37036 1.41973,1.05326c0.1012,0.6829 -0.37036,1.31853 -1.05326,1.41973c-0.6829,0.1012 -1.31853,-0.37036 -1.41973,-1.05326z" fill="#75f20f" stroke="none" stroke-width="0.5" stroke-linecap="butt"/><path d="M385.59651,135.73024c-0.1012,-0.6829 0.37037,-1.31854 1.05327,-1.41973c0.6829,-0.1012 1.31853,0.37036 1.41973,1.05326c0.1012,0.6829 -0.37037,1.31854 -1.05327,1.41973c-0.6829,0.1012 -1.31853,-0.37036 -1.41973,-1.05326z" fill="#75f20f" stroke="none" stroke-width="0.5" stroke-linecap="butt"/><path d="M254.83869,141.56048c-0.1012,-0.6829 0.37036,-1.31853 1.05326,-1.41973c0.6829,-0.1012 1.31853,0.37036 1.41973,1.05326c0.1012,0.6829 -0.37036,1.31853 -1.05326,1.41973c-0.6829,0.1012 -1.31853,-0.37036 -1.41973,-1.05326z" fill="#33965e" stroke="none" stroke-width="0.5" stroke-linecap="butt"/><path d="M257.13937,137.9846c-0.1012,-0.6829 0.37036,-1.31853 1.05326,-1.41973c0.6829,-0.1012 1.31853,0.37036 1.41973,1.05326c0.1012,0.6829 -0.37036,1.31853 -1.05326,1.41973c-0.6829,0.1012 -1.31853,-0.37036 -1.41973,-1.05326z" fill="#33965e" stroke="none" stroke-width="0.5" stroke-linecap="butt"/><path d="M266.17398,134.82614c-0.1012,-0.6829 0.37036,-1.31853 1.05326,-1.41973c0.6829,-0.1012 1.31853,0.37036 1.41973,1.05326c0.1012,0.6829 -0.37036,1.31853 -1.05326,1.41973c-0.6829,0.1012 -1.31853,-0.37036 -1.41973,-1.05326z" fill="#33965e" stroke="none" stroke-width="0.5" stroke-linecap="butt"/><path d="M281.2758,134.40791c-0.1012,-0.6829 0.37036,-1.31853 1.05326,-1.41973c0.6829,-0.1012 1.31853,0.37036 1.41973,1.05326c0.1012,0.6829 -0.37036,1.31853 -1.05326,1.41973c-0.6829,0.1012 -1.31853,-0.37036 -1.41973,-1.05326z" fill="#33965e" stroke="none" stroke-width="0.5" stroke-linecap="butt"/><path d="M286.82269,135.00122c-0.1012,-0.6829 0.37036,-1.31853 1.05326,-1.41973c0.6829,-0.1012 1.31853,0.37036 1.41973,1.05326c0.1012,0.6829 -0.37036,1.31853 -1.05326,1.41973c-0.6829,0.1012 -1.31853,-0.37036 -1.41973,-1.05326z" fill="#33965e" stroke="none" stroke-width="0.5" stroke-linecap="butt"/><path d="M318.04873,129.7159c-0.81957,0.94382 -1.76339,0.12425 -1.76339,0.12425l-1.39226,-1.20898c0,0 -0.94382,-0.81957 -0.12425,-1.7634c0.81957,-0.94382 1.7634,-0.12425 1.7634,-0.12425l1.39225,1.20897c0,0 0.94382,0.81957 0.12425,1.76339z" fill="#33965e" stroke="none" stroke-width="0.5" stroke-linecap="butt"/><path d="M323.34244,130.39822c-0.1012,-0.6829 0.37036,-1.31853 1.05326,-1.41973c0.6829,-0.1012 1.31853,0.37036 1.41973,1.05326c0.1012,0.6829 -0.37036,1.31853 -1.05326,1.41973c-0.6829,0.1012 -1.31853,-0.37036 -1.41973,-1.05326z" fill="#33965e" stroke="none" stroke-width="0.5" stroke-linecap="butt"/><path d="M326.20015,130.58129c-0.1012,-0.6829 0.37036,-1.31853 1.05326,-1.41973c0.6829,-0.1012 1.31853,0.37036 1.41973,1.05326c0.1012,0.6829 -0.37036,1.31853 -1.05326,1.41973c-0.6829,0.1012 -1.31853,-0.37036 -1.41973,-1.05326z" fill="#33965e" stroke="none" stroke-width="0.5" stroke-linecap="butt"/><path d="M366.81569,119.50801c-0.1012,-0.6829 0.37036,-1.31853 1.05326,-1.41973c0.6829,-0.1012 1.31853,0.37036 1.41973,1.05326c0.1012,0.6829 -0.37036,1.31853 -1.05326,1.41973c-0.6829,0.1012 -1.31853,-0.37036 -1.41973,-1.05326z" fill="#33965e" stroke="none" stroke-width="0.5" stroke-linecap="butt"/><path d="M372.85359,122.0504c-0.1012,-0.6829 0.37036,-1.31853 1.05326,-1.41973c0.6829,-0.1012 1.31853,0.37036 1.41973,1.05326c0.1012,0.6829 -0.37036,1.31853 -1.05326,1.41973c-0.6829,0.1012 -1.31853,-0.37036 -1.41973,-1.05326z" fill="#33965e" stroke="none" stroke-width="0.5" stroke-linecap="butt"/><path d="M256.62581,120.87507c-0.1012,-0.6829 0.37036,-1.31853 1.05326,-1.41973c0.6829,-0.1012 1.31853,0.37036 1.41973,1.05326c0.1012,0.6829 -0.37036,1.31853 -1.05326,1.41973c-0.6829,0.1012 -1.31853,-0.37036 -1.41973,-1.05326z" fill="#2d7a1a" stroke="none" stroke-width="0.5" stroke-linecap="butt"/><path d="M279.36998,116.0894c-0.1012,-0.6829 0.37036,-1.31853 1.05326,-1.41973c0.6829,-0.1012 1.31853,0.37036 1.41973,1.05326c0.1012,0.6829 -0.37036,1.31853 -1.05326,1.41973c-0.6829,0.1012 -1.31853,-0.37036 -1.41973,-1.05326z" fill="#2d7a1a" stroke="none" stroke-width="0.5" stroke-linecap="butt"/><path d="M287.21775,118.56577c-0.1012,-0.6829 0.37036,-1.31853 1.05326,-1.41973c0.6829,-0.1012 1.31853,0.37036 1.41973,1.05326c0.1012,0.6829 -0.37036,1.31853 -1.05326,1.41973c-0.6829,0.1012 -1.31853,-0.37036 -1.41973,-1.05326z" fill="#2d7a1a" stroke="none" stroke-width="0.5" stroke-linecap="butt"/><path d="M300.58268,110.51975c-0.1012,-0.6829 0.37036,-1.31853 1.05326,-1.41973c0.6829,-0.1012 1.31853,0.37036 1.41973,1.05326c0.1012,0.6829 -0.37036,1.31853 -1.05326,1.41973c-0.6829,0.1012 -1.31853,-0.37036 -1.41973,-1.05326z" fill="#2d7a1a" stroke="none" stroke-width="0.5" stroke-linecap="butt"/><path d="M329.28419,109.09715c-0.1012,-0.6829 0.37036,-1.31853 1.05326,-1.41973c0.6829,-0.1012 1.31853,0.37036 1.41973,1.05326c0.1012,0.6829 -0.37036,1.31853 -1.05326,1.41973c-0.6829,0.1012 -1.31853,-0.37036 -1.41973,-1.05326z" fill="#2d7a1a" stroke="none" stroke-width="0.5" stroke-linecap="butt"/><path d="M333.98109,109.41205c-0.1012,-0.6829 0.37036,-1.31853 1.05326,-1.41973c0.6829,-0.1012 1.31853,0.37036 1.41973,1.05326c0.1012,0.6829 -0.37036,1.31853 -1.05326,1.41973c-0.6829,0.1012 -1.31853,-0.37036 -1.41973,-1.05326z" fill="#2d7a1a" stroke="none" stroke-width="0.5" stroke-linecap="butt"/><path d="M348.26202,103.4543c-0.1012,-0.6829 0.37037,-1.31854 1.05327,-1.41973c0.6829,-0.1012 1.31853,0.37036 1.41973,1.05326c0.1012,0.6829 -0.37037,1.31854 -1.05327,1.41973c-0.6829,0.1012 -1.31853,-0.37036 -1.41973,-1.05326z" fill="#2d7a1a" stroke="none" stroke-width="0.5" stroke-linecap="butt"/><path d="M361.72988,104.28913c-0.1012,-0.6829 0.37036,-1.31853 1.05326,-1.41973c0.6829,-0.1012 1.31853,0.37036 1.41973,1.05326c0.1012,0.6829 -0.37036,1.31853 -1.05326,1.41973c-0.6829,0.1012 -1.31853,-0.37036 -1.41973,-1.05326z" fill="#2d7a1a" stroke="none" stroke-width="0.5" stroke-linecap="butt"/><path d="M257.80946,128.18047c-0.06072,-0.40974 0.22222,-0.79112 0.63196,-0.85184c0.40974,-0.06072 0.79112,0.22222 0.85183,0.63196c0.06072,0.40974 -0.22222,0.79112 -0.63196,0.85184c-0.40974,0.06072 -0.79112,-0.22222 -0.85183,-0.63196z" fill="#2d7a1a" stroke="none" stroke-width="0.5" stroke-linecap="butt"/><path d="M266.00883,127.57199c-0.06072,-0.40974 0.22222,-0.79112 0.63196,-0.85184c0.40974,-0.06072 0.79112,0.22223 0.85184,0.63196c0.06072,0.40974 -0.22222,0.79112 -0.63196,0.85183c-0.40974,0.06072 -0.79112,-0.22222 -0.85184,-0.63196z" fill="#2d7a1a" stroke="none" stroke-width="0.5" stroke-linecap="butt"/><path d="M272.93322,126.54589c-0.06072,-0.40974 0.22222,-0.79112 0.63196,-0.85184c0.40974,-0.06072 0.79112,0.22222 0.85184,0.63196c0.06072,0.40974 -0.22222,0.79112 -0.63196,0.85184c-0.40974,0.06072 -0.79112,-0.22222 -0.85184,-0.63196z" fill="#2d7a1a" stroke="none" stroke-width="0.5" stroke-linecap="butt"/><path d="M281.60884,125.05809c-0.06072,-0.40974 0.22223,-0.79112 0.63196,-0.85184c0.40974,-0.06072 0.79112,0.22222 0.85183,0.63196c0.06072,0.40974 -0.22222,0.79112 -0.63196,0.85184c-0.40974,0.06072 -0.79112,-0.22222 -0.85184,-0.63196z" fill="#2d7a1a" stroke="none" stroke-width="0.5" stroke-linecap="butt"/><path d="M296.02182,122.7201c-0.06072,-0.40974 0.22222,-0.79112 0.63196,-0.85184c0.40974,-0.06072 0.79112,0.22222 0.85184,0.63196c0.06072,0.40974 -0.22222,0.79112 -0.63196,0.85184c-0.40974,0.06072 -0.79112,-0.22222 -0.85184,-0.63196z" fill="#2d7a1a" stroke="none" stroke-width="0.5" stroke-linecap="butt"/><path d="M310.17832,120.01574c-0.06072,-0.40974 0.22222,-0.79112 0.63196,-0.85184c0.40974,-0.06072 0.79112,0.22222 0.85184,0.63196c0.06072,0.40974 -0.22222,0.79112 -0.63196,0.85184c-0.40974,0.06072 -0.79112,-0.22222 -0.85184,-0.63196z" fill="#2d7a1a" stroke="none" stroke-width="0.5" stroke-linecap="butt"/><path d="M319.84314,118.38136c-0.06072,-0.40974 0.22222,-0.79112 0.63196,-0.85184c0.40974,-0.06072 0.79112,0.22222 0.85184,0.63196c0.06072,0.40974 -0.22222,0.79112 -0.63196,0.85184c-0.40974,0.06072 -0.79112,-0.22222 -0.85184,-0.63196z" fill="#2d7a1a" stroke="none" stroke-width="0.5" stroke-linecap="butt"/><path d="M328.54808,117.0914c-0.06072,-0.40974 0.22222,-0.79112 0.63196,-0.85183c0.40974,-0.06072 0.79112,0.22222 0.85184,0.63196c0.06072,0.40974 -0.22222,0.79112 -0.63196,0.85184c-0.40974,0.06072 -0.79112,-0.22223 -0.85184,-0.63196z" fill="#2d7a1a" stroke="none" stroke-width="0.5" stroke-linecap="butt"/><path d="M339.803,116.63668c-0.06072,-0.40974 0.22222,-0.79112 0.63196,-0.85184c0.40974,-0.06072 0.79112,0.22222 0.85184,0.63196c0.06072,0.40974 -0.22222,0.79112 -0.63196,0.85184c-0.40974,0.06072 -0.79112,-0.22222 -0.85184,-0.63196z" fill="#2d7a1a" stroke="none" stroke-width="0.5" stroke-linecap="butt"/><path d="M346.72739,115.61058c-0.06072,-0.40974 0.22222,-0.79112 0.63196,-0.85184c0.40974,-0.06072 0.79112,0.22222 0.85184,0.63196c0.06072,0.40974 -0.22222,0.79112 -0.63196,0.85184c-0.40974,0.06072 -0.79112,-0.22222 -0.85184,-0.63196z" fill="#2d7a1a" stroke="none" stroke-width="0.5" stroke-linecap="butt"/><path d="M358.00424,113.93949c-0.06072,-0.40974 0.22222,-0.79112 0.63196,-0.85184c0.40974,-0.06072 0.79112,0.22222 0.85184,0.63196c0.06072,0.40974 -0.22222,0.79112 -0.63196,0.85184c-0.40974,0.06072 -0.79112,-0.22222 -0.85184,-0.63196z" fill="#2d7a1a" stroke="none" stroke-width="0.5" stroke-linecap="butt"/><path d="M364.33511,113.00134c-0.06072,-0.40974 0.22222,-0.79112 0.63196,-0.85183c0.40974,-0.06072 0.79112,0.22222 0.85183,0.63196c0.06072,0.40974 -0.22222,0.79112 -0.63196,0.85183c-0.40974,0.06072 -0.79112,-0.22222 -0.85183,-0.63196z" fill="#2d7a1a" stroke="none" stroke-width="0.5" stroke-linecap="butt"/><path d="M257.67825,146.39648c-0.06072,-0.40974 0.22222,-0.79112 0.63196,-0.85183c0.40974,-0.06072 0.79112,0.22222 0.85184,0.63196c0.06072,0.40974 -0.22222,0.79112 -0.63196,0.85184c-0.40974,0.06072 -0.79112,-0.22223 -0.85184,-0.63196z" fill="#33965e" stroke="none" stroke-width="0.5" stroke-linecap="butt"/><path d="M266.7348,142.02166c-0.06072,-0.40974 0.22222,-0.79112 0.63196,-0.85184c0.40974,-0.06072 0.79112,0.22222 0.85184,0.63196c0.06072,0.40974 -0.22222,0.79112 -0.63196,0.85184c-0.40974,0.06072 -0.79112,-0.22222 -0.85184,-0.63196z" fill="#33965e" stroke="none" stroke-width="0.5" stroke-linecap="butt"/><path d="M277.38164,144.28543c-0.06072,-0.40974 0.22222,-0.79112 0.63196,-0.85183c0.40974,-0.06072 0.79112,0.22222 0.85184,0.63196c0.06072,0.40974 -0.22222,0.79112 -0.63196,0.85183c-0.40974,0.06072 -0.79112,-0.22222 -0.85184,-0.63196z" fill="#33965e" stroke="none" stroke-width="0.5" stroke-linecap="butt"/><path d="M299.51015,135.34513c-0.06072,-0.40974 0.22222,-0.79112 0.63196,-0.85184c0.40974,-0.06072 0.79112,0.22222 0.85184,0.63196c0.06072,0.40974 -0.22222,0.79112 -0.63196,0.85184c-0.40974,0.06072 -0.79112,-0.22222 -0.85184,-0.63196z" fill="#33965e" stroke="none" stroke-width="0.5" stroke-linecap="butt"/><path d="M319.32343,132.61125c-0.06072,-0.40974 0.22222,-0.79112 0.63196,-0.85184c0.40974,-0.06072 0.79112,0.22222 0.85183,0.63196c0.06072,0.40974 -0.22222,0.79112 -0.63196,0.85184c-0.40974,0.06072 -0.79112,-0.22222 -0.85183,-0.63196z" fill="#33965e" stroke="none" stroke-width="0.5" stroke-linecap="butt"/><path d="M329.7505,136.1207c-0.06072,-0.40974 0.22222,-0.79112 0.63196,-0.85184c0.40974,-0.06072 0.79112,0.22222 0.85184,0.63196c0.06072,0.40974 -0.22222,0.79112 -0.63196,0.85184c-0.40974,0.06072 -0.79112,-0.22222 -0.85184,-0.63196z" fill="#33965e" stroke="none" stroke-width="0.5" stroke-linecap="butt"/><path d="M348.20801,128.33094c-0.06072,-0.40974 0.22222,-0.79112 0.63196,-0.85184c0.40974,-0.06072 0.79112,0.22222 0.85184,0.63196c0.06072,0.40974 -0.22222,0.79112 -0.63196,0.85184c-0.40974,0.06072 -0.79112,-0.22222 -0.85184,-0.63196z" fill="#33965e" stroke="none" stroke-width="0.5" stroke-linecap="butt"/><path d="M338.48455,129.56965c-0.06072,-0.40974 0.22222,-0.79112 0.63196,-0.85184c0.40974,-0.06072 0.79112,0.22222 0.85184,0.63196c0.06072,0.40974 -0.22222,0.79112 -0.63196,0.85184c-0.40974,0.06072 -0.79112,-0.22222 -0.85184,-0.63196z" fill="#33965e" stroke="none" stroke-width="0.5" stroke-linecap="butt"/><path d="M357.59442,127.54655c-0.06072,-0.40974 0.22222,-0.79112 0.63196,-0.85184c0.40974,-0.06072 0.79112,0.22222 0.85184,0.63196c0.06072,0.40974 -0.22222,0.79112 -0.63196,0.85184c-0.40974,0.06072 -0.79112,-0.22222 -0.85184,-0.63196z" fill="#33965e" stroke="none" stroke-width="0.5" stroke-linecap="butt"/><path d="M374.21315,130.54285c-0.06072,-0.40974 0.22222,-0.79112 0.63196,-0.85184c0.40974,-0.06072 0.79112,0.22222 0.85184,0.63196c0.06072,0.40974 -0.22222,0.79112 -0.63196,0.85184c-0.40974,0.06072 -0.79112,-0.22222 -0.85184,-0.63196z" fill="#33965e" stroke="none" stroke-width="0.5" stroke-linecap="butt"/><path d="M265.65109,161.99628c-0.06072,-0.40974 0.22222,-0.79112 0.63196,-0.85184c0.40974,-0.06072 0.79112,0.22222 0.85183,0.63196c0.06072,0.40974 -0.22222,0.79112 -0.63196,0.85184c-0.40974,0.06072 -0.79112,-0.22222 -0.85183,-0.63196z" fill="#75f20f" stroke="none" stroke-width="0.5" stroke-linecap="butt"/><path d="M271.82799,158.65474c-0.06072,-0.40974 0.22222,-0.79112 0.63196,-0.85183c0.40974,-0.06072 0.79112,0.22222 0.85184,0.63196c0.06072,0.40974 -0.22222,0.79112 -0.63196,0.85183c-0.40974,0.06072 -0.79112,-0.22222 -0.85184,-0.63196z" fill="#75f20f" stroke="none" stroke-width="0.5" stroke-linecap="butt"/><path d="M275.12545,161.80541c-0.06072,-0.40974 0.22222,-0.79112 0.63196,-0.85183c0.40974,-0.06072 0.79112,0.22222 0.85184,0.63196c0.06072,0.40974 -0.22222,0.79112 -0.63196,0.85183c-0.40974,0.06072 -0.79112,-0.22222 -0.85184,-0.63196z" fill="#75f20f" stroke="none" stroke-width="0.5" stroke-linecap="butt"/><path d="M327.9558,149.93298c-0.06072,-0.40974 0.22222,-0.79112 0.63196,-0.85184c0.40974,-0.06072 0.79112,0.22222 0.85183,0.63196c0.06072,0.40974 -0.22222,0.79112 -0.63196,0.85184c-0.40974,0.06072 -0.79112,-0.22222 -0.85183,-0.63196z" fill="#75f20f" stroke="none" stroke-width="0.5" stroke-linecap="butt"/><path d="M380.96942,140.66178c-0.06072,-0.40974 0.22222,-0.79112 0.63196,-0.85184c0.40974,-0.06072 0.79112,0.22223 0.85184,0.63196c0.06072,0.40974 -0.22222,0.79112 -0.63196,0.85183c-0.40974,0.06072 -0.79112,-0.22222 -0.85184,-0.63196z" fill="#75f20f" stroke="none" stroke-width="0.5" stroke-linecap="butt"/><path d="M389.63049,141.80453c-0.06072,-0.40974 0.22222,-0.79112 0.63196,-0.85183c0.40974,-0.06072 0.79112,0.22222 0.85184,0.63196c0.06072,0.40974 -0.22222,0.79112 -0.63196,0.85183c-0.40974,0.06072 -0.79112,-0.22222 -0.85184,-0.63196z" fill="#75f20f" stroke="none" stroke-width="0.5" stroke-linecap="butt"/></g><path d="M285.9915,164.78818c-1.38326,-9.33457 5.06254,-18.02309 14.39711,-19.40635c9.33457,-1.38326 18.02309,5.06254 19.40635,14.39713c1.38326,9.33457 -5.06254,18.02309 -14.39713,19.40635c-9.33457,1.38326 -18.02308,-5.06255 -19.40634,-14.39713z" fill="none" stroke="#191919" stroke-width="5" stroke-linecap="butt"/><path d="M372.18493,153.00792c1.21661,8.21 -4.45263,15.85178 -12.66263,17.06839c-8.20999,1.21661 -15.85177,-4.45266 -17.06838,-12.66265c-1.21661,-8.21 4.45265,-15.85178 12.66264,-17.06839c8.20999,-1.21661 15.85176,4.45265 17.06837,12.66264z" fill="#191919" stroke="#000000" stroke-width="0" stroke-linecap="butt"/><path d="M293.79103,163.6324c-0.74494,-5.027 2.72637,-9.70609 7.75337,-10.45103c5.027,-0.74494 9.70609,2.72637 10.45103,7.75338c0.74494,5.027 -2.72636,9.70609 -7.75337,10.45102c-5.027,0.74494 -9.70609,-2.72636 -10.45102,-7.75338z" fill="none" stroke="#191919" stroke-width="5" stroke-linecap="butt"/></g></g></g></svg>