<svg version="1.1" xmlns="http://www.w3.org/2000/svg" xmlns:xlink="http://www.w3.org/1999/xlink" width="34.17311" height="34.17311" viewBox="0,0,34.17311,34.17311"><defs><linearGradient x1="320.02293" y1="174.07829" x2="320.02293" y2="198.45668" gradientUnits="userSpaceOnUse" id="color-1"><stop offset="0" stop-color="#190953"/><stop offset="1" stop-color="#1c19ee"/></linearGradient><linearGradient x1="320.02293" y1="174.07829" x2="320.02293" y2="198.45668" gradientUnits="userSpaceOnUse" id="color-2"><stop offset="0" stop-color="#190953"/><stop offset="1" stop-color="#1c19ee"/></linearGradient></defs><g transform="translate(-302.91345,-162.91346)"><g stroke-miterlimit="10"><path d="M309.98312,162.91347h20.03379c3.9166,0 7.06966,3.15307 7.06966,7.06966v20.03379c0,3.91659 -3.15306,7.06966 -7.06966,7.06966h-20.03379c-3.91659,0 -7.06966,-3.15307 -7.06966,-7.06966v-20.03379c0,-3.91659 3.15307,-7.06966 7.06966,-7.06966z" fill="#1a12ac" fill-rule="evenodd" stroke="none" stroke-width="4.43922" stroke-linecap="round" stroke-linejoin="round"/><g fill-rule="nonzero" stroke="#000000" stroke-width="3" stroke-linejoin="miter"><path d="M329.19161,178.70139c0,3.15022 -4.59751,4.58646 -9.52213,4.58646c-4.92462,0 -10.59308,-1.15686 -10.59308,-4.30707c0,-3.15022 5.66845,-7.38023 10.59308,-7.38023c5.5765,0 9.52213,3.95064 9.52213,7.10085z" fill="#2f1894" stroke-linecap="butt"/><path d="M307.03754,186.26749c0,-6.73191 5.81376,-12.18919 12.98539,-12.18919c7.17163,0 12.98539,5.45729 12.98539,12.18919c0,0.71817 -0.06616,1.42184 -0.19309,2.10592c-8.52672,-0.01787 -17.05362,0.0396 -25.58031,0.02302c-0.12973,-0.69131 -0.19738,-1.40271 -0.19738,-2.12894z" fill="url(#color-1)" stroke-linecap="butt"/><path d="M306.19525,186.26788c-0.14473,-7.72314 6.36095,-13.38629 13.9689,-12.89795c7.60795,0.48835 13.63976,4.97572 13.64296,12.61857c0.00035,0.83293 -0.05282,1.62886 -0.1566,2.38689c-1.30199,-0.0035 -2.60397,-0.00513 -3.90597,-0.00543l-9.77213,-12.08584l-9.46853,12.11533c-1.37322,-0.00001 -2.74642,-0.00145 -4.11962,-0.00494c-0.11146,-0.68261 -0.17525,-1.39211 -0.18901,-2.12664z" fill="#2f1894" stroke-linecap="round"/></g><g fill-rule="nonzero" stroke="#000000" stroke-width="0" stroke-linejoin="miter"><path d="M329.19161,178.7014c0,3.15022 -4.59751,4.58646 -9.52213,4.58646c-4.92462,0 -10.59308,-1.15686 -10.59308,-4.30708c0,-3.15022 5.66846,-7.38023 10.59308,-7.38023c5.5765,0 9.52213,3.95064 9.52213,7.10086z" fill="#2f1894" stroke-linecap="butt"/><path d="M307.03754,186.26748c0,-6.73191 5.81376,-12.18919 12.98539,-12.18919c7.17163,0 12.98539,5.45728 12.98539,12.18919c0,0.71817 -0.06616,1.42184 -0.19309,2.10592c-8.52672,-0.01787 -17.05361,0.0396 -25.5803,0.02302c-0.12973,-0.69132 -0.19738,-1.40272 -0.19738,-2.12894z" fill="url(#color-2)" stroke-linecap="butt"/><path d="M333.80711,185.9885c0.00035,0.83293 -0.05281,1.62887 -0.15659,2.3869c-1.30199,-0.0035 -2.60399,-0.00513 -3.90598,-0.00543l-9.77212,-12.08584l-9.46853,12.11534c-1.37322,-0.00001 -2.74642,-0.00145 -4.11963,-0.00494c-0.11145,-0.68261 -0.17524,-1.39211 -0.18901,-2.12664c-0.14473,-7.72314 6.36095,-13.38629 13.9689,-12.89795c7.60795,0.48835 13.63976,4.97572 13.64296,12.61857z" fill="#2f1894" stroke-linecap="round"/></g><path d="M304.52673,192.81172v-4.59752h30.75236v4.59752z" fill="#1a12ac" fill-rule="nonzero" stroke="none" stroke-width="0" stroke-linecap="butt" stroke-linejoin="miter"/></g></g></svg>