<svg version="1.1" xmlns="http://www.w3.org/2000/svg" xmlns:xlink="http://www.w3.org/1999/xlink" width="34.17311" height="34.17311" viewBox="0,0,34.17311,34.17311"><g transform="translate(-302.91345,-162.91346)"><g stroke-miterlimit="10"><path d="M309.98312,162.91347h20.03379c3.9166,0 7.06966,3.15307 7.06966,7.06966v20.03379c0,3.91659 -3.15306,7.06966 -7.06966,7.06966h-20.03379c-3.91659,0 -7.06966,-3.15307 -7.06966,-7.06966v-20.03379c0,-3.91659 3.15307,-7.06966 7.06966,-7.06966z" fill="#878787" fill-rule="evenodd" stroke="none" stroke-width="4.43922" stroke-linecap="round" stroke-linejoin="round"/><path d="" fill="none" fill-rule="nonzero" stroke="#000000" stroke-width="0" stroke-linecap="round" stroke-linejoin="miter"/><path d="" fill="#000000" fill-rule="nonzero" stroke="none" stroke-width="0" stroke-linecap="butt" stroke-linejoin="miter"/><path d="" fill="#000000" fill-rule="nonzero" stroke="none" stroke-width="0" stroke-linecap="butt" stroke-linejoin="miter"/><path d="" fill="#000000" fill-rule="nonzero" stroke="none" stroke-width="0" stroke-linecap="butt" stroke-linejoin="miter"/><path d="" fill="#000000" fill-rule="nonzero" stroke="none" stroke-width="0" stroke-linecap="butt" stroke-linejoin="miter"/><path d="" fill="#000000" fill-rule="nonzero" stroke="none" stroke-width="0" stroke-linecap="butt" stroke-linejoin="miter"/><path d="" fill="#000000" fill-rule="nonzero" stroke="none" stroke-width="0" stroke-linecap="butt" stroke-linejoin="miter"/><path d="M321.84305,180.13983c0,0 6.13054,-4.6481 8.38556,-6.22097c1.43104,-0.99814 3.83594,-2.30348 3.83594,-2.30348c0,0 -1.1168,3.35927 -1.62698,5.26893c-0.58673,2.19618 -1.69591,7.16914 -1.69591,7.16914z" fill="#656565" fill-rule="nonzero" stroke="#000000" stroke-width="2.5" stroke-linecap="butt" stroke-linejoin="miter"/><path d="M307.08941,183.40729c0,0 -1.04394,-4.98708 -1.60184,-7.19075c-0.48511,-1.91618 -0.78737,-4.64775 -0.78737,-4.64775c0,0 1.61715,0.6947 3.035,1.71151c2.23422,1.60228 8.30334,6.3303 8.30334,6.3303z" fill="#656565" fill-rule="nonzero" stroke="#000000" stroke-width="2.5" stroke-linecap="butt" stroke-linejoin="miter"/><path d="M306.04453,189.73446c0,-6.77246 5.84878,-12.26262 13.06362,-12.26262c7.21484,0 13.06362,5.49016 13.06362,12.26262c0,0.05644 -26.12724,0.04955 -26.12724,0z" fill="#808080" fill-rule="nonzero" stroke="#000000" stroke-width="2.5" stroke-linecap="butt" stroke-linejoin="miter"/><path d="M321.84305,180.13983c0,0 6.13054,-4.6481 8.38557,-6.22097c1.43104,-0.99814 3.83594,-2.30348 3.83594,-2.30348c0,0 -1.1168,3.35926 -1.62698,5.26892c-0.58673,2.19619 -1.69591,7.16915 -1.69591,7.16915z" fill="#818181" fill-rule="nonzero" stroke="#000000" stroke-width="0" stroke-linecap="butt" stroke-linejoin="miter"/><path d="M307.47463,184.43453c0,0 -1.42915,-6.01432 -1.98705,-8.218c-0.48511,-1.91618 -1.55781,-5.28978 -1.55781,-5.28978c0,0 2.38759,1.33673 3.80543,2.35353c2.23422,1.60228 8.30334,6.3303 8.30334,6.3303z" fill="#818181" fill-rule="nonzero" stroke="#000000" stroke-width="0" stroke-linecap="butt" stroke-linejoin="miter"/><path d="M306.04453,189.73446c0,-6.77246 5.84878,-12.26262 13.06362,-12.26262c7.21484,0 13.06363,5.49016 13.06363,12.26262c0,0.05644 -26.12724,0.04955 -26.12724,0z" fill="#a2a2a2" fill-rule="nonzero" stroke="#000000" stroke-width="0" stroke-linecap="butt" stroke-linejoin="miter"/><path d="M306.97289,194.46625l-2.4397,-4.99624h31.53704l-2.82491,4.73943z" fill="#878787" fill-rule="nonzero" stroke="none" stroke-width="0" stroke-linecap="butt" stroke-linejoin="miter"/></g></g></svg>