<svg version="1.1" xmlns="http://www.w3.org/2000/svg" xmlns:xlink="http://www.w3.org/1999/xlink" width="213.18203" height="281.18476" viewBox="0,0,213.18203,281.18476"><defs><linearGradient x1="320.08742" y1="187.07227" x2="320.08742" y2="244.23177" gradientUnits="userSpaceOnUse" id="color-1"><stop offset="0" stop-color="#387eff"/><stop offset="1" stop-color="#387eff" stop-opacity="0"/></linearGradient></defs><g transform="translate(-214.52362,-38.88751)"><g stroke-miterlimit="10"><g stroke-linecap="butt"><path d="M396.99319,137.17807c-9.79838,7.14799 -23.53612,4.99944 -30.68412,-4.79894c-7.14799,-9.79838 -4.99944,-23.53613 4.79894,-30.68412c9.79838,-7.14799 23.53612,-4.99943 30.68412,4.79894c7.14799,9.79837 4.99943,23.53612 -4.79894,30.68412z" fill="#39ddff" stroke="#000000" stroke-width="2"/><path d="M392.2945,134.53576c-7.65795,5.58654 -18.39473,3.90733 -23.98127,-3.75063c-5.58654,-7.65796 -3.90733,-18.39473 3.75063,-23.98127c7.65796,-5.58654 18.39473,-3.90733 23.98127,3.75062c5.58654,7.65796 3.90733,18.39474 -3.75063,23.98128z" fill="#ffffff" stroke="none" stroke-width="0"/></g><g stroke-linecap="butt"><path d="M237.26361,105.85432c7.14799,-9.79837 20.88574,-11.94693 30.68412,-4.79894c9.79837,7.14799 11.94693,20.88574 4.79894,30.68412c-7.14799,9.79837 -20.88574,11.94693 -30.68412,4.79894c-9.79837,-7.14799 -11.94693,-20.88574 -4.79894,-30.68412z" fill="#39ddff" stroke="#000000" stroke-width="2"/><path d="M243.01062,109.91485c5.58654,-7.65795 16.32332,-9.33717 23.98127,-3.75063c7.65795,5.58654 9.33717,16.32332 3.75063,23.98127c-5.58654,7.65795 -16.32332,9.33717 -23.98127,3.75063c-7.65795,-5.58654 -9.33717,-16.32332 -3.75063,-23.98127z" fill="#ffffff" stroke="none" stroke-width="0"/></g><path d="M214.52362,306.61252v-267.72501h213.18203v267.72501z" fill="none" stroke="none" stroke-width="0" stroke-linecap="butt"/><g stroke="#000000" stroke-linecap="butt"><path d="M286.35186,319.07226l15.14285,-131.8421l37.78325,-0.15789l13.57389,132z" fill="#39ddff" stroke-width="0"/><path d="M295.01902,243.61117l6.47569,-56.38101l37.78325,-0.15789l5.87786,57.15951z" fill="url(#color-1)" stroke-width="0"/><path d="M286.35186,319.07226l15.14285,-131.8421l37.78325,-0.15789l13.57389,132z" fill="none" stroke-width="2"/></g><path d="M255.36488,154.51977c0,-33.30185 28.7599,-60.29833 64.23702,-60.29833c35.47713,0 64.23702,26.99648 64.23702,60.29833c0,33.30185 -28.75989,60.29834 -64.23702,60.29834c-35.47712,0 -64.23702,-26.99649 -64.23702,-60.29834z" fill="#39ddff" stroke="#000000" stroke-width="2" stroke-linecap="butt"/><path d="M268.99199,154.79539c0,-12.96801 10.51265,-23.48065 23.48066,-23.48065c12.96801,0 23.48065,10.51264 23.48065,23.48065c0,12.96801 -10.51264,23.48066 -23.48065,23.48066c-12.96801,0 -23.48066,-10.51265 -23.48066,-23.48066z" fill="#ffffff" stroke="#000000" stroke-width="2" stroke-linecap="butt"/><path d="M276.90144,155.58583c0,-8.29964 6.72818,-15.02784 15.02783,-15.02784c8.29964,0 15.02784,6.72819 15.02784,15.02785c0,8.29964 -6.72819,15.02785 -15.02784,15.02785c-8.29964,0 -15.02783,-6.72819 -15.02783,-15.02785z" fill="#000000" stroke="#000000" stroke-width="5" stroke-linecap="butt"/><path d="" fill="none" stroke="#000000" stroke-width="2" stroke-linecap="round"/><path d="M346.73111,178.27607c-12.96801,0 -23.48065,-10.51265 -23.48065,-23.48066c0,-12.96801 10.51264,-23.48065 23.48065,-23.48065c12.96801,0 23.48066,10.51264 23.48066,23.48065c0,12.96801 -10.51265,23.48066 -23.48066,23.48066z" fill="#ffffff" stroke="#000000" stroke-width="2" stroke-linecap="butt"/><path d="M362.05645,155.37262c0,8.29966 -6.72818,15.02785 -15.02783,15.02785c-8.29964,0 -15.02784,-6.72821 -15.02784,-15.02785c0,-8.29966 6.7282,-15.02785 15.02784,-15.02785c8.29964,0 15.02783,6.7282 15.02783,15.02784z" fill="#000000" stroke="#000000" stroke-width="5" stroke-linecap="butt"/><path d="M281.11375,123.2042c0,0 7.6761,-3.57887 12.90237,-3.63287c5.22628,-0.054 11.88349,3.37677 11.88349,3.37677c0,0 -7.83084,-1.81468 -11.86692,-1.77297c-4.21786,0.04358 -12.91895,2.02907 -12.91895,2.02907z" fill="#000000" stroke="none" stroke-width="0" stroke-linecap="butt"/><path d="M345.35362,121.16332c-4.02426,-0.31146 -11.9589,0.9756 -11.9589,0.9756c0,0 6.87169,-2.978 12.08266,-2.57469c5.21097,0.40329 12.63061,4.48738 12.63061,4.48738c0,0 -8.54887,-2.56279 -12.75437,-2.88828z" fill="#000000" stroke="none" stroke-width="0" stroke-linecap="butt"/><path d="M268.99199,154.79539c0,-12.96801 10.51265,-23.48065 23.48066,-23.48065c12.96801,0 23.48065,10.51264 23.48065,23.48065c0,2.95879 -46.96131,3.53816 -46.96131,0z" fill="#39ddff" stroke="#000000" stroke-width="2" stroke-linecap="butt"/><path d="M323.25046,154.79541c0,-12.96801 10.51264,-23.48065 23.48065,-23.48065c12.96801,0 23.48066,10.51264 23.48066,23.48065c0,2.99489 -46.96131,3.49133 -46.96131,0z" fill="#39ddff" stroke="#000000" stroke-width="2" stroke-linecap="butt"/><path d="M267.79335,116.3341c0,0 20.14751,-44.0528 59.47125,-36.01084c40.59031,8.30098 46.03152,38.78723 46.03152,38.78723z" fill="#49c6ff" stroke="#000000" stroke-width="2" stroke-linecap="butt"/><path d="M264.56831,122.18393c0,0 -0.55333,-5.19769 -0.36928,-6.68846c0.2449,-1.98361 1.9222,-6.93446 1.9222,-6.93446c0,0 38.56405,3.81879 57.51644,5.05319c18.2552,1.189 54.18473,2.22211 54.18473,2.22211c0,0 0.68044,2.84136 0.70348,4.44575c0.02719,1.89348 -0.55071,6.19222 -0.55071,6.19222c0,0 -40.9593,-2.20532 -60.51257,-2.94505c-18.1434,-0.68639 -52.89428,-1.34531 -52.89428,-1.34531z" fill="#49c6ff" stroke="#000000" stroke-width="2" stroke-linecap="butt"/><path d="M270.1314,109.62885l-0.85284,11.30017" fill="none" stroke="#4a77ff" stroke-width="2" stroke-linecap="round"/><path d="M284.84293,111.54775l-1.06605,10.44732" fill="none" stroke="#4a77ff" stroke-width="2" stroke-linecap="round"/><path d="M300.83374,113.04022l-0.63963,9.16806" fill="none" stroke="#4a77ff" stroke-width="2" stroke-linecap="round"/><path d="M319.59628,114.31949v8.31522" fill="none" stroke="#4a77ff" stroke-width="2" stroke-linecap="round"/><path d="M337.07955,114.31949l-0.42642,8.31522" fill="none" stroke="#4a77ff" stroke-width="2" stroke-linecap="round"/><path d="M351.79109,115.17233l0.85284,8.52843" fill="none" stroke="#4a77ff" stroke-width="2" stroke-linecap="round"/><path d="M367.78189,115.81196l1.06605,8.74164" fill="none" stroke="#4a77ff" stroke-width="2" stroke-linecap="round"/><path d="M264.56832,122.18393c0,0 -0.55334,-5.19769 -0.36928,-6.68846c0.2449,-1.9836 1.9222,-6.93447 1.9222,-6.93447c0,0 38.56405,3.81879 57.51644,5.05319c18.2552,1.189 54.18473,2.22212 54.18473,2.22212c0,0 0.68043,2.84136 0.70347,4.44576c0.02719,1.89348 -0.55071,6.19222 -0.55071,6.19222c0,0 -40.9593,-2.20531 -60.51258,-2.94504c-18.14339,-0.6864 -52.89427,-1.34531 -52.89427,-1.34531z" fill="none" stroke="#000000" stroke-width="2" stroke-linecap="butt"/><path d="M324.71333,124.34039c0,0 -10.66706,8.56114 -14.71154,8.95485c-4.04448,0.39371 -9.16806,-5.11706 -9.16806,-5.11706c0,0 5.05828,0.86701 8.52843,0.21321c3.47015,-0.65379 5.9699,-4.47742 5.9699,-4.47742" fill="none" stroke="#000000" stroke-width="2" stroke-linecap="round"/><path d="M332.33334,209.22724c0,1.84766 -5.82487,3.34548 -13.0102,3.34548c-7.18534,0 -13.0102,-1.49782 -13.0102,-3.34548c0,-1.84766 5.82487,-3.34548 13.0102,-3.34548c7.18534,0 13.0102,1.49782 13.0102,3.34548z" fill="#000000" stroke="#000000" stroke-width="5" stroke-linecap="butt"/></g></g></svg>