<svg version="1.1" xmlns="http://www.w3.org/2000/svg" xmlns:xlink="http://www.w3.org/1999/xlink" width="221.6292" height="292.66828" viewBox="0,0,221.6292,292.66828"><defs><linearGradient x1="338.42958" y1="116.05484" x2="338.42958" y2="154.85766" gradientUnits="userSpaceOnUse" id="color-1"><stop offset="0" stop-color="#ffffff"/><stop offset="1" stop-color="#ececec"/></linearGradient><linearGradient x1="391.79472" y1="104.60648" x2="391.79472" y2="145.04369" gradientUnits="userSpaceOnUse" id="color-2"><stop offset="0" stop-color="#ffffff"/><stop offset="1" stop-color="#ececec"/></linearGradient></defs><g transform="translate(-214.52362,-26.40399)"><g stroke-miterlimit="10"><g stroke="#000000"><g fill="#000000" stroke-width="0" stroke-linecap="butt"><path d="M286.35186,319.07226l65.64453,-137.75471l42.34441,-2.79484l-41.48897,140.54956z"/></g><path d="M362.87357,207.978l-12.09782,45.835l-9.89471,9.22416l-6.10146,-10.13273l21.32894,-44.70548z" fill="#ffffff" stroke-width="2" stroke-linecap="round"/><path d="M370.64952,202.04023c-0.92139,2.5133 -1.47144,5.16259 -3.6908,6.84464c-2.34777,1.77938 -6.41225,2.52009 -9.05663,2.52009c-2.25931,0 -4.93915,-0.25791 -6.05872,-1.6032c-1.42954,-1.71775 -0.88569,-4.86109 0.17763,-7.76154c0.97277,-2.65344 2.82534,-6.15086 5.21369,-7.85487c2.26693,-1.61738 5.02875,-1.50986 7.53374,-1.50986c2.95234,0 6.076,0.09568 6.9926,2.25029c0.68047,1.59954 -0.30363,4.91079 -1.1115,7.11445z" fill="#ffffff" stroke-width="2" stroke-linecap="butt"/></g><path d="M214.52362,306.61252v-267.72501h213.18203v267.72501z" fill="none" stroke="none" stroke-width="0" stroke-linecap="butt"/><path d="M301.7017,137.81367c-6.02347,-32.75257 17.37907,-64.50573 52.27103,-70.92265c34.89197,-6.41692 68.06049,14.93233 74.08396,47.6849c6.02347,32.75257 -17.37906,64.50574 -52.27103,70.92266c-34.89196,6.41692 -68.0605,-14.93234 -74.08396,-47.68491z" fill="#000000" stroke="#000000" stroke-width="2" stroke-linecap="butt"/><path d="M315.15389,135.61995c-0.64075,-3.48408 10.33301,-17.22096 21.56142,-19.28596c11.22841,-2.065 24.0951,7.90875 24.62532,10.79182c2.34559,12.75413 -6.09218,24.99485 -18.84629,27.34043c-12.75413,2.34559 -24.99485,-6.09219 -27.34043,-18.8463z" fill="url(#color-1)" stroke="#000000" stroke-width="2" stroke-linecap="butt"/><path d="M323.61373,127.95191c-1.35268,-7.35519 3.51332,-14.41435 10.86852,-15.76703c7.35519,-1.35268 14.41435,3.51333 15.76703,10.86853c1.35268,7.35519 -3.51332,14.41436 -10.86853,15.76704c-7.35519,1.35268 -14.41433,-3.51333 -15.76703,-10.86853z" fill="#000000" stroke="#000000" stroke-width="5" stroke-linecap="butt"/><path d="" fill="none" stroke="#000000" stroke-width="2" stroke-linecap="round"/><path d="M395.85787,144.65227c-12.75413,2.34559 -24.99484,-6.09219 -27.34042,-18.8463c-0.55269,-3.00521 8.6764,-18.89663 19.83653,-20.94907c11.16013,-2.05244 25.73074,9.08659 26.35022,12.45494c2.34559,12.75413 -6.09219,24.99485 -18.8463,27.34043z" fill="url(#color-2)" stroke="#000000" stroke-width="2" stroke-linecap="butt"/><path d="M403.58849,111.67433c1.37126,7.45616 -3.56154,14.61218 -11.01767,15.98343c-7.45613,1.37124 -14.61218,-3.56156 -15.98342,-11.01769c-1.37126,-7.45616 3.56155,-14.61218 11.01768,-15.98343c7.45613,-1.37124 14.61217,3.56155 15.98341,11.01768z" fill="#000000" stroke="#000000" stroke-width="5" stroke-linecap="butt"/><path d="M303.86172,111.2021l-23.74866,-51.83099c0,0 43.44955,-12.82264 64.84955,-18.19623c20.76245,-5.21351 61.69567,-13.57957 61.69567,-13.57957l8.29728,56.18445z" fill="#000000" stroke="#000000" stroke-width="2" stroke-linecap="butt"/><path d="M304.49108,110.26756l-4.17553,-8.3395l113.10461,-24.8761l1.23721,8.87987z" fill="#ffffff" stroke="#000000" stroke-width="0" stroke-linecap="butt"/><path d="M289.21378,120.56781c0,0 -3.46223,-2.58529 -4.54776,-4.27616c-1.15955,-1.80617 -2.20213,-6.23777 -2.20213,-6.23777l152.69144,-32.96101c0,0 0.25455,3.58708 0.00116,5.56567c-0.27526,2.14923 -1.59256,6.86024 -1.59256,6.86024z" fill="#000000" stroke="#000000" stroke-width="2" stroke-linecap="butt"/></g></g></svg>