<svg version="1.1" xmlns="http://www.w3.org/2000/svg" xmlns:xlink="http://www.w3.org/1999/xlink" width="213.18203" height="280.18476" viewBox="0,0,213.18203,280.18476"><defs><radialGradient cx="288.27423" cy="194.88762" r="23.48066" gradientUnits="userSpaceOnUse" id="color-1"><stop offset="0" stop-color="#ffffff"/><stop offset="1" stop-color="#ff8484"/></radialGradient><radialGradient cx="353.95637" cy="178.30961" r="23.48066" gradientUnits="userSpaceOnUse" id="color-2"><stop offset="0" stop-color="#ffffff"/><stop offset="1" stop-color="#ff8484"/></radialGradient></defs><g transform="translate(-214.78369,-38.88751)"><g stroke-miterlimit="10"><path d="M214.78369,306.61252v-267.72501c0,0 153.66918,0 187.45214,0c12.51617,0 25.72989,0 25.72989,0v267.72501z" fill="none" stroke="none" stroke-width="0" stroke-linecap="butt"/><g stroke-width="0" stroke-linecap="butt"><g stroke="#000000"><path d="M313.90187,220.46842c-9.04557,0.15618 -9.12757,-4.59311 -9.12757,-4.59311l-0.02923,-2.70475c-0.21046,-0.79814 -0.42093,-1.59627 -0.63139,-2.39441c-1.92238,-8.52368 2.57156,-16.87464 1.42333,-25.29006c-0.67916,-4.97758 -2.69271,-10.897 -4.53584,-15.57102c-2.0043,-5.08273 -6.27271,-9.38539 -6.7886,-14.65123c-0.55005,-5.61453 6.6603,-10.07652 6.07581,-15.32242c0,0 -0.082,-4.74929 8.96357,-4.90547c9.04557,-0.15618 9.12757,4.59311 9.12757,4.59311c-0.05328,1.58716 0.43125,3.19799 -0.15983,4.76146c-1.07854,2.85282 -4.82473,5.31736 -6.09678,8.15043c-1.25071,2.78555 1.66772,6.34118 3.09258,8.81173c2.99053,5.18519 4.73593,10.5711 6.33933,15.93926c1.08308,3.62618 2.39419,7.1448 2.09323,10.8494c-0.58175,7.16089 -3.27048,14.04321 -1.58721,21.21101c0.24341,0.97207 0.48683,1.94414 0.73023,2.91621l0.07437,3.29437c0,0 0.082,4.74929 -8.96358,4.90547z" fill="#39940f"/><path d="M328.96812,221.20203c-8.42906,-1.61883 -5.14576,-6.08644 -5.14576,-6.08644l0.62427,0.08667c-0.01215,-0.92106 -0.0243,-1.8421 -0.03647,-2.76316c-1.8719,-8.82684 -6.83277,-17.46141 -7.44126,-26.38666c-0.41252,-6.05079 0.30943,-10.07839 -0.85889,-15.83501c-1.34765,-6.64018 -4.53062,-13.16224 -5.46841,-19.85716c-0.63864,-4.55925 0.38127,-9.12884 -0.81483,-13.66148c0,0 -1.20333,-4.69325 7.76222,-5.43729c8.96555,-0.74405 10.16889,3.9492 10.16889,3.9492c1.19401,4.76852 0.26435,9.52906 0.93811,14.31243c0.91606,6.50355 4.06626,12.84202 5.36706,19.29496c1.3812,6.85173 0.49961,9.14234 0.96884,16.47158c0.56965,8.89776 5.62934,17.5502 7.4388,26.36432c0.02236,1.07864 0.04474,2.15729 0.0671,3.23593l-1.8573,3.46336c0,0 -3.2833,4.46761 -11.71237,2.84878z" fill="#448f21"/><path d="M322.56531,216.56828l-0.03941,-3.29497c0.2097,-0.9799 0.41942,-1.95978 0.62912,-2.93968c1.43482,-7.22164 -1.48991,-14.00704 -2.31852,-21.14358c-0.42867,-3.692 0.7602,-7.25379 1.71744,-10.9152c1.41713,-5.42031 2.97557,-10.86327 5.7853,-16.1486c1.33874,-2.51827 4.13267,-6.17253 2.78654,-8.91324c-1.3691,-2.78746 -5.19812,-5.12121 -6.37451,-7.9351c-0.64471,-1.54213 -0.21608,-3.16874 -0.32411,-4.7531c0,0 -0.082,-4.74929 8.96357,-4.90547c9.04558,-0.15618 9.12758,4.59311 9.12758,4.59311c-0.40305,5.26295 6.95704,9.47336 6.60113,15.10354c-0.3338,5.28051 -4.45113,9.72797 -6.27877,14.87685c-1.68067,4.73486 -3.48867,10.72026 -3.99559,15.71832c-0.85703,8.45004 3.92252,16.64088 2.29554,25.22585c-0.18278,0.80493 -0.36558,1.60985 -0.54836,2.41478l0.06416,2.70415c0,0 0.082,4.74929 -8.96357,4.90547c-9.04557,0.15618 -9.12757,-4.59311 -9.12757,-4.59311z" fill="#39940f"/><path d="M345.53114,217.5002l0.55192,-2.14407c0.3498,-1.98467 0.53259,-3.97861 0.49826,-5.9669c-0.69746,-3.33006 -1.50262,-8.38436 -3.12137,-11.70614c-2.53916,-5.21053 -5.67203,-9.36816 -6.23251,-14.87029c-0.61241,-6.01192 2.2055,-11.5943 2.88868,-17.55853c1.14643,-10.00838 -3.46456,-18.73742 -7.31991,-28.27624c0,0 -1.85439,-4.62644 6.99944,-5.711c8.85384,-1.08456 10.70823,3.54187 10.70823,3.54187c1.44505,3.6402 4.0723,7.06561 5.31831,10.72939c2.19371,6.45044 3.09481,13.50827 2.35119,20.07774c-0.63669,5.62473 -3.38372,10.90332 -2.87214,16.54601c0.44139,4.86859 3.45067,8.27943 5.67685,12.92824c2.0595,4.30074 2.75244,9.12193 3.66373,13.51382c0.04249,2.46106 -0.12465,4.9292 -0.54111,7.38636l-0.63708,2.54382c0,0 -1.19806,4.72365 -10.16431,4.20661c-8.96626,-0.51704 -7.7682,-5.24069 -7.7682,-5.24069z" fill="#28670a"/><path d="M304.85722,219.97193l-1.97575,-3.39718c-0.01489,-1.07877 -0.02977,-2.15755 -0.04466,-3.23632c1.5041,-8.87133 6.26208,-17.69328 6.52422,-26.60541c0.21593,-7.34106 -0.7442,-9.59988 0.39964,-16.49521c1.07726,-6.494 4.00677,-12.93744 4.69776,-19.46874c0.50823,-4.80378 -0.58522,-9.52938 0.44346,-14.33628c0,0 1.04059,-4.73199 10.02649,-4.29789c8.98589,0.4341 7.9453,5.16609 7.9453,5.16609c-1.03892,4.57123 0.13815,9.10288 -0.34272,13.68147c-0.70611,6.72329 -3.66203,13.35135 -4.77963,20.0341c-0.96891,5.79352 -0.10834,9.7938 -0.31174,15.85522c-0.30001,8.94093 -4.95985,17.74162 -6.52591,26.62782c0.01964,0.92093 0.03929,1.84185 0.05893,2.76277l0.62091,-0.10817c0,0 3.43558,4.3516 -4.93258,6.26046c-8.36815,1.90886 -11.80373,-2.44275 -11.80373,-2.44275z" fill="#448f21"/><path d="M356.33511,223.31963l-0.00575,-0.33328c-0.22414,-12.98129 -0.60652,-25.86259 -3.15626,-38.77116c-1.11393,-5.63951 -4.20798,-11.15785 -4.77467,-16.83753c-1.02629,-10.28613 -1.08663,-20.52425 -3.04808,-30.7846c0,0 -0.90061,-4.71565 8.10039,-5.30117c9.001,-0.58553 9.90162,4.13013 9.90162,4.13013c1.97882,10.37085 2.13058,20.71716 3.10047,31.11848c0.51362,5.50817 3.59944,10.866 4.68767,16.33739c2.63504,13.24845 3.04995,26.47194 3.28001,39.7961l0.00575,0.33328c0,0 0.082,4.74929 -8.96357,4.90547c-9.04557,0.15618 -9.12757,-4.59311 -9.12757,-4.59311z" fill="#275313"/></g><g stroke="none"><path d="M313.90187,220.46842c-9.04557,0.15618 -9.12757,-4.59311 -9.12757,-4.59311l-0.02923,-2.70474c-0.21046,-0.79814 -0.42093,-1.59627 -0.63139,-2.39441c-1.92238,-8.52369 2.57156,-16.87464 1.42333,-25.29006c-0.67916,-4.97758 -2.69271,-10.897 -4.53584,-15.57101c-2.00429,-5.08273 -6.27271,-9.38539 -6.7886,-14.65124c-0.55005,-5.61453 6.6603,-10.07652 6.07581,-15.32241c0,0 -0.082,-4.74929 8.96357,-4.90547c9.04557,-0.15618 9.12757,4.59311 9.12757,4.59311c-0.05328,1.58716 0.43125,3.19799 -0.15983,4.76146c-1.07855,2.85282 -4.82472,5.31736 -6.09678,8.15043c-1.25071,2.78555 1.66771,6.34118 3.09258,8.81173c2.99053,5.18519 4.73594,10.5711 6.33933,15.93926c1.08308,3.62617 2.39419,7.1448 2.09323,10.8494c-0.58175,7.16089 -3.27048,14.04321 -1.58721,21.21101c0.24341,0.97207 0.48682,1.94414 0.73023,2.91621l0.07436,3.29436c0,0 0.082,4.74929 -8.96357,4.90547z" fill="#39940f"/><path d="M328.96812,221.20203c-8.42906,-1.61883 -5.14576,-6.08644 -5.14576,-6.08644l0.62427,0.08667c-0.01216,-0.92106 -0.02431,-1.8421 -0.03647,-2.76316c-1.8719,-8.82684 -6.83277,-17.46141 -7.44126,-26.38666c-0.41252,-6.05079 0.30943,-10.07839 -0.85889,-15.83501c-1.34765,-6.64017 -4.53062,-13.16224 -5.46841,-19.85715c-0.63863,-4.55925 0.38128,-9.12885 -0.81483,-13.66148c0,0 -1.20333,-4.69325 7.76222,-5.43729c8.96555,-0.74406 10.16888,3.94919 10.16888,3.94919c1.19401,4.76853 0.26435,9.52906 0.93811,14.31242c0.91605,6.50356 4.06626,12.84203 5.36707,19.29496c1.38119,6.85173 0.49961,9.14234 0.96884,16.47157c0.56965,8.89776 5.62934,17.5502 7.4388,26.36432c0.02236,1.07864 0.04474,2.15729 0.0671,3.23593l-1.85729,3.46336c0,0 -3.2833,4.46761 -11.71237,2.84878z" fill="#448f21"/><path d="M322.56531,216.56828l-0.03941,-3.29496c0.2097,-0.9799 0.41941,-1.95978 0.62912,-2.93968c1.43482,-7.22165 -1.48991,-14.00705 -2.31851,-21.14358c-0.42867,-3.692 0.76019,-7.25379 1.71744,-10.9152c1.41712,-5.42031 2.97556,-10.86327 5.7853,-16.1486c1.33874,-2.51827 4.13268,-6.17253 2.78654,-8.91324c-1.3691,-2.78746 -5.19812,-5.12121 -6.37452,-7.9351c-0.64471,-1.54213 -0.21608,-3.16874 -0.32411,-4.7531c0,0 -0.082,-4.74929 8.96357,-4.90547c9.04557,-0.15618 9.12757,4.59311 9.12757,4.59311c-0.40305,5.26295 6.95704,9.47337 6.60114,15.10353c-0.3338,5.28052 -4.45114,9.72797 -6.27877,14.87686c-1.68067,4.73485 -3.48867,10.72025 -3.99559,15.71831c-0.85703,8.45004 3.92252,16.64088 2.29554,25.22585c-0.18278,0.80493 -0.36557,1.60985 -0.54835,2.41478l0.06416,2.70414c0,0 0.082,4.74929 -8.96357,4.90547c-9.04557,0.15618 -9.12757,-4.59311 -9.12757,-4.59311z" fill="#39940f"/><path d="M345.53114,217.5002l0.55192,-2.14408c0.3498,-1.98467 0.53259,-3.97861 0.49826,-5.9669c-0.69746,-3.33007 -1.50262,-8.38436 -3.12136,-11.70614c-2.53916,-5.21054 -5.67203,-9.36817 -6.23251,-14.8703c-0.61241,-6.01191 2.2055,-11.5943 2.88868,-17.55853c1.14643,-10.00838 -3.46456,-18.73742 -7.3199,-28.27624c0,0 -1.85439,-4.62644 6.99944,-5.711c8.85384,-1.08456 10.70823,3.54187 10.70823,3.54187c1.44505,3.6402 4.0723,7.06561 5.31831,10.72939c2.19371,6.45044 3.09481,13.50827 2.35119,20.07774c-0.63669,5.62473 -3.38372,10.90332 -2.87214,16.54601c0.4414,4.8686 3.45066,8.27943 5.67685,12.92824c2.0595,4.30074 2.75244,9.12193 3.66374,13.51382c0.04249,2.46105 -0.12465,4.9292 -0.54111,7.38636l-0.63708,2.54382c0,0 -1.19806,4.72365 -10.16431,4.20661c-8.96626,-0.51704 -7.7682,-5.24069 -7.7682,-5.24069z" fill="#54660a"/><path d="M304.85722,219.97193l-1.97574,-3.39718c-0.01489,-1.07877 -0.02976,-2.15755 -0.04465,-3.23632c1.50409,-8.87133 6.26208,-17.69328 6.52422,-26.60541c0.21593,-7.34106 -0.74421,-9.59988 0.39964,-16.4952c1.07725,-6.49399 4.00677,-12.93744 4.69777,-19.46874c0.50823,-4.80378 -0.58522,-9.52938 0.44346,-14.33628c0,0 1.04059,-4.73199 10.02649,-4.29788c8.98589,0.4341 7.9453,5.16609 7.9453,5.16609c-1.03892,4.57122 0.13814,9.10288 -0.34272,13.68147c-0.70611,6.72329 -3.66203,13.35135 -4.77964,20.03409c-0.9689,5.79352 -0.10834,9.79381 -0.31173,15.85522c-0.30002,8.94093 -4.95985,17.74162 -6.52591,26.62782c0.01964,0.92093 0.03929,1.84185 0.05894,2.76277l0.62091,-0.10817c0,0 3.43558,4.3516 -4.93258,6.26046c-8.36815,1.90886 -11.80373,-2.44275 -11.80373,-2.44275z" fill="#448f21"/><path d="M356.33511,223.31963l-0.00575,-0.33328c-0.22414,-12.98129 -0.60652,-25.86259 -3.15627,-38.77116c-1.11394,-5.63951 -4.20798,-11.15785 -4.77466,-16.83753c-1.02629,-10.28613 -1.08663,-20.52425 -3.04808,-30.7846c0,0 -0.90061,-4.71565 8.10039,-5.30117c9.001,-0.58553 9.90161,4.13013 9.90161,4.13013c1.97882,10.37086 2.13059,20.71716 3.10047,31.11848c0.51362,5.50816 3.59944,10.866 4.68767,16.33739c2.63504,13.24845 3.04996,26.47194 3.28002,39.7961l0.00575,0.33328c0,0 0.082,4.74929 -8.96357,4.90547c-9.04557,0.15618 -9.12757,-4.59311 -9.12757,-4.59311z" fill="#544e13"/></g></g><g stroke-linecap="butt"><path d="M286.35186,319.07226l15.14285,-131.8421l37.78325,-0.15789l13.57389,132z" fill="#4cc114" stroke="#000000" stroke-width="0"/><path d="M294.36074,249.34246c2.44674,-21.30271 7.13397,-62.1123 7.13397,-62.1123l37.78325,-0.15789c0,0 4.24137,41.24545 6.4436,62.66116c0.0147,0.14299 -51.38554,-0.17575 -51.36082,-0.39097z" fill="#70b012" stroke="#000000" stroke-width="0"/><path d="M295.90586,235.88976c2.11119,-18.38116 5.58885,-48.6596 5.58885,-48.6596l37.78325,-0.15789c0,0 3.16673,30.79505 5.07534,49.35543c0.00135,0.01317 -48.45209,-0.49745 -48.44744,-0.53793z" fill="#84930f" stroke="#000000" stroke-width="0"/><path d="M297.80388,219.3646l3.69083,-32.13444l37.78325,-0.15789l3.28963,31.99021z" fill="#7a6c00" stroke="#000000" stroke-width="0"/><path d="M298.59344,221.41986c0,-0.21325 0.0534,-0.41403 0.14756,-0.58969c-0.46319,-0.31484 -0.76744,-0.84606 -0.76744,-1.44834c0,-0.9665 0.7835,-1.75 1.75,-1.75c0.95734,0 1.73514,0.76873 1.74979,1.72258c0.21187,-0.16514 0.47834,-0.26351 0.76778,-0.26351c0.08306,0 0.16423,0.0081 0.24276,0.02356c0.21741,-0.7192 0.88525,-1.24286 1.67539,-1.24286c0.84394,0 1.54835,0.59739 1.71343,1.39238c0.21736,-0.18282 0.49789,-0.29296 0.80414,-0.29296c0.69036,0 1.25,0.55964 1.25,1.25c0,0.69036 -0.55964,1.25 -1.25,1.25c-0.51569,0 -0.95845,-0.31228 -1.14948,-0.75806c-0.32067,0.40145 -0.81434,0.65864 -1.36809,0.65864c-0.34123,0 -0.65965,-0.09766 -0.92883,-0.26656c-0.22862,0.29556 -0.58674,0.48587 -0.98932,0.48587c-0.61327,0 -1.12339,-0.44164 -1.22966,-1.02423c-0.04485,0.04873 -0.09243,0.0949 -0.1425,0.13829c0.14149,0.20259 0.22448,0.44905 0.22448,0.71491c0,0.69036 -0.55964,1.25 -1.25,1.25c-0.69036,0 -1.25,-0.55964 -1.25,-1.25z" fill="#7a6c00" stroke="none" stroke-width="0.5"/><path d="M313.42104,221.18009c0,0.41421 -0.33579,0.75 -0.75,0.75c-0.28123,0 -0.52631,-0.15479 -0.65468,-0.38382c-0.23582,0.11835 -0.50209,0.18498 -0.78392,0.18498c-0.49496,0 -0.94193,-0.20549 -1.26025,-0.5358c-0.09557,0.0234 -0.19546,0.0358 -0.29824,0.0358c-0.69036,0 -1.25,-0.55964 -1.25,-1.25c0,-0.69036 0.55964,-1.25 1.25,-1.25c0.10278,0 0.20267,0.01241 0.29824,0.0358c0.31832,-0.33032 0.76529,-0.5358 1.26025,-0.5358c0.9665,0 1.75,0.7835 1.75,1.75c0,0.16966 -0.02414,0.33368 -0.06918,0.48881c0.29536,0.10073 0.50779,0.38057 0.50779,0.71003z" fill="#7a6c00" stroke="none" stroke-width="0.5"/><path d="M320.41235,220.94032c0,-0.58465 0.40138,-1.07555 0.9436,-1.21217c0.06807,-0.90426 0.82333,-1.61678 1.74501,-1.61678c0.64443,0 1.20751,0.34833 1.51122,0.86699c0.81745,0.1473 1.43762,0.86232 1.43762,1.7222c0,0.9665 -0.7835,1.75 -1.75,1.75c-0.64443,0 -1.20751,-0.34833 -1.51122,-0.86699c-0.01627,-0.00293 -0.03247,-0.00609 -0.04858,-0.00947c-0.21735,0.36878 -0.6186,0.61623 -1.07765,0.61623c-0.69036,0 -1.25,-0.55964 -1.25,-1.25z" fill="#7a6c00" stroke="none" stroke-width="0.5"/><path d="M334.19902,222.37893c0,-0.61792 0.44836,-1.13111 1.0375,-1.23201c-0.46681,-0.18125 -0.79773,-0.63481 -0.79773,-1.16567c0,-0.69036 0.55964,-1.25 1.25,-1.25c0.15358,0 0.30069,0.0277 0.43661,0.07837c0.30983,-0.49156 0.85754,-0.81814 1.48153,-0.81814c0.75535,0 1.39893,0.47856 1.64408,1.14902c0.16645,-0.79319 0.87001,-1.38879 1.71268,-1.38879c0.9665,0 1.75,0.7835 1.75,1.75c0,0.9665 -0.7835,1.75 -1.75,1.75c-0.75535,0 -1.39893,-0.47856 -1.64408,-1.14902c-0.16645,0.79319 -0.87001,1.38879 -1.71268,1.38879c-0.46772,0 -0.89259,-0.18349 -1.20654,-0.48242c-0.14663,0.10171 -0.31607,0.17285 -0.4991,0.2042c0.46681,0.18125 0.79773,0.63481 0.79773,1.16567c0,0.69036 -0.55964,1.25 -1.25,1.25c-0.69036,0 -1.25,-0.55964 -1.25,-1.25z" fill="#7a6c00" stroke="none" stroke-width="0.5"/><path d="M325.90656,219.50171c0,-0.9665 0.7835,-1.75 1.75,-1.75c0.9665,0 1.75,0.7835 1.75,1.75c0,0.9665 -0.7835,1.75 -1.75,1.75c-0.9665,0 -1.75,-0.7835 -1.75,-1.75z" fill="#7a6c00" stroke="none" stroke-width="0.5"/><path d="M313.19884,218.90229c0,-0.9665 0.7835,-1.75 1.75,-1.75c0.9665,0 1.75,0.7835 1.75,1.75c0,0.9665 -0.7835,1.75 -1.75,1.75c-0.9665,0 -1.75,-0.7835 -1.75,-1.75z" fill="#7a6c00" stroke="none" stroke-width="0.5"/><path d="M329.76331,220.58067c0,-0.63528 0.47391,-1.15988 1.08749,-1.23953c-0.01905,-0.10342 -0.029,-0.21003 -0.029,-0.31896c0,-0.9665 0.7835,-1.75 1.75,-1.75c0.9665,0 1.75,0.7835 1.75,1.75c0,0.9665 -0.7835,1.75 -1.75,1.75c-0.10893,0 -0.21554,-0.00995 -0.31896,-0.029c-0.07966,0.61358 -0.60425,1.08749 -1.23953,1.08749c-0.69036,0 -1.25,-0.55964 -1.25,-1.25z" fill="#7a6c00" stroke="none" stroke-width="0.5"/><path d="M318.25444,224.8965c0,-0.69036 0.55964,-1.25 1.25,-1.25c0.69036,0 1.25,0.55964 1.25,1.25c0,0.69036 -0.55964,1.25 -1.25,1.25c-0.69036,0 -1.25,-0.55964 -1.25,-1.25z" fill="#7a6c00" stroke="none" stroke-width="0.5"/><path d="M306.02626,224.8965c0,-0.69036 0.55964,-1.25 1.25,-1.25c0.69036,0 1.25,0.55964 1.25,1.25c0,0.69036 -0.55964,1.25 -1.25,1.25c-0.69036,0 -1.25,-0.55964 -1.25,-1.25z" fill="#7a6c00" stroke="none" stroke-width="0.5"/><path d="M317.53513,218.90229c0,-0.69036 0.55964,-1.25 1.25,-1.25c0.69036,0 1.25,0.55964 1.25,1.25c0,0.69036 -0.55964,1.25 -1.25,1.25c-0.69036,0 -1.25,-0.55964 -1.25,-1.25z" fill="#7a6c00" stroke="none" stroke-width="0.5"/><path d="M302.4502,228.85267c0,-0.41421 0.33579,-0.75 0.75,-0.75c0.41421,0 0.75,0.33579 0.75,0.75c0,0.41421 -0.33579,0.75 -0.75,0.75c-0.41421,0 -0.75,-0.33579 -0.75,-0.75z" fill="#7a6c00" stroke="none" stroke-width="0.5"/><path d="M311.92104,227.65383c0,-0.41421 0.33579,-0.75 0.75,-0.75c0.41421,0 0.75,0.33579 0.75,0.75c0,0.41421 -0.33579,0.75 -0.75,0.75c-0.41421,0 -0.75,-0.33579 -0.75,-0.75z" fill="#7a6c00" stroke="none" stroke-width="0.5"/><path d="M321.75154,227.41406c0,-0.41421 0.33579,-0.75 0.75,-0.75c0.41421,0 0.75,0.33579 0.75,0.75c0,0.41421 -0.33579,0.75 -0.75,0.75c-0.41421,0 -0.75,-0.33579 -0.75,-0.75z" fill="#7a6c00" stroke="none" stroke-width="0.5"/><path d="M327.14633,223.45789c0,-0.41421 0.33579,-0.75 0.75,-0.75c0.41421,0 0.75,0.33579 0.75,0.75c0,0.41421 -0.33579,0.75 -0.75,0.75c-0.41421,0 -0.75,-0.33579 -0.75,-0.75z" fill="#7a6c00" stroke="none" stroke-width="0.5"/><path d="M336.13763,226.69476c0,-0.41421 0.33579,-0.75 0.75,-0.75c0.41421,0 0.75,0.33579 0.75,0.75c0,0.41421 -0.33579,0.75 -0.75,0.75c-0.41421,0 -0.75,-0.33579 -0.75,-0.75z" fill="#7a6c00" stroke="none" stroke-width="0.5"/><path d="M339.85404,231.96966c0,-0.41421 0.33579,-0.75 0.75,-0.75c0.41421,0 0.75,0.33579 0.75,0.75c0,0.41421 -0.33579,0.75 -0.75,0.75c-0.41421,0 -0.75,-0.33579 -0.75,-0.75z" fill="#7a6c00" stroke="none" stroke-width="0.5"/><path d="M299.07298,237.7241c0,-0.07083 0.00589,-0.14028 0.01721,-0.2079c-0.05402,-0.04456 -0.10531,-0.0923 -0.15361,-0.14293c-0.32059,0.4035 -0.81555,0.66222 -1.37094,0.66222c-0.9665,0 -1.75,-0.7835 -1.75,-1.75c0,-0.9665 0.7835,-1.75 1.75,-1.75c0.49822,0 0.94781,0.2082 1.26651,0.54233c0.32059,-0.4035 0.81555,-0.66222 1.37094,-0.66222c0.9665,0 1.75,0.7835 1.75,1.75c0,0.44709 -0.16766,0.85501 -0.44353,1.16434c0.04114,0.12391 0.06341,0.25643 0.06341,0.39415c0,0.69036 -0.55964,1.25 -1.25,1.25c-0.69036,0 -1.25,-0.55964 -1.25,-1.25z" fill="#84930f" stroke="none" stroke-width="0.5"/><path d="M341.92277,239.81329c-0.53513,0 -0.99172,-0.33627 -1.17,-0.80903c-0.42499,-0.31928 -0.69989,-0.82756 -0.69989,-1.40004c0,-0.53481 0.2399,-1.01358 0.61796,-1.33458c0.12372,-0.84533 0.8518,-1.49438 1.73146,-1.49438c0.51375,0 0.97579,0.22138 1.29594,0.57395c0.35257,0.32014 0.57395,0.78219 0.57395,1.29594c0,0.61364 -0.31584,1.15352 -0.79383,1.46593c-0.06597,0.21837 -0.17347,0.41872 -0.3133,0.59187c-0.06944,0.62462 -0.59914,1.11035 -1.24229,1.11035z" fill="#84930f" stroke="none" stroke-width="0.5"/><path d="M337.48705,235.63491c0.69036,0 1.25,0.55964 1.25,1.25c0,0.69036 -0.55964,1.25 -1.25,1.25c-0.16961,0 -0.33133,-0.03378 -0.4788,-0.09498c-0.28964,0.56668 -0.87913,0.95463 -1.55923,0.95463c-0.40263,0 -0.7735,-0.13597 -1.0692,-0.3645c-0.31415,0.30009 -0.73985,0.48438 -1.2086,0.48438c-0.9665,0 -1.75,-0.7835 -1.75,-1.75c0,-0.81102 0.5517,-1.49318 1.30027,-1.69167c0.29925,-0.53547 0.87169,-0.89752 1.52868,-0.89752c0.58756,0 1.10749,0.28956 1.42487,0.73377c0.3713,0.04788 0.70613,0.21213 0.96675,0.45498c0.22252,-0.20435 0.51932,-0.3291 0.84526,-0.3291z" fill="#84930f" stroke="none" stroke-width="0.5"/><path d="M327.6054,239.16271c0,-0.17607 0.0364,-0.34364 0.10209,-0.49559c-0.24621,-0.08119 -0.46825,-0.21556 -0.65253,-0.3895c-0.32076,0.36598 -0.79167,0.59706 -1.31655,0.59706c-0.39881,0 -0.76646,-0.1334 -1.06076,-0.35802c0.02156,0.09197 0.03296,0.18785 0.03296,0.2864c0,0.69036 -0.55964,1.25 -1.25,1.25c-0.69036,0 -1.25,-0.55964 -1.25,-1.25c0,-0.32604 0.12483,-0.62292 0.32929,-0.84547c-0.16367,0.05064 -0.3376,0.0779 -0.5179,0.0779c-0.03864,0 -0.07699,-0.00125 -0.11501,-0.00372c-0.28814,0.57111 -0.88001,0.96279 -1.56337,0.96279c-0.15514,0 -0.30557,-0.02019 -0.4488,-0.05808c0.01341,0.07337 0.02042,0.14898 0.02042,0.22623c0,0.69036 -0.55964,1.25 -1.25,1.25c-0.69036,0 -1.25,-0.55964 -1.25,-1.25c0,-0.69036 0.55964,-1.25 1.25,-1.25c0.02047,0 0.04083,0.00049 0.06106,0.00147c-0.08549,-0.20627 -0.13268,-0.43243 -0.13268,-0.66961c0,-0.9665 0.7835,-1.75 1.75,-1.75c0.03864,0 0.07699,0.00125 0.11501,0.00372c0.28814,-0.57111 0.88001,-0.96279 1.56337,-0.96279c0.9665,0 1.75,0.7835 1.75,1.75c0,0.51323 -0.22093,0.97485 -0.57287,1.29496c0.08433,-0.01795 0.1718,-0.02739 0.26148,-0.02739c0.23123,0 0.4478,0.06279 0.63359,0.17224c-0.06844,-0.18732 -0.10579,-0.38961 -0.10579,-0.60062c0,-0.9665 0.7835,-1.75 1.75,-1.75c0.26984,0 0.52541,0.06107 0.75365,0.17015c0.30047,-0.53104 0.87045,-0.88945 1.52415,-0.88945c0.85055,0 1.55938,0.60679 1.71721,1.4111c0.17258,0.27117 0.27256,0.59307 0.27256,0.93832c0,0.43602 -0.15946,0.8348 -0.42324,1.14119c0.31647,0.2268 0.52266,0.59768 0.52266,1.01672c0,0.69036 -0.55964,1.25 -1.25,1.25c-0.69036,0 -1.25,-0.55964 -1.25,-1.25z" fill="#84930f" stroke="none" stroke-width="0.5"/><path d="M307.34498,238.92294c0,-0.69036 0.55964,-1.25 1.25,-1.25c0.08968,0 0.17715,0.00944 0.26148,0.02739c-0.35194,-0.32011 -0.57287,-0.78173 -0.57287,-1.29496c0,-0.9665 0.7835,-1.75 1.75,-1.75c0.18546,0 0.36419,0.02885 0.53193,0.08231c0.32002,-0.41465 0.82193,-0.68173 1.38622,-0.68173c0.9665,0 1.75,0.7835 1.75,1.75c0,0.9665 -0.7835,1.75 -1.75,1.75c-0.18546,0 -0.36419,-0.02885 -0.53193,-0.08231c-0.32002,0.41465 -0.82193,0.68173 -1.38622,0.68173c-0.1803,0 -0.35424,-0.02727 -0.5179,-0.0779c0.20447,0.22255 0.32929,0.51943 0.32929,0.84547c0,0.69036 -0.55964,1.25 -1.25,1.25c-0.69036,0 -1.25,-0.55964 -1.25,-1.25z" fill="#84930f" stroke="none" stroke-width="0.5"/><path d="M306.48823,237.24456c0,0.69036 -0.55964,1.25 -1.25,1.25c-0.33427,0 -0.6379,-0.13121 -0.86219,-0.34494c-0.89967,-0.0727 -1.60712,-0.82586 -1.60712,-1.74425c0,-0.78072 0.51124,-1.44203 1.21721,-1.66742c0.18208,-0.12935 0.38997,-0.22473 0.61444,-0.27692c0.3209,-0.39354 0.80958,-0.64485 1.35696,-0.64485c0.9665,0 1.75,0.7835 1.75,1.75c0,0.78151 -0.51227,1.44336 -1.21935,1.6681c0.00003,0.00342 0.00004,0.00685 0.00004,0.01028z" fill="#84930f" stroke="none" stroke-width="0.5"/><path d="M314.03803,236.40537c0,-0.9665 0.7835,-1.75 1.75,-1.75c0.9665,0 1.75,0.7835 1.75,1.75c0,0.9665 -0.7835,1.75 -1.75,1.75c-0.9665,0 -1.75,-0.7835 -1.75,-1.75z" fill="#84930f" stroke="none" stroke-width="0.5"/><path d="M310.82162,241.56039c0,-0.69036 0.55964,-1.25 1.25,-1.25c0.69036,0 1.25,0.55964 1.25,1.25c0,0.69036 -0.55964,1.25 -1.25,1.25c-0.69036,0 -1.25,-0.55964 -1.25,-1.25z" fill="#84930f" stroke="none" stroke-width="0.5"/><path d="M318.54536,241.05016c0.41421,0 0.75,0.33579 0.75,0.75c0,0.41421 -0.33579,0.75 -0.75,0.75c-0.18039,0 -0.34591,-0.06369 -0.47529,-0.1698c-0.14823,0.52491 -0.63074,0.90957 -1.20308,0.90957c-0.69036,0 -1.25,-0.55964 -1.25,-1.25c0,-0.69036 0.55964,-1.25 1.25,-1.25c0.44657,0 0.83844,0.23417 1.05952,0.58642c0.13516,-0.19698 0.36192,-0.32619 0.61886,-0.32619z" fill="#84930f" stroke="none" stroke-width="0.5"/><path d="M333.23995,241.44051c0,-0.69036 0.55964,-1.25 1.25,-1.25c0.69036,0 1.25,0.55964 1.25,1.25c0,0.69036 -0.55964,1.25 -1.25,1.25c-0.69036,0 -1.25,-0.55964 -1.25,-1.25z" fill="#84930f" stroke="none" stroke-width="0.5"/><path d="M301.13147,241.80016c0,-0.41421 0.33579,-0.75 0.75,-0.75c0.41421,0 0.75,0.33579 0.75,0.75c0,0.41421 -0.33579,0.75 -0.75,0.75c-0.41421,0 -0.75,-0.33579 -0.75,-0.75z" fill="#84930f" stroke="none" stroke-width="0.5"/><path d="M310.84209,244.91714c0,-0.41421 0.33579,-0.75 0.75,-0.75c0.41421,0 0.75,0.33579 0.75,0.75c0,0.41421 -0.33579,0.75 -0.75,0.75c-0.41421,0 -0.75,-0.33579 -0.75,-0.75z" fill="#84930f" stroke="none" stroke-width="0.5"/><path d="M317.31583,246.71541c0,-0.41421 0.33579,-0.75 0.75,-0.75c0.41421,0 0.75,0.33579 0.75,0.75c0,0.41421 -0.33579,0.75 -0.75,0.75c-0.41421,0 -0.75,-0.33579 -0.75,-0.75z" fill="#84930f" stroke="none" stroke-width="0.5"/><path d="M325.1083,243.47853c0,-0.41421 0.33579,-0.75 0.75,-0.75c0.41421,0 0.75,0.33579 0.75,0.75c0,0.41421 -0.33579,0.75 -0.75,0.75c-0.41421,0 -0.75,-0.33579 -0.75,-0.75z" fill="#84930f" stroke="none" stroke-width="0.5"/><path d="M330.62296,245.51656c0,-0.41421 0.33579,-0.75 0.75,-0.75c0.41421,0 0.75,0.33579 0.75,0.75c0,0.41421 -0.33579,0.75 -0.75,0.75c-0.41421,0 -0.75,-0.33579 -0.75,-0.75z" fill="#84930f" stroke="none" stroke-width="0.5"/><path d="M339.85404,247.31483c0,-0.41421 0.33579,-0.75 0.75,-0.75c0.41421,0 0.75,0.33579 0.75,0.75c0,0.41421 -0.33579,0.75 -0.75,0.75c-0.41421,0 -0.75,-0.33579 -0.75,-0.75z" fill="#84930f" stroke="none" stroke-width="0.5"/><path d="M342.4023,252.28123c-0.2096,0 -0.40716,-0.05159 -0.58066,-0.14276c-0.33723,0.25916 -0.75942,0.41323 -1.2176,0.41323c-0.87907,0 -1.62567,-0.56714 -1.89388,-1.35548c-0.36508,0.39143 -0.8854,0.63618 -1.46288,0.63618c-1.10457,0 -2,-0.89543 -2,-2c0,-1.10457 0.89543,-2 2,-2c0.87907,0 1.62567,0.56714 1.89388,1.35548c0.36508,-0.39143 0.8854,-0.63618 1.46288,-0.63618c0.59656,0 1.13212,0.26119 1.49855,0.67545c0.36644,-0.41426 0.90199,-0.67545 1.49855,-0.67545c1.10457,0 2,0.89543 2,2c0,1.10457 -0.89543,2 -2,2c-0.37476,0 -0.72544,-0.10307 -1.02525,-0.28242c-0.05673,0.00788 -0.11469,0.01196 -0.17359,0.01196z" fill="#70b012" stroke="none" stroke-width="0.5"/><path d="M327.36563,250.43181c0,-0.69036 0.55964,-1.25 1.25,-1.25c0.11675,0 0.22975,0.016 0.33695,0.04594c0.21667,-0.87034 1.00345,-1.51524 1.94085,-1.51524c0.71327,0 1.33932,0.37338 1.69338,0.93534c0.80396,0.25927 1.38557,1.01364 1.38557,1.90385c0,1.10457 -0.89543,2 -2,2c-0.71327,0 -1.33932,-0.37338 -1.69338,-0.93534c-0.25909,-0.08355 -0.49508,-0.21852 -0.69596,-0.39289c-0.22924,0.2798 -0.57747,0.45835 -0.96741,0.45835c-0.69036,0 -1.25,-0.55964 -1.25,-1.25z" fill="#70b012" stroke="none" stroke-width="0.5"/><path d="M313.45907,251.51077c0,-0.09118 0.00976,-0.18007 0.0283,-0.2657c-0.36205,0.36283 -0.86268,0.58732 -1.41575,0.58732c-0.52176,0 -0.99685,-0.19979 -1.35295,-0.52705c-0.06687,0.01106 -0.13554,0.01682 -0.20555,0.01682c-0.35272,0 -0.67132,-0.14609 -0.89859,-0.38107c-0.34419,0.60397 -0.99397,1.01119 -1.73886,1.01119c-1.08612,0 -1.97002,-0.86576 -1.99925,-1.94482c-0.1675,0.79409 -0.80613,1.41451 -1.60979,1.55515c-0.33189,0.24491 -0.7422,0.38967 -1.18632,0.38967c-0.62742,0 -1.18736,-0.28891 -1.55405,-0.74095c-0.20424,0.14529 -0.45402,0.23072 -0.72375,0.23072c-0.23374,0 -0.45249,-0.06415 -0.63961,-0.17581c-0.33884,0.62291 -0.99908,1.04569 -1.75807,1.04569c-0.53524,0 -1.02138,-0.21026 -1.38032,-0.55268c-0.17113,0.04766 -0.3515,0.07314 -0.53783,0.07314c-1.10457,0 -2,-0.89543 -2,-2c0,-1.10457 0.89543,-2 2,-2c0.53524,0 1.02138,0.21026 1.38032,0.55268c0.17113,-0.04766 0.3515,-0.07314 0.53783,-0.07314c0.68754,0 1.29406,0.34693 1.65403,0.87529c0.20782,-0.15406 0.4651,-0.24517 0.74365,-0.24517c0.17601,0 0.34352,0.03638 0.49542,0.10202c0.2805,-0.54938 0.80753,-0.95192 1.43524,-1.06177c0.33189,-0.24491 0.7422,-0.38967 1.18632,-0.38967c1.08612,0 1.97002,0.86576 1.99925,1.94482c0.06,-0.28447 0.18047,-0.54665 0.34732,-0.77247c-0.00003,-0.00384 -0.00005,-0.00768 -0.00005,-0.01153c0,-0.69036 0.55964,-1.25 1.25,-1.25c0.44005,0 0.827,0.22739 1.04974,0.57109c0.50293,0.18489 0.91102,0.56606 1.13142,1.05065c0.17724,-0.15286 0.39786,-0.2568 0.64089,-0.29086c0.34553,-0.59887 0.99247,-1.00193 1.73355,-1.00193c1.10457,0 2,0.89543 2,2c0,0.24022 -0.04235,0.47054 -0.11999,0.68392c0.21018,-0.16033 0.47269,-0.25554 0.75744,-0.25554c0.10619,0 0.20929,0.01324 0.30773,0.03816c-0.01968,-0.1126 -0.02993,-0.22843 -0.02993,-0.34666c0,-1.10457 0.89543,-2 2,-2c1.10457,0 2,0.89543 2,2c0,1.10457 -0.89543,2 -2,2c-0.37964,0 -0.73458,-0.10578 -1.03695,-0.28947c-0.07501,0.61865 -0.60196,1.09797 -1.24085,1.09797c-0.69036,0 -1.25,-0.55964 -1.25,-1.25z" fill="#70b012" stroke="none" stroke-width="0.5"/><path d="M301.59055,254.38799c0,-0.69036 0.55964,-1.25 1.25,-1.25c0.69036,0 1.25,0.55964 1.25,1.25c0,0.69036 -0.55964,1.25 -1.25,1.25c-0.69036,0 -1.25,-0.55964 -1.25,-1.25z" fill="#70b012" stroke="none" stroke-width="0.5"/><path d="M303.74846,252.94938c0,-0.69036 0.55964,-1.25 1.25,-1.25c0.69036,0 1.25,0.55964 1.25,1.25c0,0.69036 -0.55964,1.25 -1.25,1.25c-0.69036,0 -1.25,-0.55964 -1.25,-1.25z" fill="#70b012" stroke="none" stroke-width="0.5"/><path d="M316.57606,253.78857c0,-0.69036 0.55964,-1.25 1.25,-1.25c0.69036,0 1.25,0.55964 1.25,1.25c0,0.69036 -0.55964,1.25 -1.25,1.25c-0.69036,0 -1.25,-0.55964 -1.25,-1.25z" fill="#70b012" stroke="none" stroke-width="0.5"/><path d="M325.78957,251.39089c0,0.69036 -0.55964,1.25 -1.25,1.25c-0.02562,0 -0.05106,-0.00077 -0.0763,-0.00229c0.08162,0.16611 0.12746,0.35298 0.12746,0.55055c0,0.69036 -0.55964,1.25 -1.25,1.25c-0.69036,0 -1.25,-0.55964 -1.25,-1.25c0,-0.69036 0.55964,-1.25 1.25,-1.25c0.02562,0 0.05106,0.00077 0.0763,0.00229c-0.01785,-0.03633 -0.03399,-0.07365 -0.04831,-0.11186c-0.21567,-0.07945 -0.41388,-0.195 -0.58729,-0.33933c-0.31937,0.216 -0.70449,0.34214 -1.11907,0.34214c-1.10457,0 -2,-0.89543 -2,-2c0,-1.10457 0.89543,-2 2,-2c0.48625,0 0.93197,0.17353 1.27861,0.46203c0.31937,-0.216 0.70449,-0.34214 1.11907,-0.34214c1.10457,0 2,0.89543 2,2c0,0.40066 -0.11781,0.7738 -0.32069,1.08668c0.03269,0.11163 0.05023,0.22973 0.05023,0.35193z" fill="#70b012" stroke="none" stroke-width="0.5"/><path d="M334.91833,253.66868c0,-0.69036 0.55964,-1.25 1.25,-1.25c0.69036,0 1.25,0.55964 1.25,1.25c0,0.69036 -0.55964,1.25 -1.25,1.25c-0.69036,0 -1.25,-0.55964 -1.25,-1.25z" fill="#70b012" stroke="none" stroke-width="0.5"/><path d="M336.23705,256.06637c0,-0.69036 0.55964,-1.25 1.25,-1.25c0.69036,0 1.25,0.55964 1.25,1.25c0,0.69036 -0.55964,1.25 -1.25,1.25c-0.69036,0 -1.25,-0.55964 -1.25,-1.25z" fill="#70b012" stroke="none" stroke-width="0.5"/><path d="M300.29228,260.02254c0,-0.41421 0.33579,-0.75 0.75,-0.75c0.41421,0 0.75,0.33579 0.75,0.75c0,0.41421 -0.33579,0.75 -0.75,0.75c-0.41421,0 -0.75,-0.33579 -0.75,-0.75z" fill="#70b012" stroke="none" stroke-width="0.5"/><path d="M307.96487,258.22428c0,-0.41421 0.33579,-0.75 0.75,-0.75c0.41421,0 0.75,0.33579 0.75,0.75c0,0.41421 -0.33579,0.75 -0.75,0.75c-0.41421,0 -0.75,-0.33579 -0.75,-0.75z" fill="#70b012" stroke="none" stroke-width="0.5"/><path d="M313.23977,257.74474c0,-0.41421 0.33579,-0.75 0.75,-0.75c0.41421,0 0.75,0.33579 0.75,0.75c0,0.41421 -0.33579,0.75 -0.75,0.75c-0.41421,0 -0.75,-0.33579 -0.75,-0.75z" fill="#70b012" stroke="none" stroke-width="0.5"/><path d="M321.03224,260.50208c0,-0.41421 0.33579,-0.75 0.75,-0.75c0.41421,0 0.75,0.33579 0.75,0.75c0,0.41421 -0.33579,0.75 -0.75,0.75c-0.41421,0 -0.75,-0.33579 -0.75,-0.75z" fill="#70b012" stroke="none" stroke-width="0.5"/><path d="M332.66099,261.94069c0,-0.41421 0.33579,-0.75 0.75,-0.75c0.41421,0 0.75,0.33579 0.75,0.75c0,0.41421 -0.33579,0.75 -0.75,0.75c-0.41421,0 -0.75,-0.33579 -0.75,-0.75z" fill="#70b012" stroke="none" stroke-width="0.5"/><path d="M337.57624,262.06057c0,-0.41421 0.33579,-0.75 0.75,-0.75c0.41421,0 0.75,0.33579 0.75,0.75c0,0.41421 -0.33579,0.75 -0.75,0.75c-0.41421,0 -0.75,-0.33579 -0.75,-0.75z" fill="#70b012" stroke="none" stroke-width="0.5"/><path d="M342.85114,256.66579c0,-0.41421 0.33579,-0.75 0.75,-0.75c0.41421,0 0.75,0.33579 0.75,0.75c0,0.41421 -0.33579,0.75 -0.75,0.75c-0.41421,0 -0.75,-0.33579 -0.75,-0.75z" fill="#70b012" stroke="none" stroke-width="0.5"/><path d="M328.1054,258.58393c0,-0.41421 0.33579,-0.75 0.75,-0.75c0.41421,0 0.75,0.33579 0.75,0.75c0,0.41421 -0.33579,0.75 -0.75,0.75c-0.41421,0 -0.75,-0.33579 -0.75,-0.75z" fill="#70b012" stroke="none" stroke-width="0.5"/><path d="M293.93843,256.18625c0,-0.41421 0.33579,-0.75 0.75,-0.75c0.41421,0 0.75,0.33579 0.75,0.75c0,0.41421 -0.33579,0.75 -0.75,0.75c-0.41421,0 -0.75,-0.33579 -0.75,-0.75z" fill="#70b012" stroke="none" stroke-width="0.5"/></g><g stroke="#000000" stroke-width="0"><path d="M371.34874,174.18927l2.21267,6.90685l-7.65586,-2.27187z" fill="#000000" stroke-linecap="round"/><path d="M344.0796,119.67293c-1.22895,-0.90558 -1.98771,-2.35985 -1.92131,-4.01262c0.07489,-1.86402 1.18051,-3.51144 2.76652,-4.42168c1.38633,-2.21572 7.41952,-0.32888 9.21098,0.43008c6.54321,2.77205 12.72025,10.98035 15.15859,17.41095c7.64736,20.16825 -8.21291,42.49528 -4.54338,62.9351c2.04945,11.41569 10.50468,20.86785 12.89204,32.28168c0.78018,3.73002 0.73494,10.94135 -5.43106,11.04782c-1.76719,0.03051 -3.2999,-1.27508 -4.50104,-2.4599c-0.94661,-0.93376 -0.397,-5.22463 -0.41684,-5.9807c-0.09301,-3.5443 -2.34927,-7.3052 -3.74654,-10.39293c-3.11621,-6.88631 -8.55855,-15.09401 -9.2831,-22.86877c-1.8785,-20.1573 8.09376,-39.94684 5.27627,-60.01546c-0.53153,-3.786 -6.51952,-10.50714 -9.16566,-12.22934c-1.01516,-0.66069 -2.09601,-0.68167 -3.18477,-0.74853c-0.48095,0.00618 -0.94415,-0.05022 -1.38168,-0.16144c-0.40279,-0.0848 -0.80331,-0.21589 -1.19858,-0.42836c-0.19937,-0.10716 -0.3746,-0.23731 -0.53047,-0.38588z" fill="#9efd71" stroke-linecap="butt"/><path d="M369.67063,107.86485c0.53955,-2.37821 2.76035,-4.21327 5.34385,-4.25788c1.51092,-0.02609 2.84836,0.56535 3.76829,1.53358c0.15846,0.16679 0.30454,0.34475 0.43698,0.53267c2.05422,1.75783 4.42892,3.27426 6.63225,4.86104c0.03985,0.02871 0.0546,0.08235 0.09384,0.11179c19.24935,14.4416 15.16901,43.91185 13.21729,65.18282c-0.16418,1.78936 -0.55442,3.56785 -0.70387,5.35761c-0.19665,2.35494 -0.27841,4.71358 -0.28386,7.06571c-0.00597,2.57529 3.64654,6.49777 2.39084,9.11154c-2.13057,4.43487 -4.19729,5.25592 -8.68025,3.44843c-4.26858,-1.72106 -4.02911,-17.77612 -3.93779,-19.69734c0.0853,-1.79478 0.69652,-4.16562 0.77871,-5.60892c0.62627,-10.99821 2.46589,-26.81831 0.51726,-38.90684c-0.92395,-5.73185 -2.97015,-11.80569 -7.38813,-15.71952c-3.30957,-2.93187 -12.84454,-6.55163 -12.32759,-12.38635c0.01964,-0.22153 0.06841,-0.4304 0.1422,-0.62837z" fill="#9efd71" stroke-linecap="butt"/><path d="M351.62575,114.16126c0.11268,-2.80492 2.5593,-5.11943 5.46467,-5.16959c0.45541,-0.00786 0.89505,0.04037 1.31226,0.13813c1.12509,-0.31235 2.85889,1.80627 3.52939,2.53446c3.15226,3.42346 5.64055,6.70313 8.15103,10.60965c12.57972,19.57508 2.69218,41.81009 2.46363,63.41763c-0.0368,3.47966 0.44284,7.57203 1.66798,10.80884c0.36661,0.96859 2.06351,2.87294 2.03814,3.50444c-0.06854,1.7061 -0.29526,3.73404 -1.59332,4.96202c-8.17797,7.73636 -11.3993,-7.98981 -11.99755,-11.73536c-0.19211,-1.20277 -0.39865,-2.51058 -0.48389,-3.7329c-1.25186,-17.95218 6.67501,-35.44806 2.5529,-53.43312c-1.39592,-6.09052 -5.60471,-11.49834 -9.63209,-16.04387c-0.80202,-0.90521 -4.70757,-4.37418 -3.47316,-5.86029z" fill="#67dc31" stroke-linecap="butt"/><path d="M397.09041,164.35587c0.72381,0.86723 1.13496,1.99144 1.08534,3.22649c-0.07489,1.86402 -1.18051,3.51145 -2.76653,4.42168c-0.53623,0.85704 -1.88359,0.89111 -3.05376,0.74261c-0.53143,-0.06745 -1.02631,-0.17255 -1.39207,-0.25531c-4.08612,-0.92463 -4.79664,-6.15087 -5.25608,-9.78678c-0.64602,-5.11249 -1.29921,-12.01291 -2.51801,-16.99785c-1.50676,-6.16275 -4.46959,-11.78654 -6.13616,-17.90165c-2.97075,-10.90054 -1.99565,-14.1657 -9.58472,-23.69384c-2.04286,-2.56484 -4.59446,-6.09952 -0.23755,-9.23817c4.91038,-3.53733 7.53106,1.24023 9.74929,3.942c6.5871,8.02303 8.20186,16.05726 10.31644,26.06188c0.79436,3.75834 2.35635,6.5117 3.58077,10.13883c1.88075,5.57134 3.22048,11.34703 4.21199,17.17211c0.79141,4.64947 0.92812,8.24557 2.00105,12.16799z" fill="#67dc31" stroke-linecap="butt"/><path d="M373.92073,93.45674c1.21316,0.9069 1.96042,2.35198 1.8945,3.9927c-0.0018,0.04472 -0.0042,0.08932 -0.00717,0.13377c0.11616,0.60893 -0.05601,1.172 -0.41335,1.69113c-0.83432,1.91957 -2.80271,3.30598 -5.04415,3.34468c-1.98122,0.97162 -4.63199,-2.53497 -5.9328,-3.19839c-4.59278,-2.34232 -10.0992,-5.0656 -15.61976,-4.97725c-6.24056,0.09988 -13.5782,1.36952 -19.37691,4.3015c-1.35493,0.68509 -3.41903,2.80378 -5.24223,3.0753c-2.80728,0.41807 -5.32927,0.79929 -6.52518,-3.09719c-1.98626,-6.47148 9.92733,-10.12733 14.29978,-11.47473c12.28461,-3.7856 25.20358,-4.03597 36.08926,2.23887c2.44872,1.41152 4.46627,2.37505 5.87802,3.96961z" fill="#67dc31" stroke-linecap="butt"/><path d="M370.96968,101.32875c0.81512,0.88768 1.28598,2.07846 1.23309,3.39524c-0.0018,0.04472 -0.0042,0.08932 -0.00717,0.13377c0.07281,0.38167 0.03234,0.74533 -0.09599,1.09145c5.93664,7.31191 14.35936,18.37636 13.34374,26.78586c-0.75006,6.2106 -0.87633,12.52686 -2.58843,18.60924c-1.75454,6.23317 -4.98222,12.61087 -4.71781,19.16165c0.35136,8.70483 4.85459,17.50975 7.29407,25.66054c2.5311,8.45694 4.63098,17.18059 7.53667,25.46128c0.95476,2.72092 0.5288,5.98349 -3.34055,7.27874c-7.34152,2.45755 -9.56142,-12.93855 -10.70634,-17.02663c-0.4682,-1.67177 -0.95707,-3.33705 -1.44363,-5.00302c-0.71134,-2.43564 -1.37478,-4.88751 -2.15005,-7.30178c-2.87862,-8.96423 -7.86545,-18.83815 -7.72592,-28.52656c0.18842,-13.08292 7.01263,-24.73066 7.26612,-38.04742c0.18778,-9.86469 -10.14206,-17.51491 -14.96393,-24.69341c-0.4452,-0.66278 -0.68766,-1.46894 -0.7295,-2.31177c-0.01076,-0.16844 -0.01285,-0.33947 -0.00589,-0.51267c0.01398,-0.3479 0.06386,-0.68826 0.14606,-1.01769c0.0057,-0.02443 0.01156,-0.04886 0.01758,-0.07324c-3.36479,-1.77036 -8.49475,-2.71921 -11.78983,-2.71508c-4.80149,0.006 -9.54998,-0.45449 -14.23858,0.77485c-2.86938,0.75235 -6.94426,5.33263 -9.97897,3.38137c-1.43236,-0.92098 -2.71009,-2.50849 -2.76969,-4.20789c-0.22827,-6.5092 10.54703,-9.43441 15.59944,-9.82438c10.34541,-0.79851 29.25544,-0.89963 34.81551,9.52755z" fill="#4cc513" stroke-linecap="butt"/><path d="M386.81308,130.02753c1.37189,0.24309 1.82485,3.65619 2.04838,4.88041c1.17147,6.41619 1.06691,12.98112 0.98428,19.57579c-0.09115,7.2746 -1.35205,14.51023 -1.42374,21.72427c-0.08601,8.65552 4.81544,16.79081 4.51365,25.38877c-0.24078,6.86009 -0.35633,13.72077 -0.8269,20.58232c-0.18351,2.67581 -2.05212,5.11067 -5.46468,5.16959c-3.41531,0.05897 -5.08657,-2.31477 -5.05658,-4.98793c0.0753,-6.71468 0.60464,-13.44272 0.81002,-20.16198c0.23964,-7.84008 -3.54396,-16.11123 -4.41431,-23.95482c-0.76298,-6.87596 1.07497,-16.94018 1.33487,-23.39962c0.2014,-5.00541 0.23058,-10.76325 -0.47218,-15.75399c-0.26438,-1.87755 -1.24961,-4.191 -0.80021,-6.08738c0.05185,-0.21879 0.13092,-0.42201 0.23303,-0.61204c0.88903,-1.65477 3.52372,-2.31027 5.12931,-3.5527z" fill="#7ade4c" stroke-linecap="butt"/><path d="M346.46944,120.64931c-1.25343,0.8075 -5.79999,-1.75559 -7.50871,-1.72838c-1.65307,0.02632 -3.30611,0.05126 -4.95949,0.08563c-2.4585,0.05111 -3.45573,2.70808 -6.48447,2.54764c-3.50157,-0.18548 -5.30475,-4.84303 -3.79771,-7.87842c1.30103,-2.62047 4.33388,-2.91888 6.64742,-3.92954c4.51067,-1.97046 12.20547,-1.90627 17.04923,0.82259c2.0451,1.15217 3.58194,2.77933 4.15634,4.92894z" fill="#9efd71" stroke-linecap="butt"/><path d="M359.91185,109.11983c1.26956,0.9015 2.05814,2.37907 1.99049,4.06264c-0.0018,0.04472 -0.0042,0.08932 -0.00717,0.13377c0.11616,0.60893 -0.05601,1.172 -0.41335,1.69114c-0.83432,1.91957 -2.80272,3.30598 -5.04417,3.34468c-1.26368,0.61973 -2.23301,-0.02436 -3.04435,-0.90992c-0.71172,-0.49954 -1.27422,-1.17924 -1.62227,-1.97472c-0.1583,-0.16288 -0.31333,-0.29448 -0.46705,-0.38009c-2.49157,-1.38766 -5.86343,-3.45538 -8.91388,-3.80228c-3.32662,-0.37832 -7.40988,-0.35604 -10.60775,-0.25369c-2.09717,0.06712 -3.04428,3.77345 -6.16916,2.80932c-1.65482,-0.51057 -3.56809,-1.25063 -4.2971,-2.76296c-2.62749,-5.45076 5.36795,-9.22243 9.53794,-10.1808c8.20505,-1.88573 23.40924,1.11908 29.05782,8.22292z" fill="#67dc31" stroke-linecap="butt"/></g><path d="M257.57908,151.8297c-0.97723,-32.87375 26.62076,-60.36712 61.64181,-61.40818c35.02107,-1.04105 64.20343,24.76444 65.18066,57.63817c0.97723,32.87375 -26.46398,48.61403 -61.48503,49.65509c-35.02106,1.04105 -64.36021,-13.01134 -65.33743,-45.88508z" fill="#c8bfb0" stroke="#000000" stroke-width="0" stroke-linecap="butt"/><g><g fill="#a93232" stroke="none" stroke-width="0" stroke-linecap="butt"><path d="M330.29654,200.75256c0.03759,2.17698 -1.9438,3.9765 -4.42555,4.01935c-2.48175,0.04285 -4.52408,-1.6872 -4.56167,-3.86418c-0.03759,-2.17698 1.9438,-3.9765 4.42555,-4.01935c2.48175,-0.04285 4.52408,1.6872 4.56167,3.86418z"/><path d="M324.79712,201.95154c0.02857,1.6545 -1.74836,3.02682 -3.96888,3.06516c-2.22052,0.03834 -4.04376,-1.27182 -4.07233,-2.92632c-0.02857,-1.6545 1.74836,-3.02682 3.96888,-3.06516c2.22052,-0.03834 4.04376,1.27182 4.07233,2.92632z"/><path d="M321.23603,205.79825c0.02706,1.56743 -1.99815,2.87341 -4.52345,2.91701c-2.52529,0.0436 -4.59439,-1.1917 -4.62145,-2.75912c-0.02706,-1.56743 1.99815,-2.87341 4.52345,-2.91701c2.52529,-0.0436 4.59439,1.1917 4.62145,2.75912z"/><path d="M327.15401,201.43769c4.70227,-0.08119 8.54346,1.54719 8.57955,3.63709c0.03608,2.0899 -3.74661,3.84991 -8.44887,3.9311c-4.70227,0.08119 -8.54346,-1.54719 -8.57955,-3.63709c-0.03608,-2.0899 3.74661,-3.84991 8.44887,-3.9311z"/><path d="M316.04788,206.75527c0.01879,1.08849 -1.27192,1.99343 -2.88288,2.02125c-1.61096,0.02781 -2.93214,-0.83204 -2.95093,-1.92052c-0.01879,-1.08849 1.27192,-1.99343 2.88288,-2.02125c1.61096,-0.02781 2.93214,0.83204 2.95093,1.92052z"/></g><path d="M303.6267,94.9367c0,0 0.11367,-0.04008 0.21098,0.01434c1.00869,-0.30366 2.03798,-0.52637 3.05789,-0.78893c0.21868,-0.06462 0.43837,-0.12388 0.65925,-0.17693c0.31014,-0.08726 0.61879,-0.18067 0.92511,-0.28369l0.16745,0.07684c0.72198,-0.09831 1.45918,-0.11946 2.21733,-0.03684l-1.90842,1.38235c-0.26824,0.08948 -0.5403,0.17918 -0.81531,0.26861c-1.57932,1.01621 -4.09306,1.72119 -5.73878,2.33288l0.1099,0.31165c2.50256,-0.60894 5.38564,-0.5984 7.91159,-0.64202l0.13619,-0.00235c0,0 0.24996,-0.00432 0.25428,0.24565c0.00432,0.24996 -0.24565,0.25428 -0.24565,0.25428l-0.13619,0.00235c-2.47179,0.04268 -5.29955,0.02662 -7.75315,0.61585l0.05627,0.15959c0.04908,-0.01103 0.10001,-0.01726 0.15228,-0.01816c0.35688,-0.00616 0.65983,0.23797 0.74137,0.57061l0.31583,1.17661l-0.00319,0.00086l0.00565,0.00858c0.0653,0.27124 0.12453,0.51816 0.177,0.74707c0.24732,0.28939 0.45997,0.65023 0.64348,1.04703c0.48274,-0.11405 1.04764,-0.28785 1.62276,-0.47656l0.59567,-0.51407c1.23152,-1.06104 2.11926,-1.72636 3.30488,-2.15556l-0.09214,-0.21929l1.36721,-0.57446c0.08969,-0.04015 0.1888,-0.06323 0.29326,-0.06503c0.41415,-0.00715 0.75569,0.32279 0.76284,0.73694c0.00401,0.23235 -0.09807,0.44183 -0.26159,0.58224l-0.76629,0.66702c-0.5541,0.48214 -1.19435,1.2181 -1.86885,1.99492c0.14505,0.42401 0.23884,0.89755 0.37647,1.24859c0.78842,2.01078 1.43366,4.11786 2.07675,6.18005c0.40994,1.48908 0.68181,2.79939 0.84051,4.14686c0.15058,-0.08502 0.30089,-0.17055 0.44388,-0.26583c0.40336,-0.26877 0.82215,-0.51435 1.25128,-0.74178l-0.06203,-0.07979l1.17545,-0.91371c0.12468,-0.0991 0.28178,-0.15944 0.45332,-0.1624c0.41415,-0.00715 0.75569,0.32279 0.76284,0.73694c0.00272,0.15758 -0.04336,0.30463 -0.1243,0.42677l-0.57743,0.8994l-0.00239,-0.00153l-0.00207,0.00839c-0.87253,1.2961 -1.60881,2.56383 -2.30044,3.92313c0.33665,-0.43656 0.68837,-0.85869 1.05849,-1.22819c0.21402,-0.46323 0.39989,-0.85543 0.50637,-1.12639l0.14799,-0.08293l-0.0423,-0.04398l1.0796,-1.03847c0.13186,-0.12757 0.31053,-0.20734 0.50844,-0.21076c0.41415,-0.00715 0.75569,0.32279 0.76284,0.73694c0.00253,0.14657 -0.03716,0.28404 -0.10786,0.40082l-0.74861,1.28579l-0.22918,-0.13343c-0.10447,0.20808 -0.2145,0.41075 -0.32961,0.60911c-0.02906,0.10416 -0.05962,0.21481 -0.09161,0.33041c0.9494,-0.14507 1.65916,0.06968 2.32316,0.5613c0.0246,-0.00288 0.04958,-0.00456 0.07487,-0.00499c0.41415,-0.00715 0.75569,0.32279 0.76284,0.73694c0.00023,0.01317 0.00011,0.02626 -0.00033,0.03927c0.08659,0.09341 0.1738,0.19097 0.26208,0.2925l0.12359,0.11808c0,0 0.17981,0.1737 0.0061,0.3535c-0.1737,0.17981 -0.3535,0.0061 -0.3535,0.0061l-0.13732,-0.13383l-0.15554,0.93967c-0.24594,1.4857 -0.43244,3.00532 -0.63941,4.50829c0.58957,-1.67555 1.42887,-3.5119 1.82342,-4.76447c-0.00945,-1.77205 0.25273,-3.26429 0.76479,-4.84656c-0.08761,-0.1263 0.005,-0.27055 0.005,-0.27055c0.05263,-0.08038 0.10816,-0.15924 0.16641,-0.23663c0.10955,-0.31141 0.22842,-0.62768 0.35644,-0.95152l0.11014,-0.27859c0,0 0.09191,-0.23249 0.3244,-0.14058c0.23249,0.09191 0.14058,0.3244 0.14058,0.3244l-0.0541,0.13684c1.3891,-1.16031 3.39025,-1.88412 4.96176,-2.31197c0.27846,-0.47324 0.5952,-0.94295 0.93519,-1.31167c0.08926,-0.17123 0.17791,-0.34299 0.26585,-0.51535l0.03843,-0.03153l-0.01283,-0.00874l0.83892,-1.23109c0.13181,-0.19884 0.35605,-0.33159 0.6126,-0.33602c0.41415,-0.00715 0.75569,0.32279 0.76284,0.73694c0.00196,0.11356 -0.02143,0.22167 -0.06494,0.31892l-0.38902,0.92447l-0.17628,-0.07418l-0.32433,0.47595c-0.00873,0.01719 -0.01747,0.03439 -0.02621,0.05158c-0.03809,0.07825 -0.07754,0.15533 -0.11819,0.23152c-0.73943,1.44342 -1.51256,2.8599 -2.30028,4.24898c-0.34695,1.11918 -0.58134,2.33405 -1.15103,3.31008c-0.80805,1.38441 -2.33699,2.64599 -3.30104,3.97804c-0.51582,0.71273 -0.99474,1.44484 -1.45875,2.18453c0.03055,0.01398 0.06156,0.0293 0.09303,0.04601c1.3612,0.72251 0.01748,3.74333 -0.48409,4.56671l-0.25709,0.81806c-0.08895,0.30805 -0.37041,0.53571 -0.70774,0.54154c-0.33733,0.00582 -0.62648,-0.21199 -0.72601,-0.51678l-0.30898,-0.87622l0.19132,-0.06746c-0.01377,-0.03559 -0.0268,-0.07094 -0.03914,-0.10614c-0.06701,0.04476 -0.13532,0.08576 -0.20474,0.12251l-0.03947,0.17429c-0.06868,0.337 -0.36383,0.59321 -0.72196,0.59939c-0.06013,0.00104 -0.11872,-0.00503 -0.17499,-0.01743l-0.25029,0.79643c-0.08895,0.30805 -0.37041,0.53571 -0.70774,0.54154c-0.41415,0.00715 -0.75569,-0.32279 -0.76284,-0.73694l-0.0155,-0.8977l0.25867,-0.00447l0.06874,-0.21874c0.03014,-0.35075 0.13823,-0.63505 0.3085,-0.89451c-0.0203,-0.15104 -0.03682,-0.33899 -0.05009,-0.5416c-0.16143,-0.61255 -0.55866,-1.67161 -0.87521,-2.73173c-0.33123,-0.01647 -0.60739,-0.24854 -0.68811,-0.56061l-0.39965,-1.41448c-0.05645,-0.16717 -0.11488,-0.33217 -0.17362,-0.49581c-0.17173,0.00153 -0.35777,-0.06245 -0.55915,-0.21701c-0.03797,-0.02914 -0.07377,-0.05984 -0.1075,-0.09203l0.01242,0.90006c0.00591,0.41313 -0.32358,0.75343 -0.73698,0.76057c-0.36861,0.00636 -0.67969,-0.2543 -0.74869,-0.6037l-0.23477,-1.07684c-0.13378,0.142 -0.32251,0.232 -0.53298,0.23564c-0.41415,0.00715 -0.75569,-0.32279 -0.76284,-0.73694l-0.0155,-0.8977l0.29287,-0.00506c0.00907,-0.45142 0.07133,-0.90074 0.17583,-1.34649c-0.13857,-0.34557 -0.30867,-0.75934 -0.4888,-1.21034c-0.05499,0.0139 -0.11243,0.02174 -0.17158,0.02277c-0.35688,0.00616 -0.65983,-0.23797 -0.74137,-0.57061l-0.31583,-1.17661l0.01384,-0.00371l-0.0233,-0.0358c-0.04565,-0.29202 -0.09089,-0.57723 -0.13442,-0.85702c-0.13317,-0.45963 -0.19066,-0.99986 -0.2164,-1.51031c-0.01634,-0.13203 -0.03166,-0.26335 -0.0458,-0.39414c-0.07558,0.02726 -0.15686,0.04274 -0.24166,0.04421c-0.32262,0.00557 -0.60118,-0.19342 -0.71193,-0.47742c-0.11424,0.07463 -0.25021,0.11901 -0.39672,0.12154c-0.34513,0.00596 -0.63983,-0.22218 -0.73261,-0.53806l-0.41206,-1.29203l-0.12484,-0.23926l0.00888,-0.00463c-0.00758,-0.00777 -0.01515,-0.01553 -0.02273,-0.0233l-0.00465,-0.03185l-0.00802,0.00337l-0.57446,-1.36721c-0.04015,-0.08969 -0.06323,-0.1888 -0.06503,-0.29326c-0.00012,-0.00724 -0.00015,-0.01446 -0.00006,-0.02165c-0.01435,-0.03374 -0.02879,-0.06766 -0.04329,-0.10177l0.00341,0.29807c0.00506,0.41242 -0.32412,0.75188 -0.737,0.75901c-0.36861,0.00636 -0.67969,-0.2543 -0.74869,-0.6037l-0.31371,-1.43889c-0.26282,-0.97754 -0.5601,-1.83569 -0.81421,-2.67074c-0.13406,0.18009 -0.34718,0.29828 -0.58902,0.30245c-0.08062,0.00139 -0.15849,-0.00999 -0.23166,-0.03228l-0.21838,0.9424c-0.07001,0.33525 -0.36436,0.5897 -0.72123,0.59586c-0.30647,0.00529 -0.57319,-0.17401 -0.69405,-0.43543l-0.41276,-0.84384l0.00633,-0.0031l-0.01598,-0.01742c-1.17169,-2.81289 -2.41928,-5.94318 -1.9983,-8.97482l-0.20725,0.00358l-0.0155,-0.8977c-0.00034,-0.01946 0.00007,-0.03876 0.0012,-0.05786c-0.0958,-0.08036 -0.1971,-0.15871 -0.30485,-0.23477c0,0 -0.60768,-0.43957 -0.1681,-1.04725c0.43957,-0.60768 1.04725,-0.1681 1.04725,-0.1681c0.07944,0.05862 0.15612,0.11808 0.23027,0.17832c0.06939,-0.02265 0.14328,-0.03547 0.22007,-0.03679c0.32315,-0.00558 0.60208,0.19406 0.71246,0.47881c1.16004,0.01937 2.34307,0.0064 3.38523,-0.36109zM300.48955,96.00084c0.08746,0.00333 0.17118,0.0217 0.24862,0.05261c0.19188,-0.11775 0.42635,-0.19517 0.66806,-0.26401c-0.32861,0.01031 -0.65928,0.01029 -0.98886,0.00672zM321.2252,118.03709c0.13456,-0.15324 0.33078,-0.25136 0.55075,-0.25516c0.41415,-0.00715 0.75569,0.32279 0.76284,0.73694l0.006,0.34758c0.71506,-0.61889 1.45672,-1.23043 1.8703,-1.97162c0.57064,-1.02266 1.16052,-2.0465 1.75043,-3.08045c0.11041,-0.34335 0.23395,-0.67571 0.38426,-0.9866c0.13351,-0.27617 0.31224,-0.64959 0.52585,-1.05337c-1.72621,0.50313 -3.95376,1.40131 -5.04608,2.83043c-0.40657,1.16441 -0.67734,2.25509 -0.80434,3.43223zM311.69909,109.74851c-0.63902,-2.04812 -1.27889,-4.14138 -2.06246,-6.13827c-0.07627,-0.19437 -0.17008,-0.60807 -0.28539,-1.00078c-0.30329,0.34726 -0.61144,0.69488 -0.9199,1.02438c0.3564,0.69286 0.71438,1.83176 0.80195,2.08012c0.35191,0.99805 1.00249,2.11905 1.61938,3.27945l0.02201,0.03181l-0.00374,0.00258c0.92584,1.74471 1.7682,3.57655 1.39972,5.21227c0.08798,-0.07487 0.18135,-0.14268 0.27797,-0.20627c-0.15073,-1.39658 -0.42377,-2.73784 -0.84953,-4.2853zM315.76523,119.53959c0.39639,-0.30625 0.81884,-0.54596 1.24921,-0.4139c0.35057,0.10757 0.56544,0.27218 0.68481,0.46911c0.02271,-0.0349 0.04562,-0.06969 0.06872,-0.10436l-0.11356,-0.05229l0.62037,-1.34746c0.02932,-0.06747 0.06828,-0.12983 0.11518,-0.18532c-0.5496,-0.34997 -1.15208,-0.46875 -1.98715,-0.28876c-0.18169,0.63905 -0.39725,1.34631 -0.63759,1.92297zM308.11351,106.9679c0.04662,0.32273 0.09149,0.64087 0.13297,0.95625c0.14655,0.71798 0.27739,1.44471 0.40906,2.19115c0.03878,0.03733 0.07705,0.07511 0.11478,0.11336c0.00819,-0.19134 0.02734,-0.38075 0.05365,-0.56339l0.06889,-1.10679c-0.27877,-0.51498 -0.54524,-1.04208 -0.77935,-1.59057zM305.78322,104.39577c0.17865,-0.47457 0.41519,-0.91459 0.69642,-1.33047c-0.3049,0.14508 -0.62942,0.27251 -0.95752,0.37721l0.26832,0.76091l-0.1084,0.03823c0.03413,0.05123 0.06785,0.10259 0.10118,0.15413zM300.9397,102.29422c0.03725,0.12287 0.0755,0.24551 0.11474,0.368l0.1031,-0.03636c-0.07472,-0.10996 -0.14729,-0.22049 -0.21784,-0.33165zM301.49904,103.94161c-0.00008,-0.04877 0.00009,-0.09786 0.00054,-0.14722c-0.06284,-0.07357 -0.11173,-0.15947 -0.1425,-0.25371l-0.2138,-0.60631c0.11165,0.33584 0.23049,0.67102 0.35577,1.00724z" fill="#a93232" stroke="none" stroke-width="0.5" stroke-linecap="butt"/><g stroke-linecap="butt"><path d="M256.35556,150.52369c-0.42669,-24.71275 15.04667,-46.22619 37.55555,-55.92666c0.6364,-0.27427 2.51369,-2.35469 2.51369,-2.35469l2.62022,4.39979c0,0 0.52322,2.837 1.67555,4.66789c0.53016,0.84235 3.61632,2.62962 3.61632,2.62962c0,0 1.42388,4.97105 3.19523,7.91486c1.06913,1.7768 5.01733,1.00435 5.01733,1.00435c0,0 -1.14445,4.07481 -0.34879,5.93515c0.48371,1.13095 4.30969,3.69054 4.30969,3.69054l3.03269,6.72615l1.79447,-6.65112c0,0 2.08915,-1.97815 4.40299,-6.69016c4.60286,-9.37346 11.53933,-24.82143 14.79955,-23.82829c25.33054,7.71628 43.81435,29.85052 44.27042,56.26465c0.4719,27.33133 -18.50431,50.74942 -44.93711,58.60213c-1.25954,0.37419 -5.33732,1.44051 -5.33732,1.44051c0,0 -1.05624,-2.3923 -2.55437,-3.57092c-0.74533,-0.58638 -4.67882,-0.66213 -4.67882,-0.66213c0,0 -0.64645,-2.63001 -1.1677,-3.15828c-0.66537,-0.67434 -3.27249,0.43211 -3.27249,0.43211c0,0 -2.25964,-0.12409 -2.66726,0.26329c-0.46608,0.44292 -0.18666,1.89145 -0.18666,1.89145c0,0 -3.44419,0.22393 -4.50462,1.0705c-0.62448,0.49853 -0.49517,3.00503 -0.49517,3.00503c0,0 -2.73234,-1.01332 -4.12328,-0.94742c-1.76744,0.08374 -3.30193,1.848 -4.61448,1.5702c-28.1847,-5.9654 -49.4263,-29.37862 -49.91562,-57.71855z" fill="#4cc114" stroke="#000000" stroke-width="0"/><path d="M256.35556,150.52369c-0.42669,-24.71275 15.04667,-46.22619 37.55555,-55.92666c0.6364,-0.27427 2.51369,-2.35469 2.51369,-2.35469l2.62022,4.39979c0,0 0.52322,2.837 1.67555,4.66789c0.53016,0.84235 3.61632,2.62962 3.61632,2.62962c0,0 1.42388,4.97105 3.19523,7.91486c1.06913,1.7768 5.01733,1.00435 5.01733,1.00435c0,0 -1.14445,4.07481 -0.34879,5.93515c0.48371,1.13095 4.30969,3.69054 4.30969,3.69054l3.03269,6.72615l1.79447,-6.65112c0,0 2.08915,-1.97815 4.40299,-6.69016c4.60286,-9.37346 11.53933,-24.82143 14.79955,-23.82829c25.33054,7.71628 43.81435,29.85052 44.27042,56.26465c0.09165,5.30822 -0.55028,10.46882 -1.83797,15.39645c-0.0138,0.0528 -125.04526,-0.81093 -125.07642,-0.94166c-0.93949,-3.94353 -1.46799,-8.03608 -1.54052,-12.23688z" fill="#70b012" stroke="#000000" stroke-width="0"/><path d="M256.35556,150.52369c-0.42669,-24.71275 15.04667,-46.22619 37.55555,-55.92666c0.6364,-0.27427 2.51369,-2.35469 2.51369,-2.35469l2.62022,4.39979c0,0 0.52322,2.837 1.67555,4.66789c0.53016,0.84235 3.61632,2.62962 3.61632,2.62962c0,0 1.42388,4.97105 3.19523,7.91486c1.06913,1.7768 5.01733,1.00435 5.01733,1.00435c0,0 -1.14445,4.07481 -0.34879,5.93515c0.48371,1.13095 4.30969,3.69054 4.30969,3.69054l3.03269,6.72615l1.79447,-6.65112c0,0 2.08915,-1.97815 4.40299,-6.69016c4.60286,-9.37346 11.53933,-24.82143 14.79955,-23.82829c25.33054,7.71628 43.81435,29.85052 44.27042,56.26465c0.00299,0.17317 -128.45021,2.48903 -128.45489,2.21791z" fill="#84930f" stroke="#000000" stroke-width="0"/><path d="M258.82577,132.89467c5.19253,-17.00835 18.14686,-30.9978 35.08534,-38.29764c0.6364,-0.27427 2.51369,-2.35469 2.51369,-2.35469l2.62022,4.39979c0,0 0.52322,2.837 1.67555,4.66789c0.53016,0.84235 3.61632,2.62962 3.61632,2.62962c0,0 1.42388,4.97105 3.19523,7.91486c1.06913,1.7768 5.01733,1.00435 5.01733,1.00435c0,0 -1.14445,4.07481 -0.34879,5.93515c0.48371,1.13095 4.30969,3.69054 4.30969,3.69054l3.03269,6.72615l1.79447,-6.65112c0,0 2.08915,-1.97815 4.40299,-6.69016c4.60286,-9.37346 11.53933,-24.82143 14.79955,-23.82829c19.43169,5.91935 34.83422,20.3234 41.16003,38.63543c0.13048,0.37771 -122.9723,2.5391 -122.87431,2.21811z" fill="#7a6c00" stroke="#000000" stroke-width="0"/><path d="M261.05429,135.89862c-0.00534,-0.30923 0.10208,-0.59418 0.28436,-0.8156c-0.07254,-0.00819 -0.14325,-0.02259 -0.21156,-0.04269c-0.25755,0.15793 -0.5594,0.25119 -0.88333,0.25679c-0.96636,0.01669 -1.76327,-0.75317 -1.77995,-1.71953c-0.01669,-0.96636 0.75317,-1.76327 1.71953,-1.77995c0.55047,-0.0095 1.04595,0.23621 1.37356,0.62808c0.30235,-0.49197 0.8416,-0.82404 1.46179,-0.83475c0.25112,-0.00434 0.49081,0.04444 0.70833,0.13599c0.30686,-0.29312 0.72052,-0.47609 1.17827,-0.48399c0.26057,-0.0045 0.50882,0.04819 0.73278,0.1465c0.28082,-0.20451 0.62516,-0.32766 0.99888,-0.33411c0.96636,-0.01669 1.76327,0.75317 1.77995,1.71953c0.01669,0.96636 -0.75317,1.76327 -1.71953,1.77995c-0.26057,0.0045 -0.50882,-0.04819 -0.73278,-0.1465c-0.28082,0.20451 -0.62516,0.32766 -0.99888,0.33411c-0.25112,0.00434 -0.49081,-0.04444 -0.70833,-0.13599c-0.26473,0.25289 -0.60895,0.42379 -0.99241,0.47101c0.17601,0.21124 0.28383,0.48169 0.28894,0.77801c0.01192,0.69026 -0.53798,1.25948 -1.22823,1.27139c-0.69026,0.01192 -1.25948,-0.53798 -1.27139,-1.22823z" fill="#7a6c00" stroke="none" stroke-width="0.5"/><path d="M275.65917,133.59613c0.01192,0.69026 -0.53798,1.25948 -1.22823,1.27139c-0.58028,0.01002 -1.07503,-0.37703 -1.22502,-0.91072c-0.06874,0.00943 -0.13877,0.01489 -0.20988,0.01612c-0.10226,0.00177 -0.20263,-0.00527 -0.30038,-0.02043c0.18382,0.21345 0.29692,0.48996 0.30217,0.79362c0.01192,0.69026 -0.53798,1.25948 -1.22823,1.27139c-0.69026,0.01192 -1.25948,-0.53798 -1.27139,-1.22823c-0.00327,-0.18967 0.03587,-0.3702 0.10869,-0.53255c-0.72579,-0.20307 -1.26374,-0.86318 -1.27742,-1.65532c-0.01669,-0.96636 0.75317,-1.76327 1.71953,-1.77995c0.25112,-0.00434 0.49081,0.04444 0.70833,0.13599c0.30686,-0.29312 0.72052,-0.47609 1.17827,-0.48399c0.96636,-0.01669 1.76327,0.75317 1.77995,1.71953c0.00123,0.0711 -0.0018,0.14128 -0.00886,0.21031c0.53855,0.13148 0.94245,0.61257 0.95246,1.19285z" fill="#7a6c00" stroke="none" stroke-width="0.5"/><path d="M277.20212,131.83459c-0.01669,-0.96636 0.75317,-1.76327 1.71953,-1.77995c0.96636,-0.01669 1.76327,0.75317 1.77995,1.71953c0.01669,0.96636 -0.75317,1.76327 -1.71953,1.77995c-0.96636,0.01669 -1.76327,-0.75317 -1.77995,-1.71953z" fill="#7a6c00" stroke="none" stroke-width="0.5"/><path d="M331.31038,132.47753c-0.01669,-0.96636 0.75317,-1.76327 1.71953,-1.77995c0.96636,-0.01669 1.76327,0.75317 1.77995,1.71953c0.01669,0.96636 -0.75317,1.76327 -1.71953,1.77995c-0.96636,0.01669 -1.76327,-0.75317 -1.77995,-1.71953z" fill="#7a6c00" stroke="none" stroke-width="0.5"/><path d="M326.47043,134.44215c-0.20132,0.00348 -0.39234,-0.04084 -0.56225,-0.12249c-0.02344,0.00133 -0.04701,0.00221 -0.07069,0.00262c-0.63517,0.01097 -1.19714,-0.31787 -1.51245,-0.81896c-0.29784,0.51168 -0.84811,0.85972 -1.48328,0.87069c-0.39041,0.00674 -0.75317,-0.11489 -1.04799,-0.32601c-0.30143,0.49628 -0.84311,0.83182 -1.46657,0.84258c-0.56285,0.00972 -1.06821,-0.24739 -1.39541,-0.65474c-0.24321,0.13546 -0.52235,0.2147 -0.82015,0.21984c-0.37264,0.00643 -0.72009,-0.10409 -1.00732,-0.29774c-0.13594,0.53213 -0.61398,0.92969 -1.18965,0.93963c-0.58073,0.01003 -1.07579,-0.37761 -1.22537,-0.91195c-0.30318,0.48797 -0.84016,0.81682 -1.45729,0.82747c-0.46336,0.008 -0.88777,-0.16484 -1.20588,-0.45347c-0.02111,0.00112 -0.04233,0.00187 -0.06365,0.00224c-0.96636,0.01669 -1.76327,-0.75317 -1.77995,-1.71953c-0.01669,-0.96636 0.75317,-1.76327 1.71953,-1.77995c0.46336,-0.008 0.88777,0.16484 1.20588,0.45347c0.02111,-0.00112 0.04233,-0.00187 0.06365,-0.00224c0.90154,-0.01557 1.6556,0.65344 1.76625,1.5279c0.22457,-0.26586 0.55838,-0.43709 0.93368,-0.44357c0.16192,-0.0028 0.31717,0.02532 0.46013,0.07892c0.01504,-0.93945 0.77305,-1.70431 1.71956,-1.72065c0.56285,-0.00972 1.06821,0.24739 1.39541,0.65474c0.24321,-0.13546 0.52235,-0.2147 0.82015,-0.21984c0.39041,-0.00674 0.75317,0.11489 1.04799,0.32601c0.30143,-0.49628 0.84311,-0.83182 1.46657,-0.84258c0.63517,-0.01097 1.19714,0.31787 1.51245,0.81896c0.29784,-0.51168 0.84811,-0.85972 1.48328,-0.87069c0.8874,-0.01532 1.6319,0.63262 1.76057,1.48692c0.09909,-0.85823 0.82079,-1.53149 1.70819,-1.54681c0.96636,-0.01669 1.76327,0.75317 1.77995,1.71953c0.01669,0.96636 -0.75317,1.76327 -1.71953,1.77995c-0.70688,0.01221 -1.3231,-0.39646 -1.60959,-0.99504c-0.03814,0.64599 -0.56846,1.16345 -1.22623,1.1748z" fill="#7a6c00" stroke="none" stroke-width="0.5"/><path d="M259.25098,151.5438c0.01192,0.69026 -0.53798,1.25948 -1.22823,1.27139c-0.5905,0.0102 -1.09243,-0.39078 -1.23262,-0.93904c-0.42566,-0.31234 -0.7056,-0.81292 -0.71542,-1.38154c-0.01669,-0.96636 0.75317,-1.76327 1.71953,-1.77995c0.66949,-0.01156 1.25765,0.35439 1.56138,0.90166c0.30647,-0.47043 0.83345,-0.7853 1.43709,-0.79572c0.96636,-0.01669 1.76327,0.75317 1.77995,1.71953c0.01669,0.96636 -0.75317,1.76327 -1.71953,1.77995c-0.66949,0.01156 -1.25765,-0.35439 -1.56138,-0.90166c-0.01399,0.02147 -0.02844,0.04263 -0.04333,0.06344c0.00135,0.02051 0.00222,0.04116 0.00258,0.06193z" fill="#84930f" stroke="none" stroke-width="0.5"/><path d="M269.16877,149.80694c0.69026,-0.01192 1.25948,0.53798 1.27139,1.22823c0.01192,0.69026 -0.53798,1.25948 -1.22823,1.27139c-0.35924,0.0062 -0.6857,-0.13977 -0.91787,-0.3785c-0.3015,0.26781 -0.69655,0.4333 -1.13139,0.44081c-0.96636,0.01669 -1.76327,-0.75317 -1.77995,-1.71953c-0.01669,-0.96636 0.75317,-1.76327 1.71953,-1.77995c0.71911,-0.01242 1.3444,0.41073 1.62416,1.02628c0.13699,-0.05477 0.28608,-0.08603 0.44236,-0.08873z" fill="#84930f" stroke="none" stroke-width="0.5"/><path d="M317.14194,150.70198c-0.00158,-0.09139 0.00669,-0.18066 0.02384,-0.26679c-0.14011,-0.24638 -0.22224,-0.53036 -0.22748,-0.83372c-0.01669,-0.96636 0.75317,-1.76327 1.71953,-1.77995c0.96636,-0.01669 1.76327,0.75317 1.77995,1.71953c0.01127,0.65275 -0.33634,1.22819 -0.86097,1.53807c-0.16391,0.48712 -0.62022,0.84171 -1.16348,0.85109c-0.69026,0.01192 -1.25948,-0.53798 -1.27139,-1.22823z" fill="#84930f" stroke="none" stroke-width="0.5"/><path d="M321.04318,149.84602c-0.01669,-0.96636 0.75317,-1.76327 1.71953,-1.77995c0.96636,-0.01669 1.76327,0.75317 1.77995,1.71953c0.01669,0.96636 -0.75317,1.76327 -1.71953,1.77995c-0.96636,0.01669 -1.76327,-0.75317 -1.77995,-1.71953z" fill="#84930f" stroke="none" stroke-width="0.5"/><path d="M260.68744,160.99361c0.69026,-0.01192 1.25948,0.53798 1.27139,1.22823c0.00951,0.55081 -0.33872,1.02454 -0.83056,1.19953c-0.2198,0.69875 -0.86685,1.21091 -1.63953,1.22425c-0.96636,0.01669 -1.76327,-0.75317 -1.77995,-1.71953c-0.01669,-0.96636 0.75317,-1.76327 1.71953,-1.77995c0.19327,-0.00334 0.37975,0.02479 0.55459,0.07965c0.19892,-0.14221 0.44154,-0.22765 0.70453,-0.23219z" fill="#70b012" stroke="none" stroke-width="0.5"/><path d="M270.05494,164.59399c-0.20132,0.00348 -0.39234,-0.04084 -0.56225,-0.12249c-0.02344,0.00133 -0.04701,0.00221 -0.07069,0.00262c-0.5915,0.01021 -1.11952,-0.27426 -1.44398,-0.71811c-0.26729,0.17556 -0.58586,0.28001 -0.92924,0.28593c-0.96636,0.01669 -1.76327,-0.75317 -1.77995,-1.71953c-0.01669,-0.96636 0.75317,-1.76327 1.71953,-1.77995c0.5915,-0.01021 1.11952,0.27426 1.44398,0.71811c0.26729,-0.17556 0.58586,-0.28001 0.92924,-0.28593c0.25258,-0.00436 0.49358,0.04502 0.7121,0.13758c0.21519,-0.10006 0.45435,-0.15772 0.70693,-0.16208c0.96636,-0.01669 1.76327,0.75317 1.77995,1.71953c0.01669,0.96636 -0.75317,1.76327 -1.71953,1.77995c-0.07019,0.00121 -0.13948,-0.00172 -0.20765,-0.00859c-0.17198,0.09427 -0.36874,0.14934 -0.57845,0.15296z" fill="#70b012" stroke="none" stroke-width="0.5"/><path d="M315.74173,161.62023c0.20132,-0.00348 0.39234,0.04084 0.56225,0.12249c0.02344,-0.00133 0.04701,-0.00221 0.07069,-0.00262c0.26057,-0.0045 0.50882,0.04819 0.73278,0.1465c0.28082,-0.20451 0.62516,-0.32766 0.99888,-0.33411c0.96636,-0.01669 1.76327,0.75317 1.77995,1.71953c0.01669,0.96636 -0.75317,1.76327 -1.71953,1.77995c-0.26057,0.0045 -0.50882,-0.04819 -0.73278,-0.1465c-0.28082,0.20451 -0.62516,0.32766 -0.99888,0.33411c-0.41342,0.00714 -0.79583,-0.12968 -1.09939,-0.36425c-0.15293,0.04679 -0.31487,0.07324 -0.48276,0.07614c-0.96636,0.01669 -1.76327,-0.75317 -1.77995,-1.71953c-0.01669,-0.96636 0.75317,-1.76327 1.71953,-1.77995c0.28816,-0.00498 0.56125,0.05999 0.80308,0.17924c0.04789,-0.00642 0.09665,-0.01014 0.14613,-0.01099z" fill="#70b012" stroke="none" stroke-width="0.5"/><path d="M327.09899,161.71265c0.96636,-0.01669 1.76327,0.75317 1.77995,1.71953c0.01669,0.96636 -0.75317,1.76327 -1.71953,1.77995c-0.4323,0.00746 -0.83068,-0.14248 -1.14048,-0.397c-0.2637,0.16879 -0.57594,0.26891 -0.91195,0.27471c-0.96636,0.01669 -1.76327,-0.75317 -1.77995,-1.71953c-0.01669,-0.96636 0.75317,-1.76327 1.71953,-1.77995c0.4323,-0.00746 0.83068,0.14248 1.14048,0.397c0.2637,-0.16879 0.57594,-0.26891 0.91195,-0.27471z" fill="#70b012" stroke="none" stroke-width="0.5"/><path d="M265.96658,137.23326c-0.01192,-0.69026 0.53798,-1.25948 1.22823,-1.27139c0.69026,-0.01192 1.25948,0.53798 1.27139,1.22823c0.01192,0.69026 -0.53798,1.25948 -1.22823,1.27139c-0.69026,0.01192 -1.25948,-0.53798 -1.27139,-1.22823z" fill="#7a6c00" stroke="none" stroke-width="0.5"/><path d="M318.17463,137.43586c-0.01192,-0.69026 0.53798,-1.25948 1.22823,-1.27139c0.69026,-0.01192 1.25948,0.53798 1.27139,1.22823c0.01192,0.69026 -0.53798,1.25948 -1.22823,1.27139c-0.69026,0.01192 -1.25948,-0.53798 -1.27139,-1.22823z" fill="#7a6c00" stroke="none" stroke-width="0.5"/><path d="M321.95601,137.21285c-0.01192,-0.69026 0.53798,-1.25948 1.22823,-1.27139c0.69026,-0.01192 1.25948,0.53798 1.27139,1.22823c0.01192,0.69026 -0.53798,1.25948 -1.22823,1.27139c-0.69026,0.01192 -1.25948,-0.53798 -1.27139,-1.22823z" fill="#7a6c00" stroke="none" stroke-width="0.5"/><path d="M258.83919,153.75896c-0.01192,-0.69026 0.53798,-1.25948 1.22823,-1.27139c0.69026,-0.01192 1.25948,0.53798 1.27139,1.22823c0.01192,0.69026 -0.53798,1.25948 -1.22823,1.27139c-0.69026,0.01192 -1.25948,-0.53798 -1.27139,-1.22823z" fill="#84930f" stroke="none" stroke-width="0.5"/><path d="M261.5332,154.50103c-0.01192,-0.69026 0.53798,-1.25948 1.22823,-1.27139c0.69026,-0.01192 1.25948,0.53798 1.27139,1.22823c0.01192,0.69026 -0.53798,1.25948 -1.22823,1.27139c-0.69026,0.01192 -1.25948,-0.53798 -1.27139,-1.22823z" fill="#84930f" stroke="none" stroke-width="0.5"/><path d="M319.2325,153.03165c-0.01192,-0.69026 0.53798,-1.25948 1.22823,-1.27139c0.69026,-0.01192 1.25948,0.53798 1.27139,1.22823c0.01192,0.69026 -0.53798,1.25948 -1.22823,1.27139c-0.69026,0.01192 -1.25948,-0.53798 -1.27139,-1.22823z" fill="#84930f" stroke="none" stroke-width="0.5"/><path d="M264.73585,166.43228c-0.01192,-0.69026 0.53798,-1.25948 1.22823,-1.27139c0.69026,-0.01192 1.25948,0.53798 1.27139,1.22823c0.01192,0.69026 -0.53798,1.25948 -1.22823,1.27139c-0.69026,0.01192 -1.25948,-0.53798 -1.27139,-1.22823z" fill="#70b012" stroke="none" stroke-width="0.5"/><path d="M323.05174,164.80608c0.69026,-0.01192 1.25948,0.53798 1.27139,1.22823c0.01192,0.69026 -0.53798,1.25948 -1.22823,1.27139c-0.21776,0.00376 -0.42348,-0.0484 -0.60345,-0.14323c-0.22411,0.28983 -0.573,0.47898 -0.96782,0.4858c-0.69026,0.01192 -1.25948,-0.53798 -1.27139,-1.22823c-0.01192,-0.69026 0.53798,-1.25948 1.22823,-1.27139c0.21776,-0.00376 0.42348,0.0484 0.60345,0.14323c0.22411,-0.28983 0.573,-0.47898 0.96782,-0.4858z" fill="#70b012" stroke="none" stroke-width="0.5"/><path d="M258.80871,141.29979c-0.00715,-0.41415 0.32279,-0.75569 0.73694,-0.76284c0.41415,-0.00715 0.75569,0.32279 0.76284,0.73694c0.00715,0.41415 -0.32279,0.75569 -0.73694,0.76284c-0.41415,0.00715 -0.75569,-0.32279 -0.76284,-0.73694z" fill="#7a6c00" stroke="none" stroke-width="0.5"/><path d="M265.77616,142.91439c-0.00715,-0.41415 0.32279,-0.75569 0.73694,-0.76284c0.41415,-0.00715 0.75569,0.32279 0.76284,0.73694c0.00715,0.41415 -0.32279,0.75569 -0.73694,0.76284c-0.41415,0.00715 -0.75569,-0.32279 -0.76284,-0.73694z" fill="#7a6c00" stroke="none" stroke-width="0.5"/><path d="M317.80475,141.85834c-0.00715,-0.41415 0.32279,-0.75569 0.73694,-0.76284c0.41415,-0.00715 0.75569,0.32279 0.76284,0.73694c0.00715,0.41415 -0.32279,0.75569 -0.73694,0.76284c-0.41415,0.00715 -0.75569,-0.32279 -0.76284,-0.73694z" fill="#7a6c00" stroke="none" stroke-width="0.5"/><path d="M320.6755,143.70138c-0.00715,-0.41415 0.32279,-0.75569 0.73694,-0.76284c0.41415,-0.00715 0.75569,0.32279 0.76284,0.73694c0.00715,0.41415 -0.32279,0.75569 -0.73694,0.76284c-0.41415,0.00715 -0.75569,-0.32279 -0.76284,-0.73694z" fill="#7a6c00" stroke="none" stroke-width="0.5"/><path d="M262.41108,158.11339c-0.00715,-0.41415 0.32279,-0.75569 0.73694,-0.76284c0.41415,-0.00715 0.75569,0.32279 0.76284,0.73694c0.00715,0.41415 -0.32279,0.75569 -0.73694,0.76284c-0.41415,0.00715 -0.75569,-0.32279 -0.76284,-0.73694z" fill="#84930f" stroke="none" stroke-width="0.5"/><path d="M266.31474,155.83794c-0.00715,-0.41415 0.32279,-0.75569 0.73694,-0.76284c0.41415,-0.00715 0.75569,0.32279 0.76284,0.73694c0.00715,0.41415 -0.32279,0.75569 -0.73694,0.76284c-0.41415,0.00715 -0.75569,-0.32279 -0.76284,-0.73694z" fill="#84930f" stroke="none" stroke-width="0.5"/><path d="M319.50692,158.23158c-0.00715,-0.41415 0.32279,-0.75569 0.73694,-0.76284c0.41415,-0.00715 0.75569,0.32279 0.76284,0.73694c0.00715,0.41415 -0.32279,0.75569 -0.73694,0.76284c-0.41415,0.00715 -0.75569,-0.32279 -0.76284,-0.73694z" fill="#84930f" stroke="none" stroke-width="0.5"/><path d="M324.41376,159.25089c-0.00715,-0.41415 0.32279,-0.75569 0.73694,-0.76284c0.41415,-0.00715 0.75569,0.32279 0.76284,0.73694c0.00715,0.41415 -0.32279,0.75569 -0.73694,0.76284c-0.41415,0.00715 -0.75569,-0.32279 -0.76284,-0.73694z" fill="#84930f" stroke="none" stroke-width="0.5"/><path d="M262.59892,168.99265c-0.00715,-0.41415 0.32279,-0.75569 0.73694,-0.76284c0.41415,-0.00715 0.75569,0.32279 0.76284,0.73694c0.00715,0.41415 -0.32279,0.75569 -0.73694,0.76284c-0.41415,0.00715 -0.75569,-0.32279 -0.76284,-0.73694z" fill="#70b012" stroke="none" stroke-width="0.5"/><path d="M268.4518,169.99562c-0.00715,-0.41415 0.32279,-0.75569 0.73694,-0.76284c0.41415,-0.00715 0.75569,0.32279 0.76284,0.73694c0.00715,0.41415 -0.32279,0.75569 -0.73694,0.76284c-0.41415,0.00715 -0.75569,-0.32279 -0.76284,-0.73694z" fill="#70b012" stroke="none" stroke-width="0.5"/><path d="M314.9837,170.29623c-0.00715,-0.41415 0.32279,-0.75569 0.73694,-0.76284c0.41415,-0.00715 0.75569,0.32279 0.76284,0.73694c0.00715,0.41415 -0.32279,0.75569 -0.73694,0.76284c-0.41415,0.00715 -0.75569,-0.32279 -0.76284,-0.73694z" fill="#70b012" stroke="none" stroke-width="0.5"/><path d="M323.56597,174.09099c-0.00715,-0.41415 0.32279,-0.75569 0.73694,-0.76284c0.41415,-0.00715 0.75569,0.32279 0.76284,0.73694c0.00715,0.41415 -0.32279,0.75569 -0.73694,0.76284c-0.41415,0.00715 -0.75569,-0.32279 -0.76284,-0.73694z" fill="#70b012" stroke="none" stroke-width="0.5"/><path d="M327.90453,169.59999c-0.00715,-0.41415 0.32279,-0.75569 0.73694,-0.76284c0.41415,-0.00715 0.75569,0.32279 0.76284,0.73694c0.00715,0.41415 -0.32279,0.75569 -0.73694,0.76284c-0.41415,0.00715 -0.75569,-0.32279 -0.76284,-0.73694z" fill="#70b012" stroke="none" stroke-width="0.5"/></g><path d="M269.04622,150.39299c-0.22387,-12.96608 10.65113,-24.60428 23.61721,-24.82815c12.96608,-0.22387 24.43971,11.96468 24.66359,24.93076c0.22387,12.96608 -9.18269,22.89373 -22.14877,23.1176c-12.96608,0.22387 -25.90815,-10.25413 -26.13203,-23.22021z" fill="#000000" stroke="#000000" stroke-width="0" stroke-linecap="butt"/><path d="M347.18234,172.71532c-12.96608,0.22387 -22.92604,-11.05461 -23.14991,-24.02068c-0.22387,-12.96608 11.08692,-21.05415 24.05299,-21.27802c12.96608,-0.22387 23.62309,8.04663 23.84697,21.01271c0.22387,12.96608 -11.78397,24.06211 -24.75005,24.28598z" fill="#000000" stroke="#000000" stroke-width="0" stroke-linecap="butt"/><path d="M336.96513,192.61304c0,0 -10.4688,1.84767 -15.4686,1.89233c-5.00014,0.04466 -14.53125,-1.62439 -14.53125,-1.62439" fill="none" stroke="#000000" stroke-width="0" stroke-linecap="round"/></g><path d="" fill="none" stroke="#000000" stroke-width="2" stroke-linecap="round"/><g stroke-linecap="butt"><path d="M292.37867,175.50228c-0.05986,0.1416 -0.11896,0.28299 -0.17724,0.42416c-0.28189,0.68287 -0.50649,1.36513 -0.73491,2.02655c-0.43114,3.19856 -0.91677,6.64918 -0.50346,9.74217c0,0 0.09687,0.74372 -0.64685,0.84059c-0.74372,0.09687 -0.84059,-0.64685 -0.84059,-0.64685c-0.11053,-0.86843 -0.18218,-1.75039 -0.22123,-2.64313c-0.00542,-0.00025 -0.01084,-0.00056 -0.01627,-0.00094c-0.41326,-0.02809 -0.7255,-0.38588 -0.69741,-0.79914l0.06248,-0.91924c0.03102,-0.45634 0.05385,-0.89558 0.09232,-1.32816c-0.00273,-0.01803 -0.00536,-0.03612 -0.0079,-0.05427c-0.25705,-0.13321 -0.42433,-0.40982 -0.40344,-0.7171l0.07773,-1.1435c0.43228,-6.35909 0.63451,-12.73051 1.06681,-19.08991c0.09686,-1.4248 -0.16092,-3.79451 0.43697,-5.29894c-0.01616,-0.1266 -0.03199,-0.25326 -0.04748,-0.37995l0.02916,-0.07004l-0.02773,-0.00188l0.09373,-1.37886c0.02809,-0.41326 0.38588,-0.7255 0.79914,-0.69741c0.41326,0.02809 0.7255,0.38588 0.69741,0.79914l-0.00839,0.12333l0.16628,-0.51154c0.0986,-0.32756 0.41324,-0.55557 0.76899,-0.53139c0.13388,0.0091 0.25716,0.0528 0.36169,0.12178l0.06493,-0.20074c0.09826,-0.32808 0.41318,-0.55658 0.76929,-0.53237c0.41326,0.02809 0.7255,0.38588 0.69741,0.79914l-0.10173,1.49655l-0.28558,-0.01941c-0.00461,0.91895 -0.10942,1.84128 -0.26778,2.76481c0.06028,0.41748 0.11024,0.83806 0.15251,1.26043l0.06179,0.19116l-0.0419,0.01355c0.01521,0.16135 0.02936,0.32292 0.0426,0.48466c0.74366,1.77941 1.13764,3.78644 1.31542,5.88167c0.12463,-0.64762 0.25912,-1.29547 0.40471,-1.94382c0.11574,-0.51547 0.21926,-1.01027 0.32302,-1.48768c0.00487,-0.07165 0.00974,-0.14329 0.01461,-0.21495c0.16895,-2.48547 0.11887,-4.83808 0.79102,-7.09733l-0.2729,-0.06123l0.3258,-1.45225c0.07472,-0.36141 0.40671,-0.6212 0.78522,-0.59547c0.40298,0.0274 0.7099,0.36828 0.69888,0.76842l-0.03181,1.49546c-0.00925,0.43499 -0.02049,0.86996 -0.03353,1.30496c0.08193,-0.02372 0.16934,-0.03375 0.25938,-0.02763c0.41326,0.02809 0.7255,0.38588 0.69741,0.79914l-0.09373,1.37886l-0.00796,-0.00054l0.00558,0.02815c-0.23135,1.60291 -0.65633,3.19938 -1.19893,4.7846c-0.26913,4.23767 -0.62529,8.47335 -0.91281,12.70305c-0.16727,2.46071 0.07833,5.22031 -0.80177,7.48672l-0.00099,0.08642l0.25751,0.08655l-0.30023,0.89327c-0.10091,0.32387 -0.41363,0.54854 -0.76689,0.52453c-0.4008,-0.02724 -0.70657,-0.36459 -0.69903,-0.76189l0.00827,-0.71988c-0.14858,0.15766 -0.36396,0.25001 -0.59696,0.23417c-0.36782,-0.02501 -0.6556,-0.31118 -0.69464,-0.66518l-0.14991,-1.1509l0.19719,-0.02569c-0.55822,-1.90748 -0.63035,-3.87344 -0.88209,-5.94138c-0.01759,-0.14449 -0.03465,-0.28894 -0.05118,-0.43338z" fill="#43663c" stroke="none" stroke-width="0.5"/><g stroke="#000000" stroke-width="0"><path d="M264.83289,196.24585c-0.75013,-12.94629 9.13683,-24.04942 22.08312,-24.79956c12.94629,-0.75013 24.04942,9.13682 24.79956,22.08311c0.75013,12.94629 -9.13682,24.04943 -22.08311,24.79957c-12.94629,0.75013 -24.04943,-9.13683 -24.79957,-22.08312z" fill="url(#color-1)"/><path d="M271.15824,204.51583c-0.3182,-5.49173 3.87577,-10.20161 9.36751,-10.51981c5.49173,-0.3182 10.20161,3.87577 10.51981,9.36752c0.3182,5.49173 -3.87577,10.20162 -9.36751,10.51982c-5.49173,0.3182 -10.20161,-3.87577 -10.51981,-9.36752z" fill="#000000"/></g><path d="M291.00998,154.79012c-0.00937,0.13775 -0.12863,0.24184 -0.26638,0.23247c-0.03943,-0.00268 -0.07612,-0.01437 -0.10816,-0.03292c-0.13175,0.0861 -0.29159,0.13161 -0.4607,0.12011c-0.31916,-0.0217 -0.57806,-0.24003 -0.66649,-0.5287c-0.33475,-0.03613 -0.66777,-0.07132 -0.99867,-0.10489c0.11924,0.14307 0.18569,0.33049 0.17206,0.53096c-0.02809,0.41326 -0.38588,0.7255 -0.79914,0.69741c-0.41326,-0.02809 -0.7255,-0.38588 -0.69741,-0.79914c0.01465,-0.21549 0.11893,-0.4035 0.27398,-0.53013c-0.41309,-0.0371 -0.82214,-0.07037 -1.22638,-0.09833l-0.04866,-0.0276l-0.00391,0.01831l-1.27947,-0.27306c-0.36509,-0.07183 -0.62845,-0.40567 -0.60256,-0.78666c0.02701,-0.39742 0.35893,-0.70142 0.75189,-0.69916l1.4938,-0.00513l0.0006,0.17523c1.51973,-0.23555 3.08977,-0.29208 4.66949,-0.27126c-0.01817,-0.01407 -0.03604,-0.02924 -0.05336,-0.04561c-0.20284,-0.01379 -0.40568,-0.02758 -0.60854,-0.04137c-1.87765,-0.12764 -3.75528,-0.25527 -5.63293,-0.38291l-1.27816,-0.08688c-0.41326,-0.02809 -0.7255,-0.38588 -0.69741,-0.79914c0.02591,-0.3811 0.33219,-0.6763 0.7038,-0.69789l1.3092,-0.09709l0.01343,0.18101c0.04738,0.00322 0.14564,0.0099 0.19302,0.01312c1.39427,-0.23974 2.72558,-0.15783 4.38664,-0.06898l0.55843,0.02992c0,0 0.47934,0.02567 0.65051,0.41944c3.07591,0.2091 6.15182,0.41818 9.22773,0.62728c1.4299,0.0972 3.44036,-0.12858 4.93763,0.33564c0.08724,0.00593 0.60806,0.04134 0.69529,0.04726l1.49655,0.10173c0.41326,0.02809 0.7255,0.38588 0.69741,0.79914c-0.02809,0.41326 -0.38588,0.7255 -0.79914,0.69741c-0.70554,-0.04796 -2.90764,-0.19766 -3.61318,-0.24561c-1.23765,-0.02498 -2.48028,-0.13924 -3.74826,-0.24387c0.12493,0.13293 0.20135,0.31085 0.20356,0.50433c0.6215,0.07782 1.21001,0.14322 1.74937,0.18079l0.05553,0.0359l0.00572,-0.02395l1.08693,0.25948c0.35657,0.07845 0.61169,0.40797 0.58618,0.78325c-0.02809,0.41326 -0.38588,0.7255 -0.79914,0.69741l-1.49655,-0.10173l0.01059,-0.15566c-1.40532,0.14909 -2.85814,0.1652 -4.32813,0.1053c0.11221,0.14122 0.17411,0.32313 0.16092,0.51727c-0.02809,0.41326 -0.38588,0.7255 -0.79914,0.69741c-0.41326,-0.02809 -0.7255,-0.38588 -0.69741,-0.79914c0.01265,-0.18605 0.09212,-0.35163 0.21339,-0.4749c-1.53286,-0.09839 -3.07593,-0.26306 -4.59529,-0.43026c0.00158,0.01449 0.00191,0.02933 0.00089,0.0444z" fill="#000000" stroke="none" stroke-width="0.5"/><path d="M290.49647,155.88112c0.02809,-0.41326 0.38588,-0.7255 0.79914,-0.69741c0.41326,0.02809 0.7255,0.38588 0.69741,0.79914c-0.02809,0.41326 -0.38588,0.7255 -0.79914,0.69741c-0.41326,-0.02809 -0.7255,-0.38588 -0.69741,-0.79914z" fill="#000000" stroke="none" stroke-width="0.5"/><path d="M298.63886,157.5605c0.02809,-0.41326 0.38588,-0.7255 0.79914,-0.69741c0.41326,0.02809 0.7255,0.38588 0.69741,0.79914c-0.02809,0.41326 -0.38588,0.7255 -0.79914,0.69741c-0.41326,-0.02809 -0.7255,-0.38588 -0.69741,-0.79914z" fill="#000000" stroke="none" stroke-width="0.5"/><path d="M295.97307,158.12989c0.02809,-0.41326 0.38588,-0.7255 0.79914,-0.69741c0.41326,0.02809 0.7255,0.38588 0.69741,0.79914c-0.02809,0.41326 -0.38588,0.7255 -0.79914,0.69741c-0.41326,-0.02809 -0.7255,-0.38588 -0.69741,-0.79914z" fill="#000000" stroke="none" stroke-width="0.5"/><path d="M284.62624,159.42271c0.02809,-0.41326 0.38588,-0.7255 0.79914,-0.69741c0.41326,0.02809 0.7255,0.38588 0.69741,0.79914c-0.02809,0.41326 -0.38588,0.7255 -0.79914,0.69741c-0.41326,-0.02809 -0.7255,-0.38588 -0.69741,-0.79914z" fill="#000000" stroke="none" stroke-width="0.5"/><path d="M292.42046,160.70313c0.02809,-0.41326 0.38588,-0.7255 0.79914,-0.69741c0.41326,0.02809 0.7255,0.38588 0.69741,0.79914c-0.02809,0.41326 -0.38588,0.7255 -0.79914,0.69741c-0.41326,-0.02809 -0.7255,-0.38588 -0.69741,-0.79914z" fill="#000000" stroke="none" stroke-width="0.5"/><path d="M292.35361,155.25676c0.00937,-0.13775 0.12863,-0.24184 0.26638,-0.23247c0.13775,0.00937 0.24184,0.12863 0.23247,0.26638c-0.00937,0.13775 -0.12863,0.24184 -0.26638,0.23247c-0.13775,-0.00937 -0.24184,-0.12863 -0.23247,-0.26638z" fill="#000000" stroke="none" stroke-width="0.5"/><path d="M295.98775,157.00499c0.00937,-0.13775 0.12863,-0.24184 0.26638,-0.23247c0.13775,0.00937 0.24184,0.12863 0.23247,0.26638c-0.00937,0.13775 -0.12863,0.24184 -0.26638,0.23247c-0.13775,-0.00937 -0.24184,-0.12863 -0.23247,-0.26638z" fill="#000000" stroke="none" stroke-width="0.5"/><path d="M289.12377,158.60253c0.00937,-0.13775 0.12863,-0.24184 0.26638,-0.23247c0.13775,0.00937 0.24184,0.12863 0.23247,0.26638c-0.00937,0.13775 -0.12863,0.24184 -0.26638,0.23247c-0.13775,-0.00937 -0.24184,-0.12863 -0.23247,-0.26638z" fill="#000000" stroke="none" stroke-width="0.5"/><path d="M290.64346,158.33054c0.00937,-0.13775 0.12863,-0.24184 0.26638,-0.23247c0.13775,0.00937 0.24184,0.12863 0.23247,0.26638c-0.00937,0.13775 -0.12863,0.24184 -0.26638,0.23247c-0.13775,-0.00937 -0.24184,-0.12863 -0.23247,-0.26638z" fill="#000000" stroke="none" stroke-width="0.5"/></g><g><path d="M365.89512,164.31147l1.78658,6.64234l-6.82413,-2.73747z" fill="#000000" stroke="#000000" stroke-width="0" stroke-linecap="round"/><path d="M344.98658,157.45674c0.17207,0.01215 0.30177,0.06107 0.39949,0.12923c-0.03581,-3.98952 0.35465,-8.14856 1.2987,-11.83158c0.08278,-0.48294 0.16555,-0.96588 0.24833,-1.44881l0.13659,-0.79496c0.0605,-0.3798 0.40253,-0.6569 0.7934,-0.6293c0.34767,0.02455 0.6232,0.28234 0.68446,0.60963l0.30605,1.4515l-0.26146,0.05513c0.59906,2.24886 0.56224,4.61652 0.70142,7.03201c0.19755,3.42873 0.0871,6.92341 0.01874,10.40515c0.04818,0.30102 0.09601,0.60006 0.14312,0.89684c0.18324,-1.34689 0.34556,-2.69612 0.49196,-4.04713c-0.10768,-2.00998 -0.18018,-4.02639 -0.26186,-6.06318l-0.11587,-1.47133c-0.0039,-0.04089 -0.00449,-0.08264 -0.0015,-0.12497c0.02918,-0.41318 0.38778,-0.72449 0.80096,-0.69531c0.08697,0.00614 0.16941,0.02687 0.24512,0.05963c0.00024,-1.18573 0.00617,-2.48846 0.33041,-3.53361c0.01682,-0.23737 0.0336,-0.47474 0.05037,-0.71212h-0.00001l0.10565,-1.49628c0.02918,-0.41318 0.38778,-0.72449 0.80096,-0.69531c0.41318,0.02918 0.72449,0.38778 0.69531,0.80096l-0.05721,0.8102c-0.00164,0.02323 -0.00328,0.04643 -0.00491,0.06966c0.05581,-0.00895 0.11351,-0.01171 0.17232,-0.00756c0.29866,0.02109 0.54409,0.21429 0.64618,0.47582l0.38842,0.93652l-0.02693,0.01117l0.0536,0.06426c1.1307,6.10202 1.56408,12.19842 2.0376,18.36891c0.22294,2.90511 0.83959,5.71418 0.45477,8.50671l0.27421,0.01936l-0.10565,1.49628c-0.02918,0.41318 -0.38778,0.72449 -0.80096,0.69531c-0.35605,-0.02514 -0.63643,-0.29489 -0.6885,-0.63339l-0.1584,-0.89859c-1.0102,-3.92942 -1.87317,-7.90206 -2.70845,-11.87683c-0.04738,0.59595 -0.0941,1.19195 -0.14038,1.788c0.07501,0.71776 0.15812,1.4375 0.25078,2.16019c0.25754,2.00871 0.84174,3.54567 0.70948,5.2828l0.31704,0.02238l-0.08113,1.14885c-0.02918,0.41318 -0.38778,0.72449 -0.80096,0.69531c-0.32113,-0.02267 -0.58072,-0.24434 -0.66675,-0.53597l-0.22719,-0.70922l0.06417,0.50298c0.00782,0.05293 0.01005,0.10753 0.00613,0.1631c-0.02918,0.41318 -0.38778,0.72449 -0.80096,0.69531c-0.35605,-0.02514 -0.63643,-0.29489 -0.6885,-0.63339l-0.16215,-0.91984l0.04213,-0.00744l-0.05252,-0.0838c0.0111,-0.17268 0.02229,-0.34534 0.03357,-0.51799c-0.06989,-0.10764 -0.13452,-0.22443 -0.19443,-0.34883c-0.03625,0.16882 -0.07515,0.33713 -0.11719,0.50489l0.00187,0.01966l0.18116,0.01279l-0.08113,1.14885c-0.02918,0.41318 -0.38778,0.72449 -0.80096,0.69531c-0.37551,-0.02651 -0.66688,-0.32513 -0.69498,-0.68953l-0.13125,-1.38256c-0.29269,-3.14133 -0.27599,-6.34969 -0.21827,-9.56992c-0.27317,-1.51562 -0.52764,-3.06525 -0.74082,-4.62117c-0.03921,0.61626 -0.07708,1.23296 -0.11389,1.84991c0.02607,0.47531 0.05831,0.94596 0.09651,1.41069c0.27599,3.35859 0.95489,6.22528 0.71421,9.63381c0,0 -0.05283,0.74814 -0.80096,0.69531c-0.38762,-0.02737 -0.56024,-0.2414 -0.63658,-0.44131c-0.06849,1.18798 -0.14004,2.37328 -0.21689,3.55473l-0.08113,1.14885c-0.02918,0.41318 -0.38778,0.72449 -0.80096,0.69531c-0.41318,-0.02918 -0.72449,-0.38778 -0.69531,-0.80096l0.08113,-1.14885c0.01133,-0.14646 0.02252,-0.29299 0.03353,-0.4396c-0.34689,-0.99952 -0.13562,-2.45421 -0.24592,-3.46044c-0.39503,-3.60375 -0.58493,-7.64724 -0.3331,-11.26617l0.10526,-1.49072c0,0 0.05283,-0.74814 0.80096,-0.69531zM352.51865,158.08207c0.14479,0.74452 0.28365,1.49407 0.43439,2.24465c0.4995,2.48722 1.02359,4.97754 1.58058,7.46012c-0.00255,-0.01916 -0.00517,-0.03824 -0.00785,-0.05724c-0.67839,-4.79518 -0.9215,-9.61742 -1.46355,-14.42538c-0.11328,0.73705 -0.22878,1.43203 -0.28623,2.02137c-0.08955,0.91878 -0.17504,1.83759 -0.25733,2.75648z" fill="#43663c" stroke="none" stroke-width="0.5" stroke-linecap="butt"/><g stroke="#000000" stroke-width="0" stroke-linecap="butt"><path d="M344.74956,199.90997c-11.92956,-5.08477 -17.47833,-18.87762 -12.39355,-30.80718c5.08477,-11.92956 18.87761,-17.47833 30.80717,-12.39356c11.92956,5.08477 17.47834,18.87761 12.39357,30.80717c-5.08477,11.92956 -18.87762,17.47834 -30.80718,12.39356z" fill="url(#color-2)"/><path d="M366.76868,184.39809c-2.55598,5.99666 -9.48925,8.78588 -15.48589,6.2299c-5.99666,-2.55597 -8.78586,-9.48927 -6.22989,-15.4859c2.55598,-5.99666 9.48926,-8.78587 15.4859,-6.2299c5.99666,2.55597 8.78586,9.48926 6.22989,15.48589z" fill="#000000"/></g><path d="M347.25205,148.32458c0.02918,-0.41318 0.38778,-0.72449 0.80096,-0.69531c0.41318,0.02918 0.72449,0.38778 0.69531,0.80096c-0.02918,0.41318 -0.38778,0.72449 -0.80096,0.69531c-0.41318,-0.02918 -0.72449,-0.38778 -0.69531,-0.80096z" fill="#000000" stroke="none" stroke-width="0.5" stroke-linecap="butt"/><path d="M353.37532,149.32001c0.02918,-0.41318 0.38778,-0.72449 0.80096,-0.69531c0.41318,0.02918 0.72449,0.38778 0.69531,0.80096c-0.02918,0.41318 -0.38778,0.72449 -0.80096,0.69531c-0.41318,-0.02918 -0.72449,-0.38778 -0.69531,-0.80096z" fill="#000000" stroke="none" stroke-width="0.5" stroke-linecap="butt"/><path d="M348.19028,143.01152l-0.42309,-0.00319c-0.0542,0.01144 -0.10199,0.02258 -0.14393,0.03354c0.15671,0.00117 0.31424,0.00413 0.47244,0.00868zM347.30885,142.9485c-0.13254,-0.01481 -0.23092,-0.13179 -0.22144,-0.26605c0.00973,-0.13773 0.12926,-0.2415 0.26699,-0.23177l0.87226,0.06159c0.13773,0.00973 0.2415,0.12926 0.23177,0.26699c-0.00501,0.07099 -0.0392,0.13297 -0.09002,0.17502l0.03433,0.10705c0.26523,0.01096 0.53206,0.0261 0.79981,0.04466c1.07764,0.00909 2.17609,0.05201 3.16831,0.18885c0.13164,-0.00465 0.26323,-0.01072 0.39473,-0.01832c0.66745,-0.03862 1.32341,-0.12781 1.97798,-0.2191c-0.80371,-0.0419 -1.60525,-0.13425 -2.40832,-0.19096c-2.83681,-0.20032 -5.69679,-0.57404 -8.47407,-1.16898c0,0 -0.73314,-0.15811 -0.57505,-0.89125c0.15811,-0.73314 0.89125,-0.57505 0.89125,-0.57505c3.21001,0.69721 6.48021,1.01307 9.7598,1.24464c0.0889,0.00628 2.63627,0.14381 2.80644,0.31046c1.05841,1.03649 0.77739,1.68358 0.07424,2.14515c0.24378,0.01721 0.5026,0.03549 0.5026,0.03549c0.41318,0.02918 0.72449,0.38778 0.69531,0.80096c-0.02455,0.34767 -0.28234,0.6232 -0.60963,0.68446l-1.31742,0.27777l-0.05275,-0.25018c-0.32735,0.098 -0.65979,0.1817 -0.9966,0.2526c-0.34646,0.14842 -0.68588,0.27073 -1.02137,0.37347c0.19662,0.14779 0.31662,0.38921 0.298,0.65283c-0.00549,0.07778 -0.02265,0.15194 -0.04966,0.2209c0.12278,0.14429 0.19129,0.33491 0.1769,0.53881c-0.02918,0.41318 -0.38778,0.72449 -0.80096,0.69531c-0.1766,-0.01247 -0.33459,-0.08512 -0.45533,-0.19649c-0.1352,0.0933 -0.30183,0.14303 -0.47842,0.13056c-0.12179,-0.0086 -0.23472,-0.04582 -0.33269,-0.10461c0.08697,0.13252 0.13279,0.29356 0.12077,0.46389c-0.02918,0.41318 -0.38778,0.72449 -0.80096,0.69531c-0.03459,-0.00244 -0.06848,-0.00719 -0.10151,-0.01409c0.05768,0.11584 0.08611,0.24813 0.07634,0.38656c-0.02918,0.41318 -0.38778,0.72449 -0.80096,0.69531c-0.41318,-0.02918 -0.72449,-0.38778 -0.69531,-0.80096c0.02918,-0.41318 0.38778,-0.72449 0.80096,-0.69531c0.03459,0.00244 0.06848,0.00719 0.10151,0.01409c-0.05768,-0.11584 -0.08611,-0.24813 -0.07634,-0.38656c0.02918,-0.41318 0.38778,-0.72449 0.80096,-0.69531c0.12179,0.0086 0.23472,0.04582 0.33269,0.10461c-0.08677,-0.13223 -0.13259,-0.29286 -0.12085,-0.46275c-0.7415,-0.05222 -1.31754,-0.06562 -1.82898,-0.12841c-1.34287,-0.00446 -2.69399,-0.12119 -4.04715,-0.2464c-0.03203,0.01168 -0.06696,0.01696 -0.10315,0.0144c-0.04009,-0.00283 -0.07731,-0.01497 -0.10969,-0.03416c-0.07667,-0.00713 -0.15335,-0.01427 -0.23002,-0.02139c0.30008,0.11508 0.50308,0.41595 0.47927,0.75318c-0.02918,0.41318 -0.38778,0.72449 -0.80096,0.69531c-0.41318,-0.02918 -0.72449,-0.38778 -0.69531,-0.80096c0.02462,-0.34862 0.28376,-0.62471 0.61233,-0.68496c-0.5597,-0.05135 -1.11952,-0.10046 -1.67905,-0.13996l-0.93376,-0.06593c0,0 -0.74814,-0.05283 -0.69531,-0.80096c0.01943,-0.27519 0.13293,-0.442 0.26868,-0.54294l-0.41483,-0.02929c-0.41318,-0.02918 -0.72449,-0.38778 -0.69531,-0.80096c0.02918,-0.41318 0.38778,-0.72449 0.80096,-0.69531l0.58234,0.04112c-0.01096,-0.06042 -0.01463,-0.12319 -0.01011,-0.18727c0.02918,-0.41318 0.38778,-0.72449 0.80096,-0.69531l1.48047,0.10454c0.30989,0.02189 0.66225,0.03216 1.04623,0.03595c0.4651,-0.04749 0.94397,-0.07117 1.43202,-0.07612c0.01152,-0.03195 0.02351,-0.06329 0.03612,-0.09379z" fill="#000000" stroke="none" stroke-width="0.5" stroke-linecap="butt"/><path d="M345.13185,149.11329c0.02918,-0.41318 0.38778,-0.72449 0.80096,-0.69531c0.41318,0.02918 0.72449,0.38778 0.69531,0.80096c-0.02918,0.41318 -0.38778,0.72449 -0.80096,0.69531c-0.41318,-0.02918 -0.72449,-0.38778 -0.69531,-0.80096z" fill="#000000" stroke="none" stroke-width="0.5" stroke-linecap="butt"/><path d="M345.881,151.79376c0.02918,-0.41318 0.38778,-0.72449 0.80096,-0.69531c0.41318,0.02918 0.72449,0.38778 0.69531,0.80096c-0.02918,0.41318 -0.38778,0.72449 -0.80096,0.69531c-0.41318,-0.02918 -0.72449,-0.38778 -0.69531,-0.80096z" fill="#000000" stroke="none" stroke-width="0.5" stroke-linecap="butt"/><path d="M348.49553,151.97837c0.02918,-0.41318 0.38778,-0.72449 0.80096,-0.69531c0.41318,0.02918 0.72449,0.38778 0.69531,0.80096c-0.02918,0.41318 -0.38778,0.72449 -0.80096,0.69531c-0.41318,-0.02918 -0.72449,-0.38778 -0.69531,-0.80096z" fill="#000000" stroke="none" stroke-width="0.5" stroke-linecap="butt"/><path d="M357.41794,150.54388c0.02918,-0.41318 0.38778,-0.72449 0.80096,-0.69531c0.41318,0.02918 0.72449,0.38778 0.69531,0.80096c-0.02918,0.41318 -0.38778,0.72449 -0.80096,0.69531c-0.41318,-0.02918 -0.72449,-0.38778 -0.69531,-0.80096z" fill="#000000" stroke="none" stroke-width="0.5" stroke-linecap="butt"/><path d="M348.43189,149.34631c0.00973,-0.13773 0.12926,-0.2415 0.26699,-0.23177c0.13773,0.00973 0.2415,0.12926 0.23177,0.26699c-0.00973,0.13773 -0.12926,0.2415 -0.26699,0.23177c-0.13773,-0.00973 -0.2415,-0.12926 -0.23177,-0.26699z" fill="#000000" stroke="none" stroke-width="0.5" stroke-linecap="butt"/><path d="M351.55394,150.3175c0.00973,-0.13773 0.12926,-0.2415 0.26699,-0.23177c0.13773,0.00973 0.2415,0.12926 0.23177,0.26699c-0.00973,0.13773 -0.12926,0.2415 -0.26699,0.23177c-0.13773,-0.00973 -0.2415,-0.12926 -0.23177,-0.26699z" fill="#000000" stroke="none" stroke-width="0.5" stroke-linecap="butt"/></g><g stroke-width="0"><path d="M371.34874,174.18927l2.21267,6.90685l-7.65586,-2.27187z" fill="#000000" stroke="#000000" stroke-linecap="round"/><path d="M344.07959,119.67293c-1.22895,-0.90558 -1.98772,-2.35985 -1.92131,-4.01261c0.07489,-1.86402 1.18051,-3.51144 2.76653,-4.42168c1.38632,-2.21572 7.41952,-0.32888 9.21099,0.43008c6.54321,2.77205 12.72024,10.98034 15.15859,17.41095c7.64735,20.16825 -8.21291,42.49528 -4.54338,62.9351c2.04945,11.41569 10.50468,20.86785 12.89204,32.28168c0.78019,3.73002 0.73494,10.94135 -5.43107,11.04782c-1.76719,0.03051 -3.2999,-1.27508 -4.50104,-2.4599c-0.94661,-0.93376 -0.397,-5.22463 -0.41684,-5.9807c-0.09302,-3.5443 -2.34927,-7.3052 -3.74654,-10.39293c-3.11621,-6.88631 -8.55855,-15.094 -9.2831,-22.86877c-1.87851,-20.1573 8.09377,-39.94685 5.27627,-60.01547c-0.53153,-3.786 -6.51952,-10.50713 -9.16566,-12.22934c-1.01516,-0.6607 -2.09602,-0.68167 -3.18477,-0.74854c-0.48095,0.00618 -0.94415,-0.05023 -1.38168,-0.16144c-0.40279,-0.0848 -0.80331,-0.21589 -1.19858,-0.42836c-0.19937,-0.10716 -0.37459,-0.23731 -0.53047,-0.38588z" fill="#c2d183" stroke="none" stroke-linecap="butt"/><path d="M369.67063,107.86485c0.53955,-2.37822 2.76034,-4.21327 5.34385,-4.25788c1.51092,-0.02609 2.84837,0.56535 3.7683,1.53358c0.15846,0.16679 0.30454,0.34475 0.43698,0.53267c2.05422,1.75783 4.42892,3.27427 6.63225,4.86104c0.03985,0.0287 0.0546,0.08235 0.09385,0.1118c19.24935,14.4416 15.16901,43.91184 13.21729,65.18281c-0.16418,1.78936 -0.55441,3.56785 -0.70386,5.35762c-0.19665,2.35494 -0.27841,4.71359 -0.28387,7.06571c-0.00597,2.57529 3.64654,6.49777 2.39084,9.11154c-2.13057,4.43487 -4.19729,5.25592 -8.68026,3.44844c-4.26859,-1.72105 -4.02911,-17.77612 -3.93779,-19.69734c0.08531,-1.79478 0.69652,-4.16562 0.77871,-5.60892c0.62627,-10.99821 2.4659,-26.81832 0.51727,-38.90685c-0.92395,-5.73185 -2.97014,-11.80569 -7.38813,-15.71951c-3.30957,-2.93188 -12.84454,-6.55163 -12.32759,-12.38634c0.01963,-0.22153 0.06841,-0.4304 0.14219,-0.62837z" fill="#c2d183" stroke="none" stroke-linecap="butt"/><path d="M351.62575,114.16126c0.11269,-2.80492 2.5593,-5.11943 5.46467,-5.16959c0.45541,-0.00786 0.89505,0.04037 1.31226,0.13813c1.12509,-0.31235 2.85889,1.80627 3.52939,2.53446c3.15226,3.42347 5.64055,6.70313 8.15102,10.60964c12.57972,19.57508 2.69219,41.81009 2.46363,63.41763c-0.0368,3.47965 0.44284,7.57203 1.66798,10.80884c0.36661,0.96859 2.06351,2.87293 2.03814,3.50444c-0.06855,1.7061 -0.29526,3.73404 -1.59333,4.96202c-8.17797,7.73637 -11.3993,-7.9898 -11.99755,-11.73536c-0.19211,-1.20277 -0.39865,-2.51058 -0.48388,-3.7329c-1.25186,-17.95218 6.67501,-35.44806 2.5529,-53.43312c-1.39592,-6.09052 -5.60471,-11.49835 -9.63209,-16.04388c-0.80202,-0.90521 -4.70758,-4.37419 -3.47316,-5.86029z" fill="#b8ae43" stroke="none" stroke-linecap="butt"/><path d="M397.09041,164.35587c0.7238,0.86723 1.13496,1.99144 1.08534,3.22649c-0.07489,1.86402 -1.18052,3.51145 -2.76653,4.42168c-0.53622,0.85704 -1.88359,0.89111 -3.05376,0.74261c-0.53143,-0.06745 -1.02631,-0.17254 -1.39207,-0.25531c-4.08612,-0.92463 -4.79664,-6.15087 -5.25608,-9.78678c-0.64602,-5.11249 -1.29921,-12.01291 -2.51801,-16.99785c-1.50676,-6.16275 -4.46959,-11.78654 -6.13617,-17.90165c-2.97075,-10.90054 -1.99565,-14.1657 -9.58472,-23.69384c-2.04286,-2.56484 -4.59446,-6.09952 -0.23755,-9.23817c4.91037,-3.53734 7.53106,1.24022 9.74929,3.942c6.5871,8.02303 8.20185,16.05727 10.31644,26.06189c0.79436,3.75834 2.35636,6.5117 3.58078,10.13883c1.88075,5.57134 3.22047,11.34703 4.21199,17.17211c0.79141,4.64947 0.92812,8.24557 2.00105,12.16799z" fill="#b8ae43" stroke="none" stroke-linecap="butt"/><path d="M373.92072,93.45674c1.21316,0.90689 1.96042,2.35198 1.8945,3.9927c-0.0018,0.04472 -0.00419,0.08932 -0.00717,0.13377c0.11616,0.60893 -0.05601,1.172 -0.41335,1.69113c-0.83432,1.91957 -2.80272,3.30598 -5.04416,3.34468c-1.98123,0.97163 -4.63198,-2.53497 -5.93279,-3.19839c-4.59278,-2.34232 -10.0992,-5.0656 -15.61976,-4.97724c-6.24056,0.09988 -13.5782,1.36952 -19.37691,4.3015c-1.35494,0.68508 -3.41903,2.80378 -5.24223,3.0753c-2.80728,0.41807 -5.32927,0.79928 -6.52518,-3.09719c-1.98626,-6.47148 9.92733,-10.12733 14.29978,-11.47473c12.28461,-3.7856 25.20359,-4.03597 36.08927,2.23887c2.44872,1.41152 4.46627,2.37504 5.87801,3.9696z" fill="#b8ae43" stroke="none" stroke-linecap="butt"/><path d="M370.96968,101.32875c0.81512,0.88768 1.28599,2.07846 1.23309,3.39524c-0.0018,0.04472 -0.00419,0.08932 -0.00717,0.13377c0.07281,0.38167 0.03235,0.74533 -0.09599,1.09145c5.93665,7.31192 14.35935,18.37636 13.34373,26.78586c-0.75006,6.21061 -0.87633,12.52685 -2.58842,18.60923c-1.75454,6.23317 -4.98222,12.61087 -4.71781,19.16166c0.35136,8.70482 4.8546,17.50975 7.29407,25.66054c2.5311,8.45694 4.63098,17.1806 7.53667,25.46129c0.95476,2.72092 0.5288,5.98349 -3.34055,7.27875c-7.34152,2.45755 -9.56142,-12.93855 -10.70634,-17.02663c-0.4682,-1.67177 -0.95707,-3.33705 -1.44363,-5.00302c-0.71134,-2.43564 -1.37478,-4.8875 -2.15005,-7.30177c-2.87862,-8.96422 -7.86545,-18.83815 -7.72591,-28.52656c0.18842,-13.08292 7.01262,-24.73065 7.26612,-38.04742c0.18778,-9.86469 -10.14206,-17.51491 -14.96393,-24.69342c-0.4452,-0.66277 -0.68766,-1.46894 -0.7295,-2.31177c-0.01076,-0.16845 -0.01285,-0.33947 -0.00589,-0.51267c0.01398,-0.3479 0.06386,-0.68826 0.14607,-1.01769c0.00569,-0.02444 0.01156,-0.04886 0.01758,-0.07324c-1.12334,-0.59104 -2.44342,-1.0905 -3.82628,-1.49353c-2.75928,-0.80416 -5.76853,-1.2243 -7.96354,-1.22155c-4.8015,0.006 -9.54997,-0.45448 -14.23858,0.77485c-2.86938,0.75235 -6.94427,5.33263 -9.97897,3.38137c-1.43237,-0.92098 -2.7101,-2.50849 -2.7697,-4.20789c-0.22827,-6.5092 10.54704,-9.43441 15.59945,-9.82438c10.34541,-0.79851 29.25543,-0.89963 34.81551,9.52755z" fill="#b3c46f" stroke="none" stroke-linecap="butt"/><path d="M370.73442,106.30157c1.37189,0.24309 17.57023,27.38791 17.79375,28.61213c1.17147,6.4162 1.06691,12.98111 0.98428,19.57578c-0.09115,7.2746 -1.35205,14.51023 -1.42374,21.72427c-0.08601,8.65552 4.81543,16.79081 4.51365,25.38877c-0.24079,6.86009 -0.35633,13.72077 -0.82691,20.58232c-0.18351,2.6758 -2.05212,5.11067 -5.46467,5.16959c-3.41531,0.05897 -5.08657,-2.31477 -5.05659,-4.98793c0.0753,-6.71468 0.60464,-13.44273 0.81002,-20.16199c0.23963,-7.84008 -3.54396,-16.11123 -4.41431,-23.95482c-0.76298,-6.87596 1.07497,-16.94018 1.33488,-23.39962c0.2014,-5.00541 0.23058,-10.76325 -0.47218,-15.754c-0.26438,-1.87755 -1.24961,-4.191 -0.80021,-6.08738c0.05185,-0.2188 -15.5569,-20.82089 -15.4548,-21.01092c0.88903,-1.65477 -1.39925,-5.82992 1.06085,-7.48305c2.46011,-1.65313 7.41597,1.78684 7.41597,1.78684z" fill="#c4de76" stroke="none" stroke-linecap="butt"/><path d="M346.46943,120.64931c-1.25344,0.8075 -5.79999,-1.75558 -7.5087,-1.72837c-1.65307,0.02632 -3.30611,0.05126 -4.95949,0.08563c-2.45849,0.05111 -3.45573,2.70808 -6.48447,2.54764c-3.50157,-0.18548 -5.30475,-4.84304 -3.79772,-7.87842c1.30104,-2.62047 4.33388,-2.91888 6.64742,-3.92954c4.51067,-1.97046 12.20547,-1.90628 17.04923,0.82259c2.04508,1.15216 3.58194,2.77934 4.15634,4.92894z" fill="#c2d183" stroke="none" stroke-linecap="butt"/><path d="M359.91185,109.11983c1.26956,0.9015 2.05814,2.37907 1.99049,4.06264c-0.0018,0.04472 -0.00419,0.08932 -0.00717,0.13377c0.11616,0.60893 -0.056,1.172 -0.41334,1.69113c-0.83432,1.91957 -2.80272,3.30598 -5.04416,3.34468c-1.26368,0.61973 -2.23302,-0.02436 -3.04436,-0.90992c-0.71171,-0.49954 -1.27422,-1.17923 -1.62227,-1.97472c-0.15831,-0.16288 -0.31333,-0.29448 -0.46705,-0.38009c-2.49156,-1.38766 -5.86344,-3.45538 -8.91388,-3.80228c-3.32662,-0.37831 -7.40988,-0.35604 -10.60775,-0.25369c-2.09717,0.06712 -3.04428,3.77345 -6.16915,2.80932c-1.65482,-0.51057 -3.5681,-1.25062 -4.29711,-2.76295c-2.62749,-5.45075 5.36795,-9.22243 9.53794,-10.1808c8.20505,-1.88572 23.40923,1.11908 29.05782,8.22291z" fill="#b8ae43" stroke="none" stroke-linecap="butt"/></g><path d="M329.80434,90.49177c2.28533,-5.63127 -1.86411,-9.03172 2.20791,-15.62129c4.07202,-6.58957 5.20286,-10.84878 11.87706,-15.70025c6.67419,-4.85149 6.53674,-8.54412 19.08636,-6.80708c12.54961,1.73704 25.00962,9.51833 29.43132,13.52256c4.42172,4.00423 0.54002,12.76827 2.12826,15.05725c1.58824,2.28897 1.81776,0.9137 6.13906,-3.14238c4.32129,-4.05607 9.67754,-11.70342 9.67754,-11.70342c0,0 -1.62345,14.43504 -5.92326,19.11746c-4.29982,4.68241 -8.76597,8.00341 -14.68121,3.32035c-5.91524,-4.68306 3.06697,-10.93954 -3.97676,-18.09173c-7.04372,-7.15218 -16.07256,-9.65978 -23.56041,-9.86949c-7.48785,-0.2097 -12.4777,2.23419 -16.58757,8.74513c-4.10988,6.51095 -2.62402,14.42971 -3.79746,20.56267c-1.17344,6.13295 -6.84646,14.43517 -6.84646,14.43517c0,0 -2.58561,2.26554 -5.39028,1.45645c-2.80925,-0.81043 -3.48031,-7.03825 -3.48031,-7.03825c0,0 1.41087,-2.61192 3.69621,-8.24319z" fill="#026b00" stroke="#000000" stroke-width="0" stroke-linecap="round"/></g></g></svg>