<svg version="1.1" xmlns="http://www.w3.org/2000/svg" xmlns:xlink="http://www.w3.org/1999/xlink" width="213.18203" height="281.18476" viewBox="0,0,213.18203,281.18476"><defs><linearGradient x1="379.69278" y1="62.22545" x2="379.69278" y2="101.38343" gradientUnits="userSpaceOnUse" id="color-1"><stop offset="0" stop-color="#000000" stop-opacity="0"/><stop offset="1" stop-color="#000000" stop-opacity="0.12941"/></linearGradient><linearGradient x1="259.57654" y1="62.22545" x2="259.57654" y2="101.38343" gradientUnits="userSpaceOnUse" id="color-2"><stop offset="0" stop-color="#000000" stop-opacity="0"/><stop offset="1" stop-color="#000000" stop-opacity="0.12941"/></linearGradient><linearGradient x1="320.08742" y1="187.07227" x2="320.08742" y2="244.23177" gradientUnits="userSpaceOnUse" id="color-3"><stop offset="0" stop-color="#424242"/><stop offset="1" stop-color="#424242" stop-opacity="0"/></linearGradient></defs><g transform="translate(-214.52362,-38.88751)"><g stroke-miterlimit="10"><g stroke-width="2" stroke-linecap="round"><path d="M336.15832,90.91648l55.16668,-46.64406l-11.40188,84.5216" fill="#ffffff" stroke="#000000"/><path d="M373.47357,101.38343c0,0 3.19735,-13.92182 5.3091,-20.56995c2.03125,-6.39468 7.12931,-18.58803 7.12931,-18.58803" fill="none" stroke="url(#color-1)"/></g><g stroke-width="2" stroke-linecap="round"><path d="M259.3462,128.79401l-11.40188,-84.52159l55.16668,46.64406" fill="#ffffff" stroke="#000000"/><path d="M253.35734,62.22545c0,0 5.09806,12.19335 7.12931,18.58803c2.11176,6.64812 5.30911,20.56994 5.30911,20.56994" fill="none" stroke="url(#color-2)"/></g><g stroke="#000000" stroke-linecap="butt"><path d="M286.35186,319.07226l15.14285,-131.8421l37.78325,-0.15789l13.57389,132z" fill="#ffffff" stroke-width="0"/><path d="M295.01902,243.61117l6.47569,-56.38101l37.78325,-0.15789l5.87786,57.15951z" fill="url(#color-3)" stroke-width="0"/><path d="M286.35186,319.07226l15.14285,-131.8421l37.78325,-0.15789l13.57389,132z" fill="none" stroke-width="2"/></g><g fill="#ffffff"><path d="M255.36488,148.57225c0,-33.30185 28.7599,-60.29833 64.23702,-60.29833c35.47713,0 64.23702,26.99648 64.23702,60.29833c0,33.30185 -28.75989,60.29834 -64.23702,60.29834c-35.47712,0 -64.23702,-26.99649 -64.23702,-60.29834z" stroke="#000000" stroke-width="2" stroke-linecap="butt"/><path d="M259.11586,171.86778l6.91023,-0.46068l23.95547,26.48922l-7.14057,2.76409z" stroke="none" stroke-width="0" stroke-linecap="round"/><path d="M286.06576,199.96939l-21.42172,9.21364v-16.35421l-34.55115,-21.65206l30.17468,0.23034" stroke="#000000" stroke-width="2" stroke-linecap="round"/><path d="M356.42833,200.66042l-7.14057,-2.76409l23.95547,-26.48922l6.91024,0.46068z" stroke="none" stroke-width="0" stroke-linecap="round"/><path d="M379.00176,171.4071l30.17467,-0.23034l-34.55115,21.65205v16.35422l-21.42172,-9.21364" stroke="#000000" stroke-width="2" stroke-linecap="round"/></g><path d="M214.52362,306.61252v-267.72501h213.18203v267.72501z" fill="none" stroke="none" stroke-width="0" stroke-linecap="butt"/><g fill="#000000" stroke="#000000" stroke-width="2" stroke-linecap="round"><path d="M269.25055,145.98525l-4.09184,-9.8548l8.54478,4.56559z"/><path d="M271.06868,150.30913l-9.99773,-3.72904l9.1668,-3.13492z"/></g><path d="M268.99199,148.84787c0,-12.96801 10.51265,-23.48065 23.48066,-23.48065c12.96801,0 23.48065,10.51264 23.48065,23.48065c0,12.96801 -10.51264,23.48066 -23.48065,23.48066c-12.96801,0 -23.48066,-10.51265 -23.48066,-23.48066z" fill="#ffffff" stroke="#000000" stroke-width="2" stroke-linecap="butt"/><path d="M277.49999,149.63831c0,-8.29964 6.72818,-15.02784 15.02783,-15.02784c8.29964,0 15.02784,6.72819 15.02784,15.02785c0,8.29964 -6.72819,15.02785 -15.02784,15.02785c-8.29964,0 -15.02783,-6.72819 -15.02783,-15.02785z" fill="#ffffff" stroke="#000000" stroke-width="5" stroke-linecap="butt"/><path d="" fill="none" stroke="#000000" stroke-width="2" stroke-linecap="round"/><g fill="#000000" stroke="#000000" stroke-width="2" stroke-linecap="round"><path d="M365.50032,140.69604l8.54478,-4.5656l-4.09185,9.8548z"/><path d="M368.96605,143.44517l9.1668,3.13492l-9.99773,3.72905z"/></g><path d="M346.73111,172.32855c-12.96801,0 -23.48065,-10.51265 -23.48065,-23.48066c0,-12.96801 10.51264,-23.48065 23.48065,-23.48065c12.96801,0 23.48066,10.51264 23.48066,23.48065c0,12.96801 -10.51265,23.48066 -23.48066,23.48066z" fill="#ffffff" stroke="#000000" stroke-width="2" stroke-linecap="butt"/><path d="M361.4579,149.4251c0,8.29966 -6.72818,15.02785 -15.02783,15.02785c-8.29964,0 -15.02784,-6.72821 -15.02784,-15.02785c0,-8.29966 6.7282,-15.02785 15.02784,-15.02785c8.29964,0 15.02783,6.7282 15.02783,15.02784z" fill="#ffffff" stroke="#000000" stroke-width="5" stroke-linecap="butt"/><path d="M280.5152,121.44655c0,0 7.6761,-3.57887 12.90237,-3.63287c5.22628,-0.054 11.88349,3.37677 11.88349,3.37677c0,0 -7.83084,-1.81468 -11.86692,-1.77297c-4.21786,0.04358 -12.91895,2.02907 -12.91895,2.02907z" fill="#000000" stroke="none" stroke-width="0" stroke-linecap="butt"/><path d="M345.05434,111.3252c-4.02426,-0.31146 -11.9589,0.9756 -11.9589,0.9756c0,0 6.87169,-2.978 12.08266,-2.57469c5.21097,0.40329 12.63061,4.48738 12.63061,4.48738c0,0 -8.54887,-2.56279 -12.75437,-2.88828z" fill="#000000" stroke="none" stroke-width="0" stroke-linecap="butt"/><path d="M268.99199,148.84787c0,-12.96801 10.51265,-23.48065 23.48066,-23.48065c12.96801,0 23.48065,10.51264 23.48065,23.48065c0,0.23439 -12.80075,0.02394 -25.0359,0.00352c-11.19967,-0.01869 -21.92541,0.17037 -21.92541,-0.00352z" fill="#ffffff" stroke="#000000" stroke-width="2" stroke-linecap="butt"/><path d="M323.25046,148.84789c0,-12.96801 10.51264,-23.48065 23.48065,-23.48065c12.96801,0 23.48066,10.51264 23.48066,23.48065c0,0.39344 -11.63929,-2.09337 -23.32877,-2.08705c-11.79074,0.00637 -23.63254,2.50238 -23.63254,2.08705z" fill="#ffffff" stroke="#000000" stroke-width="2" stroke-linecap="butt"/><path d="M310.07163,200.62096l17.05877,-7.18264l8.08047,7.18264z" fill="#000000" stroke="#000000" stroke-width="2" stroke-linecap="round"/></g></g></svg>