<svg version="1.1" xmlns="http://www.w3.org/2000/svg" xmlns:xlink="http://www.w3.org/1999/xlink" width="216.22637" height="287.86249" viewBox="0,0,216.22637,287.86249"><g transform="translate(-214.52362,-38.88751)"><g stroke-miterlimit="10"><path d="M367.41667,326.08333l-92.33333,0.66667l17,-114l-27.66667,-15.33333l-12.66667,-35.33333l-33,-0.66667l-0.66667,-12.66667l2.66667,-1.33333l-5.66667,-4v-15.66667l30.33333,8.33333l8,-34l46,-25.33333l59,3l33.33333,54.66667l6.66667,-9.66667l32.33333,20.33333l-23.66667,31l-12.33333,-7l-12.33333,26.33333l-29.66667,12.66667z" fill="#ffffff" stroke="#000000" stroke-width="0" stroke-linecap="round"/><path d="M214.52362,306.61252v-267.72501h213.18203v267.72501z" fill="none" stroke="none" stroke-width="0" stroke-linecap="butt"/><path d="M260.08333,144.83333h168.66667" fill="none" stroke="#99d9ea" stroke-width="1" stroke-linecap="round"/><path d="M257.75,158.5h161.66667" fill="none" stroke="#99d9ea" stroke-width="1" stroke-linecap="round"/><path d="M255.75,101.75v69.5" fill="none" stroke="#fd0006" stroke-width="1.5" stroke-linecap="round"/><path d="M352.92464,305.17956c0.2173,1.4385 0.46452,2.87349 0.73075,4.30435c0.00745,0.09181 0.02221,0.18481 0.02977,0.27673c0.06171,0.75051 0.84967,4.37139 0.51326,5.27939c-0.0815,-1.25186 -0.26737,-2.45929 -0.37147,-2.99999c-0.43023,-2.23476 -0.70393,-4.59267 -0.90231,-6.86048z" fill="#ffffff" stroke="none" stroke-width="0.5" stroke-linecap="butt"/><path d="M343.57334,211.89322c0.68046,3.18462 1.60158,6.40122 1.89366,9.5575c0.38934,4.20723 0.31212,8.41505 0.83859,12.6286c1.11937,8.95876 0.85126,18.15186 1.95262,27.09062c-0.19058,-0.86255 -0.40378,-1.82323 -0.62452,-2.68262c-0.32776,-8.74565 -0.6937,-17.20254 -2.06052,-25.94532c-0.62867,-5.30063 -0.94403,-10.63838 -1.57786,-15.93098c-0.01171,-0.09778 -0.03318,-0.29499 -0.04517,-0.39257c-0.05561,-1.20303 -0.13603,-2.30259 -0.2767,-3.49473c-0.02879,-0.24393 -0.06848,-0.58712 -0.10008,-0.83051z" fill="#ffffff" stroke="none" stroke-width="0.5" stroke-linecap="butt"/><path d="M343.90265,231.09572c0.05599,0.51727 0.11459,1.03423 0.17595,1.55087c0.98915,6.33408 1.46447,12.6677 1.77062,18.94815c-0.74622,-3.08372 -1.43436,-6.21179 -1.79938,-9.28991c-0.42915,-3.61889 -0.25136,-7.49333 -0.14719,-11.2091z" fill="#ffffff" stroke="none" stroke-width="0.5" stroke-linecap="butt"/><path d="M352.13355,288.41331c-0.68547,-4.39457 -1.16158,-8.89747 -1.68076,-13.28772c0.6125,4.0498 1.17782,8.2101 1.60593,12.26232c0.03614,0.34213 0.0594,0.68393 0.07483,1.0254z" fill="#ffffff" stroke="none" stroke-width="0.5" stroke-linecap="butt"/><path d="M287.62464,316.5394c1.60391,0.23842 4.44262,-0.0834 5.2766,-0.0834c7.48554,0 14.97141,-0.0049 22.45695,-0.0049c10.37252,0 20.84467,0.00486 31.21718,0.00486c1.97093,0 3.9794,0.09557 5.95788,0.03879c0.0009,0.02437 0.00182,0.0489 0.00276,0.07338c0.01279,0.33427 0.40497,0.76062 0.16314,0.99175c-0.13878,0.13263 -3.60494,-0.20805 -3.98181,-0.20805c-10.49277,0 -21.08522,0.00493 -31.57799,0.00493c-9.87214,0 -19.75195,-0.11665 -29.62324,0.00972c0.03782,-0.27522 0.07396,-0.55176 0.10854,-0.82709z" fill="#ffffff" stroke="none" stroke-width="0.5" stroke-linecap="butt"/><path d="M288.69204,300.54537c0.18464,-3.67204 0.46663,-7.44026 1.07672,-11.09671c-0.22184,3.10014 -0.33277,6.29754 -0.80751,9.37383c-0.08864,0.57439 -0.17949,1.14857 -0.26921,1.72287z" fill="#ffffff" stroke="none" stroke-width="0.5" stroke-linecap="butt"/><path d="M286.35488,318.29884c-0.25513,0 -0.51144,-0.00013 -0.76657,-0.00013l-0.00055,-0.02116c-0.09442,-0.46584 -0.18956,-0.93178 -0.28397,-1.39762c0.03757,-10.25792 1.39354,-20.62329 2.93843,-30.75086c1.5475,-10.14472 3.47267,-20.27978 5.24723,-30.38709c0.07853,-0.44731 0.15568,-0.89492 0.23142,-1.34283c-0.08182,0.82663 -0.18793,1.74766 -0.29505,2.56377c-1.33877,10.19951 -2.74256,20.26227 -4.76029,30.3509c-1.34909,6.7543 -1.23526,13.42018 -1.85031,20.20998c-0.31784,3.50882 -0.71331,7.15043 -0.45947,10.67167c0.00299,0.00128 -0.00387,0.10208 -0.00088,0.10337z" fill="#ffffff" stroke="none" stroke-width="0.5" stroke-linecap="butt"/><path d="M295.69551,247.22337c0.16107,-3.35996 0.24441,-6.78645 0.53187,-10.12517c0.4774,-3.31432 1.03526,-6.68157 1.62135,-9.97057c0.03309,-0.1291 0.06706,-0.25796 0.10134,-0.38664c-0.49721,6.83234 -1.35842,13.71592 -2.25456,20.48238z" fill="#ffffff" stroke="none" stroke-width="0.5" stroke-linecap="butt"/><path d="" fill="none" stroke="#000000" stroke-width="2" stroke-linecap="round"/><path d="" fill="#000000" stroke="none" stroke-width="0.5" stroke-linecap="butt"/><path d="M222.88255,150.25967c0,-0.75 0.75,-0.75 0.75,-0.75l0.73405,0.00968c2.08313,-0.71267 4.09633,-1.41309 6.08622,-2.03281c-0.30873,-0.05282 -0.61725,-0.10765 -0.92556,-0.16457c-0.33607,-0.06506 -0.67215,-0.13011 -1.00823,-0.19517l-0.07783,-0.078l-0.0189,0.03781l-0.83966,-0.41983c-0.25368,-0.12026 -0.42912,-0.37869 -0.42912,-0.67809c0,-0.41422 0.33578,-0.75 0.75,-0.75c0.02396,0 0.04764,0.00113 0.07102,0.00332l0.21853,0.01821c-0.33616,-0.17218 -0.7059,-0.36668 -1.08427,-0.57926c-1.22299,-0.53498 -2.38703,-1.1326 -3.39453,-1.86145l-0.02549,-0.04581l-0.01179,0.01224l-0.99092,-0.95426c-0.14215,-0.13648 -0.23063,-0.32844 -0.23063,-0.54107c0,-0.41422 0.33578,-0.75 0.75,-0.75c0.14556,0 0.28143,0.04146 0.39644,0.11322l1.27567,0.76541l-0.11136,0.18559c1.28189,0.58986 2.36736,1.3205 3.62259,2.0363c0.93225,0.38181 1.89537,0.7317 2.834,1.08075c0.4086,0.09011 0.79363,0.20222 1.08614,0.41077c0.38894,0.15076 0.76946,0.30357 1.13728,0.46086c0.85227,0.03704 1.70866,0.07227 2.57214,0.07227c5.83699,0 11.67398,0 17.51098,0h0.4271c0,0 0.75,0 0.75,0.75c0,0.75 -0.75,0.75 -0.75,0.75c-3.9418,0 -8.3107,0 -12.2525,0c4.64558,0.22941 9.31282,0.20839 13.96089,0.20839c0,0 0.75,0 0.75,0.75c0,0.75 -0.75,0.75 -0.75,0.75c-7.87345,0 -15.77767,0.0309 -23.56387,-1.1246c-0.27312,0.49344 -0.59114,0.90981 -0.86947,1.04397c-0.7829,0.37736 -1.7984,0.03412 -2.57135,0.43147c-1.39862,0.71898 -2.53054,1.27849 -4.05325,1.77497l-0.97433,0.00968c0,0 -0.75,0 -0.75,-0.75z" fill="#000000" stroke="none" stroke-width="0.5" stroke-linecap="butt"/><path d="M411.75749,151.48906c0.4555,-1.77223 1.7521,-4.67379 3.32417,-6.17424c-0.33155,0.0279 -0.66885,0.0596 -0.93731,0.00417c-1.50354,-0.31043 -2.92952,-0.75294 -4.39576,-1.20409c-0.57222,-0.17606 -1.14443,-0.35214 -1.71666,-0.5282c0.00157,0.37357 0.0023,0.74715 0.0023,1.12072c0,2.34732 0,4.69462 0,7.04194c-0.04679,0.6407 0.23102,1.39891 -0.13212,1.9251c-0.09508,2.17977 -0.23227,4.335 -0.27882,6.36399c0.2788,-0.50225 0.61839,-0.99393 0.90563,-1.56482c0.37075,-0.73687 0.72983,-1.48053 1.0871,-2.22515c0.56181,-1.5961 1.43621,-2.92848 2.14148,-4.75942zM408.01367,141.5499c-0.15563,-0.00447 -0.02692,0.27947 0.00163,0.46228c0.72481,0.22302 1.44961,0.44603 2.17442,0.66905c0.25978,0.07994 0.64072,0.16425 1.0962,0.25763c-1.15947,-0.65867 -2.52521,-1.36749 -3.27225,-1.38896zM402.33138,154.40638c-3.94968,0.81891 -7.69101,0.11226 -11.53138,-0.40571c-1.90828,-0.00065 -3.81655,-0.00133 -5.72482,-0.00133c0,0 -0.75,0 -0.75,-0.75c0,-0.40983 0.22395,-0.59572 0.4271,-0.68003c0.01288,-0.00535 0.02567,-0.01028 0.03832,-0.01484c0.15296,-0.48224 0.71168,-0.48224 0.71168,-0.48224c1.78283,0.00126 3.51934,0.19462 5.23594,0.42586c3.59512,-0.00116 7.19025,-0.00226 10.78536,0.00124c0.32817,0.00032 2.42698,0.40066 3.60808,0.56515c0.36457,-0.00385 0.6884,-0.04845 0.93457,-0.17127c0.01565,-0.03586 0.02922,-0.07248 0.04091,-0.10978c0,-0.38421 0,-0.76842 0,-1.15263c-0.04532,-0.33419 -0.09233,-0.67128 -0.05332,-0.98124c0.00998,-1.19896 0.02277,-2.39791 0.03332,-3.59687c-0.05469,-1.04134 -0.1893,-2.16336 0.01914,-3.13394c0.00056,-0.23612 0.00086,-0.47225 0.00086,-0.70838v-1.49266c0,-0.36505 0.2608,-0.66918 0.60625,-0.73623c0.13149,-0.37001 0.34681,-0.66933 0.69561,-0.80432c1.75449,-0.67898 5.93597,2.36605 7.41315,3.13316c0.76965,0.39969 2.21954,-0.18484 2.5251,0.62679c0.09954,0.26442 0.03821,0.5262 -0.09534,0.78477c0.30091,0.2157 0.51154,0.45435 0.59587,0.71957c0.20362,0.64034 -2.73678,3.82023 -3.10432,4.37757c-1.59974,2.42584 -2.70433,5.18972 -4.03362,7.79173c-0.0072,0.73995 0.01058,1.55105 -0.17859,1.92462c-0.31113,0.61443 -1.47013,2.11884 -2.59412,2.84219l-0.4495,0.67426c-0.13354,0.20677 -0.36603,0.34365 -0.63049,0.34365c-0.41422,0 -0.75,-0.33578 -0.75,-0.75c0,-0.11415 0,-0.23152 0,-0.3518c-0.53201,-1.16735 -0.42676,-4.34874 -0.4271,-5.20046v-0.4271c0,0 0,-0.51528 0.4271,-0.69163c0,-0.51329 0,-0.99746 0,-1.43437c-0.49282,0.05239 -1.11129,-0.00379 -1.74239,-0.09689c-0.77293,-0.06909 -1.50642,-0.1461 -2.03336,-0.03684z" fill="#000000" stroke="none" stroke-width="0.5" stroke-linecap="butt"/><path d="M411.33211,142.95801c-0.45549,-0.09338 -0.84273,-0.1667 -1.10251,-0.24663c-0.72481,-0.22302 -1.53897,-0.48339 -2.26378,-0.7064c-0.02855,-0.18281 -0.15364,-0.47947 0.00198,-0.475c0.74705,0.02147 2.20483,0.76937 3.3643,1.42804z" fill="#ffffff" stroke="none" stroke-width="0.5" stroke-linecap="butt"/><path d="M409.59779,156.29504c-0.35728,0.74462 -0.71764,1.48775 -1.08839,2.22462c-0.28724,0.57089 -0.62796,1.06207 -0.90676,1.56432c0.04655,-2.02899 0.16038,-4.20602 0.25546,-6.38578c0.36314,-0.5262 0.07935,-1.3091 0.12614,-1.9498c0,-2.34732 0.02884,-4.73897 0.02884,-7.08629c0,-0.37357 0.00171,-0.74821 0.00014,-1.12178c0.57222,0.17606 1.15295,0.34955 1.72517,0.52562c1.46625,0.45116 2.92217,0.89668 4.42572,1.20711c0.26846,0.05543 0.6109,0.0263 0.94245,-0.0016c-1.57207,1.50045 -2.85449,4.41416 -3.30999,6.1864c-0.70527,1.83094 -1.63697,3.24108 -2.19878,4.83719z" fill="#ffffff" stroke="none" stroke-width="0.5" stroke-linecap="butt"/><path d="M260.41667,102.16667h107.33333" fill="none" stroke="#99d9ea" stroke-width="1" stroke-linecap="round"/><path d="M257.75,126.83333h127.83333" fill="none" stroke="#99d9ea" stroke-width="1" stroke-linecap="round"/><path d="M259.75,174.16667h129.66667" fill="none" stroke="#99d9ea" stroke-width="1" stroke-linecap="round"/><path d="M262.41667,189.16667h122" fill="none" stroke="#99d9ea" stroke-width="1" stroke-linecap="round"/><path d="M280.58333,205.5h76.16667" fill="none" stroke="#99d9ea" stroke-width="1" stroke-linecap="round"/><path d="M290.91667,224.16667h63.16667" fill="none" stroke="#99d9ea" stroke-width="1" stroke-linecap="round"/><path d="M288.08333,243.16667h68" fill="none" stroke="#99d9ea" stroke-width="1" stroke-linecap="round"/><path d="M285.41667,260.16667h74.33333" fill="none" stroke="#99d9ea" stroke-width="1" stroke-linecap="round"/><path d="M283.41667,274.83333h76.66667" fill="none" stroke="#99d9ea" stroke-width="1" stroke-linecap="round"/><path d="M280.41667,293.16667h82.33333" fill="none" stroke="#99d9ea" stroke-width="1" stroke-linecap="round"/><path d="M277.41667,310.83333h88" fill="none" stroke="#99d9ea" stroke-width="1" stroke-linecap="round"/><path d="M343.66873,212.67395c0.14067,1.19214 0.2306,2.39125 0.28621,3.59428c0.01199,0.09759 0.02384,0.19526 0.03555,0.29304c0.63383,5.2926 0.94971,10.6303 1.57838,15.93093c1.36683,8.74278 1.74094,17.29933 2.0687,26.04498c0.22075,0.85939 0.42531,1.72045 0.61589,2.583c-1.10136,-8.93876 -0.83637,-18.03271 -1.95574,-26.99147c-0.52647,-4.21355 -0.43992,-8.42076 -0.82925,-12.628c-0.29208,-3.15628 -1.20995,-6.37309 -1.89041,-9.55771c0.03161,0.24338 0.06187,0.48702 0.09066,0.73095zM344.08112,242.26581c0.36502,3.07811 1.01689,6.19546 1.7631,9.27917c-0.30615,-6.28045 -0.77222,-12.5145 -1.76137,-18.84858c-0.06137,-0.51664 -0.11975,-1.03363 -0.17574,-1.55089c-0.10417,3.71578 -0.25513,7.50141 0.17401,11.12029zM356.22044,314.32804c0,0 0.1819,0.72761 -0.5457,0.90951c-0.03509,0.00878 -0.06891,0.01543 -0.1015,0.02015c-0.09096,0.41858 -0.24698,0.77232 -0.49345,1.02161c-0.21418,0.21663 -0.52403,0.24124 -0.8522,0.22346c-0.0122,0.42025 -0.04704,0.81413 -0.11281,1.15383c1.06435,-0.00452 2.12936,-0.00606 3.19543,-0.00606h0.27758c0,0 0.75,0 0.75,0.75c0,0.75 -0.75,0.75 -0.75,0.75h-0.27758c-4.89319,0 -9.76364,0.03247 -14.65272,0.23618c-10.26087,0.42737 -20.52685,0.36237 -30.79395,0.36237c-8.99926,0 -17.9985,0 -26.99776,0c-0.25995,0.00122 -0.43007,-0.0887 -0.5414,-0.20641c-0.11921,-0.11091 -0.21084,-0.28144 -0.21084,-0.54359c0,-0.01674 0.00037,-0.0331 0.0011,-0.0491l0.00836,-0.42788c-0.1017,-0.51474 -0.20341,-1.02947 -0.30511,-1.54422c-0.02524,-10.37259 1.42898,-20.82819 2.99075,-31.06649c1.54919,-10.15582 3.42046,-20.26087 5.19696,-30.37922c1.10905,-6.31677 1.92633,-12.69593 2.84568,-19.05053c0.29323,-3.26194 0.74122,-6.4798 1.52042,-9.59048c0.13114,-0.73681 0.26638,-1.47268 0.40636,-2.20748c1.62,-8.4963 2.48709,-16.93756 3.79799,-25.46755c0.01671,-0.24855 0.12228,-0.40595 0.24887,-0.50563c0.11805,-0.11157 0.29102,-0.19347 0.54264,-0.17186l0.48425,0.0025c4.53755,-0.60501 8.95918,-0.52803 13.52654,-0.64864c5.53478,-0.14125 11.32781,-0.54383 16.83409,-1.2098c2.79612,-0.33819 5.753,-1.37777 8.49574,-1.43451c0.21988,-0.04758 0.39345,0.01534 0.52152,0.10574c0.13898,0.07635 0.2731,0.20686 0.32549,0.42997l0.31291,0.68941c0.21572,1.09175 0.38301,2.22074 0.48705,3.35031c0.07225,0.04044 0.13906,0.08396 0.19981,0.13078c0.7124,0.54898 1.22022,4.16757 1.69675,5.1472c0.07903,5.35389 2.20096,10.8089 2.71033,16.26019c0.39163,4.19117 0.29967,8.38354 0.82412,12.58094c1.25556,10.04879 0.76222,20.2724 2.42505,30.24938c1.2681,7.60858 2.54462,15.33711 3.33551,23.02102c0.23527,2.28576 -0.08986,4.55285 0.29421,6.83886c0.62851,5.14131 0.88067,10.13549 1.29994,15.29468c0.31239,1.66731 0.66634,3.32843 1.07957,4.98137zM346.1201,258.66056c-1.37352,-5.26841 -2.88628,-10.80212 -3.52854,-16.2181c-0.58211,-4.90884 -0.11907,-10.11244 -0.11907,-15.05098c0,-3.63647 0.1552,-7.32637 -0.01103,-10.97853c-0.4121,-3.34757 -0.97706,-6.59116 -1.27756,-9.90163c-0.34611,-1.94115 -0.69782,-3.88084 -0.96824,-5.83513c-1.6362,-0.17318 -4.02391,0.12027 -5.11133,0.07588c-5.49397,-0.22424 -10.90667,-0.53448 -16.39375,-0.11568c-5.16545,0.00187 -10.34345,1.13816 -15.2919,1.19765l-0.06113,-0.02477c-0.3275,1.31561 -0.77498,2.59571 -1.20729,3.8809c-1.1076,6.93144 -2.19091,13.95467 -2.68578,20.8778c-0.66487,9.25234 -1.96846,18.41725 -3.177,27.56766c-1.32409,10.0252 -2.998,19.95728 -4.39835,29.96516c-0.87684,4.97107 -0.68522,9.95718 -1.44178,14.89967c-0.79616,5.20122 -1.65223,10.38798 -2.10276,15.64297c-0.11268,0.14195 -0.4038,0.30637 -0.50176,0.44646c-0.0049,0.0459 -0.00984,0.0918 -0.01482,0.1377c0.00738,0.01007 0.01716,0.01985 0.0296,0.02929c0.56154,0.42624 1.38862,-0.29985 2.09361,-0.29985c2.49397,0 4.98794,0 7.48192,0c5.99156,0 11.98313,0 17.97469,0c10.37252,0 20.74503,0 31.11755,0c1.79325,0 3.5865,0 5.37975,0c0.16931,0 0.35082,0.038 0.53605,0.08999c-0.0373,-1.41398 -0.08516,-2.72519 -0.37853,-4.24304c-1.12106,-5.80026 -0.87797,-11.87108 -1.71429,-17.72445c-1.40787,-9.85505 -3.65354,-20.08227 -4.04237,-30.01889c-0.05544,-1.44144 -0.10781,-2.876 -0.16127,-4.30536c-0.00819,-0.03158 -0.0164,-0.06317 -0.02463,-0.09474zM340.39722,196.7675l-0.00912,-0.0166c-0.90594,0.02939 -1.85138,0.17786 -2.80978,0.37108c0.96956,0.03711 1.9451,0.10575 2.92825,0.21233c-0.03487,-0.19032 -0.07137,-0.37936 -0.10936,-0.56682zM336.66425,199.3145c0.7427,0.03032 2.07826,-0.04763 3.32837,0.01916c-0.04676,-0.18612 -0.09351,-0.37224 -0.14027,-0.55836c-3.79156,-0.36301 -7.47308,-0.16458 -11.13873,0.21232c2.64551,0.08033 5.29285,0.2184 7.95063,0.32688zM286.35083,318.24523c-0.25384,-3.52125 0.14024,-7.16301 0.45808,-10.67183c0.61505,-6.7898 0.47456,-13.4677 1.82364,-20.222c2.01772,-10.08862 3.4611,-20.23853 4.79987,-30.43804c0.10712,-0.8161 0.20009,-1.63801 0.28192,-2.46464c-0.07574,0.44791 -0.1528,0.89554 -0.23133,1.34285c-1.77456,10.10731 -3.64402,20.2013 -5.19152,30.34602c-1.54489,10.12757 -2.9433,20.43489 -2.98087,30.69281c0.09442,0.46584 0.18883,0.93169 0.28325,1.39753l0.00054,0.02115c0.25513,0 0.51027,0 0.7654,0c-0.00299,-0.00128 -0.00599,-0.00257 -0.00898,-0.00385zM302.83862,200.03187c0.04073,0.00276 0.08356,0.00846 0.1286,0.01747c0.23937,0.04788 0.38525,0.15807 0.47314,0.28496c0.85406,0.00669 1.67382,-0.35469 2.49872,-0.57855c0.16876,-0.0458 0.33992,-0.08874 0.51328,-0.129c-1.22675,0.06805 -2.45573,0.16587 -3.69245,0.31203c0.03033,0.0294 0.05637,0.06071 0.07871,0.0931zM353.8212,311.99036c0.10409,0.54071 0.28973,1.74816 0.37123,3.00002c0.3364,-0.908 -0.45698,-4.43055 -0.51869,-5.18106c-0.00756,-0.09192 -0.01506,-0.18378 -0.02251,-0.27559c-0.26623,-1.43086 -0.50248,-2.86614 -0.71978,-4.30464c0.19838,2.26781 0.4595,4.52652 0.88974,6.76127zM352.05197,287.33838c-0.42811,-4.05222 -0.9804,-8.11338 -1.5929,-12.16317c0.51918,4.39025 0.98273,8.79393 1.66821,13.1885c-0.01543,-0.34147 -0.03916,-0.6832 -0.07531,-1.02533zM342.79183,205.44624c-0.06043,-0.11719 -0.143,-0.36154 -0.23754,-0.67814c0.02945,0.49392 0.06639,0.98571 0.10944,1.47592c0.06287,0.35423 0.12554,0.70851 0.1875,1.06294c-0.04822,-0.62356 -0.07029,-1.24404 -0.05939,-1.86072zM287.5661,317.36596c9.87129,-0.12637 19.75079,-0.0147 29.62293,-0.0147c10.49277,0 20.98553,0 31.4783,0c0.37687,0 3.84303,0.34044 3.98181,0.2078c0.24183,-0.23113 -0.15034,-0.65594 -0.16313,-0.99021c-0.00094,-0.02447 -0.00186,-0.0489 -0.00276,-0.07327c-1.97848,0.05678 -3.98694,-0.03853 -5.95787,-0.03853c-10.37252,0 -20.74503,0 -31.11755,0c-7.48554,0 -14.97107,0 -22.4566,0c-0.83398,0 -3.67269,0.32153 -5.2766,0.0831c-0.03458,0.27533 -0.07072,0.5506 -0.10853,0.82581zM288.96476,298.77262c0.47474,-3.0763 0.57733,-6.17405 0.79917,-9.2742c-0.61009,3.65645 -0.88242,7.32514 -1.06706,10.99718c0.08972,-0.5743 0.17925,-1.1486 0.26789,-1.72298zM297.9446,226.79069c-0.03429,0.12868 -0.06796,0.25758 -0.10105,0.38667c-0.58609,3.28901 -1.08969,6.59695 -1.56709,9.91127c-0.28746,3.33872 -0.4144,6.72508 -0.57547,10.08504c0.89614,-6.76646 1.7464,-13.55064 2.24362,-20.38298z" fill="#000000" stroke="none" stroke-width="0.5" stroke-linecap="butt"/><path d="M346.1947,258.75692c0.05346,1.42936 0.10491,2.87195 0.16035,4.31339c0.38883,9.93662 2.61803,20.19211 4.02589,30.04715c0.83631,5.85336 0.58648,11.92907 1.70754,17.72933c0.29337,1.51786 0.34,2.82979 0.3773,4.24376c-0.18523,-0.05198 -0.36702,-0.08983 -0.53633,-0.08983c-1.79325,0 -3.58983,0.00169 -5.38308,0.00169c-10.37252,0 -20.77015,0.00445 -31.14267,0.00445c-5.99156,0 -11.99748,-0.00338 -17.98904,-0.00338c-2.49397,0 -4.99284,-0.00226 -7.48682,-0.00226c-0.70499,0 -1.53321,0.72546 -2.09474,0.29922c-0.01243,-0.00944 -0.02225,-0.01923 -0.02963,-0.0293c0.00498,-0.04589 0.05906,-0.17888 0.06396,-0.22478c0.09796,-0.14009 0.34004,-0.21736 0.45273,-0.35931c0.45053,-5.25499 1.30175,-10.44485 2.09792,-15.64607c0.75656,-4.94249 0.55755,-9.93514 1.43439,-14.9062c1.40035,-10.00789 3.06155,-19.98178 4.38564,-30.00697c1.20855,-9.15041 2.53398,-18.34924 3.19886,-27.60158c0.49487,-6.92314 1.58943,-13.9519 2.69702,-20.88334c0.43231,-1.28519 0.88174,-2.56592 1.20924,-3.88153l0.06117,0.02476c4.94845,-0.05949 10.13949,-1.19786 15.30494,-1.19973c5.48708,-0.4188 10.91368,-0.10695 16.40766,0.11729c1.08742,0.04439 3.47902,-0.24787 5.11522,-0.07469c0.27042,1.95429 0.62452,3.89488 0.97064,5.83603c0.3005,3.31046 0.8702,6.5563 1.2823,9.90387c0.16623,3.65216 0.01687,7.34574 0.01687,10.98221c0,4.93854 -0.4514,10.15412 0.13072,15.06296c0.64225,5.41599 2.16382,10.9795 3.53734,16.24791c0.00823,0.03157 0.01644,0.06334 0.02463,0.09492z" fill="#ffffff" stroke="none" stroke-width="0.5" stroke-linecap="butt"/><g stroke="none" stroke-width="0.5" stroke-linecap="butt"><path d="M377.69345,180.06087c-2.09647,3.69461 -4.51096,7.25033 -7.35253,10.31561c-2.49277,2.68901 -6.01582,3.90502 -8.85124,6.06911c-3.12378,1.63863 -6.38049,3.03072 -9.70571,4.26734c-5.73267,2.33439 -11.34091,4.16224 -17.10809,5.36946c-0.81761,0.23543 -1.63285,0.47076 -2.44482,0.70728c-3.18491,0.921 -6.64387,0.99412 -9.9017,1.1778c-1.65692,0.09341 -3.3383,0.1626 -5.02558,0.17876c-2.58065,0.2435 -5.17423,0.42493 -7.60258,0.22724c-0.38012,-0.03095 -0.76183,-0.07153 -1.14471,-0.12086c-1.27995,0.01257 -2.55831,0.04581 -3.83865,0.12799c0.0177,0.11931 0.00333,0.26117 -0.06473,0.42811c-0.2876,0.70558 -0.95868,0.44797 -0.95868,0.44797c-7.43853,-2.85543 -16.18144,-5.0059 -22.62362,-9.62105c-3.41219,-3.38336 -8.68439,-4.76824 -11.99823,-8.39879c-1.87068,-2.04946 -3.24782,-4.91703 -4.30379,-7.84325c-0.09942,-0.15772 -0.19846,-0.3149 -0.29729,-0.47125c-3.75338,-5.9375 -6.6609,-12.2989 -8.30274,-19.2337c-1.16228,-4.92936 -1.48745,-9.78156 -1.25366,-14.63967c-0.37088,-3.0649 -0.58246,-6.15212 -0.60783,-9.24608c0.46956,-7.30014 3.77999,-13.29686 7.60872,-19.2866c1.35928,-2.63338 2.94193,-5.16283 4.71881,-7.45801c0.35335,-0.52533 0.73496,-1.03767 1.17084,-1.52981c7.07935,-7.95502 14.81554,-13.83229 24.47922,-17.71447c4.52763,-1.92439 9.18259,-3.14761 13.89819,-3.95984c1.16107,-0.42397 2.29473,-0.82724 3.57355,-0.99717c7.50921,-0.97433 15.16435,-1.8602 22.63934,-1.28548c0.67246,-0.02756 1.33831,-0.031 1.99039,0.00646c0.74356,0.0427 1.51205,0.13579 2.29765,0.27263c4.43816,0.31243 8.7295,1.30404 12.61887,3.73046c3.12748,1.96547 7.05186,3.19541 9.91873,5.54035c3.86316,3.15985 6.94272,7.57352 9.41004,12.22189c1.36605,2.57361 2.70086,5.19754 4.0053,7.85202c0.31745,0.49297 0.63198,0.98653 0.94327,1.48093c1.24031,1.77182 2.40565,3.59724 3.44826,5.50707c2.01372,3.69167 4.35257,7.39902 5.72032,11.44068c0.60472,1.78692 1.02103,3.70006 1.29554,5.66843c0.27943,1.05584 0.53166,2.12669 0.75464,3.21411c0.22676,1.37526 0.39829,2.75761 0.51381,4.14365c1.05018,5.28962 1.19616,10.76251 -0.28552,16.25382c-1.47825,5.44177 -4.09096,10.53503 -7.33379,15.15687zM294.90773,204.23917c-4.93347,-1.8154 -9.58948,-4.10473 -14.02532,-6.77433c0.398,0.31031 0.78097,0.63649 1.14463,0.98324c5.91706,4.19078 13.8023,6.30346 20.75874,8.84265c0.08103,-0.11364 0.19081,-0.18606 0.29183,-0.23192c-2.81757,-0.81899 -5.59436,-1.87699 -8.16987,-2.81964zM257.01484,160.46751c0.16138,0.92791 0.35196,1.85805 0.5738,2.79102c0.66738,2.81888 1.54885,5.53989 2.61496,8.17438c-0.21327,-0.74097 -0.42869,-1.47672 -0.66458,-2.19037c-0.94816,-2.87322 -1.79841,-5.80335 -2.52418,-8.77503zM282.6076,196.72825c3.21384,1.88475 6.54674,3.56394 10.02065,4.99355c-2.10143,-1.0381 -4.18862,-2.10905 -6.28781,-3.16616c-1.23303,-0.62093 -2.48832,-1.21383 -3.73283,-1.82739zM257.77648,131.15554c-1.07457,2.70163 -1.80997,5.53741 -2.00961,8.60824c0.00343,0.36747 0.00951,0.73486 0.01821,1.10215c0.41273,-2.61248 0.94049,-5.23992 1.54089,-7.89499c0.13644,-0.60063 0.28672,-1.20627 0.45051,-1.8154zM269.69236,189.63493c0.15224,0.1863 0.30822,0.36648 0.46807,0.53999c1.8146,1.96962 4.20311,3.29027 6.55645,4.63167c-2.37432,-1.60172 -4.6871,-3.31022 -6.948,-5.10975c-0.02559,-0.02052 -0.0511,-0.04116 -0.07652,-0.06191zM364.933,192.60265c1.58099,-0.90846 3.12812,-1.87017 4.37538,-3.22862c0.56017,-0.61011 1.10332,-1.23861 1.63035,-1.88295c-0.05739,-0.03186 -0.11552,-0.07485 -0.17365,-0.13128c-0.51626,-0.50123 0,-1.06066 0,-1.06066l0.29134,-0.3157c1.9062,-2.06316 3.71985,-4.27114 5.369,-6.60524c1.17091,-2.05626 2.24164,-4.15893 3.23248,-6.25041c2.15893,-4.68498 3.49908,-9.60656 4.0643,-14.58859c-1.49003,8.13515 -5.21735,15.64156 -10.07175,22.53636c-2.08135,4.39095 -5.12327,8.2822 -8.71744,11.52709zM281.78029,102.25246c-2.90492,1.8153 -5.70414,3.78576 -8.34205,5.87041c-2.07273,1.63515 -3.98778,3.63572 -5.71427,5.86901c-0.75322,1.13052 -1.36852,2.33092 -2.13322,3.5029c-0.82015,1.25696 -1.64253,2.50299 -2.44342,3.7503c-2.01558,3.92021 -3.51896,8.07443 -4.39997,11.9893c-0.31151,1.37754 -0.6039,2.74755 -0.87068,4.11184c1.9828,-5.74667 5.0936,-11.18851 8.14912,-16.45992c3.96846,-7.54699 9.34518,-13.4738 15.75448,-18.63384zM264.89797,178.88885c3.06762,4.82763 8.00145,9.46681 11.91783,12.59859c3.05666,2.44992 6.74608,3.96063 10.2235,5.71176c5.11707,2.57681 10.16145,5.23961 15.52062,7.29514c4.6085,1.77575 9.72779,2.20659 14.78032,2.15393c2.01351,-0.19213 4.01945,-0.42337 5.92805,-0.53668c3.82747,-0.22723 7.51564,-0.73345 11.13898,-1.48917c5.58159,-1.60569 11.27714,-3.21559 16.78283,-5.2528c0.35611,-0.14461 0.71272,-0.29121 1.06991,-0.43977c8.34582,-3.47114 16.10694,-10.03722 20.14828,-18.57286c5.74057,-8.21576 9.94536,-17.18489 10.49814,-27.19674c0.14327,-2.58243 0.19818,-5.33164 0.03698,-8.05613c-0.95817,-3.37104 -2.22867,-6.64126 -3.58821,-9.7568c-2.42803,-5.56996 -4.98481,-11.19242 -7.67158,-16.691c-3.97733,-5.44349 -8.62529,-10.38865 -12.28079,-15.94983c-2.14785,-1.34982 -3.8338,-3.466 -5.65739,-5.44797c-0.12807,-0.09383 -0.25659,-0.18673 -0.38557,-0.27867c-3.02198,-2.15523 -7.26121,-4.53389 -11.52205,-6.11784c-1.28017,-0.32715 -2.55292,-0.642 -3.76488,-1.0003c-1.4454,-0.28898 -2.90189,-0.50517 -4.36675,-0.65958c-1.44614,-0.01482 -2.902,0.02673 -4.35692,0.09698c-0.79146,0.07416 -1.57712,0.14719 -2.34445,0.19046c-10.08932,0.56881 -19.26175,1.21682 -28.98921,4.763c-0.39188,0.14284 -0.78365,0.2893 -1.1752,0.43932c-3.36379,1.37165 -6.58106,3.03019 -9.69286,5.33152c-8.25365,5.83665 -15.08873,12.4778 -19.86178,21.54999c-4.8886,8.43817 -10.06104,17.38206 -10.06306,27.32253c0.60817,5.49768 1.7393,11.30371 3.04321,16.64357c1.00198,4.10336 2.98733,7.78776 4.21287,11.81135c0.132,0.49698 0.27128,1.01161 0.41917,1.53802zM273.09458,190.34572c-1.95515,-1.73213 -3.97951,-3.71344 -5.81576,-5.82494c0.98628,1.48234 2.07563,2.90651 3.42246,3.9691c0.79107,0.62964 1.5887,1.24854 2.3933,1.85584zM356.032,96.7801c0.57115,0.55675 1.11898,1.12566 1.63562,1.69552c2.9193,2.58953 5.59317,5.61402 8.05846,8.7987c-2.07636,-3.41046 -4.52758,-6.52916 -7.44013,-8.94854c-0.69133,-0.57426 -1.45282,-1.08017 -2.25395,-1.54568z" fill="#000000"/><path d="M358.25726,98.28484c2.91255,2.41938 5.4264,5.61575 7.50276,9.02621c-2.46529,-3.18468 -5.13955,-6.2088 -8.05885,-8.79833c-0.51664,-0.56986 -1.13193,-1.2126 -1.70309,-1.76935c0.80113,0.46551 1.56786,0.9672 2.25919,1.54147z" fill="#ffffff"/><path d="M373.65655,181.02593c4.8544,-6.8948 8.59976,-14.39535 10.08979,-22.53051c-0.56522,4.98203 -1.88407,9.92656 -4.04299,14.61154c-0.99084,2.09148 -2.08289,4.25877 -3.2538,6.31503c-1.64915,2.3341 -3.50192,4.54598 -5.40812,6.60914l-0.29211,0.31545c0,0 -0.48604,0.46412 0.03022,0.96535c0.05813,0.05643 0.08812,0.19538 0.14552,0.22724c-0.52703,0.64434 -1.07359,1.27174 -1.63376,1.88184c-1.24727,1.35845 -2.75316,2.2294 -4.33415,3.13786c3.59417,-3.24489 6.61804,-7.14199 8.6994,-11.53294z" fill="#ffffff"/><path d="M270.72317,188.53484c-1.34683,-1.06259 -2.4934,-2.5671 -3.47968,-4.04944c1.83625,2.1115 3.93127,4.16358 5.88642,5.89571c-0.8046,-0.6073 -1.61567,-1.21663 -2.40674,-1.84627z" fill="#ffffff"/><path d="M269.80918,189.72644c2.2609,1.79952 4.57365,3.50807 6.94797,5.10979c-2.35334,-1.3414 -4.82362,-2.71959 -6.63822,-4.68921c-0.15985,-0.17351 -0.3146,-0.35545 -0.46684,-0.54174c0.02542,0.02075 0.13149,0.10063 0.15708,0.12116z" fill="#ffffff"/><path d="M286.29615,198.53244c2.0992,1.05711 4.27543,2.17357 6.37685,3.21167c-3.47391,-1.42961 -6.8963,-3.1534 -10.11014,-5.03815c1.24451,0.61356 2.50026,1.20556 3.73329,1.82648z" fill="#ffffff"/><path d="M303.03154,207.03937c-0.10102,0.04586 -0.11922,0.15841 -0.20025,0.27206c-6.95643,-2.53919 -14.9337,-4.69093 -20.85076,-8.8817c-0.36366,-0.34676 -0.65439,-0.63433 -1.05239,-0.94464c4.43584,2.6696 9.00394,4.91186 13.93741,6.72726c2.57552,0.94264 5.34843,2.00803 8.166,2.82702z" fill="#ffffff"/><path d="M257.317,133.02014c-0.6004,2.65507 -1.12914,5.28231 -1.54188,7.89479c-0.0087,-0.36729 -0.01776,-0.73538 -0.02119,-1.10285c0.19965,-3.07083 0.95811,-6.00387 2.03268,-8.7055c-0.16379,0.60914 -0.33318,1.31293 -0.46961,1.91356z" fill="#ffffff"/><path d="M266.07388,120.87256c-3.05552,5.27141 -6.18624,10.68567 -8.16904,16.43233c0.26679,-1.3643 0.49921,-2.6544 0.81072,-4.03195c0.88101,-3.91487 2.36733,-8.09709 4.3829,-12.0173c0.8009,-1.2473 1.62822,-2.52781 2.44837,-3.78477c0.7647,-1.17198 1.40689,-2.3955 2.16011,-3.52602c1.72649,-2.23329 3.67334,-4.23462 5.74607,-5.86977c2.6379,-2.08465 5.39421,-3.96601 8.29913,-5.78131c-6.40931,5.16004 -11.70981,11.03178 -15.67827,18.57877z" fill="#ffffff"/><path d="M264.4346,177.3742c-1.22553,-4.02358 -3.21465,-7.71724 -4.21662,-11.8206c-1.30391,-5.33986 -2.43707,-11.15923 -3.04524,-16.65691c0.00203,-9.94047 5.17971,-18.90744 10.06831,-27.34562c4.77305,-9.07219 11.62452,-15.73222 19.87817,-21.56886c3.1118,-2.30133 6.33738,-3.96449 9.70117,-5.33614c0.39155,-0.15002 0.78432,-0.2969 1.1762,-0.43974c9.72746,-3.54618 18.92478,-4.19762 29.0141,-4.76643c0.76733,-0.04326 1.55491,-0.11602 2.34637,-0.19018c1.45492,-0.07024 2.91429,-0.11112 4.36042,-0.0963c1.46486,0.1544 2.92484,0.37153 4.37024,0.66052c1.21197,0.3583 2.48773,0.6742 3.7679,1.00135c4.26084,1.58395 8.5096,3.96746 11.53159,6.12269c0.12898,0.09194 0.25783,0.18505 0.3859,0.27889c1.82358,1.98198 3.51469,4.10207 5.66253,5.45189c3.6555,5.56118 8.31416,10.51941 12.29148,15.9629c2.68676,5.49858 5.24898,11.13533 7.67701,16.7053c1.35954,3.11554 2.63108,6.39391 3.58925,9.76495c0.1612,2.72448 0.10616,5.4801 -0.0371,8.06252c-0.55278,10.01185 -4.7649,19.00319 -10.50547,27.21894c-4.04134,8.53563 -11.8183,15.11767 -20.16412,18.5888c-0.35719,0.14856 -0.71461,0.29566 -1.07072,0.44027c-5.5057,2.03721 -11.21487,3.65278 -16.79647,5.25848c-3.62334,0.75572 -7.32102,1.26338 -11.14849,1.49061c-1.9086,0.11331 -3.91961,0.34457 -5.93312,0.5367c-5.05253,0.05266 -10.18428,-0.38037 -14.79278,-2.15612c-5.35917,-2.05553 -10.41659,-4.72457 -15.53366,-7.30138c-3.47742,-1.75113 -7.17422,-3.2679 -10.23089,-5.71782c-3.91638,-3.13178 -8.85857,-7.78197 -11.92619,-12.6096c-0.14788,-0.52641 -0.28776,-1.04212 -0.41976,-1.5391z" fill="#ffffff"/></g><path d="M347.32201,192.94729c-0.65118,0.37211 -1.02328,-0.27908 -1.02328,-0.27908l-0.17716,-0.31002c-0.29867,-0.52847 -0.62201,-1.05501 -1.01729,-1.51603c-1.43399,0.34131 -3.00506,0.36122 -4.25563,0.36122c-0.044,0 -0.088,0 -0.132,0c1.95393,2.20616 6.41161,3.22436 8.40167,0.53421c0.50367,-0.68085 0.27902,-1.66338 0.40724,-2.50742c-0.24403,-0.30504 -0.48807,-0.61007 -0.7321,-0.91511c-0.25022,0.37436 -0.54375,0.7368 -0.88054,1.08286c-0.37523,0.38557 -0.82267,0.6889 -1.31572,0.9275c0.30212,0.41132 0.57258,0.84805 0.82673,1.28856l0.17716,0.31002c0,0 0.3721,0.65118 -0.27908,1.02328zM349.83897,187.22076c0.06761,0.08451 0.13521,0.16901 0.20282,0.25352c0.11277,-0.05887 0.25818,-0.09044 0.44545,-0.06979c0.74548,0.08221 0.66327,0.82769 0.66327,0.82769l-0.12372,1.11659c-0.06558,0.34344 -0.5715,3.10372 -0.70257,3.2809c-2.8521,3.85546 -9.26995,2.14417 -11.38833,-1.32973c0,0 -0.02207,-0.03679 -0.04686,-0.09804c-9.69115,-0.0152 -19.43499,-0.15407 -29.09896,-0.74322c-5.49203,-0.33482 -11.74423,-1.11724 -16.32015,-4.36615c-1.05567,-0.74953 -2.78584,-1.44002 -3.21069,-2.79271c-0.34911,-1.11151 0.06652,-2.89192 0.20396,-3.99582c0,0 0.09302,-0.74421 0.83723,-0.65118c0.74421,0.09303 0.65118,0.83723 0.65118,0.83723c-0.11824,0.94196 -0.47722,2.41179 -0.25673,3.3751c0.16685,0.72897 2.11954,1.63183 2.64383,2.00459c4.33632,3.08306 10.33988,3.77454 15.54264,4.09172c10.28553,0.62705 20.66098,0.74193 30.96732,0.74193c3.79246,0 10.43841,-2.85426 6.62804,-7.59549l-0.70869,-0.14055c0,0 -0.7276,-0.18191 -0.5457,-0.90951c0.1819,-0.72761 0.90951,-0.5457 0.90951,-0.5457l1.13404,0.32013c1.58213,1.78569 1.99657,4.01108 1.25155,6.06289z" fill="#000000" stroke="none" stroke-width="0.5" stroke-linecap="butt"/><g fill="#000000" stroke="none" stroke-width="0.5" stroke-linecap="butt"><path d="M365.7252,157.06255c-1.54766,2.10784 -3.44557,3.86348 -5.64927,5.0504c-8.54436,4.57498 -20.92457,4.65657 -29.89294,1.16262c-0.20235,-0.13207 -0.43742,-0.26824 -0.68937,-0.40937c-0.37227,0.44419 -0.91768,0.14119 -0.91768,0.14119c-8.03119,-4.46177 -8.41178,-14.23177 -6.74619,-22.31613c0.65,-3.14167 1.10856,-6.60692 2.51743,-9.52751c3.20865,-6.65155 11.11888,-8.70071 17.64846,-10.32868c10.04102,0.50229 22.89079,3.59241 27.04778,13.70445c0.62518,1.52077 1.03592,3.17199 1.24539,4.88961c0.21646,0.77433 0.41107,1.51243 0.58822,2.18093c0.10738,5.72662 -0.41651,9.89805 -3.77584,14.72084l-0.54577,0.56234c0,0 -0.38689,0.38689 -0.83021,0.16932zM358.35222,125.99649c-5.02564,-2.38378 -11.05016,-3.34885 -16.20862,-3.66874c-4.3786,1.18567 -9.53866,2.39757 -13.16722,5.37558c5.23665,-3.31208 12.77756,-3.18872 19.11327,-3.18581c3.16777,0.26263 6.85524,0.55642 10.26256,1.47898zM322.54157,146.86067c-0.16827,4.00421 0.46556,8.01573 2.6384,11.13712c-0.3216,-0.88699 -0.58141,-1.79748 -0.8528,-2.65739c-0.85492,-2.70881 -1.48641,-5.57774 -1.78559,-8.47972zM368.80644,139.67177c-0.79665,-2.85177 -1.89512,-6.26938 -3.57051,-8.14615c-4.04071,-4.5264 -11.54754,-5.03513 -17.20861,-5.5094c-8.67011,0.00416 -20.4136,-0.57685 -23.26673,9.97857c-1.66852,6.11065 -0.88936,12.92408 0.99695,18.8939c0.5391,1.70614 1.00111,3.66301 2.12177,5.11208c0.58515,0.75663 2.18452,1.40887 2.98953,1.94077c8.54389,3.27327 20.37849,3.19709 28.49905,-1.15097c6.75964,-3.59575 10.38139,-13.18612 9.43856,-21.11881z"/><path d="M314.55869,131.9135c-0.13414,0.07348 -0.25591,0.10463 -0.36477,0.10764c1.47426,3.62231 2.21614,7.56215 2.61873,11.45713c0.21334,2.10112 0.44835,5.5839 -0.29369,7.60331c-2.53179,6.89011 -12.636,12.36995 -19.56441,12.44822c-7.34924,0.04932 -14.03012,-3.3358 -18.97898,-8.49471c-0.28447,0.05377 -0.54319,-0.09407 -0.54319,-0.09407c-5.75976,-3.33408 -8.05522,-11.34874 -7.04534,-17.70933c0.37585,-2.36721 1.76019,-4.9337 2.57292,-7.19372c3.28502,-9.135 13.89724,-13.90311 23.27835,-12.19241c4.53401,0.51653 8.93094,2.1867 12.66675,4.99031c2.52145,2.11121 4.28441,5.01853 5.85435,7.88298l0.09672,0.17656c0,0 0.36033,0.65777 -0.29743,1.0181zM296.25653,119.3525c-4.45672,-0.5418 -9.0637,0.09786 -13.25603,1.93461c-5.83731,4.86703 -9.98115,10.33496 -9.97069,18.25433c0.00258,1.95546 -0.33253,4.73424 0.54501,6.49726c4.27599,9.01307 13.11938,16.05992 23.36964,15.99113c6.31073,-0.00907 15.82244,-5.19555 18.15806,-11.44197c0.67032,-1.79272 0.41633,-5.07341 0.21806,-6.95537c-0.68272,-6.60521 -2.32714,-13.36413 -7.18357,-18.29881c-2.39104,-2.42957 -5.63196,-3.79815 -8.71803,-5.03258c-1.0227,-0.41477 -2.08216,-0.72954 -3.16246,-0.9486z"/><path d="M300.06484,146.65092c0.85041,-0.12462 1.77338,-0.24379 1.90682,-0.19221c0.53893,0.20828 0.96377,0.55645 1.27947,0.98883c0.76074,0.2029 1.36714,0.73194 1.7151,1.85933c0.18379,0.59547 0.56464,1.21531 0.42064,1.82163c-0.29841,1.25647 -1.48218,2.218 -2.80532,2.59033c-0.02852,0.54475 -0.12601,0.97049 -0.33624,1.14278c-0.54332,0.44524 -1.40578,-0.04763 -2.10333,-0.1305c-0.77013,-0.09151 -1.50572,-0.25813 -2.16944,-0.51121c-0.69444,-0.15949 -3.05441,-0.70122 -3.25056,-0.87527c-0.36539,-0.32422 -0.59088,-0.84681 -0.68863,-1.4384c-0.44221,-1.23092 -0.12214,-2.78891 0.91909,-3.71011c0.02974,-0.23977 0.1019,-0.45903 0.26541,-0.63188c0.23208,-0.24534 2.92153,-0.61678 3.40431,-0.69106c0.11581,-0.01782 0.42631,-0.06785 0.81458,-0.12768c0.10192,-0.07977 0.20042,-0.16195 0.29218,-0.24886c0.06733,0.0322 0.18446,0.08518 0.33594,0.15428zM301.1592,149.10556c0.15032,0.03807 0.29655,0.07559 0.43765,0.11151c0.03873,-0.05252 0.06679,-0.10526 0.08261,-0.15771c-0.03149,0.00687 -0.06239,0.0121 -0.0926,0.01546c-0.12358,0.01373 -0.26756,0.02357 -0.42766,0.03074zM296.57722,150.9144c0.27708,1.0061 0.92724,1.42063 1.83861,1.73691c0.1517,-0.04297 0.32264,-0.08663 0.50547,-0.13161c-0.08698,-0.23959 -0.18218,-0.54404 -0.2772,-0.88119c-0.75871,-0.14937 -1.44484,-0.52322 -1.85496,-1.11105c-0.08375,0.10814 -0.15507,0.23615 -0.21191,0.38694zM302.34565,150.58206c0.05255,-0.18546 0.08831,-0.38134 0.10564,-0.57997c-0.05574,0.06549 -0.11018,0.13089 -0.1614,0.19642c0.0179,0.1204 0.03668,0.24886 0.05575,0.38355zM298.04077,149.99877c0.06186,0.05515 0.1399,0.09893 0.2309,0.13238c-0.00948,-0.04426 -0.0188,-0.08836 -0.02792,-0.13222c-0.06862,-0.00191 -0.13634,-0.00206 -0.20298,-0.00017z"/><path d="M344.33578,134.68085c-1.86352,0.79333 -4.52403,1.20388 -5.88995,0.76078c-2.12437,-0.68913 -2.38555,-3.59587 -0.68491,-4.97338c0.22265,-0.18034 2.95227,-0.39969 3.39029,-0.44018c0.99575,-0.09205 1.98931,-0.21213 2.98726,-0.27616c1.2344,-0.07921 4.72935,1.03715 4.09222,3.2122c-0.19904,0.67948 -1.2262,0.71201 -1.86762,1.01182c-0.40758,0.19051 -1.15512,0.46345 -2.02728,0.70492zM343.19838,133.00139c0.09947,-0.04672 0.20132,-0.09732 0.30616,-0.15236c-0.15303,0.05517 -0.30829,0.1074 -0.46522,0.15643c0.05329,-0.0009 0.10638,-0.00225 0.15906,-0.00407z"/></g></g></g></svg>