<svg version="1.1" xmlns="http://www.w3.org/2000/svg" xmlns:xlink="http://www.w3.org/1999/xlink" width="213.18203" height="296.04643" viewBox="0,0,213.18203,296.04643"><defs><linearGradient x1="318.8233" y1="28.8205" x2="318.8233" y2="104.98048" gradientUnits="userSpaceOnUse" id="color-1"><stop offset="0" stop-color="#015bb1"/><stop offset="1" stop-color="#0228d6"/></linearGradient><linearGradient x1="359.21245" y1="61.56716" x2="359.21245" y2="149.47659" gradientUnits="userSpaceOnUse" id="color-2"><stop offset="0" stop-color="#015bb1"/><stop offset="1" stop-color="#0228d6"/></linearGradient><linearGradient x1="274.07496" y1="61.56715" x2="274.07496" y2="144.68816" gradientUnits="userSpaceOnUse" id="color-3"><stop offset="0" stop-color="#015bb1"/><stop offset="1" stop-color="#0228d6"/></linearGradient></defs><g transform="translate(-214.52367,-23.02584)"><g stroke-miterlimit="10"><g stroke-linecap="butt"><path d="M286.35186,319.07226l15.14285,-131.8421l37.78325,-0.15789l13.57389,132z" fill="#015bb1" stroke="#000000" stroke-width="0"/><path d="M296.40076,231.58092c1.98365,-17.27074 5.09395,-44.35075 5.09395,-44.35075l37.78325,-0.15789c0,0 2.84584,27.67453 4.64488,45.16932c0.02089,0.20314 -47.54236,-0.48407 -47.52208,-0.66067z" fill="#0251ac" stroke="#000000" stroke-width="0"/><path d="M297.22279,224.42394c1.75057,-15.24143 4.27193,-37.19378 4.27193,-37.19378l37.78325,-0.15789c0,0 2.28936,21.9637 3.87102,37.3446c0.00241,0.02341 -45.9531,0.24133 -45.92619,0.00707z" fill="#0245b4" stroke="#000000" stroke-width="0"/><path d="M298.04481,217.26696c1.49039,-12.97617 3.44991,-30.0368 3.44991,-30.0368l37.78325,-0.15789c0,0 1.74142,16.93454 3.06983,29.85275c0.02378,0.23119 -44.31952,0.48586 -44.30299,0.34195z" fill="#0221b0" stroke="#000000" stroke-width="0"/><path d="M297.8697,217.75081c0,-0.9665 0.7835,-1.75 1.75,-1.75c0.9665,0 1.75,0.7835 1.75,1.75c0,0.9665 -0.7835,1.75 -1.75,1.75c-0.9665,0 -1.75,-0.7835 -1.75,-1.75z" fill="#0221b0" stroke="none" stroke-width="0.5"/><path d="M338.87007,217.15139c0,-0.9665 0.7835,-1.75 1.75,-1.75c0.9665,0 1.75,0.7835 1.75,1.75c0,0.9665 -0.7835,1.75 -1.75,1.75c-0.9665,0 -1.75,-0.7835 -1.75,-1.75z" fill="#0221b0" stroke="none" stroke-width="0.5"/><path d="M337.26331,215.42185c0.69036,0 1.25,0.55964 1.25,1.25c0,0.33427 -0.13121,0.6379 -0.34493,0.86219c-0.06784,0.8396 -0.72832,1.51179 -1.56266,1.5978c-0.20398,0.08329 -0.42719,0.1292 -0.66114,0.1292c-0.9665,0 -1.75,-0.7835 -1.75,-1.75c0,-0.90518 0.68724,-1.64985 1.5684,-1.7407c0.20398,-0.08329 0.42719,-0.12919 0.66114,-0.12919c0.04215,0 0.08396,0.00149 0.12537,0.00442c0.20238,-0.14103 0.44844,-0.22373 0.71382,-0.22373z" fill="#0221b0" stroke="none" stroke-width="0.5"/><path d="M329.2998,220.14849c0,-0.54854 0.35334,-1.01456 0.84483,-1.18287c-0.45725,-0.22253 -0.80308,-0.63839 -0.93114,-1.14124c-0.23149,0.69544 -0.88758,1.19689 -1.66079,1.19689c-0.9665,0 -1.75,-0.7835 -1.75,-1.75c0,-0.9665 0.7835,-1.75 1.75,-1.75c0.81697,0 1.50318,0.55982 1.69596,1.31678c0.23149,-0.69544 0.88759,-1.19689 1.6608,-1.19689c0.9665,0 1.75,0.7835 1.75,1.75c0,0.85192 -0.60875,1.56167 -1.41499,1.71797c0.33488,0.22426 0.55534,0.60607 0.55534,1.03937c0,0.69036 -0.55964,1.25 -1.25,1.25c-0.69036,0 -1.25,-0.55964 -1.25,-1.25z" fill="#0221b0" stroke="none" stroke-width="0.5"/><path d="M317.05116,218.11046c0,-0.9665 0.7835,-1.75 1.75,-1.75c0.64362,0 1.20607,0.34745 1.51006,0.86501c0.13633,-0.83067 0.85756,-1.46443 1.72681,-1.46443c0.11075,0 0.21909,0.01029 0.32413,0.02996c0.31644,-0.31489 0.75268,-0.5095 1.23436,-0.5095c0.9665,0 1.75,0.7835 1.75,1.75c0,0.9665 -0.7835,1.75 -1.75,1.75c-0.11075,0 -0.2191,-0.01029 -0.32414,-0.02996c-0.31644,0.31489 -0.75267,0.5095 -1.23436,0.5095c-0.64362,0 -1.20607,-0.34745 -1.51005,-0.86501c-0.13633,0.83067 -0.85757,1.46443 -1.72682,1.46443c-0.9665,0 -1.75,-0.7835 -1.75,-1.75z" fill="#0221b0" stroke="none" stroke-width="0.5"/><path d="M314.7251,217.10023c0.69036,0 1.25,0.55964 1.25,1.25c0,0.69036 -0.55964,1.25 -1.25,1.25c-0.17521,0 -0.342,-0.03604 -0.49336,-0.10113c-0.29503,0.22663 -0.66435,0.36136 -1.06513,0.36136c-0.43021,0 -0.82418,-0.15525 -1.12891,-0.41277c-0.13745,0.03469 -0.28136,0.05312 -0.42958,0.05312c-0.9665,0 -1.75,-0.7835 -1.75,-1.75c0,-0.9665 0.7835,-1.75 1.75,-1.75c0.43021,0 0.82418,0.15525 1.12892,0.41277c0.13745,-0.03469 0.28136,-0.05312 0.42958,-0.05312c0.59291,0 1.11696,0.29486 1.43349,0.74594c0.04111,-0.00408 0.08281,-0.00618 0.125,-0.00618z" fill="#0221b0" stroke="none" stroke-width="0.5"/><path d="M306.69287,219.60023c-0.60404,0 -1.10801,-0.42844 -1.22459,-0.99801c-0.14472,0.03875 -0.29684,0.05941 -0.45379,0.05941c-0.29064,0 -0.56472,-0.07085 -0.80593,-0.19622c-0.16217,0.04963 -0.33436,0.07634 -0.51279,0.07634c-0.9665,0 -1.75,-0.7835 -1.75,-1.75c0,-0.9665 0.7835,-1.75 1.75,-1.75c0.29064,0 0.56472,0.07085 0.80593,0.19622c0.16217,-0.04963 0.33436,-0.07633 0.51279,-0.07633c0.55688,0 1.05302,0.26011 1.37352,0.66547c0.30678,-0.26525 0.70667,-0.4257 1.14405,-0.4257c0.9665,0 1.75,0.7835 1.75,1.75c0,0.866 -0.62903,1.58508 -1.45511,1.72526c-0.19869,0.42731 -0.63178,0.72358 -1.13407,0.72358z" fill="#0221b0" stroke="none" stroke-width="0.5"/><path d="M297.39017,224.5842c0,-0.9665 0.7835,-1.75 1.75,-1.75c0.9665,0 1.75,0.7835 1.75,1.75c0,0.9665 -0.7835,1.75 -1.75,1.75c-0.9665,0 -1.75,-0.7835 -1.75,-1.75z" fill="#0245b4" stroke="none" stroke-width="0.5"/><path d="M318.32162,224.41316c0.69036,0 1.25,0.55964 1.25,1.25c0,0.69036 -0.55964,1.25 -1.25,1.25c-0.45873,0 -0.85975,-0.24711 -1.0772,-0.61547c-0.29657,0.42885 -0.77972,0.71881 -1.33211,0.75252c0.11589,0.18961 0.18268,0.4125 0.18268,0.65098c0,0.69036 -0.55964,1.25 -1.25,1.25c-0.69036,0 -1.25,-0.55964 -1.25,-1.25c0,-0.47474 0.26465,-0.88766 0.65447,-1.09929c-0.00543,-0.00295 -0.01085,-0.00594 -0.01624,-0.00895c-0.18351,0.06534 -0.38113,0.10091 -0.58707,0.10091c-0.9665,0 -1.75,-0.7835 -1.75,-1.75c0,-0.9665 0.7835,-1.75 1.75,-1.75c0.30912,0 0.59951,0.08014 0.85154,0.22078c0.18351,-0.06534 0.38113,-0.1009 0.58707,-0.1009c0.32923,0 0.63723,0.09091 0.90025,0.24901c0.69401,0.07129 1.26781,0.54813 1.4805,1.18961c0.22368,-0.21033 0.52485,-0.33919 0.85612,-0.33919z" fill="#0245b4" stroke="none" stroke-width="0.5"/><path d="M326.59362,225.25235c0.69036,0 1.25,0.55964 1.25,1.25c0,0.69036 -0.55964,1.25 -1.25,1.25c-0.65072,0 -1.1853,-0.49722 -1.24454,-1.13246c-0.30795,0.26997 -0.71143,0.43362 -1.15314,0.43362c-0.9665,0 -1.75,-0.7835 -1.75,-1.75c0,-0.9665 0.7835,-1.75 1.75,-1.75c0.9665,0 1.75,0.7835 1.75,1.75c0,0.04459 -0.00167,0.08879 -0.00495,0.13253c0.18996,-0.11651 0.41345,-0.18369 0.65263,-0.18369z" fill="#0245b4" stroke="none" stroke-width="0.5"/><path d="M329.87876,225.30351c0,-0.9665 0.7835,-1.75 1.75,-1.75c0.9665,0 1.75,0.7835 1.75,1.75c0,0.9665 -0.7835,1.75 -1.75,1.75c-0.9665,0 -1.75,-0.7835 -1.75,-1.75z" fill="#0245b4" stroke="none" stroke-width="0.5"/><path d="M335.39343,224.5842c0,-0.9665 0.7835,-1.75 1.75,-1.75c0.9665,0 1.75,0.7835 1.75,1.75c0,0.9665 -0.7835,1.75 -1.75,1.75c-0.9665,0 -1.75,-0.7835 -1.75,-1.75z" fill="#0245b4" stroke="none" stroke-width="0.5"/><path d="M339.34961,224.46432c0,-0.9665 0.7835,-1.75 1.75,-1.75c0.9665,0 1.75,0.7835 1.75,1.75c0,0.9665 -0.7835,1.75 -1.75,1.75c-0.9665,0 -1.75,-0.7835 -1.75,-1.75z" fill="#0245b4" stroke="none" stroke-width="0.5"/><path d="M305.90193,225.06374c0,-0.9665 0.7835,-1.75 1.75,-1.75c0.9665,0 1.75,0.7835 1.75,1.75c0,0.9665 -0.7835,1.75 -1.75,1.75c-0.9665,0 -1.75,-0.7835 -1.75,-1.75z" fill="#0245b4" stroke="none" stroke-width="0.5"/><path d="M301.94576,224.70409c0,-0.9665 0.7835,-1.75 1.75,-1.75c0.9665,0 1.75,0.7835 1.75,1.75c0,0.9665 -0.7835,1.75 -1.75,1.75c-0.9665,0 -1.75,-0.7835 -1.75,-1.75z" fill="#0245b4" stroke="none" stroke-width="0.5"/><path d="M300.81854,230.14713c0.9665,0 1.75,0.7835 1.75,1.75c0,0.9665 -0.7835,1.75 -1.75,1.75c-0.78868,0 -1.45551,-0.52173 -1.67418,-1.23889c-0.31551,0.45864 -0.84404,0.75935 -1.44281,0.75935c-0.9665,0 -1.35254,-0.7835 -1.35254,-1.75c0,-0.9665 0.38604,-1.75 1.35254,-1.75c0.78868,0 1.45552,0.52173 1.67418,1.23888c0.31551,-0.45864 0.84404,-0.75935 1.4428,-0.75935z" fill="#0251ac" stroke="none" stroke-width="0.5"/><path d="M302.20599,233.93516c0,-0.6494 0.49521,-1.18314 1.12861,-1.24418c-0.12149,-0.23827 -0.19,-0.50805 -0.19,-0.79385c0,-0.9665 0.7835,-1.75 1.75,-1.75c0.9665,0 1.75,0.7835 1.75,1.75c0,0.9665 -0.7835,1.75 -1.75,1.75c-0.07639,0 -0.15164,-0.0049 -0.22544,-0.01439c0.02406,0.09683 0.03683,0.19814 0.03683,0.30241c0,0.69036 -0.55964,1.25 -1.25,1.25c-0.69036,0 -1.25,-0.55964 -1.25,-1.25z" fill="#0251ac" stroke="none" stroke-width="0.5"/><path d="M309.01893,231.89713c0,-0.9665 0.7835,-1.75 1.75,-1.75c0.9665,0 1.75,0.7835 1.75,1.75c0,0.9665 -0.7835,1.75 -1.75,1.75c-0.9665,0 -1.75,-0.7835 -1.75,-1.75z" fill="#0251ac" stroke="none" stroke-width="0.5"/><path d="M316.21197,231.77725c0,-0.9665 0.7835,-1.75 1.75,-1.75c0.9665,0 1.75,0.7835 1.75,1.75c0,0.9665 -0.7835,1.75 -1.75,1.75c-0.9665,0 -1.75,-0.7835 -1.75,-1.75z" fill="#0251ac" stroke="none" stroke-width="0.5"/><path d="M320.42838,233.81528c0,-0.49824 0.29149,-0.92839 0.71326,-1.12922c-0.16129,-0.26489 -0.25419,-0.576 -0.25419,-0.90881c0,-0.9665 0.7835,-1.75 1.75,-1.75c0.9665,0 1.75,0.7835 1.75,1.75c0,0.88053 -0.65031,1.60916 -1.49685,1.73182c0.02468,0.09798 0.03778,0.20057 0.03778,0.30621c0,0.69036 -0.55964,1.25 -1.25,1.25c-0.69036,0 -1.25,-0.55964 -1.25,-1.25z" fill="#0251ac" stroke="none" stroke-width="0.5"/><path d="M328.46062,232.97609c0,-0.69036 0.55964,-1.25 1.25,-1.25c0.09653,0 0.19049,0.01094 0.28074,0.03165c0.25,-0.66104 0.88881,-1.13107 1.63741,-1.13107c0.23326,0 0.45586,0.04564 0.65936,0.12847c0.2035,-0.08283 0.42611,-0.12847 0.65936,-0.12847c0.9665,0 1.75,0.7835 1.75,1.75c0,0.9665 -0.7835,1.75 -1.75,1.75c-0.23326,0 -0.45586,-0.04564 -0.65936,-0.12847c-0.2035,0.08283 -0.4261,0.12847 -0.65936,0.12847c-0.36904,0 -0.7114,-0.11423 -0.99365,-0.30926c-0.22863,0.25109 -0.55816,0.40868 -0.9245,0.40868c-0.69036,0 -1.25,-0.55964 -1.25,-1.25z" fill="#0251ac" stroke="none" stroke-width="0.5"/><path d="M336.1332,234.4147c0,-0.35826 0.15072,-0.68133 0.39221,-0.90924c-0.25747,-0.30472 -0.41267,-0.69863 -0.41267,-1.12879c0,-0.9665 0.7835,-1.75 1.75,-1.75c0.3541,0 0.68363,0.10517 0.95907,0.28597c0.27544,-0.1808 0.60498,-0.28597 0.95908,-0.28597c0.9665,0 1.75,0.7835 1.75,1.75c0,0.9665 -0.7835,1.75 -1.75,1.75c-0.3541,0 -0.68364,-0.10517 -0.95908,-0.28597c-0.0836,0.05488 -0.17219,0.1028 -0.26493,0.14291c0.04937,0.13438 0.07632,0.27959 0.07632,0.43109c0,0.69036 -0.55964,1.25 -1.25,1.25c-0.69036,0 -1.25,-0.55964 -1.25,-1.25z" fill="#0251ac" stroke="none" stroke-width="0.5"/><path d="M299.80831,220.8678c0,-0.69036 0.55964,-1.25 1.25,-1.25c0.69036,0 1.25,0.55964 1.25,1.25c0,0.69036 -0.55964,1.25 -1.25,1.25c-0.69036,0 -1.25,-0.55964 -1.25,-1.25z" fill="#0221b0" stroke="none" stroke-width="0.5"/><path d="M318.63012,220.98768c0,-0.69036 0.55964,-1.25 1.25,-1.25c0.69036,0 1.25,0.55964 1.25,1.25c0,0.69036 -0.55964,1.25 -1.25,1.25c-0.69036,0 -1.25,-0.55964 -1.25,-1.25z" fill="#0221b0" stroke="none" stroke-width="0.5"/><path d="M321.38745,220.8678c0,-0.69036 0.55964,-1.25 1.25,-1.25c0.69036,0 1.25,0.55964 1.25,1.25c0,0.69036 -0.55964,1.25 -1.25,1.25c-0.69036,0 -1.25,-0.55964 -1.25,-1.25z" fill="#0221b0" stroke="none" stroke-width="0.5"/><path d="M303.88437,229.1398c0,-0.69036 0.55964,-1.25 1.25,-1.25c0.69036,0 1.25,0.55964 1.25,1.25c0,0.69036 -0.55964,1.25 -1.25,1.25c-0.69036,0 -1.25,-0.55964 -1.25,-1.25z" fill="#0245b4" stroke="none" stroke-width="0.5"/><path d="M331.33783,228.54038c0,-0.69036 0.55964,-1.25 1.25,-1.25c0.69036,0 1.25,0.55964 1.25,1.25c0,0.69036 -0.55964,1.25 -1.25,1.25c-0.69036,0 -1.25,-0.55964 -1.25,-1.25z" fill="#0245b4" stroke="none" stroke-width="0.5"/><path d="M335.41389,228.66026c0,-0.69036 0.55964,-1.25 1.25,-1.25c0.69036,0 1.25,0.55964 1.25,1.25c0,0.69036 -0.55964,1.25 -1.25,1.25c-0.69036,0 -1.25,-0.55964 -1.25,-1.25z" fill="#0245b4" stroke="none" stroke-width="0.5"/><path d="M298.84924,227.82107c0,-0.69036 0.55964,-1.25 1.25,-1.25c0.69036,0 1.25,0.55964 1.25,1.25c0,0.69036 -0.55964,1.25 -1.25,1.25c-0.69036,0 -1.25,-0.55964 -1.25,-1.25z" fill="#0245b4" stroke="none" stroke-width="0.5"/><path d="M307.60078,235.01412c0,-0.69036 0.55964,-1.25 1.25,-1.25c0.69036,0 1.25,0.55964 1.25,1.25c0,0.69036 -0.55964,1.25 -1.25,1.25c-0.69036,0 -1.25,-0.55964 -1.25,-1.25z" fill="#0251ac" stroke="none" stroke-width="0.5"/><path d="M311.91661,235.13401c0,-0.69036 0.55964,-1.25 1.25,-1.25c0.69036,0 1.25,0.55964 1.25,1.25c0,0.69036 -0.55964,1.25 -1.25,1.25c-0.69036,0 -1.25,-0.55964 -1.25,-1.25z" fill="#0251ac" stroke="none" stroke-width="0.5"/><path d="M324.86409,232.61644c0,-0.69036 0.55964,-1.25 1.25,-1.25c0.69036,0 1.25,0.55964 1.25,1.25c0,0.69036 -0.55964,1.25 -1.25,1.25c-0.69036,0 -1.25,-0.55964 -1.25,-1.25z" fill="#0251ac" stroke="none" stroke-width="0.5"/><path d="M339.48995,235.61354c0,-0.69036 0.55964,-1.25 1.25,-1.25c0.69036,0 1.25,0.55964 1.25,1.25c0,0.69036 -0.55964,1.25 -1.25,1.25c-0.69036,0 -1.25,-0.55964 -1.25,-1.25z" fill="#0251ac" stroke="none" stroke-width="0.5"/><path d="M302.84981,222.71388c0,-0.41421 0.33579,-0.75 0.75,-0.75c0.41421,0 0.75,0.33579 0.75,0.75c0,0.41421 -0.33579,0.75 -0.75,0.75c-0.41421,0 -0.75,-0.33579 -0.75,-0.75z" fill="#0221b0" stroke="none" stroke-width="0.5"/><path d="M308.68449,220.82155c0,-0.41421 0.33579,-0.75 0.75,-0.75c0.41421,0 0.75,0.33579 0.75,0.75c0,0.41421 -0.33579,0.75 -0.75,0.75c-0.41421,0 -0.75,-0.33579 -0.75,-0.75z" fill="#0221b0" stroke="none" stroke-width="0.5"/><path d="M316.5692,224.13312c0,-0.41421 0.33579,-0.75 0.75,-0.75c0.41421,0 0.75,0.33579 0.75,0.75c0,0.41421 -0.33579,0.75 -0.75,0.75c-0.41421,0 -0.75,-0.33579 -0.75,-0.75z" fill="#0221b0" stroke="none" stroke-width="0.5"/><path d="M321.77311,223.18696c0,-0.41421 0.33579,-0.75 0.75,-0.75c0.41421,0 0.75,0.33579 0.75,0.75c0,0.41421 -0.33579,0.75 -0.75,0.75c-0.41421,0 -0.75,-0.33579 -0.75,-0.75z" fill="#0221b0" stroke="none" stroke-width="0.5"/><path d="M330.91937,223.66004c0,-0.41421 0.33579,-0.75 0.75,-0.75c0.41421,0 0.75,0.33579 0.75,0.75c0,0.41421 -0.33579,0.75 -0.75,0.75c-0.41421,0 -0.75,-0.33579 -0.75,-0.75z" fill="#0221b0" stroke="none" stroke-width="0.5"/><path d="M299.53823,230.2832c0,-0.41421 0.33579,-0.75 0.75,-0.75c0.41421,0 0.75,0.33579 0.75,0.75c0,0.41421 -0.33579,0.75 -0.75,0.75c-0.41421,0 -0.75,-0.33579 -0.75,-0.75z" fill="#0245b4" stroke="none" stroke-width="0.5"/><path d="M303.79597,231.86014c0,-0.41421 0.33579,-0.75 0.75,-0.75c0.41421,0 0.75,0.33579 0.75,0.75c0,0.41421 -0.33579,0.75 -0.75,0.75c-0.41421,0 -0.75,-0.33579 -0.75,-0.75z" fill="#0245b4" stroke="none" stroke-width="0.5"/><path d="M313.41532,230.2832c0,-0.41421 0.33579,-0.75 0.75,-0.75c0.41421,0 0.75,0.33579 0.75,0.75c0,0.41421 -0.33579,0.75 -0.75,0.75c-0.41421,0 -0.75,-0.33579 -0.75,-0.75z" fill="#0245b4" stroke="none" stroke-width="0.5"/><path d="M322.56158,230.75628c0,-0.41421 0.33579,-0.75 0.75,-0.75c0.41421,0 0.75,0.33579 0.75,0.75c0,0.41421 -0.33579,0.75 -0.75,0.75c-0.41421,0 -0.75,-0.33579 -0.75,-0.75z" fill="#0245b4" stroke="none" stroke-width="0.5"/><path d="M332.33862,232.49091c0,-0.41421 0.33579,-0.75 0.75,-0.75c0.41421,0 0.75,0.33579 0.75,0.75c0,0.41421 -0.33579,0.75 -0.75,0.75c-0.41421,0 -0.75,-0.33579 -0.75,-0.75z" fill="#0245b4" stroke="none" stroke-width="0.5"/><path d="M337.22713,231.07167c0,-0.41421 0.33579,-0.75 0.75,-0.75c0.41421,0 0.75,0.33579 0.75,0.75c0,0.41421 -0.33579,0.75 -0.75,0.75c-0.41421,0 -0.75,-0.33579 -0.75,-0.75z" fill="#0245b4" stroke="none" stroke-width="0.5"/><path d="M299.69592,237.37943c0,-0.41421 0.33579,-0.75 0.75,-0.75c0.41421,0 0.75,0.33579 0.75,0.75c0,0.41421 -0.33579,0.75 -0.75,0.75c-0.41421,0 -0.75,-0.33579 -0.75,-0.75z" fill="#0251ac" stroke="none" stroke-width="0.5"/><path d="M308.3691,240.69101c0,-0.41421 0.33579,-0.75 0.75,-0.75c0.41421,0 0.75,0.33579 0.75,0.75c0,0.41421 -0.33579,0.75 -0.75,0.75c-0.41421,0 -0.75,-0.33579 -0.75,-0.75z" fill="#0251ac" stroke="none" stroke-width="0.5"/><path d="M314.04609,239.11407c0,-0.41421 0.33579,-0.75 0.75,-0.75c0.41421,0 0.75,0.33579 0.75,0.75c0,0.41421 -0.33579,0.75 -0.75,0.75c-0.41421,0 -0.75,-0.33579 -0.75,-0.75z" fill="#0251ac" stroke="none" stroke-width="0.5"/><path d="M319.09231,237.22174c0,-0.41421 0.33579,-0.75 0.75,-0.75c0.41421,0 0.75,0.33579 0.75,0.75c0,0.41421 -0.33579,0.75 -0.75,0.75c-0.41421,0 -0.75,-0.33579 -0.75,-0.75z" fill="#0251ac" stroke="none" stroke-width="0.5"/><path d="M335.3348,240.8487c0,-0.41421 0.33579,-0.75 0.75,-0.75c0.41421,0 0.75,0.33579 0.75,0.75c0,0.41421 -0.33579,0.75 -0.75,0.75c-0.41421,0 -0.75,-0.33579 -0.75,-0.75z" fill="#0251ac" stroke="none" stroke-width="0.5"/></g><path d="M214.52367,306.61252v-283.58668h213.18203v283.58668z" fill="none" stroke="none" stroke-width="0" stroke-linecap="butt"/><path d="" fill="none" stroke="#000000" stroke-width="2" stroke-linecap="round"/><g><g stroke-linecap="butt"><path d="M282.96331,103.37485l36.62222,-74.55435l35.09777,76.15998z" fill="url(#color-1)" stroke="#000000" stroke-width="0"/><path d="M322.4414,104.42885l73.5421,-42.86169l-12.45822,87.90943z" fill="url(#color-2)" stroke="#000000" stroke-width="0"/><path d="M256.04694,144.68816l-21.43652,-83.12101l78.92907,44.35808z" fill="url(#color-3)" stroke="#000000" stroke-width="0"/><path d="M255.66421,147.36763c0,-33.30185 28.7599,-60.29833 64.23702,-60.29833c35.47713,0 64.23702,26.99648 64.23702,60.29833c0,33.30185 -28.75989,60.29834 -64.23702,60.29834c-35.47712,0 -64.23702,-26.99649 -64.23702,-60.29834z" fill="#015bb1" stroke="#000000" stroke-width="0"/><path d="M294.22981,175.26423c-0.0079,4.07284 -0.00299,8.14891 -0.00299,12.22371c0,2.13218 -0.00374,4.40082 0.20223,6.62616c0.18106,0.91162 0.40277,1.95618 0.37878,2.72873c0.02209,0.11459 0.04503,0.22886 0.06883,0.34276l-0.0019,0.02152l0.00509,-0.00016l0.09038,0.69759c0.00357,0.02507 0.00546,0.05061 0.00546,0.07634c0,0.19842 -0.11193,0.33176 -0.25,0.29782c-0.11898,-0.02925 -0.21854,-0.17315 -0.2438,-0.33934l-0.12,-0.71928l0.02471,-0.0028c-0.02026,-0.09701 -0.03989,-0.1943 -0.05892,-0.29184c-1.05369,-3.74767 -0.98862,-8.53536 -0.97125,-12.33409c-0.06981,0.5326 -0.13971,1.06515 -0.20967,1.59767l-0.03504,0.69048c-0.00819,0.18577 -0.11677,0.30773 -0.2495,0.2751c-0.10394,-0.02554 -0.19307,-0.13862 -0.23078,-0.27759l-0.1936,-0.67372l0.09809,-0.03852c-0.92006,-3.15862 -0.50414,-8.37616 -0.35314,-11.99524l-0.05791,-0.38486c-0.09771,-0.6505 -0.24471,-1.54718 -0.39678,-2.55313c0.00128,1.02851 -0.04466,2.02345 -0.17514,2.94407l0.0015,0.02554l0.04345,0.01088l-0.00165,0.71796c0,0.00006 0,0.00009 0,0.00014c-0.00045,0.19776 -0.1122,0.3305 -0.25,0.29663c-0.13171,-0.03237 -0.23964,-0.20528 -0.2493,-0.39337l-0.04135,-0.70469c-0.23708,-1.58639 -0.44325,-3.1739 -0.6348,-4.76187c-0.10279,0.65935 -0.17242,1.29777 -0.19095,1.90554c-0.11578,3.79845 -0.12145,7.61722 -0.12175,11.4475l-0.00006,0.71851v0c-0.00002,0.1984 -0.11194,0.3317 -0.25,0.29778c-0.12791,-0.03144 -0.23339,-0.1954 -0.24822,-0.37713l-0.06655,-0.72337l0.03442,0.00176c-0.97352,-4.0315 -1.00812,-8.88721 -1.56976,-13.01136c-0.04692,0.55488 -0.10709,1.09654 -0.18745,1.61827l0.03689,0.00928l-0.00209,0.71781c0,0.00006 0,0.00013 0,0.00018c-0.00056,0.19759 -0.11228,0.33016 -0.25,0.29631c-0.12387,-0.03044 -0.2267,-0.18518 -0.24654,-0.35996l-0.09128,-0.7224c-0.07168,-0.57287 -0.11923,-1.15056 -0.15499,-1.73055c0.00003,0.97254 0.00007,1.9451 0.00007,2.91764v0.71853c0,0.19842 -0.11193,0.33175 -0.25,0.29782c-0.13807,-0.03394 -0.25,-0.22229 -0.25,-0.4207v-0.71852c0,-0.02285 -0.00002,-0.04574 -0.00005,-0.06869c-1.22188,-2.75363 -1.39533,-8.8901 -1.62971,-12.39659c-0.08904,-0.05012 -0.17787,-0.10101 -0.26644,-0.15274c-0.21319,0.98253 -0.37151,2.23051 -0.49371,3.12719l0.07428,0.02296l-0.02192,0.71053c-0.00508,0.19072 -0.11498,0.3171 -0.24982,0.28396c-0.11246,-0.02764 -0.20758,-0.15773 -0.23899,-0.31225l-0.15629,-0.7122l0.01176,-0.00274l-0.02089,-0.05158c-0.02548,-1.29618 -0.06989,-2.5734 -0.09757,-3.83518c-1.50053,-1.07574 -2.85275,-2.52554 -3.7957,-4.78614c0,0 -0.13868,-0.333 0.06934,-0.48117c0.20801,-0.14817 0.34669,0.18485 0.34669,0.18485c0.61374,1.47643 1.42158,2.58391 2.33548,3.4607c-0.29489,-0.49022 -0.5271,-1.03989 -0.67736,-1.65935l-0.09634,0.02457l-0.16267,-0.71057c-0.01024,-0.04176 -0.01585,-0.08567 -0.01585,-0.13005c0,-0.19842 0.11193,-0.33175 0.25,-0.29782c0.05919,0.01455 0.11357,0.05747 0.15639,0.1174l0.36522,0.50332c0.40715,0.28979 0.80905,0.57432 1.20745,0.85213c0.02383,-1.47375 0.11058,-2.92948 0.32016,-4.37306l-0.02172,-0.00534v-0.71852c0,-0.19842 0.11193,-0.33175 0.25,-0.29781c0.0998,0.02453 0.18594,0.12974 0.22603,0.26111l0.1848,0.57654l-0.00886,0.00418l0.0205,0.03776c0.29927,1.90931 0.54946,3.7859 0.75436,5.68255c0.46717,0.30408 0.93306,0.59563 1.40067,0.87222c0.02277,-0.15912 0.1239,-0.25843 0.2452,-0.22861c0.10906,0.0268 0.20181,0.14995 0.23597,0.29832l0.05992,0.24299c1.2891,0.72694 2.59987,1.33383 3.99445,1.77003c0.17353,-0.6581 0.36398,-1.27792 0.5721,-1.84379l-0.03008,-0.02181l0.15629,-0.63538c0.03142,-0.13908 0.12653,-0.22241 0.23899,-0.19477c0.0998,0.02453 0.18594,0.12974 0.22603,0.26111l0.1848,0.57654l-0.0167,0.0079l0.0364,0.07503c0.0076,0.71741 0.01738,1.43546 0.02849,2.15403c0.54888,0.14098 1.10656,0.29433 1.66742,0.44009c0.07648,-0.64584 0.16502,-1.26561 0.2676,-1.84852l-0.02299,-0.00565v-0.71852c0,-0.19842 0.11193,-0.33176 0.25,-0.29782c0.12425,0.03054 0.22733,0.18613 0.24672,0.36157l0.07283,0.59135c0.09041,0.73409 0.18494,1.46177 0.27828,2.18585c0.0828,0.01877 0.16558,0.03709 0.24834,0.0549c0.73115,-0.18498 1.45978,-0.40433 2.17662,-0.60001c0.03569,-0.77209 0.09866,-1.5214 0.2013,-2.23377l0.08708,-0.59673c0.02121,-0.16232 0.12326,-0.26426 0.24595,-0.2341c0.13807,0.03394 0.25,0.22229 0.25,0.4207v0.71852l-0.05011,-0.01232c0.06554,0.55912 0.10272,1.1337 0.1168,1.71862c0.34881,-0.08281 0.69384,-0.1542 1.03397,-0.20715c0.09603,-0.51976 0.2183,-0.99423 0.37251,-1.40864l-0.08103,-0.06947l0.18496,-0.57921c0.03679,-0.12351 0.12693,-0.19504 0.2323,-0.16914c0.13807,0.03394 0.25,0.22229 0.25,0.4207v0.71852v0c0,0.23952 0,0.47901 0,0.71852c0,0.08646 -0.00002,0.17291 -0.00007,0.25933c0.00029,-0.00005 0.00057,-0.00009 0.00086,-0.00014c0.01174,-0.18896 0.03113,-0.36729 0.06086,-0.52855c0,-0.11327 0,-0.22652 0,-0.33979v0v-0.71852c0,-0.19842 0.11193,-0.33175 0.25,-0.29781c0.13807,0.03394 0.25,0.22229 0.25,0.4207v0.71852v0c0,0.10342 0,0.20684 0,0.31026c0.01168,0.08957 0.02278,0.17951 0.03333,0.26979c0.11198,-0.04255 0.22327,-0.09047 0.33401,-0.14213c0.02968,-0.31865 0.05332,-0.64011 0.06558,-0.97168l0.00318,-0.61799c0.00087,-0.19714 0.11246,-0.32931 0.24999,-0.2955c0.13807,0.03394 0.25,0.22229 0.25,0.4207v0.71852l-0.00662,-0.00163c-0.00206,0.04809 -0.00433,0.096 -0.0068,0.14373c0.01496,0.09759 0.02943,0.19585 0.04341,0.29473c0.44508,-0.24464 0.88559,-0.50342 1.33172,-0.66809l0.3446,-0.12625c0.03143,-0.01274 0.06632,-0.01556 0.10307,-0.00653c0.13807,0.03394 0.25,0.22229 0.25,0.42071c0,0.08219 -0.0192,0.15321 -0.05152,0.20579l-0.29848,0.49856l-0.02825,-0.0374c-0.36502,0.88896 -0.79508,1.57188 -1.28001,2.0876c-0.01621,0.27055 -0.04387,0.55003 -0.07413,0.81086c0.18932,3.36746 0.09584,7.01634 0.27889,9.94338c0.252,4.04537 0.43252,7.95383 0.49418,11.92135c0.09733,1.32726 0.12336,2.5991 0.02323,3.73149c0,0.1868 0,0.37359 0,0.56039v0.71852c0,0.19842 -0.11193,0.33176 -0.25,0.29782c-0.13807,-0.03394 -0.25,-0.2223 -0.25,-0.42071c0,-0.03387 0,-0.68465 0,-0.71852c0,-0.11463 0,-0.22926 0,-0.34392c-0.1192,-0.77938 0.00684,-1.72927 -0.09059,-2.47095c-0.47655,-3.62787 -0.73231,-7.2641 -1.12029,-10.89447c-0.08063,-0.75459 -0.15545,-1.5095 -0.22449,-2.26438c-0.10668,1.32951 -0.18834,2.66978 -0.26232,4.01317c0.00179,0.06653 0.00362,0.13303 0.00551,0.19952c0.42817,3.60198 1.2837,8.25563 0.87888,11.37196c0.00093,0.12294 0.00185,0.24588 0.00278,0.36882l-0.00203,0.00097l0.00204,0.0005v0.53807c0,0.19842 -0.11193,0.33175 -0.25,0.29781c-0.13807,-0.03394 -0.25,-0.22229 -0.25,-0.4207v-0.5372c-0.00043,-0.12044 -0.00086,-0.2409 -0.00129,-0.36134c-0.03013,-0.17352 -0.04662,-0.36841 -0.05516,-0.57281c-0.26642,-2.02777 -0.46077,-4.01102 -0.59795,-5.98147c-0.1136,1.879 -0.25363,3.74578 -0.46797,5.57922c-0.07219,0.61709 -0.16079,1.22372 -0.2498,1.83218c0,3.0402 0,6.08039 0,9.1206v0.71852c0,0.19842 -0.11193,0.33175 -0.25,0.29781c-0.11722,-0.02881 -0.21559,-0.16891 -0.24264,-0.332l-0.13,-0.71768l0.04592,-0.0067c-1.27916,-4.26647 -1.04659,-9.67314 -1.04659,-13.82072c0,-5.00345 -0.5604,-10.11518 -0.56165,-15.10596c0,-0.19584 -0.00118,-0.39359 -0.00331,-0.59297c-0.17514,1.14586 -0.34653,2.23953 -0.47214,3.24016c-0.58792,4.68345 -0.33507,9.84828 -0.33507,14.73307c0,3.59045 0,7.18091 0,10.77138v0.61692c0,0.19842 -0.11193,0.33176 -0.25,0.29782c-0.08815,-0.02167 -0.16565,-0.10629 -0.21016,-0.21627l-0.2752,-0.66085l0.12424,-0.08849c-1.17478,-3.4971 -0.41833,-10.59278 -0.51515,-13.82886c-0.15142,-5.06079 -0.20425,-10.10399 -0.38796,-15.17025c-0.0699,-1.92752 -0.27305,-3.81449 -0.50928,-5.71367c-0.07255,0.00006 -0.14517,-0.00013 -0.21785,-0.00057c-0.00233,0.04546 -0.0041,0.08972 -0.00523,0.13265c-0.06122,2.33156 -0.30627,4.63932 -0.44827,6.9562c0.06357,0.76493 0.1117,1.53344 0.15715,2.29205c0.01289,0.00089 0.02658,0.00303 0.04111,0.0066c0.25,0.06144 0.25,0.42071 0.25,0.42071v0.44299c0,0.91767 0.02526,1.77044 -0.04476,2.60544c0.00881,0.08865 0.01791,0.17678 0.02732,0.26438l0.01745,0.00429v0.71852c0,0.19842 -0.11193,0.33176 -0.25,0.29782c-0.13579,-0.03338 -0.2463,-0.21611 -0.24991,-0.41089l-0.01404,-0.65225c-0.01349,-0.1231 -0.02845,-0.25059 -0.04471,-0.38208zM293.85425,166.01825c0.0471,-1.16854 0.11377,-2.33945 0.20881,-3.46413c-0.48698,-0.01569 -0.97595,-0.04528 -1.46539,-0.09359c0.01482,0.82809 0.03038,1.65667 0.0454,2.48551c0.042,-0.18027 0.08347,-0.33816 0.12353,-0.46965l0.18777,-0.61077c0.03603,-0.12594 0.12697,-0.19927 0.23346,-0.1731c0.11201,0.02753 0.20681,0.15669 0.23861,0.31041l0.15872,0.7116l-0.04654,0.01124c0.12085,0.41913 0.22508,0.851 0.31563,1.29247zM287.67987,161.145c-0.09094,-0.04409 -0.18216,-0.08815 -0.27361,-0.13226c0.06222,0.86009 0.14615,1.71889 0.24524,2.57817c0.15066,-0.91171 0.2945,-1.70618 0.37449,-2.26129l0.00324,-0.02246c-0.11671,-0.05202 -0.23317,-0.10605 -0.34935,-0.16218zM283.88559,156.20384c0.27227,0.18779 0.54316,0.37219 0.81324,0.55273c-0.13522,-1.20889 -0.28924,-2.41062 -0.46015,-3.62007c-0.10304,0.62816 -0.27539,1.25433 -0.31004,1.80859c-0.02605,0.41665 -0.03927,0.83654 -0.04306,1.25875zM300.03055,178.6352c0.08135,-1.03635 0.17103,-2.07228 0.269,-3.11317c0.01477,-0.15683 0.0297,-0.31377 0.04478,-0.4708c-0.00419,-0.06615 -0.00834,-0.1323 -0.01246,-0.19845c-0.23937,-3.84266 -0.25414,-7.63468 -0.24683,-11.42709c-0.01575,0.15843 -0.02901,0.30939 -0.03867,0.45103c-0.18842,2.76429 -0.01579,5.76012 -0.01581,8.58386c0,2.05821 0,4.11641 0,6.17463zM302.37451,160.52108c0.1378,-0.22689 0.27609,-0.44426 0.4202,-0.63594c-0.19331,0.10167 -0.38614,0.20792 -0.57976,0.31098c0.00897,0.07795 0.01769,0.15623 0.02615,0.23482c0.05037,0.00532 0.08689,0.01994 0.10568,0.04603c0.00976,0.01355 0.01899,0.02827 0.02772,0.0441zM295.51878,162.68939c0.23298,1.88667 0.43188,3.76236 0.50134,5.67767c0.1838,5.0685 0.2367,10.11394 0.38819,15.17694c0.02776,0.92783 0.07422,1.89491 0.12675,2.88312c-0.00036,-4.92453 -0.25009,-10.12329 0.34255,-14.84444c0.32391,-2.58031 0.61167,-5.16577 0.84456,-7.78327c-0.00418,-0.22253 -0.00756,-0.44477 -0.00987,-0.66643c-0.65154,-0.0881 -1.32721,-0.23204 -2.01894,-0.40095c-0.05819,-0.01422 -0.11639,-0.02842 -0.17458,-0.04265zM291.00004,160.73051c-0.43195,-0.13816 -0.85674,-0.29198 -1.27597,-0.46024l0.14683,0.66909c0.19439,0.07195 0.38737,0.14718 0.57854,0.22734c-0.00414,-0.02694 -0.00632,-0.05448 -0.00632,-0.0822c0,-0.19842 0.11193,-0.33176 0.25,-0.29782v0l0.27758,0.06823c0.00972,-0.04158 0.01951,-0.08305 0.02935,-0.12439zM284.49403,158.52732c0.09732,-0.28648 0.20337,-0.5378 0.31588,-0.73418c-0.00705,-0.06885 -0.01416,-0.13764 -0.02134,-0.20642c-0.29933,-0.19895 -0.59919,-0.40329 -0.90023,-0.61255c0.00512,0.33977 0.01497,0.68069 0.02779,1.02228c0.08959,0.09707 0.18338,0.19034 0.28226,0.27892c0.09775,0.08756 0.19632,0.17147 0.29563,0.25195zM301.81901,167.55321c-0.09554,0.78794 -0.18895,1.57577 -0.27548,2.36777c0.122,1.68264 0.27277,3.36736 0.4527,5.05064c0.12803,1.19798 0.3321,2.57693 0.54005,4.02633c-0.08677,-2.13836 -0.2021,-4.28576 -0.33842,-6.47411c-0.1041,-1.67799 -0.25397,-3.32526 -0.37885,-4.97063zM299.34103,163.21631c-0.26966,0.01404 -0.54553,0.01162 -0.82688,-0.00451c-0.0616,0.81385 -0.15004,1.63185 -0.25254,2.4416c0.03961,1.2522 0.08397,2.48828 0.08397,3.64988c-0.0013,4.98939 0.56165,10.10288 0.56165,15.10596c0,3.14414 -0.04811,6.09087 0.4059,9.28293c0.04825,0.33926 0.13064,0.76937 0.2174,1.23629c0,-2.13016 0,-4.26029 0,-6.39044c-0.09756,-0.60472 -0.05568,-1.33742 0,-2.00386c0,-4.73216 0,-9.46433 0,-14.19648c0.00002,-2.30432 -0.29963,-5.95909 -0.18951,-9.12135zM289.61516,178.5214c0.00891,-1.96738 0.02905,-3.93086 0.07462,-5.8893c-0.04486,0.0851 -0.12118,0.12963 -0.20778,0.10835c-0.13752,-0.0338 -0.24911,-0.2208 -0.24999,-0.41835l-0.00376,-0.71803c-0.00088,-0.08545 -0.00313,-0.1736 -0.00666,-0.2643c-0.16412,-0.6435 -0.24205,-1.52769 -0.26754,-2.51919c-0.22743,-1.59465 -0.53355,-3.38047 -0.66327,-4.90976c-0.06821,1.09643 -0.10009,2.22637 -0.14534,3.34179c0.08335,0.55905 0.16914,1.11936 0.2556,1.68141c0.49197,3.19817 0.86791,6.38646 1.21412,9.58737zM285.44405,159.18943c0.15869,0.09479 0.31863,0.18344 0.47958,0.26685c-0.11632,-0.4695 -0.35659,-1.39862 -0.5046,-1.38112c-0.02877,0.0034 -0.05697,0.01316 -0.08463,0.02885c0.01929,0.19424 0.03811,0.38879 0.05648,0.58369c0.01525,0.16181 0.03307,0.32922 0.05317,0.50174zM289.82106,164.22601c0.04686,1.20988 0.09543,2.45844 0.09738,3.67176c0.04329,-0.51172 0.09354,-1.03224 0.15102,-1.55617c-0.06314,-0.55865 -0.12575,-1.1173 -0.18854,-1.67593c-0.01503,-0.13372 -0.03568,-0.28155 -0.05987,-0.43966zM292.05724,162.39936c-0.05269,-0.00675 -0.10537,-0.01374 -0.15806,-0.02097c-0.06888,0.38707 -0.14632,0.77784 -0.22915,1.1706l0.0006,0.00383l-0.00143,0.00014c-0.00783,0.03712 -0.01571,0.07426 -0.02363,0.1114c0.29988,1.30736 0.43556,2.69794 0.52426,4.10384c-0.03855,-1.79136 -0.08632,-3.5864 -0.11259,-5.36883zM290.88203,167.01335c0.07462,0.78338 0.13784,1.57056 0.19889,2.34611c-0.02335,-0.93697 -0.0601,-1.87701 -0.09235,-2.81617c-0.036,0.1571 -0.07159,0.31382 -0.10654,0.47006zM290.69077,162.16691c-0.1911,-0.04113 -0.38197,-0.08607 -0.57252,-0.13515c0.1228,0.49802 0.22906,1.01576 0.32224,1.54745c0.07687,-0.47725 0.16023,-0.9494 0.25028,-1.4123zM287.3071,159.12096c0.00992,0.31817 0.02344,0.63599 0.04024,0.95354c0.62898,0.23266 1.26228,0.42875 1.88624,0.64015v-0.46553v0v0c0,-0.06448 0.01182,-0.12208 0.03251,-0.1693c-0.66352,-0.28543 -1.31434,-0.60665 -1.95899,-0.95887zM288.70866,161.58667c0.16055,0.57543 0.29552,1.18782 0.40907,1.82235c0.03478,-0.60875 0.06725,-1.16843 0.08891,-1.64551c-0.16638,-0.05535 -0.33239,-0.11423 -0.49798,-0.17684zM286.31843,158.55479c0.09039,0.24522 0.17352,0.51856 0.24997,0.81125c0.02421,-0.20367 0.05105,-0.40429 0.08074,-0.60155l-0.03583,-0.01023l0.00048,-0.02501c-0.09854,-0.05747 -0.19698,-0.11563 -0.29536,-0.17445zM283.9692,159.16898c0.0222,0.43759 0.04604,0.87543 0.06788,1.31252c0.05907,-0.37959 0.13374,-0.7637 0.22111,-1.12678c-0.09677,-0.06069 -0.19313,-0.12257 -0.289,-0.18575zM293.0946,165.35082c-0.58272,2.39804 -0.18172,5.23023 -0.35705,7.79064c0.05782,2.453 0.39977,5.83325 0.4428,8.78127c0.05815,-0.44335 0.11638,-0.88664 0.17471,-1.32989c-0.00439,-3.79497 -0.0054,-7.58916 -0.00263,-11.38237c-0.17745,-1.41292 -0.29572,-2.77123 -0.25784,-3.85964zM299.3601,162.75877c0.0053,-0.10859 0.01113,-0.21647 0.01754,-0.32357c-0.26017,0.03136 -0.53326,0.04322 -0.81527,0.03899c-0.00378,0.06937 -0.00779,0.13879 -0.01201,0.20827c0.2743,0.04073 0.54548,0.06815 0.80974,0.0763zM299.50946,160.98213c0.00203,-0.01597 0.00408,-0.03191 0.00616,-0.04781c-0.30073,0.05007 -0.6043,0.11313 -0.91016,0.18462c-0.00041,0.05757 -0.00101,0.11521 -0.00181,0.17293c0.30316,-0.13448 0.60251,-0.23215 0.90582,-0.30974zM297.43496,161.42149c0.09556,-0.00748 0.19095,-0.01567 0.28614,-0.02458c0.00043,-0.01793 0.00086,-0.03586 0.00131,-0.05378c-0.09566,0.02578 -0.19148,0.05194 -0.28745,0.07836zM297.56493,162.49061c0.04794,0.0111 0.09593,0.02202 0.14394,0.03273c-0.00001,-0.01335 -0.00001,-0.0267 -0.00001,-0.04004c-0.04791,0.00247 -0.09589,0.0049 -0.14393,0.00732zM301.36195,162.69541c-0.0023,0.00122 -0.00459,0.00242 -0.00689,0.00364c0.00064,0.04739 0.00119,0.09483 0.00165,0.14231c0.00179,-0.04865 0.00354,-0.0973 0.00524,-0.14595zM301.38248,162.02286c0.00556,-0.21412 0.01018,-0.42833 0.01379,-0.64265c-0.00788,0.00138 -0.01575,0.00277 -0.02361,0.00414c-0.01845,0.02711 -0.03739,0.05363 -0.05683,0.07955c0.01039,0.20083 0.0187,0.40277 0.02513,0.60568c0.01392,-0.01538 0.02776,-0.03096 0.04151,-0.04673zM301.28824,160.65041c0.00361,-0.00123 0.00722,-0.00245 0.01083,-0.00367l-0.00337,-0.0202c-0.01172,0.00436 -0.02345,0.00867 -0.03519,0.01291c0.00043,0.0052 0.00087,0.01041 0.0013,0.01561c0.0088,-0.00154 0.01761,-0.00309 0.02643,-0.00466zM301.43574,160.57188c-0.03526,0.0144 -0.07059,0.02836 -0.10601,0.04185l0.10259,-0.01165c0.00114,-0.01008 0.00228,-0.02014 0.00342,-0.03021zM300.58851,166.77985c0.03402,-1.2609 0.06254,-2.52246 0.06514,-3.78975c-0.02247,0.00708 -0.045,0.01398 -0.06759,0.02071c-0.00304,1.25602 -0.00471,2.51174 0.00245,3.76904zM283.49886,156.70124c-0.30906,-0.21824 -0.61966,-0.44139 -0.93253,-0.66893c0.3093,0.48131 0.59676,0.98985 0.935,1.45424c-0.00224,-0.26238 -0.00318,-0.52414 -0.00247,-0.78531zM300.58707,162.61453c0.02153,-0.00776 0.04285,-0.01606 0.06397,-0.02488c-0.00407,-0.16216 -0.01215,-0.34146 -0.0215,-0.5314c-0.0136,0.00761 -0.0273,0.01511 -0.04108,0.02248c-0.00046,0.17793 -0.00093,0.35587 -0.00139,0.53378zM286.39653,165.12612c-0.0312,-1.25892 -0.038,-2.50906 0.01263,-3.70002c-0.06577,-0.33157 -0.14104,-0.66682 -0.22838,-1.01002c-0.20598,-0.10286 -0.41197,-0.20785 -0.61738,-0.31592c0.21338,1.48997 0.53918,3.2473 0.83314,5.02596z" fill="#390200" stroke="none" stroke-width="0.5"/><path d="M269.30738,134.08155c0,-4.15446 3.84119,-9.84387 10.34853,-9.44454c6.06025,0.37189 12.69895,6.82771 17.35568,14.83895c5.95119,10.23818 9.16467,22.51745 9.16467,22.51745c0,0 -11.94169,0.06085 -21.33323,-5.4624c-9.03604,-5.31419 -15.53565,-16.09054 -15.53565,-22.44947z" fill="#000000" stroke="#000000" stroke-width="2"/><g><path d="M335.93479,166.07479c1.27375,1.19169 0.1222,4.49228 -2.57206,7.37206c-2.69426,2.87979 -7.18472,3.05657 -7.18472,3.05657c0,0 -0.1222,-4.49228 2.57206,-7.37207c2.69426,-2.87979 5.91097,-4.24826 7.18472,-3.05657z" fill="#0f0f0f" stroke="#000000" stroke-width="0"/><path d="M330.70409,169.03338c-0.06775,0.03486 -0.13635,0.06849 -0.20588,0.10075c-0.00322,0.00233 -0.00644,0.00465 -0.00967,0.00697l0.04052,0.04052l-0.27243,0.27243c-0.04524,0.04524 -0.10774,0.07322 -0.17678,0.07322c-0.13807,0 -0.25,-0.11193 -0.25,-0.25c0,-0.04199 0.01035,-0.08156 0.02864,-0.1163l0.13396,-0.26793l0.03359,0.01679l0.01324,-0.08177c0.11839,-0.06424 0.2345,-0.12974 0.34874,-0.19644c0.47889,-0.68091 1.85193,-1.66741 2.3043,-1.8936l0.26793,-0.13396c0.03474,-0.01829 0.07431,-0.02864 0.1163,-0.02864c0.13807,0 0.25,0.11193 0.25,0.25c0,0.04199 -0.01035,0.08156 -0.02864,0.1163l-0.13396,0.26793l-0.07425,-0.03713c-0.05569,0.11218 -0.12131,0.2125 -0.19401,0.30447c-0.03134,0.05846 -0.07777,0.09328 -0.07777,0.09328c-0.00073,0.00055 -0.00147,0.0011 -0.0022,0.00165c-0.42096,0.4705 -1.02194,0.73108 -1.34614,1.34936l-0.49339,0.18452c0,0 -0.17226,0.05742 -0.27211,-0.07242z" fill="#ffffff" stroke="none" stroke-width="0.5"/></g><path d="M344.80457,175.2641c-0.01626,0.13149 -0.03122,0.25898 -0.04471,0.38208l-0.01404,0.65225c-0.00361,0.19477 -0.11412,0.37751 -0.24991,0.41089c-0.13807,0.03394 -0.25,-0.0994 -0.25,-0.29782v-0.71852l0.01745,-0.00429c0.00941,-0.0876 0.01851,-0.17573 0.02732,-0.26438c-0.07002,-0.83499 -0.04476,-1.68777 -0.04476,-2.60543v-0.44299c0,0 0,-0.35926 0.25,-0.42071c0.01453,-0.00357 0.02822,-0.00571 0.04111,-0.0066c0.04545,-0.75861 0.09358,-1.52712 0.15715,-2.29205c-0.142,-2.31688 -0.38705,-4.62464 -0.44827,-6.9562c-0.00113,-0.04293 -0.0029,-0.0872 -0.00523,-0.13265c-0.07268,0.00045 -0.1453,0.00063 -0.21785,0.00057c-0.23623,1.89918 -0.43938,3.78615 -0.50928,5.71367c-0.18371,5.06626 -0.23654,10.10947 -0.38796,15.17025c-0.09682,3.23607 0.65963,10.33176 -0.51515,13.82886l0.12424,0.08849l-0.2752,0.66085c-0.04451,0.10998 -0.12201,0.1946 -0.21016,0.21627c-0.13807,0.03394 -0.25,-0.0994 -0.25,-0.29782v-0.61692c0,-3.59047 0,-7.18093 0,-10.77138c0,-4.88479 0.25285,-10.04962 -0.33507,-14.73307c-0.12561,-1.00063 -0.297,-2.0943 -0.47214,-3.24016c-0.00213,0.19938 -0.00331,0.39713 -0.00331,0.59297c-0.00125,4.99078 -0.56165,10.10252 -0.56165,15.10596c0,4.14758 0.23257,9.55426 -1.04659,13.82072l0.04592,0.0067l-0.13,0.71768c-0.02705,0.16308 -0.12542,0.30319 -0.24264,0.332c-0.13807,0.03394 -0.25,-0.0994 -0.25,-0.29781v-0.71852c0,-3.04021 0,-6.0804 0,-9.1206c-0.08901,-0.60845 -0.17761,-1.21509 -0.2498,-1.83218c-0.21434,-1.83344 -0.35437,-3.70022 -0.46797,-5.57922c-0.13718,1.97045 -0.33153,3.9537 -0.59795,5.98147c-0.00854,0.20441 -0.02503,0.3993 -0.05516,0.57281c-0.00043,0.12044 -0.00086,0.2409 -0.00129,0.36135v0.5372c0,0.19842 -0.11193,0.38677 -0.25,0.4207c-0.13807,0.03394 -0.25,-0.0994 -0.25,-0.29781v-0.53807l0.00204,-0.0005l-0.00203,-0.00097c0.00093,-0.12294 0.00185,-0.24588 0.00278,-0.36882c-0.40482,-3.11633 0.45071,-7.76998 0.87888,-11.37196c0.00189,-0.0665 0.00372,-0.13299 0.00551,-0.19952c-0.07398,-1.34339 -0.15564,-2.68366 -0.26232,-4.01317c-0.06904,0.75488 -0.14386,1.50979 -0.22449,2.26438c-0.38798,3.63037 -0.64374,7.2666 -1.12029,10.89447c-0.09743,0.74168 0.02861,1.69157 -0.09059,2.47095c0,0.11465 0,0.22928 0,0.34392c0,0.03387 0,0.68465 0,0.71852c0,0.19842 -0.11193,0.38678 -0.25,0.42071c-0.13807,0.03394 -0.25,-0.0994 -0.25,-0.29782v-0.71852c0,-0.1868 0,-0.37359 0,-0.56039c-0.10013,-1.1324 -0.0741,-2.40424 0.02323,-3.73149c0.06166,-3.96751 0.24218,-7.87598 0.49418,-11.92135c0.18305,-2.92703 0.08957,-6.57592 0.27889,-9.94338c-0.03026,-0.26083 -0.05792,-0.54031 -0.07413,-0.81086c-0.48493,-0.51572 -0.91499,-1.19864 -1.28001,-2.0876l-0.02825,0.0374l-0.29848,-0.49856c-0.03232,-0.05258 -0.05152,-0.12361 -0.05152,-0.20579c0,-0.19842 0.11193,-0.38677 0.25,-0.42071c0.03675,-0.00903 0.07164,-0.00621 0.10307,0.00653l0.3446,0.12625c0.44613,0.16467 0.88664,0.42345 1.33172,0.66809c0.01398,-0.09888 0.02845,-0.19714 0.04341,-0.29473c-0.00247,-0.04773 -0.00474,-0.09564 -0.0068,-0.14373l-0.00662,0.00163v-0.71852c0,-0.19842 0.11193,-0.38677 0.25,-0.4207c0.13753,-0.0338 0.24912,0.09837 0.24999,0.2955l0.00318,0.61799c0.01226,0.33157 0.0359,0.65303 0.06558,0.97168c0.11074,0.05166 0.22203,0.09958 0.33401,0.14213c0.01055,-0.09028 0.02165,-0.18022 0.03333,-0.26979c0,-0.10342 0,-0.20684 0,-0.31026v0v-0.71852c0,-0.19842 0.11193,-0.38677 0.25,-0.4207c0.13807,-0.03394 0.25,0.0994 0.25,0.29781v0.71852v0c0,0.11327 0,0.22652 0,0.33979c0.02973,0.16126 0.04912,0.33959 0.06086,0.52855c0.00029,0.00005 0.00057,0.00009 0.00086,0.00014c-0.00005,-0.08642 -0.00007,-0.17288 -0.00007,-0.25933c0,-0.23952 0,-0.47901 0,-0.71852v0v-0.71852c0,-0.19842 0.11193,-0.38677 0.25,-0.4207c0.10537,-0.0259 0.19551,0.04563 0.2323,0.16914l0.18496,0.57921l-0.08103,0.06947c0.15421,0.41441 0.27648,0.88888 0.37251,1.40864c0.34013,0.05295 0.68516,0.12435 1.03397,0.20715c0.01408,-0.58492 0.05126,-1.1595 0.1168,-1.71862l-0.05011,0.01232v-0.71852c0,-0.19842 0.11193,-0.38677 0.25,-0.4207c0.12269,-0.03016 0.22474,0.07178 0.24595,0.2341l0.08708,0.59673c0.10264,0.71237 0.16561,1.46168 0.2013,2.23377c0.71684,0.19568 1.44547,0.41503 2.17662,0.60001c0.08276,-0.01781 0.16554,-0.03613 0.24834,-0.0549c0.09334,-0.72408 0.18787,-1.45175 0.27828,-2.18585l0.07283,-0.59135c0.01939,-0.17544 0.12247,-0.33103 0.24672,-0.36157c0.13807,-0.03394 0.25,0.0994 0.25,0.29782v0.71852l-0.02299,0.00565c0.10258,0.58291 0.19112,1.20268 0.2676,1.84852c0.56086,-0.14577 1.11854,-0.29911 1.66742,-0.44009c0.01111,-0.71857 0.02089,-1.43662 0.02849,-2.15403l0.0364,-0.07503l-0.0167,-0.0079l0.1848,-0.57654c0.04009,-0.13137 0.12623,-0.23658 0.22603,-0.26111c0.11246,-0.02764 0.20757,0.05569 0.23899,0.19477l0.15629,0.63538l-0.03008,0.02181c0.20812,0.56588 0.39857,1.1857 0.5721,1.8438c1.39458,-0.43619 2.70535,-1.04309 3.99445,-1.77003l0.05992,-0.24299c0.03416,-0.14837 0.12691,-0.27151 0.23597,-0.29832c0.1213,-0.02982 0.22243,0.06949 0.2452,0.22861c0.46761,-0.27659 0.9335,-0.56814 1.40067,-0.87222c0.2049,-1.89666 0.45509,-3.77324 0.75436,-5.68255l0.0205,-0.03776l-0.00886,-0.00418l0.1848,-0.57654c0.04009,-0.13137 0.12623,-0.23658 0.22603,-0.26111c0.13807,-0.03394 0.25,0.0994 0.25,0.29781v0.71852l-0.02172,0.00534c0.20958,1.44358 0.29633,2.89932 0.32016,4.37306c0.3984,-0.27781 0.8003,-0.56233 1.20745,-0.85213l0.36522,-0.50332c0.04282,-0.05993 0.0972,-0.10285 0.15639,-0.1174c0.13807,-0.03394 0.25,0.0994 0.25,0.29782c0,0.04439 -0.00561,0.08829 -0.01585,0.13005l-0.16267,0.71057l-0.09634,-0.02457c-0.15026,0.61945 -0.38247,1.16913 -0.67736,1.65935c0.9139,-0.87679 1.72174,-1.98427 2.33548,-3.4607c0,0 0.13868,-0.33302 0.34669,-0.18485c0.20802,0.14817 0.06934,0.48117 0.06934,0.48117c-0.94295,2.2606 -2.29517,3.7104 -3.7957,4.78614c-0.02768,1.26178 -0.07209,2.53901 -0.09757,3.83518l-0.02089,0.05158l0.01176,0.00274l-0.15629,0.7122c-0.03141,0.15452 -0.12653,0.28461 -0.23899,0.31225c-0.13484,0.03314 -0.24474,-0.09324 -0.24982,-0.28396l-0.02192,-0.71053l0.07428,-0.02296c-0.1222,-0.89667 -0.28052,-2.14466 -0.49371,-3.12719c-0.08857,0.05173 -0.1774,0.10262 -0.26644,0.15274c-0.23438,3.50648 -0.40783,9.64296 -1.62971,12.39659c-0.00003,0.02294 -0.00005,0.04584 -0.00005,0.06869v0.71852c0,0.19842 -0.11193,0.38677 -0.25,0.4207c-0.13807,0.03394 -0.25,-0.0994 -0.25,-0.29782v-0.71853c0,-0.97254 0.00004,-1.9451 0.00007,-2.91764c-0.03576,0.57999 -0.08331,1.15768 -0.15499,1.73055l-0.09128,0.7224c-0.01984,0.17478 -0.12267,0.32952 -0.24654,0.35996c-0.13772,0.03385 -0.24944,-0.09873 -0.25,-0.29631c0,-0.00006 0,-0.00013 0,-0.00018l-0.00209,-0.71781l0.03689,-0.00928c-0.08036,-0.52173 -0.14053,-1.06339 -0.18745,-1.61827c-0.56164,4.12416 -0.59624,8.97986 -1.56976,13.01136l0.03442,-0.00176l-0.06655,0.72337c-0.01483,0.18173 -0.12031,0.34569 -0.24822,0.37713c-0.13806,0.03393 -0.24998,-0.09938 -0.25,-0.29778v0l-0.00006,-0.71851c-0.0003,-3.83028 -0.00597,-7.64905 -0.12175,-11.4475c-0.01853,-0.60778 -0.08816,-1.2462 -0.19095,-1.90554c-0.19155,1.58797 -0.39772,3.17548 -0.6348,4.76187l-0.04135,0.70469c-0.00966,0.1881 -0.11759,0.36101 -0.2493,0.39337c-0.1378,0.03387 -0.24955,-0.09887 -0.25,-0.29663c0,-0.00005 0,-0.00008 0,-0.00014l-0.00165,-0.71796l0.04345,-0.01088l0.0015,-0.02554c-0.13048,-0.92063 -0.17642,-1.91556 -0.17514,-2.94407c-0.15207,1.00596 -0.29907,1.90264 -0.39678,2.55313l-0.05791,0.38486c0.151,3.61908 0.56692,8.83661 -0.35314,11.99524l0.09809,0.03852l-0.1936,0.67372c-0.03771,0.13897 -0.12684,0.25205 -0.23078,0.27759c-0.13273,0.03262 -0.24131,-0.08934 -0.2495,-0.2751l-0.03504,-0.69048c-0.06996,-0.53252 -0.13986,-1.06507 -0.20967,-1.59767c0.01737,3.79872 0.08244,8.58641 -0.97125,12.33409c-0.01903,0.09754 -0.03866,0.19483 -0.05892,0.29184l0.02471,0.0028l-0.12,0.71928c-0.02526,0.16619 -0.12482,0.31009 -0.2438,0.33934c-0.13807,0.03394 -0.25,-0.0994 -0.25,-0.29782c0,-0.02572 0.00189,-0.05127 0.00546,-0.07634l0.09038,-0.69759l0.00509,0.00016l-0.0019,-0.02152c0.0238,-0.1139 0.04674,-0.22817 0.06883,-0.34276c-0.02399,-0.77256 0.19772,-1.81712 0.37878,-2.72873c0.20597,-2.22534 0.20223,-4.49398 0.20223,-6.62616c0,-4.0748 0.00491,-8.15087 -0.00299,-12.22371zM345.49577,164.72578l-0.04654,-0.01124l0.15872,-0.7116c0.0318,-0.15372 0.1266,-0.28287 0.23861,-0.31041c0.10649,-0.02617 0.19743,0.04716 0.23346,0.1731l0.18777,0.61077c0.04006,0.13149 0.08153,0.28937 0.12353,0.46965c0.01502,-0.82885 0.03058,-1.65742 0.0454,-2.48551c-0.48944,0.04831 -0.97841,0.0779 -1.46539,0.09359c0.09504,1.12468 0.16171,2.29559 0.20881,3.46413c0.09055,-0.44147 0.19478,-0.87334 0.31563,-1.29247zM351.35451,161.14499c-0.11618,0.05613 -0.23264,0.11016 -0.34935,0.16218l0.00324,0.02246c0.07999,0.5551 0.22383,1.34958 0.37449,2.26129c0.09909,-0.85928 0.18302,-1.71808 0.24524,-2.57817c-0.09145,0.04411 -0.18267,0.08816 -0.27361,0.13226zM355.14881,156.20384c-0.00379,-0.42221 -0.01701,-0.8421 -0.04306,-1.25875c-0.03465,-0.55426 -0.207,-1.18043 -0.31004,-1.80859c-0.17091,1.20945 -0.32493,2.41118 -0.46015,3.62007c0.27008,-0.18054 0.54097,-0.36494 0.81324,-0.55273zM339.00383,178.6352c0,-2.05821 0,-4.11641 0,-6.17463c-0.00002,-2.82374 0.17261,-5.81957 -0.01581,-8.58385c-0.00966,-0.14164 -0.02292,-0.2926 -0.03867,-0.45103c0.00731,3.79241 -0.00746,7.58443 -0.24683,11.42709c-0.00412,0.06616 -0.00827,0.13231 -0.01246,0.19845c0.01508,0.15703 0.03001,0.31396 0.04478,0.4708c0.09797,1.04089 0.18765,2.07682 0.269,3.11317zM336.65989,160.52107c0.00873,-0.01583 0.01796,-0.03055 0.02772,-0.0441c0.01879,-0.02609 0.05531,-0.04071 0.10568,-0.04603c0.00846,-0.07859 0.01718,-0.15687 0.02615,-0.23482c-0.19362,-0.10306 -0.38645,-0.20931 -0.57976,-0.31098c0.14411,0.19168 0.2824,0.40905 0.4202,0.63594zM343.51561,162.68937c-0.05819,0.01423 -0.11639,0.02844 -0.17458,0.04265c-0.69173,0.1689 -1.3674,0.31285 -2.01894,0.40095c-0.00231,0.22166 -0.00569,0.44389 -0.00987,0.66643c0.23289,2.6175 0.52065,5.20296 0.84456,7.78327c0.59264,4.72116 0.34291,9.91991 0.34255,14.84444c0.05253,-0.98821 0.09899,-1.95529 0.12675,-2.88312c0.15149,-5.063 0.20439,-10.10844 0.38819,-15.17694c0.06946,-1.91531 0.26836,-3.791 0.50134,-5.67767zM348.03434,160.73052c0.00984,0.04134 0.01963,0.08281 0.02935,0.12439l0.27758,-0.06823v0c0.13807,-0.03394 0.25,0.0994 0.25,0.29782c0,0.02772 -0.00218,0.05526 -0.00632,0.0822c0.19117,-0.08016 0.38415,-0.15539 0.57854,-0.22734l0.14683,-0.66909c-0.41923,0.16826 -0.84402,0.32208 -1.27597,0.46024zM354.54037,158.52732c0.09931,-0.08048 0.19788,-0.16439 0.29563,-0.25195c0.09888,-0.08858 0.19267,-0.18185 0.28226,-0.27892c0.01282,-0.34159 0.02267,-0.68251 0.02779,-1.02228c-0.30104,0.20926 -0.6009,0.4136 -0.90023,0.61255c-0.00718,0.06877 -0.01429,0.13757 -0.02134,0.20642c0.11251,0.19638 0.21856,0.4477 0.31588,0.73418zM336.83653,172.52385c-0.13632,2.18834 -0.25165,4.33575 -0.33842,6.47411c0.20795,-1.44941 0.41202,-2.82835 0.54005,-4.02633c0.17993,-1.68328 0.3307,-3.368 0.4527,-5.05063c-0.08653,-0.792 -0.17994,-1.57984 -0.27548,-2.36777c-0.12488,1.64538 -0.27475,3.29264 -0.37885,4.97063zM339.69337,163.21632c0.11012,3.16226 -0.18953,6.81703 -0.18951,9.12135c0,4.73216 0,9.46433 0,14.19648c0.05568,0.66644 0.09756,1.39915 0,2.00386c0,2.13016 0,4.26029 0,6.39045c0.08676,-0.46693 0.16915,-0.89703 0.2174,-1.23629c0.45401,-3.19206 0.4059,-6.1388 0.4059,-9.28293c0,-5.00309 0.56295,-10.11658 0.56165,-15.10596c0,-1.1616 0.04436,-2.39768 0.08397,-3.64988c-0.1025,-0.80975 -0.19094,-1.62775 -0.25254,-2.4416c-0.28135,0.01613 -0.55722,0.01855 -0.82688,0.00451zM349.41923,178.52138c0.34621,-3.20091 0.72215,-6.3892 1.21412,-9.58737c0.08646,-0.56205 0.17225,-1.12236 0.2556,-1.68141c-0.04525,-1.11542 -0.07713,-2.24536 -0.14534,-3.34179c-0.12972,1.52929 -0.43584,3.31511 -0.66327,4.90976c-0.02549,0.9915 -0.10342,1.8757 -0.26754,2.51919c-0.00353,0.0907 -0.00578,0.17885 -0.00666,0.2643l-0.00376,0.71803c-0.00088,0.19755 -0.11247,0.38455 -0.24999,0.41835c-0.0866,0.02129 -0.16292,-0.02325 -0.20778,-0.10835c0.04557,1.95844 0.06571,3.92192 0.07462,5.8893zM353.64351,158.68769c0.01837,-0.1949 0.03719,-0.38944 0.05648,-0.58369c-0.02766,-0.01569 -0.05586,-0.02545 -0.08463,-0.02885c-0.14801,-0.01749 -0.38828,0.91162 -0.5046,1.38112c0.16095,-0.08342 0.32089,-0.17206 0.47958,-0.26685c0.0201,-0.17252 0.03792,-0.33993 0.05317,-0.50174zM349.21334,164.226c-0.02419,0.15812 -0.04484,0.30594 -0.05987,0.43966c-0.06279,0.55863 -0.1254,1.11728 -0.18854,1.67593c0.05748,0.52393 0.10773,1.04445 0.15102,1.55617c0.00195,-1.21332 0.05052,-2.46188 0.09738,-3.67176zM346.86456,167.76819c0.0887,-1.40589 0.22438,-2.79648 0.52426,-4.10384c-0.00792,-0.03714 -0.0158,-0.07428 -0.02363,-0.1114l-0.00143,-0.00014l0.0006,-0.00383c-0.08283,-0.39276 -0.16027,-0.78354 -0.22915,-1.1706c-0.05269,0.00723 -0.10537,0.01422 -0.15806,0.02097c-0.02627,1.78243 -0.07404,3.57747 -0.11259,5.36883zM348.04582,166.54329c-0.03225,0.93915 -0.069,1.87919 -0.09235,2.81617c0.06105,-0.77555 0.12427,-1.56273 0.19889,-2.34611c-0.03495,-0.15624 -0.07054,-0.31295 -0.10654,-0.47006zM348.5939,163.57921c0.09318,-0.53169 0.19944,-1.04943 0.32224,-1.54745c-0.19055,0.04907 -0.38142,0.09401 -0.57252,0.13515c0.09005,0.4629 0.17341,0.93505 0.25028,1.4123zM349.7683,160.07983c0.02069,0.04722 0.03251,0.10482 0.03251,0.1693v0v0v0.46553c0.62396,-0.2114 1.25726,-0.40749 1.88624,-0.64015c0.0168,-0.31755 0.03032,-0.63537 0.04024,-0.95354c-0.64465,0.35222 -1.29547,0.67344 -1.95899,0.95887zM349.82775,161.76351c0.02166,0.47708 0.05413,1.03677 0.08891,1.64551c0.11355,-0.63453 0.24852,-1.24692 0.40907,-1.82235c-0.16559,0.06261 -0.3316,0.12149 -0.49798,0.17684zM352.4206,158.72925l0.00048,0.02501l-0.03583,0.01023c0.02969,0.19726 0.05653,0.39788 0.08074,0.60155c0.07645,-0.29269 0.15958,-0.56603 0.24997,-0.81125c-0.09838,0.05883 -0.19682,0.11698 -0.29536,0.17445zM355.0652,159.16897c-0.09587,0.06318 -0.19223,0.12506 -0.289,0.18575c0.08737,0.36308 0.16204,0.74719 0.22111,1.12678c0.02184,-0.4371 0.04568,-0.87493 0.06788,-1.31252zM345.9398,165.35083c0.03788,1.08841 -0.08039,2.44672 -0.25784,3.85964c0.00277,3.79322 0.00176,7.5874 -0.00263,11.38237c0.05833,0.44325 0.11656,0.88654 0.17471,1.32989c0.04303,-2.94802 0.38498,-6.32827 0.4428,-8.78127c-0.17533,-2.56041 0.22567,-5.39259 -0.35705,-7.79064zM339.67429,162.75876c0.26426,-0.00815 0.53544,-0.03557 0.80974,-0.0763c-0.00422,-0.06948 -0.00823,-0.1389 -0.01201,-0.20827c-0.28201,0.00423 -0.5551,-0.00763 -0.81527,-0.03899c0.00641,0.10709 0.01224,0.21498 0.01754,0.32357zM339.52492,160.98213c0.30331,0.0776 0.60266,0.17526 0.90582,0.30974c-0.0008,-0.05772 -0.0014,-0.11536 -0.00181,-0.17293c-0.30586,-0.07149 -0.60943,-0.13455 -0.91016,-0.18462c0.00208,0.0159 0.00413,0.03184 0.00616,0.04781zM341.31198,161.34313c0.00045,0.01792 0.00088,0.03585 0.00131,0.05378c0.09519,0.00891 0.19058,0.0171 0.28614,0.02458c-0.09597,-0.02642 -0.19179,-0.05258 -0.28745,-0.07836zM341.46946,162.49062c-0.04804,-0.00242 -0.09602,-0.00485 -0.14393,-0.00732c0,0.01334 0,0.02668 -0.00001,0.04004c0.04801,-0.01071 0.096,-0.02163 0.14394,-0.03273zM337.67768,162.84136c0.00046,-0.04748 0.00101,-0.09492 0.00165,-0.14231c-0.0023,-0.00122 -0.00459,-0.00242 -0.00689,-0.00364c0.0017,0.04865 0.00345,0.0973 0.00524,0.14595zM337.65192,162.02285c0.01375,0.01577 0.02759,0.03136 0.04151,0.04673c0.00643,-0.20291 0.01474,-0.40486 0.02513,-0.60568c-0.01944,-0.02593 -0.03838,-0.05245 -0.05683,-0.07955c-0.00786,-0.00137 -0.01573,-0.00276 -0.02361,-0.00414c0.00361,0.21433 0.00823,0.42853 0.01379,0.64265zM337.74615,160.6504c0.00882,0.00157 0.01763,0.00311 0.02643,0.00466c0.00043,-0.00519 0.00087,-0.0104 0.0013,-0.01561c-0.01174,-0.00424 -0.02347,-0.00855 -0.03519,-0.01291l-0.00337,0.0202c0.00361,0.00123 0.00722,0.00245 0.01083,0.00367zM337.59865,160.57187c0.00114,0.01006 0.00228,0.02013 0.00342,0.03021l0.10259,0.01165c-0.03542,-0.01349 -0.07075,-0.02745 -0.10601,-0.04185zM338.44833,163.01081c-0.02259,-0.00673 -0.04512,-0.01363 -0.06759,-0.02071c0.0026,1.26728 0.03112,2.52885 0.06514,3.78975c0.00716,-1.25729 0.00549,-2.51301 0.00245,-3.76904zM355.53306,157.48655c0.33824,-0.46439 0.6257,-0.97293 0.935,-1.45424c-0.31287,0.22754 -0.62347,0.45069 -0.93253,0.66893c0.00071,0.26117 -0.00023,0.52293 -0.00247,0.78531zM338.44732,162.61451c-0.00046,-0.17791 -0.00093,-0.35584 -0.00139,-0.53378c-0.01378,-0.00737 -0.02748,-0.01487 -0.04108,-0.02248c-0.00935,0.18993 -0.01743,0.36924 -0.0215,0.5314c0.02112,0.00882 0.04244,0.01712 0.06397,0.02488zM352.63785,165.12612c0.29396,-1.77866 0.61976,-3.53599 0.83314,-5.02596c-0.20541,0.10807 -0.4114,0.21307 -0.61738,0.31592c-0.08734,0.3432 -0.16261,0.67845 -0.22838,1.01002c0.05063,1.19096 0.04383,2.4411 0.01263,3.70002z" fill="#390200" stroke="none" stroke-width="0.5"/><path d="M354.19136,156.53102c-9.39154,5.52326 -21.33323,5.4624 -21.33323,5.4624c0,0 3.21348,-12.27927 9.16467,-22.51745c4.65673,-8.01125 11.29543,-14.46707 17.35568,-14.83895c6.50734,-0.39933 10.34853,5.29008 10.34853,9.44454c0,6.35892 -6.49961,17.13528 -15.53565,22.44947z" fill="#000000" stroke="#000000" stroke-width="2"/><path d="M317.41098,146.92805c-0.22911,-0.45822 -0.45827,-0.91641 -0.68655,-1.37505l-0.23783,-0.32385c0,0 -0.09506,-0.13003 -0.0282,-0.25765c-0.81244,-1.50807 -1.47587,-3.06256 -1.68559,-3.8571c-0.08519,-0.19207 -0.35956,-0.68783 -0.60127,-1.20487c-0.00779,0.00628 -0.01619,0.01245 -0.02525,0.0185c-0.20801,0.13868 -0.34669,-0.06934 -0.34669,-0.06934c-0.80245,-1.21216 -1.41974,-2.56625 -2.00917,-3.90819c-0.07629,-0.1211 -0.14784,-0.2465 -0.21414,-0.37643c-0.072,-0.14781 -0.15303,-0.29306 -0.2423,-0.4357c-0.12817,-0.14554 -0.24898,-0.30025 -0.361,-0.46592c-0.02501,-0.0284 -0.04787,-0.06581 -0.05581,-0.11221c-1.61066,-1.96926 -4.73481,-3.35686 -6.92331,-3.90712c-2.26862,-0.91281 -6.16278,-1.57837 -8.59417,-1.564c0,0 -0.25,0 -0.25,-0.25c0,-0.25 0.25,-0.25 0.25,-0.25c2.49988,0.01274 6.4221,0.64586 8.74885,1.58853c2.35789,0.58792 5.53027,2.06616 7.20955,4.15635l0.30318,0.16303c0.10622,0.19755 0.20831,0.39767 0.30751,0.59963c1.18853,1.19019 2.89718,1.75983 4.15621,2.92355c1.72396,0.12627 3.83558,0.70609 4.75898,0.77712c0.27434,0.02122 0.78244,0.01412 1.28359,0.0326c0.09571,-0.02747 0.19225,-0.05797 0.28949,-0.09125c-0.01616,-0.03208 -0.02627,-0.07225 -0.02627,-0.12252c0,-0.25 0.25,-0.25 0.25,-0.25l0.15559,0.00001c0.21875,-0.00161 0.41652,-0.0118 0.60357,-0.03952c0.73527,-0.35782 1.48019,-0.81772 2.17387,-1.27442c0.61319,-0.5453 1.29048,-1.02646 1.96405,-1.42996c0.0185,-0.02491 0.03697,-0.05002 0.0554,-0.07532c0.14695,-0.10021 0.29391,-0.20041 0.44086,-0.30062l0.32954,-0.16535c0,0 0.0806,-0.0403 0.16922,-0.02412c2.05287,-1.99523 5.7329,-3.78396 8.56753,-4.34936c0.82157,-0.28463 1.87795,-0.44674 2.61723,-0.83043l0.31539,-0.15769c0,0 0.2236,-0.1118 0.33541,0.11181c0.11181,0.2236 -0.11181,0.33541 -0.11181,0.33541l-0.31538,0.15769c-0.79744,0.38734 -1.84368,0.56788 -2.70995,0.86578c-2.77424,0.55632 -6.4937,2.3272 -8.45196,4.31733c-0.27263,0.13658 -0.55402,0.28877 -0.83805,0.45545c-0.01312,0.11526 -0.11992,0.18333 -0.11992,0.18333l-0.01328,0.00847c-0.03609,0.02284 -0.07263,0.04617 -0.10963,0.06994c-0.0684,0.08614 -0.1372,0.16985 -0.20633,0.2514l-0.02966,0.27468l-0.12998,-0.01403c-0.1838,0.70802 -0.90823,1.1764 -1.71579,1.60515c-0.74422,0.7057 -1.4194,1.43213 -1.89173,2.53517c-0.02999,0.19 -0.0457,0.38265 -0.0457,0.5777c0,0 0,0.24807 -0.2471,0.24999c-0.02645,0.09221 -0.05171,0.18674 -0.07575,0.28373c0,0 -0.04215,0.16857 -0.19669,0.18951c-0.54403,1.41066 -1.31009,2.80023 -2.1209,4.02206c-0.0509,0.30051 -0.11744,0.60349 -0.19779,0.89209c0.0084,0.08132 -0.02665,0.15142 -0.02665,0.15142l-0.04478,0.08955c-0.07975,0.25289 -0.1704,0.49005 -0.27061,0.69892c0,0 -0.0505,0.10101 -0.15151,0.1333c-0.26894,0.54832 -0.45287,1.04795 -0.45287,1.80492c0,0 0,0.12356 -0.08687,0.19695c0.23322,2.14524 0.40226,4.33727 0.40226,6.4262c0,0.68334 0,1.36669 0,2.05003v0.47308c0,0 0,0.25 -0.25,0.25c-0.25,0 -0.25,-0.25 -0.25,-0.25c0,-0.68334 0,-1.83977 0,-2.52311c0,-2.1221 -0.17629,-4.35193 -0.41653,-6.52969c-0.08291,-0.01627 -0.14102,-0.07438 -0.14102,-0.07438c-0.62269,-0.63102 -0.74097,-1.66487 -1.48178,-2.13844l-0.15839,-0.33378c0,0 -0.06996,-0.24001 0.17005,-0.30997c0.03603,-0.0105 0.06823,-0.01402 0.09693,-0.01241c-0.03349,-0.0468 -0.067,-0.09426 -0.10051,-0.14236c-0.20517,0.08098 -0.30775,-0.12419 -0.30775,-0.12419zM320.94616,144.51622c0.25,0 0.25,0.25 0.25,0.25v0.15769c0,0.05195 -0.00076,0.10505 -0.00227,0.15916c0.77755,-1.28809 1.46531,-2.7034 1.89211,-4.11381c0.03039,-0.10045 0.16021,-0.64766 0.18757,-1.05555c-0.01072,0.01508 -0.02118,0.03028 -0.03134,0.04561l-0.21898,0.24448c0,0 -0.1684,0.18476 -0.35317,0.01636c-0.18477,-0.16841 -0.01637,-0.35317 -0.01637,-0.35317l0.17249,-0.18502c0.05683,-0.08481 0.12459,-0.17311 0.20179,-0.26402c-0.229,-0.05173 -0.51447,-0.07525 -0.8127,-0.08702c-0.38346,0.10569 -0.75654,0.16599 -1.11145,0.16599c0,0 -0.21558,0 -0.24636,-0.20019c-0.00398,-0.00029 -0.00793,-0.00059 -0.01187,-0.00089c-2.24153,-0.17243 -4.47204,-0.43149 -6.66123,-0.50292c-0.32799,-0.0107 0.40082,0.52858 0.52728,0.83141c0.18375,0.44001 0.34002,0.88594 0.53298,1.32466c0.52244,1.97266 1.88012,3.39014 2.85767,5.14043c0.28291,0.50654 0.63078,1.4775 1.09328,1.95826c0.03223,-0.02935 0.07793,-0.05219 0.14261,-0.06027c0.07657,-0.00957 0.13247,0.00745 0.17315,0.03556l0.10734,-0.21467c0.30827,-0.6165 0.67011,-1.19489 0.99128,-1.80456c0.05697,-0.38752 0.08618,-0.76456 0.08618,-1.07983v-0.15769c0,0 0,-0.25 0.25,-0.25zM317.98801,147.43474c0.00531,0.00366 0.01059,0.00733 0.01584,0.01102c-0.00401,-0.00531 -0.00803,-0.01063 -0.01204,-0.01596zM319.16753,148.6413c-0.15801,-0.1031 -0.32295,-0.24223 -0.49235,-0.41091c0.1926,0.33963 0.3434,0.70565 0.56746,1.03667c-0.0246,-0.2093 -0.04967,-0.41794 -0.07511,-0.62576zM313.83085,138.43937c0.12383,-0.11812 0.28283,-0.2089 0.46994,-0.27662c-0.46616,-0.25866 -0.92093,-0.55339 -1.33584,-0.89767c0.25494,0.55358 0.52133,1.10116 0.82395,1.62798c-0.04537,-0.21022 -0.0414,-0.37419 0.04195,-0.45369zM314.9079,137.91946l0.18234,0.09116c0.08587,-0.00641 0.17415,-0.01062 0.26454,-0.01281c-0.85258,-0.69175 -1.86863,-1.1774 -2.7774,-1.7959c0.62865,0.75668 1.48888,1.30754 2.33052,1.71755zM323.38515,139.00448c-0.01378,-0.03812 -0.01629,-0.07321 -0.01187,-0.10473c-0.04142,0.01889 -0.0828,0.03744 -0.12416,0.05565c0.05037,0.01467 0.096,0.03097 0.13603,0.04908z" fill="#000000" stroke="none" stroke-width="0.5"/><path d="M312.53548,136.17462c0.90877,0.6185 2.0088,1.15845 2.86137,1.8502c-0.09039,0.0022 -0.18179,0.01074 -0.26766,0.01714l-0.18345,-0.08983c-0.84164,-0.41001 -1.78161,-1.02083 -2.41026,-1.77751z" fill="#000000" stroke="none" stroke-width="0.5"/><path d="M313.79831,138.94216c-0.30262,-0.52683 -0.61013,-1.16215 -0.86507,-1.71574c0.41492,0.34428 0.95101,0.68388 1.41717,0.94254c-0.18712,0.06772 -0.37164,0.19611 -0.49548,0.31423c-0.08335,0.0795 -0.10199,0.24875 -0.05662,0.45897z" fill="#000000" stroke="none" stroke-width="0.5"/><path d="M320.73771,144.79405l-0.00151,0.15982c0,0.31527 -0.03939,0.70246 -0.09636,1.08998c-0.32117,0.60967 -0.70248,1.19686 -1.01075,1.81336l-0.10891,0.21498c-0.04068,-0.02811 -0.09833,-0.04484 -0.1749,-0.03527c-0.06468,0.00808 -0.11198,0.03112 -0.14421,0.06047c-0.4625,-0.48076 -0.82653,-1.45257 -1.10944,-1.95912c-0.97755,-1.75029 -2.36515,-3.24578 -2.88759,-5.21844c-0.19296,-0.43872 -0.34478,-0.89002 -0.52853,-1.33003c-0.12646,-0.30283 -0.85398,-0.84342 -0.52598,-0.83272c2.18919,0.07143 4.47776,0.32203 6.71928,0.49446c0.00394,0.0003 0.008,0.00065 0.01197,0.00094c0.03078,0.20019 0.2493,0.20186 0.2493,0.20186c0.3549,0 0.73442,-0.05559 1.11788,-0.16128c0.29823,0.01178 0.58779,0.03926 0.81679,0.09099c-0.0772,0.0909 -0.14461,0.17958 -0.20144,0.26439l-0.17235,0.18518c0,0 -0.16667,0.18681 0.0181,0.35522c0.18477,0.16841 0.27404,0.04474 0.27404,0.04474l0.21932,-0.24402c0.01016,-0.01532 0.10014,-0.09114 0.11087,-0.10622c-0.02736,0.40789 -0.15322,0.96114 -0.18361,1.06158c-0.4268,1.41041 -1.11657,2.8777 -1.89412,4.16579c0.00151,-0.05411 -0.08229,-0.16055 -0.08229,-0.2125l-0.00117,-0.15563c0,0 0.08905,-0.20454 -0.16095,-0.20454c-0.25,0 -0.25345,0.256 -0.25345,0.256z" fill="#000000" stroke="none" stroke-width="0.5"/><path d="M319.26665,149.31092c-0.22407,-0.33102 -0.42289,-0.78476 -0.61548,-1.12439c0.1694,0.16868 0.4028,0.32879 0.56081,0.43188c0.02544,0.20782 0.03007,0.4832 0.05467,0.6925z" fill="#000000" stroke="none" stroke-width="0.5"/><path d="M266.24437,114.2033c11.49031,-16.34741 31.23164,-27.134 53.65686,-27.134c23.14994,0 43.43969,11.49502 54.74481,28.73612c0.35357,0.53921 -108.84588,-0.97013 -108.40167,-1.60213z" fill="#0251ac" stroke="#000000" stroke-width="0"/><path d="M269.22119,110.53913c11.74751,-14.27579 30.16356,-23.46983 50.86725,-23.46983c21.1755,0 39.95791,9.61784 51.65994,24.45366c0.12913,0.16371 -102.65236,-0.83173 -102.52719,-0.98384z" fill="#0245b4" stroke="#000000" stroke-width="0"/><path d="M275.03052,104.21856c11.57842,-10.61075 27.41111,-17.14926 44.87071,-17.14926c17.70189,0 33.73141,6.72124 45.35028,17.59335c0.10442,0.09771 -90.25926,-0.40902 -90.22099,-0.44409z" fill="#0221b0" stroke="#000000" stroke-width="0"/><path d="M281.68032,103.06558c0.9665,0 1.75,0.7835 1.75,1.75c0,0.9665 -0.7835,1.75 -1.75,1.75c-0.45599,0 -0.87125,-0.1744 -1.18271,-0.46014c-0.31146,0.28574 -0.72672,0.46014 -1.18271,0.46014c-0.49234,0 -0.93719,-0.20331 -1.25518,-0.53056c-0.28012,0.5932 -0.88379,1.00364 -1.58332,1.00364c-0.9665,0 -1.75,-0.7835 -1.75,-1.75c0,-0.9665 0.7835,-1.75 1.75,-1.75c0.49234,0 0.93719,0.20331 1.25518,0.53056c0.28012,-0.5932 0.88379,-1.00364 1.58332,-1.00364c0.45599,0 0.87125,0.1744 1.18271,0.46014c0.31146,-0.28574 0.72672,-0.46014 1.18271,-0.46014z" fill="#0221b0" stroke="none" stroke-width="0.5"/><path d="M283.87267,104.81558c0,-0.9665 0.7835,-1.75 1.75,-1.75c0.9665,0 1.75,0.7835 1.75,1.75c0,0.9665 -0.7835,1.75 -1.75,1.75c-0.9665,0 -1.75,-0.7835 -1.75,-1.75z" fill="#0221b0" stroke="none" stroke-width="0.5"/><path d="M289.73427,106.0519c0,-0.1125 0.01486,-0.22152 0.04273,-0.32522c-0.76426,-0.18769 -1.3312,-0.87742 -1.3312,-1.69957c0,-0.9665 0.7835,-1.75 1.75,-1.75c0.9665,0 1.75,0.7835 1.75,1.75c0,0.35827 -0.10766,0.69139 -0.29239,0.96878c0.34915,0.2217 0.58086,0.6118 0.58086,1.05601c0,0.69036 -0.55964,1.25 -1.25,1.25c-0.69036,0 -1.25,-0.55964 -1.25,-1.25z" fill="#0221b0" stroke="none" stroke-width="0.5"/><path d="M295.86124,105.10573c0,0.69036 -0.55964,1.25 -1.25,1.25c-0.49458,0 -0.92207,-0.28724 -1.12476,-0.70399c-0.64376,-0.25846 -1.09832,-0.88847 -1.09832,-1.62464c0,-0.9665 0.7835,-1.75 1.75,-1.75c0.9665,0 1.75,0.7835 1.75,1.75c0,0.21867 -0.04011,0.42797 -0.11336,0.62094c0.0558,0.14174 0.08644,0.29613 0.08644,0.45768z" fill="#0221b0" stroke="none" stroke-width="0.5"/><path d="M298.88054,106.20959c0,-0.09734 0.01113,-0.19208 0.03218,-0.28302c-0.59407,-0.27978 -1.00526,-0.88391 -1.00526,-1.58408c0,-0.9665 0.7835,-1.75 1.75,-1.75c0.91938,0 1.67318,0.70898 1.74448,1.61003c0.14132,-0.82472 0.85976,-1.45234 1.72479,-1.45234c0.9665,0 1.75,0.7835 1.75,1.75c0,0.9665 -0.7835,1.75 -1.75,1.75c-0.91938,0 -1.67318,-0.70898 -1.74448,-1.61003c-0.04693,0.27387 -0.1575,0.52601 -0.31595,0.74064c0.19553,0.2206 0.31425,0.51083 0.31425,0.82879c0,0.69036 -0.55964,1.25 -1.25,1.25c-0.69036,0 -1.25,-0.55964 -1.25,-1.25z" fill="#0221b0" stroke="none" stroke-width="0.5"/><path d="M305.97677,106.99806c0,-0.43258 0.21973,-0.81384 0.55367,-1.03825c-0.35643,-0.32036 -0.58059,-0.78497 -0.58059,-1.30194c0,-0.9665 0.7835,-1.75 1.75,-1.75c0.9665,0 1.75,0.7835 1.75,1.75c0,0.76614 -0.49233,1.41729 -1.17787,1.65434c0.12946,0.1969 0.20479,0.43258 0.20479,0.68584c0,0.69036 -0.55964,1.25 -1.25,1.25c-0.69036,0 -1.25,-0.55964 -1.25,-1.25z" fill="#0221b0" stroke="none" stroke-width="0.5"/><path d="M310.99607,104.65788c0,-0.9665 0.7835,-1.75 1.75,-1.75c0.9665,0 1.75,0.7835 1.75,1.75c0,0.9665 -0.7835,1.75 -1.75,1.75c-0.9665,0 -1.75,-0.7835 -1.75,-1.75z" fill="#0221b0" stroke="none" stroke-width="0.5"/><path d="M315.09612,104.65788c0,-0.9665 0.7835,-1.75 1.75,-1.75c0.9665,0 1.75,0.7835 1.75,1.75c0,0.9665 -0.7835,1.75 -1.75,1.75c-0.9665,0 -1.75,-0.7835 -1.75,-1.75z" fill="#0221b0" stroke="none" stroke-width="0.5"/><path d="M322.69235,106.68268c0,-0.23512 0.06491,-0.45507 0.17779,-0.64292c-0.22727,-0.29525 -0.36241,-0.66509 -0.36241,-1.06648c0,-0.9665 0.7835,-1.75 1.75,-1.75c0.41852,0 0.80273,0.14692 1.10386,0.39199c0.30113,-0.24507 0.68534,-0.39199 1.10386,-0.39199c0.9665,0 1.75,0.7835 1.75,1.75c0,0.9665 -0.7835,1.75 -1.75,1.75c-0.41852,0 -0.80273,-0.14692 -1.10386,-0.39199c-0.05959,0.0485 -0.12244,0.09315 -0.18816,0.13359c0.01243,0.07073 0.01891,0.14351 0.01891,0.21781c0,0.69036 -0.55964,1.25 -1.25,1.25c-0.69036,0 -1.25,-0.55964 -1.25,-1.25z" fill="#0221b0" stroke="none" stroke-width="0.5"/><path d="M340.50024,102.4348c0.9665,0 1.75,0.7835 1.75,1.75c0,0.9665 -0.7835,1.75 -1.75,1.75c-0.53805,0 -1.01938,-0.24282 -1.3404,-0.62485c-0.32102,0.38203 -0.80235,0.62485 -1.3404,0.62485c-0.9665,0 -1.75,-0.7835 -1.75,-1.75c0,-0.9665 0.7835,-1.75 1.75,-1.75c0.53805,0 1.01938,0.24282 1.3404,0.62485c0.32102,-0.38203 0.80235,-0.62485 1.3404,-0.62485z" fill="#0221b0" stroke="none" stroke-width="0.5"/><path d="M345.05801,104.34249c0,-0.9665 0.7835,-1.75 1.75,-1.75c0.9665,0 1.75,0.7835 1.75,1.75c0,0.9665 -0.7835,1.75 -1.75,1.75c-0.9665,0 -1.75,-0.7835 -1.75,-1.75z" fill="#0221b0" stroke="none" stroke-width="0.5"/><path d="M353.74655,102.90788c0.9665,0 1.75,0.7835 1.75,1.75c0,0.9665 -0.7835,1.75 -1.75,1.75c-0.4021,0 -0.77252,-0.13561 -1.06803,-0.3636c-0.24563,0.1314 -0.52626,0.2059 -0.8243,0.2059c-0.9665,0 -1.75,-0.7835 -1.75,-1.75c0,-0.9665 0.7835,-1.75 1.75,-1.75c0.4021,0 0.77252,0.13561 1.06803,0.3636c0.24563,-0.1314 0.52626,-0.2059 0.8243,-0.2059z" fill="#0221b0" stroke="none" stroke-width="0.5"/><path d="M356.72738,104.97327c0,-0.9665 0.7835,-1.75 1.75,-1.75c0.9665,0 1.75,0.7835 1.75,1.75c0,0.9665 -0.7835,1.75 -1.75,1.75c-0.9665,0 -1.75,-0.7835 -1.75,-1.75z" fill="#0221b0" stroke="none" stroke-width="0.5"/><path d="M360.35434,105.44635c0,-0.9665 0.7835,-1.75 1.75,-1.75c0.9665,0 1.75,0.7835 1.75,1.75c0,0.9665 -0.7835,1.75 -1.75,1.75c-0.9665,0 -1.75,-0.7835 -1.75,-1.75z" fill="#0221b0" stroke="none" stroke-width="0.5"/><path d="M269.83789,110.96565c0,-0.9665 0.7835,-1.75 1.75,-1.75c0.9665,0 1.75,0.7835 1.75,1.75c0,0.9665 -0.7835,1.75 -1.75,1.75c-0.9665,0 -1.75,-0.7835 -1.75,-1.75z" fill="#0245b4" stroke="none" stroke-width="0.5"/><path d="M274.41102,110.96565c0,-0.9665 0.7835,-1.75 1.75,-1.75c0.9665,0 1.75,0.7835 1.75,1.75c0,0.9665 -0.7835,1.75 -1.75,1.75c-0.9665,0 -1.75,-0.7835 -1.75,-1.75z" fill="#0245b4" stroke="none" stroke-width="0.5"/><path d="M278.35338,111.28104c0,-0.9665 0.7835,-1.75 1.75,-1.75c0.9665,0 1.75,0.7835 1.75,1.75c0,0.9665 -0.7835,1.75 -1.75,1.75c-0.9665,0 -1.75,-0.7835 -1.75,-1.75z" fill="#0245b4" stroke="none" stroke-width="0.5"/><path d="M287.18425,110.96565c0,-0.9665 0.7835,-1.75 1.75,-1.75c0.9665,0 1.75,0.7835 1.75,1.75c0,0.9665 -0.7835,1.75 -1.75,1.75c-0.9665,0 -1.75,-0.7835 -1.75,-1.75z" fill="#0245b4" stroke="none" stroke-width="0.5"/><path d="M294.44199,111.88658c0,0.69036 -0.55964,1.25 -1.25,1.25c-0.38713,0 -0.73315,-0.17599 -0.96244,-0.45232c-0.8079,-0.15498 -1.41834,-0.86551 -1.41834,-1.71861c0,-0.9665 0.7835,-1.75 1.75,-1.75c0.9665,0 1.75,0.7835 1.75,1.75c0,0.10629 -0.00948,0.21037 -0.02763,0.31144c0.10089,0.18031 0.15841,0.38819 0.15841,0.6095z" fill="#0245b4" stroke="none" stroke-width="0.5"/><path d="M298.24976,111.88658c0,-0.16155 0.03065,-0.31594 0.08644,-0.45768c-0.07326,-0.19298 -0.11336,-0.40228 -0.11336,-0.62094c0,-0.9665 0.7835,-1.75 1.75,-1.75c0.9665,0 1.75,0.7835 1.75,1.75c0,0.73617 -0.45456,1.36617 -1.09832,1.62464c-0.20269,0.41676 -0.63018,0.70399 -1.12476,0.70399c-0.69036,0 -1.25,-0.55964 -1.25,-1.25z" fill="#0245b4" stroke="none" stroke-width="0.5"/><path d="M315.72689,111.28104c0,-0.9665 0.7835,-1.75 1.75,-1.75c0.9665,0 1.75,0.7835 1.75,1.75c0,0.9665 -0.7835,1.75 -1.75,1.75c-0.9665,0 -1.75,-0.7835 -1.75,-1.75z" fill="#0245b4" stroke="none" stroke-width="0.5"/><path d="M320.77311,111.28104c0,-0.9665 0.7835,-1.75 1.75,-1.75c0.9665,0 1.75,0.7835 1.75,1.75c0,0.9665 -0.7835,1.75 -1.75,1.75c-0.9665,0 -1.75,-0.7835 -1.75,-1.75z" fill="#0245b4" stroke="none" stroke-width="0.5"/><path d="M325.03085,110.96565c0,-0.9665 0.7835,-1.75 1.75,-1.75c0.9665,0 1.75,0.7835 1.75,1.75c0,0.9665 -0.7835,1.75 -1.75,1.75c-0.9665,0 -1.75,-0.7835 -1.75,-1.75z" fill="#0245b4" stroke="none" stroke-width="0.5"/><path d="M332.60017,110.96565c0,-0.9665 0.7835,-1.75 1.75,-1.75c0.9665,0 1.75,0.7835 1.75,1.75c0,0.9665 -0.7835,1.75 -1.75,1.75c-0.9665,0 -1.75,-0.7835 -1.75,-1.75z" fill="#0245b4" stroke="none" stroke-width="0.5"/><path d="M337.80408,110.96565c0,-0.9665 0.7835,-1.75 1.75,-1.75c0.9665,0 1.75,0.7835 1.75,1.75c0,0.9665 -0.7835,1.75 -1.75,1.75c-0.9665,0 -1.75,-0.7835 -1.75,-1.75z" fill="#0245b4" stroke="none" stroke-width="0.5"/><path d="M347.91187,113.60967c-0.58071,0 -1.06894,-0.396 -1.20937,-0.93268c-0.11852,0.02533 -0.24149,0.03867 -0.36757,0.03867c-0.9665,0 -1.75,-0.7835 -1.75,-1.75c0,-0.9665 0.7835,-1.75 1.75,-1.75c0.69427,0 1.29411,0.40429 1.57694,0.99029c0.28283,-0.586 0.88267,-0.99029 1.57694,-0.99029c0.9665,0 1.75,0.7835 1.75,1.75c0,0.9665 -0.7835,1.75 -1.75,1.75c-0.12608,0 -0.24905,-0.01333 -0.36757,-0.03867c-0.14043,0.53669 -0.62866,0.93268 -1.20937,0.93268z" fill="#0245b4" stroke="none" stroke-width="0.5"/><path d="M357.36196,112.51736c0,0.69036 -0.55964,1.25 -1.25,1.25c-0.62456,0 -1.14214,-0.45806 -1.23512,-1.05656c-0.90519,-0.06712 -1.61874,-0.82281 -1.61874,-1.74515c0,-0.9665 0.7835,-1.75 1.75,-1.75c0.9665,0 1.75,0.7835 1.75,1.75c0,0.15502 -0.02016,0.30532 -0.05799,0.44845c0.39385,0.2104 0.66185,0.62554 0.66185,1.10326z" fill="#0245b4" stroke="none" stroke-width="0.5"/><path d="M364.66592,115.35585c0,-0.15419 0.04653,-0.29751 0.12631,-0.41669c-0.45956,-0.18475 -0.78401,-0.63461 -0.78401,-1.16025c0,-0.22969 0.06195,-0.44491 0.17006,-0.62986c-0.18295,-0.18301 -0.32556,-0.40635 -0.41336,-0.65553c-0.3056,0.51087 -0.8643,0.85291 -1.50289,0.85291c-0.51295,0 -0.97435,-0.22069 -1.29444,-0.57231c-0.26586,0.16297 -0.5786,0.25692 -0.91328,0.25692c-0.9665,0 -1.75,-0.7835 -1.75,-1.75c0,-0.9665 0.7835,-1.75 1.75,-1.75c0.51295,0 0.97435,0.22069 1.29444,0.57231c0.26586,-0.16297 0.5786,-0.25692 0.91328,-0.25692c0.76257,0 1.41122,0.48775 1.651,1.1683c0.3056,-0.51087 0.8643,-0.85291 1.50289,-0.85291c0.9665,0 1.75,0.7835 1.75,1.75c0,0.58909 -0.29107,1.11019 -0.73724,1.42734c0.05142,0.13679 0.07955,0.28499 0.07955,0.43976c0,0.43689 -0.22413,0.82143 -0.56369,1.0449c0.13673,0.13586 0.22138,0.32406 0.22138,0.53204c0,0.41421 -0.33579,0.75 -0.75,0.75c-0.41421,0 -0.75,-0.33579 -0.75,-0.75z" fill="#0245b4" stroke="none" stroke-width="0.5"/><path d="M367.76597,111.91181c0,-0.9665 0.7835,-1.75 1.75,-1.75c0.9665,0 1.75,0.7835 1.75,1.75c0,0.9665 -0.7835,1.75 -1.75,1.75c-0.9665,0 -1.75,-0.7835 -1.75,-1.75z" fill="#0245b4" stroke="none" stroke-width="0.5"/><path d="M270.32634,113.78878c0.9665,0 1.75,0.7835 1.75,1.75c0,0.9665 -0.7835,1.75 -1.75,1.75c-0.49564,0 -0.94315,-0.20605 -1.26155,-0.53716c-0.3184,0.33111 -0.76592,0.53716 -1.26155,0.53716c-0.9665,0 -1.75,-0.7835 -1.75,-1.75c0,-0.9665 0.7835,-1.75 1.75,-1.75c0.49564,0 0.94315,0.20605 1.26155,0.53716c0.3184,-0.33111 0.76592,-0.53716 1.26155,-0.53716z" fill="#0251ac" stroke="none" stroke-width="0.5"/><path d="M273.99178,118.03666c0,-0.27473 0.14772,-0.51497 0.36807,-0.6456c-0.0301,0.00217 -0.0605,0.00327 -0.09115,0.00327c-0.69036,0 -1.25,-0.55964 -1.25,-1.25c0,-0.68799 0.55582,-1.24617 1.24292,-1.24998c0.08611,-0.88608 0.83303,-1.57865 1.74172,-1.57865c0.9665,0 1.75,0.7835 1.75,1.75c0,0.9665 -0.7835,1.75 -1.75,1.75c-0.21703,0 -0.42484,-0.03951 -0.61661,-0.11172c-0.12962,0.25844 -0.34622,0.46571 -0.61139,0.58342c0.39864,0.01755 0.71645,0.34629 0.71645,0.74926c0,0.41421 -0.33579,0.75 -0.75,0.75c-0.41421,0 -0.75,-0.33579 -0.75,-0.75z" fill="#0251ac" stroke="none" stroke-width="0.5"/><path d="M282.79573,116.9328c0,-0.04801 0.00271,-0.0954 0.00798,-0.142c-0.8256,-0.14058 -1.45414,-0.85944 -1.45414,-1.7251c0,-0.9665 0.7835,-1.75 1.75,-1.75c0.9665,0 1.75,0.7835 1.75,1.75c0,0.28086 -0.06617,0.54627 -0.18376,0.78149c0.37634,0.21542 0.62992,0.6209 0.62992,1.08561c0,0.69036 -0.55964,1.25 -1.25,1.25c-0.69036,0 -1.25,-0.55964 -1.25,-1.25z" fill="#0251ac" stroke="none" stroke-width="0.5"/><path d="M293.36505,114.59262c0,1.75 -1.75,1.75 -1.75,1.75h-2.36541c0,0 -1.75,0 -1.75,-1.75c0,-1.75 1.75,-1.75 1.75,-1.75h2.36541c0,0 1.75,0 1.75,1.75z" fill="#0251ac" stroke="none" stroke-width="0.5"/><path d="M293.80741,114.59262c0,-0.9665 0.7835,-1.75 1.75,-1.75c0.9665,0 1.75,0.7835 1.75,1.75c0,0.9665 -0.7835,1.75 -1.75,1.75c-0.9665,0 -1.75,-0.7835 -1.75,-1.75z" fill="#0251ac" stroke="none" stroke-width="0.5"/><path d="M301.24595,116.61741c0,-0.09872 0.01144,-0.19476 0.03308,-0.28688c-0.49082,-0.21572 -1.14739,-0.71594 -0.98857,-1.82771c0.24749,-1.73241 1.9799,-1.48492 1.9799,-1.48492l2.20772,0.31539c0,0 1.73241,0.24749 1.48492,1.9799c-0.24749,1.73241 -1.9799,1.48492 -1.9799,1.48492l-0.24554,-0.03508c-0.07214,0.62175 -0.60051,1.10438 -1.24161,1.10438c-0.69036,0 -1.25,-0.55964 -1.25,-1.25z" fill="#0251ac" stroke="none" stroke-width="0.5"/><path d="M310.22296,115.20971c0.69036,0 1.25,0.55964 1.25,1.25c0,0.69036 -0.55964,1.25 -1.25,1.25c-0.61314,0 -1.12318,-0.44146 -1.2296,-1.02386c-0.20441,0.0837 -0.42818,0.12985 -0.66273,0.12985c-0.9665,0 -1.75,-0.7835 -1.75,-1.75c0,-0.9665 0.7835,-1.75 1.75,-1.75c0.9665,0 1.75,0.7835 1.75,1.75c0,0.05148 -0.00222,0.10244 -0.00658,0.15279c0.04883,-0.0058 0.09852,-0.00878 0.14891,-0.00878z" fill="#0251ac" stroke="none" stroke-width="0.5"/><path d="M318.05207,117.41939c-0.3289,1.20595 -1.53485,0.87706 -1.53485,0.87706l-1.73464,-0.47308c0,0 -0.70816,-0.19313 -0.89115,-0.82607c-0.20698,0.0862 -0.43408,0.13379 -0.67228,0.13379c-0.9665,0 -1.75,-0.7835 -1.75,-1.75c0,-0.9665 0.7835,-1.75 1.75,-1.75c0.96431,0 1.74644,0.77995 1.74999,1.74342c0.26508,-0.01928 0.47124,0.03694 0.47124,0.03694l1.73464,0.47308c0,0 1.20595,0.3289 0.87706,1.53485z" fill="#0251ac" stroke="none" stroke-width="0.5"/><path d="M317.93461,115.69647c0,-0.9665 0.7835,-1.75 1.75,-1.75c0.9665,0 1.75,0.7835 1.75,1.75c0,0.9665 -0.7835,1.75 -1.75,1.75c-0.9665,0 -1.75,-0.7835 -1.75,-1.75z" fill="#0251ac" stroke="none" stroke-width="0.5"/><path d="M330.23726,116.6403c-0.31305,1.72177 -2.03482,1.40872 -2.03482,1.40872l-1.73464,-0.31539c0,0 -1.72177,-0.31305 -1.40872,-2.03482c0.31305,-1.72177 2.03482,-1.40872 2.03482,-1.40872l1.73464,0.31539c0,0 1.72177,0.31305 1.40872,2.03482z" fill="#0251ac" stroke="none" stroke-width="0.5"/><path d="M331.654,116.32725c0,-0.9665 0.7835,-1.75 1.75,-1.75c0.9665,0 1.75,0.7835 1.75,1.75c0,0.9665 -0.7835,1.75 -1.75,1.75c-0.9665,0 -1.75,-0.7835 -1.75,-1.75z" fill="#0251ac" stroke="none" stroke-width="0.5"/><path d="M346.16568,116.30202c0,0.69036 -0.55964,1.25 -1.25,1.25c-0.09049,0 -0.17873,-0.00961 -0.26375,-0.02788c-0.16565,0.052 -0.34191,0.08003 -0.52472,0.08003c-0.21703,0 -0.42484,-0.03951 -0.61661,-0.11172c-0.20532,0.40937 -0.62886,0.69035 -1.11802,0.69035c-0.45266,0 -0.84912,-0.24061 -1.06847,-0.60091c-0.8334,-0.13402 -1.47,-0.85653 -1.47,-1.72772c0,-0.9665 0.7835,-1.75 1.75,-1.75c0.49564,0 0.94315,0.20605 1.26155,0.53716c0.3184,-0.33111 0.76592,-0.53716 1.26155,-0.53716c0.82738,0 1.52065,0.57418 1.70309,1.3458c0.20808,0.22326 0.33538,0.52279 0.33538,0.85205z" fill="#0251ac" stroke="none" stroke-width="0.5"/><path d="M348.36958,115.85417c0,-0.9665 0.7835,-1.75 1.75,-1.75c0.9665,0 1.75,0.7835 1.75,1.75c0,0.9665 -0.7835,1.75 -1.75,1.75c-0.9665,0 -1.75,-0.7835 -1.75,-1.75z" fill="#0251ac" stroke="none" stroke-width="0.5"/><path d="M358.79276,114.41956c0.9665,0 1.75,0.7835 1.75,1.75c0,0.9665 -0.7835,1.75 -1.75,1.75c-0.5841,0 -1.10137,-0.28617 -1.41925,-0.72595c-0.31788,0.43978 -0.83514,0.72595 -1.41925,0.72595c-0.9665,0 -1.75,-0.7835 -1.75,-1.75c0,-0.9665 0.7835,-1.75 1.75,-1.75c0.5841,0 1.10137,0.28617 1.41925,0.72595c0.31788,-0.43978 0.83514,-0.72595 1.41925,-0.72595z" fill="#0251ac" stroke="none" stroke-width="0.5"/><path d="M361.16973,117.09049c0,-0.69036 0.55964,-1.25 1.25,-1.25c0.22682,0 0.43952,0.06041 0.62291,0.16602c0.08223,-0.89005 0.83098,-1.58695 1.7425,-1.58695c0.9665,0 1.75,0.7835 1.75,1.75c0,0.9665 -0.7835,1.75 -1.75,1.75c-0.45146,0 -0.863,-0.17095 -1.1734,-0.45166c-0.16002,0.50589 -0.6332,0.87259 -1.19202,0.87259c-0.69036,0 -1.25,-0.55964 -1.25,-1.25z" fill="#0251ac" stroke="none" stroke-width="0.5"/><path d="M369.36983,118.82513c0,-0.39152 0.18,-0.741 0.46176,-0.9702c-0.73679,-0.20628 -1.27715,-0.88272 -1.27715,-1.68537c0,-0.9665 0.7835,-1.75 1.75,-1.75c0.59171,0 1.11483,0.29366 1.43156,0.7432c0.19229,-0.07266 0.40073,-0.11242 0.61846,-0.11242c0.9665,0 1.75,0.7835 1.75,1.75c0,0.9665 -0.7835,1.75 -1.75,1.75c-0.18728,0 -0.36769,-0.02942 -0.53686,-0.08389c0.03397,0.11361 0.05222,0.23402 0.05222,0.35868c0,0.69036 -0.55964,1.25 -1.25,1.25c-0.69036,0 -1.25,-0.55964 -1.25,-1.25z" fill="#0251ac" stroke="none" stroke-width="0.5"/><path d="M281.21879,108.57501c0,-0.69036 0.55964,-1.25 1.25,-1.25c0.69036,0 1.25,0.55964 1.25,1.25c0,0.69036 -0.55964,1.25 -1.25,1.25c-0.69036,0 -1.25,-0.55964 -1.25,-1.25z" fill="#0221b0" stroke="none" stroke-width="0.5"/><path d="M312.12685,107.62884c0,-0.69036 0.55964,-1.25 1.25,-1.25c0.69036,0 1.25,0.55964 1.25,1.25c0,0.69036 -0.55964,1.25 -1.25,1.25c-0.69036,0 -1.25,-0.55964 -1.25,-1.25z" fill="#0221b0" stroke="none" stroke-width="0.5"/><path d="M330.10398,105.42112c0,-0.69036 0.55964,-1.25 1.25,-1.25c0.69036,0 1.25,0.55964 1.25,1.25c0,0.69036 -0.55964,1.25 -1.25,1.25c-0.69036,0 -1.25,-0.55964 -1.25,-1.25z" fill="#0221b0" stroke="none" stroke-width="0.5"/><path d="M332.62709,105.42112c0,-0.69036 0.55964,-1.25 1.25,-1.25c0.69036,0 1.25,0.55964 1.25,1.25c0,0.69036 -0.55964,1.25 -1.25,1.25c-0.69036,0 -1.25,-0.55964 -1.25,-1.25z" fill="#0221b0" stroke="none" stroke-width="0.5"/><path d="M342.24643,107.47115c0,-0.69036 0.55964,-1.25 1.25,-1.25c0.69036,0 1.25,0.55964 1.25,1.25c0,0.69036 -0.55964,1.25 -1.25,1.25c-0.69036,0 -1.25,-0.55964 -1.25,-1.25z" fill="#0221b0" stroke="none" stroke-width="0.5"/><path d="M349.36958,110.15195c0,-0.30521 0.18231,-0.56784 0.44398,-0.68493c-0.10356,0.02779 -0.21243,0.0426 -0.32476,0.0426c-0.69036,0 -1.25,-0.55964 -1.25,-1.25c0,-0.69036 0.55964,-1.25 1.25,-1.25c0.69036,0 1.25,0.55964 1.25,1.25c0,0.52616 -0.32509,0.97639 -0.78537,1.1608c0.05344,-0.01209 0.10905,-0.01847 0.16614,-0.01847c0.41421,0 0.75,0.33579 0.75,0.75c0,0.41421 -0.33579,0.75 -0.75,0.75c-0.41421,0 -0.75,-0.33579 -0.75,-0.75z" fill="#0221b0" stroke="none" stroke-width="0.5"/><path d="M360.38126,108.41731c0,-0.69036 0.55964,-1.25 1.25,-1.25c0.69036,0 1.25,0.55964 1.25,1.25c0,0.69036 -0.55964,1.25 -1.25,1.25c-0.69036,0 -1.25,-0.55964 -1.25,-1.25z" fill="#0221b0" stroke="none" stroke-width="0.5"/><path d="M304.71522,112.83275c0,-0.69036 0.55964,-1.25 1.25,-1.25c0.69036,0 1.25,0.55964 1.25,1.25c0,0.69036 -0.55964,1.25 -1.25,1.25c-0.69036,0 -1.25,-0.55964 -1.25,-1.25z" fill="#0245b4" stroke="none" stroke-width="0.5"/><path d="M319.06539,113.77891c0,-0.69036 0.55964,-1.25 1.25,-1.25c0.69036,0 1.25,0.55964 1.25,1.25c0,0.69036 -0.55964,1.25 -1.25,1.25c-0.69036,0 -1.25,-0.55964 -1.25,-1.25z" fill="#0245b4" stroke="none" stroke-width="0.5"/><path d="M328.52704,113.62122c0,-0.69036 0.55964,-1.25 1.25,-1.25c0.69036,0 1.25,0.55964 1.25,1.25c0,0.69036 -0.55964,1.25 -1.25,1.25c-0.69036,0 -1.25,-0.55964 -1.25,-1.25z" fill="#0245b4" stroke="none" stroke-width="0.5"/><path d="M335.93866,113.14814c0,-0.69036 0.55964,-1.25 1.25,-1.25c0.69036,0 1.25,0.55964 1.25,1.25c0,0.69036 -0.55964,1.25 -1.25,1.25c-0.69036,0 -1.25,-0.55964 -1.25,-1.25z" fill="#0245b4" stroke="none" stroke-width="0.5"/><path d="M311.65376,113.62122c0,-0.29027 0.09894,-0.55743 0.26493,-0.76959c-0.09006,0.01429 -0.1824,0.02172 -0.27648,0.02172c-0.70649,0 -1.31519,-0.41864 -1.59158,-1.02139c-0.31898,0.42847 -0.82939,0.706 -1.40461,0.706c-0.9665,0 -1.75,-0.7835 -1.75,-1.75c0,-0.9665 0.7835,-1.75 1.75,-1.75c0.70649,0 1.31519,0.41864 1.59158,1.02139c0.31898,-0.42847 0.82939,-0.706 1.40461,-0.706c0.9665,0 1.75,0.7835 1.75,1.75c0,0.48883 -0.20043,0.93085 -0.52358,1.24836c0.01167,-0.00032 0.02339,-0.00048 0.03514,-0.00048c0.69036,0 1.25,0.55964 1.25,1.25c0,0.69036 -0.55964,1.25 -1.25,1.25c-0.69036,0 -1.25,-0.55964 -1.25,-1.25z" fill="#0245b4" stroke="none" stroke-width="0.5"/><path d="M285.79192,116.9328c0,-0.69036 0.55964,-1.25 1.25,-1.25c0.69036,0 1.25,0.55964 1.25,1.25c0,0.69036 -0.55964,1.25 -1.25,1.25c-0.69036,0 -1.25,-0.55964 -1.25,-1.25z" fill="#0251ac" stroke="none" stroke-width="0.5"/><path d="M291.94199,117.87896c0,-0.69036 0.55964,-1.25 1.25,-1.25c0.69036,0 1.25,0.55964 1.25,1.25c0,0.69036 -0.55964,1.25 -1.25,1.25c-0.69036,0 -1.25,-0.55964 -1.25,-1.25z" fill="#0251ac" stroke="none" stroke-width="0.5"/><path d="M320.64233,118.35204c0,-0.69036 0.55964,-1.25 1.25,-1.25c0.69036,0 1.25,0.55964 1.25,1.25c0,0.69036 -0.55964,1.25 -1.25,1.25c-0.69036,0 -1.25,-0.55964 -1.25,-1.25z" fill="#0251ac" stroke="none" stroke-width="0.5"/><path d="M326.9501,119.92899c0,-0.69036 0.55964,-1.25 1.25,-1.25c0.69036,0 1.25,0.55964 1.25,1.25c0,0.69036 -0.55964,1.25 -1.25,1.25c-0.69036,0 -1.25,-0.55964 -1.25,-1.25z" fill="#0251ac" stroke="none" stroke-width="0.5"/><path d="M330.89245,119.92899c0,-0.69036 0.55964,-1.25 1.25,-1.25c0.69036,0 1.25,0.55964 1.25,1.25c0,0.69036 -0.55964,1.25 -1.25,1.25c-0.69036,0 -1.25,-0.55964 -1.25,-1.25z" fill="#0251ac" stroke="none" stroke-width="0.5"/><path d="M294.80741,108.7327c0,-0.41421 0.33579,-0.75 0.75,-0.75c0.41421,0 0.75,0.33579 0.75,0.75c0,0.41421 -0.33579,0.75 -0.75,0.75c-0.41421,0 -0.75,-0.33579 -0.75,-0.75z" fill="#0221b0" stroke="none" stroke-width="0.5"/><path d="M301.27287,109.67886c0,-0.41421 0.33579,-0.75 0.75,-0.75c0.41421,0 0.75,0.33579 0.75,0.75c0,0.41421 -0.33579,0.75 -0.75,0.75c-0.41421,0 -0.75,-0.33579 -0.75,-0.75z" fill="#0221b0" stroke="none" stroke-width="0.5"/><path d="M309.15757,109.83656c0,-0.41421 0.33579,-0.75 0.75,-0.75c0.41421,0 0.75,0.33579 0.75,0.75c0,0.41421 -0.33579,0.75 -0.75,0.75c-0.41421,0 -0.75,-0.33579 -0.75,-0.75z" fill="#0221b0" stroke="none" stroke-width="0.5"/><path d="M325.55777,108.89039c0,-0.41421 0.33579,-0.75 0.75,-0.75c0.41421,0 0.75,0.33579 0.75,0.75c0,0.41421 -0.33579,0.75 -0.75,0.75c-0.41421,0 -0.75,-0.33579 -0.75,-0.75z" fill="#0221b0" stroke="none" stroke-width="0.5"/><path d="M287.34576,113.30583c0,1.25 -1.25,1.25 -1.25,1.25h-1.26155c0,0 -1.25,0 -1.25,-1.25c0,-0.88954 0.63302,-1.14605 0.99811,-1.22002c-0.6047,-0.2756 -1.02503,-0.88533 -1.02503,-1.59324c0,-0.9665 0.7835,-1.75 1.75,-1.75c0.9665,0 1.75,0.7835 1.75,1.75c0,0.68327 -0.39158,1.27509 -0.96258,1.56326h0.00105c0,0 1.25,0 1.25,1.25z" fill="#0245b4" stroke="none" stroke-width="0.5"/><path d="M340.22332,110.15195c0,-0.41421 0.33579,-0.75 0.75,-0.75c0.41421,0 0.75,0.33579 0.75,0.75c0,0.41421 -0.33579,0.75 -0.75,0.75c-0.41421,0 -0.75,-0.33579 -0.75,-0.75z" fill="#0221b0" stroke="none" stroke-width="0.5"/><path d="M363.87745,111.25581c0,-0.41421 0.33579,-0.75 0.75,-0.75c0.41421,0 0.75,0.33579 0.75,0.75c0,0.41421 -0.33579,0.75 -0.75,0.75c-0.41421,0 -0.75,-0.33579 -0.75,-0.75z" fill="#0221b0" stroke="none" stroke-width="0.5"/><path d="M289.28811,114.0943c0,-0.41421 0.33579,-0.75 0.75,-0.75c0.41421,0 0.75,0.33579 0.75,0.75c0,0.41421 -0.33579,0.75 -0.75,0.75c-0.41421,0 -0.75,-0.33579 -0.75,-0.75z" fill="#0245b4" stroke="none" stroke-width="0.5"/><path d="M295.91126,114.40969c0,-0.41421 0.33579,-0.75 0.75,-0.75c0.41421,0 0.75,0.33579 0.75,0.75c0,0.41421 -0.33579,0.75 -0.75,0.75c-0.41421,0 -0.75,-0.33579 -0.75,-0.75z" fill="#0245b4" stroke="none" stroke-width="0.5"/><path d="M314.83456,115.67124c0,-0.41421 0.33579,-0.75 0.75,-0.75c0.41421,0 0.75,0.33579 0.75,0.75c0,0.41421 -0.33579,0.75 -0.75,0.75c-0.41421,0 -0.75,-0.33579 -0.75,-0.75z" fill="#0245b4" stroke="none" stroke-width="0.5"/><path d="M332.96939,115.51355c0,-0.41421 0.33579,-0.75 0.75,-0.75c0.41421,0 0.75,0.33579 0.75,0.75c0,0.41421 -0.33579,0.75 -0.75,0.75c-0.41421,0 -0.75,-0.33579 -0.75,-0.75z" fill="#0245b4" stroke="none" stroke-width="0.5"/><path d="M347.16187,115.98663c0,-0.41421 0.33579,-0.75 0.75,-0.75c0.41421,0 0.75,0.33579 0.75,0.75c0,0.41421 -0.33579,0.75 -0.75,0.75c-0.41421,0 -0.75,-0.33579 -0.75,-0.75z" fill="#0245b4" stroke="none" stroke-width="0.5"/><path d="M284.87267,109.36348c0,-0.41421 0.33579,-0.75 0.75,-0.75c0.41421,0 0.75,0.33579 0.75,0.75c0,0.41421 -0.33579,0.75 -0.75,0.75c-0.41421,0 -0.75,-0.33579 -0.75,-0.75z" fill="#0221b0" stroke="none" stroke-width="0.5"/><path d="M288.02656,120.71746c0,-0.41421 0.33579,-0.75 0.75,-0.75c0.41421,0 0.75,0.33579 0.75,0.75c0,0.41421 -0.33579,0.75 -0.75,0.75c-0.41421,0 -0.75,-0.33579 -0.75,-0.75z" fill="#0251ac" stroke="none" stroke-width="0.5"/><path d="M303.38908,120.57037c0.14709,0.73544 -0.58835,0.88252 -0.58835,0.88252l-0.78847,0.15769c0,0 -0.73544,0.14709 -0.88252,-0.58835c-0.14709,-0.73544 0.58835,-0.88252 0.58835,-0.88252l0.78847,-0.15769c0,0 0.73544,-0.14709 0.88252,0.58835z" fill="#0251ac" stroke="none" stroke-width="0.5"/><path d="M310.89221,119.92899c0,-0.41421 0.33579,-0.75 0.75,-0.75c0.41421,0 0.75,0.33579 0.75,0.75c0,0.41421 -0.33579,0.75 -0.75,0.75c-0.41421,0 -0.75,-0.33579 -0.75,-0.75z" fill="#0251ac" stroke="none" stroke-width="0.5"/><path d="M318.46153,119.92899c0,-0.41421 0.33579,-0.75 0.75,-0.75c0.41421,0 0.75,0.33579 0.75,0.75c0,0.41421 -0.33579,0.75 -0.75,0.75c-0.41421,0 -0.75,-0.33579 -0.75,-0.75z" fill="#0251ac" stroke="none" stroke-width="0.5"/><path d="M326.50393,122.60979c0,-0.41421 0.33579,-0.75 0.75,-0.75c0.41421,0 0.75,0.33579 0.75,0.75c0,0.41421 -0.33579,0.75 -0.75,0.75c-0.41421,0 -0.75,-0.33579 -0.75,-0.75z" fill="#0251ac" stroke="none" stroke-width="0.5"/><path d="M335.3348,122.92517c0,-0.41421 0.33579,-0.75 0.75,-0.75c0.41421,0 0.75,0.33579 0.75,0.75c0,0.41421 -0.33579,0.75 -0.75,0.75c-0.41421,0 -0.75,-0.33579 -0.75,-0.75z" fill="#0251ac" stroke="none" stroke-width="0.5"/><path d="M347.31956,119.6136c0,-0.41421 0.33579,-0.75 0.75,-0.75c0.41421,0 0.75,0.33579 0.75,0.75c0,0.41421 -0.33579,0.75 -0.75,0.75c-0.41421,0 -0.75,-0.33579 -0.75,-0.75z" fill="#0251ac" stroke="none" stroke-width="0.5"/><path d="M361.19665,121.03284c0,-0.41421 0.33579,-0.75 0.75,-0.75c0.41421,0 0.75,0.33579 0.75,0.75c0,0.41421 -0.33579,0.75 -0.75,0.75c-0.41421,0 -0.75,-0.33579 -0.75,-0.75z" fill="#0251ac" stroke="none" stroke-width="0.5"/><path d="M296.98821,117.09049c0,-0.69036 0.55964,-1.25 1.25,-1.25c0.69036,0 1.25,0.55964 1.25,1.25c0,0.69036 -0.55964,1.25 -1.25,1.25c-0.69036,0 -1.25,-0.55964 -1.25,-1.25z" fill="#0251ac" stroke="none" stroke-width="0.5"/><path d="M295.12279,119.77129c0,-0.41421 0.33579,-0.75 0.75,-0.75c0.41421,0 0.75,0.33579 0.75,0.75c0,0.41421 -0.33579,0.75 -0.75,0.75c-0.41421,0 -0.75,-0.33579 -0.75,-0.75z" fill="#0251ac" stroke="none" stroke-width="0.5"/></g><path d="M375.0242,178.34574c-1.42909,2.23585 -4.31668,4.78575 -5.14373,7.68271c-2.63832,9.24142 3.78557,17.38285 -7.20661,23.34515c-9.5647,5.18802 -24.09013,3.97742 -40.63777,4.04525c-16.54764,0.06783 -35.69699,1.09716 -47.022,-7.37044c-8.47432,-6.33616 -1.23528,-16.14573 -5.77709,-21.60687c-1.93772,-2.32994 -3.69701,-4.797 -5.25861,-7.38306c-5.29257,-8.76474 33.36796,-2.26571 56.38352,-1.99891c23.01556,0.2668 60.4492,-5.76766 54.66228,3.28616z" fill="#ffe192" stroke="#000000" stroke-width="0" stroke-linecap="butt"/><path d="M276.94949,205.16308c-3.53033,-3.99902 -5.76549,-7.3764 -4.12921,-12.47301c1.48187,-4.61566 8.09688,-14.64758 15.32549,-15.75425c4.03659,-0.61798 17.42949,6.24546 30.47126,6.21227c14.3716,-0.03658 28.56366,-6.86814 34.97182,-5.2661c10.41314,2.60329 14.10596,8.69142 13.82749,18.15963c-0.27848,9.46822 -4.40938,12.07387 -11.60912,12.68818c-7.19974,0.61431 -69.78302,6.71277 -78.85773,-3.56672z" fill="#000000" stroke="#000000" stroke-width="0.5" stroke-linecap="round"/></g></g></g></svg>