<svg version="1.1" xmlns="http://www.w3.org/2000/svg" xmlns:xlink="http://www.w3.org/1999/xlink" width="213.18203" height="281.18476" viewBox="0,0,213.18203,281.18476"><defs><linearGradient x1="320.08742" y1="187.07227" x2="320.08742" y2="244.23177" gradientUnits="userSpaceOnUse" id="color-1"><stop offset="0" stop-color="#7a6b00"/><stop offset="1" stop-color="#7a6b00" stop-opacity="0"/></linearGradient></defs><g transform="translate(-214.78369,-38.88751)"><g stroke-miterlimit="10"><g stroke-linecap="butt"><g stroke="#000000" stroke-width="3.5"><path d="M315.88533,219.71162c-9.04652,-0.08571 -9.00152,-4.83549 -9.00152,-4.83549l0.04309,-2.70456c-0.18905,-0.80347 -0.37811,-1.60696 -0.56715,-2.41043c-1.69382,-8.57203 3.02178,-16.79985 2.09894,-25.24297c-0.54584,-4.99395 -2.40042,-10.96509 -4.11793,-15.68672c-1.8677,-5.1345 -6.01955,-9.54974 -6.39448,-14.82748c-0.39975,-5.62723 6.9273,-9.89485 6.48328,-15.15451c0,0 0.045,-4.74979 9.09151,-4.66408c9.04652,0.08571 9.00152,4.83549 9.00152,4.83549c-0.0957,1.58516 0.34561,3.20837 -0.28708,4.75548c-1.15443,2.82297 -4.96516,5.18647 -6.3125,7.98452c-1.32473,2.75111 1.4976,6.3835 2.8559,8.89126c2.85083,5.26328 4.45162,10.69394 5.91093,16.10304c0.98575,3.65385 2.20232,7.20626 1.80243,10.90149c-0.77298,7.14277 -3.64475,13.95076 -2.15371,21.161c0.21733,0.97823 0.43467,1.95646 0.65201,2.93469l-0.01373,3.29518c0,0 -0.045,4.74979 -9.09152,4.66408z" fill="#39940f"/><path d="M294.29184,221.4594c-8.96197,0.58688 -10.19678,-4.1273 -10.19678,-4.1273l-0.65687,-2.53878c-0.43558,-2.45385 -0.62195,-4.92062 -0.59864,-7.38193c0.87706,-4.39884 1.53241,-9.22529 3.55835,-13.54195c2.1899,-4.66601 5.1725,-8.10021 5.57595,-12.97208c0.4676,-5.6465 -2.32046,-10.90353 -3.00094,-16.52313c-0.79479,-6.56349 0.0513,-13.62812 2.19469,-20.09545c1.21742,-3.67338 3.81792,-7.11916 5.23456,-10.7705c0,0 1.81829,-4.64073 10.68031,-3.62518c8.86201,1.01555 7.04371,5.65629 7.04371,5.65629c-3.78091,9.56856 -8.32375,18.33326 -7.09938,28.3324c0.72963,5.95873 3.59094,11.51898 3.02539,17.5355c-0.5176,5.50633 -3.61799,9.68824 -6.11648,14.91839c-1.59283,3.3343 -2.35858,8.39471 -3.03007,11.73011c-0.01883,1.9885 0.17949,3.98094 0.54474,5.96284l0.56861,2.1397c0,0 1.23481,4.71417 -7.72714,5.30105z" fill="#28670a"/><path d="M330.92658,220.84777c-8.38277,-1.84359 -4.9812,-6.22184 -4.9812,-6.22184l0.62173,0.10332c0.01248,-0.92106 0.02495,-1.8421 0.03742,-2.76315c-1.63524,-8.87373 -6.3635,-17.63784 -6.73316,-26.57617c-0.2506,-6.05966 0.57876,-10.06652 -0.43525,-15.85232c-1.16965,-6.67384 -4.17711,-13.27866 -4.93558,-19.99625c-0.51652,-4.5747 0.62519,-9.11539 -0.4493,-13.67838c0,0 -1.07742,-4.72373 7.90481,-5.22783c8.98224,-0.50409 10.05968,4.21965 10.05968,4.21965c1.0661,4.79874 0.0095,9.53272 0.55514,14.33239c0.74186,6.52572 3.72148,12.94614 4.84929,19.43156c1.19753,6.8862 0.25501,9.15243 0.52813,16.49159c0.33157,8.90981 5.15812,17.69443 6.7313,26.55377c-0.00648,1.07885 -0.01295,2.15771 -0.01943,3.23658l-1.94923,3.41247c0,0 -3.40157,4.37823 -11.78434,2.53464z" fill="#448f21"/><path d="M282.16915,226.72586c-9.04652,-0.08571 -9.00152,-4.83549 -9.00152,-4.83549l0.00316,-0.33332c0.12624,-13.32555 0.43814,-26.55186 2.96988,-39.82045c1.04557,-5.4797 4.08955,-10.86141 4.56025,-16.37341c0.88883,-10.40857 0.95998,-20.75574 2.85795,-31.14169c0,0 0.86383,-4.72252 9.86912,-4.20714c9.00529,0.51539 8.14145,5.23791 8.14145,5.23791c-1.88145,10.27532 -1.86203,20.5136 -2.80816,30.80741c-0.52242,5.68393 -3.57337,11.2262 -4.64334,16.87421c-2.44912,12.92805 -2.73112,25.81193 -2.85411,38.79457l-0.00316,0.33332c0,0 -0.045,4.74979 -9.09152,4.66408z" fill="#275313"/><path d="M324.64994,216.04449l0.0487,-3.29484c0.23583,-0.97394 0.47167,-1.94787 0.7075,-2.92181c1.62738,-7.1807 -1.1149,-14.04186 -1.75242,-21.19801c-0.32981,-3.70215 0.95386,-7.23088 2.00864,-10.86538c1.56153,-5.38048 3.26493,-10.77983 6.21496,-15.98816c1.40558,-2.48158 4.29621,-6.05985 3.02384,-8.83556c-1.29408,-2.82306 -5.05935,-5.25834 -6.16008,-8.10268c-0.60325,-1.55881 -0.13129,-3.17339 -0.19693,-4.76007c0,0 0.045,-4.74979 9.09151,-4.66408c9.04653,0.0857 9.00153,4.83549 9.00153,4.83549c-0.54361,5.2503 6.70129,9.65597 6.19499,15.27462c-0.47486,5.2697 -4.70961,9.6055 -6.67425,14.70367c-1.80666,4.68823 -3.77403,10.62316 -4.41439,15.60588c-1.08263,8.42411 3.47623,16.7398 1.62031,25.27821c-0.20423,0.79975 -0.40849,1.5995 -0.61272,2.39925l-0.00816,2.7049c0,0 -0.045,4.74979 -9.09151,4.66408c-9.04652,-0.08571 -9.00152,-4.83549 -9.00152,-4.83549z" fill="#39940f"/><path d="M347.58264,217.59006l0.60904,-2.12855c0.40273,-1.97461 0.63877,-3.96295 0.65761,-5.95145c-0.60818,-3.34751 -1.27792,-8.42154 -2.8073,-11.7854c-2.39895,-5.27655 -5.41954,-9.51645 -5.83273,-15.0316c-0.45146,-6.02615 2.51469,-11.53119 3.35707,-17.47502c1.4136,-9.97416 -2.96238,-18.82335 -6.56133,-28.46182c0,0 -1.73005,-4.67436 7.14962,-5.52183c8.87966,-0.84747 10.60971,3.82688 10.60971,3.82688c1.34721,3.67753 3.88195,7.17195 5.02956,10.86773c2.02048,6.50679 2.73257,13.58617 1.81357,20.13343c-0.78684,5.6057 -3.67401,10.80896 -3.31346,16.4633c0.31108,4.87864 3.22808,8.36873 5.32919,13.0754c1.94379,4.35426 2.50758,9.19226 3.30114,13.60694c-0.02332,2.46132 -0.25639,4.9241 -0.73839,7.36925l-0.70486,2.52588c0,0 -1.32392,4.68993 -10.27315,3.93336c-8.94923,-0.75657 -7.62532,-5.4465 -7.62532,-5.4465z" fill="#28670a"/><path d="M306.85718,218.9735l-1.88422,-3.44879c0.01396,-1.07878 0.02793,-2.15758 0.04188,-3.23636c1.74074,-8.82794 6.73287,-17.51954 7.23318,-26.42147c0.41212,-7.33267 -0.48728,-9.61634 0.84048,-16.47863c1.25049,-6.46287 4.35122,-12.8257 5.21658,-19.33619c0.63647,-4.78848 -0.33024,-9.54162 0.82658,-14.3193c0,0 1.16673,-4.70248 10.1378,-4.0283c8.97107,0.67418 7.80435,5.37665 7.80435,5.37665c-1.16076,4.54182 -0.10527,9.10332 -0.70837,13.66741c-0.8856,6.70202 -4.01766,13.24868 -5.31353,19.89916c-1.12345,5.76555 -0.37014,9.7874 -0.73552,15.84122c-0.53894,8.92971 -5.43239,17.60268 -7.23547,26.44383c-0.00499,0.92112 -0.00997,1.84224 -0.01495,2.76336l0.62358,-0.09153c0,0 3.318,4.44189 -5.09819,6.12635c-8.41619,1.68446 -11.73421,-2.75745 -11.73421,-2.75745z" fill="#448f21"/><path d="M358.22717,223.69625l0.00316,-0.33332c0.123,-12.98263 0.08513,-25.86956 -2.1186,-38.84168c-0.96276,-5.66728 -3.90817,-11.26636 -4.32281,-16.95916c-0.75093,-10.30988 -0.53753,-20.54597 -2.22398,-30.85508c0,0 -0.77422,-4.73804 8.23922,-5.08271c9.01344,-0.34468 9.78766,4.39337 9.78766,4.39337c1.70085,10.42005 1.57595,20.76671 2.26742,31.19025c0.36617,5.51994 3.30766,10.95835 4.24921,16.45687c2.2799,13.31417 2.34114,26.54402 2.21489,39.86956l-0.00316,0.33332c0,0 -0.045,4.74979 -9.09151,4.66408c-9.04652,-0.08571 -9.00152,-4.83549 -9.00152,-4.83549z" fill="#275313"/></g><g stroke="none" stroke-width="0.5"><path d="M315.88533,219.71162c-9.04652,-0.08571 -9.00152,-4.83549 -9.00152,-4.83549l0.04309,-2.70455c-0.18905,-0.80347 -0.37811,-1.60696 -0.56715,-2.41043c-1.69382,-8.57204 3.02178,-16.79985 2.09894,-25.24297c-0.54584,-4.99395 -2.40042,-10.96509 -4.11793,-15.68671c-1.86769,-5.1345 -6.01955,-9.54974 -6.39448,-14.82749c-0.39975,-5.62723 6.9273,-9.89485 6.48328,-15.1545c0,0 0.045,-4.74979 9.09151,-4.66408c9.04652,0.08571 9.00152,4.83549 9.00152,4.83549c-0.0957,1.58516 0.34561,3.20837 -0.28708,4.75548c-1.15444,2.82297 -4.96515,5.18647 -6.3125,7.98452c-1.32473,2.75111 1.49759,6.3835 2.8559,8.89126c2.85083,5.26328 4.45163,10.69394 5.91093,16.10304c0.98575,3.65384 2.20232,7.20626 1.80243,10.90149c-0.77298,7.14277 -3.64475,13.95076 -2.15371,21.161c0.21733,0.97823 0.43466,1.95646 0.65201,2.93469l-0.01373,3.29517c0,0 -0.045,4.74979 -9.09151,4.66408z" fill="#39940f"/><path d="M294.29184,221.4594c-8.96197,0.58688 -10.19678,-4.1273 -10.19678,-4.1273l-0.65687,-2.53878c-0.43558,-2.45385 -0.62195,-4.92062 -0.59864,-7.38193c0.87706,-4.39884 1.53241,-9.22529 3.55835,-13.54195c2.18991,-4.66601 5.1725,-8.10021 5.57596,-12.97208c0.4676,-5.6465 -2.32046,-10.90353 -3.00095,-16.52313c-0.79478,-6.56349 0.05131,-13.62812 2.1947,-20.09545c1.21742,-3.67338 3.81792,-7.11916 5.23456,-10.7705c0,0 1.81829,-4.64074 10.68031,-3.62518c8.86201,1.01555 7.04372,5.65629 7.04372,5.65629c-3.78092,9.56856 -8.32376,18.33325 -7.09938,28.3324c0.72962,5.95873 3.59095,11.51899 3.02539,17.53549c-0.5176,5.50633 -3.61798,9.68824 -6.11648,14.91839c-1.59283,3.3343 -2.35858,8.39471 -3.03007,11.73011c-0.01883,1.9885 0.17949,3.98094 0.54474,5.96284l0.56861,2.1397c0,0 1.23482,4.71417 -7.72714,5.30105z" fill="#28670a"/><path d="M330.92658,220.84777c-8.38277,-1.84359 -4.9812,-6.22184 -4.9812,-6.22184l0.62173,0.10332c0.01247,-0.92105 0.02494,-1.8421 0.03742,-2.76315c-1.63524,-8.87373 -6.3635,-17.63784 -6.73316,-26.57617c-0.2506,-6.05966 0.57876,-10.06652 -0.43525,-15.85232c-1.16965,-6.67383 -4.17711,-13.27866 -4.93558,-19.99624c-0.51651,-4.5747 0.62521,-9.1154 -0.4493,-13.67838c0,0 -1.07742,-4.72373 7.90481,-5.22783c8.98224,-0.5041 10.05967,4.21964 10.05967,4.21964c1.06609,4.79874 0.0095,9.53272 0.55513,14.33238c0.74185,6.52572 3.72148,12.94615 4.8493,19.43156c1.19752,6.88621 0.25501,9.15243 0.52813,16.49158c0.33157,8.90981 5.15812,17.69443 6.7313,26.55377c-0.00648,1.07885 -0.01295,2.15771 -0.01943,3.23658l-1.94922,3.41247c0,0 -3.40157,4.37823 -11.78434,2.53464z" fill="#448f21"/><path d="M282.16915,226.72586c-9.04652,-0.08571 -9.00152,-4.83549 -9.00152,-4.83549l0.00316,-0.33333c0.12624,-13.32555 0.43814,-26.55186 2.96988,-39.82045c1.04557,-5.4797 4.08955,-10.86141 4.56025,-16.37341c0.88883,-10.40857 0.95998,-20.75573 2.85795,-31.14169c0,0 0.86383,-4.72253 9.86912,-4.20714c9.00529,0.51539 8.14145,5.23791 8.14145,5.23791c-1.88145,10.27532 -1.86203,20.51359 -2.80816,30.80741c-0.52241,5.68393 -3.57337,11.2262 -4.64334,16.87421c-2.44912,12.92804 -2.73113,25.81193 -2.85412,38.79457l-0.00316,0.33333c0,0 -0.045,4.74979 -9.09151,4.66408z" fill="#275313"/><path d="M324.64994,216.04449l0.0487,-3.29483c0.23583,-0.97394 0.47166,-1.94787 0.7075,-2.92181c1.62738,-7.18071 -1.1149,-14.04187 -1.75241,-21.198c-0.32981,-3.70215 0.95385,-7.23088 2.00864,-10.86538c1.56152,-5.38049 3.26492,-10.77983 6.21496,-15.98816c1.40558,-2.48158 4.29622,-6.05985 3.02384,-8.83556c-1.29408,-2.82306 -5.05935,-5.25834 -6.16009,-8.10268c-0.60325,-1.55881 -0.13129,-3.17339 -0.19693,-4.76007c0,0 0.045,-4.74979 9.09151,-4.66408c9.04652,0.08571 9.00152,4.83549 9.00152,4.83549c-0.54361,5.2503 6.70129,9.65598 6.195,15.27461c-0.47486,5.2697 -4.70962,9.6055 -6.67425,14.70368c-1.80666,4.68822 -3.77403,10.62315 -4.41439,15.60587c-1.08263,8.42411 3.47623,16.7398 1.62031,25.27821c-0.20423,0.79975 -0.40848,1.5995 -0.61271,2.39925l-0.00816,2.70489c0,0 -0.045,4.74979 -9.09151,4.66408c-9.04652,-0.08571 -9.00152,-4.83549 -9.00152,-4.83549z" fill="#39940f"/><path d="M347.58264,217.59006l0.60904,-2.12856c0.40273,-1.97461 0.63877,-3.96295 0.65761,-5.95145c-0.60819,-3.34752 -1.27792,-8.42154 -2.80729,-11.78541c-2.39895,-5.27656 -5.41955,-9.51646 -5.83274,-15.03161c-0.45146,-6.02614 2.51469,-11.53119 3.35707,-17.47502c1.4136,-9.97416 -2.96238,-18.82335 -6.56132,-28.46182c0,0 -1.73005,-4.67436 7.14962,-5.52183c8.87966,-0.84747 10.60971,3.82688 10.60971,3.82688c1.34721,3.67753 3.88195,7.17195 5.02956,10.86773c2.02048,6.50679 2.73257,13.58617 1.81357,20.13343c-0.78684,5.6057 -3.67401,10.80896 -3.31346,16.4633c0.31109,4.87865 3.22807,8.36873 5.32919,13.0754c1.94379,4.35426 2.50758,9.19226 3.30115,13.60694c-0.02332,2.46131 -0.25639,4.9241 -0.73839,7.36925l-0.70486,2.52588c0,0 -1.32392,4.68993 -10.27315,3.93336c-8.94923,-0.75657 -7.62532,-5.4465 -7.62532,-5.4465z" fill="#28670a"/><path d="M306.85718,218.9735l-1.88421,-3.44879c0.01396,-1.07878 0.02794,-2.15758 0.04189,-3.23636c1.74073,-8.82794 6.73287,-17.51954 7.23318,-26.42147c0.41212,-7.33267 -0.48729,-9.61634 0.84048,-16.47862c1.25048,-6.46287 4.35122,-12.8257 5.21659,-19.33619c0.63647,-4.78848 -0.33024,-9.54162 0.82658,-14.3193c0,0 1.16673,-4.70248 10.1378,-4.02829c8.97107,0.67418 7.80435,5.37665 7.80435,5.37665c-1.16076,4.54181 -0.10528,9.10332 -0.70837,13.66741c-0.8856,6.70202 -4.01766,13.24868 -5.31355,19.89914c-1.12344,5.76555 -0.37014,9.78741 -0.73551,15.84122c-0.53895,8.92972 -5.43239,17.60268 -7.23547,26.44383c-0.00499,0.92112 -0.00997,1.84224 -0.01494,2.76336l0.62358,-0.09153c0,0 3.318,4.44189 -5.09819,6.12635c-8.41619,1.68446 -11.73421,-2.75745 -11.73421,-2.75745z" fill="#448f21"/><path d="M358.22717,223.69625l0.00316,-0.33332c0.123,-12.98263 0.08513,-25.86956 -2.11861,-38.84168c-0.96277,-5.66728 -3.90817,-11.26636 -4.3228,-16.95916c-0.75093,-10.30988 -0.53753,-20.54597 -2.22398,-30.85508c0,0 -0.77422,-4.73804 8.23922,-5.08271c9.01344,-0.34468 9.78765,4.39337 9.78765,4.39337c1.70085,10.42006 1.57596,20.76671 2.26742,31.19025c0.36617,5.51993 3.30766,10.95835 4.24921,16.45687c2.2799,13.31417 2.34115,26.54402 2.2149,39.86956l-0.00316,0.33332c0,0 -0.045,4.74979 -9.09151,4.66408c-9.04652,-0.08571 -9.00152,-4.83549 -9.00152,-4.83549z" fill="#275313"/></g></g><g stroke="#000000" stroke-width="3.5"><path d="M375.70254,174.27671l2.26236,6.89074l-7.67202,-2.21667z" fill="#000000" stroke-linecap="round"/><path d="M348.0414,119.95821c-1.23544,-0.8967 -2.00465,-2.34547 -1.95017,-3.99867c0.06146,-1.86451 1.15518,-3.51986 2.7346,-4.44149c1.37033,-2.22565 7.41696,-0.38232 9.21384,0.36372c6.56301,2.72484 12.79902,10.88843 15.28363,17.30129c7.79245,20.11264 -7.90658,42.55334 -4.0899,62.9662c2.13163,11.40063 10.65474,20.79164 13.12425,32.18797c0.80703,3.7243 0.81374,10.93577 -5.35133,11.08664c-1.76692,0.04325 -3.30901,-1.25128 -4.51864,-2.42741c-0.95331,-0.92691 -0.43464,-5.22164 -0.45991,-5.97754c-0.11854,-3.54354 -2.40184,-7.28809 -3.82131,-10.36567c-3.16573,-6.86368 -8.66706,-15.03196 -9.4476,-22.80131c-2.02366,-20.14325 7.80578,-40.00411 4.84381,-60.05191c-0.55879,-3.78208 -6.59505,-10.45989 -9.25352,-12.163c-1.0199,-0.65337 -2.10087,-0.66655 -3.19008,-0.72557c-0.4809,0.00965 -0.94448,-0.04341 -1.38282,-0.15148c-0.40339,-0.08189 -0.80484,-0.2101 -1.20164,-0.41972c-0.20014,-0.10573 -0.3763,-0.23461 -0.53323,-0.38204z" fill="#9efd71" stroke-linecap="butt"/><path d="M373.5467,107.96609c0.52242,-2.38203 2.72992,-4.23304 5.31304,-4.29626c1.5107,-0.03698 2.85236,0.54482 3.77924,1.5064c0.15965,0.16564 0.30701,0.34255 0.4408,0.52951c2.06684,1.74299 4.45239,3.24227 6.66709,4.81313c0.04006,0.02842 0.05519,0.08195 0.09465,0.1111c19.35289,14.30256 15.48495,43.80144 13.68651,65.08591c-0.15129,1.7905 -0.52871,3.57175 -0.66526,5.36254c-0.17968,2.35628 -0.24445,4.71546 -0.23295,7.06758c0.01258,2.57526 3.69325,6.47134 2.45641,9.09408c-2.09856,4.4501 -4.15932,5.28602 -8.65518,3.51088c-4.28086,-1.69026 -4.15706,-17.74663 -4.07958,-19.66846c0.07237,-1.79535 0.6665,-4.17052 0.73828,-5.61439c0.54703,-11.00244 2.27264,-26.83537 0.23697,-38.90955c-0.96522,-5.72504 -3.05511,-11.78399 -7.50119,-15.66589c-3.33061,-2.90795 -12.8914,-6.45893 -12.41649,-12.29723c0.01804,-0.22166 0.06531,-0.43087 0.13767,-0.62937z" fill="#9efd71" stroke-linecap="butt"/><path d="M355.54764,114.39233c0.09247,-2.80566 2.52235,-5.13774 5.42728,-5.20883c0.45534,-0.01115 0.89532,0.03393 1.31322,0.12867c1.1228,-0.32045 2.87183,1.78563 3.54756,2.50897c3.17684,3.40066 5.68868,6.66232 8.22725,10.55065c12.72041,19.48394 2.99329,41.78961 2.92041,63.39824c-0.01174,3.47984 0.49737,7.56865 1.7458,10.79654c0.37357,0.96592 2.08416,2.858 2.06333,3.48967c-0.05625,1.70655 -0.26835,3.73607 -1.55753,4.97336c-8.12203,7.79507 -11.45656,-7.90748 -12.08179,-11.64863c-0.20076,-1.20136 -0.41673,-2.50764 -0.51077,-3.72931c-1.38115,-17.9427 6.41947,-35.49522 2.16792,-53.45012c-1.43976,-6.0803 -5.68738,-11.45767 -9.74742,-15.97407c-0.80852,-0.89941 -4.73895,-4.34015 -3.51528,-5.83512z" fill="#67dc31" stroke-linecap="butt"/><path d="M401.37272,164.25812c0.73004,0.862 1.14928,1.98321 1.10855,3.21858c-0.06146,1.86451 -1.15518,3.51987 -2.73461,4.4415c-0.53005,0.86089 -1.87712,0.90465 -3.04833,0.7646c-0.53191,-0.06362 -1.02754,-0.16515 -1.39388,-0.24527c-4.09268,-0.89517 -4.84083,-6.11616 -5.32644,-9.74866c-0.68282,-5.1077 -1.38571,-12.00324 -2.64039,-16.97928c-1.55112,-6.15174 -4.55438,-11.75404 -6.26496,-17.85698c-3.0492,-10.87886 -2.09763,-14.15096 -9.75515,-23.62417c-2.06128,-2.55005 -4.63828,-6.06626 -0.30409,-9.23622c4.88477,-3.57261 7.5398,1.18595 9.77743,3.87167c6.64472,7.97537 8.31731,15.99776 10.50391,25.98689c0.82142,3.75252 2.4032,6.49456 3.65371,10.11278c1.92084,5.55765 3.30214,11.32353 4.33558,17.14131c0.82489,4.64365 0.98749,8.23866 2.08865,12.15326z" fill="#67dc31" stroke-linecap="butt"/><path d="M377.69289,93.52774c1.21966,0.89814 1.9773,2.33779 1.92321,3.97895c-0.00148,0.04473 -0.00355,0.08934 -0.00621,0.13382c0.12054,0.60808 -0.04756,1.17238 -0.40115,1.69406c-0.82047,1.92552 -2.77882,3.32608 -5.01993,3.38093c-1.97417,0.98586 -4.65014,-2.50154 -5.95569,-3.15557c-4.60953,-2.30917 -10.13543,-4.99272 -15.65521,-4.8646c-6.23968,0.14483 -13.56798,1.4673 -19.34542,4.44098c-1.34996,0.69484 -3.39875,2.82835 -5.21995,3.11298c-2.80419,0.43828 -5.32337,0.83766 -6.54733,-3.0501c-2.03283,-6.457 9.85411,-10.19859 14.21675,-11.57745c12.25701,-3.874 25.17385,-4.21743 36.10446,1.97884c2.45884,1.39384 4.48326,2.34281 5.90645,3.92716z" fill="#67dc31" stroke-linecap="butt"/><path d="M374.79862,101.4208c0.82149,0.88178 1.30092,2.06914 1.25751,3.38627c-0.00148,0.04473 -0.00355,0.08934 -0.00621,0.13382c0.07556,0.38114 0.03771,0.74508 -0.08813,1.09211c5.98916,7.26895 14.49137,18.27244 13.53636,26.68904c-0.7053,6.21584 -0.78607,12.53284 -2.4543,18.6274c-1.70959,6.24564 -4.89124,12.64643 -4.57965,19.19514c0.41406,8.70208 4.9806,17.47433 7.47873,25.60734c2.59195,8.43849 4.75462,17.14679 7.71988,25.40632c0.97434,2.71398 0.5719,5.97953 -3.28803,7.30262c-7.32363,2.51037 -9.65437,-12.86933 -10.82873,-16.94906c-0.48023,-1.66834 -0.98109,-3.33007 -1.47963,-4.99249c-0.72887,-2.43046 -1.40995,-4.87748 -2.20259,-7.2861c-2.94313,-8.94327 -8.00096,-18.781 -7.93121,-28.47016c0.09418,-13.08394 6.83429,-24.78054 6.99185,-38.09877c0.11671,-9.86579 -10.26796,-17.4414 -15.14143,-24.58497c-0.44996,-0.65955 -0.69822,-1.46394 -0.74613,-2.30646c-0.01197,-0.16835 -0.01531,-0.33937 -0.00958,-0.51262c0.01148,-0.348 0.0589,-0.68871 0.13873,-1.01872c0.00552,-0.02447 0.01121,-0.04894 0.01705,-0.07337c-3.37746,-1.74607 -8.51411,-2.65794 -11.80908,-2.63008c-4.80132,0.0406 -9.553,-0.38568 -14.23262,0.87741c-2.86389,0.773 -6.90566,5.38252 -9.95435,3.45316c-1.43896,-0.91064 -2.72808,-2.48891 -2.79993,-4.18784c-0.27515,-6.50738 10.4788,-9.51015 15.52826,-9.9365c10.33939,-0.87301 29.2482,-1.11035 34.88324,9.2765z" fill="#4cc513" stroke-linecap="butt"/><path d="M390.84835,130.00471c1.3736,0.2332 1.85115,3.64295 2.08348,4.86553c1.21765,6.40759 1.16039,12.97309 1.12528,19.56818c-0.03874,7.27506 -1.24749,14.5196 -1.2672,21.73396c-0.02365,8.65592 4.93628,16.75569 4.69643,25.3556c-0.19136,6.86165 -0.25748,13.72298 -0.67861,20.58774c-0.16423,2.67706 -2.01524,5.12532 -5.42729,5.20883c-3.4148,0.08357 -5.10312,-2.27807 -5.09238,-4.95137c0.02693,-6.71505 0.5078,-13.44673 0.66475,-20.16728c0.18316,-7.84159 -3.65994,-16.08528 -4.58676,-23.9224c-0.81249,-6.87028 0.95291,-16.94748 1.16628,-23.40863c0.16533,-5.00673 0.15305,-10.76463 -0.58565,-15.75017c-0.2779,-1.87559 -1.27977,-4.1819 -0.84404,-6.08147c0.05027,-0.21915 0.12787,-0.42294 0.22862,-0.6137c0.87708,-1.66114 3.50699,-2.3356 5.10359,-3.58956z" fill="#7ade4c" stroke-linecap="butt"/><path d="M350.4382,120.91735c-1.24757,0.81651 -5.81248,-1.71377 -7.52097,-1.67425c-1.65284,0.03823 -3.30566,0.07508 -4.95875,0.12136c-2.45807,0.06882 -3.43613,2.73291 -6.46595,2.59429c-3.50282,-0.16024 -5.33949,-4.80469 -3.85437,-7.85085c1.28212,-2.62977 4.31273,-2.95002 6.61894,-3.97733c4.49636,-2.0029 12.19142,-1.99415 17.05471,0.69976c2.05334,1.1374 3.60187,2.75346 4.19174,4.89887z" fill="#9efd71" stroke-linecap="butt"/><path d="M363.79721,109.29133c1.27603,0.89232 2.07522,2.36418 2.01971,4.04819c-0.00148,0.04473 -0.00355,0.08934 -0.00621,0.13382c0.12054,0.60808 -0.04756,1.17238 -0.40115,1.69407c-0.82047,1.92552 -2.77883,3.32608 -5.01995,3.38092c-1.25918,0.62881 -2.23313,-0.00827 -3.05083,-0.88796c-0.7153,-0.49439 -1.28267,-1.17003 -1.63646,-1.96299c-0.15947,-0.16174 -0.31544,-0.29222 -0.46978,-0.37672c-2.5015,-1.36968 -5.88816,-3.41305 -8.94104,-3.73797c-3.32925,-0.35435 -7.41225,-0.30265 -10.60931,-0.17726c-2.09664,0.08223 -3.01701,3.79528 -6.14876,2.85368c-1.65846,-0.49864 -3.57702,-1.2249 -4.31688,-2.73193c-2.66669,-5.43169 5.30137,-9.26087 9.46435,-10.24925c8.19125,-1.94478 23.4167,0.95043 29.1163,8.01338z" fill="#67dc31" stroke-linecap="butt"/></g><g stroke="#000000" stroke-width="3.5"><path d="M287.12521,168.16537l-7.72218,2.35578l2.40316,-6.53345z" fill="#000000" stroke-linecap="round"/><path d="M310.04286,112.50315c-0.40131,0.21074 -0.80562,0.34546 -1.21094,0.43687c-0.44083,0.11719 -0.9058,0.18383 -1.38684,0.19239c-1.09116,0.09511 -2.17318,0.14699 -3.20698,0.79596c-2.69475,1.6916 -8.87015,8.1638 -9.50574,11.7248c-3.36913,18.87592 6.06594,37.1089 3.63387,56.03986c-0.93806,7.30176 -6.60826,15.14967 -9.9149,21.69086c-1.48265,2.93298 -3.8432,6.52194 -4.03341,9.84353c-0.04058,0.70856 0.3917,4.71005 -0.58101,5.61265c-1.23425,1.14528 -2.80356,2.41355 -4.57084,2.43771c-6.16635,0.0843 -6.01393,-6.66691 -5.13107,-10.18289c2.70151,-10.75892 11.42033,-19.86201 13.7838,-30.6126c4.2318,-19.24894 -11.02482,-39.68228 -2.82055,-58.79561c2.6159,-6.09424 9.02123,-13.96463 15.64389,-16.75557c1.81321,-0.76414 7.90133,-2.71096 9.22764,-0.67757c1.56191,0.80499 2.62294,2.31462 2.64677,4.05783c0.02113,1.54563 -0.77791,2.93003 -2.03232,3.81465c-0.16003,0.14377 -0.33891,0.27086 -0.54133,0.37716z" fill="#9efd71" stroke-linecap="butt"/><path d="M285.42837,102.41688c0.35728,5.44809 -9.28196,9.12205 -12.67366,11.96616c-4.52762,3.79664 -6.74138,9.54512 -7.82295,14.93988c-2.28104,11.3776 -0.87412,26.13635 -0.549,36.41617c0.04267,1.34902 0.58921,3.5508 0.62536,5.22885c0.0387,1.79627 -0.16181,16.82277 -4.47984,18.56169c-4.53489,1.82627 -6.58019,1.11911 -8.59032,-2.97005c-1.18471,-2.41001 2.57725,-6.19192 2.64188,-8.6032c0.05901,-2.20232 0.04188,-4.40848 -0.09032,-6.60772c-0.10048,-1.67143 -0.44214,-3.32514 -0.55738,-4.99577c-1.36966,-19.85947 -4.64429,-47.33307 15.01112,-61.43027c0.04007,-0.02873 0.0563,-0.07941 0.09696,-0.10747c2.24799,-1.55157 4.66552,-3.04237 6.76901,-4.74967c0.13766,-0.17992 0.28869,-0.35091 0.45181,-0.51181c0.94695,-0.93408 2.30132,-1.52781 3.81233,-1.54846c2.58364,-0.03532 4.75531,1.61672 5.22995,3.82754c0.0684,0.18318 0.11148,0.37729 0.12504,0.58415z" fill="#9efd71" stroke-linecap="butt"/><path d="M299.54951,112.78125c-4.15412,4.37652 -8.51337,9.56588 -10.07698,15.31057c-4.6173,16.96385 2.83414,33.11011 1.0895,49.95754c-0.1188,1.14711 -0.36129,2.37787 -0.58647,3.50986c-0.70124,3.52511 -4.35537,18.3469 -12.3256,11.34674c-1.26509,-1.11111 -1.43633,-3.00329 -1.45815,-4.59879c-0.00807,-0.59056 1.74192,-2.42439 2.13528,-3.3423c1.31453,-3.06742 1.9066,-6.91377 1.96516,-10.17095c0.36365,-20.22605 -8.91958,-40.75145 4.20339,-59.45652c2.61889,-3.73289 5.19841,-6.87814 8.44618,-10.17788c0.69081,-0.70187 2.48362,-2.73744 3.60074,-2.47852c0.42012,-0.10397 0.8613,-0.16226 1.31674,-0.1685c2.90553,-0.03972 5.28998,2.05453 5.32584,4.67764c1.19433,1.35472 -2.80838,4.71955 -3.63564,5.5911z" fill="#67dc31" stroke-linecap="butt"/><path d="M258.65612,144.09441c1.15171,-5.48407 2.65049,-10.93228 4.68495,-16.2053c1.3245,-3.43291 2.96279,-6.05771 3.86061,-9.60065c2.38996,-9.43122 4.2258,-17.00249 11.03633,-24.71165c2.29346,-2.59607 5.04651,-7.14788 9.8625,-3.98211c4.27318,2.80896 1.62333,6.19491 -0.49093,8.65752c-7.85427,9.1484 -6.96816,12.17674 -10.23929,22.47242c-1.83508,5.77579 -4.95364,11.13021 -6.63014,16.94584c-1.3561,4.70416 -2.19879,11.18509 -2.98529,15.99159c-0.55935,3.41831 -1.41351,8.33324 -5.52715,9.32098c-0.36823,0.08841 -0.86624,0.2016 -1.39981,0.28061c-1.17486,0.17397 -2.522,0.18227 -3.03502,-0.60425c-1.56192,-0.80499 -2.62295,-2.31462 -2.64678,-4.05782c-0.01579,-1.155 0.42641,-2.21995 1.17436,-3.05362c1.18102,-3.70489 1.41638,-7.07628 2.33567,-11.45357z" fill="#67dc31" stroke-linecap="butt"/><path d="M287.43589,84.57565c11.06345,-6.20044 23.9824,-6.35149 36.16972,-3.17328c4.33783,1.13121 16.15749,4.19899 13.99278,10.31803c-1.30337,3.68428 -3.81624,3.40256 -6.61355,3.09486c-1.81673,-0.19984 -3.82383,-2.12216 -5.16071,-2.72323c-5.72141,-2.57242 -13.02812,-3.54235 -19.26924,-3.44966c-5.52105,0.08198 -11.10504,2.79632 -15.76447,5.12667c-1.31968,0.66002 -4.06796,4.02262 -6.0236,3.17193c-2.24157,0.03064 -4.173,-1.20883 -4.95515,-2.98137c-0.3433,-0.47544 -0.50011,-0.99755 -0.3672,-1.57121c-0.00176,-0.04155 -0.00294,-0.08322 -0.0035,-0.12505c-0.02097,-1.53437 0.7663,-2.90981 2.00495,-3.79521c1.45621,-1.53524 3.50123,-2.49767 5.98993,-3.89243z" fill="#67dc31" stroke-linecap="butt"/><path d="M319.27786,85.79098c5.04439,0.2144 15.7452,2.632 15.33839,8.73389c-0.10621,1.59306 -1.42814,3.1177 -2.88651,4.02283c-3.08981,1.91766 -7.04128,-2.24962 -9.89157,-2.86849c-4.65738,-1.01123 -9.421,-0.43835 -14.22486,-0.30069c-3.29672,0.09445 -8.45539,1.13602 -11.8705,2.89414c0.00536,0.02265 0.01055,0.04535 0.01557,0.06807c0.07322,0.30603 0.1138,0.62324 0.11825,0.94859c0.00222,0.16198 -0.00458,0.32219 -0.01995,0.48023c-0.06497,0.79046 -0.32964,1.55256 -0.79325,2.18646c-5.02121,6.86568 -15.56622,14.33742 -15.64877,23.56893c-0.11142,12.462 6.3971,23.16507 6.22697,35.41004c-0.12597,9.06786 -5.38611,18.46242 -8.51198,26.94222c-0.84187,2.28381 -1.57286,4.59948 -2.35136,6.9014c-0.53248,1.57449 -1.06728,3.14843 -1.58155,4.72779c-1.2576,3.86217 -3.90072,18.345 -11.17875,16.26286c-3.8359,-1.09739 -4.17264,-4.1397 -3.14279,-6.716c3.13423,-7.84058 5.47434,-16.07188 8.23862,-24.06632c2.6642,-7.70503 7.41118,-16.08416 8.00136,-24.24566c0.44413,-6.14191 -2.61043,-12.01756 -4.19502,-17.80182c-1.54626,-5.64433 -1.49945,-11.55497 -2.07966,-17.34808c-0.78563,-7.84419 7.94484,-18.45603 14.08506,-25.4799c-0.11892,-0.32026 -0.14943,-0.65958 -0.06612,-1.01914c-0.00176,-0.04155 -0.00294,-0.08322 -0.0035,-0.12505c-0.01683,-1.23142 0.48693,-2.36049 1.32681,-3.21602c5.84884,-9.92972 24.7661,-10.39926 35.09509,-9.96025z" fill="#4cc513" stroke-linecap="butt"/><path d="M270.98372,121.88168c1.57238,1.11548 4.19051,1.65065 5.03464,3.17363c0.09693,0.17489 0.1705,0.36282 0.21637,0.56614c0.39764,1.76233 -0.65151,3.95799 -0.9675,5.72398c-0.83993,4.6942 -0.96858,10.08486 -0.90429,14.76582c0.08297,6.04073 1.646,15.40983 0.69414,21.8711c-1.08582,7.37056 -5.09815,15.2284 -5.07331,22.56253c0.0213,6.28565 0.36647,12.56987 0.25775,18.85511c-0.04328,2.50218 -1.7805,4.77478 -5.196,4.82148c-3.41273,0.04666 -5.2156,-2.17755 -5.32585,-4.67764c-0.28274,-6.41098 -0.21026,-12.83173 -0.26312,-19.2482c-0.06624,-8.04195 5.0608,-15.80593 5.21202,-23.90822c0.12604,-6.75294 -0.93719,-13.49062 -0.82897,-20.29968c0.09811,-6.17265 0.17346,-12.31678 1.52142,-18.35973c0.25721,-1.153 0.80396,-4.36247 2.18325,-4.63103z" fill="#7ade4c" stroke-linecap="butt"/><path d="M303.20223,108.44003c0.63362,-2.03 2.21591,-3.5995 4.29366,-4.73939c4.92113,-2.6998 12.62177,-2.9895 17.0808,-1.27899c2.28706,0.87733 5.31334,1.06627 6.54322,3.4812c1.42461,2.7973 -0.5072,7.21235 -4.0157,7.49052c-3.03473,0.2406 -3.95967,-2.21758 -6.41807,-2.19208c-1.65331,0.01715 -3.30654,0.04312 -4.95977,0.0678c-1.70887,0.0255 -6.3281,2.56119 -7.56006,1.84247z" fill="#9efd71" stroke-linecap="butt"/><path d="M324.33145,94.14988c4.14592,0.77298 12.0422,4.06613 9.2639,9.24851c-0.77085,1.43786 -2.70541,2.18793 -4.37512,2.71539c-3.15296,0.99603 -3.99896,-2.44624 -6.09542,-2.44651c-3.19677,-0.00042 -7.28157,0.10057 -10.62032,0.55406c-3.06157,0.41585 -6.49191,2.45263 -9.02283,3.82636c-0.15615,0.08476 -0.31486,0.21261 -0.47771,0.36985c-0.37004,0.75526 -0.95148,1.4085 -1.67726,1.8975c-0.83604,0.85343 -1.82356,1.48547 -3.07092,0.94288c-2.24157,0.03064 -4.173,-1.20883 -4.95515,-2.98137c-0.3433,-0.47544 -0.50011,-0.99755 -0.3672,-1.57121c-0.00176,-0.04155 -0.00294,-0.08322 -0.0035,-0.12505c-0.02152,-1.57444 0.80796,-2.98155 2.10292,-3.86357c5.84632,-6.82043 21.14091,-10.08773 29.29859,-8.56681z" fill="#67dc31" stroke-linecap="butt"/></g><path d="M214.78369,306.61252v-267.72501c0,0 153.66918,0 187.45214,0c12.51617,0 25.72989,0 25.72989,0v267.72501z" fill="none" stroke="none" stroke-width="0" stroke-linecap="butt"/><path d="M286.35186,319.07226l15.14285,-131.8421l37.78325,-0.15789l13.57389,132z" fill="#4cc114" stroke="#000000" stroke-width="0" stroke-linecap="butt"/><path d="M295.01902,243.61117l6.47569,-56.38101l37.78325,-0.15789l5.87786,57.15951z" fill="url(#color-1)" stroke="#000000" stroke-width="0" stroke-linecap="butt"/><path d="M286.35186,319.07226l15.14285,-131.8421l37.78325,-0.15789l13.57389,132z" fill="none" stroke="#000000" stroke-width="2" stroke-linecap="butt"/><path d="M260.22953,148.25341c0.31548,-33.30036 29.32984,-60.02317 64.80537,-59.68708c35.47554,0.3361 63.97838,27.60382 63.6629,60.90417c-0.31548,33.30036 -29.32983,60.02318 -64.80537,59.68709c-35.47553,-0.3361 -63.97839,-27.60383 -63.6629,-60.90418z" fill="#4cc114" stroke="#000000" stroke-width="2" stroke-linecap="butt"/><path d="M273.85342,148.65811c0.12285,-12.96743 10.73462,-23.38 23.70205,-23.25716c12.96743,0.12285 23.38,10.73461 23.25716,23.70204c-0.12285,12.96743 -10.73461,23.38001 -23.70204,23.25717c-12.96743,-0.12285 -23.38001,-10.73462 -23.25717,-23.70205z" fill="#ffffff" stroke="#000000" stroke-width="2" stroke-linecap="butt"/><path d="M287.75476,149.58029c0.07863,-8.29927 6.87025,-14.96343 15.16952,-14.8848c8.29927,0.07863 14.96343,6.87026 14.8848,15.16954c-0.07863,8.29927 -6.87026,14.96344 -15.16954,14.88481c-8.29927,-0.07863 -14.96342,-6.87026 -14.88479,-15.16954z" fill="#000000" stroke="#000000" stroke-width="5" stroke-linecap="butt"/><path d="" fill="none" stroke="#000000" stroke-width="2" stroke-linecap="round"/><path d="M351.36661,172.8742c-12.96743,-0.12285 -23.38,-10.73462 -23.25716,-23.70205c0.12285,-12.96743 10.73461,-23.38 23.70204,-23.25716c12.96743,0.12285 23.38001,10.73461 23.25717,23.70204c-0.12285,12.96743 -10.73462,23.38001 -23.70205,23.25717z" fill="#ffffff" stroke="#000000" stroke-width="2" stroke-linecap="butt"/><path d="M371.91117,149.83101c-0.07863,8.29929 -6.87025,14.96344 -15.16953,14.88481c-8.29927,-0.07863 -14.96343,-6.87028 -14.8848,-15.16954c0.07863,-8.29929 6.87027,-14.96344 15.16954,-14.88481c8.29927,0.07863 14.96342,6.87027 14.88479,15.16953z" fill="#000000" stroke="#000000" stroke-width="5" stroke-linecap="butt"/><path d="M283.82438,121.85282c0,0 7.60039,-3.73696 12.82443,-3.89912c5.22404,-0.16215 11.95084,3.1301 11.95084,3.1301c0,0 -7.86671,-1.65223 -11.90107,-1.52699c-4.21606,0.13088 -12.87419,2.29602 -12.87419,2.29602z" fill="#000000" stroke="none" stroke-width="0" stroke-linecap="butt"/><path d="M349.92929,120.31148c-4.03146,-0.19769 -11.92658,1.31293 -11.92658,1.31293c0,0 6.78485,-3.17087 12.00514,-2.91488c5.22028,0.25599 12.7523,4.12889 12.7523,4.12889c0,0 -8.61783,-2.32034 -12.83085,-2.52694z" fill="#000000" stroke="none" stroke-width="0" stroke-linecap="butt"/><path d="M273.85342,148.65811c0.12285,-12.96743 10.73462,-23.38 23.70205,-23.25716c12.96743,0.12285 23.38,10.73461 23.25716,23.70204c-0.00054,0.05695 -46.95962,-0.40111 -46.9592,-0.44488z" fill="#4cc114" stroke="#000000" stroke-width="2" stroke-linecap="butt"/><path d="M328.10945,149.17216c0.12285,-12.96743 10.73461,-23.38 23.70204,-23.25716c12.96743,0.12285 23.38001,10.73461 23.25717,23.70204c-0.00084,0.08883 -46.96029,-0.33013 -46.9592,-0.44488z" fill="#4cc114" stroke="#000000" stroke-width="2" stroke-linecap="butt"/><path d="M370.20605,164.02065l2.18832,6.52102l-6.97837,-2.31621z" fill="#000000" stroke="#000000" stroke-width="0.5" stroke-linecap="round"/><path d="M339.68505,192.48278c0,0 -10.51446,1.56714 -15.51366,1.47811c-4.99955,-0.08904 -14.48262,-2.0123 -14.48262,-2.0123" fill="none" stroke="#000000" stroke-width="2" stroke-linecap="round"/><g stroke-width="0.5"><path d="M287.12521,168.16537l-7.72218,2.35578l2.40316,-6.53345z" fill="#000000" stroke="#000000" stroke-linecap="round"/><path d="M310.04286,112.50315c-0.40131,0.21074 -0.80562,0.34546 -1.21094,0.43687c-0.44083,0.11719 -0.9058,0.18383 -1.38684,0.19239c-1.09116,0.09511 -2.17318,0.14699 -3.20698,0.79596c-2.69475,1.6916 -8.87015,8.1638 -9.50574,11.7248c-3.36913,18.87592 6.06594,37.1089 3.63387,56.03986c-0.93806,7.30176 -6.60826,15.14967 -9.9149,21.69086c-1.48265,2.93298 -3.8432,6.52194 -4.03341,9.84353c-0.04058,0.70856 0.3917,4.71005 -0.58101,5.61265c-1.23425,1.14528 -2.80356,2.41355 -4.57084,2.43771c-6.16635,0.0843 -6.01393,-6.66691 -5.13107,-10.18289c2.70151,-10.75892 11.42033,-19.86201 13.7838,-30.6126c4.2318,-19.24894 -11.02482,-39.68228 -2.82055,-58.79561c2.6159,-6.09424 9.02123,-13.96463 15.64389,-16.75557c1.81321,-0.76414 7.90133,-2.71096 9.22764,-0.67757c1.56191,0.80499 2.62294,2.31462 2.64677,4.05783c0.02113,1.54563 -0.77791,2.93003 -2.03232,3.81465c-0.16003,0.14377 -0.33891,0.27086 -0.54133,0.37716z" fill="#9efd71" stroke="none" stroke-linecap="butt"/><path d="M285.42837,102.41688c0.35728,5.44809 -9.28196,9.12205 -12.67366,11.96616c-4.52762,3.79664 -6.74138,9.54512 -7.82295,14.93988c-2.28104,11.3776 -0.87412,26.13635 -0.549,36.41617c0.04267,1.34902 0.58921,3.5508 0.62536,5.22885c0.0387,1.79627 -0.16181,16.82277 -4.47984,18.56169c-4.53489,1.82627 -6.58019,1.11911 -8.59032,-2.97005c-1.18471,-2.41001 2.57725,-6.19192 2.64188,-8.6032c0.05901,-2.20232 0.04188,-4.40848 -0.09032,-6.60772c-0.10048,-1.67143 -0.44214,-3.32514 -0.55738,-4.99577c-1.36966,-19.85947 -4.64429,-47.33307 15.01112,-61.43027c0.04007,-0.02873 0.0563,-0.07941 0.09696,-0.10747c2.24799,-1.55157 4.66552,-3.04237 6.76901,-4.74967c0.13766,-0.17992 0.28869,-0.35091 0.45181,-0.51181c0.94695,-0.93408 2.30132,-1.52781 3.81233,-1.54846c2.58364,-0.03532 4.75531,1.61672 5.22995,3.82754c0.0684,0.18318 0.11148,0.37729 0.12504,0.58415z" fill="#9efd71" stroke="none" stroke-linecap="butt"/><path d="M299.54951,112.78125c-4.15412,4.37652 -8.51337,9.56588 -10.07698,15.31057c-4.6173,16.96385 2.83414,33.11011 1.0895,49.95754c-0.1188,1.14711 -0.36129,2.37787 -0.58647,3.50986c-0.70124,3.52511 -4.35537,18.3469 -12.3256,11.34674c-1.26509,-1.11111 -1.43633,-3.00329 -1.45815,-4.59879c-0.00807,-0.59056 1.74192,-2.42439 2.13528,-3.3423c1.31453,-3.06742 1.9066,-6.91377 1.96516,-10.17095c0.36365,-20.22605 -8.91958,-40.75145 4.20339,-59.45652c2.61889,-3.73289 5.19841,-6.87814 8.44618,-10.17788c0.69081,-0.70187 2.48362,-2.73744 3.60074,-2.47852c0.42012,-0.10397 0.8613,-0.16226 1.31674,-0.1685c2.90553,-0.03972 5.28998,2.05453 5.32584,4.67764c1.19433,1.35472 -2.80838,4.71955 -3.63564,5.5911z" fill="#67dc31" stroke="none" stroke-linecap="butt"/><path d="M258.65612,144.09441c1.15171,-5.48407 2.65049,-10.93228 4.68495,-16.2053c1.3245,-3.43291 2.96279,-6.05771 3.86061,-9.60065c2.38996,-9.43122 4.2258,-17.00249 11.03633,-24.71165c2.29346,-2.59607 5.04651,-7.14788 9.8625,-3.98211c4.27318,2.80896 1.62333,6.19491 -0.49093,8.65752c-7.85427,9.1484 -6.96816,12.17674 -10.23929,22.47242c-1.83508,5.77579 -4.95364,11.13021 -6.63014,16.94584c-1.3561,4.70416 -2.19879,11.18509 -2.98529,15.99159c-0.55935,3.41831 -1.41351,8.33324 -5.52715,9.32098c-0.36823,0.08841 -0.86624,0.2016 -1.39981,0.28061c-1.17486,0.17397 -2.522,0.18227 -3.03502,-0.60425c-1.56192,-0.80499 -2.62295,-2.31462 -2.64678,-4.05782c-0.01579,-1.155 0.42641,-2.21995 1.17436,-3.05362c1.18102,-3.70489 1.41638,-7.07628 2.33567,-11.45357z" fill="#67dc31" stroke="none" stroke-linecap="butt"/><path d="M287.43589,84.57565c11.06345,-6.20044 23.9824,-6.35149 36.16972,-3.17328c4.33783,1.13121 16.15749,4.19899 13.99278,10.31803c-1.30337,3.68428 -3.81624,3.40256 -6.61355,3.09486c-1.81673,-0.19984 -3.82383,-2.12216 -5.16071,-2.72323c-5.72141,-2.57242 -13.02812,-3.54235 -19.26924,-3.44966c-5.52105,0.08198 -11.10504,2.79632 -15.76447,5.12667c-1.31968,0.66002 -4.06796,4.02262 -6.0236,3.17193c-2.24157,0.03064 -4.173,-1.20883 -4.95515,-2.98137c-0.3433,-0.47544 -0.50011,-0.99755 -0.3672,-1.57121c-0.00176,-0.04155 -0.00294,-0.08322 -0.0035,-0.12505c-0.02097,-1.53437 0.7663,-2.90981 2.00495,-3.79521c1.45621,-1.53524 3.50123,-2.49767 5.98993,-3.89243z" fill="#67dc31" stroke="none" stroke-linecap="butt"/><path d="M319.27786,85.79098c5.04439,0.2144 15.7452,2.632 15.33839,8.73389c-0.10621,1.59306 -1.42814,3.1177 -2.88651,4.02283c-3.08981,1.91766 -7.04128,-2.24962 -9.89157,-2.86849c-4.65738,-1.01123 -9.421,-0.43835 -14.22486,-0.30069c-3.29672,0.09445 -8.45539,1.13602 -11.8705,2.89414c0.00536,0.02265 0.01055,0.04535 0.01557,0.06807c0.07322,0.30603 0.1138,0.62324 0.11825,0.94859c0.00222,0.16198 -0.00458,0.32219 -0.01995,0.48023c-0.06497,0.79046 -0.32964,1.55256 -0.79325,2.18646c-5.02121,6.86568 -15.56622,14.33742 -15.64877,23.56893c-0.11142,12.462 6.3971,23.16507 6.22697,35.41004c-0.12597,9.06786 -5.38611,18.46242 -8.51198,26.94222c-0.84187,2.28381 -1.57286,4.59948 -2.35136,6.9014c-0.53248,1.57449 -1.06728,3.14843 -1.58155,4.72779c-1.2576,3.86217 -3.90072,18.345 -11.17875,16.26286c-3.8359,-1.09739 -4.17264,-4.1397 -3.14279,-6.716c3.13423,-7.84058 5.47434,-16.07188 8.23862,-24.06632c2.6642,-7.70503 7.41118,-16.08416 8.00136,-24.24566c0.44413,-6.14191 -2.61043,-12.01756 -4.19502,-17.80182c-1.54626,-5.64433 -1.49945,-11.55497 -2.07966,-17.34808c-0.78563,-7.84419 7.94484,-18.45603 14.08506,-25.4799c-0.11892,-0.32026 -0.14943,-0.65958 -0.06612,-1.01914c-0.00176,-0.04155 -0.00294,-0.08322 -0.0035,-0.12505c-0.01683,-1.23142 0.48693,-2.36049 1.32681,-3.21602c5.84884,-9.92972 24.7661,-10.39926 35.09509,-9.96025z" fill="#4cc513" stroke="none" stroke-linecap="butt"/><path d="M270.98372,121.88168c1.57238,1.11548 4.19051,1.65065 5.03464,3.17363c0.09693,0.17489 0.1705,0.36282 0.21637,0.56614c0.39764,1.76233 -0.65151,3.95799 -0.9675,5.72398c-0.83993,4.6942 -0.96858,10.08486 -0.90429,14.76582c0.08297,6.04073 1.646,15.40983 0.69414,21.8711c-1.08582,7.37056 -5.09815,15.2284 -5.07331,22.56253c0.0213,6.28565 0.36647,12.56987 0.25775,18.85511c-0.04328,2.50218 -1.7805,4.77478 -5.196,4.82148c-3.41273,0.04666 -5.2156,-2.17755 -5.32585,-4.67764c-0.28274,-6.41098 -0.21026,-12.83173 -0.26312,-19.2482c-0.06624,-8.04195 5.0608,-15.80593 5.21202,-23.90822c0.12604,-6.75294 -0.93719,-13.49062 -0.82897,-20.29968c0.09811,-6.17265 0.17346,-12.31678 1.52142,-18.35973c0.25721,-1.153 0.80396,-4.36247 2.18325,-4.63103z" fill="#7ade4c" stroke="none" stroke-linecap="butt"/><path d="M303.20223,108.44003c0.63362,-2.03 2.21591,-3.5995 4.29366,-4.73939c4.92113,-2.6998 12.62177,-2.9895 17.0808,-1.27899c2.28706,0.87733 5.31334,1.06627 6.54322,3.4812c1.42461,2.7973 -0.5072,7.21235 -4.0157,7.49052c-3.03473,0.2406 -3.95967,-2.21758 -6.41807,-2.19208c-1.65331,0.01715 -3.30654,0.04312 -4.95977,0.0678c-1.70887,0.0255 -6.3281,2.56119 -7.56006,1.84247z" fill="#9efd71" stroke="none" stroke-linecap="butt"/><path d="M324.33145,94.14988c4.14592,0.77298 12.0422,4.06613 9.2639,9.24851c-0.77085,1.43786 -2.70541,2.18793 -4.37512,2.71539c-3.15296,0.99603 -3.99896,-2.44624 -6.09542,-2.44651c-3.19677,-0.00042 -7.28157,0.10057 -10.62032,0.55406c-3.06157,0.41585 -6.49191,2.45263 -9.02283,3.82636c-0.15615,0.08476 -0.31486,0.21261 -0.47771,0.36985c-0.37004,0.75526 -0.95148,1.4085 -1.67726,1.8975c-0.83604,0.85343 -1.82356,1.48547 -3.07092,0.94288c-2.24157,0.03064 -4.173,-1.20883 -4.95515,-2.98137c-0.3433,-0.47544 -0.50011,-0.99755 -0.3672,-1.57121c-0.00176,-0.04155 -0.00294,-0.08322 -0.0035,-0.12505c-0.02152,-1.57444 0.80796,-2.98155 2.10292,-3.86357c5.84632,-6.82043 21.14091,-10.08773 29.29859,-8.56681z" fill="#67dc31" stroke="none" stroke-linecap="butt"/></g><g stroke-width="0.5"><path d="M375.70254,174.27671l2.26236,6.89074l-7.67202,-2.21667z" fill="#000000" stroke="#000000" stroke-linecap="round"/><path d="M348.04139,119.95821c-1.23544,-0.8967 -2.00466,-2.34547 -1.95017,-3.99866c0.06146,-1.86451 1.15518,-3.51986 2.73461,-4.4415c1.37032,-2.22565 7.41696,-0.38232 9.21385,0.36372c6.56301,2.72484 12.79901,10.88842 15.28363,17.30129c7.79244,20.11264 -7.90658,42.55334 -4.0899,62.9662c2.13163,11.40063 10.65474,20.79164 13.12425,32.18797c0.80704,3.7243 0.81374,10.93577 -5.35134,11.08664c-1.76692,0.04325 -3.30901,-1.25128 -4.51864,-2.42741c-0.95331,-0.92691 -0.43464,-5.22164 -0.45991,-5.97754c-0.11855,-3.54354 -2.40184,-7.28809 -3.82131,-10.36567c-3.16573,-6.86368 -8.66706,-15.03195 -9.4476,-22.80131c-2.02367,-20.14325 7.80579,-40.00412 4.8438,-60.05192c-0.55879,-3.78208 -6.59505,-10.45988 -9.25352,-12.163c-1.0199,-0.65338 -2.10088,-0.66655 -3.19008,-0.72558c-0.4809,0.00965 -0.94449,-0.04342 -1.38282,-0.15148c-0.40339,-0.08189 -0.80484,-0.2101 -1.20164,-0.41972c-0.20014,-0.10573 -0.37629,-0.23461 -0.53323,-0.38204z" fill="#9efd71" stroke="none" stroke-linecap="butt"/><path d="M373.5467,107.96609c0.52242,-2.38204 2.72991,-4.23304 5.31304,-4.29626c1.5107,-0.03698 2.85237,0.54482 3.77925,1.5064c0.15965,0.16564 0.30701,0.34255 0.4408,0.52951c2.06684,1.74299 4.45239,3.24228 6.66709,4.81313c0.04006,0.02841 0.05519,0.08195 0.09467,0.11111c19.35289,14.30256 15.48495,43.80143 13.68651,65.0859c-0.15129,1.7905 -0.5287,3.57176 -0.66525,5.36255c-0.17968,2.35628 -0.24445,4.71547 -0.23296,7.06758c0.01258,2.57526 3.69325,6.47134 2.45641,9.09408c-2.09856,4.4501 -4.15932,5.28602 -8.65519,3.51088c-4.28087,-1.69025 -4.15706,-17.74663 -4.07958,-19.66846c0.07238,-1.79535 0.6665,-4.17052 0.73828,-5.61439c0.54703,-11.00244 2.27265,-26.83538 0.23698,-38.90956c-0.96522,-5.72504 -3.0551,-11.78399 -7.50119,-15.66588c-3.33061,-2.90796 -12.8914,-6.45893 -12.41649,-12.29722c0.01803,-0.22166 0.06531,-0.43087 0.13766,-0.62937z" fill="#9efd71" stroke="none" stroke-linecap="butt"/><path d="M355.54764,114.39233c0.09248,-2.80566 2.52235,-5.13774 5.42728,-5.20883c0.45534,-0.01115 0.89532,0.03393 1.31322,0.12867c1.1228,-0.32045 2.87183,1.78563 3.54756,2.50897c3.17684,3.40067 5.68868,6.66232 8.22724,10.55064c12.72041,19.48394 2.9933,41.78961 2.92041,63.39824c-0.01174,3.47983 0.49737,7.56865 1.7458,10.79654c0.37357,0.96592 2.08416,2.85799 2.06333,3.48967c-0.05626,1.70655 -0.26835,3.73607 -1.55754,4.97336c-8.12203,7.79508 -11.45656,-7.90747 -12.08179,-11.64863c-0.20076,-1.20136 -0.41673,-2.50764 -0.51076,-3.72933c-1.38115,-17.9427 6.41947,-35.49522 2.16792,-53.45012c-1.43976,-6.0803 -5.68739,-11.45768 -9.74742,-15.97408c-0.80852,-0.89941 -4.73896,-4.34017 -3.51528,-5.83512z" fill="#67dc31" stroke="none" stroke-linecap="butt"/><path d="M401.37272,164.25812c0.73003,0.86199 1.14928,1.98321 1.10855,3.21858c-0.06146,1.86451 -1.15519,3.51987 -2.73461,4.4415c-0.53004,0.86089 -1.87712,0.90465 -3.04833,0.7646c-0.53191,-0.06362 -1.02753,-0.16514 -1.39388,-0.24527c-4.09268,-0.89517 -4.84083,-6.11616 -5.32644,-9.74866c-0.68282,-5.1077 -1.38571,-12.00324 -2.64039,-16.97928c-1.55112,-6.15174 -4.55438,-11.75404 -6.26497,-17.85697c-3.0492,-10.87886 -2.09763,-14.15096 -9.75515,-23.62417c-2.06128,-2.55005 -4.63828,-6.06626 -0.30409,-9.23622c4.88476,-3.57262 7.5398,1.18594 9.77743,3.87167c6.64472,7.97537 8.3173,15.99778 10.50391,25.9869c0.82142,3.75252 2.40321,6.49456 3.65372,10.11278c1.92084,5.55765 3.30213,11.32353 4.33558,17.14131c0.82489,4.64365 0.98749,8.23866 2.08865,12.15326z" fill="#67dc31" stroke="none" stroke-linecap="butt"/><path d="M377.69288,93.52774c1.21966,0.89813 1.9773,2.33779 1.92321,3.97895c-0.00148,0.04473 -0.00354,0.08934 -0.00621,0.13382c0.12054,0.60808 -0.04756,1.17238 -0.40115,1.69406c-0.82047,1.92552 -2.77883,3.32608 -5.01994,3.38092c-1.97418,0.98587 -4.65013,-2.50154 -5.95568,-3.15557c-4.60953,-2.30917 -10.13543,-4.99272 -15.65521,-4.86459c-6.23968,0.14483 -13.56798,1.4673 -19.34542,4.44098c-1.34996,0.69483 -3.39875,2.82835 -5.21995,3.11298c-2.80419,0.43828 -5.32337,0.83765 -6.54733,-3.0501c-2.03283,-6.457 9.85411,-10.19859 14.21675,-11.57745c12.25701,-3.874 25.17386,-4.21743 36.10447,1.97884c2.45884,1.39384 4.48326,2.3428 5.90645,3.92715z" fill="#67dc31" stroke="none" stroke-linecap="butt"/><path d="M374.79862,101.4208c0.82149,0.88178 1.30093,2.06914 1.25751,3.38627c-0.00148,0.04473 -0.00354,0.08934 -0.00621,0.13382c0.07556,0.38114 0.03772,0.74508 -0.08813,1.09211c5.98917,7.26896 14.49136,18.27244 13.53635,26.68904c-0.7053,6.21585 -0.78607,12.53283 -2.45429,18.62739c-1.70959,6.24564 -4.89124,12.64643 -4.57965,19.19515c0.41405,8.70207 4.98061,17.47433 7.47873,25.60734c2.59195,8.43849 4.75462,17.1468 7.7199,25.40633c0.97434,2.71398 0.5719,5.97953 -3.28803,7.30263c-7.32363,2.51037 -9.65437,-12.86933 -10.82873,-16.94906c-0.48023,-1.66834 -0.98109,-3.33007 -1.47963,-4.99249c-0.72887,-2.43046 -1.40995,-4.87747 -2.2026,-7.28609c-2.94313,-8.94326 -8.00096,-18.781 -7.9312,-28.47015c0.09418,-13.08394 6.83428,-24.78053 6.99185,-38.09877c0.11671,-9.86579 -10.26796,-17.4414 -15.14143,-24.58498c-0.44996,-0.65954 -0.69822,-1.46394 -0.74613,-2.30646c-0.01198,-0.16836 -0.01531,-0.33937 -0.00958,-0.51262c0.01148,-0.348 0.0589,-0.68871 0.13874,-1.01872c0.00551,-0.02448 0.01121,-0.04894 0.01705,-0.07337c-3.37745,-1.74606 -8.5141,-2.65793 -11.80908,-2.63008c-4.80133,0.04059 -9.55299,-0.38568 -14.23262,0.87741c-2.86389,0.773 -6.90567,5.38252 -9.95435,3.45316c-1.43897,-0.91064 -2.72809,-2.48891 -2.79994,-4.18784c-0.27515,-6.50738 10.47881,-9.51015 15.52827,-9.9365c10.33939,-0.87301 29.24819,-1.11035 34.88324,9.2765z" fill="#4cc513" stroke="none" stroke-linecap="butt"/><path d="M374.5992,106.3952c1.3736,0.2332 17.76707,27.26062 17.9994,28.48321c1.21766,6.4076 1.16039,12.97308 1.12528,19.56817c-0.03874,7.27506 -1.24749,14.5196 -1.2672,21.73396c-0.02365,8.65592 4.93627,16.75569 4.69643,25.3556c-0.19137,6.86165 -0.25748,13.72298 -0.67862,20.58774c-0.16423,2.67706 -2.01524,5.12532 -5.42728,5.20883c-3.4148,0.08357 -5.10312,-2.27807 -5.09239,-4.95137c0.02693,-6.71505 0.50778,-13.44674 0.66475,-20.16729c0.18314,-7.8416 -3.65994,-16.08528 -4.58676,-23.9224c-0.81249,-6.87028 0.95291,-16.94748 1.16629,-23.40863c0.16533,-5.00673 0.15305,-10.76463 -0.58565,-15.75018c-0.2779,-1.87559 -1.27977,-4.1819 -0.84404,-6.08147c0.05027,-0.21916 -15.70649,-20.70827 -15.60576,-20.89904c0.87708,-1.66114 -1.44121,-5.81969 1.00692,-7.49049c2.44813,-1.67081 7.42865,1.73338 7.42865,1.73338z" fill="#7ade4c" stroke="none" stroke-linecap="butt"/><path d="M350.43819,120.91735c-1.24758,0.81651 -5.81249,-1.71376 -7.52096,-1.67423c-1.65284,0.03823 -3.30566,0.07508 -4.95875,0.12136c-2.45806,0.06882 -3.43613,2.73291 -6.46595,2.59429c-3.50282,-0.16024 -5.33949,-4.8047 -3.85438,-7.85085c1.28213,-2.62977 4.31273,-2.95002 6.61894,-3.97733c4.49636,-2.0029 12.19142,-1.99416 17.05471,0.69976c2.05333,1.13739 3.60187,2.75347 4.19174,4.89887z" fill="#9efd71" stroke="none" stroke-linecap="butt"/><path d="M363.79721,109.29133c1.27603,0.89232 2.07522,2.36418 2.01971,4.04819c-0.00148,0.04473 -0.00354,0.08934 -0.00621,0.13382c0.12054,0.60808 -0.04755,1.17237 -0.40114,1.69406c-0.82047,1.92552 -2.77883,3.32608 -5.01994,3.38092c-1.25918,0.62881 -2.23314,-0.00828 -3.05084,-0.88796c-0.71529,-0.49439 -1.28267,-1.17002 -1.63646,-1.96299c-0.15948,-0.16174 -0.31544,-0.29222 -0.46978,-0.37672c-2.50149,-1.36968 -5.88817,-3.41306 -8.94104,-3.73797c-3.32925,-0.35434 -7.41225,-0.30265 -10.60931,-0.17726c-2.09664,0.08223 -3.01701,3.79528 -6.14875,2.85368c-1.65846,-0.49864 -3.57702,-1.22489 -4.31689,-2.73192c-2.66668,-5.43168 5.30137,-9.26087 9.46435,-10.24925c8.19125,-1.94477 23.41668,0.95042 29.1163,8.01337z" fill="#67dc31" stroke="none" stroke-linecap="butt"/></g><path d="M336.03373,89.65189c2.66661,-5.46107 -1.23955,-9.1384 3.27534,-15.43281c4.51489,-6.29442 5.93551,-10.46591 12.92709,-14.84765c6.99158,-4.38175 7.10799,-8.07511 19.50871,-5.48045c12.40072,2.59466 24.297,11.21316 28.43333,15.51156c4.13632,4.2984 -0.338,12.77521 1.08933,15.16784c1.42732,2.39263 1.75073,1.03637 6.34034,-2.71342c4.58961,-3.74977 10.45832,-11.01129 10.45832,-11.01129c0,0 -2.61081,14.28949 -7.22199,18.66561c-4.61119,4.37611 -9.29484,7.38261 -14.87455,2.30443c-5.57971,-5.07818 3.8109,-10.70311 -2.7251,-18.32209c-6.536,-7.61896 -15.37134,-10.74061 -22.82711,-11.46398c-7.45577,-0.72337 -12.60166,1.37213 -17.14891,7.5855c-4.54726,6.21338 -3.60865,14.21547 -5.20043,20.25338c-1.59179,6.0379 -7.8215,13.93099 -7.8215,13.93099c0,0 -2.73507,2.08265 -5.47756,1.08289c-2.74697,-1.00141 -2.98881,-7.26061 -2.98881,-7.26061c0,0 1.58689,-2.50887 4.2535,-7.96993z" fill="#026b00" stroke="#000000" stroke-width="2" stroke-linecap="round"/><g stroke-linecap="butt"><g stroke="#000000" stroke-width="2"><path d="M272.77504,127.99247c-0.75743,-3.54163 1.09294,-8.7927 4.70448,-9.56508c3.61153,-0.77238 7.61659,3.22642 8.37403,6.76805c0.75743,3.54163 -1.65821,5.73708 -5.26974,6.50945c-3.61153,0.77238 -7.05133,-0.17079 -7.80876,-3.71242z" fill="#d995cc"/><path d="M286.08589,124.14259c-3.51031,-0.89137 -7.39662,-4.87815 -6.48764,-8.45775c0.90897,-3.57959 6.26899,-5.39648 9.7793,-4.50513c3.51031,0.89137 4.40712,4.03 3.49815,7.60959c-0.90897,3.57959 -3.2795,6.24463 -6.78981,5.35327z" fill="#d995cc"/><path d="M285.05413,109.02034c-1.2114,3.41312 -5.5397,6.91504 -9.02016,5.67972c-3.48048,-1.23532 -4.79515,-6.7401 -3.58373,-10.15322c1.2114,-3.41312 4.41939,-4.01654 7.89987,-2.78123c3.48048,1.23532 5.91546,3.84159 4.70404,7.25471z" fill="#d995cc"/><path d="M271.70047,105.32167c2.52218,2.59912 3.74203,8.0314 1.09159,10.60335c-2.65043,2.57195 -8.16744,1.30964 -10.68962,-1.28949c-2.52218,-2.59912 -1.64072,-5.7421 1.00972,-8.31405c2.65043,-2.57195 6.06614,-3.59894 8.58831,-0.99982z" fill="#d995cc"/><path d="M263.12978,117.32537c3.00748,-2.01788 8.57026,-2.24875 10.62795,0.8181c2.05771,3.06685 -0.16886,8.27006 -3.17634,10.28794c-3.00749,2.01789 -5.94273,0.58971 -8.00044,-2.47715c-2.05771,-3.06685 -2.45868,-6.611 0.5488,-8.62889z" fill="#d995cc"/><path d="M268.03954,117.6696c-0.05254,-3.84386 3.02091,-7.00252 6.86478,-7.05506c3.84386,-0.05254 7.00251,3.02093 7.05505,6.86478c0.05254,3.84386 -3.02091,7.00252 -6.86477,7.05506c-3.84386,0.05254 -7.00252,-3.02091 -7.05506,-6.86478z" fill="#d8a51e"/></g><g stroke="none" stroke-width="0"><path d="M272.77504,127.99247c-0.75743,-3.54163 1.09294,-8.7927 4.70448,-9.56508c3.61153,-0.77238 7.61659,3.22643 8.37403,6.76805c0.75743,3.54163 -1.65821,5.73708 -5.26974,6.50945c-3.61153,0.77238 -7.05133,-0.17079 -7.80876,-3.71242z" fill="#d995cc"/><path d="M286.08589,124.14259c-3.51031,-0.89137 -7.39661,-4.87814 -6.48764,-8.45775c0.90897,-3.57959 6.26899,-5.39648 9.7793,-4.50513c3.51031,0.89137 4.40712,4.03 3.49815,7.6096c-0.90897,3.57959 -3.2795,6.24463 -6.78981,5.35326z" fill="#d995cc"/><path d="M285.05413,109.02035c-1.2114,3.41312 -5.53971,6.91505 -9.02017,5.67973c-3.48048,-1.23532 -4.79515,-6.7401 -3.58374,-10.15321c1.2114,-3.41312 4.41938,-4.01655 7.89986,-2.78123c3.48048,1.23532 5.91547,3.8416 4.70405,7.25472z" fill="#d995cc"/><path d="M271.70047,105.32167c2.52217,2.59912 3.74201,8.03141 1.09158,10.60336c-2.65042,2.57195 -8.16744,1.30964 -10.68961,-1.28949c-2.52217,-2.59912 -1.64072,-5.7421 1.00971,-8.31404c2.65042,-2.57195 6.06615,-3.59895 8.58832,-0.99983z" fill="#d995cc"/><path d="M263.12978,117.32537c3.00748,-2.01788 8.57026,-2.24874 10.62795,0.8181c2.05771,3.06684 -0.16886,8.27006 -3.17634,10.28794c-3.00749,2.01789 -5.94273,0.58971 -8.00044,-2.47715c-2.05771,-3.06684 -2.45868,-6.611 0.5488,-8.62889z" fill="#d995cc"/><path d="M268.03954,117.6696c-0.05254,-3.84386 3.02091,-7.00252 6.86477,-7.05506c3.84386,-0.05254 7.00251,3.02093 7.05505,6.86478c0.05254,3.84386 -3.02091,7.00252 -6.86477,7.05506c-3.84386,0.05254 -7.00251,-3.02093 -7.05505,-6.86478z" fill="#d8a51e"/></g></g><g stroke-linecap="butt"><g stroke="#000000" stroke-width="2"><path d="M393.0598,179.27811c-1.80143,-1.96154 -2.58828,-5.97933 -0.58803,-7.81632c2.00025,-1.837 6.03016,-0.79756 7.83159,1.16397c1.80143,1.96154 1.08995,4.25403 -0.9103,6.09104c-2.00025,1.837 -4.53183,2.52285 -6.33327,0.5613z" fill="#d995cc"/><path d="M400.05775,171.87195c-2.55692,0.74499 -6.50707,-0.33114 -7.26675,-2.93851c-0.75969,-2.60738 1.95876,-5.75866 4.51568,-6.50365c2.55692,-0.74499 4.29631,0.90919 5.056,3.51656c0.75969,2.60738 0.252,5.18061 -2.30492,5.9256z" fill="#d995cc"/><path d="M393.76138,162.67467c0.50592,2.61475 -0.93002,6.44877 -3.59637,6.96469c-2.66635,0.51591 -5.55339,-2.48165 -6.05932,-5.0964c-0.50592,-2.61475 1.30166,-4.19411 3.96801,-4.71003c2.66635,-0.51591 5.18177,0.227 5.68769,2.84173z" fill="#d995cc"/><path d="M383.91973,165.31366c2.568,0.70583 5.3679,3.69286 4.64813,6.31154c-0.71977,2.61868 -4.68666,3.87739 -7.25466,3.17156c-2.568,-0.70583 -3.18219,-3.02629 -2.46243,-5.64498c0.71977,-2.61868 2.50096,-4.54395 5.06896,-3.83812z" fill="#d995cc"/><path d="M382.96783,176.11783c1.15277,-2.40082 4.59149,-4.62277 7.03969,-3.44725c2.44821,1.17553 2.97882,5.30335 1.82605,7.70417c-1.15277,2.40082 -3.54558,2.59109 -5.99379,1.41557c-2.44821,-1.17553 -4.02472,-3.27167 -2.87196,-5.67249z" fill="#d995cc"/><path d="M386.20736,174.50397c-1.46756,-2.41606 -0.69864,-5.56437 1.71742,-7.03192c2.41607,-1.46757 5.56436,-0.69864 7.03191,1.71743c1.46757,2.41607 0.69864,5.56437 -1.71742,7.03192c-2.41606,1.46756 -5.56437,0.69864 -7.03192,-1.71743z" fill="#d8a51e"/></g><g stroke="none" stroke-width="0"><path d="M393.0598,179.27811c-1.80143,-1.96154 -2.58828,-5.97933 -0.58803,-7.81633c2.00025,-1.837 6.03016,-0.79755 7.83159,1.16398c1.80143,1.96154 1.08995,4.25403 -0.9103,6.09104c-2.00025,1.837 -4.53183,2.52285 -6.33327,0.5613z" fill="#ffc37a"/><path d="M400.05775,171.87195c-2.55692,0.74499 -6.50707,-0.33112 -7.26675,-2.93851c-0.75969,-2.60739 1.95876,-5.75866 4.51568,-6.50365c2.55692,-0.74499 4.29631,0.90919 5.056,3.51657c0.75969,2.60739 0.252,5.1806 -2.30492,5.92559z" fill="#ffc37a"/><path d="M393.76139,162.67468c0.50592,2.61475 -0.93003,6.44876 -3.59637,6.96469c-2.66635,0.51591 -5.55339,-2.48165 -6.05932,-5.0964c-0.50592,-2.61475 1.30165,-4.19411 3.968,-4.71003c2.66635,-0.51591 5.18178,0.227 5.6877,2.84174z" fill="#ffc37a"/><path d="M383.91972,165.31366c2.568,0.70584 5.3679,3.69287 4.64813,6.31154c-0.71977,2.61868 -4.68666,3.8774 -7.25466,3.17156c-2.568,-0.70584 -3.18219,-3.02629 -2.46243,-5.64498c0.71977,-2.61868 2.50095,-4.54396 5.06895,-3.83812z" fill="#ffc37a"/><path d="M382.96783,176.11783c1.15277,-2.40082 4.5915,-4.62276 7.03969,-3.44725c2.4482,1.17552 2.97882,5.30335 1.82605,7.70417c-1.15277,2.40082 -3.54559,2.59108 -5.99379,1.41557c-2.4482,-1.17552 -4.02472,-3.27167 -2.87196,-5.67249z" fill="#ffc37a"/><path d="M386.20736,174.50397c-1.46756,-2.41606 -0.69865,-5.56437 1.71742,-7.03192c2.41607,-1.46757 5.56436,-0.69864 7.03191,1.71743c1.46757,2.41607 0.69864,5.56437 -1.71742,7.03192c-2.41606,1.46756 -5.56436,0.69864 -7.03191,-1.71743z" fill="#d8a51e"/></g></g><g stroke-linecap="butt"><g stroke="#000000" stroke-width="2"><path d="M255.99419,177.69625c-1.74963,-2.38044 -2.0281,-4.97669 0.30628,-6.69247c2.33437,-1.71578 6.8539,-1.97976 8.60354,0.40068c1.74963,2.38044 0.06683,6.50389 -2.26754,8.21966c-2.33437,1.71578 -4.89263,0.45257 -6.64227,-1.92787z" fill="#d995cc"/><path d="M255.50378,163.4422c1.35792,-2.62371 3.56158,-4.02441 6.13449,-2.69277c2.57292,1.33164 4.81339,5.26561 3.45548,7.88932c-1.35793,2.6237 -5.80004,2.94358 -8.37295,1.61195c-2.57291,-1.33164 -2.57493,-4.18478 -1.21702,-6.80849z" fill="#d995cc"/><path d="M272.03824,159.9147c2.73777,1.11007 4.33582,3.17513 3.24721,5.85992c-1.0886,2.68479 -4.7991,5.27865 -7.53688,4.16858c-2.73777,-1.11007 -3.46611,-5.50375 -2.37751,-8.18854c1.0886,-2.68479 3.92939,-2.95001 6.66717,-1.83994z" fill="#d995cc"/><path d="M279.92755,171.79652c0.21886,2.94615 -0.92356,5.29412 -3.8127,5.50875c-2.88914,0.21463 -6.85925,-1.96116 -7.07811,-4.90732c-0.21886,-2.94615 3.3964,-5.54702 6.28553,-5.76166c2.88914,-0.21463 4.38641,2.21408 4.60527,5.16022z" fill="#d995cc"/><path d="M269.81593,183.82043c-2.85981,0.74109 -5.37395,0.036 -6.10071,-2.76847c-0.72675,-2.80445 0.70566,-7.09913 3.56547,-7.84022c2.85981,-0.74109 6.06409,2.35203 6.79083,5.15649c0.72675,2.80445 -1.3958,4.7111 -4.2556,5.4522z" fill="#d995cc"/><path d="M263.08621,176.32377c-2.27097,-2.07334 -2.43116,-5.59512 -0.35781,-7.8661c2.07334,-2.27097 5.59512,-2.43118 7.86609,-0.35783c2.27097,2.07334 2.43117,5.59512 0.35782,7.86609c-2.07334,2.27097 -5.59512,2.43118 -7.86609,0.35783z" fill="#d8a51e"/></g><g stroke="none" stroke-width="0"><path d="M255.99419,177.69625c-1.74963,-2.38044 -2.0281,-4.97669 0.30628,-6.69247c2.33437,-1.71578 6.8539,-1.97977 8.60354,0.40067c1.74963,2.38044 0.06682,6.5039 -2.26755,8.21967c-2.33437,1.71578 -4.89263,0.45257 -6.64227,-1.92787z" fill="#807bff"/><path d="M255.50378,163.4422c1.35792,-2.62371 3.56158,-4.02441 6.1345,-2.69278c2.57292,1.33164 4.81339,5.2656 3.45548,7.88932c-1.35793,2.6237 -5.80004,2.94358 -8.37295,1.61195c-2.57291,-1.33164 -2.57494,-4.18478 -1.21703,-6.80848z" fill="#807bff"/><path d="M272.03824,159.9147c2.73777,1.11007 4.33582,3.17513 3.24721,5.85992c-1.0886,2.68479 -4.7991,5.27865 -7.53688,4.16858c-2.73777,-1.11007 -3.46611,-5.50375 -2.37751,-8.18854c1.0886,-2.68479 3.9294,-2.95002 6.66718,-1.83995z" fill="#807bff"/><path d="M279.92755,171.79652c0.21885,2.94615 -0.92356,5.29412 -3.8127,5.50875c-2.88914,0.21463 -6.85926,-1.96115 -7.07811,-4.90731c-0.21885,-2.94615 3.3964,-5.54703 6.28553,-5.76167c2.88914,-0.21463 4.38642,2.21409 4.60528,5.16023z" fill="#807bff"/><path d="M269.81593,183.82043c-2.85981,0.74109 -5.37395,0.036 -6.10071,-2.76847c-0.72675,-2.80445 0.70566,-7.09913 3.56547,-7.84022c2.85981,-0.74109 6.06409,2.35203 6.79083,5.15649c0.72675,2.80445 -1.3958,4.7111 -4.2556,5.4522z" fill="#807bff"/><path d="M263.08621,176.32377c-2.27097,-2.07334 -2.43116,-5.59512 -0.35781,-7.8661c2.07334,-2.27097 5.59512,-2.43118 7.86609,-0.35783c2.27097,2.07334 2.43116,5.59512 0.35781,7.8661c-2.07334,2.27097 -5.59512,2.43118 -7.86609,0.35783z" fill="#d8a51e"/></g></g></g></g></svg>