<svg version="1.1" xmlns="http://www.w3.org/2000/svg" xmlns:xlink="http://www.w3.org/1999/xlink" width="223.51884" height="285.30994" viewBox="0,0,223.51884,285.30994"><g transform="translate(-215.20257,-38.88753)"><g stroke-miterlimit="10"><path d="" fill="none" stroke="#000000" stroke-width="2" stroke-linecap="round"/><path d="M421.68391,170.92063c-13.85278,24.84892 -66.96132,153.27684 -66.96132,153.27684l-80.03155,-0.55421c0,0 -32.69722,-124.72096 -45.0274,-150.92466c-4.52228,-9.6106 -0.80194,-19.65434 12.6871,-19.5766c40.94941,0.23603 128.15892,0.73871 165.1154,0.95171c3.4738,0.02002 10.73098,0.66395 14.03348,3.99455c3.0955,3.12184 2.43194,8.80062 0.18432,12.83237z" fill="#000000" stroke="#000000" stroke-width="0" stroke-linecap="butt"/><g fill="#ffffff" stroke="#000000" stroke-width="0"><path d="M329.16653,195.23251c0,0 -0.7767,45.18636 -1.45525,53.69135c-0.2426,3.04071 -2.90352,0.94112 -2.90352,0.94112l-3.72062,6.77729l-7.27895,-21.09422l7.41417,-40.11727z" stroke-linecap="round"/><path d="M336.02056,189.90416c-0.08708,2.25535 0.32124,4.63274 -1.64006,6.14216c-2.07479,1.59676 -6.6041,2.26144 -9.74398,2.26144c-2.68266,0 -5.96799,-0.23144 -7.83635,-1.43866c-2.38562,-1.54145 -2.99926,-4.36218 -2.89877,-6.96495c0.09193,-2.38111 0.89039,-5.51959 3.04357,-7.04871c2.0437,-1.45139 5.36611,-1.3549 8.34049,-1.3549c3.50555,0 7.25286,0.08587 9.20447,2.01933c1.44884,1.43538 1.607,4.40678 1.53065,6.38428z" stroke-linecap="butt"/></g><path d="M215.20257,306.61253l10.33681,-267.72501h213.18203l-10.33681,267.72501z" fill="none" stroke="none" stroke-width="0" stroke-linecap="butt"/><path d="M264.88935,132.82129c1.28578,-33.30185 31.08801,-60.29833 66.56513,-60.29833c35.47713,0 63.19469,26.99648 61.90891,60.29833c-1.28578,33.30185 -31.08801,60.29834 -66.56514,60.29834c-35.47712,0 -63.19469,-26.99649 -61.9089,-60.29834z" fill="#000000" stroke="#000000" stroke-width="2" stroke-linecap="butt"/><g stroke="#000000" stroke-width="0" stroke-linecap="butt"><path d="M264.16188,135.1842l-11.68744,-62.69671c0,0 51.06134,-4.01247 75.95069,-4.94998c24.14783,-0.90958 71.22812,-0.59381 71.22812,-0.59381l-6.4139,63.89589z" fill="#000000"/><path d="M265.10794,134.30029l-2.26816,-10.17038l130.57492,-1.0678l-1.09483,10.08137z" fill="#ffffff"/><path d="M245.22419,142.09833c0,0 -3.07433,-3.65822 -3.79555,-5.776c-0.7704,-2.2622 -0.68905,-7.39253 -0.68905,-7.39253l176.10495,-0.75584c0,0 -0.7105,4.01527 -1.53316,6.13824c-0.89361,2.30607 -3.63331,7.1944 -3.63331,7.1944c0,0 -1.74539,0.0062 -4.87383,0.01733c-1.4809,0.00526 -3.19899,28.34496 -5.26127,28.3523c-0.53701,0.00191 0.05582,-8.1529 -0.23633,-15.42891c-0.27607,-6.87534 -2.60101,-12.8946 -3.17369,-12.89256c-31.13063,0.11067 -107.34821,0.38161 -136.68275,0.4859c-2.58545,0.00919 -2.07915,11.40654 -3.81781,10.82347c-4.46215,-1.49642 -5.33373,-10.79093 -6.18487,-10.78791c-3.46585,0.01232 -6.22334,0.02212 -6.22334,0.02212z" fill="#000000"/></g><path d="M391.36657,125.3486c-0.15381,-0.72761 0.58082,-0.90951 0.58082,-0.90951l0.43498,-0.0631c1.60684,-1.02641 2.67813,-2.51652 3.33159,-4.19236c-0.20008,-0.87255 -0.23611,-1.72314 -0.05939,-2.49735c0,0 0.15898,-0.66631 0.80363,-0.60364c0.04046,-0.36074 0.0669,-0.72236 0.08025,-1.08261c0,0 0.02897,-0.75 0.77897,-0.75c0.75,0 0.72103,0.75 0.72103,0.75c-0.05719,1.42993 -0.29927,2.85095 -0.75898,4.18248c0.84687,2.81264 3.6928,6.22932 5.76059,6.56752l0.69212,-0.1521c0,0 0.74111,-0.14709 0.8598,0.58835c0.11869,0.73544 -0.62243,0.88252 -0.62243,0.88252l-0.98742,0.18123c-2.41946,-0.52486 -5.19925,-3.22189 -6.57577,-6.11865c-0.77133,1.3652 -1.83609,2.56708 -3.24016,3.49269l-0.91122,0.27024c0,0 -0.73463,0.1819 -0.88845,-0.54571z" fill="#000000" stroke="none" stroke-width="0.5" stroke-linecap="butt"/><path d="M297.22069,166.39208c0.10194,-0.03887 0.22945,-0.06336 0.38888,-0.06336c0.77287,0 0.75066,0.57532 0.75066,0.57532l-0.04744,0.20161c0.24462,0.59783 1.61871,2.4976 1.06563,3.01136c-0.67821,0.62997 -3.50173,-0.1041 -3.86921,-0.65442c-0.32675,-0.48935 0.52195,-1.97446 0.53243,-2.55855c0,0 0.02221,-0.57532 0.79508,-0.57532c0.15944,0 0.28505,0.02448 0.38398,0.06336z" fill="#ffffff" stroke="none" stroke-width="0.5" stroke-linecap="butt"/><path d="M310.80362,168.97361c0.58226,-0.25522 0.98514,0.16058 0.98514,0.16058l0.81902,0.86502c0.17561,0.57086 0.73539,1.86609 0.01438,2.38001c-0.53261,0.37964 -2.71693,0.2321 -3.22434,-0.26219c-0.50429,-0.49125 -0.06143,-2.18753 -0.03664,-2.82943c0,0 0.02221,-0.57532 0.79508,-0.57532c0.36282,0 0.55043,0.12679 0.64735,0.26132z" fill="#ffffff" stroke="none" stroke-width="0.5" stroke-linecap="butt"/><path d="M326.65104,168.13697c0.77287,0 0.75066,0.57532 0.75066,0.57532l-0.03269,0.69679c0.11216,0.36682 1.23839,2.81343 1.08561,3.02657c-0.48328,0.67413 -3.44656,0.22673 -3.86259,-0.10918c-0.52222,-0.42165 -0.07688,-2.24839 -0.05377,-2.84709c0,0 0.02221,-0.57532 0.79508,-0.57532c0.23854,0 0.40134,0.05481 0.51243,0.13059l0.01022,-0.32236c0,0 0.02221,-0.57532 0.79508,-0.57532z" fill="#ffffff" stroke="none" stroke-width="0.5" stroke-linecap="butt"/><path d="M339.59434,169.09843c0.10884,-0.13124 0.30548,-0.2526 0.66044,-0.2526c0.77287,0 0.75066,0.57532 0.75066,0.57532l-0.04004,0.00984c0.25362,0.61983 1.93662,2.47792 1.6378,2.94643c-0.57472,0.9011 -4.0172,0.03908 -4.40003,-0.33247c-0.57136,-0.55452 0.2012,-1.78945 0.21864,-2.43203c0,0 0.02221,-0.57532 0.79508,-0.57532c0.15595,0 0.27954,0.02342 0.37746,0.06082z" fill="#ffffff" stroke="none" stroke-width="0.5" stroke-linecap="butt"/><path d="M350.08198,168.0086c0.07937,-0.01851 0.17087,-0.02923 0.27637,-0.02923c0.54195,0 0.69294,0.2829 0.7348,0.45194c1.06142,0.61246 2.59289,2.07117 1.52026,2.987c-0.17716,0.15127 -4.00248,0.38311 -4.19986,0.24421c-0.71881,-0.50589 0.05675,-3.20529 0.15238,-3.91592c0,0 0.07723,-0.57385 0.84654,-0.53286c0.76932,0.04099 0.6921,0.61485 0.6921,0.61485c-0.00807,0.05995 -0.01556,0.11997 -0.0226,0.18001z" fill="#ffffff" stroke="none" stroke-width="0.5" stroke-linecap="butt"/><path d="M356.73298,166.39208c0.00733,-0.00756 0.01492,-0.01515 0.02284,-0.02279c0.47858,-0.4619 1.08586,-0.11892 1.08586,-0.11892l0.74806,0.43592c0.47578,0.59626 2.51886,2.33068 1.91984,3.15985c-0.42227,0.5845 -4.39277,0.97689 -4.94282,0.46265c-0.27999,-0.26177 0.16725,-2.72891 0.00326,-3.26521c0,0 -0.1659,-0.55814 0.58928,-0.69767c0.25127,-0.04643 0.43731,-0.01562 0.57369,0.04618z" fill="#ffffff" stroke="none" stroke-width="0.5" stroke-linecap="butt"/><path d="M363.70091,166.00956c0.37398,-0.43115 0.99828,-0.1954 0.99828,-0.1954l0.16455,0.13104c0.89238,0.00739 3.16277,0.20682 3.30454,1.11489c0.1014,0.64952 -2.80188,1.66566 -3.51059,1.56484c-1.36652,-0.19442 -1.64005,-1.24768 -2.26751,-1.97705c0,0 -0.41023,-0.47869 0.24516,-0.79781c0.65148,-0.31723 1.06071,0.15389 1.06557,0.15952z" fill="#ffffff" stroke="none" stroke-width="0.5" stroke-linecap="butt"/><path d="M287.68077,163.26039c0.37461,0 0.56242,0.13516 0.65652,0.27446c0.04454,0.02337 0.08924,0.05174 0.13369,0.08582c0.44603,0.34185 0.12026,0.68372 0.00485,0.78416c0.56248,0.87256 1.38129,2.39316 -0.47306,3.00848c-0.57072,0.18938 -4.31437,-0.81399 -4.28102,-1.60319c0.03556,-0.84146 2.03291,-1.37574 3.16335,-1.91095l0.00061,-0.06346c0,0 0.02221,-0.57532 0.79508,-0.57532z" fill="#ffffff" stroke="none" stroke-width="0.5" stroke-linecap="butt"/><path d="M291.83331,166.13697c0.38152,-0.06552 0.78325,-0.06769 1.19723,0h0.3786l0.07892,-0.16225l0.74872,0.18758c0.31302,0.0723 0.53414,0.29118 0.52414,0.54999c-0.01226,0.31774 -0.36824,0.57532 -0.79508,0.57532h-0.50031c0.17795,0.73585 -0.07595,1.6799 -0.49807,2.06234c-0.55316,0.50117 -1.4786,0.42754 -2.18934,0.4307c-0.53065,0.00236 -1.98423,0.04721 -2.21541,-0.30385c-0.222,-0.33713 0.36791,-0.71641 0.53154,-1.07953c0.36127,-0.80171 0.90542,-1.4279 1.5673,-1.82491c0.13069,-0.43538 0.77251,-0.43538 0.77251,-0.43538c0.13309,0 0.26619,0 0.39927,0z" fill="#ffffff" stroke="none" stroke-width="0.5" stroke-linecap="butt"/><path d="M304.40627,168.41667c0.10638,-0.09534 0.24305,-0.16247 0.41584,-0.18899c1.53977,-0.2363 2.68764,2.74755 1.94332,3.40703c-0.76022,0.67354 -3.80612,0.13322 -4.15477,-0.55567c-0.03573,-0.07058 0.80697,-1.6932 0.81427,-2.09965c0,0 0.02221,-0.57532 0.79508,-0.57532c0.06807,0 0.12998,0.00446 0.18627,0.0126z" fill="#ffffff" stroke="none" stroke-width="0.5" stroke-linecap="butt"/><path d="M318.46789,169.70565l0.77081,0.22168c0.35479,0.41399 1.79011,1.75455 1.54754,2.23179c-0.3855,0.75844 -4.2933,0.84344 -4.77222,0.27653c-0.04881,-0.05777 0.96049,-2.25626 1.05944,-2.5205c0,0 0.209,-0.55814 0.9534,-0.41861c0.22075,0.04138 0.35767,0.11957 0.44105,0.2091z" fill="#ffffff" stroke="none" stroke-width="0.5" stroke-linecap="butt"/><path d="M332.17617,170.95049c0.07514,-0.046 0.17134,-0.08613 0.29402,-0.11628c0.74023,-0.18193 0.96355,0.36386 0.96355,0.36386l0.12287,0.40804c2.97383,1.6683 -1.86445,2.6522 -2.77264,1.71489c-0.46391,-0.4788 -0.14707,-2.05387 -0.12181,-2.70808c0,0 0.02221,-0.57532 0.79508,-0.57532c0.77287,0 0.75066,0.57532 0.75066,0.57532c-0.0043,0.11151 -0.01572,0.22424 -0.03171,0.33758z" fill="#ffffff" stroke="none" stroke-width="0.5" stroke-linecap="butt"/><path d="M304.5323,184.11039c-0.62679,0.27278 -1.01666,-0.18214 -1.01666,-0.18214c-0.41744,-0.48879 -2.29459,-2.55934 -2.05543,-3.11676c0.36318,-0.84646 3.95548,-1.3709 4.85235,-0.9292c1.19753,0.58976 0.46596,2.66762 0.07218,3.454l-0.91005,0.67967c0,0 -0.4611,0.33366 -0.94238,0.09446z" fill="#ffffff" stroke="none" stroke-width="0.5" stroke-linecap="butt"/><path d="M308.95654,189.47136c-0.63076,-0.31913 -0.18354,-0.79781 -0.18354,-0.79781l0.06184,-0.0662c-0.11944,-0.11699 -0.15666,-0.24222 -0.15666,-0.24222c-0.18501,-0.66105 -1.6844,-2.38616 -1.1348,-3.04451c0.65083,-0.77961 4.45302,-1.28594 5.21724,-0.308c0.94094,1.20408 -1.36528,2.84248 -2.18867,3.72388l-0.53745,0.57532c0,0 -0.44719,0.47869 -1.07793,0.15956z" fill="#ffffff" stroke="none" stroke-width="0.5" stroke-linecap="butt"/><path d="M317.29525,190.19283c-0.0799,0.16607 -0.27302,0.37515 -0.73892,0.37515c-0.77287,0 -0.75066,-0.57532 -0.75066,-0.57532l0.53336,-0.70634c-0.05932,-0.6999 -0.65259,-2.4482 -0.31235,-2.8161c0.52706,-0.56994 3.8202,-1.18264 4.60383,-0.52804c1.75561,1.46652 -1.51194,3.57769 -3.33526,4.25066z" fill="#ffffff" stroke="none" stroke-width="0.5" stroke-linecap="butt"/><path d="M326.81507,189.66616c0.01161,0.02434 0.02201,0.04747 0.03099,0.06926c0,0 0.18733,0.4578 -0.34979,0.67461c-0.10486,0.13928 -0.30311,0.27441 -0.67768,0.27441c-0.77287,0 -0.75066,-0.57532 -0.75066,-0.57532l0.05409,-0.3737c0.00998,-0.02048 0.02028,-0.04283 0.03087,-0.06689c-0.39417,-0.72723 -1.03751,-1.76502 -0.72839,-2.3764c0.21596,-0.4271 2.79663,-2.22883 3.63825,-1.44975c0.73695,0.68219 -0.60662,2.73875 -1.24769,3.82379z" fill="#ffffff" stroke="none" stroke-width="0.5" stroke-linecap="butt"/><path d="M331.12017,189.98647c-0.17981,-0.20981 -0.15489,-0.38897 -0.07016,-0.52405c-0.03556,-0.09953 -0.03251,-0.17863 -0.03251,-0.17863c0.0319,-0.70088 0.13717,-2.75429 0.86838,-3.28339c0.74839,-0.54153 4.5727,-0.56697 4.86833,0.41187c0.23478,0.77733 -3.03501,2.97894 -3.78076,3.35022l-0.78768,0.38355c0,0 -0.65538,0.31913 -1.06561,-0.15956z" fill="#ffffff" stroke="none" stroke-width="0.5" stroke-linecap="butt"/><path d="M341.30334,186.52512c0,0 0.18193,0.55504 -0.56954,0.70642c-0.75147,0.15138 -0.93341,-0.40366 -0.93341,-0.40366c-0.23465,-0.71592 -1.60249,-3.0975 -0.68394,-3.81831c1.97376,-1.54885 3.7358,0.56979 3.25709,1.94882l-0.0561,0.05002l0.0203,0.00766l-0.72309,1.01801c-0.08149,0.12066 -0.21685,0.21825 -0.38146,0.27498c0.02321,0.07206 0.04657,0.14409 0.07017,0.21608z" fill="#ffffff" stroke="none" stroke-width="0.5" stroke-linecap="butt"/><path d="M347.33849,183.79295c-0.77287,0 -0.75066,-0.57532 -0.75066,-0.57532c0.03146,-0.7216 -0.82142,-2.39959 -0.58756,-2.92771c0.12472,-0.28165 2.39042,-0.84902 2.68701,-0.62524c0.38905,0.29353 0.47137,1.66696 0.52536,2.24917l-0.07856,0.09093l0.05333,0.00999l-0.28286,0.75541c-0.08799,0.2562 -0.40319,0.44746 -0.77099,0.44746c0,0 -0.02221,0.57532 -0.79508,0.57532z" fill="#ffffff" stroke="none" stroke-width="0.5" stroke-linecap="butt"/></g></g></svg>