<svg version="1.1" xmlns="http://www.w3.org/2000/svg" xmlns:xlink="http://www.w3.org/1999/xlink" width="213.18203" height="280.18476" viewBox="0,0,213.18203,280.18476"><defs><radialGradient cx="288.4192" cy="193.62774" r="23.48066" gradientUnits="userSpaceOnUse" id="color-1"><stop offset="0" stop-color="#ffffff"/><stop offset="1" stop-color="#ff8484"/></radialGradient><radialGradient cx="354.09361" cy="178.48979" r="23.48066" gradientUnits="userSpaceOnUse" id="color-2"><stop offset="0" stop-color="#ffffff"/><stop offset="1" stop-color="#ff8484"/></radialGradient></defs><g transform="translate(-214.78369,-38.88751)"><g stroke-miterlimit="10"><g stroke-width="0" stroke-linecap="butt"><g stroke="#000000"><path d="M311.06994,219.70337c-9.04684,-0.03901 -9.02635,-4.78897 -9.02635,-4.78897l0.02913,-2.70475c-0.19319,-0.80249 -0.38639,-1.60498 -0.57958,-2.40747c-1.73804,-8.56317 2.93503,-16.81523 1.96862,-25.25347c-0.57161,-4.99107 -2.45699,-10.95256 -4.19884,-15.66525c-1.89418,-5.12479 -6.06876,-9.51854 -6.47093,-14.79428c-0.42879,-5.62509 6.87614,-9.93048 6.40497,-15.18777c0,0 0.02048,-4.74996 9.06732,-4.71095c9.04684,0.03901 9.02635,4.78897 9.02635,4.78897c-0.08751,1.58564 0.36216,3.20655 -0.26252,4.7569c-1.13984,2.82889 -4.93833,5.21203 -6.27121,8.01699c-1.31051,2.75791 1.53052,6.37569 2.90175,8.8764c2.87797,5.2485 4.50676,10.67081 5.99397,16.07232c1.0046,3.64871 2.23949,7.19479 1.85867,10.89204c-0.7361,7.14667 -3.5727,13.96938 -2.04446,21.17183c0.22238,0.9771 0.44477,1.95419 0.66715,2.93128l0.00328,3.2952c0,0 -0.02048,4.74996 -9.06733,4.71095z" fill="#39940f"/><path d="M326.11686,220.76187c-8.39218,-1.8003 -5.01325,-6.19604 -5.01325,-6.19604l0.62225,0.10011c0.00772,-0.92111 0.01544,-1.8422 0.02316,-2.76331c-1.68103,-8.86517 -6.45446,-17.60477 -6.87025,-26.54106c-0.28188,-6.05828 0.52679,-10.06937 -0.51706,-15.84986c-1.20408,-6.66771 -4.2456,-13.25692 -5.03872,-19.97051c-0.54013,-4.57197 0.57813,-9.11849 -0.51989,-13.67588c0,0 -1.1018,-4.71811 7.87772,-5.26856c8.97952,-0.55045 10.08132,4.16767 10.08132,4.16767c1.09085,4.79317 0.05871,9.53254 0.62911,14.32934c0.77553,6.5218 3.78825,12.92676 4.94953,19.40626c1.23305,6.87993 0.30225,9.15099 0.61325,16.48865c0.37755,8.90798 5.24939,17.66757 6.86826,26.51867c-0.00091,1.07888 -0.00181,2.15775 -0.00273,3.23663l-1.93159,3.42248c0,0 -3.37893,4.39573 -11.7711,2.59543z" fill="#448f21"/><path d="M319.81551,215.99105l0.03169,-3.29505c0.2308,-0.97514 0.4616,-1.95028 0.6924,-2.92542c1.59029,-7.189 -1.18737,-14.03592 -1.86181,-21.18868c-0.34892,-3.70039 0.91652,-7.23571 1.95253,-10.8756c1.53374,-5.38848 3.20924,-10.79654 6.13236,-16.02003c1.39275,-2.4888 4.26488,-6.08194 2.97819,-8.85105c-1.30864,-2.81635 -5.08643,-5.23216 -6.20183,-8.07078c-0.61129,-1.55568 -0.14766,-3.17267 -0.22149,-4.75899c0,0 0.02048,-4.74996 9.06732,-4.71095c9.04685,0.03901 9.02636,4.78897 9.02636,4.78897c-0.51651,5.25303 6.75104,9.62125 6.27374,15.24244c-0.44765,5.27208 -4.65997,9.62968 -6.59827,14.73793c-1.78243,4.6975 -3.71915,10.6425 -4.33378,15.62846c-1.03914,8.42959 3.56259,16.72164 1.75076,25.2695c-0.2001,0.80079 -0.40023,1.60159 -0.60033,2.40238l0.00581,2.7049c0,0 -0.02048,4.74996 -9.06732,4.71095c-9.04684,-0.03901 -9.02635,-4.78897 -9.02635,-4.78897z" fill="#39940f"/><path d="M342.75588,217.41823l0.59805,-2.13166c0.39254,-1.97667 0.61831,-3.96619 0.62688,-5.95476c-0.62545,-3.34433 -1.32138,-8.41483 -2.86809,-11.77076c-2.42615,-5.2641 -5.4686,-9.48835 -5.91024,-15.00129c-0.48256,-6.02374 2.45513,-11.54402 3.26683,-17.49212c1.36209,-9.98132 -3.0595,-18.80781 -6.70815,-28.42758c0,0 -1.75415,-4.66537 7.12103,-5.55866c8.87517,-0.89329 10.62932,3.77207 10.62932,3.77207c1.36618,3.67053 3.91892,7.15182 5.08559,10.84163c2.05404,6.49627 2.80265,13.57189 1.91747,20.1238c-0.7579,5.60968 -3.61816,10.82778 -3.22844,16.48019c0.33625,4.87698 3.27124,8.35195 5.39661,13.04771c1.96624,4.34417 2.55499,9.17919 3.37132,13.58971c-0.01061,2.46141 -0.23097,4.92536 -0.70034,7.37297l-0.69181,2.52948c0,0 -1.29969,4.6967 -10.2527,3.98634c-8.95302,-0.71036 -7.65333,-5.40706 -7.65333,-5.40706z" fill="#28670a"/><path d="M302.03811,219.01186l-1.902,-3.43901c0.00839,-1.07884 0.01678,-2.15769 0.02518,-3.23653c1.69515,-8.83681 6.64235,-17.55406 7.09671,-26.45845c0.37426,-7.33469 -0.53691,-9.6137 0.75542,-16.48275c1.21712,-6.46924 4.28496,-12.84798 5.1167,-19.36286c0.61175,-4.7917 -0.37949,-9.53979 0.75266,-14.32338c0,0 1.14244,-4.70844 10.11688,-4.08057c8.97444,0.62786 7.83199,5.3363 7.83199,5.3363c-1.1373,4.54775 -0.05828,9.10374 -0.63782,13.67089c-0.851,6.70649 -3.94922,13.26923 -5.21075,19.92632c-1.09368,5.77127 -0.31961,9.78918 -0.65374,15.84481c-0.49284,8.93238 -5.34146,17.63048 -7.09888,26.48083c-0.00023,0.92114 -0.00045,1.84227 -0.00069,2.7634l0.62309,-0.09474c0,0 3.34089,4.42471 -5.0665,6.15258c-8.40739,1.72787 -11.74828,-2.69684 -11.74828,-2.69684z" fill="#448f21"/><path d="M353.43179,223.4694l0.00144,-0.33333c0.05598,-12.9831 -0.0484,-25.86966 -2.31905,-38.83023c-0.992,-5.66223 -3.96627,-11.24604 -4.41029,-16.93662c-0.80413,-10.30587 -0.64357,-20.54292 -2.38321,-30.84319c0,0 -0.79866,-4.73398 8.21288,-5.12517c9.01154,-0.3912 9.8102,4.34279 9.8102,4.34279c1.75461,10.41113 1.68312,20.7583 2.42838,31.17813c0.39466,5.51797 3.36417,10.94113 4.3341,16.43472c2.34859,13.30222 2.47812,26.53158 2.42066,39.8576l-0.00144,0.33333c0,0 -0.02048,4.74996 -9.06732,4.71095c-9.04684,-0.03901 -9.02635,-4.78897 -9.02635,-4.78897z" fill="#275313"/></g><g stroke="none"><path d="M311.06994,219.70337c-9.04684,-0.03901 -9.02635,-4.78897 -9.02635,-4.78897l0.02913,-2.70474c-0.19319,-0.80249 -0.38639,-1.60498 -0.57958,-2.40747c-1.73804,-8.56318 2.93503,-16.81523 1.96862,-25.25347c-0.57161,-4.99107 -2.45699,-10.95256 -4.19884,-15.66524c-1.89417,-5.12479 -6.06876,-9.51854 -6.47093,-14.79429c-0.42879,-5.62509 6.87614,-9.93048 6.40497,-15.18776c0,0 0.02048,-4.74996 9.06732,-4.71095c9.04684,0.03901 9.02635,4.78897 9.02635,4.78897c-0.08751,1.58564 0.36216,3.20655 -0.26252,4.7569c-1.13985,2.82889 -4.93832,5.21203 -6.27121,8.01699c-1.31051,2.75791 1.53051,6.37569 2.90175,8.8764c2.87797,5.2485 4.50677,10.67081 5.99397,16.07232c1.0046,3.6487 2.23949,7.19479 1.85867,10.89204c-0.7361,7.14667 -3.5727,13.96938 -2.04446,21.17183c0.22238,0.9771 0.44476,1.95419 0.66715,2.93128l0.00327,3.29519c0,0 -0.02048,4.74996 -9.06732,4.71095z" fill="#39940f"/><path d="M326.11686,220.76187c-8.39218,-1.8003 -5.01325,-6.19604 -5.01325,-6.19604l0.62225,0.10011c0.00771,-0.92111 0.01543,-1.8422 0.02316,-2.76331c-1.68103,-8.86517 -6.45446,-17.60477 -6.87025,-26.54106c-0.28188,-6.05828 0.52679,-10.06937 -0.51706,-15.84986c-1.20408,-6.6677 -4.2456,-13.25692 -5.03872,-19.9705c-0.54012,-4.57197 0.57814,-9.1185 -0.51989,-13.67588c0,0 -1.1018,-4.71811 7.87772,-5.26856c8.97952,-0.55046 10.08131,4.16766 10.08131,4.16766c1.09085,4.79318 0.05871,9.53254 0.62911,14.32933c0.77552,6.5218 3.78825,12.92677 4.94954,19.40626c1.23304,6.87993 0.30225,9.15099 0.61325,16.48864c0.37755,8.90798 5.24939,17.66757 6.86826,26.51867c-0.00091,1.07888 -0.00181,2.15775 -0.00273,3.23663l-1.93158,3.42248c0,0 -3.37893,4.39573 -11.7711,2.59543z" fill="#448f21"/><path d="M319.81551,215.99105l0.03169,-3.29504c0.2308,-0.97514 0.46159,-1.95028 0.6924,-2.92542c1.59029,-7.18901 -1.18737,-14.03593 -1.8618,-21.18868c-0.34892,-3.70039 0.91651,-7.23571 1.95253,-10.8756c1.53373,-5.38848 3.20923,-10.79654 6.13236,-16.02003c1.39275,-2.4888 4.26489,-6.08194 2.97819,-8.85105c-1.30864,-2.81635 -5.08643,-5.23216 -6.20184,-8.07078c-0.61129,-1.55568 -0.14766,-3.17267 -0.22149,-4.75899c0,0 0.02048,-4.74996 9.06732,-4.71095c9.04684,0.03901 9.02635,4.78897 9.02635,4.78897c-0.51651,5.25303 6.75104,9.62126 6.27375,15.24243c-0.44765,5.27209 -4.65998,9.62968 -6.59827,14.73794c-1.78243,4.69749 -3.71915,10.64249 -4.33378,15.62845c-1.03914,8.42959 3.56259,16.72164 1.75076,25.2695c-0.2001,0.80079 -0.40022,1.60159 -0.60032,2.40238l0.00581,2.70489c0,0 -0.02048,4.74996 -9.06732,4.71095c-9.04684,-0.03901 -9.02635,-4.78897 -9.02635,-4.78897z" fill="#39940f"/><path d="M342.75588,217.41823l0.59805,-2.13167c0.39254,-1.97667 0.61831,-3.96619 0.62688,-5.95476c-0.62545,-3.34434 -1.32138,-8.41483 -2.86808,-11.77076c-2.42615,-5.26411 -5.4686,-9.48836 -5.91024,-15.0013c-0.48256,-6.02373 2.45513,-11.54402 3.26683,-17.49212c1.36209,-9.98132 -3.0595,-18.80781 -6.70814,-28.42758c0,0 -1.75415,-4.66537 7.12103,-5.55866c8.87517,-0.89329 10.62932,3.77207 10.62932,3.77207c1.36618,3.67053 3.91892,7.15182 5.08559,10.84163c2.05404,6.49627 2.80265,13.57189 1.91747,20.1238c-0.7579,5.60968 -3.61816,10.82778 -3.22844,16.48019c0.33626,4.87699 3.27123,8.35195 5.39661,13.04771c1.96624,4.34417 2.55499,9.17919 3.37133,13.58971c-0.01061,2.4614 -0.23097,4.92536 -0.70034,7.37297l-0.69181,2.52948c0,0 -1.29969,4.6967 -10.2527,3.98634c-8.95302,-0.71036 -7.65333,-5.40706 -7.65333,-5.40706z" fill="#54660a"/><path d="M302.03811,219.01186l-1.90199,-3.43901c0.00839,-1.07884 0.01679,-2.15769 0.02519,-3.23653c1.69514,-8.83681 6.64235,-17.55406 7.09671,-26.45845c0.37426,-7.33469 -0.53692,-9.6137 0.75542,-16.48274c1.21711,-6.46924 4.28496,-12.84798 5.11671,-19.36286c0.61175,-4.7917 -0.37949,-9.53979 0.75266,-14.32338c0,0 1.14244,-4.70844 10.11688,-4.08056c8.97444,0.62786 7.83199,5.3363 7.83199,5.3363c-1.1373,4.54774 -0.05829,9.10374 -0.63782,13.67089c-0.851,6.70649 -3.94922,13.26923 -5.21076,19.92631c-1.09367,5.77127 -0.31961,9.78919 -0.65373,15.84481c-0.49285,8.93238 -5.34146,17.63048 -7.09888,26.48083c-0.00023,0.92114 -0.00045,1.84227 -0.00068,2.7634l0.62309,-0.09474c0,0 3.34089,4.42471 -5.0665,6.15258c-8.40739,1.72787 -11.74828,-2.69684 -11.74828,-2.69684z" fill="#448f21"/><path d="M353.43179,223.4694l0.00144,-0.33333c0.05598,-12.9831 -0.0484,-25.86966 -2.31906,-38.83023c-0.99201,-5.66223 -3.96627,-11.24604 -4.41028,-16.93662c-0.80413,-10.30587 -0.64357,-20.54292 -2.38321,-30.84319c0,0 -0.79866,-4.73398 8.21288,-5.12517c9.01154,-0.3912 9.81019,4.34279 9.81019,4.34279c1.75461,10.41114 1.68313,20.7583 2.42838,31.17813c0.39466,5.51796 3.36417,10.94113 4.3341,16.43472c2.34859,13.30222 2.47813,26.53158 2.42067,39.8576l-0.00144,0.33333c0,0 -0.02048,4.74996 -9.06732,4.71095c-9.04684,-0.03901 -9.02635,-4.78897 -9.02635,-4.78897z" fill="#544e13"/></g></g><path d="M214.78369,306.61252v-267.72501c0,0 153.66918,0 187.45214,0c12.51617,0 25.72989,0 25.72989,0v267.72501z" fill="none" stroke="none" stroke-width="0" stroke-linecap="butt"/><g stroke-linecap="butt"><path d="M286.35186,319.07226l15.14285,-131.8421l37.78325,-0.15789l13.57389,132z" fill="#4cc114" stroke="#000000" stroke-width="0"/><path d="M294.36074,249.34246c2.44674,-21.30271 7.13397,-62.1123 7.13397,-62.1123l37.78325,-0.15789c0,0 4.24137,41.24545 6.4436,62.66116c0.0147,0.14299 -51.38554,-0.17575 -51.36082,-0.39097z" fill="#70b012" stroke="#000000" stroke-width="0"/><path d="M295.90586,235.88976c2.11119,-18.38116 5.58885,-48.6596 5.58885,-48.6596l37.78325,-0.15789c0,0 3.16673,30.79505 5.07534,49.35543c0.00135,0.01317 -48.45209,-0.49745 -48.44744,-0.53793z" fill="#84930f" stroke="#000000" stroke-width="0"/><path d="M297.80388,219.3646l3.69083,-32.13444l37.78325,-0.15789l3.28963,31.99021z" fill="#7a6c00" stroke="#000000" stroke-width="0"/><path d="M298.59344,221.41986c0,-0.21325 0.0534,-0.41403 0.14756,-0.58969c-0.46319,-0.31484 -0.76744,-0.84606 -0.76744,-1.44834c0,-0.9665 0.7835,-1.75 1.75,-1.75c0.95734,0 1.73514,0.76873 1.74979,1.72258c0.21187,-0.16514 0.47834,-0.26351 0.76778,-0.26351c0.08306,0 0.16423,0.0081 0.24276,0.02356c0.21741,-0.7192 0.88525,-1.24286 1.67539,-1.24286c0.84394,0 1.54835,0.59739 1.71343,1.39238c0.21736,-0.18282 0.49789,-0.29296 0.80414,-0.29296c0.69036,0 1.25,0.55964 1.25,1.25c0,0.69036 -0.55964,1.25 -1.25,1.25c-0.51569,0 -0.95845,-0.31228 -1.14948,-0.75806c-0.32067,0.40145 -0.81434,0.65864 -1.36809,0.65864c-0.34123,0 -0.65965,-0.09766 -0.92883,-0.26656c-0.22862,0.29556 -0.58674,0.48587 -0.98932,0.48587c-0.61327,0 -1.12339,-0.44164 -1.22966,-1.02423c-0.04485,0.04873 -0.09243,0.0949 -0.1425,0.13829c0.14149,0.20259 0.22448,0.44905 0.22448,0.71491c0,0.69036 -0.55964,1.25 -1.25,1.25c-0.69036,0 -1.25,-0.55964 -1.25,-1.25z" fill="#7a6c00" stroke="none" stroke-width="0.5"/><path d="M313.42104,221.18009c0,0.41421 -0.33579,0.75 -0.75,0.75c-0.28123,0 -0.52631,-0.15479 -0.65468,-0.38382c-0.23582,0.11835 -0.50209,0.18498 -0.78392,0.18498c-0.49496,0 -0.94193,-0.20549 -1.26025,-0.5358c-0.09557,0.0234 -0.19546,0.0358 -0.29824,0.0358c-0.69036,0 -1.25,-0.55964 -1.25,-1.25c0,-0.69036 0.55964,-1.25 1.25,-1.25c0.10278,0 0.20267,0.01241 0.29824,0.0358c0.31832,-0.33032 0.76529,-0.5358 1.26025,-0.5358c0.9665,0 1.75,0.7835 1.75,1.75c0,0.16966 -0.02414,0.33368 -0.06918,0.48881c0.29536,0.10073 0.50779,0.38057 0.50779,0.71003z" fill="#7a6c00" stroke="none" stroke-width="0.5"/><path d="M320.41235,220.94032c0,-0.58465 0.40138,-1.07555 0.9436,-1.21217c0.06807,-0.90426 0.82333,-1.61678 1.74501,-1.61678c0.64443,0 1.20751,0.34833 1.51122,0.86699c0.81745,0.1473 1.43762,0.86232 1.43762,1.7222c0,0.9665 -0.7835,1.75 -1.75,1.75c-0.64443,0 -1.20751,-0.34833 -1.51122,-0.86699c-0.01627,-0.00293 -0.03247,-0.00609 -0.04858,-0.00947c-0.21735,0.36878 -0.6186,0.61623 -1.07765,0.61623c-0.69036,0 -1.25,-0.55964 -1.25,-1.25z" fill="#7a6c00" stroke="none" stroke-width="0.5"/><path d="M334.19902,222.37893c0,-0.61792 0.44836,-1.13111 1.0375,-1.23201c-0.46681,-0.18125 -0.79773,-0.63481 -0.79773,-1.16567c0,-0.69036 0.55964,-1.25 1.25,-1.25c0.15358,0 0.30069,0.0277 0.43661,0.07837c0.30983,-0.49156 0.85754,-0.81814 1.48153,-0.81814c0.75535,0 1.39893,0.47856 1.64408,1.14902c0.16645,-0.79319 0.87001,-1.38879 1.71268,-1.38879c0.9665,0 1.75,0.7835 1.75,1.75c0,0.9665 -0.7835,1.75 -1.75,1.75c-0.75535,0 -1.39893,-0.47856 -1.64408,-1.14902c-0.16645,0.79319 -0.87001,1.38879 -1.71268,1.38879c-0.46772,0 -0.89259,-0.18349 -1.20654,-0.48242c-0.14663,0.10171 -0.31607,0.17285 -0.4991,0.2042c0.46681,0.18125 0.79773,0.63481 0.79773,1.16567c0,0.69036 -0.55964,1.25 -1.25,1.25c-0.69036,0 -1.25,-0.55964 -1.25,-1.25z" fill="#7a6c00" stroke="none" stroke-width="0.5"/><path d="M325.90656,219.50171c0,-0.9665 0.7835,-1.75 1.75,-1.75c0.9665,0 1.75,0.7835 1.75,1.75c0,0.9665 -0.7835,1.75 -1.75,1.75c-0.9665,0 -1.75,-0.7835 -1.75,-1.75z" fill="#7a6c00" stroke="none" stroke-width="0.5"/><path d="M313.19884,218.90229c0,-0.9665 0.7835,-1.75 1.75,-1.75c0.9665,0 1.75,0.7835 1.75,1.75c0,0.9665 -0.7835,1.75 -1.75,1.75c-0.9665,0 -1.75,-0.7835 -1.75,-1.75z" fill="#7a6c00" stroke="none" stroke-width="0.5"/><path d="M329.76331,220.58067c0,-0.63528 0.47391,-1.15988 1.08749,-1.23953c-0.01905,-0.10342 -0.029,-0.21003 -0.029,-0.31896c0,-0.9665 0.7835,-1.75 1.75,-1.75c0.9665,0 1.75,0.7835 1.75,1.75c0,0.9665 -0.7835,1.75 -1.75,1.75c-0.10893,0 -0.21554,-0.00995 -0.31896,-0.029c-0.07966,0.61358 -0.60425,1.08749 -1.23953,1.08749c-0.69036,0 -1.25,-0.55964 -1.25,-1.25z" fill="#7a6c00" stroke="none" stroke-width="0.5"/><path d="M318.25444,224.8965c0,-0.69036 0.55964,-1.25 1.25,-1.25c0.69036,0 1.25,0.55964 1.25,1.25c0,0.69036 -0.55964,1.25 -1.25,1.25c-0.69036,0 -1.25,-0.55964 -1.25,-1.25z" fill="#7a6c00" stroke="none" stroke-width="0.5"/><path d="M306.02626,224.8965c0,-0.69036 0.55964,-1.25 1.25,-1.25c0.69036,0 1.25,0.55964 1.25,1.25c0,0.69036 -0.55964,1.25 -1.25,1.25c-0.69036,0 -1.25,-0.55964 -1.25,-1.25z" fill="#7a6c00" stroke="none" stroke-width="0.5"/><path d="M317.53513,218.90229c0,-0.69036 0.55964,-1.25 1.25,-1.25c0.69036,0 1.25,0.55964 1.25,1.25c0,0.69036 -0.55964,1.25 -1.25,1.25c-0.69036,0 -1.25,-0.55964 -1.25,-1.25z" fill="#7a6c00" stroke="none" stroke-width="0.5"/><path d="M302.4502,228.85267c0,-0.41421 0.33579,-0.75 0.75,-0.75c0.41421,0 0.75,0.33579 0.75,0.75c0,0.41421 -0.33579,0.75 -0.75,0.75c-0.41421,0 -0.75,-0.33579 -0.75,-0.75z" fill="#7a6c00" stroke="none" stroke-width="0.5"/><path d="M311.92104,227.65383c0,-0.41421 0.33579,-0.75 0.75,-0.75c0.41421,0 0.75,0.33579 0.75,0.75c0,0.41421 -0.33579,0.75 -0.75,0.75c-0.41421,0 -0.75,-0.33579 -0.75,-0.75z" fill="#7a6c00" stroke="none" stroke-width="0.5"/><path d="M321.75154,227.41406c0,-0.41421 0.33579,-0.75 0.75,-0.75c0.41421,0 0.75,0.33579 0.75,0.75c0,0.41421 -0.33579,0.75 -0.75,0.75c-0.41421,0 -0.75,-0.33579 -0.75,-0.75z" fill="#7a6c00" stroke="none" stroke-width="0.5"/><path d="M327.14633,223.45789c0,-0.41421 0.33579,-0.75 0.75,-0.75c0.41421,0 0.75,0.33579 0.75,0.75c0,0.41421 -0.33579,0.75 -0.75,0.75c-0.41421,0 -0.75,-0.33579 -0.75,-0.75z" fill="#7a6c00" stroke="none" stroke-width="0.5"/><path d="M336.13763,226.69476c0,-0.41421 0.33579,-0.75 0.75,-0.75c0.41421,0 0.75,0.33579 0.75,0.75c0,0.41421 -0.33579,0.75 -0.75,0.75c-0.41421,0 -0.75,-0.33579 -0.75,-0.75z" fill="#7a6c00" stroke="none" stroke-width="0.5"/><path d="M339.85404,231.96966c0,-0.41421 0.33579,-0.75 0.75,-0.75c0.41421,0 0.75,0.33579 0.75,0.75c0,0.41421 -0.33579,0.75 -0.75,0.75c-0.41421,0 -0.75,-0.33579 -0.75,-0.75z" fill="#7a6c00" stroke="none" stroke-width="0.5"/><path d="M299.07298,237.7241c0,-0.07083 0.00589,-0.14028 0.01721,-0.2079c-0.05402,-0.04456 -0.10531,-0.0923 -0.15361,-0.14293c-0.32059,0.4035 -0.81555,0.66222 -1.37094,0.66222c-0.9665,0 -1.75,-0.7835 -1.75,-1.75c0,-0.9665 0.7835,-1.75 1.75,-1.75c0.49822,0 0.94781,0.2082 1.26651,0.54233c0.32059,-0.4035 0.81555,-0.66222 1.37094,-0.66222c0.9665,0 1.75,0.7835 1.75,1.75c0,0.44709 -0.16766,0.85501 -0.44353,1.16434c0.04114,0.12391 0.06341,0.25643 0.06341,0.39415c0,0.69036 -0.55964,1.25 -1.25,1.25c-0.69036,0 -1.25,-0.55964 -1.25,-1.25z" fill="#84930f" stroke="none" stroke-width="0.5"/><path d="M341.92277,239.81329c-0.53513,0 -0.99172,-0.33627 -1.17,-0.80903c-0.42499,-0.31928 -0.69989,-0.82756 -0.69989,-1.40004c0,-0.53481 0.2399,-1.01358 0.61796,-1.33458c0.12372,-0.84533 0.8518,-1.49438 1.73146,-1.49438c0.51375,0 0.97579,0.22138 1.29594,0.57395c0.35257,0.32014 0.57395,0.78219 0.57395,1.29594c0,0.61364 -0.31584,1.15352 -0.79383,1.46593c-0.06597,0.21837 -0.17347,0.41872 -0.3133,0.59187c-0.06944,0.62462 -0.59914,1.11035 -1.24229,1.11035z" fill="#84930f" stroke="none" stroke-width="0.5"/><path d="M337.48705,235.63491c0.69036,0 1.25,0.55964 1.25,1.25c0,0.69036 -0.55964,1.25 -1.25,1.25c-0.16961,0 -0.33133,-0.03378 -0.4788,-0.09498c-0.28964,0.56668 -0.87913,0.95463 -1.55923,0.95463c-0.40263,0 -0.7735,-0.13597 -1.0692,-0.3645c-0.31415,0.30009 -0.73985,0.48438 -1.2086,0.48438c-0.9665,0 -1.75,-0.7835 -1.75,-1.75c0,-0.81102 0.5517,-1.49318 1.30027,-1.69167c0.29925,-0.53547 0.87169,-0.89752 1.52868,-0.89752c0.58756,0 1.10749,0.28956 1.42487,0.73377c0.3713,0.04788 0.70613,0.21213 0.96675,0.45498c0.22252,-0.20435 0.51932,-0.3291 0.84526,-0.3291z" fill="#84930f" stroke="none" stroke-width="0.5"/><path d="M327.6054,239.16271c0,-0.17607 0.0364,-0.34364 0.10209,-0.49559c-0.24621,-0.08119 -0.46825,-0.21556 -0.65253,-0.3895c-0.32076,0.36598 -0.79167,0.59706 -1.31655,0.59706c-0.39881,0 -0.76646,-0.1334 -1.06076,-0.35802c0.02156,0.09197 0.03296,0.18785 0.03296,0.2864c0,0.69036 -0.55964,1.25 -1.25,1.25c-0.69036,0 -1.25,-0.55964 -1.25,-1.25c0,-0.32604 0.12483,-0.62292 0.32929,-0.84547c-0.16367,0.05064 -0.3376,0.0779 -0.5179,0.0779c-0.03864,0 -0.07699,-0.00125 -0.11501,-0.00372c-0.28814,0.57111 -0.88001,0.96279 -1.56337,0.96279c-0.15514,0 -0.30557,-0.02019 -0.4488,-0.05808c0.01341,0.07337 0.02042,0.14898 0.02042,0.22623c0,0.69036 -0.55964,1.25 -1.25,1.25c-0.69036,0 -1.25,-0.55964 -1.25,-1.25c0,-0.69036 0.55964,-1.25 1.25,-1.25c0.02047,0 0.04083,0.00049 0.06106,0.00147c-0.08549,-0.20627 -0.13268,-0.43243 -0.13268,-0.66961c0,-0.9665 0.7835,-1.75 1.75,-1.75c0.03864,0 0.07699,0.00125 0.11501,0.00372c0.28814,-0.57111 0.88001,-0.96279 1.56337,-0.96279c0.9665,0 1.75,0.7835 1.75,1.75c0,0.51323 -0.22093,0.97485 -0.57287,1.29496c0.08433,-0.01795 0.1718,-0.02739 0.26148,-0.02739c0.23123,0 0.4478,0.06279 0.63359,0.17224c-0.06844,-0.18732 -0.10579,-0.38961 -0.10579,-0.60062c0,-0.9665 0.7835,-1.75 1.75,-1.75c0.26984,0 0.52541,0.06107 0.75365,0.17015c0.30047,-0.53104 0.87045,-0.88945 1.52415,-0.88945c0.85055,0 1.55938,0.60679 1.71721,1.4111c0.17258,0.27117 0.27256,0.59307 0.27256,0.93832c0,0.43602 -0.15946,0.8348 -0.42324,1.14119c0.31647,0.2268 0.52266,0.59768 0.52266,1.01672c0,0.69036 -0.55964,1.25 -1.25,1.25c-0.69036,0 -1.25,-0.55964 -1.25,-1.25z" fill="#84930f" stroke="none" stroke-width="0.5"/><path d="M307.34498,238.92294c0,-0.69036 0.55964,-1.25 1.25,-1.25c0.08968,0 0.17715,0.00944 0.26148,0.02739c-0.35194,-0.32011 -0.57287,-0.78173 -0.57287,-1.29496c0,-0.9665 0.7835,-1.75 1.75,-1.75c0.18546,0 0.36419,0.02885 0.53193,0.08231c0.32002,-0.41465 0.82193,-0.68173 1.38622,-0.68173c0.9665,0 1.75,0.7835 1.75,1.75c0,0.9665 -0.7835,1.75 -1.75,1.75c-0.18546,0 -0.36419,-0.02885 -0.53193,-0.08231c-0.32002,0.41465 -0.82193,0.68173 -1.38622,0.68173c-0.1803,0 -0.35424,-0.02727 -0.5179,-0.0779c0.20447,0.22255 0.32929,0.51943 0.32929,0.84547c0,0.69036 -0.55964,1.25 -1.25,1.25c-0.69036,0 -1.25,-0.55964 -1.25,-1.25z" fill="#84930f" stroke="none" stroke-width="0.5"/><path d="M306.48823,237.24456c0,0.69036 -0.55964,1.25 -1.25,1.25c-0.33427,0 -0.6379,-0.13121 -0.86219,-0.34494c-0.89967,-0.0727 -1.60712,-0.82586 -1.60712,-1.74425c0,-0.78072 0.51124,-1.44203 1.21721,-1.66742c0.18208,-0.12935 0.38997,-0.22473 0.61444,-0.27692c0.3209,-0.39354 0.80958,-0.64485 1.35696,-0.64485c0.9665,0 1.75,0.7835 1.75,1.75c0,0.78151 -0.51227,1.44336 -1.21935,1.6681c0.00003,0.00342 0.00004,0.00685 0.00004,0.01028z" fill="#84930f" stroke="none" stroke-width="0.5"/><path d="M314.03803,236.40537c0,-0.9665 0.7835,-1.75 1.75,-1.75c0.9665,0 1.75,0.7835 1.75,1.75c0,0.9665 -0.7835,1.75 -1.75,1.75c-0.9665,0 -1.75,-0.7835 -1.75,-1.75z" fill="#84930f" stroke="none" stroke-width="0.5"/><path d="M310.82162,241.56039c0,-0.69036 0.55964,-1.25 1.25,-1.25c0.69036,0 1.25,0.55964 1.25,1.25c0,0.69036 -0.55964,1.25 -1.25,1.25c-0.69036,0 -1.25,-0.55964 -1.25,-1.25z" fill="#84930f" stroke="none" stroke-width="0.5"/><path d="M318.54536,241.05016c0.41421,0 0.75,0.33579 0.75,0.75c0,0.41421 -0.33579,0.75 -0.75,0.75c-0.18039,0 -0.34591,-0.06369 -0.47529,-0.1698c-0.14823,0.52491 -0.63074,0.90957 -1.20308,0.90957c-0.69036,0 -1.25,-0.55964 -1.25,-1.25c0,-0.69036 0.55964,-1.25 1.25,-1.25c0.44657,0 0.83844,0.23417 1.05952,0.58642c0.13516,-0.19698 0.36192,-0.32619 0.61886,-0.32619z" fill="#84930f" stroke="none" stroke-width="0.5"/><path d="M333.23995,241.44051c0,-0.69036 0.55964,-1.25 1.25,-1.25c0.69036,0 1.25,0.55964 1.25,1.25c0,0.69036 -0.55964,1.25 -1.25,1.25c-0.69036,0 -1.25,-0.55964 -1.25,-1.25z" fill="#84930f" stroke="none" stroke-width="0.5"/><path d="M301.13147,241.80016c0,-0.41421 0.33579,-0.75 0.75,-0.75c0.41421,0 0.75,0.33579 0.75,0.75c0,0.41421 -0.33579,0.75 -0.75,0.75c-0.41421,0 -0.75,-0.33579 -0.75,-0.75z" fill="#84930f" stroke="none" stroke-width="0.5"/><path d="M310.84209,244.91714c0,-0.41421 0.33579,-0.75 0.75,-0.75c0.41421,0 0.75,0.33579 0.75,0.75c0,0.41421 -0.33579,0.75 -0.75,0.75c-0.41421,0 -0.75,-0.33579 -0.75,-0.75z" fill="#84930f" stroke="none" stroke-width="0.5"/><path d="M317.31583,246.71541c0,-0.41421 0.33579,-0.75 0.75,-0.75c0.41421,0 0.75,0.33579 0.75,0.75c0,0.41421 -0.33579,0.75 -0.75,0.75c-0.41421,0 -0.75,-0.33579 -0.75,-0.75z" fill="#84930f" stroke="none" stroke-width="0.5"/><path d="M325.1083,243.47853c0,-0.41421 0.33579,-0.75 0.75,-0.75c0.41421,0 0.75,0.33579 0.75,0.75c0,0.41421 -0.33579,0.75 -0.75,0.75c-0.41421,0 -0.75,-0.33579 -0.75,-0.75z" fill="#84930f" stroke="none" stroke-width="0.5"/><path d="M330.62296,245.51656c0,-0.41421 0.33579,-0.75 0.75,-0.75c0.41421,0 0.75,0.33579 0.75,0.75c0,0.41421 -0.33579,0.75 -0.75,0.75c-0.41421,0 -0.75,-0.33579 -0.75,-0.75z" fill="#84930f" stroke="none" stroke-width="0.5"/><path d="M339.85404,247.31483c0,-0.41421 0.33579,-0.75 0.75,-0.75c0.41421,0 0.75,0.33579 0.75,0.75c0,0.41421 -0.33579,0.75 -0.75,0.75c-0.41421,0 -0.75,-0.33579 -0.75,-0.75z" fill="#84930f" stroke="none" stroke-width="0.5"/><path d="M342.4023,252.28123c-0.2096,0 -0.40716,-0.05159 -0.58066,-0.14276c-0.33723,0.25916 -0.75942,0.41323 -1.2176,0.41323c-0.87907,0 -1.62567,-0.56714 -1.89388,-1.35548c-0.36508,0.39143 -0.8854,0.63618 -1.46288,0.63618c-1.10457,0 -2,-0.89543 -2,-2c0,-1.10457 0.89543,-2 2,-2c0.87907,0 1.62567,0.56714 1.89388,1.35548c0.36508,-0.39143 0.8854,-0.63618 1.46288,-0.63618c0.59656,0 1.13212,0.26119 1.49855,0.67545c0.36644,-0.41426 0.90199,-0.67545 1.49855,-0.67545c1.10457,0 2,0.89543 2,2c0,1.10457 -0.89543,2 -2,2c-0.37476,0 -0.72544,-0.10307 -1.02525,-0.28242c-0.05673,0.00788 -0.11469,0.01196 -0.17359,0.01196z" fill="#70b012" stroke="none" stroke-width="0.5"/><path d="M327.36563,250.43181c0,-0.69036 0.55964,-1.25 1.25,-1.25c0.11675,0 0.22975,0.016 0.33695,0.04594c0.21667,-0.87034 1.00345,-1.51524 1.94085,-1.51524c0.71327,0 1.33932,0.37338 1.69338,0.93534c0.80396,0.25927 1.38557,1.01364 1.38557,1.90385c0,1.10457 -0.89543,2 -2,2c-0.71327,0 -1.33932,-0.37338 -1.69338,-0.93534c-0.25909,-0.08355 -0.49508,-0.21852 -0.69596,-0.39289c-0.22924,0.2798 -0.57747,0.45835 -0.96741,0.45835c-0.69036,0 -1.25,-0.55964 -1.25,-1.25z" fill="#70b012" stroke="none" stroke-width="0.5"/><path d="M313.45907,251.51077c0,-0.09118 0.00976,-0.18007 0.0283,-0.2657c-0.36205,0.36283 -0.86268,0.58732 -1.41575,0.58732c-0.52176,0 -0.99685,-0.19979 -1.35295,-0.52705c-0.06687,0.01106 -0.13554,0.01682 -0.20555,0.01682c-0.35272,0 -0.67132,-0.14609 -0.89859,-0.38107c-0.34419,0.60397 -0.99397,1.01119 -1.73886,1.01119c-1.08612,0 -1.97002,-0.86576 -1.99925,-1.94482c-0.1675,0.79409 -0.80613,1.41451 -1.60979,1.55515c-0.33189,0.24491 -0.7422,0.38967 -1.18632,0.38967c-0.62742,0 -1.18736,-0.28891 -1.55405,-0.74095c-0.20424,0.14529 -0.45402,0.23072 -0.72375,0.23072c-0.23374,0 -0.45249,-0.06415 -0.63961,-0.17581c-0.33884,0.62291 -0.99908,1.04569 -1.75807,1.04569c-0.53524,0 -1.02138,-0.21026 -1.38032,-0.55268c-0.17113,0.04766 -0.3515,0.07314 -0.53783,0.07314c-1.10457,0 -2,-0.89543 -2,-2c0,-1.10457 0.89543,-2 2,-2c0.53524,0 1.02138,0.21026 1.38032,0.55268c0.17113,-0.04766 0.3515,-0.07314 0.53783,-0.07314c0.68754,0 1.29406,0.34693 1.65403,0.87529c0.20782,-0.15406 0.4651,-0.24517 0.74365,-0.24517c0.17601,0 0.34352,0.03638 0.49542,0.10202c0.2805,-0.54938 0.80753,-0.95192 1.43524,-1.06177c0.33189,-0.24491 0.7422,-0.38967 1.18632,-0.38967c1.08612,0 1.97002,0.86576 1.99925,1.94482c0.06,-0.28447 0.18047,-0.54665 0.34732,-0.77247c-0.00003,-0.00384 -0.00005,-0.00768 -0.00005,-0.01153c0,-0.69036 0.55964,-1.25 1.25,-1.25c0.44005,0 0.827,0.22739 1.04974,0.57109c0.50293,0.18489 0.91102,0.56606 1.13142,1.05065c0.17724,-0.15286 0.39786,-0.2568 0.64089,-0.29086c0.34553,-0.59887 0.99247,-1.00193 1.73355,-1.00193c1.10457,0 2,0.89543 2,2c0,0.24022 -0.04235,0.47054 -0.11999,0.68392c0.21018,-0.16033 0.47269,-0.25554 0.75744,-0.25554c0.10619,0 0.20929,0.01324 0.30773,0.03816c-0.01968,-0.1126 -0.02993,-0.22843 -0.02993,-0.34666c0,-1.10457 0.89543,-2 2,-2c1.10457,0 2,0.89543 2,2c0,1.10457 -0.89543,2 -2,2c-0.37964,0 -0.73458,-0.10578 -1.03695,-0.28947c-0.07501,0.61865 -0.60196,1.09797 -1.24085,1.09797c-0.69036,0 -1.25,-0.55964 -1.25,-1.25z" fill="#70b012" stroke="none" stroke-width="0.5"/><path d="M301.59055,254.38799c0,-0.69036 0.55964,-1.25 1.25,-1.25c0.69036,0 1.25,0.55964 1.25,1.25c0,0.69036 -0.55964,1.25 -1.25,1.25c-0.69036,0 -1.25,-0.55964 -1.25,-1.25z" fill="#70b012" stroke="none" stroke-width="0.5"/><path d="M303.74846,252.94938c0,-0.69036 0.55964,-1.25 1.25,-1.25c0.69036,0 1.25,0.55964 1.25,1.25c0,0.69036 -0.55964,1.25 -1.25,1.25c-0.69036,0 -1.25,-0.55964 -1.25,-1.25z" fill="#70b012" stroke="none" stroke-width="0.5"/><path d="M316.57606,253.78857c0,-0.69036 0.55964,-1.25 1.25,-1.25c0.69036,0 1.25,0.55964 1.25,1.25c0,0.69036 -0.55964,1.25 -1.25,1.25c-0.69036,0 -1.25,-0.55964 -1.25,-1.25z" fill="#70b012" stroke="none" stroke-width="0.5"/><path d="M325.78957,251.39089c0,0.69036 -0.55964,1.25 -1.25,1.25c-0.02562,0 -0.05106,-0.00077 -0.0763,-0.00229c0.08162,0.16611 0.12746,0.35298 0.12746,0.55055c0,0.69036 -0.55964,1.25 -1.25,1.25c-0.69036,0 -1.25,-0.55964 -1.25,-1.25c0,-0.69036 0.55964,-1.25 1.25,-1.25c0.02562,0 0.05106,0.00077 0.0763,0.00229c-0.01785,-0.03633 -0.03399,-0.07365 -0.04831,-0.11186c-0.21567,-0.07945 -0.41388,-0.195 -0.58729,-0.33933c-0.31937,0.216 -0.70449,0.34214 -1.11907,0.34214c-1.10457,0 -2,-0.89543 -2,-2c0,-1.10457 0.89543,-2 2,-2c0.48625,0 0.93197,0.17353 1.27861,0.46203c0.31937,-0.216 0.70449,-0.34214 1.11907,-0.34214c1.10457,0 2,0.89543 2,2c0,0.40066 -0.11781,0.7738 -0.32069,1.08668c0.03269,0.11163 0.05023,0.22973 0.05023,0.35193z" fill="#70b012" stroke="none" stroke-width="0.5"/><path d="M334.91833,253.66868c0,-0.69036 0.55964,-1.25 1.25,-1.25c0.69036,0 1.25,0.55964 1.25,1.25c0,0.69036 -0.55964,1.25 -1.25,1.25c-0.69036,0 -1.25,-0.55964 -1.25,-1.25z" fill="#70b012" stroke="none" stroke-width="0.5"/><path d="M336.23705,256.06637c0,-0.69036 0.55964,-1.25 1.25,-1.25c0.69036,0 1.25,0.55964 1.25,1.25c0,0.69036 -0.55964,1.25 -1.25,1.25c-0.69036,0 -1.25,-0.55964 -1.25,-1.25z" fill="#70b012" stroke="none" stroke-width="0.5"/><path d="M300.29228,260.02254c0,-0.41421 0.33579,-0.75 0.75,-0.75c0.41421,0 0.75,0.33579 0.75,0.75c0,0.41421 -0.33579,0.75 -0.75,0.75c-0.41421,0 -0.75,-0.33579 -0.75,-0.75z" fill="#70b012" stroke="none" stroke-width="0.5"/><path d="M307.96487,258.22428c0,-0.41421 0.33579,-0.75 0.75,-0.75c0.41421,0 0.75,0.33579 0.75,0.75c0,0.41421 -0.33579,0.75 -0.75,0.75c-0.41421,0 -0.75,-0.33579 -0.75,-0.75z" fill="#70b012" stroke="none" stroke-width="0.5"/><path d="M313.23977,257.74474c0,-0.41421 0.33579,-0.75 0.75,-0.75c0.41421,0 0.75,0.33579 0.75,0.75c0,0.41421 -0.33579,0.75 -0.75,0.75c-0.41421,0 -0.75,-0.33579 -0.75,-0.75z" fill="#70b012" stroke="none" stroke-width="0.5"/><path d="M321.03224,260.50208c0,-0.41421 0.33579,-0.75 0.75,-0.75c0.41421,0 0.75,0.33579 0.75,0.75c0,0.41421 -0.33579,0.75 -0.75,0.75c-0.41421,0 -0.75,-0.33579 -0.75,-0.75z" fill="#70b012" stroke="none" stroke-width="0.5"/><path d="M332.66099,261.94069c0,-0.41421 0.33579,-0.75 0.75,-0.75c0.41421,0 0.75,0.33579 0.75,0.75c0,0.41421 -0.33579,0.75 -0.75,0.75c-0.41421,0 -0.75,-0.33579 -0.75,-0.75z" fill="#70b012" stroke="none" stroke-width="0.5"/><path d="M337.57624,262.06057c0,-0.41421 0.33579,-0.75 0.75,-0.75c0.41421,0 0.75,0.33579 0.75,0.75c0,0.41421 -0.33579,0.75 -0.75,0.75c-0.41421,0 -0.75,-0.33579 -0.75,-0.75z" fill="#70b012" stroke="none" stroke-width="0.5"/><path d="M342.85114,256.66579c0,-0.41421 0.33579,-0.75 0.75,-0.75c0.41421,0 0.75,0.33579 0.75,0.75c0,0.41421 -0.33579,0.75 -0.75,0.75c-0.41421,0 -0.75,-0.33579 -0.75,-0.75z" fill="#70b012" stroke="none" stroke-width="0.5"/><path d="M328.1054,258.58393c0,-0.41421 0.33579,-0.75 0.75,-0.75c0.41421,0 0.75,0.33579 0.75,0.75c0,0.41421 -0.33579,0.75 -0.75,0.75c-0.41421,0 -0.75,-0.33579 -0.75,-0.75z" fill="#70b012" stroke="none" stroke-width="0.5"/><path d="M293.93843,256.18625c0,-0.41421 0.33579,-0.75 0.75,-0.75c0.41421,0 0.75,0.33579 0.75,0.75c0,0.41421 -0.33579,0.75 -0.75,0.75c-0.41421,0 -0.75,-0.33579 -0.75,-0.75z" fill="#70b012" stroke="none" stroke-width="0.5"/></g><path d="" fill="none" stroke="#000000" stroke-width="2" stroke-linecap="round"/><path d="M214.78369,306.61252v-267.72501c0,0 153.66918,0 187.45214,0c12.51617,0 25.72989,0 25.72989,0v267.72501z" fill="none" stroke="none" stroke-width="0" stroke-linecap="butt"/><g stroke="#000000" stroke-width="0"><path d="M369.50189,174.6744l2.06314,6.95298l-7.60506,-2.43652z" fill="#000000" stroke-linecap="round"/><path d="M343.41528,119.58242c-1.20912,-0.93188 -1.93633,-2.40218 -1.83429,-4.05314c0.11509,-1.86197 1.25599,-3.48516 2.86127,-4.36096c1.43381,-2.1853 7.42489,-0.16873 9.19955,0.6287c6.48188,2.91258 12.4804,11.25223 14.77943,17.73393c7.21046,20.32854 -9.12782,42.30819 -5.90013,62.82243c1.80268,11.45725 10.05201,21.08963 12.19258,32.55231c0.69952,3.74598 0.49872,10.95466 -5.66814,10.92807c-1.76743,-0.00762 -3.27163,-1.34598 -4.44692,-2.55644c-0.92625,-0.95396 -0.28419,-5.23198 -0.28771,-5.9883c-0.01652,-3.54548 -2.19112,-7.35419 -3.52144,-10.47134c-2.96691,-6.95194 -8.23091,-15.27514 -8.78755,-23.06373c-1.44318,-20.19314 8.95371,-39.76292 6.56986,-59.88766c-0.44972,-3.79658 -6.29132,-10.64535 -8.89968,-12.42424c-1.00067,-0.68244 -2.08082,-0.72673 -3.16788,-0.81707c-0.48098,-0.00419 -0.94284,-0.07058 -1.37788,-0.19121c-0.40087,-0.09347 -0.79846,-0.23318 -1.18906,-0.45412c-0.19701,-0.11144 -0.3694,-0.24534 -0.52202,-0.39723z" fill="#9efd71" stroke-linecap="butt"/><path d="M369.2551,108.3292c0.59074,-2.36601 2.8506,-4.15274 5.43447,-4.14159c1.51114,0.00652 2.8355,0.62667 3.73432,1.61453c0.15483,0.17017 0.29703,0.35124 0.42539,0.54197c2.01582,1.80174 4.35724,3.36905 6.52583,5.003c0.03922,0.02956 0.05281,0.08351 0.09141,0.11379c18.9333,14.85354 14.2181,44.2289 11.80792,65.4528c-0.20275,1.7854 -0.63127,3.55506 -0.8193,5.34118c-0.24742,2.35014 -0.38004,4.70648 -0.43624,7.05794c-0.06153,2.57456 3.5055,6.57493 2.19371,9.161c-2.22575,4.38787 -4.30971,5.16414 -8.75263,3.26036c-4.23045,-1.81275 -3.64466,-17.85891 -3.51191,-19.77771c0.124,-1.79252 0.78623,-4.14962 0.89954,-5.59081c0.8634,-10.98214 3.04391,-26.75886 1.35654,-38.88662c-0.80007,-5.75045 -2.71475,-11.86703 -7.04727,-15.87526c-3.24554,-3.00259 -12.7002,-6.82722 -12.05749,-12.64943c0.02441,-0.22106 0.07768,-0.42882 0.15573,-0.62515z" fill="#9efd71" stroke-linecap="butt"/><path d="M351.07858,114.23484c0.17317,-2.80184 2.66916,-5.06302 5.57493,-5.05049c0.45548,0.00196 0.89397,0.05968 1.30897,0.16641c1.13156,-0.288 2.81925,1.86753 3.47389,2.61001c3.07767,3.49067 5.49462,6.82327 7.92024,10.78303c12.15446,19.84192 1.78951,41.85845 1.09485,63.45602c-0.11187,3.47806 0.27937,7.57983 1.43439,10.84231c0.34562,0.97627 2.00105,2.9168 1.96206,3.54759c-0.10533,1.70422 -0.37575,3.7268 -1.7,4.92649c-8.34298,7.55813 -11.22427,-8.23389 -11.74157,-11.99147c-0.16612,-1.20664 -0.34439,-2.5186 -0.40325,-3.74247c-0.86426,-17.97501 7.43824,-35.29579 3.70511,-53.36561c-1.2642,-6.11922 -5.35533,-11.61658 -9.2837,-16.24794c-0.7823,-0.9223 -4.6121,-4.47473 -3.34591,-5.93386z" fill="#67dc31" stroke-linecap="butt"/><path d="M395.44973,165.39865c0.70493,0.88265 1.09173,2.01547 1.01548,3.24916c-0.11509,1.86197 -1.25599,3.48517 -2.86128,4.36096c-0.5546,0.84528 -1.90237,0.85026 -3.06907,0.67655c-0.52985,-0.0789 -1.02235,-0.19465 -1.38624,-0.28528c-4.06522,-1.01257 -4.66282,-6.25292 -5.04371,-9.8979c-0.53556,-5.12524 -1.03973,-12.03815 -2.1507,-17.04822c-1.37345,-6.19382 -4.21426,-11.88022 -5.74851,-18.02987c-2.73489,-10.96209 -1.68956,-14.20546 -9.0713,-23.89511c-1.98705,-2.60831 -4.4618,-6.19723 -0.03818,-9.24114c4.98555,-3.43056 7.50255,1.40242 9.66197,4.15142c6.41247,8.16328 7.85352,16.23048 9.75176,26.27838c0.71309,3.7746 2.21531,6.56102 3.3612,10.21373c1.76011,5.61062 2.97492,11.41387 3.84052,17.25898c0.69092,4.66546 0.75,8.26367 1.73806,12.20833z" fill="#67dc31" stroke-linecap="butt"/><path d="M373.81506,94.01614c1.19331,0.93286 1.90922,2.39372 1.80792,4.03264c-0.00276,0.04467 -0.00612,0.0892 -0.01006,0.13359c0.103,0.61129 -0.08128,1.17052 -0.44974,1.68182c-0.87554,1.90112 -2.87338,3.24474 -5.11514,3.23507c-2.00172,0.92865 -4.57622,-2.63432 -5.86241,-3.32564c-4.54118,-2.44086 -9.98757,-5.28231 -15.50874,-5.31308c-6.24126,-0.03478 -13.60459,1.07626 -19.4652,3.88245c-1.3694,0.6557 -3.47872,2.72937 -5.30736,2.96148c-2.81565,0.3574 -5.34527,0.68413 -6.45684,-3.23725c-1.84617,-6.51283 10.14351,-9.91079 14.54401,-11.16355c12.36342,-3.51968 25.28479,-3.49127 36.03256,3.01696c2.4177,1.46402 4.41399,2.47086 5.791,4.0955z" fill="#67dc31" stroke-linecap="butt"/><path d="M370.69486,101.82265c0.79577,0.90506 1.24084,2.10572 1.15955,3.42105c-0.00276,0.04467 -0.00612,0.0892 -0.01006,0.13359c0.06456,0.38315 0.01625,0.74586 -0.11952,1.08912c5.77751,7.43829 13.95955,18.68188 12.76274,27.06752c-0.88387,6.19298 -1.14639,12.50503 -2.98931,18.54906c-1.88861,6.19386 -5.25313,12.50044 -5.13012,19.05541c0.16347,8.71039 4.47569,17.61041 6.73875,25.81194c2.34806,8.50958 4.25923,17.27651 6.9856,25.61795c0.89584,2.74089 0.39959,5.99351 -3.49681,7.20498c-7.39283,2.29858 -9.28005,-13.14182 -10.33651,-17.25365c-0.43202,-1.68148 -0.88485,-3.35693 -1.33536,-5.033c-0.65863,-2.45042 -1.26901,-4.91604 -1.99202,-7.34647c-2.68455,-9.02425 -7.4572,-19.00346 -7.10867,-28.6866c0.47064,-13.07581 7.54455,-24.57361 8.08529,-37.8818c0.40056,-9.85834 -9.76182,-17.72965 -14.4277,-25.01051c-0.4308,-0.67223 -0.65581,-1.48343 -0.67945,-2.32697c-0.00712,-0.16863 -0.00553,-0.33967 0.00517,-0.51268c0.02148,-0.34752 0.07869,-0.68673 0.16799,-1.01431c0.00622,-0.0243 0.01261,-0.0486 0.01915,-0.07285c-3.32582,-1.84254 -8.43411,-2.90185 -11.72851,-2.96881c-4.8005,-0.09759 -9.53795,-0.66042 -14.25198,0.46748c-2.88494,0.69027 -7.05769,5.18157 -10.0496,3.16529c-1.41216,-0.95167 -2.65534,-2.56637 -2.67826,-4.26667c-0.08778,-6.51261 10.74812,-9.20467 15.80777,-9.48554c10.36023,-0.57512 29.26804,-0.26825 34.60185,10.27647z" fill="#4cc513" stroke-linecap="butt"/><path d="M385.91541,130.85657c1.36633,0.27263 1.74554,3.69471 1.94261,4.92346c1.03277,6.43997 0.7866,13.00111 0.56171,19.59246c-0.24807,7.27094 -1.66479,14.47769 -1.8921,21.68849c-0.27273,8.65165 4.45207,16.89079 3.96485,25.48024c-0.38873,6.8533 -0.65226,13.70988 -1.27077,20.55969c-0.2412,2.67122 -2.1619,5.0652 -5.57494,5.05049c-3.41579,-0.01473 -5.03544,-2.42398 -4.94779,-5.09586c0.22015,-6.71149 0.89452,-13.42655 1.24482,-20.13981c0.40873,-7.83308 -3.19554,-16.18394 -3.89647,-24.04449c-0.61445,-6.89082 1.4402,-16.91305 1.8394,-23.36538c0.30934,-4.9999 0.46274,-10.75577 -0.13218,-15.76051c-0.22381,-1.88281 -1.1589,-4.21699 -0.66869,-6.10323c0.05656,-0.21762 0.14,-0.41909 0.24618,-0.60687c0.92452,-1.63521 3.57275,-2.2337 5.20477,-3.44121z" fill="#7ade4c" stroke-linecap="butt"/><path d="M345.7835,120.61013c-1.27056,0.78027 -5.76077,-1.88032 -7.46967,-1.88998c-1.65326,-0.00935 -3.30644,-0.02008 -4.96018,-0.02139c-2.45903,-0.00194 -3.51336,2.63289 -6.53792,2.40715c-3.49676,-0.26098 -5.19903,-4.95635 -3.62686,-7.95852c1.35726,-2.59179 4.39584,-2.8247 6.73065,-3.78521c4.55213,-1.87269 12.24376,-1.6425 17.02752,1.19023c2.01976,1.19602 3.52115,2.85596 4.04903,5.01747z" fill="#9efd71" stroke-linecap="butt"/><path d="M359.47152,109.37335c1.24982,0.92868 2.00633,2.42292 1.90238,4.10464c-0.00276,0.04467 -0.00612,0.0892 -0.01006,0.13359c0.103,0.61129 -0.08128,1.17052 -0.44974,1.68183c-0.87554,1.90112 -2.87339,3.24474 -5.11516,3.23507c-1.27676,0.59232 -2.23197,-0.07253 -3.02401,-0.97539c-0.70078,-0.51478 -1.24848,-1.20645 -1.57929,-2.00926c-0.15474,-0.16626 -0.3069,-0.30118 -0.45874,-0.39008c-2.46105,-1.4411 -5.78751,-3.58108 -8.82977,-3.99371c-3.31768,-0.45 -7.40047,-0.51583 -10.59981,-0.48249c-2.09813,0.02186 -3.12498,3.70689 -6.22834,2.67557c-1.64342,-0.54615 -3.54028,-1.32732 -4.23649,-2.85502c-2.50928,-5.50618 5.56567,-9.10448 9.75536,-9.97266c8.24382,-1.70827 23.37965,1.62387 28.87365,8.84792z" fill="#67dc31" stroke-linecap="butt"/></g><path d="M256.24112,149.86548c-0.26776,-32.88718 27.91697,-59.77874 62.95232,-60.06399c35.03538,-0.28524 63.6542,26.14384 63.92196,59.031c0.26776,32.88718 -27.50665,48.03177 -62.54202,48.31702c-35.03537,0.28524 -64.06452,-14.39686 -64.33227,-47.28403z" fill="#c8bfb0" stroke="#000000" stroke-width="0" stroke-linecap="butt"/><g><g fill="#a93232" stroke="none" stroke-width="0" stroke-linecap="butt"><path d="M327.88616,200.34582c-0.00939,2.17728 -2.02914,3.93364 -4.51124,3.92293c-2.4821,-0.0107 -4.48663,-1.78441 -4.47724,-3.96169c0.00939,-2.17728 2.02914,-3.93364 4.51124,-3.92293c2.4821,0.0107 4.48663,1.78441 4.47724,3.96169z"/><path d="M322.36215,201.42587c-0.00714,1.65473 -1.81325,2.9884 -4.03408,2.97882c-2.22083,-0.00958 -4.01538,-1.35877 -4.00824,-3.0135c0.00714,-1.65473 1.81325,-2.9884 4.03408,-2.97882c2.22083,0.00958 4.01538,1.35877 4.00824,3.0135z"/><path d="M318.71889,205.19485c-0.00676,1.56765 -2.05968,2.82963 -4.58533,2.81874c-2.52565,-0.01089 -4.56761,-1.29055 -4.56085,-2.85818c0.00676,-1.56765 2.05968,-2.82963 4.58533,-2.81874c2.52565,0.01089 4.56761,1.29055 4.56085,2.85818z"/><path d="M324.72958,200.96298c4.70293,0.02028 8.50809,1.73115 8.49908,3.82134c-0.00901,2.09019 -3.82879,3.76819 -8.53172,3.74791c-4.70293,-0.02028 -8.50809,-1.73115 -8.49908,-3.82134c0.00901,-2.09019 3.82879,-3.76819 8.53172,-3.74791z"/><path d="M313.5113,206.03971c-0.00469,1.08864 -1.31463,1.96553 -2.92581,1.95858c-1.61119,-0.00695 -2.91351,-0.8951 -2.90881,-1.98374c0.00469,-1.08864 1.31463,-1.96553 2.92581,-1.95858c1.61119,0.00695 2.91351,0.8951 2.90881,1.98374z"/></g><path d="M303.50547,93.97919c0,0 0.1145,-0.03762 0.21062,0.01889c1.015,-0.28183 2.04886,-0.48228 3.0742,-0.72277c0.22002,-0.05989 0.44094,-0.11439 0.66292,-0.16266c0.31195,-0.08055 0.62255,-0.16728 0.93102,-0.26367l0.16575,0.08044c0.72393,-0.08271 1.46141,-0.08795 2.21761,0.011l-1.9378,1.34086c-0.2701,0.08368 -0.54404,0.16749 -0.82092,0.25095c-1.60088,0.9819 -4.12924,1.63248 -5.78778,2.20852l0.10315,0.31395c2.51512,-0.55481 5.3973,-0.48207 7.9236,-0.47118l0.13621,0.00059c0,0 0.25,0.00108 0.24892,0.25108c-0.00108,0.25 -0.25108,0.24892 -0.25108,0.24892l-0.13621,-0.00059c-2.47214,-0.01066 -5.29889,-0.08772 -7.76464,0.44843l0.05282,0.16077c0.0493,-0.00997 0.10036,-0.0151 0.15264,-0.01487c0.35693,0.00154 0.65454,0.25215 0.72889,0.58647l0.29037,1.18315l-0.0032,0.00079l0.00546,0.0087c0.05944,0.27259 0.11333,0.52072 0.16084,0.75071c0.24102,0.29466 0.44584,0.66 0.62074,1.06067c0.48509,-0.10361 1.0536,-0.26518 1.63267,-0.44143l0.60663,-0.5011c1.25412,-1.03422 2.15602,-1.68024 3.35062,-2.08376l-0.08739,-0.22123l1.37928,-0.54483c0.09054,-0.03821 0.19012,-0.05914 0.2946,-0.05869c0.41421,0.00179 0.74855,0.33902 0.74676,0.75323c-0.001,0.23238 -0.10758,0.43961 -0.27409,0.57646l-0.7805,0.65033c-0.56437,0.47007 -1.22035,1.19205 -1.91145,1.95414c0.13587,0.42704 0.21942,0.90249 0.34945,1.25642c0.74486,2.02732 1.34449,4.14784 1.94293,6.22342c0.37772,1.49758 0.62125,2.81345 0.75085,4.16403c0.15238,-0.08175 0.3045,-0.16402 0.44951,-0.25619c0.40906,-0.26001 0.83306,-0.49649 1.26699,-0.71461l-0.06029,-0.08111l1.19489,-0.88814c0.12679,-0.09638 0.28515,-0.15332 0.45672,-0.15258c0.41421,0.00179 0.74855,0.33902 0.74676,0.75323c-0.00068,0.1576 -0.04992,0.30363 -0.13348,0.42399l-0.5967,0.88674l-0.00235,-0.00158l-0.00225,0.00834c-0.90029,1.27697 -1.66375,2.52852 -2.38454,3.87258c0.34599,-0.42919 0.70673,-0.84364 1.08474,-1.20506c0.22397,-0.45851 0.41825,-0.8466 0.53055,-1.1152l0.14975,-0.07972l-0.04134,-0.04488l1.10176,-1.01494c0.13458,-0.12469 0.31493,-0.20059 0.51287,-0.19974c0.41421,0.00179 0.74855,0.33902 0.74676,0.75323c-0.00063,0.14659 -0.04328,0.28318 -0.11648,0.3984l-0.77618,1.26933l-0.22625,-0.13835c-0.10894,0.20578 -0.22331,0.40603 -0.34268,0.60186c-0.0313,0.10351 -0.06424,0.21347 -0.09872,0.32836c0.95231,-0.12455 1.65727,0.10546 2.31051,0.61129c0.02466,-0.00234 0.04967,-0.00349 0.07497,-0.00338c0.41421,0.00179 0.74855,0.33902 0.74676,0.75323c-0.00006,0.01317 -0.00045,0.02626 -0.00118,0.03926c0.08455,0.09526 0.16964,0.19467 0.25571,0.29809l0.12101,0.12072c0,0 0.17602,0.17754 -0.00152,0.35355c-0.17754,0.17602 -0.35355,-0.00152 -0.35355,-0.00152l-0.1344,-0.13676l-0.17578,0.93609c-0.27793,1.48005 -0.49718,2.99529 -0.73652,4.49345c0.62558,-1.66244 1.5043,-3.48026 1.92579,-4.72402c0.02878,-1.77184 0.3231,-3.25808 0.86917,-4.82893c-0.08487,-0.12816 0.01084,-0.27038 0.01084,-0.27038c0.05435,-0.07923 0.11157,-0.15687 0.17148,-0.23298c0.11624,-0.30897 0.24191,-0.6226 0.37688,-0.9436l0.11612,-0.27615c0,0 0.0969,-0.23045 0.32736,-0.13355c0.23045,0.0969 0.13355,0.32736 0.13355,0.32736l-0.05704,0.13565c1.41381,-1.13007 3.43011,-1.81054 5.01048,-2.20439c0.28861,-0.46712 0.61541,-0.92988 0.96327,-1.29119c0.09293,-0.16926 0.18526,-0.33907 0.27691,-0.50949l0.0391,-0.03069l-0.01264,-0.00901l0.86529,-1.2127c0.13607,-0.19595 0.36312,-0.32383 0.61971,-0.32272c0.41421,0.00179 0.74855,0.33902 0.74676,0.75323c-0.00049,0.11358 -0.0262,0.22116 -0.07181,0.31744l-0.40887,0.91587l-0.17464,-0.07796l-0.33452,0.46884c-0.0091,0.017 -0.01821,0.034 -0.02732,0.051c-0.03977,0.07741 -0.08087,0.15362 -0.12316,0.22892c-0.7704,1.42713 -1.57391,2.8266 -2.39142,4.19837c-0.37102,1.11143 -0.63156,2.32097 -1.22217,3.28448c-0.83773,1.36665 -2.39353,2.59495 -3.38609,3.9059c-0.53108,0.70144 -1.02568,1.42304 -1.50555,2.15255c0.03024,0.01464 0.06091,0.03062 0.09201,0.04801c1.34529,0.75171 -0.06329,3.74283 -0.5825,4.5552l-0.27468,0.81232c-0.09557,0.30606 -0.38188,0.5276 -0.71926,0.52614c-0.33738,-0.00145 -0.62176,-0.22545 -0.71469,-0.53233l-0.29001,-0.88268l0.19273,-0.06332c-0.013,-0.03588 -0.02526,-0.0715 -0.03684,-0.10696c-0.06796,0.04331 -0.13714,0.08282 -0.20733,0.11807l-0.04322,0.1734c-0.07594,0.33544 -0.37655,0.58522 -0.73472,0.58368c-0.06014,-0.00026 -0.11859,-0.00759 -0.17457,-0.0212l-0.26741,0.79084c-0.09557,0.30606 -0.38188,0.5276 -0.71926,0.52614c-0.41421,-0.00179 -0.74855,-0.33902 -0.74676,-0.75323l0.00387,-0.89782l0.25871,0.00112l0.07345,-0.21721c0.0377,-0.35002 0.1519,-0.63192 0.32773,-0.88765c-0.01704,-0.15144 -0.0295,-0.33971 -0.03839,-0.54255c-0.14818,-0.61589 -0.52247,-1.68328 -0.81607,-2.74997c-0.3308,-0.02362 -0.60189,-0.26159 -0.67586,-0.57533l-0.36904,-1.42277c-0.05283,-0.16835 -0.10769,-0.33457 -0.16288,-0.49944c-0.17172,-0.00217 -0.35634,-0.07016 -0.55434,-0.22902c-0.03733,-0.02995 -0.07247,-0.06141 -0.10549,-0.09433l-0.007,0.90012c-0.003,0.41316 -0.33976,0.74627 -0.75322,0.74449c-0.36866,-0.00159 -0.67405,-0.26891 -0.73549,-0.61972l-0.21149,-1.08165c-0.13681,0.13908 -0.32744,0.22499 -0.53794,0.22408c-0.41421,-0.00179 -0.74855,-0.33902 -0.74676,-0.75323l0.00387,-0.89782l0.29291,0.00126c0.01881,-0.45112 0.09075,-0.89899 0.20484,-1.34238c-0.13108,-0.34848 -0.29222,-0.76583 -0.46257,-1.22061c-0.05528,0.01271 -0.11287,0.01931 -0.17203,0.01906c-0.35693,-0.00154 -0.65454,-0.25215 -0.72889,-0.58647l-0.29037,-1.18315l0.01391,-0.00341l-0.02252,-0.0363c-0.03934,-0.29293 -0.07841,-0.57905 -0.11589,-0.85972c-0.12323,-0.4624 -0.16904,-1.00374 -0.18376,-1.51463c-0.01349,-0.13235 -0.02597,-0.26397 -0.03729,-0.39503c-0.07615,0.02562 -0.15774,0.03935 -0.24256,0.03898c-0.32267,-0.00139 -0.59687,-0.20635 -0.70146,-0.49267c-0.11582,0.07215 -0.25272,0.11358 -0.39925,0.11295c-0.34518,-0.00149 -0.63489,-0.23593 -0.72083,-0.55374l-0.38409,-1.30062l-0.11965,-0.2419l0.00898,-0.00444c-0.00741,-0.00793 -0.01481,-0.01585 -0.02222,-0.02379l-0.00396,-0.03195l-0.00809,0.0032l-0.54483,-1.37928c-0.03821,-0.09054 -0.05914,-0.19012 -0.05869,-0.2946c0.00003,-0.00724 0.00016,-0.01446 0.0004,-0.02165c-0.01362,-0.03404 -0.02733,-0.06827 -0.04109,-0.10268l-0.00303,0.29807c-0.00384,0.41244 -0.34026,0.74471 -0.7532,0.74293c-0.36866,-0.00159 -0.67405,-0.26891 -0.73549,-0.61972l-0.28259,-1.44532c-0.24167,-0.98298 -0.52037,-1.84735 -0.7564,-2.68769c-0.13792,0.17716 -0.35354,0.29072 -0.5954,0.28968c-0.08063,-0.00035 -0.15823,-0.0134 -0.23091,-0.03727l-0.23866,0.93747c-0.07723,0.33366 -0.377,0.5817 -0.73392,0.58016c-0.30652,-0.00132 -0.5693,-0.18634 -0.68449,-0.45031l-0.39446,-0.85255l0.00639,-0.00296l-0.0156,-0.01776c-1.11073,-2.83752 -2.2905,-5.99399 -1.80421,-9.01584l-0.20728,-0.00089l0.00387,-0.89782c0.00008,-0.01946 0.00091,-0.03875 0.00245,-0.05782c-0.09405,-0.08241 -0.19363,-0.16293 -0.29971,-0.24129c0,0 -0.59805,-0.45258 -0.14547,-1.05064c0.45258,-0.59805 1.05064,-0.14547 1.05064,-0.14547c0.07816,0.06032 0.15354,0.12142 0.22637,0.18325c0.06986,-0.02115 0.14401,-0.03237 0.22081,-0.03204c0.3232,0.00139 0.59775,0.20701 0.70197,0.49407c1.15935,0.04439 2.34239,0.05695 3.39223,-0.28798zM300.34608,94.9754c0.08737,0.00522 0.17067,0.02539 0.24742,0.05796c0.19437,-0.11358 0.43047,-0.18593 0.6736,-0.24954c-0.32876,0.00322 -0.65935,-0.00393 -0.98878,-0.01461zM320.60148,117.45388c0.13784,-0.1503 0.33613,-0.24416 0.55612,-0.24321c0.41421,0.00179 0.74855,0.33902 0.74676,0.75323l-0.0015,0.34763c0.72825,-0.60332 1.48292,-1.19872 1.9124,-1.93081c0.59257,-1.01011 1.20441,-2.02099 1.81648,-3.04197c0.11779,-0.34089 0.24847,-0.6705 0.40545,-0.97808c0.13944,-0.27322 0.32618,-0.6427 0.54846,-1.04177c-1.73666,0.46577 -3.98307,1.31569 -5.10597,2.72091c-0.4316,1.15537 -0.72584,2.23995 -0.8782,3.41407zM311.25642,108.96171c-0.59469,-2.06143 -1.18924,-4.16801 -1.92954,-6.18134c-0.07206,-0.19597 -0.15692,-0.6116 -0.26373,-1.00671c-0.31071,0.34063 -0.62628,0.68153 -0.94179,1.0043c0.34137,0.70039 0.67469,1.84675 0.75688,2.09693c0.3303,1.00541 0.95654,2.14018 1.54825,3.31363l0.02132,0.03228l-0.00379,0.0025c0.88798,1.76428 1.69062,3.61386 1.28694,5.24126c0.08958,-0.07295 0.18439,-0.13874 0.28236,-0.20022c-0.12057,-1.3995 -0.3646,-2.74635 -0.75687,-4.30263zM315.11037,118.83824c0.40291,-0.29763 0.83043,-0.52816 1.25785,-0.38685c0.34817,0.11511 0.55944,0.28431 0.67453,0.48377c0.02346,-0.0344 0.04712,-0.06869 0.07095,-0.10285l-0.11241,-0.05473l0.6493,-1.33376c0.03077,-0.06682 0.07106,-0.12832 0.11915,-0.18279c-0.54193,-0.36175 -1.1417,-0.4935 -1.98046,-0.33156c-0.19544,0.63498 -0.4262,1.33742 -0.67893,1.90877zM307.73166,106.10439c0.03964,0.32366 0.07764,0.64269 0.11231,0.95889c0.13102,0.72097 0.24616,1.45035 0.36169,2.19947c0.03797,0.03815 0.07541,0.07676 0.11231,0.11581c0.01231,-0.19112 0.03555,-0.38007 0.06579,-0.5621l0.09276,-1.10505c-0.2676,-0.52088 -0.52263,-1.0536 -0.74486,-1.60702zM305.45741,103.48258c0.18885,-0.47061 0.43483,-0.90542 0.72496,-1.31514c-0.30796,0.13846 -0.63515,0.25886 -0.96544,0.35646l0.25184,0.76652l-0.1092,0.03588c0.03302,0.05195 0.06562,0.10403 0.09783,0.15627zM300.66035,101.27703c0.03459,0.12364 0.07019,0.24708 0.10677,0.37039l0.10386,-0.03412c-0.07233,-0.11154 -0.1425,-0.22362 -0.21063,-0.33627zM301.18402,102.9361c0.00097,-0.04876 0.0022,-0.09783 0.00371,-0.14718c-0.06124,-0.0749 -0.10826,-0.16185 -0.13699,-0.25672l-0.20067,-0.61078c0.10438,0.33817 0.21596,0.67584 0.33396,1.01468z" fill="#a93232" stroke="none" stroke-width="0.5" stroke-linecap="butt"/><g stroke-linecap="butt"><path d="M255.04606,148.53339c0.10658,-24.7162 16.04048,-45.8908 38.75341,-55.1034c0.64217,-0.26047 2.56391,-2.29991 2.56391,-2.29991l2.52468,4.4553c0,0 0.4619,2.84763 1.57446,4.70295c0.51186,0.8536 3.55874,2.70703 3.55874,2.70703c0,0 1.3163,5.00061 3.02373,7.98195c1.03055,1.79945 4.99449,1.11237 4.99449,1.11237c0,0 -1.23209,4.04917 -0.47676,5.92624c0.45919,1.14112 4.22907,3.78266 4.22907,3.78266l2.88687,6.79001l1.93754,-6.61086c0,0 2.13134,-1.93262 4.5463,-6.59361c4.80402,-9.27197 12.07215,-24.56669 15.31019,-23.50345c25.15817,8.26098 43.16014,30.78885 43.04622,57.20668c-0.11787,27.33515 -19.5949,50.33838 -46.19097,57.61899c-1.26732,0.34693 -5.36715,1.32502 -5.36715,1.32502c0,0 -1.00438,-2.41453 -2.47673,-3.6252c-0.73251,-0.60232 -4.66344,-0.76292 -4.66344,-0.76292c0,0 -0.58956,-2.64335 -1.09929,-3.18274c-0.65067,-0.68854 -3.28105,0.36141 -3.28105,0.36141c0,0 -2.25644,-0.17281 -2.67232,0.20568c-0.47553,0.43276 -0.22743,1.88699 -0.22743,1.88699c0,0 -3.44822,0.14957 -4.52667,0.97307c-0.63509,0.48495 -0.55988,2.99364 -0.55988,2.99364c0,0 -2.70984,-1.07203 -4.10188,-1.03616c-1.76883,0.04559 -3.34103,1.77633 -4.64728,1.47027c-28.04944,-6.57209 -48.78096,-30.43814 -48.65874,-58.78202z" fill="#4cc114" stroke="#000000" stroke-width="0"/><path d="M255.04606,148.53339c0.10658,-24.7162 16.04048,-45.8908 38.75341,-55.1034c0.64217,-0.26047 2.56391,-2.29991 2.56391,-2.29991l2.52468,4.4553c0,0 0.4619,2.84763 1.57446,4.70295c0.51186,0.8536 3.55874,2.70703 3.55874,2.70703c0,0 1.3163,5.00061 3.02373,7.98195c1.03055,1.79945 4.99449,1.11237 4.99449,1.11237c0,0 -1.23209,4.04917 -0.47676,5.92624c0.45919,1.14112 4.22907,3.78266 4.22907,3.78266l2.88687,6.79001l1.93754,-6.61086c0,0 2.13134,-1.93262 4.5463,-6.59361c4.80402,-9.27197 12.07215,-24.56669 15.31019,-23.50345c25.15817,8.26098 43.16014,30.78885 43.04622,57.20668c-0.02289,5.30896 -0.77602,10.45451 -2.16971,15.35322c-0.01494,0.05249 -124.99866,-3.50855 -125.02699,-3.63992c-0.85419,-3.96288 -1.29427,-8.06588 -1.27616,-12.26727z" fill="#70b012" stroke="#000000" stroke-width="0"/><path d="M255.04606,148.53339c0.10658,-24.7162 16.04048,-45.8908 38.75341,-55.1034c0.64217,-0.26047 2.56391,-2.29991 2.56391,-2.29991l2.52468,4.4553c0,0 0.4619,2.84763 1.57446,4.70295c0.51186,0.8536 3.55874,2.70703 3.55874,2.70703c0,0 1.3163,5.00061 3.02373,7.98195c1.03055,1.79945 4.99449,1.11237 4.99449,1.11237c0,0 -1.23209,4.04917 -0.47676,5.92624c0.45919,1.14112 4.22907,3.78266 4.22907,3.78266l2.88687,6.79001l1.93754,-6.61086c0,0 2.13134,-1.93262 4.5463,-6.59361c4.80402,-9.27197 12.07215,-24.56669 15.31019,-23.50345c25.15817,8.26098 43.16014,30.78885 43.04622,57.20668c-0.00075,0.1732 -128.47401,-0.28282 -128.47285,-0.55397z" fill="#84930f" stroke="#000000" stroke-width="0"/><path d="M257.89603,130.96176c5.55827,-16.89236 18.8114,-30.59907 35.90343,-37.53177c0.64217,-0.26047 2.56391,-2.29991 2.56391,-2.29991l2.52468,4.4553c0,0 0.4619,2.84763 1.57446,4.70295c0.51186,0.8536 3.55874,2.70703 3.55874,2.70703c0,0 1.3163,5.00061 3.02373,7.98195c1.03055,1.79945 4.99449,1.11237 4.99449,1.11237c0,0 -1.23209,4.04917 -0.47676,5.92624c0.45919,1.14112 4.22907,3.78266 4.22907,3.78266l2.88687,6.79001l1.93754,-6.61086c0,0 2.13134,-1.93262 4.5463,-6.59361c4.80402,-9.27197 12.07215,-24.56669 15.31019,-23.50345c19.29946,6.33721 34.38764,21.07021 40.31691,39.51446c0.1223,0.38044 -122.99846,-0.11457 -122.89356,-0.43338z" fill="#7a6c00" stroke="#000000" stroke-width="0"/><path d="M260.05923,134.01309c0.00133,-0.30928 0.11487,-0.59184 0.30189,-0.80928c-0.07235,-0.00975 -0.14273,-0.02568 -0.21059,-0.04725c-0.2609,0.15234 -0.56469,0.23907 -0.88866,0.23767c-0.96649,-0.00417 -1.74661,-0.79104 -1.74244,-1.75753c0.00417,-0.96649 0.79104,-1.74661 1.75753,-1.74244c0.55054,0.00237 1.04061,0.25872 1.35969,0.65757c0.3129,-0.48534 0.85918,-0.80569 1.47946,-0.80302c0.25116,0.00108 0.48974,0.05502 0.70523,0.15124c0.31311,-0.28643 0.73062,-0.46043 1.18844,-0.45846c0.26061,0.00112 0.50766,0.05916 0.72945,0.16228c0.28517,-0.1984 0.63208,-0.3141 1.00586,-0.31249c0.96649,0.00417 1.74661,0.79104 1.74244,1.75753c-0.00417,0.96649 -0.79104,1.74661 -1.75753,1.74244c-0.26061,-0.00112 -0.50766,-0.05916 -0.72945,-0.16228c-0.28517,0.1984 -0.63208,0.3141 -1.00586,0.31249c-0.25116,-0.00108 -0.48974,-0.05502 -0.70523,-0.15124c-0.27013,0.24712 -0.61796,0.41055 -1.00234,0.44949c0.17141,0.21499 0.27337,0.4877 0.27209,0.78406c-0.00298,0.69035 -0.56502,1.24758 -1.25538,1.2446c-0.69035,-0.00298 -1.24758,-0.56502 -1.2446,-1.25538z" fill="#7a6c00" stroke="none" stroke-width="0.5"/><path d="M274.71038,132.02623c-0.00298,0.69035 -0.56502,1.24758 -1.25538,1.2446c-0.58036,-0.0025 -1.06664,-0.40013 -1.20509,-0.93694c-0.06892,0.00794 -0.13906,0.01189 -0.21018,0.01158c-0.10228,-0.00044 -0.20247,-0.00964 -0.29987,-0.0269c0.17917,0.21736 0.28628,0.49625 0.28497,0.79996c-0.00298,0.69035 -0.56502,1.24758 -1.25538,1.2446c-0.69035,-0.00298 -1.24758,-0.56502 -1.2446,-1.25538c0.00082,-0.1897 0.04385,-0.36934 0.12016,-0.53008c-0.72124,-0.21868 -1.24482,-0.89025 -1.24141,-1.6825c0.00417,-0.96649 0.79104,-1.74661 1.75753,-1.74244c0.25116,0.00108 0.48974,0.05502 0.70523,0.15124c0.31311,-0.28643 0.73062,-0.46043 1.18844,-0.45846c0.96649,0.00417 1.74661,0.79104 1.74244,1.75753c-0.00031,0.07111 -0.00485,0.14121 -0.0134,0.21007c0.53559,0.14307 0.92901,0.63276 0.92651,1.21313z" fill="#7a6c00" stroke="none" stroke-width="0.5"/><path d="M276.29098,130.29838c0.00417,-0.96649 0.79104,-1.74661 1.75753,-1.74244c0.96649,0.00417 1.74661,0.79104 1.74244,1.75753c-0.00417,0.96649 -0.79104,1.74661 -1.75753,1.74244c-0.96649,-0.00417 -1.74661,-0.79104 -1.74244,-1.75753z" fill="#7a6c00" stroke="none" stroke-width="0.5"/><path d="M330.37277,132.10854c0.00417,-0.96649 0.79104,-1.74661 1.75753,-1.74244c0.96649,0.00417 1.74661,0.79104 1.74244,1.75753c-0.00417,0.96649 -0.79104,1.74661 -1.75753,1.74244c-0.96649,-0.00417 -1.74661,-0.79104 -1.74244,-1.75753z" fill="#7a6c00" stroke="none" stroke-width="0.5"/><path d="M325.49156,133.96829c-0.20135,-0.00087 -0.39137,-0.0493 -0.55947,-0.13459c-0.02346,0.00083 -0.04705,0.0012 -0.07073,0.0011c-0.63525,-0.00274 -1.19,-0.34362 -1.49443,-0.8514c-0.30881,0.50513 -0.86647,0.84122 -1.50172,0.83848c-0.39047,-0.00168 -0.75051,-0.13112 -1.04072,-0.34854c-0.31206,0.48966 -0.86086,0.81344 -1.48441,0.81075c-0.56292,-0.00243 -1.06262,-0.27037 -1.38096,-0.68469c-0.24607,0.13018 -0.52686,0.20338 -0.8247,0.2021c-0.3727,-0.00161 -0.71768,-0.11961 -1.00066,-0.31941c-0.14739,0.52907 -0.6339,0.91623 -1.20964,0.91374c-0.58081,-0.0025 -1.06739,-0.40074 -1.20541,-0.93818c-0.31364,0.48131 -0.85759,0.7985 -1.47481,0.79584c-0.46343,-0.002 -0.88401,-0.18395 -1.19581,-0.47938c-0.02113,0.00067 -0.04236,0.00096 -0.06368,0.00087c-0.96649,-0.00417 -1.74661,-0.79104 -1.74244,-1.75753c0.00417,-0.96649 0.79104,-1.74661 1.75753,-1.74244c0.46343,0.002 0.88401,0.18395 1.19581,0.47938c0.02113,-0.00067 0.04236,-0.00096 0.06368,-0.00087c0.90166,0.00389 1.64111,0.689 1.73287,1.56565c0.23026,-0.26095 0.56768,-0.42495 0.94303,-0.42333c0.16194,0.0007 0.31655,0.03216 0.45832,0.08883c0.03531,-0.93891 0.80964,-1.68723 1.75628,-1.68315c0.56292,0.00243 1.06262,0.27037 1.38096,0.68469c0.24607,-0.13018 0.52686,-0.20338 0.8247,-0.2021c0.39047,0.00168 0.75051,0.13112 1.04072,0.34854c0.31206,-0.48966 0.86086,-0.81344 1.48441,-0.81075c0.63525,0.00274 1.19,0.34362 1.49443,0.8514c0.30881,-0.50513 0.86647,-0.84122 1.50172,-0.83848c0.88752,0.00383 1.61788,0.66768 1.72808,1.52456c0.11758,-0.85589 0.85364,-1.51342 1.74117,-1.5096c0.96649,0.00417 1.74661,0.79104 1.74244,1.75753c-0.00417,0.96649 -0.79104,1.74661 -1.75753,1.74244c-0.70698,-0.00305 -1.31424,-0.42491 -1.58775,-1.02954c-0.05207,0.64502 -0.59343,1.15091 -1.25129,1.14808z" fill="#7a6c00" stroke="none" stroke-width="0.5"/><path d="M257.9188,149.61572c-0.00298,0.69035 -0.56502,1.24758 -1.25538,1.2446c-0.59058,-0.00255 -1.08374,-0.41426 -1.21208,-0.96542c-0.41882,-0.32145 -0.6879,-0.82795 -0.68544,-1.39665c0.00417,-0.96649 0.79104,-1.74661 1.75753,-1.74244c0.66958,0.00289 1.24971,0.38144 1.54156,0.93514c0.31655,-0.46371 0.8502,-0.76713 1.45392,-0.76453c0.96649,0.00417 1.74661,0.79104 1.74244,1.75753c-0.00417,0.96649 -0.79104,1.74661 -1.75753,1.74244c-0.66958,-0.00289 -1.24971,-0.38144 -1.54156,-0.93514c-0.01445,0.02117 -0.02935,0.042 -0.04469,0.06249c0.00091,0.02053 0.00133,0.0412 0.00124,0.06198z" fill="#84930f" stroke="none" stroke-width="0.5"/><path d="M267.87175,148.09324c0.69035,0.00298 1.24758,0.56502 1.2446,1.25538c-0.00298,0.69035 -0.56502,1.24758 -1.25538,1.2446c-0.35929,-0.00155 -0.68252,-0.15453 -0.90949,-0.39822c-0.30721,0.26125 -0.70574,0.41817 -1.14064,0.4163c-0.96649,-0.00417 -1.74661,-0.79104 -1.74244,-1.75753c0.00417,-0.96649 0.79104,-1.74661 1.75753,-1.74244c0.71921,0.0031 1.33523,0.43964 1.60164,1.06109c0.13814,-0.0518 0.28787,-0.07984 0.44418,-0.07917z" fill="#84930f" stroke="none" stroke-width="0.5"/><path d="M315.81444,150.02307c0.00039,-0.0914 0.01059,-0.18048 0.02959,-0.26621c-0.13477,-0.24934 -0.21074,-0.53503 -0.20944,-0.83843c0.00417,-0.96649 0.79104,-1.74661 1.75753,-1.74244c0.96649,0.00417 1.74661,0.79104 1.74244,1.75753c-0.00282,0.65284 -0.36276,1.22065 -0.89395,1.51914c-0.17438,0.48347 -0.63824,0.82814 -1.18157,0.82579c-0.69035,-0.00298 -1.24758,-0.56502 -1.2446,-1.25538z" fill="#84930f" stroke="none" stroke-width="0.5"/><path d="M319.73324,149.25149c0.00417,-0.96649 0.79104,-1.74661 1.75753,-1.74244c0.96649,0.00417 1.74661,0.79104 1.74244,1.75753c-0.00417,0.96649 -0.79104,1.74661 -1.75753,1.74244c-0.96649,-0.00417 -1.74661,-0.79104 -1.74244,-1.75753z" fill="#84930f" stroke="none" stroke-width="0.5"/><path d="M259.15105,159.09432c0.69035,0.00298 1.24758,0.56502 1.2446,1.25538c-0.00238,0.55088 -0.36075,1.01699 -0.85624,1.18133c-0.23482,0.69384 -0.89278,1.19192 -1.66556,1.18859c-0.96649,-0.00417 -1.74661,-0.79104 -1.74244,-1.75753c0.00417,-0.96649 0.79104,-1.74661 1.75753,-1.74244c0.1933,0.00083 0.37913,0.03298 0.55274,0.09159c0.20195,-0.13788 0.44634,-0.21807 0.70937,-0.21693z" fill="#70b012" stroke="none" stroke-width="0.5"/><path d="M268.43869,162.89597c-0.20135,-0.00087 -0.39137,-0.0493 -0.55947,-0.13459c-0.02346,0.00083 -0.04705,0.0012 -0.07073,0.0011c-0.59158,-0.00255 -1.11334,-0.29835 -1.42815,-0.7491c-0.27101,0.16975 -0.59177,0.2673 -0.93519,0.26582c-0.96649,-0.00417 -1.74661,-0.79104 -1.74244,-1.75753c0.00417,-0.96649 0.79104,-1.74661 1.75753,-1.74244c0.59158,0.00255 1.11334,0.29835 1.42815,0.7491c0.27101,-0.16975 0.59177,-0.2673 0.93519,-0.26582c0.25262,0.00109 0.49249,0.05565 0.70897,0.15291c0.2173,-0.09539 0.45765,-0.14788 0.71026,-0.14679c0.96649,0.00417 1.74661,0.79104 1.74244,1.75753c-0.00417,0.96649 -0.79104,1.74661 -1.75753,1.74244c-0.0702,-0.0003 -0.13941,-0.00473 -0.20742,-0.01306c-0.17397,0.09054 -0.37187,0.14135 -0.58161,0.14044z" fill="#70b012" stroke="none" stroke-width="0.5"/><path d="M314.179,160.90857c0.20135,0.00087 0.39137,0.0493 0.55947,0.13459c0.02346,-0.00083 0.04705,-0.0012 0.07073,-0.0011c0.26061,0.00112 0.50766,0.05916 0.72945,0.16228c0.28517,-0.1984 0.63208,-0.3141 1.00586,-0.31249c0.96649,0.00417 1.74661,0.79104 1.74244,1.75753c-0.00417,0.96649 -0.79104,1.74661 -1.75753,1.74244c-0.26061,-0.00112 -0.50766,-0.05916 -0.72945,-0.16228c-0.28517,0.1984 -0.63208,0.3141 -1.00586,0.31249c-0.41348,-0.00178 -0.79284,-0.14682 -1.09128,-0.38789c-0.1539,0.04348 -0.31638,0.06643 -0.48429,0.0657c-0.96649,-0.00417 -1.74661,-0.79104 -1.74244,-1.75753c0.00417,-0.96649 0.79104,-1.74661 1.75753,-1.74244c0.2882,0.00124 0.55982,0.07208 0.79903,0.19653c0.04801,-0.00538 0.09685,-0.00805 0.14634,-0.00784z" fill="#70b012" stroke="none" stroke-width="0.5"/><path d="M325.53163,161.246c0.96649,0.00417 1.74661,0.79104 1.74244,1.75753c-0.00417,0.96649 -0.79104,1.74661 -1.75753,1.74244c-0.43236,-0.00186 -0.82742,-0.16037 -1.13165,-0.42151c-0.26728,0.16306 -0.58161,0.25642 -0.91767,0.25498c-0.96649,-0.00417 -1.74661,-0.79104 -1.74244,-1.75753c0.00417,-0.96649 0.79104,-1.74661 1.75753,-1.74244c0.43236,0.00186 0.82742,0.16037 1.13165,0.42151c0.26728,-0.16306 0.58161,-0.25642 0.91767,-0.25498z" fill="#70b012" stroke="none" stroke-width="0.5"/><path d="M264.94158,135.4534c0.00298,-0.69035 0.56502,-1.24758 1.25538,-1.2446c0.69035,0.00298 1.24758,0.56502 1.2446,1.25538c-0.00298,0.69035 -0.56502,1.24758 -1.25538,1.2446c-0.69035,-0.00298 -1.24758,-0.56502 -1.2446,-1.25538z" fill="#7a6c00" stroke="none" stroke-width="0.5"/><path d="M317.13311,136.78233c0.00298,-0.69035 0.56502,-1.24758 1.25538,-1.2446c0.69035,0.00298 1.24758,0.56502 1.2446,1.25538c-0.00298,0.69035 -0.56502,1.24758 -1.25538,1.2446c-0.69035,-0.00298 -1.24758,-0.56502 -1.2446,-1.25538z" fill="#7a6c00" stroke="none" stroke-width="0.5"/><path d="M320.91841,136.64095c0.00298,-0.69035 0.56502,-1.24758 1.25538,-1.2446c0.69035,0.00298 1.24758,0.56502 1.2446,1.25538c-0.00298,0.69035 -0.56502,1.24758 -1.25538,1.2446c-0.69035,-0.00298 -1.24758,-0.56502 -1.2446,-1.25538z" fill="#7a6c00" stroke="none" stroke-width="0.5"/><path d="M257.45931,151.82148c0.00298,-0.69035 0.56502,-1.24758 1.25538,-1.2446c0.69035,0.00298 1.24758,0.56502 1.2446,1.25538c-0.00298,0.69035 -0.56502,1.24758 -1.25538,1.2446c-0.69035,-0.00298 -1.24758,-0.56502 -1.2446,-1.25538z" fill="#84930f" stroke="none" stroke-width="0.5"/><path d="M260.13669,152.6215c0.00298,-0.69035 0.56502,-1.24758 1.25538,-1.2446c0.69035,0.00298 1.24758,0.56502 1.2446,1.25538c-0.00298,0.69035 -0.56502,1.24758 -1.25538,1.2446c-0.69035,-0.00298 -1.24758,-0.56502 -1.2446,-1.25538z" fill="#84930f" stroke="none" stroke-width="0.5"/><path d="M317.85425,152.3973c0.00298,-0.69035 0.56502,-1.24758 1.25538,-1.2446c0.69035,0.00298 1.24758,0.56502 1.2446,1.25538c-0.00298,0.69035 -0.56502,1.24758 -1.25538,1.2446c-0.69035,-0.00298 -1.24758,-0.56502 -1.2446,-1.25538z" fill="#84930f" stroke="none" stroke-width="0.5"/><path d="M263.08117,164.61907c0.00298,-0.69035 0.56502,-1.24758 1.25538,-1.2446c0.69035,0.00298 1.24758,0.56502 1.2446,1.25538c-0.00298,0.69035 -0.56502,1.24758 -1.25538,1.2446c-0.69035,-0.00298 -1.24758,-0.56502 -1.2446,-1.25538z" fill="#70b012" stroke="none" stroke-width="0.5"/><path d="M321.41858,164.25139c0.69035,0.00298 1.24758,0.56502 1.2446,1.25538c-0.00298,0.69035 -0.56502,1.24758 -1.25538,1.2446c-0.21779,-0.00094 -0.42234,-0.05752 -0.60022,-0.15622c-0.23031,0.28493 -0.5832,0.46651 -0.97807,0.46481c-0.69035,-0.00298 -1.24758,-0.56502 -1.2446,-1.25538c0.00298,-0.69035 0.56502,-1.24758 1.25538,-1.2446c0.21779,0.00094 0.42234,0.05752 0.60022,0.15622c0.23031,-0.28493 0.5832,-0.46651 0.97807,-0.46481z" fill="#70b012" stroke="none" stroke-width="0.5"/><path d="M257.69764,139.36455c0.00179,-0.41421 0.33902,-0.74855 0.75323,-0.74676c0.41421,0.00179 0.74855,0.33902 0.74676,0.75323c-0.00179,0.41421 -0.33902,0.74855 -0.75323,0.74676c-0.41421,-0.00179 -0.74855,-0.33902 -0.74676,-0.75323z" fill="#7a6c00" stroke="none" stroke-width="0.5"/><path d="M264.62864,141.1291c0.00179,-0.41421 0.33902,-0.74855 0.75323,-0.74676c0.41421,0.00179 0.74855,0.33902 0.74676,0.75323c-0.00179,0.41421 -0.33902,0.74855 -0.75323,0.74676c-0.41421,-0.00179 -0.74855,-0.33902 -0.74676,-0.75323z" fill="#7a6c00" stroke="none" stroke-width="0.5"/><path d="M316.6679,141.19579c0.00179,-0.41421 0.33902,-0.74855 0.75323,-0.74676c0.41421,0.00179 0.74855,0.33902 0.74676,0.75323c-0.00179,0.41421 -0.33902,0.74855 -0.75323,0.74676c-0.41421,-0.00179 -0.74855,-0.33902 -0.74676,-0.75323z" fill="#7a6c00" stroke="none" stroke-width="0.5"/><path d="M319.49822,143.10034c0.00179,-0.41421 0.33902,-0.74855 0.75323,-0.74676c0.41421,0.00179 0.74855,0.33902 0.74676,0.75323c-0.00179,0.41421 -0.33902,0.74855 -0.75323,0.74676c-0.41421,-0.00179 -0.74855,-0.33902 -0.74676,-0.75323z" fill="#7a6c00" stroke="none" stroke-width="0.5"/><path d="M260.93642,156.25196c0.00179,-0.41421 0.33902,-0.74855 0.75323,-0.74676c0.41421,0.00179 0.74855,0.33902 0.74676,0.75323c-0.00179,0.41421 -0.33902,0.74855 -0.75323,0.74676c-0.41421,-0.00179 -0.74855,-0.33902 -0.74676,-0.75323z" fill="#84930f" stroke="none" stroke-width="0.5"/><path d="M264.88826,154.06126c0.00179,-0.41421 0.33902,-0.74855 0.75323,-0.74676c0.41421,0.00179 0.74855,0.33902 0.74676,0.75323c-0.00179,0.41421 -0.33902,0.74855 -0.75323,0.74676c-0.41421,-0.00179 -0.74855,-0.33902 -0.74676,-0.75323z" fill="#84930f" stroke="none" stroke-width="0.5"/><path d="M318.01642,157.60195c0.00179,-0.41421 0.33902,-0.74855 0.75323,-0.74676c0.41421,0.00179 0.74855,0.33902 0.74676,0.75323c-0.00179,0.41421 -0.33902,0.74855 -0.75323,0.74676c-0.41421,-0.00179 -0.74855,-0.33902 -0.74676,-0.75323z" fill="#84930f" stroke="none" stroke-width="0.5"/><path d="M322.90013,158.72688c0.00179,-0.41421 0.33902,-0.74855 0.75323,-0.74676c0.41421,0.00179 0.74855,0.33902 0.74676,0.75323c-0.00179,0.41421 -0.33902,0.74855 -0.75323,0.74676c-0.41421,-0.00179 -0.74855,-0.33902 -0.74676,-0.75323z" fill="#84930f" stroke="none" stroke-width="0.5"/><path d="M260.8895,167.13275c0.00179,-0.41421 0.33902,-0.74855 0.75323,-0.74676c0.41421,0.00179 0.74855,0.33902 0.74676,0.75323c-0.00179,0.41421 -0.33902,0.74855 -0.75323,0.74676c-0.41421,-0.00179 -0.74855,-0.33902 -0.74676,-0.75323z" fill="#70b012" stroke="none" stroke-width="0.5"/><path d="M266.71938,168.26175c0.00179,-0.41421 0.33902,-0.74855 0.75323,-0.74676c0.41421,0.00179 0.74855,0.33902 0.74676,0.75323c-0.00179,0.41421 -0.33902,0.74855 -0.75323,0.74676c-0.41421,-0.00179 -0.74855,-0.33902 -0.74676,-0.75323z" fill="#70b012" stroke="none" stroke-width="0.5"/><path d="M313.23397,169.5662c0.00179,-0.41421 0.33902,-0.74855 0.75323,-0.74676c0.41421,0.00179 0.74855,0.33902 0.74676,0.75323c-0.00179,0.41421 -0.33902,0.74855 -0.75323,0.74676c-0.41421,-0.00179 -0.74855,-0.33902 -0.74676,-0.75323z" fill="#70b012" stroke="none" stroke-width="0.5"/><path d="M321.73237,173.54524c0.00179,-0.41421 0.33902,-0.74855 0.75323,-0.74676c0.41421,0.00179 0.74855,0.33902 0.74676,0.75323c-0.00179,0.41421 -0.33902,0.74855 -0.75323,0.74676c-0.41421,-0.00179 -0.74855,-0.33902 -0.74676,-0.75323z" fill="#70b012" stroke="none" stroke-width="0.5"/><path d="M326.16681,169.14888c0.00179,-0.41421 0.33902,-0.74855 0.75323,-0.74676c0.41421,0.00179 0.74855,0.33902 0.74676,0.75323c-0.00179,0.41421 -0.33902,0.74855 -0.75323,0.74676c-0.41421,-0.00179 -0.74855,-0.33902 -0.74676,-0.75323z" fill="#70b012" stroke="none" stroke-width="0.5"/></g><path d="M267.73658,148.67651c0.05592,-12.96789 11.17948,-24.36876 24.14737,-24.31284c12.96789,0.05592 24.17589,12.48917 24.11997,25.45706c-0.05592,12.96789 -9.67448,22.69028 -22.64237,22.63437c-12.96789,-0.05592 -25.68089,-10.81071 -25.62497,-23.7786z" fill="#000000" stroke="#000000" stroke-width="0" stroke-linecap="butt"/><path d="M345.37292,172.6794c-12.96789,-0.05592 -22.6822,-11.54665 -22.62628,-24.51454c0.05592,-12.96789 11.53857,-20.81005 24.50646,-20.75413c12.96789,0.05592 23.44399,8.55442 23.38807,21.52231c-0.05592,12.96789 -12.30036,23.80227 -25.26825,23.74635z" fill="#000000" stroke="#000000" stroke-width="0" stroke-linecap="butt"/><path d="M334.7288,192.35206c0,0 -10.50623,1.62138 -15.50582,1.55816c-4.99994,-0.06323 -14.49282,-1.93752 -14.49282,-1.93752" fill="none" stroke="#000000" stroke-width="0" stroke-linecap="round"/></g><path d="" fill="none" stroke="#000000" stroke-width="2" stroke-linecap="round"/><g stroke-linecap="butt"><path d="M290.66708,173.94055c-0.04617,0.14664 -0.0916,0.293 -0.13623,0.43906c-0.21588,0.70653 -0.37477,1.407 -0.53944,2.08709c-0.12591,3.22503 -0.28218,6.70614 0.42254,9.74602c0,0 0.16696,0.73119 -0.56423,0.89813c-0.73119,0.16696 -0.89813,-0.56423 -0.89813,-0.56423c-0.19238,-0.85404 -0.34732,-1.72524 -0.47084,-2.61024c-0.00541,0.00027 -0.01084,0.00046 -0.01629,0.00061c-0.41406,0.01121 -0.75882,-0.31535 -0.77004,-0.72941l-0.02496,-0.92102c-0.01239,-0.45723 -0.03131,-0.89665 -0.03403,-1.33093c-0.00442,-0.01769 -0.00877,-0.03544 -0.01302,-0.05328c-0.26853,-0.10823 -0.46128,-0.36774 -0.46962,-0.67562l-0.03104,-1.14572c-0.17263,-6.37143 -0.57542,-12.73332 -0.74807,-19.10506c-0.03868,-1.42757 -0.51999,-3.76216 -0.06743,-5.3165c-0.02809,-0.12451 -0.05586,-0.24908 -0.08329,-0.37374l0.02239,-0.07249l-0.02778,0.00075l-0.03743,-1.38155c-0.01121,-0.41406 0.31535,-0.75882 0.72941,-0.77004c0.41406,-0.01121 0.75882,0.31535 0.77004,0.72941l0.00335,0.12358l0.11703,-0.525c0.0671,-0.33543 0.3587,-0.59225 0.71514,-0.60191c0.13414,-0.00363 0.26101,0.02818 0.37161,0.08694l0.04561,-0.20599c0.06672,-0.33592 0.35855,-0.59325 0.71534,-0.60292c0.41406,-0.01121 0.75882,0.31535 0.77004,0.72941l0.04062,1.49945l-0.28614,0.00776c0.08254,0.91524 0.06566,1.84337 -0.00443,2.77775c0.09959,0.40989 0.18921,0.82383 0.27133,1.24029l0.07963,0.18444l-0.04043,0.01746c0.03044,0.15917 0.05984,0.31868 0.08836,0.47843c0.90903,1.70088 1.49154,3.66152 1.86719,5.73045c0.06266,-0.65652 0.13512,-1.3142 0.21857,-1.97343c0.06635,-0.52413 0.12248,-1.02651 0.1805,-1.5116c-0.00194,-0.07178 -0.00389,-0.14357 -0.00583,-0.21536c-0.06748,-2.49029 -0.3404,-4.82755 0.1145,-7.14036l-0.27748,-0.03508l0.18663,-1.4766c0.04012,-0.36687 0.34598,-0.65697 0.72522,-0.66724c0.40377,-0.01094 0.74163,0.29931 0.76858,0.69868l0.11014,1.49175c0.03204,0.4339 0.06209,0.86799 0.09036,1.30226c0.07932,-0.03138 0.16537,-0.04966 0.25559,-0.0521c0.41406,-0.01121 0.75882,0.31535 0.77004,0.72941l0.03743,1.38155l-0.00798,0.00022l0.00822,0.02749c-0.07832,1.61763 -0.35002,3.24719 -0.73986,4.87673c0.13389,4.2441 0.18095,8.49447 0.29577,12.73237c0.0668,2.46549 0.57295,5.18937 -0.08828,7.52901l0.00721,0.08613l0.26456,0.06174l-0.21417,0.91771c-0.06974,0.33198 -0.35976,0.58529 -0.7137,0.59488c-0.40158,0.01088 -0.73795,-0.29595 -0.76812,-0.69218l-0.06002,-0.71743c-0.13297,0.17104 -0.33861,0.28338 -0.57208,0.28971c-0.36853,0.00998 -0.68216,-0.24762 -0.75458,-0.59632l-0.25836,-1.1315l0.19387,-0.04427c-0.73657,-1.84596 -0.99478,-3.79622 -1.44147,-5.83097c-0.03121,-0.14217 -0.06189,-0.28436 -0.09205,-0.42657z" fill="#43663c" stroke="none" stroke-width="0.5"/><g stroke="#000000" stroke-width="0"><path d="M265.21226,197.2025c-1.97429,-12.81684 6.81535,-24.80741 19.63218,-26.7817c12.81684,-1.97429 24.80741,6.81534 26.7817,19.63217c1.97429,12.81684 -6.81534,24.80742 -19.63217,26.78171c-12.81684,1.97429 -24.80742,-6.81535 -26.78171,-19.63218z" fill="url(#color-1)"/><path d="M272.29325,204.83547c-0.83748,-5.43681 2.89101,-10.52314 8.32784,-11.36062c5.43681,-0.83748 10.52314,2.89101 11.36062,8.32785c0.83748,5.43681 -2.89101,10.52315 -8.32784,11.36063c-5.43681,0.83748 -10.52314,-2.89101 -11.36062,-8.32785z" fill="#000000"/></g><path d="M287.34066,153.45149c0.00373,0.13802 -0.10512,0.25294 -0.24314,0.25668c-0.03952,0.00107 -0.07714,-0.00708 -0.1108,-0.02251c-0.123,0.09821 -0.2778,0.15866 -0.44725,0.16325c-0.31979,0.00866 -0.59822,-0.18415 -0.71361,-0.46312c-0.33667,-0.00422 -0.67152,-0.00768 -1.00411,-0.00973c0.13226,0.13111 0.21619,0.31139 0.22163,0.51225c0.01121,0.41406 -0.31535,0.75882 -0.72941,0.77004c-0.41406,0.01121 -0.75882,-0.31535 -0.77004,-0.72941c-0.00585,-0.2159 0.08013,-0.41296 0.22249,-0.55372c-0.41475,0.00223 -0.82511,0.00791 -1.23018,0.0184l-0.05106,-0.02286l-0.00216,0.01861l-1.29961,-0.1505c-0.37026,-0.03688 -0.66409,-0.34425 -0.67443,-0.72598c-0.01079,-0.3982 0.29081,-0.73229 0.68221,-0.7673l1.48659,-0.14674l0.01721,0.17438c1.49055,-0.37859 3.04815,-0.58373 4.62273,-0.71279c-0.01941,-0.01228 -0.03865,-0.02569 -0.05745,-0.04035c-0.20324,0.0055 -0.40647,0.01102 -0.60971,0.01652c-1.88129,0.05097 -3.76257,0.10195 -5.64386,0.15291l-1.28064,0.0347c-0.41406,0.01121 -0.75882,-0.31535 -0.77004,-0.72941c-0.01034,-0.38184 0.26657,-0.70475 0.63446,-0.76148l1.2941,-0.22079l0.03052,0.17892c0.04747,-0.00129 0.14592,-0.00395 0.1934,-0.00524c1.36526,-0.37086 2.69833,-0.41556 4.36035,-0.4846l0.55875,-0.02316c0,0 0.47962,-0.01989 0.68735,0.35588c3.08188,-0.08351 6.16376,-0.167 9.24563,-0.25051c1.43268,-0.03882 3.41267,-0.4542 4.94721,-0.13404c0.08741,-0.00237 0.60923,-0.0165 0.69663,-0.01887l1.49945,-0.04062c0.41406,-0.01121 0.75882,0.31535 0.77004,0.72941c0.01121,0.41406 -0.31535,0.75882 -0.72941,0.77004c-0.70691,0.01915 -2.91328,0.07893 -3.6202,0.09808c-1.23444,0.09248 -2.48231,0.09656 -3.75449,0.11263c0.13697,0.1205 0.22991,0.29036 0.25047,0.48275c0.62608,0.01854 1.21814,0.02785 1.75864,0.0141l0.05869,0.03047l0.00342,-0.02438l1.10664,0.15524c0.3624,0.04429 0.64762,0.34814 0.65781,0.72414c0.01121,0.41406 -0.31535,0.75882 -0.72941,0.77004l-1.49945,0.04062l-0.00423,-0.15596c-1.38485,0.28168 -2.82959,0.43546 -4.29864,0.51522c0.12509,0.12995 0.20397,0.30516 0.20924,0.49968c0.01121,0.41406 -0.31535,0.75882 -0.72941,0.77004c-0.41406,0.01121 -0.75882,-0.31535 -0.77004,-0.72941c-0.00505,-0.18641 0.05837,-0.35878 0.1674,-0.49299c-1.53528,0.04739 -3.08702,0.02978 -4.61538,0.0074c0.00295,0.01427 0.00468,0.02902 0.0051,0.04411z" fill="#000000" stroke="none" stroke-width="0.5"/><path d="M286.93291,154.58626c-0.01121,-0.41406 0.31535,-0.75882 0.72941,-0.77004c0.41406,-0.01121 0.75882,0.31535 0.77004,0.72941c0.01121,0.41406 -0.31535,0.75882 -0.72941,0.77004c-0.41406,0.01121 -0.75882,-0.31535 -0.77004,-0.72941z" fill="#000000" stroke="none" stroke-width="0.5"/><path d="M295.19786,155.48603c-0.01121,-0.41406 0.31535,-0.75882 0.72941,-0.77004c0.41406,-0.01121 0.75882,0.31535 0.77004,0.72941c0.01121,0.41406 -0.31535,0.75882 -0.72941,0.77004c-0.41406,0.01121 -0.75882,-0.31535 -0.77004,-0.72941z" fill="#000000" stroke="none" stroke-width="0.5"/><path d="M292.59806,156.30562c-0.01121,-0.41406 0.31535,-0.75882 0.72941,-0.77004c0.41406,-0.01121 0.75882,0.31535 0.77004,0.72941c0.01121,0.41406 -0.31535,0.75882 -0.72941,0.77004c-0.41406,0.01121 -0.75882,-0.31535 -0.77004,-0.72941z" fill="#000000" stroke="none" stroke-width="0.5"/><path d="M281.42493,158.6685c-0.01121,-0.41406 0.31535,-0.75882 0.72941,-0.77004c0.41406,-0.01121 0.75882,0.31535 0.77004,0.72941c0.01121,0.41406 -0.31535,0.75882 -0.72941,0.77004c-0.41406,0.01121 -0.75882,-0.31535 -0.77004,-0.72941z" fill="#000000" stroke="none" stroke-width="0.5"/><path d="M289.30545,159.20413c-0.01121,-0.41406 0.31535,-0.75882 0.72941,-0.77004c0.41406,-0.01121 0.75882,0.31535 0.77004,0.72941c0.01121,0.41406 -0.31535,0.75882 -0.72941,0.77004c-0.41406,0.01121 -0.75882,-0.31535 -0.77004,-0.72941z" fill="#000000" stroke="none" stroke-width="0.5"/><path d="M288.72248,153.78863c-0.00373,-0.13802 0.10512,-0.25294 0.24314,-0.25668c0.13802,-0.00373 0.25294,0.10512 0.25668,0.24314c0.00373,0.13802 -0.10512,0.25294 -0.24314,0.25668c-0.13802,0.00373 -0.25294,-0.10512 -0.25668,-0.24314z" fill="#000000" stroke="none" stroke-width="0.5"/><path d="M292.50601,155.18439c-0.00373,-0.13802 0.10512,-0.25294 0.24314,-0.25668c0.13802,-0.00373 0.25294,0.10512 0.25668,0.24314c0.00373,0.13802 -0.10512,0.25294 -0.24314,0.25668c-0.13802,0.00373 -0.25294,-0.10512 -0.25668,-0.24314z" fill="#000000" stroke="none" stroke-width="0.5"/><path d="M285.82444,157.42558c-0.00373,-0.13802 0.10512,-0.25294 0.24314,-0.25668c0.13802,-0.00373 0.25294,0.10512 0.25668,0.24314c0.00373,0.13802 -0.10512,0.25294 -0.24314,0.25668c-0.13802,0.00373 -0.25294,-0.10512 -0.25668,-0.24314z" fill="#000000" stroke="none" stroke-width="0.5"/><path d="M287.31149,157.01072c-0.00373,-0.13802 0.10512,-0.25294 0.24314,-0.25668c0.13802,-0.00373 0.25294,0.10512 0.25668,0.24314c0.00373,0.13802 -0.10512,0.25294 -0.24314,0.25668c-0.13802,0.00373 -0.25294,-0.10512 -0.25668,-0.24314z" fill="#000000" stroke="none" stroke-width="0.5"/></g><g><path d="M365.12729,163.76771l2.20125,6.51667l-6.98295,-2.30236z" fill="#000000" stroke="#000000" stroke-width="0" stroke-linecap="round"/><path d="M343.82864,158.24307c0.1725,0.00129 0.30502,0.04196 0.40683,0.10382c-0.28694,-3.97935 -0.15912,-8.15473 0.55116,-11.88988c0.0522,-0.4872 0.10441,-0.97438 0.15661,-1.46157l0.08627,-0.80198c0.03647,-0.38286 0.36037,-0.68094 0.7522,-0.678c0.34852,0.00261 0.63974,0.24253 0.72149,0.56532l0.39684,1.42935l-0.25747,0.07148c0.73946,2.20668 0.85181,4.57197 1.14279,6.9739c0.41305,3.40949 0.52285,6.90419 0.67384,10.38331c0.06705,0.29739 0.1336,0.59283 0.1993,0.88606c0.09807,-1.35576 0.17511,-2.71253 0.23616,-4.07008c-0.23401,-1.99922 -0.43334,-4.00706 -0.6431,-6.03466l-0.20828,-1.46111c-0.00647,-0.04056 -0.00969,-0.08219 -0.00936,-0.12463c0.00311,-0.4142 0.3414,-0.74747 0.7556,-0.74436c0.08718,0.00066 0.17076,0.01615 0.24839,0.04408c-0.07442,-1.18339 -0.15053,-2.48391 0.10726,-3.54741c0.00185,-0.23796 0.00364,-0.47592 0.00543,-0.71388h-0.00001l0.01124,-1.49996c0.00311,-0.4142 0.3414,-0.74747 0.7556,-0.74436c0.4142,0.00311 0.74747,0.3414 0.74436,0.7556l-0.00608,0.81219c-0.00017,0.02328 -0.00035,0.04655 -0.00052,0.06983c0.05513,-0.01244 0.11255,-0.01883 0.1715,-0.01839c0.29939,0.00224 0.5565,0.17961 0.67485,0.43419l0.44662,0.9102l-0.02618,0.01285l0.05755,0.06075c1.51266,6.01873 2.32903,12.07573 3.19013,18.20416c0.40541,2.8853 1.1977,5.64997 0.98948,8.4612l0.27488,0.00206l-0.01124,1.49996c-0.00311,0.4142 -0.3414,0.74747 -0.7556,0.74436c-0.35692,-0.00267 -0.65374,-0.25423 -0.72702,-0.58878l-0.21466,-0.88684c-1.2556,-3.85802 -2.367,-7.76844 -3.45088,-11.68273c-0.00976,0.59775 -0.01887,1.19552 -0.02752,1.79328c0.12005,0.71161 0.24831,1.42469 0.3863,2.14011c0.3835,1.98851 1.06332,3.48565 1.04069,5.22765l0.31782,0.00238l-0.00863,1.15168c-0.00311,0.4142 -0.3414,0.74747 -0.7556,0.74436c-0.32192,-0.00241 -0.59495,-0.20729 -0.69918,-0.49293l-0.2714,-0.69352l0.09572,0.49794c0.01113,0.05234 0.0168,0.10667 0.01638,0.16239c-0.00311,0.4142 -0.3414,0.74747 -0.7556,0.74436c-0.35692,-0.00267 -0.65374,-0.25423 -0.72702,-0.58878l-0.21975,-0.90781l0.04158,-0.01007l-0.05769,-0.08032c0.00021,-0.17303 0.0005,-0.34606 0.00089,-0.51908c-0.07653,-0.10302 -0.14838,-0.21551 -0.21601,-0.3359c-0.02554,0.17077 -0.05376,0.3412 -0.08517,0.51126l0.00311,0.0195l0.18161,0.00136l-0.00863,1.15168c-0.00311,0.4142 -0.3414,0.74747 -0.7556,0.74436c-0.37644,-0.00282 -0.68603,-0.28249 -0.73702,-0.6444l-0.21804,-1.37156c-0.4899,-3.11666 -0.67525,-6.31971 -0.82039,-9.53719c-0.36806,-1.49541 -0.7196,-3.02594 -1.03032,-4.56537c-0.00033,0.61751 0.0007,1.23537 0.00282,1.8534c0.05595,0.47273 0.11776,0.94041 0.18514,1.40182c0.48692,3.33455 1.34497,6.1528 1.31938,9.56973c0,0 -0.00561,0.74998 -0.7556,0.74436c-0.38858,-0.00291 -0.57433,-0.20565 -0.6631,-0.40036c0.00645,1.18994 0.00967,2.37739 0.00735,3.56133l-0.00863,1.15168c-0.00311,0.4142 -0.3414,0.74747 -0.7556,0.74436c-0.4142,-0.00311 -0.74747,-0.3414 -0.74436,-0.7556l0.00863,-1.15168c0.00209,-0.14687 0.00402,-0.29383 0.00578,-0.44084c-0.40913,-0.97569 -0.28988,-2.4408 -0.46332,-3.43809c-0.62115,-3.57173 -1.06526,-7.59523 -1.04179,-11.22285l0.01119,-1.49439c0,0 0.00561,-0.74998 0.7556,-0.74436zM351.38514,158.39291c0.19138,0.73392 0.37716,1.47325 0.57485,2.21285c0.65512,2.45083 1.33497,4.90322 2.04716,7.3458c-0.00375,-0.01896 -0.00757,-0.03783 -0.01145,-0.05663c-0.97896,-4.74295 -1.52522,-9.54031 -2.36892,-14.3046c-0.06664,0.74272 -0.13817,1.4436 -0.15839,2.03538c-0.03152,0.92259 -0.05899,1.84497 -0.08325,2.76721z" fill="#43663c" stroke="none" stroke-width="0.5" stroke-linecap="butt"/><g stroke="#000000" stroke-width="0" stroke-linecap="butt"><path d="M346.2651,200.62698c-12.22604,-4.32356 -18.63227,-17.73966 -14.3087,-29.96571c4.32356,-12.22604 17.73965,-18.63227 29.9657,-14.30871c12.22604,4.32356 18.63228,17.73965 14.30872,29.9657c-4.32356,12.22604 -17.73966,18.63228 -29.96571,14.30871z" fill="url(#color-2)"/><path d="M367.26385,183.75948c-2.17334,6.1457 -8.91723,9.36592 -15.06291,7.19258c-6.14569,-2.17333 -9.3659,-8.91725 -7.19257,-15.06292c2.17334,-6.1457 8.91724,-9.36591 15.06292,-7.19258c6.14569,2.17333 9.3659,8.91724 7.19257,15.06291z" fill="#000000"/></g><path d="M345.51463,148.98638c0.00311,-0.4142 0.3414,-0.74747 0.7556,-0.74436c0.4142,0.00311 0.74747,0.3414 0.74436,0.7556c-0.00311,0.4142 -0.3414,0.74747 -0.7556,0.74436c-0.4142,-0.00311 -0.74747,-0.3414 -0.74436,-0.7556z" fill="#000000" stroke="none" stroke-width="0.5" stroke-linecap="butt"/><path d="M351.68842,149.59429c0.00311,-0.4142 0.3414,-0.74747 0.7556,-0.74436c0.4142,0.00311 0.74747,0.3414 0.74436,0.7556c-0.00311,0.4142 -0.3414,0.74747 -0.7556,0.74436c-0.4142,-0.00311 -0.74747,-0.3414 -0.74436,-0.7556z" fill="#000000" stroke="none" stroke-width="0.5" stroke-linecap="butt"/><path d="M346.11645,143.62479l-0.42245,0.02345c-0.05338,0.01483 -0.10037,0.02896 -0.14154,0.04254c0.15647,-0.0087 0.31387,-0.01567 0.47205,-0.02109zM345.23281,143.61739c-0.13322,-0.00643 -0.23876,-0.11698 -0.23775,-0.25158c0.00104,-0.13807 0.1138,-0.24916 0.25187,-0.24812l0.8744,0.00655c0.13807,0.00104 0.24916,0.1138 0.24812,0.25187c-0.00054,0.07117 -0.03075,0.13517 -0.07882,0.18034l0.041,0.10468c0.26539,-0.00577 0.53265,-0.00745 0.80103,-0.00578c1.07607,-0.05878 2.17504,-0.08511 3.17391,-0.01101c0.13109,-0.01293 0.26203,-0.02727 0.39279,-0.04314c0.6637,-0.08057 1.31274,-0.21088 1.96025,-0.34321c-0.80476,0.00878 -1.61052,-0.03292 -2.41557,-0.03895c-2.84379,-0.0213 -5.72163,-0.21422 -8.53087,-0.6331c0,0 -0.74165,-0.11163 -0.63003,-0.85328c0.11163,-0.74165 0.85328,-0.63003 0.85328,-0.63003c3.24754,0.49371 6.53114,0.60305 9.81881,0.62766c0.08912,0.00066 2.64009,-0.02246 2.82042,0.13313c1.12157,0.9678 0.88186,1.6313 0.20915,2.13622c0.24439,0.00183 0.50385,0.00377 0.50385,0.00377c0.4142,0.00311 0.74747,0.3414 0.74436,0.7556c-0.00261,0.34852 -0.24253,0.63974 -0.56532,0.72149l-1.29731,0.36017l-0.0684,-0.24636c-0.32053,0.11841 -0.64705,0.22289 -0.97872,0.31485c-0.33643,0.16993 -0.66748,0.31338 -0.99583,0.43704c0.20553,0.13512 0.34049,0.3685 0.33851,0.63277c-0.00059,0.07797 -0.01305,0.15307 -0.03565,0.22359c0.13162,0.13627 0.21201,0.3222 0.21047,0.5266c-0.00311,0.4142 -0.3414,0.74747 -0.7556,0.74436c-0.17704,-0.00132 -0.33928,-0.06388 -0.4668,-0.16743c-0.12905,0.10163 -0.29222,0.16174 -0.46925,0.16042c-0.12209,-0.00092 -0.23713,-0.03094 -0.33862,-0.08346c0.09515,0.12678 0.15102,0.28462 0.14973,0.45537c-0.00311,0.4142 -0.3414,0.74747 -0.7556,0.74436c-0.03468,-0.00026 -0.0688,-0.00287 -0.1022,-0.00767c0.06486,0.11198 0.10157,0.24221 0.10053,0.38098c-0.00311,0.4142 -0.3414,0.74747 -0.7556,0.74436c-0.4142,-0.00311 -0.74747,-0.3414 -0.74436,-0.7556c0.00311,-0.4142 0.3414,-0.74747 0.7556,-0.74436c0.03468,0.00026 0.0688,0.00287 0.1022,0.00767c-0.06486,-0.11198 -0.10157,-0.24221 -0.10053,-0.38098c0.00311,-0.4142 0.3414,-0.74747 0.7556,-0.74436c0.12209,0.00092 0.23713,0.03094 0.33862,0.08346c-0.09493,-0.1265 -0.15077,-0.28393 -0.14974,-0.45423c-0.74331,-0.00543 -1.31906,0.01747 -1.83345,-0.013c-1.34049,0.08009 -2.69627,0.04866 -4.05463,0.00892c-0.03122,0.01367 -0.06576,0.02114 -0.10204,0.02087c-0.04019,-0.0003 -0.0781,-0.01008 -0.11162,-0.02717c-0.07696,-0.00228 -0.15394,-0.00458 -0.23092,-0.00687c0.30673,0.09596 0.52827,0.38346 0.52574,0.72151c-0.00311,0.4142 -0.3414,0.74747 -0.7556,0.74436c-0.4142,-0.00311 -0.74747,-0.3414 -0.74436,-0.7556c0.00262,-0.34948 0.24386,-0.64134 0.56799,-0.72216c-0.56182,-0.01601 -1.12363,-0.02977 -1.68453,-0.03396l-0.93606,-0.00701c0,0 -0.74998,-0.00561 -0.74436,-0.7556c0.00207,-0.27586 0.10484,-0.4495 0.23396,-0.55878l-0.41585,-0.00311c-0.4142,-0.00311 -0.74747,-0.3414 -0.74436,-0.7556c0.00311,-0.4142 0.3414,-0.74747 0.7556,-0.74436l0.58377,0.00437c-0.01474,-0.05961 -0.02235,-0.12202 -0.02188,-0.18626c0.00311,-0.4142 0.3414,-0.74747 0.7556,-0.74436l1.48412,0.01112c0.31066,0.00233 0.66296,-0.0096 1.04641,-0.03001c0.46119,-0.07667 0.93761,-0.13046 1.42439,-0.16613c0.00949,-0.03262 0.01948,-0.06465 0.03013,-0.09587z" fill="#000000" stroke="none" stroke-width="0.5" stroke-linecap="butt"/><path d="M343.44829,149.90703c0.00311,-0.4142 0.3414,-0.74747 0.7556,-0.74436c0.4142,0.00311 0.74747,0.3414 0.74436,0.7556c-0.00311,0.4142 -0.3414,0.74747 -0.7556,0.74436c-0.4142,-0.00311 -0.74747,-0.3414 -0.74436,-0.7556z" fill="#000000" stroke="none" stroke-width="0.5" stroke-linecap="butt"/><path d="M344.36472,152.535c0.00311,-0.4142 0.3414,-0.74747 0.7556,-0.74436c0.4142,0.00311 0.74747,0.3414 0.74436,0.7556c-0.00311,0.4142 -0.3414,0.74747 -0.7556,0.74436c-0.4142,-0.00311 -0.74747,-0.3414 -0.74436,-0.7556z" fill="#000000" stroke="none" stroke-width="0.5" stroke-linecap="butt"/><path d="M346.98569,152.55463c0.00311,-0.4142 0.3414,-0.74747 0.7556,-0.74436c0.4142,0.00311 0.74747,0.3414 0.74436,0.7556c-0.00311,0.4142 -0.3414,0.74747 -0.7556,0.74436c-0.4142,-0.00311 -0.74747,-0.3414 -0.74436,-0.7556z" fill="#000000" stroke="none" stroke-width="0.5" stroke-linecap="butt"/><path d="M355.80007,150.5612c0.00311,-0.4142 0.3414,-0.74747 0.7556,-0.74436c0.4142,0.00311 0.74747,0.3414 0.74436,0.7556c-0.00311,0.4142 -0.3414,0.74747 -0.7556,0.74436c-0.4142,-0.00311 -0.74747,-0.3414 -0.74436,-0.7556z" fill="#000000" stroke="none" stroke-width="0.5" stroke-linecap="butt"/><path d="M346.75645,149.9318c0.00104,-0.13807 0.1138,-0.24916 0.25187,-0.24812c0.13807,0.00104 0.24916,0.1138 0.24812,0.25187c-0.00104,0.13807 -0.1138,0.24916 -0.25187,0.24812c-0.13807,-0.00104 -0.24916,-0.1138 -0.24812,-0.25187z" fill="#000000" stroke="none" stroke-width="0.5" stroke-linecap="butt"/><path d="M349.93346,150.70449c0.00104,-0.13807 0.1138,-0.24916 0.25187,-0.24812c0.13807,0.00104 0.24916,0.1138 0.24812,0.25187c-0.00104,0.13807 -0.1138,0.24916 -0.25187,0.24812c-0.13807,-0.00104 -0.24916,-0.1138 -0.24812,-0.25187z" fill="#000000" stroke="none" stroke-width="0.5" stroke-linecap="butt"/></g><g stroke-width="0"><path d="M369.50189,174.6744l2.06314,6.95298l-7.60506,-2.43652z" fill="#000000" stroke="#000000" stroke-linecap="round"/><path d="M343.41527,119.58242c-1.20912,-0.93188 -1.93634,-2.40218 -1.83429,-4.05313c0.11509,-1.86197 1.25599,-3.48516 2.86128,-4.36096c1.4338,-2.1853 7.42489,-0.16873 9.19956,0.6287c6.48188,2.91258 12.48039,11.25222 14.77943,17.73393c7.21045,20.32854 -9.12782,42.30819 -5.90013,62.82243c1.80268,11.45725 10.05201,21.08963 12.19258,32.55231c0.69953,3.74598 0.49872,10.95466 -5.66815,10.92807c-1.76743,-0.00762 -3.27163,-1.34598 -4.44692,-2.55644c-0.92625,-0.95396 -0.28419,-5.23198 -0.28771,-5.9883c-0.01653,-3.54548 -2.19112,-7.35419 -3.52144,-10.47134c-2.96691,-6.95194 -8.23091,-15.27513 -8.78755,-23.06373c-1.44319,-20.19314 8.95372,-39.76293 6.56986,-59.88767c-0.44972,-3.79658 -6.29132,-10.64534 -8.89968,-12.42424c-1.00067,-0.68245 -2.08083,-0.72673 -3.16788,-0.81708c-0.48098,-0.00419 -0.94284,-0.07059 -1.37788,-0.19121c-0.40087,-0.09347 -0.79846,-0.23318 -1.18906,-0.45412c-0.19701,-0.11144 -0.36939,-0.24534 -0.52202,-0.39723z" fill="#c2d183" stroke="none" stroke-linecap="butt"/><path d="M369.2551,108.3292c0.59074,-2.36602 2.85059,-4.15274 5.43447,-4.14159c1.51114,0.00652 2.83551,0.62667 3.73433,1.61453c0.15483,0.17017 0.29703,0.35124 0.42539,0.54197c2.01582,1.80174 4.35724,3.36906 6.52583,5.003c0.03922,0.02955 0.05281,0.08351 0.09142,0.1138c18.9333,14.85354 14.2181,44.22889 11.80792,65.45279c-0.20275,1.7854 -0.63126,3.55506 -0.81929,5.34119c-0.24742,2.35014 -0.38004,4.70649 -0.43625,7.05794c-0.06153,2.57456 3.5055,6.57493 2.19371,9.161c-2.22575,4.38787 -4.30971,5.16414 -8.75264,3.26036c-4.23046,-1.81274 -3.64466,-17.85891 -3.51191,-19.77771c0.12401,-1.79252 0.78623,-4.14962 0.89954,-5.59081c0.8634,-10.98214 3.04392,-26.75887 1.35655,-38.88663c-0.80007,-5.75045 -2.71474,-11.86703 -7.04727,-15.87525c-3.24554,-3.0026 -12.7002,-6.82722 -12.05749,-12.64942c0.0244,-0.22106 0.07768,-0.42882 0.15572,-0.62515z" fill="#c2d183" stroke="none" stroke-linecap="butt"/><path d="M351.07858,114.23484c0.17318,-2.80184 2.66916,-5.06302 5.57493,-5.05049c0.45548,0.00196 0.89397,0.05968 1.30897,0.16641c1.13156,-0.288 2.81925,1.86753 3.47389,2.61001c3.07767,3.49068 5.49462,6.82327 7.92023,10.78302c12.15446,19.84192 1.78952,41.85845 1.09485,63.45602c-0.11187,3.47805 0.27937,7.57983 1.43439,10.84231c0.34562,0.97627 2.00105,2.91679 1.96206,3.54759c-0.10534,1.70422 -0.37575,3.7268 -1.70001,4.92649c-8.34298,7.55814 -11.22427,-8.23388 -11.74157,-11.99147c-0.16612,-1.20664 -0.34439,-2.5186 -0.40324,-3.74247c-0.86426,-17.97501 7.43824,-35.29579 3.70511,-53.36561c-1.2642,-6.11922 -5.35533,-11.61659 -9.2837,-16.24795c-0.7823,-0.9223 -4.61211,-4.47474 -3.34591,-5.93386z" fill="#b8ae43" stroke="none" stroke-linecap="butt"/><path d="M395.44973,165.39865c0.70492,0.88265 1.09173,2.01547 1.01548,3.24916c-0.11509,1.86197 -1.256,3.48517 -2.86128,4.36096c-0.55459,0.84528 -1.90237,0.85026 -3.06907,0.67655c-0.52985,-0.0789 -1.02235,-0.19464 -1.38624,-0.28528c-4.06522,-1.01257 -4.66282,-6.25292 -5.04371,-9.8979c-0.53556,-5.12524 -1.03973,-12.03815 -2.1507,-17.04822c-1.37345,-6.19382 -4.21426,-11.88022 -5.74852,-18.02987c-2.73489,-10.96209 -1.68956,-14.20546 -9.0713,-23.89511c-1.98705,-2.60831 -4.4618,-6.19723 -0.03818,-9.24114c4.98554,-3.43057 7.50255,1.40241 9.66197,4.15142c6.41247,8.16328 7.85351,16.23049 9.75176,26.27839c0.71309,3.7746 2.21532,6.56102 3.36121,10.21373c1.76011,5.61062 2.97491,11.41387 3.84052,17.25898c0.69092,4.66546 0.75,8.26367 1.73806,12.20833z" fill="#b8ae43" stroke="none" stroke-linecap="butt"/><path d="M373.81505,94.01614c1.19331,0.93285 1.90922,2.39372 1.80792,4.03264c-0.00276,0.04467 -0.00611,0.0892 -0.01006,0.13359c0.103,0.61129 -0.08128,1.17052 -0.44974,1.68182c-0.87554,1.90112 -2.87339,3.24474 -5.11515,3.23507c-2.00173,0.92866 -4.57621,-2.63432 -5.8624,-3.32564c-4.54118,-2.44086 -9.98757,-5.28231 -15.50874,-5.31307c-6.24126,-0.03478 -13.60459,1.07626 -19.4652,3.88245c-1.3694,0.65569 -3.47872,2.72937 -5.30736,2.96148c-2.81565,0.3574 -5.34527,0.68412 -6.45684,-3.23725c-1.84617,-6.51283 10.14351,-9.91079 14.54401,-11.16355c12.36342,-3.51968 25.2848,-3.49127 36.03257,3.01696c2.4177,1.46402 4.41399,2.47085 5.791,4.09549z" fill="#b8ae43" stroke="none" stroke-linecap="butt"/><path d="M370.69486,101.82265c0.79577,0.90506 1.24085,2.10572 1.15955,3.42105c-0.00276,0.04467 -0.00611,0.0892 -0.01006,0.13359c0.06456,0.38315 0.01626,0.74586 -0.11952,1.08912c5.77752,7.4383 13.95954,18.68188 12.76273,27.06751c-0.88387,6.19299 -1.14639,12.50502 -2.9893,18.54905c-1.88861,6.19386 -5.25313,12.50044 -5.13012,19.05542c0.16347,8.71038 4.4757,17.61041 6.73875,25.81194c2.34806,8.50958 4.25923,17.27652 6.9856,25.61796c0.89584,2.74089 0.39959,5.99351 -3.49681,7.20499c-7.39283,2.29858 -9.28005,-13.14182 -10.33651,-17.25365c-0.43202,-1.68148 -0.88485,-3.35693 -1.33536,-5.033c-0.65863,-2.45042 -1.26901,-4.91603 -1.99202,-7.34646c-2.68455,-9.02424 -7.4572,-19.00346 -7.10866,-28.6866c0.47064,-13.07581 7.54454,-24.5736 8.08529,-37.8818c0.40056,-9.85834 -9.76182,-17.72965 -14.4277,-25.01052c-0.4308,-0.67222 -0.65581,-1.48343 -0.67945,-2.32697c-0.00712,-0.16864 -0.00553,-0.33967 0.00517,-0.51268c0.02148,-0.34752 0.07869,-0.68673 0.168,-1.01431c0.00621,-0.02431 0.01261,-0.0486 0.01915,-0.07285c-1.11033,-0.61513 -2.41932,-1.14296 -3.79317,-1.57573c-2.74129,-0.8635 -5.74077,-1.34847 -7.93534,-1.39308c-4.80051,-0.09759 -9.53794,-0.66041 -14.25198,0.46748c-2.88494,0.69027 -7.0577,5.18157 -10.0496,3.16529c-1.41217,-0.95167 -2.65535,-2.56637 -2.67827,-4.26667c-0.08778,-6.51261 10.74813,-9.20467 15.80778,-9.48554c10.36023,-0.57512 29.26803,-0.26825 34.60185,10.27647z" fill="#b3c46f" stroke="none" stroke-linecap="butt"/><path d="M370.35237,106.78924c1.36633,0.27263 16.97525,27.76061 17.17231,28.98937c1.03277,6.43998 0.7866,13.0011 0.56171,19.59245c-0.24807,7.27094 -1.66479,14.47769 -1.8921,21.68849c-0.27273,8.65165 4.45206,16.89079 3.96485,25.48024c-0.38874,6.8533 -0.65226,13.70988 -1.27078,20.55969c-0.2412,2.67121 -2.1619,5.0652 -5.57493,5.05049c-3.41579,-0.01473 -5.03544,-2.42398 -4.9478,-5.09586c0.22015,-6.71149 0.89452,-13.42656 1.24482,-20.13982c0.40872,-7.83308 -3.19554,-16.18394 -3.89647,-24.04449c-0.61445,-6.89082 1.4402,-16.91305 1.83941,-23.36538c0.30934,-4.9999 0.46274,-10.75577 -0.13218,-15.76052c-0.22381,-1.88281 -1.1589,-4.21699 -0.66869,-6.10323c0.05656,-0.21763 -15.10407,-21.15168 -14.9979,-21.33946c0.92452,-1.63521 -1.27315,-5.85875 1.22205,-7.45842c2.4952,-1.59967 7.3757,1.94642 7.3757,1.94642z" fill="#c4de76" stroke="none" stroke-linecap="butt"/><path d="M345.78349,120.61013c-1.27057,0.78027 -5.76077,-1.88031 -7.46966,-1.88997c-1.65326,-0.00935 -3.30644,-0.02008 -4.96018,-0.02139c-2.45902,-0.00194 -3.51336,2.63289 -6.53792,2.40715c-3.49676,-0.26098 -5.19903,-4.95636 -3.62687,-7.95852c1.35727,-2.59179 4.39584,-2.8247 6.73065,-3.78521c4.55213,-1.87269 12.24376,-1.64251 17.02752,1.19023c2.01975,1.19601 3.52115,2.85597 4.04903,5.01747z" fill="#c2d183" stroke="none" stroke-linecap="butt"/><path d="M359.47152,109.37335c1.24982,0.92868 2.00633,2.42292 1.90238,4.10464c-0.00276,0.04467 -0.00611,0.0892 -0.01006,0.13359c0.103,0.61129 -0.08127,1.17052 -0.44973,1.68182c-0.87554,1.90112 -2.87339,3.24474 -5.11515,3.23507c-1.27676,0.59232 -2.23198,-0.07254 -3.02402,-0.97539c-0.70077,-0.51478 -1.24848,-1.20644 -1.57929,-2.00926c-0.15475,-0.16626 -0.3069,-0.30118 -0.45874,-0.39008c-2.46104,-1.4411 -5.78752,-3.58108 -8.82977,-3.99371c-3.31768,-0.44999 -7.40047,-0.51583 -10.59981,-0.48249c-2.09813,0.02186 -3.12498,3.70689 -6.22833,2.67557c-1.64342,-0.54615 -3.54029,-1.32731 -4.2365,-2.85501c-2.50928,-5.50617 5.56567,-9.10448 9.75536,-9.97266c8.24382,-1.70826 23.37964,1.62387 28.87365,8.84791z" fill="#b8ae43" stroke="none" stroke-linecap="butt"/></g><path d="M330.54677,89.54137c2.63839,-5.47475 -1.2867,-9.13188 3.19564,-15.44951c4.48234,-6.31763 5.88142,-10.49641 12.85028,-14.91418c6.96886,-4.41778 7.06622,-8.11169 19.48017,-5.58106c12.41394,2.53062 24.35456,11.0876 28.51301,15.36459c4.15846,4.27699 -0.27205,12.77679 1.1676,15.16202c1.43965,2.38523 1.75606,1.02731 6.32625,-2.74611c4.57019,-3.77341 10.40134,-11.06512 10.40134,-11.06512c0,0 -2.53702,14.30278 -7.12555,18.70264c-4.58854,4.39985 -9.25661,7.43048 -14.86246,2.38117c-5.60585,-5.04931 3.7556,-10.72265 -2.81963,-18.30778c-6.57523,-7.58512 -15.42657,-10.66113 -22.88598,-11.346c-7.45941,-0.68487 -12.59441,1.43716 -17.10953,7.67391c-4.51513,6.23676 -3.53523,14.23391 -5.09583,20.27996c-1.56061,6.04604 -7.74949,13.97117 -7.74949,13.97117c0,0 -2.72429,2.09674 -5.4719,1.11115c-2.7521,-0.98722 -3.02625,-7.24509 -3.02625,-7.24509c0,0 1.57392,-2.51703 4.21231,-7.99178z" fill="#026b00" stroke="#000000" stroke-width="0" stroke-linecap="round"/></g></g></svg>