<svg version="1.1" xmlns="http://www.w3.org/2000/svg" xmlns:xlink="http://www.w3.org/1999/xlink" width="213.18203" height="280.18476" viewBox="0,0,213.18203,280.18476"><defs><linearGradient x1="378.50437" y1="68.02754" x2="375.79983" y2="107.09201" gradientUnits="userSpaceOnUse" id="color-1"><stop offset="0" stop-color="#000000" stop-opacity="0"/><stop offset="1" stop-color="#000000" stop-opacity="0.12941"/></linearGradient><linearGradient x1="258.67497" y1="59.73142" x2="255.97042" y2="98.79589" gradientUnits="userSpaceOnUse" id="color-2"><stop offset="0" stop-color="#000000" stop-opacity="0"/><stop offset="1" stop-color="#000000" stop-opacity="0.12941"/></linearGradient></defs><g transform="translate(-214.52362,-38.88751)"><g stroke-miterlimit="10"><g stroke-linecap="butt"><g><path d="M286.35186,319.07226l15.14285,-131.8421l37.78325,-0.15789l13.57389,132z" fill="#ffffff" stroke="#000000" stroke-width="0"/><path d="M295.03756,243.4497c2.31163,-20.12635 6.45715,-56.21953 6.45715,-56.21953l37.78325,-0.15789c0,0 3.72623,36.23595 5.80113,56.41339c0.06797,0.66099 -50.13384,0.76769 -50.04153,-0.03597z" fill="#c5c5c5" stroke="#000000" stroke-width="0"/><path d="M296.28412,232.59645c2.01457,-17.53997 5.21059,-45.36629 5.21059,-45.36629l37.78325,-0.15789c0,0 4.66307,45.11419 4.71681,45.63673c0.00337,0.03279 -47.73775,0.12343 -47.71065,-0.11255z" fill="#7e7e7e" stroke="#000000" stroke-width="0"/><path d="M297.74772,219.85353c1.58763,-13.82276 3.74699,-32.62337 3.74699,-32.62337l37.78325,-0.15789c0,0 1.95261,18.98827 3.38375,32.9055c0.00712,0.06919 -44.92683,-0.01249 -44.91399,-0.12423z" fill="#424242" stroke="#000000" stroke-width="0"/><path d="M297.5,220.16667c0,-0.9665 0.7835,-1.75 1.75,-1.75c0.9665,0 1.75,0.7835 1.75,1.75c0,0.9665 -0.7835,1.75 -1.75,1.75c-0.9665,0 -1.75,-0.7835 -1.75,-1.75z" fill="#424242" stroke="none" stroke-width="0.5"/><path d="M306.91667,217.75c0.9665,0 1.75,0.7835 1.75,1.75c0,0.9665 -0.7835,1.75 -1.75,1.75c-0.3017,0 -0.58556,-0.07635 -0.83333,-0.21077c-0.24777,0.13442 -0.53163,0.21077 -0.83333,0.21077c-0.9665,0 -1.75,-0.7835 -1.75,-1.75c0,-0.9665 0.7835,-1.75 1.75,-1.75c0.3017,0 0.58556,0.07635 0.83333,0.21077c0.24777,-0.13442 0.53163,-0.21077 0.83333,-0.21077z" fill="#424242" stroke="none" stroke-width="0.5"/><path d="M308.5,220.66667c0,-0.53086 0.33092,-0.98441 0.79772,-1.16566c0.26193,-0.63635 0.88812,-1.08434 1.61894,-1.08434c0.41516,0 0.79655,0.14456 1.09658,0.3861c0.20911,-0.21861 0.49678,-0.36146 0.81767,-0.3832c0.22793,-0.10871 0.48307,-0.16956 0.75242,-0.16956c0.61869,0 1.16238,0.32105 1.47358,0.80564c0.19664,-0.75131 0.88013,-1.30564 1.69308,-1.30564c0.9665,0 1.75,0.7835 1.75,1.75c0,0.9665 -0.7835,1.75 -1.75,1.75c-0.61869,0 -1.16238,-0.32105 -1.47358,-0.80564c-0.19664,0.75131 -0.88013,1.30564 -1.69308,1.30564c-0.49626,0 -0.94428,-0.20656 -1.26275,-0.5384c-0.31903,0.42793 -0.82911,0.70506 -1.40392,0.70506c-0.22382,0 -0.43782,-0.04201 -0.63455,-0.11859c-0.16145,0.07606 -0.34182,0.11859 -0.53212,0.11859c-0.69036,0 -1.25,-0.55964 -1.25,-1.25z" fill="#424242" stroke="none" stroke-width="0.5"/><path d="M332.91667,217.41667c0.9665,0 1.75,0.7835 1.75,1.75c0,0.9665 -0.7835,1.75 -1.75,1.75c-0.58936,0 -1.11067,-0.29134 -1.42777,-0.73785c-0.44514,0.90452 -1.57223,0.90452 -1.57223,0.90452h-2.5c0,0 -0.86581,0 -1.37944,-0.609c-0.31412,0.46781 -0.84806,0.77567 -1.4539,0.77567c-0.48967,0 -0.93237,-0.20111 -1.25,-0.52525c-0.31763,0.32414 -0.76033,0.52525 -1.25,0.52525c-0.9665,0 -1.75,-0.7835 -1.75,-1.75c0,-0.9665 0.7835,-1.75 1.75,-1.75c0.48967,0 0.93237,0.20111 1.25,0.52525c0.31763,-0.32414 0.76033,-0.52525 1.25,-0.52525c0.53241,0 1.00929,0.23775 1.33026,0.61289c0.48235,-0.77955 1.50308,-0.77955 1.50308,-0.77955h2.5c0,0 0.97758,0 1.47143,0.73064c0.29928,-0.53536 0.87165,-0.89731 1.52857,-0.89731z" fill="#424242" stroke="none" stroke-width="0.5"/><path d="M338.83334,221.16667c0,0.69036 -0.55964,1.25 -1.25,1.25c-0.54428,0 -1.0073,-0.34785 -1.17889,-0.83337c-0.96087,-0.00657 -1.73778,-0.78753 -1.73778,-1.74995c0,-0.9665 0.7835,-1.75 1.75,-1.75c0.72825,0 1.35259,0.44482 1.61616,1.07759c0.15789,-0.80422 0.86669,-1.41092 1.71717,-1.41092c0.3841,0 0.73931,0.12375 1.02792,0.33355c0.95362,0.01492 1.72208,0.79261 1.72208,1.74979c0,0.9665 -0.7835,1.75 -1.75,1.75c-0.3841,0 -0.73931,-0.12375 -1.02792,-0.33356c-0.33122,-0.00518 -0.6401,-0.10237 -0.9022,-0.26715c0.00887,0.06006 0.01345,0.12151 0.01345,0.18403z" fill="#424242" stroke="none" stroke-width="0.5"/><path d="M296.66667,232.83334c0,-0.9665 0.7835,-1.75 1.75,-1.75c0.9665,0 1.75,0.7835 1.75,1.75c0,0.9665 -0.7835,1.75 -1.75,1.75c-0.9665,0 -1.75,-0.7835 -1.75,-1.75z" fill="#7e7e7e" stroke="none" stroke-width="0.5"/><path d="M300.66667,232.16667c0,-0.9665 0.7835,-1.75 1.75,-1.75c0.9665,0 1.75,0.7835 1.75,1.75c0,0.9665 -0.7835,1.75 -1.75,1.75c-0.9665,0 -1.75,-0.7835 -1.75,-1.75z" fill="#7e7e7e" stroke="none" stroke-width="0.5"/><path d="M310.08333,230.25c0.9665,0 1.75,0.7835 1.75,1.75c0,0.9665 -0.7835,1.75 -1.75,1.75c-0.60339,0 -1.13547,-0.30538 -1.45009,-0.77001c-0.29284,0.5569 -0.87703,0.93668 -1.54991,0.93668c-0.9665,0 -1.75,-0.7835 -1.75,-1.75c0,-0.9665 0.7835,-1.75 1.75,-1.75c0.60339,0 1.13546,0.30538 1.45008,0.77002c0.29284,-0.5569 0.87703,-0.93668 1.54992,-0.93668z" fill="#7e7e7e" stroke="none" stroke-width="0.5"/><path d="M314.33333,232.83334c0,-0.9665 0.7835,-1.75 1.75,-1.75c0.9665,0 1.75,0.7835 1.75,1.75c0,0.9665 -0.7835,1.75 -1.75,1.75c-0.9665,0 -1.75,-0.7835 -1.75,-1.75z" fill="#7e7e7e" stroke="none" stroke-width="0.5"/><path d="M322.16667,232.83334c0,-0.9665 0.7835,-1.75 1.75,-1.75c0.9665,0 1.75,0.7835 1.75,1.75c0,0.9665 -0.7835,1.75 -1.75,1.75c-0.9665,0 -1.75,-0.7835 -1.75,-1.75z" fill="#7e7e7e" stroke="none" stroke-width="0.5"/><path d="M327.83333,232.66667c0,-0.9665 0.7835,-1.75 1.75,-1.75c0.9665,0 1.75,0.7835 1.75,1.75c0,0.9665 -0.7835,1.75 -1.75,1.75c-0.9665,0 -1.75,-0.7835 -1.75,-1.75z" fill="#7e7e7e" stroke="none" stroke-width="0.5"/><path d="M331.5,232.66667c0,-0.9665 0.7835,-1.75 1.75,-1.75c0.9665,0 1.75,0.7835 1.75,1.75c0,0.9665 -0.7835,1.75 -1.75,1.75c-0.9665,0 -1.75,-0.7835 -1.75,-1.75z" fill="#7e7e7e" stroke="none" stroke-width="0.5"/><path d="M341.75,230.91667c0.9665,0 1.75,0.7835 1.75,1.75c0,0.9665 -0.7835,1.75 -1.75,1.75c-0.14358,0 -0.28313,-0.01729 -0.41667,-0.0499c-0.13353,0.03261 -0.27308,0.0499 -0.41667,0.0499c-0.4482,0 -0.85706,-0.1685 -1.16667,-0.44561c-0.30961,0.27711 -0.71846,0.44561 -1.16667,0.44561c-0.2684,0 -0.52269,-0.06042 -0.75,-0.16841c-0.22731,0.10799 -0.4816,0.16841 -0.75,0.16841c-0.9665,0 -1.75,-0.7835 -1.75,-1.75c0,-0.9665 0.7835,-1.75 1.75,-1.75c0.2684,0 0.52269,0.06042 0.75,0.16841c0.22731,-0.10799 0.4816,-0.16841 0.75,-0.16841c0.4482,0 0.85706,0.1685 1.16667,0.44561c0.30961,-0.27711 0.71846,-0.44561 1.16667,-0.44561c0.14358,0 0.28313,0.0173 0.41667,0.04991c0.13353,-0.03261 0.27308,-0.04991 0.41667,-0.04991z" fill="#7e7e7e" stroke="none" stroke-width="0.5"/><path d="M317.83333,233c0,-0.9665 0.7835,-1.75 1.75,-1.75c0.9665,0 1.75,0.7835 1.75,1.75c0,0.9665 -0.7835,1.75 -1.75,1.75c-0.9665,0 -1.75,-0.7835 -1.75,-1.75z" fill="#7e7e7e" stroke="none" stroke-width="0.5"/><path d="M294.83333,244c0,-0.9665 0.7835,-1.75 1.75,-1.75c0.9665,0 1.75,0.7835 1.75,1.75c0,0.9665 -0.7835,1.75 -1.75,1.75c-0.9665,0 -1.75,-0.7835 -1.75,-1.75z" fill="#c5c5c5" stroke="none" stroke-width="0.5"/><path d="M341.33334,244.16667c0,-0.9665 0.7835,-1.75 1.75,-1.75c0.9665,0 1.75,0.7835 1.75,1.75c0,0.9665 -0.7835,1.75 -1.75,1.75c-0.9665,0 -1.75,-0.7835 -1.75,-1.75z" fill="#c5c5c5" stroke="none" stroke-width="0.5"/><path d="M335.33333,244c0,-0.9665 0.7835,-1.75 1.75,-1.75c0.37181,0 0.71654,0.11595 1,0.31367c0.28346,-0.19772 0.62819,-0.31367 1,-0.31367c0.9665,0 1.75,0.7835 1.75,1.75c0,0.9665 -0.7835,1.75 -1.75,1.75c-0.37181,0 -0.71654,-0.11595 -1,-0.31367c-0.28346,0.19772 -0.62819,0.31367 -1,0.31367c-0.9665,0 -1.75,-0.7835 -1.75,-1.75z" fill="#c5c5c5" stroke="none" stroke-width="0.5"/><path d="M331.66667,244.33334c0,-0.9665 0.7835,-1.75 1.75,-1.75c0.9665,0 1.75,0.7835 1.75,1.75c0,0.9665 -0.7835,1.75 -1.75,1.75c-0.9665,0 -1.75,-0.7835 -1.75,-1.75z" fill="#c5c5c5" stroke="none" stroke-width="0.5"/><path d="M326.66667,244.33334c0,-0.9665 0.7835,-1.75 1.75,-1.75c0.9665,0 1.75,0.7835 1.75,1.75c0,0.9665 -0.7835,1.75 -1.75,1.75c-0.9665,0 -1.75,-0.7835 -1.75,-1.75z" fill="#c5c5c5" stroke="none" stroke-width="0.5"/><path d="M319.67271,243.68801c0.14533,-1.74395 1.88929,-1.59862 1.88929,-1.59862l2,0.16666c0,0 1.74395,0.14533 1.59862,1.88929c-0.14533,1.74395 -1.88928,1.59862 -1.88928,1.59862l-2,-0.16666c0,0 -1.74396,-0.14533 -1.59863,-1.88929z" fill="#c5c5c5" stroke="none" stroke-width="0.5"/><path d="M306.91667,241.91667c0.24572,0 0.47962,0.05065 0.69182,0.14207c0.24705,-0.66682 0.88878,-1.14207 1.64152,-1.14207c0.58252,0 1.09858,0.28462 1.41667,0.72239c0.31809,-0.43777 0.83414,-0.72239 1.41667,-0.72239c0.53935,0 1.02171,0.24399 1.34273,0.62762c0.20294,-0.08229 0.42481,-0.12762 0.65727,-0.12762c0.9665,0 1.75,0.7835 1.75,1.75c0,0.9665 -0.7835,1.75 -1.75,1.75c-0.53935,0 -1.02171,-0.24399 -1.34273,-0.62762c-0.20294,0.08229 -0.42481,0.12762 -0.65727,0.12762c-0.58252,0 -1.09858,-0.28462 -1.41667,-0.72239c-0.31809,0.43777 -0.83414,0.72239 -1.41667,0.72239c-0.24572,0 -0.47962,-0.05065 -0.69182,-0.14207c-0.24705,0.66682 -0.88878,1.14207 -1.64152,1.14207c-0.79836,0 -1.47185,-0.5346 -1.68202,-1.26535c-0.30771,0.26902 -0.71048,0.43202 -1.15131,0.43202c-0.3017,0 -0.58556,-0.07635 -0.83333,-0.21077c-0.24777,0.13442 -0.53163,0.21077 -0.83333,0.21077c-0.21569,0 -0.42227,-0.03903 -0.61306,-0.1104c-0.29161,0.56074 -0.87788,0.94373 -1.55361,0.94373c-0.9665,0 -1.75,-0.7835 -1.75,-1.75c0,-0.9665 0.7835,-1.75 1.75,-1.75c0.21569,0 0.42227,0.03903 0.61306,0.1104c0.29161,-0.56074 0.87788,-0.94373 1.55361,-0.94373c0.3017,0 0.58556,0.07635 0.83333,0.21077c0.24777,-0.13442 0.53163,-0.21077 0.83333,-0.21077c0.79836,0 1.47185,0.5346 1.68202,1.26535c0.30771,-0.26902 0.71048,-0.43202 1.15131,-0.43202z" fill="#c5c5c5" stroke="none" stroke-width="0.5"/><path d="M301.66667,224.83334c0,-0.69036 0.55964,-1.25 1.25,-1.25c0.69036,0 1.25,0.55964 1.25,1.25c0,0.69036 -0.55964,1.25 -1.25,1.25c-0.69036,0 -1.25,-0.55964 -1.25,-1.25z" fill="#424242" stroke="none" stroke-width="0.5"/><path d="M316.16667,222.66667c0,-0.69036 0.55964,-1.25 1.25,-1.25c0.69036,0 1.25,0.55964 1.25,1.25c0,0.69036 -0.55964,1.25 -1.25,1.25c-0.69036,0 -1.25,-0.55964 -1.25,-1.25z" fill="#424242" stroke="none" stroke-width="0.5"/><path d="M319.16667,223.83334c0,-0.69036 0.55964,-1.25 1.25,-1.25c0.69036,0 1.25,0.55964 1.25,1.25c0,0.69036 -0.55964,1.25 -1.25,1.25c-0.69036,0 -1.25,-0.55964 -1.25,-1.25z" fill="#424242" stroke="none" stroke-width="0.5"/><path d="M324.66667,225.5c0,-0.69036 0.55964,-1.25 1.25,-1.25c0.69036,0 1.25,0.55964 1.25,1.25c0,0.69036 -0.55964,1.25 -1.25,1.25c-0.69036,0 -1.25,-0.55964 -1.25,-1.25z" fill="#424242" stroke="none" stroke-width="0.5"/><path d="M327.5,225.33334c0,-0.69036 0.55964,-1.25 1.25,-1.25c0.69036,0 1.25,0.55964 1.25,1.25c0,0.69036 -0.55964,1.25 -1.25,1.25c-0.69036,0 -1.25,-0.55964 -1.25,-1.25z" fill="#424242" stroke="none" stroke-width="0.5"/><path d="M331.83333,223.33334c0,-0.69036 0.55964,-1.25 1.25,-1.25c0.69036,0 1.25,0.55964 1.25,1.25c0,0.69036 -0.55964,1.25 -1.25,1.25c-0.69036,0 -1.25,-0.55964 -1.25,-1.25z" fill="#424242" stroke="none" stroke-width="0.5"/><path d="M299.33333,238.33334c0,-0.69036 0.55964,-1.25 1.25,-1.25c0.69036,0 1.25,0.55964 1.25,1.25c0,0.69036 -0.55964,1.25 -1.25,1.25c-0.69036,0 -1.25,-0.55964 -1.25,-1.25z" fill="#7e7e7e" stroke="none" stroke-width="0.5"/><path d="M312.33333,234.33334c0,-0.69036 0.55964,-1.25 1.25,-1.25c0.69036,0 1.25,0.55964 1.25,1.25c0,0.69036 -0.55964,1.25 -1.25,1.25c-0.69036,0 -1.25,-0.55964 -1.25,-1.25z" fill="#7e7e7e" stroke="none" stroke-width="0.5"/><path d="M318,233.66667c0,-0.69036 0.55964,-1.25 1.25,-1.25c0.69036,0 1.25,0.55964 1.25,1.25c0,0.69036 -0.55964,1.25 -1.25,1.25c-0.69036,0 -1.25,-0.55964 -1.25,-1.25z" fill="#7e7e7e" stroke="none" stroke-width="0.5"/><path d="M325.5,236.33334c0,-0.69036 0.55964,-1.25 1.25,-1.25c0.69036,0 1.25,0.55964 1.25,1.25c0,0.69036 -0.55964,1.25 -1.25,1.25c-0.69036,0 -1.25,-0.55964 -1.25,-1.25z" fill="#7e7e7e" stroke="none" stroke-width="0.5"/><path d="M336.16667,238c0,-0.69036 0.55964,-1.25 1.25,-1.25c0.69036,0 1.25,0.55964 1.25,1.25c0,0.69036 -0.55964,1.25 -1.25,1.25c-0.69036,0 -1.25,-0.55964 -1.25,-1.25z" fill="#7e7e7e" stroke="none" stroke-width="0.5"/><path d="M340,238.33334c0,-0.69036 0.55964,-1.25 1.25,-1.25c0.69036,0 1.25,0.55964 1.25,1.25c0,0.69036 -0.55964,1.25 -1.25,1.25c-0.69036,0 -1.25,-0.55964 -1.25,-1.25z" fill="#7e7e7e" stroke="none" stroke-width="0.5"/><path d="M305.5,236.66667c0,-0.69036 0.55964,-1.25 1.25,-1.25c0.69036,0 1.25,0.55964 1.25,1.25c0,0.69036 -0.55964,1.25 -1.25,1.25c-0.69036,0 -1.25,-0.55964 -1.25,-1.25z" fill="#7e7e7e" stroke="none" stroke-width="0.5"/><path d="M296.16667,249.33334c0,-0.69036 0.55964,-1.25 1.25,-1.25c0.69036,0 1.25,0.55964 1.25,1.25c0,0.69036 -0.55964,1.25 -1.25,1.25c-0.69036,0 -1.25,-0.55964 -1.25,-1.25z" fill="#c5c5c5" stroke="none" stroke-width="0.5"/><path d="M306.5,248.33334c0,-0.69036 0.55964,-1.25 1.25,-1.25c0.69036,0 1.25,0.55964 1.25,1.25c0,0.69036 -0.55964,1.25 -1.25,1.25c-0.69036,0 -1.25,-0.55964 -1.25,-1.25z" fill="#c5c5c5" stroke="none" stroke-width="0.5"/><path d="M310.83333,246.33334c0,-0.69036 0.55964,-1.25 1.25,-1.25c0.69036,0 1.25,0.55964 1.25,1.25c0,0.69036 -0.55964,1.25 -1.25,1.25c-0.69036,0 -1.25,-0.55964 -1.25,-1.25z" fill="#c5c5c5" stroke="none" stroke-width="0.5"/><path d="M317.16667,244.66667c0,-0.69036 0.55964,-1.25 1.25,-1.25c0.69036,0 1.25,0.55964 1.25,1.25c0,0.69036 -0.55964,1.25 -1.25,1.25c-0.69036,0 -1.25,-0.55964 -1.25,-1.25z" fill="#c5c5c5" stroke="none" stroke-width="0.5"/><path d="M332.33333,249.83334c0,-0.69036 0.55964,-1.25 1.25,-1.25c0.69036,0 1.25,0.55964 1.25,1.25c0,0.69036 -0.55964,1.25 -1.25,1.25c-0.69036,0 -1.25,-0.55964 -1.25,-1.25z" fill="#c5c5c5" stroke="none" stroke-width="0.5"/><path d="M341.66667,249.5c0,-0.69036 0.55964,-1.25 1.25,-1.25c0.69036,0 1.25,0.55964 1.25,1.25c0,0.69036 -0.55964,1.25 -1.25,1.25c-0.69036,0 -1.25,-0.55964 -1.25,-1.25z" fill="#c5c5c5" stroke="none" stroke-width="0.5"/><path d="M341,244.5c0,-0.69036 0.55964,-1.25 1.25,-1.25c0.69036,0 1.25,0.55964 1.25,1.25c0,0.69036 -0.55964,1.25 -1.25,1.25c-0.69036,0 -1.25,-0.55964 -1.25,-1.25z" fill="#c5c5c5" stroke="none" stroke-width="0.5"/><path d="M302.5,229.5c0,-0.41422 0.33578,-0.75 0.75,-0.75c0.41422,0 0.75,0.33578 0.75,0.75c0,0.41422 -0.33578,0.75 -0.75,0.75c-0.41422,0 -0.75,-0.33578 -0.75,-0.75z" fill="#424242" stroke="none" stroke-width="0.5"/><path d="M310.16667,226.66667c0,-0.41422 0.33578,-0.75 0.75,-0.75c0.41422,0 0.75,0.33578 0.75,0.75c0,0.41422 -0.33578,0.75 -0.75,0.75c-0.41422,0 -0.75,-0.33578 -0.75,-0.75z" fill="#424242" stroke="none" stroke-width="0.5"/><path d="M318.16667,229.33334c0,-0.41422 0.33578,-0.75 0.75,-0.75c0.41422,0 0.75,0.33578 0.75,0.75c0,0.41422 -0.33578,0.75 -0.75,0.75c-0.41422,0 -0.75,-0.33578 -0.75,-0.75z" fill="#424242" stroke="none" stroke-width="0.5"/><path d="M323.16667,230c0,-0.41422 0.33578,-0.75 0.75,-0.75c0.41422,0 0.75,0.33578 0.75,0.75c0,0.41422 -0.33578,0.75 -0.75,0.75c-0.41422,0 -0.75,-0.33578 -0.75,-0.75z" fill="#424242" stroke="none" stroke-width="0.5"/><path d="M329.66667,229.83334c0,-0.41422 0.33578,-0.75 0.75,-0.75c0.41422,0 0.75,0.33578 0.75,0.75c0,0.41422 -0.33578,0.75 -0.75,0.75c-0.41422,0 -0.75,-0.33578 -0.75,-0.75z" fill="#424242" stroke="none" stroke-width="0.5"/><path d="M341.33334,229.16667c0,-0.41422 0.33578,-0.75 0.75,-0.75c0.41422,0 0.75,0.33578 0.75,0.75c0,0.41422 -0.33578,0.75 -0.75,0.75c-0.41422,0 -0.75,-0.33578 -0.75,-0.75z" fill="#424242" stroke="none" stroke-width="0.5"/><path d="M301,242.16667c0,-0.41422 0.33578,-0.75 0.75,-0.75c0.41422,0 0.75,0.33578 0.75,0.75c0,0.41422 -0.33578,0.75 -0.75,0.75c-0.41422,0 -0.75,-0.33578 -0.75,-0.75z" fill="#7e7e7e" stroke="none" stroke-width="0.5"/><path d="M311.33333,239.83334c0,-0.41422 0.33578,-0.75 0.75,-0.75c0.41422,0 0.75,0.33578 0.75,0.75c0,0.41422 -0.33578,0.75 -0.75,0.75c-0.41422,0 -0.75,-0.33578 -0.75,-0.75z" fill="#7e7e7e" stroke="none" stroke-width="0.5"/><path d="M323.5,240c0,-0.41422 0.33578,-0.75 0.75,-0.75c0.41422,0 0.75,0.33578 0.75,0.75c0,0.41422 -0.33578,0.75 -0.75,0.75c-0.41422,0 -0.75,-0.33578 -0.75,-0.75z" fill="#7e7e7e" stroke="none" stroke-width="0.5"/><path d="M338,242.83334c0,-0.41422 0.33578,-0.75 0.75,-0.75c0.41422,0 0.75,0.33578 0.75,0.75c0,0.41422 -0.33578,0.75 -0.75,0.75c-0.41422,0 -0.75,-0.33578 -0.75,-0.75z" fill="#7e7e7e" stroke="none" stroke-width="0.5"/><path d="M300,254.66667c0,-0.41422 0.33578,-0.75 0.75,-0.75c0.41422,0 0.75,0.33578 0.75,0.75c0,0.41422 -0.33578,0.75 -0.75,0.75c-0.41422,0 -0.75,-0.33578 -0.75,-0.75z" fill="#c5c5c5" stroke="none" stroke-width="0.5"/><path d="M312.83333,250.83334c0,-0.41422 0.33578,-0.75 0.75,-0.75c0.41422,0 0.75,0.33578 0.75,0.75c0,0.41422 -0.33578,0.75 -0.75,0.75c-0.41422,0 -0.75,-0.33578 -0.75,-0.75z" fill="#c5c5c5" stroke="none" stroke-width="0.5"/><path d="M330.33333,255.66667c0,-0.41422 0.33578,-0.75 0.75,-0.75c0.41422,0 0.75,0.33578 0.75,0.75c0,0.41421 -0.33578,0.75 -0.75,0.75c-0.41422,0 -0.75,-0.33579 -0.75,-0.75z" fill="#c5c5c5" stroke="none" stroke-width="0.5"/><path d="M339.16667,255.66667c0,-0.41422 0.33578,-0.75 0.75,-0.75c0.41422,0 0.75,0.33578 0.75,0.75c0,0.41421 -0.33578,0.75 -0.75,0.75c-0.41422,0 -0.75,-0.33579 -0.75,-0.75z" fill="#c5c5c5" stroke="none" stroke-width="0.5"/></g><path d="M296.16293,233.6608c0.00584,-0.25247 -0.00434,-0.50932 -0.00434,-0.77985c0,0 0,-0.02409 0.00748,-0.05731c-0.00469,-0.1515 -0.00748,-0.29934 -0.00748,-0.44269c0,-3.07638 0.48233,-6.38564 1.07346,-9.39207c0.50942,-2.51696 0.93681,-5.70001 0.92654,-8.27459c0,0 0,-0.0363 0.01383,-0.08124c-0.00426,-0.01363 -0.00777,-0.02838 -0.01043,-0.04433c-0.0411,-0.2466 0.2055,-0.2877 0.2055,-0.2877l0.01361,-0.00227c0.8039,-0.13398 1.94832,-0.54857 3.13114,-0.9152c-0.03816,-0.08816 -0.03946,-0.18016 0.00343,-0.27561c0.2339,-0.52048 3.50469,-0.47449 4.03328,-0.47688l0.00052,0.00018v-0.00018l0.35902,-0.00012c0.00003,0 0.00006,0 0.00009,0c0.13807,0 0.25,0.11193 0.25,0.25c0,0.11246 -0.07426,0.20758 -0.17641,0.23899l-0.46887,0.15629l-0.02005,-0.06014c-0.47198,0.22753 -1.00947,0.41779 -1.58095,0.58009c0.77601,0.10237 1.53592,0.16805 2.23846,0.44374l0.0292,-0.0876l0.16982,0.05661l-0.13571,-0.17092c-0.0347,-0.04292 -0.05549,-0.09757 -0.05549,-0.15706c0,-0.13807 0.11193,-0.25 0.25,-0.25h0.5v0.0252c0.98813,-0.12584 1.99435,-0.13647 2.9884,-0.19151l0.00689,0.00191v-0.00201l0.49998,-0.00019c0.00004,0 0.00007,0 0.00011,0c0.13807,0 0.25,0.11193 0.25,0.25c0,0.11223 -0.07395,0.20718 -0.17578,0.2388l-0.46844,0.15754l-0.01918,-0.05703c-0.48424,0.23641 -1.01363,0.41452 -1.57003,0.54958c0.9708,0.31925 1.97355,0.58754 2.90575,0.9795c2.01073,0.84552 3.88519,1.61623 6.00613,2.14647c0.90029,0.22507 1.98539,0.26133 2.80812,0.68785l0.04653,-0.09305l0.32849,0.16424c0.08456,0.04009 0.14304,0.12623 0.14304,0.22603c0,0.13807 -0.11193,0.25 -0.25,0.25h-0.49139c-3.08415,0.2856 -5.96808,1.0327 -8.98953,1.68016c-2.65911,0.56981 -5.55029,1.31799 -8.28552,1.69064c2.5467,0.11538 5.08925,0.46794 7.64033,0.55874c2.3423,0.08337 4.65992,0.28959 6.99334,0.50665c0.84102,0.07823 1.79904,-0.00121 2.53038,0.36755l0.05938,-0.10434l0.2904,0.16528c0.07779,0.04238 0.13057,0.12487 0.13057,0.21968c0,0.13613 -0.1088,0.24684 -0.24418,0.24993l-0.499,0.01326c-1.22922,0.03266 -2.64356,0.51109 -3.92799,0.59684c0.50378,0.10701 1.00954,0.20896 1.51901,0.2622c2.28716,0.24075 7.14545,-0.05334 9.34601,1.2331l0.03999,-0.07997l0.32849,0.16424c0.08456,0.04009 0.14304,0.12623 0.14304,0.22603c0,0.13807 -0.11193,0.25 -0.25,0.25c-1.27778,0 -3.05556,0 -4.33333,0c-2.30033,0 -4.56189,0.49308 -6.83151,0.85622c-0.35341,0.05654 -0.8453,0.19795 -1.33397,0.28917c1.75691,0.54377 -0.90606,1.23088 -2.74348,1.62269c-3.13796,0.66407 3.02055,2.3952 5.29243,3.21986l0.02544,-0.10175l0.48,0.12c0.11133,0.02526 0.19444,0.12483 0.19444,0.2438c0,0.13807 -0.11193,0.25 -0.25,0.25c-0.44444,0 -1.38889,0 -1.83333,0c-2.12349,0 -4.19052,0.05264 -6.28034,0.49432c-0.59665,0.1261 -1.37214,0.51855 -2.07569,0.68609c1.9295,0.31326 3.85337,0.6482 5.77712,0.99782c3.44082,0.62532 6.87934,1.27532 10.33591,1.8071c2.7452,0.42234 6.6588,0.29309 9.30648,1.44917l0.01207,-0.04829l0.48,0.12c0.11133,0.02526 0.19444,0.12483 0.19444,0.2438c0,0.13807 -0.11193,0.25 -0.25,0.25h-0.5c-0.32033,-0.00066 -0.64256,-0.02324 -0.9575,-0.08173c-3.45137,-0.65665 -6.86651,-0.91827 -10.37584,-0.91827c-3.42152,0 -6.79293,-0.09906 -10.16416,0.56883c-1.52057,0.30056 -3.50811,0.13779 -4.932,0.76023c-0.36251,0.15847 0.68279,0.4145 1.05987,0.53421c0.93244,0.29602 1.85869,0.55405 2.81487,0.76677c2.65569,0.59092 6.77373,0.97886 9.19318,2.55841l0.02617,-0.05233l0.44237,0.22118c0.08456,0.04009 0.14304,0.12623 0.14304,0.22603c0,0.13807 -0.11193,0.25 -0.25,0.25h-0.5v-0.0073l-0.02448,0.0061c-2.6229,-0.5125 -5.62986,-0.33213 -8.30886,-0.33213c-2.38424,0 -4.20105,0.31891 -6.48016,0.87652c-0.36311,0.08884 -1.4293,0.37661 -2.04371,0.38495c0.65615,0.40556 1.28922,0.69047 1.80519,1.20858l0.06318,-0.06242l0.31722,0.32109c0.00003,0.00003 0.00005,0.00005 0.00008,0.00008c0.04461,0.04515 0.07216,0.10721 0.07216,0.1757c0,0.13807 -0.11193,0.25 -0.25,0.25c-0.00641,0 -0.01276,-0.00024 -0.01904,-0.00071l-0.49646,-0.03307l0.00038,-0.00571l-0.02254,0.00323c-1.8429,-0.46422 -5.42643,-0.70891 -7.28249,-0.17938c-0.15239,0.35523 -0.0891,1.43597 -0.32036,1.65458c-0.80961,0.76532 -1.09138,-1.01719 -1.09344,-1.34344c-0.012,-1.89735 0.33333,-3.67725 0.33333,-5.5c0,-2.17504 0.31047,-4.23607 0.82418,-6.32656c-0.08314,-0.04061 -0.14041,-0.126 -0.14041,-0.22476c0,-0.02228 0.00292,-0.04389 0.00839,-0.06445l0.11677,-0.48045l0.02032,0.00494c0.00717,-0.30587 0.05331,-0.59232 0.17502,-0.96212zM307.54357,214.17458c-0.12199,-0.00332 -0.24034,-0.01184 -0.35334,-0.02696c0.04512,0.01932 0.09042,0.03834 0.1359,0.05708c0.07251,-0.00977 0.14499,-0.01981 0.21744,-0.03012z" fill="#da3243" stroke="none" stroke-width="0.5"/><path d="M324.40858,219.79762c0,0 -0.25,0 -0.25,-0.25c0,-0.25 0.25,-0.25 0.25,-0.25c0.59546,0.00123 1.18996,0.05067 1.78543,0.11111c0.06897,-0.11111 0.21457,-0.11111 0.21457,-0.11111l0.35106,0.00063c0.5999,0.08467 1.57737,0.05324 2.19877,0.33211c0.03893,0.0004 0.07788,0.0006 0.11684,0.0006h0.5c0.13807,0 0.25,0.11193 0.25,0.25c0,0.13807 -0.11193,0.25 -0.25,0.25h-0.5c-1.56935,-0.00002 -3.11992,-0.33692 -4.66667,-0.33333z" fill="#da3243" stroke="none" stroke-width="0.5"/><path d="M337.50416,240.13519c-0.08668,-0.00276 -0.17406,-0.00424 -0.26225,-0.00424c0,0 -0.25,0 -0.25,-0.25c0,-0.25 0.25,-0.25 0.25,-0.25c0.60691,0 1.18886,0.07691 1.76373,0.1577c0.46653,0.00757 0.95645,0.04335 1.33389,0.16099c0.08005,0.00597 0.16023,0.01091 0.2406,0.01464h0.49512c0.13807,0 0.25,0.11193 0.25,0.25c0,0.13807 -0.11193,0.25 -0.25,0.25h-0.5v-0.00691l-0.00701,0.00681c-0.18635,-0.01192 -0.37023,-0.02908 -0.5527,-0.04941c-0.68403,0.00175 -1.35667,-0.11716 -2.10696,-0.11716h-0.16667c0,0 -0.18754,0 -0.23775,-0.16243z" fill="#da3243" stroke="none" stroke-width="0.5"/><path d="M306.65858,248.04762c0,-0.13807 0.11193,-0.25 0.25,-0.25c0.13807,0 0.25,0.11193 0.25,0.25c0,0.13807 -0.11193,0.25 -0.25,0.25c-0.13807,0 -0.25,-0.11193 -0.25,-0.25z" fill="#ff3b4e" stroke="none" stroke-width="0.5"/></g><path d="M214.52362,306.61252v-267.72501h213.18203v267.72501z" fill="none" stroke="none" stroke-width="0" stroke-linecap="butt"/><path d="" fill="none" stroke="#000000" stroke-width="0" stroke-linecap="round"/><g><g stroke-linecap="round"><path d="M333.09225,93.64324l58.25653,-42.72245l-17.21234,83.53226" fill="#a9a9a9" stroke="#000000" stroke-width="0"/><path d="M369.59547,106.66247c0,0 4.15126,-13.66774 6.71714,-20.15414c2.46806,-6.23912 8.39611,-18.05124 8.39611,-18.05124" fill="none" stroke="url(#color-1)" stroke-width="2"/></g><g stroke-linecap="round"><path d="M253.84746,126.12511l-5.53696,-85.10725l51.81336,50.3429" fill="#a9a9a9" stroke="#000000" stroke-width="0"/><path d="M252.47062,59.30188c0,0 4.24372,12.51634 5.82846,19.03604c1.64755,6.7781 3.87572,20.88751 3.87572,20.88751" fill="none" stroke="url(#color-2)" stroke-width="2"/></g><g><path d="M248.50961,145.58114c2.30007,-33.22232 32.85587,-58.16796 68.24827,-55.71765c35.39241,2.45031 62.21904,31.3687 59.91897,64.59102c-2.30007,33.22232 -32.85586,58.16797 -68.24827,55.71766c-35.3924,-2.45031 -62.21904,-31.36871 -59.91897,-64.59103z" fill="#ffffff" stroke="#000000" stroke-width="0" stroke-linecap="butt"/><g><path d="M250.64267,169.08011l6.92555,0.01769l22.06872,28.08051l-7.31443,2.26431z" fill="#ffffff" stroke="none" stroke-width="0" stroke-linecap="round"/><path d="M275.58731,198.97597l-22.00693,7.71209l1.12954,-16.31516l-32.97319,-23.98671l30.08671,2.31388" fill="#ffffff" stroke="#000000" stroke-width="0" stroke-linecap="round"/><path d="M345.73412,204.52511l-6.93261,-3.25067l25.72781,-24.77142l6.86192,0.93685z" fill="#ffffff" stroke="none" stroke-width="0" stroke-linecap="round"/><path d="M370.2741,176.90074l30.11852,1.8543l-35.96409,19.21399l-1.12954,16.31517l-20.7342,-10.67118" fill="#ffffff" stroke="#000000" stroke-width="0" stroke-linecap="round"/><path d="M252.97535,127.06655c10.05384,-23.46864 35.3584,-39.17095 63.78253,-37.20306c28.69292,1.98649 51.75599,21.36904 58.23363,46.33784c0.04629,0.17842 -122.0948,-8.95121 -122.01616,-9.13478z" fill="#c5c5c5" stroke="#000000" stroke-width="0" stroke-linecap="butt"/><path d="M260.02786,114.92335c12.45223,-16.52162 33.55416,-26.66438 56.73002,-25.05986c23.5411,1.62982 43.91157,15.68071 53.82284,34.20816c0.41307,0.77217 -110.70316,-8.94887 -110.55286,-9.14829z" fill="#7e7e7e" stroke="#000000" stroke-width="0" stroke-linecap="butt"/><path d="M271.2128,103.55438c12.23488,-9.58494 28.31697,-14.88364 45.54509,-13.69089c18.71053,1.29538 35.02709,9.98807 45.9118,22.80334c0.1031,0.12138 -91.74522,-8.88657 -91.45689,-9.11244z" fill="#424242" stroke="#000000" stroke-width="0" stroke-linecap="butt"/><path d="M271.0382,104.4667c0.06675,-0.96419 0.9025,-1.69171 1.86669,-1.62495c0.96419,0.06675 1.69171,0.9025 1.62495,1.86669c-0.06675,0.96419 -0.9025,1.69171 -1.86669,1.62495c-0.96419,-0.06675 -1.69171,-0.9025 -1.62495,-1.86669z" fill="#424242" stroke="none" stroke-width="0.5" stroke-linecap="butt"/><path d="M275.88301,104.46799c0.06675,-0.96419 0.9025,-1.69171 1.86669,-1.62495c0.96419,0.06675 1.69171,0.9025 1.62495,1.86669c-0.06675,0.96419 -0.9025,1.69171 -1.86669,1.62495c-0.96419,-0.06675 -1.69171,-0.9025 -1.62495,-1.86669z" fill="#424242" stroke="none" stroke-width="0.5" stroke-linecap="butt"/><path d="M281.38139,104.68159c0.06675,-0.96419 0.9025,-1.69171 1.86669,-1.62495c0.96419,0.06675 1.69171,0.9025 1.62495,1.86669c-0.06675,0.96419 -0.9025,1.69171 -1.86669,1.62495c-0.96419,-0.06675 -1.69171,-0.9025 -1.62495,-1.86669z" fill="#424242" stroke="none" stroke-width="0.5" stroke-linecap="butt"/><path d="M298.93489,103.30735c0.96419,0.06675 1.69171,0.9025 1.62495,1.86669c-0.06675,0.96419 -0.9025,1.69171 -1.86669,1.62495c-0.09351,-0.00647 -0.18478,-0.02017 -0.27331,-0.04052c-0.3479,0.39527 -0.86954,0.62968 -1.43541,0.5905c-0.4885,-0.03382 -0.91625,-0.26504 -1.21074,-0.61034c-0.33926,0.30143 -0.79479,0.47149 -1.28329,0.43767c-0.96419,-0.06675 -1.69171,-0.9025 -1.62495,-1.86669c0.06675,-0.96419 0.9025,-1.69171 1.86669,-1.62495c0.4885,0.03382 0.91625,0.26504 1.21074,0.61034c0.33926,-0.30143 0.79479,-0.47149 1.28329,-0.43767c0.09351,0.00647 0.18477,0.02017 0.27331,0.04052c0.3479,-0.39527 0.86955,-0.62968 1.43542,-0.5905z" fill="#424242" stroke="none" stroke-width="0.5" stroke-linecap="butt"/><path d="M314.85793,108.15787c-0.44053,1.69365 -2.13418,1.25311 -2.13418,1.25311l-2.62577,-0.68299c0,0 -0.24627,-0.06405 -0.52656,-0.23722c-0.15182,0.03103 -0.31029,0.04226 -0.47241,0.03104c-0.96419,-0.06675 -1.69171,-0.9025 -1.62495,-1.86669c0.06675,-0.96419 0.9025,-1.69171 1.86669,-1.62495c0.31092,0.02153 0.59722,0.12301 0.84022,0.28299c0.43425,-0.06708 0.79808,0.02755 0.79808,0.02755l2.62576,0.68299c0,0 1.69365,0.44054 1.25311,2.13419z" fill="#424242" stroke="none" stroke-width="0.5" stroke-linecap="butt"/><path d="M319.58033,106.74148c0.96419,0.06675 1.69171,0.9025 1.62495,1.86669c-0.06675,0.96419 -0.9025,1.69171 -1.86669,1.62495c-0.54188,-0.03752 -1.00902,-0.31792 -1.30241,-0.72751c-0.29287,0.17109 -0.63844,0.25902 -1.00232,0.23383c-0.96419,-0.06675 -1.69171,-0.9025 -1.62495,-1.86669c0.06675,-0.96419 0.9025,-1.69171 1.86669,-1.62495c0.54188,0.03752 1.00902,0.31792 1.30241,0.72751c0.29287,-0.17109 0.63844,-0.25902 1.00232,-0.23383z" fill="#424242" stroke="none" stroke-width="0.5" stroke-linecap="butt"/><path d="M341.66785,109.85778c0.06675,-0.96419 0.9025,-1.69171 1.86669,-1.62495c0.96419,0.06675 1.69171,0.9025 1.62495,1.86669c-0.06675,0.96419 -0.9025,1.69171 -1.86669,1.62495c-0.96419,-0.06675 -1.69171,-0.9025 -1.62495,-1.86669z" fill="#424242" stroke="none" stroke-width="0.5" stroke-linecap="butt"/><path d="M352.2662,110.00681c0.96419,0.06675 1.69171,0.9025 1.62495,1.86669c-0.06675,0.96419 -0.9025,1.69171 -1.86669,1.62495c-0.54188,-0.03752 -1.00902,-0.31792 -1.30241,-0.72751c-0.29287,0.17109 -0.63844,0.25902 -1.00232,0.23383c-0.96419,-0.06675 -1.69171,-0.9025 -1.62495,-1.86669c0.06675,-0.96419 0.9025,-1.69171 1.86669,-1.62495c0.54188,0.03752 1.00902,0.31792 1.30241,0.72751c0.29287,-0.17109 0.63844,-0.25902 1.00232,-0.23383z" fill="#424242" stroke="none" stroke-width="0.5" stroke-linecap="butt"/><path d="M358.71614,110.95455c0.96419,0.06675 1.69171,0.9025 1.62495,1.86669c-0.06675,0.96419 -0.9025,1.69171 -1.86669,1.62495c-0.50967,-0.03529 -0.95321,-0.28544 -1.24826,-0.65586c-0.26735,0.13114 -0.57176,0.19573 -0.8902,0.17368c-0.96419,-0.06675 -1.69171,-0.9025 -1.62495,-1.86669c0.06675,-0.96419 0.9025,-1.69171 1.86669,-1.62495c0.50967,0.03529 0.95321,0.28544 1.24826,0.65586c0.26735,-0.13114 0.57177,-0.19573 0.89021,-0.17368z" fill="#424242" stroke="none" stroke-width="0.5" stroke-linecap="butt"/><path d="M301.13283,106.55023c0.06675,-0.96419 0.9025,-1.69171 1.86669,-1.62495c0.96419,0.06675 1.69171,0.9025 1.62495,1.86669c-0.06675,0.96419 -0.9025,1.69171 -1.86669,1.62495c-0.96419,-0.06675 -1.69171,-0.9025 -1.62495,-1.86669z" fill="#424242" stroke="none" stroke-width="0.5" stroke-linecap="butt"/><path d="M285.84762,105.32493c0.06675,-0.96419 0.9025,-1.69171 1.86669,-1.62495c0.70919,0.0491 1.29034,0.51422 1.52156,1.14047c0.16643,-0.85449 0.94757,-1.47073 1.83835,-1.40905c0.96419,0.06675 1.69171,0.9025 1.62495,1.86669c-0.06675,0.96419 -0.9025,1.69171 -1.86669,1.62495c-0.70919,-0.0491 -1.29033,-0.51423 -1.52156,-1.14048c-0.16643,0.85449 -0.94757,1.47074 -1.83835,1.40906c-0.96419,-0.06675 -1.69171,-0.9025 -1.62495,-1.86669z" fill="#424242" stroke="none" stroke-width="0.5" stroke-linecap="butt"/><path d="M368.74084,123.00905c0.96419,0.06675 1.69171,0.9025 1.62495,1.86669c-0.06675,0.96419 -0.9025,1.69171 -1.86669,1.62495c-0.61652,-0.04268 -1.13628,-0.39977 -1.4135,-0.90382c-0.33211,0.26971 -0.76329,0.41898 -1.22378,0.3871c-0.96419,-0.06675 -1.69171,-0.9025 -1.62495,-1.86669c0.06675,-0.96419 0.9025,-1.69171 1.86669,-1.62495c0.61652,0.04268 1.13628,0.39977 1.4135,0.90382c0.33211,-0.2697 0.76329,-0.41898 1.22378,-0.3871z" fill="#7e7e7e" stroke="none" stroke-width="0.5" stroke-linecap="butt"/><path d="M357.31115,122.80247c0.06675,-0.96419 0.9025,-1.69171 1.86669,-1.62495c0.96419,0.06675 1.69171,0.9025 1.62495,1.86669c-0.06675,0.96419 -0.9025,1.69171 -1.86669,1.62495c-0.96419,-0.06675 -1.69171,-0.9025 -1.62495,-1.86669z" fill="#7e7e7e" stroke="none" stroke-width="0.5" stroke-linecap="butt"/><path d="M352.28856,122.95594c0.06675,-0.96419 0.9025,-1.69171 1.86669,-1.62495c0.96419,0.06675 1.69171,0.9025 1.62495,1.86669c-0.06675,0.96419 -0.9025,1.69171 -1.86669,1.62495c-0.96419,-0.06675 -1.69171,-0.9025 -1.62495,-1.86669z" fill="#7e7e7e" stroke="none" stroke-width="0.5" stroke-linecap="butt"/><path d="M342.78822,122.63234c0.06675,-0.96419 0.9025,-1.69171 1.86669,-1.62495c0.4294,0.02973 0.81186,0.21197 1.09813,0.49017c0.33365,-0.52224 0.93492,-0.85061 1.59671,-0.80479c0.96419,0.06675 1.69171,0.9025 1.62495,1.86669c-0.06675,0.96419 -0.9025,1.69171 -1.86669,1.62495c-0.4294,-0.02973 -0.81186,-0.21197 -1.09812,-0.49015c-0.33365,0.52224 -0.93492,0.8506 -1.59671,0.80478c-0.96419,-0.06675 -1.69171,-0.9025 -1.62495,-1.86669z" fill="#7e7e7e" stroke="none" stroke-width="0.5" stroke-linecap="butt"/><path d="M330.03158,121.08089c0.06675,-0.96419 0.9025,-1.69171 1.86669,-1.62495c0.4311,0.02985 0.81489,0.21342 1.10152,0.49347c0.17157,-0.04207 0.35247,-0.05867 0.53815,-0.04581c0.96419,0.06675 1.69171,0.9025 1.62495,1.86669c-0.06675,0.96419 -0.9025,1.69171 -1.86669,1.62495c-0.4311,-0.02985 -0.81488,-0.21342 -1.10152,-0.49347c-0.17157,0.04207 -0.35248,0.05867 -0.53815,0.04582c-0.96419,-0.06675 -1.69171,-0.9025 -1.62495,-1.86669z" fill="#7e7e7e" stroke="none" stroke-width="0.5" stroke-linecap="butt"/><path d="M319.06935,120.15489c0.06675,-0.96419 0.9025,-1.69171 1.86669,-1.62495c0.74971,0.0519 1.35632,0.56873 1.55772,1.24935c0.24812,-0.73582 0.96821,-1.24154 1.77916,-1.1854c0.96419,0.06675 1.69171,0.9025 1.62495,1.86669c-0.06675,0.96419 -0.9025,1.69171 -1.86669,1.62495c-0.74971,-0.0519 -1.35632,-0.56873 -1.55773,-1.24935c-0.24812,0.73582 -0.96821,1.24154 -1.77916,1.1854c-0.96419,-0.06675 -1.69171,-0.9025 -1.62495,-1.86669z" fill="#7e7e7e" stroke="none" stroke-width="0.5" stroke-linecap="butt"/><path d="M313.26147,119.58572c0.06675,-0.96419 0.9025,-1.69171 1.86669,-1.62495c0.96419,0.06675 1.69171,0.9025 1.62495,1.86669c-0.06675,0.96419 -0.9025,1.69171 -1.86669,1.62495c-0.96419,-0.06675 -1.69171,-0.9025 -1.62495,-1.86669z" fill="#7e7e7e" stroke="none" stroke-width="0.5" stroke-linecap="butt"/><path d="M304.11669,118.95261c0.06675,-0.96419 0.9025,-1.69171 1.86669,-1.62495c0.96419,0.06675 1.69171,0.9025 1.62495,1.86669c-0.06675,0.96419 -0.9025,1.69171 -1.86669,1.62495c-0.96419,-0.06675 -1.69171,-0.9025 -1.62495,-1.86669z" fill="#7e7e7e" stroke="none" stroke-width="0.5" stroke-linecap="butt"/><path d="M298.95084,118.76203c0.06675,-0.96419 0.9025,-1.69171 1.86669,-1.62495c0.96419,0.06675 1.69171,0.9025 1.62495,1.86669c-0.06675,0.96419 -0.9025,1.69171 -1.86669,1.62495c-0.96419,-0.06675 -1.69171,-0.9025 -1.62495,-1.86669z" fill="#7e7e7e" stroke="none" stroke-width="0.5" stroke-linecap="butt"/><path d="M294.10603,118.76074c0.06675,-0.96419 0.9025,-1.69171 1.86669,-1.62495c0.96419,0.06675 1.69171,0.9025 1.62495,1.86669c-0.06675,0.96419 -0.9025,1.69171 -1.86669,1.62495c-0.96419,-0.06675 -1.69171,-0.9025 -1.62495,-1.86669z" fill="#7e7e7e" stroke="none" stroke-width="0.5" stroke-linecap="butt"/><path d="M286.4922,117.73241c0.06675,-0.96419 0.9025,-1.69171 1.86669,-1.62495c0.96419,0.06675 1.69171,0.9025 1.62495,1.86669c-0.06675,0.96419 -0.9025,1.69171 -1.86669,1.62495c-0.96419,-0.06675 -1.69171,-0.9025 -1.62495,-1.86669z" fill="#7e7e7e" stroke="none" stroke-width="0.5" stroke-linecap="butt"/><path d="M281.89424,116.57876c0.06675,-0.96419 0.9025,-1.69171 1.86669,-1.62495c0.96419,0.06675 1.69171,0.9025 1.62495,1.86669c-0.06675,0.96419 -0.9025,1.69171 -1.86669,1.62495c-0.96419,-0.06675 -1.69171,-0.9025 -1.62495,-1.86669z" fill="#7e7e7e" stroke="none" stroke-width="0.5" stroke-linecap="butt"/><path d="M275.30105,115.28696c0.06675,-0.96419 0.9025,-1.69171 1.86669,-1.62495c0.96419,0.06675 1.69171,0.9025 1.62495,1.86669c-0.06675,0.96419 -0.9025,1.69171 -1.86669,1.62495c-0.96419,-0.06675 -1.69171,-0.9025 -1.62495,-1.86669z" fill="#7e7e7e" stroke="none" stroke-width="0.5" stroke-linecap="butt"/><path d="M270.43322,115.61821c0.06675,-0.96419 0.9025,-1.69171 1.86669,-1.62495c0.96419,0.06675 1.69171,0.9025 1.62495,1.86669c-0.06675,0.96419 -0.9025,1.69171 -1.86669,1.62495c-0.96419,-0.06675 -1.69171,-0.9025 -1.62495,-1.86669z" fill="#7e7e7e" stroke="none" stroke-width="0.5" stroke-linecap="butt"/><path d="M265.13884,113.66455c0.77004,0.05331 1.38911,0.59709 1.57321,1.30505c0.33949,-0.4925 0.92289,-0.79811 1.56288,-0.75381c0.96419,0.06675 1.69171,0.9025 1.62495,1.86669c-0.06675,0.96419 -0.9025,1.69171 -1.86669,1.62495c-0.77004,-0.05331 -1.38911,-0.59709 -1.57321,-1.30505c-0.03121,0.04529 -0.0645,0.089 -0.0997,0.131c-0.34757,0.41474 -0.88204,0.66305 -1.46318,0.62282c-0.57224,-0.03962 -1.06111,-0.3501 -1.35007,-0.79755c-0.31477,0.5901 -0.95542,0.97206 -1.66579,0.92288c-0.96419,-0.06675 -1.69171,-0.9025 -1.62495,-1.86669c0.06675,-0.96419 0.9025,-1.69171 1.86669,-1.62495c0.57224,0.03962 1.06111,0.3501 1.35007,0.79755c0.31477,-0.5901 0.95542,-0.97206 1.66579,-0.92288z" fill="#7e7e7e" stroke="none" stroke-width="0.5" stroke-linecap="butt"/><path d="M261.75844,126.29456c0.96419,0.06675 1.69171,0.9025 1.62495,1.86669c-0.06675,0.96419 -0.9025,1.69171 -1.86669,1.62495c-0.58113,-0.04023 -1.0763,-0.35982 -1.36339,-0.81851c-0.34757,0.41475 -0.88204,0.66305 -1.46318,0.62282c-0.77799,-0.05386 -1.40189,-0.60838 -1.57878,-1.32707c-0.27425,0.68746 -0.9686,1.15071 -1.7466,1.09685c-0.96419,-0.06675 -1.69171,-0.9025 -1.62495,-1.86669c0.06675,-0.96419 0.9025,-1.69171 1.86669,-1.62495c0.77799,0.05386 1.40189,0.60839 1.57878,1.32708c0.27425,-0.68746 0.9686,-1.15072 1.7466,-1.09686c0.58113,0.04023 1.0763,0.35982 1.36339,0.81851c0.34757,-0.41475 0.88204,-0.66305 1.46318,-0.62282z" fill="#c5c5c5" stroke="none" stroke-width="0.5" stroke-linecap="butt"/><path d="M267.09055,126.49665c0.96419,0.06675 1.69171,0.9025 1.62495,1.86669c-0.06481,0.93616 -0.85456,1.64921 -1.78293,1.62878c-0.23437,0.09216 -0.4924,0.13494 -0.76034,0.11639c-0.96419,-0.06675 -1.69171,-0.9025 -1.62495,-1.86669c0.06481,-0.93616 0.85456,-1.6492 1.78293,-1.62877c0.23437,-0.09216 0.4924,-0.13495 0.76035,-0.1164z" fill="#c5c5c5" stroke="none" stroke-width="0.5" stroke-linecap="butt"/><path d="M302.1355,130.6771c0.06675,-0.96419 0.9025,-1.69171 1.86669,-1.62495c0.96419,0.06675 1.69171,0.9025 1.62495,1.86669c-0.06675,0.96419 -0.9025,1.69171 -1.86669,1.62495c-0.96419,-0.06675 -1.69171,-0.9025 -1.62495,-1.86669z" fill="#c5c5c5" stroke="none" stroke-width="0.5" stroke-linecap="butt"/><path d="M313.14697,129.68526c0.96419,0.06675 1.69171,0.9025 1.62495,1.86669c-0.06675,0.96419 -0.9025,1.69171 -1.86669,1.62495c-0.02787,-0.00193 -0.05554,-0.0045 -0.083,-0.0077c-0.02764,-0.00062 -0.0554,-0.00188 -0.08327,-0.00381c-0.96419,-0.06675 -1.69171,-0.9025 -1.62495,-1.86669c0.06675,-0.96419 0.9025,-1.69171 1.86669,-1.62495c0.02787,0.00193 0.05554,0.0045 0.083,0.0077c0.02764,0.00062 0.0554,0.00188 0.08327,0.00381z" fill="#c5c5c5" stroke="none" stroke-width="0.5" stroke-linecap="butt"/><path d="M318.71633,132.4933c0.06675,-0.96419 0.9025,-1.69171 1.86669,-1.62495c0.96419,0.06675 1.69171,0.9025 1.62495,1.86669c-0.06675,0.96419 -0.9025,1.69171 -1.86669,1.62495c-0.96419,-0.06675 -1.69171,-0.9025 -1.62495,-1.86669z" fill="#c5c5c5" stroke="none" stroke-width="0.5" stroke-linecap="butt"/><path d="M356.78034,135.29565c0.06675,-0.96419 0.9025,-1.69171 1.86669,-1.62495c0.96419,0.06675 1.69171,0.9025 1.62495,1.86669c-0.06675,0.96419 -0.9025,1.69171 -1.86669,1.62495c-0.96419,-0.06675 -1.69171,-0.9025 -1.62495,-1.86669z" fill="#c5c5c5" stroke="none" stroke-width="0.5" stroke-linecap="butt"/><path d="M364.7235,137.59976c-0.96419,-0.06675 -1.69171,-0.9025 -1.62495,-1.86669c0.06675,-0.96419 0.9025,-1.69171 1.86669,-1.62495c0.44713,0.03096 0.84338,0.22729 1.13311,0.52512c0.32801,-0.25506 0.74752,-0.39492 1.19466,-0.36397c0.96419,0.06675 1.69171,0.9025 1.62495,1.86669c-0.06675,0.96419 -0.9025,1.69171 -1.86669,1.62495c-0.44713,-0.03096 -0.84338,-0.22729 -1.13311,-0.52512c-0.32801,0.25506 -0.74752,0.39492 -1.19466,0.36397z" fill="#c5c5c5" stroke="none" stroke-width="0.5" stroke-linecap="butt"/><path d="M369.07271,136.31374c0.06675,-0.96419 0.9025,-1.69171 1.86669,-1.62495c0.96419,0.06675 1.69171,0.9025 1.62495,1.86669c-0.06675,0.96419 -0.9025,1.69171 -1.86669,1.62495c-0.96419,-0.06675 -1.69171,-0.9025 -1.62495,-1.86669z" fill="#c5c5c5" stroke="none" stroke-width="0.5" stroke-linecap="butt"/><path d="M322.72473,108.37924c0.06675,-0.96419 0.9025,-1.69171 1.86669,-1.62495c0.96419,0.06675 1.69171,0.9025 1.62495,1.86669c-0.06675,0.96419 -0.9025,1.69171 -1.86669,1.62495c-0.96419,-0.06675 -1.69171,-0.9025 -1.62495,-1.86669z" fill="#424242" stroke="none" stroke-width="0.5" stroke-linecap="butt"/><path d="M329.47268,109.84881c0.06675,-0.96419 0.9025,-1.69171 1.86669,-1.62495c0.96419,0.06675 1.69171,0.9025 1.62495,1.86669c-0.06675,0.96419 -0.9025,1.69171 -1.86669,1.62495c-0.96419,-0.06675 -1.69171,-0.9025 -1.62495,-1.86669z" fill="#424242" stroke="none" stroke-width="0.5" stroke-linecap="butt"/><path d="M338.98773,108.75337c0.96419,0.06675 1.69171,0.9025 1.62495,1.86669c-0.06675,0.96419 -0.9025,1.69171 -1.86669,1.62495c-0.4885,-0.03382 -0.91625,-0.26504 -1.21074,-0.61034c-0.33926,0.30143 -0.79479,0.47149 -1.28329,0.43767c-0.96419,-0.06675 -1.69171,-0.9025 -1.62495,-1.86669c0.06675,-0.96419 0.9025,-1.69171 1.86669,-1.62495c0.4885,0.03382 0.91625,0.26504 1.21074,0.61034c0.33926,-0.30143 0.79479,-0.47149 1.28329,-0.43767z" fill="#424242" stroke="none" stroke-width="0.5" stroke-linecap="butt"/><path d="M277.10956,106.0565c0.04768,-0.6887 0.64464,-1.20836 1.33335,-1.16068c0.68871,0.04768 1.20836,0.64465 1.16068,1.33335c-0.04768,0.6887 -0.64464,1.20836 -1.33335,1.16068c-0.68871,-0.04768 -1.20836,-0.64465 -1.16068,-1.33335z" fill="#424242" stroke="none" stroke-width="0.5" stroke-linecap="butt"/><path d="M282.98012,108.13359c0.04768,-0.6887 0.64464,-1.20836 1.33335,-1.16068c0.68871,0.04768 1.20836,0.64465 1.16068,1.33335c-0.04768,0.6887 -0.64464,1.20836 -1.33335,1.16068c-0.68871,-0.04768 -1.20836,-0.64465 -1.16068,-1.33335z" fill="#424242" stroke="none" stroke-width="0.5" stroke-linecap="butt"/><path d="M289.85981,110.11348c0.04768,-0.6887 0.64464,-1.20836 1.33335,-1.16068c0.68871,0.04768 1.20836,0.64465 1.16068,1.33335c-0.04768,0.6887 -0.64464,1.20836 -1.33335,1.16068c-0.68871,-0.04768 -1.20836,-0.64465 -1.16068,-1.33335z" fill="#424242" stroke="none" stroke-width="0.5" stroke-linecap="butt"/><path d="M296.12046,111.38225c0.04768,-0.6887 0.64464,-1.20836 1.33335,-1.16068c0.68871,0.04768 1.20836,0.64465 1.16068,1.33335c-0.04768,0.6887 -0.64464,1.20836 -1.33335,1.16068c-0.68871,-0.04768 -1.20836,-0.64465 -1.16068,-1.33335z" fill="#424242" stroke="none" stroke-width="0.5" stroke-linecap="butt"/><path d="M301.4871,111.08553c0.04768,-0.6887 0.64464,-1.20836 1.33335,-1.16068c0.68871,0.04768 1.20836,0.64465 1.16068,1.33335c-0.04768,0.6887 -0.64464,1.20836 -1.33335,1.16068c-0.68871,-0.04768 -1.20836,-0.64465 -1.16068,-1.33335z" fill="#424242" stroke="none" stroke-width="0.5" stroke-linecap="butt"/><path d="M307.18628,110.81184c0.04768,-0.6887 0.64464,-1.20836 1.33335,-1.16068c0.68871,0.04768 1.20836,0.64465 1.16068,1.33335c-0.04768,0.6887 -0.64464,1.20836 -1.33335,1.16068c-0.68871,-0.04768 -1.20836,-0.64465 -1.16068,-1.33335z" fill="#424242" stroke="none" stroke-width="0.5" stroke-linecap="butt"/><path d="M316.49222,109.11719c0.04768,-0.6887 0.64464,-1.20836 1.33335,-1.16068c0.68871,0.04768 1.20836,0.64465 1.16068,1.33335c-0.04768,0.6887 -0.64464,1.20836 -1.33335,1.16068c-0.68871,-0.04768 -1.20836,-0.64465 -1.16068,-1.33335z" fill="#424242" stroke="none" stroke-width="0.5" stroke-linecap="butt"/><path d="M321.65805,109.30778c0.04768,-0.6887 0.64464,-1.20836 1.33335,-1.16068c0.68871,0.04768 1.20836,0.64465 1.16068,1.33335c-0.04768,0.6887 -0.64464,1.20836 -1.33335,1.16068c-0.68871,-0.04768 -1.20836,-0.64465 -1.16068,-1.33335z" fill="#424242" stroke="none" stroke-width="0.5" stroke-linecap="butt"/><path d="M327.11038,110.18646c0.04768,-0.6887 0.64464,-1.20836 1.33335,-1.16068c0.68871,0.04768 1.20836,0.64465 1.16068,1.33335c-0.04768,0.6887 -0.64464,1.20836 -1.33335,1.16068c-0.68871,-0.04768 -1.20836,-0.64465 -1.16068,-1.33335z" fill="#424242" stroke="none" stroke-width="0.5" stroke-linecap="butt"/><path d="M331.15199,112.13692c0.04768,-0.6887 0.64464,-1.20836 1.33335,-1.16068c0.68871,0.04768 1.20836,0.64465 1.16068,1.33335c-0.04768,0.6887 -0.64464,1.20836 -1.33335,1.16068c-0.68871,-0.04768 -1.20836,-0.64465 -1.16068,-1.33335z" fill="#424242" stroke="none" stroke-width="0.5" stroke-linecap="butt"/><path d="M334.00669,114.33934c0.04768,-0.6887 0.64464,-1.20836 1.33335,-1.16068c0.68871,0.04768 1.20836,0.64465 1.16068,1.33335c-0.04768,0.6887 -0.64464,1.20836 -1.33335,1.16068c-0.68871,-0.04768 -1.20836,-0.64465 -1.16068,-1.33335z" fill="#424242" stroke="none" stroke-width="0.5" stroke-linecap="butt"/><path d="M339.80818,117.41405c0.04768,-0.6887 0.64464,-1.20836 1.33335,-1.16068c0.68871,0.04768 1.20836,0.64465 1.16068,1.33335c-0.04768,0.6887 -0.64464,1.20836 -1.33335,1.16068c-0.68871,-0.04768 -1.20836,-0.64465 -1.16068,-1.33335z" fill="#424242" stroke="none" stroke-width="0.5" stroke-linecap="butt"/><path d="M346.76844,118.23006c0.04768,-0.6887 0.64464,-1.20836 1.33335,-1.16068c0.68871,0.04768 1.20836,0.64465 1.16068,1.33335c-0.04768,0.6887 -0.64464,1.20836 -1.33335,1.16068c-0.68871,-0.04768 -1.20836,-0.64465 -1.16068,-1.33335z" fill="#424242" stroke="none" stroke-width="0.5" stroke-linecap="butt"/><path d="M333.20602,128.31742c0.04768,-0.6887 0.64464,-1.20836 1.33335,-1.16068c0.68871,0.04768 1.20836,0.64465 1.16068,1.33335c-0.04768,0.6887 -0.64464,1.20836 -1.33335,1.16068c-0.68871,-0.04768 -1.20836,-0.64465 -1.16068,-1.33335z" fill="#7e7e7e" stroke="none" stroke-width="0.5" stroke-linecap="butt"/><path d="M355.04735,119.30443c0.04768,-0.6887 0.64464,-1.20836 1.33335,-1.16068c0.68871,0.04768 1.20836,0.64465 1.16068,1.33335c-0.04768,0.6887 -0.64464,1.20836 -1.33335,1.16068c-0.68871,-0.04768 -1.20836,-0.64465 -1.16068,-1.33335z" fill="#424242" stroke="none" stroke-width="0.5" stroke-linecap="butt"/><path d="M358.3676,117.19538c0.04768,-0.6887 0.64464,-1.20836 1.33335,-1.16068c0.68871,0.04768 1.20836,0.64465 1.16068,1.33335c-0.04768,0.6887 -0.64464,1.20836 -1.33335,1.16068c-0.68871,-0.04768 -1.20836,-0.64465 -1.16068,-1.33335z" fill="#424242" stroke="none" stroke-width="0.5" stroke-linecap="butt"/><path d="M359.47522,113.26249c0.04768,-0.6887 0.64464,-1.20836 1.33335,-1.16068c0.68871,0.04768 1.20836,0.64465 1.16068,1.33335c-0.04768,0.6887 -0.64464,1.20836 -1.33335,1.16068c-0.68871,-0.04768 -1.20836,-0.64465 -1.16068,-1.33335z" fill="#424242" stroke="none" stroke-width="0.5" stroke-linecap="butt"/><path d="M264.22883,118.36291c0.04768,-0.6887 0.64464,-1.20836 1.33335,-1.16068c0.68871,0.04768 1.20836,0.64465 1.16068,1.33335c-0.04768,0.6887 -0.64464,1.20836 -1.33335,1.16068c-0.68871,-0.04768 -1.20836,-0.64465 -1.16068,-1.33335z" fill="#7e7e7e" stroke="none" stroke-width="0.5" stroke-linecap="butt"/><path d="M268.83191,121.85584c0.04768,-0.6887 0.64464,-1.20836 1.33335,-1.16068c0.68871,0.04768 1.20836,0.64465 1.16068,1.33335c-0.04768,0.6887 -0.64464,1.20836 -1.33335,1.16068c-0.68871,-0.04768 -1.20836,-0.64465 -1.16068,-1.33335z" fill="#7e7e7e" stroke="none" stroke-width="0.5" stroke-linecap="butt"/><path d="M274.0489,123.72062c0.04768,-0.6887 0.64464,-1.20836 1.33335,-1.16068c0.68871,0.04768 1.20836,0.64465 1.16068,1.33335c-0.04768,0.6887 -0.64464,1.20836 -1.33335,1.16068c-0.68871,-0.04768 -1.20836,-0.64465 -1.16068,-1.33335z" fill="#7e7e7e" stroke="none" stroke-width="0.5" stroke-linecap="butt"/><path d="M281.46833,122.73069c0.04768,-0.6887 0.64464,-1.20836 1.33335,-1.16068c0.68871,0.04768 1.20836,0.64465 1.16068,1.33335c-0.04768,0.6887 -0.64464,1.20836 -1.33335,1.16068c-0.68871,-0.04768 -1.20836,-0.64465 -1.16068,-1.33335z" fill="#7e7e7e" stroke="none" stroke-width="0.5" stroke-linecap="butt"/><path d="M288.0449,121.84949c0.04768,-0.6887 0.64464,-1.20836 1.33335,-1.16068c0.68871,0.04768 1.20836,0.64465 1.16068,1.33335c-0.04768,0.6887 -0.64464,1.20836 -1.33335,1.16068c-0.68871,-0.04768 -1.20836,-0.64465 -1.16068,-1.33335z" fill="#7e7e7e" stroke="none" stroke-width="0.5" stroke-linecap="butt"/><path d="M292.16197,120.2968c0.04768,-0.6887 0.64464,-1.20836 1.33335,-1.16068c0.68871,0.04768 1.20836,0.64465 1.16068,1.33335c-0.04768,0.6887 -0.64464,1.20836 -1.33335,1.16068c-0.68871,-0.04768 -1.20836,-0.64465 -1.16068,-1.33335z" fill="#7e7e7e" stroke="none" stroke-width="0.5" stroke-linecap="butt"/><path d="M301.84008,120.46565c0.04768,-0.6887 0.64464,-1.20836 1.33335,-1.16068c0.68871,0.04768 1.20836,0.64465 1.16068,1.33335c-0.04768,0.6887 -0.64464,1.20836 -1.33335,1.16068c-0.68871,-0.04768 -1.20836,-0.64465 -1.16068,-1.33335z" fill="#7e7e7e" stroke="none" stroke-width="0.5" stroke-linecap="butt"/><path d="M310.77254,121.75232c0.04768,-0.6887 0.64464,-1.20836 1.33335,-1.16068c0.68871,0.04768 1.20836,0.64465 1.16068,1.33335c-0.04768,0.6887 -0.64464,1.20836 -1.33335,1.16068c-0.68871,-0.04768 -1.20836,-0.64465 -1.16068,-1.33335z" fill="#7e7e7e" stroke="none" stroke-width="0.5" stroke-linecap="butt"/><path d="M318.48868,126.12905c0.04768,-0.6887 0.64464,-1.20836 1.33335,-1.16068c0.68871,0.04768 1.20836,0.64465 1.16068,1.33335c-0.04768,0.6887 -0.64464,1.20836 -1.33335,1.16068c-0.68871,-0.04768 -1.20836,-0.64465 -1.16068,-1.33335z" fill="#7e7e7e" stroke="none" stroke-width="0.5" stroke-linecap="butt"/><path d="M325.72393,127.79942c0.04768,-0.6887 0.64464,-1.20836 1.33335,-1.16068c0.68871,0.04768 1.20836,0.64465 1.16068,1.33335c-0.04768,0.6887 -0.64464,1.20836 -1.33335,1.16068c-0.68871,-0.04768 -1.20836,-0.64465 -1.16068,-1.33335z" fill="#7e7e7e" stroke="none" stroke-width="0.5" stroke-linecap="butt"/><path d="M340.23023,125.79655c0.04768,-0.6887 0.64464,-1.20836 1.33335,-1.16068c0.68871,0.04768 1.20836,0.64465 1.16068,1.33335c-0.04768,0.6887 -0.64464,1.20836 -1.33335,1.16068c-0.68871,-0.04768 -1.20836,-0.64465 -1.16068,-1.33335z" fill="#7e7e7e" stroke="none" stroke-width="0.5" stroke-linecap="butt"/><path d="M346.19929,124.03796c0.04768,-0.6887 0.64464,-1.20836 1.33335,-1.16068c0.68871,0.04768 1.20836,0.64465 1.16068,1.33335c-0.04768,0.6887 -0.64464,1.20836 -1.33335,1.16068c-0.68871,-0.04768 -1.20836,-0.64465 -1.16068,-1.33335z" fill="#7e7e7e" stroke="none" stroke-width="0.5" stroke-linecap="butt"/><path d="M356.85199,124.6084c0.04768,-0.6887 0.64464,-1.20836 1.33335,-1.16068c0.68871,0.04768 1.20836,0.64465 1.16068,1.33335c-0.04768,0.6887 -0.64464,1.20836 -1.33335,1.16068c-0.68871,-0.04768 -1.20836,-0.64465 -1.16068,-1.33335z" fill="#7e7e7e" stroke="none" stroke-width="0.5" stroke-linecap="butt"/><path d="M362.69313,129.52357c0.04768,-0.6887 0.64464,-1.20836 1.33335,-1.16068c0.68871,0.04768 1.20836,0.64465 1.16068,1.33335c-0.04768,0.6887 -0.64464,1.20836 -1.33335,1.16068c-0.68871,-0.04768 -1.20836,-0.64465 -1.16068,-1.33335z" fill="#7e7e7e" stroke="none" stroke-width="0.5" stroke-linecap="butt"/><path d="M365.89187,131.58275c0.04768,-0.6887 0.64464,-1.20836 1.33335,-1.16068c0.68871,0.04768 1.20836,0.64465 1.16068,1.33335c-0.04768,0.6887 -0.64464,1.20836 -1.33335,1.16068c-0.68871,-0.04768 -1.20836,-0.64465 -1.16068,-1.33335z" fill="#7e7e7e" stroke="none" stroke-width="0.5" stroke-linecap="butt"/><path d="M252.40837,132.24632c0.04768,-0.68871 0.64464,-1.20836 1.33335,-1.16068c0.68871,0.04768 1.20836,0.64464 1.16068,1.33335c-0.04768,0.68871 -0.64464,1.20836 -1.33335,1.16068c-0.68871,-0.04768 -1.20836,-0.64464 -1.16068,-1.33335z" fill="#c5c5c5" stroke="none" stroke-width="0.5" stroke-linecap="butt"/><path d="M261.10039,132.17984c0.04768,-0.68871 0.64464,-1.20836 1.33335,-1.16068c0.68871,0.04768 1.20836,0.64464 1.16068,1.33335c-0.04768,0.68871 -0.64464,1.20836 -1.33335,1.16068c-0.68871,-0.04768 -1.20836,-0.64464 -1.16068,-1.33335z" fill="#c5c5c5" stroke="none" stroke-width="0.5" stroke-linecap="butt"/><path d="M305.99933,132.78233c0.04768,-0.68871 0.64464,-1.20836 1.33335,-1.16068c0.68871,0.04768 1.20836,0.64464 1.16068,1.33335c-0.04768,0.68871 -0.64464,1.20836 -1.33335,1.16068c-0.68871,-0.04768 -1.20836,-0.64464 -1.16068,-1.33335z" fill="#c5c5c5" stroke="none" stroke-width="0.5" stroke-linecap="butt"/><path d="M311.32504,135.48996c0.04768,-0.68871 0.64464,-1.20836 1.33335,-1.16068c0.68871,0.04768 1.20836,0.64464 1.16068,1.33335c-0.04768,0.68871 -0.64464,1.20836 -1.33335,1.16068c-0.68871,-0.04768 -1.20836,-0.64464 -1.16068,-1.33335z" fill="#c5c5c5" stroke="none" stroke-width="0.5" stroke-linecap="butt"/><path d="M315.43571,136.44282c0.04768,-0.68871 0.64464,-1.20836 1.33335,-1.16068c0.68871,0.04768 1.20836,0.64464 1.16068,1.33335c-0.04768,0.68871 -0.64464,1.20836 -1.33335,1.16068c-0.68871,-0.04768 -1.20836,-0.64464 -1.16068,-1.33335z" fill="#c5c5c5" stroke="none" stroke-width="0.5" stroke-linecap="butt"/><path d="M321.36512,132.84375c0.04768,-0.68871 0.64464,-1.20836 1.33335,-1.16068c0.68871,0.04768 1.20836,0.64464 1.16068,1.33335c-0.04768,0.68871 -0.64464,1.20836 -1.33335,1.16068c-0.68871,-0.04768 -1.20836,-0.64464 -1.16068,-1.33335z" fill="#c5c5c5" stroke="none" stroke-width="0.5" stroke-linecap="butt"/><path d="M360.72475,136.23698c0.04768,-0.68871 0.64464,-1.20836 1.33335,-1.16068c0.68871,0.04768 1.20836,0.64464 1.16068,1.33335c-0.04768,0.68871 -0.64464,1.20836 -1.33335,1.16068c-0.68871,-0.04768 -1.20836,-0.64464 -1.16068,-1.33335z" fill="#c5c5c5" stroke="none" stroke-width="0.5" stroke-linecap="butt"/><path d="M367.20283,139.19146c0.04768,-0.68871 0.64464,-1.20836 1.33335,-1.16068c0.68871,0.04768 1.20836,0.64464 1.16068,1.33335c-0.04768,0.68871 -0.64464,1.20836 -1.33335,1.16068c-0.68871,-0.04768 -1.20836,-0.64464 -1.16068,-1.33335z" fill="#c5c5c5" stroke="none" stroke-width="0.5" stroke-linecap="butt"/><path d="M372.37507,136.87651c0.04768,-0.68871 0.64464,-1.20836 1.33335,-1.16068c0.68871,0.04768 1.20836,0.64464 1.16068,1.33335c-0.04768,0.68871 -0.64464,1.20836 -1.33335,1.16068c-0.68871,-0.04768 -1.20836,-0.64464 -1.16068,-1.33335z" fill="#c5c5c5" stroke="none" stroke-width="0.5" stroke-linecap="butt"/></g><g fill="#da3243" stroke="none" stroke-width="0.5" stroke-linecap="butt"><path d="M263.1639,203.26576c-0.01841,-0.01034 5.19323,-4.16323 6.65728,-5.46323c1.23635,-1.09771 2.80742,-3.36702 4.56291,-4.54146c0.00904,-0.04651 0.01874,-0.09297 0.02908,-0.13937l-0.04556,-0.00408l0.03702,-0.41383c0.01174,-0.13555 0.13006,-0.23718 0.26634,-0.22775c0.08794,0.00609 0.16209,0.05696 0.20175,0.12879l0.16006,0.28026c0.08016,-0.03899 0.16066,-0.07524 0.24147,-0.10858l0.01787,-0.25812c0.00954,-0.13774 0.12893,-0.24167 0.26667,-0.23214c0.09956,0.00689 0.18147,0.07118 0.21561,0.15831l0.06274,0.15068c0.01476,-0.00338 0.02953,-0.00665 0.0443,-0.0098c0.07609,-0.37366 0.14894,-0.73346 0.16693,-0.99323c0.16641,-2.40362 0.3314,-4.80733 0.49961,-7.21082c0.18439,-1.02181 0.42472,-2.02923 0.68167,-3.03169c0.11224,-1.9377 0.60037,-3.72821 1.02052,-5.69065l0.07225,-0.33747c0.02405,-0.12174 0.13547,-0.20945 0.2625,-0.20066c0.08794,0.00609 0.1621,0.05696 0.20175,0.12879l0.24603,0.43082l-0.21183,0.12097c0.28698,1.43307 -0.48825,4.08749 -1.11606,6.20392c-0.00332,0.2761 0.00189,0.55594 0.01688,0.84045c0.43585,1.66309 0.85995,3.33688 1.46544,4.94689c0.01548,0.04118 0.57404,1.46248 0.84431,1.10562c0.28625,-0.37795 -0.07254,-1.07532 0.07943,-1.61273c-0.01366,-0.04226 -0.02227,-0.08871 -0.02549,-0.13953l-0.00599,-0.00041l0.03453,-0.49881c0.00954,-0.13774 0.12893,-0.24167 0.26667,-0.23214c0.13774,0.00954 0.24167,0.12893 0.23214,0.26667l-0.03004,0.43387c-0.00157,0.38407 4.8462,-1.58123 5.79282,-2.0537c0.98753,-0.49289 1.78382,-1.2089 2.49746,-2.01671c0.475,-0.96565 0.95807,-1.81566 1.28335,-2.39011c0.17735,-0.31214 1.59309,-2.56334 1.68806,-1.07634c0.07208,1.12846 -1.27977,2.75303 -2.69382,4.03812c-1.11431,2.33945 -2.08252,5.22744 -0.49807,6.1617c0.62246,0.36703 1.72309,1.3942 2.39054,1.52874c0.12325,0.02484 1.25819,-0.7819 1.45239,-0.89023c1.23401,-0.68837 2.33285,-1.69151 3.58238,-2.34995l-0.0279,-0.03753l0.40008,-0.29757c0.04638,-0.03494 0.10511,-0.05396 0.16759,-0.04963c0.13774,0.00954 0.24167,0.12893 0.23214,0.26667c-0.00308,0.04446 -0.01761,0.08541 -0.04051,0.12015l-0.19626,0.31095l-0.00689,-0.00435l-0.00596,0.02281c-0.93892,1.02597 -2.24715,2.08622 -2.60464,3.48905c-0.13324,0.52287 -0.07849,3.68675 0.47482,3.15154c2.91661,-1.86553 5.24411,-4.47408 8.26671,-6.20022c2.28041,-1.30229 5.99977,-2.96998 8.80592,-3.08897l-0.0068,-0.01694l0.26367,-0.10576c0.03518,-0.015 0.07436,-0.02212 0.11513,-0.01929c0.13774,0.00954 0.24167,0.12893 0.23214,0.26667c-0.00609,0.08794 -0.05696,0.1621 -0.12879,0.20175l-0.43082,0.24604c-2.4508,1.39874 -4.75667,3.03439 -7.22589,4.41643c-1.86588,1.04434 -3.91234,2.4535 -5.31336,4.09385c-0.32692,0.38276 -1.65287,2.20004 -0.85309,2.1236c1.09817,0.07603 2.78858,0.52995 3.8478,0.27667c1.7302,-0.41372 3.33276,-1.51004 5.10244,-1.83409l-0.01753,-0.05447l0.47055,-0.15145c0.03094,-0.01076 0.06452,-0.01557 0.09926,-0.01317c0.13774,0.00954 0.24167,0.12893 0.23214,0.26667c-0.00512,0.07398 -0.04195,0.13822 -0.09628,0.18036l-0.3315,0.25924c-1.27741,0.99898 -2.38358,2.12997 -3.52924,3.27685c-1.39953,1.40102 -4.41379,5.91238 -2.24871,7.20245l0.18633,0.0129c0.13774,0.00954 0.24167,0.12893 0.23214,0.26667c-0.00477,0.06888 -0.037,0.12928 -0.08525,0.17129l-0.30476,0.2653l-0.008,-0.00919l-0.02432,0.03305c-0.58074,0.24793 -1.08477,0.57347 -1.63529,0.88818c-2.34673,1.62693 -7.04909,-0.62573 -9.64396,-1.13378c-2.49217,-1.12663 -4.8145,-2.03666 -7.18078,-3.43859c-2.31379,-0.94961 -4.5473,-1.97267 -6.53642,-3.44065c-0.00101,-0.00006 -0.00201,-0.00013 -0.00301,-0.0002c-0.14199,-0.00983 -0.19754,-0.09489 -0.21906,-0.16634c-0.01636,-0.01247 -0.03271,-0.02497 -0.04904,-0.03751c0,0 -0.14198,-0.10955 -0.09267,-0.26333c-0.01494,-0.01849 -0.02984,-0.03705 -0.04471,-0.05569c-0.21855,0.12007 -13.15127,3.80851 -13.15127,3.80851z"/><path d="M316.80156,184.10241c-0.16138,0.04166 -0.32276,0.08332 -0.48413,0.12498l-0.47847,0.12351c-0.01057,0.003 -0.02142,0.00531 -0.03248,0.00689c-0.11751,0.04881 -0.23504,0.09757 -0.3526,0.1463l-0.01849,-0.00073l0.00149,0.00576l-0.47847,0.12352c-0.02701,0.00765 -0.05578,0.01085 -0.0854,0.0088c-0.13774,-0.00954 -0.24167,-0.12893 -0.23214,-0.26667c0.00682,-0.09854 0.06988,-0.17979 0.15566,-0.21455l0.31297,-0.13439l0.01988,0.04629l0.05885,-0.01519c0.23445,-0.14213 0.47967,-0.2463 0.73889,-0.33365l0.14176,-0.0859l0.02048,0.03381c0.09619,-0.02951 0.1943,-0.05737 0.29449,-0.0846c0.08265,-0.03427 0.16771,-0.0614 0.25498,-0.07971l0.22838,-0.04628c0,0 0.01585,-0.00321 0.04029,-0.00397c0.04691,-0.00206 0.11639,0.00489 0.17258,0.05208c0.03542,0.02898 0.0655,0.07336 0.08043,0.14081c0.01607,0.06719 0.00843,0.12025 -0.01075,0.1618c-0.02989,0.06702 -0.08933,0.10366 -0.13243,0.12231c-0.0214,0.00959 -0.03669,0.01371 -0.03789,0.01404c-0.04175,0.11964 -0.17785,0.15478 -0.17785,0.15478z"/><path d="M278.9161,173.06919c-0.02546,0.01341 -0.05203,0.02614 -0.07971,0.03793c0,0 -0.23079,0.09609 -0.32689,-0.13471c-0.0961,-0.23079 0.13471,-0.32689 0.13471,-0.32689c0.1373,-0.0556 0.26549,-0.10788 0.38271,-0.1519c0.00418,-0.01122 0.09001,-0.23281 0.31946,-0.15069c0.02632,0.00943 0.04866,0.02073 0.06755,0.0334c0.37232,-0.06646 0.49906,0.13337 0.23309,0.98857l-0.03836,0.03084l0.0107,0.00907l-0.32137,0.37902c-0.04963,0.05992 -0.1264,0.09585 -0.20994,0.09006c-0.12657,-0.00876 -0.2246,-0.11029 -0.23226,-0.23356l-0.03893,-0.49468l0.09914,-0.0078c-0.00034,-0.02292 -0.00031,-0.04582 0.00011,-0.06867z"/><path d="M295.16564,174.67161c0.16415,0.18856 -0.02442,0.35272 -0.02442,0.35272l-0.24583,0.19699c-0.11468,0.04774 -0.22936,0.0955 -0.34404,0.14324c0,0 -0.2308,0.09609 -0.32689,-0.13471c-0.0961,-0.23079 0.13471,-0.32689 0.13471,-0.32689c0.11468,-0.04774 0.22936,-0.0955 0.34404,-0.14324l0.10973,-0.11253c0,0 0.18857,-0.16414 0.35272,0.02442z"/></g></g><g stroke="#000000"><g fill="#000000" stroke-width="0" stroke-linecap="round"><path d="M262.5408,143.95936l-3.40142,-10.11388l8.20904,5.14485z"/><path d="M264.05595,148.39849l-9.7163,-4.41065l9.36143,-2.49431z"/></g><path d="M262.08514,146.79729c0.89567,-12.93704 12.10929,-22.6985 25.04634,-21.80283c12.93704,0.89567 22.6985,12.10928 21.80283,25.04633c-0.89567,12.93704 -12.10928,22.69851 -25.04633,21.80284c-12.93704,-0.89567 -22.69851,-12.10929 -21.80284,-25.04634z" fill="#ffffff" stroke-width="0" stroke-linecap="butt"/><path d="M270.51823,148.17347c0.57323,-8.27982 7.75005,-14.52726 16.02988,-13.95402c8.27982,0.57323 14.52725,7.75006 13.95402,16.0299c-0.57323,8.27982 -7.75006,14.52726 -16.02989,13.95403c-8.27982,-0.57323 -14.52724,-7.75006 -13.95401,-16.0299z" fill="#ffffff" stroke-width="2" stroke-linecap="butt"/></g><path d="M262.08514,146.79729c0.00615,-0.08884 10.43526,10.31279 23.03816,11.20429c10.65496,0.75371 23.81291,-7.98826 23.81101,-7.96079c-0.89567,12.93704 -12.10928,22.69851 -25.04633,21.80284c-12.93704,-0.89567 -22.69851,-12.10929 -21.80284,-25.04634z" fill="#efefef" stroke="#000000" stroke-width="0" stroke-linecap="butt"/><g stroke="#000000"><g fill="#000000" stroke-width="0" stroke-linecap="round"><path d="M358.92604,145.33051l8.83971,-3.96453l-4.76272,9.54865z"/><path d="M362.19362,148.31244l8.92839,3.76056l-10.23141,3.02963z"/></g><path d="M338.01687,175.59114c-12.93704,-0.89567 -22.6985,-12.10929 -21.80283,-25.04634c0.89567,-12.93704 12.10928,-22.6985 25.04633,-21.80283c12.93704,0.89567 22.69851,12.10928 21.80284,25.04633c-0.89567,12.93704 -12.10929,22.69851 -25.04634,21.80284z" fill="#ffffff" stroke-width="0" stroke-linecap="butt"/><path d="M354.29038,153.75952c-0.57324,8.27984 -7.75005,14.52727 -16.02988,13.95403c-8.27982,-0.57323 -14.52725,-7.75008 -13.95402,-16.0299c0.57324,-8.27984 7.75007,-14.52726 16.02989,-13.95403c8.27982,0.57323 14.52724,7.75007 13.95401,16.02989z" fill="#ffffff" stroke-width="2" stroke-linecap="butt"/></g><path d="M267.58696,169.88455c0,0 11.02541,12.69967 20.71385,15.71819c9.68844,3.01852 32.02718,0.71374 32.02718,0.71374c0,0 -22.01758,15.67487 -36.1155,11.28254c-14.09792,-4.39233 -16.62553,-27.71447 -16.62553,-27.71447z" fill="#ffffff" stroke="#000000" stroke-width="1.5" stroke-linecap="round"/></g></g></g></svg>