<svg version="1.1" xmlns="http://www.w3.org/2000/svg" xmlns:xlink="http://www.w3.org/1999/xlink" width="34.17311" height="34.17311" viewBox="0,0,34.17311,34.17311"><g transform="translate(-302.91345,-162.91346)"><g stroke-miterlimit="10"><path d="M309.98312,162.91347h20.03379c3.9166,0 7.06966,3.15307 7.06966,7.06966v20.03379c0,3.91659 -3.15306,7.06966 -7.06966,7.06966h-20.03379c-3.91659,0 -7.06966,-3.15307 -7.06966,-7.06966v-20.03379c0,-3.91659 3.15307,-7.06966 7.06966,-7.06966z" fill="#4372d5" fill-rule="evenodd" stroke="none" stroke-width="4.43922" stroke-linecap="round" stroke-linejoin="round"/><g fill-rule="nonzero" stroke="#000000" stroke-width="3" stroke-linejoin="miter"><path d="M308.27289,188.47025l3.13834,-3.62956l-0.61262,4.4504c-0.46171,-0.00086 -0.92341,-0.00167 -1.38511,-0.00241z" fill="#435656" stroke-linecap="round"/><path d="M311.19191,187.10998l-5.08363,-8.15498l0.65784,-4.67398l15.89926,-3.58692l1.34151,12.56786z" fill="#ab1a21" stroke-linecap="round"/><path d="M310.86341,187.12985c0,-5.10397 4.40785,-9.24156 9.84522,-9.24156c5.43737,0 9.84522,4.13759 9.84522,9.24156c0,0.73805 -0.09217,1.45589 -0.26629,2.14393c-6.38386,0.04956 -12.76898,0.03012 -19.1533,0.01794c-0.17707,-0.6935 -0.27085,-1.41741 -0.27085,-2.16188z" fill="#4372d5" stroke-linecap="butt"/><path d="" fill="#4372d5" stroke-linecap="butt"/><path d="M320.37068,177.9312l7.73135,-3.24787l0.17908,2.29244l5.61061,5.65072l-1.2003,0.81197l-0.14121,5.26014l-0.74136,-0.70606l-0.42177,1.27201c-3.32403,0.03006 -6.64844,0.04022 -9.97293,0.04126c-0.33855,-3.21457 -1.21998,-7.95022 -1.21998,-7.95022z" fill="#4372d5" stroke-linecap="butt"/><path d="" fill="#4372d5" stroke-linecap="butt"/><path d="M312.74524,174.83463l7.55483,2.04757" fill="none" stroke-linecap="round"/><path d="M318.49962,173.03418l-3.77742,5.18954" fill="none" stroke-linecap="round"/></g><g fill-rule="nonzero" stroke="#000000" stroke-linejoin="miter"><path d="M308.27289,188.47025l3.13834,-3.62956l-0.61262,4.4504c-0.4617,-0.00086 -0.92341,-0.00168 -1.38511,-0.00242z" fill="#435656" stroke-width="0" stroke-linecap="round"/><path d="M311.19191,187.10998l-5.08363,-8.15498l0.65784,-4.67398l15.89926,-3.58692l1.34152,12.56786z" fill="#ab1a21" stroke-width="0" stroke-linecap="round"/><path d="M310.86341,187.12985c0,-5.10397 4.40785,-9.24156 9.84522,-9.24156c5.43737,0 9.84522,4.13759 9.84522,9.24156c0,0.73804 -0.09217,1.45589 -0.26629,2.14393c-6.38386,0.04956 -12.76898,0.03012 -19.1533,0.01794c-0.17707,-0.6935 -0.27085,-1.41741 -0.27085,-2.16188z" fill="#4372d5" stroke-width="0" stroke-linecap="butt"/><path d="" fill="#4372d5" stroke-width="0" stroke-linecap="butt"/><path d="M320.37068,177.93121l7.73135,-3.24787l0.17908,2.29244l5.61061,5.65073l-1.2003,0.81197l-0.14121,5.26014l-0.74136,-0.70606l-0.42177,1.272c-3.32403,0.03006 -6.64844,0.04023 -9.97293,0.04126c-0.33855,-3.21457 -1.21998,-7.95022 -1.21998,-7.95022z" fill="#4372d5" stroke-width="0" stroke-linecap="butt"/><path d="" fill="#4372d5" stroke-width="0" stroke-linecap="butt"/><path d="M312.74524,174.83463l7.55483,2.04757" fill="none" stroke-width="1" stroke-linecap="round"/><path d="M318.49962,173.03418l-3.77742,5.18954" fill="none" stroke-width="1" stroke-linecap="round"/></g><path d="M306.61419,193.16782v-3.98055h28.37746v3.98055z" fill="#4372d5" fill-rule="nonzero" stroke="none" stroke-width="0" stroke-linecap="butt" stroke-linejoin="miter"/></g></g></svg>