<svg version="1.1" xmlns="http://www.w3.org/2000/svg" xmlns:xlink="http://www.w3.org/1999/xlink" width="213.18203" height="286.02132" viewBox="0,0,213.18203,286.02132"><defs><linearGradient x1="320.08742" y1="187.07227" x2="320.08742" y2="244.23177" gradientUnits="userSpaceOnUse" id="color-1"><stop offset="0" stop-color="#2713b5"/><stop offset="1" stop-color="#2713b5" stop-opacity="0"/></linearGradient></defs><g transform="translate(-214.52362,-34.05096)"><g stroke-miterlimit="10"><path d="M292.55063,227.48463c-6.58789,4.42082 -14.91493,3.55416 -18.59894,-1.93576c-3.68402,-5.48991 -1.32996,-13.52415 5.25793,-17.94497c6.58789,-4.42082 14.91493,-3.55416 18.59894,1.93576c3.68402,5.48991 1.32996,13.52415 -5.25793,17.94497z" fill="#4372d5" stroke="#000000" stroke-width="2" stroke-linecap="butt"/><g stroke="#000000" stroke-linecap="butt"><path d="M286.35186,319.07226l15.14285,-131.8421l37.78325,-0.15789l13.57389,132z" fill="#4372d5" stroke-width="0"/><path d="M295.01902,243.61117l6.47569,-56.38101l37.78325,-0.15789l5.87786,57.15951z" fill="url(#color-1)" stroke-width="0"/><path d="M286.35186,319.07226l15.14285,-131.8421l37.78325,-0.15789l13.57389,132z" fill="none" stroke-width="2"/></g><path d="M214.52362,306.61252v-267.72501h213.18203v267.72501z" fill="none" stroke="none" stroke-width="0" stroke-linecap="butt"/><path d="" fill="none" stroke="#000000" stroke-width="2" stroke-linecap="round"/><g stroke="#000000"><path d="M263.1345,162.50055l-15.66914,-11.24311l20.47671,-23.68176z" fill="#435656" stroke-width="2" stroke-linecap="round"/><path d="M266.51106,142.38211l-33.16911,-53.20878l4.29216,-30.49627l103.73779,-23.40353l8.75296,82.00141z" fill="#ab1a21" stroke-width="2" stroke-linecap="round"/><path d="M264.36769,142.5118c0,-33.30185 28.7599,-60.29833 64.23702,-60.29833c35.47713,0 64.23702,26.99648 64.23702,60.29833c0,33.30185 -28.75989,60.29834 -64.23702,60.29834c-35.47712,0 -64.23702,-26.99649 -64.23702,-60.29834z" fill="#4372d5" stroke-width="2" stroke-linecap="butt"/><path d="M277.69552,142.78742c0,-12.96801 10.51265,-23.48065 23.48066,-23.48065c12.96801,0 23.48065,10.51264 23.48065,23.48065c0,12.96801 -10.51264,23.48066 -23.48065,23.48066c-12.96801,0 -23.48066,-10.51265 -23.48066,-23.48066z" fill="#ffffff" stroke-width="2" stroke-linecap="butt"/><path d="M292.5502,142.17061c0,-8.29964 6.72818,-15.02784 15.02783,-15.02784c8.29964,0 15.02784,6.72819 15.02784,15.02785c0,8.29964 -6.72819,15.02785 -15.02784,15.02785c-8.29964,0 -15.02783,-6.72819 -15.02783,-15.02785z" fill="#000000" stroke-width="5" stroke-linecap="butt"/><path d="M326.39973,82.49344l50.44468,-21.19137l1.16843,14.95748l36.6075,36.86925l-7.83159,5.29784l-0.92136,34.32081l-4.83717,-4.60682l-14.51148,43.7648l-5.52818,-7.60125l-19.57899,26.71956l-5.52819,-10.13501l-26.25888,14.0508c0,0 5.13132,-29.15107 4.37648,-48.14128c-0.75484,-18.99021 -8.75296,-61.96174 -8.75296,-61.96174" fill="#4372d5" stroke-width="2" stroke-linecap="round"/><path d="M292.30926,106.67925c0,0 5.40861,-9.22462 8.52262,-6.44955c3.11401,2.77507 25.33751,36.62422 25.33751,36.62422l0.69102,-3.9158" fill="none" stroke-width="1" stroke-linecap="round"/><path d="M327.55144,196.28192c0,0 -16.86403,-2.02176 -22.14472,-3.822c-4.81038,-1.6399 -8.2603,-6.54335 -8.2603,-6.54335" fill="none" stroke-width="1.5" stroke-linecap="round"/><path d="M325.93904,75.64903l-49.29298,-13.35978" fill="none" stroke-width="1" stroke-linecap="round"/><path d="M314.19166,50.54186l-24.64649,33.86013" fill="none" stroke-width="1" stroke-linecap="round"/></g><g stroke-linecap="butt"><path d="M298.12918,215.26856c-7.9266,11.30073 -14.40813,20.42266 -23.31877,14.17253c-8.91064,-6.25013 -2.54061,-15.45029 5.38598,-26.75102c7.9266,-11.30073 18.36678,-17.64598 23.31878,-14.17253c4.952,3.47345 2.54061,15.45029 -5.38598,26.75102z" fill="#4372d5" stroke="#000000" stroke-width="2"/><g stroke="none" stroke-width="0.5"><path d="M285.63688,190.40783c-0.57815,-0.40287 -0.32023,-1.13144 -0.32023,-1.13144c3.12418,-8.76855 10.50643,-13.93353 19.48168,-15.47753c3.31189,0.01923 6.73704,0.24091 9.94541,1.14039c7.4393,2.08564 13.08231,8.88721 17.90333,14.48025c4.12246,4.79841 7.67251,12.77941 2.83278,18.39487c-1.58872,1.84336 -3.39601,1.74743 -5.20846,2.74606c-0.52657,0.29014 -1.33728,2.22057 -1.58957,2.62511c-2.23923,1.41755 -4.31152,1.95636 -6.91797,1.13912c-0.80251,-0.25162 -1.43377,-1.08212 -2.27474,-1.09151c-0.72747,-0.00812 -1.01943,1.10687 -1.69647,1.37313c-1.86371,0.73294 -3.35881,0.27619 -5.17218,-0.29224c-2.33938,-0.73332 -2.97627,-2.81463 -4.78429,-3.99179c-0.47779,-0.31107 -3.03362,0.98201 -3.70243,1.09938c-3.30685,0.53305 -5.0249,-1.23058 -7.4533,-3.06643c-4.92561,-3.72371 -10.91649,-9.56041 -11.08835,-16.0942c0.04596,-0.61608 0.05878,-1.23525 0.04481,-1.85318zM287.55046,189.01896c0.13315,0.27685 0.11197,0.56243 0.11197,0.56243l-0.03707,0.4175c0.02741,0.77275 0.02271,1.5483 -0.03411,2.31945c0.01959,5.7346 6.0359,11.20902 10.27769,14.42832c1.89494,1.43816 3.3153,3.1956 5.92448,2.70415c1.68794,-0.28597 3.17748,-1.7004 4.94261,-0.91467c0.36161,0.16096 1.44247,1.62797 1.84836,2.0316c1.35025,1.34278 3.26667,2.41115 5.21404,2.53187c1.5476,0.09593 2.13453,-1.755 3.43451,-1.84998c1.1116,-0.08121 2.0725,0.82522 3.13309,1.16783c1.81453,0.58616 3.27687,0.27396 4.89555,-0.64004c0.53361,-0.96331 1.01905,-2.34951 2.00955,-2.94889c1.69914,-1.02819 3.19344,-0.62899 4.72764,-2.35817c4.17145,-4.70161 0.51025,-11.8419 -2.86658,-15.74508c-4.51942,-5.24315 -9.89279,-11.91954 -16.89966,-13.85248c-2.99462,-0.82611 -6.18058,-1.05201 -9.27083,-1.08062c-7.85353,1.36289 -14.41565,5.78806 -17.41123,13.22677z" fill="#000000"/><path d="M304.82436,175.60271c3.09025,0.02862 6.29896,0.25277 9.29358,1.07887c7.00686,1.93294 12.42102,8.64636 16.94044,13.88949c3.37683,3.90318 7.03484,11.07714 2.86339,15.77876c-1.5342,1.72918 -3.03326,1.33806 -4.73241,2.36625c-0.99051,0.59938 -1.4811,1.99161 -2.0147,2.95492c-1.61867,0.91399 -3.08863,1.23244 -4.90316,0.64627c-1.06059,-0.34261 -2.02637,-1.24618 -3.13796,-1.16497c-1.29996,0.09498 -1.89718,1.94982 -3.44476,1.85389c-1.94736,-0.12072 -3.87878,-1.18754 -5.22903,-2.53032c-0.40588,-0.40364 -1.49419,-1.87157 -1.85581,-2.03254c-1.76511,-0.78574 -3.26888,0.62349 -4.95682,0.90945c-2.60918,0.49145 -4.0442,-1.2782 -5.93913,-2.71636c-4.24179,-3.2193 -10.2688,-8.73257 -10.2884,-14.46716c0.0568,-0.77114 0.06241,-1.55133 0.03501,-2.32409l0.03729,-0.41832c0,0 0.02146,-0.28659 -0.11169,-0.56344c2.99558,-7.43871 9.59068,-11.89781 17.44421,-13.26071z" fill="#4372d5"/></g><path d="M289.35577,196.88956c-0.04726,0.01061 -0.08944,0.02535 -0.12581,0.04464zM288.53562,195.07214l0.04456,-0.02946c4.57689,-1.24714 8.29769,4.93591 10.90977,7.96628c0.94967,1.10174 2.53601,2.43821 2.72629,4.01162c0.19257,1.59242 -1.18754,2.50217 -2.26365,3.50496c-2.76339,2.32458 -5.31998,2.04646 -8.22957,0.23153c-5.20301,-3.24553 -9.51355,-10.53682 -3.8767,-15.42344c0,0 0.30215,-0.26045 0.6893,-0.26151z" fill="#4372d5" stroke="none" stroke-width="0.5"/></g></g></g></svg>