<svg version="1.1" xmlns="http://www.w3.org/2000/svg" xmlns:xlink="http://www.w3.org/1999/xlink" width="254.18333" height="271.69018" viewBox="0,0,254.18333,271.69018"><g transform="translate(-190.1791,-27.23462)"><g stroke-miterlimit="10"><path d="M190.1791,298.92479v-267.72501h254.18333v267.72501z" fill="none" stroke="none" stroke-width="0" stroke-linecap="butt"/><path d="" fill="none" stroke="#000000" stroke-width="2" stroke-linecap="round"/><g><g stroke="#000000"><path d="M306.36118,213.38898l49.20407,-12.95346l-12.9419,53.24347z" fill="#ff6300" stroke-width="5" stroke-linecap="round"/><path d="M257.80089,188.27024l44.36511,24.91124l-46.32809,29.25866z" fill="#ff6300" stroke-width="5" stroke-linecap="round"/><path d="M239.42908,139.37682l14.64083,48.72862l-53.65772,-11.1z" fill="#ff6300" stroke-width="5" stroke-linecap="round"/><path d="M266.281,92.60191l-26.29421,43.5597l-27.78715,-47.22536z" fill="#ff6300" stroke-width="5" stroke-linecap="round"/><path d="M321.30593,73.28025l-49.39417,12.20854l13.74489,-53.04185z" fill="#ff6300" stroke-width="5" stroke-linecap="round"/><path d="M374.06131,100.64743l-43.55969,-26.29421l47.22536,-27.78715z" fill="#ff6300" stroke-width="5" stroke-linecap="round"/><path d="M387.11964,151.25503l-12.20853,-49.39417l53.04186,13.74489z" fill="#ff6300" stroke-width="5" stroke-linecap="round"/><path d="M359.33145,197.62648l26.29421,-43.5597l27.78715,47.22536z" fill="#ff6300" stroke-width="5" stroke-linecap="round"/><path d="M240.52893,161.77508c-9.82442,-37.83204 14.88353,-76.98546 55.18674,-87.45163c40.30323,-10.46617 80.93973,11.71827 90.76415,49.5503c9.82442,37.83204 -14.88352,76.98547 -55.18674,87.45164c-40.30321,10.46616 -80.93973,-11.71828 -90.76415,-49.55031z" fill="#ffe63c" stroke-width="5" stroke-linecap="butt"/><path d="M306.36119,213.38898l49.20406,-12.95346l-12.94189,53.24348z" fill="#ff6300" stroke-width="0" stroke-linecap="round"/><path d="M257.8009,188.27024l44.36511,24.91124l-46.32809,29.25866z" fill="#ff6300" stroke-width="0" stroke-linecap="round"/><path d="M239.42908,139.37681l14.64082,48.72862l-53.65772,-11.1z" fill="#ff6300" stroke-width="0" stroke-linecap="round"/><path d="M266.281,92.60191l-26.29421,43.5597l-27.78715,-47.22536z" fill="#ff6300" stroke-width="0" stroke-linecap="round"/><path d="M321.30593,73.28025l-49.39417,12.20853l13.74489,-53.04185z" fill="#ff6300" stroke-width="0" stroke-linecap="round"/><path d="M374.06131,100.64743l-43.5597,-26.29421l47.22536,-27.78715z" fill="#ff6300" stroke-width="0" stroke-linecap="round"/><path d="M387.11963,151.25503l-12.20853,-49.39417l53.04186,13.74489z" fill="#ff6300" stroke-width="0" stroke-linecap="round"/><path d="M359.33145,197.62647l26.29421,-43.5597l27.78715,47.22536z" fill="#ff6300" stroke-width="0" stroke-linecap="round"/><path d="M240.52893,161.77508c-9.82442,-37.83204 14.88353,-76.98546 55.18674,-87.45163c40.30323,-10.46617 80.93973,11.71827 90.76415,49.5503c9.82442,37.83204 -14.88352,76.98547 -55.18674,87.45164c-40.30321,10.46616 -80.93973,-11.71828 -90.76415,-49.55031z" fill="#ffe63c" stroke-width="0" stroke-linecap="butt"/></g><path d="M272.57861,142.18387c-1.53713,-5.91925 2.01526,-11.96386 7.93451,-13.50099c5.91925,-1.53713 11.96386,2.01526 13.50099,7.93451c1.53713,5.91925 -3.5725,8.34859 -9.49174,9.88574c-5.91925,1.53713 -10.40662,1.6 -11.94376,-4.31925z" fill="#000000" stroke="none" stroke-width="NaN" stroke-linecap="butt"/><path d="M340.3417,132.62606c-5.91925,1.53713 -11.71575,1.32154 -13.25289,-4.5977c-1.53713,-5.91925 2.01526,-11.96386 7.93451,-13.50099c5.91925,-1.53713 11.96386,2.01526 13.50099,7.93451c1.53713,5.91925 -2.26336,8.62705 -8.18261,10.16419z" fill="#000000" stroke="none" stroke-width="NaN" stroke-linecap="butt"/><path d="M348.91804,189.68117c0,0 -6.08788,12.55764 -17.60642,15.54884c-11.51855,2.9912 -24.10591,-4.71676 -24.10591,-4.71676c0,0 10.77351,0.72311 22.29205,-2.26809c11.51855,-2.9912 19.42028,-8.56399 19.42028,-8.56399z" fill="#000000" stroke="#000000" stroke-width="1.5" stroke-linecap="butt"/></g></g></g></svg>