<svg version="1.1" xmlns="http://www.w3.org/2000/svg" xmlns:xlink="http://www.w3.org/1999/xlink" width="213.18203" height="280.18475" viewBox="0,0,213.18203,280.18475"><g transform="translate(-214.52362,-38.88752)"><g stroke-miterlimit="10"><g><path d="M291.52221,219.05856l-5.38698,-3.59132l7.7812,-14.36529l52.97199,-2.09494l9.27757,19.15371l-5.0877,2.69349l3.59132,9.87614l-4.78843,-0.89783c0,0 -18.8293,5.6049 -27.52496,5.55938c-10.13651,-0.05307 -29.6369,-5.85866 -29.6369,-5.85866l-6.58409,-3.29205l2.99277,-5.38698z" fill="#251375" stroke="#000000" stroke-width="0" stroke-linecap="round"/><g stroke-linecap="butt"><path d="M286.35186,319.07226l15.14285,-131.8421l37.78325,-0.15789l13.57389,132z" fill="#1c19ee" stroke="#000000" stroke-width="0"/><path d="M292.44624,265.508c2.68827,-23.40563 9.04847,-78.27784 9.04847,-78.27784l37.78325,-0.15789c0,0 5.71636,55.07295 8.12401,78.48629c0.01436,0.13966 -54.97581,0.12422 -54.95573,-0.05056z" fill="#1815bf" stroke="#000000" stroke-width="0"/><path d="M293.56364,256.29001c2.58099,-22.4716 8.53049,-69.05985 8.53049,-69.05985l37.78325,-0.15789c0,0 4.24282,47.05732 6.5846,69.83005c0.00407,0.03958 -52.91685,-0.45117 -52.89834,-0.61231z" fill="#1c0072" stroke="#000000" stroke-width="0"/><path d="M294.20505,245.4867c2.36047,-20.55158 7.28967,-58.25653 7.28967,-58.25653l37.78325,-0.15789c0,0 3.98836,38.78497 6.13101,59.62138c0.01596,0.15516 -51.22768,-1.0002 -51.20393,-1.20695z" fill="#110042" stroke="#000000" stroke-width="0"/><path d="M297.31707,243.63711c0.9665,0 1.75,0.7835 1.75,1.75c0,0.9665 -0.7835,1.75 -1.75,1.75c-0.30408,0 -0.59004,-0.07755 -0.83919,-0.21396c-0.24915,0.13641 -0.53511,0.21396 -0.83919,0.21396c-0.9665,0 -1.75,-0.7835 -1.75,-1.75c0,-0.9665 0.7835,-1.75 1.75,-1.75c0.30408,0 0.59004,0.07755 0.83919,0.21396c0.24915,-0.13641 0.53511,-0.21396 0.83919,-0.21396z" fill="#110042" stroke="none" stroke-width="0.5"/><path d="M304.86977,247.59618c-0.26262,0 -0.50632,-0.08099 -0.70749,-0.21934c-0.00394,0.00003 -0.00787,0.00004 -0.01182,0.00004c-0.66142,0 -1.23714,-0.36694 -1.53469,-0.90836c-0.31293,0.47499 -0.85106,0.78847 -1.46241,0.78847c-0.9665,0 -1.75,-0.7835 -1.75,-1.75c0,-0.9665 0.7835,-1.75 1.75,-1.75c0.66142,0 1.23714,0.36694 1.53469,0.90836c0.31293,-0.47499 0.85106,-0.78847 1.46241,-0.78847c0.47768,0 0.91066,0.19139 1.22644,0.50167c0.21217,-0.09139 0.44602,-0.14201 0.6917,-0.14201c0.9665,0 1.75,0.7835 1.75,1.75c0,0.9665 -0.7835,1.75 -1.75,1.75c-0.29401,0 -0.57108,-0.0725 -0.81432,-0.20061c-0.12114,0.03912 -0.25036,0.06026 -0.38452,0.06026z" fill="#110042" stroke="none" stroke-width="0.5"/><path d="M309.25433,248.26433c0,-0.24704 0.07166,-0.47734 0.19533,-0.67124c-0.62073,-0.2689 -1.05498,-0.88701 -1.05498,-1.60655c0,-0.9665 0.7835,-1.75 1.75,-1.75c0.9665,0 1.75,0.7835 1.75,1.75c0,0.52353 -0.22989,0.99337 -0.59423,1.31407c0.27723,0.22928 0.45388,0.57587 0.45388,0.96373c0,0.69036 -0.55964,1.25 -1.25,1.25c-0.69036,0 -1.25,-0.55964 -1.25,-1.25z" fill="#110042" stroke="none" stroke-width="0.5"/><path d="M312.23096,246.34618c0,-0.9665 0.7835,-1.75 1.75,-1.75c0.9665,0 1.75,0.7835 1.75,1.75c0,0.9665 -0.7835,1.75 -1.75,1.75c-0.9665,0 -1.75,-0.7835 -1.75,-1.75z" fill="#110042" stroke="none" stroke-width="0.5"/><path d="M316.54679,246.70583c0,-0.9665 0.7835,-1.75 1.75,-1.75c0.9665,0 1.75,0.7835 1.75,1.75c0,0.9665 -0.7835,1.75 -1.75,1.75c-0.9665,0 -1.75,-0.7835 -1.75,-1.75z" fill="#110042" stroke="none" stroke-width="0.5"/><path d="M321.00297,247.90467c0,-0.33427 0.13121,-0.6379 0.34494,-0.86219c0.0727,-0.89967 0.82586,-1.60712 1.74425,-1.60712c0.9665,0 1.75,0.7835 1.75,1.75c0,0.9665 -0.7835,1.75 -1.75,1.75c-0.04215,0 -0.08396,-0.00149 -0.12537,-0.00442c-0.20238,0.14103 -0.44844,0.22373 -0.71382,0.22373c-0.69036,0 -1.25,-0.55964 -1.25,-1.25z" fill="#110042" stroke="none" stroke-width="0.5"/><path d="M324.8188,247.66491c0,-0.9665 0.7835,-1.75 1.75,-1.75c0.9665,0 1.75,0.7835 1.75,1.75c0,0.9665 -0.7835,1.75 -1.75,1.75c-0.9665,0 -1.75,-0.7835 -1.75,-1.75z" fill="#110042" stroke="none" stroke-width="0.5"/><path d="M292.68985,257.01587c0,-0.9665 0.7835,-1.75 1.75,-1.75c0.9665,0 1.75,0.7835 1.75,1.75c0,0.9665 -0.7835,1.75 -1.75,1.75c-0.9665,0 -1.75,-0.7835 -1.75,-1.75z" fill="#1c0072" stroke="none" stroke-width="0.5"/><path d="M297.00568,256.65621c0,-0.9665 0.7835,-1.75 1.75,-1.75c0.9665,0 1.75,0.7835 1.75,1.75c0,0.9665 -0.7835,1.75 -1.75,1.75c-0.9665,0 -1.75,-0.7835 -1.75,-1.75z" fill="#1c0072" stroke="none" stroke-width="0.5"/><path d="M302.52035,256.65621c0,-0.9665 0.7835,-1.75 1.75,-1.75c0.9665,0 1.75,0.7835 1.75,1.75c0,0.9665 -0.7835,1.75 -1.75,1.75c-0.9665,0 -1.75,-0.7835 -1.75,-1.75z" fill="#1c0072" stroke="none" stroke-width="0.5"/><path d="M312.90201,256.12552c0.69036,0 1.25,0.55964 1.25,1.25c0,0.69036 -0.55964,1.25 -1.25,1.25c-0.29701,0 -0.56983,-0.10359 -0.78429,-0.27661c-0.30541,0.26003 -0.70131,0.41696 -1.13385,0.41696c-0.9665,0 -1.75,-0.7835 -1.75,-1.75c0,-0.9665 0.7835,-1.75 1.75,-1.75c0.6653,0 1.24389,0.37126 1.5399,0.9179c0.11932,-0.03784 0.2464,-0.05825 0.37825,-0.05825z" fill="#1c0072" stroke="none" stroke-width="0.5"/><path d="M315.96784,259.29366c0,-0.53514 0.33628,-0.99174 0.80906,-1.17001c-0.14641,-0.25582 -0.2301,-0.55215 -0.2301,-0.86802c0,-0.9665 0.7835,-1.75 1.75,-1.75c0.9665,0 1.75,0.7835 1.75,1.75c0,0.92058 -0.71082,1.67514 -1.61355,1.74476c0.02262,0.09406 0.03459,0.19227 0.03459,0.29327c0,0.69036 -0.55964,1.25 -1.25,1.25c-0.69036,0 -1.25,-0.55964 -1.25,-1.25z" fill="#1c0072" stroke="none" stroke-width="0.5"/><path d="M320.98251,257.37552c0,-0.9665 0.7835,-1.75 1.75,-1.75c0.9665,0 1.75,0.7835 1.75,1.75c0,0.9665 -0.7835,1.75 -1.75,1.75c-0.9665,0 -1.75,-0.7835 -1.75,-1.75z" fill="#1c0072" stroke="none" stroke-width="0.5"/><path d="M327.21648,257.61529c0,-0.9665 0.7835,-1.75 1.75,-1.75c0.9665,0 1.75,0.7835 1.75,1.75c0,0.9665 -0.7835,1.75 -1.75,1.75c-0.9665,0 -1.75,-0.7835 -1.75,-1.75z" fill="#1c0072" stroke="none" stroke-width="0.5"/><path d="M333.45045,257.73517c0,-0.9665 0.7835,-1.75 1.75,-1.75c0.9665,0 1.75,0.7835 1.75,1.75c0,0.9665 -0.7835,1.75 -1.75,1.75c-0.9665,0 -1.75,-0.7835 -1.75,-1.75z" fill="#1c0072" stroke="none" stroke-width="0.5"/><path d="M338.91686,259.70448c-0.6377,0 -1.16387,-0.47753 -1.24042,-1.09451c-0.31493,-0.31645 -0.50958,-0.75271 -0.50958,-1.23444c0,-0.9665 0.7835,-1.75 1.75,-1.75c0.9665,0 1.75,0.7835 1.75,1.75c0,0.48173 -0.19464,0.91799 -0.50958,1.23444c-0.07655,0.61698 -0.60272,1.09451 -1.24042,1.09451z" fill="#1c0072" stroke="none" stroke-width="0.5"/><path d="M344.55141,255.38575c0.9665,0 1.75,0.7835 1.75,1.75c0,0.9665 -0.7835,1.75 -1.75,1.75c-0.41782,0 -0.80145,-0.14643 -1.10235,-0.39077c-0.27062,0.17155 -0.59155,0.27088 -0.93568,0.27088c-0.9665,0 -1.75,-0.7835 -1.75,-1.75c0,-0.9665 0.7835,-1.75 1.75,-1.75c0.41782,0 0.80145,0.14643 1.10235,0.39077c0.27062,-0.17155 0.59155,-0.27088 0.93568,-0.27088z" fill="#1c0072" stroke="none" stroke-width="0.5"/><path d="M328.3159,247.06548c0,-0.68593 0.5525,-1.24283 1.23675,-1.24993c0.28494,-0.58022 0.8817,-0.97961 1.57174,-0.97961c0.77321,0 1.4293,0.50145 1.66079,1.19689c0.19278,-0.75696 0.87899,-1.31678 1.69596,-1.31678c0.71758,0 1.33428,0.43189 1.60435,1.04991c0.31969,-0.41951 0.82461,-0.69026 1.39276,-0.69026c0.50831,0 0.96601,0.21672 1.28573,0.56281c0.31152,-0.48288 0.85423,-0.80257 1.47161,-0.80257c0.70841,0 1.31851,0.42093 1.59383,1.02632c0.24592,-0.66898 0.88875,-1.1462 1.64304,-1.1462c0.9665,0 1.75,0.7835 1.75,1.75c0,0.9665 -0.7835,1.75 -1.75,1.75c-0.70841,0 -1.31851,-0.42093 -1.59383,-1.02632c-0.24592,0.66898 -0.88875,1.1462 -1.64304,1.1462c-0.50831,0 -0.96601,-0.21672 -1.28573,-0.56281c-0.31152,0.48288 -0.85423,0.80257 -1.47161,0.80257c-0.71758,0 -1.33428,-0.43189 -1.60435,-1.04991c-0.31969,0.41951 -0.82461,0.69026 -1.39276,0.69026c-0.77321,0 -1.4293,-0.50145 -1.66079,-1.19689c-0.19278,0.75696 -0.87899,1.31678 -1.69596,1.31678c-0.31528,0 -0.61108,-0.08337 -0.86657,-0.22927c-0.19812,0.13193 -0.43604,0.20881 -0.69192,0.20881c-0.69036,0 -1.25,-0.55964 -1.25,-1.25z" fill="#110042" stroke="none" stroke-width="0.5"/><path d="M292.68985,265.76741c0,-0.9665 0.7835,-1.75 1.75,-1.75c0.9665,0 1.75,0.7835 1.75,1.75c0,0.9665 -0.7835,1.75 -1.75,1.75c-0.9665,0 -1.75,-0.7835 -1.75,-1.75z" fill="#1815bf" stroke="none" stroke-width="0.5"/><path d="M302.90047,267.92532c0,-0.17789 0.03716,-0.3471 0.10414,-0.50029c-0.43869,-0.31799 -0.72402,-0.8346 -0.72402,-1.41785c0,-0.9665 0.7835,-1.75 1.75,-1.75c0.9665,0 1.75,0.7835 1.75,1.75c0,0.50479 -0.21372,0.95966 -0.55562,1.27905c0.11147,0.18701 0.1755,0.40557 0.1755,0.63909c0,0.69036 -0.55964,1.25 -1.25,1.25c-0.69036,0 -1.25,-0.55964 -1.25,-1.25z" fill="#1815bf" stroke="none" stroke-width="0.5"/><path d="M308.17537,267.44578c0,-0.03049 0.00109,-0.06073 0.00324,-0.09068c-0.3112,-0.31592 -0.50324,-0.74955 -0.50324,-1.22804c0,-0.87967 0.64905,-1.60774 1.49438,-1.73146c0.321,-0.37806 0.79977,-0.61796 1.33458,-0.61796c0.81991,0 1.50813,0.56386 1.69803,1.32497c0.3179,-0.43956 0.83503,-0.72555 1.41896,-0.72555c0.9665,0 1.75,0.7835 1.75,1.75c0,0.9665 -0.7835,1.75 -1.75,1.75c-0.81991,0 -1.50813,-0.56386 -1.69803,-1.32497c-0.27063,0.37419 -0.68564,0.6371 -1.16334,0.70701c-0.02809,0.03308 -0.05738,0.0651 -0.08782,0.096c0.00215,0.02995 0.00324,0.06019 0.00324,0.09068c0,0.69036 -0.55964,1.25 -1.25,1.25c-0.69036,0 -1.25,-0.55964 -1.25,-1.25z" fill="#1815bf" stroke="none" stroke-width="0.5"/><path d="M321.22227,266.48671c0,-0.9665 0.7835,-1.75 1.75,-1.75c0.9665,0 1.75,0.7835 1.75,1.75c0,0.9665 -0.7835,1.75 -1.75,1.75c-0.9665,0 -1.75,-0.7835 -1.75,-1.75z" fill="#1815bf" stroke="none" stroke-width="0.5"/><path d="M332.32323,268.3566c-0.9665,0 -1.75,-0.7835 -1.75,-1.75c0,-0.9665 0.7835,-1.75 1.75,-1.75c0.25842,0 0.50376,0.05601 0.72453,0.15656c0.21972,-0.71542 0.8857,-1.23552 1.67315,-1.23552c0.9665,0 1.75,0.7835 1.75,1.75c0,0.9665 -0.7835,1.75 -1.75,1.75c-0.25842,0 -0.50376,-0.05601 -0.72453,-0.15656c-0.21972,0.71542 -0.8857,1.23552 -1.67315,1.23552z" fill="#1815bf" stroke="none" stroke-width="0.5"/><path d="M338.12593,266.84636c0,-0.9665 0.7835,-1.75 1.75,-1.75c0.9665,0 1.75,0.7835 1.75,1.75c0,0.9665 -0.7835,1.75 -1.75,1.75c-0.9665,0 -1.75,-0.7835 -1.75,-1.75z" fill="#1815bf" stroke="none" stroke-width="0.5"/><path d="M325.89775,266.24694c0,-0.9665 0.7835,-1.75 1.75,-1.75c0.9665,0 1.75,0.7835 1.75,1.75c0,0.9665 -0.7835,1.75 -1.75,1.75c-0.9665,0 -1.75,-0.7835 -1.75,-1.75z" fill="#1815bf" stroke="none" stroke-width="0.5"/><path d="M296.52615,266.00717c0,-0.9665 0.7835,-1.75 1.75,-1.75c0.9665,0 1.75,0.7835 1.75,1.75c0,0.9665 -0.7835,1.75 -1.75,1.75c-0.9665,0 -1.75,-0.7835 -1.75,-1.75z" fill="#1815bf" stroke="none" stroke-width="0.5"/><path d="M342.82188,266.72648c0,-0.39183 0.18029,-0.74156 0.46244,-0.97075c-0.22764,-0.29538 -0.36302,-0.66552 -0.36302,-1.06728c0,-0.9665 0.7835,-1.75 1.75,-1.75c0.9665,0 1.75,0.7835 1.75,1.75c0,0.75996 -0.48441,1.40677 -1.1613,1.64852c0.04016,0.12258 0.06188,0.25351 0.06188,0.38951c0,0.69036 -0.55964,1.25 -1.25,1.25c-0.69036,0 -1.25,-0.55964 -1.25,-1.25z" fill="#1815bf" stroke="none" stroke-width="0.5"/><path d="M296.42673,250.78189c0,-0.69036 0.55964,-1.25 1.25,-1.25c0.69036,0 1.25,0.55964 1.25,1.25c0,0.69036 -0.55964,1.25 -1.25,1.25c-0.69036,0 -1.25,-0.55964 -1.25,-1.25z" fill="#110042" stroke="none" stroke-width="0.5"/><path d="M311.65201,250.18247c0,-0.69036 0.55964,-1.25 1.25,-1.25c0.69036,0 1.25,0.55964 1.25,1.25c0,0.69036 -0.55964,1.25 -1.25,1.25c-0.69036,0 -1.25,-0.55964 -1.25,-1.25z" fill="#110042" stroke="none" stroke-width="0.5"/><path d="M317.16668,250.42224c0,-0.69036 0.55964,-1.25 1.25,-1.25c0.69036,0 1.25,0.55964 1.25,1.25c0,0.69036 -0.55964,1.25 -1.25,1.25c-0.69036,0 -1.25,-0.55964 -1.25,-1.25z" fill="#110042" stroke="none" stroke-width="0.5"/><path d="M335.26918,250.30236c0,-0.69036 0.55964,-1.25 1.25,-1.25c0.69036,0 1.25,0.55964 1.25,1.25c0,0.69036 -0.55964,1.25 -1.25,1.25c-0.69036,0 -1.25,-0.55964 -1.25,-1.25z" fill="#110042" stroke="none" stroke-width="0.5"/><path d="M298.70452,261.57146c0,-0.69036 0.55964,-1.25 1.25,-1.25c0.69036,0 1.25,0.55964 1.25,1.25c0,0.69036 -0.55964,1.25 -1.25,1.25c-0.69036,0 -1.25,-0.55964 -1.25,-1.25z" fill="#1c0072" stroke="none" stroke-width="0.5"/><path d="M306.01745,257.4954c0,-0.69036 0.55964,-1.25 1.25,-1.25c0.69036,0 1.25,0.55964 1.25,1.25c0,0.69036 -0.55964,1.25 -1.25,1.25c-0.69036,0 -1.25,-0.55964 -1.25,-1.25z" fill="#1c0072" stroke="none" stroke-width="0.5"/><path d="M322.80123,261.69135c0,-0.69036 0.55964,-1.25 1.25,-1.25c0.69036,0 1.25,0.55964 1.25,1.25c0,0.69036 -0.55964,1.25 -1.25,1.25c-0.69036,0 -1.25,-0.55964 -1.25,-1.25z" fill="#1c0072" stroke="none" stroke-width="0.5"/><path d="M327.35683,262.051c0,-0.69036 0.55964,-1.25 1.25,-1.25c0.69036,0 1.25,0.55964 1.25,1.25c0,0.69036 -0.55964,1.25 -1.25,1.25c-0.69036,0 -1.25,-0.55964 -1.25,-1.25z" fill="#1c0072" stroke="none" stroke-width="0.5"/><path d="M330.95335,261.45158c0,-0.69036 0.55964,-1.25 1.25,-1.25c0.69036,0 1.25,0.55964 1.25,1.25c0,0.69036 -0.55964,1.25 -1.25,1.25c-0.69036,0 -1.25,-0.55964 -1.25,-1.25z" fill="#1c0072" stroke="none" stroke-width="0.5"/><path d="M297.02615,270.08323c0,-0.69036 0.55964,-1.25 1.25,-1.25c0.69036,0 1.25,0.55964 1.25,1.25c0,0.69036 -0.55964,1.25 -1.25,1.25c-0.69036,0 -1.25,-0.55964 -1.25,-1.25z" fill="#1815bf" stroke="none" stroke-width="0.5"/><path d="M316.56726,266.72648c0,-0.69036 0.55964,-1.25 1.25,-1.25c0.69036,0 1.25,0.55964 1.25,1.25c0,0.69036 -0.55964,1.25 -1.25,1.25c-0.69036,0 -1.25,-0.55964 -1.25,-1.25z" fill="#1815bf" stroke="none" stroke-width="0.5"/><path d="M319.08482,269.12416c0,-0.69036 0.55964,-1.25 1.25,-1.25c0.69036,0 1.25,0.55964 1.25,1.25c0,0.69036 -0.55964,1.25 -1.25,1.25c-0.69036,0 -1.25,-0.55964 -1.25,-1.25z" fill="#1815bf" stroke="none" stroke-width="0.5"/><path d="M324.23984,269.96335c0,-0.69036 0.55964,-1.25 1.25,-1.25c0.69036,0 1.25,0.55964 1.25,1.25c0,0.69036 -0.55964,1.25 -1.25,1.25c-0.69036,0 -1.25,-0.55964 -1.25,-1.25z" fill="#1815bf" stroke="none" stroke-width="0.5"/><path d="M329.63462,270.323c0,-0.69036 0.55964,-1.25 1.25,-1.25c0.69036,0 1.25,0.55964 1.25,1.25c0,0.69036 -0.55964,1.25 -1.25,1.25c-0.69036,0 -1.25,-0.55964 -1.25,-1.25z" fill="#1815bf" stroke="none" stroke-width="0.5"/><path d="M336.5879,269.36393c0,-0.69036 0.55964,-1.25 1.25,-1.25c0.69036,0 1.25,0.55964 1.25,1.25c0,0.69036 -0.55964,1.25 -1.25,1.25c-0.69036,0 -1.25,-0.55964 -1.25,-1.25z" fill="#1815bf" stroke="none" stroke-width="0.5"/><path d="M299.08464,254.13865c0,-0.41421 0.33579,-0.75 0.75,-0.75c0.41421,0 0.75,0.33579 0.75,0.75c0,0.41421 -0.33579,0.75 -0.75,0.75c-0.41421,0 -0.75,-0.33579 -0.75,-0.75z" fill="#110042" stroke="none" stroke-width="0.5"/><path d="M305.07885,250.66201c0,-0.41421 0.33579,-0.75 0.75,-0.75c0.41421,0 0.75,0.33579 0.75,0.75c0,0.41421 -0.33579,0.75 -0.75,0.75c-0.41421,0 -0.75,-0.33579 -0.75,-0.75z" fill="#110042" stroke="none" stroke-width="0.5"/><path d="M311.67247,253.17957c0,-0.41421 0.33579,-0.75 0.75,-0.75c0.41421,0 0.75,0.33579 0.75,0.75c0,0.41421 -0.33579,0.75 -0.75,0.75c-0.41421,0 -0.75,-0.33579 -0.75,-0.75z" fill="#110042" stroke="none" stroke-width="0.5"/><path d="M320.06436,253.89888c0,-0.41421 0.33579,-0.75 0.75,-0.75c0.41421,0 0.75,0.33579 0.75,0.75c0,0.41421 -0.33579,0.75 -0.75,0.75c-0.41421,0 -0.75,-0.33579 -0.75,-0.75z" fill="#110042" stroke="none" stroke-width="0.5"/><path d="M337.92709,256.05679c0,-0.41421 0.33579,-0.75 0.75,-0.75c0.41421,0 0.75,0.33579 0.75,0.75c0,0.41421 -0.33579,0.75 -0.75,0.75c-0.41421,0 -0.75,-0.33579 -0.75,-0.75z" fill="#110042" stroke="none" stroke-width="0.5"/><path d="M303.76012,262.53054c0,-0.41421 0.33579,-0.75 0.75,-0.75c0.41421,0 0.75,0.33579 0.75,0.75c0,0.41421 -0.33579,0.75 -0.75,0.75c-0.41421,0 -0.75,-0.33579 -0.75,-0.75z" fill="#1c0072" stroke="none" stroke-width="0.5"/><path d="M321.02343,264.20891c0,-0.41421 0.33579,-0.75 0.75,-0.75c0.41421,0 0.75,0.33579 0.75,0.75c0,0.41421 -0.33579,0.75 -0.75,0.75c-0.41421,0 -0.75,-0.33579 -0.75,-0.75z" fill="#1c0072" stroke="none" stroke-width="0.5"/><path d="M323.90065,265.0481c0,-0.41421 0.33579,-0.75 0.75,-0.75c0.41421,0 0.75,0.33579 0.75,0.75c0,0.41421 -0.33579,0.75 -0.75,0.75c-0.41421,0 -0.75,-0.33579 -0.75,-0.75z" fill="#1c0072" stroke="none" stroke-width="0.5"/><path d="M329.65509,264.20891c0,-0.41421 0.33579,-0.75 0.75,-0.75c0.41421,0 0.75,0.33579 0.75,0.75c0,0.41421 -0.33579,0.75 -0.75,0.75c-0.41421,0 -0.75,-0.33579 -0.75,-0.75z" fill="#1c0072" stroke="none" stroke-width="0.5"/><path d="M337.56744,263.24984c0,-0.41421 0.33579,-0.75 0.75,-0.75c0.41421,0 0.75,0.33579 0.75,0.75c0,0.41421 -0.33579,0.75 -0.75,0.75c-0.41421,0 -0.75,-0.33579 -0.75,-0.75z" fill="#1c0072" stroke="none" stroke-width="0.5"/><path d="M342.48269,261.93111c0,-0.41421 0.33579,-0.75 0.75,-0.75c0.41421,0 0.75,0.33579 0.75,0.75c0,0.41421 -0.33579,0.75 -0.75,0.75c-0.41421,0 -0.75,-0.33579 -0.75,-0.75z" fill="#1c0072" stroke="none" stroke-width="0.5"/><path d="M305.55838,270.92242c0,-0.41421 0.33579,-0.75 0.75,-0.75c0.41421,0 0.75,0.33579 0.75,0.75c0,0.41421 -0.33579,0.75 -0.75,0.75c-0.41421,0 -0.75,-0.33579 -0.75,-0.75z" fill="#1815bf" stroke="none" stroke-width="0.5"/><path d="M315.86842,275.71779c0,-0.41421 0.33579,-0.75 0.75,-0.75c0.41421,0 0.75,0.33579 0.75,0.75c0,0.41421 -0.33579,0.75 -0.75,0.75c-0.41421,0 -0.75,-0.33579 -0.75,-0.75z" fill="#1815bf" stroke="none" stroke-width="0.5"/><path d="M323.78077,274.39906c0,-0.41421 0.33579,-0.75 0.75,-0.75c0.41421,0 0.75,0.33579 0.75,0.75c0,0.41421 -0.33579,0.75 -0.75,0.75c-0.41421,0 -0.75,-0.33579 -0.75,-0.75z" fill="#1815bf" stroke="none" stroke-width="0.5"/><path d="M331.21358,273.43999c0,-0.41421 0.33579,-0.75 0.75,-0.75c0.41421,0 0.75,0.33579 0.75,0.75c0,0.41421 -0.33579,0.75 -0.75,0.75c-0.41421,0 -0.75,-0.33579 -0.75,-0.75z" fill="#1815bf" stroke="none" stroke-width="0.5"/><path d="M340.80431,273.32011c0,-0.41421 0.33579,-0.75 0.75,-0.75c0.41421,0 0.75,0.33579 0.75,0.75c0,0.41421 -0.33579,0.75 -0.75,0.75c-0.41421,0 -0.75,-0.33579 -0.75,-0.75z" fill="#1815bf" stroke="none" stroke-width="0.5"/></g><g stroke="#000000" stroke-linecap="round"><path d="M346.32908,201.92287l6.2192,36.16355l-3.22477,-3.68546l-0.69102,13.59012l-4.14614,-2.99444l-2.30341,9.21364l-8.06194,-13.12944l-2.99443,4.60682l-13.59012,-13.12944l0.92136,-26.48922z" fill="#2f1894" stroke-width="0"/><path d="M322.60395,207.45105l-0.92136,23.03411l-11.05637,12.66876l-1.84273,-8.75296l-9.21364,13.12944l-5.0675,-7.14057l-3.22478,3.22477l5.29784,-42.15241l25.7982,4.37648" fill="#2f1894" stroke-width="0"/><path d="M328.36248,228.18174l-15.20251,-1.38204" fill="none" stroke-width="2"/><path d="M318.89754,233.71042l4.73083,-28.70034" fill="none" stroke-width="1"/><path d="M326.98043,223.11424l-8.29228,-1.15171" fill="none" stroke-width="2"/><path d="M328.13213,215.51298l-8.9833,-0.23034" fill="none" stroke-width="2"/><path d="M325.59838,211.59719l-4.83716,0.23034" fill="none" stroke-width="2"/></g></g><path d="M214.52362,122.5036v-83.61608h213.18203v267.72501h-213.18203v-169.22364" fill="none" stroke="none" stroke-width="0" stroke-linecap="butt"/><path d="" fill="none" stroke="#000000" stroke-width="2" stroke-linecap="round"/><path d="M377.99956,128.95641c0.9665,0 1.75,0.7835 1.75,1.75c0,0.9665 -0.7835,1.75 -1.75,1.75c-0.23169,0 -0.45287,-0.04503 -0.65526,-0.12681c-0.20239,0.08178 -0.42357,0.12681 -0.65526,0.12681c-0.9665,0 -1.75,-0.7835 -1.75,-1.75c0,-0.9665 0.7835,-1.75 1.75,-1.75c0.23169,0 0.45287,0.04503 0.65526,0.12681c0.20239,-0.08178 0.42357,-0.12681 0.65526,-0.12681z" fill="#1815bf" stroke="none" stroke-width="0.5" stroke-linecap="butt"/><path d="M375.62626,135.38684c0,-0.69036 0.55964,-1.25 1.25,-1.25c0.69036,0 1.25,0.55964 1.25,1.25c0,0.69036 -0.55964,1.25 -1.25,1.25c-0.69036,0 -1.25,-0.55964 -1.25,-1.25z" fill="#1815bf" stroke="none" stroke-width="0.5" stroke-linecap="butt"/><g><path d="M217.76549,149.60438c0.54321,-17.73543 13.98136,-36.86376 13.98136,-36.86376c0,0 12.68495,18.9711 19.52111,21.25582c6.02854,2.01481 10.98922,-6.82245 12.4364,-9.3132c11.22366,-19.31709 33.38586,-32.08506 58.45647,-31.2526c35.45759,1.17736 63.30572,29.1134 62.20055,62.39691c-1.10517,33.2835 -30.74513,59.31069 -66.20272,58.13334c-21.53291,-0.71499 -40.25949,-11.29851 -51.39943,-26.95519c-2.47295,-3.47561 -11.16687,-13.33773 -18.86825,-13.6156c-8.07699,-0.29141 -24.48787,8.10459 -24.48787,8.10459c0,0 -6.07024,-17.7649 -5.63761,-31.89029z" fill="#1c19ee" stroke="#000000" stroke-width="0" stroke-linecap="butt"/><path d="M251.26796,133.99643c1.61578,0.54001 3.15485,0.30046 4.57012,-0.38753c3.86516,-1.87892 6.80697,-7.10249 7.86627,-8.92567c11.22366,-19.31709 33.38586,-32.08506 58.45647,-31.2526c28.8696,0.95861 52.69472,19.65616 59.95495,44.53592c0.11284,0.38668 -131.99298,-4.35284 -130.84782,-3.97011z" fill="#1815bf" stroke="#000000" stroke-width="0" stroke-linecap="butt"/><path d="M263.70436,124.68323c11.22366,-19.31709 33.38586,-32.08506 58.45647,-31.2526c25.11595,0.83396 46.41391,15.0939 56.30821,35.17019c0.03671,0.07448 -115.05155,-3.42389 -114.76468,-3.9176z" fill="#1c0072" stroke="#000000" stroke-width="0" stroke-linecap="butt"/><path d="M272.09425,113.50185c12.21728,-12.87545 30.2317,-20.72983 50.06658,-20.07123c20.18178,0.67012 37.89835,10.00917 49.21398,24.06902c0.21007,0.26102 -100.36022,-2.52249 -100.06235,-2.92988c0.37875,-0.51801 0.77997,-1.06599 0.78179,-1.06791z" fill="#110042" stroke="#000000" stroke-width="0" stroke-linecap="butt"/><path d="M304.73714,203.5151l6.02201,-14.78046" fill="none" stroke="#1714b7" stroke-width="1" stroke-linecap="round"/><path d="M338.34077,204.86137l-6.17169,-15.41582" fill="none" stroke="#1714b7" stroke-width="1" stroke-linecap="round"/><path d="M318.0581,197.96525l-0.09173,2.76256" fill="none" stroke="#1714b7" stroke-width="1" stroke-linecap="round"/><path d="M331.31878,201.17118l-2.63262,-4.00537" fill="none" stroke="#1714b7" stroke-width="1" stroke-linecap="round"/><path d="M222.18674,130.74188c4.10005,-10.22923 9.56012,-18.00126 9.56012,-18.00126c0,0 12.68495,18.9711 19.52111,21.25582c0.65847,0.22007 -29.5664,-0.39871 -29.83388,-0.44619c-0.03977,-0.00705 0.73446,-2.76296 0.75267,-2.80838z" fill="#1815bf" stroke="#000000" stroke-width="0" stroke-linecap="butt"/><path d="M226.61826,121.28318c2.77615,-5.19403 5.12859,-8.54258 5.12859,-8.54258c0,0 2.67504,4.00069 6.23029,8.54893c0.16976,0.21718 -11.47964,0.21957 -11.35887,-0.00635z" fill="#1c0072" stroke="#000000" stroke-width="0" stroke-linecap="butt"/><path d="M271.69264,115.29137c0.03207,-0.96597 0.84115,-1.72304 1.80711,-1.69096c0.96597,0.03207 1.72304,0.84115 1.69096,1.80711c-0.03207,0.96597 -0.84115,1.72304 -1.80711,1.69096c-0.96597,-0.03207 -1.72304,-0.84115 -1.69096,-1.80711z" fill="#110042" stroke="none" stroke-width="0.5" stroke-linecap="butt"/><path d="M275.98383,115.8085c0.03207,-0.96597 0.84115,-1.72304 1.80711,-1.69096c0.96597,0.03207 1.72304,0.84115 1.69096,1.80711c-0.03207,0.96597 -0.84115,1.72304 -1.80711,1.69096c-0.96597,-0.03207 -1.72304,-0.84115 -1.69096,-1.80711z" fill="#110042" stroke="none" stroke-width="0.5" stroke-linecap="butt"/><path d="M281.22302,115.98246c0.03207,-0.96597 0.84115,-1.72304 1.80711,-1.69096c0.96597,0.03207 1.72304,0.84115 1.69096,1.80711c-0.03207,0.96597 -0.84115,1.72304 -1.80711,1.69096c-0.96597,-0.03207 -1.72304,-0.84115 -1.69096,-1.80711z" fill="#110042" stroke="none" stroke-width="0.5" stroke-linecap="butt"/><path d="M287.21068,116.18127c0.03207,-0.96597 0.84115,-1.72304 1.80711,-1.69096c0.96597,0.03207 1.72304,0.84115 1.69096,1.80711c-0.03207,0.96597 -0.84115,1.72304 -1.80711,1.69096c-0.96597,-0.03207 -1.72304,-0.84115 -1.69096,-1.80711z" fill="#110042" stroke="none" stroke-width="0.5" stroke-linecap="butt"/><path d="M292.84896,115.61921c0.03207,-0.96597 0.84115,-1.72304 1.80711,-1.69096c0.96597,0.03207 1.72304,0.84115 1.69096,1.80711c-0.03207,0.96597 -0.84115,1.72304 -1.80711,1.69096c-0.96597,-0.03207 -1.72304,-0.84115 -1.69096,-1.80711z" fill="#110042" stroke="none" stroke-width="0.5" stroke-linecap="butt"/><path d="M296.41034,115.55015c0.03207,-0.96597 0.84115,-1.72304 1.80711,-1.69096c0.96597,0.03207 1.72304,0.84115 1.69096,1.80711c-0.03207,0.96597 -0.84115,1.72304 -1.80711,1.69096c-0.96597,-0.03207 -1.72304,-0.84115 -1.69096,-1.80711z" fill="#110042" stroke="none" stroke-width="0.5" stroke-linecap="butt"/><path d="M305.39182,115.84838c0.03207,-0.96597 0.84115,-1.72304 1.80711,-1.69096c0.96597,0.03207 1.72304,0.84115 1.69096,1.80711c-0.03207,0.96597 -0.84115,1.72304 -1.80711,1.69096c-0.96597,-0.03207 -1.72304,-0.84115 -1.69096,-1.80711z" fill="#110042" stroke="none" stroke-width="0.5" stroke-linecap="butt"/><path d="M316.05732,116.20253c0.03207,-0.96597 0.84115,-1.72304 1.80711,-1.69096c0.96597,0.03207 1.72304,0.84115 1.69096,1.80711c-0.03207,0.96597 -0.84115,1.72304 -1.80711,1.69096c-0.96597,-0.03207 -1.72304,-0.84115 -1.69096,-1.80711z" fill="#110042" stroke="none" stroke-width="0.5" stroke-linecap="butt"/><path d="M319.94827,116.33172c0.02291,-0.68998 0.60082,-1.23074 1.2908,-1.20783c0.10747,0.00357 0.21131,0.02061 0.30998,0.04943c0.31463,-0.53412 0.90384,-0.88403 1.567,-0.86201c0.96597,0.03207 1.72304,0.84115 1.69096,1.80711c-0.03207,0.96597 -0.84115,1.72304 -1.80711,1.69096c-0.41232,-0.01369 -0.7866,-0.16895 -1.07767,-0.41756c-0.21549,0.15355 -0.48125,0.24016 -0.76613,0.2307c-0.68998,-0.02291 -1.23074,-0.60082 -1.20783,-1.2908z" fill="#110042" stroke="none" stroke-width="0.5" stroke-linecap="butt"/><path d="M331.03888,116.32534c0.03207,-0.96597 0.84115,-1.72304 1.80711,-1.69096c0.96597,0.03207 1.72304,0.84115 1.69096,1.80711c-0.03207,0.96597 -0.84115,1.72304 -1.80711,1.69096c-0.96597,-0.03207 -1.72304,-0.84115 -1.69096,-1.80711z" fill="#110042" stroke="none" stroke-width="0.5" stroke-linecap="butt"/><path d="M334.9807,116.08158c0.03207,-0.96597 0.84115,-1.72304 1.80711,-1.69096c0.96597,0.03207 1.72304,0.84115 1.69096,1.80711c-0.03207,0.96597 -0.84115,1.72304 -1.80711,1.69096c-0.96597,-0.03207 -1.72304,-0.84115 -1.69096,-1.80711z" fill="#110042" stroke="none" stroke-width="0.5" stroke-linecap="butt"/><path d="M339.29053,116.03736c0.03207,-0.96597 0.84115,-1.72304 1.80711,-1.69096c0.96597,0.03207 1.72304,0.84115 1.69096,1.80711c-0.03207,0.96597 -0.84115,1.72304 -1.80711,1.69096c-0.96597,-0.03207 -1.72304,-0.84115 -1.69096,-1.80711z" fill="#110042" stroke="none" stroke-width="0.5" stroke-linecap="butt"/><path d="M346.96221,116.2921c0.03207,-0.96597 0.84115,-1.72304 1.80711,-1.69096c0.96597,0.03207 1.72304,0.84115 1.69096,1.80711c-0.03207,0.96597 -0.84115,1.72304 -1.80711,1.69096c-0.96597,-0.03207 -1.72304,-0.84115 -1.69096,-1.80711z" fill="#110042" stroke="none" stroke-width="0.5" stroke-linecap="butt"/><path d="M359.40375,115.89085c0.96597,0.03207 1.72304,0.84115 1.69096,1.80711c-0.03207,0.96597 -0.84115,1.72304 -1.80711,1.69096c-0.52132,-0.01731 -0.9818,-0.26093 -1.29021,-0.63338c-0.33244,0.35117 -0.80808,0.56371 -1.32938,0.5464c-0.96597,-0.03207 -1.72304,-0.84115 -1.69096,-1.80711c0.03207,-0.96597 0.84115,-1.72304 1.80711,-1.69096c0.52132,0.01731 0.9818,0.26093 1.29021,0.63338c0.33244,-0.35117 0.80808,-0.56371 1.32938,-0.5464z" fill="#110042" stroke="none" stroke-width="0.5" stroke-linecap="butt"/><path d="M366.69537,117.00789c0.68998,0.02291 1.23074,0.60082 1.20783,1.2908c-0.02291,0.68998 -0.60082,1.23074 -1.2908,1.20783c-0.44276,-0.0147 -0.82408,-0.25794 -1.03443,-0.61269c-0.33309,0.41627 -0.85157,0.6757 -1.4254,0.65665c-0.96597,-0.03207 -1.72304,-0.84115 -1.69096,-1.80711c0.03207,-0.96597 0.84115,-1.72304 1.80711,-1.69096c0.76235,0.02532 1.39457,0.53458 1.61148,1.22297c0.22358,-0.17635 0.50828,-0.27767 0.81516,-0.26749z" fill="#110042" stroke="none" stroke-width="0.5" stroke-linecap="butt"/><path d="M263.50455,124.94747c0.03207,-0.96597 0.84115,-1.72304 1.80711,-1.69096c0.96597,0.03207 1.72304,0.84115 1.69096,1.80711c-0.03207,0.96597 -0.84115,1.72304 -1.80711,1.69096c-0.96597,-0.03207 -1.72304,-0.84115 -1.69096,-1.80711z" fill="#1c0072" stroke="none" stroke-width="0.5" stroke-linecap="butt"/><path d="M276.0846,125.68145c0.21764,-0.75037 0.92218,-1.28734 1.73886,-1.26021c0.96597,0.03207 1.72304,0.84115 1.69096,1.80711c-0.03207,0.96597 -0.84115,1.72304 -1.80711,1.69096c-0.16004,-0.00531 -0.31435,-0.03196 -0.46029,-0.0771c-0.22639,0.18598 -0.51875,0.29361 -0.83458,0.28312c-0.48639,-0.01615 -0.89864,-0.30811 -1.09153,-0.7207c-0.31699,0.26054 -0.72643,0.41133 -1.16876,0.39664c-0.96597,-0.03207 -1.72304,-0.84115 -1.69096,-1.80711c0.03207,-0.96597 0.84115,-1.72304 1.80711,-1.69096c0.83925,0.02786 1.52082,0.64225 1.66416,1.43649c0.04912,-0.02258 0.09992,-0.04208 0.15216,-0.05823z" fill="#1c0072" stroke="none" stroke-width="0.5" stroke-linecap="butt"/><path d="M286.31047,127.20329c-0.02291,0.68998 -0.60082,1.23074 -1.2908,1.20783c-0.37931,-0.01259 -0.7135,-0.1929 -0.93376,-0.46737c-0.0035,-0.0001 -0.007,-0.0002 -0.01052,-0.00033c-0.96597,-0.03207 -1.72304,-0.84115 -1.69096,-1.80711c0.03207,-0.96597 0.84115,-1.72304 1.80711,-1.69096c0.95517,0.03172 1.70609,0.82317 1.69175,1.7748c0.27274,0.2384 0.44013,0.59285 0.42718,0.98313z" fill="#1c0072" stroke="none" stroke-width="0.5" stroke-linecap="butt"/><path d="M293.95828,125.83945c0.28629,-0.61915 0.92261,-1.03915 1.64722,-1.01509c0.96597,0.03207 1.72304,0.84115 1.69096,1.80711c-0.03207,0.96597 -0.84115,1.72304 -1.80711,1.69096c-0.26866,-0.00892 -0.52117,-0.07795 -0.74501,-0.19373c-0.20891,0.13832 -0.46129,0.21536 -0.73076,0.20642c-0.50554,-0.01679 -0.93098,-0.33151 -1.11327,-0.76996c-0.32179,0.50337 -0.89324,0.82897 -1.53366,0.80771c-0.96597,-0.03207 -1.72304,-0.84115 -1.69096,-1.80711c0.03207,-0.96597 0.84115,-1.72304 1.80711,-1.69096c0.81464,0.02704 1.4807,0.60671 1.65016,1.36706c0.20878,-0.22789 0.5005,-0.37758 0.82533,-0.4024z" fill="#1c0072" stroke="none" stroke-width="0.5" stroke-linecap="butt"/><path d="M305.06252,125.76542c0.03207,-0.96597 0.84115,-1.72304 1.80711,-1.69096c0.96597,0.03207 1.72304,0.84115 1.69096,1.80711c-0.03207,0.96597 -0.84115,1.72304 -1.80711,1.69096c-0.96597,-0.03207 -1.72304,-0.84115 -1.69096,-1.80711z" fill="#1c0072" stroke="none" stroke-width="0.5" stroke-linecap="butt"/><path d="M311.81105,125.61486c0.03207,-0.96597 0.84115,-1.72304 1.80711,-1.69096c0.96597,0.03207 1.72304,0.84115 1.69096,1.80711c-0.03207,0.96597 -0.84115,1.72304 -1.80711,1.69096c-0.96597,-0.03207 -1.72304,-0.84115 -1.69096,-1.80711z" fill="#1c0072" stroke="none" stroke-width="0.5" stroke-linecap="butt"/><path d="M324.90282,126.23689c0.03207,-0.96597 0.84115,-1.72304 1.80711,-1.69096c0.96597,0.03207 1.72304,0.84115 1.69096,1.80711c-0.03207,0.96597 -0.84115,1.72304 -1.80711,1.69096c-0.96597,-0.03207 -1.72304,-0.84115 -1.69096,-1.80711z" fill="#1c0072" stroke="none" stroke-width="0.5" stroke-linecap="butt"/><path d="M328.35122,128.41191c0.02046,-0.61632 0.48375,-1.11358 1.07419,-1.19641c-0.03388,-0.14587 -0.04946,-0.29851 -0.04427,-0.4553c0.03207,-0.96597 0.84115,-1.72304 1.80711,-1.69096c0.96597,0.03207 1.72304,0.84115 1.69096,1.80711c-0.03207,0.96597 -0.84115,1.72304 -1.80711,1.69096c-0.07639,-0.00254 -0.15147,-0.00993 -0.22495,-0.02188c-0.04869,0.66563 -0.61509,1.1796 -1.2881,1.15725c-0.68998,-0.02291 -1.23074,-0.60082 -1.20783,-1.2908z" fill="#1c0072" stroke="none" stroke-width="0.5" stroke-linecap="butt"/><path d="M337.4701,130.21326c0.02291,-0.68998 0.60082,-1.23074 1.2908,-1.20783c0.00857,0.00028 0.01714,0.00066 0.02567,0.00111c-0.06716,-0.19573 -0.10048,-0.40676 -0.09322,-0.62587c0.03207,-0.96597 0.84115,-1.72304 1.80711,-1.69096c0.96597,0.03207 1.72304,0.84115 1.69096,1.80711c-0.03207,0.96597 -0.84115,1.72304 -1.80711,1.69096c-0.14604,-0.00485 -0.28732,-0.02746 -0.4218,-0.06568c0.00601,0.05704 0.00818,0.11517 0.00622,0.17413c-0.02291,0.68998 -0.60082,1.23074 -1.2908,1.20783c-0.68998,-0.02291 -1.23074,-0.60082 -1.20783,-1.2908z" fill="#1c0072" stroke="none" stroke-width="0.5" stroke-linecap="butt"/><path d="M345.29161,131.5969c0.01769,-0.53265 0.36614,-0.97637 0.84156,-1.1405c-0.65673,-0.26976 -1.10909,-0.92611 -1.08415,-1.67736c0.03207,-0.96597 0.84115,-1.72304 1.80711,-1.69096c0.96597,0.03207 1.72304,0.84115 1.69096,1.80711c-0.02732,0.82291 -0.61854,1.49421 -1.39027,1.65516c0.39144,0.22202 0.64938,0.64853 0.6334,1.12952c-0.02291,0.68998 -0.60082,1.23074 -1.2908,1.20783c-0.68998,-0.02291 -1.23074,-0.60082 -1.20783,-1.2908z" fill="#1c0072" stroke="none" stroke-width="0.5" stroke-linecap="butt"/><path d="M349.92641,128.56636c0.03207,-0.96597 0.84115,-1.72304 1.80711,-1.69096c0.96597,0.03207 1.72304,0.84115 1.69096,1.80711c-0.03207,0.96597 -0.84115,1.72304 -1.80711,1.69096c-0.96597,-0.03207 -1.72304,-0.84115 -1.69096,-1.80711z" fill="#1c0072" stroke="none" stroke-width="0.5" stroke-linecap="butt"/><path d="M362.6172,126.30017c0.96597,0.03207 1.72304,0.84115 1.69096,1.80711c-0.03207,0.96597 -0.84115,1.72304 -1.80711,1.69096c-0.80167,-0.02662 -1.45945,-0.5884 -1.6417,-1.33088c-0.23109,0.72876 -0.9247,1.24567 -1.72637,1.21905c-0.96597,-0.03207 -1.72304,-0.84115 -1.69096,-1.80711c0.03207,-0.96597 0.84115,-1.72304 1.80711,-1.69096c0.80167,0.02662 1.45945,0.5884 1.6417,1.33088c0.23109,-0.72876 0.9247,-1.24567 1.72637,-1.21905z" fill="#1c0072" stroke="none" stroke-width="0.5" stroke-linecap="butt"/><path d="M371.38672,127.34065c0.96597,0.03207 1.72304,0.84115 1.69096,1.80711c-0.03207,0.96597 -0.84115,1.72304 -1.80711,1.69096c-0.61765,-0.02051 -1.14989,-0.35869 -1.44504,-0.85243c-0.31606,0.25721 -0.72288,0.40582 -1.16213,0.39122c-0.96597,-0.03207 -1.72304,-0.84115 -1.69096,-1.80711c0.03207,-0.96597 0.84115,-1.72304 1.80711,-1.69096c0.61765,0.02051 1.14989,0.35869 1.44504,0.85243c0.31606,-0.25721 0.72288,-0.40582 1.16213,-0.39122z" fill="#1c0072" stroke="none" stroke-width="0.5" stroke-linecap="butt"/><path d="M374.457,128.81892c0.03207,-0.96597 0.84115,-1.72304 1.80711,-1.69096c0.96597,0.03207 1.72304,0.84115 1.69096,1.80711c-0.03207,0.96597 -0.84115,1.72304 -1.80711,1.69096c-0.96597,-0.03207 -1.72304,-0.84115 -1.69096,-1.80711z" fill="#1c0072" stroke="none" stroke-width="0.5" stroke-linecap="butt"/><path d="M235.49094,120.39312c0.96597,0.03207 1.72304,0.84115 1.69096,1.80711c-0.03207,0.96597 -0.84115,1.72304 -1.80711,1.69096c-0.56481,-0.01875 -1.0582,-0.30316 -1.36417,-0.72923c-0.28871,0.61309 -0.92177,1.02796 -1.64208,1.00404c-0.88267,-0.02931 -1.59092,-0.70739 -1.68202,-1.56112c-0.27206,0.6518 -0.92582,1.09989 -1.6736,1.07507c-0.96597,-0.03207 -1.72304,-0.84115 -1.69096,-1.80711c0.03207,-0.96597 0.84115,-1.72304 1.80711,-1.69096c0.88267,0.02931 1.59092,0.70739 1.68202,1.56112c0.27206,-0.6518 0.92582,-1.09989 1.6736,-1.07507c0.56481,0.01875 1.0582,0.30316 1.36417,0.72923c0.28871,-0.61309 0.92177,-1.02796 1.64208,-1.00404z" fill="#1c0072" stroke="none" stroke-width="0.5" stroke-linecap="butt"/><path d="M257.95303,134.87842c0.03207,-0.96597 0.84115,-1.72304 1.80711,-1.69096c0.96597,0.03207 1.72304,0.84115 1.69096,1.80711c-0.03207,0.96597 -0.84115,1.72304 -1.80711,1.69096c-0.96597,-0.03207 -1.72304,-0.84115 -1.69096,-1.80711z" fill="#1815bf" stroke="none" stroke-width="0.5" stroke-linecap="butt"/><path d="M263.59751,134.12925c0.03207,-0.96597 0.84115,-1.72304 1.80711,-1.69096c0.96597,0.03207 1.72304,0.84115 1.69096,1.80711c-0.03207,0.96597 -0.84115,1.72304 -1.80711,1.69096c-0.96597,-0.03207 -1.72304,-0.84115 -1.69096,-1.80711z" fill="#1815bf" stroke="none" stroke-width="0.5" stroke-linecap="butt"/><path d="M270.89496,134.37157c0.03207,-0.96597 0.84115,-1.72304 1.80711,-1.69096c0.96597,0.03207 1.72304,0.84115 1.69096,1.80711c-0.03207,0.96597 -0.84115,1.72304 -1.80711,1.69096c-0.96597,-0.03207 -1.72304,-0.84115 -1.69096,-1.80711z" fill="#1815bf" stroke="none" stroke-width="0.5" stroke-linecap="butt"/><path d="M280.05114,135.05024c0.03207,-0.96597 0.84115,-1.72304 1.80711,-1.69096c0.96597,0.03207 1.72304,0.84115 1.69096,1.80711c-0.03207,0.96597 -0.84115,1.72304 -1.80711,1.69096c-0.96597,-0.03207 -1.72304,-0.84115 -1.69096,-1.80711z" fill="#1815bf" stroke="none" stroke-width="0.5" stroke-linecap="butt"/><path d="M309.24093,136.01946c0.03207,-0.96597 0.84115,-1.72304 1.80711,-1.69096c0.96597,0.03207 1.72304,0.84115 1.69096,1.80711c-0.03207,0.96597 -0.84115,1.72304 -1.80711,1.69096c-0.96597,-0.03207 -1.72304,-0.84115 -1.69096,-1.80711z" fill="#1815bf" stroke="none" stroke-width="0.5" stroke-linecap="butt"/><path d="M313.99457,137.67587c0.0222,-0.66853 0.56544,-1.19698 1.22681,-1.20833c-0.00004,-0.02064 0.0003,-0.04135 0.00099,-0.06214c0.03207,-0.96597 0.84115,-1.72304 1.80711,-1.69096c0.96597,0.03207 1.72304,0.84115 1.69096,1.80711c-0.03207,0.96597 -0.84115,1.72304 -1.80711,1.69096c-0.17021,-0.00565 -0.33392,-0.03542 -0.48798,-0.08593c-0.17451,0.50432 -0.66164,0.85873 -1.22296,0.84008c-0.68998,-0.02291 -1.23074,-0.60082 -1.20783,-1.2908z" fill="#1815bf" stroke="none" stroke-width="0.5" stroke-linecap="butt"/><path d="M320.08733,136.56695c0.03207,-0.96597 0.84115,-1.72304 1.80711,-1.69096c0.96597,0.03207 1.72304,0.84115 1.69096,1.80711c-0.03207,0.96597 -0.84115,1.72304 -1.80711,1.69096c-0.96597,-0.03207 -1.72304,-0.84115 -1.69096,-1.80711z" fill="#1815bf" stroke="none" stroke-width="0.5" stroke-linecap="butt"/><path d="M329.44305,136.8776c0.03207,-0.96597 0.84115,-1.72304 1.80711,-1.69096c0.96597,0.03207 1.72304,0.84115 1.69096,1.80711c-0.03207,0.96597 -0.84115,1.72304 -1.80711,1.69096c-0.96597,-0.03207 -1.72304,-0.84115 -1.69096,-1.80711z" fill="#1815bf" stroke="none" stroke-width="0.5" stroke-linecap="butt"/><path d="M365.91787,138.46336c0.03207,-0.96597 0.84115,-1.72304 1.80711,-1.69096c0.96597,0.03207 1.72304,0.84115 1.69096,1.80711c-0.03207,0.96597 -0.84115,1.72304 -1.80711,1.69096c-0.96597,-0.03207 -1.72304,-0.84115 -1.69096,-1.80711z" fill="#1815bf" stroke="none" stroke-width="0.5" stroke-linecap="butt"/><path d="M370.70259,139.1842c0.02291,-0.68998 0.60082,-1.23074 1.2908,-1.20783c0.23443,0.00778 0.45165,0.07964 0.63537,0.1982c0.2901,-0.60954 0.92124,-1.02142 1.63901,-0.99759c0.96597,0.03207 1.72304,0.84115 1.69096,1.80711c-0.03207,0.96597 -0.84115,1.72304 -1.80711,1.69096c-0.5111,-0.01697 -0.96374,-0.25147 -1.27192,-0.61165c-0.23817,0.26352 -0.58647,0.42432 -0.96929,0.4116c-0.68998,-0.02291 -1.23074,-0.60082 -1.20783,-1.2908z" fill="#1815bf" stroke="none" stroke-width="0.5" stroke-linecap="butt"/><path d="M221.64668,133.86021c0.03207,-0.96597 0.84115,-1.72304 1.80711,-1.69096c0.96597,0.03207 1.72304,0.84115 1.69096,1.80711c-0.03207,0.96597 -0.84115,1.72304 -1.80711,1.69096c-0.96597,-0.03207 -1.72304,-0.84115 -1.69096,-1.80711z" fill="#1815bf" stroke="none" stroke-width="0.5" stroke-linecap="butt"/><path d="M232.51794,133.65923c0.03207,-0.96597 0.84115,-1.72304 1.80711,-1.69096c0.96597,0.03207 1.72304,0.84115 1.69096,1.80711c-0.03207,0.96597 -0.84115,1.72304 -1.80711,1.69096c-0.96597,-0.03207 -1.72304,-0.84115 -1.69096,-1.80711z" fill="#1815bf" stroke="none" stroke-width="0.5" stroke-linecap="butt"/><path d="M237.55138,134.38832c0.03207,-0.96597 0.84115,-1.72304 1.80711,-1.69096c0.96597,0.03207 1.72304,0.84115 1.69096,1.80711c-0.03207,0.96597 -0.84115,1.72304 -1.80711,1.69096c-0.96597,-0.03207 -1.72304,-0.84115 -1.69096,-1.80711z" fill="#1815bf" stroke="none" stroke-width="0.5" stroke-linecap="butt"/><path d="M247.02395,133.13922c0.96597,0.03207 1.72304,0.84115 1.69096,1.80711c-0.03207,0.96597 -0.84115,1.72304 -1.80711,1.69096c-0.12845,-0.00426 -0.2532,-0.02227 -0.37289,-0.05255c-0.12143,0.02228 -0.24711,0.03196 -0.37556,0.0277c-0.96597,-0.03207 -1.72304,-0.84115 -1.69096,-1.80711c0.03207,-0.96597 0.84115,-1.72304 1.80711,-1.69096c0.12845,0.00426 0.2532,0.02227 0.37289,0.05255c0.12143,-0.02228 0.24711,-0.03196 0.37556,-0.0277z" fill="#1815bf" stroke="none" stroke-width="0.5" stroke-linecap="butt"/><path d="M276.20779,119.1877c0.02291,-0.68998 0.60082,-1.23074 1.2908,-1.20783c0.68998,0.02291 1.23074,0.60082 1.20783,1.2908c-0.02291,0.68998 -0.60082,1.23074 -1.2908,1.20783c-0.68998,-0.02291 -1.23074,-0.60082 -1.20783,-1.2908z" fill="#110042" stroke="none" stroke-width="0.5" stroke-linecap="butt"/><path d="M301.52411,118.34243c0.02291,-0.68998 0.60082,-1.23074 1.2908,-1.20783c0.68998,0.02291 1.23074,0.60082 1.20783,1.2908c-0.02291,0.68998 -0.60082,1.23074 -1.2908,1.20783c-0.68998,-0.02291 -1.23074,-0.60082 -1.20783,-1.2908z" fill="#110042" stroke="none" stroke-width="0.5" stroke-linecap="butt"/><path d="M310.01881,116.37666c0.02291,-0.68998 0.60082,-1.23074 1.2908,-1.20783c0.68998,0.02291 1.23074,0.60082 1.20783,1.2908c-0.02291,0.68998 -0.60082,1.23074 -1.2908,1.20783c-0.68998,-0.02291 -1.23074,-0.60082 -1.20783,-1.2908z" fill="#110042" stroke="none" stroke-width="0.5" stroke-linecap="butt"/><path d="M328.31249,118.29533c0.02291,-0.68998 0.60082,-1.23074 1.2908,-1.20783c0.68998,0.02291 1.23074,0.60082 1.20783,1.2908c-0.02291,0.68998 -0.60082,1.23074 -1.2908,1.20783c-0.68998,-0.02291 -1.23074,-0.60082 -1.20783,-1.2908z" fill="#110042" stroke="none" stroke-width="0.5" stroke-linecap="butt"/><path d="M340.07583,119.43522c0.02291,-0.68998 0.60082,-1.23074 1.2908,-1.20783c0.68998,0.02291 1.23074,0.60082 1.20783,1.2908c-0.02291,0.68998 -0.60082,1.23074 -1.2908,1.20783c-0.68998,-0.02291 -1.23074,-0.60082 -1.20783,-1.2908z" fill="#110042" stroke="none" stroke-width="0.5" stroke-linecap="butt"/><path d="M347.92218,120.0704c0.02291,-0.68998 0.60082,-1.23074 1.2908,-1.20783c0.68998,0.02291 1.23074,0.60082 1.20783,1.2908c-0.02291,0.68998 -0.60082,1.23074 -1.2908,1.20783c-0.68998,-0.02291 -1.23074,-0.60082 -1.20783,-1.2908z" fill="#110042" stroke="none" stroke-width="0.5" stroke-linecap="butt"/><path d="M356.13036,121.09222c0.02291,-0.68998 0.60082,-1.23074 1.2908,-1.20783c0.68998,0.02291 1.23074,0.60082 1.20783,1.2908c-0.02291,0.68998 -0.60082,1.23074 -1.2908,1.20783c-0.68998,-0.02291 -1.23074,-0.60082 -1.20783,-1.2908z" fill="#110042" stroke="none" stroke-width="0.5" stroke-linecap="butt"/><path d="M267.86365,127.90201c0.02291,-0.68998 0.60082,-1.23074 1.2908,-1.20783c0.68998,0.02291 1.23074,0.60082 1.20783,1.2908c-0.02291,0.68998 -0.60082,1.23074 -1.2908,1.20783c-0.68998,-0.02291 -1.23074,-0.60082 -1.20783,-1.2908z" fill="#1c0072" stroke="none" stroke-width="0.5" stroke-linecap="butt"/><path d="M301.33844,129.57549c0.02291,-0.68998 0.60082,-1.23074 1.2908,-1.20783c0.68998,0.02291 1.23074,0.60082 1.20783,1.2908c-0.02291,0.68998 -0.60082,1.23074 -1.2908,1.20783c-0.68998,-0.02291 -1.23074,-0.60082 -1.20783,-1.2908z" fill="#1c0072" stroke="none" stroke-width="0.5" stroke-linecap="butt"/><path d="M308.03105,131.10896c0.02291,-0.68998 0.60082,-1.23074 1.2908,-1.20783c0.68998,0.02291 1.23074,0.60082 1.20783,1.2908c-0.02291,0.68998 -0.60082,1.23074 -1.2908,1.20783c-0.68998,-0.02291 -1.23074,-0.60082 -1.20783,-1.2908z" fill="#1c0072" stroke="none" stroke-width="0.5" stroke-linecap="butt"/><path d="M315.4714,127.04765c0.02291,-0.68998 0.60082,-1.23074 1.2908,-1.20783c0.68998,0.02291 1.23074,0.60082 1.20783,1.2908c-0.02291,0.68998 -0.60082,1.23074 -1.2908,1.20783c-0.68998,-0.02291 -1.23074,-0.60082 -1.20783,-1.2908z" fill="#1c0072" stroke="none" stroke-width="0.5" stroke-linecap="butt"/><path d="M360.59147,133.41617c0.02291,-0.68998 0.60082,-1.23074 1.2908,-1.20783c0.68998,0.02291 1.23074,0.60082 1.20783,1.2908c-0.02291,0.68998 -0.60082,1.23074 -1.2908,1.20783c-0.68998,-0.02291 -1.23074,-0.60082 -1.20783,-1.2908z" fill="#1c0072" stroke="none" stroke-width="0.5" stroke-linecap="butt"/><path d="M372.01787,133.42095c0.02291,-0.68998 0.60082,-1.23074 1.2908,-1.20783c0.68998,0.02291 1.23074,0.60082 1.20783,1.2908c-0.02291,0.68998 -0.60082,1.23074 -1.2908,1.20783c-0.68998,-0.02291 -1.23074,-0.60082 -1.20783,-1.2908z" fill="#1c0072" stroke="none" stroke-width="0.5" stroke-linecap="butt"/><path d="M227.48428,125.43731c0.02291,-0.68998 0.60082,-1.23074 1.2908,-1.20783c0.68998,0.02291 1.23074,0.60082 1.20783,1.2908c-0.02291,0.68998 -0.60082,1.23074 -1.2908,1.20783c-0.68998,-0.02291 -1.23074,-0.60082 -1.20783,-1.2908z" fill="#1c0072" stroke="none" stroke-width="0.5" stroke-linecap="butt"/><path d="M233.11634,125.06236c0.02291,-0.68998 0.60082,-1.23074 1.2908,-1.20783c0.68998,0.02291 1.23074,0.60082 1.20783,1.2908c-0.02291,0.68998 -0.60082,1.23074 -1.2908,1.20783c-0.68998,-0.02291 -1.23074,-0.60082 -1.20783,-1.2908z" fill="#1c0072" stroke="none" stroke-width="0.5" stroke-linecap="butt"/><path d="M228.72024,133.3458c0.02291,-0.68998 0.60082,-1.23074 1.2908,-1.20783c0.68998,0.02291 1.23074,0.60082 1.20783,1.2908c-0.02291,0.68998 -0.60082,1.23074 -1.2908,1.20783c-0.68998,-0.02291 -1.23074,-0.60082 -1.20783,-1.2908z" fill="#1815bf" stroke="none" stroke-width="0.5" stroke-linecap="butt"/><path d="M230.67287,136.59508c0.02291,-0.68998 0.60082,-1.23074 1.2908,-1.20783c0.68998,0.02291 1.23074,0.60082 1.20783,1.2908c-0.02291,0.68998 -0.60082,1.23074 -1.2908,1.20783c-0.68998,-0.02291 -1.23074,-0.60082 -1.20783,-1.2908z" fill="#1815bf" stroke="none" stroke-width="0.5" stroke-linecap="butt"/><path d="M236.24903,137.90417c0.02291,-0.68998 0.60082,-1.23074 1.2908,-1.20783c0.68998,0.02291 1.23074,0.60082 1.20783,1.2908c-0.02291,0.68998 -0.60082,1.23074 -1.2908,1.20783c-0.68998,-0.02291 -1.23074,-0.60082 -1.20783,-1.2908z" fill="#1815bf" stroke="none" stroke-width="0.5" stroke-linecap="butt"/><path d="M238.86862,137.99115c0.02291,-0.68998 0.60082,-1.23074 1.2908,-1.20783c0.68998,0.02291 1.23074,0.60082 1.20783,1.2908c-0.02291,0.68998 -0.60082,1.23074 -1.2908,1.20783c-0.68998,-0.02291 -1.23074,-0.60082 -1.20783,-1.2908z" fill="#1815bf" stroke="none" stroke-width="0.5" stroke-linecap="butt"/><path d="M252.04118,136.18069c0.02291,-0.68998 0.60082,-1.23074 1.2908,-1.20783c0.68998,0.02291 1.23074,0.60082 1.20783,1.2908c-0.02291,0.68998 -0.60082,1.23074 -1.2908,1.20783c-0.68998,-0.02291 -1.23074,-0.60082 -1.20783,-1.2908z" fill="#1815bf" stroke="none" stroke-width="0.5" stroke-linecap="butt"/><path d="M268.36359,135.41144c0.02291,-0.68998 0.60082,-1.23074 1.2908,-1.20783c0.68998,0.02291 1.23074,0.60082 1.20783,1.2908c-0.02291,0.68998 -0.60082,1.23074 -1.2908,1.20783c-0.68998,-0.02291 -1.23074,-0.60082 -1.20783,-1.2908z" fill="#1815bf" stroke="none" stroke-width="0.5" stroke-linecap="butt"/><path d="M319.72677,139.92674c0.02291,-0.68998 0.60082,-1.23074 1.2908,-1.20783c0.68998,0.02291 1.23074,0.60082 1.20783,1.2908c-0.02291,0.68998 -0.60082,1.23074 -1.2908,1.20783c-0.68998,-0.02291 -1.23074,-0.60082 -1.20783,-1.2908z" fill="#1815bf" stroke="none" stroke-width="0.5" stroke-linecap="butt"/><path d="M323.28194,140.04478c0.02291,-0.68998 0.60082,-1.23074 1.2908,-1.20783c0.68998,0.02291 1.23074,0.60082 1.20783,1.2908c-0.02291,0.68998 -0.60082,1.23074 -1.2908,1.20783c-0.68998,-0.02291 -1.23074,-0.60082 -1.20783,-1.2908z" fill="#1815bf" stroke="none" stroke-width="0.5" stroke-linecap="butt"/><path d="M273.45823,121.15692c0.01375,-0.41398 0.36049,-0.73844 0.77448,-0.7247c0.41398,0.01375 0.73844,0.36049 0.7247,0.77448c-0.01375,0.41398 -0.36049,0.73844 -0.77448,0.7247c-0.41398,-0.01375 -0.73844,-0.36049 -0.7247,-0.77448z" fill="#110042" stroke="none" stroke-width="0.5" stroke-linecap="butt"/><path d="M276.78901,122.39144c0.01375,-0.41398 0.36049,-0.73844 0.77448,-0.7247c0.41398,0.01375 0.73844,0.36049 0.7247,0.77448c-0.01375,0.41398 -0.36049,0.73844 -0.77448,0.7247c-0.41398,-0.01375 -0.73844,-0.36049 -0.7247,-0.77448z" fill="#110042" stroke="none" stroke-width="0.5" stroke-linecap="butt"/><path d="M292.05708,119.52665c0.01375,-0.41398 0.36049,-0.73844 0.77448,-0.7247c0.41398,0.01375 0.73844,0.36049 0.7247,0.77448c-0.01375,0.41398 -0.36049,0.73844 -0.77448,0.7247c-0.41398,-0.01375 -0.73844,-0.36049 -0.7247,-0.77448z" fill="#110042" stroke="none" stroke-width="0.5" stroke-linecap="butt"/><path d="M306.43381,120.94062c0.01375,-0.41398 0.36049,-0.73844 0.77448,-0.7247c0.41398,0.01375 0.73844,0.36049 0.7247,0.77448c-0.01375,0.41398 -0.36049,0.73844 -0.77448,0.7247c-0.41398,-0.01375 -0.73844,-0.36049 -0.7247,-0.77448z" fill="#110042" stroke="none" stroke-width="0.5" stroke-linecap="butt"/><path d="M312.76461,122.08744c0.01375,-0.41398 0.36049,-0.73844 0.77448,-0.7247c0.41398,0.01375 0.73844,0.36049 0.7247,0.77448c-0.01375,0.41398 -0.36049,0.73844 -0.77448,0.7247c-0.41398,-0.01375 -0.73844,-0.36049 -0.7247,-0.77448z" fill="#110042" stroke="none" stroke-width="0.5" stroke-linecap="butt"/><path d="M321.927,122.579c0.01375,-0.41398 0.36049,-0.73844 0.77448,-0.7247c0.41398,0.01375 0.73844,0.36049 0.7247,0.77448c-0.01375,0.41398 -0.36049,0.73844 -0.77448,0.7247c-0.41398,-0.01375 -0.73844,-0.36049 -0.7247,-0.77448z" fill="#110042" stroke="none" stroke-width="0.5" stroke-linecap="butt"/><path d="M332.03116,122.91451c0.01375,-0.41398 0.36049,-0.73844 0.77448,-0.7247c0.41398,0.01375 0.73844,0.36049 0.7247,0.77448c-0.01375,0.41398 -0.36049,0.73844 -0.77448,0.7247c-0.41398,-0.01375 -0.73844,-0.36049 -0.7247,-0.77448z" fill="#110042" stroke="none" stroke-width="0.5" stroke-linecap="butt"/><path d="M342.50333,123.44954c0.01375,-0.41398 0.36049,-0.73844 0.77448,-0.7247c0.41398,0.01375 0.73844,0.36049 0.7247,0.77448c-0.01375,0.41398 -0.36049,0.73844 -0.77448,0.7247c-0.41398,-0.01375 -0.73844,-0.36049 -0.7247,-0.77448z" fill="#110042" stroke="none" stroke-width="0.5" stroke-linecap="butt"/><path d="M350.68044,125.40696c0.01375,-0.41398 0.36049,-0.73844 0.77448,-0.7247c0.41398,0.01375 0.73844,0.36049 0.7247,0.77448c-0.01375,0.41398 -0.36049,0.73844 -0.77448,0.7247c-0.41398,-0.01375 -0.73844,-0.36049 -0.7247,-0.77448z" fill="#110042" stroke="none" stroke-width="0.5" stroke-linecap="butt"/><path d="M362.47483,125.61126c0.01375,-0.41398 0.36049,-0.73844 0.77448,-0.7247c0.41398,0.01375 0.73844,0.36049 0.7247,0.77448c-0.01375,0.41398 -0.36049,0.73844 -0.77448,0.7247c-0.41398,-0.01375 -0.73844,-0.36049 -0.7247,-0.77448z" fill="#110042" stroke="none" stroke-width="0.5" stroke-linecap="butt"/><path d="M225.78907,129.50207c0.01375,-0.41398 0.36049,-0.73844 0.77448,-0.7247c0.41398,0.01375 0.73844,0.36049 0.7247,0.77448c-0.01375,0.41398 -0.36049,0.73844 -0.77448,0.7247c-0.41398,-0.01375 -0.73844,-0.36049 -0.7247,-0.77448z" fill="#1c0072" stroke="none" stroke-width="0.5" stroke-linecap="butt"/><path d="M232.10124,131.21023c0.01375,-0.41398 0.36049,-0.73844 0.77448,-0.7247c0.41398,0.01375 0.73844,0.36049 0.7247,0.77448c-0.01375,0.41398 -0.36049,0.73844 -0.77448,0.7247c-0.41398,-0.01375 -0.73844,-0.36049 -0.7247,-0.77448z" fill="#1c0072" stroke="none" stroke-width="0.5" stroke-linecap="butt"/><path d="M236.87228,128.55883c0.01375,-0.41398 0.36049,-0.73844 0.77448,-0.7247c0.41398,0.01375 0.73844,0.36049 0.7247,0.77448c-0.01375,0.41398 -0.36049,0.73844 -0.77448,0.7247c-0.41398,-0.01375 -0.73844,-0.36049 -0.7247,-0.77448z" fill="#1c0072" stroke="none" stroke-width="0.5" stroke-linecap="butt"/><path d="M261.89588,130.8883c0.01375,-0.41398 0.36049,-0.73844 0.77448,-0.7247c0.41398,0.01375 0.73844,0.36049 0.7247,0.77448c-0.01375,0.41398 -0.36049,0.73844 -0.77448,0.7247c-0.41398,-0.01375 -0.73844,-0.36049 -0.7247,-0.77448z" fill="#1c0072" stroke="none" stroke-width="0.5" stroke-linecap="butt"/><path d="M266.54887,131.79208c0.01375,-0.41398 0.36049,-0.73844 0.77448,-0.7247c0.41398,0.01375 0.73844,0.36049 0.7247,0.77448c-0.01375,0.41398 -0.36049,0.73844 -0.77448,0.7247c-0.41398,-0.01375 -0.73844,-0.36049 -0.7247,-0.77448z" fill="#1c0072" stroke="none" stroke-width="0.5" stroke-linecap="butt"/><path d="M276.65925,131.94047c0.01375,-0.41398 0.36049,-0.73844 0.77448,-0.7247c0.41398,0.01375 0.73844,0.36049 0.7247,0.77448c-0.01375,0.41398 -0.36049,0.73844 -0.77448,0.7247c-0.41398,-0.01375 -0.73844,-0.36049 -0.7247,-0.77448z" fill="#1c0072" stroke="none" stroke-width="0.5" stroke-linecap="butt"/><path d="M284.56154,130.89162c0.01375,-0.41398 0.36049,-0.73844 0.77448,-0.7247c0.41398,0.01375 0.73844,0.36049 0.7247,0.77448c-0.01375,0.41398 -0.36049,0.73844 -0.77448,0.7247c-0.41398,-0.01375 -0.73844,-0.36049 -0.7247,-0.77448z" fill="#1c0072" stroke="none" stroke-width="0.5" stroke-linecap="butt"/><path d="M300.60365,132.92286c0.01375,-0.41398 0.36049,-0.73844 0.77448,-0.7247c0.41398,0.01375 0.73844,0.36049 0.7247,0.77448c-0.01375,0.41398 -0.36049,0.73844 -0.77448,0.7247c-0.41398,-0.01375 -0.73844,-0.36049 -0.7247,-0.77448z" fill="#1c0072" stroke="none" stroke-width="0.5" stroke-linecap="butt"/><path d="M302.63705,133.73966c0.01375,-0.41398 0.36049,-0.73844 0.77448,-0.7247c0.41398,0.01375 0.73844,0.36049 0.7247,0.77448c-0.01375,0.41398 -0.36049,0.73844 -0.77448,0.7247c-0.41398,-0.01375 -0.73844,-0.36049 -0.7247,-0.77448z" fill="#1c0072" stroke="none" stroke-width="0.5" stroke-linecap="butt"/><path d="M330.39828,132.60095c0.01375,-0.41398 0.36049,-0.73844 0.77448,-0.7247c0.41398,0.01375 0.73844,0.36049 0.7247,0.77448c-0.01375,0.41398 -0.36049,0.73844 -0.77448,0.7247c-0.41398,-0.01375 -0.73844,-0.36049 -0.7247,-0.77448z" fill="#1c0072" stroke="none" stroke-width="0.5" stroke-linecap="butt"/><path d="M338.21979,133.98456c0.01375,-0.41398 0.36049,-0.73844 0.77448,-0.7247c0.41398,0.01375 0.73844,0.36049 0.7247,0.77448c-0.01375,0.41398 -0.36049,0.73844 -0.77448,0.7247c-0.41398,-0.01375 -0.73844,-0.36049 -0.7247,-0.77448z" fill="#1c0072" stroke="none" stroke-width="0.5" stroke-linecap="butt"/><path d="M357.69209,134.25651c0.01375,-0.41398 0.36049,-0.73844 0.77448,-0.7247c0.41398,0.01375 0.73844,0.36049 0.7247,0.77448c-0.01375,0.41398 -0.36049,0.73844 -0.77448,0.7247c-0.41398,-0.01375 -0.73844,-0.36049 -0.7247,-0.77448z" fill="#1c0072" stroke="none" stroke-width="0.5" stroke-linecap="butt"/><path d="M367.91501,136.65648c0.01375,-0.41398 0.36049,-0.73844 0.77448,-0.7247c0.41398,0.01375 0.73844,0.36049 0.7247,0.77448c-0.01375,0.41398 -0.36049,0.73844 -0.77448,0.7247c-0.41398,-0.01375 -0.73844,-0.36049 -0.7247,-0.77448z" fill="#1c0072" stroke="none" stroke-width="0.5" stroke-linecap="butt"/><path d="M319.6575,128.87252c0.01375,-0.41398 0.36049,-0.73844 0.77448,-0.7247c0.41398,0.01375 0.73844,0.36049 0.7247,0.77448c-0.01375,0.41398 -0.36049,0.73844 -0.77448,0.7247c-0.41398,-0.01375 -0.73844,-0.36049 -0.7247,-0.77448z" fill="#1c0072" stroke="none" stroke-width="0.5" stroke-linecap="butt"/><path d="M223.96286,139.36941c0.01375,-0.41398 0.36049,-0.73844 0.77448,-0.7247c0.41398,0.01375 0.73844,0.36049 0.7247,0.77448c-0.01375,0.41398 -0.36049,0.73844 -0.77448,0.7247c-0.41398,-0.01375 -0.73844,-0.36049 -0.7247,-0.77448z" fill="#1815bf" stroke="none" stroke-width="0.5" stroke-linecap="butt"/><path d="M233.24401,141.92543c0.01375,-0.41398 0.36049,-0.73844 0.77448,-0.7247c0.41398,0.01375 0.73844,0.36049 0.7247,0.77448c-0.01375,0.41398 -0.36049,0.73844 -0.77448,0.7247c-0.41398,-0.01375 -0.73844,-0.36049 -0.7247,-0.77448z" fill="#1815bf" stroke="none" stroke-width="0.5" stroke-linecap="butt"/><path d="M242.26899,140.91385c0.01375,-0.41398 0.36049,-0.73844 0.77448,-0.7247c0.41398,0.01375 0.73844,0.36049 0.7247,0.77448c-0.01375,0.41398 -0.36049,0.73844 -0.77448,0.7247c-0.41398,-0.01375 -0.73844,-0.36049 -0.7247,-0.77448z" fill="#1815bf" stroke="none" stroke-width="0.5" stroke-linecap="butt"/><path d="M247.37076,139.5847c0.01375,-0.41398 0.36049,-0.73844 0.77448,-0.7247c0.41398,0.01375 0.73844,0.36049 0.7247,0.77448c-0.01375,0.41398 -0.36049,0.73844 -0.77448,0.7247c-0.41398,-0.01375 -0.73844,-0.36049 -0.7247,-0.77448z" fill="#1815bf" stroke="none" stroke-width="0.5" stroke-linecap="butt"/><path d="M262.91366,139.72616c0.01375,-0.41398 0.36049,-0.73844 0.77448,-0.7247c0.41398,0.01375 0.73844,0.36049 0.7247,0.77448c-0.01375,0.41398 -0.36049,0.73844 -0.77448,0.7247c-0.41398,-0.01375 -0.73844,-0.36049 -0.7247,-0.77448z" fill="#1815bf" stroke="none" stroke-width="0.5" stroke-linecap="butt"/><path d="M315.83589,142.42002c0.01375,-0.41398 0.36049,-0.73844 0.77448,-0.7247c0.41398,0.01375 0.73844,0.36049 0.7247,0.77448c-0.01375,0.41398 -0.36049,0.73844 -0.77448,0.7247c-0.41398,-0.01375 -0.73844,-0.36049 -0.7247,-0.77448z" fill="#1815bf" stroke="none" stroke-width="0.5" stroke-linecap="butt"/><path d="M320.24586,145.00162c0.01375,-0.41398 0.36049,-0.73844 0.77448,-0.7247c0.41398,0.01375 0.73844,0.36049 0.7247,0.77448c-0.01375,0.41398 -0.36049,0.73844 -0.77448,0.7247c-0.41398,-0.01375 -0.73844,-0.36049 -0.7247,-0.77448z" fill="#1815bf" stroke="none" stroke-width="0.5" stroke-linecap="butt"/><path d="M371.63317,143.14882c0.01375,-0.41398 0.36049,-0.73844 0.77448,-0.7247c0.41398,0.01375 0.73844,0.36049 0.7247,0.77448c-0.01375,0.41398 -0.36049,0.73844 -0.77448,0.7247c-0.41398,-0.01375 -0.73844,-0.36049 -0.7247,-0.77448z" fill="#1815bf" stroke="none" stroke-width="0.5" stroke-linecap="butt"/><path d="M269.56856,152.29165c0.10277,-3.095 0.80003,-6.03018 1.97849,-8.6995c3.75653,-8.50894 37.865,-9.06893 41.79572,-2.31679c2.14523,3.68504 3.31318,7.99869 3.16123,12.57477c-0.19306,5.81426 -2.48414,11.06446 -6.12214,15.04774c-4.47165,4.89606 -31.24036,4.17017 -35.37824,-0.78784c-3.56526,-4.2719 -5.63425,-9.81965 -5.43506,-15.81837z" fill="#ffffff" stroke="#000000" stroke-width="0" stroke-linecap="butt"/><path d="M283.086,155.0198c0.27543,-8.29508 7.2232,-14.79628 15.51827,-14.52084c8.29508,0.27543 14.79628,7.22321 14.52084,15.51829c-0.27543,8.29508 -7.22321,14.79629 -15.51828,14.52085c-8.29508,-0.27543 -14.79627,-7.22321 -14.52083,-15.51829z" fill="#000000" stroke="#000000" stroke-width="0" stroke-linecap="butt"/><path d="M330.09964,170.89329c-4.09366,-4.38578 -6.51732,-10.3311 -6.30249,-16.80097c0.16473,-4.96118 1.85701,-9.51167 4.61018,-13.21483c4.43936,-5.9712 34.52003,-5.00026 38.55957,1.21645c2.52811,3.89066 3.93136,8.5678 3.7657,13.55687c-0.20369,6.13437 -2.74279,11.64087 -6.73516,15.69403c-4.44282,4.51047 -29.79077,3.94855 -33.8978,-0.45153z" fill="#ffffff" stroke="#000000" stroke-width="0" stroke-linecap="butt"/><path d="M367.60361,156.67527c-0.27543,8.2951 -7.2232,14.79629 -15.51827,14.52085c-8.29508,-0.27543 -14.79628,-7.22323 -14.52084,-15.51829c0.27543,-8.2951 7.22322,-14.79629 15.51828,-14.52085c8.29508,0.27543 14.79627,7.22322 14.52083,15.51828z" fill="#1b1b1b" stroke="#000000" stroke-width="0" stroke-linecap="butt"/></g></g></g></svg>