<svg version="1.1" xmlns="http://www.w3.org/2000/svg" xmlns:xlink="http://www.w3.org/1999/xlink" width="128.47404" height="230.79834" viewBox="0,0,128.47404,230.79834"><g transform="translate(-255.36486,-88.27392)"><g stroke="#000000" stroke-miterlimit="10"><path d="M286.35186,319.07225l15.14285,-131.8421l37.78325,-0.15789l13.57389,132z" fill="#808080" stroke-width="0" stroke-linecap="butt"/><path d="M255.36487,148.57225c0,-33.30185 28.7599,-60.29833 64.23702,-60.29833c35.47713,0 64.23702,26.99648 64.23702,60.29833c0,33.30185 -28.75989,60.29834 -64.23702,60.29834c-35.47712,0 -64.23702,-26.99649 -64.23702,-60.29834z" fill="#808080" stroke-width="0" stroke-linecap="butt"/><path d="M268.99199,148.84788c0,-12.96801 10.51265,-23.48065 23.48066,-23.48065c12.96801,0 23.48065,10.51264 23.48065,23.48065c0,12.96801 -10.51264,23.48066 -23.48065,23.48066c-12.96801,0 -23.48066,-10.51265 -23.48066,-23.48066z" fill="#808080" stroke-width="0" stroke-linecap="butt"/><path d="M285.19369,147.33489c0,-4.2288 3.42812,-7.65693 7.65693,-7.65693c4.2288,0 7.65693,3.42812 7.65693,7.65694c0,4.2288 -3.42812,7.65694 -7.65693,7.65694c-4.2288,0 -7.65693,-3.42812 -7.65693,-7.65694z" fill="#000000" stroke-width="0" stroke-linecap="butt"/><path d="" fill="none" stroke-width="2" stroke-linecap="round"/><path d="M346.7311,172.32854c-12.96801,0 -23.48065,-10.51265 -23.48065,-23.48066c0,-12.96801 10.51264,-23.48065 23.48065,-23.48065c12.96801,0 23.48066,10.51264 23.48066,23.48065c0,12.96801 -10.51265,23.48066 -23.48066,23.48066z" fill="#808080" stroke-width="0" stroke-linecap="butt"/><path d="M353.9945,147.46719c0,4.16521 -3.37656,7.54177 -7.54176,7.54177c-4.1652,0 -7.54176,-3.37657 -7.54176,-7.54177c0,-4.16521 3.37657,-7.54177 7.54176,-7.54177c4.1652,0 7.54176,3.37657 7.54176,7.54176z" fill="#000000" stroke-width="0" stroke-linecap="butt"/><path d="M312.87555,198.75919l13.43227,0.21321" fill="none" stroke-width="0" stroke-linecap="round"/></g></g></svg>