<svg version="1.1" xmlns="http://www.w3.org/2000/svg" xmlns:xlink="http://www.w3.org/1999/xlink" width="34.17311" height="34.17311" viewBox="0,0,34.17311,34.17311"><g transform="translate(-302.91346,-162.91347)"><g stroke-miterlimit="10"><path d="M309.98312,162.91348h20.03379c3.9166,0 7.06966,3.15307 7.06966,7.06966v20.03379c0,3.91659 -3.15306,7.06966 -7.06966,7.06966h-20.03379c-3.91659,0 -7.06966,-3.15307 -7.06966,-7.06966v-20.03379c0,-3.91659 3.15307,-7.06966 7.06966,-7.06966z" fill="#ffffff" fill-rule="evenodd" stroke="none" stroke-width="4.43922" stroke-linecap="round" stroke-linejoin="round"/><g fill="none" fill-rule="nonzero" stroke="none" stroke-width="1" stroke-linecap="butt" stroke-linejoin="miter" font-family="sans-serif" font-weight="normal" font-size="12" text-anchor="start"/><g fill="#ffffff" fill-rule="nonzero" stroke-width="3" stroke-linejoin="miter"><g stroke="#000000" stroke-linecap="round"><path d="M322.42749,178.72725l8.28434,-7.0045l-1.71221,12.69254"/></g><g stroke="#000000" stroke-linecap="round"><path d="M310.89267,184.41529l-1.71221,-12.69254l8.28434,7.0045"/></g><g><path d="M310.2948,187.38537c0,-5.00091 4.31885,-9.05496 9.64643,-9.05496c5.32758,0 9.64643,4.05404 9.64643,9.05496c0,0.28883 -0.01441,0.57449 -0.04258,0.8564c-6.24561,-0.00288 -19.05123,-0.01075 -19.20835,-0.00666c-0.02774,-0.27974 -0.04192,-0.56319 -0.04192,-0.84974z" stroke="#000000" stroke-linecap="butt"/><path d="" stroke="#000000" stroke-linecap="butt"/><path d="" stroke="none" stroke-linecap="round"/><path d="M305.96589,185.69466c0.95509,0.04026 5.17287,0.21806 5.17287,0.21806l1.40616,2.31577c-0.57889,-0.00006 -2.68964,0.02147 -3.16572,0.04879c0,0 -2.63337,-1.65025 -3.37007,-2.11192c-0.35942,-0.22524 -0.40907,-0.48612 -0.04324,-0.4707z" stroke="#000000" stroke-linecap="butt"/><path d="" stroke="#000000" stroke-linecap="butt"/><path d="" stroke="none" stroke-linecap="round"/><path d="M328.53807,185.42794c0,0 4.64683,-0.14575 5.59877,-0.1756c0.3259,-0.01022 0.20636,0.26133 -0.17318,0.49918c-0.83081,0.52064 -3.97412,2.49045 -3.97412,2.49045c-0.97221,-0.00038 -1.94441,-0.00099 -2.91663,-0.00175z" stroke="#000000" stroke-linecap="round"/></g></g><g fill="#ffffff" fill-rule="nonzero" stroke-width="0" stroke-linejoin="miter"><g stroke="#000000" stroke-linecap="round"><path d="M322.42749,178.72724l8.28434,-7.0045l-1.71221,12.69255"/></g><g stroke="#000000" stroke-linecap="round"><path d="M310.89267,184.41528l-1.71221,-12.69254l8.28434,7.0045"/></g><g><path d="M310.2948,187.38537c0,-5.00091 4.31885,-9.05496 9.64643,-9.05496c5.32757,0 9.64643,4.05404 9.64643,9.05496c0,0.28882 -0.01441,0.57449 -0.04258,0.8564c-6.24561,-0.00288 -19.05123,-0.01076 -19.20835,-0.00667c-0.02774,-0.27975 -0.04192,-0.56318 -0.04192,-0.84973z" stroke="#000000" stroke-linecap="butt"/><path d="" stroke="#000000" stroke-linecap="butt"/><path d="" stroke="none" stroke-linecap="round"/><path d="M305.20696,185.66267l5.93181,0.25005l1.40615,2.31577c-0.57889,-0.00006 -2.68963,0.02147 -3.16571,0.04879z" stroke="#000000" stroke-linecap="butt"/><path d="" stroke="#000000" stroke-linecap="butt"/><path d="" stroke="none" stroke-linecap="round"/><path d="M328.53807,185.42793l6.255,-0.19619l-4.80352,3.0102c-0.97221,-0.00038 -1.94442,-0.00099 -2.91663,-0.00175z" stroke="#000000" stroke-linecap="round"/></g></g><path d="M305.80021,190.52017v-2.46016h26.97689v2.46016z" fill="#ffffff" fill-rule="nonzero" stroke="none" stroke-width="0" stroke-linecap="butt" stroke-linejoin="miter"/></g></g></svg>