<svg version="1.1" xmlns="http://www.w3.org/2000/svg" xmlns:xlink="http://www.w3.org/1999/xlink" width="254.18333" height="271.03333" viewBox="0,0,254.18333,271.03333"><g transform="translate(-190.1791,-27.89144)"><g stroke-miterlimit="10"><path d="M190.1791,298.92478v-267.72501h254.18333v267.72501z" fill="none" stroke="none" stroke-width="0" stroke-linecap="butt"/><path d="" fill="none" stroke="#000000" stroke-width="2" stroke-linecap="round"/><g stroke="#000000"><path d="M295.34981,213.58331l50.88029,-0.17023l-25.90909,48.28125z" fill="#ff6300" stroke-width="5" stroke-linecap="round"/><path d="M254.66203,177.06541l36.67943,35.26262l-52.19492,16.67485z" fill="#ff6300" stroke-width="5" stroke-linecap="round"/><path d="M249.16933,125.12391l1.92293,50.84422l-49.14515,-24.23045z" fill="#ff6300" stroke-width="5" stroke-linecap="round"/><path d="M286.91602,86.59982l-36.39875,35.55227l-15.02506,-52.69353z" fill="#ff6300" stroke-width="5" stroke-linecap="round"/><path d="M345.03093,81.7289l-50.87705,-0.59855l26.63563,-47.88427z" fill="#ff6300" stroke-width="5" stroke-linecap="round"/><path d="M389.21398,121.47749l-35.55226,-36.39875l52.69353,-15.02506z" fill="#ff6300" stroke-width="5" stroke-linecap="round"/><path d="M389.13294,173.74261l0.59856,-50.87705l47.88428,26.63563z" fill="#ff6300" stroke-width="5" stroke-linecap="round"/><path d="M350.58145,211.64085l36.39875,-35.55227l15.02506,52.69353z" fill="#ff6300" stroke-width="5" stroke-linecap="round"/><path d="M244.60409,147.07955c0,-39.08686 33.75591,-70.77302 75.39591,-70.77302c41.64002,0 75.39591,31.68616 75.39591,70.77302c0,39.08686 -33.7559,70.77303 -75.39591,70.77303c-41.64,0 -75.39591,-31.68617 -75.39591,-70.77303z" fill="#ffe63c" stroke-width="5" stroke-linecap="butt"/><path d="M295.34982,213.58331l50.88028,-0.17023l-25.90909,48.28126z" fill="#ff6300" stroke-width="0" stroke-linecap="round"/><path d="M254.66204,177.06541l36.67943,35.26262l-52.19492,16.67485z" fill="#ff6300" stroke-width="0" stroke-linecap="round"/><path d="M249.16933,125.1239l1.92292,50.84422l-49.14515,-24.23045z" fill="#ff6300" stroke-width="0" stroke-linecap="round"/><path d="M286.91602,86.59982l-36.39875,35.55227l-15.02506,-52.69353z" fill="#ff6300" stroke-width="0" stroke-linecap="round"/><path d="M345.03093,81.7289l-50.87705,-0.59856l26.63563,-47.88427z" fill="#ff6300" stroke-width="0" stroke-linecap="round"/><path d="M389.21398,121.47749l-35.55227,-36.39875l52.69353,-15.02506z" fill="#ff6300" stroke-width="0" stroke-linecap="round"/><path d="M389.13293,173.7426l0.59856,-50.87705l47.88428,26.63563z" fill="#ff6300" stroke-width="0" stroke-linecap="round"/><path d="M350.58145,211.64084l36.39875,-35.55227l15.02506,52.69353z" fill="#ff6300" stroke-width="0" stroke-linecap="round"/><path d="M244.60409,147.07955c0,-39.08686 33.75591,-70.77302 75.39591,-70.77302c41.64002,0 75.39591,31.68616 75.39591,70.77302c0,39.08686 -33.7559,70.77303 -75.39591,70.77303c-41.64,0 -75.39591,-31.68617 -75.39591,-70.77303z" fill="#ffe63c" stroke-width="0" stroke-linecap="butt"/></g><path d="M280.5491,136.17293c0,-6.11558 4.95766,-11.07324 11.07324,-11.07324c6.11558,0 11.07324,4.95766 11.07324,11.07324c0,6.11558 -5.55621,9.87613 -11.67179,9.87613c-6.11558,0 -10.47469,-3.76055 -10.47469,-9.87613z" fill="#000000" stroke="none" stroke-width="none" stroke-linecap="butt"/><path d="M348.53909,146.64762c-6.11558,0 -11.6718,-4.35911 -11.6718,-10.47469c0,-6.11558 4.95766,-11.07324 11.07324,-11.07324c6.11558,0 11.07324,4.95766 11.07324,11.07324c0,6.11558 -4.3591,10.47469 -10.47468,10.47469z" fill="#000000" stroke="none" stroke-width="none" stroke-linecap="butt"/><path d="M300.00208,202.97926c0,0 14.64886,2.2007 22.14745,2.25171c7.14931,0.04863 21.84623,-1.95243 21.84623,-1.95243" fill="none" stroke="#000000" stroke-width="1.5" stroke-linecap="round"/></g></g></svg>