<svg version="1.1" xmlns="http://www.w3.org/2000/svg" xmlns:xlink="http://www.w3.org/1999/xlink" width="213.18203" height="281.18476" viewBox="0,0,213.18203,281.18476"><defs><linearGradient x1="320.08742" y1="187.07227" x2="320.08742" y2="244.23177" gradientUnits="userSpaceOnUse" id="color-1"><stop offset="0" stop-color="#a13b00"/><stop offset="1" stop-color="#a13b00" stop-opacity="0"/></linearGradient></defs><g transform="translate(-214.78369,-38.88751)"><g stroke-miterlimit="10"><path d="M214.78369,306.61252v-267.72501h213.18203v267.72501z" fill="none" stroke="none" stroke-width="0" stroke-linecap="butt"/><g stroke="#000000" stroke-linecap="butt"><path d="M286.35186,319.07226l15.14285,-131.8421l37.78325,-0.15789l13.57389,132z" fill="#ff7500" stroke-width="0"/><path d="M295.01902,243.61117l6.47569,-56.38101l37.78325,-0.15789l5.87786,57.15951z" fill="url(#color-1)" stroke-width="0"/><path d="M286.35186,319.07226l15.14285,-131.8421l37.78325,-0.15789l13.57389,132z" fill="none" stroke-width="2"/></g><path d="M347.69179,101.16273l39.03099,-41.41316l4.93014,4.64654l-39.03099,41.41316z" fill="#ca7e3b" stroke="#000000" stroke-width="4.5" stroke-linecap="butt"/><path d="M386.59713,65.21678c-4.19317,-3.95197 -4.38871,-10.55491 -0.43673,-14.74809c3.95198,-4.19318 10.55491,-4.38871 14.74809,-0.43673c4.19317,3.95197 4.38871,10.55492 0.43673,14.7481c-3.95198,4.19317 -10.55491,4.38871 -14.74809,0.43673z" fill="#ff7500" stroke="#000000" stroke-width="4.5" stroke-linecap="butt"/><path d="M347.69179,101.16273l39.03099,-41.41316l4.93014,4.64654l-39.03099,41.41316z" fill="#ca7e3b" stroke="#000000" stroke-width="0" stroke-linecap="butt"/><path d="M386.59713,65.21678c-4.19317,-3.95197 -4.38871,-10.55491 -0.43673,-14.74809c3.95198,-4.19318 10.55491,-4.38871 14.74809,-0.43673c4.19317,3.95197 4.38871,10.55492 0.43673,14.7481c-3.95198,4.19317 -10.55491,4.38871 -14.74809,0.43673z" fill="#ff7500" stroke="#000000" stroke-width="0" stroke-linecap="butt"/><path d="M279.78348,105.80927l-39.03099,-41.41316l4.93014,-4.64654l39.03099,41.41316z" fill="#ca7e3b" stroke="#000000" stroke-width="4.5" stroke-linecap="butt"/><path d="M231.06019,64.78005c-3.95198,-4.19317 -3.75645,-10.79612 0.43673,-14.74809c4.19317,-3.95197 10.79612,-3.75644 14.74809,0.43673c3.95198,4.19318 3.75644,10.79612 -0.43673,14.74809c-4.19317,3.95198 -10.79611,3.75644 -14.74809,-0.43673z" fill="#ff7500" stroke="#000000" stroke-width="4.5" stroke-linecap="butt"/><path d="M279.78348,105.80927l-39.03099,-41.41316l4.93014,-4.64654l39.03099,41.41316z" fill="#ca7e3b" stroke="#000000" stroke-width="0" stroke-linecap="butt"/><path d="M245.25713,123.61781c0,0 15.58705,-55.6479 69.67299,-55.29551c61.4293,0.40024 73.13784,55.73354 73.13784,55.73354l-12.73645,0.21901c0,0 -2.85727,-50.27747 -60.4303,-50.38909c-52.14723,-0.10111 -57.72059,49.95107 -57.72059,49.95107z" fill="#ffad65" stroke="#000000" stroke-width="2" stroke-linecap="butt"/><path d="M386.16516,114.35671c8.90493,0 16.1238,15.10491 16.1238,33.73777c0,18.63285 -7.21969,33.60069 -16.1238,33.73776c-20.01545,0.30811 -16.12381,-15.1049 -16.12381,-33.73776c0,-18.63285 -4.70461,-33.73777 16.12381,-33.73777z" fill="#ff7500" stroke="#000000" stroke-width="4.5" stroke-linecap="butt"/><path d="M372.61574,109.20793c10.53579,0.26146 15.03985,17.04624 15.03985,38.07385c0,21.02762 -5.14709,38.72762 -15.03985,38.07386c-10.05781,-0.66467 -10.70403,-17.04625 -10.70403,-38.07386c0,-21.02761 1.11408,-38.31184 10.70403,-38.07385z" fill="#ffa800" stroke="#000000" stroke-width="4.5" stroke-linecap="butt"/><path d="M386.16516,114.35671c8.90493,0 16.1238,15.10491 16.1238,33.73777c0,18.63285 -7.21969,33.60069 -16.1238,33.73776c-20.01545,0.30811 -16.12381,-15.1049 -16.12381,-33.73776c0,-18.63285 -4.70461,-33.73777 16.12381,-33.73777z" fill="#ff7500" stroke="#000000" stroke-width="0" stroke-linecap="butt"/><path d="M372.61574,109.20793c10.53579,0.26146 15.03985,17.04624 15.03985,38.07385c0,21.02762 -5.14709,38.72762 -15.03985,38.07386c-10.05781,-0.66467 -10.70403,-17.04625 -10.70403,-38.07386c0,-21.02761 1.11408,-38.31184 10.70403,-38.07385z" fill="#ffb41f" stroke="#000000" stroke-width="0" stroke-linecap="butt"/><path d="M262.32939,148.09447c0,18.63286 3.89164,34.04587 -16.12381,33.73776c-8.90411,-0.13707 -16.1238,-15.10491 -16.1238,-33.73776c0,-18.63286 7.21887,-33.73777 16.1238,-33.73777c20.82842,0 16.12381,15.10492 16.12381,33.73777z" fill="#ff7500" stroke="#000000" stroke-width="4.5" stroke-linecap="butt"/><path d="M270.45903,147.28178c0,21.02761 -0.64622,37.40919 -10.70403,38.07386c-9.89276,0.65376 -15.03985,-17.04624 -15.03985,-38.07386c0,-21.02761 4.50406,-37.81239 15.03985,-38.07385c9.58995,-0.23799 10.70403,17.04624 10.70403,38.07385z" fill="#ffa800" stroke="#000000" stroke-width="4.5" stroke-linecap="butt"/><path d="M262.32939,148.09447c0,18.63286 3.89164,34.04587 -16.12381,33.73776c-8.90411,-0.13707 -16.1238,-15.10491 -16.1238,-33.73776c0,-18.63286 7.21887,-33.73777 16.1238,-33.73777c20.82842,0 16.12381,15.10492 16.12381,33.73777z" fill="#ff7500" stroke="#000000" stroke-width="0" stroke-linecap="butt"/><path d="M270.45903,147.28178c0,21.02761 -0.64622,37.40919 -10.70403,38.07386c-9.89276,0.65376 -15.03985,-17.04624 -15.03985,-38.07386c0,-21.02761 4.50406,-37.81239 15.03985,-38.07385c9.58995,-0.23799 10.70403,17.04624 10.70403,38.07385z" fill="#ffb41f" stroke="#000000" stroke-width="0" stroke-linecap="butt"/><path d="M251.86487,146.57226c0,-33.30185 28.7599,-60.29833 64.23702,-60.29833c35.47713,0 64.23702,26.99648 64.23702,60.29833c0,33.30185 -28.75989,60.29834 -64.23702,60.29834c-35.47712,0 -64.23702,-26.99649 -64.23702,-60.29834z" fill="#ff7500" stroke="#000000" stroke-width="2" stroke-linecap="butt"/><path d="M265.49199,146.84787c0,-12.96801 10.51265,-23.48065 23.48066,-23.48065c12.96801,0 23.48065,10.51264 23.48065,23.48065c0,12.96801 -10.51264,23.48066 -23.48065,23.48066c-12.96801,0 -23.48066,-10.51265 -23.48066,-23.48066z" fill="#ffffff" stroke="#000000" stroke-width="2" stroke-linecap="butt"/><path d="M274.40143,146.73831c0,-7.80258 6.32524,-14.12784 14.12783,-14.12784c7.80258,0 14.12784,6.32525 14.12784,14.12785c0,7.80258 -6.32525,14.12785 -14.12784,14.12785c-7.80258,0 -14.12783,-6.32525 -14.12783,-14.12785z" fill="#000000" stroke="#000000" stroke-width="5" stroke-linecap="butt"/><path d="" fill="none" stroke="#000000" stroke-width="2" stroke-linecap="round"/><path d="M343.2311,170.32855c-12.96801,0 -23.48065,-10.51265 -23.48065,-23.48066c0,-12.96801 10.51264,-23.48065 23.48065,-23.48065c12.96801,0 23.48066,10.51264 23.48066,23.48065c0,12.96801 -10.51265,23.48066 -23.48066,23.48066z" fill="#ffffff" stroke="#000000" stroke-width="2" stroke-linecap="butt"/><path d="M357.95644,146.2251c0,7.63692 -6.19092,13.82785 -13.82783,13.82785c-7.6369,0 -13.82784,-6.19095 -13.82784,-13.82785c0,-7.63692 6.19094,-13.82785 13.82784,-13.82785c7.6369,0 13.82783,6.19094 13.82783,13.82784z" fill="#000000" stroke="#000000" stroke-width="5" stroke-linecap="butt"/><path d="M278.1297,118.03942c0,0 6.70895,-5.16922 11.79721,-6.36355c5.08827,-1.19433 12.33413,0.69937 12.33413,0.69937c0,0 -8.03812,-0.06028 -11.96762,0.86207c-4.10648,0.96389 -12.16372,4.80211 -12.16372,4.80211z" fill="#000000" stroke="none" stroke-width="0" stroke-linecap="butt"/><path d="M342.06424,113.23732c-3.9295,-0.92235 -11.96762,-0.86207 -11.96762,-0.86207c0,0 7.24586,-1.8937 12.33413,-0.69937c5.08826,1.19433 11.79721,6.36355 11.79721,6.36355c0,0 -8.05724,-3.83822 -12.16372,-4.80211z" fill="#000000" stroke="none" stroke-width="0" stroke-linecap="butt"/><path d="M327.36491,195.56965c0,0 -4.51573,2.79917 -11.64945,2.21358c-8.23656,-0.67612 -11.13317,-3.11419 -11.13317,-3.11419" fill="none" stroke="#000000" stroke-width="2" stroke-linecap="round"/><path d="M231.06019,64.78005c-3.95198,-4.19317 -3.75645,-10.79612 0.43673,-14.74809c4.19317,-3.95197 10.79612,-3.75644 14.74809,0.43673c3.95198,4.19318 3.75644,10.79612 -0.43673,14.74809c-4.19317,3.95198 -10.79611,3.75644 -14.74809,-0.43673z" fill="#ff7500" stroke="#000000" stroke-width="0" stroke-linecap="butt"/><path d="M288.25,92.12143c0,0 15.94425,-8.00251 31.48571,-8.97143c15.54147,-0.96892 22.6,8.4 22.6,8.4l13.14285,-0.88571l-10.08571,13.08571l21.11429,5.97143c0,0 -23.15879,6.12316 -35.51429,7c-12.3555,0.87684 -20.71428,-6.71429 -20.71428,-6.71429" fill="#ff7500" stroke="#000000" stroke-width="2" stroke-linecap="round"/><path d="M266.03112,141.82195c2.30123,-10.55296 11.69861,-18.45472 22.94153,-18.45472c11.03567,0 20.29319,7.61311 22.80705,17.87383c0.44018,1.79665 -46.10168,2.20011 -45.74859,0.58089z" fill="#ff7500" stroke="#000000" stroke-width="2" stroke-linecap="butt"/><path d="M320.19778,141.82195c2.30124,-10.55296 11.6986,-18.45472 22.94153,-18.45472c11.03566,0 20.29319,7.61311 22.80705,17.87383c0.44018,1.79665 -46.10168,2.20011 -45.74859,0.58089z" fill="#ff7500" stroke="#000000" stroke-width="2" stroke-linecap="butt"/></g></g></svg>