<svg version="1.1" xmlns="http://www.w3.org/2000/svg" xmlns:xlink="http://www.w3.org/1999/xlink" width="213.18203" height="280.18476" viewBox="0,0,213.18203,280.18476"><defs><linearGradient x1="305.78528" y1="149.5401" x2="319.7995" y2="185.7238" gradientUnits="userSpaceOnUse" id="color-1"><stop offset="0" stop-color="#ffffff"/><stop offset="1" stop-color="#ececec"/></linearGradient><linearGradient x1="350.26149" y1="117.64533" x2="364.86599" y2="155.35311" gradientUnits="userSpaceOnUse" id="color-2"><stop offset="0" stop-color="#ffffff"/><stop offset="1" stop-color="#ececec"/></linearGradient></defs><g transform="translate(-214.52362,-38.88751)"><g stroke-miterlimit="10"><g stroke="#000000"><g fill="#000000" stroke-width="0" stroke-linecap="butt"><path d="M286.35186,319.07226c0,0 24.50334,-97.26624 32.01233,-120.52713c3.21286,-9.9526 12.45711,-17.22758 12.45711,-17.22758l56.04016,-37.73653c0,0 18.81836,20.44159 17.1685,32.10343c-3.48077,24.60343 -51.17814,143.38782 -51.17814,143.38782z"/></g><path d="M345.79662,207.978l-5.05225,45.835l-8.47681,9.22416l-7.65902,-10.13273l14.457,-44.70548z" fill="#ffffff" stroke-width="2" stroke-linecap="round"/><path d="M352.65984,202.04023c-0.53506,2.5133 -0.67787,5.16259 -2.63867,6.84464c-2.07425,1.77938 -6.02487,2.52009 -8.66925,2.52009c-2.25931,0 -4.97879,-0.25791 -6.30516,-1.6032c-1.69359,-1.71775 -1.63292,-4.86109 -1.01544,-7.76154c0.56489,-2.65344 1.87986,-6.15086 4.00627,-7.85487c2.01831,-1.61738 4.79666,-1.50986 7.30165,-1.50986c2.95234,0 6.09071,0.09568 7.33851,2.25029c0.92634,1.59954 0.45124,4.91079 -0.0179,7.11445z" fill="#ffffff" stroke-width="2" stroke-linecap="butt"/></g><path d="M214.52362,306.61252v-267.72501h213.18203v267.72501z" fill="none" stroke="none" stroke-width="0" stroke-linecap="butt"/><path d="M274.96467,171.65629c-17.44598,-28.36637 -7.0912,-66.42843 23.12805,-85.01397c30.21927,-18.58555 68.85958,-10.65664 86.30556,17.70973c17.44598,28.36637 7.09121,66.42843 -23.12806,85.01399c-30.21925,18.58554 -68.85958,10.65663 -86.30555,-17.70974z" fill="#000000" stroke="#000000" stroke-width="2" stroke-linecap="butt"/><path d="M291.14689,176.19096c-1.85583,-3.01749 3.41594,-19.7905 13.14065,-25.77142c9.72471,-5.98093 25.32509,-1.32738 26.86079,1.16959c6.79361,11.04611 3.34629,25.50803 -7.69979,32.30163c-11.04611,6.79361 -25.50804,3.34628 -32.30163,-7.6998z" fill="url(#color-1)" stroke="#000000" stroke-width="2" stroke-linecap="butt"/><path d="M296.26628,165.9851c-3.91782,-6.37019 -1.92979,-14.7103 4.44041,-18.62811c6.37019,-3.91781 14.71031,-1.92977 18.62812,4.44043c3.91782,6.37019 1.92978,14.71031 -4.44042,18.62813c-6.37019,3.91781 -14.71028,1.92977 -18.62812,-4.44043z" fill="#000000" stroke="#000000" stroke-width="5" stroke-linecap="butt"/><path d="" fill="none" stroke="#000000" stroke-width="2" stroke-linecap="round"/><path d="M368.51352,153.52064c-11.04611,6.79361 -25.50803,3.34628 -32.30162,-7.69981c-1.60076,-2.60275 1.26596,-20.75475 10.93153,-26.6993c9.66557,-5.94455 27.27572,-0.81979 29.06992,2.09747c6.79361,11.04611 3.34629,25.50804 -7.6998,32.30163z" fill="url(#color-2)" stroke="#000000" stroke-width="2" stroke-linecap="butt"/><path d="M363.81186,119.97662c3.97161,6.45763 1.95626,14.91219 -4.50135,18.88378c-6.45761,3.97158 -14.9122,1.95624 -18.88378,-4.50137c-3.97161,-6.45763 -1.95625,-14.91219 4.50135,-18.88378c6.45761,-3.97158 14.91219,-1.95625 18.88376,4.50136z" fill="#000000" stroke="#000000" stroke-width="5" stroke-linecap="butt"/><path d="M279.40416,168.90426l-40.86521,-39.75531c0,0 35.8857,-27.64959 53.90049,-40.3894c17.47809,-12.36028 52.62687,-34.94529 52.62687,-34.94529l28.02909,49.39543z" fill="#000000" stroke="#000000" stroke-width="2" stroke-linecap="butt"/><path d="M279.65352,167.8055l-6.90562,-6.26855l96.48589,-64.04643l4.3608,7.83366z" fill="#ffffff" stroke="#000000" stroke-width="0" stroke-linecap="butt"/><path d="M269.1275,182.92813c0,0 -4.16225,-1.16035 -5.78519,-2.34503c-1.73361,-1.26547 -4.30635,-5.0214 -4.30635,-5.0214l130.4807,-85.88301c0,0 1.53289,3.25303 2.0112,5.18958c0.51954,2.10358 0.99262,6.97236 0.99262,6.97236z" fill="#000000" stroke="#000000" stroke-width="2" stroke-linecap="butt"/></g></g></svg>