<svg version="1.1" xmlns="http://www.w3.org/2000/svg" xmlns:xlink="http://www.w3.org/1999/xlink" width="218.7861" height="281.18476" viewBox="0,0,218.7861,281.18476"><defs><linearGradient x1="365.06463" y1="76.4479" x2="363.94498" y2="115.58987" gradientUnits="userSpaceOnUse" id="color-1"><stop offset="0" stop-color="#000000" stop-opacity="0"/><stop offset="1" stop-color="#000000" stop-opacity="0.12941"/></linearGradient><linearGradient x1="244.99751" y1="73.01339" x2="243.87785" y2="112.15536" gradientUnits="userSpaceOnUse" id="color-2"><stop offset="0" stop-color="#000000" stop-opacity="0"/><stop offset="1" stop-color="#000000" stop-opacity="0.12941"/></linearGradient><linearGradient x1="320.08742" y1="187.07227" x2="320.08742" y2="244.23177" gradientUnits="userSpaceOnUse" id="color-3"><stop offset="0" stop-color="#424242"/><stop offset="1" stop-color="#424242" stop-opacity="0"/></linearGradient></defs><g transform="translate(-208.91955,-38.88751)"><g stroke-miterlimit="10"><g stroke-width="2" stroke-linecap="round"><path d="M320.7276,103.88241l56.47783,-45.0476l-13.81396,84.16102" fill="#ffffff" stroke="#000000"/><path d="M357.72832,115.41204c0,0 3.59411,-13.8247 5.89509,-20.40974c2.21327,-6.33398 7.65788,-18.37658 7.65788,-18.37658" fill="none" stroke="url(#color-1)"/></g><g stroke-width="2" stroke-linecap="round"><path d="M242.86385,139.54815l-8.98048,-84.81305l53.81042,48.20239" fill="#ffffff" stroke="#000000"/><path d="M238.78085,72.83556c0,0 4.74733,12.33414 6.59491,18.78428c1.9208,6.70578 4.71878,20.71334 4.71878,20.71334" fill="none" stroke="url(#color-2)"/></g><g stroke="#000000" stroke-linecap="butt"><path d="M286.35186,319.07226l15.14285,-131.8421l37.78325,-0.15789l13.57389,132z" fill="#ffffff" stroke-width="0"/><path d="M295.01902,243.61117l6.47569,-56.38101l37.78325,-0.15789l5.87786,57.15951z" fill="url(#color-3)" stroke-width="0"/><path d="M286.35186,319.07226l15.14285,-131.8421l37.78325,-0.15789l13.57389,132z" fill="none" stroke-width="2"/></g><g fill="#ffffff"><path d="M238.31864,159.20447c0.9522,-33.28824 30.47227,-59.45134 65.93488,-58.43693c35.46262,1.01441 63.43884,28.82218 62.48663,62.11041c-0.9522,33.28824 -30.47226,59.45136 -65.93488,58.43694c-35.46261,-1.01441 -63.43884,-28.82219 -62.48663,-62.11042z" stroke="#000000" stroke-width="2" stroke-linecap="butt"/><path d="M241.40199,182.59772l6.92058,-0.26291l23.18827,27.16335l-7.21668,2.55879z" stroke="none" stroke-width="0" stroke-linecap="round"/><path d="M267.53735,211.45843l-21.67641,8.59736l0.46761,-16.34753l-33.91792,-22.63113l30.15576,1.09303" stroke="#000000" stroke-width="2" stroke-linecap="round"/><path d="M337.8514,214.16106l-7.05862,-2.96713l24.70309,-25.79343l6.89425,0.65807z" stroke="none" stroke-width="0" stroke-linecap="round"/><path d="M361.25204,185.56515l30.16891,0.63255l-35.15612,20.65527l-0.46761,16.34754l-21.14952,-9.82239" stroke="#000000" stroke-width="2" stroke-linecap="round"/></g><path d="M214.52362,306.61252v-267.72501h213.18203v267.72501z" fill="none" stroke="none" stroke-width="0" stroke-linecap="butt"/><g fill="#000000" stroke="#000000" stroke-width="2" stroke-linecap="round"><path d="M252.2726,157.01556l-3.80839,-9.96777l8.41074,4.80805z"/><path d="M253.96635,161.38965l-9.88701,-4.01338l9.25268,-2.87153z"/></g><path d="M251.93229,159.86961c0.3708,-12.96271 11.17974,-23.17046 24.14244,-22.79966c12.96271,0.3708 23.17046,11.17973 22.79966,24.14243c-0.3708,12.96271 -11.17973,23.17047 -24.14243,22.79967c-12.96271,-0.3708 -23.17047,-11.17974 -22.79967,-24.14244z" fill="#ffffff" stroke="#000000" stroke-width="2" stroke-linecap="butt"/><path d="M254.13148,159.69506c0.23731,-8.29624 7.15513,-14.82931 15.45138,-14.592c8.29624,0.23731 14.82931,7.15514 14.59201,15.4514c-0.23731,8.29624 -7.15514,14.82932 -15.45139,14.59202c-8.29624,-0.23731 -14.8293,-7.15514 -14.592,-15.4514z" fill="#ffffff" stroke="#000000" stroke-width="5" stroke-linecap="butt"/><path d="" fill="none" stroke="#000000" stroke-width="2" stroke-linecap="round"/><g fill="#000000" stroke="#000000" stroke-width="2" stroke-linecap="round"><path d="M348.63425,154.4806l8.67183,-4.31942l-4.37196,9.73376z"/><path d="M352.01995,157.3277l9.07342,3.39575l-10.10027,3.44166z"/></g><path d="M328.96823,185.5635c-12.96271,-0.3708 -23.17046,-11.17974 -22.79966,-24.14244c0.3708,-12.96271 11.17973,-23.17046 24.14243,-22.79966c12.96271,0.3708 23.17047,11.17973 22.79967,24.14243c-0.3708,12.96271 -11.17974,23.17047 -24.14244,22.79967z" fill="#ffffff" stroke="#000000" stroke-width="2" stroke-linecap="butt"/><path d="M338.65816,162.78142c-0.23732,8.29626 -7.15513,14.82932 -15.45138,14.59201c-8.29624,-0.23731 -14.82931,-7.15516 -14.59201,-15.4514c0.23732,-8.29626 7.15514,-14.82932 15.45139,-14.59202c8.29624,0.23731 14.8293,7.15515 14.592,15.45139z" fill="#ffffff" stroke="#000000" stroke-width="5" stroke-linecap="butt"/><path d="M264.95239,128.63794c0,0 7.77529,-3.35792 13.00097,-3.26246c5.22569,0.09545 11.78208,3.71518 11.78208,3.71518c0,0 -7.77575,-2.03785 -11.81138,-2.11156c-4.21738,-0.07704 -12.97169,1.65884 -12.97169,1.65884z" fill="#000000" stroke="none" stroke-width="0" stroke-linecap="butt"/><path d="M329.22435,128.43472c-4.01371,-0.4264 -11.98191,0.63325 -11.98191,0.63325c0,0 6.95403,-2.78029 12.15134,-2.22816c5.19731,0.55212 12.49713,4.84669 12.49713,4.84669c0,0 -8.4721,-2.80618 -12.66658,-3.25178z" fill="#000000" stroke="none" stroke-width="0" stroke-linecap="butt"/><path d="M251.93229,159.86961c0.3708,-12.96271 11.17974,-23.17046 24.14244,-22.79966c12.96271,0.3708 23.17046,11.17973 22.79966,24.14243c-0.01284,0.44877 -46.95251,-0.97906 -46.94211,-1.34277z" fill="#ffffff" stroke="#000000" stroke-width="2" stroke-linecap="butt"/><path d="M306.16858,161.42106c0.3708,-12.96271 11.17973,-23.17046 24.14243,-22.79966c12.96271,0.3708 23.17047,11.17973 22.79967,24.14243c-0.02259,0.78995 -46.96576,-0.51602 -46.94211,-1.34277z" fill="#ffffff" stroke="#000000" stroke-width="2" stroke-linecap="butt"/><path d="M329.05668,206.62839c-0.86604,0.04139 -8.61295,2.10877 -15.14925,1.64003c-14.35886,-1.02972 -33.18046,-5.13848 -33.18046,-5.13848c0,0 0.62989,27.15184 12.58516,28.01725c11.95527,0.86541 35.74455,-24.5188 35.74455,-24.5188z" fill="#000000" stroke="#000000" stroke-width="2" stroke-linecap="round"/></g></g></svg>