<svg version="1.1" xmlns="http://www.w3.org/2000/svg" xmlns:xlink="http://www.w3.org/1999/xlink" width="216.71103" height="283.23988" viewBox="0,0,216.71103,283.23988"><defs><linearGradient x1="318.96396" y1="240.85415" x2="318.96396" y2="276.16738" gradientUnits="userSpaceOnUse" id="color-1"><stop offset="0" stop-color="#005cff" stop-opacity="0"/><stop offset="1" stop-color="#005cff" stop-opacity="0.2"/></linearGradient><radialGradient cx="320.20048" cy="137.04066" r="64.23702" gradientUnits="userSpaceOnUse" id="color-2"><stop offset="0" stop-color="#aca5f2"/><stop offset="1" stop-color="#f3ca58"/></radialGradient><radialGradient cx="292.77194" cy="137.31631" r="23.48066" gradientUnits="userSpaceOnUse" id="color-3"><stop offset="0" stop-color="#ffffff"/><stop offset="1" stop-color="#ff6d6d"/></radialGradient><radialGradient cx="347.03044" cy="137.31633" r="23.48066" gradientUnits="userSpaceOnUse" id="color-4"><stop offset="0" stop-color="#ffffff"/><stop offset="1" stop-color="#ff6d6d"/></radialGradient></defs><g transform="translate(-211.66184,-35.83246)"><g stroke-miterlimit="10"><path d="M213.40902,313.86253v-267.72501h213.18203v267.72501z" fill="none" stroke="none" stroke-width="0" stroke-linecap="butt"/><g stroke-linecap="butt"><g><g stroke-width="0"><path d="M370.70107,269.87901c-0.06778,1.44597 -1.41901,-4.97989 -6.32499,-5.20986c-4.90598,-0.22997 -8.51273,-3.00784 -8.44495,-4.45381c0.06778,-1.44597 4.09981,0.87984 9.00579,1.10981c4.90598,0.22997 5.83193,7.10789 5.76415,8.55386z" fill="#f29d0f" stroke="#000000"/><path d="M363.39927,263.52068c0,8.78876 -6.18635,0.14404 -15.95739,0.14404c-9.77104,0 -15.01123,-7.44009 -15.01123,-16.22885c0,-8.78876 7.92099,-4.71717 17.69203,-4.71717c9.77104,0 13.27659,12.01322 13.27659,20.80198z" fill="#f2d40e" stroke="#000000"/><path d="M357.81448,254.49466c0,-0.69036 0.55964,-1.25 1.25,-1.25c0.69036,0 1.25,0.55964 1.25,1.25c0,0.69036 -0.55964,1.25 -1.25,1.25c-0.69036,0 -1.25,-0.55964 -1.25,-1.25z" fill="#000000" stroke="none"/></g><path d="M286.35186,319.07232c0,0 -1.89355,-25.93292 0.55642,-47.26366c2.58988,-22.54893 14.58643,-84.57844 14.58643,-84.57844l37.78325,-0.15789c0,0 9.71821,48.53571 12.06959,71.4019c2.15633,20.96935 1.5043,60.5981 1.5043,60.5981z" fill="#f3ca58" stroke="#000000" stroke-width="0"/><path d="M293.32495,231.42271c3.92467,-22.12412 8.16979,-44.1925 8.16979,-44.1925l37.78325,-0.15789c0,0 4.58735,22.91064 8.22116,44.66623c0.01212,0.07254 -54.19728,-0.18574 -54.1742,-0.31584z" fill="#f2bc49" stroke="#000000" stroke-width="0"/><path d="M294.35562,225.21109c3.47387,-19.2454 7.13909,-37.98086 7.13909,-37.98086l37.78325,-0.15789c0,0 3.7397,19.39228 7.08641,38.61124c0.00071,0.00407 -52.0355,-0.32431 -52.00875,-0.47248z" fill="#ffc72e" stroke="#000000" stroke-width="0"/><path d="M309.43057,274.95003c-0.60434,0 -1.13393,-0.23881 -1.42855,-0.59687c-0.40832,-0.03148 -0.71369,-0.15576 -0.71369,-0.15576c-2.81592,-1.14616 -6.6205,-2.20571 -9.08745,-3.72458c-5.15584,-3.1744 -6.48202,-7.967 -2.60749,-12.21832c3.34303,-3.66814 9.07756,-4.44116 14.1588,-5.7515c3.39017,-0.87425 6.25511,-2.47282 9.63619,-3.37881c2.25387,-0.97114 5.50095,-1.85595 7.42542,-3.16024c1.26199,-0.8553 1.68883,-2.21259 2.8379,-3.12013c0.82862,-0.65444 4.11036,-2.27023 5.42408,-1.94755c2.52904,0.62119 4.05401,5.49475 4.87382,7.17382c0.81561,1.67047 2.09706,2.72111 2.94108,4.38572c2.22816,4.39447 2.39218,10.85669 -0.38497,15.07163c-4.12178,4.62147 -13.47245,8.29221 -20.91425,8.62036c-3.3941,0.14966 -6.97675,-0.59431 -10.29739,-1.01544l-1.59475,-0.19833c-0.0875,0.01053 -0.17726,0.016 -0.26874,0.016z" fill="url(#color-1)" stroke="none" stroke-width="0.5"/><path d="M296.01192,216.45648c2.97215,-16.24462 5.48281,-29.22625 5.48281,-29.22625l37.78325,-0.15789c0,0 2.77645,13.86644 5.72037,30.26775c0.00971,0.0541 -49.03891,-0.59676 -48.98643,-0.88361z" fill="#ff9600" stroke="#000000" stroke-width="0"/><g stroke-width="0"><path d="M356.84064,264.74938c-0.16935,10.05097 -14.10853,4.57839 -35.80932,4.57839c-21.70078,0 -38.91576,4.34675 -38.50428,-5.05147c0.52608,-12.01574 17.11889,-0.63604 38.81967,-0.63604c21.70078,0 35.63747,-7.40967 35.49394,1.10912z" fill="#f2d40e" stroke="#000000"/><path d="M344.09441,266.38599c0,-0.97798 0.79281,-1.77078 1.77078,-1.77078c0.97798,0 1.77078,0.79281 1.77078,1.77078c0,0.97798 -0.79281,1.77078 -1.77078,1.77078c-0.97798,0 -1.77078,-0.79281 -1.77078,-1.77078z" fill="#080700" stroke="none"/><path d="M348.70223,261.04886c-0.3209,3.37178 -1.40371,2.88109 -2.86307,2.7422c-1.45936,-0.13889 -2.74263,0.12661 -2.42173,-3.24517c0.3209,-3.37178 3.22345,-5.85366 3.22345,-5.85366c0,0 2.38226,2.98485 2.06135,6.35663z" fill="#f2d40e" stroke="none"/><path d="M340.02663,267.57169c2.8247,-1.86894 3.12333,-0.71826 3.93224,0.50431c0.80891,1.22257 1.82178,2.05407 -1.00292,3.92301c-2.8247,1.86894 -6.57922,1.17036 -6.57922,1.17036c0,0 0.82521,-3.72874 3.64991,-5.59769z" fill="#f2d40e" stroke="none"/><path d="M345.92962,271.74289c-0.96942,-3.24532 0.21842,-3.1974 1.62304,-3.61698c1.40462,-0.41958 2.49413,-1.14777 3.46355,2.09755c0.96942,3.24532 -0.78801,6.63589 -0.78801,6.63589c0,0 -3.32917,-1.87113 -4.29858,-5.11645z" fill="#f2d40e" stroke="none"/><path d="M343.03152,260.28157c2.52782,2.25433 1.49142,2.83668 0.51571,3.93076c-0.97571,1.09408 -1.52125,2.28558 -4.04907,0.03125c-2.52782,-2.25433 -2.81034,-6.06283 -2.81034,-6.06283c0,0 3.81588,-0.15351 6.3437,2.10082z" fill="#f2d40e" stroke="none"/></g></g><path d="M295.94244,216.86716c0,-0.9665 0.7835,-1.75 1.75,-1.75c0.9665,0 1.75,0.7835 1.75,1.75c0,0.9665 -0.7835,1.75 -1.75,1.75c-0.9665,0 -1.75,-0.7835 -1.75,-1.75z" fill="#ff9600" stroke="none" stroke-width="0.5"/><path d="M345.50939,219.11521c0,0.69036 -0.55964,1.25 -1.25,1.25c-0.58846,0 -1.08194,-0.40663 -1.2148,-0.95423c-0.74057,-0.20381 -1.28455,-0.8821 -1.28455,-1.68743c0,-0.9665 0.7835,-1.75 1.75,-1.75c0.9665,0 1.5359,0.7835 1.5359,1.75c0,0.13554 -0.0112,0.26747 -0.03312,0.39415c0.30166,0.22821 0.49657,0.59009 0.49657,0.99751z" fill="#ff9600" stroke="none" stroke-width="0.5"/><path d="M337.26392,216.86716c0,-0.9665 0.7835,-1.75 1.75,-1.75c0.9665,0 1.75,0.7835 1.75,1.75c0,0.9665 -0.7835,1.75 -1.75,1.75c-0.9665,0 -1.75,-0.7835 -1.75,-1.75z" fill="#ff9600" stroke="none" stroke-width="0.5"/><path d="M331.055,216.86716c0,-0.9665 0.7835,-1.75 1.75,-1.75c0.53678,0 1.01712,0.24168 1.33813,0.62215c0.32101,-0.38047 0.80135,-0.62215 1.33813,-0.62215c0.9665,0 1.75,0.7835 1.75,1.75c0,0.9665 -0.7835,1.75 -1.75,1.75c-0.53678,0 -1.01711,-0.24168 -1.33813,-0.62215c-0.32101,0.38047 -0.80135,0.62215 -1.33813,0.62215c-0.9665,0 -1.75,-0.7835 -1.75,-1.75z" fill="#ff9600" stroke="none" stroke-width="0.5"/><path d="M323.09801,218.15175c0,-0.69036 0.55964,-1.25 1.25,-1.25c0.31567,0 0.604,0.11701 0.824,0.31002c-0.00317,-0.04309 -0.0048,-0.08662 -0.0048,-0.13053c0,-0.9665 0.7835,-1.75 1.75,-1.75c0.3111,0 0.60325,0.08118 0.8564,0.22351c0.25315,-0.14234 0.5453,-0.22351 0.8564,-0.22351c0.9665,0 1.75,0.7835 1.75,1.75c0,0.9665 -0.7835,1.75 -1.75,1.75c-0.3111,0 -0.60325,-0.08118 -0.8564,-0.22351c-0.00778,0.00438 -0.0156,0.00869 -0.02345,0.01295c-0.22316,0.34139 -0.60877,0.56697 -1.04706,0.56697c-0.50801,0 -0.94524,-0.30304 -1.14077,-0.73822c-0.13354,0.54664 -0.62656,0.95233 -1.21434,0.95233c-0.69036,0 -1.25,-0.55964 -1.25,-1.25z" fill="#ff9600" stroke="none" stroke-width="0.5"/><path d="M308.78848,216.86716c0,-0.90794 2.40865,-2.84656 3.17344,-1.50817c0.25014,0.14763 0.46034,0.3557 0.61052,0.60413c0.3065,-0.50702 0.86302,-0.84596 1.4987,-0.84596c0.47595,0 0.90752,0.19 1.223,0.49829c0.06029,-0.02457 0.12224,-0.04518 0.18548,-0.06204c0.19423,-0.07435 0.4051,-0.1151 0.62549,-0.1151c0.45635,0 0.87191,0.17468 1.18346,0.46083c0.02256,0.01482 0.04468,0.02996 0.06638,0.04539c0.23587,-0.11841 0.50221,-0.18507 0.78412,-0.18507c0.20657,0 0.40479,0.03579 0.58877,0.10151c0.18399,-0.06572 0.3822,-0.10151 0.58878,-0.10151c0.9665,0 1.75,0.7835 1.75,1.75c0,0.9665 -0.7835,1.75 -1.75,1.75c-0.20657,0 -0.40479,-0.0358 -0.58878,-0.10152c-0.18399,0.06572 -0.3822,0.10152 -0.58877,0.10152c-0.48323,0 -0.92072,-0.19586 -1.23741,-0.51253c-0.23892,0.12235 -0.50968,0.19138 -0.79655,0.19138c-0.13446,0 -0.26537,-0.01516 -0.39113,-0.04387c-0.435,0.10573 -0.83124,0.0274 -1.07466,-0.37157c-0.17815,0.06112 -0.36929,0.09429 -0.56817,0.09429c-0.63569,0 -1.1922,-0.33894 -1.4987,-0.84596c-0.3065,0.50702 -0.86302,0.84596 -1.49871,0.84596c-0.09804,0 -0.1942,-0.00807 -0.28785,-0.02356c-1.01047,0.44353 -1.99741,0.27119 -1.99741,-1.72644z" fill="#ff9600" stroke="none" stroke-width="0.5"/><path d="M304.03971,215.46067c0.265,-0.5145 2.3117,-1.46315 2.78381,-0.63695c0.5158,0.30442 0.86181,0.86589 0.86181,1.50818c0,0.9665 -0.7835,1.75 -1.75,1.75c-0.36156,0 -0.69751,-0.10965 -0.97641,-0.29751c-0.96798,-0.1522 -1.60936,-0.98382 -0.91921,-2.32372z" fill="#ff9600" stroke="none" stroke-width="0.5"/><path d="M299.90331,216.22485c0,-0.9665 0.7835,-1.75 1.75,-1.75c0.9665,0 1.75,0.7835 1.75,1.75c0,0.9665 -0.7835,1.75 -1.75,1.75c-0.9665,0 -1.75,-0.7835 -1.75,-1.75z" fill="#ff9600" stroke="none" stroke-width="0.5"/><path d="M300.3687,224.71645c0.69036,0 1.25,0.55964 1.25,1.25c0,0.69036 -0.55964,1.25 -1.25,1.25c-0.1789,0 -0.34902,-0.03758 -0.5029,-0.10528c-0.30099,0.24459 -0.6848,0.39118 -1.10286,0.39118c-0.49002,0 -0.93301,-0.2014 -1.25068,-0.52595c-0.28296,0.19661 -0.62671,0.31185 -0.99738,0.31185c-0.9665,0 -1.75,-0.7835 -1.75,-1.75c0,-0.9665 0.7835,-1.75 1.75,-1.75c0.49002,0 0.933,0.2014 1.25068,0.52595c0.28296,-0.19661 0.62672,-0.31185 0.99738,-0.31185c0.5849,0 1.10277,0.28694 1.42053,0.72773c0.06044,-0.00897 0.12229,-0.01363 0.18522,-0.01363z" fill="#ffc72e" stroke="none" stroke-width="0.5"/><path d="M305.22058,228.21451c0,-0.27336 0.08774,-0.52621 0.2366,-0.73195c-0.32446,-0.0491 -0.6197,-0.18731 -0.85998,-0.38887c-0.30406,0.25507 -0.6961,0.40866 -1.12403,0.40866c-0.9665,0 -1.75,-0.7835 -1.75,-1.75c0,-0.9665 0.7835,-1.75 1.75,-1.75c0.42793,0 0.81997,0.15359 1.12403,0.40866c0.30406,-0.25507 0.6961,-0.40866 1.12403,-0.40866c0.48265,0 0.91966,0.19539 1.23626,0.51138c0.30332,-0.25248 0.69335,-0.40433 1.11885,-0.40433c0.9665,0 1.75,0.7835 1.75,1.75c0,0.9665 -0.7835,1.75 -1.75,1.75c-0.19957,0 -0.39134,-0.03341 -0.57002,-0.09494c0.13526,0.19973 0.21427,0.44066 0.21427,0.70005c0,0.69036 -0.55964,1.25 -1.25,1.25c-0.69036,0 -1.25,-0.55964 -1.25,-1.25z" fill="#ffc72e" stroke="none" stroke-width="0.5"/><path d="M327.88067,223.8953c0.9665,0 1.75,0.7835 1.75,1.75c0,0.9665 -0.7835,1.75 -1.75,1.75c-0.68291,0 -1.27445,-0.39117 -1.56279,-0.96166c-0.31642,0.45199 -0.841,0.74755 -1.43462,0.74755c-0.9665,0 -1.75,-0.7835 -1.75,-1.75c0,-0.9665 0.7835,-1.75 1.75,-1.75c0.68291,0 1.27445,0.39117 1.5628,0.96166c0.31642,-0.45199 0.841,-0.74755 1.43461,-0.74755z" fill="#ffc72e" stroke="none" stroke-width="0.5"/><path d="M331.12679,228.32155c0,-0.51662 0.3134,-0.96004 0.76045,-1.1505c-0.43936,-0.31793 -0.7252,-0.83494 -0.7252,-1.41871c0,-0.9665 0.7835,-1.75 1.75,-1.75c0.17045,0 0.3352,0.02437 0.49098,0.06981c0.78988,-0.18737 1.47312,0.15276 1.47312,1.68019c0,0.22004 -0.17418,0.54241 -0.4399,0.86046c-0.19302,0.34118 -0.4973,0.61113 -0.86354,0.76055c-0.08123,0.05076 -0.16337,0.09658 -0.2455,0.13625c0.18679,0.21843 0.29959,0.50202 0.29959,0.81196c0,0.69036 -0.55964,1.25 -1.25,1.25c-0.69036,0 -1.25,-0.55964 -1.25,-1.25z" fill="#ffc72e" stroke="none" stroke-width="0.5"/><path d="M335.94406,226.82285c0,-0.68096 0.54451,-1.23474 1.22187,-1.24969c0.08974,-0.88233 0.83493,-1.57082 1.74094,-1.57082c0.33328,0 0.6448,0.09316 0.90993,0.25487c0.26513,-0.16171 0.57665,-0.25487 0.90992,-0.25487c0.9665,0 1.75,0.7835 1.75,1.75c0,0.9665 -0.7835,1.75 -1.75,1.75c-0.32024,0 -0.62038,-0.08602 -0.8786,-0.23621c-0.11041,0.06321 -0.23139,0.11005 -0.35963,0.13724c-0.18197,0.06411 -0.37773,0.09897 -0.58163,0.09897c-0.21143,0 -0.41411,-0.0375 -0.60174,-0.1062c-0.20783,0.40195 -0.62736,0.6767 -1.11107,0.6767c-0.69036,0 -1.25,-0.55964 -1.25,-1.25z" fill="#ffc72e" stroke="none" stroke-width="0.5"/><path d="M342.36709,228.6427c0,-0.64099 0.48246,-1.16929 1.10406,-1.24157c-0.45205,-0.31641 -0.74766,-0.84103 -0.74766,-1.43469c0,-0.9665 0.7835,-1.75 1.75,-1.75c0.9665,0 1.75,0.7835 1.75,1.75c0,0.9665 -0.7835,1.75 -1.75,1.75c-0.00571,0 -0.01142,-0.00002 -0.01711,-0.00008c0.25227,0.2287 0.41071,0.55902 0.41071,0.92634c0,0.69036 -0.55964,1.25 -1.25,1.25c-0.69036,0 -1.25,-0.55964 -1.25,-1.25z" fill="#ffc72e" stroke="none" stroke-width="0.5"/><path d="M297.79949,229.99718c0.9665,0 1.75,0.7835 1.75,1.75c0,0.9665 -0.7835,1.75 -1.75,1.75c-0.53678,0 -1.01712,-0.24167 -1.33813,-0.62215c-0.32101,0.38047 -0.80135,0.62215 -1.33813,0.62215c-0.9665,0 -1.75,-0.7835 -1.75,-1.75c0,-0.9665 0.7835,-1.75 1.75,-1.75c0.53678,0 1.01711,0.24168 1.33813,0.62215c0.32101,-0.38047 0.80135,-0.62215 1.33813,-0.62215z" fill="#f2bc49" stroke="none" stroke-width="0.5"/><path d="M303.93598,232.49653c0,-0.69036 0.55964,-1.25 1.25,-1.25c0.27335,0 0.52621,0.08774 0.73195,0.2366c0.06109,-0.40368 0.26009,-0.76211 0.54745,-1.02577c0.3199,-0.34867 0.77933,-0.56724 1.28981,-0.56724c0.9665,0 1.75,0.7835 1.75,1.75c0,0.51048 -0.21858,0.96991 -0.56724,1.28981c-0.3199,0.34867 -0.77933,0.56724 -1.28981,0.56724c-0.51031,0 -0.96959,-0.21842 -1.28947,-0.56687c-0.17633,0.47654 -0.63484,0.81623 -1.17269,0.81623c-0.69036,0 -1.25,-0.55964 -1.25,-1.25z" fill="#f2bc49" stroke="none" stroke-width="0.5"/><path d="M317.71088,229.56898c0.9665,0 1.75,0.7835 1.75,1.75c0,0.9665 -0.7835,1.75 -1.75,1.75c-0.63448,0 -1.19009,-0.33766 -1.49696,-0.84308c-0.26839,0.6219 -0.88711,1.05718 -1.6075,1.05718c-0.9665,0 -1.75,-0.7835 -1.75,-1.75c0,-0.9665 0.7835,-1.75 1.75,-1.75c0.63448,0 1.19009,0.33766 1.49696,0.84308c0.26839,-0.6219 0.88711,-1.05718 1.6075,-1.05718z" fill="#f2bc49" stroke="none" stroke-width="0.5"/><path d="M320.34995,231.10487c0,-0.9665 0.7835,-1.75 1.75,-1.75c0.9665,0 1.75,0.7835 1.75,1.75c0,0.9665 -0.7835,1.75 -1.75,1.75c-0.9665,0 -1.75,-0.7835 -1.75,-1.75z" fill="#f2bc49" stroke="none" stroke-width="0.5"/><path d="M327.41526,231.10487c0,-0.9665 0.7835,-1.75 1.75,-1.75c0.9665,0 1.75,0.7835 1.75,1.75c0,0.9665 -0.7835,1.75 -1.75,1.75c-0.9665,0 -1.75,-0.7835 -1.75,-1.75z" fill="#f2bc49" stroke="none" stroke-width="0.5"/><path d="M338.62033,234.20932c0,-0.33082 0.12851,-0.63162 0.33833,-0.85521c-0.2128,0.09204 -0.44749,0.14305 -0.6941,0.14305c-0.9665,0 -1.75,-0.7835 -1.75,-1.75c0,-0.9665 0.7835,-1.75 1.75,-1.75c0.42778,0 0.81972,0.15349 1.12373,0.40841c0.32101,-0.38068 0.80148,-0.6225 1.33843,-0.6225c0.9665,0 1.75,0.7835 1.75,1.75c0,0.9665 -0.7835,1.75 -1.75,1.75c-0.00571,0 -0.01141,-0.00003 -0.01711,-0.00009c0.25227,0.2287 0.41071,0.55902 0.41071,0.92634c0,0.69036 -0.55964,1.25 -1.25,1.25c-0.69036,0 -1.25,-0.55964 -1.25,-1.25zM339.603,232.87466c-0.04618,0.05477 -0.09566,0.10666 -0.14814,0.15537c0.08593,-0.03027 0.17616,-0.05142 0.26953,-0.06227c-0.04184,-0.02928 -0.08234,-0.06036 -0.12139,-0.0931z" fill="#f2bc49" stroke="none" stroke-width="0.5"/><path d="M345.65105,229.89011c0.9665,0 1.75,0.7835 1.75,1.75c0,0.9665 -0.7835,1.75 -1.75,1.75c-0.33299,0 -0.64426,-0.09301 -0.90924,-0.25446c-0.12092,0.02642 -0.24651,0.04036 -0.37536,0.04036c-0.9665,0 -1.75,-0.7835 -1.75,-1.75c0,-0.9665 0.7835,-1.75 1.75,-1.75c0.33299,0 0.64425,0.093 0.90924,0.25445c0.12092,-0.02642 0.24652,-0.04035 0.37537,-0.04035z" fill="#f2bc49" stroke="none" stroke-width="0.5"/><path d="M301.68791,220.07868c0,-0.69036 0.55964,-1.25 1.25,-1.25c0.69036,0 1.25,0.55964 1.25,1.25c0,0.69036 -0.55964,1.25 -1.25,1.25c-0.69036,0 -1.25,-0.55964 -1.25,-1.25z" fill="#ff9600" stroke="none" stroke-width="0.5"/><path d="M311.32246,220.50687c0,-0.69036 0.55964,-1.25 1.25,-1.25c0.69036,0 1.25,0.55964 1.25,1.25c0,0.69036 -0.55964,1.25 -1.25,1.25c-0.69036,0 -1.25,-0.55964 -1.25,-1.25z" fill="#ff9600" stroke="none" stroke-width="0.5"/><path d="M330.91269,220.50687c0,-0.69036 0.55964,-1.25 1.25,-1.25c0.69036,0 1.25,0.55964 1.25,1.25c0,0.69036 -0.55964,1.25 -1.25,1.25c-0.69036,0 -1.25,-0.55964 -1.25,-1.25z" fill="#ff9600" stroke="none" stroke-width="0.5"/><path d="M336.80047,221.79147c0,-0.69036 0.55964,-1.25 1.25,-1.25c0.69036,0 1.25,0.55964 1.25,1.25c0,0.69036 -0.55964,1.25 -1.25,1.25c-0.69036,0 -1.25,-0.55964 -1.25,-1.25z" fill="#ff9600" stroke="none" stroke-width="0.5"/><path d="M301.04561,228.74975c0,-0.69036 0.55964,-1.25 1.25,-1.25c0.69036,0 1.25,0.55964 1.25,1.25c0,0.69036 -0.55964,1.25 -1.25,1.25c-0.69036,0 -1.25,-0.55964 -1.25,-1.25z" fill="#ffc72e" stroke="none" stroke-width="0.5"/><path d="M317.53138,227.35811c0,-0.1411 0.02338,-0.27673 0.06647,-0.40324c-0.19722,0.07701 -0.41183,0.11928 -0.63632,0.11928c-0.37248,0 -0.71777,-0.11637 -1.00152,-0.31473c-0.30617,0.26291 -0.70428,0.42178 -1.13949,0.42178c-0.38732,0 -0.74524,-0.12582 -1.03514,-0.33882c-0.2268,0.23088 -0.54256,0.37408 -0.89177,0.37408c-0.13883,0 -0.27238,-0.02264 -0.39715,-0.06441c-0.22837,0.29941 -0.58887,0.49262 -0.9945,0.49262c-0.69036,0 -1.25,-0.55964 -1.25,-1.25c0,-0.69036 0.55964,-1.25 1.25,-1.25c0.13883,0 0.27238,0.02264 0.39715,0.06441c0.22837,-0.29941 0.58887,-0.49262 0.9945,-0.49262c0.10774,0 0.2123,0.01363 0.31204,0.03926c0.2643,-0.63113 0.88781,-1.07452 1.61487,-1.07452c0.37248,0 0.71777,0.11637 1.00151,0.31474c0.30617,-0.26291 0.70428,-0.42178 1.1395,-0.42178c0.9665,0 1.75,0.7835 1.75,1.75c0,0.29354 -0.07228,0.5702 -0.2,0.81316c0.08691,-0.01913 0.17721,-0.0292 0.26986,-0.0292c0.69036,0 1.25,0.55964 1.25,1.25c0,0.69036 -0.55964,1.25 -1.25,1.25c-0.69036,0 -1.25,-0.55964 -1.25,-1.25z" fill="#ffc72e" stroke="none" stroke-width="0.5"/><path d="M320.63585,228.10744c0,-0.69036 0.55964,-1.25 1.25,-1.25c0.69036,0 1.25,0.55964 1.25,1.25c0,0.69036 -0.55964,1.25 -1.25,1.25c-0.69036,0 -1.25,-0.55964 -1.25,-1.25z" fill="#ffc72e" stroke="none" stroke-width="0.5"/><path d="M325.02492,228.32155c0,-0.69036 0.55964,-1.25 1.25,-1.25c0.69036,0 1.25,0.55964 1.25,1.25c0,0.69036 -0.55964,1.25 -1.25,1.25c-0.69036,0 -1.25,-0.55964 -1.25,-1.25z" fill="#ffc72e" stroke="none" stroke-width="0.5"/><path d="M294.94372,236.13625c0,-0.69036 0.55964,-1.25 1.25,-1.25c0.69036,0 1.25,0.55964 1.25,1.25c0,0.69036 -0.55964,1.25 -1.25,1.25c-0.69036,0 -1.25,-0.55964 -1.25,-1.25z" fill="#f2bc49" stroke="none" stroke-width="0.5"/><path d="M301.36676,232.60357c0,-0.69036 0.55964,-1.25 1.25,-1.25c0.69036,0 1.25,0.55964 1.25,1.25c0,0.69036 -0.55964,1.25 -1.25,1.25c-0.69036,0 -1.25,-0.55964 -1.25,-1.25z" fill="#f2bc49" stroke="none" stroke-width="0.5"/><path d="M308.32504,234.10228c0,-0.69036 0.55964,-1.25 1.25,-1.25c0.69036,0 1.25,0.55964 1.25,1.25c0,0.69036 -0.55964,1.25 -1.25,1.25c-0.69036,0 -1.25,-0.55964 -1.25,-1.25z" fill="#f2bc49" stroke="none" stroke-width="0.5"/><path d="M310.7872,234.74459c0,-0.69036 0.55964,-1.25 1.25,-1.25c0.69036,0 1.25,0.55964 1.25,1.25c0,0.69036 -0.55964,1.25 -1.25,1.25c-0.69036,0 -1.25,-0.55964 -1.25,-1.25z" fill="#f2bc49" stroke="none" stroke-width="0.5"/><path d="M314.85512,235.27983c0,-0.69036 0.55964,-1.25 1.25,-1.25c0.69036,0 1.25,0.55964 1.25,1.25c0,0.69036 -0.55964,1.25 -1.25,1.25c-0.69036,0 -1.25,-0.55964 -1.25,-1.25z" fill="#f2bc49" stroke="none" stroke-width="0.5"/><path d="M321.3852,235.38688c0,-0.69036 0.55964,-1.25 1.25,-1.25c0.69036,0 1.25,0.55964 1.25,1.25c0,0.69036 -0.55964,1.25 -1.25,1.25c-0.69036,0 -1.25,-0.55964 -1.25,-1.25z" fill="#f2bc49" stroke="none" stroke-width="0.5"/><path d="M326.63067,234.10228c0,-0.69036 0.55964,-1.25 1.25,-1.25c0.69036,0 1.25,0.55964 1.25,1.25c0,0.69036 -0.55964,1.25 -1.25,1.25c-0.69036,0 -1.25,-0.55964 -1.25,-1.25z" fill="#f2bc49" stroke="none" stroke-width="0.5"/><path d="M332.69793,231.24653c0.69036,0 1.25,0.55964 1.25,1.25c0,0.69036 -0.55964,1.25 -1.25,1.25c-0.0544,0 -0.108,-0.00348 -0.16057,-0.01022c-0.05257,0.00674 -0.10617,0.01022 -0.16057,0.01022c-0.69036,0 -1.25,-0.55964 -1.25,-1.25c0,-0.69036 0.55964,-1.25 1.25,-1.25c0.0544,0 0.108,0.00348 0.16057,0.01022c0.05257,-0.00674 0.10617,-0.01022 0.16057,-0.01022z" fill="#f2bc49" stroke="none" stroke-width="0.5"/><path d="M341.08249,234.74459c0,-0.69036 0.55964,-1.25 1.25,-1.25c0.69036,0 1.25,0.55964 1.25,1.25c0,0.69036 -0.55964,1.25 -1.25,1.25c-0.69036,0 -1.25,-0.55964 -1.25,-1.25z" fill="#f2bc49" stroke="none" stroke-width="0.5"/><path d="M304.86418,223.50428c0,-0.41422 0.33578,-0.75 0.75,-0.75c0.41422,0 0.75,0.33578 0.75,0.75c0,0.41422 -0.33578,0.75 -0.75,0.75c-0.41422,0 -0.75,-0.33578 -0.75,-0.75z" fill="#ff9600" stroke="none" stroke-width="0.5"/><path d="M315.89036,221.89852c0,-0.41422 0.33578,-0.75 0.75,-0.75c0.41422,0 0.75,0.33578 0.75,0.75c0,0.41422 -0.33578,0.75 -0.75,0.75c-0.41422,0 -0.75,-0.33578 -0.75,-0.75z" fill="#ff9600" stroke="none" stroke-width="0.5"/><path d="M329.80692,223.82544c0,-0.41422 0.33578,-0.75 0.75,-0.75c0.41422,0 0.75,0.33578 0.75,0.75c0,0.41422 -0.33578,0.75 -0.75,0.75c-0.41422,0 -0.75,-0.33578 -0.75,-0.75z" fill="#ff9600" stroke="none" stroke-width="0.5"/><path d="M338.47802,224.57479c0,-0.41422 0.33578,-0.75 0.75,-0.75c0.41422,0 0.75,0.33578 0.75,0.75c0,0.41422 -0.33578,0.75 -0.75,0.75c-0.41422,0 -0.75,-0.33578 -0.75,-0.75z" fill="#ff9600" stroke="none" stroke-width="0.5"/><path d="M296.62129,228.85679c0,-0.41422 0.33578,-0.75 0.75,-0.75c0.41422,0 0.75,0.33578 0.75,0.75c0,0.41422 -0.33578,0.75 -0.75,0.75c-0.41422,0 -0.75,-0.33578 -0.75,-0.75z" fill="#ffc72e" stroke="none" stroke-width="0.5"/><path d="M313.00001,230.03436c0,-0.41422 0.33578,-0.75 0.75,-0.75c0.41422,0 0.75,0.33578 0.75,0.75c0,0.41422 -0.33578,0.75 -0.75,0.75c-0.41422,0 -0.75,-0.33578 -0.75,-0.75z" fill="#ffc72e" stroke="none" stroke-width="0.5"/><path d="M335.05241,230.03436c0,-0.41422 0.33578,-0.75 0.75,-0.75c0.41422,0 0.75,0.33578 0.75,0.75c0,0.41422 -0.33578,0.75 -0.75,0.75c-0.41422,0 -0.75,-0.33578 -0.75,-0.75z" fill="#ffc72e" stroke="none" stroke-width="0.5"/><path d="M339.22738,231.64011c0,-0.41422 0.33578,-0.75 0.75,-0.75c0.41422,0 0.75,0.33578 0.75,0.75c0,0.41422 -0.33578,0.75 -0.75,0.75c-0.41422,0 -0.75,-0.33578 -0.75,-0.75z" fill="#ffc72e" stroke="none" stroke-width="0.5"/><path d="M299.51165,237.3138c0,-0.41422 0.33578,-0.75 0.75,-0.75c0.41422,0 0.75,0.33578 0.75,0.75c0,0.41422 -0.33578,0.75 -0.75,0.75c-0.41422,0 -0.75,-0.33578 -0.75,-0.75z" fill="#f2bc49" stroke="none" stroke-width="0.5"/><path d="M302.29497,235.81507c0,-0.41422 0.33578,-0.75 0.75,-0.75c0.41422,0 0.75,0.33578 0.75,0.75c0,0.41422 -0.33578,0.75 -0.75,0.75c-0.41422,0 -0.75,-0.33578 -0.75,-0.75z" fill="#f2bc49" stroke="none" stroke-width="0.5"/><path d="M311.39426,237.84904c0,-0.41422 0.33578,-0.75 0.75,-0.75c0.41422,0 0.75,0.33578 0.75,0.75c0,0.41422 -0.33578,0.75 -0.75,0.75c-0.41422,0 -0.75,-0.33578 -0.75,-0.75z" fill="#f2bc49" stroke="none" stroke-width="0.5"/><path d="M315.67627,240.31121c0,-0.41422 0.33578,-0.75 0.75,-0.75c0.41422,0 0.75,0.33578 0.75,0.75c0,0.41422 -0.33578,0.75 -0.75,0.75c-0.41422,0 -0.75,-0.33578 -0.75,-0.75z" fill="#f2bc49" stroke="none" stroke-width="0.5"/><path d="M326.59542,238.49135c0,-0.41422 0.33578,-0.75 0.75,-0.75c0.41422,0 0.75,0.33578 0.75,0.75c0,0.41422 -0.33578,0.75 -0.75,0.75c-0.41422,0 -0.75,-0.33578 -0.75,-0.75z" fill="#f2bc49" stroke="none" stroke-width="0.5"/><path d="M336.22996,236.4574c0,-0.41422 0.33578,-0.75 0.75,-0.75c0.41422,0 0.75,0.33578 0.75,0.75c0,0.41422 -0.33578,0.75 -0.75,0.75c-0.41422,0 -0.75,-0.33578 -0.75,-0.75z" fill="#f2bc49" stroke="none" stroke-width="0.5"/><path d="M342.22479,239.02661c0,-0.41422 0.33578,-0.75 0.75,-0.75c0.41422,0 0.75,0.33578 0.75,0.75c0,0.41422 -0.33578,0.75 -0.75,0.75c-0.41422,0 -0.75,-0.33578 -0.75,-0.75z" fill="#f2bc49" stroke="none" stroke-width="0.5"/></g><path d="" fill="none" stroke="#000000" stroke-width="2" stroke-linecap="round"/><g><g><path d="M371.51028,105.47486l56.86258,-22.74503c0,0 -1.4642,35.16443 -5.72233,52.81892c-4.59477,19.05024 -20.9133,57.6142 -20.9133,57.6142l-29.02984,-24.24141z" fill="#f3ca58" stroke="#000000" stroke-width="0" stroke-linecap="round"/><path d="M376.56005,160.00645c8.99996,5.39997 17.082,10.46247 17.082,10.46247c0,0 -8.90399,-3.39331 -17.90394,-8.79328c-8.99996,-5.39997 -16.30844,-9.85631 -15.58561,-11.06103c0.72283,-1.20472 7.40759,3.99187 16.40755,9.39184z" fill="#ff9600" stroke="#000000" stroke-width="0" stroke-linecap="butt"/><path d="M371.62028,139.81698c0.14099,-1.39784 8.40228,0.45738 18.84495,1.51069c10.44266,1.05332 19.9111,2.19217 19.9111,2.19217c0,0 -9.50131,0.72143 -19.94398,-0.33188c-10.44267,-1.05331 -18.95306,-1.97313 -18.81207,-3.37097z" fill="#ff9600" stroke="#000000" stroke-width="0" stroke-linecap="butt"/><g stroke="#000000" stroke-width="0" stroke-linecap="round"><g fill="#f2bc49"><path d="M371.59929,110.19246c-0.04624,-2.45053 -0.08901,-4.7176 -0.08901,-4.7176l56.86258,-22.74503c0,0 -0.55445,13.31583 -1.97321,27.67319c-0.03051,0.30873 -54.79933,-0.15628 -54.80035,-0.21056z"/></g><g fill="#ffc72e"><path d="M371.51028,105.47486l56.86258,-22.74503c0,0 -0.42908,10.30489 -1.49819,22.55847c-0.00223,0.02553 -55.36439,0.18657 -55.36439,0.18657z"/></g><g fill="#ff9600"><path d="M398.86759,94.53193c9.64926,-3.85971 29.50527,-11.8021 29.50527,-11.8021c0,0 0.00562,2.95632 -0.2283,6.71211c-0.08577,1.37709 -0.36579,2.86167 -0.45925,4.34741c-0.00081,0.01287 -28.99949,0.81529 -28.81771,0.74258z"/></g></g><path d="M425.31232,95.65619c-0.9665,0 -1.75,-0.7835 -1.75,-1.75c0,-0.9665 0.7835,-1.75 1.75,-1.75c0.9665,0 1.75,0.7835 1.75,1.75c0,0.9665 -0.7835,1.75 -1.75,1.75z" fill="#ff9600" stroke="none" stroke-width="0.5" stroke-linecap="butt"/><path d="M421.56797,96.59228c-0.64281,0 -1.20469,-0.34659 -1.50893,-0.86308c-0.2191,0.71645 -0.88558,1.23752 -1.67377,1.23752c-0.2317,0 -0.45287,-0.04503 -0.65526,-0.12681c-0.20239,0.08178 -0.42356,0.12681 -0.65526,0.12681c-0.9665,0 -1.75,-0.7835 -1.75,-1.75c0,-0.9665 0.7835,-1.75 1.75,-1.75c0.2317,0 0.45287,0.04503 0.65526,0.12681c0.20239,-0.08178 0.42356,-0.12681 0.65526,-0.12681c0.64282,0 1.20469,0.34659 1.50893,0.86309c0.2191,-0.71645 0.88558,-1.23753 1.67377,-1.23753c0.9665,0 1.75,0.7835 1.75,1.75c0,0.9665 -0.7835,1.75 -1.75,1.75z" fill="#ff9600" stroke="none" stroke-width="0.5" stroke-linecap="butt"/><path d="M413.51763,96.03063c-0.9665,0 -1.75,-0.7835 -1.75,-1.75c0,-0.9665 0.7835,-1.75 1.75,-1.75c0.9665,0 1.75,0.7835 1.75,1.75c0,0.9665 -0.7835,1.75 -1.75,1.75z" fill="#ff9600" stroke="none" stroke-width="0.5" stroke-linecap="butt"/><path d="M407.51612,95.09006c-0.03557,-0.13908 -0.05449,-0.28483 -0.05449,-0.435c0,-0.9665 0.7835,-1.75 1.75,-1.75c0.9665,0 1.75,0.7835 1.75,1.75c0,0.9665 -0.7835,1.75 -1.75,1.75c-0.15017,0 -0.29592,-0.01892 -0.435,-0.05449c-0.00567,0.6855 -0.56312,1.23945 -1.24996,1.23945c-0.69035,0 -1.25,-0.55965 -1.25,-1.25c0,-0.68684 0.55395,-1.24429 1.23945,-1.24995z" fill="#ff9600" stroke="none" stroke-width="0.5" stroke-linecap="butt"/><path d="M404.34399,96.40506c-0.9665,0 -1.75,-0.7835 -1.75,-1.75c0,-0.9665 0.7835,-1.75 1.75,-1.75c0.9665,0 1.75,0.7835 1.75,1.75c0,0.9665 -0.7835,1.75 -1.75,1.75z" fill="#ff9600" stroke="none" stroke-width="0.5" stroke-linecap="butt"/><path d="M424.37623,100.39828c-0.69036,0 -1.25,-0.55965 -1.25,-1.25c0,-0.69035 0.55964,-1.25 1.25,-1.25c0.69036,0 1.25,0.55965 1.25,1.25c0,0.69035 -0.55964,1.25 -1.25,1.25z" fill="#ff9600" stroke="none" stroke-width="0.5" stroke-linecap="butt"/><path d="M417.44919,102.45767c-0.69036,0 -1.25,-0.55965 -1.25,-1.25c0,-0.69035 0.55964,-1.25 1.25,-1.25c0.69036,0 1.25,0.55965 1.25,1.25c0,0.69035 -0.55964,1.25 -1.25,1.25z" fill="#ff9600" stroke="none" stroke-width="0.5" stroke-linecap="butt"/><path d="M413.51763,98.71332c-0.69035,0 -1.25,-0.55965 -1.25,-1.25c0,-0.69035 0.55965,-1.25 1.25,-1.25c0.69036,0 1.25,0.55965 1.25,1.25c0,0.69035 -0.55964,1.25 -1.25,1.25z" fill="#ff9600" stroke="none" stroke-width="0.5" stroke-linecap="butt"/><path d="M398.16582,97.4028c-0.69036,0 -1.25,-0.55965 -1.25,-1.25c0,-0.69035 0.55964,-1.25 1.25,-1.25c0.69036,0 1.25,0.55965 1.25,1.25c0,0.69035 -0.55964,1.25 -1.25,1.25z" fill="#ff9600" stroke="none" stroke-width="0.5" stroke-linecap="butt"/><path d="M394.04704,100.39828c-0.69036,0 -1.25,-0.55965 -1.25,-1.25c0,-0.69035 0.55964,-1.25 1.25,-1.25c0.69036,0 1.25,0.55965 1.25,1.25c0,0.69035 -0.55964,1.25 -1.25,1.25z" fill="#ff9600" stroke="none" stroke-width="0.5" stroke-linecap="butt"/><path d="M424.68223,107.45088c-0.9665,0 -1.75,-0.7835 -1.75,-1.75c0,-0.9665 0.7835,-1.75 1.75,-1.75c0.9665,0 1.75,0.7835 1.75,1.75c0,0.9665 -0.7835,1.75 -1.75,1.75z" fill="#ffc72e" stroke="none" stroke-width="0.5" stroke-linecap="butt"/><path d="M419.44014,106.51479c-0.9665,0 -1.75,-0.7835 -1.75,-1.75c0,-0.9665 0.7835,-1.75 1.75,-1.75c0.9665,0 1.75,0.7835 1.75,1.75c0,0.9665 -0.7835,1.75 -1.75,1.75z" fill="#ffc72e" stroke="none" stroke-width="0.5" stroke-linecap="butt"/><path d="M411.48986,104.26231c0.20063,-0.08014 0.41958,-0.12421 0.64881,-0.12421c0.50784,0 0.96516,0.21632 1.28483,0.56184c0.00855,-0.00012 0.01711,-0.00019 0.02569,-0.00019c0.9665,0 1.75,0.7835 1.75,1.75c0,0.9665 -0.7835,1.75 -1.75,1.75c-0.50784,0 -0.96516,-0.21632 -1.28483,-0.56184c-0.00855,0.00012 -0.01711,0.00019 -0.02569,0.00019c-0.47613,0 -0.90785,-0.19015 -1.22336,-0.49865c-0.20064,0.08014 -0.41958,0.12421 -0.64881,0.12421c-0.9665,0 -1.75,-0.7835 -1.75,-1.75c0,-0.9665 0.7835,-1.75 1.75,-1.75c0.47613,0 0.90785,0.19015 1.22337,0.49865z" fill="#ffc72e" stroke="none" stroke-width="0.5" stroke-linecap="butt"/><path d="M400.82014,108.39558c-0.69036,0 -1.25,-0.55965 -1.25,-1.25c0,-0.5921 0.41168,-1.08805 0.96441,-1.21722c-0.27545,-0.30924 -0.44283,-0.71685 -0.44283,-1.16356c0,-0.9665 0.7835,-1.75 1.75,-1.75c0.53493,0 1.01381,0.24001 1.33481,0.61822c0.31122,-0.48448 0.85485,-0.80544 1.47345,-0.80544c0.9665,0 1.75,0.7835 1.75,1.75c0,0.9665 -0.7835,1.75 -1.75,1.75c-0.53493,0 -1.0138,-0.24002 -1.3348,-0.61823c-0.30158,0.46946 -0.82139,0.7854 -1.41618,0.80452c0.10877,0.18537 0.17113,0.40125 0.17113,0.6317c0,0.69035 -0.55964,1.25 -1.25,1.25z" fill="#ffc72e" stroke="none" stroke-width="0.5" stroke-linecap="butt"/><path d="M397.53573,106.51479c-0.9665,0 -1.75,-0.7835 -1.75,-1.75c0,-0.9665 0.7835,-1.75 1.75,-1.75c0.9665,0 1.75,0.7835 1.75,1.75c0,0.9665 -0.7835,1.75 -1.75,1.75z" fill="#ffc72e" stroke="none" stroke-width="0.5" stroke-linecap="butt"/><path d="M386.81415,106.14353c-0.02157,-0.04076 -0.04156,-0.08249 -0.05992,-0.12508c-0.31995,0.41569 -0.82251,0.68355 -1.38763,0.68355c-0.63502,0 -1.19104,-0.33822 -1.49774,-0.84435c-0.3067,0.50614 -0.86272,0.84435 -1.49773,0.84435c-0.56512,0 -1.06768,-0.26787 -1.38763,-0.68355c-0.26821,0.62233 -0.88715,1.05799 -1.60785,1.05799c-0.9665,0 -1.75,-0.7835 -1.75,-1.75c0,-0.9665 0.7835,-1.75 1.75,-1.75c0.56512,0 1.06767,0.26787 1.38762,0.68355c0.26821,-0.62233 0.88715,-1.05799 1.60785,-1.05799c0.63502,0 1.19103,0.33823 1.49773,0.84436c0.3067,-0.50614 0.86273,-0.84436 1.49774,-0.84436c0.7207,0 1.33965,0.43566 1.60785,1.05799c0.31995,-0.41569 0.8225,-0.68355 1.38763,-0.68355c0.71529,0 1.33036,0.42915 1.60176,1.04403c0.31394,-0.2989 0.7388,-0.48237 1.2065,-0.48237c0.9665,0 1.75,0.7835 1.75,1.75c0,0.9665 -0.7835,1.75 -1.75,1.75c-0.7153,0 -1.33036,-0.42915 -1.60176,-1.04403c-0.11065,0.10534 -0.23507,0.19635 -0.37028,0.27004c-0.11728,0.56867 -0.62081,0.99622 -1.22422,0.99622c-0.69036,0 -1.25,-0.55965 -1.25,-1.25c0,-0.16502 0.03197,-0.32257 0.09007,-0.46679z" fill="#ffc72e" stroke="none" stroke-width="0.5" stroke-linecap="butt"/><path d="M424.49501,112.31853c-0.9665,0 -1.75,-0.7835 -1.75,-1.75c0,-0.9665 0.7835,-1.75 1.75,-1.75c0.9665,0 1.75,0.7835 1.75,1.75c0,0.9665 -0.7835,1.75 -1.75,1.75z" fill="#f2bc49" stroke="none" stroke-width="0.5" stroke-linecap="butt"/><path d="M417.00632,109.83854c0.27071,-0.17171 0.59179,-0.27114 0.93609,-0.27114c0.51461,0 0.97733,0.22212 1.29754,0.57572c0.19003,-0.76091 0.87815,-1.32459 1.69793,-1.32459c0.9665,0 1.75,0.7835 1.75,1.75c0,0.9665 -0.7835,1.75 -1.75,1.75c-0.51461,0 -0.97734,-0.22212 -1.29755,-0.57572c-0.19003,0.76091 -0.87815,1.32459 -1.69793,1.32459c-0.3443,0 -0.66538,-0.09943 -0.93609,-0.27114c-0.27071,0.17171 -0.59178,0.27114 -0.93608,0.27114c-0.9665,0 -1.75,-0.7835 -1.75,-1.75c0,-0.9665 0.7835,-1.75 1.75,-1.75c0.3443,0 0.66537,0.09943 0.93608,0.27114z" fill="#f2bc49" stroke="none" stroke-width="0.5" stroke-linecap="butt"/><path d="M411.57702,112.69296c-0.9665,0 -1.75,-0.7835 -1.75,-1.75c0,-0.9665 0.7835,-1.75 1.75,-1.75c0.9665,0 1.75,0.7835 1.75,1.75c0,0.9665 -0.7835,1.75 -1.75,1.75z" fill="#f2bc49" stroke="none" stroke-width="0.5" stroke-linecap="butt"/><path d="M406.10528,109.27127c0.32095,-0.39073 0.80785,-0.63996 1.35296,-0.63996c0.9665,0 1.75,0.7835 1.75,1.75c0,0.9665 -0.7835,1.75 -1.75,1.75c-0.18078,0 -0.35516,-0.02742 -0.51921,-0.07831c-0.32095,0.39073 -0.80785,0.63996 -1.35296,0.63996c-0.9665,0 -1.75,-0.7835 -1.75,-1.75c0,-0.9665 0.7835,-1.75 1.75,-1.75c0.18079,0 0.35516,0.02742 0.51922,0.07831z" fill="#f2bc49" stroke="none" stroke-width="0.5" stroke-linecap="butt"/><path d="M399.14993,112.10505c-0.09864,0.01726 -0.20011,0.02626 -0.30368,0.02626c-0.56826,0 -1.07326,-0.27085 -1.39294,-0.69051c-0.31592,0.31123 -0.74958,0.50329 -1.2281,0.50329c-0.47851,0 -0.91217,-0.19205 -1.22809,-0.50329c-0.31968,0.41966 -0.82468,0.69051 -1.39294,0.69051c-0.9665,0 -1.75,-0.7835 -1.75,-1.75c0,-0.9665 0.7835,-1.75 1.75,-1.75c0.47852,0 0.91217,0.19205 1.22809,0.50329c0.31968,-0.41966 0.82468,-0.69051 1.39295,-0.69051c0.56826,0 1.07326,0.27085 1.39295,0.69051c0.31592,-0.31123 0.74958,-0.50329 1.22809,-0.50329c0.71529,0 1.33036,0.42915 1.60176,1.04403c0.31394,-0.2989 0.7388,-0.48238 1.2065,-0.48238c0.9665,0 1.75,0.7835 1.75,1.75c0,0.9665 -0.7835,1.75 -1.75,1.75c-0.08024,0 -0.15922,-0.0054 -0.2366,-0.01586c-0.22588,0.32385 -0.60118,0.53574 -1.02597,0.53574c-0.64227,0 -1.1714,-0.4844 -1.242,-1.10779z" fill="#f2bc49" stroke="none" stroke-width="0.5" stroke-linecap="butt"/><path d="M389.85982,111.56966c-0.9665,0 -1.75,-0.7835 -1.75,-1.75c0,-0.9665 0.7835,-1.75 1.75,-1.75c0.9665,0 1.75,0.7835 1.75,1.75c0,0.9665 -0.7835,1.75 -1.75,1.75z" fill="#f2bc49" stroke="none" stroke-width="0.5" stroke-linecap="butt"/><path d="M386.30269,112.31853c-0.9665,0 -1.75,-0.7835 -1.75,-1.75c0,-0.9665 0.7835,-1.75 1.75,-1.75c0.9665,0 1.75,0.7835 1.75,1.75c0,0.9665 -0.7835,1.75 -1.75,1.75z" fill="#f2bc49" stroke="none" stroke-width="0.5" stroke-linecap="butt"/><path d="M420.41037,109.57313c-0.69035,0 -1.25,-0.55965 -1.25,-1.25c0,-0.69035 0.55965,-1.25 1.25,-1.25c0.69036,0 1.25,0.55965 1.25,1.25c0,0.69035 -0.55964,1.25 -1.25,1.25z" fill="#ffc72e" stroke="none" stroke-width="0.5" stroke-linecap="butt"/><path d="M407.24316,107.86033c-0.69036,0 -1.25,-0.55965 -1.25,-1.25c0,-0.69035 0.55964,-1.25 1.25,-1.25c0.69035,0 1.25,0.55965 1.25,1.25c0,0.69035 -0.55965,1.25 -1.25,1.25z" fill="#ffc72e" stroke="none" stroke-width="0.5" stroke-linecap="butt"/><path d="M394.39711,108.93083c-0.69036,0 -1.25,-0.55965 -1.25,-1.25c0,-0.69035 0.55964,-1.25 1.25,-1.25c0.69036,0 1.25,0.55965 1.25,1.25c0,0.69035 -0.55964,1.25 -1.25,1.25z" fill="#ffc72e" stroke="none" stroke-width="0.5" stroke-linecap="butt"/><path d="M420.62447,117.6019c-0.69036,0 -1.25,-0.55965 -1.25,-1.25c0,-0.69035 0.55964,-1.25 1.25,-1.25c0.69036,0 1.25,0.55965 1.25,1.25c0,0.69035 -0.55964,1.25 -1.25,1.25z" fill="#f2bc49" stroke="none" stroke-width="0.5" stroke-linecap="butt"/><path d="M415.5931,118.13716c-0.69035,0 -1.25,-0.55964 -1.25,-1.25c0,-0.69035 0.55965,-1.25 1.25,-1.25c0.69036,0 1.25,0.55964 1.25,1.25c0,0.69036 -0.55964,1.25 -1.25,1.25z" fill="#f2bc49" stroke="none" stroke-width="0.5" stroke-linecap="butt"/><path d="M411.31108,117.92307c-0.69035,0 -1.25,-0.55964 -1.25,-1.25c0,-0.69035 0.55965,-1.25 1.25,-1.25c0.69036,0 1.25,0.55964 1.25,1.25c0,0.69036 -0.55964,1.25 -1.25,1.25z" fill="#f2bc49" stroke="none" stroke-width="0.5" stroke-linecap="butt"/><path d="M401.67654,115.99616c-0.69036,0 -1.25,-0.55965 -1.25,-1.25c0,-0.69035 0.55964,-1.25 1.25,-1.25c0.69036,0 1.25,0.55965 1.25,1.25c0,0.69035 -0.55964,1.25 -1.25,1.25z" fill="#f2bc49" stroke="none" stroke-width="0.5" stroke-linecap="butt"/><path d="M395.68171,114.60451c-0.69036,0 -1.25,-0.55965 -1.25,-1.25c0,-0.69035 0.55964,-1.25 1.25,-1.25c0.69036,0 1.25,0.55965 1.25,1.25c0,0.69035 -0.55964,1.25 -1.25,1.25z" fill="#f2bc49" stroke="none" stroke-width="0.5" stroke-linecap="butt"/><path d="M391.50675,116.10321c-0.69036,0 -1.25,-0.55965 -1.25,-1.25c0,-0.69035 0.55964,-1.25 1.25,-1.25c0.69036,0 1.25,0.55965 1.25,1.25c0,0.69035 -0.55964,1.25 -1.25,1.25z" fill="#f2bc49" stroke="none" stroke-width="0.5" stroke-linecap="butt"/><path d="M388.61638,115.78206c-0.69036,0 -1.25,-0.55965 -1.25,-1.25c0,-0.69035 0.55964,-1.25 1.25,-1.25c0.69036,0 1.25,0.55965 1.25,1.25c0,0.69035 -0.55964,1.25 -1.25,1.25z" fill="#f2bc49" stroke="none" stroke-width="0.5" stroke-linecap="butt"/><path d="M418.59051,120.52754c-0.41422,0 -0.75,-0.33578 -0.75,-0.75c0,-0.41422 0.33578,-0.75 0.75,-0.75c0.41422,0 0.75,0.33578 0.75,0.75c0,0.41422 -0.33578,0.75 -0.75,0.75z" fill="#f2bc49" stroke="none" stroke-width="0.5" stroke-linecap="butt"/><path d="M410.13353,122.02623c-0.41422,0 -0.75,-0.33578 -0.75,-0.75c0,-0.41422 0.33578,-0.75 0.75,-0.75c0.41422,0 0.75,0.33578 0.75,0.75c0,0.41422 -0.33578,0.75 -0.75,0.75z" fill="#f2bc49" stroke="none" stroke-width="0.5" stroke-linecap="butt"/><path d="M396.64517,123.2038c-0.41422,0 -0.75,-0.33578 -0.75,-0.75c0,-0.41422 0.33578,-0.75 0.75,-0.75c0.41422,0 0.75,0.33578 0.75,0.75c0,0.41422 -0.33578,0.75 -0.75,0.75z" fill="#f2bc49" stroke="none" stroke-width="0.5" stroke-linecap="butt"/><path d="M416.98476,110.57184c-0.41422,0 -0.75,-0.33579 -0.75,-0.75c0,-0.41421 0.33578,-0.75 0.75,-0.75c0.41422,0 0.75,0.33579 0.75,0.75c0,0.41421 -0.33578,0.75 -0.75,0.75z" fill="#ffc72e" stroke="none" stroke-width="0.5" stroke-linecap="butt"/><path d="M400.49898,110.46479c-0.41422,0 -0.75,-0.33579 -0.75,-0.75c0,-0.41421 0.33578,-0.75 0.75,-0.75c0.41422,0 0.75,0.33579 0.75,0.75c0,0.41421 -0.33578,0.75 -0.75,0.75z" fill="#ffc72e" stroke="none" stroke-width="0.5" stroke-linecap="butt"/><path d="M386.15422,109.18018c-0.41422,0 -0.75,-0.33579 -0.75,-0.75c0,-0.41421 0.33578,-0.75 0.75,-0.75c0.41422,0 0.75,0.33579 0.75,0.75c0,0.41421 -0.33578,0.75 -0.75,0.75z" fill="#ffc72e" stroke="none" stroke-width="0.5" stroke-linecap="butt"/><path d="M361.99346,125.29235c-0.62892,-1.2563 7.34273,-4.10998 16.72802,-8.8084c9.38529,-4.69843 17.99335,-8.80324 17.99335,-8.80324c0,0 -7.64033,5.69392 -17.02562,10.39234c-9.38529,4.69842 -17.06682,8.47559 -17.69574,7.21929z" fill="#ff9600" stroke="#000000" stroke-width="0" stroke-linecap="butt"/></g><g><path d="M267.32732,168.92153l-29.02984,24.24141c0,0 -16.31853,-38.56396 -20.9133,-57.6142c-4.25813,-17.65449 -5.72233,-52.81892 -5.72233,-52.81892l56.86258,22.74503z" fill="#f3ca58" stroke="#000000" stroke-width="0" stroke-linecap="round"/><path d="M279.88221,150.6146c0.72283,1.20472 -6.58565,5.66106 -15.58561,11.06103c-8.99995,5.39997 -17.90394,8.79328 -17.90394,8.79328c0,0 8.08204,-5.0625 17.082,-10.46247c8.99996,-5.39997 15.68472,-10.59656 16.40755,-9.39184z" fill="#ff9600" stroke="#000000" stroke-width="0" stroke-linecap="butt"/><path d="M268.41444,139.81698c0.14099,1.39784 -8.3694,2.31766 -18.81207,3.37097c-10.44267,1.05331 -19.94398,0.33188 -19.94398,0.33188c0,0 9.46844,-1.13885 19.9111,-2.19217c10.44267,-1.05331 18.70396,-2.90853 18.84495,-1.51069z" fill="#ff9600" stroke="#000000" stroke-width="0" stroke-linecap="butt"/><g stroke="#000000" stroke-width="0" stroke-linecap="round"><g fill="#f2bc49"><path d="M213.63507,110.40302c-1.41876,-14.35737 -1.97322,-27.67319 -1.97322,-27.67319l56.86258,22.74503c0,0 -0.04277,2.26707 -0.08901,4.7176c-0.00102,0.05428 -54.76985,0.51929 -54.80035,0.21056z"/></g><g fill="#ffc72e"><path d="M213.16005,105.28829c-1.06911,-12.25357 -1.49819,-22.55846 -1.49819,-22.55846l56.86258,22.74503c0,0 -55.36216,-0.16104 -55.36439,-0.18657z"/></g><g fill="#ff9600"><path d="M212.34941,93.78936c-0.09347,-1.48574 -0.37349,-2.97032 -0.45926,-4.34741c-0.23392,-3.7558 -0.2283,-6.71211 -0.2283,-6.71211c0,0 19.85601,7.9424 29.50527,11.8021c0.18178,0.07271 -28.8169,-0.7297 -28.81771,-0.74258z"/></g></g><path d="M212.9724,93.90619c0,-0.9665 0.7835,-1.75 1.75,-1.75c0.9665,0 1.75,0.7835 1.75,1.75c0,0.9665 -0.7835,1.75 -1.75,1.75c-0.9665,0 -1.75,-0.7835 -1.75,-1.75z" fill="#ff9600" stroke="none" stroke-width="0.5" stroke-linecap="butt"/><path d="M216.71675,94.84228c0,-0.9665 0.7835,-1.75 1.75,-1.75c0.78818,0 1.45467,0.52108 1.67377,1.23753c0.30424,-0.5165 0.86611,-0.86309 1.50893,-0.86309c0.2317,0 0.45287,0.04503 0.65526,0.12681c0.20239,-0.08178 0.42356,-0.12681 0.65526,-0.12681c0.9665,0 1.75,0.7835 1.75,1.75c0,0.9665 -0.7835,1.75 -1.75,1.75c-0.2317,0 -0.45287,-0.04503 -0.65526,-0.12681c-0.20239,0.08178 -0.42356,0.12681 -0.65526,0.12681c-0.78818,0 -1.45467,-0.52107 -1.67377,-1.23752c-0.30424,0.5165 -0.86611,0.86308 -1.50893,0.86308c-0.9665,0 -1.75,-0.7835 -1.75,-1.75z" fill="#ff9600" stroke="none" stroke-width="0.5" stroke-linecap="butt"/><path d="M224.76709,94.28063c0,-0.9665 0.7835,-1.75 1.75,-1.75c0.9665,0 1.75,0.7835 1.75,1.75c0,0.9665 -0.7835,1.75 -1.75,1.75c-0.9665,0 -1.75,-0.7835 -1.75,-1.75z" fill="#ff9600" stroke="none" stroke-width="0.5" stroke-linecap="butt"/><path d="M233.75804,96.34002c0,0.69035 -0.55964,1.25 -1.25,1.25c-0.68684,0 -1.24429,-0.55395 -1.24996,-1.23945c-0.13908,0.03557 -0.28483,0.05449 -0.435,0.05449c-0.9665,0 -1.75,-0.7835 -1.75,-1.75c0,-0.9665 0.7835,-1.75 1.75,-1.75c0.9665,0 1.75,0.7835 1.75,1.75c0,0.15017 -0.01891,0.29592 -0.05449,0.435c0.6855,0.00567 1.23944,0.56312 1.23944,1.24996z" fill="#ff9600" stroke="none" stroke-width="0.5" stroke-linecap="butt"/><path d="M233.94073,94.65506c0,-0.9665 0.7835,-1.75 1.75,-1.75c0.9665,0 1.75,0.7835 1.75,1.75c0,0.9665 -0.7835,1.75 -1.75,1.75c-0.9665,0 -1.75,-0.7835 -1.75,-1.75z" fill="#ff9600" stroke="none" stroke-width="0.5" stroke-linecap="butt"/><path d="M214.40849,99.14828c0,-0.69035 0.55964,-1.25 1.25,-1.25c0.69036,0 1.25,0.55965 1.25,1.25c0,0.69035 -0.55964,1.25 -1.25,1.25c-0.69036,0 -1.25,-0.55965 -1.25,-1.25z" fill="#ff9600" stroke="none" stroke-width="0.5" stroke-linecap="butt"/><path d="M221.33553,101.20767c0,-0.69035 0.55964,-1.25 1.25,-1.25c0.69036,0 1.25,0.55965 1.25,1.25c0,0.69035 -0.55964,1.25 -1.25,1.25c-0.69036,0 -1.25,-0.55965 -1.25,-1.25z" fill="#ff9600" stroke="none" stroke-width="0.5" stroke-linecap="butt"/><path d="M225.26709,97.46332c0,-0.69035 0.55964,-1.25 1.25,-1.25c0.69036,0 1.25,0.55965 1.25,1.25c0,0.69035 -0.55964,1.25 -1.25,1.25c-0.69036,0 -1.25,-0.55965 -1.25,-1.25z" fill="#ff9600" stroke="none" stroke-width="0.5" stroke-linecap="butt"/><path d="M240.6189,96.1528c0,-0.69036 0.55964,-1.25 1.25,-1.25c0.69036,0 1.25,0.55964 1.25,1.25c0,0.69036 -0.55964,1.25 -1.25,1.25c-0.69036,0 -1.25,-0.55964 -1.25,-1.25z" fill="#ff9600" stroke="none" stroke-width="0.5" stroke-linecap="butt"/><path d="M244.73768,99.14827c0,-0.69036 0.55964,-1.25 1.25,-1.25c0.69036,0 1.25,0.55964 1.25,1.25c0,0.69036 -0.55964,1.25 -1.25,1.25c-0.69036,0 -1.25,-0.55964 -1.25,-1.25z" fill="#ff9600" stroke="none" stroke-width="0.5" stroke-linecap="butt"/><path d="M213.60249,105.70088c0,-0.9665 0.7835,-1.75 1.75,-1.75c0.9665,0 1.75,0.7835 1.75,1.75c0,0.9665 -0.7835,1.75 -1.75,1.75c-0.9665,0 -1.75,-0.7835 -1.75,-1.75z" fill="#ffc72e" stroke="none" stroke-width="0.5" stroke-linecap="butt"/><path d="M218.84457,104.76479c0,-0.9665 0.7835,-1.75 1.75,-1.75c0.9665,0 1.75,0.7835 1.75,1.75c0,0.9665 -0.7835,1.75 -1.75,1.75c-0.9665,0 -1.75,-0.7835 -1.75,-1.75z" fill="#ffc72e" stroke="none" stroke-width="0.5" stroke-linecap="butt"/><path d="M229.76822,103.76366c0.9665,0 1.75,0.7835 1.75,1.75c0,0.9665 -0.7835,1.75 -1.75,1.75c-0.22923,0 -0.44817,-0.04408 -0.64881,-0.12421c-0.31551,0.3085 -0.74723,0.49865 -1.22337,0.49865c-0.00858,0 -0.01714,-0.00006 -0.02569,-0.00018c-0.31968,0.34552 -0.77699,0.56184 -1.28483,0.56184c-0.9665,0 -1.75,-0.7835 -1.75,-1.75c0,-0.9665 0.7835,-1.75 1.75,-1.75c0.00858,0 0.01714,0.00006 0.02569,0.00018c0.31968,-0.34552 0.77699,-0.56184 1.28483,-0.56184c0.22923,0 0.44817,0.04408 0.64881,0.12421c0.31551,-0.3085 0.74723,-0.49865 1.22337,-0.49865z" fill="#ffc72e" stroke="none" stroke-width="0.5" stroke-linecap="butt"/><path d="M237.96458,107.14558c0,-0.23045 0.06236,-0.44634 0.17113,-0.63171c-0.59478,-0.01913 -1.1146,-0.33505 -1.41617,-0.80452c-0.321,0.37821 -0.79988,0.61822 -1.33481,0.61822c-0.9665,0 -1.75,-0.7835 -1.75,-1.75c0,-0.9665 0.7835,-1.75 1.75,-1.75c0.6186,0 1.16223,0.32096 1.47345,0.80544c0.321,-0.37821 0.79988,-0.61822 1.33481,-0.61822c0.9665,0 1.75,0.7835 1.75,1.75c0,0.44671 -0.16737,0.85432 -0.44283,1.16356c0.55274,0.12918 0.96442,0.62513 0.96442,1.21723c0,0.69036 -0.55964,1.25 -1.25,1.25c-0.69036,0 -1.25,-0.55964 -1.25,-1.25z" fill="#ffc72e" stroke="none" stroke-width="0.5" stroke-linecap="butt"/><path d="M240.74899,104.76479c0,-0.9665 0.7835,-1.75 1.75,-1.75c0.9665,0 1.75,0.7835 1.75,1.75c0,0.9665 -0.7835,1.75 -1.75,1.75c-0.9665,0 -1.75,-0.7835 -1.75,-1.75z" fill="#ffc72e" stroke="none" stroke-width="0.5" stroke-linecap="butt"/><path d="M253.31064,106.61032c0,0.69036 -0.55964,1.25 -1.25,1.25c-0.6034,0 -1.10695,-0.42755 -1.22422,-0.99622c-0.13521,-0.07369 -0.25963,-0.16469 -0.37028,-0.27003c-0.2714,0.61487 -0.88646,1.04403 -1.60176,1.04403c-0.9665,0 -1.75,-0.7835 -1.75,-1.75c0,-0.9665 0.7835,-1.75 1.75,-1.75c0.4677,0 0.89255,0.18347 1.2065,0.48237c0.2714,-0.61487 0.88646,-1.04403 1.60176,-1.04403c0.56512,0 1.06767,0.26787 1.38762,0.68356c0.26821,-0.62233 0.88715,-1.05799 1.60785,-1.05799c0.63502,0 1.19104,0.33823 1.49774,0.84436c0.3067,-0.50613 0.86272,-0.84436 1.49774,-0.84436c0.7207,0 1.33965,0.43566 1.60785,1.05799c0.31995,-0.41569 0.82251,-0.68356 1.38762,-0.68356c0.9665,0 1.75,0.7835 1.75,1.75c0,0.9665 -0.7835,1.75 -1.75,1.75c-0.7207,0 -1.33965,-0.43566 -1.60785,-1.05799c-0.31995,0.41569 -0.82251,0.68356 -1.38762,0.68356c-0.63502,0 -1.19104,-0.33823 -1.49774,-0.84436c-0.3067,0.50613 -0.86272,0.84436 -1.49774,0.84436c-0.56512,0 -1.06767,-0.26787 -1.38762,-0.68356c-0.01836,0.04259 -0.03836,0.08431 -0.05992,0.12508c0.05809,0.14422 0.09007,0.30177 0.09007,0.46679z" fill="#ffc72e" stroke="none" stroke-width="0.5" stroke-linecap="butt"/><path d="M213.78971,110.56852c0,-0.9665 0.7835,-1.75 1.75,-1.75c0.9665,0 1.75,0.7835 1.75,1.75c0,0.9665 -0.7835,1.75 -1.75,1.75c-0.9665,0 -1.75,-0.7835 -1.75,-1.75z" fill="#f2bc49" stroke="none" stroke-width="0.5" stroke-linecap="butt"/><path d="M223.96448,109.56739c0.9665,0 1.75,0.7835 1.75,1.75c0,0.9665 -0.7835,1.75 -1.75,1.75c-0.3443,0 -0.66538,-0.09943 -0.93609,-0.27114c-0.27071,0.17171 -0.59179,0.27114 -0.93609,0.27114c-0.81978,0 -1.5079,-0.56368 -1.69793,-1.32459c-0.3202,0.3536 -0.78293,0.57572 -1.29754,0.57572c-0.9665,0 -1.75,-0.7835 -1.75,-1.75c0,-0.9665 0.7835,-1.75 1.75,-1.75c0.81978,0 1.5079,0.56368 1.69793,1.32459c0.3202,-0.3536 0.78293,-0.57572 1.29754,-0.57572c0.3443,0 0.66538,0.09943 0.93609,0.27114c0.27071,-0.17171 0.59179,-0.27114 0.93609,-0.27114z" fill="#f2bc49" stroke="none" stroke-width="0.5" stroke-linecap="butt"/><path d="M226.7077,110.94296c0,-0.9665 0.7835,-1.75 1.75,-1.75c0.9665,0 1.75,0.7835 1.75,1.75c0,0.9665 -0.7835,1.75 -1.75,1.75c-0.9665,0 -1.75,-0.7835 -1.75,-1.75z" fill="#f2bc49" stroke="none" stroke-width="0.5" stroke-linecap="butt"/><path d="M234.44865,109.19296c0.9665,0 1.75,0.7835 1.75,1.75c0,0.9665 -0.7835,1.75 -1.75,1.75c-0.54511,0 -1.03201,-0.24923 -1.35296,-0.63996c-0.16405,0.0509 -0.33843,0.07831 -0.51922,0.07831c-0.9665,0 -1.75,-0.7835 -1.75,-1.75c0,-0.9665 0.7835,-1.75 1.75,-1.75c0.54511,0 1.03201,0.24923 1.35296,0.63996c0.16405,-0.0509 0.33843,-0.07831 0.51922,-0.07831z" fill="#f2bc49" stroke="none" stroke-width="0.5" stroke-linecap="butt"/><path d="M239.64278,113.21285c-0.42479,0 -0.80009,-0.21189 -1.02597,-0.53575c-0.07738,0.01046 -0.15636,0.01586 -0.2366,0.01586c-0.9665,0 -1.75,-0.7835 -1.75,-1.75c0,-0.9665 0.7835,-1.75 1.75,-1.75c0.4677,0 0.89255,0.18347 1.2065,0.48237c0.2714,-0.61487 0.88646,-1.04403 1.60176,-1.04403c0.47851,0 0.91217,0.19206 1.22809,0.50329c0.31968,-0.41965 0.82468,-0.69051 1.39295,-0.69051c0.56826,0 1.07326,0.27085 1.39295,0.69051c0.31592,-0.31123 0.74958,-0.50329 1.22809,-0.50329c0.9665,0 1.75,0.7835 1.75,1.75c0,0.9665 -0.7835,1.75 -1.75,1.75c-0.56826,0 -1.07326,-0.27085 -1.39295,-0.69051c-0.31592,0.31123 -0.74958,0.50329 -1.22809,0.50329c-0.47851,0 -0.91217,-0.19206 -1.22809,-0.50329c-0.31968,0.41965 -0.82468,0.69051 -1.39295,0.69051c-0.10358,0 -0.20505,-0.009 -0.30369,-0.02626c-0.07059,0.6234 -0.59973,1.1078 -1.242,1.1078z" fill="#f2bc49" stroke="none" stroke-width="0.5" stroke-linecap="butt"/><path d="M248.4249,109.81966c0,-0.9665 0.7835,-1.75 1.75,-1.75c0.9665,0 1.75,0.7835 1.75,1.75c0,0.9665 -0.7835,1.75 -1.75,1.75c-0.9665,0 -1.75,-0.7835 -1.75,-1.75z" fill="#f2bc49" stroke="none" stroke-width="0.5" stroke-linecap="butt"/><path d="M251.98202,110.56852c0,-0.9665 0.7835,-1.75 1.75,-1.75c0.9665,0 1.75,0.7835 1.75,1.75c0,0.9665 -0.7835,1.75 -1.75,1.75c-0.9665,0 -1.75,-0.7835 -1.75,-1.75z" fill="#f2bc49" stroke="none" stroke-width="0.5" stroke-linecap="butt"/><path d="M218.37435,108.32313c0,-0.69036 0.55964,-1.25 1.25,-1.25c0.69036,0 1.25,0.55964 1.25,1.25c0,0.69036 -0.55964,1.25 -1.25,1.25c-0.69036,0 -1.25,-0.55964 -1.25,-1.25z" fill="#ffc72e" stroke="none" stroke-width="0.5" stroke-linecap="butt"/><path d="M231.54155,106.61032c0,-0.69036 0.55964,-1.25 1.25,-1.25c0.69036,0 1.25,0.55964 1.25,1.25c0,0.69036 -0.55964,1.25 -1.25,1.25c-0.69036,0 -1.25,-0.55964 -1.25,-1.25z" fill="#ffc72e" stroke="none" stroke-width="0.5" stroke-linecap="butt"/><path d="M244.38761,107.68083c0,-0.69036 0.55964,-1.25 1.25,-1.25c0.69036,0 1.25,0.55964 1.25,1.25c0,0.69036 -0.55964,1.25 -1.25,1.25c-0.69036,0 -1.25,-0.55964 -1.25,-1.25z" fill="#ffc72e" stroke="none" stroke-width="0.5" stroke-linecap="butt"/><path d="M218.16025,116.35192c0,-0.69036 0.55964,-1.25 1.25,-1.25c0.69036,0 1.25,0.55964 1.25,1.25c0,0.69036 -0.55964,1.25 -1.25,1.25c-0.69036,0 -1.25,-0.55964 -1.25,-1.25z" fill="#f2bc49" stroke="none" stroke-width="0.5" stroke-linecap="butt"/><path d="M223.19162,116.88716c0,-0.69036 0.55964,-1.25 1.25,-1.25c0.69036,0 1.25,0.55964 1.25,1.25c0,0.69036 -0.55964,1.25 -1.25,1.25c-0.69036,0 -1.25,-0.55964 -1.25,-1.25z" fill="#f2bc49" stroke="none" stroke-width="0.5" stroke-linecap="butt"/><path d="M227.47364,116.67307c0,-0.69036 0.55964,-1.25 1.25,-1.25c0.69036,0 1.25,0.55964 1.25,1.25c0,0.69036 -0.55964,1.25 -1.25,1.25c-0.69036,0 -1.25,-0.55964 -1.25,-1.25z" fill="#f2bc49" stroke="none" stroke-width="0.5" stroke-linecap="butt"/><path d="M237.10818,114.74616c0,-0.69036 0.55964,-1.25 1.25,-1.25c0.69036,0 1.25,0.55964 1.25,1.25c0,0.69036 -0.55964,1.25 -1.25,1.25c-0.69036,0 -1.25,-0.55964 -1.25,-1.25z" fill="#f2bc49" stroke="none" stroke-width="0.5" stroke-linecap="butt"/><path d="M243.103,113.3545c0,-0.69036 0.55964,-1.25 1.25,-1.25c0.69036,0 1.25,0.55964 1.25,1.25c0,0.69036 -0.55964,1.25 -1.25,1.25c-0.69036,0 -1.25,-0.55964 -1.25,-1.25z" fill="#f2bc49" stroke="none" stroke-width="0.5" stroke-linecap="butt"/><path d="M247.27797,114.85321c0,-0.69036 0.55964,-1.25 1.25,-1.25c0.69036,0 1.25,0.55964 1.25,1.25c0,0.69036 -0.55964,1.25 -1.25,1.25c-0.69036,0 -1.25,-0.55964 -1.25,-1.25z" fill="#f2bc49" stroke="none" stroke-width="0.5" stroke-linecap="butt"/><path d="M250.16833,114.53206c0,-0.69036 0.55964,-1.25 1.25,-1.25c0.69036,0 1.25,0.55964 1.25,1.25c0,0.69036 -0.55964,1.25 -1.25,1.25c-0.69036,0 -1.25,-0.55964 -1.25,-1.25z" fill="#f2bc49" stroke="none" stroke-width="0.5" stroke-linecap="butt"/><path d="M220.6942,119.77754c0,-0.41421 0.33579,-0.75 0.75,-0.75c0.41421,0 0.75,0.33579 0.75,0.75c0,0.41421 -0.33579,0.75 -0.75,0.75c-0.41421,0 -0.75,-0.33579 -0.75,-0.75z" fill="#f2bc49" stroke="none" stroke-width="0.5" stroke-linecap="butt"/><path d="M229.15119,121.27623c0,-0.41421 0.33579,-0.75 0.75,-0.75c0.41421,0 0.75,0.33579 0.75,0.75c0,0.41421 -0.33579,0.75 -0.75,0.75c-0.41421,0 -0.75,-0.33579 -0.75,-0.75z" fill="#f2bc49" stroke="none" stroke-width="0.5" stroke-linecap="butt"/><path d="M242.63955,122.45378c0,-0.41421 0.33579,-0.75 0.75,-0.75c0.41421,0 0.75,0.33579 0.75,0.75c0,0.41421 -0.33579,0.75 -0.75,0.75c-0.41421,0 -0.75,-0.33579 -0.75,-0.75z" fill="#f2bc49" stroke="none" stroke-width="0.5" stroke-linecap="butt"/><path d="M222.29996,109.82184c0,-0.41421 0.33579,-0.75 0.75,-0.75c0.41421,0 0.75,0.33579 0.75,0.75c0,0.41421 -0.33579,0.75 -0.75,0.75c-0.41421,0 -0.75,-0.33579 -0.75,-0.75z" fill="#ffc72e" stroke="none" stroke-width="0.5" stroke-linecap="butt"/><path d="M238.78573,109.71479c0,-0.41421 0.33579,-0.75 0.75,-0.75c0.41421,0 0.75,0.33579 0.75,0.75c0,0.41421 -0.33579,0.75 -0.75,0.75c-0.41421,0 -0.75,-0.33579 -0.75,-0.75z" fill="#ffc72e" stroke="none" stroke-width="0.5" stroke-linecap="butt"/><path d="M253.1305,108.43018c0,-0.41421 0.33579,-0.75 0.75,-0.75c0.41421,0 0.75,0.33579 0.75,0.75c0,0.41421 -0.33579,0.75 -0.75,0.75c-0.41421,0 -0.75,-0.33579 -0.75,-0.75z" fill="#ffc72e" stroke="none" stroke-width="0.5" stroke-linecap="butt"/><path d="M278.04123,125.29235c-0.62892,1.2563 -8.31045,-2.52087 -17.69574,-7.21929c-9.38529,-4.69842 -17.02562,-10.39234 -17.02562,-10.39234c0,0 8.60806,4.10481 17.99335,8.80324c9.38529,4.69842 17.35694,7.5521 16.72802,8.8084z" fill="#ff9600" stroke="#000000" stroke-width="0" stroke-linecap="butt"/></g><g><path d="M255.96348,137.04066c0,-33.30185 28.7599,-60.29833 64.23702,-60.29833c35.47713,0 64.23702,26.99648 64.23702,60.29833c0,33.30185 -28.75989,60.29834 -64.23702,60.29834c-35.47712,0 -64.23702,-26.99649 -64.23702,-60.29834z" fill="url(#color-2)" stroke="#000000" stroke-width="0" stroke-linecap="butt"/><path d="M262.62045,110.27971c10.50354,-19.87522 32.34209,-33.53737 57.58005,-33.53737c25.34496,0 47.26162,13.77822 57.71303,33.79048c0.02904,0.0556 -115.32948,-0.18422 -115.29308,-0.25311z" fill="#f2bc49" stroke="#000000" stroke-width="0" stroke-linecap="butt"/><path d="M265.16496,105.68478c11.54726,-16.01882 32.87927,-28.94243 55.03554,-28.94243c22.66314,0 43.78222,12.81233 55.21687,29.45181c0.13436,0.19552 -110.56863,-0.0707 -110.25241,-0.50938z" fill="#ffc72e" stroke="#000000" stroke-width="0" stroke-linecap="butt"/><path d="M272.7061,96.47958c11.77301,-12.58317 28.25134,-19.73723 47.4944,-19.73723c19.79507,0 36.07963,6.8278 47.86314,20.04301c0.04996,0.05603 -95.46858,-0.18711 -95.35755,-0.30578z" fill="#ff9600" stroke="#000000" stroke-width="0" stroke-linecap="butt"/><path d="M269.29128,137.31626c0,-12.96801 10.51265,-23.48065 23.48066,-23.48065c12.96801,0 23.48065,10.51264 23.48065,23.48065c0,12.96801 -10.51264,23.48066 -23.48065,23.48066c-12.96801,0 -23.48066,-10.51265 -23.48066,-23.48066z" fill="url(#color-3)" stroke="#000000" stroke-width="0" stroke-linecap="butt"/><path d="M282.64932,136.40407c0,-4.8015 3.89238,-8.69389 8.69389,-8.69389c4.8015,0 8.69389,3.89239 8.69389,8.6939c0,4.8015 -3.89239,8.6939 -8.69389,8.6939c-4.8015,0 -8.69389,-3.89239 -8.69389,-8.6939z" fill="#000000" stroke="#000000" stroke-width="0" stroke-linecap="butt"/><path d="M347.03044,160.797c-12.96801,0 -23.48065,-10.51265 -23.48065,-23.48066c0,-12.96801 10.51264,-23.48065 23.48065,-23.48065c12.96801,0 23.48066,10.51264 23.48066,23.48065c0,12.96801 -10.51265,23.48066 -23.48066,23.48066z" fill="url(#color-4)" stroke="#000000" stroke-width="0" stroke-linecap="butt"/><path d="M354.06598,137.84346c-0.30729,4.27309 -3.64375,7.1153 -7.99725,7.06118c-4.3535,-0.05413 -7.35926,-3.10337 -7.06118,-7.24839c0.29809,-4.14502 3.47161,-8.43029 8.18448,-8.3717c4.71287,0.05859 7.18124,4.28583 6.87395,8.55891z" fill="#000000" stroke="#000000" stroke-width="0" stroke-linecap="butt"/><path d="M290.32421,66.38684c0,0 10.36904,-39.42847 28.33195,-23.95547c1.36665,1.17722 2.54402,2.3993 3.55299,3.65262c12.25261,15.21985 -0.32822,35.04467 -0.32822,35.04467" fill="none" stroke="#ff9600" stroke-width="6" stroke-linecap="round"/><path d="M303.25699,79.29625c0.70326,6.06563 -3.95112,11.58854 -10.39585,12.33575c-6.44473,0.74722 -12.23933,-3.56421 -12.94259,-9.62984c-0.70326,-6.06563 3.40959,-15.41961 9.85433,-16.16683c6.44473,-0.74722 12.78086,7.39529 13.48412,13.46092z" fill="#ffffff" stroke="#000000" stroke-width="0" stroke-linecap="butt"/><path d="M262.45356,146.21168c3.90664,-2.25827 8.55885,0.51523 12.68902,1.14881c4.61052,0.70726 10.46411,1.66165 15.09496,0.82183c1.92989,-0.34999 3.37966,-1.44424 5.42011,-1.49263c5.37489,-1.18232 12.75892,-1.16365 18.10836,-0.0439c1.93854,0.40578 3.76592,1.4487 5.72027,1.83382c5.93796,1.17013 13.19652,-0.69783 18.98767,-1.96759c9.43217,-1.19933 19.89354,-2.17878 29.13673,0.27083c2.38027,0.63082 4.6791,1.41218 6.97039,2.32044c1.02233,0.40525 2.62968,0.14541 3.09607,1.14133c0.84734,1.80938 -3.72469,4.39721 -4.57198,5.14554c-3.74569,2.28507 -7.46844,4.67604 -11.28699,6.82974c-1.44349,0.81414 -3.65728,2.52242 -5.36013,2.88153c-7.83052,1.65138 -16.21324,-0.46233 -23.9581,-1.75418c-11.88498,-1.96527 -24.14326,0.18748 -35.87205,2.07514c-2.09588,0.33731 -3.88169,1.29744 -6.01517,1.48215c-5.68012,-0.00572 -9.49772,-2.35914 -14.75461,-4.35837c-3.8433,-1.46164 -7.78204,-2.95402 -11.11916,-5.41778c-2.55561,-1.88677 -5.44385,-3.87528 -5.82457,-7.26437c0.31669,-1.55438 1.921,-2.51633 3.32149,-3.55862c0.13405,-0.04583 0.21767,-0.0937 0.21767,-0.0937z" fill-opacity="0.41176" fill="#6ee8ff" stroke="none" stroke-width="0.5" stroke-linecap="butt"/><path d="M380.87902,112.59179v41.23104l-24.87684,14.74183l-36.16354,-4.37647l-34.78149,5.0675l-25.56786,-14.97216v-41.69173z" fill-opacity="0.08235" fill="#00ffff" stroke="#f1da3e" stroke-width="7.5" stroke-linecap="round"/><path d="M272.40266,97.48529c0,-0.9665 0.7835,-1.75 1.75,-1.75c0.9665,0 1.75,0.7835 1.75,1.75c0,0.9665 -0.7835,1.75 -1.75,1.75c-0.9665,0 -1.75,-0.7835 -1.75,-1.75z" fill="#ff9600" stroke="none" stroke-width="0.5" stroke-linecap="butt"/><path d="M282.19507,95.5776c0.9665,0 1.75,0.7835 1.75,1.75c0,0.9665 -0.7835,1.75 -1.75,1.75c-0.76771,0 -1.41996,-0.49434 -1.65579,-1.18208c-0.23583,0.68774 -0.88808,1.18208 -1.65579,1.18208c-0.9665,0 -1.75,-0.7835 -1.75,-1.75c0,-0.9665 0.7835,-1.75 1.75,-1.75c0.76771,0 1.41996,0.49434 1.65579,1.18208c0.23583,-0.68774 0.88808,-1.18208 1.65579,-1.18208z" fill="#ff9600" stroke="none" stroke-width="0.5" stroke-linecap="butt"/><path d="M287.38361,96.38143c0,-0.9665 0.7835,-1.75 1.75,-1.75c0.9665,0 1.75,0.7835 1.75,1.75c0,0.9665 -0.7835,1.75 -1.75,1.75c-0.9665,0 -1.75,-0.7835 -1.75,-1.75z" fill="#ff9600" stroke="none" stroke-width="0.5" stroke-linecap="butt"/><path d="M294.47985,96.22374c0,-0.9665 0.7835,-1.75 1.75,-1.75c0.9665,0 1.75,0.7835 1.75,1.75c0,0.9665 -0.7835,1.75 -1.75,1.75c-0.9665,0 -1.75,-0.7835 -1.75,-1.75z" fill="#ff9600" stroke="none" stroke-width="0.5" stroke-linecap="butt"/><path d="M301.41839,96.69682c0,-0.9665 0.7835,-1.75 1.75,-1.75c0.9665,0 1.75,0.7835 1.75,1.75c0,0.9665 -0.7835,1.75 -1.75,1.75c-0.9665,0 -1.75,-0.7835 -1.75,-1.75z" fill="#ff9600" stroke="none" stroke-width="0.5" stroke-linecap="butt"/><path d="M308.35693,96.85451c0,-0.9665 0.7835,-1.75 1.75,-1.75c0.9665,0 1.75,0.7835 1.75,1.75c0,0.9665 -0.7835,1.75 -1.75,1.75c-0.9665,0 -1.75,-0.7835 -1.75,-1.75z" fill="#ff9600" stroke="none" stroke-width="0.5" stroke-linecap="butt"/><path d="M311.9839,96.38143c0,-0.9665 0.7835,-1.75 1.75,-1.75c0.9665,0 1.75,0.7835 1.75,1.75c0,0.9665 -0.7835,1.75 -1.75,1.75c-0.9665,0 -1.75,-0.7835 -1.75,-1.75z" fill="#ff9600" stroke="none" stroke-width="0.5" stroke-linecap="butt"/><path d="M316.87242,96.22374c0,-0.9665 0.7835,-1.75 1.75,-1.75c0.9665,0 1.75,0.7835 1.75,1.75c0,0.9665 -0.7835,1.75 -1.75,1.75c-0.9665,0 -1.75,-0.7835 -1.75,-1.75z" fill="#ff9600" stroke="none" stroke-width="0.5" stroke-linecap="butt"/><path d="M323.96866,96.22374c0,-0.9665 0.7835,-1.75 1.75,-1.75c0.9665,0 1.75,0.7835 1.75,1.75c0,0.9665 -0.7835,1.75 -1.75,1.75c-0.9665,0 -1.75,-0.7835 -1.75,-1.75z" fill="#ff9600" stroke="none" stroke-width="0.5" stroke-linecap="butt"/><path d="M328.54179,96.38143c0,-0.9665 0.7835,-1.75 1.75,-1.75c0.9665,0 1.75,0.7835 1.75,1.75c0,0.9665 -0.7835,1.75 -1.75,1.75c-0.9665,0 -1.75,-0.7835 -1.75,-1.75z" fill="#ff9600" stroke="none" stroke-width="0.5" stroke-linecap="butt"/><path d="M332.01106,97.1699c0,-0.9665 0.7835,-1.75 1.75,-1.75c0.9665,0 1.75,0.7835 1.75,1.75c0,0.9665 -0.7835,1.75 -1.75,1.75c-0.9665,0 -1.75,-0.7835 -1.75,-1.75z" fill="#ff9600" stroke="none" stroke-width="0.5" stroke-linecap="butt"/><path d="M345.58812,95.89299c0.9665,0 1.75,0.7835 1.75,1.75c0,0.9665 -0.7835,1.75 -1.75,1.75c-0.58411,0 -1.10138,-0.28617 -1.41925,-0.72595c-0.31788,0.43978 -0.83514,0.72595 -1.41924,0.72595c-0.4021,0 -0.77252,-0.13562 -1.06803,-0.3636c-0.24563,0.1314 -0.52626,0.20591 -0.8243,0.20591c-0.9665,0 -1.75,-0.7835 -1.75,-1.75c0,-0.9665 0.7835,-1.75 1.75,-1.75c0.4021,0 0.77252,0.13561 1.06803,0.3636c0.24563,-0.1314 0.52626,-0.2059 0.8243,-0.2059c0.58411,0 1.10137,0.28616 1.41924,0.72594c0.31788,-0.43978 0.83515,-0.72594 1.41925,-0.72594z" fill="#ff9600" stroke="none" stroke-width="0.5" stroke-linecap="butt"/><path d="M355.36516,95.5776c0.9665,0 1.75,0.7835 1.75,1.75c0,0.9665 -0.7835,1.75 -1.75,1.75c-0.22238,0 -0.43508,-0.04149 -0.63078,-0.11713c-0.1957,0.07564 -0.40839,0.11713 -0.63077,0.11713c-0.9665,0 -1.75,-0.7835 -1.75,-1.75c0,-0.9665 0.7835,-1.75 1.75,-1.75c0.22238,0 0.43508,0.04149 0.63077,0.11713c0.1957,-0.07564 0.40839,-0.11713 0.63078,-0.11713z" fill="#ff9600" stroke="none" stroke-width="0.5" stroke-linecap="butt"/><path d="M358.81907,97.3276c0,-0.9665 0.7835,-1.75 1.75,-1.75c0.9665,0 1.75,0.7835 1.75,1.75c0,0.9665 -0.7835,1.75 -1.75,1.75c-0.9665,0 -1.75,-0.7835 -1.75,-1.75z" fill="#ff9600" stroke="none" stroke-width="0.5" stroke-linecap="butt"/><path d="M362.28834,96.85451c0,-0.9665 0.7835,-1.75 1.75,-1.75c0.9665,0 1.75,0.7835 1.75,1.75c0,0.9665 -0.7835,1.75 -1.75,1.75c-0.9665,0 -1.75,-0.7835 -1.75,-1.75z" fill="#ff9600" stroke="none" stroke-width="0.5" stroke-linecap="butt"/><path d="M371.51929,106.64053c0,-0.9665 0.7835,-1.75 1.75,-1.75c0.9665,0 1.75,0.7835 1.75,1.75c0,0.9665 -0.7835,1.75 -1.75,1.75c-0.9665,0 -1.75,-0.7835 -1.75,-1.75z" fill="#ffc72e" stroke="none" stroke-width="0.5" stroke-linecap="butt"/><path d="M361.11147,106.32514c0,-0.9665 0.7835,-1.75 1.75,-1.75c0.76257,0 1.41123,0.48775 1.651,1.1683c0.3056,-0.51087 0.8643,-0.85291 1.50288,-0.85291c0.9665,0 1.75,0.7835 1.75,1.75c0,0.9665 -0.7835,1.75 -1.75,1.75c-0.76257,0 -1.41123,-0.48775 -1.651,-1.1683c-0.3056,0.51087 -0.8643,0.85291 -1.50288,0.85291c-0.9665,0 -1.75,-0.7835 -1.75,-1.75z" fill="#ffc72e" stroke="none" stroke-width="0.5" stroke-linecap="butt"/><path d="M352.59599,105.85206c0,-0.9665 0.7835,-1.75 1.75,-1.75c0.08031,0 0.15935,0.0054 0.23678,0.01588c0.28804,-0.20842 0.64206,-0.33127 1.02477,-0.33127c0.9665,0 1.75,0.7835 1.75,1.75c0,0.9665 -0.7835,1.75 -1.75,1.75c-0.08031,0 -0.15935,-0.00541 -0.23678,-0.01588c-0.28804,0.20842 -0.64206,0.33128 -1.02477,0.33128c-0.9665,0 -1.75,-0.7835 -1.75,-1.75z" fill="#ffc72e" stroke="none" stroke-width="0.5" stroke-linecap="butt"/><path d="M346.919,105.37898c0,-0.9665 0.7835,-1.75 1.75,-1.75c0.9665,0 1.75,0.7835 1.75,1.75c0,0.9665 -0.7835,1.75 -1.75,1.75c-0.9665,0 -1.75,-0.7835 -1.75,-1.75z" fill="#ffc72e" stroke="none" stroke-width="0.5" stroke-linecap="butt"/><path d="M337.61504,105.53667c0,-0.9665 0.7835,-1.75 1.75,-1.75c0.9665,0 1.75,0.7835 1.75,1.75c0,0.9665 -0.7835,1.75 -1.75,1.75c-0.9665,0 -1.75,-0.7835 -1.75,-1.75z" fill="#ffc72e" stroke="none" stroke-width="0.5" stroke-linecap="butt"/><path d="M331.14958,105.37898c0,-0.9665 0.7835,-1.75 1.75,-1.75c0.9665,0 1.75,0.7835 1.75,1.75c0,0.9665 -0.7835,1.75 -1.75,1.75c-0.9665,0 -1.75,-0.7835 -1.75,-1.75z" fill="#ffc72e" stroke="none" stroke-width="0.5" stroke-linecap="butt"/><path d="M322.4764,106.16745c0,-0.9665 0.7835,-1.75 1.75,-1.75c0.9665,0 1.75,0.7835 1.75,1.75c0,0.9665 -0.7835,1.75 -1.75,1.75c-0.9665,0 -1.75,-0.7835 -1.75,-1.75z" fill="#ffc72e" stroke="none" stroke-width="0.5" stroke-linecap="butt"/><path d="M304.49926,104.9059c0,-0.9665 0.7835,-1.75 1.75,-1.75c0.9665,0 1.75,0.7835 1.75,1.75c0,0.9665 -0.7835,1.75 -1.75,1.75c-0.9665,0 -1.75,-0.7835 -1.75,-1.75z" fill="#ffc72e" stroke="none" stroke-width="0.5" stroke-linecap="butt"/><path d="M285.89135,106.00976c0,-0.9665 0.7835,-1.75 1.75,-1.75c0.9665,0 1.75,0.7835 1.75,1.75c0,0.9665 -0.7835,1.75 -1.75,1.75c-0.9665,0 -1.75,-0.7835 -1.75,-1.75z" fill="#ffc72e" stroke="none" stroke-width="0.5" stroke-linecap="butt"/><path d="M278.32204,105.53667c0,-0.9665 0.7835,-1.75 1.75,-1.75c0.9665,0 1.75,0.7835 1.75,1.75c0,0.9665 -0.7835,1.75 -1.75,1.75c-0.9665,0 -1.75,-0.7835 -1.75,-1.75z" fill="#ffc72e" stroke="none" stroke-width="0.5" stroke-linecap="butt"/><path d="M268.07192,105.53667c0,-0.9665 0.7835,-1.75 1.75,-1.75c0.9665,0 1.75,0.7835 1.75,1.75c0,0.9665 -0.7835,1.75 -1.75,1.75c-0.9665,0 -1.75,-0.7835 -1.75,-1.75z" fill="#ffc72e" stroke="none" stroke-width="0.5" stroke-linecap="butt"/><path d="M293.30298,106.16745c0,-0.9665 0.7835,-1.75 1.75,-1.75c0.9665,0 1.75,0.7835 1.75,1.75c0,0.9665 -0.7835,1.75 -1.75,1.75c-0.9665,0 -1.75,-0.7835 -1.75,-1.75z" fill="#ffc72e" stroke="none" stroke-width="0.5" stroke-linecap="butt"/><path d="M299.13767,106.79823c0,-0.9665 0.7835,-1.75 1.75,-1.75c0.9665,0 1.75,0.7835 1.75,1.75c0,0.9665 -0.7835,1.75 -1.75,1.75c-0.9665,0 -1.75,-0.7835 -1.75,-1.75z" fill="#ffc72e" stroke="none" stroke-width="0.5" stroke-linecap="butt"/><path d="M308.91471,106.00976c0,-0.9665 0.7835,-1.75 1.75,-1.75c0.9665,0 1.75,0.7835 1.75,1.75c0,0.9665 -0.7835,1.75 -1.75,1.75c-0.9665,0 -1.75,-0.7835 -1.75,-1.75z" fill="#ffc72e" stroke="none" stroke-width="0.5" stroke-linecap="butt"/><path d="M317.58788,105.69437c0,-0.9665 0.7835,-1.75 1.75,-1.75c0.9665,0 1.75,0.7835 1.75,1.75c0,0.9665 -0.7835,1.75 -1.75,1.75c-0.9665,0 -1.75,-0.7835 -1.75,-1.75z" fill="#ffc72e" stroke="none" stroke-width="0.5" stroke-linecap="butt"/><path d="M271.96398,100.83323c0,-0.69036 0.55964,-1.25 1.25,-1.25c0.69036,0 1.25,0.55964 1.25,1.25c0,0.69036 -0.55964,1.25 -1.25,1.25c-0.69036,0 -1.25,-0.55964 -1.25,-1.25z" fill="#ff9600" stroke="none" stroke-width="0.5" stroke-linecap="butt"/><path d="M281.88651,98.96106c0,-0.69036 0.55964,-1.25 1.25,-1.25c0.69036,0 1.25,0.55964 1.25,1.25c0,0.69036 -0.55964,1.25 -1.25,1.25c-0.69036,0 -1.25,-0.55964 -1.25,-1.25z" fill="#ff9600" stroke="none" stroke-width="0.5" stroke-linecap="butt"/><path d="M284.50755,96.52723c0,-0.69036 0.55964,-1.25 1.25,-1.25c0.69036,0 1.25,0.55964 1.25,1.25c0,0.69036 -0.55964,1.25 -1.25,1.25c-0.69036,0 -1.25,-0.55964 -1.25,-1.25z" fill="#ff9600" stroke="none" stroke-width="0.5" stroke-linecap="butt"/><path d="M301.73152,98.3994c0,-0.69036 0.55964,-1.25 1.25,-1.25c0.69036,0 1.25,0.55964 1.25,1.25c0,0.69036 -0.55964,1.25 -1.25,1.25c-0.69036,0 -1.25,-0.55964 -1.25,-1.25z" fill="#ff9600" stroke="none" stroke-width="0.5" stroke-linecap="butt"/><path d="M306.59918,100.27158c0,-0.69036 0.55964,-1.25 1.25,-1.25c0.69036,0 1.25,0.55964 1.25,1.25c0,0.69036 -0.55964,1.25 -1.25,1.25c-0.69036,0 -1.25,-0.55964 -1.25,-1.25z" fill="#ff9600" stroke="none" stroke-width="0.5" stroke-linecap="butt"/><path d="M314.08787,101.02045c0,-0.69036 0.55964,-1.25 1.25,-1.25c0.69036,0 1.25,0.55964 1.25,1.25c0,0.69036 -0.55964,1.25 -1.25,1.25c-0.69036,0 -1.25,-0.55964 -1.25,-1.25z" fill="#ff9600" stroke="none" stroke-width="0.5" stroke-linecap="butt"/><path d="M326.81863,100.64601c0,-0.69036 0.55964,-1.25 1.25,-1.25c0.69036,0 1.25,0.55964 1.25,1.25c0,0.69036 -0.55964,1.25 -1.25,1.25c-0.69036,0 -1.25,-0.55964 -1.25,-1.25z" fill="#ff9600" stroke="none" stroke-width="0.5" stroke-linecap="butt"/><path d="M331.49906,99.33549c0,-0.69036 0.55964,-1.25 1.25,-1.25c0.69036,0 1.25,0.55964 1.25,1.25c0,0.69036 -0.55964,1.25 -1.25,1.25c-0.69036,0 -1.25,-0.55964 -1.25,-1.25z" fill="#ff9600" stroke="none" stroke-width="0.5" stroke-linecap="butt"/><path d="M340.11106,97.08888c0,-0.69036 0.55964,-1.25 1.25,-1.25c0.69036,0 1.25,0.55964 1.25,1.25c0,0.69036 -0.55964,1.25 -1.25,1.25c-0.69036,0 -1.25,-0.55964 -1.25,-1.25z" fill="#ff9600" stroke="none" stroke-width="0.5" stroke-linecap="butt"/><path d="M351.53132,98.21219c0,-0.69036 0.55964,-1.25 1.25,-1.25c0.69036,0 1.25,0.55964 1.25,1.25c0,0.69036 -0.55964,1.25 -1.25,1.25c-0.69036,0 -1.25,-0.55964 -1.25,-1.25z" fill="#ff9600" stroke="none" stroke-width="0.5" stroke-linecap="butt"/><path d="M362.57713,100.83323c0,-0.69036 0.55964,-1.25 1.25,-1.25c0.69036,0 1.25,0.55964 1.25,1.25c0,0.69036 -0.55964,1.25 -1.25,1.25c-0.69036,0 -1.25,-0.55964 -1.25,-1.25z" fill="#ff9600" stroke="none" stroke-width="0.5" stroke-linecap="butt"/><path d="M276.58277,101.95653c0,-0.41421 0.33579,-0.75 0.75,-0.75c0.41421,0 0.75,0.33579 0.75,0.75c0,0.41421 -0.33579,0.75 -0.75,0.75c-0.41421,0 -0.75,-0.33579 -0.75,-0.75z" fill="#ff9600" stroke="none" stroke-width="0.5" stroke-linecap="butt"/><path d="M285.19476,102.14375c0,-0.41421 0.33579,-0.75 0.75,-0.75c0.41421,0 0.75,0.33579 0.75,0.75c0,0.41421 -0.33579,0.75 -0.75,0.75c-0.41421,0 -0.75,-0.33579 -0.75,-0.75z" fill="#ff9600" stroke="none" stroke-width="0.5" stroke-linecap="butt"/><path d="M295.9753,101.39488c0,-0.41421 0.33579,-0.75 0.75,-0.75c0.41421,0 0.75,0.33579 0.75,0.75c0,0.41421 -0.33579,0.75 -0.75,0.75c-0.41421,0 -0.75,-0.33579 -0.75,-0.75z" fill="#ff9600" stroke="none" stroke-width="0.5" stroke-linecap="butt"/><path d="M309.26773,104.39036c0,-0.41421 0.33579,-0.75 0.75,-0.75c0.41421,0 0.75,0.33579 0.75,0.75c0,0.41421 -0.33579,0.75 -0.75,0.75c-0.41421,0 -0.75,-0.33579 -0.75,-0.75z" fill="#ff9600" stroke="none" stroke-width="0.5" stroke-linecap="butt"/><path d="M320.12633,101.5821c0,-0.41421 0.33579,-0.75 0.75,-0.75c0.41421,0 0.75,0.33579 0.75,0.75c0,0.41421 -0.33579,0.75 -0.75,0.75c-0.41421,0 -0.75,-0.33579 -0.75,-0.75z" fill="#ff9600" stroke="none" stroke-width="0.5" stroke-linecap="butt"/><path d="M333.41875,103.8287c0,-0.41421 0.33579,-0.75 0.75,-0.75c0.41421,0 0.75,0.33579 0.75,0.75c0,0.41421 -0.33579,0.75 -0.75,0.75c-0.41421,0 -0.75,-0.33579 -0.75,-0.75z" fill="#ff9600" stroke="none" stroke-width="0.5" stroke-linecap="butt"/><path d="M345.77509,101.76931c0,-0.41421 0.33579,-0.75 0.75,-0.75c0.41421,0 0.75,0.33579 0.75,0.75c0,0.41421 -0.33579,0.75 -0.75,0.75c-0.41421,0 -0.75,-0.33579 -0.75,-0.75z" fill="#ff9600" stroke="none" stroke-width="0.5" stroke-linecap="butt"/><path d="M367.30507,102.89262c0,-0.41421 0.33579,-0.75 0.75,-0.75c0.41421,0 0.75,0.33579 0.75,0.75c0,0.41421 -0.33579,0.75 -0.75,0.75c-0.41421,0 -0.75,-0.33579 -0.75,-0.75z" fill="#ff9600" stroke="none" stroke-width="0.5" stroke-linecap="butt"/><path d="M356.07203,103.8287c0,-0.41421 0.33579,-0.75 0.75,-0.75c0.41421,0 0.75,0.33579 0.75,0.75c0,0.41421 -0.33579,0.75 -0.75,0.75c-0.41421,0 -0.75,-0.33579 -0.75,-0.75z" fill="#ff9600" stroke="none" stroke-width="0.5" stroke-linecap="butt"/></g><g stroke="none" stroke-width="0.5" stroke-linecap="butt"><g><path d="M334.4722,182.05821l2.8944,0.29133c3.6212,1.47393 6.82036,2.63982 8.54442,6.49664c1.61842,3.62049 0.66843,8.56576 -0.00012,12.30659c-1.12125,6.27387 -3.76798,15.42475 -10.6284,17.71789c-2.65788,0.88842 -4.28136,0.51896 -6.9049,0.3042c-10.19121,-2.27993 -20.1835,-7.38321 -24.89733,-17.2572c-3.99973,-8.37817 3.80815,-16.60427 11.6228,-18.30614c-2.2061,-3.87816 -3.33967,-8.54078 1.1089,-11.39042c1.17422,-0.75217 2.65273,-1.1659 4.04397,-1.07107c1.47125,0.10028 2.79658,0.9643 4.1139,1.62711c4.40497,2.21635 7.66149,5.27262 9.94914,9.2814c0.09662,-0.00336 0.15323,-0.00033 0.15323,-0.00033z" fill="#f3ca58"/><path d="M303.83606,185.80287c2.28765,-4.00878 5.54417,-7.06505 9.94914,-9.2814c1.31732,-0.6628 2.64265,-1.52683 4.11389,-1.62711c1.39124,-0.09483 2.86975,0.31889 4.04397,1.07106c4.44857,2.84964 3.315,7.51226 1.1089,11.39043c7.81465,1.70188 15.62253,9.92797 11.6228,18.30614c-4.71384,9.87399 -14.70613,14.97727 -24.89733,17.2572c-2.62353,0.21475 -4.24702,0.58422 -6.9049,-0.3042c-6.86041,-2.29314 -9.50715,-11.44403 -10.6284,-17.71789c-0.66855,-3.74083 -1.61854,-8.6861 -0.00012,-12.30659c1.72406,-3.85682 4.92323,-5.02271 8.54443,-6.49664l2.8944,-0.29133c0,0 0.05661,-0.00303 0.15323,0.00033z" fill="#ff9600"/><path d="M303.64885,186.17731c2.28765,-4.00878 5.54417,-7.06505 9.94914,-9.2814c1.31732,-0.6628 2.64265,-1.52683 4.11389,-1.62711c1.39124,-0.09483 2.86975,0.31889 4.04397,1.07106c4.44857,2.84964 3.31499,7.51226 1.10889,11.39042c7.81465,1.70188 15.62253,9.92798 11.6228,18.30615c-4.71384,9.87399 -14.70613,14.97727 -24.89733,17.2572c-2.62353,0.21475 -4.24702,0.58422 -6.9049,-0.3042c-6.86041,-2.29314 -9.50715,-11.44403 -10.6284,-17.71789c-0.66855,-3.74083 -1.61854,-8.6861 -0.00013,-12.30659c1.72406,-3.85682 4.92323,-5.02271 8.54443,-6.49664l2.89439,-0.29133c0,0 0.05661,-0.00303 0.15323,0.00033z" fill="#f3ca58"/></g><path d="M298.95703,205.7932c0.04491,0.04754 0.08817,0.09764 0.12981,0.15015c4.62828,0.70967 4.41781,8.16046 3.65876,11.11364c-0.69162,2.69087 -1.82569,5.15945 -3.32323,7.33053c-0.50568,1.00602 -1.04825,1.99841 -1.58211,2.98426c-1.98939,3.67368 -4.02698,7.7194 -8.35794,9.24178c-1.44296,0.50721 -3.05957,0.2008 -4.58695,0.12019c-1.50634,-0.07951 -3.22829,0.23453 -4.48549,-0.59904c-0.2724,-0.18061 -0.51706,-0.3826 -0.73604,-0.60312c-0.16806,-0.08604 -0.33506,-0.18127 -0.50087,-0.28625c-2.3368,-1.47955 -3.69128,-4.90946 -3.01248,-7.66786c0.06391,-1.04428 0.42268,-2.18783 0.59169,-3.17049c0.16391,-0.95297 1.80965,-4.21036 2.77588,-5.79197c1.68288,-5.4828 6.37151,-8.89855 11.49472,-11.56747l-0.06529,-0.08705l2.35327,-1.76495c0.42504,-0.58577 0.86296,-1.16209 1.31334,-1.72835c0,0 1.56174,-1.95217 3.51391,-0.39043c1.16563,0.93251 1.07848,2.00421 0.81902,2.71643z" fill="#f3ca58"/><path d="M338.30133,202.88956c1.95217,-1.56174 3.51391,0.39043 3.51391,0.39043c0.45038,0.56626 0.8883,1.14258 1.31334,1.72835l2.35326,1.76495l-0.06528,0.08704c5.12322,2.66893 9.81183,6.08468 11.49472,11.56748c0.96623,1.58161 2.61197,4.839 2.77587,5.79197c0.16901,0.98265 0.52779,2.1262 0.59169,3.17049c0.6788,2.75841 -0.67568,6.18832 -3.01247,7.66787c-0.16581,0.10498 -0.33282,0.20021 -0.50087,0.28625c-0.21898,0.22052 -0.46364,0.42251 -0.73604,0.60312c-1.2572,0.83357 -2.97914,0.51953 -4.48548,0.59904c-1.52738,0.08061 -3.144,0.38703 -4.58696,-0.12018c-4.33096,-1.52238 -6.36854,-5.5681 -8.35793,-9.24178c-0.53386,-0.98585 -1.07644,-1.97825 -1.58211,-2.98427c-1.49755,-2.17108 -2.63162,-4.63966 -3.32324,-7.33052c-0.75905,-2.95319 -0.96952,-10.40397 3.65876,-11.11364c0.04164,-0.05251 0.0849,-0.10262 0.12982,-0.15016c-0.25945,-0.71221 -0.34661,-1.78392 0.81903,-2.71642z" fill="#f3ca58"/></g></g></g></g></svg>