<svg version="1.1" xmlns="http://www.w3.org/2000/svg" xmlns:xlink="http://www.w3.org/1999/xlink" width="215.06855" height="296.44033" viewBox="0,0,215.06855,296.44033"><defs><linearGradient x1="253.51089" y1="211.57015" x2="253.51089" y2="303.97715" gradientUnits="userSpaceOnUse" id="color-1"><stop offset="0" stop-color="#7c3116"/><stop offset="1" stop-color="#ab4a1e"/></linearGradient><linearGradient x1="389.53205" y1="211.57015" x2="389.53205" y2="303.97715" gradientUnits="userSpaceOnUse" id="color-2"><stop offset="0" stop-color="#7c3116"/><stop offset="1" stop-color="#ab4a1e"/></linearGradient><linearGradient x1="233.58181" y1="211.57014" x2="233.58181" y2="334.32784" gradientUnits="userSpaceOnUse" id="color-3"><stop offset="0" stop-color="#7c3116"/><stop offset="1" stop-color="#ab4a1e"/></linearGradient><linearGradient x1="408.31518" y1="211.57015" x2="408.31518" y2="334.32784" gradientUnits="userSpaceOnUse" id="color-4"><stop offset="0" stop-color="#7c3116"/><stop offset="1" stop-color="#ab4a1e"/></linearGradient><linearGradient x1="364.60467" y1="116.92351" x2="364.60467" y2="125.59513" gradientUnits="userSpaceOnUse" id="color-5"><stop offset="0" stop-color="#a59e8e"/><stop offset="1" stop-color="#aaa292"/></linearGradient><linearGradient x1="364.60467" y1="129.11798" x2="364.60467" y2="137.78961" gradientUnits="userSpaceOnUse" id="color-6"><stop offset="0" stop-color="#a59e8e"/><stop offset="1" stop-color="#aaa292"/></linearGradient></defs><g transform="translate(-212.63712,-38.88751)"><g stroke-miterlimit="10"><path d="M214.52365,306.61252v-267.72501h213.18203v267.72501z" fill="none" stroke="none" stroke-width="0" stroke-linecap="butt"/><path d="M298.57192,68.23247c-2.50352,-0.75106 -4.58732,-2.53442 -3.51482,-5.09648c1.0725,-2.56206 1.68379,-3.95868 6.67816,-2.46037c4.99437,1.49831 10.89593,7.7326 10.89593,7.7326c0,0 -11.55575,0.5753 -14.05927,-0.17575z" fill="#1c66ff" stroke="#000000" stroke-width="1" stroke-linecap="round"/><path d="M338.45848,181.4817c0.74999,0.00418 0.74581,0.75417 0.74581,0.75417l-0.00814,1.46102c-0.11987,9.52776 -8.82394,15.60647 -15.45445,21.34607c-8.08195,5.72539 -16.66397,14.79315 -26.94308,14.79315c-6.37581,0 -12.61726,-0.0549 -18.96597,-0.65384c-4.51772,-0.4262 -7.61587,-0.64469 -11.47758,-3.11824c-1.94173,-3.81196 -2.02153,-7.73198 -1.24603,-11.64295c-1.64443,3.71149 -3.28798,7.42335 -4.93232,11.13487c-1.30809,2.95254 -0.49984,4.37804 0.61255,7.35771c0.25293,0.67751 0.70851,3.06297 1.24534,3.51164c1.19873,1.00187 3.81591,1.53707 5.28094,2.15281c3.68755,1.54984 7.37509,3.09968 11.06264,4.64952c2.96819,1.2475 6.07492,0.6476 9.27591,0.51423c3.8942,-0.16226 8.05892,0.07894 11.91084,-0.49211c2.88175,-0.42722 5.81329,-1.5055 8.6366,-2.23458c1.90138,-0.491 5.20305,-0.67811 6.83091,-1.73145c1.78836,-1.15719 3.42668,-3.82631 4.8699,-5.4181c3.69429,-4.07459 7.38858,-8.14916 11.08287,-12.22375c3.89976,-4.30121 6.15544,-10.22515 8.83446,-15.36892c0.71226,-1.36756 3.00599,-4.2739 3.04345,-5.76288c0.04759,-1.89105 -0.88142,-3.34619 -1.79264,-4.8995c-0.1621,-0.24516 -0.32419,-0.49032 -0.48629,-0.73548l-0.4923,-0.48713c0,0 -0.53033,-0.53033 0,-1.06066c0.53033,-0.53033 1.06066,0 1.06066,0l0.59165,0.59682c0.19922,0.29682 0.39844,0.59364 0.59766,0.89046c1.08582,1.84899 2.17019,3.67525 2.00119,5.94004c-0.13654,1.82987 -2.34177,4.57685 -3.193,6.21124c-2.74253,5.2657 -5.05949,11.27831 -9.05358,15.68356c-3.69429,4.07459 -7.38858,8.14916 -11.08287,12.22375c-1.54199,1.70072 -3.27425,4.46825 -5.20543,5.6944c-1.80585,1.14658 -5.15307,1.36321 -7.23158,1.89996c-2.87541,0.74253 -5.85608,1.8308 -8.79167,2.26601c-3.9061,0.57908 -8.12018,0.34251 -12.06836,0.50702c-3.44177,0.14341 -6.71131,0.7183 -9.91955,-0.63009c-3.68754,-1.54984 -7.37509,-3.09968 -11.06264,-4.64952c-1.62132,-0.68142 -4.49014,-1.31558 -5.7817,-2.49671c-0.1374,-0.12565 -1.02181,-2.56118 -1.04403,-2.62069c-1.3723,-3.67587 -2.77013,-6.133 -1.10334,-9.89519c3.55629,-8.02706 7.10889,-16.05576 10.67462,-24.07864c0,0 0.24598,-0.55346 0.79321,-0.44461c0.11921,-0.02356 0.2606,-0.01524 0.42648,0.04697c0.70225,0.26334 0.4389,0.96559 0.4389,0.96559c-1.82454,4.86544 -3.84145,9.79644 -4.83031,14.89879c-0.34751,1.79312 -0.8234,3.69176 -0.33681,5.5215c0.2883,1.0841 1.06199,2.15994 1.50035,3.20454c3.5639,2.07692 6.38022,2.23758 10.50181,2.62641c6.30212,0.59454 12.49577,0.64721 18.82509,0.64721c6.41884,0 10.01033,-2.98365 15.0432,-6.67786c3.61641,-2.65451 7.31063,-5.20697 10.9744,-7.79573c6.22769,-5.4041 14.76716,-11.21516 14.88,-20.17924l0.00811,-1.45575c0,0 0.00417,-0.74999 0.75417,-0.74581z" fill="#000000" stroke="none" stroke-width="0.5" stroke-linecap="butt"/><path d="M339.1162,296.93773c-0.61998,-0.42206 -0.19792,-1.04203 -0.19792,-1.04203l0.55957,-0.82198c1.13454,-1.66629 2.33933,-3.27978 3.5316,-4.90509c6.44455,-7.93514 13.88047,-14.97726 20.44162,-22.85064c2.97866,-3.5744 4.1909,-7.12628 5.80037,-11.48133c0.95942,-2.59608 2.11714,-4.60666 0.3473,-7.21188c-1.4588,-2.14737 -4.68652,-4.049 -6.65894,-5.76691c-2.81071,-2.45505 -6.97053,-6.54648 -8.62734,-9.88956c-2.73219,-5.51299 -1.47622,-12.20333 0.26096,-17.71249c1.94089,-3.8967 4.18492,-7.58178 7.01242,-10.90931c2.70542,-3.18385 6.01932,-5.94735 8.51605,-9.28639c0,0 0.45,-0.6 1.05,-0.15c0.6,0.45 0.15,1.05 0.15,1.05c-5.16211,6.86363 -11.39388,12.00255 -15.33759,19.85736c-1.59246,5.10697 -2.84573,11.36511 -0.30761,16.48524c1.564,3.15504 5.60086,7.10796 8.26828,9.42404c2.08008,1.81168 5.3701,3.78173 6.91453,6.05514c2.04622,3.01206 0.93882,5.54448 -0.18106,8.57476c-1.66595,4.50786 -2.96257,8.21068 -6.05503,11.92164c-6.54926,7.85912 -13.97096,14.88968 -20.4067,22.8071c-1.17407,1.60152 -2.36147,3.19074 -3.4789,4.83245l-0.55957,0.82198c0,0 -0.42206,0.61997 -1.04203,0.19792z" fill="#000000" stroke="none" stroke-width="0.5" stroke-linecap="butt"/><path d="M248.81918,303.97715v-92.407h9.3835v92.407z" fill="url(#color-1)" stroke="#000000" stroke-width="2" stroke-linecap="butt"/><path d="M384.8403,303.97715v-92.407h9.38349v92.407z" fill="url(#color-2)" stroke="#000000" stroke-width="2" stroke-linecap="butt"/><path d="M227.34909,334.32784v-122.75769h12.46546v122.75769z" fill="url(#color-3)" stroke="#000000" stroke-width="2" stroke-linecap="butt"/><path d="M402.08245,334.32784v-122.75769h12.46546v122.75769z" fill="url(#color-4)" stroke="#000000" stroke-width="2" stroke-linecap="butt"/><path d="M390.56632,196.39479l35.79662,6.7747v11.11052h-212.72581v-11.11052l38.43736,-6.7747z" fill="#ab4a1e" stroke="#000000" stroke-width="2" stroke-linecap="round"/><path d="" fill="none" stroke="#000000" stroke-width="2" stroke-linecap="round"/><g><path d="M313.1584,68.23248l-5.79945,16.3439" fill="none" stroke="#000000" stroke-width="1" stroke-linecap="round"/><path d="M323.60947,68.43913c1.91238,0.57372 3.50414,1.93598 2.68489,3.89308c-0.81926,1.9571 -1.2862,3.02395 -5.10128,1.87942c-3.81509,-1.14452 -8.32315,-5.90675 -8.32315,-5.90675c0,0 8.82716,-0.43947 10.73954,0.13425z" fill="#1c66ff" stroke="#000000" stroke-width="1" stroke-linecap="round"/><path d="M269.04747,111.99195c0,0 0.18644,-38.48829 34.97243,-33.56651c47.47773,6.71751 22.31909,40.94763 22.31909,40.94763z" fill="#d02727" stroke="#000000" stroke-width="2" stroke-linecap="round"/><path d="M317.90342,82.46748c0,0 12.03945,3.47619 14.15396,12.80763c2.11452,9.33144 -5.36692,23.92222 -5.36692,23.92222l-20.38594,-2.63611l11.5989,-34.09373z" fill="#1d24ff" stroke="none" stroke-width="0" stroke-linecap="round"/><path d="M288.73044,79.65564c0,0 9.20764,-2.24392 13.93771,-1.76242c5.03391,0.51244 15.41101,4.75002 15.41101,4.75002l-12.12612,34.4452l-32.33632,-8.43556l15.11371,-28.99724z" fill="#ffd71b" stroke="none" stroke-width="0" stroke-linecap="round"/><path d="M269.04747,111.99195c0,0 0.18644,-38.48829 34.97243,-33.56651c47.47773,6.71751 22.31909,40.94763 22.31909,40.94763z" fill="none" stroke="#000000" stroke-width="2" stroke-linecap="round"/><path d="M254.46101,117.61566c0,0 4.19243,-12.74201 11.95038,-11.95038c7.75794,0.79162 16.87196,8.55536 29.87595,11.42316c13.00399,2.8678 16.3439,-1.23019 16.3439,-1.23019" fill="#094c00" stroke="#000000" stroke-width="2" stroke-linecap="round"/><path d="M252.00901,199.30395v-82.38044h82.38044v82.38044z" fill="#e6dfd1" stroke="#000000" stroke-width="2" stroke-linecap="butt"/><path d="M256.34484,189.00639v-67.74707h73.43782v67.74707z" fill="#000000" stroke="#000000" stroke-width="1" stroke-linecap="butt"/><path d="M267.99303,105.84102l44.2867,9.66575c0,0 -4.07606,2.72897 -7.02963,2.81185c-8.86197,0.24865 -37.25706,-12.4776 -37.25706,-12.4776z" fill="#2dc539" stroke="#000000" stroke-width="0" stroke-linecap="round"/><path d="M254.63671,116.9127c0,0 4.01669,-12.03904 11.77464,-11.24742c7.75794,0.79162 16.87196,8.55536 29.87595,11.42316c13.00399,2.8678 16.3439,-1.23019 16.3439,-1.23019" fill="none" stroke="#000000" stroke-width="2" stroke-linecap="round"/></g><g><path d="M336.55739,199.03296v-98.63974h55.28161v98.63974z" fill="#e6dfd1" stroke="#000000" stroke-width="2" stroke-linecap="butt"/><path d="M341.16414,147.81617v-35.49946h46.339v35.49947z" fill="#cfc5b1" stroke="none" stroke-width="0" stroke-linecap="butt"/><path d="M343.60308,125.59513v-8.67162h42.00319v8.67162z" fill="url(#color-5)" stroke="none" stroke-width="0" stroke-linecap="butt"/><path d="M343.60308,137.78961v-8.67163h42.00319v8.67163z" fill="url(#color-6)" stroke="none" stroke-width="0" stroke-linecap="butt"/><path d="M345.56296,144.02234c0,-0.41422 0.33578,-0.75 0.75,-0.75c0.41422,0 0.75,0.33578 0.75,0.75c0,0.41422 -0.33578,0.75 -0.75,0.75c-0.41422,0 -0.75,-0.33578 -0.75,-0.75z" fill="#000000" stroke="none" stroke-width="0.5" stroke-linecap="butt"/><path d="M349.29383,143.75134h5.96174" fill="none" stroke="#000000" stroke-width="1" stroke-linecap="round"/></g><text transform="translate(273.44097,146.12629) scale(0.5,0.5)" font-size="40" xml:space="preserve" fill="#ff0000" stroke="none" stroke-width="1" stroke-linecap="butt" font-family="Pixel" font-weight="normal" text-anchor="start"><tspan x="0" dy="0">F</tspan></text><text transform="translate(286.09431,146.1263) scale(0.5,0.5)" font-size="40" xml:space="preserve" fill="#ff8800" stroke="none" stroke-width="1" stroke-linecap="butt" font-family="Pixel" font-weight="normal" text-anchor="start"><tspan x="0" dy="0">U</tspan></text><text transform="translate(301.20802,146.1263) scale(0.5,0.5)" font-size="40" xml:space="preserve" fill="#fff700" stroke="none" stroke-width="1" stroke-linecap="butt" font-family="Pixel" font-weight="normal" text-anchor="start"><tspan x="0" dy="0">N</tspan></text><g fill="none" stroke-opacity="0.3451" stroke="#000000" stroke-width="1" stroke-linecap="round"><path d="M256.56985,185.21386h72.40524"/><path d="M256.56985,177.65701h72.75671"/><path d="M328.97511,170.80311h-72.40524"/><path d="M329.32656,163.24626h-72.75671"/><path d="M256.56985,156.39236h72.40524"/><path d="M329.32656,148.83551h-72.75671"/><path d="M328.97511,141.98161h-72.40524"/><path d="M256.56985,134.42476h72.75671"/><path d="M256.56985,126.51642h72.75671"/></g></g></g></svg>