<svg version="1.1" xmlns="http://www.w3.org/2000/svg" xmlns:xlink="http://www.w3.org/1999/xlink" width="268.65577" height="267.72501" viewBox="0,0,268.65577,267.72501"><g transform="translate(-175.70666,-31.19978)"><g stroke-miterlimit="10"><path d="M190.1791,298.92479v-267.72501h254.18333v267.72501z" fill="none" stroke="none" stroke-width="0" stroke-linecap="butt"/><path d="" fill="none" stroke="#000000" stroke-width="2" stroke-linecap="round"/><g><g stroke="#000000"><path d="M283.61215,229.62884l50.09098,-8.92898l-17.20834,52.02147z" fill="#ff6300" stroke-width="5" stroke-linecap="round"/><path d="M237.24395,200.66261l42.20357,28.41992l-48.54397,25.41345z" fill="#ff6300" stroke-width="5" stroke-linecap="round"/><path d="M222.88926,150.44276l10.6493,49.75365l-52.58341,-15.406z" fill="#ff6300" stroke-width="5" stroke-linecap="round"/><path d="M253.4385,105.99435l-29.73316,41.28888l-23.87416,-49.31922z" fill="#ff6300" stroke-width="5" stroke-linecap="round"/><path d="M309.8466,91.18912l-50.22017,8.17113l17.99238,-51.75553z" fill="#ff6300" stroke-width="5" stroke-linecap="round"/><path d="M360.21417,122.73593l-41.28887,-29.73316l49.31922,-23.87416z" fill="#ff6300" stroke-width="5" stroke-linecap="round"/><path d="M369.1341,174.23432l-8.17112,-50.22017l51.75554,17.99238z" fill="#ff6300" stroke-width="5" stroke-linecap="round"/><path d="M337.68431,218.20482l29.73316,-41.28888l23.87416,49.31922z" fill="#ff6300" stroke-width="5" stroke-linecap="round"/><path d="M222.17285,172.85656c-6.73053,-38.50302 21.06499,-75.52845 62.08301,-82.69863c41.01805,-7.17018 79.7259,18.23012 86.45643,56.73314c6.73053,38.50302 -21.06498,75.52846 -62.08301,82.69864c-41.01803,7.17017 -79.7259,-18.23013 -86.45643,-56.73315z" fill="#ffe63c" stroke-width="5" stroke-linecap="butt"/><path d="M283.61216,229.62884l50.09097,-8.92898l-17.20833,52.02148z" fill="#ff6300" stroke-width="0" stroke-linecap="round"/><path d="M237.24396,200.66261l42.20357,28.41992l-48.54397,25.41345z" fill="#ff6300" stroke-width="0" stroke-linecap="round"/><path d="M222.88926,150.44275l10.64929,49.75365l-52.58341,-15.406z" fill="#ff6300" stroke-width="0" stroke-linecap="round"/><path d="M253.4385,105.99435l-29.73316,41.28888l-23.87416,-49.31922z" fill="#ff6300" stroke-width="0" stroke-linecap="round"/><path d="M309.8466,91.18912l-50.22017,8.17112l17.99238,-51.75553z" fill="#ff6300" stroke-width="0" stroke-linecap="round"/><path d="M360.21417,122.73593l-41.28888,-29.73316l49.31922,-23.87416z" fill="#ff6300" stroke-width="0" stroke-linecap="round"/><path d="M369.13409,174.23431l-8.17112,-50.22017l51.75554,17.99238z" fill="#ff6300" stroke-width="0" stroke-linecap="round"/><path d="M337.68431,218.20481l29.73316,-41.28888l23.87416,49.31922z" fill="#ff6300" stroke-width="0" stroke-linecap="round"/><path d="M222.17285,172.85656c-6.73053,-38.50302 21.06499,-75.52845 62.08301,-82.69863c41.01805,-7.17018 79.7259,18.23012 86.45643,56.73314c6.73053,38.50302 -21.06498,75.52846 -62.08301,82.69864c-41.01803,7.17017 -79.7259,-18.23013 -86.45643,-56.73315z" fill="#ffe63c" stroke-width="0" stroke-linecap="butt"/></g><path d="M255.70288,155.92333c-1.05306,-6.02424 2.97686,-11.76152 9.00109,-12.81458c6.02424,-1.05306 11.76152,2.97686 12.81458,9.00109c1.05306,6.02424 -4.23641,8.03209 -10.26064,9.08517c-6.02424,1.05306 -10.50197,0.75257 -11.55504,-5.27166z" fill="#000000" stroke="none" stroke-width="NaN" stroke-linecap="butt"/><path d="M324.01719,151.88081c-6.02424,1.05306 -11.78427,0.36908 -12.83734,-5.65515c-1.05306,-6.02424 2.97686,-11.76152 9.00109,-12.81458c6.02424,-1.05306 11.76152,2.97686 12.81458,9.00109c1.05306,6.02424 -2.95411,8.41558 -8.97834,9.46865z" fill="#000000" stroke="none" stroke-width="NaN" stroke-linecap="butt"/><path d="M327.94806,209.44284c0,0 -7.08417,12.02378 -18.807,14.07299c-11.72284,2.04921 -23.64512,-6.65213 -23.64512,-6.65213c0,0 10.67965,1.59262 22.40248,-0.45659c11.72284,-2.04921 20.04964,-6.96426 20.04964,-6.96426z" fill="#000000" stroke="#000000" stroke-width="1.5" stroke-linecap="butt"/></g></g></g></svg>