<svg version="1.1" xmlns="http://www.w3.org/2000/svg" xmlns:xlink="http://www.w3.org/1999/xlink" width="213.22637" height="287.86249" viewBox="0,0,213.22637,287.86249"><g transform="translate(-214.52362,-38.88751)"><g stroke-miterlimit="10"><path d="M367.41667,326.08333l-92.33333,0.66667l17,-114l-27.66667,-15.33333l-12.66667,-35.33333l-33,-0.66667l-0.66667,-12.66667l2.66667,-1.33333l-5.66667,-4l2.5,-14.66667l27.83333,7.33333l6.25,-37.75l44.25,-26.08333l66,2l29.83333,60.16667l6.41667,-11.66667l29.58333,7.08333l-17.41667,32.5l-13.83333,-3.5l-14.08333,36.58333l-29.66667,12.66667z" fill="#ffffff" stroke="#000000" stroke-width="0" stroke-linecap="round"/><path d="M214.52362,306.61252v-267.72501h213.18203v267.72501z" fill="none" stroke="none" stroke-width="0" stroke-linecap="butt"/><path d="M260.08333,144.83333h158.91667" fill="none" stroke="#99d9ea" stroke-width="1" stroke-linecap="round"/><path d="M257.75,158.5h153.66667" fill="none" stroke="#99d9ea" stroke-width="1" stroke-linecap="round"/><path d="M255.75,96.75v74.25" fill="none" stroke="#fd0006" stroke-width="1.5" stroke-linecap="round"/><path d="M352.92464,305.17956c0.2173,1.4385 0.46452,2.87349 0.73075,4.30435c0.00745,0.09181 0.02221,0.18481 0.02977,0.27673c0.06171,0.75051 0.84967,4.37139 0.51326,5.27939c-0.0815,-1.25186 -0.26737,-2.45929 -0.37147,-2.99999c-0.43023,-2.23476 -0.70393,-4.59267 -0.90231,-6.86048z" fill="#ffffff" stroke="none" stroke-width="0.5" stroke-linecap="butt"/><path d="M343.57334,211.89322c0.68046,3.18462 1.60158,6.40122 1.89366,9.5575c0.38934,4.20723 0.31212,8.41505 0.83859,12.6286c1.11937,8.95876 0.85126,18.15186 1.95262,27.09062c-0.19058,-0.86255 -0.40378,-1.82323 -0.62452,-2.68262c-0.32776,-8.74565 -0.6937,-17.20254 -2.06052,-25.94532c-0.62867,-5.30063 -0.94403,-10.63838 -1.57786,-15.93098c-0.01171,-0.09778 -0.03318,-0.29499 -0.04517,-0.39257c-0.05561,-1.20303 -0.13603,-2.30259 -0.2767,-3.49473c-0.02879,-0.24393 -0.06848,-0.58712 -0.10008,-0.83051z" fill="#ffffff" stroke="none" stroke-width="0.5" stroke-linecap="butt"/><path d="M343.90265,231.09572c0.05599,0.51727 0.11459,1.03423 0.17595,1.55087c0.98915,6.33408 1.46447,12.6677 1.77062,18.94815c-0.74622,-3.08372 -1.43436,-6.21179 -1.79938,-9.28991c-0.42915,-3.61889 -0.25136,-7.49333 -0.14719,-11.2091z" fill="#ffffff" stroke="none" stroke-width="0.5" stroke-linecap="butt"/><path d="M352.13355,288.41331c-0.68547,-4.39457 -1.16158,-8.89747 -1.68076,-13.28772c0.6125,4.0498 1.17782,8.2101 1.60593,12.26232c0.03614,0.34213 0.0594,0.68393 0.07483,1.0254z" fill="#ffffff" stroke="none" stroke-width="0.5" stroke-linecap="butt"/><path d="M287.62464,316.5394c1.60391,0.23842 4.44262,-0.0834 5.2766,-0.0834c7.48554,0 14.97141,-0.0049 22.45695,-0.0049c10.37252,0 20.84467,0.00486 31.21718,0.00486c1.97093,0 3.9794,0.09557 5.95788,0.03879c0.0009,0.02437 0.00182,0.0489 0.00276,0.07338c0.01279,0.33427 0.40497,0.76062 0.16314,0.99175c-0.13878,0.13263 -3.60494,-0.20805 -3.98181,-0.20805c-10.49277,0 -21.08522,0.00493 -31.57799,0.00493c-9.87214,0 -19.75195,-0.11665 -29.62324,0.00972c0.03782,-0.27522 0.07396,-0.55176 0.10854,-0.82709z" fill="#ffffff" stroke="none" stroke-width="0.5" stroke-linecap="butt"/><path d="M288.69204,300.54537c0.18464,-3.67204 0.46663,-7.44026 1.07672,-11.09671c-0.22184,3.10014 -0.33277,6.29754 -0.80751,9.37383c-0.08864,0.57439 -0.17949,1.14857 -0.26921,1.72287z" fill="#ffffff" stroke="none" stroke-width="0.5" stroke-linecap="butt"/><path d="M286.35488,318.29884c-0.25513,0 -0.51144,-0.00013 -0.76657,-0.00013l-0.00055,-0.02116c-0.09442,-0.46584 -0.18956,-0.93178 -0.28397,-1.39762c0.03757,-10.25792 1.39354,-20.62329 2.93843,-30.75086c1.5475,-10.14472 3.47267,-20.27978 5.24723,-30.38709c0.07853,-0.44731 0.15568,-0.89492 0.23142,-1.34283c-0.08182,0.82663 -0.18793,1.74766 -0.29505,2.56377c-1.33877,10.19951 -2.74256,20.26227 -4.76029,30.3509c-1.34909,6.7543 -1.23526,13.42018 -1.85031,20.20998c-0.31784,3.50882 -0.71331,7.15043 -0.45947,10.67167c0.00299,0.00128 -0.00387,0.10208 -0.00088,0.10337z" fill="#ffffff" stroke="none" stroke-width="0.5" stroke-linecap="butt"/><path d="M295.69551,247.22337c0.16107,-3.35996 0.24441,-6.78645 0.53187,-10.12517c0.4774,-3.31432 1.03526,-6.68157 1.62135,-9.97057c0.03309,-0.1291 0.06706,-0.25796 0.10134,-0.38664c-0.49721,6.83234 -1.35842,13.71592 -2.25456,20.48238z" fill="#ffffff" stroke="none" stroke-width="0.5" stroke-linecap="butt"/><path d="" fill="none" stroke="#000000" stroke-width="2" stroke-linecap="round"/><path d="" fill="#000000" stroke="none" stroke-width="0.5" stroke-linecap="butt"/><path d="M223.63024,149.49493c-0.04097,-0.74888 0.70791,-0.78985 0.70791,-0.78985l0.73348,-0.03043c2.04109,-0.82539 4.01303,-1.63473 5.9661,-2.36221c-0.31115,-0.03588 -0.62221,-0.07377 -0.93317,-0.11377c-0.33912,-0.04661 -0.67825,-0.0932 -1.01739,-0.13981l-0.08197,-0.07363l-0.01681,0.03879l-0.86134,-0.37334c-0.25987,-0.10622 -0.44916,-0.35469 -0.46552,-0.65364c-0.02263,-0.4136 0.29431,-0.76722 0.70791,-0.78985c0.02392,-0.00131 0.04763,-0.00147 0.0711,-0.00056l0.2192,0.00625c-0.34506,-0.15356 -0.72487,-0.32758 -1.11429,-0.51917c-1.25039,-0.46738 -2.44533,-1.00053 -3.49114,-1.67326l-0.02795,-0.04435l-0.0111,0.01287l-1.04156,-0.89871c-0.14939,-0.12851 -0.24823,-0.31535 -0.25984,-0.52766c-0.02263,-0.4136 0.29431,-0.76722 0.70791,-0.78985c0.14534,-0.00795 0.28327,0.02603 0.40203,0.0914l1.31557,0.69459l-0.10106,0.1914c1.3122,0.51896 2.43595,1.18922 3.72841,1.83539c0.95171,0.33032 1.93251,0.62708 2.8888,0.92434c0.41291,0.06766 0.80349,0.15857 1.10696,0.35083c0.39659,0.12929 0.78489,0.26109 1.16076,0.39805c0.85302,-0.00957 1.71006,-0.02117 2.57225,-0.06833c5.82828,-0.31883 11.65655,-0.63765 17.48484,-0.95648l0.42646,-0.02333c0,0 0.74888,-0.04097 0.78985,0.70791c0.04097,0.74888 -0.70791,0.78985 -0.70791,0.78985c-3.93592,0.21531 -8.29829,0.45394 -12.23421,0.66925c4.65118,-0.02468 9.3103,-0.3006 13.95143,-0.55449c0,0 0.74888,-0.04097 0.78985,0.70791c0.04097,0.74888 -0.70791,0.78985 -0.70791,0.78985c-7.8617,0.43006 -15.75243,0.89265 -23.59012,0.16417c-0.24576,0.50762 -0.54056,0.94074 -0.81115,1.0899c-0.76112,0.41956 -1.79385,0.1323 -2.54394,0.57128c-1.35726,0.7943 -2.45693,1.4148 -3.95025,1.99371l-0.97235,0.06288c0,0 -0.74888,0.04097 -0.78985,-0.70791z" fill="#000000" stroke="none" stroke-width="0.5" stroke-linecap="butt"/><path d="M411.87327,140.53241c0.2088,-1.81788 1.09631,-4.86952 2.44836,-6.57091c-0.32462,0.07299 -0.65441,0.15053 -0.92793,0.13234c-1.53187,-0.10185 -3.00498,-0.34514 -4.51915,-0.59148c-0.59092,-0.09613 -1.18184,-0.19229 -1.77278,-0.28842c0.05266,0.36984 0.10448,0.73981 0.15558,1.10987c0.32109,2.32526 0.64217,4.65049 0.96326,6.97575c0.04129,0.64108 0.4202,1.35416 0.13245,1.92508c0.20398,2.17229 0.36289,4.32602 0.59432,6.34231c0.20748,-0.53567 0.47662,-1.06918 0.68307,-1.67399c0.26647,-0.78066 0.52045,-1.56645 0.77251,-2.35294c0.3382,-1.65795 1.02213,-3.09741 1.47032,-5.00761zM406.80508,131.19879c-0.15478,0.01686 0.01156,0.28053 0.06485,0.45771c0.7485,0.12178 1.497,0.24355 2.2455,0.36533c0.26827,0.04365 0.65716,0.07506 1.12114,0.10526c-1.23867,-0.49388 -2.68853,-1.00922 -3.43149,-0.9283zM402.93482,144.71169c-3.80054,1.35148 -7.60336,1.16325 -11.47848,1.17546c-1.89043,0.26039 -3.78086,0.52074 -5.67119,0.78177c0,0 -0.74295,0.10259 -0.84554,-0.64036c-0.05606,-0.40598 0.14036,-0.62075 0.33007,-0.73206c0.01203,-0.00706 0.02402,-0.01369 0.03593,-0.01994c0.08556,-0.49863 0.63903,-0.57506 0.63903,-0.57506c1.76624,-0.24262 3.51288,-0.28861 5.24498,-0.29436c3.56117,-0.49292 7.12235,-0.98578 10.68415,-1.47408c0.32513,-0.04457 2.45897,0.06491 3.65147,0.06629c0.36062,-0.05368 0.6753,-0.14216 0.90236,-0.2975c0.0106,-0.03766 0.01903,-0.0758 0.02551,-0.11434c-0.05256,-0.3806 -0.10511,-0.7612 -0.15767,-1.1418c-0.09061,-0.32485 -0.18329,-0.65234 -0.18704,-0.96472c-0.15412,-1.18906 -0.30545,-2.37849 -0.459,-3.56762c-0.19662,-1.02407 -0.48344,-2.11713 -0.40973,-3.1071c-0.03174,-0.23398 -0.06375,-0.46793 -0.09605,-0.70184l-0.20418,-1.47863c-0.04993,-0.36162 0.16681,-0.69856 0.49984,-0.81224c0.07964,-0.38452 0.25199,-0.71048 0.57905,-0.89191c1.64512,-0.91259 6.20382,1.53184 7.77205,2.08968c0.81709,0.29065 2.17339,-0.48671 2.5871,0.27549c0.13477,0.24832 0.10983,0.51603 0.0129,0.79043c0.32759,0.17251 0.56888,0.38011 0.6887,0.6313c0.2893,0.60647 -2.18849,4.15868 -2.47634,4.76106c-1.25288,2.62186 -1.96902,5.51086 -2.92989,8.27024c0.09408,0.73398 0.22265,1.53502 0.08635,1.93096c-0.22416,0.65121 -1.16648,2.30002 -2.18096,3.17032l-0.35304,0.72941c-0.104,0.22309 -0.31558,0.39049 -0.57756,0.42666c-0.41033,0.05666 -0.78888,-0.23003 -0.84554,-0.64036c-0.01561,-0.11308 -0.03167,-0.22934 -0.04812,-0.34849c-0.68669,-1.0836 -1.01761,-4.24949 -1.13445,-5.09315l-0.05842,-0.42309c0,0 -0.07048,-0.51044 0.32848,-0.74355c-0.07021,-0.50847 -0.13644,-0.98808 -0.19621,-1.42089c-0.48102,0.11931 -1.10136,0.14826 -1.73927,0.14236c-0.77512,0.03729 -1.51224,0.06133 -2.01929,0.24165z" fill="#000000" stroke="none" stroke-width="0.5" stroke-linecap="butt"/><path d="M411.33211,142.95801c-0.45549,-0.09338 -0.84273,-0.1667 -1.10251,-0.24663c-0.72481,-0.22302 -1.53897,-0.48339 -2.26378,-0.7064c-0.02855,-0.18281 -0.15364,-0.47947 0.00198,-0.475c0.74705,0.02147 2.20483,0.76937 3.3643,1.42804z" fill="#ffffff" stroke="none" stroke-width="0.5" stroke-linecap="butt"/><path d="M260.41667,102.16667h107.33333" fill="none" stroke="#99d9ea" stroke-width="1" stroke-linecap="round"/><path d="M386.83333,126.83333h-129.08333" fill="none" stroke="#99d9ea" stroke-width="1" stroke-linecap="round"/><path d="M259.75,174.16667h129.66667" fill="none" stroke="#99d9ea" stroke-width="1" stroke-linecap="round"/><path d="M262.41667,189.16667h122" fill="none" stroke="#99d9ea" stroke-width="1" stroke-linecap="round"/><path d="M280.58333,205.5h76.16667" fill="none" stroke="#99d9ea" stroke-width="1" stroke-linecap="round"/><path d="M290.91667,224.16667h63.16667" fill="none" stroke="#99d9ea" stroke-width="1" stroke-linecap="round"/><path d="M288.08333,243.16667h68" fill="none" stroke="#99d9ea" stroke-width="1" stroke-linecap="round"/><path d="M285.41667,260.16667h74.33333" fill="none" stroke="#99d9ea" stroke-width="1" stroke-linecap="round"/><path d="M283.41667,274.83333h76.66667" fill="none" stroke="#99d9ea" stroke-width="1" stroke-linecap="round"/><path d="M280.41667,293.16667h82.33333" fill="none" stroke="#99d9ea" stroke-width="1" stroke-linecap="round"/><path d="M277.41667,310.83333h88" fill="none" stroke="#99d9ea" stroke-width="1" stroke-linecap="round"/><path d="M343.66873,212.67395c0.14067,1.19214 0.2306,2.39125 0.28621,3.59428c0.01199,0.09759 0.02384,0.19526 0.03555,0.29304c0.63383,5.2926 0.94971,10.6303 1.57838,15.93093c1.36683,8.74278 1.74094,17.29933 2.0687,26.04498c0.22075,0.85939 0.42531,1.72045 0.61589,2.583c-1.10136,-8.93876 -0.83637,-18.03271 -1.95574,-26.99147c-0.52647,-4.21355 -0.43992,-8.42076 -0.82925,-12.628c-0.29208,-3.15628 -1.20995,-6.37309 -1.89041,-9.55771c0.03161,0.24338 0.06187,0.48702 0.09066,0.73095zM344.08112,242.26581c0.36502,3.07811 1.01689,6.19546 1.7631,9.27917c-0.30615,-6.28045 -0.77222,-12.5145 -1.76137,-18.84858c-0.06137,-0.51664 -0.11975,-1.03363 -0.17574,-1.55089c-0.10417,3.71578 -0.25513,7.50141 0.17401,11.12029zM356.22044,314.32804c0,0 0.1819,0.72761 -0.5457,0.90951c-0.03509,0.00878 -0.06891,0.01543 -0.1015,0.02015c-0.09096,0.41858 -0.24698,0.77232 -0.49345,1.02161c-0.21418,0.21663 -0.52403,0.24124 -0.8522,0.22346c-0.0122,0.42025 -0.04704,0.81413 -0.11281,1.15383c1.06435,-0.00452 2.12936,-0.00606 3.19543,-0.00606h0.27758c0,0 0.75,0 0.75,0.75c0,0.75 -0.75,0.75 -0.75,0.75h-0.27758c-4.89319,0 -9.76364,0.03247 -14.65272,0.23618c-10.26087,0.42737 -20.52685,0.36237 -30.79395,0.36237c-8.99926,0 -17.9985,0 -26.99776,0c-0.25995,0.00122 -0.43007,-0.0887 -0.5414,-0.20641c-0.11921,-0.11091 -0.21084,-0.28144 -0.21084,-0.54359c0,-0.01674 0.00037,-0.0331 0.0011,-0.0491l0.00836,-0.42788c-0.1017,-0.51474 -0.20341,-1.02947 -0.30511,-1.54422c-0.02524,-10.37259 1.42898,-20.82819 2.99075,-31.06649c1.54919,-10.15582 3.42046,-20.26087 5.19696,-30.37922c1.10905,-6.31677 1.92633,-12.69593 2.84568,-19.05053c0.29323,-3.26194 0.74122,-6.4798 1.52042,-9.59048c0.13114,-0.73681 0.26638,-1.47268 0.40636,-2.20748c1.62,-8.4963 2.48709,-16.93756 3.79799,-25.46755c0.01671,-0.24855 0.12228,-0.40595 0.24887,-0.50563c0.11805,-0.11157 0.29102,-0.19347 0.54264,-0.17186l0.48425,0.0025c4.53755,-0.60501 8.95918,-0.52803 13.52654,-0.64864c5.53478,-0.14125 11.32781,-0.54383 16.83409,-1.2098c2.79612,-0.33819 5.753,-1.37777 8.49574,-1.43451c0.21988,-0.04758 0.39345,0.01534 0.52152,0.10574c0.13898,0.07635 0.2731,0.20686 0.32549,0.42997l0.31291,0.68941c0.21572,1.09175 0.38301,2.22074 0.48705,3.35031c0.07225,0.04044 0.13906,0.08396 0.19981,0.13078c0.7124,0.54898 1.22022,4.16757 1.69675,5.1472c0.07903,5.35389 2.20096,10.8089 2.71033,16.26019c0.39163,4.19117 0.29967,8.38354 0.82412,12.58094c1.25556,10.04879 0.76222,20.2724 2.42505,30.24938c1.2681,7.60858 2.54462,15.33711 3.33551,23.02102c0.23527,2.28576 -0.08986,4.55285 0.29421,6.83886c0.62851,5.14131 0.88067,10.13549 1.29994,15.29468c0.31239,1.66731 0.66634,3.32843 1.07957,4.98137zM346.1201,258.66056c-1.37352,-5.26841 -2.88628,-10.80212 -3.52854,-16.2181c-0.58211,-4.90884 -0.11907,-10.11244 -0.11907,-15.05098c0,-3.63647 0.1552,-7.32637 -0.01103,-10.97853c-0.4121,-3.34757 -0.97706,-6.59116 -1.27756,-9.90163c-0.34611,-1.94115 -0.69782,-3.88084 -0.96824,-5.83513c-1.6362,-0.17318 -4.02391,0.12027 -5.11133,0.07588c-5.49397,-0.22424 -10.90667,-0.53448 -16.39375,-0.11568c-5.16545,0.00187 -10.34345,1.13816 -15.2919,1.19765l-0.06113,-0.02477c-0.3275,1.31561 -0.77498,2.59571 -1.20729,3.8809c-1.1076,6.93144 -2.19091,13.95467 -2.68578,20.8778c-0.66487,9.25234 -1.96846,18.41725 -3.177,27.56766c-1.32409,10.0252 -2.998,19.95728 -4.39835,29.96516c-0.87684,4.97107 -0.68522,9.95718 -1.44178,14.89967c-0.79616,5.20122 -1.65223,10.38798 -2.10276,15.64297c-0.11268,0.14195 -0.4038,0.30637 -0.50176,0.44646c-0.0049,0.0459 -0.00984,0.0918 -0.01482,0.1377c0.00738,0.01007 0.01716,0.01985 0.0296,0.02929c0.56154,0.42624 1.38862,-0.29985 2.09361,-0.29985c2.49397,0 4.98794,0 7.48192,0c5.99156,0 11.98313,0 17.97469,0c10.37252,0 20.74503,0 31.11755,0c1.79325,0 3.5865,0 5.37975,0c0.16931,0 0.35082,0.038 0.53605,0.08999c-0.0373,-1.41398 -0.08516,-2.72519 -0.37853,-4.24304c-1.12106,-5.80026 -0.87797,-11.87108 -1.71429,-17.72445c-1.40787,-9.85505 -3.65354,-20.08227 -4.04237,-30.01889c-0.05544,-1.44144 -0.10781,-2.876 -0.16127,-4.30536c-0.00819,-0.03158 -0.0164,-0.06317 -0.02463,-0.09474zM340.39722,196.7675l-0.00912,-0.0166c-0.90594,0.02939 -1.85138,0.17786 -2.80978,0.37108c0.96956,0.03711 1.9451,0.10575 2.92825,0.21233c-0.03487,-0.19032 -0.07137,-0.37936 -0.10936,-0.56682zM336.66425,199.3145c0.7427,0.03032 2.07826,-0.04763 3.32837,0.01916c-0.04676,-0.18612 -0.09351,-0.37224 -0.14027,-0.55836c-3.79156,-0.36301 -7.47308,-0.16458 -11.13873,0.21232c2.64551,0.08033 5.29285,0.2184 7.95063,0.32688zM286.35083,318.24523c-0.25384,-3.52125 0.14024,-7.16301 0.45808,-10.67183c0.61505,-6.7898 0.47456,-13.4677 1.82364,-20.222c2.01772,-10.08862 3.4611,-20.23853 4.79987,-30.43804c0.10712,-0.8161 0.20009,-1.63801 0.28192,-2.46464c-0.07574,0.44791 -0.1528,0.89554 -0.23133,1.34285c-1.77456,10.10731 -3.64402,20.2013 -5.19152,30.34602c-1.54489,10.12757 -2.9433,20.43489 -2.98087,30.69281c0.09442,0.46584 0.18883,0.93169 0.28325,1.39753l0.00054,0.02115c0.25513,0 0.51027,0 0.7654,0c-0.00299,-0.00128 -0.00599,-0.00257 -0.00898,-0.00385zM302.83862,200.03187c0.04073,0.00276 0.08356,0.00846 0.1286,0.01747c0.23937,0.04788 0.38525,0.15807 0.47314,0.28496c0.85406,0.00669 1.67382,-0.35469 2.49872,-0.57855c0.16876,-0.0458 0.33992,-0.08874 0.51328,-0.129c-1.22675,0.06805 -2.45573,0.16587 -3.69245,0.31203c0.03033,0.0294 0.05637,0.06071 0.07871,0.0931zM353.8212,311.99036c0.10409,0.54071 0.28973,1.74816 0.37123,3.00002c0.3364,-0.908 -0.45698,-4.43055 -0.51869,-5.18106c-0.00756,-0.09192 -0.01506,-0.18378 -0.02251,-0.27559c-0.26623,-1.43086 -0.50248,-2.86614 -0.71978,-4.30464c0.19838,2.26781 0.4595,4.52652 0.88974,6.76127zM352.05197,287.33838c-0.42811,-4.05222 -0.9804,-8.11338 -1.5929,-12.16317c0.51918,4.39025 0.98273,8.79393 1.66821,13.1885c-0.01543,-0.34147 -0.03916,-0.6832 -0.07531,-1.02533zM342.79183,205.44624c-0.06043,-0.11719 -0.143,-0.36154 -0.23754,-0.67814c0.02945,0.49392 0.06639,0.98571 0.10944,1.47592c0.06287,0.35423 0.12554,0.70851 0.1875,1.06294c-0.04822,-0.62356 -0.07029,-1.24404 -0.05939,-1.86072zM287.5661,317.36596c9.87129,-0.12637 19.75079,-0.0147 29.62293,-0.0147c10.49277,0 20.98553,0 31.4783,0c0.37687,0 3.84303,0.34044 3.98181,0.2078c0.24183,-0.23113 -0.15034,-0.65594 -0.16313,-0.99021c-0.00094,-0.02447 -0.00186,-0.0489 -0.00276,-0.07327c-1.97848,0.05678 -3.98694,-0.03853 -5.95787,-0.03853c-10.37252,0 -20.74503,0 -31.11755,0c-7.48554,0 -14.97107,0 -22.4566,0c-0.83398,0 -3.67269,0.32153 -5.2766,0.0831c-0.03458,0.27533 -0.07072,0.5506 -0.10853,0.82581zM288.96476,298.77262c0.47474,-3.0763 0.57733,-6.17405 0.79917,-9.2742c-0.61009,3.65645 -0.88242,7.32514 -1.06706,10.99718c0.08972,-0.5743 0.17925,-1.1486 0.26789,-1.72298zM297.9446,226.79069c-0.03429,0.12868 -0.06796,0.25758 -0.10105,0.38667c-0.58609,3.28901 -1.08969,6.59695 -1.56709,9.91127c-0.28746,3.33872 -0.4144,6.72508 -0.57547,10.08504c0.89614,-6.76646 1.7464,-13.55064 2.24362,-20.38298z" fill="#000000" stroke="none" stroke-width="0.5" stroke-linecap="butt"/><path d="M346.1947,258.75692c0.05346,1.42936 0.10491,2.87195 0.16035,4.31339c0.38883,9.93662 2.61803,20.19211 4.02589,30.04715c0.83631,5.85336 0.58648,11.92907 1.70754,17.72933c0.29337,1.51786 0.34,2.82979 0.3773,4.24376c-0.18523,-0.05198 -0.36702,-0.08983 -0.53633,-0.08983c-1.79325,0 -3.58983,0.00169 -5.38308,0.00169c-10.37252,0 -20.77015,0.00445 -31.14267,0.00445c-5.99156,0 -11.99748,-0.00338 -17.98904,-0.00338c-2.49397,0 -4.99284,-0.00226 -7.48682,-0.00226c-0.70499,0 -1.53321,0.72546 -2.09474,0.29922c-0.01243,-0.00944 -0.02225,-0.01923 -0.02963,-0.0293c0.00498,-0.04589 0.05906,-0.17888 0.06396,-0.22478c0.09796,-0.14009 0.34004,-0.21736 0.45273,-0.35931c0.45053,-5.25499 1.30175,-10.44485 2.09792,-15.64607c0.75656,-4.94249 0.55755,-9.93514 1.43439,-14.9062c1.40035,-10.00789 3.06155,-19.98178 4.38564,-30.00697c1.20855,-9.15041 2.53398,-18.34924 3.19886,-27.60158c0.49487,-6.92314 1.58943,-13.9519 2.69702,-20.88334c0.43231,-1.28519 0.88174,-2.56592 1.20924,-3.88153l0.06117,0.02476c4.94845,-0.05949 10.13949,-1.19786 15.30494,-1.19973c5.48708,-0.4188 10.91368,-0.10695 16.40766,0.11729c1.08742,0.04439 3.47902,-0.24787 5.11522,-0.07469c0.27042,1.95429 0.62452,3.89488 0.97064,5.83603c0.3005,3.31046 0.8702,6.5563 1.2823,9.90387c0.16623,3.65216 0.01687,7.34574 0.01687,10.98221c0,4.93854 -0.4514,10.15412 0.13072,15.06296c0.64225,5.41599 2.16382,10.9795 3.53734,16.24791c0.00823,0.03157 0.01644,0.06334 0.02463,0.09492z" fill="#ffffff" stroke="none" stroke-width="0.5" stroke-linecap="butt"/><g stroke="none" stroke-width="0.5" stroke-linecap="butt"><path d="M379.83781,170.79564c-1.89154,3.80361 -4.1082,7.4859 -6.7781,10.70182c-2.34217,2.82115 -5.79354,4.22778 -8.50652,6.54352c-3.02961,1.80681 -6.20542,3.37471 -9.45813,4.79111c-5.5966,2.64403 -11.09663,4.77548 -16.78926,6.29591c-0.80353,0.27974 -1.6047,0.55925 -2.40254,0.83976c-3.12985,1.09359 -6.57965,1.35553 -9.82258,1.71689c-1.64934,0.18377 -3.32443,0.3447 -5.00831,0.453c-2.5635,0.3841 -5.1433,0.70692 -7.57882,0.64217c-0.38124,-0.01014 -0.7646,-0.02981 -1.1496,-0.05815c-1.27735,0.08246 -2.55199,0.18548 -3.82593,0.33747c0.02419,0.11817 0.01759,0.2606 -0.04125,0.43101c-0.24863,0.72024 -0.93278,0.49967 -0.93278,0.49967c-7.58339,-2.44486 -16.43071,-4.11457 -23.11536,-8.37095c-3.5919,-3.19193 -8.93187,-4.28677 -12.43907,-7.73089c-1.97983,-1.94422 -3.51155,-4.73229 -4.72578,-7.59646c-0.10789,-0.15205 -0.21536,-0.30359 -0.32259,-0.45431c-4.07209,-5.72362 -7.32274,-11.91671 -9.34092,-18.75148c-1.42979,-4.85852 -2.01951,-9.68571 -2.05143,-14.54934c-0.53774,-3.04007 -0.91763,-6.11112 -1.11196,-9.19908c0.07011,-7.31489 3.04805,-13.48348 6.5439,-19.67341c1.21341,-2.70369 2.65554,-5.31582 4.3044,-7.70462c0.32413,-0.54385 0.67718,-1.07627 1.08553,-1.59148c6.63427,-8.32983 14.03788,-14.62089 23.47508,-19.02512c4.41576,-2.16882 8.99695,-3.64448 13.66115,-4.71307c1.13618,-0.48676 2.24612,-0.95135 3.51375,-1.19087c7.44478,-1.38304 15.0401,-2.68572 22.53533,-2.52016c0.66995,-0.06425 1.33462,-0.10405 1.98777,-0.10227c0.74478,0.00202 1.51721,0.053 2.30911,0.14672c4.4486,0.06954 8.7877,0.82527 12.8038,3.03563c3.23017,1.79171 7.21587,2.80546 10.20654,4.9903c4.02999,2.94412 7.34603,7.18299 10.06357,11.68965c1.50459,2.49515 2.98073,5.04226 4.42821,7.62152c0.3439,0.47489 0.68492,0.95054 1.02275,1.4272c1.33524,1.70143 2.59855,3.46047 3.74392,5.3105c2.21236,3.57617 4.75022,7.15023 6.33669,11.11115c0.70142,1.75122 1.22161,3.63877 1.60322,5.5892c0.33668,1.039 0.64703,2.09448 0.92907,3.16809c0.30154,1.36082 0.54832,2.73174 0.73938,4.1094c1.33754,5.22436 1.78224,10.68111 0.60271,16.24515c-1.17881,5.51439 -3.50941,10.74276 -6.49495,15.53483zM298.49633,199.45972c-5.02526,-1.54322 -9.79937,-3.57481 -14.37441,-5.99813c0.41436,0.28811 0.81457,0.59288 1.19663,0.91925c6.13713,3.86132 14.126,5.54015 21.21075,7.69558c0.0747,-0.1179 0.18036,-0.1962 0.27873,-0.24751c-2.8581,-0.66387 -5.68853,-1.56862 -8.31169,-2.36918zM258.26914,157.82317c0.21182,0.91771 0.45292,1.83605 0.72539,2.75551c0.82036,2.77822 1.84913,5.44702 3.05755,8.01934c-0.25342,-0.72821 -0.50871,-1.4511 -0.78323,-2.1508c-1.10368,-2.81714 -2.11271,-5.69645 -2.99972,-8.62406zM285.80431,192.63187c3.31199,1.70639 6.73163,3.20103 10.27845,4.43875c-2.155,-0.92177 -4.29757,-1.87711 -6.45136,-2.81798c-1.26511,-0.55265 -2.55091,-1.0761 -3.82707,-1.62077zM257.42858,128.51336c-0.9254,2.75629 -1.50481,5.62801 -1.53641,8.70516c0.0235,0.36673 0.04963,0.73324 0.07838,1.09951c0.26942,-2.63112 0.65287,-5.28347 1.10735,-7.96737c0.10343,-0.60719 0.2204,-1.22013 0.35068,-1.8373zM272.5209,186.25459c0.16219,0.17771 0.32778,0.3491 0.49687,0.51362c1.91947,1.86756 4.37655,3.05578 6.79965,4.26663c-2.45826,-1.46964 -4.86091,-3.04926 -7.21673,-4.72261c-0.02667,-0.01909 -0.05327,-0.03831 -0.07979,-0.05764zM367.78146,184.01569c1.52901,-0.99346 3.0213,-2.03824 4.1925,-3.46279c0.52601,-0.6398 1.03402,-1.29703 1.52507,-1.96919c-0.05904,-0.02868 -0.11944,-0.06843 -0.18056,-0.1216c-0.54287,-0.47228 -0.05793,-1.05908 -0.05793,-1.05908l0.27366,-0.33114c1.79066,-2.1642 3.481,-4.46795 5.0002,-6.88864c1.05685,-2.11715 2.01113,-4.27516 2.88625,-6.41764c1.89981,-4.79591 2.96913,-9.78334 3.26138,-14.78881c-1.04345,8.20439 -4.3552,15.90319 -8.82574,23.05285c-1.8384,4.49808 -4.66324,8.54968 -8.0748,11.98604zM279.81782,98.34231c-2.80143,1.97126 -5.48884,4.09168 -8.00895,6.3173c-1.98032,1.74592 -3.78324,3.84811 -5.38517,6.17237c-0.69034,1.16997 -1.23916,2.40219 -1.9387,3.61419c-0.75027,1.29988 -1.50336,2.58897 -2.23493,3.87816c-1.79844,4.02445 -3.07267,8.25459 -3.73853,12.21173c-0.2358,1.3925 -0.45292,2.77643 -0.64479,4.15326c1.66595,-5.84639 4.47486,-11.45003 7.23789,-16.88046c3.55031,-7.75249 8.59527,-13.96413 14.71315,-19.46656zM267.1467,175.78643c3.32673,4.65286 8.5066,9.01563 12.58819,11.92881c3.18592,2.2793 6.95234,3.58624 10.52022,5.14481c5.25018,2.29346 10.43248,4.67675 15.89592,6.43649c4.69861,1.52138 9.83379,1.67195 14.87591,1.34339c2.00001,-0.30182 3.99032,-0.64229 5.88989,-0.85968c3.80934,-0.43595 7.46436,-1.14287 11.04101,-2.09537c5.48555,-1.90817 11.08466,-3.82676 16.47086,-6.16166c0.34768,-0.16385 0.69575,-0.32971 1.04429,-0.49755c8.14376,-3.92182 15.53465,-10.90202 19.10372,-19.64566c5.28324,-8.51705 8.99185,-17.70247 8.99694,-27.72956c0.002,-2.5864 -0.09334,-5.33451 -0.40311,-8.04612c-1.14087,-3.31367 -2.5881,-6.50961 -4.11578,-9.54624c-2.72864,-5.42902 -5.58872,-10.90343 -8.57181,-16.24705c-4.26872,-5.21812 -9.17986,-9.90201 -13.13366,-15.25522c-2.21837,-1.23049 -4.01739,-3.25142 -5.94652,-5.13082c-0.133,-0.08669 -0.26641,-0.17244 -0.40022,-0.25719c-3.13519,-1.98695 -7.49802,-4.1305 -11.83901,-5.47936c-1.29613,-0.25674 -2.58418,-0.5016 -3.8139,-0.79316c-1.45903,-0.2096 -2.92515,-0.34591 -4.39626,-0.42008c-1.44479,0.06419 -2.89621,0.1852 -4.34512,0.33482c-0.78623,0.11728 -1.56673,0.23311 -2.33055,0.31823c-10.04319,1.11905 -19.16653,2.26711 -28.68577,6.33932c-0.38349,0.16403 -0.76668,0.33167 -1.14945,0.50286c-3.28385,1.55334 -6.40572,3.38513 -9.38717,5.853c-7.92252,6.27876 -14.38465,13.28334 -18.65504,22.6027c-4.4204,8.6926 -9.09659,17.90566 -8.55564,27.8314c0.90755,5.45625 2.35413,11.19183 3.94776,16.4525c1.22462,4.0425 3.40825,7.61296 4.85173,11.5636c0.15895,0.48903 0.32613,0.99528 0.50255,1.51283zM275.95687,186.77848c-2.04684,-1.62275 -4.1764,-3.49053 -6.12524,-5.49858c1.06578,1.42625 2.23129,2.7888 3.63415,3.77623c0.82428,0.58549 1.65453,1.1599 2.4911,1.72234zM353.65978,88.82238c0.60071,0.52472 1.17879,1.06286 1.72579,1.60365c3.05639,2.42621 5.89147,5.30013 8.52703,8.3454c-2.25954,-3.29195 -4.87745,-6.27211 -7.91781,-8.52879c-0.72166,-0.53564 -1.50965,-0.9992 -2.33501,-1.42026z" fill="#000000"/><path d="M355.96391,90.20332c3.04035,2.25668 5.72504,5.31097 7.98458,8.60292c-2.63556,-3.04527 -5.47101,-5.9188 -8.5274,-8.34501c-0.547,-0.54079 -1.19647,-1.14896 -1.79719,-1.67368c0.82536,0.42106 1.61835,0.88012 2.34001,1.41577z" fill="#ffffff"/><path d="M375.85965,171.97976c4.47055,-7.14966 7.80063,-14.84359 8.84408,-23.04799c-0.29225,5.00547 -1.33905,10.01465 -3.23885,14.81056c-0.87512,2.14248 -1.84716,4.36618 -2.90401,6.48333c-1.5192,2.42069 -3.24838,4.73047 -5.03905,6.89467l-0.27444,0.33093c0,0 -0.45996,0.48998 0.0829,0.96226c0.06113,0.05317 0.09866,0.19028 0.15771,0.21895c-0.49105,0.67217 -1.00252,1.32848 -1.52853,1.96827c-1.17121,1.42455 -2.62728,2.37645 -4.15629,3.36991c3.41156,-3.43636 6.21805,-7.49282 8.05647,-11.9909z" fill="#ffffff"/><path d="M273.49008,185.09983c-1.40286,-0.98744 -2.6299,-2.42707 -3.69567,-3.85333c1.94884,2.00805 4.15282,3.94263 6.19966,5.56538c-0.83657,-0.56244 -1.67971,-1.12656 -2.50399,-1.71205z" fill="#ffffff"/><path d="M272.64254,186.33958c2.35582,1.67334 4.75844,3.25301 7.2167,4.72265c-2.4231,-1.21085 -4.96497,-2.45206 -6.88444,-4.31962c-0.16909,-0.16452 -0.33355,-0.33774 -0.49573,-0.51543c0.02652,0.01933 0.13679,0.0933 0.16346,0.1124z" fill="#ffffff"/><path d="M289.5859,194.23189c2.15381,0.94087 4.38777,1.93679 6.54276,2.85856c-3.54681,-1.23773 -7.05825,-2.77201 -10.37024,-4.4784c1.27617,0.54467 2.56238,1.06719 3.82748,1.61984z" fill="#ffffff"/><path d="M306.76097,201.81201c-0.09836,0.05131 -0.11039,0.16469 -0.18509,0.28259c-7.08474,-2.15543 -15.16763,-3.86823 -21.30476,-7.72954c-0.38206,-0.32638 -0.68806,-0.59764 -1.10242,-0.88575c4.57504,2.42332 9.25879,4.41272 14.28406,5.95593c2.62316,0.80055 5.45013,1.71289 8.30823,2.37676z" fill="#ffffff"/><path d="M257.07163,130.40028c-0.45448,2.6839 -0.83893,5.3361 -1.10835,7.96722c-0.02875,-0.36627 -0.0579,-0.73331 -0.0814,-1.10005c0.03162,-3.07715 0.62874,-6.04724 1.55414,-8.80353c-0.13027,0.61718 -0.26097,1.32917 -0.36439,1.93635z" fill="#ffffff"/><path d="M265.15192,117.79252c-2.76303,5.43044 -5.59334,11.00762 -7.25929,16.854c0.19187,-1.37684 0.35348,-2.6777 0.58928,-4.07021c0.66586,-3.95715 1.92152,-8.21431 3.71995,-12.23876c0.73157,-1.28918 1.48772,-2.61297 2.23799,-3.91285c0.69954,-1.212 1.27394,-2.46877 1.96429,-3.63874c1.60193,-2.32426 3.43655,-4.42894 5.41688,-6.17487c2.5201,-2.22562 5.16953,-4.25473 7.97096,-6.22599c-6.11789,5.50242 -11.08976,11.65492 -14.64006,19.40741z" fill="#ffffff"/><path d="M266.60129,174.29935c-1.44347,-3.95063 -3.63138,-7.53013 -4.85598,-11.57264c-1.59363,-5.26067 -3.04297,-11.00945 -3.95052,-16.46571c-0.54094,-9.92574 4.13922,-19.16214 8.55962,-27.85474c4.27039,-9.31936 10.74785,-16.34368 18.67037,-22.62244c2.98145,-2.46787 6.11137,-4.30473 9.39522,-5.85807c0.38277,-0.17118 0.76693,-0.3393 1.15042,-0.50333c9.51924,-4.07221 18.66725,-5.22505 28.71044,-6.34411c0.76382,-0.08511 1.54625,-0.20078 2.33248,-0.31806c1.44891,-0.14961 2.90387,-0.27014 4.34865,-0.33433c1.47111,0.07416 2.94077,0.21122 4.39979,0.42082c1.22973,0.29157 2.52084,0.53731 3.81697,0.79405c4.341,1.34885 8.7136,3.49673 11.84881,5.48368c0.13381,0.08476 0.26755,0.17069 0.40056,0.2574c1.92912,1.87941 3.7335,3.90397 5.95187,5.13446c3.9538,5.35321 8.87633,10.04957 13.14505,15.26769c2.98309,5.34362 5.84937,10.832 8.57802,16.26103c1.52769,3.03663 2.9764,6.24065 4.11727,9.55432c0.30977,2.71161 0.40533,5.46612 0.40334,8.05251c-0.00509,10.0271 -3.7198,19.23509 -9.00305,27.75213c-3.56908,8.74363 -10.97491,15.74063 -19.11867,19.66244c-0.34854,0.16785 -0.69739,0.33425 -1.04507,0.4981c-5.38621,2.3349 -10.99861,4.2599 -16.48417,6.16808c-3.57665,0.9525 -7.24108,1.66138 -11.05043,2.09733c-1.89956,0.21739 -3.89494,0.55815 -5.89495,0.85997c-5.04211,0.32856 -10.18985,0.17648 -14.88847,-1.3449c-5.46345,-1.75974 -10.6591,-4.14855 -15.90928,-6.44201c-3.56788,-1.55857 -7.34201,-2.87115 -10.52793,-5.15046c-4.0816,-2.91319 -9.27041,-7.28648 -12.59714,-11.93935c-0.17641,-0.51755 -0.34425,-1.02485 -0.5032,-1.51387z" fill="#ffffff"/></g><g fill="#000000" stroke="none" stroke-width="0.5" stroke-linecap="butt"><path d="M366.63122,148.48537c-1.43022,2.18923 -3.2294,4.04591 -5.36498,5.35143c-8.28171,5.03486 -20.63898,5.79255 -29.78481,2.79368c-0.20926,-0.12082 -0.45142,-0.24395 -0.7107,-0.3711c-0.34745,0.46386 -0.9086,0.1911 -0.9086,0.1911c-8.26291,-4.01643 -9.17658,-13.75106 -7.95506,-21.91433c0.47743,-3.17248 0.74603,-6.65761 1.99326,-9.65079c2.84054,-6.81688 10.62704,-9.29505 17.05795,-11.27725c10.05347,-0.04692 23.05284,2.33672 27.75596,12.2066c0.70731,1.48435 1.20763,3.11067 1.51061,4.81429c0.25843,0.76135 0.49307,1.48772 0.70647,2.14554c0.42002,5.71221 0.12476,9.90602 -2.96613,14.90511l-0.51424,0.59131c0,0 -0.36518,0.40744 -0.81972,0.21441zM357.57238,117.86842c-5.14834,-2.10571 -11.21658,-2.74027 -16.38481,-2.77792c-4.3073,1.42307 -9.39346,2.91501 -12.85394,6.08677c5.04792,-3.59317 12.58431,-3.88189 18.91072,-4.22505c3.17739,0.08921 6.8754,0.18115 10.32802,0.91622zM322.95482,140.65748c0.0507,4.00742 0.9027,7.97833 3.24279,10.97638c-0.36957,-0.8681 -0.67872,-1.76304 -0.99668,-2.60684c-1.0016,-2.65807 -1.78886,-5.48822 -2.2461,-8.36953zM368.75795,130.95225c-0.95123,-2.804 -2.23473,-6.15651 -4.01013,-7.93896c-4.28192,-4.29893 -11.80533,-4.39687 -17.48385,-4.56122c-8.65694,0.47773 -20.41463,0.53903 -22.68695,11.23454c-1.33226,6.19266 -0.1821,12.95336 2.02747,18.81124c0.63149,1.67415 1.19969,3.60286 2.39783,4.98855c0.6256,0.72354 2.25821,1.28744 3.09107,1.77458c8.70993,2.8017 20.5227,2.07921 28.39364,-2.70591c6.55314,-3.9596 9.64565,-13.73348 8.27093,-21.60283z"/><path d="M314.16742,126.16866c-0.12993,0.0807 -0.24981,0.11845 -0.35835,0.1274c1.66992,3.53638 2.62589,7.42981 3.24063,11.29699c0.32779,2.08633 0.75268,5.55107 0.12205,7.608c-2.15166,7.01811 -11.94147,13.04168 -18.85526,13.49827c-7.33557,0.45067 -14.19138,-2.56447 -19.41464,-7.44537c-0.28111,0.06923 -0.54752,-0.06426 -0.54752,-0.06426c-5.93327,-3.0145 -8.66308,-10.89181 -8.00213,-17.29807c0.24599,-2.38421 1.48808,-5.02248 2.17615,-7.32352c2.78115,-9.3008 13.11708,-14.64144 22.57763,-13.44571c4.55545,0.2681 9.03705,1.69561 12.92042,4.29098c2.633,1.97033 4.55213,4.77702 6.27619,7.55144l0.10622,0.17101c0,0 0.39572,0.63711 -0.24138,1.03283zM295.20648,114.6261c-4.47966,-0.29756 -9.04482,0.59279 -13.13057,2.65579c-5.56275,5.17861 -9.40174,10.86472 -8.95873,18.77169c0.10939,1.9524 -0.07344,4.74534 0.89909,6.45779c4.76191,8.76605 13.97701,15.31934 24.20821,14.69077c6.30081,-0.35376 15.51503,-6.05204 17.50597,-12.41671c0.5714,-1.82666 0.13859,-5.08858 -0.16218,-6.9569c-1.04249,-6.55806 -3.05363,-13.21707 -8.17235,-17.87911c-2.52018,-2.29534 -5.83101,-3.48485 -8.9799,-4.54888c-1.04383,-0.35829 -2.1189,-0.61472 -3.20955,-0.77445z"/><path d="M300.50019,141.67576c0.84233,-0.17088 1.75742,-0.34029 1.89347,-0.29608c0.5495,0.17853 0.99273,0.50298 1.33157,0.91747c0.77069,0.16104 1.40508,0.65617 1.8141,1.76287c0.21604,0.58454 0.63018,1.18265 0.51951,1.79593c-0.22933,1.27089 -1.35882,2.29565 -2.65964,2.73969c0.00128,0.54549 -0.07281,0.97592 -0.27332,1.15944c-0.51819,0.47425 -1.40628,0.02923 -2.10732,-0.01542c-0.77398,-0.04931 -1.51757,-0.1755 -2.19412,-0.39195c-0.70211,-0.12132 -3.08815,-0.53334 -3.29352,-0.69641c-0.38255,-0.30378 -0.63625,-0.81327 -0.76617,-1.39864c-0.50878,-1.20493 -0.27429,-2.77808 0.71507,-3.75477c0.0166,-0.24104 0.07667,-0.46391 0.2305,-0.64543c0.21833,-0.25765 2.88348,-0.77544 3.36148,-0.87598c0.11466,-0.02412 0.42197,-0.09103 0.80639,-0.17198c0.09741,-0.08522 0.19127,-0.17266 0.27815,-0.26445c0.06899,0.02847 0.18884,0.07498 0.34387,0.1357zM301.72699,144.06696c0.15218,0.0298 0.30024,0.05928 0.44309,0.08744c0.0358,-0.05456 0.06094,-0.10875 0.07387,-0.16199c-0.03107,0.00858 -0.06164,0.01549 -0.09162,0.02049c-0.12265,0.02046 -0.26587,0.03815 -0.42534,0.05405zM297.25065,146.12337c0.33162,0.98946 1.00345,1.36786 1.93074,1.63389c0.14913,-0.05119 0.31743,-0.10412 0.49753,-0.15902c-0.09994,-0.23448 -0.21162,-0.53328 -0.32492,-0.86473c-0.76574,-0.10771 -1.47126,-0.44352 -1.91288,-1.00807c-0.07772,0.11255 -0.14194,0.24427 -0.19046,0.39794zM302.99232,145.47645c0.04234,-0.18805 0.06735,-0.38559 0.0738,-0.58487c-0.05208,0.06844 -0.10287,0.13671 -0.15043,0.20494c0.02445,0.11924 0.05022,0.24648 0.07662,0.37993zM298.662,145.12917c0.06478,0.05169 0.14509,0.09114 0.23779,0.11957c-0.01188,-0.04368 -0.0236,-0.0872 -0.0351,-0.1305c-0.06862,0.00184 -0.13625,0.00539 -0.20269,0.01092z"/><path d="M344.05121,127.30541c-1.81741,0.89393 -4.45152,1.44919 -5.8396,1.08136c-2.15884,-0.57206 -2.5784,-3.4602 -0.95554,-4.92854c0.21247,-0.19223 2.92603,-0.56035 3.36119,-0.62471c0.98924,-0.1463 1.97475,-0.32047 2.96772,-0.43892c1.22823,-0.14652 4.77894,0.77728 4.26157,2.98388c-0.16163,0.68934 -1.18548,0.77792 -1.80956,1.11232c-0.39657,0.21249 -1.12808,0.52585 -1.98575,0.8146zM342.82378,125.69058c0.09677,-0.05208 0.1957,-0.10817 0.29738,-0.16886c-0.14979,0.06345 -0.30196,0.12408 -0.45598,0.18161c0.05316,-0.00381 0.1061,-0.00806 0.1586,-0.01275z"/></g><path d="M414.30503,127.01719h-18.25" fill="none" stroke="#99d9ea" stroke-width="1" stroke-linecap="round"/><path d="M288.31786,163.05568c0.48219,-0.16073 0.74653,0.11425 0.86683,0.3082c7.16573,3.06212 15.98707,5.6966 23.76292,5.97741c10.00126,0.36118 19.72644,-2.11284 29.22886,-5.0047c1.40299,-0.42659 2.87298,-1.02648 4.32315,-1.26363c0.51654,-0.08447 1.28254,-0.54397 1.56673,-0.10444c0.9637,1.49044 -1.41317,4.7557 -2.17032,5.96818c-3.05699,4.89534 -6.00096,10.66189 -10.73107,14.15831c-6.05789,4.45491 -13.41776,7.94154 -21.23006,6.66251c-2.09797,-0.34348 -4.17365,-1.42425 -6.13989,-2.19115c-7.90476,-4.29748 -16.04546,-12.71681 -18.92136,-21.48578c-0.25,-0.41667 -0.5,-0.83333 -0.75,-1.25l-0.28013,-0.82622c0,0 -0.23717,-0.71151 0.47434,-0.94868zM290.21375,165.41603c0.00755,0.01259 0.01511,0.02518 0.02266,0.03777c2.86198,8.4641 10.5182,16.56064 18.1906,20.75221c1.84307,0.71451 3.78819,1.73656 5.74815,2.07087c7.3891,1.26037 14.39545,-2.1944 20.10113,-6.3903c4.35084,-3.18138 7.09452,-8.53973 9.89273,-13.01688c0.57462,-0.9194 1.54541,-3.61621 2.51806,-4.54761c-0.39032,0.22108 -0.92704,0.49768 -1.21567,0.58035c-0.95745,0.27422 -1.90572,0.57955 -2.85859,0.86928c-9.66598,2.93631 -19.54723,5.43595 -29.71935,5.0686c-7.37602,-0.26637 -15.6689,-2.59006 -22.67973,-5.42428z" fill="#000000" stroke="none" stroke-width="0.5" stroke-linecap="butt"/></g></g></svg>