<svg version="1.1" xmlns="http://www.w3.org/2000/svg" xmlns:xlink="http://www.w3.org/1999/xlink" width="213.18203" height="281.18476" viewBox="0,0,213.18203,281.18476"><defs><linearGradient x1="320.08742" y1="187.07227" x2="320.08742" y2="244.23177" gradientUnits="userSpaceOnUse" id="color-1"><stop offset="0" stop-color="#f29823"/><stop offset="1" stop-color="#f29823" stop-opacity="0"/></linearGradient></defs><g transform="translate(-214.52362,-38.88751)"><g stroke-miterlimit="10"><g fill="#f1c68c" stroke="#000000" stroke-width="2" stroke-linecap="butt"><path d="M343.23276,203.84096c-0.32607,-17.88638 -2.00681,-43.31765 0.13805,-43.31765c8.33731,0 15.09605,17.13541 15.09605,32.83444c0,15.69904 -16.20402,32.83445 -16.20402,32.83445c0,0 1.23636,-7.73571 0.96992,-22.35124z"/><path d="M360.38644,184.86521c-0.50198,-17.88638 -3.08944,-43.31765 0.21251,-43.31765c12.83508,0 23.23996,17.13541 23.23996,32.83444c0,15.69904 -24.94565,32.83445 -24.94565,32.83445c0,0 1.90335,-7.73571 1.49317,-22.35124z"/><path d="M296.45832,226.1922c0,0 -16.20401,-17.13541 -16.20401,-32.83445c0,-15.69904 6.75873,-32.83444 15.09605,-32.83444c2.14486,0 0.46411,25.43127 0.13804,43.31765c-0.26644,14.61553 0.96992,22.35124 0.96992,22.35124z"/><path d="M279.82788,207.21644c0,0 -24.94565,-17.13541 -24.94565,-32.83445c0,-15.69903 10.40489,-32.83445 23.23996,-32.83445c3.30196,0 0.71449,25.43127 0.21252,43.31765c-0.41018,14.61554 1.49317,22.35124 1.49317,22.35124z"/></g><g stroke="#000000" stroke-linecap="butt"><path d="M286.35186,319.07226l15.14285,-131.8421l37.78325,-0.15789l13.57389,132z" fill="#f1c68c" stroke-width="0"/><path d="M295.01902,243.61117l6.47569,-56.38101l37.78325,-0.15789l5.87786,57.15951z" fill="url(#color-1)" stroke-width="0"/><path d="M286.35186,319.07226l15.14285,-131.8421l37.78325,-0.15789l13.57389,132z" fill="none" stroke-width="2"/></g><path d="M214.52362,306.61252v-267.72501h213.18203v267.72501z" fill="none" stroke="none" stroke-width="0" stroke-linecap="butt"/><path d="" fill="none" stroke="#000000" stroke-width="2" stroke-linecap="round"/><path d="M371.09217,93.45999c0,0 -17.56822,-1.33282 -26.45058,-3.05289c-9.52543,-1.84461 -28.90779,-7.6673 -28.90779,-7.6673" fill="none" stroke="#592317" stroke-width="2" stroke-linecap="round"/><g><path d="M263.01154,119.2657c0,0 -22.78339,-11.25141 -9.84149,-14.41075c12.9419,-3.15935 39.01905,5.11419 68.18746,7.20538c29.1684,2.09118 45.46903,-6.43196 72.22949,-0.70296c26.76047,5.729 -18.27705,11.77463 -18.27705,11.77463" fill="#502116" stroke="#000000" stroke-width="0" stroke-linecap="round"/><path d="M319.11925,203.7459c-35.47713,0 -64.23702,-26.99649 -64.23702,-60.29834c0,-33.30185 28.75989,-60.29833 64.23702,-60.29833c35.47712,0 64.23702,26.99648 64.23702,60.29833c0,33.30185 -28.7599,60.29834 -64.23702,60.29834z" fill="#f1c68c" stroke="#000000" stroke-width="2" stroke-linecap="butt"/><path d="M255.36488,143.44756c0,-33.30185 28.7599,-60.29833 64.23702,-60.29833c35.47713,0 64.23702,26.99648 64.23702,60.29833c0,33.30185 -28.75989,60.29834 -64.23702,60.29834c-35.47712,0 -64.23702,-26.99649 -64.23702,-60.29834z" fill="#f1c68c" stroke="#000000" stroke-width="2" stroke-linecap="butt"/><path d="M268.99199,143.72318c0,-12.96801 10.51265,-23.48065 23.48066,-23.48065c12.96801,0 23.48065,10.51264 23.48065,23.48065c0,12.96801 -10.51264,23.48066 -23.48065,23.48066c-12.96801,0 -23.48066,-10.51265 -23.48066,-23.48066z" fill="#ffffff" stroke="#000000" stroke-width="2" stroke-linecap="butt"/><path d="M276.90144,144.51362c0,-8.29964 6.72818,-15.02784 15.02783,-15.02784c8.29964,0 15.02784,6.72819 15.02784,15.02785c0,8.29964 -6.72819,15.02785 -15.02784,15.02785c-8.29964,0 -15.02783,-6.72819 -15.02783,-15.02785z" fill="#000000" stroke="#000000" stroke-width="5" stroke-linecap="butt"/><path d="M346.73111,167.20386c-12.96801,0 -23.48065,-10.51265 -23.48065,-23.48066c0,-12.96801 10.51264,-23.48065 23.48065,-23.48065c12.96801,0 23.48066,10.51264 23.48066,23.48065c0,12.96801 -10.51265,23.48066 -23.48066,23.48066z" fill="#ffffff" stroke="#000000" stroke-width="2" stroke-linecap="butt"/><path d="M362.05645,144.30041c0,8.29966 -6.72818,15.02785 -15.02783,15.02785c-8.29964,0 -15.02784,-6.72821 -15.02784,-15.02785c0,-8.29966 6.7282,-15.02785 15.02784,-15.02785c8.29964,0 15.02783,6.7282 15.02783,15.02784z" fill="#000000" stroke="#000000" stroke-width="5" stroke-linecap="butt"/><path d="M280.47412,116.82263c0,0 7.6761,-3.57887 12.90237,-3.63287c5.22628,-0.054 11.88349,3.37677 11.88349,3.37677c0,0 -7.83084,-1.81468 -11.86692,-1.77297c-4.21786,0.04358 -12.91895,2.02907 -12.91895,2.02907z" fill="#000000" stroke="none" stroke-width="0" stroke-linecap="butt"/><path d="M344.71399,114.78175c-4.02426,-0.31146 -11.9589,0.9756 -11.9589,0.9756c0,0 6.87169,-2.978 12.08266,-2.57469c5.21097,0.40329 12.63061,4.48738 12.63061,4.48738c0,0 -8.54887,-2.56279 -12.75437,-2.88828z" fill="#000000" stroke="none" stroke-width="0" stroke-linecap="butt"/><path d="M268.99199,143.72318c0,-12.96801 10.51265,-23.48065 23.48066,-23.48065c12.96801,0 23.48065,10.51264 23.48065,23.48065c0,3.27374 -46.96131,3.21036 -46.96131,0z" fill="#f1c68c" stroke="#000000" stroke-width="2" stroke-linecap="butt"/><path d="M323.25046,143.7232c0,-12.96801 10.51264,-23.48065 23.48065,-23.48065c12.96801,0 23.48066,10.51264 23.48066,23.48065c0,3.02053 -46.96131,3.46833 -46.96131,0z" fill="#f1c68c" stroke="#000000" stroke-width="2" stroke-linecap="butt"/><path d="M263.01154,103.97624c0,0 7.87645,-25.3001 9.82871,-31.57102c0.82851,-2.66129 29.05584,-11.92767 44.64196,-11.50508c4.25426,0.11535 18.38963,5.09493 32.77332,8.5203c16.90615,4.02607 34.02127,6.70953 33.85958,8.69474c-0.5693,6.98975 -2.47849,30.43032 -2.47849,30.43032" fill="#6a2a1c" stroke="#000000" stroke-width="2" stroke-linecap="round"/><path d="M368.21166,110.86551c0,0.55528 -12.43306,3.27085 -24.77331,5.04624c-8.5038,1.22344 -16.96352,1.7765 -21.2802,1.7765c-7.53288,0 -49.46488,-9.86486 -49.46488,-11.51338c0,-8.0072 23.69927,-9.80769 49.25167,-9.80769c25.5524,0 46.26672,6.49112 46.26672,14.49833z" fill="#6a2a1c" stroke="#000000" stroke-width="0" stroke-linecap="butt"/><path d="M264.06599,103.44902l2.81185,-9.31427c0,0 38.75476,4.67639 57.99645,5.9454c18.94815,1.24965 56.58659,1.61146 56.58659,1.61146l-1.05445,6.85389c0,0 -6.28004,0.36821 -14.83373,1.17734c-12.81185,1.21192 -30.94307,2.97596 -42.46365,2.47128c-19.56167,-0.85693 -59.04307,-8.74511 -59.04307,-8.74511z" fill="#1a2323" stroke="#000000" stroke-width="2" stroke-linecap="round"/><path d="M260.90265,117.85977c0,0 -20.6745,-9.84548 -7.7326,-13.00483c12.9419,-3.15935 38.59263,10.87088 67.76103,12.96206c29.1684,2.09118 45.89545,-12.18865 72.65592,-6.45965c26.76047,5.729 -13.35631,11.77463 -13.35631,11.77463" fill="none" stroke="#000000" stroke-width="2" stroke-linecap="round"/></g><path d="M314.51139,201.49874c0,-1.15099 2.46736,-2.08405 5.511,-2.08405c3.04364,0 5.511,0.93306 5.511,2.08405c0,1.15099 -2.46736,2.08405 -5.511,2.08405c-3.04364,0 -5.511,-0.93306 -5.511,-2.08405z" fill="#000000" stroke="#000000" stroke-width="2" stroke-linecap="butt"/><path d="M371.09217,88.45999c0,0 -17.56822,-1.33282 -26.45058,-3.05289c-9.52543,-1.84461 -28.90779,-7.6673 -28.90779,-7.6673" fill="none" stroke="#592317" stroke-width="2" stroke-linecap="round"/></g></g></svg>