<svg version="1.1" xmlns="http://www.w3.org/2000/svg" xmlns:xlink="http://www.w3.org/1999/xlink" width="213.18203" height="280.18476" viewBox="0,0,213.18203,280.18476"><defs><linearGradient x1="282.07478" y1="130.33971" x2="273.90657" y2="168.27305" gradientUnits="userSpaceOnUse" id="color-1"><stop offset="0" stop-color="#000000"/><stop offset="1" stop-color="#000000"/></linearGradient><linearGradient x1="336.39519" y1="128.19326" x2="327.88295" y2="167.72438" gradientUnits="userSpaceOnUse" id="color-2"><stop offset="0" stop-color="#000000"/><stop offset="1" stop-color="#000000"/></linearGradient></defs><g transform="translate(-214.52366,-38.88751)"><g stroke-miterlimit="10"><g stroke="#000000"><g fill="#000000" stroke-width="0" stroke-linecap="butt"><path d="M286.3519,319.07226c0,0 -34.58333,-86.60432 -34.22146,-108.23215c0.15485,-9.25387 36.36452,-19.85135 36.36452,-19.85135l44.44528,-35.0872c0,0 56.23683,-3.14114 58.17019,7.70198c4.07886,22.87611 -38.25854,155.46873 -38.25854,155.46873z"/></g><path d="M311.66192,215.77749l9.03097,42.6171l-5.64261,8.57657l-10.77239,-9.42136l0.72085,-41.56689z" fill="#ffffff" stroke-width="2" stroke-linecap="round"/><path d="M316.7007,210.2566c0.23717,2.33684 0.90836,4.80014 -0.53561,6.3641c-1.52751,1.65446 -5.25054,2.34315 -7.89492,2.34315c-2.25931,0 -5.05803,-0.23979 -6.79775,-1.49064c-2.22137,-1.59715 -3.12653,-4.51982 -3.40026,-7.21663c-0.25038,-2.46717 -0.01005,-5.71902 1.5928,-7.3034c1.52135,-1.50382 4.33274,-1.40386 6.83773,-1.40386c2.95234,0 6.12012,0.08896 8.02992,2.09229c1.41782,1.48723 1.96011,4.56601 2.16808,6.61497z" fill="#ffffff" stroke-width="2" stroke-linecap="butt"/></g><path d="M214.52366,306.61252v-267.72501h213.18203v267.72501z" fill="none" stroke="none" stroke-width="0" stroke-linecap="butt"/><path d="" fill="none" stroke="#000000" stroke-width="2" stroke-linecap="round"/><path d="M217.25553,261.10422c0,-0.41421 0.33579,-0.75 0.75,-0.75c0.41421,0 0.75,0.33579 0.75,0.75c0,0.41421 -0.33579,0.75 -0.75,0.75c-0.41421,0 -0.75,-0.33579 -0.75,-0.75z" fill="#000000" stroke="none" stroke-width="0.5" stroke-linecap="butt"/><g stroke="#000000" stroke-linecap="butt"><path d="M242.0913,144.70352c1.0061,-33.28665 30.56845,-59.40194 66.02937,-58.33013c35.46094,1.07182 63.39212,28.92485 62.38601,62.21149c-1.0061,33.28665 -30.56844,59.40196 -66.02938,58.33015c-35.46091,-1.07181 -63.3921,-28.92485 -62.386,-62.21149z" fill="#000000" stroke-width="2"/><path d="M255.20208,144.56676c0.10702,-3.54089 13.72658,-14.65993 25.13808,-14.31501c11.41152,0.34491 21.89036,12.80368 21.80179,15.73376c-0.39178,12.9621 -11.21724,23.15234 -24.1793,22.76057c-12.9621,-0.39178 -23.15234,-11.21726 -22.76055,-24.17931z" fill="url(#color-1)" stroke-width="2"/><path d="M264.72152,138.9217c0.22593,-7.47513 6.46888,-13.35179 13.94402,-13.12586c7.47512,0.22594 13.3518,6.46892 13.12584,13.94404c-0.22593,7.47513 -6.46891,13.3518 -13.94404,13.12585c-7.47512,-0.22594 -13.35177,-6.46888 -13.12584,-13.94404z" fill="#000000" stroke-width="5"/><path d="M331.93744,168.19704c-12.9621,-0.39178 -23.15233,-11.21724 -22.76055,-24.17931c0.09231,-3.05421 12.45981,-16.64677 23.80193,-16.30395c11.3421,0.34281 23.24142,14.29944 23.13796,17.72272c-0.39178,12.9621 -11.21723,23.15235 -24.17931,22.76055z" fill="url(#color-2)" stroke-width="2"/><path d="M346.43688,137.58537c-0.22902,7.57775 -6.55767,13.53503 -14.1354,13.30601c-7.57771,-0.22903 -13.53502,-6.55769 -13.306,-14.13541c0.22902,-7.57775 6.55768,-13.53502 14.1354,-13.30601c7.57771,0.22903 13.53502,6.55768 13.30598,14.13539z" fill="#000000" stroke-width="5"/><path d="M241.89238,143.16515l-6.88547,-53.99107c0,0 39.80284,-20.51249 67.38476,-21.44853c27.58193,-0.93604 63.01389,17.02322 63.01389,17.02322l5.56242,55.43977z" fill="#000000" stroke-width="2"/><path d="M237.9315,143.22649l3.53646,-8.61894l127.34761,-0.40428l0.95538,7.75878z" fill="#ffffff" stroke-width="0"/><path d="M230.65646,150.98561c0,0 -2.84044,-3.25618 -3.5457,-5.13766c-0.75337,-2.0098 -0.83969,-6.56156 -0.83969,-6.56156l156.2085,-0.08006c0,0 -0.50627,3.56029 -1.17047,5.4412c-0.72152,2.04313 -3.00099,6.37128 -3.00099,6.37128z" fill="#000000" stroke-width="2"/></g><g fill-opacity="0.99216" fill="#ffffff" stroke="none" stroke-width="0.5" stroke-linecap="butt"><path d="M282.19586,176.44876c0.74506,0.08609 0.64592,0.98151 0.64592,0.98151l-0.01259,0.11373c0.15478,0.13134 0.2367,0.28154 0.27411,0.43034c0.39735,0.26079 0.32961,0.87264 0.32961,0.87264c-0.10501,0.9483 -0.29729,1.85852 -0.48928,2.75499c0.10073,1.65535 0.12384,3.29637 -0.36212,3.91594c-0.1033,0.1317 -0.2031,0.24614 -0.29947,0.34458l-0.0047,0.04244c0,0 -0.09915,0.89541 -0.84422,0.80931c-0.43513,-0.05028 -0.58232,-0.3766 -0.62948,-0.63939c-0.30611,-0.34077 -0.50652,-0.93982 -0.61041,-1.5508c-0.23663,-1.39176 0.33552,-3.72683 0.97489,-5.41633c0.0351,-0.46177 0.08161,-0.92808 0.13436,-1.40587l0.04915,-0.44378c0,0 0.09915,-0.89541 0.84422,-0.80931z"/><path d="M289.88331,181.39025c-0.05849,0.52818 -0.11697,1.05635 -0.17546,1.58454c0.00999,0.12342 -0.00705,0.2375 -0.03748,0.33855l-0.13104,1.18344c-0.01067,0.09639 -0.03362,0.18773 -0.0667,0.27202l-0.07678,1.01597c-0.00102,0.0144 -0.00233,0.02887 -0.00394,0.04339c-0.05475,0.49452 -0.43274,0.85685 -0.84422,0.80931c-0.26271,-0.03036 -0.47559,-0.22046 -0.58091,-0.48266l-0.58148,-1.39358c-0.0656,-0.15149 -0.09467,-0.32872 -0.07552,-0.51399l0.02461,-0.24096c-0.11077,-0.32179 -0.19721,-0.65394 -0.25186,-0.99654l0.05499,-0.13891l-0.04872,-0.00564l0.14743,-1.33136c0.03356,-0.30303 0.18848,-0.55643 0.3981,-0.6963l-0.05111,-1.603c-0.00262,-0.05565 -0.00091,-0.11257 0.00548,-0.17024c0.05475,-0.49452 0.43274,-0.85685 0.84422,-0.80931c0.29546,0.03414 0.52787,0.27033 0.61517,0.58388l0.49392,1.65613l-0.01412,0.00655c0.4261,0.25071 0.35545,0.8887 0.35545,0.8887z"/><path d="M294.11922,183.18283c-0.09394,-0.38928 -0.15299,-0.79465 -0.19117,-1.18863l0.09186,-0.09998l-0.08562,-0.00956l0.05076,-0.4699l-0.00358,-0.00041l0.14663,-1.32396v0c0.05476,-0.49452 0.43273,-0.85684 0.84422,-0.8093c0.40727,0.04706 0.69472,0.478 0.6475,0.96629c0.73808,0.09049 0.63949,0.98074 0.63949,0.98074c-0.01026,0.08854 -0.02104,0.17721 -0.03241,0.26591c0.00132,0.11802 -0.01855,0.22858 -0.04371,0.32027c-0.1284,0.88492 -0.32276,1.76635 -0.646,2.57907c-0.00894,0.07009 -0.0176,0.14066 -0.0258,0.21163l-0.1619,1.46214c-0.05475,0.49452 -0.43274,0.85685 -0.84422,0.80931c-0.41149,-0.04755 -0.70068,-0.487 -0.64592,-0.98151l0.04915,-0.44378v0l0.12522,-1.13084c0.04651,-0.44438 0.0701,-0.81353 0.08555,-1.13744z"/><path d="M305.91264,180.5844c0.67547,0.36484 0.34581,1.18707 0.34581,1.18707l-0.45927,1.11974c-0.03529,0.31871 -0.13527,1.22158 -0.13527,1.22158c-0.05475,0.49452 -0.43274,0.85685 -0.84422,0.80931c-0.21989,-0.0254 -0.40485,-0.16273 -0.52107,-0.36056c-0.15654,0.16631 -0.36686,0.25795 -0.58675,0.23254c-0.41149,-0.04755 -0.70068,-0.487 -0.64592,-0.98151l0.14743,-1.33136c0,0 0.06569,-0.59327 0.49198,-0.76756c-0.00188,-0.17644 0.00742,-0.35233 0.02473,-0.52114l0.14743,-1.33136c0.05475,-0.49452 0.43274,-0.85685 0.84422,-0.80931c0.33516,0.03873 0.58919,0.33745 0.6423,0.71416l0.11845,0.73367c0.12326,-0.02235 0.26657,-0.00361 0.43017,0.08475z"/><path d="M310.49919,177.48008c0.05475,-0.49452 0.43274,-0.85685 0.84422,-0.80931c0.41149,0.04755 0.70068,0.487 0.64592,0.98151l-0.344,3.10652c-0.03652,0.32981 -0.2168,0.60082 -0.45491,0.73066l-0.0618,0.55803c-0.05475,0.49452 -0.43274,0.85685 -0.84422,0.80931c-0.33516,-0.03873 -0.58919,-0.33745 -0.6423,-0.71416c-0.07395,-0.45801 -0.36648,-2.26984 -0.44044,-2.72786c0,0 -0.14155,-0.87669 0.59664,-1.07815c0.12866,-0.03511 0.23918,-0.03747 0.334,-0.01745c0.06848,-0.11966 0.1669,-0.23446 0.30746,-0.3025z"/><path d="M317.80249,177.91318c0.67547,0.36484 0.34581,1.18707 0.34581,1.18707l-0.47263,1.15228c-0.0435,0.42095 -0.13806,0.83236 -0.26482,1.23457l0.13203,0.02886l-0.09479,0.52136c0.01542,0.09312 0.0185,0.19136 0.00738,0.29186c-0.01699,0.15346 -0.06512,0.29419 -0.13569,0.4139l-0.0128,0.0704c-0.07953,0.46036 -0.44193,0.78876 -0.83489,0.74336c-0.35687,-0.04124 -0.62176,-0.37723 -0.65005,-0.7883l-0.11423,-1.31131l-0.01631,-0.02244c0.00256,-0.0255 0.00512,-0.05099 0.0077,-0.07649l-0.03075,-0.35297l0.00423,-0.0007l-0.00561,-0.01675c0.00127,-0.00603 0.00253,-0.01207 0.00381,-0.01808l-0.00488,0.00059l-0.09555,-1.77152c-0.00448,-0.06347 -0.00331,-0.12873 0.00402,-0.19497c0.05475,-0.49452 0.43274,-0.85685 0.84422,-0.80931c0.14392,0.01663 0.27287,0.0812 0.37739,0.1793l0.00126,-0.00322c0,0 0.32968,-0.82223 1.00516,-0.4574z"/><path d="M324.58662,178.71934c0.0013,-0.02011 0.00266,-0.04021 0.00405,-0.06032l-0.00984,-0.00113l0.19657,-1.77515c0.05475,-0.49452 0.43274,-0.85685 0.84422,-0.80931c0.27329,0.03158 0.49265,0.23603 0.59312,0.51468c0.07344,0.00188 0.15345,0.01689 0.24049,0.04872c0.71116,0.26004 0.46782,1.12117 0.46782,1.12117c-0.32446,1.14817 -0.64892,2.29636 -0.97338,3.44453l-0.25208,0.89204c-0.10888,0.41128 -0.44858,0.69366 -0.81482,0.65134c-0.41149,-0.04755 -0.70068,-0.487 -0.64592,-0.98151l0.2457,-2.21895l0.00155,0.00017c0.03246,-0.27565 0.06668,-0.5511 0.10252,-0.8263z"/><path d="M330.96247,178.50434c-0.35688,-0.04124 -0.52006,-0.26816 -0.59324,-0.49342c-0.08525,0.10529 -0.17154,0.20944 -0.2588,0.31247l0.04701,0.03608l-0.45842,0.82839c-0.15301,0.28906 -0.43292,0.46885 -0.73036,0.43446c-0.33516,-0.03873 -0.58919,-0.33745 -0.6423,-0.71416l-0.21858,-1.35382l0.03649,-0.00995l-0.04962,-0.13307c0.05123,-0.49197 0.10245,-0.98393 0.15369,-1.47591c0,0 0.09915,-0.89541 0.84422,-0.80931c0.74506,0.08609 0.64592,0.98151 0.64592,0.98151c-0.00613,0.0515 -0.01225,0.10298 -0.01838,0.15448c0.03416,-0.04836 0.06742,-0.09489 0.09891,-0.13914l0.43872,-0.79278c0.15301,-0.28906 0.43292,-0.46885 0.73036,-0.43446c0.29744,0.03437 0.53096,0.2735 0.61691,0.59016l0.2657,0.91206l-0.06396,1.29711c0,0 -0.09915,0.89541 -0.84422,0.80931z"/><path d="M326.33178,193.24318c0.06046,-0.54603 0.36112,-0.72707 0.58655,-0.78521c-0.02652,-0.60852 0.01694,-1.23182 0.07758,-1.83485c0,0 0.09915,-0.89541 0.84422,-0.80931c0.74506,0.08609 0.64592,0.98151 0.64592,0.98151c-0.09417,0.76183 -0.1866,1.58931 0.04011,2.29588l-1.54846,1.13349c0,0 -0.74506,-0.08609 -0.64592,-0.98151z"/><path d="M322.64814,196.50103c0.05921,-0.02694 0.11518,-0.04581 0.16805,-0.05779l0.33417,-1.43544c0.09526,-0.43552 0.44623,-0.74026 0.82571,-0.6964c0.33516,0.03873 0.58919,0.33745 0.6423,0.71416l0.21858,1.35382c0,0 0.14155,0.87669 -0.59664,1.07815c-0.04195,0.01146 -0.08197,0.01942 -0.12014,0.02425l-0.22998,0.98787c-0.09526,0.43552 -0.44623,0.74026 -0.82571,0.6964c-0.29744,-0.03437 -0.53096,-0.2735 -0.61691,-0.59016l-0.2657,-0.91206l0.39162,-0.17821l0.17279,-0.74221l1.44711,0.42373l-0.07326,0.31466c-0.03058,0.00387 -0.05997,0.00575 -0.08821,0.00581l-0.84684,1.68069l-1.00323,-1.50446c0,0 -0.24452,-0.83938 0.46623,-1.16281z"/><path d="M317.49005,202.18834c0.00472,-0.12406 0.02306,-0.23089 0.0512,-0.32283c-0.00481,-0.06471 -0.00375,-0.1313 0.00374,-0.19893l0.19657,-1.77515c0.05475,-0.49452 0.43274,-0.85685 0.84422,-0.80931c0.29744,0.03437 0.53096,0.2735 0.61691,0.59016c0.09034,0.31008 0.44636,1.53223 0.53669,1.84232c0,0 0.24452,0.83938 -0.46623,1.16281c-0.25343,0.11532 -0.44757,0.08281 -0.59251,-0.00678l-0.47389,0.42534c0,0 -0.75086,-0.00812 -0.71669,-0.90764z"/><path d="M310.71879,203.06487c-0.40611,-0.25783 -0.33746,-0.8777 -0.33746,-0.8777l1.50337,-0.68653c0.19287,0.64955 0.07739,1.40366 0.26338,2.05632c0.19483,0.68366 -0.06444,-1.5183 0.20341,-2.18632c0.28781,-0.71783 0.5165,-1.77949 1.16159,-1.95151c0.56695,-0.15119 0.8746,0.86127 1.3119,1.2919c0,0 0.45673,0.69403 -0.14023,1.2663c-0.4428,0.4245 -0.80844,0.15224 -0.96775,-0.01667c0.02819,0.94524 -0.18788,3.40535 -1.70537,3.39273c-0.74056,-0.00616 -0.87051,-1.40172 -1.23587,-2.15716c-0.0207,-0.04279 -0.03956,-0.08663 -0.05697,-0.13135z"/><path d="M304.6978,203.24044c-0.62207,-0.47745 -0.20019,-1.23982 -0.20019,-1.23982l0.4421,-0.79891c0.0756,-0.17247 0.20668,-0.36018 0.4304,-0.43561c0.1353,-0.06237 0.2999,-0.08071 0.48667,0.00944c0.1941,0.06683 0.31072,0.20111 0.38028,0.34792c0.13142,0.2231 0.12693,0.4654 0.08839,0.65411l-0.03669,0.31226c-0.22635,3.92818 1.31107,-0.56503 2.79586,-1.31312c0,0 0.71075,-0.32342 0.95527,0.51596c0.24452,0.83938 -0.46623,1.16281 -0.46623,1.16281c-1.80835,0.6696 -3.46446,6.76553 -4.82517,0.84892c-0.00246,-0.01069 -0.00477,-0.0214 -0.00692,-0.03216c-0.01449,-0.00993 -0.02907,-0.02053 -0.04379,-0.03182z"/><path d="M301.35337,199.33808c0.74506,0.08609 0.64592,0.98151 0.64592,0.98151l-0.13529,1.22172c0.40464,-0.18659 0.80927,-0.37319 1.21393,-0.55979c0,0 0.71075,-0.32342 0.95527,0.51596c0.24452,0.83938 -0.46623,1.16281 -0.46623,1.16281c-0.43344,0.19422 -0.86688,0.38842 -1.3003,0.58263l-0.9236,0.81318c-0.14919,0.13223 -0.33681,0.2019 -0.53198,0.17934c-0.41149,-0.04755 -0.70068,-0.487 -0.64592,-0.98151l0.344,-3.10652c0,0 0.09915,-0.89541 0.84422,-0.80931z"/><path d="M297.01941,201.02099l-1.10386,0.79901c0.17148,-0.12081 0.34296,-0.24163 0.51445,-0.36243l-0.14743,1.33136l-1.05643,-1.49807c0,0 -0.24452,-0.83938 0.46623,-1.16281c0.17289,-0.07868 0.31818,-0.08854 0.43909,-0.05843c0.03368,-0.05829 0.0745,-0.11529 0.12388,-0.16621l0.02528,-0.22834c0.03087,0.04378 0.06176,0.08756 0.09262,0.13134c0.11468,-0.07354 0.26189,-0.11463 0.45049,-0.09283c0.74506,0.08609 0.64592,0.98151 0.64592,0.98151l-0.31098,0.2251c0.05947,0.08432 0.11891,0.16864 0.17838,0.25295l-0.27951,-0.13387l-0.10459,0.94452c-0.05475,0.49452 -0.43274,0.85685 -0.84422,0.80931c-0.29744,-0.03437 -0.53096,-0.2735 -0.61691,-0.59016l-0.2657,-0.91206l0.30995,-0.14104l0.07415,-0.6696l1.49014,0.1722l-0.04284,0.38684z"/><path d="M289.23353,195.8899c0,0 -0.45673,-0.69403 0.14023,-1.2663c0.59695,-0.57227 1.05368,0.12177 1.05368,0.12177c0.14176,0.21924 0.28351,0.4385 0.42527,0.65774c0.32112,-1.47965 1.70391,-0.17277 2.15348,1.34314l-1.57589,1.01153c0,0 -0.03534,-0.00409 -0.08958,-0.01973c-0.15815,0.25577 -0.4205,0.41025 -0.69811,0.37817c-0.29744,-0.03437 -0.53096,-0.2735 -0.61691,-0.59016l-0.23568,-0.80904c-0.1855,-0.27572 -0.37099,-0.55141 -0.55648,-0.82711z"/><path d="M283.6536,190.96419c0,0 -0.24452,-0.83938 0.46623,-1.16281c0.71075,-0.32342 0.95527,0.51596 0.95527,0.51596c0.00732,0.03173 0.01509,0.06409 0.02295,0.09688c0.02535,-0.01443 0.05215,-0.02815 0.08046,-0.04103c0.00868,-0.00396 0.01728,-0.00773 0.02583,-0.01134c0.15163,-0.29569 0.43496,-0.48062 0.73627,-0.4458c0.41149,0.04755 0.70068,0.487 0.64592,0.98151l-0.14743,1.33136c-0.05475,0.49452 -0.43274,0.85685 -0.84422,0.80931c-0.21243,-0.02455 -0.39228,-0.15354 -0.50901,-0.34064c-0.61285,-0.41046 -1.18494,-0.97553 -1.43226,-1.7334z"/></g></g></g></svg>