<svg version="1.1" xmlns="http://www.w3.org/2000/svg" xmlns:xlink="http://www.w3.org/1999/xlink" width="213.18203" height="280.26022" viewBox="0,0,213.18203,280.26022"><defs><radialGradient cx="356.47403" cy="160.44631" r="23.96061" gradientUnits="userSpaceOnUse" id="color-1"><stop offset="0" stop-color="#ffffff"/><stop offset="1" stop-color="#ff9494"/></radialGradient></defs><g transform="translate(-214.52362,-38.81207)"><g stroke-miterlimit="10"><path d="M385.40671,242c0,0 0.52834,-21.42837 1.01433,-31.63424c0.37214,-7.81507 -54.34766,14.3009 -54.34766,14.3009l6.33333,-21c0,0 70.27613,-11.23297 68.05109,-1.81205c-2.43147,10.29497 -5.71776,41.14539 -5.71776,41.14539z" fill="#ff7be1" stroke="none" stroke-width="0" stroke-linecap="butt"/><path d="M247.51543,241.66667c0,0 -6.87393,-29.10453 -9.71775,-41.14539c-2.22504,-9.42092 60.71775,0.14539 60.71775,0.14539l1,20.33333c0,0 -42.05314,-19.78264 -41.681,-11.96757c0.48599,10.20587 6.01433,28.3009 6.01433,28.3009z" fill="#ff7be1" stroke="none" stroke-width="0" stroke-linecap="butt"/><path d="M214.52362,306.61253v-267.72501c0,0 32.72627,0 56.15261,0c39.17509,0 157.02942,0 157.02942,0v267.72501z" fill="none" stroke="none" stroke-width="0" stroke-linecap="butt"/><g stroke-linecap="butt"><path d="M286.35186,319.07227l9.06371,-120.52232l37.77597,-0.14433l19.66031,120.66667z" fill="#ff7be1" stroke="#000000" stroke-width="0"/><path d="M291.95797,244.52658c1.29112,-17.16822 3.4576,-45.97663 3.4576,-45.97663l37.77597,-0.14433c0,0 4.76411,29.24003 7.58504,46.55375c0.04293,0.26352 -48.85126,0.00125 -48.81861,-0.43278z" fill="#da5cb1" stroke="#000000" stroke-width="0"/><path d="M292.6312,235.5743c1.11426,-14.8166 2.78436,-37.02436 2.78436,-37.02436l37.77597,-0.14433c0,0 3.7187,22.82384 6.17354,37.89051c0.01738,0.10663 -46.75447,-0.44775 -46.73386,-0.72182z" fill="#940039" stroke="#000000" stroke-width="0"/><path d="M293.25161,227.32461c0.92475,-12.29666 2.16396,-28.77467 2.16396,-28.77467l37.77597,-0.14433c0,0 2.65691,16.30701 4.6477,28.52559c0.03238,0.19872 -44.59871,0.54082 -44.58762,0.39341z" fill="#7c0000" stroke="#000000" stroke-width="0"/><path d="M297.22675,227.74442c0.03183,0.63109 -0.502,1.14268 -1.19236,1.14268c-0.08006,0 -0.1587,-0.00688 -0.23523,-0.02003c-0.18375,0.06224 -0.38382,0.0962 -0.59426,0.0962c-0.9665,0 -1.78613,-0.71623 -1.83069,-1.59975c-0.04456,-0.88352 0.70281,-1.59975 1.66931,-1.59975c0.79013,0 1.4821,0.47868 1.73269,1.13612c0.26121,0.20897 0.43367,0.50995 0.45055,0.84452z" fill="#7c0000" stroke="none" stroke-width="0.5"/><path d="M334.56249,231.09627c-0.00397,-0.07869 0.00087,-0.15553 0.01369,-0.22975c-0.66481,-0.02773 -1.21858,-0.52817 -1.24952,-1.14146c-0.02488,-0.49326 0.29581,-0.91352 0.76672,-1.07357c-0.15077,-0.06535 -0.29091,-0.14908 -0.41671,-0.24792c-0.29683,0.25332 -0.69791,0.40735 -1.14612,0.40735c-0.27463,0 -0.53741,-0.05784 -0.77391,-0.1609c-0.30191,0.28777 -0.72911,0.46561 -1.21072,0.46561c-0.74683,0 -1.40596,-0.42765 -1.68757,-1.02969c-0.21019,0.29982 -0.57801,0.49644 -1.006,0.49644c-0.69036,0 -1.2758,-0.51159 -1.30764,-1.14268c-0.03183,-0.63109 0.502,-1.14268 1.19236,-1.14268c0.45596,0 0.86615,0.22316 1.1013,0.55652c0.24762,-0.55299 0.83808,-0.93742 1.54615,-0.93742c0.27463,0 0.53741,0.05784 0.77391,0.1609c0.30191,-0.28777 0.72911,-0.46561 1.21072,-0.46561c0.4482,0 0.86483,0.15403 1.18722,0.40735c0.29683,-0.25332 0.69791,-0.40735 1.14612,-0.40735c0.31544,0 0.61523,0.07629 0.87754,0.20979c0.14659,-0.03743 0.30198,-0.05744 0.46348,-0.05744c0.9665,0 1.78613,0.71623 1.83069,1.59975c0.04456,0.88352 -0.70281,1.59975 -1.66931,1.59975c-0.31544,0 -0.61523,-0.07629 -0.87754,-0.20979c-0.03343,0.00853 -0.0673,0.01616 -0.10161,0.02285c0.34394,0.2052 0.58097,0.55353 0.6009,0.94872c0.00397,0.07869 -0.00086,0.15553 -0.01368,0.22975c0.66481,0.02773 1.21858,0.52817 1.24952,1.14146c0.03183,0.63109 -0.502,1.14268 -1.19236,1.14268c-0.69036,0 -1.2758,-0.51159 -1.30764,-1.14268z" fill="#7c0000" stroke="none" stroke-width="0.5"/><path d="M315.8819,227.51588c-0.04456,-0.88352 0.70281,-1.59975 1.66931,-1.59975c0.77188,0 1.45007,0.45682 1.71461,1.09084c0.28092,-0.47057 0.82591,-0.78613 1.46743,-0.78613c0.59378,0 1.13213,0.27034 1.46937,0.68371c0.25537,-0.14391 0.55854,-0.22664 0.88702,-0.22664c0.9665,0 1.78613,0.71623 1.83069,1.59975c0.04456,0.88352 -0.70281,1.59975 -1.66931,1.59975c-0.59378,0 -1.13213,-0.27034 -1.46937,-0.68371c-0.25537,0.14391 -0.55854,0.22664 -0.88702,0.22664c-0.77188,0 -1.45007,-0.45681 -1.71461,-1.09084c-0.02583,0.04328 -0.0539,0.08523 -0.08407,0.12576c-0.2979,0.40018 -0.80083,0.66037 -1.38336,0.66037c-0.9665,0 -1.78613,-0.71623 -1.83069,-1.59975z" fill="#7c0000" stroke="none" stroke-width="0.5"/><path d="M312.18449,226.90645c-0.04456,-0.88352 0.70281,-1.59975 1.66931,-1.59975c0.9665,0 1.78613,0.71623 1.83069,1.59975c0.04456,0.88352 -0.70281,1.59975 -1.66931,1.59975c-0.9665,0 -1.78613,-0.71623 -1.83069,-1.59975z" fill="#7c0000" stroke="none" stroke-width="0.5"/><path d="M308.55241,227.59206c0.03183,0.63109 -0.502,1.14268 -1.19236,1.14268c-0.38125,0 -0.73051,-0.15603 -0.97219,-0.40204c-0.37798,-0.05622 -0.7213,-0.22148 -0.98791,-0.45901c-0.30268,0.29631 -0.73611,0.48016 -1.22578,0.48016c-0.60066,0 -1.14458,-0.27664 -1.481,-0.69814c-0.10192,0.67292 -0.67197,1.19825 -1.41432,1.29247c-0.02767,0.02669 -0.05641,0.05246 -0.08616,0.07724c-0.30387,0.33542 -0.76472,0.54728 -1.29038,0.54728c-0.9665,0 -1.78613,-0.71623 -1.83069,-1.59975c-0.02424,-0.48053 0.18579,-0.91157 0.53792,-1.20481c0.25653,-0.28316 0.62493,-0.47827 1.04976,-0.53219c0.30229,-0.29162 0.7323,-0.47216 1.21756,-0.47216c0.60066,0 1.14458,0.27664 1.481,0.69813c0.11268,-0.74398 0.7976,-1.30755 1.65493,-1.30755c0.48967,0 0.94164,0.18384 1.27422,0.48015c0.30268,-0.29631 0.73611,-0.48015 1.22578,-0.48015c0.9665,0 1.78613,0.71623 1.83069,1.59975c0.00408,0.08089 0.00152,0.1604 -0.00724,0.23806c0.02206,0.03037 0.04266,0.06169 0.06169,0.09385c-0.03012,-0.10708 -0.04871,-0.21811 -0.05445,-0.33192c-0.04456,-0.88352 0.70281,-1.59975 1.66931,-1.59975c0.9665,0 1.78613,0.71623 1.83069,1.59975c0.04456,0.88352 -0.70281,1.59975 -1.66931,1.59975c-0.71424,0 -1.34827,-0.39115 -1.64856,-0.9519c0.01444,0.06182 0.02354,0.12534 0.02681,0.19011z" fill="#7c0000" stroke="none" stroke-width="0.5"/><path d="M294.7904,237.26673c-0.02563,0 -0.05112,-0.00071 -0.07643,-0.0021c-0.02985,0.00139 -0.05994,0.0021 -0.09024,0.0021c-0.9665,0 -1.78613,-0.71623 -1.83069,-1.59975c-0.04456,-0.88352 0.70281,-1.59975 1.66931,-1.59975c0.05622,0 0.11193,0.00241 0.16703,0.00716c0.05462,-0.00474 0.11009,-0.00716 0.16631,-0.00716c0.41194,0 0.79719,0.1301 1.10712,0.34782c0.29862,-0.39575 0.79878,-0.65254 1.37751,-0.65254c0.32128,0 0.62633,0.07915 0.89208,0.21727c0.29168,-0.23081 0.67473,-0.36963 1.10024,-0.36963c0.9665,0 1.78613,0.71623 1.83069,1.59975c0.00501,0.0993 0.00001,0.1965 -0.01417,0.2908c0.23689,-0.57382 0.83833,-0.9764 1.56293,-0.9764c0.9665,0 1.78613,0.71623 1.83069,1.59975c0.04456,0.88352 -0.70281,1.59975 -1.66931,1.59975c-0.9665,0 -1.78613,-0.71623 -1.83069,-1.59975c-0.00501,-0.0993 -0.00001,-0.1965 0.01417,-0.2908c-0.23689,0.57382 -0.83833,0.9764 -1.56293,0.9764c-0.32128,0 -0.62634,-0.07915 -0.89209,-0.21727c-0.29168,0.23081 -0.67472,0.36963 -1.10023,0.36963c-0.41194,0 -0.7972,-0.13011 -1.10713,-0.34783c-0.29862,0.39575 -0.79877,0.65255 -1.3775,0.65255c-0.0303,0 -0.06046,-0.00071 -0.09045,-0.0021c-0.02517,0.00139 -0.05059,0.0021 -0.07621,0.0021z" fill="#940039" stroke="none" stroke-width="0.5"/><path d="M313.18785,236.88583c0.03183,0.63109 -0.502,1.14268 -1.19236,1.14268c-0.26632,0 -0.51704,-0.07614 -0.72638,-0.20591c-0.14203,0.03494 -0.29215,0.05355 -0.44797,0.05355c-0.53411,0 -1.02337,-0.21874 -1.36176,-0.56356c-0.19213,-0.19579 -0.33562,-0.43222 -0.41106,-0.69233c-0.01584,-0.00314 -0.03162,-0.00648 -0.04731,-0.01c0.11847,0.17009 0.19153,0.36845 0.20222,0.58029c0.03183,0.63109 -0.502,1.14268 -1.19236,1.14268c-0.69036,0 -1.2758,-0.51159 -1.30764,-1.14268c-0.01001,-0.19843 0.03591,-0.38505 0.12504,-0.54767c-0.0767,0.00951 -0.15523,0.01442 -0.23527,0.01442c-0.9665,0 -1.78613,-0.71623 -1.83069,-1.59975c-0.04456,-0.88352 0.70281,-1.59975 1.66931,-1.59975c0.58252,0 1.1117,0.26018 1.44998,0.66037c0.2979,-0.40018 0.80083,-0.66037 1.38336,-0.66037c0.83738,0 1.5645,0.53764 1.77282,1.2559c0.63911,0.12669 1.16586,0.56629 1.36695,1.13243c0.44023,0.18024 0.75984,0.57799 0.78313,1.0397zM307.97635,235.99693c-0.01299,0.01744 -0.02636,0.03462 -0.04012,0.05152c0.03043,0.00089 0.06064,0.00277 0.09058,0.0056c-0.01726,-0.0187 -0.03408,-0.03775 -0.05046,-0.05713z" fill="#940039" stroke="none" stroke-width="0.5"/><path d="M316.72627,237.64762c-0.0081,-0.16065 0.02044,-0.31355 0.07891,-0.45224c-0.16147,0.04637 -0.3343,0.07136 -0.51478,0.07136c-0.9665,0 -1.78613,-0.71623 -1.83069,-1.59975c-0.04456,-0.88352 0.70281,-1.59975 1.66931,-1.59975c0.86161,0 1.60651,0.56922 1.78961,1.31873c0.26422,-0.15965 0.58337,-0.25223 0.93086,-0.25223c0.9665,0 1.78613,0.71623 1.83069,1.59975c0.04456,0.88349 -0.70277,1.5997 -1.66922,1.59975c-0.21405,0.27754 -0.56809,0.45707 -0.97704,0.45707c-0.69036,0 -1.2758,-0.51159 -1.30764,-1.14268z" fill="#940039" stroke="none" stroke-width="0.5"/><path d="M325.81873,234.52431c0.9665,0 1.78613,0.71623 1.83069,1.59975c0.00359,0.07121 0.00204,0.14134 -0.00435,0.21009c0.0137,0.07777 0.02302,0.16002 0.02741,0.24698c0.08069,1.59975 -1.66931,1.59975 -1.66931,1.59975h-2.16667c0,0 -1.75,0 -1.83069,-1.59975c-0.08069,-1.59975 1.66931,-1.59975 1.66931,-1.59975h0.94192c0.30137,-0.28273 0.72487,-0.45707 1.20169,-0.45707z" fill="#940039" stroke="none" stroke-width="0.5"/><path d="M339.17249,236.58112c0.03183,0.63109 -0.502,1.14268 -1.19236,1.14268c-0.02738,0 -0.05459,-0.0008 -0.08162,-0.00239c-0.22278,0.09921 -0.47491,0.15475 -0.74403,0.15475c-0.4553,0 -0.87801,-0.15895 -1.20245,-0.41944c-0.19778,0.07401 -0.41579,0.11473 -0.64625,0.11473c-0.4482,0 -0.86483,-0.15403 -1.18722,-0.40735c-0.29683,0.25332 -0.69791,0.40735 -1.14612,0.40735c-0.52566,0 -1.00788,-0.21186 -1.34558,-0.54728c-0.17648,0.66801 -0.82533,1.15671 -1.62368,1.15671c-0.9665,0 -1.78613,-0.71623 -1.83069,-1.59975c-0.04456,-0.88352 0.70281,-1.59975 1.66931,-1.59975c0.52566,0 1.00788,0.21186 1.34558,0.54728c0.17648,-0.66801 0.82533,-1.15671 1.62368,-1.15671c0.4482,0 0.86483,0.15403 1.18722,0.40735c0.29683,-0.25332 0.69791,-0.40735 1.14612,-0.40735c0.4553,0 0.87801,0.15895 1.20245,0.41944c0.19778,-0.07401 0.41579,-0.11473 0.64625,-0.11473c0.7459,0 1.40433,0.4266 1.68653,1.02746c0.28479,0.20961 0.47511,0.52469 0.49288,0.877z" fill="#940039" stroke="none" stroke-width="0.5"/><path d="M291.93617,245.11311c-0.04456,-0.88352 0.70281,-1.59975 1.66931,-1.59975c0.9665,0 1.78613,0.71623 1.83069,1.59975c0.04456,0.88352 -0.70281,1.59975 -1.66931,1.59975c-0.9665,0 -1.78613,-0.71623 -1.83069,-1.59975z" fill="#da5cb1" stroke="none" stroke-width="0.5"/><path d="M296.93617,245.11311c-0.04456,-0.88352 0.70281,-1.59975 1.66931,-1.59975c0.9665,0 1.78613,0.71623 1.83069,1.59975c0.04456,0.88352 -0.70281,1.59975 -1.66931,1.59975c-0.9665,0 -1.78613,-0.71623 -1.83069,-1.59975z" fill="#da5cb1" stroke="none" stroke-width="0.5"/><path d="M306.43112,243.361c0.9665,0 1.78613,0.71623 1.83069,1.59975c0.04456,0.88352 -0.70281,1.59975 -1.66931,1.59975c-0.77985,0 -1.46408,-0.46631 -1.72269,-1.11056c-0.19361,0.64425 -0.83079,1.11056 -1.61065,1.11056c-0.9665,0 -1.78613,-0.71623 -1.83069,-1.59975c-0.04456,-0.88352 0.70281,-1.59975 1.66931,-1.59975c0.77985,0 1.46408,0.46631 1.72269,1.11056c0.19361,-0.64425 0.83079,-1.11056 1.61065,-1.11056z" fill="#da5cb1" stroke="none" stroke-width="0.5"/><path d="M314.46691,245.72254c0.03183,0.63109 -0.502,1.14268 -1.19236,1.14268c-0.2814,0 -0.54538,-0.08501 -0.76152,-0.22845c0.03178,0.63104 -0.50205,1.14259 -1.19237,1.14259c-0.69036,0 -1.2758,-0.51159 -1.30764,-1.14268c-0.00689,-0.13654 0.0127,-0.26749 0.05463,-0.38887c-0.88803,-0.08058 -1.6127,-0.76249 -1.65453,-1.59179c-0.04456,-0.88352 0.70281,-1.59975 1.66931,-1.59975c0.20175,0 0.3971,0.03121 0.58034,0.08864c0.26049,-0.15274 0.57273,-0.24099 0.91197,-0.24099c0.9665,0 1.78613,0.71623 1.83069,1.59975c0.00167,0.03306 0.00222,0.06587 0.0017,0.09843c0.57746,0.10471 1.03184,0.56656 1.05977,1.12043z" fill="#da5cb1" stroke="none" stroke-width="0.5"/><path d="M315.39775,244.35133c-0.04456,-0.88352 0.70281,-1.59975 1.66931,-1.59975c0.9665,0 1.78613,0.71623 1.83069,1.59975c0.04456,0.88352 -0.70281,1.59975 -1.66931,1.59975c-0.9665,0 -1.78613,-0.71623 -1.83069,-1.59975z" fill="#da5cb1" stroke="none" stroke-width="0.5"/><path d="M319.18736,246.78903c-0.02695,-0.53435 0.35165,-0.98305 0.88744,-1.10804c-0.48285,-0.28707 -0.81577,-0.77546 -0.84373,-1.32967c-0.04456,-0.88352 0.70281,-1.59975 1.66931,-1.59975c0.9665,0 1.78613,0.71623 1.83069,1.59975c0.04186,0.82987 -0.61498,1.51215 -1.49581,1.59195c0.26207,0.20903 0.4352,0.51053 0.45211,0.84576c0.03183,0.63109 -0.502,1.14268 -1.19236,1.14268c-0.69036,0 -1.2758,-0.51159 -1.30764,-1.14268z" fill="#da5cb1" stroke="none" stroke-width="0.5"/><path d="M322.71571,244.04661c-0.04456,-0.88352 0.70281,-1.59975 1.66931,-1.59975c0.9665,0 1.78613,0.71623 1.83069,1.59975c0.04456,0.88352 -0.70281,1.59975 -1.66931,1.59975c-0.9665,0 -1.78613,-0.71623 -1.83069,-1.59975z" fill="#da5cb1" stroke="none" stroke-width="0.5"/><path d="M332.77215,243.51336c0.9665,0 1.78613,0.71623 1.83069,1.59975c0.04456,0.88352 -0.70281,1.59975 -1.66931,1.59975c-0.67289,0 -1.27459,-0.34716 -1.59311,-0.85626c-0.2932,0.42474 -0.81119,0.7039 -1.41458,0.7039c-0.9665,0 -1.78613,-0.71623 -1.83069,-1.59975c-0.04456,-0.88352 0.70281,-1.59975 1.66931,-1.59975c0.67289,0 1.27458,0.34717 1.5931,0.85626c0.2932,-0.42474 0.81119,-0.70391 1.41458,-0.70391z" fill="#da5cb1" stroke="none" stroke-width="0.5"/><path d="M339.09011,243.20865c0.9665,0 1.78613,0.71623 1.83069,1.59975c0.04456,0.88352 -0.70281,1.59975 -1.66931,1.59975c-0.618,0 -1.17595,-0.29284 -1.50962,-0.735c-0.29923,0.26693 -0.71083,0.43029 -1.17242,0.43029c-0.9665,0 -1.78613,-0.71623 -1.83069,-1.59975c-0.04456,-0.88352 0.70281,-1.59975 1.66931,-1.59975c0.618,0 1.17595,0.29284 1.50962,0.735c0.29923,-0.26692 0.71083,-0.43029 1.17242,-0.43029z" fill="#da5cb1" stroke="none" stroke-width="0.5"/><path d="M299.12181,230.27975c0.77345,0.92984 -0.21022,1.594 -0.21022,1.594l-1.12825,0.76178c0,0 -0.98367,0.66417 -1.75712,-0.26567c-0.77345,-0.92984 0.21022,-1.59401 0.21022,-1.59401l1.12825,-0.76179c0,0 0.98367,-0.66416 1.75712,0.26567z" fill="#7c0000" stroke="none" stroke-width="0.5"/><path d="M312.34971,230.18213c-0.03183,-0.63109 0.502,-1.14268 1.19236,-1.14268c0.69036,0 1.2758,0.51159 1.30764,1.14268c0.03183,0.63109 -0.502,1.14268 -1.19236,1.14268c-0.69036,0 -1.2758,-0.51159 -1.30764,-1.14268z" fill="#7c0000" stroke="none" stroke-width="0.5"/><path d="M315.06249,231.09627c-0.03183,-0.63109 0.502,-1.14268 1.19236,-1.14268c0.69036,0 1.2758,0.51159 1.30764,1.14268c0.03183,0.63109 -0.502,1.14268 -1.19236,1.14268c-0.69036,0 -1.2758,-0.51159 -1.30764,-1.14268z" fill="#7c0000" stroke="none" stroke-width="0.5"/><path d="M323.72916,231.09627c-0.03183,-0.63109 0.502,-1.14268 1.19236,-1.14268c0.69036,0 1.2758,0.51159 1.30764,1.14268c0.03183,0.63109 -0.502,1.14268 -1.19236,1.14268c-0.69036,0 -1.2758,-0.51159 -1.30764,-1.14268z" fill="#7c0000" stroke="none" stroke-width="0.5"/><path d="M295.68257,240.08533c-0.03183,-0.63109 0.502,-1.14268 1.19236,-1.14268c0.69036,0 1.2758,0.51159 1.30764,1.14268c0.03183,0.63109 -0.502,1.14268 -1.19236,1.14268c-0.69036,0 -1.2758,-0.51159 -1.30764,-1.14268z" fill="#940039" stroke="none" stroke-width="0.5"/><path d="M301.45442,238.86648c-0.03183,-0.63109 0.502,-1.14268 1.19236,-1.14268c0.69036,0 1.2758,0.51159 1.30764,1.14268c0.03183,0.63109 -0.502,1.14268 -1.19236,1.14268c-0.69036,0 -1.2758,-0.51159 -1.30764,-1.14268z" fill="#940039" stroke="none" stroke-width="0.5"/><path d="M332.69794,240.39004c-0.03183,-0.63109 0.502,-1.14268 1.19236,-1.14268c0.69036,0 1.2758,0.51159 1.30764,1.14268c0.03183,0.63109 -0.502,1.14268 -1.19236,1.14268c-0.69036,0 -1.2758,-0.51159 -1.30764,-1.14268z" fill="#940039" stroke="none" stroke-width="0.5"/><path d="M335.14415,239.32355c-0.03183,-0.63109 0.502,-1.14268 1.19236,-1.14268c0.69036,0 1.2758,0.51159 1.30764,1.14268c0.03183,0.63109 -0.502,1.14268 -1.19236,1.14268c-0.69036,0 -1.2758,-0.51159 -1.30764,-1.14268z" fill="#940039" stroke="none" stroke-width="0.5"/><path d="M322.68257,240.08533c-0.03183,-0.63109 0.502,-1.14268 1.19236,-1.14268c0.69036,0 1.2758,0.51159 1.30764,1.14268c0.03183,0.63109 -0.502,1.14268 -1.19236,1.14268c-0.69036,0 -1.2758,-0.51159 -1.30764,-1.14268z" fill="#940039" stroke="none" stroke-width="0.5"/><path d="M327.12349,242.21832c-0.03183,-0.63109 0.502,-1.14268 1.19236,-1.14268c0.69036,0 1.2758,0.51159 1.30764,1.14268c0.03183,0.63109 -0.502,1.14268 -1.19236,1.14268c-0.69036,0 -1.2758,-0.51159 -1.30764,-1.14268z" fill="#940039" stroke="none" stroke-width="0.5"/><path d="M296.50773,249.83617c-0.03183,-0.63109 0.502,-1.14268 1.19236,-1.14268c0.69036,0 1.2758,0.51159 1.30764,1.14268c0.03183,0.63109 -0.502,1.14268 -1.19236,1.14268c-0.69036,0 -1.2758,-0.51159 -1.30764,-1.14268z" fill="#da5cb1" stroke="none" stroke-width="0.5"/><path d="M300.44865,251.96917c-0.03183,-0.63109 0.502,-1.14268 1.19236,-1.14268c0.69036,0 1.2758,0.51159 1.30764,1.14268c0.03183,0.63109 -0.502,1.14268 -1.19236,1.14268c-0.69036,0 -1.2758,-0.51159 -1.30764,-1.14268z" fill="#da5cb1" stroke="none" stroke-width="0.5"/><path d="M305.73588,251.05503c-0.03183,-0.63109 0.502,-1.14268 1.19236,-1.14268c0.69036,0 1.2758,0.51159 1.30764,1.14268c0.03183,0.63109 -0.502,1.14268 -1.19236,1.14268c-0.69036,0 -1.2758,-0.51159 -1.30764,-1.14268z" fill="#da5cb1" stroke="none" stroke-width="0.5"/><path d="M324.40783,247.85553c-0.03183,-0.63109 0.502,-1.14268 1.19236,-1.14268c0.69036,0 1.2758,0.51159 1.30764,1.14268c0.03183,0.63109 -0.502,1.14268 -1.19236,1.14268c-0.69036,0 -1.2758,-0.51159 -1.30764,-1.14268z" fill="#da5cb1" stroke="none" stroke-width="0.5"/><path d="M329.65903,249.53145c-0.03183,-0.63109 0.502,-1.14268 1.19236,-1.14268c0.69036,0 1.2758,0.51159 1.30764,1.14268c0.03183,0.63109 -0.502,1.14268 -1.19236,1.14268c-0.69036,0 -1.2758,-0.51159 -1.30764,-1.14268z" fill="#da5cb1" stroke="none" stroke-width="0.5"/><path d="M335.87181,250.4456c-0.03183,-0.63109 0.502,-1.14268 1.19236,-1.14268c0.69036,0 1.2758,0.51159 1.30764,1.14268c0.03183,0.63109 -0.502,1.14268 -1.19236,1.14268c-0.69036,0 -1.2758,-0.51159 -1.30764,-1.14268z" fill="#da5cb1" stroke="none" stroke-width="0.5"/><path d="M337.89246,247.55082c-0.03183,-0.63109 0.502,-1.14268 1.19236,-1.14268c0.69036,0 1.2758,0.51159 1.30764,1.14268c0.03183,0.63109 -0.502,1.14268 -1.19236,1.14268c-0.69036,0 -1.2758,-0.51159 -1.30764,-1.14268z" fill="#da5cb1" stroke="none" stroke-width="0.5"/><path d="M298.20082,233.8387c-0.0191,-0.37866 0.3012,-0.68561 0.71542,-0.68561c0.41422,0 0.76548,0.30695 0.78458,0.68561c0.0191,0.37866 -0.3012,0.68561 -0.71542,0.68561c-0.41422,0 -0.76548,-0.30695 -0.78458,-0.68561z" fill="#7c0000" stroke="none" stroke-width="0.5"/><path d="M311.50341,233.22927c-0.0191,-0.37866 0.3012,-0.68561 0.71542,-0.68561c0.41422,0 0.76548,0.30695 0.78458,0.68561c0.0191,0.37866 -0.3012,0.68561 -0.71542,0.68561c-0.41422,0 -0.76548,-0.30695 -0.78458,-0.68561z" fill="#7c0000" stroke="none" stroke-width="0.5"/><path d="M322.88286,234.14341c-0.0191,-0.37866 0.3012,-0.68561 0.71542,-0.68561c0.41422,0 0.76548,0.30695 0.78458,0.68561c0.0191,0.37866 -0.3012,0.68561 -0.71542,0.68561c-0.41422,0 -0.76548,-0.30695 -0.78458,-0.68561z" fill="#7c0000" stroke="none" stroke-width="0.5"/><path d="M336.58795,234.90519c-0.0191,-0.37866 0.3012,-0.68561 0.71542,-0.68561c0.41422,0 0.76548,0.30695 0.78458,0.68561c0.0191,0.37866 -0.3012,0.68561 -0.71542,0.68561c-0.41422,0 -0.76548,-0.30695 -0.78458,-0.68561z" fill="#7c0000" stroke="none" stroke-width="0.5"/><path d="M297.65423,242.82775c-0.0191,-0.37866 0.3012,-0.68561 0.71542,-0.68561c0.41422,0 0.76548,0.30695 0.78458,0.68561c0.0191,0.37866 -0.3012,0.68561 -0.71542,0.68561c-0.41422,0 -0.76548,-0.30695 -0.78458,-0.68561z" fill="#940039" stroke="none" stroke-width="0.5"/><path d="M302.1158,242.06597c-0.0191,-0.37866 0.3012,-0.68561 0.71542,-0.68561c0.41422,0 0.76548,0.30695 0.78458,0.68561c0.0191,0.37866 -0.3012,0.68561 -0.71542,0.68561c-0.41422,0 -0.76548,-0.30695 -0.78458,-0.68561z" fill="#940039" stroke="none" stroke-width="0.5"/><path d="M324.03367,243.74189c-0.0191,-0.37866 0.3012,-0.68561 0.71542,-0.68561c0.41422,0 0.76548,0.30695 0.78458,0.68561c0.0191,0.37866 -0.3012,0.68561 -0.71542,0.68561c-0.41422,0 -0.76548,-0.30695 -0.78458,-0.68561z" fill="#940039" stroke="none" stroke-width="0.5"/><path d="M331.89006,244.19897c-0.0191,-0.37866 0.3012,-0.68561 0.71542,-0.68561c0.41422,0 0.76548,0.30695 0.78458,0.68561c0.0191,0.37866 -0.3012,0.68561 -0.71542,0.68561c-0.41422,0 -0.76548,-0.30695 -0.78458,-0.68561z" fill="#940039" stroke="none" stroke-width="0.5"/><path d="M305.35355,256.69223c-0.0191,-0.37866 0.3012,-0.68561 0.71542,-0.68561c0.41422,0 0.76548,0.30695 0.78458,0.68561c0.0191,0.37866 -0.3012,0.68561 -0.71542,0.68561c-0.41422,0 -0.76548,-0.30695 -0.78458,-0.68561z" fill="#da5cb1" stroke="none" stroke-width="0.5"/><path d="M313.69985,253.64509c-0.0191,-0.37866 0.3012,-0.68561 0.71542,-0.68561c0.41422,0 0.76548,0.30695 0.78458,0.68561c0.0191,0.37866 -0.3012,0.68561 -0.71542,0.68561c-0.41422,0 -0.76548,-0.30695 -0.78458,-0.68561z" fill="#da5cb1" stroke="none" stroke-width="0.5"/><path d="M320.56153,250.90267c-0.0191,-0.37866 0.3012,-0.68561 0.71542,-0.68561c0.41422,0 0.76548,0.30695 0.78458,0.68561c0.0191,0.37866 -0.3012,0.68561 -0.71542,0.68561c-0.41422,0 -0.76548,-0.30695 -0.78458,-0.68561z" fill="#da5cb1" stroke="none" stroke-width="0.5"/><path d="M337.4818,255.93044c-0.0191,-0.37866 0.3012,-0.68561 0.71542,-0.68561c0.41422,0 0.76548,0.30695 0.78458,0.68561c0.0191,0.37866 -0.3012,0.68561 -0.71542,0.68561c-0.41422,0 -0.76548,-0.30695 -0.78458,-0.68561z" fill="#da5cb1" stroke="none" stroke-width="0.5"/></g><path d="" fill="none" stroke="#000000" stroke-width="0" stroke-linecap="round"/><g fill="#ff7be1" stroke="none" stroke-width="0" stroke-linecap="butt"><path d="M405.64198,251.69106c0.88984,8.74538 -0.58999,16.15116 -13.8092,17.40392c-12.3058,1.1662 -16.14173,-5.52052 -17.03157,-14.2659c-0.88984,-8.74538 5.29275,-16.53738 13.8092,-17.40392c8.51644,-0.86654 16.14173,5.52052 17.03157,14.2659z"/><path d="M366.80955,247.17931c1.86802,-3.74849 6.4211,-5.27291 10.16959,-3.40489c3.74849,1.86802 5.27291,6.4211 3.40489,10.16959c-1.86802,3.74849 -6.4211,5.27292 -10.16959,3.4049c-3.74849,-1.86802 -5.27291,-6.4211 -3.40489,-10.16959z"/><path d="M390.45707,273.92332c-1.3031,5.60344 -3.18503,9.65535 -8.69053,8.67362c-5.18033,-0.92375 -5.27469,-6.0148 -3.9716,-11.61824c1.3031,-5.60344 4.58382,-10.46612 8.95479,-9.80996c5.05768,0.75924 5.01043,7.15114 3.70734,12.75458z"/><path d="M403.82512,268.23926c2.50647,5.17825 3.58785,9.51302 -1.31229,12.20798c-4.61073,2.5358 -7.88255,-1.36586 -10.38902,-6.54411c-2.50647,-5.17825 -3.00893,-11.02259 0.80399,-13.2581c4.41196,-2.58673 8.39085,2.41598 10.89731,7.59422z"/><path d="M412.82251,258.83799c4.45833,3.63591 7.26872,7.10886 3.96449,11.62066c-3.10908,4.24532 -7.72224,2.08977 -12.18058,-1.54614c-4.45833,-3.63591 -7.38124,-8.72171 -4.86861,-12.358c2.90738,-4.20757 8.62636,-1.35243 13.0847,2.28348z"/></g><g fill="#ff7be1" stroke="none" stroke-width="0" stroke-linecap="butt"><path d="M257.83206,227.42516c8.51645,0.86654 14.69904,8.65854 13.8092,17.40392c-0.88984,8.74538 -4.72577,15.4321 -17.03157,14.2659c-13.21921,-1.25276 -14.69904,-8.65854 -13.8092,-17.40392c0.88984,-8.74538 8.51513,-15.13244 17.03157,-14.2659z"/><path d="M279.63292,237.17932c1.86802,3.74849 0.3436,8.30157 -3.40489,10.16959c-3.74849,1.86802 -8.30157,0.34359 -10.16959,-3.4049c-1.86802,-3.74849 -0.3436,-8.30157 3.40489,-10.16959c3.74849,-1.86802 8.30157,-0.3436 10.16959,3.40489z"/><path d="M259.69274,251.16874c4.37097,-0.65616 7.65169,4.20652 8.95479,9.80996c1.30309,5.60344 1.20873,10.69449 -3.9716,11.61824c-5.5055,0.98173 -7.38743,-3.07018 -8.69053,-8.67362c-1.30309,-5.60344 -1.35034,-11.99534 3.70734,-12.75458z"/><path d="M242.61736,258.23925c2.50646,-5.17824 6.48535,-10.18095 10.89731,-7.59422c3.81292,2.23551 3.31046,8.07985 0.80399,13.2581c-2.50647,5.17825 -5.77829,9.07991 -10.38902,6.54411c-4.90014,-2.69496 -3.81876,-7.02973 -1.31229,-12.20798z"/><path d="M246.70466,246.55451c2.51263,3.63629 -0.41028,8.72209 -4.86861,12.358c-4.45834,3.63591 -9.0715,5.79146 -12.18058,1.54614c-3.30423,-4.5118 -0.49384,-7.98475 3.96449,-11.62066c4.45834,-3.63591 10.17732,-6.49105 13.0847,-2.28348z"/></g><g><g stroke-width="0" stroke-linecap="butt"><path d="M349.32342,84.94716c0.1606,2.20329 -1.04881,4.08706 -2.70127,4.20751c-1.65247,0.12045 -3.12225,-1.56803 -3.28285,-3.77132c-0.1606,-2.20329 1.04881,-4.08706 2.70127,-4.20751c1.65247,-0.12045 3.12225,1.56803 3.28285,3.77132z" fill="#942c3b" stroke="none"/><path d="M356.06066,87.96536c0.10037,1.37706 -1.26948,2.59916 -3.05966,2.72965c-1.79018,0.13049 -3.32277,-0.88006 -3.42314,-2.25712c-0.10037,-1.37706 1.26948,-2.59916 3.05966,-2.72965c1.79018,-0.13049 3.32277,0.88006 3.42314,2.25712z" fill="#942c3b" stroke="none"/><path d="M361.37346,85.19681c0.1355,1.85903 -0.75934,3.4393 -1.99869,3.52964c-1.23935,0.09034 -2.3539,-1.34347 -2.4894,-3.2025c-0.1355,-1.85903 0.75934,-3.4393 1.99869,-3.52964c1.23935,-0.09034 2.3539,1.34347 2.4894,3.2025z" fill="#942c3b" stroke="none"/><path d="M369.02738,93.91346c0.22584,3.09838 -0.31669,5.66301 -1.21178,5.72825c-0.89509,0.06524 -1.80378,-2.3936 -2.02962,-5.49198c-0.22584,-3.09838 0.31669,-5.66301 1.21178,-5.72825c0.89509,-0.06524 1.80378,2.3936 2.02962,5.49198z" fill="#942c3b" stroke="none"/><path d="M377.49294,103.44826c0.07026,0.96394 -0.76584,1.81046 -1.86749,1.89076c-1.10165,0.0803 -2.05167,-0.63603 -2.12193,-1.59998c-0.07026,-0.96394 0.76584,-1.81046 1.86749,-1.89076c1.10165,-0.0803 2.05167,0.63603 2.12193,1.59998z" fill="#942c3b" stroke="none"/><path d="M385.10031,104.6484c0.0803,1.10165 -0.58022,2.0476 -1.47531,2.11284c-0.89509,0.06524 -1.6858,-0.77493 -1.76609,-1.87658c-0.0803,-1.10165 0.58022,-2.0476 1.47531,-2.11284c0.89509,-0.06524 1.6858,0.77493 1.76609,1.87658z" fill="#942c3b" stroke="none"/><path d="M393.5233,103.28246c0.10037,1.37706 -0.82295,2.56662 -2.0623,2.65695c-1.23935,0.09034 -2.32542,-0.95276 -2.42579,-2.32982c-0.10037,-1.37706 0.82295,-2.56662 2.0623,-2.65695c1.23935,-0.09034 2.32542,0.95276 2.42579,2.32982z" fill="#942c3b" stroke="none"/><path d="M373.33087,101.37034c0.16562,2.27214 -0.48155,4.17104 -1.44549,4.24131c-0.96394,0.07026 -1.87963,-1.71472 -2.04525,-3.98687c-0.16562,-2.27214 0.48155,-4.17104 1.44549,-4.24131c0.96394,-0.07026 1.87963,1.71472 2.04525,3.98687z" fill="#942c3b" stroke="none"/><path d="M353.72575,86.88224c0.14052,1.92789 -1.53168,3.62093 -3.73498,3.78153c-2.20329,0.1606 -4.10333,-1.27206 -4.24386,-3.19995c-0.14052,-1.92789 1.53168,-3.62093 3.73498,-3.78153c2.20329,-0.1606 4.10333,1.27206 4.24386,3.19995z" fill="#942c3b" stroke="none"/><path d="M360.20855,86.40971c0.09034,1.23935 -1.00857,2.32948 -2.45449,2.43488c-1.44591,0.10539 -2.69129,-0.81386 -2.78162,-2.05322c-0.09034,-1.23935 1.00857,-2.32948 2.45449,-2.43488c1.44591,-0.10539 2.69129,0.81386 2.78162,2.05322z" fill="#942c3b" stroke="none"/><path d="M349.79484,84.5368c0.10539,1.44591 -1.65111,2.75231 -3.92326,2.91793c-2.27214,0.16562 -4.19952,-0.87226 -4.30492,-2.31818c-0.10539,-1.44591 1.65111,-2.75231 3.92326,-2.91793c2.27214,-0.16562 4.19952,0.87226 4.30492,2.31818z" fill="#942c3b" stroke="none"/><path d="M370.77786,97.29515c0.09536,1.30821 -0.60877,2.42567 -1.57271,2.49594c-0.96394,0.07026 -1.82267,-0.93329 -1.91803,-2.2415c-0.09536,-1.30821 0.60877,-2.42567 1.57271,-2.49594c0.96394,-0.07026 1.82267,0.93329 1.91803,2.2415z" fill="#942c3b" stroke="none"/><path d="M377.78771,104.05344c0.07528,1.03279 -0.86839,1.94327 -2.10774,2.03361c-1.23935,0.09034 -2.30507,-0.67368 -2.38035,-1.70647c-0.07528,-1.03279 0.86839,-1.94327 2.10774,-2.03361c1.23935,-0.09034 2.30507,0.67368 2.38035,1.70647z" fill="#942c3b" stroke="none"/><path d="M382.65236,105.45349c0.03513,0.48197 -0.49455,0.91337 -1.18308,0.96356c-0.68853,0.05019 -1.27517,-0.29984 -1.3103,-0.78181c-0.03513,-0.48197 0.49455,-0.91337 1.18308,-0.96356c0.68853,-0.05019 1.27517,0.29984 1.3103,0.78181z" fill="#942c3b" stroke="none"/><path d="M389.57932,104.1966c0.06524,0.89509 -0.77493,1.6858 -1.87658,1.76609c-1.10165,0.0803 -2.0476,-0.58022 -2.11284,-1.47531c-0.06524,-0.89509 0.77493,-1.6858 1.87658,-1.76609c1.10165,-0.0803 2.0476,0.58022 2.11284,1.47531z" fill="#942c3b" stroke="none"/><path d="M380.93426,105.95472c0.0803,1.10165 -1.08257,2.08421 -2.59733,2.19463c-1.51476,0.11041 -2.80782,-0.69314 -2.88812,-1.79479c-0.0803,-1.10165 1.08257,-2.08421 2.59733,-2.19463c1.51476,-0.11041 2.80782,0.69314 2.88812,1.79479z" fill="#942c3b" stroke="none"/><path d="M376.51376,103.7703c0.0803,1.10165 -0.97093,2.07608 -2.34799,2.17645c-1.37706,0.10037 -2.55848,-0.71132 -2.63878,-1.81297c-0.0803,-1.10165 0.97093,-2.07608 2.34799,-2.17645c1.37706,-0.10037 2.55848,0.71132 2.63878,1.81297z" fill="#942c3b" stroke="none"/><path d="M367.93406,89.23055c0.16562,2.27214 -0.9839,4.20766 -2.56752,4.32309c-1.58362,0.11543 -3.00165,-1.63294 -3.16727,-3.90508c-0.16562,-2.27214 0.9839,-4.20766 2.56752,-4.32309c1.58362,-0.11543 3.00165,1.63294 3.16727,3.90508z" fill="#942c3b" stroke="none"/><g><path d="M329.88811,129.3729c0,0 3.44683,-25.40716 11.61909,-50.52676c1.39371,3.4454 2.54238,5.95383 5.91111,7.86006c3.04384,1.72238 7.33633,1.86879 10.18085,-0.1509c1.0988,-1.48242 2.17364,-2.9806 3.30193,-4.44088c0.36456,-0.47184 0.40209,-1.56219 0.99366,-1.48745c0.92177,0.11646 0.6205,1.75298 0.98785,2.60637c1.36221,3.16459 2.1603,6.80173 3.92464,9.73541c1.57563,3.15194 3.25568,6.23676 5.5507,8.91955c1.42461,1.41734 4.00615,4.29315 6.16869,4.47898c0.78995,0.06788 2.17852,-0.74968 2.9323,-1.01733c1.88202,-0.66829 3.86034,-1.22249 5.63031,-2.14975c0.36528,-0.19136 1.55149,-1.43329 1.9019,-1.39531c0.21389,0.02318 1.06495,1.1508 1.25929,1.34639c1.8449,1.8567 3.72409,3.09438 5.88562,4.07241c-7.21697,21.83669 -16.234,39.75131 -16.234,39.75131z" fill="#90003f" stroke="#000000"/><path d="M356.27312,131.47731c-12.53208,-4.657 -10.81849,-23.51526 -5.27945,-43.56165c2.3212,0.34593 4.76608,-0.05432 6.60549,-1.36036c1.0988,-1.48242 2.17364,-2.9806 3.30193,-4.44088c0.36456,-0.47184 0.40209,-1.56219 0.99366,-1.48745c0.92177,0.11646 0.6205,1.75298 0.98785,2.60637c1.36221,3.16459 2.1603,6.80173 3.92464,9.73541c1.57563,3.15194 3.25568,6.23676 5.5507,8.91955c1.42461,1.41734 4.00615,4.29315 6.16869,4.47898c0.78995,0.06788 2.17852,-0.74968 2.9323,-1.01733c1.67798,-0.59583 3.43254,-1.10099 5.04771,-1.86071c-6.06607,18.29453 -14.15408,33.96331 -30.23351,27.98809z" fill="#979797" stroke="none"/></g></g><g stroke-width="0"><path d="M273.74496,154.71278c0,0 -64.67732,-92.17852 -24.65003,-113.21741c40.02729,-21.03889 71.58283,88.54888 71.58283,88.54888" fill="#90003f" stroke="#000000" stroke-linecap="round"/><path d="M291.9516,88.04817c9.51307,20.40858 15.47754,41.02549 2.92521,47.90432c-17.39972,9.53525 -28.41999,-11.13075 -37.93306,-31.53932c-9.51307,-20.40858 -16.52762,-46.09248 -3.24337,-52.26922c14.21378,-6.60894 28.73815,15.49565 38.25122,35.90422z" fill="#979797" stroke="none" stroke-linecap="butt"/></g><g><path d="M263.674,166.9629c-2.42095,-33.21374 24.30028,-62.22955 59.68353,-64.80864c8.79797,-0.64128 41.47046,-17.25927 41.47046,-17.25927c0,0 -3.31742,20.39846 1.53954,22.47461c4.78675,2.04614 27.39464,-10.10643 27.39464,-10.10643c0,0 -13.25974,19.76468 -10.77281,23.50254c3.7436,5.62666 31.04968,6.97374 31.04968,6.97374c0,0 -21.00561,20.42816 -21.81488,27.78373c-0.83327,7.57365 16.88515,17.02304 16.88515,17.02304c0,0 -9.15163,13.42987 -9.55361,18.58957c-0.39216,5.03379 7.17049,12.00021 7.17049,12.00021c0,0 -17.59128,4.1771 -22.62588,8.13338c-3.51164,2.75952 0.44581,6.95642 0.44581,6.95642c0,0 -16.82385,-0.62351 -24.97641,-0.50238c-1.69927,0.02525 -20.24411,4.18355 -27.44515,4.70843c-35.38325,2.57909 -66.02962,-22.25521 -68.45058,-55.46894z" fill="#ff7be1" stroke="#000000" stroke-width="0" stroke-linecap="butt"/><path d="M263.6903,158.40504c2.27726,-29.504 27.36197,-53.89605 59.66723,-56.25078c8.79797,-0.64128 41.47046,-17.25927 41.47046,-17.25927c0,0 -3.31742,20.39846 1.53954,22.47461c4.78675,2.04614 27.39464,-10.10643 27.39464,-10.10643c0,0 -13.25974,19.76468 -10.77281,23.50254c3.7436,5.62666 31.04968,6.97374 31.04968,6.97374c0,0 -13.73411,13.35656 -19.41944,22.3583c-0.10002,0.15837 -130.93169,8.33861 -130.92928,8.3073z" fill="#da5cb1" stroke="#000000" stroke-width="0" stroke-linecap="butt"/><path d="M265.75919,146.99035c6.97977,-24.16397 29.57179,-42.79323 57.59834,-44.83608c8.79797,-0.64128 41.47046,-17.25927 41.47046,-17.25927c0,0 -3.31742,20.39846 1.53954,22.47461c4.78675,2.04614 27.39464,-10.10643 27.39464,-10.10643c0,0 -13.25974,19.76468 -10.77281,23.50254c3.7436,5.62666 31.04968,6.97374 31.04968,6.97374c0,0 -6.15101,5.98192 -11.92422,12.63727c-0.11888,0.13704 -136.42834,6.8654 -136.35562,6.61364z" fill="#940039" stroke="#000000" stroke-width="0" stroke-linecap="butt"/><path d="M270.88893,134.71821c10.03406,-17.97775 29.41238,-30.88337 52.4686,-32.56394c8.79797,-0.64128 41.47046,-17.25927 41.47046,-17.25927c0,0 -3.31742,20.39846 1.53954,22.47461c4.78675,2.04614 27.39464,-10.10643 27.39464,-10.10643c0,0 -13.25974,19.76468 -10.77281,23.50254c2.51689,3.78291 15.43498,5.64957 23.79416,6.4548c2.35158,0.22653 -135.94239,7.58335 -135.89458,7.4977z" fill="#7c0000" stroke="#000000" stroke-width="0" stroke-linecap="butt"/><path d="M323.35753,102.15426c8.79796,-0.64128 40.89848,-15.60092 40.89848,-15.60092c0,0 -3.4179,19.02007 1.43906,21.09621c4.78675,2.04614 26.32971,-8.87404 26.32971,-8.87404c0,0 -12.1948,18.53229 -9.70788,22.27015c3.7436,5.62666 31.04969,6.97374 31.04969,6.97374c0,0 -21.00561,20.42816 -21.81489,27.78374c-0.83326,7.57365 16.88515,17.02304 16.88515,17.02304c0,0 -9.38136,13.44662 -9.78333,18.60631c-0.39217,5.03378 6.43107,11.36125 6.43107,11.36125c0,0 -16.85185,4.81605 -21.88645,8.77234c-3.51164,2.75952 -0.3606,5.39853 -0.3606,5.39853c0,0 -15.2827,-1.65965 -23.43526,-1.53852c-1.69927,0.02525 -1.01834,-1.37496 -8.21938,-0.85007c-10.43062,0.76029 -31.48971,5.99753 -34.90052,3.12048c-1.01585,-0.85688 -3.38113,-6.82304 0.946,-9.07381c3.28469,-1.70855 11.47135,-1.86503 11.47135,-1.86503c0,0 -2.21218,-4.12467 0.47114,-6.94546c2.88211,-3.02976 18.25635,-8.71739 18.25635,-8.71739c0,0 -13.04293,-3.29211 -18.41321,-10.26575c-3.79131,-4.92325 -0.40235,-13.31617 -0.63471,-16.50396c0,0 -4.54565,-11.60385 -3.65219,-15.53202c0.92194,-4.05339 9.1011,-8.42444 9.1011,-8.42444c0,0 0.49753,-5.76216 -0.72253,-8.97507c-1.85669,-4.88938 10.97485,-14.04441 10.97485,-14.04441c0,0 -32.92749,-14.3053 -20.72298,-15.19489z" fill="#a93232" stroke="#000000" stroke-width="0" stroke-linecap="butt"/><path d="M323.35753,102.15426c8.79796,-0.64128 40.89848,-15.60092 40.89848,-15.60092c0,0 -3.4179,19.02007 1.43906,21.09621c4.78675,2.04614 26.32971,-8.87404 26.32971,-8.87404c0,0 -12.1948,18.53229 -9.70788,22.27015c3.7436,5.62666 31.04969,6.97374 31.04969,6.97374c0,0 -6.34327,6.16889 -12.19251,12.94736c-0.0497,0.05759 -73.4112,3.59769 -73.29436,3.49487c2.64478,-2.32746 5.94849,-4.09301 5.94849,-4.09301c0,0 0.49753,-5.76216 -0.72253,-8.97507c-1.85669,-4.88938 10.97485,-14.04441 10.97485,-14.04441c0,0 -32.92749,-14.3053 -20.72298,-15.19489z" fill="#9d2f3a" stroke="#000000" stroke-width="0" stroke-linecap="butt"/><path d="M323.35753,102.15426c8.79796,-0.64128 40.89848,-15.60092 40.89848,-15.60092c0,0 -3.4179,19.02007 1.43906,21.09621c4.78675,2.04614 26.32971,-8.87404 26.32971,-8.87404c0,0 -12.1948,18.53229 -9.70788,22.27015c2.37277,3.56628 14.21123,5.41335 22.56309,6.28787c0.0498,0.00521 -71.74958,4.12516 -71.77432,4.06003c-1.85669,-4.88938 10.97485,-14.04441 10.97485,-14.04441c0,0 -32.92749,-14.3053 -20.72298,-15.19489z" fill="#942c3b" stroke="#000000" stroke-width="0" stroke-linecap="butt"/><path d="M338.00704,213.95218c0,0 -13.43363,1.19672 -14.40538,0.50636c-0.88801,-0.63085 -4.28679,-6.51661 -4.28679,-6.51661c0,0 3.85608,-0.96877 5.52241,-1.14115c1.42541,-0.14746 3.86616,0.1699 3.86616,0.1699c0,0 -1.51171,-3.72183 -0.25749,-6.49978c1.06066,-2.34924 4.72593,-3.82431 6.52339,-3.84721c11.30865,-0.14403 30.64644,-3.13018 30.64644,-3.13018c0,0 0.28396,10.80461 -0.39174,12.39793c-0.63572,1.49906 -3.44213,4.71112 -3.44213,4.71112z" fill="#7c2532" stroke="none" stroke-width="0" stroke-linecap="butt"/><path d="M342.02031,195.69185c1.53581,-0.53817 3.82244,1.99808 5.10735,5.66487c0.08958,0.25565 -5.48991,2.15351 -5.56161,1.94889c-1.28492,-3.6668 -1.08153,-7.0756 0.45426,-7.61376z" fill="#fff8f7" stroke="none" stroke-width="0" stroke-linecap="butt"/><path d="M337.48636,195.92797c0.47665,1.26375 0.89916,2.94682 0.87541,4.80463c-0.00347,0.27088 -5.89548,0.14145 -5.89271,-0.07536c0.0177,-1.3842 0.20165,-2.67288 0.50474,-3.75747c0.13436,-0.48081 4.38021,-1.32271 4.51256,-0.97182z" fill="#fff8f7" stroke="none" stroke-width="0" stroke-linecap="butt"/><path d="M350.77515,192.78411c1.08086,-1.21658 4.31173,-0.11083 7.21638,2.46976c0.20252,0.17992 -3.75202,4.54962 -3.91411,4.40561c-2.90465,-2.58059 -4.38311,-5.6588 -3.30227,-6.87538z" fill="#fff8f7" stroke="none" stroke-width="0" stroke-linecap="butt"/><path d="M363.92932,190.51426c1.62676,0.04474 2.8589,3.22955 2.75209,7.11349c-0.00744,0.2708 -5.89692,0.05473 -5.89096,-0.162c0.10681,-3.88394 1.51213,-6.99623 3.13887,-6.95149z" fill="#fff8f7" stroke="none" stroke-width="0" stroke-linecap="butt"/><path d="M362.60873,212.76543c-1.46075,0.71732 -4.03325,-1.52844 -5.74588,-5.01603c-0.1194,-0.24316 5.19424,-2.79223 5.28981,-2.59762c1.71262,3.4876 1.91681,6.89635 0.45608,7.61365z" fill="#fff8f7" stroke="none" stroke-width="0" stroke-linecap="butt"/><path d="M339.22477,208.20668c0.13824,-0.16703 4.71274,3.54869 4.54001,3.75739c-2.47726,2.99326 -5.50179,4.57865 -6.75549,3.54106c-1.25369,-1.03757 -0.26179,-4.3052 2.21547,-7.29845z" fill="#fff8f7" stroke="none" stroke-width="0" stroke-linecap="butt"/><path d="M351.01439,214.68006c-1.60103,0.2916 -3.4633,-2.57077 -4.15952,-6.39329c-0.04854,-0.26652 5.75895,-1.2693 5.7978,-1.05599c0.69622,3.82252 -0.03728,7.15768 -1.63828,7.44928z" fill="#fff8f7" stroke="none" stroke-width="0" stroke-linecap="butt"/><path d="M343.18461,193.06747c0.52731,1.18526 0.68333,2.0475 0.34151,2.29694c-0.42661,0.31131 -1.60179,-0.25827 -2.96006,-1.59665c-0.11184,-0.1102 2.52411,-0.91258 2.61856,-0.70028z" fill="#7c2532" stroke="none" stroke-width="0" stroke-linecap="butt"/><g><path d="M312.71789,106.41933c1.28099,7.26635 -8.25704,16.67783 -15.25373,10.93412c-1.6061,-2.00195 0.13524,-7.80106 0.13524,-7.80106c0,0 -3.9651,-6.17335 -2.97771,-8.71219c3.7742,-5.93848 16.81522,-1.68721 18.09621,5.57914z" fill="#bf014a" stroke="#000000" stroke-width="0" stroke-linecap="butt"/><path d="M304.24541,103.46898l7.07143,2.96344l-4.67131,6.67083" fill="none" stroke="#99001f" stroke-width="1.5" stroke-linecap="round"/><path d="M306.85997,107.68592l3.85633,-0.67983" fill="none" stroke="#99001f" stroke-width="1" stroke-linecap="round"/><path d="M343.26809,92.26424c1.79604,2.04814 0.18097,9.20523 0.18097,9.20523c0,0 3.6194,4.85406 2.7947,7.28454c-4.61082,7.79003 -16.79216,2.20748 -18.07316,-5.05887c-1.281,-7.26635 9.52012,-15.72077 15.09748,-11.4309z" fill="#bf014a" stroke="#000000" stroke-width="0" stroke-linecap="butt"/><path d="M336.1625,107.89968l-6.67083,-4.67131l5.63177,-5.20291" fill="none" stroke="#99001f" stroke-width="1.5" stroke-linecap="round"/><path d="M330.25218,103.56208l3.85633,-0.67983" fill="none" stroke="#99001f" stroke-width="1" stroke-linecap="round"/><path d="M310.92809,97.89162c1.65375,-1.77691 14.60474,-3.29643 16.98238,-1.48324c1.79506,1.36892 3.51431,12.95989 0.63447,15.18418c-1.48316,1.14554 -11.9468,3.36186 -13.85003,2.66039c-3.23106,-1.19088 -5.77243,-14.20635 -3.76682,-16.36133z" fill="#bf014a" stroke="#000000" stroke-width="0" stroke-linecap="butt"/></g><path d="M278.12835,132.99999c0.96394,-0.07026 1.80233,0.65421 1.87259,1.61815c0.07026,0.96394 -0.65421,1.80233 -1.61815,1.87259c-0.60976,0.04445 -1.16929,-0.22911 -1.51593,-0.68015c-0.25637,0.56439 -0.80527,0.97467 -1.46705,1.02291c-0.56739,0.04136 -1.09129,-0.19264 -1.44063,-0.58875c-0.14924,0.05458 -0.30847,0.08958 -0.47484,0.10171c-0.96394,0.07026 -1.80233,-0.65421 -1.87259,-1.61815c-0.07026,-0.96394 0.65421,-1.80233 1.61815,-1.87259c0.56739,-0.04136 1.09129,0.19264 1.44063,0.58875c0.14924,-0.05458 0.30847,-0.08958 0.47484,-0.10171c0.60976,-0.04445 1.16929,0.22911 1.51593,0.68015c0.25637,-0.56439 0.80527,-0.97467 1.46705,-1.02291z" fill="#7c0000" stroke="none" stroke-width="0.5" stroke-linecap="butt"/><path d="M284.32547,132.04695c0.96394,-0.07026 1.80233,0.65421 1.87259,1.61815c0.07026,0.96394 -0.65421,1.80233 -1.61815,1.87259c-0.46489,0.03389 -0.90057,-0.11707 -1.23497,-0.39059c-0.28471,0.46362 -0.78086,0.78819 -1.36491,0.83076c-0.96394,0.07026 -1.80233,-0.65421 -1.87259,-1.61815c-0.07026,-0.96394 0.65421,-1.80233 1.61815,-1.87259c0.46489,-0.03389 0.90057,0.11707 1.23497,0.39059c0.28471,-0.46362 0.78086,-0.78819 1.36491,-0.83076z" fill="#7c0000" stroke="none" stroke-width="0.5" stroke-linecap="butt"/><path d="M289.66807,131.40686c0.96394,-0.07026 1.80233,0.65421 1.87259,1.61815c0.07026,0.96394 -0.65421,1.80233 -1.61815,1.87259c-0.38646,0.02817 -0.75274,-0.07141 -1.05744,-0.26294c-0.23863,0.15426 -0.5183,0.25247 -0.82168,0.27458c-0.96394,0.07026 -1.80233,-0.65421 -1.87259,-1.61815c-0.07026,-0.96394 0.65421,-1.80233 1.61815,-1.87259c0.38646,-0.02817 0.75274,0.07141 1.05744,0.26294c0.23863,-0.15426 0.5183,-0.25247 0.82168,-0.27458z" fill="#7c0000" stroke="none" stroke-width="0.5" stroke-linecap="butt"/><path d="M296.03529,131.06809c0.96394,-0.07026 1.80233,0.65421 1.87259,1.61815c0.07026,0.96394 -0.65421,1.80233 -1.61815,1.87259c-0.45712,0.03332 -0.88601,-0.11209 -1.21813,-0.377c-0.29019,0.31027 -0.69347,0.51634 -1.15059,0.54966c-0.96394,0.07026 -1.80233,-0.65421 -1.87259,-1.61815c-0.07026,-0.96394 0.65421,-1.80233 1.61815,-1.87259c0.45712,-0.03332 0.88601,0.11209 1.21813,0.377c0.29019,-0.31027 0.69347,-0.51634 1.15059,-0.54966z" fill="#7c0000" stroke="none" stroke-width="0.5" stroke-linecap="butt"/><path d="M305.92051,130.84888c0.96394,-0.07026 1.80233,0.65421 1.87259,1.61815c0.07026,0.96394 -0.65421,1.80233 -1.61815,1.87259c-0.59384,0.04329 -1.14004,-0.21505 -1.48834,-0.64519c-0.28225,0.4761 -0.78521,0.81091 -1.37905,0.85419c-0.51549,0.03757 -0.99506,-0.15212 -1.34047,-0.48418c-0.2352,0.14855 -0.50933,0.24302 -0.80617,0.26466c-0.96394,0.07026 -1.80233,-0.65421 -1.87259,-1.61815c-0.07026,-0.96394 0.65421,-1.80233 1.61815,-1.87259c0.51549,-0.03757 0.99506,0.15212 1.34047,0.48418c0.2352,-0.14855 0.50933,-0.24302 0.80617,-0.26466c0.59384,-0.04329 1.14004,0.21505 1.48834,0.64519c0.28225,-0.4761 0.78521,-0.81091 1.37905,-0.85419z" fill="#7c0000" stroke="none" stroke-width="0.5" stroke-linecap="butt"/><path d="M308.66578,132.40342c-0.07026,-0.96394 0.65421,-1.80233 1.61815,-1.87259c0.96394,-0.07026 1.80233,0.65421 1.87259,1.61815c0.07026,0.96394 -0.65421,1.80233 -1.61815,1.87259c-0.96394,0.07026 -1.80233,-0.65421 -1.87259,-1.61815z" fill="#7c0000" stroke="none" stroke-width="0.5" stroke-linecap="butt"/><path d="M315.52259,131.90363c-0.07026,-0.96394 0.65421,-1.80233 1.61815,-1.87259c0.96394,-0.07026 1.80233,0.65421 1.87259,1.61815c0.07026,0.96394 -0.65421,1.80233 -1.61815,1.87259c-0.96394,0.07026 -1.80233,-0.65421 -1.87259,-1.61815z" fill="#7c0000" stroke="none" stroke-width="0.5" stroke-linecap="butt"/><path d="M319.63668,131.60375c-0.07026,-0.96394 0.65421,-1.80233 1.61815,-1.87259c0.96394,-0.07026 1.80233,0.65421 1.87259,1.61815c0.07026,0.96394 -0.65421,1.80233 -1.61815,1.87259c-0.96394,0.07026 -1.80233,-0.65421 -1.87259,-1.61815z" fill="#7c0000" stroke="none" stroke-width="0.5" stroke-linecap="butt"/><path d="M325.49613,131.17665c-0.07026,-0.96394 0.65421,-1.80233 1.61815,-1.87259c0.96394,-0.07026 1.80233,0.65421 1.87259,1.61815c0.07026,0.96394 -0.65421,1.80233 -1.61815,1.87259c-0.96394,0.07026 -1.80233,-0.65421 -1.87259,-1.61815z" fill="#7c0000" stroke="none" stroke-width="0.5" stroke-linecap="butt"/><path d="M329.40632,131.5183c-0.07026,-0.96394 0.65421,-1.80233 1.61815,-1.87259c0.96394,-0.07026 1.80233,0.65421 1.87259,1.61815c0.07026,0.96394 -0.65421,1.80233 -1.61815,1.87259c-0.96394,0.07026 -1.80233,-0.65421 -1.87259,-1.61815z" fill="#7c0000" stroke="none" stroke-width="0.5" stroke-linecap="butt"/><path d="M266.73116,146.86522c-0.07026,-0.96394 0.65421,-1.80233 1.61815,-1.87259c0.96394,-0.07026 1.80233,0.65421 1.87259,1.61815c0.07026,0.96394 -0.65421,1.80233 -1.61815,1.87259c-0.96394,0.07026 -1.80233,-0.65421 -1.87259,-1.61815z" fill="#940039" stroke="none" stroke-width="0.5" stroke-linecap="butt"/><path d="M271.5322,147.39259c-0.07026,-0.96394 0.65421,-1.80233 1.61815,-1.87259c0.96394,-0.07026 1.80233,0.65421 1.87259,1.61815c0.07026,0.96394 -0.65421,1.80233 -1.61815,1.87259c-0.96394,0.07026 -1.80233,-0.65421 -1.87259,-1.61815z" fill="#940039" stroke="none" stroke-width="0.5" stroke-linecap="butt"/><path d="M275.64629,147.09271c-0.07026,-0.96394 0.65421,-1.80233 1.61815,-1.87259c0.96394,-0.07026 1.80233,0.65421 1.87259,1.61815c0.07026,0.96394 -0.65421,1.80233 -1.61815,1.87259c-0.96394,0.07026 -1.80233,-0.65421 -1.87259,-1.61815z" fill="#940039" stroke="none" stroke-width="0.5" stroke-linecap="butt"/><path d="M283.17586,143.78659c0.96394,-0.07026 1.80233,0.65421 1.87259,1.61815c0.07026,0.96394 -0.65421,1.80233 -1.61815,1.87259c-0.05326,0.00388 -0.10614,0.00534 -0.15852,0.00447c-0.28109,0.26023 -0.64915,0.4304 -1.06091,0.46041c-0.15968,0.01164 -0.31591,0.00147 -0.46578,-0.02798c-0.22739,0.13636 -0.48932,0.22293 -0.77183,0.24352c-0.96394,0.07026 -1.80233,-0.65421 -1.87259,-1.61815c-0.07026,-0.96394 0.65421,-1.80233 1.61815,-1.87259c0.15968,-0.01164 0.31591,-0.00147 0.46578,0.02798c0.22739,-0.13636 0.48932,-0.22293 0.77183,-0.24352c0.05326,-0.00388 0.10614,-0.00534 0.15853,-0.00446c0.28109,-0.26023 0.64915,-0.43041 1.06091,-0.46042z" fill="#940039" stroke="none" stroke-width="0.5" stroke-linecap="butt"/><path d="M325.16469,142.10466c0.96394,-0.07026 1.80233,0.65421 1.87259,1.61815c0.07026,0.96394 -0.65421,1.80233 -1.61815,1.87259c-0.46489,0.03389 -0.90057,-0.11707 -1.23497,-0.39059c-0.28471,0.46362 -0.78086,0.78819 -1.36491,0.83076c-0.5213,0.038 -1.00586,-0.15643 -1.3521,-0.49547c-0.29341,0.38566 -0.74466,0.6483 -1.26596,0.6863c-0.72039,0.05251 -1.37065,-0.33884 -1.68258,-0.9423c-0.28861,0.43987 -0.7715,0.74519 -1.33674,0.78639c-0.96394,0.07026 -1.80233,-0.65421 -1.87259,-1.61815c-0.07026,-0.96394 0.65421,-1.80233 1.61815,-1.87259c0.72039,-0.05251 1.37065,0.33884 1.68258,0.9423c0.28861,-0.43987 0.7715,-0.74519 1.33674,-0.78639c0.5213,-0.038 1.00586,0.15643 1.3521,0.49547c0.29341,-0.38566 0.74466,-0.6483 1.26596,-0.6863c0.46489,-0.03389 0.90057,0.11707 1.23497,0.39059c0.28471,-0.46362 0.78086,-0.78819 1.36491,-0.83076z" fill="#940039" stroke="none" stroke-width="0.5" stroke-linecap="butt"/><path d="M268.28538,156.1518c0.96394,-0.07026 1.80233,0.65421 1.87259,1.61815c0.07026,0.96394 -0.65421,1.80233 -1.61815,1.87259c-0.429,0.03127 -0.83313,-0.09487 -1.15575,-0.32947c-0.29038,0.42597 -0.76536,0.72017 -1.31946,0.76055c-0.96394,0.07026 -1.80233,-0.65421 -1.87259,-1.61815c-0.07026,-0.96394 0.65421,-1.80233 1.61815,-1.87259c0.429,-0.03127 0.83313,0.09487 1.15575,0.32947c0.29038,-0.42597 0.76536,-0.72017 1.31946,-0.76055z" fill="#da5cb1" stroke="none" stroke-width="0.5" stroke-linecap="butt"/><path d="M275.1331,155.52734c0.96394,-0.07026 1.80233,0.65421 1.87259,1.61815c0.07026,0.96394 -0.65421,1.80233 -1.61815,1.87259c-0.26769,0.01951 -0.5257,-0.02226 -0.76026,-0.11344c-0.21886,0.12423 -0.46808,0.20298 -0.73577,0.22249c-0.08466,0.00617 -0.16834,0.00621 -0.25063,0.0005c-0.08058,0.01758 -0.16339,0.02968 -0.24805,0.03585c-0.96394,0.07026 -1.80233,-0.65421 -1.87259,-1.61815c-0.07026,-0.96394 0.65421,-1.80233 1.61815,-1.87259c0.08466,-0.00617 0.16834,-0.00621 0.25063,-0.0005c0.08058,-0.01758 0.16339,-0.02968 0.24805,-0.03585c0.26769,-0.01951 0.5257,0.02226 0.76026,0.11344c0.21886,-0.12423 0.46808,-0.20298 0.73577,-0.22249z" fill="#da5cb1" stroke="none" stroke-width="0.5" stroke-linecap="butt"/><path d="M321.45156,154.78315c-0.07026,-0.96394 0.65421,-1.80233 1.61815,-1.87259c0.96394,-0.07026 1.80233,0.65421 1.87259,1.61815c0.07026,0.96394 -0.65421,1.80233 -1.61815,1.87259c-0.96394,0.07026 -1.80233,-0.65421 -1.87259,-1.61815z" fill="#da5cb1" stroke="none" stroke-width="0.5" stroke-linecap="butt"/><path d="M333.13731,131.12102c-0.07026,-0.96394 0.65421,-1.80233 1.61815,-1.87259c0.96394,-0.07026 1.80233,0.65421 1.87259,1.61815c0.07026,0.96394 -0.65421,1.80233 -1.61815,1.87259c-0.96394,0.07026 -1.80233,-0.65421 -1.87259,-1.61815z" fill="#942c3b" stroke="none" stroke-width="0.5" stroke-linecap="butt"/><path d="M342.28105,129.32654c0.96394,-0.07026 1.80233,0.65421 1.87259,1.61815c0.07026,0.96394 -0.65421,1.80233 -1.61815,1.87259c-0.45712,0.03332 -0.88601,-0.11209 -1.21813,-0.377c-0.29019,0.31027 -0.69347,0.51634 -1.15059,0.54966c-0.96394,0.07026 -1.80233,-0.65421 -1.87259,-1.61815c-0.07026,-0.96394 0.65421,-1.80233 1.61815,-1.87259c0.45712,-0.03332 0.88601,0.11209 1.21813,0.377c0.29019,-0.31027 0.69347,-0.51634 1.15059,-0.54966z" fill="#942c3b" stroke="none" stroke-width="0.5" stroke-linecap="butt"/><path d="M346.26393,130.66554c-0.07026,-0.96394 0.65421,-1.80233 1.61815,-1.87259c0.96394,-0.07026 1.80233,0.65421 1.87259,1.61815c0.07026,0.96394 -0.65421,1.80233 -1.61815,1.87259c-0.96394,0.07026 -1.80233,-0.65421 -1.87259,-1.61815z" fill="#942c3b" stroke="none" stroke-width="0.5" stroke-linecap="butt"/><path d="M350.4936,130.23191c-0.07026,-0.96394 0.65421,-1.80233 1.61815,-1.87259c0.96394,-0.07026 1.80233,0.65421 1.87259,1.61815c0.07026,0.96394 -0.65421,1.80233 -1.61815,1.87259c-0.96394,0.07026 -1.80233,-0.65421 -1.87259,-1.61815z" fill="#942c3b" stroke="none" stroke-width="0.5" stroke-linecap="butt"/><path d="M354.19732,129.46062c-0.07026,-0.96394 0.65421,-1.80233 1.61815,-1.87259c0.96394,-0.07026 1.80233,0.65421 1.87259,1.61815c0.07026,0.96394 -0.65421,1.80233 -1.61815,1.87259c-0.96394,0.07026 -1.80233,-0.65421 -1.87259,-1.61815z" fill="#942c3b" stroke="none" stroke-width="0.5" stroke-linecap="butt"/><path d="M363.34107,127.66614c0.96394,-0.07026 1.80233,0.65421 1.87259,1.61815c0.07026,0.96394 -0.65421,1.80233 -1.61815,1.87259c-0.82737,0.06031 -1.56223,-0.46486 -1.79829,-1.22441c-0.17014,0.72527 -0.79465,1.28808 -1.57687,1.34509c-0.96394,0.07026 -1.80233,-0.65421 -1.87259,-1.61815c-0.07026,-0.96394 0.65421,-1.80233 1.61815,-1.87259c0.82737,-0.06031 1.56223,0.46486 1.79829,1.22441c0.17014,-0.72527 0.79465,-1.28808 1.57687,-1.34509z" fill="#942c3b" stroke="none" stroke-width="0.5" stroke-linecap="butt"/><path d="M367.70704,129.10255c-0.07026,-0.96394 0.65421,-1.80233 1.61815,-1.87259c0.96394,-0.07026 1.80233,0.65421 1.87259,1.61815c0.07026,0.96394 -0.65421,1.80233 -1.61815,1.87259c-0.96394,0.07026 -1.80233,-0.65421 -1.87259,-1.61815z" fill="#942c3b" stroke="none" stroke-width="0.5" stroke-linecap="butt"/><path d="M372.69381,128.73906c-0.07026,-0.96394 0.65421,-1.80233 1.61815,-1.87259c0.96394,-0.07026 1.80233,0.65421 1.87259,1.61815c0.07026,0.96394 -0.65421,1.80233 -1.61815,1.87259c-0.96394,0.07026 -1.80233,-0.65421 -1.87259,-1.61815z" fill="#942c3b" stroke="none" stroke-width="0.5" stroke-linecap="butt"/><path d="M379.1857,128.3912c-0.07026,-0.96394 0.65421,-1.80233 1.61815,-1.87259c0.96394,-0.07026 1.80233,0.65421 1.87259,1.61815c0.07026,0.96394 -0.65421,1.80233 -1.61815,1.87259c-0.96394,0.07026 -1.80233,-0.65421 -1.87259,-1.61815z" fill="#942c3b" stroke="none" stroke-width="0.5" stroke-linecap="butt"/><path d="M398.85618,126.58142c0.96394,-0.07026 1.80233,0.65421 1.87259,1.61815c0.07026,0.96394 -0.65421,1.80233 -1.61815,1.87259c-0.65146,0.04749 -1.24558,-0.26803 -1.584,-0.77513c-0.29179,0.41204 -0.7587,0.69522 -1.30157,0.73479c-0.30339,0.02211 -0.59434,-0.03449 -0.85281,-0.15253c-0.2737,0.2337 -0.62166,0.38533 -1.00814,0.4135c-0.3597,0.02622 -0.70191,-0.05823 -0.99326,-0.22448c-0.12615,0.03942 -0.25877,0.06507 -0.39628,0.0751c-0.75195,0.05481 -1.42749,-0.374 -1.72161,-1.02282c-0.29141,0.41607 -0.76068,0.70243 -1.3068,0.74223c-0.72039,0.05251 -1.37065,-0.33884 -1.68258,-0.9423c-0.28861,0.43987 -0.7715,0.74519 -1.33674,0.78639c-0.23961,0.01747 -0.47146,-0.01417 -0.68568,-0.08639c-0.0641,0.01197 -0.12952,0.02048 -0.19609,0.02533c-0.96394,0.07026 -1.80233,-0.65421 -1.87259,-1.61815c-0.07026,-0.96394 0.65421,-1.80233 1.61815,-1.87259c0.23961,-0.01747 0.47146,0.01417 0.68568,0.08639c0.0641,-0.01197 0.12952,-0.02048 0.19609,-0.02533c0.72039,-0.05251 1.37065,0.33884 1.68258,0.9423c0.28861,-0.43987 0.7715,-0.74519 1.33674,-0.78639c0.75195,-0.05481 1.42749,0.374 1.72161,1.02282c0.29141,-0.41607 0.76068,-0.70243 1.3068,-0.74223c0.3597,-0.02622 0.70191,0.05823 0.99326,0.22448c0.12615,-0.03942 0.25877,-0.06507 0.39628,-0.0751c0.30339,-0.02211 0.59434,0.03449 0.85281,0.15253c0.2737,-0.2337 0.62166,-0.38533 1.00814,-0.4135c0.65146,-0.04749 1.24558,0.26803 1.584,0.77513c0.29179,-0.41204 0.7587,-0.69522 1.30157,-0.73479z" fill="#942c3b" stroke="none" stroke-width="0.5" stroke-linecap="butt"/><path d="M328.62419,144.86046c-0.07026,-0.96394 0.65421,-1.80233 1.61815,-1.87259c0.96394,-0.07026 1.80233,0.65421 1.87259,1.61815c0.07026,0.96394 -0.65421,1.80233 -1.61815,1.87259c-0.96394,0.07026 -1.80233,-0.65421 -1.87259,-1.61815z" fill="#9d2f3a" stroke="none" stroke-width="0.5" stroke-linecap="butt"/><path d="M335.72778,142.58804c0.96394,-0.07026 1.80233,0.65421 1.87259,1.61815c0.07026,0.96394 -0.65421,1.80233 -1.61815,1.87259c-0.21962,0.01601 -0.43272,-0.00923 -0.6317,-0.06916c-0.18819,0.08815 -0.39538,0.14402 -0.61499,0.16003c-0.96394,0.07026 -1.80233,-0.65421 -1.87259,-1.61815c-0.07026,-0.96394 0.65421,-1.80233 1.61815,-1.87259c0.21962,-0.01601 0.43272,0.00923 0.6317,0.06916c0.18819,-0.08815 0.39538,-0.14402 0.61499,-0.16003z" fill="#9d2f3a" stroke="none" stroke-width="0.5" stroke-linecap="butt"/><path d="M392.81068,139.93124c0.96394,-0.07026 1.80233,0.65421 1.87259,1.61815c0.07026,0.96394 -0.65421,1.80233 -1.61815,1.87259c-0.66178,0.04824 -1.26438,-0.2781 -1.59987,-0.79936c-0.27757,0.49652 -0.79151,0.84834 -1.40127,0.89278c-0.41074,0.02994 -0.79868,-0.08442 -1.11412,-0.30011c-0.25281,0.18084 -0.55698,0.29659 -0.88968,0.32084c-0.46286,0.03374 -0.89678,-0.11576 -1.2306,-0.38703c-0.27585,0.24075 -0.62926,0.39727 -1.02253,0.42593c-0.48837,0.0356 -0.94452,-0.1328 -1.28488,-0.43299c-0.29323,0.34637 -0.72013,0.57913 -1.20851,0.61473c-0.55626,0.04055 -1.07072,-0.18357 -1.41988,-0.56563c-0.29007,0.42865 -0.76658,0.725 -1.32285,0.76554c-0.58556,0.04268 -1.12479,-0.20791 -1.47365,-0.62729c-0.29302,0.39452 -0.74958,0.66401 -1.27816,0.70254c-0.96394,0.07026 -1.80233,-0.65421 -1.87259,-1.61815c-0.07026,-0.96394 0.65421,-1.80233 1.61815,-1.87259c0.58556,-0.04268 1.12479,0.20791 1.47365,0.62729c0.29302,-0.39452 0.74958,-0.66401 1.27816,-0.70254c0.55626,-0.04055 1.07072,0.18357 1.41988,0.56563c0.29007,-0.42865 0.76658,-0.725 1.32285,-0.76554c0.48837,-0.0356 0.94452,0.1328 1.28488,0.43299c0.29323,-0.34637 0.72013,-0.57913 1.20851,-0.61473c0.46286,-0.03374 0.89678,0.11576 1.2306,0.38703c0.27585,-0.24075 0.62926,-0.39727 1.02253,-0.42593c0.41074,-0.02994 0.79868,0.08442 1.11412,0.30011c0.25281,-0.18084 0.55698,-0.29659 0.88968,-0.32084c0.66178,-0.04824 1.26438,0.2781 1.59987,0.79936c0.27757,-0.49652 0.79151,-0.84834 1.40127,-0.89278z" fill="#9d2f3a" stroke="none" stroke-width="0.5" stroke-linecap="butt"/><path d="M395.4222,141.37019c-0.07026,-0.96394 0.65421,-1.80233 1.61815,-1.87259c0.96394,-0.07026 1.80233,0.65421 1.87259,1.61815c0.07026,0.96394 -0.65421,1.80233 -1.61815,1.87259c-0.96394,0.07026 -1.80233,-0.65421 -1.87259,-1.61815z" fill="#9d2f3a" stroke="none" stroke-width="0.5" stroke-linecap="butt"/><path d="M272.90898,138.76969c-0.05019,-0.68852 0.46729,-1.28738 1.15582,-1.33756c0.68853,-0.05019 1.28738,0.4673 1.33756,1.15582c0.05019,0.68852 -0.46729,1.28738 -1.15582,1.33756c-0.68853,0.05019 -1.28738,-0.4673 -1.33756,-1.15582z" fill="#7c0000" stroke="none" stroke-width="0.5" stroke-linecap="butt"/><path d="M282.93195,135.28182c-0.05019,-0.68852 0.46729,-1.28738 1.15582,-1.33756c0.68853,-0.05019 1.28738,0.4673 1.33756,1.15582c0.05019,0.68852 -0.46729,1.28738 -1.15582,1.33756c-0.68853,0.05019 -1.28738,-0.4673 -1.33756,-1.15582z" fill="#7c0000" stroke="none" stroke-width="0.5" stroke-linecap="butt"/><path d="M291.26008,136.05343c-0.05019,-0.68852 0.46729,-1.28738 1.15582,-1.33756c0.68853,-0.05019 1.28738,0.4673 1.33756,1.15582c0.05019,0.68852 -0.46729,1.28738 -1.15582,1.33756c-0.68853,0.05019 -1.28738,-0.4673 -1.33756,-1.15582z" fill="#7c0000" stroke="none" stroke-width="0.5" stroke-linecap="butt"/><path d="M295.83904,136.97298c-0.05019,-0.68852 0.46729,-1.28738 1.15582,-1.33756c0.68853,-0.05019 1.28738,0.4673 1.33756,1.15582c0.05019,0.68852 -0.46729,1.28738 -1.15582,1.33756c-0.68853,0.05019 -1.28738,-0.4673 -1.33756,-1.15582z" fill="#7c0000" stroke="none" stroke-width="0.5" stroke-linecap="butt"/><path d="M302.26987,137.50689c-0.05019,-0.68852 0.46729,-1.28738 1.15582,-1.33756c0.68853,-0.05019 1.28738,0.4673 1.33756,1.15582c0.05019,0.68852 -0.46729,1.28738 -1.15582,1.33756c-0.68853,0.05019 -1.28738,-0.4673 -1.33756,-1.15582z" fill="#7c0000" stroke="none" stroke-width="0.5" stroke-linecap="butt"/><path d="M306.88263,137.17066c-0.05019,-0.68852 0.46729,-1.28738 1.15582,-1.33756c0.68853,-0.05019 1.28738,0.4673 1.33756,1.15582c0.05019,0.68852 -0.46729,1.28738 -1.15582,1.33756c-0.68853,0.05019 -1.28738,-0.4673 -1.33756,-1.15582z" fill="#7c0000" stroke="none" stroke-width="0.5" stroke-linecap="butt"/><path d="M314.74078,133.21393c-0.05019,-0.68852 0.46729,-1.28738 1.15582,-1.33756c0.68853,-0.05019 1.28738,0.4673 1.33756,1.15582c0.05019,0.68852 -0.46729,1.28738 -1.15582,1.33756c-0.68853,0.05019 -1.28738,-0.4673 -1.33756,-1.15582z" fill="#7c0000" stroke="none" stroke-width="0.5" stroke-linecap="butt"/><path d="M323.92342,133.67259c-0.05019,-0.68852 0.46729,-1.28738 1.15582,-1.33756c0.68853,-0.05019 1.28738,0.4673 1.33756,1.15582c0.05019,0.68852 -0.46729,1.28738 -1.15582,1.33756c-0.68853,0.05019 -1.28738,-0.4673 -1.33756,-1.15582z" fill="#7c0000" stroke="none" stroke-width="0.5" stroke-linecap="butt"/><path d="M327.73875,136.15179c-0.05019,-0.68852 0.46729,-1.28738 1.15582,-1.33756c0.68853,-0.05019 1.28738,0.4673 1.33756,1.15582c0.05019,0.68852 -0.46729,1.28738 -1.15582,1.33756c-0.68853,0.05019 -1.28738,-0.4673 -1.33756,-1.15582z" fill="#7c0000" stroke="none" stroke-width="0.5" stroke-linecap="butt"/><path d="M267.82449,151.54813c-0.05019,-0.68853 0.46729,-1.28738 1.15582,-1.33756c0.68853,-0.05019 1.28738,0.46729 1.33756,1.15582c0.05019,0.68853 -0.46729,1.28738 -1.15582,1.33756c-0.68853,0.05019 -1.28738,-0.46729 -1.33756,-1.15582z" fill="#940039" stroke="none" stroke-width="0.5" stroke-linecap="butt"/><path d="M276.49927,145.72709c0.68853,-0.05019 1.28738,0.46729 1.33756,1.15582c0.05019,0.68853 -0.46729,1.28738 -1.15582,1.33756c-0.19406,0.01414 -0.38098,-0.0168 -0.55051,-0.08395c-0.18862,0.38768 -0.5729,0.66716 -1.03384,0.70076c-0.68853,0.05019 -1.28738,-0.46729 -1.33756,-1.15582c-0.05019,-0.68853 0.46729,-1.28738 1.15582,-1.33756c0.19406,-0.01414 0.38098,0.0168 0.55051,0.08396c0.18862,-0.38768 0.57289,-0.66717 1.03384,-0.70077z" fill="#940039" stroke="none" stroke-width="0.5" stroke-linecap="butt"/><path d="M276.7825,150.64451c-0.05019,-0.68853 0.46729,-1.28738 1.15582,-1.33756c0.68853,-0.05019 1.28738,0.46729 1.33756,1.15582c0.05019,0.68853 -0.46729,1.28738 -1.15582,1.33756c-0.68853,0.05019 -1.28738,-0.46729 -1.33756,-1.15582z" fill="#940039" stroke="none" stroke-width="0.5" stroke-linecap="butt"/><path d="M318.00912,145.38353c-0.05019,-0.68853 0.46729,-1.28738 1.15582,-1.33756c0.68853,-0.05019 1.28738,0.46729 1.33756,1.15582c0.05019,0.68853 -0.46729,1.28738 -1.15582,1.33756c-0.68853,0.05019 -1.28738,-0.46729 -1.33756,-1.15582z" fill="#940039" stroke="none" stroke-width="0.5" stroke-linecap="butt"/><path d="M320.00893,148.74705c-0.05019,-0.68853 0.46729,-1.28738 1.15582,-1.33756c0.68853,-0.05019 1.28738,0.46729 1.33756,1.15582c0.05019,0.68853 -0.46729,1.28738 -1.15582,1.33756c-0.68853,0.05019 -1.28738,-0.46729 -1.33756,-1.15582z" fill="#940039" stroke="none" stroke-width="0.5" stroke-linecap="butt"/><path d="M266.0399,161.45407c-0.05019,-0.68853 0.46729,-1.28738 1.15582,-1.33756c0.68853,-0.05019 1.28738,0.46729 1.33756,1.15582c0.05019,0.68853 -0.46729,1.28738 -1.15582,1.33756c-0.68853,0.05019 -1.28738,-0.46729 -1.33756,-1.15582z" fill="#da5cb1" stroke="none" stroke-width="0.5" stroke-linecap="butt"/><path d="M271.26437,159.19328c-0.05019,-0.68853 0.46729,-1.28738 1.15582,-1.33756c0.68853,-0.05019 1.28738,0.46729 1.33756,1.15582c0.05019,0.68853 -0.46729,1.28738 -1.15582,1.33756c-0.68853,0.05019 -1.28738,-0.46729 -1.33756,-1.15582z" fill="#da5cb1" stroke="none" stroke-width="0.5" stroke-linecap="butt"/><path d="M323.85264,158.49341c-0.05019,-0.68853 0.46729,-1.28738 1.15582,-1.33756c0.68853,-0.05019 1.28738,0.46729 1.33756,1.15582c0.05019,0.68853 -0.46729,1.28738 -1.15582,1.33756c-0.68853,0.05019 -1.28738,-0.46729 -1.33756,-1.15582z" fill="#da5cb1" stroke="none" stroke-width="0.5" stroke-linecap="butt"/><path d="M337.37877,136.35151c-0.05019,-0.68852 0.46729,-1.28738 1.15582,-1.33756c0.68853,-0.05019 1.28738,0.4673 1.33756,1.15582c0.05019,0.68852 -0.46729,1.28738 -1.15582,1.33756c-0.68853,0.05019 -1.28738,-0.4673 -1.33756,-1.15582z" fill="#942c3b" stroke="none" stroke-width="0.5" stroke-linecap="butt"/><path d="M341.97706,133.40944c-0.05019,-0.68852 0.46729,-1.28738 1.15582,-1.33756c0.68853,-0.05019 1.28738,0.4673 1.33756,1.15582c0.05019,0.68852 -0.46729,1.28738 -1.15582,1.33756c-0.68853,0.05019 -1.28738,-0.4673 -1.33756,-1.15582z" fill="#942c3b" stroke="none" stroke-width="0.5" stroke-linecap="butt"/><path d="M348.47236,131.73282c-0.05019,-0.68852 0.46729,-1.28738 1.15582,-1.33756c0.68853,-0.05019 1.28738,0.4673 1.33756,1.15582c0.05019,0.68852 -0.46729,1.28738 -1.15582,1.33756c-0.68853,0.05019 -1.28738,-0.4673 -1.33756,-1.15582z" fill="#942c3b" stroke="none" stroke-width="0.5" stroke-linecap="butt"/><path d="M356.15403,132.57661c-0.05019,-0.68852 0.46729,-1.28738 1.15582,-1.33756c0.68853,-0.05019 1.28738,0.4673 1.33756,1.15582c0.05019,0.68852 -0.46729,1.28738 -1.15582,1.33756c-0.68853,0.05019 -1.28738,-0.4673 -1.33756,-1.15582z" fill="#942c3b" stroke="none" stroke-width="0.5" stroke-linecap="butt"/><path d="M360.87271,134.03744c-0.05019,-0.68852 0.46729,-1.28738 1.15582,-1.33756c0.68853,-0.05019 1.28738,0.4673 1.33756,1.15582c0.05019,0.68852 -0.46729,1.28738 -1.15582,1.33756c-0.68853,0.05019 -1.28738,-0.4673 -1.33756,-1.15582z" fill="#942c3b" stroke="none" stroke-width="0.5" stroke-linecap="butt"/><path d="M368.0682,133.7135c-0.05019,-0.68852 0.46729,-1.28738 1.15582,-1.33756c0.68853,-0.05019 1.28738,0.4673 1.33756,1.15582c0.05019,0.68852 -0.46729,1.28738 -1.15582,1.33756c-0.68853,0.05019 -1.28738,-0.4673 -1.33756,-1.15582z" fill="#942c3b" stroke="none" stroke-width="0.5" stroke-linecap="butt"/><path d="M378.35753,134.56775c-0.05019,-0.68852 0.46729,-1.28738 1.15582,-1.33756c0.68853,-0.05019 1.28738,0.4673 1.33756,1.15582c0.05019,0.68852 -0.46729,1.28738 -1.15582,1.33756c-0.68853,0.05019 -1.28738,-0.4673 -1.33756,-1.15582z" fill="#942c3b" stroke="none" stroke-width="0.5" stroke-linecap="butt"/><path d="M383.14483,134.2188c-0.05019,-0.68852 0.46729,-1.28738 1.15582,-1.33756c0.68853,-0.05019 1.28738,0.4673 1.33756,1.15582c0.05019,0.68852 -0.46729,1.28738 -1.15582,1.33756c-0.68853,0.05019 -1.28738,-0.4673 -1.33756,-1.15582z" fill="#942c3b" stroke="none" stroke-width="0.5" stroke-linecap="butt"/><path d="M388.34152,131.23312c-0.05019,-0.68852 0.46729,-1.28738 1.15582,-1.33756c0.68853,-0.05019 1.28738,0.4673 1.33756,1.15582c0.05019,0.68852 -0.46729,1.28738 -1.15582,1.33756c-0.68853,0.05019 -1.28738,-0.4673 -1.33756,-1.15582z" fill="#942c3b" stroke="none" stroke-width="0.5" stroke-linecap="butt"/><path d="M394.4815,130.18398c-0.05019,-0.68852 0.46729,-1.28738 1.15582,-1.33756c0.68853,-0.05019 1.28738,0.4673 1.33756,1.15582c0.05019,0.68852 -0.46729,1.28738 -1.15582,1.33756c-0.68853,0.05019 -1.28738,-0.4673 -1.33756,-1.15582z" fill="#942c3b" stroke="none" stroke-width="0.5" stroke-linecap="butt"/><path d="M397.9929,134.33971c-0.05019,-0.68852 0.46729,-1.28738 1.15582,-1.33756c0.68853,-0.05019 1.28738,0.4673 1.33756,1.15582c0.05019,0.68852 -0.46729,1.28738 -1.15582,1.33756c-0.68853,0.05019 -1.28738,-0.4673 -1.33756,-1.15582z" fill="#942c3b" stroke="none" stroke-width="0.5" stroke-linecap="butt"/><path d="M328.81785,148.20523c-0.05019,-0.68853 0.46729,-1.28738 1.15582,-1.33756c0.68853,-0.05019 1.28738,0.46729 1.33756,1.15582c0.05019,0.68853 -0.46729,1.28738 -1.15582,1.33756c-0.68853,0.05019 -1.28738,-0.46729 -1.33756,-1.15582z" fill="#9d2f3a" stroke="none" stroke-width="0.5" stroke-linecap="butt"/><path d="M383.34608,145.23332c-0.05019,-0.68853 0.46729,-1.28738 1.15582,-1.33756c0.68853,-0.05019 1.28738,0.46729 1.33756,1.15582c0.05019,0.68853 -0.46729,1.28738 -1.15582,1.33756c-0.68853,0.05019 -1.28738,-0.46729 -1.33756,-1.15582z" fill="#9d2f3a" stroke="none" stroke-width="0.5" stroke-linecap="butt"/><path d="M386.12413,144.83029c-0.05019,-0.68853 0.46729,-1.28738 1.15582,-1.33756c0.68853,-0.05019 1.28738,0.46729 1.33756,1.15582c0.05019,0.68853 -0.46729,1.28738 -1.15582,1.33756c-0.68853,0.05019 -1.28738,-0.46729 -1.33756,-1.15582z" fill="#9d2f3a" stroke="none" stroke-width="0.5" stroke-linecap="butt"/><path d="M390.58519,145.50778c-0.05019,-0.68853 0.46729,-1.28738 1.15582,-1.33756c0.68853,-0.05019 1.28738,0.46729 1.33756,1.15582c0.05019,0.68853 -0.46729,1.28738 -1.15582,1.33756c-0.68853,0.05019 -1.28738,-0.46729 -1.33756,-1.15582z" fill="#9d2f3a" stroke="none" stroke-width="0.5" stroke-linecap="butt"/><path d="M392.69213,144.15102c-0.05019,-0.68853 0.46729,-1.28738 1.15582,-1.33756c0.68853,-0.05019 1.28738,0.46729 1.33756,1.15582c0.05019,0.68853 -0.46729,1.28738 -1.15582,1.33756c-0.68853,0.05019 -1.28738,-0.46729 -1.33756,-1.15582z" fill="#9d2f3a" stroke="none" stroke-width="0.5" stroke-linecap="butt"/><path d="M272.01255,143.3219c-0.03011,-0.41311 0.28037,-0.77243 0.69349,-0.80254c0.41312,-0.03011 0.77243,0.28038 0.80254,0.69349c0.03011,0.41311 -0.28037,0.77243 -0.69349,0.80254c-0.41312,0.03011 -0.77243,-0.28038 -0.80254,-0.69349z" fill="#7c0000" stroke="none" stroke-width="0.5" stroke-linecap="butt"/><path d="M285.5911,142.53269c-0.03011,-0.41311 0.28037,-0.77243 0.69349,-0.80254c0.41312,-0.03011 0.77243,0.28038 0.80254,0.69349c0.03011,0.41311 -0.28037,0.77243 -0.69349,0.80254c-0.41312,0.03011 -0.77243,-0.28038 -0.80254,-0.69349z" fill="#7c0000" stroke="none" stroke-width="0.5" stroke-linecap="butt"/><path d="M318.03623,141.97253c-0.03011,-0.41311 0.28037,-0.77243 0.69349,-0.80254c0.41312,-0.03011 0.77243,0.28038 0.80254,0.69349c0.03011,0.41312 -0.28037,0.77243 -0.69349,0.80254c-0.41312,0.03011 -0.77243,-0.28037 -0.80254,-0.69349z" fill="#7c0000" stroke="none" stroke-width="0.5" stroke-linecap="butt"/><path d="M326.51169,139.95104c-0.03011,-0.41311 0.28037,-0.77243 0.69349,-0.80254c0.41312,-0.03011 0.77243,0.28038 0.80254,0.69349c0.03011,0.41311 -0.28037,0.77243 -0.69349,0.80254c-0.41312,0.03011 -0.77243,-0.28038 -0.80254,-0.69349z" fill="#7c0000" stroke="none" stroke-width="0.5" stroke-linecap="butt"/><path d="M267.91268,155.85311c-0.03011,-0.41312 0.28037,-0.77243 0.69349,-0.80254c0.41312,-0.03011 0.77243,0.28037 0.80254,0.69349c0.03011,0.41312 -0.28037,0.77243 -0.69349,0.80254c-0.41312,0.03011 -0.77243,-0.28037 -0.80254,-0.69349z" fill="#940039" stroke="none" stroke-width="0.5" stroke-linecap="butt"/><path d="M272.6709,155.10522c-0.03011,-0.41312 0.28037,-0.77243 0.69349,-0.80254c0.41312,-0.03011 0.77243,0.28037 0.80254,0.69349c0.03011,0.41312 -0.28037,0.77243 -0.69349,0.80254c-0.41312,0.03011 -0.77243,-0.28037 -0.80254,-0.69349z" fill="#940039" stroke="none" stroke-width="0.5" stroke-linecap="butt"/><path d="M322.82531,152.65264c-0.03011,-0.41312 0.28037,-0.77243 0.69349,-0.80254c0.41312,-0.03011 0.77243,0.28037 0.80254,0.69349c0.03011,0.41312 -0.28037,0.77243 -0.69349,0.80254c-0.41312,0.03011 -0.77243,-0.28037 -0.80254,-0.69349z" fill="#940039" stroke="none" stroke-width="0.5" stroke-linecap="butt"/><path d="M325.29345,164.50457c-0.03011,-0.41312 0.28037,-0.77243 0.69349,-0.80254c0.41312,-0.03011 0.77243,0.28037 0.80254,0.69349c0.03011,0.41312 -0.28037,0.77243 -0.69349,0.80254c-0.41312,0.03011 -0.77243,-0.28037 -0.80254,-0.69349z" fill="#da5cb1" stroke="none" stroke-width="0.5" stroke-linecap="butt"/><path d="M270.29766,169.31534c-0.03011,-0.41311 0.28038,-0.77243 0.69349,-0.80254c0.41311,-0.03011 0.77243,0.28038 0.80254,0.69349c0.03011,0.41311 -0.28038,0.77243 -0.69349,0.80254c-0.41311,0.03011 -0.77243,-0.28038 -0.80254,-0.69349z" fill="#da5cb1" stroke="none" stroke-width="0.5" stroke-linecap="butt"/><g stroke="#000000" stroke-width="0"><path d="M278.58862,171.07399l-6.72366,-9.83418l8.73892,1.42787z" fill="#000000" stroke-linecap="round"/><path d="M277.28509,166.24713c-0.94274,-12.9337 8.77786,-24.18276 21.71155,-25.1255c12.9337,-0.94274 24.18276,8.77785 25.1255,21.71154c0.94274,12.9337 -8.77785,24.18277 -21.71154,25.12551c-12.9337,0.94274 -24.18277,-8.77786 -25.12551,-21.71155z" fill="#ffffff" stroke-linecap="butt"/><path d="M293.41794,176.80955c-0.44276,-6.07438 4.12256,-11.35759 10.19697,-11.80035c6.07438,-0.44276 11.35759,4.12257 11.80036,10.19698c0.44276,6.07438 -4.12257,11.3576 -10.19697,11.80036c-6.07438,0.44276 -11.35759,-4.12257 -11.80036,-10.19698z" fill="#000000" stroke-linecap="butt"/><path d="M356.55575,184.01207c-12.89807,1.34501 -23.0341,-8.86158 -23.97684,-21.79528c-0.94274,-12.9337 7.36573,-25.14814 20.33315,-25.02503c28.0337,0.26614 26.46334,8.38066 27.40608,21.31436c0.94274,12.9337 -1.68967,23.20421 -23.76239,25.50595z" fill="url(#color-1)" stroke-linecap="butt"/><path d="M365.42815,173.32968c-5.45471,0.39759 -6.87951,-4.09617 -7.27711,-9.55089c-0.3976,-5.45473 0.38258,-9.80482 5.83729,-10.20241c5.45471,-0.39759 11.86418,3.58064 12.26178,9.03535c0,0 -5.36724,10.32035 -10.82196,10.71795z" fill="#000000" stroke-linecap="butt"/></g></g></g></g></g></svg>