<svg version="1.1" xmlns="http://www.w3.org/2000/svg" xmlns:xlink="http://www.w3.org/1999/xlink" width="216.63395" height="279.88949" viewBox="0,0,216.63395,279.88949"><defs><linearGradient x1="318.96396" y1="240.85412" x2="318.96396" y2="276.16737" gradientUnits="userSpaceOnUse" id="color-1"><stop offset="0" stop-color="#005cff" stop-opacity="0"/><stop offset="1" stop-color="#005cff" stop-opacity="0.2"/></linearGradient><radialGradient cx="321.40372" cy="140.011" r="64.23702" gradientUnits="userSpaceOnUse" id="color-2"><stop offset="0" stop-color="#aca5f2"/><stop offset="1" stop-color="#f3ca58"/></radialGradient><radialGradient cx="294.00011" cy="141.21196" r="23.48066" gradientUnits="userSpaceOnUse" id="color-3"><stop offset="0" stop-color="#ffffff"/><stop offset="1" stop-color="#ff6d6d"/></radialGradient><radialGradient cx="348.22771" cy="139.38123" r="23.48066" gradientUnits="userSpaceOnUse" id="color-4"><stop offset="0" stop-color="#ffffff"/><stop offset="1" stop-color="#ff6d6d"/></radialGradient></defs><g transform="translate(-211.09437,-39.18283)"><g stroke-miterlimit="10"><path d="M213.40901,313.86252v-267.72501h213.18203v267.72501z" fill="none" stroke="none" stroke-width="0" stroke-linecap="butt"/><g stroke-linecap="butt"><g><g stroke-width="0"><path d="M370.70106,269.87901c-0.06778,1.44597 -1.41901,-4.97989 -6.32499,-5.20986c-4.90598,-0.22997 -8.51273,-3.00784 -8.44495,-4.45381c0.06778,-1.44597 4.09981,0.87984 9.00579,1.10981c4.90598,0.22997 5.83193,7.10789 5.76415,8.55386z" fill="#f29d0f" stroke="#000000"/><path d="M363.39926,263.52066c0,8.78876 -6.18635,0.14404 -15.95739,0.14404c-9.77104,0 -15.01123,-7.44009 -15.01123,-16.22885c0,-8.78876 7.92099,-4.71717 17.69203,-4.71717c9.77104,0 13.27659,12.01322 13.27659,20.80198z" fill="#f2d40e" stroke="#000000"/><path d="M357.81447,254.49463c0,-0.69036 0.55964,-1.25 1.25,-1.25c0.69036,0 1.25,0.55964 1.25,1.25c0,0.69036 -0.55964,1.25 -1.25,1.25c-0.69036,0 -1.25,-0.55964 -1.25,-1.25z" fill="#000000" stroke="none"/></g><path d="M286.35186,319.07231c0,0 -1.89355,-25.93292 0.55642,-47.26366c2.58988,-22.54893 14.58643,-84.57844 14.58643,-84.57844l37.78325,-0.15789c0,0 9.71821,48.53571 12.06959,71.4019c2.15633,20.96935 1.5043,60.5981 1.5043,60.5981z" fill="#f3ca58" stroke="#000000" stroke-width="0"/><path d="M293.32494,231.4227c3.92467,-22.12412 8.16979,-44.1925 8.16979,-44.1925l37.78325,-0.15789c0,0 4.58735,22.91064 8.22116,44.66623c0.01212,0.07254 -54.19728,-0.18574 -54.1742,-0.31584z" fill="#f2bc49" stroke="#000000" stroke-width="0"/><path d="M294.35562,225.21107c3.47387,-19.2454 7.13909,-37.98086 7.13909,-37.98086l37.78325,-0.15789c0,0 3.7397,19.39228 7.08641,38.61124c0.00071,0.00407 -52.0355,-0.32431 -52.00875,-0.47248z" fill="#ffc72e" stroke="#000000" stroke-width="0"/><path d="M309.43057,274.95001c-0.60434,0 -1.13393,-0.23881 -1.42855,-0.59687c-0.40832,-0.03148 -0.71369,-0.15576 -0.71369,-0.15576c-2.81592,-1.14616 -6.6205,-2.20571 -9.08745,-3.72458c-5.15584,-3.1744 -6.48202,-7.967 -2.60749,-12.21832c3.34303,-3.66814 9.07756,-4.44116 14.1588,-5.7515c3.39017,-0.87425 6.25511,-2.47282 9.63619,-3.37881c2.25387,-0.97114 5.50095,-1.85595 7.42542,-3.16024c1.26199,-0.8553 1.68883,-2.21259 2.8379,-3.12013c0.82862,-0.65444 4.11036,-2.27023 5.42408,-1.94755c2.52904,0.62119 4.05401,5.49475 4.87382,7.17382c0.81561,1.67047 2.09706,2.72111 2.94108,4.38572c2.22816,4.39447 2.39218,10.85669 -0.38497,15.07163c-4.12178,4.62147 -13.47245,8.29221 -20.91425,8.62036c-3.3941,0.14966 -6.97675,-0.59431 -10.29739,-1.01544l-1.59475,-0.19833c-0.0875,0.01053 -0.17726,0.016 -0.26874,0.016z" fill="url(#color-1)" stroke="none" stroke-width="0.5"/><path d="M296.01191,216.45645c2.97215,-16.24462 5.48281,-29.22625 5.48281,-29.22625l37.78325,-0.15789c0,0 2.77645,13.86644 5.72037,30.26775c0.00971,0.0541 -49.03891,-0.59676 -48.98643,-0.88361z" fill="#ff9600" stroke="#000000" stroke-width="0"/><g stroke-width="0"><path d="M356.84063,264.74936c-0.16935,10.05097 -14.10853,4.57839 -35.80932,4.57839c-21.70078,0 -38.91576,4.34675 -38.50428,-5.05147c0.52608,-12.01574 17.11889,-0.63604 38.81967,-0.63604c21.70078,0 35.63747,-7.40967 35.49394,1.10912z" fill="#f2d40e" stroke="#000000"/><path d="M344.0944,266.38599c0,-0.97798 0.79281,-1.77078 1.77078,-1.77078c0.97798,0 1.77078,0.79281 1.77078,1.77078c0,0.97798 -0.79281,1.77078 -1.77078,1.77078c-0.97798,0 -1.77078,-0.79281 -1.77078,-1.77078z" fill="#080700" stroke="none"/><path d="M348.70222,261.04884c-0.3209,3.37178 -1.40371,2.88109 -2.86307,2.7422c-1.45936,-0.13889 -2.74263,0.12661 -2.42173,-3.24517c0.3209,-3.37178 3.22345,-5.85366 3.22345,-5.85366c0,0 2.38226,2.98485 2.06135,6.35663z" fill="#f2d40e" stroke="none"/><path d="M340.02662,267.57169c2.8247,-1.86894 3.12333,-0.71826 3.93224,0.50431c0.80891,1.22257 1.82178,2.05407 -1.00292,3.92301c-2.8247,1.86894 -6.57922,1.17036 -6.57922,1.17036c0,0 0.82521,-3.72874 3.64991,-5.59769z" fill="#f2d40e" stroke="none"/><path d="M345.92961,271.74288c-0.96942,-3.24532 0.21842,-3.1974 1.62304,-3.61698c1.40462,-0.41958 2.49413,-1.14777 3.46355,2.09755c0.96942,3.24532 -0.78801,6.63589 -0.78801,6.63589c0,0 -3.32917,-1.87113 -4.29858,-5.11645z" fill="#f2d40e" stroke="none"/><path d="M343.03151,260.28155c2.52782,2.25433 1.49142,2.83668 0.51571,3.93076c-0.97571,1.09408 -1.52125,2.28558 -4.04907,0.03125c-2.52782,-2.25433 -2.81034,-6.06283 -2.81034,-6.06283c0,0 3.81588,-0.15351 6.3437,2.10082z" fill="#f2d40e" stroke="none"/></g></g><path d="M295.94243,216.86713c0,-0.9665 0.7835,-1.75 1.75,-1.75c0.9665,0 1.75,0.7835 1.75,1.75c0,0.9665 -0.7835,1.75 -1.75,1.75c-0.9665,0 -1.75,-0.7835 -1.75,-1.75z" fill="#ff9600" stroke="none" stroke-width="0.5"/><path d="M345.50938,219.11519c0,0.69036 -0.55964,1.25 -1.25,1.25c-0.58846,0 -1.08194,-0.40663 -1.2148,-0.95423c-0.74057,-0.20381 -1.28455,-0.8821 -1.28455,-1.68743c0,-0.9665 0.7835,-1.75 1.75,-1.75c0.9665,0 1.5359,0.7835 1.5359,1.75c0,0.13554 -0.0112,0.26747 -0.03312,0.39415c0.30166,0.22821 0.49657,0.59009 0.49657,0.99751z" fill="#ff9600" stroke="none" stroke-width="0.5"/><path d="M337.26391,216.86713c0,-0.9665 0.7835,-1.75 1.75,-1.75c0.9665,0 1.75,0.7835 1.75,1.75c0,0.9665 -0.7835,1.75 -1.75,1.75c-0.9665,0 -1.75,-0.7835 -1.75,-1.75z" fill="#ff9600" stroke="none" stroke-width="0.5"/><path d="M331.05499,216.86713c0,-0.9665 0.7835,-1.75 1.75,-1.75c0.53678,0 1.01712,0.24168 1.33813,0.62215c0.32101,-0.38047 0.80135,-0.62215 1.33813,-0.62215c0.9665,0 1.75,0.7835 1.75,1.75c0,0.9665 -0.7835,1.75 -1.75,1.75c-0.53678,0 -1.01711,-0.24168 -1.33813,-0.62215c-0.32101,0.38047 -0.80135,0.62215 -1.33813,0.62215c-0.9665,0 -1.75,-0.7835 -1.75,-1.75z" fill="#ff9600" stroke="none" stroke-width="0.5"/><path d="M323.098,218.15174c0,-0.69036 0.55964,-1.25 1.25,-1.25c0.31567,0 0.604,0.11701 0.824,0.31002c-0.00317,-0.04309 -0.0048,-0.08662 -0.0048,-0.13053c0,-0.9665 0.7835,-1.75 1.75,-1.75c0.3111,0 0.60325,0.08118 0.8564,0.22351c0.25315,-0.14234 0.5453,-0.22351 0.8564,-0.22351c0.9665,0 1.75,0.7835 1.75,1.75c0,0.9665 -0.7835,1.75 -1.75,1.75c-0.3111,0 -0.60325,-0.08118 -0.8564,-0.22351c-0.00778,0.00438 -0.0156,0.00869 -0.02345,0.01295c-0.22316,0.34139 -0.60877,0.56697 -1.04706,0.56697c-0.50801,0 -0.94524,-0.30304 -1.14077,-0.73822c-0.13354,0.54664 -0.62656,0.95233 -1.21434,0.95233c-0.69036,0 -1.25,-0.55964 -1.25,-1.25z" fill="#ff9600" stroke="none" stroke-width="0.5"/><path d="M308.78848,216.86713c0,-0.90794 2.40865,-2.84656 3.17344,-1.50817c0.25014,0.14763 0.46034,0.3557 0.61052,0.60413c0.3065,-0.50702 0.86302,-0.84596 1.4987,-0.84596c0.47595,0 0.90752,0.19 1.223,0.49829c0.06029,-0.02457 0.12224,-0.04518 0.18548,-0.06204c0.19423,-0.07435 0.4051,-0.1151 0.62549,-0.1151c0.45635,0 0.87191,0.17468 1.18346,0.46083c0.02256,0.01482 0.04468,0.02996 0.06638,0.04539c0.23587,-0.11841 0.50221,-0.18507 0.78412,-0.18507c0.20657,0 0.40479,0.03579 0.58877,0.10151c0.18399,-0.06572 0.3822,-0.10151 0.58878,-0.10151c0.9665,0 1.75,0.7835 1.75,1.75c0,0.9665 -0.7835,1.75 -1.75,1.75c-0.20657,0 -0.40479,-0.0358 -0.58878,-0.10152c-0.18399,0.06572 -0.3822,0.10152 -0.58877,0.10152c-0.48323,0 -0.92072,-0.19586 -1.23741,-0.51253c-0.23892,0.12235 -0.50968,0.19138 -0.79655,0.19138c-0.13446,0 -0.26537,-0.01516 -0.39113,-0.04387c-0.435,0.10573 -0.83124,0.0274 -1.07466,-0.37157c-0.17815,0.06112 -0.36929,0.09429 -0.56817,0.09429c-0.63569,0 -1.1922,-0.33894 -1.4987,-0.84596c-0.3065,0.50702 -0.86302,0.84596 -1.49871,0.84596c-0.09804,0 -0.1942,-0.00807 -0.28785,-0.02356c-1.01047,0.44353 -1.99741,0.27119 -1.99741,-1.72644z" fill="#ff9600" stroke="none" stroke-width="0.5"/><path d="M304.0397,215.46065c0.265,-0.5145 2.3117,-1.46315 2.78381,-0.63695c0.5158,0.30442 0.86181,0.86589 0.86181,1.50818c0,0.9665 -0.7835,1.75 -1.75,1.75c-0.36156,0 -0.69751,-0.10965 -0.97641,-0.29751c-0.96798,-0.1522 -1.60936,-0.98382 -0.91921,-2.32372z" fill="#ff9600" stroke="none" stroke-width="0.5"/><path d="M299.9033,216.22483c0,-0.9665 0.7835,-1.75 1.75,-1.75c0.9665,0 1.75,0.7835 1.75,1.75c0,0.9665 -0.7835,1.75 -1.75,1.75c-0.9665,0 -1.75,-0.7835 -1.75,-1.75z" fill="#ff9600" stroke="none" stroke-width="0.5"/><path d="M300.36869,224.71642c0.69036,0 1.25,0.55964 1.25,1.25c0,0.69036 -0.55964,1.25 -1.25,1.25c-0.1789,0 -0.34902,-0.03758 -0.5029,-0.10528c-0.30099,0.24459 -0.6848,0.39118 -1.10286,0.39118c-0.49002,0 -0.93301,-0.2014 -1.25068,-0.52595c-0.28296,0.19661 -0.62671,0.31185 -0.99738,0.31185c-0.9665,0 -1.75,-0.7835 -1.75,-1.75c0,-0.9665 0.7835,-1.75 1.75,-1.75c0.49002,0 0.933,0.2014 1.25068,0.52595c0.28296,-0.19661 0.62672,-0.31185 0.99738,-0.31185c0.5849,0 1.10277,0.28694 1.42053,0.72773c0.06044,-0.00897 0.12229,-0.01363 0.18522,-0.01363z" fill="#ffc72e" stroke="none" stroke-width="0.5"/><path d="M305.22057,228.21448c0,-0.27336 0.08774,-0.52621 0.2366,-0.73195c-0.32446,-0.0491 -0.6197,-0.18731 -0.85998,-0.38887c-0.30406,0.25507 -0.6961,0.40866 -1.12403,0.40866c-0.9665,0 -1.75,-0.7835 -1.75,-1.75c0,-0.9665 0.7835,-1.75 1.75,-1.75c0.42793,0 0.81997,0.15359 1.12403,0.40866c0.30406,-0.25507 0.6961,-0.40866 1.12403,-0.40866c0.48265,0 0.91966,0.19539 1.23626,0.51138c0.30332,-0.25248 0.69335,-0.40433 1.11885,-0.40433c0.9665,0 1.75,0.7835 1.75,1.75c0,0.9665 -0.7835,1.75 -1.75,1.75c-0.19957,0 -0.39134,-0.03341 -0.57002,-0.09494c0.13526,0.19973 0.21427,0.44066 0.21427,0.70005c0,0.69036 -0.55964,1.25 -1.25,1.25c-0.69036,0 -1.25,-0.55964 -1.25,-1.25z" fill="#ffc72e" stroke="none" stroke-width="0.5"/><path d="M327.88066,223.89527c0.9665,0 1.75,0.7835 1.75,1.75c0,0.9665 -0.7835,1.75 -1.75,1.75c-0.68291,0 -1.27445,-0.39117 -1.56279,-0.96166c-0.31642,0.45199 -0.841,0.74755 -1.43462,0.74755c-0.9665,0 -1.75,-0.7835 -1.75,-1.75c0,-0.9665 0.7835,-1.75 1.75,-1.75c0.68291,0 1.27445,0.39117 1.5628,0.96166c0.31642,-0.45199 0.841,-0.74755 1.43461,-0.74755z" fill="#ffc72e" stroke="none" stroke-width="0.5"/><path d="M331.12678,228.32152c0,-0.51662 0.3134,-0.96004 0.76045,-1.1505c-0.43936,-0.31793 -0.7252,-0.83494 -0.7252,-1.41871c0,-0.9665 0.7835,-1.75 1.75,-1.75c0.17045,0 0.3352,0.02437 0.49098,0.06981c0.78988,-0.18737 1.47312,0.15276 1.47312,1.68019c0,0.22004 -0.17418,0.54241 -0.4399,0.86046c-0.19302,0.34118 -0.4973,0.61113 -0.86354,0.76055c-0.08123,0.05076 -0.16337,0.09658 -0.2455,0.13625c0.18679,0.21843 0.29959,0.50202 0.29959,0.81196c0,0.69036 -0.55964,1.25 -1.25,1.25c-0.69036,0 -1.25,-0.55964 -1.25,-1.25z" fill="#ffc72e" stroke="none" stroke-width="0.5"/><path d="M335.94405,226.82283c0,-0.68096 0.54451,-1.23474 1.22187,-1.24969c0.08974,-0.88233 0.83493,-1.57082 1.74094,-1.57082c0.33328,0 0.6448,0.09316 0.90993,0.25487c0.26513,-0.16171 0.57665,-0.25487 0.90992,-0.25487c0.9665,0 1.75,0.7835 1.75,1.75c0,0.9665 -0.7835,1.75 -1.75,1.75c-0.32024,0 -0.62038,-0.08602 -0.8786,-0.23621c-0.11041,0.06321 -0.23139,0.11005 -0.35963,0.13724c-0.18197,0.06411 -0.37773,0.09897 -0.58163,0.09897c-0.21143,0 -0.41411,-0.0375 -0.60174,-0.1062c-0.20783,0.40195 -0.62736,0.6767 -1.11107,0.6767c-0.69036,0 -1.25,-0.55964 -1.25,-1.25z" fill="#ffc72e" stroke="none" stroke-width="0.5"/><path d="M342.36708,228.64268c0,-0.64099 0.48246,-1.16929 1.10406,-1.24157c-0.45205,-0.31641 -0.74766,-0.84103 -0.74766,-1.43469c0,-0.9665 0.7835,-1.75 1.75,-1.75c0.9665,0 1.75,0.7835 1.75,1.75c0,0.9665 -0.7835,1.75 -1.75,1.75c-0.00571,0 -0.01142,-0.00002 -0.01711,-0.00008c0.25227,0.2287 0.41071,0.55902 0.41071,0.92634c0,0.69036 -0.55964,1.25 -1.25,1.25c-0.69036,0 -1.25,-0.55964 -1.25,-1.25z" fill="#ffc72e" stroke="none" stroke-width="0.5"/><path d="M297.79948,229.99715c0.9665,0 1.75,0.7835 1.75,1.75c0,0.9665 -0.7835,1.75 -1.75,1.75c-0.53678,0 -1.01712,-0.24167 -1.33813,-0.62215c-0.32101,0.38047 -0.80135,0.62215 -1.33813,0.62215c-0.9665,0 -1.75,-0.7835 -1.75,-1.75c0,-0.9665 0.7835,-1.75 1.75,-1.75c0.53678,0 1.01711,0.24168 1.33813,0.62215c0.32101,-0.38047 0.80135,-0.62215 1.33813,-0.62215z" fill="#f2bc49" stroke="none" stroke-width="0.5"/><path d="M303.93597,232.4965c0,-0.69036 0.55964,-1.25 1.25,-1.25c0.27335,0 0.52621,0.08774 0.73195,0.2366c0.06109,-0.40368 0.26009,-0.76211 0.54745,-1.02577c0.3199,-0.34867 0.77933,-0.56724 1.28981,-0.56724c0.9665,0 1.75,0.7835 1.75,1.75c0,0.51048 -0.21858,0.96991 -0.56724,1.28981c-0.3199,0.34867 -0.77933,0.56724 -1.28981,0.56724c-0.51031,0 -0.96959,-0.21842 -1.28947,-0.56687c-0.17633,0.47654 -0.63484,0.81623 -1.17269,0.81623c-0.69036,0 -1.25,-0.55964 -1.25,-1.25z" fill="#f2bc49" stroke="none" stroke-width="0.5"/><path d="M317.71087,229.56895c0.9665,0 1.75,0.7835 1.75,1.75c0,0.9665 -0.7835,1.75 -1.75,1.75c-0.63448,0 -1.19009,-0.33766 -1.49696,-0.84308c-0.26839,0.6219 -0.88711,1.05718 -1.6075,1.05718c-0.9665,0 -1.75,-0.7835 -1.75,-1.75c0,-0.9665 0.7835,-1.75 1.75,-1.75c0.63448,0 1.19009,0.33766 1.49696,0.84308c0.26839,-0.6219 0.88711,-1.05718 1.6075,-1.05718z" fill="#f2bc49" stroke="none" stroke-width="0.5"/><path d="M320.34994,231.10484c0,-0.9665 0.7835,-1.75 1.75,-1.75c0.9665,0 1.75,0.7835 1.75,1.75c0,0.9665 -0.7835,1.75 -1.75,1.75c-0.9665,0 -1.75,-0.7835 -1.75,-1.75z" fill="#f2bc49" stroke="none" stroke-width="0.5"/><path d="M327.41526,231.10484c0,-0.9665 0.7835,-1.75 1.75,-1.75c0.9665,0 1.75,0.7835 1.75,1.75c0,0.9665 -0.7835,1.75 -1.75,1.75c-0.9665,0 -1.75,-0.7835 -1.75,-1.75z" fill="#f2bc49" stroke="none" stroke-width="0.5"/><path d="M338.62032,234.20931c0,-0.33082 0.12851,-0.63162 0.33833,-0.85521c-0.2128,0.09204 -0.44749,0.14305 -0.6941,0.14305c-0.9665,0 -1.75,-0.7835 -1.75,-1.75c0,-0.9665 0.7835,-1.75 1.75,-1.75c0.42778,0 0.81972,0.15349 1.12373,0.40841c0.32101,-0.38068 0.80148,-0.6225 1.33843,-0.6225c0.9665,0 1.75,0.7835 1.75,1.75c0,0.9665 -0.7835,1.75 -1.75,1.75c-0.00571,0 -0.01141,-0.00003 -0.01711,-0.00009c0.25227,0.2287 0.41071,0.55902 0.41071,0.92634c0,0.69036 -0.55964,1.25 -1.25,1.25c-0.69036,0 -1.25,-0.55964 -1.25,-1.25zM339.60299,232.87464c-0.04618,0.05477 -0.09566,0.10666 -0.14814,0.15537c0.08593,-0.03027 0.17616,-0.05142 0.26953,-0.06227c-0.04184,-0.02928 -0.08234,-0.06036 -0.12139,-0.0931z" fill="#f2bc49" stroke="none" stroke-width="0.5"/><path d="M345.65104,229.8901c0.9665,0 1.75,0.7835 1.75,1.75c0,0.9665 -0.7835,1.75 -1.75,1.75c-0.33299,0 -0.64426,-0.09301 -0.90924,-0.25446c-0.12092,0.02642 -0.24651,0.04036 -0.37536,0.04036c-0.9665,0 -1.75,-0.7835 -1.75,-1.75c0,-0.9665 0.7835,-1.75 1.75,-1.75c0.33299,0 0.64425,0.093 0.90924,0.25445c0.12092,-0.02642 0.24652,-0.04035 0.37537,-0.04035z" fill="#f2bc49" stroke="none" stroke-width="0.5"/><path d="M301.68791,220.07865c0,-0.69036 0.55964,-1.25 1.25,-1.25c0.69036,0 1.25,0.55964 1.25,1.25c0,0.69036 -0.55964,1.25 -1.25,1.25c-0.69036,0 -1.25,-0.55964 -1.25,-1.25z" fill="#ff9600" stroke="none" stroke-width="0.5"/><path d="M311.32245,220.50685c0,-0.69036 0.55964,-1.25 1.25,-1.25c0.69036,0 1.25,0.55964 1.25,1.25c0,0.69036 -0.55964,1.25 -1.25,1.25c-0.69036,0 -1.25,-0.55964 -1.25,-1.25z" fill="#ff9600" stroke="none" stroke-width="0.5"/><path d="M330.91268,220.50685c0,-0.69036 0.55964,-1.25 1.25,-1.25c0.69036,0 1.25,0.55964 1.25,1.25c0,0.69036 -0.55964,1.25 -1.25,1.25c-0.69036,0 -1.25,-0.55964 -1.25,-1.25z" fill="#ff9600" stroke="none" stroke-width="0.5"/><path d="M336.80046,221.79145c0,-0.69036 0.55964,-1.25 1.25,-1.25c0.69036,0 1.25,0.55964 1.25,1.25c0,0.69036 -0.55964,1.25 -1.25,1.25c-0.69036,0 -1.25,-0.55964 -1.25,-1.25z" fill="#ff9600" stroke="none" stroke-width="0.5"/><path d="M301.0456,228.74973c0,-0.69036 0.55964,-1.25 1.25,-1.25c0.69036,0 1.25,0.55964 1.25,1.25c0,0.69036 -0.55964,1.25 -1.25,1.25c-0.69036,0 -1.25,-0.55964 -1.25,-1.25z" fill="#ffc72e" stroke="none" stroke-width="0.5"/><path d="M317.53137,227.35808c0,-0.1411 0.02338,-0.27673 0.06647,-0.40324c-0.19722,0.07701 -0.41183,0.11928 -0.63632,0.11928c-0.37248,0 -0.71777,-0.11637 -1.00152,-0.31473c-0.30617,0.26291 -0.70428,0.42178 -1.13949,0.42178c-0.38732,0 -0.74524,-0.12582 -1.03514,-0.33882c-0.2268,0.23088 -0.54256,0.37408 -0.89177,0.37408c-0.13883,0 -0.27238,-0.02264 -0.39715,-0.06441c-0.22837,0.29941 -0.58887,0.49262 -0.9945,0.49262c-0.69036,0 -1.25,-0.55964 -1.25,-1.25c0,-0.69036 0.55964,-1.25 1.25,-1.25c0.13883,0 0.27238,0.02264 0.39715,0.06441c0.22837,-0.29941 0.58887,-0.49262 0.9945,-0.49262c0.10774,0 0.2123,0.01363 0.31204,0.03926c0.2643,-0.63113 0.88781,-1.07452 1.61487,-1.07452c0.37248,0 0.71777,0.11637 1.00151,0.31474c0.30617,-0.26291 0.70428,-0.42178 1.1395,-0.42178c0.9665,0 1.75,0.7835 1.75,1.75c0,0.29354 -0.07228,0.5702 -0.2,0.81316c0.08691,-0.01913 0.17721,-0.0292 0.26986,-0.0292c0.69036,0 1.25,0.55964 1.25,1.25c0,0.69036 -0.55964,1.25 -1.25,1.25c-0.69036,0 -1.25,-0.55964 -1.25,-1.25z" fill="#ffc72e" stroke="none" stroke-width="0.5"/><path d="M320.63584,228.10743c0,-0.69036 0.55964,-1.25 1.25,-1.25c0.69036,0 1.25,0.55964 1.25,1.25c0,0.69036 -0.55964,1.25 -1.25,1.25c-0.69036,0 -1.25,-0.55964 -1.25,-1.25z" fill="#ffc72e" stroke="none" stroke-width="0.5"/><path d="M325.02491,228.32152c0,-0.69036 0.55964,-1.25 1.25,-1.25c0.69036,0 1.25,0.55964 1.25,1.25c0,0.69036 -0.55964,1.25 -1.25,1.25c-0.69036,0 -1.25,-0.55964 -1.25,-1.25z" fill="#ffc72e" stroke="none" stroke-width="0.5"/><path d="M294.94372,236.13622c0,-0.69036 0.55964,-1.25 1.25,-1.25c0.69036,0 1.25,0.55964 1.25,1.25c0,0.69036 -0.55964,1.25 -1.25,1.25c-0.69036,0 -1.25,-0.55964 -1.25,-1.25z" fill="#f2bc49" stroke="none" stroke-width="0.5"/><path d="M301.36675,232.60355c0,-0.69036 0.55964,-1.25 1.25,-1.25c0.69036,0 1.25,0.55964 1.25,1.25c0,0.69036 -0.55964,1.25 -1.25,1.25c-0.69036,0 -1.25,-0.55964 -1.25,-1.25z" fill="#f2bc49" stroke="none" stroke-width="0.5"/><path d="M308.32503,234.10226c0,-0.69036 0.55964,-1.25 1.25,-1.25c0.69036,0 1.25,0.55964 1.25,1.25c0,0.69036 -0.55964,1.25 -1.25,1.25c-0.69036,0 -1.25,-0.55964 -1.25,-1.25z" fill="#f2bc49" stroke="none" stroke-width="0.5"/><path d="M310.7872,234.74456c0,-0.69036 0.55964,-1.25 1.25,-1.25c0.69036,0 1.25,0.55964 1.25,1.25c0,0.69036 -0.55964,1.25 -1.25,1.25c-0.69036,0 -1.25,-0.55964 -1.25,-1.25z" fill="#f2bc49" stroke="none" stroke-width="0.5"/><path d="M314.85511,235.27981c0,-0.69036 0.55964,-1.25 1.25,-1.25c0.69036,0 1.25,0.55964 1.25,1.25c0,0.69036 -0.55964,1.25 -1.25,1.25c-0.69036,0 -1.25,-0.55964 -1.25,-1.25z" fill="#f2bc49" stroke="none" stroke-width="0.5"/><path d="M321.38519,235.38686c0,-0.69036 0.55964,-1.25 1.25,-1.25c0.69036,0 1.25,0.55964 1.25,1.25c0,0.69036 -0.55964,1.25 -1.25,1.25c-0.69036,0 -1.25,-0.55964 -1.25,-1.25z" fill="#f2bc49" stroke="none" stroke-width="0.5"/><path d="M326.63066,234.10226c0,-0.69036 0.55964,-1.25 1.25,-1.25c0.69036,0 1.25,0.55964 1.25,1.25c0,0.69036 -0.55964,1.25 -1.25,1.25c-0.69036,0 -1.25,-0.55964 -1.25,-1.25z" fill="#f2bc49" stroke="none" stroke-width="0.5"/><path d="M332.69793,231.2465c0.69036,0 1.25,0.55964 1.25,1.25c0,0.69036 -0.55964,1.25 -1.25,1.25c-0.0544,0 -0.108,-0.00348 -0.16057,-0.01022c-0.05257,0.00674 -0.10617,0.01022 -0.16057,0.01022c-0.69036,0 -1.25,-0.55964 -1.25,-1.25c0,-0.69036 0.55964,-1.25 1.25,-1.25c0.0544,0 0.108,0.00348 0.16057,0.01022c0.05257,-0.00674 0.10617,-0.01022 0.16057,-0.01022z" fill="#f2bc49" stroke="none" stroke-width="0.5"/><path d="M341.08248,234.74456c0,-0.69036 0.55964,-1.25 1.25,-1.25c0.69036,0 1.25,0.55964 1.25,1.25c0,0.69036 -0.55964,1.25 -1.25,1.25c-0.69036,0 -1.25,-0.55964 -1.25,-1.25z" fill="#f2bc49" stroke="none" stroke-width="0.5"/><path d="M304.86417,223.50426c0,-0.41422 0.33578,-0.75 0.75,-0.75c0.41422,0 0.75,0.33578 0.75,0.75c0,0.41422 -0.33578,0.75 -0.75,0.75c-0.41422,0 -0.75,-0.33578 -0.75,-0.75z" fill="#ff9600" stroke="none" stroke-width="0.5"/><path d="M315.89036,221.8985c0,-0.41422 0.33578,-0.75 0.75,-0.75c0.41422,0 0.75,0.33578 0.75,0.75c0,0.41422 -0.33578,0.75 -0.75,0.75c-0.41422,0 -0.75,-0.33578 -0.75,-0.75z" fill="#ff9600" stroke="none" stroke-width="0.5"/><path d="M329.80692,223.82541c0,-0.41422 0.33578,-0.75 0.75,-0.75c0.41422,0 0.75,0.33578 0.75,0.75c0,0.41422 -0.33578,0.75 -0.75,0.75c-0.41422,0 -0.75,-0.33578 -0.75,-0.75z" fill="#ff9600" stroke="none" stroke-width="0.5"/><path d="M338.47801,224.57477c0,-0.41422 0.33578,-0.75 0.75,-0.75c0.41422,0 0.75,0.33578 0.75,0.75c0,0.41422 -0.33578,0.75 -0.75,0.75c-0.41422,0 -0.75,-0.33578 -0.75,-0.75z" fill="#ff9600" stroke="none" stroke-width="0.5"/><path d="M296.62128,228.85678c0,-0.41422 0.33578,-0.75 0.75,-0.75c0.41422,0 0.75,0.33578 0.75,0.75c0,0.41422 -0.33578,0.75 -0.75,0.75c-0.41422,0 -0.75,-0.33578 -0.75,-0.75z" fill="#ffc72e" stroke="none" stroke-width="0.5"/><path d="M313,230.03434c0,-0.41422 0.33578,-0.75 0.75,-0.75c0.41422,0 0.75,0.33578 0.75,0.75c0,0.41422 -0.33578,0.75 -0.75,0.75c-0.41422,0 -0.75,-0.33578 -0.75,-0.75z" fill="#ffc72e" stroke="none" stroke-width="0.5"/><path d="M335.0524,230.03434c0,-0.41422 0.33578,-0.75 0.75,-0.75c0.41422,0 0.75,0.33578 0.75,0.75c0,0.41422 -0.33578,0.75 -0.75,0.75c-0.41422,0 -0.75,-0.33578 -0.75,-0.75z" fill="#ffc72e" stroke="none" stroke-width="0.5"/><path d="M339.22737,231.6401c0,-0.41422 0.33578,-0.75 0.75,-0.75c0.41422,0 0.75,0.33578 0.75,0.75c0,0.41422 -0.33578,0.75 -0.75,0.75c-0.41422,0 -0.75,-0.33578 -0.75,-0.75z" fill="#ffc72e" stroke="none" stroke-width="0.5"/><path d="M299.51164,237.31377c0,-0.41422 0.33578,-0.75 0.75,-0.75c0.41422,0 0.75,0.33578 0.75,0.75c0,0.41422 -0.33578,0.75 -0.75,0.75c-0.41422,0 -0.75,-0.33578 -0.75,-0.75z" fill="#f2bc49" stroke="none" stroke-width="0.5"/><path d="M302.29496,235.81506c0,-0.41422 0.33578,-0.75 0.75,-0.75c0.41422,0 0.75,0.33578 0.75,0.75c0,0.41422 -0.33578,0.75 -0.75,0.75c-0.41422,0 -0.75,-0.33578 -0.75,-0.75z" fill="#f2bc49" stroke="none" stroke-width="0.5"/><path d="M311.39425,237.84901c0,-0.41422 0.33578,-0.75 0.75,-0.75c0.41422,0 0.75,0.33578 0.75,0.75c0,0.41422 -0.33578,0.75 -0.75,0.75c-0.41422,0 -0.75,-0.33578 -0.75,-0.75z" fill="#f2bc49" stroke="none" stroke-width="0.5"/><path d="M315.67626,240.31118c0,-0.41422 0.33578,-0.75 0.75,-0.75c0.41422,0 0.75,0.33578 0.75,0.75c0,0.41422 -0.33578,0.75 -0.75,0.75c-0.41422,0 -0.75,-0.33578 -0.75,-0.75z" fill="#f2bc49" stroke="none" stroke-width="0.5"/><path d="M326.59541,238.49133c0,-0.41422 0.33578,-0.75 0.75,-0.75c0.41422,0 0.75,0.33578 0.75,0.75c0,0.41422 -0.33578,0.75 -0.75,0.75c-0.41422,0 -0.75,-0.33578 -0.75,-0.75z" fill="#f2bc49" stroke="none" stroke-width="0.5"/><path d="M336.22995,236.45737c0,-0.41422 0.33578,-0.75 0.75,-0.75c0.41422,0 0.75,0.33578 0.75,0.75c0,0.41422 -0.33578,0.75 -0.75,0.75c-0.41422,0 -0.75,-0.33578 -0.75,-0.75z" fill="#f2bc49" stroke="none" stroke-width="0.5"/><path d="M342.22478,239.02658c0,-0.41422 0.33578,-0.75 0.75,-0.75c0.41422,0 0.75,0.33578 0.75,0.75c0,0.41422 -0.33578,0.75 -0.75,0.75c-0.41422,0 -0.75,-0.33578 -0.75,-0.75z" fill="#f2bc49" stroke="none" stroke-width="0.5"/></g><path d="" fill="none" stroke="#000000" stroke-width="2" stroke-linecap="round"/><g><g><path d="M371.61924,106.7319l56.06276,-24.6507c0,0 -0.27687,35.19382 -3.93689,52.98192c-3.94937,19.19442 -18.95741,58.28704 -18.95741,58.28704l-29.83125,-23.2481z" fill="#f3ca58" stroke="#000000" stroke-width="0" stroke-linecap="round"/><path d="M378.50611,161.06205c9.17704,5.09323 17.42529,9.88014 17.42529,9.88014c0,0 -9.01342,-3.09094 -18.19045,-8.18417c-9.17704,-5.09323 -16.63172,-9.30043 -15.94995,-10.52886c0.68177,-1.22843 7.53806,3.73966 16.7151,8.83287z" fill="#ff9600" stroke="#000000" stroke-width="0" stroke-linecap="butt"/><path d="M372.88792,141.05077c0.09374,-1.4018 8.41293,0.17361 18.88519,0.87398c10.47226,0.70037 19.97373,1.51909 19.97373,1.51909c0,0 -9.47156,1.0416 -19.94383,0.34125c-10.47227,-0.70036 -19.00885,-1.33251 -18.9151,-2.73431z" fill="#ff9600" stroke="#000000" stroke-width="0" stroke-linecap="butt"/><g stroke="#000000" stroke-width="0" stroke-linecap="round"><g fill="#f2bc49"><path d="M371.86737,111.44381c-0.1289,-2.44757 -0.24813,-4.71191 -0.24813,-4.71191l56.06276,-24.6507c0,0 -0.10484,13.32695 -1.03836,27.72402c-0.02007,0.30959 -54.7734,1.69281 -54.77625,1.6386z"/></g><g fill="#ffc72e"><path d="M371.61924,106.7319l56.06276,-24.6507c0,0 -0.08113,10.3135 -0.73619,22.59618c-0.00137,0.02559 -55.32657,2.05454 -55.32657,2.05454z"/></g><g fill="#ff9600"><path d="M398.59174,94.87212c9.51353,-4.18309 29.09025,-12.79093 29.09025,-12.79093c0,0 0.10537,2.95445 -0.00169,6.71599c-0.03925,1.3792 -0.26902,2.87238 -0.3123,4.36043c-0.00038,0.01289 -28.95547,1.7933 -28.77624,1.71451z"/></g></g><path d="M425.05934,95.10346c-0.96595,0.03261 -1.77544,-0.72401 -1.80805,-1.68996c-0.03261,-0.96595 0.72401,-1.77544 1.68996,-1.80805c0.96595,-0.03261 1.77544,0.72401 1.80805,1.68996c0.03261,0.96595 -0.72401,1.77544 -1.68996,1.80805z" fill="#ff9600" stroke="none" stroke-width="0.5" stroke-linecap="butt"/><path d="M421.34871,96.16536c-0.64245,0.02168 -1.2157,-0.30574 -1.53719,-0.81168c-0.1948,0.72344 -0.84332,1.2667 -1.63106,1.29329c-0.23157,0.00782 -0.45414,-0.02972 -0.65917,-0.10462c-0.19952,0.08856 -0.41904,0.14103 -0.65061,0.14885c-0.96595,0.03261 -1.77544,-0.72401 -1.80805,-1.68996c-0.03261,-0.96595 0.72401,-1.77544 1.68996,-1.80805c0.23157,-0.00782 0.45414,0.02972 0.65917,0.10462c0.19952,-0.08856 0.41904,-0.14103 0.65061,-0.14885c0.64246,-0.02169 1.2157,0.30574 1.53719,0.81169c0.1948,-0.72344 0.84332,-1.26671 1.63106,-1.2933c0.96595,-0.03261 1.77544,0.72401 1.80805,1.68996c0.03261,0.96595 -0.72401,1.77544 -1.68996,1.80805z" fill="#ff9600" stroke="none" stroke-width="0.5" stroke-linecap="butt"/><path d="M413.284,95.87566c-0.96595,0.03261 -1.77544,-0.72401 -1.80805,-1.68996c-0.03261,-0.96595 0.72401,-1.77544 1.68996,-1.80805c0.96595,-0.03261 1.77544,0.72401 1.80805,1.68996c0.03261,0.96595 -0.72401,1.77544 -1.68996,1.80805z" fill="#ff9600" stroke="none" stroke-width="0.5" stroke-linecap="butt"/><path d="M407.25418,95.13812c-0.04025,-0.1378 -0.06407,-0.28283 -0.06913,-0.43292c-0.03261,-0.96595 0.72401,-1.77544 1.68996,-1.80805c0.96595,-0.03261 1.77544,0.72401 1.80805,1.68996c0.03261,0.96595 -0.72401,1.77544 -1.68996,1.80805c-0.15009,0.00507 -0.29639,-0.00892 -0.4366,-0.03979c0.01746,0.6853 -0.52098,1.25775 -1.20743,1.28092c-0.68996,0.02329 -1.26818,-0.51715 -1.29147,-1.20711c-0.02317,-0.68645 0.51165,-1.26227 1.19657,-1.29106z" fill="#ff9600" stroke="none" stroke-width="0.5" stroke-linecap="butt"/><path d="M404.12823,96.55941c-0.96595,0.03261 -1.77544,-0.72401 -1.80805,-1.68996c-0.03261,-0.96595 0.72401,-1.77544 1.68996,-1.80805c0.96595,-0.03261 1.77544,0.72401 1.80805,1.68996c0.03261,0.96595 -0.72401,1.77544 -1.68996,1.80805z" fill="#ff9600" stroke="none" stroke-width="0.5" stroke-linecap="butt"/><path d="M424.28379,99.87444c-0.68997,0.02329 -1.26818,-0.51715 -1.29147,-1.20711c-0.02329,-0.68996 0.51714,-1.26817 1.20711,-1.29147c0.68997,-0.02329 1.26818,0.51715 1.29147,1.20711c0.02329,0.68996 -0.51714,1.26817 -1.20711,1.29147z" fill="#ff9600" stroke="none" stroke-width="0.5" stroke-linecap="butt"/><path d="M417.43018,102.16638c-0.68997,0.02329 -1.26818,-0.51715 -1.29147,-1.20711c-0.02329,-0.68996 0.51714,-1.26817 1.20711,-1.29147c0.68997,-0.02329 1.26818,0.51715 1.29147,1.20711c0.02329,0.68996 -0.51714,1.26817 -1.20711,1.29147z" fill="#ff9600" stroke="none" stroke-width="0.5" stroke-linecap="butt"/><path d="M413.37452,98.55683c-0.68996,0.02329 -1.26818,-0.51715 -1.29147,-1.20711c-0.02329,-0.68996 0.51715,-1.26818 1.20711,-1.29147c0.68997,-0.02329 1.26818,0.51715 1.29147,1.20711c0.02329,0.68996 -0.51714,1.26817 -1.20711,1.29147z" fill="#ff9600" stroke="none" stroke-width="0.5" stroke-linecap="butt"/><path d="M397.98723,97.76504c-0.68997,0.02329 -1.26818,-0.51715 -1.29147,-1.20711c-0.02329,-0.68996 0.51714,-1.26817 1.20711,-1.29147c0.68997,-0.02329 1.26818,0.51715 1.29147,1.20711c0.02329,0.68996 -0.51714,1.26817 -1.20711,1.29147z" fill="#ff9600" stroke="none" stroke-width="0.5" stroke-linecap="butt"/><path d="M393.97188,100.89779c-0.68997,0.02329 -1.26818,-0.51715 -1.29147,-1.20711c-0.02329,-0.68996 0.51714,-1.26817 1.20711,-1.29147c0.68997,-0.02329 1.26818,0.51715 1.29147,1.20711c0.02329,0.68996 -0.51714,1.26817 -1.20711,1.29147z" fill="#ff9600" stroke="none" stroke-width="0.5" stroke-linecap="butt"/><path d="M424.82758,106.9127c-0.96595,0.03261 -1.77544,-0.72401 -1.80805,-1.68996c-0.03261,-0.96595 0.72401,-1.77544 1.68996,-1.80805c0.96595,-0.03261 1.77544,0.72401 1.80805,1.68996c0.03261,0.96595 -0.72401,1.77544 -1.68996,1.80805z" fill="#ffc72e" stroke="none" stroke-width="0.5" stroke-linecap="butt"/><path d="M419.55689,106.15401c-0.96595,0.03261 -1.77544,-0.72401 -1.80805,-1.68996c-0.03261,-0.96595 0.72401,-1.77544 1.68996,-1.80805c0.96595,-0.03261 1.77544,0.72401 1.80805,1.68996c0.03261,0.96595 -0.72401,1.77544 -1.68996,1.80805z" fill="#ffc72e" stroke="none" stroke-width="0.5" stroke-linecap="butt"/><path d="M411.53514,104.17108c0.19781,-0.08686 0.41515,-0.13829 0.64425,-0.14603c0.50755,-0.01713 0.97191,0.18363 1.30306,0.51816c0.00854,-0.0004 0.0171,-0.00077 0.02567,-0.00105c0.96595,-0.03261 1.77544,0.72401 1.80805,1.68996c0.03261,0.96595 -0.72401,1.77544 -1.68996,1.80805c-0.50755,0.01713 -0.97191,-0.18363 -1.30306,-0.51816c-0.00854,0.0004 -0.0171,0.00077 -0.02567,0.00105c-0.47586,0.01606 -0.91375,-0.15941 -1.23949,-0.45708c-0.19782,0.08686 -0.41515,0.13829 -0.64425,0.14603c-0.96595,0.03261 -1.77544,-0.72401 -1.80805,-1.68996c-0.03261,-0.96595 0.72401,-1.77544 1.68996,-1.80805c0.47586,-0.01606 0.91375,0.15941 1.2395,0.45708z" fill="#ffc72e" stroke="none" stroke-width="0.5" stroke-linecap="butt"/><path d="M401.01095,108.662c-0.68997,0.02329 -1.26818,-0.51715 -1.29147,-1.20711c-0.01997,-0.59176 0.37473,-1.10132 0.92279,-1.24907c-0.28573,-0.29977 -0.46676,-0.7015 -0.48184,-1.14795c-0.03261,-0.96595 0.72401,-1.77544 1.68996,-1.80805c0.53463,-0.01805 1.02133,0.20567 1.35491,0.57283c0.2947,-0.4947 0.82718,-0.83383 1.44543,-0.8547c0.96595,-0.03261 1.77544,0.72401 1.80805,1.68996c0.03261,0.96595 -0.72401,1.77544 -1.68996,1.80805c-0.53463,0.01805 -1.02132,-0.20568 -1.3549,-0.57284c-0.28557,0.47937 -0.79442,0.81267 -1.38823,0.85185c0.11497,0.18159 0.18457,0.39524 0.19235,0.62557c0.02329,0.68996 -0.51714,1.26817 -1.20711,1.29147z" fill="#ffc72e" stroke="none" stroke-width="0.5" stroke-linecap="butt"/><path d="M397.66496,106.8931c-0.96595,0.03261 -1.77544,-0.72401 -1.80805,-1.68996c-0.03261,-0.96595 0.72401,-1.77544 1.68996,-1.80805c0.96595,-0.03261 1.77544,0.72401 1.80805,1.68996c0.03261,0.96595 -0.72401,1.77544 -1.68996,1.80805z" fill="#ffc72e" stroke="none" stroke-width="0.5" stroke-linecap="butt"/><path d="M386.93696,106.88382c-0.02294,-0.04001 -0.04432,-0.08104 -0.06411,-0.12299c-0.30574,0.42625 -0.79898,0.71091 -1.36377,0.72998c-0.63466,0.02143 -1.20177,-0.29784 -1.52538,-0.79334c-0.28945,0.5162 -0.83374,0.87297 -1.46838,0.8944c-0.5648,0.01906 -1.07611,-0.23169 -1.4099,-0.63634c-0.24706,0.63103 -0.85095,1.08732 -1.57123,1.11164c-0.96595,0.03261 -1.77544,-0.72401 -1.80805,-1.68996c-0.03261,-0.96595 0.72401,-1.77544 1.68996,-1.80805c0.5648,-0.01906 1.0761,0.23169 1.40989,0.63634c0.24706,-0.63103 0.85095,-1.08732 1.57123,-1.11164c0.63466,-0.02143 1.20176,0.29785 1.52537,0.79335c0.28945,-0.5162 0.83375,-0.87298 1.46839,-0.89441c0.72029,-0.02432 1.35359,0.39021 1.64263,1.00314c0.30574,-0.42625 0.79897,-0.71091 1.36377,-0.72998c0.71489,-0.02413 1.34408,0.38402 1.63607,0.98939c0.30368,-0.30932 0.7221,-0.50702 1.18953,-0.5228c0.96595,-0.03261 1.77544,0.72401 1.80805,1.68996c0.03261,0.96595 -0.72401,1.77544 -1.68996,1.80805c-0.7149,0.02413 -1.34408,-0.38402 -1.63607,-0.98939c-0.10703,0.10902 -0.22831,0.20417 -0.36096,0.28238c-0.09802,0.5723 -0.58684,1.0166 -1.18991,1.03696c-0.68997,0.02329 -1.26818,-0.51715 -1.29147,-1.20711c-0.00557,-0.16493 0.02106,-0.32347 0.07426,-0.46956z" fill="#ffc72e" stroke="none" stroke-width="0.5" stroke-linecap="butt"/><path d="M424.80471,111.7839c-0.96595,0.03261 -1.77544,-0.72401 -1.80805,-1.68996c-0.03261,-0.96595 0.72401,-1.77544 1.68996,-1.80805c0.96595,-0.03261 1.77544,0.72401 1.80805,1.68996c0.03261,0.96595 -0.72401,1.77544 -1.68996,1.80805z" fill="#f2bc49" stroke="none" stroke-width="0.5" stroke-linecap="butt"/><path d="M417.2366,109.55799c0.26476,-0.18074 0.58231,-0.29096 0.92641,-0.30257c0.51432,-0.01737 0.98427,0.18902 1.31623,0.53161c0.16425,-0.76689 0.83296,-1.35346 1.65227,-1.38112c0.96595,-0.03261 1.77544,0.72401 1.80805,1.68996c0.03261,0.96595 -0.72401,1.77544 -1.68996,1.80805c-0.51432,0.01737 -0.98428,-0.18902 -1.31624,-0.53161c-0.16425,0.76689 -0.83296,1.35346 -1.65227,1.38112c-0.3441,0.01162 -0.66835,-0.07692 -0.9447,-0.2394c-0.26476,0.18074 -0.5823,0.29096 -0.9264,0.30257c-0.96595,0.03261 -1.77544,-0.72401 -1.80805,-1.68996c-0.03261,-0.96595 0.72401,-1.77544 1.68996,-1.80805c0.3441,-0.01162 0.66834,0.07692 0.94469,0.2394z" fill="#f2bc49" stroke="none" stroke-width="0.5" stroke-linecap="butt"/><path d="M411.90671,112.59398c-0.96595,0.03261 -1.77544,-0.72401 -1.80805,-1.68996c-0.03261,-0.96595 0.72401,-1.77544 1.68996,-1.80805c0.96595,-0.03261 1.77544,0.72401 1.80805,1.68996c0.03261,0.96595 -0.72401,1.77544 -1.68996,1.80805z" fill="#f2bc49" stroke="none" stroke-width="0.5" stroke-linecap="butt"/><path d="M406.32263,109.35887c0.30758,-0.40134 0.7858,-0.66685 1.3306,-0.68525c0.96595,-0.03261 1.77544,0.72401 1.80805,1.68996c0.03261,0.96595 -0.72401,1.77544 -1.68996,1.80805c-0.18068,0.0061 -0.35589,-0.01542 -0.52155,-0.06074c-0.30758,0.40134 -0.7858,0.66685 -1.3306,0.68525c-0.96595,0.03261 -1.77544,-0.72401 -1.80805,-1.68996c-0.03261,-0.96595 0.72401,-1.77544 1.68996,-1.80805c0.18069,-0.0061 0.35589,0.01542 0.52156,0.06074z" fill="#f2bc49" stroke="none" stroke-width="0.5" stroke-linecap="butt"/><path d="M399.46685,112.42571c-0.098,0.02058 -0.19911,0.033 -0.30262,0.03649c-0.56794,0.01917 -1.08179,-0.23449 -1.41545,-0.64312c-0.30524,0.32172 -0.73217,0.5283 -1.21042,0.54445c-0.47824,0.01615 -0.91813,-0.16116 -1.24437,-0.46156c-0.30534,0.43021 -0.80091,0.71794 -1.36885,0.73711c-0.96595,0.03261 -1.77544,-0.72401 -1.80805,-1.68996c-0.03261,-0.96595 0.72401,-1.77544 1.68996,-1.80805c0.47825,-0.01615 0.91813,0.16116 1.24437,0.46156c0.30534,-0.43021 0.80091,-0.71794 1.36886,-0.73711c0.56794,-0.01917 1.08179,0.23449 1.41546,0.64312c0.30524,-0.32172 0.73217,-0.5283 1.21041,-0.54444c0.71489,-0.02413 1.34408,0.38402 1.63607,0.98939c0.30368,-0.30932 0.7221,-0.50703 1.18953,-0.52281c0.96595,-0.03261 1.77544,0.72401 1.80805,1.68996c0.03261,0.96595 -0.72401,1.77544 -1.68996,1.80805c-0.0802,0.00271 -0.15931,-0.00003 -0.23701,-0.00787c-0.21482,0.33129 -0.58276,0.55572 -1.00731,0.57005c-0.64191,0.02167 -1.18708,-0.4446 -1.27867,-1.06525z" fill="#f2bc49" stroke="none" stroke-width="0.5" stroke-linecap="butt"/><path d="M390.16397,112.20409c-0.96595,0.03261 -1.77544,-0.72401 -1.80805,-1.68996c-0.03261,-0.96595 0.72401,-1.77544 1.68996,-1.80805c0.96595,-0.03261 1.77544,0.72401 1.80805,1.68996c0.03261,0.96595 -0.72401,1.77544 -1.68996,1.80805z" fill="#f2bc49" stroke="none" stroke-width="0.5" stroke-linecap="butt"/><path d="M386.63414,113.07256c-0.96595,0.03261 -1.77544,-0.72401 -1.80805,-1.68996c-0.03261,-0.96595 0.72401,-1.77544 1.68996,-1.80805c0.96595,-0.03261 1.77544,0.72401 1.80805,1.68996c0.03261,0.96595 -0.72401,1.77544 -1.68996,1.80805z" fill="#f2bc49" stroke="none" stroke-width="0.5" stroke-linecap="butt"/><path d="M420.62976,109.17787c-0.68996,0.02329 -1.26818,-0.51715 -1.29147,-1.20711c-0.02329,-0.68996 0.51715,-1.26818 1.20711,-1.29147c0.68997,-0.02329 1.26818,0.51715 1.29147,1.20711c0.02329,0.68996 -0.51714,1.26817 -1.20711,1.29147z" fill="#ffc72e" stroke="none" stroke-width="0.5" stroke-linecap="butt"/><path d="M407.41226,107.91033c-0.68997,0.02329 -1.26818,-0.51715 -1.29147,-1.20711c-0.02329,-0.68996 0.51714,-1.26817 1.20711,-1.29147c0.68996,-0.02329 1.26818,0.51715 1.29147,1.20711c0.02329,0.68996 -0.51715,1.26818 -1.20711,1.29147z" fill="#ffc72e" stroke="none" stroke-width="0.5" stroke-linecap="butt"/><path d="M394.60964,109.41367c-0.68997,0.02329 -1.26818,-0.51715 -1.29147,-1.20711c-0.02329,-0.68996 0.51714,-1.26817 1.20711,-1.29147c0.68997,-0.02329 1.26818,0.51715 1.29147,1.20711c0.02329,0.68996 -0.51714,1.26817 -1.20711,1.29147z" fill="#ffc72e" stroke="none" stroke-width="0.5" stroke-linecap="butt"/><path d="M421.11465,117.19487c-0.68997,0.02329 -1.26818,-0.51715 -1.29147,-1.20711c-0.02329,-0.68996 0.51714,-1.26817 1.20711,-1.29147c0.68997,-0.02329 1.26818,0.51715 1.29147,1.20711c0.02329,0.68996 -0.51714,1.26817 -1.20711,1.29147z" fill="#f2bc49" stroke="none" stroke-width="0.5" stroke-linecap="butt"/><path d="M416.10419,117.89958c-0.68996,0.02329 -1.26817,-0.51714 -1.29147,-1.20711c-0.02329,-0.68996 0.51715,-1.26818 1.20711,-1.29147c0.68997,-0.02329 1.26817,0.51714 1.29147,1.20711c0.02329,0.68997 -0.51714,1.26817 -1.20711,1.29147z" fill="#f2bc49" stroke="none" stroke-width="0.5" stroke-linecap="butt"/><path d="M411.81739,117.83009c-0.68996,0.02329 -1.26817,-0.51714 -1.29147,-1.20711c-0.02329,-0.68996 0.51715,-1.26818 1.20711,-1.29147c0.68997,-0.02329 1.26817,0.51714 1.29147,1.20711c0.02329,0.68997 -0.51714,1.26817 -1.20711,1.29147z" fill="#f2bc49" stroke="none" stroke-width="0.5" stroke-linecap="butt"/><path d="M402.12333,116.22936c-0.68997,0.02329 -1.26818,-0.51715 -1.29147,-1.20711c-0.02329,-0.68996 0.51714,-1.26817 1.20711,-1.29147c0.68997,-0.02329 1.26818,0.51715 1.29147,1.20711c0.02329,0.68996 -0.51714,1.26817 -1.20711,1.29147z" fill="#f2bc49" stroke="none" stroke-width="0.5" stroke-linecap="butt"/><path d="M396.08495,115.04078c-0.68997,0.02329 -1.26818,-0.51715 -1.29147,-1.20711c-0.02329,-0.68996 0.51714,-1.26817 1.20711,-1.29147c0.68997,-0.02329 1.26818,0.51715 1.29147,1.20711c0.02329,0.68996 -0.51714,1.26817 -1.20711,1.29147z" fill="#f2bc49" stroke="none" stroke-width="0.5" stroke-linecap="butt"/><path d="M391.96293,116.67949c-0.68997,0.02329 -1.26818,-0.51715 -1.29147,-1.20711c-0.02329,-0.68996 0.51714,-1.26817 1.20711,-1.29147c0.68997,-0.02329 1.26818,0.51715 1.29147,1.20711c0.02329,0.68996 -0.51714,1.26817 -1.20711,1.29147z" fill="#f2bc49" stroke="none" stroke-width="0.5" stroke-linecap="butt"/><path d="M389.06338,116.45605c-0.68997,0.02329 -1.26818,-0.51715 -1.29147,-1.20711c-0.02329,-0.68996 0.51714,-1.26817 1.20711,-1.29147c0.68997,-0.02329 1.26818,0.51715 1.29147,1.20711c0.02329,0.68996 -0.51714,1.26817 -1.20711,1.29147z" fill="#f2bc49" stroke="none" stroke-width="0.5" stroke-linecap="butt"/><path d="M419.18055,120.18745c-0.41398,0.01397 -0.7609,-0.31028 -0.77488,-0.72426c-0.01397,-0.41398 0.31028,-0.7609 0.72426,-0.77488c0.41398,-0.01397 0.7609,0.31028 0.77488,0.72426c0.01397,0.41398 -0.31028,0.7609 -0.72426,0.77488z" fill="#f2bc49" stroke="none" stroke-width="0.5" stroke-linecap="butt"/><path d="M410.77896,121.97066c-0.41398,0.01397 -0.7609,-0.31028 -0.77488,-0.72426c-0.01397,-0.41398 0.31028,-0.7609 0.72426,-0.77488c0.41398,-0.01397 0.7609,0.31028 0.77488,0.72426c0.01397,0.41398 -0.31028,0.7609 -0.72426,0.77488z" fill="#f2bc49" stroke="none" stroke-width="0.5" stroke-linecap="butt"/><path d="M397.33801,123.60266c-0.41398,0.01397 -0.7609,-0.31028 -0.77488,-0.72426c-0.01397,-0.41398 0.31028,-0.7609 0.72426,-0.77488c0.41398,-0.01397 0.7609,0.31028 0.77488,0.72426c0.01397,0.41398 -0.31028,0.7609 -0.72426,0.77488z" fill="#f2bc49" stroke="none" stroke-width="0.5" stroke-linecap="butt"/><path d="M417.2398,110.2916c-0.41398,0.01397 -0.7609,-0.31029 -0.77488,-0.72426c-0.01397,-0.41397 0.31028,-0.7609 0.72426,-0.77488c0.41398,-0.01397 0.7609,0.31029 0.77488,0.72426c0.01397,0.41397 -0.31028,0.7609 -0.72426,0.77488z" fill="#ffc72e" stroke="none" stroke-width="0.5" stroke-linecap="butt"/><path d="M400.75979,110.74087c-0.41398,0.01397 -0.7609,-0.31029 -0.77488,-0.72426c-0.01397,-0.41397 0.31028,-0.7609 0.72426,-0.77488c0.41398,-0.01397 0.7609,0.31029 0.77488,0.72426c0.01397,0.41397 -0.31028,0.7609 -0.72426,0.77488z" fill="#ffc72e" stroke="none" stroke-width="0.5" stroke-linecap="butt"/><path d="M386.37986,109.941c-0.41398,0.01397 -0.7609,-0.31029 -0.77488,-0.72426c-0.01397,-0.41397 0.31028,-0.7609 0.72426,-0.77488c0.41398,-0.01397 0.7609,0.31029 0.77488,0.72426c0.01397,0.41397 -0.31028,0.7609 -0.72426,0.77488z" fill="#ffc72e" stroke="none" stroke-width="0.5" stroke-linecap="butt"/><path d="M362.7765,126.85924c-0.67095,-1.23437 7.19987,-4.35539 16.42129,-9.36781c9.22142,-5.01242 17.68607,-9.40535 17.68607,-9.40535c0,0 -7.44385,5.94848 -16.66527,10.96089c-9.22142,5.01241 -16.77112,9.04662 -17.44207,7.81226z" fill="#ff9600" stroke="#000000" stroke-width="0" stroke-linecap="butt"/></g><g><path d="M269.63639,173.65774l-28.19537,25.20711c0,0 -17.61044,-37.9914 -22.84538,-56.87575c-4.85139,-17.50076 -7.50125,-52.59577 -7.50125,-52.59577l57.59765,20.81345z" fill="#f3ca58" stroke="#000000" stroke-width="0" stroke-linecap="round"/><path d="M281.56643,154.9376c0.76306,1.17965 -6.39089,5.88005 -15.20352,11.58061c-8.81262,5.70057 -17.59705,9.39238 -17.59705,9.39238c0,0 7.90662,-5.33232 16.71926,-11.03288c8.81263,-5.70057 15.31824,-11.11975 16.08132,-9.9401z" fill="#ff9600" stroke="#000000" stroke-width="0" stroke-linecap="butt"/><path d="M269.74085,144.53308c0.18807,1.39228 -8.28644,2.59873 -18.68761,4.0038c-10.40119,1.40506 -19.92143,1.00463 -19.92143,1.00463c0,0 9.42462,-1.45768 19.8258,-2.86275c10.40119,-1.40506 18.59517,-3.53797 18.78325,-2.14568z" fill="#ff9600" stroke="#000000" stroke-width="0" stroke-linecap="butt"/><g stroke="#000000" stroke-width="0" stroke-linecap="round"><g fill="#f2bc49"><path d="M214.0002,116.98419c-1.90239,-14.30133 -2.90583,-27.59085 -2.90583,-27.59085l57.59765,20.81345c0,0 0.03375,2.26722 0.07022,4.71792c0.00081,0.05429 -54.72115,2.367 -54.76204,2.05948z"/></g><g fill="#ffc72e"><path d="M213.35288,111.88839c-1.48196,-12.21052 -2.25849,-22.49506 -2.25849,-22.49506l57.59765,20.81345c0,0 -55.33607,1.70705 -55.33916,1.68161z"/></g><g fill="#ff9600"><path d="M212.15471,100.42337c-0.14355,-1.48174 -0.4735,-2.95603 -0.60568,-4.32944c-0.36051,-3.74577 -0.45464,-6.70059 -0.45464,-6.70059c0,0 20.11269,7.26791 29.88669,10.79983c0.18412,0.06653 -28.82511,0.24303 -28.82636,0.23019z"/></g></g><path d="M212.78128,100.5191c-0.03261,-0.96595 0.72401,-1.77544 1.68996,-1.80805c0.96595,-0.03261 1.77544,0.72401 1.80805,1.68996c0.03261,0.96595 -0.72401,1.77544 -1.68996,1.80805c-0.96595,0.03261 -1.77544,-0.72401 -1.80805,-1.68996z" fill="#ff9600" stroke="none" stroke-width="0.5" stroke-linecap="butt"/><path d="M216.55509,101.32832c-0.03261,-0.96595 0.72401,-1.77544 1.68996,-1.80805c0.78773,-0.02659 1.47143,0.4717 1.71457,1.18035c0.28664,-0.52647 0.8365,-0.89183 1.47895,-0.91351c0.23157,-0.00782 0.45414,0.02972 0.65917,0.10462c0.19952,-0.08856 0.41904,-0.14103 0.65061,-0.14885c0.96595,-0.03261 1.77544,0.72401 1.80805,1.68996c0.03261,0.96595 -0.72401,1.77544 -1.68996,1.80805c-0.23157,0.00782 -0.45414,-0.02972 -0.65917,-0.10462c-0.19952,0.08856 -0.41904,0.14103 -0.65061,0.14885c-0.78773,0.02659 -1.47143,-0.47169 -1.71457,-1.18034c-0.28664,0.52647 -0.8365,0.89182 -1.47895,0.9135c-0.96595,0.03261 -1.77544,-0.72401 -1.80805,-1.68996z" fill="#ff9600" stroke="none" stroke-width="0.5" stroke-linecap="butt"/><path d="M224.58189,100.49536c-0.03261,-0.96595 0.72401,-1.77544 1.68996,-1.80805c0.96595,-0.03261 1.77544,0.72401 1.80805,1.68996c0.03261,0.96595 -0.72401,1.77544 -1.68996,1.80805c-0.96595,0.03261 -1.77544,-0.72401 -1.80805,-1.68996z" fill="#ff9600" stroke="none" stroke-width="0.5" stroke-linecap="butt"/><path d="M233.63721,102.25021c0.02329,0.68996 -0.51714,1.26817 -1.20711,1.29147c-0.68645,0.02317 -1.26227,-0.51165 -1.29107,-1.19657c-0.1378,0.04025 -0.28283,0.06407 -0.43292,0.06913c-0.96595,0.03261 -1.77544,-0.72401 -1.80805,-1.68996c-0.03261,-0.96595 0.72401,-1.77544 1.68996,-1.80805c0.96595,-0.03261 1.77544,0.72401 1.80805,1.68996c0.00507,0.15009 -0.00891,0.29639 -0.03979,0.4366c0.6853,-0.01746 1.25774,0.52098 1.28091,1.20743z" fill="#ff9600" stroke="none" stroke-width="0.5" stroke-linecap="butt"/><path d="M233.76295,100.56004c-0.03261,-0.96595 0.72401,-1.77544 1.68996,-1.80805c0.96595,-0.03261 1.77544,0.72401 1.80805,1.68996c0.03261,0.96595 -0.72401,1.77544 -1.68996,1.80805c-0.96595,0.03261 -1.77544,-0.72401 -1.80805,-1.68996z" fill="#ff9600" stroke="none" stroke-width="0.5" stroke-linecap="butt"/><path d="M214.39344,105.70975c-0.02329,-0.68996 0.51714,-1.26817 1.20711,-1.29147c0.68997,-0.02329 1.26818,0.51715 1.29147,1.20711c0.02329,0.68996 -0.51714,1.26817 -1.20711,1.29147c-0.68997,0.02329 -1.26818,-0.51715 -1.29147,-1.20711z" fill="#ff9600" stroke="none" stroke-width="0.5" stroke-linecap="butt"/><path d="M221.38602,107.53424c-0.02329,-0.68996 0.51714,-1.26817 1.20711,-1.29147c0.68997,-0.02329 1.26818,0.51715 1.29147,1.20711c0.02329,0.68996 -0.51714,1.26817 -1.20711,1.29147c-0.68997,0.02329 -1.26818,-0.51715 -1.29147,-1.20711z" fill="#ff9600" stroke="none" stroke-width="0.5" stroke-linecap="butt"/><path d="M225.18899,103.65937c-0.02329,-0.68996 0.51714,-1.26817 1.20711,-1.29147c0.68997,-0.02329 1.26818,0.51715 1.29147,1.20711c0.02329,0.68996 -0.51714,1.26817 -1.20711,1.29147c-0.68997,0.02329 -1.26818,-0.51715 -1.29147,-1.20711z" fill="#ff9600" stroke="none" stroke-width="0.5" stroke-linecap="butt"/><path d="M240.48784,101.8316c-0.02329,-0.68997 0.51714,-1.26817 1.20711,-1.29147c0.68997,-0.02329 1.26817,0.51714 1.29147,1.20711c0.02329,0.68997 -0.51714,1.26817 -1.20711,1.29147c-0.68997,0.02329 -1.26817,-0.51714 -1.29147,-1.20711z" fill="#ff9600" stroke="none" stroke-width="0.5" stroke-linecap="butt"/><path d="M244.70535,104.68639c-0.02329,-0.68997 0.51714,-1.26817 1.20711,-1.29147c0.68997,-0.02329 1.26817,0.51714 1.29147,1.20711c0.02329,0.68997 -0.51714,1.26817 -1.20711,1.29147c-0.68997,0.02329 -1.26817,-0.51714 -1.29147,-1.20711z" fill="#ff9600" stroke="none" stroke-width="0.5" stroke-linecap="butt"/><path d="M213.80898,112.28582c-0.03261,-0.96595 0.72401,-1.77544 1.68996,-1.80805c0.96595,-0.03261 1.77544,0.72401 1.80805,1.68996c0.03261,0.96595 -0.72401,1.77544 -1.68996,1.80805c-0.96595,0.03261 -1.77544,-0.72401 -1.80805,-1.68996z" fill="#ffc72e" stroke="none" stroke-width="0.5" stroke-linecap="butt"/><path d="M219.01649,111.17339c-0.03261,-0.96595 0.72401,-1.77544 1.68996,-1.80805c0.96595,-0.03261 1.77544,0.72401 1.80805,1.68996c0.03261,0.96595 -0.72401,1.77544 -1.68996,1.80805c-0.96595,0.03261 -1.77544,-0.72401 -1.80805,-1.68996z" fill="#ffc72e" stroke="none" stroke-width="0.5" stroke-linecap="butt"/><path d="M229.90014,109.80425c0.96595,-0.03261 1.77544,0.72401 1.80805,1.68996c0.03261,0.96595 -0.72401,1.77544 -1.68996,1.80805c-0.2291,0.00774 -0.4494,-0.02893 -0.65263,-0.10225c-0.30492,0.31897 -0.72998,0.52358 -1.20585,0.53965c-0.00858,0.00029 -0.01713,0.00052 -0.02568,0.00068c-0.30784,0.35611 -0.75759,0.58774 -1.26514,0.60487c-0.96595,0.03261 -1.77544,-0.72401 -1.80805,-1.68996c-0.03261,-0.96595 0.72401,-1.77544 1.68996,-1.80805c0.00858,-0.00029 0.01713,-0.00052 0.02568,-0.00068c0.30784,-0.35611 0.75759,-0.58774 1.26514,-0.60487c0.2291,-0.00774 0.4494,0.02893 0.65263,0.10225c0.30492,-0.31897 0.72998,-0.52358 1.20585,-0.53965z" fill="#ffc72e" stroke="none" stroke-width="0.5" stroke-linecap="butt"/><path d="M238.20595,112.90769c-0.00777,-0.23032 0.04726,-0.44819 0.14972,-0.63713c-0.59509,0.00095 -1.12527,-0.29725 -1.44251,-0.75628c-0.30806,0.38883 -0.77856,0.64485 -1.31319,0.66291c-0.96595,0.03261 -1.77544,-0.72401 -1.80805,-1.68996c-0.03261,-0.96595 0.72401,-1.77544 1.68996,-1.80805c0.61825,-0.02087 1.1724,0.28156 1.49979,0.75526c0.30806,-0.38883 0.77856,-0.64485 1.31319,-0.66291c0.96595,-0.03261 1.77544,0.72401 1.80805,1.68996c0.01508,0.44645 -0.13845,0.85948 -0.40332,1.17784c0.55678,0.11046 0.98496,0.59223 1.00494,1.18399c0.02329,0.68997 -0.51714,1.26817 -1.20711,1.29147c-0.68997,0.02329 -1.26817,-0.51714 -1.29147,-1.20711z" fill="#ffc72e" stroke="none" stroke-width="0.5" stroke-linecap="butt"/><path d="M240.90844,110.4343c-0.03261,-0.96595 0.72401,-1.77544 1.68996,-1.80805c0.96595,-0.03261 1.77544,0.72401 1.80805,1.68996c0.03261,0.96595 -0.72401,1.77544 -1.68996,1.80805c-0.96595,0.03261 -1.77544,-0.72401 -1.80805,-1.68996z" fill="#ffc72e" stroke="none" stroke-width="0.5" stroke-linecap="butt"/><path d="M253.52521,111.85493c0.02329,0.68997 -0.51714,1.26817 -1.20711,1.29147c-0.60306,0.02036 -1.12074,-0.38996 -1.25714,-0.95435c-0.13762,-0.06909 -0.26504,-0.15584 -0.37918,-0.25738c-0.2505,0.62368 -0.85073,1.07335 -1.56562,1.09748c-0.96595,0.03261 -1.77544,-0.72401 -1.80805,-1.68996c-0.03261,-0.96595 0.72401,-1.77544 1.68996,-1.80805c0.46743,-0.01578 0.89823,0.15325 1.22209,0.44139c0.2505,-0.62368 0.85073,-1.07335 1.56562,-1.09748c0.5648,-0.01906 1.0761,0.23169 1.40989,0.63635c0.24706,-0.63103 0.85095,-1.08732 1.57123,-1.11164c0.63466,-0.02143 1.20177,0.29785 1.52538,0.79335c0.28945,-0.51619 0.83374,-0.87298 1.46839,-0.89441c0.72029,-0.02432 1.35359,0.39021 1.64263,1.00314c0.30574,-0.42625 0.79898,-0.71092 1.36376,-0.72999c0.96595,-0.03261 1.77544,0.72401 1.80805,1.68996c0.03261,0.96595 -0.72401,1.77544 -1.68996,1.80805c-0.72029,0.02432 -1.35359,-0.39021 -1.64263,-1.00314c-0.30574,0.42625 -0.79898,0.71092 -1.36376,0.72999c-0.63466,0.02143 -1.20177,-0.29785 -1.52538,-0.79335c-0.28945,0.51619 -0.83374,0.87298 -1.46839,0.89441c-0.5648,0.01906 -1.0761,-0.23169 -1.40989,-0.63635c-0.01691,0.04318 -0.0355,0.08556 -0.05567,0.12704c0.06292,0.14218 0.1002,0.29856 0.10577,0.46348z" fill="#ffc72e" stroke="none" stroke-width="0.5" stroke-linecap="butt"/><path d="M214.16034,117.14437c-0.03261,-0.96595 0.72401,-1.77544 1.68996,-1.80805c0.96595,-0.03261 1.77544,0.72401 1.80805,1.68996c0.03261,0.96595 -0.72401,1.77544 -1.68996,1.80805c-0.96595,0.03261 -1.77544,-0.72401 -1.80805,-1.68996z" fill="#f2bc49" stroke="none" stroke-width="0.5" stroke-linecap="butt"/><path d="M224.29553,115.8005c0.96595,-0.03261 1.77544,0.72401 1.80805,1.68996c0.03261,0.96595 -0.72401,1.77544 -1.68996,1.80805c-0.3441,0.01162 -0.66835,-0.07692 -0.9447,-0.2394c-0.26476,0.18074 -0.58231,0.29096 -0.92641,0.30257c-0.81931,0.02766 -1.52607,-0.51248 -1.74166,-1.26654c-0.30808,0.3642 -0.76306,0.60181 -1.27737,0.61917c-0.96595,0.03261 -1.77544,-0.72401 -1.80805,-1.68996c-0.03261,-0.96595 0.72401,-1.77544 1.68996,-1.80805c0.81931,-0.02766 1.52607,0.51248 1.74166,1.26654c0.30808,-0.3642 0.76306,-0.60181 1.27737,-0.61917c0.3441,-0.01162 0.66835,0.07692 0.9447,0.2394c0.26476,-0.18074 0.58231,-0.29096 0.92641,-0.30257z" fill="#f2bc49" stroke="none" stroke-width="0.5" stroke-linecap="butt"/><path d="M227.0836,117.08273c-0.03261,-0.96595 0.72401,-1.77544 1.68996,-1.80805c0.96595,-0.03261 1.77544,0.72401 1.80805,1.68996c0.03261,0.96595 -0.72401,1.77544 -1.68996,1.80805c-0.96595,0.03261 -1.77544,-0.72401 -1.80805,-1.68996z" fill="#f2bc49" stroke="none" stroke-width="0.5" stroke-linecap="butt"/><path d="M234.7611,115.07253c0.96595,-0.03261 1.77544,0.72401 1.80805,1.68996c0.03261,0.96595 -0.72401,1.77544 -1.68996,1.80805c-0.5448,0.01839 -1.03983,-0.21427 -1.37378,-0.59394c-0.16224,0.0564 -0.3356,0.08968 -0.51629,0.09578c-0.96595,0.03261 -1.77544,-0.72401 -1.80805,-1.68996c-0.03261,-0.96595 0.72401,-1.77544 1.68996,-1.80805c0.5448,-0.01839 1.03983,0.21427 1.37378,0.59394c0.16224,-0.0564 0.3356,-0.08968 0.51629,-0.09578z" fill="#f2bc49" stroke="none" stroke-width="0.5" stroke-linecap="butt"/><path d="M240.08791,118.91488c-0.42455,0.01433 -0.80678,-0.18477 -1.04346,-0.50083c-0.07698,0.01307 -0.15574,0.02113 -0.23593,0.02383c-0.96595,0.03261 -1.77544,-0.72401 -1.80805,-1.68996c-0.03261,-0.96595 0.72401,-1.77544 1.68996,-1.80805c0.46743,-0.01578 0.89823,0.15325 1.22209,0.44139c0.2505,-0.62368 0.85073,-1.07335 1.56562,-1.09748c0.47824,-0.01615 0.91813,0.16117 1.24437,0.46156c0.30534,-0.4302 0.80091,-0.71794 1.36886,-0.73711c0.56794,-0.01917 1.08179,0.23449 1.41546,0.64312c0.30524,-0.32172 0.73217,-0.5283 1.21041,-0.54444c0.96595,-0.03261 1.77544,0.72401 1.80805,1.68996c0.03261,0.96595 -0.72401,1.77544 -1.68996,1.80805c-0.56794,0.01917 -1.08179,-0.23449 -1.41546,-0.64312c-0.30524,0.32172 -0.73217,0.5283 -1.21041,0.54444c-0.47824,0.01615 -0.91813,-0.16117 -1.24437,-0.46156c-0.30534,0.4302 -0.80091,0.71794 -1.36886,0.73711c-0.10352,0.00349 -0.20523,-0.00208 -0.3044,-0.01599c-0.04952,0.62542 -0.56201,1.1274 -1.20392,1.14907z" fill="#f2bc49" stroke="none" stroke-width="0.5" stroke-linecap="butt"/><path d="M248.75054,115.2273c-0.03261,-0.96595 0.72401,-1.77544 1.68996,-1.80805c0.96595,-0.03261 1.77544,0.72401 1.80805,1.68996c0.03261,0.96595 -0.72401,1.77544 -1.68996,1.80805c-0.96595,0.03261 -1.77544,-0.72401 -1.80805,-1.68996z" fill="#f2bc49" stroke="none" stroke-width="0.5" stroke-linecap="butt"/><path d="M252.3309,115.8557c-0.03261,-0.96595 0.72401,-1.77544 1.68996,-1.80805c0.96595,-0.03261 1.77544,0.72401 1.80805,1.68996c0.03261,0.96595 -0.72401,1.77544 -1.68996,1.80805c-0.96595,0.03261 -1.77544,-0.72401 -1.80805,-1.68996z" fill="#f2bc49" stroke="none" stroke-width="0.5" stroke-linecap="butt"/><path d="M218.66661,114.74557c-0.02329,-0.68997 0.51714,-1.26817 1.20711,-1.29147c0.68997,-0.02329 1.26817,0.51714 1.29147,1.20711c0.02329,0.68997 -0.51714,1.26817 -1.20711,1.29147c-0.68997,0.02329 -1.26817,-0.51714 -1.29147,-1.20711z" fill="#ffc72e" stroke="none" stroke-width="0.5" stroke-linecap="butt"/><path d="M231.76851,112.58945c-0.02329,-0.68997 0.51714,-1.26817 1.20711,-1.29147c0.68997,-0.02329 1.26817,0.51714 1.29147,1.20711c0.02329,0.68997 -0.51714,1.26817 -1.20711,1.29147c-0.68997,0.02329 -1.26817,-0.51714 -1.29147,-1.20711z" fill="#ffc72e" stroke="none" stroke-width="0.5" stroke-linecap="butt"/><path d="M244.64338,113.22591c-0.02329,-0.68997 0.51714,-1.26817 1.20711,-1.29147c0.68997,-0.02329 1.26817,0.51714 1.29147,1.20711c0.02329,0.68997 -0.51714,1.26817 -1.20711,1.29147c-0.68997,0.02329 -1.26817,-0.51714 -1.29147,-1.20711z" fill="#ffc72e" stroke="none" stroke-width="0.5" stroke-linecap="butt"/><path d="M218.72353,122.77701c-0.02329,-0.68997 0.51714,-1.26817 1.20711,-1.29147c0.68997,-0.02329 1.26817,0.51714 1.29147,1.20711c0.02329,0.68997 -0.51714,1.26817 -1.20711,1.29147c-0.68997,0.02329 -1.26817,-0.51714 -1.29147,-1.20711z" fill="#f2bc49" stroke="none" stroke-width="0.5" stroke-linecap="butt"/><path d="M223.7701,123.14219c-0.02329,-0.68997 0.51714,-1.26817 1.20711,-1.29147c0.68997,-0.02329 1.26817,0.51714 1.29147,1.20711c0.02329,0.68997 -0.51714,1.26817 -1.20711,1.29147c-0.68997,0.02329 -1.26817,-0.51714 -1.29147,-1.20711z" fill="#f2bc49" stroke="none" stroke-width="0.5" stroke-linecap="butt"/><path d="M228.04245,122.78373c-0.02329,-0.68997 0.51714,-1.26817 1.20711,-1.29147c0.68997,-0.02329 1.26817,0.51714 1.29147,1.20711c0.02329,0.68997 -0.51714,1.26817 -1.20711,1.29147c-0.68997,0.02329 -1.26817,-0.51714 -1.29147,-1.20711z" fill="#f2bc49" stroke="none" stroke-width="0.5" stroke-linecap="butt"/><path d="M237.60649,120.53284c-0.02329,-0.68997 0.51714,-1.26817 1.20711,-1.29147c0.68997,-0.02329 1.26817,0.51714 1.29147,1.20711c0.02329,0.68997 -0.51714,1.26817 -1.20711,1.29147c-0.68997,0.02329 -1.26817,-0.51714 -1.29147,-1.20711z" fill="#f2bc49" stroke="none" stroke-width="0.5" stroke-linecap="butt"/><path d="M243.55094,118.93969c-0.02329,-0.68997 0.51714,-1.26817 1.20711,-1.29147c0.68997,-0.02329 1.26817,0.51714 1.29147,1.20711c0.02329,0.68997 -0.51714,1.26817 -1.20711,1.29147c-0.68997,0.02329 -1.26817,-0.51714 -1.29147,-1.20711z" fill="#f2bc49" stroke="none" stroke-width="0.5" stroke-linecap="butt"/><path d="M247.7741,120.29668c-0.02329,-0.68997 0.51714,-1.26817 1.20711,-1.29147c0.68997,-0.02329 1.26817,0.51714 1.29147,1.20711c0.02329,0.68997 -0.51714,1.26817 -1.20711,1.29147c-0.68997,0.02329 -1.26817,-0.51714 -1.29147,-1.20711z" fill="#f2bc49" stroke="none" stroke-width="0.5" stroke-linecap="butt"/><path d="M250.65198,119.87819c-0.02329,-0.68997 0.51714,-1.26817 1.20711,-1.29147c0.68997,-0.02329 1.26817,0.51714 1.29147,1.20711c0.02329,0.68997 -0.51714,1.26817 -1.20711,1.29147c-0.68997,0.02329 -1.26817,-0.51714 -1.29147,-1.20711z" fill="#f2bc49" stroke="none" stroke-width="0.5" stroke-linecap="butt"/><path d="M221.37163,126.11517c-0.01397,-0.41397 0.31029,-0.7609 0.72426,-0.77488c0.41397,-0.01397 0.7609,0.31029 0.77488,0.72426c0.01397,0.41397 -0.31029,0.7609 -0.72426,0.77488c-0.41397,0.01397 -0.7609,-0.31029 -0.77488,-0.72426z" fill="#f2bc49" stroke="none" stroke-width="0.5" stroke-linecap="butt"/><path d="M229.87436,127.32767c-0.01397,-0.41397 0.31029,-0.7609 0.72426,-0.77488c0.41397,-0.01397 0.7609,0.31029 0.77488,0.72426c0.01397,0.41397 -0.31029,0.7609 -0.72426,0.77488c-0.41397,0.01397 -0.7609,-0.31029 -0.77488,-0.72426z" fill="#f2bc49" stroke="none" stroke-width="0.5" stroke-linecap="butt"/><path d="M243.39478,128.04945c-0.01397,-0.41397 0.31029,-0.7609 0.72426,-0.77488c0.41397,-0.01397 0.7609,0.31029 0.77488,0.72426c0.01397,0.41397 -0.31029,0.7609 -0.72426,0.77488c-0.41397,0.01397 -0.7609,-0.31029 -0.77488,-0.72426z" fill="#f2bc49" stroke="none" stroke-width="0.5" stroke-linecap="butt"/><path d="M222.64055,116.11097c-0.01397,-0.41397 0.31029,-0.7609 0.72426,-0.77488c0.41397,-0.01397 0.7609,0.31029 0.77488,0.72426c0.01397,0.41397 -0.31029,0.7609 -0.72426,0.77488c-0.41397,0.01397 -0.7609,-0.31029 -0.77488,-0.72426z" fill="#ffc72e" stroke="none" stroke-width="0.5" stroke-linecap="butt"/><path d="M239.11332,115.44773c-0.01397,-0.41397 0.31029,-0.7609 0.72426,-0.77488c0.41397,-0.01397 0.7609,0.31029 0.77488,0.72426c0.01397,0.41397 -0.31029,0.7609 -0.72426,0.77488c-0.41397,0.01397 -0.7609,-0.31029 -0.77488,-0.72426z" fill="#ffc72e" stroke="none" stroke-width="0.5" stroke-linecap="butt"/><path d="M253.40658,113.67983c-0.01397,-0.41397 0.31029,-0.7609 0.72426,-0.77488c0.41397,-0.01397 0.7609,0.31029 0.77488,0.72426c0.01397,0.41397 -0.31029,0.7609 -0.72426,0.77488c-0.41397,0.01397 -0.7609,-0.31029 -0.77488,-0.72426z" fill="#ffc72e" stroke="none" stroke-width="0.5" stroke-linecap="butt"/><path d="M278.87209,129.69189c-0.58617,1.2768 -8.39077,-2.23903 -17.92925,-6.6181c-9.53848,-4.37907 -17.36658,-9.81196 -17.36658,-9.81196c0,0 8.74166,3.81202 18.28014,8.1911c9.53848,4.37907 17.60188,6.96215 17.01571,8.23895z" fill="#ff9600" stroke="#000000" stroke-width="0" stroke-linecap="butt"/></g><g><path d="M257.2033,142.17845c-1.12365,-33.28289 26.70897,-61.2344 62.16589,-62.43145c35.45692,-1.19705 65.11134,24.81366 66.235,58.09655c1.12365,33.28289 -26.70896,61.2344 -62.16589,62.43146c-35.45691,1.19705 -65.11134,-24.81367 -66.235,-58.09656z" fill="url(#color-2)" stroke="#000000" stroke-width="0" stroke-linecap="butt"/><path d="M262.95353,115.20811c9.82694,-20.2183 31.19207,-34.60954 56.41566,-35.4611c25.33053,-0.85517 47.6996,12.1757 58.8203,31.82392c0.0309,0.05459 -115.27003,3.70726 -115.23597,3.63718z" fill="#f2bc49" stroke="#000000" stroke-width="0" stroke-linecap="butt"/><path d="M265.34155,110.52994c11.00018,-16.39932 31.88399,-30.03535 54.02764,-30.78292c22.65024,-0.76468 44.18959,11.32776 56.17918,27.57194c0.14088,0.19088 -110.50806,3.66008 -110.20682,3.21098z" fill="#ffc72e" stroke="#000000" stroke-width="0" stroke-linecap="butt"/><path d="M272.5678,101.07553c11.34173,-12.97325 27.56929,-20.67923 46.8014,-21.32852c19.7838,-0.66791 36.28947,5.60654 48.51217,18.41663c0.05182,0.05431 -95.42053,3.03424 -95.31357,2.91189z" fill="#ff9600" stroke="#000000" stroke-width="0" stroke-linecap="butt"/><path d="M270.53281,142.0042c-0.43755,-12.96062 9.71439,-23.82199 22.67502,-24.25955c12.96062,-0.43755 23.82199,9.71438 24.25955,22.67501c0.43755,12.96062 -9.71438,23.822 -22.67501,24.25956c-12.96062,0.43755 -23.822,-9.71439 -24.25956,-22.67502z" fill="url(#color-3)" stroke="#000000" stroke-width="0" stroke-linecap="butt"/><path d="M283.85246,140.64179c-0.162,-4.79876 3.59682,-8.82028 8.39559,-8.98228c4.79876,-0.162 8.82028,3.59683 8.98228,8.3956c0.162,4.79876 -3.59683,8.82029 -8.39559,8.98229c-4.79876,0.162 -8.82028,-3.59683 -8.98228,-8.3956z" fill="#000000" stroke="#000000" stroke-width="0" stroke-linecap="butt"/><path d="M349.01998,162.84851c-12.96062,0.43755 -23.82199,-9.71439 -24.25955,-22.67502c-0.43755,-12.96062 9.71438,-23.82199 22.67501,-24.25955c12.96062,-0.43755 23.822,9.71438 24.25956,22.67501c0.43755,12.96062 -9.71439,23.822 -22.67502,24.25956z" fill="url(#color-4)" stroke="#000000" stroke-width="0" stroke-linecap="butt"/><path d="M360.78536,141.91992c0.21532,6.37768 -4.78025,11.72236 -11.15794,11.93767c-6.37767,0.21531 -11.72236,-4.78028 -11.93767,-11.15795c-0.21532,-6.37768 4.78027,-11.72236 11.15795,-11.93767c6.37767,-0.21531 11.72235,4.78027 11.93766,11.15795z" fill="#000000" stroke="#000000" stroke-width="0" stroke-linecap="butt"/><path d="M289.16051,70.40547c0,0 9.03276,-39.75589 27.50753,-24.89779c1.40559,1.13044 2.62352,2.3121 3.67421,3.53066c12.75917,14.79777 0.85443,35.03579 0.85443,35.03579" fill="none" stroke="#ff9600" stroke-width="6" stroke-linecap="round"/><path d="M302.5215,82.87116c0.90752,6.03844 -3.55786,11.71526 -9.97371,12.6795c-6.41585,0.96424 -12.35262,-3.14921 -13.26014,-9.18765c-0.90752,-6.03844 2.88736,-15.52588 9.30322,-16.49012c6.41585,-0.96424 13.02311,6.95984 13.93063,12.99828z" fill="#ffffff" stroke="#000000" stroke-width="0" stroke-linecap="butt"/><path d="M263.99913,151.12526c3.82822,-2.3888 8.57136,0.22615 12.72055,0.72001c4.63176,0.5513 10.51422,1.30763 15.11409,0.31203c1.91698,-0.41491 3.329,-1.55745 5.36666,-1.67467c5.33194,-1.36301 12.7124,-1.59349 18.09656,-0.65488c1.95113,0.34014 3.81265,1.32081 5.77889,1.63976c5.97406,0.9691 13.16546,-1.1427 18.91047,-2.60714c9.38633,-1.5169 19.8087,-2.84877 29.12928,-0.71244c2.4002,0.55014 4.72408,1.2535 7.04472,2.08393c1.03543,0.37052 2.63308,0.0566 3.13282,1.03622c0.90791,1.77976 -3.5742,4.52039 -4.39575,5.29687c-3.66645,2.41015 -7.30641,4.92537 -11.05012,7.20669c-1.4152,0.86238 -3.57009,2.64439 -5.25985,3.06075c-7.77034,1.91466 -16.2196,0.08499 -24.00365,-0.9448c-11.94452,-1.56314 -24.12319,1.002 -35.78161,3.28433c-2.0833,0.40783 -3.8357,1.42768 -5.96173,1.68427c-5.67708,0.18594 -9.57191,-2.03733 -14.89327,-3.85805c-3.89043,-1.33113 -7.87728,-2.68976 -11.29563,-5.03952c-2.61782,-1.79946 -5.5715,-3.68939 -6.06636,-7.06371c0.26406,-1.56418 1.835,-2.57972 3.19953,-3.66867c0.13243,-0.05032 0.21438,-0.10099 0.21438,-0.10099z" fill-opacity="0.41176" fill="#6ee8ff" stroke="none" stroke-width="0.5" stroke-linecap="butt"/><path d="M381.22278,113.52866l1.39119,41.20756l-24.36526,15.57281l-36.29061,-3.15377l-34.59071,6.23819l-26.05849,-14.10094l-1.40674,-41.66799z" fill-opacity="0.08235" fill="#00ffff" stroke="#f1da3e" stroke-width="7.5" stroke-linecap="round"/><path d="M272.29846,102.0909c-0.03261,-0.96595 0.72401,-1.77544 1.68996,-1.80805c0.96595,-0.03261 1.77544,0.72401 1.80805,1.68996c0.03261,0.96595 -0.72401,1.77544 -1.68996,1.80805c-0.96595,0.03261 -1.77544,-0.72401 -1.80805,-1.68996z" fill="#ff9600" stroke="none" stroke-width="0.5" stroke-linecap="butt"/><path d="M282.02094,99.8539c0.96595,-0.03261 1.77544,0.72401 1.80805,1.68996c0.03261,0.96595 -0.72401,1.77544 -1.68996,1.80805c-0.76727,0.0259 -1.43583,-0.44614 -1.69473,-1.12554c-0.21249,0.6953 -0.84769,1.21137 -1.61496,1.23728c-0.96595,0.03261 -1.77544,-0.72401 -1.80805,-1.68996c-0.03261,-0.96595 0.72401,-1.77544 1.68996,-1.80805c0.76727,-0.0259 1.43583,0.44614 1.69473,1.12554c0.21249,-0.6953 0.84769,-1.21137 1.61496,-1.23728z" fill="#ff9600" stroke="none" stroke-width="0.5" stroke-linecap="butt"/><path d="M287.23364,100.4822c-0.03261,-0.96595 0.72401,-1.77544 1.68996,-1.80805c0.96595,-0.03261 1.77544,0.72401 1.80805,1.68996c0.03261,0.96595 -0.72401,1.77544 -1.68996,1.80805c-0.96595,0.03261 -1.77544,-0.72401 -1.80805,-1.68996z" fill="#ff9600" stroke="none" stroke-width="0.5" stroke-linecap="butt"/><path d="M294.32052,100.08516c-0.03261,-0.96595 0.72401,-1.77544 1.68996,-1.80805c0.96595,-0.03261 1.77544,0.72401 1.80805,1.68996c0.03261,0.96595 -0.72401,1.77544 -1.68996,1.80805c-0.96595,0.03261 -1.77544,-0.72401 -1.80805,-1.68996z" fill="#ff9600" stroke="none" stroke-width="0.5" stroke-linecap="butt"/><path d="M301.27107,100.32386c-0.03261,-0.96595 0.72401,-1.77544 1.68996,-1.80805c0.96595,-0.03261 1.77544,0.72401 1.80805,1.68996c0.03261,0.96595 -0.72401,1.77544 -1.68996,1.80805c-0.96595,0.03261 -1.77544,-0.72401 -1.80805,-1.68996z" fill="#ff9600" stroke="none" stroke-width="0.5" stroke-linecap="butt"/><path d="M308.21098,100.24734c-0.03261,-0.96595 0.72401,-1.77544 1.68996,-1.80805c0.96595,-0.03261 1.77544,0.72401 1.80805,1.68996c0.03261,0.96595 -0.72401,1.77544 -1.68996,1.80805c-0.96595,0.03261 -1.77544,-0.72401 -1.80805,-1.68996z" fill="#ff9600" stroke="none" stroke-width="0.5" stroke-linecap="butt"/><path d="M311.81992,99.65215c-0.03261,-0.96595 0.72401,-1.77544 1.68996,-1.80805c0.96595,-0.03261 1.77544,0.72401 1.80805,1.68996c0.03261,0.96595 -0.72401,1.77544 -1.68996,1.80805c-0.96595,0.03261 -1.77544,-0.72401 -1.80805,-1.68996z" fill="#ff9600" stroke="none" stroke-width="0.5" stroke-linecap="butt"/><path d="M316.70034,99.3296c-0.03261,-0.96595 0.72401,-1.77544 1.68996,-1.80805c0.96595,-0.03261 1.77544,0.72401 1.80805,1.68996c0.03261,0.96595 -0.72401,1.77544 -1.68996,1.80805c-0.96595,0.03261 -1.77544,-0.72401 -1.80805,-1.68996z" fill="#ff9600" stroke="none" stroke-width="0.5" stroke-linecap="butt"/><path d="M323.79254,99.09016c-0.03261,-0.96595 0.72401,-1.77544 1.68996,-1.80805c0.96595,-0.03261 1.77544,0.72401 1.80805,1.68996c0.03261,0.96595 -0.72401,1.77544 -1.68996,1.80805c-0.96595,0.03261 -1.77544,-0.72401 -1.80805,-1.68996z" fill="#ff9600" stroke="none" stroke-width="0.5" stroke-linecap="butt"/><path d="M328.36838,99.09347c-0.03261,-0.96595 0.72401,-1.77544 1.68996,-1.80805c0.96595,-0.03261 1.77544,0.72401 1.80805,1.68996c0.03261,0.96595 -0.72401,1.77544 -1.68996,1.80805c-0.96595,0.03261 -1.77544,-0.72401 -1.80805,-1.68996z" fill="#ff9600" stroke="none" stroke-width="0.5" stroke-linecap="butt"/><path d="M331.86229,99.76443c-0.03261,-0.96595 0.72401,-1.77544 1.68996,-1.80805c0.96595,-0.03261 1.77544,0.72401 1.80805,1.68996c0.03261,0.96595 -0.72401,1.77544 -1.68996,1.80805c-0.96595,0.03261 -1.77544,-0.72401 -1.80805,-1.68996z" fill="#ff9600" stroke="none" stroke-width="0.5" stroke-linecap="butt"/><path d="M345.38853,98.03014c0.96595,-0.03261 1.77544,0.72401 1.80805,1.68996c0.03261,0.96595 -0.72401,1.77544 -1.68996,1.80805c-0.58378,0.0197 -1.11041,-0.24885 -1.44294,-0.67765c-0.30286,0.45026 -0.81017,0.75371 -1.39393,0.77343c-0.40187,0.01357 -0.77666,-0.10947 -1.07969,-0.32736c-0.24106,0.13962 -0.51901,0.22355 -0.81688,0.23361c-0.96595,0.03261 -1.77544,-0.72401 -1.80805,-1.68996c-0.03261,-0.96595 0.72401,-1.77544 1.68996,-1.80805c0.40187,-0.01357 0.77666,0.10946 1.07969,0.32736c0.24106,-0.13962 0.51901,-0.22354 0.81688,-0.2336c0.58378,-0.0197 1.1104,0.24884 1.44293,0.67764c0.30286,-0.45026 0.81018,-0.7537 1.39394,-0.77342z" fill="#ff9600" stroke="none" stroke-width="0.5" stroke-linecap="butt"/><path d="M355.14936,97.38504c0.96595,-0.03261 1.77544,0.72401 1.80805,1.68996c0.03261,0.96595 -0.72401,1.77544 -1.68996,1.80805c-0.22226,0.0075 -0.43623,-0.02678 -0.63438,-0.09578c-0.19304,0.0822 -0.4042,0.13084 -0.62646,0.13835c-0.96595,0.03261 -1.77544,-0.72401 -1.80805,-1.68996c-0.03261,-0.96595 0.72401,-1.77544 1.68996,-1.80805c0.22226,-0.0075 0.43623,0.02678 0.63437,0.09578c0.19304,-0.0822 0.4042,-0.13084 0.62647,-0.13835z" fill="#ff9600" stroke="none" stroke-width="0.5" stroke-linecap="butt"/><path d="M358.66035,99.0175c-0.03261,-0.96595 0.72401,-1.77544 1.68996,-1.80805c0.96595,-0.03261 1.77544,0.72401 1.80805,1.68996c0.03261,0.96595 -0.72401,1.77544 -1.68996,1.80805c-0.96595,0.03261 -1.77544,-0.72401 -1.80805,-1.68996z" fill="#ff9600" stroke="none" stroke-width="0.5" stroke-linecap="butt"/><path d="M362.11169,98.42761c-0.03261,-0.96595 0.72401,-1.77544 1.68996,-1.80805c0.96595,-0.03261 1.77544,0.72401 1.80805,1.68996c0.03261,0.96595 -0.72401,1.77544 -1.68996,1.80805c-0.96595,0.03261 -1.77544,-0.72401 -1.80805,-1.68996z" fill="#ff9600" stroke="none" stroke-width="0.5" stroke-linecap="butt"/><path d="M371.66757,107.8966c-0.03261,-0.96595 0.72401,-1.77544 1.68996,-1.80805c0.96595,-0.03261 1.77544,0.72401 1.80805,1.68996c0.03261,0.96595 -0.72401,1.77544 -1.68996,1.80805c-0.96595,0.03261 -1.77544,-0.72401 -1.80805,-1.68996z" fill="#ffc72e" stroke="none" stroke-width="0.5" stroke-linecap="butt"/><path d="M361.25503,107.93257c-0.03261,-0.96595 0.72401,-1.77544 1.68996,-1.80805c0.76213,-0.02573 1.42689,0.43986 1.68948,1.11192c0.28819,-0.52089 0.83503,-0.88158 1.47325,-0.90313c0.96595,-0.03261 1.77544,0.72401 1.80805,1.68996c0.03261,0.96595 -0.72401,1.77544 -1.68996,1.80805c-0.76213,0.02573 -1.42689,-0.43986 -1.68948,-1.11192c-0.28819,0.52089 -0.83503,0.88158 -1.47325,0.90313c-0.96595,0.03261 -1.77544,-0.72401 -1.80805,-1.68996z" fill="#ffc72e" stroke="none" stroke-width="0.5" stroke-linecap="butt"/><path d="M352.72844,107.74708c-0.03261,-0.96595 0.72401,-1.77544 1.68996,-1.80805c0.08027,-0.00271 0.15944,0.00002 0.23719,0.00789c0.28084,-0.21802 0.63052,-0.35274 1.01301,-0.36566c0.96595,-0.03261 1.77544,0.72401 1.80805,1.68996c0.03261,0.96595 -0.72401,1.77544 -1.68996,1.80805c-0.08027,0.00271 -0.15944,-0.00003 -0.23719,-0.00789c-0.28084,0.21802 -0.63052,0.35275 -1.01301,0.36567c-0.96595,0.03261 -1.77544,-0.72401 -1.80805,-1.68996z" fill="#ffc72e" stroke="none" stroke-width="0.5" stroke-linecap="butt"/><path d="M347.03872,107.46582c-0.03261,-0.96595 0.72401,-1.77544 1.68996,-1.80805c0.96595,-0.03261 1.77544,0.72401 1.80805,1.68996c0.03261,0.96595 -0.72401,1.77544 -1.68996,1.80805c-0.96595,0.03261 -1.77544,-0.72401 -1.80805,-1.68996z" fill="#ffc72e" stroke="none" stroke-width="0.5" stroke-linecap="butt"/><path d="M337.74538,107.93735c-0.03261,-0.96595 0.72401,-1.77544 1.68996,-1.80805c0.96595,-0.03261 1.77544,0.72401 1.80805,1.68996c0.03261,0.96595 -0.72401,1.77544 -1.68996,1.80805c-0.96595,0.03261 -1.77544,-0.72401 -1.80805,-1.68996z" fill="#ffc72e" stroke="none" stroke-width="0.5" stroke-linecap="butt"/><path d="M331.27828,107.9979c-0.03261,-0.96595 0.72401,-1.77544 1.68996,-1.80805c0.96595,-0.03261 1.77544,0.72401 1.80805,1.68996c0.03261,0.96595 -0.72401,1.77544 -1.68996,1.80805c-0.96595,0.03261 -1.77544,-0.72401 -1.80805,-1.68996z" fill="#ffc72e" stroke="none" stroke-width="0.5" stroke-linecap="butt"/><path d="M322.63665,109.07857c-0.03261,-0.96595 0.72401,-1.77544 1.68996,-1.80805c0.96595,-0.03261 1.77544,0.72401 1.80805,1.68996c0.03261,0.96595 -0.72401,1.77544 -1.68996,1.80805c-0.96595,0.03261 -1.77544,-0.72401 -1.80805,-1.68996z" fill="#ffc72e" stroke="none" stroke-width="0.5" stroke-linecap="butt"/><path d="M304.62718,108.42431c-0.03261,-0.96595 0.72401,-1.77544 1.68996,-1.80805c0.96595,-0.03261 1.77544,0.72401 1.80805,1.68996c0.03261,0.96595 -0.72401,1.77544 -1.68996,1.80805c-0.96595,0.03261 -1.77544,-0.72401 -1.80805,-1.68996z" fill="#ffc72e" stroke="none" stroke-width="0.5" stroke-linecap="butt"/><path d="M286.06711,110.1554c-0.03261,-0.96595 0.72401,-1.77544 1.68996,-1.80805c0.96595,-0.03261 1.77544,0.72401 1.80805,1.68996c0.03261,0.96595 -0.72401,1.77544 -1.68996,1.80805c-0.96595,0.03261 -1.77544,-0.72401 -1.80805,-1.68996z" fill="#ffc72e" stroke="none" stroke-width="0.5" stroke-linecap="butt"/><path d="M278.48614,109.93798c-0.03261,-0.96595 0.72401,-1.77544 1.68996,-1.80805c0.96595,-0.03261 1.77544,0.72401 1.80805,1.68996c0.03261,0.96595 -0.72401,1.77544 -1.68996,1.80805c-0.96595,0.03261 -1.77544,-0.72401 -1.80805,-1.68996z" fill="#ffc72e" stroke="none" stroke-width="0.5" stroke-linecap="butt"/><path d="M268.24186,110.28383c-0.03261,-0.96595 0.72401,-1.77544 1.68996,-1.80805c0.96595,-0.03261 1.77544,0.72401 1.80805,1.68996c0.03261,0.96595 -0.72401,1.77544 -1.68996,1.80805c-0.96595,0.03261 -1.77544,-0.72401 -1.80805,-1.68996z" fill="#ffc72e" stroke="none" stroke-width="0.5" stroke-linecap="butt"/><path d="M293.47984,110.06292c-0.03261,-0.96595 0.72401,-1.77544 1.68996,-1.80805c0.96595,-0.03261 1.77544,0.72401 1.80805,1.68996c0.03261,0.96595 -0.72401,1.77544 -1.68996,1.80805c-0.96595,0.03261 -1.77544,-0.72401 -1.80805,-1.68996z" fill="#ffc72e" stroke="none" stroke-width="0.5" stroke-linecap="butt"/><path d="M299.33249,110.49647c-0.03261,-0.96595 0.72401,-1.77544 1.68996,-1.80805c0.96595,-0.03261 1.77544,0.72401 1.80805,1.68996c0.03261,0.96595 -0.72401,1.77544 -1.68996,1.80805c-0.96595,0.03261 -1.77544,-0.72401 -1.80805,-1.68996z" fill="#ffc72e" stroke="none" stroke-width="0.5" stroke-linecap="butt"/><path d="M309.07735,109.37856c-0.03261,-0.96595 0.72401,-1.77544 1.68996,-1.80805c0.96595,-0.03261 1.77544,0.72401 1.80805,1.68996c0.03261,0.96595 -0.72401,1.77544 -1.68996,1.80805c-0.96595,0.03261 -1.77544,-0.72401 -1.80805,-1.68996z" fill="#ffc72e" stroke="none" stroke-width="0.5" stroke-linecap="butt"/><path d="M317.73494,108.7707c-0.03261,-0.96595 0.72401,-1.77544 1.68996,-1.80805c0.96595,-0.03261 1.77544,0.72401 1.80805,1.68996c0.03261,0.96595 -0.72401,1.77544 -1.68996,1.80805c-0.96595,0.03261 -1.77544,-0.72401 -1.80805,-1.68996z" fill="#ffc72e" stroke="none" stroke-width="0.5" stroke-linecap="butt"/><path d="M271.97301,105.45174c-0.02329,-0.68997 0.51714,-1.26817 1.20711,-1.29147c0.68997,-0.02329 1.26817,0.51714 1.29147,1.20711c0.02329,0.68997 -0.51714,1.26817 -1.20711,1.29147c-0.68997,0.02329 -1.26817,-0.51714 -1.29147,-1.20711z" fill="#ff9600" stroke="none" stroke-width="0.5" stroke-linecap="butt"/><path d="M281.82671,103.24584c-0.02329,-0.68997 0.51714,-1.26817 1.20711,-1.29147c0.68997,-0.02329 1.26817,0.51714 1.29147,1.20711c0.02329,0.68997 -0.51714,1.26817 -1.20711,1.29147c-0.68997,0.02329 -1.26817,-0.51714 -1.29147,-1.20711z" fill="#ff9600" stroke="none" stroke-width="0.5" stroke-linecap="butt"/><path d="M284.36414,100.72495c-0.02329,-0.68997 0.51714,-1.26817 1.20711,-1.29147c0.68997,-0.02329 1.26817,0.51714 1.29147,1.20711c0.02329,0.68997 -0.51714,1.26817 -1.20711,1.29147c-0.68997,0.02329 -1.26817,-0.51714 -1.29147,-1.20711z" fill="#ff9600" stroke="none" stroke-width="0.5" stroke-linecap="butt"/><path d="M301.64149,102.0149c-0.02329,-0.68997 0.51714,-1.26817 1.20711,-1.29147c0.68997,-0.02329 1.26817,0.51714 1.29147,1.20711c0.02329,0.68997 -0.51714,1.26817 -1.20711,1.29147c-0.68997,0.02329 -1.26817,-0.51714 -1.29147,-1.20711z" fill="#ff9600" stroke="none" stroke-width="0.5" stroke-linecap="butt"/><path d="M306.56953,103.72177c-0.02329,-0.68997 0.51714,-1.26817 1.20711,-1.29147c0.68997,-0.02329 1.26817,0.51714 1.29147,1.20711c0.02329,0.68997 -0.51714,1.26817 -1.20711,1.29147c-0.68997,0.02329 -1.26817,-0.51714 -1.29147,-1.20711z" fill="#ff9600" stroke="none" stroke-width="0.5" stroke-linecap="butt"/><path d="M314.07922,104.21754c-0.02329,-0.68997 0.51714,-1.26817 1.20711,-1.29147c0.68997,-0.02329 1.26817,0.51714 1.29147,1.20711c0.02329,0.68997 -0.51714,1.26817 -1.20711,1.29147c-0.68997,0.02329 -1.26817,-0.51714 -1.29147,-1.20711z" fill="#ff9600" stroke="none" stroke-width="0.5" stroke-linecap="butt"/><path d="M326.79011,103.41376c-0.02329,-0.68997 0.51714,-1.26817 1.20711,-1.29147c0.68997,-0.02329 1.26817,0.51714 1.29147,1.20711c0.02329,0.68997 -0.51714,1.26817 -1.20711,1.29147c-0.68997,0.02329 -1.26817,-0.51714 -1.29147,-1.20711z" fill="#ff9600" stroke="none" stroke-width="0.5" stroke-linecap="butt"/><path d="M331.42366,101.94605c-0.02329,-0.68997 0.51714,-1.26817 1.20711,-1.29147c0.68997,-0.02329 1.26817,0.51714 1.29147,1.20711c0.02329,0.68997 -0.51714,1.26817 -1.20711,1.29147c-0.68997,0.02329 -1.26817,-0.51714 -1.29147,-1.20711z" fill="#ff9600" stroke="none" stroke-width="0.5" stroke-linecap="butt"/><path d="M339.95494,99.41015c-0.02329,-0.68997 0.51714,-1.26817 1.20711,-1.29147c0.68997,-0.02329 1.26817,0.51714 1.29147,1.20711c0.02329,0.68997 -0.51714,1.26817 -1.20711,1.29147c-0.68997,0.02329 -1.26817,-0.51714 -1.29147,-1.20711z" fill="#ff9600" stroke="none" stroke-width="0.5" stroke-linecap="butt"/><path d="M351.40659,100.14749c-0.02329,-0.68997 0.51714,-1.26817 1.20711,-1.29147c0.68997,-0.02329 1.26817,0.51714 1.29147,1.20711c0.02329,0.68997 -0.51714,1.26817 -1.20711,1.29147c-0.68997,0.02329 -1.26817,-0.51714 -1.29147,-1.20711z" fill="#ff9600" stroke="none" stroke-width="0.5" stroke-linecap="butt"/><path d="M362.53456,102.39432c-0.02329,-0.68997 0.51714,-1.26817 1.20711,-1.29147c0.68997,-0.02329 1.26817,0.51714 1.29147,1.20711c0.02329,0.68997 -0.51714,1.26817 -1.20711,1.29147c-0.68997,0.02329 -1.26817,-0.51714 -1.29147,-1.20711z" fill="#ff9600" stroke="none" stroke-width="0.5" stroke-linecap="butt"/><path d="M276.62706,106.41856c-0.01397,-0.41397 0.31029,-0.7609 0.72426,-0.77488c0.41397,-0.01397 0.7609,0.31029 0.77488,0.72426c0.01397,0.41397 -0.31029,0.7609 -0.72426,0.77488c-0.41397,0.01397 -0.7609,-0.31029 -0.77488,-0.72426z" fill="#ff9600" stroke="none" stroke-width="0.5" stroke-linecap="butt"/><path d="M285.24047,106.31509c-0.01397,-0.41397 0.31029,-0.7609 0.72426,-0.77488c0.41397,-0.01397 0.7609,0.31029 0.77488,0.72426c0.01397,0.41397 -0.31029,0.7609 -0.72426,0.77488c-0.41397,0.01397 -0.7609,-0.31029 -0.77488,-0.72426z" fill="#ff9600" stroke="none" stroke-width="0.5" stroke-linecap="butt"/><path d="M295.9896,105.2029c-0.01397,-0.41397 0.31029,-0.7609 0.72426,-0.77488c0.41397,-0.01397 0.7609,0.31029 0.77488,0.72426c0.01397,0.41397 -0.31029,0.7609 -0.72426,0.77488c-0.41397,0.01397 -0.7609,-0.31029 -0.77488,-0.72426z" fill="#ff9600" stroke="none" stroke-width="0.5" stroke-linecap="butt"/><path d="M309.37553,107.74817c-0.01397,-0.41397 0.31029,-0.7609 0.72426,-0.77488c0.41397,-0.01397 0.7609,0.31029 0.77488,0.72426c0.01397,0.41397 -0.31029,0.7609 -0.72426,0.77488c-0.41397,0.01397 -0.7609,-0.31029 -0.77488,-0.72426z" fill="#ff9600" stroke="none" stroke-width="0.5" stroke-linecap="butt"/><path d="M320.13319,104.57512c-0.01397,-0.41397 0.31029,-0.7609 0.72426,-0.77488c0.41397,-0.01397 0.7609,0.31029 0.77488,0.72426c0.01397,0.41397 -0.31029,0.7609 -0.72426,0.77488c-0.41397,0.01397 -0.7609,-0.31029 -0.77488,-0.72426z" fill="#ff9600" stroke="none" stroke-width="0.5" stroke-linecap="butt"/><path d="M333.49385,106.37194c-0.01397,-0.41397 0.31029,-0.7609 0.72426,-0.77488c0.41397,-0.01397 0.7609,0.31029 0.77488,0.72426c0.01397,0.41397 -0.31029,0.7609 -0.72426,0.77488c-0.41397,0.01397 -0.7609,-0.31029 -0.77488,-0.72426z" fill="#ff9600" stroke="none" stroke-width="0.5" stroke-linecap="butt"/><path d="M345.77366,103.8968c-0.01397,-0.41397 0.31029,-0.7609 0.72426,-0.77488c0.41397,-0.01397 0.7609,0.31029 0.77488,0.72426c0.01397,0.41397 -0.31029,0.7609 -0.72426,0.77488c-0.41397,0.01397 -0.7609,-0.31029 -0.77488,-0.72426z" fill="#ff9600" stroke="none" stroke-width="0.5" stroke-linecap="butt"/><path d="M367.32929,104.29302c-0.01397,-0.41397 0.31029,-0.7609 0.72426,-0.77488c0.41397,-0.01397 0.7609,0.31029 0.77488,0.72426c0.01397,0.41397 -0.31029,0.7609 -0.72426,0.77488c-0.41397,0.01397 -0.7609,-0.31029 -0.77488,-0.72426z" fill="#ff9600" stroke="none" stroke-width="0.5" stroke-linecap="butt"/><path d="M356.13423,105.60758c-0.01397,-0.41397 0.31029,-0.7609 0.72426,-0.77488c0.41397,-0.01397 0.7609,0.31029 0.77488,0.72426c0.01397,0.41397 -0.31029,0.7609 -0.72426,0.77488c-0.41397,0.01397 -0.7609,-0.31029 -0.77488,-0.72426z" fill="#ff9600" stroke="none" stroke-width="0.5" stroke-linecap="butt"/></g><path d="M302.55697,196.66417c0,0 2.55267,-12.55862 18.77126,-11.698c15.96776,0.93076 19.74039,11.35754 19.74039,11.35754c0,0 -15.32872,3.95395 -24.83404,3.04439c-9.50534,-0.90956 -13.6776,-2.70392 -13.6776,-2.70392z" fill="#000000" stroke="#000000" stroke-width="0" stroke-linecap="round"/><path d="M315.39629,197.45564c7.64104,0.57277 19.77597,-2.3017 19.77597,-2.3017l2.33358,0.88731c0,0 -14.36404,3.05857 -22.21512,2.34525c-7.85107,-0.71332 -10.98282,-2.96759 -10.98282,-2.96759l1.13772,-1.00318c0,0 3.77522,2.577 9.95064,3.03991z" fill="#ffffff" stroke="#000000" stroke-width="0" stroke-linecap="round"/><path d="M316.7582,202.61483c-0.20861,-1.07033 -0.33228,-2.12024 -0.502,-3.18582c-0.13527,0.0054 -0.27063,0.00919 -0.40604,0.01138c0.02283,0.3626 -0.01863,0.73693 0.00125,1.10005l0.00632,0.18712c0,0 0.04217,1.24929 -1.20711,1.29147l-0.00001,0.00001c-1.24929,0.04217 -1.29147,-1.20711 -1.29147,-1.20711l-0.00632,-0.18712c-0.00072,-0.66949 -0.11748,-1.11151 -0.30002,-1.36269c-0.28571,-0.04077 -0.57102,-0.08834 -0.85569,-0.14261c-0.25615,0.14752 -0.51724,0.42902 -0.73947,0.81253c0.17328,1.47631 -0.14645,3.4598 -0.33724,4.97063c0.01681,0.48693 -0.00867,0.95973 -0.12694,1.40482c-0.00101,0.06247 -0.00073,0.12198 0.00092,0.1783l0.04509,1.33542c0.02329,0.68997 -0.51714,1.26817 -1.20711,1.29147c-0.68997,0.02329 -1.26817,-0.51714 -1.29147,-1.20711l-0.05054,-1.49689l0.00123,-0.00004c-0.00353,-0.14613 -0.006,-0.29078 -0.00757,-0.43409c-0.31396,-0.52224 -0.1167,-1.32773 -0.08884,-2.44168c0.01803,-0.72057 0.05985,-1.55941 0.18623,-2.40656c0.00002,-0.8347 -0.03323,-1.67439 -0.13823,-2.55221l-0.44469,-0.75244c-0.11054,-0.17901 -0.17733,-0.38839 -0.18494,-0.61372c-0.00727,-0.21524 0.04032,-0.4196 0.13022,-0.59964l-0.31544,-0.09561c-1.00732,-0.30731 -1.54915,-0.53179 -2.05981,-0.97233l-0.08815,0.11661l-0.79995,-0.60473c-0.17839,-0.13248 -0.2964,-0.34254 -0.30297,-0.58189c-0.01136,-0.41405 0.31509,-0.75893 0.72914,-0.7703l0.78817,-0.02163l0.00074,0.02708l0.07323,-0.02546c4.01563,0.67195 7.97826,1.37369 11.96097,2.04893c0,0 0.09116,0.01564 0.20396,0.06796c2.36142,-0.05733 4.70758,-0.39506 7.08114,-0.56122c0.29459,-0.11017 0.58823,-0.22811 0.88079,-0.35395c2.32443,-0.33363 4.49068,-0.54539 6.7524,-0.65922c0.46884,-0.10037 0.9325,-0.1522 1.33592,-0.0556c0.18749,-0.00622 0.37595,-0.01182 0.56548,-0.01682l0.04764,0.0226l0.00201,-0.01901l1.17427,0.12414c0.37338,0.03374 0.67075,0.34238 0.68129,0.72637c0.01136,0.41405 -0.31509,0.75893 -0.72914,0.7703l-1.10344,0.03029l-0.00386,-0.14071l-0.13952,-0.01475c-0.74817,0.02151 -1.47706,0.05276 -2.19676,0.09409c-2.77812,0.55481 -5.30881,1.43063 -8.02717,2.06664l-0.77717,0.0359c0,0 -0.48615,0.01334 -0.68624,-0.37294c-0.06454,0.01461 -0.12913,0.02887 -0.19374,0.04282c-0.02884,0.02605 -0.05891,0.05078 -0.09012,0.07408l-1.15889,0.88833c-1.1525,1.61592 -2.2519,3.71319 -2.8246,5.61629c0,0 -0.07206,0.23774 -0.27006,0.39809c-0.01614,4.30275 1.26277,9.02938 1.28933,13.07586c-0.15517,0.34347 -0.31035,0.68694 -0.46551,1.03041l-0.11262,0.69551c0,0 -0.12686,0.7392 -0.86605,0.61234c-0.7392,-0.12686 -0.61234,-0.86605 -0.61234,-0.86605l0.15937,-0.8895c0.14279,-0.29572 0.28558,-0.59144 0.42837,-0.88717c-0.26193,-4.36095 -1.55716,-9.57023 -1.23803,-14.1808c-0.22206,-0.18061 -0.27819,-0.46844 -0.27819,-0.46844zM319.17528,199.05412c0.00019,0.00031 0.00037,0.00063 0.00056,0.00095c0.00018,-0.0004 0.00036,-0.00079 0.00055,-0.00119c-0.00037,0.00008 -0.00073,0.00016 -0.00109,0.00024z" fill-opacity="0.41176" fill="#6ee8ff" stroke="none" stroke-width="0.5" stroke-linecap="butt"/></g></g></g></svg>