<svg version="1.1" xmlns="http://www.w3.org/2000/svg" xmlns:xlink="http://www.w3.org/1999/xlink" width="217.07931" height="272.93481" viewBox="0,0,217.07931,272.93481"><defs><linearGradient x1="318.96396" y1="240.85418" x2="318.96396" y2="276.16738" gradientUnits="userSpaceOnUse" id="color-1"><stop offset="0" stop-color="#005cff" stop-opacity="0"/><stop offset="1" stop-color="#005cff" stop-opacity="0.2"/></linearGradient><radialGradient cx="319.73021" cy="160.55401" r="64.23702" gradientUnits="userSpaceOnUse" id="color-2"><stop offset="0" stop-color="#aca5f2"/><stop offset="1" stop-color="#f3ca58"/></radialGradient><radialGradient cx="292.32446" cy="161.70586" r="23.48066" gradientUnits="userSpaceOnUse" id="color-3"><stop offset="0" stop-color="#ffffff"/><stop offset="1" stop-color="#ff6d6d"/></radialGradient><radialGradient cx="346.55528" cy="159.97231" r="23.48066" gradientUnits="userSpaceOnUse" id="color-4"><stop offset="0" stop-color="#ffffff"/><stop offset="1" stop-color="#ff6d6d"/></radialGradient></defs><g transform="translate(-209.51175,-46.13752)"><g stroke-miterlimit="10"><path d="M213.40902,313.86253v-267.72501h213.18203v267.72501z" fill="none" stroke="none" stroke-width="0" stroke-linecap="butt"/><g stroke-linecap="butt"><g><g stroke-width="0"><path d="M370.70107,269.87901c-0.06778,1.44597 -1.41901,-4.97989 -6.32499,-5.20986c-4.90598,-0.22997 -8.51273,-3.00784 -8.44495,-4.45381c0.06778,-1.44597 4.09981,0.87984 9.00579,1.10981c4.90598,0.22997 5.83193,7.10789 5.76415,8.55386z" fill="#f29d0f" stroke="#000000"/><path d="M363.39927,263.52071c0,8.78876 -6.18635,0.14404 -15.95739,0.14404c-9.77104,0 -15.01123,-7.44009 -15.01123,-16.22885c0,-8.78876 7.92099,-4.71717 17.69203,-4.71717c9.77104,0 13.27659,12.01322 13.27659,20.80198z" fill="#f2d40e" stroke="#000000"/><path d="M357.81448,254.49469c0,-0.69036 0.55964,-1.25 1.25,-1.25c0.69036,0 1.25,0.55964 1.25,1.25c0,0.69036 -0.55964,1.25 -1.25,1.25c-0.69036,0 -1.25,-0.55964 -1.25,-1.25z" fill="#000000" stroke="none"/></g><path d="M286.35186,319.07232c0,0 -1.89355,-25.93292 0.55642,-47.26366c2.58988,-22.54893 14.58643,-84.57844 14.58643,-84.57844l37.78325,-0.15789c0,0 9.71821,48.53571 12.06959,71.4019c2.15633,20.96935 1.5043,60.5981 1.5043,60.5981z" fill="#f3ca58" stroke="#000000" stroke-width="0"/><path d="M293.32495,231.42274c3.92467,-22.12412 8.16979,-44.1925 8.16979,-44.1925l37.78325,-0.15789c0,0 4.58735,22.91064 8.22116,44.66623c0.01212,0.07254 -54.19728,-0.18574 -54.1742,-0.31584z" fill="#f2bc49" stroke="#000000" stroke-width="0"/><path d="M294.35562,225.21112c3.47387,-19.2454 7.13909,-37.98086 7.13909,-37.98086l37.78325,-0.15789c0,0 3.7397,19.39228 7.08641,38.61124c0.00071,0.00407 -52.0355,-0.32431 -52.00875,-0.47248z" fill="#ffc72e" stroke="#000000" stroke-width="0"/><path d="M309.43057,274.95006c-0.60434,0 -1.13393,-0.23881 -1.42855,-0.59687c-0.40832,-0.03148 -0.71369,-0.15576 -0.71369,-0.15576c-2.81592,-1.14616 -6.6205,-2.20571 -9.08745,-3.72458c-5.15584,-3.1744 -6.48202,-7.967 -2.60749,-12.21832c3.34303,-3.66814 9.07756,-4.44116 14.1588,-5.7515c3.39017,-0.87425 6.25511,-2.47282 9.63619,-3.37881c2.25387,-0.97114 5.50095,-1.85595 7.42542,-3.16024c1.26199,-0.8553 1.68883,-2.21259 2.8379,-3.12013c0.82862,-0.65444 4.11036,-2.27023 5.42408,-1.94755c2.52904,0.62119 4.05401,5.49475 4.87382,7.17382c0.81561,1.67047 2.09706,2.72111 2.94108,4.38572c2.22816,4.39447 2.39218,10.85669 -0.38497,15.07163c-4.12178,4.62147 -13.47245,8.29221 -20.91425,8.62036c-3.3941,0.14966 -6.97675,-0.59431 -10.29739,-1.01544l-1.59475,-0.19833c-0.0875,0.01053 -0.17726,0.016 -0.26874,0.016z" fill="url(#color-1)" stroke="none" stroke-width="0.5"/><path d="M296.01192,216.45651c2.97215,-16.24462 5.48281,-29.22625 5.48281,-29.22625l37.78325,-0.15789c0,0 2.77645,13.86644 5.72037,30.26775c0.00971,0.0541 -49.03891,-0.59676 -48.98643,-0.88361z" fill="#ff9600" stroke="#000000" stroke-width="0"/><g stroke-width="0"><path d="M356.84064,264.74938c-0.16935,10.05097 -14.10853,4.57839 -35.80932,4.57839c-21.70078,0 -38.91576,4.34675 -38.50428,-5.05147c0.52608,-12.01574 17.11889,-0.63604 38.81967,-0.63604c21.70078,0 35.63747,-7.40967 35.49394,1.10912z" fill="#f2d40e" stroke="#000000"/><path d="M344.09441,266.38599c0,-0.97798 0.79281,-1.77078 1.77078,-1.77078c0.97798,0 1.77078,0.79281 1.77078,1.77078c0,0.97798 -0.79281,1.77078 -1.77078,1.77078c-0.97798,0 -1.77078,-0.79281 -1.77078,-1.77078z" fill="#080700" stroke="none"/><path d="M348.70223,261.04886c-0.3209,3.37178 -1.40371,2.88109 -2.86307,2.7422c-1.45936,-0.13889 -2.74263,0.12661 -2.42173,-3.24517c0.3209,-3.37178 3.22345,-5.85366 3.22345,-5.85366c0,0 2.38226,2.98485 2.06135,6.35663z" fill="#f2d40e" stroke="none"/><path d="M340.02663,267.57169c2.8247,-1.86894 3.12333,-0.71826 3.93224,0.50431c0.80891,1.22257 1.82178,2.05407 -1.00292,3.92301c-2.8247,1.86894 -6.57922,1.17036 -6.57922,1.17036c0,0 0.82521,-3.72874 3.64991,-5.59769z" fill="#f2d40e" stroke="none"/><path d="M345.92962,271.74289c-0.96942,-3.24532 0.21842,-3.1974 1.62304,-3.61698c1.40462,-0.41958 2.49413,-1.14777 3.46355,2.09755c0.96942,3.24532 -0.78801,6.63589 -0.78801,6.63589c0,0 -3.32917,-1.87113 -4.29858,-5.11645z" fill="#f2d40e" stroke="none"/><path d="M343.03152,260.28157c2.52782,2.25433 1.49142,2.83668 0.51571,3.93076c-0.97571,1.09408 -1.52125,2.28558 -4.04907,0.03125c-2.52782,-2.25433 -2.81034,-6.06283 -2.81034,-6.06283c0,0 3.81588,-0.15351 6.3437,2.10082z" fill="#f2d40e" stroke="none"/></g></g><path d="M295.94244,216.86719c0,-0.9665 0.7835,-1.75 1.75,-1.75c0.9665,0 1.75,0.7835 1.75,1.75c0,0.9665 -0.7835,1.75 -1.75,1.75c-0.9665,0 -1.75,-0.7835 -1.75,-1.75z" fill="#ff9600" stroke="none" stroke-width="0.5"/><path d="M345.50939,219.11524c0,0.69036 -0.55964,1.25 -1.25,1.25c-0.58846,0 -1.08194,-0.40663 -1.2148,-0.95423c-0.74057,-0.20381 -1.28455,-0.8821 -1.28455,-1.68743c0,-0.9665 0.7835,-1.75 1.75,-1.75c0.9665,0 1.5359,0.7835 1.5359,1.75c0,0.13554 -0.0112,0.26747 -0.03312,0.39415c0.30166,0.22821 0.49657,0.59009 0.49657,0.99751z" fill="#ff9600" stroke="none" stroke-width="0.5"/><path d="M337.26392,216.86719c0,-0.9665 0.7835,-1.75 1.75,-1.75c0.9665,0 1.75,0.7835 1.75,1.75c0,0.9665 -0.7835,1.75 -1.75,1.75c-0.9665,0 -1.75,-0.7835 -1.75,-1.75z" fill="#ff9600" stroke="none" stroke-width="0.5"/><path d="M331.055,216.86719c0,-0.9665 0.7835,-1.75 1.75,-1.75c0.53678,0 1.01712,0.24168 1.33813,0.62215c0.32101,-0.38047 0.80135,-0.62215 1.33813,-0.62215c0.9665,0 1.75,0.7835 1.75,1.75c0,0.9665 -0.7835,1.75 -1.75,1.75c-0.53678,0 -1.01711,-0.24168 -1.33813,-0.62215c-0.32101,0.38047 -0.80135,0.62215 -1.33813,0.62215c-0.9665,0 -1.75,-0.7835 -1.75,-1.75z" fill="#ff9600" stroke="none" stroke-width="0.5"/><path d="M323.09801,218.15178c0,-0.69036 0.55964,-1.25 1.25,-1.25c0.31567,0 0.604,0.11701 0.824,0.31002c-0.00317,-0.04309 -0.0048,-0.08662 -0.0048,-0.13053c0,-0.9665 0.7835,-1.75 1.75,-1.75c0.3111,0 0.60325,0.08118 0.8564,0.22351c0.25315,-0.14234 0.5453,-0.22351 0.8564,-0.22351c0.9665,0 1.75,0.7835 1.75,1.75c0,0.9665 -0.7835,1.75 -1.75,1.75c-0.3111,0 -0.60325,-0.08118 -0.8564,-0.22351c-0.00778,0.00438 -0.0156,0.00869 -0.02345,0.01295c-0.22316,0.34139 -0.60877,0.56697 -1.04706,0.56697c-0.50801,0 -0.94524,-0.30304 -1.14077,-0.73822c-0.13354,0.54664 -0.62656,0.95233 -1.21434,0.95233c-0.69036,0 -1.25,-0.55964 -1.25,-1.25z" fill="#ff9600" stroke="none" stroke-width="0.5"/><path d="M308.78848,216.86719c0,-0.90794 2.40865,-2.84656 3.17344,-1.50817c0.25014,0.14763 0.46034,0.3557 0.61052,0.60413c0.3065,-0.50702 0.86302,-0.84596 1.4987,-0.84596c0.47595,0 0.90752,0.19 1.223,0.49829c0.06029,-0.02457 0.12224,-0.04518 0.18548,-0.06204c0.19423,-0.07435 0.4051,-0.1151 0.62549,-0.1151c0.45635,0 0.87191,0.17468 1.18346,0.46083c0.02256,0.01482 0.04468,0.02996 0.06638,0.04539c0.23587,-0.11841 0.50221,-0.18507 0.78412,-0.18507c0.20657,0 0.40479,0.03579 0.58877,0.10151c0.18399,-0.06572 0.3822,-0.10151 0.58878,-0.10151c0.9665,0 1.75,0.7835 1.75,1.75c0,0.9665 -0.7835,1.75 -1.75,1.75c-0.20657,0 -0.40479,-0.0358 -0.58878,-0.10152c-0.18399,0.06572 -0.3822,0.10152 -0.58877,0.10152c-0.48323,0 -0.92072,-0.19586 -1.23741,-0.51253c-0.23892,0.12235 -0.50968,0.19138 -0.79655,0.19138c-0.13446,0 -0.26537,-0.01516 -0.39113,-0.04387c-0.435,0.10573 -0.83124,0.0274 -1.07466,-0.37157c-0.17815,0.06112 -0.36929,0.09429 -0.56817,0.09429c-0.63569,0 -1.1922,-0.33894 -1.4987,-0.84596c-0.3065,0.50702 -0.86302,0.84596 -1.49871,0.84596c-0.09804,0 -0.1942,-0.00807 -0.28785,-0.02356c-1.01047,0.44353 -1.99741,0.27119 -1.99741,-1.72644z" fill="#ff9600" stroke="none" stroke-width="0.5"/><path d="M304.03971,215.4607c0.265,-0.5145 2.3117,-1.46315 2.78381,-0.63695c0.5158,0.30442 0.86181,0.86589 0.86181,1.50818c0,0.9665 -0.7835,1.75 -1.75,1.75c-0.36156,0 -0.69751,-0.10965 -0.97641,-0.29751c-0.96798,-0.1522 -1.60936,-0.98382 -0.91921,-2.32372z" fill="#ff9600" stroke="none" stroke-width="0.5"/><path d="M299.90331,216.22488c0,-0.9665 0.7835,-1.75 1.75,-1.75c0.9665,0 1.75,0.7835 1.75,1.75c0,0.9665 -0.7835,1.75 -1.75,1.75c-0.9665,0 -1.75,-0.7835 -1.75,-1.75z" fill="#ff9600" stroke="none" stroke-width="0.5"/><path d="M300.3687,224.71648c0.69036,0 1.25,0.55964 1.25,1.25c0,0.69036 -0.55964,1.25 -1.25,1.25c-0.1789,0 -0.34902,-0.03758 -0.5029,-0.10528c-0.30099,0.24459 -0.6848,0.39118 -1.10286,0.39118c-0.49002,0 -0.93301,-0.2014 -1.25068,-0.52595c-0.28296,0.19661 -0.62671,0.31185 -0.99738,0.31185c-0.9665,0 -1.75,-0.7835 -1.75,-1.75c0,-0.9665 0.7835,-1.75 1.75,-1.75c0.49002,0 0.933,0.2014 1.25068,0.52595c0.28296,-0.19661 0.62672,-0.31185 0.99738,-0.31185c0.5849,0 1.10277,0.28694 1.42053,0.72773c0.06044,-0.00897 0.12229,-0.01363 0.18522,-0.01363z" fill="#ffc72e" stroke="none" stroke-width="0.5"/><path d="M305.22058,228.21454c0,-0.27336 0.08774,-0.52621 0.2366,-0.73195c-0.32446,-0.0491 -0.6197,-0.18731 -0.85998,-0.38887c-0.30406,0.25507 -0.6961,0.40866 -1.12403,0.40866c-0.9665,0 -1.75,-0.7835 -1.75,-1.75c0,-0.9665 0.7835,-1.75 1.75,-1.75c0.42793,0 0.81997,0.15359 1.12403,0.40866c0.30406,-0.25507 0.6961,-0.40866 1.12403,-0.40866c0.48265,0 0.91966,0.19539 1.23626,0.51138c0.30332,-0.25248 0.69335,-0.40433 1.11885,-0.40433c0.9665,0 1.75,0.7835 1.75,1.75c0,0.9665 -0.7835,1.75 -1.75,1.75c-0.19957,0 -0.39134,-0.03341 -0.57002,-0.09494c0.13526,0.19973 0.21427,0.44066 0.21427,0.70005c0,0.69036 -0.55964,1.25 -1.25,1.25c-0.69036,0 -1.25,-0.55964 -1.25,-1.25z" fill="#ffc72e" stroke="none" stroke-width="0.5"/><path d="M327.88067,223.89533c0.9665,0 1.75,0.7835 1.75,1.75c0,0.9665 -0.7835,1.75 -1.75,1.75c-0.68291,0 -1.27445,-0.39117 -1.56279,-0.96166c-0.31642,0.45199 -0.841,0.74755 -1.43462,0.74755c-0.9665,0 -1.75,-0.7835 -1.75,-1.75c0,-0.9665 0.7835,-1.75 1.75,-1.75c0.68291,0 1.27445,0.39117 1.5628,0.96166c0.31642,-0.45199 0.841,-0.74755 1.43461,-0.74755z" fill="#ffc72e" stroke="none" stroke-width="0.5"/><path d="M331.12679,228.32158c0,-0.51662 0.3134,-0.96004 0.76045,-1.1505c-0.43936,-0.31793 -0.7252,-0.83494 -0.7252,-1.41871c0,-0.9665 0.7835,-1.75 1.75,-1.75c0.17045,0 0.3352,0.02437 0.49098,0.06981c0.78988,-0.18737 1.47312,0.15276 1.47312,1.68019c0,0.22004 -0.17418,0.54241 -0.4399,0.86046c-0.19302,0.34118 -0.4973,0.61113 -0.86354,0.76055c-0.08123,0.05076 -0.16337,0.09658 -0.2455,0.13625c0.18679,0.21843 0.29959,0.50202 0.29959,0.81196c0,0.69036 -0.55964,1.25 -1.25,1.25c-0.69036,0 -1.25,-0.55964 -1.25,-1.25z" fill="#ffc72e" stroke="none" stroke-width="0.5"/><path d="M335.94406,226.82288c0,-0.68096 0.54451,-1.23474 1.22187,-1.24969c0.08974,-0.88233 0.83493,-1.57082 1.74094,-1.57082c0.33328,0 0.6448,0.09316 0.90993,0.25487c0.26513,-0.16171 0.57665,-0.25487 0.90992,-0.25487c0.9665,0 1.75,0.7835 1.75,1.75c0,0.9665 -0.7835,1.75 -1.75,1.75c-0.32024,0 -0.62038,-0.08602 -0.8786,-0.23621c-0.11041,0.06321 -0.23139,0.11005 -0.35963,0.13724c-0.18197,0.06411 -0.37773,0.09897 -0.58163,0.09897c-0.21143,0 -0.41411,-0.0375 -0.60174,-0.1062c-0.20783,0.40195 -0.62736,0.6767 -1.11107,0.6767c-0.69036,0 -1.25,-0.55964 -1.25,-1.25z" fill="#ffc72e" stroke="none" stroke-width="0.5"/><path d="M342.36709,228.64273c0,-0.64099 0.48246,-1.16929 1.10406,-1.24157c-0.45205,-0.31641 -0.74766,-0.84103 -0.74766,-1.43469c0,-0.9665 0.7835,-1.75 1.75,-1.75c0.9665,0 1.75,0.7835 1.75,1.75c0,0.9665 -0.7835,1.75 -1.75,1.75c-0.00571,0 -0.01142,-0.00002 -0.01711,-0.00008c0.25227,0.2287 0.41071,0.55902 0.41071,0.92634c0,0.69036 -0.55964,1.25 -1.25,1.25c-0.69036,0 -1.25,-0.55964 -1.25,-1.25z" fill="#ffc72e" stroke="none" stroke-width="0.5"/><path d="M297.79949,229.99721c0.9665,0 1.75,0.7835 1.75,1.75c0,0.9665 -0.7835,1.75 -1.75,1.75c-0.53678,0 -1.01712,-0.24167 -1.33813,-0.62215c-0.32101,0.38047 -0.80135,0.62215 -1.33813,0.62215c-0.9665,0 -1.75,-0.7835 -1.75,-1.75c0,-0.9665 0.7835,-1.75 1.75,-1.75c0.53678,0 1.01711,0.24168 1.33813,0.62215c0.32101,-0.38047 0.80135,-0.62215 1.33813,-0.62215z" fill="#f2bc49" stroke="none" stroke-width="0.5"/><path d="M303.93598,232.49656c0,-0.69036 0.55964,-1.25 1.25,-1.25c0.27335,0 0.52621,0.08774 0.73195,0.2366c0.06109,-0.40368 0.26009,-0.76211 0.54745,-1.02577c0.3199,-0.34867 0.77933,-0.56724 1.28981,-0.56724c0.9665,0 1.75,0.7835 1.75,1.75c0,0.51048 -0.21858,0.96991 -0.56724,1.28981c-0.3199,0.34867 -0.77933,0.56724 -1.28981,0.56724c-0.51031,0 -0.96959,-0.21842 -1.28947,-0.56687c-0.17633,0.47654 -0.63484,0.81623 -1.17269,0.81623c-0.69036,0 -1.25,-0.55964 -1.25,-1.25z" fill="#f2bc49" stroke="none" stroke-width="0.5"/><path d="M317.71088,229.56901c0.9665,0 1.75,0.7835 1.75,1.75c0,0.9665 -0.7835,1.75 -1.75,1.75c-0.63448,0 -1.19009,-0.33766 -1.49696,-0.84308c-0.26839,0.6219 -0.88711,1.05718 -1.6075,1.05718c-0.9665,0 -1.75,-0.7835 -1.75,-1.75c0,-0.9665 0.7835,-1.75 1.75,-1.75c0.63448,0 1.19009,0.33766 1.49696,0.84308c0.26839,-0.6219 0.88711,-1.05718 1.6075,-1.05718z" fill="#f2bc49" stroke="none" stroke-width="0.5"/><path d="M320.34995,231.1049c0,-0.9665 0.7835,-1.75 1.75,-1.75c0.9665,0 1.75,0.7835 1.75,1.75c0,0.9665 -0.7835,1.75 -1.75,1.75c-0.9665,0 -1.75,-0.7835 -1.75,-1.75z" fill="#f2bc49" stroke="none" stroke-width="0.5"/><path d="M327.41526,231.1049c0,-0.9665 0.7835,-1.75 1.75,-1.75c0.9665,0 1.75,0.7835 1.75,1.75c0,0.9665 -0.7835,1.75 -1.75,1.75c-0.9665,0 -1.75,-0.7835 -1.75,-1.75z" fill="#f2bc49" stroke="none" stroke-width="0.5"/><path d="M338.62033,234.20935c0,-0.33082 0.12851,-0.63162 0.33833,-0.85521c-0.2128,0.09204 -0.44749,0.14305 -0.6941,0.14305c-0.9665,0 -1.75,-0.7835 -1.75,-1.75c0,-0.9665 0.7835,-1.75 1.75,-1.75c0.42778,0 0.81972,0.15349 1.12373,0.40841c0.32101,-0.38068 0.80148,-0.6225 1.33843,-0.6225c0.9665,0 1.75,0.7835 1.75,1.75c0,0.9665 -0.7835,1.75 -1.75,1.75c-0.00571,0 -0.01141,-0.00003 -0.01711,-0.00009c0.25227,0.2287 0.41071,0.55902 0.41071,0.92634c0,0.69036 -0.55964,1.25 -1.25,1.25c-0.69036,0 -1.25,-0.55964 -1.25,-1.25zM339.603,232.87469c-0.04618,0.05477 -0.09566,0.10666 -0.14814,0.15537c0.08593,-0.03027 0.17616,-0.05142 0.26953,-0.06227c-0.04184,-0.02928 -0.08234,-0.06036 -0.12139,-0.0931z" fill="#f2bc49" stroke="none" stroke-width="0.5"/><path d="M345.65105,229.89014c0.9665,0 1.75,0.7835 1.75,1.75c0,0.9665 -0.7835,1.75 -1.75,1.75c-0.33299,0 -0.64426,-0.09301 -0.90924,-0.25446c-0.12092,0.02642 -0.24651,0.04036 -0.37536,0.04036c-0.9665,0 -1.75,-0.7835 -1.75,-1.75c0,-0.9665 0.7835,-1.75 1.75,-1.75c0.33299,0 0.64425,0.093 0.90924,0.25445c0.12092,-0.02642 0.24652,-0.04035 0.37537,-0.04035z" fill="#f2bc49" stroke="none" stroke-width="0.5"/><path d="M301.68791,220.07871c0,-0.69036 0.55964,-1.25 1.25,-1.25c0.69036,0 1.25,0.55964 1.25,1.25c0,0.69036 -0.55964,1.25 -1.25,1.25c-0.69036,0 -1.25,-0.55964 -1.25,-1.25z" fill="#ff9600" stroke="none" stroke-width="0.5"/><path d="M311.32246,220.5069c0,-0.69036 0.55964,-1.25 1.25,-1.25c0.69036,0 1.25,0.55964 1.25,1.25c0,0.69036 -0.55964,1.25 -1.25,1.25c-0.69036,0 -1.25,-0.55964 -1.25,-1.25z" fill="#ff9600" stroke="none" stroke-width="0.5"/><path d="M330.91269,220.5069c0,-0.69036 0.55964,-1.25 1.25,-1.25c0.69036,0 1.25,0.55964 1.25,1.25c0,0.69036 -0.55964,1.25 -1.25,1.25c-0.69036,0 -1.25,-0.55964 -1.25,-1.25z" fill="#ff9600" stroke="none" stroke-width="0.5"/><path d="M336.80047,221.7915c0,-0.69036 0.55964,-1.25 1.25,-1.25c0.69036,0 1.25,0.55964 1.25,1.25c0,0.69036 -0.55964,1.25 -1.25,1.25c-0.69036,0 -1.25,-0.55964 -1.25,-1.25z" fill="#ff9600" stroke="none" stroke-width="0.5"/><path d="M301.04561,228.74978c0,-0.69036 0.55964,-1.25 1.25,-1.25c0.69036,0 1.25,0.55964 1.25,1.25c0,0.69036 -0.55964,1.25 -1.25,1.25c-0.69036,0 -1.25,-0.55964 -1.25,-1.25z" fill="#ffc72e" stroke="none" stroke-width="0.5"/><path d="M317.53138,227.35814c0,-0.1411 0.02338,-0.27673 0.06647,-0.40324c-0.19722,0.07701 -0.41183,0.11928 -0.63632,0.11928c-0.37248,0 -0.71777,-0.11637 -1.00152,-0.31473c-0.30617,0.26291 -0.70428,0.42178 -1.13949,0.42178c-0.38732,0 -0.74524,-0.12582 -1.03514,-0.33882c-0.2268,0.23088 -0.54256,0.37408 -0.89177,0.37408c-0.13883,0 -0.27238,-0.02264 -0.39715,-0.06441c-0.22837,0.29941 -0.58887,0.49262 -0.9945,0.49262c-0.69036,0 -1.25,-0.55964 -1.25,-1.25c0,-0.69036 0.55964,-1.25 1.25,-1.25c0.13883,0 0.27238,0.02264 0.39715,0.06441c0.22837,-0.29941 0.58887,-0.49262 0.9945,-0.49262c0.10774,0 0.2123,0.01363 0.31204,0.03926c0.2643,-0.63113 0.88781,-1.07452 1.61487,-1.07452c0.37248,0 0.71777,0.11637 1.00151,0.31474c0.30617,-0.26291 0.70428,-0.42178 1.1395,-0.42178c0.9665,0 1.75,0.7835 1.75,1.75c0,0.29354 -0.07228,0.5702 -0.2,0.81316c0.08691,-0.01913 0.17721,-0.0292 0.26986,-0.0292c0.69036,0 1.25,0.55964 1.25,1.25c0,0.69036 -0.55964,1.25 -1.25,1.25c-0.69036,0 -1.25,-0.55964 -1.25,-1.25z" fill="#ffc72e" stroke="none" stroke-width="0.5"/><path d="M320.63585,228.10747c0,-0.69036 0.55964,-1.25 1.25,-1.25c0.69036,0 1.25,0.55964 1.25,1.25c0,0.69036 -0.55964,1.25 -1.25,1.25c-0.69036,0 -1.25,-0.55964 -1.25,-1.25z" fill="#ffc72e" stroke="none" stroke-width="0.5"/><path d="M325.02492,228.32158c0,-0.69036 0.55964,-1.25 1.25,-1.25c0.69036,0 1.25,0.55964 1.25,1.25c0,0.69036 -0.55964,1.25 -1.25,1.25c-0.69036,0 -1.25,-0.55964 -1.25,-1.25z" fill="#ffc72e" stroke="none" stroke-width="0.5"/><path d="M294.94372,236.13628c0,-0.69036 0.55964,-1.25 1.25,-1.25c0.69036,0 1.25,0.55964 1.25,1.25c0,0.69036 -0.55964,1.25 -1.25,1.25c-0.69036,0 -1.25,-0.55964 -1.25,-1.25z" fill="#f2bc49" stroke="none" stroke-width="0.5"/><path d="M301.36676,232.6036c0,-0.69036 0.55964,-1.25 1.25,-1.25c0.69036,0 1.25,0.55964 1.25,1.25c0,0.69036 -0.55964,1.25 -1.25,1.25c-0.69036,0 -1.25,-0.55964 -1.25,-1.25z" fill="#f2bc49" stroke="none" stroke-width="0.5"/><path d="M308.32504,234.10231c0,-0.69036 0.55964,-1.25 1.25,-1.25c0.69036,0 1.25,0.55964 1.25,1.25c0,0.69036 -0.55964,1.25 -1.25,1.25c-0.69036,0 -1.25,-0.55964 -1.25,-1.25z" fill="#f2bc49" stroke="none" stroke-width="0.5"/><path d="M310.7872,234.74462c0,-0.69036 0.55964,-1.25 1.25,-1.25c0.69036,0 1.25,0.55964 1.25,1.25c0,0.69036 -0.55964,1.25 -1.25,1.25c-0.69036,0 -1.25,-0.55964 -1.25,-1.25z" fill="#f2bc49" stroke="none" stroke-width="0.5"/><path d="M314.85512,235.27986c0,-0.69036 0.55964,-1.25 1.25,-1.25c0.69036,0 1.25,0.55964 1.25,1.25c0,0.69036 -0.55964,1.25 -1.25,1.25c-0.69036,0 -1.25,-0.55964 -1.25,-1.25z" fill="#f2bc49" stroke="none" stroke-width="0.5"/><path d="M321.3852,235.38691c0,-0.69036 0.55964,-1.25 1.25,-1.25c0.69036,0 1.25,0.55964 1.25,1.25c0,0.69036 -0.55964,1.25 -1.25,1.25c-0.69036,0 -1.25,-0.55964 -1.25,-1.25z" fill="#f2bc49" stroke="none" stroke-width="0.5"/><path d="M326.63067,234.10231c0,-0.69036 0.55964,-1.25 1.25,-1.25c0.69036,0 1.25,0.55964 1.25,1.25c0,0.69036 -0.55964,1.25 -1.25,1.25c-0.69036,0 -1.25,-0.55964 -1.25,-1.25z" fill="#f2bc49" stroke="none" stroke-width="0.5"/><path d="M332.69793,231.24656c0.69036,0 1.25,0.55964 1.25,1.25c0,0.69036 -0.55964,1.25 -1.25,1.25c-0.0544,0 -0.108,-0.00348 -0.16057,-0.01022c-0.05257,0.00674 -0.10617,0.01022 -0.16057,0.01022c-0.69036,0 -1.25,-0.55964 -1.25,-1.25c0,-0.69036 0.55964,-1.25 1.25,-1.25c0.0544,0 0.108,0.00348 0.16057,0.01022c0.05257,-0.00674 0.10617,-0.01022 0.16057,-0.01022z" fill="#f2bc49" stroke="none" stroke-width="0.5"/><path d="M341.08249,234.74462c0,-0.69036 0.55964,-1.25 1.25,-1.25c0.69036,0 1.25,0.55964 1.25,1.25c0,0.69036 -0.55964,1.25 -1.25,1.25c-0.69036,0 -1.25,-0.55964 -1.25,-1.25z" fill="#f2bc49" stroke="none" stroke-width="0.5"/><path d="M304.86418,223.50431c0,-0.41422 0.33578,-0.75 0.75,-0.75c0.41422,0 0.75,0.33578 0.75,0.75c0,0.41422 -0.33578,0.75 -0.75,0.75c-0.41422,0 -0.75,-0.33578 -0.75,-0.75z" fill="#ff9600" stroke="none" stroke-width="0.5"/><path d="M315.89036,221.89855c0,-0.41422 0.33578,-0.75 0.75,-0.75c0.41422,0 0.75,0.33578 0.75,0.75c0,0.41422 -0.33578,0.75 -0.75,0.75c-0.41422,0 -0.75,-0.33578 -0.75,-0.75z" fill="#ff9600" stroke="none" stroke-width="0.5"/><path d="M329.80692,223.82547c0,-0.41422 0.33578,-0.75 0.75,-0.75c0.41422,0 0.75,0.33578 0.75,0.75c0,0.41422 -0.33578,0.75 -0.75,0.75c-0.41422,0 -0.75,-0.33578 -0.75,-0.75z" fill="#ff9600" stroke="none" stroke-width="0.5"/><path d="M338.47802,224.57482c0,-0.41422 0.33578,-0.75 0.75,-0.75c0.41422,0 0.75,0.33578 0.75,0.75c0,0.41422 -0.33578,0.75 -0.75,0.75c-0.41422,0 -0.75,-0.33578 -0.75,-0.75z" fill="#ff9600" stroke="none" stroke-width="0.5"/><path d="M296.62129,228.85682c0,-0.41422 0.33578,-0.75 0.75,-0.75c0.41422,0 0.75,0.33578 0.75,0.75c0,0.41422 -0.33578,0.75 -0.75,0.75c-0.41422,0 -0.75,-0.33578 -0.75,-0.75z" fill="#ffc72e" stroke="none" stroke-width="0.5"/><path d="M313.00001,230.03439c0,-0.41422 0.33578,-0.75 0.75,-0.75c0.41422,0 0.75,0.33578 0.75,0.75c0,0.41422 -0.33578,0.75 -0.75,0.75c-0.41422,0 -0.75,-0.33578 -0.75,-0.75z" fill="#ffc72e" stroke="none" stroke-width="0.5"/><path d="M335.05241,230.03439c0,-0.41422 0.33578,-0.75 0.75,-0.75c0.41422,0 0.75,0.33578 0.75,0.75c0,0.41422 -0.33578,0.75 -0.75,0.75c-0.41422,0 -0.75,-0.33578 -0.75,-0.75z" fill="#ffc72e" stroke="none" stroke-width="0.5"/><path d="M339.22738,231.64014c0,-0.41422 0.33578,-0.75 0.75,-0.75c0.41422,0 0.75,0.33578 0.75,0.75c0,0.41422 -0.33578,0.75 -0.75,0.75c-0.41422,0 -0.75,-0.33578 -0.75,-0.75z" fill="#ffc72e" stroke="none" stroke-width="0.5"/><path d="M299.51165,237.31383c0,-0.41422 0.33578,-0.75 0.75,-0.75c0.41422,0 0.75,0.33578 0.75,0.75c0,0.41422 -0.33578,0.75 -0.75,0.75c-0.41422,0 -0.75,-0.33578 -0.75,-0.75z" fill="#f2bc49" stroke="none" stroke-width="0.5"/><path d="M302.29497,235.8151c0,-0.41422 0.33578,-0.75 0.75,-0.75c0.41422,0 0.75,0.33578 0.75,0.75c0,0.41422 -0.33578,0.75 -0.75,0.75c-0.41422,0 -0.75,-0.33578 -0.75,-0.75z" fill="#f2bc49" stroke="none" stroke-width="0.5"/><path d="M311.39426,237.84907c0,-0.41422 0.33578,-0.75 0.75,-0.75c0.41422,0 0.75,0.33578 0.75,0.75c0,0.41422 -0.33578,0.75 -0.75,0.75c-0.41422,0 -0.75,-0.33578 -0.75,-0.75z" fill="#f2bc49" stroke="none" stroke-width="0.5"/><path d="M315.67627,240.31124c0,-0.41422 0.33578,-0.75 0.75,-0.75c0.41422,0 0.75,0.33578 0.75,0.75c0,0.41422 -0.33578,0.75 -0.75,0.75c-0.41422,0 -0.75,-0.33578 -0.75,-0.75z" fill="#f2bc49" stroke="none" stroke-width="0.5"/><path d="M326.59542,238.49138c0,-0.41422 0.33578,-0.75 0.75,-0.75c0.41422,0 0.75,0.33578 0.75,0.75c0,0.41422 -0.33578,0.75 -0.75,0.75c-0.41422,0 -0.75,-0.33578 -0.75,-0.75z" fill="#f2bc49" stroke="none" stroke-width="0.5"/><path d="M336.22996,236.45743c0,-0.41422 0.33578,-0.75 0.75,-0.75c0.41422,0 0.75,0.33578 0.75,0.75c0,0.41422 -0.33578,0.75 -0.75,0.75c-0.41422,0 -0.75,-0.33578 -0.75,-0.75z" fill="#f2bc49" stroke="none" stroke-width="0.5"/><path d="M342.22479,239.02664c0,-0.41422 0.33578,-0.75 0.75,-0.75c0.41422,0 0.75,0.33578 0.75,0.75c0,0.41422 -0.33578,0.75 -0.75,0.75c-0.41422,0 -0.75,-0.33578 -0.75,-0.75z" fill="#f2bc49" stroke="none" stroke-width="0.5"/></g><path d="" fill="none" stroke="#000000" stroke-width="2" stroke-linecap="round"/><g><g><path d="M370.00527,127.36497l56.10684,-24.55017c0,0 -0.33995,35.19327 -4.03183,52.97478c-3.98377,19.18732 -19.06185,58.25297 -19.06185,58.25297l-29.78954,-23.30153z" fill="#f3ca58" stroke="#000000" stroke-width="0" stroke-linecap="round"/><path d="M376.79475,181.70737c9.1679,5.10967 17.40754,9.91136 17.40754,9.91136c0,0 -9.00786,-3.10709 -18.17574,-8.21676c-9.1679,-5.10967 -16.61503,-9.33022 -15.93105,-10.55742c0.68396,-1.2272 7.53136,3.75315 16.69925,8.86282z" fill="#ff9600" stroke="#000000" stroke-width="0" stroke-linecap="butt"/><path d="M371.21246,161.68605c0.09625,-1.40162 8.41261,0.1887 18.8836,0.90782c10.47099,0.71913 19.97097,1.55489 19.97097,1.55489c0,0 -9.4734,1.02462 -19.94441,0.30549c-10.471,-0.71912 -19.00643,-1.36658 -18.91017,-2.7682z" fill="#ff9600" stroke="#000000" stroke-width="0" stroke-linecap="butt"/><g stroke="#000000" stroke-width="0" stroke-linecap="round"><g fill="#f2bc49"><path d="M370.24497,132.07731c-0.12451,-2.44781 -0.23969,-4.71235 -0.23969,-4.71235l56.10684,-24.55017c0,0 -0.12873,13.32674 -1.08804,27.72211c-0.02064,0.30953 -54.77635,1.59465 -54.7791,1.54043z"/></g><g fill="#ffc72e"><path d="M370.00527,127.36497l56.10684,-24.55017c0,0 -0.09962,10.31334 -0.77668,22.59481c-0.00141,0.02559 -55.33016,1.95537 -55.33016,1.95537z"/></g><g fill="#ff9600"><path d="M396.999,115.55355c9.52102,-4.16603 29.11313,-12.73878 29.11313,-12.73878c0,0 0.10007,2.95463 -0.01374,6.71598c-0.04173,1.37913 -0.27417,2.8719 -0.32012,4.35985c-0.00041,0.0129 -28.95863,1.74141 -28.77927,1.66293z"/></g></g><path d="M423.46614,115.83234c-0.966,0.03089 -1.77414,-0.72718 -1.80502,-1.69319c-0.03089,-0.966 0.72718,-1.77414 1.69319,-1.80502c0.966,-0.03089 1.77414,0.72718 1.80502,1.69319c0.03089,0.966 -0.72718,1.77414 -1.69319,1.80502z" fill="#ff9600" stroke="none" stroke-width="0.5" stroke-linecap="butt"/><path d="M419.75361,116.88758c-0.64248,0.02053 -1.21514,-0.30793 -1.53573,-0.81443c-0.19609,0.72309 -0.8456,1.26518 -1.63338,1.29036c-0.23159,0.00741 -0.45409,-0.03054 -0.65898,-0.10581c-0.19967,0.08821 -0.4193,0.14028 -0.65087,0.14769c-0.966,0.03089 -1.77414,-0.72718 -1.80502,-1.69319c-0.03089,-0.966 0.72718,-1.77414 1.69319,-1.80502c0.23159,-0.00741 0.45409,0.03054 0.65898,0.10581c0.19967,-0.08821 0.4193,-0.14028 0.65087,-0.14769c0.64249,-0.02054 1.21514,0.30793 1.53574,0.81444c0.19609,-0.72309 0.84559,-1.26519 1.63337,-1.29037c0.966,-0.03089 1.77414,0.72718 1.80502,1.69319c0.03089,0.966 -0.72718,1.77414 -1.69319,1.80502z" fill="#ff9600" stroke="none" stroke-width="0.5" stroke-linecap="butt"/><path d="M411.68944,116.58341c-0.966,0.03089 -1.77414,-0.72718 -1.80502,-1.69319c-0.03089,-0.966 0.72718,-1.77414 1.69319,-1.80502c0.966,-0.03089 1.77414,0.72718 1.80502,1.69319c0.03089,0.966 -0.72718,1.77414 -1.69319,1.80502z" fill="#ff9600" stroke="none" stroke-width="0.5" stroke-linecap="butt"/><path d="M405.66093,115.83507c-0.04,-0.13787 -0.06356,-0.28294 -0.06837,-0.43304c-0.03089,-0.966 0.72718,-1.77414 1.69319,-1.80502c0.966,-0.03089 1.77414,0.72718 1.80502,1.69319c0.03089,0.966 -0.72718,1.77414 -1.69319,1.80502c-0.15009,0.00479 -0.29637,-0.00947 -0.43652,-0.04056c0.01624,0.68533 -0.52324,1.25681 -1.20972,1.27875c-0.68999,0.02206 -1.26723,-0.51943 -1.28929,-1.20943c-0.02194,-0.68648 0.51391,-1.26135 1.19889,-1.28892z" fill="#ff9600" stroke="none" stroke-width="0.5" stroke-linecap="butt"/><path d="M402.53245,117.25076c-0.966,0.03089 -1.77414,-0.72718 -1.80502,-1.69319c-0.03089,-0.966 0.72718,-1.77414 1.69319,-1.80502c0.966,-0.03089 1.77414,0.72718 1.80502,1.69319c0.03089,0.966 -0.72718,1.77414 -1.69319,1.80502z" fill="#ff9600" stroke="none" stroke-width="0.5" stroke-linecap="butt"/><path d="M422.68203,120.6019c-0.69,0.02206 -1.26723,-0.51943 -1.28929,-1.20943c-0.02206,-0.68999 0.51942,-1.26724 1.20943,-1.28929c0.69,-0.02206 1.26723,0.51943 1.28929,1.20943c0.02206,0.68999 -0.51942,1.26724 -1.20943,1.28929z" fill="#ff9600" stroke="none" stroke-width="0.5" stroke-linecap="butt"/><path d="M415.82433,122.88158c-0.69,0.02206 -1.26723,-0.51943 -1.28929,-1.20943c-0.02206,-0.68999 0.51942,-1.26724 1.20943,-1.28929c0.69,-0.02206 1.26723,0.51943 1.28929,1.20943c0.02206,0.68999 -0.51942,1.26724 -1.20943,1.28929z" fill="#ff9600" stroke="none" stroke-width="0.5" stroke-linecap="butt"/><path d="M411.77514,119.26473c-0.68999,0.02206 -1.26723,-0.51943 -1.28929,-1.20943c-0.02206,-0.68999 0.51943,-1.26723 1.20943,-1.28929c0.69,-0.02206 1.26723,0.51943 1.28929,1.20943c0.02206,0.68999 -0.51942,1.26724 -1.20943,1.28929z" fill="#ff9600" stroke="none" stroke-width="0.5" stroke-linecap="butt"/><path d="M396.38931,118.44538c-0.69,0.02206 -1.26723,-0.51943 -1.28929,-1.20943c-0.02206,-0.68999 0.51942,-1.26724 1.20943,-1.28929c0.69,-0.02206 1.26723,0.51943 1.28929,1.20943c0.02206,0.68999 -0.51942,1.26724 -1.20943,1.28929z" fill="#ff9600" stroke="none" stroke-width="0.5" stroke-linecap="butt"/><path d="M392.36833,121.57093c-0.69,0.02206 -1.26723,-0.51943 -1.28929,-1.20943c-0.02206,-0.68999 0.51942,-1.26724 1.20943,-1.28929c0.69,-0.02206 1.26723,0.51943 1.28929,1.20943c0.02206,0.68999 -0.51942,1.26724 -1.20943,1.28929z" fill="#ff9600" stroke="none" stroke-width="0.5" stroke-linecap="butt"/><path d="M423.21321,127.64113c-0.966,0.03089 -1.77414,-0.72718 -1.80502,-1.69319c-0.03089,-0.966 0.72718,-1.77414 1.69319,-1.80502c0.966,-0.03089 1.77414,0.72718 1.80502,1.69319c0.03089,0.966 -0.72718,1.77414 -1.69319,1.80502z" fill="#ffc72e" stroke="none" stroke-width="0.5" stroke-linecap="butt"/><path d="M417.94389,126.87301c-0.966,0.03089 -1.77414,-0.72718 -1.80502,-1.69319c-0.03089,-0.966 0.72718,-1.77414 1.69319,-1.80502c0.966,-0.03089 1.77414,0.72718 1.80502,1.69319c0.03089,0.966 -0.72718,1.77414 -1.69319,1.80502z" fill="#ffc72e" stroke="none" stroke-width="0.5" stroke-linecap="butt"/><path d="M409.9257,124.8757c0.19798,-0.08651 0.4154,-0.13754 0.6445,-0.14488c0.50758,-0.01623 0.97157,0.18536 1.30213,0.52051c0.00854,-0.0004 0.01709,-0.00073 0.02567,-0.00101c0.966,-0.03089 1.77414,0.72718 1.80502,1.69319c0.03089,0.966 -0.72718,1.77414 -1.69319,1.80502c-0.50758,0.01623 -0.97157,-0.18536 -1.30213,-0.52051c-0.00854,0.0004 -0.01709,0.00073 -0.02567,0.00101c-0.47589,0.01521 -0.91346,-0.16104 -1.23866,-0.45931c-0.19799,0.08651 -0.4154,0.13754 -0.6445,0.14488c-0.966,0.03089 -1.77414,-0.72718 -1.80502,-1.69319c-0.03089,-0.966 0.72718,-1.77414 1.69319,-1.80502c0.47589,-0.01521 0.91346,0.16104 1.23867,0.45931z" fill="#ffc72e" stroke="none" stroke-width="0.5" stroke-linecap="butt"/><path d="M399.39349,129.34775c-0.69,0.02206 -1.26723,-0.51943 -1.28929,-1.20943c-0.01892,-0.5918 0.37672,-1.10065 0.92503,-1.24742c-0.28519,-0.30028 -0.4655,-0.70234 -0.47979,-1.14882c-0.03089,-0.966 0.72718,-1.77414 1.69319,-1.80502c0.53466,-0.01709 1.02096,0.20749 1.35389,0.57525c0.29558,-0.49416 0.82867,-0.83235 1.44697,-0.85212c0.966,-0.03089 1.77414,0.72718 1.80502,1.69319c0.03089,0.966 -0.72718,1.77414 -1.69319,1.80502c-0.53466,0.01709 -1.02095,-0.2075 -1.35388,-0.57526c-0.28642,0.47885 -0.79588,0.81124 -1.38976,0.84935c0.11464,0.18181 0.18386,0.39557 0.19122,0.62592c0.02206,0.68999 -0.51942,1.26724 -1.20943,1.28929z" fill="#ffc72e" stroke="none" stroke-width="0.5" stroke-linecap="butt"/><path d="M396.05066,127.57286c-0.966,0.03089 -1.77414,-0.72718 -1.80502,-1.69319c-0.03089,-0.966 0.72718,-1.77414 1.69319,-1.80502c0.966,-0.03089 1.77414,0.72718 1.80502,1.69319c0.03089,0.966 -0.72718,1.77414 -1.69319,1.80502z" fill="#ffc72e" stroke="none" stroke-width="0.5" stroke-linecap="butt"/><path d="M385.3227,127.54434c-0.02286,-0.04004 -0.04418,-0.0811 -0.06389,-0.1231c-0.3065,0.4257 -0.80025,0.70947 -1.36509,0.72752c-0.6347,0.02029 -1.20124,-0.29999 -1.52394,-0.79606c-0.29037,0.51569 -0.83531,0.87148 -1.46999,0.89177c-0.56484,0.01805 -1.07569,-0.23361 -1.40877,-0.63886c-0.24819,0.63059 -0.85289,1.08579 -1.57323,1.10881c-0.966,0.03089 -1.77414,-0.72718 -1.80502,-1.69319c-0.03089,-0.966 0.72718,-1.77414 1.69319,-1.80502c0.56484,-0.01805 1.07568,0.23363 1.40876,0.63886c0.24819,-0.63059 0.85289,-1.08579 1.57323,-1.10881c0.6347,-0.02029 1.20124,0.3 1.52393,0.79607c0.29037,-0.51569 0.83531,-0.87149 1.47,-0.89179c0.72034,-0.02302 1.35289,0.39263 1.64083,1.00608c0.3065,-0.4257 0.80024,-0.70947 1.36509,-0.72752c0.71492,-0.02284 1.3434,0.38641 1.6343,0.99232c0.30423,-0.30878 0.72302,-0.50573 1.19047,-0.52068c0.966,-0.03089 1.77414,0.72718 1.80502,1.69319c0.03089,0.966 -0.72718,1.77414 -1.69319,1.80502c-0.71493,0.02284 -1.3434,-0.38641 -1.6343,-0.99232c-0.10722,0.10881 -0.22867,0.20376 -0.36146,0.28174c-0.09905,0.57213 -0.58867,1.01554 -1.19177,1.03483c-0.69,0.02206 -1.26723,-0.51943 -1.28929,-1.20943c-0.00527,-0.16494 0.02165,-0.32343 0.07511,-0.46943z" fill="#ffc72e" stroke="none" stroke-width="0.5" stroke-linecap="butt"/><path d="M423.18162,132.51228c-0.966,0.03089 -1.77414,-0.72718 -1.80502,-1.69319c-0.03089,-0.966 0.72718,-1.77414 1.69319,-1.80502c0.966,-0.03089 1.77414,0.72718 1.80502,1.69319c0.03089,0.966 -0.72718,1.77414 -1.69319,1.80502z" fill="#f2bc49" stroke="none" stroke-width="0.5" stroke-linecap="butt"/><path d="M415.6175,130.27282c0.26508,-0.18027 0.58282,-0.28992 0.92695,-0.30091c0.51435,-0.01644 0.98393,0.19078 1.31528,0.53397c0.16562,-0.76658 0.83538,-1.35198 1.65475,-1.37816c0.966,-0.03089 1.77414,0.72718 1.80502,1.69319c0.03089,0.966 -0.72718,1.77414 -1.69319,1.80502c-0.51435,0.01644 -0.98394,-0.19078 -1.31529,-0.53398c-0.16562,0.76658 -0.83538,1.35198 -1.65475,1.37816c-0.34412,0.011 -0.6682,-0.07812 -0.94428,-0.24111c-0.26508,0.18027 -0.58281,0.28992 -0.92694,0.30092c-0.966,0.03089 -1.77414,-0.72718 -1.80502,-1.69319c-0.03089,-0.966 0.72718,-1.77414 1.69319,-1.80502c0.34412,-0.011 0.66819,0.07812 0.94427,0.2411z" fill="#f2bc49" stroke="none" stroke-width="0.5" stroke-linecap="butt"/><path d="M410.28219,133.29925c-0.966,0.03089 -1.77414,-0.72718 -1.80502,-1.69319c-0.03089,-0.966 0.72718,-1.77414 1.69319,-1.80502c0.966,-0.03089 1.77414,0.72718 1.80502,1.69319c0.03089,0.966 -0.72718,1.77414 -1.69319,1.80502z" fill="#f2bc49" stroke="none" stroke-width="0.5" stroke-linecap="butt"/><path d="M404.70391,130.05413c0.3083,-0.40079 0.78699,-0.66544 1.33183,-0.68287c0.966,-0.03089 1.77414,0.72718 1.80502,1.69319c0.03089,0.966 -0.72718,1.77414 -1.69319,1.80502c-0.18069,0.00578 -0.35586,-0.01605 -0.52144,-0.06168c-0.3083,0.40079 -0.78699,0.66544 -1.33183,0.68287c-0.966,0.03089 -1.77414,-0.72718 -1.80502,-1.69319c-0.03089,-0.966 0.72718,-1.77414 1.69319,-1.80502c0.1807,-0.00578 0.35586,0.01605 0.52145,0.06168z" fill="#f2bc49" stroke="none" stroke-width="0.5" stroke-linecap="butt"/><path d="M397.84265,133.10868c-0.09803,0.0204 -0.19917,0.03265 -0.30268,0.03595c-0.56797,0.01816 -1.08137,-0.23641 -1.41429,-0.64564c-0.30581,0.32116 -0.73311,0.52697 -1.21139,0.54228c-0.47827,0.01528 -0.91784,-0.16282 -1.24355,-0.4638c-0.30611,0.42966 -0.8022,0.71651 -1.37016,0.73467c-0.966,0.03089 -1.77414,-0.72718 -1.80502,-1.69319c-0.03089,-0.966 0.72718,-1.77414 1.69319,-1.80502c0.47828,-0.01529 0.91784,0.16282 1.24355,0.4638c0.30611,-0.42966 0.8022,-0.71651 1.37017,-0.73467c0.56797,-0.01816 1.08137,0.23641 1.4143,0.64565c0.30581,-0.32116 0.73311,-0.52697 1.21138,-0.54228c0.71492,-0.02284 1.3434,0.38641 1.6343,0.99232c0.30423,-0.30878 0.72302,-0.50574 1.19047,-0.52069c0.966,-0.03089 1.77414,0.72718 1.80502,1.69319c0.03089,0.966 -0.72718,1.77414 -1.69319,1.80502c-0.0802,0.00256 -0.15931,-0.00031 -0.23698,-0.0083c-0.21541,0.3309 -0.58376,0.55467 -1.00832,0.56825c-0.64194,0.02052 -1.18628,-0.44672 -1.27676,-1.06755z" fill="#f2bc49" stroke="none" stroke-width="0.5" stroke-linecap="butt"/><path d="M388.54017,132.87038c-0.966,0.03089 -1.77414,-0.72718 -1.80502,-1.69319c-0.03089,-0.966 0.72718,-1.77414 1.69319,-1.80502c0.966,-0.03089 1.77414,0.72718 1.80502,1.69319c0.03089,0.966 -0.72718,1.77414 -1.69319,1.80502z" fill="#f2bc49" stroke="none" stroke-width="0.5" stroke-linecap="butt"/><path d="M385.0088,133.73253c-0.966,0.03089 -1.77414,-0.72718 -1.80502,-1.69319c-0.03089,-0.966 0.72718,-1.77414 1.69319,-1.80502c0.966,-0.03089 1.77414,0.72718 1.80502,1.69319c0.03089,0.966 -0.72718,1.77414 -1.69319,1.80502z" fill="#f2bc49" stroke="none" stroke-width="0.5" stroke-linecap="butt"/><path d="M419.01134,129.89877c-0.68999,0.02206 -1.26723,-0.51943 -1.28929,-1.20943c-0.02206,-0.68999 0.51943,-1.26723 1.20943,-1.28929c0.69,-0.02206 1.26723,0.51943 1.28929,1.20943c0.02206,0.68999 -0.51942,1.26724 -1.20943,1.28929z" fill="#ffc72e" stroke="none" stroke-width="0.5" stroke-linecap="butt"/><path d="M405.79612,128.60755c-0.69,0.02206 -1.26723,-0.51943 -1.28929,-1.20943c-0.02206,-0.68999 0.51942,-1.26724 1.20943,-1.28929c0.68999,-0.02206 1.26723,0.51943 1.28929,1.20943c0.02206,0.68999 -0.51943,1.26723 -1.20943,1.28929z" fill="#ffc72e" stroke="none" stroke-width="0.5" stroke-linecap="butt"/><path d="M392.99084,130.08794c-0.69,0.02206 -1.26723,-0.51943 -1.28929,-1.20943c-0.02206,-0.68999 0.51942,-1.26724 1.20943,-1.28929c0.69,-0.02206 1.26723,0.51943 1.28929,1.20943c0.02206,0.68999 -0.51942,1.26724 -1.20943,1.28929z" fill="#ffc72e" stroke="none" stroke-width="0.5" stroke-linecap="butt"/><path d="M419.48185,137.91662c-0.69,0.02206 -1.26723,-0.51943 -1.28929,-1.20943c-0.02206,-0.68999 0.51942,-1.26724 1.20943,-1.28929c0.69,-0.02206 1.26723,0.51943 1.28929,1.20943c0.02206,0.68999 -0.51942,1.26724 -1.20943,1.28929z" fill="#f2bc49" stroke="none" stroke-width="0.5" stroke-linecap="butt"/><path d="M414.47016,138.61234c-0.68999,0.02206 -1.26724,-0.51942 -1.28929,-1.20943c-0.02206,-0.68999 0.51943,-1.26723 1.20943,-1.28929c0.69,-0.02206 1.26724,0.51942 1.28929,1.20943c0.02206,0.69 -0.51942,1.26724 -1.20943,1.28929z" fill="#f2bc49" stroke="none" stroke-width="0.5" stroke-linecap="butt"/><path d="M410.18347,138.53518c-0.68999,0.02206 -1.26724,-0.51942 -1.28929,-1.20943c-0.02206,-0.68999 0.51943,-1.26723 1.20943,-1.28929c0.69,-0.02206 1.26724,0.51942 1.28929,1.20943c0.02206,0.69 -0.51942,1.26724 -1.20943,1.28929z" fill="#f2bc49" stroke="none" stroke-width="0.5" stroke-linecap="butt"/><path d="M400.49228,136.91708c-0.69,0.02206 -1.26723,-0.51943 -1.28929,-1.20943c-0.02206,-0.68999 0.51942,-1.26724 1.20943,-1.28929c0.69,-0.02206 1.26723,0.51943 1.28929,1.20943c0.02206,0.68999 -0.51942,1.26724 -1.20943,1.28929z" fill="#f2bc49" stroke="none" stroke-width="0.5" stroke-linecap="butt"/><path d="M394.45606,135.71768c-0.69,0.02206 -1.26723,-0.51943 -1.28929,-1.20943c-0.02206,-0.68999 0.51942,-1.26724 1.20943,-1.28929c0.69,-0.02206 1.26723,0.51943 1.28929,1.20943c0.02206,0.68999 -0.51942,1.26724 -1.20943,1.28929z" fill="#f2bc49" stroke="none" stroke-width="0.5" stroke-linecap="butt"/><path d="M390.33112,137.34899c-0.69,0.02206 -1.26723,-0.51943 -1.28929,-1.20943c-0.02206,-0.68999 0.51942,-1.26724 1.20943,-1.28929c0.69,-0.02206 1.26723,0.51943 1.28929,1.20943c0.02206,0.68999 -0.51942,1.26724 -1.20943,1.28929z" fill="#f2bc49" stroke="none" stroke-width="0.5" stroke-linecap="butt"/><path d="M387.43195,137.12037c-0.69,0.02206 -1.26723,-0.51943 -1.28929,-1.20943c-0.02206,-0.68999 0.51942,-1.26724 1.20943,-1.28929c0.69,-0.02206 1.26723,0.51943 1.28929,1.20943c0.02206,0.68999 -0.51942,1.26724 -1.20943,1.28929z" fill="#f2bc49" stroke="none" stroke-width="0.5" stroke-linecap="butt"/><path d="M417.5424,140.90574c-0.41401,0.01324 -0.76034,-0.31164 -0.77358,-0.72566c-0.01324,-0.41401 0.31164,-0.76034 0.72566,-0.77358c0.41401,-0.01324 0.76034,0.31164 0.77358,0.72566c0.01324,0.41401 -0.31164,0.76034 -0.72566,0.77358z" fill="#f2bc49" stroke="none" stroke-width="0.5" stroke-linecap="butt"/><path d="M409.13762,142.67388c-0.41401,0.01324 -0.76034,-0.31164 -0.77358,-0.72566c-0.01324,-0.41401 0.31164,-0.76034 0.72566,-0.77358c0.41401,-0.01324 0.76034,0.31164 0.77358,0.72566c0.01324,0.41401 -0.31164,0.76034 -0.72566,0.77358z" fill="#f2bc49" stroke="none" stroke-width="0.5" stroke-linecap="butt"/><path d="M395.69378,144.2818c-0.41401,0.01324 -0.76034,-0.31164 -0.77358,-0.72566c-0.01324,-0.41401 0.31164,-0.76034 0.72566,-0.77358c0.41401,-0.01324 0.76034,0.31164 0.77358,0.72566c0.01324,0.41401 -0.31164,0.76034 -0.72566,0.77358z" fill="#f2bc49" stroke="none" stroke-width="0.5" stroke-linecap="butt"/><path d="M415.61938,131.00644c-0.41401,0.01324 -0.76034,-0.31165 -0.77358,-0.72566c-0.01324,-0.414 0.31164,-0.76034 0.72566,-0.77358c0.41401,-0.01324 0.76034,0.31165 0.77358,0.72566c0.01324,0.414 -0.31164,0.76034 -0.72566,0.77358z" fill="#ffc72e" stroke="none" stroke-width="0.5" stroke-linecap="butt"/><path d="M399.1386,131.42615c-0.41401,0.01324 -0.76034,-0.31165 -0.77358,-0.72566c-0.01324,-0.414 0.31164,-0.76034 0.72566,-0.77358c0.41401,-0.01324 0.76034,0.31165 0.77358,0.72566c0.01324,0.414 -0.31164,0.76034 -0.72566,0.77358z" fill="#ffc72e" stroke="none" stroke-width="0.5" stroke-linecap="butt"/><path d="M384.76011,130.60052c-0.41401,0.01324 -0.76034,-0.31165 -0.77358,-0.72566c-0.01324,-0.414 0.31164,-0.76034 0.72566,-0.77358c0.41401,-0.01324 0.76034,0.31165 0.77358,0.72566c0.01324,0.414 -0.31164,0.76034 -0.72566,0.77358z" fill="#ffc72e" stroke="none" stroke-width="0.5" stroke-linecap="butt"/><path d="M361.12649,147.47642c-0.66873,-1.23556 7.20767,-4.34248 16.43806,-9.33836c9.23038,-4.99589 17.70288,-9.37364 17.70288,-9.37364c0,0 -7.45451,5.93513 -16.6849,10.93101c-9.23038,4.99588 -16.78731,9.01655 -17.45605,7.78099z" fill="#ff9600" stroke="#000000" stroke-width="0" stroke-linecap="butt"/></g><g><path d="M267.90263,194.1079l-28.2405,25.15655c0,0 -17.54233,-38.02289 -22.7434,-56.91661c-4.82002,-17.50942 -7.40698,-52.60913 -7.40698,-52.60913l57.56025,20.91665z" fill="#f3ca58" stroke="#000000" stroke-width="0" stroke-linecap="round"/><path d="M279.8662,175.4092c0.76095,1.181 -6.40142,5.86857 -15.22425,11.55334c-8.82282,5.68477 -17.61386,9.36083 -17.61386,9.36083c0,0 7.91617,-5.31814 16.73901,-11.00291c8.82283,-5.68478 15.33815,-11.09228 16.09911,-9.91127z" fill="#ff9600" stroke="#000000" stroke-width="0" stroke-linecap="butt"/><path d="M268.0593,164.98348c0.18558,1.39262 -8.29108,2.58387 -18.69475,3.9703c-10.40369,1.38642 -19.92318,0.96892 -19.92318,0.96892c0,0 9.42723,-1.44079 19.83089,-2.82721c10.40369,-1.38642 18.60149,-3.50464 18.78706,-2.11202z" fill="#ff9600" stroke="#000000" stroke-width="0" stroke-linecap="butt"/><g stroke="#000000" stroke-width="0" stroke-linecap="round"><g fill="#f2bc49"><path d="M212.36812,137.33474c-1.87675,-14.30472 -2.85637,-27.59603 -2.85637,-27.59603l57.56025,20.91665c0,0 0.02968,2.26729 0.06176,4.71804c0.00071,0.05427 -54.7253,2.26893 -54.76564,1.96132z"/></g><g fill="#ffc72e"><path d="M211.72993,132.2378c-1.46007,-12.21317 -2.21817,-22.49908 -2.21817,-22.49908l57.56025,20.91665c0,0 -55.33905,1.60787 -55.34209,1.58242z"/></g><g fill="#ff9600"><path d="M210.55231,120.77065c-0.1409,-1.482 -0.4682,-2.95687 -0.59792,-4.3305c-0.3538,-3.74641 -0.44264,-6.70139 -0.44264,-6.70139c0,0 20.09963,7.30395 29.86729,10.85338c0.18401,0.06686 -28.82551,0.19137 -28.82673,0.17852z"/></g></g><path d="M211.17872,120.8675c-0.03089,-0.966 0.72718,-1.77414 1.69319,-1.80502c0.966,-0.03089 1.77414,0.72718 1.80502,1.69319c0.03089,0.966 -0.72718,1.77414 -1.69319,1.80502c-0.966,0.03089 -1.77414,-0.72718 -1.80502,-1.69319z" fill="#ff9600" stroke="none" stroke-width="0.5" stroke-linecap="butt"/><path d="M214.95106,121.68348c-0.03089,-0.966 0.72718,-1.77414 1.69319,-1.80502c0.78778,-0.02518 1.47057,0.47434 1.71245,1.18342c0.28758,-0.52594 0.83809,-0.89034 1.48059,-0.91086c0.23159,-0.00741 0.45409,0.03054 0.65898,0.10581c0.19967,-0.08821 0.4193,-0.14028 0.65087,-0.14769c0.966,-0.03089 1.77414,0.72718 1.80502,1.69319c0.03089,0.966 -0.72718,1.77414 -1.69319,1.80502c-0.23159,0.00741 -0.45409,-0.03054 -0.65898,-0.10581c-0.19967,0.08821 -0.4193,0.14028 -0.65087,0.14769c-0.78778,0.02518 -1.47057,-0.47433 -1.71245,-1.18341c-0.28758,0.52594 -0.83809,0.89033 -1.48059,0.91085c-0.966,0.03089 -1.77414,-0.72718 -1.80502,-1.69319z" fill="#ff9600" stroke="none" stroke-width="0.5" stroke-linecap="butt"/><path d="M222.97935,120.86492c-0.03089,-0.966 0.72718,-1.77414 1.69319,-1.80502c0.966,-0.03089 1.77414,0.72718 1.80502,1.69319c0.03089,0.966 -0.72718,1.77414 -1.69319,1.80502c-0.966,0.03089 -1.77414,-0.72718 -1.80502,-1.69319z" fill="#ff9600" stroke="none" stroke-width="0.5" stroke-linecap="butt"/><path d="M232.03151,122.636c0.02206,0.68999 -0.51942,1.26724 -1.20943,1.28929c-0.68648,0.02194 -1.26135,-0.51391 -1.28893,-1.19889c-0.13787,0.04 -0.28294,0.06356 -0.43304,0.06837c-0.966,0.03089 -1.77414,-0.72718 -1.80502,-1.69319c-0.03089,-0.966 0.72718,-1.77414 1.69319,-1.80502c0.966,-0.03089 1.77414,0.72718 1.80502,1.69319c0.00479,0.15009 -0.00946,0.29637 -0.04056,0.43652c0.68533,-0.01624 1.2568,0.52323 1.27874,1.20972z" fill="#ff9600" stroke="none" stroke-width="0.5" stroke-linecap="butt"/><path d="M232.16025,120.94606c-0.03089,-0.966 0.72718,-1.77414 1.69319,-1.80502c0.966,-0.03089 1.77414,0.72718 1.80502,1.69319c0.03089,0.966 -0.72718,1.77414 -1.69319,1.80502c-0.966,0.03089 -1.77414,-0.72718 -1.80502,-1.69319z" fill="#ff9600" stroke="none" stroke-width="0.5" stroke-linecap="butt"/><path d="M212.78157,126.06105c-0.02206,-0.68999 0.51942,-1.26724 1.20943,-1.28929c0.69,-0.02206 1.26723,0.51943 1.28929,1.20943c0.02206,0.68999 -0.51942,1.26724 -1.20943,1.28929c-0.69,0.02206 -1.26723,-0.51943 -1.28929,-1.20943z" fill="#ff9600" stroke="none" stroke-width="0.5" stroke-linecap="butt"/><path d="M219.77086,127.89806c-0.02206,-0.68999 0.51942,-1.26724 1.20943,-1.28929c0.69,-0.02206 1.26723,0.51943 1.28929,1.20943c0.02206,0.68999 -0.51942,1.26724 -1.20943,1.28929c-0.69,0.02206 -1.26723,-0.51943 -1.28929,-1.20943z" fill="#ff9600" stroke="none" stroke-width="0.5" stroke-linecap="butt"/><path d="M223.58079,124.02999c-0.02206,-0.68999 0.51942,-1.26724 1.20943,-1.28929c0.69,-0.02206 1.26723,0.51943 1.28929,1.20943c0.02206,0.68999 -0.51942,1.26724 -1.20943,1.28929c-0.69,0.02206 -1.26723,-0.51943 -1.28929,-1.20943z" fill="#ff9600" stroke="none" stroke-width="0.5" stroke-linecap="butt"/><path d="M238.88287,122.22967c-0.02206,-0.69 0.51942,-1.26724 1.20943,-1.28929c0.69,-0.02206 1.26724,0.51942 1.28929,1.20943c0.02206,0.69 -0.51942,1.26724 -1.20943,1.28929c-0.69,0.02206 -1.26724,-0.51942 -1.28929,-1.20943z" fill="#ff9600" stroke="none" stroke-width="0.5" stroke-linecap="butt"/><path d="M243.09525,125.09201c-0.02206,-0.69 0.51942,-1.26724 1.20943,-1.28929c0.69,-0.02206 1.26724,0.51942 1.28929,1.20943c0.02206,0.69 -0.51942,1.26724 -1.20943,1.28929c-0.69,0.02206 -1.26724,-0.51942 -1.28929,-1.20943z" fill="#ff9600" stroke="none" stroke-width="0.5" stroke-linecap="butt"/><path d="M212.18532,132.63606c-0.03089,-0.966 0.72718,-1.77414 1.69319,-1.80502c0.966,-0.03089 1.77414,0.72718 1.80502,1.69319c0.03089,0.966 -0.72718,1.77414 -1.69319,1.80502c-0.966,0.03089 -1.77414,-0.72718 -1.80502,-1.69319z" fill="#ffc72e" stroke="none" stroke-width="0.5" stroke-linecap="butt"/><path d="M217.39482,131.53295c-0.03089,-0.966 0.72718,-1.77414 1.69319,-1.80502c0.966,-0.03089 1.77414,0.72718 1.80502,1.69319c0.03089,0.966 -0.72718,1.77414 -1.69319,1.80502c-0.966,0.03089 -1.77414,-0.72718 -1.80502,-1.69319z" fill="#ffc72e" stroke="none" stroke-width="0.5" stroke-linecap="butt"/><path d="M228.28091,130.18332c0.966,-0.03089 1.77414,0.72718 1.80502,1.69319c0.03089,0.966 -0.72718,1.77414 -1.69319,1.80502c-0.22912,0.00732 -0.44935,-0.02975 -0.65244,-0.10342c-0.30551,0.31842 -0.73092,0.52228 -1.20682,0.53748c-0.00858,0.00027 -0.01714,0.00049 -0.02568,0.00064c-0.30848,0.35556 -0.75864,0.58638 -1.26622,0.60261c-0.966,0.03089 -1.77414,-0.72718 -1.80502,-1.69319c-0.03089,-0.966 0.72718,-1.77414 1.69319,-1.80502c0.00858,-0.00027 0.01714,-0.00049 0.02568,-0.00064c0.30848,-0.35556 0.75864,-0.58638 1.26622,-0.60261c0.22912,-0.00732 0.44935,0.02975 0.65244,0.10342c0.30551,-0.31842 0.73092,-0.52228 1.20682,-0.53748z" fill="#ffc72e" stroke="none" stroke-width="0.5" stroke-linecap="butt"/><path d="M236.58113,133.30165c-0.00736,-0.23035 0.04807,-0.4481 0.15086,-0.63686c-0.59509,-0.00012 -1.12474,-0.29926 -1.44115,-0.75886c-0.30874,0.38827 -0.77972,0.64346 -1.31438,0.66056c-0.966,0.03089 -1.77414,-0.72718 -1.80502,-1.69319c-0.03089,-0.966 0.72718,-1.77414 1.69319,-1.80502c0.61829,-0.01976 1.1719,0.28367 1.49843,0.75795c0.30874,-0.38827 0.77972,-0.64346 1.31438,-0.66056c0.966,-0.03089 1.77414,0.72718 1.80502,1.69319c0.01427,0.44647 -0.13999,0.85923 -0.40542,1.17712c0.55659,0.11145 0.98391,0.59401 1.00281,1.1858c0.02206,0.69 -0.51942,1.26724 -1.20943,1.28929c-0.69,0.02206 -1.26724,-0.51942 -1.28929,-1.20943z" fill="#ffc72e" stroke="none" stroke-width="0.5" stroke-linecap="butt"/><path d="M239.28806,130.8331c-0.03089,-0.966 0.72718,-1.77414 1.69319,-1.80502c0.966,-0.03089 1.77414,0.72718 1.80502,1.69319c0.03089,0.966 -0.72718,1.77414 -1.69319,1.80502c-0.966,0.03089 -1.77414,-0.72718 -1.80502,-1.69319z" fill="#ffc72e" stroke="none" stroke-width="0.5" stroke-linecap="butt"/><path d="M251.90226,132.27634c0.02206,0.69 -0.51942,1.26724 -1.20943,1.28929c-0.60309,0.01927 -1.12005,-0.39197 -1.25542,-0.9566c-0.1375,-0.06933 -0.26477,-0.15632 -0.37872,-0.25805c-0.25161,0.62323 -0.85264,1.07182 -1.56759,1.09467c-0.966,0.03089 -1.77414,-0.72718 -1.80502,-1.69319c-0.03089,-0.966 0.72718,-1.77414 1.69319,-1.80502c0.46747,-0.01495 0.89796,0.15485 1.22129,0.44357c0.25161,-0.62323 0.85264,-1.07182 1.56759,-1.09467c0.56484,-0.01805 1.07568,0.23363 1.40876,0.63887c0.24819,-0.63059 0.85289,-1.08579 1.57323,-1.10881c0.6347,-0.02029 1.20125,0.3 1.52394,0.79607c0.29037,-0.51568 0.8353,-0.87149 1.47,-0.89179c0.72034,-0.02302 1.35289,0.39263 1.64083,1.00608c0.3065,-0.4257 0.80024,-0.70948 1.36507,-0.72754c0.966,-0.03089 1.77414,0.72718 1.80502,1.69319c0.03089,0.966 -0.72718,1.77414 -1.69319,1.80502c-0.72034,0.02302 -1.35289,-0.39263 -1.64083,-1.00608c-0.3065,0.4257 -0.80024,0.70948 -1.36507,0.72754c-0.6347,0.02029 -1.20125,-0.3 -1.52394,-0.79607c-0.29037,0.51568 -0.8353,0.87149 -1.47,0.89179c-0.56484,0.01805 -1.07568,-0.23363 -1.40876,-0.63887c-0.01699,0.04315 -0.03565,0.08549 -0.05589,0.12693c0.06266,0.14229 0.09967,0.29874 0.10495,0.46367z" fill="#ffc72e" stroke="none" stroke-width="0.5" stroke-linecap="butt"/><path d="M212.52797,137.49521c-0.03089,-0.966 0.72718,-1.77414 1.69319,-1.80502c0.966,-0.03089 1.77414,0.72718 1.80502,1.69319c0.03089,0.966 -0.72718,1.77414 -1.69319,1.80502c-0.966,0.03089 -1.77414,-0.72718 -1.80502,-1.69319z" fill="#f2bc49" stroke="none" stroke-width="0.5" stroke-linecap="butt"/><path d="M222.66557,136.16952c0.966,-0.03089 1.77414,0.72718 1.80502,1.69319c0.03089,0.966 -0.72718,1.77414 -1.69319,1.80502c-0.34412,0.011 -0.6682,-0.07812 -0.94428,-0.24111c-0.26508,0.18027 -0.58282,0.28992 -0.92695,0.30091c-0.81936,0.02619 -1.52513,-0.51521 -1.73939,-1.26965c-0.30873,0.36365 -0.76414,0.60045 -1.27848,0.61688c-0.966,0.03089 -1.77414,-0.72718 -1.80502,-1.69319c-0.03089,-0.966 0.72718,-1.77414 1.69319,-1.80502c0.81936,-0.02619 1.52513,0.51521 1.73939,1.26965c0.30873,-0.36365 0.76414,-0.60045 1.27848,-0.61688c0.34412,-0.011 0.6682,0.07812 0.94428,0.24111c0.26508,-0.18027 0.58282,-0.28992 0.92695,-0.30091z" fill="#f2bc49" stroke="none" stroke-width="0.5" stroke-linecap="butt"/><path d="M225.45133,137.45674c-0.03089,-0.966 0.72718,-1.77414 1.69319,-1.80502c0.966,-0.03089 1.77414,0.72718 1.80502,1.69319c0.03089,0.966 -0.72718,1.77414 -1.69319,1.80502c-0.966,0.03089 -1.77414,-0.72718 -1.80502,-1.69319z" fill="#f2bc49" stroke="none" stroke-width="0.5" stroke-linecap="butt"/><path d="M233.13241,135.46031c0.966,-0.03089 1.77414,0.72718 1.80502,1.69319c0.03089,0.966 -0.72718,1.77414 -1.69319,1.80502c-0.54483,0.01741 -1.03944,-0.21611 -1.37272,-0.59641c-0.16234,0.05612 -0.33576,0.08908 -0.51645,0.09486c-0.966,0.03089 -1.77414,-0.72718 -1.80502,-1.69319c-0.03089,-0.966 0.72718,-1.77414 1.69319,-1.80502c0.54483,-0.01741 1.03944,0.21611 1.37272,0.59641c0.16234,-0.05612 0.33576,-0.08908 0.51645,-0.09486z" fill="#f2bc49" stroke="none" stroke-width="0.5" stroke-linecap="butt"/><path d="M238.45232,139.31219c-0.42458,0.01356 -0.80645,-0.18622 -1.04256,-0.5027c-0.077,0.01291 -0.15577,0.02084 -0.23598,0.02341c-0.966,0.03089 -1.77414,-0.72718 -1.80502,-1.69319c-0.03089,-0.966 0.72718,-1.77414 1.69319,-1.80502c0.46747,-0.01495 0.89796,0.15485 1.22129,0.44357c0.25161,-0.62323 0.85264,-1.07182 1.56759,-1.09467c0.47827,-0.01528 0.91784,0.16283 1.24355,0.4638c0.30611,-0.42965 0.8022,-0.71651 1.37017,-0.73467c0.56797,-0.01816 1.08137,0.23641 1.4143,0.64565c0.30581,-0.32116 0.73311,-0.52697 1.21138,-0.54228c0.966,-0.03089 1.77414,0.72718 1.80502,1.69319c0.03089,0.966 -0.72718,1.77414 -1.69319,1.80502c-0.56797,0.01816 -1.08137,-0.23641 -1.4143,-0.64565c-0.30581,0.32116 -0.73311,0.52697 -1.21138,0.54228c-0.47827,0.01528 -0.91784,-0.16283 -1.24355,-0.4638c-0.30611,0.42965 -0.8022,0.71651 -1.37017,0.73467c-0.10354,0.00332 -0.20522,-0.00245 -0.30437,-0.01655c-0.05064,0.62533 -0.56402,1.12639 -1.20596,1.1469z" fill="#f2bc49" stroke="none" stroke-width="0.5" stroke-linecap="butt"/><path d="M247.12156,135.64015c-0.03089,-0.966 0.72718,-1.77414 1.69319,-1.80502c0.966,-0.03089 1.77414,0.72718 1.80502,1.69319c0.03089,0.966 -0.72718,1.77414 -1.69319,1.80502c-0.966,0.03089 -1.77414,-0.72718 -1.80502,-1.69319z" fill="#f2bc49" stroke="none" stroke-width="0.5" stroke-linecap="butt"/><path d="M250.70078,136.27497c-0.03089,-0.966 0.72718,-1.77414 1.69319,-1.80502c0.966,-0.03089 1.77414,0.72718 1.80502,1.69319c0.03089,0.966 -0.72718,1.77414 -1.69319,1.80502c-0.966,0.03089 -1.77414,-0.72718 -1.80502,-1.69319z" fill="#f2bc49" stroke="none" stroke-width="0.5" stroke-linecap="butt"/><path d="M217.03854,135.1045c-0.02206,-0.69 0.51942,-1.26724 1.20943,-1.28929c0.69,-0.02206 1.26724,0.51942 1.28929,1.20943c0.02206,0.69 -0.51942,1.26724 -1.20943,1.28929c-0.69,0.02206 -1.26724,-0.51942 -1.28929,-1.20943z" fill="#ffc72e" stroke="none" stroke-width="0.5" stroke-linecap="butt"/><path d="M230.14429,132.97186c-0.02206,-0.69 0.51942,-1.26724 1.20943,-1.28929c0.69,-0.02206 1.26724,0.51942 1.28929,1.20943c0.02206,0.69 -0.51942,1.26724 -1.20943,1.28929c-0.69,0.02206 -1.26724,-0.51942 -1.28929,-1.20943z" fill="#ffc72e" stroke="none" stroke-width="0.5" stroke-linecap="butt"/><path d="M243.01799,133.6314c-0.02206,-0.69 0.51942,-1.26724 1.20943,-1.28929c0.69,-0.02206 1.26724,0.51942 1.28929,1.20943c0.02206,0.69 -0.51942,1.26724 -1.20943,1.28929c-0.69,0.02206 -1.26724,-0.51942 -1.28929,-1.20943z" fill="#ffc72e" stroke="none" stroke-width="0.5" stroke-linecap="butt"/><path d="M217.08105,143.13602c-0.02206,-0.69 0.51942,-1.26724 1.20943,-1.28929c0.69,-0.02206 1.26724,0.51942 1.28929,1.20943c0.02206,0.69 -0.51942,1.26724 -1.20943,1.28929c-0.69,0.02206 -1.26724,-0.51942 -1.28929,-1.20943z" fill="#f2bc49" stroke="none" stroke-width="0.5" stroke-linecap="butt"/><path d="M222.12696,143.51024c-0.02206,-0.69 0.51942,-1.26724 1.20943,-1.28929c0.69,-0.02206 1.26724,0.51942 1.28929,1.20943c0.02206,0.69 -0.51942,1.26724 -1.20943,1.28929c-0.69,0.02206 -1.26724,-0.51942 -1.28929,-1.20943z" fill="#f2bc49" stroke="none" stroke-width="0.5" stroke-linecap="butt"/><path d="M226.39996,143.15946c-0.02206,-0.69 0.51942,-1.26724 1.20943,-1.28929c0.69,-0.02206 1.26724,0.51942 1.28929,1.20943c0.02206,0.69 -0.51942,1.26724 -1.20943,1.28929c-0.69,0.02206 -1.26724,-0.51942 -1.28929,-1.20943z" fill="#f2bc49" stroke="none" stroke-width="0.5" stroke-linecap="butt"/><path d="M235.96801,140.9257c-0.02206,-0.69 0.51942,-1.26724 1.20943,-1.28929c0.69,-0.02206 1.26724,0.51942 1.28929,1.20943c0.02206,0.69 -0.51942,1.26724 -1.20943,1.28929c-0.69,0.02206 -1.26724,-0.51942 -1.28929,-1.20943z" fill="#f2bc49" stroke="none" stroke-width="0.5" stroke-linecap="butt"/><path d="M241.91531,139.34322c-0.02206,-0.69 0.51942,-1.26724 1.20943,-1.28929c0.69,-0.02206 1.26724,0.51942 1.28929,1.20943c0.02206,0.69 -0.51942,1.26724 -1.20943,1.28929c-0.69,0.02206 -1.26724,-0.51942 -1.28929,-1.20943z" fill="#f2bc49" stroke="none" stroke-width="0.5" stroke-linecap="butt"/><path d="M246.13603,140.70777c-0.02206,-0.69 0.51942,-1.26724 1.20943,-1.28929c0.69,-0.02206 1.26724,0.51942 1.28929,1.20943c0.02206,0.69 -0.51942,1.26724 -1.20943,1.28929c-0.69,0.02206 -1.26724,-0.51942 -1.28929,-1.20943z" fill="#f2bc49" stroke="none" stroke-width="0.5" stroke-linecap="butt"/><path d="M249.01465,140.29442c-0.02206,-0.69 0.51942,-1.26724 1.20943,-1.28929c0.69,-0.02206 1.26724,0.51942 1.28929,1.20943c0.02206,0.69 -0.51942,1.26724 -1.20943,1.28929c-0.69,0.02206 -1.26724,-0.51942 -1.28929,-1.20943z" fill="#f2bc49" stroke="none" stroke-width="0.5" stroke-linecap="butt"/><path d="M219.72316,146.47894c-0.01324,-0.414 0.31165,-0.76034 0.72566,-0.77358c0.414,-0.01324 0.76034,0.31165 0.77358,0.72566c0.01324,0.414 -0.31165,0.76034 -0.72566,0.77358c-0.414,0.01324 -0.76034,-0.31165 -0.77358,-0.72566z" fill="#f2bc49" stroke="none" stroke-width="0.5" stroke-linecap="butt"/><path d="M228.2237,147.70666c-0.01324,-0.414 0.31165,-0.76034 0.72566,-0.77358c0.414,-0.01324 0.76034,0.31165 0.77358,0.72566c0.01324,0.414 -0.31165,0.76034 -0.72566,0.77358c-0.414,0.01324 -0.76034,-0.31165 -0.77358,-0.72566z" fill="#f2bc49" stroke="none" stroke-width="0.5" stroke-linecap="butt"/><path d="M241.74281,148.45266c-0.01324,-0.414 0.31165,-0.76034 0.72566,-0.77358c0.414,-0.01324 0.76034,0.31165 0.77358,0.72566c0.01324,0.414 -0.31165,0.76034 -0.72566,0.77358c-0.414,0.01324 -0.76034,-0.31165 -0.77358,-0.72566z" fill="#f2bc49" stroke="none" stroke-width="0.5" stroke-linecap="butt"/><path d="M221.01002,136.47701c-0.01324,-0.414 0.31165,-0.76034 0.72566,-0.77358c0.414,-0.01324 0.76034,0.31165 0.77358,0.72566c0.01324,0.414 -0.31165,0.76034 -0.72566,0.77358c-0.414,0.01324 -0.76034,-0.31165 -0.77358,-0.72566z" fill="#ffc72e" stroke="none" stroke-width="0.5" stroke-linecap="butt"/><path d="M237.48395,135.84331c-0.01324,-0.414 0.31165,-0.76034 0.72566,-0.77358c0.414,-0.01324 0.76034,0.31165 0.77358,0.72566c0.01324,0.414 -0.31165,0.76034 -0.72566,0.77358c-0.414,0.01324 -0.76034,-0.31165 -0.77358,-0.72566z" fill="#ffc72e" stroke="none" stroke-width="0.5" stroke-linecap="butt"/><path d="M251.78036,134.10103c-0.01324,-0.414 0.31165,-0.76034 0.72566,-0.77358c0.414,-0.01324 0.76034,0.31165 0.77358,0.72566c0.01324,0.414 -0.31165,0.76034 -0.72566,0.77358c-0.414,0.01324 -0.76034,-0.31165 -0.77358,-0.72566z" fill="#ffc72e" stroke="none" stroke-width="0.5" stroke-linecap="butt"/><path d="M277.21711,150.15869c-0.58846,1.27575 -8.38676,-2.25407 -17.91736,-6.65023c-9.5306,-4.39615 -17.34895,-9.84307 -17.34895,-9.84307c0,0 8.73482,3.82768 18.26542,8.22386c9.5306,4.39615 17.58936,6.99369 17.00091,8.26944z" fill="#ff9600" stroke="#000000" stroke-width="0" stroke-linecap="butt"/></g><g><path d="M255.52599,162.60639c-1.064,-33.28485 26.81868,-61.18643 62.27769,-62.31992c35.45901,-1.1335 65.06677,24.93031 66.13076,58.21517c1.064,33.28485 -26.81867,61.18644 -62.27769,62.31993c-35.459,1.1335 -65.06676,-24.93032 -66.13076,-58.21518z" fill="url(#color-2)" stroke="#000000" stroke-width="0" stroke-linecap="butt"/><path d="M261.32456,135.64641c9.86316,-20.20066 31.25406,-34.55358 56.47912,-35.35994c25.33201,-0.80977 47.67771,12.26116 58.76317,31.92929c0.0308,0.05464 -115.27648,3.50067 -115.24231,3.43065z" fill="#f2bc49" stroke="#000000" stroke-width="0" stroke-linecap="butt"/><path d="M263.72095,130.97253c11.02956,-16.37958 31.93777,-29.97816 54.08272,-30.68604c22.65157,-0.72409 44.16923,11.40694 56.12967,27.67259c0.14055,0.19114 -110.51444,3.46201 -110.21239,3.01345z" fill="#ffc72e" stroke="#000000" stroke-width="0" stroke-linecap="butt"/><path d="M270.96414,121.53108c11.36496,-12.95288 27.60631,-20.62978 46.83955,-21.24461c19.78497,-0.63245 36.27936,5.67157 48.47909,18.50354c0.05173,0.0544 -95.42582,2.86321 -95.31863,2.74106z" fill="#ff9600" stroke="#000000" stroke-width="0" stroke-linecap="butt"/><path d="M268.8558,162.45602c-0.41433,-12.96138 9.75707,-23.80455 22.71847,-24.21887c12.96138,-0.41433 23.80455,9.75706 24.21887,22.71846c0.41433,12.96138 -9.75706,23.80456 -22.71845,24.21888c-12.96138,0.41433 -23.80456,-9.75707 -24.21888,-22.71846z" fill="url(#color-3)" stroke="#000000" stroke-width="0" stroke-linecap="butt"/><path d="M282.17787,161.11751c-0.15341,-4.79905 3.61262,-8.81382 8.41169,-8.96722c4.79905,-0.15341 8.81382,3.61263 8.96722,8.4117c0.15341,4.79905 -3.61263,8.81383 -8.41169,8.96723c-4.79905,0.15341 -8.81382,-3.61263 -8.96722,-8.4117z" fill="#000000" stroke="#000000" stroke-width="0" stroke-linecap="butt"/><path d="M347.30548,183.44101c-12.96138,0.41433 -23.80455,-9.75707 -24.21887,-22.71847c-0.41433,-12.96138 9.75706,-23.80455 22.71846,-24.21887c12.96138,-0.41433 23.80456,9.75706 24.21888,22.71845c0.41433,12.96138 -9.75707,23.80456 -22.71846,24.21888z" fill="url(#color-4)" stroke="#000000" stroke-width="0" stroke-linecap="butt"/><path d="M353.60406,160.2744c-0.17061,4.28074 -3.41455,7.22809 -7.76756,7.31309c-4.35301,0.085 -7.45465,-2.86667 -7.28916,-7.01907c0.1655,-4.15243 3.2005,-8.5369 7.91282,-8.62893c4.71234,-0.09201 7.31451,4.0542 7.14389,8.33492z" fill="#000000" stroke="#000000" stroke-width="0" stroke-linecap="butt"/><path d="M287.61178,90.89081c0,0 9.104,-39.73964 27.55211,-24.84845c1.40357,1.13297 2.61938,2.31679 3.66788,3.53724c12.73263,14.82061 0.79162,35.03727 0.79162,35.03727" fill="none" stroke="#ff9600" stroke-width="6" stroke-linecap="round"/><path d="M300.95043,103.38043c0.8967,6.04006 -3.57885,11.70887 -9.99641,12.66161c-6.41757,0.95275 -12.34696,-3.17134 -13.24366,-9.21141c-0.8967,-6.04006 2.91518,-15.52067 9.33276,-16.47342c6.41757,-0.95275 13.01061,6.98316 13.90732,13.02323z" fill="#ffffff" stroke="#000000" stroke-width="0" stroke-linecap="butt"/><path d="M262.30578,171.56538c3.83249,-2.38193 8.57094,0.24153 12.71925,0.74282c4.63077,0.55958 10.51186,1.32647 15.11351,0.33912c1.91773,-0.41148 3.3318,-1.55149 5.36965,-1.66505c5.33438,-1.35344 12.71523,-1.57071 18.09771,-0.62245c1.95052,0.34364 3.81028,1.32764 5.77594,1.65012c5.97233,0.97982 13.16748,-1.1191 18.91512,-2.57324c9.38903,-1.50009 19.81377,-2.81328 29.13051,-0.66022c2.39921,0.55445 4.72183,1.26195 7.04097,2.09655c1.03474,0.37238 2.63298,0.06132 3.13096,1.04183c0.90472,1.78138 -3.58228,4.51398 -4.40524,5.28899c-3.67078,2.40358 -7.31523,4.91227 -11.06302,7.18688c-1.41674,0.85985 -3.57483,2.63797 -5.26532,3.05132c-7.77375,1.90072 -16.21974,0.05593 -24.00191,-0.98782c-11.9417,-1.58454 -24.12495,0.95876 -35.78743,3.2202c-2.08404,0.40409 -3.83826,1.42081 -5.96475,1.67358c-5.6774,0.17577 -9.56825,-2.05448 -14.88632,-3.88474c-3.88804,-1.33811 -7.87245,-2.70388 -11.28659,-5.05976c-2.61459,-1.80416 -5.56488,-3.69936 -6.05369,-7.07455c0.26687,-1.56372 1.83963,-2.57642 3.2061,-3.66294c0.13252,-0.05009 0.21457,-0.1006 0.21457,-0.1006z" fill-opacity="0.41176" fill="#6ee8ff" stroke="none" stroke-width="0.5" stroke-linecap="butt"/><path d="M379.59661,134.17893l1.31733,41.21l-24.39314,15.52913l-36.28491,-3.2188l-34.60182,6.17618l-26.03317,-14.14762l-1.33206,-41.67045z" fill-opacity="0.08235" fill="#00ffff" stroke="#f1da3e" stroke-width="7.5" stroke-linecap="round"/><path d="M270.69298,122.54598c-0.03089,-0.966 0.72718,-1.77414 1.69319,-1.80502c0.966,-0.03089 1.77414,0.72718 1.80502,1.69319c0.03089,0.966 -0.72718,1.77414 -1.69319,1.80502c-0.966,0.03089 -1.77414,-0.72718 -1.80502,-1.69319z" fill="#ff9600" stroke="none" stroke-width="0.5" stroke-linecap="butt"/><path d="M280.41945,120.3264c0.966,-0.03089 1.77414,0.72718 1.80502,1.69319c0.03089,0.966 -0.72718,1.77414 -1.69319,1.80502c-0.76733,0.02453 -1.43503,-0.44872 -1.69271,-1.12857c-0.21373,0.69492 -0.84986,1.20985 -1.61717,1.23439c-0.966,0.03089 -1.77414,-0.72718 -1.80502,-1.69319c-0.03089,-0.966 0.72718,-1.77414 1.69319,-1.80502c0.76733,-0.02453 1.43503,0.44872 1.69271,1.12857c0.21373,-0.69492 0.84986,-1.20985 1.61717,-1.23439z" fill="#ff9600" stroke="none" stroke-width="0.5" stroke-linecap="butt"/><path d="M285.63102,120.96402c-0.03089,-0.966 0.72718,-1.77414 1.69319,-1.80502c0.966,-0.03089 1.77414,0.72718 1.80502,1.69319c0.03089,0.966 -0.72718,1.77414 -1.69319,1.80502c-0.966,0.03089 -1.77414,-0.72718 -1.80502,-1.69319z" fill="#ff9600" stroke="none" stroke-width="0.5" stroke-linecap="butt"/><path d="M292.7186,120.57971c-0.03089,-0.966 0.72718,-1.77414 1.69319,-1.80502c0.966,-0.03089 1.77414,0.72718 1.80502,1.69319c0.03089,0.966 -0.72718,1.77414 -1.69319,1.80502c-0.966,0.03089 -1.77414,-0.72718 -1.80502,-1.69319z" fill="#ff9600" stroke="none" stroke-width="0.5" stroke-linecap="butt"/><path d="M299.6687,120.83086c-0.03089,-0.966 0.72718,-1.77414 1.69319,-1.80502c0.966,-0.03089 1.77414,0.72718 1.80502,1.69319c0.03089,0.966 -0.72718,1.77414 -1.69319,1.80502c-0.966,0.03089 -1.77414,-0.72718 -1.80502,-1.69319z" fill="#ff9600" stroke="none" stroke-width="0.5" stroke-linecap="butt"/><path d="M306.60875,120.76677c-0.03089,-0.966 0.72718,-1.77414 1.69319,-1.80502c0.966,-0.03089 1.77414,0.72718 1.80502,1.69319c0.03089,0.966 -0.72718,1.77414 -1.69319,1.80502c-0.966,0.03089 -1.77414,-0.72718 -1.80502,-1.69319z" fill="#ff9600" stroke="none" stroke-width="0.5" stroke-linecap="butt"/><path d="M310.21874,120.17805c-0.03089,-0.966 0.72718,-1.77414 1.69319,-1.80502c0.966,-0.03089 1.77414,0.72718 1.80502,1.69319c0.03089,0.966 -0.72718,1.77414 -1.69319,1.80502c-0.966,0.03089 -1.77414,-0.72718 -1.80502,-1.69319z" fill="#ff9600" stroke="none" stroke-width="0.5" stroke-linecap="butt"/><path d="M315.09972,119.86425c-0.03089,-0.966 0.72718,-1.77414 1.69319,-1.80502c0.966,-0.03089 1.77414,0.72718 1.80502,1.69319c0.03089,0.966 -0.72718,1.77414 -1.69319,1.80502c-0.966,0.03089 -1.77414,-0.72718 -1.80502,-1.69319z" fill="#ff9600" stroke="none" stroke-width="0.5" stroke-linecap="butt"/><path d="M322.19235,119.63754c-0.03089,-0.966 0.72718,-1.77414 1.69319,-1.80502c0.966,-0.03089 1.77414,0.72718 1.80502,1.69319c0.03089,0.966 -0.72718,1.77414 -1.69319,1.80502c-0.966,0.03089 -1.77414,-0.72718 -1.80502,-1.69319z" fill="#ff9600" stroke="none" stroke-width="0.5" stroke-linecap="butt"/><path d="M326.76818,119.64904c-0.03089,-0.966 0.72718,-1.77414 1.69319,-1.80502c0.966,-0.03089 1.77414,0.72718 1.80502,1.69319c0.03089,0.966 -0.72718,1.77414 -1.69319,1.80502c-0.966,0.03089 -1.77414,-0.72718 -1.80502,-1.69319z" fill="#ff9600" stroke="none" stroke-width="0.5" stroke-linecap="butt"/><path d="M330.26087,120.32626c-0.03089,-0.966 0.72718,-1.77414 1.69319,-1.80502c0.966,-0.03089 1.77414,0.72718 1.80502,1.69319c0.03089,0.966 -0.72718,1.77414 -1.69319,1.80502c-0.966,0.03089 -1.77414,-0.72718 -1.80502,-1.69319z" fill="#ff9600" stroke="none" stroke-width="0.5" stroke-linecap="butt"/><path d="M343.79021,118.6162c0.966,-0.03089 1.77414,0.72718 1.80502,1.69319c0.03089,0.966 -0.72718,1.77414 -1.69319,1.80502c-0.58383,0.01865 -1.10996,-0.25083 -1.44172,-0.68024c-0.30368,0.4497 -0.81153,0.75226 -1.39533,0.77091c-0.4019,0.01285 -0.77646,-0.11087 -1.0791,-0.3293c-0.24131,0.13918 -0.51942,0.22261 -0.8173,0.23214c-0.966,0.03089 -1.77414,-0.72718 -1.80502,-1.69319c-0.03089,-0.966 0.72718,-1.77414 1.69319,-1.80502c0.4019,-0.01285 0.77645,0.11086 1.0791,0.3293c0.24131,-0.13918 0.51942,-0.2226 0.8173,-0.23213c0.58383,-0.01865 1.10995,0.25082 1.44171,0.68023c0.30368,-0.4497 0.81153,-0.75225 1.39533,-0.7709z" fill="#ff9600" stroke="none" stroke-width="0.5" stroke-linecap="butt"/><path d="M353.55217,117.9886c0.966,-0.03089 1.77414,0.72718 1.80502,1.69319c0.03089,0.966 -0.72718,1.77414 -1.69319,1.80502c-0.22227,0.0071 -0.43617,-0.02757 -0.6342,-0.09692c-0.19319,0.08185 -0.40444,0.13012 -0.62669,0.13722c-0.966,0.03089 -1.77414,-0.72718 -1.80502,-1.69319c-0.03089,-0.966 0.72718,-1.77414 1.69319,-1.80502c0.22227,-0.0071 0.43617,0.02757 0.63419,0.09692c0.19319,-0.08185 0.40444,-0.13012 0.6267,-0.13723z" fill="#ff9600" stroke="none" stroke-width="0.5" stroke-linecap="butt"/><path d="M357.06023,119.62736c-0.03089,-0.966 0.72718,-1.77414 1.69319,-1.80502c0.966,-0.03089 1.77414,0.72718 1.80502,1.69319c0.03089,0.966 -0.72718,1.77414 -1.69319,1.80502c-0.966,0.03089 -1.77414,-0.72718 -1.80502,-1.69319z" fill="#ff9600" stroke="none" stroke-width="0.5" stroke-linecap="butt"/><path d="M360.51261,119.04365c-0.03089,-0.966 0.72718,-1.77414 1.69319,-1.80502c0.966,-0.03089 1.77414,0.72718 1.80502,1.69319c0.03089,0.966 -0.72718,1.77414 -1.69319,1.80502c-0.966,0.03089 -1.77414,-0.72718 -1.80502,-1.69319z" fill="#ff9600" stroke="none" stroke-width="0.5" stroke-linecap="butt"/><path d="M370.05153,128.52977c-0.03089,-0.966 0.72718,-1.77414 1.69319,-1.80502c0.966,-0.03089 1.77414,0.72718 1.80502,1.69319c0.03089,0.966 -0.72718,1.77414 -1.69319,1.80502c-0.966,0.03089 -1.77414,-0.72718 -1.80502,-1.69319z" fill="#ffc72e" stroke="none" stroke-width="0.5" stroke-linecap="butt"/><path d="M359.63894,128.54706c-0.03089,-0.966 0.72718,-1.77414 1.69319,-1.80502c0.76217,-0.02437 1.42609,0.44241 1.68749,1.11496c0.28912,-0.52037 0.8366,-0.88008 1.47486,-0.90049c0.966,-0.03089 1.77414,0.72718 1.80502,1.69319c0.03089,0.966 -0.72718,1.77414 -1.69319,1.80502c-0.76217,0.02437 -1.42609,-0.44241 -1.68749,-1.11496c-0.28912,0.52037 -0.8366,0.88008 -1.47486,0.90049c-0.966,0.03089 -1.77414,-0.72718 -1.80502,-1.69319z" fill="#ffc72e" stroke="none" stroke-width="0.5" stroke-linecap="butt"/><path d="M351.1127,128.34629c-0.03089,-0.966 0.72718,-1.77414 1.69319,-1.80502c0.08027,-0.00256 0.15944,0.0003 0.23716,0.0083c0.28123,-0.21753 0.63115,-0.35161 1.01366,-0.36385c0.966,-0.03089 1.77414,0.72718 1.80502,1.69319c0.03089,0.966 -0.72718,1.77414 -1.69319,1.80502c-0.08027,0.00256 -0.15944,-0.00031 -0.23716,-0.0083c-0.28123,0.21753 -0.63115,0.35162 -1.01366,0.36386c-0.966,0.03089 -1.77414,-0.72718 -1.80502,-1.69319z" fill="#ffc72e" stroke="none" stroke-width="0.5" stroke-linecap="butt"/><path d="M345.42349,128.05483c-0.03089,-0.966 0.72718,-1.77414 1.69319,-1.80502c0.966,-0.03089 1.77414,0.72718 1.80502,1.69319c0.03089,0.966 -0.72718,1.77414 -1.69319,1.80502c-0.966,0.03089 -1.77414,-0.72718 -1.80502,-1.69319z" fill="#ffc72e" stroke="none" stroke-width="0.5" stroke-linecap="butt"/><path d="M336.12931,128.50971c-0.03089,-0.966 0.72718,-1.77414 1.69319,-1.80502c0.966,-0.03089 1.77414,0.72718 1.80502,1.69319c0.03089,0.966 -0.72718,1.77414 -1.69319,1.80502c-0.966,0.03089 -1.77414,-0.72718 -1.80502,-1.69319z" fill="#ffc72e" stroke="none" stroke-width="0.5" stroke-linecap="butt"/><path d="M329.66212,128.55867c-0.03089,-0.966 0.72718,-1.77414 1.69319,-1.80502c0.966,-0.03089 1.77414,0.72718 1.80502,1.69319c0.03089,0.966 -0.72718,1.77414 -1.69319,1.80502c-0.966,0.03089 -1.77414,-0.72718 -1.80502,-1.69319z" fill="#ffc72e" stroke="none" stroke-width="0.5" stroke-linecap="butt"/><path d="M321.01855,129.62385c-0.03089,-0.966 0.72718,-1.77414 1.69319,-1.80502c0.966,-0.03089 1.77414,0.72718 1.80502,1.69319c0.03089,0.966 -0.72718,1.77414 -1.69319,1.80502c-0.966,0.03089 -1.77414,-0.72718 -1.80502,-1.69319z" fill="#ffc72e" stroke="none" stroke-width="0.5" stroke-linecap="butt"/><path d="M303.01029,128.93731c-0.03089,-0.966 0.72718,-1.77414 1.69319,-1.80502c0.966,-0.03089 1.77414,0.72718 1.80502,1.69319c0.03089,0.966 -0.72718,1.77414 -1.69319,1.80502c-0.966,0.03089 -1.77414,-0.72718 -1.80502,-1.69319z" fill="#ffc72e" stroke="none" stroke-width="0.5" stroke-linecap="butt"/><path d="M284.44715,130.63512c-0.03089,-0.966 0.72718,-1.77414 1.69319,-1.80502c0.966,-0.03089 1.77414,0.72718 1.80502,1.69319c0.03089,0.966 -0.72718,1.77414 -1.69319,1.80502c-0.966,0.03089 -1.77414,-0.72718 -1.80502,-1.69319z" fill="#ffc72e" stroke="none" stroke-width="0.5" stroke-linecap="butt"/><path d="M276.86658,130.40412c-0.03089,-0.966 0.72718,-1.77414 1.69319,-1.80502c0.966,-0.03089 1.77414,0.72718 1.80502,1.69319c0.03089,0.966 -0.72718,1.77414 -1.69319,1.80502c-0.966,0.03089 -1.77414,-0.72718 -1.80502,-1.69319z" fill="#ffc72e" stroke="none" stroke-width="0.5" stroke-linecap="butt"/><path d="M266.62171,130.73162c-0.03089,-0.966 0.72718,-1.77414 1.69319,-1.80502c0.966,-0.03089 1.77414,0.72718 1.80502,1.69319c0.03089,0.966 -0.72718,1.77414 -1.69319,1.80502c-0.966,0.03089 -1.77414,-0.72718 -1.80502,-1.69319z" fill="#ffc72e" stroke="none" stroke-width="0.5" stroke-linecap="butt"/><path d="M291.86003,130.55594c-0.03089,-0.966 0.72718,-1.77414 1.69319,-1.80502c0.966,-0.03089 1.77414,0.72718 1.80502,1.69319c0.03089,0.966 -0.72718,1.77414 -1.69319,1.80502c-0.966,0.03089 -1.77414,-0.72718 -1.80502,-1.69319z" fill="#ffc72e" stroke="none" stroke-width="0.5" stroke-linecap="butt"/><path d="M297.7119,130.99998c-0.03089,-0.966 0.72718,-1.77414 1.69319,-1.80502c0.966,-0.03089 1.77414,0.72718 1.80502,1.69319c0.03089,0.966 -0.72718,1.77414 -1.69319,1.80502c-0.966,0.03089 -1.77414,-0.72718 -1.80502,-1.69319z" fill="#ffc72e" stroke="none" stroke-width="0.5" stroke-linecap="butt"/><path d="M307.45875,129.89953c-0.03089,-0.966 0.72718,-1.77414 1.69319,-1.80502c0.966,-0.03089 1.77414,0.72718 1.80502,1.69319c0.03089,0.966 -0.72718,1.77414 -1.69319,1.80502c-0.966,0.03089 -1.77414,-0.72718 -1.80502,-1.69319z" fill="#ffc72e" stroke="none" stroke-width="0.5" stroke-linecap="butt"/><path d="M316.11741,129.3072c-0.03089,-0.966 0.72718,-1.77414 1.69319,-1.80502c0.966,-0.03089 1.77414,0.72718 1.80502,1.69319c0.03089,0.966 -0.72718,1.77414 -1.69319,1.80502c-0.966,0.03089 -1.77414,-0.72718 -1.80502,-1.69319z" fill="#ffc72e" stroke="none" stroke-width="0.5" stroke-linecap="butt"/><path d="M270.36151,125.90622c-0.02206,-0.69 0.51942,-1.26724 1.20943,-1.28929c0.69,-0.02206 1.26724,0.51942 1.28929,1.20943c0.02206,0.69 -0.51942,1.26724 -1.20943,1.28929c-0.69,0.02206 -1.26724,-0.51942 -1.28929,-1.20943z" fill="#ff9600" stroke="none" stroke-width="0.5" stroke-linecap="butt"/><path d="M280.21914,123.71798c-0.02206,-0.69 0.51942,-1.26724 1.20943,-1.28929c0.69,-0.02206 1.26724,0.51942 1.28929,1.20943c0.02206,0.69 -0.51942,1.26724 -1.20943,1.28929c-0.69,0.02206 -1.26724,-0.51942 -1.28929,-1.20943z" fill="#ff9600" stroke="none" stroke-width="0.5" stroke-linecap="butt"/><path d="M282.76109,121.20165c-0.02206,-0.69 0.51942,-1.26724 1.20943,-1.28929c0.69,-0.02206 1.26724,0.51942 1.28929,1.20943c0.02206,0.69 -0.51942,1.26724 -1.20943,1.28929c-0.69,0.02206 -1.26724,-0.51942 -1.28929,-1.20943z" fill="#ff9600" stroke="none" stroke-width="0.5" stroke-linecap="butt"/><path d="M300.03607,122.52256c-0.02206,-0.69 0.51942,-1.26724 1.20943,-1.28929c0.69,-0.02206 1.26724,0.51942 1.28929,1.20943c0.02206,0.69 -0.51942,1.26724 -1.20943,1.28929c-0.69,0.02206 -1.26724,-0.51942 -1.28929,-1.20943z" fill="#ff9600" stroke="none" stroke-width="0.5" stroke-linecap="butt"/><path d="M304.96106,124.23827c-0.02206,-0.69 0.51942,-1.26724 1.20943,-1.28929c0.69,-0.02206 1.26724,0.51942 1.28929,1.20943c0.02206,0.69 -0.51942,1.26724 -1.20943,1.28929c-0.69,0.02206 -1.26724,-0.51942 -1.28929,-1.20943z" fill="#ff9600" stroke="none" stroke-width="0.5" stroke-linecap="butt"/><path d="M312.46986,124.74749c-0.02206,-0.69 0.51942,-1.26724 1.20943,-1.28929c0.69,-0.02206 1.26724,0.51942 1.28929,1.20943c0.02206,0.69 -0.51942,1.26724 -1.20943,1.28929c-0.69,0.02206 -1.26724,-0.51942 -1.28929,-1.20943z" fill="#ff9600" stroke="none" stroke-width="0.5" stroke-linecap="butt"/><path d="M325.18217,123.9665c-0.02206,-0.69 0.51942,-1.26724 1.20943,-1.28929c0.69,-0.02206 1.26724,0.51942 1.28929,1.20943c0.02206,0.69 -0.51942,1.26724 -1.20943,1.28929c-0.69,0.02206 -1.26724,-0.51942 -1.28929,-1.20943z" fill="#ff9600" stroke="none" stroke-width="0.5" stroke-linecap="butt"/><path d="M329.81833,122.5071c-0.02206,-0.69 0.51942,-1.26724 1.20943,-1.28929c0.69,-0.02206 1.26724,0.51942 1.28929,1.20943c0.02206,0.69 -0.51942,1.26724 -1.20943,1.28929c-0.69,0.02206 -1.26724,-0.51942 -1.28929,-1.20943z" fill="#ff9600" stroke="none" stroke-width="0.5" stroke-linecap="butt"/><path d="M338.35416,119.98648c-0.02206,-0.69 0.51942,-1.26724 1.20943,-1.28929c0.69,-0.02206 1.26724,0.51942 1.28929,1.20943c0.02206,0.69 -0.51942,1.26724 -1.20943,1.28929c-0.69,0.02206 -1.26724,-0.51942 -1.28929,-1.20943z" fill="#ff9600" stroke="none" stroke-width="0.5" stroke-linecap="butt"/><path d="M349.80447,120.74434c-0.02206,-0.69 0.51942,-1.26724 1.20943,-1.28929c0.69,-0.02206 1.26724,0.51942 1.28929,1.20943c0.02206,0.69 -0.51942,1.26724 -1.20943,1.28929c-0.69,0.02206 -1.26724,-0.51942 -1.28929,-1.20943z" fill="#ff9600" stroke="none" stroke-width="0.5" stroke-linecap="butt"/><path d="M360.92838,123.01112c-0.02206,-0.69 0.51942,-1.26724 1.20943,-1.28929c0.69,-0.02206 1.26724,0.51942 1.28929,1.20943c0.02206,0.69 -0.51942,1.26724 -1.20943,1.28929c-0.69,0.02206 -1.26724,-0.51942 -1.28929,-1.20943z" fill="#ff9600" stroke="none" stroke-width="0.5" stroke-linecap="butt"/><path d="M275.01382,126.88138c-0.01324,-0.414 0.31165,-0.76034 0.72566,-0.77358c0.414,-0.01324 0.76034,0.31165 0.77358,0.72566c0.01324,0.414 -0.31165,0.76034 -0.72566,0.77358c-0.414,0.01324 -0.76034,-0.31165 -0.77358,-0.72566z" fill="#ff9600" stroke="none" stroke-width="0.5" stroke-linecap="butt"/><path d="M283.62739,126.79336c-0.01324,-0.414 0.31165,-0.76034 0.72566,-0.77358c0.414,-0.01324 0.76034,0.31165 0.77358,0.72566c0.01324,0.414 -0.31165,0.76034 -0.72566,0.77358c-0.414,0.01324 -0.76034,-0.31165 -0.77358,-0.72566z" fill="#ff9600" stroke="none" stroke-width="0.5" stroke-linecap="butt"/><path d="M294.3785,125.70042c-0.01324,-0.414 0.31165,-0.76034 0.72566,-0.77358c0.414,-0.01324 0.76034,0.31165 0.77358,0.72566c0.01324,0.414 -0.31165,0.76034 -0.72566,0.77358c-0.414,0.01324 -0.76034,-0.31165 -0.77358,-0.72566z" fill="#ff9600" stroke="none" stroke-width="0.5" stroke-linecap="butt"/><path d="M307.75985,128.26967c-0.01324,-0.414 0.31165,-0.76034 0.72566,-0.77358c0.414,-0.01324 0.76034,0.31165 0.77358,0.72566c0.01324,0.414 -0.31165,0.76034 -0.72566,0.77358c-0.414,0.01324 -0.76034,-0.31165 -0.77358,-0.72566z" fill="#ff9600" stroke="none" stroke-width="0.5" stroke-linecap="butt"/><path d="M318.52318,125.11593c-0.01324,-0.414 0.31165,-0.76034 0.72566,-0.77358c0.414,-0.01324 0.76034,0.31165 0.77358,0.72566c0.01324,0.414 -0.31165,0.76034 -0.72566,0.77358c-0.414,0.01324 -0.76034,-0.31165 -0.77358,-0.72566z" fill="#ff9600" stroke="none" stroke-width="0.5" stroke-linecap="butt"/><path d="M331.8806,126.93668c-0.01324,-0.414 0.31165,-0.76034 0.72566,-0.77358c0.414,-0.01324 0.76034,0.31165 0.77358,0.72566c0.01324,0.414 -0.31165,0.76034 -0.72566,0.77358c-0.414,0.01324 -0.76034,-0.31165 -0.77358,-0.72566z" fill="#ff9600" stroke="none" stroke-width="0.5" stroke-linecap="butt"/><path d="M344.16483,124.48355c-0.01324,-0.414 0.31165,-0.76034 0.72566,-0.77358c0.414,-0.01324 0.76034,0.31165 0.77358,0.72566c0.01324,0.414 -0.31165,0.76034 -0.72566,0.77358c-0.414,0.01324 -0.76034,-0.31165 -0.77358,-0.72566z" fill="#ff9600" stroke="none" stroke-width="0.5" stroke-linecap="butt"/><path d="M365.71972,124.9184c-0.01324,-0.414 0.31165,-0.76034 0.72566,-0.77358c0.414,-0.01324 0.76034,0.31165 0.77358,0.72566c0.01324,0.414 -0.31165,0.76034 -0.72566,0.77358c-0.414,0.01324 -0.76034,-0.31165 -0.77358,-0.72566z" fill="#ff9600" stroke="none" stroke-width="0.5" stroke-linecap="butt"/><path d="M354.52231,126.2129c-0.01324,-0.414 0.31165,-0.76034 0.72566,-0.77358c0.414,-0.01324 0.76034,0.31165 0.77358,0.72566c0.01324,0.414 -0.31165,0.76034 -0.72566,0.77358c-0.414,0.01324 -0.76034,-0.31165 -0.77358,-0.72566z" fill="#ff9600" stroke="none" stroke-width="0.5" stroke-linecap="butt"/></g><g stroke="none" stroke-width="0.5" stroke-linecap="butt"><g><path d="M335.43296,205.09259l2.90223,0.19871c3.66644,1.35748 6.90122,2.42055 8.74763,6.22034c1.73327,3.56692 0.94177,8.54004 0.39307,12.30031c-0.92022,6.30648 -3.27323,15.53726 -10.05688,18.04843c-2.62814,0.97289 -4.2626,0.65548 -6.89166,0.52466c-10.25886,-1.95315 -20.40909,-6.73458 -25.43599,-16.45292c-4.26538,-8.2461 3.2757,-16.71747 11.03198,-18.66815c-2.32888,-3.8057 -3.61085,-8.42971 0.74441,-11.42004c1.14958,-0.78931 2.61412,-1.25005 4.00768,-1.19973c1.47369,0.05323 2.82597,0.87446 4.16378,1.49484c4.47353,2.07448 7.82604,5.02514 10.24061,8.95878c0.09646,-0.00645 0.15314,-0.00523 0.15314,-0.00523z" fill="#f3ca58"/><path d="M304.93209,209.81416c2.15839,-4.07982 5.31561,-7.23858 9.64752,-9.59453c1.29547,-0.70456 2.59252,-1.61048 4.0598,-1.75773c1.38751,-0.13924 2.87847,0.22704 4.07612,0.94131c4.53734,2.70605 3.55332,7.4025 1.47226,11.34919c7.86504,1.45132 15.93176,9.42376 12.20175,17.92545c-4.39596,10.01954 -14.22009,15.43948 -24.33325,18.04385c-2.61532,0.29846 -4.22619,0.71961 -6.91109,-0.08345c-6.93017,-2.07278 -9.86793,-11.13443 -11.18906,-17.36927c-0.78773,-3.71756 -1.89524,-8.62995 -0.39331,-12.3003c1.59995,-3.90993 4.76024,-5.17745 8.3325,-6.76632l2.88362,-0.38367c0,0 0.05649,-0.00484 0.15316,-0.00457z" fill="#ff9600"/><path d="M304.75694,210.1944c2.15839,-4.07982 5.31561,-7.23858 9.64752,-9.59453c1.29547,-0.70456 2.59252,-1.61048 4.0598,-1.75773c1.38751,-0.13924 2.87847,0.22704 4.07612,0.94131c4.53734,2.70605 3.55331,7.4025 1.47224,11.34918c7.86504,1.45132 15.93176,9.42377 12.20175,17.92546c-4.39596,10.01954 -14.22009,15.43948 -24.33325,18.04385c-2.61532,0.29846 -4.22619,0.71961 -6.91109,-0.08345c-6.93017,-2.07278 -9.86793,-11.13443 -11.18906,-17.36927c-0.78773,-3.71756 -1.89524,-8.62995 -0.39332,-12.30031c1.59995,-3.90993 4.76024,-5.17745 8.3325,-6.76632l2.88361,-0.38366c0,0 0.05649,-0.00484 0.15316,-0.00457z" fill="#f3ca58"/></g><path d="M300.69424,229.95017c0.04641,0.04609 0.09124,0.09478 0.13454,0.14594c4.64858,0.56142 4.67628,8.01514 4.01197,10.99107c-0.6053,2.71159 -1.6599,5.21515 -3.08731,7.43296c-0.47328,1.02166 -0.98387,2.03088 -1.48596,3.03328c-1.871,3.73537 -3.77829,7.84412 -8.0584,9.5041c-1.42601,0.55305 -3.0516,0.29845 -4.58076,0.26668c-1.50811,-0.03133 -3.21915,0.33755 -4.50234,-0.45542c-0.27802,-0.17181 -0.52901,-0.36587 -0.75494,-0.5793c-0.17072,-0.08063 -0.34068,-0.17047 -0.50976,-0.2701c-2.38289,-1.40413 -3.84625,-4.78903 -3.25593,-7.5677c0.03051,-1.04579 0.35257,-2.20022 0.49008,-3.18779c0.13338,-0.95773 1.67421,-4.26603 2.5894,-5.8777c1.50685,-5.53376 6.08395,-9.09758 11.11927,-11.92883l-0.06804,-0.08491l2.29567,-1.83924c0.40611,-0.59905 0.82539,-1.18906 1.25745,-1.76943c0,0 1.49857,-2.00107 3.49964,-0.5025c1.19483,0.89478 1.14196,1.96873 0.90538,2.68887z" fill="#f3ca58"/><path d="M339.92568,225.79097c1.90127,-1.62331 3.5246,0.27796 3.5246,0.27796c0.46824,0.55158 0.92435,1.11361 1.36788,1.68551l2.40845,1.68885l-0.06247,0.08908c5.20589,2.50387 10.00123,5.76809 11.85843,11.19432c1.01627,1.54993 2.76523,4.75307 2.95951,5.70031c0.20031,0.97675 0.59546,2.10825 0.69269,3.14995c0.76657,2.73532 -0.47761,6.20674 -2.76594,7.76021c-0.16236,0.11023 -0.32625,0.21074 -0.49147,0.30212c-0.21182,0.22741 -0.4499,0.4371 -0.7164,0.62633c-1.22992,0.87331 -2.96102,0.61445 -4.46406,0.74205c-1.52402,0.12936 -3.13002,0.48729 -4.58846,0.02644c-4.37739,-1.38322 -6.54319,-5.36177 -8.64894,-8.97002c-0.56509,-0.9683 -1.13909,-1.94285 -1.67665,-2.93219c-1.56615,-2.12213 -2.77851,-4.55321 -3.55576,-7.2206c-0.85301,-2.92743 -1.30143,-10.36767 3.30181,-11.22486c0.03995,-0.05381 0.08158,-0.10528 0.12496,-0.15423c-0.28207,-0.70356 -0.40343,-1.77194 0.73184,-2.7412z" fill="#f3ca58"/></g></g></g></g></svg>