<svg version="1.1" xmlns="http://www.w3.org/2000/svg" xmlns:xlink="http://www.w3.org/1999/xlink" width="226.0233" height="313.18097" viewBox="0,0,226.0233,313.18097"><defs><linearGradient x1="282.22832" y1="85.53716" x2="277.69053" y2="123.56665" gradientUnits="userSpaceOnUse" id="color-1"><stop offset="0" stop-color="#4a4a4a"/><stop offset="1" stop-color="#000000"/></linearGradient><linearGradient x1="341.19691" y1="86.31793" x2="330.75256" y2="122.80581" gradientUnits="userSpaceOnUse" id="color-2"><stop offset="0" stop-color="#4a4a4a"/><stop offset="1" stop-color="#000000"/></linearGradient></defs><g transform="translate(-200.82292,-11.01647)"><g stroke-miterlimit="10"><path d="" fill="none" stroke="#000000" stroke-width="2" stroke-linecap="round"/><path d="M395.75286,157.47967l-43.96409,166.71777l-71.70746,-0.60281l-56.05053,-164.15935l9.31684,-21.29328l147.92174,1.03517l12.98027,4.34484l1.50323,13.95764z" fill="#000000" stroke="#000000" stroke-width="0" stroke-linecap="butt"/><g fill="#ffffff" stroke="#000000" stroke-width="0"><path d="M314.55231,181.19463l-4.12839,59.40753l-2.04202,1.04131l-2.94169,7.49883l-3.7509,-23.33998l7.41461,-44.3883z" stroke-linecap="round"/><path d="M319.55392,175.29903l-1.48077,6.79608l-6.80052,2.50221l-5.2791,-1.59183l-1.5775,-7.70647l2.49418,-7.79914l5.78711,-1.49915l6.18154,2.23432l0.67509,7.06398z" stroke-linecap="butt"/></g><path d="M213.66419,306.27923l-12.84127,-267.72501h213.18203l12.84127,267.72501z" fill="none" stroke="none" stroke-width="0" stroke-linecap="butt"/><g stroke-linecap="butt"><path d="M239.74862,105.88303l58.69291,-61.71062l69.91894,58.47432l-58.69292,61.71063l-69.91894,-58.47433z" fill="#000000" stroke="#000000" stroke-width="2"/><path d="M277.24465,133.90435l0.36441,-0.10801l0.88659,1.05282l0.00645,0.36374l1.83491,5.46266l-3.96308,-1.24823l-0.15017,-4.61709l0.62798,-1.02685l0.39289,0.121z" fill="#ffffff" stroke="none" stroke-width="0.5"/><path d="M290.57855,134.27217l1.00746,0.30689l1.02966,1.57778l0.63907,4.30348l-3.22819,-0.52822l-0.77889,-5.11643l0.62798,-1.02685l0.70293,0.48337z" fill="#ffffff" stroke="none" stroke-width="0.5"/><path d="M305.29647,132.52325l0.88659,1.05282l0.15093,1.25929l1.85848,5.4905l-3.81342,-0.26228l-0.80031,-5.14866l0.62798,-1.02685l0.53639,0.24472l-0.07463,-0.58268l0.62798,-1.02685z" fill="#ffffff" stroke="none" stroke-width="0.5"/><path d="M317.35166,133.9303l0.5808,-0.44561l0.88659,1.05282l-0.03665,0.01712l2.37851,5.35486l-4.39866,-0.67503l-0.42439,-4.39361l0.62798,-1.02685l0.38582,0.11632z" fill="#ffffff" stroke="none" stroke-width="0.5"/><path d="M328.64911,133.35337l0.26314,-0.04819l0.83868,0.82947l2.27401,5.42625l-4.05109,0.37099l-0.87899,-7.07768l0.68955,-0.94924l0.8396,1.1233l0.02511,0.32509z" fill="#ffffff" stroke="none" stroke-width="0.5"/><path d="M334.65294,130.45803l0.01639,-0.04083l1.03275,-0.19678l0.84744,0.80074l2.71091,5.74548l-4.72172,0.75347l-0.85423,-5.90369l0.39421,-1.25154l0.57425,0.09314z" fill="#ffffff" stroke="none" stroke-width="0.5"/><path d="M341.37999,129.88346l0.92686,-0.33653l0.19564,0.23969l3.53071,2.0713l-3.02892,2.77038l-2.74096,-3.61274l0.03072,-1.4384l1.08599,0.30632z" fill="#ffffff" stroke="none" stroke-width="0.5"/><path d="M266.17003,123.63583l0.71536,0.50728l0.15352,0.1574l0.21066,1.41791l0.32649,5.4316l-4.61572,-2.97059l2.59778,-3.40198l-0.01608,-0.11473l0.62798,-1.02685z" fill="#ffffff" stroke="none" stroke-width="0.5"/><path d="M271.3963,130.88262l1.17311,0.02011l0.37097,0.00635l0.0347,-0.29203l0.78287,0.35172l0.658,1.00321l-0.62798,1.02685l-0.49022,-0.0084l0.05354,3.72049l-2.03212,0.74195l-2.25055,-0.5866l0.23736,-1.94294l1.0565,-3.27324l0.64261,-0.77424l0.39124,0.00671z" fill="#ffffff" stroke="none" stroke-width="0.5"/><path d="M284.03393,133.98229l0.35784,-0.33473l2.79881,6.19278l-4.21695,-1.07448l0.24649,-3.78265l0.62798,-1.02685l0.18582,0.02592z" fill="#ffffff" stroke="none" stroke-width="0.5"/><path d="M298.38373,136.14357l0.81349,0.41375l2.10242,4.06124l-4.60341,0.41982l0.37621,-4.53945l0.82427,-0.74086l0.48707,0.38549z" fill="#ffffff" stroke="none" stroke-width="0.5"/><path d="M310.79056,136.33911l0.25755,-0.2053l1.03969,0.67408l0.22754,0.73983l-2.26644,3.05407l-0.83047,-4.89843l0.62798,-1.02685l0.88659,1.05282l0.05757,0.60981z" fill="#ffffff" stroke="none" stroke-width="0.5"/><path d="M288.49009,159.32212l-1.04399,-0.3464l-2.83245,-5.66986l4.51055,-1.59856l0.97772,6.24627l-0.71323,1.2136z" fill="#ffffff" stroke="none" stroke-width="0.5"/><path d="M293.78743,158.58714l-0.38935,-1.4456l0.04322,-0.11865l-0.21713,-0.44059l-1.91139,-5.52374l5.03121,-0.46926l-1.16669,6.69628l-0.37555,1.03118l-1.01431,0.27039z" fill="#ffffff" stroke="none" stroke-width="0.5"/><path d="M301.56983,157.72596l-0.62552,0.66587l-0.88659,-1.05282l0.33714,-1.26816l-1.04554,-5.09695l4.37237,-0.87741l-2.15185,7.62945z" fill="#ffffff" stroke="none" stroke-width="0.5"/><path d="M310.74893,156.48639l0.04855,0.12574l-0.16559,1.21386l-0.59195,0.48477l-0.88659,-1.05282l-0.04514,-0.67477l0.0127,-0.12042l-1.33774,-4.30893l3.18422,-2.56014l-0.21844,6.89272z" fill="#ffffff" stroke="none" stroke-width="0.5"/><path d="M314.7621,157.09158l-0.20636,-0.9487l-0.07874,-0.32351l-0.01133,-5.92201l4.87836,0.82647l-2.82482,5.99391l-0.67109,0.68025l-1.08604,-0.3064z" fill="#ffffff" stroke="none" stroke-width="0.5"/><path d="M325.01944,158.28022l-0.37257,1.26769l-1.02059,-0.74554l-1.6728,-6.91527l3.70319,3.57831l-0.04184,0.0895l0.02191,0.0142l-0.44119,1.8285l-0.30156,0.49077l0.12551,0.39185z" fill="#ffffff" stroke="none" stroke-width="0.5"/><path d="M330.34407,159.42959l-0.88659,-1.05282l-1.34452,-5.30339l2.46869,-1.08535l1.10538,4.07548l-0.05311,0.16309l0.05488,0.01896l-0.0788,1.36108l-0.63795,0.79608l-0.62798,1.02685z" fill="#ffffff" stroke="none" stroke-width="0.5"/><path d="M256.69796,100.46623l2.20022,-23.15698l16.42797,-10.6517l20.60456,9.88145l7.88116,24.02814l-9.36358,29.29739l-5.31968,-14.27324c0,0 -2.96981,-7.5582 -6.63877,-10.98757c-4.51856,-4.22348 -25.79183,-4.13746 -25.79183,-4.13746z" fill="url(#color-1)" stroke="#000000" stroke-width="2"/><path d="M313.38372,97.01102l5.7977,-22.30433l18.05943,-7.90269l19.0369,12.8112l4.13298,24.69732c0,0 -10.23139,-1.50325 -14.19996,1.51334c-3.41166,2.59328 -8.2075,5.23406 -10.33086,9.42979c-0.67882,1.34134 -1.0845,8.52766 -1.0845,8.52766l-6.84159,3.92496l-14.57007,-30.69723z" fill="url(#color-2)" stroke="#000000" stroke-width="2"/><path d="M366.8266,109.04444l0.35473,-0.97118l0.41341,-0.11988l2.27971,-4.56371l-0.65551,-2.44662l0.64735,-0.70021l-0.17976,-1.07472l0.58805,-0.84077l0.88959,0.64121l0.25219,4.21172l7.24473,5.68849l0.64545,-0.24157l0.98764,0.46387l-0.40217,0.9502l-0.92937,0.30948l-7.94044,-5.13887l-2.35688,3.86387l-0.83303,0.38683l-1.00565,-0.41816z" fill="#000000" stroke="none" stroke-width="0.5"/><g stroke="#000000" stroke-width="0"><path d="M236.21662,82.37073l-19.95956,-62.12728l75.38006,-6.8415l71.2263,-2.38548l1.99678,63.77717z" fill="#000000"/><path d="M237.04726,81.46688l-3.61043,-10.06864l130.57432,-4.35236l0.23211,10.06473z" fill="#ffffff"/><path d="M218.16948,89.73158l-4.56055,-5.65505l-1.66367,-7.34275l176.19429,-5.18867l-0.72614,6.14994l-2.68942,7.25437l-4.87678,0.14003l-1.53184,28.36046l-2.26917,-15.35528l-4.87554,-12.75606l-136.76538,3.92687l-2.39604,10.87217l-7.61269,-10.58479l-6.2271,0.17879z" fill="#000000"/></g></g></g></g></svg>