<svg version="1.1" xmlns="http://www.w3.org/2000/svg" xmlns:xlink="http://www.w3.org/1999/xlink" width="213.18203" height="280.18476" viewBox="0,0,213.18203,280.18476"><g transform="translate(-214.78369,-38.88751)"><g stroke-miterlimit="10"><path d="M214.78369,306.61252v-267.72501h213.18203v267.72501z" fill="none" stroke="none" stroke-width="0" stroke-linecap="butt"/><path d="" fill="none" stroke="#000000" stroke-width="2" stroke-linecap="round"/><g stroke-linecap="butt"><path d="M286.35186,319.07226l15.14285,-131.8421l37.78325,-0.15789l13.57389,132z" fill="#808080" stroke="#000000" stroke-width="0"/><path d="M294.11683,251.46607c2.49073,-21.68569 7.37788,-64.23591 7.37788,-64.23591l37.78325,-0.15789c0,0 4.52227,43.97705 6.78411,65.97246c0.01157,0.11249 -51.97494,-1.32012 -51.94524,-1.57866z" fill="#797979" stroke="#000000" stroke-width="0"/><path d="M295.62919,238.29869c2.1783,-18.96551 5.86552,-51.06852 5.86552,-51.06852l37.78325,-0.15789c0,0 3.36981,32.76993 5.3423,51.95149c0.0091,0.08856 -49.00225,-0.62775 -48.99107,-0.72508z" fill="#5c5c5c" stroke="#000000" stroke-width="0"/><path d="M297.31832,223.59213c1.72174,-14.99045 4.17639,-36.36197 4.17639,-36.36197l37.78325,-0.15789c0,0 2.27377,22.11138 3.84879,37.42778c0.03333,0.32411 -45.85927,-0.46528 -45.80843,-0.90792z" fill="#3e3e3e" stroke="#000000" stroke-width="0"/><path d="M296.89049,223.64476c0,-0.9665 0.7835,-1.75 1.75,-1.75c0.9665,0 1.75,0.7835 1.75,1.75c0,0.15622 -0.02047,0.30765 -0.05887,0.45177c-0.04319,0.2416 -0.1558,0.45915 -0.31644,0.63128c-0.32047,0.4062 -0.81712,0.66695 -1.37468,0.66695c-0.9665,0 -1.75,-0.7835 -1.75,-1.75z" fill="#3e3e3e" stroke="none" stroke-width="0.5"/><path d="M303.14901,224.56612c0,-0.0265 0.00083,-0.05281 0.00245,-0.0789c-0.02735,-0.12289 -0.04177,-0.25065 -0.04177,-0.38179c0,-0.9665 0.7835,-1.75 1.75,-1.75c0.26252,0 0.51154,0.0578 0.73502,0.16138c0.32101,-0.38043 0.80131,-0.62206 1.33805,-0.62206c0.9665,0 1.75,0.7835 1.75,1.75c0,0.9665 -0.7835,1.75 -1.75,1.75c-0.26252,0 -0.51153,-0.0578 -0.73501,-0.16137c-0.32101,0.38043 -0.80131,0.62206 -1.33805,0.62206c-0.13113,0 -0.25888,-0.01442 -0.38178,-0.04177c-0.02609,0.00162 -0.0524,0.00245 -0.0789,0.00245c-0.69036,0 -1.25,-0.55964 -1.25,-1.25z" fill="#3e3e3e" stroke="none" stroke-width="0.5"/><path d="M319.46102,224.05072c0.97609,0.78087 0.19522,1.75696 0.19522,1.75696l-0.92137,1.1517c0,0 -0.78087,0.97609 -1.75696,0.19522c-0.26213,-0.2097 -0.39754,-0.43348 -0.4554,-0.64865c-0.12115,0.02653 -0.247,0.04051 -0.37612,0.04051c-0.77698,0 -1.43569,-0.50635 -1.66415,-1.20708c-0.19925,-0.28414 -0.31619,-0.63021 -0.31619,-1.0036c0,-0.9665 0.7835,-1.75 1.75,-1.75c0.77698,0 1.4357,0.50635 1.66415,1.20708c0.08038,0.11461 0.14736,0.23931 0.19867,0.37181c0.21742,-0.21706 0.88461,-0.75198 1.68214,-0.11396z" fill="#3e3e3e" stroke="none" stroke-width="0.5"/><path d="M326.87414,226.86953c0,-0.47922 0.26967,-0.89545 0.66553,-1.10522c-0.29425,-0.31312 -0.47451,-0.7346 -0.47451,-1.19818c0,-0.9665 0.7835,-1.75 1.75,-1.75c0.9665,0 1.75,0.7835 1.75,1.75c0,0.82692 -0.57354,1.51987 -1.34452,1.70278c0.09785,0.17825 0.15349,0.38294 0.15349,0.60063c0,0.69036 -0.55964,1.25 -1.25,1.25c-0.69036,0 -1.25,-0.55964 -1.25,-1.25z" fill="#3e3e3e" stroke="none" stroke-width="0.5"/><path d="M331.67198,224.56612c0,-0.9665 0.7835,-1.75 1.75,-1.75c0.60466,0 1.13769,0.30666 1.45206,0.77294c0.70705,0.22475 1.21931,0.8866 1.21931,1.66809c0,0.9665 -0.7835,1.75 -1.75,1.75c-0.60466,0 -1.1377,-0.30666 -1.45206,-0.77294c-0.70705,-0.22475 -1.2193,-0.88659 -1.2193,-1.66808z" fill="#3e3e3e" stroke="none" stroke-width="0.5"/><path d="M337.23948,225.71783c0,-0.69036 0.55964,-1.25 1.25,-1.25c0.16553,0 0.32354,0.03217 0.46812,0.09061c0.26833,-0.6155 0.88035,-1.04673 1.59362,-1.05125c0.31966,-0.41996 0.82486,-0.69106 1.39337,-0.69106c0.9665,0 1.75,0.7835 1.75,1.75c0,0.96272 -0.77739,1.74387 -1.73868,1.74996c-0.31966,0.41996 -0.82486,0.69106 -1.39337,0.69106c-0.444,0 -0.84938,-0.16535 -1.15792,-0.43784c-0.22821,0.24517 -0.55377,0.39852 -0.91514,0.39852c-0.69036,0 -1.25,-0.55964 -1.25,-1.25z" fill="#3e3e3e" stroke="none" stroke-width="0.5"/><path d="M320.65493,224.10544c0,-0.69036 0.55964,-1.25 1.25,-1.25c0.47922,0 0.89545,0.26967 1.10523,0.66554c0.31311,-0.29425 0.7346,-0.47451 1.19819,-0.47451c0.9665,0 1.75,0.7835 1.75,1.75c0,0.9665 -0.7835,1.75 -1.75,1.75c-0.82691,0 -1.51988,-0.57353 -1.70279,-1.34451c-0.17825,0.09785 -0.38294,0.15349 -0.60063,0.15349c-0.69036,0 -1.25,-0.55964 -1.25,-1.25z" fill="#3e3e3e" stroke="none" stroke-width="0.5"/><path d="M295.73878,238.61693c0,-0.9665 0.7835,-1.75 1.75,-1.75c0.9665,0 1.75,0.7835 1.75,1.75c0,0.9665 -0.7835,1.75 -1.75,1.75c-0.9665,0 -1.75,-0.7835 -1.75,-1.75z" fill="#5c5c5c" stroke="none" stroke-width="0.5"/><path d="M300.3456,238.15624c0,-0.9665 0.7835,-1.75 1.75,-1.75c0.58956,0 1.11104,0.29155 1.42811,0.73833c0.28704,-0.5743 0.88063,-0.96866 1.56633,-0.96866c0.9665,0 1.75,0.7835 1.75,1.75c0,0.9665 -0.7835,1.75 -1.75,1.75c-0.58956,0 -1.11104,-0.29155 -1.42811,-0.73833c-0.28704,0.5743 -0.88062,0.96866 -1.56632,0.96866c-0.9665,0 -1.75,-0.7835 -1.75,-1.75z" fill="#5c5c5c" stroke="none" stroke-width="0.5"/><path d="M309.09856,238.61693c0,-0.9665 0.7835,-1.75 1.75,-1.75c0.9665,0 1.75,0.7835 1.75,1.75c0,0.9665 -0.7835,1.75 -1.75,1.75c-0.9665,0 -1.75,-0.7835 -1.75,-1.75z" fill="#5c5c5c" stroke="none" stroke-width="0.5"/><path d="M318.54254,238.38659c0,-0.9665 0.7835,-1.75 1.75,-1.75c0.32378,0 0.62702,0.08793 0.88714,0.24121c0.87419,0.09749 1.55388,0.83893 1.55388,1.73914c0,0.9665 -0.7835,1.75 -1.75,1.75c-0.32378,0 -0.62701,-0.08793 -0.88714,-0.24121c-0.87419,-0.09749 -1.55389,-0.83893 -1.55389,-1.73913z" fill="#5c5c5c" stroke="none" stroke-width="0.5"/><path d="M329.13823,238.84727c0,-0.9665 0.7835,-1.75 1.75,-1.75c0.24541,0 0.47903,0.05052 0.69102,0.14173c0.21199,-0.09121 0.44561,-0.14173 0.69103,-0.14173c0.9665,0 1.75,0.7835 1.75,1.75c0,0.9665 -0.7835,1.75 -1.75,1.75c-0.24541,0 -0.47904,-0.05052 -0.69103,-0.14172c-0.21199,0.09121 -0.44561,0.14172 -0.69102,0.14172c-0.9665,0 -1.75,-0.7835 -1.75,-1.75z" fill="#5c5c5c" stroke="none" stroke-width="0.5"/><path d="M337.20017,239.53829c0,-0.9665 0.7835,-1.75 1.75,-1.75c0.9665,0 1.75,0.7835 1.75,1.75c0,0.9665 -0.7835,1.75 -1.75,1.75c-0.9665,0 -1.75,-0.7835 -1.75,-1.75z" fill="#5c5c5c" stroke="none" stroke-width="0.5"/><path d="M340.88562,239.53829c0,-0.9665 0.7835,-1.75 1.75,-1.75c0.9665,0 1.75,0.7835 1.75,1.75c0,0.9665 -0.7835,1.75 -1.75,1.75c-0.9665,0 -1.75,-0.7835 -1.75,-1.75z" fill="#5c5c5c" stroke="none" stroke-width="0.5"/><path d="M294.58708,250.59466c0,-0.9665 0.7835,-1.75 1.75,-1.75c0.9665,0 1.75,0.7835 1.75,1.75c0,0.9665 -0.7835,1.75 -1.75,1.75c-0.9665,0 -1.75,-0.7835 -1.75,-1.75z" fill="#797979" stroke="none" stroke-width="0.5"/><path d="M342.03733,252.89807c0,-0.9665 0.7835,-1.75 1.75,-1.75c0.9665,0 1.75,0.7835 1.75,1.75c0,0.9665 -0.7835,1.75 -1.75,1.75c-0.9665,0 -1.75,-0.7835 -1.75,-1.75z" fill="#797979" stroke="none" stroke-width="0.5"/><path d="M321.53698,252.20705c0,-0.9665 0.7835,-1.75 1.75,-1.75c0.07808,0 0.15497,0.00512 0.23034,0.01503c0.07538,-0.00991 0.15226,-0.01503 0.23034,-0.01503c0.9665,0 1.75,0.7835 1.75,1.75c0,0.9665 -0.7835,1.75 -1.75,1.75c-0.07808,0 -0.15497,-0.00511 -0.23034,-0.01502c-0.07538,0.00991 -0.15226,0.01502 -0.23034,0.01502c-0.9665,0 -1.75,-0.7835 -1.75,-1.75z" fill="#797979" stroke="none" stroke-width="0.5"/><path d="M321.35152,253.12841c0,0.9665 -0.7835,1.75 -1.75,1.75c-0.14161,0 -0.27929,-0.01682 -0.41116,-0.04857c-0.23049,0.69719 -0.88745,1.20028 -1.66191,1.20028c-0.9665,0 -1.75,-0.7835 -1.75,-1.75c0,-0.9665 0.7835,-1.75 1.75,-1.75c0.01592,0 0.03178,0.00022 0.0476,0.00064c-0.1185,-0.23594 -0.18521,-0.50237 -0.18521,-0.78439c0,-0.9665 0.7835,-1.75 1.75,-1.75c0.9665,0 1.75,0.7835 1.75,1.75c0,0.0635 -0.00338,0.12622 -0.00997,0.18797c0.29197,0.31269 0.47066,0.73252 0.47066,1.19407z" fill="#797979" stroke="none" stroke-width="0.5"/><path d="M311.90754,251.74637c0,0.14239 -0.01701,0.28081 -0.0491,0.41334c0.08672,0.06138 0.1676,0.13045 0.24167,0.20622c-0.00471,-0.05233 -0.00711,-0.10533 -0.00711,-0.15888c0,-0.9665 0.7835,-1.75 1.75,-1.75c0.9665,0 1.75,0.7835 1.75,1.75c0,0.9665 -0.7835,1.75 -1.75,1.75c-0.49047,0 -0.9338,-0.20177 -1.25154,-0.52684c0.00471,0.05233 0.00711,0.10533 0.00711,0.15888c0,0.9665 -0.7835,1.75 -1.75,1.75c-0.9665,0 -1.75,-0.7835 -1.75,-1.75c0,-0.14239 0.017,-0.28081 0.04909,-0.41334c-0.21598,-0.15287 -0.3958,-0.35347 -0.52409,-0.58643c-0.5407,-0.29776 -0.90705,-0.87309 -0.90705,-1.53397c0,-0.9665 0.7835,-1.75 1.75,-1.75c0.66089,0 1.23622,0.36635 1.53397,0.90705c0.5407,0.29776 0.90705,0.87309 0.90705,1.53397z" fill="#797979" stroke="none" stroke-width="0.5"/><path d="M298.96356,252.66773c0,-0.9665 0.7835,-1.75 1.75,-1.75c0.29074,0 0.56492,0.0709 0.80619,0.19636c0.24127,-0.12545 0.51545,-0.19636 0.8062,-0.19636c0.9665,0 1.75,0.7835 1.75,1.75c0,0.9665 -0.7835,1.75 -1.75,1.75c-0.29074,0 -0.56492,-0.0709 -0.8062,-0.19635c-0.24127,0.12545 -0.51545,0.19635 -0.80619,0.19635c-0.9665,0 -1.75,-0.7835 -1.75,-1.75z" fill="#797979" stroke="none" stroke-width="0.5"/><path d="M338.12153,254.04978c0,-0.9665 0.7835,-1.75 1.75,-1.75c0.9665,0 1.75,0.7835 1.75,1.75c0,0.9665 -0.7835,1.75 -1.75,1.75c-0.9665,0 -1.75,-0.7835 -1.75,-1.75z" fill="#797979" stroke="none" stroke-width="0.5"/><path d="M332.27028,251.83909c0.2124,0 0.41596,0.03784 0.60431,0.10715c0.31198,-0.48041 0.85325,-0.79817 1.46875,-0.79817c0.9665,0 1.75,0.7835 1.75,1.75c0,0.9665 -0.7835,1.75 -1.75,1.75c-0.2124,0 -0.41596,-0.03784 -0.60431,-0.10715c-0.29505,0.45436 -0.79523,0.76323 -1.3693,0.7954c-0.16796,0.79121 -0.87058,1.38482 -1.71184,1.38482c-0.56185,0 -1.06185,-0.26477 -1.38205,-0.67635c-0.16516,-0.2123 -0.28249,-0.46365 -0.33578,-0.73788c-0.68804,-0.1337 -1.2321,-0.67049 -1.37649,-1.35465c-0.04307,0.00317 -0.08657,0.00479 -0.13046,0.00479c-0.9665,0 -1.75,-0.7835 -1.75,-1.75c0,-0.9665 0.7835,-1.75 1.75,-1.75c0.84198,0 1.54507,0.59462 1.71227,1.38684c0.04307,-0.00317 0.08658,-0.00479 0.13046,-0.00479c0.63466,0 1.19041,0.33785 1.49722,0.8435c0.30681,-0.50565 0.86256,-0.8435 1.49722,-0.8435z" fill="#797979" stroke="none" stroke-width="0.5"/><path d="M301.40458,224.92851c0.69036,0 1.25,0.55964 1.25,1.25c0,0.69036 -0.55964,1.25 -1.25,1.25c-0.20767,0 -0.40351,-0.05065 -0.57585,-0.14025c-0.17234,0.08961 -0.36819,0.14025 -0.57586,0.14025c-0.69036,0 -1.25,-0.55964 -1.25,-1.25c0,-0.69036 0.55964,-1.25 1.25,-1.25c0.20767,0 0.40352,0.05064 0.57586,0.14025c0.17234,-0.08961 0.36818,-0.14025 0.57585,-0.14025z" fill="#3e3e3e" stroke="none" stroke-width="0.5"/><path d="M308.44686,225.94817c0,-0.69036 0.55964,-1.25 1.25,-1.25c0.69036,0 1.25,0.55964 1.25,1.25c0,0.69036 -0.55964,1.25 -1.25,1.25c-0.69036,0 -1.25,-0.55964 -1.25,-1.25z" fill="#3e3e3e" stroke="none" stroke-width="0.5"/><path d="M315.45538,227.46226c0.69036,0 1.25,0.55964 1.25,1.25c0,0.69036 -0.55964,1.25 -1.25,1.25c-0.26987,0 -0.51977,-0.08552 -0.72407,-0.23094c-0.20508,0.41006 -0.62899,0.69163 -1.11866,0.69163c-0.69036,0 -1.25,-0.55964 -1.25,-1.25c0,-0.69036 0.55964,-1.25 1.25,-1.25c0.26987,0 0.51977,0.08552 0.72407,0.23094c0.20508,-0.41006 0.62899,-0.69163 1.11866,-0.69163z" fill="#3e3e3e" stroke="none" stroke-width="0.5"/><path d="M333.42198,228.15329c0.69036,0 1.25,0.55964 1.25,1.25c0,0.69036 -0.55964,1.25 -1.25,1.25c-0.37482,0 -0.71111,-0.16498 -0.94022,-0.42627c-0.1941,0.12403 -0.42474,0.19593 -0.67217,0.19593c-0.69036,0 -1.25,-0.55964 -1.25,-1.25c0,-0.69036 0.55964,-1.25 1.25,-1.25c0.37482,0 0.7111,0.16497 0.94021,0.42627c0.1941,-0.12403 0.42475,-0.19592 0.67218,-0.19592z" fill="#3e3e3e" stroke="none" stroke-width="0.5"/><path d="M296.69946,238.61693c0,-0.69036 0.55964,-1.25 1.25,-1.25c0.69036,0 1.25,0.55964 1.25,1.25c0,0.69036 -0.55964,1.25 -1.25,1.25c-0.69036,0 -1.25,-0.55964 -1.25,-1.25z" fill="#5c5c5c" stroke="none" stroke-width="0.5"/><path d="M304.03666,241.18435c1.11804,0.55901 0.55902,1.67705 0.55902,1.67705l-0.69103,1.38205c0,0 -0.55901,1.11803 -1.67705,0.55901c-0.04028,-0.02014 -0.07839,-0.04101 -0.11442,-0.06252c-0.22908,0.26046 -0.56482,0.42483 -0.93895,0.42483c-0.69036,0 -1.25,-0.55964 -1.25,-1.25c0,-0.69036 0.55964,-1.25 1.25,-1.25c0.23282,0 0.45078,0.06365 0.63742,0.1745l0.54796,-1.09591c0,0 0.55901,-1.11803 1.67705,-0.55902z" fill="#5c5c5c" stroke="none" stroke-width="0.5"/><path d="M304.99174,239.30795c0,-0.69036 0.55964,-1.25 1.25,-1.25c0.69036,0 1.25,0.55964 1.25,1.25c0,0.69036 -0.55964,1.25 -1.25,1.25c-0.69036,0 -1.25,-0.55964 -1.25,-1.25z" fill="#5c5c5c" stroke="none" stroke-width="0.5"/><path d="M307.75583,237.23488c0,-0.69036 0.55964,-1.25 1.25,-1.25c0.69036,0 1.25,0.55964 1.25,1.25c0,0.69036 -0.55964,1.25 -1.25,1.25c-0.69036,0 -1.25,-0.55964 -1.25,-1.25z" fill="#5c5c5c" stroke="none" stroke-width="0.5"/><path d="M313.51436,238.61693c0,-0.69036 0.55964,-1.25 1.25,-1.25c0.69036,0 1.25,0.55964 1.25,1.25c0,0.69036 -0.55964,1.25 -1.25,1.25c-0.69036,0 -1.25,-0.55964 -1.25,-1.25z" fill="#5c5c5c" stroke="none" stroke-width="0.5"/><path d="M319.73357,240.22931c0,-0.69036 0.55964,-1.25 1.25,-1.25c0.69036,0 1.25,0.55964 1.25,1.25c0,0.69036 -0.55964,1.25 -1.25,1.25c-0.69036,0 -1.25,-0.55964 -1.25,-1.25z" fill="#5c5c5c" stroke="none" stroke-width="0.5"/><path d="M328.48652,244.83613c0,-0.69036 0.55964,-1.25 1.25,-1.25c0.69036,0 1.25,0.55964 1.25,1.25c0,0.69036 -0.55964,1.25 -1.25,1.25c-0.69036,0 -1.25,-0.55964 -1.25,-1.25z" fill="#5c5c5c" stroke="none" stroke-width="0.5"/><path d="M331.02028,244.60579c0,-0.69036 0.55964,-1.25 1.25,-1.25c0.69036,0 1.25,0.55964 1.25,1.25c0,0.69036 -0.55964,1.25 -1.25,1.25c-0.69036,0 -1.25,-0.55964 -1.25,-1.25z" fill="#5c5c5c" stroke="none" stroke-width="0.5"/><path d="M325.72243,237.9259c0,-0.69036 0.55964,-1.25 1.25,-1.25c0.69036,0 1.25,0.55964 1.25,1.25c0,0.69036 -0.55964,1.25 -1.25,1.25c-0.69036,0 -1.25,-0.55964 -1.25,-1.25z" fill="#5c5c5c" stroke="none" stroke-width="0.5"/><path d="M334.47539,238.15624c0,-0.69036 0.55964,-1.25 1.25,-1.25c0.69036,0 1.25,0.55964 1.25,1.25c0,0.69036 -0.55964,1.25 -1.25,1.25c-0.69036,0 -1.25,-0.55964 -1.25,-1.25z" fill="#5c5c5c" stroke="none" stroke-width="0.5"/><path d="M340.46426,243.68443c0,-0.69036 0.55964,-1.25 1.25,-1.25c0.00601,0 0.01202,0.00004 0.01801,0.00013c-0.34699,-0.22212 -0.57698,-0.61097 -0.57698,-1.05354c0,-0.69036 0.55964,-1.25 1.25,-1.25c0.69036,0 1.25,0.55964 1.25,1.25c0,0.69036 -0.55964,1.25 -1.25,1.25c-0.00601,0 -0.01202,-0.00004 -0.01801,-0.00012c0.34699,0.22212 0.57698,0.61097 0.57698,1.05354c0,0.69036 -0.55964,1.25 -1.25,1.25c-0.69036,0 -1.25,-0.55964 -1.25,-1.25z" fill="#5c5c5c" stroke="none" stroke-width="0.5"/><path d="M294.85673,253.12841c0,-0.69036 0.55964,-1.25 1.25,-1.25c0.69036,0 1.25,0.55964 1.25,1.25c0,0.69036 -0.55964,1.25 -1.25,1.25c-0.69036,0 -1.25,-0.55964 -1.25,-1.25z" fill="#797979" stroke="none" stroke-width="0.5"/><path d="M300.58151,255.8925c0,0.69035 -0.55964,1.25 -1.25,1.25c-0.4085,0 -0.77123,-0.19595 -0.99933,-0.49899c-0.54126,-0.1373 -0.94169,-0.62774 -0.94169,-1.21169c0,-0.69036 0.55964,-1.25 1.25,-1.25c0.4085,0 0.77123,0.19595 0.99933,0.49899c0.54126,0.1373 0.94169,0.62774 0.94169,1.21169z" fill="#797979" stroke="none" stroke-width="0.5"/><path d="M306.93276,251.87841c0.69036,0 1.25,0.55964 1.25,1.25c0,0.69036 -0.55964,1.25 -1.25,1.25c-0.06123,0 -0.12143,-0.0044 -0.18031,-0.01291c-0.20736,0.15289 -0.46366,0.24325 -0.74106,0.24325c-0.69036,0 -1.25,-0.55964 -1.25,-1.25c0,-0.69036 0.55964,-1.25 1.25,-1.25c0.06123,0 0.12144,0.0044 0.18032,0.01291c0.20736,-0.15289 0.46365,-0.24325 0.74105,-0.24325z" fill="#797979" stroke="none" stroke-width="0.5"/><path d="M312.13231,254.7408c0,-0.69036 0.55964,-1.25 1.25,-1.25c0.69036,0 1.25,0.55964 1.25,1.25c0,0.69036 -0.55964,1.25 -1.25,1.25c-0.69036,0 -1.25,-0.55964 -1.25,-1.25z" fill="#797979" stroke="none" stroke-width="0.5"/><path d="M315.12675,257.50489c0,-0.69036 0.55964,-1.25 1.25,-1.25c0.69036,0 1.25,0.55964 1.25,1.25c0,0.69036 -0.55964,1.25 -1.25,1.25c-0.69036,0 -1.25,-0.55964 -1.25,-1.25z" fill="#797979" stroke="none" stroke-width="0.5"/><path d="M318.12118,259.34762c0,-0.69036 0.55964,-1.25 1.25,-1.25c0.69036,0 1.25,0.55964 1.25,1.25c0,0.69036 -0.55964,1.25 -1.25,1.25c-0.69036,0 -1.25,-0.55964 -1.25,-1.25z" fill="#797979" stroke="none" stroke-width="0.5"/><path d="M320.65493,257.50489c0,-0.69036 0.55964,-1.25 1.25,-1.25c0.69036,0 1.25,0.55964 1.25,1.25c0,0.69036 -0.55964,1.25 -1.25,1.25c-0.69036,0 -1.25,-0.55964 -1.25,-1.25z" fill="#797979" stroke="none" stroke-width="0.5"/><path d="M323.64936,253.12841c0,-0.69036 0.55964,-1.25 1.25,-1.25c0.69036,0 1.25,0.55964 1.25,1.25c0,0.69036 -0.55964,1.25 -1.25,1.25c-0.69036,0 -1.25,-0.55964 -1.25,-1.25z" fill="#797979" stroke="none" stroke-width="0.5"/><path d="M328.94721,252.89807c0,-0.69036 0.55964,-1.25 1.25,-1.25c0.69036,0 1.25,0.55964 1.25,1.25c0,0.69036 -0.55964,1.25 -1.25,1.25c-0.69036,0 -1.25,-0.55964 -1.25,-1.25z" fill="#797979" stroke="none" stroke-width="0.5"/><path d="M334.70573,255.20148c0,-0.69036 0.55964,-1.25 1.25,-1.25c0.69036,0 1.25,0.55964 1.25,1.25c0,0.69036 -0.55964,1.25 -1.25,1.25c-0.69036,0 -1.25,-0.55964 -1.25,-1.25z" fill="#797979" stroke="none" stroke-width="0.5"/><path d="M338.39119,258.42626c0,-0.69036 0.55964,-1.25 1.25,-1.25c0.69036,0 1.25,0.55964 1.25,1.25c0,0.69036 -0.55964,1.25 -1.25,1.25c-0.69036,0 -1.25,-0.55964 -1.25,-1.25z" fill="#797979" stroke="none" stroke-width="0.5"/><path d="M340.00358,255.66216c0,-0.69036 0.55964,-1.25 1.25,-1.25c0.69036,0 1.25,0.55964 1.25,1.25c0,0.69035 -0.55964,1.25 -1.25,1.25c-0.69036,0 -1.25,-0.55964 -1.25,-1.25z" fill="#797979" stroke="none" stroke-width="0.5"/><path d="M297.19946,232.8584c0,-0.41422 0.33578,-0.75 0.75,-0.75c0.41422,0 0.75,0.33578 0.75,0.75c0,0.41422 -0.33578,0.75 -0.75,0.75c-0.41422,0 -0.75,-0.33578 -0.75,-0.75z" fill="#3e3e3e" stroke="none" stroke-width="0.5"/><path d="M308.48617,231.01567c0,-0.41422 0.33578,-0.75 0.75,-0.75c0.41422,0 0.75,0.33578 0.75,0.75c0,0.41422 -0.33578,0.75 -0.75,0.75c-0.41422,0 -0.75,-0.33578 -0.75,-0.75z" fill="#3e3e3e" stroke="none" stroke-width="0.5"/><path d="M309.86822,234.70113c0,-0.41422 0.33578,-0.75 0.75,-0.75c0.41422,0 0.75,0.33578 0.75,0.75c0,0.41422 -0.33578,0.75 -0.75,0.75c-0.41422,0 -0.75,-0.33578 -0.75,-0.75z" fill="#3e3e3e" stroke="none" stroke-width="0.5"/><path d="M302.49731,233.08874c0,-0.41422 0.33578,-0.75 0.75,-0.75c0.41422,0 0.75,0.33578 0.75,0.75c0,0.41422 -0.33578,0.75 -0.75,0.75c-0.41422,0 -0.75,-0.33578 -0.75,-0.75z" fill="#3e3e3e" stroke="none" stroke-width="0.5"/><path d="M328.75618,235.62249c0,-0.41422 0.33578,-0.75 0.75,-0.75c0.41422,0 0.75,0.33578 0.75,0.75c0,0.41422 -0.33578,0.75 -0.75,0.75c-0.41422,0 -0.75,-0.33578 -0.75,-0.75z" fill="#3e3e3e" stroke="none" stroke-width="0.5"/><path d="M337.96983,234.93147c0,-0.41422 0.33578,-0.75 0.75,-0.75c0.41422,0 0.75,0.33578 0.75,0.75c0,0.41422 -0.33578,0.75 -0.75,0.75c-0.41422,0 -0.75,-0.33578 -0.75,-0.75z" fill="#3e3e3e" stroke="none" stroke-width="0.5"/><path d="M296.73878,245.52716c0,-0.41421 0.33579,-0.75 0.75,-0.75c0.41421,0 0.75,0.33579 0.75,0.75c0,0.41421 -0.33579,0.75 -0.75,0.75c-0.41421,0 -0.75,-0.33579 -0.75,-0.75z" fill="#5c5c5c" stroke="none" stroke-width="0.5"/><path d="M300.88492,249.21261c0,-0.41421 0.33579,-0.75 0.75,-0.75c0.41421,0 0.75,0.33579 0.75,0.75c0,0.41421 -0.33579,0.75 -0.75,0.75c-0.41421,0 -0.75,-0.33579 -0.75,-0.75z" fill="#5c5c5c" stroke="none" stroke-width="0.5"/><path d="M307.79515,245.29681c0,-0.41421 0.33579,-0.75 0.75,-0.75c0.41421,0 0.75,0.33579 0.75,0.75c0,0.41421 -0.33579,0.75 -0.75,0.75c-0.41421,0 -0.75,-0.33579 -0.75,-0.75z" fill="#5c5c5c" stroke="none" stroke-width="0.5"/><path d="M304.80071,242.53272c0,-0.41421 0.33579,-0.75 0.75,-0.75c0.41421,0 0.75,0.33579 0.75,0.75c0,0.41421 -0.33579,0.75 -0.75,0.75c-0.41421,0 -0.75,-0.33579 -0.75,-0.75z" fill="#5c5c5c" stroke="none" stroke-width="0.5"/><path d="M315.3964,242.9934c0,-0.41421 0.33579,-0.75 0.75,-0.75c0.41421,0 0.75,0.33579 0.75,0.75c0,0.41421 -0.33579,0.75 -0.75,0.75c-0.41421,0 -0.75,-0.33579 -0.75,-0.75z" fill="#5c5c5c" stroke="none" stroke-width="0.5"/><path d="M316.08743,246.67886c0,-0.41421 0.33579,-0.75 0.75,-0.75c0.41421,0 0.75,0.33579 0.75,0.75c0,0.41421 -0.33579,0.75 -0.75,0.75c-0.41421,0 -0.75,-0.33579 -0.75,-0.75z" fill="#5c5c5c" stroke="none" stroke-width="0.5"/><path d="M323.68868,249.90363c0,-0.41421 0.33579,-0.75 0.75,-0.75c0.41421,0 0.75,0.33579 0.75,0.75c0,0.41421 -0.33579,0.75 -0.75,0.75c-0.41421,0 -0.75,-0.33579 -0.75,-0.75z" fill="#5c5c5c" stroke="none" stroke-width="0.5"/><path d="M332.2113,241.61136c0,-0.41421 0.33579,-0.75 0.75,-0.75c0.41421,0 0.75,0.33579 0.75,0.75c0,0.41421 -0.33579,0.75 -0.75,0.75c-0.41421,0 -0.75,-0.33579 -0.75,-0.75z" fill="#5c5c5c" stroke="none" stroke-width="0.5"/><path d="M340.96426,247.60022c0,-0.41421 0.33579,-0.75 0.75,-0.75c0.41421,0 0.75,0.33579 0.75,0.75c0,0.41421 -0.33579,0.75 -0.75,0.75c-0.41421,0 -0.75,-0.33579 -0.75,-0.75z" fill="#5c5c5c" stroke="none" stroke-width="0.5"/><path d="M299.96355,260.49932c0,-0.41421 0.33579,-0.75 0.75,-0.75c0.41421,0 0.75,0.33579 0.75,0.75c0,0.41421 -0.33579,0.75 -0.75,0.75c-0.41421,0 -0.75,-0.33579 -0.75,-0.75z" fill="#797979" stroke="none" stroke-width="0.5"/><path d="M304.80071,257.04421c0,-0.41421 0.33579,-0.75 0.75,-0.75c0.41421,0 0.75,0.33579 0.75,0.75c0,0.41421 -0.33579,0.75 -0.75,0.75c-0.41421,0 -0.75,-0.33579 -0.75,-0.75z" fill="#797979" stroke="none" stroke-width="0.5"/><path d="M317.46947,262.57239c0,-0.41421 0.33579,-0.75 0.75,-0.75c0.41421,0 0.75,0.33579 0.75,0.75c0,0.41421 -0.33579,0.75 -0.75,0.75c-0.41421,0 -0.75,-0.33579 -0.75,-0.75z" fill="#797979" stroke="none" stroke-width="0.5"/><path d="M329.44721,266.02751c0,-0.41421 0.33579,-0.75 0.75,-0.75c0.41421,0 0.75,0.33579 0.75,0.75c0,0.41421 -0.33579,0.75 -0.75,0.75c-0.41421,0 -0.75,-0.33579 -0.75,-0.75z" fill="#797979" stroke="none" stroke-width="0.5"/><path d="M337.73948,262.80273c0,-0.41421 0.33579,-0.75 0.75,-0.75c0.41421,0 0.75,0.33579 0.75,0.75c0,0.41421 -0.33579,0.75 -0.75,0.75c-0.41421,0 -0.75,-0.33579 -0.75,-0.75z" fill="#797979" stroke="none" stroke-width="0.5"/></g><g><path d="M346.04985,104.92572c0,0 35.50261,-13.06503 48.36536,-17.22711c8.16272,-2.64127 21.34645,-5.33 21.34645,-5.33c0,0 -10.07251,14.19708 -15.21198,22.44668c-5.9106,9.48737 -18.2627,31.28502 -18.2627,31.28502z" fill="#242424" stroke="#000000" stroke-width="0" stroke-linecap="butt"/><path d="M257.87881,131.78237c0,0 -12.3521,-21.79765 -18.2627,-31.28502c-5.13947,-8.24959 -15.21197,-22.44667 -15.21197,-22.44667c0,0 13.18373,2.68873 21.34645,5.33c12.86274,4.16208 48.36536,17.22711 48.36536,17.22711z" fill="#242424" stroke="#000000" stroke-width="0" stroke-linecap="butt"/><path d="M255.36489,148.57226c0,-33.30185 28.7599,-60.29833 64.23702,-60.29833c35.47713,0 64.23702,26.99648 64.23702,60.29833c0,33.30185 -28.75989,60.29834 -64.23702,60.29834c-35.47712,0 -64.23702,-26.99649 -64.23702,-60.29834z" fill="#808080" stroke="#000000" stroke-width="0" stroke-linecap="butt"/><path d="M255.36489,148.57226c0,-33.30185 28.7599,-60.29833 64.23702,-60.29833c35.47713,0 64.23702,26.99648 64.23702,60.29833c0,3.10958 -0.25076,6.16419 -0.73433,9.14697c-0.06624,0.40861 -127.33069,-2.28435 -127.38882,-2.80651c-0.23198,-2.08374 -0.35089,-4.19907 -0.35089,-6.34046z" fill="#797979" stroke="#000000" stroke-width="0" stroke-linecap="butt"/><path d="M260.12348,125.75458c9.5836,-21.98898 32.60371,-37.48065 59.47843,-37.48065c27.15747,0 50.37877,15.81934 59.77644,38.17681c0.07374,0.17543 -119.25818,-0.68856 -119.25487,-0.69615z" fill="#3e3e3e" stroke="#000000" stroke-width="0" stroke-linecap="butt"/><path d="M255.73935,142.02358c0.81279,-7.06436 2.92537,-13.76297 6.1087,-19.88084c0.07196,-0.13828 115.83224,0.63305 115.83446,0.63744c3.03836,6.01807 5.04647,12.58371 5.81048,19.49623c0.05856,0.52989 0.10983,1.06182 0.15368,1.5957c0.0009,0.01101 -127.90943,-1.83006 -127.90731,-1.84852z" fill="#5c5c5c" stroke="#000000" stroke-width="0" stroke-linecap="butt"/><path d="M268.99199,152.09974c0,-12.96801 10.51265,-23.48065 23.48066,-23.48065c12.96801,0 23.48065,10.51264 23.48065,23.48065c0,12.96801 -10.51264,23.48066 -23.48065,23.48066c-12.96801,0 -23.48066,-10.51265 -23.48066,-23.48066z" fill-opacity="0.30588" fill="#000000" stroke="#000000" stroke-width="0" stroke-linecap="butt"/><path d="M346.73112,175.58042c-12.96801,0 -23.48065,-10.51265 -23.48065,-23.48066c0,-12.96801 10.51264,-23.48065 23.48065,-23.48065c12.96801,0 23.48066,10.51264 23.48066,23.48065c0,12.96801 -10.51265,23.48066 -23.48066,23.48066z" fill-opacity="0.30588" fill="#000000" stroke="#000000" stroke-width="0" stroke-linecap="butt"/><path d="M268.99199,148.84787c0,-12.96801 10.51265,-23.48065 23.48066,-23.48065c12.96801,0 23.48065,10.51264 23.48065,23.48065c0,12.96801 -10.51264,23.48066 -23.48065,23.48066c-12.96801,0 -23.48066,-10.51265 -23.48066,-23.48066z" fill="#ffffff" stroke="#000000" stroke-width="0" stroke-linecap="butt"/><path d="M276.90145,149.63832c0,-8.29964 6.72818,-15.02784 15.02783,-15.02784c8.29964,0 15.02784,6.72819 15.02784,15.02785c0,8.29964 -6.72819,15.02785 -15.02784,15.02785c-8.29964,0 -15.02783,-6.72819 -15.02783,-15.02785z" fill="#ffffff" stroke="#000000" stroke-width="3" stroke-linecap="butt"/><path d="M346.73112,172.32856c-12.96801,0 -23.48065,-10.51265 -23.48065,-23.48066c0,-12.96801 10.51264,-23.48065 23.48065,-23.48065c12.96801,0 23.48066,10.51264 23.48066,23.48065c0,12.96801 -10.51265,23.48066 -23.48066,23.48066z" fill="#ffffff" stroke="#000000" stroke-width="0" stroke-linecap="butt"/><path d="M362.05646,149.42511c0,8.29966 -6.72818,15.02785 -15.02783,15.02785c-8.29964,0 -15.02784,-6.72821 -15.02784,-15.02785c0,-8.29966 6.7282,-15.02785 15.02784,-15.02785c8.29964,0 15.02783,6.7282 15.02783,15.02784z" fill="#ffffff" stroke="#000000" stroke-width="3" stroke-linecap="butt"/><path d="M326.30785,198.97241l-13.43227,-0.21321" fill="none" stroke="#000000" stroke-width="1" stroke-linecap="round"/><path d="M272.79245,180.70298c0,-0.55229 0.44772,-1 1,-1c0.55228,0 1,0.44771 1,1c0,0.55229 -0.44772,1 -1,1c-0.55228,0 -1,-0.44771 -1,-1z" fill="#000000" stroke="none" stroke-width="0" stroke-linecap="butt"/><path d="M284.39135,177.71538c0,-0.55229 0.44772,-1 1,-1c0.55228,0 1,0.44771 1,1c0,0.55229 -0.44772,1 -1,1c-0.55228,0 -1,-0.44771 -1,-1z" fill="#000000" stroke="none" stroke-width="0" stroke-linecap="butt"/><path d="M279.99782,189.49002c0,-0.55229 0.44772,-1 1,-1c0.55228,0 1,0.44771 1,1c0,0.55229 -0.44772,1 -1,1c-0.55228,0 -1,-0.44771 -1,-1z" fill="#000000" stroke="none" stroke-width="0" stroke-linecap="butt"/><path d="M349.59121,178.94557c0,-0.55229 0.44772,-1 1,-1c0.55228,0 1,0.44771 1,1c0,0.55229 -0.44772,1 -1,1c-0.55228,0 -1,-0.44771 -1,-1z" fill="#000000" stroke="none" stroke-width="0" stroke-linecap="butt"/><path d="M364.35344,181.93316c0,-0.55229 0.44772,-1 1,-1c0.55228,0 1,0.44771 1,1c0,0.55229 -0.44772,1 -1,1c-0.55228,0 -1,-0.44771 -1,-1z" fill="#000000" stroke="none" stroke-width="0" stroke-linecap="butt"/><path d="M349.59121,192.8291c0,-0.55229 0.44772,-1 1,-1c0.55228,0 1,0.44771 1,1c0,0.55229 -0.44772,1 -1,1c-0.55228,0 -1,-0.44771 -1,-1z" fill="#000000" stroke="none" stroke-width="0" stroke-linecap="butt"/><path d="M363.36871,172.25906c0.24999,0.00239 0.2476,0.25238 0.2476,0.25238l-0.00196,0.20451c-0.06482,3.07255 -0.59167,6.30112 -0.72607,9.42627c-0.62383,2.82733 -1.08378,7.29689 -4.89887,6.03685c0,0 -0.23717,-0.07906 -0.15812,-0.31623c0.07905,-0.23717 0.31622,-0.15812 0.31622,-0.15812c3.38182,1.1388 3.67966,-3.11259 4.24498,-5.62737c0.1209,-3.08976 0.73673,-6.33235 0.72186,-9.36618l0.00196,-0.20451c0,0 0.00239,-0.24999 0.25238,-0.2476z" fill="#5c5c5c" stroke="none" stroke-width="0.5" stroke-linecap="butt"/><path d="M355.77777,191.37768c0.24968,0.01271 0.23697,0.26238 0.23697,0.26238l-0.03789,0.35382c-0.70848,1.42309 -1.06781,1.83155 -2.82459,1.25269c0,0 -0.23717,-0.07906 -0.15811,-0.31623c0.07905,-0.23717 0.31623,-0.15811 0.31623,-0.15811c1.57055,0.53034 1.63452,0.22689 2.21672,-0.9968l-0.01171,-0.16078c0,0 0.0127,-0.24967 0.26238,-0.23697z" fill="#5c5c5c" stroke="none" stroke-width="0.5" stroke-linecap="butt"/><path d="M269.61752,122.65709c0.69036,0 1.25,0.55965 1.25,1.25c0,0.69035 -0.55964,1.25 -1.25,1.25c-0.07869,0 -0.15568,-0.00728 -0.23034,-0.02118c-0.07466,0.0139 -0.15166,0.02118 -0.23034,0.02118c-0.69036,0 -1.25,-0.55965 -1.25,-1.25c0,-0.13656 0.02189,-0.26799 0.06237,-0.391c-0.28303,0.58546 -0.88258,0.98929 -1.57646,0.98929c-0.38278,0 -0.73686,-0.12289 -1.02493,-0.33138c-0.18362,0.06542 -0.38138,0.10104 -0.58746,0.10104c-0.20175,0 -0.39551,-0.03414 -0.57585,-0.09696c-0.18034,0.06282 -0.37411,0.09696 -0.57585,0.09696c-0.9665,0 -1.75,-0.7835 -1.75,-1.75c0,-0.9665 0.7835,-1.75 1.75,-1.75c0.20175,0 0.39552,0.03413 0.57585,0.09695c0.18034,-0.06282 0.3741,-0.09695 0.57585,-0.09695c0.38278,0 0.73686,0.12289 1.02493,0.33138c0.18362,-0.06542 0.38138,-0.10104 0.58746,-0.10104c0.9665,0 1.75,0.7835 1.75,1.75c0,0.2047 -0.03514,0.40118 -0.09972,0.58375c0.20686,-0.40486 0.62796,-0.68205 1.11381,-0.68205c0.07869,0 0.15569,0.00728 0.23034,0.02118c0.07466,-0.0139 0.15165,-0.02118 0.23034,-0.02118z" fill="#3e3e3e" stroke="none" stroke-width="0.5" stroke-linecap="butt"/><path d="M373.962,125.38743c-0.05926,0 -0.11755,-0.00412 -0.1746,-0.01209l-1.82317,-0.2279c0,0 -0.5718,-0.07147 -0.8904,-0.50559c-0.1778,0.06086 -0.36852,0.09388 -0.56695,0.09388c-0.07808,0 -0.15497,-0.00512 -0.23034,-0.01503c-0.07538,0.00991 -0.15226,0.01503 -0.23034,0.01503c-0.37847,0 -0.72887,-0.12014 -1.01516,-0.32437c-0.11602,0.03557 -0.23922,0.0547 -0.36689,0.0547c-0.69036,0 -1.25,-0.55965 -1.25,-1.25c0,-0.67669 0.53771,-1.2278 1.20916,-1.24935c0.31756,-0.44264 0.83655,-0.73099 1.42289,-0.73099c0.07808,0 0.15497,0.00511 0.23034,0.01502c0.07538,-0.00991 0.15226,-0.01502 0.23034,-0.01502c0.83931,0 1.54062,0.59086 1.71067,1.37931c0.07149,-0.90087 0.82519,-1.60965 1.74445,-1.60965c0.62229,0 1.16872,0.3248 1.479,0.81413c0.29329,-0.22186 0.65866,-0.35345 1.05476,-0.35345c0.9665,0 1.75,0.7835 1.75,1.75c0,0.9665 -0.7835,1.75 -1.75,1.75c-0.51947,0 -0.98607,-0.22633 -1.30657,-0.58576c-0.11797,0.67099 -0.57228,0.89811 -0.92826,0.97116c-0.09578,0.0235 -0.1959,0.03596 -0.29892,0.03596z" fill="#3e3e3e" stroke="none" stroke-width="0.5" stroke-linecap="butt"/><path d="M355.89711,125.0588c0,-0.69035 0.55964,-1.25 1.25,-1.25c0.29699,0 0.56979,0.10357 0.78424,0.27657c-0.14686,-0.25611 -0.23084,-0.5529 -0.23084,-0.8693c0,-0.31658 0.08407,-0.61353 0.23109,-0.86974c-0.0005,-0.01715 -0.00075,-0.03436 -0.00075,-0.05163c0,-0.9665 0.7835,-1.75 1.75,-1.75c0.79832,0 1.47179,0.53455 1.68199,1.26525c0.19311,-0.07337 0.40258,-0.11354 0.62142,-0.11354c0.9665,0 1.75,0.7835 1.75,1.75c0,0.9665 -0.7835,1.75 -1.75,1.75c-0.55816,0 -1.05529,-0.26132 -1.37572,-0.66827c-0.30856,0.27254 -0.71398,0.43793 -1.15803,0.43793c-0.45537,0 -0.87011,-0.17392 -1.18144,-0.45897c0.08197,0.16639 0.12803,0.35367 0.12803,0.5517c0,0.69035 -0.55964,1.25 -1.25,1.25c-0.69036,0 -1.25,-0.55965 -1.25,-1.25z" fill="#3e3e3e" stroke="none" stroke-width="0.5" stroke-linecap="butt"/><path d="M349.91381,123.44641c0,0.9665 -0.7835,1.75 -1.75,1.75c-0.66976,0 -1.25165,-0.37626 -1.54582,-0.92893c-0.8897,-0.08258 -1.58622,-0.83116 -1.58622,-1.74244c0,-0.9665 0.7835,-1.75 1.75,-1.75c0.66976,0 1.25165,0.37625 1.54582,0.92892c0.8897,0.08258 1.58623,0.83116 1.58623,1.74244z" fill="#3e3e3e" stroke="none" stroke-width="0.5" stroke-linecap="butt"/><path d="M341.34631,122.29471c0,-0.9665 0.7835,-1.75 1.75,-1.75c0.9665,0 1.75,0.7835 1.75,1.75c0,0.9665 -0.7835,1.75 -1.75,1.75c-0.9665,0 -1.75,-0.7835 -1.75,-1.75z" fill="#3e3e3e" stroke="none" stroke-width="0.5" stroke-linecap="butt"/><path d="M334.2113,124.13743c0,0.69035 -0.55964,1.25 -1.25,1.25c-0.57045,0 -1.05165,-0.38212 -1.2016,-0.90436c-0.83328,-0.13412 -1.46976,-0.85657 -1.46976,-1.72768c0,-0.78149 0.51225,-1.44334 1.2193,-1.66809c0.31437,-0.46628 0.8474,-0.77294 1.45206,-0.77294c0.9665,0 1.75,0.7835 1.75,1.75c0,0.57145 -0.2739,1.07893 -0.69758,1.39831c0.12505,0.19464 0.19758,0.42623 0.19758,0.67476z" fill="#3e3e3e" stroke="none" stroke-width="0.5" stroke-linecap="butt"/><path d="M325.91902,126.2105c0,0.69035 -0.55964,1.25 -1.25,1.25c-0.58396,0 -1.07439,-0.40043 -1.21169,-0.94169c-0.30304,-0.2281 -0.49899,-0.59083 -0.49899,-0.99934c0,-0.48328 0.27426,-0.90251 0.67564,-1.11052c-0.68438,-0.23768 -1.17564,-0.88826 -1.17564,-1.65357c0,-0.9665 0.7835,-1.75 1.75,-1.75c0.9665,0 1.75,0.7835 1.75,1.75c0,0.76531 -0.49127,1.41588 -1.17565,1.65357c0.31301,0.16222 0.54872,0.45288 0.63734,0.80221c0.30304,0.2281 0.49899,0.59083 0.49899,0.99934z" fill="#3e3e3e" stroke="none" stroke-width="0.5" stroke-linecap="butt"/><path d="M318.31777,123.44641c0,0.4085 -0.19595,0.77123 -0.49899,0.99933c-0.1373,0.54126 -0.62774,0.94169 -1.21169,0.94169c-0.69036,0 -1.25,-0.55965 -1.25,-1.25c0,-0.11204 0.01474,-0.22063 0.04239,-0.32394c-0.05185,-0.00163 -0.10314,-0.00551 -0.15376,-0.01156c-0.31911,0.42702 -0.82863,0.70346 -1.40272,0.70346c-0.32802,0 -0.63496,-0.09024 -0.89734,-0.24726c-0.31889,0.42957 -0.82997,0.70794 -1.40607,0.70794c-0.23856,0 -0.46598,-0.04774 -0.6732,-0.13417c-0.14739,0.06112 -0.30901,0.09486 -0.4785,0.09486c-0.69036,0 -1.25,-0.55965 -1.25,-1.25c0,-0.53167 0.33194,-0.98582 0.79988,-1.16651c0.27137,-0.61495 0.88647,-1.04418 1.60183,-1.04418c0.32802,0 0.63497,0.09025 0.89735,0.24727c0.31889,-0.42957 0.82996,-0.70795 1.40606,-0.70795c0.07096,0 0.14093,0.00422 0.20968,0.01243c0.31911,-0.42702 0.82863,-0.70346 1.40272,-0.70346c0.24541,0 0.47904,0.05052 0.69102,0.14173c0.21199,-0.09121 0.44561,-0.14173 0.69102,-0.14173c0.9665,0 1.75,0.7835 1.75,1.75c0,0.37847 -0.12014,0.72887 -0.32437,1.01516c0.03557,0.11602 0.05471,0.23922 0.05471,0.36689z" fill="#3e3e3e" stroke="none" stroke-width="0.5" stroke-linecap="butt"/><path d="M297.12083,121.83402c0,-0.9665 0.7835,-1.75 1.75,-1.75c0.66976,0 1.25165,0.37626 1.54582,0.92893c0.8897,0.08258 1.58622,0.83116 1.58622,1.74244c0,0.9665 -0.7835,1.75 -1.75,1.75c-0.66976,0 -1.25164,-0.37626 -1.54581,-0.92893c-0.8897,-0.08258 -1.58623,-0.83116 -1.58623,-1.74244z" fill="#3e3e3e" stroke="none" stroke-width="0.5" stroke-linecap="butt"/><path d="M294.03367,120.54471c0.9665,0 1.75,0.7835 1.75,1.75c0,0.9665 -0.7835,1.75 -1.75,1.75c-0.5512,0 -1.04289,-0.25484 -1.36366,-0.65313c-0.25453,0.65194 -0.88871,1.11381 -1.63077,1.11381c-0.36636,0 -0.70642,-0.11258 -0.98749,-0.30503c-0.24454,-0.05948 -0.46093,-0.19089 -0.6255,-0.37055c-0.32022,0.41113 -0.81995,0.67557 -1.38144,0.67557c-0.9665,0 -1.75,-0.7835 -1.75,-1.75c0,-0.9665 0.7835,-1.75 1.75,-1.75c0.63466,0 1.19041,0.33784 1.49722,0.8435c0.30681,-0.50566 0.86256,-0.8435 1.49721,-0.8435c0.5512,0 1.0429,0.25484 1.36367,0.65313c0.25453,-0.65194 0.88871,-1.11381 1.63077,-1.11381z" fill="#3e3e3e" stroke="none" stroke-width="0.5" stroke-linecap="butt"/><path d="M275.93502,124.59812c0,0.69035 -0.55964,1.25 -1.25,1.25c-0.4085,0 -0.77123,-0.19596 -0.99933,-0.499c-0.54126,-0.1373 -0.94169,-0.62774 -0.94169,-1.21169c0,-0.47394 0.26376,-0.88627 0.65251,-1.09822c-0.00054,-0.01776 -0.0008,-0.0356 -0.0008,-0.05348c0,-0.9665 0.7835,-1.75 1.75,-1.75c0.20608,0 0.40384,0.03562 0.58746,0.10104c0.28807,-0.20849 0.64214,-0.33138 1.02492,-0.33138c0.9665,0 1.75,0.7835 1.75,1.75c0,0.9665 -0.7835,1.75 -1.75,1.75c-0.20608,0 -0.40384,-0.03562 -0.58746,-0.10104c-0.07464,0.05402 -0.15372,0.1023 -0.23657,0.14418c0.00064,0.01645 0.00097,0.03299 0.00097,0.0496z" fill="#3e3e3e" stroke="none" stroke-width="0.5" stroke-linecap="butt"/><path d="M285.60934,124.82846c0,0.69035 -0.55964,1.25 -1.25,1.25c-0.65696,0 -1.19555,-0.50681 -1.24612,-1.15078c-0.11812,0.02515 -0.24065,0.03839 -0.36627,0.03839c-0.9665,0 -1.75,-0.7835 -1.75,-1.75c0,-0.9665 0.7835,-1.75 1.75,-1.75c0.9665,0 1.75,0.7835 1.75,1.75c0,0.12562 -0.01323,0.24815 -0.03839,0.36627c0.64397,0.05057 1.15077,0.58916 1.15077,1.24612z" fill="#3e3e3e" stroke="none" stroke-width="0.5" stroke-linecap="butt"/><path d="M303.14901,123.21607c0,-0.25432 0.07595,-0.4909 0.20641,-0.6883c-0.01015,-0.07625 -0.01538,-0.15404 -0.01538,-0.23306c0,-0.9665 0.7835,-1.75 1.75,-1.75c0.9665,0 1.75,0.7835 1.75,1.75c0,0.87754 -0.64592,1.60423 -1.48825,1.73056c-0.22929,0.2697 -0.57105,0.4408 -0.95277,0.4408c-0.69036,0 -1.25,-0.55965 -1.25,-1.25z" fill="#3e3e3e" stroke="none" stroke-width="0.5" stroke-linecap="butt"/><path d="M335.35744,121.83402c0,-0.9665 0.7835,-1.75 1.75,-1.75c0.9665,0 1.75,0.7835 1.75,1.75c0,0.9665 -0.7835,1.75 -1.75,1.75c-0.9665,0 -1.75,-0.7835 -1.75,-1.75z" fill="#3e3e3e" stroke="none" stroke-width="0.5" stroke-linecap="butt"/><path d="M255.65944,142.33438c0,-0.9665 0.7835,-1.75 1.75,-1.75c0.9665,0 1.75,0.7835 1.75,1.75c0,0.9665 -0.7835,1.75 -1.75,1.75c-0.9665,0 -1.75,-0.7835 -1.75,-1.75z" fill="#5c5c5c" stroke="none" stroke-width="0.5" stroke-linecap="butt"/><path d="M268.92649,140.12369c0.9665,0 0.9665,3.5 0,3.5c-0.44405,0 -0.84947,-0.16539 -1.15803,-0.43793c-0.32043,0.40696 -0.81756,0.66826 -1.37572,0.66826c-0.11828,0 -0.23381,-0.01173 -0.34551,-0.0341c-0.11169,0.02237 -0.22724,0.0341 -0.34552,0.0341c-0.9665,0 -1.75,-0.7835 -1.75,-1.75c0,-0.9665 0.7835,-1.75 1.75,-1.75c0.11828,0 0.23382,0.01174 0.34552,0.03411c0.11169,-0.02237 0.22723,-0.03411 0.34551,-0.03411c0.44405,0 0.84947,0.16539 1.15803,0.43793c0.32043,-0.40696 0.81756,-0.66826 1.37572,-0.66826z" fill="#5c5c5c" stroke="none" stroke-width="0.5" stroke-linecap="butt"/><path d="M322.13527,140.81472c0.9665,0 1.75,0.7835 1.75,1.75c0,0.9665 -0.7835,1.75 -1.75,1.75c-0.87084,0 -1.59312,-0.63609 -1.72756,-1.46899c-0.13444,0.83291 -0.85672,1.46899 -1.72755,1.46899c-0.24541,0 -0.47904,-0.05052 -0.69103,-0.14173c-0.21199,0.09121 -0.44561,0.14173 -0.69102,0.14173c-0.9665,0 -1.75,-0.7835 -1.75,-1.75c0,-0.9665 0.7835,-1.75 1.75,-1.75c0.24541,0 0.47904,0.05051 0.69102,0.14172c0.21199,-0.09121 0.44561,-0.14172 0.69103,-0.14172c0.87084,0 1.59312,0.63608 1.72755,1.46899c0.13444,-0.83291 0.85672,-1.46899 1.72756,-1.46899z" fill="#5c5c5c" stroke="none" stroke-width="0.5" stroke-linecap="butt"/><path d="M369.44791,143.48608c0,-0.9665 0.7835,-1.75 1.75,-1.75c0.9665,0 1.75,0.7835 1.75,1.75c0,0.9665 -0.7835,1.75 -1.75,1.75c-0.9665,0 -1.75,-0.7835 -1.75,-1.75z" fill="#5c5c5c" stroke="none" stroke-width="0.5" stroke-linecap="butt"/><path d="M378.33848,141.73608c0.9665,0 1.75,0.7835 1.75,1.75c0,0.9665 -0.7835,1.75 -1.75,1.75c-0.63466,0 -1.1904,-0.33784 -1.49721,-0.8435c-0.30681,0.50565 -0.86257,0.8435 -1.49722,0.8435c-0.9665,0 -1.75,-0.7835 -1.75,-1.75c0,-0.9665 0.7835,-1.75 1.75,-1.75c0.63466,0 1.19041,0.33785 1.49722,0.8435c0.30681,-0.50565 0.86256,-0.8435 1.49721,-0.8435z" fill="#5c5c5c" stroke="none" stroke-width="0.5" stroke-linecap="butt"/><path d="M380.27394,143.71642c0,-0.9665 0.7835,-1.75 1.75,-1.75c0.9665,0 1.75,0.7835 1.75,1.75c0,0.9665 -0.7835,1.75 -1.75,1.75c-0.9665,0 -1.75,-0.7835 -1.75,-1.75z" fill="#5c5c5c" stroke="none" stroke-width="0.5" stroke-linecap="butt"/><path d="M255.65944,154.54244c0,-0.9665 0.7835,-1.75 1.75,-1.75c0.9665,0 1.75,0.7835 1.75,1.75c0,0.9665 -0.7835,1.75 -1.75,1.75c-0.9665,0 -1.75,-0.7835 -1.75,-1.75z" fill="#797979" stroke="none" stroke-width="0.5" stroke-linecap="butt"/><path d="M260.72694,154.54244c0,-0.9665 0.7835,-1.75 1.75,-1.75c0.9665,0 1.75,0.7835 1.75,1.75c0,0.9665 -0.7835,1.75 -1.75,1.75c-0.9665,0 -1.75,-0.7835 -1.75,-1.75z" fill="#797979" stroke="none" stroke-width="0.5" stroke-linecap="butt"/><path d="M264.87308,154.31211c0,-0.9665 0.7835,-1.75 1.75,-1.75c0.9665,0 1.75,0.7835 1.75,1.75c0,0.9665 -0.7835,1.75 -1.75,1.75c-0.9665,0 -1.75,-0.7835 -1.75,-1.75z" fill="#797979" stroke="none" stroke-width="0.5" stroke-linecap="butt"/><path d="M379.81326,156.84586c0,-0.9665 0.7835,-1.75 1.75,-1.75c0.9665,0 1.75,0.7835 1.75,1.75c0,0.9665 -0.7835,1.75 -1.75,1.75c-0.9665,0 -1.75,-0.7835 -1.75,-1.75z" fill="#797979" stroke="none" stroke-width="0.5" stroke-linecap="butt"/><path d="M371.29064,157.30654c0,-0.9665 0.7835,-1.75 1.75,-1.75c0.19779,0 0.38791,0.03281 0.56522,0.09329c0.31932,-0.34094 0.77353,-0.55397 1.27751,-0.55397c0.58956,0 1.11104,0.29154 1.42811,0.73832c0.28704,-0.5743 0.88062,-0.96867 1.56632,-0.96867c0.9665,0 1.75,0.7835 1.75,1.75c0,0.9665 -0.7835,1.75 -1.75,1.75c-0.58956,0 -1.11104,-0.29154 -1.42811,-0.73832c-0.28704,0.5743 -0.88062,0.96866 -1.56632,0.96866c-0.19779,0 -0.38791,-0.03281 -0.56522,-0.09329c-0.31932,0.34094 -0.77353,0.55397 -1.27751,0.55397c-0.9665,0 -1.75,-0.7835 -1.75,-1.75z" fill="#797979" stroke="none" stroke-width="0.5" stroke-linecap="butt"/><path d="M320.75323,154.63518c0.9665,0 1.75,0.7835 1.75,1.75c0,0.9665 -0.7835,1.75 -1.75,1.75c-0.6857,0 -1.27929,-0.39437 -1.56633,-0.96867c-0.31707,0.44678 -0.83855,0.73833 -1.42811,0.73833c-0.9665,0 -1.75,-0.7835 -1.75,-1.75c0,-0.9665 0.7835,-1.75 1.75,-1.75c0.6857,0 1.27929,0.39437 1.56632,0.96867c0.31707,-0.44678 0.83855,-0.73833 1.42811,-0.73833z" fill="#797979" stroke="none" stroke-width="0.5" stroke-linecap="butt"/><path d="M263.7607,127.36221c0,-0.69035 0.55964,-1.25 1.25,-1.25c0.69036,0 1.25,0.55965 1.25,1.25c0,0.69035 -0.55964,1.25 -1.25,1.25c-0.69036,0 -1.25,-0.55964 -1.25,-1.25z" fill="#3e3e3e" stroke="none" stroke-width="0.5" stroke-linecap="butt"/><path d="M314.99469,126.80323c1.25,0 1.25,1.25 1.25,1.25c0,0.46068 0,1.1517 0,1.61238c0,0 0,1.25 -1.25,1.25c-0.04316,0 -0.08484,-0.00149 -0.12508,-0.00437c-0.0347,0.00289 -0.06981,0.00437 -0.10526,0.00437c-0.69036,0 -1.25,-0.55964 -1.25,-1.25c0,-0.2695 0.08528,-0.51908 0.23034,-0.72322c0,-0.21961 0,-0.43922 0,-0.65883v-0.23034c0,0 0,-1.25 1.25,-1.25z" fill="#3e3e3e" stroke="none" stroke-width="0.5" stroke-linecap="butt"/><path d="M328.81516,123.8088c0.69036,0 1.25,0.55965 1.25,1.25c0,0.58396 -0.40043,1.07439 -0.94169,1.21169c-0.2281,0.30304 -0.59083,0.49899 -0.99933,0.49899c-0.69036,0 -1.25,-0.55965 -1.25,-1.25c0,-0.58396 0.40043,-1.07439 0.94169,-1.21169c0.2281,-0.30304 0.59083,-0.49899 0.99933,-0.49899z" fill="#3e3e3e" stroke="none" stroke-width="0.5" stroke-linecap="butt"/><path d="M353.5937,123.44641c0,-0.69035 0.55964,-1.25 1.25,-1.25c0.69036,0 1.25,0.55965 1.25,1.25c0,0.69035 -0.55964,1.25 -1.25,1.25c-0.69036,0 -1.25,-0.55965 -1.25,-1.25z" fill="#3e3e3e" stroke="none" stroke-width="0.5" stroke-linecap="butt"/><path d="M359.58256,126.90153c0,-0.69035 0.55964,-1.25 1.25,-1.25c0.69036,0 1.25,0.55965 1.25,1.25c0,0.69035 -0.55964,1.25 -1.25,1.25c-0.69036,0 -1.25,-0.55964 -1.25,-1.25z" fill="#3e3e3e" stroke="none" stroke-width="0.5" stroke-linecap="butt"/><path d="M364.88041,127.59255c0,-0.69035 0.55964,-1.25 1.25,-1.25c0.69036,0 1.25,0.55965 1.25,1.25c0,0.69036 -0.55964,1.25 -1.25,1.25c-0.69036,0 -1.25,-0.55964 -1.25,-1.25z" fill="#3e3e3e" stroke="none" stroke-width="0.5" stroke-linecap="butt"/><path d="M255.9291,141.41301c0,-0.69036 0.55964,-1.25 1.25,-1.25c0.69036,0 1.25,0.55964 1.25,1.25c0,0.69036 -0.55964,1.25 -1.25,1.25c-0.69036,0 -1.25,-0.55964 -1.25,-1.25z" fill="#5c5c5c" stroke="none" stroke-width="0.5" stroke-linecap="butt"/><path d="M262.2466,143.84847c0.69036,0 1.25,0.55964 1.25,1.25c0,0.56145 -0.37016,1.03645 -0.87975,1.19426c-0.36323,0.28609 -0.83093,0.28608 -0.83093,0.28608l-0.85051,-0.16469c-0.53746,-0.30712 -1.07493,-0.61424 -1.61239,-0.92136c0,0 -1.08531,-0.62017 -0.46513,-1.70548c0.62018,-1.08531 1.70548,-0.46513 1.70548,-0.46513c0.37962,0.21693 0.75924,0.43385 1.13886,0.65078c0.16456,-0.07973 0.34925,-0.12445 0.54438,-0.12445z" fill="#5c5c5c" stroke="none" stroke-width="0.5" stroke-linecap="butt"/><path d="M266.39274,141.31472c0.69036,0 1.25,0.55964 1.25,1.25c0,0.69036 -0.55964,1.25 -1.25,1.25c-0.39649,0 -0.74986,-0.1846 -0.97886,-0.47253c-0.05649,0.00781 -0.1142,0.01185 -0.17284,0.01185c-0.31256,0 -0.59833,-0.11472 -0.8175,-0.30435c-0.22596,0.32326 -0.60091,0.53469 -1.02524,0.53469c-0.69036,0 -1.25,-0.55964 -1.25,-1.25c0,-0.69036 0.55964,-1.25 1.25,-1.25c0.31256,0 0.59833,0.11472 0.8175,0.30435c0.22596,-0.32326 0.60091,-0.53469 1.02524,-0.53469c0.39649,0 0.74986,0.1846 0.97886,0.47253c0.05649,-0.00781 0.1142,-0.01185 0.17284,-0.01185z" fill="#5c5c5c" stroke="none" stroke-width="0.5" stroke-linecap="butt"/><path d="M317.89084,143.0254c0,-0.69036 0.55964,-1.25 1.25,-1.25c0.69036,0 1.25,0.55964 1.25,1.25c0,0.69036 -0.55964,1.25 -1.25,1.25c-0.69036,0 -1.25,-0.55964 -1.25,-1.25z" fill="#5c5c5c" stroke="none" stroke-width="0.5" stroke-linecap="butt"/><path d="M320.19425,144.40744c0,-0.69036 0.55964,-1.25 1.25,-1.25c0.69036,0 1.25,0.55964 1.25,1.25c0,0.69036 -0.55964,1.25 -1.25,1.25c-0.69036,0 -1.25,-0.55964 -1.25,-1.25z" fill="#5c5c5c" stroke="none" stroke-width="0.5" stroke-linecap="butt"/><path d="M372.94234,145.09847c0,-0.69036 0.55964,-1.25 1.25,-1.25c0.69036,0 1.25,0.55964 1.25,1.25c0,0.69036 -0.55964,1.25 -1.25,1.25c-0.69036,0 -1.25,-0.55964 -1.25,-1.25z" fill="#5c5c5c" stroke="none" stroke-width="0.5" stroke-linecap="butt"/><path d="M374.78507,148.32324c0,-0.69036 0.55964,-1.25 1.25,-1.25c0.69036,0 1.25,0.55964 1.25,1.25c0,0.69036 -0.55964,1.25 -1.25,1.25c-0.69036,0 -1.25,-0.55964 -1.25,-1.25z" fill="#5c5c5c" stroke="none" stroke-width="0.5" stroke-linecap="butt"/><path d="M378.47053,148.32324c0,-0.69036 0.55964,-1.25 1.25,-1.25c0.69036,0 1.25,0.55964 1.25,1.25c0,0.69036 -0.55964,1.25 -1.25,1.25c-0.69036,0 -1.25,-0.55964 -1.25,-1.25z" fill="#5c5c5c" stroke="none" stroke-width="0.5" stroke-linecap="butt"/><path d="M382.02394,143.61813c0.01603,0 0.032,0.0003 0.04789,0.0009c0.37066,0.00011 0.87685,0.13607 1.12106,0.80537c0.01196,0.0315 0.02269,0.06361 0.03213,0.09627c0.20675,0.68224 -0.11634,1.09496 -0.41283,1.31764c-0.12291,0.09998 -0.26517,0.17708 -0.42031,0.22478l-1.3547,0.45156c0,0 -1.18586,0.39529 -1.58114,-0.79057c-0.39529,-1.18586 0.79057,-1.58114 0.79057,-1.58114l1.35437,-0.45146c0.1321,-0.04749 0.27451,-0.07337 0.42296,-0.07337z" fill="#5c5c5c" stroke="none" stroke-width="0.5" stroke-linecap="butt"/><path d="M258.92353,160.07063c0,-0.69036 0.55964,-1.25 1.25,-1.25c0.69036,0 1.25,0.55964 1.25,1.25c0,0.69036 -0.55964,1.25 -1.25,1.25c-0.69036,0 -1.25,-0.55964 -1.25,-1.25z" fill="#797979" stroke="none" stroke-width="0.5" stroke-linecap="butt"/><path d="M260.30557,155.9245c0,-0.69036 0.55964,-1.25 1.25,-1.25c0.69036,0 1.25,0.55964 1.25,1.25c0,0.69036 -0.55964,1.25 -1.25,1.25c-0.69036,0 -1.25,-0.55964 -1.25,-1.25z" fill="#797979" stroke="none" stroke-width="0.5" stroke-linecap="butt"/><path d="M265.37308,156.61551c0,-0.69036 0.55964,-1.25 1.25,-1.25c0.69036,0 1.25,0.55964 1.25,1.25c0,0.69036 -0.55964,1.25 -1.25,1.25c-0.69036,0 -1.25,-0.55964 -1.25,-1.25z" fill="#797979" stroke="none" stroke-width="0.5" stroke-linecap="butt"/><path d="M268.13718,158.68858c0,-0.69036 0.55964,-1.25 1.25,-1.25c0.69036,0 1.25,0.55964 1.25,1.25c0,0.69036 -0.55964,1.25 -1.25,1.25c-0.69036,0 -1.25,-0.55964 -1.25,-1.25z" fill="#797979" stroke="none" stroke-width="0.5" stroke-linecap="butt"/><path d="M321.21391,156.05654c0.69036,0 1.25,0.55964 1.25,1.25c0,0.69036 -0.55964,1.25 -1.25,1.25c-0.43148,0 -0.81191,-0.21862 -1.03654,-0.55114c-0.22463,0.33252 -0.60505,0.55114 -1.03654,0.55114c-0.69036,0 -1.25,-0.55964 -1.25,-1.25c0,-0.69036 0.55964,-1.25 1.25,-1.25c0.43148,0 0.81191,0.21862 1.03654,0.55113c0.22463,-0.33252 0.60505,-0.55113 1.03654,-0.55113z" fill="#797979" stroke="none" stroke-width="0.5" stroke-linecap="butt"/><path d="M319.73357,159.84029c0,-0.69036 0.55964,-1.25 1.25,-1.25c0.69036,0 1.25,0.55964 1.25,1.25c0,0.69036 -0.55964,1.25 -1.25,1.25c-0.69036,0 -1.25,-0.55964 -1.25,-1.25z" fill="#797979" stroke="none" stroke-width="0.5" stroke-linecap="butt"/><path d="M376.85814,158.45825c0,-0.69036 0.55964,-1.25 1.25,-1.25c0.69036,0 1.25,0.55964 1.25,1.25c0,0.69036 -0.55964,1.25 -1.25,1.25c-0.32222,0 -0.61597,-0.12192 -0.83762,-0.32215c0.00948,0.06976 0.01455,0.14427 0.01455,0.22385c0,0.82369 -0.54276,1.1046 -0.91298,1.20041c-0.27839,0.27839 -0.55679,0.55679 -0.83518,0.83518c0,0 -0.23421,0.23421 -0.58208,0.34094c-0.84162,0.69414 -1.64637,-0.1106 -1.64637,-0.1106l0.25825,0.07163c-0.46068,-0.15356 -0.92136,-0.30712 -1.38205,-0.46068c0,0 -1.0107,-0.33689 -0.85492,-1.32172c-0.64432,-0.05023 -1.1515,-0.58898 -1.1515,-1.24618c0,-0.69036 0.55964,-1.25 1.25,-1.25c0.69036,0 1.25,0.55964 1.25,1.25c0,0.04701 -0.00259,0.09341 -0.00765,0.13907c0.18088,0.01587 0.30464,0.05712 0.30464,0.05712c0.38914,0.12972 0.77828,0.25942 1.16742,0.38914c0.25939,-0.2594 0.5188,-0.5188 0.77819,-0.77819l1.11423,-0.36612c0,0 0.47374,0 0.83793,0.29165c-0.00979,-0.06302 -0.01486,-0.12759 -0.01486,-0.19335z" fill="#797979" stroke="none" stroke-width="0.5" stroke-linecap="butt"/><path d="M379.62223,157.99757c0,-0.69036 0.55964,-1.25 1.25,-1.25c0.69036,0 1.25,0.55964 1.25,1.25c0,0.69036 -0.55964,1.25 -1.25,1.25c-0.69036,0 -1.25,-0.55964 -1.25,-1.25z" fill="#797979" stroke="none" stroke-width="0.5" stroke-linecap="butt"/><path d="M261.26626,133.58142c0,-0.41422 0.33578,-0.75 0.75,-0.75c0.41422,0 0.75,0.33578 0.75,0.75c0,0.41422 -0.33578,0.75 -0.75,0.75c-0.41422,0 -0.75,-0.33578 -0.75,-0.75z" fill="#3e3e3e" stroke="none" stroke-width="0.5" stroke-linecap="butt"/><path d="M267.94615,129.20494c0,-0.41422 0.33578,-0.75 0.75,-0.75c0.41422,0 0.75,0.33578 0.75,0.75c0,0.41422 -0.33578,0.75 -0.75,0.75c-0.41422,0 -0.75,-0.33578 -0.75,-0.75z" fill="#3e3e3e" stroke="none" stroke-width="0.5" stroke-linecap="butt"/><path d="M317.00879,131.27801c0,-0.41422 0.33578,-0.75 0.75,-0.75c0.41422,0 0.75,0.33578 0.75,0.75c0,0.41422 -0.33578,0.75 -0.75,0.75c-0.41422,0 -0.75,-0.33578 -0.75,-0.75z" fill="#3e3e3e" stroke="none" stroke-width="0.5" stroke-linecap="butt"/><path d="M322.30664,129.66562c0,-0.41422 0.33578,-0.75 0.75,-0.75c0.41422,0 0.75,0.33578 0.75,0.75c0,0.41422 -0.33578,0.75 -0.75,0.75c-0.41422,0 -0.75,-0.33578 -0.75,-0.75z" fill="#3e3e3e" stroke="none" stroke-width="0.5" stroke-linecap="butt"/><path d="M368.1445,132.42971c0,-0.41422 0.33578,-0.75 0.75,-0.75c0.41422,0 0.75,0.33578 0.75,0.75c0,0.41422 -0.33578,0.75 -0.75,0.75c-0.41422,0 -0.75,-0.33578 -0.75,-0.75z" fill="#3e3e3e" stroke="none" stroke-width="0.5" stroke-linecap="butt"/><path d="M372.0603,126.2105c0,-0.41421 0.33578,-0.75 0.75,-0.75c0.41422,0 0.75,0.33579 0.75,0.75c0,0.41421 -0.33578,0.75 -0.75,0.75c-0.41422,0 -0.75,-0.33579 -0.75,-0.75z" fill="#3e3e3e" stroke="none" stroke-width="0.5" stroke-linecap="butt"/><path d="M378.74019,134.27244c0,-0.41422 0.33578,-0.75 0.75,-0.75c0.41422,0 0.75,0.33578 0.75,0.75c0,0.41422 -0.33578,0.75 -0.75,0.75c-0.41422,0 -0.75,-0.33578 -0.75,-0.75z" fill="#3e3e3e" stroke="none" stroke-width="0.5" stroke-linecap="butt"/><path d="M373.67269,131.73869c0,-0.41422 0.33578,-0.75 0.75,-0.75c0.41422,0 0.75,0.33578 0.75,0.75c0,0.41422 -0.33578,0.75 -0.75,0.75c-0.41422,0 -0.75,-0.33578 -0.75,-0.75z" fill="#3e3e3e" stroke="none" stroke-width="0.5" stroke-linecap="butt"/><path d="M257.81115,148.78392c0,-0.41422 0.33578,-0.75 0.75,-0.75c0.41422,0 0.75,0.33578 0.75,0.75c0,0.41422 -0.33578,0.75 -0.75,0.75c-0.41422,0 -0.75,-0.33578 -0.75,-0.75z" fill="#5c5c5c" stroke="none" stroke-width="0.5" stroke-linecap="butt"/><path d="M265.4124,147.17153c0,-0.41421 0.33579,-0.75 0.75,-0.75c0.41421,0 0.75,0.33579 0.75,0.75c0,0.41421 -0.33579,0.75 -0.75,0.75c-0.41421,0 -0.75,-0.33579 -0.75,-0.75z" fill="#5c5c5c" stroke="none" stroke-width="0.5" stroke-linecap="butt"/><path d="M317.46947,146.01983c0,-0.41421 0.33579,-0.75 0.75,-0.75c0.41421,0 0.75,0.33579 0.75,0.75c0,0.41421 -0.33579,0.75 -0.75,0.75c-0.41421,0 -0.75,-0.33579 -0.75,-0.75z" fill="#5c5c5c" stroke="none" stroke-width="0.5" stroke-linecap="butt"/><path d="M320.23356,148.0929c0,-0.41421 0.33579,-0.75 0.75,-0.75c0.41421,0 0.75,0.33579 0.75,0.75c0,0.41421 -0.33579,0.75 -0.75,0.75c-0.41421,0 -0.75,-0.33579 -0.75,-0.75z" fill="#5c5c5c" stroke="none" stroke-width="0.5" stroke-linecap="butt"/><path d="M371.36927,151.31767c0,-0.41421 0.33579,-0.75 0.75,-0.75c0.41421,0 0.75,0.33579 0.75,0.75c0,0.41421 -0.33579,0.75 -0.75,0.75c-0.41421,0 -0.75,-0.33579 -0.75,-0.75z" fill="#5c5c5c" stroke="none" stroke-width="0.5" stroke-linecap="butt"/><path d="M378.2795,151.08733c0,-0.41421 0.33579,-0.75 0.75,-0.75c0.41421,0 0.75,0.33579 0.75,0.75c0,0.41421 -0.33579,0.75 -0.75,0.75c-0.41421,0 -0.75,-0.33579 -0.75,-0.75z" fill="#5c5c5c" stroke="none" stroke-width="0.5" stroke-linecap="butt"/><path d="M374.59405,153.62108c0,-0.41421 0.33579,-0.75 0.75,-0.75c0.41421,0 0.75,0.33579 0.75,0.75c0,0.41421 -0.33579,0.75 -0.75,0.75c-0.41421,0 -0.75,-0.33579 -0.75,-0.75z" fill="#5c5c5c" stroke="none" stroke-width="0.5" stroke-linecap="butt"/><path d="M261.03592,164.21677c0,-0.41421 0.33579,-0.75 0.75,-0.75c0.41421,0 0.75,0.33579 0.75,0.75c0,0.41421 -0.33579,0.75 -0.75,0.75c-0.41421,0 -0.75,-0.33579 -0.75,-0.75z" fill="#797979" stroke="none" stroke-width="0.5" stroke-linecap="butt"/><path d="M264.03035,161.68302c0,-0.41421 0.33579,-0.75 0.75,-0.75c0.41421,0 0.75,0.33579 0.75,0.75c0,0.41421 -0.33579,0.75 -0.75,0.75c-0.41421,0 -0.75,-0.33579 -0.75,-0.75z" fill="#797979" stroke="none" stroke-width="0.5" stroke-linecap="butt"/><path d="M315.62674,164.21677c0,-0.41421 0.33579,-0.75 0.75,-0.75c0.41421,0 0.75,0.33579 0.75,0.75c0,0.41421 -0.33579,0.75 -0.75,0.75c-0.41421,0 -0.75,-0.33579 -0.75,-0.75z" fill="#797979" stroke="none" stroke-width="0.5" stroke-linecap="butt"/><path d="M321.84595,165.36848c0,-0.14875 0.04331,-0.28739 0.118,-0.40399c-0.01947,0.00152 -0.03916,0.00229 -0.05902,0.00229c-0.41421,0 -0.75,-0.33579 -0.75,-0.75c0,-0.41421 0.33579,-0.75 0.75,-0.75c0.41421,0 0.75,0.33579 0.75,0.75c0,0.14875 -0.04331,0.28739 -0.118,0.40399c0.01947,-0.00152 0.03916,-0.00229 0.05902,-0.00229c0.41421,0 0.75,0.33579 0.75,0.75c0,0.41421 -0.33579,0.75 -0.75,0.75c-0.41421,0 -0.75,-0.33579 -0.75,-0.75z" fill="#797979" stroke="none" stroke-width="0.5" stroke-linecap="butt"/><path d="M369.2962,164.90779c0,-0.41421 0.33579,-0.75 0.75,-0.75c0.41421,0 0.75,0.33579 0.75,0.75c0,0.41421 -0.33579,0.75 -0.75,0.75c-0.41421,0 -0.75,-0.33579 -0.75,-0.75z" fill="#797979" stroke="none" stroke-width="0.5" stroke-linecap="butt"/><path d="M377.58848,165.13813c0,-0.41421 0.33579,-0.75 0.75,-0.75c0.41421,0 0.75,0.33579 0.75,0.75c0,0.41421 -0.33579,0.75 -0.75,0.75c-0.41421,0 -0.75,-0.33579 -0.75,-0.75z" fill="#797979" stroke="none" stroke-width="0.5" stroke-linecap="butt"/><path d="M376.43678,169.05393c0,-0.41421 0.33579,-0.75 0.75,-0.75c0.41421,0 0.75,0.33579 0.75,0.75c0,0.41421 -0.33579,0.75 -0.75,0.75c-0.41421,0 -0.75,-0.33579 -0.75,-0.75z" fill="#797979" stroke="none" stroke-width="0.5" stroke-linecap="butt"/></g></g></g></svg>