<svg version="1.1" xmlns="http://www.w3.org/2000/svg" xmlns:xlink="http://www.w3.org/1999/xlink" width="234.8546" height="303.75498" viewBox="0,0,234.8546,303.75498"><defs><radialGradient cx="332.80225" cy="160.26389" r="23.96061" gradientUnits="userSpaceOnUse" id="color-1"><stop offset="0" stop-color="#ffffff"/><stop offset="1" stop-color="#ff9494"/></radialGradient></defs><g transform="translate(-192.85105,-15.3173)"><g stroke-miterlimit="10"><path d="M228.22353,236.45368c0,0 27.74203,13.4215 40.61018,7.025c11.09288,-5.51405 15.48312,-28.90108 15.48312,-28.90108l9.50833,15.26957c0,0 -8.10471,25.50143 -18.47831,30.65794c-13.17558,6.54932 -41.11499,-7.61519 -41.11499,-7.61519z" fill="#ff7be1" stroke="none" stroke-width="0" stroke-linecap="butt"/><path d="M214.52362,306.61253v-267.72501c0,0 32.72627,0 56.15261,0c39.17509,0 157.02942,0 157.02942,0v267.72501z" fill="none" stroke="none" stroke-width="0" stroke-linecap="butt"/><g stroke-width="0" stroke-linecap="butt"><path d="M337.75954,74.57222c-0.16978,2.20261 -1.64659,3.88494 -3.29854,3.75761c-1.65195,-0.12734 -2.85349,-2.01613 -2.68371,-4.21873c0.16978,-2.20261 1.64659,-3.88494 3.29854,-3.75761c1.65195,0.12734 2.85349,2.01613 2.68371,4.21873z" fill="#942c3b" stroke="none"/><path d="M343.97132,78.56141c-0.10611,1.37663 -1.6429,2.38078 -3.43252,2.24283c-1.78962,-0.13795 -3.15437,-1.36575 -3.04825,-2.74238c0.10611,-1.37663 1.6429,-2.38078 3.43252,-2.24283c1.78962,0.13795 3.15437,1.36575 3.04825,2.74238z" fill="#942c3b" stroke="none"/><path d="M349.63759,76.61614c-0.14325,1.85845 -1.26376,3.2876 -2.50273,3.1921c-1.23896,-0.0955 -2.12722,-1.67949 -1.98396,-3.53794c0.14325,-1.85845 1.26376,-3.2876 2.50273,-3.1921c1.23896,0.0955 2.12722,1.67949 1.98396,3.53794z" fill="#942c3b" stroke="none"/><path d="M355.90598,86.37675c-0.23875,3.09741 -1.15769,5.55245 -2.0525,5.48348c-0.89481,-0.06897 -1.42664,-2.63584 -1.18789,-5.73325c0.23875,-3.09741 1.15769,-5.55245 2.0525,-5.48348c0.89481,0.06897 1.42664,2.63584 1.18789,5.73325z" fill="#942c3b" stroke="none"/><path d="M362.85492,97.06743c-0.07428,0.96364 -1.02728,1.67601 -2.12858,1.59112c-1.1013,-0.08489 -1.93387,-0.93489 -1.85959,-1.89853c0.07428,-0.96364 1.02728,-1.67601 2.12858,-1.59112c1.1013,0.08489 1.93387,0.93489 1.85959,1.89853z" fill="#942c3b" stroke="none"/><path d="M370.19824,99.38865c-0.08489,1.1013 -0.8791,1.93817 -1.7739,1.8692c-0.89481,-0.06897 -1.55138,-1.01767 -1.46649,-2.11897c0.08489,-1.1013 0.8791,-1.93817 1.7739,-1.8692c0.89481,0.06897 1.55138,1.01767 1.46649,2.11897z" fill="#942c3b" stroke="none"/><path d="M378.73074,99.29413c-0.10611,1.37663 -1.19652,2.41519 -2.43548,2.31968c-1.23896,-0.0955 -2.15732,-1.2889 -2.05121,-2.66553c0.10611,-1.37663 1.19652,-2.41519 2.43548,-2.31968c1.23896,0.0955 2.15732,1.2889 2.05121,2.66553z" fill="#942c3b" stroke="none"/><path d="M359.04927,94.39204c-0.17509,2.27143 -1.09821,4.05258 -2.06185,3.97831c-0.96364,-0.07428 -1.60289,-1.97586 -1.4278,-4.24729c0.17509,-2.27143 1.09821,-4.05258 2.06185,-3.97831c0.96364,0.07428 1.60289,1.97586 1.4278,4.24729z" fill="#942c3b" stroke="none"/><path d="M341.82405,77.14219c-0.14856,1.92728 -2.05455,3.35201 -4.25716,3.18223c-2.20261,-0.16978 -3.86774,-1.86978 -3.71918,-3.79706c0.14856,-1.92728 2.05455,-3.35201 4.25716,-3.18223c2.20261,0.16978 3.86774,1.86978 3.71918,3.79706z" fill="#942c3b" stroke="none"/><path d="M348.30482,77.64174c-0.0955,1.23896 -1.3447,2.15302 -2.79016,2.0416c-1.44546,-0.11142 -2.53982,-1.20612 -2.44431,-2.44509c0.0955,-1.23896 1.3447,-2.15302 2.79016,-2.0416c1.44546,0.11142 2.53982,1.20612 2.44431,2.44509z" fill="#942c3b" stroke="none"/><path d="M338.28688,74.23675c-0.11142,1.44546 -2.04311,2.4753 -4.31454,2.30021c-2.27143,-0.17509 -4.02248,-1.4888 -3.91106,-2.93426c0.11142,-1.44546 2.04311,-2.4753 4.31454,-2.30021c2.27143,0.17509 4.02248,1.4888 3.91106,2.93426z" fill="#942c3b" stroke="none"/><path d="M357.13256,89.98168c-0.10081,1.3078 -0.96371,2.30776 -1.92735,2.23348c-0.96364,-0.07428 -1.6631,-1.19467 -1.5623,-2.50247c0.10081,-1.3078 0.96371,-2.30776 1.92735,-2.23348c0.96364,0.07428 1.6631,1.19467 1.5623,2.50247z" fill="#942c3b" stroke="none"/><path d="M363.05614,97.70979c-0.07958,1.03247 -1.14848,1.79203 -2.38745,1.69653c-1.23896,-0.0955 -2.17883,-1.00991 -2.09924,-2.04238c0.07958,-1.03247 1.14848,-1.79203 2.38745,-1.69653c1.23896,0.0955 2.17883,1.00991 2.09924,2.04238z" fill="#942c3b" stroke="none"/><path d="M367.6576,99.81967c-0.03714,0.48182 -0.62523,0.8294 -1.31355,0.77634c-0.68832,-0.05306 -1.2162,-0.48666 -1.17906,-0.96848c0.03714,-0.48182 0.62523,-0.8294 1.31355,-0.77634c0.68832,0.05306 1.2162,0.48666 1.17906,0.96848z" fill="#942c3b" stroke="none"/><path d="M374.69454,99.60987c-0.06897,0.89481 -1.01767,1.55138 -2.11897,1.46649c-1.1013,-0.08489 -1.93817,-0.8791 -1.8692,-1.7739c0.06897,-0.89481 1.01767,-1.55138 2.11897,-1.46649c1.1013,0.08489 1.93817,0.8791 1.8692,1.7739z" fill="#942c3b" stroke="none"/><path d="M365.88396,100.05907c-0.08489,1.1013 -1.38129,1.89946 -2.89557,1.78274c-1.51429,-0.11672 -2.67305,-1.10413 -2.58816,-2.20543c0.08489,-1.1013 1.38129,-1.89946 2.89557,-1.78274c1.51429,0.11672 2.67305,1.10413 2.58816,2.20543z" fill="#942c3b" stroke="none"/><path d="M361.83866,97.23983c-0.08489,1.1013 -1.26969,1.90806 -2.64631,1.80195c-1.37663,-0.10611 -2.42379,-1.08492 -2.3389,-2.18622c0.08489,-1.1013 1.26969,-1.90806 2.64631,-1.80195c1.37663,0.10611 2.42379,1.08492 2.3389,2.18622z" fill="#942c3b" stroke="none"/><path d="M355.52326,81.58316c-0.17509,2.27143 -1.6004,4.01387 -3.18352,3.89184c-1.58312,-0.12203 -2.72456,-2.06232 -2.54947,-4.33375c0.17509,-2.27143 1.6004,-4.01387 3.18352,-3.89184c1.58312,0.12203 2.72456,2.06232 2.54947,4.33375z" fill="#942c3b" stroke="none"/><g><path d="M311.91623,115.60271c0,0 7.19732,-24.609 19.02435,-48.22894c0.8643,3.61472 1.62604,6.2664 4.67282,8.6537c2.75293,2.15705 6.97559,2.94198 10.0895,1.36909c1.30759,-1.30198 2.59384,-2.62311 3.92728,-3.89879c0.43085,-0.4122 0.63056,-1.48476 1.20437,-1.32263c0.89409,0.25262 0.35213,1.82591 0.58811,2.72455c0.87503,3.33236 1.12178,7.04784 2.42888,10.21183c1.08795,3.35167 2.28917,6.65255 4.15843,9.6476c1.1973,1.61394 3.3211,4.84259 5.43175,5.34885c0.77099,0.18493 2.26596,-0.4164 3.05123,-0.56865c1.96063,-0.38014 3.99949,-0.63312 5.88794,-1.28604c0.38973,-0.13475 1.74789,-1.18589 2.08872,-1.09608c0.20804,0.05482 0.88142,1.29675 1.04442,1.51913c1.54737,2.11108 3.22097,3.61516 5.21247,4.9046c-10.39283,20.51621 -21.98068,36.88575 -21.98068,36.88575z" fill="#90003f" stroke="#000000"/><path d="M337.69234,121.61846c-11.69742,-6.47387 -7.19061,-24.86568 1.27606,-43.86185c2.24365,0.68823 4.72088,0.65706 6.7345,-0.36005c1.30759,-1.30198 2.59384,-2.62311 3.92728,-3.89879c0.43085,-0.4122 0.63056,-1.48476 1.20437,-1.32263c0.89409,0.25262 0.35213,1.82591 0.58811,2.72455c0.87503,3.33236 1.12178,7.04784 2.42888,10.21183c1.08795,3.35167 2.28917,6.65255 4.15843,9.6476c1.1973,1.61394 3.3211,4.84259 5.43175,5.34885c0.77099,0.18493 2.26596,-0.4164 3.05123,-0.56865c1.74808,-0.33893 3.55835,-0.57677 5.26875,-1.08712c-8.72655,17.1853 -19.06084,31.47266 -34.06935,23.16629z" fill="#979797" stroke="none"/></g></g><g stroke-linecap="butt"><path d="M286.35186,319.07227l-2.87142,-131.8421l37.76168,-0.15789l31.60973,132z" fill="#ff7be1" stroke="#000000" stroke-width="0"/><path d="M284.57583,237.52505c-0.40902,-18.7807 -1.09539,-50.29488 -1.09539,-50.29488l37.76168,-0.15789c0,0 7.6597,31.98633 12.19518,50.9262c0.06903,0.28827 -48.85113,0.00137 -48.86147,-0.47343z" fill="#da5cb1" stroke="#000000" stroke-width="0"/><path d="M284.36254,227.73195c-0.353,-16.20821 -0.8821,-40.50179 -0.8821,-40.50179l37.76168,-0.15789c0,0 5.97891,24.96751 9.92577,41.44929c0.02794,0.11664 -46.79881,-0.4898 -46.80534,-0.78961z" fill="#940039" stroke="#000000" stroke-width="0"/><path d="M284.16599,218.70743c-0.29297,-13.4516 -0.68555,-31.47726 -0.68555,-31.47726l37.76168,-0.15789c0,0 4.27176,17.83861 7.47254,31.20479c0.05206,0.21738 -44.54515,0.59162 -44.54866,0.43036z" fill="#7c0000" stroke="#000000" stroke-width="0"/><path d="M288.18271,219.16667c0.09433,0.69036 -0.38885,1.25 -1.07921,1.25c-0.08006,0 -0.15938,-0.00753 -0.23721,-0.02191c-0.17759,0.06809 -0.37429,0.10524 -0.58473,0.10524c-0.9665,0 -1.85705,-0.7835 -1.98911,-1.75c-0.13206,-0.9665 0.54439,-1.75 1.51089,-1.75c0.79013,0 1.52951,0.52364 1.84519,1.24283c0.2819,0.2286 0.48417,0.55785 0.53418,0.92384z" fill="#7c0000" stroke="none" stroke-width="0.5"/><path d="M325.85038,222.83334c-0.01176,-0.08608 -0.01454,-0.17014 -0.00906,-0.25133c-0.66755,-0.03033 -1.27089,-0.57778 -1.36255,-1.24867c-0.07373,-0.53959 0.20535,-0.99932 0.66041,-1.1744c-0.15724,-0.07149 -0.30567,-0.16308 -0.44126,-0.27121c-0.27175,0.27711 -0.65757,0.44561 -1.10578,0.44561c-0.27463,0 -0.54313,-0.06327 -0.78984,-0.17601c-0.27342,0.3148 -0.68301,0.50934 -1.16462,0.50934c-0.74683,0 -1.44831,-0.46782 -1.78954,-1.1264c-0.1805,0.32798 -0.52885,0.54307 -0.95684,0.54307c-0.69036,0 -1.32647,-0.55964 -1.42079,-1.25c-0.09433,-0.69036 0.38885,-1.25 1.07921,-1.25c0.45596,0 0.88825,0.24412 1.15641,0.60879c0.19286,-0.60493 0.74525,-1.02546 1.45332,-1.02546c0.27463,0 0.54313,0.06327 0.78984,0.17601c0.27342,-0.3148 0.68301,-0.50934 1.16462,-0.50934c0.4482,0 0.88008,0.1685 1.22756,0.44561c0.27175,-0.27711 0.65757,-0.44561 1.10578,-0.44561c0.31544,0 0.62278,0.08345 0.89832,0.22949c0.14288,-0.04095 0.2963,-0.06283 0.4578,-0.06283c0.9665,0 1.85705,0.7835 1.98911,1.75c0.13206,0.9665 -0.54439,1.75 -1.51089,1.75c-0.31544,0 -0.62278,-0.08345 -0.89832,-0.22949c-0.03259,0.00933 -0.0657,0.01768 -0.09934,0.025c0.36426,0.22447 0.63579,0.60552 0.69485,1.03783c0.01176,0.08608 0.01455,0.17014 0.00907,0.25133c0.66755,0.03033 1.27089,0.57778 1.36255,1.24867c0.09433,0.69036 -0.38885,1.25 -1.07921,1.25c-0.69036,0 -1.32647,-0.55964 -1.42079,-1.25z" fill="#7c0000" stroke="none" stroke-width="0.5"/><path d="M306.81522,218.91667c-0.13206,-0.9665 0.54439,-1.75 1.51089,-1.75c0.77188,0 1.49531,0.49973 1.82264,1.19329c0.23432,-0.51477 0.74806,-0.85996 1.38958,-0.85996c0.59378,0 1.1589,0.29573 1.53707,0.74793c0.24112,-0.15743 0.53609,-0.24793 0.86457,-0.24793c0.9665,0 1.85705,0.7835 1.98911,1.75c0.13206,0.9665 -0.54439,1.75 -1.51089,1.75c-0.59378,0 -1.1589,-0.29573 -1.53707,-0.74793c-0.24112,0.15743 -0.53609,0.24793 -0.86457,0.24793c-0.77188,0 -1.49531,-0.49972 -1.82264,-1.19329c-0.02154,0.04734 -0.04546,0.09324 -0.07161,0.13757c-0.25828,0.43777 -0.73544,0.72239 -1.31797,0.72239c-0.9665,0 -1.85705,-0.7835 -1.98911,-1.75z" fill="#7c0000" stroke="none" stroke-width="0.5"/><path d="M303.05746,218.25c-0.13206,-0.9665 0.54439,-1.75 1.51089,-1.75c0.9665,0 1.85705,0.7835 1.98911,1.75c0.13206,0.9665 -0.54439,1.75 -1.51089,1.75c-0.9665,0 -1.85705,-0.7835 -1.98911,-1.75z" fill="#7c0000" stroke="none" stroke-width="0.5"/><path d="M299.49328,219c0.09433,0.69036 -0.38885,1.25 -1.07921,1.25c-0.38125,0 -0.74596,-0.17068 -1.012,-0.4398c-0.38354,-0.0615 -0.74323,-0.24228 -1.03337,-0.50212c-0.27334,0.32414 -0.68856,0.52526 -1.17823,0.52526c-0.60066,0 -1.17198,-0.30262 -1.55014,-0.76371c-0.03528,0.73612 -0.55331,1.31079 -1.28633,1.41386c-0.02503,0.0292 -0.05122,0.05739 -0.07852,0.08449c-0.27066,0.36692 -0.71052,0.59868 -1.23618,0.59868c-0.9665,0 -1.85705,-0.7835 -1.98911,-1.75c-0.07182,-0.52566 0.09552,-0.99719 0.41861,-1.31797c0.22849,-0.30976 0.57756,-0.52319 0.99705,-0.58218c0.27341,-0.31901 0.68555,-0.51651 1.17081,-0.51651c0.60066,0 1.17198,0.30262 1.55014,0.7637c0.03901,-0.81386 0.66811,-1.43036 1.52544,-1.43036c0.48967,0 0.95985,0.20111 1.32177,0.52525c0.27334,-0.32414 0.68856,-0.52525 1.17823,-0.52525c0.9665,0 1.85705,0.7835 1.98911,1.75c0.01209,0.08849 0.0174,0.17546 0.01633,0.26042c0.02507,0.03322 0.04877,0.06748 0.07099,0.10267c-0.04073,-0.11714 -0.07031,-0.2386 -0.08732,-0.36309c-0.13206,-0.9665 0.54439,-1.75 1.51089,-1.75c0.9665,0 1.85705,0.7835 1.98911,1.75c0.13206,0.9665 -0.54439,1.75 -1.51089,1.75c-0.71424,0 -1.387,-0.42789 -1.74283,-1.0413c0.02056,0.06763 0.03595,0.13711 0.04564,0.20797z" fill="#7c0000" stroke="none" stroke-width="0.5"/><path d="M286.68933,229.58334c-0.02563,0 -0.05119,-0.00078 -0.07663,-0.0023c-0.02971,0.00152 -0.05974,0.0023 -0.09004,0.0023c-0.9665,0 -1.85705,-0.7835 -1.98911,-1.75c-0.13206,-0.9665 0.54439,-1.75 1.51089,-1.75c0.05622,0 0.11217,0.00264 0.16774,0.00783c0.05415,-0.00519 0.10938,-0.00783 0.1656,-0.00783c0.41194,0 0.81008,0.14232 1.14157,0.38049c0.25943,-0.43292 0.73416,-0.71383 1.31289,-0.71383c0.32128,0 0.63417,0.08658 0.9136,0.23768c0.26882,-0.25249 0.63812,-0.40435 1.06363,-0.40435c0.9665,0 1.85705,0.7835 1.98911,1.75c0.01484,0.10863 0.01947,0.21496 0.01463,0.31811c0.18006,-0.62772 0.74164,-1.06811 1.46624,-1.06811c0.9665,0 1.85705,0.7835 1.98911,1.75c0.13206,0.9665 -0.54439,1.75 -1.51089,1.75c-0.9665,0 -1.85705,-0.7835 -1.98911,-1.75c-0.01484,-0.10863 -0.01947,-0.21496 -0.01463,-0.31811c-0.18006,0.62772 -0.74164,1.06811 -1.46624,1.06811c-0.32128,0 -0.63418,-0.08658 -0.91361,-0.23768c-0.26882,0.25249 -0.63811,0.40435 -1.06362,0.40435c-0.41194,0 -0.81009,-0.14233 -1.14158,-0.3805c-0.25943,0.43292 -0.73414,0.71384 -1.31287,0.71384c-0.0303,0 -0.06053,-0.00078 -0.09065,-0.0023c-0.02503,0.00152 -0.05039,0.0023 -0.07601,0.0023z" fill="#940039" stroke="none" stroke-width="0.5"/><path d="M305.04906,229.16667c0.09433,0.69036 -0.38885,1.25 -1.07921,1.25c-0.26632,0 -0.52458,-0.08329 -0.74677,-0.22525c-0.13857,0.03822 -0.28685,0.05858 -0.44267,0.05858c-0.53411,0 -1.04503,-0.23928 -1.41756,-0.61649c-0.21151,-0.21418 -0.37842,-0.47281 -0.47962,-0.75736c-0.01615,-0.00343 -0.03226,-0.00709 -0.0483,-0.01094c0.13531,0.18606 0.22802,0.40306 0.25968,0.63479c0.09433,0.69036 -0.38885,1.25 -1.07921,1.25c-0.69036,0 -1.32647,-0.55964 -1.42079,-1.25c-0.02966,-0.21707 -0.00222,-0.42122 0.0708,-0.59911c-0.07576,0.0104 -0.15381,0.01577 -0.23385,0.01577c-0.9665,0 -1.85705,-0.7835 -1.98911,-1.75c-0.13206,-0.9665 0.54439,-1.75 1.51089,-1.75c0.58252,0 1.13747,0.28462 1.51537,0.72239c0.25828,-0.43777 0.73544,-0.72239 1.31797,-0.72239c0.83738,0 1.61774,0.58814 1.89719,1.37386c0.65166,0.13859 1.22194,0.61948 1.47909,1.23879c0.45808,0.19717 0.81708,0.63228 0.88609,1.13735zM299.74954,228.19428c-0.01126,0.01908 -0.02294,0.03787 -0.03502,0.05636c0.03052,0.00097 0.06091,0.00303 0.09114,0.00613c-0.01912,-0.02046 -0.03782,-0.0413 -0.05612,-0.0625z" fill="#940039" stroke="none" stroke-width="0.5"/><path d="M308.66292,230c-0.02401,-0.17574 -0.01061,-0.343 0.03412,-0.49472c-0.15688,0.05073 -0.32723,0.07806 -0.50771,0.07806c-0.9665,0 -1.85705,-0.7835 -1.98911,-1.75c-0.13206,-0.9665 0.54439,-1.75 1.51089,-1.75c0.86161,0 1.66288,0.62268 1.9202,1.44259c0.24841,-0.17464 0.55839,-0.27592 0.90588,-0.27592c0.9665,0 1.85705,0.7835 1.98911,1.75c0.13205,0.96647 -0.54436,1.74995 -1.5108,1.75c-0.18657,0.30361 -0.52282,0.5 -0.93177,0.5c-0.69036,0 -1.32647,-0.55964 -1.42079,-1.25z" fill="#940039" stroke="none" stroke-width="0.5"/><path d="M317.44609,226.58334c0.9665,0 1.85705,0.7835 1.98911,1.75c0.01064,0.0779 0.01604,0.15461 0.01645,0.22982c0.0214,0.08507 0.03887,0.17505 0.05187,0.27018c0.23911,1.75 -1.51089,1.75 -1.51089,1.75h-2.16667c0,0 -1.75,0 -1.98911,-1.75c-0.23911,-1.75 1.51089,-1.75 1.51089,-1.75h0.94192c0.27337,-0.30929 0.6796,-0.5 1.15642,-0.5z" fill="#940039" stroke="none" stroke-width="0.5"/><path d="M331.00353,228.83334c0.09433,0.69036 -0.38885,1.25 -1.07921,1.25c-0.02738,0 -0.05467,-0.00088 -0.08186,-0.00261c-0.21295,0.10853 -0.45959,0.16928 -0.72871,0.16928c-0.4553,0 -0.89375,-0.17388 -1.24398,-0.45884c-0.19045,0.08096 -0.40443,0.12551 -0.63489,0.12551c-0.4482,0 -0.88008,-0.1685 -1.22756,-0.44561c-0.27175,0.27711 -0.65757,0.44561 -1.10578,0.44561c-0.52566,0 -1.02886,-0.23176 -1.39978,-0.59868c-0.11032,0.73075 -0.71078,1.26535 -1.50913,1.26535c-0.9665,0 -1.85705,-0.7835 -1.98911,-1.75c-0.13206,-0.9665 0.54439,-1.75 1.51089,-1.75c0.52566,0 1.02886,0.23176 1.39978,0.59868c0.11032,-0.73075 0.71078,-1.26535 1.50913,-1.26535c0.4482,0 0.88008,0.1685 1.22756,0.44561c0.27175,-0.27711 0.65757,-0.44561 1.10578,-0.44561c0.4553,0 0.89375,0.17388 1.24398,0.45884c0.19045,-0.08096 0.40443,-0.12551 0.63489,-0.12551c0.7459,0 1.44657,0.46667 1.78827,1.12396c0.30555,0.2293 0.52706,0.57397 0.57972,0.95937z" fill="#940039" stroke="none" stroke-width="0.5"/><path d="M284.61212,238.16667c-0.13206,-0.9665 0.54439,-1.75 1.51089,-1.75c0.9665,0 1.85705,0.7835 1.98911,1.75c0.13206,0.9665 -0.54439,1.75 -1.51089,1.75c-0.9665,0 -1.85705,-0.7835 -1.98911,-1.75z" fill="#da5cb1" stroke="none" stroke-width="0.5"/><path d="M289.61212,238.16667c-0.13206,-0.9665 0.54439,-1.75 1.51089,-1.75c0.9665,0 1.85705,0.7835 1.98911,1.75c0.13206,0.9665 -0.54439,1.75 -1.51089,1.75c-0.9665,0 -1.85705,-0.7835 -1.98911,-1.75z" fill="#da5cb1" stroke="none" stroke-width="0.5"/><path d="M298.93356,236.25c0.9665,0 1.85705,0.7835 1.98911,1.75c0.13206,0.9665 -0.54439,1.75 -1.51089,1.75c-0.77985,0 -1.51026,-0.51011 -1.83266,-1.21487c-0.12981,0.70476 -0.72082,1.21487 -1.50068,1.21487c-0.9665,0 -1.85705,-0.7835 -1.98911,-1.75c-0.13206,-0.9665 0.54439,-1.75 1.51089,-1.75c0.77985,0 1.51026,0.51011 1.83266,1.21487c0.12981,-0.70476 0.72082,-1.21487 1.50068,-1.21487z" fill="#da5cb1" stroke="none" stroke-width="0.5"/><path d="M307.20321,238.83334c0.09433,0.69036 -0.38885,1.25 -1.07921,1.25c-0.2814,0 -0.5538,-0.09299 -0.78415,-0.24991c0.09427,0.69031 -0.3889,1.24991 -1.07922,1.24991c-0.69036,0 -1.32647,-0.55964 -1.42079,-1.25c-0.02041,-0.14936 -0.01379,-0.29261 0.01612,-0.42539c-0.89601,-0.08815 -1.68821,-0.8341 -1.81216,-1.74129c-0.13206,-0.9665 0.54439,-1.75 1.51089,-1.75c0.20175,0 0.40019,0.03414 0.58912,0.09696c0.24536,-0.16709 0.54887,-0.26362 0.88811,-0.26362c0.9665,0 1.85705,0.7835 1.98911,1.75c0.00494,0.03616 0.00875,0.07206 0.01145,0.10768c0.58783,0.11455 1.08794,0.61977 1.17073,1.22566z" fill="#da5cb1" stroke="none" stroke-width="0.5"/><path d="M307.99826,237.33334c-0.13206,-0.9665 0.54439,-1.75 1.51089,-1.75c0.9665,0 1.85705,0.7835 1.98911,1.75c0.13206,0.9665 -0.54439,1.75 -1.51089,1.75c-0.9665,0 -1.85705,-0.7835 -1.98911,-1.75z" fill="#da5cb1" stroke="none" stroke-width="0.5"/><path d="M312.02928,240c-0.07987,-0.58454 0.25431,-1.07538 0.77771,-1.21211c-0.51128,-0.31403 -0.89257,-0.84829 -0.9754,-1.45456c-0.13206,-0.9665 0.54439,-1.75 1.51089,-1.75c0.9665,0 1.85705,0.7835 1.98911,1.75c0.12404,0.90781 -0.46523,1.65418 -1.33816,1.74147c0.28277,0.22866 0.48576,0.55848 0.53586,0.9252c0.09433,0.69036 -0.38885,1.25 -1.07921,1.25c-0.69036,0 -1.32647,-0.55964 -1.42079,-1.25z" fill="#da5cb1" stroke="none" stroke-width="0.5"/><path d="M315.28604,237c-0.13206,-0.9665 0.54439,-1.75 1.51089,-1.75c0.9665,0 1.85705,0.7835 1.98911,1.75c0.13206,0.9665 -0.54439,1.75 -1.51089,1.75c-0.9665,0 -1.85705,-0.7835 -1.98911,-1.75z" fill="#da5cb1" stroke="none" stroke-width="0.5"/><path d="M325.28968,236.41667c0.9665,0 1.85705,0.7835 1.98911,1.75c0.13206,0.9665 -0.54439,1.75 -1.51089,1.75c-0.67289,0 -1.30897,-0.37977 -1.6779,-0.93668c-0.25114,0.46463 -0.74148,0.77001 -1.34487,0.77001c-0.9665,0 -1.85705,-0.7835 -1.98911,-1.75c-0.13206,-0.9665 0.54439,-1.75 1.51089,-1.75c0.67289,0 1.30896,0.37978 1.67789,0.93668c0.25114,-0.46463 0.74149,-0.77002 1.34488,-0.77002z" fill="#da5cb1" stroke="none" stroke-width="0.5"/><path d="M331.57746,236.08334c0.9665,0 1.85705,0.7835 1.98911,1.75c0.13206,0.9665 -0.54439,1.75 -1.51089,1.75c-0.618,0 -1.20495,-0.32034 -1.58241,-0.80403c-0.27279,0.292 -0.66822,0.4707 -1.12981,0.4707c-0.9665,0 -1.85705,-0.7835 -1.98911,-1.75c-0.13206,-0.9665 0.54439,-1.75 1.51089,-1.75c0.618,0 1.20495,0.32034 1.58241,0.80403c0.27279,-0.29199 0.66822,-0.4707 1.12981,-0.4707z" fill="#da5cb1" stroke="none" stroke-width="0.5"/><path d="M290.32883,221.94012c0.86553,1.01717 -0.05237,1.74371 -0.05237,1.74371l-1.05281,0.83333c0,0 -0.9179,0.72655 -1.78343,-0.29062c-0.86553,-1.01717 0.05237,-1.74372 0.05237,-1.74372l1.05281,-0.83334c0,0 0.9179,-0.72654 1.78343,0.29062z" fill="#7c0000" stroke="none" stroke-width="0.5"/><path d="M303.54707,221.83334c-0.09433,-0.69036 0.38885,-1.25 1.07921,-1.25c0.69036,0 1.32647,0.55964 1.42079,1.25c0.09433,0.69036 -0.38885,1.25 -1.07921,1.25c-0.69036,0 -1.32647,-0.55964 -1.42079,-1.25z" fill="#7c0000" stroke="none" stroke-width="0.5"/><path d="M306.35038,222.83334c-0.09433,-0.69036 0.38885,-1.25 1.07921,-1.25c0.69036,0 1.32647,0.55964 1.42079,1.25c0.09433,0.69036 -0.38885,1.25 -1.07921,1.25c-0.69036,0 -1.32647,-0.55964 -1.42079,-1.25z" fill="#7c0000" stroke="none" stroke-width="0.5"/><path d="M315.01705,222.83334c-0.09433,-0.69036 0.38885,-1.25 1.07921,-1.25c0.69036,0 1.32647,0.55964 1.42079,1.25c0.09433,0.69036 -0.38885,1.25 -1.07921,1.25c-0.69036,0 -1.32647,-0.55964 -1.42079,-1.25z" fill="#7c0000" stroke="none" stroke-width="0.5"/><path d="M287.86062,232.66667c-0.09433,-0.69036 0.38885,-1.25 1.07921,-1.25c0.69036,0 1.32647,0.55964 1.42079,1.25c0.09433,0.69036 -0.38885,1.25 -1.07921,1.25c-0.69036,0 -1.32647,-0.55964 -1.42079,-1.25z" fill="#940039" stroke="none" stroke-width="0.5"/><path d="M293.51177,231.33334c-0.09433,-0.69036 0.38885,-1.25 1.07921,-1.25c0.69036,0 1.32647,0.55964 1.42079,1.25c0.09433,0.69036 -0.38885,1.25 -1.07921,1.25c-0.69036,0 -1.32647,-0.55964 -1.42079,-1.25z" fill="#940039" stroke="none" stroke-width="0.5"/><path d="M324.90617,233c-0.09433,-0.69036 0.38885,-1.25 1.07921,-1.25c0.69036,0 1.32647,0.55964 1.42079,1.25c0.09433,0.69036 -0.38885,1.25 -1.07921,1.25c-0.69036,0 -1.32647,-0.55964 -1.42079,-1.25z" fill="#940039" stroke="none" stroke-width="0.5"/><path d="M327.24676,231.83334c-0.09433,-0.69036 0.38885,-1.25 1.07921,-1.25c0.69036,0 1.32647,0.55964 1.42079,1.25c0.09433,0.69036 -0.38885,1.25 -1.07921,1.25c-0.69036,0 -1.32647,-0.55964 -1.42079,-1.25z" fill="#940039" stroke="none" stroke-width="0.5"/><path d="M314.86062,232.66667c-0.09433,-0.69036 0.38885,-1.25 1.07921,-1.25c0.69036,0 1.32647,0.55964 1.42079,1.25c0.09433,0.69036 -0.38885,1.25 -1.07921,1.25c-0.69036,0 -1.32647,-0.55964 -1.42079,-1.25z" fill="#940039" stroke="none" stroke-width="0.5"/><path d="M319.51277,235c-0.09433,-0.69036 0.38885,-1.25 1.07921,-1.25c0.69036,0 1.32647,0.55964 1.42079,1.25c0.09433,0.69036 -0.38885,1.25 -1.07921,1.25c-0.69036,0 -1.32647,-0.55964 -1.42079,-1.25z" fill="#940039" stroke="none" stroke-width="0.5"/><path d="M289.6514,243.33334c-0.09433,-0.69036 0.38885,-1.25 1.07921,-1.25c0.69036,0 1.32647,0.55964 1.42079,1.25c0.09433,0.69036 -0.38885,1.25 -1.07921,1.25c-0.69036,0 -1.32647,-0.55964 -1.42079,-1.25z" fill="#da5cb1" stroke="none" stroke-width="0.5"/><path d="M293.80354,245.66667c-0.09433,-0.69036 0.38885,-1.25 1.07921,-1.25c0.69036,0 1.32647,0.55964 1.42079,1.25c0.09433,0.69036 -0.38885,1.25 -1.07921,1.25c-0.69036,0 -1.32647,-0.55964 -1.42079,-1.25z" fill="#da5cb1" stroke="none" stroke-width="0.5"/><path d="M299.00025,244.66667c-0.09433,-0.69036 0.38885,-1.25 1.07921,-1.25c0.69036,0 1.32647,0.55964 1.42079,1.25c0.09433,0.69036 -0.38885,1.25 -1.07921,1.25c-0.69036,0 -1.32647,-0.55964 -1.42079,-1.25z" fill="#da5cb1" stroke="none" stroke-width="0.5"/><path d="M317.35535,241.16667c-0.09433,-0.69036 0.38885,-1.25 1.07921,-1.25c0.69036,0 1.32647,0.55964 1.42079,1.25c0.09433,0.69036 -0.38885,1.25 -1.07921,1.25c-0.69036,0 -1.32647,-0.55964 -1.42079,-1.25z" fill="#da5cb1" stroke="none" stroke-width="0.5"/><path d="M322.77252,243c-0.09433,-0.69036 0.38885,-1.25 1.07921,-1.25c0.69036,0 1.32647,0.55964 1.42079,1.25c0.09433,0.69036 -0.38885,1.25 -1.07921,1.25c-0.69036,0 -1.32647,-0.55964 -1.42079,-1.25z" fill="#da5cb1" stroke="none" stroke-width="0.5"/><path d="M329.07583,244c-0.09433,-0.69036 0.38885,-1.25 1.07921,-1.25c0.69036,0 1.32647,0.55964 1.42079,1.25c0.09433,0.69036 -0.38885,1.25 -1.07921,1.25c-0.69036,0 -1.32647,-0.55964 -1.42079,-1.25z" fill="#da5cb1" stroke="none" stroke-width="0.5"/><path d="M330.80981,240.83334c-0.09433,-0.69036 0.38885,-1.25 1.07921,-1.25c0.69036,0 1.32647,0.55964 1.42079,1.25c0.09433,0.69036 -0.38885,1.25 -1.07921,1.25c-0.69036,0 -1.32647,-0.55964 -1.42079,-1.25z" fill="#da5cb1" stroke="none" stroke-width="0.5"/><path d="M289.76028,225.83334c-0.0566,-0.41422 0.2333,-0.75 0.64752,-0.75c0.41422,0 0.79588,0.33578 0.85248,0.75c0.0566,0.41422 -0.2333,0.75 -0.64752,0.75c-0.41422,0 -0.79588,-0.33578 -0.85248,-0.75z" fill="#7c0000" stroke="none" stroke-width="0.5"/><path d="M303.00252,225.16667c-0.0566,-0.41422 0.2333,-0.75 0.64752,-0.75c0.41422,0 0.79588,0.33578 0.85248,0.75c0.0566,0.41422 -0.2333,0.75 -0.64752,0.75c-0.41422,0 -0.79588,-0.33578 -0.85248,-0.75z" fill="#7c0000" stroke="none" stroke-width="0.5"/><path d="M314.4725,226.16667c-0.0566,-0.41422 0.2333,-0.75 0.64752,-0.75c0.41422,0 0.79588,0.33578 0.85248,0.75c0.0566,0.41422 -0.2333,0.75 -0.64752,0.75c-0.41422,0 -0.79588,-0.33578 -0.85248,-0.75z" fill="#7c0000" stroke="none" stroke-width="0.5"/><path d="M328.25303,227c-0.0566,-0.41422 0.2333,-0.75 0.64752,-0.75c0.41422,0 0.79588,0.33578 0.85248,0.75c0.0566,0.41422 -0.2333,0.75 -0.64752,0.75c-0.41422,0 -0.79588,-0.33578 -0.85248,-0.75z" fill="#7c0000" stroke="none" stroke-width="0.5"/><path d="M290.10386,235.66667c-0.0566,-0.41422 0.2333,-0.75 0.64752,-0.75c0.41422,0 0.79588,0.33578 0.85248,0.75c0.0566,0.41422 -0.2333,0.75 -0.64752,0.75c-0.41422,0 -0.79588,-0.33578 -0.85248,-0.75z" fill="#940039" stroke="none" stroke-width="0.5"/><path d="M294.49,234.83334c-0.0566,-0.41422 0.2333,-0.75 0.64752,-0.75c0.41422,0 0.79588,0.33578 0.85248,0.75c0.0566,0.41422 -0.2333,0.75 -0.64752,0.75c-0.41422,0 -0.79588,-0.33578 -0.85248,-0.75z" fill="#940039" stroke="none" stroke-width="0.5"/><path d="M316.57382,236.66667c-0.0566,-0.41422 0.2333,-0.75 0.64752,-0.75c0.41422,0 0.79588,0.33578 0.85248,0.75c0.0566,0.41422 -0.2333,0.75 -0.64752,0.75c-0.41422,0 -0.79588,-0.33578 -0.85248,-0.75z" fill="#940039" stroke="none" stroke-width="0.5"/><path d="M324.47548,237.16667c-0.0566,-0.41422 0.2333,-0.75 0.64752,-0.75c0.41422,0 0.79588,0.33578 0.85248,0.75c0.0566,0.41422 -0.2333,0.75 -0.64752,0.75c-0.41422,0 -0.79588,-0.33578 -0.85248,-0.75z" fill="#940039" stroke="none" stroke-width="0.5"/><path d="M299.17616,250.83334c-0.0566,-0.41422 0.2333,-0.75 0.64752,-0.75c0.41422,0 0.79588,0.33578 0.85248,0.75c0.0566,0.41422 -0.2333,0.75 -0.64752,0.75c-0.41422,0 -0.79588,-0.33578 -0.85248,-0.75z" fill="#da5cb1" stroke="none" stroke-width="0.5"/><path d="M307.22071,247.5c-0.0566,-0.41422 0.2333,-0.75 0.64752,-0.75c0.41422,0 0.79588,0.33578 0.85248,0.75c0.0566,0.41422 -0.2333,0.75 -0.64752,0.75c-0.41422,0 -0.79588,-0.33578 -0.85248,-0.75z" fill="#da5cb1" stroke="none" stroke-width="0.5"/><path d="M313.8108,244.5c-0.0566,-0.41422 0.2333,-0.75 0.64752,-0.75c0.41422,0 0.79588,0.33578 0.85248,0.75c0.0566,0.41422 -0.2333,0.75 -0.64752,0.75c-0.41422,0 -0.79588,-0.33578 -0.85248,-0.75z" fill="#da5cb1" stroke="none" stroke-width="0.5"/><path d="M331.22897,250c-0.0566,-0.41422 0.2333,-0.75 0.64752,-0.75c0.41422,0 0.79588,0.33578 0.85248,0.75c0.0566,0.41422 -0.2333,0.75 -0.64752,0.75c-0.41422,0 -0.79588,-0.33578 -0.85248,-0.75z" fill="#da5cb1" stroke="none" stroke-width="0.5"/></g><path d="M273.19501,267.03056c0,0 35.12818,-17.36423 43.47801,-29.05973c7.1979,-10.08201 3.91038,-26.12043 3.91038,-26.12043l15.57099,9.00624c0,0 2.83663,11.48427 -3.89455,20.91255c-8.54931,11.97492 -43.8677,30.10951 -43.8677,30.10951z" fill="#ff7be1" stroke="none" stroke-width="0" stroke-linecap="butt"/><g stroke-width="0"><path d="M252.62192,132.28644c0,0 -50.2072,-100.79321 -7.48994,-115.62745c42.71726,-14.83424 57.57679,98.234 57.57679,98.234" fill="#90003f" stroke="#000000" stroke-linecap="round"/><path d="M280.56683,69.08253c6.3631,21.59906 9.18621,42.87491 -4.2516,47.80486c-18.62716,6.83375 -26.44222,-15.24463 -32.80531,-36.84369c-6.3631,-21.59906 -9.46889,-48.04184 4.58795,-52.16839c15.04044,-4.41529 26.10587,19.60816 32.46897,41.20722z" fill="#979797" stroke="none" stroke-linecap="butt"/></g><path d="" fill="none" stroke="#000000" stroke-width="0" stroke-linecap="round"/><g><path d="M240.06814,152.86808c2.55938,-33.20336 33.309,-57.90968 68.68119,-55.18312c8.79522,0.67795 43.58062,-10.88166 43.58062,-10.88166c0,0 -6.3224,19.67561 -1.82938,22.45287c4.42808,2.73712 28.59549,-5.90797 28.59549,-5.90797c0,0 -16.05902,17.5662 -14.15734,21.63314c2.86261,6.12203 29.66244,11.52627 29.66244,11.52627c0,0 -23.81722,17.06709 -25.71439,24.21971c-1.95343,7.36468 14.15763,19.3508 14.15763,19.3508c0,0 -11.05212,11.91488 -12.21909,16.95693c-1.13847,4.91901 5.30068,12.93537 5.30068,12.93537c0,0 -18.0175,1.50695 -23.58581,4.66816c-3.88391,2.20496 -0.5966,6.94511 -0.5966,6.94511c0,0 -16.54273,-3.12553 -24.62218,-4.22157c-1.68403,-0.22845 -20.64163,1.11771 -27.84042,0.56281c-35.37219,-2.72656 -61.97224,-31.85351 -59.41287,-65.05687z" fill="#ff7be1" stroke="#000000" stroke-width="0" stroke-linecap="butt"/><path d="M241.36051,144.40835c6.6518,-28.83444 35.09366,-49.21277 67.38882,-46.7234c8.79522,0.67795 43.58062,-10.88166 43.58062,-10.88166c0,0 -6.3224,19.67561 -1.82938,22.45287c4.42808,2.73712 28.59549,-5.90797 28.59549,-5.90797c0,0 -16.05902,17.5662 -14.15734,21.63314c2.86261,6.12203 29.66244,11.52627 29.66244,11.52627c0,0 -15.57243,11.15899 -22.53663,19.21219c-0.12252,0.14168 -130.71107,-11.28085 -130.70402,-11.31145z" fill="#da5cb1" stroke="#000000" stroke-width="0" stroke-linecap="butt"/><path d="M245.10857,133.42985c10.50536,-22.85283 35.62296,-37.90455 63.64076,-35.74489c8.79522,0.67795 43.58062,-10.88166 43.58062,-10.88166c0,0 -6.3224,19.67561 -1.82938,22.45287c4.42808,2.73712 28.59549,-5.90797 28.59549,-5.90797c0,0 -16.05902,17.5662 -14.15734,21.63314c2.86261,6.12203 29.66244,11.52627 29.66244,11.52627c0,0 -6.97432,4.99771 -13.6755,10.71765c-0.13799,0.11778 -135.92654,-13.55731 -135.81709,-13.79542z" fill="#940039" stroke="#000000" stroke-width="0" stroke-linecap="butt"/><path d="M252.01113,122.05996c12.60292,-16.2803 33.68919,-26.15166 56.7382,-24.375c8.79522,0.67795 43.58062,-10.88166 43.58062,-10.88166c0,0 -6.3224,19.67561 -1.82938,22.45287c4.42808,2.73712 28.59549,-5.90797 28.59549,-5.90797c0,0 -16.05902,17.5662 -14.15734,21.63314c1.92458,4.11596 14.41984,7.88825 22.56546,9.93111c2.2915,0.57469 -135.55309,-12.77492 -135.49305,-12.85248z" fill="#7c0000" stroke="#000000" stroke-width="0" stroke-linecap="butt"/><path d="M308.74933,97.68496c8.79521,0.67795 42.76773,-9.32715 42.76773,-9.32715c0,0 -6.21619,18.29765 -1.72317,21.07491c4.42808,2.73712 27.35868,-4.84818 27.35868,-4.84818c0,0 -14.8222,16.50641 -12.92053,20.57335c2.86261,6.12203 29.66245,11.52628 29.66245,11.52628c0,0 -23.81722,17.06709 -25.7144,24.21972c-1.95342,7.36468 14.15764,19.3508 14.15764,19.3508c0,0 -11.28178,11.89718 -12.44873,16.93923c-1.13848,4.919 4.66482,12.19328 4.66482,12.19328c0,0 -17.38162,2.24903 -22.94994,5.41025c-3.88391,2.20496 -1.16166,5.28438 -1.16166,5.28438c0,0 -14.86429,-3.92024 -22.94375,-5.01628c-1.68403,-0.22845 -0.8019,-1.51145 -8.00069,-2.06635c-10.42736,-0.80376 -32.03199,1.23432 -34.9756,-2.11923c-0.8767,-0.99879 -2.32578,-7.25098 2.28863,-8.83126c3.50276,-1.19959 11.62121,-0.13342 11.62121,-0.13342c0,0 -1.57231,-4.40846 1.50167,-6.79753c3.30172,-2.56606 19.35224,-5.89729 19.35224,-5.89729c0,0 -12.40611,-5.20042 -16.67634,-12.89697c-3.01469,-5.4336 1.58802,-13.22727 1.83367,-16.41405c0,0 -2.7643,-12.15199 -1.29501,-15.90299c1.51612,-3.87057 10.25568,-6.97295 10.25568,-6.97295c0,0 1.3513,-5.62352 0.62402,-8.98246c-1.10676,-5.1116 12.9466,-12.25065 12.9466,-12.25065c0,0 -30.42588,-19.0559 -18.22518,-18.11545z" fill="#a93232" stroke="#000000" stroke-width="0" stroke-linecap="butt"/><path d="M308.74933,97.68496c8.79521,0.67795 42.76773,-9.32715 42.76773,-9.32715c0,0 -6.21619,18.29765 -1.72317,21.07491c4.42808,2.73712 27.35868,-4.84818 27.35868,-4.84818c0,0 -14.8222,16.50641 -12.92053,20.57335c2.86261,6.12203 29.66245,11.52628 29.66245,11.52628c0,0 -7.19232,5.15392 -13.98704,10.98427c-0.05773,0.04953 -73.12679,-7.39056 -72.99592,-7.4748c2.9623,-1.90701 6.49237,-3.16012 6.49237,-3.16012c0,0 1.3513,-5.62352 0.62402,-8.98246c-1.10676,-5.1116 12.9466,-12.25065 12.9466,-12.25065c0,0 -30.42588,-19.0559 -18.22518,-18.11545z" fill="#9d2f3a" stroke="#000000" stroke-width="0" stroke-linecap="butt"/><path d="M308.74933,97.68496c8.79521,0.67795 42.76773,-9.32715 42.76773,-9.32715c0,0 -6.21619,18.29765 -1.72317,21.07491c4.42808,2.73712 27.35868,-4.84818 27.35868,-4.84818c0,0 -14.8222,16.50641 -12.92053,20.57335c1.81438,3.88026 13.245,7.47217 21.37304,9.58245c0.04847,0.01258 -71.56241,-6.62118 -71.57716,-6.68928c-1.10676,-5.1116 12.9466,-12.25065 12.9466,-12.25065c0,0 -30.42588,-19.0559 -18.22518,-18.11545z" fill="#942c3b" stroke="#000000" stroke-width="0" stroke-linecap="butt"/><path d="M306.56229,210.41738c0,0 -13.46187,-0.82005 -14.31981,-1.64762c-0.784,-0.75623 -3.26701,-7.08304 -3.26701,-7.08304c0,0 3.95743,-0.38287 5.63084,-0.30482c1.43146,0.06676 3.79759,0.74457 3.79759,0.74457c0,0 -0.93975,-3.90566 0.71472,-6.46549c1.39915,-2.16479 5.24341,-3.07675 7.02418,-2.83134c11.20367,1.54407 30.77054,1.47521 30.77054,1.47521c0,0 -1.33054,10.72613 -2.2363,12.20087c-0.85217,1.38749 -4.10622,4.1451 -4.10622,4.1451z" fill="#7c2532" stroke="none" stroke-width="0" stroke-linecap="butt"/><path d="M313.25389,192.95976c1.59889,-0.30312 3.48171,2.54578 4.20542,6.36319c0.05045,0.26615 -5.74968,1.3107 -5.79006,1.09768c-0.72371,-3.81742 -0.01423,-7.15776 1.58464,-7.46087z" fill="#fff8f7" stroke="none" stroke-width="0" stroke-linecap="butt"/><path d="M308.73543,192.51708c0.28286,1.3207 0.44964,3.04796 0.14909,4.88146c-0.04383,0.26733 -5.85064,-0.73934 -5.81557,-0.95331c0.22393,-1.36608 0.59801,-2.61292 1.05945,-3.64017c0.20456,-0.4554 4.52849,-0.65468 4.60703,-0.28798z" fill="#fff8f7" stroke="none" stroke-width="0" stroke-linecap="butt"/><path d="M322.34447,191.39017c1.2502,-1.04179 4.28004,0.53343 6.76736,3.51834c0.17342,0.20811 -4.38856,3.93919 -4.52736,3.77262c-2.48731,-2.98491 -3.49018,-6.24919 -2.24,-7.29097z" fill="#fff8f7" stroke="none" stroke-width="0" stroke-linecap="butt"/><path d="M335.69004,191.10743c1.60189,0.28684 2.3453,3.61979 1.66046,7.44437c-0.04775,0.26666 -5.83914,-0.8253 -5.80093,-1.03873c0.68484,-3.82458 2.53859,-6.69248 4.14046,-6.40564z" fill="#fff8f7" stroke="none" stroke-width="0" stroke-linecap="butt"/><path d="M331.06584,212.91282c-1.55139,0.49145 -3.76021,-2.11284 -4.93357,-5.81684c-0.0818,-0.25825 5.55256,-1.98638 5.61804,-1.77969c1.17335,3.704 0.8669,7.10509 -0.68447,7.59652z" fill="#fff8f7" stroke="none" stroke-width="0" stroke-linecap="butt"/><path d="M308.62324,204.91773c0.16161,-0.14455 4.13081,4.21183 3.92889,4.39243c-2.89595,2.59035 -6.12309,3.70695 -7.20803,2.494c-1.08493,-1.21293 0.38319,-4.2961 3.27914,-6.88643z" fill="#fff8f7" stroke="none" stroke-width="0" stroke-linecap="butt"/><path d="M319.31563,213.07695c-1.62661,0.04958 -3.04119,-3.05851 -3.15956,-6.94212c-0.00825,-0.27078 5.88385,-0.39626 5.89045,-0.17954c0.11837,3.8836 -1.1043,7.07208 -2.73089,7.12165z" fill="#fff8f7" stroke="none" stroke-width="0" stroke-linecap="butt"/><path d="M314.79655,190.53837c0.34465,1.25065 0.37033,2.12651 -0.00485,2.32219c-0.46826,0.2442 -1.54536,-0.49426 -2.68885,-2.02023c-0.09415,-0.12565 2.63198,-0.52595 2.69371,-0.30194z" fill="#7c2532" stroke="none" stroke-width="0" stroke-linecap="butt"/><g><path d="M297.59262,100.31561c0.18302,7.37613 -10.65191,15.25993 -16.71379,8.53701c-1.28958,-2.21908 1.29712,-7.69366 1.29712,-7.69366c0,0 -3.00011,-6.69564 -1.64514,-9.05884c4.61761,-5.30921 16.87879,0.83935 17.06181,8.21549z" fill="#bf014a" stroke="#000000" stroke-width="0" stroke-linecap="butt"/><path d="M289.65488,96.13473l6.55041,3.98488l-5.61391,5.89959" fill="none" stroke="#99001f" stroke-width="1.5" stroke-linecap="round"/><path d="M291.61131,100.69442l3.91459,-0.09713" fill="none" stroke="#99001f" stroke-width="1" stroke-linecap="round"/><path d="M329.91217,90.87485c1.47051,2.29309 -1.19385,9.12928 -1.19385,9.12928c0,0 2.85503,5.33955 1.67708,7.61986c-5.721,7.01529 -16.93359,-0.32146 -17.1166,-7.69759c-0.18303,-7.37613 11.75814,-14.12521 16.63337,-9.05154z" fill="#bf014a" stroke="#000000" stroke-width="0" stroke-linecap="butt"/><path d="M320.55428,105.27576l-5.89959,-5.61391l6.34472,-4.30485" fill="none" stroke="#99001f" stroke-width="1.5" stroke-linecap="round"/><path d="M315.35694,100.10525l3.91459,-0.09713" fill="none" stroke="#99001f" stroke-width="1" stroke-linecap="round"/><path d="M297.09459,91.61635c1.90025,-1.51042 14.93303,-1.08152 17.01367,1.06598c1.57083,1.62131 1.54226,13.33906 -1.63709,15.109c-1.63741,0.91154 -12.31457,1.54261 -14.0919,0.56514c-3.01733,-1.65942 -3.58924,-14.90834 -1.28469,-16.74012z" fill="#bf014a" stroke="#000000" stroke-width="0" stroke-linecap="butt"/></g><path d="M259.42584,121.44058c0.96364,0.07428 1.68461,0.91568 1.61033,1.87932c-0.07428,0.96364 -0.91568,1.68461 -1.87932,1.61033c-0.60957,-0.04699 -1.12205,-0.40093 -1.39754,-0.89861c-0.33767,0.51985 -0.94162,0.84368 -1.60319,0.79268c-0.56722,-0.04372 -1.05036,-0.35323 -1.33672,-0.79701c-0.15571,0.03172 -0.31838,0.04258 -0.4847,0.02976c-0.96364,-0.07428 -1.68461,-0.91568 -1.61033,-1.87932c0.07428,-0.96364 0.91568,-1.68461 1.87932,-1.61033c0.56722,0.04372 1.05036,0.35323 1.33672,0.79701c0.15571,-0.03172 0.31838,-0.04258 0.4847,-0.02976c0.60957,0.04699 1.12205,0.40093 1.39754,0.89861c0.33767,-0.51985 0.94162,-0.84368 1.60319,-0.79268z" fill="#7c0000" stroke="none" stroke-width="0.5" stroke-linecap="butt"/><path d="M265.69578,121.4224c0.96364,0.07428 1.68461,0.91568 1.61033,1.87932c-0.07428,0.96364 -0.91568,1.68461 -1.87932,1.61033c-0.46474,-0.03582 -0.87304,-0.25007 -1.16291,-0.5704c-0.35067,0.41598 -0.88967,0.66293 -1.47354,0.61792c-0.96364,-0.07428 -1.68461,-0.91568 -1.61033,-1.87932c0.07428,-0.96364 0.91568,-1.68461 1.87932,-1.61033c0.46474,0.03582 0.87304,0.25007 1.16291,0.5704c0.35067,-0.41598 0.88967,-0.66293 1.47354,-0.61792z" fill="#7c0000" stroke="none" stroke-width="0.5" stroke-linecap="butt"/><path d="M271.0741,121.58623c0.96364,0.07428 1.68461,0.91568 1.61033,1.87932c-0.07428,0.96364 -0.91568,1.68461 -1.87932,1.61033c-0.38634,-0.02978 -0.73368,-0.18287 -1.0064,-0.4177c-0.25896,0.11694 -0.55015,0.17235 -0.85344,0.14897c-0.96364,-0.07428 -1.68461,-0.91568 -1.61033,-1.87932c0.07428,-0.96364 0.91568,-1.68461 1.87932,-1.61033c0.38634,0.02978 0.73368,0.18287 1.0064,0.4177c0.25896,-0.11694 0.55015,-0.17235 0.85344,-0.14897z" fill="#7c0000" stroke="none" stroke-width="0.5" stroke-linecap="butt"/><path d="M277.42063,122.2008c0.96364,0.07428 1.68461,0.91568 1.61033,1.87932c-0.07428,0.96364 -0.91568,1.68461 -1.87932,1.61033c-0.45697,-0.03522 -0.85939,-0.24297 -1.14828,-0.55445c-0.33322,0.26352 -0.76272,0.40715 -1.21969,0.37192c-0.96364,-0.07428 -1.68461,-0.91568 -1.61033,-1.87932c0.07428,-0.96364 0.91568,-1.68461 1.87932,-1.61033c0.45697,0.03522 0.85939,0.24297 1.14828,0.55445c0.33322,-0.26352 0.76272,-0.40715 1.21969,-0.37192z" fill="#7c0000" stroke="none" stroke-width="0.5" stroke-linecap="butt"/><path d="M287.228,123.45826c0.96364,0.07428 1.68461,0.91568 1.61033,1.87932c-0.07428,0.96364 -0.91568,1.68461 -1.87932,1.61033c-0.59366,-0.04576 -1.09522,-0.38266 -1.37548,-0.85993c-0.35009,0.42868 -0.89736,0.68474 -1.49102,0.63898c-0.51533,-0.03972 -0.96125,-0.29882 -1.25327,-0.67868c-0.25473,0.11181 -0.53988,0.16434 -0.83663,0.14147c-0.96364,-0.07428 -1.68461,-0.91568 -1.61033,-1.87932c0.07428,-0.96364 0.91568,-1.68461 1.87932,-1.61033c0.51533,0.03972 0.96125,0.29882 1.25327,0.67868c0.25473,-0.11181 0.53988,-0.16434 0.83663,-0.14147c0.59366,0.04576 1.09522,0.38266 1.37548,0.85993c0.35009,-0.42868 0.89736,-0.68474 1.49102,-0.63898z" fill="#7c0000" stroke="none" stroke-width="0.5" stroke-linecap="butt"/><path d="M289.71074,125.40482c0.07428,-0.96364 0.91568,-1.68461 1.87932,-1.61033c0.96364,0.07428 1.68461,0.91568 1.61033,1.87932c-0.07428,0.96364 -0.91568,1.68461 -1.87932,1.61033c-0.96364,-0.07428 -1.68461,-0.91568 -1.61033,-1.87932z" fill="#7c0000" stroke="none" stroke-width="0.5" stroke-linecap="butt"/><path d="M296.56541,125.93319c0.07428,-0.96364 0.91568,-1.68461 1.87932,-1.61033c0.96364,0.07428 1.68461,0.91568 1.61033,1.87932c-0.07428,0.96364 -0.91568,1.68461 -1.87932,1.61033c-0.96364,-0.07428 -1.68461,-0.91568 -1.61033,-1.87932z" fill="#7c0000" stroke="none" stroke-width="0.5" stroke-linecap="butt"/><path d="M300.67821,126.25022c0.07428,-0.96364 0.91568,-1.68461 1.87932,-1.61033c0.96364,0.07428 1.68461,0.91568 1.61033,1.87932c-0.07428,0.96364 -0.91568,1.68461 -1.87932,1.61033c-0.96364,-0.07428 -1.68461,-0.91568 -1.61033,-1.87932z" fill="#7c0000" stroke="none" stroke-width="0.5" stroke-linecap="butt"/><path d="M306.53583,126.70173c0.07428,-0.96364 0.91568,-1.68461 1.87932,-1.61033c0.96364,0.07428 1.68461,0.91568 1.61033,1.87932c-0.07428,0.96364 -0.91568,1.68461 -1.87932,1.61033c-0.96364,-0.07428 -1.68461,-0.91568 -1.61033,-1.87932z" fill="#7c0000" stroke="none" stroke-width="0.5" stroke-linecap="butt"/><path d="M310.35134,127.62269c0.07428,-0.96364 0.91568,-1.68461 1.87932,-1.61033c0.96364,0.07428 1.68461,0.91568 1.61033,1.87932c-0.07428,0.96364 -0.91568,1.68461 -1.87932,1.61033c-0.96364,-0.07428 -1.68461,-0.91568 -1.61033,-1.87932z" fill="#7c0000" stroke="none" stroke-width="0.5" stroke-linecap="butt"/><path d="M246.08834,133.45107c0.07428,-0.96364 0.91568,-1.68461 1.87932,-1.61033c0.96364,0.07428 1.68461,0.91568 1.61033,1.87932c-0.07428,0.96364 -0.91568,1.68461 -1.87932,1.61033c-0.96364,-0.07428 -1.68461,-0.91568 -1.61033,-1.87932z" fill="#940039" stroke="none" stroke-width="0.5" stroke-linecap="butt"/><path d="M250.75704,134.68854c0.07428,-0.96364 0.91568,-1.68461 1.87932,-1.61033c0.96364,0.07428 1.68461,0.91568 1.61033,1.87932c-0.07428,0.96364 -0.91568,1.68461 -1.87932,1.61033c-0.96364,-0.07428 -1.68461,-0.91568 -1.61033,-1.87932z" fill="#940039" stroke="none" stroke-width="0.5" stroke-linecap="butt"/><path d="M254.86984,135.00556c0.07428,-0.96364 0.91568,-1.68461 1.87932,-1.61033c0.96364,0.07428 1.68461,0.91568 1.61033,1.87932c-0.07428,0.96364 -0.91568,1.68461 -1.87932,1.61033c-0.96364,-0.07428 -1.68461,-0.91568 -1.61033,-1.87932z" fill="#940039" stroke="none" stroke-width="0.5" stroke-linecap="butt"/><path d="M262.80827,132.85931c0.96364,0.07428 1.68461,0.91568 1.61033,1.87932c-0.07428,0.96364 -0.91568,1.68461 -1.87932,1.61033c-0.05324,-0.0041 -0.10575,-0.01055 -0.15742,-0.01923c-0.31675,0.2154 -0.70608,0.32878 -1.11771,0.29705c-0.15963,-0.0123 -0.3126,-0.04566 -0.45639,-0.09713c-0.24518,0.10093 -0.51709,0.14747 -0.79951,0.1257c-0.96364,-0.07428 -1.68461,-0.91568 -1.61033,-1.87932c0.07428,-0.96364 0.91568,-1.68461 1.87932,-1.61033c0.15963,0.0123 0.3126,0.04566 0.45639,0.09713c0.24518,-0.10093 0.51709,-0.14747 0.79951,-0.1257c0.05324,0.0041 0.10575,0.01055 0.15742,0.01924c0.31675,-0.2154 0.70608,-0.32879 1.11771,-0.29706z" fill="#940039" stroke="none" stroke-width="0.5" stroke-linecap="butt"/><path d="M304.57837,137.45811c0.96364,0.07428 1.68461,0.91568 1.61033,1.87932c-0.07428,0.96364 -0.91568,1.68461 -1.87932,1.61033c-0.46474,-0.03582 -0.87304,-0.25007 -1.16291,-0.5704c-0.35067,0.41598 -0.88967,0.66293 -1.47354,0.61792c-0.52113,-0.04017 -0.97129,-0.30469 -1.26309,-0.69157c-0.34764,0.33759 -0.83302,0.53 -1.35415,0.48983c-0.72016,-0.05551 -1.30479,-0.53946 -1.52324,-1.18269c-0.35098,0.39192 -0.874,0.6218 -1.43907,0.57824c-0.96364,-0.07428 -1.68461,-0.91568 -1.61033,-1.87932c0.07428,-0.96364 0.91568,-1.68461 1.87932,-1.61033c0.72016,0.05551 1.30479,0.53946 1.52324,1.18269c0.35098,-0.39192 0.874,-0.6218 1.43907,-0.57824c0.52113,0.04017 0.97129,0.30469 1.26309,0.69157c0.34764,-0.33759 0.83302,-0.53 1.35415,-0.48983c0.46474,0.03582 0.87304,0.25007 1.16291,0.5704c0.35067,-0.41598 0.88967,-0.66293 1.47354,-0.61792z" fill="#940039" stroke="none" stroke-width="0.5" stroke-linecap="butt"/><path d="M246.24024,142.86559c0.96364,0.07428 1.68461,0.91568 1.61033,1.87932c-0.07428,0.96364 -0.91568,1.68461 -1.87932,1.61033c-0.42887,-0.03306 -0.80967,-0.21806 -1.09369,-0.49815c-0.35066,0.3779 -0.8642,0.59797 -1.41813,0.55527c-0.96364,-0.07428 -1.68461,-0.91568 -1.61033,-1.87932c0.07428,-0.96364 0.91568,-1.68461 1.87932,-1.61033c0.42887,0.03306 0.80967,0.21806 1.09369,0.49815c0.35066,-0.3779 0.8642,-0.59797 1.41813,-0.55527z" fill="#da5cb1" stroke="none" stroke-width="0.5" stroke-linecap="butt"/><path d="M253.10452,143.26933c0.96364,0.07428 1.68461,0.91568 1.61033,1.87932c-0.07428,0.96364 -0.91568,1.68461 -1.87932,1.61033c-0.26761,-0.02063 -0.5165,-0.10041 -0.73484,-0.22555c-0.23494,0.0902 -0.49312,0.1309 -0.76072,0.11027c-0.08463,-0.00652 -0.16739,-0.01896 -0.2479,-0.03688c-0.08231,0.00537 -0.16599,0.00498 -0.25062,-0.00155c-0.96364,-0.07428 -1.68461,-0.91568 -1.61033,-1.87932c0.07428,-0.96364 0.91568,-1.68461 1.87932,-1.61033c0.08463,0.00652 0.16739,0.01896 0.2479,0.03688c0.08231,-0.00537 0.16599,-0.00498 0.25062,0.00155c0.26761,0.02063 0.5165,0.10041 0.73484,0.22555c0.23494,-0.0902 0.49312,-0.1309 0.76072,-0.11027z" fill="#da5cb1" stroke="none" stroke-width="0.5" stroke-linecap="butt"/><path d="M299.01599,149.44106c0.07428,-0.96364 0.91568,-1.68461 1.87932,-1.61033c0.96364,0.07428 1.68461,0.91568 1.61033,1.87932c-0.07428,0.96364 -0.91568,1.68461 -1.87932,1.61033c-0.96364,-0.07428 -1.68461,-0.91568 -1.61033,-1.87932z" fill="#da5cb1" stroke="none" stroke-width="0.5" stroke-linecap="butt"/><path d="M314.09985,127.78626c0.07428,-0.96364 0.91568,-1.68461 1.87932,-1.61033c0.96364,0.07428 1.68461,0.91568 1.61033,1.87932c-0.07428,0.96364 -0.91568,1.68461 -1.87932,1.61033c-0.96364,-0.07428 -1.68461,-0.91568 -1.61033,-1.87932z" fill="#942c3b" stroke="none" stroke-width="0.5" stroke-linecap="butt"/><path d="M323.40896,127.37549c0.96364,0.07428 1.68461,0.91568 1.61033,1.87932c-0.07428,0.96364 -0.91568,1.68461 -1.87932,1.61033c-0.45697,-0.03522 -0.85939,-0.24297 -1.14828,-0.55445c-0.33322,0.26352 -0.76272,0.40715 -1.21969,0.37192c-0.96364,-0.07428 -1.68461,-0.91568 -1.61033,-1.87932c0.07428,-0.96364 0.91568,-1.68461 1.87932,-1.61033c0.45697,0.03522 0.85939,0.24297 1.14828,0.55445c0.33322,-0.26352 0.76272,-0.40715 1.21969,-0.37192z" fill="#942c3b" stroke="none" stroke-width="0.5" stroke-linecap="butt"/><path d="M327.14761,129.29349c0.07428,-0.96364 0.91568,-1.68461 1.87932,-1.61033c0.96364,0.07428 1.68461,0.91568 1.61033,1.87932c-0.07428,0.96364 -0.91568,1.68461 -1.87932,1.61033c-0.96364,-0.07428 -1.68461,-0.91568 -1.61033,-1.87932z" fill="#942c3b" stroke="none" stroke-width="0.5" stroke-linecap="butt"/><path d="M331.39464,129.49549c0.07428,-0.96364 0.91568,-1.68461 1.87932,-1.61033c0.96364,0.07428 1.68461,0.91568 1.61033,1.87932c-0.07428,0.96364 -0.91568,1.68461 -1.87932,1.61033c-0.96364,-0.07428 -1.68461,-0.91568 -1.61033,-1.87932z" fill="#942c3b" stroke="none" stroke-width="0.5" stroke-linecap="butt"/><path d="M335.17198,129.28517c0.07428,-0.96364 0.91568,-1.68461 1.87932,-1.61033c0.96364,0.07428 1.68461,0.91568 1.61033,1.87932c-0.07428,0.96364 -0.91568,1.68461 -1.87932,1.61033c-0.96364,-0.07428 -1.68461,-0.91568 -1.61033,-1.87932z" fill="#942c3b" stroke="none" stroke-width="0.5" stroke-linecap="butt"/><path d="M344.48108,128.8744c0.96364,0.07428 1.68461,0.91568 1.61033,1.87932c-0.07428,0.96364 -0.91568,1.68461 -1.87932,1.61033c-0.82711,-0.06375 -1.47543,-0.69264 -1.59558,-1.4789c-0.27639,0.69178 -0.97786,1.15516 -1.75983,1.09489c-0.96364,-0.07428 -1.68461,-0.91568 -1.61033,-1.87932c0.07428,-0.96364 0.91568,-1.68461 1.87932,-1.61033c0.82711,0.06375 1.47543,0.69264 1.59558,1.4789c0.27639,-0.69178 0.97786,-1.15516 1.75983,-1.09489z" fill="#942c3b" stroke="none" stroke-width="0.5" stroke-linecap="butt"/><path d="M348.58402,130.94585c0.07428,-0.96364 0.91568,-1.68461 1.87932,-1.61033c0.96364,0.07428 1.68461,0.91568 1.61033,1.87932c-0.07428,0.96364 -0.91568,1.68461 -1.87932,1.61033c-0.96364,-0.07428 -1.68461,-0.91568 -1.61033,-1.87932z" fill="#942c3b" stroke="none" stroke-width="0.5" stroke-linecap="butt"/><path d="M353.56923,131.33012c0.07428,-0.96364 0.91568,-1.68461 1.87932,-1.61033c0.96364,0.07428 1.68461,0.91568 1.61033,1.87932c-0.07428,0.96364 -0.91568,1.68461 -1.87932,1.61033c-0.96364,-0.07428 -1.68461,-0.91568 -1.61033,-1.87932z" fill="#942c3b" stroke="none" stroke-width="0.5" stroke-linecap="butt"/><path d="M360.0404,131.9543c0.07428,-0.96364 0.91568,-1.68461 1.87932,-1.61033c0.96364,0.07428 1.68461,0.91568 1.61033,1.87932c-0.07428,0.96364 -0.91568,1.68461 -1.87932,1.61033c-0.96364,-0.07428 -1.68461,-0.91568 -1.61033,-1.87932z" fill="#942c3b" stroke="none" stroke-width="0.5" stroke-linecap="butt"/><path d="M379.76081,133.09828c0.96364,0.07428 1.68461,0.91568 1.61033,1.87932c-0.07428,0.96364 -0.91568,1.68461 -1.87932,1.61033c-0.65126,-0.0502 -1.19168,-0.45079 -1.45069,-1.00269c-0.34997,0.36392 -0.85389,0.5743 -1.39659,0.53247c-0.30329,-0.02338 -0.58255,-0.12274 -0.82053,-0.278c-0.30549,0.19026 -0.67218,0.28831 -1.05853,0.25853c-0.35958,-0.02772 -0.68538,-0.16225 -0.94867,-0.37009c-0.13062,0.02017 -0.26558,0.02575 -0.40305,0.01516c-0.75171,-0.05794 -1.35575,-0.5827 -1.54982,-1.26813c-0.3502,0.36795 -0.85693,0.58113 -1.40288,0.53905c-0.72016,-0.05551 -1.30479,-0.53946 -1.52324,-1.18269c-0.35098,0.39192 -0.874,0.6218 -1.43907,0.57824c-0.23954,-0.01846 -0.46407,-0.08433 -0.66513,-0.18768c-0.06517,0.00228 -0.13113,0.00093 -0.19767,-0.00419c-0.96364,-0.07428 -1.68461,-0.91568 -1.61033,-1.87932c0.07428,-0.96364 0.91568,-1.68461 1.87932,-1.61033c0.23954,0.01846 0.46407,0.08433 0.66513,0.18768c0.06517,-0.00228 0.13113,-0.00093 0.19767,0.00419c0.72016,0.05551 1.30479,0.53946 1.52324,1.18269c0.35098,-0.39192 0.874,-0.6218 1.43907,-0.57824c0.75171,0.05794 1.35575,0.5827 1.54982,1.26813c0.3502,-0.36795 0.85693,-0.58113 1.40288,-0.53905c0.35958,0.02772 0.68538,0.16225 0.94867,0.37009c0.13062,-0.02017 0.26558,-0.02575 0.40305,-0.01516c0.30329,0.02338 0.58255,0.12274 0.82053,0.278c0.30549,-0.19026 0.67218,-0.28831 1.05853,-0.25853c0.65126,0.0502 1.19168,0.45079 1.45069,1.00269c0.34997,-0.36392 0.85389,-0.5743 1.39659,-0.53247z" fill="#942c3b" stroke="none" stroke-width="0.5" stroke-linecap="butt"/><path d="M307.5882,140.69901c0.07428,-0.96364 0.91568,-1.68461 1.87932,-1.61033c0.96364,0.07428 1.68461,0.91568 1.61033,1.87932c-0.07428,0.96364 -0.91568,1.68461 -1.87932,1.61033c-0.96364,-0.07428 -1.68461,-0.91568 -1.61033,-1.87932z" fill="#9d2f3a" stroke="none" stroke-width="0.5" stroke-linecap="butt"/><path d="M314.95125,139.51138c0.96364,0.07428 1.68461,0.91568 1.61033,1.87932c-0.07428,0.96364 -0.91568,1.68461 -1.87932,1.61033c-0.21955,-0.01692 -0.4265,-0.07366 -0.61432,-0.16259c-0.19923,0.0591 -0.41243,0.08345 -0.63198,0.06653c-0.96364,-0.07428 -1.68461,-0.91568 -1.61033,-1.87932c0.07428,-0.96364 0.91568,-1.68461 1.87932,-1.61033c0.21955,0.01692 0.4265,0.07366 0.61432,0.16259c0.19923,-0.0591 0.41243,-0.08345 0.63198,-0.06653z" fill="#9d2f3a" stroke="none" stroke-width="0.5" stroke-linecap="butt"/><path d="M371.79202,145.39722c0.96364,0.07428 1.68461,0.91568 1.61033,1.87932c-0.07428,0.96364 -0.91568,1.68461 -1.87932,1.61033c-0.66158,-0.051 -1.20877,-0.46355 -1.46277,-1.02901c-0.34851,0.44958 -0.90918,0.72081 -1.51875,0.67382c-0.41061,-0.03165 -0.77716,-0.20259 -1.0569,-0.46291c-0.27695,0.14111 -0.59498,0.2102 -0.92758,0.18457c-0.46272,-0.03567 -0.86949,-0.24821 -1.15912,-0.56623c-0.30867,0.19692 -0.68147,0.29898 -1.07462,0.26868c-0.48822,-0.03763 -0.91416,-0.27217 -1.20594,-0.61976c-0.3416,0.29877 -0.79845,0.46526 -1.28667,0.42763c-0.55609,-0.04286 -1.03137,-0.34119 -1.31964,-0.77105c-0.35075,0.3806 -0.86613,0.60257 -1.42222,0.5597c-0.58537,-0.04512 -1.08121,-0.37333 -1.36362,-0.84004c-0.34857,0.34641 -0.84022,0.5448 -1.36864,0.50407c-0.96364,-0.07428 -1.68461,-0.91568 -1.61033,-1.87932c0.07428,-0.96364 0.91568,-1.68461 1.87932,-1.61033c0.58537,0.04512 1.08121,0.37333 1.36362,0.84004c0.34857,-0.34641 0.84022,-0.5448 1.36864,-0.50407c0.55609,0.04286 1.03137,0.34119 1.31964,0.77105c0.35075,-0.3806 0.86613,-0.60257 1.42222,-0.5597c0.48822,0.03763 0.91416,0.27217 1.20594,0.61976c0.3416,-0.29877 0.79845,-0.46526 1.28667,-0.42763c0.46272,0.03567 0.86949,0.24821 1.15912,0.56623c0.30867,-0.19692 0.68147,-0.29898 1.07462,-0.26868c0.41061,0.03165 0.77716,0.20259 1.0569,0.46291c0.27695,-0.14111 0.59498,-0.2102 0.92758,-0.18457c0.66158,0.051 1.20877,0.46355 1.46277,1.02901c0.34851,-0.44958 0.90918,-0.72081 1.51875,-0.67382z" fill="#9d2f3a" stroke="none" stroke-width="0.5" stroke-linecap="butt"/><path d="M374.15973,147.20955c0.07428,-0.96364 0.91568,-1.68461 1.87932,-1.61033c0.96364,0.07428 1.68461,0.91568 1.61033,1.87932c-0.07428,0.96364 -0.91568,1.68461 -1.87932,1.61033c-0.96364,-0.07428 -1.68461,-0.91568 -1.61033,-1.87932z" fill="#9d2f3a" stroke="none" stroke-width="0.5" stroke-linecap="butt"/><path d="M253.40438,126.36738c0.05306,-0.68831 0.65405,-1.20329 1.34237,-1.15024c0.68832,0.05306 1.20329,0.65406 1.15024,1.34237c-0.05306,0.68831 -0.65405,1.20329 -1.34237,1.15024c-0.68832,-0.05306 -1.20329,-0.65406 -1.15024,-1.34237z" fill="#7c0000" stroke="none" stroke-width="0.5" stroke-linecap="butt"/><path d="M263.83542,124.41327c0.05306,-0.68831 0.65405,-1.20329 1.34237,-1.15024c0.68832,0.05306 1.20329,0.65406 1.15024,1.34237c-0.05306,0.68831 -0.65405,1.20329 -1.34237,1.15024c-0.68832,-0.05306 -1.20329,-0.65406 -1.15024,-1.34237z" fill="#7c0000" stroke="none" stroke-width="0.5" stroke-linecap="butt"/><path d="M271.95534,126.41825c0.05306,-0.68831 0.65405,-1.20329 1.34237,-1.15024c0.68832,0.05306 1.20329,0.65406 1.15024,1.34237c-0.05306,0.68831 -0.65405,1.20329 -1.34237,1.15024c-0.68832,-0.05306 -1.20329,-0.65406 -1.15024,-1.34237z" fill="#7c0000" stroke="none" stroke-width="0.5" stroke-linecap="butt"/><path d="M276.34597,128.01039c0.05306,-0.68831 0.65405,-1.20329 1.34237,-1.15024c0.68832,0.05306 1.20329,0.65406 1.15024,1.34237c-0.05306,0.68831 -0.65405,1.20329 -1.34237,1.15024c-0.68832,-0.05306 -1.20329,-0.65406 -1.15024,-1.34237z" fill="#7c0000" stroke="none" stroke-width="0.5" stroke-linecap="butt"/><path d="M282.62526,129.49738c0.05306,-0.68831 0.65405,-1.20329 1.34237,-1.15024c0.68832,0.05306 1.20329,0.65406 1.15024,1.34237c-0.05306,0.68831 -0.65405,1.20329 -1.34237,1.15024c-0.68832,-0.05306 -1.20329,-0.65406 -1.15024,-1.34237z" fill="#7c0000" stroke="none" stroke-width="0.5" stroke-linecap="butt"/><path d="M287.23658,129.85283c0.05306,-0.68831 0.65405,-1.20329 1.34237,-1.15024c0.68832,0.05306 1.20329,0.65406 1.15024,1.34237c-0.05306,0.68831 -0.65405,1.20329 -1.34237,1.15024c-0.68832,-0.05306 -1.20329,-0.65406 -1.15024,-1.34237z" fill="#7c0000" stroke="none" stroke-width="0.5" stroke-linecap="butt"/><path d="M295.59693,127.11225c0.05306,-0.68831 0.65405,-1.20329 1.34237,-1.15024c0.68832,0.05306 1.20329,0.65406 1.15024,1.34237c-0.05306,0.68831 -0.65405,1.20329 -1.34237,1.15024c-0.68832,-0.05306 -1.20329,-0.65406 -1.15024,-1.34237z" fill="#7c0000" stroke="none" stroke-width="0.5" stroke-linecap="butt"/><path d="M304.60848,128.93521c0.05306,-0.68831 0.65405,-1.20329 1.34237,-1.15024c0.68832,0.05306 1.20329,0.65406 1.15024,1.34237c-0.05306,0.68831 -0.65405,1.20329 -1.34237,1.15024c-0.68832,-0.05306 -1.20329,-0.65406 -1.15024,-1.34237z" fill="#7c0000" stroke="none" stroke-width="0.5" stroke-linecap="butt"/><path d="M308.01141,131.95568c0.05306,-0.68831 0.65405,-1.20329 1.34237,-1.15024c0.68832,0.05306 1.20329,0.65406 1.15024,1.34237c-0.05306,0.68831 -0.65405,1.20329 -1.34237,1.15024c-0.68832,-0.05306 -1.20329,-0.65406 -1.15024,-1.34237z" fill="#7c0000" stroke="none" stroke-width="0.5" stroke-linecap="butt"/><path d="M246.47106,138.24466c0.05306,-0.68832 0.65405,-1.20329 1.34237,-1.15024c0.68832,0.05306 1.20329,0.65405 1.15024,1.34237c-0.05306,0.68832 -0.65405,1.20329 -1.34237,1.15024c-0.68832,-0.05306 -1.20329,-0.65405 -1.15024,-1.34237z" fill="#940039" stroke="none" stroke-width="0.5" stroke-linecap="butt"/><path d="M255.91694,133.78242c0.68832,0.05306 1.20329,0.65405 1.15024,1.34237c-0.05306,0.68832 -0.65405,1.20329 -1.34237,1.15024c-0.19399,-0.01495 -0.37421,-0.07343 -0.53183,-0.16511c-0.24432,0.35521 -0.66599,0.57426 -1.12679,0.53875c-0.68832,-0.05306 -1.20329,-0.65405 -1.15024,-1.34237c0.05306,-0.68832 0.65405,-1.20329 1.34237,-1.15024c0.19399,0.01495 0.37421,0.07343 0.53183,0.16512c0.24432,-0.35521 0.66599,-0.57427 1.12679,-0.53876z" fill="#940039" stroke="none" stroke-width="0.5" stroke-linecap="butt"/><path d="M255.46366,138.68708c0.05306,-0.68832 0.65405,-1.20329 1.34237,-1.15024c0.68832,0.05306 1.20329,0.65405 1.15024,1.34237c-0.05306,0.68832 -0.65405,1.20329 -1.34237,1.15024c-0.68832,-0.05306 -1.20329,-0.65405 -1.15024,-1.34237z" fill="#940039" stroke="none" stroke-width="0.5" stroke-linecap="butt"/><path d="M297.01384,139.63318c0.05306,-0.68832 0.65405,-1.20329 1.34237,-1.15024c0.68832,0.05306 1.20329,0.65405 1.15024,1.34237c-0.05306,0.68832 -0.65405,1.20329 -1.34237,1.15024c-0.68832,-0.05306 -1.20329,-0.65405 -1.15024,-1.34237z" fill="#940039" stroke="none" stroke-width="0.5" stroke-linecap="butt"/><path d="M298.48967,143.25732c0.05306,-0.68832 0.65405,-1.20329 1.34237,-1.15024c0.68832,0.05306 1.20329,0.65405 1.15024,1.34237c-0.05306,0.68832 -0.65405,1.20329 -1.34237,1.15024c-0.68832,-0.05306 -1.20329,-0.65405 -1.15024,-1.34237z" fill="#940039" stroke="none" stroke-width="0.5" stroke-linecap="butt"/><path d="M243.22913,147.77369c0.05306,-0.68832 0.65405,-1.20329 1.34237,-1.15024c0.68832,0.05306 1.20329,0.65405 1.15024,1.34237c-0.05306,0.68832 -0.65405,1.20329 -1.34237,1.15024c-0.68832,-0.05306 -1.20329,-0.65405 -1.15024,-1.34237z" fill="#da5cb1" stroke="none" stroke-width="0.5" stroke-linecap="butt"/><path d="M248.73234,146.31732c0.05306,-0.68832 0.65405,-1.20329 1.34237,-1.15024c0.68832,0.05306 1.20329,0.65405 1.15024,1.34237c-0.05306,0.68832 -0.65405,1.20329 -1.34237,1.15024c-0.68832,-0.05306 -1.20329,-0.65405 -1.15024,-1.34237z" fill="#da5cb1" stroke="none" stroke-width="0.5" stroke-linecap="butt"/><path d="M300.83689,153.46791c0.05306,-0.68832 0.65405,-1.20329 1.34237,-1.15024c0.68832,0.05306 1.20329,0.65405 1.15024,1.34237c-0.05306,0.68832 -0.65405,1.20329 -1.34237,1.15024c-0.68832,-0.05306 -1.20329,-0.65405 -1.15024,-1.34237z" fill="#da5cb1" stroke="none" stroke-width="0.5" stroke-linecap="butt"/><path d="M317.51385,133.59081c0.05306,-0.68831 0.65405,-1.20329 1.34237,-1.15024c0.68832,0.05306 1.20329,0.65406 1.15024,1.34237c-0.05306,0.68831 -0.65405,1.20329 -1.34237,1.15024c-0.68832,-0.05306 -1.20329,-0.65406 -1.15024,-1.34237z" fill="#942c3b" stroke="none" stroke-width="0.5" stroke-linecap="butt"/><path d="M322.49947,131.3674c0.05306,-0.68831 0.65405,-1.20329 1.34237,-1.15024c0.68832,0.05306 1.20329,0.65406 1.15024,1.34237c-0.05306,0.68831 -0.65405,1.20329 -1.34237,1.15024c-0.68832,-0.05306 -1.20329,-0.65406 -1.15024,-1.34237z" fill="#942c3b" stroke="none" stroke-width="0.5" stroke-linecap="butt"/><path d="M329.17218,130.67818c0.05306,-0.68831 0.65405,-1.20329 1.34237,-1.15024c0.68832,0.05306 1.20329,0.65406 1.15024,1.34237c-0.05306,0.68831 -0.65405,1.20329 -1.34237,1.15024c-0.68832,-0.05306 -1.20329,-0.65406 -1.15024,-1.34237z" fill="#942c3b" stroke="none" stroke-width="0.5" stroke-linecap="butt"/><path d="M336.6421,132.65813c0.05306,-0.68831 0.65405,-1.20329 1.34237,-1.15024c0.68832,0.05306 1.20329,0.65406 1.15024,1.34237c-0.05306,0.68831 -0.65405,1.20329 -1.34237,1.15024c-0.68832,-0.05306 -1.20329,-0.65406 -1.15024,-1.34237z" fill="#942c3b" stroke="none" stroke-width="0.5" stroke-linecap="butt"/><path d="M341.09016,134.80634c0.05306,-0.68831 0.65405,-1.20329 1.34237,-1.15024c0.68832,0.05306 1.20329,0.65406 1.15024,1.34237c-0.05306,0.68831 -0.65405,1.20329 -1.34237,1.15024c-0.68832,-0.05306 -1.20329,-0.65406 -1.15024,-1.34237z" fill="#942c3b" stroke="none" stroke-width="0.5" stroke-linecap="butt"/><path d="M348.2535,135.55909c0.05306,-0.68831 0.65405,-1.20329 1.34237,-1.15024c0.68832,0.05306 1.20329,0.65406 1.15024,1.34237c-0.05306,0.68831 -0.65405,1.20329 -1.34237,1.15024c-0.68832,-0.05306 -1.20329,-0.65406 -1.15024,-1.34237z" fill="#942c3b" stroke="none" stroke-width="0.5" stroke-linecap="butt"/><path d="M358.30036,137.93827c0.05306,-0.68831 0.65405,-1.20329 1.34237,-1.15024c0.68832,0.05306 1.20329,0.65406 1.15024,1.34237c-0.05306,0.68831 -0.65405,1.20329 -1.34237,1.15024c-0.68832,-0.05306 -1.20329,-0.65406 -1.15024,-1.34237z" fill="#942c3b" stroke="none" stroke-width="0.5" stroke-linecap="butt"/><path d="M363.08616,138.30717c0.05306,-0.68831 0.65405,-1.20329 1.34237,-1.15024c0.68832,0.05306 1.20329,0.65406 1.15024,1.34237c-0.05306,0.68831 -0.65405,1.20329 -1.34237,1.15024c-0.68832,-0.05306 -1.20329,-0.65406 -1.15024,-1.34237z" fill="#942c3b" stroke="none" stroke-width="0.5" stroke-linecap="butt"/><path d="M368.67001,136.12987c0.05306,-0.68831 0.65405,-1.20329 1.34237,-1.15024c0.68832,0.05306 1.20329,0.65406 1.15024,1.34237c-0.05306,0.68831 -0.65405,1.20329 -1.34237,1.15024c-0.68832,-0.05306 -1.20329,-0.65406 -1.15024,-1.34237z" fill="#942c3b" stroke="none" stroke-width="0.5" stroke-linecap="butt"/><path d="M374.89779,136.00814c0.05306,-0.68831 0.65405,-1.20329 1.34237,-1.15024c0.68832,0.05306 1.20329,0.65406 1.15024,1.34237c-0.05306,0.68831 -0.65405,1.20329 -1.34237,1.15024c-0.68832,-0.05306 -1.20329,-0.65406 -1.15024,-1.34237z" fill="#942c3b" stroke="none" stroke-width="0.5" stroke-linecap="butt"/><path d="M377.75017,140.64106c0.05306,-0.68831 0.65405,-1.20329 1.34237,-1.15024c0.68832,0.05306 1.20329,0.65406 1.15024,1.34237c-0.05306,0.68831 -0.65405,1.20329 -1.34237,1.15024c-0.68832,-0.05306 -1.20329,-0.65406 -1.15024,-1.34237z" fill="#942c3b" stroke="none" stroke-width="0.5" stroke-linecap="butt"/><path d="M307.28089,144.03526c0.05306,-0.68832 0.65405,-1.20329 1.34237,-1.15024c0.68832,0.05306 1.20329,0.65405 1.15024,1.34237c-0.05306,0.68832 -0.65405,1.20329 -1.34237,1.15024c-0.68832,-0.05306 -1.20329,-0.65405 -1.15024,-1.34237z" fill="#9d2f3a" stroke="none" stroke-width="0.5" stroke-linecap="butt"/><path d="M361.64255,149.22852c0.05306,-0.68832 0.65405,-1.20329 1.34237,-1.15024c0.68832,0.05306 1.20329,0.65405 1.15024,1.34237c-0.05306,0.68832 -0.65405,1.20329 -1.34237,1.15024c-0.68832,-0.05306 -1.20329,-0.65405 -1.15024,-1.34237z" fill="#9d2f3a" stroke="none" stroke-width="0.5" stroke-linecap="butt"/><path d="M364.44964,149.24431c0.05306,-0.68832 0.65405,-1.20329 1.34237,-1.15024c0.68832,0.05306 1.20329,0.65405 1.15024,1.34237c-0.05306,0.68832 -0.65405,1.20329 -1.34237,1.15024c-0.68832,-0.05306 -1.20329,-0.65405 -1.15024,-1.34237z" fill="#9d2f3a" stroke="none" stroke-width="0.5" stroke-linecap="butt"/><path d="M368.75977,150.57951c0.05306,-0.68832 0.65405,-1.20329 1.34237,-1.15024c0.68832,0.05306 1.20329,0.65405 1.15024,1.34237c-0.05306,0.68832 -0.65405,1.20329 -1.34237,1.15024c-0.68832,-0.05306 -1.20329,-0.65405 -1.15024,-1.34237z" fill="#9d2f3a" stroke="none" stroke-width="0.5" stroke-linecap="butt"/><path d="M371.04549,149.55213c0.05306,-0.68832 0.65405,-1.20329 1.34237,-1.15024c0.68832,0.05306 1.20329,0.65405 1.15024,1.34237c-0.05306,0.68832 -0.65405,1.20329 -1.34237,1.15024c-0.68832,-0.05306 -1.20329,-0.65405 -1.15024,-1.34237z" fill="#9d2f3a" stroke="none" stroke-width="0.5" stroke-linecap="butt"/><path d="M251.83909,130.735c0.03183,-0.41298 0.39243,-0.72198 0.80542,-0.69014c0.41299,0.03183 0.72198,0.39244 0.69014,0.80542c-0.03183,0.41298 -0.39243,0.72198 -0.80542,0.69014c-0.41299,-0.03183 -0.72198,-0.39244 -0.69014,-0.80542z" fill="#7c0000" stroke="none" stroke-width="0.5" stroke-linecap="butt"/><path d="M265.38349,131.97962c0.03183,-0.41298 0.39243,-0.72198 0.80542,-0.69014c0.41299,0.03183 0.72198,0.39244 0.69014,0.80542c-0.03183,0.41298 -0.39243,0.72198 -0.80542,0.69014c-0.41299,-0.03183 -0.72198,-0.39244 -0.69014,-0.80542z" fill="#7c0000" stroke="none" stroke-width="0.5" stroke-linecap="butt"/><path d="M297.54933,136.26437c0.03183,-0.41298 0.39243,-0.72198 0.80542,-0.69014c0.41299,0.03183 0.72198,0.39244 0.69014,0.80542c-0.03183,0.41299 -0.39243,0.72198 -0.80542,0.69014c-0.41299,-0.03183 -0.72198,-0.39243 -0.69014,-0.80542z" fill="#7c0000" stroke="none" stroke-width="0.5" stroke-linecap="butt"/><path d="M306.23149,135.52945c0.03183,-0.41298 0.39243,-0.72198 0.80542,-0.69014c0.41299,0.03183 0.72198,0.39244 0.69014,0.80542c-0.03183,0.41298 -0.39243,0.72198 -0.80542,0.69014c-0.41299,-0.03183 -0.72198,-0.39244 -0.69014,-0.80542z" fill="#7c0000" stroke="none" stroke-width="0.5" stroke-linecap="butt"/><path d="M245.91626,142.51465c0.03183,-0.41299 0.39243,-0.72198 0.80542,-0.69014c0.41299,0.03183 0.72198,0.39243 0.69014,0.80542c-0.03183,0.41299 -0.39243,0.72198 -0.80542,0.69014c-0.41299,-0.03183 -0.72198,-0.39243 -0.69014,-0.80542z" fill="#940039" stroke="none" stroke-width="0.5" stroke-linecap="butt"/><path d="M250.7328,142.48473c0.03183,-0.41299 0.39243,-0.72198 0.80542,-0.69014c0.41299,0.03183 0.72198,0.39243 0.69014,0.80542c-0.03183,0.41299 -0.39243,0.72198 -0.80542,0.69014c-0.41299,-0.03183 -0.72198,-0.39243 -0.69014,-0.80542z" fill="#940039" stroke="none" stroke-width="0.5" stroke-linecap="butt"/><path d="M300.6921,147.53925c0.03183,-0.41299 0.39243,-0.72198 0.80542,-0.69014c0.41299,0.03183 0.72198,0.39243 0.69014,0.80542c-0.03183,0.41299 -0.39243,0.72198 -0.80542,0.69014c-0.41299,-0.03183 -0.72198,-0.39243 -0.69014,-0.80542z" fill="#940039" stroke="none" stroke-width="0.5" stroke-linecap="butt"/><path d="M301.36513,159.62672c0.03183,-0.41299 0.39243,-0.72198 0.80542,-0.69014c0.41299,0.03183 0.72198,0.39243 0.69014,0.80542c-0.03183,0.41299 -0.39243,0.72198 -0.80542,0.69014c-0.41299,-0.03183 -0.72198,-0.39243 -0.69014,-0.80542z" fill="#da5cb1" stroke="none" stroke-width="0.5" stroke-linecap="butt"/><path d="M246.2669,156.18202c0.03183,-0.41298 0.39244,-0.72198 0.80542,-0.69014c0.41298,0.03183 0.72198,0.39244 0.69014,0.80542c-0.03183,0.41298 -0.39244,0.72198 -0.80542,0.69014c-0.41298,-0.03183 -0.72198,-0.39244 -0.69014,-0.80542z" fill="#da5cb1" stroke="none" stroke-width="0.5" stroke-linecap="butt"/><g stroke="#000000" stroke-width="0"><path d="M254.20287,159.15745l-5.18187,-10.72692l8.42825,2.71516z" fill="#000000" stroke-linecap="round"/><path d="M253.63376,154.19017c0.99664,-12.92966 12.28614,-22.60326 25.21579,-21.60662c12.92966,0.99664 22.60327,12.28613 21.60662,25.21578c-0.99664,12.92966 -12.28613,22.60328 -25.21578,21.60663c-12.92966,-0.99664 -22.60327,-12.28614 -21.60663,-25.21579z" fill="#ffffff" stroke-linecap="butt"/><path d="M256.92376,163.25482c0.46808,-6.07249 5.77025,-10.61577 11.84276,-10.14769c6.07249,0.46808 10.61577,5.77026 10.14769,11.84277c-0.46808,6.07249 -5.77026,10.61578 -11.84276,10.1477c-6.07249,-0.46808 -10.61577,-5.77026 -10.14769,-11.84277z" fill="#000000" stroke-linecap="butt"/><path d="M329.36863,183.5783c-12.95442,-0.59355 -21.45496,-12.19762 -20.45832,-25.12728c0.99664,-12.92966 11.03377,-23.76844 23.83782,-21.71284c27.68052,4.44391 24.91758,12.2335 23.92093,25.16315c-0.99664,12.92966 -5.13128,22.69274 -27.30043,21.67697z" fill="url(#color-1)" stroke-linecap="butt"/><path d="M332.74955,175.86463c-5.453,-0.42033 -6.19171,-5.07632 -5.77138,-10.52933c0.42033,-5.45302 1.84052,-9.63811 7.29352,-9.21779c5.453,0.42033 11.19752,5.30994 10.77719,10.76294c0,0 -6.84632,9.40451 -12.29934,8.98418z" fill="#000000" stroke-linecap="butt"/></g></g><g fill="#ff7be1" stroke="none" stroke-width="0" stroke-linecap="butt"><path d="M234.18107,238.67076c4.12384,3.6905 3.13481,13.53223 -3.6482,17.87024c-6.78301,4.33801 -14.82249,3.20679 -20.91526,-2.1609c-5.66618,-4.99187 -1.96814,-10.19889 4.81487,-14.53691c6.78301,-4.33802 15.62475,-4.86293 19.74858,-1.17243z"/><path d="M227.73268,256.4421c0,-3.40575 2.76092,-6.16667 6.16667,-6.16667c3.40575,0 6.16666,2.76091 6.16666,6.16667c0,3.40575 -2.76091,6.16667 -6.16666,6.16667c-3.40575,0 -6.16667,-2.76091 -6.16667,-6.16667z"/><path d="M224.39691,265.52389c-0.88996,5.68371 -2.47064,9.86236 -8.03317,9.28575c-5.234,-0.54256 -5.7003,-5.61309 -4.81033,-11.2968c0.88996,-5.68371 3.80641,-10.77322 8.21365,-10.43837c5.09965,0.38746 5.51982,6.76571 4.62985,12.44942z"/><path d="M210.81719,263.04672c-4.26801,3.85755 -8.12586,6.1107 -12.08638,2.16248c-3.72661,-3.71504 -0.89855,-7.94939 3.36947,-11.80694c4.26801,-3.85754 9.73718,-5.97815 12.9519,-2.94476c3.71978,3.50995 0.03303,8.73167 -4.23499,12.58922z"/><path d="M205.85778,257.95588c-5.17545,2.51223 -9.50903,3.59843 -12.20944,-1.29871c-2.54092,-4.60791 1.35709,-7.88407 6.53254,-10.39629c5.17545,-2.51223 24.85257,-12.02119 13.25898,0.78925c2.59163,4.40908 -2.40663,8.39353 -7.58209,10.90575z"/></g><g stroke="none" stroke-width="0" stroke-linecap="butt"><g fill="#940039"><path d="M297.81876,279.63435c0.88984,8.74538 -0.58999,16.15116 -13.80919,17.40392c-12.3058,1.1662 -16.14173,-5.52052 -17.03157,-14.2659c-0.88984,-8.74538 5.29275,-16.53738 13.80919,-17.40392c8.51644,-0.86654 16.14173,5.52052 17.03157,14.2659z"/><path d="M282.63385,301.86661c-1.3031,5.60344 -3.18503,9.65535 -8.69052,8.67362c-5.18033,-0.92375 -5.2747,-6.0148 -3.9716,-11.61824c1.3031,-5.60344 4.58382,-10.46612 8.95479,-9.80997c5.05768,0.75924 5.01044,7.15114 3.70734,12.75458z"/><path d="M296.0019,296.18256c2.50647,5.17825 3.58785,9.51302 -1.31229,12.20798c-4.61073,2.5358 -7.88255,-1.36586 -10.38902,-6.54411c-2.50647,-5.17825 -3.00893,-11.02259 0.80399,-13.2581c4.41196,-2.58673 8.39085,2.41597 10.89731,7.59422z"/><path d="M304.99929,286.78128c4.45833,3.63591 7.26872,7.10886 3.96449,11.62066c-3.10908,4.24532 -7.72224,2.08978 -12.18058,-1.54613c-4.45833,-3.63591 -7.38124,-8.72172 -4.86861,-12.358c2.90739,-4.20757 8.62636,-1.35243 13.08469,2.28348z"/></g><g fill="#ff7be1"><path d="M297.44198,278.89106c0.88984,8.74538 -0.58999,16.15116 -13.8092,17.40392c-12.3058,1.1662 -16.14173,-5.52052 -17.03157,-14.2659c-0.88984,-8.74538 5.29275,-16.53738 13.8092,-17.40392c8.51644,-0.86654 16.14173,5.52052 17.03157,14.2659z"/><path d="M258.60955,274.37931c1.86802,-3.74849 6.4211,-5.27291 10.16959,-3.40489c3.74849,1.86802 5.27291,6.4211 3.40489,10.16959c-1.86802,3.74849 -6.4211,5.27292 -10.16959,3.4049c-3.74849,-1.86802 -5.27291,-6.4211 -3.40489,-10.16959z"/><path d="M282.25707,301.12332c-1.3031,5.60344 -3.18503,9.65535 -8.69053,8.67362c-5.18033,-0.92375 -5.27469,-6.0148 -3.9716,-11.61824c1.3031,-5.60344 4.58382,-10.46612 8.95479,-9.80996c5.05768,0.75924 5.01043,7.15114 3.70734,12.75458z"/><path d="M295.62512,295.43927c2.50647,5.17825 3.58785,9.51302 -1.31229,12.20798c-4.61073,2.5358 -7.88255,-1.36586 -10.38902,-6.54411c-2.50647,-5.17825 -3.00893,-11.02259 0.80399,-13.2581c4.41196,-2.58673 8.39085,2.41598 10.89731,7.59422z"/><path d="M304.62251,286.03799c4.45833,3.63591 7.26872,7.10886 3.96449,11.62066c-3.10908,4.24532 -7.72224,2.08977 -12.18058,-1.54614c-4.45833,-3.63591 -7.38124,-8.72171 -4.86861,-12.358c2.90738,-4.20757 8.62636,-1.35243 13.0847,2.28348z"/></g></g></g></g></svg>