<svg version="1.1" xmlns="http://www.w3.org/2000/svg" xmlns:xlink="http://www.w3.org/1999/xlink" width="213.18203" height="280.18476" viewBox="0,0,213.18203,280.18476"><defs><linearGradient x1="394.06175" y1="82.5166" x2="379.84245" y2="119.00166" gradientUnits="userSpaceOnUse" id="color-1"><stop offset="0" stop-color="#000000" stop-opacity="0"/><stop offset="1" stop-color="#000000" stop-opacity="0.12941"/></linearGradient><linearGradient x1="259.06294" y1="65.35689" x2="260.31504" y2="104.49485" gradientUnits="userSpaceOnUse" id="color-2"><stop offset="0" stop-color="#000000" stop-opacity="0"/><stop offset="1" stop-color="#000000" stop-opacity="0.12941"/></linearGradient></defs><g transform="translate(-214.52362,-38.88751)"><g stroke-miterlimit="10"><g stroke-linecap="butt"><g><path d="M286.35186,319.07226l15.14285,-131.8421l37.78325,-0.15789l13.57389,132z" fill="#ffffff" stroke="#000000" stroke-width="0"/><path d="M295.03756,243.4497c2.31163,-20.12635 6.45715,-56.21953 6.45715,-56.21953l37.78325,-0.15789c0,0 3.72623,36.23595 5.80113,56.41339c0.06797,0.66099 -50.13384,0.76769 -50.04153,-0.03597z" fill="#c5c5c5" stroke="#000000" stroke-width="0"/><path d="M296.28412,232.59645c2.01457,-17.53997 5.21059,-45.36629 5.21059,-45.36629l37.78325,-0.15789c0,0 4.66307,45.11419 4.71681,45.63673c0.00337,0.03279 -47.73775,0.12343 -47.71065,-0.11255z" fill="#7e7e7e" stroke="#000000" stroke-width="0"/><path d="M297.74772,219.85353c1.58763,-13.82276 3.74699,-32.62337 3.74699,-32.62337l37.78325,-0.15789c0,0 1.95261,18.98827 3.38375,32.9055c0.00712,0.06919 -44.92683,-0.01249 -44.91399,-0.12423z" fill="#424242" stroke="#000000" stroke-width="0"/><path d="M297.5,220.16667c0,-0.9665 0.7835,-1.75 1.75,-1.75c0.9665,0 1.75,0.7835 1.75,1.75c0,0.9665 -0.7835,1.75 -1.75,1.75c-0.9665,0 -1.75,-0.7835 -1.75,-1.75z" fill="#424242" stroke="none" stroke-width="0.5"/><path d="M306.91667,217.75c0.9665,0 1.75,0.7835 1.75,1.75c0,0.9665 -0.7835,1.75 -1.75,1.75c-0.3017,0 -0.58556,-0.07635 -0.83333,-0.21077c-0.24777,0.13442 -0.53163,0.21077 -0.83333,0.21077c-0.9665,0 -1.75,-0.7835 -1.75,-1.75c0,-0.9665 0.7835,-1.75 1.75,-1.75c0.3017,0 0.58556,0.07635 0.83333,0.21077c0.24777,-0.13442 0.53163,-0.21077 0.83333,-0.21077z" fill="#424242" stroke="none" stroke-width="0.5"/><path d="M308.5,220.66667c0,-0.53086 0.33092,-0.98441 0.79772,-1.16566c0.26193,-0.63635 0.88812,-1.08434 1.61894,-1.08434c0.41516,0 0.79655,0.14456 1.09658,0.3861c0.20911,-0.21861 0.49678,-0.36146 0.81767,-0.3832c0.22793,-0.10871 0.48307,-0.16956 0.75242,-0.16956c0.61869,0 1.16238,0.32105 1.47358,0.80564c0.19664,-0.75131 0.88013,-1.30564 1.69308,-1.30564c0.9665,0 1.75,0.7835 1.75,1.75c0,0.9665 -0.7835,1.75 -1.75,1.75c-0.61869,0 -1.16238,-0.32105 -1.47358,-0.80564c-0.19664,0.75131 -0.88013,1.30564 -1.69308,1.30564c-0.49626,0 -0.94428,-0.20656 -1.26275,-0.5384c-0.31903,0.42793 -0.82911,0.70506 -1.40392,0.70506c-0.22382,0 -0.43782,-0.04201 -0.63455,-0.11859c-0.16145,0.07606 -0.34182,0.11859 -0.53212,0.11859c-0.69036,0 -1.25,-0.55964 -1.25,-1.25z" fill="#424242" stroke="none" stroke-width="0.5"/><path d="M332.91667,217.41667c0.9665,0 1.75,0.7835 1.75,1.75c0,0.9665 -0.7835,1.75 -1.75,1.75c-0.58936,0 -1.11067,-0.29134 -1.42777,-0.73785c-0.44514,0.90452 -1.57223,0.90452 -1.57223,0.90452h-2.5c0,0 -0.86581,0 -1.37944,-0.609c-0.31412,0.46781 -0.84806,0.77567 -1.4539,0.77567c-0.48967,0 -0.93237,-0.20111 -1.25,-0.52525c-0.31763,0.32414 -0.76033,0.52525 -1.25,0.52525c-0.9665,0 -1.75,-0.7835 -1.75,-1.75c0,-0.9665 0.7835,-1.75 1.75,-1.75c0.48967,0 0.93237,0.20111 1.25,0.52525c0.31763,-0.32414 0.76033,-0.52525 1.25,-0.52525c0.53241,0 1.00929,0.23775 1.33026,0.61289c0.48235,-0.77955 1.50308,-0.77955 1.50308,-0.77955h2.5c0,0 0.97758,0 1.47143,0.73064c0.29928,-0.53536 0.87165,-0.89731 1.52857,-0.89731z" fill="#424242" stroke="none" stroke-width="0.5"/><path d="M338.83334,221.16667c0,0.69036 -0.55964,1.25 -1.25,1.25c-0.54428,0 -1.0073,-0.34785 -1.17889,-0.83337c-0.96087,-0.00657 -1.73778,-0.78753 -1.73778,-1.74995c0,-0.9665 0.7835,-1.75 1.75,-1.75c0.72825,0 1.35259,0.44482 1.61616,1.07759c0.15789,-0.80422 0.86669,-1.41092 1.71717,-1.41092c0.3841,0 0.73931,0.12375 1.02792,0.33355c0.95362,0.01492 1.72208,0.79261 1.72208,1.74979c0,0.9665 -0.7835,1.75 -1.75,1.75c-0.3841,0 -0.73931,-0.12375 -1.02792,-0.33356c-0.33122,-0.00518 -0.6401,-0.10237 -0.9022,-0.26715c0.00887,0.06006 0.01345,0.12151 0.01345,0.18403z" fill="#424242" stroke="none" stroke-width="0.5"/><path d="M296.66667,232.83334c0,-0.9665 0.7835,-1.75 1.75,-1.75c0.9665,0 1.75,0.7835 1.75,1.75c0,0.9665 -0.7835,1.75 -1.75,1.75c-0.9665,0 -1.75,-0.7835 -1.75,-1.75z" fill="#7e7e7e" stroke="none" stroke-width="0.5"/><path d="M300.66667,232.16667c0,-0.9665 0.7835,-1.75 1.75,-1.75c0.9665,0 1.75,0.7835 1.75,1.75c0,0.9665 -0.7835,1.75 -1.75,1.75c-0.9665,0 -1.75,-0.7835 -1.75,-1.75z" fill="#7e7e7e" stroke="none" stroke-width="0.5"/><path d="M310.08333,230.25c0.9665,0 1.75,0.7835 1.75,1.75c0,0.9665 -0.7835,1.75 -1.75,1.75c-0.60339,0 -1.13547,-0.30538 -1.45009,-0.77001c-0.29284,0.5569 -0.87703,0.93668 -1.54991,0.93668c-0.9665,0 -1.75,-0.7835 -1.75,-1.75c0,-0.9665 0.7835,-1.75 1.75,-1.75c0.60339,0 1.13546,0.30538 1.45008,0.77002c0.29284,-0.5569 0.87703,-0.93668 1.54992,-0.93668z" fill="#7e7e7e" stroke="none" stroke-width="0.5"/><path d="M314.33333,232.83334c0,-0.9665 0.7835,-1.75 1.75,-1.75c0.9665,0 1.75,0.7835 1.75,1.75c0,0.9665 -0.7835,1.75 -1.75,1.75c-0.9665,0 -1.75,-0.7835 -1.75,-1.75z" fill="#7e7e7e" stroke="none" stroke-width="0.5"/><path d="M322.16667,232.83334c0,-0.9665 0.7835,-1.75 1.75,-1.75c0.9665,0 1.75,0.7835 1.75,1.75c0,0.9665 -0.7835,1.75 -1.75,1.75c-0.9665,0 -1.75,-0.7835 -1.75,-1.75z" fill="#7e7e7e" stroke="none" stroke-width="0.5"/><path d="M327.83333,232.66667c0,-0.9665 0.7835,-1.75 1.75,-1.75c0.9665,0 1.75,0.7835 1.75,1.75c0,0.9665 -0.7835,1.75 -1.75,1.75c-0.9665,0 -1.75,-0.7835 -1.75,-1.75z" fill="#7e7e7e" stroke="none" stroke-width="0.5"/><path d="M331.5,232.66667c0,-0.9665 0.7835,-1.75 1.75,-1.75c0.9665,0 1.75,0.7835 1.75,1.75c0,0.9665 -0.7835,1.75 -1.75,1.75c-0.9665,0 -1.75,-0.7835 -1.75,-1.75z" fill="#7e7e7e" stroke="none" stroke-width="0.5"/><path d="M341.75,230.91667c0.9665,0 1.75,0.7835 1.75,1.75c0,0.9665 -0.7835,1.75 -1.75,1.75c-0.14358,0 -0.28313,-0.01729 -0.41667,-0.0499c-0.13353,0.03261 -0.27308,0.0499 -0.41667,0.0499c-0.4482,0 -0.85706,-0.1685 -1.16667,-0.44561c-0.30961,0.27711 -0.71846,0.44561 -1.16667,0.44561c-0.2684,0 -0.52269,-0.06042 -0.75,-0.16841c-0.22731,0.10799 -0.4816,0.16841 -0.75,0.16841c-0.9665,0 -1.75,-0.7835 -1.75,-1.75c0,-0.9665 0.7835,-1.75 1.75,-1.75c0.2684,0 0.52269,0.06042 0.75,0.16841c0.22731,-0.10799 0.4816,-0.16841 0.75,-0.16841c0.4482,0 0.85706,0.1685 1.16667,0.44561c0.30961,-0.27711 0.71846,-0.44561 1.16667,-0.44561c0.14358,0 0.28313,0.0173 0.41667,0.04991c0.13353,-0.03261 0.27308,-0.04991 0.41667,-0.04991z" fill="#7e7e7e" stroke="none" stroke-width="0.5"/><path d="M317.83333,233c0,-0.9665 0.7835,-1.75 1.75,-1.75c0.9665,0 1.75,0.7835 1.75,1.75c0,0.9665 -0.7835,1.75 -1.75,1.75c-0.9665,0 -1.75,-0.7835 -1.75,-1.75z" fill="#7e7e7e" stroke="none" stroke-width="0.5"/><path d="M294.83333,244c0,-0.9665 0.7835,-1.75 1.75,-1.75c0.9665,0 1.75,0.7835 1.75,1.75c0,0.9665 -0.7835,1.75 -1.75,1.75c-0.9665,0 -1.75,-0.7835 -1.75,-1.75z" fill="#c5c5c5" stroke="none" stroke-width="0.5"/><path d="M341.33334,244.16667c0,-0.9665 0.7835,-1.75 1.75,-1.75c0.9665,0 1.75,0.7835 1.75,1.75c0,0.9665 -0.7835,1.75 -1.75,1.75c-0.9665,0 -1.75,-0.7835 -1.75,-1.75z" fill="#c5c5c5" stroke="none" stroke-width="0.5"/><path d="M335.33333,244c0,-0.9665 0.7835,-1.75 1.75,-1.75c0.37181,0 0.71654,0.11595 1,0.31367c0.28346,-0.19772 0.62819,-0.31367 1,-0.31367c0.9665,0 1.75,0.7835 1.75,1.75c0,0.9665 -0.7835,1.75 -1.75,1.75c-0.37181,0 -0.71654,-0.11595 -1,-0.31367c-0.28346,0.19772 -0.62819,0.31367 -1,0.31367c-0.9665,0 -1.75,-0.7835 -1.75,-1.75z" fill="#c5c5c5" stroke="none" stroke-width="0.5"/><path d="M331.66667,244.33334c0,-0.9665 0.7835,-1.75 1.75,-1.75c0.9665,0 1.75,0.7835 1.75,1.75c0,0.9665 -0.7835,1.75 -1.75,1.75c-0.9665,0 -1.75,-0.7835 -1.75,-1.75z" fill="#c5c5c5" stroke="none" stroke-width="0.5"/><path d="M326.66667,244.33334c0,-0.9665 0.7835,-1.75 1.75,-1.75c0.9665,0 1.75,0.7835 1.75,1.75c0,0.9665 -0.7835,1.75 -1.75,1.75c-0.9665,0 -1.75,-0.7835 -1.75,-1.75z" fill="#c5c5c5" stroke="none" stroke-width="0.5"/><path d="M319.67271,243.68801c0.14533,-1.74395 1.88929,-1.59862 1.88929,-1.59862l2,0.16666c0,0 1.74395,0.14533 1.59862,1.88929c-0.14533,1.74395 -1.88928,1.59862 -1.88928,1.59862l-2,-0.16666c0,0 -1.74396,-0.14533 -1.59863,-1.88929z" fill="#c5c5c5" stroke="none" stroke-width="0.5"/><path d="M306.91667,241.91667c0.24572,0 0.47962,0.05065 0.69182,0.14207c0.24705,-0.66682 0.88878,-1.14207 1.64152,-1.14207c0.58252,0 1.09858,0.28462 1.41667,0.72239c0.31809,-0.43777 0.83414,-0.72239 1.41667,-0.72239c0.53935,0 1.02171,0.24399 1.34273,0.62762c0.20294,-0.08229 0.42481,-0.12762 0.65727,-0.12762c0.9665,0 1.75,0.7835 1.75,1.75c0,0.9665 -0.7835,1.75 -1.75,1.75c-0.53935,0 -1.02171,-0.24399 -1.34273,-0.62762c-0.20294,0.08229 -0.42481,0.12762 -0.65727,0.12762c-0.58252,0 -1.09858,-0.28462 -1.41667,-0.72239c-0.31809,0.43777 -0.83414,0.72239 -1.41667,0.72239c-0.24572,0 -0.47962,-0.05065 -0.69182,-0.14207c-0.24705,0.66682 -0.88878,1.14207 -1.64152,1.14207c-0.79836,0 -1.47185,-0.5346 -1.68202,-1.26535c-0.30771,0.26902 -0.71048,0.43202 -1.15131,0.43202c-0.3017,0 -0.58556,-0.07635 -0.83333,-0.21077c-0.24777,0.13442 -0.53163,0.21077 -0.83333,0.21077c-0.21569,0 -0.42227,-0.03903 -0.61306,-0.1104c-0.29161,0.56074 -0.87788,0.94373 -1.55361,0.94373c-0.9665,0 -1.75,-0.7835 -1.75,-1.75c0,-0.9665 0.7835,-1.75 1.75,-1.75c0.21569,0 0.42227,0.03903 0.61306,0.1104c0.29161,-0.56074 0.87788,-0.94373 1.55361,-0.94373c0.3017,0 0.58556,0.07635 0.83333,0.21077c0.24777,-0.13442 0.53163,-0.21077 0.83333,-0.21077c0.79836,0 1.47185,0.5346 1.68202,1.26535c0.30771,-0.26902 0.71048,-0.43202 1.15131,-0.43202z" fill="#c5c5c5" stroke="none" stroke-width="0.5"/><path d="M301.66667,224.83334c0,-0.69036 0.55964,-1.25 1.25,-1.25c0.69036,0 1.25,0.55964 1.25,1.25c0,0.69036 -0.55964,1.25 -1.25,1.25c-0.69036,0 -1.25,-0.55964 -1.25,-1.25z" fill="#424242" stroke="none" stroke-width="0.5"/><path d="M316.16667,222.66667c0,-0.69036 0.55964,-1.25 1.25,-1.25c0.69036,0 1.25,0.55964 1.25,1.25c0,0.69036 -0.55964,1.25 -1.25,1.25c-0.69036,0 -1.25,-0.55964 -1.25,-1.25z" fill="#424242" stroke="none" stroke-width="0.5"/><path d="M319.16667,223.83334c0,-0.69036 0.55964,-1.25 1.25,-1.25c0.69036,0 1.25,0.55964 1.25,1.25c0,0.69036 -0.55964,1.25 -1.25,1.25c-0.69036,0 -1.25,-0.55964 -1.25,-1.25z" fill="#424242" stroke="none" stroke-width="0.5"/><path d="M324.66667,225.5c0,-0.69036 0.55964,-1.25 1.25,-1.25c0.69036,0 1.25,0.55964 1.25,1.25c0,0.69036 -0.55964,1.25 -1.25,1.25c-0.69036,0 -1.25,-0.55964 -1.25,-1.25z" fill="#424242" stroke="none" stroke-width="0.5"/><path d="M327.5,225.33334c0,-0.69036 0.55964,-1.25 1.25,-1.25c0.69036,0 1.25,0.55964 1.25,1.25c0,0.69036 -0.55964,1.25 -1.25,1.25c-0.69036,0 -1.25,-0.55964 -1.25,-1.25z" fill="#424242" stroke="none" stroke-width="0.5"/><path d="M331.83333,223.33334c0,-0.69036 0.55964,-1.25 1.25,-1.25c0.69036,0 1.25,0.55964 1.25,1.25c0,0.69036 -0.55964,1.25 -1.25,1.25c-0.69036,0 -1.25,-0.55964 -1.25,-1.25z" fill="#424242" stroke="none" stroke-width="0.5"/><path d="M299.33333,238.33334c0,-0.69036 0.55964,-1.25 1.25,-1.25c0.69036,0 1.25,0.55964 1.25,1.25c0,0.69036 -0.55964,1.25 -1.25,1.25c-0.69036,0 -1.25,-0.55964 -1.25,-1.25z" fill="#7e7e7e" stroke="none" stroke-width="0.5"/><path d="M312.33333,234.33334c0,-0.69036 0.55964,-1.25 1.25,-1.25c0.69036,0 1.25,0.55964 1.25,1.25c0,0.69036 -0.55964,1.25 -1.25,1.25c-0.69036,0 -1.25,-0.55964 -1.25,-1.25z" fill="#7e7e7e" stroke="none" stroke-width="0.5"/><path d="M318,233.66667c0,-0.69036 0.55964,-1.25 1.25,-1.25c0.69036,0 1.25,0.55964 1.25,1.25c0,0.69036 -0.55964,1.25 -1.25,1.25c-0.69036,0 -1.25,-0.55964 -1.25,-1.25z" fill="#7e7e7e" stroke="none" stroke-width="0.5"/><path d="M325.5,236.33334c0,-0.69036 0.55964,-1.25 1.25,-1.25c0.69036,0 1.25,0.55964 1.25,1.25c0,0.69036 -0.55964,1.25 -1.25,1.25c-0.69036,0 -1.25,-0.55964 -1.25,-1.25z" fill="#7e7e7e" stroke="none" stroke-width="0.5"/><path d="M336.16667,238c0,-0.69036 0.55964,-1.25 1.25,-1.25c0.69036,0 1.25,0.55964 1.25,1.25c0,0.69036 -0.55964,1.25 -1.25,1.25c-0.69036,0 -1.25,-0.55964 -1.25,-1.25z" fill="#7e7e7e" stroke="none" stroke-width="0.5"/><path d="M340,238.33334c0,-0.69036 0.55964,-1.25 1.25,-1.25c0.69036,0 1.25,0.55964 1.25,1.25c0,0.69036 -0.55964,1.25 -1.25,1.25c-0.69036,0 -1.25,-0.55964 -1.25,-1.25z" fill="#7e7e7e" stroke="none" stroke-width="0.5"/><path d="M305.5,236.66667c0,-0.69036 0.55964,-1.25 1.25,-1.25c0.69036,0 1.25,0.55964 1.25,1.25c0,0.69036 -0.55964,1.25 -1.25,1.25c-0.69036,0 -1.25,-0.55964 -1.25,-1.25z" fill="#7e7e7e" stroke="none" stroke-width="0.5"/><path d="M296.16667,249.33334c0,-0.69036 0.55964,-1.25 1.25,-1.25c0.69036,0 1.25,0.55964 1.25,1.25c0,0.69036 -0.55964,1.25 -1.25,1.25c-0.69036,0 -1.25,-0.55964 -1.25,-1.25z" fill="#c5c5c5" stroke="none" stroke-width="0.5"/><path d="M306.5,248.33334c0,-0.69036 0.55964,-1.25 1.25,-1.25c0.69036,0 1.25,0.55964 1.25,1.25c0,0.69036 -0.55964,1.25 -1.25,1.25c-0.69036,0 -1.25,-0.55964 -1.25,-1.25z" fill="#c5c5c5" stroke="none" stroke-width="0.5"/><path d="M310.83333,246.33334c0,-0.69036 0.55964,-1.25 1.25,-1.25c0.69036,0 1.25,0.55964 1.25,1.25c0,0.69036 -0.55964,1.25 -1.25,1.25c-0.69036,0 -1.25,-0.55964 -1.25,-1.25z" fill="#c5c5c5" stroke="none" stroke-width="0.5"/><path d="M317.16667,244.66667c0,-0.69036 0.55964,-1.25 1.25,-1.25c0.69036,0 1.25,0.55964 1.25,1.25c0,0.69036 -0.55964,1.25 -1.25,1.25c-0.69036,0 -1.25,-0.55964 -1.25,-1.25z" fill="#c5c5c5" stroke="none" stroke-width="0.5"/><path d="M332.33333,249.83334c0,-0.69036 0.55964,-1.25 1.25,-1.25c0.69036,0 1.25,0.55964 1.25,1.25c0,0.69036 -0.55964,1.25 -1.25,1.25c-0.69036,0 -1.25,-0.55964 -1.25,-1.25z" fill="#c5c5c5" stroke="none" stroke-width="0.5"/><path d="M341.66667,249.5c0,-0.69036 0.55964,-1.25 1.25,-1.25c0.69036,0 1.25,0.55964 1.25,1.25c0,0.69036 -0.55964,1.25 -1.25,1.25c-0.69036,0 -1.25,-0.55964 -1.25,-1.25z" fill="#c5c5c5" stroke="none" stroke-width="0.5"/><path d="M341,244.5c0,-0.69036 0.55964,-1.25 1.25,-1.25c0.69036,0 1.25,0.55964 1.25,1.25c0,0.69036 -0.55964,1.25 -1.25,1.25c-0.69036,0 -1.25,-0.55964 -1.25,-1.25z" fill="#c5c5c5" stroke="none" stroke-width="0.5"/><path d="M302.5,229.5c0,-0.41422 0.33578,-0.75 0.75,-0.75c0.41422,0 0.75,0.33578 0.75,0.75c0,0.41422 -0.33578,0.75 -0.75,0.75c-0.41422,0 -0.75,-0.33578 -0.75,-0.75z" fill="#424242" stroke="none" stroke-width="0.5"/><path d="M310.16667,226.66667c0,-0.41422 0.33578,-0.75 0.75,-0.75c0.41422,0 0.75,0.33578 0.75,0.75c0,0.41422 -0.33578,0.75 -0.75,0.75c-0.41422,0 -0.75,-0.33578 -0.75,-0.75z" fill="#424242" stroke="none" stroke-width="0.5"/><path d="M318.16667,229.33334c0,-0.41422 0.33578,-0.75 0.75,-0.75c0.41422,0 0.75,0.33578 0.75,0.75c0,0.41422 -0.33578,0.75 -0.75,0.75c-0.41422,0 -0.75,-0.33578 -0.75,-0.75z" fill="#424242" stroke="none" stroke-width="0.5"/><path d="M323.16667,230c0,-0.41422 0.33578,-0.75 0.75,-0.75c0.41422,0 0.75,0.33578 0.75,0.75c0,0.41422 -0.33578,0.75 -0.75,0.75c-0.41422,0 -0.75,-0.33578 -0.75,-0.75z" fill="#424242" stroke="none" stroke-width="0.5"/><path d="M329.66667,229.83334c0,-0.41422 0.33578,-0.75 0.75,-0.75c0.41422,0 0.75,0.33578 0.75,0.75c0,0.41422 -0.33578,0.75 -0.75,0.75c-0.41422,0 -0.75,-0.33578 -0.75,-0.75z" fill="#424242" stroke="none" stroke-width="0.5"/><path d="M341.33334,229.16667c0,-0.41422 0.33578,-0.75 0.75,-0.75c0.41422,0 0.75,0.33578 0.75,0.75c0,0.41422 -0.33578,0.75 -0.75,0.75c-0.41422,0 -0.75,-0.33578 -0.75,-0.75z" fill="#424242" stroke="none" stroke-width="0.5"/><path d="M301,242.16667c0,-0.41422 0.33578,-0.75 0.75,-0.75c0.41422,0 0.75,0.33578 0.75,0.75c0,0.41422 -0.33578,0.75 -0.75,0.75c-0.41422,0 -0.75,-0.33578 -0.75,-0.75z" fill="#7e7e7e" stroke="none" stroke-width="0.5"/><path d="M311.33333,239.83334c0,-0.41422 0.33578,-0.75 0.75,-0.75c0.41422,0 0.75,0.33578 0.75,0.75c0,0.41422 -0.33578,0.75 -0.75,0.75c-0.41422,0 -0.75,-0.33578 -0.75,-0.75z" fill="#7e7e7e" stroke="none" stroke-width="0.5"/><path d="M323.5,240c0,-0.41422 0.33578,-0.75 0.75,-0.75c0.41422,0 0.75,0.33578 0.75,0.75c0,0.41422 -0.33578,0.75 -0.75,0.75c-0.41422,0 -0.75,-0.33578 -0.75,-0.75z" fill="#7e7e7e" stroke="none" stroke-width="0.5"/><path d="M338,242.83334c0,-0.41422 0.33578,-0.75 0.75,-0.75c0.41422,0 0.75,0.33578 0.75,0.75c0,0.41422 -0.33578,0.75 -0.75,0.75c-0.41422,0 -0.75,-0.33578 -0.75,-0.75z" fill="#7e7e7e" stroke="none" stroke-width="0.5"/><path d="M300,254.66667c0,-0.41422 0.33578,-0.75 0.75,-0.75c0.41422,0 0.75,0.33578 0.75,0.75c0,0.41422 -0.33578,0.75 -0.75,0.75c-0.41422,0 -0.75,-0.33578 -0.75,-0.75z" fill="#c5c5c5" stroke="none" stroke-width="0.5"/><path d="M312.83333,250.83334c0,-0.41422 0.33578,-0.75 0.75,-0.75c0.41422,0 0.75,0.33578 0.75,0.75c0,0.41422 -0.33578,0.75 -0.75,0.75c-0.41422,0 -0.75,-0.33578 -0.75,-0.75z" fill="#c5c5c5" stroke="none" stroke-width="0.5"/><path d="M330.33333,255.66667c0,-0.41422 0.33578,-0.75 0.75,-0.75c0.41422,0 0.75,0.33578 0.75,0.75c0,0.41421 -0.33578,0.75 -0.75,0.75c-0.41422,0 -0.75,-0.33579 -0.75,-0.75z" fill="#c5c5c5" stroke="none" stroke-width="0.5"/><path d="M339.16667,255.66667c0,-0.41422 0.33578,-0.75 0.75,-0.75c0.41422,0 0.75,0.33578 0.75,0.75c0,0.41421 -0.33578,0.75 -0.75,0.75c-0.41422,0 -0.75,-0.33579 -0.75,-0.75z" fill="#c5c5c5" stroke="none" stroke-width="0.5"/></g><path d="M296.16293,233.6608c0.00584,-0.25247 -0.00434,-0.50932 -0.00434,-0.77985c0,0 0,-0.02409 0.00748,-0.05731c-0.00469,-0.1515 -0.00748,-0.29934 -0.00748,-0.44269c0,-3.07638 0.48233,-6.38564 1.07346,-9.39207c0.50942,-2.51696 0.93681,-5.70001 0.92654,-8.27459c0,0 0,-0.0363 0.01383,-0.08124c-0.00426,-0.01363 -0.00777,-0.02838 -0.01043,-0.04433c-0.0411,-0.2466 0.2055,-0.2877 0.2055,-0.2877l0.01361,-0.00227c0.8039,-0.13398 1.94832,-0.54857 3.13114,-0.9152c-0.03816,-0.08816 -0.03946,-0.18016 0.00343,-0.27561c0.2339,-0.52048 3.50469,-0.47449 4.03328,-0.47688l0.00052,0.00018v-0.00018l0.35902,-0.00012c0.00003,0 0.00006,0 0.00009,0c0.13807,0 0.25,0.11193 0.25,0.25c0,0.11246 -0.07426,0.20758 -0.17641,0.23899l-0.46887,0.15629l-0.02005,-0.06014c-0.47198,0.22753 -1.00947,0.41779 -1.58095,0.58009c0.77601,0.10237 1.53592,0.16805 2.23846,0.44374l0.0292,-0.0876l0.16982,0.05661l-0.13571,-0.17092c-0.0347,-0.04292 -0.05549,-0.09757 -0.05549,-0.15706c0,-0.13807 0.11193,-0.25 0.25,-0.25h0.5v0.0252c0.98813,-0.12584 1.99435,-0.13647 2.9884,-0.19151l0.00689,0.00191v-0.00201l0.49998,-0.00019c0.00004,0 0.00007,0 0.00011,0c0.13807,0 0.25,0.11193 0.25,0.25c0,0.11223 -0.07395,0.20718 -0.17578,0.2388l-0.46844,0.15754l-0.01918,-0.05703c-0.48424,0.23641 -1.01363,0.41452 -1.57003,0.54958c0.9708,0.31925 1.97355,0.58754 2.90575,0.9795c2.01073,0.84552 3.88519,1.61623 6.00613,2.14647c0.90029,0.22507 1.98539,0.26133 2.80812,0.68785l0.04653,-0.09305l0.32849,0.16424c0.08456,0.04009 0.14304,0.12623 0.14304,0.22603c0,0.13807 -0.11193,0.25 -0.25,0.25h-0.49139c-3.08415,0.2856 -5.96808,1.0327 -8.98953,1.68016c-2.65911,0.56981 -5.55029,1.31799 -8.28552,1.69064c2.5467,0.11538 5.08925,0.46794 7.64033,0.55874c2.3423,0.08337 4.65992,0.28959 6.99334,0.50665c0.84102,0.07823 1.79904,-0.00121 2.53038,0.36755l0.05938,-0.10434l0.2904,0.16528c0.07779,0.04238 0.13057,0.12487 0.13057,0.21968c0,0.13613 -0.1088,0.24684 -0.24418,0.24993l-0.499,0.01326c-1.22922,0.03266 -2.64356,0.51109 -3.92799,0.59684c0.50378,0.10701 1.00954,0.20896 1.51901,0.2622c2.28716,0.24075 7.14545,-0.05334 9.34601,1.2331l0.03999,-0.07997l0.32849,0.16424c0.08456,0.04009 0.14304,0.12623 0.14304,0.22603c0,0.13807 -0.11193,0.25 -0.25,0.25c-1.27778,0 -3.05556,0 -4.33333,0c-2.30033,0 -4.56189,0.49308 -6.83151,0.85622c-0.35341,0.05654 -0.8453,0.19795 -1.33397,0.28917c1.75691,0.54377 -0.90606,1.23088 -2.74348,1.62269c-3.13796,0.66407 3.02055,2.3952 5.29243,3.21986l0.02544,-0.10175l0.48,0.12c0.11133,0.02526 0.19444,0.12483 0.19444,0.2438c0,0.13807 -0.11193,0.25 -0.25,0.25c-0.44444,0 -1.38889,0 -1.83333,0c-2.12349,0 -4.19052,0.05264 -6.28034,0.49432c-0.59665,0.1261 -1.37214,0.51855 -2.07569,0.68609c1.9295,0.31326 3.85337,0.6482 5.77712,0.99782c3.44082,0.62532 6.87934,1.27532 10.33591,1.8071c2.7452,0.42234 6.6588,0.29309 9.30648,1.44917l0.01207,-0.04829l0.48,0.12c0.11133,0.02526 0.19444,0.12483 0.19444,0.2438c0,0.13807 -0.11193,0.25 -0.25,0.25h-0.5c-0.32033,-0.00066 -0.64256,-0.02324 -0.9575,-0.08173c-3.45137,-0.65665 -6.86651,-0.91827 -10.37584,-0.91827c-3.42152,0 -6.79293,-0.09906 -10.16416,0.56883c-1.52057,0.30056 -3.50811,0.13779 -4.932,0.76023c-0.36251,0.15847 0.68279,0.4145 1.05987,0.53421c0.93244,0.29602 1.85869,0.55405 2.81487,0.76677c2.65569,0.59092 6.77373,0.97886 9.19318,2.55841l0.02617,-0.05233l0.44237,0.22118c0.08456,0.04009 0.14304,0.12623 0.14304,0.22603c0,0.13807 -0.11193,0.25 -0.25,0.25h-0.5v-0.0073l-0.02448,0.0061c-2.6229,-0.5125 -5.62986,-0.33213 -8.30886,-0.33213c-2.38424,0 -4.20105,0.31891 -6.48016,0.87652c-0.36311,0.08884 -1.4293,0.37661 -2.04371,0.38495c0.65615,0.40556 1.28922,0.69047 1.80519,1.20858l0.06318,-0.06242l0.31722,0.32109c0.00003,0.00003 0.00005,0.00005 0.00008,0.00008c0.04461,0.04515 0.07216,0.10721 0.07216,0.1757c0,0.13807 -0.11193,0.25 -0.25,0.25c-0.00641,0 -0.01276,-0.00024 -0.01904,-0.00071l-0.49646,-0.03307l0.00038,-0.00571l-0.02254,0.00323c-1.8429,-0.46422 -5.42643,-0.70891 -7.28249,-0.17938c-0.15239,0.35523 -0.0891,1.43597 -0.32036,1.65458c-0.80961,0.76532 -1.09138,-1.01719 -1.09344,-1.34344c-0.012,-1.89735 0.33333,-3.67725 0.33333,-5.5c0,-2.17504 0.31047,-4.23607 0.82418,-6.32656c-0.08314,-0.04061 -0.14041,-0.126 -0.14041,-0.22476c0,-0.02228 0.00292,-0.04389 0.00839,-0.06445l0.11677,-0.48045l0.02032,0.00494c0.00717,-0.30587 0.05331,-0.59232 0.17502,-0.96212zM307.54357,214.17458c-0.12199,-0.00332 -0.24034,-0.01184 -0.35334,-0.02696c0.04512,0.01932 0.09042,0.03834 0.1359,0.05708c0.07251,-0.00977 0.14499,-0.01981 0.21744,-0.03012z" fill="#da3243" stroke="none" stroke-width="0.5"/><path d="M324.40858,219.79762c0,0 -0.25,0 -0.25,-0.25c0,-0.25 0.25,-0.25 0.25,-0.25c0.59546,0.00123 1.18996,0.05067 1.78543,0.11111c0.06897,-0.11111 0.21457,-0.11111 0.21457,-0.11111l0.35106,0.00063c0.5999,0.08467 1.57737,0.05324 2.19877,0.33211c0.03893,0.0004 0.07788,0.0006 0.11684,0.0006h0.5c0.13807,0 0.25,0.11193 0.25,0.25c0,0.13807 -0.11193,0.25 -0.25,0.25h-0.5c-1.56935,-0.00002 -3.11992,-0.33692 -4.66667,-0.33333z" fill="#da3243" stroke="none" stroke-width="0.5"/><path d="M337.50416,240.13519c-0.08668,-0.00276 -0.17406,-0.00424 -0.26225,-0.00424c0,0 -0.25,0 -0.25,-0.25c0,-0.25 0.25,-0.25 0.25,-0.25c0.60691,0 1.18886,0.07691 1.76373,0.1577c0.46653,0.00757 0.95645,0.04335 1.33389,0.16099c0.08005,0.00597 0.16023,0.01091 0.2406,0.01464h0.49512c0.13807,0 0.25,0.11193 0.25,0.25c0,0.13807 -0.11193,0.25 -0.25,0.25h-0.5v-0.00691l-0.00701,0.00681c-0.18635,-0.01192 -0.37023,-0.02908 -0.5527,-0.04941c-0.68403,0.00175 -1.35667,-0.11716 -2.10696,-0.11716h-0.16667c0,0 -0.18754,0 -0.23775,-0.16243z" fill="#da3243" stroke="none" stroke-width="0.5"/><path d="M306.65858,248.04762c0,-0.13807 0.11193,-0.25 0.25,-0.25c0.13807,0 0.25,0.11193 0.25,0.25c0,0.13807 -0.11193,0.25 -0.25,0.25c-0.13807,0 -0.25,-0.11193 -0.25,-0.25z" fill="#ff3b4e" stroke="none" stroke-width="0.5"/></g><path d="M214.52362,306.61252v-267.72501h213.18203v267.72501z" fill="none" stroke="none" stroke-width="0" stroke-linecap="butt"/><path d="" fill="none" stroke="#000000" stroke-width="0" stroke-linecap="round"/><g><g stroke-linecap="round"><path d="M343.08049,93.44066l68.33869,-23.42765l-41.31562,74.61182" fill="#a9a9a9" stroke="#000000" stroke-width="0"/><path d="M374.04776,116.7433c0,0 8.03448,-11.81047 12.41619,-17.23797c4.21468,-5.22058 13.39246,-14.73036 13.39246,-14.73036" fill="none" stroke="url(#color-1)" stroke-width="2"/></g><g stroke-linecap="round"><path d="M260.9613,131.89877l-14.09869,-84.11379l56.62995,44.85621" fill="#a9a9a9" stroke="#000000" stroke-width="0"/><path d="M252.84692,65.55575c0,0 5.48535,12.0241 7.72003,18.35056c2.32326,6.57719 5.96414,20.38966 5.96414,20.38966" fill="none" stroke="url(#color-2)" stroke-width="2"/></g><g><path d="M257.61443,151.79421c-1.06485,-33.28482 26.81711,-61.18712 62.27609,-62.32152c35.45898,-1.13441 65.06741,24.92865 66.13225,58.21347c1.06485,33.28482 -26.8171,61.18713 -62.27609,62.32153c-35.45897,1.13441 -65.06741,-24.92866 -66.13225,-58.21348z" fill="#ffffff" stroke="#000000" stroke-width="0" stroke-linecap="butt"/><g><path d="M262.10838,174.95788l6.89197,-0.6814l24.79024,25.70968l-7.04854,2.991z" fill="#ffffff" stroke="none" stroke-width="0" stroke-linecap="round"/><path d="M289.94307,202.18339l-21.11615,9.8939l-0.52293,-16.34585l-35.22582,-20.53619l30.16662,-0.73463" fill="#ffffff" stroke="#000000" stroke-width="0" stroke-linecap="round"/><path d="M360.29176,200.62417l-7.2253,-2.53436l23.09621,-27.24167l6.92143,0.23948z" fill="#ffffff" stroke="none" stroke-width="0" stroke-linecap="round"/><path d="M381.91825,170.664l30.15187,-1.19508l-33.84114,22.74578l0.52293,16.34586l-21.70538,-8.52395" fill="#ffffff" stroke="#000000" stroke-width="0" stroke-linecap="round"/><path d="M260.18866,132.92343c7.63377,-24.36354 31.22426,-42.53969 59.70186,-43.45075c28.74689,-0.91967 53.6485,16.03611 62.6132,40.22361c0.06406,0.17284 -122.37477,3.41771 -122.31505,3.22713z" fill="#c5c5c5" stroke="#000000" stroke-width="0" stroke-linecap="butt"/><path d="M265.97953,120.13042c10.7211,-17.69407 30.69153,-29.91489 53.91099,-30.65773c23.58538,-0.75454 45.27001,11.16857 57.00067,28.60105c0.48891,0.72654 -111.04107,2.27026 -110.91166,2.05669z" fill="#7e7e7e" stroke="#000000" stroke-width="0" stroke-linecap="butt"/><path d="M275.95986,107.6906c11.20498,-10.77087 26.67014,-17.6657 43.93066,-18.21791c18.74573,-0.59971 35.85633,6.40173 47.97892,18.05294c0.11483,0.11036 -92.17365,0.41879 -91.90959,0.16497z" fill="#424242" stroke="#000000" stroke-width="0" stroke-linecap="butt"/><path d="M275.87824,108.61588c-0.0309,-0.966 0.72714,-1.77415 1.69315,-1.80506c0.966,-0.0309 1.77415,0.72714 1.80506,1.69315c0.0309,0.966 -0.72714,1.77415 -1.69315,1.80506c-0.966,0.0309 -1.77415,-0.72714 -1.80506,-1.69315z" fill="#424242" stroke="none" stroke-width="0.5" stroke-linecap="butt"/><path d="M280.69843,108.12817c-0.0309,-0.966 0.72714,-1.77415 1.69315,-1.80506c0.966,-0.0309 1.77415,0.72714 1.80506,1.69315c0.0309,0.966 -0.72714,1.77415 -1.69315,1.80506c-0.966,0.0309 -1.77415,-0.72714 -1.80506,-1.69315z" fill="#424242" stroke="none" stroke-width="0.5" stroke-linecap="butt"/><path d="M286.19029,107.78572c-0.0309,-0.966 0.72714,-1.77415 1.69315,-1.80506c0.966,-0.0309 1.77415,0.72714 1.80506,1.69315c0.0309,0.966 -0.72714,1.77415 -1.69315,1.80506c-0.966,0.0309 -1.77415,-0.72714 -1.80506,-1.69315z" fill="#424242" stroke="none" stroke-width="0.5" stroke-linecap="butt"/><path d="M303.51545,104.6468c0.966,-0.0309 1.77415,0.72714 1.80506,1.69315c0.0309,0.966 -0.72714,1.77415 -1.69315,1.80506c-0.09369,0.003 -0.18587,-0.00141 -0.27601,-0.01274c-0.30623,0.42837 -0.80154,0.71423 -1.36848,0.73237c-0.48942,0.01566 -0.93832,-0.17121 -1.26615,-0.48502c-0.3071,0.33413 -0.74314,0.5493 -1.23257,0.56496c-0.966,0.0309 -1.77415,-0.72714 -1.80506,-1.69315c-0.0309,-0.966 0.72714,-1.77415 1.69315,-1.80506c0.48942,-0.01566 0.93832,0.17121 1.26615,0.48502c0.3071,-0.33413 0.74314,-0.5493 1.23257,-0.56496c0.09369,-0.003 0.18586,0.00141 0.27601,0.01274c0.30623,-0.42837 0.80155,-0.71423 1.36849,-0.73237z" fill="#424242" stroke="none" stroke-width="0.5" stroke-linecap="butt"/><path d="M319.84675,107.86542c-0.26733,1.72947 -1.9968,1.46211 -1.9968,1.46211l-2.68129,-0.41448c0,0 -0.25148,-0.03887 -0.54782,-0.18287c-0.1479,0.04619 -0.30444,0.07336 -0.46687,0.07856c-0.966,0.0309 -1.77415,-0.72714 -1.80506,-1.69315c-0.0309,-0.966 0.72714,-1.77415 1.69315,-1.80506c0.3115,-0.00997 0.60658,0.06211 0.86449,0.19674c0.42526,-0.11057 0.79678,-0.05315 0.79678,-0.05315l2.68128,0.41448c0,0 1.72947,0.26734 1.46211,1.99681z" fill="#424242" stroke="none" stroke-width="0.5" stroke-linecap="butt"/><path d="M324.40208,105.97962c0.966,-0.0309 1.77415,0.72714 1.80506,1.69315c0.0309,0.966 -0.72714,1.77415 -1.69315,1.80506c-0.5429,0.01737 -1.03595,-0.21445 -1.36919,-0.59235c-0.2741,0.19978 -0.60904,0.32214 -0.97361,0.3338c-0.966,0.0309 -1.77415,-0.72714 -1.80506,-1.69315c-0.0309,-0.966 0.72714,-1.77415 1.69315,-1.80506c0.5429,-0.01737 1.03595,0.21445 1.36919,0.59235c0.2741,-0.19978 0.60904,-0.32214 0.97361,-0.3338z" fill="#424242" stroke="none" stroke-width="0.5" stroke-linecap="butt"/><path d="M346.69134,106.85068c-0.0309,-0.966 0.72714,-1.77415 1.69315,-1.80506c0.966,-0.0309 1.77415,0.72714 1.80506,1.69315c0.0309,0.966 -0.72714,1.77415 -1.69315,1.80506c-0.966,0.0309 -1.77415,-0.72714 -1.80506,-1.69315z" fill="#424242" stroke="none" stroke-width="0.5" stroke-linecap="butt"/><path d="M357.25061,105.92924c0.966,-0.0309 1.77415,0.72714 1.80506,1.69315c0.0309,0.966 -0.72714,1.77415 -1.69315,1.80506c-0.5429,0.01737 -1.03595,-0.21445 -1.36919,-0.59235c-0.2741,0.19978 -0.60904,0.32214 -0.97361,0.3338c-0.966,0.0309 -1.77415,-0.72714 -1.80506,-1.69315c-0.0309,-0.966 0.72714,-1.77415 1.69315,-1.80506c0.5429,-0.01737 1.03595,0.21445 1.36919,0.59235c0.2741,-0.19978 0.60904,-0.32214 0.97361,-0.3338z" fill="#424242" stroke="none" stroke-width="0.5" stroke-linecap="butt"/><path d="M363.76327,106.22114c0.966,-0.0309 1.77415,0.72714 1.80506,1.69315c0.0309,0.966 -0.72714,1.77415 -1.69315,1.80506c-0.51063,0.01634 -0.97715,-0.18777 -1.30808,-0.52652c-0.25275,0.15745 -0.54909,0.25243 -0.86813,0.26264c-0.966,0.0309 -1.77415,-0.72714 -1.80506,-1.69315c-0.0309,-0.966 0.72714,-1.77415 1.69315,-1.80506c0.51063,-0.01634 0.97715,0.18777 1.30808,0.52652c0.25275,-0.15745 0.5491,-0.25243 0.86814,-0.26264z" fill="#424242" stroke="none" stroke-width="0.5" stroke-linecap="butt"/><path d="M306.02948,107.65128c-0.0309,-0.966 0.72714,-1.77415 1.69315,-1.80506c0.966,-0.0309 1.77415,0.72714 1.80506,1.69315c0.0309,0.966 -0.72714,1.77415 -1.69315,1.80506c-0.966,0.0309 -1.77415,-0.72714 -1.80506,-1.69315z" fill="#424242" stroke="none" stroke-width="0.5" stroke-linecap="butt"/><path d="M290.69865,107.975c-0.0309,-0.966 0.72714,-1.77415 1.69315,-1.80506c0.71053,-0.02273 1.33564,0.38136 1.62891,0.98108c0.07934,-0.86692 0.79429,-1.55886 1.68675,-1.5874c0.966,-0.0309 1.77415,0.72714 1.80506,1.69315c0.0309,0.966 -0.72714,1.77415 -1.69315,1.80506c-0.71053,0.02273 -1.33564,-0.38137 -1.62891,-0.98109c-0.07934,0.86692 -0.79429,1.55887 -1.68675,1.58741c-0.966,0.0309 -1.77415,-0.72714 -1.80506,-1.69315z" fill="#424242" stroke="none" stroke-width="0.5" stroke-linecap="butt"/><path d="M374.95345,117.20227c0.966,-0.0309 1.77415,0.72714 1.80506,1.69315c0.0309,0.966 -0.72714,1.77415 -1.69315,1.80506c-0.61768,0.01976 -1.17083,-0.28304 -1.49751,-0.75654c-0.30319,0.30185 -0.7171,0.49388 -1.17845,0.50865c-0.966,0.0309 -1.77415,-0.72714 -1.80506,-1.69315c-0.0309,-0.966 0.72714,-1.77415 1.69315,-1.80506c0.61768,-0.01976 1.17083,0.28304 1.49751,0.75654c0.30319,-0.30184 0.7171,-0.49388 1.17845,-0.50865z" fill="#7e7e7e" stroke="none" stroke-width="0.5" stroke-linecap="butt"/><path d="M363.56129,118.15037c-0.0309,-0.966 0.72714,-1.77415 1.69315,-1.80506c0.966,-0.0309 1.77415,0.72714 1.80506,1.69315c0.0309,0.966 -0.72714,1.77415 -1.69315,1.80506c-0.966,0.0309 -1.77415,-0.72714 -1.80506,-1.69315z" fill="#7e7e7e" stroke="none" stroke-width="0.5" stroke-linecap="butt"/><path d="M358.57983,118.80999c-0.0309,-0.966 0.72714,-1.77415 1.69315,-1.80506c0.966,-0.0309 1.77415,0.72714 1.80506,1.69315c0.0309,0.966 -0.72714,1.77415 -1.69315,1.80506c-0.966,0.0309 -1.77415,-0.72714 -1.80506,-1.69315z" fill="#7e7e7e" stroke="none" stroke-width="0.5" stroke-linecap="butt"/><path d="M349.09534,119.44692c-0.0309,-0.966 0.72714,-1.77415 1.69315,-1.80506c0.43021,-0.01377 0.82911,0.12894 1.142,0.37683c0.27923,-0.55325 0.84429,-0.94062 1.50732,-0.96184c0.966,-0.0309 1.77415,0.72714 1.80506,1.69315c0.0309,0.966 -0.72714,1.77415 -1.69315,1.80506c-0.43021,0.01377 -0.82911,-0.12894 -1.14198,-0.37682c-0.27923,0.55325 -0.84429,0.94061 -1.50732,0.96183c-0.966,0.0309 -1.77415,-0.72714 -1.80506,-1.69315z" fill="#7e7e7e" stroke="none" stroke-width="0.5" stroke-linecap="butt"/><path d="M336.24725,119.19094c-0.0309,-0.966 0.72714,-1.77415 1.69315,-1.80506c0.43191,-0.01381 0.83227,0.13008 1.1457,0.37977c0.16645,-0.05917 0.34475,-0.09394 0.53078,-0.0999c0.966,-0.0309 1.77415,0.72714 1.80506,1.69315c0.0309,0.966 -0.72714,1.77415 -1.69315,1.80506c-0.43191,0.01381 -0.83226,-0.13008 -1.1457,-0.37977c-0.16645,0.05917 -0.34476,0.09395 -0.53078,0.09991c-0.966,0.0309 -1.77415,-0.72714 -1.80506,-1.69315z" fill="#7e7e7e" stroke="none" stroke-width="0.5" stroke-linecap="butt"/><path d="M325.24755,119.37611c-0.0309,-0.966 0.72714,-1.77415 1.69315,-1.80506c0.75111,-0.02403 1.40679,0.42892 1.67586,1.08575c0.17259,-0.75711 0.83796,-1.33292 1.65044,-1.35892c0.966,-0.0309 1.77415,0.72714 1.80506,1.69315c0.0309,0.966 -0.72714,1.77415 -1.69315,1.80506c-0.75111,0.02403 -1.40679,-0.42892 -1.67587,-1.08575c-0.17259,0.75711 -0.83796,1.33292 -1.65044,1.35892c-0.966,0.0309 -1.77415,-0.72714 -1.80506,-1.69315z" fill="#7e7e7e" stroke="none" stroke-width="0.5" stroke-linecap="butt"/><path d="M319.41187,119.39604c-0.0309,-0.966 0.72714,-1.77415 1.69315,-1.80506c0.966,-0.0309 1.77415,0.72714 1.80506,1.69315c0.0309,0.966 -0.72714,1.77415 -1.69315,1.80506c-0.966,0.0309 -1.77415,-0.72714 -1.80506,-1.69315z" fill="#7e7e7e" stroke="none" stroke-width="0.5" stroke-linecap="butt"/><path d="M310.24989,119.68916c-0.0309,-0.966 0.72714,-1.77415 1.69315,-1.80506c0.966,-0.0309 1.77415,0.72714 1.80506,1.69315c0.0309,0.966 -0.72714,1.77415 -1.69315,1.80506c-0.966,0.0309 -1.77415,-0.72714 -1.80506,-1.69315z" fill="#7e7e7e" stroke="none" stroke-width="0.5" stroke-linecap="butt"/><path d="M305.09119,120.02095c-0.0309,-0.966 0.72714,-1.77415 1.69315,-1.80506c0.966,-0.0309 1.77415,0.72714 1.80506,1.69315c0.0309,0.966 -0.72714,1.77415 -1.69315,1.80506c-0.966,0.0309 -1.77415,-0.72714 -1.80506,-1.69315z" fill="#7e7e7e" stroke="none" stroke-width="0.5" stroke-linecap="butt"/><path d="M300.27098,120.50866c-0.0309,-0.966 0.72714,-1.77415 1.69315,-1.80506c0.966,-0.0309 1.77415,0.72714 1.80506,1.69315c0.0309,0.966 -0.72714,1.77415 -1.69315,1.80506c-0.966,0.0309 -1.77415,-0.72714 -1.80506,-1.69315z" fill="#7e7e7e" stroke="none" stroke-width="0.5" stroke-linecap="butt"/><path d="M292.59225,120.25405c-0.0309,-0.966 0.72714,-1.77415 1.69315,-1.80506c0.966,-0.0309 1.77415,0.72714 1.80506,1.69315c0.0309,0.966 -0.72714,1.77415 -1.69315,1.80506c-0.966,0.0309 -1.77415,-0.72714 -1.80506,-1.69315z" fill="#7e7e7e" stroke="none" stroke-width="0.5" stroke-linecap="butt"/><path d="M287.90133,119.57038c-0.0309,-0.966 0.72714,-1.77415 1.69315,-1.80506c0.966,-0.0309 1.77415,0.72714 1.80506,1.69315c0.0309,0.966 -0.72714,1.77415 -1.69315,1.80506c-0.966,0.0309 -1.77415,-0.72714 -1.80506,-1.69315z" fill="#7e7e7e" stroke="none" stroke-width="0.5" stroke-linecap="butt"/><path d="M281.21143,118.95063c-0.0309,-0.966 0.72714,-1.77415 1.69315,-1.80506c0.966,-0.0309 1.77415,0.72714 1.80506,1.69315c0.0309,0.966 -0.72714,1.77415 -1.69315,1.80506c-0.966,0.0309 -1.77415,-0.72714 -1.80506,-1.69315z" fill="#7e7e7e" stroke="none" stroke-width="0.5" stroke-linecap="butt"/><path d="M276.40188,119.77151c-0.0309,-0.966 0.72714,-1.77415 1.69315,-1.80506c0.966,-0.0309 1.77415,0.72714 1.80506,1.69315c0.0309,0.966 -0.72714,1.77415 -1.69315,1.80506c-0.966,0.0309 -1.77415,-0.72714 -1.80506,-1.69315z" fill="#7e7e7e" stroke="none" stroke-width="0.5" stroke-linecap="butt"/><path d="M270.93736,118.36219c0.77149,-0.02468 1.44228,0.45384 1.69689,1.13961c0.28804,-0.52424 0.83762,-0.88719 1.47881,-0.9077c0.966,-0.0309 1.77415,0.72714 1.80506,1.69315c0.0309,0.966 -0.72714,1.77415 -1.69315,1.80506c-0.77149,0.02468 -1.44228,-0.45384 -1.69689,-1.13961c-0.02648,0.04822 -0.05519,0.09505 -0.08597,0.14039c-0.30393,0.4477 -0.81062,0.7487 -1.39285,0.76732c-0.57331,0.01834 -1.09103,-0.24122 -1.42367,-0.65721c-0.2536,0.61885 -0.85243,1.06353 -1.56414,1.0863c-0.966,0.0309 -1.77415,-0.72714 -1.80506,-1.69315c-0.0309,-0.966 0.72714,-1.77415 1.69315,-1.80506c0.57331,-0.01834 1.09103,0.24122 1.42367,0.65721c0.2536,-0.61885 0.85243,-1.06353 1.56414,-1.0863z" fill="#7e7e7e" stroke="none" stroke-width="0.5" stroke-linecap="butt"/><path d="M268.84898,131.2689c0.966,-0.0309 1.77415,0.72714 1.80506,1.69315c0.0309,0.966 -0.72714,1.77415 -1.69315,1.80506c-0.58222,0.01862 -1.10712,-0.24934 -1.43905,-0.67672c-0.30392,0.44771 -0.81062,0.7487 -1.39285,0.76732c-0.77945,0.02494 -1.45613,-0.46377 -1.70467,-1.16095c-0.20346,0.71163 -0.84751,1.24259 -1.62697,1.26753c-0.966,0.0309 -1.77415,-0.72714 -1.80506,-1.69315c-0.0309,-0.966 0.72714,-1.77415 1.69315,-1.80506c0.77945,-0.02494 1.45613,0.46378 1.70467,1.16096c0.20346,-0.71163 0.84751,-1.2426 1.62697,-1.26754c0.58222,-0.01862 1.10712,0.24934 1.43905,0.67672c0.30392,-0.44771 0.81062,-0.7487 1.39285,-0.76732z" fill="#c5c5c5" stroke="none" stroke-width="0.5" stroke-linecap="butt"/><path d="M274.17426,130.93178c0.966,-0.0309 1.77415,0.72714 1.80506,1.69315c0.03,0.93792 -0.68373,1.72704 -1.60943,1.80041c-0.22387,0.11535 -0.47626,0.18395 -0.74472,0.19254c-0.966,0.0309 -1.77415,-0.72714 -1.80506,-1.69315c-0.03,-0.93792 0.68373,-1.72703 1.60944,-1.8004c0.22387,-0.11535 0.47626,-0.18396 0.74472,-0.19255z" fill="#c5c5c5" stroke="none" stroke-width="0.5" stroke-linecap="butt"/><path d="M309.46219,131.55374c-0.0309,-0.966 0.72714,-1.77415 1.69315,-1.80506c0.966,-0.0309 1.77415,0.72714 1.80506,1.69315c0.0309,0.966 -0.72714,1.77415 -1.69315,1.80506c-0.966,0.0309 -1.77415,-0.72714 -1.80506,-1.69315z" fill="#c5c5c5" stroke="none" stroke-width="0.5" stroke-linecap="butt"/><path d="M320.31732,129.45557c0.966,-0.0309 1.77415,0.72714 1.80506,1.69315c0.0309,0.966 -0.72714,1.77415 -1.69315,1.80506c-0.02793,0.00089 -0.05572,0.00114 -0.08335,0.00071c-0.02756,0.00217 -0.05531,0.00372 -0.08322,0.00461c-0.966,0.0309 -1.77415,-0.72714 -1.80506,-1.69315c-0.0309,-0.966 0.72714,-1.77415 1.69315,-1.80506c0.02793,-0.00089 0.05572,-0.00114 0.08335,-0.00071c0.02756,-0.00217 0.05531,-0.00372 0.08322,-0.00461z" fill="#c5c5c5" stroke="none" stroke-width="0.5" stroke-linecap="butt"/><path d="M326.14165,131.68714c-0.0309,-0.966 0.72714,-1.77415 1.69315,-1.80506c0.966,-0.0309 1.77415,0.72714 1.80506,1.69315c0.0309,0.966 -0.72714,1.77415 -1.69315,1.80506c-0.966,0.0309 -1.77415,-0.72714 -1.80506,-1.69315z" fill="#c5c5c5" stroke="none" stroke-width="0.5" stroke-linecap="butt"/><path d="M364.29414,130.63332c-0.0309,-0.966 0.72714,-1.77415 1.69315,-1.80506c0.966,-0.0309 1.77415,0.72714 1.80506,1.69315c0.0309,0.966 -0.72714,1.77415 -1.69315,1.80506c-0.966,0.0309 -1.77415,-0.72714 -1.80506,-1.69315z" fill="#c5c5c5" stroke="none" stroke-width="0.5" stroke-linecap="butt"/><path d="M372.42929,132.12396c-0.966,0.0309 -1.77415,-0.72714 -1.80506,-1.69315c-0.0309,-0.966 0.72714,-1.77415 1.69315,-1.80506c0.44797,-0.01433 0.86201,0.141 1.18032,0.40807c0.30059,-0.28687 0.70385,-0.46836 1.15182,-0.48269c0.966,-0.0309 1.77415,0.72714 1.80506,1.69315c0.0309,0.966 -0.72714,1.77415 -1.69315,1.80506c-0.44797,0.01433 -0.86201,-0.141 -1.18032,-0.40807c-0.30059,0.28687 -0.70385,0.46836 -1.15182,0.48269z" fill="#c5c5c5" stroke="none" stroke-width="0.5" stroke-linecap="butt"/><path d="M376.62649,130.40553c-0.0309,-0.966 0.72714,-1.77415 1.69315,-1.80506c0.966,-0.0309 1.77415,0.72714 1.80506,1.69315c0.0309,0.966 -0.72714,1.77415 -1.69315,1.80506c-0.966,0.0309 -1.77415,-0.72714 -1.80506,-1.69315z" fill="#c5c5c5" stroke="none" stroke-width="0.5" stroke-linecap="butt"/><path d="M327.69572,107.29165c-0.0309,-0.966 0.72714,-1.77415 1.69315,-1.80506c0.966,-0.0309 1.77415,0.72714 1.80506,1.69315c0.0309,0.966 -0.72714,1.77415 -1.69315,1.80506c-0.966,0.0309 -1.77415,-0.72714 -1.80506,-1.69315z" fill="#424242" stroke="none" stroke-width="0.5" stroke-linecap="butt"/><path d="M334.55754,108.07263c-0.0309,-0.966 0.72714,-1.77415 1.69315,-1.80506c0.966,-0.0309 1.77415,0.72714 1.80506,1.69315c0.0309,0.966 -0.72714,1.77415 -1.69315,1.80506c-0.966,0.0309 -1.77415,-0.72714 -1.80506,-1.69315z" fill="#424242" stroke="none" stroke-width="0.5" stroke-linecap="butt"/><path d="M343.91343,106.02242c0.966,-0.0309 1.77415,0.72714 1.80506,1.69315c0.0309,0.966 -0.72714,1.77415 -1.69315,1.80506c-0.48942,0.01566 -0.93832,-0.17121 -1.26615,-0.48502c-0.3071,0.33413 -0.74314,0.5493 -1.23257,0.56496c-0.966,0.0309 -1.77415,-0.72714 -1.80506,-1.69315c-0.0309,-0.966 0.72714,-1.77415 1.69315,-1.80506c0.48942,-0.01566 0.93832,0.17121 1.26615,0.48502c0.3071,-0.33413 0.74314,-0.5493 1.23257,-0.56496z" fill="#424242" stroke="none" stroke-width="0.5" stroke-linecap="butt"/><path d="M282.07906,109.58477c-0.02207,-0.69 0.51939,-1.26726 1.2094,-1.28933c0.69001,-0.02208 1.26726,0.5194 1.28933,1.2094c0.02207,0.69 -0.51939,1.26726 -1.2094,1.28933c-0.69001,0.02208 -1.26726,-0.5194 -1.28933,-1.2094z" fill="#424242" stroke="none" stroke-width="0.5" stroke-linecap="butt"/><path d="M288.12928,111.05874c-0.02207,-0.69 0.51939,-1.26726 1.2094,-1.28933c0.69001,-0.02208 1.26726,0.5194 1.28933,1.2094c0.02207,0.69 -0.51939,1.26726 -1.2094,1.28933c-0.69001,0.02208 -1.26726,-0.5194 -1.28933,-1.2094z" fill="#424242" stroke="none" stroke-width="0.5" stroke-linecap="butt"/><path d="M295.17367,112.33413c-0.02207,-0.69 0.51939,-1.26726 1.2094,-1.28933c0.69001,-0.02208 1.26726,0.5194 1.28933,1.2094c0.02207,0.69 -0.51939,1.26726 -1.2094,1.28933c-0.69001,0.02208 -1.26726,-0.5194 -1.28933,-1.2094z" fill="#424242" stroke="none" stroke-width="0.5" stroke-linecap="butt"/><path d="M301.53041,112.96453c-0.02207,-0.69 0.51939,-1.26726 1.2094,-1.28933c0.69001,-0.02208 1.26726,0.5194 1.28933,1.2094c0.02207,0.69 -0.51939,1.26726 -1.2094,1.28933c-0.69001,0.02208 -1.26726,-0.5194 -1.28933,-1.2094z" fill="#424242" stroke="none" stroke-width="0.5" stroke-linecap="butt"/><path d="M306.83969,112.12767c-0.02207,-0.69 0.51939,-1.26726 1.2094,-1.28933c0.69001,-0.02208 1.26726,0.5194 1.28933,1.2094c0.02207,0.69 -0.51939,1.26726 -1.2094,1.28933c-0.69001,0.02208 -1.26726,-0.5194 -1.28933,-1.2094z" fill="#424242" stroke="none" stroke-width="0.5" stroke-linecap="butt"/><path d="M312.48214,111.28015c-0.02207,-0.69 0.51939,-1.26726 1.2094,-1.28933c0.69001,-0.02208 1.26726,0.5194 1.28933,1.2094c0.02207,0.69 -0.51939,1.26726 -1.2094,1.28933c-0.69001,0.02208 -1.26726,-0.5194 -1.28933,-1.2094z" fill="#424242" stroke="none" stroke-width="0.5" stroke-linecap="butt"/><path d="M321.56952,108.65489c-0.02207,-0.69 0.51939,-1.26726 1.2094,-1.28933c0.69001,-0.02208 1.26726,0.5194 1.28933,1.2094c0.02207,0.69 -0.51939,1.26726 -1.2094,1.28933c-0.69001,0.02208 -1.26726,-0.5194 -1.28933,-1.2094z" fill="#424242" stroke="none" stroke-width="0.5" stroke-linecap="butt"/><path d="M326.7282,108.3231c-0.02207,-0.69 0.51939,-1.26726 1.2094,-1.28933c0.69001,-0.02208 1.26726,0.5194 1.28933,1.2094c0.02207,0.69 -0.51939,1.26726 -1.2094,1.28933c-0.69001,0.02208 -1.26726,-0.5194 -1.28933,-1.2094z" fill="#424242" stroke="none" stroke-width="0.5" stroke-linecap="butt"/><path d="M332.24138,108.64698c-0.02207,-0.69 0.51939,-1.26726 1.2094,-1.28933c0.69001,-0.02208 1.26726,0.5194 1.28933,1.2094c0.02207,0.69 -0.51939,1.26726 -1.2094,1.28933c-0.69001,0.02208 -1.26726,-0.5194 -1.28933,-1.2094z" fill="#424242" stroke="none" stroke-width="0.5" stroke-linecap="butt"/><path d="M336.45921,110.17956c-0.02207,-0.69 0.51939,-1.26726 1.2094,-1.28933c0.69001,-0.02208 1.26726,0.5194 1.28933,1.2094c0.02207,0.69 -0.51939,1.26726 -1.2094,1.28933c-0.69001,0.02208 -1.26726,-0.5194 -1.28933,-1.2094z" fill="#424242" stroke="none" stroke-width="0.5" stroke-linecap="butt"/><path d="M339.52162,112.08261c-0.02207,-0.69 0.51939,-1.26726 1.2094,-1.28933c0.69001,-0.02208 1.26726,0.5194 1.28933,1.2094c0.02207,0.69 -0.51939,1.26726 -1.2094,1.28933c-0.69001,0.02208 -1.26726,-0.5194 -1.28933,-1.2094z" fill="#424242" stroke="none" stroke-width="0.5" stroke-linecap="butt"/><path d="M345.60383,114.55606c-0.02207,-0.69 0.51939,-1.26726 1.2094,-1.28933c0.69001,-0.02208 1.26726,0.5194 1.28933,1.2094c0.02207,0.69 -0.51939,1.26726 -1.2094,1.28933c-0.69001,0.02208 -1.26726,-0.5194 -1.28933,-1.2094z" fill="#424242" stroke="none" stroke-width="0.5" stroke-linecap="butt"/><path d="M352.61091,114.6654c-0.02207,-0.69 0.51939,-1.26726 1.2094,-1.28933c0.69001,-0.02208 1.26726,0.5194 1.28933,1.2094c0.02207,0.69 -0.51939,1.26726 -1.2094,1.28933c-0.69001,0.02208 -1.26726,-0.5194 -1.28933,-1.2094z" fill="#424242" stroke="none" stroke-width="0.5" stroke-linecap="butt"/><path d="M340.13587,126.07012c-0.02207,-0.69 0.51939,-1.26726 1.2094,-1.28933c0.69001,-0.02208 1.26726,0.5194 1.28933,1.2094c0.02207,0.69 -0.51939,1.26726 -1.2094,1.28933c-0.69001,0.02208 -1.26726,-0.5194 -1.28933,-1.2094z" fill="#7e7e7e" stroke="none" stroke-width="0.5" stroke-linecap="butt"/><path d="M360.95598,114.89867c-0.02207,-0.69 0.51939,-1.26726 1.2094,-1.28933c0.69001,-0.02208 1.26726,0.5194 1.28933,1.2094c0.02207,0.69 -0.51939,1.26726 -1.2094,1.28933c-0.69001,0.02208 -1.26726,-0.5194 -1.28933,-1.2094z" fill="#424242" stroke="none" stroke-width="0.5" stroke-linecap="butt"/><path d="M364.0464,112.46528c-0.02207,-0.69 0.51939,-1.26726 1.2094,-1.28933c0.69001,-0.02208 1.26726,0.5194 1.28933,1.2094c0.02207,0.69 -0.51939,1.26726 -1.2094,1.28933c-0.69001,0.02208 -1.26726,-0.5194 -1.28933,-1.2094z" fill="#424242" stroke="none" stroke-width="0.5" stroke-linecap="butt"/><path d="M364.75142,108.44067c-0.02207,-0.69 0.51939,-1.26726 1.2094,-1.28933c0.69001,-0.02208 1.26726,0.5194 1.28933,1.2094c0.02207,0.69 -0.51939,1.26726 -1.2094,1.28933c-0.69001,0.02208 -1.26726,-0.5194 -1.28933,-1.2094z" fill="#424242" stroke="none" stroke-width="0.5" stroke-linecap="butt"/><path d="M270.50621,123.12841c-0.02207,-0.69 0.51939,-1.26726 1.2094,-1.28933c0.69001,-0.02208 1.26726,0.5194 1.28933,1.2094c0.02207,0.69 -0.51939,1.26726 -1.2094,1.28933c-0.69001,0.02208 -1.26726,-0.5194 -1.28933,-1.2094z" fill="#7e7e7e" stroke="none" stroke-width="0.5" stroke-linecap="butt"/><path d="M275.43832,126.13891c-0.02207,-0.69 0.51939,-1.26726 1.2094,-1.28933c0.69001,-0.02208 1.26726,0.5194 1.28933,1.2094c0.02207,0.69 -0.51939,1.26726 -1.2094,1.28933c-0.69001,0.02208 -1.26726,-0.5194 -1.28933,-1.2094z" fill="#7e7e7e" stroke="none" stroke-width="0.5" stroke-linecap="butt"/><path d="M280.81688,127.46761c-0.02207,-0.69 0.51939,-1.26726 1.2094,-1.28933c0.69001,-0.02208 1.26726,0.5194 1.28933,1.2094c0.02207,0.69 -0.51939,1.26726 -1.2094,1.28933c-0.69001,0.02208 -1.26726,-0.5194 -1.28933,-1.2094z" fill="#7e7e7e" stroke="none" stroke-width="0.5" stroke-linecap="butt"/><path d="M288.09851,125.73388c-0.02207,-0.69 0.51939,-1.26726 1.2094,-1.28933c0.69001,-0.02208 1.26726,0.5194 1.28933,1.2094c0.02207,0.69 -0.51939,1.26726 -1.2094,1.28933c-0.69001,0.02208 -1.26726,-0.5194 -1.28933,-1.2094z" fill="#7e7e7e" stroke="none" stroke-width="0.5" stroke-linecap="butt"/><path d="M294.55256,124.19339c-0.02207,-0.69 0.51939,-1.26726 1.2094,-1.28933c0.69001,-0.02208 1.26726,0.5194 1.28933,1.2094c0.02207,0.69 -0.51939,1.26726 -1.2094,1.28933c-0.69001,0.02208 -1.26726,-0.5194 -1.28933,-1.2094z" fill="#7e7e7e" stroke="none" stroke-width="0.5" stroke-linecap="butt"/><path d="M298.49189,122.2331c-0.02207,-0.69 0.51939,-1.26726 1.2094,-1.28933c0.69001,-0.02208 1.26726,0.5194 1.28933,1.2094c0.02207,0.69 -0.51939,1.26726 -1.2094,1.28933c-0.69001,0.02208 -1.26726,-0.5194 -1.28933,-1.2094z" fill="#7e7e7e" stroke="none" stroke-width="0.5" stroke-linecap="butt"/><path d="M308.13762,121.42426c-0.02207,-0.69 0.51939,-1.26726 1.2094,-1.28933c0.69001,-0.02208 1.26726,0.5194 1.28933,1.2094c0.02207,0.69 -0.51939,1.26726 -1.2094,1.28933c-0.69001,0.02208 -1.26726,-0.5194 -1.28933,-1.2094z" fill="#7e7e7e" stroke="none" stroke-width="0.5" stroke-linecap="butt"/><path d="M317.15433,121.80279c-0.02207,-0.69 0.51939,-1.26726 1.2094,-1.28933c0.69001,-0.02208 1.26726,0.5194 1.28933,1.2094c0.02207,0.69 -0.51939,1.26726 -1.2094,1.28933c-0.69001,0.02208 -1.26726,-0.5194 -1.28933,-1.2094z" fill="#7e7e7e" stroke="none" stroke-width="0.5" stroke-linecap="butt"/><path d="M325.27281,125.37837c-0.02207,-0.69 0.51939,-1.26726 1.2094,-1.28933c0.69001,-0.02208 1.26726,0.5194 1.28933,1.2094c0.02207,0.69 -0.51939,1.26726 -1.2094,1.28933c-0.69001,0.02208 -1.26726,-0.5194 -1.28933,-1.2094z" fill="#7e7e7e" stroke="none" stroke-width="0.5" stroke-linecap="butt"/><path d="M332.63971,126.30994c-0.02207,-0.69 0.51939,-1.26726 1.2094,-1.28933c0.69001,-0.02208 1.26726,0.5194 1.28933,1.2094c0.02207,0.69 -0.51939,1.26726 -1.2094,1.28933c-0.69001,0.02208 -1.26726,-0.5194 -1.28933,-1.2094z" fill="#7e7e7e" stroke="none" stroke-width="0.5" stroke-linecap="butt"/><path d="M346.86978,122.85315c-0.02207,-0.69 0.51939,-1.26726 1.2094,-1.28933c0.69001,-0.02208 1.26726,0.5194 1.28933,1.2094c0.02207,0.69 -0.51939,1.26726 -1.2094,1.28933c-0.69001,0.02208 -1.26726,-0.5194 -1.28933,-1.2094z" fill="#7e7e7e" stroke="none" stroke-width="0.5" stroke-linecap="butt"/><path d="M352.63086,120.50108c-0.02207,-0.69 0.51939,-1.26726 1.2094,-1.28933c0.69001,-0.02208 1.26726,0.5194 1.28933,1.2094c0.02207,0.69 -0.51939,1.26726 -1.2094,1.28933c-0.69001,0.02208 -1.26726,-0.5194 -1.28933,-1.2094z" fill="#7e7e7e" stroke="none" stroke-width="0.5" stroke-linecap="butt"/><path d="M363.28674,119.99342c-0.02207,-0.69 0.51939,-1.26726 1.2094,-1.28933c0.69001,-0.02208 1.26726,0.5194 1.28933,1.2094c0.02207,0.69 -0.51939,1.26726 -1.2094,1.28933c-0.69001,0.02208 -1.26726,-0.5194 -1.28933,-1.2094z" fill="#7e7e7e" stroke="none" stroke-width="0.5" stroke-linecap="butt"/><path d="M369.59414,124.29394c-0.02207,-0.69 0.51939,-1.26726 1.2094,-1.28933c0.69001,-0.02208 1.26726,0.5194 1.28933,1.2094c0.02207,0.69 -0.51939,1.26726 -1.2094,1.28933c-0.69001,0.02208 -1.26726,-0.5194 -1.28933,-1.2094z" fill="#7e7e7e" stroke="none" stroke-width="0.5" stroke-linecap="butt"/><path d="M372.98439,126.01975c-0.02207,-0.69 0.51939,-1.26726 1.2094,-1.28933c0.69001,-0.02208 1.26726,0.5194 1.28933,1.2094c0.02207,0.69 -0.51939,1.26726 -1.2094,1.28933c-0.69001,0.02208 -1.26726,-0.5194 -1.28933,-1.2094z" fill="#7e7e7e" stroke="none" stroke-width="0.5" stroke-linecap="butt"/><path d="M260.14738,138.13398c-0.02208,-0.69001 0.51939,-1.26726 1.2094,-1.28933c0.69001,-0.02208 1.26726,0.51939 1.28933,1.2094c0.02208,0.69001 -0.51939,1.26726 -1.2094,1.28933c-0.69001,0.02208 -1.26726,-0.51939 -1.28933,-1.2094z" fill="#c5c5c5" stroke="none" stroke-width="0.5" stroke-linecap="butt"/><path d="M268.7883,137.19054c-0.02208,-0.69001 0.51939,-1.26726 1.2094,-1.28933c0.69001,-0.02208 1.26726,0.51939 1.28933,1.2094c0.02208,0.69001 -0.51939,1.26726 -1.2094,1.28933c-0.69001,0.02208 -1.26726,-0.51939 -1.28933,-1.2094z" fill="#c5c5c5" stroke="none" stroke-width="0.5" stroke-linecap="butt"/><path d="M313.51877,133.25824c-0.02208,-0.69001 0.51939,-1.26726 1.2094,-1.28933c0.69001,-0.02208 1.26726,0.51939 1.28933,1.2094c0.02208,0.69001 -0.51939,1.26726 -1.2094,1.28933c-0.69001,0.02208 -1.26726,-0.51939 -1.28933,-1.2094z" fill="#c5c5c5" stroke="none" stroke-width="0.5" stroke-linecap="butt"/><path d="M319.09057,135.41451c-0.02208,-0.69001 0.51939,-1.26726 1.2094,-1.28933c0.69001,-0.02208 1.26726,0.51939 1.28933,1.2094c0.02208,0.69001 -0.51939,1.26726 -1.2094,1.28933c-0.69001,0.02208 -1.26726,-0.51939 -1.28933,-1.2094z" fill="#c5c5c5" stroke="none" stroke-width="0.5" stroke-linecap="butt"/><path d="M323.27642,135.9476c-0.02208,-0.69001 0.51939,-1.26726 1.2094,-1.28933c0.69001,-0.02208 1.26726,0.51939 1.28933,1.2094c0.02208,0.69001 -0.51939,1.26726 -1.2094,1.28933c-0.69001,0.02208 -1.26726,-0.51939 -1.28933,-1.2094z" fill="#c5c5c5" stroke="none" stroke-width="0.5" stroke-linecap="butt"/><path d="M328.81229,131.76846c-0.02208,-0.69001 0.51939,-1.26726 1.2094,-1.28933c0.69001,-0.02208 1.26726,0.51939 1.28933,1.2094c0.02208,0.69001 -0.51939,1.26726 -1.2094,1.28933c-0.69001,0.02208 -1.26726,-0.51939 -1.28933,-1.2094z" fill="#c5c5c5" stroke="none" stroke-width="0.5" stroke-linecap="butt"/><path d="M368.31341,131.17173c-0.02208,-0.69001 0.51939,-1.26726 1.2094,-1.28933c0.69001,-0.02208 1.26726,0.51939 1.28933,1.2094c0.02208,0.69001 -0.51939,1.26726 -1.2094,1.28933c-0.69001,0.02208 -1.26726,-0.51939 -1.28933,-1.2094z" fill="#c5c5c5" stroke="none" stroke-width="0.5" stroke-linecap="butt"/><path d="M375.05661,133.45729c-0.02208,-0.69001 0.51939,-1.26726 1.2094,-1.28933c0.69001,-0.02208 1.26726,0.51939 1.28933,1.2094c0.02208,0.69001 -0.51939,1.26726 -1.2094,1.28933c-0.69001,0.02208 -1.26726,-0.51939 -1.28933,-1.2094z" fill="#c5c5c5" stroke="none" stroke-width="0.5" stroke-linecap="butt"/><path d="M379.96878,130.63211c-0.02208,-0.69001 0.51939,-1.26726 1.2094,-1.28933c0.69001,-0.02208 1.26726,0.51939 1.28933,1.2094c0.02208,0.69001 -0.51939,1.26726 -1.2094,1.28933c-0.69001,0.02208 -1.26726,-0.51939 -1.28933,-1.2094z" fill="#c5c5c5" stroke="none" stroke-width="0.5" stroke-linecap="butt"/></g><g fill="#da3243" stroke="none" stroke-width="0.5" stroke-linecap="butt"><path d="M278.01608,207.70518c-0.01936,-0.00843 4.7465,-4.66613 6.07187,-6.10727c1.11924,-1.21689 2.45324,-3.63318 4.08123,-4.97881c0.0043,-0.04718 0.00926,-0.09439 0.01486,-0.14159l-0.04573,0.00054l-0.00493,-0.41546c-0.002,-0.13605 0.10546,-0.2491 0.24199,-0.25347c0.0881,-0.00282 0.16701,0.04031 0.21372,0.10777l0.18752,0.26267c0.07582,-0.04688 0.15224,-0.09107 0.22928,-0.1324l-0.00827,-0.25861c-0.00442,-0.138 0.10388,-0.25345 0.24188,-0.25787c0.09974,-0.00319 0.18773,0.0525 0.23049,0.13574l0.07763,0.14358c0.01434,-0.00485 0.02871,-0.0096 0.04309,-0.01422c0.03799,-0.37943 0.07416,-0.74475 0.06583,-1.00501c-0.07705,-2.40813 -0.15551,-4.81623 -0.23075,-7.22442c0.08032,-1.03521 0.21773,-2.06173 0.3722,-3.08501c-0.0839,-1.93913 0.22102,-3.76976 0.44094,-5.76459l0.03782,-0.34304c0.01163,-0.12354 0.11363,-0.22206 0.24091,-0.22613c0.0881,-0.00282 0.16702,0.04031 0.21372,0.10777l0.28826,0.40379l-0.19854,0.14173c0.43015,1.39679 -0.0732,4.1159 -0.48419,6.28488c0.02457,0.27502 0.05799,0.55291 0.10163,0.83445c0.60148,1.61061 1.19236,3.23305 1.95725,4.77372c0.01956,0.03941 0.71872,1.39707 0.95159,1.01476c0.24664,-0.40491 -0.1807,-1.0625 -0.08375,-1.6125c-0.01786,-0.04067 -0.03111,-0.08601 -0.03945,-0.13625l-0.006,0.00019l-0.01598,-0.49974c-0.00442,-0.138 0.10388,-0.25345 0.24188,-0.25787c0.138,-0.00442 0.25345,0.10388 0.25787,0.24188l0.0139,0.43469c0.0372,0.38227 4.66186,-2.06229 5.55596,-2.62789c0.93274,-0.59004 1.65269,-1.38277 2.28116,-2.25848c0.37511,-1.00866 0.76992,-1.9031 1.03556,-2.50743c0.14494,-0.32844 1.32623,-2.71104 1.5708,-1.24123c0.18561,1.11543 -0.99536,2.86814 -2.27249,4.28939c-0.87249,2.43998 -1.54427,5.41094 0.12638,6.18051c0.65632,0.30233 1.85501,1.21316 2.53263,1.27966c0.12512,0.01227 1.17285,-0.90489 1.35513,-1.03228c1.15823,-0.80941 2.15021,-1.91832 3.3269,-2.69952l-0.03155,-0.03452l0.368,-0.33643c0.04263,-0.03944 0.09913,-0.06429 0.16173,-0.0663c0.138,-0.00442 0.25345,0.10388 0.25787,0.24188c0.00142,0.04455 -0.0089,0.08675 -0.02818,0.12363l-0.16388,0.32917l-0.00729,-0.00363l-0.00363,0.0233c-0.83058,1.1155 -2.02511,2.30237 -2.23919,3.73412c-0.07979,0.53365 0.29401,3.67585 0.79048,3.08752c2.71343,-2.15038 4.76575,-4.98052 7.5987,-7.00292c2.13733,-1.52581 5.66936,-3.56038 8.44918,-3.962l-0.00847,-0.01616l0.25166,-0.13183c0.03349,-0.01847 0.07175,-0.02951 0.11259,-0.03082c0.138,-0.00442 0.25345,0.10388 0.25787,0.24188c0.00282,0.0881 -0.04031,0.16702 -0.10777,0.21372l-0.40379,0.28827c-2.29711,1.63896 -4.42611,3.49899 -6.74323,5.1232c-1.75094,1.22733 -3.64472,2.83585 -4.87302,4.60923c-0.28662,0.41381 -1.42237,2.35563 -0.63439,2.19886c1.10024,-0.0352 2.82783,0.24578 3.85608,-0.11311c1.6796,-0.58624 3.16334,-1.83871 4.89127,-2.33972l-0.02294,-0.05242l0.45286,-0.19818c0.02969,-0.01382 0.06262,-0.02201 0.09742,-0.02312c0.138,-0.00442 0.25345,0.10388 0.25787,0.24188c0.00237,0.07412 -0.02778,0.14175 -0.07758,0.18916l-0.30364,0.29137c-1.17005,1.1228 -2.15643,2.35966 -3.18048,3.61633c-1.25098,1.53512 -3.79451,6.32768 -1.51028,7.39264l0.18668,-0.00597c0.138,-0.00442 0.25345,0.10388 0.25787,0.24188c0.0022,0.06901 -0.02376,0.13236 -0.06753,0.17902l-0.27643,0.29471l-0.00889,-0.00834l-0.02086,0.03533c-0.55275,0.30529 -1.02135,0.68003 -1.53729,1.04869c-2.17054,1.85548 -7.07625,0.08895 -9.70915,-0.15462c-2.59316,-0.86934 -4.99548,-1.54033 -7.49117,-2.69626c-2.39782,-0.71122 -4.72319,-1.50363 -6.85032,-2.76335c-0.00101,0.00004 -0.00201,0.00007 -0.00302,0.00011c-0.14226,0.00455 -0.2061,-0.07447 -0.23474,-0.14338c-0.01753,-0.01075 -0.03507,-0.02154 -0.05257,-0.03237c0,0 -0.15232,-0.09465 -0.11878,-0.25263c-0.01673,-0.01689 -0.03343,-0.03384 -0.0501,-0.0509c-0.20532,0.14152 -12.69971,5.11644 -12.69971,5.11644z"/><path d="M329.44565,183.22597c-0.15635,0.05773 -0.31269,0.11547 -0.46904,0.17321l-0.46357,0.17117c-0.01021,0.00404 -0.02077,0.00745 -0.03163,0.01013c-0.11198,0.06043 -0.22399,0.12079 -0.33603,0.18114l-0.01847,0.00114l0.00206,0.00558l-0.46357,0.17118c-0.0261,0.01034 -0.0544,0.01643 -0.08407,0.01738c-0.138,0.00442 -0.25345,-0.10388 -0.25787,-0.24188c-0.00316,-0.09873 0.05138,-0.18592 0.13321,-0.22917l0.29781,-0.1653l0.02445,0.04405l0.05701,-0.02106c0.21891,-0.16506 0.45236,-0.29345 0.70144,-0.40653l0.13236,-0.09978l0.02379,0.03157c0.09272,-0.03906 0.18752,-0.07668 0.28444,-0.11389c0.07877,-0.04244 0.16066,-0.07801 0.24564,-0.10504l0.22254,-0.06909c0,0 0.01545,-0.00479 0.03968,-0.00802c0.04647,-0.00679 0.11629,-0.00688 0.17696,0.0344c0.03817,0.02525 0.07257,0.06637 0.09423,0.13198c0.02277,0.06523 0.02053,0.11878 0.00563,0.16206c-0.02297,0.06969 -0.07841,0.11214 -0.11941,0.13505c-0.02033,0.01171 -0.03512,0.01735 -0.03627,0.01779c-0.02947,0.12324 -0.16133,0.17194 -0.16133,0.17194z"/><path d="M290.64006,176.07291c-0.02398,0.01591 -0.04912,0.03125 -0.07547,0.04577c0,0 -0.21991,0.11889 -0.33881,-0.10103c-0.1189,-0.21991 0.10103,-0.33881 0.10103,-0.33881c0.13098,-0.06918 0.25324,-0.13413 0.36542,-0.18975c0.00303,-0.01158 0.06606,-0.24071 0.30262,-0.18216c0.02714,0.00673 0.05051,0.01571 0.07058,0.0264c0.36371,-0.10371 0.50997,0.08232 0.33168,0.95999l-0.03505,0.03456l0.01156,0.00795l-0.28147,0.40952c-0.04332,0.06461 -0.11608,0.10812 -0.19978,0.11079c-0.1268,0.00406 -0.23458,-0.08706 -0.25465,-0.20892l-0.08866,-0.48822l0.09784,-0.01777c-0.00264,-0.02277 -0.00493,-0.04555 -0.00682,-0.06833z"/><path d="M306.96835,176.02707c0.18234,0.17103 0.01131,0.35338 0.01131,0.35338l-0.22469,0.2208c-0.10928,0.05907 -0.21855,0.11816 -0.32783,0.17723c0,0 -0.21992,0.11889 -0.33881,-0.10103c-0.1189,-0.21991 0.10103,-0.33881 0.10103,-0.33881c0.10928,-0.05907 0.21855,-0.11816 0.32783,-0.17723l0.09781,-0.12303c0,0 0.17104,-0.18234 0.35338,-0.01131z"/></g></g><g stroke="#000000"><g fill="#000000" stroke-width="0" stroke-linecap="round"><path d="M271.41028,148.76453l-4.40486,-9.71892l8.6864,4.29003z"/><path d="M273.36574,153.02806l-10.11185,-3.40745l9.06188,-3.42643z"/></g><path d="M271.24339,151.63395c-0.41466,-12.96138 9.75646,-23.80479 22.71784,-24.21946c12.96138,-0.41466 23.80479,9.75645 24.21946,22.71783c0.41466,12.96138 -9.75645,23.8048 -22.71783,24.21947c-12.96138,0.41466 -23.8048,-9.75646 -24.21947,-22.71784z" fill="#ffffff" stroke-width="0" stroke-linecap="butt"/><path d="M279.77231,152.15193c-0.26538,-8.29539 6.24422,-15.23529 14.53962,-15.50068c8.29539,-0.26538 15.2353,6.24423 15.50068,14.53964c0.26538,8.29539 -6.24423,15.23531 -14.53963,15.50069c-8.29539,0.26538 -15.23529,-6.24423 -15.50067,-14.53964z" fill="#ffffff" stroke-width="2" stroke-linecap="butt"/></g><path d="M271.24339,151.63395c-0.00284,-0.089 11.5028,11.70561 24.13132,11.32052c10.67662,-0.32556 22.8051,-12.84966 22.80599,-12.82214c0.41466,12.96138 -9.75645,23.8048 -22.71783,24.21947c-12.96138,0.41466 -23.8048,-9.75646 -24.21947,-22.71784z" fill="#efefef" stroke="#000000" stroke-width="0" stroke-linecap="butt"/><g stroke="#000000"><g fill="#000000" stroke-width="0" stroke-linecap="round"><path d="M367.44171,140.40036l8.39442,-4.83649l-3.77465,9.9806z"/><path d="M370.99357,143.03728l9.26235,2.84021l-9.87338,4.04683z"/></g><path d="M349.69357,172.61686c-12.96138,0.41466 -23.80479,-9.75646 -24.21946,-22.71784c-0.41466,-12.96138 9.75645,-23.80479 22.71783,-24.21946c12.96138,-0.41466 23.8048,9.75645 24.21947,22.71783c0.41466,12.96138 -9.75646,23.8048 -22.71784,24.21947z" fill="#ffffff" stroke-width="0" stroke-linecap="butt"/><path d="M363.68047,149.25422c0.26539,8.29541 -6.24422,15.2353 -14.53962,15.50069c-8.29539,0.26538 -15.2353,-6.24425 -15.50068,-14.53964c-0.26539,-8.29541 6.24424,-15.23531 14.53963,-15.50069c8.29539,-0.26538 15.23529,6.24423 15.50067,14.53963z" fill="#ffffff" stroke-width="2" stroke-linecap="butt"/></g><path d="M312.55007,189.2345c0,0 11.93937,6.84671 17.64294,4.188c5.70356,-2.65871 29.81292,-21.96452 29.81292,-21.96452c0,0 -7.09925,25.24699 -23.21438,32.75905c-16.11513,7.51206 -24.24147,-14.98252 -24.24147,-14.98252z" fill="#000000" stroke="#000000" stroke-width="1.5" stroke-linecap="round"/></g></g></g></svg>