<svg version="1.1" xmlns="http://www.w3.org/2000/svg" xmlns:xlink="http://www.w3.org/1999/xlink" width="259.97362" height="285.30995" viewBox="0,0,259.97362,285.30995"><g transform="translate(-217.59702,-38.88751)"><g stroke-miterlimit="10"><path d="" fill="none" stroke="#000000" stroke-width="2" stroke-linecap="round"/><path d="M442.55485,170.92063c-17.23634,24.84892 -87.83226,153.27684 -87.83226,153.27684l-79.95608,-0.55421c0,0 -15.71459,-124.72096 -24.47674,-150.92466c-3.21366,-9.6106 1.87429,-19.65434 15.35275,-19.5766c40.91727,0.23603 128.05833,0.73871 164.98581,0.95171c3.47107,0.02002 10.64057,0.66395 13.48957,3.99455c2.67041,3.12184 1.2336,8.80062 -1.563,12.83237z" fill="#000000" stroke="#000000" stroke-width="0" stroke-linecap="butt"/><g fill="#ffffff" stroke="#000000" stroke-width="0"><path d="M346.72704,195.23251c0,0 -6.9295,45.18636 -8.76614,53.69135c-0.65664,3.04071 -3.03167,0.94112 -3.03167,0.94112l-4.64345,6.77729l-4.40666,-21.09422l12.87674,-40.11727z" stroke-linecap="round"/><path d="M354.30661,189.90416c-0.39417,2.25535 -0.30958,4.63274 -2.47641,6.14216c-2.29222,1.59676 -6.91203,2.26144 -10.05191,2.26144c-2.68266,0 -5.93648,-0.23144 -7.64046,-1.43866c-2.17573,-1.54145 -2.40528,-4.36218 -1.95038,-6.96495c0.41615,-2.38111 1.64197,-5.51959 4.00336,-7.04871c2.24133,-1.45139 5.5506,-1.3549 8.52498,-1.3549c3.50555,0 7.24117,0.08587 8.92951,2.01933c1.25339,1.43538 1.00695,4.40678 0.66134,6.38428z" stroke-linecap="butt"/></g><path d="M217.59702,306.61253l46.79159,-267.72501h213.18203l-46.79159,267.72501z" fill="none" stroke="none" stroke-width="0" stroke-linecap="butt"/><path d="M290.94808,132.82129c5.82033,-33.30185 39.29853,-60.29833 74.77565,-60.29833c35.47713,0 59.51872,26.99648 53.69839,60.29833c-5.82033,33.30185 -39.29853,60.29834 -74.77566,60.29834c-35.47712,0 -59.51871,-26.99649 -53.69838,-60.29834z" fill="#000000" stroke="#000000" stroke-width="2" stroke-linecap="butt"/><g stroke="#000000" stroke-width="0" stroke-linecap="butt"><path d="M289.89887,135.1842l-3.15034,-62.69671c0,0 51.6077,-4.01247 76.62471,-4.94998c24.27168,-0.90958 71.30898,-0.59381 71.30898,-0.59381l-15.11429,63.89589z" fill="#000000"/><path d="M290.96529,134.30029l-0.88331,-10.17038l130.72031,-1.0678l-2.46756,10.08137z" fill="#ffffff"/><path d="M270.01972,142.09833c0,0 -2.57621,-3.65822 -3.00906,-5.776c-0.46237,-2.2622 0.31755,-7.39253 0.31755,-7.39253l176.20787,-0.75584c0,0 -1.25724,4.01527 -2.36897,6.13824c-1.20762,2.30607 -4.61294,7.1944 -4.61294,7.1944c0,0 -1.74623,0.0062 -4.87619,0.01733c-1.48162,0.00526 -7.05859,28.34496 -9.12186,28.3523c-0.53727,0.00191 1.16596,-8.1529 1.86454,-15.42891c0.66011,-6.87534 -0.84522,-12.8946 -1.41817,-12.89256c-31.1457,0.11067 -107.40017,0.38161 -136.74891,0.4859c-2.5867,0.00919 -3.63232,11.40654 -5.29159,10.82347c-4.25839,-1.49642 -3.86438,-10.79093 -4.71593,-10.78791c-3.46753,0.01232 -6.22635,0.02212 -6.22635,0.02212z" fill="#000000"/></g><path d="M418.44283,125.3486c-0.05474,-0.72761 0.70466,-0.90951 0.70466,-0.90951l0.44357,-0.0631c1.74661,-1.02641 3.02079,-2.51652 3.90244,-4.19236c-0.08127,-0.87255 -0.00148,-1.72314 0.28067,-2.49735c0,0 0.24971,-0.66631 0.88583,-0.60364c0.08958,-0.36074 0.16526,-0.72236 0.22766,-1.08261c0,0 0.13109,-0.75 0.88109,-0.75c0.75,0 0.61891,0.75 0.61891,0.75c-0.2519,1.42993 -0.68747,2.85095 -1.32849,4.18248c0.46388,2.81264 2.84458,6.22932 4.86632,6.56752l0.71283,-0.1521c0,0 0.76114,-0.14709 0.77969,0.58835c0.01855,0.73544 -0.7426,0.88252 -0.7426,0.88252l-1.01209,0.18123c-2.348,-0.52486 -4.76054,-3.22189 -5.74263,-6.11865c-0.95722,1.3652 -2.18564,2.56708 -3.71574,3.49269l-0.94802,0.27024c0,0 -0.7594,0.1819 -0.81414,-0.54571z" fill="#000000" stroke="none" stroke-width="0.5" stroke-linecap="butt"/><path d="M318.70826,166.39208c0.10723,-0.03887 0.23808,-0.06336 0.39751,-0.06336c0.77287,0 0.67232,0.57532 0.67232,0.57532l-0.07489,0.20161c0.16322,0.59783 1.27862,2.4976 0.65559,3.01136c-0.76399,0.62997 -3.48755,-0.1041 -3.7801,-0.65442c-0.26012,-0.48935 0.7908,-1.97446 0.88082,-2.55855c0,0 0.10055,-0.57532 0.87342,-0.57532c0.15944,0 0.28171,0.02448 0.37535,0.06336z" fill="#ffffff" stroke="none" stroke-width="0.5" stroke-linecap="butt"/><path d="M331.93968,168.97361c0.61701,-0.25522 0.96327,0.16058 0.96327,0.16058l0.70123,0.86502c0.09787,0.57086 0.48129,1.86609 -0.3097,2.38001c-0.5843,0.37964 -2.74854,0.2321 -3.18864,-0.26219c-0.4374,-0.49125 0.23644,-2.18753 0.34863,-2.82943c0,0 0.10055,-0.57532 0.87342,-0.57532c0.36282,0 0.53316,0.12679 0.61177,0.26132z" fill="#ffffff" stroke="none" stroke-width="0.5" stroke-linecap="butt"/><path d="M347.90102,168.13697c0.77287,0 0.67232,0.57532 0.67232,0.57532l-0.12757,0.69679c0.06222,0.36682 0.8553,2.81343 0.6735,3.02657c-0.57508,0.67413 -3.47743,0.22673 -3.84772,-0.10918c-0.4648,-0.42165 0.22928,-2.24839 0.33391,-2.84709c0,0 0.10055,-0.57532 0.87342,-0.57532c0.23854,0 0.39388,0.05481 0.49465,0.13059l0.05411,-0.32236c0,0 0.10055,-0.57532 0.87342,-0.57532z" fill="#ffffff" stroke="none" stroke-width="0.5" stroke-linecap="butt"/><path d="M360.71341,169.09843c0.12671,-0.13124 0.33987,-0.2526 0.69483,-0.2526c0.77287,0 0.67232,0.57532 0.67232,0.57532l-0.04138,0.00984c0.16922,0.61983 1.59921,2.47792 1.2366,2.94643c-0.69742,0.9011 -4.02252,0.03908 -4.35475,-0.33247c-0.49585,-0.55452 0.44486,-1.78945 0.5498,-2.43203c0,0 0.10055,-0.57532 0.87342,-0.57532c0.15595,0 0.27635,0.02342 0.36918,0.06082z" fill="#ffffff" stroke="none" stroke-width="0.5" stroke-linecap="butt"/><path d="M371.34944,168.0086c0.08189,-0.01851 0.17485,-0.02923 0.28035,-0.02923c0.54195,0 0.65442,0.2829 0.67326,0.45194c0.97802,0.61246 2.31087,2.07117 1.11354,2.987c-0.19775,0.15127 -4.05465,0.38311 -4.23312,0.24421c-0.64993,-0.50589 0.49319,-3.20529 0.68559,-3.91592c0,0 0.15537,-0.57385 0.9191,-0.53286c0.76374,0.04099 0.60838,0.61485 0.60838,0.61485c-0.01623,0.05995 -0.0319,0.11997 -0.04711,0.18001z" fill="#ffffff" stroke="none" stroke-width="0.5" stroke-linecap="butt"/><path d="M378.22055,166.39208c0.00836,-0.00756 0.01698,-0.01515 0.02595,-0.02279c0.54147,-0.4619 1.10206,-0.11892 1.10206,-0.11892l0.6887,0.43592c0.39459,0.59626 2.2015,2.33068 1.48958,3.15985c-0.50186,0.5845 -4.52578,0.97689 -5.00582,0.46265c-0.24435,-0.26177 0.53883,-2.72891 0.44786,-3.26521c0,0 -0.0899,-0.55814 0.68428,-0.69767c0.2576,-0.04643 0.43944,-0.01562 0.5674,0.04618z" fill="#ffffff" stroke="none" stroke-width="0.5" stroke-linecap="butt"/><path d="M385.24057,166.00956c0.43268,-0.43115 1.02488,-0.1954 1.02488,-0.1954l0.14671,0.13104c0.89138,0.00739 3.13461,0.20682 3.15273,1.11489c0.01295,0.64952 -3.02869,1.66566 -3.72366,1.56484c-1.34005,-0.19442 -1.47016,-1.24768 -1.99831,-1.97705c0,0 -0.34505,-0.47869 0.3538,-0.79781c0.69467,-0.31723 1.03976,0.15389 1.04385,0.15952z" fill="#ffffff" stroke="none" stroke-width="0.5" stroke-linecap="butt"/><path d="M309.59477,163.26039c0.37461,0 0.54402,0.13516 0.61915,0.27446c0.04136,0.02337 0.08219,0.05174 0.12201,0.08582c0.39948,0.34185 0.02717,0.68372 -0.10192,0.78416c0.44367,0.87256 1.05542,2.39316 -0.88271,3.00848c-0.5965,0.18938 -4.20353,-0.81399 -4.06272,-1.60319c0.15014,-0.84146 2.22024,-1.37574 3.42355,-1.91095l0.00925,-0.06346c0,0 0.10055,-0.57532 0.87342,-0.57532z" fill="#ffffff" stroke="none" stroke-width="0.5" stroke-linecap="butt"/><path d="M313.35562,166.13697c0.39044,-0.06552 0.79247,-0.06769 1.19723,0h0.3786l0.10102,-0.16225l0.72318,0.18758c0.30317,0.0723 0.49449,0.29118 0.44925,0.54999c-0.05553,0.31774 -0.44658,0.57532 -0.87342,0.57532h-0.50031c0.07776,0.73585 -0.3047,1.6799 -0.77889,2.06234c-0.62141,0.50117 -1.53681,0.42754 -2.24799,0.4307c-0.53097,0.00236 -1.99065,0.04721 -2.17404,-0.30385c-0.17609,-0.33713 0.46546,-0.71641 0.67854,-1.07953c0.47043,-0.80171 1.09985,-1.4279 1.81579,-1.82491c0.18997,-0.43538 0.83179,-0.43538 0.83179,-0.43538c0.13309,0 0.26619,0 0.39927,0z" fill="#ffffff" stroke="none" stroke-width="0.5" stroke-linecap="butt"/><path d="M325.61817,168.41667c0.11936,-0.09534 0.26517,-0.16247 0.44157,-0.18899c1.57195,-0.2363 2.31352,2.74755 1.4794,3.40703c-0.85193,0.67354 -3.82426,0.13322 -4.07911,-0.55567c-0.02612,-0.07058 1.03753,-1.6932 1.10017,-2.09965c0,0 0.10055,-0.57532 0.87342,-0.57532c0.06807,0 0.12937,0.00446 0.18456,0.0126z" fill="#ffffff" stroke="none" stroke-width="0.5" stroke-linecap="butt"/><path d="M339.50427,169.70565l0.74063,0.22168c0.29842,0.41399 1.5512,1.75455 1.24365,2.23179c-0.48877,0.75844 -4.40814,0.84344 -4.80987,0.27653c-0.04095,-0.05777 1.26772,-2.25626 1.40265,-2.5205c0,0 0.285,-0.55814 1.0104,-0.41861c0.21511,0.04138 0.34139,0.11957 0.41258,0.2091z" fill="#ffffff" stroke="none" stroke-width="0.5" stroke-linecap="butt"/><path d="M353.04305,170.95049c0.0814,-0.046 0.18307,-0.08613 0.30986,-0.11628c0.765,-0.18193 0.91401,0.36386 0.91401,0.36386l0.06731,0.40804c2.74666,1.6683 -2.22559,2.6522 -3.00614,1.71489c-0.39872,-0.4788 0.13259,-2.05387 0.24693,-2.70808c0,0 0.10055,-0.57532 0.87342,-0.57532c0.77287,0 0.67232,0.57532 0.67232,0.57532c-0.01948,0.11151 -0.04625,0.22424 -0.07767,0.33758z" fill="#ffffff" stroke="none" stroke-width="0.5" stroke-linecap="butt"/><path d="M323.60726,184.11039c-0.66393,0.27278 -0.99186,-0.18214 -0.99186,-0.18214c-0.35088,-0.48879 -1.9461,-2.55934 -1.63104,-3.11676c0.47844,-0.84646 4.14215,-1.3709 4.97887,-0.9292c1.11723,0.58976 0.10273,2.66762 -0.39813,3.454l-1.0026,0.67967c0,0 -0.50653,0.33366 -0.95524,0.09446z" fill="#ffffff" stroke="none" stroke-width="0.5" stroke-linecap="butt"/><path d="M327.30153,189.47136c-0.58731,-0.31913 -0.0749,-0.79781 -0.0749,-0.79781l0.07085,-0.0662c-0.10351,-0.11699 -0.12368,-0.24222 -0.12368,-0.24222c-0.095,-0.66105 -1.35948,-2.38616 -0.72025,-3.04451c0.75699,-0.77961 4.62813,-1.28594 5.25918,-0.308c0.77698,1.20408 -1.75232,2.84248 -2.69573,3.72388l-0.61579,0.57532c0,0 -0.51237,0.47869 -1.09966,0.15956z" fill="#ffffff" stroke="none" stroke-width="0.5" stroke-linecap="butt"/><path d="M335.54199,190.19283c-0.10251,0.16607 -0.3241,0.37515 -0.79,0.37515c-0.77287,0 -0.67232,-0.57532 -0.67232,-0.57532l0.62954,-0.70634c0.03598,-0.6999 -0.31923,-2.4482 0.07111,-2.8161c0.60467,-0.56994 3.98123,-1.18264 4.67573,-0.52804c1.55592,1.46652 -1.99909,3.57769 -3.91405,4.25066z" fill="#ffffff" stroke="none" stroke-width="0.5" stroke-linecap="butt"/><path d="M345.13353,189.66616c0.00829,0.02434 0.01554,0.04747 0.02156,0.06926c0,0 0.12499,0.4578 -0.44165,0.67461c-0.12383,0.13928 -0.34048,0.27441 -0.71505,0.27441c-0.77287,0 -0.67232,-0.57532 -0.67232,-0.57532l0.10497,-0.3737c0.01277,-0.02048 0.02612,-0.04283 0.03998,-0.06689c-0.29514,-0.72723 -0.79718,-1.76502 -0.4048,-2.3764c0.27412,-0.4271 3.10011,-2.22883 3.83565,-1.44975c0.64406,0.68219 -0.97954,2.73875 -1.76836,3.82379z" fill="#ffffff" stroke="none" stroke-width="0.5" stroke-linecap="butt"/><path d="M349.39501,189.98647c-0.15124,-0.20981 -0.10192,-0.38897 0.0012,-0.52405c-0.022,-0.09953 -0.00819,-0.17863 -0.00819,-0.17863c0.12734,-0.70088 0.51221,-2.75429 1.31546,-3.28339c0.82212,-0.54153 4.6499,-0.56697 4.81225,0.41187c0.12894,0.77733 -3.44064,2.97894 -4.23695,3.35022l-0.8399,0.38355c0,0 -0.69883,0.31913 -1.04388,-0.15956z" fill="#ffffff" stroke="none" stroke-width="0.5" stroke-linecap="butt"/><path d="M360.0495,186.52512c0,0 0.10635,0.55504 -0.66573,0.70642c-0.77208,0.15138 -0.87845,-0.40366 -0.87845,-0.40366c-0.13717,-0.71592 -1.18072,-3.0975 -0.16402,-3.81831c2.18466,-1.54885 3.65822,0.56979 2.99173,1.94882l-0.06291,0.05002l0.01925,0.00766l-0.86171,1.01801c-0.09792,0.12066 -0.24657,0.21825 -0.4189,0.27498c0.01339,0.07206 0.02695,0.14409 0.04074,0.21608z" fill="#ffffff" stroke="none" stroke-width="0.5" stroke-linecap="butt"/><path d="M366.45667,183.79295c-0.77287,0 -0.67232,-0.57532 -0.67232,-0.57532c0.12971,-0.7216 -0.49468,-2.39959 -0.18891,-2.92771c0.16307,-0.28165 2.50603,-0.84902 2.77214,-0.62524c0.34909,0.29353 0.24439,1.66696 0.21911,2.24917l-0.09094,0.09093l0.05197,0.00999l-0.38572,0.75541c-0.12287,0.2562 -0.46412,0.44746 -0.83192,0.44746c0,0 -0.10055,0.57532 -0.87342,0.57532z" fill="#ffffff" stroke="none" stroke-width="0.5" stroke-linecap="butt"/></g></g></svg>