<svg version="1.1" xmlns="http://www.w3.org/2000/svg" xmlns:xlink="http://www.w3.org/1999/xlink" width="214.06855" height="295.44033" viewBox="0,0,214.06855,295.44033"><g transform="translate(-213.63712,-38.88751)"><g stroke-miterlimit="10"><path d="M339.11619,296.93773c-0.61998,-0.42206 -0.19792,-1.04203 -0.19792,-1.04203l0.55957,-0.82198c1.13454,-1.66629 2.33933,-3.27978 3.5316,-4.90509c6.44455,-7.93514 13.88047,-14.97726 20.44162,-22.85064c2.97866,-3.5744 4.1909,-7.12628 5.80037,-11.48133c0.95942,-2.59608 2.11714,-4.60666 0.3473,-7.21188c-1.4588,-2.14737 -4.68652,-4.049 -6.65894,-5.76691c-2.81071,-2.45505 -6.97053,-6.54648 -8.62734,-9.88956c-2.73219,-5.51299 -1.47622,-12.20333 0.26096,-17.71249c1.94089,-3.8967 4.18492,-7.58178 7.01242,-10.90931c2.70542,-3.18385 6.01932,-5.94735 8.51605,-9.28639c0,0 0.45,-0.6 1.05,-0.15c0.6,0.45 0.15,1.05 0.15,1.05c-5.16211,6.86363 -11.39388,12.00255 -15.33759,19.85736c-1.59246,5.10697 -2.84573,11.36511 -0.30761,16.48524c1.564,3.15504 5.60086,7.10796 8.26828,9.42404c2.08008,1.81168 5.3701,3.78173 6.91453,6.05514c2.04622,3.01206 0.93882,5.54448 -0.18106,8.57476c-1.66595,4.50786 -2.96257,8.21068 -6.05503,11.92164c-6.54926,7.85912 -13.97096,14.88968 -20.4067,22.8071c-1.17407,1.60152 -2.36147,3.19074 -3.4789,4.83245l-0.55957,0.82198c0,0 -0.42206,0.61997 -1.04203,0.19792z" fill="#000000" stroke="none" stroke-width="0" stroke-linecap="butt"/><g stroke-linecap="butt"><path d="M384.90219,303.97715v-92.407h9.3835v92.407z" fill="#ab4a1e" stroke="#000000" stroke-width="0"/><path d="M384.90219,259.92513v-48.35498h9.3835v48.35498z" fill="#9a441c" stroke="#000000" stroke-width="0"/><path d="M384.90219,247.94982v-36.37967h9.3835v36.37967z" fill="#933b1b" stroke="#000000" stroke-width="0"/><path d="M384.90219,235.00427c0,-9.86977 0,-23.43412 0,-23.43412h9.3835c0,0 0,13.69377 0,23.62351c0,0.15541 -9.3835,-0.07963 -9.3835,-0.18939z" fill="#7c3116" stroke="#000000" stroke-width="0"/><path d="M392.34205,236.59748c-0.82842,0 -1.5,-0.67157 -1.5,-1.5c0,-0.82843 0.67158,-1.5 1.5,-1.5c0.82842,0 1.5,0.67157 1.5,1.5c0,0.82843 -0.67158,1.5 -1.5,1.5z" fill="#7c3116" stroke="none" stroke-width="0.5"/><path d="M388.36469,233.93822c0.25898,-0.21292 0.59054,-0.34074 0.95197,-0.34074c0.82842,0 1.5,0.67157 1.5,1.5c0,0.82843 -0.67158,1.5 -1.5,1.5c-0.44424,0 -0.84337,-0.19311 -1.11803,-0.49997c-0.25898,0.21292 -0.59054,0.34074 -0.95197,0.34074c-0.82842,0 -1.5,-0.67157 -1.5,-1.5c0,-0.82843 0.67158,-1.5 1.5,-1.5c0.44424,0 0.84337,0.19312 1.11803,0.49998z" fill="#7c3116" stroke="none" stroke-width="0.5"/><path d="M392.50128,241.8298c-0.55228,0 -1,-0.44771 -1,-1c0,-0.55229 0.44772,-1 1,-1c0.55228,0 1,0.44771 1,1c0,0.55229 -0.44772,1 -1,1z" fill="#7c3116" stroke="none" stroke-width="0.5"/><path d="M388.5205,245.49211c-0.55228,0 -1,-0.44771 -1,-1c0,-0.55229 0.44772,-1 1,-1c0.55228,0 1,0.44771 1,1c0,0.55229 -0.44772,1 -1,1z" fill="#7c3116" stroke="none" stroke-width="0.5"/><path d="M386.4505,240.07826c-0.55228,0 -1,-0.44771 -1,-1c0,-0.55229 0.44772,-1 1,-1c0.55228,0 1,0.44771 1,1c0,0.55229 -0.44772,1 -1,1z" fill="#7c3116" stroke="none" stroke-width="0.5"/><path d="M392.50128,246.10673c-0.27614,0 -0.5,-0.22386 -0.5,-0.5c0,-0.27614 0.22386,-0.5 0.5,-0.5c0.27614,0 0.5,0.22386 0.5,0.5c0,0.27614 -0.22386,0.5 -0.5,0.5z" fill="#7c3116" stroke="none" stroke-width="0.5"/><path d="M388.04281,247.22135c-0.27614,0 -0.5,-0.22386 -0.5,-0.5c0,-0.27614 0.22386,-0.5 0.5,-0.5c0.27614,0 0.5,0.22386 0.5,0.5c0,0.27614 -0.22386,0.5 -0.5,0.5z" fill="#7c3116" stroke="none" stroke-width="0.5"/><path d="M385.65434,244.19596c-0.27614,0 -0.5,-0.22386 -0.5,-0.5c0,-0.27614 0.22386,-0.5 0.5,-0.5c0.27614,0 0.5,0.22386 0.5,0.5c0,0.27614 -0.22386,0.5 -0.5,0.5z" fill="#7c3116" stroke="none" stroke-width="0.5"/><path d="M392.50128,249.97289c-0.82842,0 -1.5,-0.67157 -1.5,-1.5c0,-0.82843 0.67158,-1.5 1.5,-1.5c0.82842,0 1.5,0.67157 1.5,1.5c0,0.82843 -0.67158,1.5 -1.5,1.5z" fill="#933b1b" stroke="none" stroke-width="0.5"/><path d="M386.56667,250.13152c-0.80851,-0.0228 -1.45694,-0.68537 -1.45694,-1.4994c0,-0.82843 0.67158,-1.5 1.5,-1.5c0.61082,0 1.13637,0.36509 1.37032,0.88897c0.27472,-0.34751 0.70001,-0.57051 1.17738,-0.57051c0.82842,0 1.5,0.67157 1.5,1.5c0,0.82843 -0.67158,1.5 -1.5,1.5c-0.34517,0 -0.66312,-0.11658 -0.9166,-0.31253c-0.17892,0.27081 -0.48607,0.44946 -0.83495,0.44946c-0.35167,0 -0.66094,-0.18152 -0.83922,-0.45599z" fill="#933b1b" stroke="none" stroke-width="0.5"/><path d="M391.38665,253.6129c-0.55228,0 -1,-0.44771 -1,-1c0,-0.55229 0.44772,-1 1,-1c0.55228,0 1,0.44771 1,1c0,0.55229 -0.44772,1 -1,1z" fill="#933b1b" stroke="none" stroke-width="0.5"/><path d="M386.62936,251.46334c0.14279,-0.37787 0.5079,-0.64659 0.93576,-0.64659c0.55228,0 1,0.44771 1,1c0,0.50491 -0.3742,0.92242 -0.8604,0.99033c-0.14279,0.37787 -0.50789,0.64659 -0.93576,0.64659c-0.55228,0 -1,-0.44771 -1,-1c0,-0.50491 0.37419,-0.92242 0.86039,-0.99033z" fill="#933b1b" stroke="none" stroke-width="0.5"/><path d="M386.92819,258.04906c-0.27614,0 -0.5,-0.22386 -0.5,-0.5c0,-0.27614 0.22386,-0.5 0.5,-0.5c0.27614,0 0.5,0.22386 0.5,0.5c0,0.27614 -0.22386,0.5 -0.5,0.5z" fill="#933b1b" stroke="none" stroke-width="0.5"/><path d="M391.38665,255.97906c-0.27614,0 -0.5,-0.22386 -0.5,-0.5c0,-0.27614 0.22386,-0.5 0.5,-0.5c0.27614,0 0.5,0.22386 0.5,0.5c0,0.27614 -0.22386,0.5 -0.5,0.5z" fill="#933b1b" stroke="none" stroke-width="0.5"/><path d="M388.20204,255.34213c-0.27614,0 -0.5,-0.22386 -0.5,-0.5c0,-0.27614 0.22386,-0.5 0.5,-0.5c0.27614,0 0.5,0.22386 0.5,0.5c0,0.27614 -0.22386,0.5 -0.5,0.5z" fill="#933b1b" stroke="none" stroke-width="0.5"/><path d="M387.18132,258.93649c0.22951,0.039 0.44126,0.13014 0.62264,0.2608c0.24642,-0.1775 0.54889,-0.28207 0.87578,-0.28207c0.15222,0 0.29915,0.02267 0.43759,0.06484c0.27514,-0.33146 0.69028,-0.54253 1.15472,-0.54253c0.56709,0 1.06069,0.31471 1.31567,0.779c0.22234,-0.5501 0.76147,-0.93822 1.39126,-0.93822c0.82842,0 1.5,0.67158 1.5,1.5c0,0.82842 -0.67158,1.5 -1.5,1.5c-0.56709,0 -1.0607,-0.3147 -1.31567,-0.77899c-0.22234,0.5501 -0.76147,0.93822 -1.39126,0.93822c-0.15222,0 -0.29916,-0.02267 -0.4376,-0.06483c-0.27514,0.33146 -0.69027,0.54252 -1.15471,0.54252c-0.32689,0 -0.62936,-0.10456 -0.87578,-0.28206c-0.24642,0.1775 -0.54888,0.28206 -0.87577,0.28206c-0.82842,0 -1.5,-0.67158 -1.5,-1.5c0,-0.16503 0.02666,-0.32385 0.07589,-0.47236c-0.03474,-0.10155 -0.05358,-0.21047 -0.05358,-0.32379c0,-0.55228 0.44772,-1 1,-1c0.28841,0 0.54831,0.1221 0.73082,0.31743z" fill="#9a441c" stroke="none" stroke-width="0.5"/><path d="M391.70513,264.9183c-0.55228,0 -1,-0.44772 -1,-1c0,-0.55228 0.44772,-1 1,-1c0.55228,0 1,0.44772 1,1c0,0.55228 -0.44772,1 -1,1z" fill="#9a441c" stroke="none" stroke-width="0.5"/><path d="M386.92819,264.44061c-0.55228,0 -1,-0.44772 -1,-1c0,-0.55228 0.44772,-1 1,-1c0.55228,0 1,0.44772 1,1c0,0.55228 -0.44772,1 -1,1z" fill="#9a441c" stroke="none" stroke-width="0.5"/><path d="M392.34205,267.60293c-0.27614,0 -0.5,-0.22386 -0.5,-0.5c0,-0.27614 0.22386,-0.5 0.5,-0.5c0.27614,0 0.5,0.22386 0.5,0.5c0,0.27614 -0.22386,0.5 -0.5,0.5z" fill="#9a441c" stroke="none" stroke-width="0.5"/><path d="M389.47589,265.69216c-0.27614,0 -0.5,-0.22386 -0.5,-0.5c0,-0.27614 0.22386,-0.5 0.5,-0.5c0.27614,0 0.5,0.22386 0.5,0.5c0,0.27614 -0.22386,0.5 -0.5,0.5z" fill="#9a441c" stroke="none" stroke-width="0.5"/><path d="M388.83897,268.23985c-0.27614,0 -0.5,-0.22386 -0.5,-0.5c0,-0.27614 0.22386,-0.5 0.5,-0.5c0.27614,0 0.5,0.22386 0.5,0.5c0,0.27614 -0.22386,0.5 -0.5,0.5z" fill="#9a441c" stroke="none" stroke-width="0.5"/><path d="M387.56512,269.83216c-0.27614,0 -0.5,-0.22386 -0.5,-0.5c0,-0.27614 0.22386,-0.5 0.5,-0.5c0.27614,0 0.5,0.22386 0.5,0.5c0,0.27614 -0.22386,0.5 -0.5,0.5z" fill="#9a441c" stroke="none" stroke-width="0.5"/></g><g stroke-linecap="butt"><path d="M402.07086,334.32784v-122.75769h12.46546v122.75769z" fill="#ab4a1e" stroke="#000000" stroke-width="0"/><path d="M402.07086,275.80711v-64.23696h12.46546v64.23696z" fill="#9a441c" stroke="#000000" stroke-width="0"/><path d="M402.07086,255.73204v-44.16189h12.46546v44.16189z" fill="#933b1b" stroke="#000000" stroke-width="0"/><path d="M402.07086,231.91601c0,-6.98777 0,-20.34586 0,-20.34586h12.46546c0,0 0,13.51597 0,20.34586c0,0.01328 -12.46546,0.06137 -12.46546,0z" fill="#7c3116" stroke="#000000" stroke-width="0"/><path d="M413.0965,233.41286c-0.82842,0 -1.5,-0.67157 -1.5,-1.5c0,-0.82843 0.67158,-1.5 1.5,-1.5c0.82842,0 1.5,0.67157 1.5,1.5c0,0.82843 -0.67158,1.5 -1.5,1.5z" fill="#7c3116" stroke="none" stroke-width="0.5"/><path d="M408.79726,233.25363c-0.82842,0 -1.5,-0.67157 -1.5,-1.5c0,-0.82843 0.67158,-1.5 1.5,-1.5c0.82842,0 1.5,0.67157 1.5,1.5c0,0.82843 -0.67158,1.5 -1.5,1.5z" fill="#7c3116" stroke="none" stroke-width="0.5"/><path d="M404.17956,229.8536c0.15004,-0.05037 0.31068,-0.07767 0.47769,-0.07767c0.82842,0 1.5,0.67157 1.5,1.5c0,0.82843 -0.67158,1.5 -1.5,1.5c-0.16701,0 -0.32765,-0.0273 -0.47769,-0.07766c-0.15004,0.05037 -0.31069,0.07766 -0.4777,0.07766c-0.82842,0 -1.5,-0.67157 -1.5,-1.5c0,-0.82843 0.67158,-1.5 1.5,-1.5c0.16701,0 0.32765,0.0273 0.4777,0.07767z" fill="#7c3116" stroke="none" stroke-width="0.5"/><path d="M412.93727,236.57517c-0.55228,0 -1,-0.44771 -1,-1c0,-0.55229 0.44772,-1 1,-1c0.55228,0 1,0.44771 1,1c0,0.55229 -0.44772,1 -1,1z" fill="#7c3116" stroke="none" stroke-width="0.5"/><path d="M409.91187,236.89363c-0.55228,0 -1,-0.44771 -1,-1c0,-0.55229 0.44772,-1 1,-1c0.55228,0 1,0.44771 1,1c0,0.55229 -0.44772,1 -1,1z" fill="#7c3116" stroke="none" stroke-width="0.5"/><path d="M405.77187,238.96364c-0.55228,0 -1,-0.44771 -1,-1c0,-0.55229 0.44772,-1 1,-1c0.55228,0 1,0.44771 1,1c0,0.55229 -0.44772,1 -1,1z" fill="#7c3116" stroke="none" stroke-width="0.5"/><path d="M411.98188,241.3298c-0.27614,0 -0.5,-0.22386 -0.5,-0.5c0,-0.27614 0.22386,-0.5 0.5,-0.5c0.27614,0 0.5,0.22386 0.5,0.5c0,0.27614 -0.22386,0.5 -0.5,0.5z" fill="#7c3116" stroke="none" stroke-width="0.5"/><path d="M408.63803,242.12595c-0.27614,0 -0.5,-0.22386 -0.5,-0.5c0,-0.27614 0.22386,-0.5 0.5,-0.5c0.27614,0 0.5,0.22386 0.5,0.5c0,0.27614 -0.22386,0.5 -0.5,0.5z" fill="#7c3116" stroke="none" stroke-width="0.5"/><path d="M406.40879,246.26596c-0.27614,0 -0.5,-0.22386 -0.5,-0.5c0,-0.27614 0.22386,-0.5 0.5,-0.5c0.27614,0 0.5,0.22386 0.5,0.5c0,0.27614 -0.22386,0.5 -0.5,0.5z" fill="#7c3116" stroke="none" stroke-width="0.5"/><path d="M412.45957,257.13829c-0.82842,0 -1.5,-0.67157 -1.5,-1.5c0,-0.82843 0.67158,-1.5 1.5,-1.5c0.82842,0 1.5,0.67157 1.5,1.5c0,0.82843 -0.67158,1.5 -1.5,1.5z" fill="#933b1b" stroke="none" stroke-width="0.5"/><path d="M404.5874,254.63337c0.21059,-0.11271 0.45122,-0.17661 0.70677,-0.17661c0.42204,0 0.80338,0.1743 1.07594,0.45484c0.25588,-0.46117 0.74775,-0.7733 1.31252,-0.7733c0.29249,0 0.56543,0.08371 0.79615,0.22849c0.23073,-0.14478 0.50367,-0.22849 0.79616,-0.22849c0.82842,0 1.5,0.67157 1.5,1.5c0,0.82843 -0.67158,1.5 -1.5,1.5c-0.29249,0 -0.56543,-0.08372 -0.79616,-0.2285c-0.23073,0.14477 -0.50367,0.2285 -0.79615,0.2285c-0.42204,0 -0.80337,-0.1743 -1.07593,-0.45484c-0.22059,0.39757 -0.61657,0.68437 -1.08345,0.75592c-0.21059,0.11271 -0.45122,0.17661 -0.70678,0.17661c-0.82842,0 -1.5,-0.67158 -1.5,-1.5c0,-0.75054 0.55123,-1.37232 1.27092,-1.48261z" fill="#933b1b" stroke="none" stroke-width="0.5"/><path d="M410.38957,260.30061c-0.55228,0 -1,-0.44772 -1,-1c0,-0.55228 0.44772,-1 1,-1c0.55228,0 1,0.44772 1,1c0,0.55228 -0.44772,1 -1,1z" fill="#933b1b" stroke="none" stroke-width="0.5"/><path d="M404.81648,260.14137c-0.55228,0 -1,-0.44772 -1,-1c0,-0.55228 0.44772,-1 1,-1c0.55228,0 1,0.44772 1,1c0,0.55228 -0.44772,1 -1,1z" fill="#933b1b" stroke="none" stroke-width="0.5"/><path d="M411.66342,263.30368c-0.27614,0 -0.5,-0.22386 -0.5,-0.5c0,-0.27614 0.22386,-0.5 0.5,-0.5c0.27614,0 0.5,0.22386 0.5,0.5c0,0.27614 -0.22386,0.5 -0.5,0.5z" fill="#933b1b" stroke="none" stroke-width="0.5"/><path d="M406.24956,265.53292c-0.27614,0 -0.5,-0.22386 -0.5,-0.5c0,-0.27614 0.22386,-0.5 0.5,-0.5c0.27614,0 0.5,0.22386 0.5,0.5c0,0.27614 -0.22386,0.5 -0.5,0.5z" fill="#933b1b" stroke="none" stroke-width="0.5"/><path d="M410.23034,269.5137c-0.27614,0 -0.5,-0.22386 -0.5,-0.5c0,-0.27614 0.22386,-0.5 0.5,-0.5c0.27614,0 0.5,0.22386 0.5,0.5c0,0.27614 -0.22386,0.5 -0.5,0.5z" fill="#933b1b" stroke="none" stroke-width="0.5"/><path d="M413.0965,277.51987c-0.82842,0 -1.5,-0.67158 -1.5,-1.5c0,-0.82842 0.67158,-1.5 1.5,-1.5c0.82842,0 1.5,0.67158 1.5,1.5c0,0.82842 -0.67158,1.5 -1.5,1.5z" fill="#9a441c" stroke="none" stroke-width="0.5"/><path d="M409.43418,278.93064c-0.55228,0 -1,-0.44772 -1,-1c0,-0.039 0.00223,-0.07748 0.00657,-0.11532c-0.349,-0.01305 -0.65225,-0.20495 -0.82078,-0.48671c-0.21686,0.1218 -0.46706,0.19126 -0.7335,0.19126c-0.32689,0 -0.62935,-0.10456 -0.87577,-0.28206c-0.24642,0.1775 -0.54888,0.28206 -0.87577,0.28206c-0.08129,0 -0.16106,-0.00646 -0.23884,-0.01891c-0.07778,0.01245 -0.15756,0.01891 -0.23885,0.01891c-0.82842,0 -1.5,-0.67158 -1.5,-1.5c0,-0.82842 0.67158,-1.5 1.5,-1.5c0.08129,0 0.16107,0.00647 0.23885,0.01891c0.07778,-0.01245 0.15755,-0.01891 0.23884,-0.01891c0.32689,0 0.62935,0.10457 0.87577,0.28207c0.24642,-0.1775 0.54888,-0.28207 0.87577,-0.28207c0.36302,0 0.69592,0.12896 0.95539,0.34356c0.25947,-0.2146 0.59236,-0.34356 0.95538,-0.34356c0.82842,0 1.5,0.67158 1.5,1.5c0,0.39528 -0.1529,0.75484 -0.40276,1.02278c0.32065,0.16656 0.53969,0.50169 0.53969,0.88799c0,0.55228 -0.44772,1 -1,1z" fill="#9a441c" stroke="none" stroke-width="0.5"/><path d="M412.14111,282.91142c-0.55228,0 -1,-0.44772 -1,-1c0,-0.55228 0.44772,-1 1,-1c0.55228,0 1,0.44772 1,1c0,0.55228 -0.44772,1 -1,1z" fill="#9a441c" stroke="none" stroke-width="0.5"/><path d="M404.65725,281.00065c-0.55228,0 -1,-0.44772 -1,-1c0,-0.55228 0.44772,-1 1,-1c0.55228,0 1,0.44772 1,1c0,0.55228 -0.44772,1 -1,1z" fill="#9a441c" stroke="none" stroke-width="0.5"/><path d="M413.45005,292.45576l-0.47769,0.47769c0,0 -0.35356,0.35355 -0.70711,0c-0.35355,-0.35355 0,-0.70711 0,-0.70711l0.47769,-0.47769c0,0 0.35355,-0.35355 0.70711,0c0.35355,0.35355 0,0.70711 0,0.70711z" fill="#9a441c" stroke="none" stroke-width="0.5"/><path d="M411.34495,286.23296c-0.27614,0 -0.5,-0.22386 -0.5,-0.5c0,-0.27614 0.22386,-0.5 0.5,-0.5c0.27614,0 0.5,0.22386 0.5,0.5c0,0.27614 -0.22386,0.5 -0.5,0.5z" fill="#9a441c" stroke="none" stroke-width="0.5"/><path d="M407.68264,284.16296c-0.27614,0 -0.5,-0.22386 -0.5,-0.5c0,-0.27614 0.22386,-0.5 0.5,-0.5c0.27614,0 0.5,0.22386 0.5,0.5c0,0.27614 -0.22386,0.5 -0.5,0.5z" fill="#9a441c" stroke="none" stroke-width="0.5"/><path d="M403.3834,288.30297c-0.27614,0 -0.5,-0.22386 -0.5,-0.5c0,-0.27614 0.22386,-0.5 0.5,-0.5c0.27614,0 0.5,0.22386 0.5,0.5c0,0.27614 -0.22386,0.5 -0.5,0.5z" fill="#9a441c" stroke="none" stroke-width="0.5"/><path d="M407.20495,289.57682c-0.27614,0 -0.5,-0.22386 -0.5,-0.5c0,-0.27614 0.22386,-0.5 0.5,-0.5c0.27614,0 0.5,0.22386 0.5,0.5c0,0.27614 -0.22386,0.5 -0.5,0.5z" fill="#9a441c" stroke="none" stroke-width="0.5"/></g><path d="M338.45847,181.4817c0.74999,0.00418 0.74581,0.75417 0.74581,0.75417l-0.00814,1.46102c-0.11987,9.52776 -8.82394,15.60647 -15.45445,21.34607c-8.08195,5.72539 -16.66397,14.79315 -26.94308,14.79315c-6.37581,0 -12.61726,-0.0549 -18.96597,-0.65384c-4.51772,-0.4262 -7.61587,-0.64469 -11.47758,-3.11824c-1.94173,-3.81196 -2.02153,-7.73198 -1.24603,-11.64295c-1.64443,3.71149 -3.28798,7.42335 -4.93232,11.13487c-1.30809,2.95254 -0.49984,4.37804 0.61255,7.35771c0.25293,0.67751 0.70851,3.06297 1.24534,3.51164c1.19873,1.00187 3.81591,1.53707 5.28094,2.15281c3.68755,1.54984 7.37509,3.09968 11.06264,4.64952c2.96819,1.2475 6.07492,0.6476 9.27591,0.51423c3.8942,-0.16226 8.05892,0.07894 11.91084,-0.49211c2.88175,-0.42722 5.81329,-1.5055 8.6366,-2.23458c1.90138,-0.491 5.20305,-0.67811 6.83091,-1.73145c1.78836,-1.15719 3.42668,-3.82631 4.8699,-5.4181c3.69429,-4.07459 7.38858,-8.14916 11.08287,-12.22375c3.89976,-4.30121 6.15544,-10.22515 8.83446,-15.36892c0.71226,-1.36756 3.00599,-4.2739 3.04345,-5.76288c0.04759,-1.89105 -0.88142,-3.34619 -1.79264,-4.8995c-0.1621,-0.24516 -0.32419,-0.49032 -0.48629,-0.73548l-0.4923,-0.48713c0,0 -0.53033,-0.53033 0,-1.06066c0.53033,-0.53033 1.06066,0 1.06066,0l0.59165,0.59682c0.19922,0.29682 0.39844,0.59364 0.59766,0.89046c1.08582,1.84899 2.17019,3.67525 2.00119,5.94004c-0.13654,1.82987 -2.34177,4.57685 -3.193,6.21124c-2.74253,5.2657 -5.05949,11.27831 -9.05358,15.68356c-3.69429,4.07459 -7.38858,8.14916 -11.08287,12.22375c-1.54199,1.70072 -3.27425,4.46825 -5.20543,5.6944c-1.80585,1.14658 -5.15307,1.36321 -7.23158,1.89996c-2.87541,0.74253 -5.85608,1.8308 -8.79167,2.26601c-3.9061,0.57908 -8.12018,0.34251 -12.06836,0.50702c-3.44177,0.14341 -6.71131,0.7183 -9.91955,-0.63009c-3.68754,-1.54984 -7.37509,-3.09968 -11.06264,-4.64952c-1.62132,-0.68142 -4.49014,-1.31558 -5.7817,-2.49671c-0.1374,-0.12565 -1.02181,-2.56118 -1.04403,-2.62069c-1.3723,-3.67587 -2.77013,-6.133 -1.10334,-9.89519c3.55629,-8.02706 7.10889,-16.05576 10.67462,-24.07864c0,0 0.24598,-0.55346 0.79321,-0.44461c0.11921,-0.02356 0.2606,-0.01524 0.42648,0.04697c0.70225,0.26334 0.4389,0.96559 0.4389,0.96559c-1.82454,4.86544 -3.84145,9.79644 -4.83031,14.89879c-0.34751,1.79312 -0.8234,3.69176 -0.33681,5.5215c0.2883,1.0841 1.06199,2.15994 1.50035,3.20454c3.5639,2.07692 6.38022,2.23758 10.50181,2.62641c6.30212,0.59454 12.49577,0.64721 18.82509,0.64721c6.41884,0 10.01033,-2.98365 15.0432,-6.67786c3.61641,-2.65451 7.31063,-5.20697 10.9744,-7.79573c6.22769,-5.4041 14.76716,-11.21516 14.88,-20.17924l0.00811,-1.45575c0,0 0.00417,-0.74999 0.75417,-0.74581z" fill="#000000" stroke="none" stroke-width="0" stroke-linecap="butt"/><g stroke-linecap="butt"><path d="M248.81917,303.97715v-92.407h9.3835v92.407z" fill="#ab4a1e" stroke="#000000" stroke-width="0"/><path d="M248.81917,259.92513v-48.35498h9.3835v48.35498z" fill="#9a441c" stroke="#000000" stroke-width="0"/><path d="M248.81917,247.94982v-36.37967h9.3835v36.37967z" fill="#933b1b" stroke="#000000" stroke-width="0"/><path d="M248.81917,235.19366c0,-9.92974 0,-23.62351 0,-23.62351h9.3835c0,0 0,13.56435 0,23.43412c0,0.10976 -9.3835,0.3448 -9.3835,0.18939z" fill="#7c3116" stroke="#000000" stroke-width="0"/><path d="M249.26281,235.09748c0,-0.82843 0.67157,-1.5 1.5,-1.5c0.82843,0 1.5,0.67157 1.5,1.5c0,0.82843 -0.67157,1.5 -1.5,1.5c-0.82843,0 -1.5,-0.67157 -1.5,-1.5z" fill="#7c3116" stroke="none" stroke-width="0.5"/><path d="M255.8582,233.43825c0.82843,0 1.5,0.67157 1.5,1.5c0,0.82843 -0.67157,1.5 -1.5,1.5c-0.36143,0 -0.693,-0.12782 -0.95197,-0.34074c-0.27466,0.30686 -0.67379,0.49997 -1.11803,0.49997c-0.82843,0 -1.5,-0.67157 -1.5,-1.5c0,-0.82843 0.67157,-1.5 1.5,-1.5c0.36143,0 0.693,0.12783 0.95197,0.34074c0.27466,-0.30686 0.67379,-0.49998 1.11803,-0.49998z" fill="#7c3116" stroke="none" stroke-width="0.5"/><path d="M249.60357,240.8298c0,-0.55229 0.44771,-1 1,-1c0.55229,0 1,0.44771 1,1c0,0.55229 -0.44771,1 -1,1c-0.55229,0 -1,-0.44771 -1,-1z" fill="#7c3116" stroke="none" stroke-width="0.5"/><path d="M253.58436,244.49211c0,-0.55229 0.44771,-1 1,-1c0.55229,0 1,0.44771 1,1c0,0.55229 -0.44771,1 -1,1c-0.55229,0 -1,-0.44771 -1,-1z" fill="#7c3116" stroke="none" stroke-width="0.5"/><path d="M255.65435,239.07826c0,-0.55229 0.44771,-1 1,-1c0.55228,0 1,0.44771 1,1c0,0.55229 -0.44772,1 -1,1c-0.55228,0 -1,-0.44771 -1,-1z" fill="#7c3116" stroke="none" stroke-width="0.5"/><path d="M250.10357,245.60673c0,-0.27614 0.22386,-0.5 0.5,-0.5c0.27614,0 0.5,0.22386 0.5,0.5c0,0.27614 -0.22386,0.5 -0.5,0.5c-0.27614,0 -0.5,-0.22386 -0.5,-0.5z" fill="#7c3116" stroke="none" stroke-width="0.5"/><path d="M254.56205,246.72135c0,-0.27614 0.22386,-0.5 0.5,-0.5c0.27614,0 0.5,0.22386 0.5,0.5c0,0.27614 -0.22386,0.5 -0.5,0.5c-0.27614,0 -0.5,-0.22386 -0.5,-0.5z" fill="#7c3116" stroke="none" stroke-width="0.5"/><path d="M256.95052,243.69596c0,-0.27614 0.22386,-0.5 0.5,-0.5c0.27614,0 0.5,0.22386 0.5,0.5c0,0.27614 -0.22386,0.5 -0.5,0.5c-0.27614,0 -0.5,-0.22386 -0.5,-0.5z" fill="#7c3116" stroke="none" stroke-width="0.5"/><path d="M249.10357,248.47289c0,-0.82843 0.67157,-1.5 1.5,-1.5c0.82843,0 1.5,0.67157 1.5,1.5c0,0.82843 -0.67157,1.5 -1.5,1.5c-0.82843,0 -1.5,-0.67157 -1.5,-1.5z" fill="#933b1b" stroke="none" stroke-width="0.5"/><path d="M255.69897,250.58751c-0.34887,0 -0.65602,-0.17865 -0.83495,-0.44946c-0.25348,0.19595 -0.57142,0.31253 -0.9166,0.31253c-0.82843,0 -1.5,-0.67157 -1.5,-1.5c0,-0.82843 0.67157,-1.5 1.5,-1.5c0.47737,0 0.90266,0.223 1.17738,0.57051c0.23395,-0.52388 0.7595,-0.88897 1.37032,-0.88897c0.82842,0 1.5,0.67157 1.5,1.5c0,0.81402 -0.64842,1.4766 -1.45693,1.4994c-0.17828,0.27446 -0.48755,0.45599 -0.83922,0.45599z" fill="#933b1b" stroke="none" stroke-width="0.5"/><path d="M250.71819,252.6129c0,-0.55229 0.44771,-1 1,-1c0.55229,0 1,0.44771 1,1c0,0.55229 -0.44771,1 -1,1c-0.55229,0 -1,-0.44771 -1,-1z" fill="#933b1b" stroke="none" stroke-width="0.5"/><path d="M257.3359,252.45367c0,0.55229 -0.44772,1 -1,1c-0.42786,0 -0.79298,-0.26872 -0.93576,-0.64659c-0.4862,-0.06791 -0.8604,-0.48542 -0.8604,-0.99033c0,-0.55229 0.44771,-1 1,-1c0.42786,0 0.79297,0.26872 0.93576,0.64659c0.4862,0.06791 0.8604,0.48542 0.8604,0.99033z" fill="#933b1b" stroke="none" stroke-width="0.5"/><path d="M255.67667,257.54906c0,-0.27614 0.22386,-0.5 0.5,-0.5c0.27614,0 0.5,0.22386 0.5,0.5c0,0.27614 -0.22386,0.5 -0.5,0.5c-0.27614,0 -0.5,-0.22386 -0.5,-0.5z" fill="#933b1b" stroke="none" stroke-width="0.5"/><path d="M251.21819,255.47906c0,-0.27614 0.22386,-0.5 0.5,-0.5c0.27614,0 0.5,0.22386 0.5,0.5c0,0.27614 -0.22386,0.5 -0.5,0.5c-0.27614,0 -0.5,-0.22386 -0.5,-0.5z" fill="#933b1b" stroke="none" stroke-width="0.5"/><path d="M254.40281,254.84213c0,-0.27614 0.22386,-0.5 0.5,-0.5c0.27614,0 0.5,0.22386 0.5,0.5c0,0.27614 -0.22386,0.5 -0.5,0.5c-0.27614,0 -0.5,-0.22386 -0.5,-0.5z" fill="#933b1b" stroke="none" stroke-width="0.5"/><path d="M256.65434,258.61906c0.55228,0 1,0.44772 1,1c0,0.11332 -0.01884,0.22224 -0.05358,0.32379c0.04924,0.14851 0.07589,0.30733 0.07589,0.47236c0,0.82842 -0.67158,1.5 -1.5,1.5c-0.32689,0 -0.62935,-0.10456 -0.87577,-0.28206c-0.24642,0.1775 -0.54889,0.28206 -0.87578,0.28206c-0.46444,0 -0.87957,-0.21107 -1.15471,-0.54252c-0.13844,0.04216 -0.28538,0.06483 -0.4376,0.06483c-0.62978,0 -1.16891,-0.38812 -1.39126,-0.93822c-0.25498,0.46429 -0.74858,0.77899 -1.31567,0.77899c-0.82843,0 -1.5,-0.67158 -1.5,-1.5c0,-0.82842 0.67157,-1.5 1.5,-1.5c0.62978,0 1.16892,0.38813 1.39126,0.93822c0.25498,-0.46429 0.74857,-0.779 1.31567,-0.779c0.46444,0 0.87958,0.21107 1.15472,0.54253c0.13844,-0.04216 0.28537,-0.06484 0.43759,-0.06484c0.32689,0 0.62936,0.10456 0.87578,0.28207c0.18139,-0.13066 0.39314,-0.22179 0.62265,-0.2608c0.18251,-0.19533 0.4424,-0.31743 0.73081,-0.31743z" fill="#9a441c" stroke="none" stroke-width="0.5"/><path d="M250.39973,263.9183c0,-0.55228 0.44771,-1 1,-1c0.55229,0 1,0.44772 1,1c0,0.55228 -0.44771,1 -1,1c-0.55229,0 -1,-0.44772 -1,-1z" fill="#9a441c" stroke="none" stroke-width="0.5"/><path d="M255.17667,263.44061c0,-0.55228 0.44771,-1 1,-1c0.55228,0 1,0.44772 1,1c0,0.55228 -0.44772,1 -1,1c-0.55229,0 -1,-0.44772 -1,-1z" fill="#9a441c" stroke="none" stroke-width="0.5"/><path d="M250.26281,267.10293c0,-0.27614 0.22386,-0.5 0.5,-0.5c0.27614,0 0.5,0.22386 0.5,0.5c0,0.27614 -0.22386,0.5 -0.5,0.5c-0.27614,0 -0.5,-0.22386 -0.5,-0.5z" fill="#9a441c" stroke="none" stroke-width="0.5"/><path d="M253.12897,265.19216c0,-0.27614 0.22386,-0.5 0.5,-0.5c0.27614,0 0.5,0.22386 0.5,0.5c0,0.27614 -0.22386,0.5 -0.5,0.5c-0.27614,0 -0.5,-0.22386 -0.5,-0.5z" fill="#9a441c" stroke="none" stroke-width="0.5"/><path d="M253.76589,267.73985c0,-0.27614 0.22386,-0.5 0.5,-0.5c0.27614,0 0.5,0.22386 0.5,0.5c0,0.27614 -0.22386,0.5 -0.5,0.5c-0.27614,0 -0.5,-0.22386 -0.5,-0.5z" fill="#9a441c" stroke="none" stroke-width="0.5"/><path d="M255.03973,269.33216c0,-0.27614 0.22386,-0.5 0.5,-0.5c0.27614,0 0.5,0.22386 0.5,0.5c0,0.27614 -0.22386,0.5 -0.5,0.5c-0.27614,0 -0.5,-0.22386 -0.5,-0.5z" fill="#9a441c" stroke="none" stroke-width="0.5"/></g><g stroke-linecap="butt"><path d="M227.34909,334.32784v-122.75769h12.46546v122.75769z" fill="#ab4a1e" stroke="#000000" stroke-width="0"/><path d="M227.34909,275.80711v-64.23696h12.46546v64.23696z" fill="#9a441c" stroke="#000000" stroke-width="0"/><path d="M227.34909,255.73204v-44.16189h12.46546v44.16189z" fill="#933b1b" stroke="#000000" stroke-width="0"/><path d="M227.34909,231.91601c0,-6.82989 0,-20.34586 0,-20.34586h12.46546c0,0 0,13.35809 0,20.34586c0,0.06137 -12.46546,0.01328 -12.46546,0z" fill="#7c3116" stroke="#000000" stroke-width="0"/><path d="M227.28891,231.91286c0,-0.82843 0.67157,-1.5 1.5,-1.5c0.82843,0 1.5,0.67157 1.5,1.5c0,0.82843 -0.67157,1.5 -1.5,1.5c-0.82843,0 -1.5,-0.67157 -1.5,-1.5z" fill="#7c3116" stroke="none" stroke-width="0.5"/><path d="M231.58816,231.75363c0,-0.82843 0.67157,-1.5 1.5,-1.5c0.82843,0 1.5,0.67157 1.5,1.5c0,0.82843 -0.67157,1.5 -1.5,1.5c-0.82843,0 -1.5,-0.67157 -1.5,-1.5z" fill="#7c3116" stroke="none" stroke-width="0.5"/><path d="M238.18354,229.77593c0.82843,0 1.5,0.67157 1.5,1.5c0,0.82843 -0.67157,1.5 -1.5,1.5c-0.16701,0 -0.32765,-0.0273 -0.47769,-0.07766c-0.15005,0.05037 -0.31068,0.07766 -0.47769,0.07766c-0.82843,0 -1.5,-0.67157 -1.5,-1.5c0,-0.82843 0.67157,-1.5 1.5,-1.5c0.16701,0 0.32765,0.0273 0.47769,0.07767c0.15005,-0.05037 0.31068,-0.07767 0.47769,-0.07767z" fill="#7c3116" stroke="none" stroke-width="0.5"/><path d="M227.94815,235.57517c0,-0.55229 0.44771,-1 1,-1c0.55229,0 1,0.44771 1,1c0,0.55229 -0.44771,1 -1,1c-0.55229,0 -1,-0.44771 -1,-1z" fill="#7c3116" stroke="none" stroke-width="0.5"/><path d="M230.97354,235.89363c0,-0.55229 0.44771,-1 1,-1c0.55229,0 1,0.44771 1,1c0,0.55229 -0.44771,1 -1,1c-0.55229,0 -1,-0.44771 -1,-1z" fill="#7c3116" stroke="none" stroke-width="0.5"/><path d="M235.11355,237.96364c0,-0.55229 0.44771,-1 1,-1c0.55229,0 1,0.44771 1,1c0,0.55229 -0.44771,1 -1,1c-0.55229,0 -1,-0.44771 -1,-1z" fill="#7c3116" stroke="none" stroke-width="0.5"/><path d="M229.40353,240.8298c0,-0.27614 0.22386,-0.5 0.5,-0.5c0.27614,0 0.5,0.22386 0.5,0.5c0,0.27614 -0.22386,0.5 -0.5,0.5c-0.27614,0 -0.5,-0.22386 -0.5,-0.5z" fill="#7c3116" stroke="none" stroke-width="0.5"/><path d="M232.74738,241.62595c0,-0.27614 0.22386,-0.5 0.5,-0.5c0.27614,0 0.5,0.22386 0.5,0.5c0,0.27614 -0.22386,0.5 -0.5,0.5c-0.27614,0 -0.5,-0.22386 -0.5,-0.5z" fill="#7c3116" stroke="none" stroke-width="0.5"/><path d="M234.97661,245.76596c0,-0.27614 0.22386,-0.5 0.5,-0.5c0.27614,0 0.5,0.22386 0.5,0.5c0,0.27614 -0.22386,0.5 -0.5,0.5c-0.27614,0 -0.5,-0.22386 -0.5,-0.5z" fill="#7c3116" stroke="none" stroke-width="0.5"/><path d="M227.92583,255.63829c0,-0.82843 0.67157,-1.5 1.5,-1.5c0.82843,0 1.5,0.67157 1.5,1.5c0,0.82843 -0.67157,1.5 -1.5,1.5c-0.82843,0 -1.5,-0.67157 -1.5,-1.5z" fill="#933b1b" stroke="none" stroke-width="0.5"/><path d="M238.56894,256.11598c0,0.82842 -0.67157,1.5 -1.5,1.5c-0.25555,0 -0.49619,-0.06391 -0.70678,-0.17661c-0.46687,-0.07155 -0.86286,-0.35835 -1.08345,-0.75592c-0.27256,0.28054 -0.65389,0.45484 -1.07593,0.45484c-0.29249,0 -0.56543,-0.08372 -0.79615,-0.2285c-0.23073,0.14477 -0.50367,0.2285 -0.79616,0.2285c-0.82843,0 -1.5,-0.67157 -1.5,-1.5c0,-0.82843 0.67157,-1.5 1.5,-1.5c0.29249,0 0.56543,0.08371 0.79616,0.22849c0.23073,-0.14478 0.50367,-0.22849 0.79615,-0.22849c0.56477,0 1.05665,0.31213 1.31252,0.7733c0.27256,-0.28054 0.6539,-0.45484 1.07594,-0.45484c0.25555,0 0.49618,0.06391 0.70677,0.17661c0.71969,0.11029 1.27092,0.73208 1.27092,1.48261z" fill="#933b1b" stroke="none" stroke-width="0.5"/><path d="M230.49584,259.30061c0,-0.55228 0.44771,-1 1,-1c0.55229,0 1,0.44772 1,1c0,0.55228 -0.44771,1 -1,1c-0.55229,0 -1,-0.44772 -1,-1z" fill="#933b1b" stroke="none" stroke-width="0.5"/><path d="M236.06894,259.14137c0,-0.55228 0.44771,-1 1,-1c0.55229,0 1,0.44772 1,1c0,0.55228 -0.44771,1 -1,1c-0.55229,0 -1,-0.44772 -1,-1z" fill="#933b1b" stroke="none" stroke-width="0.5"/><path d="M229.722,262.80368c0,-0.27614 0.22386,-0.5 0.5,-0.5c0.27614,0 0.5,0.22386 0.5,0.5c0,0.27614 -0.22386,0.5 -0.5,0.5c-0.27614,0 -0.5,-0.22386 -0.5,-0.5z" fill="#933b1b" stroke="none" stroke-width="0.5"/><path d="M235.13586,265.03292c0,-0.27614 0.22386,-0.5 0.5,-0.5c0.27614,0 0.5,0.22386 0.5,0.5c0,0.27614 -0.22386,0.5 -0.5,0.5c-0.27614,0 -0.5,-0.22386 -0.5,-0.5z" fill="#933b1b" stroke="none" stroke-width="0.5"/><path d="M231.15508,269.0137c0,-0.27614 0.22386,-0.5 0.5,-0.5c0.27614,0 0.5,0.22386 0.5,0.5c0,0.27614 -0.22386,0.5 -0.5,0.5c-0.27614,0 -0.5,-0.22386 -0.5,-0.5z" fill="#933b1b" stroke="none" stroke-width="0.5"/><path d="M227.28891,276.01987c0,-0.82842 0.67157,-1.5 1.5,-1.5c0.82843,0 1.5,0.67158 1.5,1.5c0,0.82842 -0.67157,1.5 -1.5,1.5c-0.82843,0 -1.5,-0.67158 -1.5,-1.5z" fill="#9a441c" stroke="none" stroke-width="0.5"/><path d="M231.45123,277.93064c0,-0.3863 0.21904,-0.72143 0.53969,-0.88799c-0.24987,-0.26794 -0.40277,-0.62751 -0.40277,-1.02278c0,-0.82842 0.67157,-1.5 1.5,-1.5c0.36302,0 0.69592,0.12896 0.95539,0.34356c0.25947,-0.2146 0.59237,-0.34356 0.95539,-0.34356c0.32689,0 0.62935,0.10457 0.87577,0.28207c0.24642,-0.1775 0.54889,-0.28207 0.87577,-0.28207c0.08129,0 0.16107,0.00647 0.23884,0.01891c0.07778,-0.01245 0.15756,-0.01891 0.23885,-0.01891c0.82843,0 1.5,0.67158 1.5,1.5c0,0.82842 -0.67157,1.5 -1.5,1.5c-0.08129,0 -0.16107,-0.00646 -0.23885,-0.01891c-0.07778,0.01245 -0.15756,0.01891 -0.23884,0.01891c-0.32689,0 -0.62935,-0.10456 -0.87577,-0.28206c-0.24642,0.1775 -0.54888,0.28206 -0.87577,0.28206c-0.26643,0 -0.51664,-0.06946 -0.7335,-0.19126c-0.16853,0.28176 -0.47178,0.47366 -0.82078,0.48671c0.00435,0.03784 0.00657,0.07632 0.00657,0.11532c0,0.55228 -0.44771,1 -1,1c-0.55229,0 -1,-0.44772 -1,-1z" fill="#9a441c" stroke="none" stroke-width="0.5"/><path d="M228.74431,281.91142c0,-0.55228 0.44771,-1 1,-1c0.55229,0 1,0.44772 1,1c0,0.55228 -0.44771,1 -1,1c-0.55229,0 -1,-0.44772 -1,-1z" fill="#9a441c" stroke="none" stroke-width="0.5"/><path d="M236.22817,280.00065c0,-0.55228 0.44771,-1 1,-1c0.55229,0 1,0.44772 1,1c0,0.55228 -0.44771,1 -1,1c-0.55229,0 -1,-0.44772 -1,-1z" fill="#9a441c" stroke="none" stroke-width="0.5"/><path d="M228.43537,291.74866c0.35356,-0.35355 0.70711,0 0.70711,0l0.4777,0.47769c0,0 0.35356,0.35356 0,0.70711c-0.35356,0.35355 -0.70711,0 -0.70711,0l-0.47769,-0.47769c0,0 -0.35356,-0.35355 0,-0.70711z" fill="#9a441c" stroke="none" stroke-width="0.5"/><path d="M230.04045,285.73296c0,-0.27614 0.22386,-0.5 0.5,-0.5c0.27614,0 0.5,0.22386 0.5,0.5c0,0.27614 -0.22386,0.5 -0.5,0.5c-0.27614,0 -0.5,-0.22386 -0.5,-0.5z" fill="#9a441c" stroke="none" stroke-width="0.5"/><path d="M233.70277,283.66296c0,-0.27614 0.22386,-0.5 0.5,-0.5c0.27614,0 0.5,0.22386 0.5,0.5c0,0.27614 -0.22386,0.5 -0.5,0.5c-0.27614,0 -0.5,-0.22386 -0.5,-0.5z" fill="#9a441c" stroke="none" stroke-width="0.5"/><path d="M238.00202,287.80297c0,-0.27614 0.22386,-0.5 0.5,-0.5c0.27614,0 0.5,0.22386 0.5,0.5c0,0.27614 -0.22386,0.5 -0.5,0.5c-0.27614,0 -0.5,-0.22386 -0.5,-0.5z" fill="#9a441c" stroke="none" stroke-width="0.5"/><path d="M234.18047,289.07682c0,-0.27614 0.22386,-0.5 0.5,-0.5c0.27614,0 0.5,0.22386 0.5,0.5c0,0.27614 -0.22386,0.5 -0.5,0.5c-0.27614,0 -0.5,-0.22386 -0.5,-0.5z" fill="#9a441c" stroke="none" stroke-width="0.5"/></g><g><path d="M390.56631,196.39479l35.79662,6.7747v11.11052h-212.72581v-11.11052l38.43736,-6.7747z" fill="#ab4a1e" stroke="#000000" stroke-width="0" stroke-linecap="round"/><path d="M390.56631,196.39479c0,0 16.46745,3.11655 23.01942,4.35655c0.05273,0.00998 -186.9758,0.11995 -186.8255,0.09345c5.77626,-1.01808 25.31425,-4.45 25.31425,-4.45z" fill="#933b1b" stroke="#000000" stroke-width="0" stroke-linecap="round"/><path d="M390.56631,196.39479c0,0 7.50319,1.34414 11.60157,2.11978c0.10366,0.01962 -163.06368,0.16627 -162.65855,0.09487c4.93653,-0.87008 12.56515,-2.21465 12.56515,-2.21465z" fill="#7c3116" stroke="#000000" stroke-width="0" stroke-linecap="round"/><path d="M396.23396,197.16552c0.55228,0 1,0.44771 1,1c0,0.10043 -0.01481,0.1974 -0.04235,0.28886c0.157,-0.34673 0.50604,-0.58795 0.91143,-0.58795c0.55228,0 1,0.44771 1,1c0,0.55229 -0.44772,1 -1,1c-0.55228,0 -1,-0.44771 -1,-1c0,-0.10043 0.01481,-0.19741 0.04235,-0.28886c-0.157,0.34673 -0.50605,0.58795 -0.91143,0.58795c-0.21803,0 -0.41976,-0.06978 -0.58409,-0.18822c-0.02042,0.01471 -0.04142,0.02868 -0.06295,0.04185c-0.07353,0.47979 -0.48805,0.84727 -0.98841,0.84727c-0.37491,0 -0.70163,-0.20632 -0.87282,-0.51161c-0.09335,0.02882 -0.19254,0.04434 -0.29535,0.04434c-0.55228,0 -1,-0.44771 -1,-1c0,-0.55229 0.44772,-1 1,-1c0.29214,0 0.55502,0.12527 0.73786,0.32503c0.16303,-0.33095 0.50372,-0.55867 0.89759,-0.55867c0.21803,0 0.41976,0.06978 0.58409,0.18822c0.16433,-0.11844 0.36606,-0.18822 0.58409,-0.18822z" fill="#7c3116" stroke="none" stroke-width="0.5" stroke-linecap="butt"/><path d="M245.53937,197.39916c0.55229,0 1,0.44771 1,1c0,0.55229 -0.44771,1 -1,1c-0.39003,0 -0.7279,-0.22329 -0.89277,-0.54901c-0.09924,0.44777 -0.49867,0.78265 -0.97631,0.78265c-0.55229,0 -1,-0.44771 -1,-1c0,-0.55229 0.44771,-1 1,-1c0.39003,0 0.72791,0.22329 0.89277,0.549c0.09924,-0.44777 0.49867,-0.78264 0.97631,-0.78264z" fill="#7c3116" stroke="none" stroke-width="0.5" stroke-linecap="butt"/><path d="M249.74481,197.16552c0.55229,0 1,0.44771 1,1c0,0.55229 -0.44771,1 -1,1c-0.16879,0 -0.32781,-0.04182 -0.46727,-0.11566c-0.13946,0.07384 -0.29848,0.11566 -0.46727,0.11566c-0.0881,0 -0.17354,-0.01139 -0.25493,-0.03279c-0.17839,0.16535 -0.41719,0.26642 -0.67961,0.26642c-0.55229,0 -1,-0.44771 -1,-1c0,-0.55229 0.44771,-1 1,-1c0.0881,0 0.17354,0.01139 0.25493,0.03278c0.17839,-0.16535 0.41719,-0.26642 0.67961,-0.26642c0.16879,0 0.32781,0.04182 0.46727,0.11566c0.13946,-0.07384 0.29848,-0.11566 0.46727,-0.11566z" fill="#7c3116" stroke="none" stroke-width="0.5" stroke-linecap="butt"/><path d="M408.55114,200.96914c0,-0.55229 0.44772,-1 1,-1c0.55228,0 1,0.44771 1,1c0,0.55229 -0.44772,1 -1,1c-0.55228,0 -1,-0.44771 -1,-1z" fill="#933b1b" stroke="none" stroke-width="0.5" stroke-linecap="butt"/><path d="M403.87845,201.20278c0,-1 1,-1 1,-1h1.63545c0,0 1,0 1,1c0,1 -1,1 -1,1h-1.63545c0,0 -1,0 -1,-1z" fill="#933b1b" stroke="none" stroke-width="0.5" stroke-linecap="butt"/><path d="M398.27121,201.20278c0,-0.55229 0.44772,-1 1,-1c0.55228,0 1,0.44771 1,1c0,0.55229 -0.44772,1 -1,1c-0.55228,0 -1,-0.44771 -1,-1z" fill="#933b1b" stroke="none" stroke-width="0.5" stroke-linecap="butt"/><path d="M394.76669,200.50187c0,-0.55229 0.44772,-1 1,-1c0.55228,0 1,0.44771 1,1c0,0.55229 -0.44772,1 -1,1c-0.55228,0 -1,-0.44771 -1,-1z" fill="#933b1b" stroke="none" stroke-width="0.5" stroke-linecap="butt"/><path d="M392.43034,200.26824c0,-0.55229 0.44772,-1 1,-1c0.55228,0 1,0.44771 1,1c0,0.55229 -0.44772,1 -1,1c-0.55228,0 -1,-0.44771 -1,-1z" fill="#933b1b" stroke="none" stroke-width="0.5" stroke-linecap="butt"/><path d="M384.01948,200.96914c0,-0.55229 0.44772,-1 1,-1c0.12331,0 0.24139,0.02231 0.35045,0.06313c0.10906,-0.04082 0.22715,-0.06313 0.35045,-0.06313c0.55228,0 1,0.44771 1,1c0,0.55229 -0.44772,1 -1,1c-0.12331,0 -0.24139,-0.02231 -0.35045,-0.06313c-0.10906,0.04082 -0.22715,0.06313 -0.35045,0.06313c-0.55228,0 -1,-0.44771 -1,-1z" fill="#933b1b" stroke="none" stroke-width="0.5" stroke-linecap="butt"/><path d="M375.37498,201.20278c0,-0.55229 0.44772,-1 1,-1c0.55228,0 1,0.44771 1,1c0,0.55229 -0.44772,1 -1,1c-0.55228,0 -1,-0.44771 -1,-1z" fill="#933b1b" stroke="none" stroke-width="0.5" stroke-linecap="butt"/><path d="M367.43139,200.96914c0,-0.55229 0.44772,-1 1,-1c0.55228,0 1,0.44771 1,1c0,0.55229 -0.44772,1 -1,1c-0.55228,0 -1,-0.44771 -1,-1z" fill="#933b1b" stroke="none" stroke-width="0.5" stroke-linecap="butt"/><path d="M359.02053,200.73551c0,-0.55229 0.44772,-1 1,-1c0.55228,0 1,0.44771 1,1c0,0.55229 -0.44772,1 -1,1c-0.55228,0 -1,-0.44771 -1,-1z" fill="#933b1b" stroke="none" stroke-width="0.5" stroke-linecap="butt"/><path d="M350.1424,201.20278c0,-0.55229 0.44772,-1 1,-1c0.10281,0 0.202,0.01551 0.29535,0.04433c0.1712,-0.30528 0.49791,-0.5116 0.87282,-0.5116c0.55228,0 1,0.44771 1,1c0,0.55229 -0.44772,1 -1,1c-0.10281,0 -0.202,-0.01552 -0.29535,-0.04433c-0.1712,0.30528 -0.49792,0.51161 -0.87283,0.51161c-0.55228,0 -1,-0.44771 -1,-1z" fill="#933b1b" stroke="none" stroke-width="0.5" stroke-linecap="butt"/><path d="M335.42339,200.73551c0,-0.55229 0.44772,-1 1,-1c0.55228,0 1,0.44771 1,1c0,0.55229 -0.44772,1 -1,1c-0.55228,0 -1,-0.44771 -1,-1z" fill="#933b1b" stroke="none" stroke-width="0.5" stroke-linecap="butt"/><path d="M330.04979,201.20278c0,-0.55229 0.44772,-1 1,-1c0.55228,0 1,0.44771 1,1c0,0.55229 -0.44772,1 -1,1c-0.55228,0 -1,-0.44771 -1,-1z" fill="#933b1b" stroke="none" stroke-width="0.5" stroke-linecap="butt"/><path d="M323.27437,201.20278c0,-0.55229 0.44772,-1 1,-1c0.55228,0 1,0.44771 1,1c0,0.55229 -0.44772,1 -1,1c-0.55228,0 -1,-0.44771 -1,-1z" fill="#933b1b" stroke="none" stroke-width="0.5" stroke-linecap="butt"/><path d="M319.06895,201.43641c0,-0.55229 0.44772,-1 1,-1c0.55228,0 1,0.44771 1,1c0,0.55229 -0.44772,1 -1,1c-0.55228,0 -1,-0.44771 -1,-1z" fill="#933b1b" stroke="none" stroke-width="0.5" stroke-linecap="butt"/><path d="M312.52716,200.73551c0,-0.55229 0.44772,-1 1,-1c0.55228,0 1,0.44771 1,1c0,0.55229 -0.44772,1 -1,1c-0.55228,0 -1,-0.44771 -1,-1z" fill="#933b1b" stroke="none" stroke-width="0.5" stroke-linecap="butt"/><path d="M309.25627,200.73551c0,-0.55229 0.44772,-1 1,-1c0.55228,0 1,0.44771 1,1c0,0.55229 -0.44772,1 -1,1c-0.55228,0 -1,-0.44771 -1,-1z" fill="#933b1b" stroke="none" stroke-width="0.5" stroke-linecap="butt"/><path d="M298.74269,200.96914c0,-0.55229 0.44772,-1 1,-1c0.55228,0 1,0.44771 1,1c0,0.55229 -0.44772,1 -1,1c-0.55228,0 -1,-0.44771 -1,-1z" fill="#933b1b" stroke="none" stroke-width="0.5" stroke-linecap="butt"/><path d="M294.07,200.73551c0,-1 1,-1 1,-1h1.63545c0,0 1,0 1,1c0,1 -1,1 -1,1h-1.63545c0,0 -1,0 -1,-1z" fill="#933b1b" stroke="none" stroke-width="0.5" stroke-linecap="butt"/><path d="M285.89277,200.73551c0,-0.55229 0.44772,-1 1,-1c0.55228,0 1,0.44771 1,1c0,0.55229 -0.44772,1 -1,1c-0.55228,0 -1,-0.44771 -1,-1z" fill="#933b1b" stroke="none" stroke-width="0.5" stroke-linecap="butt"/><path d="M273.04285,200.96914c0,-0.55229 0.44772,-1 1,-1c0.55228,0 1,0.44771 1,1c0,0.55229 -0.44772,1 -1,1c-0.55228,0 -1,-0.44771 -1,-1z" fill="#933b1b" stroke="none" stroke-width="0.5" stroke-linecap="butt"/><path d="M262.99654,201.67005c0,-0.55229 0.44772,-1 1,-1c0.55228,0 1,0.44771 1,1c0,0.55229 -0.44772,1 -1,1c-0.55228,0 -1,-0.44771 -1,-1z" fill="#933b1b" stroke="none" stroke-width="0.5" stroke-linecap="butt"/><path d="M253.65115,201.67005c0,-0.55229 0.44771,-1 1,-1c0.55229,0 1,0.44771 1,1c0,0.55229 -0.44771,1 -1,1c-0.55229,0 -1,-0.44771 -1,-1z" fill="#933b1b" stroke="none" stroke-width="0.5" stroke-linecap="butt"/><path d="M244.77302,201.67005c0,-0.55229 0.44771,-1 1,-1c0.55229,0 1,0.44771 1,1c0,0.55229 -0.44771,1 -1,1c-0.55229,0 -1,-0.44771 -1,-1z" fill="#933b1b" stroke="none" stroke-width="0.5" stroke-linecap="butt"/><path d="M239.63305,200.50187c0,-0.55229 0.44771,-1 1,-1c0.55229,0 1,0.44771 1,1c0,0.55229 -0.44771,1 -1,1c-0.55229,0 -1,-0.44771 -1,-1z" fill="#933b1b" stroke="none" stroke-width="0.5" stroke-linecap="butt"/><path d="M234.49307,200.50187c0,-0.55229 0.44771,-1 1,-1c0.42666,0 0.79091,0.2672 0.93454,0.64338c0.14363,-0.37618 0.50788,-0.64338 0.93454,-0.64338c0.55229,0 1,0.44771 1,1c0,0.55229 -0.44771,1 -1,1c-0.42666,0 -0.79091,-0.2672 -0.93454,-0.64338c-0.14363,0.37618 -0.50788,0.64338 -0.93454,0.64338c-0.55229,0 -1,-0.44771 -1,-1z" fill="#933b1b" stroke="none" stroke-width="0.5" stroke-linecap="butt"/><path d="M242.70303,200.26824c0,-0.27614 0.22386,-0.5 0.5,-0.5c0.27614,0 0.5,0.22386 0.5,0.5c0,0.27614 -0.22386,0.5 -0.5,0.5c-0.27614,0 -0.5,-0.22386 -0.5,-0.5z" fill="#7c3116" stroke="none" stroke-width="0.5" stroke-linecap="butt"/><path d="M247.1421,200.26824c0,-0.27614 0.22386,-0.5 0.5,-0.5c0.27614,0 0.5,0.22386 0.5,0.5c0,0.27614 -0.22386,0.5 -0.5,0.5c-0.27614,0 -0.5,-0.22386 -0.5,-0.5z" fill="#7c3116" stroke="none" stroke-width="0.5" stroke-linecap="butt"/><path d="M399.70575,199.56733c0,-0.27614 0.22386,-0.5 0.5,-0.5c0.27614,0 0.5,0.22386 0.5,0.5c0,0.27614 -0.22386,0.5 -0.5,0.5c-0.27614,0 -0.5,-0.22386 -0.5,-0.5z" fill="#7c3116" stroke="none" stroke-width="0.5" stroke-linecap="butt"/><path d="M395.03305,200.26824c0,-0.27614 0.22386,-0.5 0.5,-0.5c0.27614,0 0.5,0.22386 0.5,0.5c0,0.27614 -0.22386,0.5 -0.5,0.5c-0.27614,0 -0.5,-0.22386 -0.5,-0.5z" fill="#7c3116" stroke="none" stroke-width="0.5" stroke-linecap="butt"/><path d="M242.93666,203.07186c0,-0.27614 0.22386,-0.5 0.5,-0.5c0.27614,0 0.5,0.22386 0.5,0.5c0,0.27614 -0.22386,0.5 -0.5,0.5c-0.27614,0 -0.5,-0.22386 -0.5,-0.5z" fill="#933b1b" stroke="none" stroke-width="0.5" stroke-linecap="butt"/><path d="M252.04842,204.24003c0,-0.27614 0.22386,-0.5 0.5,-0.5c0.27614,0 0.5,0.22386 0.5,0.5c0,0.27614 -0.22386,0.5 -0.5,0.5c-0.27614,0 -0.5,-0.22386 -0.5,-0.5z" fill="#933b1b" stroke="none" stroke-width="0.5" stroke-linecap="butt"/><path d="M272.6083,207.51092c0,-0.27614 0.22386,-0.5 0.5,-0.5c0.27614,0 0.5,0.22386 0.5,0.5c0,0.27614 -0.22386,0.5 -0.5,0.5c-0.27614,0 -0.5,-0.22386 -0.5,-0.5z" fill="#933b1b" stroke="none" stroke-width="0.5" stroke-linecap="butt"/><path d="M292.23364,204.7073c0,-0.27614 0.22386,-0.5 0.5,-0.5c0.27614,0 0.5,0.22386 0.5,0.5c0,0.27614 -0.22386,0.5 -0.5,0.5c-0.27614,0 -0.5,-0.22386 -0.5,-0.5z" fill="#933b1b" stroke="none" stroke-width="0.5" stroke-linecap="butt"/><path d="M310.92445,202.13732c0,-0.27614 0.22386,-0.5 0.5,-0.5c0.27614,0 0.5,0.22386 0.5,0.5c0,0.27614 -0.22386,0.5 -0.5,0.5c-0.27614,0 -0.5,-0.22386 -0.5,-0.5z" fill="#933b1b" stroke="none" stroke-width="0.5" stroke-linecap="butt"/><path d="M330.31615,204.94094c0,-0.27614 0.22386,-0.5 0.5,-0.5c0.27614,0 0.5,0.22386 0.5,0.5c0,0.27614 -0.22386,0.5 -0.5,0.5c-0.27614,0 -0.5,-0.22386 -0.5,-0.5z" fill="#933b1b" stroke="none" stroke-width="0.5" stroke-linecap="butt"/><path d="M353.44602,205.64184c0,-0.27614 0.22386,-0.5 0.5,-0.5c0.27614,0 0.5,0.22386 0.5,0.5c0,0.27614 -0.22386,0.5 -0.5,0.5c-0.27614,0 -0.5,-0.22386 -0.5,-0.5z" fill="#933b1b" stroke="none" stroke-width="0.5" stroke-linecap="butt"/><path d="M368.16503,206.81002c0,-0.27614 0.22386,-0.5 0.5,-0.5c0.27614,0 0.5,0.22386 0.5,0.5c0,0.27614 -0.22386,0.5 -0.5,0.5c-0.27614,0 -0.5,-0.22386 -0.5,-0.5z" fill="#933b1b" stroke="none" stroke-width="0.5" stroke-linecap="butt"/><path d="M383.81857,206.10911c0,-0.27614 0.22386,-0.5 0.5,-0.5c0.27614,0 0.5,0.22386 0.5,0.5c0,0.27614 -0.22386,0.5 -0.5,0.5c-0.27614,0 -0.5,-0.22386 -0.5,-0.5z" fill="#933b1b" stroke="none" stroke-width="0.5" stroke-linecap="butt"/><path d="M397.3694,205.17457c0,-0.27614 0.22386,-0.5 0.5,-0.5c0.27614,0 0.5,0.22386 0.5,0.5c0,0.27614 -0.22386,0.5 -0.5,0.5c-0.27614,0 -0.5,-0.22386 -0.5,-0.5z" fill="#933b1b" stroke="none" stroke-width="0.5" stroke-linecap="butt"/><path d="M407.64934,204.47367c0,-0.27614 0.22386,-0.5 0.5,-0.5c0.27614,0 0.5,0.22386 0.5,0.5c0,0.27614 -0.22386,0.5 -0.5,0.5c-0.27614,0 -0.5,-0.22386 -0.5,-0.5z" fill="#933b1b" stroke="none" stroke-width="0.5" stroke-linecap="butt"/></g><g stroke-linecap="round"><path d="M298.57192,68.23247c-2.50352,-0.75106 -4.58732,-2.53442 -3.51482,-5.09648c1.0725,-2.56206 1.68379,-3.95868 6.67816,-2.46037c4.99437,1.49831 10.89593,7.7326 10.89593,7.7326c0,0 -11.55575,0.5753 -14.05927,-0.17575z" fill="#1859da" stroke="#000000" stroke-width="0"/><path d="M307.35897,84.57638l5.79945,-16.3439" fill="none" stroke="#000000" stroke-width="1"/><path d="M323.60947,68.43913c1.91238,0.57372 3.50414,1.93598 2.68489,3.89308c-0.81926,1.9571 -1.2862,3.02395 -5.10128,1.87942c-3.81509,-1.14452 -8.32315,-5.90675 -8.32315,-5.90675c0,0 8.82716,-0.43947 10.73954,0.13425z" fill="#1859da" stroke="#000000" stroke-width="0"/><path d="M269.04747,111.99195c0,0 0.18644,-38.48829 34.97243,-33.56651c47.47773,6.71751 22.31909,40.94763 22.31909,40.94763z" fill="#ac2121" stroke="#000000" stroke-width="0"/><path d="M332.19475,95.00039c3.80151,12.13117 -5.64164,24.19694 -5.64164,24.19694l-20.38594,-2.63611l12.14834,-34.50581c0,0 10.41036,1.87528 13.87924,12.94498z" fill="#161ccc" stroke="none" stroke-width="0"/><path d="M288.73046,79.65564c0,0 9.20764,-2.24392 13.93771,-1.76242c5.03391,0.51244 15.82309,4.06322 15.82309,4.06322l-12.5382,35.132l-32.33632,-8.43556l15.11371,-28.99724z" fill="#d6b318" stroke="none" stroke-width="0"/></g><path d="M214.52364,306.61252v-267.72501h213.18203v267.72501z" fill="none" stroke="none" stroke-width="0" stroke-linecap="butt"/><path d="" fill="none" stroke="#000000" stroke-width="0" stroke-linecap="round"/><path d="M254.461,117.61566c0,0 4.19243,-12.74201 11.95038,-11.95038c7.75794,0.79162 16.87196,7.04441 29.87595,9.91221c13.00399,2.8678 16.3439,0.28076 16.3439,0.28076" fill="#063000" stroke="#000000" stroke-width="0" stroke-linecap="round"/><path d="M254.63671,116.9127c0,0 4.01669,-12.03904 11.77464,-11.24742c7.75794,0.79162 17.28404,8.00592 30.28803,10.87372c13.00399,2.8678 15.93182,-0.68075 15.93182,-0.68075" fill="none" stroke="#000000" stroke-width="0" stroke-linecap="round"/><g stroke="#000000" stroke-width="0" stroke-linecap="butt"><path d="M252.00901,199.30395v-82.38044h82.38044v82.38044z" fill="#c7c1b5"/><path d="M256.34484,189.00639v-67.74707h73.43782v67.74707z" fill="#000000"/></g><text transform="translate(268.01735,132.62723) rotate(90) scale(2.35099,1.68613)" font-size="40" xml:space="preserve" fill="#04ff00" stroke="none" stroke-width="0" stroke-linecap="butt" font-family="Pixel" font-weight="normal" text-anchor="start"><tspan x="0" dy="0">o</tspan></text><g fill="none" stroke-opacity="0.3451" stroke="#000000" stroke-width="1" stroke-linecap="round"><path d="M256.56985,185.21386h72.40524"/><path d="M256.56985,177.65701h72.75671"/><path d="M256.56987,170.80311h72.40524"/><path d="M329.32656,163.24626h-72.75671"/><path d="M256.56985,156.39236h72.40524"/><path d="M256.56985,148.83551h72.75671"/><path d="M328.97511,141.98161h-72.40524"/><path d="M256.56985,134.42476h72.75671"/><path d="M329.32656,126.51642h-72.75671"/></g><g><path d="M336.55738,199.03296v-98.63974h55.28161v98.63974z" fill="#c7c1b5" stroke="#000000" stroke-width="0" stroke-linecap="butt"/><path d="M341.16414,147.81617v-35.49946h46.339v35.49947z" fill="#b6ad9c" stroke="none" stroke-width="0" stroke-linecap="butt"/><path d="M343.60307,125.59513v-8.67162h42.00319v8.67162z" fill="#857f72" stroke="none" stroke-width="0" stroke-linecap="butt"/><path d="M343.60307,137.78961v-8.67163h42.00319v8.67163z" fill="#857f72" stroke="none" stroke-width="0" stroke-linecap="butt"/><path d="M345.56295,144.02234c0,-0.41422 0.33578,-0.75 0.75,-0.75c0.41422,0 0.75,0.33578 0.75,0.75c0,0.41422 -0.33578,0.75 -0.75,0.75c-0.41422,0 -0.75,-0.33578 -0.75,-0.75z" fill="#000000" stroke="none" stroke-width="0" stroke-linecap="butt"/><path d="M349.29383,143.75134h5.96174" fill="none" stroke="#000000" stroke-width="1" stroke-linecap="round"/></g><path d="M267.99303,105.84102l44.2867,9.66575c0,0 -4.07606,2.72897 -7.02963,2.81185c-8.86197,0.24865 -37.25706,-12.4776 -37.25706,-12.4776z" fill="#249d2e" stroke="#000000" stroke-width="0" stroke-linecap="round"/></g></g></svg>