<svg version="1.1" xmlns="http://www.w3.org/2000/svg" xmlns:xlink="http://www.w3.org/1999/xlink" width="237.12683" height="316.95392" viewBox="0,0,237.12683,316.95392"><defs><linearGradient x1="330.82362" y1="81.55094" x2="314.40254" y2="117.9767" gradientUnits="userSpaceOnUse" id="color-1"><stop offset="0" stop-color="#4a4a4a"/><stop offset="1" stop-color="#000000"/></linearGradient><linearGradient x1="387.90102" y1="91.72082" x2="366.22495" y2="125.69838" gradientUnits="userSpaceOnUse" id="color-2"><stop offset="0" stop-color="#4a4a4a"/><stop offset="1" stop-color="#000000"/></linearGradient></defs><g transform="translate(-216.12619,-7.24352)"><g stroke-miterlimit="10"><path d="" fill="none" stroke="#000000" stroke-width="2" stroke-linecap="round"/><path d="M421.34982,157.47966c-13.96035,27.02793 -69.56105,166.71777 -69.56105,166.71777l-71.61492,-0.60281c0,0 -21.45092,-135.65782 -30.84637,-164.15935c-3.44592,-10.45336 0.51466,-21.37784 12.5861,-21.29328c36.64588,0.25673 114.69023,0.80348 147.76281,1.03517c3.10873,0.02177 9.56546,0.72218 12.3132,4.34484c2.57551,3.3956 1.62532,9.57236 -0.63975,13.95764z" fill="#000000" stroke="#000000" stroke-width="0" stroke-linecap="butt"/><g fill="#ffffff" stroke="#000000" stroke-width="0"><path d="M337.90121,181.19463c0,0 2.1364,49.99706 2.17417,59.40753c0.01351,3.36444 -1.93154,1.04131 -1.93154,1.04131l-2.14615,7.49883l-6.22704,-23.33998l2.70544,-44.3883z" stroke-linecap="round"/><path d="M342.27736,175.29903c0.07357,2.49546 0.49339,5.12596 -0.75978,6.79608c-1.32566,1.76676 -4.38618,2.50221 -6.53506,2.50221c-1.83596,0 -4.09804,-0.25608 -5.44798,-1.59183c-1.72368,-1.70556 -2.31019,-4.8266 -2.39509,-7.70647c-0.07767,-2.63461 0.28347,-6.10722 1.66676,-7.79914c1.31298,-1.6059 3.59246,-1.49915 5.62806,-1.49915c2.39913,0 4.96878,0.09501 6.41858,2.23432c1.0763,1.5882 1.36,4.87595 1.4245,7.06398z" stroke-linecap="butt"/></g><path d="M216.12619,306.27924l23.9448,-267.72501h213.18203l-23.9448,267.72501z" fill="none" stroke="none" stroke-width="0" stroke-linecap="butt"/><g stroke-linecap="butt"><path d="M283.10337,94.64938c7.46741,-32.91487 41.73752,-55.71241 76.54442,-50.91974c34.80692,4.79268 56.96995,35.36069 49.50253,68.27557c-7.46741,32.91487 -41.73752,55.71243 -76.54443,50.91975c-34.80691,-4.79268 -56.96994,-35.3607 -49.50253,-68.27558z" fill="#000000" stroke="#000000" stroke-width="2"/><path d="M310.70441,128.00411c0.10883,-0.05267 0.23732,-0.07492 0.38835,-0.04738c0.73207,0.13349 0.52938,1.1699 0.52938,1.1699l-0.1086,0.35635c0.04295,1.1232 0.74471,4.79558 0.05861,5.62899c-0.84129,1.02192 -3.28401,-0.79305 -3.45835,-1.85158c-0.15502,-0.94124 1.11779,-3.47994 1.31212,-4.53423c0,0 0.20268,-1.0364 0.93475,-0.90291c0.15102,0.02755 0.26226,0.09351 0.34372,0.18087z" fill="#ffffff" stroke="none" stroke-width="0.5"/><path d="M323.55028,130.49056c0.6321,-0.36091 0.88244,0.4605 0.88244,0.4605l0.50268,1.70554c-0.0139,1.06253 0.10741,3.50117 -0.73781,4.30586c-0.62436,0.59444 -2.64679,-0.04961 -2.97135,-1.03098c-0.32256,-0.97534 0.63247,-3.96596 0.85862,-5.12231c0,0 0.20268,-1.0364 0.93475,-0.90291c0.34367,0.06268 0.48134,0.32434 0.53068,0.58433z" fill="#ffffff" stroke="none" stroke-width="0.5"/><path d="M338.41004,131.13003c0.73207,0.13349 0.52938,1.1699 0.52938,1.1699l-0.25097,1.25424c-0.00956,0.68262 0.28476,5.30095 0.07274,5.65995c-0.6706,1.13544 -3.3362,-0.18533 -3.62424,-0.86456c-0.36153,-0.8526 0.63704,-4.07866 0.84797,-5.15721c0,0 0.20268,-1.0364 0.93475,-0.90291c0.22595,0.0412 0.36285,0.16843 0.44415,0.32463l0.11146,-0.5811c0,0 0.20268,-1.0364 0.93475,-0.90291z" fill="#ffffff" stroke="none" stroke-width="0.5"/><path d="M349.68465,134.42767c0.14454,-0.2185 0.3691,-0.40396 0.70533,-0.34265c0.73207,0.13349 0.52938,1.1699 0.52938,1.1699l-0.04103,0.01088c0.04454,1.16453 1.05206,4.8149 0.62109,5.61041c-0.82888,1.53004 -3.81748,-0.62321 -4.06281,-1.36113c-0.36613,-1.10133 0.75555,-3.20081 0.97496,-4.35967c0,0 0.20268,-1.0364 0.93475,-0.90291c0.14772,0.02694 0.25738,0.09064 0.33833,0.17518z" fill="#ffffff" stroke="none" stroke-width="0.5"/><path d="M360.84922,135.66636c0.08103,-0.01976 0.17109,-0.02334 0.27103,-0.0051c0.51334,0.09362 0.56706,0.6312 0.55334,0.94408c0.81202,1.29074 1.80212,4.19279 0.49694,5.66348c-0.21556,0.2429 -3.91217,0.00139 -4.05526,-0.28386c-0.52115,-1.03886 1.06574,-5.78579 1.38068,-7.05416c0,0 0.25433,-1.02425 0.97009,-0.81727c0.71576,0.20701 0.46144,1.23125 0.46144,1.23125c-0.02657,0.10701 -0.05262,0.21423 -0.07825,0.32158z" fill="#ffffff" stroke="none" stroke-width="0.5"/><path d="M367.59996,133.79577c0.00932,-0.01241 0.01893,-0.02482 0.02882,-0.03727c0.59916,-0.75252 1.06609,-0.02748 1.06609,-0.02748l0.57094,0.91741c0.2624,1.16029 1.65005,4.64925 0.82086,6.04502c-0.58452,0.98393 -4.46932,1.00761 -4.82799,-0.01721c-0.18256,-0.52168 1.02001,-4.90534 1.034,-5.90338c0,0 0.01908,-1.03785 0.77846,-1.15969c0.25267,-0.04055 0.41915,0.0473 0.52883,0.18259z" fill="#ffffff" stroke="none" stroke-width="0.5"/><path d="M374.32085,134.30765c0.49037,-0.71496 1.00728,-0.18088 1.00728,-0.18088l0.11449,0.26535c0.84295,0.16749 2.93053,0.92023 2.77811,2.58663c-0.10902,1.19194 -3.17987,2.52779 -3.81934,2.22308c-1.23301,-0.58756 -1.15954,-2.53924 -1.52361,-3.96642c0,0 -0.23744,-0.9364 0.48411,-1.40023c0.71725,-0.46107 0.95614,0.46147 0.95896,0.47249z" fill="#ffffff" stroke="none" stroke-width="0.5"/><path d="M303.1815,116.20643c0.35484,0.0647 0.49007,0.34152 0.5352,0.60967c0.03482,0.04996 0.06818,0.10895 0.09954,0.17825c0.31456,0.69516 -0.10196,1.25701 -0.24299,1.41871c0.2573,1.67485 0.5528,4.56573 -1.39793,5.35802c-0.60037,0.24385 -3.82962,-2.21701 -3.54888,-3.63821c0.29935,-1.51533 2.35996,-2.13639 3.59969,-2.90886l0.0206,-0.11464c0,0 0.20268,-1.0364 0.93475,-0.90291z" fill="#ffffff" stroke="none" stroke-width="0.5"/><path d="M305.97344,124.11929c0.38207,-0.05256 0.76326,0.0129 1.13404,0.20679l0.35862,0.06538l0.12597,-0.27974l0.64997,0.46847c0.27367,0.1848 0.414,0.61876 0.32282,1.08498c-0.11194,0.57239 -0.53045,0.97665 -0.93475,0.90291l-0.47391,-0.08641c-0.06376,1.36125 -0.60234,3.02437 -1.12291,3.64296c-0.68219,0.81064 -1.53553,0.51765 -2.20976,0.4006c-0.50339,-0.08738 -1.8944,-0.25737 -2.00254,-0.93206c-0.10384,-0.64792 0.57468,-1.23181 0.84432,-1.86013c0.59531,-1.3872 1.30844,-2.42544 2.06074,-3.02896c0.26126,-0.76466 0.8692,-0.65381 0.8692,-0.65381c0.12606,0.023 0.25213,0.04597 0.37819,0.06897z" fill="#ffffff" stroke="none" stroke-width="0.5"/><path d="M317.27973,129.16333c0.13087,-0.15402 0.28152,-0.2518 0.45356,-0.2699c1.5331,-0.1613 1.67831,5.43215 0.76505,6.496c-0.93274,1.08653 -3.64727,-0.41654 -3.76002,-1.72234c-0.01156,-0.13378 1.29895,-2.92214 1.43419,-3.65581c0,0 0.20268,-1.0364 0.93475,-0.90291c0.06448,0.01176 0.12171,0.03053 0.17245,0.05497z" fill="#ffffff" stroke="none" stroke-width="0.5"/><path d="M330.54677,133.56381l0.66014,0.53395c0.20534,0.80982 1.14166,3.48167 0.76122,4.30268c-0.60461,1.30477 -4.33298,0.78351 -4.60761,-0.32427c-0.02798,-0.11289 1.62214,-3.91371 1.79929,-4.37441c0,0 0.37418,-0.97311 1.03524,-0.59222c0.19603,0.11295 0.30103,0.27798 0.35174,0.45427z" fill="#ffffff" stroke="none" stroke-width="0.5"/><path d="M342.54583,135.73407c0.08569,-0.07019 0.1895,-0.12613 0.3152,-0.15946c0.75859,-0.20109 0.79781,0.82434 0.79781,0.82434l-0.01244,0.75901c2.29012,3.53016 -2.60339,4.4735 -3.16772,2.62185c-0.28826,-0.94585 0.50915,-3.73906 0.73963,-4.91759c0,0 0.20268,-1.0364 0.93475,-0.90291c0.73207,0.13349 0.52938,1.1699 0.52938,1.1699c-0.03928,0.20088 -0.08569,0.40275 -0.13662,0.60489z" fill="#ffffff" stroke="none" stroke-width="0.5"/><path d="M313.6092,154.62779c-0.67984,0.38497 -0.90548,-0.50493 -0.90548,-0.50493c-0.24107,-0.9559 -1.36543,-5.02395 -0.9629,-5.99054c0.61126,-1.46778 4.17951,-1.79555 4.88959,-0.84201c0.94812,1.27321 -0.40087,4.90388 -1.02214,6.25774l-1.0766,1.07174c0,0 -0.5421,0.52365 -0.92247,0.00801z" fill="#ffffff" stroke="none" stroke-width="0.5"/><path d="M318.99091,154.7549c-0.49669,-0.68598 0.07803,-1.47426 0.07803,-1.47426l0.07949,-0.10901c-0.0762,-0.23217 -0.07192,-0.46504 -0.07192,-0.46504c0.03347,-1.2272 -0.84211,-4.60543 -0.11367,-5.70087c0.86261,-1.29721 4.62397,-1.55601 5.03909,0.34423c0.51112,2.33965 -2.19065,4.90376 -3.24886,6.35524l-0.69072,0.94742c0,0 -0.57473,0.7883 -1.07141,0.10233z" fill="#ffffff" stroke="none" stroke-width="0.5"/><path d="M326.82823,155.15516c-0.12812,0.28647 -0.37705,0.63115 -0.81835,0.55067c-0.73207,-0.13349 -0.52938,-1.1699 -0.52938,-1.1699l0.72823,-1.18503c0.16478,-1.27575 0.15482,-4.53939 0.59325,-5.14582c0.67918,-0.93947 3.99192,-1.47853 4.52752,-0.15959c1.19992,2.95489 -2.56169,6.2078 -4.50124,7.10966z" fill="#ffffff" stroke="none" stroke-width="0.5"/><path d="M336.14278,155.40859c0.00332,0.04603 0.00586,0.08964 0.00748,0.13058c0,0 0.0329,0.86011 -0.54432,1.15936c-0.1433,0.23371 -0.37375,0.44381 -0.72855,0.37912c-0.73207,-0.13349 -0.52938,-1.1699 -0.52938,-1.1699l0.16922,-0.66637c0.01593,-0.03531 0.03273,-0.07395 0.05037,-0.11561c-0.14376,-1.38301 -0.42548,-3.37058 0.06033,-4.42265c0.33941,-0.73497 3.3527,-3.54695 3.90392,-1.99294c0.48266,1.36077 -1.4393,4.84725 -2.38909,6.6984z" fill="#ffffff" stroke="none" stroke-width="0.5"/><path d="M339.85291,156.64c-0.10407,-0.41043 -0.0239,-0.73007 0.099,-0.95967c-0.00225,-0.18611 0.02561,-0.32859 0.02561,-0.32859c0.25151,-1.26176 0.99953,-4.95645 1.85918,-5.78681c0.87987,-0.8499 4.51034,-0.23536 4.48132,1.58559c-0.02303,1.44607 -3.81532,4.86211 -4.63893,5.4046l-0.8672,0.55745c0,0 -0.72155,0.46382 -0.95899,-0.47257z" fill="#ffffff" stroke="none" stroke-width="0.5"/><path d="M349.44879,159.43748c0,0 -0.00291,1.03502 -0.76252,1.17892c-0.7596,0.14392 -0.75668,-0.8911 -0.75668,-0.8911c0.00377,-1.335 -0.53995,-5.87747 0.55771,-7.02214c2.35858,-2.45962 3.35871,1.67549 2.46987,4.08629l-0.06894,0.08076l0.0168,0.01736l-1.00633,1.71581c-0.11529,0.20408 -0.2743,0.35716 -0.44814,0.43131c-0.00076,0.1343 -0.00139,0.26857 -0.00175,0.40281z" fill="#ffffff" stroke="none" stroke-width="0.5"/><path d="M354.26195,161.40969c-0.73207,-0.13349 -0.52938,-1.1699 -0.52938,-1.1699c0.25762,-1.29933 -0.02046,-4.48063 0.36781,-5.39518c0.20705,-0.4877 2.5323,-1.12226 2.74259,-0.66641c0.27584,0.59793 -0.07981,3.09549 -0.21249,4.15753l-0.10313,0.15084l0.04737,0.02728l-0.50643,1.31703c-0.16424,0.44804 -0.52317,0.73942 -0.87157,0.67589c0,0 -0.20268,1.0364 -0.93475,0.90291z" fill="#ffffff" stroke="none" stroke-width="0.5"/><path d="M301.29063,92.06179c0.49507,-1.94099 2.82794,-14.39981 9.4519,-22.27024c5.27569,-6.26845 14.40067,-8.60526 19.33364,-7.78454c5.20373,0.86576 13.97506,4.73051 16.90931,12.93985c3.33979,9.34392 0.46494,23.19355 0.07319,24.72951c-2.32525,9.11654 -9.80361,24.62732 -18.35465,27.12583c-3.42165,0.99976 -6.81236,-7.22009 -10.42428,-7.82101c-12.6385,-2.10271 -20.24476,-14.15496 -16.98908,-26.91938z" fill="url(#color-1)" stroke="#000000" stroke-width="2"/><path d="M357.4866,97.72954c0.78481,-1.86869 4.99916,-13.99284 12.67978,-20.86341c6.11728,-5.47211 15.37268,-6.41622 20.05145,-4.83886c4.93558,1.66394 12.88012,6.87842 14.46015,15.55174c1.79838,9.87203 -3.16075,23.30651 -3.78179,24.78527c-5.16114,12.28907 -19.06266,18.9752 -31.04986,14.93395c-2.40953,-0.81233 -6.03673,4.21585 -7.89029,2.74273c-7.36785,-5.85557 -8.59313,-22.49256 -4.46942,-32.31138z" fill="url(#color-2)" stroke="#000000" stroke-width="2"/><path d="M405.63879,118.01021c-0.097,-0.73052 0.65155,-0.89213 0.65155,-0.89213l0.43973,-0.05116c1.68629,-0.98093 2.87342,-2.4393 3.65736,-4.09444c-0.13195,-0.87646 -0.10162,-1.72654 0.13542,-2.49459c0,0 0.21089,-0.66082 0.85041,-0.58073c0.06858,-0.35901 0.12321,-0.71928 0.16466,-1.07853c0,0 0.08745,-0.7479 0.83717,-0.72751c0.74972,0.02039 0.66228,0.76829 0.66228,0.76829c-0.1687,1.42587 -0.52153,2.83782 -1.08492,4.15452c0.62718,2.83074 3.20556,6.31881 5.24622,6.71263l0.70373,-0.13302c0,0 0.75232,-0.12668 0.8136,0.6107c0.06129,0.73738 -0.69103,0.86405 -0.69103,0.86405l-1.00119,0.15407c-2.37763,-0.58972 -4.94603,-3.3576 -6.09611,-6.28671c-0.87753,1.34184 -2.03562,2.51267 -3.51137,3.39848l-0.93197,0.24499c0,0 -0.74855,0.16161 -0.84555,-0.56891z" fill="#000000" stroke="none" stroke-width="0.5"/><g stroke="#000000" stroke-width="0"><path d="M287.09514,71.11758l0.21713,-63.87407c0,0 50.84445,2.91121 75.43831,5.34206c23.86113,2.35843 69.99316,9.03234 69.99316,9.03234l-18.19996,62.62021z" fill="#000000"/><path d="M288.18805,70.36715l-0.33002,-10.41166l128.30713,16.57868l-2.95284,9.8689z" fill="#ffffff"/><path d="M267.22675,75.42908c0,0 -2.33452,-4.05011 -2.64747,-6.25176c-0.33427,-2.35179 0.70159,-7.43828 0.70159,-7.43828l172.9189,23.0394c0,0 -1.44534,3.89357 -2.64808,5.89181c-1.30647,2.17058 -4.90537,6.6575 -4.90537,6.6575c0,0 -1.71358,-0.22963 -4.78499,-0.6412c-1.45391,-0.19483 -8.42075,27.73127 -10.44544,27.45997c-0.52722,-0.07065 1.57409,-8.09315 2.64337,-15.36203c1.01039,-6.8686 -0.14892,-13.16339 -0.71115,-13.23873c-30.56315,-4.09554 -105.39133,-14.12273 -134.19114,-17.98197c-2.53832,-0.34014 -4.16552,11.05262 -5.76268,10.2384c-4.09899,-2.08964 -3.22204,-11.44237 -4.05766,-11.55436c-3.40268,-0.45597 -6.1099,-0.81874 -6.1099,-0.81874z" fill="#000000"/></g></g></g></g></svg>