<svg version="1.1" xmlns="http://www.w3.org/2000/svg" xmlns:xlink="http://www.w3.org/1999/xlink" width="211.27027" height="214.50831" viewBox="0,0,211.27027,214.50831"><defs><linearGradient x1="235.25955" y1="166.29061" x2="223.86817" y2="203.38367" gradientUnits="userSpaceOnUse" id="color-1"><stop offset="0" stop-color="#ffffff"/><stop offset="1" stop-color="#bababa"/></linearGradient><linearGradient x1="289.56391" y1="168.81075" x2="277.69272" y2="207.46618" gradientUnits="userSpaceOnUse" id="color-2"><stop offset="0" stop-color="#ffffff"/><stop offset="1" stop-color="#bababa"/></linearGradient></defs><g transform="translate(-177.89639,-104.56395)"><g stroke-miterlimit="10"><path d="M303.41667,173c0.75,0 0.75,0.75 0.75,0.75l-0.12596,-0.08269c0.40217,0.60997 0.71461,1.26481 1.00162,1.93311c1.79973,-0.26322 3.42124,-1.26041 5.04403,-2.14413c2.20774,-1.20226 5.02672,-2.45774 6.82347,-4.25911c2.21795,-2.22365 4.09678,-4.75474 6.30984,-6.97751c2.04046,-2.04046 4.52566,-3.24805 6.27251,-5.5979c1.4158,-1.90452 1.89031,-4.50835 3.32846,-6.32702c1.99242,-2.51962 4.1209,-5.77279 6.39903,-8.07508c0.4343,-0.4343 3.49435,-3.99593 3.91027,-3.88489c2.45395,0.65514 0.99541,3.91918 0.58087,5.21031c-1.84602,5.7497 -3.25486,11.60942 -5.22049,17.32505c0,1.45451 -0.65662,2.60889 -0.07953,4.08134c2.02041,5.15504 6.25407,9.20894 11.03144,11.80664c1.97477,1.07378 3.70411,2.2497 5.97444,2.24189c2.31346,0 5.59857,0.59791 7.82769,0.02006c0.82837,-0.21474 3.68435,-1.53901 4.55819,-0.91318c1.43628,1.02863 0.49893,2.6139 0.08365,3.6553c-1.64245,4.11875 -3.86266,7.92957 -5.08636,12.20948c-0.43193,1.25384 -0.32464,2.53316 -0.48023,3.8557c-0.21734,1.84738 -0.88928,5.86781 0.08305,7.55312c0.81555,1.41357 3.05804,1.91171 4.41397,2.49055c3.52863,1.50636 7.53827,1.74076 10.94218,3.61849c1.35267,0.75161 3.1289,2.10276 4.55912,2.54812c1.52048,0.47346 3.18113,-0.09285 4.82277,0.48658l1.34786,0.14585c0.38049,0.03618 0.67812,0.35663 0.67812,0.7466c0,0.35693 -0.24933,0.65562 -0.58332,0.73141l-1.43999,0.36l-0.05383,-0.21532c-3.07619,1.03993 -6.12469,0.72054 -9.52844,1.19645c-1.10778,0.15489 -1.56011,0.72267 -2.41679,1.23211c-3.38089,2.01052 -6.60736,3.54492 -9.8468,5.97093c-2.45027,2.27007 -5.28323,3.97444 -7.97892,5.90187c-1.0665,0.76255 -3.24935,1.57372 -3.98724,2.62974c-1.81182,2.59296 -3.15284,4.53621 -0.46435,7.2063c0.67456,0.66994 1.60532,1.01915 2.39922,1.54218c2.82442,1.91191 7.1621,2.45607 10.33122,3.3831c0.68074,0.19913 3.69511,1.28337 3.56924,2.39456c-0.15314,1.35193 -1.5544,1.76265 -2.54031,2.05342c-3.71582,1.0959 -7.38945,2.15004 -11.19231,2.90618c-1.69139,0.10527 -3.48949,0.1545 -5.14538,0.43543c-0.87819,0.14899 -1.12874,1.254 -2.3475,0.18497c-0.44838,-0.39329 -0.21784,-1.19061 -0.49191,-1.72033c-0.60941,-1.17784 -1.33242,-2.59072 -2.09591,-3.7312c-2.85488,-4.26453 -5.48875,-8.57796 -7.98743,-13.07548c-2.56757,-4.62163 -5.21844,-9.05978 -6.57209,-14.22151c-1.10745,-4.22294 -1.74349,-8.58146 -3.72801,-12.52424c-3.23827,-8.09263 -9.68116,-16.26995 -15.81601,-22.41506c-1.80135,-1.44008 -3.73549,-3.09577 -5.2088,-4.88084c-0.89385,-1.083 -1.39812,-2.34612 -1.91594,-3.59513c-0.0139,0.00019 -0.02782,0.00034 -0.04174,0.00045c0,0 -0.75,0 -0.75,-0.75c0,-0.27091 0.09785,-0.44396 0.22287,-0.5545c-0.22345,-0.47038 -0.47018,-0.9284 -0.76357,-1.3628l-0.12596,-0.74936c0,0 0,-0.75 0.75,-0.75z" fill="#000000" stroke="none" stroke-width="0.5" stroke-linecap="butt"/><g stroke="#000000"><g fill="#000000" stroke-width="0" stroke-linecap="butt"><path d="M286.35186,319.07226c0,0 -56.04684,-75.58442 -61.04509,-94.46024c-2.13859,-8.07637 31.44467,-17.32537 31.44467,-17.32537l35.74946,-30.62255c0,0 55.45836,-2.74144 60.079,6.72194c9.74834,19.96526 0.27192,135.68622 0.27192,135.68622z"/></g><path d="M286.06192,228.92116l19.59295,37.19432l-3.51704,7.48525l-13.10732,-8.22254l-9.58086,-36.27774z" fill="#ffffff" stroke-width="2" stroke-linecap="round"/><path d="M289.73244,224.10277c0.81632,2.03949 2.09801,4.18935 1.04164,5.5543c-1.11748,1.44394 -4.66983,2.04501 -7.31421,2.04501c-2.25931,0 -5.11746,-0.20928 -7.16718,-1.30097c-2.61721,-1.39392 -4.2467,-3.9447 -5.18878,-6.29836c-0.86184,-2.15323 -1.42741,-4.99131 -0.21724,-6.37409c1.14865,-1.31247 3.98482,-1.22522 6.48981,-1.22522c2.95234,0 6.14216,0.07764 8.54847,1.82607c1.78641,1.29799 3.09174,3.98502 3.8075,5.77325z" fill="#ffffff" stroke-width="2" stroke-linecap="butt"/></g><path d="" fill="none" stroke="#000000" stroke-width="2" stroke-linecap="round"/><path d="M217.25549,261.10422c0,-0.41421 0.33579,-0.75 0.75,-0.75c0.41421,0 0.75,0.33579 0.75,0.75c0,0.41421 -0.33579,0.75 -0.75,0.75c-0.41421,0 -0.75,-0.33579 -0.75,-0.75z" fill="#000000" stroke="none" stroke-width="0.5" stroke-linecap="butt"/><g stroke="#000000" stroke-linecap="butt"><path d="M194.19151,177.17241c3.85715,-33.07772 35.55031,-56.56144 70.78865,-52.45235c35.23836,4.1091 60.67787,34.25496 56.82072,67.33268c-3.85715,33.07772 -35.5503,56.56145 -70.78867,52.45236c-35.23834,-4.10909 -60.67786,-34.25496 -56.82071,-67.33268z" fill="#000000" stroke-width="2"/><path d="M207.26571,178.16056c0.4103,-3.51866 14.93328,-13.42869 26.27316,-12.10636c11.33989,1.32232 20.71163,14.63389 20.3721,17.54558c-1.50201,12.88074 -13.16151,22.10502 -26.04223,20.60302c-12.88074,-1.50201 -22.10502,-13.16153 -20.60301,-26.04224z" fill="url(#color-1)" stroke-width="2"/><path d="M217.23421,173.35272c0.86619,-7.42821 7.59014,-12.74781 15.01836,-11.88161c7.4282,0.8662 12.74781,7.59017 11.88161,15.01838c-0.86619,7.42821 -7.59016,12.74781 -15.01838,11.88162c-7.4282,-0.8662 -12.74779,-7.59014 -11.88161,-15.01838z" fill="#000000" stroke-width="5"/><path d="M281.69175,208.28483c-12.88074,-1.50201 -22.10501,-13.16152 -20.603,-26.04223c0.35391,-3.03504 13.84159,-15.51685 25.11251,-14.20256c11.27092,1.31428 21.92942,16.24 21.53275,19.64179c-1.50201,12.88074 -13.16151,22.10503 -26.04224,20.60301z" fill="url(#color-2)" stroke-width="2"/><path d="M298.7631,179.02947c-0.87807,7.53019 -7.69432,12.92276 -15.22448,12.04469c-7.53015,-0.87808 -12.92275,-7.69434 -12.04468,-15.2245c0.87807,-7.53019 7.69433,-12.92275 15.22448,-12.04469c7.53015,0.87808 12.92275,7.69433 12.04466,15.22447z" fill="#000000" stroke-width="5"/><path d="M194.12526,175.62265l-2.22967,-54.38266c0,0 41.4154,-17.02331 68.97598,-15.5904c27.56059,1.43291 61.32176,22.36474 61.32176,22.36474l0.78725,55.71256z" fill="#000000" stroke-width="2"/><path d="M190.17371,175.34406l4.26261,-8.28389l126.91307,10.51891l0.28644,7.81214z" fill="#ffffff" stroke-width="0"/><path d="M182.26004,182.45067c0,0 -2.55071,-3.48778 -3.09202,-5.42282c-0.57822,-2.067 -0.27386,-6.60939 -0.27386,-6.60939l155.63983,13.31712c0,0 -0.80974,3.50375 -1.63282,5.32077c-0.89409,1.97372 -3.53635,6.09043 -3.53635,6.09043z" fill="#000000" stroke-width="2"/></g><path d="M245.61366,243.553c0.53033,0.53033 0,1.06066 0,1.06066l-0.86366,0.553c-4.95611,-0.20378 -9.1436,4.83989 -14.11515,6.02572l0.06644,0.33221l-1.45569,0.29114c-0.05225,0.01153 -0.10655,0.0176 -0.16227,0.0176c-0.41421,0 -0.75,-0.33579 -0.75,-0.75c0,-0.20711 0.08395,-0.39461 0.21967,-0.53033l0.66667,-0.66667c2.33454,-2.29239 5.78141,-2.90602 8.49414,-4.45565c1.78567,-1.02005 2.68655,-2.74676 3.73577,-4.41508c0.71493,-1.13679 1.94002,-2.23053 1.88376,-3.59894c0,0 0,-0.75 0.75,-0.75c0.75,0 0.75,0.75 0.75,0.75c-0.055,2.08049 -1.93006,5.13391 -3.93192,7.26725c1.23039,-0.57342 2.50537,-0.98175 3.84859,-1.01725l-0.197,-0.11366c0,0 0.53033,-0.53033 1.06066,0z" fill="#000000" stroke="none" stroke-width="0.5" stroke-linecap="butt"/></g></g></svg>