<svg version="1.1" xmlns="http://www.w3.org/2000/svg" xmlns:xlink="http://www.w3.org/1999/xlink" width="230.08064" height="285.30994" viewBox="0,0,230.08064,285.30994"><g transform="translate(-196.51506,-38.88751)"><g stroke-miterlimit="10"><path d="" fill="none" stroke="#000000" stroke-width="2" stroke-linecap="round"/><path d="M406.0912,170.92062c-11.32492,24.84892 -51.36861,153.27684 -51.36861,153.27684l-80.08793,-0.55421c0,0 -45.38497,-124.72096 -60.38083,-150.92466c-5.49996,-9.6106 -2.80136,-19.65434 10.69559,-19.5766c40.97342,0.23603 128.23407,0.73871 165.21222,0.95171c3.47584,0.02002 10.79852,0.66395 14.43984,3.99455c3.41308,3.12184 3.32722,8.80062 1.48975,12.83237z" fill="#000000" stroke="#000000" stroke-width="0" stroke-linecap="butt"/><g fill="#ffffff" stroke="#000000" stroke-width="0"><path d="M316.04704,195.2325c0,0 3.82007,45.18636 4.00672,53.69135c0.06673,3.04071 -2.80778,0.94112 -2.80778,0.94112l-3.03117,6.77729l-9.42485,-21.09422l3.33308,-40.11727z" stroke-linecap="round"/><path d="M322.35902,189.90415c0.14235,2.25535 0.79252,4.63274 -1.01522,6.14216c-1.91235,1.59676 -6.37405,2.26144 -9.51393,2.26144c-2.68266,0 -5.99153,-0.23144 -7.9827,-1.43866c-2.54243,-1.54145 -3.44302,-4.36218 -3.60731,-6.96495c-0.1503,-2.38111 0.32889,-5.51959 2.32651,-7.04871c1.89605,-1.45139 5.22828,-1.3549 8.20266,-1.3549c3.50555,0 7.2616,0.08587 9.40989,2.01933c1.59486,1.43538 2.0553,4.40678 2.18012,6.38428z" stroke-linecap="butt"/></g><path d="M213.41367,306.61253l-16.89861,-267.72501h213.18203l16.89861,267.72501z" fill="none" stroke="none" stroke-width="0" stroke-linecap="butt"/><path d="M245.42083,132.82128c-2.10199,-33.30185 24.95392,-60.29833 60.43104,-60.29833c35.47713,0 65.94102,26.99648 68.043,60.29833c2.10199,33.30185 -24.95391,60.29834 -60.43104,60.29834c-35.47712,0 -65.94102,-26.99649 -68.043,-60.29834z" fill="#000000" stroke="#000000" stroke-width="2" stroke-linecap="butt"/><g stroke="#000000" stroke-width="0" stroke-linecap="butt"><path d="M244.93373,135.18419l-18.06552,-62.69671c0,0 50.65316,-4.01247 75.44713,-4.94998c24.0553,-0.90958 71.16771,-0.59381 71.16771,-0.59381l0.08617,63.89589z" fill="#000000"/><path d="M245.78987,134.30028l-3.30278,-10.17038l130.46629,-1.0678l-0.06926,10.08137z" fill="#ffffff"/><path d="M226.69941,142.09832c0,0 -3.44648,-3.65822 -4.38314,-5.776c-1.00053,-2.2622 -1.44109,-7.39253 -1.44109,-7.39253l176.02806,-0.75584c0,0 -0.30203,4.01527 -0.90872,6.13824c-0.65902,2.30607 -2.90143,7.1944 -2.90143,7.1944c0,0 -1.74476,0.0062 -4.87207,0.01733c-1.48036,0.00526 -0.31548,28.34496 -2.37702,28.3523c-0.53682,0.00191 -0.77357,-8.1529 -1.8059,-15.42891c-0.97549,-6.87534 -3.91277,-12.8946 -4.48524,-12.89256c-31.11937,0.11067 -107.30939,0.38161 -136.63332,0.4859c-2.58452,0.00919 -0.91877,11.40654 -2.71675,10.82347c-4.61438,-1.49642 -6.43148,-10.79093 -7.28231,-10.78791c-3.4646,0.01232 -6.22109,0.02212 -6.22109,0.02212z" fill="#000000"/></g><path d="M371.13786,125.34859c-0.22783,-0.72761 0.4883,-0.90951 0.4883,-0.90951l0.42856,-0.0631c1.50242,-1.02641 2.42213,-2.51652 2.90511,-4.19236c-0.28884,-0.87255 -0.4114,-1.72314 -0.31344,-2.49735c0,0 0.0912,-0.66631 0.74222,-0.60364c0.00376,-0.36074 -0.00659,-0.72236 -0.02988,-1.08261c0,0 -0.04733,-0.75 0.70267,-0.75c0.75,0 0.79733,0.75 0.79733,0.75c0.08828,1.42993 -0.00925,2.85095 -0.3335,4.18248c1.133,2.81264 4.3265,6.22932 6.4287,6.56752l0.67665,-0.1521c0,0 0.72615,-0.14709 0.91965,0.58835c0.19351,0.73544 -0.53265,0.88252 -0.53265,0.88252l-0.96898,0.18123c-2.47285,-0.52486 -5.52701,-3.22189 -7.19821,-6.11865c-0.63245,1.3652 -1.57494,2.56708 -2.88485,3.49269l-0.88373,0.27024c0,0 -0.71613,0.1819 -0.94396,-0.54571z" fill="#000000" stroke="none" stroke-width="0.5" stroke-linecap="butt"/><path d="M281.16729,166.39207c0.09799,-0.03887 0.223,-0.06336 0.38243,-0.06336c0.77287,0 0.80919,0.57532 0.80919,0.57532l-0.02693,0.20161c0.30544,0.59783 1.87279,2.4976 1.37197,3.01136c-0.61412,0.62997 -3.51232,-0.1041 -3.93578,-0.65442c-0.37653,-0.48935 0.32109,-1.97446 0.27215,-2.55855c0,0 -0.03632,-0.57532 0.73655,-0.57532c0.15944,0 0.28754,0.02448 0.39043,0.06336z" fill="#ffffff" stroke="none" stroke-width="0.5" stroke-linecap="butt"/><path d="M295.01284,168.9736c0.5563,-0.25522 1.00148,0.16058 1.00148,0.16058l0.90702,0.86502c0.23368,0.57086 0.92523,1.86609 0.2565,2.38001c-0.49399,0.37964 -2.69332,0.2321 -3.25101,-0.26219c-0.55426,-0.49125 -0.28397,-2.18753 -0.32448,-2.82943c0,0 -0.03632,-0.57532 0.73655,-0.57532c0.36282,0 0.56333,0.12679 0.67393,0.26132z" fill="#ffffff" stroke="none" stroke-width="0.5" stroke-linecap="butt"/><path d="M310.77515,168.13696c0.77287,0 0.80919,0.57532 0.80919,0.57532l0.03819,0.69679c0.14948,0.36682 1.5246,2.81343 1.3935,3.02657c-0.4147,0.67413 -3.42349,0.22673 -3.8737,-0.10918c-0.56511,-0.42165 -0.30561,-2.24839 -0.3434,-2.84709c0,0 -0.03632,-0.57532 0.73655,-0.57532c0.23854,0 0.40692,0.05481 0.52571,0.13059l-0.02257,-0.32236c0,0 -0.03632,-0.57532 0.73655,-0.57532z" fill="#ffffff" stroke="none" stroke-width="0.5" stroke-linecap="butt"/><path d="M323.81626,169.09842c0.09549,-0.13124 0.27978,-0.2526 0.63474,-0.2526c0.77287,0 0.80919,0.57532 0.80919,0.57532l-0.03904,0.00984c0.31667,0.61983 2.1887,2.47792 1.93754,2.94643c-0.48305,0.9011 -4.01322,0.03908 -4.43385,-0.33247c-0.62777,-0.55452 0.01916,-1.78945 -0.02877,-2.43203c0,0 -0.03632,-0.57532 0.73655,-0.57532c0.15595,0 0.28192,0.02342 0.38365,0.06082z" fill="#ffffff" stroke="none" stroke-width="0.5" stroke-linecap="butt"/><path d="M334.19303,168.00859c0.07749,-0.01851 0.1679,-0.02923 0.2734,-0.02923c0.54195,0 0.72172,0.2829 0.78078,0.45194c1.12372,0.61246 2.80359,2.07117 1.82412,2.987c-0.16177,0.15127 -3.96351,0.38311 -4.17502,0.24421c-0.77027,-0.50589 -0.26932,-3.20529 -0.24598,-3.91592c0,0 0.01885,-0.57385 0.79233,-0.53286c0.77349,0.04099 0.75465,0.61485 0.75465,0.61485c-0.00197,0.05995 -0.00336,0.11997 -0.00429,0.18001z" fill="#ffffff" stroke="none" stroke-width="0.5" stroke-linecap="butt"/><path d="M340.67958,166.39207c0.00656,-0.00756 0.01338,-0.01515 0.02052,-0.02279c0.43159,-0.4619 1.07376,-0.11892 1.07376,-0.11892l0.79241,0.43592c0.53644,0.59626 2.75596,2.33068 2.24129,3.15985c-0.36281,0.5845 -4.29339,0.97689 -4.89576,0.46265c-0.30662,-0.26177 -0.11036,-2.72891 -0.32891,-3.26521c0,0 -0.22268,-0.55814 0.51831,-0.69767c0.24655,-0.04643 0.43572,-0.01562 0.57839,0.04618z" fill="#ffffff" stroke="none" stroke-width="0.5" stroke-linecap="butt"/><path d="M347.6086,166.00955c0.33012,-0.43115 0.9784,-0.1954 0.9784,-0.1954l0.17788,0.13104c0.89313,0.00739 3.18381,0.20682 3.41796,1.11489c0.16748,0.64952 -2.63243,1.66566 -3.3514,1.56484c-1.3863,-0.19442 -1.76698,-1.24768 -2.46863,-1.97705c0,0 -0.45893,-0.47869 0.164,-0.79781c0.61921,-0.31723 1.07637,0.15389 1.0818,0.15952z" fill="#ffffff" stroke="none" stroke-width="0.5" stroke-linecap="butt"/><path d="M271.30879,163.26038c0.37461,0 0.57617,0.13516 0.68444,0.27446c0.04692,0.02337 0.0945,0.05174 0.14242,0.08582c0.48081,0.34185 0.18981,0.68372 0.08462,0.78416c0.65124,0.87256 1.62474,2.39316 -0.16701,3.00848c-0.55145,0.18938 -4.39718,-0.81399 -4.44411,-1.60319c-0.05004,-0.84146 1.89296,-1.37574 2.96895,-1.91095l-0.00585,-0.06346c0,0 -0.03632,-0.57532 0.73655,-0.57532z" fill="#ffffff" stroke="none" stroke-width="0.5" stroke-linecap="butt"/><path d="M275.75396,166.13696c0.37485,-0.06552 0.77636,-0.06769 1.19723,0h0.3786l0.06241,-0.16225l0.7678,0.18758c0.32038,0.0723 0.56376,0.29118 0.58009,0.54999c0.02006,0.31774 -0.30971,0.57532 -0.73655,0.57532h-0.50031c0.25281,0.73585 0.09494,1.6799 -0.28827,2.06234c-0.50218,0.50117 -1.43511,0.42754 -2.14553,0.4307c-0.53041,0.00236 -1.97943,0.04721 -2.24632,-0.30385c-0.2563,-0.33713 0.29503,-0.71641 0.42172,-1.07953c0.27971,-0.80171 0.76016,-1.4279 1.38165,-1.82491c0.0864,-0.43538 0.72822,-0.43538 0.72822,-0.43538c0.13309,0 0.26619,0 0.39927,0z" fill="#ffffff" stroke="none" stroke-width="0.5" stroke-linecap="butt"/><path d="M288.55883,168.41666c0.09668,-0.09534 0.22652,-0.16247 0.39661,-0.18899c1.51573,-0.2363 2.96715,2.74755 2.28991,3.40703c-0.6917,0.67354 -3.79257,0.13322 -4.2113,-0.55567c-0.04291,-0.07058 0.63472,-1.6932 0.60067,-2.09965c0,0 -0.03632,-0.57532 0.73655,-0.57532c0.06807,0 0.13043,0.00446 0.18755,0.0126z" fill="#ffffff" stroke="none" stroke-width="0.5" stroke-linecap="butt"/><path d="M302.75158,169.70564l0.79336,0.22168c0.3969,0.41399 1.9686,1.75455 1.77458,2.23179c-0.30834,0.75844 -4.2075,0.84344 -4.74409,0.27653c-0.05469,-0.05777 0.73096,-2.25626 0.80303,-2.5205c0,0 0.15222,-0.55814 0.91082,-0.41861c0.22496,0.04138 0.36983,0.11957 0.46232,0.2091z" fill="#ffffff" stroke="none" stroke-width="0.5" stroke-linecap="butt"/><path d="M316.58649,170.95048c0.07046,-0.046 0.16258,-0.08613 0.28219,-0.11628c0.72172,-0.18193 1.00057,0.36386 1.00057,0.36386l0.16438,0.40804c3.14354,1.6683 -1.59464,2.6522 -2.59819,1.71489c-0.51262,-0.4788 -0.35601,-2.05387 -0.3973,-2.70808c0,0 -0.03632,-0.57532 0.73655,-0.57532c0.77287,0 0.80919,0.57532 0.80919,0.57532c0.00704,0.11151 0.00709,0.22424 0.00263,0.33758z" fill="#ffffff" stroke="none" stroke-width="0.5" stroke-linecap="butt"/><path d="M290.28137,184.11038c-0.59904,0.27278 -1.03519,-0.18214 -1.03519,-0.18214c-0.46716,-0.48879 -2.55495,-2.55934 -2.3725,-3.11676c0.27707,-0.84646 3.81602,-1.3709 4.75782,-0.9292c1.25753,0.58976 0.73733,2.66762 0.42355,3.454l-0.84091,0.67967c0,0 -0.42716,0.33366 -0.93277,0.09446z" fill="#ffffff" stroke="none" stroke-width="0.5" stroke-linecap="butt"/><path d="M295.25098,189.47135c-0.66322,-0.31913 -0.2647,-0.79781 -0.2647,-0.79781l0.05511,-0.0662c-0.13134,-0.11699 -0.1813,-0.24222 -0.1813,-0.24222c-0.25226,-0.66105 -1.92714,-2.38616 -1.44452,-3.04451c0.57152,-0.77961 4.3222,-1.28594 5.18591,-0.308c1.06343,1.20408 -1.07612,2.84248 -1.80984,3.72388l-0.47892,0.57532c0,0 -0.39849,0.47869 -1.0617,0.15956z" fill="#ffffff" stroke="none" stroke-width="0.5" stroke-linecap="butt"/><path d="M303.66308,190.19282c-0.06301,0.16607 -0.23486,0.37515 -0.70076,0.37515c-0.77287,0 -0.80919,-0.57532 -0.80919,-0.57532l0.4615,-0.70634c-0.13052,-0.6999 -0.90164,-2.4482 -0.59883,-2.8161c0.46908,-0.56994 3.69989,-1.18264 4.55011,-0.52804c1.9048,1.46652 -1.14798,3.57769 -2.90284,4.25066z" fill="#ffffff" stroke="none" stroke-width="0.5" stroke-linecap="butt"/><path d="M313.12932,189.66615c0.01409,0.02434 0.02684,0.04747 0.03804,0.06926c0,0 0.2339,0.4578 -0.28116,0.67461c-0.09069,0.13928 -0.27519,0.27441 -0.64976,0.27441c-0.77287,0 -0.80919,-0.57532 -0.80919,-0.57532l0.01607,-0.3737c0.0079,-0.02048 0.01592,-0.04283 0.02407,-0.06689c-0.46815,-0.72723 -1.21706,-1.76502 -0.97014,-2.3764c0.17251,-0.4271 2.56989,-2.22883 3.49077,-1.44975c0.80635,0.68219 -0.32801,2.73875 -0.8587,3.82379z" fill="#ffffff" stroke="none" stroke-width="0.5" stroke-linecap="butt"/><path d="M317.46701,189.98646c-0.20115,-0.20981 -0.19446,-0.38897 -0.12347,-0.52405c-0.04569,-0.09953 -0.05068,-0.17863 -0.05068,-0.17863c-0.0394,-0.70088 -0.14302,-2.75429 0.53436,-3.28339c0.6933,-0.54153 4.51502,-0.56697 4.91023,0.41187c0.31386,0.77733 -2.73197,2.97894 -3.43995,3.35022l-0.74866,0.38355c0,0 -0.62292,0.31913 -1.08184,-0.15956z" fill="#ffffff" stroke="none" stroke-width="0.5" stroke-linecap="butt"/><path d="M327.29806,186.52511c0,0 0.23839,0.55504 -0.49768,0.70642c-0.73607,0.15138 -0.97447,-0.40366 -0.97447,-0.40366c-0.30748,-0.71592 -1.9176,-3.0975 -1.07237,-3.81831c1.8162,-1.54885 3.79376,0.56979 3.45534,1.94882l-0.05101,0.05002l0.02108,0.00766l-0.61953,1.01801c-0.06922,0.12066 -0.19465,0.21825 -0.35349,0.27498c0.03054,0.07206 0.06123,0.14409 0.09215,0.21608z" fill="#ffffff" stroke="none" stroke-width="0.5" stroke-linecap="butt"/><path d="M333.05527,183.79294c-0.77287,0 -0.80919,-0.57532 -0.80919,-0.57532c-0.04195,-0.7216 -1.06553,-2.39959 -0.88539,-2.92771c0.09607,-0.28165 2.30405,-0.84902 2.6234,-0.62524c0.41891,0.29353 0.64095,1.66696 0.75417,2.24917l-0.06931,0.09093l0.05435,0.00999l-0.20601,0.75541c-0.06193,0.2562 -0.35767,0.44746 -0.72547,0.44746c0,0 0.03632,0.57532 -0.73655,0.57532z" fill="#ffffff" stroke="none" stroke-width="0.5" stroke-linecap="butt"/></g></g></svg>