<svg version="1.1" xmlns="http://www.w3.org/2000/svg" xmlns:xlink="http://www.w3.org/1999/xlink" width="213.18203" height="280.18475" viewBox="0,0,213.18203,280.18475"><g transform="translate(-214.52362,-38.88752)"><g stroke-miterlimit="10"><g><path d="M291.52221,219.05856l-5.38698,-3.59132l7.7812,-14.36529l52.97199,-2.09494l9.27757,19.15371l-5.0877,2.69349l3.59132,9.87614l-4.78843,-0.89783c0,0 -18.8293,5.6049 -27.52496,5.55938c-10.13651,-0.05307 -29.6369,-5.85866 -29.6369,-5.85866l-6.58409,-3.29205l2.99277,-5.38698z" fill="#251375" stroke="#000000" stroke-width="0" stroke-linecap="round"/><g stroke-linecap="butt"><path d="M286.35186,319.07226l15.14285,-131.8421l37.78325,-0.15789l13.57389,132z" fill="#1c19ee" stroke="#000000" stroke-width="0"/><path d="M292.44624,265.508c2.68827,-23.40563 9.04847,-78.27784 9.04847,-78.27784l37.78325,-0.15789c0,0 5.71636,55.07295 8.12401,78.48629c0.01436,0.13966 -54.97581,0.12422 -54.95573,-0.05056z" fill="#1815bf" stroke="#000000" stroke-width="0"/><path d="M293.56364,256.29001c2.58099,-22.4716 8.53049,-69.05985 8.53049,-69.05985l37.78325,-0.15789c0,0 4.24282,47.05732 6.5846,69.83005c0.00407,0.03958 -52.91685,-0.45117 -52.89834,-0.61231z" fill="#1c0072" stroke="#000000" stroke-width="0"/><path d="M294.20505,245.4867c2.36047,-20.55158 7.28967,-58.25653 7.28967,-58.25653l37.78325,-0.15789c0,0 3.98836,38.78497 6.13101,59.62138c0.01596,0.15516 -51.22768,-1.0002 -51.20393,-1.20695z" fill="#110042" stroke="#000000" stroke-width="0"/><path d="M297.31707,243.63711c0.9665,0 1.75,0.7835 1.75,1.75c0,0.9665 -0.7835,1.75 -1.75,1.75c-0.30408,0 -0.59004,-0.07755 -0.83919,-0.21396c-0.24915,0.13641 -0.53511,0.21396 -0.83919,0.21396c-0.9665,0 -1.75,-0.7835 -1.75,-1.75c0,-0.9665 0.7835,-1.75 1.75,-1.75c0.30408,0 0.59004,0.07755 0.83919,0.21396c0.24915,-0.13641 0.53511,-0.21396 0.83919,-0.21396z" fill="#110042" stroke="none" stroke-width="0.5"/><path d="M304.86977,247.59618c-0.26262,0 -0.50632,-0.08099 -0.70749,-0.21934c-0.00394,0.00003 -0.00787,0.00004 -0.01182,0.00004c-0.66142,0 -1.23714,-0.36694 -1.53469,-0.90836c-0.31293,0.47499 -0.85106,0.78847 -1.46241,0.78847c-0.9665,0 -1.75,-0.7835 -1.75,-1.75c0,-0.9665 0.7835,-1.75 1.75,-1.75c0.66142,0 1.23714,0.36694 1.53469,0.90836c0.31293,-0.47499 0.85106,-0.78847 1.46241,-0.78847c0.47768,0 0.91066,0.19139 1.22644,0.50167c0.21217,-0.09139 0.44602,-0.14201 0.6917,-0.14201c0.9665,0 1.75,0.7835 1.75,1.75c0,0.9665 -0.7835,1.75 -1.75,1.75c-0.29401,0 -0.57108,-0.0725 -0.81432,-0.20061c-0.12114,0.03912 -0.25036,0.06026 -0.38452,0.06026z" fill="#110042" stroke="none" stroke-width="0.5"/><path d="M309.25433,248.26433c0,-0.24704 0.07166,-0.47734 0.19533,-0.67124c-0.62073,-0.2689 -1.05498,-0.88701 -1.05498,-1.60655c0,-0.9665 0.7835,-1.75 1.75,-1.75c0.9665,0 1.75,0.7835 1.75,1.75c0,0.52353 -0.22989,0.99337 -0.59423,1.31407c0.27723,0.22928 0.45388,0.57587 0.45388,0.96373c0,0.69036 -0.55964,1.25 -1.25,1.25c-0.69036,0 -1.25,-0.55964 -1.25,-1.25z" fill="#110042" stroke="none" stroke-width="0.5"/><path d="M312.23096,246.34618c0,-0.9665 0.7835,-1.75 1.75,-1.75c0.9665,0 1.75,0.7835 1.75,1.75c0,0.9665 -0.7835,1.75 -1.75,1.75c-0.9665,0 -1.75,-0.7835 -1.75,-1.75z" fill="#110042" stroke="none" stroke-width="0.5"/><path d="M316.54679,246.70583c0,-0.9665 0.7835,-1.75 1.75,-1.75c0.9665,0 1.75,0.7835 1.75,1.75c0,0.9665 -0.7835,1.75 -1.75,1.75c-0.9665,0 -1.75,-0.7835 -1.75,-1.75z" fill="#110042" stroke="none" stroke-width="0.5"/><path d="M321.00297,247.90467c0,-0.33427 0.13121,-0.6379 0.34494,-0.86219c0.0727,-0.89967 0.82586,-1.60712 1.74425,-1.60712c0.9665,0 1.75,0.7835 1.75,1.75c0,0.9665 -0.7835,1.75 -1.75,1.75c-0.04215,0 -0.08396,-0.00149 -0.12537,-0.00442c-0.20238,0.14103 -0.44844,0.22373 -0.71382,0.22373c-0.69036,0 -1.25,-0.55964 -1.25,-1.25z" fill="#110042" stroke="none" stroke-width="0.5"/><path d="M324.8188,247.66491c0,-0.9665 0.7835,-1.75 1.75,-1.75c0.9665,0 1.75,0.7835 1.75,1.75c0,0.9665 -0.7835,1.75 -1.75,1.75c-0.9665,0 -1.75,-0.7835 -1.75,-1.75z" fill="#110042" stroke="none" stroke-width="0.5"/><path d="M292.68985,257.01587c0,-0.9665 0.7835,-1.75 1.75,-1.75c0.9665,0 1.75,0.7835 1.75,1.75c0,0.9665 -0.7835,1.75 -1.75,1.75c-0.9665,0 -1.75,-0.7835 -1.75,-1.75z" fill="#1c0072" stroke="none" stroke-width="0.5"/><path d="M297.00568,256.65621c0,-0.9665 0.7835,-1.75 1.75,-1.75c0.9665,0 1.75,0.7835 1.75,1.75c0,0.9665 -0.7835,1.75 -1.75,1.75c-0.9665,0 -1.75,-0.7835 -1.75,-1.75z" fill="#1c0072" stroke="none" stroke-width="0.5"/><path d="M302.52035,256.65621c0,-0.9665 0.7835,-1.75 1.75,-1.75c0.9665,0 1.75,0.7835 1.75,1.75c0,0.9665 -0.7835,1.75 -1.75,1.75c-0.9665,0 -1.75,-0.7835 -1.75,-1.75z" fill="#1c0072" stroke="none" stroke-width="0.5"/><path d="M312.90201,256.12552c0.69036,0 1.25,0.55964 1.25,1.25c0,0.69036 -0.55964,1.25 -1.25,1.25c-0.29701,0 -0.56983,-0.10359 -0.78429,-0.27661c-0.30541,0.26003 -0.70131,0.41696 -1.13385,0.41696c-0.9665,0 -1.75,-0.7835 -1.75,-1.75c0,-0.9665 0.7835,-1.75 1.75,-1.75c0.6653,0 1.24389,0.37126 1.5399,0.9179c0.11932,-0.03784 0.2464,-0.05825 0.37825,-0.05825z" fill="#1c0072" stroke="none" stroke-width="0.5"/><path d="M315.96784,259.29366c0,-0.53514 0.33628,-0.99174 0.80906,-1.17001c-0.14641,-0.25582 -0.2301,-0.55215 -0.2301,-0.86802c0,-0.9665 0.7835,-1.75 1.75,-1.75c0.9665,0 1.75,0.7835 1.75,1.75c0,0.92058 -0.71082,1.67514 -1.61355,1.74476c0.02262,0.09406 0.03459,0.19227 0.03459,0.29327c0,0.69036 -0.55964,1.25 -1.25,1.25c-0.69036,0 -1.25,-0.55964 -1.25,-1.25z" fill="#1c0072" stroke="none" stroke-width="0.5"/><path d="M320.98251,257.37552c0,-0.9665 0.7835,-1.75 1.75,-1.75c0.9665,0 1.75,0.7835 1.75,1.75c0,0.9665 -0.7835,1.75 -1.75,1.75c-0.9665,0 -1.75,-0.7835 -1.75,-1.75z" fill="#1c0072" stroke="none" stroke-width="0.5"/><path d="M327.21648,257.61529c0,-0.9665 0.7835,-1.75 1.75,-1.75c0.9665,0 1.75,0.7835 1.75,1.75c0,0.9665 -0.7835,1.75 -1.75,1.75c-0.9665,0 -1.75,-0.7835 -1.75,-1.75z" fill="#1c0072" stroke="none" stroke-width="0.5"/><path d="M333.45045,257.73517c0,-0.9665 0.7835,-1.75 1.75,-1.75c0.9665,0 1.75,0.7835 1.75,1.75c0,0.9665 -0.7835,1.75 -1.75,1.75c-0.9665,0 -1.75,-0.7835 -1.75,-1.75z" fill="#1c0072" stroke="none" stroke-width="0.5"/><path d="M338.91686,259.70448c-0.6377,0 -1.16387,-0.47753 -1.24042,-1.09451c-0.31493,-0.31645 -0.50958,-0.75271 -0.50958,-1.23444c0,-0.9665 0.7835,-1.75 1.75,-1.75c0.9665,0 1.75,0.7835 1.75,1.75c0,0.48173 -0.19464,0.91799 -0.50958,1.23444c-0.07655,0.61698 -0.60272,1.09451 -1.24042,1.09451z" fill="#1c0072" stroke="none" stroke-width="0.5"/><path d="M344.55141,255.38575c0.9665,0 1.75,0.7835 1.75,1.75c0,0.9665 -0.7835,1.75 -1.75,1.75c-0.41782,0 -0.80145,-0.14643 -1.10235,-0.39077c-0.27062,0.17155 -0.59155,0.27088 -0.93568,0.27088c-0.9665,0 -1.75,-0.7835 -1.75,-1.75c0,-0.9665 0.7835,-1.75 1.75,-1.75c0.41782,0 0.80145,0.14643 1.10235,0.39077c0.27062,-0.17155 0.59155,-0.27088 0.93568,-0.27088z" fill="#1c0072" stroke="none" stroke-width="0.5"/><path d="M328.3159,247.06548c0,-0.68593 0.5525,-1.24283 1.23675,-1.24993c0.28494,-0.58022 0.8817,-0.97961 1.57174,-0.97961c0.77321,0 1.4293,0.50145 1.66079,1.19689c0.19278,-0.75696 0.87899,-1.31678 1.69596,-1.31678c0.71758,0 1.33428,0.43189 1.60435,1.04991c0.31969,-0.41951 0.82461,-0.69026 1.39276,-0.69026c0.50831,0 0.96601,0.21672 1.28573,0.56281c0.31152,-0.48288 0.85423,-0.80257 1.47161,-0.80257c0.70841,0 1.31851,0.42093 1.59383,1.02632c0.24592,-0.66898 0.88875,-1.1462 1.64304,-1.1462c0.9665,0 1.75,0.7835 1.75,1.75c0,0.9665 -0.7835,1.75 -1.75,1.75c-0.70841,0 -1.31851,-0.42093 -1.59383,-1.02632c-0.24592,0.66898 -0.88875,1.1462 -1.64304,1.1462c-0.50831,0 -0.96601,-0.21672 -1.28573,-0.56281c-0.31152,0.48288 -0.85423,0.80257 -1.47161,0.80257c-0.71758,0 -1.33428,-0.43189 -1.60435,-1.04991c-0.31969,0.41951 -0.82461,0.69026 -1.39276,0.69026c-0.77321,0 -1.4293,-0.50145 -1.66079,-1.19689c-0.19278,0.75696 -0.87899,1.31678 -1.69596,1.31678c-0.31528,0 -0.61108,-0.08337 -0.86657,-0.22927c-0.19812,0.13193 -0.43604,0.20881 -0.69192,0.20881c-0.69036,0 -1.25,-0.55964 -1.25,-1.25z" fill="#110042" stroke="none" stroke-width="0.5"/><path d="M292.68985,265.76741c0,-0.9665 0.7835,-1.75 1.75,-1.75c0.9665,0 1.75,0.7835 1.75,1.75c0,0.9665 -0.7835,1.75 -1.75,1.75c-0.9665,0 -1.75,-0.7835 -1.75,-1.75z" fill="#1815bf" stroke="none" stroke-width="0.5"/><path d="M302.90047,267.92532c0,-0.17789 0.03716,-0.3471 0.10414,-0.50029c-0.43869,-0.31799 -0.72402,-0.8346 -0.72402,-1.41785c0,-0.9665 0.7835,-1.75 1.75,-1.75c0.9665,0 1.75,0.7835 1.75,1.75c0,0.50479 -0.21372,0.95966 -0.55562,1.27905c0.11147,0.18701 0.1755,0.40557 0.1755,0.63909c0,0.69036 -0.55964,1.25 -1.25,1.25c-0.69036,0 -1.25,-0.55964 -1.25,-1.25z" fill="#1815bf" stroke="none" stroke-width="0.5"/><path d="M308.17537,267.44578c0,-0.03049 0.00109,-0.06073 0.00324,-0.09068c-0.3112,-0.31592 -0.50324,-0.74955 -0.50324,-1.22804c0,-0.87967 0.64905,-1.60774 1.49438,-1.73146c0.321,-0.37806 0.79977,-0.61796 1.33458,-0.61796c0.81991,0 1.50813,0.56386 1.69803,1.32497c0.3179,-0.43956 0.83503,-0.72555 1.41896,-0.72555c0.9665,0 1.75,0.7835 1.75,1.75c0,0.9665 -0.7835,1.75 -1.75,1.75c-0.81991,0 -1.50813,-0.56386 -1.69803,-1.32497c-0.27063,0.37419 -0.68564,0.6371 -1.16334,0.70701c-0.02809,0.03308 -0.05738,0.0651 -0.08782,0.096c0.00215,0.02995 0.00324,0.06019 0.00324,0.09068c0,0.69036 -0.55964,1.25 -1.25,1.25c-0.69036,0 -1.25,-0.55964 -1.25,-1.25z" fill="#1815bf" stroke="none" stroke-width="0.5"/><path d="M321.22227,266.48671c0,-0.9665 0.7835,-1.75 1.75,-1.75c0.9665,0 1.75,0.7835 1.75,1.75c0,0.9665 -0.7835,1.75 -1.75,1.75c-0.9665,0 -1.75,-0.7835 -1.75,-1.75z" fill="#1815bf" stroke="none" stroke-width="0.5"/><path d="M332.32323,268.3566c-0.9665,0 -1.75,-0.7835 -1.75,-1.75c0,-0.9665 0.7835,-1.75 1.75,-1.75c0.25842,0 0.50376,0.05601 0.72453,0.15656c0.21972,-0.71542 0.8857,-1.23552 1.67315,-1.23552c0.9665,0 1.75,0.7835 1.75,1.75c0,0.9665 -0.7835,1.75 -1.75,1.75c-0.25842,0 -0.50376,-0.05601 -0.72453,-0.15656c-0.21972,0.71542 -0.8857,1.23552 -1.67315,1.23552z" fill="#1815bf" stroke="none" stroke-width="0.5"/><path d="M338.12593,266.84636c0,-0.9665 0.7835,-1.75 1.75,-1.75c0.9665,0 1.75,0.7835 1.75,1.75c0,0.9665 -0.7835,1.75 -1.75,1.75c-0.9665,0 -1.75,-0.7835 -1.75,-1.75z" fill="#1815bf" stroke="none" stroke-width="0.5"/><path d="M325.89775,266.24694c0,-0.9665 0.7835,-1.75 1.75,-1.75c0.9665,0 1.75,0.7835 1.75,1.75c0,0.9665 -0.7835,1.75 -1.75,1.75c-0.9665,0 -1.75,-0.7835 -1.75,-1.75z" fill="#1815bf" stroke="none" stroke-width="0.5"/><path d="M296.52615,266.00717c0,-0.9665 0.7835,-1.75 1.75,-1.75c0.9665,0 1.75,0.7835 1.75,1.75c0,0.9665 -0.7835,1.75 -1.75,1.75c-0.9665,0 -1.75,-0.7835 -1.75,-1.75z" fill="#1815bf" stroke="none" stroke-width="0.5"/><path d="M342.82188,266.72648c0,-0.39183 0.18029,-0.74156 0.46244,-0.97075c-0.22764,-0.29538 -0.36302,-0.66552 -0.36302,-1.06728c0,-0.9665 0.7835,-1.75 1.75,-1.75c0.9665,0 1.75,0.7835 1.75,1.75c0,0.75996 -0.48441,1.40677 -1.1613,1.64852c0.04016,0.12258 0.06188,0.25351 0.06188,0.38951c0,0.69036 -0.55964,1.25 -1.25,1.25c-0.69036,0 -1.25,-0.55964 -1.25,-1.25z" fill="#1815bf" stroke="none" stroke-width="0.5"/><path d="M296.42673,250.78189c0,-0.69036 0.55964,-1.25 1.25,-1.25c0.69036,0 1.25,0.55964 1.25,1.25c0,0.69036 -0.55964,1.25 -1.25,1.25c-0.69036,0 -1.25,-0.55964 -1.25,-1.25z" fill="#110042" stroke="none" stroke-width="0.5"/><path d="M311.65201,250.18247c0,-0.69036 0.55964,-1.25 1.25,-1.25c0.69036,0 1.25,0.55964 1.25,1.25c0,0.69036 -0.55964,1.25 -1.25,1.25c-0.69036,0 -1.25,-0.55964 -1.25,-1.25z" fill="#110042" stroke="none" stroke-width="0.5"/><path d="M317.16668,250.42224c0,-0.69036 0.55964,-1.25 1.25,-1.25c0.69036,0 1.25,0.55964 1.25,1.25c0,0.69036 -0.55964,1.25 -1.25,1.25c-0.69036,0 -1.25,-0.55964 -1.25,-1.25z" fill="#110042" stroke="none" stroke-width="0.5"/><path d="M335.26918,250.30236c0,-0.69036 0.55964,-1.25 1.25,-1.25c0.69036,0 1.25,0.55964 1.25,1.25c0,0.69036 -0.55964,1.25 -1.25,1.25c-0.69036,0 -1.25,-0.55964 -1.25,-1.25z" fill="#110042" stroke="none" stroke-width="0.5"/><path d="M298.70452,261.57146c0,-0.69036 0.55964,-1.25 1.25,-1.25c0.69036,0 1.25,0.55964 1.25,1.25c0,0.69036 -0.55964,1.25 -1.25,1.25c-0.69036,0 -1.25,-0.55964 -1.25,-1.25z" fill="#1c0072" stroke="none" stroke-width="0.5"/><path d="M306.01745,257.4954c0,-0.69036 0.55964,-1.25 1.25,-1.25c0.69036,0 1.25,0.55964 1.25,1.25c0,0.69036 -0.55964,1.25 -1.25,1.25c-0.69036,0 -1.25,-0.55964 -1.25,-1.25z" fill="#1c0072" stroke="none" stroke-width="0.5"/><path d="M322.80123,261.69135c0,-0.69036 0.55964,-1.25 1.25,-1.25c0.69036,0 1.25,0.55964 1.25,1.25c0,0.69036 -0.55964,1.25 -1.25,1.25c-0.69036,0 -1.25,-0.55964 -1.25,-1.25z" fill="#1c0072" stroke="none" stroke-width="0.5"/><path d="M327.35683,262.051c0,-0.69036 0.55964,-1.25 1.25,-1.25c0.69036,0 1.25,0.55964 1.25,1.25c0,0.69036 -0.55964,1.25 -1.25,1.25c-0.69036,0 -1.25,-0.55964 -1.25,-1.25z" fill="#1c0072" stroke="none" stroke-width="0.5"/><path d="M330.95335,261.45158c0,-0.69036 0.55964,-1.25 1.25,-1.25c0.69036,0 1.25,0.55964 1.25,1.25c0,0.69036 -0.55964,1.25 -1.25,1.25c-0.69036,0 -1.25,-0.55964 -1.25,-1.25z" fill="#1c0072" stroke="none" stroke-width="0.5"/><path d="M297.02615,270.08323c0,-0.69036 0.55964,-1.25 1.25,-1.25c0.69036,0 1.25,0.55964 1.25,1.25c0,0.69036 -0.55964,1.25 -1.25,1.25c-0.69036,0 -1.25,-0.55964 -1.25,-1.25z" fill="#1815bf" stroke="none" stroke-width="0.5"/><path d="M316.56726,266.72648c0,-0.69036 0.55964,-1.25 1.25,-1.25c0.69036,0 1.25,0.55964 1.25,1.25c0,0.69036 -0.55964,1.25 -1.25,1.25c-0.69036,0 -1.25,-0.55964 -1.25,-1.25z" fill="#1815bf" stroke="none" stroke-width="0.5"/><path d="M319.08482,269.12416c0,-0.69036 0.55964,-1.25 1.25,-1.25c0.69036,0 1.25,0.55964 1.25,1.25c0,0.69036 -0.55964,1.25 -1.25,1.25c-0.69036,0 -1.25,-0.55964 -1.25,-1.25z" fill="#1815bf" stroke="none" stroke-width="0.5"/><path d="M324.23984,269.96335c0,-0.69036 0.55964,-1.25 1.25,-1.25c0.69036,0 1.25,0.55964 1.25,1.25c0,0.69036 -0.55964,1.25 -1.25,1.25c-0.69036,0 -1.25,-0.55964 -1.25,-1.25z" fill="#1815bf" stroke="none" stroke-width="0.5"/><path d="M329.63462,270.323c0,-0.69036 0.55964,-1.25 1.25,-1.25c0.69036,0 1.25,0.55964 1.25,1.25c0,0.69036 -0.55964,1.25 -1.25,1.25c-0.69036,0 -1.25,-0.55964 -1.25,-1.25z" fill="#1815bf" stroke="none" stroke-width="0.5"/><path d="M336.5879,269.36393c0,-0.69036 0.55964,-1.25 1.25,-1.25c0.69036,0 1.25,0.55964 1.25,1.25c0,0.69036 -0.55964,1.25 -1.25,1.25c-0.69036,0 -1.25,-0.55964 -1.25,-1.25z" fill="#1815bf" stroke="none" stroke-width="0.5"/><path d="M299.08464,254.13865c0,-0.41421 0.33579,-0.75 0.75,-0.75c0.41421,0 0.75,0.33579 0.75,0.75c0,0.41421 -0.33579,0.75 -0.75,0.75c-0.41421,0 -0.75,-0.33579 -0.75,-0.75z" fill="#110042" stroke="none" stroke-width="0.5"/><path d="M305.07885,250.66201c0,-0.41421 0.33579,-0.75 0.75,-0.75c0.41421,0 0.75,0.33579 0.75,0.75c0,0.41421 -0.33579,0.75 -0.75,0.75c-0.41421,0 -0.75,-0.33579 -0.75,-0.75z" fill="#110042" stroke="none" stroke-width="0.5"/><path d="M311.67247,253.17957c0,-0.41421 0.33579,-0.75 0.75,-0.75c0.41421,0 0.75,0.33579 0.75,0.75c0,0.41421 -0.33579,0.75 -0.75,0.75c-0.41421,0 -0.75,-0.33579 -0.75,-0.75z" fill="#110042" stroke="none" stroke-width="0.5"/><path d="M320.06436,253.89888c0,-0.41421 0.33579,-0.75 0.75,-0.75c0.41421,0 0.75,0.33579 0.75,0.75c0,0.41421 -0.33579,0.75 -0.75,0.75c-0.41421,0 -0.75,-0.33579 -0.75,-0.75z" fill="#110042" stroke="none" stroke-width="0.5"/><path d="M337.92709,256.05679c0,-0.41421 0.33579,-0.75 0.75,-0.75c0.41421,0 0.75,0.33579 0.75,0.75c0,0.41421 -0.33579,0.75 -0.75,0.75c-0.41421,0 -0.75,-0.33579 -0.75,-0.75z" fill="#110042" stroke="none" stroke-width="0.5"/><path d="M303.76012,262.53054c0,-0.41421 0.33579,-0.75 0.75,-0.75c0.41421,0 0.75,0.33579 0.75,0.75c0,0.41421 -0.33579,0.75 -0.75,0.75c-0.41421,0 -0.75,-0.33579 -0.75,-0.75z" fill="#1c0072" stroke="none" stroke-width="0.5"/><path d="M321.02343,264.20891c0,-0.41421 0.33579,-0.75 0.75,-0.75c0.41421,0 0.75,0.33579 0.75,0.75c0,0.41421 -0.33579,0.75 -0.75,0.75c-0.41421,0 -0.75,-0.33579 -0.75,-0.75z" fill="#1c0072" stroke="none" stroke-width="0.5"/><path d="M323.90065,265.0481c0,-0.41421 0.33579,-0.75 0.75,-0.75c0.41421,0 0.75,0.33579 0.75,0.75c0,0.41421 -0.33579,0.75 -0.75,0.75c-0.41421,0 -0.75,-0.33579 -0.75,-0.75z" fill="#1c0072" stroke="none" stroke-width="0.5"/><path d="M329.65509,264.20891c0,-0.41421 0.33579,-0.75 0.75,-0.75c0.41421,0 0.75,0.33579 0.75,0.75c0,0.41421 -0.33579,0.75 -0.75,0.75c-0.41421,0 -0.75,-0.33579 -0.75,-0.75z" fill="#1c0072" stroke="none" stroke-width="0.5"/><path d="M337.56744,263.24984c0,-0.41421 0.33579,-0.75 0.75,-0.75c0.41421,0 0.75,0.33579 0.75,0.75c0,0.41421 -0.33579,0.75 -0.75,0.75c-0.41421,0 -0.75,-0.33579 -0.75,-0.75z" fill="#1c0072" stroke="none" stroke-width="0.5"/><path d="M342.48269,261.93111c0,-0.41421 0.33579,-0.75 0.75,-0.75c0.41421,0 0.75,0.33579 0.75,0.75c0,0.41421 -0.33579,0.75 -0.75,0.75c-0.41421,0 -0.75,-0.33579 -0.75,-0.75z" fill="#1c0072" stroke="none" stroke-width="0.5"/><path d="M305.55838,270.92242c0,-0.41421 0.33579,-0.75 0.75,-0.75c0.41421,0 0.75,0.33579 0.75,0.75c0,0.41421 -0.33579,0.75 -0.75,0.75c-0.41421,0 -0.75,-0.33579 -0.75,-0.75z" fill="#1815bf" stroke="none" stroke-width="0.5"/><path d="M315.86842,275.71779c0,-0.41421 0.33579,-0.75 0.75,-0.75c0.41421,0 0.75,0.33579 0.75,0.75c0,0.41421 -0.33579,0.75 -0.75,0.75c-0.41421,0 -0.75,-0.33579 -0.75,-0.75z" fill="#1815bf" stroke="none" stroke-width="0.5"/><path d="M323.78077,274.39906c0,-0.41421 0.33579,-0.75 0.75,-0.75c0.41421,0 0.75,0.33579 0.75,0.75c0,0.41421 -0.33579,0.75 -0.75,0.75c-0.41421,0 -0.75,-0.33579 -0.75,-0.75z" fill="#1815bf" stroke="none" stroke-width="0.5"/><path d="M331.21358,273.43999c0,-0.41421 0.33579,-0.75 0.75,-0.75c0.41421,0 0.75,0.33579 0.75,0.75c0,0.41421 -0.33579,0.75 -0.75,0.75c-0.41421,0 -0.75,-0.33579 -0.75,-0.75z" fill="#1815bf" stroke="none" stroke-width="0.5"/><path d="M340.80431,273.32011c0,-0.41421 0.33579,-0.75 0.75,-0.75c0.41421,0 0.75,0.33579 0.75,0.75c0,0.41421 -0.33579,0.75 -0.75,0.75c-0.41421,0 -0.75,-0.33579 -0.75,-0.75z" fill="#1815bf" stroke="none" stroke-width="0.5"/></g><g stroke="#000000" stroke-linecap="round"><path d="M346.32908,201.92287l6.2192,36.16355l-3.22477,-3.68546l-0.69102,13.59012l-4.14614,-2.99444l-2.30341,9.21364l-8.06194,-13.12944l-2.99443,4.60682l-13.59012,-13.12944l0.92136,-26.48922z" fill="#2f1894" stroke-width="0"/><path d="M322.60395,207.45105l-0.92136,23.03411l-11.05637,12.66876l-1.84273,-8.75296l-9.21364,13.12944l-5.0675,-7.14057l-3.22478,3.22477l5.29784,-42.15241l25.7982,4.37648" fill="#2f1894" stroke-width="0"/><path d="M313.15997,226.7997l15.20251,1.38204" fill="none" stroke-width="2"/><path d="M318.89754,233.71042l4.73083,-28.70034" fill="none" stroke-width="1"/><path d="M318.68815,221.96253l8.29228,1.15171" fill="none" stroke-width="2"/><path d="M328.13213,215.51298l-8.9833,-0.23034" fill="none" stroke-width="2"/><path d="M325.59838,211.59719l-4.83716,0.23034" fill="none" stroke-width="2"/></g></g><path d="M214.52362,122.5036v-83.61608h213.18203v267.72501h-213.18203v-169.22364" fill="none" stroke="none" stroke-width="0" stroke-linecap="butt"/><path d="" fill="none" stroke="#000000" stroke-width="2" stroke-linecap="round"/><path d="M375.62626,135.38684c0,-0.69036 0.55964,-1.25 1.25,-1.25c0.69036,0 1.25,0.55964 1.25,1.25c0,0.69036 -0.55964,1.25 -1.25,1.25c-0.69036,0 -1.25,-0.55964 -1.25,-1.25z" fill="#1815bf" stroke="none" stroke-width="0.5" stroke-linecap="butt"/><g><path d="M216.51386,158.77687c-0.32637,-17.74074 12.15848,-37.50449 12.15848,-37.50449c0,0 13.59918,18.32684 20.53907,20.27388c6.12001,1.71703 10.64177,-7.35266 11.96518,-9.91132c10.26377,-19.84378 31.7738,-33.68222 56.85509,-34.07906c35.47269,-0.56125 64.65607,25.97686 65.18291,59.27454c0.52684,33.29768 -27.80236,60.74578 -63.27505,61.30704c-21.54208,0.34084 -40.7647,-9.31248 -52.65834,-24.40457c-2.64026,-3.35028 -11.80692,-12.77461 -19.51267,-12.67482c-8.08157,0.10466 -24.06139,9.29461 -24.06139,9.29461c0,0 -6.93332,-17.44616 -7.19326,-31.57579z" fill="#1c19ee" stroke="#000000" stroke-width="0" stroke-linecap="butt"/><path d="M249.21141,141.54625c1.6403,0.4602 3.16578,0.14553 4.54565,-0.61097c3.76846,-2.06603 6.45082,-7.42746 7.41952,-9.30035c10.26377,-19.84378 31.7738,-33.68222 56.85509,-34.07906c28.8819,-0.45697 53.59447,17.05085 62.06493,41.54502c0.13165,0.38069 -132.04773,2.11921 -130.88519,2.44537z" fill="#1815bf" stroke="#000000" stroke-width="0" stroke-linecap="butt"/><path d="M261.17658,131.63493c10.26377,-19.84378 31.7738,-33.68222 56.85509,-34.07906c25.12665,-0.39756 47.09768,12.80179 57.96371,32.36921c0.04031,0.07259 -115.08113,2.21702 -114.8188,1.70985z" fill="#1c0072" stroke="#000000" stroke-width="0" stroke-linecap="butt"/><path d="M269.00858,120.05593c11.57179,-13.45856 29.17976,-22.1861 49.02309,-22.50007c20.19038,-0.31946 38.34322,8.14037 50.33411,21.62894c0.22261,0.25041 -100.36328,2.39755 -100.08573,1.97606c0.35292,-0.53594 0.72681,-1.10292 0.72853,-1.10493z" fill="#110042" stroke="#000000" stroke-width="0" stroke-linecap="butt"/><path d="M306.02235,208.36178l5.29063,-15.05775" fill="none" stroke="#1714b7" stroke-width="1" stroke-linecap="round"/><path d="M339.65158,208.06007l-6.91956,-15.09493" fill="none" stroke="#1714b7" stroke-width="1" stroke-linecap="round"/><path d="M319.0554,202.16596l0.04373,2.76374" fill="none" stroke="#1714b7" stroke-width="1" stroke-linecap="round"/><path d="M332.45723,204.71835l-2.8257,-3.87158" fill="none" stroke="#1714b7" stroke-width="1" stroke-linecap="round"/><path d="M220.00566,139.7204c3.59396,-10.41782 8.66669,-18.44803 8.66669,-18.44803c0,0 13.59918,18.32684 20.53907,20.27388c0.66846,0.18754 -29.55043,1.05034 -29.81991,1.01602c-0.04007,-0.00509 0.59821,-2.79563 0.61417,-2.84188z" fill="#1815bf" stroke="#000000" stroke-width="0" stroke-linecap="butt"/><path d="M223.96844,130.05595c2.51834,-5.32381 4.7039,-8.78359 4.7039,-8.78359c0,0 2.86784,3.86483 6.64165,8.23342c0.1802,0.2086 -11.4551,0.78174 -11.34554,0.55017z" fill="#1c0072" stroke="#000000" stroke-width="0" stroke-linecap="butt"/><path d="M268.69513,121.86297c-0.01529,-0.96638 0.75572,-1.76218 1.72209,-1.77747c0.96638,-0.01529 1.76218,0.75572 1.77747,1.72209c0.01529,0.96638 -0.75572,1.76218 -1.72209,1.77747c-0.96638,0.01529 -1.76218,-0.75572 -1.77747,-1.72209z" fill="#110042" stroke="none" stroke-width="0.5" stroke-linecap="butt"/><path d="M273.0065,122.16924c-0.01529,-0.96638 0.75572,-1.76218 1.72209,-1.77747c0.96638,-0.01529 1.76218,0.75572 1.77747,1.72209c0.01529,0.96638 -0.75572,1.76218 -1.72209,1.77747c-0.96638,0.01529 -1.76218,-0.75572 -1.77747,-1.72209z" fill="#110042" stroke="none" stroke-width="0.5" stroke-linecap="butt"/><path d="M278.24792,122.08631c-0.01529,-0.96638 0.75572,-1.76218 1.72209,-1.77747c0.96638,-0.01529 1.76218,0.75572 1.77747,1.72209c0.01529,0.96638 -0.75572,1.76218 -1.72209,1.77747c-0.96638,0.01529 -1.76218,-0.75572 -1.77747,-1.72209z" fill="#110042" stroke="none" stroke-width="0.5" stroke-linecap="butt"/><path d="M284.23813,121.99152c-0.01529,-0.96638 0.75572,-1.76218 1.72209,-1.77747c0.96638,-0.01529 1.76218,0.75572 1.77747,1.72209c0.01529,0.96638 -0.75572,1.76218 -1.72209,1.77747c-0.96638,0.01529 -1.76218,-0.75572 -1.77747,-1.72209z" fill="#110042" stroke="none" stroke-width="0.5" stroke-linecap="butt"/><path d="M289.8421,121.15389c-0.01529,-0.96638 0.75572,-1.76218 1.72209,-1.77747c0.96638,-0.01529 1.76218,0.75572 1.77747,1.72209c0.01529,0.96638 -0.75572,1.76218 -1.72209,1.77747c-0.96638,0.01529 -1.76218,-0.75572 -1.77747,-1.72209z" fill="#110042" stroke="none" stroke-width="0.5" stroke-linecap="butt"/><path d="M293.39582,120.91043c-0.01529,-0.96638 0.75572,-1.76218 1.72209,-1.77747c0.96638,-0.01529 1.76218,0.75572 1.77747,1.72209c0.01529,0.96638 -0.75572,1.76218 -1.72209,1.77747c-0.96638,0.01529 -1.76218,-0.75572 -1.77747,-1.72209z" fill="#110042" stroke="none" stroke-width="0.5" stroke-linecap="butt"/><path d="M302.38113,120.76827c-0.01529,-0.96638 0.75572,-1.76218 1.72209,-1.77747c0.96638,-0.01529 1.76218,0.75572 1.77747,1.72209c0.01529,0.96638 -0.75572,1.76218 -1.72209,1.77747c-0.96638,0.01529 -1.76218,-0.75572 -1.77747,-1.72209z" fill="#110042" stroke="none" stroke-width="0.5" stroke-linecap="butt"/><path d="M313.05117,120.59945c-0.01529,-0.96638 0.75572,-1.76218 1.72209,-1.77747c0.96638,-0.01529 1.76218,0.75572 1.77747,1.72209c0.01529,0.96638 -0.75572,1.76218 -1.72209,1.77747c-0.96638,0.01529 -1.76218,-0.75572 -1.77747,-1.72209z" fill="#110042" stroke="none" stroke-width="0.5" stroke-linecap="butt"/><path d="M316.94378,120.53785c-0.01092,-0.69027 0.5398,-1.2587 1.23007,-1.26962c0.10752,-0.0017 0.21207,0.01023 0.31203,0.03418c0.28808,-0.54889 0.85944,-0.92725 1.52289,-0.93775c0.96638,-0.01529 1.76218,0.75572 1.77747,1.72209c0.01529,0.96638 -0.75572,1.76218 -1.72209,1.77747c-0.4125,0.00653 -0.79393,-0.13021 -1.09683,-0.36426c-0.20771,0.16392 -0.46891,0.26345 -0.75391,0.26796c-0.69027,0.01092 -1.2587,-0.5398 -1.26962,-1.23007z" fill="#110042" stroke="none" stroke-width="0.5" stroke-linecap="butt"/><path d="M328.02076,119.98811c-0.01529,-0.96638 0.75572,-1.76218 1.72209,-1.77747c0.96638,-0.01529 1.76218,0.75572 1.77747,1.72209c0.01529,0.96638 -0.75572,1.76218 -1.72209,1.77747c-0.96638,0.01529 -1.76218,-0.75572 -1.77747,-1.72209z" fill="#110042" stroke="none" stroke-width="0.5" stroke-linecap="butt"/><path d="M331.9459,119.55152c-0.01529,-0.96638 0.75572,-1.76218 1.72209,-1.77747c0.96638,-0.01529 1.76218,0.75572 1.77747,1.72209c0.01529,0.96638 -0.75572,1.76218 -1.72209,1.77747c-0.96638,0.01529 -1.76218,-0.75572 -1.77747,-1.72209z" fill="#110042" stroke="none" stroke-width="0.5" stroke-linecap="butt"/><path d="M336.24839,119.2962c-0.01529,-0.96638 0.75572,-1.76218 1.72209,-1.77747c0.96638,-0.01529 1.76218,0.75572 1.77747,1.72209c0.01529,0.96638 -0.75572,1.76218 -1.72209,1.77747c-0.96638,0.01529 -1.76218,-0.75572 -1.77747,-1.72209z" fill="#110042" stroke="none" stroke-width="0.5" stroke-linecap="butt"/><path d="M343.92334,119.17477c-0.01529,-0.96638 0.75572,-1.76218 1.72209,-1.77747c0.96638,-0.01529 1.76218,0.75572 1.77747,1.72209c0.01529,0.96638 -0.75572,1.76218 -1.72209,1.77747c-0.96638,0.01529 -1.76218,-0.75572 -1.77747,-1.72209z" fill="#110042" stroke="none" stroke-width="0.5" stroke-linecap="butt"/><path d="M356.33028,118.16445c0.96638,-0.01529 1.76218,0.75572 1.77747,1.72209c0.01529,0.96638 -0.75572,1.76218 -1.72209,1.77747c-0.52154,0.00825 -0.9934,-0.21251 -1.31969,-0.56941c-0.31484,0.36704 -0.77949,0.60262 -1.30101,0.61087c-0.96638,0.01529 -1.76218,-0.75572 -1.77747,-1.72209c-0.01529,-0.96638 0.75572,-1.76218 1.72209,-1.77747c0.52154,-0.00825 0.9934,0.21251 1.31969,0.56941c0.31484,-0.36704 0.77949,-0.60262 1.30101,-0.61087z" fill="#110042" stroke="none" stroke-width="0.5" stroke-linecap="butt"/><path d="M363.66787,118.9229c0.69027,-0.01092 1.2587,0.5398 1.26962,1.23007c0.01092,0.69027 -0.5398,1.2587 -1.23007,1.26962c-0.44295,0.00701 -0.83573,-0.21726 -1.06321,-0.56127c-0.3123,0.43209 -0.81744,0.71661 -1.39152,0.7257c-0.96638,0.01529 -1.76218,-0.75572 -1.77747,-1.72209c-0.01529,-0.96638 0.75572,-1.76218 1.72209,-1.77747c0.76268,-0.01206 1.41909,0.46561 1.66946,1.14255c0.21467,-0.18709 0.49407,-0.30224 0.80108,-0.30711z" fill="#110042" stroke="none" stroke-width="0.5" stroke-linecap="butt"/><path d="M260.98996,131.90864c-0.01529,-0.96638 0.75572,-1.76218 1.72209,-1.77747c0.96638,-0.01529 1.76218,0.75572 1.77747,1.72209c0.01529,0.96638 -0.75572,1.76218 -1.72209,1.77747c-0.96638,0.01529 -1.76218,-0.75572 -1.77747,-1.72209z" fill="#1c0072" stroke="none" stroke-width="0.5" stroke-linecap="butt"/><path d="M273.59086,132.0254c0.18062,-0.76013 0.858,-1.33097 1.67503,-1.34389c0.96638,-0.01529 1.76218,0.75572 1.77747,1.72209c0.01529,0.96638 -0.75572,1.76218 -1.72209,1.77747c-0.16011,0.00254 -0.31554,-0.01652 -0.46351,-0.05446c-0.21701,0.19685 -0.50374,0.31867 -0.81971,0.32367c-0.4866,0.0077 -0.91266,-0.26371 -1.12553,-0.66636c-0.30384,0.27576 -0.7054,0.44643 -1.14792,0.45343c-0.96638,0.01529 -1.76218,-0.75572 -1.77747,-1.72209c-0.01529,-0.96638 0.75572,-1.76218 1.72209,-1.77747c0.83961,-0.01329 1.55046,0.56697 1.73254,1.35323c0.04795,-0.02496 0.09774,-0.04692 0.14912,-0.06561z" fill="#1c0072" stroke="none" stroke-width="0.5" stroke-linecap="butt"/><path d="M283.87901,133.04441c0.01092,0.69027 -0.5398,1.2587 -1.23007,1.26962c-0.37947,0.00601 -0.72209,-0.15771 -0.95554,-0.42106c-0.0035,0.00007 -0.007,0.00014 -0.01052,0.00019c-0.96638,0.01529 -1.76218,-0.75572 -1.77747,-1.72209c-0.01529,-0.96638 0.75572,-1.76218 1.72209,-1.77747c0.95558,-0.01512 1.74437,0.73859 1.77667,1.68978c0.28409,0.22475 0.46865,0.57057 0.47483,0.96102z" fill="#1c0072" stroke="none" stroke-width="0.5" stroke-linecap="butt"/><path d="M291.45082,131.30751c0.25561,-0.63243 0.87059,-1.0831 1.59551,-1.09457c0.96638,-0.01529 1.76218,0.75572 1.77747,1.72209c0.01529,0.96638 -0.75572,1.76218 -1.72209,1.77747c-0.26877,0.00425 -0.52436,-0.05232 -0.75361,-0.157c-0.20188,0.14839 -0.45018,0.2377 -0.71977,0.24197c-0.50576,0.008 -0.9461,-0.2855 -1.14966,-0.71449c-0.29674,0.51853 -0.85155,0.87174 -1.49225,0.88188c-0.96638,0.01529 -1.76218,-0.75572 -1.77747,-1.72209c-0.01529,-0.96638 0.75572,-1.76218 1.72209,-1.77747c0.81499,-0.0129 1.50865,0.53344 1.71516,1.28457c0.19736,-0.23785 0.4814,-0.40165 0.80462,-0.44235z" fill="#1c0072" stroke="none" stroke-width="0.5" stroke-linecap="butt"/><path d="M302.5381,130.68953c-0.01529,-0.96638 0.75572,-1.76218 1.72209,-1.77747c0.96638,-0.01529 1.76218,0.75572 1.77747,1.72209c0.01529,0.96638 -0.75572,1.76218 -1.72209,1.77747c-0.96638,0.01529 -1.76218,-0.75572 -1.77747,-1.72209z" fill="#1c0072" stroke="none" stroke-width="0.5" stroke-linecap="butt"/><path d="M309.27115,130.20852c-0.01529,-0.96638 0.75572,-1.76218 1.72209,-1.77747c0.96638,-0.01529 1.76218,0.75572 1.77747,1.72209c0.01529,0.96638 -0.75572,1.76218 -1.72209,1.77747c-0.96638,0.01529 -1.76218,-0.75572 -1.77747,-1.72209z" fill="#1c0072" stroke="none" stroke-width="0.5" stroke-linecap="butt"/><path d="M322.37767,130.18839c-0.01529,-0.96638 0.75572,-1.76218 1.72209,-1.77747c0.96638,-0.01529 1.76218,0.75572 1.77747,1.72209c0.01529,0.96638 -0.75572,1.76218 -1.72209,1.77747c-0.96638,0.01529 -1.76218,-0.75572 -1.77747,-1.72209z" fill="#1c0072" stroke="none" stroke-width="0.5" stroke-linecap="butt"/><path d="M325.92849,132.19185c-0.00976,-0.61658 0.42861,-1.13594 1.01428,-1.2476c-0.04099,-0.14403 -0.06403,-0.29573 -0.06652,-0.45258c-0.01529,-0.96638 0.75572,-1.76218 1.72209,-1.77747c0.96638,-0.01529 1.76218,0.75572 1.77747,1.72209c0.01529,0.96638 -0.75572,1.76218 -1.72209,1.77747c-0.07642,0.00121 -0.15177,-0.0025 -0.22575,-0.01083c-0.01602,0.66722 -0.55656,1.20832 -1.22986,1.21897c-0.69027,0.01092 -1.2587,-0.5398 -1.26962,-1.23007z" fill="#1c0072" stroke="none" stroke-width="0.5" stroke-linecap="butt"/><path d="M335.12467,133.54427c-0.01092,-0.69027 0.5398,-1.2587 1.23007,-1.26962c0.00857,-0.00014 0.01715,-0.00018 0.02569,-0.00015c-0.07667,-0.1922 -0.12029,-0.40135 -0.12377,-0.62055c-0.01529,-0.96638 0.75572,-1.76218 1.72209,-1.77747c0.96638,-0.01529 1.76218,0.75572 1.77747,1.72209c0.01529,0.96638 -0.75572,1.76218 -1.72209,1.77747c-0.1461,0.00231 -0.28832,-0.01335 -0.42451,-0.04494c0.0088,0.05668 0.01381,0.11463 0.01474,0.17362c0.01092,0.69027 -0.5398,1.2587 -1.23007,1.26962c-0.69027,0.01092 -1.2587,-0.5398 -1.26962,-1.23007z" fill="#1c0072" stroke="none" stroke-width="0.5" stroke-linecap="butt"/><path d="M343.00458,134.54304c-0.00843,-0.53288 0.31786,-0.99314 0.78467,-1.18036c-0.66916,-0.23726 -1.15313,-0.87066 -1.16503,-1.62223c-0.01529,-0.96638 0.75572,-1.76218 1.72209,-1.77747c0.96638,-0.01529 1.76218,0.75572 1.77747,1.72209c0.01303,0.82326 -0.54459,1.52272 -1.30751,1.72129c0.40185,0.20258 0.68037,0.61594 0.68798,1.09713c0.01092,0.69027 -0.5398,1.2587 -1.23007,1.26962c-0.69027,0.01092 -1.2587,-0.5398 -1.26962,-1.23007z" fill="#1c0072" stroke="none" stroke-width="0.5" stroke-linecap="butt"/><path d="M347.48534,131.28906c-0.01529,-0.96638 0.75572,-1.76218 1.72209,-1.77747c0.96638,-0.01529 1.76218,0.75572 1.77747,1.72209c0.01529,0.96638 -0.75572,1.76218 -1.72209,1.77747c-0.96638,0.01529 -1.76218,-0.75572 -1.77747,-1.72209z" fill="#1c0072" stroke="none" stroke-width="0.5" stroke-linecap="butt"/><path d="M360.04986,128.40383c0.96638,-0.01529 1.76218,0.75572 1.77747,1.72209c0.01529,0.96638 -0.75572,1.76218 -1.72209,1.77747c-0.80201,0.01269 -1.48653,-0.51619 -1.70493,-1.24885c-0.19511,0.73921 -0.86256,1.28948 -1.66457,1.30217c-0.96638,0.01529 -1.76218,-0.75572 -1.77747,-1.72209c-0.01529,-0.96638 0.75572,-1.76218 1.72209,-1.77747c0.80201,-0.01269 1.48653,0.51619 1.70493,1.24885c0.19511,-0.73921 0.86256,-1.28948 1.66457,-1.30217z" fill="#1c0072" stroke="none" stroke-width="0.5" stroke-linecap="butt"/><path d="M368.85982,129.01341c0.96638,-0.01529 1.76218,0.75572 1.77747,1.72209c0.01529,0.96638 -0.75572,1.76218 -1.72209,1.77747c-0.61791,0.00978 -1.16608,-0.30192 -1.48507,-0.78061c-0.30308,0.27239 -0.70213,0.44075 -1.14157,0.44769c-0.96638,0.01529 -1.76218,-0.75572 -1.77747,-1.72209c-0.01529,-0.96638 0.75572,-1.76218 1.72209,-1.77747c0.61791,-0.00978 1.16608,0.30192 1.48507,0.78061c0.30308,-0.27239 0.70213,-0.44075 1.14157,-0.44769z" fill="#1c0072" stroke="none" stroke-width="0.5" stroke-linecap="butt"/><path d="M371.99884,130.33948c-0.01529,-0.96638 0.75572,-1.76218 1.72209,-1.77747c0.96638,-0.01529 1.76218,0.75572 1.77747,1.72209c0.01529,0.96638 -0.75572,1.76218 -1.72209,1.77747c-0.96638,0.01529 -1.76218,-0.75572 -1.77747,-1.72209z" fill="#1c0072" stroke="none" stroke-width="0.5" stroke-linecap="butt"/><path d="M232.78686,128.73225c0.96638,-0.01529 1.76218,0.75572 1.77747,1.72209c0.01529,0.96638 -0.75572,1.76218 -1.72209,1.77747c-0.56505,0.00894 -1.07178,-0.25095 -1.39826,-0.66152c-0.25833,0.6265 -0.8703,1.07189 -1.59092,1.08329c-0.88305,0.01397 -1.62367,-0.6286 -1.75649,-1.47684c-0.2398,0.66435 -0.87082,1.14393 -1.61892,1.15577c-0.96638,0.01529 -1.76218,-0.75572 -1.77747,-1.72209c-0.01529,-0.96638 0.75572,-1.76218 1.72209,-1.77747c0.88305,-0.01397 1.62367,0.6286 1.75649,1.47684c0.2398,-0.66435 0.87082,-1.14393 1.61892,-1.15577c0.56505,-0.00894 1.07178,0.25095 1.39826,0.66152c0.25833,-0.6265 0.8703,-1.07189 1.59092,-1.08329z" fill="#1c0072" stroke="none" stroke-width="0.5" stroke-linecap="butt"/><path d="M255.93166,142.09966c-0.01529,-0.96638 0.75572,-1.76218 1.72209,-1.77747c0.96638,-0.01529 1.76218,0.75572 1.77747,1.72209c0.01529,0.96638 -0.75572,1.76218 -1.72209,1.77747c-0.96638,0.01529 -1.76218,-0.75572 -1.77747,-1.72209z" fill="#1815bf" stroke="none" stroke-width="0.5" stroke-linecap="butt"/><path d="M261.53266,141.07484c-0.01529,-0.96638 0.75572,-1.76218 1.72209,-1.77747c0.96638,-0.01529 1.76218,0.75572 1.77747,1.72209c0.01529,0.96638 -0.75572,1.76218 -1.72209,1.77747c-0.96638,0.01529 -1.76218,-0.75572 -1.77747,-1.72209z" fill="#1815bf" stroke="none" stroke-width="0.5" stroke-linecap="butt"/><path d="M268.83322,140.95934c-0.01529,-0.96638 0.75572,-1.76218 1.72209,-1.77747c0.96638,-0.01529 1.76218,0.75572 1.77747,1.72209c0.01529,0.96638 -0.75572,1.76218 -1.72209,1.77747c-0.96638,0.01529 -1.76218,-0.75572 -1.77747,-1.72209z" fill="#1815bf" stroke="none" stroke-width="0.5" stroke-linecap="butt"/><path d="M278.01165,141.1886c-0.01529,-0.96638 0.75572,-1.76218 1.72209,-1.77747c0.96638,-0.01529 1.76218,0.75572 1.77747,1.72209c0.01529,0.96638 -0.75572,1.76218 -1.72209,1.77747c-0.96638,0.01529 -1.76218,-0.75572 -1.77747,-1.72209z" fill="#1815bf" stroke="none" stroke-width="0.5" stroke-linecap="butt"/><path d="M307.21387,140.72654c-0.01529,-0.96638 0.75572,-1.76218 1.72209,-1.77747c0.96638,-0.01529 1.76218,0.75572 1.77747,1.72209c0.01529,0.96638 -0.75572,1.76218 -1.72209,1.77747c-0.96638,0.01529 -1.76218,-0.75572 -1.77747,-1.72209z" fill="#1815bf" stroke="none" stroke-width="0.5" stroke-linecap="butt"/><path d="M312.04296,142.14807c-0.01058,-0.66881 0.50612,-1.22325 1.16614,-1.26699c-0.00105,-0.02061 -0.00173,-0.04131 -0.00206,-0.06211c-0.01529,-0.96638 0.75572,-1.76218 1.72209,-1.77747c0.96638,-0.01529 1.76218,0.75572 1.77747,1.72209c0.01529,0.96638 -0.75572,1.76218 -1.72209,1.77747c-0.17028,0.0027 -0.33525,-0.01902 -0.4916,-0.06192c-0.14959,0.51226 -0.61877,0.89011 -1.18033,0.89899c-0.69027,0.01092 -1.2587,-0.5398 -1.26962,-1.23007z" fill="#1815bf" stroke="none" stroke-width="0.5" stroke-linecap="butt"/><path d="M318.07407,140.74197c-0.01529,-0.96638 0.75572,-1.76218 1.72209,-1.77747c0.96638,-0.01529 1.76218,0.75572 1.77747,1.72209c0.01529,0.96638 -0.75572,1.76218 -1.72209,1.77747c-0.96638,0.01529 -1.76218,-0.75572 -1.77747,-1.72209z" fill="#1815bf" stroke="none" stroke-width="0.5" stroke-linecap="butt"/><path d="M327.43377,140.59388c-0.01529,-0.96638 0.75572,-1.76218 1.72209,-1.77747c0.96638,-0.01529 1.76218,0.75572 1.77747,1.72209c0.01529,0.96638 -0.75572,1.76218 -1.72209,1.77747c-0.96638,0.01529 -1.76218,-0.75572 -1.77747,-1.72209z" fill="#1815bf" stroke="none" stroke-width="0.5" stroke-linecap="butt"/><path d="M363.94248,140.3907c-0.01529,-0.96638 0.75572,-1.76218 1.72209,-1.77747c0.96638,-0.01529 1.76218,0.75572 1.77747,1.72209c0.01529,0.96638 -0.75572,1.76218 -1.72209,1.77747c-0.96638,0.01529 -1.76218,-0.75572 -1.77747,-1.72209z" fill="#1815bf" stroke="none" stroke-width="0.5" stroke-linecap="butt"/><path d="M368.75677,140.87625c-0.01092,-0.69027 0.5398,-1.2587 1.23007,-1.26962c0.23453,-0.00371 0.45501,0.05742 0.64432,0.16683c0.25989,-0.62302 0.87009,-1.06533 1.58817,-1.07669c0.96638,-0.01529 1.76218,0.75572 1.77747,1.72209c0.01529,0.96638 -0.75572,1.76218 -1.72209,1.77747c-0.51132,0.00809 -0.9749,-0.20395 -1.30036,-0.5486c-0.22497,0.27487 -0.56498,0.45254 -0.94796,0.45859c-0.69027,0.01092 -1.2587,-0.5398 -1.26962,-1.23007z" fill="#1815bf" stroke="none" stroke-width="0.5" stroke-linecap="butt"/><path d="M219.61902,142.86145c-0.01529,-0.96638 0.75572,-1.76218 1.72209,-1.77747c0.96638,-0.01529 1.76218,0.75572 1.77747,1.72209c0.01529,0.96638 -0.75572,1.76218 -1.72209,1.77747c-0.96638,0.01529 -1.76218,-0.75572 -1.77747,-1.72209z" fill="#1815bf" stroke="none" stroke-width="0.5" stroke-linecap="butt"/><path d="M230.46738,142.12809c-0.01529,-0.96638 0.75572,-1.76218 1.72209,-1.77747c0.96638,-0.01529 1.76218,0.75572 1.77747,1.72209c0.01529,0.96638 -0.75572,1.76218 -1.72209,1.77747c-0.96638,0.01529 -1.76218,-0.75572 -1.77747,-1.72209z" fill="#1815bf" stroke="none" stroke-width="0.5" stroke-linecap="butt"/><path d="M235.5305,142.6097c-0.01529,-0.96638 0.75572,-1.76218 1.72209,-1.77747c0.96638,-0.01529 1.76218,0.75572 1.77747,1.72209c0.01529,0.96638 -0.75572,1.76218 -1.72209,1.77747c-0.96638,0.01529 -1.76218,-0.75572 -1.77747,-1.72209z" fill="#1815bf" stroke="none" stroke-width="0.5" stroke-linecap="butt"/><path d="M244.9305,140.898c0.96638,-0.01529 1.76218,0.75572 1.77747,1.72209c0.01529,0.96638 -0.75572,1.76218 -1.72209,1.77747c-0.1285,0.00204 -0.25399,-0.00984 -0.37502,-0.03422c-0.12019,0.0282 -0.24525,0.04403 -0.37375,0.04607c-0.96638,0.01529 -1.76218,-0.75572 -1.77747,-1.72209c-0.01529,-0.96638 0.75572,-1.76218 1.72209,-1.77747c0.1285,-0.00204 0.25399,0.00984 0.37502,0.03422c0.12019,-0.0282 0.24525,-0.04403 0.37375,-0.04607z" fill="#1815bf" stroke="none" stroke-width="0.5" stroke-linecap="butt"/><path d="M273.39575,125.53341c-0.01092,-0.69027 0.5398,-1.2587 1.23007,-1.26962c0.69027,-0.01092 1.2587,0.5398 1.26962,1.23007c0.01092,0.69027 -0.5398,1.2587 -1.23007,1.26962c-0.69027,0.01092 -1.2587,-0.5398 -1.26962,-1.23007z" fill="#110042" stroke="none" stroke-width="0.5" stroke-linecap="butt"/><path d="M298.64026,123.44882c-0.01092,-0.69027 0.5398,-1.2587 1.23007,-1.26962c0.69027,-0.01092 1.2587,0.5398 1.26962,1.23007c0.01092,0.69027 -0.5398,1.2587 -1.23007,1.26962c-0.69027,0.01092 -1.2587,-0.5398 -1.26962,-1.23007z" fill="#110042" stroke="none" stroke-width="0.5" stroke-linecap="butt"/><path d="M307.02844,121.06922c-0.01092,-0.69027 0.5398,-1.2587 1.23007,-1.26962c0.69027,-0.01092 1.2587,0.5398 1.26962,1.23007c0.01092,0.69027 -0.5398,1.2587 -1.23007,1.26962c-0.69027,0.01092 -1.2587,-0.5398 -1.26962,-1.23007z" fill="#110042" stroke="none" stroke-width="0.5" stroke-linecap="butt"/><path d="M325.39416,122.08931c-0.01092,-0.69027 0.5398,-1.2587 1.23007,-1.26962c0.69027,-0.01092 1.2587,0.5398 1.26962,1.23007c0.01092,0.69027 -0.5398,1.2587 -1.23007,1.26962c-0.69027,0.01092 -1.2587,-0.5398 -1.26962,-1.23007z" fill="#110042" stroke="none" stroke-width="0.5" stroke-linecap="butt"/><path d="M337.19922,122.6515c-0.01092,-0.69027 0.5398,-1.2587 1.23007,-1.26962c0.69027,-0.01092 1.2587,0.5398 1.26962,1.23007c0.01092,0.69027 -0.5398,1.2587 -1.23007,1.26962c-0.69027,0.01092 -1.2587,-0.5398 -1.26962,-1.23007z" fill="#110042" stroke="none" stroke-width="0.5" stroke-linecap="butt"/><path d="M345.06727,122.9015c-0.01092,-0.69027 0.5398,-1.2587 1.23007,-1.26962c0.69027,-0.01092 1.2587,0.5398 1.26962,1.23007c0.01092,0.69027 -0.5398,1.2587 -1.23007,1.26962c-0.69027,0.01092 -1.2587,-0.5398 -1.26962,-1.23007z" fill="#110042" stroke="none" stroke-width="0.5" stroke-linecap="butt"/><path d="M353.31565,123.51994c-0.01092,-0.69027 0.5398,-1.2587 1.23007,-1.26962c0.69027,-0.01092 1.2587,0.5398 1.26962,1.23007c0.01092,0.69027 -0.5398,1.2587 -1.23007,1.26962c-0.69027,0.01092 -1.2587,-0.5398 -1.26962,-1.23007z" fill="#110042" stroke="none" stroke-width="0.5" stroke-linecap="butt"/><path d="M265.48858,134.64607c-0.01092,-0.69027 0.5398,-1.2587 1.23007,-1.26962c0.69027,-0.01092 1.2587,0.5398 1.26962,1.23007c0.01092,0.69027 -0.5398,1.2587 -1.23007,1.26962c-0.69027,0.01092 -1.2587,-0.5398 -1.26962,-1.23007z" fill="#1c0072" stroke="none" stroke-width="0.5" stroke-linecap="butt"/><path d="M299.00516,134.67748c-0.01092,-0.69027 0.5398,-1.2587 1.23007,-1.26962c0.69027,-0.01092 1.2587,0.5398 1.26962,1.23007c0.01092,0.69027 -0.5398,1.2587 -1.23007,1.26962c-0.69027,0.01092 -1.2587,-0.5398 -1.26962,-1.23007z" fill="#1c0072" stroke="none" stroke-width="0.5" stroke-linecap="butt"/><path d="M305.76486,135.88122c-0.01092,-0.69027 0.5398,-1.2587 1.23007,-1.26962c0.69027,-0.01092 1.2587,0.5398 1.26962,1.23007c0.01092,0.69027 -0.5398,1.2587 -1.23007,1.26962c-0.69027,0.01092 -1.2587,-0.5398 -1.26962,-1.23007z" fill="#1c0072" stroke="none" stroke-width="0.5" stroke-linecap="butt"/><path d="M312.9973,131.46025c-0.01092,-0.69027 0.5398,-1.2587 1.23007,-1.26962c0.69027,-0.01092 1.2587,0.5398 1.26962,1.23007c0.01092,0.69027 -0.5398,1.2587 -1.23007,1.26962c-0.69027,0.01092 -1.2587,-0.5398 -1.26962,-1.23007z" fill="#1c0072" stroke="none" stroke-width="0.5" stroke-linecap="butt"/><path d="M358.3752,135.61053c-0.01092,-0.69027 0.5398,-1.2587 1.23007,-1.26962c0.69027,-0.01092 1.2587,0.5398 1.26962,1.23007c0.01092,0.69027 -0.5398,1.2587 -1.23007,1.26962c-0.69027,0.01092 -1.2587,-0.5398 -1.26962,-1.23007z" fill="#1c0072" stroke="none" stroke-width="0.5" stroke-linecap="butt"/><path d="M369.78811,135.05548c-0.01092,-0.69027 0.5398,-1.2587 1.23007,-1.26962c0.69027,-0.01092 1.2587,0.5398 1.26962,1.23007c0.01092,0.69027 -0.5398,1.2587 -1.23007,1.26962c-0.69027,0.01092 -1.2587,-0.5398 -1.26962,-1.23007z" fill="#1c0072" stroke="none" stroke-width="0.5" stroke-linecap="butt"/><path d="M225.03695,134.16266c-0.01092,-0.69027 0.5398,-1.2587 1.23007,-1.26962c0.69027,-0.01092 1.2587,0.5398 1.26962,1.23007c0.01092,0.69027 -0.5398,1.2587 -1.23007,1.26962c-0.69027,0.01092 -1.2587,-0.5398 -1.26962,-1.23007z" fill="#1c0072" stroke="none" stroke-width="0.5" stroke-linecap="butt"/><path d="M230.64387,133.51222c-0.01092,-0.69027 0.5398,-1.2587 1.23007,-1.26962c0.69027,-0.01092 1.2587,0.5398 1.26962,1.23007c0.01092,0.69027 -0.5398,1.2587 -1.23007,1.26962c-0.69027,0.01092 -1.2587,-0.5398 -1.26962,-1.23007z" fill="#1c0072" stroke="none" stroke-width="0.5" stroke-linecap="butt"/><path d="M226.65889,142.0011c-0.01092,-0.69027 0.5398,-1.2587 1.23007,-1.26962c0.69027,-0.01092 1.2587,0.5398 1.26962,1.23007c0.01092,0.69027 -0.5398,1.2587 -1.23007,1.26962c-0.69027,0.01092 -1.2587,-0.5398 -1.26962,-1.23007z" fill="#1815bf" stroke="none" stroke-width="0.5" stroke-linecap="butt"/><path d="M228.76837,145.15081c-0.01092,-0.69027 0.5398,-1.2587 1.23007,-1.26962c0.69027,-0.01092 1.2587,0.5398 1.26962,1.23007c0.01092,0.69027 -0.5398,1.2587 -1.23007,1.26962c-0.69027,0.01092 -1.2587,-0.5398 -1.26962,-1.23007z" fill="#1815bf" stroke="none" stroke-width="0.5" stroke-linecap="butt"/><path d="M234.40197,146.18513c-0.01092,-0.69027 0.5398,-1.2587 1.23007,-1.26962c0.69027,-0.01092 1.2587,0.5398 1.26962,1.23007c0.01092,0.69027 -0.5398,1.2587 -1.23007,1.26962c-0.69027,0.01092 -1.2587,-0.5398 -1.26962,-1.23007z" fill="#1815bf" stroke="none" stroke-width="0.5" stroke-linecap="butt"/><path d="M237.02267,146.14366c-0.01092,-0.69027 0.5398,-1.2587 1.23007,-1.26962c0.69027,-0.01092 1.2587,0.5398 1.26962,1.23007c0.01092,0.69027 -0.5398,1.2587 -1.23007,1.26962c-0.69027,0.01092 -1.2587,-0.5398 -1.26962,-1.23007z" fill="#1815bf" stroke="none" stroke-width="0.5" stroke-linecap="butt"/><path d="M250.09071,143.69c-0.01092,-0.69027 0.5398,-1.2587 1.23007,-1.26962c0.69027,-0.01092 1.2587,0.5398 1.26962,1.23007c0.01092,0.69027 -0.5398,1.2587 -1.23007,1.26962c-0.69027,0.01092 -1.2587,-0.5398 -1.26962,-1.23007z" fill="#1815bf" stroke="none" stroke-width="0.5" stroke-linecap="butt"/><path d="M266.35583,142.12198c-0.01092,-0.69027 0.5398,-1.2587 1.23007,-1.26962c0.69027,-0.01092 1.2587,0.5398 1.26962,1.23007c0.01092,0.69027 -0.5398,1.2587 -1.23007,1.26962c-0.69027,0.01092 -1.2587,-0.5398 -1.26962,-1.23007z" fill="#1815bf" stroke="none" stroke-width="0.5" stroke-linecap="butt"/><path d="M317.87855,144.11539c-0.01092,-0.69027 0.5398,-1.2587 1.23007,-1.26962c0.69027,-0.01092 1.2587,0.5398 1.26962,1.23007c0.01092,0.69027 -0.5398,1.2587 -1.23007,1.26962c-0.69027,0.01092 -1.2587,-0.5398 -1.26962,-1.23007z" fill="#1815bf" stroke="none" stroke-width="0.5" stroke-linecap="butt"/><path d="M321.43523,144.05911c-0.01092,-0.69027 0.5398,-1.2587 1.23007,-1.26962c0.69027,-0.01092 1.2587,0.5398 1.26962,1.23007c0.01092,0.69027 -0.5398,1.2587 -1.23007,1.26962c-0.69027,0.01092 -1.2587,-0.5398 -1.26962,-1.23007z" fill="#1815bf" stroke="none" stroke-width="0.5" stroke-linecap="butt"/><path d="M270.74597,127.63498c-0.00655,-0.41416 0.32388,-0.75522 0.73804,-0.76177c0.41416,-0.00655 0.75522,0.32388 0.76177,0.73804c0.00655,0.41416 -0.32388,0.75522 -0.73804,0.76177c-0.41416,0.00655 -0.75522,-0.32388 -0.76177,-0.73804z" fill="#110042" stroke="none" stroke-width="0.5" stroke-linecap="butt"/><path d="M274.13324,128.70483c-0.00655,-0.41416 0.32388,-0.75522 0.73804,-0.76177c0.41416,-0.00655 0.75522,0.32388 0.76177,0.73804c0.00655,0.41416 -0.32388,0.75522 -0.73804,0.76177c-0.41416,0.00655 -0.75522,-0.32388 -0.76177,-0.73804z" fill="#110042" stroke="none" stroke-width="0.5" stroke-linecap="butt"/><path d="M289.24261,125.09544c-0.00655,-0.41416 0.32388,-0.75522 0.73804,-0.76177c0.41416,-0.00655 0.75522,0.32388 0.76177,0.73804c0.00655,0.41416 -0.32388,0.75522 -0.73804,0.76177c-0.41416,0.00655 -0.75522,-0.32388 -0.76177,-0.73804z" fill="#110042" stroke="none" stroke-width="0.5" stroke-linecap="butt"/><path d="M303.67135,125.80334c-0.00655,-0.41416 0.32388,-0.75522 0.73804,-0.76177c0.41416,-0.00655 0.75522,0.32388 0.76177,0.73804c0.00655,0.41416 -0.32388,0.75522 -0.73804,0.76177c-0.41416,0.00655 -0.75522,-0.32388 -0.76177,-0.73804z" fill="#110042" stroke="none" stroke-width="0.5" stroke-linecap="butt"/><path d="M310.05074,126.63862c-0.00655,-0.41416 0.32388,-0.75522 0.73804,-0.76177c0.41416,-0.00655 0.75522,0.32388 0.76177,0.73804c0.00655,0.41416 -0.32388,0.75522 -0.73804,0.76177c-0.41416,0.00655 -0.75522,-0.32388 -0.76177,-0.73804z" fill="#110042" stroke="none" stroke-width="0.5" stroke-linecap="butt"/><path d="M319.22621,126.68069c-0.00655,-0.41416 0.32388,-0.75522 0.73804,-0.76177c0.41416,-0.00655 0.75522,0.32388 0.76177,0.73804c0.00655,0.41416 -0.32388,0.75522 -0.73804,0.76177c-0.41416,0.00655 -0.75522,-0.32388 -0.76177,-0.73804z" fill="#110042" stroke="none" stroke-width="0.5" stroke-linecap="butt"/><path d="M329.33467,126.52075c-0.00655,-0.41416 0.32388,-0.75522 0.73804,-0.76177c0.41416,-0.00655 0.75522,0.32388 0.76177,0.73804c0.00655,0.41416 -0.32388,0.75522 -0.73804,0.76177c-0.41416,0.00655 -0.75522,-0.32388 -0.76177,-0.73804z" fill="#110042" stroke="none" stroke-width="0.5" stroke-linecap="butt"/><path d="M339.82048,126.54207c-0.00655,-0.41416 0.32388,-0.75522 0.73804,-0.76177c0.41416,-0.00655 0.75522,0.32388 0.76177,0.73804c0.00655,0.41416 -0.32388,0.75522 -0.73804,0.76177c-0.41416,0.00655 -0.75522,-0.32388 -0.76177,-0.73804z" fill="#110042" stroke="none" stroke-width="0.5" stroke-linecap="butt"/><path d="M348.08367,128.09651c-0.00655,-0.41416 0.32388,-0.75522 0.73804,-0.76177c0.41416,-0.00655 0.75522,0.32388 0.76177,0.73804c0.00655,0.41416 -0.32388,0.75522 -0.73804,0.76177c-0.41416,0.00655 -0.75522,-0.32388 -0.76177,-0.73804z" fill="#110042" stroke="none" stroke-width="0.5" stroke-linecap="butt"/><path d="M359.87391,127.72272c-0.00655,-0.41416 0.32388,-0.75522 0.73804,-0.76177c0.41416,-0.00655 0.75522,0.32388 0.76177,0.73804c0.00655,0.41416 -0.32388,0.75522 -0.73804,0.76177c-0.41416,0.00655 -0.75522,-0.32388 -0.76177,-0.73804z" fill="#110042" stroke="none" stroke-width="0.5" stroke-linecap="butt"/><path d="M223.54292,138.30559c-0.00655,-0.41416 0.32388,-0.75522 0.73804,-0.76177c0.41416,-0.00655 0.75522,0.32388 0.76177,0.73804c0.00655,0.41416 -0.32388,0.75522 -0.73804,0.76177c-0.41416,0.00655 -0.75522,-0.32388 -0.76177,-0.73804z" fill="#1c0072" stroke="none" stroke-width="0.5" stroke-linecap="butt"/><path d="M229.9312,139.70244c-0.00655,-0.41416 0.32388,-0.75522 0.73804,-0.76177c0.41416,-0.00655 0.75522,0.32388 0.76177,0.73804c0.00655,0.41416 -0.32388,0.75522 -0.73804,0.76177c-0.41416,0.00655 -0.75522,-0.32388 -0.76177,-0.73804z" fill="#1c0072" stroke="none" stroke-width="0.5" stroke-linecap="butt"/><path d="M234.56661,136.82048c-0.00655,-0.41416 0.32388,-0.75522 0.73804,-0.76177c0.41416,-0.00655 0.75522,0.32388 0.76177,0.73804c0.00655,0.41416 -0.32388,0.75522 -0.73804,0.76177c-0.41416,0.00655 -0.75522,-0.32388 -0.76177,-0.73804z" fill="#1c0072" stroke="none" stroke-width="0.5" stroke-linecap="butt"/><path d="M259.67428,137.92115c-0.00655,-0.41416 0.32388,-0.75522 0.73804,-0.76177c0.41416,-0.00655 0.75522,0.32388 0.76177,0.73804c0.00655,0.41416 -0.32388,0.75522 -0.73804,0.76177c-0.41416,0.00655 -0.75522,-0.32388 -0.76177,-0.73804z" fill="#1c0072" stroke="none" stroke-width="0.5" stroke-linecap="butt"/><path d="M264.36597,138.59588c-0.00655,-0.41416 0.32388,-0.75522 0.73804,-0.76177c0.41416,-0.00655 0.75522,0.32388 0.76177,0.73804c0.00655,0.41416 -0.32388,0.75522 -0.73804,0.76177c-0.41416,0.00655 -0.75522,-0.32388 -0.76177,-0.73804z" fill="#1c0072" stroke="none" stroke-width="0.5" stroke-linecap="butt"/><path d="M274.47147,138.24875c-0.00655,-0.41416 0.32388,-0.75522 0.73804,-0.76177c0.41416,-0.00655 0.75522,0.32388 0.76177,0.73804c0.00655,0.41416 -0.32388,0.75522 -0.73804,0.76177c-0.41416,0.00655 -0.75522,-0.32388 -0.76177,-0.73804z" fill="#1c0072" stroke="none" stroke-width="0.5" stroke-linecap="butt"/><path d="M282.31289,136.81399c-0.00655,-0.41416 0.32388,-0.75522 0.73804,-0.76177c0.41416,-0.00655 0.75522,0.32388 0.76177,0.73804c0.00655,0.41416 -0.32388,0.75522 -0.73804,0.76177c-0.41416,0.00655 -0.75522,-0.32388 -0.76177,-0.73804z" fill="#1c0072" stroke="none" stroke-width="0.5" stroke-linecap="butt"/><path d="M298.43525,138.05683c-0.00655,-0.41416 0.32388,-0.75522 0.73804,-0.76177c0.41416,-0.00655 0.75522,0.32388 0.76177,0.73804c0.00655,0.41416 -0.32388,0.75522 -0.73804,0.76177c-0.41416,0.00655 -0.75522,-0.32388 -0.76177,-0.73804z" fill="#1c0072" stroke="none" stroke-width="0.5" stroke-linecap="butt"/><path d="M300.50623,138.77303c-0.00655,-0.41416 0.32388,-0.75522 0.73804,-0.76177c0.41416,-0.00655 0.75522,0.32388 0.76177,0.73804c0.00655,0.41416 -0.32388,0.75522 -0.73804,0.76177c-0.41416,0.00655 -0.75522,-0.32388 -0.76177,-0.73804z" fill="#1c0072" stroke="none" stroke-width="0.5" stroke-linecap="butt"/><path d="M328.17833,136.27556c-0.00655,-0.41416 0.32388,-0.75522 0.73804,-0.76177c0.41416,-0.00655 0.75522,0.32388 0.76177,0.73804c0.00655,0.41416 -0.32388,0.75522 -0.73804,0.76177c-0.41416,0.00655 -0.75522,-0.32388 -0.76177,-0.73804z" fill="#1c0072" stroke="none" stroke-width="0.5" stroke-linecap="butt"/><path d="M336.05823,137.27431c-0.00655,-0.41416 0.32388,-0.75522 0.73804,-0.76177c0.41416,-0.00655 0.75522,0.32388 0.76177,0.73804c0.00655,0.41416 -0.32388,0.75522 -0.73804,0.76177c-0.41416,0.00655 -0.75522,-0.32388 -0.76177,-0.73804z" fill="#1c0072" stroke="none" stroke-width="0.5" stroke-linecap="butt"/><path d="M355.52047,136.59191c-0.00655,-0.41416 0.32388,-0.75522 0.73804,-0.76177c0.41416,-0.00655 0.75522,0.32388 0.76177,0.73804c0.00655,0.41416 -0.32388,0.75522 -0.73804,0.76177c-0.41416,0.00655 -0.75522,-0.32388 -0.76177,-0.73804z" fill="#1c0072" stroke="none" stroke-width="0.5" stroke-linecap="butt"/><path d="M365.8487,138.48814c-0.00655,-0.41416 0.32388,-0.75522 0.73804,-0.76177c0.41416,-0.00655 0.75522,0.32388 0.76177,0.73804c0.00655,0.41416 -0.32388,0.75522 -0.73804,0.76177c-0.41416,0.00655 -0.75522,-0.32388 -0.76177,-0.73804z" fill="#1c0072" stroke="none" stroke-width="0.5" stroke-linecap="butt"/><path d="M317.26778,133.07784c-0.00655,-0.41416 0.32388,-0.75522 0.73804,-0.76177c0.41416,-0.00655 0.75522,0.32388 0.76177,0.73804c0.00655,0.41416 -0.32388,0.75522 -0.73804,0.76177c-0.41416,0.00655 -0.75522,-0.32388 -0.76177,-0.73804z" fill="#1c0072" stroke="none" stroke-width="0.5" stroke-linecap="butt"/><path d="M222.20234,148.25055c-0.00655,-0.41416 0.32388,-0.75522 0.73804,-0.76177c0.41416,-0.00655 0.75522,0.32388 0.76177,0.73804c0.00655,0.41416 -0.32388,0.75522 -0.73804,0.76177c-0.41416,0.00655 -0.75522,-0.32388 -0.76177,-0.73804z" fill="#1815bf" stroke="none" stroke-width="0.5" stroke-linecap="butt"/><path d="M231.59757,150.34879c-0.00655,-0.41416 0.32388,-0.75522 0.73804,-0.76177c0.41416,-0.00655 0.75522,0.32388 0.76177,0.73804c0.00655,0.41416 -0.32388,0.75522 -0.73804,0.76177c-0.41416,0.00655 -0.75522,-0.32388 -0.76177,-0.73804z" fill="#1815bf" stroke="none" stroke-width="0.5" stroke-linecap="butt"/><path d="M240.56215,148.89626c-0.00655,-0.41416 0.32388,-0.75522 0.73804,-0.76177c0.41416,-0.00655 0.75522,0.32388 0.76177,0.73804c0.00655,0.41416 -0.32388,0.75522 -0.73804,0.76177c-0.41416,0.00655 -0.75522,-0.32388 -0.76177,-0.73804z" fill="#1815bf" stroke="none" stroke-width="0.5" stroke-linecap="butt"/><path d="M245.59268,147.31875c-0.00655,-0.41416 0.32388,-0.75522 0.73804,-0.76177c0.41416,-0.00655 0.75522,0.32388 0.76177,0.73804c0.00655,0.41416 -0.32388,0.75522 -0.73804,0.76177c-0.41416,0.00655 -0.75522,-0.32388 -0.76177,-0.73804z" fill="#1815bf" stroke="none" stroke-width="0.5" stroke-linecap="butt"/><path d="M261.12384,146.69853c-0.00655,-0.41416 0.32388,-0.75522 0.73804,-0.76177c0.41416,-0.00655 0.75522,0.32388 0.76177,0.73804c0.00655,0.41416 -0.32388,0.75522 -0.73804,0.76177c-0.41416,0.00655 -0.75522,-0.32388 -0.76177,-0.73804z" fill="#1815bf" stroke="none" stroke-width="0.5" stroke-linecap="butt"/><path d="M314.1145,146.79631c-0.00655,-0.41416 0.32388,-0.75522 0.73804,-0.76177c0.41416,-0.00655 0.75522,0.32388 0.76177,0.73804c0.00655,0.41416 -0.32388,0.75522 -0.73804,0.76177c-0.41416,0.00655 -0.75522,-0.32388 -0.76177,-0.73804z" fill="#1815bf" stroke="none" stroke-width="0.5" stroke-linecap="butt"/><path d="M318.64565,149.15874c-0.00655,-0.41416 0.32388,-0.75522 0.73804,-0.76177c0.41416,-0.00655 0.75522,0.32388 0.76177,0.73804c0.00655,0.41416 -0.32388,0.75522 -0.73804,0.76177c-0.41416,0.00655 -0.75522,-0.32388 -0.76177,-0.73804z" fill="#1815bf" stroke="none" stroke-width="0.5" stroke-linecap="butt"/><path d="M369.88048,144.79052c-0.00655,-0.41416 0.32388,-0.75522 0.73804,-0.76177c0.41416,-0.00655 0.75522,0.32388 0.76177,0.73804c0.00655,0.41416 -0.32388,0.75522 -0.73804,0.76177c-0.41416,0.00655 -0.75522,-0.32388 -0.76177,-0.73804z" fill="#1815bf" stroke="none" stroke-width="0.5" stroke-linecap="butt"/><path d="M268.38638,158.92289c-0.04899,-3.09632 0.50363,-6.06213 1.54989,-8.78599c3.33513,-8.68277 37.37521,-10.91318 41.63202,-4.36173c2.3232,3.57551 3.70109,7.82676 3.77352,12.40479c0.09203,5.81674 -1.93907,11.17288 -5.37754,15.32961c-4.2264,5.10926 -30.99853,5.69574 -35.37435,0.94642c-3.77027,-4.09209 -6.10858,-9.53182 -6.20353,-15.53309z" fill="#ffffff" stroke="#000000" stroke-width="0" stroke-linecap="butt"/><path d="M272.74015,161.14112c-0.13131,-8.29861 6.4896,-15.1324 14.7882,-15.2637c8.29861,-0.13131 15.1324,6.48961 15.2637,14.78822c0.13131,8.29861 -6.48961,15.13241 -14.78821,15.26371c-8.29861,0.13131 -15.13239,-6.48961 -15.26369,-14.78823z" fill="#000000" stroke="#000000" stroke-width="0" stroke-linecap="butt"/><path d="M329.75613,174.53655c-4.30362,-4.17995 -7.01565,-9.99939 -7.11806,-16.47201c-0.07853,-4.96329 1.38877,-9.59123 3.9572,-13.42483c4.14148,-6.18153 34.23359,-6.68552 38.57286,-0.67419c2.71569,3.76213 4.34641,8.3649 4.42538,13.35609c0.0971,6.13698 -2.16917,11.76127 -5.95816,16.00516c-4.2165,4.72272 -29.56154,5.40337 -33.87921,1.20979z" fill="#ffffff" stroke="#000000" stroke-width="0" stroke-linecap="butt"/><path d="M356.08569,159.60917c0.13131,8.29863 -6.4896,15.13241 -14.7882,15.26371c-8.29861,0.13131 -15.1324,-6.48963 -15.2637,-14.78822c-0.13131,-8.29863 6.48962,-15.13241 14.78821,-15.26371c8.29861,-0.13131 15.13239,6.48962 15.26369,14.78822z" fill="#1b1b1b" stroke="#000000" stroke-width="0" stroke-linecap="butt"/></g></g></g></svg>