<svg version="1.1" xmlns="http://www.w3.org/2000/svg" xmlns:xlink="http://www.w3.org/1999/xlink" width="232.97713" height="315.00478" viewBox="0,0,232.97713,315.00478"><defs><linearGradient x1="341.33047" y1="82.66193" x2="326.28481" y2="119.39243" gradientUnits="userSpaceOnUse" id="color-1"><stop offset="0" stop-color="#4a4a4a"/><stop offset="1" stop-color="#000000"/></linearGradient><linearGradient x1="398.7591" y1="91.748" x2="378.3694" y2="126.13035" gradientUnits="userSpaceOnUse" id="color-2"><stop offset="0" stop-color="#4a4a4a"/><stop offset="1" stop-color="#000000"/></linearGradient></defs><g transform="translate(-215.7935,-9.19265)"><g stroke-miterlimit="10"><path d="" fill="none" stroke="#000000" stroke-width="2" stroke-linecap="round"/><path d="M433.49425,157.47966l-81.70548,166.71777l-71.57101,-0.60281l-18.8883,-164.15935l14.1372,-21.29328l147.6874,1.03517l11.9967,4.34484l-1.65649,13.95764z" fill="#000000" stroke="#000000" stroke-width="0" stroke-linecap="butt"/><g fill="#ffffff" stroke="#000000" stroke-width="0"><path d="M351.65148,181.19463l-11.06628,59.40753l-2.16363,1.04131l-3.81745,7.49883l-1.02515,-23.33998l12.59848,-44.3883z" stroke-linecap="round"/><path d="M357.34162,175.29903l-2.27446,6.79608l-7.09274,2.50221l-5.09321,-1.59183l-0.67751,-7.70647l3.40499,-7.79914l5.96219,-1.49915l5.9206,2.23432l-0.14988,7.06398z" stroke-linecap="butt"/></g><path d="M215.7935,306.27924l18.97392,-267.72501h213.18203l-18.97392,267.72501z" fill="none" stroke="none" stroke-width="0" stroke-linecap="butt"/><path d="M294.12704,96.66261l74.59322,-52.36158l52.03791,67.32491l-74.59322,52.36159l-52.03792,-67.32492z" fill="#000000" stroke="#000000" stroke-width="2" stroke-linecap="butt"/><path d="M322.96488,129.48813l0.38636,-0.05473l0.57299,1.15965l-0.09517,0.35835l0.26977,5.62687l-3.52598,-1.78569l1.14129,-4.55828l0.90037,-0.92047l0.35033,0.17432z" fill="#ffffff" stroke="none" stroke-width="0.5" stroke-linecap="butt"/><path d="M335.89721,131.73062l0.89925,0.44369l0.5664,1.6957l-0.57586,4.31907l-3.00845,-0.97448l0.66597,-5.13766l0.90037,-0.92047l0.55232,0.57416z" fill="#ffffff" stroke="none" stroke-width="0.5" stroke-linecap="butt"/><path d="M350.77306,132.0883l0.57299,1.15965l-0.20377,1.25878l0.28507,5.65755l-3.65474,-0.7957l0.65402,-5.17235l0.90037,-0.92047l0.4561,0.31615l0.0896,-0.58311l0.90037,-0.92047z" fill="#ffffff" stroke="none" stroke-width="0.5" stroke-linecap="butt"/><path d="M362.16541,135.17162l0.69209,-0.35596l0.57299,1.15965l-0.04061,0.01165l0.83126,5.59762l-4.11172,-1.28387l0.81087,-4.37737l0.90037,-0.92047l0.34472,0.16874z" fill="#ffffff" stroke="none" stroke-width="0.5" stroke-linecap="butt"/><path d="M373.37052,136.19845l0.2707,-0.01024l0.58847,0.93342l0.70918,5.65305l-4.06376,-0.20694l1.11528,-7.07906l0.93891,-0.83551l0.50739,1.22228l-0.06614,0.323z" fill="#ffffff" stroke="none" stroke-width="0.5" stroke-linecap="butt"/><path d="M380.04748,134.20022l0.02741,-0.03781l1.06448,-0.04768l0.60506,0.90643l1.04723,6.02838l-4.82607,0.07431l0.81195,-5.92192l0.73454,-1.17424z" fill="#ffffff" stroke="none" stroke-width="0.5" stroke-linecap="butt"/><path d="M386.78401,134.58461l0.99996,-0.19994l0.12438,0.26314l2.87368,2.5335l-3.7339,2.29508l-1.67163,-3.93683l0.43132,-1.40916l0.97618,0.45423z" fill="#ffffff" stroke="none" stroke-width="0.5" stroke-linecap="butt"/><path d="M315.00332,117.83518l0.55779,0.59942l0.10618,0.17633l-0.18963,1.42306l-1.19615,5.38356l-3.6835,-3.57028l3.48864,-2.97658l0.01628,-0.11501l0.90037,-0.92047z" fill="#ffffff" stroke="none" stroke-width="0.5" stroke-linecap="butt"/><path d="M318.09066,125.69369l1.14119,0.18525l0.36088,0.05857l0.11541,-0.28207l0.66719,0.45606l0.36335,1.07867l-0.90037,0.92047l-0.4769,-0.07741l-0.98563,3.6636l-2.19356,0.44242l-2.03645,-0.89393l0.77408,-1.87581l1.946,-3.06748l0.8442,-0.67017l0.38057,0.06179z" fill="#ffffff" stroke="none" stroke-width="0.5" stroke-linecap="butt"/><path d="M329.5802,130.5225l0.44319,-0.27845l1.00837,6.48033l-3.82265,-1.65075l1.29627,-3.68234l0.90037,-0.92047l0.17442,0.05169z" fill="#ffffff" stroke="none" stroke-width="0.5" stroke-linecap="butt"/><path d="M343.00529,134.6707l0.67982,0.52134l0.92224,4.28748l-4.61733,-0.23687l1.6342,-4.40773l1.01247,-0.61174l0.3686,0.44751z" fill="#ffffff" stroke="none" stroke-width="0.5" stroke-linecap="butt"/><path d="M355.0794,136.61312l0.30905,-0.1654l0.82832,0.80906l0.01604,0.75911l-3.06766,2.68143l0.55473,-4.93073l0.90037,-0.92047l0.57299,1.15965l-0.11384,0.60737z" fill="#ffffff" stroke="none" stroke-width="0.5" stroke-linecap="butt"/><path d="M326.86705,156.05197l-0.92395,-0.48768l-1.18715,-5.97121l4.8554,-0.93455l-0.78681,6.27599l-1.03581,1.09195l-0.92168,0.02549z" fill="#ffffff" stroke="none" stroke-width="0.5" stroke-linecap="butt"/><path d="M332.25066,156.07704l0.02267,-1.47547l0.07536,-0.11049l-0.08933,-0.4636l-0.32751,-5.69768l5.04932,0.24865l-3.00869,6.41568l-0.65481,0.96034l-1.067,0.12262z" fill="#ffffff" stroke="none" stroke-width="0.5" stroke-linecap="butt"/><path d="M340.09883,156.32867l-0.79725,0.56608l-0.57299,-1.15965l0.68338,-1.19862l0.39987,-5.15614l4.51913,-0.24539l-4.23209,7.19371z" fill="#ffffff" stroke="none" stroke-width="0.5" stroke-linecap="butt"/><path d="M349.41794,156.40548l0.01237,0.13041l-0.50053,1.16947l-0.71393,0.39286l-0.57299,-1.15965l0.14413,-0.66947l0.04601,-0.11654l-0.10565,-4.423l3.82707,-2.06659l-2.13649,6.74249z" fill="#ffffff" stroke="none" stroke-width="0.5" stroke-linecap="butt"/><path d="M353.1723,157.56633l0.06295,-0.96138l0.01326,-0.32902l1.64107,-5.82101l4.53842,1.50035l-4.43368,5.49157l-0.84582,0.57379z" fill="#ffffff" stroke="none" stroke-width="0.5" stroke-linecap="butt"/><path d="M362.86804,160.18141l-0.71788,1.19317l-0.78971,-0.8766l0.29395,-7.03145l2.62188,4.03874l-0.06587,0.08205l0.01745,0.01703l-0.94142,1.73458l-0.43171,0.43973l0.01336,0.40277z" fill="#ffffff" stroke="none" stroke-width="0.5" stroke-linecap="butt"/><path d="M367.75264,162.06203l-0.57299,-1.15965l0.16519,-5.40119l2.71613,-0.71828l-0.05638,4.16082l-0.09742,0.15277l0.04837,0.02637l-0.45675,1.32639l-0.84575,0.6923l-0.90037,0.92047z" fill="#ffffff" stroke="none" stroke-width="0.5" stroke-linecap="butt"/><path d="M312.20755,93.73072l8.6113,-22.44541l19.03129,-8.14963l17.38582,12.61698l1.001,24.72368l-17.32713,27.4689l-2.71218,-15.62201c0,0 -1.99018,-5.57941 -4.20525,-8.85367c-3.32122,-4.90935 -21.7848,-9.73882 -21.7848,-9.73882z" fill="url(#color-1)" stroke="#000000" stroke-width="2" stroke-linecap="butt"/><path d="M368.5863,98.33219l11.89024,-21.10002l19.85923,-5.21809l15.03596,15.27484l-2.84983,24.8525c0,0 -14.11802,-5.01048 -19.25397,-2.39475c-5.01904,2.55619 -10.5524,7.58128 -10.5524,7.58128l-8.44986,13.22514l-5.67936,-32.22085z" fill="url(#color-2)" stroke="#000000" stroke-width="2" stroke-linecap="butt"/><path d="M417.47382,117.69644l0.61773,-0.90432l0.43758,-0.05948l3.50179,-4.16304l0.04174,-2.49671l0.82816,-0.59675l0.12411,-1.08146l0.80943,-0.74325l0.69075,0.7556l-0.92847,4.17434l5.49528,6.61198l0.69837,-0.14634l0.83608,0.59517l-0.65825,0.87699l-0.99488,0.17302l-6.32874,-6.17002l-3.38199,3.46443l-0.92228,0.26262l-0.86644,-0.55278z" fill="#000000" stroke="none" stroke-width="0.5" stroke-linecap="butt"/><g stroke="#000000" stroke-width="0" stroke-linecap="butt"><path d="M297.23377,73.05936l-2.17954,-63.86671l75.59864,3.91107l70.29485,7.70391l-15.84077,62.95396z" fill="#000000"/><path d="M298.29795,72.28836l-0.72049,-10.40353l128.86095,14.14348l-2.58099,9.9231z" fill="#ffffff"/><path d="M277.53772,77.74672l-2.88063,-6.20045l0.42213,-7.45025l173.69141,19.75736l-2.42561,5.94094l-4.65298,6.74929l-4.8065,-0.55038l-9.40959,27.65305l2.06559,-15.40937l-1.20749,-13.22287l-134.79448,-15.43498l-5.37546,10.3458l-4.48903,-11.47537l-6.13737,-0.70277z" fill="#000000"/></g></g></g></svg>