<svg version="1.1" xmlns="http://www.w3.org/2000/svg" xmlns:xlink="http://www.w3.org/1999/xlink" width="213.18203" height="281.18476" viewBox="0,0,213.18203,281.18476"><defs><linearGradient x1="320.08742" y1="187.07227" x2="320.08742" y2="244.23177" gradientUnits="userSpaceOnUse" id="color-1"><stop offset="0" stop-color="#2d7a1a" stop-opacity="0.73333"/><stop offset="1" stop-color="#2d7a1a" stop-opacity="0"/></linearGradient></defs><g transform="translate(-214.52362,-38.88751)"><g stroke-miterlimit="10"><g stroke="#000000" stroke-linecap="butt"><path d="M286.35186,319.07226l15.14285,-131.8421l37.78325,-0.15789l13.57389,132z" fill="#a2f30f" stroke-width="0"/><path d="M295.01902,243.61117l6.47569,-56.38101l37.78325,-0.15789l5.87786,57.15951z" fill="url(#color-1)" stroke-width="0"/><path d="M286.35186,319.07226l15.14285,-131.8421l37.78325,-0.15789l13.57389,132z" fill="none" stroke-width="2"/></g><path d="M214.52362,306.61252v-267.72501h213.18203v267.72501z" fill="none" stroke="none" stroke-width="0" stroke-linecap="butt"/><g fill="#a2f30f" stroke="#000000" stroke-width="2"><path d="M255.36488,156.57225c0,-33.30185 28.7599,-60.29833 64.23702,-60.29833c35.47713,0 64.23702,26.99648 64.23702,60.29833c0,33.30185 -28.75989,60.29834 -64.23702,60.29834c-35.47712,0 -64.23702,-26.99649 -64.23702,-60.29834z" stroke-linecap="butt"/><path d="M256.61579,168.9325l-19.24017,-61.51434l13.27843,7.85866l-3.79384,-53.1137l48.23592,26.55685l-5.96174,-34.14452l20.05313,19.78214l4.06482,-13.00744l13.8204,23.034l14.63337,-20.32412l34.95749,64.7662" stroke-linecap="round"/></g><path d="" fill="none" stroke="#000000" stroke-width="2" stroke-linecap="round"/><path d="M313.46875,168.11954l-4.55222,14.63337" fill="none" stroke="#81c10c" stroke-width="2" stroke-linecap="round"/><path d="M324.90484,166.7646l4.6068,14.63337" fill="none" stroke="#81c10c" stroke-width="2" stroke-linecap="round"/><path d="M268.99199,160.37072c0,-12.96801 10.51265,-23.48065 23.48066,-23.48065c12.96801,0 23.48065,10.51264 23.48065,23.48065c0,12.96801 -10.51264,23.48066 -23.48065,23.48066c-12.96801,0 -23.48066,-10.51265 -23.48066,-23.48066z" fill="#81c10c" stroke="none" stroke-width="0" stroke-linecap="butt"/><path d="M346.73111,183.8514c-12.96801,0 -23.48065,-10.51265 -23.48065,-23.48066c0,-12.96801 10.51264,-23.48065 23.48065,-23.48065c12.96801,0 23.48066,10.51264 23.48066,23.48065c0,12.96801 -10.51265,23.48066 -23.48066,23.48066z" fill="#81c10c" stroke="none" stroke-width="0" stroke-linecap="butt"/><path d="M268.99199,156.84787c0,-12.96801 10.51265,-23.48065 23.48066,-23.48065c12.96801,0 23.48065,10.51264 23.48065,23.48065c0,12.96801 -10.51264,23.48066 -23.48065,23.48066c-12.96801,0 -23.48066,-10.51265 -23.48066,-23.48066z" fill="#ffffff" stroke="#000000" stroke-width="2" stroke-linecap="butt"/><path d="M276.32119,157.3985c0,-9.03994 7.32831,-16.36827 16.36825,-16.36827c9.03994,0 16.36827,7.32831 16.36827,16.36827c0,9.03994 -7.32831,16.36827 -16.36827,16.36827c-9.03994,0 -16.36825,-7.32831 -16.36825,-16.36827z" fill="none" stroke="#000000" stroke-width="5" stroke-linecap="butt"/><path d="M346.73111,180.32855c-12.96801,0 -23.48065,-10.51265 -23.48065,-23.48066c0,-12.96801 10.51264,-23.48065 23.48065,-23.48065c12.96801,0 23.48066,10.51264 23.48066,23.48065c0,12.96801 -10.51265,23.48066 -23.48066,23.48066z" fill="#ffffff" stroke="#000000" stroke-width="2" stroke-linecap="butt"/><path d="M362.05645,157.4251c0,8.29966 -6.72818,15.02785 -15.02783,15.02785c-8.29964,0 -15.02784,-6.72821 -15.02784,-15.02785c0,-8.29966 6.7282,-15.02785 15.02784,-15.02785c8.29964,0 15.02783,6.7282 15.02783,15.02784z" fill="#000000" stroke="#000000" stroke-width="5" stroke-linecap="butt"/><path d="M283.32118,157.8985c0,-5.0819 4.11969,-9.2016 9.20159,-9.2016c5.0819,0 9.2016,4.11969 9.2016,9.2016c0,5.0819 -4.11969,9.2016 -9.2016,9.2016c-5.0819,0 -9.20159,-4.11969 -9.20159,-9.2016z" fill="none" stroke="#000000" stroke-width="5" stroke-linecap="butt"/><path d="M352.03572,207.89285l3,22.57143l-69.14286,-0.28571l4,-20.85714" fill="#a2f30f" stroke="#000000" stroke-width="2" stroke-linecap="round"/><path d="M290.89286,225.89286l4.42857,-30.14286l52.28571,0.42857l3.85714,30z" fill="#ffffff" stroke="#000000" stroke-width="2" stroke-linecap="round"/><path d="M292.60714,214.75l8.71429,-12.85714l7.14286,16.28571l9.14286,-15.85714l6.85714,12.85714l8.14286,-13.14286l7.28571,12.42857l3.14286,-12.14286l5.85714,11.85714" fill="none" stroke="#000000" stroke-width="2" stroke-linecap="round"/></g></g></svg>