<svg version="1.1" xmlns="http://www.w3.org/2000/svg" xmlns:xlink="http://www.w3.org/1999/xlink" width="213.18203" height="305.34657" viewBox="0,0,213.18203,305.34657"><defs><linearGradient x1="320.08742" y1="187.07227" x2="320.08742" y2="244.23177" gradientUnits="userSpaceOnUse" id="color-1"><stop offset="0" stop-color="#671d06"/><stop offset="1" stop-color="#671d06" stop-opacity="0"/></linearGradient><radialGradient cx="314.03963" cy="33.94726" r="64.30757" gradientUnits="userSpaceOnUse" id="color-2"><stop offset="0" stop-color="#a4aeae"/><stop offset="1" stop-color="#767d7d"/></radialGradient></defs><g transform="translate(-214.52362,-14.7257)"><g stroke-miterlimit="10"><g stroke="#000000" stroke-linecap="butt"><path d="M286.35186,319.07226l15.14285,-131.8421l37.78325,-0.15789l13.57389,132z" fill="#9c4209" stroke-width="0"/><path d="M295.01902,243.61117l6.47569,-56.38101l37.78325,-0.15789l5.87786,57.15951z" fill="url(#color-1)" stroke-width="0"/><path d="M286.35186,319.07226l15.14285,-131.8421l37.78325,-0.15789l13.57389,132z" fill="none" stroke-width="2"/></g><path d="M214.52362,306.61251v-291.88681h213.18203v291.88681z" fill="none" stroke="none" stroke-width="0" stroke-linecap="butt"/><path d="" fill="none" stroke="#000000" stroke-width="2" stroke-linecap="round"/><g><path d="M246.13917,155.73318c-1.63137,-33.26187 25.77151,-61.63482 61.20602,-63.37276c35.43454,-1.73794 65.48238,23.81726 67.11376,57.07913c1.63137,33.26187 -25.7715,61.63482 -61.20602,63.37277c-35.43453,1.73794 -65.48238,-23.81727 -67.11376,-57.07914z" fill="#9c4209" stroke="#000000" stroke-width="2" stroke-linecap="butt"/><path d="M259.76342,155.34091c-0.63527,-12.95244 9.34977,-23.96745 22.3022,-24.60271c12.95244,-0.63527 23.96745,9.34976 24.60272,22.30219c0.63527,12.95244 -9.34976,23.96745 -22.30219,24.60273c-12.95244,0.63527 -23.96746,-9.34977 -24.60272,-22.3022z" fill="#ffffff" stroke="#000000" stroke-width="2" stroke-linecap="butt"/><path d="M264.10214,160.35635c-0.40658,-8.28968 5.98394,-15.33939 14.27359,-15.74597c8.28968,-0.40658 15.3394,5.98395 15.74597,14.27361c0.40658,8.28968 -5.98394,15.33941 -14.2736,15.74598c-8.28968,0.40658 -15.33939,-5.98395 -15.74596,-14.27362z" fill="#000000" stroke="#000000" stroke-width="5" stroke-linecap="butt"/><path d="M338.55946,174.98517c-12.95244,0.63527 -23.96745,-9.34977 -24.60271,-22.3022c-0.63527,-12.95244 9.34976,-23.96745 22.3022,-24.60271c12.95244,-0.63527 23.96745,9.34976 24.60273,22.30219c0.63527,12.95244 -9.34977,23.96746 -22.3022,24.60272z" fill="#ffffff" stroke="#000000" stroke-width="2" stroke-linecap="butt"/><path d="M343.58666,146.31363c0.37139,7.57202 -5.46587,14.01141 -13.03789,14.38279c-7.57199,0.37138 -14.01141,-5.4659 -14.38278,-13.03791c-0.37139,-7.57202 5.46589,-14.01141 13.0379,-14.38279c7.57199,-0.37138 14.0114,5.46589 14.38277,13.03789z" fill="#000000" stroke="#000000" stroke-width="5" stroke-linecap="butt"/><path d="M267.49828,129.68954c0,0 6.79523,-5.05525 11.90291,-6.16355c5.10768,-1.10831 12.32058,0.9074 12.32058,0.9074c0,0 -8.03595,-0.19591 -11.98046,0.66c-4.12215,0.89445 -12.24302,4.59617 -12.24302,4.59617z" fill="#000000" stroke="none" stroke-width="0" stroke-linecap="butt"/><path d="M336.93713,120.19609c-4.01789,0.38497 -11.61315,3.01689 -11.61315,3.01689c0,0 6.25746,-4.11494 11.46018,-4.61344c5.20272,-0.49851 13.21399,2.2493 13.21399,2.2493c0,0 -8.86216,-1.05503 -13.06102,-0.65273z" fill="#000000" stroke="none" stroke-width="0" stroke-linecap="butt"/><g stroke="#000000" stroke-linecap="round"><path d="M371.42622,141.66622c0,0 -16.60545,8.2646 -55.95422,-2.87457c-34.50465,-9.76785 -53.76174,-25.98363 -53.76174,-25.98363l43.94989,-90.35913c0,0 22.2011,-3.2501 43.91896,1.92161c30.51643,7.26691 37.38697,16.79282 37.38697,16.79282z" fill="url(#color-2)" stroke-width="2"/><path d="M371.42622,141.66622c0,0 -16.60545,8.2646 -55.95422,-2.87457c-34.50465,-9.76785 -53.76174,-25.98363 -53.76174,-25.98363c0,0 56.78966,13.06762 91.05414,12.19308c15.50378,-0.39571 25.80077,-38.9322 25.80077,-38.9322l-7.13897,55.5973z" fill-opacity="0.3451" fill="#4d5252" stroke-width="0"/><path d="M371.42622,141.66622c0,0 -16.60545,8.2646 -55.95422,-2.87457c-34.50465,-9.76785 -53.76174,-25.98363 -53.76174,-25.98363l43.94989,-90.35913c0,0 22.2011,-3.2501 43.91896,1.92161c30.51643,7.26691 37.38697,16.79282 37.38697,16.79282z" fill="none" stroke-width="2"/></g><path d="M366.66092,135.55488l-4.75169,77.64376l-19.62737,-5.88864" fill="none" stroke="#000000" stroke-width="2" stroke-linecap="round"/><path d="M303.5965,201.56129c0.04741,-4.64495 0.56537,-14.80353 6.94548,-14.64172c6.38011,0.16182 7.61483,8.35727 7.54694,15.00928c-0.06789,6.65202 -5.37772,9.22124 -7.79361,9.15997c-2.41492,-0.06125 -6.74622,-4.88257 -6.69881,-9.52754z" fill="#000000" stroke="#000000" stroke-width="2" stroke-linecap="round"/></g></g></g></svg>