<svg version="1.1" xmlns="http://www.w3.org/2000/svg" xmlns:xlink="http://www.w3.org/1999/xlink" width="213.18203" height="280.18476" viewBox="0,0,213.18203,280.18476"><g transform="translate(-214.52362,-38.88751)"><g stroke-miterlimit="10"><g stroke-linecap="butt"><path d="M286.35186,319.07226l15.14285,-131.8421l37.78325,-0.15789l13.57389,132z" fill="#a93232" stroke="#000000" stroke-width="0"/><path d="M293.00635,261.13452c2.74487,-23.89841 8.48836,-73.90436 8.48836,-73.90436l37.78325,-0.15789c0,0 5.18875,49.85827 7.69612,74.24128c0.01364,0.13261 -53.98445,-0.03335 -53.96772,-0.17903z" fill="#9d2f3a" stroke="#000000" stroke-width="0"/><path d="M294.04743,252.07032c2.50278,-21.79059 7.44728,-64.84016 7.44728,-64.84016l37.78325,-0.15789c0,0 4.4242,43.02332 6.66599,64.82381c0.03141,0.30549 -51.94147,0.56558 -51.89652,0.17424z" fill="#942c3b" stroke="#000000" stroke-width="0"/><path d="M301.49471,187.23016l37.78325,-0.15789l7.53186,58.01527c0,0 -5.52306,-0.76412 -6.92133,-0.90214l0.00749,-0.04127l-0.48712,-0.0884c-0.016,-0.00322 -0.03254,-0.0049 -0.04949,-0.0049c-0.13807,0 -0.25,0.11193 -0.25,0.25c0,0.04409 0.01141,0.08552 0.03145,0.12148l0.23231,0.43736c0.123,0.23124 0.24538,0.5705 0.38232,0.90381c-0.37148,-0.33345 -0.77382,-0.64017 -1.12919,-0.99429c-0.38626,-0.38297 -2.23559,-1.95898 -2.85854,-1.56149c-1.49667,0.95499 1.14954,7.14342 -2.20456,3.67889c-0.34409,-0.39178 -1.32011,-1.90788 -1.8599,-1.93658c-0.71283,-0.03789 -2.08925,3.10834 -2.2473,3.02684c-0.63202,-0.32591 -1.62122,-2.43297 -2.09521,-3.07026c-0.20167,-0.19552 -1.03491,-1.17622 -1.31894,-1.12193c-0.29258,0.05593 -0.71091,1.29206 -0.77558,1.54857c-0.3107,1.23257 -1.43283,4.47865 -1.20436,6.0625c-1.23125,-1.34336 -2.04426,-3.20717 -3.15722,-4.70131l0.02198,-0.01167l-0.20246,-0.38135c-0.0412,-0.08148 -0.1257,-0.13736 -0.22325,-0.13736c-0.1113,0 -0.20561,0.07273 -0.238,0.17325l-0.16255,0.4667c-0.05451,0.15652 -0.10902,0.31304 -0.16353,0.46957c-0.18509,0.49576 -0.61517,2.88396 -1.12868,3.05381c-0.42363,0.14012 -1.28892,-2.21834 -1.58993,-2.3507c-0.84379,-0.37102 -1.31275,1.23764 -1.29003,2.25784c-1.94281,-2.33382 -2.99468,-4.92948 -6.16706,-6.09861c-2.49887,-0.88899 -4.81101,1.71067 -5.3339,3.92684c-0.04559,0.19324 -0.10282,0.46112 -0.14855,0.7564c-0.37996,-1.536 -0.9571,-3.47767 -1.63956,-3.56104c-0.94022,-0.11486 -1.74563,1.9818 -1.75639,3.24301c-1.17689,-1.06694 -2.9206,0.67637 -3.37136,1.68632c-0.05109,-0.36434 -1.54165,-2.501 -1.65072,-2.8319c0.21987,-1.20535 -3.61083,-1.26063 -3.61083,-1.26063z" fill="#a2f30f" stroke="#000000" stroke-width="0"/><path d="M301.49471,187.23016l37.78325,-0.15789c0,0 4.42084,34.05212 5.78825,44.5848c0.01988,0.15319 -50.50566,-0.27517 -50.46947,-0.50562c1.69416,-10.78723 6.89797,-43.9213 6.89797,-43.9213z" fill="#75f20f" stroke="#000000" stroke-width="0"/><path d="M301.49471,187.23016l37.78325,-0.15789c0,0 2.99108,23.83918 4.32515,34.1151c0.01396,0.10756 -47.56257,0.2241 -47.5334,0.03837c1.60192,-10.19991 5.425,-33.99558 5.425,-33.99558z" fill="#33965e" stroke="#000000" stroke-width="0"/><path d="M301.49471,187.23016l37.78325,-0.15789c0,0 2.54744,19.28154 3.76806,28.68356c0.01222,0.09411 -45.95233,-0.50319 -45.94397,-0.55642c1.50063,-9.55496 4.39265,-27.96925 4.39265,-27.96925z" fill="#2d7a1a" stroke="#000000" stroke-width="0"/><path d="M296.95582,214.9c0,-0.9665 0.7835,-1.75 1.75,-1.75c0.9665,0 1.75,0.7835 1.75,1.75c0,0.9665 -0.7835,1.75 -1.75,1.75c-0.9665,0 -1.75,-0.7835 -1.75,-1.75z" fill="#2d7a1a" stroke="none" stroke-width="0.5"/><path d="M304.35582,214.7c0,-0.9665 0.7835,-1.75 1.75,-1.75c0.9665,0 1.75,0.7835 1.75,1.75c0,0.9665 -0.7835,1.75 -1.75,1.75c-0.9665,0 -1.75,-0.7835 -1.75,-1.75z" fill="#2d7a1a" stroke="none" stroke-width="0.5"/><path d="M310.65582,214.9c0,-0.30962 0.11257,-0.59294 0.29901,-0.81128c0.29248,-0.55801 0.87728,-0.93872 1.55099,-0.93872c0.9665,0 1.75,0.7835 1.75,1.75c0,0.9665 -0.7835,1.75 -1.75,1.75c-0.67371,0 -1.25851,-0.3807 -1.55099,-0.93872c-0.18644,-0.21834 -0.29901,-0.50166 -0.29901,-0.81128z" fill="#2d7a1a" stroke="none" stroke-width="0.5"/><path d="M316.90582,216.75c-0.30962,0 -0.59294,-0.11257 -0.81128,-0.29901c-0.55801,-0.29248 -0.93872,-0.87728 -0.93872,-1.55099c0,-0.9665 0.7835,-1.75 1.75,-1.75c0.11289,0 0.22328,0.01069 0.33022,0.03111c0.25622,-0.14704 0.55318,-0.23111 0.86978,-0.23111c0.9665,0 1.75,0.7835 1.75,1.75c0,0.9665 -0.7835,1.75 -1.75,1.75c-0.11289,0 -0.22328,-0.01069 -0.33022,-0.03111c-0.01927,0.01106 -0.03877,0.02176 -0.0585,0.0321c-0.21834,0.18644 -0.50166,0.29901 -0.81128,0.29901z" fill="#2d7a1a" stroke="none" stroke-width="0.5"/><path d="M324.05582,216.9c0,-0.48464 0.27581,-0.90486 0.67902,-1.11227c-0.23728,-0.29867 -0.37902,-0.67665 -0.37902,-1.08773c0,-0.9665 0.7835,-1.75 1.75,-1.75c0.9665,0 1.75,0.7835 1.75,1.75c0,0.84585 -0.6001,1.55153 -1.39777,1.71454c0.06296,0.14926 0.09777,0.31329 0.09777,0.48546c0,0.69036 -0.55964,1.25 -1.25,1.25c-0.69036,0 -1.25,-0.55964 -1.25,-1.25z" fill="#2d7a1a" stroke="none" stroke-width="0.5"/><path d="M330.55582,215.5c0,-0.9665 0.7835,-1.75 1.75,-1.75c0.9665,0 1.75,0.7835 1.75,1.75c0,0.9665 -0.7835,1.75 -1.75,1.75c-0.9665,0 -1.75,-0.7835 -1.75,-1.75z" fill="#2d7a1a" stroke="none" stroke-width="0.5"/><path d="M334.15582,215.5c0,-0.9665 0.7835,-1.75 1.75,-1.75c0.9665,0 1.75,0.7835 1.75,1.75c0,0.9665 -0.7835,1.75 -1.75,1.75c-0.9665,0 -1.75,-0.7835 -1.75,-1.75z" fill="#2d7a1a" stroke="none" stroke-width="0.5"/><path d="M338.15582,215.5c0,-0.9665 0.7835,-1.75 1.75,-1.75c0.9665,0 1.75,0.7835 1.75,1.75c0,0.9665 -0.7835,1.75 -1.75,1.75c-0.9665,0 -1.75,-0.7835 -1.75,-1.75z" fill="#2d7a1a" stroke="none" stroke-width="0.5"/><path d="M296.15582,221.3c0,-0.9665 0.7835,-1.75 1.75,-1.75c0.9665,0 1.75,0.7835 1.75,1.75c0,0.9665 -0.7835,1.75 -1.75,1.75c-0.9665,0 -1.75,-0.7835 -1.75,-1.75z" fill="#33965e" stroke="none" stroke-width="0.5"/><path d="M340.55582,221.1c0,-0.9665 0.7835,-1.75 1.75,-1.75c0.9665,0 1.75,0.7835 1.75,1.75c0,0.9665 -0.7835,1.75 -1.75,1.75c-0.9665,0 -1.75,-0.7835 -1.75,-1.75z" fill="#33965e" stroke="none" stroke-width="0.5"/><path d="M334.85582,220.3c0,-0.69036 0.55964,-1.25 1.25,-1.25c0.05573,0 0.11061,0.00365 0.16441,0.01072c0.31654,-0.3156 0.75328,-0.51072 1.23559,-0.51072c0.03356,0 0.0669,0.00094 0.1,0.00281c0.0331,-0.00186 0.06644,-0.00281 0.1,-0.00281c0.9665,0 1.75,0.7835 1.75,1.75c0,0.9665 -0.7835,1.75 -1.75,1.75c-0.03356,0 -0.0669,-0.00094 -0.1,-0.00281c-0.0331,0.00186 -0.06644,0.00281 -0.1,0.00281c-0.48231,0 -0.91905,-0.19511 -1.23559,-0.51072c-0.0538,0.00707 -0.10868,0.01072 -0.16441,0.01072c-0.69036,0 -1.25,-0.55964 -1.25,-1.25z" fill="#33965e" stroke="none" stroke-width="0.5"/><path d="M330.15582,221.1c0,-0.9665 0.7835,-1.75 1.75,-1.75c0.03356,0 0.0669,0.00094 0.1,0.00281c0.0331,-0.00186 0.06644,-0.00281 0.1,-0.00281c0.9665,0 1.75,0.7835 1.75,1.75c0,0.9665 -0.7835,1.75 -1.75,1.75c-0.03356,0 -0.0669,-0.00094 -0.1,-0.00281c-0.0331,0.00186 -0.06644,0.00281 -0.1,0.00281c-0.9665,0 -1.75,-0.7835 -1.75,-1.75z" fill="#33965e" stroke="none" stroke-width="0.5"/><path d="M321.30582,222.75c-0.40726,0 -0.76903,-0.19476 -0.99725,-0.49623c-0.48298,-0.23274 -1.12626,-0.75728 -0.92452,-1.86682c0.31305,-1.72177 2.03482,-1.40872 2.03482,-1.40872l2.2,0.4c0,0 0.06959,0.01265 0.17824,0.04686c0.16098,-0.04883 0.33178,-0.07509 0.50871,-0.07509c0.9665,0 1.75,0.7835 1.75,1.75c0,0.9665 -0.7835,1.75 -1.75,1.75c-0.16787,0 -0.33022,-0.02364 -0.4839,-0.06776c-0.44113,0.11008 -0.82915,0.03954 -0.82915,0.03954l-1.12553,-0.20464c-0.16881,0.085 -0.35953,0.13287 -0.56142,0.13287z" fill="#33965e" stroke="none" stroke-width="0.5"/><path d="M314.35582,220.9c0,-0.96207 0.77634,-1.74282 1.73674,-1.74995c0.24298,-0.12776 0.51968,-0.20005 0.81326,-0.20005c0.9665,0 1.75,0.7835 1.75,1.75c0,0.96207 -0.77634,1.74282 -1.73674,1.74995c-0.24298,0.12776 -0.51968,0.20005 -0.81326,0.20005c-0.9665,0 -1.75,-0.7835 -1.75,-1.75z" fill="#33965e" stroke="none" stroke-width="0.5"/><path d="M312.55582,220.9c0,1.25 -1.25,1.25 -1.25,1.25h-1.8c0,0 -0.41051,0 -0.76102,-0.23525c-0.24888,0.66323 -0.88881,1.13525 -1.63898,1.13525c-0.54604,0 -1.03367,-0.25009 -1.3546,-0.64197c-0.05477,0.63978 -0.59144,1.14197 -1.2454,1.14197c-0.69036,0 -1.25,-0.55964 -1.25,-1.25c0,-0.06435 0.00486,-0.12756 0.01424,-0.18929c-0.43315,-0.31856 -0.71424,-0.83181 -0.71424,-1.41071c0,-0.9665 0.7835,-1.75 1.75,-1.75c0.7237,0 1.3448,0.43929 1.61118,1.06577c0.31213,-0.28908 0.72984,-0.46577 1.18882,-0.46577c0.5401,0 1.02305,0.24467 1.34406,0.62922c0.35114,-0.52922 1.05594,-0.52922 1.05594,-0.52922h1.8c0,0 1.25,0 1.25,1.25z" fill="#33965e" stroke="none" stroke-width="0.5"/><path d="M294.55582,231.5c0,-0.9665 0.3835,-1.75 1.35,-1.75c0.9665,0 1.75,0.7835 1.75,1.75c0,0.9665 -0.7835,1.75 -1.75,1.75c-0.9665,0 -1.35,-0.7835 -1.35,-1.75z" fill="#75f20f" stroke="none" stroke-width="0.5"/><path d="M306.15582,232.3c0,0.69036 -0.55964,1.25 -1.25,1.25c-0.19142,0 -0.37279,-0.04303 -0.53497,-0.11994c-0.08643,0.01313 -0.17493,0.01994 -0.26503,0.01994c-0.9665,0 -1.75,-0.7835 -1.75,-1.75c0,-0.9665 0.7835,-1.75 1.75,-1.75c0.88869,0 1.62266,0.66243 1.73508,1.52045c0.19593,0.22069 0.31492,0.51123 0.31492,0.82955z" fill="#75f20f" stroke="none" stroke-width="0.5"/><path d="M311.95582,232.1c0,0.69036 -0.55964,1.25 -1.25,1.25c-0.61753,0 -1.13048,-0.4478 -1.23182,-1.0364c-0.43538,-0.31834 -0.71818,-0.83294 -0.71818,-1.4136c0,-0.9665 0.7835,-1.75 1.75,-1.75c0.9665,0 1.75,0.7835 1.75,1.75c0,0.37295 -0.11667,0.71866 -0.3155,1.00261c0.0102,0.0643 0.0155,0.13022 0.0155,0.19739z" fill="#75f20f" stroke="none" stroke-width="0.5"/><path d="M314.95582,230.3c0,-0.9665 0.7835,-1.75 1.75,-1.75c0.9665,0 1.75,0.7835 1.75,1.75c0,0.9665 -0.7835,1.75 -1.75,1.75c-0.9665,0 -1.75,-0.7835 -1.75,-1.75z" fill="#75f20f" stroke="none" stroke-width="0.5"/><path d="M324.35582,230.3c0,-0.9665 0.7835,-1.75 1.75,-1.75c0.9665,0 1.75,0.7835 1.75,1.75c0,0.9665 -0.7835,1.75 -1.75,1.75c-0.9665,0 -1.75,-0.7835 -1.75,-1.75z" fill="#75f20f" stroke="none" stroke-width="0.5"/><path d="M331.55582,230.7c0,-0.9665 0.7835,-1.75 1.75,-1.75c0.9665,0 1.75,0.7835 1.75,1.75c0,0.9665 -0.7835,1.75 -1.75,1.75c-0.9665,0 -1.75,-0.7835 -1.75,-1.75z" fill="#75f20f" stroke="none" stroke-width="0.5"/><path d="M335.45582,231.7c0,-0.69036 0.55964,-1.25 1.25,-1.25c0.05771,0 0.11451,0.00391 0.17014,0.01148c0.25512,-0.65072 0.88868,-1.11148 1.62986,-1.11148c0.51885,0 0.98496,0.2258 1.30543,0.58449c0.29973,-0.24057 0.68034,-0.38449 1.09457,-0.38449c0.9665,0 1.75,0.7835 1.75,1.75c0,0.9665 -0.7835,1.75 -1.75,1.75c-0.51885,0 -0.98496,-0.2258 -1.30543,-0.58449c-0.29973,0.24057 -0.68034,0.38449 -1.09457,0.38449c-0.33782,0 -0.65328,-0.09572 -0.92074,-0.26152c-0.22583,0.2235 -0.53643,0.36152 -0.87926,0.36152c-0.69036,0 -1.25,-0.55964 -1.25,-1.25z" fill="#75f20f" stroke="none" stroke-width="0.5"/><path d="M299.05582,233.1c0,-0.69036 0.55964,-1.25 1.25,-1.25c0.69036,0 1.25,0.55964 1.25,1.25c0,0.68623 -0.55297,1.2433 -1.23763,1.24994c0.26787,0.22926 0.43763,0.56984 0.43763,0.95006c0,0.69036 -0.55964,1.25 -1.25,1.25c-0.69036,0 -1.25,-0.55964 -1.25,-1.25c0,-0.68623 0.55297,-1.2433 1.23763,-1.24994c-0.26787,-0.22926 -0.43763,-0.56984 -0.43763,-0.95006z" fill="#75f20f" stroke="none" stroke-width="0.5"/><path d="M315.25582,233.3c0,-0.69036 0.55964,-1.25 1.25,-1.25c0.69036,0 1.25,0.55964 1.25,1.25c0,0.69036 -0.55964,1.25 -1.25,1.25c-0.69036,0 -1.25,-0.55964 -1.25,-1.25z" fill="#75f20f" stroke="none" stroke-width="0.5"/><path d="M321.10582,236.65c-0.33583,0 -0.62011,-0.22073 -0.71567,-0.52502c-0.32306,-0.22599 -0.53433,-0.60081 -0.53433,-1.02498c0,-0.69036 0.55964,-1.25 1.25,-1.25c0.69036,0 1.25,0.55964 1.25,1.25c0,0.42417 -0.21127,0.79899 -0.53433,1.02498c-0.09556,0.30429 -0.37984,0.52502 -0.71567,0.52502z" fill="#75f20f" stroke="none" stroke-width="0.5"/><path d="M325.05582,235.1c0,-0.69036 0.55964,-1.25 1.25,-1.25c0.69036,0 1.25,0.55964 1.25,1.25c0,0.69036 -0.55964,1.25 -1.25,1.25c-0.69036,0 -1.25,-0.55964 -1.25,-1.25z" fill="#75f20f" stroke="none" stroke-width="0.5"/><path d="M329.45582,232.7c0,-0.69036 0.55964,-1.25 1.25,-1.25c0.69036,0 1.25,0.55964 1.25,1.25c0,0.69036 -0.55964,1.25 -1.25,1.25c-0.69036,0 -1.25,-0.55964 -1.25,-1.25z" fill="#75f20f" stroke="none" stroke-width="0.5"/><path d="M341.45582,234.5c0,-0.69036 0.55964,-1.25 1.25,-1.25c0.69036,0 1.25,0.55964 1.25,1.25c0,0.69036 -0.55964,1.25 -1.25,1.25c-0.69036,0 -1.25,-0.55964 -1.25,-1.25z" fill="#75f20f" stroke="none" stroke-width="0.5"/><path d="M298.25582,224.7c0,-0.69036 0.55964,-1.25 1.25,-1.25c0.69036,0 1.25,0.55964 1.25,1.25c0,0.69036 -0.55964,1.25 -1.25,1.25c-0.69036,0 -1.25,-0.55964 -1.25,-1.25z" fill="#33965e" stroke="none" stroke-width="0.5"/><path d="M325.25582,224.5c0,-0.69036 0.55964,-1.25 1.25,-1.25c0.69036,0 1.25,0.55964 1.25,1.25c0,0.69036 -0.55964,1.25 -1.25,1.25c-0.69036,0 -1.25,-0.55964 -1.25,-1.25z" fill="#33965e" stroke="none" stroke-width="0.5"/><path d="M337.45582,223.9c0,-0.69036 0.55964,-1.25 1.25,-1.25c0.69036,0 1.25,0.55964 1.25,1.25c0,0.69036 -0.55964,1.25 -1.25,1.25c-0.69036,0 -1.25,-0.55964 -1.25,-1.25z" fill="#33965e" stroke="none" stroke-width="0.5"/><path d="M301.45582,218.5c0,-0.69036 0.55964,-1.25 1.25,-1.25c0.69036,0 1.25,0.55964 1.25,1.25c0,0.69036 -0.55964,1.25 -1.25,1.25c-0.69036,0 -1.25,-0.55964 -1.25,-1.25z" fill="#2d7a1a" stroke="none" stroke-width="0.5"/><path d="M329.45582,218.1c0,-0.69036 0.55964,-1.25 1.25,-1.25c0.69036,0 1.25,0.55964 1.25,1.25c0,0.69036 -0.55964,1.25 -1.25,1.25c-0.69036,0 -1.25,-0.55964 -1.25,-1.25z" fill="#2d7a1a" stroke="none" stroke-width="0.5"/><path d="M339.05582,218.5c0,-0.69036 0.55964,-1.25 1.25,-1.25c0.69036,0 1.25,0.55964 1.25,1.25c0,0.69036 -0.55964,1.25 -1.25,1.25c-0.69036,0 -1.25,-0.55964 -1.25,-1.25z" fill="#2d7a1a" stroke="none" stroke-width="0.5"/><path d="M298.55582,219.9c0,-0.41421 0.33579,-0.75 0.75,-0.75c0.41421,0 0.75,0.33579 0.75,0.75c0,0.41421 -0.33579,0.75 -0.75,0.75c-0.41421,0 -0.75,-0.33579 -0.75,-0.75z" fill="#2d7a1a" stroke="none" stroke-width="0.5"/><path d="M311.75582,219.9c0,-0.41421 0.33579,-0.75 0.75,-0.75c0.41421,0 0.75,0.33579 0.75,0.75c0,0.41421 -0.33579,0.75 -0.75,0.75c-0.41421,0 -0.75,-0.33579 -0.75,-0.75z" fill="#2d7a1a" stroke="none" stroke-width="0.5"/><path d="M315.75582,219.5c0,-0.41421 0.33579,-0.75 0.75,-0.75c0.41421,0 0.75,0.33579 0.75,0.75c0,0.41421 -0.33579,0.75 -0.75,0.75c-0.41421,0 -0.75,-0.33579 -0.75,-0.75z" fill="#2d7a1a" stroke="none" stroke-width="0.5"/><path d="M336.55582,219.1c0,-0.41421 0.33579,-0.75 0.75,-0.75c0.41421,0 0.75,0.33579 0.75,0.75c0,0.41421 -0.33579,0.75 -0.75,0.75c-0.41421,0 -0.75,-0.33579 -0.75,-0.75z" fill="#2d7a1a" stroke="none" stroke-width="0.5"/><path d="M301.35582,228.9c0,-0.41421 0.33579,-0.75 0.75,-0.75c0.41421,0 0.75,0.33579 0.75,0.75c0,0.41421 -0.33579,0.75 -0.75,0.75c-0.41421,0 -0.75,-0.33579 -0.75,-0.75z" fill="#33965e" stroke="none" stroke-width="0.5"/><path d="M307.75582,225.9c0,-0.41421 0.33579,-0.75 0.75,-0.75c0.41421,0 0.75,0.33579 0.75,0.75c0,0.41421 -0.33579,0.75 -0.75,0.75c-0.41421,0 -0.75,-0.33579 -0.75,-0.75z" fill="#33965e" stroke="none" stroke-width="0.5"/><path d="M312.55582,225.1c0,-0.41421 0.33579,-0.75 0.75,-0.75c0.41421,0 0.75,0.33579 0.75,0.75c0,0.41421 -0.33579,0.75 -0.75,0.75c-0.41421,0 -0.75,-0.33579 -0.75,-0.75z" fill="#33965e" stroke="none" stroke-width="0.5"/><path d="M322.55582,227.7c0,-0.41421 0.33579,-0.75 0.75,-0.75c0.41421,0 0.75,0.33579 0.75,0.75c0,0.41421 -0.33579,0.75 -0.75,0.75c-0.41421,0 -0.75,-0.33579 -0.75,-0.75z" fill="#33965e" stroke="none" stroke-width="0.5"/><path d="M338.75582,229.7c0,-0.41421 0.33579,-0.75 0.75,-0.75c0.41421,0 0.75,0.33579 0.75,0.75c0,0.41421 -0.33579,0.75 -0.75,0.75c-0.41421,0 -0.75,-0.33579 -0.75,-0.75z" fill="#33965e" stroke="none" stroke-width="0.5"/><path d="M299.55582,239.7c0,-0.41421 0.33579,-0.75 0.75,-0.75c0.41421,0 0.75,0.33579 0.75,0.75c0,0.41421 -0.33579,0.75 -0.75,0.75c-0.41421,0 -0.75,-0.33579 -0.75,-0.75z" fill="#75f20f" stroke="none" stroke-width="0.5"/><path d="M307.15582,237.3c0,-0.41421 0.33579,-0.75 0.75,-0.75c0.41421,0 0.75,0.33579 0.75,0.75c0,0.41421 -0.33579,0.75 -0.75,0.75c-0.41421,0 -0.75,-0.33579 -0.75,-0.75z" fill="#75f20f" stroke="none" stroke-width="0.5"/><path d="M329.55582,238.1c0,-0.41421 0.33579,-0.75 0.75,-0.75c0.41421,0 0.75,0.33579 0.75,0.75c0,0.41421 -0.33579,0.75 -0.75,0.75c-0.41421,0 -0.75,-0.33579 -0.75,-0.75z" fill="#75f20f" stroke="none" stroke-width="0.5"/><path d="M341.15582,238.5c0,-0.41421 0.33579,-0.75 0.75,-0.75c0.41421,0 0.75,0.33579 0.75,0.75c0,0.41421 -0.33579,0.75 -0.75,0.75c-0.41421,0 -0.75,-0.33579 -0.75,-0.75z" fill="#75f20f" stroke="none" stroke-width="0.5"/><path d="M298.34471,254.36667c0,-0.42979 0.21691,-0.80892 0.54723,-1.03388c-0.64321,-0.05358 -1.18761,-0.45502 -1.44453,-1.01565c-0.08673,0.88544 -0.83336,1.57731 -1.74159,1.57731c-0.9665,0 -1.75,-0.7835 -1.75,-1.75c0,-0.9665 0.7835,-1.75 1.75,-1.75c0.70663,0 1.31544,0.41882 1.59175,1.02176c0.08673,-0.88544 0.83336,-1.57731 1.74159,-1.57731c0.9665,0 1.75,0.7835 1.75,1.75c0,0.67535 -0.38256,1.26135 -0.94279,1.55312c0.56974,0.11646 0.99835,0.6205 0.99835,1.22466c0,0.69036 -0.55964,1.25 -1.25,1.25c-0.69036,0 -1.25,-0.55964 -1.25,-1.25z" fill="#942c3b" stroke="none" stroke-width="0.5"/><path d="M342.17804,252.14444c0,-0.9665 0.7835,-1.75 1.75,-1.75c0.9665,0 1.75,0.7835 1.75,1.75c0,0.9665 -0.7835,1.75 -1.75,1.75c-0.9665,0 -1.75,-0.7835 -1.75,-1.75z" fill="#942c3b" stroke="none" stroke-width="0.5"/><path d="M306.92804,253.95c-0.36192,0 -0.68791,-0.15381 -0.91617,-0.39962c-0.064,0.00709 -0.12904,0.01074 -0.19494,0.01074c-0.9665,0 -1.75,-0.7835 -1.75,-1.75c0,-0.9665 0.7835,-1.75 1.75,-1.75c0.45394,0 0.86751,0.17284 1.1785,0.45629c0.2914,-0.21685 0.65257,-0.34518 1.04372,-0.34518c0.9665,0 1.75,0.7835 1.75,1.75c0,0.9665 -0.7835,1.75 -1.75,1.75c-0.10075,0 -0.19951,-0.00851 -0.2956,-0.02486c-0.2189,0.18861 -0.50389,0.30264 -0.81551,0.30264z" fill="#942c3b" stroke="none" stroke-width="0.5"/><path d="M311.56693,254.14444c0,-0.4588 0.24718,-0.85987 0.61563,-1.0773c-0.21241,-0.28966 -0.33786,-0.64709 -0.33786,-1.03381c0,-0.9665 0.7835,-1.75 1.75,-1.75c0.9665,0 1.75,0.7835 1.75,1.75c0,0.8274 -0.57421,1.52069 -1.34588,1.70311c0.04413,0.12787 0.0681,0.26514 0.0681,0.408c0,0.69036 -0.55964,1.25 -1.25,1.25c-0.69036,0 -1.25,-0.55964 -1.25,-1.25z" fill="#942c3b" stroke="none" stroke-width="0.5"/><path d="M316.17804,252.25556c0,-0.9665 0.7835,-1.75 1.75,-1.75c0.9665,0 1.75,0.7835 1.75,1.75c0,0.9665 -0.7835,1.75 -1.75,1.75c-0.9665,0 -1.75,-0.7835 -1.75,-1.75z" fill="#942c3b" stroke="none" stroke-width="0.5"/><path d="M321.62249,252.25556c0,-0.9665 0.7835,-1.75 1.75,-1.75c0.9665,0 1.75,0.7835 1.75,1.75c0,0.9665 -0.7835,1.75 -1.75,1.75c-0.9665,0 -1.75,-0.7835 -1.75,-1.75z" fill="#942c3b" stroke="none" stroke-width="0.5"/><path d="M331.81693,250.56111c0.69036,0 1.25,0.55964 1.25,1.25c0,0.69036 -0.55964,1.25 -1.25,1.25c-0.43659,0 -0.82091,-0.22383 -1.04445,-0.563c-0.11809,0.8517 -0.84913,1.50744 -1.73333,1.50744c-0.9665,0 -1.75,-0.7835 -1.75,-1.75c0,-0.9665 0.7835,-1.75 1.75,-1.75c0.6895,0 1.28587,0.39876 1.57107,0.97824c0.14385,-0.5316 0.62961,-0.92268 1.20671,-0.92268z" fill="#942c3b" stroke="none" stroke-width="0.5"/><path d="M333.2336,252.25556c0,-0.69036 0.55964,-1.25 1.25,-1.25c0.00368,0 0.00735,0.00002 0.01102,0.00005c0.30057,-0.24324 0.68332,-0.38894 1.1001,-0.38894c0.9665,0 1.75,0.7835 1.75,1.75c0,0.9665 -0.7835,1.75 -1.75,1.75c-0.54207,0 -1.02658,-0.24646 -1.34758,-0.63345c-0.57729,-0.11053 -1.01353,-0.61815 -1.01353,-1.22766z" fill="#942c3b" stroke="none" stroke-width="0.5"/><path d="M337.51138,251.92222c0,-0.9665 0.7835,-1.75 1.75,-1.75c0.9665,0 1.75,0.7835 1.75,1.75c0,0.9665 -0.7835,1.75 -1.75,1.75c-0.9665,0 -1.75,-0.7835 -1.75,-1.75z" fill="#942c3b" stroke="none" stroke-width="0.5"/><path d="M294.34471,264.36667c0,-0.51341 0.30953,-0.95453 0.75215,-1.14693c-0.05556,0.00532 -0.11187,0.00804 -0.16882,0.00804c-0.9665,0 -1.75,-0.7835 -1.75,-1.75c0,-0.9665 0.7835,-1.75 1.75,-1.75c0.9665,0 1.75,0.7835 1.75,1.75c0,0.75127 -0.4734,1.39197 -1.13817,1.64007c0.01818,-0.00078 0.03647,-0.00118 0.05484,-0.00118c0.69036,0 1.25,0.55964 1.25,1.25c0,0.69036 -0.55964,1.25 -1.25,1.25c-0.69036,0 -1.25,-0.55964 -1.25,-1.25z" fill="#9d2f3a" stroke="none" stroke-width="0.5"/><path d="M304.37249,261.00556c0.69036,0 1.25,0.55964 1.25,1.25c0,0.69036 -0.55964,1.25 -1.25,1.25c-0.55684,0 -1.02864,-0.3641 -1.1903,-0.86722c-0.21399,0.09327 -0.45025,0.145 -0.69859,0.145c-0.28498,0 -0.55405,-0.06812 -0.79182,-0.18896c-0.37915,-0.07253 -0.69748,-0.31634 -0.87138,-0.64782c-0.11448,0.57228 -0.61973,1.00345 -1.22569,1.00345c-0.69036,0 -1.25,-0.55964 -1.25,-1.25c0,-0.69036 0.55964,-1.25 1.25,-1.25c0.48106,0 0.89866,0.27175 1.10764,0.67012c0.00845,-0.04226 0.01904,-0.08376 0.03164,-0.12437c0.01046,-0.49645 0.22766,-0.94204 0.56896,-1.25417c0.31998,-0.3499 0.78024,-0.56936 1.29175,-0.56936c0.9665,0 1.75,0.7835 1.75,1.75c0,0.02805 -0.00066,0.05595 -0.00197,0.08368c0.00989,-0.00023 0.0198,-0.00035 0.02974,-0.00035z" fill="#9d2f3a" stroke="none" stroke-width="0.5"/><path d="M308.40026,260.58889c0,-0.9665 0.7835,-1.75 1.75,-1.75c0.9665,0 1.75,0.7835 1.75,1.75c0,0.9665 -0.7835,1.75 -1.75,1.75c-0.9665,0 -1.75,-0.7835 -1.75,-1.75z" fill="#9d2f3a" stroke="none" stroke-width="0.5"/><path d="M317.17804,262.14444c0,0.53381 -0.33462,0.98948 -0.80554,1.16867c-0.19295,0.12189 -0.42158,0.19244 -0.66668,0.19244c-0.4865,0 -0.90809,-0.27793 -1.11465,-0.68367c-0.57431,-0.28703 -0.96869,-0.88063 -0.96869,-1.56633c0,-0.9665 0.7835,-1.75 1.75,-1.75c0.9665,0 1.75,0.7835 1.75,1.75c0,0.1364 -0.01561,0.26915 -0.04513,0.39658c0.0648,0.15108 0.10068,0.31751 0.10068,0.49231z" fill="#9d2f3a" stroke="none" stroke-width="0.5"/><path d="M321.26138,263.28333c-0.28271,0 -0.5435,-0.09385 -0.75291,-0.2521c-0.3057,0.26111 -0.70243,0.41877 -1.13598,0.41877c-0.9665,0 -1.75,-0.7835 -1.75,-1.75c0,-0.9665 0.7835,-1.75 1.75,-1.75c0.47739,0 0.91014,0.19116 1.22587,0.5011c0.32096,-0.37474 0.79759,-0.61222 1.32968,-0.61222c0.9665,0 1.75,0.7835 1.75,1.75c0,0.9665 -0.7835,1.75 -1.75,1.75c-0.16876,0 -0.33194,-0.02389 -0.48634,-0.06847c-0.05888,0.00851 -0.11909,0.01291 -0.18032,0.01291z" fill="#9d2f3a" stroke="none" stroke-width="0.5"/><path d="M326.90026,264.36667c0,-0.07667 0.0069,-0.15173 0.02012,-0.22458c-0.22599,0.22465 -0.5374,0.36347 -0.88123,0.36347c-0.69036,0 -1.25,-0.55964 -1.25,-1.25c0,-0.22437 0.05911,-0.43493 0.16262,-0.61696c-0.27401,-0.3089 -0.44039,-0.71543 -0.44039,-1.16082c0,-0.9665 0.7835,-1.75 1.75,-1.75c0.9665,0 1.75,0.7835 1.75,1.75c0,0.60178 -0.30375,1.13262 -0.7663,1.44756c0.02874,0.10519 0.04408,0.21591 0.04408,0.33022c0,0.07667 -0.0069,0.15173 -0.02012,0.22458c0.22599,-0.22465 0.5374,-0.36347 0.88123,-0.36347c0.69036,0 1.25,0.55964 1.25,1.25c0,0.69036 -0.55964,1.25 -1.25,1.25c-0.69036,0 -1.25,-0.55964 -1.25,-1.25z" fill="#9d2f3a" stroke="none" stroke-width="0.5"/><path d="M339.78915,262.25556c0,-0.63642 0.47561,-1.16175 1.09078,-1.23995c0.16256,-0.79825 0.86852,-1.39893 1.71478,-1.39893c0.9665,0 1.75,0.7835 1.75,1.75c0,0.9665 -0.7835,1.75 -1.75,1.75c-0.19893,0 -0.3901,-0.03319 -0.56829,-0.09434c-0.22871,0.29405 -0.5859,0.48323 -0.98727,0.48323c-0.69036,0 -1.25,-0.55964 -1.25,-1.25z" fill="#9d2f3a" stroke="none" stroke-width="0.5"/><path d="M300.67804,252.7c0,-0.69036 0.55964,-1.25 1.25,-1.25c0.69036,0 1.25,0.55964 1.25,1.25c0,0.69036 -0.55964,1.25 -1.25,1.25c-0.69036,0 -1.25,-0.55964 -1.25,-1.25z" fill="#942c3b" stroke="none" stroke-width="0.5"/><path d="M316.12249,255.47778c0,-0.69036 0.55964,-1.25 1.25,-1.25c0.69036,0 1.25,0.55964 1.25,1.25c0,0.69036 -0.55964,1.25 -1.25,1.25c-0.69036,0 -1.25,-0.55964 -1.25,-1.25z" fill="#942c3b" stroke="none" stroke-width="0.5"/><path d="M320.90026,255.81111c0,-0.69036 0.55964,-1.25 1.25,-1.25c0.69036,0 1.25,0.55964 1.25,1.25c0,0.69036 -0.55964,1.25 -1.25,1.25c-0.69036,0 -1.25,-0.55964 -1.25,-1.25z" fill="#942c3b" stroke="none" stroke-width="0.5"/><path d="M325.45582,254.25556c0,-0.69036 0.55964,-1.25 1.25,-1.25c0.69036,0 1.25,0.55964 1.25,1.25c0,0.69036 -0.55964,1.25 -1.25,1.25c-0.69036,0 -1.25,-0.55964 -1.25,-1.25z" fill="#942c3b" stroke="none" stroke-width="0.5"/><path d="M341.12249,254.92222c0,-0.69036 0.55964,-1.25 1.25,-1.25c0.69036,0 1.25,0.55964 1.25,1.25c0,0.69036 -0.55964,1.25 -1.25,1.25c-0.69036,0 -1.25,-0.55964 -1.25,-1.25z" fill="#942c3b" stroke="none" stroke-width="0.5"/><path d="M306.12249,263.58889c0,-0.69036 0.55964,-1.25 1.25,-1.25c0.69036,0 1.25,0.55964 1.25,1.25c0,0.69036 -0.55964,1.25 -1.25,1.25c-0.69036,0 -1.25,-0.55964 -1.25,-1.25z" fill="#9d2f3a" stroke="none" stroke-width="0.5"/><path d="M313.03915,263.89444c0.69036,0 1.25,0.55964 1.25,1.25c0,0.69036 -0.55964,1.25 -1.25,1.25c-0.07584,0 -0.1501,-0.00675 -0.22222,-0.01969c-0.07212,0.01294 -0.14638,0.01969 -0.22222,0.01969c-0.69036,0 -1.25,-0.55964 -1.25,-1.25c0,-0.69036 0.55964,-1.25 1.25,-1.25c0.07584,0 0.1501,0.00675 0.22222,0.01969c0.07212,-0.01294 0.14638,-0.01969 0.22222,-0.01969z" fill="#9d2f3a" stroke="none" stroke-width="0.5"/><path d="M333.12249,261.25556c0,-0.69036 0.55964,-1.25 1.25,-1.25c0.34808,0 0.66294,0.14228 0.88958,0.37185c0.3154,-0.45942 0.84439,-0.76074 1.44376,-0.76074c0.9665,0 1.75,0.7835 1.75,1.75c0,0.9665 -0.7835,1.75 -1.75,1.75c-0.65894,0 -1.23282,-0.36419 -1.53133,-0.90227c-0.21706,0.18175 -0.49675,0.29116 -0.802,0.29116c-0.12419,0 -0.24416,-0.01811 -0.35739,-0.05184c0.03373,0.11324 0.05184,0.2332 0.05184,0.35739c0,0.62988 -0.46589,1.15095 -1.07188,1.23741c0.11608,0.18971 0.18299,0.41279 0.18299,0.65148c0,0.69036 -0.55964,1.25 -1.25,1.25c-0.69036,0 -1.25,-0.55964 -1.25,-1.25c0,-0.62988 0.46589,-1.15095 1.07188,-1.23741c-0.11608,-0.18971 -0.18299,-0.41279 -0.18299,-0.65148c0,-0.10888 0.01392,-0.21452 0.04008,-0.31522c-0.10888,0.10837 -0.23195,0.2025 -0.36617,0.27936c-0.64198,0.44665 -1.394,0.62292 -1.75654,-0.01153c-0.5158,-0.30441 -0.86182,-0.86589 -0.86182,-1.50818c0,-0.9665 0.7835,-1.75 1.75,-1.75c0.17212,0 0.33844,0.02485 0.49556,0.07115c0.79343,-0.17182 1.47667,0.18767 1.47667,1.67885c0,0.13848 -0.048,0.29648 -0.13201,0.46103c0.17909,-0.09908 0.38507,-0.15548 0.60423,-0.15548c0.12419,0 0.24416,0.01811 0.35739,0.05184c-0.03373,-0.11324 -0.05184,-0.2332 -0.05184,-0.35739z" fill="#9d2f3a" stroke="none" stroke-width="0.5"/><path d="M341.67804,265.14444c0,-0.69036 0.55964,-1.25 1.25,-1.25c0.69036,0 1.25,0.55964 1.25,1.25c0,0.69036 -0.55964,1.25 -1.25,1.25c-0.69036,0 -1.25,-0.55964 -1.25,-1.25z" fill="#9d2f3a" stroke="none" stroke-width="0.5"/><path d="M294.7336,256.03333c0,-0.41421 0.33579,-0.75 0.75,-0.75c0.41421,0 0.75,0.33579 0.75,0.75c0,0.41421 -0.33579,0.75 -0.75,0.75c-0.41421,0 -0.75,-0.33579 -0.75,-0.75z" fill="#942c3b" stroke="none" stroke-width="0.5"/><path d="M297.95582,257.47778c0,-0.41421 0.33579,-0.75 0.75,-0.75c0.41421,0 0.75,0.33579 0.75,0.75c0,0.41421 -0.33579,0.75 -0.75,0.75c-0.41421,0 -0.75,-0.33579 -0.75,-0.75z" fill="#942c3b" stroke="none" stroke-width="0.5"/><path d="M304.17804,258.25556c0,-0.41421 0.33579,-0.75 0.75,-0.75c0.41421,0 0.75,0.33579 0.75,0.75c0,0.41421 -0.33579,0.75 -0.75,0.75c-0.41421,0 -0.75,-0.33579 -0.75,-0.75z" fill="#942c3b" stroke="none" stroke-width="0.5"/><path d="M307.06693,256.58889c0,-0.41421 0.33579,-0.75 0.75,-0.75c0.41421,0 0.75,0.33579 0.75,0.75c0,0.41421 -0.33579,0.75 -0.75,0.75c-0.41421,0 -0.75,-0.33579 -0.75,-0.75z" fill="#942c3b" stroke="none" stroke-width="0.5"/><path d="M313.40026,257.7c0,-0.41421 0.33579,-0.75 0.75,-0.75c0.41421,0 0.75,0.33579 0.75,0.75c0,0.41421 -0.33579,0.75 -0.75,0.75c-0.41421,0 -0.75,-0.33579 -0.75,-0.75z" fill="#942c3b" stroke="none" stroke-width="0.5"/><path d="M319.62249,258.7c0,-0.41421 0.33579,-0.75 0.75,-0.75c0.41421,0 0.75,0.33579 0.75,0.75c0,0.41421 -0.33579,0.75 -0.75,0.75c-0.41421,0 -0.75,-0.33579 -0.75,-0.75z" fill="#942c3b" stroke="none" stroke-width="0.5"/><path d="M328.06693,257.81111c0,-0.41421 0.33579,-0.75 0.75,-0.75c0.41421,0 0.75,0.33579 0.75,0.75c0,0.41421 -0.33579,0.75 -0.75,0.75c-0.41421,0 -0.75,-0.33579 -0.75,-0.75z" fill="#942c3b" stroke="none" stroke-width="0.5"/><path d="M331.62249,257.47778c0,-0.41421 0.33579,-0.75 0.75,-0.75c0.41421,0 0.75,0.33579 0.75,0.75c0,0.41421 -0.33579,0.75 -0.75,0.75c-0.41421,0 -0.75,-0.33579 -0.75,-0.75z" fill="#942c3b" stroke="none" stroke-width="0.5"/><path d="M340.40026,258.36667c0,-0.41421 0.33579,-0.75 0.75,-0.75c0.41421,0 0.75,0.33579 0.75,0.75c0,0.41421 -0.33579,0.75 -0.75,0.75c-0.41421,0 -0.75,-0.33579 -0.75,-0.75z" fill="#942c3b" stroke="none" stroke-width="0.5"/><path d="M299.06693,268.36667c0,-0.41421 0.33579,-0.75 0.75,-0.75c0.41421,0 0.75,0.33579 0.75,0.75c0,0.41421 -0.33579,0.75 -0.75,0.75c-0.41421,0 -0.75,-0.33579 -0.75,-0.75z" fill="#9d2f3a" stroke="none" stroke-width="0.5"/><path d="M302.40026,266.25556c0,-0.41421 0.33579,-0.75 0.75,-0.75c0.41421,0 0.75,0.33579 0.75,0.75c0,0.41421 -0.33579,0.75 -0.75,0.75c-0.41421,0 -0.75,-0.33579 -0.75,-0.75z" fill="#9d2f3a" stroke="none" stroke-width="0.5"/><path d="M312.62249,268.81111c0,-0.41421 0.33579,-0.75 0.75,-0.75c0.41421,0 0.75,0.33579 0.75,0.75c0,0.41421 -0.33579,0.75 -0.75,0.75c-0.41421,0 -0.75,-0.33579 -0.75,-0.75z" fill="#9d2f3a" stroke="none" stroke-width="0.5"/><path d="M318.7336,269.14444c0,-0.41421 0.33579,-0.75 0.75,-0.75c0.41421,0 0.75,0.33579 0.75,0.75c0,0.41421 -0.33579,0.75 -0.75,0.75c-0.41421,0 -0.75,-0.33579 -0.75,-0.75z" fill="#9d2f3a" stroke="none" stroke-width="0.5"/><path d="M327.62249,267.58889c0,-0.41421 0.33579,-0.75 0.75,-0.75c0.41421,0 0.75,0.33579 0.75,0.75c0,0.41421 -0.33579,0.75 -0.75,0.75c-0.41421,0 -0.75,-0.33579 -0.75,-0.75z" fill="#9d2f3a" stroke="none" stroke-width="0.5"/><path d="M341.17804,267.7c0,-0.41421 0.33579,-0.75 0.75,-0.75c0.41421,0 0.75,0.33579 0.75,0.75c0,0.41421 -0.33579,0.75 -0.75,0.75c-0.41421,0 -0.75,-0.33579 -0.75,-0.75z" fill="#9d2f3a" stroke="none" stroke-width="0.5"/></g><path d="M214.52362,306.61252v-267.72501h213.18203v267.72501z" fill="none" stroke="none" stroke-width="0" stroke-linecap="butt"/><path d="" fill="none" stroke="#000000" stroke-width="2" stroke-linecap="round"/><path d="" fill-opacity="0.73333" fill="#2d7a1a" stroke="none" stroke-width="0" stroke-linecap="butt"/><g><path d="M261.11564,152.73563c0.90261,-31.41112 28.76137,-56.09535 62.22424,-55.13378c33.46288,0.96157 59.85822,27.20482 58.9556,58.61593c-0.59552,20.72425 -12.92511,38.52027 -30.85643,47.95453c-2.65869,1.39882 -9.16808,20.74098 -12.05308,21.75444c-7.14874,2.51125 -11.70803,3.22226 -19.81946,2.98917c-8.708,-0.25022 -15.94696,-2.88269 -23.34124,-6.20255c-1.91284,-0.85883 -4.25554,-18.7027 -6.05045,-19.73709c-17.92922,-10.33258 -29.66616,-29.11818 -29.0592,-50.24064z" fill="#a93232" stroke="#000000" stroke-width="0" stroke-linecap="butt"/><path d="M299.93272,220.38723l-0.48833,-20.56272l41.94882,1.84798l-2.73036,19.6914z" fill="#7c2532" stroke="none" stroke-width="0" stroke-linecap="butt"/><g fill="#fff8f7" stroke="none" stroke-width="0" stroke-linecap="butt"><path d="M316.42948,225.37078c-1.5298,-0.04396 -2.6958,-2.66058 -2.6043,-5.84438c0.00638,-0.22198 5.54501,-0.01847 5.53991,0.1592c-0.09149,3.18381 -1.4058,5.72914 -2.93561,5.68518z"/><path d="M311.63604,224.79825c-1.53009,-0.01754 -2.78954,-2.61462 -2.81306,-5.80074c-0.00164,-0.22214 5.5396,-0.11425 5.54092,0.06354c0.02353,3.18612 -1.19777,5.75475 -2.72786,5.73719z"/><path d="M302.37366,223.28434c-1.41298,0.07247 -2.88902,-2.25868 -3.29681,-5.20676c-0.02843,-0.20556 5.09411,-0.42693 5.11687,-0.26241c0.40779,2.94808 -0.40708,5.3967 -1.82006,5.46917z"/><path d="M306.84841,224.00288c-1.45373,0.03223 -2.82293,-2.3982 -3.05818,-5.42852c-0.01641,-0.21127 5.2513,-0.28581 5.26443,-0.11671c0.23525,3.03032 -0.7525,5.513 -2.20622,5.54523z"/><path d="M319.22084,219.68144c0.0051,-0.17767 5.54627,-0.06279 5.5399,0.15919c-0.09149,3.18381 -1.4058,5.72914 -2.93561,5.68518c-1.5298,-0.04396 -2.69579,-2.66058 -2.6043,-5.84438z"/><path d="M324.35001,219.49262c0.01152,-0.17743 5.54982,0.03305 5.53543,0.25474c-0.20645,3.17951 -1.61296,5.69998 -3.14152,5.62963c-1.52857,-0.07034 -2.60035,-2.70487 -2.3939,-5.88437z"/><path d="M334.57701,218.76056c0.03217,-0.16293 5.13356,0.35223 5.09336,0.55581c-0.57641,2.9198 -2.18386,5.16233 -3.59036,5.00885c-1.40649,-0.15348 -2.07942,-2.64485 -1.50301,-5.56465z"/><path d="M329.68933,219.05061c0.02281,-0.16806 5.27754,0.20883 5.24903,0.41882c-0.40887,3.01181 -1.91538,5.35961 -3.36487,5.24395c-1.44947,-0.11565 -2.29305,-2.65096 -1.88415,-5.66277z"/></g><g fill="#fff8f7" stroke="none" stroke-width="0" stroke-linecap="butt"><path d="M320.03398,203.3534c-0.00623,0.21673 -5.89854,0.10151 -5.89077,-0.16927c0.1116,-3.88381 1.52077,-6.99436 3.14745,-6.94761c1.62668,0.04675 2.85491,3.23309 2.7433,7.11689z"/><path d="M314.59364,203.07793c-0.01305,0.21646 -5.90188,-0.01538 -5.88556,-0.28584c0.23384,-3.87908 1.74095,-6.9597 3.3662,-6.88077c1.62525,0.07894 2.75321,3.28753 2.51938,7.16661z"/><path d="M303.77256,201.98968c-0.03494,0.19888 -5.45777,-0.40656 -5.41411,-0.65505c0.6261,-3.56396 2.34567,-6.30649 3.84071,-6.12559c1.49507,0.18089 2.19949,3.21668 1.57339,6.78065z"/><path d="M308.93629,202.84786c-0.02502,0.20511 -5.61153,-0.231 -5.58026,-0.48725c0.44838,-3.67544 2.06105,-6.54589 3.60198,-6.41135c1.54095,0.13455 2.42665,3.22316 1.97828,6.8986z"/><path d="M323.13919,196.40457c1.62669,0.04675 2.85492,3.23308 2.74331,7.11689c-0.00778,0.27079 -5.89699,0.04746 -5.89077,-0.16927c0.1116,-3.88381 1.52077,-6.99436 3.14745,-6.94761z"/><path d="M328.36567,196.37945c1.62711,0.01452 2.95481,3.17661 2.96553,7.06273c0.00073,0.27094 -5.89168,0.16425 -5.89227,-0.05261c-0.0107,-3.88611 1.29964,-7.02465 2.92676,-7.01012z"/><path d="M338.26479,196.24539c1.50299,-0.09474 3.06221,2.74201 3.48263,6.33605c0.02931,0.25058 -5.41934,0.54363 -5.44279,0.34307c-0.42041,-3.59404 0.45717,-6.58438 1.96016,-6.67911z"/><path d="M333.47131,196.71112c1.54613,-0.04585 2.99131,2.91249 3.22788,6.60761c0.01649,0.25764 -5.58584,0.37221 -5.59903,0.16601c-0.23657,-3.69512 0.82504,-6.72777 2.37116,-6.77362z"/></g><path d="M303.1325,194.17634c-0.2119,0.13265 -0.34456,-0.07927 -0.34456,-0.07927l-0.18123,-0.2897c-0.79754,-1.22165 -2.39911,-0.06057 -3.1194,0.61993c0,0 -0.18178,0.17163 -0.35341,-0.01015c-0.17163,-0.18178 0.01015,-0.35341 0.01015,-0.35341c1.0122,-0.95503 2.80006,-1.98327 3.87894,-0.53331l0.18876,0.30135c0,0 0.13265,0.2119 -0.07927,0.34456z" fill="#872929" stroke="none" stroke-width="0.5" stroke-linecap="butt"/><path d="M307.53009,194.53819c-0.14526,-0.00418 -0.20366,-0.09036 -0.22709,-0.1618c-0.819,-0.2336 -1.82362,0.05376 -2.63191,0.17258c0,0 -0.24734,0.03636 -0.2837,-0.21099c-0.03637,-0.24734 0.21099,-0.2837 0.21099,-0.2837c0.96911,-0.14245 2.07481,-0.43568 3.02752,-0.09745l0.16128,0.33865c0,0 -0.00718,0.2499 -0.25707,0.24272z" fill="#872929" stroke="none" stroke-width="0.5" stroke-linecap="butt"/><path d="M313.34073,194.31821c-0.17839,-0.00513 -0.22578,-0.13394 -0.23828,-0.20723c-0.59762,-0.29969 -1.8221,0.1492 -2.33944,0.47811c0,0 -0.2119,0.13265 -0.34456,-0.07927c-0.13265,-0.2119 0.07927,-0.34456 0.07927,-0.34456c0.7694,-0.47541 2.21431,-0.92337 2.99758,-0.39755l0.10253,0.30778c0,0 -0.00718,0.2499 -0.25707,0.24272z" fill="#872929" stroke="none" stroke-width="0.5" stroke-linecap="butt"/><path d="M317.83843,194.43517c0.04534,0.24585 -0.20051,0.29119 -0.20051,0.29119l-0.37815,0.06974c-0.74133,0.13671 -0.8536,0.11484 -1.34133,0.66707c0,0 -0.16551,0.18739 -0.35287,0.02188c-0.18738,-0.16551 -0.02188,-0.35287 -0.02188,-0.35287c0.53879,-0.61003 0.81569,-0.67846 1.62542,-0.82779l0.37814,-0.06974c0,0 0.24585,-0.04534 0.29119,0.20051z" fill="#872929" stroke="none" stroke-width="0.5" stroke-linecap="butt"/><path d="M324.71531,195.15224c-0.18178,0.17163 -0.35341,-0.01016 -0.35341,-0.01016l-0.042,-0.05746c-1.13063,-0.70335 -2.29083,-0.09304 -3.37145,0.30495c0,0 -0.2347,0.08614 -0.32084,-0.14854c-0.08614,-0.23469 0.14855,-0.32083 0.14855,-0.32083c1.25511,-0.45901 2.50113,-1.04022 3.80353,-0.26278l0.14577,0.14142c0,0 0.17163,0.18178 -0.01015,0.35341z" fill="#872929" stroke="none" stroke-width="0.5" stroke-linecap="butt"/><path d="M331.68308,195.06225c-0.18178,0.17163 -0.35341,-0.01015 -0.35341,-0.01015l-0.13574,-0.15681c-1.4593,-0.34506 -2.49571,0.17467 -3.86599,0.67762c0,0 -0.2347,0.08614 -0.32084,-0.14854c-0.08614,-0.23469 0.14854,-0.32084 0.14854,-0.32084c1.50394,-0.55201 2.69494,-1.13925 4.29781,-0.63561l0.23977,0.24092c0,0 0.17163,0.18178 -0.01015,0.35341z" fill="#872929" stroke="none" stroke-width="0.5" stroke-linecap="butt"/><path d="M335.25391,195.35833c-0.18178,0.17163 -0.35341,-0.01015 -0.35341,-0.01015l-0.10825,-0.14237c-0.55391,0.03819 -0.93632,0.09084 -1.47706,0.25398c0,0 -0.23934,0.07221 -0.31156,-0.16713c-0.07221,-0.23934 0.16712,-0.31156 0.16712,-0.31156c0.65849,-0.19867 1.13606,-0.28548 1.82602,-0.23155l0.26728,0.25538c0,0 0.17163,0.18178 -0.01015,0.35341z" fill="#872929" stroke="none" stroke-width="0.5" stroke-linecap="butt"/><path d="M339.60912,195.29001c-0.18178,0.17163 -0.35341,-0.01015 -0.35341,-0.01015l-0.0567,-0.06712c-1.18675,-0.85395 -1.83808,0.08044 -2.98683,0.42704c0,0 -0.23934,0.07221 -0.31156,-0.16713c-0.07221,-0.23934 0.16712,-0.31156 0.16712,-0.31156c1.3103,-0.39533 2.038,-1.32438 3.42044,-0.35624l0.13107,0.13175c0,0 0.17163,0.18178 -0.01015,0.35341z" fill="#872929" stroke="none" stroke-width="0.5" stroke-linecap="butt"/><path d="M302.50548,223.29577c0.17163,0.18178 -0.01015,0.35341 -0.01015,0.35341l-0.27825,0.16199c-0.93538,-0.02688 -2.16973,-0.09097 -2.61379,-0.98727c0,0 -0.10533,-0.22673 0.12139,-0.33206c0.22673,-0.10533 0.33206,0.12139 0.33206,0.12139c0.28681,0.68095 1.4849,0.67833 2.1747,0.69815l-0.07938,-0.02577c0,0 0.18178,-0.17163 0.3534,0.01015z" fill="#872929" stroke="none" stroke-width="0.5" stroke-linecap="butt"/><path d="M307.66597,224.68504c-0.00718,0.2499 -0.25707,0.24272 -0.25707,0.24272l-0.14417,-0.00899c-0.92298,0.15494 -1.31864,-0.07739 -2.09599,-0.57471c0,0 -0.21059,-0.13472 -0.07586,-0.34532c0.13472,-0.21059 0.34532,-0.07586 0.34532,-0.07586c0.68232,0.43653 0.94151,0.64154 1.74259,0.50299l0.24247,0.00211c0,0 0.2499,0.00718 0.24272,0.25707z" fill="#872929" stroke="none" stroke-width="0.5" stroke-linecap="butt"/><path d="M313.05109,225.80716c-0.00718,0.2499 -0.25707,0.24272 -0.25707,0.24272l-0.29478,-0.00852c-0.69735,-0.04771 -1.34276,-0.21832 -1.99592,-0.4571c0,0 -0.2348,-0.08583 -0.14896,-0.32063c0.08584,-0.2348 0.32063,-0.14896 0.32063,-0.14896c0.60488,0.22112 1.20178,0.38463 1.84821,0.42727l0.28517,0.00814c0,0 0.2499,0.00718 0.24272,0.25707z" fill="#872929" stroke="none" stroke-width="0.5" stroke-linecap="butt"/><path d="M317.30186,225.56c0.07221,0.23934 -0.16713,0.31156 -0.16713,0.31156l-0.33203,0.0968c-0.86953,-0.02499 -1.06607,0.16007 -1.88543,-0.27082c0,0 -0.22031,-0.11818 -0.10212,-0.33848c0.11818,-0.22031 0.33848,-0.10212 0.33848,-0.10212c0.46761,0.25497 1.0508,0.20049 1.58319,0.21579l0.25349,-0.07985c0,0 0.23934,-0.07221 0.31156,0.16712z" fill="#872929" stroke="none" stroke-width="0.5" stroke-linecap="butt"/><path d="M323.49009,225.85299c0.05363,0.24418 -0.19054,0.29782 -0.19054,0.29782l-0.41655,0.08996c-1.5421,-0.01871 -2.43084,0.52701 -3.83953,-0.5416c0,0 -0.19917,-0.15109 -0.04808,-0.35027c0.1511,-0.19917 0.35027,-0.04808 0.35027,-0.04808c1.27198,0.96492 2.07891,0.44784 3.48433,0.44276l0.36227,-0.08114c0,0 0.24419,-0.05364 0.29782,0.19054z" fill="#872929" stroke="none" stroke-width="0.5" stroke-linecap="butt"/><path d="M327.65214,226.03326c-0.00718,0.2499 -0.25708,0.24271 -0.25708,0.24271l-0.28998,-0.00833c-0.70955,-0.02332 -1.52796,-0.12871 -2.19682,-0.36618c0,0 -0.2348,-0.08584 -0.14896,-0.32064c0.08584,-0.2348 0.32064,-0.14896 0.32064,-0.14896c0.60079,0.22794 1.39835,0.32072 2.03951,0.33599l0.28998,0.00833c0,0 0.2499,0.00718 0.24272,0.25707z" fill="#872929" stroke="none" stroke-width="0.5" stroke-linecap="butt"/><path d="M332.40492,225.33526c0.05363,0.24418 -0.19054,0.29782 -0.19054,0.29782l-0.41964,0.09028c-0.61685,-0.01496 -1.03777,-0.34029 -1.5688,-0.33342c0,0 -0.2499,-0.00719 -0.24271,-0.25708c0.00718,-0.2499 0.25707,-0.24272 0.25707,-0.24272c0.59946,0.03376 0.88499,0.31424 1.50763,0.33542l0.35918,-0.08082c0,0 0.24419,-0.05364 0.29782,0.19054z" fill="#872929" stroke="none" stroke-width="0.5" stroke-linecap="butt"/><path d="M337.25176,224.99085c0.05363,0.24418 -0.19054,0.29782 -0.19054,0.29782l-0.38008,0.0833c-0.78504,0.22912 -1.35261,0.00681 -2.07643,-0.25601c0,0 -0.2348,-0.08583 -0.14896,-0.32063c0.08584,-0.2348 0.32063,-0.14896 0.32063,-0.14896c0.61983,0.22796 1.10029,0.45466 1.77882,0.24173l0.39875,-0.08778c0,0 0.24419,-0.05364 0.29782,0.19054z" fill="#872929" stroke="none" stroke-width="0.5" stroke-linecap="butt"/><g><g fill="#a2f30f" stroke="#000000" stroke-width="0"><path d="M257.22662,148.11324c0.95655,-33.28811 30.48002,-59.44736 65.9425,-58.42833c35.4625,1.01903 63.43508,28.83046 62.47853,62.11856c-0.39369,13.70061 -5.62648,26.19363 -14.12079,36.08121c-0.79832,0.92927 2.23176,5.85423 2.23176,5.85423c0,0 -4.38907,-2.415 -8.74454,-2.02492c-1.51685,0.13585 -2.96534,3.34421 -2.96534,3.34421c0,0 -5.67328,-1.90667 -8.29901,-1.71661c-1.64433,0.11902 -4.94788,4.64883 -4.94788,4.64883c0,0 -3.31228,-3.43793 -3.92828,-3.42633c-1.03172,0.01942 -5.47977,6.00636 -5.47977,6.00636l-4.34786,-5.1415l-5.48213,5.28158c0,0 -1.47045,-8.75986 -2.23411,-8.75554c-1.21321,0.00683 -2.70361,4.56163 -2.70361,4.56163c0,0 -2.97321,-3.49048 -4.57155,-3.84353c-1.7508,-0.38674 -3.60838,2.83735 -3.60838,2.83735c0,0 -4.11392,-3.11442 -4.31445,-3.11763c-1.2143,-0.0195 -5.46439,1.88059 -5.46439,1.88059c0,0 -4.50432,-1.90793 -5.74817,-1.92833c-1.86446,-0.03057 -6.5166,3.834 -6.5166,3.834c0,0 -3.97346,-5.72738 -5.4362,-5.76071c-2.43909,-0.0556 -7.49463,2.98223 -7.49463,2.98223c0,0 -1.88063,-3.89502 -3.48091,-3.93303c-1.10626,-0.02627 -3.86222,5.43325 -3.86222,5.43325c0,0 0.05448,-4.86494 -0.83956,-5.75561c-1.03253,-1.02864 -4.35258,2.10493 -4.35258,2.10493c0,0 1.12044,-5.26969 0.77401,-5.71188c-8.19639,-10.46265 -12.88511,-23.46201 -12.48388,-37.42499z" stroke-linecap="butt"/><path d="M258.12199,160.50432l-17.46533,-62.04161l13.04722,8.23682l-2.26666,-53.20076l47.4532,27.93139l-4.97853,-34.30167l19.47665,20.34998l4.43676,-12.88532l13.15308,23.42147l15.21111,-19.89541l33.08275,65.74358" stroke-linecap="round"/></g><g fill="#75f20f" stroke="#000000" stroke-width="0"><path d="M250.10657,131.30179c0.95655,-33.28811 37.60006,-42.63591 73.06255,-41.61688c28.4987,0.81892 52.16027,18.94091 59.85775,43.30311c0.07308,0.23131 -132.9203,-1.68622 -132.9203,-1.68622z" stroke-linecap="butt"/><path d="M249.8249,131.03081c-2.97981,-10.58512 -9.16824,-32.56809 -9.16824,-32.56809l13.04722,8.23682l-2.26666,-53.20076l47.4532,27.93139l-4.97853,-34.30167l19.47665,20.34998l4.43676,-12.88532l13.15308,23.42147l15.21111,-19.89541l33.08275,65.74358" stroke-linecap="round"/></g><g fill="#33965e" stroke="#000000" stroke-width="0" stroke-linecap="round"><path d="M244.98083,114.26089c-2.11213,-7.50288 -4.32416,-15.79818 -4.32416,-15.79818l13.04722,8.23682l-2.26666,-53.20076l47.4532,27.9314l-4.97853,-34.30167l19.47665,20.34997l4.43676,-12.88532l13.15308,23.42147l15.21111,-19.89541c0,0 24.11412,47.52916 29.33874,57.91178"/></g><g fill="#2d7a1a" stroke="#000000" stroke-width="0" stroke-linecap="round"><path d="M253.14882,93.67145c-0.41403,-9.71762 -1.71159,-40.17268 -1.71159,-40.17268l47.4532,27.93139l-4.97853,-34.30167l19.47665,20.34998l4.43676,-12.88532l13.15308,23.42147l15.21111,-19.89541c0,0 10.81158,21.48529 19.16534,38.08624"/></g><path d="M314.97485,161.32471l-4.97067,14.49658" fill="none" stroke="#81c10c" stroke-width="2" stroke-linecap="round"/><path d="M330.6297,175.05846l-4.18458,-14.75965" fill="none" stroke="#81c10c" stroke-width="2" stroke-linecap="round"/><path d="M270.739,152.30155c0.37249,-12.96266 11.18276,-23.169 24.14542,-22.79651c12.96266,0.37249 23.169,11.18275 22.79652,24.14541c-0.37249,12.96266 -11.18275,23.16901 -24.14541,22.79652c-12.96266,-0.37249 -23.16901,-11.18275 -22.79652,-24.14542z" fill="#81c10c" stroke="none" stroke-width="0" stroke-linecap="butt"/><path d="M347.7716,178.00549c-12.96266,-0.37249 -23.169,-11.18276 -22.79652,-24.14542c0.37249,-12.96266 11.18275,-23.169 24.14541,-22.79651c12.96266,0.37249 23.16901,11.18275 22.79652,24.14541c-0.37249,12.96266 -11.18275,23.16901 -24.14542,22.79653z" fill="#81c10c" stroke="none" stroke-width="0" stroke-linecap="butt"/><path d="M270.84019,148.78016c0.37249,-12.96266 11.18276,-23.169 24.14542,-22.79652c12.96266,0.37249 23.169,11.18275 22.79652,24.14541c-0.37249,12.96266 -11.18275,23.16901 -24.14541,22.79652c-12.96266,-0.37249 -23.16901,-11.18275 -22.79652,-24.14542z" fill="#ffffff" stroke="#000000" stroke-width="0" stroke-linecap="butt"/><path d="M347.87279,174.4841c-12.96266,-0.37249 -23.169,-11.18276 -22.79652,-24.14542c0.37249,-12.96266 11.18275,-23.169 24.14541,-22.79651c12.96266,0.37249 23.16901,11.18274 22.79653,24.14541c-0.37249,12.96266 -11.18275,23.16901 -24.14542,22.79652z" fill="#ffffff" stroke="#000000" stroke-width="0" stroke-linecap="butt"/><path d="M258.35392,92.90058c0.9661,0.02776 1.72677,0.83344 1.69901,1.79954c-0.02776,0.9661 -0.83344,1.72677 -1.79954,1.69901c-0.85264,-0.0245 -1.54527,-0.65493 -1.67711,-1.46679c-0.32384,0.48239 -0.88066,0.79304 -1.50434,0.77512c-0.9661,-0.02776 -1.72677,-0.83344 -1.69902,-1.79954c0.02776,-0.9661 0.83344,-1.72677 1.79955,-1.69901c0.85264,0.0245 1.54527,0.65493 1.67711,1.46679c0.32384,-0.48239 0.88066,-0.79304 1.50434,-0.77512z" fill="#2d7a1a" stroke="none" stroke-width="0.5" stroke-linecap="butt"/><path d="M268.34405,93.38774c0.9661,0.02776 1.72677,0.83344 1.69902,1.79954c-0.02776,0.9661 -0.83344,1.72677 -1.79955,1.69902c-0.72014,-0.02069 -1.32615,-0.47364 -1.57654,-1.10308c-0.07582,-0.04515 -0.14641,-0.09809 -0.21067,-0.15766c-0.05845,0.00419 -0.11767,0.00549 -0.17749,0.00377c-0.9661,-0.02776 -1.72677,-0.83344 -1.69901,-1.79954c0.02776,-0.9661 0.83344,-1.72677 1.79954,-1.69901c0.78538,0.02257 1.435,0.55924 1.63564,1.27825c0.10689,-0.01713 0.21689,-0.02453 0.32906,-0.0213z" fill="#2d7a1a" stroke="none" stroke-width="0.5" stroke-linecap="butt"/><path d="M282.17254,94.33533c0.02776,-0.9661 0.83344,-1.72677 1.79954,-1.69901c0.9661,0.02776 1.72677,0.83344 1.69901,1.79954c-0.02776,0.9661 -0.83344,1.72677 -1.79954,1.69901c-0.9661,-0.02776 -1.72677,-0.83344 -1.69901,-1.79954z" fill="#2d7a1a" stroke="none" stroke-width="0.5" stroke-linecap="butt"/><path d="M294.58466,94.09176c0.02776,-0.9661 0.83344,-1.72677 1.79954,-1.69901c0.9661,0.02776 1.72677,0.83344 1.69901,1.79954c-0.02776,0.9661 -0.83344,1.72677 -1.79954,1.69901c-0.9661,-0.02776 -1.72677,-0.83344 -1.69901,-1.79954z" fill="#2d7a1a" stroke="none" stroke-width="0.5" stroke-linecap="butt"/><path d="M307.37363,94.65933c-0.01983,0.69008 -0.59532,1.23341 -1.28538,1.21358c-0.41345,-0.01188 -0.77422,-0.22322 -0.99276,-0.53918c-0.06328,0.00507 -0.12746,0.00677 -0.19238,0.00491c-0.9661,-0.02776 -1.72677,-0.83344 -1.69901,-1.79954c0.02776,-0.9661 0.83344,-1.72677 1.79954,-1.69902c0.9241,0.02655 1.66026,0.76487 1.69821,1.67451c0.41098,0.2145 0.686,0.6502 0.67179,1.14473z" fill="#2d7a1a" stroke="none" stroke-width="0.5" stroke-linecap="butt"/><path d="M318.95765,93.64164c0.9661,0.02776 1.72677,0.83344 1.69901,1.79954c-0.02776,0.9661 -0.83344,1.72677 -1.79954,1.69901c-0.61797,-0.01776 -1.15187,-0.3538 -1.44916,-0.84653c-0.04205,0.0018 -0.08447,0.00212 -0.1272,0.0009c-0.9661,-0.02776 -1.72677,-0.83344 -1.69901,-1.79954c0.02776,-0.9661 0.83344,-1.72677 1.79954,-1.69901c0.61797,0.01776 1.15187,0.3538 1.44916,0.84653c0.04205,-0.0018 0.08447,-0.00212 0.1272,-0.0009z" fill="#2d7a1a" stroke="none" stroke-width="0.5" stroke-linecap="butt"/><path d="M330.35266,95.71981c0.02118,-0.73686 0.49488,-1.35421 1.14714,-1.59337c0.32673,-0.31434 0.77464,-0.50228 1.26364,-0.48824c0.9661,0.02776 1.72677,0.83344 1.69901,1.79954c-0.02118,0.73686 -0.49488,1.35421 -1.14714,1.59337c-0.32673,0.31434 -0.77464,0.50228 -1.26364,0.48824c-0.9661,-0.02776 -1.72677,-0.83344 -1.69901,-1.79954z" fill="#2d7a1a" stroke="none" stroke-width="0.5" stroke-linecap="butt"/><path d="M346.75193,94.24024c0.9661,0.02776 1.72677,0.83344 1.69901,1.79954c-0.02776,0.9661 -0.83344,1.72677 -1.79954,1.69901c-0.36833,-0.01058 -0.70679,-0.13424 -0.98309,-0.33675c-0.19122,0.06463 -0.39694,0.09701 -0.61051,0.09087c-0.9661,-0.02776 -1.72677,-0.83344 -1.69902,-1.79954c0.02776,-0.9661 0.83344,-1.72677 1.79955,-1.69901c0.36833,0.01058 0.70679,0.13423 0.98309,0.33675c0.19122,-0.06463 0.39694,-0.09701 0.61051,-0.09087z" fill="#2d7a1a" stroke="none" stroke-width="0.5" stroke-linecap="butt"/><path d="M348.95647,95.85423c0.02776,-0.9661 0.83344,-1.72677 1.79954,-1.69901c0.9661,0.02776 1.72677,0.83344 1.69901,1.79954c-0.02776,0.9661 -0.83344,1.72677 -1.79954,1.69901c-0.9661,-0.02776 -1.72677,-0.83344 -1.69901,-1.79954z" fill="#2d7a1a" stroke="none" stroke-width="0.5" stroke-linecap="butt"/><path d="M361.75119,96.22189c0.02776,-0.9661 0.83344,-1.72677 1.79954,-1.69901c0.9661,0.02776 1.72677,0.83344 1.69901,1.79954c-0.02776,0.9661 -0.83344,1.72677 -1.79954,1.69901c-0.9661,-0.02776 -1.72677,-0.83344 -1.69901,-1.79954z" fill="#2d7a1a" stroke="none" stroke-width="0.5" stroke-linecap="butt"/><path d="M353.26618,95.57791c0.01983,-0.69008 0.59532,-1.23341 1.28538,-1.21358c0.68572,0.0197 1.22655,0.58808 1.21389,1.27236c0.30867,-0.54841 0.90361,-0.91138 1.57634,-0.89205c0.9661,0.02776 1.72677,0.83344 1.69902,1.79954c-0.02776,0.9661 -0.83344,1.72677 -1.79955,1.69901c-0.9661,-0.02776 -1.72677,-0.83344 -1.69901,-1.79954c0.00125,-0.04328 0.00404,-0.08616 0.00836,-0.12856c-0.23183,0.34145 -0.62772,0.56096 -1.07085,0.54822c-0.69008,-0.01983 -1.23341,-0.59532 -1.21358,-1.28538z" fill="#2d7a1a" stroke="none" stroke-width="0.5" stroke-linecap="butt"/><path d="M335.35634,95.66351c0.02776,-0.9661 0.83344,-1.72677 1.79954,-1.69902c0.9661,0.02776 1.72677,0.83344 1.69901,1.79955c-0.02776,0.9661 -0.83344,1.72677 -1.79954,1.69901c-0.9661,-0.02776 -1.72677,-0.83344 -1.69901,-1.79954z" fill="#2d7a1a" stroke="none" stroke-width="0.5" stroke-linecap="butt"/><path d="M308.75582,95.29929c0.02776,-0.9661 0.83344,-1.72677 1.79954,-1.69901c0.9661,0.02776 1.72677,0.83344 1.69902,1.79954c-0.02776,0.9661 -0.83344,1.72677 -1.79954,1.69901c-0.9661,-0.02776 -1.72677,-0.83344 -1.69902,-1.79954z" fill="#2d7a1a" stroke="none" stroke-width="0.5" stroke-linecap="butt"/><path d="M297.94304,95.58883c0.02776,-0.9661 0.83344,-1.72677 1.79954,-1.69901c0.9661,0.02776 1.72677,0.83344 1.69901,1.79954c-0.02776,0.9661 -0.83344,1.72677 -1.79954,1.69901c-0.9661,-0.02776 -1.72677,-0.83344 -1.69901,-1.79954z" fill="#2d7a1a" stroke="none" stroke-width="0.5" stroke-linecap="butt"/><path d="M289.34085,95.54173c0.02776,-0.9661 0.83344,-1.72677 1.79954,-1.69901c0.9661,0.02776 1.72677,0.83344 1.69901,1.79954c-0.02776,0.9661 -0.83344,1.72677 -1.79954,1.69901c-0.9661,-0.02776 -1.72677,-0.83344 -1.69901,-1.79954z" fill="#2d7a1a" stroke="none" stroke-width="0.5" stroke-linecap="butt"/><path d="M276.94022,95.38548c0.02776,-0.9661 0.83344,-1.72677 1.79954,-1.69901c0.9661,0.02776 1.72677,0.83344 1.69902,1.79954c-0.02776,0.9661 -0.83344,1.72677 -1.79955,1.69901c-0.9661,-0.02776 -1.72677,-0.83344 -1.69901,-1.79954z" fill="#2d7a1a" stroke="none" stroke-width="0.5" stroke-linecap="butt"/><path d="M270.14303,95.19016c0.02776,-0.9661 0.83344,-1.72677 1.79954,-1.69901c0.9661,0.02776 1.72677,0.83344 1.69902,1.79954c-0.02776,0.9661 -0.83344,1.72677 -1.79955,1.69901c-0.9661,-0.02776 -1.72677,-0.83344 -1.69901,-1.79954z" fill="#2d7a1a" stroke="none" stroke-width="0.5" stroke-linecap="butt"/><path d="M261.41215,96.13977c0.00354,-0.12332 0.02483,-0.24196 0.06135,-0.35353c-0.66429,-0.26375 -1.12517,-0.92139 -1.10345,-1.67724c0.02776,-0.9661 0.83344,-1.72677 1.79954,-1.69901c0.9661,0.02776 1.72677,0.83344 1.69901,1.79954c-0.01123,0.39094 -0.14984,0.74824 -0.37492,1.03326c0.26547,0.23702 0.42845,0.58521 0.41743,0.96879c-0.01983,0.69008 -0.59532,1.23341 -1.28538,1.21358c-0.69008,-0.01983 -1.23341,-0.59532 -1.21358,-1.28538z" fill="#2d7a1a" stroke="none" stroke-width="0.5" stroke-linecap="butt"/><path d="M245.60144,113.69287c0.02776,-0.9661 0.83344,-1.72677 1.79954,-1.69901c0.9661,0.02776 1.72677,0.83344 1.69901,1.79954c-0.02776,0.9661 -0.83344,1.72677 -1.79954,1.69901c-0.9661,-0.02776 -1.72677,-0.83344 -1.69901,-1.79954z" fill="#33965e" stroke="none" stroke-width="0.5" stroke-linecap="butt"/><path d="M256.85656,115.41687c0.00791,-0.27556 0.10443,-0.5277 0.26147,-0.72995c-0.33169,0.40839 -0.84303,0.66322 -1.40955,0.64694c-0.9661,-0.02776 -1.72677,-0.83344 -1.69902,-1.79954c0.02776,-0.9661 0.83344,-1.72677 1.79955,-1.69901c0.9661,0.02776 1.72677,0.83344 1.69901,1.79954c-0.01115,0.38807 -0.14782,0.74301 -0.36999,1.027c0.23698,-0.28963 0.60092,-0.47014 1.00393,-0.45855c0.69008,0.01983 1.23341,0.59532 1.21358,1.28538c-0.01983,0.69008 -0.59532,1.23341 -1.28538,1.21358c-0.69008,-0.01983 -1.23341,-0.59532 -1.21358,-1.28538z" fill="#33965e" stroke="none" stroke-width="0.5" stroke-linecap="butt"/><path d="M272.1965,112.50628c0.9661,0.02776 1.72677,0.83344 1.69901,1.79954c-0.02776,0.9661 -0.83344,1.72677 -1.79954,1.69901c-0.57223,-0.01644 -1.07238,-0.3058 -1.37932,-0.73975c-0.33135,0.41561 -0.8473,0.67576 -1.41953,0.65933c-0.9661,-0.02776 -1.72677,-0.83344 -1.69901,-1.79954c0.02776,-0.9661 0.83344,-1.72677 1.79954,-1.69901c0.57223,0.01644 1.07238,0.3058 1.37932,0.73975c0.33135,-0.41561 0.8473,-0.67576 1.41953,-0.65933z" fill="#33965e" stroke="none" stroke-width="0.5" stroke-linecap="butt"/><path d="M373.17205,114.80761c0.9661,0.02776 1.72677,0.83344 1.69901,1.79954c-0.02776,0.9661 -0.83344,1.72677 -1.79954,1.69901c-0.61911,-0.01779 -1.15384,-0.35504 -1.4508,-0.84925c-0.33146,0.36249 -0.81278,0.58413 -1.3423,0.56892c-0.9661,-0.02776 -1.72677,-0.83344 -1.69901,-1.79954c0.02776,-0.9661 0.83344,-1.72677 1.79954,-1.69901c0.61911,0.01779 1.15385,0.35503 1.45081,0.84925c0.33146,-0.36249 0.81278,-0.58412 1.3423,-0.56891z" fill="#33965e" stroke="none" stroke-width="0.5" stroke-linecap="butt"/><path d="M357.5782,116.11023c0.02776,-0.9661 0.83344,-1.72677 1.79954,-1.69901c0.9661,0.02776 1.72677,0.83344 1.69902,1.79954c-0.02776,0.9661 -0.83344,1.72677 -1.79954,1.69901c-0.9661,-0.02776 -1.72677,-0.83344 -1.69902,-1.79954z" fill="#33965e" stroke="none" stroke-width="0.5" stroke-linecap="butt"/><path d="M353.38569,115.78968c0.02776,-0.9661 0.83344,-1.72677 1.79954,-1.69902c0.9661,0.02776 1.72677,0.83344 1.69901,1.79955c-0.02776,0.9661 -0.83344,1.72677 -1.79954,1.69901c-0.9661,-0.02776 -1.72677,-0.83344 -1.69901,-1.79954z" fill="#33965e" stroke="none" stroke-width="0.5" stroke-linecap="butt"/><path d="M348.39349,115.44614c0.02776,-0.9661 0.83344,-1.72677 1.79954,-1.69901c0.9661,0.02776 1.72677,0.83344 1.69901,1.79954c-0.02776,0.9661 -0.83344,1.72677 -1.79954,1.69901c-0.9661,-0.02776 -1.72677,-0.83344 -1.69901,-1.79954z" fill="#33965e" stroke="none" stroke-width="0.5" stroke-linecap="butt"/><path d="M345.87879,117.1699c-0.42918,1.17401 -1.6032,0.74483 -1.6032,0.74483l-1.18801,-0.4343c0,0 -1.174,-0.42919 -0.74483,-1.6032c0.42918,-1.17401 1.60319,-0.74483 1.60319,-0.74483l0.06178,0.02258c0.10867,-0.88634 0.87667,-1.56041 1.78713,-1.53424c0.9661,0.02776 1.72677,0.83344 1.69901,1.79954c-0.02578,0.89718 -0.72245,1.6172 -1.59545,1.69314c-0.00613,0.01863 -0.01266,0.03745 -0.01961,0.05649z" fill="#33965e" stroke="none" stroke-width="0.5" stroke-linecap="butt"/><path d="M338.79171,115.37031c0.02776,-0.9661 0.83344,-1.72677 1.79955,-1.69901c0.9661,0.02776 1.72677,0.83344 1.69901,1.79954c-0.02776,0.9661 -0.83344,1.72677 -1.79954,1.69901c-0.2302,-0.00661 -0.44874,-0.05739 -0.64772,-0.14399c-0.48543,-0.11381 -0.85898,-0.50947 -0.94473,-1.00062c-0.07502,-0.20362 -0.11318,-0.42473 -0.10657,-0.65493z" fill="#33965e" stroke="none" stroke-width="0.5" stroke-linecap="butt"/><path d="M330.59509,115.13478c0.05027,-1.74928 1.79954,-1.69901 1.79954,-1.69901l2.19909,0.06319c0,0 1.74927,0.05027 1.69901,1.79954c-0.05027,1.74928 -1.79954,1.69901 -1.79954,1.69901l-2.19909,-0.06319c0,0 -1.74928,-0.05027 -1.69902,-1.79954z" fill="#33965e" stroke="none" stroke-width="0.5" stroke-linecap="butt"/><path d="M325.39149,115.18533c0.02776,-0.9661 0.83344,-1.72677 1.79954,-1.69902c0.9661,0.02776 1.72677,0.83344 1.69902,1.79955c-0.02776,0.9661 -0.83344,1.72677 -1.79955,1.69901c-0.9661,-0.02776 -1.72677,-0.83344 -1.69901,-1.79954z" fill="#33965e" stroke="none" stroke-width="0.5" stroke-linecap="butt"/><path d="M319.58239,115.41857c0.02776,-0.9661 0.83344,-1.72677 1.79954,-1.69901c0.9661,0.02776 1.72677,0.83344 1.69902,1.79954c-0.02776,0.9661 -0.83344,1.72677 -1.79954,1.69901c-0.9661,-0.02776 -1.72677,-0.83344 -1.69902,-1.79954z" fill="#33965e" stroke="none" stroke-width="0.5" stroke-linecap="butt"/><path d="M314.78438,115.2807c0.02776,-0.9661 0.83344,-1.72677 1.79954,-1.69901c0.9661,0.02776 1.72677,0.83344 1.69901,1.79954c-0.02776,0.9661 -0.83344,1.72677 -1.79954,1.69902c-0.9661,-0.02776 -1.72677,-0.83344 -1.69901,-1.79955z" fill="#33965e" stroke="none" stroke-width="0.5" stroke-linecap="butt"/><path d="M306.78767,115.05092c0.02776,-0.9661 0.83344,-1.72677 1.79954,-1.69901c0.9661,0.02776 1.72677,0.83344 1.69901,1.79954c-0.02776,0.9661 -0.83344,1.72677 -1.79954,1.69901c-0.9661,-0.02776 -1.72677,-0.83344 -1.69901,-1.79954z" fill="#33965e" stroke="none" stroke-width="0.5" stroke-linecap="butt"/><path d="M299.99048,114.85559c0.02776,-0.9661 0.83344,-1.72677 1.79954,-1.69901c0.9661,0.02776 1.72677,0.83344 1.69901,1.79954c-0.02776,0.9661 -0.83344,1.72677 -1.79954,1.69902c-0.9661,-0.02776 -1.72677,-0.83344 -1.69901,-1.79955z" fill="#33965e" stroke="none" stroke-width="0.5" stroke-linecap="butt"/><path d="M298.58492,114.59189c-0.21225,1.23185 -1.4441,1.01961 -1.4441,1.01961l-1.19873,-0.20654c-0.28004,0.62869 -0.91892,1.05863 -1.64953,1.03764c-0.9661,-0.02776 -1.72677,-0.83344 -1.69902,-1.79954c0.02776,-0.9661 0.83344,-1.72677 1.79955,-1.69901c0.27616,0.00793 0.53554,0.07943 0.76451,0.20007c0.43276,-0.3366 1.01405,-0.23644 1.01405,-0.23644l1.39368,0.24012c0,0 1.23185,0.21225 1.0196,1.44409z" fill="#33965e" stroke="none" stroke-width="0.5" stroke-linecap="butt"/><path d="M292.15923,115.83105c-0.01983,0.69008 -0.59532,1.23341 -1.28538,1.21358c-0.4928,-0.01416 -0.91077,-0.31169 -1.10224,-0.73196l-1.47657,-0.04243c0,0 -1.74928,-0.05027 -1.69902,-1.79955c0.05027,-1.74928 1.79955,-1.69901 1.79955,-1.69901l2.19909,0.0632c0,0 1.74928,0.05027 1.69902,1.79954c-0.00943,0.32806 -0.07862,0.59281 -0.1848,0.8065c0.03644,0.12338 0.05427,0.25455 0.05038,0.39014z" fill="#33965e" stroke="none" stroke-width="0.5" stroke-linecap="butt"/><path d="M275.78898,114.56033c0.02776,-0.9661 0.83344,-1.72677 1.79955,-1.69901c0.42788,0.0123 0.81548,0.17719 1.11212,0.44103c0.32469,-0.47728 0.87848,-0.784 1.4983,-0.7662c0.9661,0.02776 1.72677,0.83344 1.69902,1.79954c-0.02776,0.9661 -0.83344,1.72677 -1.79954,1.69901c-0.42788,-0.0123 -0.81548,-0.17719 -1.11213,-0.44103c-0.32469,0.47728 -0.87848,0.784 -1.4983,0.7662c-0.9661,-0.02776 -1.72677,-0.83344 -1.69902,-1.79954z" fill="#33965e" stroke="none" stroke-width="0.5" stroke-linecap="butt"/><path d="M362.42792,114.44885c0.02776,-0.9661 0.83344,-1.72677 1.79954,-1.69902c0.9661,0.02776 1.72677,0.83344 1.69901,1.79955c-0.02776,0.9661 -0.83344,1.72677 -1.79954,1.69901c-0.9661,-0.02776 -1.72677,-0.83344 -1.69901,-1.79954z" fill="#33965e" stroke="none" stroke-width="0.5" stroke-linecap="butt"/><path d="M250.71656,130.64679c0.02776,-0.9661 0.83344,-1.72677 1.79955,-1.69901c0.9661,0.02776 1.72677,0.83344 1.69901,1.79954c-0.02776,0.9661 -0.83344,1.72677 -1.79954,1.69901c-0.9661,-0.02776 -1.72677,-0.83344 -1.69902,-1.79954z" fill="#75f20f" stroke="none" stroke-width="0.5" stroke-linecap="butt"/><path d="M266.47299,130.64937c0.69008,0.01983 1.23341,0.59532 1.21358,1.28538c-0.01983,0.69008 -0.59532,1.23341 -1.28538,1.21358c-0.16077,-0.00462 -0.31358,-0.0394 -0.45316,-0.09877c-0.51653,0.37103 -1.1548,0.35268 -1.1548,0.35268l-1.33153,-0.03826c0.11003,0.19263 0.17018,0.41698 0.16333,0.65496c-0.01983,0.69008 -0.59532,1.23341 -1.28539,1.21357c-0.69008,-0.01983 -1.23341,-0.59532 -1.21358,-1.28538c0.01345,-0.46793 0.28238,-0.86839 0.66928,-1.07154c-0.03848,-0.03492 -0.0758,-0.07238 -0.11158,-0.1126c-0.32869,0.32911 -0.78709,0.52729 -1.28874,0.51287c-0.9661,-0.02776 -1.72677,-0.83344 -1.69902,-1.79954c0.02776,-0.9661 0.83344,-1.72677 1.79955,-1.69901c0.50164,0.01442 0.9479,0.23857 1.25715,0.58602c0.53348,-0.53457 1.34177,-0.51135 1.34177,-0.51135l1.79925,0.0517c0,0 0.95707,0.02751 1.43502,0.74974c0.0474,-0.00406 0.09553,-0.00547 0.14422,-0.00407z" fill="#75f20f" stroke="none" stroke-width="0.5" stroke-linecap="butt"/><path d="M270.1281,134.00575c0.00654,-0.22762 0.07353,-0.43926 0.18516,-0.62001c-0.397,-0.332 -0.64352,-0.83605 -0.6275,-1.39353c0.02776,-0.9661 0.83344,-1.72677 1.79954,-1.69901c0.17367,0.00499 0.3407,0.03512 0.49772,0.0868c0.15971,-0.04258 0.3282,-0.06307 0.50187,-0.05808c0.9661,0.02776 1.72677,0.83344 1.69902,1.79954c-0.0256,0.8909 -0.71274,1.60712 -1.57716,1.69144c0.01583,0.08558 0.02293,0.17413 0.02033,0.26465c-0.01983,0.69008 -0.59532,1.23341 -1.28538,1.21358c-0.69008,-0.01983 -1.23341,-0.59532 -1.21358,-1.28538z" fill="#75f20f" stroke="none" stroke-width="0.5" stroke-linecap="butt"/><path d="M324.46889,133.36634c-0.01983,0.69008 -0.59532,1.23341 -1.28538,1.21358c-0.12152,-0.00349 -0.23848,-0.02421 -0.34863,-0.05977c-0.29864,0.21111 -0.6657,0.33074 -1.05941,0.31943c-0.59691,-0.01715 -1.1154,-0.33127 -1.41795,-0.79671c-0.30564,0.55868 -0.90632,0.93 -1.58655,0.91046c-0.53798,-0.01546 -1.01226,-0.27214 -1.32216,-0.66341c-0.25784,0.13601 -0.55327,0.20936 -0.86544,0.20039c-0.78538,-0.02257 -1.435,-0.55925 -1.63564,-1.27826c-0.10689,0.01713 -0.21689,0.02453 -0.32906,0.0213c-0.9661,-0.02776 -1.72677,-0.83344 -1.69901,-1.79954c0.02776,-0.9661 0.83344,-1.72677 1.79954,-1.69901c0.78538,0.02257 1.43499,0.55924 1.63564,1.27826c0.10689,-0.01713 0.2169,-0.02453 0.32907,-0.0213c0.53798,0.01546 1.01226,0.27214 1.32216,0.66341c0.25784,-0.13601 0.55327,-0.20935 0.86544,-0.20038c0.59691,0.01715 1.11539,0.33127 1.41795,0.79671c0.30564,-0.55868 0.90633,-0.93 1.58656,-0.91046c0.57231,0.01644 1.07252,0.30587 1.37945,0.73992c0.69002,0.0199 1.23328,0.59536 1.21345,1.28539z" fill="#75f20f" stroke="none" stroke-width="0.5" stroke-linecap="butt"/><path d="M326.75645,133.83224c0.00534,-0.186 0.05106,-0.36135 0.12851,-0.51787c-0.08674,-0.05861 -0.16788,-0.12475 -0.24251,-0.19749c-0.18458,0.09773 -0.39622,0.15047 -0.6199,0.14405c-0.69008,-0.01983 -1.23341,-0.59532 -1.21358,-1.28539c0.01983,-0.69008 0.59532,-1.23341 1.28539,-1.21357c0.12566,0.00361 0.24644,0.02565 0.35986,0.06344c0.32894,-0.44584 0.86372,-0.72857 1.4595,-0.71145c0.9661,0.02776 1.72677,0.83344 1.69901,1.79954c-0.01427,0.49666 -0.23413,0.93901 -0.57569,1.24789c0.14469,0.21072 0.22627,0.46759 0.21836,0.74267c-0.01983,0.69008 -0.59532,1.23341 -1.28538,1.21358c-0.69008,-0.01983 -1.23341,-0.59532 -1.21358,-1.28538z" fill="#75f20f" stroke="none" stroke-width="0.5" stroke-linecap="butt"/><path d="M365.50367,132.74474c0.02776,-0.9661 0.83344,-1.72677 1.79955,-1.69901c0.9661,0.02776 1.72677,0.83344 1.69901,1.79954c-0.02776,0.9661 -0.83344,1.72677 -1.79954,1.69901c-0.9661,-0.02776 -1.72677,-0.83344 -1.69902,-1.79954z" fill="#75f20f" stroke="none" stroke-width="0.5" stroke-linecap="butt"/><path d="M377.28157,133.68343c-0.01983,0.69008 -0.59532,1.23341 -1.28538,1.21358c-0.17648,-0.00508 -0.34337,-0.04648 -0.49369,-0.11686c-0.2524,-0.02105 -0.48897,-0.09536 -0.69884,-0.21142c-0.16812,0.51225 -0.65733,0.87539 -1.22374,0.8591c-0.56863,-0.01633 -1.03762,-0.40997 -1.17399,-0.9341c-0.96594,-0.02793 -1.72643,-0.83354 -1.69868,-1.79954c0.02776,-0.9661 0.83344,-1.72677 1.79954,-1.69901c0.75486,0.02169 1.38431,0.51831 1.61023,1.19528c0.3068,-0.55478 0.90532,-0.92292 1.5827,-0.90345c0.9661,0.02776 1.72677,0.83344 1.69901,1.79955c-0.0059,0.205 -0.04681,0.40074 -0.11685,0.58166c-0.00009,0.00507 -0.00021,0.01014 -0.00034,0.01522z" fill="#75f20f" stroke="none" stroke-width="0.5" stroke-linecap="butt"/><path d="M377.74115,135.09722c0.01872,-0.65167 0.533,-1.17249 1.17134,-1.21173c-0.02034,-0.11531 -0.02934,-0.23439 -0.02584,-0.35601c0.02776,-0.9661 0.83344,-1.72677 1.79954,-1.69901c0.9661,0.02776 1.72677,0.83344 1.69901,1.79954c-0.02776,0.9661 -0.83344,1.72677 -1.79954,1.69901c-0.12162,-0.0035 -0.23999,-0.01932 -0.35394,-0.04623c-0.07583,0.63504 -0.62531,1.11855 -1.277,1.09982c-0.69008,-0.01983 -1.23341,-0.59532 -1.21358,-1.28538z" fill="#75f20f" stroke="none" stroke-width="0.5" stroke-linecap="butt"/><path d="M254.25419,136.35075c0.01983,-0.69008 0.59532,-1.23341 1.28538,-1.21358c0.69008,0.01983 1.23341,0.59532 1.21358,1.28538c-0.01983,0.69008 -0.59532,1.23341 -1.28538,1.21358c-0.69008,-0.01983 -1.23341,-0.59532 -1.21358,-1.28538z" fill="#75f20f" stroke="none" stroke-width="0.5" stroke-linecap="butt"/><path d="M316.48597,136.13818c0.01983,-0.69008 0.59532,-1.23341 1.28538,-1.21358c0.69008,0.01983 1.23341,0.59532 1.21358,1.28538c-0.01983,0.69008 -0.59532,1.23341 -1.28538,1.21358c-0.69008,-0.01983 -1.23341,-0.59532 -1.21358,-1.28538z" fill="#75f20f" stroke="none" stroke-width="0.5" stroke-linecap="butt"/><path d="M370.32122,135.68433c0.01983,-0.69008 0.59532,-1.23341 1.28538,-1.21358c0.69008,0.01983 1.23341,0.59532 1.21358,1.28538c-0.01983,0.69008 -0.59532,1.23341 -1.28538,1.21358c-0.69008,-0.01983 -1.23341,-0.59532 -1.21358,-1.28538z" fill="#75f20f" stroke="none" stroke-width="0.5" stroke-linecap="butt"/><path d="M380.07697,137.36525c0.01983,-0.69008 0.59532,-1.23341 1.28539,-1.21358c0.69008,0.01983 1.23341,0.59532 1.21358,1.28538c-0.01983,0.69008 -0.59532,1.23341 -1.28539,1.21358c-0.69008,-0.01983 -1.23341,-0.59532 -1.21358,-1.28538z" fill="#75f20f" stroke="none" stroke-width="0.5" stroke-linecap="butt"/><path d="M250.31558,120.23097c0.01983,-0.69008 0.59532,-1.23341 1.28538,-1.21358c0.69008,0.01983 1.23341,0.59532 1.21358,1.28538c-0.01983,0.69008 -0.59532,1.23341 -1.28538,1.21358c-0.69008,-0.01983 -1.23341,-0.59532 -1.21358,-1.28538z" fill="#33965e" stroke="none" stroke-width="0.5" stroke-linecap="butt"/><path d="M253.20635,117.11272c0.01983,-0.69008 0.59532,-1.23341 1.28538,-1.21358c0.69008,0.01983 1.23341,0.59532 1.21358,1.28538c-0.01983,0.69008 -0.59532,1.23341 -1.28538,1.21358c-0.69008,-0.01983 -1.23341,-0.59532 -1.21358,-1.28538z" fill="#33965e" stroke="none" stroke-width="0.5" stroke-linecap="butt"/><path d="M262.65417,115.58346c0.01983,-0.69008 0.59532,-1.23341 1.28538,-1.21358c0.69008,0.01983 1.23341,0.59532 1.21358,1.28538c-0.01983,0.69008 -0.59532,1.23341 -1.28538,1.21358c-0.69008,-0.01983 -1.23341,-0.59532 -1.21358,-1.28538z" fill="#33965e" stroke="none" stroke-width="0.5" stroke-linecap="butt"/><path d="M277.59628,117.81357c0.01983,-0.69008 0.59532,-1.23341 1.28538,-1.21358c0.69008,0.01983 1.23341,0.59532 1.21358,1.28538c-0.01983,0.69008 -0.59532,1.23341 -1.28538,1.21358c-0.69008,-0.01983 -1.23341,-0.59532 -1.21358,-1.28538z" fill="#33965e" stroke="none" stroke-width="0.5" stroke-linecap="butt"/><path d="M282.95384,119.36811c0.01983,-0.69008 0.59532,-1.23341 1.28538,-1.21358c0.69008,0.01983 1.23341,0.59532 1.21358,1.28538c-0.01983,0.69008 -0.59532,1.23341 -1.28538,1.21358c-0.69008,-0.01983 -1.23341,-0.59532 -1.21358,-1.28538z" fill="#33965e" stroke="none" stroke-width="0.5" stroke-linecap="butt"/><path d="M314.62296,119.62692c-0.97204,0.78589 -1.75794,-0.18615 -1.75794,-0.18615l-1.15929,-1.4339c0,0 -0.78589,-0.97204 0.18615,-1.75794c0.97204,-0.78589 1.75794,0.18615 1.75794,0.18615l1.15929,1.43389c0,0 0.78589,0.97204 -0.18615,1.75794z" fill="#33965e" stroke="none" stroke-width="0.5" stroke-linecap="butt"/><path d="M319.71567,121.2248c0.01983,-0.69008 0.59532,-1.23341 1.28538,-1.21358c0.69008,0.01983 1.23341,0.59532 1.21358,1.28538c-0.01983,0.69008 -0.59532,1.23341 -1.28538,1.21358c-0.69008,-0.01983 -1.23341,-0.59532 -1.21358,-1.28538z" fill="#33965e" stroke="none" stroke-width="0.5" stroke-linecap="butt"/><path d="M322.49729,121.90498c0.01983,-0.69008 0.59532,-1.23341 1.28538,-1.21358c0.69008,0.01983 1.23341,0.59532 1.21358,1.28538c-0.01983,0.69008 -0.59532,1.23341 -1.28538,1.21358c-0.69008,-0.01983 -1.23341,-0.59532 -1.21358,-1.28538z" fill="#33965e" stroke="none" stroke-width="0.5" stroke-linecap="butt"/><path d="M364.42366,118.10768c0.01983,-0.69008 0.59532,-1.23341 1.28538,-1.21358c0.69008,0.01983 1.23341,0.59532 1.21358,1.28538c-0.01983,0.69008 -0.59532,1.23341 -1.28538,1.21358c-0.69008,-0.01983 -1.23341,-0.59532 -1.21358,-1.28538z" fill="#33965e" stroke="none" stroke-width="0.5" stroke-linecap="butt"/><path d="M369.92369,121.66714c0.01983,-0.69008 0.59532,-1.23341 1.28538,-1.21358c0.69008,0.01983 1.23341,0.59532 1.21358,1.28538c-0.01983,0.69008 -0.59532,1.23341 -1.28538,1.21358c-0.69008,-0.01983 -1.23341,-0.59532 -1.21358,-1.28538z" fill="#33965e" stroke="none" stroke-width="0.5" stroke-linecap="butt"/><path d="M255.69382,100.17718c0.01983,-0.69008 0.59532,-1.23341 1.28538,-1.21358c0.69008,0.01983 1.23341,0.59532 1.21358,1.28538c-0.01983,0.69008 -0.59532,1.23341 -1.28538,1.21358c-0.69008,-0.01983 -1.23341,-0.59532 -1.21358,-1.28538z" fill="#2d7a1a" stroke="none" stroke-width="0.5" stroke-linecap="butt"/><path d="M278.92446,99.44414c0.01983,-0.69008 0.59532,-1.23341 1.28538,-1.21358c0.69008,0.01983 1.23341,0.59532 1.21358,1.28538c-0.01983,0.69008 -0.59532,1.23341 -1.28538,1.21358c-0.69008,-0.01983 -1.23341,-0.59532 -1.21358,-1.28538z" fill="#2d7a1a" stroke="none" stroke-width="0.5" stroke-linecap="butt"/><path d="M286.218,103.25522c0.01983,-0.69008 0.59532,-1.23341 1.28538,-1.21358c0.69008,0.01983 1.23341,0.59532 1.21358,1.28538c-0.01983,0.69008 -0.59532,1.23341 -1.28538,1.21358c-0.69008,-0.01983 -1.23341,-0.59532 -1.21358,-1.28538z" fill="#2d7a1a" stroke="none" stroke-width="0.5" stroke-linecap="butt"/><path d="M300.7844,97.67131c0.01983,-0.69008 0.59532,-1.23341 1.28538,-1.21358c0.69008,0.01983 1.23341,0.59532 1.21358,1.28538c-0.01983,0.69008 -0.59532,1.23341 -1.28538,1.21358c-0.69008,-0.01983 -1.23341,-0.59532 -1.21358,-1.28538z" fill="#2d7a1a" stroke="none" stroke-width="0.5" stroke-linecap="butt"/><path d="M329.29217,101.29165c0.01983,-0.69008 0.59532,-1.23341 1.28538,-1.21358c0.69008,0.01983 1.23341,0.59532 1.21358,1.28538c-0.01983,0.69008 -0.59532,1.23341 -1.28538,1.21358c-0.69008,-0.01983 -1.23341,-0.59532 -1.21358,-1.28538z" fill="#2d7a1a" stroke="none" stroke-width="0.5" stroke-linecap="butt"/><path d="M333.86156,102.42336c0.01983,-0.69008 0.59532,-1.23341 1.28538,-1.21358c0.69008,0.01983 1.23341,0.59532 1.21358,1.28538c-0.01983,0.69008 -0.59532,1.23341 -1.28538,1.21358c-0.69008,-0.01983 -1.23341,-0.59532 -1.21358,-1.28538z" fill="#2d7a1a" stroke="none" stroke-width="0.5" stroke-linecap="butt"/><path d="M348.96451,99.05578c0.01983,-0.69008 0.59532,-1.23341 1.28539,-1.21358c0.69008,0.01983 1.23341,0.59532 1.21358,1.28538c-0.01983,0.69008 -0.59532,1.23341 -1.28539,1.21358c-0.69008,-0.01983 -1.23341,-0.59532 -1.21358,-1.28538z" fill="#2d7a1a" stroke="none" stroke-width="0.5" stroke-linecap="butt"/><path d="M362.07865,102.23378c0.01983,-0.69008 0.59532,-1.23341 1.28538,-1.21358c0.69008,0.01983 1.23341,0.59532 1.21358,1.28538c-0.01983,0.69008 -0.59532,1.23341 -1.28538,1.21358c-0.69008,-0.01983 -1.23341,-0.59532 -1.21358,-1.28538z" fill="#2d7a1a" stroke="none" stroke-width="0.5" stroke-linecap="butt"/><path d="M255.58122,107.577c0.0119,-0.41404 0.35719,-0.74005 0.77123,-0.72815c0.41404,0.0119 0.74005,0.35719 0.72815,0.77124c-0.0119,0.41404 -0.35719,0.74005 -0.77123,0.72815c-0.41404,-0.0119 -0.74005,-0.35719 -0.72815,-0.77124z" fill="#2d7a1a" stroke="none" stroke-width="0.5" stroke-linecap="butt"/><path d="M263.76061,108.41229c0.0119,-0.41404 0.35719,-0.74005 0.77123,-0.72815c0.41404,0.0119 0.74005,0.3572 0.72815,0.77124c-0.0119,0.41404 -0.35719,0.74005 -0.77124,0.72815c-0.41404,-0.0119 -0.74005,-0.35719 -0.72815,-0.77123z" fill="#2d7a1a" stroke="none" stroke-width="0.5" stroke-linecap="butt"/><path d="M270.75771,108.61335c0.0119,-0.41404 0.35719,-0.74005 0.77123,-0.72815c0.41404,0.0119 0.74005,0.35719 0.72815,0.77123c-0.0119,0.41404 -0.35719,0.74005 -0.77123,0.72815c-0.41404,-0.0119 -0.74005,-0.35719 -0.72815,-0.77123z" fill="#2d7a1a" stroke="none" stroke-width="0.5" stroke-linecap="butt"/><path d="M279.55983,108.6662c0.0119,-0.41404 0.3572,-0.74005 0.77124,-0.72815c0.41404,0.0119 0.74005,0.35719 0.72815,0.77124c-0.0119,0.41404 -0.35719,0.74005 -0.77123,0.72815c-0.41404,-0.0119 -0.74005,-0.35719 -0.72815,-0.77123z" fill="#2d7a1a" stroke="none" stroke-width="0.5" stroke-linecap="butt"/><path d="M294.15955,108.88564c0.0119,-0.41404 0.35719,-0.74005 0.77123,-0.72815c0.41404,0.0119 0.74005,0.35719 0.72815,0.77123c-0.0119,0.41404 -0.35719,0.74005 -0.77123,0.72815c-0.41404,-0.0119 -0.74005,-0.35719 -0.72815,-0.77123z" fill="#2d7a1a" stroke="none" stroke-width="0.5" stroke-linecap="butt"/><path d="M308.57085,108.69951c0.0119,-0.41404 0.35719,-0.74005 0.77123,-0.72815c0.41404,0.0119 0.74005,0.35719 0.72815,0.77123c-0.0119,0.41404 -0.35719,0.74005 -0.77123,0.72815c-0.41404,-0.0119 -0.74005,-0.35719 -0.72815,-0.77123z" fill="#2d7a1a" stroke="none" stroke-width="0.5" stroke-linecap="butt"/><path d="M318.37255,108.78109c0.0119,-0.41404 0.35719,-0.74005 0.77123,-0.72815c0.41404,0.0119 0.74005,0.35719 0.72815,0.77123c-0.0119,0.41404 -0.35719,0.74005 -0.77123,0.72815c-0.41404,-0.0119 -0.74005,-0.35719 -0.72815,-0.77123z" fill="#2d7a1a" stroke="none" stroke-width="0.5" stroke-linecap="butt"/><path d="M327.16892,109.03385c0.0119,-0.41404 0.35719,-0.74005 0.77124,-0.72815c0.41404,0.0119 0.74005,0.35719 0.72815,0.77123c-0.0119,0.41404 -0.35719,0.74005 -0.77123,0.72815c-0.41404,-0.0119 -0.74005,-0.3572 -0.72815,-0.77124z" fill="#2d7a1a" stroke="none" stroke-width="0.5" stroke-linecap="butt"/><path d="M338.32983,110.55506c0.0119,-0.41404 0.35719,-0.74005 0.77123,-0.72815c0.41404,0.0119 0.74005,0.35719 0.72815,0.77123c-0.0119,0.41404 -0.35719,0.74005 -0.77123,0.72815c-0.41404,-0.0119 -0.74005,-0.35719 -0.72815,-0.77123z" fill="#2d7a1a" stroke="none" stroke-width="0.5" stroke-linecap="butt"/><path d="M345.32694,110.75613c0.0119,-0.41404 0.35719,-0.74005 0.77123,-0.72815c0.41404,0.0119 0.74005,0.35719 0.72815,0.77123c-0.0119,0.41404 -0.35719,0.74005 -0.77123,0.72815c-0.41404,-0.0119 -0.74005,-0.35719 -0.72815,-0.77123z" fill="#2d7a1a" stroke="none" stroke-width="0.5" stroke-linecap="butt"/><path d="M356.72223,111.08358c0.0119,-0.41404 0.35719,-0.74005 0.77123,-0.72815c0.41404,0.0119 0.74005,0.35719 0.72815,0.77123c-0.0119,0.41404 -0.35719,0.74005 -0.77123,0.72815c-0.41404,-0.0119 -0.74005,-0.35719 -0.72815,-0.77123z" fill="#2d7a1a" stroke="none" stroke-width="0.5" stroke-linecap="butt"/><path d="M363.1196,111.26741c0.0119,-0.41404 0.35719,-0.74005 0.77124,-0.72815c0.41404,0.0119 0.74005,0.35719 0.72815,0.77124c-0.0119,0.41404 -0.35719,0.74005 -0.77124,0.72815c-0.41404,-0.0119 -0.74005,-0.35719 -0.72815,-0.77124z" fill="#2d7a1a" stroke="none" stroke-width="0.5" stroke-linecap="butt"/><path d="M252.26535,125.48914c0.0119,-0.41404 0.35719,-0.74005 0.77124,-0.72815c0.41404,0.0119 0.74005,0.35719 0.72815,0.77123c-0.0119,0.41404 -0.35719,0.74005 -0.77123,0.72815c-0.41404,-0.0119 -0.74005,-0.3572 -0.72815,-0.77124z" fill="#33965e" stroke="none" stroke-width="0.5" stroke-linecap="butt"/><path d="M261.94756,122.76613c0.0119,-0.41404 0.35719,-0.74005 0.77123,-0.72815c0.41404,0.0119 0.74005,0.35719 0.72815,0.77123c-0.0119,0.41404 -0.35719,0.74005 -0.77123,0.72815c-0.41404,-0.0119 -0.74005,-0.35719 -0.72815,-0.77123z" fill="#33965e" stroke="none" stroke-width="0.5" stroke-linecap="butt"/><path d="M272.03421,126.85754c0.0119,-0.41404 0.35719,-0.74005 0.77124,-0.72815c0.41404,0.0119 0.74005,0.35719 0.72815,0.77123c-0.0119,0.41404 -0.35719,0.74005 -0.77124,0.72815c-0.41404,-0.0119 -0.74005,-0.35719 -0.72815,-0.77123z" fill="#33965e" stroke="none" stroke-width="0.5" stroke-linecap="butt"/><path d="M295.38549,121.92624c0.0119,-0.41404 0.35719,-0.74005 0.77123,-0.72815c0.41404,0.0119 0.74005,0.35719 0.72815,0.77123c-0.0119,0.41404 -0.35719,0.74005 -0.77123,0.72815c-0.41404,-0.0119 -0.74005,-0.35719 -0.72815,-0.77123z" fill="#33965e" stroke="none" stroke-width="0.5" stroke-linecap="butt"/><path d="M315.37149,122.70063c0.0119,-0.41404 0.35719,-0.74005 0.77123,-0.72815c0.41404,0.0119 0.74005,0.35719 0.72815,0.77124c-0.0119,0.41404 -0.35719,0.74005 -0.77123,0.72815c-0.41404,-0.0119 -0.74005,-0.35719 -0.72815,-0.77124z" fill="#33965e" stroke="none" stroke-width="0.5" stroke-linecap="butt"/><path d="M325.02383,127.98006c0.0119,-0.41404 0.35719,-0.74005 0.77123,-0.72815c0.41404,0.0119 0.74005,0.35719 0.72815,0.77123c-0.0119,0.41404 -0.35719,0.74005 -0.77123,0.72815c-0.41404,-0.0119 -0.74005,-0.35719 -0.72815,-0.77123z" fill="#33965e" stroke="none" stroke-width="0.5" stroke-linecap="butt"/><path d="M344.55945,123.53936c0.0119,-0.41404 0.35719,-0.74005 0.77123,-0.72815c0.41404,0.0119 0.74005,0.35719 0.72815,0.77123c-0.0119,0.41404 -0.35719,0.74005 -0.77123,0.72815c-0.41404,-0.0119 -0.74005,-0.35719 -0.72815,-0.77123z" fill="#33965e" stroke="none" stroke-width="0.5" stroke-linecap="butt"/><path d="M334.76923,123.05795c0.0119,-0.41404 0.35719,-0.74005 0.77123,-0.72815c0.41404,0.0119 0.74005,0.35719 0.72815,0.77123c-0.0119,0.41404 -0.35719,0.74005 -0.77123,0.72815c-0.41404,-0.0119 -0.74005,-0.35719 -0.72815,-0.77123z" fill="#33965e" stroke="none" stroke-width="0.5" stroke-linecap="butt"/><path d="M353.93833,124.40911c0.0119,-0.41404 0.35719,-0.74005 0.77123,-0.72815c0.41404,0.0119 0.74005,0.35719 0.72815,0.77123c-0.0119,0.41404 -0.35719,0.74005 -0.77123,0.72815c-0.41404,-0.0119 -0.74005,-0.35719 -0.72815,-0.77123z" fill="#33965e" stroke="none" stroke-width="0.5" stroke-linecap="butt"/><path d="M369.77662,130.26646c0.0119,-0.41404 0.35719,-0.74005 0.77123,-0.72815c0.41404,0.0119 0.74005,0.35719 0.72815,0.77123c-0.0119,0.41404 -0.35719,0.74005 -0.77123,0.72815c-0.41404,-0.0119 -0.74005,-0.35719 -0.72815,-0.77123z" fill="#33965e" stroke="none" stroke-width="0.5" stroke-linecap="butt"/><path d="M257.38623,142.24315c0.0119,-0.41404 0.35719,-0.74005 0.77123,-0.72815c0.41404,0.0119 0.74005,0.35719 0.72815,0.77124c-0.0119,0.41404 -0.35719,0.74005 -0.77123,0.72815c-0.41404,-0.0119 -0.74005,-0.35719 -0.72815,-0.77124z" fill="#75f20f" stroke="none" stroke-width="0.5" stroke-linecap="butt"/><path d="M264.05245,140.03371c0.0119,-0.41404 0.35719,-0.74005 0.77124,-0.72815c0.41404,0.0119 0.74005,0.35719 0.72815,0.77123c-0.0119,0.41404 -0.35719,0.74005 -0.77124,0.72815c-0.41404,-0.0119 -0.74005,-0.35719 -0.72815,-0.77123z" fill="#75f20f" stroke="none" stroke-width="0.5" stroke-linecap="butt"/><path d="M266.74788,143.71266c0.0119,-0.41404 0.35719,-0.74005 0.77124,-0.72815c0.41404,0.0119 0.74005,0.35719 0.72815,0.77123c-0.0119,0.41404 -0.35719,0.74005 -0.77124,0.72815c-0.41404,-0.0119 -0.74005,-0.35719 -0.72815,-0.77123z" fill="#75f20f" stroke="none" stroke-width="0.5" stroke-linecap="butt"/><path d="M320.8405,141.26538c0.0119,-0.41404 0.35719,-0.74005 0.77123,-0.72815c0.41404,0.0119 0.74005,0.35719 0.72815,0.77124c-0.0119,0.41404 -0.35719,0.74005 -0.77123,0.72815c-0.41404,-0.0119 -0.74005,-0.35719 -0.72815,-0.77124z" fill="#75f20f" stroke="none" stroke-width="0.5" stroke-linecap="butt"/><path d="M374.65851,141.41128c0.0119,-0.41404 0.35719,-0.74005 0.77123,-0.72815c0.41404,0.0119 0.74005,0.3572 0.72815,0.77124c-0.0119,0.41404 -0.35719,0.74005 -0.77124,0.72815c-0.41404,-0.0119 -0.74005,-0.35719 -0.72815,-0.77123z" fill="#75f20f" stroke="none" stroke-width="0.5" stroke-linecap="butt"/><path d="M382.98611,144.05157c0.0119,-0.41404 0.35719,-0.74005 0.77124,-0.72815c0.41404,0.0119 0.74005,0.35719 0.72815,0.77123c-0.0119,0.41404 -0.35719,0.74005 -0.77124,0.72815c-0.41404,-0.0119 -0.74005,-0.35719 -0.72815,-0.77123z" fill="#75f20f" stroke="none" stroke-width="0.5" stroke-linecap="butt"/></g><path d="M276.92457,148.55032c0.27105,-9.43261 8.1374,-16.85952 17.57002,-16.58847c9.43261,0.27105 16.85953,8.13741 16.58848,17.57004c-0.27105,9.43261 -8.13741,16.85953 -17.57004,16.58848c-9.43261,-0.27105 -16.85951,-8.13741 -16.58846,-17.57004z" fill="none" stroke="#191919" stroke-width="5" stroke-linecap="butt"/><path d="M363.84967,152.03029c-0.2384,8.29623 -7.15706,14.82839 -15.45328,14.59c-8.29621,-0.2384 -14.82838,-7.15709 -14.58998,-15.4533c0.2384,-8.29623 7.15708,-14.82839 15.45329,-14.59c8.29621,0.2384 14.82837,7.15708 14.58998,15.45329z" fill="#191919" stroke="#000000" stroke-width="0" stroke-linecap="butt"/><path d="M284.80602,148.7768c0.14597,-5.0798 4.38229,-9.07947 9.46209,-8.9335c5.0798,0.14597 9.07947,4.38229 8.9335,9.4621c-0.14597,5.0798 -4.38228,9.07947 -9.4621,8.9335c-5.0798,-0.14597 -9.07946,-4.38228 -8.93349,-9.4621z" fill="none" stroke="#191919" stroke-width="5" stroke-linecap="butt"/></g></g></g></svg>