<svg version="1.1" xmlns="http://www.w3.org/2000/svg" xmlns:xlink="http://www.w3.org/1999/xlink" width="213.18203" height="280.18476" viewBox="0,0,213.18203,280.18476"><defs><linearGradient x1="292.2951" y1="127.03138" x2="293.96924" y2="173.96284" gradientUnits="userSpaceOnUse" id="color-1"><stop offset="0" stop-color="#ffffff"/><stop offset="1" stop-color="#5d5d5d"/></linearGradient><linearGradient x1="346.51908" y1="125.09712" x2="348.19322" y2="172.02858" gradientUnits="userSpaceOnUse" id="color-2"><stop offset="0" stop-color="#ffffff"/><stop offset="1" stop-color="#5d5d5d"/></linearGradient></defs><g transform="translate(-214.52362,-38.88751)"><g stroke-miterlimit="10"><path d="M272.11014,268.26063c0.69149,-2.74535 3.73555,-4.81339 7.38606,-4.81339c3.23495,0 5.99367,1.62399 7.06104,3.9042c0.02618,0.07181 0.05544,0.14128 0.09106,0.20598c0.34257,0.62235 6.73325,-1.09492 7.52542,-0.84255c2.34967,0.74856 3.72445,2.88263 4.72133,4.73523c1.2385,2.30161 -2.89731,8.99139 -4.21952,11.08073c-3.44549,5.44452 -7.01511,14.21661 -13.0943,18.09006c-4.36095,2.77864 -11.57075,2.22268 -14.41858,-1.68103c-2.09573,-2.87275 -0.89147,-7.62841 -0.51474,-10.63945c0.49433,-3.9509 1.65871,-7.91056 2.73717,-11.78969c1.14878,-4.13207 1.39016,-6.40714 2.72506,-8.25009z" fill="#8b21e0" stroke="none" stroke-width="0.5" stroke-linecap="butt"/><path d="M370.04217,276.51072c1.07846,3.87913 2.24284,7.83879 2.73717,11.78969c0.37673,3.01104 1.58099,7.76671 -0.51474,10.63945c-2.84783,3.90371 -10.05764,4.45967 -14.41858,1.68103c-6.07919,-3.87345 -9.64881,-12.64553 -13.0943,-18.09006c-1.32221,-2.08934 -5.45801,-8.77911 -4.21952,-11.08073c0.99688,-1.8526 2.37167,-3.98667 4.72133,-4.73523c0.79217,-0.25237 7.18285,1.4649 7.52542,0.84255c0.03562,-0.06471 0.06488,-0.13418 0.09105,-0.20598c1.06737,-2.2802 3.82608,-3.9042 7.06104,-3.9042c3.65051,0 6.69458,2.06803 7.38607,4.81339c1.3349,1.84295 1.57628,4.11802 2.72506,8.25009z" fill="#8b21e0" stroke="none" stroke-width="0.5" stroke-linecap="butt"/><g stroke-linecap="butt"><path d="M286.35186,319.07226l15.14285,-131.8421l37.78325,-0.15789l13.57389,132z" fill="#8b21e0" stroke="#000000" stroke-width="0"/><path d="M296.01666,234.92516c2.08346,-18.13983 5.47805,-47.69499 5.47805,-47.69499l37.78325,-0.15789c0,0 3.04845,29.64481 4.91793,47.82466c0.02749,0.26726 -48.23894,0.54804 -48.17924,0.02822z" fill="#7822e0" stroke="#000000" stroke-width="0"/><path d="M297.13133,225.22012c1.77782,-15.47868 4.36338,-37.98996 4.36338,-37.98996l37.78325,-0.15789c0,0 2.35959,22.94598 3.97074,38.61368c0.0124,0.12054 -46.15083,-0.17447 -46.11737,-0.46582z" fill="#551cba" stroke="#000000" stroke-width="0"/><path d="M298.09859,216.79867c1.47239,-12.81944 3.39612,-29.56851 3.39612,-29.56851l37.78325,-0.15789c0,0 1.79848,17.4894 3.15533,30.68411c0.00563,0.0547 -44.35225,-0.8049 -44.3347,-0.95771z" fill="#3a1aaf" stroke="#000000" stroke-width="0"/><path d="M298.125,217c0,-0.57891 0.28111,-1.09217 0.71427,-1.41073c0.31856,-0.43316 0.83182,-0.71427 1.41073,-0.71427c0.9665,0 1.75,0.7835 1.75,1.75c0,0.57891 -0.28111,1.09217 -0.71427,1.41073c-0.31856,0.43316 -0.83182,0.71427 -1.41073,0.71427c-0.9665,0 -1.75,-0.7835 -1.75,-1.75z" fill="#3a1aaf" stroke="none" stroke-width="0.5"/><path d="M338.5,217.625c0,-0.9665 0.7835,-1.75 1.75,-1.75c0.9665,0 1.75,0.7835 1.75,1.75c0,0.9665 -0.7835,1.75 -1.75,1.75c-0.9665,0 -1.75,-0.7835 -1.75,-1.75z" fill="#3a1aaf" stroke="none" stroke-width="0.5"/><path d="M331.75,217c0,-0.9665 0.7835,-1.75 1.75,-1.75c0.9665,0 1.75,0.7835 1.75,1.75c0,0.9665 -0.7835,1.75 -1.75,1.75c-0.9665,0 -1.75,-0.7835 -1.75,-1.75z" fill="#3a1aaf" stroke="none" stroke-width="0.5"/><path d="M325.5,217.5c0,-0.9665 0.7835,-1.75 1.75,-1.75c0.2202,0 0.4309,0.04066 0.625,0.1149c0.1941,-0.07424 0.4048,-0.1149 0.625,-0.1149c0.9665,0 1.75,0.7835 1.75,1.75c0,0.9665 -0.7835,1.75 -1.75,1.75c-0.2202,0 -0.4309,-0.04066 -0.625,-0.1149c-0.1941,0.07424 -0.4048,0.1149 -0.625,0.1149c-0.9665,0 -1.75,-0.7835 -1.75,-1.75z" fill="#3a1aaf" stroke="none" stroke-width="0.5"/><path d="M317,217.375c0,-0.9665 0.7835,-1.75 1.75,-1.75c0.2202,0 0.4309,0.04066 0.625,0.1149c0.1941,-0.07424 0.4048,-0.1149 0.625,-0.1149c0.9665,0 1.75,0.7835 1.75,1.75c0,0.9665 -0.7835,1.75 -1.75,1.75c-0.2202,0 -0.4309,-0.04066 -0.625,-0.1149c-0.1941,0.07424 -0.4048,0.1149 -0.625,0.1149c-0.9665,0 -1.75,-0.7835 -1.75,-1.75z" fill="#3a1aaf" stroke="none" stroke-width="0.5"/><path d="M313.25,217.125c0,-0.9665 0.7835,-1.75 1.75,-1.75c0.9665,0 1.75,0.7835 1.75,1.75c0,0.9665 -0.7835,1.75 -1.75,1.75c-0.9665,0 -1.75,-0.7835 -1.75,-1.75z" fill="#3a1aaf" stroke="none" stroke-width="0.5"/><path d="M306.5,217c0,-0.9665 0.7835,-1.75 1.75,-1.75c0.9665,0 1.75,0.7835 1.75,1.75c0,0.9665 -0.7835,1.75 -1.75,1.75c-0.9665,0 -1.75,-0.7835 -1.75,-1.75z" fill="#3a1aaf" stroke="none" stroke-width="0.5"/><path d="M302.625,217c0,-0.9665 0.7835,-1.75 1.75,-1.75c0.9665,0 1.75,0.7835 1.75,1.75c0,0.9665 -0.7835,1.75 -1.75,1.75c-0.9665,0 -1.75,-0.7835 -1.75,-1.75z" fill="#3a1aaf" stroke="none" stroke-width="0.5"/><path d="M297.125,225.125c0,-0.9665 0.7835,-1.75 1.75,-1.75c0.9665,0 1.75,0.7835 1.75,1.75c0,0.9665 -0.7835,1.75 -1.75,1.75c-0.9665,0 -1.75,-0.7835 -1.75,-1.75z" fill="#551cba" stroke="none" stroke-width="0.5"/><path d="M337.625,225.5c0,-0.9665 0.7835,-1.75 1.75,-1.75c0.43734,0 0.8372,0.16042 1.14396,0.42563c0.27981,-0.18976 0.61748,-0.30063 0.98104,-0.30063c0.9665,0 1.75,0.7835 1.75,1.75c0,0.9665 -0.7835,1.75 -1.75,1.75c-0.43734,0 -0.8372,-0.16042 -1.14396,-0.42563c-0.27981,0.18976 -0.61748,0.30063 -0.98104,0.30063c-0.9665,0 -1.75,-0.7835 -1.75,-1.75z" fill="#551cba" stroke="none" stroke-width="0.5"/><path d="M330.5,225.875c0,-0.9665 0.7835,-1.75 1.75,-1.75c0.78848,0 1.45517,0.52145 1.67401,1.23832c0.28322,-0.58494 0.8825,-0.98832 1.57599,-0.98832c0.9665,0 1.75,0.7835 1.75,1.75c0,0.9665 -0.7835,1.75 -1.75,1.75c-0.78848,0 -1.45517,-0.52145 -1.67401,-1.23832c-0.28322,0.58494 -0.8825,0.98832 -1.57599,0.98832c-0.9665,0 -1.75,-0.7835 -1.75,-1.75z" fill="#551cba" stroke="none" stroke-width="0.5"/><path d="M327,225.75c0,-0.9665 0.7835,-1.75 1.75,-1.75c0.9665,0 1.75,0.7835 1.75,1.75c0,0.9665 -0.7835,1.75 -1.75,1.75c-0.9665,0 -1.75,-0.7835 -1.75,-1.75z" fill="#551cba" stroke="none" stroke-width="0.5"/><path d="M316.25,225.125c0,-0.9665 0.7835,-1.75 1.75,-1.75c0.58711,0 1.1067,0.28913 1.42415,0.73276c0.32092,-0.37217 0.79587,-0.60776 1.32585,-0.60776c0.76142,0 1.40928,0.48629 1.64992,1.16524c0.27225,-0.61285 0.88626,-1.04024 1.60008,-1.04024c0.9665,0 1.75,0.7835 1.75,1.75c0,0.9665 -0.7835,1.75 -1.75,1.75c-0.76142,0 -1.40928,-0.48629 -1.64992,-1.16524c-0.27225,0.61285 -0.88626,1.04024 -1.60008,1.04024c-0.58711,0 -1.1067,-0.28913 -1.42415,-0.73276c-0.32092,0.37217 -0.79587,0.60776 -1.32585,0.60776c-0.9665,0 -1.75,-0.7835 -1.75,-1.75z" fill="#551cba" stroke="none" stroke-width="0.5"/><path d="M307.625,225c0,-0.9665 0.7835,-1.75 1.75,-1.75c0.80543,0 1.48377,0.54412 1.6875,1.28483c0.20373,-0.7407 0.88207,-1.28483 1.6875,-1.28483c0.9665,0 1.75,0.7835 1.75,1.75c0,0.9665 -0.7835,1.75 -1.75,1.75c-0.80543,0 -1.48377,-0.54412 -1.6875,-1.28483c-0.20373,0.7407 -0.88207,1.28483 -1.6875,1.28483c-0.9665,0 -1.75,-0.7835 -1.75,-1.75z" fill="#551cba" stroke="none" stroke-width="0.5"/><path d="M300.5,225.125c0,-0.9665 0.7835,-1.75 1.75,-1.75c0.6587,0 1.2324,0.36393 1.531,0.90168c0.27524,-0.60558 0.88544,-1.02668 1.594,-1.02668c0.9665,0 1.75,0.7835 1.75,1.75c0,0.9665 -0.7835,1.75 -1.75,1.75c-0.6587,0 -1.2324,-0.36393 -1.531,-0.90168c-0.27524,0.60558 -0.88544,1.02668 -1.594,1.02668c-0.9665,0 -1.75,-0.7835 -1.75,-1.75z" fill="#551cba" stroke="none" stroke-width="0.5"/><path d="M302.875,233.375c0.9665,0 1.75,0.7835 1.75,1.75c0,0.9665 -0.7835,1.75 -1.75,1.75c-0.55774,0 -1.05454,-0.26092 -1.375,-0.66735c-0.32046,0.40643 -0.81726,0.66735 -1.375,0.66735c-0.45833,0 -0.87552,-0.1762 -1.1875,-0.46455c-0.31198,0.28835 -0.72917,0.46455 -1.1875,0.46455c-0.9665,0 -1.75,-0.7835 -1.75,-1.75c0,-0.9665 0.7835,-1.75 1.75,-1.75c0.45833,0 0.87552,0.1762 1.1875,0.46455c0.31198,-0.28835 0.72917,-0.46455 1.1875,-0.46455c0.55774,0 1.05454,0.26092 1.375,0.66735c0.32046,-0.40643 0.81726,-0.66735 1.375,-0.66735z" fill="#7822e0" stroke="none" stroke-width="0.5"/><path d="M312.625,233.25c0.9665,0 1.75,0.7835 1.75,1.75c0,0.9665 -0.7835,1.75 -1.75,1.75c-0.27524,0 -0.53563,-0.06354 -0.76731,-0.17675c-0.28013,0.19045 -0.61841,0.30175 -0.98269,0.30175c-0.73651,0 -1.36676,-0.45499 -1.625,-1.09923c-0.25824,0.64424 -0.88849,1.09923 -1.625,1.09923c-0.9665,0 -1.75,-0.7835 -1.75,-1.75c0,-0.9665 0.7835,-1.75 1.75,-1.75c0.73651,0 1.36676,0.45499 1.625,1.09923c0.25824,-0.64424 0.88849,-1.09923 1.625,-1.09923c0.27524,0 0.53563,0.06354 0.76731,0.17675c0.28013,-0.19045 0.61841,-0.30175 0.98269,-0.30175z" fill="#7822e0" stroke="none" stroke-width="0.5"/><path d="M315.5,235.25c0,-0.9665 0.7835,-1.75 1.75,-1.75c0.9665,0 1.75,0.7835 1.75,1.75c0,0.9665 -0.7835,1.75 -1.75,1.75c-0.9665,0 -1.75,-0.7835 -1.75,-1.75z" fill="#7822e0" stroke="none" stroke-width="0.5"/><path d="M322.75,235.875c0,-0.9665 0.7835,-1.75 1.75,-1.75c0.9665,0 1.75,0.7835 1.75,1.75c0,0.9665 -0.7835,1.75 -1.75,1.75c-0.9665,0 -1.75,-0.7835 -1.75,-1.75z" fill="#7822e0" stroke="none" stroke-width="0.5"/><path d="M329.375,235.75c0,-0.9665 0.7835,-1.75 1.75,-1.75c0.9665,0 1.75,0.7835 1.75,1.75c0,0.9665 -0.7835,1.75 -1.75,1.75c-0.9665,0 -1.75,-0.7835 -1.75,-1.75z" fill="#7822e0" stroke="none" stroke-width="0.5"/><path d="M334.875,234.75c0,-0.9665 0.7835,-1.75 1.75,-1.75c0.9665,0 1.75,0.7835 1.75,1.75c0,0.9665 -0.7835,1.75 -1.75,1.75c-0.9665,0 -1.75,-0.7835 -1.75,-1.75z" fill="#7822e0" stroke="none" stroke-width="0.5"/><path d="M340,235c0,-0.9665 0.7835,-1.75 1.75,-1.75c0.9665,0 1.75,0.7835 1.75,1.75c0,0.9665 -0.7835,1.75 -1.75,1.75c-0.9665,0 -1.75,-0.7835 -1.75,-1.75z" fill="#7822e0" stroke="none" stroke-width="0.5"/><path d="M301.16667,220.83333c0,-0.69036 0.55964,-1.25 1.25,-1.25c0.69036,0 1.25,0.55964 1.25,1.25c0,0.69036 -0.55964,1.25 -1.25,1.25c-0.69036,0 -1.25,-0.55964 -1.25,-1.25z" fill="#3a1aaf" stroke="none" stroke-width="0.5"/><path d="M305.5,217.83333c0,-0.69036 0.55964,-1.25 1.25,-1.25c0.69036,0 1.25,0.55964 1.25,1.25c0,0.69036 -0.55964,1.25 -1.25,1.25c-0.69036,0 -1.25,-0.55964 -1.25,-1.25z" fill="#3a1aaf" stroke="none" stroke-width="0.5"/><path d="M311.66667,217.33333c0,-0.69036 0.55964,-1.25 1.25,-1.25c0.69036,0 1.25,0.55964 1.25,1.25c0,0.69036 -0.55964,1.25 -1.25,1.25c-0.69036,0 -1.25,-0.55964 -1.25,-1.25z" fill="#3a1aaf" stroke="none" stroke-width="0.5"/><path d="M314.66667,220c0,-0.69036 0.55964,-1.25 1.25,-1.25c0.69036,0 1.25,0.55964 1.25,1.25c0,0.69036 -0.55964,1.25 -1.25,1.25c-0.69036,0 -1.25,-0.55964 -1.25,-1.25z" fill="#3a1aaf" stroke="none" stroke-width="0.5"/><path d="M323.25,221.08333c0.69036,0 1.25,0.55964 1.25,1.25c0,0.69036 -0.55964,1.25 -1.25,1.25c-0.28931,0 -0.55566,-0.09828 -0.76748,-0.26328c-0.21988,0.35792 -0.61499,0.59662 -1.06585,0.59662c-0.69036,0 -1.25,-0.55964 -1.25,-1.25c0,-0.69036 0.55964,-1.25 1.25,-1.25c0.28931,0 0.55566,0.09828 0.76748,0.26328c0.21988,-0.35792 0.61499,-0.59662 1.06585,-0.59662z" fill="#3a1aaf" stroke="none" stroke-width="0.5"/><path d="M328,218.5c0,-0.69036 0.55964,-1.25 1.25,-1.25c0.69036,0 1.25,0.55964 1.25,1.25c0,0.69036 -0.55964,1.25 -1.25,1.25c-0.69036,0 -1.25,-0.55964 -1.25,-1.25z" fill="#3a1aaf" stroke="none" stroke-width="0.5"/><path d="M333.66667,218.16667c0,-0.69036 0.55964,-1.25 1.25,-1.25c0.69036,0 1.25,0.55964 1.25,1.25c0,0.69036 -0.55964,1.25 -1.25,1.25c-0.69036,0 -1.25,-0.55964 -1.25,-1.25z" fill="#3a1aaf" stroke="none" stroke-width="0.5"/><path d="M339.83333,222.33333c0,0.69036 -0.55964,1.25 -1.25,1.25c-0.54205,0 -1.00352,-0.34502 -1.17677,-0.82743c-0.24986,-0.22855 -0.40656,-0.55726 -0.40656,-0.92257c0,-0.69036 0.55964,-1.25 1.25,-1.25c0.54205,0 1.00352,0.34502 1.17677,0.82743c0.24986,0.22855 0.40656,0.55726 0.40656,0.92257z" fill="#3a1aaf" stroke="none" stroke-width="0.5"/><path d="M298.66667,226.16667c0,-0.69036 0.55964,-1.25 1.25,-1.25c0.69036,0 1.25,0.55964 1.25,1.25c0,0.69036 -0.55964,1.25 -1.25,1.25c-0.69036,0 -1.25,-0.55964 -1.25,-1.25z" fill="#551cba" stroke="none" stroke-width="0.5"/><path d="M303.5,231.16667c0,-0.69036 0.55964,-1.25 1.25,-1.25c0.69036,0 1.25,0.55964 1.25,1.25c0,0.69036 -0.55964,1.25 -1.25,1.25c-0.69036,0 -1.25,-0.55964 -1.25,-1.25z" fill="#551cba" stroke="none" stroke-width="0.5"/><path d="M309.38356,228.20639c0.96028,0.80023 0.16005,1.76051 0.16005,1.76051l-0.83333,1c0,0 -0.80023,0.96028 -1.76051,0.16005c-0.96028,-0.80023 -0.16005,-1.76051 -0.16005,-1.76051l0.83333,-1c0,0 0.80023,-0.96028 1.76051,-0.16005z" fill="#551cba" stroke="none" stroke-width="0.5"/><path d="M313.91667,224.75c0.69036,0 1.25,0.55964 1.25,1.25c0,0.69036 -0.55964,1.25 -1.25,1.25c-0.23693,0 -0.45847,-0.06592 -0.64727,-0.18042c-0.0607,0.00906 -0.12284,0.01375 -0.18606,0.01375c-0.69036,0 -1.25,-0.55964 -1.25,-1.25c0,-0.69036 0.55964,-1.25 1.25,-1.25c0.23693,0 0.45847,0.06592 0.64727,0.18042c0.0607,-0.00906 0.12284,-0.01375 0.18606,-0.01375z" fill="#551cba" stroke="none" stroke-width="0.5"/><path d="M320.83333,229.16667c0,-0.69036 0.55964,-1.25 1.25,-1.25c0.69036,0 1.25,0.55964 1.25,1.25c0,0.69036 -0.55964,1.25 -1.25,1.25c-0.69036,0 -1.25,-0.55964 -1.25,-1.25z" fill="#551cba" stroke="none" stroke-width="0.5"/><path d="M323.66667,230.33333c0,-0.69036 0.55964,-1.25 1.25,-1.25c0.69036,0 1.25,0.55964 1.25,1.25c0,0.69036 -0.55964,1.25 -1.25,1.25c-0.69036,0 -1.25,-0.55964 -1.25,-1.25z" fill="#551cba" stroke="none" stroke-width="0.5"/><path d="M329.16667,226.83333c0,-0.69036 0.55964,-1.25 1.25,-1.25c0.69036,0 1.25,0.55964 1.25,1.25c0,0.69036 -0.55964,1.25 -1.25,1.25c-0.69036,0 -1.25,-0.55964 -1.25,-1.25z" fill="#551cba" stroke="none" stroke-width="0.5"/><path d="M333,225.83333c0,-0.69036 0.55964,-1.25 1.25,-1.25c0.69036,0 1.25,0.55964 1.25,1.25c0,0.69036 -0.55964,1.25 -1.25,1.25c-0.69036,0 -1.25,-0.55964 -1.25,-1.25z" fill="#551cba" stroke="none" stroke-width="0.5"/><path d="M340.5,230.83333c0,-0.69036 0.55964,-1.25 1.25,-1.25c0.69036,0 1.25,0.55964 1.25,1.25c0,0.69036 -0.55964,1.25 -1.25,1.25c-0.69036,0 -1.25,-0.55964 -1.25,-1.25z" fill="#551cba" stroke="none" stroke-width="0.5"/><path d="M299,238.83333c0,-0.69036 0.55964,-1.25 1.25,-1.25c0.69036,0 1.25,0.55964 1.25,1.25c0,0.69036 -0.55964,1.25 -1.25,1.25c-0.69036,0 -1.25,-0.55964 -1.25,-1.25z" fill="#7822e0" stroke="none" stroke-width="0.5"/><path d="M307.58333,234.75c0.69036,0 1.25,0.55964 1.25,1.25c0,0.69036 -0.55964,1.25 -1.25,1.25c-0.19188,0 -0.37366,-0.04323 -0.53614,-0.12049c-0.21637,0.17935 -0.4942,0.28716 -0.7972,0.28716c-0.69036,0 -1.25,-0.55964 -1.25,-1.25c0,-0.69036 0.55964,-1.25 1.25,-1.25c0.19188,0 0.37366,0.04323 0.53614,0.12049c0.21637,-0.17935 0.4942,-0.28716 0.7972,-0.28716z" fill="#7822e0" stroke="none" stroke-width="0.5"/><path d="M314.66667,239c0,-0.69036 0.55964,-1.25 1.25,-1.25c0.69036,0 1.25,0.55964 1.25,1.25c0,0.69036 -0.55964,1.25 -1.25,1.25c-0.69036,0 -1.25,-0.55964 -1.25,-1.25z" fill="#7822e0" stroke="none" stroke-width="0.5"/><path d="M320.83333,242.5c0,-0.69036 0.55964,-1.25 1.25,-1.25c0.69036,0 1.25,0.55964 1.25,1.25c0,0.69036 -0.55964,1.25 -1.25,1.25c-0.69036,0 -1.25,-0.55964 -1.25,-1.25z" fill="#7822e0" stroke="none" stroke-width="0.5"/><path d="M320.83333,235c0,-0.69036 0.55964,-1.25 1.25,-1.25c0.69036,0 1.25,0.55964 1.25,1.25c0,0.69036 -0.55964,1.25 -1.25,1.25c-0.69036,0 -1.25,-0.55964 -1.25,-1.25z" fill="#7822e0" stroke="none" stroke-width="0.5"/><path d="M326,236.16667c0,-0.69036 0.55964,-1.25 1.25,-1.25c0.69036,0 1.25,0.55964 1.25,1.25c0,0.69036 -0.55964,1.25 -1.25,1.25c-0.69036,0 -1.25,-0.55964 -1.25,-1.25z" fill="#7822e0" stroke="none" stroke-width="0.5"/><path d="M331.5,236.16667c0,-0.69036 0.55964,-1.25 1.25,-1.25c0.69036,0 1.25,0.55964 1.25,1.25c0,0.69036 -0.55964,1.25 -1.25,1.25c-0.69036,0 -1.25,-0.55964 -1.25,-1.25z" fill="#7822e0" stroke="none" stroke-width="0.5"/><path d="M339.25,239.25c0.69036,0 1.25,0.55964 1.25,1.25c0,0.69036 -0.55964,1.25 -1.25,1.25c-0.56616,0 -1.04441,-0.3764 -1.19816,-0.89261c-0.19819,0.42859 -0.63196,0.72594 -1.13517,0.72594c-0.69036,0 -1.25,-0.55964 -1.25,-1.25c0,-0.69036 0.55964,-1.25 1.25,-1.25c0.56616,0 1.04441,0.3764 1.19816,0.89261c0.19819,-0.42859 0.63196,-0.72594 1.13517,-0.72594z" fill="#7822e0" stroke="none" stroke-width="0.5"/><path d="M340,235.33333c0,-0.69036 0.55964,-1.25 1.25,-1.25c0.69036,0 1.25,0.55964 1.25,1.25c0,0.69036 -0.55964,1.25 -1.25,1.25c-0.69036,0 -1.25,-0.55964 -1.25,-1.25z" fill="#7822e0" stroke="none" stroke-width="0.5"/><path d="M301,223c0,-0.41421 0.33579,-0.75 0.75,-0.75c0.41421,0 0.75,0.33579 0.75,0.75c0,0.41421 -0.33579,0.75 -0.75,0.75c-0.41421,0 -0.75,-0.33579 -0.75,-0.75z" fill="#3a1aaf" stroke="none" stroke-width="0.5"/><path d="M321.66667,225c0,-0.41421 0.33579,-0.75 0.75,-0.75c0.41421,0 0.75,0.33579 0.75,0.75c0,0.41421 -0.33579,0.75 -0.75,0.75c-0.41421,0 -0.75,-0.33579 -0.75,-0.75z" fill="#3a1aaf" stroke="none" stroke-width="0.5"/><path d="M338.66667,224.66667c0,-0.41421 0.33579,-0.75 0.75,-0.75c0.41421,0 0.75,0.33579 0.75,0.75c0,0.41421 -0.33579,0.75 -0.75,0.75c-0.41421,0 -0.75,-0.33579 -0.75,-0.75z" fill="#3a1aaf" stroke="none" stroke-width="0.5"/><path d="M302.83333,233.5c0,-0.41421 0.33579,-0.75 0.75,-0.75c0.41421,0 0.75,0.33579 0.75,0.75c0,0.41421 -0.33579,0.75 -0.75,0.75c-0.41421,0 -0.75,-0.33579 -0.75,-0.75z" fill="#551cba" stroke="none" stroke-width="0.5"/><path d="M322.5,233.33333c0,-0.41421 0.33579,-0.75 0.75,-0.75c0.41421,0 0.75,0.33579 0.75,0.75c0,0.41421 -0.33579,0.75 -0.75,0.75c-0.41421,0 -0.75,-0.33579 -0.75,-0.75z" fill="#551cba" stroke="none" stroke-width="0.5"/><path d="M341.33333,235c0,-0.41421 0.33579,-0.75 0.75,-0.75c0.41421,0 0.75,0.33579 0.75,0.75c0,0.41421 -0.33579,0.75 -0.75,0.75c-0.41421,0 -0.75,-0.33579 -0.75,-0.75z" fill="#551cba" stroke="none" stroke-width="0.5"/><path d="M301.66667,241.33333c0,-0.41421 0.33579,-0.75 0.75,-0.75c0.41421,0 0.75,0.33579 0.75,0.75c0,0.41421 -0.33579,0.75 -0.75,0.75c-0.41421,0 -0.75,-0.33579 -0.75,-0.75z" fill="#7822e0" stroke="none" stroke-width="0.5"/><path d="M314.5,244.16667c0,-0.41421 0.33579,-0.75 0.75,-0.75c0.41421,0 0.75,0.33579 0.75,0.75c0,0.41421 -0.33579,0.75 -0.75,0.75c-0.41421,0 -0.75,-0.33579 -0.75,-0.75z" fill="#7822e0" stroke="none" stroke-width="0.5"/><path d="M338,245.16667c0,-0.41421 0.33579,-0.75 0.75,-0.75c0.41421,0 0.75,0.33579 0.75,0.75c0,0.41421 -0.33579,0.75 -0.75,0.75c-0.41421,0 -0.75,-0.33579 -0.75,-0.75z" fill="#7822e0" stroke="none" stroke-width="0.5"/></g><path d="M214.52362,306.61252v-267.72501h213.18203v267.72501z" fill="none" stroke="none" stroke-width="0" stroke-linecap="butt"/><path d="" fill="none" stroke="#000000" stroke-width="2" stroke-linecap="round"/><path d="M348.09345,279.76011c-0.17678,0.17677 -0.35355,0 -0.35355,0l-0.30273,-0.3073c-0.18961,-0.09309 -0.38215,-0.18574 -0.57705,-0.27765c0.1706,0.17506 0.34622,0.36109 0.52428,0.55569l0.04239,0.00904c0.96745,0.96746 2.14938,2.03589 2.65974,3.30561c0.27002,0.23032 0.50572,0.4617 0.68142,0.69992l0.06432,0.31487c0,0 0.01712,0.18501 -0.13765,0.2508c0.36897,0.41782 0.74899,0.77747 1.13564,1.02777c0.98203,1.09903 2.08443,2.12612 2.90511,3.35515l0.10286,-0.01127c0,0 0.23392,0.08822 0.14569,0.32214c-0.08823,0.23391 -0.32214,0.14569 -0.32214,0.14569l-0.34243,-0.17921c-0.79498,-1.19449 -1.87315,-2.18077 -2.81754,-3.25553c-0.98239,-0.67187 -1.89968,-1.9514 -2.72124,-3.14018c-1.23839,-0.94227 -2.59489,-1.9086 -2.61389,-3.49232c0,0 0,-0.11726 0.0803,-0.19117c-0.91474,-0.41318 -1.86679,-0.80319 -2.80088,-1.13837c-0.14632,-0.03607 -0.29417,-0.06982 -0.44388,-0.10066l-0.36401,-0.17953c0,0 -0.01018,-0.00508 -0.0251,-0.01526c-0.04132,-0.02615 -0.09259,-0.07164 -0.11016,-0.14272c-0.01263,-0.04442 -0.01185,-0.09821 0.01591,-0.16137c0.02504,-0.06429 0.06252,-0.10288 0.10286,-0.12536c0.06268,-0.03784 0.1311,-0.03376 0.17881,-0.02302c0.01774,0.00336 0.02853,0.00696 0.02853,0.00696c0.23451,0.07916 0.47118,0.1615 0.70909,0.24678c0.04289,0.00993 0.08564,0.02009 0.12826,0.03048c-0.01349,-0.06248 -0.00371,-0.13967 0.07349,-0.21686c0.17678,-0.17677 0.35355,0 0.35355,0c0.23489,0.23489 0.50902,0.42083 0.80814,0.57409c1.04522,0.33607 2.064,0.71102 3.21276,0.85461c0,0 0.24807,0.03101 0.21706,0.27908c-0.03101,0.24807 -0.27908,0.21706 -0.27908,0.21706c-0.02155,-0.00269 -0.04306,-0.00547 -0.06453,-0.00831c-0.05012,0.01273 -0.09116,0.00943 -0.09116,0.00943l-0.31369,-0.02594c0.04905,0.02457 0.09791,0.04922 0.14657,0.07394l0.36393,0.35936c0,0 0.17678,0.17678 0,0.35356zM347.70697,281.05603c-0.18253,-0.24018 -0.40901,-0.44565 -0.62511,-0.65315c0.21793,0.33132 0.50671,0.6382 0.82981,0.92888c-0.06916,-0.09509 -0.1374,-0.18718 -0.2047,-0.27573z" fill="#751cbd" stroke="none" stroke-width="0.5" stroke-linecap="butt"/><path d="M272.52055,274.57308l0.13421,0.13935c0.07632,0.05354 0.15079,0.10324 0.22447,0.1497c1.01875,0.17851 2.15312,0.11299 3.06294,0.49132l0.23508,-0.02012c0,0 0.25,0 0.25,0.25c0,0.25 -0.25,0.25 -0.25,0.25l-0.4316,-0.02012c-0.53053,-0.23456 -1.10969,-0.31854 -1.69559,-0.37737c0.02431,0.03039 0.04332,0.06951 0.04664,0.11884c1.46053,0.4725 2.98794,0.67155 4.77199,0.91763c1.41433,0.19508 2.88054,0.52942 4.30856,0.52768h0.33333c0,0 0.25,0 0.25,0.25c0,0.25 -0.25,0.25 -0.25,0.25h-0.33333c-1.45266,-0.00165 -2.93821,-0.33393 -4.37687,-0.53237c-2.61728,-0.36101 -4.71009,-0.63846 -6.8286,-1.77376c-0.18029,-0.08838 -0.37074,-0.19873 -0.56191,-0.32129c-0.29136,-0.17723 -0.58411,-0.37212 -0.87967,-0.58707c0,0 -0.0677,-0.04924 -0.09626,-0.12991c-0.09089,-0.07506 -0.17678,-0.14852 -0.25606,-0.2187l-0.00063,0.0631c0,0 -0.25,0 -0.25,-0.25c0,-0.25 0.25,-0.25 0.25,-0.25l0.3327,0.0631c0.14339,0.12786 0.322,0.27914 0.5167,0.43277c0.09325,0.0099 0.16071,0.07736 0.16071,0.07736c0.10195,0.10348 0.2101,0.19422 0.32357,0.27399c0.08858,0.05587 0.17699,0.10999 0.26526,0.16245c0.10676,0.0567 0.21714,0.10592 0.33054,0.14889c0.01232,-0.02789 0.03165,-0.05653 0.06025,-0.08519c0.17663,-0.17692 0.35356,-0.00029 0.35356,-0.00029z" fill="#751cbd" stroke="none" stroke-width="0.5" stroke-linecap="butt"/><path d="M291.3338,279.40656l0.36394,-0.35936c0.04866,-0.02472 0.09752,-0.04937 0.14657,-0.07394l-0.31369,0.02594c0,0 -0.04104,0.0033 -0.09116,-0.00943c-0.02147,0.00285 -0.04298,0.00562 -0.06454,0.00831c0,0 -0.24807,0.03101 -0.27908,-0.21706c-0.03101,-0.24807 0.21706,-0.27908 0.21706,-0.27908c1.14875,-0.1436 2.16754,-0.51854 3.21276,-0.85461c0.29912,-0.15326 0.57325,-0.3392 0.80814,-0.57409c0,0 0.17678,-0.17677 0.35356,0c0.0772,0.07719 0.08697,0.15439 0.07349,0.21686c0.04262,-0.01039 0.08536,-0.02055 0.12825,-0.03048c0.23791,-0.08528 0.47458,-0.16762 0.70909,-0.24678c0,0 0.01079,-0.0036 0.02854,-0.00696c0.04771,-0.01074 0.11613,-0.01481 0.17881,0.02302c0.04034,0.02248 0.07782,0.06107 0.10286,0.12536c0.02776,0.06316 0.02854,0.11695 0.01591,0.16137c-0.01757,0.07108 -0.06884,0.11657 -0.11016,0.14272c-0.01492,0.01018 -0.0251,0.01526 -0.0251,0.01526l-0.364,0.17953c-0.14972,0.03084 -0.29756,0.06459 -0.44389,0.10066c-0.9341,0.33518 -1.88614,0.72519 -2.80088,1.13837c0.08031,0.0739 0.08031,0.19117 0.08031,0.19117c-0.019,1.58372 -1.3755,2.55005 -2.61389,3.49232c-0.82156,1.18877 -1.73885,2.4683 -2.72124,3.14018c-0.9444,1.07476 -2.02256,2.06103 -2.81754,3.25553l-0.34244,0.17921c0,0 -0.23391,0.08822 -0.32214,-0.14569c-0.08823,-0.23391 0.14569,-0.32214 0.14569,-0.32214l0.10286,0.01127c0.82067,-1.22904 1.92307,-2.25612 2.90511,-3.35515c0.38664,-0.2503 0.76666,-0.60994 1.13563,-1.02777c-0.15477,-0.06579 -0.13765,-0.2508 -0.13765,-0.2508l0.06432,-0.31487c0.1757,-0.23822 0.41141,-0.4696 0.68143,-0.69992c0.51036,-1.26972 1.69229,-2.33816 2.65974,-3.30561l0.04239,-0.00904c0.17806,-0.19459 0.35368,-0.38062 0.52427,-0.55569c-0.1949,0.0919 -0.38744,0.18456 -0.57705,0.27765l-0.30273,0.3073c0,0 -0.17678,0.17677 -0.35356,0c-0.17678,-0.17677 0,-0.35356 0,-0.35356zM291.51558,281.33177c0.3231,-0.29068 0.61188,-0.59756 0.82981,-0.92888c-0.2161,0.20749 -0.44258,0.41296 -0.62511,0.65315c-0.0673,0.08856 -0.13554,0.18065 -0.2047,0.27573z" fill="#751cbd" stroke="none" stroke-width="0.5" stroke-linecap="butt"/><path d="M367.26026,274.57337c0.02861,0.02865 0.04794,0.0573 0.06026,0.08519c0.1134,-0.04297 0.22378,-0.09219 0.33054,-0.14889c0.08828,-0.05246 0.17669,-0.10659 0.26526,-0.16245c0.11347,-0.07977 0.22163,-0.17051 0.32358,-0.27399c0,0 0.06746,-0.06746 0.16071,-0.07736c0.1947,-0.15363 0.37331,-0.30491 0.5167,-0.43277l0.3327,-0.0631c0,0 0.25,0 0.25,0.25c0,0.25 -0.25,0.25 -0.25,0.25l-0.00063,-0.0631c-0.07927,0.07018 -0.16517,0.14364 -0.25606,0.2187c-0.02855,0.08068 -0.09626,0.12991 -0.09626,0.12991c-0.29555,0.21495 -0.58831,0.40984 -0.87966,0.58707c-0.19117,0.12256 -0.38162,0.2329 -0.56191,0.32129c-2.11851,1.1353 -4.21132,1.41275 -6.8286,1.77376c-1.43867,0.19843 -2.92421,0.53072 -4.37687,0.53237h-0.33333c0,0 -0.25,0 -0.25,-0.25c0,-0.25 0.25,-0.25 0.25,-0.25h0.33333c1.42802,0.00173 2.89423,-0.33261 4.30856,-0.52768c1.78405,-0.24607 3.31145,-0.44513 4.77199,-0.91763c0.00333,-0.04934 0.02233,-0.08845 0.04664,-0.11884c-0.58591,0.05883 -1.16505,0.14282 -1.69559,0.37737l-0.4316,0.02012c0,0 -0.25,0 -0.25,-0.25c0,-0.25 0.25,-0.25 0.25,-0.25l0.23507,0.02012c0.90982,-0.37833 2.04419,-0.31281 3.06294,-0.49132c0.07369,-0.04647 0.14815,-0.09616 0.22447,-0.1497l0.13421,-0.13935c0,0 0.17692,-0.17663 0.35355,0.00029z" fill="#751cbd" stroke="none" stroke-width="0.5" stroke-linecap="butt"/><g><g><g><path d="M374.90505,129.30271l22.22429,-22.77437c0,0 -0.38893,16.58465 0.5667,22.98548c0.70946,4.75198 4.65176,11.96827 4.65176,11.96827c0,0 -5.10948,13.65635 -6.49626,20.03236c-1.17605,5.40721 -1.2969,15.79851 -1.2969,15.79851l-21.40755,-8.55654z" fill="#6719a7" stroke="#000000" stroke-width="0" stroke-linecap="round"/><path d="M391.80806,159.47396l-11.8864,2.00669" fill="none" stroke="#4b1797" stroke-width="2" stroke-linecap="round"/><path d="M379.15753,135.13001l11.95552,-4.99865" fill="none" stroke="#4b1797" stroke-width="2" stroke-linecap="round"/><path d="M268.85344,172.47676l-20.74345,10.06015c0,0 -0.86093,-10.35626 -2.41929,-15.66594c-1.83756,-6.261 -7.90712,-19.51857 -7.90712,-19.51857c0,0 3.41811,-7.47884 3.78716,-12.26929c0.49711,-6.45265 -1.07254,-22.96743 -1.07254,-22.96743l23.79055,21.13293z" fill="#6719a7" stroke="#000000" stroke-width="0" stroke-linecap="round"/><path d="M261.57768,165.70221l-11.99917,-1.15464" fill="none" stroke="#4b1797" stroke-width="2" stroke-linecap="round"/><path d="M260.46229,139.3641l-12.2813,-4.13407" fill="none" stroke="#4b1797" stroke-width="2" stroke-linecap="round"/><path d="M256.03816,151.54453c-1.18719,-33.28068 26.59202,-61.28527 62.04659,-62.55001c35.45458,-1.26474 65.1586,24.68931 66.34578,57.96999c0.77787,21.80606 -10.8798,41.34704 -28.98403,52.58541c-4.53258,2.81364 -2.37147,23.69746 2.64656,41.36659c5.52897,19.4682 12.28209,35.75621 -33.89885,36.17645c-48.22927,0.43887 -42.49288,-14.35227 -37.64486,-33.43069c4.46089,-17.55495 6.52022,-39.38672 1.71896,-41.95786c-18.62825,-9.97571 -31.45819,-28.51881 -32.23017,-50.15987z" fill="#8b21e0" stroke="#000000" stroke-width="0" stroke-linecap="butt"/><path d="M258.79739,131.6599c8.37697,-23.05853 31.85049,-41.68666 59.28736,-42.66539c28.26943,-1.00843 52.88292,15.28761 62.29992,38.8045c0.01744,0.04356 -121.60777,3.91728 -121.58728,3.86088z" fill="#7822e0" stroke="#000000" stroke-width="0" stroke-linecap="butt"/><path d="M261.02788,126.08434c9.43802,-21.03164 31.20746,-36.16773 57.05687,-37.08983c26.0253,-0.92837 48.95204,12.80937 59.77571,33.34547c0.04845,0.09192 -116.90115,3.89713 -116.83259,3.74435z" fill="#551cba" stroke="#000000" stroke-width="0" stroke-linecap="butt"/><path d="M265.75612,117.52736c10.95743,-16.47665 30.13994,-27.74133 52.32862,-28.53285c21.48231,-0.76632 40.85344,8.46014 53.04908,23.25444c0.54718,0.66378 1.07992,1.33876 1.59776,2.02456c0.04784,0.06335 -107.03335,3.34091 -106.97546,3.25386z" fill="#3a1aaf" stroke="#000000" stroke-width="0" stroke-linecap="butt"/><path d="M269.77322,154.32775c-0.4623,-12.95977 9.6689,-23.84049 22.62867,-24.30279c12.95977,-0.4623 23.84049,9.66889 24.30279,22.62866c0.4623,12.95977 -9.66889,23.8405 -22.62865,24.3028c-12.95977,0.4623 -23.8405,-9.6689 -24.3028,-22.62866z" fill="#6320d7" stroke="#000000" stroke-width="0" stroke-linecap="butt"/><path d="M348.29999,175.02215c-12.95977,0.4623 -23.84049,-9.6689 -24.30279,-22.62867c-0.4623,-12.95977 9.66889,-23.84049 22.62866,-24.30279c12.95977,-0.4623 23.8405,9.66889 24.3028,22.62865c0.4623,12.95977 -9.6689,23.8405 -22.62866,24.3028z" fill="#6320d7" stroke="#000000" stroke-width="0" stroke-linecap="butt"/><path d="M289.76798,102.00514c3.01231,8.20153 -5.9748,13.49 -13.92858,13.77373c-3.15992,0.11272 -20.23813,-2.32967 -23.33976,-11.36969c-4.70544,-13.71448 5.11713,-36.07596 5.11713,-36.07596c0,0 3.55678,17.05895 12.89815,26.42182c5.87408,5.88762 16.87797,0.78351 19.25306,7.2501z" fill="#4f2373" stroke="#000000" stroke-width="0" stroke-linecap="butt"/><path d="M365.93919,91.35106c8.65048,-10.00468 10.98272,-27.27371 10.98272,-27.27371c0,0 11.39094,21.60476 7.67466,35.61966c-2.44962,9.23805 -19.31039,12.89111 -22.47031,13.00383c-7.95378,0.28373 -17.29488,-4.35095 -14.8746,-12.74626c1.9083,-6.61938 13.24789,-2.31231 18.68753,-8.60351z" fill="#4f2373" stroke="#000000" stroke-width="0" stroke-linecap="butt"/><path d="M276.0462,119.57201c-0.00613,-0.17187 0.02274,-0.33686 0.08021,-0.48814c-0.43241,-0.10814 -0.80306,-0.37777 -1.04138,-0.74315c-0.28791,0.5188 -0.83264,0.87834 -1.46881,0.90103c-0.81237,0.02898 -1.51514,-0.50054 -1.7385,-1.24426c-0.22406,0.67351 -0.84764,1.16974 -1.59866,1.19653c-0.36687,0.01309 -0.71138,-0.08773 -0.99949,-0.27074c-0.30506,0.42549 -0.79695,0.71006 -1.36063,0.73017c-0.96589,0.03446 -1.77682,-0.72062 -1.81127,-1.6865c-0.03446,-0.96589 0.72062,-1.77682 1.6865,-1.81127c0.36687,-0.01309 0.71138,0.08773 0.99949,0.27074c0.30506,-0.42549 0.79695,-0.71006 1.36063,-0.73017c0.81237,-0.02898 1.51514,0.50054 1.7385,1.24426c0.22406,-0.67351 0.84764,-1.16974 1.59866,-1.19653c0.63618,-0.02269 1.20514,0.29713 1.52928,0.79409c0.28791,-0.5188 0.83264,-0.87834 1.46881,-0.90103c0.44793,-0.01598 0.86252,0.13784 1.18181,0.40373c0.29953,-0.28797 0.70212,-0.47093 1.15004,-0.48691c0.96589,-0.03446 1.77682,0.72062 1.81127,1.6865c0.03446,0.96589 -0.72062,1.77682 -1.6865,1.81127c-0.18037,0.00643 -0.35533,-0.01466 -0.52083,-0.05952c0.07082,0.14929 0.11303,0.31515 0.11929,0.49078c0.02461,0.68992 -0.51472,1.26916 -1.20464,1.29377c-0.68992,0.02461 -1.26916,-0.51472 -1.29377,-1.20464z" fill="#3a1aaf" stroke="none" stroke-width="0.5" stroke-linecap="butt"/><path d="M283.62481,116.96685c-0.02461,-0.68992 0.51472,-1.26916 1.20464,-1.29377c0.13662,-0.00487 0.26891,0.01237 0.3934,0.04852c0.29282,-0.25799 0.67332,-0.42011 1.09376,-0.43511c0.96589,-0.03446 1.77682,0.72062 1.81127,1.6865c0.03446,0.96589 -0.72062,1.77682 -1.6865,1.81127c-0.55971,0.01997 -1.0674,-0.22519 -1.4021,-0.62286c-0.03966,0.00524 -0.07992,0.00863 -0.12072,0.01009c-0.68992,0.02461 -1.26916,-0.51472 -1.29377,-1.20464z" fill="#3a1aaf" stroke="none" stroke-width="0.5" stroke-linecap="butt"/><path d="M289.94817,116.57451c-0.03446,-0.96589 0.72062,-1.77682 1.6865,-1.81127c0.96589,-0.03446 1.77682,0.72062 1.81127,1.6865c0.03446,0.96589 -0.72062,1.77682 -1.6865,1.81127c-0.96589,0.03446 -1.77682,-0.72062 -1.81127,-1.6865z" fill="#3a1aaf" stroke="none" stroke-width="0.5" stroke-linecap="butt"/><path d="M297.91338,115.45651c-0.02461,-0.68992 0.51472,-1.26916 1.20464,-1.29377c0.53549,-0.0191 1.0043,0.30153 1.19885,0.76862c0.27552,-0.20596 0.61444,-0.33299 0.98426,-0.34618c0.96589,-0.03446 1.77682,0.72062 1.81127,1.6865c0.03446,0.96589 -0.72062,1.77682 -1.6865,1.81127c-0.9066,0.03234 -1.67669,-0.63091 -1.79629,-1.51116c-0.13098,0.05275 -0.2732,0.08403 -0.42246,0.08936c-0.68992,0.02461 -1.26916,-0.51472 -1.29377,-1.20464z" fill="#3a1aaf" stroke="none" stroke-width="0.5" stroke-linecap="butt"/><path d="M304.7899,116.54539c-0.03446,-0.96589 0.72062,-1.77682 1.6865,-1.81127c0.96589,-0.03446 1.77682,0.72062 1.81127,1.6865c0.03446,0.96589 -0.72062,1.77682 -1.6865,1.81127c-0.96589,0.03446 -1.77682,-0.72062 -1.81127,-1.6865z" fill="#3a1aaf" stroke="none" stroke-width="0.5" stroke-linecap="butt"/><path d="M309.67958,118.0387c-0.02461,-0.68992 0.51472,-1.26916 1.20464,-1.29377c0.17562,-0.00626 0.34407,0.02401 0.49803,0.08402c-0.05654,-0.1619 -0.09005,-0.33491 -0.09648,-0.51527c-0.03446,-0.96589 0.72062,-1.77682 1.6865,-1.81127c0.96589,-0.03446 1.77682,0.72062 1.81127,1.6865c0.03446,0.96589 -0.72062,1.77682 -1.6865,1.81127c-0.34155,0.01218 -0.66374,-0.07437 -0.93906,-0.23404c0.011,0.05971 0.01777,0.12095 0.02,0.18344c0.02461,0.68992 -0.51472,1.26916 -1.20464,1.29377c-0.68992,0.02461 -1.26916,-0.51472 -1.29377,-1.20464z" fill="#3a1aaf" stroke="none" stroke-width="0.5" stroke-linecap="butt"/><path d="M319.2688,115.69536c-0.03446,-0.96589 0.72062,-1.77682 1.6865,-1.81127c0.96589,-0.03446 1.77682,0.72062 1.81127,1.6865c0.03446,0.96589 -0.72062,1.77682 -1.6865,1.81127c-0.96589,0.03446 -1.77682,-0.72062 -1.81127,-1.6865z" fill="#3a1aaf" stroke="none" stroke-width="0.5" stroke-linecap="butt"/><path d="M331.57864,114.8168c0.01678,0.00812 0.03335,0.0166 0.04971,0.02543c0.15775,-0.77383 0.82838,-1.36843 1.65245,-1.39783c0.37157,-0.01325 0.72022,0.09033 1.01055,0.27782c0.27623,-0.2077 0.61661,-0.33587 0.98818,-0.34912c0.96589,-0.03446 1.77682,0.72062 1.81127,1.6865c0.03446,0.96589 -0.72062,1.77682 -1.6865,1.81127c-0.37157,0.01325 -0.72022,-0.09033 -1.01055,-0.27782c-0.27623,0.2077 -0.61661,0.33587 -0.98818,0.34912c-0.47744,0.01703 -0.91702,-0.15885 -1.24368,-0.45774c-0.19497,0.40467 -0.60214,0.69035 -1.08224,0.70748c-0.39663,0.01415 -0.75668,-0.15809 -0.99579,-0.43817c-0.2076,0.09761 -0.43794,0.15576 -0.6817,0.16446c-0.77935,0.0278 -1.45783,-0.45843 -1.70892,-1.15467c-0.15249,0.54086 -0.55934,0.97852 -1.08752,1.17008c0.03323,0.10529 0.05296,0.21676 0.05709,0.33248c0.02461,0.68992 -0.51472,1.26916 -1.20464,1.29377c-0.68992,0.02461 -1.26916,-0.51472 -1.29377,-1.20464c-0.01437,-0.40289 0.16358,-0.76805 0.45154,-1.00705c-0.2119,-0.2779 -0.34286,-0.6218 -0.35627,-0.99762c-0.03446,-0.96589 0.72062,-1.77682 1.6865,-1.81127c0.77935,-0.0278 1.45783,0.45843 1.70892,1.15467c0.20083,-0.71236 0.84294,-1.2457 1.6223,-1.2735c0.82255,-0.02934 1.53272,0.51391 1.74667,1.27231c0.19827,-0.00185 0.3867,0.04282 0.55457,0.12404z" fill="#3a1aaf" stroke="none" stroke-width="0.5" stroke-linecap="butt"/><path d="M341.83174,117.05854c-0.00867,-0.24292 0.05258,-0.47211 0.1657,-0.66821c-0.52318,-0.28671 -0.88638,-0.8338 -0.90919,-1.4733c-0.03446,-0.96589 0.72062,-1.77682 1.6865,-1.81127c0.96589,-0.03446 1.77682,0.72062 1.81127,1.6865c0.01938,0.54325 -0.211,1.03749 -0.58818,1.37213c0.19675,0.21214 0.32118,0.49321 0.3323,0.80505c0.02461,0.68992 -0.51472,1.26916 -1.20464,1.29377c-0.68992,0.02461 -1.26916,-0.51472 -1.29377,-1.20464z" fill="#3a1aaf" stroke="none" stroke-width="0.5" stroke-linecap="butt"/><path d="M347.74474,114.51279c-0.03446,-0.96589 0.72062,-1.77682 1.6865,-1.81127c0.96589,-0.03446 1.77682,0.72062 1.81127,1.6865c0.03446,0.96589 -0.72062,1.77682 -1.6865,1.81127c-0.96589,0.03446 -1.77682,-0.72062 -1.81127,-1.6865z" fill="#3a1aaf" stroke="none" stroke-width="0.5" stroke-linecap="butt"/><path d="M354.27032,115.11388c-0.03446,-0.96589 0.72062,-1.77682 1.6865,-1.81127c0.96589,-0.03446 1.77682,0.72062 1.81127,1.6865c0.03446,0.96589 -0.72062,1.77682 -1.6865,1.81127c-0.96589,0.03446 -1.77682,-0.72062 -1.81127,-1.6865z" fill="#3a1aaf" stroke="none" stroke-width="0.5" stroke-linecap="butt"/><path d="M361.23022,113.86497c-0.03446,-0.96589 0.72062,-1.77682 1.6865,-1.81127c0.96589,-0.03446 1.77682,0.72062 1.81127,1.6865c0.03446,0.96589 -0.72062,1.77682 -1.6865,1.81127c-0.96589,0.03446 -1.77682,-0.72062 -1.81127,-1.6865z" fill="#3a1aaf" stroke="none" stroke-width="0.5" stroke-linecap="butt"/><path d="M370.12637,113.13069c0.0667,-0.00238 0.13266,-0.00099 0.19768,0.00397c0.20515,-0.09497 0.43222,-0.15151 0.67231,-0.16008c0.96589,-0.03446 1.77682,0.72062 1.81127,1.6865c0.03446,0.96589 -0.72062,1.77682 -1.6865,1.81127c-0.0667,0.00238 -0.13266,0.00099 -0.19768,-0.00397c-0.20515,0.09497 -0.43222,0.15151 -0.67231,0.16008c-0.95676,0.03413 -1.76149,-0.70643 -1.81009,-1.6592c-0.30227,0.44899 -0.80793,0.75195 -1.39022,0.77272c-0.96589,0.03446 -1.77682,-0.72062 -1.81127,-1.6865c-0.03446,-0.96589 0.72062,-1.77682 1.6865,-1.81127c0.95676,-0.03413 1.76149,0.70643 1.81009,1.6592c0.30227,-0.44899 0.80793,-0.75195 1.39022,-0.77272z" fill="#3a1aaf" stroke="none" stroke-width="0.5" stroke-linecap="butt"/><path d="M265.62704,124.36316c0.96589,-0.03446 1.77682,0.72062 1.81127,1.6865c0.03446,0.96589 -0.72062,1.77682 -1.6865,1.81127c-0.51452,0.01835 -0.98507,-0.18733 -1.31771,-0.52957c-0.27785,0.55233 -0.84046,0.94011 -1.50195,0.96371c-0.96589,0.03446 -1.77682,-0.72062 -1.81127,-1.6865c-0.03446,-0.96589 0.72062,-1.77682 1.6865,-1.81127c0.51452,-0.01835 0.98507,0.18733 1.31771,0.52957c0.27785,-0.55233 0.84046,-0.94011 1.50195,-0.96371z" fill="#551cba" stroke="none" stroke-width="0.5" stroke-linecap="butt"/><path d="M269.13363,126.82305c-0.00644,-0.18067 0.02579,-0.35375 0.08926,-0.51127c-0.38318,-0.30745 -0.63541,-0.77359 -0.6543,-1.30307c-0.03446,-0.96589 0.72062,-1.77682 1.6865,-1.81127c0.96589,-0.03446 1.77682,0.72062 1.81127,1.6865c0.01889,0.52949 -0.19948,1.01242 -0.55979,1.34638c0.07454,0.15259 0.11902,0.32294 0.12546,0.50361c0.02461,0.68992 -0.51472,1.26916 -1.20464,1.29377c-0.68992,0.02461 -1.26916,-0.51472 -1.29377,-1.20464z" fill="#551cba" stroke="none" stroke-width="0.5" stroke-linecap="butt"/><path d="M276.12918,126.5735c0.02461,0.68992 -0.51472,1.26916 -1.20464,1.29377c-0.23064,0.00823 -0.44892,-0.04657 -0.63823,-0.14895c-0.90644,-0.03544 -1.64581,-0.76495 -1.67867,-1.68629c-0.03446,-0.96589 0.72062,-1.77682 1.6865,-1.81127c0.96589,-0.03446 1.77682,0.72062 1.81127,1.6865c0.00442,0.12396 -0.00416,0.24536 -0.02452,0.36289c0.02792,0.09665 0.04454,0.19825 0.04828,0.30334z" fill="#551cba" stroke="none" stroke-width="0.5" stroke-linecap="butt"/><path d="M283.7881,123.88209c0.96589,-0.03446 1.77682,0.72062 1.81127,1.6865c0.03446,0.96589 -0.72062,1.77682 -1.6865,1.81127c-0.44793,0.01598 -0.86252,-0.13784 -1.18181,-0.40373c-0.29953,0.28797 -0.70212,0.47093 -1.15004,0.48691c-0.96589,0.03446 -1.77682,-0.72062 -1.81127,-1.6865c-0.03446,-0.96589 0.72062,-1.77682 1.6865,-1.81127c0.44793,-0.01598 0.86252,0.13784 1.18181,0.40373c0.29953,-0.28797 0.70212,-0.47093 1.15004,-0.48691z" fill="#551cba" stroke="none" stroke-width="0.5" stroke-linecap="butt"/><path d="M287.08654,125.18199c-0.03446,-0.96589 0.72062,-1.77682 1.6865,-1.81127c0.96589,-0.03446 1.77682,0.72062 1.81127,1.6865c0.03446,0.96589 -0.72062,1.77682 -1.6865,1.81127c-0.96589,0.03446 -1.77682,-0.72062 -1.81127,-1.6865z" fill="#551cba" stroke="none" stroke-width="0.5" stroke-linecap="butt"/><path d="M295.4027,124.5518c-0.03446,-0.96589 0.72062,-1.77682 1.6865,-1.81127c0.96589,-0.03446 1.77682,0.72062 1.81127,1.6865c0.03446,0.96589 -0.72062,1.77682 -1.6865,1.81127c-0.96589,0.03446 -1.77682,-0.72062 -1.81127,-1.6865z" fill="#551cba" stroke="none" stroke-width="0.5" stroke-linecap="butt"/><path d="M302.74919,124.79005c-0.03446,-0.96589 0.72062,-1.77682 1.6865,-1.81127c0.96589,-0.03446 1.77682,0.72062 1.81127,1.6865c0.03446,0.96589 -0.72062,1.77682 -1.6865,1.81127c-0.96589,0.03446 -1.77682,-0.72062 -1.81127,-1.6865z" fill="#551cba" stroke="none" stroke-width="0.5" stroke-linecap="butt"/><path d="M312.00222,124.71014c0.68992,-0.02461 1.26916,0.51472 1.29377,1.20464c0.02461,0.68992 -0.51472,1.26916 -1.20464,1.29377c-0.66293,0.02365 -1.22367,-0.4734 -1.28836,-1.12441c-0.22394,0.1168 -0.47679,0.18674 -0.74601,0.19634c-0.96589,0.03446 -1.77682,-0.72062 -1.81127,-1.6865c-0.03446,-0.96589 0.72062,-1.77682 1.6865,-1.81127c0.96589,-0.03446 1.77682,0.72062 1.81127,1.6865c0.00339,0.09515 -0.00087,0.1888 -0.01225,0.28035c0.08689,-0.02258 0.17757,-0.03608 0.27101,-0.03942z" fill="#551cba" stroke="none" stroke-width="0.5" stroke-linecap="butt"/><path d="M318.7295,124.27489c-0.10747,-0.2163 -0.17164,-0.45844 -0.18081,-0.71553c-0.03446,-0.96589 0.72062,-1.77682 1.6865,-1.81127c0.96589,-0.03446 1.77682,0.72062 1.81127,1.6865c0.03446,0.96589 -0.72062,1.77682 -1.6865,1.81127c-0.36096,0.01288 -0.70028,-0.08451 -0.98553,-0.26196c0.0425,0.11847 0.06768,0.24541 0.07241,0.37792c0.02461,0.68992 -0.51472,1.26916 -1.20464,1.29377c-0.5672,0.02023 -1.0596,-0.3407 -1.2305,-0.85312c-0.14722,0.04641 -0.30307,0.07395 -0.46482,0.07972c-0.96589,0.03446 -1.77682,-0.72062 -1.81127,-1.6865c-0.03446,-0.96589 0.72062,-1.77682 1.6865,-1.81127c0.96589,-0.03446 1.77682,0.72062 1.81127,1.6865c0.00103,0.02879 0.00135,0.05745 0.00099,0.08595c0.17621,0.00501 0.34381,0.04674 0.49512,0.11801z" fill="#551cba" stroke="none" stroke-width="0.5" stroke-linecap="butt"/><path d="M328.72672,123.6966c0.03446,0.96589 -0.72062,1.77682 -1.6865,1.81127c-0.48494,0.0173 -0.93083,-0.16442 -1.25899,-0.47193c-0.85593,-0.08712 -1.53793,-0.79456 -1.56947,-1.67861c-0.03446,-0.96589 0.72062,-1.77682 1.6865,-1.81127c0.48494,-0.0173 0.93083,0.16442 1.25899,0.47193c0.85593,0.08712 1.53793,0.79456 1.56947,1.67861z" fill="#551cba" stroke="none" stroke-width="0.5" stroke-linecap="butt"/><path d="M330.72545,123.62531c-0.03446,-0.96589 0.72062,-1.77682 1.6865,-1.81127c0.96589,-0.03446 1.77682,0.72062 1.81127,1.6865c0.03446,0.96589 -0.72062,1.77682 -1.6865,1.81127c-0.96589,0.03446 -1.77682,-0.72062 -1.81127,-1.6865z" fill="#551cba" stroke="none" stroke-width="0.5" stroke-linecap="butt"/><path d="M336.87632,123.07235c-0.03446,-0.96589 0.72062,-1.77682 1.6865,-1.81127c0.96589,-0.03446 1.77682,0.72062 1.81127,1.6865c0.03446,0.96589 -0.72062,1.77682 -1.6865,1.81127c-0.96589,0.03446 -1.77682,-0.72062 -1.81127,-1.6865z" fill="#551cba" stroke="none" stroke-width="0.5" stroke-linecap="butt"/><path d="M344.87123,122.78716c-0.03446,-0.96589 0.72062,-1.77682 1.6865,-1.81127c0.96589,-0.03446 1.77682,0.72062 1.81127,1.6865c0.03446,0.96589 -0.72062,1.77682 -1.6865,1.81127c-0.96589,0.03446 -1.77682,-0.72062 -1.81127,-1.6865z" fill="#551cba" stroke="none" stroke-width="0.5" stroke-linecap="butt"/><path d="M349.70743,122.78141c-0.03446,-0.96589 0.72062,-1.77682 1.6865,-1.81127c0.96589,-0.03446 1.77682,0.72062 1.81127,1.6865c0.03446,0.96589 -0.72062,1.77682 -1.6865,1.81127c-0.96589,0.03446 -1.77682,-0.72062 -1.81127,-1.6865z" fill="#551cba" stroke="none" stroke-width="0.5" stroke-linecap="butt"/><path d="M356.73863,123.53123c-0.03446,-0.96589 0.72062,-1.77682 1.6865,-1.81127c0.96589,-0.03446 1.77682,0.72062 1.81127,1.6865c0.03446,0.96589 -0.72062,1.77682 -1.6865,1.81127c-0.96589,0.03446 -1.77682,-0.72062 -1.81127,-1.6865z" fill="#551cba" stroke="none" stroke-width="0.5" stroke-linecap="butt"/><path d="M361.44987,124.69735c-0.00642,-0.18007 0.02557,-0.3526 0.08863,-0.50969c-0.28466,-0.2989 -0.4653,-0.6991 -0.48117,-1.14403c-0.03446,-0.96589 0.72062,-1.77682 1.6865,-1.81127c0.96589,-0.03446 1.77682,0.72062 1.81127,1.6865c0.02034,0.5703 -0.23456,1.08658 -0.64559,1.42091c0.02218,0.08611 0.03546,0.17594 0.03877,0.26847c0.02461,0.68992 -0.51472,1.26916 -1.20464,1.29377c-0.68992,0.02461 -1.26916,-0.51472 -1.29377,-1.20464z" fill="#551cba" stroke="none" stroke-width="0.5" stroke-linecap="butt"/><path d="M366.71445,122.67506c-0.03446,-0.96589 0.72062,-1.77682 1.6865,-1.81127c0.96589,-0.03446 1.77682,0.72062 1.81127,1.6865c0.03446,0.96589 -0.72062,1.77682 -1.6865,1.81127c-0.96589,0.03446 -1.77682,-0.72062 -1.81127,-1.6865z" fill="#551cba" stroke="none" stroke-width="0.5" stroke-linecap="butt"/><path d="M375.38462,120.28111c0.96589,-0.03446 1.77682,0.72062 1.81127,1.6865c0.03446,0.96589 -0.72062,1.77682 -1.6865,1.81127c-0.42524,0.01517 -0.82045,-0.12269 -1.13257,-0.36421c-0.25323,0.16023 -0.55101,0.25749 -0.8721,0.26894c-0.96589,0.03446 -1.77682,-0.72062 -1.81127,-1.6865c-0.03446,-0.96589 0.72062,-1.77682 1.6865,-1.81127c0.42524,-0.01517 0.82045,0.12269 1.13257,0.36421c0.25323,-0.16023 0.55101,-0.25749 0.8721,-0.26894z" fill="#551cba" stroke="none" stroke-width="0.5" stroke-linecap="butt"/><path d="M262.17066,130.3235c0.96589,-0.03446 1.77682,0.72062 1.81127,1.6865c0.03446,0.96589 -0.72062,1.77682 -1.6865,1.81127c-0.32108,0.01145 -0.62504,-0.06434 -0.88904,-0.20612c-0.29414,0.26313 -0.6785,0.42881 -1.10374,0.44398c-0.96589,0.03446 -1.77682,-0.72062 -1.81127,-1.6865c-0.03446,-0.96589 0.72062,-1.77682 1.6865,-1.81127c0.32108,-0.01145 0.62504,0.06434 0.88904,0.20612c0.29414,-0.26313 0.6785,-0.42881 1.10374,-0.44398z" fill="#7822e0" stroke="none" stroke-width="0.5" stroke-linecap="butt"/><path d="M376.30922,129.83756c-0.00392,-0.10998 0.00648,-0.21716 0.02955,-0.31972c-0.30729,0.36056 -0.75909,0.5959 -1.26984,0.61412c-0.05617,0.002 -0.11183,0.00134 -0.16684,-0.00188c-0.05464,0.00713 -0.1101,0.01176 -0.16628,0.01377c-0.96589,0.03446 -1.77682,-0.72062 -1.81127,-1.6865c-0.03446,-0.96589 0.72062,-1.77682 1.6865,-1.81127c0.05617,-0.002 0.11183,-0.00134 0.16684,0.00188c0.05464,-0.00713 0.1101,-0.01176 0.16628,-0.01377c0.96589,-0.03446 1.77682,0.72062 1.81127,1.6865c0.00729,0.20427 -0.02074,0.40161 -0.0786,0.58614c0.15944,-0.1587 0.36178,-0.27492 0.58904,-0.32937c-0.00264,-0.93991 0.74132,-1.719 1.68763,-1.75276c0.96589,-0.03446 1.77682,0.72062 1.81127,1.6865c0.03446,0.96589 -0.72062,1.77682 -1.6865,1.81127c-0.12826,0.00458 -0.25378,-0.00477 -0.37511,-0.02668c-0.18711,0.42516 -0.60483,0.72872 -1.10017,0.74639c-0.68992,0.02461 -1.26916,-0.51472 -1.29377,-1.20464z" fill="#7822e0" stroke="none" stroke-width="0.5" stroke-linecap="butt"/><path d="M366.92835,128.67124c-0.03446,-0.96589 0.72062,-1.77682 1.6865,-1.81127c0.38387,-0.01369 0.74325,0.09732 1.03915,0.29669c0.26824,-0.00537 0.52399,0.0501 0.75381,0.15391c0.07304,-0.012 0.14767,-0.01951 0.2236,-0.02222c0.96589,-0.03446 1.77682,0.72062 1.81127,1.6865c0.03446,0.96589 -0.72062,1.77682 -1.6865,1.81127c-0.2784,0.00993 -0.54394,-0.04573 -0.78171,-0.15313c-0.07304,0.012 -0.14767,0.01951 -0.2236,0.02222c-0.38387,0.01369 -0.74325,-0.09732 -1.03915,-0.29669c-0.95355,0.0191 -1.74925,-0.73071 -1.78337,-1.68728z" fill="#7822e0" stroke="none" stroke-width="0.5" stroke-linecap="butt"/><path d="M364.93268,126.491c0.96589,-0.03446 1.77682,0.72062 1.81127,1.6865c0.03446,0.96589 -0.72062,1.77682 -1.6865,1.81127c-0.54722,0.01952 -1.04472,-0.21438 -1.37944,-0.59647c-0.22219,0.67684 -0.84737,1.17623 -1.60083,1.2031c-0.96589,0.03446 -1.77682,-0.72062 -1.81127,-1.6865c-0.03446,-0.96589 0.72062,-1.77682 1.6865,-1.81127c0.54722,-0.01952 1.04472,0.21438 1.37944,0.59647c0.22219,-0.67684 0.84737,-1.17623 1.60083,-1.2031z" fill="#7822e0" stroke="none" stroke-width="0.5" stroke-linecap="butt"/><path d="M324.44348,129.85321c-0.03446,-0.96589 0.72062,-1.77682 1.6865,-1.81127c0.72778,-0.02596 1.36759,0.39633 1.65355,1.01929c0.12913,-0.80934 0.81583,-1.44093 1.66579,-1.47125c0.96589,-0.03446 1.77682,0.72062 1.81127,1.6865c0.03446,0.96589 -0.72062,1.77682 -1.6865,1.81127c-0.72778,0.02596 -1.36759,-0.39633 -1.65355,-1.01929c-0.12913,0.80934 -0.81583,1.44093 -1.66579,1.47125c-0.96589,0.03446 -1.77682,-0.72062 -1.81127,-1.6865z" fill="#7822e0" stroke="none" stroke-width="0.5" stroke-linecap="butt"/><path d="M322.59349,129.41889c0.03446,0.96589 -0.72062,1.77682 -1.6865,1.81127c-0.56787,0.02026 -1.08218,-0.23239 -1.41662,-0.64035c-0.43074,-0.30453 -0.7194,-0.79952 -0.73966,-1.36739c-0.03446,-0.96589 0.72062,-1.77682 1.6865,-1.81127c0.56787,-0.02026 1.08218,0.23239 1.41662,0.64035c0.43074,0.30453 0.7194,0.79952 0.73966,1.36739z" fill="#7822e0" stroke="none" stroke-width="0.5" stroke-linecap="butt"/><path d="M313.10239,132.17566c-0.61475,0.02193 -1.14162,-0.4039 -1.26655,-0.98504c-0.0385,-0.04736 -0.07458,-0.09679 -0.10806,-0.14811c-0.28791,0.5188 -0.83264,0.87834 -1.46881,0.90103c-0.96589,0.03446 -1.77682,-0.72062 -1.81127,-1.6865c-0.03446,-0.96589 0.72062,-1.77682 1.6865,-1.81127c0.61829,-0.02206 1.17309,0.27941 1.50136,0.7526c0.16973,-0.75783 0.83303,-1.33619 1.64547,-1.36517c0.96589,-0.03446 1.77682,0.72062 1.81127,1.6865c0.01024,0.28706 -0.04925,0.56042 -0.1633,0.80379c-0.07008,0.52012 -0.36982,0.97085 -0.79686,1.24227c-0.21013,0.35237 -0.58925,0.59418 -1.02975,0.6099z" fill="#7822e0" stroke="none" stroke-width="0.5" stroke-linecap="butt"/><path d="M263.97599,131.84344c-0.03446,-0.96589 0.72062,-1.77682 1.6865,-1.81127c0.96589,-0.03446 1.77682,0.72062 1.81127,1.6865c0.03446,0.96589 -0.72062,1.77682 -1.6865,1.81127c-0.96589,0.03446 -1.77682,-0.72062 -1.81127,-1.6865z" fill="#7822e0" stroke="none" stroke-width="0.5" stroke-linecap="butt"/><path d="M269.02035,132.99768c-0.02182,-0.61169 0.39967,-1.13639 0.97639,-1.26465c-0.01687,-0.08776 -0.02721,-0.17794 -0.0305,-0.27004c-0.03345,-0.9378 0.67738,-1.72954 1.6028,-1.80632c0.22344,-0.11617 0.47558,-0.18571 0.744,-0.19529c0.43922,-0.01567 0.84641,0.13193 1.1631,0.38837c0.19931,0.07511 0.37492,0.19983 0.5112,0.35961c0.3068,-0.40224 0.7847,-0.66893 1.32973,-0.68837c0.96589,-0.03446 1.77682,0.72062 1.81127,1.6865c0.03446,0.96589 -0.72062,1.77682 -1.6865,1.81127c-0.67246,0.02399 -1.26982,-0.33472 -1.58233,-0.88083c-0.28399,0.45341 -0.77067,0.76918 -1.33801,0.81626c-0.22344,0.11617 -0.47558,0.18571 -0.744,0.19529c-0.0921,0.00329 -0.18279,-0.0006 -0.27153,-0.01118c-0.08685,0.58439 -0.58018,1.0422 -1.19187,1.06402c-0.68992,0.02461 -1.26916,-0.51472 -1.29377,-1.20464z" fill="#7822e0" stroke="none" stroke-width="0.5" stroke-linecap="butt"/><path d="M269.66643,151.33417c-0.4623,-12.95977 9.6689,-23.84049 22.62867,-24.30279c12.95977,-0.4623 23.84049,9.66889 24.30279,22.62866c0.4623,12.95977 -9.66889,23.8405 -22.62865,24.3028c-12.95977,0.4623 -23.8405,-9.6689 -24.3028,-22.62866z" fill="url(#color-1)" stroke="#000000" stroke-width="0" stroke-linecap="butt"/><path d="M348.19321,172.02858c-12.95977,0.4623 -23.84049,-9.6689 -24.30279,-22.62867c-0.4623,-12.95977 9.66889,-23.84049 22.62866,-24.30279c12.95977,-0.4623 23.8405,9.66889 24.3028,22.62865c0.4623,12.95977 -9.6689,23.8405 -22.62866,24.3028z" fill="url(#color-2)" stroke="#000000" stroke-width="0" stroke-linecap="butt"/><path d="M271.6263,121.89772c-0.02461,-0.68992 0.51472,-1.26916 1.20464,-1.29377c0.68992,-0.02461 1.26916,0.51472 1.29377,1.20464c0.02461,0.68992 -0.51472,1.26916 -1.20464,1.29377c-0.68992,0.02461 -1.26916,-0.51472 -1.29377,-1.20464z" fill="#3a1aaf" stroke="none" stroke-width="0.5" stroke-linecap="butt"/><path d="M289.09735,120.77418c-0.02461,-0.68992 0.51472,-1.26916 1.20464,-1.29377c0.68992,-0.02461 1.26916,0.51472 1.29377,1.20464c0.02461,0.68992 -0.51472,1.26916 -1.20464,1.29377c-0.68992,0.02461 -1.26916,-0.51472 -1.29377,-1.20464z" fill="#3a1aaf" stroke="none" stroke-width="0.5" stroke-linecap="butt"/><path d="M293.86225,118.76971c-0.02461,-0.68992 0.51472,-1.26916 1.20464,-1.29377c0.68992,-0.02461 1.26916,0.51472 1.29377,1.20464c0.02461,0.68992 -0.51472,1.26916 -1.20464,1.29377c-0.68992,0.02461 -1.26916,-0.51472 -1.29377,-1.20464z" fill="#3a1aaf" stroke="none" stroke-width="0.5" stroke-linecap="butt"/><path d="M316.8415,122.45285c-0.00182,-0.0511 0.00151,-0.10118 0.00953,-0.14974c-0.4989,-0.14964 -0.87027,-0.60358 -0.88987,-1.15303c-0.02461,-0.68992 0.51472,-1.26916 1.20464,-1.29377c0.68992,-0.02461 1.26916,0.51472 1.29377,1.20464c0.0118,0.33074 -0.106,0.63604 -0.30787,0.867c0.11194,0.12585 0.18237,0.28995 0.18885,0.47143c0.01477,0.41395 -0.30884,0.76149 -0.72279,0.77626c-0.41395,0.01477 -0.76149,-0.30884 -0.77626,-0.72279z" fill="#3a1aaf" stroke="none" stroke-width="0.5" stroke-linecap="butt"/><path d="M318.60236,120.38877c-0.02461,-0.68992 0.51472,-1.26916 1.20464,-1.29377c0.68992,-0.02461 1.26916,0.51472 1.29377,1.20464c0.02461,0.68992 -0.51472,1.26916 -1.20464,1.29377c-0.68992,0.02461 -1.26916,-0.51472 -1.29377,-1.20464z" fill="#3a1aaf" stroke="none" stroke-width="0.5" stroke-linecap="butt"/><path d="M353.06855,118.82574c-0.02461,-0.68992 0.51472,-1.26916 1.20464,-1.29377c0.68992,-0.02461 1.26916,0.51472 1.29377,1.20464c0.02461,0.68992 -0.51472,1.26916 -1.20464,1.29377c-0.68992,0.02461 -1.26916,-0.51472 -1.29377,-1.20464z" fill="#3a1aaf" stroke="none" stroke-width="0.5" stroke-linecap="butt"/><path d="M359.40974,118.93309c-0.02461,-0.68992 0.51472,-1.26916 1.20464,-1.29377c0.68992,-0.02461 1.26916,0.51472 1.29377,1.20464c0.02461,0.68992 -0.51472,1.26916 -1.20464,1.29377c-0.68992,0.02461 -1.26916,-0.51472 -1.29377,-1.20464z" fill="#3a1aaf" stroke="none" stroke-width="0.5" stroke-linecap="butt"/><path d="M363.34184,116.95832c-0.02461,-0.68992 0.51472,-1.26916 1.20464,-1.29377c0.68992,-0.02461 1.26916,0.51472 1.29377,1.20464c0.02461,0.68992 -0.51472,1.26916 -1.20464,1.29377c-0.68992,0.02461 -1.26916,-0.51472 -1.29377,-1.20464z" fill="#3a1aaf" stroke="none" stroke-width="0.5" stroke-linecap="butt"/><path d="M263.78566,131.18314c-0.01477,-0.41395 0.30884,-0.76149 0.72279,-0.77626c0.03734,-0.00133 0.07414,0.00009 0.11021,0.00408c-0.02043,-0.08258 -0.03269,-0.1685 -0.03584,-0.2569c-0.02461,-0.68992 0.51472,-1.26916 1.20464,-1.29377c0.68992,-0.02461 1.26916,0.51472 1.29377,1.20464c0.02461,0.68992 -0.51472,1.26916 -1.20464,1.29377c-0.21333,0.00761 -0.41608,-0.0387 -0.59513,-0.12671c-0.03675,0.36743 -0.34021,0.6604 -0.71953,0.67393c-0.41395,0.01477 -0.76149,-0.30884 -0.77626,-0.72279z" fill="#551cba" stroke="none" stroke-width="0.5" stroke-linecap="butt"/><path d="M277.53891,128.69126c-0.02461,-0.68992 0.51472,-1.26916 1.20464,-1.29377c0.68992,-0.02461 1.26916,0.51472 1.29377,1.20464c0.02461,0.68992 -0.51472,1.26916 -1.20464,1.29377c-0.68992,0.02461 -1.26916,-0.51472 -1.29377,-1.20464z" fill="#551cba" stroke="none" stroke-width="0.5" stroke-linecap="butt"/><path d="M307.87078,128.10958c-0.02461,-0.68992 0.51472,-1.26916 1.20464,-1.29377c0.68992,-0.02461 1.26916,0.51472 1.29377,1.20464c0.02461,0.68992 -0.51472,1.26916 -1.20464,1.29377c-0.68992,0.02461 -1.26916,-0.51472 -1.29377,-1.20464z" fill="#551cba" stroke="none" stroke-width="0.5" stroke-linecap="butt"/><path d="M322.71845,128.24703c-0.00197,-0.05512 0.00207,-0.10907 0.01152,-0.16121c-0.1333,0.05483 -0.27842,0.08735 -0.43089,0.09279c-0.68992,0.02461 -1.26916,-0.51472 -1.29377,-1.20464c-0.02461,-0.68992 0.51472,-1.26916 1.20464,-1.29377c0.68992,-0.02461 1.26916,0.51472 1.29377,1.20464c0.00755,0.21158 -0.03794,0.41273 -0.12454,0.59069c0.02044,-0.00241 0.04113,-0.00401 0.06206,-0.00476c0.09004,-0.00321 0.17693,0.00959 0.25795,0.03584c-0.0058,-0.04202 -0.00954,-0.08472 -0.01108,-0.12803c-0.02461,-0.68992 0.51472,-1.26916 1.20464,-1.29377c0.68992,-0.02461 1.26916,0.51472 1.29377,1.20464c0.02461,0.68992 -0.51472,1.26916 -1.20464,1.29377c-0.28843,0.01029 -0.5575,-0.07798 -0.77481,-0.23462c-0.05908,0.34237 -0.35137,0.60833 -0.71236,0.62121c-0.41395,0.01477 -0.76149,-0.30884 -0.77626,-0.72279z" fill="#551cba" stroke="none" stroke-width="0.5" stroke-linecap="butt"/><path d="M328.3221,126.3794c-0.02461,-0.68992 0.51472,-1.26916 1.20464,-1.29377c0.68992,-0.02461 1.26916,0.51472 1.29377,1.20464c0.02461,0.68992 -0.51472,1.26916 -1.20464,1.29377c-0.68992,0.02461 -1.26916,-0.51472 -1.29377,-1.20464z" fill="#551cba" stroke="none" stroke-width="0.5" stroke-linecap="butt"/><path d="M364.31705,125.59571c-0.02461,-0.68992 0.51472,-1.26916 1.20464,-1.29377c0.68992,-0.02461 1.26916,0.51472 1.29377,1.20464c0.02461,0.68992 -0.51472,1.26916 -1.20464,1.29377c-0.68992,0.02461 -1.26916,-0.51472 -1.29377,-1.20464z" fill="#551cba" stroke="none" stroke-width="0.5" stroke-linecap="butt"/><path d="M369.59926,128.74273c-0.00454,-0.12719 0.02287,-0.24811 0.07503,-0.35504c-0.45033,-0.17596 -0.77642,-0.60633 -0.79475,-1.12024c-0.02461,-0.68992 0.51472,-1.26916 1.20464,-1.29377c0.68992,-0.02461 1.26916,0.51472 1.29377,1.20464c0.01481,0.41525 -0.17467,0.7904 -0.47832,1.02867c0.11764,0.1272 0.19201,0.29554 0.19867,0.48226c0.01477,0.41395 -0.30884,0.76149 -0.72279,0.77626c-0.41395,0.01477 -0.76149,-0.30884 -0.77626,-0.72279z" fill="#551cba" stroke="none" stroke-width="0.5" stroke-linecap="butt"/><path d="M372.49635,125.80426c-0.02461,-0.68992 0.51472,-1.26916 1.20464,-1.29377c0.68992,-0.02461 1.26916,0.51472 1.29377,1.20464c0.02461,0.68992 -0.51472,1.26916 -1.20464,1.29377c-0.68992,0.02461 -1.26916,-0.51472 -1.29377,-1.20464z" fill="#551cba" stroke="none" stroke-width="0.5" stroke-linecap="butt"/><path d="M263.02396,137.88122c-0.02461,-0.68992 0.51472,-1.26916 1.20464,-1.29377c0.68992,-0.02461 1.26916,0.51472 1.29377,1.20464c0.02461,0.68992 -0.51472,1.26916 -1.20464,1.29377c-0.68992,0.02461 -1.26916,-0.51472 -1.29377,-1.20464z" fill="#7822e0" stroke="none" stroke-width="0.5" stroke-linecap="butt"/><path d="M318.18547,132.07772c0.02461,0.68992 -0.51472,1.26916 -1.20464,1.29377c-0.62761,0.02239 -1.16364,-0.42192 -1.27385,-1.02173c-0.49814,-0.1501 -0.86878,-0.60368 -0.88836,-1.15257c-0.02461,-0.68992 0.51472,-1.26916 1.20464,-1.29377c0.62761,-0.02239 1.16364,0.42192 1.27385,1.02173c0.49814,0.1501 0.86878,0.60368 0.88836,1.15257z" fill="#7822e0" stroke="none" stroke-width="0.5" stroke-linecap="butt"/><path d="M318.75051,133.89207c-0.02461,-0.68992 0.51472,-1.26916 1.20464,-1.29377c0.68992,-0.02461 1.26916,0.51472 1.29377,1.20464c0.02461,0.68992 -0.51472,1.26916 -1.20464,1.29377c-0.68992,0.02461 -1.26916,-0.51472 -1.29377,-1.20464z" fill="#7822e0" stroke="none" stroke-width="0.5" stroke-linecap="butt"/><path d="M367.54092,131.81807c-0.02461,-0.68992 0.51472,-1.26916 1.20464,-1.29377c0.68992,-0.02461 1.26916,0.51472 1.29377,1.20464c0.02461,0.68992 -0.51472,1.26916 -1.20464,1.29377c-0.68992,0.02461 -1.26916,-0.51472 -1.29377,-1.20464z" fill="#7822e0" stroke="none" stroke-width="0.5" stroke-linecap="butt"/><path d="M372.389,132.14544c-0.02461,-0.68992 0.51472,-1.26916 1.20464,-1.29377c0.68992,-0.02461 1.26916,0.51472 1.29377,1.20464c0.02461,0.68992 -0.51472,1.26916 -1.20464,1.29377c-0.68992,0.02461 -1.26916,-0.51472 -1.29377,-1.20464z" fill="#7822e0" stroke="none" stroke-width="0.5" stroke-linecap="butt"/><path d="M276.17097,123.06978c-0.01477,-0.41395 0.30884,-0.76149 0.72279,-0.77626c0.41395,-0.01477 0.76149,0.30884 0.77626,0.72279c0.01477,0.41395 -0.30884,0.76149 -0.72279,0.77626c-0.41395,0.01477 -0.76149,-0.30884 -0.77626,-0.72279z" fill="#3a1aaf" stroke="none" stroke-width="0.5" stroke-linecap="butt"/><path d="M292.17862,122.99908c-0.01477,-0.41395 0.30884,-0.76149 0.72279,-0.77626c0.41395,-0.01477 0.76149,0.30884 0.77626,0.72279c0.01477,0.41395 -0.30884,0.76149 -0.72279,0.77626c-0.41395,0.01477 -0.76149,-0.30884 -0.77626,-0.72279z" fill="#3a1aaf" stroke="none" stroke-width="0.5" stroke-linecap="butt"/><path d="M357.30387,120.67593c-0.01477,-0.41395 0.30884,-0.76149 0.72279,-0.77626c0.41395,-0.01477 0.76149,0.30884 0.77626,0.72279c0.01477,0.41395 -0.30884,0.76149 -0.72279,0.77626c-0.41395,0.01477 -0.76149,-0.30884 -0.77626,-0.72279z" fill="#3a1aaf" stroke="none" stroke-width="0.5" stroke-linecap="butt"/><path d="M361.49759,121.3602c-0.01477,-0.41395 0.30884,-0.76149 0.72279,-0.77626c0.41395,-0.01477 0.76149,0.30884 0.77626,0.72279c0.01477,0.41395 -0.30884,0.76149 -0.72279,0.77626c-0.41395,0.01477 -0.76149,-0.30884 -0.77626,-0.72279z" fill="#3a1aaf" stroke="none" stroke-width="0.5" stroke-linecap="butt"/><path d="M309.60769,130.04889c-0.01477,-0.41395 0.30884,-0.76149 0.72279,-0.77626c0.41395,-0.01477 0.76149,0.30884 0.77626,0.72279c0.01477,0.41395 -0.30884,0.76149 -0.72279,0.77626c-0.41395,0.01477 -0.76149,-0.30884 -0.77626,-0.72279z" fill="#551cba" stroke="none" stroke-width="0.5" stroke-linecap="butt"/><path d="M328.75623,129.19905c-0.01477,-0.41395 0.30884,-0.76149 0.72279,-0.77626c0.41395,-0.01477 0.76149,0.30884 0.77626,0.72279c0.01477,0.41395 -0.30884,0.76149 -0.72279,0.77626c-0.41395,0.01477 -0.76149,-0.30884 -0.77626,-0.72279z" fill="#551cba" stroke="none" stroke-width="0.5" stroke-linecap="butt"/><path d="M265.49247,141.62893c-0.01477,-0.41395 0.30884,-0.76149 0.72279,-0.77626c0.41395,-0.01477 0.76149,0.30884 0.77626,0.72279c0.01477,0.41395 -0.30884,0.76149 -0.72279,0.77626c-0.41395,0.01477 -0.76149,-0.30884 -0.77626,-0.72279z" fill="#7822e0" stroke="none" stroke-width="0.5" stroke-linecap="butt"/><path d="M318.17339,136.41425c-0.01477,-0.41395 0.30884,-0.76149 0.72279,-0.77626c0.41395,-0.01477 0.76149,0.30884 0.77626,0.72279c0.01477,0.41395 -0.30884,0.76149 -0.72279,0.77626c-0.41395,0.01477 -0.76149,-0.30884 -0.77626,-0.72279z" fill="#7822e0" stroke="none" stroke-width="0.5" stroke-linecap="butt"/><path d="M371.64532,134.67356c-0.01477,-0.41395 0.30884,-0.76149 0.72279,-0.77626c0.41395,-0.01477 0.76149,0.30884 0.77626,0.72279c0.01477,0.41395 -0.30884,0.76149 -0.72279,0.77626c-0.41395,0.01477 -0.76149,-0.30884 -0.77626,-0.72279z" fill="#7822e0" stroke="none" stroke-width="0.5" stroke-linecap="butt"/></g><path d="M301.38763,128.7271c-1.52967,3.63 -5.07392,5.80711 -9.26961,5.95678c-4.06251,0.14492 -7.64521,-1.4801 -9.4897,-4.80752c-0.37496,-0.67643 4.26824,-2.68583 8.98313,-2.94466c4.9918,-0.27403 10.06997,1.09818 9.77617,1.79541z" fill="#000000" stroke="#000000" stroke-width="0" stroke-linecap="butt"/><path d="M354.4818,126.32401c-1.42845,3.54033 -4.83586,6.09439 -8.89738,6.23927c-3.88199,0.13848 -7.17185,-1.68051 -8.93299,-4.86096c-0.38484,-0.69497 4.78953,-2.45439 9.64521,-2.70062c4.43137,-0.22471 8.42731,0.72217 8.18516,1.32231z" fill="#000000" stroke="#000000" stroke-width="0" stroke-linecap="butt"/></g><g stroke="none" stroke-width="0" stroke-linecap="butt"><path d="M352.36631,227.12487c0.91158,25.55454 29.66118,47.58351 -27.0098,47.89332c-63.05756,0.34472 -30.61285,-19.45026 -31.52443,-45.00478c-0.91158,-25.55453 15.58402,-47.08549 28.2233,-47.53636c12.63928,-0.45087 29.39935,19.09329 30.31093,44.64782z" fill="#000000"/><path d="M311.17362,190.72866c2.6818,-0.23852 0.82261,9.2492 0.82261,9.2492c0,0 -3.50441,-9.01069 -0.82261,-9.2492z" fill="#e2e2e2"/><path d="M314.65897,187.75052c2.69233,-0.01651 0.05695,9.28554 0.05695,9.28554c0,0 -2.74928,-9.26902 -0.05695,-9.28554z" fill="#e2e2e2"/><path d="M331.53265,198.99506c0,0 -2.5305,-9.33113 0.16148,-9.28431c2.69198,0.04682 -0.16148,9.28431 -0.16148,9.28431z" fill="#e2e2e2"/><path d="M329.24497,196.23189c0,0 -3.2915,-9.09063 -0.60482,-9.266c2.68667,-0.17537 0.60482,9.266 0.60482,9.266z" fill="#e2e2e2"/><path d="M325.98486,194.49187c0,0 -3.18723,-9.1277 -0.49873,-9.2723c2.6885,-0.14461 0.49873,9.2723 0.49873,9.2723z" fill="#e2e2e2"/><path d="M318.00152,185.34361c2.69197,-0.04733 0.16322,9.28428 0.16322,9.28428c0,0 -2.8552,-9.23695 -0.16322,-9.28428z" fill="#e2e2e2"/><path d="M320.54972,183.64454c2.69197,-0.04733 0.16322,9.28428 0.16322,9.28428c0,0 -2.8552,-9.23695 -0.16322,-9.28428z" fill="#e2e2e2"/><path d="M323.67392,192.82319c0,0 -3.18723,-9.12771 -0.49873,-9.27231c2.6885,-0.14461 0.49873,9.27231 0.49873,9.27231z" fill="#e2e2e2"/></g><g stroke="none" stroke-width="0" stroke-linecap="butt"><path d="M307.92639,262.45809c0.36326,10.18329 -7.73856,18.73801 -18.09593,19.10747c-10.35737,0.36947 -19.04815,-7.58622 -19.41141,-17.76951c-0.36326,-10.18329 -0.33818,-19.29594 18.09593,-19.10747c29.28353,0.29939 19.04815,7.58621 19.41141,17.76951z" fill="#751cbd"/><path d="M358.89639,242.17795c18.37383,-1.50148 19.04815,7.58621 19.41141,17.76951c0.36326,10.18329 -7.73856,18.73801 -18.09593,19.10747c-10.35737,0.36947 -19.04815,-7.58622 -19.41141,-17.76951c-0.36326,-10.18329 -11.09182,-16.72229 18.09593,-19.10747z" fill="#751cbd"/><path d="M307.94888,263.08847c0.36326,10.18329 -7.73856,18.73801 -18.09593,19.10747c-10.35737,0.36947 -19.04815,-7.58622 -19.41141,-17.76951c-0.36326,-10.18329 -0.33818,-19.29594 18.09593,-19.10747c29.28353,0.29939 19.04815,7.58621 19.41141,17.76951z" fill="#8b21e0"/><path d="M358.91888,242.80832c18.37383,-1.50148 19.04815,7.58621 19.41141,17.76951c0.36326,10.18329 -7.73856,18.73801 -18.09593,19.10747c-10.35737,0.36947 -19.04815,-7.58622 -19.41141,-17.76951c-0.36326,-10.18329 -11.09182,-16.72229 18.09593,-19.10747z" fill="#8b21e0"/></g></g></g></g></svg>