<svg version="1.1" xmlns="http://www.w3.org/2000/svg" xmlns:xlink="http://www.w3.org/1999/xlink" width="34.17311" height="34.17311" viewBox="0,0,34.17311,34.17311"><g transform="translate(-302.91345,-162.91346)"><g stroke-miterlimit="10"><path d="M309.98312,162.91347h20.03379c3.9166,0 7.06966,3.15307 7.06966,7.06966v20.03379c0,3.91659 -3.15306,7.06966 -7.06966,7.06966h-20.03379c-3.91659,0 -7.06966,-3.15307 -7.06966,-7.06966v-20.03379c0,-3.91659 3.15307,-7.06966 7.06966,-7.06966z" fill="#e4e4e4" fill-rule="evenodd" stroke="none" stroke-width="4.43922" stroke-linecap="round" stroke-linejoin="round"/><path d="" fill="#ff9600" fill-rule="nonzero" stroke="#000000" stroke-width="0" stroke-linecap="butt" stroke-linejoin="miter"/><path d="" fill="#ff9600" fill-rule="nonzero" stroke="#000000" stroke-width="0" stroke-linecap="butt" stroke-linejoin="miter"/><g fill-rule="nonzero" stroke="#000000" stroke-width="2" stroke-linejoin="miter"><path d="M315.93877,176.04224c0,0 1.44213,-5.48373 3.94043,-3.33174c2.49829,2.15199 0.4485,5.38205 0.4485,5.38205" fill="none" stroke-linecap="round"/><path d="M327.23829,181.47862l7.90848,-3.16339c0,0 -0.15388,3.69547 -0.5831,6.27452c-0.98026,-0.14427 -2.14775,-0.02865 -2.96109,-0.0289c-1.43538,-0.00044 -2.87074,0 -4.30612,0.00092z" fill="#f3ca58" stroke-linecap="butt"/><path d="M328.24122,183.00977c1.30532,-0.65346 2.50253,-1.22436 2.50253,-1.22436c0,0 -1.06262,0.79192 -2.36794,1.44537c-1.30532,0.65346 -2.37366,1.17879 -2.46113,1.00406c-0.08747,-0.17472 1.02123,-0.57162 2.32654,-1.22508z" fill="#ff9600" stroke-linecap="butt"/><path d="M305.03998,178.31522l7.90849,3.16339l-0.05838,3.09392c-2.42386,-0.00043 -4.84772,-0.00325 -7.27158,-0.01037c-0.42574,-2.57773 -0.57853,-6.24694 -0.57853,-6.24694z" fill="#f3ca58" stroke-linecap="butt"/><path d="M314.27207,184.23485c-0.08747,0.17472 -1.15582,-0.3506 -2.46113,-1.00406c-1.30532,-0.65346 -2.36793,-1.44538 -2.36793,-1.44538c0,0 1.19721,0.5709 2.50253,1.22436c1.30532,0.65346 2.41402,1.05035 2.32655,1.22508z" fill="#ff9600" stroke-linecap="butt"/><path d="M320.09398,177.48249c4.46022,0 8.15707,3.06802 8.82612,7.07847c-5.88468,0.00206 -11.76938,0.01478 -17.65405,0.01091c0.66417,-4.0158 4.36366,-7.08938 8.82793,-7.08938z" fill="#f3ca58" stroke-linecap="butt"/><path d="M311.65023,184.5721v-2.43342h16.88295v2.42244" fill="none" stroke-linecap="round"/><path d="M315.93877,176.04224c0,0 1.44213,-5.48373 3.94043,-3.33174c2.49829,2.15199 0.4485,5.38205 0.4485,5.38205" fill="none" stroke-linecap="round"/><path d="M317.73747,177.83769c0.09781,0.84361 -0.54952,1.61174 -1.44586,1.71566c-0.89634,0.10393 -1.70225,-0.49571 -1.80006,-1.33933c-0.09781,-0.84361 0.47421,-2.14456 1.37054,-2.24849c0.89634,-0.10393 1.77756,1.02854 1.87537,1.87215z" fill="#ffffff" stroke-linecap="butt"/><path d="M328.53318,182.13867v1.87626c-5.62765,0.00186 -11.25531,0.01086 -16.88295,0.00851v-1.88477z" fill-opacity="0.08235" fill="#00ffff" stroke-linecap="butt"/></g><g fill-rule="nonzero" stroke-linejoin="miter"><path d="M315.93877,176.04224c0,0 1.44213,-5.48373 3.94043,-3.33174c2.49829,2.15199 0.4485,5.38205 0.4485,5.38205" fill="none" stroke="#000000" stroke-width="0" stroke-linecap="round"/><path d="M327.23829,181.47862l7.90848,-3.16339c0,0 -0.15388,3.69547 -0.5831,6.27452c-0.98026,-0.14427 -2.14775,-0.02865 -2.96109,-0.0289c-1.43538,-0.00044 -2.87074,0 -4.30612,0.00092z" fill="#e4e4e4" stroke="#000000" stroke-width="0" stroke-linecap="butt"/><path d="M328.24122,183.00977c1.30532,-0.65346 2.50253,-1.22436 2.50253,-1.22436c0,0 -1.06262,0.79192 -2.36794,1.44537c-1.30532,0.65346 -2.37366,1.17879 -2.46113,1.00406c-0.08747,-0.17472 1.02123,-0.57162 2.32654,-1.22508z" fill="#989898" stroke="#000000" stroke-width="0" stroke-linecap="butt"/><path d="M305.03998,178.31522l7.90849,3.16339l-0.05838,3.09392c-2.42386,-0.00043 -4.84772,-0.00325 -7.27158,-0.01037c-0.42574,-2.57773 -0.57853,-6.24694 -0.57853,-6.24694z" fill="#e4e4e4" stroke="#000000" stroke-width="0" stroke-linecap="butt"/><path d="M314.27207,184.23485c-0.08747,0.17472 -1.15582,-0.3506 -2.46113,-1.00406c-1.30532,-0.65346 -2.36793,-1.44538 -2.36793,-1.44538c0,0 1.19721,0.5709 2.50253,1.22436c1.30532,0.65346 2.41402,1.05035 2.32655,1.22508z" fill="#989898" stroke="#000000" stroke-width="0" stroke-linecap="butt"/><path d="M320.09398,177.48249c4.46022,0 8.15707,3.06802 8.82612,7.07847c-5.88468,0.00206 -11.76938,0.01478 -17.65405,0.01091c0.66417,-4.0158 4.36366,-7.08938 8.82793,-7.08938z" fill="#e4e4e4" stroke="#000000" stroke-width="0" stroke-linecap="butt"/><path d="M311.65023,184.5721v-2.43342h16.88295v2.42244" fill="none" stroke="#000000" stroke-width="0" stroke-linecap="round"/><path d="M315.93877,176.04224c0,0 1.44213,-5.48373 3.94043,-3.33174c2.49829,2.15199 0.4485,5.38205 0.4485,5.38205" fill="none" stroke="#e4e4e4" stroke-width="1" stroke-linecap="round"/><path d="M317.73747,177.83769c0.09781,0.84361 -0.54952,1.61174 -1.44586,1.71566c-0.89634,0.10393 -1.70225,-0.49571 -1.80006,-1.33933c-0.09781,-0.84361 0.47421,-2.14456 1.37054,-2.24849c0.89634,-0.10393 1.77756,1.02854 1.87537,1.87215z" fill="#ffffff" stroke="#000000" stroke-width="0" stroke-linecap="butt"/><path d="M328.53318,182.13867v1.87626c-5.62765,0.00186 -11.25531,0.01086 -16.88295,0.00851v-1.88477z" fill-opacity="0.08235" fill="#ffffff" stroke="#f2f2f2" stroke-width="1" stroke-linecap="butt"/></g><path d="M303.83092,186.79268v-2.41011h31.60958v2.41011z" fill="#e4e4e4" fill-rule="nonzero" stroke="none" stroke-width="0" stroke-linecap="butt" stroke-linejoin="miter"/></g></g></svg>