<svg version="1.1" xmlns="http://www.w3.org/2000/svg" xmlns:xlink="http://www.w3.org/1999/xlink" width="218.3718" height="297.04643" viewBox="0,0,218.3718,297.04643"><defs><linearGradient x1="320.08745" y1="187.07227" x2="320.08745" y2="244.23177" gradientUnits="userSpaceOnUse" id="color-1"><stop offset="0" stop-color="#0221b0"/><stop offset="1" stop-color="#0221b0" stop-opacity="0"/></linearGradient></defs><g transform="translate(-214.52368,-23.02584)"><g stroke-miterlimit="10"><path d="M214.52369,306.61252v-283.58668h213.18203v283.58668z" fill="none" stroke="none" stroke-width="0" stroke-linecap="butt"/><path d="M286.35186,319.07226l15.14285,-131.8421l37.78325,-0.15789l13.57389,132z" fill="#015bb1" stroke="#000000" stroke-width="0" stroke-linecap="butt"/><path d="M295.01905,243.61117l6.47569,-56.38101l37.78325,-0.15789l5.87786,57.15951z" fill="url(#color-1)" stroke="#000000" stroke-width="0" stroke-linecap="butt"/><path d="M286.35186,319.07226l15.14285,-131.8421l37.78325,-0.15789l13.57389,132z" fill="none" stroke="#000000" stroke-width="2" stroke-linecap="butt"/><path d="" fill="none" stroke="#000000" stroke-width="2" stroke-linecap="round"/><g stroke-linecap="butt"><g stroke="#000000" stroke-width="2"><path d="M310.79314,98.2473l56.94379,-60.47267l11.12662,83.11675z" fill="#015bb1"/><path d="M348.21225,110.87433l82.90001,-19.31715l-37.78103,80.34842z" fill="#015bb1"/><path d="M272.90921,129.80817l3.97834,-85.74847l62.37668,65.62459z" fill="#015bb1"/><path d="M271.75478,132.2563c9.80185,-31.82667 45.23372,-49.16229 79.13931,-38.72019c33.90559,10.4421 53.44554,44.70771 43.6437,76.53438c-9.80185,31.82667 -45.23372,49.1623 -79.13931,38.7202c-33.90559,-10.4421 -53.44553,-44.70772 -43.6437,-76.53439z" fill="#015bb1"/><path d="M376.70957,196.99378c-15.89974,13.4825 -39.41302,22.44299 -61.7864,15.55253c-22.9156,-7.05745 -38.79375,-28.75296 -43.9615,-49.46724c-2.47837,-9.93427 32.55673,7.65595 54.47424,14.68518c21.91751,7.02923 59.46908,12.28004 51.27367,19.22953z" fill="#ffe192"/></g><path d="M298.68019,175.85622c-0.84214,2.70759 -1.67205,5.41901 -2.50665,8.12893c-0.43671,1.418 -0.90513,2.92625 -1.15371,4.43317c-0.00456,0.62996 0.00455,1.35366 -0.17782,1.8643c-0.00125,0.07909 -0.00157,0.15809 -0.00096,0.23695l-0.00632,0.01406l0.00515,0.00057l-0.05195,0.47575c-0.00154,0.01713 -0.00487,0.03438 -0.01014,0.05148c-0.04064,0.13195 -0.18056,0.20598 -0.31251,0.16534c-0.11371,-0.03502 -0.1844,-0.14375 -0.17576,-0.25759l0.0266,-0.49406l0.02544,0.00136c-0.00052,-0.06717 -0.00034,-0.13443 0.0005,-0.2018c-0.29246,-2.63028 0.7536,-5.80579 1.54913,-8.32984c-0.17932,0.34506 -0.35871,0.69009 -0.53817,1.03508l-0.17668,0.45462c-0.04629,0.12247 -0.1805,0.18937 -0.30735,0.15031c-0.09934,-0.03059 -0.16584,-0.11746 -0.17532,-0.21482l-0.05678,-0.47339l0.10657,-0.01278c-0.27868,-2.22104 1.2084,-5.63651 2.10156,-8.02359l0.02056,-0.26353c0.03493,-0.4454 0.07069,-1.06097 0.12375,-1.74988c-0.20936,0.68417 -0.45937,1.33984 -0.7792,1.93502l-0.00372,0.01718l0.04149,0.01292l-0.14871,0.47726c-0.00001,0.00004 -0.00002,0.00007 -0.00003,0.00009c-0.04095,0.13146 -0.18057,0.20511 -0.31226,0.16455c-0.12587,-0.03876 -0.19904,-0.16789 -0.17024,-0.29424l0.10274,-0.47406c0.08641,-1.08605 0.20415,-2.1688 0.33668,-3.24994c-0.23846,0.42504 -0.43927,0.84051 -0.58239,1.24228c-0.89447,2.51098 -1.68233,5.04989 -2.46713,7.59716l-0.14722,0.47784v0c-0.04066,0.13194 -0.18055,0.20595 -0.31251,0.16531c-0.12224,-0.03765 -0.19478,-0.1605 -0.17247,-0.2833l0.08121,-0.48979l0.03427,0.00568c-0.15368,-2.80854 0.80604,-6.04233 1.08571,-8.85859c-0.16086,0.36288 -0.33232,0.71523 -0.52003,1.05168l0.03521,0.011l-0.14912,0.4771c-0.00001,0.00004 -0.00003,0.00009 -0.00004,0.00013c-0.04103,0.13133 -0.18058,0.20487 -0.3122,0.16434c-0.11838,-0.03646 -0.19014,-0.15283 -0.1743,-0.27166l0.05613,-0.49237c0.04522,-0.39036 0.1157,-0.78078 0.19852,-1.17118c-0.19916,0.64679 -0.39833,1.2936 -0.59752,1.94038l-0.14716,0.47785c-0.04064,0.13195 -0.18056,0.20598 -0.31251,0.16534c-0.13195,-0.04064 -0.20598,-0.18056 -0.16534,-0.31251l0.14716,-0.47785c0.00468,-0.01519 0.00935,-0.03042 0.01402,-0.04568c-0.66527,-1.99121 0.41709,-6.09494 0.89948,-8.45758c-0.07931,-0.04498 -0.15826,-0.09045 -0.23676,-0.13646c-0.41572,0.62552 -0.8306,1.43477 -1.1372,2.01511l0.07002,0.02499l-0.16758,0.46967c-0.04418,0.12618 -0.18063,0.19584 -0.30949,0.15615c-0.10748,-0.0331 -0.17653,-0.13207 -0.17648,-0.23894l-0.01136,-0.4941l0.01239,-0.00028l-0.01045,-0.03703c0.23985,-0.86535 0.45677,-1.72057 0.68735,-2.56334c-1.28926,-0.91181 -2.35271,-2.05297 -2.83834,-3.67978c0,0 -0.07131,-0.23962 0.16831,-0.31092c0.23962,-0.07131 0.31092,0.16831 0.31092,0.16831c0.31505,1.06222 0.90094,1.90447 1.64078,2.60719c-0.19627,-0.36461 -0.3173,-0.76057 -0.34159,-1.19219l-0.10195,0.00374l-0.01812,-0.49385c-0.00175,-0.02912 0.0016,-0.05904 0.01069,-0.08857c0.04064,-0.13195 0.18056,-0.20598 0.31251,-0.16534c0.05657,0.01742 0.10248,0.05309 0.13329,0.09854l0.26434,0.38253c0.35026,0.24601 0.69631,0.48784 1.04022,0.72474c0.32582,-0.97698 0.71126,-1.93376 1.21777,-2.86638l-0.02076,-0.00639l0.14716,-0.47785c0.04064,-0.13195 0.18056,-0.20598 0.31251,-0.16534c0.09538,0.02938 0.16049,0.11062 0.17392,0.20323l0.06783,0.40761l-0.00977,0.00163l0.01289,0.0278c-0.08998,1.30895 -0.22264,2.58971 -0.40496,3.87788c0.40771,0.26337 0.8167,0.51824 1.23049,0.76338c0.0555,-0.10284 0.17758,-0.15564 0.29351,-0.11995c0.10423,0.0321 0.17232,0.12614 0.1763,0.22928l0.01052,0.16944c1.148,0.65217 2.34239,1.22733 3.65606,1.69994c0.30937,-0.41496 0.62792,-0.80224 0.9532,-1.15134l-0.0258,-0.01844l0.28737,-0.4021c0.0601,-0.08839 0.17285,-0.13136 0.28033,-0.09825c0.09538,0.02938 0.16049,0.11062 0.17392,0.20323l0.06783,0.40761l-0.01842,0.00306l0.02125,0.05467c-0.13929,0.47809 -0.27652,0.95692 -0.41253,1.43626c0.52332,0.1656 1.05296,0.34057 1.58736,0.51091c0.20922,-0.4195 0.42524,-0.82009 0.64782,-1.19433l-0.02198,-0.00677l0.14716,-0.47785c0.04064,-0.13195 0.18056,-0.20598 0.31251,-0.16534c0.11875,0.03657 0.19058,0.15354 0.17415,0.27275l-0.04785,0.40281c-0.0594,0.50004 -0.11333,0.99634 -0.16774,1.49011c0.07946,0.02332 0.15899,0.04634 0.2386,0.06901c0.77346,-0.02733 1.55141,-0.07785 2.31267,-0.11416c0.19404,-0.5088 0.41087,-0.99889 0.66003,-1.45921l0.20983,-0.38546c0.05458,-0.10518 0.17813,-0.15962 0.29539,-0.1235c0.13195,0.04064 0.20598,0.18056 0.16534,0.31251l-0.14716,0.47785l-0.04789,-0.01475c-0.04858,0.38043 -0.12886,0.76741 -0.2345,1.15825c0.36787,-0.00942 0.72962,-0.01174 1.08265,-0.00244c0.20306,-0.3331 0.42325,-0.63263 0.66328,-0.88806l-0.06729,-0.0568l0.30471,-0.361c0.06231,-0.07733 0.16764,-0.1131 0.26835,-0.08209c0.13195,0.04064 0.20598,0.18056 0.16534,0.31251l-0.14716,0.47785v0c-0.04906,0.15929 -0.09811,0.31856 -0.14716,0.47785c-0.01771,0.05749 -0.03543,0.11498 -0.05318,0.17245c0.0003,0.00001 0.00059,0.00002 0.00089,0.00003c0.05051,-0.12413 0.10654,-0.24019 0.16949,-0.34354c0.0232,-0.07533 0.0464,-0.15065 0.0696,-0.22597v0l0.14716,-0.47785c0.04064,-0.13195 0.18056,-0.20598 0.31251,-0.16534c0.13195,0.04064 0.20598,0.18056 0.16534,0.31251l-0.14716,0.47785v0c-0.02118,0.06878 -0.04236,0.13756 -0.06354,0.20634c-0.00659,0.0611 -0.01385,0.12236 -0.02173,0.18378c0.12137,-0.01364 0.24315,-0.03094 0.36514,-0.05081c0.09512,-0.20802 0.18474,-0.41872 0.26499,-0.63763l0.12978,-0.41057c0.04125,-0.13099 0.18059,-0.20428 0.31202,-0.1638c0.13195,0.04064 0.20598,0.18056 0.16534,0.31251l-0.14716,0.47785l-0.00633,-0.00195c-0.01192,0.03171 -0.02402,0.06328 -0.03628,0.0947c-0.00494,0.06686 -0.01051,0.13409 -0.01669,0.20169c0.49788,-0.10445 0.99405,-0.21889 1.4766,-0.27002l0.37254,-0.03886c0.03423,-0.00435 0.06991,-0.00166 0.10503,0.00915c0.13195,0.04064 0.20598,0.18056 0.16534,0.31251c-0.01684,0.05466 -0.0507,0.09938 -0.09398,0.13012l-0.40239,0.2925l-0.02076,-0.02857c-0.5493,0.54342 -1.12183,0.94131 -1.71532,1.22083c-0.07172,0.17781 -0.15679,0.36005 -0.24065,0.52955c-0.49925,2.26428 -1.34065,4.67872 -1.756,6.64929c-0.57503,2.72333 -1.19395,5.34627 -1.94454,7.99291c-0.17393,0.89542 -0.40823,1.74466 -0.74091,2.48465c-0.03826,0.12423 -0.07652,0.24845 -0.11478,0.37269l-0.14716,0.47785c-0.04064,0.13195 -0.18056,0.20598 -0.31251,0.16534c-0.13195,-0.04064 -0.20598,-0.18056 -0.16534,-0.31251c0.00693,-0.02253 0.14023,-0.45533 0.14716,-0.47785c0.02348,-0.07624 0.04696,-0.15248 0.07044,-0.22872c0.0397,-0.53392 0.36106,-1.14915 0.41496,-1.65515c0.26362,-2.47507 0.75108,-4.9268 1.10433,-7.39194c0.07344,-0.51239 0.15278,-1.02424 0.23794,-1.53529c-0.37963,0.87022 -0.7363,1.75087 -1.08587,2.63461c-0.01183,0.04448 -0.02361,0.08895 -0.03533,0.13341c-0.30699,2.45152 -0.39944,5.65837 -1.44498,7.67789c-0.02424,0.08189 -0.04851,0.16377 -0.07274,0.24565l-0.00224,0.00038l0.00195,0.0006l-0.11021,0.35785c-0.04064,0.13195 -0.18056,0.20598 -0.31251,0.16534c-0.13195,-0.04064 -0.20598,-0.18056 -0.16534,-0.31251l0.11003,-0.35726c0.02423,-0.08016 0.04848,-0.16032 0.07271,-0.24048c0.00523,-0.11934 0.02855,-0.25111 0.06183,-0.38817c0.14729,-1.38342 0.35797,-2.72783 0.62355,-4.05621c-0.49914,1.23475 -1.02237,2.45792 -1.61352,3.64918c-0.19901,0.40094 -0.4124,0.79279 -0.62657,1.18579c-0.62269,2.02187 -1.24537,4.04373 -1.86806,6.06561l-0.14716,0.47785c-0.04064,0.13195 -0.18056,0.20598 -0.31251,0.16534c-0.11203,-0.0345 -0.18229,-0.14055 -0.17611,-0.25255l0.01621,-0.49431l0.04757,0.00156c-0.41305,-3.0048 0.92832,-6.57005 1.77782,-9.32838c1.0248,-3.32752 1.50799,-6.8004 2.52893,-10.11965c0.04012,-0.13024 0.07943,-0.26191 0.11812,-0.39478c-0.41089,0.73913 -0.80732,1.44404 -1.13864,2.09306c-1.55072,3.03775 -2.35419,6.50569 -3.35469,9.7543c-0.73539,2.38781 -1.47078,4.77563 -2.20617,7.16345l-0.12636,0.41028c-0.04064,0.13195 -0.18056,0.20598 -0.31251,0.16534c-0.08424,-0.02594 -0.14489,-0.09236 -0.16714,-0.17134l-0.14151,-0.47551l0.14312,-0.04259c-0.46561,-2.47948 1.74873,-7.09942 2.31413,-9.26423c0.88421,-3.38547 1.864,-6.74634 2.71683,-10.13967c0.32447,-1.29104 0.50657,-2.57255 0.6579,-3.86651c-0.073,-0.00946 -0.14602,-0.01908 -0.21905,-0.02889c-0.01165,0.02993 -0.0225,0.05913 -0.03243,0.08753c-0.53913,1.54258 -1.25834,3.04528 -1.87573,4.56752c-0.09272,0.51703 -0.2017,1.03443 -0.31135,1.54488c0.01278,0.00228 0.02612,0.00549 0.04,0.00977c0.23892,0.07358 0.16534,0.31251 0.16534,0.31251l-0.09073,0.29461c-0.18796,0.6103 -0.3372,1.18073 -0.57867,1.72688c-0.00929,0.06011 -0.01819,0.11991 -0.02667,0.17939l0.01668,0.00514l-0.14716,0.47785c-0.04064,0.13195 -0.18056,0.20598 -0.31251,0.16534c-0.12978,-0.03997 -0.20352,-0.17596 -0.16727,-0.30597l0.11947,-0.43561c0.01165,-0.08363 0.0227,-0.17037 0.03328,-0.25995zM300.1961,169.65806c0.28673,-0.77097 0.59361,-1.54095 0.91959,-2.27648c-0.48671,-0.07417 -0.97258,-0.15784 -1.45507,-0.25403c-0.15469,0.55266 -0.30875,1.10574 -0.46341,1.65892c0.07917,-0.11439 0.15323,-0.21397 0.22046,-0.29617l0.314,-0.38162c0.06205,-0.07904 0.16855,-0.1159 0.27033,-0.08456c0.10705,0.03297 0.17597,0.13127 0.17648,0.23766l0.01393,0.49402l-0.04912,0.00139c0.03573,0.29456 0.05214,0.59541 0.05281,0.90086zM294.98254,165.60904c-0.08246,-0.04122 -0.1652,-0.08247 -0.24817,-0.12376c-0.11357,0.58014 -0.20503,1.16227 -0.28133,1.7467c0.3383,-0.58661 0.64574,-1.09614 0.8399,-1.45484l0.00785,-0.01451c-0.10676,-0.04987 -0.21285,-0.10105 -0.31824,-0.15358zM292.17735,161.82635c0.23545,0.16052 0.47021,0.31861 0.70495,0.47403c0.11156,-0.82166 0.20275,-1.64103 0.27853,-2.46774c-0.23232,0.40426 -0.53396,0.79814 -0.68235,1.16222c-0.11154,0.27369 -0.21084,0.5512 -0.30113,0.83149zM303.82554,178.85726c0.2941,-0.67858 0.59651,-1.35577 0.90826,-2.0352c0.04698,-0.10237 0.09414,-0.20478 0.14147,-0.30724c0.00934,-0.04454 0.01871,-0.08908 0.02811,-0.13362c0.54623,-2.58686 1.30804,-5.11067 2.09215,-7.63183c-0.04829,0.10331 -0.09256,0.20197 -0.13129,0.29489c-0.75573,1.81371 -1.19566,3.82867 -1.77403,5.70658c-0.42156,1.36881 -0.84312,2.7376 -1.26468,4.10641zM309.89376,167.11733c0.1851,-0.13285 0.36875,-0.25932 0.55299,-0.36793c-0.2153,0.04232 -0.43106,0.08774 -0.64696,0.13094c-0.00694,0.05302 -0.0142,0.10622 -0.02178,0.15959c0.04958,0.01013 0.08333,0.02463 0.09689,0.04445c0.00704,0.01029 0.01332,0.02129 0.01885,0.03296zM302.55251,167.66208c-0.15203,1.28522 -0.33611,2.55866 -0.65852,3.84153c-0.85321,3.39484 -1.83338,6.7572 -2.71797,10.14415c-0.16211,0.62068 -0.31344,1.26991 -0.463,1.93399c1.00827,-3.27508 1.82183,-6.76518 3.38503,-9.82739c0.85436,-1.67363 1.67341,-3.35542 2.44381,-5.06569c0.04137,-0.14854 0.0835,-0.29678 0.12656,-0.44449c-0.63744,-0.14386 -1.28771,-0.32802 -1.94901,-0.53089c-0.05563,-0.01707 -0.11127,-0.03413 -0.1669,-0.05122zM298.40767,165.76792c-0.40626,-0.14842 -0.80212,-0.30631 -1.18941,-0.47308l0.01068,0.4642c0.18082,0.07329 0.35957,0.14857 0.53547,0.22691c0.00135,-0.01846 0.00481,-0.03706 0.01048,-0.05549c0.04064,-0.13195 0.18056,-0.20598 0.31251,-0.16534v0l0.26528,0.08171c0.01829,-0.02638 0.03664,-0.05268 0.055,-0.07888zM292.31359,163.45121c0.15658,-0.17779 0.31475,-0.33104 0.46816,-0.44692c0.00701,-0.04671 0.01395,-0.09339 0.02081,-0.14007c-0.26039,-0.17148 -0.52021,-0.34663 -0.78021,-0.52519c-0.06444,0.22663 -0.12435,0.45465 -0.18142,0.6835c0.07025,0.07628 0.14551,0.15059 0.22684,0.22244c0.08041,0.07102 0.16239,0.13973 0.24582,0.20625zM307.89461,171.72131c-0.2575,0.51151 -0.51284,1.02323 -0.76211,1.53862c-0.22189,1.135 -0.41528,2.27514 -0.57903,3.41815c-0.11657,0.81347 -0.1937,1.75724 -0.28135,2.74838c0.35068,-1.43346 0.67448,-2.87668 0.98554,-4.34987c0.23896,-1.12957 0.42557,-2.24468 0.63694,-3.35528zM306.28993,168.51276c-0.27417,-0.02596 -0.55121,-0.06367 -0.83095,-0.11123c-0.22867,0.53319 -0.48518,1.06562 -0.75415,1.59073c-0.21662,0.83795 -0.42517,1.66581 -0.66308,2.43833c-1.02322,3.318 -1.5042,6.79238 -2.52893,10.11965c-0.64398,2.09099 -1.29592,4.04441 -1.49295,6.22669c-0.02095,0.23194 -0.02615,0.52877 -0.0345,0.85065c0.43629,-1.41665 0.87258,-2.83328 1.30888,-4.24994c0.0257,-0.41494 0.21791,-0.89673 0.41043,-1.33266c0.96923,-3.1471 1.93846,-6.2942 2.90769,-9.4413c0.47198,-1.53247 0.91908,-4.00228 1.67756,-6.09091zM293.37053,177.41841c0.41192,-1.30723 0.83433,-2.6104 1.2813,-3.90688c-0.06256,0.05072 -0.14846,0.07035 -0.23123,0.04485c-0.13143,-0.04048 -0.2054,-0.17944 -0.16581,-0.31094l0.14328,-0.47801c0.01661,-0.05694 0.03241,-0.11587 0.04743,-0.17664c-0.03331,-0.44943 0.06938,-1.04765 0.24682,-1.71039c0.0978,-1.09028 0.15561,-2.318 0.33833,-3.35202c-0.29319,0.72025 -0.5567,1.46753 -0.83068,2.20342c-0.03065,0.3827 -0.0591,0.76656 -0.08724,1.15167c-0.16009,2.19131 -0.43491,4.36088 -0.7422,6.53494zM293.13374,164.01588c0.14023,0.08381 0.28299,0.1637 0.42782,0.24024c-0.02087,-0.32747 -0.07229,-0.97681 -0.22477,-0.98455c-0.02964,-0.0015 -0.06001,0.00129 -0.09105,0.00811c-0.02038,0.13171 -0.0413,0.26355 -0.06273,0.39557c-0.0178,0.10961 -0.03416,0.22327 -0.04928,0.34063zM296.50561,167.93829c-0.20066,0.81075 -0.40752,1.64746 -0.65407,2.45463c0.14836,-0.33465 0.30552,-0.67424 0.47067,-1.01516c0.0509,-0.37979 0.10233,-0.75951 0.15358,-1.13924c0.01227,-0.09089 0.02177,-0.19191 0.02982,-0.30023zM299.12944,167.01615c-0.05163,-0.01139 -0.10319,-0.02293 -0.15472,-0.03463c-0.14858,0.2484 -0.30652,0.49815 -0.4703,0.74852l-0.00018,0.00262l-0.00146,-0.00009c-0.01548,0.02366 -0.03101,0.04733 -0.04659,0.07099c0.03392,0.9087 -0.11439,1.85126 -0.31311,2.79784c0.32812,-1.19638 0.64771,-2.39641 0.98636,-3.58524zM297.0021,169.93085c-0.08538,0.53075 -0.18301,1.06253 -0.28043,1.58629c0.16841,-0.62619 0.32398,-1.25617 0.4839,-1.88496c-0.06839,0.09977 -0.1363,0.19933 -0.20346,0.29866zM297.80233,166.68272c-0.18383,-0.05237 -0.36665,-0.10724 -0.5483,-0.16481c0.02154,0.34727 0.02239,0.70551 0.00724,1.0713c0.17508,-0.30733 0.35565,-0.61043 0.54105,-0.90649zM295.02207,164.21418c-0.05519,0.2129 -0.10668,0.42603 -0.15482,0.63942c0.58513,0.23705 1.18209,0.45035 1.76652,0.6726l0.09535,-0.3096v0v0c0.0132,-0.04288 0.0369,-0.07964 0.06738,-0.10834c-0.60907,-0.27667 -1.19803,-0.57548 -1.77443,-0.89408zM295.92708,166.03742c0.04366,0.40371 0.05402,0.82863 0.03829,1.26549c0.15968,-0.4003 0.30697,-0.76826 0.42648,-1.0827c-0.15605,-0.05859 -0.311,-0.11947 -0.46477,-0.18278zM294.14338,163.70825c0.04071,0.17492 0.06835,0.36757 0.08532,0.57223c0.06607,-0.13229 0.13417,-0.26219 0.20444,-0.38949l-0.03395,-0.01149l0.00561,-0.01658c-0.08736,-0.05112 -0.17449,-0.10267 -0.26142,-0.15467zM291.65416,163.80924c-0.06729,0.29392 -0.13298,0.58823 -0.20054,0.88178c0.13718,-0.24472 0.29097,-0.49039 0.45324,-0.72042c-0.08493,-0.05302 -0.1692,-0.10679 -0.2527,-0.16136zM299.56856,169.11477c-1.0774,1.51854 -1.25406,3.45456 -1.95486,5.13439c-0.44425,1.63892 -0.79257,3.93169 -1.35309,5.8979c0.14931,-0.28723 0.29868,-0.57443 0.44815,-0.86157c0.77286,-2.5244 1.54897,-5.04784 2.32866,-7.57013c0.11087,-0.96288 0.27009,-1.8817 0.53113,-2.60058zM306.40281,168.21097c0.02757,-0.07152 0.05553,-0.1425 0.08392,-0.21289c-0.26816,-0.01319 -0.54533,-0.04105 -0.82818,-0.08077c-0.01801,0.04564 -0.03626,0.09128 -0.05475,0.13694c0.26761,0.06299 0.53482,0.11671 0.799,0.15671zM306.91697,167.04897c0.00531,-0.01035 0.01064,-0.02068 0.01599,-0.03098c-0.3128,-0.00606 -0.63113,-0.00386 -0.95347,0.00366c-0.0122,0.03824 -0.02461,0.07648 -0.03723,0.11476c0.33253,-0.04976 0.6537,-0.07553 0.97474,-0.08744zM304.73996,167.06965c0.09767,0.00753 0.19532,0.01458 0.2929,0.02111c0.0041,-0.01186 0.00821,-0.02373 0.01233,-0.0356c-0.10151,0.00463 -0.20327,0.00948 -0.30524,0.01449zM304.65171,167.79767c0.04596,0.01366 0.092,0.0272 0.1381,0.04061c0.00272,-0.00889 0.00545,-0.01776 0.00819,-0.02663c-0.04871,-0.00463 -0.09747,-0.00929 -0.1463,-0.01397zM308.42974,168.43083c-0.00256,0.00051 -0.00511,0.00101 -0.00767,0.00152c-0.00906,0.0316 -0.01822,0.06323 -0.02749,0.09486c0.01176,-0.03212 0.02349,-0.06424 0.03516,-0.09638zM308.58815,167.98624c0.04945,-0.14167 0.09797,-0.28352 0.1455,-0.42559c-0.00821,-0.00011 -0.01641,-0.00022 -0.0246,-0.00033c-0.02411,0.01561 -0.0486,0.03077 -0.07347,0.04547c-0.03068,0.13491 -0.06368,0.27031 -0.09878,0.4061c0.01716,-0.0084 0.03427,-0.01696 0.05133,-0.02565zM308.77444,167.06117c0.00388,-0.00034 0.00776,-0.00069 0.01165,-0.00103l0.00075,-0.01387c-0.01268,0.00137 -0.02537,0.0027 -0.03805,0.00397c-0.00064,0.00352 -0.00126,0.00704 -0.00189,0.01055c0.00917,0.00012 0.01835,0.00025 0.02754,0.00037zM308.93892,167.02824c-0.03842,0.00496 -0.07683,0.00963 -0.11522,0.01395l0.10559,0.00569c0.00321,-0.00655 0.00642,-0.0131 0.00963,-0.01965zM306.81507,171.04594c0.29248,-0.83411 0.57956,-1.66936 0.84175,-2.51183c-0.02406,0.00177 -0.04813,0.0034 -0.07224,0.00493c-0.26032,0.83492 -0.51918,1.6698 -0.76951,2.5069zM291.68643,162.10654c-0.26623,-0.18559 -0.533,-0.37465 -0.80115,-0.56692c0.21259,0.36057 0.39763,0.7364 0.64279,1.0895c0.05149,-0.17479 0.10415,-0.349 0.15836,-0.52259zM307.66673,168.27563c0.02324,-0.00234 0.04639,-0.00507 0.06945,-0.00817c0.02912,-0.10838 0.05772,-0.22868 0.08721,-0.35622c-0.01524,0.00328 -0.03056,0.00647 -0.04593,0.00957c-0.03691,0.11828 -0.07382,0.23655 -0.11072,0.3548zM292.87604,168.0887c0.22646,-0.84132 0.47567,-1.67361 0.77054,-2.45903c0.00174,-0.22912 -0.00531,-0.46192 -0.02289,-0.70159c-0.18616,-0.09536 -0.37189,-0.19215 -0.55641,-0.29091c-0.0905,1.01882 -0.12266,2.23016 -0.19123,3.45152z" fill="#390200" stroke="none" stroke-width="0.5"/><path d="M340.45057,177.6129c-0.11242,0.61087 -0.30786,1.22981 -0.54604,1.84453c-0.95479,3.23903 -1.90957,6.47805 -2.86436,9.71707c-0.7984,2.70849 -1.3168,6.42788 -2.75405,8.97901c-0.00201,0.00822 -0.00403,0.01645 -0.00604,0.02467l-0.00332,0.01357l0.02797,0.00864l-0.14743,0.47775c0,0.00001 0,0.00001 -0.00001,0.00002c-0.0407,0.13187 -0.18056,0.20583 -0.31246,0.1652c-0.12781,-0.03936 -0.20127,-0.17185 -0.16884,-0.30003c0.43578,-1.78079 0.99003,-4.04556 1.42581,-5.82635c0.78317,-3.20027 1.56634,-6.40053 2.3495,-9.6008l-0.00493,-0.02965l0.01271,-0.00212c0.00992,-0.04054 0.01984,-0.08107 0.02976,-0.12161c-0.59858,-2.8092 0.92561,-6.68574 -1.10082,-8.8711c-0.04499,-0.17169 -0.08871,-0.34676 -0.13101,-0.52469c-0.62201,-0.48509 -1.24953,-0.95797 -1.88924,-1.40481l-0.4048,-0.28363c-0.08967,-0.05976 -0.13349,-0.17336 -0.10016,-0.28161c0.03891,-0.12635 0.16884,-0.19958 0.29564,-0.16991l0.4395,0.09821l-0.02119,0.09481c0.22699,0.04053 0.4579,0.10321 0.69182,0.18456c-0.14714,-0.20097 -0.27955,-0.40741 -0.39484,-0.61972l-0.05758,0.04101l-0.28849,-0.40504c-0.04474,-0.06149 -0.06099,-0.14257 -0.03689,-0.22084c0.04064,-0.13195 0.18056,-0.20598 0.31251,-0.16534c0.04013,0.01236 0.07489,0.03389 0.10271,0.06159l0.35796,0.34182c0.00001,0 0,0.00001 0.00001,0.00002c0.18252,0.17421 0.37288,0.34887 0.56881,0.52447c-0.21302,-1.42866 -0.31505,-2.90746 -0.24375,-4.23374l0.00538,-0.01178l-0.00378,-0.00059l0.06905,-0.44614c0.00183,-0.01323 0.00475,-0.02647 0.0088,-0.03966c0.04064,-0.13195 0.18056,-0.20598 0.31251,-0.16534c0.08855,0.02727 0.15103,0.09926 0.17024,0.18355l0.11857,0.48102l-0.03436,0.00847c0.93148,2.10476 0.91264,4.23 1.85509,6.20695c0.10801,0.09874 0.21528,0.19821 0.32148,0.29848c0.38542,0.28491 0.76816,0.57942 1.14449,0.86977c0.06017,-0.24589 0.12035,-0.49178 0.18052,-0.73767c0,0 0.05942,-0.24284 0.30226,-0.18341c0.24284,0.05942 0.18341,0.30226 0.18341,0.30226c-0.07771,0.31755 -0.15541,0.63511 -0.23314,0.95266c0.08024,0.06169 0.16013,0.12293 0.2396,0.18361c0.06861,0.04493 0.13727,0.08982 0.20591,0.13471c-0.03817,-0.66299 -0.07606,-1.30467 -0.12543,-1.90731l-0.00067,-0.00817c0,0 -0.02041,-0.24917 0.22875,-0.26958c0.24917,-0.02041 0.26958,0.22875 0.26958,0.22875l0.00067,0.00817c0.06435,0.78526 0.14971,1.56907 0.24315,2.35229c0.37148,0.24515 0.74107,0.49295 1.10527,0.74816c0.12892,-1.15049 0.33976,-2.2417 0.77462,-3.1275l0.00304,-0.01772l-0.0663,-0.02243l0.14835,-0.43859c0.04288,-0.12837 0.18064,-0.19968 0.31067,-0.15963c0.12266,0.03778 0.19528,0.16134 0.17224,0.28455l-0.08395,0.48944c-0.03002,0.17506 -0.05821,0.35028 -0.08483,0.52562c-0.01358,0.21506 -0.05006,0.44349 -0.09466,0.67014c-0.02306,0.17523 -0.04493,0.35054 -0.06588,0.52594l0.08232,-0.39356c0.00168,-0.00852 0.00382,-0.01704 0.00644,-0.02552c0.04064,-0.13195 0.18056,-0.20598 0.31251,-0.16534c0.11979,0.0369 0.19185,0.15563 0.1737,0.27593l-0.06526,0.49154c-0.07804,0.58785 -0.15253,1.1762 -0.22564,1.76472c0.0559,0.01654 0.11365,0.03368 0.17371,0.05218l0.05892,0.01815c0,0 0.16359,0.05038 0.17835,0.20312c0.41022,0.21708 0.81855,0.4355 1.22662,0.65289c0.36419,0.0841 0.73729,0.18319 1.11446,0.29116l0.08595,-0.27909c0.04064,-0.13195 0.18056,-0.20598 0.31251,-0.16534c0.12594,0.03878 0.19911,0.16802 0.17018,0.29444l-0.06494,0.29834c1.02388,0.30912 2.06166,0.6633 3.0184,0.94325c0.52131,-1.64857 1.10286,-3.28882 1.94247,-4.63594l-0.03241,-0.01238l0.17771,-0.4653c0.04586,-0.12326 0.18053,-0.19073 0.30782,-0.15153c0.11429,0.0352 0.18511,0.14485 0.17563,0.25931l-0.03018,0.49392c-0.1015,1.66104 -0.29941,3.3236 -0.56912,4.96578c0.06411,0.00838 0.12722,0.01565 0.18924,0.02175c1.23449,0.1216 2.43676,0.34417 3.63072,0.55466c0.47793,-1.82314 0.99496,-3.69041 1.81443,-5.17896c0.01829,-0.05969 0.03665,-0.11949 0.05509,-0.17943l0.00003,-0.00009l-0.00019,-0.00006l0.1472,-0.47784v0c0.04064,-0.13194 0.18056,-0.20596 0.3125,-0.16533c0.13192,0.04062 0.20596,0.18049 0.16537,0.31243v0.00001l-0.14702,0.47789c-0.02341,0.07611 -0.0467,0.152 -0.06988,0.22767c-0.02779,0.53868 -0.31042,1.20828 -0.5156,1.74059c-0.32111,1.13675 -0.59725,2.25308 -0.79911,3.40829c1.1098,0.18241 2.21797,0.32792 3.34385,0.34509c0.28441,-0.84812 0.61349,-1.65275 1.01413,-2.36509c0.00369,-0.02456 0.00735,-0.04914 0.01102,-0.07373l0.02017,-0.01209l-0.01591,-0.00464l0.00115,-0.00395l-0.00794,-0.00247l0.1483,-0.47742c0.00001,-0.00003 0.00001,-0.00005 0.00003,-0.00008c0.04087,-0.13158 0.18057,-0.20533 0.31233,-0.16476c0.13096,0.04033 0.20487,0.17845 0.16625,0.30952l-0.13655,0.46699c-0.11351,0.77653 -0.24796,1.54182 -0.40112,2.30013c0.36293,-0.0244 0.7283,-0.06486 1.09673,-0.12432c1.278,-0.58758 2.17821,-0.8782 3.2826,-1.77785l0.3488,-0.33942c0.06339,-0.06413 0.15942,-0.09167 0.25156,-0.06329c0.13002,0.04004 0.20379,0.17646 0.16707,0.30668l-0.13364,0.48092l-0.03647,-0.01013c-0.14862,1.2107 -0.56107,2.39875 -1.07615,3.56556c0.66107,-0.4405 1.31685,-0.88414 1.98272,-1.28334c0.25149,-0.16343 0.51582,-0.32251 0.79792,-0.47429l-0.00463,-0.00515l0.36864,-0.33098c0.06331,-0.05887 0.15546,-0.08324 0.24401,-0.05597c0.13195,0.04064 0.20598,0.18056 0.16534,0.31251c-0.01289,0.04183 -0.03575,0.07785 -0.06518,0.10624l-0.31185,0.31314l-0.01068,-0.01063l-0.01774,0.0352c-0.05792,0.03072 -0.11515,0.06171 -0.17169,0.093c-0.31715,0.48192 -1.03556,0.8305 -1.46701,1.14684c-0.5661,0.41506 -1.27043,0.86686 -2.03488,1.29633c-0.00493,0.00324 -0.00985,0.00646 -0.01478,0.0097c-0.67856,1.38359 -1.42808,2.73725 -1.96998,4.06334c-1.04941,3.32069 -2.074,6.64889 -3.09903,9.97718c-0.68678,2.22997 -1.37355,4.45995 -2.06033,6.68992l-0.14716,0.47785c-0.04064,0.13195 -0.18056,0.20598 -0.31251,0.16534c-0.11541,-0.03554 -0.18651,-0.14704 -0.17533,-0.26272l0.03728,-0.49361l0.07787,0.00588c-0.08588,-2.39915 1.38537,-5.63358 2.28088,-8.0686c-0.04919,-0.04197 -0.08043,-0.10178 -0.0867,-0.1662l-0.05891,-0.49077l0.05253,-0.0063c-0.28859,-1.13589 -0.28593,-2.42767 -0.14343,-3.7439c-0.89752,2.91485 -1.79487,5.82975 -2.69312,8.74438c-0.04013,0.16186 -0.08025,0.32363 -0.12045,0.48532c-0.21288,1.58129 -0.50234,3.13242 -1.0327,4.32262l0.05875,0.01809l-0.14716,0.47785c-0.04064,0.13195 -0.18056,0.20598 -0.31251,0.16534c-0.09977,-0.03073 -0.16642,-0.1182 -0.17543,-0.21606l-0.05324,-0.46308l0.01763,-0.00203l-0.01831,-0.04838c0.04404,-0.153 0.08777,-0.306 0.13116,-0.45901c-0.39414,-2.45327 1.28053,-6.82391 1.71425,-8.92883c0.7032,-3.4128 1.94938,-6.7614 2.97469,-10.09061c0.04803,-0.15597 0.09546,-0.31177 0.14227,-0.46746c-0.01927,-0.00546 -0.03853,-0.0109 -0.0578,-0.01635c-0.19054,0.61866 -0.38107,1.23733 -0.5716,1.85601c-0.53597,1.72978 -1.62,3.3847 -2.50135,4.96111l-0.00926,0.00877l0.00237,0.00165l-0.28277,0.4054c-0.05968,0.08996 -0.17348,0.13398 -0.28191,0.10059c-0.09396,-0.02894 -0.15855,-0.10822 -0.17328,-0.19911l-0.08905,-0.48664l0.04795,-0.00878c-0.58382,-2.16483 -0.1469,-4.93986 0.1845,-7.38151c-0.23887,-0.06166 -0.47653,-0.12885 -0.71286,-0.20131c-0.99456,2.7776 -1.99412,5.57781 -3.32086,8.21271l-0.02201,0.01764l0.00576,0.00469l-0.31254,0.38281c-0.06196,0.07957 -0.16881,0.11677 -0.27091,0.08532c-0.1083,-0.03335 -0.17757,-0.13357 -0.17647,-0.24139l-0.00645,-0.49423l0.02614,-0.00034c-0.21566,-1.28539 -0.22357,-2.64329 -0.0945,-3.99915c-0.05038,0.13841 -0.09307,0.26271 -0.12624,0.37038l-0.1465,0.47569c-0.04064,0.13195 -0.18056,0.20598 -0.31251,0.16534c-0.13195,-0.04064 -0.20598,-0.18056 -0.16534,-0.31251l0.10488,-0.34054c0.31029,-1.85904 0.52627,-3.73335 0.75956,-5.60544c-0.32343,-0.09364 -0.6464,-0.18981 -0.96882,-0.28911c-0.20214,-0.06343 -0.40491,-0.13674 -0.60806,-0.21889c-0.08738,0.2289 -0.17568,0.45749 -0.26511,0.68568c-0.95165,2.42809 -1.94566,4.85577 -2.82033,7.3185c-0.18945,0.79216 -0.37295,1.58588 -0.54732,2.38207c-0.61018,2.78592 -0.94704,6.50924 -2.02584,9.22952l0.02967,0.00523l-0.08608,0.48854c-0.00184,0.01137 -0.00448,0.02277 -0.00797,0.03408c-0.04064,0.13195 -0.18056,0.20598 -0.31251,0.16534c-0.09776,-0.03011 -0.16373,-0.1147 -0.17482,-0.21018l-0.06367,-0.45962c-0.41737,-3.05166 0.97691,-6.40213 1.87409,-9.28176c0.2606,-0.8364 0.54069,-1.66754 0.83421,-2.49471c0.17406,-0.72732 0.35308,-1.45334 0.53459,-2.17874c-0.02698,0.08391 -0.05321,0.16718 -0.07865,0.24982c-0.09811,0.31856 -0.19622,0.63713 -0.29434,0.9557l-0.12703,0.41244c-0.04064,0.13195 -0.18056,0.20598 -0.31251,0.16534c-0.11371,-0.03502 -0.1844,-0.14375 -0.17576,-0.25759l0.0266,-0.49406l0.0306,0.00165c-0.36853,-2.31855 -0.07487,-5.05921 0.35561,-7.48685c-0.59154,1.77616 -1.2685,3.47695 -2.14649,5.16172c-0.15046,0.46864 -0.30169,0.93687 -0.44777,1.40692l-0.14837,0.4774c-0.00001,0.00003 -0.00001,0.00005 -0.00003,0.00008c-0.04089,0.13158 -0.18057,0.20531 -0.31232,0.16472c-0.11217,-0.03455 -0.18248,-0.14084 -0.17607,-0.25299l0.01713,-0.49429l0.03253,0.00112c-0.44359,-2.59072 -0.07382,-5.90452 0.25697,-8.56792c-0.03285,0.19373 -0.06792,0.38729 -0.10561,0.58062c-0.66636,3.41773 -1.74461,6.7345 -2.38076,10.15047c-0.21201,1.13849 -0.49773,2.29091 -0.7549,3.44448c-0.01412,0.11927 -0.02772,0.23851 -0.04077,0.35774c-0.19938,1.82086 -0.39251,3.626 -0.43959,5.45842l-0.0127,0.49408c-0.00007,0.02413 -0.00366,0.04866 -0.01114,0.07291c-0.04064,0.13195 -0.18056,0.20598 -0.31251,0.16534c-0.10182,-0.03136 -0.16915,-0.12183 -0.17592,-0.22214l-0.04461,-0.49217l0.05638,-0.00511l0.0005,-0.01925c-0.47324,-1.91682 0.01855,-4.23546 0.54753,-6.38042c0.4133,-3.17074 1.16807,-6.35082 1.83447,-9.46711c0.1584,-0.74073 0.32497,-1.57388 0.5093,-2.44625c-0.37948,-1.38753 -0.55822,-2.96609 -0.67382,-4.52796c-0.03845,0.12499 -0.07653,0.25009 -0.11432,0.37525zM336.31348,189.86909c0.08258,-0.27859 0.16494,-0.55725 0.24711,-0.83598c0.62565,-2.12247 1.25131,-4.24493 1.87696,-6.36741c-0.09703,0.20779 -0.18993,0.41195 -0.27668,0.61186l-0.15528,0.35788c-0.03579,0.08559 -0.11526,0.14231 -0.20378,0.15188c-0.49611,2.02726 -0.99222,4.05451 -1.48833,6.08177zM338.67873,180.20395c0.40609,-1.19255 0.87438,-2.39651 1.37033,-2.98956c0.01479,-0.04842 0.02964,-0.09683 0.04454,-0.14522l0.11659,-0.37858c-0.18931,-0.14285 -0.37784,-0.28726 -0.56576,-0.43284c-0.32191,1.3154 -0.64381,2.6308 -0.96571,3.94621zM338.22061,179.9725c0.33055,-1.35076 0.66111,-2.70151 0.99167,-4.05228c-0.70244,-0.55259 -1.39833,-1.11775 -2.09732,-1.67549c0.67941,1.15948 1.07026,3.60567 1.10565,5.72776zM336.7754,172.18735c-0.16301,-0.32919 -0.31475,-0.66473 -0.4505,-1.00155c0.03486,0.23768 0.07246,0.4742 0.11234,0.70871c0.11186,0.09717 0.2247,0.19476 0.33816,0.29283zM343.14965,175.21804c0.01096,-0.02366 0.02196,-0.04723 0.033,-0.07069l-0.02414,-0.00505c-0.00297,0.02524 -0.00592,0.05048 -0.00886,0.07574zM344.09273,196.78463c-0.38988,1.27244 -0.71849,2.57767 -0.81681,3.85406c0.00791,-0.04291 0.01494,-0.08459 0.02087,-0.12486c0.18555,-1.25993 0.48055,-2.49645 0.79593,-3.7292zM350.37201,179.48416c0.28946,0.07585 0.56861,0.14153 0.83445,0.19327c0.19077,-1.16151 0.3453,-2.33332 0.45463,-3.50751c-0.14821,0.32976 -0.30447,0.64233 -0.39957,0.89406c-0.30382,0.80431 -0.59735,1.61204 -0.88952,2.42018zM351.68291,181.42315c-0.0651,-0.02009 -0.13002,-0.04046 -0.19478,-0.06111c-0.02832,0.26732 -0.05438,0.53758 -0.07921,0.8099c0.16924,0.07865 0.33831,0.15677 0.5073,0.2343c0.04312,-0.09022 0.08735,-0.17921 0.13279,-0.26684c0.02382,-0.0775 0.04768,-0.155 0.07152,-0.2325l0.00001,-0.00004l-0.00009,-0.00003l0.09924,-0.32222c-0.17992,-0.05276 -0.35889,-0.10667 -0.53678,-0.16146zM355.72744,182.36846c-0.0512,-0.00699 -0.10239,-0.01421 -0.15355,-0.02166c-0.16102,0.47309 -0.32488,0.94551 -0.49215,1.41739c0.16382,0.06411 0.32823,0.12732 0.49334,0.18958c0.04806,-0.39838 0.08856,-0.78327 0.11587,-1.14996c0.01089,-0.14614 0.02306,-0.29122 0.03648,-0.43533zM359.91946,185.7847c-0.08739,0.0172 -0.17353,0.03245 -0.25825,0.04561c-0.04794,0.15931 -0.09648,0.31874 -0.14562,0.47831c-1.02055,3.31379 -2.26288,6.64739 -2.96282,10.04434c-0.12855,0.62386 -0.22822,1.33824 -0.32096,2.09901c0.79312,-2.57576 1.58669,-5.15139 2.37986,-7.72714c0.28703,-0.93209 0.57098,-1.86496 0.85266,-2.79851c0.11637,-0.52799 0.2279,-1.03343 0.32209,-1.50544c0.04253,-0.2131 0.08693,-0.4251 0.13303,-0.63619zM364.94751,179.80619c0.00565,-0.00171 0.0113,-0.00343 0.01695,-0.00514l0.01589,-0.01664c-0.01095,0.0073 -0.02191,0.01455 -0.03284,0.02178zM355.14079,181.77617c0.085,-0.31611 0.169,-0.63721 0.25351,-0.96092c-1.16766,-0.20476 -2.34463,-0.41813 -3.55423,-0.53727c-0.07178,-0.00707 -0.144,-0.01434 -0.21665,-0.0218c-0.02808,0.19753 -0.05401,0.39745 -0.07824,0.5994c0.09461,0.03051 0.18958,0.06042 0.28491,0.08971c1.06863,0.32911 2.18215,0.63161 3.31072,0.83088zM350.6659,182.92857c-0.42752,-0.23584 -0.85992,-0.46869 -1.29425,-0.70159c-0.03213,0.08607 -0.06436,0.17211 -0.0967,0.25811c0.19423,0.0768 0.38776,0.14473 0.58033,0.20275c0.26931,0.08294 0.53959,0.16302 0.81061,0.24073zM342.03314,177.41674c-0.26216,-0.24411 -0.54616,-0.4861 -0.84436,-0.72754c0.00476,0.038 0.00954,0.076 0.0143,0.11399c0.04686,0.03377 0.09378,0.06741 0.14077,0.10095c0.2246,0.16049 0.45458,0.33226 0.68929,0.51261zM361.5593,181.797c0.0177,0.93721 -0.14639,1.93479 -0.40438,2.94509c0.0108,-0.00181 0.02158,-0.00365 0.03233,-0.0055c0.42431,-0.18502 0.82907,-0.43545 1.20945,-0.73111c0.35411,-1.06497 0.7794,-2.0646 1.3292,-2.88943l0.00033,-0.00108l-0.04614,-0.01958l0.13915,-0.32794c-0.58324,0.24709 -1.15523,0.5151 -1.74038,0.7988c-0.17221,0.08303 -0.34542,0.15985 -0.51955,0.23074zM364.96043,180.31972c-0.2246,0.08063 -0.44552,0.16457 -0.66402,0.25156c0.05309,0.06287 0.07406,0.1506 0.04804,0.23508c-0.1369,0.44453 -0.42098,1.36693 -0.55788,1.81147c0.31018,-0.3855 0.58879,-0.78951 0.83084,-1.19102c0.21511,-0.35683 0.19708,-0.76476 0.34302,-1.10707zM362.77946,185.8879c0.23031,-0.46706 0.46622,-0.93139 0.69892,-1.3967c-0.10339,0.05354 -0.20879,0.10529 -0.31653,0.15505c-0.09636,0.31288 -0.19272,0.62575 -0.28908,0.93863c-0.03111,0.10101 -0.06222,0.20201 -0.09333,0.30302zM362.06012,185.103c-0.37872,0.15695 -0.75452,0.29682 -1.11938,0.41351c-0.30134,1.0177 -0.67475,2.03598 -1.03127,3.00665c-0.26964,1.61767 -0.47233,3.22713 -0.61651,4.88751c-0.03162,0.36407 0.00991,0.89535 0.0169,1.40822c0.47895,-1.55514 0.95789,-3.11028 1.43686,-4.6654c0.44793,-1.45436 0.81209,-3.28902 1.3134,-5.05048zM358.57757,185.52609c-0.19441,-0.05336 -0.38896,-0.10603 -0.58367,-0.15808c-0.62502,-0.0502 -1.24558,-0.14222 -1.85926,-0.27172c0.01012,2.30735 0.11605,4.97817 -0.36392,6.8752c0.82959,-1.45973 1.81467,-2.99203 2.30202,-4.58498c0.17841,-0.57933 0.34259,-1.20691 0.50482,-1.8604zM356.13777,184.16111c0.74045,0.2664 1.49679,0.51273 2.27774,0.73407c0.10446,0.00537 0.20903,0.00951 0.31371,0.01241c0.20021,-0.82382 0.40329,-1.67651 0.63237,-2.51605c-1.0366,0.15342 -2.08913,0.14804 -3.13761,0.03717c-0.01262,0.13649 -0.02411,0.27387 -0.03441,0.41223c-0.03044,0.40876 -0.04547,0.85253 -0.0518,1.32018zM351.20152,192.25053c1.1919,-2.47869 2.12911,-5.08119 3.05727,-7.67039c-0.44629,-0.15122 -0.88735,-0.32091 -1.32218,-0.50723c-0.20708,-0.05403 -0.41409,-0.10857 -0.62097,-0.16376c-0.25107,0.93816 -0.65551,2.00619 -1.03176,2.95755c-0.11449,0.64943 -0.18438,1.29703 -0.18111,1.92378c0.00446,0.85498 0.26571,2.39984 0.09877,3.46005zM352.55382,182.19887c0.01352,0.14906 0.01129,0.31514 -0.00431,0.49497c0.68361,0.30707 1.3686,0.60303 2.06268,0.88357c0.13951,-0.42196 0.27042,-0.86509 0.39754,-1.32172c-0.77905,-0.13792 -1.55155,-0.32324 -2.30915,-0.5337l-0.10219,0.33201c-0.01486,0.0483 -0.02973,0.09659 -0.04458,0.14489zM348.63219,182.74278c-0.14003,-0.06537 -0.28016,-0.13453 -0.42033,-0.20713c-0.13211,0.46101 -0.28117,0.92495 -0.43964,1.38794c-0.23835,0.95958 -0.48196,1.91752 -0.7251,2.87543c0.43926,-1.11852 0.8852,-2.23371 1.32231,-3.34898c0.09016,-0.23006 0.17749,-0.4662 0.26277,-0.70727zM345.71238,188.08424c0.6081,-1.9745 1.21619,-3.94899 1.82429,-5.92349c-0.45413,-0.26827 -0.90742,-0.56685 -1.35746,-0.88397c-0.35001,1.95545 -0.49125,3.90693 -0.50685,5.90253c-0.00194,0.24873 0.02361,0.56805 0.04001,0.90493zM342.88892,187.13984c1.01478,-1.96692 1.52849,-4.40043 2.32404,-6.57254c-0.6827,-0.51911 -1.35357,-1.06191 -2.00385,-1.58555c-0.00891,0.07202 -0.01783,0.14403 -0.02678,0.21604c-0.2886,2.32293 -0.2356,4.62516 -0.31654,6.9618c-0.00918,0.2648 0.01296,0.61428 0.02313,0.98025zM341.61315,180.07268c0.11041,-0.47201 0.22736,-0.94554 0.35224,-1.41295c0.01404,-0.19731 0.02771,-0.39573 0.04168,-0.59453c-0.03301,-0.02597 -0.05864,-0.05969 -0.075,-0.09759c-0.21802,-0.16868 -0.43275,-0.33143 -0.64381,-0.48633c0.08618,0.68872 0.17041,1.37755 0.24387,2.06709c0.01634,0.15336 0.04659,0.33184 0.08101,0.52431zM337.86416,174.21074c0.07516,0.06027 0.15032,0.12056 0.22546,0.18086c-0.01089,-0.01539 -0.02179,-0.03084 -0.03268,-0.04634c-0.06428,-0.04485 -0.12854,-0.0897 -0.19279,-0.13452zM348.79254,182.27734c0.03409,-0.10141 0.06793,-0.20353 0.10155,-0.30628c-0.15555,-0.08339 -0.31122,-0.16693 -0.46686,-0.25075c-0.02671,0.1114 -0.05472,0.22312 -0.08388,0.33509c0.14995,0.07835 0.29972,0.15249 0.44919,0.22195zM349.16695,181.11416c0.05697,-0.18276 0.11378,-0.36676 0.17071,-0.55157c-0.21547,-0.09079 -0.42958,-0.18396 -0.64253,-0.27922c-0.02349,0.18747 -0.05231,0.37665 -0.08589,0.56722c0.18575,0.08763 0.37165,0.17544 0.55769,0.26357zM350.87419,181.92207c0.03272,-0.24359 0.06624,-0.48706 0.10081,-0.73037c-0.36335,-0.12535 -0.72177,-0.25895 -1.07614,-0.3995c-0.06909,0.19027 -0.13838,0.38047 -0.20797,0.57057c0.397,0.18838 0.79096,0.37509 1.1833,0.5593zM351.0481,180.68886c0.02414,-0.16236 0.04885,-0.32462 0.07416,-0.48679c-0.31624,-0.0358 -0.63904,-0.07551 -0.96642,-0.11963c-0.02909,0.08049 -0.05818,0.16098 -0.0873,0.24147c0.32285,0.12792 0.64914,0.2499 0.97955,0.36496zM352.95905,183.53775c0.21199,0.05302 0.42413,0.10549 0.63634,0.15765c-0.37405,-0.15888 -0.74635,-0.32173 -1.11813,-0.48787c-0.00618,0.03318 -0.01266,0.06666 -0.01944,0.10042c0.16604,0.07905 0.33314,0.1557 0.50121,0.22982zM355.7784,181.87706c0.00805,-0.07048 0.01639,-0.14076 0.02503,-0.21083c-0.02282,0.06825 -0.04569,0.13648 -0.06862,0.2047c0.01453,0.00206 0.02906,0.0041 0.04359,0.00613zM359.41111,184.90846c0.14572,-0.50673 0.28458,-1.0129 0.41607,-1.51985c-0.15615,0.50702 -0.3123,1.01405 -0.46845,1.52106c0.01746,-0.00037 0.03493,-0.00078 0.05239,-0.00121zM360.83336,181.32291c-0.0164,0.0768 -0.033,0.15351 -0.04977,0.2302c0.09793,-0.03214 0.19558,-0.06613 0.29293,-0.10203l0.04541,-0.14789c-0.09638,0.00769 -0.19255,0.01425 -0.28857,0.01972zM360.65827,182.11011c-0.2147,0.9289 -0.45596,1.8509 -0.71951,2.77405c0.06398,-0.0043 0.12801,-0.00909 0.19203,-0.01438c0.23108,-0.95093 0.49301,-1.88924 0.77114,-2.83409c-0.08106,0.02598 -0.16228,0.05077 -0.24366,0.07442zM343.38167,177.57895c-0.00312,0.02529 -0.00623,0.05059 -0.00934,0.07589c0.05816,0.00317 0.11687,0.00716 0.17612,0.01195c-0.05556,-0.02931 -0.11115,-0.05858 -0.16679,-0.08783zM345.39201,180.09605c0.01172,-0.0297 0.02352,-0.05934 0.03538,-0.08892c-0.24245,-0.15162 -0.48254,-0.3064 -0.71967,-0.46492c-0.01997,-0.00986 -0.03994,-0.01974 -0.0599,-0.02963c0.24607,0.1961 0.49432,0.39136 0.7442,0.58346zM351.3587,182.74172c0.10907,0.06048 0.21869,0.11997 0.32883,0.17843c0.0082,-0.01975 0.01644,-0.03946 0.02473,-0.05912c-0.11661,-0.05345 -0.23325,-0.10718 -0.34995,-0.16117c-0.00119,0.01395 -0.0024,0.0279 -0.0036,0.04186zM363.43415,183.76211c0.19415,-0.11851 0.38697,-0.24005 0.57885,-0.36346c0.11512,-0.24287 0.22753,-0.48679 0.33601,-0.73226c-0.26825,0.38316 -0.57403,0.74547 -0.90871,1.07579c-0.00205,0.00664 -0.00409,0.01329 -0.00614,0.01993zM359.66707,181.33942c-1.09854,-0.02868 -2.18051,-0.1736 -3.26474,-0.3517c-0.04841,0.3131 -0.09117,0.62958 -0.12775,0.95061c1.0819,0.11609 2.1684,0.11519 3.23367,-0.06902c0.05146,-0.17776 0.10432,-0.35453 0.15882,-0.52987zM349.51379,179.99098c-0.12859,-0.01933 -0.25769,-0.03938 -0.38715,-0.06014c0.11899,0.05206 0.23837,0.10343 0.35817,0.15404c0.00965,-0.03128 0.01932,-0.06257 0.02898,-0.09389zM351.23675,184.16942c0.05419,-0.17106 0.11036,-0.34057 0.16888,-0.50794c-0.04064,-0.0113 -0.08128,-0.02263 -0.12191,-0.03401c-0.01534,0.18048 -0.0309,0.36121 -0.04697,0.54195zM345.66221,179.45154c0.03548,-0.07948 0.07159,-0.15839 0.10835,-0.23666c-0.41111,-0.11386 -0.81598,-0.23775 -1.21084,-0.37252c0.11649,0.08175 0.23385,0.16244 0.35201,0.24215c0.24978,0.12342 0.49995,0.24566 0.75047,0.36702zM346.2775,180.7555c0.46167,0.33128 0.92661,0.64302 1.39148,0.92122c0.02458,-0.10363 0.04949,-0.21349 0.07559,-0.32672c-0.47837,-0.26181 -0.95461,-0.52831 -1.4248,-0.8036c-0.01436,0.06972 -0.02846,0.13942 -0.04226,0.20911zM346.54017,179.41505c-0.02452,0.14058 -0.05013,0.28098 -0.07684,0.42139c0.49622,0.23668 0.99376,0.47127 1.49244,0.70621c0.05735,-0.18046 0.12265,-0.35297 0.19933,-0.50624c-0.3304,-0.15428 -0.65839,-0.31305 -0.98472,-0.47517c-0.21073,-0.04643 -0.42096,-0.09513 -0.63022,-0.14619z" fill="#390200" stroke="none" stroke-width="0.5"/><g><path d="M351.79545,181.76429c-12.39357,-3.81691 -19.3463,-16.9581 -15.52939,-29.35167c3.81691,-12.39357 16.95809,-19.3463 29.35166,-15.52939c12.39357,3.81691 19.34631,16.9581 15.5294,29.35166c-3.81691,12.39357 -16.9581,19.34631 -29.35167,15.52939z" fill="#000000" stroke="#000000" stroke-width="2"/><path d="M355.94314,149.98529c-0.65676,2.13252 -2.35344,3.50271 -3.78961,3.0604c-1.43619,-0.44231 -2.06804,-2.52963 -1.41127,-4.66214c0.65676,-2.13252 2.35343,-3.5027 3.78963,-3.06038c1.43619,0.44231 2.06803,2.52963 1.41126,4.66213z" fill="#ffffff" stroke="#ff0000" stroke-width="3.5"/></g><g><path d="M284.41105,136.44251c3.81691,-12.39357 16.9581,-19.3463 29.35167,-15.52939c12.39357,3.81691 19.3463,16.95809 15.52939,29.35166c-3.81691,12.39357 -16.9581,19.34631 -29.35166,15.5294c-12.39357,-3.81691 -19.34631,-16.9581 -15.52939,-29.35167z" fill="#000000" stroke="#000000" stroke-width="2"/><path d="M313.31924,151.15811c-0.65676,2.13252 -2.35344,3.50271 -3.78962,3.0604c-1.43619,-0.44231 -2.06804,-2.52963 -1.41127,-4.66214c0.65676,-2.13252 2.35344,-3.50271 3.78962,-3.0604c1.43619,0.44231 2.06804,2.52963 1.41127,4.66214z" fill="#ffffff" stroke="#ff0000" stroke-width="3.5"/></g><g><path d="M342.96346,173.76109c0.86657,1.51381 -1.20544,4.32926 -4.62797,6.28846c-3.42253,1.95921 -7.7661,0.80647 -7.7661,0.80647c0,0 1.20544,-4.32926 4.62797,-6.28847c3.42253,-1.95921 6.89954,-2.32028 7.7661,-0.80647z" fill="#0f0f0f" stroke="#000000" stroke-width="2"/><path d="M337.09365,175.04905c-0.07501,0.01337 -0.15047,0.02533 -0.22641,0.03568c-0.00376,0.00128 -0.00752,0.00254 -0.0113,0.00382l0.0268,0.05065l-0.34055,0.18018c-0.05655,0.02992 -0.12452,0.03826 -0.1905,0.01794c-0.13195,-0.04064 -0.20598,-0.18056 -0.16534,-0.31251c0.01236,-0.04013 0.0339,-0.0749 0.0616,-0.10272l0.20688,-0.21664l0.02716,0.02593l0.03672,-0.07425c0.13205,-0.02655 0.2623,-0.05497 0.39111,-0.0851c0.65809,-0.50979 2.26067,-1.04847 2.75957,-1.13149l0.29549,-0.04916c0.03858,-0.00726 0.07945,-0.0055 0.11958,0.00687c0.13195,0.04064 0.20598,0.18056 0.16534,0.31251c-0.01236,0.04013 -0.0339,0.0749 -0.0616,0.10272l-0.20688,0.21664l-0.06003,-0.05735c-0.08624,0.09082 -0.17848,0.16738 -0.27503,0.23388c-0.04716,0.04664 -0.10178,0.06626 -0.10178,0.06626c-0.00086,0.00031 -0.00173,0.00062 -0.00259,0.00093c-0.5408,0.32576 -1.19185,0.3979 -1.68367,0.89337l-0.52585,0.03113c0,0 -0.18153,0.00418 -0.23874,-0.14931z" fill="#ffffff" stroke="none" stroke-width="0.5"/></g></g><path d="M277.27416,160.49511c0,0 24.98011,27.59085 41.59203,32.87637c14.65267,4.66212 56.14242,-0.96342 56.14242,-0.96342l1.81144,1.60194c0,0 -37.08315,23.0852 -59.8618,15.92249c-22.77866,-7.16271 -41.65588,-49.20901 -41.65588,-49.20901z" fill="#000000" stroke="#000000" stroke-width="2" stroke-linecap="butt"/></g></g></svg>