<svg version="1.1" xmlns="http://www.w3.org/2000/svg" xmlns:xlink="http://www.w3.org/1999/xlink" width="213.18203" height="280.18476" viewBox="0,0,213.18203,280.18476"><defs><linearGradient x1="292.47265" y1="121.70055" x2="292.47265" y2="168.66186" gradientUnits="userSpaceOnUse" id="color-1"><stop offset="0" stop-color="#ffffff"/><stop offset="1" stop-color="#d8d8d8"/></linearGradient><linearGradient x1="346.73112" y1="121.70057" x2="346.73112" y2="168.66188" gradientUnits="userSpaceOnUse" id="color-2"><stop offset="0" stop-color="#ffffff"/><stop offset="1" stop-color="#d8d8d8"/></linearGradient></defs><g transform="translate(-214.52362,-38.88751)"><g stroke-miterlimit="10"><path d="M272.11014,216.26063c0.69149,-2.74535 3.73555,-4.81339 7.38606,-4.81339c3.23495,0 5.99367,1.62399 7.06104,3.9042c0.02618,0.07181 0.05544,0.14128 0.09106,0.20598c0.34257,0.62235 6.73325,-1.09492 7.52542,-0.84255c2.34967,0.74856 3.72445,2.88263 4.72133,4.73523c1.2385,2.30161 -2.89731,8.99139 -4.21952,11.08073c-3.44549,5.44452 -7.01511,14.21661 -13.0943,18.09006c-4.36095,2.77864 -11.57075,2.22268 -14.41858,-1.68103c-2.09573,-2.87275 -0.89147,-7.62841 -0.51474,-10.63945c0.49433,-3.9509 1.65871,-7.91056 2.73717,-11.78969c1.14878,-4.13207 1.39016,-6.40714 2.72506,-8.25009z" fill="#8b21e0" stroke="none" stroke-width="0.5" stroke-linecap="butt"/><path d="M370.04217,224.51072c1.07846,3.87913 2.24284,7.83879 2.73717,11.78969c0.37673,3.01104 1.58099,7.76671 -0.51474,10.63945c-2.84783,3.90371 -10.05764,4.45967 -14.41858,1.68103c-6.07919,-3.87345 -9.64881,-12.64553 -13.0943,-18.09006c-1.32221,-2.08934 -5.45801,-8.77911 -4.21952,-11.08073c0.99688,-1.8526 2.37167,-3.98667 4.72133,-4.73523c0.79217,-0.25237 7.18285,1.4649 7.52542,0.84255c0.03562,-0.06471 0.06488,-0.13418 0.09105,-0.20598c1.06737,-2.2802 3.82608,-3.9042 7.06104,-3.9042c3.65051,0 6.69458,2.06803 7.38607,4.81339c1.3349,1.84295 1.57628,4.11802 2.72506,8.25009z" fill="#8b21e0" stroke="none" stroke-width="0.5" stroke-linecap="butt"/><g stroke-linecap="butt"><path d="M286.35186,319.07226l15.14285,-131.8421l37.78325,-0.15789l13.57389,132z" fill="#8b21e0" stroke="#000000" stroke-width="0"/><path d="M296.01666,234.92516c2.08346,-18.13983 5.47805,-47.69499 5.47805,-47.69499l37.78325,-0.15789c0,0 3.04845,29.64481 4.91793,47.82466c0.02749,0.26726 -48.23894,0.54804 -48.17924,0.02822z" fill="#7822e0" stroke="#000000" stroke-width="0"/><path d="M297.13133,225.22012c1.77782,-15.47868 4.36338,-37.98996 4.36338,-37.98996l37.78325,-0.15789c0,0 2.35959,22.94598 3.97074,38.61368c0.0124,0.12054 -46.15083,-0.17447 -46.11737,-0.46582z" fill="#551cba" stroke="#000000" stroke-width="0"/><path d="M298.09859,216.79867c1.47239,-12.81944 3.39612,-29.56851 3.39612,-29.56851l37.78325,-0.15789c0,0 1.79848,17.4894 3.15533,30.68411c0.00563,0.0547 -44.35225,-0.8049 -44.3347,-0.95771z" fill="#3a1aaf" stroke="#000000" stroke-width="0"/><path d="M298.125,217c0,-0.57891 0.28111,-1.09217 0.71427,-1.41073c0.31856,-0.43316 0.83182,-0.71427 1.41073,-0.71427c0.9665,0 1.75,0.7835 1.75,1.75c0,0.57891 -0.28111,1.09217 -0.71427,1.41073c-0.31856,0.43316 -0.83182,0.71427 -1.41073,0.71427c-0.9665,0 -1.75,-0.7835 -1.75,-1.75z" fill="#3a1aaf" stroke="none" stroke-width="0.5"/><path d="M338.5,217.625c0,-0.9665 0.7835,-1.75 1.75,-1.75c0.9665,0 1.75,0.7835 1.75,1.75c0,0.9665 -0.7835,1.75 -1.75,1.75c-0.9665,0 -1.75,-0.7835 -1.75,-1.75z" fill="#3a1aaf" stroke="none" stroke-width="0.5"/><path d="M331.75,217c0,-0.9665 0.7835,-1.75 1.75,-1.75c0.9665,0 1.75,0.7835 1.75,1.75c0,0.9665 -0.7835,1.75 -1.75,1.75c-0.9665,0 -1.75,-0.7835 -1.75,-1.75z" fill="#3a1aaf" stroke="none" stroke-width="0.5"/><path d="M325.5,217.5c0,-0.9665 0.7835,-1.75 1.75,-1.75c0.2202,0 0.4309,0.04066 0.625,0.1149c0.1941,-0.07424 0.4048,-0.1149 0.625,-0.1149c0.9665,0 1.75,0.7835 1.75,1.75c0,0.9665 -0.7835,1.75 -1.75,1.75c-0.2202,0 -0.4309,-0.04066 -0.625,-0.1149c-0.1941,0.07424 -0.4048,0.1149 -0.625,0.1149c-0.9665,0 -1.75,-0.7835 -1.75,-1.75z" fill="#3a1aaf" stroke="none" stroke-width="0.5"/><path d="M317,217.375c0,-0.9665 0.7835,-1.75 1.75,-1.75c0.2202,0 0.4309,0.04066 0.625,0.1149c0.1941,-0.07424 0.4048,-0.1149 0.625,-0.1149c0.9665,0 1.75,0.7835 1.75,1.75c0,0.9665 -0.7835,1.75 -1.75,1.75c-0.2202,0 -0.4309,-0.04066 -0.625,-0.1149c-0.1941,0.07424 -0.4048,0.1149 -0.625,0.1149c-0.9665,0 -1.75,-0.7835 -1.75,-1.75z" fill="#3a1aaf" stroke="none" stroke-width="0.5"/><path d="M313.25,217.125c0,-0.9665 0.7835,-1.75 1.75,-1.75c0.9665,0 1.75,0.7835 1.75,1.75c0,0.9665 -0.7835,1.75 -1.75,1.75c-0.9665,0 -1.75,-0.7835 -1.75,-1.75z" fill="#3a1aaf" stroke="none" stroke-width="0.5"/><path d="M306.5,217c0,-0.9665 0.7835,-1.75 1.75,-1.75c0.9665,0 1.75,0.7835 1.75,1.75c0,0.9665 -0.7835,1.75 -1.75,1.75c-0.9665,0 -1.75,-0.7835 -1.75,-1.75z" fill="#3a1aaf" stroke="none" stroke-width="0.5"/><path d="M302.625,217c0,-0.9665 0.7835,-1.75 1.75,-1.75c0.9665,0 1.75,0.7835 1.75,1.75c0,0.9665 -0.7835,1.75 -1.75,1.75c-0.9665,0 -1.75,-0.7835 -1.75,-1.75z" fill="#3a1aaf" stroke="none" stroke-width="0.5"/><path d="M297.125,225.125c0,-0.9665 0.7835,-1.75 1.75,-1.75c0.9665,0 1.75,0.7835 1.75,1.75c0,0.9665 -0.7835,1.75 -1.75,1.75c-0.9665,0 -1.75,-0.7835 -1.75,-1.75z" fill="#551cba" stroke="none" stroke-width="0.5"/><path d="M337.625,225.5c0,-0.9665 0.7835,-1.75 1.75,-1.75c0.43734,0 0.8372,0.16042 1.14396,0.42563c0.27981,-0.18976 0.61748,-0.30063 0.98104,-0.30063c0.9665,0 1.75,0.7835 1.75,1.75c0,0.9665 -0.7835,1.75 -1.75,1.75c-0.43734,0 -0.8372,-0.16042 -1.14396,-0.42563c-0.27981,0.18976 -0.61748,0.30063 -0.98104,0.30063c-0.9665,0 -1.75,-0.7835 -1.75,-1.75z" fill="#551cba" stroke="none" stroke-width="0.5"/><path d="M330.5,225.875c0,-0.9665 0.7835,-1.75 1.75,-1.75c0.78848,0 1.45517,0.52145 1.67401,1.23832c0.28322,-0.58494 0.8825,-0.98832 1.57599,-0.98832c0.9665,0 1.75,0.7835 1.75,1.75c0,0.9665 -0.7835,1.75 -1.75,1.75c-0.78848,0 -1.45517,-0.52145 -1.67401,-1.23832c-0.28322,0.58494 -0.8825,0.98832 -1.57599,0.98832c-0.9665,0 -1.75,-0.7835 -1.75,-1.75z" fill="#551cba" stroke="none" stroke-width="0.5"/><path d="M327,225.75c0,-0.9665 0.7835,-1.75 1.75,-1.75c0.9665,0 1.75,0.7835 1.75,1.75c0,0.9665 -0.7835,1.75 -1.75,1.75c-0.9665,0 -1.75,-0.7835 -1.75,-1.75z" fill="#551cba" stroke="none" stroke-width="0.5"/><path d="M316.25,225.125c0,-0.9665 0.7835,-1.75 1.75,-1.75c0.58711,0 1.1067,0.28913 1.42415,0.73276c0.32092,-0.37217 0.79587,-0.60776 1.32585,-0.60776c0.76142,0 1.40928,0.48629 1.64992,1.16524c0.27225,-0.61285 0.88626,-1.04024 1.60008,-1.04024c0.9665,0 1.75,0.7835 1.75,1.75c0,0.9665 -0.7835,1.75 -1.75,1.75c-0.76142,0 -1.40928,-0.48629 -1.64992,-1.16524c-0.27225,0.61285 -0.88626,1.04024 -1.60008,1.04024c-0.58711,0 -1.1067,-0.28913 -1.42415,-0.73276c-0.32092,0.37217 -0.79587,0.60776 -1.32585,0.60776c-0.9665,0 -1.75,-0.7835 -1.75,-1.75z" fill="#551cba" stroke="none" stroke-width="0.5"/><path d="M307.625,225c0,-0.9665 0.7835,-1.75 1.75,-1.75c0.80543,0 1.48377,0.54412 1.6875,1.28483c0.20373,-0.7407 0.88207,-1.28483 1.6875,-1.28483c0.9665,0 1.75,0.7835 1.75,1.75c0,0.9665 -0.7835,1.75 -1.75,1.75c-0.80543,0 -1.48377,-0.54412 -1.6875,-1.28483c-0.20373,0.7407 -0.88207,1.28483 -1.6875,1.28483c-0.9665,0 -1.75,-0.7835 -1.75,-1.75z" fill="#551cba" stroke="none" stroke-width="0.5"/><path d="M300.5,225.125c0,-0.9665 0.7835,-1.75 1.75,-1.75c0.6587,0 1.2324,0.36393 1.531,0.90168c0.27524,-0.60558 0.88544,-1.02668 1.594,-1.02668c0.9665,0 1.75,0.7835 1.75,1.75c0,0.9665 -0.7835,1.75 -1.75,1.75c-0.6587,0 -1.2324,-0.36393 -1.531,-0.90168c-0.27524,0.60558 -0.88544,1.02668 -1.594,1.02668c-0.9665,0 -1.75,-0.7835 -1.75,-1.75z" fill="#551cba" stroke="none" stroke-width="0.5"/><path d="M302.875,233.375c0.9665,0 1.75,0.7835 1.75,1.75c0,0.9665 -0.7835,1.75 -1.75,1.75c-0.55774,0 -1.05454,-0.26092 -1.375,-0.66735c-0.32046,0.40643 -0.81726,0.66735 -1.375,0.66735c-0.45833,0 -0.87552,-0.1762 -1.1875,-0.46455c-0.31198,0.28835 -0.72917,0.46455 -1.1875,0.46455c-0.9665,0 -1.75,-0.7835 -1.75,-1.75c0,-0.9665 0.7835,-1.75 1.75,-1.75c0.45833,0 0.87552,0.1762 1.1875,0.46455c0.31198,-0.28835 0.72917,-0.46455 1.1875,-0.46455c0.55774,0 1.05454,0.26092 1.375,0.66735c0.32046,-0.40643 0.81726,-0.66735 1.375,-0.66735z" fill="#7822e0" stroke="none" stroke-width="0.5"/><path d="M312.625,233.25c0.9665,0 1.75,0.7835 1.75,1.75c0,0.9665 -0.7835,1.75 -1.75,1.75c-0.27524,0 -0.53563,-0.06354 -0.76731,-0.17675c-0.28013,0.19045 -0.61841,0.30175 -0.98269,0.30175c-0.73651,0 -1.36676,-0.45499 -1.625,-1.09923c-0.25824,0.64424 -0.88849,1.09923 -1.625,1.09923c-0.9665,0 -1.75,-0.7835 -1.75,-1.75c0,-0.9665 0.7835,-1.75 1.75,-1.75c0.73651,0 1.36676,0.45499 1.625,1.09923c0.25824,-0.64424 0.88849,-1.09923 1.625,-1.09923c0.27524,0 0.53563,0.06354 0.76731,0.17675c0.28013,-0.19045 0.61841,-0.30175 0.98269,-0.30175z" fill="#7822e0" stroke="none" stroke-width="0.5"/><path d="M315.5,235.25c0,-0.9665 0.7835,-1.75 1.75,-1.75c0.9665,0 1.75,0.7835 1.75,1.75c0,0.9665 -0.7835,1.75 -1.75,1.75c-0.9665,0 -1.75,-0.7835 -1.75,-1.75z" fill="#7822e0" stroke="none" stroke-width="0.5"/><path d="M322.75,235.875c0,-0.9665 0.7835,-1.75 1.75,-1.75c0.9665,0 1.75,0.7835 1.75,1.75c0,0.9665 -0.7835,1.75 -1.75,1.75c-0.9665,0 -1.75,-0.7835 -1.75,-1.75z" fill="#7822e0" stroke="none" stroke-width="0.5"/><path d="M329.375,235.75c0,-0.9665 0.7835,-1.75 1.75,-1.75c0.9665,0 1.75,0.7835 1.75,1.75c0,0.9665 -0.7835,1.75 -1.75,1.75c-0.9665,0 -1.75,-0.7835 -1.75,-1.75z" fill="#7822e0" stroke="none" stroke-width="0.5"/><path d="M334.875,234.75c0,-0.9665 0.7835,-1.75 1.75,-1.75c0.9665,0 1.75,0.7835 1.75,1.75c0,0.9665 -0.7835,1.75 -1.75,1.75c-0.9665,0 -1.75,-0.7835 -1.75,-1.75z" fill="#7822e0" stroke="none" stroke-width="0.5"/><path d="M340,235c0,-0.9665 0.7835,-1.75 1.75,-1.75c0.9665,0 1.75,0.7835 1.75,1.75c0,0.9665 -0.7835,1.75 -1.75,1.75c-0.9665,0 -1.75,-0.7835 -1.75,-1.75z" fill="#7822e0" stroke="none" stroke-width="0.5"/><path d="M301.16667,220.83333c0,-0.69036 0.55964,-1.25 1.25,-1.25c0.69036,0 1.25,0.55964 1.25,1.25c0,0.69036 -0.55964,1.25 -1.25,1.25c-0.69036,0 -1.25,-0.55964 -1.25,-1.25z" fill="#3a1aaf" stroke="none" stroke-width="0.5"/><path d="M305.5,217.83333c0,-0.69036 0.55964,-1.25 1.25,-1.25c0.69036,0 1.25,0.55964 1.25,1.25c0,0.69036 -0.55964,1.25 -1.25,1.25c-0.69036,0 -1.25,-0.55964 -1.25,-1.25z" fill="#3a1aaf" stroke="none" stroke-width="0.5"/><path d="M311.66667,217.33333c0,-0.69036 0.55964,-1.25 1.25,-1.25c0.69036,0 1.25,0.55964 1.25,1.25c0,0.69036 -0.55964,1.25 -1.25,1.25c-0.69036,0 -1.25,-0.55964 -1.25,-1.25z" fill="#3a1aaf" stroke="none" stroke-width="0.5"/><path d="M314.66667,220c0,-0.69036 0.55964,-1.25 1.25,-1.25c0.69036,0 1.25,0.55964 1.25,1.25c0,0.69036 -0.55964,1.25 -1.25,1.25c-0.69036,0 -1.25,-0.55964 -1.25,-1.25z" fill="#3a1aaf" stroke="none" stroke-width="0.5"/><path d="M323.25,221.08333c0.69036,0 1.25,0.55964 1.25,1.25c0,0.69036 -0.55964,1.25 -1.25,1.25c-0.28931,0 -0.55566,-0.09828 -0.76748,-0.26328c-0.21988,0.35792 -0.61499,0.59662 -1.06585,0.59662c-0.69036,0 -1.25,-0.55964 -1.25,-1.25c0,-0.69036 0.55964,-1.25 1.25,-1.25c0.28931,0 0.55566,0.09828 0.76748,0.26328c0.21988,-0.35792 0.61499,-0.59662 1.06585,-0.59662z" fill="#3a1aaf" stroke="none" stroke-width="0.5"/><path d="M328,218.5c0,-0.69036 0.55964,-1.25 1.25,-1.25c0.69036,0 1.25,0.55964 1.25,1.25c0,0.69036 -0.55964,1.25 -1.25,1.25c-0.69036,0 -1.25,-0.55964 -1.25,-1.25z" fill="#3a1aaf" stroke="none" stroke-width="0.5"/><path d="M333.66667,218.16667c0,-0.69036 0.55964,-1.25 1.25,-1.25c0.69036,0 1.25,0.55964 1.25,1.25c0,0.69036 -0.55964,1.25 -1.25,1.25c-0.69036,0 -1.25,-0.55964 -1.25,-1.25z" fill="#3a1aaf" stroke="none" stroke-width="0.5"/><path d="M339.83333,222.33333c0,0.69036 -0.55964,1.25 -1.25,1.25c-0.54205,0 -1.00352,-0.34502 -1.17677,-0.82743c-0.24986,-0.22855 -0.40656,-0.55726 -0.40656,-0.92257c0,-0.69036 0.55964,-1.25 1.25,-1.25c0.54205,0 1.00352,0.34502 1.17677,0.82743c0.24986,0.22855 0.40656,0.55726 0.40656,0.92257z" fill="#3a1aaf" stroke="none" stroke-width="0.5"/><path d="M298.66667,226.16667c0,-0.69036 0.55964,-1.25 1.25,-1.25c0.69036,0 1.25,0.55964 1.25,1.25c0,0.69036 -0.55964,1.25 -1.25,1.25c-0.69036,0 -1.25,-0.55964 -1.25,-1.25z" fill="#551cba" stroke="none" stroke-width="0.5"/><path d="M303.5,231.16667c0,-0.69036 0.55964,-1.25 1.25,-1.25c0.69036,0 1.25,0.55964 1.25,1.25c0,0.69036 -0.55964,1.25 -1.25,1.25c-0.69036,0 -1.25,-0.55964 -1.25,-1.25z" fill="#551cba" stroke="none" stroke-width="0.5"/><path d="M309.38356,228.20639c0.96028,0.80023 0.16005,1.76051 0.16005,1.76051l-0.83333,1c0,0 -0.80023,0.96028 -1.76051,0.16005c-0.96028,-0.80023 -0.16005,-1.76051 -0.16005,-1.76051l0.83333,-1c0,0 0.80023,-0.96028 1.76051,-0.16005z" fill="#551cba" stroke="none" stroke-width="0.5"/><path d="M313.91667,224.75c0.69036,0 1.25,0.55964 1.25,1.25c0,0.69036 -0.55964,1.25 -1.25,1.25c-0.23693,0 -0.45847,-0.06592 -0.64727,-0.18042c-0.0607,0.00906 -0.12284,0.01375 -0.18606,0.01375c-0.69036,0 -1.25,-0.55964 -1.25,-1.25c0,-0.69036 0.55964,-1.25 1.25,-1.25c0.23693,0 0.45847,0.06592 0.64727,0.18042c0.0607,-0.00906 0.12284,-0.01375 0.18606,-0.01375z" fill="#551cba" stroke="none" stroke-width="0.5"/><path d="M320.83333,229.16667c0,-0.69036 0.55964,-1.25 1.25,-1.25c0.69036,0 1.25,0.55964 1.25,1.25c0,0.69036 -0.55964,1.25 -1.25,1.25c-0.69036,0 -1.25,-0.55964 -1.25,-1.25z" fill="#551cba" stroke="none" stroke-width="0.5"/><path d="M323.66667,230.33333c0,-0.69036 0.55964,-1.25 1.25,-1.25c0.69036,0 1.25,0.55964 1.25,1.25c0,0.69036 -0.55964,1.25 -1.25,1.25c-0.69036,0 -1.25,-0.55964 -1.25,-1.25z" fill="#551cba" stroke="none" stroke-width="0.5"/><path d="M329.16667,226.83333c0,-0.69036 0.55964,-1.25 1.25,-1.25c0.69036,0 1.25,0.55964 1.25,1.25c0,0.69036 -0.55964,1.25 -1.25,1.25c-0.69036,0 -1.25,-0.55964 -1.25,-1.25z" fill="#551cba" stroke="none" stroke-width="0.5"/><path d="M333,225.83333c0,-0.69036 0.55964,-1.25 1.25,-1.25c0.69036,0 1.25,0.55964 1.25,1.25c0,0.69036 -0.55964,1.25 -1.25,1.25c-0.69036,0 -1.25,-0.55964 -1.25,-1.25z" fill="#551cba" stroke="none" stroke-width="0.5"/><path d="M340.5,230.83333c0,-0.69036 0.55964,-1.25 1.25,-1.25c0.69036,0 1.25,0.55964 1.25,1.25c0,0.69036 -0.55964,1.25 -1.25,1.25c-0.69036,0 -1.25,-0.55964 -1.25,-1.25z" fill="#551cba" stroke="none" stroke-width="0.5"/><path d="M299,238.83333c0,-0.69036 0.55964,-1.25 1.25,-1.25c0.69036,0 1.25,0.55964 1.25,1.25c0,0.69036 -0.55964,1.25 -1.25,1.25c-0.69036,0 -1.25,-0.55964 -1.25,-1.25z" fill="#7822e0" stroke="none" stroke-width="0.5"/><path d="M307.58333,234.75c0.69036,0 1.25,0.55964 1.25,1.25c0,0.69036 -0.55964,1.25 -1.25,1.25c-0.19188,0 -0.37366,-0.04323 -0.53614,-0.12049c-0.21637,0.17935 -0.4942,0.28716 -0.7972,0.28716c-0.69036,0 -1.25,-0.55964 -1.25,-1.25c0,-0.69036 0.55964,-1.25 1.25,-1.25c0.19188,0 0.37366,0.04323 0.53614,0.12049c0.21637,-0.17935 0.4942,-0.28716 0.7972,-0.28716z" fill="#7822e0" stroke="none" stroke-width="0.5"/><path d="M314.66667,239c0,-0.69036 0.55964,-1.25 1.25,-1.25c0.69036,0 1.25,0.55964 1.25,1.25c0,0.69036 -0.55964,1.25 -1.25,1.25c-0.69036,0 -1.25,-0.55964 -1.25,-1.25z" fill="#7822e0" stroke="none" stroke-width="0.5"/><path d="M320.83333,242.5c0,-0.69036 0.55964,-1.25 1.25,-1.25c0.69036,0 1.25,0.55964 1.25,1.25c0,0.69036 -0.55964,1.25 -1.25,1.25c-0.69036,0 -1.25,-0.55964 -1.25,-1.25z" fill="#7822e0" stroke="none" stroke-width="0.5"/><path d="M320.83333,235c0,-0.69036 0.55964,-1.25 1.25,-1.25c0.69036,0 1.25,0.55964 1.25,1.25c0,0.69036 -0.55964,1.25 -1.25,1.25c-0.69036,0 -1.25,-0.55964 -1.25,-1.25z" fill="#7822e0" stroke="none" stroke-width="0.5"/><path d="M326,236.16667c0,-0.69036 0.55964,-1.25 1.25,-1.25c0.69036,0 1.25,0.55964 1.25,1.25c0,0.69036 -0.55964,1.25 -1.25,1.25c-0.69036,0 -1.25,-0.55964 -1.25,-1.25z" fill="#7822e0" stroke="none" stroke-width="0.5"/><path d="M331.5,236.16667c0,-0.69036 0.55964,-1.25 1.25,-1.25c0.69036,0 1.25,0.55964 1.25,1.25c0,0.69036 -0.55964,1.25 -1.25,1.25c-0.69036,0 -1.25,-0.55964 -1.25,-1.25z" fill="#7822e0" stroke="none" stroke-width="0.5"/><path d="M339.25,239.25c0.69036,0 1.25,0.55964 1.25,1.25c0,0.69036 -0.55964,1.25 -1.25,1.25c-0.56616,0 -1.04441,-0.3764 -1.19816,-0.89261c-0.19819,0.42859 -0.63196,0.72594 -1.13517,0.72594c-0.69036,0 -1.25,-0.55964 -1.25,-1.25c0,-0.69036 0.55964,-1.25 1.25,-1.25c0.56616,0 1.04441,0.3764 1.19816,0.89261c0.19819,-0.42859 0.63196,-0.72594 1.13517,-0.72594z" fill="#7822e0" stroke="none" stroke-width="0.5"/><path d="M340,235.33333c0,-0.69036 0.55964,-1.25 1.25,-1.25c0.69036,0 1.25,0.55964 1.25,1.25c0,0.69036 -0.55964,1.25 -1.25,1.25c-0.69036,0 -1.25,-0.55964 -1.25,-1.25z" fill="#7822e0" stroke="none" stroke-width="0.5"/><path d="M301,223c0,-0.41421 0.33579,-0.75 0.75,-0.75c0.41421,0 0.75,0.33579 0.75,0.75c0,0.41421 -0.33579,0.75 -0.75,0.75c-0.41421,0 -0.75,-0.33579 -0.75,-0.75z" fill="#3a1aaf" stroke="none" stroke-width="0.5"/><path d="M321.66667,225c0,-0.41421 0.33579,-0.75 0.75,-0.75c0.41421,0 0.75,0.33579 0.75,0.75c0,0.41421 -0.33579,0.75 -0.75,0.75c-0.41421,0 -0.75,-0.33579 -0.75,-0.75z" fill="#3a1aaf" stroke="none" stroke-width="0.5"/><path d="M338.66667,224.66667c0,-0.41421 0.33579,-0.75 0.75,-0.75c0.41421,0 0.75,0.33579 0.75,0.75c0,0.41421 -0.33579,0.75 -0.75,0.75c-0.41421,0 -0.75,-0.33579 -0.75,-0.75z" fill="#3a1aaf" stroke="none" stroke-width="0.5"/><path d="M302.83333,233.5c0,-0.41421 0.33579,-0.75 0.75,-0.75c0.41421,0 0.75,0.33579 0.75,0.75c0,0.41421 -0.33579,0.75 -0.75,0.75c-0.41421,0 -0.75,-0.33579 -0.75,-0.75z" fill="#551cba" stroke="none" stroke-width="0.5"/><path d="M322.5,233.33333c0,-0.41421 0.33579,-0.75 0.75,-0.75c0.41421,0 0.75,0.33579 0.75,0.75c0,0.41421 -0.33579,0.75 -0.75,0.75c-0.41421,0 -0.75,-0.33579 -0.75,-0.75z" fill="#551cba" stroke="none" stroke-width="0.5"/><path d="M341.33333,235c0,-0.41421 0.33579,-0.75 0.75,-0.75c0.41421,0 0.75,0.33579 0.75,0.75c0,0.41421 -0.33579,0.75 -0.75,0.75c-0.41421,0 -0.75,-0.33579 -0.75,-0.75z" fill="#551cba" stroke="none" stroke-width="0.5"/><path d="M301.66667,241.33333c0,-0.41421 0.33579,-0.75 0.75,-0.75c0.41421,0 0.75,0.33579 0.75,0.75c0,0.41421 -0.33579,0.75 -0.75,0.75c-0.41421,0 -0.75,-0.33579 -0.75,-0.75z" fill="#7822e0" stroke="none" stroke-width="0.5"/><path d="M314.5,244.16667c0,-0.41421 0.33579,-0.75 0.75,-0.75c0.41421,0 0.75,0.33579 0.75,0.75c0,0.41421 -0.33579,0.75 -0.75,0.75c-0.41421,0 -0.75,-0.33579 -0.75,-0.75z" fill="#7822e0" stroke="none" stroke-width="0.5"/><path d="M338,245.16667c0,-0.41421 0.33579,-0.75 0.75,-0.75c0.41421,0 0.75,0.33579 0.75,0.75c0,0.41421 -0.33579,0.75 -0.75,0.75c-0.41421,0 -0.75,-0.33579 -0.75,-0.75z" fill="#7822e0" stroke="none" stroke-width="0.5"/></g><path d="M214.52362,306.61252v-267.72501h213.18203v267.72501z" fill="none" stroke="none" stroke-width="0" stroke-linecap="butt"/><path d="" fill="none" stroke="#000000" stroke-width="2" stroke-linecap="round"/><g><path d="M374.94912,126.91543l23.02205,-21.96761c0,0 -0.97991,16.56024 -0.25308,22.99107c0.5396,4.77425 4.22214,12.12649 4.22214,12.12649c0,0 -5.59307,13.46552 -7.20627,19.78804c-1.36807,5.36185 -1.85928,15.74223 -1.85928,15.74223l-21.08891,-9.31427z" fill="#6719a7" stroke="#000000" stroke-width="0" stroke-linecap="round"/><path d="M390.7658,157.67008l-11.95038,1.58167" fill="none" stroke="#4b1797" stroke-width="2" stroke-linecap="round"/><path d="M391.11728,128.32135l-12.12612,4.56927" fill="none" stroke="#4b1797" stroke-width="2" stroke-linecap="round"/><path d="M267.4258,166.28137l-21.0889,9.31427c0,0 -0.49119,-10.38037 -1.85927,-15.74223c-1.61319,-6.32253 -7.20627,-19.78805 -7.20627,-19.78805c0,0 3.68255,-7.35223 4.22214,-12.12648c0.72683,-6.43083 -0.25308,-22.99107 -0.25308,-22.99107l23.02205,21.96761z" fill="#6719a7" stroke="#000000" stroke-width="0" stroke-linecap="round"/><path d="M248.44579,157.67008l11.95038,1.58167" fill="none" stroke="#4b1797" stroke-width="2" stroke-linecap="round"/><path d="M248.09431,128.32135l12.12612,4.56926" fill="none" stroke="#4b1797" stroke-width="2" stroke-linecap="round"/><path d="M255.36488,144.90558c0,-33.30185 28.7599,-60.29833 64.23702,-60.29833c35.47713,0 64.23702,26.99648 64.23702,60.29833c0,33.30185 -28.75989,60.29834 -64.23702,60.29834c-35.47712,0 -64.23702,-26.99649 -64.23702,-60.29834z" fill="#8b21e0" stroke="#000000" stroke-width="0" stroke-linecap="butt"/><path d="M258.83123,125.13196c9.19367,-22.74524 33.31635,-40.52471 60.77067,-40.52471c28.28741,0 52.30431,17.16313 60.87696,41.00079c0.01588,0.04415 -121.67012,-0.42045 -121.64763,-0.47608z" fill="#7822e0" stroke="#000000" stroke-width="0" stroke-linecap="butt"/><path d="M261.25907,119.63946c10.18178,-20.68181 32.47698,-35.03221 58.34283,-35.03221c26.04185,0 48.46428,14.54634 58.54897,35.45524c0.04514,0.09359 -116.96577,-0.2728 -116.89181,-0.42303z" fill="#551cba" stroke="#000000" stroke-width="0" stroke-linecap="butt"/><path d="M266.28936,111.25648c11.53785,-16.07555 31.10974,-26.64923 53.31254,-26.64923c21.49597,0 40.52587,9.91116 52.18635,25.13082c0.52317,0.68286 1.03151,1.37641 1.52457,2.08023c0.04555,0.06502 -107.08442,-0.47688 -107.02346,-0.56181z" fill="#3a1aaf" stroke="#000000" stroke-width="0" stroke-linecap="butt"/><path d="M268.99199,148.17668c0,-12.96801 10.51265,-23.48065 23.48066,-23.48065c12.96801,0 23.48065,10.51264 23.48065,23.48065c0,12.96801 -10.51264,23.48066 -23.48065,23.48066c-12.96801,0 -23.48066,-10.51265 -23.48066,-23.48066z" fill="#6320d7" stroke="#000000" stroke-width="0" stroke-linecap="butt"/><path d="M346.73111,171.65736c-12.96801,0 -23.48065,-10.51265 -23.48065,-23.48066c0,-12.96801 10.51264,-23.48065 23.48065,-23.48065c12.96801,0 23.48066,10.51264 23.48066,23.48065c0,12.96801 -10.51265,23.48066 -23.48066,23.48066z" fill="#6320d7" stroke="#000000" stroke-width="0" stroke-linecap="butt"/><path d="M290.83931,96.60013c2.71802,8.3037 -6.45191,13.26843 -14.41075,13.26843c-3.16193,0 -20.14221,-3.04967 -22.9196,-12.19451c-4.21354,-13.87351 6.39996,-35.87061 6.39996,-35.87061c0,0 2.94638,17.1749 11.94803,26.86484c5.66046,6.09328 16.83931,1.3847 18.98236,7.93185z" fill="#4f2373" stroke="#000000" stroke-width="0" stroke-linecap="butt"/><path d="M367.34191,88.66828c9.00164,-9.68994 11.94803,-26.86485 11.94803,-26.86485c0,0 10.6135,21.99711 6.39996,35.87062c-2.77739,9.14485 -19.75768,12.19451 -22.9196,12.19451c-7.95884,0 -17.12878,-4.96474 -14.41075,-13.26843c2.14306,-6.54714 13.3219,-1.83856 18.98236,-7.93184z" fill="#4f2373" stroke="#000000" stroke-width="0" stroke-linecap="butt"/><path d="M276.5,113.66666c0,-0.17198 0.03473,-0.33584 0.09756,-0.48497c-0.42828,-0.12349 -0.78908,-0.40616 -1.01423,-0.7798c-0.30622,0.50821 -0.86342,0.8481 -1.5,0.8481c-0.81289,0 -1.49633,-0.55424 -1.69304,-1.30545c-0.24793,0.66509 -0.8888,1.13878 -1.6403,1.13878c-0.3671,0 -0.7078,-0.11303 -0.9892,-0.3062c-0.32003,0.41434 -0.82176,0.6812 -1.3858,0.6812c-0.9665,0 -1.75,-0.7835 -1.75,-1.75c0,-0.9665 0.7835,-1.75 1.75,-1.75c0.3671,0 0.7078,0.11303 0.9892,0.3062c0.32003,-0.41434 0.82176,-0.6812 1.3858,-0.6812c0.81289,0 1.49633,0.55424 1.69304,1.30545c0.24793,-0.66509 0.8888,-1.13878 1.6403,-1.13878c0.63658,0 1.19378,0.3399 1.5,0.8481c0.30622,-0.50821 0.86342,-0.8481 1.5,-0.8481c0.44821,0 0.85706,0.1685 1.16667,0.4456c0.30961,-0.27711 0.71846,-0.4456 1.16667,-0.4456c0.9665,0 1.75,0.7835 1.75,1.75c0,0.9665 -0.7835,1.75 -1.75,1.75c-0.18048,0 -0.35458,-0.02732 -0.51838,-0.07805c0.06545,0.15172 0.10172,0.31898 0.10172,0.49472c0,0.69036 -0.55964,1.25 -1.25,1.25c-0.69036,0 -1.25,-0.55964 -1.25,-1.25z" fill="#3a1aaf" stroke="none" stroke-width="0.5" stroke-linecap="butt"/><path d="M284.16667,111.33333c0,-0.69036 0.55964,-1.25 1.25,-1.25c0.13671,0 0.2683,0.02195 0.39142,0.06251c0.30183,-0.24739 0.68787,-0.39584 1.10858,-0.39584c0.9665,0 1.75,0.7835 1.75,1.75c0,0.9665 -0.7835,1.75 -1.75,1.75c-0.56007,0 -1.05869,-0.2631 -1.379,-0.67245c-0.03982,0.00382 -0.08018,0.00578 -0.121,0.00578c-0.69036,0 -1.25,-0.55964 -1.25,-1.25z" fill="#3a1aaf" stroke="none" stroke-width="0.5" stroke-linecap="butt"/><path d="M290.5,111.16666c0,-0.9665 0.7835,-1.75 1.75,-1.75c0.9665,0 1.75,0.7835 1.75,1.75c0,0.9665 -0.7835,1.75 -1.75,1.75c-0.9665,0 -1.75,-0.7835 -1.75,-1.75z" fill="#3a1aaf" stroke="none" stroke-width="0.5" stroke-linecap="butt"/><path d="M298.5,110.33333c0,-0.69036 0.55964,-1.25 1.25,-1.25c0.53583,0 0.99291,0.33714 1.17069,0.81087c0.28269,-0.19601 0.62592,-0.31087 0.99598,-0.31087c0.9665,0 1.75,0.7835 1.75,1.75c0,0.9665 -0.7835,1.75 -1.75,1.75c-0.90718,0 -1.65313,-0.69028 -1.74128,-1.57424c-0.13278,0.04805 -0.27602,0.07424 -0.42538,0.07424c-0.69036,0 -1.25,-0.55964 -1.25,-1.25z" fill="#3a1aaf" stroke="none" stroke-width="0.5" stroke-linecap="butt"/><path d="M305.33333,111.66666c0,-0.9665 0.7835,-1.75 1.75,-1.75c0.9665,0 1.75,0.7835 1.75,1.75c0,0.9665 -0.7835,1.75 -1.75,1.75c-0.9665,0 -1.75,-0.7835 -1.75,-1.75z" fill="#3a1aaf" stroke="none" stroke-width="0.5" stroke-linecap="butt"/><path d="M310.16667,113.33333c0,-0.69036 0.55964,-1.25 1.25,-1.25c0.17573,0 0.343,0.03626 0.49472,0.10172c-0.05073,-0.16381 -0.07805,-0.33791 -0.07805,-0.51838c0,-0.9665 0.7835,-1.75 1.75,-1.75c0.9665,0 1.75,0.7835 1.75,1.75c0,0.9665 -0.7835,1.75 -1.75,1.75c-0.34177,0 -0.66067,-0.09798 -0.93012,-0.26737c0.00886,0.06006 0.01345,0.12151 0.01345,0.18404c0,0.69036 -0.55964,1.25 -1.25,1.25c-0.69036,0 -1.25,-0.55964 -1.25,-1.25z" fill="#3a1aaf" stroke="none" stroke-width="0.5" stroke-linecap="butt"/><path d="M319.83333,111.33333c0,-0.9665 0.7835,-1.75 1.75,-1.75c0.9665,0 1.75,0.7835 1.75,1.75c0,0.9665 -0.7835,1.75 -1.75,1.75c-0.9665,0 -1.75,-0.7835 -1.75,-1.75z" fill="#3a1aaf" stroke="none" stroke-width="0.5" stroke-linecap="butt"/><path d="M332.16667,110.89417c0.01648,0.00871 0.03274,0.01778 0.04877,0.02719c0.18524,-0.76771 0.87664,-1.33803 1.70123,-1.33803c0.37181,0 0.71654,0.11595 1,0.31367c0.28346,-0.19772 0.62819,-0.31367 1,-0.31367c0.9665,0 1.75,0.7835 1.75,1.75c0,0.9665 -0.7835,1.75 -1.75,1.75c-0.37181,0 -0.71654,-0.11595 -1,-0.31367c-0.28346,0.19772 -0.62819,0.31367 -1,0.31367c-0.47774,0 -0.91077,-0.19144 -1.22657,-0.50179c-0.20927,0.39746 -0.62637,0.66845 -1.10677,0.66845c-0.39688,0 -0.75056,-0.18496 -0.97954,-0.47339c-0.21095,0.09015 -0.44321,0.14005 -0.68713,0.14005c-0.77985,0 -1.44056,-0.51011 -1.66667,-1.21486c-0.17167,0.53508 -0.59387,0.95796 -1.12854,1.13057c0.02946,0.10641 0.0452,0.21851 0.0452,0.3343c0,0.69036 -0.55964,1.25 -1.25,1.25c-0.69036,0 -1.25,-0.55964 -1.25,-1.25c0,-0.40315 0.19086,-0.76173 0.48715,-0.99031c-0.20186,-0.28528 -0.32048,-0.63363 -0.32048,-1.00969c0,-0.9665 0.7835,-1.75 1.75,-1.75c0.77985,0 1.44056,0.51011 1.66667,1.21486c0.2261,-0.70475 0.88681,-1.21486 1.66667,-1.21486c0.82307,0 1.51343,0.56822 1.7002,1.33377c0.19821,0.00522 0.38493,0.05658 0.5498,0.14373z" fill="#3a1aaf" stroke="none" stroke-width="0.5" stroke-linecap="butt"/><path d="M342.33333,113.5c0,-0.24307 0.06938,-0.46994 0.18942,-0.66188c-0.51263,-0.30518 -0.85609,-0.86487 -0.85609,-1.50478c0,-0.9665 0.7835,-1.75 1.75,-1.75c0.9665,0 1.75,0.7835 1.75,1.75c0,0.5436 -0.24785,1.02931 -0.63672,1.35029c0.18906,0.21902 0.30339,0.50435 0.30339,0.81638c0,0.69036 -0.55964,1.25 -1.25,1.25c-0.69036,0 -1.25,-0.55964 -1.25,-1.25z" fill="#3a1aaf" stroke="none" stroke-width="0.5" stroke-linecap="butt"/><path d="M348.33333,111.16666c0,-0.9665 0.7835,-1.75 1.75,-1.75c0.9665,0 1.75,0.7835 1.75,1.75c0,0.9665 -0.7835,1.75 -1.75,1.75c-0.9665,0 -1.75,-0.7835 -1.75,-1.75z" fill="#3a1aaf" stroke="none" stroke-width="0.5" stroke-linecap="butt"/><path d="M354.83333,112c0,-0.9665 0.7835,-1.75 1.75,-1.75c0.9665,0 1.75,0.7835 1.75,1.75c0,0.9665 -0.7835,1.75 -1.75,1.75c-0.9665,0 -1.75,-0.7835 -1.75,-1.75z" fill="#3a1aaf" stroke="none" stroke-width="0.5" stroke-linecap="butt"/><path d="M361.83333,111c0,-0.9665 0.7835,-1.75 1.75,-1.75c0.9665,0 1.75,0.7835 1.75,1.75c0,0.9665 -0.7835,1.75 -1.75,1.75c-0.9665,0 -1.75,-0.7835 -1.75,-1.75z" fill="#3a1aaf" stroke="none" stroke-width="0.5" stroke-linecap="butt"/><path d="M370.75,110.58333c0.06674,0 0.13261,0.00374 0.19741,0.01101c0.20841,-0.0876 0.43735,-0.13601 0.67759,-0.13601c0.9665,0 1.75,0.7835 1.75,1.75c0,0.9665 -0.7835,1.75 -1.75,1.75c-0.06674,0 -0.13261,-0.00374 -0.19741,-0.01101c-0.20841,0.0876 -0.43735,0.13601 -0.67759,0.13601c-0.95737,0 -1.73519,-0.76878 -1.74979,-1.72267c-0.31808,0.43793 -0.83422,0.72267 -1.41688,0.72267c-0.9665,0 -1.75,-0.7835 -1.75,-1.75c0,-0.9665 0.7835,-1.75 1.75,-1.75c0.95737,0 1.73519,0.76878 1.74979,1.72267c0.31808,-0.43793 0.83422,-0.72267 1.41688,-0.72267z" fill="#3a1aaf" stroke="none" stroke-width="0.5" stroke-linecap="butt"/><path d="M265.91667,118.08333c0.9665,0 1.75,0.7835 1.75,1.75c0,0.9665 -0.7835,1.75 -1.75,1.75c-0.51485,0 -0.97777,-0.22233 -1.29799,-0.57621c-0.29736,0.54207 -0.87344,0.90955 -1.53535,0.90955c-0.9665,0 -1.75,-0.7835 -1.75,-1.75c0,-0.9665 0.7835,-1.75 1.75,-1.75c0.51485,0 0.97777,0.22233 1.29799,0.57621c0.29736,-0.54207 0.87344,-0.90955 1.53535,-0.90955z" fill="#551cba" stroke="none" stroke-width="0.5" stroke-linecap="butt"/><path d="M269.33333,120.66666c0,-0.18078 0.03838,-0.35261 0.10743,-0.50776c-0.37198,-0.32091 -0.60743,-0.79575 -0.60743,-1.32557c0,-0.9665 0.7835,-1.75 1.75,-1.75c0.9665,0 1.75,0.7835 1.75,1.75c0,0.52983 -0.23545,1.00466 -0.60743,1.32557c0.06905,0.15515 0.10743,0.32698 0.10743,0.50776c0,0.69036 -0.55964,1.25 -1.25,1.25c-0.69036,0 -1.25,-0.55964 -1.25,-1.25z" fill="#551cba" stroke="none" stroke-width="0.5" stroke-linecap="butt"/><path d="M276.33333,120.66666c0,0.69036 -0.55964,1.25 -1.25,1.25c-0.23079,0 -0.44697,-0.06254 -0.63251,-0.17161c-0.9046,-0.06773 -1.61749,-0.82314 -1.61749,-1.74506c0,-0.9665 0.7835,-1.75 1.75,-1.75c0.9665,0 1.75,0.7835 1.75,1.75c0,0.12404 -0.0129,0.24506 -0.03744,0.36179c0.02446,0.09758 0.03744,0.19971 0.03744,0.30487z" fill="#551cba" stroke="none" stroke-width="0.5" stroke-linecap="butt"/><path d="M284.08333,118.25c0.9665,0 1.75,0.7835 1.75,1.75c0,0.9665 -0.7835,1.75 -1.75,1.75c-0.44821,0 -0.85706,-0.1685 -1.16667,-0.4456c-0.30961,0.27711 -0.71846,0.4456 -1.16667,0.4456c-0.9665,0 -1.75,-0.7835 -1.75,-1.75c0,-0.9665 0.7835,-1.75 1.75,-1.75c0.44821,0 0.85706,0.1685 1.16667,0.4456c0.30961,-0.27711 0.71846,-0.4456 1.16667,-0.4456z" fill="#551cba" stroke="none" stroke-width="0.5" stroke-linecap="butt"/><path d="M287.33333,119.66666c0,-0.9665 0.7835,-1.75 1.75,-1.75c0.9665,0 1.75,0.7835 1.75,1.75c0,0.9665 -0.7835,1.75 -1.75,1.75c-0.9665,0 -1.75,-0.7835 -1.75,-1.75z" fill="#551cba" stroke="none" stroke-width="0.5" stroke-linecap="butt"/><path d="M295.66667,119.33333c0,-0.9665 0.7835,-1.75 1.75,-1.75c0.9665,0 1.75,0.7835 1.75,1.75c0,0.9665 -0.7835,1.75 -1.75,1.75c-0.9665,0 -1.75,-0.7835 -1.75,-1.75z" fill="#551cba" stroke="none" stroke-width="0.5" stroke-linecap="butt"/><path d="M303,119.83333c0,-0.9665 0.7835,-1.75 1.75,-1.75c0.9665,0 1.75,0.7835 1.75,1.75c0,0.9665 -0.7835,1.75 -1.75,1.75c-0.9665,0 -1.75,-0.7835 -1.75,-1.75z" fill="#551cba" stroke="none" stroke-width="0.5" stroke-linecap="butt"/><path d="M312.25,120.08333c0.69036,0 1.25,0.55964 1.25,1.25c0,0.69036 -0.55964,1.25 -1.25,1.25c-0.66335,0 -1.20602,-0.51672 -1.24746,-1.16962c-0.22796,0.10874 -0.48314,0.16962 -0.75254,0.16962c-0.9665,0 -1.75,-0.7835 -1.75,-1.75c0,-0.9665 0.7835,-1.75 1.75,-1.75c0.9665,0 1.75,0.7835 1.75,1.75c0,0.09521 -0.0076,0.18865 -0.02224,0.27973c0.08764,-0.01947 0.17874,-0.02973 0.27224,-0.02973z" fill="#551cba" stroke="none" stroke-width="0.5" stroke-linecap="butt"/><path d="M318.98852,119.88818c-0.09969,-0.21999 -0.15519,-0.46427 -0.15519,-0.72152c0,-0.9665 0.7835,-1.75 1.75,-1.75c0.9665,0 1.75,0.7835 1.75,1.75c0,0.9665 -0.7835,1.75 -1.75,1.75c-0.36119,0 -0.69682,-0.10942 -0.97556,-0.29693c0.03825,0.11991 0.05889,0.24767 0.05889,0.38026c0,0.69036 -0.55964,1.25 -1.25,1.25c-0.56756,0 -1.04678,-0.37826 -1.1993,-0.89644c-0.14878,0.04113 -0.30551,0.0631 -0.46737,0.0631c-0.9665,0 -1.75,-0.7835 -1.75,-1.75c0,-0.9665 0.7835,-1.75 1.75,-1.75c0.9665,0 1.75,0.7835 1.75,1.75c0,0.02881 -0.0007,0.05746 -0.00207,0.08593c0.17592,0.01129 0.34193,0.05897 0.4906,0.13559z" fill="#551cba" stroke="none" stroke-width="0.5" stroke-linecap="butt"/><path d="M329,119.66666c0,0.9665 -0.7835,1.75 -1.75,1.75c-0.48525,0 -0.92438,-0.1975 -1.24137,-0.51651c-0.85228,-0.11758 -1.50863,-0.84888 -1.50863,-1.73349c0,-0.9665 0.7835,-1.75 1.75,-1.75c0.48525,0 0.92438,0.1975 1.24137,0.51651c0.85228,0.11758 1.50863,0.84888 1.50863,1.73349z" fill="#551cba" stroke="none" stroke-width="0.5" stroke-linecap="butt"/><path d="M331,119.66666c0,-0.9665 0.7835,-1.75 1.75,-1.75c0.9665,0 1.75,0.7835 1.75,1.75c0,0.9665 -0.7835,1.75 -1.75,1.75c-0.9665,0 -1.75,-0.7835 -1.75,-1.75z" fill="#551cba" stroke="none" stroke-width="0.5" stroke-linecap="butt"/><path d="M337.16667,119.33333c0,-0.9665 0.7835,-1.75 1.75,-1.75c0.9665,0 1.75,0.7835 1.75,1.75c0,0.9665 -0.7835,1.75 -1.75,1.75c-0.9665,0 -1.75,-0.7835 -1.75,-1.75z" fill="#551cba" stroke="none" stroke-width="0.5" stroke-linecap="butt"/><path d="M345.16667,119.33333c0,-0.9665 0.7835,-1.75 1.75,-1.75c0.9665,0 1.75,0.7835 1.75,1.75c0,0.9665 -0.7835,1.75 -1.75,1.75c-0.9665,0 -1.75,-0.7835 -1.75,-1.75z" fill="#551cba" stroke="none" stroke-width="0.5" stroke-linecap="butt"/><path d="M350,119.5c0,-0.9665 0.7835,-1.75 1.75,-1.75c0.9665,0 1.75,0.7835 1.75,1.75c0,0.9665 -0.7835,1.75 -1.75,1.75c-0.9665,0 -1.75,-0.7835 -1.75,-1.75z" fill="#551cba" stroke="none" stroke-width="0.5" stroke-linecap="butt"/><path d="M357,120.5c0,-0.9665 0.7835,-1.75 1.75,-1.75c0.9665,0 1.75,0.7835 1.75,1.75c0,0.9665 -0.7835,1.75 -1.75,1.75c-0.9665,0 -1.75,-0.7835 -1.75,-1.75z" fill="#551cba" stroke="none" stroke-width="0.5" stroke-linecap="butt"/><path d="M361.66667,121.83333c0,-0.18018 0.03812,-0.35146 0.10674,-0.50621c-0.27382,-0.30886 -0.44008,-0.71524 -0.44008,-1.16046c0,-0.9665 0.7835,-1.75 1.75,-1.75c0.9665,0 1.75,0.7835 1.75,1.75c0,0.57066 -0.27315,1.07753 -0.69583,1.39699c0.0191,0.08685 0.02917,0.17709 0.02917,0.26968c0,0.69036 -0.55964,1.25 -1.25,1.25c-0.69036,0 -1.25,-0.55964 -1.25,-1.25z" fill="#551cba" stroke="none" stroke-width="0.5" stroke-linecap="butt"/><path d="M367,120c0,-0.9665 0.7835,-1.75 1.75,-1.75c0.9665,0 1.75,0.7835 1.75,1.75c0,0.9665 -0.7835,1.75 -1.75,1.75c-0.9665,0 -1.75,-0.7835 -1.75,-1.75z" fill="#551cba" stroke="none" stroke-width="0.5" stroke-linecap="butt"/><path d="M375.75,117.91666c0.9665,0 1.75,0.7835 1.75,1.75c0,0.9665 -0.7835,1.75 -1.75,1.75c-0.42551,0 -0.81555,-0.15186 -1.11887,-0.40435c-0.25878,0.1511 -0.55984,0.23768 -0.88113,0.23768c-0.9665,0 -1.75,-0.7835 -1.75,-1.75c0,-0.9665 0.7835,-1.75 1.75,-1.75c0.42551,0 0.81555,0.15186 1.11887,0.40435c0.25878,-0.1511 0.55984,-0.23768 0.88113,-0.23768z" fill="#551cba" stroke="none" stroke-width="0.5" stroke-linecap="butt"/><path d="M262.25,123.91666c0.9665,0 1.75,0.7835 1.75,1.75c0,0.9665 -0.7835,1.75 -1.75,1.75c-0.32128,0 -0.62235,-0.08658 -0.88113,-0.23768c-0.30333,0.25248 -0.69336,0.40435 -1.11887,0.40435c-0.9665,0 -1.75,-0.7835 -1.75,-1.75c0,-0.9665 0.7835,-1.75 1.75,-1.75c0.32128,0 0.62235,0.08658 0.88113,0.23768c0.30333,-0.25248 0.69336,-0.40435 1.11887,-0.40435z" fill="#7822e0" stroke="none" stroke-width="0.5" stroke-linecap="butt"/><path d="M376.33333,127.5c0,-0.11005 0.01422,-0.21679 0.04093,-0.31846c-0.31995,0.34938 -0.77985,0.56846 -1.29093,0.56846c-0.05621,0 -0.11181,-0.00265 -0.16667,-0.00783c-0.05486,0.00518 -0.11045,0.00783 -0.16667,0.00783c-0.9665,0 -1.75,-0.7835 -1.75,-1.75c0,-0.9665 0.7835,-1.75 1.75,-1.75c0.05621,0 0.11181,0.00265 0.16667,0.00783c0.05486,-0.00518 0.11045,-0.00783 0.16667,-0.00783c0.9665,0 1.75,0.7835 1.75,1.75c0,0.2044 -0.03504,0.40062 -0.09945,0.58297c0.165,-0.15292 0.37135,-0.26185 0.60041,-0.30816c0.03087,-0.93941 0.80213,-1.69148 1.74904,-1.69148c0.9665,0 1.75,0.7835 1.75,1.75c0,0.9665 -0.7835,1.75 -1.75,1.75c-0.12834,0 -0.25345,-0.01381 -0.37392,-0.04004c-0.20215,0.41822 -0.63042,0.7067 -1.12608,0.7067c-0.69036,0 -1.25,-0.55964 -1.25,-1.25z" fill="#7822e0" stroke="none" stroke-width="0.5" stroke-linecap="butt"/><path d="M367,126c0,-0.9665 0.7835,-1.75 1.75,-1.75c0.38411,0 0.73931,0.12375 1.02791,0.33355c0.26826,0.0042 0.52187,0.06875 0.74784,0.18068c0.07342,-0.00939 0.14827,-0.01423 0.22425,-0.01423c0.9665,0 1.75,0.7835 1.75,1.75c0,0.9665 -0.7835,1.75 -1.75,1.75c-0.27858,0 -0.54196,-0.06509 -0.77575,-0.1809c-0.07342,0.00939 -0.14827,0.01423 -0.22425,0.01423c-0.38411,0 -0.73931,-0.12375 -1.02791,-0.33355c-0.95362,-0.01491 -1.72209,-0.79261 -1.72209,-1.74978z" fill="#7822e0" stroke="none" stroke-width="0.5" stroke-linecap="butt"/><path d="M365.08333,123.75c0.9665,0 1.75,0.7835 1.75,1.75c0,0.9665 -0.7835,1.75 -1.75,1.75c-0.54757,0 -1.03641,-0.25149 -1.3573,-0.64527c-0.24618,0.66849 -0.88876,1.14527 -1.6427,1.14527c-0.9665,0 -1.75,-0.7835 -1.75,-1.75c0,-0.9665 0.7835,-1.75 1.75,-1.75c0.54757,0 1.03641,0.25149 1.3573,0.64527c0.24618,-0.66849 0.88876,-1.14527 1.6427,-1.14527z" fill="#7822e0" stroke="none" stroke-width="0.5" stroke-linecap="butt"/><path d="M324.5,125.66666c0,-0.9665 0.7835,-1.75 1.75,-1.75c0.72824,0 1.35259,0.44483 1.61616,1.07759c0.1579,-0.80422 0.86668,-1.41093 1.71718,-1.41093c0.9665,0 1.75,0.7835 1.75,1.75c0,0.9665 -0.7835,1.75 -1.75,1.75c-0.72824,0 -1.35259,-0.44483 -1.61616,-1.07759c-0.1579,0.80422 -0.86668,1.41093 -1.71718,1.41093c-0.9665,0 -1.75,-0.7835 -1.75,-1.75z" fill="#7822e0" stroke="none" stroke-width="0.5" stroke-linecap="butt"/><path d="M322.66667,125.16666c0,0.9665 -0.7835,1.75 -1.75,1.75c-0.56823,0 -1.07321,-0.27082 -1.39289,-0.69044c-0.41961,-0.31969 -0.69044,-0.82466 -0.69044,-1.39289c0,-0.9665 0.7835,-1.75 1.75,-1.75c0.56823,0 1.07321,0.27082 1.39289,0.69044c0.41961,0.31969 0.69044,0.82466 0.69044,1.39289z" fill="#7822e0" stroke="none" stroke-width="0.5" stroke-linecap="butt"/><path d="M313.08333,127.58333c-0.61514,0 -1.1265,-0.44434 -1.23063,-1.02957c-0.03679,-0.0487 -0.07108,-0.09939 -0.10271,-0.15187c-0.30622,0.50821 -0.86342,0.8481 -1.5,0.8481c-0.9665,0 -1.75,-0.7835 -1.75,-1.75c0,-0.9665 0.7835,-1.75 1.75,-1.75c0.61868,0 1.16238,0.32105 1.47358,0.80564c0.19664,-0.7513 0.88013,-1.30564 1.69309,-1.30564c0.9665,0 1.75,0.7835 1.75,1.75c0,0.28724 -0.0692,0.55831 -0.19185,0.79746c-0.08858,0.51729 -0.4042,0.95705 -0.84064,1.21307c-0.22256,0.34465 -0.61006,0.5728 -1.05084,0.5728z" fill="#7822e0" stroke="none" stroke-width="0.5" stroke-linecap="butt"/><path d="M264,125.5c0,-0.9665 0.7835,-1.75 1.75,-1.75c0.9665,0 1.75,0.7835 1.75,1.75c0,0.9665 -0.7835,1.75 -1.75,1.75c-0.9665,0 -1.75,-0.7835 -1.75,-1.75z" fill="#7822e0" stroke="none" stroke-width="0.5" stroke-linecap="butt"/><path d="M269,126.83333c0,-0.61208 0.43993,-1.12142 1.02085,-1.22904c-0.01373,-0.08831 -0.02085,-0.1788 -0.02085,-0.27096c0,-0.9384 0.73861,-1.70429 1.66618,-1.74803c0.22744,-0.10813 0.4819,-0.16864 0.75049,-0.16864c0.4395,0 0.84117,0.16202 1.14852,0.42959c0.19651,0.08217 0.36756,0.21307 0.49806,0.37761c0.32094,-0.39105 0.80805,-0.64053 1.35342,-0.64053c0.9665,0 1.75,0.7835 1.75,1.75c0,0.9665 -0.7835,1.75 -1.75,1.75c-0.67289,0 -1.25708,-0.37978 -1.54992,-0.93668c-0.29997,0.443 -0.7976,0.74122 -1.36626,0.76804c-0.22744,0.10813 -0.4819,0.16864 -0.75049,0.16864c-0.09216,0 -0.18265,-0.00712 -0.27096,-0.02085c-0.10763,0.58092 -0.61696,1.02085 -1.22904,1.02085c-0.69036,0 -1.25,-0.55964 -1.25,-1.25z" fill="#7822e0" stroke="none" stroke-width="0.5" stroke-linecap="butt"/><path d="M268.99199,145.1812c0,-12.96801 10.51265,-23.48065 23.48066,-23.48065c12.96801,0 23.48065,10.51264 23.48065,23.48065c0,12.96801 -10.51264,23.48066 -23.48065,23.48066c-12.96801,0 -23.48066,-10.51265 -23.48066,-23.48066z" fill="url(#color-1)" stroke="#000000" stroke-width="0" stroke-linecap="butt"/><path d="M346.73111,168.66188c-12.96801,0 -23.48065,-10.51265 -23.48065,-23.48066c0,-12.96801 10.51264,-23.48065 23.48065,-23.48065c12.96801,0 23.48066,10.51264 23.48066,23.48065c0,12.96801 -10.51265,23.48066 -23.48066,23.48066z" fill="url(#color-2)" stroke="#000000" stroke-width="0" stroke-linecap="butt"/><path d="M272,115.83333c0,-0.69036 0.55964,-1.25 1.25,-1.25c0.69036,0 1.25,0.55964 1.25,1.25c0,0.69036 -0.55964,1.25 -1.25,1.25c-0.69036,0 -1.25,-0.55964 -1.25,-1.25z" fill="#3a1aaf" stroke="none" stroke-width="0.5" stroke-linecap="butt"/><path d="M289.5,115.33333c0,-0.69036 0.55964,-1.25 1.25,-1.25c0.69036,0 1.25,0.55964 1.25,1.25c0,0.69036 -0.55964,1.25 -1.25,1.25c-0.69036,0 -1.25,-0.55964 -1.25,-1.25z" fill="#3a1aaf" stroke="none" stroke-width="0.5" stroke-linecap="butt"/><path d="M294.33333,113.5c0,-0.69036 0.55964,-1.25 1.25,-1.25c0.69036,0 1.25,0.55964 1.25,1.25c0,0.69036 -0.55964,1.25 -1.25,1.25c-0.69036,0 -1.25,-0.55964 -1.25,-1.25z" fill="#3a1aaf" stroke="none" stroke-width="0.5" stroke-linecap="butt"/><path d="M317.16667,118c0,-0.05113 0.00512,-0.10106 0.01486,-0.14931c-0.49325,-0.16733 -0.8482,-0.63422 -0.8482,-1.18402c0,-0.69036 0.55964,-1.25 1.25,-1.25c0.69036,0 1.25,0.55964 1.25,1.25c0,0.33095 -0.12861,0.63186 -0.33858,0.85547c0.10738,0.12976 0.17192,0.29627 0.17192,0.47786c0,0.41421 -0.33579,0.75 -0.75,0.75c-0.41421,0 -0.75,-0.33579 -0.75,-0.75z" fill="#3a1aaf" stroke="none" stroke-width="0.5" stroke-linecap="butt"/><path d="M319,116c0,-0.69036 0.55964,-1.25 1.25,-1.25c0.69036,0 1.25,0.55964 1.25,1.25c0,0.69036 -0.55964,1.25 -1.25,1.25c-0.69036,0 -1.25,-0.55964 -1.25,-1.25z" fill="#3a1aaf" stroke="none" stroke-width="0.5" stroke-linecap="butt"/><path d="M353.5,115.66666c0,-0.69036 0.55964,-1.25 1.25,-1.25c0.69036,0 1.25,0.55964 1.25,1.25c0,0.69036 -0.55964,1.25 -1.25,1.25c-0.69036,0 -1.25,-0.55964 -1.25,-1.25z" fill="#3a1aaf" stroke="none" stroke-width="0.5" stroke-linecap="butt"/><path d="M359.83333,116c0,-0.69036 0.55964,-1.25 1.25,-1.25c0.69036,0 1.25,0.55964 1.25,1.25c0,0.69036 -0.55964,1.25 -1.25,1.25c-0.69036,0 -1.25,-0.55964 -1.25,-1.25z" fill="#3a1aaf" stroke="none" stroke-width="0.5" stroke-linecap="butt"/><path d="M363.83333,114.16666c0,-0.69036 0.55964,-1.25 1.25,-1.25c0.69036,0 1.25,0.55964 1.25,1.25c0,0.69036 -0.55964,1.25 -1.25,1.25c-0.69036,0 -1.25,-0.55964 -1.25,-1.25z" fill="#3a1aaf" stroke="none" stroke-width="0.5" stroke-linecap="butt"/><path d="M263.83333,124.83333c0,-0.41421 0.33579,-0.75 0.75,-0.75c0.03736,0 0.07409,0.00273 0.10999,0.00801c-0.01747,-0.08326 -0.02666,-0.16956 -0.02666,-0.25801c0,-0.69036 0.55964,-1.25 1.25,-1.25c0.69036,0 1.25,0.55964 1.25,1.25c0,0.69036 -0.55964,1.25 -1.25,1.25c-0.21347,0 -0.41444,-0.05351 -0.59023,-0.14785c-0.04983,0.36589 -0.36354,0.64785 -0.7431,0.64785c-0.41421,0 -0.75,-0.33579 -0.75,-0.75z" fill="#551cba" stroke="none" stroke-width="0.5" stroke-linecap="butt"/><path d="M277.66667,122.83333c0,-0.69036 0.55964,-1.25 1.25,-1.25c0.69036,0 1.25,0.55964 1.25,1.25c0,0.69036 -0.55964,1.25 -1.25,1.25c-0.69036,0 -1.25,-0.55964 -1.25,-1.25z" fill="#551cba" stroke="none" stroke-width="0.5" stroke-linecap="butt"/><path d="M308,123.33333c0,-0.69036 0.55964,-1.25 1.25,-1.25c0.69036,0 1.25,0.55964 1.25,1.25c0,0.69036 -0.55964,1.25 -1.25,1.25c-0.69036,0 -1.25,-0.55964 -1.25,-1.25z" fill="#551cba" stroke="none" stroke-width="0.5" stroke-linecap="butt"/><path d="M322.83333,124c0,-0.05516 0.00596,-0.10893 0.01726,-0.1607c-0.13517,0.05004 -0.28136,0.07737 -0.43392,0.07737c-0.69036,0 -1.25,-0.55964 -1.25,-1.25c0,-0.69036 0.55964,-1.25 1.25,-1.25c0.69036,0 1.25,0.55964 1.25,1.25c0,0.21171 -0.05263,0.41112 -0.14552,0.58587c0.02051,-0.00168 0.04125,-0.00254 0.06219,-0.00254c0.0901,0 0.17648,0.01589 0.25651,0.04501c-0.0043,-0.0422 -0.00651,-0.08501 -0.00651,-0.12834c0,-0.69036 0.55964,-1.25 1.25,-1.25c0.69036,0 1.25,0.55964 1.25,1.25c0,0.69036 -0.55964,1.25 -1.25,1.25c-0.28861,0 -0.55437,-0.09781 -0.76595,-0.26209c-0.07125,0.34005 -0.37283,0.59542 -0.73405,0.59542c-0.41421,0 -0.75,-0.33579 -0.75,-0.75z" fill="#551cba" stroke="none" stroke-width="0.5" stroke-linecap="butt"/><path d="M328.5,122.33333c0,-0.69036 0.55964,-1.25 1.25,-1.25c0.69036,0 1.25,0.55964 1.25,1.25c0,0.69036 -0.55964,1.25 -1.25,1.25c-0.69036,0 -1.25,-0.55964 -1.25,-1.25z" fill="#551cba" stroke="none" stroke-width="0.5" stroke-linecap="butt"/><path d="M364.5,122.83333c0,-0.69036 0.55964,-1.25 1.25,-1.25c0.69036,0 1.25,0.55964 1.25,1.25c0,0.69036 -0.55964,1.25 -1.25,1.25c-0.69036,0 -1.25,-0.55964 -1.25,-1.25z" fill="#551cba" stroke="none" stroke-width="0.5" stroke-linecap="butt"/><path d="M369.66667,126.16666c0,-0.12727 0.0317,-0.24714 0.08764,-0.35214c-0.44377,-0.1919 -0.75431,-0.63362 -0.75431,-1.14786c0,-0.69036 0.55964,-1.25 1.25,-1.25c0.69036,0 1.25,0.55964 1.25,1.25c0,0.41551 -0.20274,0.78367 -0.51469,1.01096c0.11303,0.13131 0.18135,0.3022 0.18135,0.48904c0,0.41421 -0.33579,0.75 -0.75,0.75c-0.41421,0 -0.75,-0.33579 -0.75,-0.75z" fill="#551cba" stroke="none" stroke-width="0.5" stroke-linecap="butt"/><path d="M372.66667,123.33333c0,-0.69036 0.55964,-1.25 1.25,-1.25c0.69036,0 1.25,0.55964 1.25,1.25c0,0.69036 -0.55964,1.25 -1.25,1.25c-0.69036,0 -1.25,-0.55964 -1.25,-1.25z" fill="#551cba" stroke="none" stroke-width="0.5" stroke-linecap="butt"/><path d="M262.83333,131.5c0,-0.69036 0.55964,-1.25 1.25,-1.25c0.69036,0 1.25,0.55964 1.25,1.25c0,0.69036 -0.55964,1.25 -1.25,1.25c-0.69036,0 -1.25,-0.55964 -1.25,-1.25z" fill="#7822e0" stroke="none" stroke-width="0.5" stroke-linecap="butt"/><path d="M318.16667,127.66666c0,0.69036 -0.55964,1.25 -1.25,1.25c-0.62801,0 -1.14786,-0.46313 -1.23662,-1.06649c-0.49247,-0.16776 -0.84671,-0.63427 -0.84671,-1.18351c0,-0.69036 0.55964,-1.25 1.25,-1.25c0.62801,0 1.14786,0.46313 1.23662,1.06649c0.49247,0.16776 0.84671,0.63427 0.84671,1.18351z" fill="#7822e0" stroke="none" stroke-width="0.5" stroke-linecap="butt"/><path d="M318.66667,129.5c0,-0.69036 0.55964,-1.25 1.25,-1.25c0.69036,0 1.25,0.55964 1.25,1.25c0,0.69036 -0.55964,1.25 -1.25,1.25c-0.69036,0 -1.25,-0.55964 -1.25,-1.25z" fill="#7822e0" stroke="none" stroke-width="0.5" stroke-linecap="butt"/><path d="M367.5,129.16666c0,-0.69036 0.55964,-1.25 1.25,-1.25c0.69036,0 1.25,0.55964 1.25,1.25c0,0.69036 -0.55964,1.25 -1.25,1.25c-0.69036,0 -1.25,-0.55964 -1.25,-1.25z" fill="#7822e0" stroke="none" stroke-width="0.5" stroke-linecap="butt"/><path d="M372.33333,129.66666c0,-0.69036 0.55964,-1.25 1.25,-1.25c0.69036,0 1.25,0.55964 1.25,1.25c0,0.69036 -0.55964,1.25 -1.25,1.25c-0.69036,0 -1.25,-0.55964 -1.25,-1.25z" fill="#7822e0" stroke="none" stroke-width="0.5" stroke-linecap="butt"/><path d="M276.5,117.16666c0,-0.41421 0.33579,-0.75 0.75,-0.75c0.41421,0 0.75,0.33579 0.75,0.75c0,0.41421 -0.33579,0.75 -0.75,0.75c-0.41421,0 -0.75,-0.33579 -0.75,-0.75z" fill="#3a1aaf" stroke="none" stroke-width="0.5" stroke-linecap="butt"/><path d="M292.5,117.66666c0,-0.41421 0.33579,-0.75 0.75,-0.75c0.41421,0 0.75,0.33579 0.75,0.75c0,0.41421 -0.33579,0.75 -0.75,0.75c-0.41421,0 -0.75,-0.33579 -0.75,-0.75z" fill="#3a1aaf" stroke="none" stroke-width="0.5" stroke-linecap="butt"/><path d="M357.66667,117.66666c0,-0.41421 0.33579,-0.75 0.75,-0.75c0.41421,0 0.75,0.33579 0.75,0.75c0,0.41421 -0.33579,0.75 -0.75,0.75c-0.41421,0 -0.75,-0.33579 -0.75,-0.75z" fill="#3a1aaf" stroke="none" stroke-width="0.5" stroke-linecap="butt"/><path d="M361.83333,118.5c0,-0.41421 0.33579,-0.75 0.75,-0.75c0.41421,0 0.75,0.33579 0.75,0.75c0,0.41421 -0.33579,0.75 -0.75,0.75c-0.41421,0 -0.75,-0.33579 -0.75,-0.75z" fill="#3a1aaf" stroke="none" stroke-width="0.5" stroke-linecap="butt"/><path d="M309.66667,125.33333c0,-0.41421 0.33579,-0.75 0.75,-0.75c0.41421,0 0.75,0.33579 0.75,0.75c0,0.41421 -0.33579,0.75 -0.75,0.75c-0.41421,0 -0.75,-0.33579 -0.75,-0.75z" fill="#551cba" stroke="none" stroke-width="0.5" stroke-linecap="butt"/><path d="M328.83333,125.16666c0,-0.41421 0.33579,-0.75 0.75,-0.75c0.41421,0 0.75,0.33579 0.75,0.75c0,0.41421 -0.33579,0.75 -0.75,0.75c-0.41421,0 -0.75,-0.33579 -0.75,-0.75z" fill="#551cba" stroke="none" stroke-width="0.5" stroke-linecap="butt"/><path d="M265.16667,135.33333c0,-0.41421 0.33579,-0.75 0.75,-0.75c0.41421,0 0.75,0.33579 0.75,0.75c0,0.41421 -0.33579,0.75 -0.75,0.75c-0.41421,0 -0.75,-0.33579 -0.75,-0.75z" fill="#7822e0" stroke="none" stroke-width="0.5" stroke-linecap="butt"/><path d="M318,132c0,-0.41421 0.33579,-0.75 0.75,-0.75c0.41421,0 0.75,0.33579 0.75,0.75c0,0.41421 -0.33579,0.75 -0.75,0.75c-0.41421,0 -0.75,-0.33579 -0.75,-0.75z" fill="#7822e0" stroke="none" stroke-width="0.5" stroke-linecap="butt"/><path d="M371.5,132.16666c0,-0.41421 0.33579,-0.75 0.75,-0.75c0.41421,0 0.75,0.33579 0.75,0.75c0,0.41421 -0.33579,0.75 -0.75,0.75c-0.41421,0 -0.75,-0.33579 -0.75,-0.75z" fill="#7822e0" stroke="none" stroke-width="0.5" stroke-linecap="butt"/></g><path d="M295.93583,195.02636h47.21991" fill="none" stroke="#000000" stroke-width="2" stroke-linecap="round"/><g stroke="none" stroke-width="0" stroke-linecap="butt"><path d="M303.26614,208.93176c0,10.18977 -8.40164,18.45022 -18.7656,18.45022c-10.36396,0 -18.7656,-8.26045 -18.7656,-18.45022c0,-10.18977 0.34992,-19.29573 18.7656,-18.45022c29.25424,1.34314 18.7656,8.26044 18.7656,18.45022z" fill="#751cbd"/><path d="M354.92671,190.48155c18.41568,-0.84551 18.7656,8.26044 18.7656,18.45022c0,10.18977 -8.40164,18.45022 -18.7656,18.45022c-10.36396,0 -18.7656,-8.26045 -18.7656,-18.45022c0,-10.18977 -10.48863,-17.10708 18.7656,-18.45022z" fill="#751cbd"/><path d="M303.26614,209.56254c0,10.18977 -8.40164,18.45022 -18.7656,18.45022c-10.36396,0 -18.7656,-8.26045 -18.7656,-18.45022c0,-10.18977 0.34992,-19.29573 18.7656,-18.45022c29.25424,1.34314 18.7656,8.26044 18.7656,18.45022z" fill="#8b21e0"/><path d="M354.92671,191.11232c18.41568,-0.84551 18.7656,8.26044 18.7656,18.45022c0,10.18977 -8.40164,18.45022 -18.7656,18.45022c-10.36396,0 -18.7656,-8.26045 -18.7656,-18.45022c0,-10.18977 -10.48863,-17.10708 18.7656,-18.45022z" fill="#8b21e0"/></g><path d="M348.09345,227.09344c-0.17678,0.17677 -0.35355,0 -0.35355,0l-0.30273,-0.3073c-0.18961,-0.09309 -0.38215,-0.18574 -0.57705,-0.27765c0.1706,0.17506 0.34622,0.36109 0.52428,0.55569l0.04239,0.00904c0.96745,0.96746 2.14938,2.03589 2.65974,3.30561c0.27002,0.23032 0.50572,0.4617 0.68142,0.69992l0.06432,0.31487c0,0 0.01712,0.18501 -0.13765,0.2508c0.36897,0.41782 0.74899,0.77747 1.13564,1.02777c0.98203,1.09903 2.08443,2.12612 2.90511,3.35515l0.10286,-0.01127c0,0 0.23392,0.08822 0.14569,0.32214c-0.08823,0.23391 -0.32214,0.14569 -0.32214,0.14569l-0.34243,-0.17921c-0.79498,-1.19449 -1.87315,-2.18077 -2.81754,-3.25553c-0.98239,-0.67187 -1.89968,-1.9514 -2.72124,-3.14018c-1.23839,-0.94227 -2.59489,-1.9086 -2.61389,-3.49232c0,0 0,-0.11726 0.0803,-0.19117c-0.91474,-0.41318 -1.86679,-0.80319 -2.80088,-1.13837c-0.14632,-0.03607 -0.29417,-0.06982 -0.44388,-0.10066l-0.36401,-0.17953c0,0 -0.01018,-0.00508 -0.0251,-0.01526c-0.04132,-0.02615 -0.09259,-0.07164 -0.11016,-0.14272c-0.01263,-0.04442 -0.01185,-0.09821 0.01591,-0.16137c0.02504,-0.06429 0.06252,-0.10288 0.10286,-0.12536c0.06268,-0.03784 0.1311,-0.03376 0.17881,-0.02302c0.01774,0.00336 0.02853,0.00696 0.02853,0.00696c0.23451,0.07916 0.47118,0.1615 0.70909,0.24678c0.04289,0.00993 0.08564,0.02009 0.12826,0.03048c-0.01349,-0.06248 -0.00371,-0.13967 0.07349,-0.21686c0.17678,-0.17677 0.35355,0 0.35355,0c0.23489,0.23489 0.50902,0.42083 0.80814,0.57409c1.04522,0.33607 2.064,0.71102 3.21276,0.85461c0,0 0.24807,0.03101 0.21706,0.27908c-0.03101,0.24807 -0.27908,0.21706 -0.27908,0.21706c-0.02155,-0.00269 -0.04306,-0.00547 -0.06453,-0.00831c-0.05012,0.01273 -0.09116,0.00943 -0.09116,0.00943l-0.31369,-0.02594c0.04905,0.02457 0.09791,0.04922 0.14657,0.07394l0.36393,0.35936c0,0 0.17678,0.17678 0,0.35356zM347.70697,228.38936c-0.18253,-0.24018 -0.40901,-0.44565 -0.62511,-0.65315c0.21793,0.33132 0.50671,0.6382 0.82981,0.92888c-0.06916,-0.09509 -0.1374,-0.18718 -0.2047,-0.27573z" fill="#751cbd" stroke="none" stroke-width="0.5" stroke-linecap="butt"/><path d="M272.52055,222.57308l0.13421,0.13935c0.07632,0.05354 0.15079,0.10324 0.22447,0.1497c1.01875,0.17851 2.15312,0.11299 3.06294,0.49132l0.23508,-0.02012c0,0 0.25,0 0.25,0.25c0,0.25 -0.25,0.25 -0.25,0.25l-0.4316,-0.02012c-0.53053,-0.23456 -1.10969,-0.31854 -1.69559,-0.37737c0.02431,0.03039 0.04332,0.06951 0.04664,0.11884c1.46053,0.4725 2.98794,0.67155 4.77199,0.91763c1.41433,0.19508 2.88054,0.52942 4.30856,0.52768h0.33333c0,0 0.25,0 0.25,0.25c0,0.25 -0.25,0.25 -0.25,0.25h-0.33333c-1.45266,-0.00165 -2.93821,-0.33393 -4.37687,-0.53237c-2.61728,-0.36101 -4.71009,-0.63846 -6.8286,-1.77376c-0.18029,-0.08838 -0.37074,-0.19873 -0.56191,-0.32129c-0.29136,-0.17723 -0.58411,-0.37212 -0.87967,-0.58707c0,0 -0.0677,-0.04924 -0.09626,-0.12991c-0.09089,-0.07506 -0.17678,-0.14852 -0.25606,-0.2187l-0.00063,0.0631c0,0 -0.25,0 -0.25,-0.25c0,-0.25 0.25,-0.25 0.25,-0.25l0.3327,0.0631c0.14339,0.12786 0.322,0.27914 0.5167,0.43277c0.09325,0.0099 0.16071,0.07736 0.16071,0.07736c0.10195,0.10348 0.2101,0.19422 0.32357,0.27399c0.08858,0.05587 0.17699,0.10999 0.26526,0.16245c0.10676,0.0567 0.21714,0.10592 0.33054,0.14889c0.01232,-0.02789 0.03165,-0.05653 0.06025,-0.08519c0.17663,-0.17692 0.35356,-0.00029 0.35356,-0.00029z" fill="#751cbd" stroke="none" stroke-width="0.5" stroke-linecap="butt"/><path d="M291.3338,226.73989l0.36394,-0.35936c0.04866,-0.02472 0.09752,-0.04937 0.14657,-0.07394l-0.31369,0.02594c0,0 -0.04104,0.0033 -0.09116,-0.00943c-0.02147,0.00285 -0.04298,0.00562 -0.06454,0.00831c0,0 -0.24807,0.03101 -0.27908,-0.21706c-0.03101,-0.24807 0.21706,-0.27908 0.21706,-0.27908c1.14875,-0.1436 2.16754,-0.51854 3.21276,-0.85461c0.29912,-0.15326 0.57325,-0.3392 0.80814,-0.57409c0,0 0.17678,-0.17677 0.35356,0c0.0772,0.07719 0.08697,0.15439 0.07349,0.21686c0.04262,-0.01039 0.08536,-0.02055 0.12825,-0.03048c0.23791,-0.08528 0.47458,-0.16762 0.70909,-0.24678c0,0 0.01079,-0.0036 0.02854,-0.00696c0.04771,-0.01074 0.11613,-0.01481 0.17881,0.02302c0.04034,0.02248 0.07782,0.06107 0.10286,0.12536c0.02776,0.06316 0.02854,0.11695 0.01591,0.16137c-0.01757,0.07108 -0.06884,0.11657 -0.11016,0.14272c-0.01492,0.01018 -0.0251,0.01526 -0.0251,0.01526l-0.364,0.17953c-0.14972,0.03084 -0.29756,0.06459 -0.44389,0.10066c-0.9341,0.33518 -1.88614,0.72519 -2.80088,1.13837c0.08031,0.0739 0.08031,0.19117 0.08031,0.19117c-0.019,1.58372 -1.3755,2.55005 -2.61389,3.49232c-0.82156,1.18877 -1.73885,2.4683 -2.72124,3.14018c-0.9444,1.07476 -2.02256,2.06103 -2.81754,3.25553l-0.34244,0.17921c0,0 -0.23391,0.08822 -0.32214,-0.14569c-0.08823,-0.23391 0.14569,-0.32214 0.14569,-0.32214l0.10286,0.01127c0.82067,-1.22904 1.92307,-2.25612 2.90511,-3.35515c0.38664,-0.2503 0.76666,-0.60994 1.13563,-1.02777c-0.15477,-0.06579 -0.13765,-0.2508 -0.13765,-0.2508l0.06432,-0.31487c0.1757,-0.23822 0.41141,-0.4696 0.68143,-0.69992c0.51036,-1.26972 1.69229,-2.33816 2.65974,-3.30561l0.04239,-0.00904c0.17806,-0.19459 0.35368,-0.38062 0.52427,-0.55569c-0.1949,0.0919 -0.38744,0.18456 -0.57705,0.27765l-0.30273,0.3073c0,0 -0.17678,0.17677 -0.35356,0c-0.17678,-0.17677 0,-0.35356 0,-0.35356zM291.51558,228.6651c0.3231,-0.29068 0.61188,-0.59756 0.82981,-0.92888c-0.2161,0.20749 -0.44258,0.41296 -0.62511,0.65315c-0.0673,0.08856 -0.13554,0.18065 -0.2047,0.27573z" fill="#751cbd" stroke="none" stroke-width="0.5" stroke-linecap="butt"/><path d="M281.58187,141.23419c0,-5.76641 4.6746,-10.44102 10.44101,-10.44102c5.76641,0 10.44101,4.6746 10.44101,10.44102c0,5.76641 -4.6746,10.44102 -10.44101,10.44102c-5.76641,0 -10.44101,-4.6746 -10.44101,-10.44102z" fill="#000000" stroke="#000000" stroke-width="0" stroke-linecap="butt"/><path d="M355.50385,141.48902c0,5.50793 -4.46504,9.97298 -9.97296,9.97298c-5.50792,0 -9.97298,-4.46506 -9.97298,-9.97298c0,-5.50793 4.46506,-9.97298 9.97298,-9.97298c5.50792,0 9.97296,4.46506 9.97296,9.97297z" fill="#000000" stroke="#000000" stroke-width="0" stroke-linecap="butt"/><path d="M367.26026,222.57337c0.02861,0.02865 0.04794,0.0573 0.06026,0.08519c0.1134,-0.04297 0.22378,-0.09219 0.33054,-0.14889c0.08828,-0.05246 0.17669,-0.10659 0.26526,-0.16245c0.11347,-0.07977 0.22163,-0.17051 0.32358,-0.27399c0,0 0.06746,-0.06746 0.16071,-0.07736c0.1947,-0.15363 0.37331,-0.30491 0.5167,-0.43277l0.3327,-0.0631c0,0 0.25,0 0.25,0.25c0,0.25 -0.25,0.25 -0.25,0.25l-0.00063,-0.0631c-0.07927,0.07018 -0.16517,0.14364 -0.25606,0.2187c-0.02855,0.08068 -0.09626,0.12991 -0.09626,0.12991c-0.29555,0.21495 -0.58831,0.40984 -0.87966,0.58707c-0.19117,0.12256 -0.38162,0.2329 -0.56191,0.32129c-2.11851,1.1353 -4.21132,1.41275 -6.8286,1.77376c-1.43867,0.19843 -2.92421,0.53072 -4.37687,0.53237h-0.33333c0,0 -0.25,0 -0.25,-0.25c0,-0.25 0.25,-0.25 0.25,-0.25h0.33333c1.42802,0.00173 2.89423,-0.33261 4.30856,-0.52768c1.78405,-0.24607 3.31145,-0.44513 4.77199,-0.91763c0.00333,-0.04934 0.02233,-0.08845 0.04664,-0.11884c-0.58591,0.05883 -1.16505,0.14282 -1.69559,0.37737l-0.4316,0.02012c0,0 -0.25,0 -0.25,-0.25c0,-0.25 0.25,-0.25 0.25,-0.25l0.23507,0.02012c0.90982,-0.37833 2.04419,-0.31281 3.06294,-0.49132c0.07369,-0.04647 0.14815,-0.09616 0.22447,-0.1497l0.13421,-0.13935c0,0 0.17692,-0.17663 0.35355,0.00029z" fill="#751cbd" stroke="none" stroke-width="0.5" stroke-linecap="butt"/></g></g></svg>