<svg version="1.1" xmlns="http://www.w3.org/2000/svg" xmlns:xlink="http://www.w3.org/1999/xlink" width="225.69302" height="283.1571" viewBox="0,0,225.69302,283.1571"><defs><linearGradient x1="320.08742" y1="187.07227" x2="320.08742" y2="244.23177" gradientUnits="userSpaceOnUse" id="color-1"><stop offset="0" stop-color="#8a6be6"/><stop offset="1" stop-color="#8a6be6" stop-opacity="0"/></linearGradient></defs><g transform="translate(-207.15349,-36.91517)"><g stroke-miterlimit="10"><path d="M214.52362,306.61252v-267.72501h213.18203v267.72501z" fill="none" stroke="none" stroke-width="0" stroke-linecap="butt"/><g stroke="#000000" stroke-width="2" stroke-linecap="round"><path d="M319.93129,91.16655l34.59485,3.41677c0,0 21.54333,-3.91094 32.03227,2.98968c10.48894,6.90062 6.83355,12.81291 6.83355,12.81291c0,0 8.66702,-1.25306 17.08388,2.56258c8.41686,3.81564 8.54194,17.51097 8.54194,17.51097c0,0 13.35055,1.88116 12.81291,7.68774c-0.53765,5.80658 -14.94839,15.37549 -14.94839,15.37549c0,0 6.39359,8.99477 3.84387,14.0942c-2.54971,5.09943 -11.10452,0.4271 -11.10452,0.4271c0,0 5.81182,13.14889 0.4271,17.08388c-5.38472,3.93499 -22.63614,-0.85419 -22.63614,-0.85419c0,0 -2.92062,14.57862 -10.25033,17.93807c-7.3297,3.35945 -20.50065,-3.84387 -20.50065,-3.84387c0,0 -1.68664,6.8065 -5.12516,7.26065c-3.43853,0.45415 -17.51097,-4.27097 -17.51097,-4.27097l-16.22968,2.98968" fill="#bdfcff"/><path d="M322.20417,204.34724l-16.22968,-2.98968c0,0 -14.07244,4.72512 -17.51097,4.27097c-3.43852,-0.45415 -5.12516,-7.26065 -5.12516,-7.26065c0,0 -13.17095,7.20332 -20.50065,3.84387c-7.32971,-3.35945 -10.25033,-17.93807 -10.25033,-17.93807c0,0 -17.25142,4.78918 -22.63614,0.85419c-5.38472,-3.93499 0.4271,-17.08388 0.4271,-17.08388c0,0 -8.55481,4.67233 -11.10452,-0.4271c-2.54972,-5.09943 3.84387,-14.0942 3.84387,-14.0942c0,0 -14.41074,-9.56891 -14.94839,-15.37549c-0.53764,-5.80658 12.81291,-7.68774 12.81291,-7.68774c0,0 0.12508,-13.69533 8.54194,-17.51097c8.41686,-3.81564 17.08388,-2.56258 17.08388,-2.56258c0,0 -3.65539,-5.91229 6.83355,-12.81291c10.48894,-6.90062 32.03227,-2.98968 32.03227,-2.98968l34.59485,-3.41677" fill="#bdfcff"/><g fill="#9cd0ff"><g><path d="M307.18944,158.1745c4.78461,-12.6633 13.00385,-33.81464 18.08773,-27.41846c5.08389,6.39618 -10.93453,24.57773 -8.43999,39.55654c2.49453,14.97879 16.43798,10.96123 18.31199,19.72142c1.87401,8.76019 -5.60543,20.976 -6.94678,33.40567c-1.34136,12.42966 7.68506,17.33599 -0.57947,27.39311c-16.54156,20.12943 -16.7396,6.24469 -19.2796,-2.01474c-2.4882,-11.96394 10.76823,-24.36633 9.74707,-39.41995c-1.02116,-15.05359 -12.22839,-14.35551 -13.98464,-22.60815c-1.75625,-8.25264 -1.70092,-15.95212 3.08368,-28.61542z"/><path d="M296.98008,168.70219c4.98316,-12.03709 13.52695,-32.16482 18.27679,-26.82219c4.74984,5.34265 -11.26851,23.52431 -9.26296,36.96095c2.00556,13.43662 15.62475,8.39644 17.19986,16.21389c1.57511,7.81745 -6.00662,19.71067 -7.64742,31.19592c-1.6408,11.48523 6.9696,15.07953 -1.31348,25.07814c-16.57869,20.01232 -16.38936,7.3493 -18.62344,0.05471c-2.08219,-10.68344 11.10161,-23.31491 10.52557,-36.96467c-0.57605,-13.64974 -11.45318,-11.91056 -12.92812,-19.27599c-1.47494,-7.36544 -1.20995,-14.40366 3.7732,-26.44075z"/><path d="M287.12008,165.91632c5.15189,-12.22861 13.97146,-32.66941 18.43744,-27.00455c4.46598,5.66486 -11.55234,23.84651 -9.9623,37.7548c1.59004,13.90829 14.9337,9.18087 16.2548,17.28666c1.3211,8.10578 -6.34754,20.09767 -8.2428,31.87176c-1.89526,11.77409 6.36163,15.76968 -1.93722,25.78618c-16.61024,20.04812 -16.09173,7.01145 -18.06585,-0.57823c-1.73717,-11.07509 11.3849,-23.63647 11.1871,-37.7156c-0.19781,-14.07909 -10.79442,-12.65835 -12.03032,-20.29514c-1.2359,-7.63678 -0.79275,-14.87726 4.35913,-27.10586z"/></g><g><path d="M271.77729,145.96032c4.78461,-7.2321 13.00384,-19.05345 18.08773,-6.88637c5.08389,12.1671 -10.93452,12.16552 -8.43999,29.97598c2.49453,17.81044 16.43797,29.62063 18.31199,40.50808c1.87402,10.88745 -5.60543,14.61305 -6.94678,25.5201c-1.34135,10.90703 7.68506,26.05962 -0.57947,26.73533c-16.54156,1.35244 -16.73959,-12.75709 -19.27959,-23.89977c-2.4882,-14.7884 10.76823,-12.14289 9.74707,-28.35566c-1.02117,-16.21275 -12.22839,-28.23645 -13.98464,-38.48268c-1.75625,-10.24623 -1.70092,-17.8829 3.08368,-25.11501z"/><path d="M261.56793,144.89896c4.98316,-6.3805 13.52695,-16.80985 18.27679,-6.07547c4.74984,10.73438 -11.26852,10.73299 -9.26296,26.4462c2.00556,15.71322 15.62475,26.1327 17.19986,35.73812c1.57511,9.60542 -6.00662,12.89231 -7.64742,22.51502c-1.6408,9.6227 6.9696,22.99102 -1.31348,23.58716c-16.57869,1.1932 -16.38935,-11.25491 -18.62344,-21.0855c-2.08219,-13.04702 11.1016,-10.71303 10.52556,-25.01668c-0.57605,-14.30364 -11.45317,-24.91152 -12.92812,-33.95121c-1.47495,-9.03971 -1.20996,-15.77713 3.7732,-22.15764z"/><path d="M251.70792,130.92058c5.15189,-6.3805 13.97146,-16.80985 18.43744,-6.07547c4.46598,10.73438 -11.55234,10.73299 -9.9623,26.4462c1.59004,15.7132 14.9337,26.1327 16.2548,35.73813c1.3211,9.60542 -6.34754,12.89231 -8.2428,22.51502c-1.89526,9.6227 6.36163,22.99102 -1.93722,23.58716c-16.61024,1.19318 -16.09173,-11.25491 -18.06585,-21.0855c-1.73717,-13.04702 11.3849,-10.71303 11.1871,-25.01668c-0.19781,-14.30364 -10.79441,-24.91152 -12.03031,-33.95122c-1.2359,-9.03969 -0.79275,-15.77713 4.35913,-22.15764z"/></g></g><g fill="#9cd0ff"><g><path d="M333.48677,158.17451c4.7846,12.6633 4.83993,20.36278 3.08368,28.61542c-1.75625,8.25264 -12.96348,7.55458 -13.98464,22.60815c-1.02116,15.05361 12.23527,27.456 9.74707,39.41995c-2.54,8.25941 -2.73803,22.14417 -19.27959,2.01474c-8.26454,-10.05711 0.76188,-14.96345 -0.57948,-27.39312c-1.34136,-12.42968 -8.8208,-24.64548 -6.94678,-33.40566c1.87401,-8.76018 15.81746,-4.74261 18.31199,-19.72142c2.49453,-14.97882 -13.52388,-33.16037 -8.43999,-39.55654c5.08389,-6.39617 13.30312,14.75515 18.08773,27.41846z"/><path d="M343.69613,168.7022c4.98316,12.03708 5.24815,19.07531 3.7732,26.44075c-1.47494,7.36543 -12.35207,5.62625 -12.92812,19.276c-0.57605,13.64977 12.60776,26.28123 10.52557,36.96467c-2.23408,7.29459 -2.04475,19.95761 -18.62344,-0.05471c-8.28309,-9.9986 0.32732,-13.59291 -1.31348,-25.07814c-1.6408,-11.48525 -9.22253,-23.37847 -7.64742,-31.19592c1.57511,-7.81745 15.1943,-2.77726 17.19986,-16.21388c2.00556,-13.43663 -14.0128,-31.61831 -9.26296,-36.96096c4.74984,-5.34264 13.29363,14.78509 18.27679,26.82217z"/><path d="M353.55614,165.91633c5.15188,12.22861 5.59503,19.46909 4.35913,27.10587c-1.2359,7.63678 -11.8325,6.21604 -12.03031,20.29513c-0.1978,14.07913 12.92427,26.64052 11.1871,37.7156c-1.97413,7.58968 -1.45562,20.62636 -18.06585,0.57822c-8.29885,-10.0165 -0.04196,-14.01209 -1.93722,-25.78617c-1.89526,-11.77409 -9.5639,-23.76597 -8.2428,-31.87176c1.3211,-8.10578 14.66476,-3.37837 16.2548,-17.28666c1.59004,-13.9083 -14.42828,-32.08994 -9.9623,-37.75481c4.46598,-5.66487 13.28555,14.77594 18.43744,27.00454z"/></g><g><path d="M368.50215,145.96032c4.7846,7.23211 4.83993,14.86879 3.08368,25.11501c-1.75625,10.24623 -12.96348,22.26993 -13.98464,38.48268c-1.02116,16.21276 12.23527,13.56727 9.74707,28.35567c-2.54,11.14267 -2.73804,25.25221 -19.2796,23.89977c-8.26454,-0.67572 0.76188,-15.8283 -0.57948,-26.73533c-1.34136,-10.90705 -8.8208,-14.63265 -6.94678,-25.5201c1.87401,-10.88745 15.81746,-22.69762 18.31199,-40.50808c2.49453,-17.81047 -13.52388,-17.80888 -8.43999,-29.97598c5.08389,-12.1671 13.30312,-0.34573 18.08773,6.88637z"/><path d="M378.71151,144.89896c4.98316,6.38051 5.24814,13.11794 3.7732,22.15764c-1.47494,9.03969 -12.35207,19.64758 -12.92812,33.95122c-0.57605,14.30367 12.60776,11.96966 10.52557,25.01668c-2.23408,9.83058 -2.04475,22.27868 -18.62344,21.0855c-8.28309,-0.59614 0.32732,-13.96446 -1.31348,-23.58716c-1.6408,-9.6227 -9.22253,-12.90961 -7.64743,-22.51502c1.57511,-9.60542 15.19431,-20.02491 17.19986,-35.73813c2.00556,-15.71322 -14.01281,-15.71183 -9.26296,-26.4462c4.74984,-10.73438 13.29363,-0.30502 18.27679,6.07547z"/><path d="M388.57152,130.9206c5.15188,6.38051 5.59503,13.11794 4.35913,22.15764c-1.2359,9.03969 -11.83251,19.64757 -12.03032,33.95121c-0.1978,14.30367 12.92428,11.96967 11.1871,25.01669c-1.97412,9.83058 -1.45561,22.27868 -18.06585,21.08549c-8.29885,-0.59614 -0.04196,-13.96446 -1.93722,-23.58716c-1.89526,-9.6227 -9.5639,-12.90961 -8.2428,-22.51502c1.3211,-9.60542 14.66476,-20.02491 16.2548,-35.73812c1.59004,-15.71322 -14.42829,-15.71183 -9.9623,-26.4462c4.46598,-10.73438 13.28556,-0.30502 18.43745,6.07547z"/></g></g></g><path d="M286.35186,319.07226l15.14285,-131.8421l37.78325,-0.15789l13.57389,132z" fill="#91aaff" stroke="#000000" stroke-width="0" stroke-linecap="butt"/><path d="M295.01902,243.61117l6.47569,-56.38101l37.78325,-0.15789l5.87786,57.15951z" fill="url(#color-1)" stroke="#000000" stroke-width="0" stroke-linecap="butt"/><path d="M286.35186,319.07226l15.14285,-131.8421l37.78325,-0.15789l13.57389,132z" fill="none" stroke="#000000" stroke-width="2" stroke-linecap="butt"/><path d="" fill="none" stroke="#000000" stroke-width="2" stroke-linecap="round"/><g><g><path d="M415.61892,100.91293c0,34.7927 -42.81005,62.99776 -95.61892,62.99776c-52.80887,0 -95.61892,-28.20506 -95.61892,-62.99776c0,-34.7927 42.81005,-62.99776 95.61892,-62.99776c52.80887,0 95.61892,28.20506 95.61892,62.99776z" fill="#9cd0ff" stroke="#000000" stroke-width="2" stroke-linecap="butt"/><path d="M255.66416,141.3116c0,-26.22326 17.23443,-38.95992 42.13774,-47.26099c6.72229,-2.24075 15.15687,3.12361 22.69784,3.12361c35.47713,0 63.63847,10.83554 63.63847,44.13739c0,33.30185 -28.75989,60.29834 -64.23702,60.29834c-35.47712,0 -64.23702,-26.99649 -64.23702,-60.29834z" fill="#91aaff" stroke="#000000" stroke-width="2" stroke-linecap="butt"/><g stroke-linecap="butt"><path d="M268.99199,141.58722c0,-12.96801 10.51265,-23.48065 23.48066,-23.48065c12.96801,0 23.48065,10.51264 23.48065,23.48065c0,12.96801 -10.51264,23.48066 -23.48065,23.48066c-12.96801,0 -23.48066,-10.51265 -23.48066,-23.48066z" fill="#ffffff" stroke="#000000" stroke-width="2"/><path d="M269.84332,160.965l2.95625,-6.95012l5.40109,6.17813z" fill="#000000" stroke="none" stroke-width="0"/></g><g stroke-linecap="butt"><path d="M346.73111,165.0679c-12.96801,0 -23.48065,-10.51265 -23.48065,-23.48066c0,-12.96801 10.51264,-23.48065 23.48065,-23.48065c12.96801,0 23.48066,10.51264 23.48066,23.48065c0,12.96801 -10.51265,23.48066 -23.48066,23.48066z" fill="#ffffff" stroke="#000000" stroke-width="2"/><path d="M359.62169,162.08534l5.40109,-6.17813l1.83295,7.69899z" fill="#000000" stroke="none" stroke-width="0"/></g><path d="M276.90144,142.37766c0,-8.29964 6.72818,-15.02784 15.02783,-15.02784c8.29964,0 15.02784,6.72819 15.02784,15.02785c0,8.29964 -6.72819,15.02785 -15.02784,15.02785c-8.29964,0 -15.02783,-6.72819 -15.02783,-15.02785z" fill="#000000" stroke="#000000" stroke-width="5" stroke-linecap="butt"/><path d="M362.05645,142.16445c0,8.29966 -6.72818,15.02785 -15.02783,15.02785c-8.29964,0 -15.02784,-6.72821 -15.02784,-15.02785c0,-8.29966 6.7282,-15.02785 15.02784,-15.02785c8.29964,0 15.02783,6.7282 15.02783,15.02784z" fill="#000000" stroke="#000000" stroke-width="5" stroke-linecap="butt"/><path d="M339.5939,187.58211c-1.75096,1.75944 -8.82475,6.20948 -19.5939,5.74812c-15.58607,-0.66772 -19.80933,-7.14057 -19.80933,-7.14057" fill="none" stroke="#000000" stroke-width="2" stroke-linecap="round"/><g fill="#9cd0ff" stroke="#000000" stroke-width="2" stroke-linecap="round"><path d="M240.17942,144.43757c5.71906,-6.10836 15.46571,-16.09288 18.97751,-5.81634c3.51179,10.27654 -12.50641,10.27521 -12.31314,25.31823c0.19327,15.04301 12.61073,25.01809 13.078,34.21382c0.46726,9.19573 -7.49356,12.34243 -10.2442,21.55471c-2.75064,9.21226 4.31793,22.0104 -4.03391,22.58112c-16.71631,1.1423 -15.09127,-10.77486 -16.19154,-20.18616c-0.57742,-12.49054 12.33719,-10.25609 13.41086,-23.94968c1.07366,-13.69356 -8.58,-23.849 -9.01235,-32.50313c-0.43235,-8.65414 0.6097,-15.10421 6.32875,-21.21257z"/><path d="M250.62322,144.86299c5.79822,-7.19848 15.67426,-18.96488 19.05288,-6.85435c3.37862,12.11053 -12.63957,12.10896 -12.64124,29.83661c-0.00167,17.72764 12.28653,29.48292 12.63463,40.31974c0.3481,10.83683 -7.6535,14.54512 -10.52352,25.40145c-2.87002,10.85633 4.0327,25.93846 -4.32653,26.61103c-16.73111,1.34615 -14.95164,-12.69779 -15.92995,-23.78865c-0.41554,-14.71964 12.4701,-12.08644 13.72123,-28.22383c1.25111,-16.13738 -8.27094,-28.10518 -8.59114,-38.30376c-0.3202,-10.19859 0.80543,-17.79975 6.60364,-24.99825z"/></g><g fill="#9cd0ff" stroke="#000000" stroke-width="2" stroke-linecap="round"><path d="M400.18119,144.43757c5.76158,6.10837 6.84855,12.55843 6.47645,21.21257c-0.37209,8.65414 -9.95504,18.80957 -8.78603,32.50314c1.16902,13.69358 14.06806,11.45913 13.57762,23.94968c-1.03474,9.41129 0.67327,21.32845 -16.05099,20.18616c-8.35582,-0.57072 -1.37636,-13.36886 -4.19114,-22.58112c-2.81478,-9.21228 -10.79751,-12.35898 -10.39428,-21.55471c0.40324,-9.19573 12.75124,-19.17082 12.83977,-34.21383c0.08853,-15.04302 -15.92967,-15.0417 -12.48943,-25.31823c3.44024,-10.27654 13.25641,-0.292 19.018,5.81635z"/><path d="M389.74035,144.86299c5.84833,7.19849 7.0269,14.79966 6.7777,24.99825c-0.24919,10.1986 -9.68792,22.16639 -8.32444,38.30376c1.36349,16.13739 14.2308,13.50419 13.91774,28.22383c-0.90109,11.09088 0.97617,25.13481 -15.76431,23.78866c-8.36392,-0.67257 -1.56622,-15.75471 -4.51182,-26.61104c-2.94561,-10.85633 -10.97303,-14.56462 -10.70039,-25.40145c0.27264,-10.83684 12.47899,-22.5921 12.35389,-40.31974c-0.12511,-17.72766 -16.14328,-17.72608 -12.84898,-29.83661c3.2943,-12.11052 13.25227,-0.34413 19.10061,6.85435z"/></g><g stroke="#000000"><path d="M216.76312,148.77911c-3.93802,-3.23471 -8.3025,-7.48562 -8.59382,-10.63191c-0.53764,-5.80658 12.81291,-7.68774 12.81291,-7.68774c0,0 -3.33004,-16.9201 5.08682,-20.73574c8.41686,-3.81564 17.7749,-1.41087 17.7749,-1.41087c0,0 4.63689,-12.82252 15.12583,-19.72314c5.36443,-3.52923 13.2658,-4.45715 18.58061,-2.94593c5.0771,1.44363 7.69313,5.25409 7.69313,5.25409c0,0 1.00292,-5.66588 3.80378,-7.07039c2.80086,-1.4045 7.99653,1.15308 7.99653,1.15308c0,0 4.86373,-7.95242 9.80389,-8.00896c4.94016,-0.05655 13.22099,7.74541 13.22099,7.74541" fill="#bdfcff" stroke-width="2" stroke-linecap="round"/><path d="M319.93129,84.71701c0,0 8.28083,-7.80196 13.22099,-7.74541c4.94016,0.05655 9.8039,8.00897 9.8039,8.00897c0,0 5.19567,-2.55759 7.99653,-1.15309c2.80086,1.4045 3.80378,7.07039 3.80378,7.07039c0,0 2.61603,-3.81046 7.69313,-5.25409c5.31481,-1.51122 13.21618,-0.58331 18.58061,2.94593c10.48894,6.90062 15.12583,19.72314 15.12583,19.72314c0,0 9.35804,-2.40477 17.7749,1.41087c8.41686,3.81564 5.08682,20.73574 5.08682,20.73574c0,0 13.35055,1.88116 12.81291,7.68774c-0.29132,3.14629 -4.6558,7.3972 -8.59382,10.63191" fill="#bdfcff" stroke-width="2" stroke-linecap="round"/><path d="M232.66121,146.0278c0,0 4.36148,-19.90417 10.95553,-28.07944c8.13066,-10.08036 51.25009,-28.79126 51.25009,-28.79126c0,0 20.35987,-3.58583 26.50558,-4.21724c3.51122,-0.36074 7.12421,0.76212 7.12421,0.76212c0,0 53.06763,28.10066 64.05902,38.64259c9.41872,9.03356 19.74992,21.98251 19.74992,21.98251c0,0 -67.34347,-4.88257 -89.7978,-4.88257c-23.49034,0 -72.78777,3.68546 -72.78777,3.68546z" fill="#bdfcff" stroke-width="0" stroke-linecap="butt"/><path d="M232.25147,146.073c0,0 59.68115,-4.59179 89.78106,-4.49261c30.44971,0.10033 91.87993,5.09116 91.87993,5.09116" fill="none" stroke-width="2" stroke-linecap="round"/></g></g><path d="M327.24176,53.82149c0,6.48791 -2.93912,11.74739 -6.56472,11.74739c-3.62559,0 -6.56472,-5.25949 -6.56472,-11.74739c0,-6.48791 6.56472,-11.74739 6.56472,-11.74739c0,0 6.56472,5.25949 6.56472,11.74739z" fill="#d8fdff" stroke="none" stroke-width="0" stroke-linecap="butt"/><path d="M303.36183,50.08985c-6.09482,2.22398 -12.04314,1.26582 -13.28596,-2.14011c-0.63274,-1.73402 0.07619,-3.76821 1.72896,-5.64094c1.01993,-1.15567 9.52804,-2.51142 15.1895,-2.84022c3.18412,-0.18493 5.15283,0.42742 5.15283,0.42742c0,0 -2.69052,7.96987 -8.78534,10.19385z" fill="#d8fdff" stroke="none" stroke-width="0" stroke-linecap="butt"/><path d="M327.85283,39.896c0,0 1.96871,-0.61235 5.15283,-0.42742c5.66146,0.32881 14.16957,1.68455 15.1895,2.84023c1.65277,1.87273 2.3617,3.90692 1.72896,5.64094c-1.24282,3.40593 -7.19114,4.36409 -13.28596,2.14011c-6.09482,-2.22398 -8.78533,-10.19386 -8.78533,-10.19386z" fill="#d8fdff" stroke="none" stroke-width="0" stroke-linecap="butt"/></g></g></g></svg>