<svg version="1.1" xmlns="http://www.w3.org/2000/svg" xmlns:xlink="http://www.w3.org/1999/xlink" width="216.77252" height="272.93481" viewBox="0,0,216.77252,272.93481"><defs><linearGradient x1="318.96396" y1="240.85412" x2="318.96396" y2="276.16737" gradientUnits="userSpaceOnUse" id="color-1"><stop offset="0" stop-color="#005cff" stop-opacity="0"/><stop offset="1" stop-color="#005cff" stop-opacity="0.2"/></linearGradient><radialGradient cx="319.85454" cy="166.48683" r="64.23702" gradientUnits="userSpaceOnUse" id="color-2"><stop offset="0" stop-color="#aca5f2"/><stop offset="1" stop-color="#f3ca58"/></radialGradient><radialGradient cx="292.44487" cy="167.54065" r="23.48066" gradientUnits="userSpaceOnUse" id="color-3"><stop offset="0" stop-color="#ffffff"/><stop offset="1" stop-color="#ff6d6d"/></radialGradient><radialGradient cx="346.68152" cy="166.00108" r="23.48066" gradientUnits="userSpaceOnUse" id="color-4"><stop offset="0" stop-color="#ffffff"/><stop offset="1" stop-color="#ff6d6d"/></radialGradient></defs><g transform="translate(-209.81852,-46.13751)"><g stroke-miterlimit="10"><path d="M213.40901,313.86252v-267.72501h213.18203v267.72501z" fill="none" stroke="none" stroke-width="0" stroke-linecap="butt"/><g stroke-linecap="butt"><g><g stroke-width="0"><path d="M370.70106,269.87901c-0.06778,1.44597 -1.41901,-4.97989 -6.32499,-5.20986c-4.90598,-0.22997 -8.51273,-3.00784 -8.44495,-4.45381c0.06778,-1.44597 4.09981,0.87984 9.00579,1.10981c4.90598,0.22997 5.83193,7.10789 5.76415,8.55386z" fill="#f29d0f" stroke="#000000"/><path d="M363.39926,263.52066c0,8.78876 -6.18635,0.14404 -15.95739,0.14404c-9.77104,0 -15.01123,-7.44009 -15.01123,-16.22885c0,-8.78876 7.92099,-4.71717 17.69203,-4.71717c9.77104,0 13.27659,12.01322 13.27659,20.80198z" fill="#f2d40e" stroke="#000000"/><path d="M357.81447,254.49463c0,-0.69036 0.55964,-1.25 1.25,-1.25c0.69036,0 1.25,0.55964 1.25,1.25c0,0.69036 -0.55964,1.25 -1.25,1.25c-0.69036,0 -1.25,-0.55964 -1.25,-1.25z" fill="#000000" stroke="none"/></g><path d="M286.35186,319.07231c0,0 -1.89355,-25.93292 0.55642,-47.26366c2.58988,-22.54893 14.58643,-84.57844 14.58643,-84.57844l37.78325,-0.15789c0,0 9.71821,48.53571 12.06959,71.4019c2.15633,20.96935 1.5043,60.5981 1.5043,60.5981z" fill="#f3ca58" stroke="#000000" stroke-width="0"/><path d="M293.32494,231.4227c3.92467,-22.12412 8.16979,-44.1925 8.16979,-44.1925l37.78325,-0.15789c0,0 4.58735,22.91064 8.22116,44.66623c0.01212,0.07254 -54.19728,-0.18574 -54.1742,-0.31584z" fill="#f2bc49" stroke="#000000" stroke-width="0"/><path d="M294.35562,225.21107c3.47387,-19.2454 7.13909,-37.98086 7.13909,-37.98086l37.78325,-0.15789c0,0 3.7397,19.39228 7.08641,38.61124c0.00071,0.00407 -52.0355,-0.32431 -52.00875,-0.47248z" fill="#ffc72e" stroke="#000000" stroke-width="0"/><path d="M309.43057,274.95001c-0.60434,0 -1.13393,-0.23881 -1.42855,-0.59687c-0.40832,-0.03148 -0.71369,-0.15576 -0.71369,-0.15576c-2.81592,-1.14616 -6.6205,-2.20571 -9.08745,-3.72458c-5.15584,-3.1744 -6.48202,-7.967 -2.60749,-12.21832c3.34303,-3.66814 9.07756,-4.44116 14.1588,-5.7515c3.39017,-0.87425 6.25511,-2.47282 9.63619,-3.37881c2.25387,-0.97114 5.50095,-1.85595 7.42542,-3.16024c1.26199,-0.8553 1.68883,-2.21259 2.8379,-3.12013c0.82862,-0.65444 4.11036,-2.27023 5.42408,-1.94755c2.52904,0.62119 4.05401,5.49475 4.87382,7.17382c0.81561,1.67047 2.09706,2.72111 2.94108,4.38572c2.22816,4.39447 2.39218,10.85669 -0.38497,15.07163c-4.12178,4.62147 -13.47245,8.29221 -20.91425,8.62036c-3.3941,0.14966 -6.97675,-0.59431 -10.29739,-1.01544l-1.59475,-0.19833c-0.0875,0.01053 -0.17726,0.016 -0.26874,0.016z" fill="url(#color-1)" stroke="none" stroke-width="0.5"/><path d="M296.01191,216.45645c2.97215,-16.24462 5.48281,-29.22625 5.48281,-29.22625l37.78325,-0.15789c0,0 2.77645,13.86644 5.72037,30.26775c0.00971,0.0541 -49.03891,-0.59676 -48.98643,-0.88361z" fill="#ff9600" stroke="#000000" stroke-width="0"/><g stroke-width="0"><path d="M356.84063,264.74936c-0.16935,10.05097 -14.10853,4.57839 -35.80932,4.57839c-21.70078,0 -38.91576,4.34675 -38.50428,-5.05147c0.52608,-12.01574 17.11889,-0.63604 38.81967,-0.63604c21.70078,0 35.63747,-7.40967 35.49394,1.10912z" fill="#f2d40e" stroke="#000000"/><path d="M344.0944,266.38599c0,-0.97798 0.79281,-1.77078 1.77078,-1.77078c0.97798,0 1.77078,0.79281 1.77078,1.77078c0,0.97798 -0.79281,1.77078 -1.77078,1.77078c-0.97798,0 -1.77078,-0.79281 -1.77078,-1.77078z" fill="#080700" stroke="none"/><path d="M348.70222,261.04884c-0.3209,3.37178 -1.40371,2.88109 -2.86307,2.7422c-1.45936,-0.13889 -2.74263,0.12661 -2.42173,-3.24517c0.3209,-3.37178 3.22345,-5.85366 3.22345,-5.85366c0,0 2.38226,2.98485 2.06135,6.35663z" fill="#f2d40e" stroke="none"/><path d="M340.02662,267.57169c2.8247,-1.86894 3.12333,-0.71826 3.93224,0.50431c0.80891,1.22257 1.82178,2.05407 -1.00292,3.92301c-2.8247,1.86894 -6.57922,1.17036 -6.57922,1.17036c0,0 0.82521,-3.72874 3.64991,-5.59769z" fill="#f2d40e" stroke="none"/><path d="M345.92961,271.74288c-0.96942,-3.24532 0.21842,-3.1974 1.62304,-3.61698c1.40462,-0.41958 2.49413,-1.14777 3.46355,2.09755c0.96942,3.24532 -0.78801,6.63589 -0.78801,6.63589c0,0 -3.32917,-1.87113 -4.29858,-5.11645z" fill="#f2d40e" stroke="none"/><path d="M343.03151,260.28155c2.52782,2.25433 1.49142,2.83668 0.51571,3.93076c-0.97571,1.09408 -1.52125,2.28558 -4.04907,0.03125c-2.52782,-2.25433 -2.81034,-6.06283 -2.81034,-6.06283c0,0 3.81588,-0.15351 6.3437,2.10082z" fill="#f2d40e" stroke="none"/></g></g><path d="M295.94243,216.86713c0,-0.9665 0.7835,-1.75 1.75,-1.75c0.9665,0 1.75,0.7835 1.75,1.75c0,0.9665 -0.7835,1.75 -1.75,1.75c-0.9665,0 -1.75,-0.7835 -1.75,-1.75z" fill="#ff9600" stroke="none" stroke-width="0.5"/><path d="M345.50938,219.11519c0,0.69036 -0.55964,1.25 -1.25,1.25c-0.58846,0 -1.08194,-0.40663 -1.2148,-0.95423c-0.74057,-0.20381 -1.28455,-0.8821 -1.28455,-1.68743c0,-0.9665 0.7835,-1.75 1.75,-1.75c0.9665,0 1.5359,0.7835 1.5359,1.75c0,0.13554 -0.0112,0.26747 -0.03312,0.39415c0.30166,0.22821 0.49657,0.59009 0.49657,0.99751z" fill="#ff9600" stroke="none" stroke-width="0.5"/><path d="M337.26391,216.86713c0,-0.9665 0.7835,-1.75 1.75,-1.75c0.9665,0 1.75,0.7835 1.75,1.75c0,0.9665 -0.7835,1.75 -1.75,1.75c-0.9665,0 -1.75,-0.7835 -1.75,-1.75z" fill="#ff9600" stroke="none" stroke-width="0.5"/><path d="M331.05499,216.86713c0,-0.9665 0.7835,-1.75 1.75,-1.75c0.53678,0 1.01712,0.24168 1.33813,0.62215c0.32101,-0.38047 0.80135,-0.62215 1.33813,-0.62215c0.9665,0 1.75,0.7835 1.75,1.75c0,0.9665 -0.7835,1.75 -1.75,1.75c-0.53678,0 -1.01711,-0.24168 -1.33813,-0.62215c-0.32101,0.38047 -0.80135,0.62215 -1.33813,0.62215c-0.9665,0 -1.75,-0.7835 -1.75,-1.75z" fill="#ff9600" stroke="none" stroke-width="0.5"/><path d="M323.098,218.15174c0,-0.69036 0.55964,-1.25 1.25,-1.25c0.31567,0 0.604,0.11701 0.824,0.31002c-0.00317,-0.04309 -0.0048,-0.08662 -0.0048,-0.13053c0,-0.9665 0.7835,-1.75 1.75,-1.75c0.3111,0 0.60325,0.08118 0.8564,0.22351c0.25315,-0.14234 0.5453,-0.22351 0.8564,-0.22351c0.9665,0 1.75,0.7835 1.75,1.75c0,0.9665 -0.7835,1.75 -1.75,1.75c-0.3111,0 -0.60325,-0.08118 -0.8564,-0.22351c-0.00778,0.00438 -0.0156,0.00869 -0.02345,0.01295c-0.22316,0.34139 -0.60877,0.56697 -1.04706,0.56697c-0.50801,0 -0.94524,-0.30304 -1.14077,-0.73822c-0.13354,0.54664 -0.62656,0.95233 -1.21434,0.95233c-0.69036,0 -1.25,-0.55964 -1.25,-1.25z" fill="#ff9600" stroke="none" stroke-width="0.5"/><path d="M308.78848,216.86713c0,-0.90794 2.40865,-2.84656 3.17344,-1.50817c0.25014,0.14763 0.46034,0.3557 0.61052,0.60413c0.3065,-0.50702 0.86302,-0.84596 1.4987,-0.84596c0.47595,0 0.90752,0.19 1.223,0.49829c0.06029,-0.02457 0.12224,-0.04518 0.18548,-0.06204c0.19423,-0.07435 0.4051,-0.1151 0.62549,-0.1151c0.45635,0 0.87191,0.17468 1.18346,0.46083c0.02256,0.01482 0.04468,0.02996 0.06638,0.04539c0.23587,-0.11841 0.50221,-0.18507 0.78412,-0.18507c0.20657,0 0.40479,0.03579 0.58877,0.10151c0.18399,-0.06572 0.3822,-0.10151 0.58878,-0.10151c0.9665,0 1.75,0.7835 1.75,1.75c0,0.9665 -0.7835,1.75 -1.75,1.75c-0.20657,0 -0.40479,-0.0358 -0.58878,-0.10152c-0.18399,0.06572 -0.3822,0.10152 -0.58877,0.10152c-0.48323,0 -0.92072,-0.19586 -1.23741,-0.51253c-0.23892,0.12235 -0.50968,0.19138 -0.79655,0.19138c-0.13446,0 -0.26537,-0.01516 -0.39113,-0.04387c-0.435,0.10573 -0.83124,0.0274 -1.07466,-0.37157c-0.17815,0.06112 -0.36929,0.09429 -0.56817,0.09429c-0.63569,0 -1.1922,-0.33894 -1.4987,-0.84596c-0.3065,0.50702 -0.86302,0.84596 -1.49871,0.84596c-0.09804,0 -0.1942,-0.00807 -0.28785,-0.02356c-1.01047,0.44353 -1.99741,0.27119 -1.99741,-1.72644z" fill="#ff9600" stroke="none" stroke-width="0.5"/><path d="M304.0397,215.46065c0.265,-0.5145 2.3117,-1.46315 2.78381,-0.63695c0.5158,0.30442 0.86181,0.86589 0.86181,1.50818c0,0.9665 -0.7835,1.75 -1.75,1.75c-0.36156,0 -0.69751,-0.10965 -0.97641,-0.29751c-0.96798,-0.1522 -1.60936,-0.98382 -0.91921,-2.32372z" fill="#ff9600" stroke="none" stroke-width="0.5"/><path d="M299.9033,216.22483c0,-0.9665 0.7835,-1.75 1.75,-1.75c0.9665,0 1.75,0.7835 1.75,1.75c0,0.9665 -0.7835,1.75 -1.75,1.75c-0.9665,0 -1.75,-0.7835 -1.75,-1.75z" fill="#ff9600" stroke="none" stroke-width="0.5"/><path d="M300.36869,224.71642c0.69036,0 1.25,0.55964 1.25,1.25c0,0.69036 -0.55964,1.25 -1.25,1.25c-0.1789,0 -0.34902,-0.03758 -0.5029,-0.10528c-0.30099,0.24459 -0.6848,0.39118 -1.10286,0.39118c-0.49002,0 -0.93301,-0.2014 -1.25068,-0.52595c-0.28296,0.19661 -0.62671,0.31185 -0.99738,0.31185c-0.9665,0 -1.75,-0.7835 -1.75,-1.75c0,-0.9665 0.7835,-1.75 1.75,-1.75c0.49002,0 0.933,0.2014 1.25068,0.52595c0.28296,-0.19661 0.62672,-0.31185 0.99738,-0.31185c0.5849,0 1.10277,0.28694 1.42053,0.72773c0.06044,-0.00897 0.12229,-0.01363 0.18522,-0.01363z" fill="#ffc72e" stroke="none" stroke-width="0.5"/><path d="M305.22057,228.21448c0,-0.27336 0.08774,-0.52621 0.2366,-0.73195c-0.32446,-0.0491 -0.6197,-0.18731 -0.85998,-0.38887c-0.30406,0.25507 -0.6961,0.40866 -1.12403,0.40866c-0.9665,0 -1.75,-0.7835 -1.75,-1.75c0,-0.9665 0.7835,-1.75 1.75,-1.75c0.42793,0 0.81997,0.15359 1.12403,0.40866c0.30406,-0.25507 0.6961,-0.40866 1.12403,-0.40866c0.48265,0 0.91966,0.19539 1.23626,0.51138c0.30332,-0.25248 0.69335,-0.40433 1.11885,-0.40433c0.9665,0 1.75,0.7835 1.75,1.75c0,0.9665 -0.7835,1.75 -1.75,1.75c-0.19957,0 -0.39134,-0.03341 -0.57002,-0.09494c0.13526,0.19973 0.21427,0.44066 0.21427,0.70005c0,0.69036 -0.55964,1.25 -1.25,1.25c-0.69036,0 -1.25,-0.55964 -1.25,-1.25z" fill="#ffc72e" stroke="none" stroke-width="0.5"/><path d="M327.88066,223.89527c0.9665,0 1.75,0.7835 1.75,1.75c0,0.9665 -0.7835,1.75 -1.75,1.75c-0.68291,0 -1.27445,-0.39117 -1.56279,-0.96166c-0.31642,0.45199 -0.841,0.74755 -1.43462,0.74755c-0.9665,0 -1.75,-0.7835 -1.75,-1.75c0,-0.9665 0.7835,-1.75 1.75,-1.75c0.68291,0 1.27445,0.39117 1.5628,0.96166c0.31642,-0.45199 0.841,-0.74755 1.43461,-0.74755z" fill="#ffc72e" stroke="none" stroke-width="0.5"/><path d="M331.12678,228.32152c0,-0.51662 0.3134,-0.96004 0.76045,-1.1505c-0.43936,-0.31793 -0.7252,-0.83494 -0.7252,-1.41871c0,-0.9665 0.7835,-1.75 1.75,-1.75c0.17045,0 0.3352,0.02437 0.49098,0.06981c0.78988,-0.18737 1.47312,0.15276 1.47312,1.68019c0,0.22004 -0.17418,0.54241 -0.4399,0.86046c-0.19302,0.34118 -0.4973,0.61113 -0.86354,0.76055c-0.08123,0.05076 -0.16337,0.09658 -0.2455,0.13625c0.18679,0.21843 0.29959,0.50202 0.29959,0.81196c0,0.69036 -0.55964,1.25 -1.25,1.25c-0.69036,0 -1.25,-0.55964 -1.25,-1.25z" fill="#ffc72e" stroke="none" stroke-width="0.5"/><path d="M335.94405,226.82283c0,-0.68096 0.54451,-1.23474 1.22187,-1.24969c0.08974,-0.88233 0.83493,-1.57082 1.74094,-1.57082c0.33328,0 0.6448,0.09316 0.90993,0.25487c0.26513,-0.16171 0.57665,-0.25487 0.90992,-0.25487c0.9665,0 1.75,0.7835 1.75,1.75c0,0.9665 -0.7835,1.75 -1.75,1.75c-0.32024,0 -0.62038,-0.08602 -0.8786,-0.23621c-0.11041,0.06321 -0.23139,0.11005 -0.35963,0.13724c-0.18197,0.06411 -0.37773,0.09897 -0.58163,0.09897c-0.21143,0 -0.41411,-0.0375 -0.60174,-0.1062c-0.20783,0.40195 -0.62736,0.6767 -1.11107,0.6767c-0.69036,0 -1.25,-0.55964 -1.25,-1.25z" fill="#ffc72e" stroke="none" stroke-width="0.5"/><path d="M342.36708,228.64268c0,-0.64099 0.48246,-1.16929 1.10406,-1.24157c-0.45205,-0.31641 -0.74766,-0.84103 -0.74766,-1.43469c0,-0.9665 0.7835,-1.75 1.75,-1.75c0.9665,0 1.75,0.7835 1.75,1.75c0,0.9665 -0.7835,1.75 -1.75,1.75c-0.00571,0 -0.01142,-0.00002 -0.01711,-0.00008c0.25227,0.2287 0.41071,0.55902 0.41071,0.92634c0,0.69036 -0.55964,1.25 -1.25,1.25c-0.69036,0 -1.25,-0.55964 -1.25,-1.25z" fill="#ffc72e" stroke="none" stroke-width="0.5"/><path d="M297.79948,229.99715c0.9665,0 1.75,0.7835 1.75,1.75c0,0.9665 -0.7835,1.75 -1.75,1.75c-0.53678,0 -1.01712,-0.24167 -1.33813,-0.62215c-0.32101,0.38047 -0.80135,0.62215 -1.33813,0.62215c-0.9665,0 -1.75,-0.7835 -1.75,-1.75c0,-0.9665 0.7835,-1.75 1.75,-1.75c0.53678,0 1.01711,0.24168 1.33813,0.62215c0.32101,-0.38047 0.80135,-0.62215 1.33813,-0.62215z" fill="#f2bc49" stroke="none" stroke-width="0.5"/><path d="M303.93597,232.4965c0,-0.69036 0.55964,-1.25 1.25,-1.25c0.27335,0 0.52621,0.08774 0.73195,0.2366c0.06109,-0.40368 0.26009,-0.76211 0.54745,-1.02577c0.3199,-0.34867 0.77933,-0.56724 1.28981,-0.56724c0.9665,0 1.75,0.7835 1.75,1.75c0,0.51048 -0.21858,0.96991 -0.56724,1.28981c-0.3199,0.34867 -0.77933,0.56724 -1.28981,0.56724c-0.51031,0 -0.96959,-0.21842 -1.28947,-0.56687c-0.17633,0.47654 -0.63484,0.81623 -1.17269,0.81623c-0.69036,0 -1.25,-0.55964 -1.25,-1.25z" fill="#f2bc49" stroke="none" stroke-width="0.5"/><path d="M317.71087,229.56895c0.9665,0 1.75,0.7835 1.75,1.75c0,0.9665 -0.7835,1.75 -1.75,1.75c-0.63448,0 -1.19009,-0.33766 -1.49696,-0.84308c-0.26839,0.6219 -0.88711,1.05718 -1.6075,1.05718c-0.9665,0 -1.75,-0.7835 -1.75,-1.75c0,-0.9665 0.7835,-1.75 1.75,-1.75c0.63448,0 1.19009,0.33766 1.49696,0.84308c0.26839,-0.6219 0.88711,-1.05718 1.6075,-1.05718z" fill="#f2bc49" stroke="none" stroke-width="0.5"/><path d="M320.34994,231.10484c0,-0.9665 0.7835,-1.75 1.75,-1.75c0.9665,0 1.75,0.7835 1.75,1.75c0,0.9665 -0.7835,1.75 -1.75,1.75c-0.9665,0 -1.75,-0.7835 -1.75,-1.75z" fill="#f2bc49" stroke="none" stroke-width="0.5"/><path d="M327.41526,231.10484c0,-0.9665 0.7835,-1.75 1.75,-1.75c0.9665,0 1.75,0.7835 1.75,1.75c0,0.9665 -0.7835,1.75 -1.75,1.75c-0.9665,0 -1.75,-0.7835 -1.75,-1.75z" fill="#f2bc49" stroke="none" stroke-width="0.5"/><path d="M338.62032,234.20931c0,-0.33082 0.12851,-0.63162 0.33833,-0.85521c-0.2128,0.09204 -0.44749,0.14305 -0.6941,0.14305c-0.9665,0 -1.75,-0.7835 -1.75,-1.75c0,-0.9665 0.7835,-1.75 1.75,-1.75c0.42778,0 0.81972,0.15349 1.12373,0.40841c0.32101,-0.38068 0.80148,-0.6225 1.33843,-0.6225c0.9665,0 1.75,0.7835 1.75,1.75c0,0.9665 -0.7835,1.75 -1.75,1.75c-0.00571,0 -0.01141,-0.00003 -0.01711,-0.00009c0.25227,0.2287 0.41071,0.55902 0.41071,0.92634c0,0.69036 -0.55964,1.25 -1.25,1.25c-0.69036,0 -1.25,-0.55964 -1.25,-1.25zM339.60299,232.87464c-0.04618,0.05477 -0.09566,0.10666 -0.14814,0.15537c0.08593,-0.03027 0.17616,-0.05142 0.26953,-0.06227c-0.04184,-0.02928 -0.08234,-0.06036 -0.12139,-0.0931z" fill="#f2bc49" stroke="none" stroke-width="0.5"/><path d="M345.65104,229.8901c0.9665,0 1.75,0.7835 1.75,1.75c0,0.9665 -0.7835,1.75 -1.75,1.75c-0.33299,0 -0.64426,-0.09301 -0.90924,-0.25446c-0.12092,0.02642 -0.24651,0.04036 -0.37536,0.04036c-0.9665,0 -1.75,-0.7835 -1.75,-1.75c0,-0.9665 0.7835,-1.75 1.75,-1.75c0.33299,0 0.64425,0.093 0.90924,0.25445c0.12092,-0.02642 0.24652,-0.04035 0.37537,-0.04035z" fill="#f2bc49" stroke="none" stroke-width="0.5"/><path d="M301.68791,220.07865c0,-0.69036 0.55964,-1.25 1.25,-1.25c0.69036,0 1.25,0.55964 1.25,1.25c0,0.69036 -0.55964,1.25 -1.25,1.25c-0.69036,0 -1.25,-0.55964 -1.25,-1.25z" fill="#ff9600" stroke="none" stroke-width="0.5"/><path d="M311.32245,220.50685c0,-0.69036 0.55964,-1.25 1.25,-1.25c0.69036,0 1.25,0.55964 1.25,1.25c0,0.69036 -0.55964,1.25 -1.25,1.25c-0.69036,0 -1.25,-0.55964 -1.25,-1.25z" fill="#ff9600" stroke="none" stroke-width="0.5"/><path d="M330.91268,220.50685c0,-0.69036 0.55964,-1.25 1.25,-1.25c0.69036,0 1.25,0.55964 1.25,1.25c0,0.69036 -0.55964,1.25 -1.25,1.25c-0.69036,0 -1.25,-0.55964 -1.25,-1.25z" fill="#ff9600" stroke="none" stroke-width="0.5"/><path d="M336.80046,221.79145c0,-0.69036 0.55964,-1.25 1.25,-1.25c0.69036,0 1.25,0.55964 1.25,1.25c0,0.69036 -0.55964,1.25 -1.25,1.25c-0.69036,0 -1.25,-0.55964 -1.25,-1.25z" fill="#ff9600" stroke="none" stroke-width="0.5"/><path d="M301.0456,228.74973c0,-0.69036 0.55964,-1.25 1.25,-1.25c0.69036,0 1.25,0.55964 1.25,1.25c0,0.69036 -0.55964,1.25 -1.25,1.25c-0.69036,0 -1.25,-0.55964 -1.25,-1.25z" fill="#ffc72e" stroke="none" stroke-width="0.5"/><path d="M317.53137,227.35808c0,-0.1411 0.02338,-0.27673 0.06647,-0.40324c-0.19722,0.07701 -0.41183,0.11928 -0.63632,0.11928c-0.37248,0 -0.71777,-0.11637 -1.00152,-0.31473c-0.30617,0.26291 -0.70428,0.42178 -1.13949,0.42178c-0.38732,0 -0.74524,-0.12582 -1.03514,-0.33882c-0.2268,0.23088 -0.54256,0.37408 -0.89177,0.37408c-0.13883,0 -0.27238,-0.02264 -0.39715,-0.06441c-0.22837,0.29941 -0.58887,0.49262 -0.9945,0.49262c-0.69036,0 -1.25,-0.55964 -1.25,-1.25c0,-0.69036 0.55964,-1.25 1.25,-1.25c0.13883,0 0.27238,0.02264 0.39715,0.06441c0.22837,-0.29941 0.58887,-0.49262 0.9945,-0.49262c0.10774,0 0.2123,0.01363 0.31204,0.03926c0.2643,-0.63113 0.88781,-1.07452 1.61487,-1.07452c0.37248,0 0.71777,0.11637 1.00151,0.31474c0.30617,-0.26291 0.70428,-0.42178 1.1395,-0.42178c0.9665,0 1.75,0.7835 1.75,1.75c0,0.29354 -0.07228,0.5702 -0.2,0.81316c0.08691,-0.01913 0.17721,-0.0292 0.26986,-0.0292c0.69036,0 1.25,0.55964 1.25,1.25c0,0.69036 -0.55964,1.25 -1.25,1.25c-0.69036,0 -1.25,-0.55964 -1.25,-1.25z" fill="#ffc72e" stroke="none" stroke-width="0.5"/><path d="M320.63584,228.10743c0,-0.69036 0.55964,-1.25 1.25,-1.25c0.69036,0 1.25,0.55964 1.25,1.25c0,0.69036 -0.55964,1.25 -1.25,1.25c-0.69036,0 -1.25,-0.55964 -1.25,-1.25z" fill="#ffc72e" stroke="none" stroke-width="0.5"/><path d="M325.02491,228.32152c0,-0.69036 0.55964,-1.25 1.25,-1.25c0.69036,0 1.25,0.55964 1.25,1.25c0,0.69036 -0.55964,1.25 -1.25,1.25c-0.69036,0 -1.25,-0.55964 -1.25,-1.25z" fill="#ffc72e" stroke="none" stroke-width="0.5"/><path d="M294.94372,236.13622c0,-0.69036 0.55964,-1.25 1.25,-1.25c0.69036,0 1.25,0.55964 1.25,1.25c0,0.69036 -0.55964,1.25 -1.25,1.25c-0.69036,0 -1.25,-0.55964 -1.25,-1.25z" fill="#f2bc49" stroke="none" stroke-width="0.5"/><path d="M301.36675,232.60355c0,-0.69036 0.55964,-1.25 1.25,-1.25c0.69036,0 1.25,0.55964 1.25,1.25c0,0.69036 -0.55964,1.25 -1.25,1.25c-0.69036,0 -1.25,-0.55964 -1.25,-1.25z" fill="#f2bc49" stroke="none" stroke-width="0.5"/><path d="M308.32503,234.10226c0,-0.69036 0.55964,-1.25 1.25,-1.25c0.69036,0 1.25,0.55964 1.25,1.25c0,0.69036 -0.55964,1.25 -1.25,1.25c-0.69036,0 -1.25,-0.55964 -1.25,-1.25z" fill="#f2bc49" stroke="none" stroke-width="0.5"/><path d="M310.7872,234.74456c0,-0.69036 0.55964,-1.25 1.25,-1.25c0.69036,0 1.25,0.55964 1.25,1.25c0,0.69036 -0.55964,1.25 -1.25,1.25c-0.69036,0 -1.25,-0.55964 -1.25,-1.25z" fill="#f2bc49" stroke="none" stroke-width="0.5"/><path d="M314.85511,235.27981c0,-0.69036 0.55964,-1.25 1.25,-1.25c0.69036,0 1.25,0.55964 1.25,1.25c0,0.69036 -0.55964,1.25 -1.25,1.25c-0.69036,0 -1.25,-0.55964 -1.25,-1.25z" fill="#f2bc49" stroke="none" stroke-width="0.5"/><path d="M321.38519,235.38686c0,-0.69036 0.55964,-1.25 1.25,-1.25c0.69036,0 1.25,0.55964 1.25,1.25c0,0.69036 -0.55964,1.25 -1.25,1.25c-0.69036,0 -1.25,-0.55964 -1.25,-1.25z" fill="#f2bc49" stroke="none" stroke-width="0.5"/><path d="M326.63066,234.10226c0,-0.69036 0.55964,-1.25 1.25,-1.25c0.69036,0 1.25,0.55964 1.25,1.25c0,0.69036 -0.55964,1.25 -1.25,1.25c-0.69036,0 -1.25,-0.55964 -1.25,-1.25z" fill="#f2bc49" stroke="none" stroke-width="0.5"/><path d="M332.69793,231.2465c0.69036,0 1.25,0.55964 1.25,1.25c0,0.69036 -0.55964,1.25 -1.25,1.25c-0.0544,0 -0.108,-0.00348 -0.16057,-0.01022c-0.05257,0.00674 -0.10617,0.01022 -0.16057,0.01022c-0.69036,0 -1.25,-0.55964 -1.25,-1.25c0,-0.69036 0.55964,-1.25 1.25,-1.25c0.0544,0 0.108,0.00348 0.16057,0.01022c0.05257,-0.00674 0.10617,-0.01022 0.16057,-0.01022z" fill="#f2bc49" stroke="none" stroke-width="0.5"/><path d="M341.08248,234.74456c0,-0.69036 0.55964,-1.25 1.25,-1.25c0.69036,0 1.25,0.55964 1.25,1.25c0,0.69036 -0.55964,1.25 -1.25,1.25c-0.69036,0 -1.25,-0.55964 -1.25,-1.25z" fill="#f2bc49" stroke="none" stroke-width="0.5"/><path d="M304.86417,223.50426c0,-0.41422 0.33578,-0.75 0.75,-0.75c0.41422,0 0.75,0.33578 0.75,0.75c0,0.41422 -0.33578,0.75 -0.75,0.75c-0.41422,0 -0.75,-0.33578 -0.75,-0.75z" fill="#ff9600" stroke="none" stroke-width="0.5"/><path d="M315.89036,221.8985c0,-0.41422 0.33578,-0.75 0.75,-0.75c0.41422,0 0.75,0.33578 0.75,0.75c0,0.41422 -0.33578,0.75 -0.75,0.75c-0.41422,0 -0.75,-0.33578 -0.75,-0.75z" fill="#ff9600" stroke="none" stroke-width="0.5"/><path d="M329.80692,223.82541c0,-0.41422 0.33578,-0.75 0.75,-0.75c0.41422,0 0.75,0.33578 0.75,0.75c0,0.41422 -0.33578,0.75 -0.75,0.75c-0.41422,0 -0.75,-0.33578 -0.75,-0.75z" fill="#ff9600" stroke="none" stroke-width="0.5"/><path d="M338.47801,224.57477c0,-0.41422 0.33578,-0.75 0.75,-0.75c0.41422,0 0.75,0.33578 0.75,0.75c0,0.41422 -0.33578,0.75 -0.75,0.75c-0.41422,0 -0.75,-0.33578 -0.75,-0.75z" fill="#ff9600" stroke="none" stroke-width="0.5"/><path d="M296.62128,228.85678c0,-0.41422 0.33578,-0.75 0.75,-0.75c0.41422,0 0.75,0.33578 0.75,0.75c0,0.41422 -0.33578,0.75 -0.75,0.75c-0.41422,0 -0.75,-0.33578 -0.75,-0.75z" fill="#ffc72e" stroke="none" stroke-width="0.5"/><path d="M313,230.03434c0,-0.41422 0.33578,-0.75 0.75,-0.75c0.41422,0 0.75,0.33578 0.75,0.75c0,0.41422 -0.33578,0.75 -0.75,0.75c-0.41422,0 -0.75,-0.33578 -0.75,-0.75z" fill="#ffc72e" stroke="none" stroke-width="0.5"/><path d="M335.0524,230.03434c0,-0.41422 0.33578,-0.75 0.75,-0.75c0.41422,0 0.75,0.33578 0.75,0.75c0,0.41422 -0.33578,0.75 -0.75,0.75c-0.41422,0 -0.75,-0.33578 -0.75,-0.75z" fill="#ffc72e" stroke="none" stroke-width="0.5"/><path d="M339.22737,231.6401c0,-0.41422 0.33578,-0.75 0.75,-0.75c0.41422,0 0.75,0.33578 0.75,0.75c0,0.41422 -0.33578,0.75 -0.75,0.75c-0.41422,0 -0.75,-0.33578 -0.75,-0.75z" fill="#ffc72e" stroke="none" stroke-width="0.5"/><path d="M299.51164,237.31377c0,-0.41422 0.33578,-0.75 0.75,-0.75c0.41422,0 0.75,0.33578 0.75,0.75c0,0.41422 -0.33578,0.75 -0.75,0.75c-0.41422,0 -0.75,-0.33578 -0.75,-0.75z" fill="#f2bc49" stroke="none" stroke-width="0.5"/><path d="M302.29496,235.81506c0,-0.41422 0.33578,-0.75 0.75,-0.75c0.41422,0 0.75,0.33578 0.75,0.75c0,0.41422 -0.33578,0.75 -0.75,0.75c-0.41422,0 -0.75,-0.33578 -0.75,-0.75z" fill="#f2bc49" stroke="none" stroke-width="0.5"/><path d="M311.39425,237.84901c0,-0.41422 0.33578,-0.75 0.75,-0.75c0.41422,0 0.75,0.33578 0.75,0.75c0,0.41422 -0.33578,0.75 -0.75,0.75c-0.41422,0 -0.75,-0.33578 -0.75,-0.75z" fill="#f2bc49" stroke="none" stroke-width="0.5"/><path d="M315.67626,240.31118c0,-0.41422 0.33578,-0.75 0.75,-0.75c0.41422,0 0.75,0.33578 0.75,0.75c0,0.41422 -0.33578,0.75 -0.75,0.75c-0.41422,0 -0.75,-0.33578 -0.75,-0.75z" fill="#f2bc49" stroke="none" stroke-width="0.5"/><path d="M326.59541,238.49133c0,-0.41422 0.33578,-0.75 0.75,-0.75c0.41422,0 0.75,0.33578 0.75,0.75c0,0.41422 -0.33578,0.75 -0.75,0.75c-0.41422,0 -0.75,-0.33578 -0.75,-0.75z" fill="#f2bc49" stroke="none" stroke-width="0.5"/><path d="M336.22995,236.45737c0,-0.41422 0.33578,-0.75 0.75,-0.75c0.41422,0 0.75,0.33578 0.75,0.75c0,0.41422 -0.33578,0.75 -0.75,0.75c-0.41422,0 -0.75,-0.33578 -0.75,-0.75z" fill="#f2bc49" stroke="none" stroke-width="0.5"/><path d="M342.22478,239.02658c0,-0.41422 0.33578,-0.75 0.75,-0.75c0.41422,0 0.75,0.33578 0.75,0.75c0,0.41422 -0.33578,0.75 -0.75,0.75c-0.41422,0 -0.75,-0.33578 -0.75,-0.75z" fill="#f2bc49" stroke="none" stroke-width="0.5"/></g><path d="" fill="none" stroke="#000000" stroke-width="2" stroke-linecap="round"/><g><g><path d="M370.248,133.47779l56.1943,-24.34936c0,0 -0.46581,35.19183 -4.22128,52.96002c-4.05236,19.17294 -19.27006,58.18443 -19.27006,58.18443l-29.70601,-23.40792z" fill="#f3ca58" stroke="#000000" stroke-width="0" stroke-linecap="round"/><path d="M376.84309,187.84414c9.14957,5.14243 17.372,9.97355 17.372,9.97355c0,0 -8.99669,-3.13929 -18.14625,-8.28172c-9.14957,-5.14243 -16.58155,-9.38959 -15.89319,-10.61433c0.68835,-1.22475 7.51788,3.78007 16.66744,8.92248z" fill="#ff9600" stroke="#000000" stroke-width="0" stroke-linecap="butt"/><path d="M371.33241,167.80298c0.10127,-1.40127 8.41188,0.21877 18.88022,0.97536c10.46835,0.75658 19.96529,1.62631 19.96529,1.62631c0,0 -9.47702,0.99074 -19.94537,0.23418c-10.46835,-0.75657 -19.00142,-1.43454 -18.90015,-2.83582z" fill="#ff9600" stroke="#000000" stroke-width="0" stroke-linecap="butt"/><g stroke="#000000" stroke-width="0" stroke-linecap="round"><g fill="#f2bc49"><path d="M370.47083,138.19097c-0.11576,-2.44822 -0.22283,-4.71318 -0.22283,-4.71318l56.1943,-24.34936c0,0 -0.17638,13.3262 -1.18719,27.71805c-0.02174,0.30948 -54.7817,1.39872 -54.78426,1.3445z"/></g><g fill="#ffc72e"><path d="M370.248,133.47779l56.1943,-24.34936c0,0 -0.1365,10.31291 -0.85749,22.5919c-0.00151,0.02559 -55.3368,1.75748 -55.3368,1.75748z"/></g><g fill="#ff9600"><path d="M397.28378,121.763c9.53585,-4.13195 29.1585,-12.63457 29.1585,-12.63457c0,0 0.0895,2.95497 -0.03775,6.71589c-0.04665,1.37897 -0.28444,2.87089 -0.33571,4.35869c-0.00045,0.01288 -28.96468,1.63782 -28.78503,1.56z"/></g></g><path d="M423.74976,122.13642c-0.96611,0.02743 -1.77153,-0.73353 -1.79895,-1.69965c-0.02743,-0.96611 0.73353,-1.77153 1.69965,-1.79895c0.96611,-0.02743 1.77153,0.73353 1.79895,1.69965c0.02743,0.96611 -0.73353,1.77153 -1.69965,1.79895z" fill="#ff9600" stroke="none" stroke-width="0.5" stroke-linecap="butt"/><path d="M420.03348,123.1784c-0.64255,0.01823 -1.21404,-0.31226 -1.53281,-0.81992c-0.19868,0.72238 -0.85011,1.26215 -1.63798,1.28451c-0.23161,0.00658 -0.45398,-0.03216 -0.6586,-0.10816c-0.19999,0.08749 -0.41979,0.13878 -0.6514,0.14536c-0.96611,0.02743 -1.77153,-0.73353 -1.79895,-1.69965c-0.02743,-0.96611 0.73353,-1.77153 1.69965,-1.79895c0.23161,-0.00658 0.45398,0.03216 0.6586,0.10816c0.19999,-0.08749 0.41979,-0.13878 0.6514,-0.14536c0.64256,-0.01824 1.21404,0.31226 1.53281,0.81993c0.19868,-0.72238 0.85011,-1.26216 1.63798,-1.28452c0.96611,-0.02743 1.77153,0.73353 1.79895,1.69965c0.02743,0.96611 -0.73353,1.77153 -1.69965,1.79895z" fill="#ff9600" stroke="none" stroke-width="0.5" stroke-linecap="butt"/><path d="M411.97044,122.8454c-0.96611,0.02743 -1.77153,-0.73353 -1.79895,-1.69965c-0.02743,-0.96611 0.73353,-1.77153 1.69965,-1.79895c0.96611,-0.02743 1.77153,0.73353 1.79895,1.69965c0.02743,0.96611 -0.73353,1.77153 -1.69965,1.79895z" fill="#ff9600" stroke="none" stroke-width="0.5" stroke-linecap="butt"/><path d="M405.94467,122.0755c-0.0395,-0.13802 -0.06255,-0.28317 -0.0668,-0.43329c-0.02743,-0.96611 0.73353,-1.77153 1.69965,-1.79895c0.96611,-0.02743 1.77153,0.73353 1.79895,1.69965c0.02743,0.96611 -0.73353,1.77153 -1.69965,1.79895c-0.15011,0.00426 -0.29634,-0.01051 -0.43638,-0.04213c0.01378,0.68538 -0.52772,1.25493 -1.21429,1.27442c-0.69007,0.01959 -1.26538,-0.52395 -1.28497,-1.21402c-0.01949,-0.68656 0.51842,-1.2595 1.20348,-1.28462z" fill="#ff9600" stroke="none" stroke-width="0.5" stroke-linecap="butt"/><path d="M402.81113,123.47998c-0.96611,0.02743 -1.77153,-0.73353 -1.79895,-1.69965c-0.02743,-0.96611 0.73353,-1.77153 1.69965,-1.79895c0.96611,-0.02743 1.77153,0.73353 1.79895,1.69965c0.02743,0.96611 -0.73353,1.77153 -1.69965,1.79895z" fill="#ff9600" stroke="none" stroke-width="0.5" stroke-linecap="butt"/><path d="M422.9486,126.90318c-0.69008,0.01959 -1.26538,-0.52395 -1.28497,-1.21402c-0.01959,-0.69007 0.52394,-1.26537 1.21402,-1.28497c0.69008,-0.01959 1.26538,0.52395 1.28497,1.21402c0.01959,0.69007 -0.52394,1.26537 -1.21402,1.28497z" fill="#ff9600" stroke="none" stroke-width="0.5" stroke-linecap="butt"/><path d="M416.08279,129.15829c-0.69008,0.01959 -1.26538,-0.52395 -1.28497,-1.21402c-0.01959,-0.69007 0.52394,-1.26537 1.21402,-1.28497c0.69008,-0.01959 1.26538,0.52395 1.28497,1.21402c0.01959,0.69007 -0.52394,1.26537 -1.21402,1.28497z" fill="#ff9600" stroke="none" stroke-width="0.5" stroke-linecap="butt"/><path d="M412.04656,125.52702c-0.69007,0.01959 -1.26538,-0.52395 -1.28497,-1.21402c-0.01959,-0.69007 0.52395,-1.26538 1.21402,-1.28497c0.69008,-0.01959 1.26538,0.52395 1.28497,1.21402c0.01959,0.69007 -0.52394,1.26537 -1.21402,1.28497z" fill="#ff9600" stroke="none" stroke-width="0.5" stroke-linecap="butt"/><path d="M396.66375,124.65263c-0.69008,0.01959 -1.26538,-0.52395 -1.28497,-1.21402c-0.01959,-0.69007 0.52394,-1.26537 1.21402,-1.28497c0.69008,-0.01959 1.26538,0.52395 1.28497,1.21402c0.01959,0.69007 -0.52394,1.26537 -1.21402,1.28497z" fill="#ff9600" stroke="none" stroke-width="0.5" stroke-linecap="butt"/><path d="M392.63163,127.76378c-0.69008,0.01959 -1.26538,-0.52395 -1.28497,-1.21402c-0.01959,-0.69007 0.52394,-1.26537 1.21402,-1.28497c0.69008,-0.01959 1.26538,0.52395 1.28497,1.21402c0.01959,0.69007 -0.52394,1.26537 -1.21402,1.28497z" fill="#ff9600" stroke="none" stroke-width="0.5" stroke-linecap="butt"/><path d="M423.4546,133.94426c-0.96611,0.02743 -1.77153,-0.73353 -1.79895,-1.69965c-0.02743,-0.96611 0.73353,-1.77153 1.69965,-1.79895c0.96611,-0.02743 1.77153,0.73353 1.79895,1.69965c0.02743,0.96611 -0.73353,1.77153 -1.69965,1.79895z" fill="#ffc72e" stroke="none" stroke-width="0.5" stroke-linecap="butt"/><path d="M418.18806,133.15728c-0.96611,0.02743 -1.77153,-0.73353 -1.79895,-1.69965c-0.02743,-0.96611 0.73353,-1.77153 1.69965,-1.79895c0.96611,-0.02743 1.77153,0.73353 1.79895,1.69965c0.02743,0.96611 -0.73353,1.77153 -1.69965,1.79895z" fill="#ffc72e" stroke="none" stroke-width="0.5" stroke-linecap="butt"/><path d="M410.17707,131.13132c0.19827,-0.0858 0.41589,-0.13606 0.64503,-0.14256c0.50763,-0.01441 0.97091,0.18884 1.30026,0.52514c0.00854,-0.00035 0.01711,-0.00068 0.02568,-0.00091c0.96611,-0.02743 1.77153,0.73353 1.79895,1.69965c0.02743,0.96611 -0.73353,1.77153 -1.69965,1.79895c-0.50763,0.01441 -0.97091,-0.18884 -1.30026,-0.52514c-0.00854,0.00035 -0.01711,0.00068 -0.02568,0.00091c-0.47594,0.01351 -0.91289,-0.16431 -1.23702,-0.46372c-0.19828,0.0858 -0.41589,0.13606 -0.64503,0.14256c-0.96611,0.02743 -1.77153,-0.73353 -1.79895,-1.69965c-0.02743,-0.96611 0.73353,-1.77153 1.69965,-1.79895c0.47594,-0.01351 0.91289,0.16431 1.23703,0.46372z" fill="#ffc72e" stroke="none" stroke-width="0.5" stroke-linecap="butt"/><path d="M399.62892,135.56566c-0.69008,0.01959 -1.26538,-0.52395 -1.28497,-1.21402c-0.01679,-0.59186 0.38064,-1.0993 0.92949,-1.2441c-0.28412,-0.3013 -0.46299,-0.704 -0.47567,-1.15052c-0.02743,-0.96611 0.73353,-1.77153 1.69965,-1.79895c0.53472,-0.01518 1.02021,0.21115 1.35182,0.5801c0.29735,-0.49311 0.83164,-0.82938 1.45,-0.84693c0.96611,-0.02743 1.77153,0.73353 1.79895,1.69965c0.02743,0.96611 -0.73353,1.77153 -1.69965,1.79895c-0.53472,0.01518 -1.0202,-0.21116 -1.3518,-0.58011c-0.28814,0.47783 -0.79877,0.80839 -1.39278,0.84439c0.11399,0.18221 0.18245,0.39622 0.18899,0.62659c0.01959,0.69007 -0.52394,1.26537 -1.21402,1.28497z" fill="#ffc72e" stroke="none" stroke-width="0.5" stroke-linecap="butt"/><path d="M396.29248,133.77883c-0.96611,0.02743 -1.77153,-0.73353 -1.79895,-1.69965c-0.02743,-0.96611 0.73353,-1.77153 1.69965,-1.79895c0.96611,-0.02743 1.77153,0.73353 1.79895,1.69965c0.02743,0.96611 -0.73353,1.77153 -1.69965,1.79895z" fill="#ffc72e" stroke="none" stroke-width="0.5" stroke-linecap="butt"/><path d="M385.56468,133.71196c-0.02273,-0.04013 -0.04389,-0.08127 -0.06345,-0.12333c-0.30802,0.4246 -0.80279,0.70661 -1.36767,0.72265c-0.63476,0.01802 -1.20015,-0.30428 -1.5211,-0.80151c-0.29222,0.51464 -0.83841,0.86849 -1.47316,0.88651c-0.5649,0.01603 -1.07485,-0.23746 -1.40646,-0.6439c-0.25044,0.6297 -0.85678,1.08273 -1.57717,1.10319c-0.96611,0.02743 -1.77153,-0.73353 -1.79895,-1.69965c-0.02743,-0.96611 0.73353,-1.77153 1.69965,-1.79895c0.5649,-0.01603 1.07484,0.23746 1.40645,0.6439c0.25044,-0.6297 0.85678,-1.08273 1.57717,-1.10319c0.63476,-0.01802 1.20014,0.3043 1.52109,0.80153c0.29222,-0.51464 0.83842,-0.86849 1.47317,-0.88652c0.72041,-0.02045 1.35148,0.39747 1.63722,1.01194c0.30802,-0.4246 0.80278,-0.70661 1.36767,-0.72265c0.71501,-0.02029 1.342,0.39123 1.63073,0.99816c0.30533,-0.30769 0.72481,-0.50314 1.19232,-0.5164c0.96611,-0.02743 1.77153,0.73353 1.79895,1.69965c0.02743,0.96611 -0.73353,1.77153 -1.69965,1.79895c-0.71502,0.02029 -1.342,-0.39123 -1.63073,-0.99816c-0.10762,0.10845 -0.2294,0.20295 -0.36247,0.28044c-0.10109,0.57177 -0.59229,1.01344 -1.19546,1.03055c-0.69008,0.01959 -1.26538,-0.52395 -1.28497,-1.21402c-0.00469,-0.16495 0.02279,-0.32335 0.07678,-0.46916z" fill="#ffc72e" stroke="none" stroke-width="0.5" stroke-linecap="butt"/><path d="M423.40558,138.81526c-0.96611,0.02743 -1.77153,-0.73353 -1.79895,-1.69965c-0.02743,-0.96611 0.73353,-1.77153 1.69965,-1.79895c0.96611,-0.02743 1.77153,0.73353 1.79895,1.69965c0.02743,0.96611 -0.73353,1.77153 -1.69965,1.79895z" fill="#f2bc49" stroke="none" stroke-width="0.5" stroke-linecap="butt"/><path d="M415.84953,136.54875c0.26572,-0.17931 0.58387,-0.28783 0.92802,-0.29759c0.5144,-0.01461 0.98324,0.1943 1.31336,0.53867c0.16837,-0.766 0.84021,-1.34897 1.65966,-1.37223c0.96611,-0.02743 1.77153,0.73353 1.79895,1.69965c0.02743,0.96611 -0.73353,1.77153 -1.69965,1.79895c-0.5144,0.01461 -0.98325,-0.1943 -1.31337,-0.53867c-0.16837,0.766 -0.84021,1.34897 -1.65966,1.37223c-0.34415,0.00977 -0.66793,-0.08051 -0.9434,-0.24446c-0.26572,0.17931 -0.58386,0.28783 -0.92801,0.29759c-0.96611,0.02743 -1.77153,-0.73353 -1.79895,-1.69965c-0.02743,-0.96611 0.73353,-1.77153 1.69965,-1.79895c0.34415,-0.00977 0.66792,0.08051 0.94339,0.24446z" fill="#f2bc49" stroke="none" stroke-width="0.5" stroke-linecap="butt"/><path d="M410.50342,139.55608c-0.96611,0.02743 -1.77153,-0.73353 -1.79895,-1.69965c-0.02743,-0.96611 0.73353,-1.77153 1.69965,-1.79895c0.96611,-0.02743 1.77153,0.73353 1.79895,1.69965c0.02743,0.96611 -0.73353,1.77153 -1.69965,1.79895z" fill="#f2bc49" stroke="none" stroke-width="0.5" stroke-linecap="butt"/><path d="M404.93678,136.29105c0.30973,-0.39968 0.78937,-0.66262 1.33426,-0.6781c0.96611,-0.02743 1.77153,0.73353 1.79895,1.69965c0.02743,0.96611 -0.73353,1.77153 -1.69965,1.79895c-0.18071,0.00513 -0.3558,-0.01733 -0.52122,-0.06354c-0.30973,0.39968 -0.78937,0.66262 -1.33426,0.6781c-0.96611,0.02743 -1.77153,-0.73353 -1.79895,-1.69965c-0.02743,-0.96611 0.73353,-1.77153 1.69965,-1.79895c0.18072,-0.00513 0.3558,0.01733 0.52123,0.06354z" fill="#f2bc49" stroke="none" stroke-width="0.5" stroke-linecap="butt"/><path d="M398.06463,139.32103c-0.09811,0.02005 -0.19928,0.03193 -0.30281,0.03486c-0.56803,0.01612 -1.08051,-0.2403 -1.41198,-0.65071c-0.30697,0.32008 -0.735,0.52436 -1.21333,0.53795c-0.47832,0.01359 -0.91725,-0.16608 -1.24187,-0.46823c-0.30764,0.42856 -0.80475,0.71363 -1.37279,0.72975c-0.96611,0.02743 -1.77153,-0.73353 -1.79895,-1.69965c-0.02743,-0.96611 0.73353,-1.77153 1.69965,-1.79895c0.47833,-0.01359 0.91725,0.16608 1.24187,0.46823c0.30764,-0.42856 0.80475,-0.71363 1.3728,-0.72975c0.56803,-0.01612 1.08051,0.2403 1.41199,0.65071c0.30697,-0.32008 0.735,-0.52436 1.21332,-0.53794c0.71501,-0.02029 1.342,0.39123 1.63073,0.99816c0.30533,-0.30769 0.72481,-0.50315 1.19232,-0.51641c0.96611,-0.02743 1.77153,0.73353 1.79895,1.69965c0.02743,0.96611 -0.73353,1.77153 -1.69965,1.79895c-0.08022,0.00228 -0.15931,-0.00088 -0.23696,-0.00914c-0.2166,0.33013 -0.58573,0.55259 -1.01035,0.56464c-0.64201,0.01822 -1.18467,-0.45097 -1.27293,-1.0721z" fill="#f2bc49" stroke="none" stroke-width="0.5" stroke-linecap="butt"/><path d="M388.76308,139.04947c-0.96611,0.02743 -1.77153,-0.73353 -1.79895,-1.69965c-0.02743,-0.96611 0.73353,-1.77153 1.69965,-1.79895c0.96611,-0.02743 1.77153,0.73353 1.79895,1.69965c0.02743,0.96611 -0.73353,1.77153 -1.69965,1.79895z" fill="#f2bc49" stroke="none" stroke-width="0.5" stroke-linecap="butt"/><path d="M385.22864,139.89898c-0.96611,0.02743 -1.77153,-0.73353 -1.79895,-1.69965c-0.02743,-0.96611 0.73353,-1.77153 1.69965,-1.79895c0.96611,-0.02743 1.77153,0.73353 1.79895,1.69965c0.02743,0.96611 -0.73353,1.77153 -1.69965,1.79895z" fill="#f2bc49" stroke="none" stroke-width="0.5" stroke-linecap="butt"/><path d="M419.24467,136.18685c-0.69007,0.01959 -1.26538,-0.52395 -1.28497,-1.21402c-0.01959,-0.69007 0.52395,-1.26538 1.21402,-1.28497c0.69008,-0.01959 1.26538,0.52395 1.28497,1.21402c0.01959,0.69007 -0.52394,1.26537 -1.21402,1.28497z" fill="#ffc72e" stroke="none" stroke-width="0.5" stroke-linecap="butt"/><path d="M406.03417,134.84837c-0.69008,0.01959 -1.26538,-0.52395 -1.28497,-1.21402c-0.01959,-0.69007 0.52394,-1.26537 1.21402,-1.28497c0.69007,-0.01959 1.26538,0.52395 1.28497,1.21402c0.01959,0.69007 -0.52395,1.26538 -1.21402,1.28497z" fill="#ffc72e" stroke="none" stroke-width="0.5" stroke-linecap="butt"/><path d="M393.22367,136.28295c-0.69008,0.01959 -1.26538,-0.52395 -1.28497,-1.21402c-0.01959,-0.69007 0.52394,-1.26537 1.21402,-1.28497c0.69008,-0.01959 1.26538,0.52395 1.28497,1.21402c0.01959,0.69007 -0.52394,1.26537 -1.21402,1.28497z" fill="#ffc72e" stroke="none" stroke-width="0.5" stroke-linecap="butt"/><path d="M419.68652,144.20635c-0.69008,0.01959 -1.26538,-0.52395 -1.28497,-1.21402c-0.01959,-0.69007 0.52394,-1.26537 1.21402,-1.28497c0.69008,-0.01959 1.26538,0.52395 1.28497,1.21402c0.01959,0.69007 -0.52394,1.26537 -1.21402,1.28497z" fill="#f2bc49" stroke="none" stroke-width="0.5" stroke-linecap="butt"/><path d="M414.67235,144.88415c-0.69007,0.01959 -1.26537,-0.52394 -1.28497,-1.21402c-0.01959,-0.69007 0.52395,-1.26538 1.21402,-1.28497c0.69008,-0.01959 1.26537,0.52394 1.28497,1.21402c0.01959,0.69008 -0.52394,1.26537 -1.21402,1.28497z" fill="#f2bc49" stroke="none" stroke-width="0.5" stroke-linecap="butt"/><path d="M410.38599,144.79164c-0.69007,0.01959 -1.26537,-0.52394 -1.28497,-1.21402c-0.01959,-0.69007 0.52395,-1.26538 1.21402,-1.28497c0.69008,-0.01959 1.26537,0.52394 1.28497,1.21402c0.01959,0.69008 -0.52394,1.26537 -1.21402,1.28497z" fill="#f2bc49" stroke="none" stroke-width="0.5" stroke-linecap="butt"/><path d="M400.70066,143.13889c-0.69008,0.01959 -1.26538,-0.52395 -1.28497,-1.21402c-0.01959,-0.69007 0.52394,-1.26537 1.21402,-1.28497c0.69008,-0.01959 1.26538,0.52395 1.28497,1.21402c0.01959,0.69007 -0.52394,1.26537 -1.21402,1.28497z" fill="#f2bc49" stroke="none" stroke-width="0.5" stroke-linecap="butt"/><path d="M394.66874,141.91791c-0.69008,0.01959 -1.26538,-0.52395 -1.28497,-1.21402c-0.01959,-0.69007 0.52394,-1.26537 1.21402,-1.28497c0.69008,-0.01959 1.26538,0.52395 1.28497,1.21402c0.01959,0.69007 -0.52394,1.26537 -1.21402,1.28497z" fill="#f2bc49" stroke="none" stroke-width="0.5" stroke-linecap="butt"/><path d="M390.53799,143.53446c-0.69008,0.01959 -1.26538,-0.52395 -1.28497,-1.21402c-0.01959,-0.69007 0.52394,-1.26537 1.21402,-1.28497c0.69008,-0.01959 1.26538,0.52395 1.28497,1.21402c0.01959,0.69007 -0.52394,1.26537 -1.21402,1.28497z" fill="#f2bc49" stroke="none" stroke-width="0.5" stroke-linecap="butt"/><path d="M387.63968,143.29546c-0.69008,0.01959 -1.26538,-0.52395 -1.28497,-1.21402c-0.01959,-0.69007 0.52394,-1.26537 1.21402,-1.28497c0.69008,-0.01959 1.26538,0.52395 1.28497,1.21402c0.01959,0.69007 -0.52394,1.26537 -1.21402,1.28497z" fill="#f2bc49" stroke="none" stroke-width="0.5" stroke-linecap="butt"/><path d="M417.73638,147.1885c-0.41405,0.01175 -0.75922,-0.31436 -0.77098,-0.72841c-0.01175,-0.41405 0.31436,-0.75922 0.72841,-0.77098c0.41405,-0.01175 0.75922,0.31436 0.77098,0.72841c0.01175,0.41405 -0.31436,0.75922 -0.72841,0.77098z" fill="#f2bc49" stroke="none" stroke-width="0.5" stroke-linecap="butt"/><path d="M409.32534,148.92657c-0.41405,0.01175 -0.75922,-0.31436 -0.77098,-0.72841c-0.01175,-0.41405 0.31436,-0.75922 0.72841,-0.77098c0.41405,-0.01175 0.75922,0.31436 0.77098,0.72841c0.01175,0.41405 -0.31436,0.75922 -0.72841,0.77098z" fill="#f2bc49" stroke="none" stroke-width="0.5" stroke-linecap="butt"/><path d="M395.87582,150.48639c-0.41405,0.01175 -0.75922,-0.31436 -0.77098,-0.72841c-0.01175,-0.41405 0.31436,-0.75922 0.72841,-0.77098c0.41405,-0.01175 0.75922,0.31436 0.77098,0.72841c0.01175,0.41405 -0.31436,0.75922 -0.72841,0.77098z" fill="#f2bc49" stroke="none" stroke-width="0.5" stroke-linecap="butt"/><path d="M415.84879,137.28237c-0.41405,0.01175 -0.75922,-0.31437 -0.77098,-0.72841c-0.01175,-0.41404 0.31436,-0.75922 0.72841,-0.77098c0.41405,-0.01175 0.75922,0.31437 0.77098,0.72841c0.01175,0.41404 -0.31436,0.75922 -0.72841,0.77098z" fill="#ffc72e" stroke="none" stroke-width="0.5" stroke-linecap="butt"/><path d="M399.3666,137.64316c-0.41405,0.01175 -0.75922,-0.31437 -0.77098,-0.72841c-0.01175,-0.41404 0.31436,-0.75922 0.72841,-0.77098c0.41405,-0.01175 0.75922,0.31437 0.77098,0.72841c0.01175,0.41404 -0.31436,0.75922 -0.72841,0.77098z" fill="#ffc72e" stroke="none" stroke-width="0.5" stroke-linecap="butt"/><path d="M384.99117,136.7661c-0.41405,0.01175 -0.75922,-0.31437 -0.77098,-0.72841c-0.01175,-0.41404 0.31436,-0.75922 0.72841,-0.77098c0.41405,-0.01175 0.75922,0.31437 0.77098,0.72841c0.01175,0.41404 -0.31436,0.75922 -0.72841,0.77098z" fill="#ffc72e" stroke="none" stroke-width="0.5" stroke-linecap="butt"/><path d="M361.29733,153.55737c-0.66431,-1.23795 7.22315,-4.31668 16.47135,-9.27952c9.2482,-4.96284 17.73631,-9.31026 17.73631,-9.31026c0,0 -7.47568,5.90843 -16.72388,10.87126c-9.2482,4.96283 -16.81945,8.95645 -17.48376,7.71851z" fill="#ff9600" stroke="#000000" stroke-width="0" stroke-linecap="butt"/></g><g><path d="M267.90731,199.85516l-28.33029,25.05538c0,0 -17.40623,-38.0854 -22.53971,-56.99758c-4.75736,-17.52655 -7.21877,-52.63528 -7.21877,-52.63528l57.48508,21.12237z" fill="#f3ca58" stroke="#000000" stroke-width="0" stroke-linecap="round"/><path d="M279.93768,181.19934c0.75672,1.18373 -6.42236,5.84565 -15.26548,11.49882c-8.8431,5.65318 -17.64722,9.29777 -17.64722,9.29777c0,0 7.93514,-5.2898 16.77825,-10.94296c8.84311,-5.65318 15.37772,-11.03735 16.13445,-9.85362z" fill="#ff9600" stroke="#000000" stroke-width="0" stroke-linecap="butt"/><path d="M268.16813,170.73148c0.18059,1.39327 -8.30028,2.55421 -18.70884,3.90341c-10.40858,1.34919 -19.92653,0.89767 -19.92653,0.89767c0,0 9.43231,-1.40706 19.84088,-2.75627c10.40858,-1.34919 18.6139,-3.43809 18.7945,-2.04481z" fill="#ff9600" stroke="#000000" stroke-width="0" stroke-linecap="butt"/><g stroke="#000000" stroke-width="0" stroke-linecap="round"><g fill="#f2bc49"><path d="M212.57618,142.88374c-1.82559,-14.31134 -2.75766,-27.60605 -2.75766,-27.60605l57.48508,21.12237c0,0 0.02158,2.26737 0.04489,4.71823c0.00052,0.05429 -54.73307,2.07318 -54.77231,1.76545z"/></g><g fill="#ffc72e"><path d="M211.95623,137.78454c-1.41638,-12.2183 -2.13769,-22.50686 -2.13769,-22.50686l57.48508,21.12237c0,0 -55.34444,1.40994 -55.34739,1.38449z"/></g><g fill="#ff9600"><path d="M210.81964,126.31325c-0.13559,-1.48249 -0.45763,-2.95853 -0.58243,-4.33263c-0.3404,-3.74765 -0.41866,-6.70293 -0.41866,-6.70293c0,0 20.07338,7.37578 29.82828,10.96012c0.18376,0.06752 -28.826,0.08828 -28.82718,0.07543z"/></g></g><path d="M211.44569,126.41233c-0.02743,-0.96611 0.73353,-1.77153 1.69965,-1.79895c0.96611,-0.02743 1.77153,0.73353 1.79895,1.69965c0.02743,0.96611 -0.73353,1.77153 -1.69965,1.79895c-0.96611,0.02743 -1.77153,-0.73353 -1.79895,-1.69965z" fill="#ff9600" stroke="none" stroke-width="0.5" stroke-linecap="butt"/><path d="M215.21509,127.2418c-0.02743,-0.96611 0.73353,-1.77153 1.69965,-1.79895c0.78786,-0.02236 1.46888,0.4796 1.7082,1.18954c0.28946,-0.52493 0.84127,-0.88733 1.48384,-0.90556c0.23161,-0.00658 0.45398,0.03216 0.6586,0.10816c0.19999,-0.08749 0.41979,-0.13878 0.6514,-0.14536c0.96611,-0.02743 1.77153,0.73353 1.79895,1.69965c0.02743,0.96611 -0.73353,1.77153 -1.69965,1.79895c-0.23161,0.00658 -0.45398,-0.03216 -0.6586,-0.10816c-0.19999,0.08749 -0.41979,0.13878 -0.6514,0.14536c-0.78786,0.02236 -1.46888,-0.47959 -1.70821,-1.18953c-0.28946,0.52493 -0.84127,0.88732 -1.48384,0.90555c-0.96611,0.02743 -1.77153,-0.73353 -1.79895,-1.69965z" fill="#ff9600" stroke="none" stroke-width="0.5" stroke-linecap="butt"/><path d="M223.24625,126.45195c-0.02743,-0.96611 0.73353,-1.77153 1.69965,-1.79895c0.96611,-0.02743 1.77153,0.73353 1.79895,1.69965c0.02743,0.96611 -0.73353,1.77153 -1.69965,1.79895c-0.96611,0.02743 -1.77153,-0.73353 -1.79895,-1.69965z" fill="#ff9600" stroke="none" stroke-width="0.5" stroke-linecap="butt"/><path d="M232.29202,128.25539c0.01959,0.69007 -0.52394,1.26537 -1.21402,1.28497c-0.68656,0.01949 -1.2595,-0.51842 -1.28463,-1.20348c-0.13802,0.0395 -0.28317,0.06255 -0.43329,0.0668c-0.96611,0.02743 -1.77153,-0.73353 -1.79895,-1.69965c-0.02743,-0.96611 0.73353,-1.77153 1.69965,-1.79895c0.96611,-0.02743 1.77153,0.73353 1.79895,1.69965c0.00426,0.15011 -0.0105,0.29634 -0.04213,0.43638c0.68538,-0.01378 1.25492,0.52772 1.27441,1.21428z" fill="#ff9600" stroke="none" stroke-width="0.5" stroke-linecap="butt"/><path d="M232.42683,126.56593c-0.02743,-0.96611 0.73353,-1.77153 1.69965,-1.79895c0.96611,-0.02743 1.77153,0.73353 1.79895,1.69965c0.02743,0.96611 -0.73353,1.77153 -1.69965,1.79895c-0.96611,0.02743 -1.77153,-0.73353 -1.79895,-1.69965z" fill="#ff9600" stroke="none" stroke-width="0.5" stroke-linecap="butt"/><path d="M213.02995,131.61157c-0.01959,-0.69007 0.52394,-1.26537 1.21402,-1.28497c0.69008,-0.01959 1.26538,0.52395 1.28497,1.21402c0.01959,0.69007 -0.52394,1.26537 -1.21402,1.28497c-0.69008,0.01959 -1.26538,-0.52395 -1.28497,-1.21402z" fill="#ff9600" stroke="none" stroke-width="0.5" stroke-linecap="butt"/><path d="M220.01264,133.47358c-0.01959,-0.69007 0.52394,-1.26537 1.21402,-1.28497c0.69008,-0.01959 1.26538,0.52395 1.28497,1.21402c0.01959,0.69007 -0.52394,1.26537 -1.21402,1.28497c-0.69008,0.01959 -1.26538,-0.52395 -1.28497,-1.21402z" fill="#ff9600" stroke="none" stroke-width="0.5" stroke-linecap="butt"/><path d="M223.83636,129.61917c-0.01959,-0.69007 0.52394,-1.26537 1.21402,-1.28497c0.69008,-0.01959 1.26538,0.52395 1.28497,1.21402c0.01959,0.69007 -0.52394,1.26537 -1.21402,1.28497c-0.69008,0.01959 -1.26538,-0.52395 -1.28497,-1.21402z" fill="#ff9600" stroke="none" stroke-width="0.5" stroke-linecap="butt"/><path d="M239.1448,127.87357c-0.01959,-0.69008 0.52394,-1.26537 1.21402,-1.28497c0.69008,-0.01959 1.26537,0.52394 1.28497,1.21402c0.01959,0.69008 -0.52394,1.26537 -1.21402,1.28497c-0.69008,0.01959 -1.26537,-0.52394 -1.28497,-1.21402z" fill="#ff9600" stroke="none" stroke-width="0.5" stroke-linecap="butt"/><path d="M243.34692,130.75096c-0.01959,-0.69008 0.52394,-1.26537 1.21402,-1.28497c0.69008,-0.01959 1.26537,0.52394 1.28497,1.21402c0.01959,0.69008 -0.52394,1.26537 -1.21402,1.28497c-0.69008,0.01959 -1.26537,-0.52394 -1.28497,-1.21402z" fill="#ff9600" stroke="none" stroke-width="0.5" stroke-linecap="butt"/><path d="M212.41019,138.18441c-0.02743,-0.96611 0.73353,-1.77153 1.69965,-1.79895c0.96611,-0.02743 1.77153,0.73353 1.79895,1.69965c0.02743,0.96611 -0.73353,1.77153 -1.69965,1.79895c-0.96611,0.02743 -1.77153,-0.73353 -1.79895,-1.69965z" fill="#ffc72e" stroke="none" stroke-width="0.5" stroke-linecap="butt"/><path d="M217.6236,137.09995c-0.02743,-0.96611 0.73353,-1.77153 1.69965,-1.79895c0.96611,-0.02743 1.77153,0.73353 1.79895,1.69965c0.02743,0.96611 -0.73353,1.77153 -1.69965,1.79895c-0.96611,0.02743 -1.77153,-0.73353 -1.79895,-1.69965z" fill="#ffc72e" stroke="none" stroke-width="0.5" stroke-linecap="butt"/><path d="M228.51444,135.78926c0.96611,-0.02743 1.77153,0.73353 1.79895,1.69965c0.02743,0.96611 -0.73353,1.77153 -1.69965,1.79895c-0.22914,0.00651 -0.44923,-0.03134 -0.65208,-0.10575c-0.30663,0.31732 -0.73278,0.51966 -1.20873,0.53317c-0.00858,0.00024 -0.01713,0.00043 -0.02568,0.00054c-0.30975,0.35445 -0.76073,0.58366 -1.26837,0.59807c-0.96611,0.02743 -1.77153,-0.73353 -1.79895,-1.69965c-0.02743,-0.96611 0.73353,-1.77153 1.69965,-1.79895c0.00858,-0.00024 0.01713,-0.00043 0.02568,-0.00054c0.30975,-0.35445 0.76073,-0.58366 1.26837,-0.59807c0.22914,-0.00651 0.44923,0.03134 0.65208,0.10575c0.30663,-0.31732 0.73278,-0.51966 1.20873,-0.53317z" fill="#ffc72e" stroke="none" stroke-width="0.5" stroke-linecap="butt"/><path d="M236.80347,138.93724c-0.00653,-0.23036 0.04967,-0.44793 0.15314,-0.63632c-0.59509,-0.00224 -1.12366,-0.30328 -1.43843,-0.76402c-0.31015,0.38717 -0.78201,0.64066 -1.31673,0.65585c-0.96611,0.02743 -1.77153,-0.73353 -1.79895,-1.69965c-0.02743,-0.96611 0.73353,-1.77153 1.69965,-1.79895c0.61835,-0.01756 1.17087,0.28785 1.49571,0.7633c0.31015,-0.38717 0.78201,-0.64066 1.31673,-0.65585c0.96611,-0.02743 1.77153,0.73353 1.79895,1.69965c0.01268,0.44653 -0.14306,0.85872 -0.40964,1.17566c0.55618,0.11345 0.98177,0.59751 0.99857,1.18937c0.01959,0.69008 -0.52394,1.26537 -1.21402,1.28497c-0.69008,0.01959 -1.26537,-0.52394 -1.28497,-1.21402z" fill="#ffc72e" stroke="none" stroke-width="0.5" stroke-linecap="butt"/><path d="M239.51921,136.4784c-0.02743,-0.96611 0.73353,-1.77153 1.69965,-1.79895c0.96611,-0.02743 1.77153,0.73353 1.79895,1.69965c0.02743,0.96611 -0.73353,1.77153 -1.69965,1.79895c-0.96611,0.02743 -1.77153,-0.73353 -1.79895,-1.69965z" fill="#ffc72e" stroke="none" stroke-width="0.5" stroke-linecap="butt"/><path d="M252.12816,137.96675c0.01959,0.69008 -0.52394,1.26537 -1.21402,1.28497c-0.60316,0.01712 -1.11863,-0.39597 -1.252,-0.96108c-0.13725,-0.06982 -0.2642,-0.15726 -0.37779,-0.25941c-0.25385,0.62233 -0.85648,1.06877 -1.57148,1.08906c-0.96611,0.02743 -1.77153,-0.73353 -1.79895,-1.69965c-0.02743,-0.96611 0.73353,-1.77153 1.69965,-1.79895c0.4675,-0.01327 0.8974,0.15807 1.2197,0.44794c0.25385,-0.62233 0.85648,-1.06877 1.57148,-1.08906c0.5649,-0.01603 1.07484,0.23746 1.40645,0.64391c0.25044,-0.6297 0.85678,-1.08273 1.57717,-1.10319c0.63476,-0.01802 1.20015,0.30429 1.5211,0.80152c0.29222,-0.51463 0.83841,-0.8685 1.47317,-0.88652c0.72041,-0.02045 1.35148,0.39747 1.63722,1.01194c0.30802,-0.4246 0.80279,-0.70662 1.36766,-0.72266c0.96611,-0.02743 1.77153,0.73353 1.79895,1.69965c0.02743,0.96611 -0.73353,1.77153 -1.69965,1.79895c-0.72041,0.02045 -1.35148,-0.39747 -1.63722,-1.01194c-0.30802,0.4246 -0.80279,0.70662 -1.36766,0.72266c-0.63476,0.01802 -1.20015,-0.30429 -1.5211,-0.80152c-0.29222,0.51463 -0.83841,0.8685 -1.47317,0.88652c-0.5649,0.01603 -1.07484,-0.23746 -1.40645,-0.64391c-0.01714,0.04308 -0.03596,0.08536 -0.05635,0.12674c0.06216,0.14252 0.0986,0.29909 0.10328,0.46404z" fill="#ffc72e" stroke="none" stroke-width="0.5" stroke-linecap="butt"/><path d="M212.73546,143.04477c-0.02743,-0.96611 0.73353,-1.77153 1.69965,-1.79895c0.96611,-0.02743 1.77153,0.73353 1.79895,1.69965c0.02743,0.96611 -0.73353,1.77153 -1.69965,1.79895c-0.96611,0.02743 -1.77153,-0.73353 -1.79895,-1.69965z" fill="#f2bc49" stroke="none" stroke-width="0.5" stroke-linecap="butt"/><path d="M222.87773,141.75534c0.96611,-0.02743 1.77153,0.73353 1.79895,1.69965c0.02743,0.96611 -0.73353,1.77153 -1.69965,1.79895c-0.34415,0.00977 -0.66793,-0.08051 -0.9434,-0.24446c-0.26572,0.17931 -0.58387,0.28783 -0.92802,0.29759c-0.81945,0.02326 -1.52329,-0.52067 -1.73484,-1.27587c-0.31003,0.36254 -0.76628,0.5977 -1.28068,0.6123c-0.96611,0.02743 -1.77153,-0.73353 -1.79895,-1.69965c-0.02743,-0.96611 0.73353,-1.77153 1.69965,-1.79895c0.81945,-0.02326 1.52329,0.52067 1.73484,1.27587c0.31003,-0.36254 0.76628,-0.5977 1.28068,-0.6123c0.34415,-0.00977 0.66793,0.08051 0.9434,0.24446c0.26572,-0.17931 0.58387,-0.28783 0.92802,-0.29759z" fill="#f2bc49" stroke="none" stroke-width="0.5" stroke-linecap="butt"/><path d="M225.65887,143.05251c-0.02743,-0.96611 0.73353,-1.77153 1.69965,-1.79895c0.96611,-0.02743 1.77153,0.73353 1.79895,1.69965c0.02743,0.96611 -0.73353,1.77153 -1.69965,1.79895c-0.96611,0.02743 -1.77153,-0.73353 -1.79895,-1.69965z" fill="#f2bc49" stroke="none" stroke-width="0.5" stroke-linecap="butt"/><path d="M233.34705,141.08356c0.96611,-0.02743 1.77153,0.73353 1.79895,1.69965c0.02743,0.96611 -0.73353,1.77153 -1.69965,1.79895c-0.54489,0.01547 -1.03867,-0.21985 -1.37057,-0.60131c-0.16254,0.05552 -0.33607,0.08788 -0.5168,0.09301c-0.96611,0.02743 -1.77153,-0.73353 -1.79895,-1.69965c-0.02743,-0.96611 0.73353,-1.77153 1.69965,-1.79895c0.54489,-0.01547 1.03867,0.21985 1.37057,0.60131c0.16254,-0.05552 0.33607,-0.08788 0.5168,-0.09301z" fill="#f2bc49" stroke="none" stroke-width="0.5" stroke-linecap="butt"/><path d="M238.65316,144.95445c-0.42462,0.01205 -0.80578,-0.1891 -1.04076,-0.50643c-0.07705,0.01266 -0.15585,0.0203 -0.23606,0.02256c-0.96611,0.02743 -1.77153,-0.73353 -1.79895,-1.69965c-0.02743,-0.96611 0.73353,-1.77153 1.69965,-1.79895c0.4675,-0.01327 0.8974,0.15807 1.2197,0.44794c0.25385,-0.62233 0.85648,-1.06877 1.57148,-1.08906c0.47832,-0.01359 0.91725,0.16609 1.24187,0.46823c0.30764,-0.42855 0.80475,-0.71363 1.3728,-0.72975c0.56803,-0.01612 1.08051,0.2403 1.41199,0.65071c0.30697,-0.32008 0.735,-0.52436 1.21332,-0.53794c0.96611,-0.02743 1.77153,0.73353 1.79895,1.69965c0.02743,0.96611 -0.73353,1.77153 -1.69965,1.79895c-0.56803,0.01612 -1.08051,-0.2403 -1.41199,-0.65071c-0.30697,0.32008 -0.735,0.52436 -1.21332,0.53794c-0.47832,0.01359 -0.91725,-0.16609 -1.24187,-0.46823c-0.30764,0.42855 -0.80475,0.71363 -1.3728,0.72975c-0.10354,0.00294 -0.20522,-0.00318 -0.30431,-0.01762c-0.05287,0.62514 -0.56805,1.12436 -1.21008,1.14259z" fill="#f2bc49" stroke="none" stroke-width="0.5" stroke-linecap="butt"/><path d="M247.33546,141.31343c-0.02743,-0.96611 0.73353,-1.77153 1.69965,-1.79895c0.96611,-0.02743 1.77153,0.73353 1.79895,1.69965c0.02743,0.96611 -0.73353,1.77153 -1.69965,1.79895c-0.96611,0.02743 -1.77153,-0.73353 -1.79895,-1.69965z" fill="#f2bc49" stroke="none" stroke-width="0.5" stroke-linecap="butt"/><path d="M250.91239,141.96105c-0.02743,-0.96611 0.73353,-1.77153 1.69965,-1.79895c0.96611,-0.02743 1.77153,0.73353 1.79895,1.69965c0.02743,0.96611 -0.73353,1.77153 -1.69965,1.79895c-0.96611,0.02743 -1.77153,-0.73353 -1.79895,-1.69965z" fill="#f2bc49" stroke="none" stroke-width="0.5" stroke-linecap="butt"/><path d="M217.25454,140.6702c-0.01959,-0.69008 0.52394,-1.26537 1.21402,-1.28497c0.69008,-0.01959 1.26537,0.52394 1.28497,1.21402c0.01959,0.69008 -0.52394,1.26537 -1.21402,1.28497c-0.69008,0.01959 -1.26537,-0.52394 -1.28497,-1.21402z" fill="#ffc72e" stroke="none" stroke-width="0.5" stroke-linecap="butt"/><path d="M230.36784,138.58445c-0.01959,-0.69008 0.52394,-1.26537 1.21402,-1.28497c0.69008,-0.01959 1.26537,0.52394 1.28497,1.21402c0.01959,0.69008 -0.52394,1.26537 -1.21402,1.28497c-0.69008,0.01959 -1.26537,-0.52394 -1.28497,-1.21402z" fill="#ffc72e" stroke="none" stroke-width="0.5" stroke-linecap="butt"/><path d="M243.23911,139.29002c-0.01959,-0.69008 0.52394,-1.26537 1.21402,-1.28497c0.69008,-0.01959 1.26537,0.52394 1.28497,1.21402c0.01959,0.69008 -0.52394,1.26537 -1.21402,1.28497c-0.69008,0.01959 -1.26537,-0.52394 -1.28497,-1.21402z" fill="#ffc72e" stroke="none" stroke-width="0.5" stroke-linecap="butt"/><path d="M217.26835,148.70183c-0.01959,-0.69008 0.52394,-1.26537 1.21402,-1.28497c0.69008,-0.01959 1.26537,0.52394 1.28497,1.21402c0.01959,0.69008 -0.52394,1.26537 -1.21402,1.28497c-0.69008,0.01959 -1.26537,-0.52394 -1.28497,-1.21402z" fill="#f2bc49" stroke="none" stroke-width="0.5" stroke-linecap="butt"/><path d="M222.31288,149.0941c-0.01959,-0.69008 0.52394,-1.26537 1.21402,-1.28497c0.69008,-0.01959 1.26537,0.52394 1.28497,1.21402c0.01959,0.69008 -0.52394,1.26537 -1.21402,1.28497c-0.69008,0.01959 -1.26537,-0.52394 -1.28497,-1.21402z" fill="#f2bc49" stroke="none" stroke-width="0.5" stroke-linecap="butt"/><path d="M226.5871,148.75858c-0.01959,-0.69008 0.52394,-1.26537 1.21402,-1.28497c0.69008,-0.01959 1.26537,0.52394 1.28497,1.21402c0.01959,0.69008 -0.52394,1.26537 -1.21402,1.28497c-0.69008,0.01959 -1.26537,-0.52394 -1.28497,-1.21402z" fill="#f2bc49" stroke="none" stroke-width="0.5" stroke-linecap="butt"/><path d="M236.16309,146.55907c-0.01959,-0.69008 0.52394,-1.26537 1.21402,-1.28497c0.69008,-0.01959 1.26537,0.52394 1.28497,1.21402c0.01959,0.69008 -0.52394,1.26537 -1.21402,1.28497c-0.69008,0.01959 -1.26537,-0.52394 -1.28497,-1.21402z" fill="#f2bc49" stroke="none" stroke-width="0.5" stroke-linecap="butt"/><path d="M242.116,144.99785c-0.01959,-0.69008 0.52394,-1.26537 1.21402,-1.28497c0.69008,-0.01959 1.26537,0.52394 1.28497,1.21402c0.01959,0.69008 -0.52394,1.26537 -1.21402,1.28497c-0.69008,0.01959 -1.26537,-0.52394 -1.28497,-1.21402z" fill="#f2bc49" stroke="none" stroke-width="0.5" stroke-linecap="butt"/><path d="M246.33182,146.37749c-0.01959,-0.69008 0.52394,-1.26537 1.21402,-1.28497c0.69008,-0.01959 1.26537,0.52394 1.28497,1.21402c0.01959,0.69008 -0.52394,1.26537 -1.21402,1.28497c-0.69008,0.01959 -1.26537,-0.52394 -1.28497,-1.21402z" fill="#f2bc49" stroke="none" stroke-width="0.5" stroke-linecap="butt"/><path d="M249.2119,145.97447c-0.01959,-0.69008 0.52394,-1.26537 1.21402,-1.28497c0.69008,-0.01959 1.26537,0.52394 1.28497,1.21402c0.01959,0.69008 -0.52394,1.26537 -1.21402,1.28497c-0.69008,0.01959 -1.26537,-0.52394 -1.28497,-1.21402z" fill="#f2bc49" stroke="none" stroke-width="0.5" stroke-linecap="butt"/><path d="M219.89849,152.05415c-0.01175,-0.41404 0.31437,-0.75922 0.72841,-0.77098c0.41404,-0.01175 0.75922,0.31437 0.77098,0.72841c0.01175,0.41404 -0.31437,0.75922 -0.72841,0.77098c-0.41404,0.01175 -0.75922,-0.31437 -0.77098,-0.72841z" fill="#f2bc49" stroke="none" stroke-width="0.5" stroke-linecap="butt"/><path d="M228.39459,153.31229c-0.01175,-0.41404 0.31437,-0.75922 0.72841,-0.77098c0.41404,-0.01175 0.75922,0.31437 0.77098,0.72841c0.01175,0.41404 -0.31437,0.75922 -0.72841,0.77098c-0.41404,0.01175 -0.75922,-0.31437 -0.77098,-0.72841z" fill="#f2bc49" stroke="none" stroke-width="0.5" stroke-linecap="butt"/><path d="M241.91094,154.10665c-0.01175,-0.41404 0.31437,-0.75922 0.72841,-0.77098c0.41404,-0.01175 0.75922,0.31437 0.77098,0.72841c0.01175,0.41404 -0.31437,0.75922 -0.72841,0.77098c-0.41404,0.01175 -0.75922,-0.31437 -0.77098,-0.72841z" fill="#f2bc49" stroke="none" stroke-width="0.5" stroke-linecap="butt"/><path d="M221.2211,142.05692c-0.01175,-0.41404 0.31437,-0.75922 0.72841,-0.77098c0.41404,-0.01175 0.75922,0.31437 0.77098,0.72841c0.01175,0.41404 -0.31437,0.75922 -0.72841,0.77098c-0.41404,0.01175 -0.75922,-0.31437 -0.77098,-0.72841z" fill="#ffc72e" stroke="none" stroke-width="0.5" stroke-linecap="butt"/><path d="M237.69719,141.48212c-0.01175,-0.41404 0.31437,-0.75922 0.72841,-0.77098c0.41404,-0.01175 0.75922,0.31437 0.77098,0.72841c0.01175,0.41404 -0.31437,0.75922 -0.72841,0.77098c-0.41404,0.01175 -0.75922,-0.31437 -0.77098,-0.72841z" fill="#ffc72e" stroke="none" stroke-width="0.5" stroke-linecap="butt"/><path d="M251.99974,139.79098c-0.01175,-0.41404 0.31437,-0.75922 0.72841,-0.77098c0.41404,-0.01175 0.75922,0.31437 0.77098,0.72841c0.01175,0.41404 -0.31437,0.75922 -0.72841,0.77098c-0.41404,0.01175 -0.75922,-0.31437 -0.77098,-0.72841z" fill="#ffc72e" stroke="none" stroke-width="0.5" stroke-linecap="butt"/><path d="M277.37892,155.93953c-0.59301,1.27364 -8.37863,-2.28405 -17.89346,-6.71426c-9.51483,-4.43022 -17.31365,-9.90505 -17.31365,-9.90505c0,0 8.72107,3.85889 18.2359,8.28912c9.51483,4.43022 17.56425,7.05655 16.97123,8.33018z" fill="#ff9600" stroke="#000000" stroke-width="0" stroke-linecap="butt"/></g><g><path d="M255.6434,168.30957c-0.94495,-33.28845 27.03733,-61.09012 62.50017,-62.0968c35.46283,-1.00668 64.97718,25.16287 65.92214,58.4513c0.94495,33.28845 -27.03732,61.09013 -62.50017,62.09681c-35.46282,1.00668 -64.97718,-25.16288 -65.92214,-58.45131z" fill="url(#color-2)" stroke="#000000" stroke-width="0" stroke-linecap="butt"/><path d="M261.53835,141.3705c9.93534,-20.16525 31.37743,-34.44158 56.60523,-35.15771c25.33476,-0.71917 47.63355,12.43161 58.6486,32.13925c0.03061,0.05475 -115.28827,3.08836 -115.25383,3.01846z" fill="#f2bc49" stroke="#000000" stroke-width="0" stroke-linecap="butt"/><path d="M263.95144,136.70521c11.08806,-16.34002 32.04478,-29.86375 54.19212,-30.49242c22.65402,-0.64306 44.12813,11.56484 56.03034,27.87315c0.13985,0.19163 -110.52612,3.06675 -110.22248,2.61927z" fill="#ffc72e" stroke="#000000" stroke-width="0" stroke-linecap="butt"/><path d="M271.22835,127.28974c11.41122,-12.91217 27.67991,-20.53092 46.91523,-21.07695c19.7871,-0.56169 36.25884,5.80129 48.4126,18.67681c0.05153,0.05458 -95.43544,2.52192 -95.32783,2.40014z" fill="#ff9600" stroke="#000000" stroke-width="0" stroke-linecap="butt"/><path d="M268.97366,168.20689c-0.36796,-12.96278 9.84215,-23.7695 22.80494,-24.13746c12.96278,-0.36796 23.7695,9.84214 24.13746,22.80493c0.36796,12.96278 -9.84214,23.76951 -22.80493,24.13747c-12.96278,0.36796 -23.76951,-9.84215 -24.13747,-22.80494z" fill="url(#color-3)" stroke="#000000" stroke-width="0" stroke-linecap="butt"/><path d="M282.30043,166.91601c-0.13624,-4.79956 3.64413,-8.80085 8.4437,-8.93707c4.79956,-0.13624 8.80085,3.64414 8.93707,8.44371c0.13624,4.79956 -3.64414,8.80086 -8.4437,8.93708c-4.79956,0.13624 -8.80085,-3.64414 -8.93707,-8.44371z" fill="#000000" stroke="#000000" stroke-width="0" stroke-linecap="butt"/><path d="M347.34779,189.47228c-12.96278,0.36796 -23.7695,-9.84215 -24.13746,-22.80494c-0.36796,-12.96278 9.84214,-23.7695 22.80493,-24.13746c12.96278,-0.36796 23.76951,9.84214 24.13747,22.80493c0.36796,12.96278 -9.84215,23.76951 -22.80494,24.13747z" fill="url(#color-4)" stroke="#000000" stroke-width="0" stroke-linecap="butt"/><path d="M359.22536,168.60715c0.18108,6.37874 -4.84311,11.69652 -11.22187,11.8776c-6.37873,0.18107 -11.69653,-4.84314 -11.8776,-11.22188c-0.18108,-6.37874 4.84313,-11.69653 11.22188,-11.8776c6.37873,-0.18107 11.69652,4.84313 11.87759,11.22188z" fill="#000000" stroke="#000000" stroke-width="0" stroke-linecap="butt"/><path d="M287.98548,96.7092c0,0 9.24606,-39.70682 27.6408,-24.74975c1.3995,1.13797 2.61107,2.32615 3.6552,3.55034c12.67955,14.86606 0.66632,35.03987 0.66632,35.03987" fill="none" stroke="#ff9600" stroke-width="6" stroke-linecap="round"/><path d="M301.27936,109.24644c0.87509,6.04322 -3.6207,11.69599 -10.04163,12.62577c-6.42093,0.92978 -12.33554,-3.21548 -13.21062,-9.2587c-0.87509,-6.04322 2.97068,-15.51016 9.39162,-16.43994c6.42093,-0.92978 12.98555,7.02965 13.86065,13.07288z" fill="#ffffff" stroke="#000000" stroke-width="0" stroke-linecap="butt"/><path d="M262.3911,177.29274c3.84099,-2.36822 8.57002,0.27217 12.7165,0.78829c4.62873,0.57616 10.50705,1.36405 15.1122,0.39317c1.91918,-0.40461 3.33731,-1.53955 5.37557,-1.64584c5.33918,-1.33437 12.72077,-1.52522 18.09981,-0.55772c1.94927,0.35061 3.8055,1.34126 5.77001,1.67076c5.96877,1.00116 13.1714,-1.07201 18.9242,-2.50558c9.39434,-1.46648 19.82371,-2.74238 29.13269,-0.55605c2.39721,0.56302 4.71728,1.27885 7.03343,2.12172c1.03342,0.37608 2.63274,0.07073 3.12721,1.05303c0.89835,1.78461 -3.59841,4.50113 -4.42412,5.2732c-3.67934,2.39044 -7.33275,4.88607 -11.08865,7.14726c-1.41981,0.85477 -3.58424,2.62518 -5.2762,3.03247c-7.78051,1.87291 -16.21983,-0.00209 -23.99823,-1.07366c-11.93596,-1.62724 -24.12822,0.87247 -35.79873,3.09218c-2.08546,0.39664 -3.84331,1.40707 -5.97068,1.65224c-5.67799,0.15545 -9.56083,-2.08869 -14.87234,-3.93795c-3.88322,-1.352 -7.86272,-2.73201 -11.26841,-5.10009c-2.60812,-1.81349 -5.55161,-3.71924 -6.02835,-7.09618c0.27246,-1.56274 1.84882,-2.56983 3.21918,-3.65144c0.1327,-0.0496 0.21492,-0.09984 0.21492,-0.09984z" fill-opacity="0.41176" fill="#6ee8ff" stroke="none" stroke-width="0.5" stroke-linecap="butt"/><path d="M379.81491,140.32602l1.16994,41.21444l-24.44852,15.44177l-36.27315,-3.34855l-34.6237,6.05239l-25.98241,-14.24063l-1.18302,-41.67494z" fill-opacity="0.08235" fill="#00ffff" stroke="#f1da3e" stroke-width="7.5" stroke-linecap="round"/><path d="M270.95356,128.30365c-0.02743,-0.96611 0.73353,-1.77153 1.69965,-1.79895c0.96611,-0.02743 1.77153,0.73353 1.79895,1.69965c0.02743,0.96611 -0.73353,1.77153 -1.69965,1.79895c-0.96611,0.02743 -1.77153,-0.73353 -1.79895,-1.69965z" fill="#ff9600" stroke="none" stroke-width="0.5" stroke-linecap="butt"/><path d="M280.68791,126.11887c0.96611,-0.02743 1.77153,0.73353 1.79895,1.69965c0.02743,0.96611 -0.73353,1.77153 -1.69965,1.79895c-0.7674,0.02178 -1.43341,-0.45385 -1.68867,-1.13462c-0.21622,0.69415 -0.85418,1.2068 -1.62158,1.22859c-0.96611,0.02743 -1.77153,-0.73353 -1.79895,-1.69965c-0.02743,-0.96611 0.73353,-1.77153 1.69965,-1.79895c0.7674,-0.02178 1.43341,0.45385 1.68867,1.13462c0.21622,-0.69415 0.85418,-1.2068 1.62158,-1.22859z" fill="#ff9600" stroke="none" stroke-width="0.5" stroke-linecap="butt"/><path d="M285.89716,126.77515c-0.02743,-0.96611 0.73353,-1.77153 1.69965,-1.79895c0.96611,-0.02743 1.77153,0.73353 1.79895,1.69965c0.02743,0.96611 -0.73353,1.77153 -1.69965,1.79895c-0.96611,0.02743 -1.77153,-0.73353 -1.79895,-1.69965z" fill="#ff9600" stroke="none" stroke-width="0.5" stroke-linecap="butt"/><path d="M292.98607,126.41616c-0.02743,-0.96611 0.73353,-1.77153 1.69965,-1.79895c0.96611,-0.02743 1.77153,0.73353 1.79895,1.69965c0.02743,0.96611 -0.73353,1.77153 -1.69965,1.79895c-0.96611,0.02743 -1.77153,-0.73353 -1.79895,-1.69965z" fill="#ff9600" stroke="none" stroke-width="0.5" stroke-linecap="butt"/><path d="M299.93525,126.69218c-0.02743,-0.96611 0.73353,-1.77153 1.69965,-1.79895c0.96611,-0.02743 1.77153,0.73353 1.79895,1.69965c0.02743,0.96611 -0.73353,1.77153 -1.69965,1.79895c-0.96611,0.02743 -1.77153,-0.73353 -1.79895,-1.69965z" fill="#ff9600" stroke="none" stroke-width="0.5" stroke-linecap="butt"/><path d="M306.87546,126.65291c-0.02743,-0.96611 0.73353,-1.77153 1.69965,-1.79895c0.96611,-0.02743 1.77153,0.73353 1.79895,1.69965c0.02743,0.96611 -0.73353,1.77153 -1.69965,1.79895c-0.96611,0.02743 -1.77153,-0.73353 -1.79895,-1.69965z" fill="#ff9600" stroke="none" stroke-width="0.5" stroke-linecap="butt"/><path d="M310.48755,126.07711c-0.02743,-0.96611 0.73353,-1.77153 1.69965,-1.79895c0.96611,-0.02743 1.77153,0.73353 1.79895,1.69965c0.02743,0.96611 -0.73353,1.77153 -1.69965,1.79895c-0.96611,0.02743 -1.77153,-0.73353 -1.79895,-1.69965z" fill="#ff9600" stroke="none" stroke-width="0.5" stroke-linecap="butt"/><path d="M315.36963,125.78076c-0.02743,-0.96611 0.73353,-1.77153 1.69965,-1.79895c0.96611,-0.02743 1.77153,0.73353 1.79895,1.69965c0.02743,0.96611 -0.73353,1.77153 -1.69965,1.79895c-0.96611,0.02743 -1.77153,-0.73353 -1.79895,-1.69965z" fill="#ff9600" stroke="none" stroke-width="0.5" stroke-linecap="butt"/><path d="M322.46301,125.57941c-0.02743,-0.96611 0.73353,-1.77153 1.69965,-1.79895c0.96611,-0.02743 1.77153,0.73353 1.79895,1.69965c0.02743,0.96611 -0.73353,1.77153 -1.69965,1.79895c-0.96611,0.02743 -1.77153,-0.73353 -1.79895,-1.69965z" fill="#ff9600" stroke="none" stroke-width="0.5" stroke-linecap="butt"/><path d="M327.03876,125.60728c-0.02743,-0.96611 0.73353,-1.77153 1.69965,-1.79895c0.96611,-0.02743 1.77153,0.73353 1.79895,1.69965c0.02743,0.96611 -0.73353,1.77153 -1.69965,1.79895c-0.96611,0.02743 -1.77153,-0.73353 -1.79895,-1.69965z" fill="#ff9600" stroke="none" stroke-width="0.5" stroke-linecap="butt"/><path d="M330.52902,126.29698c-0.02743,-0.96611 0.73353,-1.77153 1.69965,-1.79895c0.96611,-0.02743 1.77153,0.73353 1.79895,1.69965c0.02743,0.96611 -0.73353,1.77153 -1.69965,1.79895c-0.96611,0.02743 -1.77153,-0.73353 -1.79895,-1.69965z" fill="#ff9600" stroke="none" stroke-width="0.5" stroke-linecap="butt"/><path d="M344.06438,124.63534c0.96611,-0.02743 1.77153,0.73353 1.79895,1.69965c0.02743,0.96611 -0.73353,1.77153 -1.69965,1.79895c-0.58388,0.01656 -1.10906,-0.25481 -1.43928,-0.68539c-0.30528,0.44863 -0.81421,0.74935 -1.39806,0.76594c-0.40194,0.01142 -0.77607,-0.11363 -1.07792,-0.33316c-0.24181,0.13832 -0.5202,0.22076 -0.81812,0.22922c-0.96611,0.02743 -1.77153,-0.73353 -1.79895,-1.69965c-0.02743,-0.96611 0.73353,-1.77153 1.69965,-1.79895c0.40194,-0.01142 0.77607,0.11362 1.07792,0.33316c0.24181,-0.13832 0.5202,-0.22075 0.81812,-0.22921c0.58388,-0.01656 1.10905,0.2548 1.43927,0.68538c0.30528,-0.44863 0.81421,-0.74934 1.39807,-0.76592z" fill="#ff9600" stroke="none" stroke-width="0.5" stroke-linecap="butt"/><path d="M353.82854,124.04265c0.96611,-0.02743 1.77153,0.73353 1.79895,1.69965c0.02743,0.96611 -0.73353,1.77153 -1.69965,1.79895c-0.2223,0.0063 -0.43608,-0.02912 -0.63385,-0.09918c-0.19348,0.08116 -0.4049,0.12867 -0.62719,0.13499c-0.96611,0.02743 -1.77153,-0.73353 -1.79895,-1.69965c-0.02743,-0.96611 0.73353,-1.77153 1.69965,-1.79895c0.2223,-0.0063 0.43608,0.02912 0.63384,0.09919c0.19348,-0.08116 0.4049,-0.12867 0.6272,-0.13499z" fill="#ff9600" stroke="none" stroke-width="0.5" stroke-linecap="butt"/><path d="M357.33071,125.69394c-0.02743,-0.96611 0.73353,-1.77153 1.69965,-1.79895c0.96611,-0.02743 1.77153,0.73353 1.79895,1.69965c0.02743,0.96611 -0.73353,1.77153 -1.69965,1.79895c-0.96611,0.02743 -1.77153,-0.73353 -1.79895,-1.69965z" fill="#ff9600" stroke="none" stroke-width="0.5" stroke-linecap="butt"/><path d="M360.78516,125.12259c-0.02743,-0.96611 0.73353,-1.77153 1.69965,-1.79895c0.96611,-0.02743 1.77153,0.73353 1.79895,1.69965c0.02743,0.96611 -0.73353,1.77153 -1.69965,1.79895c-0.96611,0.02743 -1.77153,-0.73353 -1.79895,-1.69965z" fill="#ff9600" stroke="none" stroke-width="0.5" stroke-linecap="butt"/><path d="M370.29008,134.64274c-0.02743,-0.96611 0.73353,-1.77153 1.69965,-1.79895c0.96611,-0.02743 1.77153,0.73353 1.79895,1.69965c0.02743,0.96611 -0.73353,1.77153 -1.69965,1.79895c-0.96611,0.02743 -1.77153,-0.73353 -1.79895,-1.69965z" fill="#ffc72e" stroke="none" stroke-width="0.5" stroke-linecap="butt"/><path d="M359.87749,134.62281c-0.02743,-0.96611 0.73353,-1.77153 1.69965,-1.79895c0.76226,-0.02164 1.42451,0.44751 1.68348,1.12097c0.29098,-0.51933 0.83975,-0.87709 1.47808,-0.8952c0.96611,-0.02743 1.77153,0.73353 1.79895,1.69965c0.02743,0.96611 -0.73353,1.77153 -1.69965,1.79895c-0.76226,0.02164 -1.42451,-0.44751 -1.68348,-1.12097c-0.29098,0.51933 -0.83975,0.87709 -1.47808,0.8952c-0.96611,0.02743 -1.77153,-0.73353 -1.79895,-1.69965z" fill="#ffc72e" stroke="none" stroke-width="0.5" stroke-linecap="butt"/><path d="M351.35202,134.39154c-0.02743,-0.96611 0.73353,-1.77153 1.69965,-1.79895c0.08029,-0.00227 0.15944,0.00087 0.23715,0.00916c0.28201,-0.21651 0.63241,-0.34935 1.01496,-0.36022c0.96611,-0.02743 1.77153,0.73353 1.79895,1.69965c0.02743,0.96611 -0.73353,1.77153 -1.69965,1.79895c-0.08029,0.00227 -0.15944,-0.00088 -0.23715,-0.00916c-0.28201,0.21651 -0.63241,0.34936 -1.01496,0.36023c-0.96611,0.02743 -1.77153,-0.73353 -1.79895,-1.69965z" fill="#ffc72e" stroke="none" stroke-width="0.5" stroke-linecap="butt"/><path d="M345.66389,134.07974c-0.02743,-0.96611 0.73353,-1.77153 1.69965,-1.79895c0.96611,-0.02743 1.77153,0.73353 1.79895,1.69965c0.02743,0.96611 -0.73353,1.77153 -1.69965,1.79895c-0.96611,0.02743 -1.77153,-0.73353 -1.79895,-1.69965z" fill="#ffc72e" stroke="none" stroke-width="0.5" stroke-linecap="butt"/><path d="M336.36815,134.50137c-0.02743,-0.96611 0.73353,-1.77153 1.69965,-1.79895c0.96611,-0.02743 1.77153,0.73353 1.79895,1.69965c0.02743,0.96611 -0.73353,1.77153 -1.69965,1.79895c-0.96611,0.02743 -1.77153,-0.73353 -1.79895,-1.69965z" fill="#ffc72e" stroke="none" stroke-width="0.5" stroke-linecap="butt"/><path d="M329.90082,134.5272c-0.02743,-0.96611 0.73353,-1.77153 1.69965,-1.79895c0.96611,-0.02743 1.77153,0.73353 1.79895,1.69965c0.02743,0.96611 -0.73353,1.77153 -1.69965,1.79895c-0.96611,0.02743 -1.77153,-0.73353 -1.79895,-1.69965z" fill="#ffc72e" stroke="none" stroke-width="0.5" stroke-linecap="butt"/><path d="M321.25351,135.56146c-0.02743,-0.96611 0.73353,-1.77153 1.69965,-1.79895c0.96611,-0.02743 1.77153,0.73353 1.79895,1.69965c0.02743,0.96611 -0.73353,1.77153 -1.69965,1.79895c-0.96611,0.02743 -1.77153,-0.73353 -1.79895,-1.69965z" fill="#ffc72e" stroke="none" stroke-width="0.5" stroke-linecap="butt"/><path d="M303.24782,134.81052c-0.02743,-0.96611 0.73353,-1.77153 1.69965,-1.79895c0.96611,-0.02743 1.77153,0.73353 1.79895,1.69965c0.02743,0.96611 -0.73353,1.77153 -1.69965,1.79895c-0.96611,0.02743 -1.77153,-0.73353 -1.79895,-1.69965z" fill="#ffc72e" stroke="none" stroke-width="0.5" stroke-linecap="butt"/><path d="M284.67872,136.44195c-0.02743,-0.96611 0.73353,-1.77153 1.69965,-1.79895c0.96611,-0.02743 1.77153,0.73353 1.79895,1.69965c0.02743,0.96611 -0.73353,1.77153 -1.69965,1.79895c-0.96611,0.02743 -1.77153,-0.73353 -1.79895,-1.69965z" fill="#ffc72e" stroke="none" stroke-width="0.5" stroke-linecap="butt"/><path d="M277.09903,136.18383c-0.02743,-0.96611 0.73353,-1.77153 1.69965,-1.79895c0.96611,-0.02743 1.77153,0.73353 1.79895,1.69965c0.02743,0.96611 -0.73353,1.77153 -1.69965,1.79895c-0.96611,0.02743 -1.77153,-0.73353 -1.79895,-1.69965z" fill="#ffc72e" stroke="none" stroke-width="0.5" stroke-linecap="butt"/><path d="M266.85304,136.47468c-0.02743,-0.96611 0.73353,-1.77153 1.69965,-1.79895c0.96611,-0.02743 1.77153,0.73353 1.79895,1.69965c0.02743,0.96611 -0.73353,1.77153 -1.69965,1.79895c-0.96611,0.02743 -1.77153,-0.73353 -1.79895,-1.69965z" fill="#ffc72e" stroke="none" stroke-width="0.5" stroke-linecap="butt"/><path d="M292.09184,136.38927c-0.02743,-0.96611 0.73353,-1.77153 1.69965,-1.79895c0.96611,-0.02743 1.77153,0.73353 1.79895,1.69965c0.02743,0.96611 -0.73353,1.77153 -1.69965,1.79895c-0.96611,0.02743 -1.77153,-0.73353 -1.79895,-1.69965z" fill="#ffc72e" stroke="none" stroke-width="0.5" stroke-linecap="butt"/><path d="M297.94208,136.85423c-0.02743,-0.96611 0.73353,-1.77153 1.69965,-1.79895c0.96611,-0.02743 1.77153,0.73353 1.79895,1.69965c0.02743,0.96611 -0.73353,1.77153 -1.69965,1.79895c-0.96611,0.02743 -1.77153,-0.73353 -1.79895,-1.69965z" fill="#ffc72e" stroke="none" stroke-width="0.5" stroke-linecap="butt"/><path d="M307.6928,135.78865c-0.02743,-0.96611 0.73353,-1.77153 1.69965,-1.79895c0.96611,-0.02743 1.77153,0.73353 1.79895,1.69965c0.02743,0.96611 -0.73353,1.77153 -1.69965,1.79895c-0.96611,0.02743 -1.77153,-0.73353 -1.79895,-1.69965z" fill="#ffc72e" stroke="none" stroke-width="0.5" stroke-linecap="butt"/><path d="M316.35353,135.22729c-0.02743,-0.96611 0.73353,-1.77153 1.69965,-1.79895c0.96611,-0.02743 1.77153,0.73353 1.79895,1.69965c0.02743,0.96611 -0.73353,1.77153 -1.69965,1.79895c-0.96611,0.02743 -1.77153,-0.73353 -1.79895,-1.69965z" fill="#ffc72e" stroke="none" stroke-width="0.5" stroke-linecap="butt"/><path d="M270.61008,131.66268c-0.01959,-0.69008 0.52394,-1.26537 1.21402,-1.28497c0.69008,-0.01959 1.26537,0.52394 1.28497,1.21402c0.01959,0.69008 -0.52394,1.26537 -1.21402,1.28497c-0.69008,0.01959 -1.26537,-0.52394 -1.28497,-1.21402z" fill="#ff9600" stroke="none" stroke-width="0.5" stroke-linecap="butt"/><path d="M280.47548,129.50972c-0.01959,-0.69008 0.52394,-1.26537 1.21402,-1.28497c0.69008,-0.01959 1.26537,0.52394 1.28497,1.21402c0.01959,0.69008 -0.52394,1.26537 -1.21402,1.28497c-0.69008,0.01959 -1.26537,-0.52394 -1.28497,-1.21402z" fill="#ff9600" stroke="none" stroke-width="0.5" stroke-linecap="butt"/><path d="M283.02641,127.00249c-0.01959,-0.69008 0.52394,-1.26537 1.21402,-1.28497c0.69008,-0.01959 1.26537,0.52394 1.28497,1.21402c0.01959,0.69008 -0.52394,1.26537 -1.21402,1.28497c-0.69008,0.01959 -1.26537,-0.52394 -1.28497,-1.21402z" fill="#ff9600" stroke="none" stroke-width="0.5" stroke-linecap="butt"/><path d="M300.29658,128.38518c-0.01959,-0.69008 0.52394,-1.26537 1.21402,-1.28497c0.69008,-0.01959 1.26537,0.52394 1.28497,1.21402c0.01959,0.69008 -0.52394,1.26537 -1.21402,1.28497c-0.69008,0.01959 -1.26537,-0.52394 -1.28497,-1.21402z" fill="#ff9600" stroke="none" stroke-width="0.5" stroke-linecap="butt"/><path d="M305.21539,130.11848c-0.01959,-0.69008 0.52394,-1.26537 1.21402,-1.28497c0.69008,-0.01959 1.26537,0.52394 1.28497,1.21402c0.01959,0.69008 -0.52394,1.26537 -1.21402,1.28497c-0.69008,0.01959 -1.26537,-0.52394 -1.28497,-1.21402z" fill="#ff9600" stroke="none" stroke-width="0.5" stroke-linecap="butt"/><path d="M312.72231,130.65456c-0.01959,-0.69008 0.52394,-1.26537 1.21402,-1.28497c0.69008,-0.01959 1.26537,0.52394 1.28497,1.21402c0.01959,0.69008 -0.52394,1.26537 -1.21402,1.28497c-0.69008,0.01959 -1.26537,-0.52394 -1.28497,-1.21402z" fill="#ff9600" stroke="none" stroke-width="0.5" stroke-linecap="butt"/><path d="M325.43733,129.91903c-0.01959,-0.69008 0.52394,-1.26537 1.21402,-1.28497c0.69008,-0.01959 1.26537,0.52394 1.28497,1.21402c0.01959,0.69008 -0.52394,1.26537 -1.21402,1.28497c-0.69008,0.01959 -1.26537,-0.52394 -1.28497,-1.21402z" fill="#ff9600" stroke="none" stroke-width="0.5" stroke-linecap="butt"/><path d="M330.07869,128.47622c-0.01959,-0.69008 0.52394,-1.26537 1.21402,-1.28497c0.69008,-0.01959 1.26537,0.52394 1.28497,1.21402c0.01959,0.69008 -0.52394,1.26537 -1.21402,1.28497c-0.69008,0.01959 -1.26537,-0.52394 -1.28497,-1.21402z" fill="#ff9600" stroke="none" stroke-width="0.5" stroke-linecap="butt"/><path d="M338.62347,125.98616c-0.01959,-0.69008 0.52394,-1.26537 1.21402,-1.28497c0.69008,-0.01959 1.26537,0.52394 1.28497,1.21402c0.01959,0.69008 -0.52394,1.26537 -1.21402,1.28497c-0.69008,0.01959 -1.26537,-0.52394 -1.28497,-1.21402z" fill="#ff9600" stroke="none" stroke-width="0.5" stroke-linecap="butt"/><path d="M350.07098,126.78496c-0.01959,-0.69008 0.52394,-1.26537 1.21402,-1.28497c0.69008,-0.01959 1.26537,0.52394 1.28497,1.21402c0.01959,0.69008 -0.52394,1.26537 -1.21402,1.28497c-0.69008,0.01959 -1.26537,-0.52394 -1.28497,-1.21402z" fill="#ff9600" stroke="none" stroke-width="0.5" stroke-linecap="butt"/><path d="M361.18673,129.09151c-0.01959,-0.69008 0.52394,-1.26537 1.21402,-1.28497c0.69008,-0.01959 1.26537,0.52394 1.28497,1.21402c0.01959,0.69008 -0.52394,1.26537 -1.21402,1.28497c-0.69008,0.01959 -1.26537,-0.52394 -1.28497,-1.21402z" fill="#ff9600" stroke="none" stroke-width="0.5" stroke-linecap="butt"/><path d="M275.25887,132.65448c-0.01175,-0.41404 0.31437,-0.75922 0.72841,-0.77098c0.41404,-0.01175 0.75922,0.31437 0.77098,0.72841c0.01175,0.41404 -0.31437,0.75922 -0.72841,0.77098c-0.41404,0.01175 -0.75922,-0.31437 -0.77098,-0.72841z" fill="#ff9600" stroke="none" stroke-width="0.5" stroke-linecap="butt"/><path d="M283.87271,132.59725c-0.01175,-0.41404 0.31437,-0.75922 0.72841,-0.77098c0.41404,-0.01175 0.75922,0.31437 0.77098,0.72841c0.01175,0.41404 -0.31437,0.75922 -0.72841,0.77098c-0.41404,0.01175 -0.75922,-0.31437 -0.77098,-0.72841z" fill="#ff9600" stroke="none" stroke-width="0.5" stroke-linecap="butt"/><path d="M294.62766,131.54279c-0.01175,-0.41404 0.31437,-0.75922 0.72841,-0.77098c0.41404,-0.01175 0.75922,0.31437 0.77098,0.72841c0.01175,0.41404 -0.31437,0.75922 -0.72841,0.77098c-0.41404,0.01175 -0.75922,-0.31437 -0.77098,-0.72841z" fill="#ff9600" stroke="none" stroke-width="0.5" stroke-linecap="butt"/><path d="M307.99972,134.15989c-0.01175,-0.41404 0.31437,-0.75922 0.72841,-0.77098c0.41404,-0.01175 0.75922,0.31437 0.77098,0.72841c0.01175,0.41404 -0.31437,0.75922 -0.72841,0.77098c-0.41404,0.01175 -0.75922,-0.31437 -0.77098,-0.72841z" fill="#ff9600" stroke="none" stroke-width="0.5" stroke-linecap="butt"/><path d="M318.77427,131.04464c-0.01175,-0.41404 0.31437,-0.75922 0.72841,-0.77098c0.41404,-0.01175 0.75922,0.31437 0.77098,0.72841c0.01175,0.41404 -0.31437,0.75922 -0.72841,0.77098c-0.41404,0.01175 -0.75922,-0.31437 -0.77098,-0.72841z" fill="#ff9600" stroke="none" stroke-width="0.5" stroke-linecap="butt"/><path d="M332.12509,132.91316c-0.01175,-0.41404 0.31437,-0.75922 0.72841,-0.77098c0.41404,-0.01175 0.75922,0.31437 0.77098,0.72841c0.01175,0.41404 -0.31437,0.75922 -0.72841,0.77098c-0.41404,0.01175 -0.75922,-0.31437 -0.77098,-0.72841z" fill="#ff9600" stroke="none" stroke-width="0.5" stroke-linecap="butt"/><path d="M344.41801,130.50398c-0.01175,-0.41404 0.31437,-0.75922 0.72841,-0.77098c0.41404,-0.01175 0.75922,0.31437 0.77098,0.72841c0.01175,0.41404 -0.31437,0.75922 -0.72841,0.77098c-0.41404,0.01175 -0.75922,-0.31437 -0.77098,-0.72841z" fill="#ff9600" stroke="none" stroke-width="0.5" stroke-linecap="butt"/><path d="M365.9712,131.01592c-0.01175,-0.41404 0.31437,-0.75922 0.72841,-0.77098c0.41404,-0.01175 0.75922,0.31437 0.77098,0.72841c0.01175,0.41404 -0.31437,0.75922 -0.72841,0.77098c-0.41404,0.01175 -0.75922,-0.31437 -0.77098,-0.72841z" fill="#ff9600" stroke="none" stroke-width="0.5" stroke-linecap="butt"/><path d="M354.76924,132.27036c-0.01175,-0.41404 0.31437,-0.75922 0.72841,-0.77098c0.41404,-0.01175 0.75922,0.31437 0.77098,0.72841c0.01175,0.41404 -0.31437,0.75922 -0.72841,0.77098c-0.41404,0.01175 -0.75922,-0.31437 -0.77098,-0.72841z" fill="#ff9600" stroke="none" stroke-width="0.5" stroke-linecap="butt"/></g><path d="M300.70391,223.038c0,0 -1.89254,-13.85418 16.85668,-3.806c18.45663,-7.19798 21.65624,3.6723 21.65624,3.6723c0,0 -15.34973,3.8716 -24.85003,2.91102c-9.50032,-0.96058 -13.66288,-2.77731 -13.66288,-2.77731z" fill="#000000" stroke="#000000" stroke-width="0" stroke-linecap="round"/><path d="M313.53879,223.89839c7.63785,0.61378 19.78804,-2.19549 19.78804,-2.19549l2.32878,0.89982c0,0 -14.38025,2.98141 -22.22739,2.22595c-7.84713,-0.75546 -10.96673,-3.02651 -10.96673,-3.02651l1.14309,-0.99706c0,0 3.76133,2.59723 9.93417,3.09329z" fill="#ffffff" stroke="#000000" stroke-width="0" stroke-linecap="round"/><path d="M314.87298,229.06482c-0.20286,-1.07144 -0.32089,-2.12199 -0.48488,-3.18847c-0.1353,0.00468 -0.27068,0.00774 -0.40609,0.0092c0.02089,0.36271 -0.02259,0.73681 -0.00465,1.10004l0.00532,0.18715c0,0 0.03546,1.2495 -1.21402,1.28497l-0.00001,0.00001c-1.2495,0.03546 -1.28497,-1.21402 -1.28497,-1.21402l-0.00532,-0.18715c0.00288,-0.66949 -0.11151,-1.11213 -0.2927,-1.36429c-0.28549,-0.04231 -0.57054,-0.0914 -0.85491,-0.1472c-0.25694,0.14614 -0.51953,0.42624 -0.74382,0.80855c0.16535,1.47722 -0.16503,3.45897 -0.36392,4.96875c0.01419,0.48702 -0.01382,0.95967 -0.13448,1.40412c-0.00135,0.06246 -0.00138,0.12197 -0.00004,0.1783l0.03792,1.33565c0.01959,0.69008 -0.52394,1.26537 -1.21402,1.28497c-0.69008,0.01959 -1.26537,-0.52394 -1.28497,-1.21402l-0.0425,-1.49714l0.00123,-0.00004c-0.00275,-0.14614 -0.00443,-0.29081 -0.00524,-0.43412c-0.31115,-0.52392 -0.10957,-1.32834 -0.07573,-2.44213c0.0219,-0.72046 0.06822,-1.55907 0.19915,-2.40553c0.0045,-0.83469 -0.02424,-1.67455 -0.12453,-2.55291l-0.44064,-0.75482c-0.10958,-0.1796 -0.17525,-0.38933 -0.18164,-0.61471c-0.00612,-0.21528 0.04258,-0.41938 0.13344,-0.59893l-0.31492,-0.0973c-1.00566,-0.31271 -1.54628,-0.5401 -2.05456,-0.98338l-0.08878,0.11613l-0.7967,-0.60901c-0.17768,-0.13343 -0.29455,-0.34412 -0.29984,-0.58351c-0.00913,-0.4141 0.31916,-0.75723 0.73327,-0.76637l0.78828,-0.0174l0.00059,0.02708l0.07337,-0.02507c4.01197,0.6935 7.97077,1.4165 11.94979,2.11312c0,0 0.09108,0.01613 0.20359,0.06905c2.3617,-0.04465 4.70964,-0.36978 7.08406,-0.5232c0.29518,-0.10859 0.58945,-0.22495 0.88267,-0.34922c2.32618,-0.32114 4.49355,-0.52128 6.75584,-0.62296c0.46937,-0.09785 0.9333,-0.1472 1.3362,-0.04843c0.18752,-0.00522 0.37601,-0.00981 0.56556,-0.01378l0.04751,0.02285l0.00212,-0.019l1.17358,0.13044c0.3732,0.03574 0.6689,0.34598 0.67738,0.73002c0.00913,0.4141 -0.31916,0.75723 -0.73327,0.76637l-1.10358,0.02437l-0.0031,-0.14073l-0.13944,-0.0155c-0.74827,0.0175 -1.47732,0.04483 -2.19724,0.08229c-2.78106,0.53989 -5.31641,1.40211 -8.03815,2.02351l-0.77735,0.03173c0,0 -0.48621,0.01073 -0.68422,-0.37662c-0.06462,0.01427 -0.12929,0.02818 -0.19397,0.04178c-0.02898,0.0259 -0.05919,0.05046 -0.09052,0.07359l-1.16365,0.88209c-1.16116,1.6097 -2.27181,3.70105 -2.85472,5.60105c0,0 -0.07333,0.23735 -0.27219,0.39663c-0.03924,4.3026 1.21427,9.03603 1.21911,13.08259c-0.15701,0.34263 -0.31403,0.68527 -0.47104,1.0279l-0.11635,0.6949c0,0 -0.13083,0.73851 -0.86933,0.60769c-0.73851,-0.13083 -0.60769,-0.86933 -0.60769,-0.86933l0.16415,-0.88863c0.14437,-0.29495 0.28875,-0.58989 0.43312,-0.88486c-0.23852,-4.36229 -1.50575,-9.57845 -1.16188,-14.18724c-0.22109,-0.1818 -0.27567,-0.46992 -0.27567,-0.46992zM317.30914,225.51714c0.00018,0.00031 0.00037,0.00063 0.00055,0.00095c0.00018,-0.0004 0.00036,-0.00079 0.00056,-0.00118c-0.00037,0.00008 -0.00073,0.00015 -0.00109,0.00024z" fill-opacity="0.41176" fill="#6ee8ff" stroke="none" stroke-width="0.5" stroke-linecap="butt"/></g></g></g></svg>