<svg version="1.1" xmlns="http://www.w3.org/2000/svg" xmlns:xlink="http://www.w3.org/1999/xlink" width="278.51982" height="267.72501" viewBox="0,0,278.51982,267.72501"><g transform="translate(-190.1791,-31.19978)"><g stroke-miterlimit="10"><path d="M190.1791,298.92479v-267.72501h254.18333v267.72501z" fill="none" stroke="none" stroke-width="0" stroke-linecap="butt"/><path d="" fill="none" stroke="#000000" stroke-width="2" stroke-linecap="round"/><g><g stroke="#000000"><path d="M309.11766,204.44305l48.9236,13.97549l-38.3054,39.1798z" fill="#ff6300" stroke-width="5" stroke-linecap="round"/><path d="M280.18031,158.05681l25.43569,44.06652l-54.77289,1.51376z" fill="#ff6300" stroke-width="5" stroke-linecap="round"/><path d="M289.33786,106.63474l-12.28179,49.37601l-40.47614,-36.93293z" fill="#ff6300" stroke-width="5" stroke-linecap="round"/><path d="M336.3032,80.11734l-44.84467,24.03722l0.20961,-54.7934z" fill="#ff6300" stroke-width="5" stroke-linecap="round"/><path d="M393.48275,91.58768l-48.70685,-14.71309l38.893,-38.59656z" fill="#ff6300" stroke-width="5" stroke-linecap="round"/><path d="M424.87993,142.04866l-24.03721,-44.84467l54.7934,0.20961z" fill="#ff6300" stroke-width="5" stroke-linecap="round"/><path d="M410.27825,192.23272l14.7131,-48.70684l38.59657,38.89301z" fill="#ff6300" stroke-width="5" stroke-linecap="round"/><path d="M362.7137,217.92529l44.84467,-24.03722l-0.20961,54.7934z" fill="#ff6300" stroke-width="5" stroke-linecap="round"/><path d="M278.85123,126.457c10.86177,-37.54736 52.09334,-58.60515 92.09329,-47.03391c39.99997,11.57125 63.62113,51.38977 52.75937,88.93712c-10.86177,37.54736 -52.09334,58.60517 -92.09329,47.03392c-39.99995,-11.57126 -63.62112,-51.38978 -52.75936,-88.93713z" fill="#ffe63c" stroke-width="5" stroke-linecap="butt"/><path d="M309.11767,204.44305l48.92359,13.97549l-38.30539,39.17982z" fill="#ff6300" stroke-width="0" stroke-linecap="round"/><path d="M280.18032,158.05682l25.43569,44.06652l-54.77289,1.51376z" fill="#ff6300" stroke-width="0" stroke-linecap="round"/><path d="M289.33787,106.63473l-12.2818,49.37601l-40.47614,-36.93293z" fill="#ff6300" stroke-width="0" stroke-linecap="round"/><path d="M336.3032,80.11734l-44.84467,24.03722l0.20961,-54.7934z" fill="#ff6300" stroke-width="0" stroke-linecap="round"/><path d="M393.48275,91.58768l-48.70684,-14.7131l38.893,-38.59656z" fill="#ff6300" stroke-width="0" stroke-linecap="round"/><path d="M424.87993,142.04866l-24.03722,-44.84467l54.7934,0.20961z" fill="#ff6300" stroke-width="0" stroke-linecap="round"/><path d="M410.27824,192.23271l14.7131,-48.70684l38.59657,38.89301z" fill="#ff6300" stroke-width="0" stroke-linecap="round"/><path d="M362.7137,217.92528l44.84467,-24.03722l-0.20961,54.7934z" fill="#ff6300" stroke-width="0" stroke-linecap="round"/><path d="M278.85123,126.457c10.86177,-37.54736 52.09334,-58.60515 92.09329,-47.03391c39.99997,11.57125 63.62113,51.38977 52.75937,88.93712c-10.86177,37.54736 -52.09334,58.60517 -92.09329,47.03392c-39.99995,-11.57126 -63.62112,-51.38978 -52.75936,-88.93713z" fill="#ffe63c" stroke-width="0" stroke-linecap="butt"/></g><path d="M316.41129,125.96864c1.69945,-5.87471 7.83951,-9.25943 13.71423,-7.55998c5.87471,1.69945 9.25943,7.83951 7.55998,13.71423c-1.69945,5.87471 -7.33334,5.35573 -13.20805,3.65629c-5.87471,-1.69945 -9.76561,-3.93582 -8.06617,-9.81053z" fill="#000000" stroke="none" stroke-width="NaN" stroke-linecap="butt"/><path d="M379.5611,152.33696c-5.87471,-1.69945 -10.74924,-4.84347 -9.0498,-10.71818c1.69945,-5.87471 7.83951,-9.25943 13.71423,-7.55998c5.87471,1.69945 9.25943,7.83951 7.55998,13.71423c-1.69945,5.87471 -6.34971,6.26338 -12.22443,4.56394z" fill="#000000" stroke="none" stroke-width="NaN" stroke-linecap="butt"/><path d="M357.81432,205.77774c0,0 -11.64476,7.69132 -23.07661,4.38429c-11.43187,-3.30703 -18.32183,-16.36011 -18.32183,-16.36011c0,0 8.89535,6.12079 20.32722,9.42783c11.43187,3.30703 21.07123,2.548 21.07123,2.548z" fill="#000000" stroke="#000000" stroke-width="1.5" stroke-linecap="butt"/></g></g></g></svg>