<svg version="1.1" xmlns="http://www.w3.org/2000/svg" xmlns:xlink="http://www.w3.org/1999/xlink" width="218.53603" height="272.93481" viewBox="0,0,218.53603,272.93481"><defs><linearGradient x1="318.96396" y1="240.85412" x2="318.96396" y2="276.16737" gradientUnits="userSpaceOnUse" id="color-1"><stop offset="0" stop-color="#005cff" stop-opacity="0"/><stop offset="1" stop-color="#005cff" stop-opacity="0.2"/></linearGradient><radialGradient cx="320.52191" cy="153.15272" r="64.23702" gradientUnits="userSpaceOnUse" id="color-2"><stop offset="0" stop-color="#aca5f2"/><stop offset="1" stop-color="#f3ca58"/></radialGradient><radialGradient cx="293.19965" cy="155.58053" r="23.48066" gradientUnits="userSpaceOnUse" id="color-3"><stop offset="0" stop-color="#ffffff"/><stop offset="1" stop-color="#ff6d6d"/></radialGradient><radialGradient cx="347.29073" cy="151.3215" r="23.48066" gradientUnits="userSpaceOnUse" id="color-4"><stop offset="0" stop-color="#ffffff"/><stop offset="1" stop-color="#ff6d6d"/></radialGradient></defs><g transform="translate(-208.05501,-46.13751)"><g stroke-miterlimit="10"><path d="M213.40901,313.86252v-267.72501h213.18203v267.72501z" fill="none" stroke="none" stroke-width="0" stroke-linecap="butt"/><g stroke-linecap="butt"><g><g stroke-width="0"><path d="M370.70106,269.87901c-0.06778,1.44597 -1.41901,-4.97989 -6.32499,-5.20986c-4.90598,-0.22997 -8.51273,-3.00784 -8.44495,-4.45381c0.06778,-1.44597 4.09981,0.87984 9.00579,1.10981c4.90598,0.22997 5.83193,7.10789 5.76415,8.55386z" fill="#f29d0f" stroke="#000000"/><path d="M363.39926,263.52066c0,8.78876 -6.18635,0.14404 -15.95739,0.14404c-9.77104,0 -15.01123,-7.44009 -15.01123,-16.22885c0,-8.78876 7.92099,-4.71717 17.69203,-4.71717c9.77104,0 13.27659,12.01322 13.27659,20.80198z" fill="#f2d40e" stroke="#000000"/><path d="M357.81447,254.49463c0,-0.69036 0.55964,-1.25 1.25,-1.25c0.69036,0 1.25,0.55964 1.25,1.25c0,0.69036 -0.55964,1.25 -1.25,1.25c-0.69036,0 -1.25,-0.55964 -1.25,-1.25z" fill="#000000" stroke="none"/></g><path d="M286.35186,319.07231c0,0 -1.89355,-25.93292 0.55642,-47.26366c2.58988,-22.54893 14.58643,-84.57844 14.58643,-84.57844l37.78325,-0.15789c0,0 9.71821,48.53571 12.06959,71.4019c2.15633,20.96935 1.5043,60.5981 1.5043,60.5981z" fill="#f3ca58" stroke="#000000" stroke-width="0"/><path d="M293.32494,231.4227c3.92467,-22.12412 8.16979,-44.1925 8.16979,-44.1925l37.78325,-0.15789c0,0 4.58735,22.91064 8.22116,44.66623c0.01212,0.07254 -54.19728,-0.18574 -54.1742,-0.31584z" fill="#f2bc49" stroke="#000000" stroke-width="0"/><path d="M294.35562,225.21107c3.47387,-19.2454 7.13909,-37.98086 7.13909,-37.98086l37.78325,-0.15789c0,0 3.7397,19.39228 7.08641,38.61124c0.00071,0.00407 -52.0355,-0.32431 -52.00875,-0.47248z" fill="#ffc72e" stroke="#000000" stroke-width="0"/><path d="M309.43057,274.95001c-0.60434,0 -1.13393,-0.23881 -1.42855,-0.59687c-0.40832,-0.03148 -0.71369,-0.15576 -0.71369,-0.15576c-2.81592,-1.14616 -6.6205,-2.20571 -9.08745,-3.72458c-5.15584,-3.1744 -6.48202,-7.967 -2.60749,-12.21832c3.34303,-3.66814 9.07756,-4.44116 14.1588,-5.7515c3.39017,-0.87425 6.25511,-2.47282 9.63619,-3.37881c2.25387,-0.97114 5.50095,-1.85595 7.42542,-3.16024c1.26199,-0.8553 1.68883,-2.21259 2.8379,-3.12013c0.82862,-0.65444 4.11036,-2.27023 5.42408,-1.94755c2.52904,0.62119 4.05401,5.49475 4.87382,7.17382c0.81561,1.67047 2.09706,2.72111 2.94108,4.38572c2.22816,4.39447 2.39218,10.85669 -0.38497,15.07163c-4.12178,4.62147 -13.47245,8.29221 -20.91425,8.62036c-3.3941,0.14966 -6.97675,-0.59431 -10.29739,-1.01544l-1.59475,-0.19833c-0.0875,0.01053 -0.17726,0.016 -0.26874,0.016z" fill="url(#color-1)" stroke="none" stroke-width="0.5"/><path d="M296.01191,216.45645c2.97215,-16.24462 5.48281,-29.22625 5.48281,-29.22625l37.78325,-0.15789c0,0 2.77645,13.86644 5.72037,30.26775c0.00971,0.0541 -49.03891,-0.59676 -48.98643,-0.88361z" fill="#ff9600" stroke="#000000" stroke-width="0"/><g stroke-width="0"><path d="M356.84063,264.74936c-0.16935,10.05097 -14.10853,4.57839 -35.80932,4.57839c-21.70078,0 -38.91576,4.34675 -38.50428,-5.05147c0.52608,-12.01574 17.11889,-0.63604 38.81967,-0.63604c21.70078,0 35.63747,-7.40967 35.49394,1.10912z" fill="#f2d40e" stroke="#000000"/><path d="M344.0944,266.38599c0,-0.97798 0.79281,-1.77078 1.77078,-1.77078c0.97798,0 1.77078,0.79281 1.77078,1.77078c0,0.97798 -0.79281,1.77078 -1.77078,1.77078c-0.97798,0 -1.77078,-0.79281 -1.77078,-1.77078z" fill="#080700" stroke="none"/><path d="M348.70222,261.04884c-0.3209,3.37178 -1.40371,2.88109 -2.86307,2.7422c-1.45936,-0.13889 -2.74263,0.12661 -2.42173,-3.24517c0.3209,-3.37178 3.22345,-5.85366 3.22345,-5.85366c0,0 2.38226,2.98485 2.06135,6.35663z" fill="#f2d40e" stroke="none"/><path d="M340.02662,267.57169c2.8247,-1.86894 3.12333,-0.71826 3.93224,0.50431c0.80891,1.22257 1.82178,2.05407 -1.00292,3.92301c-2.8247,1.86894 -6.57922,1.17036 -6.57922,1.17036c0,0 0.82521,-3.72874 3.64991,-5.59769z" fill="#f2d40e" stroke="none"/><path d="M345.92961,271.74288c-0.96942,-3.24532 0.21842,-3.1974 1.62304,-3.61698c1.40462,-0.41958 2.49413,-1.14777 3.46355,2.09755c0.96942,3.24532 -0.78801,6.63589 -0.78801,6.63589c0,0 -3.32917,-1.87113 -4.29858,-5.11645z" fill="#f2d40e" stroke="none"/><path d="M343.03151,260.28155c2.52782,2.25433 1.49142,2.83668 0.51571,3.93076c-0.97571,1.09408 -1.52125,2.28558 -4.04907,0.03125c-2.52782,-2.25433 -2.81034,-6.06283 -2.81034,-6.06283c0,0 3.81588,-0.15351 6.3437,2.10082z" fill="#f2d40e" stroke="none"/></g></g><path d="M295.94243,216.86713c0,-0.9665 0.7835,-1.75 1.75,-1.75c0.9665,0 1.75,0.7835 1.75,1.75c0,0.9665 -0.7835,1.75 -1.75,1.75c-0.9665,0 -1.75,-0.7835 -1.75,-1.75z" fill="#ff9600" stroke="none" stroke-width="0.5"/><path d="M345.50938,219.11519c0,0.69036 -0.55964,1.25 -1.25,1.25c-0.58846,0 -1.08194,-0.40663 -1.2148,-0.95423c-0.74057,-0.20381 -1.28455,-0.8821 -1.28455,-1.68743c0,-0.9665 0.7835,-1.75 1.75,-1.75c0.9665,0 1.5359,0.7835 1.5359,1.75c0,0.13554 -0.0112,0.26747 -0.03312,0.39415c0.30166,0.22821 0.49657,0.59009 0.49657,0.99751z" fill="#ff9600" stroke="none" stroke-width="0.5"/><path d="M337.26391,216.86713c0,-0.9665 0.7835,-1.75 1.75,-1.75c0.9665,0 1.75,0.7835 1.75,1.75c0,0.9665 -0.7835,1.75 -1.75,1.75c-0.9665,0 -1.75,-0.7835 -1.75,-1.75z" fill="#ff9600" stroke="none" stroke-width="0.5"/><path d="M331.05499,216.86713c0,-0.9665 0.7835,-1.75 1.75,-1.75c0.53678,0 1.01712,0.24168 1.33813,0.62215c0.32101,-0.38047 0.80135,-0.62215 1.33813,-0.62215c0.9665,0 1.75,0.7835 1.75,1.75c0,0.9665 -0.7835,1.75 -1.75,1.75c-0.53678,0 -1.01711,-0.24168 -1.33813,-0.62215c-0.32101,0.38047 -0.80135,0.62215 -1.33813,0.62215c-0.9665,0 -1.75,-0.7835 -1.75,-1.75z" fill="#ff9600" stroke="none" stroke-width="0.5"/><path d="M323.098,218.15174c0,-0.69036 0.55964,-1.25 1.25,-1.25c0.31567,0 0.604,0.11701 0.824,0.31002c-0.00317,-0.04309 -0.0048,-0.08662 -0.0048,-0.13053c0,-0.9665 0.7835,-1.75 1.75,-1.75c0.3111,0 0.60325,0.08118 0.8564,0.22351c0.25315,-0.14234 0.5453,-0.22351 0.8564,-0.22351c0.9665,0 1.75,0.7835 1.75,1.75c0,0.9665 -0.7835,1.75 -1.75,1.75c-0.3111,0 -0.60325,-0.08118 -0.8564,-0.22351c-0.00778,0.00438 -0.0156,0.00869 -0.02345,0.01295c-0.22316,0.34139 -0.60877,0.56697 -1.04706,0.56697c-0.50801,0 -0.94524,-0.30304 -1.14077,-0.73822c-0.13354,0.54664 -0.62656,0.95233 -1.21434,0.95233c-0.69036,0 -1.25,-0.55964 -1.25,-1.25z" fill="#ff9600" stroke="none" stroke-width="0.5"/><path d="M308.78848,216.86713c0,-0.90794 2.40865,-2.84656 3.17344,-1.50817c0.25014,0.14763 0.46034,0.3557 0.61052,0.60413c0.3065,-0.50702 0.86302,-0.84596 1.4987,-0.84596c0.47595,0 0.90752,0.19 1.223,0.49829c0.06029,-0.02457 0.12224,-0.04518 0.18548,-0.06204c0.19423,-0.07435 0.4051,-0.1151 0.62549,-0.1151c0.45635,0 0.87191,0.17468 1.18346,0.46083c0.02256,0.01482 0.04468,0.02996 0.06638,0.04539c0.23587,-0.11841 0.50221,-0.18507 0.78412,-0.18507c0.20657,0 0.40479,0.03579 0.58877,0.10151c0.18399,-0.06572 0.3822,-0.10151 0.58878,-0.10151c0.9665,0 1.75,0.7835 1.75,1.75c0,0.9665 -0.7835,1.75 -1.75,1.75c-0.20657,0 -0.40479,-0.0358 -0.58878,-0.10152c-0.18399,0.06572 -0.3822,0.10152 -0.58877,0.10152c-0.48323,0 -0.92072,-0.19586 -1.23741,-0.51253c-0.23892,0.12235 -0.50968,0.19138 -0.79655,0.19138c-0.13446,0 -0.26537,-0.01516 -0.39113,-0.04387c-0.435,0.10573 -0.83124,0.0274 -1.07466,-0.37157c-0.17815,0.06112 -0.36929,0.09429 -0.56817,0.09429c-0.63569,0 -1.1922,-0.33894 -1.4987,-0.84596c-0.3065,0.50702 -0.86302,0.84596 -1.49871,0.84596c-0.09804,0 -0.1942,-0.00807 -0.28785,-0.02356c-1.01047,0.44353 -1.99741,0.27119 -1.99741,-1.72644z" fill="#ff9600" stroke="none" stroke-width="0.5"/><path d="M304.0397,215.46065c0.265,-0.5145 2.3117,-1.46315 2.78381,-0.63695c0.5158,0.30442 0.86181,0.86589 0.86181,1.50818c0,0.9665 -0.7835,1.75 -1.75,1.75c-0.36156,0 -0.69751,-0.10965 -0.97641,-0.29751c-0.96798,-0.1522 -1.60936,-0.98382 -0.91921,-2.32372z" fill="#ff9600" stroke="none" stroke-width="0.5"/><path d="M299.9033,216.22483c0,-0.9665 0.7835,-1.75 1.75,-1.75c0.9665,0 1.75,0.7835 1.75,1.75c0,0.9665 -0.7835,1.75 -1.75,1.75c-0.9665,0 -1.75,-0.7835 -1.75,-1.75z" fill="#ff9600" stroke="none" stroke-width="0.5"/><path d="M300.36869,224.71642c0.69036,0 1.25,0.55964 1.25,1.25c0,0.69036 -0.55964,1.25 -1.25,1.25c-0.1789,0 -0.34902,-0.03758 -0.5029,-0.10528c-0.30099,0.24459 -0.6848,0.39118 -1.10286,0.39118c-0.49002,0 -0.93301,-0.2014 -1.25068,-0.52595c-0.28296,0.19661 -0.62671,0.31185 -0.99738,0.31185c-0.9665,0 -1.75,-0.7835 -1.75,-1.75c0,-0.9665 0.7835,-1.75 1.75,-1.75c0.49002,0 0.933,0.2014 1.25068,0.52595c0.28296,-0.19661 0.62672,-0.31185 0.99738,-0.31185c0.5849,0 1.10277,0.28694 1.42053,0.72773c0.06044,-0.00897 0.12229,-0.01363 0.18522,-0.01363z" fill="#ffc72e" stroke="none" stroke-width="0.5"/><path d="M305.22057,228.21448c0,-0.27336 0.08774,-0.52621 0.2366,-0.73195c-0.32446,-0.0491 -0.6197,-0.18731 -0.85998,-0.38887c-0.30406,0.25507 -0.6961,0.40866 -1.12403,0.40866c-0.9665,0 -1.75,-0.7835 -1.75,-1.75c0,-0.9665 0.7835,-1.75 1.75,-1.75c0.42793,0 0.81997,0.15359 1.12403,0.40866c0.30406,-0.25507 0.6961,-0.40866 1.12403,-0.40866c0.48265,0 0.91966,0.19539 1.23626,0.51138c0.30332,-0.25248 0.69335,-0.40433 1.11885,-0.40433c0.9665,0 1.75,0.7835 1.75,1.75c0,0.9665 -0.7835,1.75 -1.75,1.75c-0.19957,0 -0.39134,-0.03341 -0.57002,-0.09494c0.13526,0.19973 0.21427,0.44066 0.21427,0.70005c0,0.69036 -0.55964,1.25 -1.25,1.25c-0.69036,0 -1.25,-0.55964 -1.25,-1.25z" fill="#ffc72e" stroke="none" stroke-width="0.5"/><path d="M327.88066,223.89527c0.9665,0 1.75,0.7835 1.75,1.75c0,0.9665 -0.7835,1.75 -1.75,1.75c-0.68291,0 -1.27445,-0.39117 -1.56279,-0.96166c-0.31642,0.45199 -0.841,0.74755 -1.43462,0.74755c-0.9665,0 -1.75,-0.7835 -1.75,-1.75c0,-0.9665 0.7835,-1.75 1.75,-1.75c0.68291,0 1.27445,0.39117 1.5628,0.96166c0.31642,-0.45199 0.841,-0.74755 1.43461,-0.74755z" fill="#ffc72e" stroke="none" stroke-width="0.5"/><path d="M331.12678,228.32152c0,-0.51662 0.3134,-0.96004 0.76045,-1.1505c-0.43936,-0.31793 -0.7252,-0.83494 -0.7252,-1.41871c0,-0.9665 0.7835,-1.75 1.75,-1.75c0.17045,0 0.3352,0.02437 0.49098,0.06981c0.78988,-0.18737 1.47312,0.15276 1.47312,1.68019c0,0.22004 -0.17418,0.54241 -0.4399,0.86046c-0.19302,0.34118 -0.4973,0.61113 -0.86354,0.76055c-0.08123,0.05076 -0.16337,0.09658 -0.2455,0.13625c0.18679,0.21843 0.29959,0.50202 0.29959,0.81196c0,0.69036 -0.55964,1.25 -1.25,1.25c-0.69036,0 -1.25,-0.55964 -1.25,-1.25z" fill="#ffc72e" stroke="none" stroke-width="0.5"/><path d="M335.94405,226.82283c0,-0.68096 0.54451,-1.23474 1.22187,-1.24969c0.08974,-0.88233 0.83493,-1.57082 1.74094,-1.57082c0.33328,0 0.6448,0.09316 0.90993,0.25487c0.26513,-0.16171 0.57665,-0.25487 0.90992,-0.25487c0.9665,0 1.75,0.7835 1.75,1.75c0,0.9665 -0.7835,1.75 -1.75,1.75c-0.32024,0 -0.62038,-0.08602 -0.8786,-0.23621c-0.11041,0.06321 -0.23139,0.11005 -0.35963,0.13724c-0.18197,0.06411 -0.37773,0.09897 -0.58163,0.09897c-0.21143,0 -0.41411,-0.0375 -0.60174,-0.1062c-0.20783,0.40195 -0.62736,0.6767 -1.11107,0.6767c-0.69036,0 -1.25,-0.55964 -1.25,-1.25z" fill="#ffc72e" stroke="none" stroke-width="0.5"/><path d="M342.36708,228.64268c0,-0.64099 0.48246,-1.16929 1.10406,-1.24157c-0.45205,-0.31641 -0.74766,-0.84103 -0.74766,-1.43469c0,-0.9665 0.7835,-1.75 1.75,-1.75c0.9665,0 1.75,0.7835 1.75,1.75c0,0.9665 -0.7835,1.75 -1.75,1.75c-0.00571,0 -0.01142,-0.00002 -0.01711,-0.00008c0.25227,0.2287 0.41071,0.55902 0.41071,0.92634c0,0.69036 -0.55964,1.25 -1.25,1.25c-0.69036,0 -1.25,-0.55964 -1.25,-1.25z" fill="#ffc72e" stroke="none" stroke-width="0.5"/><path d="M297.79948,229.99715c0.9665,0 1.75,0.7835 1.75,1.75c0,0.9665 -0.7835,1.75 -1.75,1.75c-0.53678,0 -1.01712,-0.24167 -1.33813,-0.62215c-0.32101,0.38047 -0.80135,0.62215 -1.33813,0.62215c-0.9665,0 -1.75,-0.7835 -1.75,-1.75c0,-0.9665 0.7835,-1.75 1.75,-1.75c0.53678,0 1.01711,0.24168 1.33813,0.62215c0.32101,-0.38047 0.80135,-0.62215 1.33813,-0.62215z" fill="#f2bc49" stroke="none" stroke-width="0.5"/><path d="M303.93597,232.4965c0,-0.69036 0.55964,-1.25 1.25,-1.25c0.27335,0 0.52621,0.08774 0.73195,0.2366c0.06109,-0.40368 0.26009,-0.76211 0.54745,-1.02577c0.3199,-0.34867 0.77933,-0.56724 1.28981,-0.56724c0.9665,0 1.75,0.7835 1.75,1.75c0,0.51048 -0.21858,0.96991 -0.56724,1.28981c-0.3199,0.34867 -0.77933,0.56724 -1.28981,0.56724c-0.51031,0 -0.96959,-0.21842 -1.28947,-0.56687c-0.17633,0.47654 -0.63484,0.81623 -1.17269,0.81623c-0.69036,0 -1.25,-0.55964 -1.25,-1.25z" fill="#f2bc49" stroke="none" stroke-width="0.5"/><path d="M317.71087,229.56895c0.9665,0 1.75,0.7835 1.75,1.75c0,0.9665 -0.7835,1.75 -1.75,1.75c-0.63448,0 -1.19009,-0.33766 -1.49696,-0.84308c-0.26839,0.6219 -0.88711,1.05718 -1.6075,1.05718c-0.9665,0 -1.75,-0.7835 -1.75,-1.75c0,-0.9665 0.7835,-1.75 1.75,-1.75c0.63448,0 1.19009,0.33766 1.49696,0.84308c0.26839,-0.6219 0.88711,-1.05718 1.6075,-1.05718z" fill="#f2bc49" stroke="none" stroke-width="0.5"/><path d="M320.34994,231.10484c0,-0.9665 0.7835,-1.75 1.75,-1.75c0.9665,0 1.75,0.7835 1.75,1.75c0,0.9665 -0.7835,1.75 -1.75,1.75c-0.9665,0 -1.75,-0.7835 -1.75,-1.75z" fill="#f2bc49" stroke="none" stroke-width="0.5"/><path d="M327.41526,231.10484c0,-0.9665 0.7835,-1.75 1.75,-1.75c0.9665,0 1.75,0.7835 1.75,1.75c0,0.9665 -0.7835,1.75 -1.75,1.75c-0.9665,0 -1.75,-0.7835 -1.75,-1.75z" fill="#f2bc49" stroke="none" stroke-width="0.5"/><path d="M338.62032,234.20931c0,-0.33082 0.12851,-0.63162 0.33833,-0.85521c-0.2128,0.09204 -0.44749,0.14305 -0.6941,0.14305c-0.9665,0 -1.75,-0.7835 -1.75,-1.75c0,-0.9665 0.7835,-1.75 1.75,-1.75c0.42778,0 0.81972,0.15349 1.12373,0.40841c0.32101,-0.38068 0.80148,-0.6225 1.33843,-0.6225c0.9665,0 1.75,0.7835 1.75,1.75c0,0.9665 -0.7835,1.75 -1.75,1.75c-0.00571,0 -0.01141,-0.00003 -0.01711,-0.00009c0.25227,0.2287 0.41071,0.55902 0.41071,0.92634c0,0.69036 -0.55964,1.25 -1.25,1.25c-0.69036,0 -1.25,-0.55964 -1.25,-1.25zM339.60299,232.87464c-0.04618,0.05477 -0.09566,0.10666 -0.14814,0.15537c0.08593,-0.03027 0.17616,-0.05142 0.26953,-0.06227c-0.04184,-0.02928 -0.08234,-0.06036 -0.12139,-0.0931z" fill="#f2bc49" stroke="none" stroke-width="0.5"/><path d="M345.65104,229.8901c0.9665,0 1.75,0.7835 1.75,1.75c0,0.9665 -0.7835,1.75 -1.75,1.75c-0.33299,0 -0.64426,-0.09301 -0.90924,-0.25446c-0.12092,0.02642 -0.24651,0.04036 -0.37536,0.04036c-0.9665,0 -1.75,-0.7835 -1.75,-1.75c0,-0.9665 0.7835,-1.75 1.75,-1.75c0.33299,0 0.64425,0.093 0.90924,0.25445c0.12092,-0.02642 0.24652,-0.04035 0.37537,-0.04035z" fill="#f2bc49" stroke="none" stroke-width="0.5"/><path d="M301.68791,220.07865c0,-0.69036 0.55964,-1.25 1.25,-1.25c0.69036,0 1.25,0.55964 1.25,1.25c0,0.69036 -0.55964,1.25 -1.25,1.25c-0.69036,0 -1.25,-0.55964 -1.25,-1.25z" fill="#ff9600" stroke="none" stroke-width="0.5"/><path d="M311.32245,220.50685c0,-0.69036 0.55964,-1.25 1.25,-1.25c0.69036,0 1.25,0.55964 1.25,1.25c0,0.69036 -0.55964,1.25 -1.25,1.25c-0.69036,0 -1.25,-0.55964 -1.25,-1.25z" fill="#ff9600" stroke="none" stroke-width="0.5"/><path d="M330.91268,220.50685c0,-0.69036 0.55964,-1.25 1.25,-1.25c0.69036,0 1.25,0.55964 1.25,1.25c0,0.69036 -0.55964,1.25 -1.25,1.25c-0.69036,0 -1.25,-0.55964 -1.25,-1.25z" fill="#ff9600" stroke="none" stroke-width="0.5"/><path d="M336.80046,221.79145c0,-0.69036 0.55964,-1.25 1.25,-1.25c0.69036,0 1.25,0.55964 1.25,1.25c0,0.69036 -0.55964,1.25 -1.25,1.25c-0.69036,0 -1.25,-0.55964 -1.25,-1.25z" fill="#ff9600" stroke="none" stroke-width="0.5"/><path d="M301.0456,228.74973c0,-0.69036 0.55964,-1.25 1.25,-1.25c0.69036,0 1.25,0.55964 1.25,1.25c0,0.69036 -0.55964,1.25 -1.25,1.25c-0.69036,0 -1.25,-0.55964 -1.25,-1.25z" fill="#ffc72e" stroke="none" stroke-width="0.5"/><path d="M317.53137,227.35808c0,-0.1411 0.02338,-0.27673 0.06647,-0.40324c-0.19722,0.07701 -0.41183,0.11928 -0.63632,0.11928c-0.37248,0 -0.71777,-0.11637 -1.00152,-0.31473c-0.30617,0.26291 -0.70428,0.42178 -1.13949,0.42178c-0.38732,0 -0.74524,-0.12582 -1.03514,-0.33882c-0.2268,0.23088 -0.54256,0.37408 -0.89177,0.37408c-0.13883,0 -0.27238,-0.02264 -0.39715,-0.06441c-0.22837,0.29941 -0.58887,0.49262 -0.9945,0.49262c-0.69036,0 -1.25,-0.55964 -1.25,-1.25c0,-0.69036 0.55964,-1.25 1.25,-1.25c0.13883,0 0.27238,0.02264 0.39715,0.06441c0.22837,-0.29941 0.58887,-0.49262 0.9945,-0.49262c0.10774,0 0.2123,0.01363 0.31204,0.03926c0.2643,-0.63113 0.88781,-1.07452 1.61487,-1.07452c0.37248,0 0.71777,0.11637 1.00151,0.31474c0.30617,-0.26291 0.70428,-0.42178 1.1395,-0.42178c0.9665,0 1.75,0.7835 1.75,1.75c0,0.29354 -0.07228,0.5702 -0.2,0.81316c0.08691,-0.01913 0.17721,-0.0292 0.26986,-0.0292c0.69036,0 1.25,0.55964 1.25,1.25c0,0.69036 -0.55964,1.25 -1.25,1.25c-0.69036,0 -1.25,-0.55964 -1.25,-1.25z" fill="#ffc72e" stroke="none" stroke-width="0.5"/><path d="M320.63584,228.10743c0,-0.69036 0.55964,-1.25 1.25,-1.25c0.69036,0 1.25,0.55964 1.25,1.25c0,0.69036 -0.55964,1.25 -1.25,1.25c-0.69036,0 -1.25,-0.55964 -1.25,-1.25z" fill="#ffc72e" stroke="none" stroke-width="0.5"/><path d="M325.02491,228.32152c0,-0.69036 0.55964,-1.25 1.25,-1.25c0.69036,0 1.25,0.55964 1.25,1.25c0,0.69036 -0.55964,1.25 -1.25,1.25c-0.69036,0 -1.25,-0.55964 -1.25,-1.25z" fill="#ffc72e" stroke="none" stroke-width="0.5"/><path d="M294.94372,236.13622c0,-0.69036 0.55964,-1.25 1.25,-1.25c0.69036,0 1.25,0.55964 1.25,1.25c0,0.69036 -0.55964,1.25 -1.25,1.25c-0.69036,0 -1.25,-0.55964 -1.25,-1.25z" fill="#f2bc49" stroke="none" stroke-width="0.5"/><path d="M301.36675,232.60355c0,-0.69036 0.55964,-1.25 1.25,-1.25c0.69036,0 1.25,0.55964 1.25,1.25c0,0.69036 -0.55964,1.25 -1.25,1.25c-0.69036,0 -1.25,-0.55964 -1.25,-1.25z" fill="#f2bc49" stroke="none" stroke-width="0.5"/><path d="M308.32503,234.10226c0,-0.69036 0.55964,-1.25 1.25,-1.25c0.69036,0 1.25,0.55964 1.25,1.25c0,0.69036 -0.55964,1.25 -1.25,1.25c-0.69036,0 -1.25,-0.55964 -1.25,-1.25z" fill="#f2bc49" stroke="none" stroke-width="0.5"/><path d="M310.7872,234.74456c0,-0.69036 0.55964,-1.25 1.25,-1.25c0.69036,0 1.25,0.55964 1.25,1.25c0,0.69036 -0.55964,1.25 -1.25,1.25c-0.69036,0 -1.25,-0.55964 -1.25,-1.25z" fill="#f2bc49" stroke="none" stroke-width="0.5"/><path d="M314.85511,235.27981c0,-0.69036 0.55964,-1.25 1.25,-1.25c0.69036,0 1.25,0.55964 1.25,1.25c0,0.69036 -0.55964,1.25 -1.25,1.25c-0.69036,0 -1.25,-0.55964 -1.25,-1.25z" fill="#f2bc49" stroke="none" stroke-width="0.5"/><path d="M321.38519,235.38686c0,-0.69036 0.55964,-1.25 1.25,-1.25c0.69036,0 1.25,0.55964 1.25,1.25c0,0.69036 -0.55964,1.25 -1.25,1.25c-0.69036,0 -1.25,-0.55964 -1.25,-1.25z" fill="#f2bc49" stroke="none" stroke-width="0.5"/><path d="M326.63066,234.10226c0,-0.69036 0.55964,-1.25 1.25,-1.25c0.69036,0 1.25,0.55964 1.25,1.25c0,0.69036 -0.55964,1.25 -1.25,1.25c-0.69036,0 -1.25,-0.55964 -1.25,-1.25z" fill="#f2bc49" stroke="none" stroke-width="0.5"/><path d="M332.69793,231.2465c0.69036,0 1.25,0.55964 1.25,1.25c0,0.69036 -0.55964,1.25 -1.25,1.25c-0.0544,0 -0.108,-0.00348 -0.16057,-0.01022c-0.05257,0.00674 -0.10617,0.01022 -0.16057,0.01022c-0.69036,0 -1.25,-0.55964 -1.25,-1.25c0,-0.69036 0.55964,-1.25 1.25,-1.25c0.0544,0 0.108,0.00348 0.16057,0.01022c0.05257,-0.00674 0.10617,-0.01022 0.16057,-0.01022z" fill="#f2bc49" stroke="none" stroke-width="0.5"/><path d="M341.08248,234.74456c0,-0.69036 0.55964,-1.25 1.25,-1.25c0.69036,0 1.25,0.55964 1.25,1.25c0,0.69036 -0.55964,1.25 -1.25,1.25c-0.69036,0 -1.25,-0.55964 -1.25,-1.25z" fill="#f2bc49" stroke="none" stroke-width="0.5"/><path d="M304.86417,223.50426c0,-0.41422 0.33578,-0.75 0.75,-0.75c0.41422,0 0.75,0.33578 0.75,0.75c0,0.41422 -0.33578,0.75 -0.75,0.75c-0.41422,0 -0.75,-0.33578 -0.75,-0.75z" fill="#ff9600" stroke="none" stroke-width="0.5"/><path d="M315.89036,221.8985c0,-0.41422 0.33578,-0.75 0.75,-0.75c0.41422,0 0.75,0.33578 0.75,0.75c0,0.41422 -0.33578,0.75 -0.75,0.75c-0.41422,0 -0.75,-0.33578 -0.75,-0.75z" fill="#ff9600" stroke="none" stroke-width="0.5"/><path d="M329.80692,223.82541c0,-0.41422 0.33578,-0.75 0.75,-0.75c0.41422,0 0.75,0.33578 0.75,0.75c0,0.41422 -0.33578,0.75 -0.75,0.75c-0.41422,0 -0.75,-0.33578 -0.75,-0.75z" fill="#ff9600" stroke="none" stroke-width="0.5"/><path d="M338.47801,224.57477c0,-0.41422 0.33578,-0.75 0.75,-0.75c0.41422,0 0.75,0.33578 0.75,0.75c0,0.41422 -0.33578,0.75 -0.75,0.75c-0.41422,0 -0.75,-0.33578 -0.75,-0.75z" fill="#ff9600" stroke="none" stroke-width="0.5"/><path d="M296.62128,228.85678c0,-0.41422 0.33578,-0.75 0.75,-0.75c0.41422,0 0.75,0.33578 0.75,0.75c0,0.41422 -0.33578,0.75 -0.75,0.75c-0.41422,0 -0.75,-0.33578 -0.75,-0.75z" fill="#ffc72e" stroke="none" stroke-width="0.5"/><path d="M313,230.03434c0,-0.41422 0.33578,-0.75 0.75,-0.75c0.41422,0 0.75,0.33578 0.75,0.75c0,0.41422 -0.33578,0.75 -0.75,0.75c-0.41422,0 -0.75,-0.33578 -0.75,-0.75z" fill="#ffc72e" stroke="none" stroke-width="0.5"/><path d="M335.0524,230.03434c0,-0.41422 0.33578,-0.75 0.75,-0.75c0.41422,0 0.75,0.33578 0.75,0.75c0,0.41422 -0.33578,0.75 -0.75,0.75c-0.41422,0 -0.75,-0.33578 -0.75,-0.75z" fill="#ffc72e" stroke="none" stroke-width="0.5"/><path d="M339.22737,231.6401c0,-0.41422 0.33578,-0.75 0.75,-0.75c0.41422,0 0.75,0.33578 0.75,0.75c0,0.41422 -0.33578,0.75 -0.75,0.75c-0.41422,0 -0.75,-0.33578 -0.75,-0.75z" fill="#ffc72e" stroke="none" stroke-width="0.5"/><path d="M299.51164,237.31377c0,-0.41422 0.33578,-0.75 0.75,-0.75c0.41422,0 0.75,0.33578 0.75,0.75c0,0.41422 -0.33578,0.75 -0.75,0.75c-0.41422,0 -0.75,-0.33578 -0.75,-0.75z" fill="#f2bc49" stroke="none" stroke-width="0.5"/><path d="M302.29496,235.81506c0,-0.41422 0.33578,-0.75 0.75,-0.75c0.41422,0 0.75,0.33578 0.75,0.75c0,0.41422 -0.33578,0.75 -0.75,0.75c-0.41422,0 -0.75,-0.33578 -0.75,-0.75z" fill="#f2bc49" stroke="none" stroke-width="0.5"/><path d="M311.39425,237.84901c0,-0.41422 0.33578,-0.75 0.75,-0.75c0.41422,0 0.75,0.33578 0.75,0.75c0,0.41422 -0.33578,0.75 -0.75,0.75c-0.41422,0 -0.75,-0.33578 -0.75,-0.75z" fill="#f2bc49" stroke="none" stroke-width="0.5"/><path d="M315.67626,240.31118c0,-0.41422 0.33578,-0.75 0.75,-0.75c0.41422,0 0.75,0.33578 0.75,0.75c0,0.41422 -0.33578,0.75 -0.75,0.75c-0.41422,0 -0.75,-0.33578 -0.75,-0.75z" fill="#f2bc49" stroke="none" stroke-width="0.5"/><path d="M326.59541,238.49133c0,-0.41422 0.33578,-0.75 0.75,-0.75c0.41422,0 0.75,0.33578 0.75,0.75c0,0.41422 -0.33578,0.75 -0.75,0.75c-0.41422,0 -0.75,-0.33578 -0.75,-0.75z" fill="#f2bc49" stroke="none" stroke-width="0.5"/><path d="M336.22995,236.45737c0,-0.41422 0.33578,-0.75 0.75,-0.75c0.41422,0 0.75,0.33578 0.75,0.75c0,0.41422 -0.33578,0.75 -0.75,0.75c-0.41422,0 -0.75,-0.33578 -0.75,-0.75z" fill="#f2bc49" stroke="none" stroke-width="0.5"/><path d="M342.22478,239.02658c0,-0.41422 0.33578,-0.75 0.75,-0.75c0.41422,0 0.75,0.33578 0.75,0.75c0,0.41422 -0.33578,0.75 -0.75,0.75c-0.41422,0 -0.75,-0.33578 -0.75,-0.75z" fill="#f2bc49" stroke="none" stroke-width="0.5"/></g><path d="" fill="none" stroke="#000000" stroke-width="2" stroke-linecap="round"/><g><g><path d="M369.19562,117.6567l54.90175,-27.13832c0,0 1.30058,35.17087 -1.55862,53.10512c-3.08523,19.35212 -16.3263,59.07804 -16.3263,59.07804l-30.84312,-21.88789z" fill="#f3ca58" stroke="#000000" stroke-width="0" stroke-linecap="round"/><path d="M378.51031,171.62365c9.39607,4.67686 17.85055,9.08932 17.85055,9.08932c0,0 -9.14288,-2.68391 -18.53894,-7.36077c-9.39607,-4.67686 -17.0318,-8.54576 -16.40576,-9.8035c0.62603,-1.25775 7.69808,3.39809 17.09414,8.07493z" fill="#ff9600" stroke="#000000" stroke-width="0" stroke-linecap="butt"/><path d="M372.00098,151.88424c0.03083,-1.40459 8.41226,-0.20358 18.90538,0.02679c10.49313,0.23036 20.02174,0.62247 20.02174,0.62247c0,0 -9.41537,1.46501 -19.9085,1.23467c-10.49313,-0.23035 -19.04947,-0.47931 -19.01863,-1.88391z" fill="#ff9600" stroke="#000000" stroke-width="0" stroke-linecap="butt"/><g stroke="#000000" stroke-width="0" stroke-linecap="round"><g fill="#f2bc49"><path d="M369.65466,122.35276c-0.23846,-2.43933 -0.45904,-4.69606 -0.45904,-4.69606l54.90175,-27.13832c0,0 0.4925,13.31826 0.2051,27.7427c-0.00618,0.31018 -54.64251,4.14571 -54.64779,4.09168z"/></g><g fill="#ffc72e"><path d="M369.19562,117.6567l54.90175,-27.13832c0,0 0.38114,10.30677 0.27717,22.60647c-0.00022,0.02563 -55.17891,4.53187 -55.17891,4.53187z"/></g><g fill="#ff9600"><path d="M395.60954,104.6001c9.31651,-4.60522 28.48781,-14.08172 28.48781,-14.08172c0,0 0.23766,2.94676 0.29928,6.70932c0.0226,1.37957 -0.14003,2.88155 -0.11658,4.37004c0.0002,0.01289 -28.84602,3.0891 -28.6705,3.00236z"/></g></g><path d="M422.06092,103.64509c-0.96352,0.07587 -1.8061,-0.64372 -1.88197,-1.60724c-0.07587,-0.96352 0.64372,-1.8061 1.60724,-1.88197c0.96352,-0.07587 1.8061,0.64372 1.88197,1.60724c0.07587,0.96352 -0.64372,1.8061 -1.60724,1.88197z" fill="#ff9600" stroke="none" stroke-width="0.5" stroke-linecap="butt"/><path d="M418.4016,104.87222c-0.64083,0.05045 -1.22818,-0.25095 -1.57202,-0.74198c-0.16218,0.73144 -0.78571,1.30322 -1.57146,1.36508c-0.23099,0.01819 -0.45502,-0.00934 -0.6632,-0.07498c-0.19535,0.09741 -0.4123,0.15967 -0.64329,0.17786c-0.96352,0.07587 -1.8061,-0.64372 -1.88197,-1.60724c-0.07587,-0.96352 0.64372,-1.8061 1.60724,-1.88197c0.23099,-0.01819 0.45502,0.00934 0.6632,0.07498c0.19535,-0.09741 0.4123,-0.15967 0.64329,-0.17786c0.64084,-0.05046 1.22818,0.25095 1.57202,0.74199c0.16218,-0.73144 0.78571,-1.30323 1.57146,-1.36509c0.96352,-0.07587 1.8061,0.64372 1.88197,1.60724c0.07587,0.96352 -0.64372,1.8061 -1.60724,1.88197z" fill="#ff9600" stroke="none" stroke-width="0.5" stroke-linecap="butt"/><path d="M410.33201,104.94422c-0.96352,0.07587 -1.8061,-0.64372 -1.88197,-1.60724c-0.07587,-0.96352 0.64372,-1.8061 1.60724,-1.88197c0.96352,-0.07587 1.8061,0.64372 1.88197,1.60724c0.07587,0.96352 -0.64372,1.8061 -1.60724,1.88197z" fill="#ff9600" stroke="none" stroke-width="0.5" stroke-linecap="butt"/><path d="M404.2752,104.47764c-0.04638,-0.13586 -0.07668,-0.27967 -0.08846,-0.42939c-0.07587,-0.96352 0.64372,-1.8061 1.60724,-1.88197c0.96352,-0.07587 1.8061,0.64372 1.88197,1.60724c0.07587,0.96352 -0.64372,1.8061 -1.60724,1.88197c-0.14971,0.01179 -0.29649,0.00437 -0.43794,-0.02018c0.04815,0.68383 -0.46409,1.27983 -1.14881,1.33374c-0.68822,0.05419 -1.29008,-0.4598 -1.34427,-1.14802c-0.05391,-0.68472 0.45457,-1.28393 1.13751,-1.34339z" fill="#ff9600" stroke="none" stroke-width="0.5" stroke-linecap="butt"/><path d="M401.21608,106.03758c-0.96352,0.07587 -1.8061,-0.64372 -1.88197,-1.60724c-0.07587,-0.96352 0.64372,-1.8061 1.60724,-1.88197c0.96352,-0.07587 1.8061,0.64372 1.88197,1.60724c0.07587,0.96352 -0.64372,1.8061 -1.60724,1.88197z" fill="#ff9600" stroke="none" stroke-width="0.5" stroke-linecap="butt"/><path d="M421.49995,108.44604c-0.68823,0.05419 -1.29008,-0.4598 -1.34427,-1.14802c-0.05419,-0.68822 0.45979,-1.29007 1.14802,-1.34427c0.68823,-0.05419 1.29008,0.4598 1.34427,1.14802c0.05419,0.68822 -0.45979,1.29007 -1.14802,1.34427z" fill="#ff9600" stroke="none" stroke-width="0.5" stroke-linecap="butt"/><path d="M414.75594,111.04281c-0.68823,0.05419 -1.29008,-0.4598 -1.34427,-1.14802c-0.05419,-0.68822 0.45979,-1.29007 1.14802,-1.34427c0.68823,-0.05419 1.29008,0.4598 1.34427,1.14802c0.05419,0.68822 -0.45979,1.29007 -1.14802,1.34427z" fill="#ff9600" stroke="none" stroke-width="0.5" stroke-linecap="butt"/><path d="M410.54259,107.61864c-0.68822,0.05419 -1.29008,-0.4598 -1.34427,-1.14802c-0.05419,-0.68822 0.4598,-1.29008 1.14802,-1.34427c0.68823,-0.05419 1.29008,0.4598 1.34427,1.14802c0.05419,0.68822 -0.45979,1.29007 -1.14802,1.34427z" fill="#ff9600" stroke="none" stroke-width="0.5" stroke-linecap="butt"/><path d="M395.13528,107.5172c-0.68823,0.05419 -1.29008,-0.4598 -1.34427,-1.14802c-0.05419,-0.68822 0.45979,-1.29007 1.14802,-1.34427c0.68823,-0.05419 1.29008,0.4598 1.34427,1.14802c0.05419,0.68822 -0.45979,1.29007 -1.14802,1.34427z" fill="#ff9600" stroke="none" stroke-width="0.5" stroke-linecap="butt"/><path d="M391.26435,110.82675c-0.68823,0.05419 -1.29008,-0.4598 -1.34427,-1.14802c-0.05419,-0.68822 0.45979,-1.29007 1.14802,-1.34427c0.68823,-0.05419 1.29008,0.4598 1.34427,1.14802c0.05419,0.68822 -0.45979,1.29007 -1.14802,1.34427z" fill="#ff9600" stroke="none" stroke-width="0.5" stroke-linecap="butt"/><path d="M422.35861,115.45286c-0.96352,0.07587 -1.8061,-0.64372 -1.88197,-1.60724c-0.07587,-0.96352 0.64372,-1.8061 1.60724,-1.88197c0.96352,-0.07587 1.8061,0.64372 1.88197,1.60724c0.07587,0.96352 -0.64372,1.8061 -1.60724,1.88197z" fill="#ffc72e" stroke="none" stroke-width="0.5" stroke-linecap="butt"/><path d="M417.05921,114.93113c-0.96352,0.07587 -1.8061,-0.64372 -1.88197,-1.60724c-0.07587,-0.96352 0.64372,-1.8061 1.60724,-1.88197c0.96352,-0.07587 1.8061,0.64372 1.88197,1.60724c0.07587,0.96352 -0.64372,1.8061 -1.60724,1.88197z" fill="#ffc72e" stroke="none" stroke-width="0.5" stroke-linecap="butt"/><path d="M408.95666,113.30968c0.19372,-0.09564 0.40854,-0.15676 0.63706,-0.17475c0.50627,-0.03986 0.97916,0.13989 1.32497,0.45924c0.00851,-0.00078 0.01705,-0.00154 0.0256,-0.0022c0.96352,-0.07587 1.8061,0.64372 1.88197,1.60724c0.07587,0.96352 -0.64372,1.8061 -1.60724,1.88197c-0.50627,0.03986 -0.97916,-0.13989 -1.32497,-0.45924c-0.00851,0.00078 -0.01705,0.00154 -0.0256,0.0022c-0.47466,0.03737 -0.91998,-0.1183 -1.25873,-0.40107c-0.19373,0.09564 -0.40854,0.15676 -0.63706,0.17475c-0.96352,0.07587 -1.8061,-0.64372 -1.88197,-1.60724c-0.07587,-0.96352 0.64372,-1.8061 1.60724,-1.88197c0.47466,-0.03737 0.91998,0.1183 1.25874,0.40107z" fill="#ffc72e" stroke="none" stroke-width="0.5" stroke-linecap="butt"/><path d="M398.6443,118.26771c-0.68823,0.05419 -1.29008,-0.4598 -1.34427,-1.14802c-0.04647,-0.59027 0.325,-1.11701 0.86589,-1.28917c-0.29888,-0.28666 -0.49773,-0.67988 -0.5328,-1.1252c-0.07587,-0.96352 0.64372,-1.8061 1.60724,-1.88197c0.53328,-0.04199 1.02952,0.15969 1.37922,0.51154c0.27223,-0.50741 0.78898,-0.87006 1.40568,-0.91862c0.96352,-0.07587 1.8061,0.64372 1.88197,1.60724c0.07587,0.96352 -0.64372,1.8061 -1.60724,1.88197c-0.53328,0.04199 -1.02951,-0.1597 -1.37921,-0.51155c-0.2638,0.49169 -0.7572,0.84745 -1.34866,0.91321c0.12299,0.17626 0.2021,0.38657 0.22019,0.61632c0.05419,0.68822 -0.45979,1.29007 -1.14802,1.34427z" fill="#ffc72e" stroke="none" stroke-width="0.5" stroke-linecap="butt"/><path d="M395.2224,116.65054c-0.96352,0.07587 -1.8061,-0.64372 -1.88197,-1.60724c-0.07587,-0.96352 0.64372,-1.8061 1.60724,-1.88197c0.96352,-0.07587 1.8061,0.64372 1.88197,1.60724c0.07587,0.96352 -0.64372,1.8061 -1.60724,1.88197z" fill="#ffc72e" stroke="none" stroke-width="0.5" stroke-linecap="butt"/><path d="M384.50476,117.12203c-0.02471,-0.03894 -0.04791,-0.07897 -0.06956,-0.11999c-0.28633,0.43952 -0.76632,0.746 -1.32969,0.79036c-0.63306,0.04985 -1.21391,-0.24368 -1.5594,-0.72418c-0.26603,0.52865 -0.79378,0.90946 -1.42682,0.95931c-0.56338,0.04435 -1.08541,-0.18323 -1.437,-0.57252c-0.21853,0.64147 -0.80137,1.12436 -1.51983,1.18094c-0.96352,0.07587 -1.8061,-0.64372 -1.88197,-1.60724c-0.07587,-0.96352 0.64372,-1.8061 1.60724,-1.88197c0.56338,-0.04435 1.0854,0.18323 1.43699,0.57252c0.21853,-0.64147 0.80137,-1.12436 1.51983,-1.18094c0.63306,-0.04985 1.2139,0.2437 1.55939,0.7242c0.26603,-0.52865 0.79379,-0.90947 1.42683,-0.95932c0.71848,-0.05657 1.36972,0.32916 1.68593,0.92852c0.28633,-0.43952 0.76631,-0.746 1.32969,-0.79036c0.71309,-0.05614 1.35994,0.3234 1.67876,0.91508c0.28951,-0.32262 0.69865,-0.53887 1.16491,-0.57558c0.96352,-0.07587 1.8061,0.64372 1.88197,1.60724c0.07587,0.96352 -0.64372,1.8061 -1.60724,1.88197c-0.7131,0.05614 -1.35994,-0.3234 -1.67876,-0.91508c-0.10204,0.11371 -0.21893,0.2142 -0.34794,0.29827c-0.07227,0.57612 -0.54069,1.04188 -1.14224,1.08924c-0.68823,0.05419 -1.29008,-0.4598 -1.34427,-1.14802c-0.01296,-0.16451 0.00654,-0.32409 0.05314,-0.47242z" fill="#ffc72e" stroke="none" stroke-width="0.5" stroke-linecap="butt"/><path d="M422.55406,120.32019c-0.96352,0.07587 -1.8061,-0.64372 -1.88197,-1.60724c-0.07587,-0.96352 0.64372,-1.8061 1.60724,-1.88197c0.96352,-0.07587 1.8061,0.64372 1.88197,1.60724c0.07587,0.96352 -0.64372,1.8061 -1.60724,1.88197z" fill="#f2bc49" stroke="none" stroke-width="0.5" stroke-linecap="butt"/><path d="M414.8938,118.43567c0.25639,-0.19242 0.56869,-0.31676 0.91192,-0.34378c0.51302,-0.0404 0.99175,0.14472 1.33873,0.47209c0.12972,-0.77348 0.77147,-1.38943 1.58872,-1.45378c0.96352,-0.07587 1.8061,0.64372 1.88197,1.60724c0.07587,0.96352 -0.64372,1.8061 -1.60724,1.88197c-0.51302,0.0404 -0.99176,-0.14472 -1.33874,-0.47209c-0.12972,0.77348 -0.77147,1.38943 -1.58872,1.45378c-0.34323,0.02703 -0.67113,-0.04689 -0.95448,-0.19682c-0.25639,0.19242 -0.56868,0.31676 -0.91191,0.34378c-0.96352,0.07587 -1.8061,-0.64372 -1.88197,-1.60724c-0.07587,-0.96352 0.64372,-1.8061 1.60724,-1.88197c0.34323,-0.02703 0.67112,0.04689 0.95447,0.19682z" fill="#f2bc49" stroke="none" stroke-width="0.5" stroke-linecap="butt"/><path d="M409.70532,121.70746c-0.96352,0.07587 -1.8061,-0.64372 -1.88197,-1.60724c-0.07587,-0.96352 0.64372,-1.8061 1.60724,-1.88197c0.96352,-0.07587 1.8061,0.64372 1.88197,1.60724c0.07587,0.96352 -0.64372,1.8061 -1.60724,1.88197z" fill="#f2bc49" stroke="none" stroke-width="0.5" stroke-linecap="butt"/><path d="M403.98187,118.72585c0.28929,-0.41472 0.75513,-0.70139 1.29855,-0.74419c0.96352,-0.07587 1.8061,0.64372 1.88197,1.60724c0.07587,0.96352 -0.64372,1.8061 -1.60724,1.88197c-0.18023,0.01419 -0.35622,0.00054 -0.52375,-0.03731c-0.28929,0.41472 -0.75513,0.70139 -1.29855,0.74419c-0.96352,0.07587 -1.8061,-0.64372 -1.88197,-1.60724c-0.07587,-0.96352 0.64372,-1.8061 1.60724,-1.88197c0.18024,-0.01419 0.35622,-0.00054 0.52376,0.03731z" fill="#f2bc49" stroke="none" stroke-width="0.5" stroke-linecap="butt"/><path d="M397.27041,122.09684c-0.09698,0.02495 -0.19743,0.04189 -0.30068,0.05001c-0.56651,0.0446 -1.09121,-0.18578 -1.44285,-0.57904c-0.29052,0.33508 -0.70776,0.56058 -1.18481,0.59815c-0.47704,0.03757 -0.92443,-0.11985 -1.2638,-0.40533c-0.28575,0.44346 -0.76793,0.75311 -1.33444,0.79771c-0.96352,0.07587 -1.8061,-0.64372 -1.88197,-1.60724c-0.07587,-0.96352 0.64372,-1.8061 1.60724,-1.88197c0.47705,-0.03757 0.92443,0.11985 1.2638,0.40533c0.28575,-0.44346 0.76793,-0.75311 1.33445,-0.79771c0.56651,-0.0446 1.09121,0.18578 1.44286,0.57904c0.29052,-0.33508 0.70776,-0.56058 1.1848,-0.59814c0.71309,-0.05614 1.35994,0.3234 1.67876,0.91508c0.28951,-0.32262 0.69865,-0.53888 1.16491,-0.57559c0.96352,-0.07587 1.8061,0.64372 1.88197,1.60724c0.07587,0.96352 -0.64372,1.8061 -1.60724,1.88197c-0.08,0.0063 -0.15915,0.00711 -0.23712,0.00276c-0.19976,0.34058 -0.55727,0.58128 -0.98075,0.61462c-0.64029,0.05041 -1.20581,-0.39096 -1.32512,-1.00688z" fill="#f2bc49" stroke="none" stroke-width="0.5" stroke-linecap="butt"/><path d="M387.96695,122.29234c-0.96352,0.07587 -1.8061,-0.64372 -1.88197,-1.60724c-0.07587,-0.96352 0.64372,-1.8061 1.60724,-1.88197c0.96352,-0.07587 1.8061,0.64372 1.88197,1.60724c0.07587,0.96352 -0.64372,1.8061 -1.60724,1.88197z" fill="#f2bc49" stroke="none" stroke-width="0.5" stroke-linecap="butt"/><path d="M384.47958,123.31812c-0.96352,0.07587 -1.8061,-0.64372 -1.88197,-1.60724c-0.07587,-0.96352 0.64372,-1.8061 1.60724,-1.88197c0.96352,-0.07587 1.8061,0.64372 1.88197,1.60724c0.07587,0.96352 -0.64372,1.8061 -1.60724,1.88197z" fill="#f2bc49" stroke="none" stroke-width="0.5" stroke-linecap="butt"/><path d="M418.26651,117.90387c-0.68822,0.05419 -1.29008,-0.4598 -1.34427,-1.14802c-0.05419,-0.68822 0.4598,-1.29008 1.14802,-1.34427c0.68823,-0.05419 1.29008,0.4598 1.34427,1.14802c0.05419,0.68822 -0.45979,1.29007 -1.14802,1.34427z" fill="#ffc72e" stroke="none" stroke-width="0.5" stroke-linecap="butt"/><path d="M405.00549,117.22993c-0.68823,0.05419 -1.29008,-0.4598 -1.34427,-1.14802c-0.05419,-0.68822 0.45979,-1.29007 1.14802,-1.34427c0.68822,-0.05419 1.29008,0.4598 1.34427,1.14802c0.05419,0.68822 -0.4598,1.29008 -1.14802,1.34427z" fill="#ffc72e" stroke="none" stroke-width="0.5" stroke-linecap="butt"/><path d="M392.2831,119.30549c-0.68823,0.05419 -1.29008,-0.4598 -1.34427,-1.14802c-0.05419,-0.68822 0.45979,-1.29007 1.14802,-1.34427c0.68823,-0.05419 1.29008,0.4598 1.34427,1.14802c0.05419,0.68822 -0.45979,1.29007 -1.14802,1.34427z" fill="#ffc72e" stroke="none" stroke-width="0.5" stroke-linecap="butt"/><path d="M419.11019,125.89109c-0.68823,0.05419 -1.29008,-0.4598 -1.34427,-1.14802c-0.05419,-0.68822 0.45979,-1.29007 1.14802,-1.34427c0.68823,-0.05419 1.29008,0.4598 1.34427,1.14802c0.05419,0.68822 -0.45979,1.29007 -1.14802,1.34427z" fill="#f2bc49" stroke="none" stroke-width="0.5" stroke-linecap="butt"/><path d="M414.13634,126.81963c-0.68822,0.05419 -1.29007,-0.45979 -1.34427,-1.14802c-0.05419,-0.68822 0.4598,-1.29008 1.14802,-1.34427c0.68823,-0.05419 1.29007,0.45979 1.34427,1.14802c0.05419,0.68823 -0.45979,1.29007 -1.14802,1.34427z" fill="#f2bc49" stroke="none" stroke-width="0.5" stroke-linecap="butt"/><path d="M409.85074,126.94231c-0.68822,0.05419 -1.29007,-0.45979 -1.34427,-1.14802c-0.05419,-0.68822 0.4598,-1.29008 1.14802,-1.34427c0.68823,-0.05419 1.29007,0.45979 1.34427,1.14802c0.05419,0.68823 -0.45979,1.29007 -1.14802,1.34427z" fill="#f2bc49" stroke="none" stroke-width="0.5" stroke-linecap="butt"/><path d="M400.09468,125.77762c-0.68823,0.05419 -1.29008,-0.4598 -1.34427,-1.14802c-0.05419,-0.68822 0.45979,-1.29007 1.14802,-1.34427c0.68823,-0.05419 1.29008,0.4598 1.34427,1.14802c0.05419,0.68822 -0.45979,1.29007 -1.14802,1.34427z" fill="#f2bc49" stroke="none" stroke-width="0.5" stroke-linecap="butt"/><path d="M394.0091,124.86084c-0.68823,0.05419 -1.29008,-0.4598 -1.34427,-1.14802c-0.05419,-0.68822 0.45979,-1.29007 1.14802,-1.34427c0.68823,-0.05419 1.29008,0.4598 1.34427,1.14802c0.05419,0.68822 -0.45979,1.29007 -1.14802,1.34427z" fill="#f2bc49" stroke="none" stroke-width="0.5" stroke-linecap="butt"/><path d="M389.96466,126.68262c-0.68823,0.05419 -1.29008,-0.4598 -1.34427,-1.14802c-0.05419,-0.68822 0.45979,-1.29007 1.14802,-1.34427c0.68823,-0.05419 1.29008,0.4598 1.34427,1.14802c0.05419,0.68822 -0.45979,1.29007 -1.14802,1.34427z" fill="#f2bc49" stroke="none" stroke-width="0.5" stroke-linecap="butt"/><path d="M387.05801,126.58935c-0.68823,0.05419 -1.29008,-0.4598 -1.34427,-1.14802c-0.05419,-0.68822 0.45979,-1.29007 1.14802,-1.34427c0.68823,-0.05419 1.29008,0.4598 1.34427,1.14802c0.05419,0.68822 -0.45979,1.29007 -1.14802,1.34427z" fill="#f2bc49" stroke="none" stroke-width="0.5" stroke-linecap="butt"/><path d="M417.31214,128.96734c-0.41294,0.03251 -0.77404,-0.27587 -0.80656,-0.68881c-0.03251,-0.41294 0.27587,-0.77404 0.68881,-0.80656c0.41294,-0.03251 0.77404,0.27587 0.80656,0.68881c0.03251,0.41294 -0.27587,0.77404 -0.68881,0.80656z" fill="#f2bc49" stroke="none" stroke-width="0.5" stroke-linecap="butt"/><path d="M408.9989,131.12526c-0.41294,0.03251 -0.77404,-0.27587 -0.80656,-0.68881c-0.03251,-0.41294 0.27587,-0.77404 0.68881,-0.80656c0.41294,-0.03251 0.77404,0.27587 0.80656,0.68881c0.03251,0.41294 -0.27587,0.77404 -0.68881,0.80656z" fill="#f2bc49" stroke="none" stroke-width="0.5" stroke-linecap="butt"/><path d="M395.64459,133.35796c-0.41294,0.03251 -0.77404,-0.27587 -0.80656,-0.68881c-0.03251,-0.41294 0.27587,-0.77404 0.68881,-0.80656c0.41294,-0.03251 0.77404,0.27587 0.80656,0.68881c0.03251,0.41294 -0.27587,0.77404 -0.68881,0.80656z" fill="#f2bc49" stroke="none" stroke-width="0.5" stroke-linecap="butt"/><path d="M414.92987,119.1684c-0.41294,0.03251 -0.77404,-0.27588 -0.80656,-0.68881c-0.03251,-0.41293 0.27587,-0.77404 0.68881,-0.80656c0.41294,-0.03251 0.77404,0.27588 0.80656,0.68881c0.03251,0.41293 -0.27587,0.77404 -0.68881,0.80656z" fill="#ffc72e" stroke="none" stroke-width="0.5" stroke-linecap="butt"/><path d="M398.48655,120.35575c-0.41294,0.03251 -0.77404,-0.27588 -0.80656,-0.68881c-0.03251,-0.41293 0.27587,-0.77404 0.68881,-0.80656c0.41294,-0.03251 0.77404,0.27588 0.80656,0.68881c0.03251,0.41293 -0.27587,0.77404 -0.68881,0.80656z" fill="#ffc72e" stroke="none" stroke-width="0.5" stroke-linecap="butt"/><path d="M384.08522,120.2011c-0.41294,0.03251 -0.77404,-0.27588 -0.80656,-0.68881c-0.03251,-0.41293 0.27587,-0.77404 0.68881,-0.80656c0.41294,-0.03251 0.77404,0.27588 0.80656,0.68881c0.03251,0.41293 -0.27587,0.77404 -0.68881,0.80656z" fill="#ffc72e" stroke="none" stroke-width="0.5" stroke-linecap="butt"/><path d="M361.26375,138.1601c-0.72559,-1.20306 6.99746,-4.67367 15.98499,-10.0943c8.98753,-5.42063 17.24681,-10.18848 17.24681,-10.18848c0,0 -7.1698,6.27609 -16.15733,11.69671c-8.98753,5.42062 -16.34886,9.78911 -17.07445,8.58606z" fill="#ff9600" stroke="#000000" stroke-width="0" stroke-linecap="butt"/></g><g><path d="M270.31442,189.08554l-27.03742,26.44533c0,0 -19.29529,-37.16404 -25.37125,-55.79482c-5.63079,-17.26577 -9.85073,-52.20677 -9.85073,-52.20677l58.47251,18.21137z" fill="#f3ca58" stroke="#000000" stroke-width="0" stroke-linecap="round"/><path d="M281.39356,169.84958c0.81516,1.14427 -6.12096,6.16054 -14.66928,12.2503c-8.5483,6.08977 -17.15846,10.17153 -17.15846,10.17153c0,0 7.65972,-5.68129 16.20804,-11.77105c8.54831,-6.08977 14.80453,-11.79505 15.61971,-10.65078z" fill="#ff9600" stroke="#000000" stroke-width="0" stroke-linecap="butt"/><path d="M269.11359,159.98546c0.25027,1.38245 -8.16166,2.96747 -18.48941,4.83724c-10.32777,1.86976 -19.85639,1.89638 -19.85639,1.89638c0,0 9.34983,-1.87857 19.67759,-3.74834c10.32777,-1.86976 18.41794,-4.36774 18.66822,-2.98527z" fill="#ff9600" stroke="#000000" stroke-width="0" stroke-linecap="butt"/><g stroke="#000000" stroke-width="0" stroke-linecap="round"><g fill="#f2bc49"><path d="M212.19437,134.9622c-2.54138,-14.20171 -4.13936,-27.43291 -4.13936,-27.43291l58.47251,18.21137c0,0 0.13532,2.26343 0.28158,4.71003c0.00324,0.0542 -54.5601,4.81688 -54.61473,4.5115z"/></g><g fill="#ffc72e"><path d="M211.31934,129.90053c-2.02767,-12.13184 -3.26431,-22.37125 -3.26431,-22.37125l58.47251,18.21137c0,0 -55.20398,4.18515 -55.2082,4.15988z"/></g><g fill="#ff9600"><path d="M209.60859,118.50072c-0.20981,-1.47382 -0.6055,-2.93184 -0.79909,-4.29795c-0.52801,-3.72585 -0.75446,-6.67348 -0.75446,-6.67348c0,0 20.41819,6.35928 30.34065,9.44964c0.18692,0.05821 -28.78526,1.53455 -28.78708,1.52178z"/></g></g><path d="M210.23882,118.56827c-0.07587,-0.96352 0.64372,-1.8061 1.60724,-1.88197c0.96352,-0.07587 1.8061,0.64372 1.88197,1.60724c0.07587,0.96352 -0.64372,1.8061 -1.60724,1.88197c-0.96352,0.07587 -1.8061,-0.64372 -1.88197,-1.60724z" fill="#ff9600" stroke="none" stroke-width="0.5" stroke-linecap="butt"/><path d="M214.0451,119.20756c-0.07587,-0.96352 0.64372,-1.8061 1.60724,-1.88197c0.78575,-0.06186 1.49109,0.40529 1.76574,1.10233c0.26276,-0.53879 0.79569,-0.92842 1.43653,-0.97887c0.23099,-0.01819 0.45502,0.00934 0.6632,0.07498c0.19535,-0.09741 0.4123,-0.15967 0.64329,-0.17786c0.96352,-0.07587 1.8061,0.64372 1.88197,1.60724c0.07587,0.96352 -0.64372,1.8061 -1.60724,1.88197c-0.23099,0.01819 -0.45502,-0.00934 -0.6632,-0.07498c-0.19535,0.09741 -0.4123,0.15967 -0.64329,0.17786c-0.78575,0.06186 -1.49109,-0.40528 -1.76574,-1.10232c-0.26276,0.53879 -0.79569,0.92841 -1.43653,0.97886c-0.96352,0.07587 -1.8061,-0.64372 -1.88197,-1.60724z" fill="#ff9600" stroke="none" stroke-width="0.5" stroke-linecap="butt"/><path d="M222.02651,118.01573c-0.07587,-0.96352 0.64372,-1.8061 1.60724,-1.88197c0.96352,-0.07587 1.8061,0.64372 1.88197,1.60724c0.07587,0.96352 -0.64372,1.8061 -1.60724,1.88197c-0.96352,0.07587 -1.8061,-0.64372 -1.88197,-1.60724z" fill="#ff9600" stroke="none" stroke-width="0.5" stroke-linecap="butt"/><path d="M231.15137,119.36301c0.05419,0.68822 -0.45979,1.29007 -1.14802,1.34427c-0.68472,0.05391 -1.28393,-0.45457 -1.3434,-1.13751c-0.13586,0.04638 -0.27967,0.07668 -0.42939,0.08846c-0.96352,0.07587 -1.8061,-0.64372 -1.88197,-1.60724c-0.07587,-0.96352 0.64372,-1.8061 1.60724,-1.88197c0.96352,-0.07587 1.8061,0.64372 1.88197,1.60724c0.01179,0.14971 0.00438,0.29649 -0.02018,0.43794c0.68383,-0.04815 1.27982,0.46409 1.33373,1.14881z" fill="#ff9600" stroke="none" stroke-width="0.5" stroke-linecap="butt"/><path d="M231.20124,117.66891c-0.07587,-0.96352 0.64372,-1.8061 1.60724,-1.88197c0.96352,-0.07587 1.8061,0.64372 1.88197,1.60724c0.07587,0.96352 -0.64372,1.8061 -1.60724,1.88197c-0.96352,0.07587 -1.8061,-0.64372 -1.88197,-1.60724z" fill="#ff9600" stroke="none" stroke-width="0.5" stroke-linecap="butt"/><path d="M212.08197,123.68146c-0.05419,-0.68822 0.45979,-1.29007 1.14802,-1.34427c0.68823,-0.05419 1.29008,0.4598 1.34427,1.14802c0.05419,0.68822 -0.45979,1.29007 -1.14802,1.34427c-0.68823,0.05419 -1.29008,-0.4598 -1.34427,-1.14802z" fill="#ff9600" stroke="none" stroke-width="0.5" stroke-linecap="butt"/><path d="M219.14929,125.19076c-0.05419,-0.68822 0.45979,-1.29007 1.14802,-1.34427c0.68823,-0.05419 1.29008,0.4598 1.34427,1.14802c0.05419,0.68822 -0.45979,1.29007 -1.14802,1.34427c-0.68823,0.05419 -1.29008,-0.4598 -1.34427,-1.14802z" fill="#ff9600" stroke="none" stroke-width="0.5" stroke-linecap="butt"/><path d="M222.77479,121.14935c-0.05419,-0.68822 0.45979,-1.29007 1.14802,-1.34427c0.68823,-0.05419 1.29008,0.4598 1.34427,1.14802c0.05419,0.68822 -0.45979,1.29007 -1.14802,1.34427c-0.68823,0.05419 -1.29008,-0.4598 -1.34427,-1.14802z" fill="#ff9600" stroke="none" stroke-width="0.5" stroke-linecap="butt"/><path d="M237.97636,118.63782c-0.05419,-0.68823 0.45979,-1.29007 1.14802,-1.34427c0.68823,-0.05419 1.29007,0.45979 1.34427,1.14802c0.05419,0.68823 -0.45979,1.29007 -1.14802,1.34427c-0.68823,0.05419 -1.29007,-0.45979 -1.34427,-1.14802z" fill="#ff9600" stroke="none" stroke-width="0.5" stroke-linecap="butt"/><path d="M242.31757,121.30074c-0.05419,-0.68823 0.45979,-1.29007 1.14802,-1.34427c0.68823,-0.05419 1.29007,0.45979 1.34427,1.14802c0.05419,0.68823 -0.45979,1.29007 -1.14802,1.34427c-0.68823,0.05419 -1.29007,-0.45979 -1.34427,-1.14802z" fill="#ff9600" stroke="none" stroke-width="0.5" stroke-linecap="butt"/><path d="M211.79279,130.27712c-0.07587,-0.96352 0.64372,-1.8061 1.60724,-1.88197c0.96352,-0.07587 1.8061,0.64372 1.88197,1.60724c0.07587,0.96352 -0.64372,1.8061 -1.60724,1.88197c-0.96352,0.07587 -1.8061,-0.64372 -1.88197,-1.60724z" fill="#ffc72e" stroke="none" stroke-width="0.5" stroke-linecap="butt"/><path d="M216.94522,128.93244c-0.07587,-0.96352 0.64372,-1.8061 1.60724,-1.88197c0.96352,-0.07587 1.8061,0.64372 1.88197,1.60724c0.07587,0.96352 -0.64372,1.8061 -1.60724,1.88197c-0.96352,0.07587 -1.8061,-0.64372 -1.88197,-1.60724z" fill="#ffc72e" stroke="none" stroke-width="0.5" stroke-linecap="butt"/><path d="M227.75658,127.07694c0.96352,-0.07587 1.8061,0.64372 1.88197,1.60724c0.07587,0.96352 -0.64372,1.8061 -1.60724,1.88197c-0.22852,0.018 -0.45024,-0.00876 -0.65656,-0.0729c-0.29032,0.33231 -0.70578,0.55577 -1.18045,0.59315c-0.00856,0.00067 -0.01709,0.00129 -0.02562,0.00183c-0.29157,0.36955 -0.73049,0.6211 -1.23676,0.66096c-0.96352,0.07587 -1.8061,-0.64372 -1.88197,-1.60724c-0.07587,-0.96352 0.64372,-1.8061 1.60724,-1.88197c0.00856,-0.00067 0.01709,-0.00129 0.02562,-0.00183c0.29157,-0.36955 0.73049,-0.6211 1.23676,-0.66096c0.22852,-0.018 0.45024,0.00876 0.65656,0.0729c0.29032,-0.33231 0.70578,-0.55577 1.18045,-0.59315z" fill="#ffc72e" stroke="none" stroke-width="0.5" stroke-linecap="butt"/><path d="M236.19312,129.80504c-0.01808,-0.22974 0.02713,-0.44986 0.12102,-0.6432c-0.59445,0.02762 -1.13746,-0.24652 -1.47495,-0.69088c-0.29033,0.40224 -0.74888,0.67909 -1.28216,0.72109c-0.96352,0.07587 -1.8061,-0.64372 -1.88197,-1.60724c-0.07587,-0.96352 0.64372,-1.8061 1.60724,-1.88197c0.61669,-0.04856 1.18384,0.22874 1.53213,0.68729c0.29033,-0.40224 0.74888,-0.67909 1.28216,-0.72109c0.96352,-0.07587 1.8061,0.64372 1.88197,1.60724c0.03507,0.44533 -0.09979,0.86482 -0.35013,1.19473c0.56117,0.0854 1.01051,0.5475 1.05699,1.13777c0.05419,0.68823 -0.45979,1.29007 -1.14802,1.34427c-0.68823,0.05419 -1.29007,-0.45979 -1.34427,-1.14802z" fill="#ffc72e" stroke="none" stroke-width="0.5" stroke-linecap="butt"/><path d="M238.78206,127.21303c-0.07587,-0.96352 0.64372,-1.8061 1.60724,-1.88197c0.96352,-0.07587 1.8061,0.64372 1.88197,1.60724c0.07587,0.96352 -0.64372,1.8061 -1.60724,1.88197c-0.96352,0.07587 -1.8061,-0.64372 -1.88197,-1.60724z" fill="#ffc72e" stroke="none" stroke-width="0.5" stroke-linecap="butt"/><path d="M251.44981,128.06683c0.05419,0.68823 -0.45979,1.29007 -1.14802,1.34427c-0.60154,0.04736 -1.13709,-0.33934 -1.29865,-0.89705c-0.14058,-0.06285 -0.27176,-0.14381 -0.39033,-0.24013c-0.2223,0.63428 -0.80177,1.1104 -1.51486,1.16654c-0.96352,0.07587 -1.8061,-0.64372 -1.88197,-1.60724c-0.07587,-0.96352 0.64372,-1.8061 1.60724,-1.88197c0.46625,-0.03671 0.9042,0.11284 1.24064,0.38618c0.2223,-0.63428 0.80177,-1.1104 1.51486,-1.16654c0.56338,-0.04435 1.0854,0.18323 1.43699,0.57253c0.21853,-0.64147 0.80137,-1.12436 1.51983,-1.18094c0.63306,-0.04985 1.21391,0.24369 1.5594,0.72419c0.26603,-0.52864 0.79378,-0.90947 1.42683,-0.95932c0.71848,-0.05657 1.36972,0.32916 1.68593,0.92852c0.28633,-0.43952 0.76632,-0.74601 1.32968,-0.79037c0.96352,-0.07587 1.8061,0.64372 1.88197,1.60724c0.07587,0.96352 -0.64372,1.8061 -1.60724,1.88197c-0.71848,0.05657 -1.36972,-0.32916 -1.68593,-0.92852c-0.28633,0.43952 -0.76632,0.74601 -1.32968,0.79037c-0.63306,0.04985 -1.21391,-0.24369 -1.5594,-0.72419c-0.26603,0.52864 -0.79378,0.90947 -1.42683,0.95932c-0.56338,0.04435 -1.0854,-0.18323 -1.43699,-0.57253c-0.01496,0.04389 -0.03163,0.08706 -0.04992,0.12941c0.06923,0.13922 0.11348,0.29377 0.12643,0.45827z" fill="#ffc72e" stroke="none" stroke-width="0.5" stroke-linecap="butt"/><path d="M212.36153,135.11504c-0.07587,-0.96352 0.64372,-1.8061 1.60724,-1.88197c0.96352,-0.07587 1.8061,0.64372 1.88197,1.60724c0.07587,0.96352 -0.64372,1.8061 -1.60724,1.88197c-0.96352,0.07587 -1.8061,-0.64372 -1.88197,-1.60724z" fill="#f2bc49" stroke="none" stroke-width="0.5" stroke-linecap="butt"/><path d="M222.42632,133.31833c0.96352,-0.07587 1.8061,0.64372 1.88197,1.60724c0.07587,0.96352 -0.64372,1.8061 -1.60724,1.88197c-0.34323,0.02703 -0.67113,-0.04689 -0.95448,-0.19682c-0.25639,0.19242 -0.56869,0.31676 -0.91192,0.34378c-0.81725,0.06435 -1.5475,-0.44358 -1.79667,-1.18722c-0.29145,0.37764 -0.73532,0.6354 -1.24834,0.67579c-0.96352,0.07587 -1.8061,-0.64372 -1.88197,-1.60724c-0.07587,-0.96352 0.64372,-1.8061 1.60724,-1.88197c0.81725,-0.06435 1.5475,0.44358 1.79667,1.18722c0.29145,-0.37764 0.73532,-0.6354 1.24834,-0.67579c0.34323,-0.02703 0.67113,0.04689 0.95448,0.19682c0.25639,-0.19242 0.56869,-0.31676 0.91192,-0.34378z" fill="#f2bc49" stroke="none" stroke-width="0.5" stroke-linecap="butt"/><path d="M225.26905,134.47432c-0.07587,-0.96352 0.64372,-1.8061 1.60724,-1.88197c0.96352,-0.07587 1.8061,0.64372 1.88197,1.60724c0.07587,0.96352 -0.64372,1.8061 -1.60724,1.88197c-0.96352,0.07587 -1.8061,-0.64372 -1.88197,-1.60724z" fill="#f2bc49" stroke="none" stroke-width="0.5" stroke-linecap="butt"/><path d="M232.84875,132.12208c0.96352,-0.07587 1.8061,0.64372 1.88197,1.60724c0.07587,0.96352 -0.64372,1.8061 -1.60724,1.88197c-0.54343,0.04279 -1.04839,-0.16746 -1.39902,-0.53178c-0.15955,0.06361 -0.33124,0.10463 -0.51148,0.11882c-0.96352,0.07587 -1.8061,-0.64372 -1.88197,-1.60724c-0.07587,-0.96352 0.64372,-1.8061 1.60724,-1.88197c0.54343,-0.04279 1.04839,0.16746 1.39902,0.53178c0.15955,-0.06361 0.33124,-0.10463 0.51148,-0.11882z" fill="#f2bc49" stroke="none" stroke-width="0.5" stroke-linecap="butt"/><path d="M238.3424,135.72186c-0.42348,0.03334 -0.81425,-0.14843 -1.06486,-0.45357c-0.07632,0.01651 -0.15464,0.02809 -0.23463,0.03438c-0.96352,0.07587 -1.8061,-0.64372 -1.88197,-1.60724c-0.07587,-0.96352 0.64372,-1.8061 1.60724,-1.88197c0.46625,-0.03671 0.9042,0.11284 1.24064,0.38618c0.2223,-0.63428 0.80177,-1.1104 1.51486,-1.16654c0.47704,-0.03757 0.92443,0.11986 1.2638,0.40533c0.28575,-0.44345 0.76793,-0.75311 1.33445,-0.79771c0.56651,-0.0446 1.09121,0.18578 1.44286,0.57904c0.29052,-0.33508 0.70776,-0.56058 1.1848,-0.59814c0.96352,-0.07587 1.8061,0.64372 1.88197,1.60724c0.07587,0.96352 -0.64372,1.8061 -1.60724,1.88197c-0.56651,0.0446 -1.09121,-0.18578 -1.44286,-0.57904c-0.29052,0.33508 -0.70776,0.56058 -1.1848,0.59814c-0.47704,0.03757 -0.92443,-0.11986 -1.2638,-0.40533c-0.28575,0.44345 -0.76793,0.75311 -1.33445,0.79771c-0.10326,0.00813 -0.20512,0.00712 -0.30481,-0.00233c-0.02144,0.62701 -0.51092,1.15145 -1.15122,1.20187z" fill="#f2bc49" stroke="none" stroke-width="0.5" stroke-linecap="butt"/><path d="M246.83107,131.64978c-0.07587,-0.96352 0.64372,-1.8061 1.60724,-1.88197c0.96352,-0.07587 1.8061,0.64372 1.88197,1.60724c0.07587,0.96352 -0.64372,1.8061 -1.60724,1.88197c-0.96352,0.07587 -1.8061,-0.64372 -1.88197,-1.60724z" fill="#f2bc49" stroke="none" stroke-width="0.5" stroke-linecap="butt"/><path d="M250.43599,132.1171c-0.07587,-0.96352 0.64372,-1.8061 1.60724,-1.88197c0.96352,-0.07587 1.8061,0.64372 1.88197,1.60724c0.07587,0.96352 -0.64372,1.8061 -1.60724,1.88197c-0.96352,0.07587 -1.8061,-0.64372 -1.88197,-1.60724z" fill="#f2bc49" stroke="none" stroke-width="0.5" stroke-linecap="butt"/><path d="M216.75577,132.51671c-0.05419,-0.68823 0.45979,-1.29007 1.14802,-1.34427c0.68823,-0.05419 1.29007,0.45979 1.34427,1.14802c0.05419,0.68823 -0.45979,1.29007 -1.14802,1.34427c-0.68823,0.05419 -1.29007,-0.45979 -1.34427,-1.14802z" fill="#ffc72e" stroke="none" stroke-width="0.5" stroke-linecap="butt"/><path d="M229.74789,129.77561c-0.05419,-0.68823 0.45979,-1.29007 1.14802,-1.34427c0.68823,-0.05419 1.29007,0.45979 1.34427,1.14802c0.05419,0.68823 -0.45979,1.29007 -1.14802,1.34427c-0.68823,0.05419 -1.29007,-0.45979 -1.34427,-1.14802z" fill="#ffc72e" stroke="none" stroke-width="0.5" stroke-linecap="butt"/><path d="M242.63835,129.83446c-0.05419,-0.68823 0.45979,-1.29007 1.14802,-1.34427c0.68823,-0.05419 1.29007,0.45979 1.34427,1.14802c0.05419,0.68823 -0.45979,1.29007 -1.14802,1.34427c-0.68823,0.05419 -1.29007,-0.45979 -1.34427,-1.14802z" fill="#ffc72e" stroke="none" stroke-width="0.5" stroke-linecap="butt"/><path d="M217.17256,140.53753c-0.05419,-0.68823 0.45979,-1.29007 1.14802,-1.34427c0.68823,-0.05419 1.29007,0.45979 1.34427,1.14802c0.05419,0.68823 -0.45979,1.29007 -1.14802,1.34427c-0.68823,0.05419 -1.29007,-0.45979 -1.34427,-1.14802z" fill="#f2bc49" stroke="none" stroke-width="0.5" stroke-linecap="butt"/><path d="M222.23042,140.67619c-0.05419,-0.68823 0.45979,-1.29007 1.14802,-1.34427c0.68823,-0.05419 1.29007,0.45979 1.34427,1.14802c0.05419,0.68823 -0.45979,1.29007 -1.14802,1.34427c-0.68823,0.05419 -1.29007,-0.45979 -1.34427,-1.14802z" fill="#f2bc49" stroke="none" stroke-width="0.5" stroke-linecap="butt"/><path d="M226.48242,140.12663c-0.05419,-0.68823 0.45979,-1.29007 1.14802,-1.34427c0.68823,-0.05419 1.29007,0.45979 1.34427,1.14802c0.05419,0.68823 -0.45979,1.29007 -1.14802,1.34427c-0.68823,0.05419 -1.29007,-0.45979 -1.34427,-1.14802z" fill="#f2bc49" stroke="none" stroke-width="0.5" stroke-linecap="butt"/><path d="M235.93598,137.4494c-0.05419,-0.68823 0.45979,-1.29007 1.14802,-1.34427c0.68823,-0.05419 1.29007,0.45979 1.34427,1.14802c0.05419,0.68823 -0.45979,1.29007 -1.14802,1.34427c-0.68823,0.05419 -1.29007,-0.45979 -1.34427,-1.14802z" fill="#f2bc49" stroke="none" stroke-width="0.5" stroke-linecap="butt"/><path d="M241.80306,135.59145c-0.05419,-0.68823 0.45979,-1.29007 1.14802,-1.34427c0.68823,-0.05419 1.29007,0.45979 1.34427,1.14802c0.05419,0.68823 -0.45979,1.29007 -1.14802,1.34427c-0.68823,0.05419 -1.29007,-0.45979 -1.34427,-1.14802z" fill="#f2bc49" stroke="none" stroke-width="0.5" stroke-linecap="butt"/><path d="M246.08279,136.75782c-0.05419,-0.68823 0.45979,-1.29007 1.14802,-1.34427c0.68823,-0.05419 1.29007,0.45979 1.34427,1.14802c0.05419,0.68823 -0.45979,1.29007 -1.14802,1.34427c-0.68823,0.05419 -1.29007,-0.45979 -1.34427,-1.14802z" fill="#f2bc49" stroke="none" stroke-width="0.5" stroke-linecap="butt"/><path d="M248.93902,136.21079c-0.05419,-0.68823 0.45979,-1.29007 1.14802,-1.34427c0.68823,-0.05419 1.29007,0.45979 1.34427,1.14802c0.05419,0.68823 -0.45979,1.29007 -1.14802,1.34427c-0.68823,0.05419 -1.29007,-0.45979 -1.34427,-1.14802z" fill="#f2bc49" stroke="none" stroke-width="0.5" stroke-linecap="butt"/><path d="M219.96759,143.75366c-0.03251,-0.41293 0.27588,-0.77404 0.68881,-0.80656c0.41293,-0.03251 0.77404,0.27588 0.80656,0.68881c0.03251,0.41293 -0.27588,0.77404 -0.68881,0.80656c-0.41293,0.03251 -0.77404,-0.27588 -0.80656,-0.68881z" fill="#f2bc49" stroke="none" stroke-width="0.5" stroke-linecap="butt"/><path d="M228.51612,144.58391c-0.03251,-0.41293 0.27588,-0.77404 0.68881,-0.80656c0.41293,-0.03251 0.77404,0.27588 0.80656,0.68881c0.03251,0.41293 -0.27588,0.77404 -0.68881,0.80656c-0.41293,0.03251 -0.77404,-0.27588 -0.80656,-0.68881z" fill="#f2bc49" stroke="none" stroke-width="0.5" stroke-linecap="butt"/><path d="M242.0553,144.69906c-0.03251,-0.41293 0.27588,-0.77404 0.68881,-0.80656c0.41293,-0.03251 0.77404,0.27588 0.80656,0.68881c0.03251,0.41293 -0.27588,0.77404 -0.68881,0.80656c-0.41293,0.03251 -0.77404,-0.27588 -0.80656,-0.68881z" fill="#f2bc49" stroke="none" stroke-width="0.5" stroke-linecap="butt"/><path d="M220.78691,133.70265c-0.03251,-0.41293 0.27588,-0.77404 0.68881,-0.80656c0.41293,-0.03251 0.77404,0.27588 0.80656,0.68881c0.03251,0.41293 -0.27588,0.77404 -0.68881,0.80656c-0.41293,0.03251 -0.77404,-0.27588 -0.80656,-0.68881z" fill="#ffc72e" stroke="none" stroke-width="0.5" stroke-linecap="butt"/><path d="M237.21341,132.30187c-0.03251,-0.41293 0.27588,-0.77404 0.68881,-0.80656c0.41293,-0.03251 0.77404,0.27588 0.80656,0.68881c0.03251,0.41293 -0.27588,0.77404 -0.68881,0.80656c-0.41293,0.03251 -0.77404,-0.27588 -0.80656,-0.68881z" fill="#ffc72e" stroke="none" stroke-width="0.5" stroke-linecap="butt"/><path d="M251.41308,129.89521c-0.03251,-0.41293 0.27588,-0.77404 0.68881,-0.80656c0.41293,-0.03251 0.77404,0.27588 0.80656,0.68881c0.03251,0.41293 -0.27588,0.77404 -0.68881,0.80656c-0.41293,0.03251 -0.77404,-0.27588 -0.80656,-0.68881z" fill="#ffc72e" stroke="none" stroke-width="0.5" stroke-linecap="butt"/><path d="M277.57057,144.74998c-0.52836,1.30179 -8.48268,-1.86076 -18.20782,-5.80797c-9.72514,-3.94722 -17.78884,-9.02384 -17.78884,-9.02384c0,0 8.90371,3.41644 18.62885,7.36367c9.72514,3.94722 17.8962,6.16635 17.36783,7.46813z" fill="#ff9600" stroke="#000000" stroke-width="0" stroke-linecap="butt"/></g><g><path d="M256.48312,158.19505c-2.61405,-33.1991 23.93799,-62.36981 59.30565,-65.15462c35.36765,-2.78481 66.15792,21.87085 68.77198,55.06994c2.61405,33.1991 -23.93798,62.36981 -59.30565,65.15463c-35.36764,2.78481 -66.15792,-21.87086 -68.77198,-55.06995z" fill="url(#color-2)" stroke="#000000" stroke-width="0" stroke-linecap="butt"/><path d="M261.01893,130.99412c8.91101,-20.63837 29.60975,-35.9726 54.76984,-37.95367c25.26676,-1.98947 48.19732,10.02587 60.18736,29.15599c0.03332,0.05315 -114.98809,8.86922 -114.9572,8.79768z" fill="#f2bc49" stroke="#000000" stroke-width="0" stroke-linecap="butt"/><path d="M263.1949,126.21363c10.25421,-16.8758 30.50596,-31.43402 52.59386,-33.17318c22.59322,-1.77895 44.65283,9.33608 57.35834,25.02664c0.14929,0.18437 -110.23302,8.60869 -109.95221,8.14654z" fill="#ffc72e" stroke="#000000" stroke-width="0" stroke-linecap="butt"/><path d="M269.99021,116.44489c10.74896,-13.46848 26.61488,-21.89394 45.79857,-23.40444c19.73399,-1.55383 36.50426,3.97464 49.28875,16.22411c0.0542,0.05193 -95.18869,7.30735 -95.08732,7.18033z" fill="#ff9600" stroke="#000000" stroke-width="0" stroke-linecap="butt"/><path d="M269.79143,157.42363c-1.01792,-12.92799 8.63708,-24.2334 21.56508,-25.25133c12.92799,-1.01792 24.2334,8.63707 25.25133,21.56507c1.01792,12.92799 -8.63707,24.23341 -21.56507,25.25134c-12.92799,1.01792 -24.23341,-8.63708 -25.25134,-21.56508z" fill="url(#color-3)" stroke="#000000" stroke-width="0" stroke-linecap="butt"/><path d="M283.03664,155.46569c-0.37689,-4.78668 3.19794,-8.97261 7.98463,-9.34949c4.78668,-0.37689 8.97261,3.19795 9.34949,7.98464c0.37689,4.78668 -3.19795,8.97262 -7.98463,9.3495c-4.78668,0.37689 -8.97261,-3.19795 -9.34949,-7.98464z" fill="#000000" stroke="#000000" stroke-width="0" stroke-linecap="butt"/><path d="M349.13386,174.7297c-12.92799,1.01792 -24.2334,-8.63708 -25.25133,-21.56508c-1.01792,-12.92799 8.63707,-24.2334 21.56507,-25.25133c12.92799,-1.01792 24.23341,8.63707 25.25134,21.56507c1.01792,12.92799 -8.63708,24.23341 -21.56508,25.25134z" fill="url(#color-4)" stroke="#000000" stroke-width="0" stroke-linecap="butt"/><path d="M359.94953,153.29488c0.50091,6.36162 -4.25012,11.9248 -10.61176,12.42571c-6.36161,0.5009 -11.92481,-4.25015 -12.42571,-10.61177c-0.50091,-6.36162 4.25014,-11.92481 10.61177,-12.42571c6.36161,-0.5009 11.9248,4.25014 12.4257,10.61177z" fill="#000000" stroke="#000000" stroke-width="0" stroke-linecap="butt"/><path d="M285.19181,85.06206c0,0 7.24207,-40.12074 26.36413,-26.10549c1.45484,1.06631 2.7245,2.19221 3.82874,3.36246c13.4095,14.21112 2.42366,34.9623 2.42366,34.9623" fill="none" stroke="#ff9600" stroke-width="6" stroke-linecap="round"/><path d="M299.09801,96.91647c1.17721,5.9917 -3.02928,11.86293 -9.39547,13.11372c-6.36619,1.25079 -12.48134,-2.59248 -13.65855,-8.58418c-1.17721,-5.9917 2.18869,-15.63968 8.55489,-16.89047c6.36619,-1.25079 13.32192,6.36923 14.49914,12.36094z" fill="#ffffff" stroke="#000000" stroke-width="0" stroke-linecap="butt"/><path d="M263.67306,166.82833c3.71732,-2.55796 8.57288,-0.15819 12.74004,0.14923c4.65181,0.34318 10.56226,0.83513 15.11289,-0.3656c1.89646,-0.5004 3.25586,-1.70507 5.28622,-1.91349c5.2655,-1.60059 12.62822,-2.16158 18.04903,-1.4652c1.96441,0.25236 3.86801,1.14862 5.84657,1.37914c6.01149,0.70041 13.10102,-1.73155 18.77464,-3.45197c9.30892,-1.93601 19.66114,-3.73361 29.06809,-2.01712c2.42244,0.44203 4.77551,1.04054 7.13103,1.76614c1.05099,0.32375 2.63297,-0.06146 3.17611,0.89479c0.98676,1.73729 -3.36803,4.67602 -4.15396,5.48854c-3.55476,2.57204 -7.07835,5.24785 -10.71606,7.69465c-1.37513,0.92493 -3.448,2.80172 -5.1174,3.29339c-7.67673,2.26095 -16.1995,0.81177 -24.02187,0.13184c-12.00257,-1.02629 -24.05405,2.08204 -35.59848,4.88454c-2.06293,0.50078 -3.76787,1.59814 -5.88026,1.94975c-5.66304,0.44016 -9.65359,-1.60633 -15.0512,-3.18675c-3.94617,-1.15545 -7.9899,-2.33405 -11.51012,-4.52826c-2.69583,-1.68034 -5.73124,-3.436 -6.37682,-6.78476c0.1937,-1.57444 1.71755,-2.65936 3.03191,-3.80837c0.13004,-0.0562 0.20964,-0.1105 0.20964,-0.1105z" fill-opacity="0.41176" fill="#6ee8ff" stroke="none" stroke-width="0.5" stroke-linecap="butt"/><path d="M379.0941,124.01627l3.23646,41.10382l-23.64291,16.64906l-36.39548,-1.52428l-34.2764,7.78206l-26.66423,-12.91899l-3.27263,-41.56309z" fill-opacity="0.08235" fill="#00ffff" stroke="#f1da3e" stroke-width="7.5" stroke-linecap="round"/><path d="M269.76664,117.47131c-0.07587,-0.96352 0.64372,-1.8061 1.60724,-1.88197c0.96352,-0.07587 1.8061,0.64372 1.88197,1.60724c0.07587,0.96352 -0.64372,1.8061 -1.60724,1.88197c-0.96352,0.07587 -1.8061,-0.64372 -1.88197,-1.60724z" fill="#ff9600" stroke="none" stroke-width="0.5" stroke-linecap="butt"/><path d="M279.3791,114.80085c0.96352,-0.07587 1.8061,0.64372 1.88197,1.60724c0.07587,0.96352 -0.64372,1.8061 -1.60724,1.88197c-0.76534,0.06026 -1.45438,-0.38135 -1.74347,-1.04846c-0.18112,0.70412 -0.79255,1.24814 -1.55789,1.30841c-0.96352,0.07587 -1.8061,-0.64372 -1.88197,-1.60724c-0.07587,-0.96352 0.64372,-1.8061 1.60724,-1.88197c0.76534,-0.06026 1.45438,0.38135 1.74347,1.04846c0.18112,-0.70412 0.79255,-1.24814 1.55789,-1.30841z" fill="#ff9600" stroke="none" stroke-width="0.5" stroke-linecap="butt"/><path d="M284.61472,115.19492c-0.07587,-0.96352 0.64372,-1.8061 1.60724,-1.88197c0.96352,-0.07587 1.8061,0.64372 1.88197,1.60724c0.07587,0.96352 -0.64372,1.8061 -1.60724,1.88197c-0.96352,0.07587 -1.8061,-0.64372 -1.88197,-1.60724z" fill="#ff9600" stroke="none" stroke-width="0.5" stroke-linecap="butt"/><path d="M291.67669,114.48069c-0.07587,-0.96352 0.64372,-1.8061 1.60724,-1.88197c0.96352,-0.07587 1.8061,0.64372 1.88197,1.60724c0.07587,0.96352 -0.64372,1.8061 -1.60724,1.88197c-0.96352,0.07587 -1.8061,-0.64372 -1.88197,-1.60724z" fill="#ff9600" stroke="none" stroke-width="0.5" stroke-linecap="butt"/><path d="M298.63096,114.40767c-0.07587,-0.96352 0.64372,-1.8061 1.60724,-1.88197c0.96352,-0.07587 1.8061,0.64372 1.88197,1.60724c0.07587,0.96352 -0.64372,1.8061 -1.60724,1.88197c-0.96352,0.07587 -1.8061,-0.64372 -1.88197,-1.60724z" fill="#ff9600" stroke="none" stroke-width="0.5" stroke-linecap="butt"/><path d="M305.56046,114.02022c-0.07587,-0.96352 0.64372,-1.8061 1.60724,-1.88197c0.96352,-0.07587 1.8061,0.64372 1.88197,1.60724c0.07587,0.96352 -0.64372,1.8061 -1.60724,1.88197c-0.96352,0.07587 -1.8061,-0.64372 -1.88197,-1.60724z" fill="#ff9600" stroke="none" stroke-width="0.5" stroke-linecap="butt"/><path d="M309.13911,113.2639c-0.07587,-0.96352 0.64372,-1.8061 1.60724,-1.88197c0.96352,-0.07587 1.8061,0.64372 1.88197,1.60724c0.07587,0.96352 -0.64372,1.8061 -1.60724,1.88197c-0.96352,0.07587 -1.8061,-0.64372 -1.88197,-1.60724z" fill="#ff9600" stroke="none" stroke-width="0.5" stroke-linecap="butt"/><path d="M314.00017,112.72296c-0.07587,-0.96352 0.64372,-1.8061 1.60724,-1.88197c0.96352,-0.07587 1.8061,0.64372 1.88197,1.60724c0.07587,0.96352 -0.64372,1.8061 -1.60724,1.88197c-0.96352,0.07587 -1.8061,-0.64372 -1.88197,-1.60724z" fill="#ff9600" stroke="none" stroke-width="0.5" stroke-linecap="butt"/><path d="M321.07451,112.16594c-0.07587,-0.96352 0.64372,-1.8061 1.60724,-1.88197c0.96352,-0.07587 1.8061,0.64372 1.88197,1.60724c0.07587,0.96352 -0.64372,1.8061 -1.60724,1.88197c-0.96352,0.07587 -1.8061,-0.64372 -1.88197,-1.60724z" fill="#ff9600" stroke="none" stroke-width="0.5" stroke-linecap="butt"/><path d="M325.6459,111.96418c-0.07587,-0.96352 0.64372,-1.8061 1.60724,-1.88197c0.96352,-0.07587 1.8061,0.64372 1.88197,1.60724c0.07587,0.96352 -0.64372,1.8061 -1.60724,1.88197c-0.96352,0.07587 -1.8061,-0.64372 -1.88197,-1.60724z" fill="#ff9600" stroke="none" stroke-width="0.5" stroke-linecap="butt"/><path d="M329.16637,112.47789c-0.07587,-0.96352 0.64372,-1.8061 1.60724,-1.88197c0.96352,-0.07587 1.8061,0.64372 1.88197,1.60724c0.07587,0.96352 -0.64372,1.8061 -1.60724,1.88197c-0.96352,0.07587 -1.8061,-0.64372 -1.88197,-1.60724z" fill="#ff9600" stroke="none" stroke-width="0.5" stroke-linecap="butt"/><path d="M342.6013,110.13918c0.96352,-0.07587 1.8061,0.64372 1.88197,1.60724c0.07587,0.96352 -0.64372,1.8061 -1.60724,1.88197c-0.58231,0.04584 -1.12045,-0.19884 -1.47186,-0.61231c-0.28238,0.46338 -0.77558,0.78926 -1.35787,0.83512c-0.40086,0.03157 -0.78079,-0.07455 -1.09328,-0.27865c-0.23456,0.15028 -0.50847,0.24658 -0.80559,0.26998c-0.96352,0.07587 -1.8061,-0.64372 -1.88197,-1.60724c-0.07587,-0.96352 0.64372,-1.8061 1.60724,-1.88197c0.40086,-0.03157 0.78079,0.07454 1.09328,0.27865c0.23456,-0.15028 0.50847,-0.24657 0.80559,-0.26997c0.58231,-0.04584 1.12044,0.19883 1.47185,0.6123c0.28238,-0.46338 0.77559,-0.78925 1.35788,-0.83511z" fill="#ff9600" stroke="none" stroke-width="0.5" stroke-linecap="butt"/><path d="M352.32342,109.05731c0.96352,-0.07587 1.8061,0.64372 1.88197,1.60724c0.07587,0.96352 -0.64372,1.8061 -1.60724,1.88197c-0.2217,0.01745 -0.43699,-0.0072 -0.63803,-0.06725c-0.18916,0.09077 -0.39793,0.14882 -0.61963,0.16629c-0.96352,0.07587 -1.8061,-0.64372 -1.88197,-1.60724c-0.07587,-0.96352 0.64372,-1.8061 1.60724,-1.88197c0.2217,-0.01745 0.43699,0.0072 0.63802,0.06726c0.18916,-0.09077 0.39793,-0.14882 0.61964,-0.16629z" fill="#ff9600" stroke="none" stroke-width="0.5" stroke-linecap="butt"/><path d="M355.90404,110.53079c-0.07587,-0.96352 0.64372,-1.8061 1.60724,-1.88197c0.96352,-0.07587 1.8061,0.64372 1.88197,1.60724c0.07587,0.96352 -0.64372,1.8061 -1.60724,1.88197c-0.96352,0.07587 -1.8061,-0.64372 -1.88197,-1.60724z" fill="#ff9600" stroke="none" stroke-width="0.5" stroke-linecap="butt"/><path d="M359.32547,109.78683c-0.07587,-0.96352 0.64372,-1.8061 1.60724,-1.88197c0.96352,-0.07587 1.8061,0.64372 1.88197,1.60724c0.07587,0.96352 -0.64372,1.8061 -1.60724,1.88197c-0.96352,0.07587 -1.8061,-0.64372 -1.88197,-1.60724z" fill="#ff9600" stroke="none" stroke-width="0.5" stroke-linecap="butt"/><path d="M369.2961,118.81807c-0.07587,-0.96352 0.64372,-1.8061 1.60724,-1.88197c0.96352,-0.07587 1.8061,0.64372 1.88197,1.60724c0.07587,0.96352 -0.64372,1.8061 -1.60724,1.88197c-0.96352,0.07587 -1.8061,-0.64372 -1.88197,-1.60724z" fill="#ffc72e" stroke="none" stroke-width="0.5" stroke-linecap="butt"/><path d="M358.89563,119.32063c-0.07587,-0.96352 0.64372,-1.8061 1.60724,-1.88197c0.76021,-0.05986 1.44517,0.37547 1.73761,1.03509c0.26456,-0.53328 0.79468,-0.91812 1.4313,-0.96824c0.96352,-0.07587 1.8061,0.64372 1.88197,1.60724c0.07587,0.96352 -0.64372,1.8061 -1.60724,1.88197c-0.76021,0.05986 -1.44517,-0.37547 -1.73761,-1.03509c-0.26456,0.53328 -0.79468,0.91812 -1.4313,0.96824c-0.96352,0.07587 -1.8061,-0.64372 -1.88197,-1.60724z" fill="#ffc72e" stroke="none" stroke-width="0.5" stroke-linecap="butt"/><path d="M350.36929,119.51743c-0.07587,-0.96352 0.64372,-1.8061 1.60724,-1.88197c0.08007,-0.0063 0.15928,-0.00713 0.23731,-0.00275c0.27079,-0.23039 0.61408,-0.38064 0.99561,-0.41069c0.96352,-0.07587 1.8061,0.64372 1.88197,1.60724c0.07587,0.96352 -0.64372,1.8061 -1.60724,1.88197c-0.08007,0.0063 -0.15928,0.00712 -0.23731,0.00275c-0.27079,0.23039 -0.61408,0.38065 -0.99561,0.4107c-0.96352,0.07587 -1.8061,-0.64372 -1.88197,-1.60724z" fill="#ffc72e" stroke="none" stroke-width="0.5" stroke-linecap="butt"/><path d="M344.67268,119.49143c-0.07587,-0.96352 0.64372,-1.8061 1.60724,-1.88197c0.96352,-0.07587 1.8061,0.64372 1.88197,1.60724c0.07587,0.96352 -0.64372,1.8061 -1.60724,1.88197c-0.96352,0.07587 -1.8061,-0.64372 -1.88197,-1.60724z" fill="#ffc72e" stroke="none" stroke-width="0.5" stroke-linecap="butt"/><path d="M335.40981,120.37896c-0.07587,-0.96352 0.64372,-1.8061 1.60724,-1.88197c0.96352,-0.07587 1.8061,0.64372 1.88197,1.60724c0.07587,0.96352 -0.64372,1.8061 -1.60724,1.88197c-0.96352,0.07587 -1.8061,-0.64372 -1.88197,-1.60724z" fill="#ffc72e" stroke="none" stroke-width="0.5" stroke-linecap="butt"/><path d="M328.95192,120.72926c-0.07587,-0.96352 0.64372,-1.8061 1.60724,-1.88197c0.96352,-0.07587 1.8061,0.64372 1.88197,1.60724c0.07587,0.96352 -0.64372,1.8061 -1.60724,1.88197c-0.96352,0.07587 -1.8061,-0.64372 -1.88197,-1.60724z" fill="#ffc72e" stroke="none" stroke-width="0.5" stroke-linecap="butt"/><path d="M320.3674,122.19611c-0.07587,-0.96352 0.64372,-1.8061 1.60724,-1.88197c0.96352,-0.07587 1.8061,0.64372 1.88197,1.60724c0.07587,0.96352 -0.64372,1.8061 -1.60724,1.88197c-0.96352,0.07587 -1.8061,-0.64372 -1.88197,-1.60724z" fill="#ffc72e" stroke="none" stroke-width="0.5" stroke-linecap="butt"/><path d="M302.34671,122.34958c-0.07587,-0.96352 0.64372,-1.8061 1.60724,-1.88197c0.96352,-0.07587 1.8061,0.64372 1.88197,1.60724c0.07587,0.96352 -0.64372,1.8061 -1.60724,1.88197c-0.96352,0.07587 -1.8061,-0.64372 -1.88197,-1.60724z" fill="#ffc72e" stroke="none" stroke-width="0.5" stroke-linecap="butt"/><path d="M283.88286,124.91068c-0.07587,-0.96352 0.64372,-1.8061 1.60724,-1.88197c0.96352,-0.07587 1.8061,0.64372 1.88197,1.60724c0.07587,0.96352 -0.64372,1.8061 -1.60724,1.88197c-0.96352,0.07587 -1.8061,-0.64372 -1.88197,-1.60724z" fill="#ffc72e" stroke="none" stroke-width="0.5" stroke-linecap="butt"/><path d="M276.29976,125.03321c-0.07587,-0.96352 0.64372,-1.8061 1.60724,-1.88197c0.96352,-0.07587 1.8061,0.64372 1.88197,1.60724c0.07587,0.96352 -0.64372,1.8061 -1.60724,1.88197c-0.96352,0.07587 -1.8061,-0.64372 -1.88197,-1.60724z" fill="#ffc72e" stroke="none" stroke-width="0.5" stroke-linecap="butt"/><path d="M266.08127,125.8378c-0.07587,-0.96352 0.64372,-1.8061 1.60724,-1.88197c0.96352,-0.07587 1.8061,0.64372 1.88197,1.60724c0.07587,0.96352 -0.64372,1.8061 -1.60724,1.88197c-0.96352,0.07587 -1.8061,-0.64372 -1.88197,-1.60724z" fill="#ffc72e" stroke="none" stroke-width="0.5" stroke-linecap="butt"/><path d="M291.284,124.4861c-0.07587,-0.96352 0.64372,-1.8061 1.60724,-1.88197c0.96352,-0.07587 1.8061,0.64372 1.88197,1.60724c0.07587,0.96352 -0.64372,1.8061 -1.60724,1.88197c-0.96352,0.07587 -1.8061,-0.64372 -1.88197,-1.60724z" fill="#ffc72e" stroke="none" stroke-width="0.5" stroke-linecap="butt"/><path d="M297.1502,124.65693c-0.07587,-0.96352 0.64372,-1.8061 1.60724,-1.88197c0.96352,-0.07587 1.8061,0.64372 1.88197,1.60724c0.07587,0.96352 -0.64372,1.8061 -1.60724,1.88197c-0.96352,0.07587 -1.8061,-0.64372 -1.88197,-1.60724z" fill="#ffc72e" stroke="none" stroke-width="0.5" stroke-linecap="butt"/><path d="M306.83517,123.10344c-0.07587,-0.96352 0.64372,-1.8061 1.60724,-1.88197c0.96352,-0.07587 1.8061,0.64372 1.88197,1.60724c0.07587,0.96352 -0.64372,1.8061 -1.60724,1.88197c-0.96352,0.07587 -1.8061,-0.64372 -1.88197,-1.60724z" fill="#ffc72e" stroke="none" stroke-width="0.5" stroke-linecap="butt"/><path d="M315.45682,122.10822c-0.07587,-0.96352 0.64372,-1.8061 1.60724,-1.88197c0.96352,-0.07587 1.8061,0.64372 1.88197,1.60724c0.07587,0.96352 -0.64372,1.8061 -1.60724,1.88197c-0.96352,0.07587 -1.8061,-0.64372 -1.88197,-1.60724z" fill="#ffc72e" stroke="none" stroke-width="0.5" stroke-linecap="butt"/><path d="M269.59213,120.84335c-0.05419,-0.68823 0.45979,-1.29007 1.14802,-1.34427c0.68823,-0.05419 1.29007,0.45979 1.34427,1.14802c0.05419,0.68823 -0.45979,1.29007 -1.14802,1.34427c-0.68823,0.05419 -1.29007,-0.45979 -1.34427,-1.14802z" fill="#ff9600" stroke="none" stroke-width="0.5" stroke-linecap="butt"/><path d="M279.33708,118.19809c-0.05419,-0.68823 0.45979,-1.29007 1.14802,-1.34427c0.68823,-0.05419 1.29007,0.45979 1.34427,1.14802c0.05419,0.68823 -0.45979,1.29007 -1.14802,1.34427c-0.68823,0.05419 -1.29007,-0.45979 -1.34427,-1.14802z" fill="#ff9600" stroke="none" stroke-width="0.5" stroke-linecap="butt"/><path d="M281.75899,115.56602c-0.05419,-0.68823 0.45979,-1.29007 1.14802,-1.34427c0.68823,-0.05419 1.29007,0.45979 1.34427,1.14802c0.05419,0.68823 -0.45979,1.29007 -1.14802,1.34427c-0.68823,0.05419 -1.29007,-0.45979 -1.34427,-1.14802z" fill="#ff9600" stroke="none" stroke-width="0.5" stroke-linecap="butt"/><path d="M299.07679,116.08041c-0.05419,-0.68823 0.45979,-1.29007 1.14802,-1.34427c0.68823,-0.05419 1.29007,0.45979 1.34427,1.14802c0.05419,0.68823 -0.45979,1.29007 -1.14802,1.34427c-0.68823,0.05419 -1.29007,-0.45979 -1.34427,-1.14802z" fill="#ff9600" stroke="none" stroke-width="0.5" stroke-linecap="butt"/><path d="M304.07637,117.56472c-0.05419,-0.68823 0.45979,-1.29007 1.14802,-1.34427c0.68823,-0.05419 1.29007,0.45979 1.34427,1.14802c0.05419,0.68823 -0.45979,1.29007 -1.14802,1.34427c-0.68823,0.05419 -1.29007,-0.45979 -1.34427,-1.14802z" fill="#ff9600" stroke="none" stroke-width="0.5" stroke-linecap="butt"/><path d="M311.60073,117.72346c-0.05419,-0.68823 0.45979,-1.29007 1.14802,-1.34427c0.68823,-0.05419 1.29007,0.45979 1.34427,1.14802c0.05419,0.68823 -0.45979,1.29007 -1.14802,1.34427c-0.68823,0.05419 -1.29007,-0.45979 -1.34427,-1.14802z" fill="#ff9600" stroke="none" stroke-width="0.5" stroke-linecap="butt"/><path d="M324.26283,116.35086c-0.05419,-0.68823 0.45979,-1.29007 1.14802,-1.34427c0.68823,-0.05419 1.29007,0.45979 1.34427,1.14802c0.05419,0.68823 -0.45979,1.29007 -1.14802,1.34427c-0.68823,0.05419 -1.29007,-0.45979 -1.34427,-1.14802z" fill="#ff9600" stroke="none" stroke-width="0.5" stroke-linecap="butt"/><path d="M328.82595,114.67698c-0.05419,-0.68823 0.45979,-1.29007 1.14802,-1.34427c0.68823,-0.05419 1.29007,0.45979 1.34427,1.14802c0.05419,0.68823 -0.45979,1.29007 -1.14802,1.34427c-0.68823,0.05419 -1.29007,-0.45979 -1.34427,-1.14802z" fill="#ff9600" stroke="none" stroke-width="0.5" stroke-linecap="butt"/><path d="M337.23502,111.76131c-0.05419,-0.68823 0.45979,-1.29007 1.14802,-1.34427c0.68823,-0.05419 1.29007,0.45979 1.34427,1.14802c0.05419,0.68823 -0.45979,1.29007 -1.14802,1.34427c-0.68823,0.05419 -1.29007,-0.45979 -1.34427,-1.14802z" fill="#ff9600" stroke="none" stroke-width="0.5" stroke-linecap="butt"/><path d="M348.7082,111.98471c-0.05419,-0.68823 0.45979,-1.29007 1.14802,-1.34427c0.68823,-0.05419 1.29007,0.45979 1.34427,1.14802c0.05419,0.68823 -0.45979,1.29007 -1.14802,1.34427c-0.68823,0.05419 -1.29007,-0.45979 -1.34427,-1.14802z" fill="#ff9600" stroke="none" stroke-width="0.5" stroke-linecap="butt"/><path d="M359.92568,113.7306c-0.05419,-0.68823 0.45979,-1.29007 1.14802,-1.34427c0.68823,-0.05419 1.29007,0.45979 1.34427,1.14802c0.05419,0.68823 -0.45979,1.29007 -1.14802,1.34427c-0.68823,0.05419 -1.29007,-0.45979 -1.34427,-1.14802z" fill="#ff9600" stroke="none" stroke-width="0.5" stroke-linecap="butt"/><path d="M274.28483,121.60064c-0.03251,-0.41293 0.27588,-0.77404 0.68881,-0.80656c0.41293,-0.03251 0.77404,0.27588 0.80656,0.68881c0.03251,0.41293 -0.27588,0.77404 -0.68881,0.80656c-0.41293,0.03251 -0.77404,-0.27588 -0.80656,-0.68881z" fill="#ff9600" stroke="none" stroke-width="0.5" stroke-linecap="butt"/><path d="M282.88495,121.11127c-0.03251,-0.41293 0.27588,-0.77404 0.68881,-0.80656c0.41293,-0.03251 0.77404,0.27588 0.80656,0.68881c0.03251,0.41293 -0.27588,0.77404 -0.68881,0.80656c-0.41293,0.03251 -0.77404,-0.27588 -0.80656,-0.68881z" fill="#ff9600" stroke="none" stroke-width="0.5" stroke-linecap="butt"/><path d="M293.57344,119.51849c-0.03251,-0.41293 0.27588,-0.77404 0.68881,-0.80656c0.41293,-0.03251 0.77404,0.27588 0.80656,0.68881c0.03251,0.41293 -0.27588,0.77404 -0.68881,0.80656c-0.41293,0.03251 -0.77404,-0.27588 -0.80656,-0.68881z" fill="#ff9600" stroke="none" stroke-width="0.5" stroke-linecap="butt"/><path d="M307.05998,121.46133c-0.03251,-0.41293 0.27588,-0.77404 0.68881,-0.80656c0.41293,-0.03251 0.77404,0.27588 0.80656,0.68881c0.03251,0.41293 -0.27588,0.77404 -0.68881,0.80656c-0.41293,0.03251 -0.77404,-0.27588 -0.80656,-0.68881z" fill="#ff9600" stroke="none" stroke-width="0.5" stroke-linecap="butt"/><path d="M317.66464,117.80938c-0.03251,-0.41293 0.27588,-0.77404 0.68881,-0.80656c0.41293,-0.03251 0.77404,0.27588 0.80656,0.68881c0.03251,0.41293 -0.27588,0.77404 -0.68881,0.80656c-0.41293,0.03251 -0.77404,-0.27588 -0.80656,-0.68881z" fill="#ff9600" stroke="none" stroke-width="0.5" stroke-linecap="butt"/><path d="M331.0924,119.00565c-0.03251,-0.41293 0.27588,-0.77404 0.68881,-0.80656c0.41293,-0.03251 0.77404,0.27588 0.80656,0.68881c0.03251,0.41293 -0.27588,0.77404 -0.68881,0.80656c-0.41293,0.03251 -0.77404,-0.27588 -0.80656,-0.68881z" fill="#ff9600" stroke="none" stroke-width="0.5" stroke-linecap="butt"/><path d="M343.24895,115.98269c-0.03251,-0.41293 0.27588,-0.77404 0.68881,-0.80656c0.41293,-0.03251 0.77404,0.27588 0.80656,0.68881c0.03251,0.41293 -0.27588,0.77404 -0.68881,0.80656c-0.41293,0.03251 -0.77404,-0.27588 -0.80656,-0.68881z" fill="#ff9600" stroke="none" stroke-width="0.5" stroke-linecap="butt"/><path d="M364.80068,115.41252c-0.03251,-0.41293 0.27588,-0.77404 0.68881,-0.80656c0.41293,-0.03251 0.77404,0.27588 0.80656,0.68881c0.03251,0.41293 -0.27588,0.77404 -0.68881,0.80656c-0.41293,0.03251 -0.77404,-0.27588 -0.80656,-0.68881z" fill="#ff9600" stroke="none" stroke-width="0.5" stroke-linecap="butt"/><path d="M353.67578,117.22746c-0.03251,-0.41293 0.27588,-0.77404 0.68881,-0.80656c0.41293,-0.03251 0.77404,0.27588 0.80656,0.68881c0.03251,0.41293 -0.27588,0.77404 -0.68881,0.80656c-0.41293,0.03251 -0.77404,-0.27588 -0.80656,-0.68881z" fill="#ff9600" stroke="none" stroke-width="0.5" stroke-linecap="butt"/></g><path d="M304.23294,210.59357c0,0 -5.06853,-8.08186 17.17282,-7.90239c23.61875,1.29286 21.28488,5.83642 21.28488,5.83642c0,0 -15.13613,4.63692 -24.67266,4.15424c-9.53655,-0.48268 -13.78503,-2.08826 -13.78503,-2.08826z" fill="#000000" stroke="#000000" stroke-width="0" stroke-linecap="round"/><path d="M317.09483,210.80886c7.65903,0.22977 19.65295,-3.18562 19.65295,-3.18562l2.371,0.78184c0,0 -14.21254,3.6992 -22.0877,3.33844c-7.87515,-0.36077 -11.10478,-2.47243 -11.10478,-2.47243l1.09162,-1.05316c0,0 3.88691,2.40523 10.07687,2.59093z" fill="#ffffff" stroke="#000000" stroke-width="0" stroke-linecap="round"/><path d="M318.68657,215.90184c-0.25637,-1.05991 -0.42696,-2.10322 -0.64426,-3.16012c-0.13489,0.01146 -0.26995,0.02131 -0.40512,0.02956c0.03906,0.36121 0.01441,0.73702 0.05055,1.09889l0.0147,0.18665c0,0 0.09811,1.24615 -1.14802,1.34427l-0.00001,0.00001c-1.24615,0.09811 -1.34427,-1.14802 -1.34427,-1.14802l-0.0147,-0.18665c-0.03072,-0.66879 -0.16717,-1.10513 -0.36079,-1.34788c-0.28725,-0.02793 -0.57441,-0.06266 -0.86122,-0.10412c-0.24928,0.15885 -0.49749,0.45177 -0.70231,0.84485c0.23926,1.46706 0.00874,3.46289 -0.11415,4.98075c0.03861,0.48569 0.03435,0.95915 -0.06386,1.4091c0.00179,0.06245 0.00474,0.12189 0.00891,0.17808l0.10489,1.33206c0.05419,0.68823 -0.45979,1.29007 -1.14802,1.34427c-0.68823,0.05419 -1.29007,-0.45979 -1.34427,-1.14802l-0.11757,-1.49312l0.00123,-0.0001c-0.01008,-0.14582 -0.01902,-0.29022 -0.02702,-0.43331c-0.33705,-0.50765 -0.17608,-1.32117 -0.19817,-2.43525c-0.01428,-0.72065 -0.01009,-1.56053 0.0782,-2.41249c-0.03739,-0.83386 -0.10823,-1.67122 -0.25247,-2.54345l-0.47796,-0.73176c-0.11845,-0.17388 -0.19456,-0.38005 -0.21226,-0.60482c-0.01691,-0.2147 0.02148,-0.42099 0.10322,-0.60487l-0.31941,-0.08138c-1.02008,-0.26186 -1.57143,-0.46183 -2.10131,-0.87905l-0.08284,0.12044l-0.82625,-0.56827c-0.18415,-0.12435 -0.31145,-0.32891 -0.32874,-0.56773c-0.0299,-0.41312 0.28076,-0.77229 0.69389,-0.8022l0.78641,-0.05693l0.00195,0.02702l0.07202,-0.02872c4.04171,0.49132 8.0318,1.01477 12.04077,1.51086c0,0 0.09177,0.01154 0.2068,0.05875c2.35648,-0.1631 4.68515,-0.60563 7.04888,-0.87799c0.28936,-0.12326 0.57742,-0.25424 0.86404,-0.39307c2.30714,-0.43746 4.46173,-0.74609 6.71607,-0.96116c0.46387,-0.12128 0.92474,-0.19384 1.33209,-0.11541c0.18702,-0.01462 0.37504,-0.02866 0.56416,-0.04214l0.0486,0.02044l0.00116,-0.01908l1.17865,0.07139c0.37452,0.01697 0.68542,0.31198 0.71316,0.69511c0.0299,0.41312 -0.28076,0.77229 -0.69389,0.8022l-1.10097,0.07971l-0.01016,-0.1404l-0.14004,-0.00848c-0.74645,0.05502 -1.47321,0.1189 -2.19034,0.19244c-2.75047,0.67875 -5.23936,1.6671 -7.92649,2.42429l-0.77478,0.07069c0,0 -0.48506,0.03511 -0.70226,-0.34181c-0.06382,0.01749 -0.12771,0.03463 -0.19163,0.05146c-0.02764,0.02732 -0.05658,0.05337 -0.08671,0.07804l-1.11792,0.93937c-1.07893,1.66594 -2.08324,3.81038 -2.57008,5.73723c0,0 -0.06133,0.24073 -0.25195,0.40979c0.1767,4.29915 1.66614,8.96372 1.87401,13.00494c-0.13962,0.35008 -0.27925,0.70016 -0.41887,1.05024l-0.08134,0.69986c0,0 -0.09361,0.74414 -0.83774,0.65054c-0.74414,-0.09361 -0.65054,-0.83774 -0.65054,-0.83774l0.11935,-0.89575c0.12939,-0.30182 0.25879,-0.60364 0.38818,-0.90548c-0.4571,-4.34483 -1.98447,-9.49083 -1.87228,-14.11107c-0.22993,-0.17048 -0.2989,-0.4555 -0.2989,-0.4555zM320.94165,212.23639c0.0002,0.0003 0.0004,0.00061 0.0006,0.00092c0.00016,-0.00041 0.00032,-0.00081 0.0005,-0.00121c-0.00037,0.0001 -0.00072,0.00019 -0.00108,0.00029z" fill-opacity="0.41176" fill="#6ee8ff" stroke="none" stroke-width="0.5" stroke-linecap="butt"/></g></g></g></svg>