<svg version="1.1" xmlns="http://www.w3.org/2000/svg" xmlns:xlink="http://www.w3.org/1999/xlink" width="218.59691" height="281.18476" viewBox="0,0,218.59691,281.18476"><defs><linearGradient x1="320.08742" y1="187.07227" x2="320.08742" y2="244.23177" gradientUnits="userSpaceOnUse" id="color-1"><stop offset="0" stop-color="#ff9600"/><stop offset="1" stop-color="#ff9600" stop-opacity="0"/></linearGradient></defs><g transform="translate(-210.5984,-38.88751)"><g stroke-miterlimit="10"><path d="M214.52362,306.61252v-267.72501h213.18203v267.72501z" fill="none" stroke="none" stroke-width="0" stroke-linecap="butt"/><g stroke-linecap="butt"><g><path d="M374.0126,250.32492c-0.06778,1.44597 -4.09981,2.43174 -9.00579,2.20177c-4.90598,-0.22997 -8.82812,-1.58859 -8.76034,-3.03456c0.06778,-1.44597 4.09981,-2.43174 9.00579,-2.20177c4.90598,0.22997 8.82812,1.58859 8.76034,3.03456z" fill="#f29d0f" stroke="#000000" stroke-width="2"/><path d="M367.65696,245.22809c0,8.78876 -7.92099,15.91346 -17.69203,15.91346c-9.77104,0 -17.69203,-7.1247 -17.69203,-15.91346c0,-8.78876 7.92099,-15.91346 17.69203,-15.91346c9.77104,0 17.69203,7.1247 17.69203,15.91346z" fill="#f2d40e" stroke="#000000" stroke-width="2"/><path d="M358.91828,236.99054c0,-0.69036 0.55964,-1.25 1.25,-1.25c0.69036,0 1.25,0.55964 1.25,1.25c0,0.69036 -0.55964,1.25 -1.25,1.25c-0.69036,0 -1.25,-0.55964 -1.25,-1.25z" fill="#000000" stroke="none" stroke-width="0.5"/></g><g stroke="#000000"><path d="M286.35186,319.07226l15.14285,-131.8421l37.78325,-0.15789l13.57389,132z" fill="#f3ca58" stroke-width="0"/><path d="M295.01902,243.61117l6.47569,-56.38101l37.78325,-0.15789l5.87786,57.15951z" fill="url(#color-1)" stroke-width="0"/><path d="M286.35186,319.07226l15.14285,-131.8421l37.78325,-0.15789l13.57389,132z" fill="none" stroke-width="2"/></g><path d="M360.30987,264.43396c-0.16935,10.05097 -17.7355,9.46691 -39.43629,9.46691c-21.70078,0 -39.70423,-0.06869 -39.29275,-9.46691c0.52608,-12.01574 17.59197,-9.46691 39.29275,-9.46691c21.70078,0 39.57982,0.94812 39.43629,9.46691z" fill="#f2d40e" stroke="#000000" stroke-width="2"/></g><path d="" fill="none" stroke="#000000" stroke-width="2" stroke-linecap="round"/><g><path d="M290.02488,71.51196c0,0 10.36905,-39.42847 28.33195,-23.95547c17.9629,15.473 3.22477,38.69729 3.22477,38.69729" fill="none" stroke="#000000" stroke-width="9" stroke-linecap="round"/><g stroke="#000000"><path d="M371.2693,110.59996l56.86258,-22.74503c0,0 -1.4642,35.16443 -5.72233,52.81892c-4.59478,19.05024 -20.9133,57.6142 -20.9133,57.6142l-29.02984,-24.24141z" fill="#f3ca58" stroke-width="2" stroke-linecap="round"/><path d="M376.31906,165.13157c8.99996,5.39997 17.082,10.46247 17.082,10.46247c0,0 -8.90398,-3.39332 -17.90393,-8.79328c-8.99995,-5.39997 -16.30844,-9.8563 -15.58561,-11.06102c0.72283,-1.20472 7.40759,3.99187 16.40755,9.39184z" fill="#ff9600" stroke-width="0" stroke-linecap="butt"/><path d="M390.22425,146.45283c10.44267,1.05331 19.9111,2.19217 19.9111,2.19217c0,0 -9.50132,0.72143 -19.94398,-0.33188c-10.44267,-1.05331 -18.95306,-1.97313 -18.81207,-3.37097c0.14099,-1.39784 8.40228,0.45737 18.84495,1.51069z" fill="#ff9600" stroke-width="0" stroke-linecap="butt"/><path d="M378.48048,121.60908c9.38529,-4.69843 17.99335,-8.80324 17.99335,-8.80324c0,0 -7.64033,5.69392 -17.02562,10.39234c-9.38529,4.69843 -17.06681,8.47559 -17.69574,7.21929c-0.62892,-1.2563 7.34272,-4.10997 16.72801,-8.8084z" fill="#ff9600" stroke-width="0" stroke-linecap="butt"/></g><g stroke="#000000"><path d="M267.32729,174.04664l-29.02984,24.24141c0,0 -16.31853,-38.56396 -20.9133,-57.6142c-4.25813,-17.65449 -5.72233,-52.81892 -5.72233,-52.81892l56.86258,22.74503z" fill="#f3ca58" stroke-width="2" stroke-linecap="round"/><path d="M279.88219,155.73973c0.72283,1.20472 -6.58565,5.66106 -15.58561,11.06103c-8.99995,5.39997 -17.90394,8.79328 -17.90394,8.79328c0,0 8.08204,-5.0625 17.082,-10.46247c8.99996,-5.39997 15.68472,-10.59656 16.40755,-9.39184z" fill="#ff9600" stroke-width="0" stroke-linecap="butt"/><path d="M268.4144,144.94214c0.14099,1.39784 -8.3694,2.31766 -18.81207,3.37097c-10.44267,1.05331 -19.94398,0.33188 -19.94398,0.33188c0,0 9.46844,-1.13885 19.9111,-2.19217c10.44267,-1.05331 18.70396,-2.90853 18.84495,-1.51069z" fill="#ff9600" stroke-width="0" stroke-linecap="butt"/><path d="M278.04124,130.41748c-0.62892,1.2563 -8.31045,-2.52087 -17.69574,-7.21929c-9.38529,-4.69842 -17.02562,-10.39234 -17.02562,-10.39234c0,0 8.60806,4.10481 17.99335,8.80324c9.38529,4.69842 17.35694,7.5521 16.72802,8.8084z" fill="#ff9600" stroke-width="0" stroke-linecap="butt"/></g><path d="M255.66416,142.1658c0,-33.30185 28.7599,-60.29833 64.23702,-60.29833c35.47713,0 64.23702,26.99648 64.23702,60.29833c0,33.30185 -28.75989,60.29834 -64.23702,60.29834c-35.47712,0 -64.23702,-26.99649 -64.23702,-60.29834z" fill="#f3ca58" stroke="#000000" stroke-width="2" stroke-linecap="butt"/><path d="M268.99199,142.44142c0,-12.96801 10.51265,-23.48065 23.48066,-23.48065c12.96801,0 23.48065,10.51264 23.48065,23.48065c0,12.96801 -10.51264,23.48066 -23.48065,23.48066c-12.96801,0 -23.48066,-10.51265 -23.48066,-23.48066z" fill="#ffffff" stroke="#000000" stroke-width="2" stroke-linecap="butt"/><path d="M276.90144,143.23186c0,-8.29964 6.72818,-15.02784 15.02783,-15.02784c8.29964,0 15.02784,6.72819 15.02784,15.02785c0,8.29964 -6.72819,15.02785 -15.02784,15.02785c-8.29964,0 -15.02783,-6.72819 -15.02783,-15.02785z" fill="#000000" stroke="#000000" stroke-width="5" stroke-linecap="butt"/><path d="M346.73111,165.9221c-12.96801,0 -23.48065,-10.51265 -23.48065,-23.48066c0,-12.96801 10.51264,-23.48065 23.48065,-23.48065c12.96801,0 23.48066,10.51264 23.48066,23.48065c0,12.96801 -10.51265,23.48066 -23.48066,23.48066z" fill="#ffffff" stroke="#000000" stroke-width="2" stroke-linecap="butt"/><path d="M362.05645,143.01865c0,8.29966 -6.72818,15.02785 -15.02783,15.02785c-8.29964,0 -15.02784,-6.72821 -15.02784,-15.02785c0,-8.29966 6.7282,-15.02785 15.02784,-15.02785c8.29964,0 15.02783,6.7282 15.02783,15.02784z" fill="#000000" stroke="#000000" stroke-width="5" stroke-linecap="butt"/><path d="M281.12345,103.90393c0,0 7.606,-3.72554 12.83027,-3.87984c5.22428,-0.1543 11.94612,3.14806 11.94612,3.14806c0,0 -7.86422,-1.66405 -11.89876,-1.54488c-4.21625,0.12453 -12.87763,2.27665 -12.87763,2.27665z" fill="#000000" stroke="none" stroke-width="0" stroke-linecap="butt"/><path d="M345.37101,101.61953c-4.01989,-0.36355 -11.97053,0.82065 -11.97053,0.82065c0,0 6.90968,-2.88876 12.11499,-2.418c5.20531,0.47074 12.57143,4.65057 12.57143,4.65057c0,0 -8.51497,-2.67328 -12.7159,-3.05321z" fill="#000000" stroke="none" stroke-width="0" stroke-linecap="butt"/><g stroke-linecap="round"><path d="M380.5797,115.3458v41.23104l-24.87684,14.74183l-36.16354,-4.37647l-34.78149,5.0675l-25.56786,-14.97216v-41.69173z" fill="none" stroke="#000000" stroke-width="11.5"/><path d="M380.5797,115.3458v41.23104l-24.87684,14.74183l-36.16354,-4.37647l-34.78149,5.0675l-25.56786,-14.97216v-41.69173z" fill-opacity="0.08235" fill="#00ffff" stroke="#f1da3e" stroke-width="7.5"/></g><path d="M290.02488,71.51196c0,0 10.36904,-39.42847 28.33195,-23.95547c17.9629,15.473 3.22477,38.69729 3.22477,38.69729" fill="none" stroke="#f3ca58" stroke-width="6" stroke-linecap="round"/><path d="M302.95771,84.42137c0.70326,6.06563 -3.95112,11.58854 -10.39585,12.33575c-6.44473,0.74722 -12.23933,-3.56421 -12.94259,-9.62984c-0.70326,-6.06563 3.40959,-15.41961 9.85433,-16.16683c6.44473,-0.74722 12.78086,7.39529 13.48412,13.46092z" fill="#ffffff" stroke="#000000" stroke-width="2" stroke-linecap="butt"/></g><path d="M298.77262,185.76765c0,0 17.9396,-0.04309 26.78655,-0.9876c8.68612,-0.92734 25.82149,-4.62891 25.82149,-4.62891c0,0 -9.83359,19.36516 -21.34276,20.59389c-11.50918,1.22874 -31.26528,-14.97738 -31.26528,-14.97738z" fill="#000000" stroke="#000000" stroke-width="2" stroke-linecap="round"/></g></g></svg>