<svg version="1.1" xmlns="http://www.w3.org/2000/svg" xmlns:xlink="http://www.w3.org/1999/xlink" width="213.18203" height="287.30678" viewBox="0,0,213.18203,287.30678"><g transform="translate(-214.52362,-36.89066)"><g stroke-miterlimit="10"><path d="M411.37141,162.408c-12.06999,26.22896 -57.14505,161.78943 -57.14505,161.78943l-74.94068,-0.58499c0,0 -35.11707,-131.64764 -47.60694,-159.30663c-4.58085,-10.14435 -1.46112,-20.74589 11.16931,-20.66383c38.34286,0.24914 120.00125,0.77973 154.60534,1.00457c3.25269,0.02113 10.06968,0.70083 13.28166,4.2164c3.01065,3.29522 2.59473,9.28939 0.63637,13.54504z" fill="#000000" stroke="#000000" stroke-width="0" stroke-linecap="butt"/><g fill="#ffffff" stroke="#000000" stroke-width="0"><path d="M323.74576,183.64631c0,0 0.81519,48.19305 0.52027,57.26396c-0.10544,3.24304 -2.41471,1.00374 -2.41471,1.00374l-2.91308,7.22825l-6.81618,-22.49782l4.93965,-42.78666z" stroke-linecap="round"/><path d="M329.34489,177.96341c0,2.40542 0.42119,4.941 -1.18152,6.55086c-1.69544,1.70301 -5.48837,2.41192 -8.13275,2.41192c-2.25931,0 -5.03371,-0.24684 -6.64647,-1.53439c-2.05927,-1.64402 -2.66779,-4.65244 -2.66779,-7.4284c0,-2.53955 0.5704,-5.88686 2.33405,-7.51773c1.67399,-1.54796 4.47523,-1.44506 6.98022,-1.44506c2.95234,0 6.11108,0.09158 7.81757,2.1537c1.26687,1.53089 1.4967,4.70001 1.4967,6.80909z" stroke-linecap="butt"/></g><path d="M214.52362,306.61252v-267.72501h213.18203v267.72501z" fill="none" stroke="none" stroke-width="0" stroke-linecap="butt"/><path d="" fill="none" stroke="#000000" stroke-width="2" stroke-linecap="round"/><g stroke-linecap="butt"><path d="M257.50036,117.82127c0,-33.30185 28.7599,-60.29833 64.23702,-60.29833c35.47713,0 64.23702,26.99648 64.23702,60.29833c0,33.30185 -28.75989,60.29834 -64.23702,60.29834c-35.47712,0 -64.23702,-26.99649 -64.23702,-60.29834z" fill="#000000" stroke="#000000" stroke-width="2"/><g stroke="#000000" stroke-width="0"><path d="M256.86411,105.18418l-14.10815,-62.69671c0,0 50.90643,-4.01247 75.75957,-4.94998c24.11271,-0.90958 71.20519,-0.59381 71.20519,-0.59381l-3.94689,63.89589z" fill="#000000"/><path d="M257.77605,104.30026l-2.66083,-10.17038l130.53369,-1.0678l-0.70559,10.08137z" fill="#ffffff"/><path d="M238.19338,112.0983c0,0 -3.21557,-3.65822 -4.01856,-5.776c-0.85774,-2.2622 -0.97447,-7.39253 -0.97447,-7.39253l176.07577,-0.75584c0,0 -0.55547,4.01527 -1.29616,6.13824c-0.80458,2.30607 -3.35553,7.1944 -3.35553,7.1944c0,0 -1.74515,0.0062 -4.87316,0.01733c-1.4807,0.00526 -2.1046,28.34496 -4.1666,28.3523c-0.53694,0.00191 -0.25896,-8.1529 -0.83204,-15.42891c-0.54152,-6.87534 -3.09887,-12.8946 -3.67147,-12.89256c-31.12636,0.11067 -107.33347,0.38161 -136.66399,0.4859c-2.5851,0.00919 -1.63874,11.40654 -3.39992,10.82347c-4.51993,-1.49642 -5.75036,-10.79093 -6.60138,-10.78791c-3.46538,0.01232 -6.22249,0.02212 -6.22249,0.02212z" fill="#000000"/></g><path d="M291.97781,148.84295c0.09747,-0.05067 0.22028,-0.08259 0.375,-0.08259c0.75,0 0.75,0.75 0.75,0.75l-0.03849,0.26283c0.25978,0.77935 1.6644,3.25595 1.14692,3.9257c-0.63453,0.82124 -3.40203,-0.1357 -3.77925,-0.85312c-0.33542,-0.63793 0.43253,-2.57397 0.42082,-3.33541c0,0 0,-0.75 0.75,-0.75c0.15472,0 0.27753,0.03192 0.375,0.08259z" fill="#ffffff" stroke="none" stroke-width="0.5"/><path d="M305.7408,149.60104c0.55547,-0.33272 0.96201,0.20933 0.96201,0.20933l0.8272,1.12767c0.1918,0.74419 0.78356,2.4327 0.10313,3.10266c-0.50264,0.4949 -2.62785,0.30257 -3.13876,-0.3418c-0.50777,-0.64041 -0.14157,-2.85173 -0.14157,-3.68853c0,0 0,-0.75 0.75,-0.75c0.35209,0 0.53889,0.16529 0.63799,0.34067z" fill="#ffffff" stroke="none" stroke-width="0.5"/><path d="M320.60281,148.51036c0.75,0 0.75,0.75 0.75,0.75l-0.00562,0.90836c0.12259,0.47819 1.30717,3.66768 1.16688,3.94553c-0.44372,0.87881 -3.33609,0.29558 -3.75241,-0.14233c-0.52257,-0.54968 -0.15885,-2.93107 -0.15885,-3.71156c0,0 0,-0.75 0.75,-0.75c0.23148,0 0.39152,0.07145 0.50216,0.17024l-0.00216,-0.42024c0,0 0,-0.75 0.75,-0.75z" fill="#ffffff" stroke="none" stroke-width="0.5"/><path d="M332.47138,150.08966c0.10071,-0.17109 0.28697,-0.32929 0.63143,-0.32929c0.75,0 0.75,0.75 0.75,0.75l-0.03849,0.01283c0.26934,0.80802 1.97217,3.23029 1.69974,3.84106c-0.52395,1.1747 -3.89688,0.05094 -4.28231,-0.43342c-0.57523,-0.72289 0.1282,-2.33278 0.12105,-3.17047c0,0 0,-0.75 0.75,-0.75c0.15134,0 0.27214,0.03054 0.36857,0.07929z" fill="#ffffff" stroke="none" stroke-width="0.5"/><path d="M343.3357,150.29847c0.07633,-0.02413 0.16473,-0.03811 0.26711,-0.03811c0.52592,0 0.68305,0.36879 0.73,0.58916c1.05296,0.79842 2.59378,2.70004 1.5872,3.89395c-0.16625,0.19719 -3.86971,0.49943 -4.06645,0.31835c-0.7165,-0.65949 -0.06502,-4.17852 0.00115,-5.1049c0,0 0.05344,-0.74809 0.80153,-0.69466c0.74809,0.05344 0.69466,0.80153 0.69466,0.80153c-0.00558,0.07816 -0.01061,0.15639 -0.0152,0.23467z" fill="#ffffff" stroke="none" stroke-width="0.5"/><path d="M349.72936,148.84295c0.00682,-0.00986 0.01392,-0.01976 0.02131,-0.02971c0.44712,-0.60215 1.04927,-0.15503 1.04927,-0.15503l0.74226,0.56828c0.48404,0.77731 2.53166,3.03835 1.98143,4.11927c-0.38787,0.76198 -4.2262,1.2735 -4.77925,0.60312c-0.28152,-0.34125 0.06006,-3.55749 -0.11918,-4.25663c0,0 -0.1819,-0.72761 0.54571,-0.90951c0.2421,-0.06052 0.42378,-0.02036 0.55845,0.0602z" fill="#ffffff" stroke="none" stroke-width="0.5"/><path d="M356.4768,148.34427c0.34677,-0.56205 0.96142,-0.25473 0.96142,-0.25473l0.16459,0.17082c0.86625,0.00964 3.07695,0.26961 3.24855,1.4534c0.12274,0.84674 -2.65658,2.17141 -3.3481,2.03997c-1.33338,-0.25345 -1.63827,-1.62651 -2.27449,-2.57734c0,0 -0.41603,-0.62404 0.20801,-1.04006c0.62032,-0.41355 1.0351,0.20062 1.04002,0.20795z" fill="#ffffff" stroke="none" stroke-width="0.5"/><path d="M282.60281,144.76036c0.36353,0 0.55085,0.1762 0.64738,0.3578c0.04411,0.03047 0.08853,0.06745 0.13295,0.11187c0.44565,0.44565 0.14231,0.89131 0.03408,1.02226c0.57853,1.13749 1.43008,3.1198 -0.34634,3.92194c-0.54673,0.24688 -4.21722,-1.06115 -4.21443,-2.08996c0.00298,-1.09695 1.92123,-1.79345 2.99815,-2.49117l-0.0018,-0.08273c0,0 0,-0.75 0.75,-0.75z" fill="#ffffff" stroke="none" stroke-width="0.5"/><path d="M286.74027,148.51036c0.36778,-0.08541 0.75753,-0.08824 1.16181,0h0.3674l0.0705,-0.21151l0.73359,0.24453c0.30647,0.09425 0.52924,0.3796 0.52924,0.71698c0,0.41421 -0.33579,0.75 -0.75,0.75h-0.48551c0.20026,0.95927 -0.01076,2.18997 -0.40606,2.68853c-0.51802,0.65334 -1.41884,0.55735 -2.10843,0.56147c-0.51486,0.00308 -1.92376,0.06154 -2.16126,-0.39611c-0.22807,-0.43949 0.33018,-0.93393 0.47537,-1.40731c0.32054,-1.04513 0.82513,-1.86145 1.45255,-2.379c0.11051,-0.56758 0.73334,-0.56758 0.73334,-0.56758c0.12915,0 0.25831,0 0.38746,0z" fill="#ffffff" stroke="none" stroke-width="0.5"/><path d="M298.78405,149.52679c0.09966,-0.12429 0.22977,-0.2118 0.39645,-0.24637c1.48536,-0.30804 2.71107,3.58179 2.01347,4.4415c-0.71249,0.87805 -3.68852,0.17366 -4.05267,-0.72439c-0.03731,-0.09201 0.71966,-2.2073 0.71151,-2.73717c0,0 0,-0.75 0.75,-0.75c0.06606,0 0.1263,0.00582 0.18123,0.01643z" fill="#ffffff" stroke="none" stroke-width="0.5"/><path d="M312.72054,150.55535l0.75631,0.28899c0.35979,0.53969 1.80288,2.28729 1.58537,2.90943c-0.34568,0.98872 -4.13468,1.09954 -4.62066,0.36049c-0.04953,-0.07532 0.84753,-2.94132 0.93365,-3.2858c0,0 0.1819,-0.72761 0.90951,-0.54571c0.21577,0.05394 0.35156,0.15588 0.43583,0.27259z" fill="#ffffff" stroke="none" stroke-width="0.5"/><path d="M325.58468,151.20043c0.0712,-0.05996 0.16305,-0.11228 0.28096,-0.15158c0.71151,-0.23717 0.94868,0.47434 0.94868,0.47434l0.13452,0.53193c2.94835,2.17485 -1.70992,3.45749 -2.62636,2.23558c-0.46813,-0.62417 -0.21967,-2.67749 -0.21967,-3.53033c0,0 0,-0.75 0.75,-0.75c0.75,0 0.75,0.75 0.75,0.75c0,0.14536 -0.00685,0.29233 -0.01813,0.44007z" fill="#ffffff" stroke="none" stroke-width="0.5"/><path d="M300.47217,162.16383c-0.59803,0.35561 -0.9934,-0.23744 -0.9934,-0.23744c-0.42339,-0.6372 -2.3226,-3.33643 -2.1114,-4.06311c0.32072,-1.10347 3.78709,-1.78714 4.67397,-1.21134c1.1842,0.76883 0.55212,3.47759 0.19946,4.50273l-0.85766,0.88603c0,0 -0.43496,0.43496 -0.91097,0.12314z" fill="#ffffff" stroke="none" stroke-width="0.5"/><path d="M305.93679,162.6344c-0.62404,-0.41603 -0.20801,-1.04006 -0.20801,-1.04006l0.05754,-0.0863c-0.12029,-0.15252 -0.16111,-0.31577 -0.16111,-0.31577c-0.20431,-0.86176 -1.72397,-3.11068 -1.2153,-3.96891c0.60236,-1.01632 4.27309,-1.67639 5.05134,-0.40152c0.95822,1.56967 -1.21838,3.70554 -1.98439,4.85456l-0.5,0.75c0,0 -0.41603,0.62404 -1.04006,0.20801z" fill="#ffffff" stroke="none" stroke-width="0.5"/><path d="M313.80582,162.27131c-0.07132,0.2165 -0.25089,0.48905 -0.70301,0.48905c-0.75,0 -0.75,-0.75 -0.75,-0.75l0.49112,-0.92081c-0.08379,-0.9124 -0.72501,-3.19155 -0.40862,-3.67115c0.49012,-0.74298 3.66286,-1.54172 4.44783,-0.68837c1.75861,1.9118 -1.33315,4.66399 -3.07732,5.54128z" fill="#ffffff" stroke="none" stroke-width="0.5"/><path d="M322.78165,160.9329c0.01219,0.03173 0.02313,0.06188 0.03267,0.09029c0,0 0.19893,0.5968 -0.31417,0.87944c-0.09654,0.18157 -0.28386,0.35773 -0.64734,0.35773c-0.75,0 -0.75,-0.75 -0.75,-0.75l0.03849,-0.48717c0.00892,-0.0267 0.01807,-0.05583 0.02746,-0.0872c-0.40976,-0.94804 -1.07294,-2.30093 -0.79588,-3.09795c0.19356,-0.55679 2.63038,-2.90556 3.47629,-1.88994c0.74071,0.88932 -0.48606,3.57032 -1.06751,4.9848z" fill="#ffffff" stroke="none" stroke-width="0.5"/><path d="M326.72877,161.67639c-0.18235,-0.27352 -0.16488,-0.50708 -0.08773,-0.68317c-0.03823,-0.12975 -0.03823,-0.23286 -0.03823,-0.23286c0.0047,-0.91368 0.02992,-3.59058 0.71967,-4.28033c0.70596,-0.70596 4.41617,-0.73912 4.73973,0.53693c0.25696,1.01335 -2.8336,3.88344 -3.54338,4.36744l-0.75,0.5c0,0 -0.62404,0.41603 -1.04006,-0.20801z" fill="#ffffff" stroke="none" stroke-width="0.5"/><path d="M336.72357,162.05266c0,0 0.19734,0.72357 -0.52623,0.92091c-0.72357,0.19734 -0.92091,-0.52623 -0.92091,-0.52623c-0.25453,-0.93329 -1.67114,-4.03799 -0.80676,-4.97767c1.85733,-2.01913 3.64662,0.74279 3.23374,2.54054l-0.05257,0.06521l0.01998,0.00999l-0.66355,1.32711c-0.07456,0.15729 -0.20225,0.28451 -0.35988,0.35847c0.02522,0.09394 0.05059,0.18784 0.07619,0.28168z" fill="#ffffff" stroke="none" stroke-width="0.5"/><path d="M341.75,161.75c-0.75,0 -0.75,-0.75 -0.75,-0.75c0.00349,-0.94071 -0.88703,-3.12817 -0.67987,-3.81666c0.11047,-0.36716 2.28789,-1.1068 2.58409,-0.81509c0.38853,0.38265 0.51988,2.1731 0.59409,2.93208l-0.07283,0.11854l0.05213,0.01303l-0.24619,0.98478c-0.07579,0.33399 -0.37449,0.58332 -0.73141,0.58332c0,0 0,0.75 -0.75,0.75z" fill="#ffffff" stroke="none" stroke-width="0.5"/></g><path d="M383.68906,117.84857c-0.1819,-0.72761 0.54571,-0.90951 0.54571,-0.90951l0.43254,-0.0631c1.5672,-1.02641 2.58097,-2.51652 3.16973,-4.19236c-0.23377,-0.87255 -0.30263,-1.72314 -0.15581,-2.49735c0,0 0.13326,-0.66631 0.78032,-0.60364c0.02653,-0.36074 0.039,-0.72236 0.03845,-1.08261c0,0 0,-0.75 0.75,-0.75c0.75,0 0.75,0.75 0.75,0.75c-0.00198,1.42993 -0.1892,2.85095 -0.5975,4.18248c0.95547,2.81264 3.93331,6.22932 6.01417,6.56752l0.68625,-0.1521c0,0 0.73544,-0.14709 0.88252,0.58835c0.14709,0.73544 -0.58835,0.88252 -0.58835,0.88252l-0.98042,0.18123c-2.43972,-0.52486 -5.32365,-3.22189 -6.81201,-6.11865c-0.71862,1.3652 -1.73697,2.56708 -3.1053,3.49269l-0.90079,0.27024c0,0 -0.72761,0.1819 -0.90951,-0.54571z" fill="#000000" stroke="none" stroke-width="0.5" stroke-linecap="butt"/></g></g></svg>