<svg version="1.1" xmlns="http://www.w3.org/2000/svg" xmlns:xlink="http://www.w3.org/1999/xlink" width="214.62232" height="287.86249" viewBox="0,0,214.62232,287.86249"><g transform="translate(-213.08333,-38.88751)"><g stroke-miterlimit="10"><g><path d="M367.41667,326.08333l-92.33333,0.66667l17,-114l-30.41667,-14.58333l-13.91667,-29.33333l-29,-7.41667l-4.91667,-11.66667l3.91667,-5.33333l-4.66667,-1l2.25,-11.91667l29.83333,6.58333l8.25,-36l35.25,-21.08333l63,0.5l37.08333,55.16667l6.66667,-8.16667l26.58333,18.33333l-18.16667,25.5l-9.08333,-3.25l-12.33333,26.33333l-29.66667,12.66667z" fill="#ffffff" stroke="#000000" stroke-width="0" stroke-linecap="round"/><path d="M260.08333,144.83333h158.16667" fill="none" stroke="#99d9ea" stroke-width="1" stroke-linecap="round"/><path d="M412.66667,158.5h-155.16667" fill="none" stroke="#99d9ea" stroke-width="1" stroke-linecap="round"/><path d="M255.75,101.75v69.5" fill="none" stroke="#fd0006" stroke-width="1.5" stroke-linecap="round"/><path d="M343.57334,211.89322c0.68046,3.18462 1.60158,6.40122 1.89366,9.5575c0.38934,4.20723 0.31212,8.41505 0.83859,12.6286c1.11937,8.95876 0.85126,18.15186 1.95262,27.09062c-0.19058,-0.86255 -0.40378,-1.82323 -0.62452,-2.68262c-0.32776,-8.74565 -0.6937,-17.20254 -2.06052,-25.94532c-0.62867,-5.30063 -0.94403,-10.63838 -1.57786,-15.93098c-0.01171,-0.09778 -0.03318,-0.29499 -0.04517,-0.39257c-0.05561,-1.20303 -0.13603,-2.30259 -0.2767,-3.49473c-0.02879,-0.24393 -0.06848,-0.58712 -0.10008,-0.83051z" fill="#ffffff" stroke="none" stroke-width="0.5" stroke-linecap="butt"/><path d="M343.90265,231.09572c0.05599,0.51727 0.11459,1.03423 0.17595,1.55087c0.98915,6.33408 1.46447,12.6677 1.77062,18.94815c-0.74622,-3.08372 -1.43436,-6.21179 -1.79938,-9.28991c-0.42915,-3.61889 -0.25136,-7.49333 -0.14719,-11.2091z" fill="#ffffff" stroke="none" stroke-width="0.5" stroke-linecap="butt"/><path d="M352.13355,288.41331c-0.68547,-4.39457 -1.16158,-8.89747 -1.68076,-13.28772c0.6125,4.0498 1.17782,8.2101 1.60593,12.26232c0.03614,0.34213 0.0594,0.68393 0.07483,1.0254z" fill="#ffffff" stroke="none" stroke-width="0.5" stroke-linecap="butt"/><path d="M288.69204,300.54537c0.18464,-3.67204 0.46663,-7.44026 1.07672,-11.09671c-0.22184,3.10014 -0.33277,6.29754 -0.80751,9.37383c-0.08864,0.57439 -0.17949,1.14857 -0.26921,1.72287z" fill="#ffffff" stroke="none" stroke-width="0.5" stroke-linecap="butt"/><path d="M286.35488,318.29884c-0.25513,0 -0.51144,-0.00013 -0.76657,-0.00013l-0.00055,-0.02116c-0.09442,-0.46584 -0.18956,-0.93178 -0.28397,-1.39762c0.03757,-10.25792 1.39354,-20.62329 2.93843,-30.75086c1.5475,-10.14472 3.47267,-20.27978 5.24723,-30.38709c0.07853,-0.44731 0.15568,-0.89492 0.23142,-1.34283c-0.08182,0.82663 -0.18793,1.74766 -0.29505,2.56377c-1.33877,10.19951 -2.74256,20.26227 -4.76029,30.3509c-1.34909,6.7543 -1.23526,13.42018 -1.85031,20.20998c-0.31784,3.50882 -0.71331,7.15043 -0.45947,10.67167c0.00299,0.00128 -0.00387,0.10208 -0.00088,0.10337z" fill="#ffffff" stroke="none" stroke-width="0.5" stroke-linecap="butt"/><path d="M295.69551,247.22337c0.16107,-3.35996 0.24441,-6.78645 0.53187,-10.12517c0.4774,-3.31432 1.03526,-6.68157 1.62135,-9.97057c0.03309,-0.1291 0.06706,-0.25796 0.10134,-0.38664c-0.49721,6.83234 -1.35842,13.71592 -2.25456,20.48238z" fill="#ffffff" stroke="none" stroke-width="0.5" stroke-linecap="butt"/><path d="M411.33211,142.95801c-0.45549,-0.09338 -0.84273,-0.1667 -1.10251,-0.24663c-0.72481,-0.22302 -1.53897,-0.48339 -2.26378,-0.7064c-0.02855,-0.18281 -0.15364,-0.47947 0.00198,-0.475c0.74705,0.02147 2.20483,0.76937 3.3643,1.42804z" fill="#ffffff" stroke="none" stroke-width="0.5" stroke-linecap="butt"/><path d="M260.41667,102.16667h103.33333" fill="none" stroke="#99d9ea" stroke-width="1" stroke-linecap="round"/><path d="M257.75,126.83333h123.83333" fill="none" stroke="#99d9ea" stroke-width="1" stroke-linecap="round"/><path d="M389.41667,174.16667h-129.66667" fill="none" stroke="#99d9ea" stroke-width="1" stroke-linecap="round"/><path d="M262.41667,189.16667h122" fill="none" stroke="#99d9ea" stroke-width="1" stroke-linecap="round"/><path d="M280.58333,205.5h76.16667" fill="none" stroke="#99d9ea" stroke-width="1" stroke-linecap="round"/><path d="M290.91667,224.16667h63.16667" fill="none" stroke="#99d9ea" stroke-width="1" stroke-linecap="round"/><path d="M288.08333,243.16667h68" fill="none" stroke="#99d9ea" stroke-width="1" stroke-linecap="round"/><path d="M285.41667,260.16667h74.33333" fill="none" stroke="#99d9ea" stroke-width="1" stroke-linecap="round"/><path d="M283.41667,274.83333h76.66667" fill="none" stroke="#99d9ea" stroke-width="1" stroke-linecap="round"/><path d="M280.41667,293.16667h82.33333" fill="none" stroke="#99d9ea" stroke-width="1" stroke-linecap="round"/></g><g stroke="none" stroke-width="0.5" stroke-linecap="butt"><path d="M338.97982,212.67395c0.19287,1.19214 0.33531,2.39125 0.4436,3.59428c0.01626,0.09759 0.03239,0.19526 0.04838,0.29304c0.86559,5.2926 1.4152,10.6303 2.27599,15.93093c1.74967,8.74278 2.49847,17.29933 3.20919,26.04498c0.25838,0.85939 0.50065,1.72045 0.729,2.583c-1.49278,-8.93876 -1.62601,-18.03271 -3.13768,-26.99147c-0.71098,-4.21355 -0.80866,-8.42076 -1.38222,-12.628c-0.43029,-3.15628 -1.48902,-6.37309 -2.30894,-9.55771c0.04227,0.24338 0.0832,0.48702 0.12267,0.73095zM340.68802,242.26581c0.49981,3.07811 1.28819,6.19546 2.16943,9.27917c-0.58117,-6.28045 -1.32022,-12.5145 -2.58674,-18.84858c-0.08399,-0.51664 -0.16501,-1.03363 -0.24365,-1.55089c0.05854,3.71578 0.07335,7.50141 0.66096,11.12029zM355.9829,314.32804c0,0 0.21376,0.72761 -0.50587,0.90951c-0.03471,0.00878 -0.06823,0.01543 -0.10062,0.02015c-0.07263,0.41858 -0.21316,0.77232 -0.44871,1.02161c-0.20469,0.21663 -0.51347,0.24124 -0.84241,0.22346c0.0062,0.42025 -0.01139,0.81413 -0.06228,1.15383c1.06415,-0.00452 2.12909,-0.00606 3.19516,-0.00606h0.27758c0,0 0.75,0 0.78284,0.75c0.03284,0.75 -0.71716,0.75 -0.71716,0.75h-0.27758c-4.89319,0 -9.76222,0.03247 -14.64238,0.23618c-10.24216,0.42737 -20.51098,0.36237 -30.77808,0.36237c-8.99926,0 -17.9985,0 -26.99776,0c-0.2599,0.00122 -0.43395,-0.0887 -0.55044,-0.20641c-0.12407,-0.11091 -0.22316,-0.28144 -0.23464,-0.54359c-0.00073,-0.01674 -0.00108,-0.0331 -0.00105,-0.0491l-0.01038,-0.42788c-0.12424,-0.51474 -0.24849,-1.02947 -0.37273,-1.54422c-0.47945,-10.37259 0.51693,-20.82819 1.63037,-31.06649c1.10447,-10.15582 2.53325,-20.26087 3.86667,-30.37922c0.83244,-6.31677 1.37038,-12.69593 2.01147,-19.05053c0.15039,-3.26194 0.45747,-6.4798 1.10046,-9.59048c0.09888,-0.73681 0.20189,-1.47268 0.3097,-2.20748c1.24795,-8.4963 1.74541,-16.93756 2.68278,-25.46755c0.00583,-0.24855 0.1045,-0.40595 0.22673,-0.50563c0.11316,-0.11157 0.28255,-0.19347 0.53511,-0.17186l0.48436,0.0025c4.51106,-0.60501 8.93606,-0.52803 13.49814,-0.64864c5.52859,-0.14125 11.304,-0.54383 16.78111,-1.2098c2.78131,-0.33819 5.69267,-1.37777 8.43292,-1.43451c0.2178,-0.04758 0.39412,0.01534 0.52615,0.10574c0.14232,0.07635 0.28216,0.20686 0.34432,0.42997l0.3431,0.68941c0.26353,1.09175 0.48025,2.22074 0.63376,3.35031c0.07402,0.04044 0.14274,0.08396 0.20554,0.13078c0.73644,0.54898 1.40272,4.16757 1.92214,5.1472c0.31347,5.35389 2.67427,10.8089 3.42235,16.26019c0.57516,4.19117 0.66678,8.38354 1.37503,12.58094c1.69559,10.04879 1.64994,20.2724 3.74965,30.24938c1.60127,7.60858 3.21622,15.33711 4.34359,23.02102c0.33536,2.28576 0.10951,4.55285 0.59368,6.83886c0.85364,5.14131 1.3245,10.13549 1.96968,15.29468c0.3854,1.66731 0.81209,3.32843 1.2977,4.98137zM343.44492,258.66056c-1.60422,-5.26841 -3.3593,-10.80212 -4.23872,-16.2181c-0.79706,-4.90884 -0.56189,-10.11244 -0.77814,-15.05098c-0.15924,-3.63647 -0.16562,-7.32637 -0.49177,-10.97853c-0.55869,-3.34757 -1.26568,-6.59116 -1.71115,-9.90163c-0.43111,-1.94115 -0.86776,-3.88084 -1.22376,-5.83513c-1.64378,-0.17318 -4.01864,0.12027 -5.10801,0.07588c-5.50379,-0.22424 -10.93007,-0.53448 -16.39882,-0.11568c-5.16537,0.00187 -10.29361,1.13816 -15.23946,1.19765l-0.06221,-0.02477c-0.26989,1.31561 -0.66132,2.59571 -1.03735,3.8809c-0.80408,6.93144 -1.57984,13.95467 -1.77155,20.8778c-0.25972,9.25234 -1.16198,18.41725 -1.96983,27.56766c-0.88509,10.0252 -2.12408,19.95728 -3.08619,29.96516c-0.65916,4.97107 -0.2492,9.95718 -0.78933,14.89967c-0.5684,5.20122 -1.19735,10.38798 -1.41776,15.64297c-0.10646,0.14195 -0.39038,0.30637 -0.48221,0.44646c-0.00289,0.0459 -0.00582,0.0918 -0.00879,0.1377c0.00782,0.01007 0.01803,0.01985 0.03088,0.02929c0.5802,0.42624 1.37549,-0.29985 2.08048,-0.29985c2.49397,0 4.98794,0 7.48192,0c5.99156,0 11.98313,0 17.97469,0c10.37252,0 20.74503,0 31.11755,0c1.79325,0 3.5865,0 5.37975,0c0.16931,0 0.35248,0.038 0.53999,0.08999c-0.09922,-1.41398 -0.20449,-2.72519 -0.56433,-4.24304c-1.37505,-5.80026 -1.3978,-11.87108 -2.49043,-17.72445c-1.83942,-9.85505 -4.53293,-20.08227 -5.35688,-30.01889c-0.11856,-1.44144 -0.23375,-2.876 -0.3498,-4.30536c-0.00957,-0.03158 -0.01917,-0.06317 -0.02878,-0.09474zM335.01178,196.7675l-0.00985,-0.0166c-0.90465,0.02939 -1.84359,0.17786 -2.79353,0.37108c0.97119,0.03711 1.94973,0.10575 2.93755,0.21233c-0.0432,-0.19032 -0.08798,-0.37936 -0.13418,-0.56682zM331.39034,199.3145c0.74403,0.03032 2.07617,-0.04763 3.32921,0.01916c-0.05491,-0.18612 -0.10981,-0.37224 -0.16472,-0.55836c-3.80746,-0.36301 -7.48029,-0.16458 -11.12943,0.21232c2.64903,0.08033 5.30241,0.2184 7.96494,0.32688zM286.28482,318.24523c-0.40803,-3.52125 -0.17342,-7.16301 -0.00923,-10.67183c0.31773,-6.7898 -0.11518,-13.4677 0.93813,-20.222c1.57595,-10.08862 2.57487,-20.23853 3.46701,-30.43804c0.07138,-0.8161 0.12836,-1.63801 0.174,-2.46464c-0.05613,0.44791 -0.11358,0.89554 -0.17253,1.34285c-1.33197,10.10731 -2.75942,20.2013 -3.86269,30.34602c-1.10141,10.12757 -2.04847,20.43489 -1.63685,30.69281c0.11482,0.46584 0.22963,0.93169 0.34445,1.39753l0.00147,0.02115c0.25513,0 0.51027,0 0.7654,0c-0.00305,-0.00128 -0.0061,-0.00257 -0.00915,-0.00385zM297.59613,200.03187c0.04085,0.00276 0.08393,0.00846 0.12937,0.01747c0.24147,0.04788 0.39217,0.15807 0.48562,0.28496c0.85435,0.00669 1.65829,-0.35469 2.47339,-0.57855c0.16675,-0.0458 0.33603,-0.08874 0.50763,-0.129c-1.22377,0.06805 -2.44847,0.16587 -3.67879,0.31203c0.03162,0.0294 0.05903,0.06071 0.08279,0.0931zM353.4813,311.99036c0.12777,0.54071 0.36628,1.74816 0.5026,3.00002c0.29664,-0.908 -0.65099,-4.43055 -0.74557,-5.18106c-0.01159,-0.09192 -0.02311,-0.18378 -0.03458,-0.27559c-0.32889,-1.43086 -0.62799,-2.86614 -0.90828,-4.30464c0.29769,2.26781 0.65771,4.52652 1.18581,6.76127zM350.63257,287.33838c-0.60555,-4.05222 -1.33568,-8.11338 -2.12552,-12.16317c0.71143,4.39025 1.36781,8.79393 2.24573,13.1885c-0.03038,-0.34147 -0.06908,-0.6832 -0.12021,-1.02533zM337.78643,205.44624c-0.06556,-0.11719 -0.15883,-0.36154 -0.26724,-0.67814c0.05108,0.49392 0.10955,0.98571 0.17407,1.47592c0.07838,0.35423 0.15657,0.70851 0.23405,1.06294c-0.07553,-0.62356 -0.12477,-1.24404 -0.14087,-1.86072zM287.46159,317.36596c9.86576,-0.12637 19.75015,-0.0147 29.62229,-0.0147c10.49277,0 20.98553,0 31.4783,0c0.37687,0 3.85794,0.34044 3.99091,0.2078c0.23171,-0.23113 -0.17906,-0.65594 -0.20649,-0.99021c-0.00201,-0.02447 -0.004,-0.0489 -0.00597,-0.07327c-1.97599,0.05678 -3.98863,-0.03853 -5.95956,-0.03853c-10.37252,0 -20.74503,0 -31.11755,0c-7.48554,0 -14.97107,0 -22.4566,0c-0.83398,0 -3.65861,0.32153 -5.27296,0.0831c-0.02252,0.27533 -0.04661,0.5506 -0.07237,0.82581zM288.04606,298.77262c0.34003,-3.0763 0.30697,-6.17405 0.39306,-9.2742c-0.44998,3.65645 -0.56166,7.32514 -0.5855,10.99718c0.06457,-0.5743 0.12895,-1.1486 0.19244,-1.72298zM293.87386,226.79069c-0.02866,0.12868 -0.05668,0.25758 -0.08412,0.38667c-0.44207,3.28901 -0.80081,6.59695 -1.13308,9.91127c-0.14126,3.33872 -0.11991,6.72508 -0.13385,10.08504c0.59984,-6.76646 1.15303,-13.55064 1.35106,-20.38298z" fill="#000000"/><path d="M343.52374,258.75692c0.11605,1.42936 0.23067,2.87195 0.34923,4.31339c0.82395,9.93662 3.50223,20.19211 5.34164,30.04715c1.09262,5.85336 1.10885,11.92907 2.4839,17.72933c0.35984,1.51786 0.46391,2.82979 0.56313,4.24376c-0.18751,-0.05198 -0.37095,-0.08983 -0.54026,-0.08983c-1.79325,0 -3.58976,0.00169 -5.38301,0.00169c-10.37252,0 -20.76996,0.00445 -31.14248,0.00445c-5.99156,0 -11.99763,-0.00338 -17.98919,-0.00338c-2.49397,0 -4.99294,-0.00226 -7.48692,-0.00226c-0.70499,0 -1.50144,0.72546 -2.08164,0.29922c-0.01284,-0.00944 -0.02309,-0.01923 -0.03091,-0.0293c0.00297,-0.04589 0.05123,-0.17888 0.05412,-0.22478c0.09183,-0.14009 0.33052,-0.21736 0.437,-0.35931c0.22042,-5.25499 0.84438,-10.44485 1.41279,-15.64607c0.54013,-4.94249 0.1225,-9.93514 0.78166,-14.9062c0.96211,-10.00789 2.18656,-19.98178 3.07165,-30.00697c0.80786,-9.15041 1.73048,-18.34924 1.9902,-27.60158c0.19171,-6.92314 0.97849,-13.9519 1.78255,-20.88334c0.37603,-1.28519 0.76938,-2.56592 1.03927,-3.88153l0.06225,0.02476c4.94584,-0.05949 10.08704,-1.19786 15.2524,-1.19973c5.46874,-0.4188 10.909,-0.10695 16.4128,0.11729c1.08936,0.04439 3.46817,-0.24787 5.11195,-0.07469c0.356,1.95429 0.79507,3.89488 1.2262,5.83603c0.44546,3.31046 1.1573,6.5563 1.71598,9.90387c0.32616,3.65216 0.33854,7.34574 0.49777,10.98221c0.21626,4.93854 -0.00676,10.15412 0.79032,15.06296c0.87941,5.41599 2.64461,10.9795 4.24883,16.24791c0.00961,0.03157 0.01921,0.06334 0.02879,0.09492z" fill="#ffffff"/></g><path d="M214.52362,306.61252c0,0 0,-60.9476 0,-98.09533c0,-48.84938 0,-169.62968 0,-169.62968h213.18203c0,0 0,66.47278 0,105.37968c0,48.29121 0,162.34533 0,162.34533z" fill="none" stroke="none" stroke-width="0" stroke-linecap="butt"/><path d="M352.92464,305.17956c0.2173,1.4385 0.46452,2.87349 0.73075,4.30435c0.00745,0.09181 0.02221,0.18481 0.02977,0.27673c0.06171,0.75051 0.84967,4.37139 0.51326,5.27939c-0.0815,-1.25186 -0.26737,-2.45929 -0.37147,-2.99999c-0.43023,-2.23476 -0.70393,-4.59267 -0.90231,-6.86048z" fill="#ffffff" stroke="none" stroke-width="0.5" stroke-linecap="butt"/><path d="M287.62464,316.5394c1.60391,0.23842 4.44262,-0.0834 5.2766,-0.0834c7.48554,0 14.97141,-0.0049 22.45695,-0.0049c10.37252,0 20.84467,0.00486 31.21718,0.00486c1.97093,0 3.9794,0.09557 5.95788,0.03879c0.0009,0.02437 0.00182,0.0489 0.00276,0.07338c0.01279,0.33427 0.40497,0.76062 0.16314,0.99175c-0.13878,0.13263 -3.60494,-0.20805 -3.98181,-0.20805c-10.49277,0 -21.08522,0.00493 -31.57799,0.00493c-9.87214,0 -19.75195,-0.11665 -29.62324,0.00972c0.03782,-0.27522 0.07396,-0.55176 0.10854,-0.82709z" fill="#ffffff" stroke="none" stroke-width="0.5" stroke-linecap="butt"/><path d="" fill="none" stroke="#000000" stroke-width="2" stroke-linecap="round"/><path d="" fill="#000000" stroke="none" stroke-width="0.5" stroke-linecap="butt"/><path d="M277.41667,310.83333h88" fill="none" stroke="#99d9ea" stroke-width="1" stroke-linecap="round"/><g stroke="none" stroke-width="0.5" stroke-linecap="butt"><path d="M217.1377,147.18675c0.03139,-0.74934 0.78073,-0.71795 0.78073,-0.71795l0.733,0.04039c2.11113,-0.62486 4.15188,-1.24041 6.16597,-1.7763c-0.30625,-0.0657 -0.6122,-0.13339 -0.91786,-0.20316c-0.33305,-0.07907 -0.66612,-0.15813 -0.99918,-0.2372l-0.0745,-0.08119l-0.02047,0.03699l-0.82135,-0.4546c-0.24842,-0.13077 -0.41289,-0.39632 -0.40036,-0.69546c0.01734,-0.41386 0.36688,-0.73529 0.78073,-0.71795c0.02394,0.001 0.04755,0.00312 0.07082,0.00629l0.21758,0.02734c-0.32866,-0.1861 -0.68993,-0.3959 -1.05908,-0.62413c-1.19953,-0.5857 -2.33754,-1.23151 -3.31365,-2.00189l-0.02355,-0.04684l-0.01229,0.01174l-0.95011,-0.9949c-0.13631,-0.14231 -0.21668,-0.3378 -0.20778,-0.55025c0.01734,-0.41386 0.36688,-0.73529 0.78073,-0.71795c0.14543,0.00609 0.27945,0.0532 0.39135,0.12971l1.24252,0.81813l-0.11903,0.18077c1.25608,0.64299 2.31002,1.41842 3.53419,2.18613c0.91545,0.42049 1.86309,0.81039 2.78628,1.19842c0.40447,0.10713 0.78447,0.23526 1.068,0.45587c0.38229,0.16691 0.75608,0.33551 1.11699,0.50806c0.84997,0.07268 1.70414,0.14372 2.56686,0.17986c5.83188,0.2443 11.66375,0.4886 17.49564,0.73289l0.42673,0.01788c0,0 0.74934,0.03139 0.71795,0.78073c-0.03139,0.74934 -0.78073,0.71795 -0.78073,0.71795c-3.93835,-0.16498 -8.30342,-0.34783 -12.24176,-0.51281c4.63191,0.42364 9.29594,0.59798 13.93994,0.79252c0,0 0.74934,0.03139 0.71795,0.78073c-0.03139,0.74934 -0.78073,0.71795 -0.78073,0.71795c-7.86655,-0.32953 -15.76514,-0.62948 -23.49615,-2.10984c-0.29353,0.48158 -0.6287,0.88427 -0.9124,1.00667c-0.79801,0.34426 -1.79825,-0.04118 -2.58716,0.32347c-1.42749,0.65981 -2.58183,1.17146 -4.12399,1.60377l-0.97388,-0.03111c0,0 -0.74934,-0.03139 -0.71795,-0.78073z" fill="#000000"/><path d="M405.79568,156.32011c0.52927,-1.75161 1.94618,-4.59636 3.57967,-6.0297c-0.33243,0.014 -0.67076,0.03155 -0.93666,-0.03506c-1.48923,-0.37309 -2.89544,-0.87489 -4.34151,-1.38701c-0.56435,-0.19986 -1.12869,-0.39973 -1.69305,-0.59959c-0.01407,0.37331 -0.02897,0.74659 -0.04461,1.11983c-0.09824,2.34526 -0.19649,4.69051 -0.29473,7.03577c-0.07356,0.63818 0.17227,1.40735 -0.21258,1.91788c-0.18623,2.17388 -0.4135,4.32148 -0.54493,6.34674c0.29958,-0.49014 0.65945,-0.96718 0.97033,-1.52555c0.40127,-0.72071 0.79116,-1.44869 1.17928,-2.1777c0.62812,-1.57119 1.55752,-2.8658 2.3388,-4.66562zM402.47113,146.23296c-0.15531,-0.01098 -0.03859,0.2781 -0.01772,0.46194c0.71484,0.25316 1.42967,0.50631 2.14451,0.75947c0.25621,0.09074 0.63328,0.19092 1.08446,0.30328c-1.13089,-0.70662 -2.46576,-1.47198 -3.21125,-1.5247zM396.25573,158.84036c-3.98049,0.65289 -7.68897,-0.20973 -11.5043,-0.88798c-1.90658,-0.08052 -3.81315,-0.16106 -5.71975,-0.24093c0,0 -0.74934,-0.03139 -0.71795,-0.78073c0.01715,-0.40947 0.24869,-0.58582 0.45519,-0.66156c0.01309,-0.00481 0.02608,-0.0092 0.03891,-0.01322c0.17301,-0.47542 0.73124,-0.45203 0.73124,-0.45203c1.78122,0.07588 3.50811,0.34175 5.21353,0.64463c3.59202,0.14931 7.18404,0.29868 10.77586,0.45264c0.32787,0.01405 2.40808,0.50189 3.58127,0.71566c0.36441,0.01141 0.68982,-0.0196 0.94092,-0.13201c0.01714,-0.03517 0.03223,-0.07119 0.04547,-0.10797c0.01608,-0.38387 0.03216,-0.76775 0.04824,-1.15162c-0.03129,-0.33579 -0.06415,-0.67456 -0.01221,-0.98261c0.06015,-1.19749 0.12311,-2.39486 0.18383,-3.59232c-0.01106,-1.04272 -0.09859,-2.16939 0.15029,-3.13039c0.01044,-0.23589 0.02062,-0.4718 0.03051,-0.70772l0.06247,-1.49135c0.01528,-0.36473 0.28858,-0.65768 0.63653,-0.71021c0.14686,-0.36418 0.37452,-0.65423 0.72866,-0.7745c1.78137,-0.60495 5.83174,2.61242 7.27552,3.44068c0.75225,0.43155 2.22533,-0.09178 2.49665,0.73192c0.08839,0.26835 0.01615,0.52734 -0.1281,0.78009c0.29162,0.22811 0.49208,0.47536 0.56523,0.74388c0.17664,0.6483 -2.89427,3.70234 -3.28482,4.24381c-1.69987,2.35676 -2.91917,5.07199 -4.3562,7.61608c-0.03816,0.739 -0.05435,1.55013 -0.25899,1.91546c-0.33657,0.60087 -1.55752,2.05545 -2.7108,2.73113l-0.47733,0.65486c-0.14208,0.201 -0.38009,0.32803 -0.64432,0.31696c-0.41386,-0.01734 -0.73529,-0.36688 -0.71795,-0.78073c0.00478,-0.11405 0.00969,-0.23132 0.01472,-0.35149c-0.48269,-1.18859 -0.24438,-4.36279 -0.20907,-5.21378l0.01788,-0.42673c0,0 0.02157,-0.51483 0.45567,-0.67315c0.02148,-0.51284 0.04175,-0.99659 0.06003,-1.43311c-0.49458,0.03172 -1.11016,-0.0503 -1.73681,-0.16973c-0.76936,-0.10138 -1.49899,-0.20902 -2.03004,-0.12191z" fill="#000000"/><path d="M403.43673,161.03148c-0.38813,0.72901 -0.77928,1.45641 -1.18054,2.17712c-0.31088,0.55837 -0.67186,1.03486 -0.97144,1.525c0.13143,-2.02526 0.33628,-4.19562 0.5225,-6.36949c0.38485,-0.51054 0.13407,-1.30463 0.20764,-1.94281c0.09824,-2.34526 0.22716,-4.73361 0.3254,-7.07887c0.01564,-0.37324 0.03302,-0.74748 0.04709,-1.12079c0.56435,0.19986 1.13731,0.3975 1.70166,0.59736c1.44608,0.51213 2.88208,1.0182 4.37132,1.39128c0.2659,0.06662 0.60926,0.05185 0.94169,0.03785c-1.63349,1.43334 -3.03674,4.29082 -3.56601,6.04245c-0.78128,1.79982 -1.77119,3.16973 -2.39931,4.74093z" fill="#ffffff"/><g><path d="M370.56567,183.44119c-2.24926,3.60363 -4.81046,7.05518 -7.77783,9.99884c-2.60313,2.58232 -6.17399,3.64982 -9.0975,5.69334c-3.18962,1.50645 -6.50174,2.76102 -9.87581,3.85738c-5.82535,2.09241 -11.50518,3.68394 -17.31783,4.64872c-0.82675,0.201 -1.65112,0.40201 -2.47228,0.60434c-3.22067,0.78689 -6.67966,0.71518 -9.94232,0.76235c-1.65938,0.02398 -3.34218,0.02274 -5.02866,-0.03173c-2.58858,0.13528 -5.18748,0.208 -7.60543,-0.09115c-0.37849,-0.04683 -0.75817,-0.10335 -1.13865,-0.16866c-1.27935,-0.04101 -2.55799,-0.0613 -3.84064,-0.03278c0.01269,0.11995 -0.0076,0.26108 -0.08259,0.42503c-0.31688,0.69292 -0.97659,0.40745 -0.97659,0.40745c-7.3125,-3.16426 -15.95775,-5.67876 -22.20112,-10.55949c-3.2676,-3.52321 -8.47721,-5.12753 -11.6362,-8.8936c-1.78326,-2.12596 -3.03918,-5.04865 -3.97175,-8.01651c-0.09273,-0.16174 -0.18511,-0.32293 -0.27731,-0.48328c-3.50159,-6.08939 -6.14031,-12.5669 -7.49047,-19.56434c-0.95495,-4.97369 -1.07676,-9.83524 -0.63984,-14.67931c-0.24228,-3.07774 -0.32446,-6.17111 -0.22032,-9.26342c0.77468,-7.27409 4.3332,-13.127 8.40926,-18.95125c1.4683,-2.57418 3.15543,-5.03518 5.02682,-7.25398c0.37503,-0.51008 0.77775,-1.006 1.23384,-1.47947c7.40609,-7.65176 15.38149,-13.20009 25.19918,-16.67441c4.6042,-1.73321 9.30628,-2.76053 14.05174,-3.37468c1.1778,-0.375 2.32734,-0.73047 3.61215,-0.84673c7.54341,-0.65919 15.22892,-1.22389 22.6733,-0.33682c0.67302,0.00061 1.33843,0.02504 1.98838,0.08976c0.74112,0.07378 1.50504,0.19896 2.28423,0.36856c4.42119,0.49791 8.66727,1.66826 12.45168,4.25533c3.04248,2.09464 6.91194,3.48775 9.67816,5.95063c3.72752,3.31877 6.61966,7.85746 8.89027,12.60502c1.25714,2.62853 2.48096,5.30603 3.67316,8.01277c0.29654,0.50582 0.59014,1.01212 0.88046,1.51911c1.16507,1.82218 2.25299,3.69477 3.21475,5.64657c1.85745,3.77272 4.03908,7.57471 5.23648,11.67007c0.5294,1.81066 0.86528,3.73955 1.05716,5.71769c0.23499,1.06661 0.44219,2.14708 0.61946,3.24288c0.169,1.38355 0.28253,2.77186 0.33993,4.16152c0.82787,5.32894 0.74466,10.80314 -0.96555,16.22763c-1.70471,5.37513 -4.5283,10.35458 -7.96173,14.83665zM286.84054,204.13344c-4.85317,-2.02029 -9.40928,-4.50249 -13.7295,-7.3554c0.38466,0.3267 0.75365,0.66862 1.10248,1.03029c5.73648,4.43476 13.52639,6.87561 20.37046,9.70372c0.08572,-0.11015 0.19843,-0.17791 0.30128,-0.2195c-2.78082,-0.9362 -5.5109,-2.10949 -8.0447,-3.15911zM250.81285,158.81419c0.1224,0.93385 0.27389,1.87115 0.45648,2.81259c0.54882,2.84434 1.31563,5.59986 2.27054,8.27666c-0.18207,-0.74925 -0.36651,-1.49337 -0.57232,-2.21627c-0.82708,-2.91039 -1.55394,-5.87353 -2.1547,-8.87299zM274.86555,196.1143c3.13214,2.01761 6.39184,3.83482 9.80287,5.40857c-2.05614,-1.12514 -4.09668,-2.28251 -6.14979,-3.42655c-1.20596,-0.67199 -2.43534,-1.31691 -3.65308,-1.98202zM252.80062,129.55978c-1.1867,2.65429 -2.04014,5.4568 -2.36813,8.51659c-0.01195,0.36729 -0.02125,0.73461 -0.02793,1.10195c0.52171,-2.59292 1.15897,-5.19597 1.86997,-7.82358c0.16146,-0.59439 0.33696,-1.19321 0.5261,-1.79495zM262.2585,188.48665c0.14431,0.19251 0.29261,0.37906 0.44506,0.55911c1.73057,2.04384 4.06172,3.4633 6.35685,4.90202c-2.3052,-1.69969 -4.54445,-3.50349 -6.72805,-5.39607c-0.02471,-0.02157 -0.04933,-0.04326 -0.07386,-0.06506zM357.29148,195.43791c1.61763,-0.84149 3.20365,-1.73761 4.50667,-3.04267c0.58521,-0.58613 1.15419,-1.19135 1.70773,-1.81306c-0.05601,-0.03423 -0.11229,-0.07962 -0.168,-0.13843c-0.49483,-0.5224 0.04439,-1.05973 0.04439,-1.05973l0.3043,-0.30323c1.99088,-1.98157 3.89535,-4.11171 5.64075,-6.37474c1.25595,-2.00545 2.41374,-4.06147 3.49125,-6.10964c2.35312,-4.59052 3.89808,-9.45169 4.67132,-14.4057c-1.82921,8.06566 -5.86743,15.40949 -11.00615,22.09508c-2.2633,4.29999 -5.46542,8.06052 -9.19225,11.15214zM277.99309,101.68667c-2.97835,1.69213 -5.85759,3.54371 -8.58044,5.51612c-2.13935,1.54697 -4.13645,3.46563 -5.9549,5.62471c-0.79988,1.098 -1.46488,2.2716 -2.27796,3.41055c-0.87204,1.22153 -1.74585,2.43205 -2.59824,3.64475c-2.17789,3.83242 -3.85382,7.92007 -4.89791,11.79464c-0.36889,1.3633 -0.71836,2.71987 -1.04201,4.0718c2.22158,-5.65865 5.55741,-10.96552 8.83088,-16.10443c4.28085,-7.37428 9.90091,-13.07087 16.52056,-17.95813zM257.91807,177.54933c2.86288,4.95179 7.59822,9.7934 11.38009,13.08635c2.95144,2.5757 6.5744,4.23951 9.97549,6.13464c5.00474,2.78872 9.93325,5.66031 15.20169,7.93834c4.53014,1.96708 9.62691,2.6118 14.67722,2.77065c2.01979,-0.10769 4.03365,-0.25477 5.94532,-0.2881c3.83363,-0.06684 7.53975,-0.41825 11.19155,-1.02166c5.6439,-1.37067 11.40184,-2.74079 16.98797,-4.54578c0.36185,-0.12958 0.72428,-0.26113 1.08738,-0.39461c8.48379,-3.1188 16.51292,-9.3543 20.90796,-17.71331c6.0794,-7.9683 10.65589,-16.75359 11.62722,-26.73353c0.25123,-2.57417 0.42115,-5.31867 0.37412,-8.04752c-0.81624,-3.40819 -1.94876,-6.72872 -3.17671,-9.89843c-2.19278,-5.6667 -4.512,-11.39124 -6.96628,-16.99746c-3.74602,-5.60518 -8.18293,-10.74054 -11.60248,-16.44985c-2.08947,-1.43853 -3.68538,-3.62342 -5.42442,-5.67998c-0.12403,-0.09911 -0.24855,-0.19731 -0.37357,-0.29456c-2.92913,-2.27982 -7.06509,-4.83382 -11.2559,-6.59472c-1.26536,-0.38044 -2.52381,-0.74829 -3.71972,-1.157c-1.43204,-0.34922 -2.8782,-0.62618 -4.33532,-0.84177c-1.44425,-0.07533 -2.90058,-0.09475 -4.35716,-0.08546c-0.79387,0.04097 -1.5819,0.08105 -2.35037,0.09217c-10.10429,0.14604 -19.2958,0.40959 -29.16316,3.54553c-0.39751,0.12631 -0.79507,0.25625 -1.19256,0.38975c-3.41825,1.22966 -6.70212,2.7521 -9.90751,4.92117c-8.4907,5.48609 -15.59775,11.83535 -20.74632,20.69983c-5.23748,8.22617 -10.77972,16.94574 -11.19778,26.87742c0.37754,5.51832 1.26468,11.3666 2.34395,16.75635c0.82936,4.1417 2.65877,7.90597 3.71483,11.97732c0.11108,0.50207 0.2287,1.02208 0.35443,1.55422zM265.62799,189.33921c-1.88094,-1.81244 -3.8206,-3.87674 -5.56687,-6.06324c0.92337,1.52232 1.95216,2.99084 3.25334,4.10886c0.76402,0.6622 1.53505,1.31394 2.31353,1.95438zM352.40877,99.32679c0.54735,0.58017 1.07089,1.17151 1.56322,1.76249c2.80836,2.70944 5.3533,5.84319 7.68314,9.12826c-1.9318,-3.49437 -4.25035,-6.71293 -7.05908,-9.25209c-0.66669,-0.60269 -1.40634,-1.14003 -2.18728,-1.63866z" fill="#000000"/><path d="M354.56911,100.92334c2.80874,2.53916 5.18661,5.83794 7.11841,9.33232c-2.32984,-3.28507 -4.87519,-6.41847 -7.68355,-9.12791c-0.49234,-0.59098 -1.08019,-1.25891 -1.62754,-1.83908c0.78094,0.49863 1.52601,1.03197 2.19269,1.63467z" fill="#ffffff"/><path d="M366.49191,184.23644c5.13872,-6.68559 9.19472,-14.02281 11.02393,-22.08848c-0.77324,4.95401 -2.29788,9.83901 -4.65099,14.42952c-1.07751,2.04818 -2.25931,4.16786 -3.51525,6.17331c-1.74539,2.26303 -3.68912,4.39543 -5.68,6.377l-0.30506,0.30295c0,0 -0.50504,0.44337 -0.01021,0.96577c0.05572,0.05881 0.07987,0.1989 0.13588,0.23313c-0.55354,0.62172 -1.12588,1.22569 -1.71109,1.81181c-1.30303,1.30506 -2.84406,2.11222 -4.46168,2.95371c3.72683,-3.09162 6.91116,-6.85874 9.17447,-11.15874z" fill="#ffffff"/><path d="M263.33445,187.43067c-1.30118,-1.11803 -2.38377,-2.66921 -3.30715,-4.19153c1.74627,2.1865 3.75357,4.32447 5.63451,6.13691c-0.77848,-0.64044 -1.56333,-1.28319 -2.32736,-1.94538z" fill="#ffffff"/><path d="M262.37139,188.58297c2.1836,1.89257 4.42282,3.69642 6.72802,5.39611c-2.29514,-1.43872 -4.70557,-2.91909 -6.43614,-4.96293c-0.15245,-0.18005 -0.29945,-0.36831 -0.44376,-0.5608c0.02453,0.0218 0.12716,0.10605 0.15187,0.12763z" fill="#ffffff"/><path d="M278.47535,198.07129c2.05312,1.14404 4.18071,2.35061 6.23684,3.47575c-3.41103,-1.57375 -6.75828,-3.43927 -9.89042,-5.45688c1.21774,0.66511 2.44761,1.30915 3.65357,1.98113z" fill="#ffffff"/><path d="M294.84004,207.2712c-0.10285,0.04159 -0.12575,0.15328 -0.21146,0.26344c-6.84406,-2.82811 -14.72428,-5.31184 -20.46076,-9.74659c-0.34883,-0.36168 -0.62727,-0.66116 -1.01193,-0.98786c4.32022,2.85292 8.79047,5.2844 13.64364,7.30469c2.53381,1.04961 5.2597,2.23012 8.04052,3.16632z" fill="#ffffff"/><path d="M252.26351,131.40352c-0.711,2.62761 -1.34923,5.23042 -1.87095,7.82334c0.00668,-0.36733 0.01303,-0.73548 0.02499,-1.10277c0.328,-3.05978 1.20855,-5.95851 2.39525,-8.6128c-0.18914,0.60175 -0.38784,1.29783 -0.54929,1.89223z" fill="#ffffff"/><path d="M261.52113,119.63309c-3.27347,5.13891 -6.62805,10.41739 -8.84963,16.07603c0.32366,-1.35194 0.60987,-2.63118 0.97876,-3.99449c1.04409,-3.87457 2.70415,-7.99091 4.88202,-11.82333c0.8524,-1.21269 1.73259,-2.45745 2.60463,-3.67898c0.81308,-1.13895 1.50592,-2.33452 2.30579,-3.43252c1.81845,-2.15907 3.84735,-4.07717 5.9867,-5.62413c2.72284,-1.97242 5.55547,-3.73677 8.53383,-5.4289c-6.61966,4.88727 -12.16127,10.53202 -16.44212,17.9063z" fill="#ffffff"/><path d="M257.5185,176.01661c-1.05606,-4.07135 -2.88884,-7.84502 -3.71819,-11.98672c-1.07928,-5.38975 -1.96788,-11.25145 -2.34542,-16.76977c0.41807,-9.93167 5.96651,-18.67408 11.20399,-26.90027c5.14857,-8.86447 12.27278,-15.23191 20.76348,-20.71799c3.20539,-2.16907 6.49775,-3.69578 9.916,-4.92544c0.39749,-0.1335 0.79606,-0.26381 1.19357,-0.39013c9.86736,-3.13595 19.08388,-3.40188 29.18817,-3.54792c0.76847,-0.01111 1.5584,-0.05084 2.35227,-0.09181c1.45658,-0.00929 2.91639,0.01095 4.36063,0.08628c1.45711,0.21557 2.90673,0.49362 4.33877,0.84285c1.19591,0.40871 2.45733,0.77773 3.72269,1.15817c4.19081,1.76089 8.33609,4.32014 11.26523,6.59996c0.12502,0.09726 0.24986,0.19568 0.37389,0.2948c1.73903,2.05657 3.33992,4.24558 5.42939,5.68411c3.41954,5.7093 7.8666,10.85817 11.61261,16.46335c2.45427,5.60621 4.77833,11.34526 6.97111,17.01197c1.22795,3.16971 2.36117,6.49843 3.17741,9.90662c0.04703,2.72884 -0.12329,5.47974 -0.37451,8.0539c-0.97132,9.97994 -5.55607,18.78711 -11.63547,26.7554c-4.39504,8.35901 -12.44067,14.60979 -20.92445,17.72858c-0.36309,0.13348 -0.72636,0.26549 -1.08821,0.39507c-5.58614,1.80499 -11.35792,3.1802 -17.00184,4.55088c-3.65179,0.60341 -7.36748,0.95586 -11.20111,1.0227c-1.91167,0.03333 -3.9306,0.18022 -5.95038,0.28791c-5.05031,-0.15885 -10.15944,-0.80628 -14.68958,-2.77336c-5.26844,-2.27803 -10.20972,-5.1564 -15.21446,-7.94512c-3.40108,-1.89514 -7.03116,-3.5653 -9.98262,-6.14101c-3.78187,-3.29295 -8.52511,-8.14591 -11.38799,-13.0977c-0.12572,-0.53214 -0.24389,-1.05325 -0.35498,-1.55532z" fill="#ffffff"/></g></g><g fill="#000000" stroke="none" stroke-width="0.5" stroke-linecap="butt"><path d="M359.57046,159.96211c-1.63452,2.04122 -3.60425,3.71589 -5.8557,4.80953c-8.72835,4.21336 -21.10113,3.77673 -29.91541,-0.08952c-0.19665,-0.14042 -0.42581,-0.28631 -0.67163,-0.43786c-0.39053,0.42822 -0.92279,0.10266 -0.92279,0.10266c-7.83741,-4.79399 -7.80876,-14.57136 -5.80627,-22.57893c0.78092,-3.11171 1.38411,-6.55473 2.91398,-9.4138c3.48423,-6.51143 11.47329,-8.22772 18.06529,-9.58098c10.0112,0.9221 22.72038,4.54732 26.4505,14.82448c0.56098,1.5456 0.90225,3.21257 1.03965,4.93745c0.18386,0.78271 0.34741,1.52831 0.49643,2.20364c-0.13239,5.7261 -0.83041,9.87194 -4.38865,14.54991l-0.56883,0.539c0,0 -0.40274,0.37036 -0.83657,0.13442zM353.50416,128.61469c-4.92147,-2.59203 -10.90032,-3.8084 -16.04087,-4.34391c-4.42439,1.00137 -9.63065,1.99624 -13.38067,4.81978c5.37068,-3.09001 12.89982,-2.65114 19.22986,-2.38306c3.154,0.39498 6.82595,0.84285 10.19167,1.90721zM316.85165,147.96179c-0.33571,3.99366 0.12967,8.02819 2.16996,11.23779c-0.28419,-0.89967 -0.50567,-1.82024 -0.74083,-2.69075c-0.7408,-2.74222 -1.25166,-5.63506 -1.42912,-8.54702zM363.37686,142.71553c-0.6766,-2.88261 -1.63106,-6.3432 -3.22644,-8.28845c-3.84772,-4.69155 -11.32668,-5.51402 -16.96294,-6.22481c-8.66269,-0.35872 -20.37157,-1.43072 -23.66398,8.99604c-1.92281,6.03546 -1.4295,12.87553 0.2053,18.91907c0.46722,1.72721 0.84692,3.7017 1.90595,5.1964c0.55297,0.78046 2.12364,1.49906 2.90568,2.06419c8.39941,3.62799 20.22682,4.0472 28.52225,0.04282c6.90421,-3.30969 10.92418,-12.74007 10.31418,-20.70527z"/><path d="M309.50135,132.69361c-0.1371,0.0678 -0.26006,0.09383 -0.36896,0.09228c1.32136,3.68084 1.8977,7.64828 2.13692,11.55669c0.12521,2.10821 0.21425,5.59777 -0.61166,7.58436c-2.81795,6.77811 -13.14265,11.83025 -20.06827,11.61848c-7.34486,-0.25831 -13.87821,-3.92008 -18.60682,-9.2816c-0.28647,0.04182 -0.53878,-0.11672 -0.53878,-0.11672c-5.61517,-3.57222 -7.57318,-11.67593 -6.29797,-17.98868c0.4746,-2.34941 1.96514,-4.85571 2.87175,-7.07973c3.66447,-8.98951 14.46695,-13.30928 23.76825,-11.20745c4.50842,0.70584 8.83159,2.55857 12.44679,5.51608c2.43088,2.21489 4.07061,5.19345 5.51929,8.1211l0.08925,0.18045c0,0 0.33248,0.67227 -0.33978,1.00476zM291.74095,119.37761c-4.43014,-0.72785 -9.05985,-0.28157 -13.32538,1.37811c-6.0359,4.61845 -10.40496,9.90816 -10.72596,17.82103c-0.07926,1.95385 -0.53038,4.71617 0.2726,6.51438c3.89502,9.18414 12.43572,16.59494 22.67988,16.95522c6.30558,0.25506 16.02603,-4.52878 18.62103,-10.67197c0.74476,-1.76309 0.6283,-5.05154 0.50897,-6.94015c-0.40567,-6.628 -1.76577,-13.44982 -6.41141,-18.58343c-2.28726,-2.52751 -5.46806,-4.03054 -8.49976,-5.39305c-1.00444,-0.45721 -2.0498,-0.81605 -3.11999,-1.08013z"/><path d="M294.40339,146.8115c0.85488,-0.08892 1.78203,-0.16935 1.91319,-0.11223c0.52974,0.23065 0.93964,0.5963 1.23696,1.04151c0.75158,0.23456 1.33531,0.78852 1.63578,1.92948c0.15871,0.60264 0.51328,1.23788 0.34403,1.83764c-0.35074,1.24288 -1.57371,2.15402 -2.91128,2.47065c-0.05129,0.54308 -0.16652,0.96437 -0.38377,1.12771c-0.56148,0.42211 -1.40255,-0.10642 -2.09603,-0.21842c-0.76563,-0.12366 -1.4936,-0.32092 -2.14614,-0.60156c-0.68716,-0.18841 -3.02239,-0.82844 -3.21108,-1.01055c-0.3515,-0.33923 -0.55492,-0.8708 -0.62782,-1.46596c-0.3903,-1.24835 -0.00531,-2.79158 1.07357,-3.66839c0.03975,-0.23832 0.12102,-0.45436 0.29162,-0.62022c0.24214,-0.23541 2.94478,-0.49396 3.43025,-0.54797c0.11645,-0.01296 0.42878,-0.04995 0.81921,-0.09348c0.10517,-0.07543 0.20702,-0.15342 0.30234,-0.23641c0.06592,0.03499 0.18073,0.09283 0.32919,0.16821zM295.39406,149.30979c0.14859,0.04433 0.29313,0.08794 0.4326,0.12973c0.04089,-0.05085 0.07114,-0.10237 0.08914,-0.15411c-0.03175,0.00555 -0.06284,0.00948 -0.09317,0.01157c-0.12405,0.00855 -0.26831,0.01235 -0.42857,0.01281zM290.74039,150.92527c0.23473,1.01682 0.86697,1.45819 1.7643,1.81234c0.15337,-0.03658 0.32598,-0.07305 0.51054,-0.11034c-0.07688,-0.24302 -0.15925,-0.55119 -0.24008,-0.89202c-0.75179,-0.18099 -1.42168,-0.58323 -1.80683,-1.18771c-0.0882,0.10454 -0.16482,0.22945 -0.22792,0.37773zM296.51767,150.83465c0.06027,-0.1831 0.10419,-0.37731 0.12982,-0.57504c-0.05843,0.0631 -0.11556,0.12616 -0.16948,0.18949c0.01285,0.12104 0.02623,0.25018 0.03965,0.38555zM292.24098,150.0717c0.0595,0.05769 0.13564,0.1047 0.22516,0.14193c-0.00762,-0.04462 -0.01509,-0.08907 -0.02236,-0.13327c-0.06848,-0.00478 -0.13613,-0.00776 -0.2028,-0.00867z"/><path d="M339.13653,136.7048c-1.89509,0.71464 -4.57045,1.01348 -5.91663,0.5136c-2.09367,-0.77744 -2.23296,-3.69256 -0.47616,-4.99769c0.23,-0.17086 2.96641,-0.27578 3.40574,-0.2979c0.99873,-0.05029 1.99645,-0.12868 2.9962,-0.15089c1.23663,-0.02748 4.6818,1.23418 3.95419,3.38066c-0.2273,0.67055 -1.25493,0.66007 -1.90833,0.93277c-0.4152,0.17328 -1.1735,0.4147 -2.05501,0.61945zM338.07042,134.97921c0.10134,-0.04252 0.20522,-0.08881 0.31227,-0.13941c-0.1552,0.04872 -0.31251,0.0944 -0.47136,0.13682c0.05328,0.00133 0.10638,0.0022 0.15909,0.00259z"/></g><path d="M303.28514,193.07284c-0.03139,0.74934 -0.78073,0.71795 -0.78073,0.71795l-0.49956,-0.02093c-4.85624,-0.20343 -8.97875,-1.3441 -13.34245,-3.46105c-1.84369,-1.0231 -3.83676,-1.52794 -5.40021,-3.01774c-3.74472,-3.56832 -3.454,-11.44436 -4.57289,-16.16286c0.19362,-4.82069 3.36342,-3.91764 5.62822,-0.82443c1.14594,1.56509 0.26511,3.62962 1.09262,5.13595c1.40272,2.5534 3.92706,4.35939 6.03866,6.2768c4.63851,3.37798 11.53569,4.40895 17.09309,3.91324c1.80383,-0.1609 4.75397,0.1972 6.08127,-1.12024c0,0 0.55206,-0.50767 1.05973,0.04439c0.50767,0.55206 -0.04439,1.05973 -0.04439,1.05973c-1.82267,1.59331 -4.62428,1.30155 -6.96334,1.51019c-5.94627,0.53039 -13.22276,-0.63269 -18.17332,-4.24401c-2.21271,-2.00419 -5.06053,-4.00908 -6.42679,-6.75634c-0.55916,-1.12435 -0.07997,-2.54431 -0.41182,-3.67264c-0.38247,-1.30046 -1.41637,-1.78023 -2.24536,-2.83831c-0.20302,-0.25912 -0.31744,-0.68269 -0.63904,-0.7529c-0.3549,-0.07748 -0.5794,1.73888 -0.59662,2.12286c0.83987,3.41969 1.34164,6.79409 2.05694,10.26721c0.38278,1.85856 0.6168,3.59546 2.06395,4.9613c1.44523,1.36402 3.33946,1.82187 5.05014,2.76635c4.16859,2.0231 8.07621,3.0995 12.71438,3.2938l0.49956,0.02093c0,0 0.74934,0.03139 0.71795,0.78073z" fill="#000000" stroke="none" stroke-width="0.5" stroke-linecap="butt"/></g></g></svg>