<svg version="1.1" xmlns="http://www.w3.org/2000/svg" xmlns:xlink="http://www.w3.org/1999/xlink" width="213.18203" height="322.98556" viewBox="0,0,213.18203,322.98556"><defs><linearGradient x1="318.60651" y1="-16.37304" x2="318.60651" y2="186.40186" gradientUnits="userSpaceOnUse" id="color-1"><stop offset="0" stop-color="#3e2119"/><stop offset="1" stop-color="#3a1f18"/></linearGradient></defs><g transform="translate(-214.52362,16.37304)"><g stroke-miterlimit="10"><g stroke-linecap="butt"><g><g stroke="none" stroke-width="0.5"><path d="M310.77113,276.94112c-2.69122,-0.26474 -4.3952,-3.75265 -4.49116,-6.64311c-1.00137,0.86969 -2.34463,1.34161 -3.76875,1.20151c-0.45314,-0.04458 -0.88617,-0.14833 -1.29221,-0.30286c-0.26206,0.31203 -0.53892,0.61483 -0.83045,0.89719c0.80628,1.45276 1.10048,3.08871 0.31187,4.42996c-0.00132,0.92899 -0.17512,1.87758 -0.51234,2.74708c-0.01303,0.22163 -0.03384,0.44995 -0.06284,0.68501c-0.07326,0.59397 -0.25778,1.14111 -0.52753,1.6359c-0.79603,1.86101 -2.67638,3.10667 -4.77828,3.02877c-2.49243,0.30642 -4.88525,-0.86306 -4.72551,-4.02508c-0.09283,-0.46954 -0.11927,-0.96043 -0.07,-1.46133c0.05401,-0.5491 0.19493,-1.06867 0.40777,-1.54644c-0.27509,-1.12684 -0.31482,-2.23775 -0.05515,-3.10144l-0.20224,-1.58655c0.06573,-0.05395 0.13101,-0.11008 0.19587,-0.16816c-1.21504,-2.68908 -1.17069,-6.31681 0.97664,-6.87873c0.3196,-0.31276 0.68023,-0.5822 1.07191,-0.80012c0.11312,-0.17645 0.23693,-0.34503 0.37039,-0.50494c0.13865,-0.29944 0.27863,-0.59749 0.41808,-0.89632c-0.00109,-0.03924 -0.00173,-0.07859 -0.0019,-0.11801c-1.09048,-2.40952 -1.63311,-5.72648 0.15245,-6.5262c0.2775,-0.3796 0.6066,-0.71734 0.97587,-1.00382c-0.23459,-1.06609 -0.34318,-2.16052 -0.26988,-3.11277c-0.12108,-0.15531 -0.22833,-0.33416 -0.31975,-0.53827c-1.38148,-1.00986 -2.2083,-2.70314 -2.02865,-4.52945c0.10148,-1.03155 0.50962,-1.95891 1.12527,-2.70065c-0.00054,-0.00005 -0.00108,-0.00011 -0.0016,-0.00016c-1.37408,-0.13518 -2.37842,-1.35866 -2.24324,-2.73274c0.01842,-0.1872 0.05703,-0.36753 0.11347,-0.53906c-0.5491,-0.5131 -0.86162,-1.26703 -0.78236,-2.07272c0.13518,-1.37408 1.35866,-2.37842 2.73274,-2.24324c1.18461,0.11653 2.09441,1.04194 2.23618,2.17537c0.50291,-0.70415 1.35791,-1.12745 2.28087,-1.03666c0.11672,0.01148 0.23079,0.03083 0.34171,0.05743c0.51218,-0.52828 1.25167,-0.8265 2.04084,-0.74887c0.46437,0.04568 0.88649,0.21565 1.2367,0.47373c0.50134,-0.71358 1.36221,-1.14389 2.29202,-1.05241c0.11666,0.01147 0.23067,0.0308 0.34153,0.05739c0.11392,-0.00448 0.2295,-0.00121 0.34617,0.01026c0.32769,0.03223 0.63435,0.12637 0.90954,0.26966c0.41731,-0.21919 0.90119,-0.323 1.40536,-0.2734c0.32381,0.03185 0.62711,0.12415 0.89978,0.26462c0.29482,-0.08465 0.61028,-0.11607 0.93409,-0.08422c0.24459,0.02406 0.47747,0.0826 0.69428,0.17033c0.50178,-0.44073 1.17786,-0.68054 1.89495,-0.60999c0.43081,0.04238 0.82528,0.19174 1.15968,0.41919c0.49862,-0.42446 1.16233,-0.65367 1.86547,-0.5845c0.19723,0.01941 0.38684,0.06122 0.56656,0.12269c0.04809,-0.00646 0.09656,-0.01153 0.14537,-0.01518c0.9331,-0.63306 2.08462,-0.95577 3.29449,-0.83676c0.24029,0.02364 0.47493,0.06391 0.70288,0.11959c0.15439,-0.11694 0.32205,-0.21763 0.50588,-0.29847c1.41146,-0.62076 3.24846,-0.85116 4.92385,-0.54703c0.17893,-0.1175 0.37334,-0.21244 0.57885,-0.28121c0.4863,-0.37452 1.11071,-0.57183 1.76977,-0.50699c0.82847,0.0815 1.52254,0.55863 1.91347,1.22585c0.23975,-0.04909 0.49083,-0.06352 0.74715,-0.03831c0.54297,0.05341 1.02819,0.27676 1.4082,0.61219c0.02554,-0.0092 0.05125,-0.01799 0.07713,-0.02638c0.51013,-0.50147 1.23071,-0.78153 1.99829,-0.70602c0.15663,0.01541 0.30845,0.04495 0.45433,0.08725c0.15132,-0.01306 0.30599,-0.01246 0.46262,0.00294c0.54571,0.05368 1.0331,0.27902 1.41397,0.61727c0.06808,0.02568 0.1357,0.05258 0.20282,0.0807c0.45649,-0.29261 1.01102,-0.43947 1.59251,-0.38227c0.89068,0.08761 1.62601,0.63251 1.99633,1.37928c0.34713,-0.13047 0.72876,-0.1854 1.12275,-0.14663c1.37408,0.13518 2.37842,1.35866 2.24324,2.73274c-0.08488,0.86285 -0.59891,1.57989 -1.30987,1.96055c-0.09919,0.12074 -0.20932,0.23178 -0.32871,0.33172c0.09725,0.47779 0.12571,0.97803 0.07547,1.48866c-0.1593,1.61932 -1.07434,2.9819 -2.36141,3.77275c-0.03583,0.02845 -0.07237,0.05602 -0.10968,0.08264c-0.0039,0.09859 -0.01069,0.19766 -0.02047,0.29711c-0.27034,2.74815 -2.71732,4.75682 -5.46547,4.48648c-0.17722,-0.01744 -0.35138,-0.04393 -0.52204,-0.07895c-0.81943,0.17433 -2.49209,0.41018 -4.29307,0.61378c-1.83895,2.5143 -4.91782,4.8826 -7.44626,4.36532c-0.32462,0.93597 -0.91609,1.73662 -1.67591,2.32109c0.55083,1.58674 0.42351,3.51815 -0.30241,5.11447c0.43609,1.89191 -0.0534,4.16723 -1.20775,5.83895c-0.24819,3.09357 -2.56581,6.439 -5.92052,6.109z" fill="#c1788e"/><path d="M306.16235,246.01057c0.17875,0.46696 -0.28819,0.64571 -0.28819,0.64571l-0.34253,0.10364c-1.41916,2.49135 -6.33268,1.82371 -6.99411,-0.88441c0,0 -0.11092,-0.48754 0.37663,-0.59845c0.48755,-0.11093 0.59845,0.37663 0.59845,0.37663c0.46545,2.27394 4.29421,1.94751 5.38454,0.33331l0.61951,-0.26462c0,0 0.46696,-0.17875 0.64571,0.2882z" fill-opacity="0.12157" fill="#59434a"/><path d="M317.45231,244.0153c0.04061,-0.14061 0.1648,-0.39596 0.52793,-0.36025c0.4976,0.04895 0.44865,0.54655 0.44865,0.54655l-0.34139,0.64724c-1.67754,0.64216 -3.81258,0.82621 -5.61285,0.65816c0,0 -0.4976,-0.04895 -0.44865,-0.54655c0.04895,-0.4976 0.54655,-0.44865 0.54655,-0.44865c1.55512,0.16233 3.38521,0.01305 4.87976,-0.49651z" fill-opacity="0.12157" fill="#59434a"/><path d="M333.92291,244.33705c-0.04895,0.4976 -0.54655,0.44865 -0.54655,0.44865l-0.23077,-0.07575c-1.99882,0.7599 -4.63939,0.74688 -6.75901,0.54541c0,0 -0.4976,-0.04895 -0.44865,-0.54655c0.04895,-0.4976 0.54655,-0.44865 0.54655,-0.44865c1.95608,0.19991 4.46052,0.22696 6.30361,-0.48413l0.68617,0.01446c0,0 0.4976,0.04895 0.44865,0.54655z" fill-opacity="0.12157" fill="#59434a"/><path d="M327.33515,252.48421c-0.04895,0.4976 -0.54655,0.44865 -0.54655,0.44865l-0.4466,-0.09697c-0.67418,-0.42428 -1.2784,-0.92811 -1.95035,-1.34912c0,0 -0.42318,-0.26631 -0.15686,-0.68949c0.26631,-0.42317 0.68949,-0.15686 0.68949,-0.15686c0.67149,0.42424 1.27588,0.92466 1.95036,1.34912l0.01187,-0.05188c0,0 0.4976,0.04895 0.44865,0.54655z" fill-opacity="0.12157" fill="#59434a"/><path d="M320.33726,252.49694c0.17875,0.46697 -0.28819,0.64571 -0.28819,0.64571l-0.59308,0.21271c-1.70334,-0.14539 -5.02929,0.20943 -5.05878,-1.91243c0,0 0.04895,-0.4976 0.54655,-0.44865c0.4976,0.04895 0.44865,0.54655 0.44865,0.54655c-0.28171,0.68096 3.16119,0.73492 3.9302,0.82346l0.36895,-0.15556c0,0 0.46696,-0.17875 0.64571,0.2882z" fill-opacity="0.12157" fill="#59434a"/><path d="M301.34576,259.41715c0.04895,-0.4976 0.54655,-0.44865 0.54655,-0.44865l-0.05152,0.07713c2.54436,-1.32984 3.089,-3.15671 3.36434,-5.92145l-0.19007,-0.01869c-1.93697,-0.19054 -3.79571,-0.60485 -5.70832,-0.79299c0,0 -0.4976,-0.04895 -0.44865,-0.54655c0.04895,-0.4976 0.54655,-0.44865 0.54655,-0.44865c1.91574,0.18846 3.76983,0.6023 5.70832,0.79299l0.22924,0.02255c0,0 0.47116,0.04634 0.45143,0.50731c-0.00001,0.00034 -0.00002,0.00067 -0.00004,0.00101c0.45705,0.06994 0.41062,0.54179 0.41062,0.54179c-0.30671,3.1178 -1.02424,5.24233 -3.89979,6.74872l-0.50999,0.03202c0,0 -0.4976,-0.04895 -0.44865,-0.54655z" fill-opacity="0.12157" fill="#59434a"/><path d="M299.39524,272.18665c0.04895,-0.4976 0.54655,-0.44865 0.54655,-0.44865l0.23077,0.07574c1.89181,-0.69217 1.47972,-3.74833 1.64286,-5.40679c0.04814,-0.48931 0.50035,-2.19544 0.04343,-2.32379c0,0 -0.42318,-0.2663 -0.15686,-0.68949c0.26631,-0.42318 0.68949,-0.15686 0.68949,-0.15686c1.04339,0.80544 0.53888,2.05091 0.41915,3.26804c-0.21654,2.20122 0.16425,5.27639 -2.28056,6.2428l-0.68617,-0.01446c0,0 -0.4976,-0.04895 -0.44865,-0.54655z" fill-opacity="0.12157" fill="#59434a"/><path d="M308.21767,262.16252c0.45659,0.20379 0.25278,0.66037 0.25278,0.66037l-0.31247,0.697c-1.16465,1.85063 -1.05357,4.04033 -1.2625,6.16421c0,0 -0.04895,0.4976 -0.54655,0.44865c-0.4976,-0.04895 -0.44865,-0.54655 -0.44865,-0.54655c0.2222,-2.25882 0.13447,-4.56527 1.37571,-6.53762l0.28129,-0.63329c0,0 0.20379,-0.45659 0.66037,-0.25279z" fill-opacity="0.12157" fill="#59434a"/><path d="M312.09833,256.32229c0.42318,0.26631 0.15686,0.68949 0.15686,0.68949l-0.32245,0.50026c-0.53673,0.44593 -1.43789,1.05098 -1.73693,1.61168c0,0 -0.2663,0.42317 -0.68949,0.15686c-0.42318,-0.26631 -0.15685,-0.68949 -0.15685,-0.68949c0.44995,-0.65796 1.19132,-1.22042 1.83317,-1.74036l0.22622,-0.37158c0,0 0.2663,-0.42317 0.68949,-0.15685z" fill-opacity="0.12157" fill="#59434a"/><path d="M298.79127,268.83608c0.23906,0.43914 -0.20009,0.6782 -0.20009,0.6782l-0.85226,0.46379c-1.55357,0.93028 -3.31262,0.9076 -4.97574,0.18116c0,0 -0.45659,-0.20379 -0.25279,-0.66037c0.20379,-0.45659 0.66038,-0.25279 0.66038,-0.25279c1.35233,0.61983 2.81718,0.63685 4.06956,-0.13483l0.87274,-0.47525c0,0 0.43914,-0.23906 0.6782,0.20009z" fill-opacity="0.12157" fill="#59434a"/></g><path d="M303.54222,181.02027l37.6172,3.54182l2.33369,56.15713c0,0 -7.46081,-4.53229 -10.55222,-2.47289c-2.13132,1.41982 -4.57875,6.91117 -4.57875,6.91117c0,0 -2.97904,-4.98083 -4.55825,-6.96829c-2.44563,-3.07787 -6.93857,2.63273 -8.14848,4.77843c-1.1851,2.10171 -3.566,7.42447 -3.566,7.42447c0,0 -0.27657,-4.30786 -1.24884,-6.50747c-1.44598,-3.27133 -4.43251,-6.63579 -8.02187,-5.17945c-3.55179,1.4411 -5.24284,4.34139 -7.44213,7.27994c-1.44168,1.9263 -3.72981,5.94452 -3.72981,5.94452c0,0 -0.33075,-1.47878 -0.44766,-2.59895c-0.27294,-2.59935 -5.10841,-1.69936 -6.85543,-2.64112c0,0 3.8813,-7.75994 5.23529,-13.09432c1.35399,-5.33437 13.96322,-52.57496 13.96322,-52.57496z" fill="#e00d0d" stroke="#000000" stroke-width="0"/><g fill="#c10c0c"><path d="M303.54222,181.02027l37.6172,3.54182l1.50979,37.89064l-48.87536,-4.84276l9.74835,-36.58969z" stroke="#000000" stroke-width="0"/><path d="M298.947,221.14803c0.02673,-0.27165 0.19525,-0.49514 0.42503,-0.60436c-0.07545,-0.03774 -0.14763,-0.08074 -0.21612,-0.12846c-0.33822,0.25478 -0.76931,0.38826 -1.22394,0.34354c-0.49369,-0.04857 -0.91922,-0.29784 -1.20367,-0.65906c-0.32967,0.22958 -0.73962,0.34744 -1.17075,0.30502c-0.96186,-0.09462 -1.66489,-0.95105 -1.57027,-1.91292c0.09462,-0.96186 0.95105,-1.66489 1.91292,-1.57027c0.49369,0.04857 0.91922,0.29784 1.20367,0.65906c0.32967,-0.22958 0.73962,-0.34744 1.17075,-0.30502c0.30848,0.03034 0.59032,0.13905 0.82779,0.30445c0.33822,-0.25478 0.76931,-0.38826 1.22394,-0.34354c0.38567,0.03794 0.72976,0.19836 0.99748,0.43897c0.35644,-0.4592 0.9337,-0.73085 1.55495,-0.66974c0.7431,0.0731 1.3317,0.6009 1.51738,1.2807c0.1322,-0.6123 0.70559,-1.04146 1.34401,-0.97867c0.25718,0.0253 0.48847,0.12685 0.67365,0.28005c0.19922,-0.054 0.41142,-0.07343 0.62901,-0.05202c0.64496,0.06344 1.17354,0.46943 1.4233,1.02003c0.34664,-0.28621 0.80283,-0.43965 1.28556,-0.39216c0.30081,0.02959 0.57631,0.13369 0.81001,0.29222c0.19868,-0.5083 0.71677,-0.84426 1.28666,-0.78819c0.68704,0.06758 1.1892,0.67932 1.12162,1.36637c-0.06758,0.68704 -0.67932,1.1892 -1.36637,1.12162c-0.09868,-0.00971 -0.19355,-0.03064 -0.28347,-0.0614c-0.10332,0.95276 -0.95515,1.64661 -1.91109,1.55257c-0.64496,-0.06344 -1.17354,-0.46943 -1.4233,-1.02003c-0.34664,0.28621 -0.80283,0.43964 -1.28556,0.39215c-0.74888,-0.07367 -1.34088,-0.60915 -1.52166,-1.29664c-0.34501,-0.12921 -0.61283,-0.40476 -0.73628,-0.74477c-0.00858,0.06487 -0.02063,0.12849 -0.03595,0.19067c0.33492,0.25383 0.53397,0.67056 0.48981,1.11943c-0.06758,0.68704 -0.67932,1.1892 -1.36637,1.12162c-0.53714,-0.05284 -0.9613,-0.43832 -1.08849,-0.93234c-0.34724,-0.05313 -0.65704,-0.20637 -0.9026,-0.42706c-0.30371,0.39128 -0.76775,0.64637 -1.2827,0.67548c0.13277,0.15063 0.20508,0.35387 0.18386,0.56947c-0.04055,0.41223 -0.40759,0.71352 -0.81983,0.67297c-0.41223,-0.04055 -0.71352,-0.40759 -0.67297,-0.81983z" stroke="none" stroke-width="0.5"/><path d="M311.8381,226.03003c0.01559,-0.15854 0.07949,-0.30068 0.17567,-0.41327c-0.67875,-0.07549 -1.17255,-0.68302 -1.1055,-1.36469c0.05296,-0.53838 0.44008,-0.96323 0.93572,-1.08937c-0.19079,-0.24416 -0.29168,-0.55921 -0.25896,-0.89193c0.06758,-0.68704 0.67932,-1.1892 1.36637,-1.12162c0.19911,0.01958 0.38269,0.08488 0.54138,0.18446c-0.00884,-0.10485 -0.00833,-0.21201 0.00235,-0.32048c0.00764,-0.07769 0.02025,-0.15368 0.03749,-0.22771c-0.12667,-0.21861 -0.18847,-0.47759 -0.16184,-0.74823c0.06758,-0.68704 0.67932,-1.1892 1.36637,-1.12162c0.39752,0.0391 0.73312,0.26036 0.93231,0.57297c0.40918,0.10387 0.75576,0.34972 0.99059,0.6777c0.34342,-0.53692 0.96886,-0.8663 1.64663,-0.79963c0.96186,0.09462 1.66489,0.95105 1.57027,1.91292c-0.03928,0.39936 -0.20991,0.75409 -0.46486,1.02565c0.52494,0.18978 0.87519,0.71692 0.81804,1.29788c-0.06758,0.68704 -0.67932,1.1892 -1.36637,1.12162c-0.68704,-0.06758 -1.1892,-0.67932 -1.12162,-1.36637c0.0185,-0.18803 0.07775,-0.3622 0.16814,-0.51463c-0.4993,-0.06447 -0.92462,-0.33513 -1.19823,-0.71726c-0.34342,0.53692 -0.96886,0.8663 -1.64663,0.79963c-0.3823,-0.03761 -0.7237,-0.19557 -0.99039,-0.43265c-0.0006,0.00737 -0.00126,0.01475 -0.00199,0.02213c-0.05296,0.53838 -0.44008,0.96323 -0.93572,1.08937c0.19079,0.24416 0.29168,0.5592 0.25896,0.89193c-0.03759,0.38211 -0.2435,0.70701 -0.53704,0.90855c0.30429,0.11957 0.50527,0.43003 0.47168,0.7715c-0.04055,0.41223 -0.40759,0.71352 -0.81983,0.67297c-0.41223,-0.04055 -0.71352,-0.40759 -0.67297,-0.81983z" stroke="none" stroke-width="0.5"/><path d="M325.54724,220.46084c0.08161,0.00803 0.16061,0.02374 0.23636,0.04634c0.07871,-0.0074 0.15926,-0.00743 0.24087,0.0006c0.33191,0.03265 0.62066,0.1923 0.82288,0.42608c0.19089,-0.24516 0.47001,-0.4152 0.7844,-0.46666c0.31127,-0.63908 0.99626,-1.04895 1.74514,-0.97528c0.79493,0.07819 1.41309,0.67675 1.55028,1.42511c0.70728,0.28039 1.17391,1.00333 1.09572,1.79826c-0.09462,0.96186 -0.95105,1.66489 -1.91292,1.57027c-0.79493,-0.07819 -1.41309,-0.67675 -1.55028,-1.42511c-0.04509,-0.01787 -0.0892,-0.03755 -0.13226,-0.05893c-0.21149,0.11418 -0.45813,0.16872 -0.7153,0.14342c-0.33191,-0.03265 -0.62066,-0.1923 -0.82288,-0.42607c-0.06698,0.08604 -0.14485,0.16282 -0.23129,0.22849c-0.19231,0.52032 -0.71695,0.86659 -1.29484,0.80975c-0.29056,-0.02859 -0.54805,-0.15449 -0.74336,-0.34226c-0.23564,0.41902 -0.70341,0.68179 -1.21252,0.63171c-0.58981,-0.05802 -1.04336,-0.51706 -1.11716,-1.08052c-0.36449,-0.35819 -0.56965,-0.87213 -0.51572,-1.42031c0.09462,-0.96186 0.95105,-1.66489 1.91292,-1.57027c0.5408,0.0532 0.99977,0.34723 1.28116,0.76542c0.1782,-0.07004 0.37519,-0.10006 0.57881,-0.08003z" stroke="none" stroke-width="0.5"/><path d="M336.51277,223.39788c-0.06758,0.68704 -0.67932,1.1892 -1.36637,1.12162c-0.62025,-0.06101 -1.08983,-0.56554 -1.12553,-1.16857c-0.491,-0.35232 -0.78592,-0.94967 -0.72251,-1.59434c0.09462,-0.96186 0.95105,-1.66489 1.91292,-1.57027c0.96186,0.09462 1.66489,0.95105 1.57027,1.91292c-0.03067,0.31178 -0.14138,0.59638 -0.30979,0.83541c0.04151,0.14632 0.05681,0.30272 0.04102,0.46323z" stroke="none" stroke-width="0.5"/><path d="M337.48471,223.49349c0.05862,-0.59596 0.52668,-1.05281 1.09819,-1.11936c0.33616,-0.56537 0.97857,-0.91664 1.67647,-0.84799c0.16548,0.01628 0.3233,0.05511 0.47071,0.11313c0.1559,-0.0282 0.31827,-0.03553 0.48375,-0.01924c0.96186,0.09462 1.66489,0.95105 1.57027,1.91292c-0.09462,0.96186 -0.95105,1.66489 -1.91292,1.57027c-0.16548,-0.01628 -0.32331,-0.05511 -0.47072,-0.11314c-0.1559,0.0282 -0.31827,0.03554 -0.48374,0.01926c-0.26263,-0.02584 -0.50594,-0.10846 -0.719,-0.23451c-0.18148,0.07361 -0.38296,0.10554 -0.59139,0.08504c-0.68704,-0.06758 -1.1892,-0.67932 -1.12162,-1.36637z" stroke="none" stroke-width="0.5"/><path d="M296.80332,223.34642c0.04055,-0.41223 0.40759,-0.71352 0.81983,-0.67297c0.41223,0.04055 0.71352,0.40759 0.67297,0.81983c-0.04055,0.41223 -0.40759,0.71352 -0.81983,0.67297c-0.41223,-0.04055 -0.71352,-0.40759 -0.67297,-0.81983z" stroke="none" stroke-width="0.5"/><path d="M314.75233,228.24411c0.04055,-0.41223 0.40759,-0.71352 0.81983,-0.67297c0.41223,0.04055 0.71352,0.40759 0.67297,0.81983c-0.04055,0.41223 -0.40759,0.71352 -0.81983,0.67297c-0.41223,-0.04055 -0.71352,-0.40759 -0.67297,-0.81983z" stroke="none" stroke-width="0.5"/><path d="M320.96422,226.32548c0.04055,-0.41223 0.40759,-0.71352 0.81983,-0.67297c0.41223,0.04055 0.71352,0.40759 0.67297,0.81983c-0.04055,0.41223 -0.40759,0.71352 -0.81983,0.67297c-0.41223,-0.04055 -0.71352,-0.40759 -0.67297,-0.81983z" stroke="none" stroke-width="0.5"/><path d="M324.82708,225.01899c0.04055,-0.41223 0.40759,-0.71352 0.81983,-0.67297c0.41223,0.04055 0.71352,0.40759 0.67297,0.81983c-0.04055,0.41223 -0.40759,0.71352 -0.81983,0.67297c-0.41223,-0.04055 -0.71352,-0.40759 -0.67297,-0.81983z" stroke="none" stroke-width="0.5"/><path d="M337.46396,227.58719c0.04055,-0.41223 0.40759,-0.71352 0.81983,-0.67297c0.41223,0.04055 0.71352,0.40759 0.67297,0.81983c-0.04055,0.41223 -0.40759,0.71352 -0.81983,0.67297c-0.41223,-0.04055 -0.71352,-0.40759 -0.67297,-0.81983z" stroke="none" stroke-width="0.5"/><path d="M341.21335,229.88343c0.04055,-0.41223 0.40759,-0.71352 0.81983,-0.67297c0.41223,0.04055 0.71352,0.40759 0.67297,0.81983c-0.04055,0.41223 -0.40759,0.71352 -0.81983,0.67297c-0.41223,-0.04055 -0.71352,-0.40759 -0.67297,-0.81983z" stroke="none" stroke-width="0.5"/></g><g fill="#b70b0b"><path d="M303.54222,181.02027l37.6172,3.54182l1.27446,30.66803l-46.79761,-4.54135l7.90592,-29.66849z" stroke="#000000" stroke-width="0"/><path d="M299.36474,213.54119c-0.4703,-0.04626 -0.86841,-0.30503 -1.1086,-0.67182c-0.20331,0.04583 -0.41731,0.06043 -0.63608,0.0389c-1.09926,-0.10813 -1.90273,-1.08693 -1.79459,-2.18619c0.10813,-1.09926 1.08693,-1.90273 2.18619,-1.79459c0.63805,0.06276 1.17645,0.41885 1.49477,0.92158c0.34053,-0.76635 1.14357,-1.26436 2.02387,-1.17776c1.09926,0.10813 1.90273,1.08693 1.79459,2.18619c-0.10813,1.09926 -1.08693,1.90273 -2.18619,1.79459c-0.08086,-0.00795 -0.16013,-0.02061 -0.23755,-0.0377c-0.24382,0.59929 -0.85967,0.99337 -1.5364,0.9268z" stroke="none" stroke-width="0.5"/><path d="M304.45359,215.06427c0.0783,-0.79602 0.76534,-1.38521 1.55469,-1.35191c-0.0629,-0.11268 -0.11513,-0.2318 -0.15548,-0.35587c-0.22009,0.05647 -0.45362,0.07612 -0.69285,0.05259c-1.09926,-0.10813 -1.90273,-1.08693 -1.79459,-2.18619c0.10813,-1.09926 1.08693,-1.90273 2.18619,-1.79459c0.81585,0.08026 1.46876,0.64008 1.707,1.37282c0.22009,-0.05647 0.45362,-0.07612 0.69285,-0.05259c1.09926,0.10813 1.90273,1.08693 1.79459,2.18619c-0.10813,1.09926 -1.08693,1.90273 -2.18619,1.79459c-0.06895,-0.00678 -0.13674,-0.01699 -0.20322,-0.03045c0.07441,0.20437 0.10531,0.42819 0.08261,0.65911c-0.0811,0.82445 -0.8152,1.42705 -1.63964,1.34595c-0.82444,-0.0811 -1.42705,-0.81519 -1.34595,-1.63964z" stroke="none" stroke-width="0.5"/><path d="M317.97546,217.23768c-0.0811,0.82445 -0.8152,1.42705 -1.63964,1.34595c-0.77319,-0.07606 -1.35127,-0.72643 -1.35326,-1.48704c-0.67124,-0.20315 -1.12794,-0.85787 -1.05667,-1.58235c0.03112,-0.31636 0.15839,-0.60008 0.35002,-0.825c-0.15889,-0.13081 -0.29669,-0.28533 -0.40847,-0.45755c-0.38994,0.62427 -1.11111,1.00883 -1.89325,0.93189c-1.09926,-0.10813 -1.90273,-1.08693 -1.79459,-2.18619c0.10813,-1.09926 1.08693,-1.90273 2.18619,-1.79459c0.62998,0.06197 1.16281,0.4099 1.48259,0.90259c0.38994,-0.62427 1.11111,-1.00883 1.89325,-0.93189c1.09926,0.10813 1.90273,1.08693 1.79459,2.18619c-0.06114,0.62154 -0.40062,1.14851 -0.88284,1.4696c0.16743,0.24242 0.26458,0.53503 0.2654,0.84607c0.67124,0.20315 1.12793,0.85786 1.05666,1.58235z" stroke="none" stroke-width="0.5"/><path d="M324.77018,214.29221c-0.0811,0.82445 -0.8152,1.42705 -1.63964,1.34595c-0.59929,-0.05896 -1.08137,-0.46293 -1.26881,-0.99585c-0.14338,0.01754 -0.2909,0.01973 -0.44065,0.005c-0.34696,-0.03413 -0.66445,-0.155 -0.93311,-0.33901c-0.24595,0.59495 -0.85941,0.98534 -1.53322,0.91906c-0.82444,-0.0811 -1.42705,-0.81519 -1.34595,-1.63964c0.0811,-0.82445 0.8152,-1.42705 1.63964,-1.34595c0.13845,0.01362 0.27064,0.04565 0.3944,0.09344c0.16748,-1.03402 1.11299,-1.77267 2.16983,-1.6687c1.0427,0.10257 1.81925,0.9885 1.80412,2.01757c0.72355,0.16709 1.22803,0.84934 1.15339,1.60812z" stroke="none" stroke-width="0.5"/><path d="M328.94505,215.90752c0.01802,-0.18317 0.06827,-0.35538 0.14457,-0.51157c-0.05039,-0.00116 -0.10112,-0.00421 -0.15212,-0.00923c-1.09926,-0.10813 -1.90273,-1.08693 -1.79459,-2.18619c0.10813,-1.09926 1.08693,-1.90273 2.18619,-1.79459c1.09926,0.10813 1.90273,1.08693 1.79459,2.18619c-0.03672,0.37321 -0.17379,0.71234 -0.38187,0.99326c0.2032,0.0418 0.38992,0.12399 0.55239,0.23715c-0.04211,-0.19691 -0.05497,-0.40357 -0.0342,-0.61468c0.10813,-1.09926 1.08693,-1.90273 2.18619,-1.79459c1.09926,0.10813 1.90273,1.08693 1.79459,2.18619c-0.10813,1.09926 -1.08693,1.90273 -2.18619,1.79459c-0.43304,-0.0426 -0.82017,-0.22031 -1.12377,-0.48727c0.0094,0.09616 0.00961,0.19464 -0.00021,0.29446c-0.0811,0.82445 -0.8152,1.42705 -1.63964,1.34595c-0.82444,-0.0811 -1.42705,-0.81519 -1.34595,-1.63964z" stroke="none" stroke-width="0.5"/><path d="M340.84526,214.34573c1.09926,0.10813 1.90273,1.08693 1.79459,2.18619c-0.10813,1.09926 -1.08693,1.90273 -2.18619,1.79459c-0.6787,-0.06677 -1.24466,-0.46542 -1.5529,-1.01942c-0.30738,0.13796 -0.65386,0.20003 -1.0132,0.16468c-1.09926,-0.10813 -1.90273,-1.08693 -1.79459,-2.18619c0.10813,-1.09926 1.08693,-1.90273 2.18619,-1.79459c0.6787,0.06677 1.24466,0.46542 1.5529,1.01942c0.30738,-0.13796 0.65386,-0.20003 1.0132,-0.16468z" stroke="none" stroke-width="0.5"/><path d="M324.28418,217.97874c0.0811,-0.82445 0.8152,-1.42705 1.63964,-1.34595c0.82444,0.0811 1.42705,0.81519 1.34595,1.63964c-0.0811,0.82445 -0.8152,1.42705 -1.63964,1.34595c-0.82444,-0.0811 -1.42705,-0.81519 -1.34595,-1.63964z" stroke="none" stroke-width="0.5"/><path d="M297.43516,215.69894c0.04055,-0.41223 0.40759,-0.71352 0.81983,-0.67297c0.41223,0.04055 0.71352,0.40759 0.67297,0.81983c-0.04055,0.41223 -0.40759,0.71352 -0.81983,0.67297c-0.41223,-0.04055 -0.71352,-0.40759 -0.67297,-0.81983z" stroke="none" stroke-width="0.5"/><path d="M341.10197,219.99452c0.04055,-0.41223 0.40759,-0.71352 0.81983,-0.67297c0.41223,0.04055 0.71352,0.40759 0.67297,0.81983c-0.04055,0.41223 -0.40759,0.71352 -0.81983,0.67297c-0.41223,-0.04055 -0.71352,-0.40759 -0.67297,-0.81983z" stroke="none" stroke-width="0.5"/><path d="M335.99713,220.45606c0.04055,-0.41223 0.40759,-0.71352 0.81983,-0.67297c0.41223,0.04055 0.71352,0.40759 0.67297,0.81983c-0.04055,0.41223 -0.40759,0.71352 -0.81983,0.67297c-0.41223,-0.04055 -0.71352,-0.40759 -0.67297,-0.81983z" stroke="none" stroke-width="0.5"/><path d="M336.00498,217.92711c0.04055,-0.41223 0.40759,-0.71352 0.81983,-0.67297c0.41223,0.04055 0.71352,0.40759 0.67297,0.81983c-0.04055,0.41223 -0.40759,0.71352 -0.81983,0.67297c-0.41223,-0.04055 -0.71352,-0.40759 -0.67297,-0.81983z" stroke="none" stroke-width="0.5"/></g><g fill="#a50a0a"><path d="M303.54222,181.02027l37.6172,3.54182l0.99301,23.89541l-44.41056,-5.6798l5.80033,-21.75742z" stroke="#000000" stroke-width="0"/><path d="M301.85866,204.8106c0.00337,-0.03422 0.00808,-0.06796 0.01409,-0.10121c-0.14111,0.02146 -0.28713,0.02587 -0.43567,0.01125c-0.21246,-0.0209 -0.41229,-0.07898 -0.59369,-0.16713c-0.33929,0.25833 -0.77327,0.39405 -1.23115,0.34901c-0.96186,-0.09462 -1.66489,-0.95105 -1.57027,-1.91292c0.09462,-0.96186 0.95105,-1.66489 1.91292,-1.57027c0.21246,0.0209 0.41229,0.07898 0.59368,0.16714c0.33929,-0.25833 0.77328,-0.39405 1.23115,-0.34901c0.60842,0.05985 1.11326,0.42452 1.37819,0.92786c0.34912,-0.50969 0.958,-0.81851 1.61624,-0.75376c0.96186,0.09462 1.66489,0.95105 1.57027,1.91292c-0.09462,0.96186 -0.95105,1.66489 -1.91292,1.57027c-0.02675,-0.00263 -0.05329,-0.00586 -0.07962,-0.00965c0.00208,0.05604 0.00041,0.11288 -0.00524,0.17025c-0.06758,0.68704 -0.67932,1.1892 -1.36637,1.12162c-0.68704,-0.06758 -1.1892,-0.67932 -1.12162,-1.36637z" stroke="none" stroke-width="0.5"/><path d="M310.67573,205.79841c0.0056,-0.05694 0.01495,-0.11261 0.02776,-0.1668c-0.38152,-0.19485 -0.67808,-0.52416 -0.83367,-0.91977c-0.34045,0.26226 -0.77761,0.40044 -1.23904,0.35505c-0.96186,-0.09462 -1.66489,-0.95105 -1.57027,-1.91292c0.09462,-0.96186 0.95105,-1.66489 1.91292,-1.57027c0.67665,0.06656 1.22521,0.51015 1.45809,1.10223c0.34045,-0.26226 0.77762,-0.40045 1.23906,-0.35506c0.96186,0.09462 1.66489,0.95105 1.57027,1.91292c-0.03304,0.3359 -0.159,0.64024 -0.3499,0.89006c0.19972,0.24648 0.3063,0.56863 0.27279,0.90931c-0.06758,0.68704 -0.67932,1.1892 -1.36637,1.12162c-0.68704,-0.06758 -1.1892,-0.67932 -1.12162,-1.36637z" stroke="none" stroke-width="0.5"/><path d="M320.23721,204.63971c0.06424,0.00632 0.12688,0.0174 0.18756,0.03285c0.21371,-0.81808 0.99601,-1.38254 1.8642,-1.29713c0.56452,0.05554 1.03991,0.3735 1.31718,0.82117c0.67001,0.29821 1.10531,1.00055 1.02958,1.77044c-0.09462,0.96186 -0.95105,1.66489 -1.91292,1.57027c-0.56452,-0.05554 -1.03991,-0.37349 -1.31718,-0.82117c-0.08804,-0.03918 -0.17203,-0.08534 -0.25133,-0.13772c-0.24812,0.37055 -0.687,0.59598 -1.16184,0.54927c-0.06106,-0.00601 -0.12065,-0.01631 -0.17851,-0.03058c-0.23819,0.41064 -0.70104,0.66683 -1.20429,0.61732c-0.44812,-0.04408 -0.8176,-0.31967 -1.00162,-0.69665c-0.23375,0.22535 -0.52889,0.38507 -0.85425,0.45354c-0.19898,0.0953 -0.42574,0.13914 -0.66134,0.11596c-0.41252,-0.04058 -0.75838,-0.27733 -0.95429,-0.60877c-0.34646,-0.35664 -0.53944,-0.85778 -0.48694,-1.39136c0.09462,-0.96186 0.95105,-1.66489 1.91292,-1.57027c0.77628,0.07636 1.38399,0.64895 1.53985,1.3727c0.21908,-0.12755 0.47887,-0.18984 0.75043,-0.16313c0.06106,0.00601 0.12064,0.0163 0.17851,0.03058c0.23819,-0.41064 0.70104,-0.66683 1.2043,-0.61732z" stroke="none" stroke-width="0.5"/><path d="M340.36515,205.75593c0.96186,0.09462 1.66489,0.95105 1.57027,1.91292c-0.09462,0.96186 -0.95105,1.66489 -1.91292,1.57027c-0.16548,-0.01628 -0.3233,-0.05511 -0.47071,-0.11314c-0.1559,0.0282 -0.31827,0.03554 -0.48374,0.01926c-0.96186,-0.09462 -1.66489,-0.95105 -1.57027,-1.91292c0.09462,-0.96186 0.95105,-1.66489 1.91292,-1.57027c0.16548,0.01628 0.3233,0.05511 0.47071,0.11314c0.1559,-0.0282 0.31827,-0.03554 0.48374,-0.01926z" stroke="none" stroke-width="0.5"/><path d="M328.18392,205.9033c0.01654,0.00162 0.03297,0.00358 0.04928,0.00582c0.00137,-0.0231 0.00318,-0.04627 0.00545,-0.06949c0.09462,-0.96186 0.95105,-1.66489 1.91292,-1.57027c0.18827,0.01852 0.36662,0.06623 0.53102,0.1382c0.30522,-0.17577 0.66623,-0.26136 1.04346,-0.22424c0.96186,0.09462 1.66489,0.95105 1.57027,1.91292c-0.09462,0.96186 -0.95105,1.66489 -1.91292,1.57027c-0.18827,-0.01852 -0.36661,-0.06623 -0.53102,-0.1382c-0.30522,0.17577 -0.66623,0.26136 -1.04347,0.22424c-0.20674,-0.02033 -0.40154,-0.07588 -0.57902,-0.16009c-0.19557,0.51424 -0.71691,0.85528 -1.29075,0.79884c-0.41315,-0.04065 -0.75944,-0.27807 -0.95519,-0.61031c-0.23455,0.42247 -0.70431,0.68797 -1.21582,0.63765c-0.68704,-0.06758 -1.1892,-0.67932 -1.12162,-1.36637c0.06758,-0.68704 0.67932,-1.1892 1.36637,-1.12162c0.41315,0.04065 0.75944,0.27807 0.95519,0.61031c0.23455,-0.42247 0.70431,-0.68797 1.21582,-0.63765z" stroke="none" stroke-width="0.5"/><path d="M334.16965,209.43464c0.06758,-0.68704 0.67932,-1.1892 1.36637,-1.12162c0.68704,0.06758 1.1892,0.67932 1.12162,1.36637c-0.06758,0.68704 -0.67932,1.1892 -1.36637,1.12162c-0.68704,-0.06758 -1.1892,-0.67932 -1.12162,-1.36637z" stroke="none" stroke-width="0.5"/><path d="M302.74543,209.47541c0.04055,-0.41223 0.40759,-0.71352 0.81983,-0.67297c0.41223,0.04055 0.71352,0.40759 0.67297,0.81983c-0.04055,0.41223 -0.40759,0.71352 -0.81983,0.67297c-0.41223,-0.04055 -0.71352,-0.40759 -0.67297,-0.81983z" stroke="none" stroke-width="0.5"/><path d="M300.87955,206.40075c0.04055,-0.41223 0.40759,-0.71352 0.81983,-0.67297c0.41223,0.04055 0.71352,0.40759 0.67297,0.81983c-0.04055,0.41223 -0.40759,0.71352 -0.81983,0.67297c-0.41223,-0.04055 -0.71352,-0.40759 -0.67297,-0.81983z" stroke="none" stroke-width="0.5"/><path d="M311.79918,209.28188c0.04055,-0.41223 0.40759,-0.71352 0.81983,-0.67297c0.41223,0.04055 0.71352,0.40759 0.67297,0.81983c-0.04055,0.41223 -0.40759,0.71352 -0.81983,0.67297c-0.41223,-0.04055 -0.71352,-0.40759 -0.67297,-0.81983z" stroke="none" stroke-width="0.5"/><path d="M319.08676,208.67368c0.04055,-0.41223 0.40759,-0.71352 0.81983,-0.67297c0.41223,0.04055 0.71352,0.40759 0.67297,0.81983c-0.0213,0.2166 -0.13275,0.40255 -0.29351,0.52439c0.06459,0.12444 0.09507,0.26839 0.08031,0.41834c-0.04055,0.41223 -0.40759,0.71352 -0.81983,0.67297c-0.41223,-0.04055 -0.71352,-0.40759 -0.67297,-0.81983c0.0213,-0.2166 0.13275,-0.40255 0.29351,-0.52439c-0.06459,-0.12444 -0.09507,-0.26839 -0.08031,-0.41834z" stroke="none" stroke-width="0.5"/><path d="M329.18102,210.14852c0.04055,-0.41223 0.40759,-0.71352 0.81983,-0.67297c0.41223,0.04055 0.71352,0.40759 0.67297,0.81983c-0.04055,0.41223 -0.40759,0.71352 -0.81983,0.67297c-0.41223,-0.04055 -0.71352,-0.40759 -0.67297,-0.81983z" stroke="none" stroke-width="0.5"/><path d="M331.40093,210.84874c0.04055,-0.41223 0.40759,-0.71352 0.81983,-0.67297c0.41223,0.04055 0.71352,0.40759 0.67297,0.81983c-0.04055,0.41223 -0.40759,0.71352 -0.81983,0.67297c-0.41223,-0.04055 -0.71352,-0.40759 -0.67297,-0.81983z" stroke="none" stroke-width="0.5"/></g></g><path d="M348.45189,193.63148c-0.90292,9.1787 -13.84808,15.41807 -28.91379,13.93603c-15.06573,-1.48204 -26.54695,-10.12427 -25.64402,-19.30297c0.90292,-9.1787 13.84808,-15.41807 28.91379,-13.93603c15.06573,1.48204 26.54695,10.12427 25.64402,19.30297z" fill="#4c291f" stroke="none" stroke-width="0"/></g><path d="M315.25178,186.40186v-202.7749h6.70946v202.7749z" fill="url(#color-1)" stroke="none" stroke-width="0" stroke-linecap="butt"/><path d="M214.52362,306.61252v-267.72501h213.18203v267.72501z" fill="none" stroke="none" stroke-width="0" stroke-linecap="butt"/><path d="" fill="none" stroke="#000000" stroke-width="2" stroke-linecap="round"/><g stroke-linecap="butt"><path d="M257.24349,143.7941c0.01126,-32.51752 28.10293,-58.86846 62.74449,-58.85646c17.67116,0.00612 45.02995,17.91219 45.02995,17.91219c0,0 2.85753,7.14594 5.54171,11.25635c2.68419,4.11042 8.78227,10.6786 8.78227,10.6786c0,0 3.3521,12.38532 3.34979,19.05275c-0.01126,32.51752 -28.10293,58.86848 -62.74449,58.85648c-34.64157,-0.01199 -62.71498,-26.38239 -62.70372,-58.89991z" fill="#e0d6c6" stroke="#000000" stroke-width="0"/><path d="M257.24349,143.7941c0.01126,-32.51752 28.10293,-58.86846 62.74449,-58.85646c17.67116,0.00612 45.02995,17.91219 45.02995,17.91219c0,0 2.85753,7.14594 5.54171,11.25635c2.68419,4.11042 8.78227,10.6786 8.78227,10.6786c0,0 3.3521,12.38532 3.34979,19.05275c-0.00289,8.34246 -1.854,16.27902 -5.1898,23.4687c-1.20131,2.58923 -113.72711,2.85092 -114.94865,0.25214c-3.41668,-7.26887 -5.31269,-15.30874 -5.30976,-23.76426z" fill="#c8bfb0" stroke="#000000" stroke-width="0"/><path d="M360.55212,150.67461c-0.00024,0.69036 -0.56007,1.2498 -1.25043,1.24957c-0.49528,-0.00017 -0.92318,-0.28837 -1.12538,-0.70615c-0.27028,0.17072 -0.59054,0.26948 -0.93387,0.26936c-0.53873,-0.00019 -1.02051,-0.24379 -1.3414,-0.62676c-0.26411,0.15976 -0.57387,0.25167 -0.90507,0.25156c-0.9665,-0.00034 -1.74973,-0.7841 -1.74939,-1.7506c0.00034,-0.9665 0.7841,-1.74973 1.7506,-1.74939c0.53873,0.00019 1.02051,0.24379 1.3414,0.62676c0.22264,-0.13468 0.47774,-0.22114 0.75076,-0.24489c0.29916,-0.23844 0.67823,-0.38091 1.09053,-0.38078c0.9665,0.00034 1.74973,0.7841 1.74939,1.7506c-0.00003,0.0748 -0.00474,0.1485 -0.01388,0.22084c0.38022,0.21449 0.63689,0.62224 0.63673,1.08991z" fill="#9d958a" stroke="none" stroke-width="0.5"/><path d="M257.24349,143.7941c0.01126,-32.51752 28.10293,-58.86846 62.74449,-58.85646c17.67116,0.00612 45.02995,17.91219 45.02995,17.91219c0,0 2.85753,7.14594 5.54171,11.25635c2.68419,4.11042 8.78227,10.6786 8.78227,10.6786c0,0 3.3521,12.38532 3.34979,19.05275c-0.00064,1.86423 -0.09359,3.70819 -0.27477,5.52808c-0.08462,0.84992 -124.8565,0.49439 -124.94944,-0.54067c-0.14892,-1.65835 -0.22459,-3.33624 -0.22401,-5.03084z" fill="#9d958a" stroke="#000000" stroke-width="0"/><path d="M261.36148,122.78684c9.0204,-22.13991 31.86966,-37.85846 58.62651,-37.8492c17.67116,0.00612 45.02995,17.91219 45.02995,17.91219c0,0 2.85753,7.14594 5.54171,11.25635c2.68419,4.11042 8.78227,10.6786 8.78227,10.6786c0,0 -119.38381,1.44653 -117.98044,-1.99796z" fill="#8e887d" stroke="#000000" stroke-width="0"/><path d="M361.24333,137.39138c0.5,0.00017 0.49983,0.50017 0.49983,0.50017l-0.0751,1.01182c-0.53099,0.31185 -1.00724,0.73508 -1.3882,1.21887c-2.54325,1.91732 -2.41969,5.24299 -4.49018,7.29443c-1.10364,1.09349 -2.83889,-0.14142 -2.30299,1.9582c0,0 0.12111,0.48511 -0.36401,0.60622c-0.48511,0.12111 -0.60622,-0.36401 -0.60622,-0.36401c-0.7148,-2.9192 1.33761,-1.65455 2.56634,-2.90776c2.03571,-2.07621 1.89143,-5.36157 4.50131,-7.3054c0.33743,-0.41519 0.73287,-0.83843 1.23362,-1.02683l-0.07458,-0.48591c0,0 0.00017,-0.5 0.50017,-0.49983z" fill="#928673" stroke="none" stroke-width="0.5"/><path d="M354.47462,160.31365c-2.61382,-0.04965 -5.86367,-0.96887 -6.29152,-1.19182c-3.56633,-1.85834 -9.15923,-6.72457 -7.65736,-10.33668c1.50188,-3.61211 6.99673,-1.91185 12.34544,0.31208c3.27022,1.35974 6.45938,6.22034 5.95818,9.03998c-0.31855,1.7921 -3.77114,2.18752 -4.35474,2.17643z" fill="#8f8d8b" stroke="none" stroke-width="0"/><path d="M340.27588,149.99541c0.00803,-0.41449 0.08747,-0.8197 0.24987,-1.21025c1.50188,-3.61211 7.31201,-1.59636 12.66072,0.62758c0.17896,0.07441 -12.91521,0.82152 -12.91059,0.58268z" fill="#706e6d" stroke="none" stroke-width="0"/><path d="M352.63098,127.08249c0.00006,-0.17403 0.03567,-0.33973 0.09999,-0.49025c-0.28582,-0.1417 -0.5274,-0.35923 -0.69843,-0.62624c-0.17435,0.783 -0.87329,1.36824 -1.70878,1.36795c-0.9665,-0.00034 -1.74973,-0.7841 -1.74939,-1.7506c0.00034,-0.9665 0.7841,-1.74973 1.7506,-1.74939c0.61922,0.00022 1.16321,0.32201 1.4741,0.8074c0.17435,-0.783 0.87329,-1.36823 1.70879,-1.36794c0.9665,0.00034 1.74973,0.7841 1.74939,1.7506c-0.00016,0.4623 -0.17956,0.88266 -0.47247,1.19541c0.21457,0.22453 0.34632,0.52885 0.3462,0.86393c-0.00024,0.69036 -0.56007,1.2498 -1.25043,1.24957c-0.69036,-0.00024 -1.2498,-0.56007 -1.24957,-1.25043z" fill="#8e887d" stroke="none" stroke-width="0.5"/><path d="M357.12393,127.83291c0.00024,-0.69036 0.56007,-1.2498 1.25043,-1.24957c0.69036,0.00024 1.2498,0.56007 1.24957,1.25043c-0.00024,0.69036 -0.56007,1.2498 -1.25043,1.24957c-0.69036,-0.00024 -1.2498,-0.56007 -1.24957,-1.25043z" fill="#8e887d" stroke="none" stroke-width="0.5"/><path d="M353.56596,130.26552c0.00024,-0.69036 0.56007,-1.2498 1.25043,-1.24957c0.69036,0.00024 1.2498,0.56007 1.24957,1.25043c-0.00024,0.69036 -0.56007,1.2498 -1.25043,1.24957c-0.69036,-0.00024 -1.2498,-0.56007 -1.24957,-1.25043z" fill="#8e887d" stroke="none" stroke-width="0.5"/><path d="M361.24181,130.45539c0.00024,-0.69036 0.56007,-1.2498 1.25043,-1.24957c0.69036,0.00024 1.2498,0.56007 1.24957,1.25043c-0.00024,0.69036 -0.56007,1.2498 -1.25043,1.24957c-0.69036,-0.00024 -1.2498,-0.56007 -1.24957,-1.25043z" fill="#8e887d" stroke="none" stroke-width="0.5"/><path d="M371.85102,131.9568c0.00011,-0.33544 0.22043,-0.61937 0.52421,-0.71516c-0.17202,-0.21424 -0.27492,-0.48635 -0.27481,-0.7825c0.00011,-0.31497 0.1167,-0.60269 0.30904,-0.82244c-0.05943,0.00865 -0.12022,0.01313 -0.18205,0.01311c-0.69036,-0.00024 -1.2498,-0.56007 -1.24957,-1.25043c0.00003,-0.09618 0.01094,-0.18983 0.03154,-0.27978c-0.26731,-0.06185 -0.50178,-0.20943 -0.67288,-0.41221c-0.05523,0.00524 -0.11121,0.00791 -0.16782,0.00789c-0.47024,-0.00017 -0.89709,-0.18578 -1.21142,-0.48767c-0.22494,0.33117 -0.60469,0.54869 -1.0352,0.54855c-0.58323,-0.0002 -1.07302,-0.3998 -1.21085,-0.94008c-0.20397,0.08319 -0.42717,0.129 -0.66105,0.12891c-0.63502,-0.00022 -1.19092,-0.33864 -1.49745,-0.84488c-0.30687,0.50603 -0.86301,0.84406 -1.49804,0.84384c-0.4395,-0.00015 -0.8411,-0.1623 -1.14837,-0.42997c-0.31153,0.48357 -0.85482,0.80372 -1.47281,0.8035c-0.81473,-0.00028 -1.49922,-0.55727 -1.69391,-1.31112c-0.06525,-0.00038 -0.12966,-0.00431 -0.19303,-0.01162c-0.32025,0.35205 -0.78209,0.57297 -1.29549,0.57279c-0.9665,-0.00034 -1.74973,-0.7841 -1.74939,-1.7506c0.00034,-0.9665 0.7841,-1.74973 1.7506,-1.74939c0.06847,0.00002 0.13603,0.00397 0.20245,0.01165c0.32025,-0.35204 0.78209,-0.57296 1.29549,-0.57278c0.81473,0.00028 1.49922,0.55727 1.69392,1.31112c0.43582,0.00246 0.83389,0.16419 1.13895,0.42994c0.31153,-0.48357 0.85482,-0.80372 1.47281,-0.8035c0.63502,0.00022 1.19092,0.33865 1.49745,0.84488c0.28175,-0.46459 0.77361,-0.78758 1.34372,-0.83718c0.29916,-0.23845 0.67823,-0.3809 1.09053,-0.38077c0.52299,0.00018 0.99233,0.22977 1.31288,0.59357c0.30368,-0.2533 0.6945,-0.40566 1.12088,-0.40551c0.77101,0.00027 1.42539,0.4991 1.65838,1.19153c0.23386,0.14273 0.43158,0.3388 0.5763,0.57129c0.17166,-0.08861 0.36649,-0.13863 0.573,-0.13855c0.57914,0.0002 1.06616,0.39422 1.2079,0.92874c0.22451,-0.33399 0.60591,-0.55367 1.03858,-0.55352c0.43809,0.00015 0.82345,0.22566 1.04654,0.56685c0.63851,0.05622 1.13915,0.59248 1.13892,1.24555c-0.00024,0.69036 -0.56007,1.2498 -1.25043,1.24957c-0.43809,-0.00015 -0.82345,-0.22565 -1.04654,-0.56684c-0.52977,-0.04665 -0.96463,-0.42376 -1.09725,-0.92387c-0.12231,0.18194 -0.29118,0.32998 -0.48955,0.42702c0.41507,0.20342 0.70079,0.63015 0.70062,1.12355c-0.00011,0.31497 -0.1167,0.60269 -0.30904,0.82244c0.05943,-0.00865 0.12022,-0.01312 0.18205,-0.0131c0.69036,0.00024 1.2498,0.56007 1.24957,1.25043c-0.00024,0.69036 -0.56007,1.2498 -1.25043,1.24957c-0.01371,-0.00001 -0.02738,-0.00022 -0.04098,-0.00066c0.02725,0.07775 0.04206,0.16135 0.04202,0.2484c-0.00014,0.41422 -0.33604,0.74988 -0.75026,0.74974c-0.41422,-0.00014 -0.74988,-0.33604 -0.74974,-0.75026z" fill="#8e887d" stroke="none" stroke-width="0.5"/><path d="M378.78111,126.40321c0.69036,0.00024 1.2498,0.56007 1.24957,1.25043c-0.00022,0.63885 -0.47966,1.1656 -1.09827,1.24045c-0.2275,0.23639 -0.54718,0.38342 -0.90116,0.38329c-0.69036,-0.00024 -1.2498,-0.56007 -1.24957,-1.25043c0.00022,-0.63885 0.47965,-1.1656 1.09826,-1.24046c0.2275,-0.23639 0.54719,-0.38341 0.90117,-0.38328z" fill="#8e887d" stroke="none" stroke-width="0.5"/><path d="M349.75777,136.62958c0.00014,-0.41422 0.33604,-0.74988 0.75026,-0.74974c0.41422,0.00014 0.74988,0.33604 0.74974,0.75026c-0.00014,0.41422 -0.33604,0.74988 -0.75026,0.74974c-0.41422,-0.00014 -0.74988,-0.33604 -0.74974,-0.75026z" fill="#8e887d" stroke="none" stroke-width="0.5"/><path d="M355.18861,132.13825c0.00014,-0.41422 0.33604,-0.74988 0.75026,-0.74974c0.41422,0.00014 0.74988,0.33604 0.74974,0.75026c-0.00014,0.41422 -0.33604,0.74988 -0.75026,0.74974c-0.41422,-0.00014 -0.74988,-0.33604 -0.74974,-0.75026z" fill="#8e887d" stroke="none" stroke-width="0.5"/><path d="M360.43012,133.82501c0.00014,-0.41422 0.33604,-0.74988 0.75026,-0.74974c0.41422,0.00014 0.74988,0.33604 0.74974,0.75026c-0.00014,0.41422 -0.33604,0.74988 -0.75026,0.74974c-0.41422,-0.00014 -0.74988,-0.33604 -0.74974,-0.75026z" fill="#8e887d" stroke="none" stroke-width="0.5"/><path d="M368.48092,132.51729c0.00014,-0.41422 0.33604,-0.74988 0.75026,-0.74974c0.41422,0.00014 0.74988,0.33604 0.74974,0.75026c-0.00014,0.41422 -0.33604,0.74988 -0.75026,0.74974c-0.41422,-0.00014 -0.74988,-0.33604 -0.74974,-0.75026z" fill="#8e887d" stroke="none" stroke-width="0.5"/><path d="M374.84467,137.19992c0.00014,-0.41422 0.33604,-0.74988 0.75026,-0.74974c0.41422,0.00014 0.74988,0.33604 0.74974,0.75026c-0.00014,0.41422 -0.33604,0.74988 -0.75026,0.74974c-0.41422,-0.00014 -0.74988,-0.33604 -0.74974,-0.75026z" fill="#8e887d" stroke="none" stroke-width="0.5"/><path d="M379.38588,124.98286c-0.27566,0.33892 -0.5056,0.51985 -1.15548,0.75169c-5.06404,1.80661 -9.75943,-3.86643 -13.382,-9.51189c-3.62259,-5.64547 -6.28666,-11.44148 -1.22261,-13.2481c0.49802,-0.17766 0.65223,-0.18175 1.10674,-0.23159c0.56838,-0.06231 3.02184,6.39468 6.76889,12.19187c3.36112,5.20011 8.09777,9.78579 7.88448,10.04802z" fill="#5e5d5b" stroke="none" stroke-width="0"/><path d="M370.96951,152.36317c0.00002,-0.04164 0.00206,-0.08281 0.00605,-0.12341c-0.02207,0.00081 -0.04425,0.00123 -0.06653,0.00121c-0.9665,-0.00034 -1.74973,-0.7841 -1.74939,-1.7506c0.00034,-0.9665 0.7841,-1.74973 1.7506,-1.74939c0.37718,0.00013 0.72645,0.11958 1.01213,0.32263c0.31655,-0.31478 0.75284,-0.50924 1.23453,-0.50907c0.43048,0.00015 0.82462,0.15572 1.12935,0.41363c0.11874,-0.02539 0.24194,-0.03873 0.36827,-0.03869c0.57493,0.00019 1.08502,0.27762 1.40389,0.70584c0.31916,-0.42799 0.82944,-0.70506 1.40437,-0.70487c0.34785,0.00012 0.67197,0.10172 0.94437,0.27681c0.13191,-0.04388 0.27077,-0.07248 0.41453,-0.08369c0.25085,-0.65972 0.8892,-1.12842 1.63691,-1.12817c0.81876,0.00029 1.50601,0.56281 1.69677,1.32235c0.52619,0.05989 0.18294,3.48881 -0.2007,3.48868c-0.67606,-0.00024 -1.26246,-0.3838 -1.55371,-0.94511c-0.31582,0.45741 -0.8438,0.75706 -1.44169,0.75685c-0.34785,-0.00012 -0.67197,-0.10172 -0.94437,-0.27681c-0.17392,0.05785 -0.35995,0.08914 -0.55331,0.08908c-0.57493,-0.00019 -1.08502,-0.27762 -1.40389,-0.70583c-0.31916,0.42799 -0.82944,0.70505 -1.40437,0.70486c-0.12852,-0.00005 -0.25379,-0.01393 -0.37443,-0.04027c-0.12064,0.02625 -0.24593,0.04005 -0.37445,0.04001c-0.15017,-0.00005 -0.29592,-0.01902 -0.43498,-0.05465c-0.00591,0.6855 -0.56355,1.23924 -1.25038,1.239c-0.69036,-0.00024 -1.2498,-0.56007 -1.24957,-1.25043z" fill="#9d958a" stroke="none" stroke-width="0.5"/><path d="M367.72771,148.30379c0.69036,0.00024 1.2498,0.56007 1.24957,1.25043c-0.00015,0.44009 -0.22771,0.82696 -0.57153,1.04958c-0.09968,0.23785 -0.25037,0.44899 -0.43838,0.61979c0.00763,0.06643 0.01153,0.13398 0.01151,0.20245c-0.00001,0.02079 -0.00037,0.04151 -0.0011,0.06213c0.66062,0.03353 1.18584,0.5799 1.18561,1.2488c-0.00024,0.69036 -0.56007,1.2498 -1.25043,1.24957c-0.56162,-0.00019 -1.03661,-0.37074 -1.19409,-0.88063c-0.15567,0.04531 -0.32029,0.06958 -0.49058,0.06952c-0.94511,-0.00033 -1.71496,-0.7498 -1.74826,-1.6867c-0.08317,-0.00301 -0.16485,-0.01184 -0.24468,-0.02605c-0.28826,0.57125 -0.8804,0.9629 -1.56391,0.96266c-0.9665,-0.00034 -1.74973,-0.7841 -1.74939,-1.7506c0.00034,-0.9665 0.7841,-1.74973 1.7506,-1.74939c0.1053,0.00004 0.20841,0.00938 0.30858,0.02723c0.28826,-0.57125 0.8804,-0.96291 1.56391,-0.96267c0.38489,0.00014 0.74073,0.12452 1.02958,0.33521c0.289,-0.21049 0.64492,-0.33462 1.02982,-0.3345c0.37462,0.00013 0.72172,0.11797 1.00632,0.31852c0.03848,-0.00356 0.07748,-0.00536 0.11688,-0.00535z" fill="#9d958a" stroke="none" stroke-width="0.5"/><path d="M360.48483,153.85729c0.00024,-0.69036 0.56007,-1.2498 1.25043,-1.24957c0.69036,0.00024 1.2498,0.56007 1.24957,1.25043c-0.00024,0.69036 -0.56007,1.2498 -1.25043,1.24957c-0.69036,-0.00024 -1.2498,-0.56007 -1.24957,-1.25043z" fill="#9d958a" stroke="none" stroke-width="0.5"/><path d="M376.95975,154.42464c0.00024,-0.69036 0.56007,-1.2498 1.25043,-1.24957c0.69036,0.00024 1.2498,0.56007 1.24957,1.25043c-0.00024,0.69036 -0.56007,1.2498 -1.25043,1.24957c-0.69036,-0.00024 -1.2498,-0.56007 -1.24957,-1.25043z" fill="#9d958a" stroke="none" stroke-width="0.5"/><path d="M362.10599,160.03601c0.00014,-0.41422 0.33604,-0.74988 0.75026,-0.74974c0.41422,0.00014 0.74988,0.33604 0.74974,0.75026c-0.00014,0.41422 -0.33604,0.74988 -0.75026,0.74974c-0.41422,-0.00014 -0.74988,-0.33604 -0.74974,-0.75026z" fill="#9d958a" stroke="none" stroke-width="0.5"/><path d="M363.23041,156.85371c0.00014,-0.41422 0.33604,-0.74988 0.75026,-0.74974c0.41422,0.00014 0.74988,0.33604 0.74974,0.75026c-0.00014,0.41422 -0.33604,0.74988 -0.75026,0.74974c-0.41422,-0.00014 -0.74988,-0.33604 -0.74974,-0.75026z" fill="#9d958a" stroke="none" stroke-width="0.5"/><path d="M369.22149,156.48134c0.00014,-0.41422 0.33604,-0.74988 0.75026,-0.74974c0.41422,0.00014 0.74988,0.33604 0.74974,0.75026c-0.00014,0.41422 -0.33604,0.74988 -0.75026,0.74974c-0.41422,-0.00014 -0.74988,-0.33604 -0.74974,-0.75026z" fill="#9d958a" stroke="none" stroke-width="0.5"/><path d="M378.39473,157.60782c0.00014,-0.41422 0.33604,-0.74988 0.75026,-0.74974c0.41422,0.00014 0.74988,0.33604 0.74974,0.75026c-0.00014,0.41422 -0.33604,0.74988 -0.75026,0.74974c-0.41422,-0.00014 -0.74988,-0.33604 -0.74974,-0.75026z" fill="#9d958a" stroke="none" stroke-width="0.5"/><path d="M363.83608,171.71435c0.00015,-0.44461 0.23242,-0.83493 0.58216,-1.0564c-0.05528,-0.01764 -0.10938,-0.03796 -0.16213,-0.06079c-0.30932,0.49479 -0.85906,0.82383 -1.48557,0.82361c-0.16977,-0.00006 -0.33389,-0.02429 -0.48909,-0.06944c-0.20048,0.74592 -0.88158,1.29489 -1.69077,1.2946c-0.78002,-0.00027 -1.44069,-0.51084 -1.6664,-1.21591c-0.26763,0.1659 -0.58331,0.26163 -0.92134,0.26151c-0.91821,-0.00031 -1.67101,-0.70775 -1.74365,-1.60718c-0.23142,0.6959 -0.88796,1.19764 -1.66156,1.19736c-0.48058,-0.00016 -0.91585,-0.19404 -1.23201,-0.50775c-0.31424,0.38435 -0.78871,0.63257 -1.32141,0.64274c-0.3042,0.25516 -0.69645,0.40873 -1.12455,0.40859c-0.63325,-0.00022 -1.18782,-0.33676 -1.49487,-0.84066c-0.10768,0.58105 -0.61725,1.021 -1.22947,1.02078c-0.69036,-0.00024 -1.2498,-0.56007 -1.24957,-1.25043c0.00024,-0.69036 0.56007,-1.2498 1.25043,-1.24957c0.39542,0.00014 0.74791,0.18387 0.97685,0.47055c0.0071,-0.12706 0.02776,-0.2505 0.06057,-0.3689c-0.21095,-0.28918 -0.33538,-0.64548 -0.33525,-1.03085c0.00031,-0.89497 0.67239,-1.6328 1.53928,-1.73684c0.17202,-0.78612 0.87246,-1.37446 1.71015,-1.37418c0.9665,0.00034 1.74973,0.7841 1.74939,1.7506c-0.0001,0.29499 -0.07319,0.5729 -0.20217,0.81668c0.26385,-0.1593 0.57314,-0.25091 0.90383,-0.2508c0.91821,0.00031 1.67101,0.70775 1.74365,1.60718c0.23142,-0.6959 0.88796,-1.19764 1.66156,-1.19736c0.17965,0.00006 0.35297,0.02719 0.51611,0.07754c0.29987,-0.53379 0.87156,-0.89434 1.52738,-0.89411c0.37512,0.00013 0.72263,0.11828 1.00743,0.31932c0.15905,-0.80305 0.86752,-1.40838 1.71722,-1.40809c0.71767,0.00025 1.33429,0.43246 1.60408,1.05071c0.18011,-0.06256 0.37359,-0.09652 0.57502,-0.09645c0.41159,0.00014 0.78994,0.14236 1.0887,0.38028c0.32092,-0.39772 0.81241,-0.65205 1.36324,-0.65186c0.6796,0.00023 1.26859,0.38783 1.55826,0.95393c0.26117,0.07202 0.48807,0.22667 0.65082,0.43406c-0.00617,-0.05985 -0.00932,-0.1206 -0.00929,-0.18208c0.00034,-0.9665 0.7841,-1.74973 1.7506,-1.74939c0.24158,0.00009 0.47171,0.04911 0.68103,0.13771c0.36102,0.15282 0.66009,0.42335 0.8491,0.76347c0.29427,0.1638 0.53636,0.41002 0.69508,0.70744c0.02302,-0.06544 0.05134,-0.12839 0.08444,-0.18832c-0.15622,-0.26202 -0.24592,-0.56828 -0.24581,-0.8955c0.00034,-0.9665 0.7841,-1.74973 1.7506,-1.74939c0.9665,0.00034 1.74973,0.7841 1.74939,1.7506c-0.00023,0.66175 -0.36774,1.23759 -0.9097,1.53483c-0.01969,0.67334 -0.57184,1.21301 -1.24989,1.21278c-0.41251,-0.00014 -0.77828,-0.20009 -1.00582,-0.50829c-0.02486,0.12865 -0.06382,0.25229 -0.1152,0.36923c0.35988,0.21956 0.60008,0.6159 0.59992,1.0683c-0.00024,0.69036 -0.56007,1.2498 -1.25043,1.24957c-0.69036,-0.00024 -1.2498,-0.56007 -1.24957,-1.25043c0.00001,-0.01528 0.00028,-0.03051 0.00084,-0.04566c-0.53169,-0.09066 -0.98157,-0.42116 -1.23444,-0.8762c-0.25371,-0.14122 -0.46862,-0.3437 -0.62476,-0.58744c0.00003,0.00343 0.00004,0.00686 0.00003,0.0103c-0.00024,0.69036 -0.56007,1.2498 -1.25043,1.24957c-0.16129,-0.00005 -0.31544,-0.03066 -0.45698,-0.08634c-0.23213,0.11362 -0.49311,0.17736 -0.76898,0.17727c-0.41159,-0.00014 -0.78994,-0.14236 -1.0887,-0.38028c-0.17686,0.21919 -0.40554,0.39483 -0.66741,0.50831c0.40934,0.20544 0.69022,0.62911 0.69005,1.1183c-0.00024,0.69036 -0.56007,1.2498 -1.25043,1.24957c-0.69036,-0.00024 -1.2498,-0.56007 -1.24957,-1.25043z" fill="#c8bfb0" stroke="none" stroke-width="0.5"/><path d="M343.70048,171.73145c-0.25148,-0.00009 -0.48558,-0.07442 -0.6816,-0.2023c-0.08859,0.01378 -0.17938,0.02093 -0.27183,0.0209c-0.44395,-0.00015 -0.84924,-0.16561 -1.15766,-0.43815c-0.30862,0.27232 -0.71402,0.4375 -1.15797,0.43734c-0.9665,-0.00034 -1.74973,-0.7841 -1.74939,-1.7506c0.00034,-0.9665 0.7841,-1.74973 1.7506,-1.74939c0.15523,0.00006 0.30573,0.02032 0.44902,0.0583c0.32098,-0.36931 0.79423,-0.60272 1.32195,-0.60255c0.028,0.00001 0.05585,0.00068 0.08354,0.00199c0.03381,-0.00195 0.05268,-0.00195 0.05268,-0.00195c0.59026,0.0002 1.18052,0.00041 1.77078,0.00061l0.32117,0.04124c0.23203,-0.1135 0.49287,-0.17718 0.76859,-0.17708c0.9665,0.00034 1.74973,0.7841 1.74939,1.7506c-0.00011,0.31623 -0.08409,0.61285 -0.2309,0.86881c-0.41513,1.34844 -1.90349,1.13529 -1.90349,1.13529l-0.03846,-0.00648c-0.21781,0.36734 -0.61838,0.61355 -1.0764,0.61339z" fill="#c8bfb0" stroke="none" stroke-width="0.5"/><path d="M340.951,174.97555c0.00024,-0.69036 0.56007,-1.2498 1.25043,-1.24957c0.69036,0.00024 1.2498,0.56007 1.24957,1.25043c-0.00024,0.69036 -0.56007,1.2498 -1.25043,1.24957c-0.69036,-0.00024 -1.2498,-0.56007 -1.24957,-1.25043z" fill="#c8bfb0" stroke="none" stroke-width="0.5"/><path d="M350.48607,174.70643c0.00024,-0.69036 0.56007,-1.2498 1.25043,-1.24957c0.69036,0.00024 1.2498,0.56007 1.24957,1.25043c-0.00024,0.69036 -0.56007,1.2498 -1.25043,1.24957c-0.69036,-0.00024 -1.2498,-0.56007 -1.24957,-1.25043z" fill="#c8bfb0" stroke="none" stroke-width="0.5"/><path d="M356.34373,173.34631c0.00024,-0.69036 0.56007,-1.2498 1.25043,-1.24957c0.69036,0.00024 1.2498,0.56007 1.24957,1.25043c-0.00024,0.69036 -0.56007,1.2498 -1.25043,1.24957c-0.69036,-0.00024 -1.2498,-0.56007 -1.24957,-1.25043z" fill="#c8bfb0" stroke="none" stroke-width="0.5"/><path d="M345.53539,180.83434c0.00014,-0.41421 0.33605,-0.74988 0.75026,-0.74974c0.41421,0.00014 0.74988,0.33605 0.74974,0.75026c-0.00014,0.41421 -0.33605,0.74988 -0.75026,0.74974c-0.41421,-0.00014 -0.74988,-0.33605 -0.74974,-0.75026z" fill="#c8bfb0" stroke="none" stroke-width="0.5"/><path d="M347.17246,173.61557c0.00014,-0.41421 0.33605,-0.74988 0.75026,-0.74974c0.41421,0.00014 0.74988,0.33605 0.74974,0.75026c-0.00014,0.41421 -0.33605,0.74988 -0.75026,0.74974c-0.41421,-0.00014 -0.74988,-0.33605 -0.74974,-0.75026z" fill="#c8bfb0" stroke="none" stroke-width="0.5"/><path d="M350.03157,177.56676c0.00014,-0.41421 0.33605,-0.74988 0.75026,-0.74974c0.41421,0.00014 0.74988,0.33605 0.74974,0.75026c-0.00014,0.41421 -0.33605,0.74988 -0.75026,0.74974c-0.41421,-0.00014 -0.74988,-0.33605 -0.74974,-0.75026z" fill="#c8bfb0" stroke="none" stroke-width="0.5"/><path d="M351.66586,178.38461c0.00014,-0.41421 0.33605,-0.74988 0.75026,-0.74974c0.41421,0.00014 0.74988,0.33605 0.74974,0.75026c-0.00014,0.41421 -0.33605,0.74988 -0.75026,0.74974c-0.41421,-0.00014 -0.74988,-0.33605 -0.74974,-0.75026z" fill="#c8bfb0" stroke="none" stroke-width="0.5"/><path d="M355.47834,182.74478c0.00014,-0.41421 0.33605,-0.74988 0.75026,-0.74974c0.41421,0.00014 0.74988,0.33605 0.74974,0.75026c-0.00014,0.41421 -0.33605,0.74988 -0.75026,0.74974c-0.41421,-0.00014 -0.74988,-0.33605 -0.74974,-0.75026z" fill="#c8bfb0" stroke="none" stroke-width="0.5"/><path d="M356.84242,177.16048c0.00014,-0.41421 0.33605,-0.74988 0.75026,-0.74974c0.41421,0.00014 0.74988,0.33605 0.74974,0.75026c-0.00014,0.41421 -0.33605,0.74988 -0.75026,0.74974c-0.41421,-0.00014 -0.74988,-0.33605 -0.74974,-0.75026z" fill="#c8bfb0" stroke="none" stroke-width="0.5"/><path d="M365.96927,175.66529c0.00014,-0.41421 0.33605,-0.74988 0.75026,-0.74974c0.41421,0.00014 0.74988,0.33605 0.74974,0.75026c-0.00014,0.41421 -0.33605,0.74988 -0.75026,0.74974c-0.41421,-0.00014 -0.74988,-0.33605 -0.74974,-0.75026z" fill="#c8bfb0" stroke="none" stroke-width="0.5"/><path d="M368.28496,175.52987c0.00014,-0.41421 0.33605,-0.74988 0.75026,-0.74974c0.41421,0.00014 0.74988,0.33605 0.74974,0.75026c-0.00014,0.41421 -0.33605,0.74988 -0.75026,0.74974c-0.41421,-0.00014 -0.74988,-0.33605 -0.74974,-0.75026z" fill="#c8bfb0" stroke="none" stroke-width="0.5"/><path d="M351.2081,174.36615c-0.15794,-0.4744 0.31645,-0.63235 0.31645,-0.63235l0.41631,-0.11009c0.4093,-0.63423 -0.00537,-1.48659 -0.00852,-2.2237c0.07342,-1.41669 -2.00363,-3.33445 -2.24004,-4.98629c-0.12305,-0.85976 -0.00422,-1.85756 0.79477,-2.36657c0.41461,-0.26414 1.44048,-0.07136 1.45107,-0.75204c0.02244,-1.44222 -0.84945,-2.49045 -0.35037,-4.03524c0,0 0.15827,-0.47429 0.63257,-0.31602c0.47429,0.15827 0.31602,0.63257 0.31602,0.63257c-0.48625,1.39811 0.62713,2.53765 0.39578,3.82815c-0.34618,1.93111 -2.56361,0.72149 -2.24944,2.87079c0.27301,1.86778 2.19707,3.37294 2.24966,5.125c-0.0076,1.31149 0.41276,1.83754 -0.38476,3.01826l-0.70712,0.26396c0,0 -0.4744,0.15794 -0.63235,-0.31645z" fill="#928673" stroke="none" stroke-width="0.5"/><path d="M365.63293,184.48088c-0.15827,0.47429 -0.63257,0.31602 -0.63257,0.31602l-0.66632,-0.23646c-0.94692,-1.00594 -0.49026,-3.91618 0.43625,-5.04404c0.35079,-0.42704 1.51497,-0.7318 1.82179,-1.23296c0.73959,-1.20803 1.08514,-4.19559 1.45547,-5.68857c0.40578,-1.62073 1.64293,-2.78497 2.05933,-4.29889c0.38498,-1.39971 0.35243,-3.24316 0.96236,-4.56935c0.49082,-1.06721 1.97527,-0.92087 2.73001,-1.65901c0.81675,-0.79878 1.15161,-3.00898 1.5601,-4.09253c0.36777,-1.69564 0.1613,-3.55694 0.16886,-5.28862c0.00252,-0.57574 -0.4066,-1.57789 -0.12732,-2.10814c1.22742,-2.33058 4.69635,-2.09496 6.53003,-3.36053c0,0 0.41613,-0.2772 0.69333,0.13892c0.2772,0.41613 -0.13892,0.69333 -0.13892,0.69333c-1.93566,1.25536 -4.61171,1.06258 -6.20294,3.00045c-0.35002,0.42627 0.24398,1.08476 0.24582,1.63632c0.00609,1.83658 0.17465,3.77129 -0.20933,5.56986c-0.48435,1.29538 -0.83743,3.53065 -1.81278,4.51829c-0.45182,0.45752 -2.36184,0.78691 -2.51311,1.33466c-0.38174,1.38228 -0.50574,3.03191 -0.91293,4.41643c-0.45884,1.56012 -1.65208,2.67271 -2.06244,4.31168c-0.4092,1.62084 -0.72775,4.54486 -1.54402,5.91786c-0.38269,0.6437 -1.49903,0.88912 -1.92347,1.38679c-0.37711,0.44217 -1.10351,3.23736 -0.69005,3.56757l0.45686,0.13836c0,0 0.47429,0.15827 0.31602,0.63257z" fill="#928673" stroke="none" stroke-width="0.5"/><g><g><path d="M255.33248,143.78976c0.01153,-33.30185 28.78077,-60.28837 64.25789,-60.27608c0.6942,0.00024 6.39416,0.06627 11.40483,-0.95612c4.13187,-0.84309 7.79517,-2.8094 7.79517,-2.8094c0,0 -0.42457,3.55883 1.59398,6.94668c1.38073,2.31736 5.67753,6.76687 5.67753,6.76687c0,0 -1.48581,6.66505 -0.37208,11.39884c0.63268,2.68913 4.54344,8.66455 4.54344,8.66455c0,0 -3.69223,4.94076 -3.27972,7.45313c0.7232,4.40451 4.16806,11.93236 4.16806,11.93236c0,0 -8.51956,4.34426 -8.75876,7.91852c-0.63317,9.4612 5.77005,17.3102 5.77005,17.3102c0,0 -9.82603,8.79813 -10.81932,13.83437c-1.51405,7.67673 7.31568,16.1164 7.31568,16.1164c0,0 -5.7439,5.31666 -5.47578,7.68909c1.11762,9.88921 7.71607,15.95364 7.71607,15.95364c0,0 -25.22263,-7.62175 -27.62017,-7.62258c-35.47712,-0.01228 -63.92839,-27.01862 -63.91686,-60.32047z" fill="#e00d0d" stroke="#000000" stroke-width="0"/><g fill="#c10c0c"><path d="M255.33248,143.78976c0.01153,-33.30185 28.78077,-60.28837 64.25789,-60.27608c0.6942,0.00024 6.39416,0.06627 11.40483,-0.95612c4.13187,-0.84309 7.79517,-2.8094 7.79517,-2.8094c0,0 -0.42457,3.55883 1.59398,6.94668c1.38073,2.31736 5.67753,6.76687 5.67753,6.76687c0,0 -1.48581,6.66505 -0.37208,11.39884c0.63268,2.68913 4.54344,8.66455 4.54344,8.66455c0,0 -3.69223,4.94076 -3.27972,7.45313c0.7232,4.40451 4.16806,11.93236 4.16806,11.93236c0,0 -8.51956,4.34426 -8.75876,7.91852c-0.63317,9.4612 5.77005,17.3102 5.77005,17.3102c0,0 -6.53154,5.84827 -9.48257,10.73797c-0.04902,0.08121 -78.44577,-1.88824 -78.45573,-1.91091c-3.13709,-7.13584 -4.86492,-14.96483 -4.86208,-23.1766z" stroke="#000000" stroke-width="0"/><path d="M263.76578,167.29507c0.00005,-0.14675 0.01816,-0.28928 0.05224,-0.42549c-0.26521,0.62951 -0.88808,1.07135 -1.61404,1.07109c-0.9665,-0.00034 -1.74973,-0.7841 -1.74939,-1.7506c0.00034,-0.9665 0.7841,-1.74973 1.7506,-1.74939c0.9665,0.00034 1.74973,0.7841 1.74939,1.7506c-0.00005,0.14675 -0.01816,0.28928 -0.05224,0.42549c0.26521,-0.62951 0.88808,-1.07135 1.61404,-1.07109c0.5841,0.0002 1.10127,0.28655 1.41899,0.72644c0.31803,-0.43967 0.83539,-0.72566 1.4195,-0.72545c0.9665,0.00034 1.74973,0.7841 1.74939,1.7506c-0.00034,0.9665 -0.7841,1.74973 -1.7506,1.74939c-0.5841,-0.0002 -1.10127,-0.28655 -1.41899,-0.72644c-0.31803,0.43967 -0.83539,0.72566 -1.4195,0.72545c-0.9665,-0.00034 -1.74973,-0.7841 -1.74939,-1.7506z" stroke="none" stroke-width="0.5"/><path d="M270.7575,169.18981c0.00007,-0.19712 0.07618,-0.37646 0.20059,-0.51028c-0.16123,-0.26496 -0.25404,-0.57615 -0.25392,-0.90899c0.00025,-0.71488 0.42911,-1.32949 1.04349,-1.60091c0.32114,-0.38016 0.80144,-0.62152 1.33805,-0.62133c0.9665,0.00034 1.74973,0.7841 1.74939,1.7506c-0.00022,0.63256 -0.33603,1.18663 -0.83902,1.49388c0.01513,0.07782 0.02306,0.15821 0.02303,0.24048c-0.00024,0.69036 -0.56007,1.2498 -1.25043,1.24957c-0.37084,-0.00013 -0.70391,-0.16173 -0.93273,-0.41829c-0.09927,0.04843 -0.21081,0.07559 -0.32871,0.07555c-0.41421,-0.00014 -0.74988,-0.33605 -0.74974,-0.75026z" stroke="none" stroke-width="0.5"/><path d="M289.9465,168.25029c-0.00024,0.69036 -0.56007,1.2498 -1.25043,1.24957c-0.07696,-0.00003 -0.15228,-0.007 -0.22541,-0.02035c-0.03248,0.00769 -0.06531,0.01448 -0.09845,0.02032c-0.28641,0.57654 -0.8814,0.97268 -1.5688,0.97244c-0.3034,-0.0001 -0.58873,-0.07741 -0.83745,-0.21334c-0.08584,0.0186 -0.17495,0.02838 -0.26635,0.02835c-0.69036,-0.00024 -1.2498,-0.56007 -1.24957,-1.25043c0.00006,-0.16755 0.03307,-0.32738 0.09293,-0.47337c-0.06553,-0.10188 -0.12075,-0.211 -0.16425,-0.32589c-0.17135,-0.27062 -0.27049,-0.59147 -0.27038,-0.93548c0.00034,-0.9665 0.7841,-1.74973 1.7506,-1.74939c0.56293,0.00019 1.06369,0.26615 1.38366,0.67921c0.24555,-0.13115 0.52605,-0.20547 0.8239,-0.20537c0.9368,0.00032 1.70142,0.73668 1.74723,1.66205c0.08501,0.16889 0.13286,0.35971 0.13279,0.56168z" stroke="none" stroke-width="0.5"/><path d="M334.25458,168.73871c0.00021,-0.60416 0.30655,-1.13671 0.77231,-1.45103c0.31463,-0.46553 0.84739,-0.77151 1.45156,-0.77129c0.9665,0.00034 1.74973,0.7841 1.74939,1.7506c-0.00021,0.60416 -0.30655,1.13671 -0.77231,1.45103c-0.31463,0.46553 -0.84739,0.77151 -1.45156,0.77129c-0.9665,-0.00034 -1.74973,-0.7841 -1.74939,-1.7506z" stroke="none" stroke-width="0.5"/><path d="M275.90811,167.61466c0.00034,-0.9665 0.7841,-1.74973 1.7506,-1.74939c0.9665,0.00034 1.74973,0.7841 1.74939,1.7506c-0.00034,0.9665 -0.7841,1.74973 -1.7506,1.74939c-0.9665,-0.00034 -1.74973,-0.7841 -1.74939,-1.7506z" stroke="none" stroke-width="0.5"/><path d="M304.29611,169.8322c-0.00024,0.69036 -0.56007,1.2498 -1.25043,1.24957c-0.46682,-0.00016 -0.87378,-0.2562 -1.08831,-0.63544c-0.10709,0.02044 -0.21766,0.03114 -0.33073,0.0311c-0.05059,-0.00002 -0.10067,-0.00219 -0.15017,-0.0064c-0.08424,0.88827 -0.83244,1.583 -1.74271,1.58268c-0.39897,-0.00013 -0.7667,-0.13377 -1.06099,-0.35865c-0.06527,0.0105 -0.13222,0.01593 -0.20044,0.01591c-0.48664,-0.00017 -0.90823,-0.27841 -1.11459,-0.6844c-0.13408,0.18128 -0.30233,0.33575 -0.49524,0.4539c-0.10879,0.57967 -0.61771,1.0182 -1.22895,1.018c-0.69036,-0.00024 -1.2498,-0.56007 -1.24957,-1.25043c0.00004,-0.13025 0.02001,-0.25584 0.05702,-0.3739c-0.05002,-0.08489 -0.09309,-0.17438 -0.1284,-0.26767c-0.17135,-0.27062 -0.27049,-0.59147 -0.27038,-0.93548c0.00002,-0.0542 0.00249,-0.10782 0.00735,-0.16077l-0.65635,0.08316c0.01447,0.07614 0.02201,0.15473 0.02199,0.23508c-0.00024,0.69036 -0.56007,1.2498 -1.25043,1.24957c-0.69036,-0.00024 -1.2498,-0.56007 -1.24957,-1.25043c0.00004,-0.11519 0.01566,-0.22674 0.04487,-0.33266c-0.42634,-0.3193 -0.70217,-0.82858 -0.70197,-1.40221c0.00034,-0.9665 0.7841,-1.74973 1.7506,-1.74939c0.58504,0.0002 1.10292,0.28746 1.42052,0.72854l0.5516,-0.06776c0.44641,-0.00065 0.89282,-0.0013 1.33923,-0.00195c0,0 1.14614,0.0004 1.24305,1.09792c0.00929,0.00456 0.01853,0.00921 0.02772,0.01394c0.14103,-0.82534 0.86001,-1.45342 1.72552,-1.45312c0.26023,0.00009 0.50717,0.05698 0.72911,0.15893c0.01969,-0.00065 0.03946,-0.00098 0.0593,-0.00097c0.38271,0.00013 0.73669,0.12311 1.02465,0.33163c0.07743,-0.01044 0.15649,-0.01582 0.23679,-0.0158c0.14787,0.00006 0.29144,0.01844 0.42858,0.05302c0.18193,-0.09856 0.38326,-0.16582 0.59682,-0.19456c0.2881,-0.20827 0.64211,-0.33096 1.02478,-0.33083c0.9665,0.00034 1.74973,0.7841 1.74939,1.7506c-0.00008,0.23266 -0.04555,0.45471 -0.12806,0.65776c0.16211,0.21089 0.25845,0.47497 0.25835,0.76154z" stroke="none" stroke-width="0.5"/><path d="M311.86522,170.4656c-0.00024,0.69036 -0.56007,1.2498 -1.25043,1.24957c-0.57575,-0.0002 -1.06044,-0.38961 -1.20537,-0.91936c-0.2839,0.19848 -0.62944,0.31487 -1.00214,0.31474c-0.54083,-0.00018 -1.02426,-0.24569 -1.34515,-0.63124l-0.70466,-0.00024c0,0 -1.75,-0.0006 -1.74939,-1.7506c0.0006,-1.75 1.7506,-1.74939 1.7506,-1.74939l2.83849,0.00099c0,0 0.86654,0.0003 1.37988,0.61024c0.23462,-0.09478 0.43431,-0.10719 0.43431,-0.10719c1.45883,-0.0894 2.86055,-0.27389 4.26357,-0.50678c0.16485,-0.07999 0.34991,-0.12483 0.54545,-0.12476c0.04684,0.00002 0.09306,0.00261 0.13856,0.00764c0.76104,-0.13401 1.52524,-0.27998 2.30188,-0.4305l0.94847,-0.18382c0,0 1.22717,-0.23784 1.465,0.98933c0.02178,0.11238 0.03128,0.21646 0.03055,0.31282c0.18456,0.25355 0.30267,0.55856 0.32875,0.88946c0.1416,-0.82468 0.86027,-1.45204 1.7253,-1.45174c0.9665,0.00034 1.74973,0.7841 1.74939,1.7506c-0.00034,0.9665 -0.7841,1.74973 -1.7506,1.74939c-0.15857,-0.00005 -0.31222,-0.0212 -0.45827,-0.06078c0.00037,0.01504 0.00056,0.03013 0.00056,0.04526c-0.00034,0.9665 -0.7841,1.74973 -1.7506,1.74939c-0.9665,-0.00034 -1.74973,-0.7841 -1.74939,-1.7506c0.00002,-0.07035 0.0042,-0.13973 0.01229,-0.20791c-0.19955,-0.05638 -0.38461,-0.14726 -0.54834,-0.2658c-0.51854,-0.07014 -0.96496,-0.36739 -1.23584,-0.78829c-0.12259,0.02236 -0.24507,0.04447 -0.36742,0.0663c0.5107,0.15729 0.88177,0.63297 0.88158,1.19526c-0.00024,0.69036 -0.56007,1.2498 -1.25043,1.24957c-0.06158,-0.00003 -0.12212,-0.00449 -0.18132,-0.01311c-0.31684,0.31687 -0.75461,0.51279 -1.23811,0.51262c-0.9665,-0.00034 -1.74973,-0.7841 -1.74939,-1.7506c0.00009,-0.24062 0.04872,-0.46989 0.13666,-0.67853c-0.49959,0.05879 -1.00258,0.10916 -1.51118,0.14939c0.07499,0.1606 0.11686,0.33976 0.11678,0.5287z" stroke="none" stroke-width="0.5"/><path d="M271.20247,172.65924c0.00024,-0.69036 0.56007,-1.2498 1.25043,-1.24957c0.69036,0.00024 1.2498,0.56007 1.24957,1.25043c-0.00024,0.69036 -0.56007,1.2498 -1.25043,1.24957c-0.69036,-0.00024 -1.2498,-0.56007 -1.24957,-1.25043z" stroke="none" stroke-width="0.5"/><path d="M282.86213,167.31322c0.69036,0.00024 1.2498,0.56007 1.24957,1.25043c-0.00024,0.69036 -0.56007,1.2498 -1.25043,1.24957c-0.39021,-0.00014 -0.73861,-0.17906 -0.96775,-0.45928c-0.07888,0.61464 -0.60414,1.08951 -1.24019,1.08929c-0.69036,-0.00024 -1.2498,-0.56007 -1.24957,-1.25043c0.00024,-0.69036 0.56007,-1.2498 1.25043,-1.24957c0.39021,0.00014 0.73861,0.17906 0.96775,0.45928c0.07888,-0.61464 0.60414,-1.08951 1.24019,-1.08929z" stroke="none" stroke-width="0.5"/><path d="M300.7177,174.08871c0.00011,-0.3218 0.20287,-0.5962 0.48758,-0.70255c-0.2205,-0.22548 -0.35638,-0.53405 -0.35625,-0.87435c0.00024,-0.69036 0.56007,-1.2498 1.25043,-1.24957c0.69036,0.00024 1.2498,0.56007 1.24957,1.25043c-0.00023,0.67562 -0.53643,1.22585 -1.2064,1.24882c0.04814,0.09903 0.07511,0.21023 0.07508,0.32773c-0.00014,0.41421 -0.33605,0.74988 -0.75026,0.74974c-0.41421,-0.00014 -0.74988,-0.33605 -0.74974,-0.75026z" stroke="none" stroke-width="0.5"/><path d="M308.89126,172.98768c0.00024,-0.69036 0.56007,-1.2498 1.25043,-1.24957c0.69036,0.00024 1.2498,0.56007 1.24957,1.25043c-0.00024,0.69036 -0.56007,1.2498 -1.25043,1.24957c-0.69036,-0.00024 -1.2498,-0.56007 -1.24957,-1.25043z" stroke="none" stroke-width="0.5"/><path d="M331.47237,171.27771c0.03816,-0.0035 0.07682,-0.00527 0.11589,-0.00526c0.69036,0.00024 1.2498,0.56007 1.24957,1.25043c-0.00024,0.69036 -0.56007,1.2498 -1.25043,1.24957c-0.69036,-0.00024 -1.2498,-0.56007 -1.24957,-1.25043c0.00011,-0.32315 0.12284,-0.61763 0.32418,-0.83943c-0.25354,-0.04712 -0.46225,-0.22178 -0.55709,-0.45488c-0.13121,0.03136 -0.26815,0.04796 -0.40899,0.04791c-0.81034,-0.00028 -1.49184,-0.55129 -1.69072,-1.29896c-0.11584,0.0241 -0.23587,0.03675 -0.35887,0.0367c-0.9665,-0.00034 -1.74973,-0.7841 -1.74939,-1.7506c0.00034,-0.9665 0.7841,-1.74973 1.7506,-1.74939c0.46783,0.00017 0.89272,0.18389 1.2066,0.48304c0.30916,0.16093 0.5426,0.44731 0.63285,0.79163c0.06889,-0.00822 0.13902,-0.01244 0.21014,-0.01241c0.45599,0.00016 0.87119,0.17471 1.18255,0.46055c0.31156,-0.28563 0.72688,-0.45989 1.18287,-0.45973c0.9665,0.00034 1.74973,0.7841 1.74939,1.7506c-0.00034,0.9665 -0.7841,1.74973 -1.7506,1.74939c-0.19269,-0.00007 -0.37809,-0.03127 -0.55145,-0.08886c-0.01058,0.03101 -0.02314,0.06111 -0.03753,0.09015z" stroke="none" stroke-width="0.5"/><path d="M281.00588,174.23957c0.00014,-0.40405 0.31976,-0.73336 0.71992,-0.74915c-0.05667,-0.10557 -0.0888,-0.22628 -0.08876,-0.35449c0.00014,-0.41421 0.33605,-0.74988 0.75026,-0.74974c0.41421,0.00014 0.74988,0.33605 0.74974,0.75026c-0.00014,0.40405 -0.31976,0.73336 -0.71992,0.74915c0.05667,0.10557 0.0888,0.22628 0.08876,0.35449c-0.00014,0.41421 -0.33605,0.74988 -0.75026,0.74974c-0.41421,-0.00014 -0.74988,-0.33605 -0.74974,-0.75026z" stroke="none" stroke-width="0.5"/><path d="M275.4862,175.34152c0.00014,-0.41421 0.33605,-0.74988 0.75026,-0.74974c0.41421,0.00014 0.74988,0.33605 0.74974,0.75026c-0.00014,0.41421 -0.33605,0.74988 -0.75026,0.74974c-0.41421,-0.00014 -0.74988,-0.33605 -0.74974,-0.75026z" stroke="none" stroke-width="0.5"/><path d="M302.76636,178.03177c0.00014,-0.41421 0.33605,-0.74988 0.75026,-0.74974c0.41421,0.00014 0.74988,0.33605 0.74974,0.75026c-0.00014,0.41421 -0.33605,0.74988 -0.75026,0.74974c-0.41421,-0.00014 -0.74988,-0.33605 -0.74974,-0.75026z" stroke="none" stroke-width="0.5"/><path d="M318.69446,175.19878c0.00014,-0.41421 0.33605,-0.74988 0.75026,-0.74974c0.41421,0.00014 0.74988,0.33605 0.74974,0.75026c-0.00014,0.41421 -0.33605,0.74988 -0.75026,0.74974c-0.41421,-0.00014 -0.74988,-0.33605 -0.74974,-0.75026z" stroke="none" stroke-width="0.5"/></g><g fill="#b70b0b"><path d="M255.33248,143.78976c0.01153,-33.30185 28.78077,-60.28837 64.25789,-60.27608c0.6942,0.00024 6.39416,0.06627 11.40483,-0.95612c4.13187,-0.84309 7.79517,-2.8094 7.79517,-2.8094c0,0 -0.42457,3.55883 1.59398,6.94668c1.38073,2.31736 5.67753,6.76687 5.67753,6.76687c0,0 -1.48581,6.66505 -0.37208,11.39884c0.63268,2.68913 4.54344,8.66455 4.54344,8.66455c0,0 -3.69223,4.94076 -3.27972,7.45313c0.7232,4.40451 4.16806,11.93236 4.16806,11.93236c0,0 -8.51956,4.34426 -8.75876,7.91852c-0.22855,3.41525 0.45975,6.62044 1.43276,9.3222c0.03606,0.1001 -88.18398,-0.64369 -88.21564,-0.98486c-0.16445,-1.77137 -0.24809,-3.56471 -0.24746,-5.37668z" stroke="#000000" stroke-width="0"/><path d="M258.89984,146.46239c0.70972,0.00024 1.32062,0.42293 1.59499,1.03022c0.2915,0.31272 0.46979,0.73234 0.46963,1.19357c-0.00034,0.9665 -0.7841,1.74973 -1.7506,1.74939c-0.33468,-0.00012 -0.64739,-0.09417 -0.91319,-0.25724c-0.32021,0.3515 -0.78168,0.57204 -1.29464,0.57186c-0.9665,-0.00034 -1.43434,-0.784 -1.434,-1.7505c0.00034,-0.9665 0.46872,-1.74983 1.43522,-1.74951c0.13783,0.00005 0.27193,0.01602 0.40058,0.0462c0.3081,-0.50057 0.86113,-0.83423 1.49203,-0.83401z" stroke="none" stroke-width="0.5"/><path d="M271.19899,149.33205c0.69036,0.00024 1.2498,0.56007 1.24957,1.25043c-0.00024,0.69036 -0.56007,1.2498 -1.25043,1.24957c-0.4448,-0.00016 -0.83525,-0.23261 -1.05668,-0.5826c-0.20848,0.08757 -0.43749,0.13592 -0.67779,0.13585c-0.9665,-0.00034 -1.74973,-0.7841 -1.74939,-1.7506c0.00034,-0.9665 0.7841,-1.74973 1.7506,-1.74939c0.86289,0.0003 1.57969,0.62507 1.72322,1.44681c0.00363,-0.00003 0.00727,-0.00004 0.01091,-0.00004z" stroke="none" stroke-width="0.5"/><path d="M262.19549,148.05583c0.00034,-0.9665 0.7841,-1.74973 1.7506,-1.74939c0.9665,0.00034 1.74973,0.7841 1.74939,1.7506c-0.00034,0.9665 -0.7841,1.74973 -1.7506,1.74939c-0.9665,-0.00034 -1.74973,-0.7841 -1.74939,-1.7506z" stroke="none" stroke-width="0.5"/><path d="M307.15222,152.31758c-0.31234,-0.00011 -0.59787,-0.11475 -0.81692,-0.30423c-0.22987,0.11088 -0.48767,0.17299 -0.75998,0.1729c-0.9665,-0.00034 -1.74973,-0.7841 -1.74939,-1.7506c0.00034,-0.9665 0.7841,-1.74973 1.7506,-1.74939c0.68682,0.00024 1.28109,0.3961 1.56739,0.97202c0.07532,-0.89733 0.82766,-1.60197 1.74441,-1.60166c0.41348,0.00015 0.79342,0.14368 1.09281,0.38355c0.15373,-0.04409 0.31611,-0.06768 0.48402,-0.06762c0.05315,0.00002 0.10575,0.00241 0.15768,0.00707c0.05194,-0.00462 0.10454,-0.00697 0.15769,-0.00696c0.9665,0.00034 1.74973,0.7841 1.74939,1.7506c-0.00034,0.9665 -0.7841,1.74973 -1.7506,1.74939c-0.05315,-0.00002 -0.10575,-0.00241 -0.15768,-0.00707c-0.05194,0.00462 -0.10454,0.00697 -0.15769,0.00696c-0.30085,-0.00011 -0.58393,-0.07611 -0.83115,-0.20992c-0.12689,0.55609 -0.6246,0.97097 -1.21912,0.97077c-0.34801,-0.00012 -0.66276,-0.14245 -0.88932,-0.37202c-0.11755,0.03656 -0.24254,0.05624 -0.37213,0.05619z" stroke="none" stroke-width="0.5"/><path d="M336.78424,149.81629c0.00034,-0.9665 0.7841,-1.74973 1.7506,-1.74939c0.16394,0.00006 0.3226,0.02265 0.47306,0.06485c0.15049,-0.0421 0.30918,-0.06458 0.4731,-0.06453c0.7186,0.00025 1.33588,0.43359 1.60512,1.05309c0.18779,-0.06875 0.39065,-0.10624 0.60226,-0.10617c0.9665,0.00034 1.74973,0.7841 1.74939,1.7506c-0.00034,0.9665 -0.7841,1.74973 -1.7506,1.74939c-0.7186,-0.00025 -1.33588,-0.43359 -1.60512,-1.05309c-0.18779,0.06875 -0.39065,0.10624 -0.60226,0.10617c-0.16394,-0.00006 -0.3226,-0.02265 -0.47306,-0.06485c-0.15049,0.0421 -0.30918,0.06458 -0.4731,0.06453c-0.9665,-0.00034 -1.74973,-0.7841 -1.74939,-1.7506z" stroke="none" stroke-width="0.5"/><path d="M330.64951,149.82572c0.69036,0.00024 1.2498,0.56007 1.24957,1.25043c-0.00024,0.69036 -0.56007,1.2498 -1.25043,1.24957c-0.57575,-0.0002 -1.06044,-0.38961 -1.20537,-0.91936c-0.21744,0.15202 -0.47101,0.25587 -0.74525,0.29612c-0.15749,0.19436 -0.35582,0.3543 -0.58188,0.46678c-0.28679,0.57546 -0.8812,0.97069 -1.56782,0.97044c-0.9665,-0.00034 -1.74973,-0.7841 -1.74939,-1.7506c0.00024,-0.68662 0.39587,-1.28076 0.97153,-1.56714c0.25034,-0.50232 0.73508,-0.86732 1.31094,-0.95182c0.32097,-0.39609 0.81142,-0.64922 1.36096,-0.64903c0.94665,0.00033 1.71749,0.75225 1.74842,1.69132c0.14204,-0.056 0.29679,-0.08675 0.45873,-0.0867z" stroke="none" stroke-width="0.5"/><path d="M333.84068,153.28454c0.00005,-0.1406 0.03878,-0.27216 0.10614,-0.3846c-0.04487,-0.08916 -0.07938,-0.18441 -0.10194,-0.28419c-0.75819,-0.19214 -1.31905,-0.87918 -1.31876,-1.69708c0.00034,-0.9665 0.7841,-1.74973 1.7506,-1.74939c0.9665,0.00034 1.74973,0.7841 1.74939,1.7506c-0.00006,0.18513 -0.02887,0.36353 -0.08221,0.53098c0.22869,0.22662 0.3703,0.54097 0.37018,0.88836c-0.00022,0.61489 -0.44437,1.12594 -1.02929,1.23014c-0.11212,0.27318 -0.38081,0.46553 -0.69439,0.46543c-0.41421,-0.00014 -0.74988,-0.33605 -0.74974,-0.75026z" stroke="none" stroke-width="0.5"/><path d="M319.46403,152.01801c0.00004,-0.10812 0.01381,-0.21303 0.03965,-0.31308c-0.33239,-0.31865 -0.53927,-0.7672 -0.5391,-1.26403c0.00003,-0.08022 0.00546,-0.15918 0.01593,-0.23654c-0.01043,-0.07736 -0.0158,-0.15633 -0.01576,-0.23655c0.00034,-0.9665 0.7841,-1.74973 1.7506,-1.74939c0.9665,0.00034 1.74973,0.7841 1.74939,1.7506c-0.00003,0.08022 -0.00546,0.15918 -0.01593,0.23654c0.01043,0.07736 0.0158,0.15633 0.01576,0.23655c-0.00003,0.08845 -0.00662,0.17537 -0.01932,0.26029c0.45778,0.18571 0.78056,0.63481 0.78038,1.15922c-0.0002,0.59141 -0.41109,1.08675 -0.9629,1.21644c0.01071,0.0659 0.01626,0.13355 0.01624,0.20248c-0.00024,0.69036 -0.56007,1.2498 -1.25043,1.24957c-0.69036,-0.00024 -1.2498,-0.56007 -1.24957,-1.25043c0.00004,-0.12959 0.01981,-0.25456 0.05645,-0.37209c-0.22941,-0.22671 -0.37152,-0.54156 -0.37141,-0.88957z" stroke="none" stroke-width="0.5"/><path d="M315.66892,148.84745c0.9665,0.00034 1.74973,0.7841 1.74939,1.7506c-0.00034,0.9665 -0.7841,1.74973 -1.7506,1.74939c-0.30154,-0.0001 -0.58524,-0.07647 -0.83287,-0.21085c-0.13717,0.03448 -0.28076,0.05277 -0.42861,0.05272c-0.9665,-0.00034 -1.74973,-0.7841 -1.74939,-1.7506c0.00034,-0.9665 0.7841,-1.74973 1.7506,-1.74939c0.30154,0.0001 0.58524,0.07647 0.83287,0.21085c0.13717,-0.03448 0.28076,-0.05277 0.42861,-0.05272z" stroke="none" stroke-width="0.5"/><path d="M300.01757,152.16898c-0.00008,0.23267 -0.1061,0.44056 -0.27243,0.57806c-0.20882,0.39924 -0.62703,0.67163 -1.10879,0.67146c-0.48014,-0.00017 -0.89697,-0.27102 -1.1062,-0.66821c-0.14973,0.04164 -0.30752,0.06387 -0.47052,0.06381c-0.94595,-0.00033 -1.71634,-0.75114 -1.74835,-1.68922c-0.19176,0.07211 -0.39952,0.11153 -0.61651,0.11146c-0.59785,-0.00021 -1.12559,-0.30019 -1.4411,-0.75776c-0.16702,0.79275 -0.8706,1.38773 -1.713,1.38744c-0.13949,-0.00005 -0.27515,-0.01642 -0.4052,-0.04729c-0.24484,0.67142 -0.88911,1.1507 -1.6452,1.15044c-0.77125,-0.00027 -1.4258,-0.4994 -1.6586,-1.19217c-0.1726,0.05688 -0.35707,0.08762 -0.54873,0.08755c-0.25307,-0.00009 -0.49358,-0.05389 -0.71074,-0.15062c-0.32115,0.38112 -0.80205,0.62318 -1.33945,0.623c-0.55091,-0.00019 -1.04228,-0.25493 -1.36293,-0.65296c-0.18509,0.45911 -0.63486,0.78305 -1.16022,0.78287c-0.42341,-0.00015 -0.79759,-0.2108 -1.02359,-0.53296c-0.16756,0.49308 -0.63453,0.84777 -1.18424,0.84758c-0.69036,-0.00024 -1.2498,-0.56007 -1.24957,-1.25043c0.00006,-0.17841 0.0375,-0.34807 0.1049,-0.5016c-0.1981,0.15147 -0.42951,0.26157 -0.68132,0.31743c-0.24634,0.66853 -0.88916,1.14519 -1.64319,1.14493c-0.54152,-0.00019 -1.0255,-0.24632 -1.34637,-0.63272c-0.0241,0.00098 -0.04832,0.00147 -0.07266,0.00145c-0.83395,-0.00029 -1.53145,-0.58386 -1.70687,-1.36481c-0.49869,-0.3085 -0.83083,-0.86045 -0.83062,-1.48993c0.00034,-0.9665 0.7841,-1.74973 1.7506,-1.74939c0.83395,0.00029 1.53145,0.58386 1.70687,1.36481c0.08137,0.05034 0.1583,0.10715 0.23008,0.16974c0.29856,-0.53842 0.87283,-0.9028 1.5321,-0.90257c0.9665,0.00034 1.74973,0.7841 1.74939,1.7506c-0.00011,0.3033 -0.07736,0.58854 -0.2132,0.8372c0.19382,-0.12336 0.42392,-0.1948 0.6707,-0.19471c0.42341,0.00015 0.79759,0.2108 1.02359,0.53296c0.16756,-0.49308 0.63453,-0.84777 1.18424,-0.84758c0.30598,0.00011 0.58624,0.11014 0.80346,0.29275c0.15332,-0.81029 0.86521,-1.42295 1.72005,-1.42266c0.25307,0.00009 0.49358,0.05389 0.71074,0.15062c0.32115,-0.38112 0.80205,-0.62318 1.33945,-0.623c0.51116,0.00018 0.97106,0.21948 1.29088,0.56907c-0.02933,-0.12712 -0.0448,-0.25955 -0.04475,-0.39559c0.00034,-0.9665 0.7841,-1.74973 1.7506,-1.74939c0.93129,0.00032 1.69242,0.72804 1.74634,1.64573c0.39298,0.11336 0.72913,0.36072 0.95577,0.68941c0.16702,-0.79275 0.8706,-1.38773 1.713,-1.38744c0.94595,0.00033 1.71634,0.75114 1.74835,1.68922c0.16343,-0.06146 0.33849,-0.09917 0.52097,-0.10893c0.02368,-0.02228 0.04798,-0.0439 0.07287,-0.06485c-0.09659,-0.21723 -0.15021,-0.45777 -0.15013,-0.71085c0.00034,-0.9665 0.7841,-1.74973 1.7506,-1.74939c0.67676,0.00023 1.26366,0.3846 1.55461,0.94684c0.00732,-0.00009 0.01466,-0.00013 0.022,-0.00013c0.11016,0.00004 0.21793,0.01025 0.32245,0.02976c0.28587,-0.57807 0.88167,-0.9755 1.57021,-0.97527c0.9665,0.00034 1.74973,0.7841 1.74939,1.7506c-0.00034,0.9665 -0.7841,1.74973 -1.7506,1.74939c-0.11016,-0.00004 -0.21793,-0.01025 -0.32245,-0.02976c-0.28587,0.57807 -0.88167,0.9755 -1.57021,0.97527c-0.13949,-0.00005 -0.27515,-0.01642 -0.4052,-0.04729c-0.03597,0.09866 -0.08057,0.19316 -0.13288,0.28261c0.02524,0.03766 0.04848,0.07676 0.06957,0.11717c0.16624,0.13763 0.27211,0.34559 0.27203,0.57826z" stroke="none" stroke-width="0.5"/><path d="M292.81301,154.05881c0.00024,-0.69036 0.56007,-1.2498 1.25043,-1.24957c0.69036,0.00024 1.2498,0.56007 1.24957,1.25043c-0.00024,0.69036 -0.56007,1.2498 -1.25043,1.24957c-0.69036,-0.00024 -1.2498,-0.56007 -1.24957,-1.25043z" stroke="none" stroke-width="0.5"/><path d="M331.28994,155.33368c0.00024,-0.69036 0.56007,-1.2498 1.25043,-1.24957c0.69036,0.00024 1.2498,0.56007 1.24957,1.25043c-0.00024,0.69036 -0.56007,1.2498 -1.25043,1.24957c-0.69036,-0.00024 -1.2498,-0.56007 -1.24957,-1.25043z" stroke="none" stroke-width="0.5"/><path d="M262.24699,154.83669c0.00014,-0.41421 0.33605,-0.74988 0.75026,-0.74974c0.41421,0.00014 0.74988,0.33605 0.74974,0.75026c-0.00014,0.41421 -0.33605,0.74988 -0.75026,0.74974c-0.41421,-0.00014 -0.74988,-0.33605 -0.74974,-0.75026z" stroke="none" stroke-width="0.5"/><path d="M274.23119,156.41778c0.00014,-0.41421 0.33605,-0.74988 0.75026,-0.74974c0.41421,0.00014 0.74988,0.33605 0.74974,0.75026c-0.00014,0.41421 -0.33605,0.74988 -0.75026,0.74974c-0.41421,-0.00014 -0.74988,-0.33605 -0.74974,-0.75026z" stroke="none" stroke-width="0.5"/><path d="M282.27415,154.84362c0.00014,-0.41421 0.33605,-0.74988 0.75026,-0.74974c0.41421,0.00014 0.74988,0.33605 0.74974,0.75026c-0.00014,0.41421 -0.33605,0.74988 -0.75026,0.74974c-0.41421,-0.00014 -0.74988,-0.33605 -0.74974,-0.75026z" stroke="none" stroke-width="0.5"/><path d="M279.90917,153.58126c0.00014,-0.41421 0.33605,-0.74988 0.75026,-0.74974c0.41421,0.00014 0.74988,0.33605 0.74974,0.75026c-0.00014,0.41421 -0.33605,0.74988 -0.75026,0.74974c-0.41421,-0.00014 -0.74988,-0.33605 -0.74974,-0.75026z" stroke="none" stroke-width="0.5"/><path d="M298.35862,155.79537c0.00014,-0.41421 0.33605,-0.74988 0.75026,-0.74974c0.41421,0.00014 0.74988,0.33605 0.74974,0.75026c-0.00014,0.41421 -0.33605,0.74988 -0.75026,0.74974c-0.41421,-0.00014 -0.74988,-0.33605 -0.74974,-0.75026z" stroke="none" stroke-width="0.5"/><path d="M294.7311,157.37105c0.00014,-0.41421 0.33605,-0.74988 0.75026,-0.74974c0.41421,0.00014 0.74988,0.33605 0.74974,0.75026c-0.00014,0.41421 -0.33605,0.74988 -0.75026,0.74974c-0.41421,-0.00014 -0.74988,-0.33605 -0.74974,-0.75026z" stroke="none" stroke-width="0.5"/><path d="M314.4437,155.01246c0.00014,-0.41421 0.33605,-0.74988 0.75026,-0.74974c0.41421,0.00014 0.74988,0.33605 0.74974,0.75026c-0.00014,0.41421 -0.33605,0.74988 -0.75026,0.74974c-0.41421,-0.00014 -0.74988,-0.33605 -0.74974,-0.75026z" stroke="none" stroke-width="0.5"/><path d="M316.80764,159.27102c0.00014,-0.41421 0.33605,-0.74988 0.75026,-0.74974c0.41421,0.00014 0.74988,0.33605 0.74974,0.75026c-0.00014,0.41421 -0.33605,0.74988 -0.75026,0.74974c-0.41421,-0.00014 -0.74988,-0.33605 -0.74974,-0.75026z" stroke="none" stroke-width="0.5"/><path d="M326.90115,156.12063c0.00014,-0.41421 0.33605,-0.74988 0.75026,-0.74974c0.41421,0.00014 0.74988,0.33605 0.74974,0.75026c-0.00014,0.41421 -0.33605,0.74988 -0.75026,0.74974c-0.41421,-0.00014 -0.74988,-0.33605 -0.74974,-0.75026z" stroke="none" stroke-width="0.5"/></g><g fill="#a50a0a"><path d="M259.48671,122.43129c9.19417,-22.75578 32.63885,-38.92712 60.10367,-38.91762c0.6942,0.00024 6.39416,0.06627 11.40483,-0.95612c4.13187,-0.84309 7.79517,-2.8094 7.79517,-2.8094c0,0 -0.42457,3.55883 1.59398,6.94668c1.38073,2.31736 5.67753,6.76687 5.67753,6.76687c0,0 -1.48581,6.66505 -0.37208,11.39884c0.63268,2.68913 4.54344,8.66455 4.54344,8.66455c0,0 -3.69223,4.94076 -3.27972,7.45313c0.0778,0.4738 0.41703,2.13552 0.55014,2.66835c0.1634,0.65412 -88.23542,-0.67455 -88.01695,-1.21529z" stroke="#000000" stroke-width="0"/><path d="M264.74321,121.39104c0.9665,0.00034 1.74973,0.7841 1.74939,1.7506c-0.00034,0.9665 -0.7841,1.74973 -1.7506,1.74939c-0.69427,-0.00024 -1.29398,-0.40474 -1.57661,-0.99083c-0.28303,0.58589 -0.88301,0.98999 -1.57728,0.98975c-0.9665,-0.00034 -1.74973,-0.7841 -1.74939,-1.7506c0.00034,-0.9665 0.7841,-1.74973 1.7506,-1.74939c0.69427,0.00024 1.29397,0.40474 1.5766,0.99083c0.28303,-0.58589 0.88302,-0.98999 1.57729,-0.98975z" stroke="none" stroke-width="0.5"/><path d="M279.26516,125.03839c-0.00034,0.9665 -0.7841,1.74973 -1.7506,1.74939c-0.80435,-0.00028 -1.48178,-0.54319 -1.68624,-1.28245c-0.45255,-0.06956 -0.84794,-0.31248 -1.11625,-0.6588c-0.24555,0.13115 -0.52605,0.20547 -0.8239,0.20537c-0.1608,-0.00006 -0.31653,-0.0218 -0.46442,-0.06246c-0.27933,0.5957 -0.88451,1.00817 -1.58593,1.00792c-0.92596,-0.00032 -1.6837,-0.71975 -1.74535,-1.63001c-0.31777,0.3242 -0.76065,0.52528 -1.25046,0.5251c-0.08022,-0.00003 -0.15918,-0.00546 -0.23654,-0.01593c-0.07736,0.01043 -0.15633,0.0158 -0.23655,0.01576c-0.9665,-0.00034 -1.74973,-0.7841 -1.74939,-1.7506c0.00034,-0.9665 0.7841,-1.74973 1.7506,-1.74939c0.08022,0.00003 0.15918,0.00546 0.23654,0.01593c0.07736,-0.01043 0.15633,-0.0158 0.23655,-0.01576c0.92596,0.00032 1.68371,0.71975 1.74535,1.63001c0.31777,-0.32419 0.76064,-0.52528 1.25046,-0.5251c0.1608,0.00006 0.31653,0.0218 0.46442,0.06246c0.27933,-0.59569 0.88451,-1.00816 1.58593,-1.00791c0.56293,0.00019 1.06369,0.26615 1.38365,0.67921c0.24555,-0.13115 0.52605,-0.20547 0.8239,-0.20537c0.49368,0.00017 0.93955,0.20475 1.25759,0.53368c-0.00763,-0.06643 -0.01154,-0.13401 -0.01152,-0.20249c0.00034,-0.9665 0.7841,-1.74973 1.7506,-1.74939c0.9665,0.00034 1.74973,0.7841 1.74939,1.7506c-0.00034,0.9665 -0.7841,1.74973 -1.7506,1.74939c-0.03234,-0.00001 -0.06447,-0.0009 -0.09639,-0.00264c0.17058,0.27021 0.26925,0.59033 0.26913,0.9335z" stroke="none" stroke-width="0.5"/><path d="M281.12731,123.46209c0.00034,-0.9665 0.7841,-1.74973 1.7506,-1.74939c0.9665,0.00034 1.74973,0.7841 1.74939,1.7506c-0.00034,0.9665 -0.7841,1.74973 -1.7506,1.74939c-0.9665,-0.00034 -1.74973,-0.7841 -1.74939,-1.7506z" stroke="none" stroke-width="0.5"/><path d="M286.17343,123.77923c0.00034,-0.9665 0.7841,-1.74973 1.7506,-1.74939c0.70362,0.00025 1.31011,0.41571 1.58784,1.0146c0.73084,0.21032 1.26537,0.88409 1.26508,1.68255c-0.00034,0.9665 -0.7841,1.74973 -1.7506,1.74939c-0.70362,-0.00025 -1.31011,-0.41571 -1.58784,-1.0146c-0.73084,-0.21032 -1.26537,-0.88409 -1.26508,-1.68255z" stroke="none" stroke-width="0.5"/><path d="M309.8264,127.09899c0.00008,-0.21758 0.03986,-0.42586 0.11249,-0.61801c-0.03208,0.00174 -0.06439,0.0026 -0.0969,0.0026c-0.56703,-0.0002 -1.07098,-0.27005 -1.39063,-0.68827c-0.26433,-0.06935 -0.50425,-0.19895 -0.70419,-0.37325c-0.29856,0.53842 -0.87283,0.90279 -1.53211,0.90256c-0.9665,-0.00034 -1.74973,-0.7841 -1.74939,-1.7506c0.00034,-0.9665 0.7841,-1.74973 1.7506,-1.74939c0.43974,0.00015 0.84154,0.16248 1.14887,0.4304c0.29856,-0.53842 0.87283,-0.90279 1.53211,-0.90256c0.56703,0.0002 1.07098,0.27005 1.39063,0.68827c0.56737,0.14884 1.02225,0.57535 1.21069,1.12549c0.23607,-0.68766 0.88849,-1.18177 1.6562,-1.18151c0.45522,0.00016 0.86978,0.17412 1.18097,0.45911c0.484,-0.77391 1.49994,-0.77357 1.49994,-0.77357l1.89233,0.00066c0,0 0.59798,0.00021 1.09471,0.34993c0.22708,-0.11637 0.48294,-0.18454 0.75404,-0.19107c0.31304,-0.47517 0.85145,-0.78871 1.46304,-0.78849c0.74928,0.00026 1.38841,0.47138 1.63769,1.13347c0.2913,-0.2163 0.65214,-0.3442 1.04283,-0.34407c0.66727,0.00023 1.24718,0.3739 1.5422,0.9233c0.29327,-0.11074 0.53102,-0.12894 0.53102,-0.12894l1.14849,-0.08794c0.30444,-0.51634 0.8664,-0.86268 1.50917,-0.86246c0.55003,0.00019 1.04072,0.25411 1.36139,0.65105c0.25219,-0.65705 0.88918,-1.12336 1.63496,-1.1231c0.7867,0.00027 1.45197,0.5196 1.6721,1.23404c0.30962,-0.27663 0.71826,-0.44474 1.16614,-0.44459c0.74545,0.00026 1.38188,0.46658 1.63384,1.12333c0.08424,-0.01242 0.17041,-0.01884 0.25811,-0.01881c0.13948,0.00005 0.27515,0.01641 0.4052,0.04729c0.24484,-0.67141 0.8891,-1.1507 1.6452,-1.15044c0.02643,0.00001 0.05272,0.00061 0.07885,0.00177c0.02614,-0.00115 0.05242,-0.00172 0.07885,-0.00171c0.50235,0.00017 0.95518,0.212 1.27423,0.55112c0.31901,-0.42971 0.83033,-0.70809 1.40662,-0.70789c0.48046,0.00017 0.91562,0.19393 1.23176,0.50752c0.11154,-0.02226 0.22693,-0.03392 0.34503,-0.03388c0.02132,0 0.04254,0.0004 0.06367,0.00116c0.31318,-0.29398 0.73461,-0.47397 1.19805,-0.4738c0.4021,0.00014 0.77247,0.13588 1.0679,0.36397c0.24568,-0.13132 0.52633,-0.20573 0.82437,-0.20562c0.9665,0.00034 1.74973,0.7841 1.74939,1.7506c-0.00034,0.9665 -0.7841,1.74973 -1.7506,1.74939c-0.4021,-0.00014 -0.77247,-0.13588 -1.0679,-0.36397c-0.24568,0.13132 -0.52633,0.20572 -0.82437,0.20561c-0.02132,0 -0.04254,-0.0004 -0.06368,-0.00115c-0.31318,0.29398 -0.73461,0.47397 -1.19804,0.4738c-0.48046,-0.00017 -0.91562,-0.19393 -1.23176,-0.50751c-0.11154,0.02226 -0.22693,0.03392 -0.34503,0.03388c-0.50235,-0.00017 -0.95518,-0.212 -1.27423,-0.55112c-0.31902,0.4297 -0.83033,0.70809 -1.40662,0.70789c-0.02643,-0.00001 -0.05271,-0.00061 -0.07885,-0.00177c-0.02614,0.00115 -0.05243,0.00172 -0.07885,0.00171c-0.13948,-0.00005 -0.27515,-0.01642 -0.4052,-0.0473c-0.24484,0.67141 -0.8891,1.15071 -1.6452,1.15045c-0.20975,-0.00007 -0.41088,-0.03704 -0.59723,-0.10478c-0.30597,0.26171 -0.7033,0.41972 -1.13752,0.41957c-0.8422,-0.00029 -1.54523,-0.59546 -1.71192,-1.38805c-0.20181,0.08114 -0.42222,0.12576 -0.65305,0.12568c-0.81284,-0.00028 -1.49605,-0.55469 -1.69255,-1.30589c-0.11099,-0.08495 -0.21151,-0.1829 -0.29929,-0.29155c-0.08805,0.22941 -0.22301,0.43557 -0.39314,0.60674c-0.24299,1.1971 -1.58096,1.29956 -1.58096,1.29956l-2.05008,0.15698c0,0 -1.22691,0.09395 -1.70188,-0.90452c-0.19818,0.07779 -0.41399,0.12047 -0.63977,0.12039c-0.39069,-0.00013 -0.75145,-0.12829 -1.04259,-0.34479c-0.24974,0.66191 -0.8892,1.13259 -1.63848,1.13233c-0.61158,-0.00021 -1.14977,-0.31412 -1.46248,-0.78951c-0.38107,-0.00944 -0.73189,-0.14066 -1.01503,-0.35624c-0.42337,0.19858 -0.83373,0.19843 -0.83373,0.19843l-1.89233,-0.00066c0,0 -0.71393,-0.00025 -1.22963,-0.45643c-0.30397,0.44948 -0.8113,0.7501 -1.38989,0.76985c0.07211,0.19175 0.11153,0.39953 0.11146,0.61651c-0.00034,0.9665 -0.7841,1.74973 -1.7506,1.74939c-0.9665,-0.00034 -1.74973,-0.7841 -1.74939,-1.7506zM311.49817,125.30208c-0.00577,0.01683 -0.0118,0.03353 -0.01808,0.05013c0.0118,-0.00064 0.02365,-0.00116 0.03552,-0.00156c-0.00604,-0.01608 -0.01187,-0.03225 -0.01745,-0.04855z" stroke="none" stroke-width="0.5"/><path d="M298.017,120.45639c0.9665,0.00034 1.74973,0.7841 1.74939,1.7506c-0.00002,0.04792 -0.00197,0.09538 -0.00576,0.14233c0.05142,0.00001 0.10086,0.00003 0.14804,0.00005c0,0 1.30186,0.00045 1.65946,1.12344c0.43683,0.31834 0.72064,0.83397 0.72044,1.41585c-0.00034,0.9665 -0.7841,1.74973 -1.7506,1.74939c-0.61134,-0.00021 -1.14936,-0.31388 -1.46214,-0.78898c-0.51126,-0.00018 -1.02251,-0.00035 -1.53377,-0.00053l-0.63078,-0.00021c0,0 -0.17834,-0.00006 -0.42113,-0.05708c-0.24949,0.13674 -0.53591,0.21443 -0.84048,0.21433c-0.70648,-0.00025 -1.31505,-0.41909 -1.59122,-1.02195c-0.31913,0.42835 -0.82963,0.70571 -1.40485,0.70551c-0.9665,-0.00034 -1.74973,-0.7841 -1.74939,-1.7506c0.00034,-0.9665 0.7841,-1.74973 1.7506,-1.74939c0.60373,0.00021 1.13594,0.30612 1.45033,0.77129c0.29443,-0.55232 0.87632,-0.92817 1.54591,-0.92794c0.21697,0.00008 0.42471,0.03963 0.61643,0.11189c0.03267,-0.93805 0.80357,-1.68833 1.74952,-1.68801z" stroke="none" stroke-width="0.5"/><path d="M304.00878,122.19309c0.9665,0.00034 1.74973,0.7841 1.74939,1.7506c-0.00034,0.9665 -0.7841,1.74973 -1.7506,1.74939c-0.34744,-0.00012 -0.6712,-0.10148 -0.9434,-0.27619c-0.19646,0.07624 -0.41009,0.11803 -0.63349,0.11795c-0.9665,-0.00034 -1.74973,-0.7841 -1.74939,-1.7506c0.00034,-0.9665 0.7841,-1.74973 1.7506,-1.74939c0.34744,0.00012 0.6712,0.10148 0.9434,0.27619c0.19646,-0.07624 0.41009,-0.11803 0.63349,-0.11795z" stroke="none" stroke-width="0.5"/><path d="M309.98518,123.94516c0.00034,-0.9665 0.7841,-1.74973 1.7506,-1.74939c0.9665,0.00034 1.74973,0.7841 1.74939,1.7506c-0.00034,0.9665 -0.7841,1.74973 -1.7506,1.74939c-0.9665,-0.00034 -1.74973,-0.7841 -1.74939,-1.7506z" stroke="none" stroke-width="0.5"/><path d="M333.79694,124.1111c0.00034,-0.9665 0.7841,-1.74973 1.7506,-1.74939c0.28364,0.0001 0.55151,0.06767 0.7884,0.18755c0.23698,-0.1197 0.50489,-0.1871 0.78854,-0.187c0.9665,0.00034 1.74973,0.7841 1.74939,1.7506c-0.00034,0.9665 -0.7841,1.74973 -1.7506,1.74939c-0.28364,-0.0001 -0.55151,-0.06767 -0.7884,-0.18755c-0.23698,0.1197 -0.50489,0.1871 -0.78854,0.187c-0.9665,-0.00034 -1.74973,-0.7841 -1.74939,-1.7506z" stroke="none" stroke-width="0.5"/><path d="M284.15091,122.04389c0.00024,-0.69036 0.56007,-1.2498 1.25043,-1.24957c0.69036,0.00024 1.2498,0.56007 1.24957,1.25043c-0.00024,0.69036 -0.56007,1.2498 -1.25043,1.24957c-0.69036,-0.00024 -1.2498,-0.56007 -1.24957,-1.25043z" stroke="none" stroke-width="0.5"/><path d="M289.19592,125.51491c0.00024,-0.69036 0.56007,-1.2498 1.25043,-1.24957c0.05341,0.00002 0.10604,0.00339 0.15769,0.0099c0.05165,-0.00648 0.10429,-0.00982 0.15769,-0.0098c0.69036,0.00024 1.2498,0.56007 1.24957,1.25043c-0.00024,0.69036 -0.56007,1.2498 -1.25043,1.24957c-0.05341,-0.00002 -0.10604,-0.00339 -0.15769,-0.0099c-0.05165,0.00648 -0.10429,0.00982 -0.15769,0.0098c-0.69036,-0.00024 -1.2498,-0.56007 -1.24957,-1.25043z" stroke="none" stroke-width="0.5"/><path d="M292.34909,127.56603c0.00024,-0.69036 0.56007,-1.2498 1.25043,-1.24957c0.69036,0.00024 1.2498,0.56007 1.24957,1.25043c-0.00024,0.69036 -0.56007,1.2498 -1.25043,1.24957c-0.69036,-0.00024 -1.2498,-0.56007 -1.24957,-1.25043z" stroke="none" stroke-width="0.5"/><path d="M297.86871,126.62178c0.00024,-0.69036 0.56007,-1.2498 1.25043,-1.24957c0.69036,0.00024 1.2498,0.56007 1.24957,1.25043c-0.00024,0.69036 -0.56007,1.2498 -1.25043,1.24957c-0.69036,-0.00024 -1.2498,-0.56007 -1.24957,-1.25043z" stroke="none" stroke-width="0.5"/><path d="M308.74913,128.04478c0.00024,-0.69036 0.56007,-1.2498 1.25043,-1.24957c0.69036,0.00024 1.2498,0.56007 1.24957,1.25043c-0.00024,0.69036 -0.56007,1.2498 -1.25043,1.24957c-0.69036,-0.00024 -1.2498,-0.56007 -1.24957,-1.25043z" stroke="none" stroke-width="0.5"/><path d="M323.73034,127.26149c0.00024,-0.69036 0.56007,-1.2498 1.25043,-1.24957c0.69036,0.00024 1.2498,0.56007 1.24957,1.25043c-0.00024,0.69036 -0.56007,1.2498 -1.25043,1.24957c-0.69036,-0.00024 -1.2498,-0.56007 -1.24957,-1.25043z" stroke="none" stroke-width="0.5"/><path d="M327.54044,131.52056c0.00013,-0.37854 0.28069,-0.6915 0.64515,-0.74246c-0.12569,-0.19506 -0.19859,-0.42732 -0.19851,-0.67661c0.00024,-0.69036 0.56007,-1.2498 1.25043,-1.24957c0.69036,0.00024 1.2498,0.56007 1.24957,1.25043c-0.00024,0.69036 -0.56007,1.2498 -1.25043,1.24957c-0.07509,-0.00003 -0.14862,-0.00667 -0.22007,-0.01939c0.01558,0.06026 0.02385,0.12344 0.02383,0.18857c-0.00014,0.41421 -0.33605,0.74988 -0.75026,0.74974c-0.41421,-0.00014 -0.74988,-0.33605 -0.74974,-0.75026z" stroke="none" stroke-width="0.5"/><path d="M337.00601,126.69339c-0.05781,-0.74777 0.68996,-0.80558 0.68996,-0.80558l0.85315,-0.06524c0.12747,-0.02105 0.271,-0.03676 0.41998,-0.04301l0.30477,-0.30457l0.05268,0.05271c0.04484,-0.06306 0.08968,-0.12613 0.13451,-0.18919l0.23629,0.02565l-0.01638,-0.0985l0.93228,-0.15505c0.04449,-0.00822 0.09037,-0.0125 0.13724,-0.01249c0.3634,0.00013 0.66634,0.25868 0.7351,0.60182c0.00474,0.00322 0.00944,0.00647 0.01411,0.00979c0.22889,-0.29246 0.58521,-0.48039 0.98537,-0.48025c0.69036,0.00024 1.2498,0.56007 1.24957,1.25043c-0.00024,0.69036 -0.56007,1.2498 -1.25043,1.24957c-0.49908,-0.00017 -0.92975,-0.29282 -1.12999,-0.71579c-0.08897,0.03715 -0.1866,0.05764 -0.28903,0.05761l-0.35104,-0.00012c0.00022,0.04528 -0.00308,0.0934 -0.01041,0.14454c-0.02669,0.18637 -0.09347,0.31926 -0.17852,0.41377c-0.07656,0.27036 -0.30093,0.4786 -0.58024,0.53191c-0.05395,0.6408 -0.59128,1.14395 -1.24598,1.14372c-0.69036,-0.00024 -1.2498,-0.56007 -1.24957,-1.25043c0.00008,-0.25032 0.07374,-0.48342 0.20053,-0.67888c-0.22329,-0.02975 -0.60341,-0.15787 -0.64397,-0.68245z" stroke="none" stroke-width="0.5"/><path d="M266.96137,124.56105c0.00024,-0.69036 0.56007,-1.2498 1.25043,-1.24957c0.69036,0.00024 1.2498,0.56007 1.24957,1.25043c-0.00024,0.69036 -0.56007,1.2498 -1.25043,1.24957c-0.69036,-0.00024 -1.2498,-0.56007 -1.24957,-1.25043z" stroke="none" stroke-width="0.5"/><path d="M263.17557,127.87132c0.00024,-0.69036 0.56007,-1.2498 1.25043,-1.24957c0.69036,0.00024 1.2498,0.56007 1.24957,1.25043c-0.00024,0.69036 -0.56007,1.2498 -1.25043,1.24957c-0.69036,-0.00024 -1.2498,-0.56007 -1.24957,-1.25043z" stroke="none" stroke-width="0.5"/><path d="M262.54627,123.61336c0.00024,-0.69036 0.56007,-1.2498 1.25043,-1.24957c0.69036,0.00024 1.2498,0.56007 1.24957,1.25043c-0.00024,0.69036 -0.56007,1.2498 -1.25043,1.24957c-0.69036,-0.00024 -1.2498,-0.56007 -1.24957,-1.25043z" stroke="none" stroke-width="0.5"/><path d="M276.58062,124.87977c0.00024,-0.69036 0.56007,-1.2498 1.25043,-1.24957c0.69036,0.00024 1.2498,0.56007 1.24957,1.25043c-0.00024,0.69036 -0.56007,1.2498 -1.25043,1.24957c-0.69036,-0.00024 -1.2498,-0.56007 -1.24957,-1.25043z" stroke="none" stroke-width="0.5"/><path d="M273.42602,126.9287c0.00024,-0.69036 0.56007,-1.2498 1.25043,-1.24957c0.69036,0.00024 1.2498,0.56007 1.24957,1.25043c-0.00024,0.69036 -0.56007,1.2498 -1.25043,1.24957c-0.69036,-0.00024 -1.2498,-0.56007 -1.24957,-1.25043z" stroke="none" stroke-width="0.5"/><path d="M274.39731,132.13294c0.00014,-0.41421 0.33605,-0.74988 0.75026,-0.74974c0.41421,0.00014 0.74988,0.33605 0.74974,0.75026c-0.00014,0.41421 -0.33605,0.74988 -0.75026,0.74974c-0.41421,-0.00014 -0.74988,-0.33605 -0.74974,-0.75026z" stroke="none" stroke-width="0.5"/><path d="M287.64557,126.46053c0.00014,-0.41421 0.33605,-0.74988 0.75026,-0.74974c0.41421,0.00014 0.74988,0.33605 0.74974,0.75026c-0.00014,0.41421 -0.33605,0.74988 -0.75026,0.74974c-0.41421,-0.00014 -0.74988,-0.33605 -0.74974,-0.75026z" stroke="none" stroke-width="0.5"/><path d="M284.01888,125.67081c0.00014,-0.41421 0.33605,-0.74988 0.75026,-0.74974c0.41421,0.00014 0.74988,0.33605 0.74974,0.75026c-0.00014,0.41421 -0.33605,0.74988 -0.75026,0.74974c-0.41421,-0.00014 -0.74988,-0.33605 -0.74974,-0.75026z" stroke="none" stroke-width="0.5"/><path d="M290.63997,131.66549c0.00014,-0.41421 0.33605,-0.74988 0.75026,-0.74974c0.41421,0.00014 0.74988,0.33605 0.74974,0.75026c-0.00014,0.41421 -0.33605,0.74988 -0.75026,0.74974c-0.41421,-0.00014 -0.74988,-0.33605 -0.74974,-0.75026z" stroke="none" stroke-width="0.5"/><path d="M303.57012,133.87768c0.00014,-0.41421 0.33605,-0.74988 0.75026,-0.74974c0.41421,0.00014 0.74988,0.33605 0.74974,0.75026c-0.00014,0.41421 -0.33605,0.74988 -0.75026,0.74974c-0.41421,-0.00014 -0.74988,-0.33605 -0.74974,-0.75026z" stroke="none" stroke-width="0.5"/><path d="M320.44617,125.84111c0.00014,-0.41421 0.33605,-0.74988 0.75026,-0.74974c0.41421,0.00014 0.74988,0.33605 0.74974,0.75026c-0.00014,0.41421 -0.33605,0.74988 -0.75026,0.74974c-0.41421,-0.00014 -0.74988,-0.33605 -0.74974,-0.75026z" stroke="none" stroke-width="0.5"/><path d="M315.39843,130.25481c0.00014,-0.41421 0.33605,-0.74988 0.75026,-0.74974c0.41421,0.00014 0.74988,0.33605 0.74974,0.75026c-0.00014,0.41421 -0.33605,0.74988 -0.75026,0.74974c-0.41421,-0.00014 -0.74988,-0.33605 -0.74974,-0.75026z" stroke="none" stroke-width="0.5"/><path d="M315.0837,128.36236c0.00014,-0.41421 0.33605,-0.74988 0.75026,-0.74974c0.41421,0.00014 0.74988,0.33605 0.74974,0.75026c-0.00014,0.41421 -0.33605,0.74988 -0.75026,0.74974c-0.41421,-0.00014 -0.74988,-0.33605 -0.74974,-0.75026z" stroke="none" stroke-width="0.5"/><path d="M339.52509,131.8401c0.00014,-0.41421 0.33605,-0.74988 0.75026,-0.74974c0.41421,0.00014 0.74988,0.33605 0.74974,0.75026c-0.00014,0.41421 -0.33605,0.74988 -0.75026,0.74974c-0.41421,-0.00014 -0.74988,-0.33605 -0.74974,-0.75026z" stroke="none" stroke-width="0.5"/></g></g><path d="M311.86822,136.20511l7.89706,-23.87686l8.30695,23.88248c0,0 -4.65035,4.78682 -8.43517,4.78551c-3.7848,-0.00131 -7.76885,-4.79112 -7.76885,-4.79112z" fill="#ba2d2d" stroke="#000000" stroke-width="0"/><path d="M281.4375,159.64285c-2.76228,-2.97963 -9.03044,-10.59799 -7.7345,-17.15198c1.6346,-8.26669 7.94318,-24.42938 7.94318,-24.42938c0,0 3.70042,16.01577 7.25814,21.95472c1.69702,2.83285 6.28508,6.37312 9.31275,8.51954c1.65183,1.17103 -2.01471,7.27674 -5.86364,9.8245c-3.84891,2.54776 -10.15696,2.1013 -10.91594,1.28261z" fill="#ba2d2d" stroke="#000000" stroke-width="0"/><path d="M261.37844,127.00991l-20.62854,-32.74491l37.08728,9.6226c0,0 -0.22613,7.97557 -4.25739,13.91768c-4.29118,6.32525 -12.20135,9.20464 -12.20135,9.20464z" fill="#ba2d2d" stroke="#000000" stroke-width="0"/></g></g></g></g></svg>