<svg version="1.1" xmlns="http://www.w3.org/2000/svg" xmlns:xlink="http://www.w3.org/1999/xlink" width="389.12955" height="266.40744" viewBox="0,0,389.12955,266.40744"><g transform="translate(-129.18898,-56.11735)"><g stroke="none" stroke-miterlimit="10"><path d="M129.18898,62.08505h389.12955v260.43974h-389.12955z" fill="#ffffff" fill-rule="evenodd" stroke-width="2.07968" stroke-linecap="round" stroke-linejoin="round"/><text transform="translate(227.36255,77.86735) scale(0.5,0.5)" font-size="40" xml:space="preserve" fill="#000000" fill-rule="nonzero" stroke-width="1" stroke-linecap="butt" stroke-linejoin="miter" font-family="Sans Serif" font-weight="normal" text-anchor="start"><tspan x="0" dy="0">Bonus Credits</tspan></text><path d="M169.46967,133.96967c0.21263,-0.21263 0.42524,-0.25476 0.60369,-0.22893c0.08623,-0.84769 0.43405,-1.72379 0.77953,-2.40803c-0.14818,-0.03312 -0.30036,-0.06314 -0.45692,-0.08997c-0.65854,-0.11285 -1.36767,-0.31557 -2.00168,-0.10476c-0.7441,0.24742 -0.14198,3.50435 0.44111,3.69119c0,0 0.67082,0.33541 0.33541,1.00623c-0.33541,0.67082 -1.00623,0.33541 -1.00623,0.33541c-0.43419,-0.25884 -1.06599,-0.32981 -1.30258,-0.77652c-0.41516,-0.78385 -0.38443,-3.65325 0.26949,-4.96095c-0.96339,-0.21101 -1.91061,-0.44736 -2.83754,-0.7122c0,0 -0.72115,-0.20604 -0.51511,-0.92719c0.20604,-0.72115 0.92719,-0.51511 0.92719,-0.51511c8.11829,2.31951 17.84894,2.40389 26.28598,2.45316c10.1431,0.06062 20.29888,1.01765 30.50043,1.01792c5.50465,0.00015 10.98737,0.50007 16.50755,0.50007c1.10691,0 5.03519,-0.539 5.93854,0.14157c1.97379,1.48704 0.22085,5.56453 -0.21844,7.31812c-1.11858,3.29552 -1.37138,6.94511 -1.95487,10.33804c-0.20513,1.19282 0.16782,4.95971 -0.65679,5.89081c-0.23575,0.2662 -2.7386,1.06209 -3.21731,1.22166c-2.7461,0.91537 -5.78693,1.71438 -8.21571,3.29147c-1.87656,0.73749 -3.09674,1.85746 -4.84,2.71916c-0.59661,0.2949 -1.3986,0.0817 -1.94111,0.46717c-0.3038,0.21586 -0.162,0.84302 -0.5,1c-1.49551,0.69457 -4.73852,0.11201 -6.3943,0.11201c-4.55609,0 -9.11687,0.0579 -13.67231,-0.02006c-2.97617,-1.48808 -6.82848,0.25928 -10,-0.5c-2.56002,-0.61289 -5.42939,0.11542 -8,-0.5c-2.62915,-0.62943 -5.14848,-1.43289 -7.95282,-1.49045c-2.0128,-0.67006 -4.51823,-1.62677 -6.54718,-2.00955c-1.25965,-0.23765 -1.86418,0.48401 -2.89427,-0.73854c-0.59296,-0.70375 -0.49222,-1.81925 -1.04394,-2.55578c-3.06613,-4.09325 -7.13948,-8.17186 -7.13948,-13.43562c0.01325,-3.75171 2.16971,-6.91428 2.52228,-10.64787l0.55163,-1.17676c0,0 0.32464,-0.6761 1.00073,-0.35146c0.6761,0.32464 0.35146,1.00073 0.35146,1.00073l-0.45729,0.9244c-0.29233,3.59802 -2.48313,6.66016 -2.46881,10.25096c0,3.90166 1.65453,5.07811 3.85258,8.05346c1.60466,2.17212 2.56021,4.77838 3.96401,6.95514c0.38333,0.59441 1.41352,0.11613 2.10573,0.26146c2.05804,0.43209 4.42188,1.31259 6.45282,1.99045c2.80795,0.01402 5.42761,0.82167 8.04718,1.50955c2.52477,0.66298 5.44035,-0.17215 8,0.5c3.16629,0.83145 6.97008,-1.01496 10,0.5c4.43808,-0.10758 8.88832,-0.02006 13.32769,-0.02006c1.16166,0 4.66467,0.63242 5.6057,0.11201c0.32613,-0.18035 0.18526,-0.80042 0.5,-1c0.59868,-0.37964 1.4267,-0.21206 2.05889,-0.53283c1.70749,-0.86638 2.96324,-1.99 4.827,-2.71259c2.49723,-1.6115 5.60729,-2.44013 8.42518,-3.37942c0.81125,-0.27042 1.8194,-0.12643 2.47479,-0.6757c0.44403,-0.37213 -0.25639,-1.17036 -0.12151,-1.73378c0.31239,-1.30487 0.28595,-2.13933 0.51604,-3.52937c0.57182,-3.4546 0.89016,-7.14218 1.99381,-10.50801c0.20767,-0.83245 1.8471,-4.99023 0.78156,-5.68188c-0.65058,-0.42229 -4.24764,0.14157 -5.06146,0.14157c-5.51997,0 -11.00346,-0.49992 -16.50759,-0.50007c-10.20444,-0.00027 -20.36378,-0.95731 -30.50936,-1.01795c-5.012,-0.03063 -10.46251,-0.07769 -15.77442,-0.58213c0.89628,0.60216 1.70734,1.31754 2.34346,2.11423c0.4258,0.01634 0.76863,0.04588 0.8422,0.09794c0.58995,0.41738 1.43835,2.47668 0.63603,3.16832c-0.08798,0.07584 -0.1799,0.14211 -0.27533,0.19956c-0.16948,0.75116 -0.72172,1.38705 -1.75169,1.80879c-0.55705,0.22809 -2.74784,0.19553 -3.34196,0.2013c-1.09401,-0.31121 -1.96197,-0.34799 -2.73284,-1.25428c-0.2916,-0.34282 -0.47326,-0.77371 -0.62142,-1.19868c-0.18827,-0.54001 -0.27196,-0.98836 -0.2697,-1.36014l-0.56772,-0.39655c0,0 -0.53033,-0.53033 0,-1.06066zM171.45094,136.22855c0.46807,0.8505 1.57904,1.29354 2.40555,1.52418c0.71732,-0.01391 2.23592,0.19959 3.07301,-0.24853c-1.4503,-0.19861 -3.05911,-1.06067 -4.07133,-1.26773c-0.52134,-0.10664 -0.97872,0.03455 -1.40723,-0.00792zM171.60402,133.7865c0.76264,-0.15029 1.70888,-0.11541 2.61548,-0.07613c-0.16248,-0.68634 -1.96186,-1.50518 -2.3252,-1.57237c-0.10359,0.33676 -0.24316,1.05081 -0.29028,1.64851zM177.16994,135.9718c-0.19199,-0.32968 -0.45617,-0.65624 -0.69547,-0.92215c-0.48903,0.02265 -1.04833,0.07865 -1.52462,0.12571c-0.03833,0.04603 -0.07921,0.09071 -0.1227,0.13394c0.76413,0.29246 1.524,0.58744 2.34279,0.6625z" fill="#000000" fill-rule="nonzero" stroke-width="0.5" stroke-linecap="butt" stroke-linejoin="miter"/><path d="M132.75,166c0,-0.75 0.75,-0.75 0.75,-0.75l1.3943,0.11201c0.56021,0.97561 1.82764,1.32526 2.63603,2.10766c1.23155,1.19195 3.13925,2.47761 5.07474,3.37321c0.33534,-0.21121 0.73034,-0.0137 0.73034,-0.0137l0.83691,0.44088c3.73129,-0.09044 8.56717,0.90443 12.15537,0c1.42514,-0.35922 3.06284,-1.59714 4.25629,-2.3941c0,0 0.08166,-0.05444 0.20561,-0.09439c-0.0702,-0.15772 -0.0872,-0.36338 0.0396,-0.61697c0.33541,-0.67082 1.00623,-0.33541 1.00623,-0.33541c2.15777,1.19075 3.12229,4.5597 5.15599,6.10423c4.42357,3.35956 10.59758,5.75499 15.66855,8.30473c2.50075,1.27028 5.58407,1.62042 8.30981,2.26941c7.04235,1.67675 14.30893,2.24245 21.53024,2.24245c6.39759,0.02552 12.64407,-3.09364 16.96967,-7.28033c2.11197,-2.04414 4.72724,-2.70533 6.37865,-5.34091c1.5121,-3.02186 3.98824,-5.55781 3.90168,-9.12876v-0.5c0,0 0,-0.75 0.75,-0.75c0.75,0 0.75,0.75 0.75,0.75v0.5c-0.06698,3.91354 -2.4291,6.53017 -4.09832,9.87124c-1.21129,1.84371 -2.94693,3.42508 -4.71314,4.73719c-0.56706,0.42126 -1.419,0.4123 -1.90821,0.9219c-4.41372,4.5978 -11.3891,7.69622 -18.03033,7.71967c-7.338,0 -14.72175,-0.57945 -21.87767,-2.28324c-2.85692,-0.68022 -6.00444,-1.07703 -8.63621,-2.38849c-5.1715,-2.60029 -11.4777,-5.03473 -15.97752,-8.51168c-1.51476,-1.17043 -2.76111,-4.30045 -4.24261,-5.52073c-0.02108,0.35892 -0.34996,0.57818 -0.34996,0.57818c-1.3411,0.89266 -3.14157,2.2077 -4.74371,2.6059c-3.18777,0.7923 -7.40414,0.28935 -10.98454,0.07709c-0.22951,0.58062 -0.86968,0.42058 -0.86968,0.42058c-2.82201,-0.72139 -6.47418,-2.74502 -8.34843,-4.69728c-0.8624,-0.89829 -1.80657,-0.52577 -2.36397,-1.89234l-0.60571,0.11201c0,0 -0.75,0 -0.75,-0.75z" fill="#000000" fill-rule="nonzero" stroke-width="0.5" stroke-linecap="butt" stroke-linejoin="miter"/><path d="M246.28303,116.28548c0.0605,-0.22164 0.23182,-0.53548 0.71697,-0.53548c0.75,0 0.75,0.75 0.75,0.75l-0.75,1.25c-1.94164,0 -5.54347,0.68983 -7.03033,-0.71967c-2.44639,-2.31911 -1.21087,-7.04204 1.85548,-7.7033l-0.55509,-1.15471c0.02708,-0.64732 -0.48736,-1.21728 -0.87849,-1.73378c-0.42647,-0.56315 -0.44762,-1.38468 -0.9219,-1.9082c-0.71773,-0.79225 -3.49931,-0.28033 -4.46967,-0.28033c-5.14369,0 -10.81911,-0.54763 -15.57957,1.51843c-5.1515,0.86681 -10.98242,4.82832 -12.91253,9.74284c-1.07747,2.74351 -0.88697,5.94763 -1.79639,8.7259c0,0 -0.23717,0.71151 -0.94868,0.47434c-0.71151,-0.23717 -0.47434,-0.94868 -0.47434,-0.94868c0.95005,-2.79142 0.74733,-6.00946 1.82139,-8.79519c2.04683,-5.30871 8.32334,-9.71328 13.89036,-10.63914c4.50503,-1.88005 9.65444,-1.57849 14.49976,-1.57849c1.63589,0 4.09332,-0.42903 5.67231,0.02007c1.59423,0.45342 3.50769,3.5545 3.55762,5.05762l0.44088,0.83691c0,0 0.24026,0.48052 -0.0926,0.83152c0.09959,0.1107 0.17178,0.27119 0.17178,0.50388c0,0.75 -0.75,0.75 -0.75,0.75c-2.37686,-0.05761 -2.92586,3.6123 -1.46967,5.21967c0.6971,0.76947 3.63717,0.43463 5.2527,0.31581z" fill="#000000" fill-rule="nonzero" stroke-width="0.5" stroke-linecap="butt" stroke-linejoin="miter"/><path d="M242.75,111c0,-0.75 0.75,-0.75 0.75,-0.75l0.86771,0.09633c1.38081,0.84122 1.15246,1.93443 2.4677,2.48285c0,0 0.67082,0.33541 0.33541,1.00623c-0.33541,0.67082 -1.00623,0.33541 -1.00623,0.33541c-1.48965,-0.82206 -1.1517,-1.83827 -2.53231,-2.51715l-0.13229,0.09633c0,0 -0.75,0 -0.75,-0.75z" fill="#000000" fill-rule="nonzero" stroke-width="0.5" stroke-linecap="butt" stroke-linejoin="miter"/><path d="M254,173.75c0.75,0 0.75,0.75 0.75,0.75l-0.41272,-0.16988c1.73374,0.87399 3.36477,1.88217 4.9103,3.05615c0.83655,0.63545 2.17316,2.15501 3.25243,2.36373c0.5095,0.09853 2.14541,-3.0702 2.37981,-3.4218c2.08175,-3.12261 3.78091,-6.3271 5.45426,-9.67323c4.33029,-8.07257 7.28999,-16.58411 9.20995,-25.61705c1.22321,-5.73494 2.66249,-10.72457 1.7,-16.57225c-0.07592,-0.4613 -0.10161,-3.49376 -0.63912,-3.76082c-0.70745,-0.35151 -1.37989,0.77058 -2.08623,1.12432c-1.74037,0.87159 -3.36737,1.78193 -5.00894,2.82707c-7.36842,4.68455 -15.67204,7.20528 -22.52961,12.91992c0,0 -0.57616,0.48014 -1.0563,-0.09602c-0.48014,-0.57617 0.09601,-1.05631 0.09601,-1.05631c6.9178,-5.76483 15.26769,-8.30381 22.6843,-13.0329c2.01862,-1.28521 4.22396,-2.81549 6.50883,-3.58384c0.65711,-0.22097 1.39807,-0.7498 2.02814,-0.46063c1.34129,0.61557 1.29868,3.75593 1.48298,4.8756c0.9962,6.05193 -0.45761,11.20097 -1.71287,17.12775c-1.94608,9.1549 -4.95533,17.81406 -9.34533,25.99522c-1.92556,3.85179 -3.97002,7.46743 -6.37009,11.0633c-0.69243,1.03741 -1.18658,2.87585 -2.79584,2.84168c-1.00993,-0.02145 -2.24034,-1.1966 -2.97358,-1.76773c-1.85934,-1.44827 -3.7543,-2.75168 -5.8637,-3.81239l-0.41272,-1.16988c0,0 0,-0.75 0.75,-0.75z" fill="#000000" fill-rule="nonzero" stroke-width="0.5" stroke-linecap="butt" stroke-linejoin="miter"/><path d="M129.66459,105.17082c-0.67082,-0.33541 -0.33541,-1.00623 -0.33541,-1.00623l0.53338,-1.05978c2.65093,-3.53194 5.21334,-6.70146 9.22689,-8.73772c0.19111,-0.1375 0.37697,-0.15143 0.53233,-0.11755c0.191,0.02052 0.40217,0.12133 0.54904,0.41506c0.00344,0.00688 0.00678,0.01373 0.01001,0.02055l0.56917,0.81486c0,1.78616 0.46747,4.08624 1.78033,5.46967c0.80991,0.85344 2.05494,1.52705 2.65541,2.72658c0.36291,0.72496 0.32954,1.61565 0.73207,2.31938c4.84091,7.0921 13.46752,12.3752 16.29371,20.7472c0,0 0.23717,0.71151 -0.47434,0.94868c-0.71151,0.23717 -0.94868,-0.47434 -0.94868,-0.47434c-2.68684,-8.1784 -11.42081,-13.51297 -16.14781,-20.43481c-0.41614,-0.77226 -0.43112,-1.71547 -0.82641,-2.49861c-0.51737,-1.025 -1.6873,-1.52291 -2.34459,-2.27342c-1.42768,-1.63017 -2.1194,-3.95764 -2.2095,-6.05865c-3.47789,1.90699 -5.73548,4.77689 -8.12274,7.92351l-0.46662,0.94022c0,0 -0.33541,0.67082 -1.00623,0.33541z" fill="#000000" fill-rule="nonzero" stroke-width="0.5" stroke-linecap="butt" stroke-linejoin="miter"/><path d="M222.5,181.75c-0.75,0 -0.75,-0.75 -0.75,-0.75v-1c0.05025,-2.07312 -3.2425,-2.14845 -5.07769,-1.77006c-3.9869,0.82205 -8.42231,1.22125 -8.42231,6.27006c0,0 0,0.75 -0.75,0.75c-0.75,0 -0.75,-0.75 -0.75,-0.75c0,-5.86757 4.89652,-6.81893 9.57769,-7.72994c2.83453,-0.55164 6.86527,-0.10309 6.92231,3.22994v1c0,0 0,0.75 -0.75,0.75z" fill="#000000" fill-rule="nonzero" stroke-width="0.5" stroke-linecap="butt" stroke-linejoin="miter"/><path d="M203.33541,140.32918c0.67082,0.33541 0.33541,1.00623 0.33541,1.00623l-0.5,1c-2.78536,5.57071 -7.21089,10.88925 -13.74989,10.92266c-4.28349,0.01253 -8.74052,1.85011 -13.07568,0.97579c-0.22187,-0.04475 -2.4621,-1.09635 -2.71236,-1.18239c-3.2069,-1.10253 -6.38289,-1.71459 -6.38289,-5.55147c0,0 0,-0.75 0.75,-0.75c0.75,0 0.75,0.75 0.75,0.75c0,2.94467 2.76386,3.23324 5.37146,4.13327c0.8744,0.30181 1.62613,0.95198 2.53329,1.13287c4.19845,0.8372 8.59913,-0.97851 12.75852,-1.00805c5.94423,-0.03035 9.87632,-5.01431 12.41591,-10.0935l0.5,-1c0,0 0.33541,-0.67082 1.00623,-0.33541z" fill="#000000" fill-rule="nonzero" stroke-width="0.5" stroke-linecap="butt" stroke-linejoin="miter"/><path d="M228.83541,145.82918c0.67082,0.33541 0.33541,1.00623 0.33541,1.00623l-0.63213,1.18642c-2.04556,1.15892 -3.48309,3.61264 -5.86638,4.20811c-3.78253,0.94508 -9.34766,-1.74559 -9.42231,-5.72994c0,0 0,-0.75 0.75,-0.75c0.75,0 0.75,0.75 0.75,0.75c-0.07567,3.01598 4.86478,4.9489 7.57769,4.27006c2.07336,-0.5188 3.29489,-2.85517 5.13362,-3.79189l0.36787,-0.81358c0,0 0.33541,-0.67082 1.00623,-0.33541z" fill="#000000" fill-rule="nonzero" stroke-width="0.5" stroke-linecap="butt" stroke-linejoin="miter"/><path d="M209.63052,135.06381c-0.0776,-0.6367 -0.01656,-1.23843 0.33915,-1.59414c0.26703,-0.26703 2.04555,-0.21967 2.53033,-0.21967c0.33859,0 0.81874,-0.00158 1.35056,0.01882c0.25126,-0.06437 0.51763,-0.04272 0.78883,0.04696c1.89619,0.15841 3.89147,0.69735 2.50863,2.52877c0.63206,1.15955 0.92652,2.40555 0.48997,3.04974c-0.92182,1.36023 -4.47031,2.57099 -6.03229,1.74369c-0.84436,-0.44721 -1.25808,-1.1542 -1.38674,-1.94624c-1.09264,-0.40716 -2.04875,-1.94096 -1.35695,-3.08605c0.12688,-0.21003 0.40184,-0.39118 0.76851,-0.54189zM211.00763,134.69433c0.13785,-0.02381 0.27826,-0.04515 0.42002,-0.06398c0.04701,-0.05955 0.09434,-0.11634 0.14178,-0.17011c-0.20711,-0.06251 -0.39597,-0.07304 -0.5391,0.07009c-0.02442,0.02442 -0.03049,0.08228 -0.0227,0.16399zM213.27256,136.13027c-0.00232,-0.0098 -0.00462,-0.0196 -0.0069,-0.02939c-0.37345,0.01341 -0.82824,0.03726 -1.27287,0.07568c-0.00986,0.02364 -0.01955,0.0478 -0.02905,0.07242c0.01761,-0.00083 0.03521,-0.00172 0.05281,-0.00266c0.41978,-0.02232 0.83651,-0.09276 1.25602,-0.11605zM214.21163,139.02071c-0.10018,-0.27313 -0.2557,-0.68022 -0.42026,-1.15412c-0.34251,0.13811 -0.7198,0.28197 -1.09828,0.41311c0.41054,0.45835 0.90697,0.77722 1.51854,0.74102z" fill="#000000" fill-rule="nonzero" stroke-width="0.5" stroke-linecap="butt" stroke-linejoin="miter"/><path d="M501.98114,169.82467c0.36055,-0.36055 0.72109,0 0.72109,0l0.4376,0.47682c2.0908,4.29798 2.14517,9.68506 2.9364,14.43051c0.63319,3.80064 1.17726,8.30704 -0.43246,11.94072c-1.1273,2.54469 -3.29672,4.55695 -4.55563,7.07205c-2.32403,3.81496 -3.03208,8.06717 -1.46904,12.32994c0.24836,0.67733 0.7778,2.58 1.39989,3.02372c0.62219,0.44379 1.53892,0.58425 2.21472,1.0782c0.87093,0.64861 2.09776,0.76988 2.63837,1.82184c0.05379,0.10467 0.03891,1.87533 0.03881,1.89475c-0.0114,2.18445 -1.56564,5.66678 -3.23176,7.18073c-1.09136,0.99168 -3.7234,0.46756 -5.09638,0.46756c0,0 -0.50989,0 -0.50989,-0.50988c0,-0.50988 0.50989,-0.50988 0.50989,-0.50988c0.93232,0 3.73507,0.49552 4.42149,-0.21229c1.40455,-1.44833 2.89842,-4.42293 2.88688,-6.41623c-0.0029,-0.50165 0.25333,-1.05101 0.03881,-1.5045c-0.28967,-0.61236 -1.75849,-0.99718 -2.29994,-1.39023c-0.6655,-0.49159 -1.65893,-0.64758 -2.26018,-1.11362c-0.79384,-0.61532 -1.38047,-2.56793 -1.70799,-3.45867c-1.66307,-4.52294 -0.9422,-9.12124 1.53418,-13.17543c1.24029,-2.48337 3.41424,-4.47978 4.51466,-6.98944c1.51529,-3.45583 0.96135,-7.75314 0.35968,-11.3617c-0.77234,-4.63589 -0.7962,-9.96446 -2.84694,-14.15087l-0.24225,-0.20303c0,0 -0.36055,-0.36055 0,-0.72109z" fill="#000000" fill-rule="nonzero" stroke-width="0.5" stroke-linecap="butt" stroke-linejoin="miter"/><path d="M510.49984,178.51335c0.50988,-0.00003 0.50991,0.50986 0.50991,0.50986l0.00005,0.78472c0.00014,1.355 -0.00719,2.70907 0.03318,4.06351c0.19994,6.91109 3.71842,13.25555 3.7036,20.0151c-0.90218,4.71679 -3.54108,7.75785 -6.84941,11.1037c-1.04482,1.05667 -2.24576,3.16924 -3.51593,3.29424c0,0 -0.50988,0 -0.50988,-0.50988c0,-0.50988 0.50988,-0.50989 0.50988,-0.50989c0.26216,0.0661 2.21576,-2.40992 2.7908,-2.99148c3.13355,-3.16907 5.67895,-6.02809 6.55946,-10.48435c-0.0023,-0.94989 0.24639,-2.32715 0.0113,-3.23326c-0.64807,-2.4978 -1.79214,-4.9362 -2.37988,-7.48008c-0.67487,-2.92096 -1.24787,-6.18021 -1.33926,-9.17376c-0.04053,-1.36455 -0.03348,-2.72867 -0.03362,-4.09376l-0.00005,-0.78474c0,0 -0.00003,-0.50989 0.50986,-0.50992z" fill="#000000" fill-rule="nonzero" stroke-width="0.5" stroke-linecap="butt" stroke-linejoin="miter"/><path d="M466.10789,223.2306c-0.37691,0.34339 -0.72031,-0.03352 -0.72031,-0.03352l-0.46417,-0.57441c-0.69356,-2.13041 -2.42124,-3.21849 -3.67469,-4.95451c-1.85038,-2.56276 -2.16619,-5.53073 -1.41767,-8.53511c0,0 0.12366,-0.49466 0.61832,-0.37099c0.49466,0.12366 0.371,0.61832 0.371,0.61832c-0.6824,2.7197 -0.42069,5.36885 1.25519,7.6909c1.32486,1.83569 3.0529,2.98651 3.81529,5.2289l0.25056,0.2101c0,0 0.34339,0.37692 -0.03352,0.72031z" fill="#000000" fill-rule="nonzero" stroke-width="0.5" stroke-linecap="butt" stroke-linejoin="miter"/><path d="M460.02113,201.11831c0,0.50988 -0.50988,0.50988 -0.50988,0.50988h-0.67985c-1.33722,0 -2.28303,-0.3699 -3.51639,-0.69349c-1.91514,-0.50247 -4.19387,0.10611 -6.11165,-0.33832c-1.7138,-0.39717 -3.48946,-0.82893 -5.18383,-1.38647c-2.8496,-1.44833 -6.61123,-2.15319 -8.99517,-4.52145c-1.98958,-1.97649 -3.67765,-5.20125 -4.89796,-7.71049c-0.14421,-1.70426 -1.1017,-3.14988 -1.37171,-4.81375c-0.38719,-2.38596 -0.00658,-5.14203 -0.00658,-7.56c0,-1.45675 -0.24403,-2.98039 0.39375,-4.30712c0,0 0.22803,-0.45605 0.68408,-0.22802c0.45605,0.22803 0.22803,0.68408 0.22803,0.68408c-0.66195,1.25654 -0.28609,3.11435 -0.28609,4.53091c0,2.14205 -0.34943,4.60407 -0.00658,6.71681c0.26364,1.62461 1.22755,3.0317 1.34767,4.70413c1.22716,2.36936 2.74865,5.33108 4.61992,7.24618c2.21742,2.26934 5.97027,2.98119 8.68089,4.31658c1.63527,0.55384 3.36075,0.9154 5.0139,1.33293c1.89459,0.47851 4.19828,-0.12023 6.12562,0.34152c1.16487,0.27908 2.03256,0.66621 3.28208,0.66621h0.67985c0,0 0.50988,0 0.50988,0.50988z" fill="#000000" fill-rule="nonzero" stroke-width="0.5" stroke-linecap="butt" stroke-linejoin="miter"/><path d="M464.63073,195.31898c0.36055,0.36055 0,0.72108 0,0.72108l-0.47244,0.43544c-0.71504,0.35752 -1.42988,0.71358 -2.15042,1.05996c-1.15875,0 -2.03961,0.58397 -3.29361,0.33993c-4.00826,-0.78006 -8.29508,-1.68598 -12.46004,-1.68598c0,0 -0.50989,-0.00001 -0.50989,-0.50989c0,-0.50988 0.50989,-0.50988 0.50989,-0.50988c4.22613,0 8.62949,0.87515 12.69434,1.71326c1.06594,0.21978 1.81976,-0.33992 2.82503,-0.33992c0.63822,-0.33622 1.28346,-0.65699 1.92866,-0.97959l0.20741,-0.24441c0,0 0.36055,-0.36055 0.72109,0z" fill="#000000" fill-rule="nonzero" stroke-width="0.5" stroke-linecap="butt" stroke-linejoin="miter"/><path d="M474.29794,116.81712c0,0 0,0.50988 -0.50988,0.50988c-0.50988,0 -0.50988,-0.50988 -0.50988,-0.50988c0,-0.74957 -0.00856,-1.222 0.20874,-1.82948c-0.06759,-0.02325 -0.13434,-0.04536 -0.20002,-0.06627c0,0 -0.48372,-0.16124 -0.32248,-0.64496c0.00102,-0.00307 0.00205,-0.0061 0.00311,-0.00911c-0.17977,0.00025 -0.35949,0.00039 -0.53915,0.00039c-7.0923,0 -14.03402,-0.10656 -21.01491,1.28973c-6.71943,1.34389 -13.26999,4.2933 -17.71167,9.64074c-3.91566,4.68319 -3.9339,10.32622 -3.9339,16.0935c0,0 0,0.50988 -0.50988,0.50988c-0.50988,0 -0.50988,-0.50988 -0.50988,-0.50988c0,-6.02566 0.10523,-11.85329 4.17026,-16.74634c4.61206,-5.51781 11.33525,-8.5959 18.29508,-9.98786c7.04823,-1.40953 14.05464,-1.30953 21.2149,-1.30953c7.01713,0 14.10123,-0.19777 20.84429,2.04827c4.76211,1.58737 10.07471,2.19106 13.83892,5.9099c1.32722,1.31123 2.39472,3.05173 3.50002,4.55234c1.3648,4.02556 1.44857,7.79231 1.41793,12.05495c-0.00602,0.83782 -0.35924,1.32161 -0.33992,2.11858v0.33992c0,0 0,0.50988 -0.50988,0.50988c-0.50988,0 -0.50988,-0.50988 -0.50988,-0.50988v-0.33992c0.08146,-4.7596 0.57347,-9.00739 -0.96153,-13.70025c-1.07333,-1.39876 -2.04792,-3.04141 -3.29845,-4.28569c-3.62146,-3.60335 -8.86584,-4.15113 -13.45969,-5.68241c-5.82347,-1.94263 -11.92073,-2.01262 -17.99354,-2.0008c0.03536,0.08649 0.03807,0.16917 0.02452,0.24256c1.01934,0.4784 2.02023,1.13138 2.61981,2.0136c0.44263,0.6513 0.794,1.49365 -0.14558,2.09157c-0.43113,0.27436 -2.18189,0.07249 -2.76468,0.06252l-0.79073,-0.38012c0,0 -0.45605,-0.22803 -0.22803,-0.68408c0.22803,-0.45606 0.6841,-0.22803 0.6841,-0.22803l0.56896,0.29973c0.58483,-0.01417 1.44944,0.17148 1.99426,0.06251c0.47895,-0.09579 -0.43378,-0.89319 -0.77233,-1.24527c-0.41805,-0.43475 -1.06019,-0.82574 -1.72373,-1.13331c-0.17176,0.47528 -0.12523,0.83739 -0.12523,1.45261z" fill="#000000" fill-rule="nonzero" stroke-width="0.5" stroke-linecap="butt" stroke-linejoin="miter"/><path d="M467.3295,115.62738c0.50988,0 0.50989,0.50988 0.50989,0.50988l-0.01364,0.5627c1.00895,1.91523 0.46644,4.65159 -2.19587,4.70612c-0.78904,0.01617 -2.27209,0.25279 -2.81321,-0.58175c-0.45598,-0.70323 0.44355,-2.77256 0.74415,-3.40846c0.5433,-1.14932 1.18005,-1.44587 2.04844,-2.31901c0,0 0.36055,-0.36055 0.72109,0c0.36055,0.36055 0,0.72109 0,0.72109c-0.45605,0.45382 -1.08129,0.72617 -1.49995,1.21468c-0.54386,0.6346 -0.56355,1.55993 -0.74382,2.28109c-0.08522,0.34095 -0.6115,0.692 -0.40243,0.97449c0.13153,0.17772 0.84539,0.09879 0.92595,0.0981c1.24858,-0.01076 2.4927,-0.14095 2.903,-1.64681c0.15254,-0.55987 -0.46173,-1.35151 -0.67985,-1.80525l-0.01364,-0.797c0,0 0,-0.50988 0.50988,-0.50988z" fill="#000000" fill-rule="nonzero" stroke-width="0.5" stroke-linecap="butt" stroke-linejoin="miter"/><path d="M460.95889,116.182l-0.06733,0.31581c-0.40312,0.39807 -0.94737,0.63125 -1.3597,1.01977c-0.23467,0.22111 -0.21771,0.77877 -0.53922,0.80303c-1.72289,0.12997 -1.49007,-1.05753 -0.86171,-1.86404c0.48474,-0.62216 1.26815,-0.65439 1.93984,-0.88365c0.05826,-0.13679 0.18492,-0.28547 0.46026,-0.28547c0.03566,0 0.06883,0.0025 0.09968,0.00714c0.07796,-0.05711 0.15152,-0.12234 0.21963,-0.19772c0,0 0.36054,-0.36055 0.72109,0c0.36055,0.36055 0,0.72109 0,0.72109c-0.05674,0.05306 -0.29478,0.19378 -0.61252,0.36404z" fill="#000000" fill-rule="nonzero" stroke-width="0.5" stroke-linecap="butt" stroke-linejoin="miter"/><path d="M240.28849,244.73717c-0.20006,-0.45441 0.38126,-0.92323 0.48158,-1.40949c0.00794,-0.03848 0.01477,-0.07751 0.02058,-0.11705c-0.9082,0.05869 -2.46295,0.03952 -2.79065,0.03937c-4.07711,-0.00194 -8.14493,-0.48035 -12.24962,-0.49941c-1.49278,6.53206 -5.2779,12.74372 -9.3158,17.68017c-6.88707,8.36989 -19.34948,9.31895 -29.37951,9.31917c-6.80237,0.00015 -14.58191,-0.09281 -21.25497,-2.56082c-0.15947,0.0609 -0.3001,0.0609 -0.3001,0.0609c-1.69202,-0.04473 -3.20919,-1.22851 -4.57125,-2.46088c-1.26612,-0.81293 -2.45848,-1.75894 -3.55723,-2.8598c-0.3402,-0.45768 -0.65921,-0.92013 -0.95821,-1.38724c-3.6039,-3.79052 -5.97292,-7.99179 -6.11814,-13.74343c-0.0908,-3.60138 0.76478,-7.10872 2.34647,-10.26071c0.24228,-1.12592 0.63029,-2.26106 1.24992,-3.47647c1.32184,-1.33774 2.72438,-2.53775 4.19589,-3.60727c2.89573,-2.57869 6.43411,-4.47065 10.32881,-5.33623c10.41017,-2.28713 20.14631,-4.36466 30.84639,-4.3673c5.72123,-0.00141 12.63806,-0.74459 18.25573,1.44511c0.32961,0.02302 0.66123,0.0418 0.99567,0.05435l0.98595,-0.00013c0,0 0.75,0 0.75,0.75c0,0.21787 -0.06329,0.37246 -0.1531,0.48213c0.41605,0.26054 0.82098,0.54413 1.21347,0.85274c2.28958,1.80023 3.54681,5.1993 4.32286,7.90137c0.93638,3.31999 0.98833,6.6995 0.41756,10.016c3.53464,0.02854 6.9757,0.32233 10.49581,0.4992c0.59836,0.03006 3.58052,0.42205 4.01486,0.14012c0.06088,-0.03951 0.1022,-0.19613 0.13022,-0.40403c-0.07475,-0.5883 -0.12327,-1.15348 0.05832,-1.58366v-1.40388c0,-0.41421 0.33579,-0.75 0.75,-0.75c0.41421,0 0.75,0.33579 0.75,0.75v1.5h-0.00888l0.00883,0.00893c-0.01082,0.35206 -0.00456,0.78206 -0.03829,1.21696c0.1018,0.23087 0.04322,0.44452 -0.03351,0.59353c1.22718,0.70068 2.75199,1.53519 3.8156,2.43058c0.00209,0 0.00417,0 0.00626,0h1.5c0.41421,0 0.75,0.33579 0.75,0.75c0,0.41421 -0.33579,0.75 -0.75,0.75h-1.5c-1.40492,0 -4.97459,0.66099 -5.71151,-1.01283zM243.09978,244.30586c-0.40194,-0.26892 -0.81976,-0.57303 -1.28705,-0.89333c-0.03774,0.2747 -0.07295,0.55706 -0.10122,0.8503c-0.04626,0.47989 0.76202,0.17861 1.38827,0.04303zM198.27576,221.25687c-2.86809,0.03523 -5.66859,0.21912 -8.43462,0.51403c0.55718,0.01892 1.0984,0.01922 1.61226,-0.01945c2.28954,-0.17229 4.55827,-0.34362 6.82236,-0.49458zM152.24596,242.09115c-0.33357,1.52272 -0.49125,3.08826 -0.45127,4.66963c0.06817,2.69987 0.66361,5.0214 1.66538,7.10959c-0.91326,-3.2903 -1.21007,-6.7566 -1.21007,-10.37037c0,-0.48494 -0.00265,-0.95348 -0.00404,-1.40885zM161.12193,262.94924c1.31487,0.76277 2.71942,1.30562 4.30166,1.97763c2.97534,1.26369 6.48263,2.94485 9.72075,3.32847c3.8441,0.45541 8.0352,-0.00533 11.9107,-0.00541c9.49362,-0.0002 21.71073,-0.75973 28.21849,-8.76888c6.02367,-7.3641 11.77683,-17.96802 8.91741,-27.83271c-0.67733,-2.38407 -1.78398,-5.5431 -3.80771,-7.1343c-0.97921,-0.76992 -2.04868,-1.37152 -3.18248,-1.83993c-1.92332,-0.14883 -3.78346,-0.4241 -5.74927,-0.4241c-6.72802,0 -13.22568,0.50218 -19.90488,0.99855c-2.75073,0.20442 -6.38167,-0.76708 -8.86876,0.48006c-8.75546,0.24337 -16.91648,2.0178 -23.78848,7.0018c-1.98461,1.81206 -3.63617,3.97471 -4.84556,6.35286c-0.396,2.01245 -0.2938,3.9951 -0.2938,6.41672c0,5.79651 0.74657,11.22256 3.83018,16.09735c0.84676,0.882 1.76462,1.74208 2.73849,2.5983c0.24242,0.21313 0.51259,0.47272 0.80325,0.75359z" fill="#000000" fill-rule="nonzero" stroke-width="0.5" stroke-linecap="butt" stroke-linejoin="miter"/><path d="M164.84186,231.73314c-0.15509,-0.03345 -0.2703,-0.09264 -0.35555,-0.16517c-0.08233,0.06857 -0.1509,0.10285 -0.1509,0.10285c-1.707,0.54698 -2.68974,7.13803 -0.60094,8.44436c0.18245,0.11411 2.0744,0.13209 2.27436,0.13488c3.10615,0.04321 7.39028,-1.63859 8.82035,-4.58546c1.82819,-3.47035 -0.46805,-7.91459 -4.32918,-7.91459c-0.57131,0 -1.20839,-0.32501 -1.71299,-0.05709c-1.03455,0.5493 -1.83453,1.90115 -2.91508,2.56115l-0.13879,0.90408c0,0 -0.15814,0.73314 -0.89128,0.575zM164.3942,230.34243l0.23772,-0.93238c1.09014,-0.77502 2.42129,-2.54392 3.58107,-3.10295c0.14909,-0.07186 1.99937,-0.05709 2.28701,-0.05709c5.09207,0 7.82176,5.61094 5.67082,10.08541c-1.7739,3.46644 -6.42985,5.44203 -10.17965,5.41454c-0.7339,-0.00538 -2.51105,-0.01558 -3.06153,-0.36897c-3.27766,-2.10417 -1.8744,-9.49625 0.73496,-11.05179c0,0 0.39442,-0.19721 0.72961,0.01325z" fill="#000000" fill-rule="nonzero" stroke-width="0.5" stroke-linecap="butt" stroke-linejoin="miter"/><path d="M211.78574,231.62676c-0.06544,0.01328 -0.13157,0.02577 -0.19852,0.03748l0.04989,0.19957l-1.4389,0.35972c-0.06314,0.01726 -0.1296,0.02647 -0.19822,0.02647c-0.41421,0 -0.75,-0.33579 -0.75,-0.75c0,-0.27483 0.14783,-0.51514 0.3683,-0.64574l0.84292,-0.51861l0.04105,0.06672l0.12187,-0.14178c0.40791,-0.03297 0.85967,-0.0684 1.31691,-0.13325c0.54618,-0.32787 1.1664,-0.60103 1.76441,-0.85867c-0.19859,0.00909 -0.39291,-0.00115 -0.49248,-0.07576c-0.50446,-0.37805 -1.08149,-0.8333 -1.33494,-1.40345c-2.41588,0.15014 -5.34315,0.7363 -6.84772,2.24087c-0.84171,0.84171 -2.40641,2.73943 -1.83032,4.12001c1.04097,2.49468 3.63967,1.7034 5.47231,2.61972c2.76868,0 5.97119,-3.65073 6.56975,-6.30901c-0.80573,0.74016 -2.36607,1.04318 -3.45632,1.16571zM211.83541,226.17082c-0.11931,0.05965 -0.24135,0.11511 -0.3656,0.16617c0.38693,-0.02994 0.76791,-0.05092 1.13899,-0.06502c0.17245,-0.15475 0.31575,-0.31337 0.36311,-0.48819c-0.15499,-0.01989 -0.31818,-0.03138 -0.48978,-0.03399l-0.12365,0.00005c-0.18095,0.16478 -0.37038,0.34463 -0.52308,0.42098zM208.75,226c0,-0.75 0.75,-0.75 0.75,-0.75c0.52883,0.01282 1.16398,-0.29278 1.81546,-0.58943c0.18265,-0.41057 0.68454,-0.41057 0.68454,-0.41057l0.33547,0.00014c0.62013,-0.19088 1.21187,-0.21513 1.69486,0.21953c0.00991,0.00892 0.0195,0.0214 0.02878,0.03716c2.42102,0.79672 3.25122,3.32413 2.67083,6.16549c-0.74862,3.66491 -4.67898,7.55762 -8.40225,7.55762c-2.23677,-1.11839 -5.34221,-0.36787 -6.52518,-3.53463c-0.39643,-1.06124 0.11599,-2.52056 0.50459,-3.48232c1.12156,-2.77582 3.90305,-4.02573 6.79221,-4.5702c-0.17855,-0.09783 -0.3493,-0.28494 -0.3493,-0.64279zM214.8943,227.86201c0.17208,0.16742 0.34871,0.36652 0.49693,0.58296c-0.08867,-0.94682 -0.44534,-1.72903 -1.13833,-2.20264c0.00037,0.21168 -0.0051,0.41481 -0.01661,0.59122c0.00888,0.05091 0.01371,0.10626 0.01371,0.16644c0,0.75 -0.75,0.75 -0.75,0.75c-0.09847,-0.00149 -0.19917,-0.00224 -0.30189,-0.00221c0.12332,0.15165 1.35461,-0.21811 1.69619,0.11423z" fill="#000000" fill-rule="nonzero" stroke-width="0.5" stroke-linecap="butt" stroke-linejoin="miter"/><path d="M195.32769,263.77006c1.28853,0.15228 1.21158,-1.00719 0.38367,-1.39893l-0.01845,0.41588c-0.33368,0.3543 -0.59974,0.7782 -0.84741,1.21484zM194.25,261.5c0,-0.26047 0.09046,-0.43048 0.20855,-0.54145c0.11097,-0.11809 0.28098,-0.20855 0.54145,-0.20855c0.04682,0 0.09072,0.00292 0.13188,0.0084c2.94367,0.24523 3.84022,4.22324 0.54044,4.47153l-0.8369,0.44088c0,0 -0.52933,0.26467 -0.88268,-0.14641c-0.12996,0.18309 -0.269,0.35375 -0.4224,0.50592c-2.24674,2.22889 -8.21472,2.41487 -10.86574,1.14049c0,0 -0.67082,-0.33541 -0.33541,-1.00623c0.33541,-0.67082 1.00623,-0.33541 1.00623,-0.33541c1.9688,1.03717 7.42423,0.87281 9.13426,-0.85951c0.77011,-0.78015 0.9394,-1.92442 1.83742,-2.75668l-0.0441,-0.55073c-0.00842,-0.04975 -0.01299,-0.10372 -0.01299,-0.16226z" fill="#000000" fill-rule="nonzero" stroke-width="0.5" stroke-linecap="butt" stroke-linejoin="miter"/><path d="M171.26345,234.93274c0.00747,0.11716 -0.01699,0.25139 -0.09263,0.40267c-0.33541,0.67082 -1.00623,0.33541 -1.00623,0.33541l-0.98547,-0.49273c-0.25368,-0.12026 -0.42912,-0.37868 -0.42912,-0.67809c0,-0.36866 0.266,-0.6752 0.61654,-0.73816l1.0155,-0.2031c3.29122,-0.64204 1.14091,-0.76231 -0.88204,-1.04526v0.23652h-1c-0.41421,0 -0.75,-0.33579 -0.75,-0.75c0,-0.30433 0.18126,-0.56632 0.44171,-0.68391l0.90176,-0.43083l-0.41435,-0.20717c-0.25368,-0.12026 -0.42912,-0.37868 -0.42912,-0.67809c0,-0.41421 0.33579,-0.75 0.75,-0.75h0.64159c0.06253,-0.19514 0.12506,-0.39027 0.18759,-0.58541c0,0 0.33541,-0.67082 1.00623,-0.33541c0.67082,0.33541 0.33541,1.00623 0.33541,1.00623c-0.08296,0.13917 -0.16593,0.27834 -0.24889,0.4175c0.02616,-0.00132 0.0522,-0.00229 0.07807,-0.00291h1.5c0.41421,0 0.75,0.33579 0.75,0.75c0,0.33738 -0.22277,0.62273 -0.52924,0.71698l-0.81211,0.2707c1.78618,0.57713 3.28296,2.09161 0.33475,3.22172c-0.31333,0.12011 -0.6461,0.17359 -0.97995,0.22334z" fill="#000000" fill-rule="nonzero" stroke-width="0.5" stroke-linecap="butt" stroke-linejoin="miter"/><path d="M477.25,252.5c0,-0.75 0.75,-0.75 0.75,-0.75l-0.17082,0.41459c1.23489,-2.44178 3.212,-4.76141 5.14049,-6.69492c1.57913,-1.57913 2.73224,-3.05842 3.78801,-4.83529c-1.02129,-0.44802 -1.84887,-1.35643 -2.75537,-2.71117c-0.16719,-0.31294 -0.35976,-0.58647 -0.55114,-0.84445c-4.11379,0.93855 -8.22583,1.87985 -12.32762,2.87028c-2.90953,0.70254 -5.77697,1.39268 -8.6173,2.33945c-1.23183,0.41061 -3.27475,1.48808 -4.55941,1.45963c-1.78963,-0.03964 -2.02567,-1.48186 -2.58482,-2.35381c-0.16349,-0.25496 -0.62475,-0.12022 -0.84894,-0.32386c-0.76274,-0.69284 -1.0255,-1.79132 -1.62151,-2.6319c-1.60156,-2.25877 -3.53732,-4.05222 -5.00082,-6.50115c-0.8655,-1.01254 -1.68871,-2.08641 -2.60127,-3.05575c-0.04081,-0.04335 -2.25608,-1.87782 -2.25914,-1.8513c-0.41058,3.53926 -2.19242,7.5886 -3.31384,11.19133c-0.8935,2.8705 -1.29917,5.97503 -2.97933,8.48985c-0.93335,-0.3189 -1.96326,-0.24073 -2.91913,-0.48392c-1.97569,-0.50265 -3.81155,-2.31162 -5.75277,-3.08345c-6.15345,-2.44663 -12.38318,-4.76056 -18.54007,-7.22949c-2.81068,-1.1311 -5.22713,-2.66721 -8.14081,-3.60101c-0.6635,-0.21264 -1.88939,-1.23602 -2.0163,-0.55094c-0.02875,0.15519 1.71398,3.07526 1.88045,3.44982c2.00421,4.50948 4.22447,8.83661 6.54303,13.19226c2.80727,5.58206 5.86847,10.81766 8.23105,16.4318c1.15936,-2.60689 2.9294,-5.23106 4.37027,-7.48893c1.95611,-2.19027 3.54009,-4.72624 6.04004,-6.34996c6.36545,-4.13436 14.3195,-4.59946 21.65403,-5.17396c8.18322,0.77406 17.71011,1.96399 22.99841,9.21401c1.15637,1.58533 1.90558,3.7657 2.78112,5.52362c2.86386,9.13135 0.38499,20.16245 -6.33615,26.96897c-2.24343,2.23202 -4.74079,4.76235 -7.47614,6.45997c-2.93119,1.81916 -7.18685,1.96424 -10.48724,2.41592c-3.15343,0.43157 -6.66443,0.91228 -9.05815,-1.35276c-0.13724,-0.06215 -0.27402,-0.12511 -0.41042,-0.18875c-1.16335,0.39295 -2.37676,0.83679 -3.56631,0.88461c-2.46526,0.09912 -5.34481,0.24977 -7.72129,-0.52866c-3.95061,-1.29403 -6.12599,-5.74258 -8.57573,-8.74591c-3.86966,-4.77637 -6.80301,-13.47094 -4.98842,-19.57471c-2.40607,-6.151 -5.75346,-11.77231 -8.78726,-17.80582c-2.33265,-4.38143 -4.56538,-8.73606 -6.58157,-13.27248c-0.31719,-0.71368 -2.21629,-4.10206 -1.84517,-4.74211c0.81351,-1.40302 2.85706,-0.48454 3.79848,-0.19791c2.97365,0.90538 5.40416,2.50292 8.25236,3.6407c5.23365,2.09871 10.47708,4.18115 15.70353,6.28467c2.06212,0.82996 4.15347,1.39897 6.08943,2.54423c0.22407,0.13255 1.90266,1.32881 2.30551,1.42109c0.6966,0.15957 1.54383,0.0446 2.08087,0.51608c0.30253,-4.43922 2.74691,-8.91526 3.91103,-13.17816c0.45123,-1.65236 1.13011,-3.18535 1.5962,-4.78264c0.12817,-0.43922 -0.15877,-1.07358 0.19961,-1.35802c2.34597,-1.86194 5.97458,3.71736 7.13959,5.09295c1.476,2.45097 3.37628,4.23696 4.99917,6.49885c0.51926,0.72372 0.68512,1.74068 1.3785,2.3681c0.32995,0.29857 0.89915,0.30932 1.15106,0.67614c0.39007,0.56802 0.03172,1.65742 1.41518,1.64619c1.09954,-0.00893 2.92283,-1.03446 3.97874,-1.38642c2.88071,-0.96024 5.78889,-1.66204 8.73957,-2.37452c3.93521,-0.95021 7.87983,-1.85529 11.82639,-2.75603c-0.07335,-0.19264 -0.12357,-0.39802 -0.14174,-0.62419v-0.33992c0,0 0,-0.15763 0.08765,-0.29761c-0.35958,-0.08059 -0.71242,-0.15742 -1.05649,-0.22637c-6.52006,-1.82837 -12.74614,-5.8414 -17.53641,-10.63166c-2.90221,-2.9356 -5.14042,-8.58939 -4.25603,-12.7562c0.44331,-2.08865 3.24665,-3.97086 4.93021,-4.96006c1.87079,-1.09183 3.56983,-2.60541 5.31711,-3.68423c0.83393,-0.51489 2.05402,-0.67011 2.96441,-1.04592c3.46182,-1.42905 6.93286,-2.74878 10.41489,-4.13998c2.05735,-0.82199 5.16008,-2.42732 6.37064,-4.41026c0.56994,-0.93358 0.20345,-2.62437 -0.07681,-3.59347c-0.82576,-2.85532 -2.00135,-5.37181 -3.54295,-7.89744c-1.22561,-2.02156 -3.23524,-3.67489 -3.93426,-6.03569c-0.44291,-1.49586 -0.09973,-2.96983 0.52482,-4.40873c-0.23591,0.00768 -0.47447,0.01192 -0.71666,0.01192c-3.87852,-0.00014 -8.56566,1.58904 -11.8853,-1.13917c-0.75236,-0.61832 -1.40036,-1.73398 -1.89365,-2.6833c-1.80858,0.14526 -3.63822,0.08507 -5.16712,0.0833c-1.82007,-0.00211 -4.36714,0.10088 -5.37433,-1.57216c-0.22084,0.08123 -0.45525,0.14141 -0.70786,0.17673l0.04384,0.54563c0,0 0,0.50988 -0.50988,0.50988c-0.08454,0 -0.15507,-0.01402 -0.2139,-0.0374c0.02823,0.06336 0.04393,0.13352 0.04393,0.20736c0,0.20355 -0.11927,0.37924 -0.29174,0.46099l-0.38869,0.19434c0.00038,0.00812 0.00058,0.01629 0.00058,0.02451c0,0.2816 -0.22829,0.50989 -0.50989,0.50989h-1.01977v-0.0581c-0.74181,0.13995 -1.51718,0.12501 -1.78256,-0.46187c-0.13494,-0.03358 -0.27576,-0.06937 -0.4232,-0.10674l-0.05507,-0.05704l-0.01346,0.02211l-0.38738,-0.23589c-2.2311,0.34641 -4.49901,0.26783 -6.77946,0.2175c-1.50185,-0.03315 -3.66912,-0.3234 -4.03882,-1.8738c-0.62047,0.57572 -1.49944,1.50017 -2.1761,1.89503c-0.66055,0.38546 -2.04618,0.50797 -2.83042,0.64526c0.66996,0.94381 1.53199,1.50145 2.53933,2.32845c0.42075,0.34542 0.67859,0.92492 1.18559,1.12314c0.59985,0.23452 1.2929,0.04554 1.92461,0.17109c2.6864,0.53389 5.35277,0.46995 8.07799,0.46995c0.85415,0.01347 1.42397,-0.40362 2.2226,-0.65512c2.52405,-0.79486 5.38413,-2.03812 7.27466,-3.95448l0.70047,-0.14934c0,0 0.50988,0 0.50988,0.50988c0,0.50988 -0.50988,0.50989 -0.50988,0.50989l0.02062,-0.14934c-2.27364,2.24757 -6.94835,4.86953 -10.21834,4.90828c-2.79073,0 -5.5275,0.06394 -8.27798,-0.48976c-0.69513,-0.13994 -1.45797,0.03805 -2.11487,-0.2289c-1.47087,-0.59774 -3.46098,-2.66302 -4.39844,-4.16489c-2.13734,0.51686 -4.55142,1.32067 -6.49176,0.36829c-0.46323,-0.46323 -1.62442,-1.65091 -1.87256,-2.25806c-0.17208,-0.42104 0.16233,-1.44557 -0.27906,-1.33572c-1.38146,0.34382 -1.57522,2.93328 -3.59701,1.91425c-1.10672,-0.55781 -0.34535,-2.1862 -0.56867,-3.03836c-0.27486,-1.0489 -1.09993,-2.01174 -1.35914,-3.05694c-0.22582,-0.91058 -0.01364,-2.24552 -0.01364,-3.17647c0.02288,-1.90733 0.05642,-5.4042 1.09592,-7.06654c0.33567,-0.5368 1.05043,-1.08148 1.67629,-1.24795c0.35881,-0.09544 0.99327,0.44754 1.10979,0.09502c0.4431,-1.34058 0.29347,-3.05917 1.33528,-4.3445c0.73098,-0.90182 2.11372,-1.49992 3.09724,-2.07464c1.81628,-1.80744 5.98944,-3.56721 8.56864,-3.54645c0.94144,0.00758 2.29063,0.08331 3.01822,0.82358c0.39865,0.4056 0.39934,1.07305 0.69927,1.55624c0.05527,0.08903 -0.03197,-0.22042 0.01518,-0.31401c0.15607,-0.30974 0.35951,-0.59595 0.57873,-0.86472c0.81943,-1.00469 1.97198,-1.7837 2.98188,-2.57866c2.28681,-1.52274 4.61306,-1.34269 7.26655,-1.34269c4.24802,0 8.93463,-0.15937 12.84991,1.77192c1.54498,0.66309 3.30546,1.40126 4.5735,2.54551c0.61935,0.5589 1.41207,1.53552 1.92112,2.20664c0.12794,0.16868 0.09189,0.69917 0.26494,0.57721c0.22046,-0.15537 -0.08649,-0.58095 0.06087,-0.80684c0.26959,-0.41326 0.69348,-0.70216 1.0458,-1.04761c1.94588,-1.90795 5.98537,-2.18751 8.51734,-2.18751c5.34031,0.00118 9.0362,1.98368 13.11919,5.2534c1.19546,0.95735 3.14676,2.36855 3.26996,4.01509l0.0522,-0.0174c1.56786,-0.80013 2.77686,-0.75181 4.57171,-0.74764c5.1001,0.09962 10.14094,1.40433 11.1032,7.22135c0.17215,1.04071 0.07351,2.2293 0.02682,3.33967c0.31968,0.10765 0.31968,0.48117 0.31968,0.48117l-0.0092,0.77627c-0.30779,0.79269 -0.59381,2.17683 -1.30927,2.71821c-1.53555,1.16193 -2.94599,0.44073 -4.5183,0.36082c-0.33333,-0.39356 -0.31825,-1.22791 -0.82789,-1.30715c-0.19844,-0.03086 -0.158,0.37473 -0.28316,0.53179c-0.52825,0.66286 -1.49403,1.54188 -2.2462,1.92351c-1.66913,0.84686 -5.31282,1.41496 -7.11622,0.91819c-1.64631,-0.4535 -2.71411,-2.10553 -3.67513,-3.39719c-0.32255,-0.43352 -0.37973,-1.32332 -0.91996,-1.33472c-0.20635,-0.00436 -0.21287,0.35367 -0.3193,0.53051c-1.59702,1.58002 -3.62022,2.88449 -5.80493,3.75558c0.14619,0.20256 0.05901,0.46412 0.05901,0.46412c-0.43892,1.30022 -1.42294,2.78419 -2.24674,4.31707c0.77656,-0.06615 1.54938,-0.15124 2.3637,-0.22425l0.03439,-0.00303c0,0 0.50792,-0.04478 0.5527,0.46313c0.04478,0.50791 -0.46314,0.55269 -0.46314,0.55269l-0.03439,0.00304c-1.02686,0.08888 -1.99629,0.20029 -2.98689,0.27054c-0.64884,1.40889 -1.03087,2.83264 -0.61458,4.16961c0.70363,2.25979 2.63207,3.85133 3.82867,5.79991c1.58411,2.59531 2.81554,5.20198 3.65078,8.14074c0.36706,1.29148 0.69268,3.16798 -0.0244,4.40177c-1.26408,2.17496 -4.65183,3.95095 -6.86934,4.83693c-3.47886,1.38994 -6.94564,2.70795 -10.40413,4.13562c-0.84159,0.34742 -2.04918,0.48465 -2.81314,0.96812c-1.7545,1.11035 -3.46093,2.59289 -5.34191,3.69925c-1.38445,0.80894 -4.13163,2.5577 -4.45329,4.31452c-0.70378,3.84389 1.25912,9.11152 3.98463,11.80082c4.65912,4.65912 10.71423,8.57727 17.05338,10.36116c2.71169,0.54128 5.80974,1.50542 8.60185,1.01932c0.51243,-0.08921 0.86127,-0.6885 1.19675,-0.96066c0.96654,-0.78407 2.04638,-1.61578 3.04127,-2.35598c1.21429,-0.90343 2.80222,-1.33046 3.54105,-2.76282c-0.01475,-0.97638 -0.23095,-3.23233 -1.13151,-3.86813c-0.26583,-0.18768 -2.45648,0.07615 -2.79125,0.07615c-3.09346,0 -6.12126,0.04651 -9.18403,-0.00004c-1.44354,0.00008 -1.71958,-0.49168 -2.94996,-1.07798c-1.13792,-0.54224 -2.60838,-0.82985 -3.60848,-1.64767c-2.00197,-1.6371 -2.44347,-3.92066 -2.44347,-6.2823c0,-0.54883 -0.18802,-1.75012 0.03881,-2.23467c0.30187,-0.64482 1.34837,-1.73714 1.85139,-2.24621c3.19169,-3.19169 7.62572,-5.60977 11.25144,-8.34681c1.75869,-1.32763 3.58951,-2.38654 4.83247,-4.25899c3.27823,-6.14433 2.17575,-13.17795 0.32702,-19.58325c-0.824,-2.86715 -1.65852,-5.43894 -2.60357,-8.27408l-0.03489,-0.10466c0,0 -0.16124,-0.48372 0.32248,-0.64496c0.48372,-0.16124 0.64496,0.32248 0.64496,0.32248l0.03489,0.10466c0.94838,2.84515 1.78628,5.44144 2.61604,8.31422c0.28476,0.99005 0.78556,1.86816 1.09446,2.83123c0.32513,1.01369 0.27509,2.09995 0.35739,3.1377c0.403,5.08159 0.55881,9.84233 -1.88362,14.42015c-1.17748,1.7597 -2.74073,2.85915 -4.44734,4.06191c-2.42397,1.70833 -4.703,3.62201 -7.14387,5.32922c-1.62642,1.13756 -3.23906,2.00457 -4.64677,3.41229c-0.48377,0.47703 -1.3093,1.33142 -1.63033,1.91536c-0.16535,0.30076 0.03881,1.48574 0.03881,1.84442c0,2.07315 0.2602,4.03946 2.06626,5.49044c0.94959,0.7629 2.3696,1.0131 3.43921,1.53624c1.12843,0.55192 1.18133,0.9615 2.48882,0.96157c3.08778,0.09486 6.05651,-0.00004 9.17188,-0.00004c0.66912,0 2.74647,-0.30238 3.32738,0.07615c1.33917,0.87266 1.604,3.62616 1.58788,4.9699c-0.88478,1.8026 -2.45092,2.23063 -3.93727,3.35581c-1.29742,0.98217 -2.98975,3.1306 -4.6,3.48185c-0.43941,0.09585 -0.89059,0.15181 -1.34968,0.17583c0.273,0.97174 0.572,2.38225 0.53108,2.66017c-0.08718,0.59199 -0.26845,1.18422 -0.51952,1.76983c0.23871,-0.03845 0.49255,-0.0917 0.7639,-0.15954c0.5678,-0.14195 1.30908,-0.05708 1.79614,-0.54414c0.8499,-0.84991 1.39783,-2.85417 1.94403,-3.94657c0,0 0.22803,-0.45605 0.68409,-0.22803c0.45605,0.22803 0.22803,0.68409 0.22803,0.68409c-0.60307,1.20613 -1.18591,3.26246 -2.13506,4.2116c-0.64048,0.64048 -1.52231,0.62539 -2.28294,0.81555c-0.56427,0.14107 -1.0735,0.22311 -1.5397,0.24674c-1.21255,2.12326 -3.17174,4.09797 -4.65153,5.57776c-1.80678,1.80173 -3.72797,4.01119 -4.85951,6.30508l-1.17082,0.41459c0,0 -0.75,0 -0.75,-0.75zM487.65836,239.00623c0.20977,-0.40496 0.99372,-2.85879 0.39282,-3.23817c-0.04784,-0.0302 -2.7025,0.80806 -3.55097,1.05888c0.15568,0.21483 0.29244,0.41359 0.37726,0.57278c0.83017,1.25061 1.50298,2.02535 2.38046,2.35799c0.13399,-0.24413 0.26723,-0.49434 0.40044,-0.75149zM483.92964,235.43108c0.25207,-0.0575 0.73396,-0.2033 1.30381,-0.36749c-0.59626,-0.11708 -1.18784,-0.24938 -1.767,-0.38102c0.00945,0.05252 0.00945,0.08823 0.00945,0.08823v0.33992c-0.01759,0.0951 0.02856,0.23344 0.11423,0.39779c0.11317,-0.02581 0.22634,-0.05163 0.33951,-0.07744zM418.72761,272.8181c0,0 0.1819,0.72761 -0.54571,0.90951c-0.72761,0.1819 -0.90951,-0.54571 -0.90951,-0.54571c-0.29914,-1.19684 -0.64281,-2.36609 -1.02351,-3.51334c-0.47803,5.36832 2.04894,12.08716 5.14854,15.85808c2.19187,2.68719 4.30948,7.14101 7.87342,8.26631c2.59996,0.82093 5.80988,0.57292 8.48439,0.34661c0.22709,-0.01922 0.44621,-0.05152 0.65901,-0.09374c-0.24986,-0.12469 -0.49957,-0.24996 -0.74966,-0.375l-1,-0.5c0,0 -0.67082,-0.33541 -0.33541,-1.00623c0.33541,-0.67082 1.00623,-0.33541 1.00623,-0.33541l1,0.5c0.70762,0.35381 1.41483,0.70719 2.12503,1.05501c0.81344,-0.31421 1.61588,-0.60977 2.53956,-0.63419c0,0 0.75,0 0.75,0.75c0,0.75 -0.75,0.75 -0.75,0.75c-0.33819,-0.01391 -0.68906,0.02114 -1.04993,0.08877c1.97829,1.43979 4.98633,0.91244 7.41381,0.58126c3.04358,-0.41523 7.20522,-0.48577 9.89216,-2.19975c2.62818,-1.67649 5.05045,-4.07517 7.21363,-6.25061c6.36118,-6.26668 8.6368,-16.8612 6.00549,-25.34775c-0.82789,-1.6488 -1.51668,-3.71315 -2.60161,-5.20015c-4.99218,-6.84222 -14.10762,-7.84041 -21.7987,-8.59809c-7.02151,0.57744 -14.73034,0.93926 -20.82256,4.93045c-2.34193,1.53426 -3.81672,3.94516 -5.66402,5.99964c-1.63449,2.57786 -3.74996,5.66374 -4.75341,8.60461c0.73515,1.92461 1.3782,3.90195 1.89275,5.95972zM483.47475,167.02175c-0.15843,0.15858 -0.33068,0.30525 -0.48812,0.46469c0,0 -0.25504,0.25503 -0.55061,0.12161c-0.04088,0.14101 -0.14099,0.25684 -0.27164,0.31877l-0.66997,0.33498l-0.09611,-0.19223c-1.08367,0.40953 -2.17998,0.24606 -3.53116,0.24606l-1.16785,-0.36213c0.48918,-0.49958 0.83143,-0.80421 1.1561,-0.99245c-0.30404,0.07611 -0.57513,0.17306 -0.77999,0.28098c0,0 -0.45605,0.22802 -0.68408,-0.22803c-0.22803,-0.45605 0.22803,-0.68408 0.22803,-0.68408c0.21326,-0.10252 0.46486,-0.1961 0.74044,-0.27553c0.04447,-0.49011 0.54125,-0.45702 0.54125,-0.45702l0.37263,0.02482c0.10289,0.00705 0.20085,0.01385 0.29431,0.02072c-0.83506,-0.39364 -1.58077,-1.118 -2.10611,-1.81427c-0.21393,-0.28354 -0.48351,-0.53371 -0.63769,-0.85369c-0.06435,-0.13357 0.15819,-0.47009 0.01214,-0.44461c-0.16724,0.02918 -0.12302,0.31646 -0.18453,0.47468c-1.19667,2.43689 -3.68678,3.38721 -6.37435,3.74966c0.82061,1.41012 2.06542,2.99624 3.58637,3.2696c2.97365,0.53445 6.14815,-0.34885 9.08243,-0.34895c0.41469,0 0.81738,-0.01237 1.21378,-0.03317c0.52585,-1.02176 1.13387,-2.02373 1.63643,-3.00103c-0.35785,0.18753 -0.81929,0.31331 -1.32169,0.38063zM483.41484,164.58519l0.01015,0.00338c3.03119,-0.62313 5.95006,-2.09575 8.10889,-4.28177c0.34679,-0.2764 0.59715,-0.84337 1.04039,-0.82919c0.56173,0.01797 1.43023,1.33303 1.73773,1.74523c0.83871,1.12426 1.75507,2.64444 3.18505,3.04075c1.53175,0.42452 4.90188,-0.14162 6.32777,-0.86223c0.75198,-0.38003 2.30857,-2.6325 3.06241,-2.56276c0.46067,0.04262 0.94902,0.95872 1.21166,1.41224c0.42703,-0.03017 0.83731,0.18174 1.24882,0.29973c1.77335,0.50849 2.51473,-1.19202 3.03317,-2.44619c-0.26096,-0.13056 -0.26096,-0.45681 -0.26096,-0.45681c0,-1.27183 0.20521,-2.74394 0.00659,-3.99741c-0.84179,-5.3125 -5.53336,-6.27546 -10.10774,-6.36498c-1.51168,-0.00345 -2.59647,-0.08599 -3.94748,0.50852l-0.27707,0.55414c-0.08175,0.17246 -0.25745,0.29174 -0.461,0.29174c-0.22936,0 -0.42336,-0.15145 -0.48744,-0.3598l-0.2586,-0.77581c-3.50286,-5.24505 -9.02928,-8.72368 -15.57032,-8.72219c-2.1658,0 -6.18432,0.16912 -7.79901,1.89158c-0.32009,0.34145 -0.68863,0.63703 -0.99375,0.99193c-0.27604,0.32109 -0.16647,1.05814 -0.58409,1.12805c-0.29375,0.04917 -1.58875,-1.14112 -1.8762,-1.45709c-1.68432,-1.85142 -3.22494,-2.93342 -5.55884,-3.93618c-3.75421,-1.88186 -8.34239,-1.67761 -12.42159,-1.67761c-2.40835,0 -4.59543,-0.23499 -6.66772,1.14834c-1.29068,1.01763 -2.25521,2.07197 -3.35206,3.24092c-0.25999,0.27708 -0.52103,0.78575 -0.89303,0.70839c-1.03512,-0.21527 -0.90974,-1.71506 -1.85951,-2.07714c-2.74051,-1.04475 -7.76461,1.05565 -9.73153,3.03253c-0.8921,0.53089 -2.27015,1.10172 -2.93892,1.92197c-0.55599,0.68194 -1.05434,2.24168 -1.23093,3.10498c-0.08629,0.42184 0.12317,0.94566 -0.14348,1.28373c-0.63452,0.80447 -1.95743,-0.21258 -2.6624,0.99143c-0.88416,1.51004 -0.96905,4.84792 -0.94362,6.53042c0,0.83573 -0.2205,2.12395 -0.01364,2.94217c0.26248,1.03826 1.0996,2.0033 1.36025,3.0617c0.07939,0.32235 -0.25689,2.22093 0.11119,2.40043c0.94499,0.46085 2.07438,-2.14476 3.07767,-2.06642c1.94426,0.1518 0.8665,1.0995 1.20443,1.96511c0.1746,0.44724 1.1595,1.45385 1.52668,1.82103c1.22495,0.63184 2.67599,0.07902 3.93632,-0.23576c0.4828,-0.12059 1.05766,-0.18843 1.66082,-0.25068c0.03983,-0.08659 0.11433,-0.17055 0.24487,-0.23583c0.32811,-0.16405 0.53819,0.02597 0.63024,0.14551c1.04082,-0.11429 2.07567,-0.27675 2.79651,-0.71506c0.60201,-0.36606 1.30088,-1.12858 1.87971,-1.61403l0.28579,-0.85737c0.06408,-0.20835 0.25808,-0.3598 0.48744,-0.3598c0.22366,0 0.4137,0.14401 0.48242,0.34437l0.34924,0.94544l-0.02851,0.01054c0.32004,0.49428 0.65786,0.96801 0.89305,1.13895c0.66852,0.48592 2.62428,0.22784 3.42012,0.22777c1.86168,-0.00017 3.60622,-0.00286 5.35306,-0.21421c0.08963,-0.07828 0.20691,-0.12571 0.33526,-0.12571h0.54922c0.79521,-0.13061 1.59504,-0.31141 2.4107,-0.56172c0.33096,-0.10157 0.60533,-0.23492 0.85455,-0.38398c0.04352,-0.0304 0.08683,-0.06071 0.12997,-0.09091c0.07344,-0.18643 0.25354,-0.31915 0.46513,-0.323c0.1153,-0.07876 0.23072,-0.15611 0.34722,-0.23164c0.16843,-0.11479 0.34536,-0.22668 0.54189,-0.33c0.50928,-0.28771 1.06273,-0.5316 1.7302,-0.69938l0.04609,0.00827l-0.00088,-0.01332l1.01256,-0.06744c0.01282,-0.00097 0.02578,-0.00146 0.03885,-0.00146c0.2816,0 0.50988,0.22829 0.50988,0.50989c0,0.18942 -0.1033,0.35473 -0.25664,0.44264l-0.86757,0.51784l-0.02783,-0.04662c-0.07812,0.06363 -0.15699,0.12488 -0.23695,0.18346c1.36678,1.33383 3.25957,1.08736 5.4212,1.08736c1.17708,0 2.52113,0.02352 3.86586,-0.0708c0.04186,-0.07925 0.11454,-0.1552 0.23474,-0.2153c0.32088,-0.16044 0.52888,0.01778 0.62399,0.13752c2.52137,-0.28466 4.91915,-1.09525 6.07927,-3.37885c0.39172,-0.29501 0.68485,-0.89291 1.17516,-0.88501c0.38238,0.00616 0.46158,0.60986 0.69198,0.91509c0.64071,0.84876 1.55184,2.15753 2.64506,2.42902c0.56003,-0.99392 3.40532,-0.50246 4.07813,-0.28265zM482.85321,165.96281c0.04404,-0.0679 0.08875,-0.1352 0.13524,-0.20095c-0.50412,0.08482 -1.0095,0.14451 -1.51325,0.17735c0.45671,0.06248 0.94341,0.04801 1.37802,0.0236zM455.94204,166.10612l0.06174,-0.33385l-0.09368,-0.04684c-0.05166,0.04385 -0.10631,0.08837 -0.16477,0.13367c-0.13529,0.10484 -0.28558,0.19461 -0.44635,0.27267c-0.20027,0.13987 -0.40796,0.2789 -0.62833,0.41399c-0.17674,0.10835 -0.39364,0.12609 -0.61383,0.13348c0.19817,0.03254 0.39389,0.07324 0.58664,0.12976l-0.01151,-0.02303l0.90294,-0.45147c0.07085,-0.03731 0.15156,-0.05842 0.2372,-0.05842c0.07762,0 0.15119,0.01735 0.21704,0.04837c-0.04708,-0.11417 -0.04708,-0.21833 -0.04708,-0.21833z" fill="#000000" fill-rule="nonzero" stroke-width="0.5" stroke-linecap="butt" stroke-linejoin="miter"/><path d="M425.75,286.5c0,-0.35848 0.17134,-0.54561 0.35023,-0.6433c-0.33695,-0.06833 -0.70081,-0.1067 -1.10023,-0.1067c0,0 -0.75,0 -0.75,-0.75c0,-0.75 0.75,-0.75 0.75,-0.75c1.87852,0 3.01622,0.75319 4.17273,1.52983c3.64562,0.13828 6.63503,0.78668 10.16268,2.54935c0.42286,0.22666 0.70595,0.63796 1.02031,1.01189c2.18328,0.1465 4.54097,-0.09107 6.64428,-0.09107c2.49539,0 5.79806,0.49621 8.1866,-0.44191c2.09653,-0.82343 4.51297,-2.28082 6.48511,-3.41251l0.95599,-0.54666l0.19279,0.33716l0.77547,-0.14142c-0.12517,0.22736 -0.25586,0.4471 -0.39183,0.65947l0.3262,0.3262l-1,1l-0.17365,-0.17365c-3.67133,4.36244 -10.0182,4.88622 -15.77868,4.89314c-1.79535,0.00216 -4.91353,0.39457 -6.4723,-0.61183c-0.14465,-0.09339 -0.26807,-0.2148 -0.3817,-0.34868c-0.40256,-0.03697 -0.79911,-0.08761 -1.18734,-0.1555c-2.26697,-0.39643 -4.52885,-1.34342 -6.70897,-1.90388c-1.18453,-0.30452 -2.04102,-0.8875 -2.86917,-1.45764c-0.47225,-0.01539 -0.95735,-0.02229 -1.45851,-0.02229h-1c0,0 -0.75,0 -0.75,-0.75z" fill="#000000" fill-rule="nonzero" stroke-width="0.5" stroke-linecap="butt" stroke-linejoin="miter"/><path d="M442.46967,284.03033c-0.53033,-0.53033 0,-1.06066 0,-1.06066l0.69492,-0.64049c0.89289,-0.44645 5.12711,-3.314 5.9734,-1.72348c0.31601,0.59392 -0.22341,1.3724 -0.60766,1.92463c-0.46423,0.66717 -1.55881,0.61058 -2.12764,1.19115c-0.69346,0.70777 -1.17349,1.60641 -1.87236,2.30885c0,0 -0.53033,0.53033 -1.06066,0c-0.53033,-0.53033 0,-1.06066 0,-1.06066c0.54763,-0.54455 0.95214,-1.21877 1.43672,-1.82026c-0.54537,0.2689 -0.97491,0.47338 -1.07098,0.52141l-0.30508,0.35951c0,0 -0.53033,0.53033 -1.06066,0z" fill="#000000" fill-rule="nonzero" stroke-width="0.5" stroke-linecap="butt" stroke-linejoin="miter"/><path d="M430.75,263c0,0 0,0.08372 -0.02797,0.19522c0.3851,-0.01802 0.75193,-0.20867 1.00362,-0.47976c-0.07121,0.02244 -0.14702,0.03454 -0.22564,0.03454h-0.74813c-0.00331,0.08364 -0.00388,0.16711 -0.00187,0.25zM431.76612,261.29454l0.03438,0.01719c-0.00814,-0.00888 -0.0165,-0.01772 -0.02506,-0.02651zM429.68156,264.81657c0.03267,0.41806 0.06844,0.82307 0.06844,1.18343c0,0 0,0.75 -0.75,0.75c-0.75,0 -0.75,-0.75 -0.75,-0.75c0,-1.05273 -0.40898,-3.36002 0.05709,-4.28701c0.54286,-1.07971 2.752,-2.71672 4.08721,-1.85098c3.15788,2.04757 -0.47694,5.45866 -2.71273,4.95455z" fill="#000000" fill-rule="nonzero" stroke-width="0.5" stroke-linecap="butt" stroke-linejoin="miter"/><path d="M462.1436,261.76054c0.11057,0.00294 0.22923,-0.00036 0.3564,-0.01054c0,0 0.75,0 0.75,0.75c0,0.75 -0.75,0.75 -0.75,0.75c-1.55313,-0.06889 -2.90853,-0.85836 -3.22994,-2.57769c-0.09831,-0.52588 0.09643,-1.17642 0.46539,-1.735c0.01012,-0.14602 0.07341,-0.30683 0.23422,-0.46764c0.1252,-0.1252 0.2504,-0.19129 0.36862,-0.21919c0.51156,-0.4366 1.14711,-0.67604 1.78184,-0.49079c2.39526,0.69905 2.05858,3.1551 0.21527,3.91114c-0.06186,0.02537 -0.12602,0.05596 -0.19181,0.08972zM462.24162,259.68096c-0.07436,-0.10831 -0.15406,-0.18566 -0.23636,-0.23636z" fill="#000000" fill-rule="nonzero" stroke-width="0.5" stroke-linecap="butt" stroke-linejoin="miter"/><path d="M233.96967,294.96967c0.53033,-0.53033 1.06066,0 1.06066,0l0.64049,0.69492c0.13639,0.42564 0.77249,0.45005 1.16459,0.66459c2.40808,1.31758 1.81974,3.4443 5.16459,3.42082c1.49865,0 3.34924,0.29634 4.82769,0.02006c2.37424,-0.44367 2.57013,-5.74016 1.5142,-7.39613c-2.06567,-3.23947 -5.10568,-5.2431 -8.53832,-6.60916c-1.01745,0.05322 -2.1951,-0.05274 -3.39571,-0.14022c-2.37017,0.83645 -4.85314,2.92133 -5.69004,5.09279c-1.29888,3.37013 0.75385,7.86146 4.54501,6.57115c0,0 0.03277,-0.01092 0.08658,-0.02105c-0.41173,-0.23986 -0.78422,-0.53613 -1.02023,-0.93203l-0.35951,-0.30508c0,0 -0.53033,-0.53033 0,-1.06066zM236.17881,297.6772c0.0117,0.02689 0.02263,0.0554 0.0327,0.08563c0.23717,0.71151 -0.47434,0.94868 -0.47434,0.94868c-1.05657,0.34585 -2.265,0.9221 -3.43248,0.48598c-2.94037,-1.0984 -4.00001,-6.19655 -3.02251,-8.91483c0.65863,-1.83155 2.19408,-3.52426 4.01189,-4.72617c-0.85496,0.06101 -1.65483,0.22065 -2.34102,0.55474c-0.09545,0.06322 -0.19796,0.09764 -0.28128,0.11637c-0.05213,0.01289 -0.11382,0.02363 -0.18069,0.02638c-1.40735,3.39419 -2.69395,9.51446 -1.76032,13.07719c0.80587,3.07524 2.4337,5.71825 3.40723,8.77452c3.82351,3.69307 8.02082,6.61175 13.43592,7.14795c1.29857,0.12858 4.86649,0.62424 5.25528,-0.58906c0,0 0.33541,-0.67082 1.00623,-0.33541c0.67082,0.33541 0.33541,1.00623 0.33541,1.00623c-1.21182,2.03277 -2.95876,1.41722 -5.17082,1.41459c-6.4826,-0.0077 -11.742,-3.34058 -16.13799,-7.8557c-1.0983,-3.17432 -2.7962,-5.99109 -3.59277,-9.22548c-0.81244,-3.29886 -0.06004,-8.07699 1.07518,-11.78118c-1.5872,0.64496 -3.55085,0.95417 -5.17211,1.3423c-0.57715,0.13817 -1.25767,-0.37732 -1.77802,-0.09195c-1.97036,1.08058 1.46482,6.55394 2.43488,3.5266l0.64049,-0.69492c0,0 0.53033,-0.53033 1.06066,0c0.53033,0.53033 0,1.06066 0,1.06066l-0.35951,0.30508c-2.99622,5.02602 -8.1637,-2.92739 -4.56512,-5.4734c0.72539,-0.51321 1.48692,0.10107 2.22198,-0.09195c1.26914,-0.33327 2.88459,-0.54931 4.23162,-0.98722c-0.70759,-0.41045 -1.53213,-0.66509 -2.09217,-1.25506c-0.62857,-0.66215 -0.47145,-1.81708 -1.03373,-2.53638c-1.88499,-2.41147 -6.94049,-6.49874 -4.968,-10.46439c0.46348,-0.93182 1.32628,-1.60707 1.92234,-2.46019c0.81794,-1.17069 1.36464,-2.06553 2.73463,-2.55353c1.9821,-1.38287 3.95464,-2.94857 5.99352,-4.15747c6.67629,-3.9585 15.96697,-3.10582 23.3841,-3.10582c2.62129,0 6.87069,-0.7716 9.01554,1.20528c1.14139,1.05201 0.63537,2.92754 1.17737,4.25771c1.24502,3.0555 1.47633,6.85174 2.06829,10.33106c1.40446,-0.34205 3.5297,-0.79097 3.81576,-0.58318c2.25038,1.63466 -1.1901,6.08516 -2.3328,6.94562c-0.15187,0.11436 0.3754,-0.06045 0.56309,-0.09067c2.65817,1.06191 4.9891,0.75228 7.78375,1.15385c0.84823,0.12188 2.98786,0.27277 3.46321,1.16739c1.05469,1.98496 -3.08439,3.57072 -4.01542,4.38469c-0.86362,0.75503 -0.06441,3.27016 -0.31599,4.17845c-0.79741,2.87889 -3.46506,3.76086 -5.84634,4.94848c-2.01758,0.93398 1.58621,2.61856 2.29438,4.01591c1.17255,2.31366 0.69103,3.82912 1.0695,6.21527c0.2227,1.40412 1.24032,2.49559 1.47287,3.91422c0.27752,1.69299 -0.87701,3.07259 -2.54086,3.43586c-0.84162,0.18375 -4.68508,-0.26381 -4.44238,0.09775c0.84333,2.32553 -1.29812,2.81937 -3.13943,3.71515c0.42516,0.36569 0.7575,0.99177 0.54748,1.35147c-0.11249,0.19266 -2.71993,0.49096 -3.3103,0.33564c-0.84274,-0.22172 -1.33382,-1.15026 -2.11471,-1.53703c-1.09779,-0.54372 -6.02678,-1.77364 -5.9533,-3.81305c0.01694,-0.47019 0.61292,-0.63721 1.08912,-0.86694l-0.02585,-0.01293l0.09448,-0.18896c-0.9879,-0.38112 -1.67959,-1.29257 -1.11034,-2.59805c0.33209,-0.7616 1.86209,-1.80019 2.55599,-2.18868c0.35247,-0.19734 1.50876,-0.45597 1.10659,-0.49398c-2.49534,-0.23584 -0.44744,-2.137 -1.10766,-3.63603c-0.44391,-1.00791 -4.14549,-1.24971 -4.55866,-2.61648c-0.89087,-2.94703 2.99134,-2.27079 2.95633,-4.65768c-0.14556,-0.6018 -0.57907,-1.20284 -0.43669,-1.8054c0.1064,-0.45029 1.425,-0.6653 1.03901,-0.92044c-1.1085,-0.7327 -1.98929,-1.4614 -2.97044,-2.45577l-0.56239,-1.10312c0,0 -0.33541,-0.67082 0.33541,-1.00623c0.67082,-0.33541 1.00623,0.33541 1.00623,0.33541l0.43761,0.89688c0.5768,0.56763 2.75641,1.98583 3.02956,2.54423c0.48309,0.98758 -0.88302,2.28768 -0.39767,3.27416c-0.00905,1.12693 0.18052,1.70692 -0.70999,2.65047c-0.10396,0.11015 -2.71157,1.06446 -2.33367,1.69185c0.62463,1.03706 3.80023,1.17306 4.44134,2.38352c0.00119,0.00224 0.18077,2.43419 0.11201,2.8943c-0.02555,0.17094 -0.36775,0.38054 -0.21967,0.46967c0.28559,0.17189 0.8326,-0.28825 1,0c1.52319,2.62275 -2.32901,2.77573 -3.33742,4.31734c-0.22009,0.33647 -0.06355,0.65873 0.25467,0.96373l0.04619,-0.09238l1.32711,0.66355c0.25368,0.12026 0.42912,0.37868 0.42912,0.67809c0,0.2994 -0.17544,0.55783 -0.42912,0.67809l-0.98547,0.49273c-1.64507,-0.14011 2.39735,1.09294 2.55889,1.19119c1.10306,0.67088 2.42703,2.09794 3.77802,2.40805c0.04577,0.01051 0.09212,0.01947 0.13892,0.02724c-0.0394,-0.09116 -0.06123,-0.19168 -0.06123,-0.2973c0,-0.2994 0.17544,-0.55783 0.42912,-0.67809l0.98176,-0.49088c1.09935,-0.56957 3.52694,-1.00451 2.60918,-2.15872c0.06654,-0.56755 -0.18265,-1.27788 0.19961,-1.70264c1.47246,-1.63621 5.53668,1.32997 6.83405,-1.24841c0.49071,-0.97524 -1.3831,-3.6275 -1.54404,-4.60112c-0.3879,-2.34665 0.43808,-4.58963 -1.33924,-6.6441c-0.99267,-1.14746 -3.5352,-1.67759 -2.87919,-3.88366c0.19106,-0.64251 1.05487,-0.82738 1.58231,-1.24106c1.9638,-0.98424 4.49306,-1.66655 5.15366,-4.05152c0.4587,-1.65606 -0.72694,-3.33497 0.68401,-4.82155c0.14656,-0.15441 3.83722,-2.63849 3.7321,-2.71031c-0.64282,-0.43919 -1.54366,-0.20394 -2.31446,-0.31335c-2.9343,-0.41651 -5.37224,-0.14349 -8.1861,-1.27041c-0.47897,-0.36356 -1.37267,-0.49279 -1.43691,-1.09067c-0.06587,-0.61308 0.81041,-0.93239 1.16537,-1.43657c0.5331,-0.75721 0.7929,-1.67405 1.16568,-2.52175c0.27131,-0.61696 1.36733,-1.74572 0.70971,-1.89328c-0.25738,-0.05775 -1.7175,0.39065 -2.76546,0.72479c0.0612,0.28738 0.12641,0.5714 0.19647,0.8514c0,0 0.1819,0.72761 -0.54571,0.90951c-0.72761,0.1819 -0.90951,-0.54571 -0.90951,-0.54571c-0.06085,-0.2436 -0.11802,-0.49034 -0.17208,-0.73977c-1.66139,0.68856 -2.70604,2.16949 -4.18744,3.18399c-1.75368,1.20098 -4.142,2.40509 -6.1757,3.08538c0,0 -0.56747,0.18916 -0.85777,-0.27717c-0.24387,0.08067 -0.48121,0.18265 -0.70709,0.29559c-1.68166,0.00226 -3.36888,0.76614 -5.08068,1.01444c-1.30783,0.18971 -2.71979,0.26565 -4.11891,0.33352c2.66717,1.41123 5.03156,3.33799 6.64491,6.00708c1.65568,2.73911 0.95725,8.67047 -2.44532,9.64495c-1.46042,0.41826 -3.67342,0.02006 -5.17231,0.02006c-1.98289,-0.01185 -3.17302,-0.21982 -4.56055,-1.75172c-0.49511,-0.54663 -0.59339,-1.51523 -1.26064,-1.82108zM238.62014,283.75968c0.46394,0.15171 0.92607,0.31387 1.38446,0.48744c2.21437,-0.17878 4.72323,-0.16087 6.90377,-0.4915c1.65709,-0.25126 3.28705,-0.98778 4.91932,-0.98556c0.45055,-0.22527 0.945,-0.37794 1.44827,-0.45708c0.05369,-0.22214 0.21844,-0.56299 0.72405,-0.56299c0.45606,0 0.6348,0.27732 0.70485,0.4947c1.54193,-0.64478 3.16118,-1.5112 4.38228,-2.37083c1.66536,-1.17238 2.78431,-2.70243 4.72695,-3.42557c-0.58355,-3.42163 -0.815,-7.15927 -2.00699,-10.16129c-0.28402,-0.71531 -0.2406,-3.29579 -0.82263,-3.74229c-1.97764,-1.51714 -5.68798,-0.79472 -7.98446,-0.79472c-7.02237,0 -16.32768,-0.9709 -22.6159,2.89418c-2.05965,1.26597 -4.05768,2.81745 -6.09394,4.21226c-1.1539,0.34202 -1.50356,1.11303 -2.17791,2.07674c-0.54621,0.78058 -1.32936,1.39466 -1.78824,2.22958c-0.45802,0.83336 0.07997,1.83748 0.36889,2.55023c0.36289,0.89521 0.41532,1.91974 0.90276,2.7537c0.83523,1.42903 2.58927,2.37429 3.47092,3.54191c0.53156,0.70397 0.3436,1.8388 0.96627,2.46362c0.59183,0.59386 1.47587,0.80082 2.17337,1.26604l0.66248,0.58649c0.14574,-0.39712 0.29444,-0.77362 0.44409,-1.12517l0.69626,-0.26366c0.08437,-0.07115 0.15552,-0.10673 0.15552,-0.10673c1.74429,-0.83851 3.86135,-0.76961 5.9505,-0.64959c0.8536,-0.27682 1.70519,-0.42661 2.50505,-0.41991z" fill="#000000" fill-rule="nonzero" stroke-width="0.5" stroke-linecap="butt" stroke-linejoin="miter"/><path d="M243.75,308.5c0,0.75 -0.75,0.75 -0.75,0.75h-0.5c-3.38175,0 -8.17923,-1.11501 -8.25,-5.25c0,0 0,-0.75 0.75,-0.75c0.75,0 0.75,0.75 0.75,0.75c-0.0762,3.14333 4.35884,3.75 6.75,3.75h0.5c0,0 0.75,0 0.75,0.75z" fill="#000000" fill-rule="nonzero" stroke-width="0.5" stroke-linecap="butt" stroke-linejoin="miter"/><path d="M235.82918,289.83541c-0.01455,-0.0291 -0.02721,-0.05757 -0.03811,-0.08541h-0.29107c-0.41421,0 -0.75,-0.33579 -0.75,-0.75c0,-0.20711 0.08395,-0.39461 0.21967,-0.53033l1,-1l0.07478,0.07478l0.16854,-0.23736c0.51948,-0.02304 2.59223,-0.22473 2.925,0.29861c0.39382,0.61935 -0.8973,4.04846 -0.88799,4.8943c0,0 0,0.75 -0.75,0.75c-0.75,0 -0.75,-0.75 -0.75,-0.75c0.00411,-0.47513 0.03595,-1.48633 0.20567,-2.38931l-0.12026,0.06013c0,0 -0.67082,0.33541 -1.00623,-0.33541z" fill="#000000" fill-rule="nonzero" stroke-width="0.5" stroke-linecap="butt" stroke-linejoin="miter"/><text transform="translate(405.5,305.28039) scale(0.25245,0.25245)" font-size="40" xml:space="preserve" fill="#000000" fill-rule="nonzero" stroke-width="1" stroke-linecap="butt" stroke-linejoin="miter" font-family="Sans Serif" font-weight="normal" text-anchor="start"><tspan x="0" dy="0">Sonic.exe submitted</tspan><tspan x="0" dy="46.150000000000006px">by @thatpizzatowerfan</tspan></text><text transform="translate(229.5,194.42547) scale(0.26672,0.26672)" font-size="40" xml:space="preserve" fill="#000000" fill-rule="nonzero" stroke-width="1" stroke-linecap="butt" stroke-linejoin="miter" font-family="Sans Serif" font-weight="normal" text-anchor="start"><tspan x="0" dy="0">bailey submitted by</tspan><tspan x="0" dy="46.150000000000006px">@BananaChitoz_21 </tspan></text><path d="M289.03033,162.53033c-0.53033,0.53033 -1.06066,0 -1.06066,0l-0.9082,-0.9219c-0.48675,-0.25773 -0.82756,-0.54191 -1.11831,-0.85037c-0.19347,-0.01584 -0.39789,-0.02551 -0.61547,-0.02812l-0.13862,-0.10807l-0.02447,0.04895l-0.98548,-0.49273c-0.25368,-0.12026 -0.42912,-0.37868 -0.42912,-0.67809c0,-0.2994 0.17544,-0.55783 0.42912,-0.67809l0.11642,-0.05821c-0.08765,-0.20373 -0.12102,-0.49888 0.17413,-0.79403c0.53033,-0.53033 1.06065,0 1.06065,0c0.05651,0.05723 0.11068,0.11431 0.16281,0.17117c0.83606,-0.49993 1.70184,-0.93435 2.59415,-1.37633c-0.02363,-0.07574 -0.03729,-0.1633 -0.03729,-0.26452c0,-0.75 0.75,-0.75 0.75,-0.75h1.5c0.41421,0 0.75,0.33579 0.75,0.75c0,0.2994 -0.17544,0.55783 -0.42912,0.67809l-0.98547,0.49273c-0.79568,0.39784 -1.97673,1.23741 -3.06219,1.649c2.48567,0.26005 4.36733,1.43018 7.22678,1.43018c0.70205,0 3.04496,-0.2657 3.53033,0.21967c1.32269,1.32269 -0.66561,5.25873 -1.39913,6.27637c-2.53513,4.26419 -4.86064,8.51789 -7.49322,12.64826c-1.56289,2.45209 -2.76448,5.79797 -6.13799,5.8557c0,0 -0.75,0 -0.75,-0.75c0,-0.75 0.75,-0.75 0.75,-0.75c2.57325,0.06238 3.69266,-3.30412 4.86201,-5.1443c2.63574,-4.14779 4.98144,-8.40924 7.52156,-12.69238c0.47084,-0.60399 0.6889,-1.37851 0.8944,-2.11625c0.04239,-0.15216 0.89236,-2.06609 0.69171,-2.26675c-0.35025,-0.35025 -0.97434,0.21967 -1.46967,0.21967c-1.26935,0 -2.94171,0.27455 -4.1723,-0.02006c-0.64048,-0.15333 -1.16228,-0.33758 -1.63682,-0.52364c0.09705,0.20408 0.14943,0.51405 -0.16054,0.82403z" fill="#000000" fill-rule="nonzero" stroke-width="0.5" stroke-linecap="butt" stroke-linejoin="miter"/><path d="M402.25,272.5c0,-0.75 0.75,-0.75 0.75,-0.75l0.83541,0.07918c2.51823,1.3498 4.54156,4.75313 5.82844,7.32149c0.04378,0.08302 0.07244,0.17524 0.08232,0.27301c0.03119,0.22097 -0.0076,0.53397 -0.38788,0.73537c-0.01608,0.00876 -0.03251,0.01695 -0.04927,0.02454c-0.18252,0.08523 -0.33954,0.09565 -0.47106,0.06641c-0.13865,0 -0.29161,0 -0.45485,0c-0.51741,0.65957 -0.82443,1.30539 -1.27467,2.18853l-1.0781,1.0918c0,0 -0.53033,0.53033 -1.06066,0c-0.53033,-0.53033 0,-1.06066 0,-1.06066l0.9219,-0.9082c0.24104,-0.49401 0.45678,-0.91771 0.69023,-1.31147c-0.60298,0 -1.17509,0 -1.58179,0c-0.85083,0 -2.79345,-0.39589 -3.46967,0.28033c-0.58341,0.58341 -0.28033,2.34994 -0.28033,2.96967c0,2.47529 0.52663,4.94302 0.99032,7.37986c0.26289,1.38161 -0.38639,3.9746 1.09509,4.44932c0,0 0.67082,0.33541 0.33541,1.00623c-0.33541,0.67082 -1.00623,0.33541 -1.00623,0.33541c-2.26006,-1.34732 -1.43628,-3.22894 -1.90491,-5.55068c-0.50423,-2.49814 -1.00968,-5.06974 -1.00968,-7.62014c0,-1.30288 -0.33065,-2.98001 0.71967,-4.03033c0.60399,-0.60399 1.45681,-0.76674 2.33684,-0.78802c0.17456,-0.43165 0.69349,-0.43165 0.69349,-0.43165h1c0.81231,0.0139 2.11529,0.1043 2.9637,0.5c0.07934,0 0.15868,0 0.23802,0c0.01445,-0.01565 0.02903,-0.03135 0.04373,-0.04708c-1.11564,-2.08844 -2.77,-4.72345 -4.58087,-5.5321l-0.16459,0.07918c0,0 -0.75,0 -0.75,-0.75z" fill="#000000" fill-rule="nonzero" stroke-width="0.5" stroke-linecap="butt" stroke-linejoin="miter"/><text transform="translate(274.5,307.57352) scale(0.21872,0.21872)" font-size="40" xml:space="preserve" fill="#000000" fill-rule="nonzero" stroke-width="1" stroke-linecap="butt" stroke-linejoin="miter" font-family="Sans Serif" font-weight="normal" text-anchor="start"><tspan x="0" dy="0">boyfriend fnf submitted by</tspan><tspan x="0" dy="46.150000000000006px">@gavinmiddleton (not me)</tspan></text><text transform="translate(392.5,96.5425) scale(0.28455,0.28455)" font-size="40" xml:space="preserve" fill="#000000" fill-rule="nonzero" stroke-width="1" stroke-linecap="butt" stroke-linejoin="miter" font-family="Sans Serif" font-weight="normal" text-anchor="start"><tspan x="0" dy="0">aurelia submitted by</tspan><tspan x="0" dy="46.150000000000006px">@tzbun</tspan></text><text transform="translate(253.5,239.5425) scale(0.28455,0.28455)" font-size="40" xml:space="preserve" fill="#000000" fill-rule="nonzero" stroke-width="1" stroke-linecap="butt" stroke-linejoin="miter" font-family="Sans Serif" font-weight="normal" text-anchor="start"><tspan x="0" dy="0">Parker submitted by</tspan><tspan x="0" dy="46.150000000000006px">@coolskull212 (me)</tspan></text><path d="M165.75,206c0,0.75 -0.75,0.75 -0.75,0.75l0.17082,-0.41459c-0.59551,1.16809 -1.67769,2.73206 -2.8838,3.3575c-0.26467,0.13725 -0.64602,-0.22233 -0.89272,-0.05492c-0.42694,0.28972 -0.79373,0.73168 -1.24571,1.02211c-0.30292,0.35578 -0.73418,0.4735 -1.32434,0.25016c-0.1875,-0.04047 -0.39024,-0.1108 -0.61127,-0.21734c-0.32679,-0.15752 -0.65236,-0.43481 -0.96786,-0.75997c-0.53114,-0.24494 -1.05739,-0.50059 -1.58054,-0.76212l-0.98547,-0.49273c-0.25368,-0.12026 -0.42912,-0.37869 -0.42912,-0.67809c0,-0.41422 0.33578,-0.75 0.75,-0.75h1.5v0.03116c0.09554,0.0014 0.19121,0.00957 0.28701,0.02593c0.7406,0.12644 1.02579,0.8695 1.42586,1.44272c0.05232,0.02517 0.10466,0.05031 0.157,0.07542c0.09087,0.11318 0.22866,0.29049 0.3731,0.4572c0.01446,0.00853 0.02914,0.01676 0.04404,0.02467c0.23916,0.12698 0.4326,0.17914 0.59377,0.17845c0.20338,-1.4336 -0.29891,-3.01078 -0.61073,-4.31322c-0.5102,-2.13112 -0.02006,-4.97802 -0.02006,-7.17231c0,-0.73172 -0.05429,-2.81438 0.35265,-3.1361c0.47567,-0.37606 1.17661,0.29527 1.75802,0.46748c2.73686,0.81064 5.4209,2.3776 7.87246,3.81691c5.49466,3.24246 12.23717,4.35563 18.21488,6.42198c3.77597,1.30526 7.38087,3.08296 11.17404,4.3465c9.80657,3.26886 19.50446,6.78785 29.34631,9.96323c8.57106,2.76537 17.65144,3.03602 26.26881,5.90848c0,0 0.71151,0.23717 0.47434,0.94868c-0.23717,0.71151 -0.94868,0.47434 -0.94868,0.47434c-8.61175,-2.87058 -17.68447,-3.13874 -26.25505,-5.90396c-9.84641,-3.17685 -19.54899,-6.69738 -29.36007,-9.96774c-3.79809,-1.26685 -7.40861,-3.04479 -11.18976,-4.35184c-6.08681,-2.10406 -12.87739,-3.26591 -18.4846,-6.54632c-1.71242,-1.00662 -3.49657,-1.86235 -5.27194,-2.75213c-0.77361,-0.38771 -1.66026,-0.53427 -2.40812,-0.96958c-0.20323,-0.11829 -0.36002,-0.81622 -0.39594,-0.58384c-0.56278,3.64153 0.85265,8.17695 0.85265,11.8639c0,0.10272 -0.00132,0.20401 -0.00402,0.30369c0.29812,-0.06653 0.68103,0.14031 0.96701,0.0034c0.84234,-0.40326 1.72261,-1.83585 2.1162,-2.6425l1.17082,-0.41459c0,0 0.75,0 0.75,0.75z" fill="#000000" fill-rule="nonzero" stroke-width="0.5" stroke-linecap="butt" stroke-linejoin="miter"/><text transform="translate(262.86255,88.13403) scale(0.21574,0.21574)" font-size="40" xml:space="preserve" fill="#000000" fill-rule="nonzero" stroke-width="1" stroke-linecap="butt" stroke-linejoin="miter" font-family="Sans Serif" font-weight="normal" text-anchor="start"><tspan x="0" dy="0">if you have no idea</tspan><tspan x="0" dy="48px">who these guys are</tspan><tspan x="0" dy="48px">turn on bonus characters</tspan><tspan x="0" dy="48px">in the settings/more button</tspan></text><path d="M332.51894,122.21043c0.81051,-0.44022 1.91965,-0.67786 3.04661,-0.85558c4.56046,-1.92658 10.23474,-2.49437 15.23488,-2.37074c1.6696,-0.12999 3.37061,-0.19862 5.13831,-0.19538c3.0091,0.49714 7.3599,0.93304 9.90838,2.75436c5.21718,3.72854 7.4841,13.06521 4.67844,18.70287c-0.84044,1.26316 -1.76891,2.39279 -2.77217,3.39695c-0.22532,0.75087 -0.51069,1.45494 -0.9332,1.99632c-4.71973,6.04748 -15.80474,6.91377 -22.779,4.20126c-0.13816,-0.02206 -0.27626,-0.04484 -0.41429,-0.06834c-3.15308,-0.53669 -6.29779,-0.96472 -9.28541,-2.01712c0.31639,0.43702 0.66858,0.85536 1.06572,1.25082c0,0 0.53033,0.53033 0,1.06066c-0.53033,0.53033 -1.06066,0 -1.06066,0c-0.99155,-0.99532 -1.86455,-2.1561 -2.61872,-3.43302l-0.18636,-0.09315c0,0 -0.61255,-0.30628 -0.3743,-0.91883c-1.51156,-2.90995 -2.45702,-6.31224 -2.83349,-9.69456c-0.89581,-2.97752 -0.99597,-5.9385 0.28072,-8.29549c0.07262,-0.3622 0.1537,-0.71763 0.24326,-1.06536c0.38685,-0.58691 0.8253,-1.13249 1.30898,-1.63915c0.60924,-1.09041 1.30707,-2.14881 2.3523,-2.71651zM369.2282,139.49306c1.08755,-2.16306 1.28077,-4.99875 0.77594,-7.78083c0.06538,2.74709 -0.55299,5.70294 -1.39589,8.66018c0.21188,-0.28493 0.4186,-0.578 0.61995,-0.87935zM338.90159,122.35444c-0.52507,0.11172 -1.13972,0.19364 -1.78162,0.27817c-2.19774,0.63681 -4.21754,1.55436 -5.81549,3.21168c-0.41006,0.76434 -0.76744,1.54755 -1.1369,2.10791c-0.05531,0.08116 -0.1083,0.16297 -0.15899,0.2454c-0.53702,2.83301 -0.41647,5.43434 0.09412,8.04404c1.33798,3.34939 3.67675,6.6283 5.07459,8.89347c0.17715,0.28707 0.43902,0.54859 0.74115,0.79014c2.74323,0.74548 5.661,1.24978 8.20848,2.33069c0.10095,0.04348 0.20296,0.08609 0.30598,0.12782c8.02099,1.24925 16.2879,0.00816 22.02731,-5.55829c0.27028,-0.99495 0.4443,-2.07657 0.70016,-2.84429c1.93297,-6.77039 2.89488,-13.46265 -4.42088,-17.24994c-1.80601,-0.93495 -4.38936,-1.25771 -6.34794,-1.79396c-2.46328,-0.3474 -4.88151,-0.41889 -7.28327,-0.29106c-3.3751,0.3562 -6.66695,0.95509 -10.20668,1.70822zM333.11221,145.64178c0.1173,0.05425 0.23494,0.10716 0.35291,0.1588c0.01209,-0.10503 0.05392,-0.30957 0.1987,-0.46721c-0.47417,-0.54457 -0.94067,-1.12768 -1.39121,-1.74096c0.25448,0.69907 0.5265,1.38578 0.8396,2.04936z" fill="#000000" fill-rule="nonzero" stroke-width="0.5" stroke-linecap="butt" stroke-linejoin="miter"/><path d="M362.96021,127.53617c0,0.75 -0.75,0.75 -0.75,0.75l-0.34445,-0.00008c-6.66733,-0.09887 -13.93222,-1.32542 -20.47364,0.31102c0,0 -0.72761,0.1819 -0.90951,-0.54571c-0.1819,-0.72761 0.54571,-0.90951 0.54571,-0.90951c6.68297,-1.66966 14.04982,-0.45663 20.85969,-0.35564l0.32221,-0.00008c0,0 0.75,0 0.75,0.75z" fill="#000000" fill-rule="nonzero" stroke-width="0.5" stroke-linecap="butt" stroke-linejoin="miter"/><path d="M362.29354,135.53617c0,0.75 -0.75,0.75 -0.75,0.75c-4.77778,0 -10.22222,0 -15,0c-2.33805,0 -5.21854,-0.4677 -7.4295,0.29485c0,0 -0.71151,0.23717 -0.94868,-0.47434c-0.23717,-0.71151 0.47434,-0.94868 0.47434,-0.94868c2.42894,-0.78745 5.3545,-0.37182 7.90384,-0.37182c4.77778,0 9.55556,0 14.33333,0h0.66667c0,0 0.75,0 0.75,0.75z" fill="#000000" fill-rule="nonzero" stroke-width="0.5" stroke-linecap="butt" stroke-linejoin="miter"/><path d="M360.62688,143.20284c0,0.75 -0.75,0.75 -0.75,0.75c-6.44444,0 -13.22222,0 -19.66667,0c0,0 -0.75,0 -0.75,-0.75c0,-0.75 0.75,-0.75 0.75,-0.75c6.44444,0 12.88889,0 19.33333,0h0.33333c0,0 0.75,0 0.75,0.75z" fill="#000000" fill-rule="nonzero" stroke-width="0.5" stroke-linecap="butt" stroke-linejoin="miter"/><path d="M291.25384,290.66482c-0.67082,0.33541 -1.00623,-0.33541 -1.00623,-0.33541l-0.33133,-0.74597c-0.99022,-0.49487 -3.81262,-3.16982 -3.46182,-4.51718c0.1238,-0.4755 0.83254,-0.52707 1.21109,-0.84032c0.2284,-0.18899 0.45359,-0.37912 0.677,-0.5693c0.42043,-0.42719 0.93195,-0.8444 1.43174,-1.21781c0.54212,-0.45212 1.09186,-0.89076 1.66984,-1.30027l-0.11792,-0.11792l0.93812,-0.93812c0.13572,-0.13572 0.32322,-0.21967 0.53033,-0.21967c0.41421,0 0.75,0.33579 0.75,0.75c0,0.14908 -0.0435,0.28801 -0.11849,0.40477l-0.66359,1.07188l-0.0499,-0.03089l-0.03994,0.14832c-0.83694,0.60735 -1.48022,1.45155 -2.30017,2.08164c-0.11913,0.09155 -0.28357,0.21598 -0.46246,0.34017c0.21238,0.03314 0.41647,0.07087 0.57497,0.08947c1.98011,0.23238 3.9488,0.41944 5.93746,0.56149c5.13018,0.36644 10.06722,0.68089 15.23219,0.68089c3.37695,0 6.93927,-0.32256 10.2724,0.23266c0.71465,0.11904 2.93581,0.3775 3.3719,1.01692c1.13408,1.66286 -0.01064,1.90912 -0.51024,2.94861c-1.61667,3.36373 -2.47627,6.08829 -5.19656,8.80858c0,0 -0.53033,0.53033 -1.06066,0c-0.53033,-0.53033 0,-1.06066 0,-1.06066c2.06343,-2.06343 3.42297,-4.14632 4.40502,-6.92537c0.34569,-0.97824 1.86489,-2.1464 1.14557,-2.89409c-0.56322,-0.58543 -1.60032,-0.28076 -2.40163,-0.41439c-3.24736,-0.54154 -6.735,-0.21225 -10.0258,-0.21225c-6.19027,0 -12.18886,-0.31736 -18.34861,-0.89987c-1.41979,-0.13427 -2.90362,-0.25663 -4.30785,-0.50859c-0.28998,-0.05203 -0.67244,-0.00546 -0.98866,-0.04015c0.34191,0.26097 1.01671,0.50154 1.27138,0.82123c0.49883,0.62619 0.99288,1.32255 1.7015,1.69512l0.60678,1.13026c0,0 0.33541,0.67082 -0.33541,1.00623z" fill="#000000" fill-rule="nonzero" stroke-width="0.5" stroke-linecap="butt" stroke-linejoin="miter"/></g></g></svg>