<svg version="1.1" xmlns="http://www.w3.org/2000/svg" xmlns:xlink="http://www.w3.org/1999/xlink" width="213.18203" height="280.18476" viewBox="0,0,213.18203,280.18476"><defs><linearGradient x1="381.97851" y1="72.26874" x2="380.07708" y2="111.38054" gradientUnits="userSpaceOnUse" id="color-1"><stop offset="0" stop-color="#000000" stop-opacity="0"/><stop offset="1" stop-color="#000000" stop-opacity="0.12941"/></linearGradient><linearGradient x1="247.13248" y1="79.6927" x2="255.29583" y2="117.99032" gradientUnits="userSpaceOnUse" id="color-2"><stop offset="0" stop-color="#000000" stop-opacity="0"/><stop offset="1" stop-color="#000000" stop-opacity="0.12941"/></linearGradient></defs><g transform="translate(-214.52362,-38.88751)"><g stroke-miterlimit="10"><g stroke-linecap="butt"><g><path d="M286.35186,319.07226l15.14285,-131.8421l37.78325,-0.15789l13.57389,132z" fill="#ffffff" stroke="#000000" stroke-width="0"/><path d="M295.03756,243.4497c2.31163,-20.12635 6.45715,-56.21953 6.45715,-56.21953l37.78325,-0.15789c0,0 3.72623,36.23595 5.80113,56.41339c0.06797,0.66099 -50.13384,0.76769 -50.04153,-0.03597z" fill="#c5c5c5" stroke="#000000" stroke-width="0"/><path d="M296.28412,232.59645c2.01457,-17.53997 5.21059,-45.36629 5.21059,-45.36629l37.78325,-0.15789c0,0 4.66307,45.11419 4.71681,45.63673c0.00337,0.03279 -47.73775,0.12343 -47.71065,-0.11255z" fill="#7e7e7e" stroke="#000000" stroke-width="0"/><path d="M297.74772,219.85353c1.58763,-13.82276 3.74699,-32.62337 3.74699,-32.62337l37.78325,-0.15789c0,0 1.95261,18.98827 3.38375,32.9055c0.00712,0.06919 -44.92683,-0.01249 -44.91399,-0.12423z" fill="#424242" stroke="#000000" stroke-width="0"/><path d="M297.5,220.16667c0,-0.9665 0.7835,-1.75 1.75,-1.75c0.9665,0 1.75,0.7835 1.75,1.75c0,0.9665 -0.7835,1.75 -1.75,1.75c-0.9665,0 -1.75,-0.7835 -1.75,-1.75z" fill="#424242" stroke="none" stroke-width="0.5"/><path d="M306.91667,217.75c0.9665,0 1.75,0.7835 1.75,1.75c0,0.9665 -0.7835,1.75 -1.75,1.75c-0.3017,0 -0.58556,-0.07635 -0.83333,-0.21077c-0.24777,0.13442 -0.53163,0.21077 -0.83333,0.21077c-0.9665,0 -1.75,-0.7835 -1.75,-1.75c0,-0.9665 0.7835,-1.75 1.75,-1.75c0.3017,0 0.58556,0.07635 0.83333,0.21077c0.24777,-0.13442 0.53163,-0.21077 0.83333,-0.21077z" fill="#424242" stroke="none" stroke-width="0.5"/><path d="M308.5,220.66667c0,-0.53086 0.33092,-0.98441 0.79772,-1.16566c0.26193,-0.63635 0.88812,-1.08434 1.61894,-1.08434c0.41516,0 0.79655,0.14456 1.09658,0.3861c0.20911,-0.21861 0.49678,-0.36146 0.81767,-0.3832c0.22793,-0.10871 0.48307,-0.16956 0.75242,-0.16956c0.61869,0 1.16238,0.32105 1.47358,0.80564c0.19664,-0.75131 0.88013,-1.30564 1.69308,-1.30564c0.9665,0 1.75,0.7835 1.75,1.75c0,0.9665 -0.7835,1.75 -1.75,1.75c-0.61869,0 -1.16238,-0.32105 -1.47358,-0.80564c-0.19664,0.75131 -0.88013,1.30564 -1.69308,1.30564c-0.49626,0 -0.94428,-0.20656 -1.26275,-0.5384c-0.31903,0.42793 -0.82911,0.70506 -1.40392,0.70506c-0.22382,0 -0.43782,-0.04201 -0.63455,-0.11859c-0.16145,0.07606 -0.34182,0.11859 -0.53212,0.11859c-0.69036,0 -1.25,-0.55964 -1.25,-1.25z" fill="#424242" stroke="none" stroke-width="0.5"/><path d="M332.91667,217.41667c0.9665,0 1.75,0.7835 1.75,1.75c0,0.9665 -0.7835,1.75 -1.75,1.75c-0.58936,0 -1.11067,-0.29134 -1.42777,-0.73785c-0.44514,0.90452 -1.57223,0.90452 -1.57223,0.90452h-2.5c0,0 -0.86581,0 -1.37944,-0.609c-0.31412,0.46781 -0.84806,0.77567 -1.4539,0.77567c-0.48967,0 -0.93237,-0.20111 -1.25,-0.52525c-0.31763,0.32414 -0.76033,0.52525 -1.25,0.52525c-0.9665,0 -1.75,-0.7835 -1.75,-1.75c0,-0.9665 0.7835,-1.75 1.75,-1.75c0.48967,0 0.93237,0.20111 1.25,0.52525c0.31763,-0.32414 0.76033,-0.52525 1.25,-0.52525c0.53241,0 1.00929,0.23775 1.33026,0.61289c0.48235,-0.77955 1.50308,-0.77955 1.50308,-0.77955h2.5c0,0 0.97758,0 1.47143,0.73064c0.29928,-0.53536 0.87165,-0.89731 1.52857,-0.89731z" fill="#424242" stroke="none" stroke-width="0.5"/><path d="M338.83334,221.16667c0,0.69036 -0.55964,1.25 -1.25,1.25c-0.54428,0 -1.0073,-0.34785 -1.17889,-0.83337c-0.96087,-0.00657 -1.73778,-0.78753 -1.73778,-1.74995c0,-0.9665 0.7835,-1.75 1.75,-1.75c0.72825,0 1.35259,0.44482 1.61616,1.07759c0.15789,-0.80422 0.86669,-1.41092 1.71717,-1.41092c0.3841,0 0.73931,0.12375 1.02792,0.33355c0.95362,0.01492 1.72208,0.79261 1.72208,1.74979c0,0.9665 -0.7835,1.75 -1.75,1.75c-0.3841,0 -0.73931,-0.12375 -1.02792,-0.33356c-0.33122,-0.00518 -0.6401,-0.10237 -0.9022,-0.26715c0.00887,0.06006 0.01345,0.12151 0.01345,0.18403z" fill="#424242" stroke="none" stroke-width="0.5"/><path d="M296.66667,232.83334c0,-0.9665 0.7835,-1.75 1.75,-1.75c0.9665,0 1.75,0.7835 1.75,1.75c0,0.9665 -0.7835,1.75 -1.75,1.75c-0.9665,0 -1.75,-0.7835 -1.75,-1.75z" fill="#7e7e7e" stroke="none" stroke-width="0.5"/><path d="M300.66667,232.16667c0,-0.9665 0.7835,-1.75 1.75,-1.75c0.9665,0 1.75,0.7835 1.75,1.75c0,0.9665 -0.7835,1.75 -1.75,1.75c-0.9665,0 -1.75,-0.7835 -1.75,-1.75z" fill="#7e7e7e" stroke="none" stroke-width="0.5"/><path d="M310.08333,230.25c0.9665,0 1.75,0.7835 1.75,1.75c0,0.9665 -0.7835,1.75 -1.75,1.75c-0.60339,0 -1.13547,-0.30538 -1.45009,-0.77001c-0.29284,0.5569 -0.87703,0.93668 -1.54991,0.93668c-0.9665,0 -1.75,-0.7835 -1.75,-1.75c0,-0.9665 0.7835,-1.75 1.75,-1.75c0.60339,0 1.13546,0.30538 1.45008,0.77002c0.29284,-0.5569 0.87703,-0.93668 1.54992,-0.93668z" fill="#7e7e7e" stroke="none" stroke-width="0.5"/><path d="M314.33333,232.83334c0,-0.9665 0.7835,-1.75 1.75,-1.75c0.9665,0 1.75,0.7835 1.75,1.75c0,0.9665 -0.7835,1.75 -1.75,1.75c-0.9665,0 -1.75,-0.7835 -1.75,-1.75z" fill="#7e7e7e" stroke="none" stroke-width="0.5"/><path d="M322.16667,232.83334c0,-0.9665 0.7835,-1.75 1.75,-1.75c0.9665,0 1.75,0.7835 1.75,1.75c0,0.9665 -0.7835,1.75 -1.75,1.75c-0.9665,0 -1.75,-0.7835 -1.75,-1.75z" fill="#7e7e7e" stroke="none" stroke-width="0.5"/><path d="M327.83333,232.66667c0,-0.9665 0.7835,-1.75 1.75,-1.75c0.9665,0 1.75,0.7835 1.75,1.75c0,0.9665 -0.7835,1.75 -1.75,1.75c-0.9665,0 -1.75,-0.7835 -1.75,-1.75z" fill="#7e7e7e" stroke="none" stroke-width="0.5"/><path d="M331.5,232.66667c0,-0.9665 0.7835,-1.75 1.75,-1.75c0.9665,0 1.75,0.7835 1.75,1.75c0,0.9665 -0.7835,1.75 -1.75,1.75c-0.9665,0 -1.75,-0.7835 -1.75,-1.75z" fill="#7e7e7e" stroke="none" stroke-width="0.5"/><path d="M341.75,230.91667c0.9665,0 1.75,0.7835 1.75,1.75c0,0.9665 -0.7835,1.75 -1.75,1.75c-0.14358,0 -0.28313,-0.01729 -0.41667,-0.0499c-0.13353,0.03261 -0.27308,0.0499 -0.41667,0.0499c-0.4482,0 -0.85706,-0.1685 -1.16667,-0.44561c-0.30961,0.27711 -0.71846,0.44561 -1.16667,0.44561c-0.2684,0 -0.52269,-0.06042 -0.75,-0.16841c-0.22731,0.10799 -0.4816,0.16841 -0.75,0.16841c-0.9665,0 -1.75,-0.7835 -1.75,-1.75c0,-0.9665 0.7835,-1.75 1.75,-1.75c0.2684,0 0.52269,0.06042 0.75,0.16841c0.22731,-0.10799 0.4816,-0.16841 0.75,-0.16841c0.4482,0 0.85706,0.1685 1.16667,0.44561c0.30961,-0.27711 0.71846,-0.44561 1.16667,-0.44561c0.14358,0 0.28313,0.0173 0.41667,0.04991c0.13353,-0.03261 0.27308,-0.04991 0.41667,-0.04991z" fill="#7e7e7e" stroke="none" stroke-width="0.5"/><path d="M317.83333,233c0,-0.9665 0.7835,-1.75 1.75,-1.75c0.9665,0 1.75,0.7835 1.75,1.75c0,0.9665 -0.7835,1.75 -1.75,1.75c-0.9665,0 -1.75,-0.7835 -1.75,-1.75z" fill="#7e7e7e" stroke="none" stroke-width="0.5"/><path d="M294.83333,244c0,-0.9665 0.7835,-1.75 1.75,-1.75c0.9665,0 1.75,0.7835 1.75,1.75c0,0.9665 -0.7835,1.75 -1.75,1.75c-0.9665,0 -1.75,-0.7835 -1.75,-1.75z" fill="#c5c5c5" stroke="none" stroke-width="0.5"/><path d="M341.33334,244.16667c0,-0.9665 0.7835,-1.75 1.75,-1.75c0.9665,0 1.75,0.7835 1.75,1.75c0,0.9665 -0.7835,1.75 -1.75,1.75c-0.9665,0 -1.75,-0.7835 -1.75,-1.75z" fill="#c5c5c5" stroke="none" stroke-width="0.5"/><path d="M335.33333,244c0,-0.9665 0.7835,-1.75 1.75,-1.75c0.37181,0 0.71654,0.11595 1,0.31367c0.28346,-0.19772 0.62819,-0.31367 1,-0.31367c0.9665,0 1.75,0.7835 1.75,1.75c0,0.9665 -0.7835,1.75 -1.75,1.75c-0.37181,0 -0.71654,-0.11595 -1,-0.31367c-0.28346,0.19772 -0.62819,0.31367 -1,0.31367c-0.9665,0 -1.75,-0.7835 -1.75,-1.75z" fill="#c5c5c5" stroke="none" stroke-width="0.5"/><path d="M331.66667,244.33334c0,-0.9665 0.7835,-1.75 1.75,-1.75c0.9665,0 1.75,0.7835 1.75,1.75c0,0.9665 -0.7835,1.75 -1.75,1.75c-0.9665,0 -1.75,-0.7835 -1.75,-1.75z" fill="#c5c5c5" stroke="none" stroke-width="0.5"/><path d="M326.66667,244.33334c0,-0.9665 0.7835,-1.75 1.75,-1.75c0.9665,0 1.75,0.7835 1.75,1.75c0,0.9665 -0.7835,1.75 -1.75,1.75c-0.9665,0 -1.75,-0.7835 -1.75,-1.75z" fill="#c5c5c5" stroke="none" stroke-width="0.5"/><path d="M319.67271,243.68801c0.14533,-1.74395 1.88929,-1.59862 1.88929,-1.59862l2,0.16666c0,0 1.74395,0.14533 1.59862,1.88929c-0.14533,1.74395 -1.88928,1.59862 -1.88928,1.59862l-2,-0.16666c0,0 -1.74396,-0.14533 -1.59863,-1.88929z" fill="#c5c5c5" stroke="none" stroke-width="0.5"/><path d="M306.91667,241.91667c0.24572,0 0.47962,0.05065 0.69182,0.14207c0.24705,-0.66682 0.88878,-1.14207 1.64152,-1.14207c0.58252,0 1.09858,0.28462 1.41667,0.72239c0.31809,-0.43777 0.83414,-0.72239 1.41667,-0.72239c0.53935,0 1.02171,0.24399 1.34273,0.62762c0.20294,-0.08229 0.42481,-0.12762 0.65727,-0.12762c0.9665,0 1.75,0.7835 1.75,1.75c0,0.9665 -0.7835,1.75 -1.75,1.75c-0.53935,0 -1.02171,-0.24399 -1.34273,-0.62762c-0.20294,0.08229 -0.42481,0.12762 -0.65727,0.12762c-0.58252,0 -1.09858,-0.28462 -1.41667,-0.72239c-0.31809,0.43777 -0.83414,0.72239 -1.41667,0.72239c-0.24572,0 -0.47962,-0.05065 -0.69182,-0.14207c-0.24705,0.66682 -0.88878,1.14207 -1.64152,1.14207c-0.79836,0 -1.47185,-0.5346 -1.68202,-1.26535c-0.30771,0.26902 -0.71048,0.43202 -1.15131,0.43202c-0.3017,0 -0.58556,-0.07635 -0.83333,-0.21077c-0.24777,0.13442 -0.53163,0.21077 -0.83333,0.21077c-0.21569,0 -0.42227,-0.03903 -0.61306,-0.1104c-0.29161,0.56074 -0.87788,0.94373 -1.55361,0.94373c-0.9665,0 -1.75,-0.7835 -1.75,-1.75c0,-0.9665 0.7835,-1.75 1.75,-1.75c0.21569,0 0.42227,0.03903 0.61306,0.1104c0.29161,-0.56074 0.87788,-0.94373 1.55361,-0.94373c0.3017,0 0.58556,0.07635 0.83333,0.21077c0.24777,-0.13442 0.53163,-0.21077 0.83333,-0.21077c0.79836,0 1.47185,0.5346 1.68202,1.26535c0.30771,-0.26902 0.71048,-0.43202 1.15131,-0.43202z" fill="#c5c5c5" stroke="none" stroke-width="0.5"/><path d="M301.66667,224.83334c0,-0.69036 0.55964,-1.25 1.25,-1.25c0.69036,0 1.25,0.55964 1.25,1.25c0,0.69036 -0.55964,1.25 -1.25,1.25c-0.69036,0 -1.25,-0.55964 -1.25,-1.25z" fill="#424242" stroke="none" stroke-width="0.5"/><path d="M316.16667,222.66667c0,-0.69036 0.55964,-1.25 1.25,-1.25c0.69036,0 1.25,0.55964 1.25,1.25c0,0.69036 -0.55964,1.25 -1.25,1.25c-0.69036,0 -1.25,-0.55964 -1.25,-1.25z" fill="#424242" stroke="none" stroke-width="0.5"/><path d="M319.16667,223.83334c0,-0.69036 0.55964,-1.25 1.25,-1.25c0.69036,0 1.25,0.55964 1.25,1.25c0,0.69036 -0.55964,1.25 -1.25,1.25c-0.69036,0 -1.25,-0.55964 -1.25,-1.25z" fill="#424242" stroke="none" stroke-width="0.5"/><path d="M324.66667,225.5c0,-0.69036 0.55964,-1.25 1.25,-1.25c0.69036,0 1.25,0.55964 1.25,1.25c0,0.69036 -0.55964,1.25 -1.25,1.25c-0.69036,0 -1.25,-0.55964 -1.25,-1.25z" fill="#424242" stroke="none" stroke-width="0.5"/><path d="M327.5,225.33334c0,-0.69036 0.55964,-1.25 1.25,-1.25c0.69036,0 1.25,0.55964 1.25,1.25c0,0.69036 -0.55964,1.25 -1.25,1.25c-0.69036,0 -1.25,-0.55964 -1.25,-1.25z" fill="#424242" stroke="none" stroke-width="0.5"/><path d="M331.83333,223.33334c0,-0.69036 0.55964,-1.25 1.25,-1.25c0.69036,0 1.25,0.55964 1.25,1.25c0,0.69036 -0.55964,1.25 -1.25,1.25c-0.69036,0 -1.25,-0.55964 -1.25,-1.25z" fill="#424242" stroke="none" stroke-width="0.5"/><path d="M299.33333,238.33334c0,-0.69036 0.55964,-1.25 1.25,-1.25c0.69036,0 1.25,0.55964 1.25,1.25c0,0.69036 -0.55964,1.25 -1.25,1.25c-0.69036,0 -1.25,-0.55964 -1.25,-1.25z" fill="#7e7e7e" stroke="none" stroke-width="0.5"/><path d="M312.33333,234.33334c0,-0.69036 0.55964,-1.25 1.25,-1.25c0.69036,0 1.25,0.55964 1.25,1.25c0,0.69036 -0.55964,1.25 -1.25,1.25c-0.69036,0 -1.25,-0.55964 -1.25,-1.25z" fill="#7e7e7e" stroke="none" stroke-width="0.5"/><path d="M318,233.66667c0,-0.69036 0.55964,-1.25 1.25,-1.25c0.69036,0 1.25,0.55964 1.25,1.25c0,0.69036 -0.55964,1.25 -1.25,1.25c-0.69036,0 -1.25,-0.55964 -1.25,-1.25z" fill="#7e7e7e" stroke="none" stroke-width="0.5"/><path d="M325.5,236.33334c0,-0.69036 0.55964,-1.25 1.25,-1.25c0.69036,0 1.25,0.55964 1.25,1.25c0,0.69036 -0.55964,1.25 -1.25,1.25c-0.69036,0 -1.25,-0.55964 -1.25,-1.25z" fill="#7e7e7e" stroke="none" stroke-width="0.5"/><path d="M336.16667,238c0,-0.69036 0.55964,-1.25 1.25,-1.25c0.69036,0 1.25,0.55964 1.25,1.25c0,0.69036 -0.55964,1.25 -1.25,1.25c-0.69036,0 -1.25,-0.55964 -1.25,-1.25z" fill="#7e7e7e" stroke="none" stroke-width="0.5"/><path d="M340,238.33334c0,-0.69036 0.55964,-1.25 1.25,-1.25c0.69036,0 1.25,0.55964 1.25,1.25c0,0.69036 -0.55964,1.25 -1.25,1.25c-0.69036,0 -1.25,-0.55964 -1.25,-1.25z" fill="#7e7e7e" stroke="none" stroke-width="0.5"/><path d="M305.5,236.66667c0,-0.69036 0.55964,-1.25 1.25,-1.25c0.69036,0 1.25,0.55964 1.25,1.25c0,0.69036 -0.55964,1.25 -1.25,1.25c-0.69036,0 -1.25,-0.55964 -1.25,-1.25z" fill="#7e7e7e" stroke="none" stroke-width="0.5"/><path d="M296.16667,249.33334c0,-0.69036 0.55964,-1.25 1.25,-1.25c0.69036,0 1.25,0.55964 1.25,1.25c0,0.69036 -0.55964,1.25 -1.25,1.25c-0.69036,0 -1.25,-0.55964 -1.25,-1.25z" fill="#c5c5c5" stroke="none" stroke-width="0.5"/><path d="M306.5,248.33334c0,-0.69036 0.55964,-1.25 1.25,-1.25c0.69036,0 1.25,0.55964 1.25,1.25c0,0.69036 -0.55964,1.25 -1.25,1.25c-0.69036,0 -1.25,-0.55964 -1.25,-1.25z" fill="#c5c5c5" stroke="none" stroke-width="0.5"/><path d="M310.83333,246.33334c0,-0.69036 0.55964,-1.25 1.25,-1.25c0.69036,0 1.25,0.55964 1.25,1.25c0,0.69036 -0.55964,1.25 -1.25,1.25c-0.69036,0 -1.25,-0.55964 -1.25,-1.25z" fill="#c5c5c5" stroke="none" stroke-width="0.5"/><path d="M317.16667,244.66667c0,-0.69036 0.55964,-1.25 1.25,-1.25c0.69036,0 1.25,0.55964 1.25,1.25c0,0.69036 -0.55964,1.25 -1.25,1.25c-0.69036,0 -1.25,-0.55964 -1.25,-1.25z" fill="#c5c5c5" stroke="none" stroke-width="0.5"/><path d="M332.33333,249.83334c0,-0.69036 0.55964,-1.25 1.25,-1.25c0.69036,0 1.25,0.55964 1.25,1.25c0,0.69036 -0.55964,1.25 -1.25,1.25c-0.69036,0 -1.25,-0.55964 -1.25,-1.25z" fill="#c5c5c5" stroke="none" stroke-width="0.5"/><path d="M341.66667,249.5c0,-0.69036 0.55964,-1.25 1.25,-1.25c0.69036,0 1.25,0.55964 1.25,1.25c0,0.69036 -0.55964,1.25 -1.25,1.25c-0.69036,0 -1.25,-0.55964 -1.25,-1.25z" fill="#c5c5c5" stroke="none" stroke-width="0.5"/><path d="M341,244.5c0,-0.69036 0.55964,-1.25 1.25,-1.25c0.69036,0 1.25,0.55964 1.25,1.25c0,0.69036 -0.55964,1.25 -1.25,1.25c-0.69036,0 -1.25,-0.55964 -1.25,-1.25z" fill="#c5c5c5" stroke="none" stroke-width="0.5"/><path d="M302.5,229.5c0,-0.41422 0.33578,-0.75 0.75,-0.75c0.41422,0 0.75,0.33578 0.75,0.75c0,0.41422 -0.33578,0.75 -0.75,0.75c-0.41422,0 -0.75,-0.33578 -0.75,-0.75z" fill="#424242" stroke="none" stroke-width="0.5"/><path d="M310.16667,226.66667c0,-0.41422 0.33578,-0.75 0.75,-0.75c0.41422,0 0.75,0.33578 0.75,0.75c0,0.41422 -0.33578,0.75 -0.75,0.75c-0.41422,0 -0.75,-0.33578 -0.75,-0.75z" fill="#424242" stroke="none" stroke-width="0.5"/><path d="M318.16667,229.33334c0,-0.41422 0.33578,-0.75 0.75,-0.75c0.41422,0 0.75,0.33578 0.75,0.75c0,0.41422 -0.33578,0.75 -0.75,0.75c-0.41422,0 -0.75,-0.33578 -0.75,-0.75z" fill="#424242" stroke="none" stroke-width="0.5"/><path d="M323.16667,230c0,-0.41422 0.33578,-0.75 0.75,-0.75c0.41422,0 0.75,0.33578 0.75,0.75c0,0.41422 -0.33578,0.75 -0.75,0.75c-0.41422,0 -0.75,-0.33578 -0.75,-0.75z" fill="#424242" stroke="none" stroke-width="0.5"/><path d="M329.66667,229.83334c0,-0.41422 0.33578,-0.75 0.75,-0.75c0.41422,0 0.75,0.33578 0.75,0.75c0,0.41422 -0.33578,0.75 -0.75,0.75c-0.41422,0 -0.75,-0.33578 -0.75,-0.75z" fill="#424242" stroke="none" stroke-width="0.5"/><path d="M341.33334,229.16667c0,-0.41422 0.33578,-0.75 0.75,-0.75c0.41422,0 0.75,0.33578 0.75,0.75c0,0.41422 -0.33578,0.75 -0.75,0.75c-0.41422,0 -0.75,-0.33578 -0.75,-0.75z" fill="#424242" stroke="none" stroke-width="0.5"/><path d="M301,242.16667c0,-0.41422 0.33578,-0.75 0.75,-0.75c0.41422,0 0.75,0.33578 0.75,0.75c0,0.41422 -0.33578,0.75 -0.75,0.75c-0.41422,0 -0.75,-0.33578 -0.75,-0.75z" fill="#7e7e7e" stroke="none" stroke-width="0.5"/><path d="M311.33333,239.83334c0,-0.41422 0.33578,-0.75 0.75,-0.75c0.41422,0 0.75,0.33578 0.75,0.75c0,0.41422 -0.33578,0.75 -0.75,0.75c-0.41422,0 -0.75,-0.33578 -0.75,-0.75z" fill="#7e7e7e" stroke="none" stroke-width="0.5"/><path d="M323.5,240c0,-0.41422 0.33578,-0.75 0.75,-0.75c0.41422,0 0.75,0.33578 0.75,0.75c0,0.41422 -0.33578,0.75 -0.75,0.75c-0.41422,0 -0.75,-0.33578 -0.75,-0.75z" fill="#7e7e7e" stroke="none" stroke-width="0.5"/><path d="M338,242.83334c0,-0.41422 0.33578,-0.75 0.75,-0.75c0.41422,0 0.75,0.33578 0.75,0.75c0,0.41422 -0.33578,0.75 -0.75,0.75c-0.41422,0 -0.75,-0.33578 -0.75,-0.75z" fill="#7e7e7e" stroke="none" stroke-width="0.5"/><path d="M300,254.66667c0,-0.41422 0.33578,-0.75 0.75,-0.75c0.41422,0 0.75,0.33578 0.75,0.75c0,0.41422 -0.33578,0.75 -0.75,0.75c-0.41422,0 -0.75,-0.33578 -0.75,-0.75z" fill="#c5c5c5" stroke="none" stroke-width="0.5"/><path d="M312.83333,250.83334c0,-0.41422 0.33578,-0.75 0.75,-0.75c0.41422,0 0.75,0.33578 0.75,0.75c0,0.41422 -0.33578,0.75 -0.75,0.75c-0.41422,0 -0.75,-0.33578 -0.75,-0.75z" fill="#c5c5c5" stroke="none" stroke-width="0.5"/><path d="M330.33333,255.66667c0,-0.41422 0.33578,-0.75 0.75,-0.75c0.41422,0 0.75,0.33578 0.75,0.75c0,0.41421 -0.33578,0.75 -0.75,0.75c-0.41422,0 -0.75,-0.33579 -0.75,-0.75z" fill="#c5c5c5" stroke="none" stroke-width="0.5"/><path d="M339.16667,255.66667c0,-0.41422 0.33578,-0.75 0.75,-0.75c0.41422,0 0.75,0.33578 0.75,0.75c0,0.41421 -0.33578,0.75 -0.75,0.75c-0.41422,0 -0.75,-0.33579 -0.75,-0.75z" fill="#c5c5c5" stroke="none" stroke-width="0.5"/></g><path d="M296.16293,233.6608c0.00584,-0.25247 -0.00434,-0.50932 -0.00434,-0.77985c0,0 0,-0.02409 0.00748,-0.05731c-0.00469,-0.1515 -0.00748,-0.29934 -0.00748,-0.44269c0,-3.07638 0.48233,-6.38564 1.07346,-9.39207c0.50942,-2.51696 0.93681,-5.70001 0.92654,-8.27459c0,0 0,-0.0363 0.01383,-0.08124c-0.00426,-0.01363 -0.00777,-0.02838 -0.01043,-0.04433c-0.0411,-0.2466 0.2055,-0.2877 0.2055,-0.2877l0.01361,-0.00227c0.8039,-0.13398 1.94832,-0.54857 3.13114,-0.9152c-0.03816,-0.08816 -0.03946,-0.18016 0.00343,-0.27561c0.2339,-0.52048 3.50469,-0.47449 4.03328,-0.47688l0.00052,0.00018v-0.00018l0.35902,-0.00012c0.00003,0 0.00006,0 0.00009,0c0.13807,0 0.25,0.11193 0.25,0.25c0,0.11246 -0.07426,0.20758 -0.17641,0.23899l-0.46887,0.15629l-0.02005,-0.06014c-0.47198,0.22753 -1.00947,0.41779 -1.58095,0.58009c0.77601,0.10237 1.53592,0.16805 2.23846,0.44374l0.0292,-0.0876l0.16982,0.05661l-0.13571,-0.17092c-0.0347,-0.04292 -0.05549,-0.09757 -0.05549,-0.15706c0,-0.13807 0.11193,-0.25 0.25,-0.25h0.5v0.0252c0.98813,-0.12584 1.99435,-0.13647 2.9884,-0.19151l0.00689,0.00191v-0.00201l0.49998,-0.00019c0.00004,0 0.00007,0 0.00011,0c0.13807,0 0.25,0.11193 0.25,0.25c0,0.11223 -0.07395,0.20718 -0.17578,0.2388l-0.46844,0.15754l-0.01918,-0.05703c-0.48424,0.23641 -1.01363,0.41452 -1.57003,0.54958c0.9708,0.31925 1.97355,0.58754 2.90575,0.9795c2.01073,0.84552 3.88519,1.61623 6.00613,2.14647c0.90029,0.22507 1.98539,0.26133 2.80812,0.68785l0.04653,-0.09305l0.32849,0.16424c0.08456,0.04009 0.14304,0.12623 0.14304,0.22603c0,0.13807 -0.11193,0.25 -0.25,0.25h-0.49139c-3.08415,0.2856 -5.96808,1.0327 -8.98953,1.68016c-2.65911,0.56981 -5.55029,1.31799 -8.28552,1.69064c2.5467,0.11538 5.08925,0.46794 7.64033,0.55874c2.3423,0.08337 4.65992,0.28959 6.99334,0.50665c0.84102,0.07823 1.79904,-0.00121 2.53038,0.36755l0.05938,-0.10434l0.2904,0.16528c0.07779,0.04238 0.13057,0.12487 0.13057,0.21968c0,0.13613 -0.1088,0.24684 -0.24418,0.24993l-0.499,0.01326c-1.22922,0.03266 -2.64356,0.51109 -3.92799,0.59684c0.50378,0.10701 1.00954,0.20896 1.51901,0.2622c2.28716,0.24075 7.14545,-0.05334 9.34601,1.2331l0.03999,-0.07997l0.32849,0.16424c0.08456,0.04009 0.14304,0.12623 0.14304,0.22603c0,0.13807 -0.11193,0.25 -0.25,0.25c-1.27778,0 -3.05556,0 -4.33333,0c-2.30033,0 -4.56189,0.49308 -6.83151,0.85622c-0.35341,0.05654 -0.8453,0.19795 -1.33397,0.28917c1.75691,0.54377 -0.90606,1.23088 -2.74348,1.62269c-3.13796,0.66407 3.02055,2.3952 5.29243,3.21986l0.02544,-0.10175l0.48,0.12c0.11133,0.02526 0.19444,0.12483 0.19444,0.2438c0,0.13807 -0.11193,0.25 -0.25,0.25c-0.44444,0 -1.38889,0 -1.83333,0c-2.12349,0 -4.19052,0.05264 -6.28034,0.49432c-0.59665,0.1261 -1.37214,0.51855 -2.07569,0.68609c1.9295,0.31326 3.85337,0.6482 5.77712,0.99782c3.44082,0.62532 6.87934,1.27532 10.33591,1.8071c2.7452,0.42234 6.6588,0.29309 9.30648,1.44917l0.01207,-0.04829l0.48,0.12c0.11133,0.02526 0.19444,0.12483 0.19444,0.2438c0,0.13807 -0.11193,0.25 -0.25,0.25h-0.5c-0.32033,-0.00066 -0.64256,-0.02324 -0.9575,-0.08173c-3.45137,-0.65665 -6.86651,-0.91827 -10.37584,-0.91827c-3.42152,0 -6.79293,-0.09906 -10.16416,0.56883c-1.52057,0.30056 -3.50811,0.13779 -4.932,0.76023c-0.36251,0.15847 0.68279,0.4145 1.05987,0.53421c0.93244,0.29602 1.85869,0.55405 2.81487,0.76677c2.65569,0.59092 6.77373,0.97886 9.19318,2.55841l0.02617,-0.05233l0.44237,0.22118c0.08456,0.04009 0.14304,0.12623 0.14304,0.22603c0,0.13807 -0.11193,0.25 -0.25,0.25h-0.5v-0.0073l-0.02448,0.0061c-2.6229,-0.5125 -5.62986,-0.33213 -8.30886,-0.33213c-2.38424,0 -4.20105,0.31891 -6.48016,0.87652c-0.36311,0.08884 -1.4293,0.37661 -2.04371,0.38495c0.65615,0.40556 1.28922,0.69047 1.80519,1.20858l0.06318,-0.06242l0.31722,0.32109c0.00003,0.00003 0.00005,0.00005 0.00008,0.00008c0.04461,0.04515 0.07216,0.10721 0.07216,0.1757c0,0.13807 -0.11193,0.25 -0.25,0.25c-0.00641,0 -0.01276,-0.00024 -0.01904,-0.00071l-0.49646,-0.03307l0.00038,-0.00571l-0.02254,0.00323c-1.8429,-0.46422 -5.42643,-0.70891 -7.28249,-0.17938c-0.15239,0.35523 -0.0891,1.43597 -0.32036,1.65458c-0.80961,0.76532 -1.09138,-1.01719 -1.09344,-1.34344c-0.012,-1.89735 0.33333,-3.67725 0.33333,-5.5c0,-2.17504 0.31047,-4.23607 0.82418,-6.32656c-0.08314,-0.04061 -0.14041,-0.126 -0.14041,-0.22476c0,-0.02228 0.00292,-0.04389 0.00839,-0.06445l0.11677,-0.48045l0.02032,0.00494c0.00717,-0.30587 0.05331,-0.59232 0.17502,-0.96212zM307.54357,214.17458c-0.12199,-0.00332 -0.24034,-0.01184 -0.35334,-0.02696c0.04512,0.01932 0.09042,0.03834 0.1359,0.05708c0.07251,-0.00977 0.14499,-0.01981 0.21744,-0.03012z" fill="#da3243" stroke="none" stroke-width="0.5"/><path d="M324.40858,219.79762c0,0 -0.25,0 -0.25,-0.25c0,-0.25 0.25,-0.25 0.25,-0.25c0.59546,0.00123 1.18996,0.05067 1.78543,0.11111c0.06897,-0.11111 0.21457,-0.11111 0.21457,-0.11111l0.35106,0.00063c0.5999,0.08467 1.57737,0.05324 2.19877,0.33211c0.03893,0.0004 0.07788,0.0006 0.11684,0.0006h0.5c0.13807,0 0.25,0.11193 0.25,0.25c0,0.13807 -0.11193,0.25 -0.25,0.25h-0.5c-1.56935,-0.00002 -3.11992,-0.33692 -4.66667,-0.33333z" fill="#da3243" stroke="none" stroke-width="0.5"/><path d="M337.50416,240.13519c-0.08668,-0.00276 -0.17406,-0.00424 -0.26225,-0.00424c0,0 -0.25,0 -0.25,-0.25c0,-0.25 0.25,-0.25 0.25,-0.25c0.60691,0 1.18886,0.07691 1.76373,0.1577c0.46653,0.00757 0.95645,0.04335 1.33389,0.16099c0.08005,0.00597 0.16023,0.01091 0.2406,0.01464h0.49512c0.13807,0 0.25,0.11193 0.25,0.25c0,0.13807 -0.11193,0.25 -0.25,0.25h-0.5v-0.00691l-0.00701,0.00681c-0.18635,-0.01192 -0.37023,-0.02908 -0.5527,-0.04941c-0.68403,0.00175 -1.35667,-0.11716 -2.10696,-0.11716h-0.16667c0,0 -0.18754,0 -0.23775,-0.16243z" fill="#da3243" stroke="none" stroke-width="0.5"/><path d="M306.65858,248.04762c0,-0.13807 0.11193,-0.25 0.25,-0.25c0.13807,0 0.25,0.11193 0.25,0.25c0,0.13807 -0.11193,0.25 -0.25,0.25c-0.13807,0 -0.25,-0.11193 -0.25,-0.25z" fill="#ff3b4e" stroke="none" stroke-width="0.5"/></g><path d="M214.52362,306.61252v-267.72501h213.18203v267.72501z" fill="none" stroke="none" stroke-width="0" stroke-linecap="butt"/><path d="" fill="none" stroke="#000000" stroke-width="0" stroke-linecap="round"/><g><g stroke-linecap="round"><path d="M337.10223,98.81198l57.36655,-43.91025l-15.49263,83.86824" fill="#a9a9a9" stroke="#000000" stroke-width="0"/><path d="M373.86521,111.07854c0,0 3.86959,-13.75014 6.30168,-20.28788c2.33937,-6.28851 8.0235,-18.21991 8.0235,-18.21991" fill="none" stroke="url(#color-1)" stroke-width="2"/></g><g stroke-linecap="round"><path d="M260.78489,144.84666l-28.77175,-80.28754l63.67856,34.1185" fill="#a9a9a9" stroke="#000000" stroke-width="0"/><path d="M241.04993,80.98924c0,0 7.52802,10.86264 10.84775,16.69336c3.45131,6.06181 9.48072,19.01118 9.48072,19.01118" fill="none" stroke="url(#color-2)" stroke-width="2"/></g><g><path d="M253.60444,152.47656c1.61707,-33.26256 31.65395,-58.83067 67.08922,-57.10797c35.43528,1.7227 62.85035,30.08386 61.23327,63.34642c-1.61707,33.26256 -31.65394,58.83068 -67.08922,57.10798c-35.43527,-1.7227 -62.85035,-30.08387 -61.23327,-63.34643z" fill="#ffffff" stroke="#000000" stroke-width="0" stroke-linecap="butt"/><g><path d="M256.21981,175.92675l6.92444,-0.12459l22.64094,27.6212l-7.26636,2.4141z" fill="#ffffff" stroke="none" stroke-width="0" stroke-linecap="round"/><path d="M281.77335,205.30385l-21.84385,8.16257l0.79413,-16.33491l-33.45901,-23.30426l30.1279,1.6953" fill="#ffffff" stroke="#000000" stroke-width="0" stroke-linecap="round"/><path d="M352.01936,209.41073l-6.99793,-3.10756l25.21348,-25.29474l6.87972,0.79568z" fill="#ffffff" stroke="none" stroke-width="0" stroke-linecap="round"/><path d="M375.98665,181.28804l30.15026,1.23515l-35.56177,19.94877l-0.79413,16.33492l-20.94906,-10.24297" fill="#ffffff" stroke="#000000" stroke-width="0" stroke-linecap="round"/><path d="M257.68888,133.87414c9.56958,-23.67023 34.54622,-39.88907 63.00478,-38.50555c28.72767,1.39661 52.18407,20.30127 59.17329,45.13172c0.04994,0.17743 -122.25292,-6.44103 -122.17807,-6.62617z" fill="#c5c5c5" stroke="#000000" stroke-width="0" stroke-linecap="butt"/><path d="M264.49043,121.58862c12.11019,-16.77395 32.99928,-27.34809 56.20322,-26.22001c23.56961,1.14585 44.22445,14.77529 54.51424,33.09521c0.42885,0.76352 -110.86364,-6.67272 -110.71747,-6.87518z" fill="#7e7e7e" stroke="#000000" stroke-width="0" stroke-linecap="butt"/><path d="M275.43944,109.99226c12.03539,-9.83427 28.00523,-15.46224 45.25421,-14.62368c18.7332,0.91072 35.2249,9.26637 46.37058,21.85532c0.10558,0.11924 -91.90841,-6.99989 -91.62479,-7.23164z" fill="#424242" stroke="#000000" stroke-width="0" stroke-linecap="butt"/><path d="M275.28362,110.90797c0.04693,-0.96536 0.86756,-1.70989 1.83291,-1.66296c0.96536,0.04693 1.70989,0.86756 1.66296,1.83291c-0.04693,0.96536 -0.86756,1.70989 -1.83291,1.66296c-0.96536,-0.04693 -1.70989,-0.86756 -1.66296,-1.83291z" fill="#424242" stroke="none" stroke-width="0.5" stroke-linecap="butt"/><path d="M280.12744,110.80974c0.04693,-0.96536 0.86756,-1.70989 1.83291,-1.66296c0.96536,0.04693 1.70989,0.86756 1.66296,1.83291c-0.04693,0.96536 -0.86756,1.70989 -1.83291,1.66296c-0.96536,-0.04693 -1.70989,-0.86756 -1.66296,-1.83291z" fill="#424242" stroke="none" stroke-width="0.5" stroke-linecap="butt"/><path d="M285.62904,110.91033c0.04693,-0.96536 0.86756,-1.70989 1.83291,-1.66296c0.96536,0.04693 1.70989,0.86756 1.66296,1.83291c-0.04693,0.96536 -0.86756,1.70989 -1.83291,1.66296c-0.96536,-0.04693 -1.70989,-0.86756 -1.66296,-1.83291z" fill="#424242" stroke="none" stroke-width="0.5" stroke-linecap="butt"/><path d="M303.15061,109.17577c0.96536,0.04693 1.70989,0.86756 1.66296,1.83291c-0.04693,0.96536 -0.86756,1.70989 -1.83291,1.66296c-0.09362,-0.00456 -0.18515,-0.01637 -0.27409,-0.0349c-0.33971,0.40233 -0.85642,0.64741 -1.42298,0.61987c-0.48909,-0.02378 -0.9215,-0.24615 -1.22302,-0.58534c-0.333,0.30833 -0.78494,0.48772 -1.27403,0.46395c-0.96536,-0.04693 -1.70989,-0.86756 -1.66296,-1.83291c0.04693,-0.96536 0.86756,-1.70989 1.83291,-1.66296c0.48909,0.02378 0.9215,0.24615 1.22302,0.58534c0.333,-0.30833 0.78494,-0.48772 1.27403,-0.46395c0.09362,0.00456 0.18514,0.01637 0.27409,0.0349c0.33971,-0.40233 0.85643,-0.64741 1.42299,-0.61987z" fill="#424242" stroke="none" stroke-width="0.5" stroke-linecap="butt"/><path d="M319.16993,113.69815c-0.40564,1.70234 -2.10798,1.29669 -2.10798,1.29669l-2.63924,-0.6289c0,0 -0.24754,-0.05898 -0.53133,-0.22635c-0.15115,0.03414 -0.30935,0.04863 -0.47168,0.04074c-0.96536,-0.04693 -1.70989,-0.86756 -1.66296,-1.83291c0.04693,-0.96536 0.86756,-1.70989 1.83291,-1.66296c0.31129,0.01513 0.59962,0.11072 0.84585,0.26567c0.43278,-0.07598 0.79848,0.01115 0.79848,0.01115l2.63923,0.62889c0,0 1.70234,0.40565 1.29669,2.10799z" fill="#424242" stroke="none" stroke-width="0.5" stroke-linecap="butt"/><path d="M323.86225,112.18504c0.96536,0.04693 1.70989,0.86756 1.66296,1.83291c-0.04693,0.96536 -0.86756,1.70989 -1.83291,1.66296c-0.54254,-0.02638 -1.01534,-0.29712 -1.31709,-0.7006c-0.28929,0.17707 -0.63299,0.27208 -0.99731,0.25437c-0.96536,-0.04693 -1.70989,-0.86756 -1.66296,-1.83291c0.04693,-0.96536 0.86756,-1.70989 1.83291,-1.66296c0.54254,0.02638 1.01534,0.29712 1.31709,0.7006c0.28929,-0.17707 0.63299,-0.27208 0.99731,-0.25437z" fill="#424242" stroke="none" stroke-width="0.5" stroke-linecap="butt"/><path d="M346.00913,114.84691c0.04693,-0.96536 0.86756,-1.70989 1.83291,-1.66296c0.96536,0.04693 1.70989,0.86756 1.66296,1.83291c-0.04693,0.96536 -0.86756,1.70989 -1.83291,1.66296c-0.96536,-0.04693 -1.70989,-0.86756 -1.66296,-1.83291z" fill="#424242" stroke="none" stroke-width="0.5" stroke-linecap="butt"/><path d="M356.6083,114.77818c0.96536,0.04693 1.70989,0.86756 1.66296,1.83291c-0.04693,0.96536 -0.86756,1.70989 -1.83291,1.66296c-0.54254,-0.02638 -1.01534,-0.29712 -1.31709,-0.7006c-0.28929,0.17707 -0.63299,0.27208 -0.99731,0.25437c-0.96536,-0.04693 -1.70989,-0.86756 -1.66296,-1.83291c0.04693,-0.96536 0.86756,-1.70989 1.83291,-1.66296c0.54254,0.02638 1.01534,0.29712 1.31709,0.7006c0.28929,-0.17707 0.63299,-0.27208 0.99731,-0.25437z" fill="#424242" stroke="none" stroke-width="0.5" stroke-linecap="butt"/><path d="M363.07635,115.59322c0.96536,0.04693 1.70989,0.86756 1.66296,1.83291c-0.04693,0.96536 -0.86756,1.70989 -1.83291,1.66296c-0.51029,-0.02481 -0.95888,-0.26579 -1.26147,-0.63008c-0.2646,0.13661 -0.56762,0.20743 -0.88644,0.19193c-0.96536,-0.04693 -1.70989,-0.86756 -1.66296,-1.83291c0.04693,-0.96536 0.86756,-1.70989 1.83291,-1.66296c0.51029,0.02481 0.95888,0.26579 1.26147,0.63008c0.2646,-0.13661 0.56763,-0.20743 0.88645,-0.19193z" fill="#424242" stroke="none" stroke-width="0.5" stroke-linecap="butt"/><path d="M305.41471,112.37281c0.04693,-0.96536 0.86756,-1.70989 1.83291,-1.66296c0.96536,0.04693 1.70989,0.86756 1.66296,1.83291c-0.04693,0.96536 -0.86756,1.70989 -1.83291,1.66296c-0.96536,-0.04693 -1.70989,-0.86756 -1.66296,-1.83291z" fill="#424242" stroke="none" stroke-width="0.5" stroke-linecap="butt"/><path d="M290.10755,111.46179c0.04693,-0.96536 0.86756,-1.70989 1.83291,-1.66296c0.71005,0.03452 1.30062,0.48761 1.54467,1.10897c0.14884,-0.85773 0.91715,-1.48988 1.80902,-1.44652c0.96536,0.04693 1.70989,0.86756 1.66296,1.83291c-0.04693,0.96536 -0.86756,1.70989 -1.83291,1.66296c-0.71005,-0.03452 -1.30062,-0.48762 -1.54468,-1.10899c-0.14884,0.85773 -0.91715,1.48989 -1.80902,1.44653c-0.96536,-0.04693 -1.70989,-0.86756 -1.66296,-1.83291z" fill="#424242" stroke="none" stroke-width="0.5" stroke-linecap="butt"/><path d="M373.34658,127.43923c0.96536,0.04693 1.70989,0.86756 1.66296,1.83291c-0.04693,0.96536 -0.86756,1.70989 -1.83291,1.66296c-0.61727,-0.03001 -1.14425,-0.37634 -1.43177,-0.87459c-0.3265,0.27647 -0.75452,0.43457 -1.21557,0.41216c-0.96536,-0.04693 -1.70989,-0.86756 -1.66296,-1.83291c0.04693,-0.96536 0.86756,-1.70989 1.83291,-1.66296c0.61727,0.03001 1.14425,0.37634 1.43177,0.87459c0.3265,-0.27646 0.75452,-0.43457 1.21557,-0.41216z" fill="#7e7e7e" stroke="none" stroke-width="0.5" stroke-linecap="butt"/><path d="M361.91506,127.46751c0.04693,-0.96536 0.86756,-1.70989 1.83291,-1.66296c0.96536,0.04693 1.70989,0.86756 1.66296,1.83291c-0.04693,0.96536 -0.86756,1.70989 -1.83291,1.66296c-0.96536,-0.04693 -1.70989,-0.86756 -1.66296,-1.83291z" fill="#7e7e7e" stroke="none" stroke-width="0.5" stroke-linecap="butt"/><path d="M356.89668,127.72413c0.04693,-0.96536 0.86756,-1.70989 1.83291,-1.66296c0.96536,0.04693 1.70989,0.86756 1.66296,1.83291c-0.04693,0.96536 -0.86756,1.70989 -1.83291,1.66296c-0.96536,-0.04693 -1.70989,-0.86756 -1.66296,-1.83291z" fill="#7e7e7e" stroke="none" stroke-width="0.5" stroke-linecap="butt"/><path d="M347.3917,127.59576c0.04693,-0.96536 0.86756,-1.70989 1.83291,-1.66296c0.42992,0.0209 0.81604,0.19524 1.10796,0.4675c0.32285,-0.52899 0.91725,-0.86964 1.57984,-0.83742c0.96536,0.04693 1.70989,0.86756 1.66296,1.83291c-0.04693,0.96536 -0.86756,1.70989 -1.83291,1.66296c-0.42992,-0.0209 -0.81604,-0.19524 -1.10796,-0.46749c-0.32285,0.52899 -0.91725,0.86963 -1.57984,0.83741c-0.96536,-0.04693 -1.70989,-0.86756 -1.66296,-1.83291z" fill="#7e7e7e" stroke="none" stroke-width="0.5" stroke-linecap="butt"/><path d="M334.60587,126.30671c0.04693,-0.96536 0.86756,-1.70989 1.83291,-1.66296c0.43162,0.02098 0.8191,0.19664 1.11142,0.47074c0.17066,-0.04558 0.35119,-0.0659 0.5371,-0.05686c0.96536,0.04693 1.70989,0.86756 1.66296,1.83291c-0.04693,0.96536 -0.86756,1.70989 -1.83291,1.66296c-0.43162,-0.02098 -0.81909,-0.19664 -1.11142,-0.47074c-0.17066,0.04558 -0.3512,0.06591 -0.5371,0.05687c-0.96536,-0.04693 -1.70989,-0.86756 -1.66296,-1.83291z" fill="#7e7e7e" stroke="none" stroke-width="0.5" stroke-linecap="butt"/><path d="M323.62694,125.60612c0.04693,-0.96536 0.86756,-1.70989 1.83291,-1.66296c0.75062,0.03649 1.36772,0.54074 1.58305,1.21709c0.23295,-0.74076 0.9425,-1.26117 1.75443,-1.2217c0.96536,0.04693 1.70989,0.86756 1.66296,1.83291c-0.04693,0.96536 -0.86756,1.70989 -1.83291,1.66296c-0.75062,-0.03649 -1.36772,-0.54074 -1.58306,-1.21709c-0.23295,0.74076 -0.9425,1.26117 -1.75443,1.2217c-0.96536,-0.04693 -1.70989,-0.86756 -1.66296,-1.83291z" fill="#7e7e7e" stroke="none" stroke-width="0.5" stroke-linecap="butt"/><path d="M317.80858,125.15638c0.04693,-0.96536 0.86756,-1.70989 1.83291,-1.66296c0.96536,0.04693 1.70989,0.86756 1.66296,1.83291c-0.04693,0.96536 -0.86756,1.70989 -1.83291,1.66296c-0.96536,-0.04693 -1.70989,-0.86756 -1.66296,-1.83291z" fill="#7e7e7e" stroke="none" stroke-width="0.5" stroke-linecap="butt"/><path d="M308.65272,124.71127c0.04693,-0.96536 0.86756,-1.70989 1.83291,-1.66296c0.96536,0.04693 1.70989,0.86756 1.66296,1.83291c-0.04693,0.96536 -0.86756,1.70989 -1.83291,1.66296c-0.96536,-0.04693 -1.70989,-0.86756 -1.66296,-1.83291z" fill="#7e7e7e" stroke="none" stroke-width="0.5" stroke-linecap="butt"/><path d="M303.48406,124.62686c0.04693,-0.96536 0.86756,-1.70989 1.83291,-1.66296c0.96536,0.04693 1.70989,0.86756 1.66296,1.83291c-0.04693,0.96536 -0.86756,1.70989 -1.83291,1.66296c-0.96536,-0.04693 -1.70989,-0.86756 -1.66296,-1.83291z" fill="#7e7e7e" stroke="none" stroke-width="0.5" stroke-linecap="butt"/><path d="M298.64024,124.7251c0.04693,-0.96536 0.86756,-1.70989 1.83291,-1.66296c0.96536,0.04693 1.70989,0.86756 1.66296,1.83291c-0.04693,0.96536 -0.86756,1.70989 -1.83291,1.66296c-0.96536,-0.04693 -1.70989,-0.86756 -1.66296,-1.83291z" fill="#7e7e7e" stroke="none" stroke-width="0.5" stroke-linecap="butt"/><path d="M291.0069,123.85341c0.04693,-0.96536 0.86756,-1.70989 1.83291,-1.66296c0.96536,0.04693 1.70989,0.86756 1.66296,1.83291c-0.04693,0.96536 -0.86756,1.70989 -1.83291,1.66296c-0.96536,-0.04693 -1.70989,-0.86756 -1.66296,-1.83291z" fill="#7e7e7e" stroke="none" stroke-width="0.5" stroke-linecap="butt"/><path d="M286.38621,122.79446c0.04693,-0.96536 0.86756,-1.70989 1.83291,-1.66296c0.96536,0.04693 1.70989,0.86756 1.66296,1.83291c-0.04693,0.96536 -0.86756,1.70989 -1.83291,1.66296c-0.96536,-0.04693 -1.70989,-0.86756 -1.66296,-1.83291z" fill="#7e7e7e" stroke="none" stroke-width="0.5" stroke-linecap="butt"/><path d="M279.76787,121.63838c0.04693,-0.96536 0.86756,-1.70989 1.83291,-1.66296c0.96536,0.04693 1.70989,0.86756 1.66296,1.83291c-0.04693,0.96536 -0.86756,1.70989 -1.83291,1.66296c-0.96536,-0.04693 -1.70989,-0.86756 -1.66296,-1.83291z" fill="#7e7e7e" stroke="none" stroke-width="0.5" stroke-linecap="butt"/><path d="M274.90786,122.06957c0.04693,-0.96536 0.86756,-1.70989 1.83291,-1.66296c0.96536,0.04693 1.70989,0.86756 1.66296,1.83291c-0.04693,0.96536 -0.86756,1.70989 -1.83291,1.66296c-0.96536,-0.04693 -1.70989,-0.86756 -1.66296,-1.83291z" fill="#7e7e7e" stroke="none" stroke-width="0.5" stroke-linecap="butt"/><path d="M269.57447,120.22508c0.77097,0.03748 1.40108,0.56842 1.59968,1.27246c0.3293,-0.49937 0.9063,-0.8169 1.54706,-0.78575c0.96536,0.04693 1.70989,0.86756 1.66296,1.83291c-0.04693,0.96536 -0.86756,1.70989 -1.83291,1.66296c-0.77097,-0.03748 -1.40108,-0.56842 -1.59968,-1.27246c-0.03028,0.04592 -0.06266,0.0903 -0.09699,0.13302c-0.33897,0.4218 -0.86823,0.68104 -1.45008,0.65274c-0.57293,-0.02786 -1.06808,-0.32823 -1.36617,-0.76965c-0.30258,0.59644 -0.93525,0.99149 -1.64648,0.9569c-0.96536,-0.04693 -1.70989,-0.86756 -1.66296,-1.83291c0.04693,-0.96536 0.86756,-1.70989 1.83291,-1.66296c0.57293,0.02786 1.06808,0.32823 1.36617,0.76965c0.30258,-0.59644 0.93525,-0.99149 1.64648,-0.9569z" fill="#7e7e7e" stroke="none" stroke-width="0.5" stroke-linecap="butt"/><path d="M266.45426,132.92188c0.96536,0.04693 1.70989,0.86756 1.66296,1.83291c-0.04693,0.96536 -0.86756,1.70989 -1.83291,1.66296c-0.58183,-0.02828 -1.08346,-0.33763 -1.37992,-0.79033c-0.33898,0.42181 -0.86823,0.68104 -1.45008,0.65274c-0.77893,-0.03787 -1.4141,-0.57945 -1.60571,-1.29436c-0.26006,0.69295 -0.94475,1.17036 -1.72369,1.1325c-0.96536,-0.04693 -1.70989,-0.86756 -1.66296,-1.83291c0.04693,-0.96536 0.86756,-1.70989 1.83291,-1.66296c0.77893,0.03787 1.4141,0.57946 1.60571,1.29437c0.26006,-0.69295 0.94475,-1.17037 1.72369,-1.13251c0.58183,0.02828 1.08346,0.33763 1.37992,0.79033c0.33898,-0.42181 0.86823,-0.68104 1.45008,-0.65274z" fill="#c5c5c5" stroke="none" stroke-width="0.5" stroke-linecap="butt"/><path d="M271.78939,133.01438c0.96536,0.04693 1.70989,0.86756 1.66296,1.83291c-0.04557,0.93729 -0.82049,1.66641 -1.74909,1.66507c-0.23243,0.09696 -0.48952,0.14503 -0.75779,0.13198c-0.96536,-0.04693 -1.70989,-0.86756 -1.66296,-1.83291c0.04557,-0.93729 0.82049,-1.6664 1.74909,-1.66506c0.23243,-0.09696 0.48952,-0.14504 0.75779,-0.13199z" fill="#c5c5c5" stroke="none" stroke-width="0.5" stroke-linecap="butt"/><path d="M306.91283,136.47399c0.04693,-0.96536 0.86756,-1.70989 1.83291,-1.66296c0.96536,0.04693 1.70989,0.86756 1.66296,1.83291c-0.04693,0.96536 -0.86756,1.70989 -1.83291,1.66296c-0.96536,-0.04693 -1.70989,-0.86756 -1.66296,-1.83291z" fill="#c5c5c5" stroke="none" stroke-width="0.5" stroke-linecap="butt"/><path d="M317.9016,135.25615c0.96536,0.04693 1.70989,0.86756 1.66296,1.83291c-0.04693,0.96536 -0.86756,1.70989 -1.83291,1.66296c-0.0279,-0.00136 -0.05562,-0.00336 -0.08314,-0.006c-0.02765,-0.00005 -0.05543,-0.00074 -0.08333,-0.0021c-0.96536,-0.04693 -1.70989,-0.86756 -1.66296,-1.83291c0.04693,-0.96536 0.86756,-1.70989 1.83291,-1.66296c0.0279,0.00136 0.05562,0.00336 0.08314,0.006c0.02765,0.00005 0.05543,0.00074 0.08333,0.0021z" fill="#c5c5c5" stroke="none" stroke-width="0.5" stroke-linecap="butt"/><path d="M323.52747,137.94918c0.04693,-0.96536 0.86756,-1.70989 1.83291,-1.66296c0.96536,0.04693 1.70989,0.86756 1.66296,1.83291c-0.04693,0.96536 -0.86756,1.70989 -1.83291,1.66296c-0.96536,-0.04693 -1.70989,-0.86756 -1.66296,-1.83291z" fill="#c5c5c5" stroke="none" stroke-width="0.5" stroke-linecap="butt"/><path d="M361.64101,139.96895c0.04693,-0.96536 0.86756,-1.70989 1.83291,-1.66296c0.96536,0.04693 1.70989,0.86756 1.66296,1.83291c-0.04693,0.96536 -0.86756,1.70989 -1.83291,1.66296c-0.96536,-0.04693 -1.70989,-0.86756 -1.66296,-1.83291z" fill="#c5c5c5" stroke="none" stroke-width="0.5" stroke-linecap="butt"/><path d="M369.62984,142.10939c-0.96536,-0.04693 -1.70989,-0.86756 -1.66296,-1.83291c0.04693,-0.96536 0.86756,-1.70989 1.83291,-1.66296c0.44767,0.02177 0.84787,0.20992 1.14365,0.50173c0.3227,-0.26175 0.73925,-0.4102 1.18693,-0.38843c0.96536,0.04693 1.70989,0.86756 1.66296,1.83291c-0.04693,0.96536 -0.86756,1.70989 -1.83291,1.66296c-0.44767,-0.02177 -0.84787,-0.20992 -1.14365,-0.50173c-0.3227,0.26175 -0.73925,0.4102 -1.18693,0.38843z" fill="#c5c5c5" stroke="none" stroke-width="0.5" stroke-linecap="butt"/><path d="M373.95171,140.7343c0.04693,-0.96536 0.86756,-1.70989 1.83291,-1.66296c0.96536,0.04693 1.70989,0.86756 1.66296,1.83291c-0.04693,0.96536 -0.86756,1.70989 -1.83291,1.66296c-0.96536,-0.04693 -1.70989,-0.86756 -1.66296,-1.83291z" fill="#c5c5c5" stroke="none" stroke-width="0.5" stroke-linecap="butt"/><path d="M327.03962,113.75785c0.04693,-0.96536 0.86756,-1.70989 1.83291,-1.66296c0.96536,0.04693 1.70989,0.86756 1.66296,1.83291c-0.04693,0.96536 -0.86756,1.70989 -1.83291,1.66296c-0.96536,-0.04693 -1.70989,-0.86756 -1.66296,-1.83291z" fill="#424242" stroke="none" stroke-width="0.5" stroke-linecap="butt"/><path d="M333.81635,115.08849c0.04693,-0.96536 0.86756,-1.70989 1.83291,-1.66296c0.96536,0.04693 1.70989,0.86756 1.66296,1.83291c-0.04693,0.96536 -0.86756,1.70989 -1.83291,1.66296c-0.96536,-0.04693 -1.70989,-0.86756 -1.66296,-1.83291z" fill="#424242" stroke="none" stroke-width="0.5" stroke-linecap="butt"/><path d="M343.30688,113.7978c0.96536,0.04693 1.70989,0.86756 1.66296,1.83291c-0.04693,0.96536 -0.86756,1.70989 -1.83291,1.66296c-0.48909,-0.02378 -0.9215,-0.24615 -1.22302,-0.58534c-0.333,0.30833 -0.78494,0.48772 -1.27403,0.46395c-0.96536,-0.04693 -1.70989,-0.86756 -1.66296,-1.83291c0.04693,-0.96536 0.86756,-1.70989 1.83291,-1.66296c0.48909,0.02378 0.9215,0.24615 1.22302,0.58534c0.333,-0.30833 0.78494,-0.48772 1.27403,-0.46395z" fill="#424242" stroke="none" stroke-width="0.5" stroke-linecap="butt"/><path d="M281.38637,112.37272c0.03352,-0.68953 0.61968,-1.22135 1.30922,-1.18783c0.68954,0.03352 1.22135,0.61969 1.18783,1.30922c-0.03352,0.68953 -0.61968,1.22135 -1.30922,1.18783c-0.68954,-0.03352 -1.22135,-0.61969 -1.18783,-1.30922z" fill="#424242" stroke="none" stroke-width="0.5" stroke-linecap="butt"/><path d="M287.29836,114.32876c0.03352,-0.68953 0.61968,-1.22135 1.30922,-1.18783c0.68954,0.03352 1.22135,0.61969 1.18783,1.30922c-0.03352,0.68953 -0.61968,1.22135 -1.30922,1.18783c-0.68954,-0.03352 -1.22135,-0.61969 -1.18783,-1.30922z" fill="#424242" stroke="none" stroke-width="0.5" stroke-linecap="butt"/><path d="M294.21727,116.1669c0.03352,-0.68953 0.61968,-1.22135 1.30922,-1.18783c0.68954,0.03352 1.22135,0.61969 1.18783,1.30922c-0.03352,0.68953 -0.61968,1.22135 -1.30922,1.18783c-0.68954,-0.03352 -1.22135,-0.61969 -1.18783,-1.30922z" fill="#424242" stroke="none" stroke-width="0.5" stroke-linecap="butt"/><path d="M300.50266,117.30678c0.03352,-0.68953 0.61968,-1.22135 1.30922,-1.18783c0.68954,0.03352 1.22135,0.61969 1.18783,1.30922c-0.03352,0.68953 -0.61968,1.22135 -1.30922,1.18783c-0.68954,-0.03352 -1.22135,-0.61969 -1.18783,-1.30922z" fill="#424242" stroke="none" stroke-width="0.5" stroke-linecap="butt"/><path d="M305.86207,116.89987c0.03352,-0.68953 0.61968,-1.22135 1.30922,-1.18783c0.68954,0.03352 1.22135,0.61969 1.18783,1.30922c-0.03352,0.68953 -0.61968,1.22135 -1.30922,1.18783c-0.68954,-0.03352 -1.22135,-0.61969 -1.18783,-1.30922z" fill="#424242" stroke="none" stroke-width="0.5" stroke-linecap="butt"/><path d="M311.55442,116.50917c0.03352,-0.68953 0.61968,-1.22135 1.30922,-1.18783c0.68954,0.03352 1.22135,0.61969 1.18783,1.30922c-0.03352,0.68953 -0.61968,1.22135 -1.30922,1.18783c-0.68954,-0.03352 -1.22135,-0.61969 -1.18783,-1.30922z" fill="#424242" stroke="none" stroke-width="0.5" stroke-linecap="butt"/><path d="M320.82359,114.62369c0.03352,-0.68953 0.61968,-1.22135 1.30922,-1.18783c0.68954,0.03352 1.22135,0.61969 1.18783,1.30922c-0.03352,0.68953 -0.61968,1.22135 -1.30922,1.18783c-0.68954,-0.03352 -1.22135,-0.61969 -1.18783,-1.30922z" fill="#424242" stroke="none" stroke-width="0.5" stroke-linecap="butt"/><path d="M325.99225,114.70811c0.03352,-0.68953 0.61968,-1.22135 1.30922,-1.18783c0.68954,0.03352 1.22135,0.61969 1.18783,1.30922c-0.03352,0.68953 -0.61968,1.22135 -1.30922,1.18783c-0.68954,-0.03352 -1.22135,-0.61969 -1.18783,-1.30922z" fill="#424242" stroke="none" stroke-width="0.5" stroke-linecap="butt"/><path d="M331.46148,115.4746c0.03352,-0.68953 0.61968,-1.22135 1.30922,-1.18783c0.68954,0.03352 1.22135,0.61969 1.18783,1.30922c-0.03352,0.68953 -0.61968,1.22135 -1.30922,1.18783c-0.68954,-0.03352 -1.22135,-0.61969 -1.18783,-1.30922z" fill="#424242" stroke="none" stroke-width="0.5" stroke-linecap="butt"/><path d="M335.5423,117.34161c0.03352,-0.68953 0.61968,-1.22135 1.30922,-1.18783c0.68954,0.03352 1.22135,0.61969 1.18783,1.30922c-0.03352,0.68953 -0.61968,1.22135 -1.30922,1.18783c-0.68954,-0.03352 -1.22135,-0.61969 -1.18783,-1.30922z" fill="#424242" stroke="none" stroke-width="0.5" stroke-linecap="butt"/><path d="M338.44165,119.48493c0.03352,-0.68953 0.61968,-1.22135 1.30922,-1.18783c0.68954,0.03352 1.22135,0.61969 1.18783,1.30922c-0.03352,0.68953 -0.61968,1.22135 -1.30922,1.18783c-0.68954,-0.03352 -1.22135,-0.61969 -1.18783,-1.30922z" fill="#424242" stroke="none" stroke-width="0.5" stroke-linecap="butt"/><path d="M344.30508,122.4398c0.03352,-0.68953 0.61968,-1.22135 1.30922,-1.18783c0.68954,0.03352 1.22135,0.61969 1.18783,1.30922c-0.03352,0.68953 -0.61968,1.22135 -1.30922,1.18783c-0.68954,-0.03352 -1.22135,-0.61969 -1.18783,-1.30922z" fill="#424242" stroke="none" stroke-width="0.5" stroke-linecap="butt"/><path d="M351.28063,123.11264c0.03352,-0.68953 0.61968,-1.22135 1.30922,-1.18783c0.68954,0.03352 1.22135,0.61969 1.18783,1.30922c-0.03352,0.68953 -0.61968,1.22135 -1.30922,1.18783c-0.68954,-0.03352 -1.22135,-0.61969 -1.18783,-1.30922z" fill="#424242" stroke="none" stroke-width="0.5" stroke-linecap="butt"/><path d="M337.92831,133.47651c0.03352,-0.68953 0.61968,-1.22135 1.30922,-1.18783c0.68954,0.03352 1.22135,0.61969 1.18783,1.30922c-0.03352,0.68953 -0.61968,1.22135 -1.30922,1.18783c-0.68954,-0.03352 -1.22135,-0.61969 -1.18783,-1.30922z" fill="#7e7e7e" stroke="none" stroke-width="0.5" stroke-linecap="butt"/><path d="M359.57987,124.0167c0.03352,-0.68953 0.61968,-1.22135 1.30922,-1.18783c0.68954,0.03352 1.22135,0.61969 1.18783,1.30922c-0.03352,0.68953 -0.61968,1.22135 -1.30922,1.18783c-0.68954,-0.03352 -1.22135,-0.61969 -1.18783,-1.30922z" fill="#424242" stroke="none" stroke-width="0.5" stroke-linecap="butt"/><path d="M362.8561,121.8399c0.03352,-0.68953 0.61968,-1.22135 1.30922,-1.18783c0.68954,0.03352 1.22135,0.61969 1.18783,1.30922c-0.03352,0.68953 -0.61968,1.22135 -1.30922,1.18783c-0.68954,-0.03352 -1.22135,-0.61969 -1.18783,-1.30922z" fill="#424242" stroke="none" stroke-width="0.5" stroke-linecap="butt"/><path d="M363.88269,117.88508c0.03352,-0.68953 0.61968,-1.22135 1.30922,-1.18783c0.68954,0.03352 1.22135,0.61969 1.18783,1.30922c-0.03352,0.68953 -0.61968,1.22135 -1.30922,1.18783c-0.68954,-0.03352 -1.22135,-0.61969 -1.18783,-1.30922z" fill="#424242" stroke="none" stroke-width="0.5" stroke-linecap="butt"/><path d="M268.76117,124.94115c0.03352,-0.68953 0.61968,-1.22135 1.30922,-1.18783c0.68954,0.03352 1.22135,0.61969 1.18783,1.30922c-0.03352,0.68953 -0.61968,1.22135 -1.30922,1.18783c-0.68954,-0.03352 -1.22135,-0.61969 -1.18783,-1.30922z" fill="#7e7e7e" stroke="none" stroke-width="0.5" stroke-linecap="butt"/><path d="M273.43504,128.33877c0.03352,-0.68953 0.61968,-1.22135 1.30922,-1.18783c0.68954,0.03352 1.22135,0.61969 1.18783,1.30922c-0.03352,0.68953 -0.61968,1.22135 -1.30922,1.18783c-0.68954,-0.03352 -1.22135,-0.61969 -1.18783,-1.30922z" fill="#7e7e7e" stroke="none" stroke-width="0.5" stroke-linecap="butt"/><path d="M278.68924,130.09598c0.03352,-0.68953 0.61968,-1.22135 1.30922,-1.18783c0.68954,0.03352 1.22135,0.61969 1.18783,1.30922c-0.03352,0.68953 -0.61968,1.22135 -1.30922,1.18783c-0.68954,-0.03352 -1.22135,-0.61969 -1.18783,-1.30922z" fill="#7e7e7e" stroke="none" stroke-width="0.5" stroke-linecap="butt"/><path d="M286.08677,128.95384c0.03352,-0.68953 0.61968,-1.22135 1.30922,-1.18783c0.68954,0.03352 1.22135,0.61969 1.18783,1.30922c-0.03352,0.68953 -0.61968,1.22135 -1.30922,1.18783c-0.68954,-0.03352 -1.22135,-0.61969 -1.18783,-1.30922z" fill="#7e7e7e" stroke="none" stroke-width="0.5" stroke-linecap="butt"/><path d="M292.64384,127.93772c0.03352,-0.68953 0.61968,-1.22135 1.30922,-1.18783c0.68954,0.03352 1.22135,0.61969 1.18783,1.30922c-0.03352,0.68953 -0.61968,1.22135 -1.30922,1.18783c-0.68954,-0.03352 -1.22135,-0.61969 -1.18783,-1.30922z" fill="#7e7e7e" stroke="none" stroke-width="0.5" stroke-linecap="butt"/><path d="M296.72815,126.30078c0.03352,-0.68953 0.61968,-1.22135 1.30922,-1.18783c0.68954,0.03352 1.22135,0.61969 1.18783,1.30922c-0.03352,0.68953 -0.61968,1.22135 -1.30922,1.18783c-0.68954,-0.03352 -1.22135,-0.61969 -1.18783,-1.30922z" fill="#7e7e7e" stroke="none" stroke-width="0.5" stroke-linecap="butt"/><path d="M306.40768,126.27076c0.03352,-0.68953 0.61968,-1.22135 1.30922,-1.18783c0.68954,0.03352 1.22135,0.61969 1.18783,1.30922c-0.03352,0.68953 -0.61968,1.22135 -1.30922,1.18783c-0.68954,-0.03352 -1.22135,-0.61969 -1.18783,-1.30922z" fill="#7e7e7e" stroke="none" stroke-width="0.5" stroke-linecap="butt"/><path d="M315.3647,127.37366c0.03352,-0.68953 0.61968,-1.22135 1.30922,-1.18783c0.68954,0.03352 1.22135,0.61969 1.18783,1.30922c-0.03352,0.68953 -0.61968,1.22135 -1.30922,1.18783c-0.68954,-0.03352 -1.22135,-0.61969 -1.18783,-1.30922z" fill="#7e7e7e" stroke="none" stroke-width="0.5" stroke-linecap="butt"/><path d="M323.16912,131.59095c0.03352,-0.68953 0.61968,-1.22135 1.30922,-1.18783c0.68954,0.03352 1.22135,0.61969 1.18783,1.30922c-0.03352,0.68953 -0.61968,1.22135 -1.30922,1.18783c-0.68954,-0.03352 -1.22135,-0.61969 -1.18783,-1.30922z" fill="#7e7e7e" stroke="none" stroke-width="0.5" stroke-linecap="butt"/><path d="M330.43715,133.11232c0.03352,-0.68953 0.61968,-1.22135 1.30922,-1.18783c0.68954,0.03352 1.22135,0.61969 1.18783,1.30922c-0.03352,0.68953 -0.61968,1.22135 -1.30922,1.18783c-0.68954,-0.03352 -1.22135,-0.61969 -1.18783,-1.30922z" fill="#7e7e7e" stroke="none" stroke-width="0.5" stroke-linecap="butt"/><path d="M344.89925,130.81185c0.03352,-0.68953 0.61968,-1.22135 1.30922,-1.18783c0.68954,0.03352 1.22135,0.61969 1.18783,1.30922c-0.03352,0.68953 -0.61968,1.22135 -1.30922,1.18783c-0.68954,-0.03352 -1.22135,-0.61969 -1.18783,-1.30922z" fill="#7e7e7e" stroke="none" stroke-width="0.5" stroke-linecap="butt"/><path d="M350.83092,128.93101c0.03352,-0.68953 0.61968,-1.22135 1.30922,-1.18783c0.68954,0.03352 1.22135,0.61969 1.18783,1.30922c-0.03352,0.68953 -0.61968,1.22135 -1.30922,1.18783c-0.68954,-0.03352 -1.22135,-0.61969 -1.18783,-1.30922z" fill="#7e7e7e" stroke="none" stroke-width="0.5" stroke-linecap="butt"/><path d="M361.49308,129.28249c0.03352,-0.68953 0.61968,-1.22135 1.30922,-1.18783c0.68954,0.03352 1.22135,0.61969 1.18783,1.30922c-0.03352,0.68953 -0.61968,1.22135 -1.30922,1.18783c-0.68954,-0.03352 -1.22135,-0.61969 -1.18783,-1.30922z" fill="#7e7e7e" stroke="none" stroke-width="0.5" stroke-linecap="butt"/><path d="M367.43397,134.07663c0.03352,-0.68953 0.61968,-1.22135 1.30922,-1.18783c0.68954,0.03352 1.22135,0.61969 1.18783,1.30922c-0.03352,0.68953 -0.61968,1.22135 -1.30922,1.18783c-0.68954,-0.03352 -1.22135,-0.61969 -1.18783,-1.30922z" fill="#7e7e7e" stroke="none" stroke-width="0.5" stroke-linecap="butt"/><path d="M370.67435,136.06965c0.03352,-0.68953 0.61968,-1.22135 1.30922,-1.18783c0.68954,0.03352 1.22135,0.61969 1.18783,1.30922c-0.03352,0.68953 -0.61968,1.22135 -1.30922,1.18783c-0.68954,-0.03352 -1.22135,-0.61969 -1.18783,-1.30922z" fill="#7e7e7e" stroke="none" stroke-width="0.5" stroke-linecap="butt"/><path d="M257.22843,139.06446c0.03352,-0.68954 0.61968,-1.22135 1.30922,-1.18783c0.68954,0.03352 1.22135,0.61968 1.18783,1.30922c-0.03352,0.68954 -0.61968,1.22135 -1.30922,1.18783c-0.68954,-0.03352 -1.22135,-0.61968 -1.18783,-1.30922z" fill="#c5c5c5" stroke="none" stroke-width="0.5" stroke-linecap="butt"/><path d="M265.91725,138.81943c0.03352,-0.68954 0.61968,-1.22135 1.30922,-1.18783c0.68954,0.03352 1.22135,0.61968 1.18783,1.30922c-0.03352,0.68954 -0.61968,1.22135 -1.30922,1.18783c-0.68954,-0.03352 -1.22135,-0.61968 -1.18783,-1.30922z" fill="#c5c5c5" stroke="none" stroke-width="0.5" stroke-linecap="butt"/><path d="M310.81908,138.4994c0.03352,-0.68954 0.61968,-1.22135 1.30922,-1.18783c0.68954,0.03352 1.22135,0.61968 1.18783,1.30922c-0.03352,0.68954 -0.61968,1.22135 -1.30922,1.18783c-0.68954,-0.03352 -1.22135,-0.61968 -1.18783,-1.30922z" fill="#c5c5c5" stroke="none" stroke-width="0.5" stroke-linecap="butt"/><path d="M316.1993,141.09705c0.03352,-0.68954 0.61968,-1.22135 1.30922,-1.18783c0.68954,0.03352 1.22135,0.61968 1.18783,1.30922c-0.03352,0.68954 -0.61968,1.22135 -1.30922,1.18783c-0.68954,-0.03352 -1.22135,-0.61968 -1.18783,-1.30922z" fill="#c5c5c5" stroke="none" stroke-width="0.5" stroke-linecap="butt"/><path d="M320.32868,141.96525c0.03352,-0.68954 0.61968,-1.22135 1.30922,-1.18783c0.68954,0.03352 1.22135,0.61968 1.18783,1.30922c-0.03352,0.68954 -0.61968,1.22135 -1.30922,1.18783c-0.68954,-0.03352 -1.22135,-0.61968 -1.18783,-1.30922z" fill="#c5c5c5" stroke="none" stroke-width="0.5" stroke-linecap="butt"/><path d="M326.1829,138.24513c0.03352,-0.68954 0.61968,-1.22135 1.30922,-1.18783c0.68954,0.03352 1.22135,0.61968 1.18783,1.30922c-0.03352,0.68954 -0.61968,1.22135 -1.30922,1.18783c-0.68954,-0.03352 -1.22135,-0.61968 -1.18783,-1.30922z" fill="#c5c5c5" stroke="none" stroke-width="0.5" stroke-linecap="butt"/><path d="M365.60393,140.82905c0.03352,-0.68954 0.61968,-1.22135 1.30922,-1.18783c0.68954,0.03352 1.22135,0.61968 1.18783,1.30922c-0.03352,0.68954 -0.61968,1.22135 -1.30922,1.18783c-0.68954,-0.03352 -1.22135,-0.61968 -1.18783,-1.30922z" fill="#c5c5c5" stroke="none" stroke-width="0.5" stroke-linecap="butt"/><path d="M372.14134,143.64983c0.03352,-0.68954 0.61968,-1.22135 1.30922,-1.18783c0.68954,0.03352 1.22135,0.61968 1.18783,1.30922c-0.03352,0.68954 -0.61968,1.22135 -1.30922,1.18783c-0.68954,-0.03352 -1.22135,-0.61968 -1.18783,-1.30922z" fill="#c5c5c5" stroke="none" stroke-width="0.5" stroke-linecap="butt"/><path d="M377.26493,141.2291c0.03352,-0.68954 0.61968,-1.22135 1.30922,-1.18783c0.68954,0.03352 1.22135,0.61968 1.18783,1.30922c-0.03352,0.68954 -0.61968,1.22135 -1.30922,1.18783c-0.68954,-0.03352 -1.22135,-0.61968 -1.18783,-1.30922z" fill="#c5c5c5" stroke="none" stroke-width="0.5" stroke-linecap="butt"/></g><g fill="#da3243" stroke="none" stroke-width="0.5" stroke-linecap="butt"><path d="M269.44069,209.84796c-0.01862,-0.00996 5.1066,-4.26904 6.54364,-5.59885c1.21353,-1.12288 2.73765,-3.42398 4.46865,-4.63424c0.00809,-0.04668 0.01682,-0.09333 0.02621,-0.13995l-0.04563,-0.00314l0.02852,-0.4145c0.00896,-0.13576 0.12516,-0.23981 0.2616,-0.23317c0.08805,0.00428 0.16322,0.05362 0.20435,0.12462l0.16578,0.27691c0.07935,-0.04063 0.15908,-0.07853 0.23919,-0.11352l0.01256,-0.25843c0.0067,-0.13791 0.12393,-0.24427 0.26184,-0.23757c0.09968,0.00485 0.18289,0.06744 0.21882,0.15385l0.06583,0.14937c0.01468,-0.00368 0.02939,-0.00725 0.04409,-0.01071c0.0684,-0.37514 0.13384,-0.73637 0.14649,-0.99645c0.11699,-2.40653 0.23257,-4.81312 0.35136,-7.21956c0.16337,-1.02539 0.38294,-2.03753 0.61924,-3.04505c0.07241,-1.93959 0.52365,-3.73976 0.90339,-5.71042l0.06531,-0.33888c0.02154,-0.12221 0.13114,-0.21219 0.25832,-0.20601c0.08805,0.00428 0.16323,0.05362 0.20435,0.12462l0.25483,0.42567l-0.2093,0.1253c0.31636,1.42688 -0.40417,4.09665 -0.98837,6.22554c0.00235,0.27611 0.01331,0.55578 0.03415,0.83993c0.46992,1.65379 0.92833,3.31851 1.56676,4.91574c0.01633,0.04086 0.60396,1.45038 0.86685,1.08804c0.27842,-0.38375 -0.09462,-1.0736 0.04627,-1.61402c-0.01453,-0.04197 -0.02409,-0.08824 -0.02836,-0.13898l-0.006,-0.0003l0.02428,-0.49941c0.0067,-0.13791 0.12393,-0.24427 0.26184,-0.23757c0.13791,0.0067 0.24427,0.12393 0.23757,0.26184l-0.02112,0.4344c0.00632,0.38402 4.81269,-1.68045 5.74941,-2.17227c0.97719,-0.51307 1.7586,-1.24529 2.45551,-2.0676c0.45506,-0.97521 0.92057,-1.83496 1.23398,-2.41597c0.1709,-0.31571 1.54009,-2.59553 1.66559,-1.11079c0.09525,1.12674 -1.22294,2.77874 -2.61029,4.09261c-1.06601,2.36185 -1.97469,5.26912 -0.37139,6.17064c0.62986,0.35416 1.75137,1.35851 2.42145,1.4793c0.12373,0.02231 1.24186,-0.80758 1.4338,-0.91989c1.21961,-0.71358 2.2976,-1.73908 3.53335,-2.42304l-0.02867,-0.03695l0.39388,-0.30572c0.04565,-0.03589 0.10398,-0.05611 0.16653,-0.05307c0.13791,0.0067 0.24427,0.12393 0.23757,0.26184c-0.00217,0.04451 -0.01586,0.08575 -0.03803,0.12096l-0.18983,0.31491l-0.00698,-0.0042l-0.00549,0.02294c-0.91765,1.04504 -2.20381,2.13194 -2.53241,3.54182c-0.12247,0.52549 -0.00274,3.68759 0.53946,3.14112c2.87767,-1.92505 5.15109,-4.58087 8.1376,-6.36874c2.25318,-1.34886 5.93749,-3.09261 8.7406,-3.26923l-0.00714,-0.0168l0.26145,-0.11116c0.03486,-0.01572 0.07388,-0.02364 0.11471,-0.02166c0.13791,0.0067 0.24427,0.12393 0.23757,0.26184c-0.00428,0.08805 -0.05362,0.16323 -0.12462,0.20435l-0.42567,0.25484c-2.42155,1.44879 -4.69332,3.13147 -7.13363,4.56394c-1.84403,1.08245 -3.86111,2.53336 -5.22814,4.20213c-0.31899,0.3894 -1.60732,2.23354 -0.80928,2.14068c1.0995,0.05345 2.79888,0.47255 3.85267,0.19756c1.72133,-0.44917 3.30103,-1.57819 5.06369,-1.93853l-0.01864,-0.0541l0.46734,-0.16108c0.03071,-0.0114 0.06418,-0.0169 0.09896,-0.0152c0.13791,0.0067 0.24427,0.12393 0.23757,0.26184c-0.0036,0.07408 -0.0391,0.13906 -0.09255,0.1823l-0.3261,0.266c-1.25662,1.02501 -2.33933,2.17848 -3.46118,3.34867c-1.37045,1.42948 -4.29139,6.0018 -2.10028,7.24713l0.18656,0.00907c0.13791,0.0067 0.24427,0.12393 0.23757,0.26184c-0.00335,0.06896 -0.03434,0.13001 -0.08171,0.17301l-0.29925,0.27151l-0.00819,-0.00903l-0.02364,0.03355c-0.57552,0.25981 -1.07276,0.59563 -1.6167,0.92158c-2.31281,1.6748 -7.06045,-0.48078 -9.66522,-0.93542c-2.51479,-1.07519 -4.85533,-1.93732 -7.24991,-3.29034c-2.33281,-0.90187 -4.58687,-1.87884 -6.60572,-3.30564c-0.00101,-0.00004 -0.00201,-0.00009 -0.00302,-0.00014c-0.14216,-0.00692 -0.19944,-0.09081 -0.22244,-0.1618c-0.01661,-0.01213 -0.03322,-0.02429 -0.0498,-0.03649c0,0 -0.1442,-0.1066 -0.09806,-0.26137c-0.01531,-0.01817 -0.0306,-0.03643 -0.04584,-0.05476c-0.21604,0.12454 -13.07025,4.07788 -13.07025,4.07788z"/><path d="M322.67335,189.58673c-0.16049,0.04497 -0.32098,0.08993 -0.48146,0.1349l-0.47583,0.13331c-0.01051,0.00321 -0.02131,0.00575 -0.03233,0.00756c-0.11648,0.05121 -0.23299,0.10238 -0.34952,0.15351l-0.0185,-0.00035l0.0016,0.00572l-0.47583,0.13332c-0.02685,0.0082 -0.05555,0.012 -0.0852,0.01055c-0.13791,-0.0067 -0.24427,-0.12393 -0.23757,-0.26184c0.00479,-0.09866 0.06618,-0.18119 0.15122,-0.2177l0.31015,-0.1408l0.02083,0.04587l0.05852,-0.0164c0.23147,-0.14691 0.4745,-0.25611 0.73188,-0.34876l0.13997,-0.0888l0.02117,0.03338c0.09556,-0.03148 0.19308,-0.06135 0.29269,-0.09063c0.08193,-0.03597 0.16641,-0.06484 0.2533,-0.08493l0.22739,-0.05095c0,0 0.01578,-0.00354 0.0402,-0.00479c0.04686,-0.00303 0.11647,0.0025 0.17362,0.04853c0.03601,0.02825 0.06699,0.072 0.0833,0.13913c0.01745,0.06685 0.01091,0.12005 -0.00742,0.16199c-0.0285,0.06762 -0.08718,0.10547 -0.12989,0.12501c-0.0212,0.01004 -0.03641,0.01446 -0.03759,0.01481c-0.03929,0.12047 -0.17464,0.1584 -0.17464,0.1584z"/><path d="M284.56922,179.33414c-0.02517,0.01393 -0.05148,0.0272 -0.07891,0.03956c0,0 -0.22876,0.10081 -0.32958,-0.12796c-0.10082,-0.22876 0.12796,-0.32958 0.12796,-0.32958c0.13613,-0.0584 0.26321,-0.11331 0.3795,-0.15973c0.00396,-0.0113 0.08522,-0.23461 0.3163,-0.15721c0.02651,0.00889 0.04908,0.01972 0.06822,0.032c0.37087,-0.0741 0.5017,0.12309 0.25335,0.98357l-0.03772,0.03163l0.01089,0.00885l-0.31351,0.38554c-0.04839,0.06092 -0.12441,0.09843 -0.20805,0.09436c-0.12672,-0.00616 -0.22682,-0.10565 -0.23702,-0.22874l-0.04908,-0.49378l0.09896,-0.00983c-0.0008,-0.0229 -0.00125,-0.04581 -0.00129,-0.06865z"/><path d="M300.84825,180.6024c0.16799,0.18514 -0.01717,0.35315 -0.01717,0.35315l-0.24173,0.202c-0.11368,0.05009 -0.22736,0.10018 -0.34103,0.15028c0,0 -0.22877,0.10081 -0.32958,-0.12796c-0.10082,-0.22876 0.12796,-0.32958 0.12796,-0.32958c0.11368,-0.05009 0.22736,-0.10018 0.34103,-0.15028l0.1074,-0.11477c0,0 0.18515,-0.16798 0.35315,0.01717z"/></g></g><g stroke="#000000"><g fill="#000000" stroke-width="0" stroke-linecap="round"><path d="M267.59935,150.56688l-3.60849,-10.04187l8.31301,4.97513z"/><path d="M269.20537,154.97394l-9.80486,-4.21012l9.30822,-2.6861z"/></g><path d="M267.20209,153.41356c0.62971,-12.95272 11.64043,-22.94247 24.59314,-22.31278c12.95272,0.62971 22.94247,11.64042 22.31278,24.59313c-0.62971,12.95272 -11.64042,22.94248 -24.59313,22.31279c-12.95272,-0.62971 -22.94248,-11.64043 -22.31279,-24.59314z" fill="#ffffff" stroke-width="0" stroke-linecap="butt"/><path d="M275.66167,154.6162c0.40302,-8.28985 7.44997,-14.6834 15.73983,-14.28039c8.28985,0.40302 14.6834,7.44998 14.28039,15.73985c-0.40302,8.28985 -7.44998,14.68341 -15.73984,14.2804c-8.28985,-0.40302 -14.68339,-7.44998 -14.28038,-15.73985z" fill="#ffffff" stroke-width="2" stroke-linecap="butt"/></g><path d="M267.20209,153.41356c0.00433,-0.08895 9.82988,16.56429 22.44844,17.19669c10.66819,0.53466 24.45881,-14.94383 24.45748,-14.91634c-0.62971,12.95272 -11.64042,22.94248 -24.59313,22.31279c-12.95272,-0.62971 -22.94248,-11.64043 -22.31279,-24.59314z" fill="#efefef" stroke="#000000" stroke-width="0" stroke-linecap="butt"/><g stroke="#000000"><g fill="#000000" stroke-width="0" stroke-linecap="round"><path d="M363.99241,149.95761l8.7564,-4.1453l-4.56555,9.64448z"/><path d="M367.32056,152.87179l9.00376,3.57634l-10.16702,3.23918z"/></g><path d="M343.70933,180.6414c-12.95272,-0.62971 -22.94247,-11.64043 -22.31278,-24.59314c0.62971,-12.95272 11.64042,-22.94247 24.59313,-22.31278c12.95272,0.62971 22.94248,11.64042 22.31279,24.59313c-0.62971,12.95272 -11.64043,22.94248 -24.59314,22.31279z" fill="#ffffff" stroke-width="0" stroke-linecap="butt"/><path d="M359.5309,158.48008c-0.40302,8.28987 -7.44997,14.68341 -15.73983,14.2804c-8.28985,-0.40302 -14.6834,-7.45 -14.28039,-15.73985c0.40302,-8.28987 7.44999,-14.68341 15.73984,-14.2804c8.28985,0.40302 14.68339,7.44999 14.28038,15.73984z" fill="#ffffff" stroke-width="2" stroke-linecap="butt"/></g><path d="M287.41674,185.63485c0,0 26.69926,14.84279 44.41564,11.95308c17.71638,-2.88971 36.19301,-25.10111 36.19301,-25.10111c0,0 -15.86358,33.02855 -35.356,36.20796c-19.49241,3.1794 -45.25265,-23.05992 -45.25265,-23.05992z" fill="#ffffff" stroke="#000000" stroke-width="1.5" stroke-linecap="round"/></g></g></g></svg>