<svg version="1.1" xmlns="http://www.w3.org/2000/svg" xmlns:xlink="http://www.w3.org/1999/xlink" width="213.18203" height="317.59858" viewBox="0,0,213.18203,317.59858"><defs><linearGradient x1="318.60651" y1="-10.98606" x2="318.60651" y2="191.78884" gradientUnits="userSpaceOnUse" id="color-1"><stop offset="0" stop-color="#3e2119"/><stop offset="1" stop-color="#3a1f18"/></linearGradient></defs><g transform="translate(-214.52362,10.98606)"><g stroke-miterlimit="10"><g stroke-linecap="butt"><g><g stroke="none" stroke-width="0.5"><path d="M293.27133,280.65654c-2.62842,-0.63572 -3.83179,-4.32638 -3.52563,-7.20218c-1.11239,0.72229 -2.50814,1.00319 -3.89904,0.66678c-0.44257,-0.10704 -0.85701,-0.26989 -1.23766,-0.47929c-0.30284,0.27263 -0.61904,0.53407 -0.94694,0.77324c0.59684,1.55061 0.66112,3.21155 -0.30603,4.43037c-0.13025,0.91981 -0.43404,1.83509 -0.88868,2.64937c-0.04367,0.21768 -0.09597,0.4409 -0.1573,0.66966c-0.15499,0.57806 -0.41366,1.09428 -0.74948,1.54685c-1.04664,1.73251 -3.08167,2.70512 -5.15243,2.33623c-2.51084,-0.04249 -4.71816,-1.53278 -4.12109,-4.64201c-0.02676,-0.47787 0.01519,-0.96769 0.13352,-1.4569c0.12971,-0.53629 0.34137,-1.03127 0.61847,-1.47488c-0.11602,-1.15412 -0.00117,-2.25979 0.37586,-3.07907l0.01993,-1.59925c0.07258,-0.04431 0.14502,-0.09083 0.21732,-0.13934c-0.83003,-2.8317 -0.28259,-6.41816 1.92195,-6.67659c0.35991,-0.26538 0.75445,-0.48215 1.17259,-0.6436c0.13652,-0.15904 0.28252,-0.30881 0.43689,-0.44864c0.17887,-0.2773 0.35887,-0.55303 0.53844,-0.82962c0.00436,-0.03902 0.0092,-0.07807 0.0145,-0.11713c-0.74549,-2.53756 -0.82248,-5.89773 1.05681,-6.44187c0.3275,-0.33742 0.70029,-0.6262 1.10575,-0.85865c-0.08435,-1.08833 -0.03999,-2.18724 0.16478,-3.12009c-0.09835,-0.17061 -0.17974,-0.36262 -0.24194,-0.57744c-1.22794,-1.19183 -1.81173,-2.98348 -1.38033,-4.76717c0.24367,-1.00748 0.77659,-1.86921 1.48922,-2.51832c-0.00052,-0.00013 -0.00105,-0.00025 -0.00156,-0.00038c-1.34202,-0.32458 -2.16681,-1.67563 -1.84223,-3.01765c0.04422,-0.18283 0.10749,-0.35606 0.18719,-0.51809c-0.47257,-0.58435 -0.67742,-1.37436 -0.4871,-2.16125c0.32458,-1.34202 1.67563,-2.16681 3.01765,-1.84223c1.15697,0.27983 1.92951,1.32255 1.91259,2.46469c0.59577,-0.62753 1.50126,-0.92807 2.40268,-0.71005c0.114,0.02757 0.22428,0.06256 0.33043,0.10431c0.58054,-0.45207 1.35428,-0.64477 2.12503,-0.45836c0.45353,0.10969 0.84798,0.33661 1.15898,0.6408c0.59554,-0.63708 1.50779,-0.94374 2.41591,-0.7241c0.11394,0.02756 0.22416,0.06252 0.33026,0.10424c0.11344,0.01138 0.22745,0.03065 0.34139,0.05821c0.32004,0.07741 0.61067,0.21319 0.86331,0.3933c0.44369,-0.15915 0.9373,-0.19478 1.4297,-0.07569c0.31626,0.07649 0.60381,0.20999 0.85434,0.38695c0.30372,-0.0429 0.62048,-0.03024 0.93674,0.04625c0.23888,0.05778 0.46138,0.14807 0.66392,0.26505c0.5581,-0.36682 1.26092,-0.51046 1.96128,-0.34107c0.42076,0.10177 0.79068,0.30444 1.09028,0.57609c0.55271,-0.35114 1.24181,-0.48601 1.92854,-0.31992c0.19263,0.04659 0.3746,0.11433 0.54405,0.20015c0.04852,0.00028 0.09723,0.00198 0.14607,0.00514c1.01194,-0.49742 2.19709,-0.65718 3.37874,-0.37138c0.23468,0.05676 0.46147,0.12921 0.67949,0.21599c0.16913,-0.09439 0.34914,-0.17082 0.54241,-0.22536c1.48396,-0.41884 3.33516,-0.39203 4.95211,0.14169c0.19351,-0.09153 0.39921,-0.15856 0.61228,-0.19815c0.53358,-0.3034 1.17934,-0.41213 1.82302,-0.25644c0.80914,0.1957 1.43026,0.76455 1.7248,1.47958c0.24424,-0.01534 0.49489,0.00522 0.74523,0.06577c0.5303,0.12826 0.97983,0.41679 1.3096,0.80171c0.02656,-0.00557 0.05325,-0.0107 0.08005,-0.01541c0.5748,-0.42581 1.32728,-0.60314 2.07694,-0.42183c0.15297,0.037 0.29922,0.08733 0.43781,0.14947c0.15167,0.00807 0.30476,0.03013 0.45773,0.06713c0.53297,0.12891 0.98438,0.41971 1.3146,0.80755c0.06385,0.03488 0.12708,0.0709 0.18966,0.10806c0.49268,-0.22641 1.06222,-0.29489 1.63015,-0.15753c0.8699,0.2104 1.52248,0.85208 1.78556,1.64302c0.36188,-0.08103 0.74743,-0.08245 1.13223,0.01062c1.34202,0.32458 2.16681,1.67563 1.84223,3.01765c-0.20382,0.84271 -0.8124,1.48148 -1.56932,1.75976c-0.11499,0.10581 -0.23946,0.20048 -0.37157,0.28288c0.02999,0.48667 -0.01126,0.98602 -0.13188,1.48473c-0.38251,1.58154 -1.47782,2.80392 -2.86221,3.40847c-0.03943,0.0232 -0.07945,0.04543 -0.1201,0.06661c-0.01754,0.09709 -0.03801,0.19426 -0.06151,0.2914c-0.64917,2.68403 -3.35126,4.33362 -6.0353,3.68445c-0.17309,-0.04186 -0.34188,-0.09227 -0.50603,-0.15065c-0.83569,0.0589 -2.5249,0.06031 -4.33671,0.01196c-2.17013,2.23471 -5.54792,4.15274 -7.98009,3.28953c-0.45139,0.88185 -1.14827,1.59265 -1.98185,2.06601c0.32526,1.64783 -0.06891,3.54288 -1.00936,5.02298c0.16927,1.93413 -0.6313,4.11948 -2.0065,5.6148c-0.67517,3.02918 -3.4347,6.02054 -6.71114,5.22809z" fill="#c1788e"/><path d="M293.0003,249.38568c0.11221,0.48724 -0.37503,0.59946 -0.37503,0.59946l-0.3536,0.0551c-1.75123,2.27026 -6.52451,0.92708 -6.80366,-1.84662c0,0 -0.04217,-0.49822 0.45605,-0.54038c0.49822,-0.04218 0.54038,0.45605 0.54038,0.45605c0.14532,2.31653 3.98233,2.5247 5.28616,1.07745l0.65024,-0.17607c0,0 0.48724,-0.11221 0.59945,0.37504z" fill-opacity="0.12157" fill="#59434a"/><path d="M304.45792,248.97676c0.05972,-0.13361 0.21817,-0.36926 0.57283,-0.28348c0.48599,0.11754 0.36845,0.60353 0.36845,0.60353l-0.42793,0.59359c-1.75043,0.4031 -3.89036,0.28903 -5.64987,-0.12726c0,0 -0.48599,-0.11754 -0.36845,-0.60353c0.11754,-0.48599 0.60353,-0.36845 0.60353,-0.36845c1.51754,0.3766 3.35063,0.48279 4.90144,0.1856z" fill-opacity="0.12157" fill="#59434a"/><path d="M320.72443,251.58151c-0.11754,0.48599 -0.60353,0.36845 -0.60353,0.36845l-0.21803,-0.10704c-2.08494,0.47512 -4.69815,0.09571 -6.76929,-0.39802c0,0 -0.48599,-0.11754 -0.36845,-0.60353c0.11754,-0.48599 0.60353,-0.36845 0.60353,-0.36845c1.90939,0.46948 4.38584,0.84388 6.3098,0.3955l0.67752,0.10956c0,0 0.48599,0.11754 0.36845,0.60353z" fill-opacity="0.12157" fill="#59434a"/><path d="M313.06961,258.73543c-0.11754,0.48599 -0.60353,0.36845 -0.60353,0.36845l-0.42882,-0.15802c-0.60876,-0.51375 -1.1372,-1.09657 -1.74422,-1.60677c0,0 -0.38212,-0.32248 -0.05964,-0.70459c0.32248,-0.38211 0.70459,-0.05964 0.70459,-0.05964c0.60611,0.51334 1.13519,1.0928 1.74423,1.60677l0.01895,-0.04973c0,0 0.48599,0.11754 0.36845,0.60353z" fill-opacity="0.12157" fill="#59434a"/><path d="M306.1377,257.77674c0.11221,0.48725 -0.37503,0.59946 -0.37503,0.59946l-0.61687,0.12833c-1.66667,-0.38041 -5.00967,-0.49066 -4.74437,-2.59607c0,0 0.11754,-0.48599 0.60353,-0.36845c0.48599,0.11754 0.36845,0.60353 0.36845,0.60353c-0.3735,0.63527 3.02858,1.16657 3.77787,1.361l0.38697,-0.10284c0,0 0.48724,-0.11221 0.59945,0.37504z" fill-opacity="0.12157" fill="#59434a"/><path d="M286.3695,261.99396c0.11754,-0.48599 0.60353,-0.36845 0.60353,-0.36845l-0.06172,0.06923c2.70431,-0.96381 3.49725,-2.6974 4.15366,-5.39717l-0.18564,-0.0449c-1.89177,-0.45755 -3.67502,-1.12583 -5.543,-1.57762c0,0 -0.48599,-0.11754 -0.36845,-0.60353c0.11754,-0.48599 0.60353,-0.36845 0.60353,-0.36845c1.87103,0.45253 3.64975,1.11972 5.543,1.57762l0.22388,0.05415c0,0 0.46016,0.1113 0.37665,0.56506c-0.00006,0.00034 -0.00012,0.00066 -0.00018,0.001c0.44292,0.1327 0.33145,0.59354 0.33145,0.59354c-0.73648,3.04505 -1.74196,5.04942 -4.79876,6.14211l-0.5095,-0.03907c0,0 -0.48599,-0.11754 -0.36845,-0.60353z" fill-opacity="0.12157" fill="#59434a"/><path d="M282.66547,274.36911c0.11754,-0.48599 0.60353,-0.36845 0.60353,-0.36845l0.21803,0.10703c1.96957,-0.42289 1.98566,-3.50667 2.37742,-5.12642c0.11559,-0.4779 0.80024,-2.10474 0.36555,-2.29527c0,0 -0.38212,-0.32247 -0.05964,-0.70459c0.32248,-0.38212 0.70459,-0.05964 0.70459,-0.05964c0.92149,0.94247 0.24901,2.10585 -0.0385,3.29458c-0.51997,2.14985 -0.56971,5.24812 -3.12498,5.86584l-0.67752,-0.10956c0,0 -0.48599,-0.11754 -0.36845,-0.60353z" fill-opacity="0.12157" fill="#59434a"/><path d="M292.79384,265.66656c0.42388,0.2652 0.15868,0.68906 0.15868,0.68906l-0.4062,0.64689c-1.41024,1.67107 -1.60416,3.85498 -2.10586,5.92931c0,0 -0.11754,0.48599 -0.60353,0.36845c-0.48599,-0.11754 -0.36845,-0.60353 -0.36845,-0.60353c0.53358,-2.20611 0.76683,-4.50242 2.26982,-6.28338l0.36647,-0.58812c0,0 0.2652,-0.42388 0.68907,-0.15869z" fill-opacity="0.12157" fill="#59434a"/><path d="M297.44756,260.4215c0.38212,0.32248 0.05964,0.70459 0.05964,0.70459l-0.38877,0.45067c-0.59343,0.36711 -1.56985,0.84123 -1.94381,1.35499c0,0 -0.32247,0.38211 -0.70459,0.05964c-0.38212,-0.32248 -0.05963,-0.70459 -0.05963,-0.70459c0.53691,-0.58914 1.34918,-1.04326 2.05698,-1.46908l0.2756,-0.33658c0,0 0.32247,-0.38211 0.70459,-0.05963z" fill-opacity="0.12157" fill="#59434a"/><path d="M282.5324,270.96715c0.1758,0.46808 -0.29229,0.64387 -0.29229,0.64387l-0.90838,0.34101c-1.66766,0.70564 -3.40654,0.43903 -4.95272,-0.51122c0,0 -0.42388,-0.2652 -0.15869,-0.68907c0.2652,-0.42388 0.68908,-0.15869 0.68908,-0.15869c1.25321,0.80153 2.70151,1.02171 4.04888,0.43133l0.93026,-0.34952c0,0 0.46808,-0.1758 0.64387,0.29229z" fill-opacity="0.12157" fill="#59434a"/></g><path d="M299.42614,184.66077l36.76149,8.72878l-5.48346,55.93747c0,0 -6.75952,-5.52397 -10.10685,-3.9136c-2.30776,1.11025 -5.4937,6.20874 -5.4937,6.20874c0,0 -2.25887,-5.34611 -3.54694,-7.53353c-1.99475,-3.38753 -7.23683,1.64418 -8.73285,3.60117c-1.46534,1.91687 -4.56199,6.85764 -4.56199,6.85764c0,0 0.32403,-4.30455 -0.33351,-6.61783c-0.97793,-3.44037 -3.46857,-7.18679 -7.22532,-6.24274c-3.71743,0.93417 -5.79467,3.57167 -8.38054,6.17651c-1.6951,1.70754 -4.5188,5.36929 -4.5188,5.36929c0,0 -0.12229,-1.51038 -0.0826,-2.63593c0.09049,-2.61207 -4.82309,-2.39196 -6.42249,-3.56708c0,0 4.92081,-7.1461 7.0021,-12.24092c2.0813,-5.0948 21.12544,-50.12798 21.12544,-50.12798z" fill="#e00d0d" stroke="#000000" stroke-width="0"/><g fill="#c10c0c"><path d="M299.42614,184.66077l36.76149,8.72878l-3.76403,37.73344l-47.7301,-11.57976l14.73261,-34.88246z" stroke="#000000" stroke-width="0"/><path d="M289.30568,223.76231c0.06417,-0.26531 0.26208,-0.46324 0.5048,-0.53951c-0.06948,-0.04785 -0.135,-0.10045 -0.1962,-0.15721c-0.37031,0.20537 -0.81575,0.27772 -1.25977,0.17033c-0.48218,-0.11662 -0.86898,-0.42255 -1.10054,-0.81974c-0.35834,0.1816 -0.78068,0.24141 -1.20176,0.13957c-0.93941,-0.22721 -1.51677,-1.17294 -1.28956,-2.11235c0.22721,-0.93941 1.17294,-1.51677 2.11235,-1.28956c0.48218,0.11662 0.86898,0.42255 1.10054,0.81974c0.35834,-0.1816 0.78068,-0.24141 1.20176,-0.13957c0.30127,0.07287 0.56531,0.21964 0.77751,0.4164c0.37031,-0.20537 0.81575,-0.27772 1.25977,-0.17033c0.37668,0.0911 0.69516,0.29773 0.92689,0.57317c0.41672,-0.40528 1.02611,-0.59418 1.63286,-0.44743c0.72575,0.17553 1.23541,0.77992 1.32493,1.47892c0.21591,-0.58803 0.84331,-0.93345 1.46684,-0.78264c0.25118,0.06075 0.46613,0.19342 0.62826,0.37085c0.20478,-0.02583 0.41762,-0.01561 0.63015,0.03579c0.62991,0.15235 1.09703,0.62777 1.26795,1.20771c0.38302,-0.23533 0.85608,-0.32397 1.32755,-0.20994c0.29379,0.07106 0.55218,0.21239 0.7616,0.40182c0.26732,-0.4758 0.82701,-0.7366 1.3836,-0.60198c0.67101,0.16229 1.08341,0.83781 0.92111,1.50882c-0.16229,0.67101 -0.83781,1.08341 -1.50882,0.92111c-0.09638,-0.02331 -0.18742,-0.0572 -0.2722,-0.10016c-0.23456,0.9292 -1.17445,1.4981 -2.10808,1.27229c-0.62991,-0.15235 -1.09703,-0.62777 -1.26795,-1.20771c-0.38302,0.23533 -0.85608,0.32396 -1.32755,0.20993c-0.73141,-0.1769 -1.24335,-0.78936 -1.32696,-1.49529c-0.32373,-0.17585 -0.55073,-0.4859 -0.62577,-0.83975c-0.01749,0.06305 -0.03826,0.12438 -0.06207,0.18383c0.29645,0.29786 0.43572,0.73819 0.32969,1.17659c-0.16229,0.67101 -0.83781,1.08341 -1.50882,0.92111c-0.52461,-0.12688 -0.89115,-0.5675 -0.94855,-1.07439c-0.3365,-0.10081 -0.62203,-0.29556 -0.83459,-0.5482c-0.35507,0.34534 -0.85003,0.53355 -1.36404,0.4909c0.11058,0.1676 0.15397,0.3789 0.10304,0.58947c-0.09738,0.40261 -0.50268,0.65004 -0.90529,0.55267c-0.40261,-0.09738 -0.65004,-0.50268 -0.55267,-0.90529z" stroke="none" stroke-width="0.5"/><path d="M301.39439,230.38634c0.03745,-0.15485 0.12045,-0.28674 0.23133,-0.38488c-0.6617,-0.16897 -1.0664,-0.83916 -0.90538,-1.50492c0.12718,-0.52582 0.56951,-0.89283 1.07786,-0.94895c-0.15506,-0.26827 -0.21124,-0.59428 -0.13265,-0.91924c0.16229,-0.67101 0.83781,-1.08341 1.50882,-0.92111c0.19446,0.04703 0.3672,0.13718 0.51054,0.25782c0.00579,-0.10507 0.02118,-0.21111 0.04681,-0.31706c0.01835,-0.07587 0.04139,-0.14939 0.06874,-0.22031c-0.09511,-0.23408 -0.12036,-0.49912 -0.05643,-0.76345c0.16229,-0.67101 0.83781,-1.08341 1.50882,-0.92111c0.38824,0.0939 0.68989,0.3596 0.84376,0.69683c0.39081,0.15966 0.6999,0.45123 0.88693,0.80863c0.41462,-0.48405 1.07972,-0.72344 1.74167,-0.56334c0.93941,0.22721 1.51677,1.17294 1.28956,2.11235c-0.09434,0.39004 -0.31254,0.71766 -0.60272,0.95121c0.49352,0.26081 0.76721,0.83145 0.62998,1.39886c-0.16229,0.67101 -0.83781,1.08341 -1.50882,0.92111c-0.67101,-0.16229 -1.08341,-0.83781 -0.92111,-1.50882c0.04441,-0.18364 0.12726,-0.3479 0.23794,-0.48631c-0.48552,-0.13315 -0.86916,-0.46022 -1.08708,-0.87663c-0.41462,0.48405 -1.07972,0.72344 -1.74167,0.56334c-0.37337,-0.09031 -0.68955,-0.29413 -0.92075,-0.56592c-0.00161,0.00721 -0.00329,0.01443 -0.00504,0.02164c-0.12718,0.52582 -0.56951,0.89283 -1.07786,0.94895c0.15506,0.26827 0.21125,0.59428 0.13265,0.91924c-0.09026,0.37319 -0.33927,0.66638 -0.65795,0.82521c0.28475,0.16064 0.44069,0.496 0.36003,0.8295c-0.09738,0.40261 -0.50268,0.65004 -0.90529,0.55267c-0.40261,-0.09738 -0.65004,-0.50268 -0.55267,-0.90529z" stroke="none" stroke-width="0.5"/><path d="M315.74384,226.77386c0.0797,0.01928 0.15576,0.0458 0.22764,0.0787c0.07897,0.00359 0.15875,0.01475 0.23845,0.03403c0.32416,0.0784 0.58796,0.27658 0.75578,0.53617c0.22307,-0.21629 0.52309,-0.34595 0.84158,-0.35327c0.39696,-0.58969 1.13221,-0.90051 1.86362,-0.72361c0.77638,0.18778 1.30547,0.86634 1.33747,1.62649c0.66151,0.37584 1.02329,1.15655 0.83551,1.93294c-0.22721,0.93941 -1.17294,1.51677 -2.11235,1.28956c-0.77638,-0.18778 -1.30547,-0.86634 -1.33747,-1.62649c-0.04218,-0.02396 -0.08313,-0.04957 -0.1228,-0.07671c-0.2253,0.08372 -0.47711,0.1035 -0.72829,0.04275c-0.32416,-0.0784 -0.58796,-0.27658 -0.75578,-0.53616c-0.07828,0.07592 -0.16605,0.14114 -0.26076,0.19417c-0.26267,0.48859 -0.83029,0.7587 -1.3947,0.62218c-0.28378,-0.06864 -0.5213,-0.22906 -0.68866,-0.44212c-0.29152,0.38226 -0.79123,0.57756 -1.28846,0.4573c-0.57604,-0.13932 -0.96149,-0.65688 -0.95638,-1.22512c-0.31125,-0.40532 -0.44308,-0.94275 -0.31359,-1.47814c0.22721,-0.93941 1.17294,-1.51677 2.11235,-1.28956c0.52818,0.12775 0.9419,0.48264 1.16252,0.93583c0.18619,-0.04463 0.38544,-0.04702 0.58432,0.00108z" stroke="none" stroke-width="0.5"/><path d="M326.19556,231.20449c-0.16229,0.67101 -0.83781,1.08341 -1.50882,0.92111c-0.60577,-0.14651 -1.00078,-0.71133 -0.95244,-1.31348c-0.43735,-0.41706 -0.6465,-1.04956 -0.49422,-1.67919c0.22721,-0.93941 1.17294,-1.51677 2.11235,-1.28956c0.93941,0.22721 1.51677,1.17294 1.28956,2.11235c-0.07365,0.30451 -0.22279,0.57098 -0.42275,0.78433c0.02079,0.15066 0.01424,0.30767 -0.02368,0.46444z" stroke="none" stroke-width="0.5"/><path d="M327.14483,231.43408c0.14078,-0.58206 0.66772,-0.96952 1.24293,-0.95609c0.41138,-0.51324 1.09633,-0.77194 1.77793,-0.60709c0.16162,0.03909 0.31252,0.09945 0.45046,0.17738c0.15831,-0.00629 0.32012,0.009 0.48174,0.04809c0.93941,0.22721 1.51677,1.17294 1.28956,2.11235c-0.22721,0.93941 -1.17294,1.51677 -2.11235,1.28956c-0.16162,-0.03909 -0.31253,-0.09945 -0.45046,-0.17739c-0.15831,0.00629 -0.32012,-0.00899 -0.48173,-0.04807c-0.25649,-0.06204 -0.48598,-0.17762 -0.67949,-0.33203c-0.18994,0.04772 -0.39391,0.05137 -0.59747,0.00214c-0.67101,-0.16229 -1.08341,-0.83781 -0.92111,-1.50882z" stroke="none" stroke-width="0.5"/><path d="M286.87763,225.64187c0.09738,-0.40261 0.50268,-0.65004 0.90529,-0.55267c0.40261,0.09738 0.65004,0.50268 0.55267,0.90529c-0.09738,0.40261 -0.50268,0.65004 -0.90529,0.55267c-0.40261,-0.09738 -0.65004,-0.50268 -0.55267,-0.90529z" stroke="none" stroke-width="0.5"/><path d="M303.97311,232.98348c0.09738,-0.40261 0.50268,-0.65004 0.90529,-0.55267c0.40261,0.09738 0.65004,0.50268 0.55267,0.90529c-0.09738,0.40261 -0.50268,0.65004 -0.90529,0.55267c-0.40261,-0.09738 -0.65004,-0.50268 -0.55267,-0.90529z" stroke="none" stroke-width="0.5"/><path d="M310.39117,231.94561c0.09738,-0.40261 0.50268,-0.65004 0.90529,-0.55267c0.40261,0.09738 0.65004,0.50268 0.55267,0.90529c-0.09738,0.40261 -0.50268,0.65004 -0.90529,0.55267c-0.40261,-0.09738 -0.65004,-0.50268 -0.55267,-0.90529z" stroke="none" stroke-width="0.5"/><path d="M314.39798,231.18794c0.09738,-0.40261 0.50268,-0.65004 0.90529,-0.55267c0.40261,0.09738 0.65004,0.50268 0.55267,0.90529c-0.09738,0.40261 -0.50268,0.65004 -0.90529,0.55267c-0.40261,-0.09738 -0.65004,-0.50268 -0.55267,-0.90529z" stroke="none" stroke-width="0.5"/><path d="M326.55607,235.48526c0.09738,-0.40261 0.50268,-0.65004 0.90529,-0.55267c0.40261,0.09738 0.65004,0.50268 0.55267,0.90529c-0.09738,0.40261 -0.50268,0.65004 -0.90529,0.55267c-0.40261,-0.09738 -0.65004,-0.50268 -0.55267,-0.90529z" stroke="none" stroke-width="0.5"/><path d="M329.95046,238.27969c0.09738,-0.40261 0.50268,-0.65004 0.90529,-0.55267c0.40261,0.09738 0.65004,0.50268 0.55267,0.90529c-0.09738,0.40261 -0.50268,0.65004 -0.90529,0.55267c-0.40261,-0.09738 -0.65004,-0.50268 -0.55267,-0.90529z" stroke="none" stroke-width="0.5"/></g><g fill="#b70b0b"><path d="M299.42614,184.66077l36.76149,8.72878l-2.99458,30.54807l-45.71429,-10.99287l11.94736,-28.28398z" stroke="#000000" stroke-width="0"/><path d="M290.77521,216.28709c-0.45933,-0.11109 -0.81767,-0.4226 -1.00463,-0.81919c-0.20771,0.01717 -0.42166,0.00192 -0.63532,-0.04976c-1.07361,-0.25967 -1.73345,-1.3405 -1.47378,-2.41412c0.25967,-1.07361 1.3405,-1.73345 2.41412,-1.47378c0.62316,0.15072 1.10692,0.57809 1.35238,1.12014c0.4436,-0.71167 1.308,-1.09339 2.16775,-0.88545c1.07361,0.25967 1.73345,1.3405 1.47378,2.41412c-0.25967,1.07361 -1.3405,1.73345 -2.41412,1.47378c-0.07897,-0.0191 -0.15572,-0.04264 -0.23002,-0.0703c-0.32464,0.55965 -0.98923,0.86443 -1.65016,0.70458z" stroke="none" stroke-width="0.5"/><path d="M295.6034,218.50175c0.18803,-0.77744 0.9502,-1.26558 1.72728,-1.12304c-0.04665,-0.12032 -0.08184,-0.24553 -0.10458,-0.37401c-0.22579,0.02537 -0.45979,0.01242 -0.69344,-0.04409c-1.07361,-0.25967 -1.73345,-1.3405 -1.47378,-2.41412c0.25967,-1.07361 1.3405,-1.73345 2.41412,-1.47378c0.79682,0.19272 1.3657,0.83775 1.49992,1.59646c0.22579,-0.02537 0.45979,-0.01242 0.69344,0.04409c1.07361,0.25967 1.73345,1.3405 1.47378,2.41412c-0.25967,1.07361 -1.3405,1.73345 -2.41412,1.47378c-0.06735,-0.01629 -0.13306,-0.0358 -0.19702,-0.05835c0.04532,0.21272 0.04487,0.43866 -0.00968,0.66419c-0.19475,0.80521 -1.00539,1.30008 -1.81059,1.10534c-0.8052,-0.19475 -1.30009,-1.00538 -1.10534,-1.81059z" stroke="none" stroke-width="0.5"/><path d="M308.69272,222.53095c-0.19475,0.80521 -1.00539,1.30008 -1.81059,1.10534c-0.75515,-0.18264 -1.23735,-0.90696 -1.13376,-1.66048c-0.63655,-0.29435 -0.99795,-1.00612 -0.82682,-1.7137c0.07473,-0.30898 0.24015,-0.57228 0.46115,-0.76844c-0.13919,-0.1516 -0.25421,-0.32376 -0.34101,-0.50981c-0.47281,0.5641 -1.24037,0.84485 -2.00427,0.66009c-1.07361,-0.25967 -1.73345,-1.3405 -1.47378,-2.41412c0.25967,-1.07361 1.3405,-1.73345 2.41412,-1.47378c0.61528,0.14881 1.09467,0.56734 1.34296,1.09964c0.47281,-0.5641 1.24037,-0.84485 2.00427,-0.66009c1.07361,0.25967 1.73345,1.3405 1.47378,2.41412c-0.14682,0.60704 -0.55616,1.08178 -1.07827,1.33284c0.13216,0.26332 0.18776,0.56658 0.14539,0.87471c0.63655,0.29435 0.99795,1.00611 0.82681,1.7137z" stroke="none" stroke-width="0.5"/><path d="M315.83051,220.55708c-0.19475,0.80521 -1.00539,1.30008 -1.81059,1.10534c-0.5853,-0.14156 -1.00664,-0.60855 -1.11831,-1.16232c-0.14443,-0.00252 -0.29082,-0.02083 -0.43708,-0.0562c-0.33886,-0.08196 -0.6365,-0.24572 -0.87702,-0.46524c-0.32615,0.55505 -0.98786,0.85652 -1.64595,0.69736c-0.8052,-0.19475 -1.30009,-1.00538 -1.10534,-1.81059c0.19475,-0.80521 1.00539,-1.30008 1.81059,-1.10534c0.13522,0.0327 0.26168,0.08278 0.37761,0.14728c0.30938,-1.00077 1.34826,-1.60102 2.38044,-1.35138c1.01837,0.2463 1.66444,1.23145 1.50663,2.24845c0.69335,0.26591 1.09825,1.01157 0.91902,1.75264z" stroke="none" stroke-width="0.5"/><path d="M319.74075,222.73623c0.04327,-0.17889 0.11693,-0.34246 0.21418,-0.48655c-0.04975,-0.00814 -0.09956,-0.01821 -0.14936,-0.03025c-1.07361,-0.25967 -1.73345,-1.3405 -1.47378,-2.41412c0.25967,-1.07361 1.3405,-1.73345 2.41412,-1.47378c1.07361,0.25967 1.73345,1.3405 1.47378,2.41412c-0.08816,0.3645 -0.27098,0.68132 -0.51603,0.93064c0.19544,0.06959 0.36893,0.17692 0.51412,0.31153c-0.01438,-0.20085 0.00158,-0.40729 0.05145,-0.61348c0.25967,-1.07361 1.3405,-1.73345 2.41412,-1.47378c1.07361,0.25967 1.73345,1.3405 1.47378,2.41412c-0.25967,1.07361 -1.3405,1.73345 -2.41412,1.47378c-0.42294,-0.10229 -0.78165,-0.33202 -1.04525,-0.63854c-0.00404,0.09654 -0.0175,0.1941 -0.04108,0.29158c-0.19475,0.80521 -1.00539,1.30008 -1.81059,1.10534c-0.8052,-0.19475 -1.30009,-1.00538 -1.10534,-1.81059z" stroke="none" stroke-width="0.5"/><path d="M331.74255,222.84131c1.07361,0.25967 1.73345,1.3405 1.47378,2.41412c-0.25967,1.07361 -1.3405,1.73345 -2.41412,1.47378c-0.66287,-0.16032 -1.16801,-0.63368 -1.39637,-1.2251c-0.32356,0.09396 -0.67529,0.10734 -1.02625,0.02245c-1.07361,-0.25967 -1.73345,-1.3405 -1.47378,-2.41412c0.25967,-1.07361 1.3405,-1.73345 2.41412,-1.47378c0.66287,0.16032 1.16801,0.63368 1.39637,1.2251c0.32356,-0.09396 0.67529,-0.10734 1.02625,-0.02245z" stroke="none" stroke-width="0.5"/><path d="M314.83751,224.14048c0.19475,-0.80521 1.00539,-1.30008 1.81059,-1.10534c0.8052,0.19475 1.30009,1.00538 1.10534,1.81059c-0.19475,0.80521 -1.00539,1.30008 -1.81059,1.10534c-0.8052,-0.19475 -1.30009,-1.00538 -1.10534,-1.81059z" stroke="none" stroke-width="0.5"/><path d="M288.56481,218.15613c0.09738,-0.40261 0.50268,-0.65004 0.90529,-0.55267c0.40261,0.09738 0.65004,0.50268 0.55267,0.90529c-0.09738,0.40261 -0.50268,0.65004 -0.90529,0.55267c-0.40261,-0.09738 -0.65004,-0.50268 -0.55267,-0.90529z" stroke="none" stroke-width="0.5"/><path d="M331.21273,228.47105c0.09738,-0.40261 0.50268,-0.65004 0.90529,-0.55267c0.40261,0.09738 0.65004,0.50268 0.55267,0.90529c-0.09738,0.40261 -0.50268,0.65004 -0.90529,0.55267c-0.40261,-0.09738 -0.65004,-0.50268 -0.55267,-0.90529z" stroke="none" stroke-width="0.5"/><path d="M326.09324,228.21957c0.09738,-0.40261 0.50268,-0.65004 0.90529,-0.55267c0.40261,0.09738 0.65004,0.50268 0.55267,0.90529c-0.09738,0.40261 -0.50268,0.65004 -0.90529,0.55267c-0.40261,-0.09738 -0.65004,-0.50268 -0.55267,-0.90529z" stroke="none" stroke-width="0.5"/><path d="M326.45203,225.71619c0.09738,-0.40261 0.50268,-0.65004 0.90529,-0.55267c0.40261,0.09738 0.65004,0.50268 0.55267,0.90529c-0.09738,0.40261 -0.50268,0.65004 -0.90529,0.55267c-0.40261,-0.09738 -0.65004,-0.50268 -0.55267,-0.90529z" stroke="none" stroke-width="0.5"/></g><g fill="#a50a0a"><path d="M299.42614,184.66077l36.76149,8.72878l-2.33327,23.80194l-43.19234,-11.78899l8.7641,-20.74174z" stroke="#000000" stroke-width="0"/><path d="M294.45679,207.98715c0.00808,-0.03342 0.01744,-0.06619 0.028,-0.09828c-0.14272,0.00167 -0.28794,-0.01424 -0.43302,-0.04933c-0.2075,-0.05019 -0.39734,-0.13543 -0.56475,-0.24791c-0.37186,0.20874 -0.82048,0.28291 -1.26768,0.17475c-0.93941,-0.22721 -1.51677,-1.17294 -1.28956,-2.11235c0.22721,-0.93941 1.17294,-1.51677 2.11235,-1.28956c0.2075,0.05019 0.39734,0.13543 0.56474,0.24792c0.37186,-0.20874 0.82049,-0.2829 1.26768,-0.17475c0.59422,0.14372 1.04356,0.57493 1.23607,1.11017c0.41649,-0.4563 1.06234,-0.67761 1.70522,-0.52212c0.93941,0.22721 1.51677,1.17294 1.28956,2.11235c-0.22721,0.93941 -1.17294,1.51677 -2.11235,1.28956c-0.02613,-0.00632 -0.05196,-0.0132 -0.07751,-0.02061c-0.00572,0.05579 -0.01526,0.11185 -0.02881,0.16788c-0.16229,0.67101 -0.83781,1.08341 -1.50882,0.92111c-0.67101,-0.16229 -1.08341,-0.83781 -0.92111,-1.50882z" stroke="none" stroke-width="0.5"/><path d="M303.05141,210.1892c0.01345,-0.05562 0.03043,-0.10945 0.05063,-0.16133c-0.35079,-0.24592 -0.59876,-0.6132 -0.69794,-1.02658c-0.37355,0.21247 -0.82566,0.28864 -1.27633,0.17964c-0.93941,-0.22721 -1.51677,-1.17294 -1.28956,-2.11235c0.22721,-0.93941 1.17294,-1.51677 2.11235,-1.28956c0.66087,0.15984 1.14254,0.67527 1.29099,1.29394c0.37355,-0.21247 0.82568,-0.28865 1.27634,-0.17965c0.93941,0.22721 1.51677,1.17294 1.28956,2.11235c-0.07935,0.32806 -0.24633,0.61197 -0.47005,0.83288c0.16359,0.27181 0.22441,0.60565 0.14394,0.93837c-0.16229,0.67101 -0.83781,1.08341 -1.50882,0.92111c-0.67101,-0.16229 -1.08341,-0.83781 -0.92111,-1.50882z" stroke="none" stroke-width="0.5"/><path d="M312.68117,210.36885c0.06274,0.01517 0.12323,0.03485 0.18119,0.05857c0.32519,-0.7805 1.17827,-1.23091 2.0262,-1.02583c0.55135,0.13335 0.978,0.51422 1.19046,0.99605c0.62214,0.38833 0.95573,1.14429 0.77387,1.89621c-0.22721,0.93941 -1.17294,1.51677 -2.11235,1.28956c-0.55135,-0.13335 -0.978,-0.51421 -1.19046,-0.99605c-0.08175,-0.05102 -0.15851,-0.10839 -0.22978,-0.17127c-0.29715,0.33252 -0.76307,0.49486 -1.22684,0.3827c-0.05963,-0.01442 -0.11722,-0.0329 -0.17254,-0.05506c-0.29288,0.3736 -0.78681,0.56307 -1.27832,0.4442c-0.43767,-0.10586 -0.76532,-0.43006 -0.89523,-0.82894c-0.26276,0.19072 -0.57723,0.30793 -0.90894,0.33058c-0.21029,0.06677 -0.44093,0.0787 -0.67103,0.02305c-0.40289,-0.09744 -0.71254,-0.3799 -0.86055,-0.73533c-0.2936,-0.40128 -0.41515,-0.92435 -0.28911,-1.44548c0.22721,-0.93941 1.17294,-1.51677 2.11235,-1.28956c0.75817,0.18337 1.28052,0.83476 1.33441,1.57314c0.23466,-0.0959 0.50059,-0.12154 0.76581,-0.05739c0.05963,0.01442 0.11721,0.03289 0.17254,0.05506c0.29288,-0.3736 0.78681,-0.56307 1.27833,-0.44419z" stroke="none" stroke-width="0.5"/><path d="M332.45935,214.26801c0.93941,0.22721 1.51677,1.17294 1.28956,2.11235c-0.22721,0.93941 -1.17294,1.51677 -2.11235,1.28956c-0.16162,-0.03909 -0.31252,-0.09945 -0.45045,-0.17739c-0.15831,0.00629 -0.32012,-0.00899 -0.48173,-0.04807c-0.93941,-0.22721 -1.51677,-1.17294 -1.28956,-2.11235c0.22721,-0.93941 1.17294,-1.51677 2.11235,-1.28956c0.16162,0.03909 0.31252,0.09945 0.45045,0.17739c0.15831,-0.00629 0.32012,0.00899 0.48173,0.04807z" stroke="none" stroke-width="0.5"/><path d="M320.37557,212.7232c0.01615,0.00391 0.03215,0.00812 0.048,0.01261c0.00456,-0.02268 0.00957,-0.04538 0.01505,-0.06806c0.22721,-0.93941 1.17294,-1.51677 2.11235,-1.28956c0.18388,0.04447 0.35389,0.11648 0.5067,0.21057c0.32665,-0.1317 0.69605,-0.16635 1.06448,-0.07724c0.93941,0.22721 1.51677,1.17294 1.28956,2.11235c-0.22721,0.93941 -1.17294,1.51677 -2.11235,1.28956c-0.18388,-0.04447 -0.35388,-0.11647 -0.5067,-0.21057c-0.32665,0.1317 -0.69605,0.16635 -1.06449,0.07724c-0.20192,-0.04884 -0.38712,-0.13087 -0.5512,-0.2389c-0.26506,0.48212 -0.82868,0.7475 -1.38914,0.61195c-0.40351,-0.09759 -0.7135,-0.38078 -0.86123,-0.73698c-0.29092,0.38583 -0.79299,0.58356 -1.29256,0.46273c-0.67101,-0.16229 -1.08341,-0.83781 -0.92111,-1.50882c0.16229,-0.67101 0.83781,-1.08341 1.50882,-0.92111c0.40351,0.09759 0.7135,0.38078 0.86123,0.73698c0.29092,-0.38583 0.79299,-0.58356 1.29256,-0.46273z" stroke="none" stroke-width="0.5"/><path d="M325.81322,217.05118c0.16229,-0.67101 0.83781,-1.08341 1.50882,-0.92111c0.67101,0.16229 1.08341,0.83781 0.92111,1.50882c-0.16229,0.67101 -0.83781,1.08341 -1.50882,0.92111c-0.67101,-0.16229 -1.08341,-0.83781 -0.92111,-1.50882z" stroke="none" stroke-width="0.5"/><path d="M294.6875,212.72989c0.09738,-0.40261 0.50268,-0.65004 0.90529,-0.55267c0.40261,0.09738 0.65004,0.50268 0.55267,0.90529c-0.09738,0.40261 -0.50268,0.65004 -0.90529,0.55267c-0.40261,-0.09738 -0.65004,-0.50268 -0.55267,-0.90529z" stroke="none" stroke-width="0.5"/><path d="M293.26645,209.42601c0.09738,-0.40261 0.50268,-0.65004 0.90529,-0.55267c0.40261,0.09738 0.65004,0.50268 0.55267,0.90529c-0.09738,0.40261 -0.50268,0.65004 -0.90529,0.55267c-0.40261,-0.09738 -0.65004,-0.50268 -0.55267,-0.90529z" stroke="none" stroke-width="0.5"/><path d="M303.68048,213.79489c0.09738,-0.40261 0.50268,-0.65004 0.90529,-0.55267c0.40261,0.09738 0.65004,0.50268 0.55267,0.90529c-0.09738,0.40261 -0.50268,0.65004 -0.90529,0.55267c-0.40261,-0.09738 -0.65004,-0.50268 -0.55267,-0.90529z" stroke="none" stroke-width="0.5"/><path d="M310.98194,214.20409c0.09738,-0.40261 0.50268,-0.65004 0.90529,-0.55267c0.40261,0.09738 0.65004,0.50268 0.55267,0.90529c-0.05116,0.21154 -0.18734,0.38023 -0.36345,0.47858c0.04669,0.1322 0.05689,0.27899 0.02147,0.42543c-0.09738,0.40261 -0.50268,0.65004 -0.90529,0.55267c-0.40261,-0.09738 -0.65004,-0.50268 -0.55267,-0.90529c0.05116,-0.21154 0.18734,-0.38023 0.36345,-0.47858c-0.04669,-0.1322 -0.05689,-0.27899 -0.02147,-0.42543z" stroke="none" stroke-width="0.5"/><path d="M320.77378,217.06573c0.09738,-0.40261 0.50268,-0.65004 0.90529,-0.55267c0.40261,0.09738 0.65004,0.50268 0.55267,0.90529c-0.09738,0.40261 -0.50268,0.65004 -0.90529,0.55267c-0.40261,-0.09738 -0.65004,-0.50268 -0.55267,-0.90529z" stroke="none" stroke-width="0.5"/><path d="M322.87502,218.0673c0.09738,-0.40261 0.50268,-0.65004 0.90529,-0.55267c0.40261,0.09738 0.65004,0.50268 0.55267,0.90529c-0.09738,0.40261 -0.50268,0.65004 -0.90529,0.55267c-0.40261,-0.09738 -0.65004,-0.50268 -0.55267,-0.90529z" stroke="none" stroke-width="0.5"/></g></g><path d="M342.15067,203.38335c-2.16818,8.96453 -15.85405,13.34673 -30.56824,9.78792c-14.7142,-3.55881 -24.88474,-13.71098 -22.71656,-22.6755c2.16818,-8.96453 15.85405,-13.34673 30.56824,-9.78792c14.7142,3.55881 24.88474,13.71098 22.71656,22.6755z" fill="#4c291f" stroke="none" stroke-width="0"/></g><path d="M315.25178,191.78884v-202.7749h6.70946v202.7749z" fill="url(#color-1)" stroke="none" stroke-width="0" stroke-linecap="butt"/><path d="M214.52362,306.61252v-267.72501h213.18203v267.72501z" fill="none" stroke="none" stroke-width="0" stroke-linecap="butt"/><path d="" fill="none" stroke="#000000" stroke-width="2" stroke-linecap="round"/><g stroke-linecap="butt"><path d="M257.27589,149.17448c0,-32.51753 28.08254,-58.87818 62.72411,-58.87818c17.67117,0 45.03615,17.8966 45.03615,17.8966c0,0 2.86,7.14495 5.54561,11.25444c2.68561,4.10949 8.78596,10.67556 8.78596,10.67556c0,0 3.35639,12.38416 3.35639,19.05159c0,32.51753 -28.08254,58.8782 -62.72411,58.8782c-34.64157,0 -62.72411,-26.36067 -62.72411,-58.8782z" fill="#e0d6c6" stroke="#000000" stroke-width="0"/><path d="M257.27589,149.17448c0,-32.51753 28.08254,-58.87818 62.72411,-58.87818c17.67117,0 45.03615,17.8966 45.03615,17.8966c0,0 2.86,7.14495 5.54561,11.25444c2.68561,4.10949 8.78596,10.67556 8.78596,10.67556c0,0 3.35639,12.38416 3.35639,19.05159c0,8.34246 -1.84837,16.27967 -5.18167,23.47049c-1.20042,2.58964 -113.72612,2.89029 -114.94856,0.29193c-3.41919,-7.26769 -5.31799,-15.3069 -5.31799,-23.76242z" fill="#c8bfb0" stroke="#000000" stroke-width="0"/><path d="M360.58689,156.01922c0,0.69036 -0.55964,1.25 -1.25,1.25c-0.49528,0 -0.92328,-0.28805 -1.12562,-0.70576c-0.27022,0.17081 -0.59045,0.26968 -0.93377,0.26968c-0.53873,0 -1.0206,-0.24343 -1.34162,-0.6263c-0.26406,0.15985 -0.57378,0.25187 -0.90499,0.25187c-0.9665,0 -1.75,-0.7835 -1.75,-1.75c0,-0.9665 0.7835,-1.75 1.75,-1.75c0.53873,0 1.0206,0.24343 1.34162,0.6263c0.2226,-0.13476 0.47766,-0.2213 0.75068,-0.24515c0.29908,-0.23855 0.67809,-0.38115 1.0904,-0.38115c0.9665,0 1.75,0.7835 1.75,1.75c0,0.0748 -0.00469,0.14851 -0.0138,0.22084c0.38029,0.21436 0.63711,0.62202 0.63711,1.08968z" fill="#9d958a" stroke="none" stroke-width="0.5"/><path d="M257.27589,149.17448c0,-32.51753 28.08254,-58.87818 62.72411,-58.87818c17.67117,0 45.03615,17.8966 45.03615,17.8966c0,0 2.86,7.14495 5.54561,11.25444c2.68561,4.10949 8.78596,10.67556 8.78596,10.67556c0,0 3.35639,12.38416 3.35639,19.05159c0,1.86423 -0.0923,3.70822 -0.27285,5.52818c-0.08432,0.84994 -124.85632,0.53761 -124.94962,-0.49741c-0.14949,-1.6583 -0.22575,-3.33617 -0.22575,-5.03077z" fill="#9d958a" stroke="#000000" stroke-width="0"/><path d="M261.3866,128.16579c9.01274,-22.14303 31.85655,-37.86949 58.6134,-37.86949c17.67117,0 45.03615,17.8966 45.03615,17.8966c0,0 2.86,7.14495 5.54561,11.25444c2.68561,4.10949 8.78596,10.67556 8.78596,10.67556c0,0 -119.3833,1.48786 -117.98112,-1.95711z" fill="#8e887d" stroke="#000000" stroke-width="0"/><path d="M361.2735,142.73575c0.5,0 0.5,0.5 0.5,0.5l-0.07475,1.01185c-0.53088,0.31204 -1.00699,0.73542 -1.38778,1.21935c-2.54259,1.9182 -2.41787,5.24382 -4.48765,7.29599c-1.10326,1.09387 -2.83894,-0.14044 -2.30231,1.959c0,0 0.12127,0.48507 -0.3638,0.60634c-0.48507,0.12127 -0.60634,-0.3638 -0.60634,-0.3638c-0.71581,-2.91895 1.33703,-1.65502 2.56534,-2.90865c2.03499,-2.07692 1.88957,-5.36223 4.49878,-7.30695c0.33729,-0.41531 0.73258,-0.83868 1.23326,-1.02726l-0.07475,-0.48588c0,0 0,-0.5 0.5,-0.5z" fill="#928673" stroke="none" stroke-width="0.5"/><path d="M354.51273,165.66037c-2.61384,-0.04875 -5.864,-0.96684 -6.29193,-1.18964c-3.56697,-1.85711 -9.16156,-6.7214 -7.66093,-10.33403c1.50063,-3.61263 6.99607,-1.91428 12.34554,0.30781c3.27069,1.3586 6.46153,6.2181 5.9613,9.03792c-0.31793,1.79221 -3.77039,2.18883 -4.35399,2.17794z" fill="#8f8d8b" stroke="none" stroke-width="0"/><path d="M340.31042,155.34704c0.00789,-0.41449 0.08719,-0.81973 0.24945,-1.21034c1.50063,-3.61263 7.31146,-1.59889 12.66093,0.6232c0.17899,0.07435 -12.91492,0.82599 -12.91038,0.58714z" fill="#706e6d" stroke="none" stroke-width="0"/><path d="M352.65759,132.42985c0,-0.17403 0.03556,-0.33974 0.09982,-0.49029c-0.28587,-0.1416 -0.52752,-0.35904 -0.69864,-0.626c-0.17408,0.78306 -0.87282,1.36855 -1.7083,1.36855c-0.9665,0 -1.75,-0.7835 -1.75,-1.75c0,-0.9665 0.7835,-1.75 1.75,-1.75c0.61922,0 1.16332,0.32161 1.47438,0.80689c0.17408,-0.78306 0.87282,-1.36854 1.70831,-1.36854c0.9665,0 1.75,0.7835 1.75,1.75c0,0.4623 -0.17926,0.88272 -0.47206,1.19557c0.21465,0.22445 0.3465,0.52873 0.3465,0.86381c0,0.69036 -0.55964,1.25 -1.25,1.25c-0.69036,0 -1.25,-0.55964 -1.25,-1.25z" fill="#8e887d" stroke="none" stroke-width="0.5"/><path d="M357.1508,133.17872c0,-0.69036 0.55964,-1.25 1.25,-1.25c0.69036,0 1.25,0.55964 1.25,1.25c0,0.69036 -0.55964,1.25 -1.25,1.25c-0.69036,0 -1.25,-0.55964 -1.25,-1.25z" fill="#8e887d" stroke="none" stroke-width="0.5"/><path d="M353.59367,135.61255c0,-0.69036 0.55964,-1.25 1.25,-1.25c0.69036,0 1.25,0.55964 1.25,1.25c0,0.69036 -0.55964,1.25 -1.25,1.25c-0.69036,0 -1.25,-0.55964 -1.25,-1.25z" fill="#8e887d" stroke="none" stroke-width="0.5"/><path d="M361.26958,135.79976c0,-0.69036 0.55964,-1.25 1.25,-1.25c0.69036,0 1.25,0.55964 1.25,1.25c0,0.69036 -0.55964,1.25 -1.25,1.25c-0.69036,0 -1.25,-0.55964 -1.25,-1.25z" fill="#8e887d" stroke="none" stroke-width="0.5"/><path d="M371.87931,137.2975c0,-0.33544 0.22021,-0.61945 0.52396,-0.71534c-0.1721,-0.21418 -0.27508,-0.48626 -0.27508,-0.7824c0,-0.31497 0.11649,-0.60273 0.30875,-0.82255c-0.05943,0.00867 -0.12022,0.01317 -0.18205,0.01317c-0.69036,0 -1.25,-0.55964 -1.25,-1.25c0,-0.09618 0.01087,-0.18984 0.03144,-0.27979c-0.26733,-0.06176 -0.50185,-0.20926 -0.67302,-0.41198c-0.05523,0.00526 -0.1112,0.00795 -0.16781,0.00795c-0.47024,0 -0.89715,-0.18547 -1.21159,-0.48725c-0.22483,0.33125 -0.6045,0.5489 -1.03501,0.5489c-0.58323,0 -1.07316,-0.39943 -1.21117,-0.93966c-0.20394,0.08326 -0.42712,0.12914 -0.661,0.12914c-0.63502,0 -1.19104,-0.33822 -1.49774,-0.84436c-0.3067,0.50614 -0.86272,0.84436 -1.49774,0.84436c-0.4395,0 -0.84116,-0.16201 -1.14851,-0.42957c-0.31137,0.48368 -0.85454,0.80401 -1.47253,0.80401c-0.81473,0 -1.49941,-0.55675 -1.69436,-1.31054c-0.06525,-0.00035 -0.12966,-0.00426 -0.19304,-0.01156c-0.32012,0.35216 -0.78189,0.57324 -1.29529,0.57324c-0.9665,0 -1.75,-0.7835 -1.75,-1.75c0,-0.9665 0.7835,-1.75 1.75,-1.75c0.06847,0 0.13603,0.00393 0.20245,0.01158c0.32012,-0.35215 0.78189,-0.57323 1.29529,-0.57323c0.81473,0 1.49941,0.55675 1.69437,1.31054c0.43582,0.0023 0.83394,0.1639 1.1391,0.42955c0.31137,-0.48368 0.85454,-0.80401 1.47253,-0.80401c0.63502,0 1.19104,0.33823 1.49774,0.84436c0.28159,-0.46469 0.77334,-0.78785 1.34343,-0.83765c0.29908,-0.23856 0.67809,-0.38114 1.0904,-0.38114c0.52299,0 0.99241,0.22943 1.31309,0.59312c0.30359,-0.25341 0.69436,-0.4059 1.12074,-0.4059c0.77101,0 1.42556,0.4986 1.6588,1.19096c0.2339,0.14265 0.4317,0.33865 0.5765,0.57109c0.17163,-0.08867 0.36644,-0.13875 0.57295,-0.13875c0.57914,0 1.06629,0.39385 1.20822,0.92832c0.22439,-0.33406 0.60572,-0.55388 1.03839,-0.55388c0.43809,0 0.82353,0.22537 1.04674,0.56649c0.63853,0.056 1.13935,0.59209 1.13935,1.24516c0,0.69036 -0.55964,1.25 -1.25,1.25c-0.43809,0 -0.82353,-0.22536 -1.04674,-0.56648c-0.52979,-0.04647 -0.96478,-0.42343 -1.09757,-0.92349c-0.12225,0.18199 -0.29107,0.33008 -0.4894,0.42719c0.41514,0.20327 0.70101,0.62991 0.70101,1.12331c0,0.31497 -0.11649,0.60273 -0.30875,0.82255c0.05943,-0.00867 0.12022,-0.01316 0.18205,-0.01316c0.69036,0 1.25,0.55964 1.25,1.25c0,0.69036 -0.55964,1.25 -1.25,1.25c-0.01371,0 -0.02738,-0.00021 -0.04098,-0.00065c0.02728,0.07774 0.04211,0.16133 0.04211,0.24839c0,0.41422 -0.33578,0.75 -0.75,0.75c-0.41422,0 -0.75,-0.33578 -0.75,-0.75z" fill="#8e887d" stroke="none" stroke-width="0.5"/><path d="M378.80748,131.74151c0.69036,0 1.25,0.55964 1.25,1.25c0,0.63885 -0.47925,1.16576 -1.09784,1.24083c-0.22742,0.23646 -0.54704,0.38361 -0.90103,0.38361c-0.69036,0 -1.25,-0.55964 -1.25,-1.25c0,-0.63885 0.47924,-1.16576 1.09783,-1.24084c0.22742,-0.23646 0.54705,-0.3836 0.90104,-0.3836z" fill="#8e887d" stroke="none" stroke-width="0.5"/><path d="M349.78768,141.97793c0,-0.41422 0.33578,-0.75 0.75,-0.75c0.41422,0 0.75,0.33578 0.75,0.75c0,0.41422 -0.33578,0.75 -0.75,0.75c-0.41422,0 -0.75,-0.33578 -0.75,-0.75z" fill="#8e887d" stroke="none" stroke-width="0.5"/><path d="M355.21697,137.48472c0,-0.41422 0.33578,-0.75 0.75,-0.75c0.41422,0 0.75,0.33578 0.75,0.75c0,0.41422 -0.33578,0.75 -0.75,0.75c-0.41422,0 -0.75,-0.33578 -0.75,-0.75z" fill="#8e887d" stroke="none" stroke-width="0.5"/><path d="M360.45906,139.16967c0,-0.41422 0.33578,-0.75 0.75,-0.75c0.41422,0 0.75,0.33578 0.75,0.75c0,0.41422 -0.33578,0.75 -0.75,0.75c-0.41422,0 -0.75,-0.33578 -0.75,-0.75z" fill="#8e887d" stroke="none" stroke-width="0.5"/><path d="M368.5094,137.85915c0,-0.41422 0.33578,-0.75 0.75,-0.75c0.41422,0 0.75,0.33578 0.75,0.75c0,0.41422 -0.33578,0.75 -0.75,0.75c-0.41422,0 -0.75,-0.33578 -0.75,-0.75z" fill="#8e887d" stroke="none" stroke-width="0.5"/><path d="M374.87478,142.53958c0,-0.41422 0.33578,-0.75 0.75,-0.75c0.41422,0 0.75,0.33578 0.75,0.75c0,0.41422 -0.33578,0.75 -0.75,0.75c-0.41422,0 -0.75,-0.33578 -0.75,-0.75z" fill="#8e887d" stroke="none" stroke-width="0.5"/><path d="M379.41176,130.32096c-0.27555,0.33902 -0.50542,0.52002 -1.15522,0.75209c-5.06342,1.80836 -9.76077,-3.86305 -13.3853,-9.50726c-3.62454,-5.64421 -6.29062,-11.43931 -1.2272,-13.24767c0.49796,-0.17784 0.65216,-0.18198 1.10666,-0.23197c0.56836,-0.06251 3.02405,6.39363 6.77311,12.18952c3.36292,5.19895 8.10116,9.78299 7.88796,10.04529z" fill="#5e5d5b" stroke="none" stroke-width="0"/><path d="M371.00487,157.70418c0,-0.04164 0.00203,-0.08281 0.00601,-0.12341c-0.02207,0.00082 -0.04425,0.00124 -0.06653,0.00124c-0.9665,0 -1.75,-0.7835 -1.75,-1.75c0,-0.9665 0.7835,-1.75 1.75,-1.75c0.37718,0 0.72649,0.11933 1.01224,0.32228c0.31644,-0.31489 0.75267,-0.5095 1.23436,-0.5095c0.43048,0 0.82467,0.15543 1.12949,0.41324c0.11873,-0.02543 0.24193,-0.03881 0.36825,-0.03881c0.57493,0 1.08512,0.27725 1.40413,0.70535c0.31901,-0.4281 0.8292,-0.70535 1.40413,-0.70535c0.34785,0 0.67201,0.10149 0.94446,0.27649c0.13189,-0.04392 0.27075,-0.07257 0.4145,-0.08384c0.25062,-0.65981 0.88881,-1.12873 1.63652,-1.12873c0.81876,0 1.5062,0.56228 1.69723,1.32176c0.52621,0.05971 0.18415,3.48875 -0.19949,3.48875c-0.67606,0 -1.26259,-0.38336 -1.55404,-0.94457c-0.31567,0.45752 -0.84354,0.75735 -1.44143,0.75735c-0.34785,0 -0.67201,-0.10149 -0.94446,-0.27649c-0.1739,0.05791 -0.35992,0.08927 -0.55328,0.08927c-0.57493,0 -1.08512,-0.27725 -1.40413,-0.70534c-0.31901,0.4281 -0.8292,0.70534 -1.40413,0.70534c-0.12852,0 -0.2538,-0.01385 -0.37444,-0.04014c-0.12063,0.0263 -0.24592,0.04014 -0.37444,0.04014c-0.15017,0 -0.29592,-0.01891 -0.435,-0.05449c-0.00567,0.6855 -0.56312,1.23944 -1.24995,1.23944c-0.69036,0 -1.25,-0.55964 -1.25,-1.25z" fill="#9d958a" stroke="none" stroke-width="0.5"/><path d="M367.76166,153.64592c0.69036,0 1.25,0.55964 1.25,1.25c0,0.44009 -0.22743,0.82704 -0.57116,1.04978c-0.0996,0.23788 -0.25021,0.44908 -0.43816,0.61994c0.00765,0.06643 0.01158,0.13397 0.01158,0.20245c0,0.02079 -0.00036,0.04151 -0.00108,0.06213c0.66063,0.0333 1.18604,0.57949 1.18604,1.24839c0,0.69036 -0.55964,1.25 -1.25,1.25c-0.56162,0 -1.03673,-0.37038 -1.1944,-0.88021c-0.15565,0.04537 -0.32026,0.06969 -0.49056,0.06969c-0.94511,0 -1.71522,-0.74921 -1.74885,-1.6861c-0.08317,-0.00298 -0.16486,-0.01178 -0.24469,-0.02597c-0.28806,0.57134 -0.88006,0.9632 -1.56358,0.9632c-0.9665,0 -1.75,-0.7835 -1.75,-1.75c0,-0.9665 0.7835,-1.75 1.75,-1.75c0.1053,0 0.20842,0.00931 0.30859,0.02713c0.28806,-0.57134 0.88006,-0.96321 1.56358,-0.96321c0.38489,0 0.74077,0.12426 1.0297,0.33485c0.28893,-0.21059 0.6448,-0.33485 1.0297,-0.33485c0.37462,0 0.72176,0.11772 1.00643,0.31817c0.03848,-0.00357 0.07747,-0.00539 0.11687,-0.00539z" fill="#9d958a" stroke="none" stroke-width="0.5"/><path d="M360.52071,159.20192c0,-0.69036 0.55964,-1.25 1.25,-1.25c0.69036,0 1.25,0.55964 1.25,1.25c0,0.69036 -0.55964,1.25 -1.25,1.25c-0.69036,0 -1.25,-0.55964 -1.25,-1.25z" fill="#9d958a" stroke="none" stroke-width="0.5"/><path d="M376.99582,159.76357c0,-0.69036 0.55964,-1.25 1.25,-1.25c0.69036,0 1.25,0.55964 1.25,1.25c0,0.69036 -0.55964,1.25 -1.25,1.25c-0.69036,0 -1.25,-0.55964 -1.25,-1.25z" fill="#9d958a" stroke="none" stroke-width="0.5"/><path d="M362.14401,165.38009c0,-0.41422 0.33578,-0.75 0.75,-0.75c0.41422,0 0.75,0.33578 0.75,0.75c0,0.41422 -0.33578,0.75 -0.75,0.75c-0.41422,0 -0.75,-0.33578 -0.75,-0.75z" fill="#9d958a" stroke="none" stroke-width="0.5"/><path d="M363.26732,162.19739c0,-0.41422 0.33578,-0.75 0.75,-0.75c0.41422,0 0.75,0.33578 0.75,0.75c0,0.41422 -0.33578,0.75 -0.75,0.75c-0.41422,0 -0.75,-0.33578 -0.75,-0.75z" fill="#9d958a" stroke="none" stroke-width="0.5"/><path d="M369.25827,161.82295c0,-0.41422 0.33578,-0.75 0.75,-0.75c0.41422,0 0.75,0.33578 0.75,0.75c0,0.41422 -0.33578,0.75 -0.75,0.75c-0.41422,0 -0.75,-0.33578 -0.75,-0.75z" fill="#9d958a" stroke="none" stroke-width="0.5"/><path d="M378.43191,162.94626c0,-0.41422 0.33578,-0.75 0.75,-0.75c0.41422,0 0.75,0.33578 0.75,0.75c0,0.41422 -0.33578,0.75 -0.75,0.75c-0.41422,0 -0.75,-0.33578 -0.75,-0.75z" fill="#9d958a" stroke="none" stroke-width="0.5"/><path d="M363.87813,177.05782c0,-0.44461 0.23213,-0.83501 0.5818,-1.0566c-0.05529,-0.01762 -0.10939,-0.03792 -0.16215,-0.06074c-0.30915,0.4949 -0.85877,0.82413 -1.48529,0.82413c-0.16977,0 -0.33389,-0.02417 -0.48911,-0.06927c-0.20022,0.74599 -0.88113,1.29519 -1.69032,1.29519c-0.78003,0 -1.44086,-0.51034 -1.66682,-1.21533c-0.26757,0.16599 -0.58322,0.26183 -0.92125,0.26183c-0.91821,0 -1.67125,-0.70717 -1.74421,-1.60658c-0.23118,0.69598 -0.88754,1.19794 -1.66114,1.19794c-0.48058,0 -0.91591,-0.19372 -1.23218,-0.50733c-0.31411,0.38446 -0.78849,0.63284 -1.32119,0.6432c-0.30411,0.25526 -0.69631,0.40898 -1.12441,0.40898c-0.63325,0 -1.18794,-0.33635 -1.49517,-0.84014c-0.10748,0.58109 -0.6169,1.02121 -1.22911,1.02121c-0.69036,0 -1.25,-0.55964 -1.25,-1.25c0,-0.69036 0.55964,-1.25 1.25,-1.25c0.39542,0 0.74797,0.18361 0.97702,0.47022c0.00706,-0.12706 0.02768,-0.25051 0.06044,-0.36892c-0.21105,-0.28911 -0.3356,-0.64537 -0.3356,-1.03073c0,-0.89497 0.67183,-1.63303 1.53868,-1.73737c0.17175,-0.78618 0.87198,-1.37477 1.70968,-1.37477c0.9665,0 1.75,0.7835 1.75,1.75c0,0.29499 -0.07299,0.57293 -0.20189,0.81675c0.26379,-0.15939 0.57305,-0.25111 0.90374,-0.25111c0.91821,0 1.67125,0.70717 1.74421,1.60658c0.23118,-0.69598 0.88754,-1.19794 1.66114,-1.19794c0.17965,0 0.35298,0.02707 0.51614,0.07736c0.29969,-0.53389 0.87125,-0.89464 1.52707,-0.89464c0.37512,0 0.72267,0.11803 1.00755,0.31897c0.15877,-0.8031 0.86703,-1.40868 1.71673,-1.40868c0.71767,0 1.33444,0.432 1.60445,1.05015c0.18009,-0.06262 0.37356,-0.09665 0.57498,-0.09665c0.41159,0 0.78999,0.14209 1.08883,0.3799c0.32079,-0.39783 0.81218,-0.65233 1.36302,-0.65233c0.6796,0 1.26873,0.38739 1.55859,0.95339c0.2612,0.07193 0.48815,0.2265 0.65097,0.43383c-0.00619,-0.05985 -0.00936,-0.12059 -0.00936,-0.18208c0,-0.9665 0.7835,-1.75 1.75,-1.75c0.24158,0 0.47173,0.04895 0.68107,0.13748c0.36108,0.15269 0.66024,0.42312 0.84936,0.76317c0.29433,0.1637 0.5365,0.40983 0.69532,0.7072c0.023,-0.06545 0.05129,-0.1284 0.08437,-0.18835c-0.15631,-0.26196 -0.24612,-0.5682 -0.24612,-0.89542c0,-0.9665 0.7835,-1.75 1.75,-1.75c0.9665,0 1.75,0.7835 1.75,1.75c0,0.66175 -0.36731,1.23772 -0.90917,1.53514c-0.01946,0.67334 -0.57142,1.21321 -1.24947,1.21321c-0.41251,0 -0.77835,-0.19982 -1.006,-0.50794c-0.02482,0.12866 -0.06373,0.25231 -0.11507,0.36927c0.35996,0.21943 0.60029,0.61569 0.60029,1.0681c0,0.69036 -0.55964,1.25 -1.25,1.25c-0.69036,0 -1.25,-0.55964 -1.25,-1.25c0,-0.01528 0.00027,-0.03051 0.00082,-0.04566c-0.53172,-0.09048 -0.98172,-0.42082 -1.23474,-0.87577c-0.25375,-0.14113 -0.46874,-0.34354 -0.62496,-0.58722c0.00003,0.00343 0.00004,0.00686 0.00004,0.0103c0,0.69036 -0.55964,1.25 -1.25,1.25c-0.16129,0 -0.31545,-0.03055 -0.45701,-0.08618c-0.23209,0.1137 -0.49305,0.17754 -0.76892,0.17754c-0.41159,0 -0.78999,-0.14209 -1.08883,-0.3799c-0.17679,0.21925 -0.40541,0.39497 -0.66723,0.50854c0.40941,0.2053 0.69043,0.62887 0.69043,1.11806c0,0.69036 -0.55964,1.25 -1.25,1.25c-0.69036,0 -1.25,-0.55964 -1.25,-1.25z" fill="#c8bfb0" stroke="none" stroke-width="0.5"/><path d="M343.74254,177.08189c-0.25148,0 -0.48561,-0.07426 -0.68167,-0.20206c-0.08858,0.01381 -0.17937,0.02099 -0.27183,0.02099c-0.44395,0 -0.84929,-0.16531 -1.15782,-0.43774c-0.30853,0.27243 -0.71387,0.43774 -1.15782,0.43774c-0.9665,0 -1.75,-0.7835 -1.75,-1.75c0,-0.9665 0.7835,-1.75 1.75,-1.75c0.15523,0 0.30574,0.02021 0.44904,0.05815c0.32085,-0.36942 0.79402,-0.603 1.32174,-0.603c0.028,0 0.05585,0.00066 0.08354,0.00196c0.03381,-0.00196 0.05268,-0.00196 0.05268,-0.00196c0.59026,0 1.18052,0 1.77078,0l0.32118,0.04113c0.23199,-0.11358 0.49281,-0.17735 0.76853,-0.17735c0.9665,0 1.75,0.7835 1.75,1.75c0,0.31623 -0.08388,0.61288 -0.2306,0.86889c-0.41466,1.34858 -1.9031,1.13595 -1.9031,1.13595l-0.03846,-0.00646c-0.21768,0.36742 -0.61817,0.61376 -1.07619,0.61376z" fill="#c8bfb0" stroke="none" stroke-width="0.5"/><path d="M340.99418,180.32695c0,-0.69036 0.55964,-1.25 1.25,-1.25c0.69036,0 1.25,0.55964 1.25,1.25c0,0.69036 -0.55964,1.25 -1.25,1.25c-0.69036,0 -1.25,-0.55964 -1.25,-1.25z" fill="#c8bfb0" stroke="none" stroke-width="0.5"/><path d="M350.52916,180.05452c0,-0.69036 0.55964,-1.25 1.25,-1.25c0.69036,0 1.25,0.55964 1.25,1.25c0,0.69036 -0.55964,1.25 -1.25,1.25c-0.69036,0 -1.25,-0.55964 -1.25,-1.25z" fill="#c8bfb0" stroke="none" stroke-width="0.5"/><path d="M356.38636,178.69238c0,-0.69036 0.55964,-1.25 1.25,-1.25c0.69036,0 1.25,0.55964 1.25,1.25c0,0.69036 -0.55964,1.25 -1.25,1.25c-0.69036,0 -1.25,-0.55964 -1.25,-1.25z" fill="#c8bfb0" stroke="none" stroke-width="0.5"/><path d="M345.5806,186.18415c0,-0.41421 0.33579,-0.75 0.75,-0.75c0.41421,0 0.75,0.33579 0.75,0.75c0,0.41421 -0.33579,0.75 -0.75,0.75c-0.41421,0 -0.75,-0.33579 -0.75,-0.75z" fill="#c8bfb0" stroke="none" stroke-width="0.5"/><path d="M347.21517,178.96481c0,-0.41421 0.33579,-0.75 0.75,-0.75c0.41421,0 0.75,0.33579 0.75,0.75c0,0.41421 -0.33579,0.75 -0.75,0.75c-0.41421,0 -0.75,-0.33579 -0.75,-0.75z" fill="#c8bfb0" stroke="none" stroke-width="0.5"/><path d="M350.07566,182.91502c0,-0.41421 0.33579,-0.75 0.75,-0.75c0.41421,0 0.75,0.33579 0.75,0.75c0,0.41421 -0.33579,0.75 -0.75,0.75c-0.41421,0 -0.75,-0.33579 -0.75,-0.75z" fill="#c8bfb0" stroke="none" stroke-width="0.5"/><path d="M351.71023,183.7323c0,-0.41421 0.33579,-0.75 0.75,-0.75c0.41421,0 0.75,0.33579 0.75,0.75c0,0.41421 -0.33579,0.75 -0.75,0.75c-0.41421,0 -0.75,-0.33579 -0.75,-0.75z" fill="#c8bfb0" stroke="none" stroke-width="0.5"/><path d="M355.52422,188.09115c0,-0.41421 0.33579,-0.75 0.75,-0.75c0.41421,0 0.75,0.33579 0.75,0.75c0,0.41421 -0.33579,0.75 -0.75,0.75c-0.41421,0 -0.75,-0.33579 -0.75,-0.75z" fill="#c8bfb0" stroke="none" stroke-width="0.5"/><path d="M356.88636,182.50638c0,-0.41421 0.33579,-0.75 0.75,-0.75c0.41421,0 0.75,0.33579 0.75,0.75c0,0.41421 -0.33579,0.75 -0.75,0.75c-0.41421,0 -0.75,-0.33579 -0.75,-0.75z" fill="#c8bfb0" stroke="none" stroke-width="0.5"/><path d="M366.0127,181.00802c0,-0.41421 0.33579,-0.75 0.75,-0.75c0.41421,0 0.75,0.33579 0.75,0.75c0,0.41421 -0.33579,0.75 -0.75,0.75c-0.41421,0 -0.75,-0.33579 -0.75,-0.75z" fill="#c8bfb0" stroke="none" stroke-width="0.5"/><path d="M368.32834,180.87181c0,-0.41421 0.33579,-0.75 0.75,-0.75c0.41421,0 0.75,0.33579 0.75,0.75c0,0.41421 -0.33579,0.75 -0.75,0.75c-0.41421,0 -0.75,-0.33579 -0.75,-0.75z" fill="#c8bfb0" stroke="none" stroke-width="0.5"/><path d="M351.25108,179.714c-0.15811,-0.47434 0.31623,-0.63246 0.31623,-0.63246l0.41627,-0.11023c0.40908,-0.63437 -0.00588,-1.48659 -0.00929,-2.22369c0.07293,-1.41672 -2.00478,-3.33376 -2.24177,-4.98551c-0.12335,-0.85972 -0.00487,-1.85756 0.79395,-2.36685c0.41452,-0.26428 1.44045,-0.07186 1.45081,-0.75254c0.02194,-1.44223 -0.85031,-2.49015 -0.35176,-4.03512c0,0 0.15811,-0.47434 0.63246,-0.31623c0.47434,0.15811 0.31623,0.63246 0.31623,0.63246c-0.48577,1.39827 0.628,2.53743 0.39711,3.82801c-0.34551,1.93123 -2.56336,0.72238 -2.24845,2.87157c0.27366,1.86769 2.19824,3.37218 2.25144,5.12422c-0.00714,1.31149 0.4134,1.83739 -0.38372,3.01839l-0.70703,0.26421c0,0 -0.47434,0.15811 -0.63246,-0.31623z" fill="#928673" stroke="none" stroke-width="0.5"/><path d="M365.6794,189.82373c-0.15811,0.47434 -0.63246,0.31623 -0.63246,0.31623l-0.6664,-0.23623c-0.94727,-1.00562 -0.49161,-3.91601 0.4345,-5.04419c0.35065,-0.42716 1.51471,-0.73232 1.82136,-1.23359c0.73917,-1.20829 1.08369,-4.19597 1.4535,-5.68907c0.40522,-1.62087 1.64197,-2.78554 2.05784,-4.2996c0.3845,-1.39985 0.35131,-3.24328 0.96077,-4.56968c0.49045,-1.06738 1.97495,-0.92155 2.72943,-1.65995c0.81647,-0.79907 1.15057,-3.00938 1.55869,-4.09307c0.36718,-1.69577 0.16007,-3.557 0.16703,-5.28867c0.00232,-0.57574 -0.40714,-1.57775 -0.12805,-2.1081c1.22662,-2.33101 4.69562,-2.09659 6.52887,-3.36279c0,0 0.41603,-0.27735 0.69338,0.13868c0.27735,0.41603 -0.13868,0.69338 -0.13868,0.69338c-1.93523,1.25602 -4.61134,1.06418 -6.2019,3.0026c-0.34987,0.42639 0.24436,1.08468 0.24638,1.63624c0.00672,1.83658 0.17595,3.77123 -0.2074,5.56993c-0.4839,1.29555 -0.83621,3.53094 -1.81122,4.51892c-0.45166,0.45767 -2.36157,0.78772 -2.51265,1.33553c-0.38126,1.38241 -0.50469,3.03208 -0.9114,4.41675c-0.4583,1.56028 -1.65116,2.67328 -2.06094,4.31239c-0.40864,1.62098 -0.72618,4.54511 -1.54197,5.9184c-0.38246,0.64383 -1.49872,0.88964 -1.92299,1.38746c-0.37696,0.4423 -1.10239,3.23774 -0.68881,3.56781l0.4569,0.1382c0,0 0.47434,0.15811 0.31623,0.63246z" fill="#928673" stroke="none" stroke-width="0.5"/><g><g><path d="M255.36488,149.1708c0,-33.30185 28.7599,-60.29833 64.23702,-60.29833c0.6942,0 6.39419,0.06406 11.4045,-0.96007c4.13158,-0.84452 7.7942,-2.81209 7.7942,-2.81209c0,0 -0.42334,3.55898 1.59638,6.94613c1.38153,2.31688 5.67987,6.7649 5.67987,6.7649c0,0 -1.4835,6.66556 -0.36813,11.39897c0.63361,2.68891 4.54644,8.66297 4.54644,8.66297c0,0 -3.69052,4.94204 -3.27714,7.45426c0.72472,4.40426 4.17219,11.93091 4.17219,11.93091c0,0 -8.51806,4.34721 -8.75602,7.92156c-0.62989,9.46142 5.77604,17.3082 5.77604,17.3082c0,0 -9.82299,8.80153 -10.81453,13.83812c-1.51139,7.67726 7.32126,16.11386 7.32126,16.11386c0,0 -5.74206,5.31865 -5.47312,7.69099c1.12104,9.88883 7.72159,15.95097 7.72159,15.95097c0,0 -25.22527,-7.61302 -27.62281,-7.61302c-35.47712,0 -63.93774,-26.99649 -63.93774,-60.29834z" fill="#e00d0d" stroke="#000000" stroke-width="0"/><g fill="#c10c0c"><path d="M255.36488,149.1708c0,-33.30185 28.7599,-60.29833 64.23702,-60.29833c0.6942,0 6.39419,0.06406 11.4045,-0.96007c4.13158,-0.84452 7.7942,-2.81209 7.7942,-2.81209c0,0 -0.42334,3.55898 1.59638,6.94613c1.38153,2.31688 5.67987,6.7649 5.67987,6.7649c0,0 -1.4835,6.66556 -0.36813,11.39897c0.63361,2.68891 4.54644,8.66297 4.54644,8.66297c0,0 -3.69052,4.94204 -3.27714,7.45426c0.72472,4.40426 4.17219,11.93091 4.17219,11.93091c0,0 -8.51806,4.34721 -8.75602,7.92156c-0.62989,9.46142 5.77604,17.3082 5.77604,17.3082c0,0 -6.52952,5.85053 -9.47885,10.74125c-0.04899,0.08122 -78.44642,-1.86108 -78.45639,-1.88375c-3.13956,-7.13476 -4.8701,-14.96314 -4.8701,-23.17492z" stroke="#000000" stroke-width="0"/><path d="M263.80631,172.67318c0,-0.14675 0.01806,-0.28929 0.05209,-0.42551c-0.26499,0.6296 -0.88771,1.07165 -1.61367,1.07165c-0.9665,0 -1.75,-0.7835 -1.75,-1.75c0,-0.9665 0.7835,-1.75 1.75,-1.75c0.9665,0 1.75,0.7835 1.75,1.75c0,0.14675 -0.01806,0.28929 -0.05209,0.42551c0.26499,-0.6296 0.88771,-1.07165 1.61367,-1.07165c0.5841,0 1.10137,0.28617 1.41925,0.72595c0.31788,-0.43978 0.83514,-0.72595 1.41925,-0.72595c0.9665,0 1.75,0.7835 1.75,1.75c0,0.9665 -0.7835,1.75 -1.75,1.75c-0.5841,0 -1.10137,-0.28617 -1.41925,-0.72595c-0.31788,0.43978 -0.83514,0.72595 -1.41925,0.72595c-0.9665,0 -1.75,-0.7835 -1.75,-1.75z" stroke="none" stroke-width="0.5"/><path d="M270.79869,174.56551c0,-0.19712 0.07605,-0.37649 0.20041,-0.51035c-0.16132,-0.26491 -0.25424,-0.57606 -0.25424,-0.9089c0,-0.71488 0.42865,-1.32964 1.04294,-1.60128c0.32101,-0.38027 0.80122,-0.6218 1.33783,-0.6218c0.9665,0 1.75,0.7835 1.75,1.75c0,0.63256 -0.33562,1.18674 -0.8385,1.49417c0.01516,0.07782 0.02311,0.15821 0.02311,0.24047c0,0.69036 -0.55964,1.25 -1.25,1.25c-0.37084,0 -0.70396,-0.16149 -0.93288,-0.41797c-0.09925,0.04847 -0.21079,0.07567 -0.32868,0.07567c-0.41421,0 -0.75,-0.33579 -0.75,-0.75z" stroke="none" stroke-width="0.5"/><path d="M289.98736,173.61934c0,0.69036 -0.55964,1.25 -1.25,1.25c-0.07696,0 -0.15229,-0.00695 -0.22541,-0.02027c-0.03247,0.0077 -0.0653,0.0145 -0.09845,0.02036c-0.28621,0.57664 -0.88106,0.97299 -1.56847,0.97299c-0.3034,0 -0.58876,-0.07721 -0.83752,-0.21305c-0.08583,0.01863 -0.17494,0.02844 -0.26634,0.02844c-0.69036,0 -1.25,-0.55964 -1.25,-1.25c0,-0.16755 0.03296,-0.32739 0.09276,-0.47341c-0.06556,-0.10186 -0.12083,-0.21096 -0.16437,-0.32584c-0.17144,-0.27056 -0.2707,-0.59138 -0.2707,-0.93539c0,-0.9665 0.7835,-1.75 1.75,-1.75c0.56293,0 1.06378,0.26579 1.3839,0.67873c0.24551,-0.13124 0.52598,-0.20565 0.82382,-0.20565c0.9368,0 1.70168,0.73609 1.7478,1.66144c0.08507,0.16886 0.13298,0.35966 0.13298,0.56164z" stroke="none" stroke-width="0.5"/><path d="M334.2956,174.09243c0,-0.60416 0.30616,-1.13682 0.7718,-1.45129c0.31447,-0.46564 0.84712,-0.7718 1.45129,-0.7718c0.9665,0 1.75,0.7835 1.75,1.75c0,0.60416 -0.30616,1.13682 -0.7718,1.45129c-0.31447,0.46564 -0.84712,0.7718 -1.45129,0.7718c-0.9665,0 -1.75,-0.7835 -1.75,-1.75z" stroke="none" stroke-width="0.5"/><path d="M275.94876,172.98857c0,-0.9665 0.7835,-1.75 1.75,-1.75c0.9665,0 1.75,0.7835 1.75,1.75c0,0.9665 -0.7835,1.75 -1.75,1.75c-0.9665,0 -1.75,-0.7835 -1.75,-1.75z" stroke="none" stroke-width="0.5"/><path d="M304.33752,175.19629c0,0.69036 -0.55964,1.25 -1.25,1.25c-0.46682,0 -0.87387,-0.2559 -1.08853,-0.63506c-0.10709,0.02048 -0.21765,0.03121 -0.33072,0.03121c-0.05059,0 -0.10067,-0.00215 -0.15017,-0.00635c-0.08394,0.8883 -0.83189,1.58329 -1.74216,1.58329c-0.39897,0 -0.76675,-0.13351 -1.06112,-0.35829c-0.06526,0.01052 -0.13221,0.01598 -0.20044,0.01598c-0.48664,0 -0.90833,-0.27809 -1.11483,-0.68402c-0.13401,0.18133 -0.30221,0.33586 -0.49508,0.45407c-0.10859,0.57971 -0.61736,1.01842 -1.22859,1.01842c-0.69036,0 -1.25,-0.55964 -1.25,-1.25c0,-0.13025 0.01992,-0.25585 0.05689,-0.37392c-0.05005,-0.08488 -0.09315,-0.17435 -0.12849,-0.26763c-0.17144,-0.27056 -0.2707,-0.59138 -0.2707,-0.93539c0,-0.0542 0.00246,-0.10782 0.00729,-0.16077l-0.65632,0.08339c0.01449,0.07614 0.02207,0.15472 0.02207,0.23507c0,0.69036 -0.55964,1.25 -1.25,1.25c-0.69036,0 -1.25,-0.55964 -1.25,-1.25c0,-0.11519 0.01558,-0.22675 0.04475,-0.33267c-0.42645,-0.31916 -0.70245,-0.82833 -0.70245,-1.40196c0,-0.9665 0.7835,-1.75 1.75,-1.75c0.58504,0 1.10302,0.28708 1.42077,0.72805l0.55158,-0.06795c0.44641,-0.00081 0.89282,-0.00161 1.33923,-0.00242c0,0 1.14614,0 1.24343,1.09749c0.00929,0.00456 0.01853,0.0092 0.02773,0.01393c0.14075,-0.82539 0.85951,-1.45372 1.72502,-1.45372c0.26023,0 0.50719,0.0568 0.72917,0.15868c0.01969,-0.00066 0.03946,-0.00099 0.0593,-0.00099c0.38271,0 0.73673,0.12285 1.02477,0.33127c0.07743,-0.01047 0.15648,-0.01588 0.23678,-0.01588c0.14787,0 0.29145,0.01834 0.4286,0.05287c0.18189,-0.09862 0.38321,-0.16595 0.59676,-0.19476c0.28802,-0.20837 0.642,-0.33119 1.02466,-0.33119c0.9665,0 1.75,0.7835 1.75,1.75c0,0.23266 -0.0454,0.45472 -0.12783,0.6578c0.16218,0.21084 0.25861,0.47488 0.25861,0.76145z" stroke="none" stroke-width="0.5"/><path d="M311.90684,175.82706c0,0.69036 -0.55964,1.25 -1.25,1.25c-0.57575,0 -1.06058,-0.38925 -1.20569,-0.91895c-0.28384,0.19858 -0.62933,0.31509 -1.00203,0.31509c-0.54083,0 -1.02435,-0.24533 -1.34536,-0.63078h-0.70466c0,0 -1.75,0 -1.75,-1.75c0,-1.75 1.75,-1.75 1.75,-1.75h2.83849c0,0 0.86654,0 1.38009,0.60977c0.23459,-0.09486 0.43427,-0.10734 0.43427,-0.10734c1.45879,-0.0899 2.86045,-0.27488 4.26339,-0.50826c0.16482,-0.08005 0.34987,-0.12495 0.54541,-0.12495c0.04684,0 0.09307,0.00258 0.13857,0.00759c0.76099,-0.13427 1.52514,-0.28051 2.30173,-0.4313l0.94841,-0.18415c0,0 1.22708,-0.23826 1.46534,0.98882c0.02182,0.11237 0.03135,0.21645 0.03066,0.31281c0.18465,0.25348 0.30286,0.55846 0.32905,0.88934c0.14132,-0.82472 0.85976,-1.45234 1.72479,-1.45234c0.9665,0 1.75,0.7835 1.75,1.75c0,0.9665 -0.7835,1.75 -1.75,1.75c-0.15857,0 -0.31222,-0.02109 -0.45829,-0.06062c0.00038,0.01504 0.00057,0.03013 0.00057,0.04526c0,0.9665 -0.7835,1.75 -1.75,1.75c-0.9665,0 -1.75,-0.7835 -1.75,-1.75c0,-0.07035 0.00415,-0.13973 0.01222,-0.20791c-0.19957,-0.05631 -0.38466,-0.14713 -0.54844,-0.26561c-0.51857,-0.06996 -0.96508,-0.36706 -1.23612,-0.78786c-0.12259,0.0224 -0.24505,0.04456 -0.3674,0.06643c0.51075,0.15711 0.88199,0.63267 0.88199,1.19495c0,0.69036 -0.55964,1.25 -1.25,1.25c-0.06158,0 -0.12212,-0.00445 -0.18132,-0.01305c-0.31673,0.31698 -0.75443,0.51305 -1.23793,0.51305c-0.9665,0 -1.75,-0.7835 -1.75,-1.75c0,-0.24062 0.04856,-0.46991 0.13643,-0.67858c-0.49957,0.05896 -1.00254,0.1095 -1.51113,0.14992c0.07505,0.16057 0.11697,0.33972 0.11697,0.52866z" stroke="none" stroke-width="0.5"/><path d="M271.24486,178.03478c0,-0.69036 0.55964,-1.25 1.25,-1.25c0.69036,0 1.25,0.55964 1.25,1.25c0,0.69036 -0.55964,1.25 -1.25,1.25c-0.69036,0 -1.25,-0.55964 -1.25,-1.25z" stroke="none" stroke-width="0.5"/><path d="M282.90267,172.68473c0.69036,0 1.25,0.55964 1.25,1.25c0,0.69036 -0.55964,1.25 -1.25,1.25c-0.39021,0 -0.73867,-0.1788 -0.9679,-0.45895c-0.07867,0.61466 -0.60377,1.08972 -1.23982,1.08972c-0.69036,0 -1.25,-0.55964 -1.25,-1.25c0,-0.69036 0.55964,-1.25 1.25,-1.25c0.39021,0 0.73867,0.1788 0.9679,0.45895c0.07867,-0.61466 0.60377,-1.08972 1.23982,-1.08972z" stroke="none" stroke-width="0.5"/><path d="M300.76058,179.45403c0,-0.3218 0.20267,-0.59627 0.48734,-0.70272c-0.22058,-0.2254 -0.35656,-0.53393 -0.35656,-0.87422c0,-0.69036 0.55964,-1.25 1.25,-1.25c0.69036,0 1.25,0.55964 1.25,1.25c0,0.67562 -0.536,1.22604 -1.20597,1.24924c0.04817,0.09901 0.07519,0.2102 0.07519,0.3277c0,0.41421 -0.33579,0.75 -0.75,0.75c-0.41421,0 -0.75,-0.33579 -0.75,-0.75z" stroke="none" stroke-width="0.5"/><path d="M308.93376,178.35017c0,-0.69036 0.55964,-1.25 1.25,-1.25c0.69036,0 1.25,0.55964 1.25,1.25c0,0.69036 -0.55964,1.25 -1.25,1.25c-0.69036,0 -1.25,-0.55964 -1.25,-1.25z" stroke="none" stroke-width="0.5"/><path d="M331.51428,176.63239c0.03816,-0.00351 0.07682,-0.0053 0.11589,-0.0053c0.69036,0 1.25,0.55964 1.25,1.25c0,0.69036 -0.55964,1.25 -1.25,1.25c-0.69036,0 -1.25,-0.55964 -1.25,-1.25c0,-0.32315 0.12263,-0.61767 0.32389,-0.83954c-0.25356,-0.04703 -0.46233,-0.22162 -0.55725,-0.45469c-0.1312,0.03141 -0.26814,0.04805 -0.40897,0.04805c-0.81034,0 -1.49203,-0.55077 -1.69117,-1.29838c-0.11583,0.02414 -0.23586,0.03683 -0.35885,0.03683c-0.9665,0 -1.75,-0.7835 -1.75,-1.75c0,-0.9665 0.7835,-1.75 1.75,-1.75c0.46783,0 0.89279,0.18358 1.20677,0.48263c0.30922,0.16083 0.54275,0.44712 0.63313,0.79141c0.06889,-0.00824 0.13901,-0.01249 0.21013,-0.01249c0.45599,0 0.87125,0.1744 1.18271,0.46014c0.31146,-0.28574 0.72672,-0.46014 1.18271,-0.46014c0.9665,0 1.75,0.7835 1.75,1.75c0,0.9665 -0.7835,1.75 -1.75,1.75c-0.19269,0 -0.3781,-0.03114 -0.55148,-0.08867c-0.01057,0.03102 -0.02312,0.06112 -0.03749,0.09016z" stroke="none" stroke-width="0.5"/><path d="M281.04881,179.61172c0,-0.40405 0.31951,-0.73348 0.71966,-0.7494c-0.05671,-0.10555 -0.08888,-0.22625 -0.08888,-0.35446c0,-0.41421 0.33579,-0.75 0.75,-0.75c0.41421,0 0.75,0.33579 0.75,0.75c0,0.40405 -0.31951,0.73348 -0.71966,0.7494c0.05671,0.10555 0.08888,0.22625 0.08888,0.35446c0,0.41421 -0.33579,0.75 -0.75,0.75c-0.41421,0 -0.75,-0.33579 -0.75,-0.75z" stroke="none" stroke-width="0.5"/><path d="M275.52952,180.71558c0,-0.41421 0.33579,-0.75 0.75,-0.75c0.41421,0 0.75,0.33579 0.75,0.75c0,0.41421 -0.33579,0.75 -0.75,0.75c-0.41421,0 -0.75,-0.33579 -0.75,-0.75z" stroke="none" stroke-width="0.5"/><path d="M302.81061,183.39638c0,-0.41421 0.33579,-0.75 0.75,-0.75c0.41421,0 0.75,0.33579 0.75,0.75c0,0.41421 -0.33579,0.75 -0.75,0.75c-0.41421,0 -0.75,-0.33579 -0.75,-0.75z" stroke="none" stroke-width="0.5"/><path d="M318.73772,180.55789c0,-0.41421 0.33579,-0.75 0.75,-0.75c0.41421,0 0.75,0.33579 0.75,0.75c0,0.41421 -0.33579,0.75 -0.75,0.75c-0.41421,0 -0.75,-0.33579 -0.75,-0.75z" stroke="none" stroke-width="0.5"/></g><g fill="#b70b0b"><path d="M255.36488,149.1708c0,-33.30185 28.7599,-60.29833 64.23702,-60.29833c0.6942,0 6.39419,0.06406 11.4045,-0.96007c4.13158,-0.84452 7.7942,-2.81209 7.7942,-2.81209c0,0 -0.42334,3.55898 1.59638,6.94613c1.38153,2.31688 5.67987,6.7649 5.67987,6.7649c0,0 -1.4835,6.66556 -0.36813,11.39897c0.63361,2.68891 4.54644,8.66297 4.54644,8.66297c0,0 -3.69052,4.94204 -3.27714,7.45426c0.72472,4.40426 4.17219,11.93091 4.17219,11.93091c0,0 -8.51806,4.34721 -8.75602,7.92156c-0.22737,3.41533 0.46204,6.62028 1.43599,9.3217c0.03609,0.10008 -88.18419,-0.61316 -88.21598,-0.95432c-0.16506,-1.77131 -0.24932,-3.56462 -0.24932,-5.3766z" stroke="#000000" stroke-width="0"/><path d="M258.93316,151.84219c0.70972,0 1.32076,0.42248 1.59535,1.02967c0.29161,0.31262 0.47004,0.73218 0.47004,1.19341c0,0.9665 -0.7835,1.75 -1.75,1.75c-0.33468,0 -0.64742,-0.09395 -0.91328,-0.25692c-0.32009,0.35161 -0.78149,0.57231 -1.29444,0.57231c-0.9665,0 -1.43461,-0.7835 -1.43461,-1.75c0,-0.9665 0.46811,-1.75 1.43461,-1.75c0.13783,0 0.27194,0.01593 0.40059,0.04606c0.30792,-0.50068 0.86084,-0.83453 1.49174,-0.83453z" stroke="none" stroke-width="0.5"/><path d="M271.2333,154.7076c0.69036,0 1.25,0.55964 1.25,1.25c0,0.69036 -0.55964,1.25 -1.25,1.25c-0.4448,0 -0.83533,-0.23232 -1.05688,-0.58224c-0.20845,0.08764 -0.43744,0.13608 -0.67775,0.13608c-0.9665,0 -1.75,-0.7835 -1.75,-1.75c0,-0.9665 0.7835,-1.75 1.75,-1.75c0.86289,0 1.57991,0.62452 1.72373,1.44621c0.00363,-0.00003 0.00727,-0.00005 0.01091,-0.00005z" stroke="none" stroke-width="0.5"/><path d="M262.22937,153.43449c0,-0.9665 0.7835,-1.75 1.75,-1.75c0.9665,0 1.75,0.7835 1.75,1.75c0,0.9665 -0.7835,1.75 -1.75,1.75c-0.9665,0 -1.75,-0.7835 -1.75,-1.75z" stroke="none" stroke-width="0.5"/><path d="M307.18757,157.68068c-0.31234,0 -0.59791,-0.11455 -0.81702,-0.30394c-0.22983,0.11096 -0.48761,0.17316 -0.75992,0.17316c-0.9665,0 -1.75,-0.7835 -1.75,-1.75c0,-0.9665 0.7835,-1.75 1.75,-1.75c0.68682,0 1.28123,0.39566 1.56773,0.97148c0.07501,-0.89736 0.82711,-1.60226 1.74385,-1.60226c0.41348,0 0.79347,0.1434 1.09294,0.38318c0.15371,-0.04414 0.31609,-0.06779 0.484,-0.06779c0.05315,0 0.10575,0.00237 0.15769,0.00701c0.05194,-0.00464 0.10454,-0.00701 0.15769,-0.00701c0.9665,0 1.75,0.7835 1.75,1.75c0,0.9665 -0.7835,1.75 -1.75,1.75c-0.05315,0 -0.10575,-0.00237 -0.15769,-0.00701c-0.05194,0.00464 -0.10454,0.00701 -0.15769,0.00701c-0.30085,0 -0.58396,-0.07591 -0.83123,-0.20963c-0.1267,0.55614 -0.62427,0.97119 -1.21879,0.97119c-0.34801,0 -0.66281,-0.14222 -0.88944,-0.37171c-0.11754,0.0366 -0.24252,0.05632 -0.37211,0.05632z" stroke="none" stroke-width="0.5"/><path d="M336.81871,155.16913c0,-0.9665 0.7835,-1.75 1.75,-1.75c0.16394,0 0.32261,0.02254 0.47308,0.06469c0.15048,-0.04215 0.30915,-0.06469 0.47308,-0.06469c0.7186,0 1.33603,0.43312 1.60549,1.05254c0.18777,-0.06882 0.39061,-0.10638 0.60222,-0.10638c0.9665,0 1.75,0.7835 1.75,1.75c0,0.9665 -0.7835,1.75 -1.75,1.75c-0.7186,0 -1.33603,-0.43312 -1.60549,-1.05254c-0.18777,0.06882 -0.39061,0.10638 -0.60222,0.10638c-0.16394,0 -0.32261,-0.02254 -0.47308,-0.06469c-0.15048,0.04215 -0.30915,0.06469 -0.47308,0.06469c-0.9665,0 -1.75,-0.7835 -1.75,-1.75z" stroke="none" stroke-width="0.5"/><path d="M330.684,155.18068c0.69036,0 1.25,0.55964 1.25,1.25c0,0.69036 -0.55964,1.25 -1.25,1.25c-0.57575,0 -1.06058,-0.38925 -1.20569,-0.91895c-0.21738,0.15209 -0.47092,0.25603 -0.74515,0.29637c-0.15743,0.19442 -0.35569,0.35442 -0.58172,0.46698c-0.28659,0.57556 -0.88086,0.97099 -1.56748,0.97099c-0.9665,0 -1.75,-0.7835 -1.75,-1.75c0,-0.68662 0.39543,-1.28089 0.97099,-1.56748c0.25017,-0.50241 0.73478,-0.86757 1.31061,-0.95227c0.32083,-0.3962 0.8112,-0.6495 1.36073,-0.6495c0.94665,0 1.71775,0.75166 1.74901,1.69071c0.14202,-0.05605 0.29676,-0.08685 0.4587,-0.08685z" stroke="none" stroke-width="0.5"/><path d="M333.87636,158.6384c0,-0.1406 0.03869,-0.27217 0.10601,-0.38463c-0.0449,-0.08914 -0.07944,-0.18439 -0.10204,-0.28416c-0.75826,-0.19188 -1.31935,-0.87872 -1.31935,-1.69662c0,-0.9665 0.7835,-1.75 1.75,-1.75c0.9665,0 1.75,0.7835 1.75,1.75c0,0.18513 -0.02875,0.36354 -0.08202,0.53101c0.22877,0.22654 0.37049,0.54084 0.37049,0.88823c0,0.61489 -0.44398,1.12609 -1.02886,1.2305c-0.11202,0.27322 -0.38065,0.46567 -0.69423,0.46567c-0.41421,0 -0.75,-0.33579 -0.75,-0.75z" stroke="none" stroke-width="0.5"/><path d="M319.49927,157.37685c0,-0.10812 0.01373,-0.21304 0.03954,-0.3131c-0.3325,-0.31854 -0.53954,-0.76701 -0.53954,-1.26384c0,-0.08022 0.0054,-0.15918 0.01585,-0.23654c-0.01045,-0.07736 -0.01585,-0.15632 -0.01585,-0.23654c0,-0.9665 0.7835,-1.75 1.75,-1.75c0.9665,0 1.75,0.7835 1.75,1.75c0,0.08022 -0.0054,0.15918 -0.01585,0.23654c0.01045,0.07736 0.01585,0.15632 0.01585,0.23654c0,0.08845 -0.00656,0.17537 -0.01923,0.2603c0.45785,0.18555 0.78078,0.63454 0.78078,1.15895c0,0.59141 -0.41072,1.08689 -0.96248,1.21677c0.01073,0.0659 0.01631,0.13354 0.01631,0.20247c0,0.69036 -0.55964,1.25 -1.25,1.25c-0.69036,0 -1.25,-0.55964 -1.25,-1.25c0,-0.12959 0.01972,-0.25457 0.05632,-0.37211c-0.22949,-0.22663 -0.37171,-0.54143 -0.37171,-0.88944z" stroke="none" stroke-width="0.5"/><path d="M315.70306,154.2076c0.9665,0 1.75,0.7835 1.75,1.75c0,0.9665 -0.7835,1.75 -1.75,1.75c-0.30154,0 -0.58527,-0.07627 -0.83295,-0.21056c-0.13715,0.03453 -0.28074,0.05287 -0.4286,0.05287c-0.9665,0 -1.75,-0.7835 -1.75,-1.75c0,-0.9665 0.7835,-1.75 1.75,-1.75c0.30154,0 0.58527,0.07627 0.83295,0.21056c0.13715,-0.03453 0.28074,-0.05287 0.4286,-0.05287z" stroke="none" stroke-width="0.5"/><path d="M300.05286,157.53454c0,0.23267 -0.10595,0.44059 -0.27223,0.57816c-0.20868,0.39931 -0.62679,0.67184 -1.10855,0.67184c-0.48014,0 -0.89706,-0.27071 -1.10644,-0.66783c-0.14971,0.04169 -0.3075,0.06397 -0.4705,0.06397c-0.94595,0 -1.7166,-0.75054 -1.74894,-1.68861c-0.19174,0.07218 -0.39949,0.11167 -0.61647,0.11167c-0.59785,0 -1.12569,-0.2998 -1.44136,-0.75726c-0.16674,0.79281 -0.87012,1.38803 -1.71252,1.38803c-0.13949,0 -0.27516,-0.01632 -0.40522,-0.04715c-0.2446,0.67151 -0.88871,1.15101 -1.6448,1.15101c-0.77125,0 -1.42597,-0.49891 -1.65902,-1.1916c-0.17258,0.05694 -0.35704,0.08774 -0.5487,0.08774c-0.25307,0 -0.4936,-0.05372 -0.71079,-0.15037c-0.32102,0.38123 -0.80184,0.62346 -1.33923,0.62346c-0.55091,0 -1.04237,-0.25457 -1.36315,-0.65249c-0.18493,0.45917 -0.63459,0.78327 -1.15995,0.78327c-0.42341,0 -0.79766,-0.21052 -1.02377,-0.5326c-0.16739,0.49314 -0.63423,0.84799 -1.18395,0.84799c-0.69036,0 -1.25,-0.55964 -1.25,-1.25c0,-0.17841 0.03738,-0.34809 0.10473,-0.50164c-0.19805,0.15154 -0.42942,0.26172 -0.68121,0.31766c-0.24611,0.66862 -0.88876,1.1455 -1.64279,1.1455c-0.54152,0 -1.02559,-0.24596 -1.34659,-0.63226c-0.0241,0.00098 -0.04832,0.00148 -0.07266,0.00148c-0.83395,0 -1.53165,-0.58333 -1.70734,-1.36422c-0.49879,-0.30833 -0.83113,-0.86017 -0.83113,-1.48964c0,-0.9665 0.7835,-1.75 1.75,-1.75c0.83395,0 1.53165,0.58333 1.70734,1.36422c0.08139,0.05031 0.15834,0.1071 0.23014,0.16966c0.29838,-0.53853 0.87251,-0.9031 1.53179,-0.9031c0.9665,0 1.75,0.7835 1.75,1.75c0,0.3033 -0.07716,0.58857 -0.21291,0.83727c0.19378,-0.12343 0.42385,-0.19494 0.67063,-0.19494c0.42341,0 0.79766,0.21052 1.02377,0.5326c0.16739,-0.49314 0.63423,-0.84799 1.18395,-0.84799c0.30598,0 0.58628,0.10994 0.80356,0.29247c0.15304,-0.81034 0.86472,-1.42325 1.71955,-1.42325c0.25307,0 0.4936,0.05372 0.71079,0.15037c0.32102,-0.38123 0.80184,-0.62346 1.33923,-0.62346c0.51116,0 0.97113,0.21915 1.29108,0.56863c-0.02937,-0.12711 -0.04489,-0.25953 -0.04489,-0.39557c0,-0.9665 0.7835,-1.75 1.75,-1.75c0.93129,0 1.69267,0.72745 1.74691,1.64512c0.39302,0.11322 0.72925,0.36047 0.95601,0.68908c0.16674,-0.79281 0.87012,-1.38803 1.71252,-1.38803c0.94595,0 1.7166,0.75054 1.74894,1.68861c0.16341,-0.06152 0.33846,-0.09929 0.52094,-0.10911c0.02367,-0.02229 0.04796,-0.04392 0.07285,-0.06488c-0.09666,-0.2172 -0.15037,-0.45772 -0.15037,-0.71079c0,-0.9665 0.7835,-1.75 1.75,-1.75c0.67676,0 1.2638,0.38416 1.55494,0.9463c0.00732,-0.00009 0.01466,-0.00014 0.022,-0.00014c0.11016,0 0.21794,0.01018 0.32246,0.02965c0.28567,-0.57817 0.88133,-0.97581 1.56987,-0.97581c0.9665,0 1.75,0.7835 1.75,1.75c0,0.9665 -0.7835,1.75 -1.75,1.75c-0.11016,0 -0.21794,-0.01018 -0.32246,-0.02965c-0.28567,0.57817 -0.88133,0.97581 -1.56987,0.97581c-0.13949,0 -0.27516,-0.01632 -0.40522,-0.04715c-0.03594,0.09867 -0.08051,0.19319 -0.13279,0.28266c0.02525,0.03765 0.0485,0.07674 0.06961,0.11714c0.16628,0.13757 0.27223,0.34549 0.27223,0.57816z" stroke="none" stroke-width="0.5"/><path d="M292.84896,159.42687c0,-0.69036 0.55964,-1.25 1.25,-1.25c0.69036,0 1.25,0.55964 1.25,1.25c0,0.69036 -0.55964,1.25 -1.25,1.25c-0.69036,0 -1.25,-0.55964 -1.25,-1.25z" stroke="none" stroke-width="0.5"/><path d="M331.32633,160.68842c0,-0.69036 0.55964,-1.25 1.25,-1.25c0.69036,0 1.25,0.55964 1.25,1.25c0,0.69036 -0.55964,1.25 -1.25,1.25c-0.69036,0 -1.25,-0.55964 -1.25,-1.25z" stroke="none" stroke-width="0.5"/><path d="M262.28321,160.21534c0,-0.41421 0.33579,-0.75 0.75,-0.75c0.41421,0 0.75,0.33579 0.75,0.75c0,0.41421 -0.33579,0.75 -0.75,0.75c-0.41421,0 -0.75,-0.33579 -0.75,-0.75z" stroke="none" stroke-width="0.5"/><path d="M274.26796,161.79228c0,-0.41421 0.33579,-0.75 0.75,-0.75c0.41421,0 0.75,0.33579 0.75,0.75c0,0.41421 -0.33579,0.75 -0.75,0.75c-0.41421,0 -0.75,-0.33579 -0.75,-0.75z" stroke="none" stroke-width="0.5"/><path d="M282.31037,160.21534c0,-0.41421 0.33579,-0.75 0.75,-0.75c0.41421,0 0.75,0.33579 0.75,0.75c0,0.41421 -0.33579,0.75 -0.75,0.75c-0.41421,0 -0.75,-0.33579 -0.75,-0.75z" stroke="none" stroke-width="0.5"/><path d="M279.94495,158.95379c0,-0.41421 0.33579,-0.75 0.75,-0.75c0.41421,0 0.75,0.33579 0.75,0.75c0,0.41421 -0.33579,0.75 -0.75,0.75c-0.41421,0 -0.75,-0.33579 -0.75,-0.75z" stroke="none" stroke-width="0.5"/><path d="M298.39517,161.16151c0,-0.41421 0.33579,-0.75 0.75,-0.75c0.41421,0 0.75,0.33579 0.75,0.75c0,0.41421 -0.33579,0.75 -0.75,0.75c-0.41421,0 -0.75,-0.33579 -0.75,-0.75z" stroke="none" stroke-width="0.5"/><path d="M294.7682,162.73845c0,-0.41421 0.33579,-0.75 0.75,-0.75c0.41421,0 0.75,0.33579 0.75,0.75c0,0.41421 -0.33579,0.75 -0.75,0.75c-0.41421,0 -0.75,-0.33579 -0.75,-0.75z" stroke="none" stroke-width="0.5"/><path d="M314.47997,160.37303c0,-0.41421 0.33579,-0.75 0.75,-0.75c0.41421,0 0.75,0.33579 0.75,0.75c0,0.41421 -0.33579,0.75 -0.75,0.75c-0.41421,0 -0.75,-0.33579 -0.75,-0.75z" stroke="none" stroke-width="0.5"/><path d="M316.84539,164.63078c0,-0.41421 0.33579,-0.75 0.75,-0.75c0.41421,0 0.75,0.33579 0.75,0.75c0,0.41421 -0.33579,0.75 -0.75,0.75c-0.41421,0 -0.75,-0.33579 -0.75,-0.75z" stroke="none" stroke-width="0.5"/><path d="M326.93781,161.47689c0,-0.41421 0.33579,-0.75 0.75,-0.75c0.41421,0 0.75,0.33579 0.75,0.75c0,0.41421 -0.33579,0.75 -0.75,0.75c-0.41421,0 -0.75,-0.33579 -0.75,-0.75z" stroke="none" stroke-width="0.5"/></g><g fill="#a50a0a"><path d="M259.51171,127.8109c9.18629,-22.75897 32.62537,-38.93842 60.09019,-38.93842c0.6942,0 6.39419,0.06406 11.4045,-0.96007c4.13158,-0.84452 7.7942,-2.81209 7.7942,-2.81209c0,0 -0.42334,3.55898 1.59638,6.94613c1.38153,2.31688 5.67987,6.7649 5.67987,6.7649c0,0 -1.4835,6.66556 -0.36813,11.39897c0.63361,2.68891 4.54644,8.66297 4.54644,8.66297c0,0 -3.69052,4.94204 -3.27714,7.45426c0.07796,0.47377 0.41777,2.13538 0.55106,2.66816c0.16363,0.65406 -88.23565,-0.64401 -88.01737,-1.18481z" stroke="#000000" stroke-width="0"/><path d="M264.76785,126.76882c0.9665,0 1.75,0.7835 1.75,1.75c0,0.9665 -0.7835,1.75 -1.75,1.75c-0.69427,0 -1.29412,-0.40429 -1.57695,-0.99029c-0.28283,0.58599 -0.88267,0.99029 -1.57694,0.99029c-0.9665,0 -1.75,-0.7835 -1.75,-1.75c0,-0.9665 0.7835,-1.75 1.75,-1.75c0.69427,0 1.29411,0.40429 1.57694,0.99029c0.28283,-0.58599 0.88268,-0.99029 1.57695,-0.99029z" stroke="none" stroke-width="0.5"/><path d="M279.29107,130.41114c0,0.9665 -0.7835,1.75 -1.75,1.75c-0.80435,0 -1.48196,-0.54267 -1.68668,-1.28186c-0.45258,-0.0694 -0.84805,-0.31219 -1.11647,-0.65842c-0.24551,0.13124 -0.52598,0.20565 -0.82382,0.20565c-0.1608,0 -0.31654,-0.02169 -0.46444,-0.0623c-0.27912,0.5958 -0.88416,1.00847 -1.58558,1.00847c-0.92596,0 -1.68395,-0.71916 -1.74591,-1.6294c-0.31765,0.32431 -0.76047,0.52554 -1.25028,0.52554c-0.08022,0 -0.15918,-0.0054 -0.23654,-0.01585c-0.07736,0.01045 -0.15632,0.01585 -0.23654,0.01585c-0.9665,0 -1.75,-0.7835 -1.75,-1.75c0,-0.9665 0.7835,-1.75 1.75,-1.75c0.08022,0 0.15918,0.0054 0.23654,0.01585c0.07736,-0.01045 0.15632,-0.01585 0.23654,-0.01585c0.92596,0 1.68396,0.71916 1.74591,1.6294c0.31765,-0.3243 0.76046,-0.52554 1.25028,-0.52554c0.1608,0 0.31654,0.02169 0.46444,0.0623c0.27912,-0.59579 0.88416,-1.00846 1.58558,-1.00846c0.56293,0 1.06378,0.26579 1.38389,0.67873c0.24551,-0.13124 0.52598,-0.20565 0.82382,-0.20565c0.49368,0 0.93962,0.20442 1.25777,0.53324c-0.00765,-0.06643 -0.01159,-0.134 -0.01159,-0.20249c0,-0.9665 0.7835,-1.75 1.75,-1.75c0.9665,0 1.75,0.7835 1.75,1.75c0,0.9665 -0.7835,1.75 -1.75,1.75c-0.03234,0 -0.06448,-0.00088 -0.09639,-0.00261c0.17067,0.27015 0.26945,0.59024 0.26945,0.93341z" stroke="none" stroke-width="0.5"/><path d="M281.15267,128.8342c0,-0.9665 0.7835,-1.75 1.75,-1.75c0.9665,0 1.75,0.7835 1.75,1.75c0,0.9665 -0.7835,1.75 -1.75,1.75c-0.9665,0 -1.75,-0.7835 -1.75,-1.75z" stroke="none" stroke-width="0.5"/><path d="M286.19889,129.14959c0,-0.9665 0.7835,-1.75 1.75,-1.75c0.70362,0 1.31025,0.41525 1.58819,1.01405c0.73091,0.21007 1.26567,0.88365 1.26567,1.68212c0,0.9665 -0.7835,1.75 -1.75,1.75c-0.70362,0 -1.31025,-0.41525 -1.58819,-1.01405c-0.73091,-0.21007 -1.26567,-0.88365 -1.26567,-1.68212z" stroke="none" stroke-width="0.5"/><path d="M309.85301,132.46117c0,-0.21758 0.03971,-0.42587 0.11227,-0.61805c-0.03208,0.00175 -0.06439,0.00263 -0.0969,0.00263c-0.56703,0 -1.07108,-0.26968 -1.39087,-0.68778c-0.26436,-0.06925 -0.50432,-0.19877 -0.70432,-0.37301c-0.29838,0.53853 -0.87251,0.90309 -1.53179,0.90309c-0.9665,0 -1.75,-0.7835 -1.75,-1.75c0,-0.9665 0.7835,-1.75 1.75,-1.75c0.43974,0 0.8416,0.16219 1.14902,0.43001c0.29838,-0.53853 0.87251,-0.90309 1.53179,-0.90309c0.56703,0 1.07108,0.26968 1.39087,0.68778c0.56743,0.14864 1.02245,0.57499 1.21108,1.12507c0.23583,-0.68774 0.88808,-1.18208 1.65579,-1.18208c0.45522,0 0.86984,0.17382 1.18113,0.4587c0.48373,-0.77408 1.49967,-0.77409 1.49967,-0.77409h1.89233c0,0 0.59798,0 1.09484,0.34955c0.22704,-0.11644 0.48287,-0.18471 0.75398,-0.19133c0.31288,-0.47528 0.85118,-0.789 1.46276,-0.789c0.74928,0 1.38858,0.4709 1.63809,1.1329c0.29122,-0.2164 0.65202,-0.34443 1.04271,-0.34443c0.66727,0 1.24731,0.37346 1.54252,0.92276c0.29323,-0.11084 0.53098,-0.12913 0.53098,-0.12913l1.14846,-0.08834c0.30426,-0.51644 0.8661,-0.86298 1.50887,-0.86298c0.55003,0 1.0408,0.25375 1.36161,0.65058c0.25196,-0.65713 0.88879,-1.12366 1.63458,-1.12366c0.7867,0 1.45215,0.5191 1.67252,1.23346c0.30953,-0.27674 0.7181,-0.44499 1.16598,-0.44499c0.74545,0 1.38204,0.4661 1.63423,1.12276c0.08423,-0.01245 0.17041,-0.0189 0.2581,-0.0189c0.13948,0 0.27516,0.01631 0.40522,0.04715c0.2446,-0.6715 0.8887,-1.15101 1.6448,-1.15101c0.02643,0 0.05272,0.00059 0.07885,0.00174c0.02614,-0.00116 0.05242,-0.00174 0.07885,-0.00174c0.50235,0 0.95526,0.21167 1.27442,0.55068c0.31887,-0.42982 0.83009,-0.70838 1.40638,-0.70838c0.48046,0 0.91569,0.19362 1.23194,0.50709c0.11154,-0.0223 0.22691,-0.034 0.34501,-0.034c0.02132,0 0.04254,0.00038 0.06367,0.00114c0.31308,-0.29408 0.73444,-0.47422 1.19788,-0.47422c0.4021,0 0.77252,0.13561 1.06803,0.3636c0.24563,-0.1314 0.52626,-0.20591 0.8243,-0.20591c0.9665,0 1.75,0.7835 1.75,1.75c0,0.9665 -0.7835,1.75 -1.75,1.75c-0.4021,0 -0.77252,-0.13561 -1.06803,-0.3636c-0.24563,0.1314 -0.52626,0.2059 -0.8243,0.2059c-0.02132,0 -0.04254,-0.00038 -0.06368,-0.00113c-0.31308,0.29408 -0.73444,0.47422 -1.19787,0.47422c-0.48046,0 -0.91569,-0.19362 -1.23194,-0.50708c-0.11154,0.0223 -0.22691,0.034 -0.34501,0.034c-0.50235,0 -0.95526,-0.21167 -1.27442,-0.55068c-0.31887,0.42981 -0.83009,0.70838 -1.40638,0.70838c-0.02643,0 -0.05271,-0.00059 -0.07885,-0.00174c-0.02614,0.00116 -0.05243,0.00174 -0.07885,0.00174c-0.13948,0 -0.27516,-0.01632 -0.40522,-0.04716c-0.2446,0.6715 -0.8887,1.15102 -1.6448,1.15102c-0.20975,0 -0.41089,-0.0369 -0.59727,-0.10457c-0.30588,0.26182 -0.70316,0.41996 -1.13737,0.41996c-0.8422,0 -1.54543,-0.59493 -1.7124,-1.38746c-0.20178,0.08121 -0.42218,0.1259 -0.65301,0.1259c-0.81284,0 -1.49624,-0.55417 -1.693,-1.3053c-0.11102,-0.08491 -0.21157,-0.18282 -0.29939,-0.29145c-0.08797,0.22944 -0.22286,0.43565 -0.39293,0.60687c-0.24257,1.19719 -1.58051,1.30011 -1.58051,1.30011l-2.05003,0.15769c0,0 -1.22688,0.09438 -1.7022,-0.90393c-0.19815,0.07786 -0.41395,0.12061 -0.63973,0.12061c-0.39069,0 -0.75149,-0.12803 -1.04271,-0.34443c-0.24951,0.66199 -0.88881,1.1329 -1.63809,1.1329c-0.61158,0 -1.14988,-0.31372 -1.46276,-0.789c-0.38108,-0.0093 -0.73194,-0.14041 -1.01515,-0.35589c-0.4233,0.19872 -0.83367,0.19872 -0.83367,0.19872h-1.89233c0,0 -0.71393,0 -1.22979,-0.456c-0.30381,0.44958 -0.81104,0.75038 -1.38962,0.77033c0.07218,0.19173 0.11167,0.3995 0.11167,0.61647c0,0.9665 -0.7835,1.75 -1.75,1.75c-0.9665,0 -1.75,-0.7835 -1.75,-1.75zM311.52416,130.66368c-0.00577,0.01683 -0.01179,0.03354 -0.01806,0.05013c0.0118,-0.00064 0.02365,-0.00117 0.03552,-0.00158c-0.00605,-0.01607 -0.01188,-0.03225 -0.01746,-0.04855z" stroke="none" stroke-width="0.5"/><path d="M298.04131,125.82265c0.9665,0 1.75,0.7835 1.75,1.75c0,0.04792 -0.00193,0.09538 -0.00571,0.14233c0.05142,0 0.10086,0 0.14804,0c0,0 1.30186,0 1.65985,1.12287c0.43694,0.31818 0.72093,0.83372 0.72093,1.4156c0,0.9665 -0.7835,1.75 -1.75,1.75c-0.61134,0 -1.14947,-0.31348 -1.46241,-0.78847c-0.51126,0 -1.02251,0 -1.53377,0h-0.63078c0,0 -0.17834,0 -0.42115,-0.05693c-0.24944,0.13682 -0.53583,0.21462 -0.8404,0.21462c-0.70648,0 -1.31519,-0.41864 -1.59158,-1.02139c-0.31898,0.42846 -0.82939,0.706 -1.40461,0.706c-0.9665,0 -1.75,-0.7835 -1.75,-1.75c0,-0.9665 0.7835,-1.75 1.75,-1.75c0.60373,0 1.13605,0.30572 1.4506,0.77079c0.29424,-0.55243 0.876,-0.92848 1.54559,-0.92848c0.21697,0 0.42473,0.03949 0.61647,0.11167c0.03234,-0.93807 0.80299,-1.68861 1.74894,-1.68861z" stroke="none" stroke-width="0.5"/><path d="M304.03369,127.55728c0.9665,0 1.75,0.7835 1.75,1.75c0,0.9665 -0.7835,1.75 -1.75,1.75c-0.34744,0 -0.67124,-0.10125 -0.94349,-0.27586c-0.19643,0.07631 -0.41005,0.11817 -0.63345,0.11817c-0.9665,0 -1.75,-0.7835 -1.75,-1.75c0,-0.9665 0.7835,-1.75 1.75,-1.75c0.34744,0 0.67124,0.10125 0.94349,0.27586c0.19643,-0.07631 0.41005,-0.11817 0.63345,-0.11817z" stroke="none" stroke-width="0.5"/><path d="M310.0107,129.30728c0,-0.9665 0.7835,-1.75 1.75,-1.75c0.9665,0 1.75,0.7835 1.75,1.75c0,0.9665 -0.7835,1.75 -1.75,1.75c-0.9665,0 -1.75,-0.7835 -1.75,-1.75z" stroke="none" stroke-width="0.5"/><path d="M333.82252,129.46498c0,-0.9665 0.7835,-1.75 1.75,-1.75c0.28364,0 0.55153,0.06748 0.78847,0.18727c0.23694,-0.11978 0.50483,-0.18727 0.78847,-0.18727c0.9665,0 1.75,0.7835 1.75,1.75c0,0.9665 -0.7835,1.75 -1.75,1.75c-0.28364,0 -0.55153,-0.06748 -0.78847,-0.18727c-0.23694,0.11978 -0.50483,0.18727 -0.78847,0.18727c-0.9665,0 -1.75,-0.7835 -1.75,-1.75z" stroke="none" stroke-width="0.5"/><path d="M284.17578,127.41495c0,-0.69036 0.55964,-1.25 1.25,-1.25c0.69036,0 1.25,0.55964 1.25,1.25c0,0.69036 -0.55964,1.25 -1.25,1.25c-0.69036,0 -1.25,-0.55964 -1.25,-1.25z" stroke="none" stroke-width="0.5"/><path d="M289.22199,130.88423c0,-0.69036 0.55964,-1.25 1.25,-1.25c0.05341,0 0.10604,0.00335 0.15769,0.00985c0.05165,-0.0065 0.10428,-0.00985 0.15769,-0.00985c0.69036,0 1.25,0.55964 1.25,1.25c0,0.69036 -0.55964,1.25 -1.25,1.25c-0.05341,0 -0.10604,-0.00335 -0.15769,-0.00985c-0.05165,0.0065 -0.10428,0.00985 -0.15769,0.00985c-0.69036,0 -1.25,-0.55964 -1.25,-1.25z" stroke="none" stroke-width="0.5"/><path d="M292.37587,132.93425c0,-0.69036 0.55964,-1.25 1.25,-1.25c0.69036,0 1.25,0.55964 1.25,1.25c0,0.69036 -0.55964,1.25 -1.25,1.25c-0.69036,0 -1.25,-0.55964 -1.25,-1.25z" stroke="none" stroke-width="0.5"/><path d="M297.89517,131.98809c0,-0.69036 0.55964,-1.25 1.25,-1.25c0.69036,0 1.25,0.55964 1.25,1.25c0,0.69036 -0.55964,1.25 -1.25,1.25c-0.69036,0 -1.25,-0.55964 -1.25,-1.25z" stroke="none" stroke-width="0.5"/><path d="M308.77607,133.40733c0,-0.69036 0.55964,-1.25 1.25,-1.25c0.69036,0 1.25,0.55964 1.25,1.25c0,0.69036 -0.55964,1.25 -1.25,1.25c-0.69036,0 -1.25,-0.55964 -1.25,-1.25z" stroke="none" stroke-width="0.5"/><path d="M323.75701,132.61886c0,-0.69036 0.55964,-1.25 1.25,-1.25c0.69036,0 1.25,0.55964 1.25,1.25c0,0.69036 -0.55964,1.25 -1.25,1.25c-0.69036,0 -1.25,-0.55964 -1.25,-1.25z" stroke="none" stroke-width="0.5"/><path d="M327.56859,136.8766c0,-0.37854 0.28045,-0.69159 0.6449,-0.74269c-0.12576,-0.19501 -0.19874,-0.42726 -0.19874,-0.67655c0,-0.69036 0.55964,-1.25 1.25,-1.25c0.69036,0 1.25,0.55964 1.25,1.25c0,0.69036 -0.55964,1.25 -1.25,1.25c-0.07509,0 -0.14862,-0.00662 -0.22007,-0.01931c0.0156,0.06025 0.0239,0.12343 0.0239,0.18856c0,0.41421 -0.33579,0.75 -0.75,0.75c-0.41421,0 -0.75,-0.33579 -0.75,-0.75z" stroke="none" stroke-width="0.5"/><path d="M337.03249,132.04615c-0.05807,-0.74775 0.68968,-0.80582 0.68968,-0.80582l0.85312,-0.06553c0.12747,-0.02109 0.27099,-0.03686 0.41997,-0.04316l0.30467,-0.30467l0.0527,0.0527c0.04482,-0.06308 0.08963,-0.12616 0.13445,-0.18924l0.2363,0.02557l-0.01641,-0.09849l0.93223,-0.15537c0.04449,-0.00823 0.09036,-0.01253 0.13724,-0.01253c0.3634,0 0.66643,0.25845 0.73531,0.60157c0.00474,0.00321 0.00945,0.00647 0.01411,0.00979c0.22879,-0.29254 0.58504,-0.48059 0.98521,-0.48059c0.69036,0 1.25,0.55964 1.25,1.25c0,0.69036 -0.55964,1.25 -1.25,1.25c-0.49908,0 -0.92985,-0.29249 -1.13024,-0.7154c-0.08895,0.03718 -0.18658,0.05771 -0.28901,0.05771h-0.35104c0.00023,0.04528 -0.00305,0.0934 -0.01036,0.14454c-0.02663,0.18638 -0.09336,0.31929 -0.17838,0.41383c-0.07646,0.27039 -0.30076,0.47871 -0.58006,0.53212c-0.05373,0.64082 -0.59088,1.14415 -1.24558,1.14415c-0.69036,0 -1.25,-0.55964 -1.25,-1.25c0,-0.25032 0.07358,-0.48345 0.20029,-0.67895c-0.2233,-0.02967 -0.60346,-0.15766 -0.6442,-0.68223z" stroke="none" stroke-width="0.5"/><path d="M266.98711,129.93806c0,-0.69036 0.55964,-1.25 1.25,-1.25c0.69036,0 1.25,0.55964 1.25,1.25c0,0.69036 -0.55964,1.25 -1.25,1.25c-0.69036,0 -1.25,-0.55964 -1.25,-1.25z" stroke="none" stroke-width="0.5"/><path d="M263.20245,133.24964c0,-0.69036 0.55964,-1.25 1.25,-1.25c0.69036,0 1.25,0.55964 1.25,1.25c0,0.69036 -0.55964,1.25 -1.25,1.25c-0.69036,0 -1.25,-0.55964 -1.25,-1.25z" stroke="none" stroke-width="0.5"/><path d="M262.57168,128.9919c0,-0.69036 0.55964,-1.25 1.25,-1.25c0.69036,0 1.25,0.55964 1.25,1.25c0,0.69036 -0.55964,1.25 -1.25,1.25c-0.69036,0 -1.25,-0.55964 -1.25,-1.25z" stroke="none" stroke-width="0.5"/><path d="M276.60646,130.25345c0,-0.69036 0.55964,-1.25 1.25,-1.25c0.69036,0 1.25,0.55964 1.25,1.25c0,0.69036 -0.55964,1.25 -1.25,1.25c-0.69036,0 -1.25,-0.55964 -1.25,-1.25z" stroke="none" stroke-width="0.5"/><path d="M273.45258,132.30347c0,-0.69036 0.55964,-1.25 1.25,-1.25c0.69036,0 1.25,0.55964 1.25,1.25c0,0.69036 -0.55964,1.25 -1.25,1.25c-0.69036,0 -1.25,-0.55964 -1.25,-1.25z" stroke="none" stroke-width="0.5"/><path d="M274.42566,137.50738c0,-0.41421 0.33579,-0.75 0.75,-0.75c0.41421,0 0.75,0.33579 0.75,0.75c0,0.41421 -0.33579,0.75 -0.75,0.75c-0.41421,0 -0.75,-0.33579 -0.75,-0.75z" stroke="none" stroke-width="0.5"/><path d="M287.67197,131.83039c0,-0.41421 0.33579,-0.75 0.75,-0.75c0.41421,0 0.75,0.33579 0.75,0.75c0,0.41421 -0.33579,0.75 -0.75,0.75c-0.41421,0 -0.75,-0.33579 -0.75,-0.75z" stroke="none" stroke-width="0.5"/><path d="M284.045,131.04192c0,-0.41421 0.33579,-0.75 0.75,-0.75c0.41421,0 0.75,0.33579 0.75,0.75c0,0.41421 -0.33579,0.75 -0.75,0.75c-0.41421,0 -0.75,-0.33579 -0.75,-0.75z" stroke="none" stroke-width="0.5"/><path d="M290.66816,137.0343c0,-0.41421 0.33579,-0.75 0.75,-0.75c0.41421,0 0.75,0.33579 0.75,0.75c0,0.41421 -0.33579,0.75 -0.75,0.75c-0.41421,0 -0.75,-0.33579 -0.75,-0.75z" stroke="none" stroke-width="0.5"/><path d="M303.59908,139.24202c0,-0.41421 0.33579,-0.75 0.75,-0.75c0.41421,0 0.75,0.33579 0.75,0.75c0,0.41421 -0.33579,0.75 -0.75,0.75c-0.41421,0 -0.75,-0.33579 -0.75,-0.75z" stroke="none" stroke-width="0.5"/><path d="M320.47235,131.19961c0,-0.41421 0.33579,-0.75 0.75,-0.75c0.41421,0 0.75,0.33579 0.75,0.75c0,0.41421 -0.33579,0.75 -0.75,0.75c-0.41421,0 -0.75,-0.33579 -0.75,-0.75z" stroke="none" stroke-width="0.5"/><path d="M315.42614,135.61505c0,-0.41421 0.33579,-0.75 0.75,-0.75c0.41421,0 0.75,0.33579 0.75,0.75c0,0.41421 -0.33579,0.75 -0.75,0.75c-0.41421,0 -0.75,-0.33579 -0.75,-0.75z" stroke="none" stroke-width="0.5"/><path d="M315.11075,133.72272c0,-0.41421 0.33579,-0.75 0.75,-0.75c0.41421,0 0.75,0.33579 0.75,0.75c0,0.41421 -0.33579,0.75 -0.75,0.75c-0.41421,0 -0.75,-0.33579 -0.75,-0.75z" stroke="none" stroke-width="0.5"/><path d="M339.55335,137.19199c0,-0.41421 0.33579,-0.75 0.75,-0.75c0.41421,0 0.75,0.33579 0.75,0.75c0,0.41421 -0.33579,0.75 -0.75,0.75c-0.41421,0 -0.75,-0.33579 -0.75,-0.75z" stroke="none" stroke-width="0.5"/></g></g><path d="M311.89799,141.56658l7.8888,-23.8796l8.31522,23.8796c0,0 -4.6487,4.78843 -8.43351,4.78843c-3.78481,0 -7.77051,-4.78843 -7.77051,-4.78843z" fill="#ba2d2d" stroke="#000000" stroke-width="0"/><path d="M281.47539,165.01485c-2.76332,-2.97868 -9.03411,-10.59486 -7.74044,-17.1493c1.63174,-8.26725 7.93473,-24.43213 7.93473,-24.43213c0,0 3.70596,16.01449 7.26574,21.95221c1.698,2.83226 6.28729,6.37095 9.3157,8.51631c1.65223,1.17046 -2.01219,7.27744 -5.86023,9.82653c-3.84803,2.54909 -10.15624,2.10482 -10.9155,1.28639z" fill="#ba2d2d" stroke="#000000" stroke-width="0"/><path d="M261.40502,132.38886l-20.63988,-32.73777l37.09061,9.60976c0,0 -0.22337,7.97564 -4.25257,13.91915c-4.28899,6.32673 -12.19816,9.20886 -12.19816,9.20886z" fill="#ba2d2d" stroke="#000000" stroke-width="0"/></g></g></g></g></svg>