<svg version="1.1" xmlns="http://www.w3.org/2000/svg" xmlns:xlink="http://www.w3.org/1999/xlink" width="130.47404" height="232.79834" viewBox="0,0,130.47404,232.79834"><g transform="translate(-254.36487,-87.27392)"><g stroke-miterlimit="10"><path d="M286.35186,319.07226l15.14285,-131.8421l37.78325,-0.15789l13.57389,132z" fill="#808080" stroke="#000000" stroke-width="2" stroke-linecap="butt"/><path d="M255.36488,148.57226c0,-33.30185 28.7599,-60.29833 64.23702,-60.29833c35.47713,0 64.23702,26.99648 64.23702,60.29833c0,33.30185 -28.75989,60.29834 -64.23702,60.29834c-35.47712,0 -64.23702,-26.99649 -64.23702,-60.29834z" fill="#808080" stroke="#000000" stroke-width="2" stroke-linecap="butt"/><path d="M268.99199,148.84787c0,-12.96801 10.51265,-23.48065 23.48066,-23.48065c12.96801,0 23.48065,10.51264 23.48065,23.48065c0,12.96801 -10.51264,23.48066 -23.48065,23.48066c-12.96801,0 -23.48066,-10.51265 -23.48066,-23.48066z" fill="#808080" stroke="#000000" stroke-width="2" stroke-linecap="butt"/><path d="M276.90144,149.63831c0,-8.29964 6.72818,-15.02784 15.02783,-15.02784c8.29964,0 15.02784,6.72819 15.02784,15.02785c0,8.29964 -6.72819,15.02785 -15.02784,15.02785c-8.29964,0 -15.02783,-6.72819 -15.02783,-15.02785z" fill="#000000" stroke="#000000" stroke-width="5" stroke-linecap="butt"/><path d="" fill="none" stroke="#000000" stroke-width="2" stroke-linecap="round"/><path d="M346.73111,172.32855c-12.96801,0 -23.48065,-10.51265 -23.48065,-23.48066c0,-12.96801 10.51264,-23.48065 23.48065,-23.48065c12.96801,0 23.48066,10.51264 23.48066,23.48065c0,12.96801 -10.51265,23.48066 -23.48066,23.48066z" fill="#808080" stroke="#000000" stroke-width="2" stroke-linecap="butt"/><path d="M362.05645,149.4251c0,8.29966 -6.72818,15.02785 -15.02783,15.02785c-8.29964,0 -15.02784,-6.72821 -15.02784,-15.02785c0,-8.29966 6.7282,-15.02785 15.02784,-15.02785c8.29964,0 15.02783,6.7282 15.02783,15.02784z" fill="#000000" stroke="#000000" stroke-width="5" stroke-linecap="butt"/><path d="M281.62971,120.03942c0,0 6.70895,-5.16922 11.79721,-6.36355c5.08827,-1.19433 12.33413,0.69937 12.33413,0.69937c0,0 -8.03812,-0.06028 -11.96762,0.86207c-4.10648,0.96389 -12.16372,4.80211 -12.16372,4.80211z" fill="#000000" stroke="none" stroke-width="0" stroke-linecap="butt"/><path d="M345.56425,115.23732c-3.9295,-0.92235 -11.96762,-0.86207 -11.96762,-0.86207c0,0 7.24586,-1.8937 12.33413,-0.69937c5.08826,1.19433 11.79721,6.36355 11.79721,6.36355c0,0 -8.05724,-3.83822 -12.16372,-4.80211z" fill="#000000" stroke="none" stroke-width="0" stroke-linecap="butt"/><path d="M326.30784,198.97241l-13.43227,-0.21321" fill="none" stroke="#000000" stroke-width="2" stroke-linecap="round"/><path d="M275.13494,132.83227c4.28599,-4.59322 10.55982,-7.46503 17.33773,-7.46503c6.67359,0 12.69692,2.78409 16.97187,7.25417c1.27533,1.33354 -35.37621,1.35393 -34.3096,0.21086z" fill="#808080" stroke="#000000" stroke-width="2" stroke-linecap="butt"/><path d="M328.66147,133.8526c4.30705,-5.18433 10.80283,-8.48536 18.06962,-8.48536c6.86421,0 13.04049,2.94542 17.3339,7.64133c1.0385,1.13586 -36.25264,1.86612 -35.40351,0.84403z" fill="#808080" stroke="#000000" stroke-width="2" stroke-linecap="butt"/></g></g></svg>