<svg version="1.1" xmlns="http://www.w3.org/2000/svg" xmlns:xlink="http://www.w3.org/1999/xlink" width="217.41488" height="310.60506" viewBox="0,0,217.41488,310.60506"><defs><linearGradient x1="297.73359" y1="85.11158" x2="289.33386" y2="122.8118" gradientUnits="userSpaceOnUse" id="color-1"><stop offset="0" stop-color="#4a4a4a"/><stop offset="1" stop-color="#000000"/></linearGradient><linearGradient x1="356.49165" y1="88.78982" x2="342.35544" y2="124.66229" gradientUnits="userSpaceOnUse" id="color-2"><stop offset="0" stop-color="#4a4a4a"/><stop offset="1" stop-color="#000000"/></linearGradient></defs><g transform="translate(-210.00748,-13.59238)"><g stroke-miterlimit="10"><path d="" fill="none" stroke="#000000" stroke-width="2" stroke-linecap="round"/><path d="M403.80303,157.47967c-11.1157,27.02793 -52.01426,166.71777 -52.01426,166.71777l-71.67836,-0.60281c0,0 -35.7287,-135.65782 -48.12389,-164.15935c-4.54612,-10.45336 -1.73532,-21.37784 10.34501,-21.29328c36.6729,0.25673 114.77479,0.80348 147.87176,1.03517c3.11102,0.02177 9.64147,0.72218 12.77048,4.34484c2.9329,3.3956 2.63279,9.57236 0.82927,13.95764z" fill="#000000" stroke="#000000" stroke-width="0" stroke-linecap="butt"/><g fill="#ffffff" stroke="#000000" stroke-width="0"><path d="M320.41796,181.19463c0,0 -0.60484,49.99706 -1.08302,59.40753c-0.17096,3.36444 -1.98864,1.04131 -1.98864,1.04131l-2.55729,7.49883l-4.94737,-23.33998l5.13916,-44.3883z" stroke-linecap="round"/><path d="M325.11735,175.29903c-0.06326,2.49546 0.21234,5.12596 -1.13239,6.79608c-1.42254,1.76676 -4.52337,2.50221 -6.67225,2.50221c-1.83596,0 -4.084,-0.25608 -5.3607,-1.59183c-1.63017,-1.70556 -2.04556,-4.8266 -1.97256,-7.70647c0.06678,-2.63461 0.61832,-6.10722 2.09437,-7.79914c1.40102,-1.6059 3.67466,-1.49915 5.71026,-1.49915c2.39913,0 4.96357,0.09501 6.29608,2.23432c0.98922,1.5882 1.09266,4.87595 1.0372,7.06398z" stroke-linecap="butt"/></g><path d="M214.24033,306.27923l-4.23285,-267.72501h213.18203l4.23285,267.72501z" fill="none" stroke="none" stroke-width="0" stroke-linecap="butt"/><g stroke-linecap="butt"><path d="M253.27674,103.31183c0.286,-33.24796 29.31841,-59.5075 64.84565,-58.65231c35.52726,0.85519 64.09595,28.50126 63.80994,61.74923c-0.286,33.24796 -29.3184,59.50751 -64.84566,58.65232c-35.52725,-0.85519 -64.09594,-28.50127 -63.80994,-61.74924z" fill="#000000" stroke="#000000" stroke-width="2"/><path d="M287.83642,133.09873c0.09647,-0.06396 0.21898,-0.10014 0.37459,-0.08979c0.75429,0.05018 0.77743,1.09348 0.77743,1.09348l-0.0306,0.36304c0.28531,1.1015 1.7744,4.64059 1.27464,5.53764c-0.61281,1.09994 -3.42565,-0.41641 -3.82718,-1.43962c-0.35703,-0.90984 0.35556,-3.55161 0.32026,-4.61159c0,0 -0.02315,-1.04329 0.73114,-0.9931c0.15561,0.01036 0.2801,0.06298 0.3797,0.13998z" fill="#ffffff" stroke="none" stroke-width="0.5"/><path d="M301.10324,134.12119c0.54837,-0.42566 0.97397,0.35557 0.97397,0.35557l0.86673,1.62401c0.21587,1.04806 0.86313,3.43647 0.19949,4.32289c-0.49024,0.65481 -2.63353,0.24506 -3.16724,-0.68548c-0.53044,-0.92482 -0.2304,-3.97641 -0.25623,-5.14045c0,0 -0.02315,-1.04329 0.73114,-0.9931c0.3541,0.02357 0.54708,0.26599 0.65216,0.51659z" fill="#ffffff" stroke="none" stroke-width="0.5"/><path d="M315.96653,133.10087c0.75429,0.05018 0.77743,1.09348 0.77743,1.09348l0.02238,1.2632c0.13805,0.6734 1.42785,5.18942 1.29533,5.56656c-0.41913,1.19279 -3.34603,0.18794 -3.77825,-0.44906c-0.54253,-0.7996 -0.25023,-4.08792 -0.27431,-5.17364c0,0 -0.02315,-1.04329 0.73114,-0.9931c0.2328,0.01549 0.39597,0.12559 0.51028,0.27041l-0.01513,-0.58472c0,0 -0.02315,-1.04329 0.73114,-0.9931z" fill="#ffffff" stroke="none" stroke-width="0.5"/><path d="M327.85167,135.09678c0.096,-0.23126 0.27845,-0.43886 0.62488,-0.41581c0.75429,0.05018 0.77743,1.09348 0.77743,1.09348l-0.03831,0.01527c0.29582,1.14203 2.08315,4.62549 1.82801,5.45687c-0.49069,1.59902 -3.91758,-0.18989 -4.32016,-0.88944c-0.60084,-1.04407 0.05693,-3.23647 0.02389,-4.40222c0,0 -0.02315,-1.04329 0.73114,-0.9931c0.1522,0.01013 0.27464,0.06069 0.37312,0.13497z" fill="#ffffff" stroke="none" stroke-width="0.5"/><path d="M339.18276,135.07698c0.07602,-0.02846 0.1645,-0.04198 0.26746,-0.03512c0.52892,0.0352 0.69833,0.55872 0.75236,0.8684c1.08362,1.18111 2.69195,3.92947 1.71647,5.52293c-0.16112,0.26318 -3.87642,0.43581 -4.07986,0.17075c-0.74094,-0.96533 -0.19437,-5.81693 -0.15641,-7.10115c0,0 0.03066,-1.03706 0.78466,-0.91268c0.75401,0.1244 0.72336,1.16145 0.72336,1.16145c-0.00321,0.10835 -0.00585,0.21684 -0.00804,0.32542z" fill="#ffffff" stroke="none" stroke-width="0.5"/><path d="M345.46804,132.48495c0.00656,-0.01326 0.01339,-0.02655 0.02051,-0.03991c0.43109,-0.80771 1.05049,-0.14545 1.05049,-0.14545l0.76403,0.84018c0.5108,1.11366 2.63991,4.39593 2.1199,5.86275c-0.36657,1.03401 -4.21104,1.48874 -4.78795,0.51919c-0.29366,-0.49354 -0.0494,-4.94467 -0.25124,-5.92922c0,0 -0.2054,-1.02433 0.52076,-1.22866c0.24161,-0.06799 0.42558,0.00004 0.5635,0.12112z" fill="#ffffff" stroke="none" stroke-width="0.5"/><path d="M352.23864,132.24277c0.33141,-0.75864 0.95906,-0.29001 0.95906,-0.29001l0.1708,0.24864c0.8715,0.07136 3.10286,0.58093 3.31197,2.23913c0.14957,1.18608 -2.60473,2.84281 -3.30426,2.61371c-1.34882,-0.44178 -1.69782,-2.3722 -2.36704,-3.73744c0,0 -0.43767,-0.89592 0.1771,-1.43288c0.61109,-0.53377 1.0472,0.34833 1.05239,0.35887z" fill="#ffffff" stroke="none" stroke-width="0.5"/><path d="M277.83191,122.3143c0.36561,0.02432 0.55944,0.28195 0.66212,0.54104c0.0453,0.04534 0.09111,0.09974 0.13715,0.16451c0.46195,0.64975 0.17063,1.24939 0.06583,1.42431c0.61694,1.62104 1.53455,4.43552 -0.22726,5.4325c-0.54223,0.30684 -4.27406,-1.75831 -4.30301,-3.18927c-0.03087,-1.52573 1.87685,-2.36626 2.93839,-3.26475l-0.00436,-0.1152c0,0 -0.02315,-1.04329 0.73114,-0.9931z" fill="#ffffff" stroke="none" stroke-width="0.5"/><path d="M282.30872,129.79785c0.36725,-0.0942 0.75914,-0.07206 1.16845,0.07774l0.3695,0.02457l0.06436,-0.28951l0.74532,0.38923c0.31113,0.15162 0.54397,0.56346 0.55439,1.03277c0.01278,0.57619 -0.31456,1.02083 -0.73114,0.9931l-0.48828,-0.03248c0.23102,1.34781 0.05677,3.04567 -0.32539,3.71274c-0.50081,0.87418 -1.40974,0.68037 -2.10315,0.63995c-0.51771,-0.03016 -1.93285,-0.04312 -2.18583,-0.69563c-0.24294,-0.62662 0.30324,-1.27706 0.43465,-1.92585c0.29011,-1.4324 0.77238,-2.53418 1.38742,-3.21215c0.09362,-0.78215 0.72001,-0.74048 0.72001,-0.74048c0.12989,0.00865 0.25979,0.01728 0.38968,0.02593z" fill="#ffffff" stroke="none" stroke-width="0.5"/><path d="M294.60268,133.5103c0.09639,-0.16623 0.22455,-0.27927 0.39112,-0.3162c1.48434,-0.32912 2.83712,5.16389 2.16207,6.31312c-0.68947,1.17373 -3.70425,-0.00524 -4.09818,-1.27884c-0.04036,-0.13048 0.65564,-3.02233 0.63108,-3.75997c0,0 -0.02315,-1.04329 0.73114,-0.9931c0.06644,0.00442 0.12721,0.01655 0.18277,0.03499z" fill="#ffffff" stroke="none" stroke-width="0.5"/><path d="M308.70054,136.37117l0.76956,0.4526c0.3785,0.77481 1.88379,3.3024 1.68424,4.15329c-0.31714,1.35225 -4.12437,1.25287 -4.63593,0.19229c-0.05213,-0.10808 0.76159,-4.03485 0.83756,-4.50828c0,0 0.16048,-0.99999 0.89787,-0.69826c0.21866,0.08948 0.35838,0.24036 0.44673,0.40836z" fill="#ffffff" stroke="none" stroke-width="0.5"/><path d="M321.05989,137.17624c0.06974,-0.07864 0.16052,-0.14528 0.27788,-0.19206c0.70826,-0.2823 0.96875,0.72332 0.96875,0.72332l0.15171,0.74895c3.03233,3.22263 -1.61297,4.69518 -2.57236,2.9341c-0.49006,-0.89958 -0.30356,-3.73924 -0.32989,-4.9256c0,0 -0.02315,-1.04329 0.73114,-0.9931c0.75429,0.05018 0.77743,1.09348 0.77743,1.09348c0.00449,0.20221 0.00213,0.40619 -0.00465,0.61094z" fill="#ffffff" stroke="none" stroke-width="0.5"/><path d="M296.46893,158.99853c-0.59047,0.45466 -1.0064,-0.39677 -1.0064,-0.39677c-0.44548,-0.91472 -2.43885,-4.79659 -2.24887,-5.79332c0.2885,-1.51354 3.75358,-2.23262 4.66329,-1.3723c1.21469,1.14873 0.66262,4.87448 0.33958,6.27692l-0.83521,1.17514c0,0 -0.42401,0.57595 -0.91238,0.11033z" fill="#ffffff" stroke="none" stroke-width="0.5"/><path d="M301.82933,158.52609c-0.64045,-0.62048 -0.2413,-1.46071 -0.2413,-1.46071l0.05521,-0.11619c-0.12568,-0.22021 -0.17178,-0.45004 -0.17178,-0.45004c-0.23207,-1.21242 -1.82982,-4.44249 -1.34474,-5.60231c0.57444,-1.37345 4.24577,-2.04604 5.06781,-0.22055c1.01214,2.24762 -1.11097,5.07311 -1.84589,6.62022l-0.47971,1.00984c0,0 -0.39915,0.84024 -1.03958,0.21976z" fill="#ffffff" stroke="none" stroke-width="0.5"/><path d="M309.68212,158.04999c-0.06505,0.29638 -0.23723,0.66351 -0.69193,0.63325c-0.75429,-0.05018 -0.77743,-1.09348 -0.77743,-1.09348l0.46551,-1.24804c-0.11243,-1.27482 -0.82766,-4.48816 -0.52426,-5.13414c0.46999,-1.00073 3.6362,-1.89954 4.45199,-0.65996c1.82767,2.7771 -1.19681,6.3987 -2.92387,7.50235z" fill="#ffffff" stroke="none" stroke-width="0.5"/><path d="M318.96703,157.26524c0.01324,0.04496 0.02517,0.08764 0.03564,0.12778c0,0 0.21849,0.84349 -0.28881,1.20233c-0.09149,0.2461 -0.27445,0.47863 -0.64,0.45431c-0.75429,-0.05018 -0.77743,-1.09348 -0.77743,-1.09348l0.02367,-0.67511c0.00815,-0.03655 0.01646,-0.07647 0.02493,-0.11946c-0.44137,-1.3462 -1.15009,-3.27253 -0.89605,-4.36269c0.17748,-0.76159 2.55573,-3.8658 3.43781,-2.39642c0.77239,1.28665 -0.37863,4.93402 -0.91975,6.86274z" fill="#ffffff" stroke="none" stroke-width="0.5"/><path d="M322.90966,158.06608c-0.19183,-0.39269 -0.18147,-0.71641 -0.10931,-0.9562c-0.04245,-0.18305 -0.04563,-0.32648 -0.04563,-0.32648c-0.02347,-1.27067 -0.08073,-4.99273 0.59166,-5.90604c0.68821,-0.9348 4.41859,-0.73268 4.78338,1.06405c0.2897,1.42683 -2.72992,5.2125 -3.42882,5.83828l-0.73886,0.64535c0,0 -0.61477,0.53696 -1.05243,-0.35895z" fill="#ffffff" stroke="none" stroke-width="0.5"/><path d="M333.02319,159.75579c0,0 0.22081,1.01975 -0.50081,1.24583c-0.72162,0.22611 -0.94242,-0.79364 -0.94242,-0.79364c-0.28479,-1.3153 -1.80532,-5.72892 -0.965,-6.97823c1.80562,-2.68446 3.69039,1.27726 3.33063,3.75042l-0.05086,0.08719l0.02041,0.01524l-0.62638,1.8017c-0.07014,0.21381 -0.19463,0.38224 -0.35086,0.47457c0.02827,0.13236 0.05668,0.26468 0.08533,0.39693z" fill="#ffffff" stroke="none" stroke-width="0.5"/><path d="M338.21896,161.16377c-0.75429,-0.05018 -0.77743,-1.09348 -0.77743,-1.09348c-0.02553,-1.30835 -0.98866,-4.41082 -0.80156,-5.3547c0.09976,-0.50334 2.2668,-1.38655 2.57371,-0.96093c0.40256,0.55829 0.58994,3.0577 0.68798,4.11846l-0.06959,0.16002l0.05283,0.02161l-0.2172,1.35341c-0.06592,0.45953 -0.35862,0.78637 -0.71759,0.76249c0,0 0.02315,1.04329 -0.73114,0.9931z" fill="#ffffff" stroke="none" stroke-width="0.5"/><path d="M270.73993,98.74359c0.07109,-1.96671 -0.30985,-14.49679 4.55309,-22.98416c3.87311,-6.75981 12.41034,-10.07471 17.47598,-9.81417c5.34368,0.27485 14.87078,3.1073 19.55268,10.86705c5.32897,8.8322 5.47343,22.79231 5.41719,24.34862c-0.33387,9.23734 -4.39218,25.34477 -12.32573,28.75519c-3.17457,1.36466 -8.31106,-6.35475 -12.02012,-6.54552c-12.97841,-0.66753 -23.12052,-11.69345 -22.65306,-24.62699z" fill="url(#color-1)" stroke="#000000" stroke-width="2"/><path d="M327.65153,98.08542c0.37383,-1.92768 1.92965,-14.33706 8.05576,-21.95699c4.87918,-6.06894 13.84666,-8.02662 18.82392,-6.9926c5.25046,1.09077 14.24998,5.34442 17.69021,13.71154c3.91568,9.52352 1.90502,23.30619 1.6092,24.83162c-2.4584,12.67696 -14.78887,20.80605 -27.54085,18.15688c-2.56325,-0.53251 -5.07087,4.82267 -7.22601,3.57759c-8.56661,-4.94911 -13.37645,-21.19926 -11.41221,-31.32801z" fill="url(#color-2)" stroke="#000000" stroke-width="2"/><path d="M379.75047,112.71319c-0.254,-0.70873 0.45283,-0.95103 0.45283,-0.95103l0.42469,-0.09922c1.459,-1.1534 2.32018,-2.72162 2.7393,-4.43887c-0.32019,-0.8486 -0.47384,-1.68923 -0.40495,-2.47203c0,0 0.06617,-0.67428 0.7172,-0.66642c-0.00963,-0.36121 -0.03336,-0.72212 -0.06993,-1.08056c0,0 -0.07499,-0.74634 0.67234,-0.80951c0.74733,-0.06317 0.82233,0.68316 0.82233,0.68316c0.141,1.42311 0.09652,2.85296 -0.17719,4.21237c1.23329,2.71842 4.54217,5.86759 6.64945,6.02886l0.66861,-0.20916c0,0 0.71812,-0.20832 0.93821,0.51114c0.2201,0.71946 -0.49802,0.92777 -0.49802,0.92777l-0.95881,0.26292c-2.48353,-0.3168 -5.62687,-2.75774 -7.39957,-5.51498c-0.57957,1.41906 -1.47413,2.70084 -2.74505,3.73719l-0.87057,0.34479c0,0 -0.70683,0.2423 -0.96084,-0.46644z" fill="#000000" stroke="none" stroke-width="0.5"/><g stroke="#000000" stroke-width="0"><path d="M252.14652,79.69147l-13.58963,-62.93536c0,0 51.01283,-2.77886 75.90914,-3.11576c24.1546,-0.32686 71.31091,1.12357 71.31091,1.12357l-4.50122,63.69737z" fill="#000000"/><path d="M253.06734,78.83099l-2.57725,-10.21807l130.72733,2.08048l-0.79316,10.04805z" fill="#ffffff"/><path d="M233.39002,86.14435c0,0 -3.18869,-3.72981 -3.97464,-5.86352c-0.83952,-2.27922 -0.91236,-7.40406 -0.91236,-7.40406l176.33109,3.48976c0,0 -0.59074,3.99539 -1.3507,6.09707c-0.82551,2.28295 -3.42206,7.10188 -3.42206,7.10188c0,0 -1.74767,-0.03588 -4.8802,-0.10017c-1.48283,-0.03044 -2.35101,28.24837 -4.41599,28.20599c-0.53771,-0.01104 -0.18932,-8.14595 -0.70071,-15.42401c-0.48324,-6.87727 -2.99251,-12.94844 -3.56593,-12.9602c-31.1713,-0.63982 -107.48842,-2.20632 -136.8613,-2.80922c-2.58883,-0.05313 -1.73902,11.34859 -3.49768,10.72401c-4.51347,-1.60296 -5.66582,-10.91209 -6.51807,-10.92959c-3.47038,-0.07123 -6.23147,-0.12791 -6.23147,-0.12791z" fill="#000000"/></g></g></g></g></svg>