<svg version="1.1" xmlns="http://www.w3.org/2000/svg" xmlns:xlink="http://www.w3.org/1999/xlink" width="213.18203" height="290.21118" viewBox="0,0,213.18203,290.21118"><defs><linearGradient x1="320.08742" y1="187.07227" x2="320.08742" y2="244.23177" gradientUnits="userSpaceOnUse" id="color-1"><stop offset="0" stop-color="#2713b5"/><stop offset="1" stop-color="#2713b5" stop-opacity="0"/></linearGradient></defs><g transform="translate(-214.52362,-29.86109)"><g stroke-miterlimit="10"><g stroke="#000000" stroke-linecap="butt"><path d="M286.35186,319.07226l15.14285,-131.8421l37.78325,-0.15789l13.57389,132z" fill="#4372d5" stroke-width="0"/><path d="M295.01902,243.61117l6.47569,-56.38101l37.78325,-0.15789l5.87786,57.15951z" fill="url(#color-1)" stroke-width="0"/><path d="M286.35186,319.07226l15.14285,-131.8421l37.78325,-0.15789l13.57389,132z" fill="none" stroke-width="2"/></g><path d="M214.52362,306.61252v-267.72501h213.18203v267.72501z" fill="none" stroke="none" stroke-width="0" stroke-linecap="butt"/><path d="" fill="none" stroke="#000000" stroke-width="2" stroke-linecap="round"/><g stroke="#000000"><path d="M246.97357,158.31068l-15.66914,-11.24311l20.47671,-23.68176z" fill="#435656" stroke-width="2" stroke-linecap="round"/><path d="M250.35013,138.19224l-33.16911,-53.20878l4.29216,-30.49627l103.73779,-23.40353l8.75296,82.00141z" fill="#ab1a21" stroke-width="2" stroke-linecap="round"/><path d="M248.20676,138.32193c0,-33.30185 28.7599,-60.29833 64.23702,-60.29833c35.47713,0 64.23702,26.99648 64.23702,60.29833c0,33.30185 -28.75989,60.29834 -64.23702,60.29834c-35.47712,0 -64.23702,-26.99649 -64.23702,-60.29834z" fill="#4372d5" stroke-width="2" stroke-linecap="butt"/><path d="M261.53459,138.59755c0,-12.96801 10.51265,-23.48065 23.48066,-23.48065c12.96801,0 23.48065,10.51264 23.48065,23.48065c0,12.96801 -10.51264,23.48066 -23.48065,23.48066c-12.96801,0 -23.48066,-10.51265 -23.48066,-23.48066z" fill="#ffffff" stroke-width="2" stroke-linecap="butt"/><path d="M270.40374,134.09014c0,-8.29964 6.72818,-15.02784 15.02783,-15.02784c8.29964,0 15.02784,6.72819 15.02784,15.02785c0,8.29964 -6.72819,15.02785 -15.02784,15.02785c-8.29964,0 -15.02783,-6.72819 -15.02783,-15.02785z" fill="#000000" stroke-width="5" stroke-linecap="butt"/><path d="M310.2388,78.30357l50.44468,-21.19137l1.16843,14.95748l36.6075,36.86925l-7.83159,5.29784l-0.92136,34.32081l-4.83717,-4.60682l-14.51148,43.7648l-5.52818,-7.60125l-19.57899,26.71956l-5.52819,-10.13501l-26.25888,14.0508c0,0 5.13132,-29.15107 4.37648,-48.14128c-0.75484,-18.99021 -8.75296,-61.96174 -8.75296,-61.96174" fill="#4372d5" stroke-width="2" stroke-linecap="round"/><path d="M276.14833,102.48938c0,0 5.40861,-9.22462 8.52262,-6.44955c3.11401,2.77507 25.33751,36.62422 25.33751,36.62422l0.69102,-3.9158" fill="none" stroke-width="1" stroke-linecap="round"/><path d="M311.39051,192.09205c0,0 -16.86403,-2.02176 -22.14472,-3.822c-4.81038,-1.6399 -8.2603,-6.54335 -8.2603,-6.54335" fill="none" stroke-width="1.5" stroke-linecap="round"/><path d="M260.48513,58.09938l49.29298,13.35978" fill="none" stroke-width="1" stroke-linecap="round"/><path d="M273.38424,80.21212l24.64649,-33.86013" fill="none" stroke-width="1" stroke-linecap="round"/></g><g stroke-linecap="butt"><path d="M295.84528,214.43738c-1.3468,13.73767 -2.50637,24.8676 -13.33854,23.80565c-10.83217,-1.06195 -9.80815,-12.20518 -8.46136,-25.94285c1.3468,-13.73767 7.31868,-24.39582 13.33855,-23.80565c6.01987,0.59017 9.80815,12.20518 8.46136,25.94285z" fill="#4372d5" stroke="#000000" stroke-width="2"/><g stroke="none" stroke-width="0.5"><path d="M272.74472,198.93005c-0.70152,-0.06659 -0.8351,-0.82783 -0.8351,-0.82783c-1.5903,-9.17164 2.29897,-17.29864 9.35561,-23.05564c2.89347,-1.61147 5.98509,-3.10232 9.22117,-3.89637c7.50354,-1.84117 15.76135,1.30743 22.7092,3.80774c5.94889,2.15177 12.96396,7.35638 11.51021,14.6257c-0.47722,2.38627 -2.09819,3.19124 -3.18552,4.9519c-0.3159,0.51153 -0.07282,2.59113 -0.09363,3.06744c-1.25303,2.33527 -2.7927,3.82327 -5.46419,4.39301c-0.82253,0.17542 -1.78054,-0.23744 -2.51747,0.16783c-0.63748,0.35057 -0.34356,1.46505 -0.80223,2.02976c-1.2626,1.5545 -2.78909,1.89179 -4.64764,2.2883c-2.39767,0.51152 -3.9755,-0.98778 -6.12866,-1.12399c-0.56899,-0.03599 -2.15891,2.34655 -2.68362,2.77756c-2.61756,2.08992 -4.9807,1.39878 -7.99792,0.99397c-6.11993,-0.82107 -14.2063,-2.95843 -17.56814,-8.5636c-0.26286,-0.55908 -0.55609,-1.10456 -0.87205,-1.63579zM273.72827,196.77984c0.25205,0.17562 0.37401,0.43472 0.37401,0.43472l0.17297,0.38179c0.40377,0.65944 0.78096,1.33711 1.1106,2.03656c2.83634,4.98409 10.76675,6.79348 16.04322,7.51149c2.35716,0.32076 4.45803,1.15286 6.48851,-0.55784c1.32928,-1.07886 1.93101,-3.04285 3.85438,-3.22642c0.39403,-0.03761 2.05647,0.70849 2.60835,0.86043c1.83595,0.50548 4.03002,0.49366 5.78515,-0.35859c1.39482,-0.6773 0.99596,-2.57766 2.08129,-3.29947c0.92806,-0.61721 2.21044,-0.30029 3.30245,-0.52336c1.86828,-0.38164 2.9882,-1.37243 3.94842,-2.96413c-0.00892,-1.10119 -0.26769,-2.54696 0.30018,-3.55586c0.97414,-1.7307 2.47164,-2.11771 2.95752,-4.37774c1.32109,-6.14499 -5.37746,-10.56285 -10.23693,-12.30163c-6.51321,-2.3439 -14.47466,-5.51605 -21.52657,-3.75451c-3.01387,0.75285 -5.89928,2.12244 -8.60436,3.61677c-6.16887,5.04782 -9.70768,12.12739 -8.65918,20.07777z" fill="#000000"/><path d="M282.17471,176.60459c2.70508,-1.49433 5.60944,-2.87662 8.62331,-3.62948c7.0519,-1.76154 15.06708,1.4228 21.58028,3.76669c4.85947,1.73878 11.5718,6.18753 10.25071,12.33253c-0.48588,2.26003 -1.98356,2.65642 -2.9577,4.38712c-0.56787,1.0089 -0.31062,2.46245 -0.3017,3.56364c-0.96021,1.59169 -2.0837,2.59167 -3.95198,2.9733c-1.092,0.22307 -2.37723,-0.08897 -3.30529,0.52824c-1.08532,0.72181 -0.69349,2.63062 -2.0883,3.30791c-1.75512,0.85225 -3.96149,0.87279 -5.79745,0.36731c-0.55188,-0.15195 -2.22126,-0.89519 -2.6153,-0.85758c-1.92336,0.18355 -2.54004,2.15001 -3.86932,3.22886c-2.03048,1.7107 -4.15011,0.87517 -6.50727,0.55441c-5.27647,-0.71801 -13.2353,-2.55596 -16.07164,-7.54005c-0.32965,-0.69944 -0.70833,-1.38159 -1.1121,-2.04104l-0.17318,-0.38261c0,0 -0.12221,-0.26011 -0.37426,-0.43574c-1.04849,-7.95038 2.50235,-15.07572 8.67121,-20.12354z" fill="#4372d5"/></g><path d="M279.16974,202.74607c-0.03594,0.03247 -0.06542,0.06604 -0.08761,0.10072zM277.56206,201.56666l0.02432,-0.04756c3.37246,-3.33614 9.6523,0.21886 13.41673,1.57356c1.36862,0.49252 3.40706,0.87644 4.34629,2.15303c0.95057,1.29202 0.19602,2.76273 -0.24807,4.16501c-1.26355,3.38281 -3.62658,4.39751 -7.05253,4.24749c-6.1264,-0.26829 -13.46464,-4.49842 -10.95842,-11.52494c0,0 0.13507,-0.37535 0.47168,-0.5666z" fill="#4372d5" stroke="none" stroke-width="0.5"/></g></g></g></svg>