<svg version="1.1" xmlns="http://www.w3.org/2000/svg" xmlns:xlink="http://www.w3.org/1999/xlink" width="213.18203" height="281.23289" viewBox="0,0,213.18203,281.23289"><defs><linearGradient x1="320.08742" y1="187.07227" x2="320.08742" y2="244.23177" gradientUnits="userSpaceOnUse" id="color-1"><stop offset="0" stop-color="#2713b5"/><stop offset="1" stop-color="#2713b5" stop-opacity="0"/></linearGradient></defs><g transform="translate(-214.52362,-38.83938)"><g stroke-miterlimit="10"><g stroke="#000000" stroke-linecap="butt"><path d="M286.35186,319.07226l15.14285,-131.8421l37.78325,-0.15789l13.57389,132z" fill="#4372d5" stroke-width="0"/><path d="M295.01902,243.61117l6.47569,-56.38101l37.78325,-0.15789l5.87786,57.15951z" fill="url(#color-1)" stroke-width="0"/><path d="M286.35186,319.07226l15.14285,-131.8421l37.78325,-0.15789l13.57389,132z" fill="none" stroke-width="2"/></g><path d="M214.52362,306.61252v-267.72501h213.18203v267.72501z" fill="none" stroke="none" stroke-width="0" stroke-linecap="butt"/><path d="" fill="none" stroke="#000000" stroke-width="2" stroke-linecap="round"/><g stroke="#000000"><path d="M263.1345,167.28898l-15.66914,-11.24311l20.47671,-23.68176z" fill="#435656" stroke-width="2" stroke-linecap="round"/><path d="M266.51106,147.17054l-33.16911,-53.20878l4.29216,-30.49627l103.73779,-23.40353l8.75296,82.00141z" fill="#ab1a21" stroke-width="2" stroke-linecap="round"/><path d="M264.36769,147.30023c0,-33.30185 28.7599,-60.29833 64.23702,-60.29833c35.47713,0 64.23702,26.99648 64.23702,60.29833c0,33.30185 -28.75989,60.29834 -64.23702,60.29834c-35.47712,0 -64.23702,-26.99649 -64.23702,-60.29834z" fill="#4372d5" stroke-width="2" stroke-linecap="butt"/><path d="M277.69552,147.57585c0,-12.96801 10.51265,-23.48065 23.48066,-23.48065c12.96801,0 23.48065,10.51264 23.48065,23.48065c0,12.96801 -10.51264,23.48066 -23.48065,23.48066c-12.96801,0 -23.48066,-10.51265 -23.48066,-23.48066z" fill="#ffffff" stroke-width="2" stroke-linecap="butt"/><path d="M286.56466,153.54313c0,-8.29964 6.72818,-15.02784 15.02783,-15.02784c8.29964,0 15.02784,6.72819 15.02784,15.02785c0,8.29964 -6.72819,15.02785 -15.02784,15.02785c-8.29964,0 -15.02783,-6.72819 -15.02783,-15.02785z" fill="#000000" stroke-width="5" stroke-linecap="butt"/><path d="M326.39973,87.28187l50.44468,-21.19137l1.16843,14.95748l36.6075,36.86925l-7.83159,5.29784l-0.92136,34.32081l-4.83717,-4.60682l-14.51148,43.7648l-5.52818,-7.60125l-19.57899,26.71956l-5.52819,-10.13501l-26.25888,14.0508c0,0 5.13132,-29.15107 4.37648,-48.14128c-0.75484,-18.99021 -8.75296,-61.96174 -8.75296,-61.96174" fill="#4372d5" stroke-width="2" stroke-linecap="round"/><path d="M292.30926,111.46768c0,0 5.40861,-9.22462 8.52262,-6.44955c3.11401,2.77507 25.33751,36.62422 25.33751,36.62422l0.69102,-3.9158" fill="none" stroke-width="1" stroke-linecap="round"/><path d="M327.55144,201.07035c0,0 -16.86403,-2.02176 -22.14472,-3.822c-4.81038,-1.6399 -8.2603,-6.54335 -8.2603,-6.54335" fill="none" stroke-width="1.5" stroke-linecap="round"/><path d="M325.93904,80.43746l-49.29298,-13.35978" fill="none" stroke-width="1" stroke-linecap="round"/><path d="M314.19166,55.33029l-24.64649,33.86013" fill="none" stroke-width="1" stroke-linecap="round"/></g><g stroke-linecap="butt"><path d="M305.01621,221.39045c-1.44555,13.72763 -2.68513,24.84893 -13.50938,23.70912c-10.82425,-1.13981 -9.72013,-12.27539 -8.27459,-26.00302c1.44555,-13.72763 7.49392,-24.34256 13.50939,-23.70912c6.01547,0.63344 9.72013,12.27539 8.27459,26.00302z" fill="#4372d5" stroke="#000000" stroke-width="2"/><g stroke="none" stroke-width="0.5"><path d="M282.02775,205.71741c-0.70102,-0.07163 -0.82913,-0.83382 -0.82913,-0.83382c-1.5243,-9.18284 2.42331,-17.28166 9.52116,-22.98777c2.90498,-1.59062 6.00725,-3.0592 9.24895,-3.82996c7.51659,-1.78716 15.75153,1.42073 22.68124,3.97094c5.93326,2.1945 12.91073,7.44941 11.40474,14.70809c-0.49437,2.38277 -2.12108,3.17607 -3.22105,4.92887c-0.31957,0.50925 -0.09145,2.59054 -0.11569,3.06668c-1.26979,2.32621 -2.82012,3.80309 -5.49564,4.3536c-0.82377,0.1695 -1.77878,-0.25024 -2.51861,0.14972c-0.63998,0.34598 -0.35409,1.46254 -0.8168,2.02394c-1.27374,1.54538 -2.80262,1.87168 -4.66397,2.25482c-2.40128,0.49427 -3.96829,-1.01635 -6.12042,-1.16803c-0.56872,-0.04008 -2.17573,2.33096 -2.70352,2.75819c-2.63252,2.07104 -4.99063,1.36292 -8.00486,0.93643c-6.11386,-0.86506 -14.18466,-3.06051 -17.5061,-8.68971c-0.25883,-0.56096 -0.54814,-1.10853 -0.86027,-1.64202zM283.02674,203.57433c0.25079,0.17743 0.37087,0.4374 0.37087,0.4374l0.17022,0.38302c0.39902,0.66233 0.77133,1.34269 1.09593,2.04449c2.80043,5.00436 10.71762,6.87072 15.98879,7.62666c2.3548,0.3377 4.44962,1.18489 6.49235,-0.51117c1.337,-1.06927 1.95284,-3.02889 3.87748,-3.19862c0.39428,-0.03478 2.05132,0.72326 2.6021,0.87916c1.83227,0.51867 4.02637,0.52263 5.78758,-0.31698c1.39966,-0.66726 1.01447,-2.57043 2.10497,-3.28442c0.93248,-0.61052 2.21255,-0.28439 3.30613,-0.49959c1.87097,-0.36819 2.998,-1.35091 3.96963,-2.93566c-0.001,-1.10123 -0.24936,-2.54882 0.32574,-3.55361c0.98656,-1.72365 2.4868,-2.09988 2.98892,-4.35636c1.36524,-6.13533 -5.30137,-10.60125 -10.14821,-12.37492c-6.49619,-2.39068 -14.43462,-5.62 -21.49902,-3.90921c-3.01921,0.73116 -5.91439,2.07996 -8.63014,3.55481c-6.20501,5.00333 -9.79463,12.05727 -8.80333,20.01499z" fill="#000000"/><path d="M291.61804,183.46033c2.71575,-1.47484 5.62998,-2.83621 8.64918,-3.56738c7.06439,-1.71079 15.05646,1.53111 21.55264,3.92177c4.84684,1.77367 11.527,6.27058 10.16176,12.40592c-0.50212,2.25648 -2.00261,2.64209 -2.98917,4.36574c-0.57511,1.0048 -0.32832,2.46016 -0.32731,3.56138c-0.97163,1.58474 -2.10228,2.57662 -3.97326,2.9448c-1.09358,0.21521 -2.37653,-0.10606 -3.309,0.50446c-1.09048,0.71398 -0.71239,2.62556 -2.11203,3.29281c-1.76121,0.83961 -3.96767,0.84428 -5.79994,0.32561c-0.55078,-0.15592 -2.21477,-0.91114 -2.60907,-0.87637c-1.92463,0.16971 -2.55543,2.13169 -3.89244,3.20095c-2.04273,1.69605 -4.1563,0.84531 -6.51108,0.5076c-5.27117,-0.75593 -13.21657,-2.65107 -16.017,-7.65542c-0.32461,-0.70179 -0.69837,-1.38665 -1.09739,-2.04899l-0.17043,-0.38384c0,0 -0.12033,-0.26099 -0.37112,-0.43842c-0.9913,-7.95772 2.61069,-15.05733 8.8157,-20.06067z" fill="#4372d5"/></g><path d="M288.42517,209.57954c-0.03617,0.03221 -0.0659,0.06557 -0.08833,0.10009zM286.82601,208.38859l0.02466,-0.04738c3.39636,-3.3118 9.65048,0.28826 13.40507,1.66999c1.36505,0.50235 3.40067,0.90092 4.33069,2.18423c0.94125,1.29882 0.17614,2.76407 -0.27801,4.16312c-1.28785,3.37364 -3.65811,4.37132 -7.0829,4.19667c-6.12431,-0.31234 -13.43194,-4.59512 -10.87527,-11.60344c0,0 0.13777,-0.37437 0.47574,-0.5632z" fill="#4372d5" stroke="none" stroke-width="0.5"/></g></g></g></svg>