<svg version="1.1" xmlns="http://www.w3.org/2000/svg" xmlns:xlink="http://www.w3.org/1999/xlink" width="205.94779" height="131.88178" viewBox="0,0,205.94779,131.88178"><g transform="translate(-217.0261,-114.05911)"><g fill="#ffffff" stroke="none" stroke-width="0.5" stroke-miterlimit="10"><path d="M290.95326,231.29596c-1.19942,0.31557 -2.6919,0.97571 -3.93733,1.01766c-4.06317,0.13686 -8.66171,-2.59791 -12.39197,-4.00712c-7.2097,-2.73847 -12.653,-8.33223 -18.15625,-13.49783c-2.15486,-2.02265 -5.28704,-3.91629 -5.63337,-6.92246c-0.10759,-1.23723 -0.64857,-3.27427 -0.35541,-4.4815c0.59818,-2.46337 2.60046,-4.41745 4.86634,-5.65041c-9.18162,-3.88144 -18.01101,-8.48874 -26.15799,-14.27021c-3.94858,-2.80209 -6.6548,-5.41539 -9.42742,-9.40591c-0.6991,-1.00619 -2.42649,-2.78455 -2.68441,-3.96316c-0.25792,-1.17861 0.56884,-3.5159 0.7838,-4.72212c0.52633,-2.95347 1.05267,-5.90694 1.579,-8.8604c0.57063,-2.96438 3.23592,-5.32972 5.10898,-7.66507c4.7756,-5.95426 9.07131,-11.67764 15.51097,-15.87929c3.78591,-2.47017 9.64932,-5.7784 14.33563,-4.40003c3.62746,1.06693 6.90594,3.24338 10.3827,4.69214c1.09135,0.48219 2.69349,0.93259 3.63934,1.68866c2.15856,1.72548 3.51489,4.22202 5.76296,5.87887l0.78266,-0.03218c0,0 0.36066,0 0.58177,0.2501c0.79586,-0.6084 1.58563,-1.22439 2.36462,-1.85358c7.96898,-6.43648 15.64482,-12.98313 24.61599,-17.99643c8.08497,-4.51807 20.33149,-9.30298 29.51808,-6.12943c3.40411,1.17597 7.99047,1.93986 11.04438,3.82972c5.57776,3.45171 8.71247,10.10875 12.19057,15.44291c1.10778,1.69894 2.22301,3.21304 2.87044,5.14255c0.09809,0.29235 1.06757,3.89266 1.39462,3.81848c1.80121,-0.40857 3.50356,-1.67169 5.30963,-2.16429c4.10392,-1.11935 8.61105,-1.34799 12.83512,-1.47599c5.03693,-0.15263 9.1999,1.76518 13.92108,3.44044c1.71007,0.6068 4.30356,1.04024 5.78244,2.08015c2.85135,2.005 4.47486,5.90989 5.77466,8.96158c4.09635,9.61752 6.89044,19.11207 7.25293,29.62438c0.1638,5.33113 -4.04627,7.67981 -7.48666,11.1204c-1.65032,1.65042 -3.85652,3.79431 -3.22301,6.46488c0.37501,1.58087 3.30724,3.31186 4.46255,4.35115c5.23485,3.48005 10.99068,6.73221 15.44244,11.18397c1.91188,1.91188 4.20993,5.00267 3.04569,7.93508c-0.0487,0.12267 -1.73311,2.50717 -1.8427,2.66312c-3.98723,4.01699 -8.20379,5.96129 -13.03992,8.70284c-4.00168,2.26851 -8.15272,4.90665 -12.49846,6.37606c-3.56924,1.18346 -7.49116,1.3358 -11.19278,1.97166c-2.55633,0.43913 -5.48012,1.4097 -8.08165,1.25907c-0.44595,-0.02582 -1.02676,0.11657 -1.32217,-0.2185c-0.6064,-0.6878 0.14608,-6.69859 -1.37641,-4.15335c-1.30347,1.5203 -3.05068,3.78234 -5.12672,4.29794c-2.18818,0.54345 -5.43655,-0.18123 -7.69942,-0.26845c-5.52166,-0.21283 -11.04382,-0.41565 -16.56492,-0.64249c-10.04101,-2.48588 -20.93348,-4.17044 -30.3613,-8.43541c-5.54816,-2.50988 -12.32868,-4.47201 -16.96363,-8.5019l-0.25076,-0.21942c-1.13362,1.87882 -3.08856,3.01897 -5.3847,3.6231z"/></g></g></svg>