<svg version="1.1" xmlns="http://www.w3.org/2000/svg" xmlns:xlink="http://www.w3.org/1999/xlink" width="34.17311" height="34.17311" viewBox="0,0,34.17311,34.17311"><g transform="translate(-302.91345,-162.91346)"><g stroke-miterlimit="10"><path d="M309.98312,162.91347h20.03379c3.9166,0 7.06966,3.15307 7.06966,7.06966v20.03379c0,3.91659 -3.15306,7.06966 -7.06966,7.06966h-20.03379c-3.91659,0 -7.06966,-3.15307 -7.06966,-7.06966v-20.03379c0,-3.91659 3.15307,-7.06966 7.06966,-7.06966z" fill="#2ada0e" fill-rule="evenodd" stroke="none" stroke-width="4.43922" stroke-linecap="round" stroke-linejoin="round"/><g fill-rule="nonzero" stroke-width="2.5" stroke-linecap="butt" stroke-linejoin="miter"><g stroke="#000000"><path d="M313.77766,188.27396c-0.08026,-0.99628 1.21067,-1.76465 1.12318,-2.69573c0,0 0,-0.84157 1.60287,-0.84157c1.60287,0 1.60287,0.84157 1.60287,0.84157c-0.0143,0.28099 0.06662,0.56783 -0.04287,0.84299c-0.19979,0.50207 -0.87095,0.9272 -1.10496,1.42518c-0.19796,0.42127 0.14907,0.95297 0.40578,1.37474c-1.09499,0.01066 -2.18996,0.02273 -3.2849,0.03619c-0.15564,-0.31585 -0.2742,-0.63879 -0.30196,-0.98337z" fill="#39940f"/><path d="M312.56039,186.56238c0.20952,-0.65284 0.66446,-1.26768 0.90931,-1.91694c0,0 0.31435,-0.82522 1.8861,-0.66018c1.57175,0.16504 1.25739,0.99027 1.25739,0.99027c-0.55807,1.45246 -1.21549,2.80209 -1.25066,4.26666c-1.07242,0.01211 -2.14482,0.02559 -3.21719,0.04038c-0.01292,-0.90937 0.13412,-1.84483 0.41506,-2.72019z" fill="#28670a"/><path d="M316.70301,187.45556c-0.09919,-0.80961 0.09546,-1.61598 -0.10256,-2.42258c0,0 -0.19881,-0.83507 1.39168,-0.93945c1.59049,-0.10439 1.78931,0.73069 1.78931,0.73069c0.19693,0.84838 0.01769,1.68885 0.12241,2.53827c0.07589,0.61551 0.26433,1.22466 0.4557,1.83305c-1.07689,0.00793 -2.15375,0.01725 -3.2306,0.02792c-0.1812,-0.58662 -0.35322,-1.1743 -0.42594,-1.7679z" fill="#448f21"/><path d="M311.1955,184.79335c0,0 0.14511,-0.83811 1.7414,-0.76192c1.59629,0.0762 1.45117,0.91431 1.45117,0.91431c-0.2496,1.44004 -0.28924,2.87401 -0.3689,4.31234c-1.07085,0.01322 -2.14167,0.02777 -3.21247,0.04366c0.08385,-1.50422 0.12841,-3.00299 0.38879,-4.50838z" fill="#275313"/><path d="M320.32299,188.02357c-0.23401,-0.49797 -0.90517,-0.9231 -1.10495,-1.42517c-0.10949,-0.27516 -0.02858,-0.56199 -0.04288,-0.84298c0,0 0,-0.84158 1.60287,-0.84158c1.60287,0 1.60288,0.84158 1.60288,0.84158c-0.08749,0.93108 1.20344,1.69946 1.12318,2.69574c-0.02028,0.25168 -0.089,0.49182 -0.18523,0.72608c-1.09329,0.00547 -2.18657,0.01238 -3.27983,0.02071c0.22827,-0.3814 0.45166,-0.81751 0.28397,-1.17437z" fill="#39940f"/><path d="M320.66856,185.1527c0,0 -0.31435,-0.82523 1.25739,-0.99027c1.57175,-0.16504 1.8861,0.66018 1.8861,0.66018c0.24485,0.64927 0.69979,1.26411 0.90931,1.91694c0.25112,0.78246 0.39526,1.61295 0.41379,2.4299c-1.07562,0.00382 -2.15122,0.00903 -3.22682,0.01563c-0.09439,-1.3751 -0.71158,-2.65768 -1.23977,-4.03238z" fill="#28670a"/><path d="M317.3779,187.53965c0.10472,-0.84942 -0.07452,-1.68989 0.12241,-2.53827c0,0 0.19882,-0.83508 1.78931,-0.73069c1.59049,0.10439 1.39168,0.93946 1.39168,0.93946c-0.19802,0.8066 -0.00336,1.61297 -0.10255,2.42258c-0.0643,0.5248 -0.2062,1.04497 -0.36345,1.56387c-1.08227,0.00809 -2.16454,0.01759 -3.24678,0.02845c0.1748,-0.55933 0.33963,-1.11968 0.40938,-1.6854z" fill="#448f21"/><path d="M322.89366,185.1229c0,0 -0.14512,-0.83811 1.45117,-0.91431c1.59629,-0.0762 1.74141,0.76193 1.74141,0.76193c0.2423,1.40081 0.2977,2.79588 0.37179,4.19495c-1.06979,0.00265 -2.13959,0.00669 -3.20937,0.0121c-0.07125,-1.35197 -0.12031,-2.70064 -0.35501,-4.05468z" fill="#275313"/></g><g stroke="none"><path d="M313.77766,188.27397c-0.08026,-0.99628 1.21067,-1.76466 1.12318,-2.69574c0,0 0,-0.84157 1.60287,-0.84157c1.60287,0 1.60287,0.84157 1.60287,0.84157c-0.0143,0.28099 0.06662,0.56784 -0.04287,0.84299c-0.19979,0.50207 -0.87095,0.9272 -1.10496,1.42517c-0.19796,0.42127 0.14907,0.95297 0.40577,1.37474c-1.09499,0.01066 -2.18995,0.02273 -3.2849,0.03619c-0.15564,-0.31585 -0.2742,-0.63879 -0.30196,-0.98336z" fill="#39940f"/><path d="M312.56039,186.56238c0.20952,-0.65284 0.66446,-1.26768 0.90931,-1.91694c0,0 0.31435,-0.82523 1.8861,-0.66018c1.57175,0.16504 1.2574,0.99027 1.2574,0.99027c-0.55807,1.45246 -1.2155,2.80209 -1.25067,4.26666c-1.07242,0.01211 -2.14483,0.02559 -3.2172,0.04038c-0.01292,-0.90937 0.13412,-1.84483 0.41506,-2.72019z" fill="#28670a"/><path d="M316.70301,187.45556c-0.09918,-0.80961 0.09546,-1.61598 -0.10256,-2.42258c0,0 -0.19881,-0.83507 1.39168,-0.93946c1.59049,-0.10439 1.78931,0.73069 1.78931,0.73069c0.19693,0.84838 0.01768,1.68885 0.1224,2.53827c0.07589,0.61551 0.26434,1.22466 0.45571,1.83305c-1.07689,0.00793 -2.15376,0.01725 -3.23061,0.02792c-0.1812,-0.58661 -0.35321,-1.17429 -0.42593,-1.76789z" fill="#448f21"/><path d="M311.1955,184.79334c0,0 0.14511,-0.83812 1.7414,-0.76192c1.59629,0.0762 1.45117,0.91431 1.45117,0.91431c-0.2496,1.44004 -0.28924,2.87401 -0.3689,4.31234c-1.07085,0.01322 -2.14167,0.02777 -3.21247,0.04366c0.08385,-1.50422 0.12841,-3.00299 0.38879,-4.50839z" fill="#275313"/><path d="M320.32299,188.02357c-0.23401,-0.49797 -0.90516,-0.9231 -1.10495,-1.42517c-0.10949,-0.27516 -0.02858,-0.562 -0.04288,-0.84299c0,0 0,-0.84158 1.60287,-0.84158c1.60287,0 1.60288,0.84158 1.60288,0.84158c-0.08749,0.93108 1.20344,1.69946 1.12318,2.69574c-0.02028,0.25168 -0.089,0.49182 -0.18523,0.72608c-1.09329,0.00547 -2.18657,0.01238 -3.27983,0.02071c0.22827,-0.3814 0.45166,-0.8175 0.28396,-1.17436z" fill="#39940f"/><path d="M320.66856,185.1527c0,0 -0.31435,-0.82523 1.2574,-0.99027c1.57175,-0.16504 1.88609,0.66019 1.88609,0.66019c0.24485,0.64927 0.69979,1.2641 0.90931,1.91694c0.25112,0.78247 0.39526,1.61296 0.41379,2.42991c-1.07562,0.00382 -2.15122,0.00903 -3.22682,0.01563c-0.09439,-1.3751 -0.71158,-2.65769 -1.23977,-4.03239z" fill="#28670a"/><path d="M317.3779,187.53966c0.10472,-0.84942 -0.07452,-1.6899 0.12241,-2.53827c0,0 0.19882,-0.83507 1.78931,-0.73069c1.59049,0.10439 1.39168,0.93946 1.39168,0.93946c-0.19802,0.8066 -0.00337,1.61297 -0.10255,2.42258c-0.0643,0.5248 -0.2062,1.04497 -0.36345,1.56387c-1.08227,0.00809 -2.16454,0.01759 -3.24678,0.02845c0.1748,-0.55933 0.33963,-1.11967 0.40938,-1.68539z" fill="#448f21"/><path d="M322.89366,185.1229c0,0 -0.14512,-0.83811 1.45117,-0.91431c1.59629,-0.0762 1.74141,0.76193 1.74141,0.76193c0.2423,1.40081 0.2977,2.79588 0.37179,4.19495c-1.06979,0.00265 -2.13959,0.00669 -3.20937,0.0121c-0.07125,-1.35197 -0.12031,-2.70064 -0.35501,-4.05468z" fill="#275313"/></g></g><g fill-rule="nonzero" stroke="#000000" stroke-width="2.5" stroke-linejoin="miter"><path d="" fill="#000000" stroke-linecap="round"/><path d="M322.7203,182.12167c-0.21494,-0.16418 -0.3449,-0.42412 -0.32808,-0.7167c0.01897,-0.32997 0.21986,-0.61843 0.5036,-0.77482c0.25236,-0.38827 1.31535,-0.03556 1.63038,0.10436c1.15063,0.51108 2.21977,1.98404 2.63205,3.13065c0.6173,1.71681 0.28397,3.5044 -0.16907,5.2991c-0.63686,0.00131 -1.27371,0.0031 -1.91056,0.00539c0.29904,-1.50334 0.5247,-3.00804 0.3379,-4.52887c-0.08258,-0.6723 -1.12277,-1.88124 -1.58626,-2.19442c-0.17781,-0.12015 -0.36921,-0.12717 -0.56188,-0.14235c-0.08522,-0.00037 -0.1671,-0.01179 -0.24427,-0.03283c-0.0711,-0.01626 -0.14164,-0.0407 -0.21101,-0.07954c-0.03499,-0.0196 -0.06564,-0.04319 -0.09279,-0.06998z" fill="#9efd71" stroke-linecap="butt"/><path d="M327.28979,180.10818c0.10285,-0.41964 0.50187,-0.73792 0.95967,-0.73792c0.26774,0 0.50285,0.10886 0.66285,0.2832c0.02756,0.03003 0.0529,0.062 0.07578,0.0957c0.35852,0.31768 0.77455,0.59357 1.16001,0.8814c0.00697,0.0052 0.00943,0.01475 0.01629,0.02009c2.51303,1.95407 2.69653,5.3525 2.45721,8.51502c-0.6376,-0.00163 -1.2752,-0.00275 -1.9128,-0.00338c0.09269,-1.33087 0.13091,-2.71673 -0.0395,-3.90405c-0.14614,-1.0182 -0.49005,-2.10042 -1.26071,-2.80726c-0.57731,-0.52949 -2.25533,-1.19989 -2.14591,-2.23191c0.00416,-0.03919 0.01344,-0.07604 0.02712,-0.11088z" fill="#9efd71" stroke-linecap="butt"/><path d="M325.0578,180.26931c0.0807,0 0.15843,0.00989 0.23204,0.02849c0.20026,-0.05189 0.50092,0.32872 0.61747,0.45977c0.54794,0.6161 0.97871,1.20469 1.41148,1.90439c1.27448,2.06056 1.17149,4.26013 0.84828,6.50046c-0.61736,0.00068 -1.23473,0.00181 -1.85209,0.00341c0.19977,-1.34852 0.30393,-2.70139 0.01352,-4.07711c-0.22866,-1.08318 -0.95768,-2.05404 -1.65722,-2.87159c-0.1393,-0.16281 -0.82055,-0.78927 -0.59734,-1.04875c0.02854,-0.49654 0.46903,-0.89907 0.98386,-0.89907z" fill="#67dc31" stroke-linecap="butt"/><path d="M329.56884,186.85309c-0.24807,-1.09632 -0.75572,-2.10162 -1.03224,-3.18999c-0.49292,-1.94008 -0.3102,-2.51551 -1.62543,-4.2266c-0.35404,-0.4606 -0.79524,-1.09456 -0.01383,-1.63724c0.88067,-0.6116 1.33031,0.24273 1.715,0.72813c1.14234,1.4414 1.40382,2.86958 1.74781,4.64834c0.12923,0.66821 0.39751,1.16074 0.60332,1.80702c0.31613,0.9927 0.53579,2.01994 0.69362,3.05487c0.06284,0.41201 0.09761,0.77711 0.13879,1.12621c-0.63533,-0.00119 -1.27067,-0.00188 -1.906,-0.00208c-0.07814,-0.77391 -0.16924,-1.63786 -0.32102,-2.30865z" fill="#67dc31" stroke-linecap="butt"/><path d="M328.08675,177.56883c0.21213,0.16437 0.34008,0.42264 0.32339,0.71309c-0.00045,0.00791 -0.00101,0.01581 -0.00168,0.02367c0.01871,0.10823 -0.01351,0.20745 -0.0784,0.29832c-0.15367,0.33749 -0.5066,0.57707 -0.90379,0.57707c-0.35394,0.16606 -0.81279,-0.46323 -1.0412,-0.58473c-0.80643,-0.42898 -1.77354,-0.92825 -2.75176,-0.92948c-1.1058,-0.0014 -2.40953,0.20108 -3.44572,0.70273c-0.24212,0.11722 -0.61425,0.48622 -0.93806,0.52874c-0.49858,0.06547 -0.94651,0.12529 -1.14644,-0.56861c-0.33207,-1.15248 1.78958,-1.76366 2.56826,-1.98897c2.18776,-0.63304 4.47708,-0.63788 6.38625,0.50699c0.42946,0.25753 0.78392,0.43439 1.02913,0.72118z" fill="#67dc31" stroke-linecap="butt"/><path d="M327.74796,179.55953c-0.00045,0.00791 -0.00101,0.01581 -0.00168,0.02368c0.01173,0.06784 0.00345,0.13213 -0.02035,0.19305c1.02929,1.31344 2.48751,3.29923 2.28188,4.78584c-0.15186,1.09789 -0.19356,2.21641 -0.51545,3.28865c-0.13009,0.43331 -0.30082,0.86991 -0.45827,1.31103c-0.65262,0.00026 -1.30524,0.00102 -1.95786,0.00231c0.39731,-1.50732 0.99868,-2.97332 1.05728,-4.58721c0.06344,-1.74693 -1.74306,-3.13373 -2.57528,-4.42012c-0.07684,-0.11877 -0.11732,-0.26232 -0.12216,-0.41175c-0.00139,-0.02987 -0.00124,-0.06017 0.00052,-0.09083c0.00354,-0.06159 0.01342,-0.12173 0.02899,-0.17983c0.00108,-0.00431 0.00219,-0.00862 0.00333,-0.01292c-0.59065,-0.3239 -1.4965,-0.50768 -2.08023,-0.51703c-0.85059,-0.01362 -1.69036,-0.10972 -2.52469,0.09371c-0.5106,0.1245 -1.24647,0.92341 -1.77809,0.56847c-0.25092,-0.16753 -0.47241,-0.45266 -0.47777,-0.75388c-0.02053,-1.15378 1.89723,-1.63902 2.79344,-1.69264c1.8351,-0.10981 5.18526,-0.06988 6.13832,1.79426c0.14168,0.15974 0.22145,0.37213 0.20806,0.60523z" fill="#4cc513" stroke-linecap="butt"/><path d="M330.25873,184.08666c0.24228,0.04726 0.31208,0.65326 0.34794,0.87081c0.1879,1.14019 0.14929,2.30283 0.11449,3.4708c-0.0073,0.24501 -0.02209,0.48964 -0.0415,0.73397c-0.62905,-0.00061 -1.25811,-0.00071 -1.88716,-0.00035c0.02774,-0.25102 0.05028,-0.48761 0.06261,-0.70194c0.05099,-0.88608 0.07376,-1.90598 -0.03546,-2.79221c-0.04109,-0.33341 -0.20855,-0.74624 -0.12313,-1.0808c0.00986,-0.0386 0.02448,-0.07436 0.04315,-0.10771c0.16255,-0.29042 0.63128,-0.39848 0.91951,-0.61366z" fill="#7ade4c" stroke-linecap="butt"/><path d="M323.14067,182.30194c-0.22451,0.13921 -1.02209,-0.32874 -1.32486,-0.32915c-0.29291,-0.00039 -0.58582,-0.00103 -0.87882,0c-0.43568,0.00153 -0.62045,0.46916 -1.1565,0.43148c-0.61973,-0.04357 -0.92491,-0.87416 -0.64866,-1.40725c0.23849,-0.46023 0.77666,-0.50382 1.18959,-0.67578c0.80507,-0.33526 2.16799,-0.30035 3.0177,0.19787c0.35876,0.21036 0.62603,0.5033 0.7212,0.88585z" fill="#9efd71" stroke-linecap="butt"/><path d="M325.55721,180.30065c0.22214,0.16358 0.35732,0.42774 0.34019,0.72577c-0.00045,0.00791 -0.00101,0.01581 -0.00168,0.02367c0.01871,0.10823 -0.01351,0.20745 -0.0784,0.29832c-0.15367,0.33749 -0.50661,0.57707 -0.90379,0.57707c-0.22575,0.10592 -0.3955,-0.01114 -0.53652,-0.1705c-0.12455,-0.09067 -0.22211,-0.21279 -0.28134,-0.35477c-0.02754,-0.02934 -0.0546,-0.05313 -0.08157,-0.06876c-0.43713,-0.25344 -1.02812,-0.63005 -1.56744,-0.70083c-0.58814,-0.07719 -1.31154,-0.08573 -1.87835,-0.07738c-0.37171,0.00547 -0.55083,0.65914 -1.10144,0.47879c-0.29158,-0.09551 -0.62826,-0.23246 -0.75277,-0.50259c-0.44878,-0.97362 0.97913,-1.61731 1.72075,-1.77433c1.45927,-0.30895 4.14345,0.26985 5.12235,1.54555z" fill="#67dc31" stroke-linecap="butt"/></g><g fill-rule="nonzero" stroke="#000000" stroke-width="2.5" stroke-linejoin="miter"><path d="" fill="#000000" stroke-linecap="round"/><path d="M315.94682,180.96343c-0.0716,0.03636 -0.14356,0.05925 -0.21559,0.07447c-0.07838,0.0197 -0.16091,0.03037 -0.24615,0.03072c-0.19353,0.01421 -0.38535,0.02078 -0.57006,0.13324c-0.48149,0.29316 -1.59118,1.42479 -1.7124,2.0541c-0.38908,2.01985 0.05406,4.00931 0.35841,6.00785c-0.60288,0.00765 -1.20576,0.01574 -1.80862,0.02424c-0.44736,-2.27543 -1.21835,-4.57775 -0.24694,-6.75811c0.47818,-1.0733 1.63199,-2.45208 2.812,-2.93048c0.32308,-0.13098 1.40634,-0.46113 1.63638,-0.09769c0.27475,0.1464 0.45907,0.4164 0.45907,0.72528c0,0.27387 -0.1449,0.51719 -0.36927,0.67087c-0.0287,0.02508 -0.0607,0.04716 -0.09682,0.06551z" fill="#9efd71" stroke-linecap="butt"/><path d="M311.61062,179.11697c0.0501,0.96603 -1.66645,1.59356 -2.2742,2.0892c-0.81129,0.66163 -1.2174,1.67465 -1.42207,2.62775c-0.36241,1.68763 -0.27005,3.80379 -0.21174,5.51755c-0.62794,0.01081 -1.25586,0.02206 -1.88378,0.03376c-0.1972,-3.39827 -0.33412,-7.63521 2.86527,-9.86427c0.00717,-0.005 0.01017,-0.01393 0.01744,-0.0188c0.402,-0.26943 0.83389,-0.52768 1.21068,-0.82504c0.02483,-0.03154 0.05199,-0.06147 0.08128,-0.08958c0.17002,-0.16318 0.41139,-0.26508 0.67913,-0.26508c0.45779,0 0.83852,0.29793 0.91726,0.69074c0.01168,0.03261 0.01883,0.0671 0.02074,0.10378z" fill="#9efd71" stroke-linecap="butt"/><path d="M312.26489,183.67525c-0.54417,1.89658 -0.22965,3.74678 -0.01488,5.60588c-0.62104,0.00852 -1.24209,0.01748 -1.86311,0.02689c-0.28904,-2.71963 -0.76698,-5.41994 1.0272,-7.90436c0.473,-0.65497 0.93759,-1.20592 1.52094,-1.78262c0.12408,-0.12267 0.44662,-0.47894 0.64389,-0.43037c0.07468,-0.0174 0.15298,-0.02666 0.23368,-0.02666c0.51483,0 0.93218,0.37679 0.93218,0.84158c0.2083,0.24289 -0.50896,0.8293 -0.65762,0.9817c-0.74653,0.76527 -1.53137,1.67404 -1.82228,2.68796z" fill="#67dc31" stroke-linecap="butt"/><path d="M306.76681,186.43558c0.21731,-0.96875 0.49602,-1.9303 0.86921,-2.85953c0.24296,-0.60495 0.53955,-1.06599 0.70718,-1.69147c0.44624,-1.66502 0.78981,-3.00187 2.01501,-4.3511c0.41259,-0.45435 0.91133,-1.25408 1.75685,-0.68158c0.75022,0.50797 0.27258,1.1014 -0.10793,1.53255c-1.41359,1.60168 -1.26395,2.14032 -1.86838,3.95635c-0.33909,1.01878 -0.90453,1.95979 -1.21562,2.98601c-0.25164,0.83009 -0.41661,1.97618 -0.56759,2.82578c-0.06633,0.37324 -0.15397,0.8474 -0.38363,1.19426c-0.58713,0.00999 -1.17426,0.02036 -1.76137,0.03113c-0.06439,-0.11436 -0.10069,-0.24377 -0.10069,-0.38085c0,-0.20466 0.08092,-0.39225 0.21544,-0.53813c0.2182,-0.65348 0.26806,-1.25018 0.44151,-2.02342z" fill="#67dc31" stroke-linecap="butt"/><path d="M312.00948,175.96114c1.97498,-1.07165 4.26403,-1.06713 6.41539,-0.47458c0.76574,0.2109 2.85224,0.78301 2.45393,1.8618c-0.23982,0.64953 -0.68431,0.59355 -1.17913,0.53226c-0.32136,-0.0398 -0.67228,-0.38522 -0.90766,-0.49494c-1.00736,-0.46958 -2.29944,-0.6591 -3.40533,-0.65779c-0.97829,0.00116 -1.9741,0.46849 -2.80519,0.87005c-0.23539,0.11373 -0.73041,0.70278 -1.07481,0.54734c-0.39718,0 -0.73634,-0.22425 -0.87061,-0.54017c-0.05966,-0.08506 -0.08618,-0.17794 -0.06124,-0.27924c-0.00021,-0.00736 -0.00032,-0.01475 -0.00032,-0.02216c0,-0.27187 0.1428,-0.51364 0.36438,-0.6675c0.26169,-0.26845 0.62631,-0.434 1.07058,-0.67506z" fill="#67dc31" stroke-linecap="butt"/><path d="M320.3437,177.83797c-0.02267,0.28197 -0.26056,0.54886 -0.52111,0.70568c-0.55203,0.33225 -1.24196,-0.41559 -1.74541,-0.53213c-0.82263,-0.19043 -1.66793,-0.10047 -2.5193,-0.08772c-0.58427,0.00875 -1.50068,0.18078 -2.10994,0.48397c0.0009,0.00403 0.00176,0.00806 0.00259,0.01209c0.01223,0.05439 0.01865,0.11069 0.01865,0.16834c0,0.0287 -0.00159,0.05706 -0.0047,0.08503c-0.01342,0.13988 -0.06216,0.27425 -0.14582,0.38543c-0.90616,1.20414 -2.79238,2.50227 -2.82936,4.1375c-0.04843,2.1418 1.01118,4.00535 1.01964,6.09535c-0.61983,0.00886 -1.23964,0.01816 -1.85945,0.0279c0.05266,-1.04952 -0.44911,-2.06337 -0.70722,-3.05873c-0.26026,-1.00367 -0.23766,-2.05067 -0.32641,-3.07836c-0.12018,-1.39156 1.45218,-3.25037 2.55697,-4.47983c-0.02029,-0.05703 -0.02487,-0.11722 -0.00924,-0.18071c-0.00021,-0.00736 -0.00032,-0.01475 -0.00032,-0.02216c0,-0.2182 0.09198,-0.417 0.24284,-0.56653c1.06021,-1.74495 4.41267,-1.78233 6.24145,-1.67954c0.89313,0.0502 2.783,0.50441 2.69615,1.58442z" fill="#4cc513" stroke-linecap="butt"/><path d="M309.00452,182.53031c0.27585,0.20143 0.73838,0.30257 0.88423,0.57442c0.01675,0.03122 0.02933,0.06469 0.03696,0.10082c0.06618,0.31317 -0.12501,0.69961 -0.18526,1.0117c-0.16017,0.82958 -0.19601,1.78425 -0.19596,2.61367c0.00005,0.68403 0.10388,1.61036 0.13074,2.48808c-0.63565,0.00998 -1.27128,0.02043 -1.90691,0.03133c-0.03451,-0.84705 -0.11329,-1.6956 -0.08805,-2.54907c0.03233,-1.09329 0.06056,-2.18158 0.31399,-3.24886c0.04836,-0.20364 0.15299,-0.7709 0.39799,-0.81513z" fill="#7ade4c" stroke-linecap="butt"/><path d="M314.7448,180.22705c0.11716,-0.35809 0.40127,-0.63231 0.77213,-0.82922c0.87835,-0.46637 2.24327,-0.49904 3.02907,-0.18521c0.40305,0.16097 0.93871,0.20176 1.15075,0.63256c0.24561,0.49901 -0.10732,1.27649 -0.72955,1.31727c-0.53821,0.03528 -0.69611,-0.40245 -1.13169,-0.40389c-0.29293,-0.00097 -0.58588,-0.00037 -0.87882,0c-0.3028,0.00038 -1.12726,0.43841 -1.34377,0.3081z" fill="#9efd71" stroke-linecap="butt"/><path d="M318.52259,177.74663c0.7326,0.14698 2.12351,0.74951 1.61876,1.66087c-0.14004,0.25286 -0.48459,0.38105 -0.78166,0.47045c-0.56098,0.16882 -0.70252,-0.44306 -1.07392,-0.44818c-0.56633,-0.00781 -1.29022,0.00018 -1.8828,0.07244c-0.54339,0.06626 -1.15603,0.41878 -1.60772,0.65601c-0.02787,0.01463 -0.05629,0.03691 -0.08552,0.06437c-0.06739,0.1329 -0.17198,0.24722 -0.30174,0.33209c-0.15017,0.14917 -0.32665,0.25875 -0.54631,0.1596c-0.39718,0 -0.73635,-0.22425 -0.87062,-0.54017c-0.05966,-0.08506 -0.08618,-0.17794 -0.06124,-0.27924c-0.00021,-0.00736 -0.00032,-0.01476 -0.00032,-0.02217c0,-0.27898 0.15036,-0.52624 0.3819,-0.67936c1.05223,-1.19413 3.76968,-1.73592 5.21119,-1.44672z" fill="#67dc31" stroke-linecap="butt"/></g><path d="M307.08591,187.31847c0,-5.90019 5.09548,-10.68326 11.38108,-10.68326c6.2856,0 11.38108,4.78306 11.38108,10.68326c0,0.62857 -0.05783,1.24445 -0.16877,1.84323c-7.46258,-0.00104 -14.92524,0.06616 -22.38612,0.19688c-0.13603,-0.66037 -0.20727,-1.34243 -0.20727,-2.0401z" fill="#4cc114" fill-rule="nonzero" stroke="#000000" stroke-width="2.5" stroke-linecap="butt" stroke-linejoin="miter"/><g fill-rule="nonzero" stroke-width="2.5" stroke-linejoin="miter"><path d="" fill="#000000" stroke="#000000" stroke-linecap="round"/><path d="M315.94682,180.96343c-0.0716,0.03636 -0.14356,0.05925 -0.21559,0.07447c-0.07838,0.0197 -0.16091,0.03037 -0.24615,0.03072c-0.19353,0.01421 -0.38535,0.02078 -0.57006,0.13324c-0.48149,0.29316 -1.59118,1.42479 -1.7124,2.0541c-0.38908,2.01985 0.05406,4.00931 0.35841,6.00785c-0.60288,0.00765 -1.20576,0.01574 -1.80862,0.02424c-0.44736,-2.27543 -1.21835,-4.57775 -0.24694,-6.75811c0.47818,-1.0733 1.63199,-2.45208 2.812,-2.93048c0.32308,-0.13098 1.40634,-0.46113 1.63638,-0.09769c0.27475,0.1464 0.45907,0.4164 0.45907,0.72528c0,0.27387 -0.1449,0.51719 -0.36927,0.67087c-0.0287,0.02508 -0.0607,0.04716 -0.09682,0.06551z" fill="#9efd71" stroke="none" stroke-linecap="butt"/><path d="M311.61062,179.11697c0.0501,0.96603 -1.66645,1.59356 -2.2742,2.0892c-0.81129,0.66163 -1.2174,1.67465 -1.42207,2.62775c-0.36241,1.68763 -0.27005,3.80379 -0.21174,5.51755c-0.62794,0.01081 -1.25586,0.02206 -1.88378,0.03376c-0.1972,-3.39827 -0.33412,-7.63521 2.86527,-9.86427c0.00717,-0.005 0.01017,-0.01393 0.01744,-0.0188c0.402,-0.26943 0.83389,-0.52768 1.21068,-0.82504c0.02483,-0.03154 0.05199,-0.06147 0.08128,-0.08958c0.17002,-0.16318 0.41139,-0.26508 0.67913,-0.26508c0.45779,0 0.83852,0.29793 0.91726,0.69074c0.01168,0.03261 0.01883,0.0671 0.02074,0.10378z" fill="#9efd71" stroke="none" stroke-linecap="butt"/><path d="M312.26489,183.67525c-0.54417,1.89658 -0.22965,3.74678 -0.01488,5.60588c-0.62104,0.00852 -1.24209,0.01748 -1.86311,0.02689c-0.28904,-2.71963 -0.76698,-5.41994 1.0272,-7.90436c0.473,-0.65497 0.93759,-1.20592 1.52094,-1.78262c0.12408,-0.12267 0.44662,-0.47894 0.64389,-0.43037c0.07468,-0.0174 0.15298,-0.02666 0.23368,-0.02666c0.51483,0 0.93218,0.37679 0.93218,0.84158c0.2083,0.24289 -0.50896,0.8293 -0.65762,0.9817c-0.74653,0.76527 -1.53137,1.67404 -1.82228,2.68796z" fill="#67dc31" stroke="none" stroke-linecap="butt"/><path d="M306.76681,186.43558c0.21731,-0.96875 0.49602,-1.9303 0.86921,-2.85953c0.24296,-0.60495 0.53955,-1.06599 0.70718,-1.69147c0.44624,-1.66502 0.78981,-3.00187 2.01501,-4.3511c0.41259,-0.45435 0.91133,-1.25408 1.75685,-0.68158c0.75022,0.50797 0.27258,1.1014 -0.10793,1.53255c-1.41359,1.60168 -1.26395,2.14032 -1.86838,3.95635c-0.33909,1.01878 -0.90453,1.95979 -1.21562,2.98601c-0.25164,0.83009 -0.41661,1.97618 -0.56759,2.82578c-0.06633,0.37324 -0.15397,0.8474 -0.38363,1.19426c-0.58713,0.00999 -1.17426,0.02036 -1.76137,0.03113c-0.06439,-0.11436 -0.10069,-0.24377 -0.10069,-0.38085c0,-0.20466 0.08092,-0.39225 0.21544,-0.53813c0.2182,-0.65348 0.26806,-1.25018 0.44151,-2.02342z" fill="#67dc31" stroke="none" stroke-linecap="butt"/><path d="M312.00948,175.96114c1.97498,-1.07165 4.26403,-1.06713 6.41539,-0.47458c0.76574,0.2109 2.85224,0.78301 2.45393,1.8618c-0.23982,0.64953 -0.68431,0.59355 -1.17913,0.53226c-0.32136,-0.0398 -0.67228,-0.38522 -0.90766,-0.49494c-1.00736,-0.46958 -2.29944,-0.6591 -3.40533,-0.65779c-0.97829,0.00116 -1.9741,0.46849 -2.80519,0.87005c-0.23539,0.11373 -0.73041,0.70278 -1.07481,0.54734c-0.39718,0 -0.73634,-0.22425 -0.87061,-0.54017c-0.05966,-0.08506 -0.08618,-0.17794 -0.06124,-0.27924c-0.00021,-0.00736 -0.00032,-0.01475 -0.00032,-0.02216c0,-0.27187 0.1428,-0.51364 0.36438,-0.6675c0.26169,-0.26845 0.62631,-0.434 1.07058,-0.67506z" fill="#67dc31" stroke="none" stroke-linecap="butt"/><path d="M320.3437,177.83797c-0.02267,0.28197 -0.26056,0.54886 -0.52111,0.70568c-0.55203,0.33225 -1.24196,-0.41559 -1.74541,-0.53213c-0.82263,-0.19043 -1.66793,-0.10047 -2.5193,-0.08772c-0.58427,0.00875 -1.50068,0.18078 -2.10994,0.48397c0.0009,0.00403 0.00176,0.00806 0.00259,0.01209c0.01223,0.05439 0.01865,0.11069 0.01865,0.16834c0,0.0287 -0.00159,0.05706 -0.0047,0.08503c-0.01342,0.13988 -0.06216,0.27425 -0.14582,0.38543c-0.90616,1.20414 -2.79238,2.50227 -2.82936,4.1375c-0.04843,2.1418 1.01118,4.00535 1.01964,6.09535c-0.61983,0.00886 -1.23964,0.01816 -1.85945,0.0279c0.05266,-1.04952 -0.44911,-2.06337 -0.70722,-3.05873c-0.26026,-1.00367 -0.23766,-2.05067 -0.32641,-3.07836c-0.12018,-1.39156 1.45218,-3.25037 2.55697,-4.47983c-0.02029,-0.05703 -0.02487,-0.11722 -0.00924,-0.18071c-0.00021,-0.00736 -0.00032,-0.01475 -0.00032,-0.02216c0,-0.2182 0.09198,-0.417 0.24284,-0.56653c1.06021,-1.74495 4.41267,-1.78233 6.24145,-1.67954c0.89313,0.0502 2.783,0.50441 2.69615,1.58442z" fill="#4cc513" stroke="none" stroke-linecap="butt"/><path d="M309.00452,182.53031c0.27585,0.20143 0.73838,0.30257 0.88423,0.57442c0.01675,0.03122 0.02933,0.06469 0.03696,0.10082c0.06618,0.31317 -0.12501,0.69961 -0.18526,1.0117c-0.16017,0.82958 -0.19601,1.78425 -0.19596,2.61367c0.00005,0.68403 0.10388,1.61036 0.13074,2.48808c-0.63565,0.00998 -1.27128,0.02043 -1.90691,0.03133c-0.03451,-0.84705 -0.11329,-1.6956 -0.08805,-2.54907c0.03233,-1.09329 0.06056,-2.18158 0.31399,-3.24886c0.04836,-0.20364 0.15299,-0.7709 0.39799,-0.81513z" fill="#7ade4c" stroke="none" stroke-linecap="butt"/><path d="M314.7448,180.22705c0.11716,-0.35809 0.40127,-0.63231 0.77213,-0.82922c0.87835,-0.46637 2.24327,-0.49904 3.02907,-0.18521c0.40305,0.16097 0.93871,0.20176 1.15075,0.63256c0.24561,0.49901 -0.10732,1.27649 -0.72955,1.31727c-0.53821,0.03528 -0.69611,-0.40245 -1.13169,-0.40389c-0.29293,-0.00097 -0.58588,-0.00037 -0.87882,0c-0.3028,0.00038 -1.12726,0.43841 -1.34377,0.3081z" fill="#9efd71" stroke="none" stroke-linecap="butt"/><path d="M318.52259,177.74663c0.7326,0.14698 2.12351,0.74951 1.61876,1.66087c-0.14004,0.25286 -0.48459,0.38105 -0.78166,0.47045c-0.56098,0.16882 -0.70252,-0.44306 -1.07392,-0.44818c-0.56633,-0.00781 -1.29022,0.00018 -1.8828,0.07244c-0.54339,0.06626 -1.15603,0.41878 -1.60772,0.65601c-0.02787,0.01463 -0.05629,0.03691 -0.08552,0.06437c-0.06739,0.1329 -0.17198,0.24722 -0.30174,0.33209c-0.15017,0.14917 -0.32665,0.25875 -0.54631,0.1596c-0.39718,0 -0.73635,-0.22425 -0.87062,-0.54017c-0.05966,-0.08506 -0.08618,-0.17794 -0.06124,-0.27924c-0.00021,-0.00736 -0.00032,-0.01476 -0.00032,-0.02217c0,-0.27898 0.15036,-0.52624 0.3819,-0.67936c1.05223,-1.19413 3.76968,-1.73592 5.21119,-1.44672z" fill="#67dc31" stroke="none" stroke-linecap="butt"/></g><g fill-rule="nonzero" stroke-width="2.5" stroke-linejoin="miter"><path d="" fill="#000000" stroke="#000000" stroke-linecap="round"/><path d="M322.7203,182.12167c-0.21494,-0.16418 -0.3449,-0.42412 -0.32808,-0.7167c0.01897,-0.32997 0.21986,-0.61843 0.5036,-0.77482c0.25236,-0.38827 1.31535,-0.03556 1.63038,0.10436c1.15063,0.51108 2.21977,1.98404 2.63205,3.13066c0.6173,1.71681 0.28397,3.50441 -0.16907,5.2991c-0.63686,0.00131 -1.27371,0.0031 -1.91056,0.00539c0.29904,-1.50334 0.5247,-3.00804 0.3379,-4.52887c-0.08258,-0.6723 -1.12277,-1.88124 -1.58626,-2.19442c-0.17781,-0.12015 -0.36921,-0.12717 -0.56188,-0.14235c-0.08522,-0.00037 -0.1671,-0.01179 -0.24427,-0.03283c-0.0711,-0.01626 -0.14164,-0.04071 -0.21101,-0.07955c-0.03499,-0.0196 -0.06563,-0.04318 -0.09279,-0.06998z" fill="#9efd71" stroke="none" stroke-linecap="butt"/><path d="M327.28979,180.10818c0.10285,-0.41965 0.50187,-0.73792 0.95967,-0.73792c0.26774,0 0.50286,0.10886 0.66286,0.2832c0.02756,0.03003 0.05289,0.062 0.07578,0.0957c0.35852,0.31768 0.77455,0.59357 1.16001,0.8814c0.00697,0.0052 0.00942,0.01476 0.01629,0.02009c2.51303,1.95407 2.69653,5.35249 2.45722,8.51501c-0.6376,-0.00163 -1.2752,-0.00275 -1.91281,-0.00338c0.09269,-1.33087 0.13091,-2.71673 -0.0395,-3.90405c-0.14614,-1.0182 -0.49004,-2.10042 -1.26071,-2.80725c-0.57731,-0.52949 -2.25533,-1.19989 -2.14591,-2.23191c0.00416,-0.03919 0.01344,-0.07603 0.02711,-0.11087z" fill="#9efd71" stroke="none" stroke-linecap="butt"/><path d="M324.07394,181.16838c0.02855,-0.49654 0.46903,-0.89907 0.98386,-0.89907c0.0807,0 0.15843,0.00989 0.23204,0.02849c0.20026,-0.05189 0.50092,0.32872 0.61747,0.45977c0.54794,0.6161 0.9787,1.20469 1.41147,1.90439c1.27448,2.06056 1.17149,4.26013 0.84828,6.50046c-0.61736,0.00068 -1.23472,0.00181 -1.85208,0.00341c0.19977,-1.34852 0.30393,-2.7014 0.01352,-4.07712c-0.22866,-1.08318 -0.95768,-2.05403 -1.65722,-2.87158c-0.1393,-0.16281 -0.82056,-0.78927 -0.59734,-1.04876z" fill="#67dc31" stroke="none" stroke-linecap="butt"/><path d="M329.56884,186.85309c-0.24807,-1.09632 -0.75573,-2.10162 -1.03225,-3.18999c-0.49292,-1.94008 -0.3102,-2.51551 -1.62543,-4.2266c-0.35404,-0.4606 -0.79524,-1.09456 -0.01382,-1.63724c0.88067,-0.61161 1.33032,0.24273 1.715,0.72813c1.14234,1.4414 1.40382,2.86958 1.74781,4.64834c0.12923,0.66821 0.39751,1.16074 0.60332,1.80702c0.31613,0.9927 0.53579,2.01995 0.69362,3.05487c0.06283,0.41201 0.09761,0.7771 0.13879,1.12621c-0.63533,-0.00119 -1.27067,-0.00188 -1.906,-0.00208c-0.07814,-0.77391 -0.16924,-1.63786 -0.32102,-2.30865z" fill="#67dc31" stroke="none" stroke-linecap="butt"/><path d="M328.08675,177.56883c0.21213,0.16437 0.34009,0.42264 0.3234,0.71309c-0.00045,0.00791 -0.00101,0.01581 -0.00168,0.02367c0.01871,0.10823 -0.01351,0.20745 -0.0784,0.29832c-0.15367,0.33749 -0.50661,0.57707 -0.90379,0.57707c-0.35394,0.16606 -0.81279,-0.46323 -1.04119,-0.58473c-0.80643,-0.42898 -1.77355,-0.92825 -2.75177,-0.92948c-1.1058,-0.0014 -2.40953,0.20108 -3.44572,0.70273c-0.24212,0.11721 -0.61425,0.48622 -0.93805,0.52874c-0.49858,0.06547 -0.94651,0.12529 -1.14644,-0.56861c-0.33207,-1.15248 1.78957,-1.76366 2.56826,-1.98897c2.18776,-0.63304 4.47708,-0.63787 6.38626,0.50699c0.42946,0.25753 0.78392,0.43439 1.02913,0.72118z" fill="#67dc31" stroke="none" stroke-linecap="butt"/><path d="M327.5399,178.9543c0.14168,0.15974 0.22145,0.37213 0.20806,0.60523c-0.00045,0.00791 -0.00101,0.01581 -0.00168,0.02368c0.01173,0.06784 0.00345,0.13213 -0.02035,0.19305c1.02929,1.31344 2.48751,3.29923 2.28188,4.78584c-0.15186,1.09789 -0.19356,2.21641 -0.51545,3.28865c-0.13009,0.43331 -0.30082,0.86991 -0.45827,1.31103c-0.65262,0.00026 -1.30524,0.00102 -1.95785,0.00231c0.39731,-1.50732 0.99867,-2.97332 1.05728,-4.5872c0.06344,-1.74693 -1.74306,-3.13373 -2.57528,-4.42013c-0.07684,-0.11877 -0.11732,-0.26232 -0.12216,-0.41175c-0.00139,-0.02988 -0.00124,-0.06018 0.00052,-0.09084c0.00354,-0.06159 0.01342,-0.12173 0.02899,-0.17983c0.00108,-0.00431 0.0022,-0.00862 0.00334,-0.01292c-0.59064,-0.3239 -1.4965,-0.50768 -2.08022,-0.51703c-0.85059,-0.01362 -1.69036,-0.10971 -2.52469,0.09372c-0.5106,0.1245 -1.24647,0.92342 -1.77808,0.56848c-0.25092,-0.16753 -0.47242,-0.45266 -0.47778,-0.75388c-0.02053,-1.15378 1.89723,-1.63902 2.79344,-1.69264c1.8351,-0.10981 5.18526,-0.06989 6.13832,1.79426z" fill="#4cc513" stroke="none" stroke-linecap="butt"/><path d="M330.54761,184.95748c0.1879,1.1402 0.14929,2.30283 0.11449,3.4708c-0.0073,0.24499 -0.02209,0.48961 -0.04149,0.73391c-0.62905,-0.00057 -1.25812,-0.00066 -1.88717,-0.00026c0.02774,-0.25104 0.05029,-0.48764 0.06262,-0.70198c0.05099,-0.88608 0.07376,-1.90597 -0.03546,-2.79221c-0.04109,-0.33341 -0.20855,-0.74624 -0.12313,-1.0808c0.00986,-0.0386 -2.69217,-3.73594 -2.67351,-3.76929c0.16255,-0.29042 -0.23004,-1.03703 0.21082,-1.32235c0.44085,-0.28532 1.30825,0.33922 1.30825,0.33922c0.24228,0.04726 3.02875,4.90543 3.06459,5.12297z" fill="#7ade4c" stroke="none" stroke-linecap="butt"/><path d="M323.14067,182.30194c-0.22451,0.13921 -1.02208,-0.32874 -1.32486,-0.32915c-0.29291,-0.00039 -0.58582,-0.00103 -0.87882,0c-0.43567,0.00153 -0.62045,0.46916 -1.1565,0.43148c-0.61973,-0.04357 -0.92491,-0.87416 -0.64866,-1.40725c0.23849,-0.46023 0.77666,-0.50381 1.18959,-0.67577c0.80507,-0.33526 2.16799,-0.30036 3.0177,0.19787c0.35875,0.21035 0.62603,0.50331 0.7212,0.88586z" fill="#9efd71" stroke="none" stroke-linecap="butt"/><path d="M325.55721,180.30065c0.22214,0.16358 0.35732,0.42774 0.34019,0.72577c-0.00045,0.00791 -0.00101,0.01581 -0.00168,0.02367c0.01871,0.10823 -0.01351,0.20745 -0.0784,0.29832c-0.15367,0.33749 -0.5066,0.57707 -0.90379,0.57707c-0.22575,0.10592 -0.3955,-0.01114 -0.53652,-0.1705c-0.12455,-0.09067 -0.22211,-0.21279 -0.28134,-0.35477c-0.02754,-0.02934 -0.0546,-0.05313 -0.08157,-0.06877c-0.43712,-0.25344 -1.02812,-0.63004 -1.56743,-0.70083c-0.58814,-0.07719 -1.31155,-0.08573 -1.87835,-0.07738c-0.37171,0.00547 -0.55083,0.65914 -1.10144,0.47879c-0.29158,-0.09551 -0.62825,-0.23246 -0.75277,-0.50259c-0.44878,-0.97362 0.97913,-1.61731 1.72075,-1.77433c1.45927,-0.30895 4.14344,0.26984 5.12234,1.54554z" fill="#67dc31" stroke="none" stroke-linecap="butt"/></g><path d="M320.41742,176.80908c0.46326,-0.97198 -0.23494,-1.61693 0.55437,-2.73965c0.78931,-1.12273 1.034,-1.86416 2.26531,-2.65219c1.23131,-0.78803 1.24574,-1.44256 3.44707,-1.00369c2.20133,0.43887 4.3234,1.94581 5.06343,2.70039c0.74003,0.75458 -0.03844,2.26389 0.21844,2.68538c0.25689,0.42149 0.31191,0.18067 1.11874,-0.49137c0.80683,-0.67203 1.63004,-1.2532 1.63004,-1.2532c0,0 -0.23423,1.82081 -1.04383,2.60385c-0.8096,0.78304 -1.63433,1.32354 -2.63138,0.43323c-0.99705,-0.89031 0.6572,-1.90262 -0.51355,-3.24147c-1.17074,-1.33884 -2.7413,-1.87706 -4.06342,-1.99271c-1.32212,-0.11564 -2.23027,0.26424 -3.02546,1.37267c-0.79519,1.10843 -0.61546,2.52454 -0.88734,3.59692c-0.27188,1.07238 -1.36232,2.48121 -1.36232,2.48121c0,0 -0.48107,0.37357 -0.96861,0.20105c-0.48835,-0.17281 -0.5417,-1.28131 -0.5417,-1.28131c0,0 0.27693,-0.44715 0.74019,-1.41913z" fill="#026b00" fill-rule="nonzero" stroke="#000000" stroke-width="2.5" stroke-linecap="round" stroke-linejoin="miter"/><g fill-rule="nonzero" stroke-width="2.5" stroke-linecap="butt" stroke-linejoin="miter"><g stroke="#000000"><path d="M309.30706,183.61721c-0.12561,-0.62926 0.21492,-1.55504 0.85659,-1.68312c0.64168,-0.12808 1.34152,0.59003 1.46713,1.21928c0.12561,0.62926 -0.30766,1.01235 -0.94934,1.14043c-0.64168,0.12808 -1.24878,-0.04734 -1.37438,-0.67659z" fill="#d995cc"/><path d="M311.67449,182.96742c-0.61971,-0.16642 -1.29854,-0.88211 -1.12885,-1.51406c0.1697,-0.63195 1.12367,-0.94084 1.74338,-0.77443c0.61971,0.16642 0.77099,0.72462 0.60129,1.35657c-0.1697,0.63195 -0.59611,1.09833 -1.21582,0.93192z" fill="#d995cc"/><path d="M311.52833,180.28591c-0.22287,0.60172 -0.99815,1.21163 -1.61174,0.98435c-0.61359,-0.22727 -0.83317,-1.20566 -0.61029,-1.80739c0.22287,-0.60172 0.79265,-0.70086 1.40625,-0.47358c0.61359,0.22727 1.03866,0.69489 0.81579,1.29662z" fill="#d995cc"/><path d="M309.1716,179.59833c0.44052,0.46656 0.64347,1.43188 0.1677,1.8811c-0.47577,0.44922 -1.45009,0.21223 -1.89062,-0.25433c-0.44052,-0.46656 -0.27675,-1.02122 0.19902,-1.47044c0.47577,-0.44922 1.08337,-0.62288 1.5239,-0.15633z" fill="#d995cc"/><path d="M307.62417,181.70411c0.53769,-0.3502 1.52373,-0.37763 1.88083,0.17067c0.35711,0.54829 -0.04994,1.46469 -0.58763,1.81488c-0.53769,0.3502 -1.05422,0.09008 -1.41133,-0.45821c-0.35711,-0.54829 -0.41956,-1.17714 0.11812,-1.52733z" fill="#d995cc"/><path d="M308.49314,181.77698c0,-0.68109 0.55213,-1.23323 1.23323,-1.23323c0.6811,0 1.23323,0.55213 1.23323,1.23323c0,0.68109 -0.55214,1.23323 -1.23323,1.23323c-0.6811,0 -1.23323,-0.55213 -1.23323,-1.23323z" fill="#d8a51e"/></g><g stroke="none"><path d="M309.30706,183.61721c-0.12561,-0.62926 0.21492,-1.55504 0.85659,-1.68312c0.64168,-0.12808 1.34152,0.59003 1.46713,1.21928c0.12561,0.62926 -0.30766,1.01235 -0.94934,1.14043c-0.64168,0.12808 -1.24878,-0.04734 -1.37438,-0.67659z" fill="#d995cc"/><path d="M311.67449,182.96742c-0.61971,-0.16642 -1.29854,-0.88211 -1.12885,-1.51406c0.1697,-0.63195 1.12367,-0.94084 1.74338,-0.77443c0.61971,0.16642 0.77099,0.72462 0.60129,1.35657c-0.1697,0.63195 -0.59611,1.09833 -1.21582,0.93192z" fill="#d995cc"/><path d="M311.52833,180.28591c-0.22287,0.60172 -0.99815,1.21163 -1.61174,0.98436c-0.61359,-0.22727 -0.83317,-1.20567 -0.6103,-1.80739c0.22287,-0.60172 0.79266,-0.70085 1.40625,-0.47358c0.61359,0.22727 1.03866,0.69489 0.81579,1.29662z" fill="#d995cc"/><path d="M309.1716,179.59833c0.44052,0.46656 0.64347,1.43188 0.1677,1.8811c-0.47577,0.44922 -1.45009,0.21223 -1.89062,-0.25433c-0.44052,-0.46656 -0.27676,-1.02123 0.19901,-1.47045c0.47577,-0.44922 1.08338,-0.62288 1.52391,-0.15633z" fill="#d995cc"/><path d="M307.62417,181.70411c0.53769,-0.3502 1.52373,-0.37763 1.88083,0.17067c0.35711,0.54829 -0.04994,1.46469 -0.58763,1.81488c-0.53769,0.3502 -1.05422,0.09008 -1.41133,-0.45821c-0.35711,-0.54829 -0.41956,-1.17714 0.11812,-1.52733z" fill="#d995cc"/><path d="M308.49314,181.77698c0,-0.68109 0.55213,-1.23323 1.23322,-1.23323c0.6811,0 1.23323,0.55213 1.23323,1.23323c0,0.68109 -0.55214,1.23323 -1.23323,1.23323c-0.6811,0 -1.23322,-0.55213 -1.23322,-1.23323z" fill="#d8a51e"/></g></g><g fill-rule="nonzero" stroke-width="2.5" stroke-linecap="butt" stroke-linejoin="miter"><g stroke="#000000"><path d="" fill="#d995cc"/><path d="M309.09923,189.27066c0.04113,0.01734 0.08078,0.03589 0.11876,0.0556c-0.38297,0.00615 -0.76593,0.01246 -1.14889,0.01895c0.24665,-0.244 0.64526,-0.23675 1.03012,-0.07455z" fill="#d995cc"/><path d="" fill="#d995cc"/><path d="" fill="#d995cc"/><path d="" fill="#d8a51e"/></g><g stroke="none"><path d="" fill="#807bff"/><path d="M306.61051,189.37071c0.17224,-0.08855 0.36738,-0.10107 0.57637,-0.01027c-0.19212,0.00338 -0.38425,0.0068 -0.57637,0.01027z" fill="#807bff"/><path d="M309.09923,189.27066c0.04113,0.01734 0.08078,0.03589 0.11876,0.0556c-0.38297,0.00615 -0.76593,0.01246 -1.14889,0.01895c0.24665,-0.244 0.64526,-0.23675 1.03012,-0.07455z" fill="#807bff"/><path d="" fill="#807bff"/><path d="" fill="#807bff"/><path d="" fill="#d8a51e"/></g></g><path d="" fill="none" fill-rule="nonzero" stroke="#000000" stroke-width="2" stroke-linecap="round" stroke-linejoin="miter"/><g fill-rule="nonzero" stroke-width="0" stroke-linecap="butt" stroke-linejoin="miter"><g stroke="#000000"><path d="M313.77766,188.27396c-0.08026,-0.99628 1.21067,-1.76465 1.12318,-2.69574c0,0 0,-0.84157 1.60287,-0.84157c1.60287,0 1.60287,0.84157 1.60287,0.84157c-0.0143,0.28099 0.06662,0.56784 -0.04287,0.84299c-0.19979,0.50207 -0.87095,0.9272 -1.10496,1.42517c-0.19796,0.42127 0.14907,0.95297 0.40577,1.37475c-1.09499,0.01065 -2.18996,0.02272 -3.2849,0.03619c-0.15564,-0.31585 -0.2742,-0.63879 -0.30196,-0.98336z" fill="#39940f"/><path d="M312.56039,186.56238c0.20952,-0.65284 0.66446,-1.26768 0.90931,-1.91695c0,0 0.31435,-0.82522 1.88609,-0.66018c1.57175,0.16504 1.2574,0.99027 1.2574,0.99027c-0.55807,1.45246 -1.21549,2.80209 -1.25066,4.26666c-1.07242,0.01212 -2.14482,0.02558 -3.21719,0.04038c-0.01292,-0.90937 0.13412,-1.84483 0.41506,-2.72019z" fill="#28670a"/><path d="M316.70301,187.45556c-0.09919,-0.80961 0.09546,-1.61598 -0.10256,-2.42258c0,0 -0.19881,-0.83507 1.39168,-0.93946c1.59049,-0.10439 1.78931,0.73069 1.78931,0.73069c0.19693,0.84838 0.01769,1.68885 0.12241,2.53827c0.07589,0.61551 0.26434,1.22466 0.4557,1.83305c-1.07688,0.00793 -2.15375,0.01724 -3.2306,0.02792c-0.18121,-0.58662 -0.35322,-1.1743 -0.42594,-1.76789z" fill="#448f21"/><path d="M311.1955,184.79335c0,0 0.14511,-0.83811 1.7414,-0.76192c1.59629,0.0762 1.45118,0.91431 1.45118,0.91431c-0.2496,1.44004 -0.28924,2.87401 -0.3689,4.31234c-1.07085,0.01322 -2.14167,0.02778 -3.21246,0.04366c0.08385,-1.50422 0.1284,-3.00299 0.38879,-4.50838z" fill="#275313"/><path d="M320.32299,188.02357c-0.23401,-0.49797 -0.90517,-0.9231 -1.10496,-1.42517c-0.10949,-0.27516 -0.02858,-0.56199 -0.04287,-0.84298c0,0 0,-0.84158 1.60287,-0.84158c1.60287,0 1.60287,0.84158 1.60287,0.84158c-0.08749,0.93108 1.20344,1.69945 1.12318,2.69573c-0.02028,0.25168 -0.089,0.49182 -0.18522,0.72608c-1.09329,0.00547 -2.18657,0.01238 -3.27984,0.02071c0.22828,-0.3814 0.45166,-0.8175 0.28397,-1.17437z" fill="#39940f"/><path d="M320.66856,185.1527c0,0 -0.31435,-0.82523 1.2574,-0.99027c1.57175,-0.16504 1.8861,0.66018 1.8861,0.66018c0.24485,0.64927 0.69978,1.26411 0.9093,1.91694c0.25112,0.78246 0.39526,1.61296 0.4138,2.4299c-1.07561,0.00381 -2.15122,0.00903 -3.22682,0.01562c-0.09439,-1.3751 -0.71158,-2.65768 -1.23977,-4.03238z" fill="#28670a"/><path d="M317.3779,187.53965c0.10472,-0.84942 -0.07452,-1.68989 0.12241,-2.53827c0,0 0.19882,-0.83507 1.78931,-0.73069c1.59049,0.10439 1.39168,0.93945 1.39168,0.93945c-0.19802,0.8066 -0.00336,1.61297 -0.10255,2.42258c-0.0643,0.5248 -0.2062,1.04497 -0.36345,1.56388c-1.08227,0.00809 -2.16453,0.01758 -3.24677,0.02845c0.1748,-0.55932 0.33963,-1.11967 0.40938,-1.6854z" fill="#448f21"/><path d="M322.89366,185.1229c0,0 -0.14511,-0.83811 1.45118,-0.91431c1.59629,-0.0762 1.7414,0.76192 1.7414,0.76192c0.2423,1.40081 0.2977,2.79588 0.37179,4.19495c-1.0698,0.00265 -2.13959,0.00669 -3.20937,0.01211c-0.07125,-1.35197 -0.12031,-2.70064 -0.35501,-4.05468z" fill="#275313"/></g><g stroke="none"><path d="M313.77766,188.27397c-0.08026,-0.99628 1.21067,-1.76465 1.12318,-2.69573c0,0 0,-0.84158 1.60287,-0.84158c1.60287,0 1.60287,0.84158 1.60287,0.84158c-0.0143,0.28099 0.06662,0.56783 -0.04287,0.84299c-0.19979,0.50207 -0.87095,0.9272 -1.10496,1.42518c-0.19796,0.42127 0.14906,0.95297 0.40577,1.37474c-1.09499,0.01065 -2.18996,0.02272 -3.2849,0.03619c-0.15564,-0.31585 -0.2742,-0.63878 -0.30196,-0.98336z" fill="#39940f"/><path d="M312.56039,186.56238c0.20952,-0.65284 0.66446,-1.26768 0.90931,-1.91695c0,0 0.31434,-0.82523 1.88609,-0.66018c1.57175,0.16504 1.2574,0.99027 1.2574,0.99027c-0.55807,1.45246 -1.2155,2.80209 -1.25067,4.26666c-1.07242,0.01212 -2.14482,0.02558 -3.21719,0.04038c-0.01292,-0.90937 0.13412,-1.84483 0.41506,-2.72019z" fill="#28670a"/><path d="M316.70301,187.45556c-0.09918,-0.80961 0.09546,-1.61598 -0.10256,-2.42258c0,0 -0.19881,-0.83507 1.39168,-0.93946c1.59049,-0.10439 1.78931,0.73069 1.78931,0.73069c0.19693,0.84838 0.01768,1.68885 0.12241,2.53827c0.07589,0.61551 0.26434,1.22466 0.45571,1.83305c-1.07688,0.00793 -2.15375,0.01724 -3.2306,0.02792c-0.18121,-0.58662 -0.35322,-1.17429 -0.42594,-1.76789z" fill="#448f21"/><path d="M311.1955,184.79334c0,0 0.14511,-0.83812 1.7414,-0.76193c1.59629,0.0762 1.45118,0.91431 1.45118,0.91431c-0.2496,1.44004 -0.28924,2.87401 -0.3689,4.31234c-1.07085,0.01322 -2.14167,0.02778 -3.21246,0.04366c0.08385,-1.50422 0.1284,-3.00299 0.38879,-4.50839z" fill="#275313"/><path d="M320.32299,188.02357c-0.23401,-0.49797 -0.90517,-0.9231 -1.10496,-1.42517c-0.10949,-0.27516 -0.02858,-0.56199 -0.04287,-0.84299c0,0 0,-0.84158 1.60287,-0.84158c1.60287,0 1.60287,0.84158 1.60287,0.84158c-0.08749,0.93108 1.20344,1.69946 1.12318,2.69573c-0.02028,0.25168 -0.089,0.49182 -0.18522,0.72608c-1.09329,0.00547 -2.18657,0.01238 -3.27983,0.02071c0.22827,-0.3814 0.45166,-0.8175 0.28396,-1.17436z" fill="#39940f"/><path d="M320.66856,185.1527c0,0 -0.31435,-0.82523 1.25739,-0.99027c1.57175,-0.16504 1.8861,0.66018 1.8861,0.66018c0.24485,0.64927 0.69978,1.26411 0.9093,1.91694c0.25112,0.78246 0.39526,1.61296 0.4138,2.42991c-1.07561,0.00381 -2.15122,0.00903 -3.22682,0.01562c-0.09439,-1.3751 -0.71158,-2.65768 -1.23977,-4.03238z" fill="#28670a"/><path d="M317.3779,187.53966c0.10472,-0.84942 -0.07453,-1.6899 0.1224,-2.53827c0,0 0.19882,-0.83507 1.78931,-0.73068c1.59049,0.10439 1.39168,0.93946 1.39168,0.93946c-0.19802,0.8066 -0.00337,1.61297 -0.10255,2.42258c-0.06429,0.5248 -0.2062,1.04497 -0.36345,1.56387c-1.08228,0.00809 -2.16454,0.01758 -3.24678,0.02845c0.1748,-0.55932 0.33963,-1.11967 0.40938,-1.68539z" fill="#448f21"/><path d="M322.89366,185.1229c0,0 -0.14511,-0.83811 1.45118,-0.91431c1.59629,-0.0762 1.7414,0.76192 1.7414,0.76192c0.2423,1.40081 0.2977,2.79588 0.37179,4.19495c-1.0698,0.00265 -2.13959,0.00669 -3.20937,0.01211c-0.07125,-1.35197 -0.12031,-2.70064 -0.35501,-4.05468z" fill="#275313"/></g></g><g fill-rule="nonzero" stroke="#000000" stroke-width="0" stroke-linejoin="miter"><path d="" fill="#000000" stroke-linecap="round"/><path d="M322.7203,182.12167c-0.21494,-0.16418 -0.3449,-0.42412 -0.32808,-0.7167c0.01897,-0.32997 0.21986,-0.61842 0.5036,-0.77482c0.25236,-0.38827 1.31535,-0.03557 1.63038,0.10436c1.15063,0.51108 2.21977,1.98404 2.63205,3.13066c0.6173,1.71682 0.28397,3.50441 -0.16907,5.29911c-0.63686,0.0013 -1.27371,0.0031 -1.91056,0.00539c0.29904,-1.50334 0.5247,-3.00804 0.3379,-4.52887c-0.08258,-0.6723 -1.12278,-1.88125 -1.58626,-2.19442c-0.17781,-0.12015 -0.36921,-0.12717 -0.56188,-0.14235c-0.08522,-0.00037 -0.1671,-0.01179 -0.24427,-0.03283c-0.0711,-0.01626 -0.14164,-0.0407 -0.21101,-0.07954c-0.03499,-0.0196 -0.06563,-0.04318 -0.09279,-0.06998z" fill="#9efd71" stroke-linecap="butt"/><path d="M327.28979,180.10818c0.10285,-0.41964 0.50188,-0.73792 0.95967,-0.73792c0.26774,0 0.50285,0.10886 0.66285,0.28319c0.02756,0.03003 0.0529,0.06201 0.07578,0.0957c0.35852,0.31768 0.77455,0.59357 1.16001,0.8814c0.00697,0.0052 0.00942,0.01476 0.01628,0.02009c2.51302,1.95407 2.69653,5.35249 2.45722,8.51501c-0.6376,-0.00163 -1.2752,-0.00275 -1.91281,-0.00338c0.09268,-1.33087 0.13091,-2.71673 -0.03951,-3.90405c-0.14614,-1.0182 -0.49005,-2.10043 -1.26071,-2.80726c-0.57731,-0.52949 -2.25533,-1.19988 -2.14591,-2.2319c0.00416,-0.03919 0.01343,-0.07604 0.02711,-0.11088z" fill="#9efd71" stroke-linecap="butt"/><path d="M325.0578,180.26931c0.0807,0 0.15843,0.00989 0.23204,0.02848c0.20026,-0.05189 0.50092,0.32872 0.61747,0.45977c0.54794,0.6161 0.9787,1.20469 1.41148,1.90439c1.27448,2.06056 1.17149,4.26014 0.84827,6.50046c-0.61736,0.00067 -1.23472,0.00181 -1.85208,0.00342c0.19976,-1.34852 0.30392,-2.70139 0.01351,-4.07712c-0.22866,-1.08318 -0.95768,-2.05404 -1.65722,-2.87158c-0.1393,-0.16281 -0.82055,-0.78927 -0.59733,-1.04875c0.02854,-0.49654 0.46903,-0.89907 0.98386,-0.89907z" fill="#67dc31" stroke-linecap="butt"/><path d="M329.56884,186.85309c-0.24807,-1.09632 -0.75572,-2.10162 -1.03224,-3.18999c-0.49292,-1.94008 -0.3102,-2.51551 -1.62543,-4.2266c-0.35404,-0.4606 -0.79524,-1.09457 -0.01382,-1.63724c0.88067,-0.6116 1.33031,0.24274 1.71499,0.72813c1.14234,1.4414 1.40382,2.86958 1.74781,4.64834c0.12923,0.66821 0.39751,1.16073 0.60332,1.80701c0.31613,0.9927 0.53579,2.01994 0.69361,3.05487c0.06283,0.41201 0.09761,0.77711 0.13879,1.12622c-0.63533,-0.00119 -1.27067,-0.00188 -1.906,-0.00208c-0.07814,-0.77391 -0.16924,-1.63786 -0.32103,-2.30865z" fill="#67dc31" stroke-linecap="butt"/><path d="M328.08675,177.56883c0.21213,0.16437 0.34009,0.42265 0.32339,0.71309c-0.00045,0.00791 -0.00101,0.01581 -0.00168,0.02367c0.01871,0.10823 -0.01351,0.20745 -0.0784,0.29832c-0.15367,0.33749 -0.5066,0.57707 -0.90379,0.57707c-0.35394,0.16606 -0.81279,-0.46323 -1.04119,-0.58473c-0.80643,-0.42898 -1.77355,-0.92824 -2.75177,-0.92948c-1.1058,-0.0014 -2.40953,0.20108 -3.44572,0.70273c-0.24212,0.11722 -0.61425,0.48622 -0.93805,0.52874c-0.49858,0.06547 -0.94651,0.12529 -1.14644,-0.56861c-0.33207,-1.15248 1.78958,-1.76366 2.56826,-1.98898c2.18776,-0.63304 4.47708,-0.63788 6.38625,0.50699c0.42946,0.25753 0.78392,0.43439 1.02913,0.72118z" fill="#67dc31" stroke-linecap="butt"/><path d="M327.74796,179.55953c-0.00045,0.00791 -0.00101,0.01582 -0.00168,0.02368c0.01173,0.06784 0.00345,0.13213 -0.02034,0.19305c1.02929,1.31344 2.48751,3.29923 2.28187,4.78584c-0.15186,1.09789 -0.19356,2.21641 -0.51545,3.28865c-0.13008,0.43331 -0.30082,0.86991 -0.45827,1.31102c-0.65262,0.00025 -1.30524,0.00103 -1.95786,0.00232c0.39732,-1.50732 0.99868,-2.97332 1.05728,-4.58721c0.06344,-1.74693 -1.74306,-3.13373 -2.57529,-4.42013c-0.07684,-0.11877 -0.11732,-0.26232 -0.12216,-0.41175c-0.00139,-0.02987 -0.00124,-0.06017 0.00052,-0.09083c0.00354,-0.06159 0.01342,-0.12173 0.02899,-0.17983c0.00108,-0.00431 0.00219,-0.00862 0.00333,-0.01292c-0.59065,-0.3239 -1.4965,-0.50767 -2.08022,-0.51702c-0.85059,-0.01362 -1.69036,-0.10973 -2.52469,0.09371c-0.5106,0.1245 -1.24647,0.92342 -1.77808,0.56848c-0.25092,-0.16753 -0.47241,-0.45266 -0.47777,-0.75388c-0.02053,-1.15378 1.89723,-1.63902 2.79344,-1.69264c1.8351,-0.10981 5.18526,-0.06988 6.13831,1.79426c0.14168,0.15974 0.22145,0.37212 0.20806,0.60522z" fill="#4cc513" stroke-linecap="butt"/><path d="M330.25873,184.08666c0.24228,0.04726 0.31208,0.65326 0.34793,0.87081c0.1879,1.14019 0.1493,2.30283 0.11449,3.4708c-0.0073,0.24501 -0.02209,0.48965 -0.0415,0.73397c-0.62905,-0.0006 -1.2581,-0.00072 -1.88716,-0.00035c0.02774,-0.25102 0.05028,-0.48761 0.06261,-0.70194c0.05099,-0.88608 0.07376,-1.90598 -0.03546,-2.79221c-0.04109,-0.33341 -0.20855,-0.74624 -0.12313,-1.0808c0.00986,-0.0386 0.02448,-0.07436 0.04315,-0.10771c0.16255,-0.29042 0.63128,-0.39848 0.91951,-0.61366z" fill="#7ade4c" stroke-linecap="butt"/><path d="M323.14067,182.30194c-0.22451,0.13921 -1.02209,-0.32874 -1.32486,-0.32915c-0.29291,-0.00039 -0.58582,-0.00103 -0.87882,0c-0.43568,0.00153 -0.62045,0.46916 -1.1565,0.43148c-0.61973,-0.04357 -0.9249,-0.87416 -0.64865,-1.40726c0.23849,-0.46023 0.77666,-0.50381 1.18959,-0.67577c0.80507,-0.33526 2.16799,-0.30035 3.0177,0.19787c0.35876,0.21036 0.62603,0.5033 0.7212,0.88585z" fill="#9efd71" stroke-linecap="butt"/><path d="M325.55721,180.30065c0.22214,0.16358 0.35732,0.42774 0.34018,0.72577c-0.00045,0.00791 -0.00101,0.01581 -0.00168,0.02367c0.01871,0.10823 -0.01351,0.20745 -0.0784,0.29832c-0.15367,0.33749 -0.50661,0.57707 -0.90379,0.57707c-0.22575,0.10592 -0.3955,-0.01114 -0.53652,-0.1705c-0.12455,-0.09067 -0.22211,-0.2128 -0.28134,-0.35478c-0.02754,-0.02934 -0.0546,-0.05312 -0.08157,-0.06876c-0.43713,-0.25344 -1.02812,-0.63005 -1.56743,-0.70083c-0.58814,-0.07719 -1.31155,-0.08573 -1.87835,-0.07738c-0.37171,0.00547 -0.55083,0.65914 -1.10144,0.47879c-0.29158,-0.09551 -0.62826,-0.23246 -0.75277,-0.5026c-0.44878,-0.97362 0.97913,-1.6173 1.72076,-1.77432c1.45927,-0.30895 4.14345,0.26985 5.12235,1.54555z" fill="#67dc31" stroke-linecap="butt"/></g><g fill-rule="nonzero" stroke="#000000" stroke-width="0" stroke-linejoin="miter"><path d="" fill="#000000" stroke-linecap="round"/><path d="M315.94682,180.96343c-0.0716,0.03636 -0.14356,0.05925 -0.21559,0.07446c-0.07838,0.0197 -0.16091,0.03037 -0.24615,0.03073c-0.19353,0.01421 -0.38535,0.02078 -0.57006,0.13324c-0.48149,0.29316 -1.59118,1.42479 -1.7124,2.0541c-0.38908,2.01985 0.05406,4.00931 0.35842,6.00785c-0.60288,0.00766 -1.20576,0.01574 -1.80862,0.02424c-0.44735,-2.27543 -1.21835,-4.57774 -0.24694,-6.75811c0.47818,-1.0733 1.63199,-2.45208 2.81199,-2.93048c0.32308,-0.13098 1.40634,-0.46113 1.63638,-0.09769c0.27475,0.1464 0.45907,0.4164 0.45907,0.72528c0,0.27387 -0.1449,0.51719 -0.36928,0.67087c-0.0287,0.02508 -0.0607,0.04716 -0.09681,0.06551z" fill="#9efd71" stroke-linecap="butt"/><path d="M311.61062,179.11697c0.0501,0.96603 -1.66645,1.59355 -2.2742,2.08919c-0.81129,0.66163 -1.2174,1.67466 -1.42207,2.62776c-0.36241,1.68763 -0.27005,3.80378 -0.21174,5.51754c-0.62794,0.01081 -1.25587,0.02206 -1.88378,0.03377c-0.19721,-3.39826 -0.33412,-7.6352 2.86527,-9.86427c0.00717,-0.005 0.01017,-0.01393 0.01744,-0.0188c0.402,-0.26943 0.83389,-0.52768 1.21067,-0.82505c0.02483,-0.03154 0.05199,-0.06147 0.08128,-0.08958c0.17002,-0.16318 0.41139,-0.26508 0.67913,-0.26508c0.45779,0 0.83852,0.29793 0.91726,0.69074c0.01168,0.03261 0.01883,0.06711 0.02074,0.10379z" fill="#9efd71" stroke-linecap="butt"/><path d="M312.26489,183.67525c-0.54417,1.89659 -0.22965,3.74678 -0.01488,5.60588c-0.62105,0.00852 -1.24208,0.01749 -1.86311,0.0269c-0.28904,-2.71963 -0.76698,-5.41994 1.0272,-7.90436c0.473,-0.65497 0.93759,-1.20592 1.52095,-1.78262c0.12408,-0.12267 0.44662,-0.47895 0.64389,-0.43037c0.07468,-0.0174 0.15298,-0.02666 0.23368,-0.02666c0.51483,0 0.93218,0.37679 0.93218,0.84158c0.2083,0.24289 -0.50896,0.8293 -0.65762,0.9817c-0.74653,0.76527 -1.53137,1.67404 -1.82229,2.68796z" fill="#67dc31" stroke-linecap="butt"/><path d="M306.76681,186.43558c0.21731,-0.96875 0.49602,-1.93031 0.86921,-2.85953c0.24296,-0.60495 0.53955,-1.06599 0.70719,-1.69147c0.44624,-1.66502 0.78981,-3.00187 2.015,-4.35111c0.41259,-0.45435 0.91133,-1.25407 1.75685,-0.68157c0.75022,0.50797 0.27258,1.1014 -0.10793,1.53255c-1.41359,1.60168 -1.26395,2.14031 -1.86838,3.95634c-0.33909,1.01878 -0.90453,1.95979 -1.21562,2.98601c-0.25164,0.83009 -0.41661,1.97618 -0.56759,2.82578c-0.06633,0.37325 -0.15397,0.8474 -0.38363,1.19426c-0.58713,0.00998 -1.17426,0.02036 -1.76137,0.03113c-0.06439,-0.11436 -0.10069,-0.24378 -0.10069,-0.38085c0,-0.20466 0.08092,-0.39225 0.21544,-0.53813c0.2182,-0.65348 0.26806,-1.25018 0.44151,-2.02342z" fill="#67dc31" stroke-linecap="butt"/><path d="M312.00948,175.96114c1.97498,-1.07165 4.26403,-1.06713 6.41539,-0.47457c0.76574,0.2109 2.85223,0.78301 2.45392,1.8618c-0.23982,0.64953 -0.68431,0.59354 -1.17913,0.53226c-0.32136,-0.0398 -0.67227,-0.38522 -0.90765,-0.49494c-1.00736,-0.46958 -2.29944,-0.6591 -3.40533,-0.65779c-0.97829,0.00116 -1.97411,0.46849 -2.8052,0.87004c-0.23539,0.11373 -0.73041,0.70279 -1.0748,0.54734c-0.39718,0 -0.73635,-0.22426 -0.87062,-0.54017c-0.05966,-0.08506 -0.08618,-0.17793 -0.06124,-0.27924c-0.00021,-0.00736 -0.00032,-0.01475 -0.00032,-0.02216c0,-0.27187 0.1428,-0.51364 0.36438,-0.66749c0.26169,-0.26845 0.62631,-0.434 1.07058,-0.67507z" fill="#67dc31" stroke-linecap="butt"/><path d="M320.3437,177.83797c-0.02267,0.28197 -0.26055,0.54886 -0.52111,0.70568c-0.55203,0.33225 -1.24196,-0.41559 -1.74541,-0.53213c-0.82263,-0.19043 -1.66794,-0.10047 -2.51931,-0.08772c-0.58427,0.00875 -1.50068,0.18077 -2.10994,0.48396c0.0009,0.00403 0.00176,0.00806 0.00259,0.0121c0.01223,0.05439 0.01865,0.11069 0.01865,0.16834c0,0.0287 -0.00159,0.05706 -0.0047,0.08503c-0.01342,0.13988 -0.06216,0.27425 -0.14582,0.38543c-0.90616,1.20414 -2.79238,2.50227 -2.82936,4.1375c-0.04844,2.1418 1.01119,4.00535 1.01965,6.09535c-0.61983,0.00886 -1.23965,0.01816 -1.85946,0.0279c0.05266,-1.04952 -0.44911,-2.06337 -0.70721,-3.05873c-0.26026,-1.00367 -0.23766,-2.05067 -0.32641,-3.07836c-0.12018,-1.39156 1.45218,-3.25037 2.55697,-4.47983c-0.02029,-0.05703 -0.02488,-0.11722 -0.00925,-0.18071c-0.00021,-0.00736 -0.00032,-0.01475 -0.00032,-0.02216c0,-0.2182 0.09198,-0.417 0.24284,-0.56653c1.06021,-1.74495 4.41267,-1.78232 6.24145,-1.67953c0.89313,0.0502 2.783,0.50441 2.69615,1.58442z" fill="#4cc513" stroke-linecap="butt"/><path d="M309.00452,182.53031c0.27585,0.20143 0.73838,0.30257 0.88423,0.57442c0.01675,0.03122 0.02933,0.06469 0.03696,0.10082c0.06618,0.31317 -0.125,0.69961 -0.18526,1.0117c-0.16017,0.82958 -0.19601,1.78425 -0.19596,2.61367c0.00004,0.68404 0.10388,1.61036 0.13074,2.48808c-0.63565,0.00998 -1.27129,0.02042 -1.90691,0.03133c-0.03451,-0.84705 -0.11328,-1.6956 -0.08805,-2.54906c0.03233,-1.09329 0.06056,-2.18158 0.314,-3.24887c0.04836,-0.20364 0.15299,-0.77089 0.39799,-0.81513z" fill="#7ade4c" stroke-linecap="butt"/><path d="M314.7448,180.22705c0.11716,-0.35809 0.40127,-0.63231 0.77212,-0.82922c0.87835,-0.46637 2.24327,-0.49904 3.02908,-0.18521c0.40305,0.16097 0.93871,0.20176 1.15074,0.63256c0.24561,0.49901 -0.10732,1.27649 -0.72955,1.31727c-0.53821,0.03528 -0.69611,-0.40245 -1.13169,-0.40389c-0.29293,-0.00097 -0.58588,-0.00037 -0.87882,0c-0.3028,0.00038 -1.12726,0.43841 -1.34377,0.3081z" fill="#9efd71" stroke-linecap="butt"/><path d="M318.52259,177.74663c0.7326,0.14698 2.12351,0.7495 1.61876,1.66087c-0.14004,0.25286 -0.48458,0.38106 -0.78166,0.47046c-0.56098,0.16882 -0.70252,-0.44306 -1.07392,-0.44818c-0.56633,-0.00781 -1.29022,0.00018 -1.8828,0.07244c-0.54339,0.06626 -1.15602,0.41878 -1.60772,0.65601c-0.02787,0.01463 -0.0563,0.0369 -0.08553,0.06436c-0.06739,0.1329 -0.17198,0.24723 -0.30174,0.3321c-0.15017,0.14917 -0.32665,0.25875 -0.54631,0.1596c-0.39718,0 -0.73635,-0.22426 -0.87062,-0.54017c-0.05966,-0.08506 -0.08618,-0.17793 -0.06124,-0.27924c-0.00021,-0.00736 -0.00032,-0.01476 -0.00032,-0.02217c0,-0.27898 0.15036,-0.52625 0.38191,-0.67937c1.05223,-1.19413 3.76968,-1.73591 5.21119,-1.44671z" fill="#67dc31" stroke-linecap="butt"/></g><path d="M307.08591,187.31847c0,-5.90019 5.09548,-10.68326 11.38108,-10.68326c6.2856,0 11.38108,4.78306 11.38108,10.68326c0,0.62856 -0.05783,1.24445 -0.16877,1.84322c-7.46258,-0.00104 -14.92524,0.06616 -22.38611,0.19687c-0.13603,-0.66037 -0.20728,-1.34242 -0.20728,-2.0401z" fill="#4cc114" fill-rule="nonzero" stroke="#000000" stroke-width="0" stroke-linecap="butt" stroke-linejoin="miter"/><path d="" fill="#000000" fill-rule="nonzero" stroke="#000000" stroke-width="0" stroke-linecap="round" stroke-linejoin="miter"/><g fill-rule="nonzero" stroke-width="0" stroke-linejoin="miter"><path d="" fill="#000000" stroke="#000000" stroke-linecap="round"/><path d="M315.94682,180.96343c-0.0716,0.03636 -0.14356,0.05925 -0.21559,0.07446c-0.07838,0.0197 -0.16091,0.03037 -0.24615,0.03073c-0.19353,0.01421 -0.38535,0.02078 -0.57006,0.13324c-0.48149,0.29316 -1.59118,1.42479 -1.7124,2.0541c-0.38908,2.01985 0.05406,4.00931 0.35842,6.00785c-0.60288,0.00766 -1.20576,0.01574 -1.80862,0.02424c-0.44735,-2.27543 -1.21835,-4.57774 -0.24694,-6.75811c0.47818,-1.0733 1.63199,-2.45208 2.81199,-2.93048c0.32308,-0.13098 1.40634,-0.46113 1.63638,-0.09769c0.27475,0.1464 0.45907,0.4164 0.45907,0.72528c0,0.27387 -0.1449,0.51719 -0.36928,0.67087c-0.0287,0.02508 -0.0607,0.04716 -0.09681,0.06551z" fill="#9efd71" stroke="none" stroke-linecap="butt"/><path d="M311.61062,179.11697c0.0501,0.96603 -1.66645,1.59355 -2.2742,2.08919c-0.81129,0.66163 -1.2174,1.67466 -1.42207,2.62776c-0.36241,1.68763 -0.27005,3.80378 -0.21174,5.51754c-0.62794,0.01081 -1.25587,0.02206 -1.88378,0.03377c-0.19721,-3.39826 -0.33412,-7.6352 2.86527,-9.86427c0.00717,-0.005 0.01017,-0.01393 0.01744,-0.0188c0.402,-0.26943 0.83389,-0.52768 1.21067,-0.82505c0.02483,-0.03154 0.05199,-0.06147 0.08128,-0.08958c0.17002,-0.16318 0.41139,-0.26508 0.67913,-0.26508c0.45779,0 0.83852,0.29793 0.91726,0.69074c0.01168,0.03261 0.01883,0.06711 0.02074,0.10379z" fill="#9efd71" stroke="none" stroke-linecap="butt"/><path d="M312.26489,183.67525c-0.54417,1.89659 -0.22965,3.74678 -0.01488,5.60588c-0.62105,0.00852 -1.24208,0.01749 -1.86311,0.0269c-0.28904,-2.71963 -0.76698,-5.41994 1.0272,-7.90436c0.473,-0.65497 0.93759,-1.20592 1.52095,-1.78262c0.12408,-0.12267 0.44662,-0.47895 0.64389,-0.43037c0.07468,-0.0174 0.15298,-0.02666 0.23368,-0.02666c0.51483,0 0.93218,0.37679 0.93218,0.84158c0.2083,0.24289 -0.50896,0.8293 -0.65762,0.9817c-0.74653,0.76527 -1.53137,1.67404 -1.82229,2.68796z" fill="#67dc31" stroke="none" stroke-linecap="butt"/><path d="M306.76681,186.43558c0.21731,-0.96875 0.49602,-1.93031 0.86921,-2.85953c0.24296,-0.60495 0.53955,-1.06599 0.70719,-1.69147c0.44624,-1.66502 0.78981,-3.00187 2.015,-4.35111c0.41259,-0.45435 0.91133,-1.25407 1.75685,-0.68157c0.75022,0.50797 0.27258,1.1014 -0.10793,1.53255c-1.41359,1.60168 -1.26395,2.14031 -1.86838,3.95634c-0.33909,1.01878 -0.90453,1.95979 -1.21562,2.98601c-0.25164,0.83009 -0.41661,1.97618 -0.56759,2.82578c-0.06633,0.37325 -0.15397,0.8474 -0.38363,1.19426c-0.58713,0.00998 -1.17426,0.02036 -1.76137,0.03113c-0.06439,-0.11436 -0.10069,-0.24378 -0.10069,-0.38085c0,-0.20466 0.08092,-0.39225 0.21544,-0.53813c0.2182,-0.65348 0.26806,-1.25018 0.44151,-2.02342z" fill="#67dc31" stroke="none" stroke-linecap="butt"/><path d="M312.00948,175.96114c1.97498,-1.07165 4.26403,-1.06713 6.41539,-0.47457c0.76574,0.2109 2.85223,0.78301 2.45392,1.8618c-0.23982,0.64953 -0.68431,0.59354 -1.17913,0.53226c-0.32136,-0.0398 -0.67227,-0.38522 -0.90765,-0.49494c-1.00736,-0.46958 -2.29944,-0.6591 -3.40533,-0.65779c-0.97829,0.00116 -1.97411,0.46849 -2.8052,0.87004c-0.23539,0.11373 -0.73041,0.70279 -1.0748,0.54734c-0.39718,0 -0.73635,-0.22426 -0.87062,-0.54017c-0.05966,-0.08506 -0.08618,-0.17793 -0.06124,-0.27924c-0.00021,-0.00736 -0.00032,-0.01475 -0.00032,-0.02216c0,-0.27187 0.1428,-0.51364 0.36438,-0.66749c0.26169,-0.26845 0.62631,-0.434 1.07058,-0.67507z" fill="#67dc31" stroke="none" stroke-linecap="butt"/><path d="M320.3437,177.83797c-0.02267,0.28197 -0.26055,0.54886 -0.52111,0.70568c-0.55203,0.33225 -1.24196,-0.41559 -1.74541,-0.53213c-0.82263,-0.19043 -1.66794,-0.10047 -2.51931,-0.08772c-0.58427,0.00875 -1.50068,0.18077 -2.10994,0.48396c0.0009,0.00403 0.00176,0.00806 0.00259,0.0121c0.01223,0.05439 0.01865,0.11069 0.01865,0.16834c0,0.0287 -0.00159,0.05706 -0.0047,0.08503c-0.01342,0.13988 -0.06216,0.27425 -0.14582,0.38543c-0.90616,1.20414 -2.79238,2.50227 -2.82936,4.1375c-0.04844,2.1418 1.01119,4.00535 1.01965,6.09535c-0.61983,0.00886 -1.23965,0.01816 -1.85946,0.0279c0.05266,-1.04952 -0.44911,-2.06337 -0.70721,-3.05873c-0.26026,-1.00367 -0.23766,-2.05067 -0.32641,-3.07836c-0.12018,-1.39156 1.45218,-3.25037 2.55697,-4.47983c-0.02029,-0.05703 -0.02488,-0.11722 -0.00925,-0.18071c-0.00021,-0.00736 -0.00032,-0.01475 -0.00032,-0.02216c0,-0.2182 0.09198,-0.417 0.24284,-0.56653c1.06021,-1.74495 4.41267,-1.78232 6.24145,-1.67953c0.89313,0.0502 2.783,0.50441 2.69615,1.58442z" fill="#4cc513" stroke="none" stroke-linecap="butt"/><path d="M309.00452,182.53031c0.27585,0.20143 0.73838,0.30257 0.88423,0.57442c0.01675,0.03122 0.02933,0.06469 0.03696,0.10082c0.06618,0.31317 -0.125,0.69961 -0.18526,1.0117c-0.16017,0.82958 -0.19601,1.78425 -0.19596,2.61367c0.00004,0.68404 0.10388,1.61036 0.13074,2.48808c-0.63565,0.00998 -1.27129,0.02042 -1.90691,0.03133c-0.03451,-0.84705 -0.11328,-1.6956 -0.08805,-2.54906c0.03233,-1.09329 0.06056,-2.18158 0.314,-3.24887c0.04836,-0.20364 0.15299,-0.77089 0.39799,-0.81513z" fill="#7ade4c" stroke="none" stroke-linecap="butt"/><path d="M314.7448,180.22705c0.11716,-0.35809 0.40127,-0.63231 0.77212,-0.82922c0.87835,-0.46637 2.24327,-0.49904 3.02908,-0.18521c0.40305,0.16097 0.93871,0.20176 1.15074,0.63256c0.24561,0.49901 -0.10732,1.27649 -0.72955,1.31727c-0.53821,0.03528 -0.69611,-0.40245 -1.13169,-0.40389c-0.29293,-0.00097 -0.58588,-0.00037 -0.87882,0c-0.3028,0.00038 -1.12726,0.43841 -1.34377,0.3081z" fill="#9efd71" stroke="none" stroke-linecap="butt"/><path d="M318.52259,177.74663c0.7326,0.14698 2.12351,0.7495 1.61876,1.66087c-0.14004,0.25286 -0.48458,0.38106 -0.78166,0.47046c-0.56098,0.16882 -0.70252,-0.44306 -1.07392,-0.44818c-0.56633,-0.00781 -1.29022,0.00018 -1.8828,0.07244c-0.54339,0.06626 -1.15602,0.41878 -1.60772,0.65601c-0.02787,0.01463 -0.0563,0.0369 -0.08553,0.06436c-0.06739,0.1329 -0.17198,0.24723 -0.30174,0.3321c-0.15017,0.14917 -0.32665,0.25875 -0.54631,0.1596c-0.39718,0 -0.73635,-0.22426 -0.87062,-0.54017c-0.05966,-0.08506 -0.08618,-0.17793 -0.06124,-0.27924c-0.00021,-0.00736 -0.00032,-0.01476 -0.00032,-0.02217c0,-0.27898 0.15036,-0.52625 0.38191,-0.67937c1.05223,-1.19413 3.76968,-1.73591 5.21119,-1.44671z" fill="#67dc31" stroke="none" stroke-linecap="butt"/></g><g fill-rule="nonzero" stroke-width="0" stroke-linejoin="miter"><path d="" fill="#000000" stroke="#000000" stroke-linecap="round"/><path d="M322.7203,182.12167c-0.21494,-0.16418 -0.3449,-0.42412 -0.32808,-0.71669c0.01897,-0.32997 0.21986,-0.61843 0.5036,-0.77482c0.25236,-0.38827 1.31535,-0.03557 1.63038,0.10436c1.15063,0.51108 2.21977,1.98404 2.63205,3.13066c0.61729,1.71682 0.28397,3.5044 -0.16907,5.2991c-0.63685,0.0013 -1.27371,0.0031 -1.91056,0.00539c0.29904,-1.50334 0.5247,-3.00804 0.3379,-4.52887c-0.08258,-0.6723 -1.12278,-1.88124 -1.58626,-2.19442c-0.17781,-0.12015 -0.36921,-0.12717 -0.56188,-0.14235c-0.08522,-0.00037 -0.1671,-0.01179 -0.24427,-0.03283c-0.0711,-0.01626 -0.14164,-0.0407 -0.21101,-0.07955c-0.03499,-0.0196 -0.06563,-0.04319 -0.09279,-0.06998z" fill="#9efd71" stroke="none" stroke-linecap="butt"/><path d="M327.28979,180.10818c0.10285,-0.41965 0.50187,-0.73792 0.95967,-0.73792c0.26774,0 0.50285,0.10886 0.66285,0.28319c0.02756,0.03003 0.0529,0.06201 0.07578,0.0957c0.35852,0.31768 0.77455,0.59357 1.16001,0.8814c0.00697,0.0052 0.00942,0.01476 0.01628,0.02009c2.51302,1.95407 2.69654,5.35249 2.45722,8.51501c-0.6376,-0.00163 -1.2752,-0.00275 -1.91281,-0.00338c0.09268,-1.33087 0.13091,-2.71673 -0.03951,-3.90405c-0.14614,-1.0182 -0.49004,-2.10042 -1.2607,-2.80725c-0.57731,-0.52949 -2.25533,-1.19989 -2.14591,-2.23191c0.00416,-0.03919 0.01344,-0.07603 0.02711,-0.11088z" fill="#9efd71" stroke="none" stroke-linecap="butt"/><path d="M324.07394,181.16838c0.02855,-0.49654 0.46903,-0.89907 0.98386,-0.89907c0.0807,0 0.15843,0.00989 0.23204,0.02848c0.20026,-0.05189 0.50092,0.32872 0.61747,0.45977c0.54794,0.6161 0.9787,1.20469 1.41147,1.90439c1.27448,2.06056 1.17149,4.26014 0.84827,6.50046c-0.61736,0.00067 -1.23472,0.00181 -1.85208,0.00342c0.19976,-1.34852 0.30392,-2.7014 0.01351,-4.07712c-0.22866,-1.08318 -0.95768,-2.05403 -1.65722,-2.87158c-0.1393,-0.16281 -0.82056,-0.78928 -0.59733,-1.04876z" fill="#67dc31" stroke="none" stroke-linecap="butt"/><path d="M329.56884,186.85309c-0.24807,-1.09632 -0.75572,-2.10162 -1.03225,-3.18999c-0.49292,-1.94008 -0.3102,-2.51551 -1.62543,-4.2266c-0.35404,-0.4606 -0.79524,-1.09457 -0.01382,-1.63724c0.88067,-0.61161 1.33031,0.24274 1.715,0.72813c1.14234,1.4414 1.40382,2.86958 1.74781,4.64834c0.12923,0.66821 0.39751,1.16073 0.60332,1.80701c0.31613,0.9927 0.53578,2.01995 0.69361,3.05487c0.06283,0.41201 0.09761,0.77711 0.13879,1.12621c-0.63533,-0.00119 -1.27067,-0.00188 -1.906,-0.00208c-0.07814,-0.77391 -0.16924,-1.63786 -0.32103,-2.30865z" fill="#67dc31" stroke="none" stroke-linecap="butt"/><path d="M328.08675,177.56883c0.21213,0.16437 0.34009,0.42265 0.3234,0.71309c-0.00045,0.00791 -0.00101,0.01581 -0.00168,0.02367c0.01871,0.10823 -0.01351,0.20745 -0.0784,0.29832c-0.15367,0.33749 -0.50661,0.57707 -0.90379,0.57707c-0.35394,0.16606 -0.81278,-0.46323 -1.04119,-0.58473c-0.80643,-0.42898 -1.77355,-0.92824 -2.75177,-0.92948c-1.1058,-0.0014 -2.40953,0.20108 -3.44572,0.70273c-0.24212,0.11721 -0.61424,0.48622 -0.93805,0.52874c-0.49858,0.06547 -0.94651,0.12529 -1.14644,-0.56861c-0.33207,-1.15248 1.78957,-1.76366 2.56826,-1.98898c2.18776,-0.63304 4.47708,-0.63787 6.38626,0.507c0.42946,0.25753 0.78392,0.43439 1.02913,0.72118z" fill="#67dc31" stroke="none" stroke-linecap="butt"/><path d="M327.5399,178.9543c0.14168,0.15974 0.22145,0.37212 0.20806,0.60522c-0.00045,0.00791 -0.00101,0.01582 -0.00168,0.02368c0.01173,0.06784 0.00345,0.13213 -0.02034,0.19305c1.02929,1.31344 2.48751,3.29923 2.28187,4.78584c-0.15186,1.09789 -0.19356,2.21641 -0.51545,3.28865c-0.13008,0.43331 -0.30082,0.86991 -0.45827,1.31102c-0.65262,0.00025 -1.30524,0.00103 -1.95785,0.00232c0.39731,-1.50732 0.99867,-2.97332 1.05728,-4.5872c0.06344,-1.74693 -1.74306,-3.13373 -2.57529,-4.42013c-0.07684,-0.11877 -0.11732,-0.26231 -0.12216,-0.41175c-0.00139,-0.02988 -0.00124,-0.06018 0.00053,-0.09084c0.00354,-0.06159 0.01341,-0.12173 0.02898,-0.17983c0.00108,-0.00431 0.0022,-0.00862 0.00334,-0.01292c-0.59064,-0.3239 -1.4965,-0.50768 -2.08022,-0.51703c-0.85059,-0.01362 -1.69036,-0.10971 -2.52469,0.09372c-0.5106,0.1245 -1.24647,0.92341 -1.77808,0.56847c-0.25092,-0.16753 -0.47242,-0.45266 -0.47778,-0.75388c-0.02053,-1.15378 1.89724,-1.63902 2.79345,-1.69264c1.8351,-0.10981 5.18526,-0.06989 6.13831,1.79426z" fill="#4cc513" stroke="none" stroke-linecap="butt"/><path d="M330.54761,184.95748c0.1879,1.1402 0.14929,2.30283 0.11449,3.4708c-0.0073,0.24499 -0.02209,0.48961 -0.0415,0.73392c-0.62905,-0.00057 -1.25811,-0.00066 -1.88717,-0.00026c0.02774,-0.25103 0.05028,-0.48764 0.06262,-0.70198c0.05099,-0.88608 0.07376,-1.90597 -0.03546,-2.79221c-0.04109,-0.33341 -0.20855,-0.74624 -0.12313,-1.0808c0.00986,-0.0386 -2.69217,-3.73594 -2.6735,-3.76929c0.16255,-0.29042 -0.23004,-1.03704 0.21081,-1.32236c0.44085,-0.28532 1.30825,0.33922 1.30825,0.33922c0.24228,0.04726 3.02875,4.90543 3.06459,5.12297z" fill="#7ade4c" stroke="none" stroke-linecap="butt"/><path d="M323.14067,182.30194c-0.22451,0.13921 -1.02208,-0.32874 -1.32486,-0.32915c-0.29291,-0.00039 -0.58582,-0.00103 -0.87882,0c-0.43567,0.00153 -0.62045,0.46916 -1.1565,0.43148c-0.61973,-0.04357 -0.9249,-0.87416 -0.64865,-1.40726c0.23849,-0.46023 0.77665,-0.50381 1.18958,-0.67577c0.80507,-0.33526 2.168,-0.30036 3.01771,0.19787c0.35875,0.21035 0.62603,0.50331 0.7212,0.88586z" fill="#9efd71" stroke="none" stroke-linecap="butt"/><path d="M325.55721,180.30065c0.22214,0.16358 0.35732,0.42774 0.34018,0.72577c-0.00045,0.00791 -0.00101,0.01581 -0.00168,0.02367c0.01871,0.10823 -0.01351,0.20745 -0.0784,0.29832c-0.15367,0.33749 -0.5066,0.57707 -0.90379,0.57707c-0.22575,0.10592 -0.3955,-0.01114 -0.53652,-0.1705c-0.12455,-0.09067 -0.22211,-0.21279 -0.28134,-0.35478c-0.02754,-0.02934 -0.0546,-0.05313 -0.08157,-0.06876c-0.43712,-0.25344 -1.02812,-0.63004 -1.56743,-0.70083c-0.58814,-0.07719 -1.31155,-0.08573 -1.87835,-0.07738c-0.37171,0.00547 -0.55083,0.65914 -1.10144,0.47879c-0.29158,-0.09551 -0.62825,-0.23246 -0.75276,-0.5026c-0.44878,-0.97362 0.97913,-1.6173 1.72075,-1.77432c1.45927,-0.30895 4.14344,0.26984 5.12234,1.54554z" fill="#67dc31" stroke="none" stroke-linecap="butt"/></g><path d="M320.41742,176.80908c0.46326,-0.97199 -0.23494,-1.61692 0.55437,-2.73965c0.78931,-1.12273 1.034,-1.86416 2.26531,-2.65219c1.23131,-0.78803 1.24574,-1.44256 3.44707,-1.00369c2.20133,0.43887 4.3234,1.94581 5.06343,2.70039c0.74003,0.75458 -0.03844,2.26389 0.21845,2.68539c0.25689,0.42149 0.31191,0.18067 1.11874,-0.49137c0.80683,-0.67203 1.83437,-1.96837 1.83437,-1.96837c0,0 -0.43856,2.53598 -1.24816,3.31902c-0.8096,0.78304 -1.63433,1.32355 -2.63139,0.43324c-0.99705,-0.89031 0.6572,-1.90262 -0.51355,-3.24147c-1.17074,-1.33884 -2.74129,-1.87707 -4.06341,-1.99271c-1.32212,-0.11564 -2.23028,0.26425 -3.02546,1.37267c-0.79519,1.10842 -0.61546,2.52455 -0.88734,3.59693c-0.27188,1.07238 -1.36232,2.48121 -1.36232,2.48121c0,0 -0.48107,0.37356 -0.96861,0.20105c-0.48835,-0.17281 -0.5417,-1.28131 -0.5417,-1.28131c0,0 0.27693,-0.44715 0.7402,-1.41913z" fill="#026b00" fill-rule="nonzero" stroke="#000000" stroke-width="0" stroke-linecap="round" stroke-linejoin="miter"/><g fill-rule="nonzero" stroke-width="0" stroke-linecap="butt" stroke-linejoin="miter"><g stroke="#000000"><path d="M309.30706,183.61721c-0.12561,-0.62926 0.21492,-1.55504 0.8566,-1.68312c0.64168,-0.12808 1.34152,0.59003 1.46712,1.21929c0.12561,0.62926 -0.30766,1.01234 -0.94933,1.14043c-0.64168,0.12808 -1.24878,-0.04734 -1.37439,-0.67659z" fill="#d995cc"/><path d="M311.67449,182.96742c-0.61971,-0.16642 -1.29854,-0.88211 -1.12885,-1.51406c0.1697,-0.63195 1.12367,-0.94084 1.74338,-0.77443c0.61971,0.16642 0.77099,0.72462 0.60129,1.35656c-0.1697,0.63195 -0.59611,1.09833 -1.21582,0.93192z" fill="#d995cc"/><path d="M311.52833,180.28591c-0.22287,0.60172 -0.99815,1.21163 -1.61174,0.98435c-0.61359,-0.22727 -0.83317,-1.20566 -0.61029,-1.80738c0.22287,-0.60172 0.79265,-0.70086 1.40625,-0.47359c0.61359,0.22727 1.03866,0.69489 0.81579,1.29662z" fill="#d995cc"/><path d="M309.1716,179.59833c0.44052,0.46656 0.64347,1.43187 0.1677,1.88109c-0.47577,0.44922 -1.45009,0.21223 -1.89061,-0.25433c-0.44052,-0.46656 -0.27676,-1.02122 0.19901,-1.47044c0.47577,-0.44922 1.08338,-0.62288 1.5239,-0.15633z" fill="#d995cc"/><path d="M307.62417,181.70411c0.53769,-0.3502 1.52373,-0.37763 1.88083,0.17066c0.35711,0.54829 -0.04994,1.46469 -0.58763,1.81489c-0.53769,0.3502 -1.05422,0.09008 -1.41133,-0.45821c-0.35711,-0.54829 -0.41956,-1.17714 0.11812,-1.52733z" fill="#d995cc"/><path d="M308.49314,181.77698c0,-0.68109 0.55213,-1.23323 1.23323,-1.23323c0.6811,0 1.23323,0.55213 1.23323,1.23323c0,0.68109 -0.55214,1.23323 -1.23323,1.23323c-0.6811,0 -1.23323,-0.55213 -1.23323,-1.23323z" fill="#d8a51e"/></g><g stroke="none"><path d="M309.30706,183.61721c-0.12561,-0.62926 0.21492,-1.55504 0.8566,-1.68312c0.64168,-0.12808 1.34152,0.59003 1.46712,1.21929c0.12561,0.62926 -0.30766,1.01234 -0.94933,1.14043c-0.64168,0.12808 -1.24878,-0.04734 -1.37439,-0.67659z" fill="#d995cc"/><path d="M311.67449,182.96742c-0.61971,-0.16642 -1.29854,-0.88211 -1.12885,-1.51406c0.1697,-0.63195 1.12367,-0.94084 1.74338,-0.77443c0.61971,0.16642 0.77099,0.72462 0.60129,1.35656c-0.1697,0.63195 -0.59611,1.09834 -1.21582,0.93192z" fill="#d995cc"/><path d="M311.52833,180.28591c-0.22287,0.60172 -0.99815,1.21164 -1.61174,0.98436c-0.61359,-0.22727 -0.83317,-1.20567 -0.6103,-1.80739c0.22287,-0.60172 0.79266,-0.70085 1.40625,-0.47358c0.61359,0.22727 1.03866,0.69489 0.81579,1.29662z" fill="#d995cc"/><path d="M309.1716,179.59833c0.44052,0.46656 0.64347,1.43188 0.1677,1.8811c-0.47577,0.44922 -1.45009,0.21223 -1.89061,-0.25433c-0.44052,-0.46656 -0.27676,-1.02122 0.19901,-1.47044c0.47577,-0.44922 1.08338,-0.62288 1.52391,-0.15633z" fill="#d995cc"/><path d="M307.62417,181.70411c0.53769,-0.3502 1.52373,-0.37763 1.88083,0.17066c0.35711,0.54829 -0.04994,1.46469 -0.58763,1.81489c-0.53769,0.3502 -1.05422,0.09008 -1.41133,-0.45821c-0.35711,-0.54829 -0.41956,-1.17714 0.11812,-1.52733z" fill="#d995cc"/><path d="M308.49314,181.77698c0,-0.68109 0.55214,-1.23323 1.23323,-1.23323c0.6811,0 1.23323,0.55213 1.23323,1.23323c0,0.68109 -0.55214,1.23323 -1.23323,1.23323c-0.6811,0 -1.23323,-0.55213 -1.23323,-1.23323z" fill="#d8a51e"/></g></g><g fill-rule="nonzero" stroke-width="0" stroke-linecap="butt" stroke-linejoin="miter"><g stroke="#000000"><path d="" fill="#d995cc"/><path d="" fill="#d995cc"/><path d="" fill="#d995cc"/><path d="" fill="#d995cc"/><path d="" fill="#d995cc"/><path d="" fill="#d8a51e"/></g><g stroke="none"><path d="" fill="#ffc37a"/><path d="" fill="#ffc37a"/><path d="" fill="#ffc37a"/><path d="" fill="#ffc37a"/><path d="" fill="#ffc37a"/><path d="" fill="#d8a51e"/></g></g><g fill-rule="nonzero" stroke-width="0" stroke-linecap="butt" stroke-linejoin="miter"><g stroke="#000000"><path d="" fill="#d995cc"/><path d="M306.61051,189.37071c0.17224,-0.08855 0.36737,-0.10108 0.57636,-0.01027c-0.19212,0.00338 -0.38424,0.00681 -0.57636,0.01027z" fill="#d995cc"/><path d="M309.09923,189.27066c0.04113,0.01734 0.08078,0.03588 0.11877,0.0556c-0.38297,0.00615 -0.76593,0.01246 -1.14889,0.01895c0.24666,-0.24399 0.64526,-0.23675 1.03012,-0.07454z" fill="#d995cc"/><path d="" fill="#d995cc"/><path d="" fill="#d995cc"/><path d="" fill="#d8a51e"/></g><g stroke="none"><path d="" fill="#807bff"/><path d="M306.61051,189.37071c0.17224,-0.08855 0.36738,-0.10108 0.57637,-0.01027c-0.19212,0.00338 -0.38425,0.00681 -0.57637,0.01027z" fill="#807bff"/><path d="M309.09923,189.27066c0.04113,0.01734 0.08078,0.03588 0.11877,0.0556c-0.38297,0.00615 -0.76593,0.01246 -1.14889,0.01895c0.24666,-0.24399 0.64526,-0.23675 1.03012,-0.07454z" fill="#807bff"/><path d="" fill="#807bff"/><path d="" fill="#807bff"/><path d="" fill="#d8a51e"/></g></g><path d="M304.06403,192.7926v-3.89253h30.10353v3.89253z" fill="#2ada0e" fill-rule="nonzero" stroke="none" stroke-width="2.5" stroke-linecap="butt" stroke-linejoin="miter"/></g></g></svg>