<svg version="1.1" xmlns="http://www.w3.org/2000/svg" xmlns:xlink="http://www.w3.org/1999/xlink" width="34.36433" height="34.17311" viewBox="0,0,34.36433,34.17311"><g transform="translate(-302.91345,-162.91346)"><g stroke-miterlimit="10"><path d="M309.98312,162.91347h20.03379c3.9166,0 7.06966,3.15307 7.06966,7.06966v20.03379c0,3.91659 -3.15306,7.06966 -7.06966,7.06966h-20.03379c-3.91659,0 -7.06966,-3.15307 -7.06966,-7.06966v-20.03379c0,-3.91659 3.15307,-7.06966 7.06966,-7.06966z" fill="#ffffff" fill-rule="evenodd" stroke="none" stroke-width="4.43922" stroke-linecap="round" stroke-linejoin="round"/><path d="" fill="none" fill-rule="nonzero" stroke="#000000" stroke-width="2" stroke-linecap="round" stroke-linejoin="miter"/><path d="" fill="#000000" fill-rule="nonzero" stroke="none" stroke-width="0.5" stroke-linecap="butt" stroke-linejoin="miter"/><path d="M307.83333,167h28" fill="none" fill-rule="nonzero" stroke="#c8c8c8" stroke-width="1" stroke-linecap="round" stroke-linejoin="miter"/><path d="M307.16666,173.33334h29.22223" fill="none" fill-rule="nonzero" stroke="#c8c8c8" stroke-width="1" stroke-linecap="round" stroke-linejoin="miter"/><path d="M307.5,177.66667h29" fill="none" fill-rule="nonzero" stroke="#c8c8c8" stroke-width="1" stroke-linecap="round" stroke-linejoin="miter"/><path d="M307.33333,182.66667h29.44444" fill="none" fill-rule="nonzero" stroke="#c8c8c8" stroke-width="1" stroke-linecap="round" stroke-linejoin="miter"/><path d="M307.44444,187h29.33334" fill="none" fill-rule="nonzero" stroke="#c8c8c8" stroke-width="1" stroke-linecap="round" stroke-linejoin="miter"/><path d="M307.5,190.66667h28.66666" fill="none" fill-rule="nonzero" stroke="#c8c8c8" stroke-width="1" stroke-linecap="round" stroke-linejoin="miter"/><path d="M307.16667,170.33334h29.44444" fill="none" fill-rule="nonzero" stroke="#c8c8c8" stroke-width="1" stroke-linecap="round" stroke-linejoin="miter"/><path d="M307,164.66667v29.33334" fill="none" fill-rule="nonzero" stroke="#d5d5d5" stroke-width="1.5" stroke-linecap="round" stroke-linejoin="miter"/><path d="M306.72159,184.42104c-0.04647,-0.00795 -0.0929,-0.0162 -0.1393,-0.02477c-0.05058,-0.00979 -0.10116,-0.01958 -0.15174,-0.02937l-0.01171,-0.01174l-0.00284,0.00569l-0.12637,-0.06319c-0.03818,-0.0181 -0.06458,-0.05699 -0.06458,-0.10205c0,-0.06234 0.05053,-0.11288 0.11287,-0.11288c0.0036,0 0.00717,0.00017 0.01069,0.0005l0.03289,0.00274c-0.05059,-0.02591 -0.10624,-0.05518 -0.16318,-0.08718c-0.18406,-0.08051 -0.35926,-0.17046 -0.51089,-0.28015l-0.00383,-0.00689l-0.00178,0.00184l-0.14914,-0.14361c-0.02139,-0.02054 -0.03472,-0.04943 -0.03472,-0.08143c0,-0.06234 0.05054,-0.11288 0.11288,-0.11288c0.02191,0 0.04235,0.00624 0.05966,0.01704l0.19199,0.11519l-0.01676,0.02793c0.19293,0.08877 0.35629,0.19874 0.54521,0.30647c0.14031,0.05747 0.28526,0.11012 0.42652,0.16266c0.06149,0.01356 0.11945,0.03043 0.16347,0.06182c0.05854,0.02269 0.1158,0.04569 0.17116,0.06936c0.12827,0.00557 0.25716,0.01088 0.38711,0.01088c0.87848,0 1.75696,0 2.63544,0h0.06428c0,0 0.11288,0 0.11288,0.11288c0,0.11288 -0.11288,0.11288 -0.11288,0.11288c-0.59325,0 -1.25078,0 -1.84403,0c0.69917,0.03453 1.4016,0.03136 2.10114,0.03136c0,0 0.08159,0 0.10604,0.06937c-0.87608,0.02392 -1.74043,0.05514 -2.58951,0.10067c-0.35552,-0.02499 -0.71003,-0.06116 -1.06294,-0.11354c-0.04111,0.07426 -0.08897,0.13693 -0.13086,0.15712c-0.00441,0.00213 -0.00887,0.0041 -0.01338,0.00593c-0.19311,-0.01907 -0.3873,-0.03448 -0.58249,-0.04615c0.16123,-0.05454 0.32045,-0.10721 0.47868,-0.15649z" fill="#000000" fill-rule="nonzero" stroke="none" stroke-width="0.5" stroke-linecap="butt" stroke-linejoin="miter"/><path d="M334.06421,184.09419c-0.0499,0.0042 -0.10066,0.00897 -0.14107,0.00063c-0.22629,-0.04672 -0.4409,-0.11332 -0.66157,-0.18122c-0.08612,-0.0265 -0.17224,-0.053 -0.25836,-0.0795c0.00023,0.05623 0.00035,0.11245 0.00035,0.16867c0,0.07954 0,0.15908 0,0.23862c-0.10068,-0.01495 -0.20163,-0.02934 -0.30281,-0.04318c-0.00621,-0.10794 -0.00839,-0.21617 0.01265,-0.31414c0.00009,-0.03554 0.00013,-0.07107 0.00013,-0.10661v-0.22465c0,-0.05494 0.03925,-0.10072 0.09124,-0.1108c0.01979,-0.05569 0.05219,-0.10073 0.10469,-0.12105c0.26405,-0.10219 0.89337,0.35609 1.1157,0.47154c0.11584,0.06016 0.33405,-0.02782 0.38004,0.09434c0.01498,0.03979 0.00575,0.07919 -0.01435,0.11811c0.04529,0.03247 0.07699,0.06838 0.08968,0.10829c0.01587,0.04989 -0.09508,0.2022 -0.21347,0.34916c-0.14102,-0.02865 -0.2827,-0.056 -0.42499,-0.08212c0.06714,-0.10963 0.14229,-0.20988 0.22215,-0.2861zM333.00046,183.52756c-0.02342,-0.00068 -0.00405,0.04206 0.00025,0.06958c0.10908,0.03357 0.21817,0.06713 0.32726,0.1007c0.03909,0.01203 0.09643,0.02471 0.16498,0.03877c-0.17451,-0.09913 -0.38005,-0.20581 -0.49248,-0.20904z" fill="#000000" fill-rule="nonzero" stroke="none" stroke-width="0.5" stroke-linecap="butt" stroke-linejoin="miter"/><path d="M333.46109,181.19633c-0.05377,0.11207 -0.10801,0.22391 -0.16381,0.33481c-0.04323,0.08592 -0.09451,0.15984 -0.13647,0.23543c0.007,-0.30537 0.02414,-0.63302 0.03845,-0.96107c0.05466,-0.07919 0.01194,-0.19702 0.01898,-0.29345c0,-0.35327 0.00434,-0.71322 0.00434,-1.0665c0,-0.05623 0.00025,-0.1126 0.00002,-0.16883c0.08612,0.0265 0.17352,0.0526 0.25964,0.0791c0.22068,0.0679 0.43979,0.13495 0.66608,0.18167c0.04041,0.00834 0.09194,0.00396 0.14184,-0.00024c-0.2366,0.22582 -0.4296,0.66434 -0.49816,0.93106c-0.10615,0.27556 -0.24637,0.48779 -0.33092,0.72801z" fill="#ffffff" fill-rule="nonzero" stroke="none" stroke-width="0.5" stroke-linecap="butt" stroke-linejoin="miter"/><g fill-rule="nonzero" stroke="none" stroke-width="0.5" stroke-linecap="butt" stroke-linejoin="miter"><path d="M310.31174,183.26463c0.07067,-1.09868 0.5689,-2.00121 1.14513,-2.90268c0.20457,-0.39633 0.44276,-0.77702 0.71019,-1.12245c0.05318,-0.07907 0.11061,-0.15617 0.17622,-0.23024c1.06546,-1.19725 2.22977,-2.08179 3.68417,-2.66607c0.68142,-0.28963 1.382,-0.47373 2.09171,-0.59597c0.17474,-0.06381 0.34536,-0.1245 0.53783,-0.15007c1.13016,-0.14664 2.28226,-0.27997 3.40727,-0.19347c0.1012,-0.00415 0.20142,-0.00467 0.29956,0.00097c0.1119,0.00643 0.22756,0.02044 0.3458,0.04103c0.66796,0.04702 1.31381,0.19626 1.89917,0.56144c0.47069,0.29581 1.06132,0.48091 1.49279,0.83383c0.58141,0.47556 1.04489,1.13984 1.41623,1.83943c0.2056,0.38734 0.40649,0.78224 0.60281,1.18175c0.04778,0.0742 0.09511,0.14847 0.14196,0.22288c0.18667,0.26666 0.36206,0.54139 0.51898,0.82882c0.30307,0.55561 0.65507,1.11357 0.86092,1.72185c0.09101,0.26893 0.15367,0.55686 0.19498,0.85311c0.03987,0.15064 0.07605,0.30331 0.1083,0.45822c-0.10393,-0.00531 -0.20797,-0.01022 -0.31211,-0.01473c-0.13898,-0.46141 -0.31484,-0.90955 -0.50191,-1.33824c-0.36543,-0.83829 -0.75023,-1.68449 -1.15459,-2.51204c-0.59859,-0.81925 -1.29813,-1.56351 -1.84829,-2.40048c-0.32326,-0.20315 -0.577,-0.52164 -0.85145,-0.81993c-0.01927,-0.01412 -0.03861,-0.02811 -0.05802,-0.04195c-0.45481,-0.32437 -1.09283,-0.68235 -1.73409,-0.92074c-0.19267,-0.04924 -0.38422,-0.09663 -0.56663,-0.15055c-0.21753,-0.04349 -0.43674,-0.07603 -0.6572,-0.09927c-0.21765,-0.00223 -0.43676,0.00402 -0.65573,0.0146c-0.11912,0.01116 -0.23736,0.02215 -0.35285,0.02866c-1.51846,0.0856 -2.89893,0.18313 -4.36294,0.71684c-0.05898,0.0215 -0.11795,0.04354 -0.17687,0.06612c-0.50626,0.20643 -0.99046,0.45605 -1.4588,0.8024c-1.24219,0.87843 -2.27089,1.87794 -2.98924,3.24332c-0.70889,1.22362 -1.45745,2.51789 -1.51141,3.94891c-0.12374,0.00328 -0.24725,0.00669 -0.37051,0.01026c-0.04335,-0.40338 -0.06804,-0.80909 -0.07137,-1.21558zM313.191,178.49672c-0.31195,0.24609 -0.60017,0.54718 -0.86001,0.8833c-0.11336,0.17014 -0.20596,0.35081 -0.32106,0.5272c-0.12343,0.18918 -0.2472,0.37671 -0.36774,0.56443c-0.30335,0.59 -0.52961,1.21522 -0.66221,1.80442c-0.04688,0.20732 -0.09089,0.41351 -0.13104,0.61884c0.29841,-0.86488 0.76659,-1.68389 1.22646,-2.47725c0.59726,-1.13584 1.40647,-2.02784 2.37109,-2.80444c-0.43719,0.2732 -0.85849,0.56976 -1.2555,0.88351zM325.62155,176.78961c0.08596,0.08379 0.16841,0.16941 0.24616,0.25518c0.43936,0.38973 0.84179,0.84493 1.21282,1.32423c-0.3125,-0.51328 -0.68141,-0.98265 -1.11975,-1.34678c-0.10404,-0.08642 -0.21866,-0.16257 -0.33922,-0.23263zM310.83387,181.96319c-0.16172,0.4066 -0.27241,0.83339 -0.30246,1.29556c0.00052,0.05531 0.00144,0.11059 0.00275,0.16587c0.06212,-0.39318 0.14155,-0.78862 0.23191,-1.18822c0.02053,-0.0904 0.04315,-0.18154 0.0678,-0.27322z" fill="#000000"/><path d="M325.95645,177.01607c0.43835,0.36412 0.81669,0.84518 1.12919,1.35846c-0.37103,-0.4793 -0.77351,-0.93444 -1.21287,-1.32417c-0.07776,-0.08577 -0.17036,-0.1825 -0.25632,-0.26629c0.12057,0.07006 0.23597,0.14557 0.34001,0.232z" fill="#ffffff"/><path d="" fill="#ffffff"/><path d="" fill="#ffffff"/><path d="" fill="#ffffff"/><path d="" fill="#ffffff"/><path d="" fill="#ffffff"/><path d="M310.76472,182.24381c-0.09036,0.3996 -0.16994,0.795 -0.23206,1.18819c-0.00131,-0.05528 -0.00268,-0.11067 -0.00319,-0.16598c0.03005,-0.46216 0.1442,-0.9036 0.30593,-1.3102c-0.02465,0.09168 -0.05014,0.1976 -0.07068,0.28799z" fill="#ffffff"/><path d="M312.08265,180.41558c-0.45986,0.79336 -0.93105,1.60822 -1.22946,2.4731c0.04015,-0.20533 0.07513,-0.39949 0.12201,-0.60682c0.13259,-0.58919 0.35629,-1.21863 0.65964,-1.80863c0.12054,-0.18772 0.24505,-0.38045 0.36849,-0.56962c0.11509,-0.17639 0.21174,-0.36052 0.3251,-0.53067c0.25984,-0.33612 0.55284,-0.63732 0.8648,-0.88342c0.39701,-0.31375 0.81185,-0.59689 1.24904,-0.8701c-0.96461,0.7766 -1.76235,1.6603 -2.35961,2.79614z" fill="#ffffff"/><path d="M312.25831,180.51769c0.71835,-1.36539 1.74952,-2.36773 2.99171,-3.24616c0.46834,-0.34635 0.95379,-0.59667 1.46005,-0.8031c0.05893,-0.02258 0.11804,-0.04469 0.17702,-0.06619c1.464,-0.53371 2.84822,-0.63175 4.36668,-0.71735c0.11548,-0.00651 0.23402,-0.01747 0.35314,-0.02863c0.21897,-0.01057 0.43861,-0.01672 0.65626,-0.01449c0.22046,0.02324 0.44019,0.05591 0.65773,0.09941c0.18241,0.05392 0.37441,0.10147 0.56708,0.1507c0.64126,0.23839 1.28071,0.59712 1.73553,0.92148c0.01941,0.01384 0.0388,0.02785 0.05807,0.04198c0.27445,0.29829 0.52897,0.61737 0.85223,0.82052c0.55016,0.83697 1.2513,1.5832 1.8499,2.40246c0.40436,0.82755 0.78998,1.67589 1.15541,2.51418c0.18716,0.4289 0.36324,0.87831 0.50228,1.34014c-3.78957,-0.165 -7.71373,0.18828 -11.09195,0.34152c-2.64105,0.1198 -5.27044,0.12886 -7.80334,0.196c0.05399,-1.43129 0.80329,-2.72882 1.5122,-3.95247z" fill="#ffffff"/></g></g></g></svg>