<svg version="1.1" xmlns="http://www.w3.org/2000/svg" xmlns:xlink="http://www.w3.org/1999/xlink" width="235.12211" height="285.30996" viewBox="0,0,235.12211,285.30996"><g transform="translate(-215.96471,-38.88751)"><g stroke-miterlimit="10"><path d="" fill="none" stroke="#000000" stroke-width="2" stroke-linecap="round"/><path d="M428.32697,170.92064l-73.60437,153.27684l-80.00752,-0.55421l-38.48629,-150.92466l13.53556,-19.5766l165.07415,0.95171l13.86036,3.99455l-0.37184,12.83237z" fill="#000000" stroke="#000000" stroke-width="0" stroke-linecap="butt"/><g fill="#ffffff" stroke="#000000" stroke-width="0"><path d="M334.7559,199.67405l-3.78225,43.68787l-2.94431,0.76578l-4.01435,5.51458l-6.36473,-17.16406l9.15286,-32.64284z" stroke-linecap="round"/><path d="M341.84087,195.33845l-1.90627,4.99779l-9.84199,1.8401l-7.774,-1.17062l-2.5969,-5.66728l3.34907,-5.73543l8.39921,-1.10246l9.11695,1.6431l1.25396,5.1948z" stroke-linecap="butt"/></g><path d="M215.96471,306.61253l21.94008,-267.72501h213.18203l-21.94008,267.72501z" fill="none" stroke="none" stroke-width="0" stroke-linecap="butt"/><path d="M273.18364,132.8213l69.17847,-60.29833l59.29557,60.29833l-69.17848,60.29834z" fill="#000000" stroke="#000000" stroke-width="2" stroke-linecap="butt"/><g stroke="#000000" stroke-width="0" stroke-linecap="butt"><path d="M272.35376,135.18421l-8.97015,-62.69671l76.16523,-4.94998l71.25386,-0.59381l-9.18317,63.89589z" fill="#000000"/><path d="M273.33813,134.3003l-1.82737,-10.17038l130.62119,-1.0678l-1.53176,10.08137z" fill="#ffffff"/><path d="M253.11641,142.09834l-3.54522,-5.776l-0.36866,-7.39253l176.13771,-0.75584l-1.79919,6.13824l-3.94512,7.1944l-4.87458,0.01733l-6.49006,28.3523l0.43236,-15.42891l-2.61492,-12.89256l-136.70381,0.4859l-4.2869,10.82347l-5.71732,-10.78791l-6.2243,0.02212z" fill="#000000"/></g><path d="M399.98473,125.34861l0.62023,-0.90951l0.43771,-0.0631l3.51329,-4.19236l0.04885,-2.49735l0.8298,-0.60364l0.12717,-1.08261l0.81147,-0.75l0.68853,0.75l-0.94025,4.18248l5.47595,6.56752l0.69871,-0.1521l0.8343,0.58835l-0.66068,0.88252l-0.99527,0.18123l-6.31059,-6.11865l-3.39153,3.49269l-0.92294,0.27024l-0.8648,-0.54571z" fill="#000000" stroke="none" stroke-width="0.5" stroke-linecap="butt"/><path d="M304.06002,166.39209l0.39163,-0.06336l0.72572,0.57532l-0.05618,0.20161l0.93512,3.01136l-3.84085,-0.65442l0.64332,-2.55855l0.82002,-0.57532l0.38123,0.06336z" fill="#ffffff" stroke="none" stroke-width="0.5" stroke-linecap="butt"/><path d="M317.53107,168.97362l0.97818,0.16058l0.78153,0.86502l-0.08878,2.38001l-3.21298,-0.26219l0.08599,-2.82943l0.82002,-0.57532l0.63603,0.26132z" fill="#ffffff" stroke="none" stroke-width="0.5" stroke-linecap="butt"/><path d="M333.41474,168.13698l0.72572,0.57532l-0.06289,0.69679l0.95444,3.02657l-3.85785,-0.10918l0.06963,-2.84709l0.82002,-0.57532l0.50677,0.13059l0.02419,-0.32236l0.82002,-0.57532z" fill="#ffffff" stroke="none" stroke-width="0.5" stroke-linecap="butt"/><path d="M346.31638,169.09844l0.67138,-0.2526l0.72572,0.57532l-0.04047,0.00984l1.5101,2.94643l-4.38561,-0.33247l0.32405,-2.43203l0.82002,-0.57532l0.37483,0.06082z" fill="#ffffff" stroke="none" stroke-width="0.5" stroke-linecap="butt"/><path d="M356.85125,168.00861l0.27764,-0.02923l0.71521,0.45194l1.39081,2.987l-4.21045,0.24421l0.3221,-3.91592l0.86964,-0.53286l0.66545,0.61485z" fill="#ffffff" stroke="none" stroke-width="0.5" stroke-linecap="butt"/><path d="M363.57231,166.39209l0.02383,-0.02279l1.09102,-0.11892l0.72916,0.43592l1.78289,3.15985l-4.96287,0.46265l0.14477,-3.26521l0.61952,-0.69767l0.57169,0.04618z" fill="#ffffff" stroke="none" stroke-width="0.5" stroke-linecap="butt"/><path d="M370.55682,166.00957l1.00674,-0.1954l0.15887,0.13104l3.25622,1.11489l-3.5784,1.56484l-2.18183,-1.97705l0.27974,-0.79781l1.05866,0.15952z" fill="#ffffff" stroke="none" stroke-width="0.5" stroke-linecap="butt"/><path d="M294.65583,163.2604l0.64463,0.27446l0.12998,0.08582l-0.02913,0.78416l-0.60345,3.00848l-4.21154,-1.60319l3.24617,-1.91095l0.00336,-0.06346l0.82002,-0.57532z" fill="#ffffff" stroke="none" stroke-width="0.5" stroke-linecap="butt"/><path d="M298.6837,166.13698h1.19723h0.3786l0.08596,-0.16225l0.74059,0.18758l0.5003,0.54999l-0.82002,0.57532h-0.50031l-0.58745,2.06234l-2.20801,0.4307l-2.20224,-0.30385l0.57833,-1.07953l1.64639,-1.82491l0.79138,-0.43538h0.39927z" fill="#ffffff" stroke="none" stroke-width="0.5" stroke-linecap="butt"/><path d="M311.15786,168.41668l0.42403,-0.18899l1.79566,3.40703l-4.13069,-0.55567l0.90527,-2.09965l0.82002,-0.57532l0.18573,0.0126z" fill="#ffffff" stroke="none" stroke-width="0.5" stroke-linecap="butt"/><path d="M325.16361,169.70566l0.76121,0.22168l1.45082,2.23179l-4.7842,0.27653l1.16869,-2.5205l0.97154,-0.41861l0.43199,0.2091z" fill="#ffffff" stroke="none" stroke-width="0.5" stroke-linecap="butt"/><path d="M338.81794,170.9505l0.29907,-0.11628l0.94779,0.36386l0.10519,0.40804l-2.84696,1.71489l-0.00445,-2.70808l0.82002,-0.57532l0.72572,0.57532l-0.04633,0.33758z" fill="#ffffff" stroke="none" stroke-width="0.5" stroke-linecap="butt"/><path d="M310.60371,184.1104l-1.00877,-0.18214l-1.92035,-3.11676l4.89262,-0.9292l-0.07751,3.454l-0.93951,0.67967l-0.94647,0.09446z" fill="#ffffff" stroke="none" stroke-width="0.5" stroke-linecap="butt"/><path d="M314.79561,189.47137l-0.14896,-0.79781l0.06471,-0.0662l-0.14616,-0.24222l-1.00286,-3.04451l5.23059,-0.308l-2.35006,3.72388l-0.56239,0.57532l-1.08485,0.15956z" fill="#ffffff" stroke="none" stroke-width="0.5" stroke-linecap="butt"/><path d="M323.10304,190.19284l-0.75518,0.37515l-0.72572,-0.57532l0.56397,-0.70634l-0.19029,-2.8161l4.62671,-0.52804l-3.51948,4.25066z" fill="#ffffff" stroke="none" stroke-width="0.5" stroke-linecap="butt"/><path d="M332.6457,189.66617l0.02799,0.06926l-0.37903,0.67461l-0.68958,0.27441l-0.72572,-0.57532l0.07028,-0.3737l0.03377,-0.06689l-0.62539,-2.3764l3.70108,-1.44975l-1.41342,3.82379z" fill="#ffffff" stroke="none" stroke-width="0.5" stroke-linecap="butt"/><path d="M336.93691,189.98648l-0.04744,-0.52405l-0.02477,-0.17863l1.01068,-3.28339l4.85048,0.41187l-3.92597,3.35022l-0.8043,0.38355l-1.05869,-0.15956z" fill="#ffffff" stroke="none" stroke-width="0.5" stroke-linecap="butt"/><path d="M347.2701,186.52513l-0.60016,0.70642l-0.91592,-0.40366l-0.51845,-3.81831l3.17263,1.94882l-0.05827,0.05002l0.01996,0.00766l-0.76721,1.01801l-0.39338,0.27498l0.0608,0.21608z" fill="#ffffff" stroke="none" stroke-width="0.5" stroke-linecap="butt"/><path d="M353.42366,183.79296l-0.72572,-0.57532l-0.46067,-2.92771l2.7141,-0.62524l0.42789,2.24917l-0.0825,0.09093l0.0529,0.00999l-0.3156,0.75541l-0.79038,0.44746l-0.82002,0.57532z" fill="#ffffff" stroke="none" stroke-width="0.5" stroke-linecap="butt"/></g></g></svg>