<svg version="1.1" xmlns="http://www.w3.org/2000/svg" xmlns:xlink="http://www.w3.org/1999/xlink" width="262.0944" height="267.72501" viewBox="0,0,262.0944,267.72501"><g transform="translate(-182.26802,-31.19977)"><g stroke-miterlimit="10"><path d="M190.1791,298.92479v-267.72501h254.18333v267.72501z" fill="none" stroke="none" stroke-width="0" stroke-linecap="butt"/><path d="" fill="none" stroke="#000000" stroke-width="2" stroke-linecap="round"/><g><g stroke="#000000"><path d="M288.84756,224.51715l50.33064,-7.46055l-18.72204,51.49607z" fill="#ff6300" stroke-width="5" stroke-linecap="round"/><path d="M243.34613,194.20754l41.35455,29.64176l-49.26628,23.9832z" fill="#ff6300" stroke-width="5" stroke-linecap="round"/><path d="M230.46596,143.58945l9.18999,50.04375l-52.11047,-16.93691z" fill="#ff6300" stroke-width="5" stroke-linecap="round"/><path d="M262.30177,100.05327l-30.9277,40.40186l-22.4219,-49.99619z" fill="#ff6300" stroke-width="5" stroke-linecap="round"/><path d="M319.11865,86.9037l-50.43761,6.69924l19.49797,-51.20732z" fill="#ff6300" stroke-width="5" stroke-linecap="round"/><path d="M368.54228,119.90972l-40.40185,-30.9277l49.99619,-22.4219z" fill="#ff6300" stroke-width="5" stroke-linecap="round"/><path d="M375.95263,171.6469l-6.69923,-50.43761l51.20733,19.49797z" fill="#ff6300" stroke-width="5" stroke-linecap="round"/><path d="M343.23063,214.67904l30.9277,-40.40186l22.4219,49.99619z" fill="#ff6300" stroke-width="5" stroke-linecap="round"/><path d="M229.0945,165.97272c-5.60186,-38.68335 23.26437,-74.88024 64.4745,-80.84802c41.21016,-5.96778 79.15878,20.55344 84.76064,59.23679c5.60186,38.68335 -23.26436,74.88025 -64.4745,80.84803c-41.21014,5.96777 -79.15878,-20.55345 -84.76064,-59.2368z" fill="#ffe63c" stroke-width="5" stroke-linecap="butt"/><path d="M288.84757,224.51715l50.33063,-7.46055l-18.72203,51.49608z" fill="#ff6300" stroke-width="0" stroke-linecap="round"/><path d="M243.34614,194.20754l41.35455,29.64176l-49.26628,23.9832z" fill="#ff6300" stroke-width="0" stroke-linecap="round"/><path d="M230.46596,143.58944l9.18998,50.04375l-52.11047,-16.93691z" fill="#ff6300" stroke-width="0" stroke-linecap="round"/><path d="M262.30177,100.05327l-30.9277,40.40186l-22.4219,-49.99619z" fill="#ff6300" stroke-width="0" stroke-linecap="round"/><path d="M319.11865,86.9037l-50.43761,6.69923l19.49797,-51.20732z" fill="#ff6300" stroke-width="0" stroke-linecap="round"/><path d="M368.54228,119.90972l-40.40186,-30.9277l49.99619,-22.4219z" fill="#ff6300" stroke-width="0" stroke-linecap="round"/><path d="M375.95262,171.64689l-6.69923,-50.43761l51.20733,19.49797z" fill="#ff6300" stroke-width="0" stroke-linecap="round"/><path d="M343.23063,214.67903l30.9277,-40.40186l22.4219,49.99619z" fill="#ff6300" stroke-width="0" stroke-linecap="round"/><path d="M229.0945,165.97272c-5.60186,-38.68335 23.26437,-74.88024 64.4745,-80.84802c41.21016,-5.96778 79.15878,20.55344 84.76064,59.23679c5.60186,38.68335 -23.26436,74.88025 -64.4745,80.84803c-41.21014,5.96777 -79.15878,-20.55345 -84.76064,-59.2368z" fill="#ffe63c" stroke-width="0" stroke-linecap="butt"/></g><path d="M263.10531,150.02711c-0.87647,-6.05245 3.31948,-11.66945 9.37193,-12.54592c6.05245,-0.87647 11.66945,3.31948 12.54592,9.37193c0.87647,6.05245 -4.46945,7.90479 -10.5219,8.78127c-6.05245,0.87647 -10.51948,0.44518 -11.39596,-5.60727z" fill="#000000" stroke="none" stroke-width="NaN" stroke-linecap="butt"/><path d="M331.50861,147.98377c-6.05245,0.87647 -11.79002,0.02436 -12.6665,-6.02808c-0.87647,-6.05245 3.31948,-11.66945 9.37193,-12.54592c6.05245,-0.87647 11.66945,3.31948 12.54592,9.37193c0.87647,6.05245 -3.19891,8.32561 -9.25136,9.20208z" fill="#000000" stroke="none" stroke-width="NaN" stroke-linecap="butt"/><path d="M333.75473,205.63613c0,0 -7.43271,11.8115 -19.21044,13.51707c-11.77774,1.70557 -23.44051,-7.34065 -23.44051,-7.34065c0,0 10.62852,1.9042 22.40625,0.19863c11.77774,-1.70557 20.2447,-6.37505 20.2447,-6.37505z" fill="#000000" stroke="#000000" stroke-width="1.5" stroke-linecap="butt"/></g></g></g></svg>