<svg version="1.1" xmlns="http://www.w3.org/2000/svg" xmlns:xlink="http://www.w3.org/1999/xlink" width="213.18203" height="280.18475" viewBox="0,0,213.18203,280.18475"><g transform="translate(-214.52362,-38.88752)"><g stroke-miterlimit="10"><g><path d="M291.52221,219.05856l-5.38698,-3.59132l7.7812,-14.36529l52.97199,-2.09494l9.27757,19.15371l-5.0877,2.69349l3.59132,9.87614l-4.78843,-0.89783c0,0 -18.8293,5.6049 -27.52496,5.55938c-10.13651,-0.05307 -29.6369,-5.85866 -29.6369,-5.85866l-6.58409,-3.29205l2.99277,-5.38698z" fill="#251375" stroke="#000000" stroke-width="0" stroke-linecap="round"/><g stroke-linecap="butt"><path d="M286.35186,319.07226l15.14285,-131.8421l37.78325,-0.15789l13.57389,132z" fill="#1c19ee" stroke="#000000" stroke-width="0"/><path d="M292.44624,265.508c2.68827,-23.40563 9.04847,-78.27784 9.04847,-78.27784l37.78325,-0.15789c0,0 5.71636,55.07295 8.12401,78.48629c0.01436,0.13966 -54.97581,0.12422 -54.95573,-0.05056z" fill="#1815bf" stroke="#000000" stroke-width="0"/><path d="M293.56364,256.29001c2.58099,-22.4716 8.53049,-69.05985 8.53049,-69.05985l37.78325,-0.15789c0,0 4.24282,47.05732 6.5846,69.83005c0.00407,0.03958 -52.91685,-0.45117 -52.89834,-0.61231z" fill="#1c0072" stroke="#000000" stroke-width="0"/><path d="M294.20505,245.4867c2.36047,-20.55158 7.28967,-58.25653 7.28967,-58.25653l37.78325,-0.15789c0,0 3.98836,38.78497 6.13101,59.62138c0.01596,0.15516 -51.22768,-1.0002 -51.20393,-1.20695z" fill="#110042" stroke="#000000" stroke-width="0"/><path d="M297.31707,243.63711c0.9665,0 1.75,0.7835 1.75,1.75c0,0.9665 -0.7835,1.75 -1.75,1.75c-0.30408,0 -0.59004,-0.07755 -0.83919,-0.21396c-0.24915,0.13641 -0.53511,0.21396 -0.83919,0.21396c-0.9665,0 -1.75,-0.7835 -1.75,-1.75c0,-0.9665 0.7835,-1.75 1.75,-1.75c0.30408,0 0.59004,0.07755 0.83919,0.21396c0.24915,-0.13641 0.53511,-0.21396 0.83919,-0.21396z" fill="#110042" stroke="none" stroke-width="0.5"/><path d="M304.86977,247.59618c-0.26262,0 -0.50632,-0.08099 -0.70749,-0.21934c-0.00394,0.00003 -0.00787,0.00004 -0.01182,0.00004c-0.66142,0 -1.23714,-0.36694 -1.53469,-0.90836c-0.31293,0.47499 -0.85106,0.78847 -1.46241,0.78847c-0.9665,0 -1.75,-0.7835 -1.75,-1.75c0,-0.9665 0.7835,-1.75 1.75,-1.75c0.66142,0 1.23714,0.36694 1.53469,0.90836c0.31293,-0.47499 0.85106,-0.78847 1.46241,-0.78847c0.47768,0 0.91066,0.19139 1.22644,0.50167c0.21217,-0.09139 0.44602,-0.14201 0.6917,-0.14201c0.9665,0 1.75,0.7835 1.75,1.75c0,0.9665 -0.7835,1.75 -1.75,1.75c-0.29401,0 -0.57108,-0.0725 -0.81432,-0.20061c-0.12114,0.03912 -0.25036,0.06026 -0.38452,0.06026z" fill="#110042" stroke="none" stroke-width="0.5"/><path d="M309.25433,248.26433c0,-0.24704 0.07166,-0.47734 0.19533,-0.67124c-0.62073,-0.2689 -1.05498,-0.88701 -1.05498,-1.60655c0,-0.9665 0.7835,-1.75 1.75,-1.75c0.9665,0 1.75,0.7835 1.75,1.75c0,0.52353 -0.22989,0.99337 -0.59423,1.31407c0.27723,0.22928 0.45388,0.57587 0.45388,0.96373c0,0.69036 -0.55964,1.25 -1.25,1.25c-0.69036,0 -1.25,-0.55964 -1.25,-1.25z" fill="#110042" stroke="none" stroke-width="0.5"/><path d="M312.23096,246.34618c0,-0.9665 0.7835,-1.75 1.75,-1.75c0.9665,0 1.75,0.7835 1.75,1.75c0,0.9665 -0.7835,1.75 -1.75,1.75c-0.9665,0 -1.75,-0.7835 -1.75,-1.75z" fill="#110042" stroke="none" stroke-width="0.5"/><path d="M316.54679,246.70583c0,-0.9665 0.7835,-1.75 1.75,-1.75c0.9665,0 1.75,0.7835 1.75,1.75c0,0.9665 -0.7835,1.75 -1.75,1.75c-0.9665,0 -1.75,-0.7835 -1.75,-1.75z" fill="#110042" stroke="none" stroke-width="0.5"/><path d="M321.00297,247.90467c0,-0.33427 0.13121,-0.6379 0.34494,-0.86219c0.0727,-0.89967 0.82586,-1.60712 1.74425,-1.60712c0.9665,0 1.75,0.7835 1.75,1.75c0,0.9665 -0.7835,1.75 -1.75,1.75c-0.04215,0 -0.08396,-0.00149 -0.12537,-0.00442c-0.20238,0.14103 -0.44844,0.22373 -0.71382,0.22373c-0.69036,0 -1.25,-0.55964 -1.25,-1.25z" fill="#110042" stroke="none" stroke-width="0.5"/><path d="M324.8188,247.66491c0,-0.9665 0.7835,-1.75 1.75,-1.75c0.9665,0 1.75,0.7835 1.75,1.75c0,0.9665 -0.7835,1.75 -1.75,1.75c-0.9665,0 -1.75,-0.7835 -1.75,-1.75z" fill="#110042" stroke="none" stroke-width="0.5"/><path d="M292.68985,257.01587c0,-0.9665 0.7835,-1.75 1.75,-1.75c0.9665,0 1.75,0.7835 1.75,1.75c0,0.9665 -0.7835,1.75 -1.75,1.75c-0.9665,0 -1.75,-0.7835 -1.75,-1.75z" fill="#1c0072" stroke="none" stroke-width="0.5"/><path d="M297.00568,256.65621c0,-0.9665 0.7835,-1.75 1.75,-1.75c0.9665,0 1.75,0.7835 1.75,1.75c0,0.9665 -0.7835,1.75 -1.75,1.75c-0.9665,0 -1.75,-0.7835 -1.75,-1.75z" fill="#1c0072" stroke="none" stroke-width="0.5"/><path d="M302.52035,256.65621c0,-0.9665 0.7835,-1.75 1.75,-1.75c0.9665,0 1.75,0.7835 1.75,1.75c0,0.9665 -0.7835,1.75 -1.75,1.75c-0.9665,0 -1.75,-0.7835 -1.75,-1.75z" fill="#1c0072" stroke="none" stroke-width="0.5"/><path d="M312.90201,256.12552c0.69036,0 1.25,0.55964 1.25,1.25c0,0.69036 -0.55964,1.25 -1.25,1.25c-0.29701,0 -0.56983,-0.10359 -0.78429,-0.27661c-0.30541,0.26003 -0.70131,0.41696 -1.13385,0.41696c-0.9665,0 -1.75,-0.7835 -1.75,-1.75c0,-0.9665 0.7835,-1.75 1.75,-1.75c0.6653,0 1.24389,0.37126 1.5399,0.9179c0.11932,-0.03784 0.2464,-0.05825 0.37825,-0.05825z" fill="#1c0072" stroke="none" stroke-width="0.5"/><path d="M315.96784,259.29366c0,-0.53514 0.33628,-0.99174 0.80906,-1.17001c-0.14641,-0.25582 -0.2301,-0.55215 -0.2301,-0.86802c0,-0.9665 0.7835,-1.75 1.75,-1.75c0.9665,0 1.75,0.7835 1.75,1.75c0,0.92058 -0.71082,1.67514 -1.61355,1.74476c0.02262,0.09406 0.03459,0.19227 0.03459,0.29327c0,0.69036 -0.55964,1.25 -1.25,1.25c-0.69036,0 -1.25,-0.55964 -1.25,-1.25z" fill="#1c0072" stroke="none" stroke-width="0.5"/><path d="M320.98251,257.37552c0,-0.9665 0.7835,-1.75 1.75,-1.75c0.9665,0 1.75,0.7835 1.75,1.75c0,0.9665 -0.7835,1.75 -1.75,1.75c-0.9665,0 -1.75,-0.7835 -1.75,-1.75z" fill="#1c0072" stroke="none" stroke-width="0.5"/><path d="M327.21648,257.61529c0,-0.9665 0.7835,-1.75 1.75,-1.75c0.9665,0 1.75,0.7835 1.75,1.75c0,0.9665 -0.7835,1.75 -1.75,1.75c-0.9665,0 -1.75,-0.7835 -1.75,-1.75z" fill="#1c0072" stroke="none" stroke-width="0.5"/><path d="M333.45045,257.73517c0,-0.9665 0.7835,-1.75 1.75,-1.75c0.9665,0 1.75,0.7835 1.75,1.75c0,0.9665 -0.7835,1.75 -1.75,1.75c-0.9665,0 -1.75,-0.7835 -1.75,-1.75z" fill="#1c0072" stroke="none" stroke-width="0.5"/><path d="M338.91686,259.70448c-0.6377,0 -1.16387,-0.47753 -1.24042,-1.09451c-0.31493,-0.31645 -0.50958,-0.75271 -0.50958,-1.23444c0,-0.9665 0.7835,-1.75 1.75,-1.75c0.9665,0 1.75,0.7835 1.75,1.75c0,0.48173 -0.19464,0.91799 -0.50958,1.23444c-0.07655,0.61698 -0.60272,1.09451 -1.24042,1.09451z" fill="#1c0072" stroke="none" stroke-width="0.5"/><path d="M344.55141,255.38575c0.9665,0 1.75,0.7835 1.75,1.75c0,0.9665 -0.7835,1.75 -1.75,1.75c-0.41782,0 -0.80145,-0.14643 -1.10235,-0.39077c-0.27062,0.17155 -0.59155,0.27088 -0.93568,0.27088c-0.9665,0 -1.75,-0.7835 -1.75,-1.75c0,-0.9665 0.7835,-1.75 1.75,-1.75c0.41782,0 0.80145,0.14643 1.10235,0.39077c0.27062,-0.17155 0.59155,-0.27088 0.93568,-0.27088z" fill="#1c0072" stroke="none" stroke-width="0.5"/><path d="M328.3159,247.06548c0,-0.68593 0.5525,-1.24283 1.23675,-1.24993c0.28494,-0.58022 0.8817,-0.97961 1.57174,-0.97961c0.77321,0 1.4293,0.50145 1.66079,1.19689c0.19278,-0.75696 0.87899,-1.31678 1.69596,-1.31678c0.71758,0 1.33428,0.43189 1.60435,1.04991c0.31969,-0.41951 0.82461,-0.69026 1.39276,-0.69026c0.50831,0 0.96601,0.21672 1.28573,0.56281c0.31152,-0.48288 0.85423,-0.80257 1.47161,-0.80257c0.70841,0 1.31851,0.42093 1.59383,1.02632c0.24592,-0.66898 0.88875,-1.1462 1.64304,-1.1462c0.9665,0 1.75,0.7835 1.75,1.75c0,0.9665 -0.7835,1.75 -1.75,1.75c-0.70841,0 -1.31851,-0.42093 -1.59383,-1.02632c-0.24592,0.66898 -0.88875,1.1462 -1.64304,1.1462c-0.50831,0 -0.96601,-0.21672 -1.28573,-0.56281c-0.31152,0.48288 -0.85423,0.80257 -1.47161,0.80257c-0.71758,0 -1.33428,-0.43189 -1.60435,-1.04991c-0.31969,0.41951 -0.82461,0.69026 -1.39276,0.69026c-0.77321,0 -1.4293,-0.50145 -1.66079,-1.19689c-0.19278,0.75696 -0.87899,1.31678 -1.69596,1.31678c-0.31528,0 -0.61108,-0.08337 -0.86657,-0.22927c-0.19812,0.13193 -0.43604,0.20881 -0.69192,0.20881c-0.69036,0 -1.25,-0.55964 -1.25,-1.25z" fill="#110042" stroke="none" stroke-width="0.5"/><path d="M292.68985,265.76741c0,-0.9665 0.7835,-1.75 1.75,-1.75c0.9665,0 1.75,0.7835 1.75,1.75c0,0.9665 -0.7835,1.75 -1.75,1.75c-0.9665,0 -1.75,-0.7835 -1.75,-1.75z" fill="#1815bf" stroke="none" stroke-width="0.5"/><path d="M302.90047,267.92532c0,-0.17789 0.03716,-0.3471 0.10414,-0.50029c-0.43869,-0.31799 -0.72402,-0.8346 -0.72402,-1.41785c0,-0.9665 0.7835,-1.75 1.75,-1.75c0.9665,0 1.75,0.7835 1.75,1.75c0,0.50479 -0.21372,0.95966 -0.55562,1.27905c0.11147,0.18701 0.1755,0.40557 0.1755,0.63909c0,0.69036 -0.55964,1.25 -1.25,1.25c-0.69036,0 -1.25,-0.55964 -1.25,-1.25z" fill="#1815bf" stroke="none" stroke-width="0.5"/><path d="M308.17537,267.44578c0,-0.03049 0.00109,-0.06073 0.00324,-0.09068c-0.3112,-0.31592 -0.50324,-0.74955 -0.50324,-1.22804c0,-0.87967 0.64905,-1.60774 1.49438,-1.73146c0.321,-0.37806 0.79977,-0.61796 1.33458,-0.61796c0.81991,0 1.50813,0.56386 1.69803,1.32497c0.3179,-0.43956 0.83503,-0.72555 1.41896,-0.72555c0.9665,0 1.75,0.7835 1.75,1.75c0,0.9665 -0.7835,1.75 -1.75,1.75c-0.81991,0 -1.50813,-0.56386 -1.69803,-1.32497c-0.27063,0.37419 -0.68564,0.6371 -1.16334,0.70701c-0.02809,0.03308 -0.05738,0.0651 -0.08782,0.096c0.00215,0.02995 0.00324,0.06019 0.00324,0.09068c0,0.69036 -0.55964,1.25 -1.25,1.25c-0.69036,0 -1.25,-0.55964 -1.25,-1.25z" fill="#1815bf" stroke="none" stroke-width="0.5"/><path d="M321.22227,266.48671c0,-0.9665 0.7835,-1.75 1.75,-1.75c0.9665,0 1.75,0.7835 1.75,1.75c0,0.9665 -0.7835,1.75 -1.75,1.75c-0.9665,0 -1.75,-0.7835 -1.75,-1.75z" fill="#1815bf" stroke="none" stroke-width="0.5"/><path d="M332.32323,268.3566c-0.9665,0 -1.75,-0.7835 -1.75,-1.75c0,-0.9665 0.7835,-1.75 1.75,-1.75c0.25842,0 0.50376,0.05601 0.72453,0.15656c0.21972,-0.71542 0.8857,-1.23552 1.67315,-1.23552c0.9665,0 1.75,0.7835 1.75,1.75c0,0.9665 -0.7835,1.75 -1.75,1.75c-0.25842,0 -0.50376,-0.05601 -0.72453,-0.15656c-0.21972,0.71542 -0.8857,1.23552 -1.67315,1.23552z" fill="#1815bf" stroke="none" stroke-width="0.5"/><path d="M338.12593,266.84636c0,-0.9665 0.7835,-1.75 1.75,-1.75c0.9665,0 1.75,0.7835 1.75,1.75c0,0.9665 -0.7835,1.75 -1.75,1.75c-0.9665,0 -1.75,-0.7835 -1.75,-1.75z" fill="#1815bf" stroke="none" stroke-width="0.5"/><path d="M325.89775,266.24694c0,-0.9665 0.7835,-1.75 1.75,-1.75c0.9665,0 1.75,0.7835 1.75,1.75c0,0.9665 -0.7835,1.75 -1.75,1.75c-0.9665,0 -1.75,-0.7835 -1.75,-1.75z" fill="#1815bf" stroke="none" stroke-width="0.5"/><path d="M296.52615,266.00717c0,-0.9665 0.7835,-1.75 1.75,-1.75c0.9665,0 1.75,0.7835 1.75,1.75c0,0.9665 -0.7835,1.75 -1.75,1.75c-0.9665,0 -1.75,-0.7835 -1.75,-1.75z" fill="#1815bf" stroke="none" stroke-width="0.5"/><path d="M342.82188,266.72648c0,-0.39183 0.18029,-0.74156 0.46244,-0.97075c-0.22764,-0.29538 -0.36302,-0.66552 -0.36302,-1.06728c0,-0.9665 0.7835,-1.75 1.75,-1.75c0.9665,0 1.75,0.7835 1.75,1.75c0,0.75996 -0.48441,1.40677 -1.1613,1.64852c0.04016,0.12258 0.06188,0.25351 0.06188,0.38951c0,0.69036 -0.55964,1.25 -1.25,1.25c-0.69036,0 -1.25,-0.55964 -1.25,-1.25z" fill="#1815bf" stroke="none" stroke-width="0.5"/><path d="M296.42673,250.78189c0,-0.69036 0.55964,-1.25 1.25,-1.25c0.69036,0 1.25,0.55964 1.25,1.25c0,0.69036 -0.55964,1.25 -1.25,1.25c-0.69036,0 -1.25,-0.55964 -1.25,-1.25z" fill="#110042" stroke="none" stroke-width="0.5"/><path d="M311.65201,250.18247c0,-0.69036 0.55964,-1.25 1.25,-1.25c0.69036,0 1.25,0.55964 1.25,1.25c0,0.69036 -0.55964,1.25 -1.25,1.25c-0.69036,0 -1.25,-0.55964 -1.25,-1.25z" fill="#110042" stroke="none" stroke-width="0.5"/><path d="M317.16668,250.42224c0,-0.69036 0.55964,-1.25 1.25,-1.25c0.69036,0 1.25,0.55964 1.25,1.25c0,0.69036 -0.55964,1.25 -1.25,1.25c-0.69036,0 -1.25,-0.55964 -1.25,-1.25z" fill="#110042" stroke="none" stroke-width="0.5"/><path d="M335.26918,250.30236c0,-0.69036 0.55964,-1.25 1.25,-1.25c0.69036,0 1.25,0.55964 1.25,1.25c0,0.69036 -0.55964,1.25 -1.25,1.25c-0.69036,0 -1.25,-0.55964 -1.25,-1.25z" fill="#110042" stroke="none" stroke-width="0.5"/><path d="M298.70452,261.57146c0,-0.69036 0.55964,-1.25 1.25,-1.25c0.69036,0 1.25,0.55964 1.25,1.25c0,0.69036 -0.55964,1.25 -1.25,1.25c-0.69036,0 -1.25,-0.55964 -1.25,-1.25z" fill="#1c0072" stroke="none" stroke-width="0.5"/><path d="M306.01745,257.4954c0,-0.69036 0.55964,-1.25 1.25,-1.25c0.69036,0 1.25,0.55964 1.25,1.25c0,0.69036 -0.55964,1.25 -1.25,1.25c-0.69036,0 -1.25,-0.55964 -1.25,-1.25z" fill="#1c0072" stroke="none" stroke-width="0.5"/><path d="M322.80123,261.69135c0,-0.69036 0.55964,-1.25 1.25,-1.25c0.69036,0 1.25,0.55964 1.25,1.25c0,0.69036 -0.55964,1.25 -1.25,1.25c-0.69036,0 -1.25,-0.55964 -1.25,-1.25z" fill="#1c0072" stroke="none" stroke-width="0.5"/><path d="M327.35683,262.051c0,-0.69036 0.55964,-1.25 1.25,-1.25c0.69036,0 1.25,0.55964 1.25,1.25c0,0.69036 -0.55964,1.25 -1.25,1.25c-0.69036,0 -1.25,-0.55964 -1.25,-1.25z" fill="#1c0072" stroke="none" stroke-width="0.5"/><path d="M330.95335,261.45158c0,-0.69036 0.55964,-1.25 1.25,-1.25c0.69036,0 1.25,0.55964 1.25,1.25c0,0.69036 -0.55964,1.25 -1.25,1.25c-0.69036,0 -1.25,-0.55964 -1.25,-1.25z" fill="#1c0072" stroke="none" stroke-width="0.5"/><path d="M297.02615,270.08323c0,-0.69036 0.55964,-1.25 1.25,-1.25c0.69036,0 1.25,0.55964 1.25,1.25c0,0.69036 -0.55964,1.25 -1.25,1.25c-0.69036,0 -1.25,-0.55964 -1.25,-1.25z" fill="#1815bf" stroke="none" stroke-width="0.5"/><path d="M316.56726,266.72648c0,-0.69036 0.55964,-1.25 1.25,-1.25c0.69036,0 1.25,0.55964 1.25,1.25c0,0.69036 -0.55964,1.25 -1.25,1.25c-0.69036,0 -1.25,-0.55964 -1.25,-1.25z" fill="#1815bf" stroke="none" stroke-width="0.5"/><path d="M319.08482,269.12416c0,-0.69036 0.55964,-1.25 1.25,-1.25c0.69036,0 1.25,0.55964 1.25,1.25c0,0.69036 -0.55964,1.25 -1.25,1.25c-0.69036,0 -1.25,-0.55964 -1.25,-1.25z" fill="#1815bf" stroke="none" stroke-width="0.5"/><path d="M324.23984,269.96335c0,-0.69036 0.55964,-1.25 1.25,-1.25c0.69036,0 1.25,0.55964 1.25,1.25c0,0.69036 -0.55964,1.25 -1.25,1.25c-0.69036,0 -1.25,-0.55964 -1.25,-1.25z" fill="#1815bf" stroke="none" stroke-width="0.5"/><path d="M329.63462,270.323c0,-0.69036 0.55964,-1.25 1.25,-1.25c0.69036,0 1.25,0.55964 1.25,1.25c0,0.69036 -0.55964,1.25 -1.25,1.25c-0.69036,0 -1.25,-0.55964 -1.25,-1.25z" fill="#1815bf" stroke="none" stroke-width="0.5"/><path d="M336.5879,269.36393c0,-0.69036 0.55964,-1.25 1.25,-1.25c0.69036,0 1.25,0.55964 1.25,1.25c0,0.69036 -0.55964,1.25 -1.25,1.25c-0.69036,0 -1.25,-0.55964 -1.25,-1.25z" fill="#1815bf" stroke="none" stroke-width="0.5"/><path d="M299.08464,254.13865c0,-0.41421 0.33579,-0.75 0.75,-0.75c0.41421,0 0.75,0.33579 0.75,0.75c0,0.41421 -0.33579,0.75 -0.75,0.75c-0.41421,0 -0.75,-0.33579 -0.75,-0.75z" fill="#110042" stroke="none" stroke-width="0.5"/><path d="M305.07885,250.66201c0,-0.41421 0.33579,-0.75 0.75,-0.75c0.41421,0 0.75,0.33579 0.75,0.75c0,0.41421 -0.33579,0.75 -0.75,0.75c-0.41421,0 -0.75,-0.33579 -0.75,-0.75z" fill="#110042" stroke="none" stroke-width="0.5"/><path d="M311.67247,253.17957c0,-0.41421 0.33579,-0.75 0.75,-0.75c0.41421,0 0.75,0.33579 0.75,0.75c0,0.41421 -0.33579,0.75 -0.75,0.75c-0.41421,0 -0.75,-0.33579 -0.75,-0.75z" fill="#110042" stroke="none" stroke-width="0.5"/><path d="M320.06436,253.89888c0,-0.41421 0.33579,-0.75 0.75,-0.75c0.41421,0 0.75,0.33579 0.75,0.75c0,0.41421 -0.33579,0.75 -0.75,0.75c-0.41421,0 -0.75,-0.33579 -0.75,-0.75z" fill="#110042" stroke="none" stroke-width="0.5"/><path d="M337.92709,256.05679c0,-0.41421 0.33579,-0.75 0.75,-0.75c0.41421,0 0.75,0.33579 0.75,0.75c0,0.41421 -0.33579,0.75 -0.75,0.75c-0.41421,0 -0.75,-0.33579 -0.75,-0.75z" fill="#110042" stroke="none" stroke-width="0.5"/><path d="M303.76012,262.53054c0,-0.41421 0.33579,-0.75 0.75,-0.75c0.41421,0 0.75,0.33579 0.75,0.75c0,0.41421 -0.33579,0.75 -0.75,0.75c-0.41421,0 -0.75,-0.33579 -0.75,-0.75z" fill="#1c0072" stroke="none" stroke-width="0.5"/><path d="M321.02343,264.20891c0,-0.41421 0.33579,-0.75 0.75,-0.75c0.41421,0 0.75,0.33579 0.75,0.75c0,0.41421 -0.33579,0.75 -0.75,0.75c-0.41421,0 -0.75,-0.33579 -0.75,-0.75z" fill="#1c0072" stroke="none" stroke-width="0.5"/><path d="M323.90065,265.0481c0,-0.41421 0.33579,-0.75 0.75,-0.75c0.41421,0 0.75,0.33579 0.75,0.75c0,0.41421 -0.33579,0.75 -0.75,0.75c-0.41421,0 -0.75,-0.33579 -0.75,-0.75z" fill="#1c0072" stroke="none" stroke-width="0.5"/><path d="M329.65509,264.20891c0,-0.41421 0.33579,-0.75 0.75,-0.75c0.41421,0 0.75,0.33579 0.75,0.75c0,0.41421 -0.33579,0.75 -0.75,0.75c-0.41421,0 -0.75,-0.33579 -0.75,-0.75z" fill="#1c0072" stroke="none" stroke-width="0.5"/><path d="M337.56744,263.24984c0,-0.41421 0.33579,-0.75 0.75,-0.75c0.41421,0 0.75,0.33579 0.75,0.75c0,0.41421 -0.33579,0.75 -0.75,0.75c-0.41421,0 -0.75,-0.33579 -0.75,-0.75z" fill="#1c0072" stroke="none" stroke-width="0.5"/><path d="M342.48269,261.93111c0,-0.41421 0.33579,-0.75 0.75,-0.75c0.41421,0 0.75,0.33579 0.75,0.75c0,0.41421 -0.33579,0.75 -0.75,0.75c-0.41421,0 -0.75,-0.33579 -0.75,-0.75z" fill="#1c0072" stroke="none" stroke-width="0.5"/><path d="M305.55838,270.92242c0,-0.41421 0.33579,-0.75 0.75,-0.75c0.41421,0 0.75,0.33579 0.75,0.75c0,0.41421 -0.33579,0.75 -0.75,0.75c-0.41421,0 -0.75,-0.33579 -0.75,-0.75z" fill="#1815bf" stroke="none" stroke-width="0.5"/><path d="M315.86842,275.71779c0,-0.41421 0.33579,-0.75 0.75,-0.75c0.41421,0 0.75,0.33579 0.75,0.75c0,0.41421 -0.33579,0.75 -0.75,0.75c-0.41421,0 -0.75,-0.33579 -0.75,-0.75z" fill="#1815bf" stroke="none" stroke-width="0.5"/><path d="M323.78077,274.39906c0,-0.41421 0.33579,-0.75 0.75,-0.75c0.41421,0 0.75,0.33579 0.75,0.75c0,0.41421 -0.33579,0.75 -0.75,0.75c-0.41421,0 -0.75,-0.33579 -0.75,-0.75z" fill="#1815bf" stroke="none" stroke-width="0.5"/><path d="M331.21358,273.43999c0,-0.41421 0.33579,-0.75 0.75,-0.75c0.41421,0 0.75,0.33579 0.75,0.75c0,0.41421 -0.33579,0.75 -0.75,0.75c-0.41421,0 -0.75,-0.33579 -0.75,-0.75z" fill="#1815bf" stroke="none" stroke-width="0.5"/><path d="M340.80431,273.32011c0,-0.41421 0.33579,-0.75 0.75,-0.75c0.41421,0 0.75,0.33579 0.75,0.75c0,0.41421 -0.33579,0.75 -0.75,0.75c-0.41421,0 -0.75,-0.33579 -0.75,-0.75z" fill="#1815bf" stroke="none" stroke-width="0.5"/></g><g stroke="#000000" stroke-linecap="round"><path d="M346.32908,201.92287l6.2192,36.16355l-3.22477,-3.68546l-0.69102,13.59012l-4.14614,-2.99444l-2.30341,9.21364l-8.06194,-13.12944l-2.99443,4.60682l-13.59012,-13.12944l0.92136,-26.48922z" fill="#2f1894" stroke-width="0"/><path d="M322.60395,207.45105l-0.92136,23.03411l-11.05637,12.66876l-1.84273,-8.75296l-9.21364,13.12944l-5.0675,-7.14057l-3.22478,3.22477l5.29784,-42.15241l25.7982,4.37648" fill="#2f1894" stroke-width="0"/><path d="M328.36248,228.18174l-15.20251,-1.38204" fill="none" stroke-width="2"/><path d="M318.89754,233.71042l4.73083,-28.70034" fill="none" stroke-width="1"/><path d="M326.98043,223.11424l-8.29228,-1.15171" fill="none" stroke-width="2"/><path d="M328.13213,215.51298l-8.9833,-0.23034" fill="none" stroke-width="2"/><path d="M325.59838,211.59719l-4.83716,0.23034" fill="none" stroke-width="2"/></g></g><path d="M214.52362,122.5036v-83.61608h213.18203v267.72501h-213.18203v-169.22364" fill="none" stroke="none" stroke-width="0" stroke-linecap="butt"/><path d="" fill="none" stroke="#000000" stroke-width="2" stroke-linecap="round"/><g><path d="M215.66419,165.65783c-0.70799,-17.72961 11.34876,-37.7574 11.34876,-37.7574c0,0 13.99033,18.03001 20.97051,19.82729c6.15554,1.58496 10.48111,-7.57992 11.74917,-10.16646c9.83445,-20.06001 31.04177,-34.35804 56.10872,-35.29441c35.4524,-1.32432 65.2,24.57977 66.44311,57.85841c1.24312,33.27864 -26.48898,61.32989 -61.94138,62.65421c-21.52976,0.80424 -40.95562,-8.43327 -53.17122,-23.26598c-2.71173,-3.2927 -12.07903,-12.51763 -19.78085,-12.25207c-8.07745,0.27851 -23.85585,9.81014 -23.85585,9.81014c0,0 -7.30707,-17.29295 -7.87095,-31.41372z" fill="#1c19ee" stroke="#000000" stroke-width="0" stroke-linecap="butt"/><path d="M247.98345,147.72771c1.64982,0.4248 3.16818,0.07738 4.53145,-0.70863c3.72314,-2.14663 6.28952,-7.56453 7.21771,-9.45783c9.83445,-20.06001 31.04177,-34.35804 56.10872,-35.29441c28.86538,-1.07826 53.94891,15.89382 62.94441,40.20007c0.13981,0.37777 -131.97157,4.95973 -130.80228,5.2608z" fill="#1815bf" stroke="#000000" stroke-width="0" stroke-linecap="butt"/><path d="M259.73261,137.56125c9.83445,-20.06001 31.04177,-34.35804 56.10872,-35.29441c25.11228,-0.93807 47.36221,11.78552 58.64672,31.11463c0.04186,0.07171 -115.00679,4.69248 -114.75543,4.17978z" fill="#1c0072" stroke="#000000" stroke-width="0" stroke-linecap="butt"/><path d="M267.31367,125.81643c11.27955,-13.70441 28.69567,-22.80877 48.52765,-23.54959c20.17883,-0.75378 38.50948,7.31353 50.78781,20.54099c0.22795,0.24556 -100.28847,4.55631 -100.02005,4.12895c0.34131,-0.54341 0.70291,-1.1183 0.70459,-1.12035z" fill="#110042" stroke="#000000" stroke-width="0" stroke-linecap="butt"/><path d="M311.18422,198.13739l-4.96544,15.16809" fill="none" stroke="#1714b7" stroke-width="1" stroke-linecap="round"/><path d="M339.83373,212.28031l-7.24273,-14.94256" fill="none" stroke="#1714b7" stroke-width="1" stroke-linecap="round"/><path d="M319.11551,206.83069l0.10318,2.76216" fill="none" stroke="#1714b7" stroke-width="1" stroke-linecap="round"/><path d="M332.56915,209.09415l-2.90834,-3.80989" fill="none" stroke="#1714b7" stroke-width="1" stroke-linecap="round"/><path d="M218.74518,146.53064c3.36899,-10.49273 8.26777,-18.63022 8.26777,-18.63022c0,0 13.99033,18.03001 20.97051,19.82729c0.67234,0.17311 -29.52099,1.68587 -29.79115,1.65736c-0.04017,-0.00423 0.53792,-2.80785 0.55288,-2.85444z" fill="#1815bf" stroke="#000000" stroke-width="0" stroke-linecap="butt"/><path d="M222.49911,136.78317c2.40322,-5.37676 4.51383,-8.88276 4.51383,-8.88276c0,0 2.95033,3.80223 6.81725,8.08862c0.18465,0.20467 -11.43563,1.02802 -11.33108,0.79414z" fill="#1c0072" stroke="#000000" stroke-width="0" stroke-linecap="butt"/><path d="M267.03917,127.62979c-0.03608,-0.96583 0.71763,-1.77803 1.68345,-1.81411c0.96583,-0.03608 1.77803,0.71763 1.81411,1.68345c0.03608,0.96583 -0.71763,1.77803 -1.68345,1.81411c-0.96583,0.03608 -1.77803,-0.71763 -1.81411,-1.68345z" fill="#110042" stroke="none" stroke-width="0.5" stroke-linecap="butt"/><path d="M271.35614,127.84323c-0.03608,-0.96583 0.71763,-1.77803 1.68345,-1.81411c0.96583,-0.03608 1.77803,0.71763 1.81411,1.68345c0.03608,0.96583 -0.71763,1.77803 -1.68345,1.81411c-0.96583,0.03608 -1.77803,-0.71763 -1.81411,-1.68345z" fill="#110042" stroke="none" stroke-width="0.5" stroke-linecap="butt"/><path d="M276.59456,127.64755c-0.03608,-0.96583 0.71763,-1.77803 1.68345,-1.81411c0.96583,-0.03608 1.77803,0.71763 1.81411,1.68345c0.03608,0.96583 -0.71763,1.77803 -1.68345,1.81411c-0.96583,0.03608 -1.77803,-0.71763 -1.81411,-1.68345z" fill="#110042" stroke="none" stroke-width="0.5" stroke-linecap="butt"/><path d="M282.58134,127.42391c-0.03608,-0.96583 0.71763,-1.77803 1.68345,-1.81411c0.96583,-0.03608 1.77803,0.71763 1.81411,1.68345c0.03608,0.96583 -0.71763,1.77803 -1.68345,1.81411c-0.96583,0.03608 -1.77803,-0.71763 -1.81411,-1.68345z" fill="#110042" stroke="none" stroke-width="0.5" stroke-linecap="butt"/><path d="M288.16599,126.4659c-0.03608,-0.96583 0.71763,-1.77803 1.68345,-1.81411c0.96583,-0.03608 1.77803,0.71763 1.81411,1.68345c0.03608,0.96583 -0.71763,1.77803 -1.68345,1.81411c-0.96583,0.03608 -1.77803,-0.71763 -1.81411,-1.68345z" fill="#110042" stroke="none" stroke-width="0.5" stroke-linecap="butt"/><path d="M291.71365,126.14604c-0.03608,-0.96583 0.71763,-1.77803 1.68345,-1.81411c0.96583,-0.03608 1.77803,0.71763 1.81411,1.68345c0.03608,0.96583 -0.71763,1.77803 -1.68345,1.81411c-0.96583,0.03608 -1.77803,-0.71763 -1.81411,-1.68345z" fill="#110042" stroke="none" stroke-width="0.5" stroke-linecap="butt"/><path d="M300.69382,125.81059c-0.03608,-0.96583 0.71763,-1.77803 1.68345,-1.81411c0.96583,-0.03608 1.77803,0.71763 1.81411,1.68345c0.03608,0.96583 -0.71763,1.77803 -1.68345,1.81411c-0.96583,0.03608 -1.77803,-0.71763 -1.81411,-1.68345z" fill="#110042" stroke="none" stroke-width="0.5" stroke-linecap="butt"/><path d="M311.35776,125.41224c-0.03608,-0.96583 0.71763,-1.77803 1.68345,-1.81411c0.96583,-0.03608 1.77803,0.71763 1.81411,1.68345c0.03608,0.96583 -0.71763,1.77803 -1.68345,1.81411c-0.96583,0.03608 -1.77803,-0.71763 -1.81411,-1.68345z" fill="#110042" stroke="none" stroke-width="0.5" stroke-linecap="butt"/><path d="M315.24815,125.26691c-0.02577,-0.68988 0.51259,-1.27002 1.20247,-1.29579c0.10746,-0.00401 0.21224,0.00566 0.31269,0.02746c0.2762,-0.55496 0.83929,-0.94553 1.50236,-0.9703c0.96583,-0.03608 1.77803,0.71763 1.81411,1.68345c0.03608,0.96583 -0.71763,1.77803 -1.68345,1.81411c-0.41226,0.0154 -0.79655,-0.1131 -1.10441,-0.34058c-0.20414,0.16835 -0.46313,0.27348 -0.74797,0.28412c-0.68988,0.02577 -1.27002,-0.51259 -1.29579,-1.20247z" fill="#110042" stroke="none" stroke-width="0.5" stroke-linecap="butt"/><path d="M326.31073,124.47897c-0.03608,-0.96583 0.71763,-1.77803 1.68345,-1.81411c0.96583,-0.03608 1.77803,0.71763 1.81411,1.68345c0.03608,0.96583 -0.71763,1.77803 -1.68345,1.81411c-0.96583,0.03608 -1.77803,-0.71763 -1.81411,-1.68345z" fill="#110042" stroke="none" stroke-width="0.5" stroke-linecap="butt"/><path d="M330.22557,123.95804c-0.03608,-0.96583 0.71763,-1.77803 1.68345,-1.81411c0.96583,-0.03608 1.77803,0.71763 1.81411,1.68345c0.03608,0.96583 -0.71763,1.77803 -1.68345,1.81411c-0.96583,0.03608 -1.77803,-0.71763 -1.81411,-1.68345z" fill="#110042" stroke="none" stroke-width="0.5" stroke-linecap="butt"/><path d="M334.52157,123.61021c-0.03608,-0.96583 0.71763,-1.77803 1.68345,-1.81411c0.96583,-0.03608 1.77803,0.71763 1.81411,1.68345c0.03608,0.96583 -0.71763,1.77803 -1.68345,1.81411c-0.96583,0.03608 -1.77803,-0.71763 -1.81411,-1.68345z" fill="#110042" stroke="none" stroke-width="0.5" stroke-linecap="butt"/><path d="M342.19213,123.32368c-0.03608,-0.96583 0.71763,-1.77803 1.68345,-1.81411c0.96583,-0.03608 1.77803,0.71763 1.81411,1.68345c0.03608,0.96583 -0.71763,1.77803 -1.68345,1.81411c-0.96583,0.03608 -1.77803,-0.71763 -1.81411,-1.68345z" fill="#110042" stroke="none" stroke-width="0.5" stroke-linecap="butt"/><path d="M354.57447,122.04666c0.96583,-0.03608 1.77803,0.71763 1.81411,1.68345c0.03608,0.96583 -0.71763,1.77803 -1.68345,1.81411c-0.52124,0.01947 -0.99774,-0.19109 -1.33164,-0.54088c-0.30687,0.37373 -0.76634,0.61925 -1.28757,0.63872c-0.96583,0.03608 -1.77803,-0.71763 -1.81411,-1.68345c-0.03608,-0.96583 0.71763,-1.77803 1.68345,-1.81411c0.52124,-0.01947 0.99774,0.19109 1.33164,0.54088c0.30687,-0.37373 0.76634,-0.61925 1.28757,-0.63872z" fill="#110042" stroke="none" stroke-width="0.5" stroke-linecap="butt"/><path d="M361.92668,122.64706c0.68988,-0.02577 1.27002,0.51259 1.29579,1.20247c0.02577,0.68988 -0.51259,1.27002 -1.20247,1.29579c-0.4427,0.01654 -0.84021,-0.19923 -1.07504,-0.53827c-0.30293,0.43871 -0.80183,0.73403 -1.37558,0.75547c-0.96583,0.03608 -1.77803,-0.71763 -1.81411,-1.68345c-0.03608,-0.96583 0.71763,-1.77803 1.68345,-1.81411c0.76224,-0.02847 1.42878,0.43497 1.69366,1.10637c0.21059,-0.19167 0.48745,-0.3128 0.79429,-0.32427z" fill="#110042" stroke="none" stroke-width="0.5" stroke-linecap="butt"/><path d="M259.55192,137.83891c-0.03608,-0.96583 0.71763,-1.77803 1.68345,-1.81411c0.96583,-0.03608 1.77803,0.71763 1.81411,1.68345c0.03608,0.96583 -0.71763,1.77803 -1.68345,1.81411c-0.96583,0.03608 -1.77803,-0.71763 -1.81411,-1.68345z" fill="#1c0072" stroke="none" stroke-width="0.5" stroke-linecap="butt"/><path d="M272.15242,137.68454c0.16422,-0.76384 0.82917,-1.34912 1.64573,-1.37962c0.96583,-0.03608 1.77803,0.71763 1.81411,1.68345c0.03608,0.96583 -0.71763,1.77803 -1.68345,1.81411c-0.16002,0.00598 -0.31582,-0.00973 -0.46457,-0.04448c-0.21272,0.20147 -0.49677,0.32943 -0.81256,0.34123c-0.48632,0.01817 -0.91812,-0.24401 -1.13961,-0.64199c-0.29784,0.28223 -0.69563,0.4615 -1.1379,0.47802c-0.96583,0.03608 -1.77803,-0.71763 -1.81411,-1.68345c-0.03608,-0.96583 0.71763,-1.77803 1.68345,-1.81411c0.83913,-0.03135 1.5623,0.53348 1.76125,1.31564c0.0474,-0.02599 0.09671,-0.04901 0.14767,-0.0688z" fill="#1c0072" stroke="none" stroke-width="0.5" stroke-linecap="butt"/><path d="M282.46011,138.48196c0.02577,0.68988 -0.51259,1.27002 -1.20247,1.29579c-0.37925,0.01417 -0.72532,-0.14214 -0.96438,-0.4004c-0.0035,0.00015 -0.007,0.00029 -0.01051,0.00042c-0.96583,0.03608 -1.77803,-0.71763 -1.81411,-1.68345c-0.03608,-0.96583 0.71763,-1.77803 1.68345,-1.81411c0.95503,-0.03568 1.75986,0.70089 1.81261,1.65116c0.28886,0.21859 0.48082,0.56035 0.4954,0.95058z" fill="#1c0072" stroke="none" stroke-width="0.5" stroke-linecap="butt"/><path d="M289.9928,136.58256c0.24194,-0.63778 0.84709,-1.10158 1.57159,-1.12864c0.96583,-0.03608 1.77803,0.71763 1.81411,1.68345c0.03608,0.96583 -0.71763,1.77803 -1.68345,1.81411c-0.26862,0.01003 -0.52536,-0.04103 -0.75681,-0.14075c-0.19864,0.1527 -0.44496,0.24733 -0.7144,0.2574c-0.50547,0.01888 -0.95202,-0.26508 -1.16477,-0.68959c-0.28552,0.52479 -0.8326,0.88986 -1.47293,0.91378c-0.96583,0.03608 -1.77803,-0.71763 -1.81411,-1.68345c-0.03608,-0.96583 0.71763,-1.77803 1.68345,-1.81411c0.81452,-0.03043 1.51978,0.50086 1.7424,1.24737c0.1922,-0.24204 0.47265,-0.41191 0.79492,-0.45956z" fill="#1c0072" stroke="none" stroke-width="0.5" stroke-linecap="butt"/><path d="M301.06421,135.72618c-0.03608,-0.96583 0.71763,-1.77803 1.68345,-1.81411c0.96583,-0.03608 1.77803,0.71763 1.81411,1.68345c0.03608,0.96583 -0.71763,1.77803 -1.68345,1.81411c-0.96583,0.03608 -1.77803,-0.71763 -1.81411,-1.68345z" fill="#1c0072" stroke="none" stroke-width="0.5" stroke-linecap="butt"/><path d="M307.78536,135.10042c-0.03608,-0.96583 0.71763,-1.77803 1.68345,-1.81411c0.96583,-0.03608 1.77803,0.71763 1.81411,1.68345c0.03608,0.96583 -0.71763,1.77803 -1.68345,1.81411c-0.96583,0.03608 -1.77803,-0.71763 -1.81411,-1.68345z" fill="#1c0072" stroke="none" stroke-width="0.5" stroke-linecap="butt"/><path d="M320.88841,134.7983c-0.03608,-0.96583 0.71763,-1.77803 1.68345,-1.81411c0.96583,-0.03608 1.77803,0.71763 1.81411,1.68345c0.03608,0.96583 -0.71763,1.77803 -1.68345,1.81411c-0.96583,0.03608 -1.77803,-0.71763 -1.81411,-1.68345z" fill="#1c0072" stroke="none" stroke-width="0.5" stroke-linecap="butt"/><path d="M324.48151,136.72491c-0.02302,-0.61623 0.40407,-1.1449 0.9872,-1.26913c-0.04408,-0.14311 -0.07038,-0.29428 -0.07624,-0.45104c-0.03608,-0.96583 0.71763,-1.77803 1.68345,-1.81411c0.96583,-0.03608 1.77803,0.71763 1.81411,1.68345c0.03608,0.96583 -0.71763,1.77803 -1.68345,1.81411c-0.07638,0.00285 -0.15179,0.00077 -0.22593,-0.00597c-0.00166,0.66741 -0.53043,1.22001 -1.20335,1.24515c-0.68988,0.02577 -1.27002,-0.51259 -1.29579,-1.20247z" fill="#1c0072" stroke="none" stroke-width="0.5" stroke-linecap="butt"/><path d="M333.70466,137.87916c-0.02577,-0.68988 0.51259,-1.27002 1.20247,-1.29579c0.00857,-0.00032 0.01714,-0.00055 0.02568,-0.0007c-0.08079,-0.19051 -0.1289,-0.39867 -0.13709,-0.61774c-0.03608,-0.96583 0.71763,-1.77803 1.68345,-1.81411c0.96583,-0.03608 1.77803,0.71763 1.81411,1.68345c0.03608,0.96583 -0.71763,1.77803 -1.68345,1.81411c-0.14602,0.00545 -0.28854,-0.00714 -0.42538,-0.0358c0.01002,0.05648 0.01627,0.11431 0.01847,0.17326c0.02577,0.68988 -0.51259,1.27002 -1.20247,1.29579c-0.68988,0.02577 -1.27002,-0.51259 -1.29579,-1.20247z" fill="#1c0072" stroke="none" stroke-width="0.5" stroke-linecap="butt"/><path d="M341.60424,138.70816c-0.01989,-0.53258 0.29642,-0.99975 0.75909,-1.19697c-0.67411,-0.22281 -1.1716,-0.84565 -1.19966,-1.59679c-0.03608,-0.96583 0.71763,-1.77803 1.68345,-1.81411c0.96583,-0.03608 1.77803,0.71763 1.81411,1.68345c0.03074,0.82279 -0.5117,1.53408 -1.27017,1.74902c0.40612,0.19389 0.69346,0.60116 0.71143,1.08207c0.02577,0.68988 -0.51259,1.27002 -1.20247,1.29579c-0.68988,0.02577 -1.27002,-0.51259 -1.29579,-1.20247z" fill="#1c0072" stroke="none" stroke-width="0.5" stroke-linecap="butt"/><path d="M346.01395,135.35853c-0.03608,-0.96583 0.71763,-1.77803 1.68345,-1.81411c0.96583,-0.03608 1.77803,0.71763 1.81411,1.68345c0.03608,0.96583 -0.71763,1.77803 -1.68345,1.81411c-0.96583,0.03608 -1.77803,-0.71763 -1.81411,-1.68345z" fill="#1c0072" stroke="none" stroke-width="0.5" stroke-linecap="butt"/><path d="M358.51349,132.20364c0.96583,-0.03608 1.77803,0.71763 1.81411,1.68345c0.03608,0.96583 -0.71763,1.77803 -1.68345,1.81411c-0.80155,0.02994 -1.49729,-0.48409 -1.7314,-1.21188c-0.17916,0.74324 -0.83462,1.30774 -1.63617,1.33768c-0.96583,0.03608 -1.77803,-0.71763 -1.81411,-1.68345c-0.03608,-0.96583 0.71763,-1.77803 1.68345,-1.81411c0.80155,-0.02994 1.49729,0.48409 1.7314,1.21188c0.17916,-0.74324 0.83462,-1.30774 1.63617,-1.33768z" fill="#1c0072" stroke="none" stroke-width="0.5" stroke-linecap="butt"/><path d="M367.33452,132.62353c0.96583,-0.03608 1.77803,0.71763 1.81411,1.68345c0.03608,0.96583 -0.71763,1.77803 -1.68345,1.81411c-0.61756,0.02307 -1.17231,-0.27676 -1.50152,-0.74848c-0.29715,0.27885 -0.69248,0.45575 -1.13167,0.47215c-0.96583,0.03608 -1.77803,-0.71763 -1.81411,-1.68345c-0.03608,-0.96583 0.71763,-1.77803 1.68345,-1.81411c0.61756,-0.02307 1.17231,0.27676 1.50152,0.74848c0.29715,-0.27885 0.69248,-0.45575 1.13167,-0.47215z" fill="#1c0072" stroke="none" stroke-width="0.5" stroke-linecap="butt"/><path d="M370.50135,133.88176c-0.03608,-0.96583 0.71763,-1.77803 1.68345,-1.81411c0.96583,-0.03608 1.77803,0.71763 1.81411,1.68345c0.03608,0.96583 -0.71763,1.77803 -1.68345,1.81411c-0.96583,0.03608 -1.77803,-0.71763 -1.81411,-1.68345z" fill="#1c0072" stroke="none" stroke-width="0.5" stroke-linecap="butt"/><path d="M231.28701,135.27005c0.96583,-0.03608 1.77803,0.71763 1.81411,1.68345c0.03608,0.96583 -0.71763,1.77803 -1.68345,1.81411c-0.56473,0.0211 -1.07693,-0.22783 -1.41217,-0.63128c-0.24479,0.63191 -0.84704,1.09037 -1.56724,1.11727c-0.88254,0.03297 -1.63682,-0.59352 -1.78786,-1.43871c-0.22545,0.66936 -0.84601,1.1624 -1.59368,1.19033c-0.96583,0.03608 -1.77803,-0.71763 -1.81411,-1.68345c-0.03608,-0.96583 0.71763,-1.77803 1.68345,-1.81411c0.88254,-0.03297 1.63682,0.59352 1.78786,1.43871c0.22545,-0.66936 0.84601,-1.1624 1.59368,-1.19033c0.56473,-0.0211 1.07693,0.22783 1.41217,0.63128c0.24479,-0.63191 0.84704,-1.09037 1.56724,-1.11727z" fill="#1c0072" stroke="none" stroke-width="0.5" stroke-linecap="butt"/><path d="M254.71405,148.13641c-0.03608,-0.96583 0.71763,-1.77803 1.68345,-1.81411c0.96583,-0.03608 1.77803,0.71763 1.81411,1.68345c0.03608,0.96583 -0.71763,1.77803 -1.68345,1.81411c-0.96583,0.03608 -1.77803,-0.71763 -1.81411,-1.68345z" fill="#1815bf" stroke="none" stroke-width="0.5" stroke-linecap="butt"/><path d="M260.29171,146.99132c-0.03608,-0.96583 0.71763,-1.77803 1.68345,-1.81411c0.96583,-0.03608 1.77803,0.71763 1.81411,1.68345c0.03608,0.96583 -0.71763,1.77803 -1.68345,1.81411c-0.96583,0.03608 -1.77803,-0.71763 -1.81411,-1.68345z" fill="#1815bf" stroke="none" stroke-width="0.5" stroke-linecap="butt"/><path d="M267.58809,146.71877c-0.03608,-0.96583 0.71763,-1.77803 1.68345,-1.81411c0.96583,-0.03608 1.77803,0.71763 1.81411,1.68345c0.03608,0.96583 -0.71763,1.77803 -1.68345,1.81411c-0.96583,0.03608 -1.77803,-0.71763 -1.81411,-1.68345z" fill="#1815bf" stroke="none" stroke-width="0.5" stroke-linecap="butt"/><path d="M276.76933,146.7505c-0.03608,-0.96583 0.71763,-1.77803 1.68345,-1.81411c0.96583,-0.03608 1.77803,0.71763 1.81411,1.68345c0.03608,0.96583 -0.71763,1.77803 -1.68345,1.81411c-0.96583,0.03608 -1.77803,-0.71763 -1.81411,-1.68345z" fill="#1815bf" stroke="none" stroke-width="0.5" stroke-linecap="butt"/><path d="M305.95485,145.66027c-0.03608,-0.96583 0.71763,-1.77803 1.68345,-1.81411c0.96583,-0.03608 1.77803,0.71763 1.81411,1.68345c0.03608,0.96583 -0.71763,1.77803 -1.68345,1.81411c-0.96583,0.03608 -1.77803,-0.71763 -1.81411,-1.68345z" fill="#1815bf" stroke="none" stroke-width="0.5" stroke-linecap="butt"/><path d="M310.81341,146.97757c-0.02497,-0.66843 0.47968,-1.23386 1.13861,-1.29179c-0.00149,-0.02058 -0.00262,-0.04126 -0.0034,-0.06205c-0.03608,-0.96583 0.71763,-1.77803 1.68345,-1.81411c0.96583,-0.03608 1.77803,0.71763 1.81411,1.68345c0.03608,0.96583 -0.71763,1.77803 -1.68345,1.81411c-0.17018,0.00636 -0.33558,-0.0118 -0.49282,-0.05133c-0.13853,0.51536 -0.59948,0.90322 -1.16071,0.92418c-0.68988,0.02577 -1.27002,-0.51259 -1.29579,-1.20247z" fill="#1815bf" stroke="none" stroke-width="0.5" stroke-linecap="butt"/><path d="M316.81287,145.44203c-0.03608,-0.96583 0.71763,-1.77803 1.68345,-1.81411c0.96583,-0.03608 1.77803,0.71763 1.81411,1.68345c0.03608,0.96583 -0.71763,1.77803 -1.68345,1.81411c-0.96583,0.03608 -1.77803,-0.71763 -1.81411,-1.68345z" fill="#1815bf" stroke="none" stroke-width="0.5" stroke-linecap="butt"/><path d="M326.16721,145.0926c-0.03608,-0.96583 0.71763,-1.77803 1.68345,-1.81411c0.96583,-0.03608 1.77803,0.71763 1.81411,1.68345c0.03608,0.96583 -0.71763,1.77803 -1.68345,1.81411c-0.96583,0.03608 -1.77803,-0.71763 -1.81411,-1.68345z" fill="#1815bf" stroke="none" stroke-width="0.5" stroke-linecap="butt"/><path d="M362.6631,144.10399c-0.03608,-0.96583 0.71763,-1.77803 1.68345,-1.81411c0.96583,-0.03608 1.77803,0.71763 1.81411,1.68345c0.03608,0.96583 -0.71763,1.77803 -1.68345,1.81411c-0.96583,0.03608 -1.77803,-0.71763 -1.81411,-1.68345z" fill="#1815bf" stroke="none" stroke-width="0.5" stroke-linecap="butt"/><path d="M367.48672,144.48584c-0.02577,-0.68988 0.51259,-1.27002 1.20247,-1.29579c0.2344,-0.00876 0.45614,0.04762 0.64776,0.15293c0.24643,-0.62847 0.84697,-1.0838 1.56464,-1.11061c0.96583,-0.03608 1.77803,0.71763 1.81411,1.68345c0.03608,0.96583 -0.71763,1.77803 -1.68345,1.81411c-0.51103,0.01909 -0.97906,-0.18293 -1.31186,-0.5205c-0.219,0.27965 -0.55511,0.46459 -0.93787,0.47888c-0.68988,0.02577 -1.27002,-0.51259 -1.29579,-1.20247z" fill="#1815bf" stroke="none" stroke-width="0.5" stroke-linecap="butt"/><path d="M218.42621,149.67929c-0.03608,-0.96583 0.71763,-1.77803 1.68345,-1.81411c0.96583,-0.03608 1.77803,0.71763 1.81411,1.68345c0.03608,0.96583 -0.71763,1.77803 -1.68345,1.81411c-0.96583,0.03608 -1.77803,-0.71763 -1.81411,-1.68345z" fill="#1815bf" stroke="none" stroke-width="0.5" stroke-linecap="butt"/><path d="M229.25628,148.71269c-0.03608,-0.96583 0.71763,-1.77803 1.68345,-1.81411c0.96583,-0.03608 1.77803,0.71763 1.81411,1.68345c0.03608,0.96583 -0.71763,1.77803 -1.68345,1.81411c-0.96583,0.03608 -1.77803,-0.71763 -1.81411,-1.68345z" fill="#1815bf" stroke="none" stroke-width="0.5" stroke-linecap="butt"/><path d="M234.32859,149.08526c-0.03608,-0.96583 0.71763,-1.77803 1.68345,-1.81411c0.96583,-0.03608 1.77803,0.71763 1.81411,1.68345c0.03608,0.96583 -0.71763,1.77803 -1.68345,1.81411c-0.96583,0.03608 -1.77803,-0.71763 -1.81411,-1.68345z" fill="#1815bf" stroke="none" stroke-width="0.5" stroke-linecap="butt"/><path d="M243.68958,147.17171c0.96583,-0.03608 1.77803,0.71763 1.81411,1.68345c0.03608,0.96583 -0.71763,1.77803 -1.68345,1.81411c-0.12843,0.0048 -0.25414,-0.00437 -0.37567,-0.02614c-0.11956,0.03078 -0.24425,0.0493 -0.37267,0.0541c-0.96583,0.03608 -1.77803,-0.71763 -1.81411,-1.68345c-0.03608,-0.96583 0.71763,-1.77803 1.68345,-1.81411c0.12843,-0.0048 0.25414,0.00437 0.37567,0.02614c0.11956,-0.03078 0.24425,-0.0493 0.37267,-0.0541z" fill="#1815bf" stroke="none" stroke-width="0.5" stroke-linecap="butt"/><path d="M271.81768,131.19825c-0.02577,-0.68988 0.51259,-1.27002 1.20247,-1.29579c0.68988,-0.02577 1.27002,0.51259 1.29579,1.20247c0.02577,0.68988 -0.51259,1.27002 -1.20247,1.29579c-0.68988,0.02577 -1.27002,-0.51259 -1.29579,-1.20247z" fill="#110042" stroke="none" stroke-width="0.5" stroke-linecap="butt"/><path d="M297.01149,128.57101c-0.02577,-0.68988 0.51259,-1.27002 1.20247,-1.29579c0.68988,-0.02577 1.27002,0.51259 1.29579,1.20247c0.02577,0.68988 -0.51259,1.27002 -1.20247,1.29579c-0.68988,0.02577 -1.27002,-0.51259 -1.29579,-1.20247z" fill="#110042" stroke="none" stroke-width="0.5" stroke-linecap="butt"/><path d="M305.34653,126.01148c-0.02577,-0.68988 0.51259,-1.27002 1.20247,-1.29579c0.68988,-0.02577 1.27002,0.51259 1.29579,1.20247c0.02577,0.68988 -0.51259,1.27002 -1.20247,1.29579c-0.68988,0.02577 -1.27002,-0.51259 -1.29579,-1.20247z" fill="#110042" stroke="none" stroke-width="0.5" stroke-linecap="butt"/><path d="M323.72995,126.6362c-0.02577,-0.68988 0.51259,-1.27002 1.20247,-1.29579c0.68988,-0.02577 1.27002,0.51259 1.29579,1.20247c0.02577,0.68988 -0.51259,1.27002 -1.20247,1.29579c-0.68988,0.02577 -1.27002,-0.51259 -1.29579,-1.20247z" fill="#110042" stroke="none" stroke-width="0.5" stroke-linecap="butt"/><path d="M335.54437,126.94427c-0.02577,-0.68988 0.51259,-1.27002 1.20247,-1.29579c0.68988,-0.02577 1.27002,0.51259 1.29579,1.20247c0.02577,0.68988 -0.51259,1.27002 -1.20247,1.29579c-0.68988,0.02577 -1.27002,-0.51259 -1.29579,-1.20247z" fill="#110042" stroke="none" stroke-width="0.5" stroke-linecap="butt"/><path d="M343.41598,127.02493c-0.02577,-0.68988 0.51259,-1.27002 1.20247,-1.29579c0.68988,-0.02577 1.27002,0.51259 1.29579,1.20247c0.02577,0.68988 -0.51259,1.27002 -1.20247,1.29579c-0.68988,0.02577 -1.27002,-0.51259 -1.29579,-1.20247z" fill="#110042" stroke="none" stroke-width="0.5" stroke-linecap="butt"/><path d="M351.67576,127.46577c-0.02577,-0.68988 0.51259,-1.27002 1.20247,-1.29579c0.68988,-0.02577 1.27002,0.51259 1.29579,1.20247c0.02577,0.68988 -0.51259,1.27002 -1.20247,1.29579c-0.68988,0.02577 -1.27002,-0.51259 -1.29579,-1.20247z" fill="#110042" stroke="none" stroke-width="0.5" stroke-linecap="butt"/><path d="M264.1084,140.47892c-0.02577,-0.68988 0.51259,-1.27002 1.20247,-1.29579c0.68988,-0.02577 1.27002,0.51259 1.29579,1.20247c0.02577,0.68988 -0.51259,1.27002 -1.20247,1.29579c-0.68988,0.02577 -1.27002,-0.51259 -1.29579,-1.20247z" fill="#1c0072" stroke="none" stroke-width="0.5" stroke-linecap="butt"/><path d="M297.61789,139.78922c-0.02577,-0.68988 0.51259,-1.27002 1.20247,-1.29579c0.68988,-0.02577 1.27002,0.51259 1.29579,1.20247c0.02577,0.68988 -0.51259,1.27002 -1.20247,1.29579c-0.68988,0.02577 -1.27002,-0.51259 -1.29579,-1.20247z" fill="#1c0072" stroke="none" stroke-width="0.5" stroke-linecap="butt"/><path d="M304.40193,140.84724c-0.02577,-0.68988 0.51259,-1.27002 1.20247,-1.29579c0.68988,-0.02577 1.27002,0.51259 1.29579,1.20247c0.02577,0.68988 -0.51259,1.27002 -1.20247,1.29579c-0.68988,0.02577 -1.27002,-0.51259 -1.29579,-1.20247z" fill="#1c0072" stroke="none" stroke-width="0.5" stroke-linecap="butt"/><path d="M311.53758,136.27169c-0.02577,-0.68988 0.51259,-1.27002 1.20247,-1.29579c0.68988,-0.02577 1.27002,0.51259 1.29579,1.20247c0.02577,0.68988 -0.51259,1.27002 -1.20247,1.29579c-0.68988,0.02577 -1.27002,-0.51259 -1.29579,-1.20247z" fill="#1c0072" stroke="none" stroke-width="0.5" stroke-linecap="butt"/><path d="M356.99427,139.4447c-0.02577,-0.68988 0.51259,-1.27002 1.20247,-1.29579c0.68988,-0.02577 1.27002,0.51259 1.29579,1.20247c0.02577,0.68988 -0.51259,1.27002 -1.20247,1.29579c-0.68988,0.02577 -1.27002,-0.51259 -1.29579,-1.20247z" fill="#1c0072" stroke="none" stroke-width="0.5" stroke-linecap="butt"/><path d="M368.39259,138.64423c-0.02577,-0.68988 0.51259,-1.27002 1.20247,-1.29579c0.68988,-0.02577 1.27002,0.51259 1.29579,1.20247c0.02577,0.68988 -0.51259,1.27002 -1.20247,1.29579c-0.68988,0.02577 -1.27002,-0.51259 -1.29579,-1.20247z" fill="#1c0072" stroke="none" stroke-width="0.5" stroke-linecap="butt"/><path d="M223.65573,140.86594c-0.02577,-0.68988 0.51259,-1.27002 1.20247,-1.29579c0.68988,-0.02577 1.27002,0.51259 1.29579,1.20247c0.02577,0.68988 -0.51259,1.27002 -1.20247,1.29579c-0.68988,0.02577 -1.27002,-0.51259 -1.29579,-1.20247z" fill="#1c0072" stroke="none" stroke-width="0.5" stroke-linecap="butt"/><path d="M229.24736,140.09502c-0.02577,-0.68988 0.51259,-1.27002 1.20247,-1.29579c0.68988,-0.02577 1.27002,0.51259 1.29579,1.20247c0.02577,0.68988 -0.51259,1.27002 -1.20247,1.29579c-0.68988,0.02577 -1.27002,-0.51259 -1.29579,-1.20247z" fill="#1c0072" stroke="none" stroke-width="0.5" stroke-linecap="butt"/><path d="M225.44594,148.66767c-0.02577,-0.68988 0.51259,-1.27002 1.20247,-1.29579c0.68988,-0.02577 1.27002,0.51259 1.29579,1.20247c0.02577,0.68988 -0.51259,1.27002 -1.20247,1.29579c-0.68988,0.02577 -1.27002,-0.51259 -1.29579,-1.20247z" fill="#1815bf" stroke="none" stroke-width="0.5" stroke-linecap="butt"/><path d="M227.6227,151.77127c-0.02577,-0.68988 0.51259,-1.27002 1.20247,-1.29579c0.68988,-0.02577 1.27002,0.51259 1.29579,1.20247c0.02577,0.68988 -0.51259,1.27002 -1.20247,1.29579c-0.68988,0.02577 -1.27002,-0.51259 -1.29579,-1.20247z" fill="#1815bf" stroke="none" stroke-width="0.5" stroke-linecap="butt"/><path d="M233.27724,152.68414c-0.02577,-0.68988 0.51259,-1.27002 1.20247,-1.29579c0.68988,-0.02577 1.27002,0.51259 1.29579,1.20247c0.02577,0.68988 -0.51259,1.27002 -1.20247,1.29579c-0.68988,0.02577 -1.27002,-0.51259 -1.29579,-1.20247z" fill="#1815bf" stroke="none" stroke-width="0.5" stroke-linecap="butt"/><path d="M235.89645,152.5863c-0.02577,-0.68988 0.51259,-1.27002 1.20247,-1.29579c0.68988,-0.02577 1.27002,0.51259 1.29579,1.20247c0.02577,0.68988 -0.51259,1.27002 -1.20247,1.29579c-0.68988,0.02577 -1.27002,-0.51259 -1.29579,-1.20247z" fill="#1815bf" stroke="none" stroke-width="0.5" stroke-linecap="butt"/><path d="M248.90867,149.85205c-0.02577,-0.68988 0.51259,-1.27002 1.20247,-1.29579c0.68988,-0.02577 1.27002,0.51259 1.29579,1.20247c0.02577,0.68988 -0.51259,1.27002 -1.20247,1.29579c-0.68988,0.02577 -1.27002,-0.51259 -1.29579,-1.20247z" fill="#1815bf" stroke="none" stroke-width="0.5" stroke-linecap="butt"/><path d="M265.13629,147.93444c-0.02577,-0.68988 0.51259,-1.27002 1.20247,-1.29579c0.68988,-0.02577 1.27002,0.51259 1.29579,1.20247c0.02577,0.68988 -0.51259,1.27002 -1.20247,1.29579c-0.68988,0.02577 -1.27002,-0.51259 -1.29579,-1.20247z" fill="#1815bf" stroke="none" stroke-width="0.5" stroke-linecap="butt"/><path d="M316.68997,148.81888c-0.02577,-0.68988 0.51259,-1.27002 1.20247,-1.29579c0.68988,-0.02577 1.27002,0.51259 1.29579,1.20247c0.02577,0.68988 -0.51259,1.27002 -1.20247,1.29579c-0.68988,0.02577 -1.27002,-0.51259 -1.29579,-1.20247z" fill="#1815bf" stroke="none" stroke-width="0.5" stroke-linecap="butt"/><path d="M320.24462,148.68609c-0.02577,-0.68988 0.51259,-1.27002 1.20247,-1.29579c0.68988,-0.02577 1.27002,0.51259 1.29579,1.20247c0.02577,0.68988 -0.51259,1.27002 -1.20247,1.29579c-0.68988,0.02577 -1.27002,-0.51259 -1.29579,-1.20247z" fill="#1815bf" stroke="none" stroke-width="0.5" stroke-linecap="butt"/><path d="M269.21373,133.35634c-0.01546,-0.41392 0.30756,-0.76201 0.72148,-0.77747c0.41392,-0.01546 0.76201,0.30756 0.77747,0.72148c0.01546,0.41392 -0.30756,0.76201 -0.72148,0.77747c-0.41392,0.01546 -0.76201,-0.30756 -0.77747,-0.72148z" fill="#110042" stroke="none" stroke-width="0.5" stroke-linecap="butt"/><path d="M272.62323,134.35307c-0.01546,-0.41392 0.30756,-0.76201 0.72148,-0.77747c0.41392,-0.01546 0.76201,0.30756 0.77747,0.72148c0.01546,0.41392 -0.30756,0.76201 -0.72148,0.77747c-0.41392,0.01546 -0.76201,-0.30756 -0.77747,-0.72148z" fill="#110042" stroke="none" stroke-width="0.5" stroke-linecap="butt"/><path d="M287.65145,130.41944c-0.01546,-0.41392 0.30756,-0.76201 0.72148,-0.77747c0.41392,-0.01546 0.76201,0.30756 0.77747,0.72148c0.01546,0.41392 -0.30756,0.76201 -0.72148,0.77747c-0.41392,0.01546 -0.76201,-0.30756 -0.77747,-0.72148z" fill="#110042" stroke="none" stroke-width="0.5" stroke-linecap="butt"/><path d="M302.09208,130.81674c-0.01546,-0.41392 0.30756,-0.76201 0.72148,-0.77747c0.41392,-0.01546 0.76201,0.30756 0.77747,0.72148c0.01546,0.41392 -0.30756,0.76201 -0.72148,0.77747c-0.41392,0.01546 -0.76201,-0.30756 -0.77747,-0.72148z" fill="#110042" stroke="none" stroke-width="0.5" stroke-linecap="butt"/><path d="M308.48796,131.51457c-0.01546,-0.41392 0.30756,-0.76201 0.72148,-0.77747c0.41392,-0.01546 0.76201,0.30756 0.77747,0.72148c0.01546,0.41392 -0.30756,0.76201 -0.72148,0.77747c-0.41392,0.01546 -0.76201,-0.30756 -0.77747,-0.72148z" fill="#110042" stroke="none" stroke-width="0.5" stroke-linecap="butt"/><path d="M317.66221,131.35922c-0.01546,-0.41392 0.30756,-0.76201 0.72148,-0.77747c0.41392,-0.01546 0.76201,0.30756 0.77747,0.72148c0.01546,0.41392 -0.30756,0.76201 -0.72148,0.77747c-0.41392,0.01546 -0.76201,-0.30756 -0.77747,-0.72148z" fill="#110042" stroke="none" stroke-width="0.5" stroke-linecap="butt"/><path d="M327.76489,130.98183c-0.01546,-0.41392 0.30756,-0.76201 0.72148,-0.77747c0.41392,-0.01546 0.76201,0.30756 0.77747,0.72148c0.01546,0.41392 -0.30756,0.76201 -0.72148,0.77747c-0.41392,0.01546 -0.76201,-0.30756 -0.77747,-0.72148z" fill="#110042" stroke="none" stroke-width="0.5" stroke-linecap="butt"/><path d="M338.24873,130.77755c-0.01546,-0.41392 0.30756,-0.76201 0.72148,-0.77747c0.41392,-0.01546 0.76201,0.30756 0.77747,0.72148c0.01546,0.41392 -0.30756,0.76201 -0.72148,0.77747c-0.41392,0.01546 -0.76201,-0.30756 -0.77747,-0.72148z" fill="#110042" stroke="none" stroke-width="0.5" stroke-linecap="butt"/><path d="M346.54345,132.15384c-0.01546,-0.41392 0.30756,-0.76201 0.72148,-0.77747c0.41392,-0.01546 0.76201,0.30756 0.77747,0.72148c0.01546,0.41392 -0.30756,0.76201 -0.72148,0.77747c-0.41392,0.01546 -0.76201,-0.30756 -0.77747,-0.72148z" fill="#110042" stroke="none" stroke-width="0.5" stroke-linecap="butt"/><path d="M358.32292,131.52647c-0.01546,-0.41392 0.30756,-0.76201 0.72148,-0.77747c0.41392,-0.01546 0.76201,0.30756 0.77747,0.72148c0.01546,0.41392 -0.30756,0.76201 -0.72148,0.77747c-0.41392,0.01546 -0.76201,-0.30756 -0.77747,-0.72148z" fill="#110042" stroke="none" stroke-width="0.5" stroke-linecap="butt"/><path d="M222.25118,145.04006c-0.01546,-0.41392 0.30756,-0.76201 0.72148,-0.77747c0.41392,-0.01546 0.76201,0.30756 0.77747,0.72148c0.01546,0.41392 -0.30756,0.76201 -0.72148,0.77747c-0.41392,0.01546 -0.76201,-0.30756 -0.77747,-0.72148z" fill="#1c0072" stroke="none" stroke-width="0.5" stroke-linecap="butt"/><path d="M228.66803,146.29914c-0.01546,-0.41392 0.30756,-0.76201 0.72148,-0.77747c0.41392,-0.01546 0.76201,0.30756 0.77747,0.72148c0.01546,0.41392 -0.30756,0.76201 -0.72148,0.77747c-0.41392,0.01546 -0.76201,-0.30756 -0.77747,-0.72148z" fill="#1c0072" stroke="none" stroke-width="0.5" stroke-linecap="butt"/><path d="M233.24037,143.31812c-0.01546,-0.41392 0.30756,-0.76201 0.72148,-0.77747c0.41392,-0.01546 0.76201,0.30756 0.77747,0.72148c0.01546,0.41392 -0.30756,0.76201 -0.72148,0.77747c-0.41392,0.01546 -0.76201,-0.30756 -0.77747,-0.72148z" fill="#1c0072" stroke="none" stroke-width="0.5" stroke-linecap="butt"/><path d="M258.36591,143.87834c-0.01546,-0.41392 0.30756,-0.76201 0.72148,-0.77747c0.41392,-0.01546 0.76201,0.30756 0.77747,0.72148c0.01546,0.41392 -0.30756,0.76201 -0.72148,0.77747c-0.41392,0.01546 -0.76201,-0.30756 -0.77747,-0.72148z" fill="#1c0072" stroke="none" stroke-width="0.5" stroke-linecap="butt"/><path d="M263.07103,144.45197c-0.01546,-0.41392 0.30756,-0.76201 0.72148,-0.77747c0.41392,-0.01546 0.76201,0.30756 0.77747,0.72148c0.01546,0.41392 -0.30756,0.76201 -0.72148,0.77747c-0.41392,0.01546 -0.76201,-0.30756 -0.77747,-0.72148z" fill="#1c0072" stroke="none" stroke-width="0.5" stroke-linecap="butt"/><path d="M273.16672,143.8875c-0.01546,-0.41392 0.30756,-0.76201 0.72148,-0.77747c0.41392,-0.01546 0.76201,0.30756 0.77747,0.72148c0.01546,0.41392 -0.30756,0.76201 -0.72148,0.77747c-0.41392,0.01546 -0.76201,-0.30756 -0.77747,-0.72148z" fill="#1c0072" stroke="none" stroke-width="0.5" stroke-linecap="butt"/><path d="M280.97545,142.28437c-0.01546,-0.41392 0.30756,-0.76201 0.72148,-0.77747c0.41392,-0.01546 0.76201,0.30756 0.77747,0.72148c0.01546,0.41392 -0.30756,0.76201 -0.72148,0.77747c-0.41392,0.01546 -0.76201,-0.30756 -0.77747,-0.72148z" fill="#1c0072" stroke="none" stroke-width="0.5" stroke-linecap="butt"/><path d="M297.12082,143.18005c-0.01546,-0.41392 0.30756,-0.76201 0.72148,-0.77747c0.41392,-0.01546 0.76201,0.30756 0.77747,0.72148c0.01546,0.41392 -0.30756,0.76201 -0.72148,0.77747c-0.41392,0.01546 -0.76201,-0.30756 -0.77747,-0.72148z" fill="#1c0072" stroke="none" stroke-width="0.5" stroke-linecap="butt"/><path d="M299.20673,143.85152c-0.01546,-0.41392 0.30756,-0.76201 0.72148,-0.77747c0.41392,-0.01546 0.76201,0.30756 0.77747,0.72148c0.01546,0.41392 -0.30756,0.76201 -0.72148,0.77747c-0.41392,0.01546 -0.76201,-0.30756 -0.77747,-0.72148z" fill="#1c0072" stroke="none" stroke-width="0.5" stroke-linecap="butt"/><path d="M326.81869,140.75926c-0.01546,-0.41392 0.30756,-0.76201 0.72148,-0.77747c0.41392,-0.01546 0.76201,0.30756 0.77747,0.72148c0.01546,0.41392 -0.30756,0.76201 -0.72148,0.77747c-0.41392,0.01546 -0.76201,-0.30756 -0.77747,-0.72148z" fill="#1c0072" stroke="none" stroke-width="0.5" stroke-linecap="butt"/><path d="M334.71826,141.58825c-0.01546,-0.41392 0.30756,-0.76201 0.72148,-0.77747c0.41392,-0.01546 0.76201,0.30756 0.77747,0.72148c0.01546,0.41392 -0.30756,0.76201 -0.72148,0.77747c-0.41392,0.01546 -0.76201,-0.30756 -0.77747,-0.72148z" fill="#1c0072" stroke="none" stroke-width="0.5" stroke-linecap="butt"/><path d="M354.16131,140.48727c-0.01546,-0.41392 0.30756,-0.76201 0.72148,-0.77747c0.41392,-0.01546 0.76201,0.30756 0.77747,0.72148c0.01546,0.41392 -0.30756,0.76201 -0.72148,0.77747c-0.41392,0.01546 -0.76201,-0.30756 -0.77747,-0.72148z" fill="#1c0072" stroke="none" stroke-width="0.5" stroke-linecap="butt"/><path d="M364.52795,142.16085c-0.01546,-0.41392 0.30756,-0.76201 0.72148,-0.77747c0.41392,-0.01546 0.76201,0.30756 0.77747,0.72148c0.01546,0.41392 -0.30756,0.76201 -0.72148,0.77747c-0.41392,0.01546 -0.76201,-0.30756 -0.77747,-0.72148z" fill="#1c0072" stroke="none" stroke-width="0.5" stroke-linecap="butt"/><path d="M315.84187,137.79703c-0.01546,-0.41392 0.30756,-0.76201 0.72148,-0.77747c0.41392,-0.01546 0.76201,0.30756 0.77747,0.72148c0.01546,0.41392 -0.30756,0.76201 -0.72148,0.77747c-0.41392,0.01546 -0.76201,-0.30756 -0.77747,-0.72148z" fill="#1c0072" stroke="none" stroke-width="0.5" stroke-linecap="butt"/><path d="M221.12488,155.01156c-0.01546,-0.41392 0.30756,-0.76201 0.72148,-0.77747c0.41392,-0.01546 0.76201,0.30756 0.77747,0.72148c0.01546,0.41392 -0.30756,0.76201 -0.72148,0.77747c-0.41392,0.01546 -0.76201,-0.30756 -0.77747,-0.72148z" fill="#1815bf" stroke="none" stroke-width="0.5" stroke-linecap="butt"/><path d="M230.56308,156.90717c-0.01546,-0.41392 0.30756,-0.76201 0.72148,-0.77747c0.41392,-0.01546 0.76201,0.30756 0.77747,0.72148c0.01546,0.41392 -0.30756,0.76201 -0.72148,0.77747c-0.41392,0.01546 -0.76201,-0.30756 -0.77747,-0.72148z" fill="#1815bf" stroke="none" stroke-width="0.5" stroke-linecap="butt"/><path d="M239.49433,155.26211c-0.01546,-0.41392 0.30756,-0.76201 0.72148,-0.77747c0.41392,-0.01546 0.76201,0.30756 0.77747,0.72148c0.01546,0.41392 -0.30756,0.76201 -0.72148,0.77747c-0.41392,0.01546 -0.76201,-0.30756 -0.77747,-0.72148z" fill="#1815bf" stroke="none" stroke-width="0.5" stroke-linecap="butt"/><path d="M244.48975,153.57673c-0.01546,-0.41392 0.30756,-0.76201 0.72148,-0.77747c0.41392,-0.01546 0.76201,0.30756 0.77747,0.72148c0.01546,0.41392 -0.30756,0.76201 -0.72148,0.77747c-0.41392,0.01546 -0.76201,-0.30756 -0.77747,-0.72148z" fill="#1815bf" stroke="none" stroke-width="0.5" stroke-linecap="butt"/><path d="M260.00398,152.6225c-0.01546,-0.41392 0.30756,-0.76201 0.72148,-0.77747c0.41392,-0.01546 0.76201,0.30756 0.77747,0.72148c0.01546,0.41392 -0.30756,0.76201 -0.72148,0.77747c-0.41392,0.01546 -0.76201,-0.30756 -0.77747,-0.72148z" fill="#1815bf" stroke="none" stroke-width="0.5" stroke-linecap="butt"/><path d="M312.98447,151.58016c-0.01546,-0.41392 0.30756,-0.76201 0.72148,-0.77747c0.41392,-0.01546 0.76201,0.30756 0.77747,0.72148c0.01546,0.41392 -0.30756,0.76201 -0.72148,0.77747c-0.41392,0.01546 -0.76201,-0.30756 -0.77747,-0.72148z" fill="#1815bf" stroke="none" stroke-width="0.5" stroke-linecap="butt"/><path d="M317.5654,153.84456c-0.01546,-0.41392 0.30756,-0.76201 0.72148,-0.77747c0.41392,-0.01546 0.76201,0.30756 0.77747,0.72148c0.01546,0.41392 -0.30756,0.76201 -0.72148,0.77747c-0.41392,0.01546 -0.76201,-0.30756 -0.77747,-0.72148z" fill="#1815bf" stroke="none" stroke-width="0.5" stroke-linecap="butt"/><path d="M368.69439,148.37503c-0.01546,-0.41392 0.30756,-0.76201 0.72148,-0.77747c0.41392,-0.01546 0.76201,0.30756 0.77747,0.72148c0.01546,0.41392 -0.30756,0.76201 -0.72148,0.77747c-0.41392,0.01546 -0.76201,-0.30756 -0.77747,-0.72148z" fill="#1815bf" stroke="none" stroke-width="0.5" stroke-linecap="butt"/><path d="M267.52784,164.68778c-0.1156,-3.09455 0.37309,-6.07156 1.3605,-8.8173c3.14755,-8.75252 37.13176,-11.71478 41.52854,-5.25643c2.39959,3.5247 3.86863,7.74532 4.03954,12.32073c0.21716,5.81341 -1.69824,11.21201 -5.04648,15.44176c-4.1155,5.19901 -30.86881,6.36136 -35.3458,1.70728c-3.85744,-4.01003 -6.31224,-9.39819 -6.53629,-15.39603z" fill="#ffffff" stroke="#000000" stroke-width="0" stroke-linecap="butt"/><path d="M271.92833,166.81182c-0.30982,-8.29386 6.16252,-15.26852 14.45638,-15.57834c8.29386,-0.30982 15.26852,6.16253 15.57834,14.4564c0.30982,8.29386 -6.16253,15.26853 -14.45639,15.57835c-8.29386,0.30982 -15.26851,-6.16253 -15.57833,-14.45641z" fill="#000000" stroke="#000000" stroke-width="0" stroke-linecap="butt"/><path d="M329.21931,178.97745c-4.39256,-4.08639 -7.22916,-9.84613 -7.47081,-16.31505c-0.1853,-4.96045 1.18209,-9.61889 3.66745,-13.50686c4.00753,-6.2692 34.08183,-7.42051 38.54943,-1.50393c2.796,3.70283 4.52537,8.26945 4.71171,13.25779c0.22911,6.13347 -1.91562,11.80522 -5.61243,16.12965c-4.11391,4.81234 -29.43844,6.03814 -33.84534,1.93842z" fill="#ffffff" stroke="#000000" stroke-width="0" stroke-linecap="butt"/><path d="M355.22162,163.48705c0.30982,8.29388 -6.16252,15.26853 -14.45638,15.57835c-8.29386,0.30982 -15.26852,-6.16255 -15.57834,-14.4564c-0.30982,-8.29388 6.16254,-15.26853 14.45639,-15.57835c8.29386,-0.30982 15.26851,6.16254 15.57833,14.4564z" fill="#1b1b1b" stroke="#000000" stroke-width="0" stroke-linecap="butt"/></g></g></g></svg>