<svg version="1.1" xmlns="http://www.w3.org/2000/svg" xmlns:xlink="http://www.w3.org/1999/xlink" width="213.18203" height="281.18476" viewBox="0,0,213.18203,281.18476"><defs><linearGradient x1="320.08742" y1="187.07227" x2="320.08742" y2="244.23177" gradientUnits="userSpaceOnUse" id="color-1"><stop offset="0" stop-color="#7a6b00"/><stop offset="1" stop-color="#7a6b00" stop-opacity="0"/></linearGradient></defs><g transform="translate(-214.78369,-38.88751)"><g stroke-miterlimit="10"><g stroke-linecap="butt"><g stroke="#000000" stroke-width="3.5"><path d="M308.40319,224.14404c-9.0313,0.53142 -9.31032,-4.21038 -9.31032,-4.21038l-0.14145,-2.7012c-0.2434,-0.78872 -0.48681,-1.57743 -0.73021,-2.36614c-2.27445,-8.43656 1.86908,-16.96682 0.3726,-25.32734c-0.88514,-4.94511 -3.1426,-10.77587 -5.1781,-15.36937c-2.2135,-4.99517 -6.65679,-9.117 -7.39075,-14.35689c-0.78257,-5.58687 6.2364,-10.34423 5.43472,-15.56136c0,0 -0.27902,-4.7418 8.75228,-5.27323c9.0313,-0.53142 9.31032,4.21038 9.31032,4.21038c0.01263,1.588 0.56359,3.17735 0.0379,4.76399c-0.95922,2.89512 -4.59992,5.513 -5.7533,8.39641c-1.13404,2.83505 1.92944,6.26651 3.45559,8.67581c3.20313,5.05662 5.17053,10.36546 6.99532,15.66245c1.23263,3.57811 2.68863,7.03929 2.54166,10.75319c-0.28408,7.17886 -2.6849,14.16683 -0.70562,21.25861c0.28354,0.96113 0.56708,1.92225 0.85062,2.8834l0.21102,3.28844c0,0 0.27902,4.7418 -8.75229,5.27323z" fill="#39940f"/><path d="M286.97916,227.36032c-8.90107,1.19667 -10.4545,-3.42232 -10.4545,-3.42232l-0.82848,-2.48807c-0.60191,-2.41843 -0.95607,-4.86674 -1.10065,-7.32391c0.57504,-4.44841 0.89972,-9.30832 2.62657,-13.75309c1.86661,-4.80449 4.60806,-8.43408 4.67833,-13.32213c0.08145,-5.66525 -3.05863,-10.7199 -4.12076,-16.28001c-1.24054,-6.494 -0.87819,-13.59988 0.81917,-20.19834c0.96408,-3.74785 3.32354,-7.36295 4.48788,-11.10239c0,0 1.49759,-4.75392 10.40823,-4.34509c8.91064,0.40884 7.41305,5.16277 7.41305,5.16277c-3.11958,9.80413 -7.05414,18.85822 -5.15073,28.7506c1.13429,5.8951 4.36811,11.24728 4.21418,17.28836c-0.14089,5.52881 -2.94888,9.91242 -5.08487,15.30078c-1.36174,3.43516 -1.78062,8.53601 -2.22308,11.90944c0.11681,1.98516 0.45055,3.95944 0.9501,5.9118l0.7132,2.09594c0,0 1.55343,4.61899 -7.34765,5.81566z" fill="#28670a"/><path d="M323.4869,224.2518c-8.48898,-1.26764 -5.3939,-5.86766 -5.3939,-5.86766l0.62733,0.06069c-0.05036,-0.91976 -0.10073,-1.83951 -0.15111,-2.75927c-2.23659,-8.74156 -7.55151,-17.16282 -8.52986,-26.05513c-0.66326,-6.02846 -0.10907,-10.08255 -1.51528,-15.78573c-1.62205,-6.57854 -5.07293,-12.96288 -6.28773,-19.61312c-0.82729,-4.52882 0.00211,-9.1368 -1.38106,-13.61589c0,0 -1.39706,-4.63926 7.5299,-5.75472c8.92695,-1.11546 10.32402,3.5238 10.32402,3.5238c1.39086,4.71486 0.65956,9.50988 1.53124,14.26117c1.18516,6.45994 4.59568,12.66221 6.16314,19.05562c1.66435,6.7885 0.87858,9.11373 1.65155,16.41718c0.93841,8.86645 6.35279,17.30148 8.52647,26.03291c0.06711,1.07679 0.13422,2.15357 0.20133,3.23036l-1.71198,3.53745c0,0 -3.09508,4.60001 -11.58405,3.33237z" fill="#448f21"/><path d="M275.24385,233.44123c-9.0313,0.53142 -9.31032,-4.21038 -9.31032,-4.21038l-0.01958,-0.33276c-0.78278,-13.30313 -1.37359,-26.51993 0.24741,-39.93027c0.66945,-5.53824 3.33934,-11.115 3.43305,-16.64628c0.17695,-10.44495 -0.4577,-20.77289 0.72758,-31.26409c0,0 0.53978,-4.77043 9.55925,-4.87038c9.01947,-0.09994 8.47969,4.67051 8.47969,4.67051c-1.17634,10.37971 -0.45877,20.59283 -0.70071,30.92719c-0.13359,5.70632 -2.79948,11.44376 -3.48179,17.15159c-1.56178,13.06497 -0.96451,25.9381 -0.20187,38.89889l0.01958,0.33276c0,0 0.27902,4.7418 -8.75229,5.27323z" fill="#275313"/><path d="M316.89732,219.88775l-0.17611,-3.2905c0.16886,-0.98775 0.33773,-1.9755 0.50659,-2.96326c1.13391,-7.27496 -2.0699,-13.93314 -3.19394,-21.02914c-0.58151,-3.67103 0.45852,-7.27909 1.263,-10.97707c1.19097,-5.47445 2.5222,-10.97739 5.11018,-16.37477c1.23308,-2.57166 3.87295,-6.33872 2.41426,-9.0212c-1.48359,-2.72824 -5.40617,-4.90108 -6.69831,-7.66373c-0.70815,-1.51405 -0.34739,-3.15704 -0.52108,-4.73556c0,0 -0.27902,-4.7418 8.75228,-5.27323c9.03131,-0.53142 9.31033,4.21038 9.31033,4.21038c-0.1843,5.27514 7.34417,9.1765 7.22221,14.81659c-0.11438,5.28981 -4.0436,9.9043 -5.656,15.12459c-1.48273,4.80052 -3.04079,10.8558 -3.33987,15.8706c-0.50563,8.47833 4.60971,16.46378 3.34039,25.10885c-0.14922,0.81182 -0.29846,1.62364 -0.44768,2.43545l0.17632,2.69915c0,0 0.27902,4.7418 -8.75228,5.27323c-9.0313,0.53142 -9.31032,-4.21038 -9.31032,-4.21038z" fill="#39940f"/><path d="M339.88203,219.86582l0.46246,-2.16512c0.26714,-1.99748 0.36703,-3.99728 0.25022,-5.98244c-0.83505,-3.29824 -1.84926,-8.31478 -3.60447,-11.56653c-2.7532,-5.10067 -6.05591,-9.12471 -6.84423,-14.59884c-0.86137,-5.98133 1.72245,-11.67584 2.15755,-17.66327c0.73011,-10.04733 -4.23914,-18.5775 -8.48701,-27.94812c0,0 -2.04478,-4.54549 6.75641,-5.99654c8.80121,-1.45105 10.84599,3.09445 10.84599,3.09445c1.59487,3.57709 4.36201,6.89054 5.75898,10.49945c2.45951,6.35385 3.65271,13.3682 3.18236,19.96288c-0.40273,5.64631 -2.92833,11.03434 -2.18303,16.65095c0.64305,4.84608 3.79128,8.12911 6.20846,12.68153c2.2362,4.21156 3.12861,8.99985 4.22137,13.35013c0.14459,2.45718 0.08001,4.93012 -0.23412,7.40246l-0.53097,2.56807c0,0 -1.00101,4.76929 -9.98099,4.62479c-8.98,-0.1445 -7.97899,-4.91381 -7.97899,-4.91381z" fill="#28670a"/><path d="M299.34573,224.02332l-2.11503,-3.31226c-0.05964,-1.07722 -0.11928,-2.15445 -0.17892,-3.23168c1.13467,-8.9261 5.52244,-17.93791 5.41452,-26.85323c-0.0889,-7.3437 -1.14194,-9.56073 -0.28523,-16.49758c0.80684,-6.5331 3.46644,-13.09257 3.8858,-19.64692c0.30844,-4.82074 -0.98016,-9.49688 -0.15186,-14.34234c0,0 0.84333,-4.77109 9.8395,-4.71027c8.99617,0.06082 8.15284,4.83192 8.15284,4.83192c-0.84833,4.6104 0.51578,9.08931 0.22533,13.6839c-0.42649,6.7468 -3.10481,13.49181 -3.94413,20.21518c-0.72765,5.82874 0.29818,9.78986 0.3465,15.8545c0.07128,8.94568 -4.21933,17.93216 -5.41529,26.87569c0.05784,0.91932 0.1157,1.83863 0.17353,2.75795l0.61588,-0.13384c0,0 3.6132,4.20528 -4.66853,6.45976c-8.28174,2.25447 -11.89493,-1.95082 -11.89493,-1.95082z" fill="#448f21"/><path d="M350.91819,225.2319l-0.01958,-0.33276c-0.76265,-12.96081 -1.67925,-25.81515 -4.76248,-38.60678c-1.347,-5.58843 -4.66739,-10.97362 -5.46928,-16.62489c-1.45226,-10.23468 -1.93742,-20.46148 -4.32296,-30.63159c0,0 -1.09552,-4.67421 7.87342,-5.63276c8.96895,-0.95855 10.06447,3.71567 10.06447,3.71567c2.40749,10.2798 2.98847,20.61089 4.38916,30.96301c0.74175,5.48211 4.04726,10.70727 5.3616,16.12879c3.18255,13.1277 4.14587,26.32257 4.92865,39.6257l0.01958,0.33276c0,0 0.27902,4.7418 -8.75228,5.27323c-9.0313,0.53142 -9.31032,-4.21038 -9.31032,-4.21038z" fill="#275313"/></g><g stroke="none" stroke-width="0.5"><path d="M308.40319,224.14404c-9.0313,0.53142 -9.31032,-4.21038 -9.31032,-4.21038l-0.14144,-2.70119c-0.2434,-0.78872 -0.48681,-1.57743 -0.73021,-2.36614c-2.27445,-8.43657 1.86908,-16.96682 0.3726,-25.32734c-0.88514,-4.94511 -3.1426,-10.77587 -5.1781,-15.36936c-2.21349,-4.99518 -6.65679,-9.117 -7.39076,-14.3569c-0.78257,-5.58687 6.2364,-10.34423 5.43472,-15.56135c0,0 -0.27902,-4.7418 8.75228,-5.27323c9.0313,-0.53142 9.31032,4.21038 9.31032,4.21038c0.01263,1.588 0.56359,3.17735 0.0379,4.76399c-0.95923,2.89513 -4.59991,5.513 -5.7533,8.39641c-1.13404,2.83505 1.92943,6.26651 3.45559,8.67581c3.20313,5.05662 5.17054,10.36546 6.99532,15.66245c1.23263,3.5781 2.68863,7.03929 2.54166,10.75319c-0.28408,7.17886 -2.6849,14.16683 -0.70562,21.25861c0.28354,0.96113 0.56707,1.92226 0.85062,2.8834l0.21101,3.28843c0,0 0.27902,4.7418 -8.75228,5.27323z" fill="#39940f"/><path d="M286.97916,227.36032c-8.90107,1.19667 -10.4545,-3.42232 -10.4545,-3.42232l-0.82848,-2.48807c-0.60191,-2.41843 -0.95607,-4.86674 -1.10065,-7.32391c0.57504,-4.44841 0.89972,-9.30832 2.62657,-13.75309c1.86662,-4.80449 4.60806,-8.43408 4.67834,-13.32213c0.08145,-5.66525 -3.05863,-10.7199 -4.12077,-16.28002c-1.24053,-6.494 -0.87818,-13.59989 0.81918,-20.19834c0.96408,-3.74785 3.32354,-7.36295 4.48788,-11.10239c0,0 1.49758,-4.75394 10.40823,-4.34509c8.91064,0.40884 7.41306,5.16277 7.41306,5.16277c-3.11959,9.80413 -7.05415,18.85821 -5.15073,28.7506c1.13428,5.8951 4.36812,11.24728 4.21418,17.28835c-0.14089,5.52881 -2.94887,9.91241 -5.08487,15.30078c-1.36174,3.43516 -1.78062,8.53601 -2.22308,11.90944c0.11681,1.98516 0.45055,3.95944 0.9501,5.9118l0.7132,2.09594c0,0 1.55344,4.61899 -7.34765,5.81566z" fill="#28670a"/><path d="M323.4869,224.2518c-8.48898,-1.26764 -5.3939,-5.86766 -5.3939,-5.86766l0.62733,0.06069c-0.05038,-0.91975 -0.10074,-1.83951 -0.15111,-2.75927c-2.23659,-8.74156 -7.55151,-17.16282 -8.52986,-26.05513c-0.66326,-6.02846 -0.10907,-10.08255 -1.51528,-15.78573c-1.62205,-6.57853 -5.07293,-12.96288 -6.28773,-19.61311c-0.82728,-4.52882 0.00212,-9.13681 -1.38106,-13.61589c0,0 -1.39706,-4.63926 7.5299,-5.75472c8.92695,-1.11547 10.32401,3.52379 10.32401,3.52379c1.39086,4.71487 0.65956,9.50988 1.53124,14.26116c1.18515,6.45994 4.59568,12.66222 6.16315,19.05562c1.66434,6.7885 0.87858,9.11373 1.65155,16.41717c0.93841,8.86645 6.35279,17.30148 8.52647,26.03291c0.06711,1.07679 0.13422,2.15357 0.20133,3.23036l-1.71197,3.53745c0,0 -3.09508,4.60001 -11.58405,3.33237z" fill="#448f21"/><path d="M275.24385,233.44123c-9.0313,0.53142 -9.31032,-4.21038 -9.31032,-4.21038l-0.01958,-0.33277c-0.78278,-13.30313 -1.37359,-26.51993 0.24741,-39.93027c0.66945,-5.53824 3.33934,-11.115 3.43305,-16.64628c0.17695,-10.44495 -0.4577,-20.77288 0.72758,-31.26409c0,0 0.53978,-4.77044 9.55925,-4.87038c9.01947,-0.09994 8.47969,4.67051 8.47969,4.67051c-1.17634,10.37971 -0.45877,20.59282 -0.70071,30.92719c-0.13358,5.70632 -2.79948,11.44376 -3.48179,17.15159c-1.56178,13.06496 -0.96452,25.9381 -0.20188,38.89889l0.01958,0.33277c0,0 0.27902,4.7418 -8.75228,5.27323z" fill="#275313"/><path d="M316.89732,219.88775l-0.17611,-3.29049c0.16886,-0.98775 0.33772,-1.9755 0.50659,-2.96326c1.1339,-7.27497 -2.0699,-13.93315 -3.19393,-21.02914c-0.58151,-3.67103 0.45851,-7.27909 1.263,-10.97707c1.19096,-5.47445 2.52219,-10.97739 5.11018,-16.37477c1.23308,-2.57166 3.87296,-6.33872 2.41426,-9.0212c-1.48359,-2.72824 -5.40617,-4.90108 -6.69832,-7.66373c-0.70815,-1.51405 -0.34739,-3.15704 -0.52108,-4.73556c0,0 -0.27902,-4.7418 8.75228,-5.27323c9.0313,-0.53142 9.31032,4.21038 9.31032,4.21038c-0.1843,5.27514 7.34417,9.17651 7.22223,14.81658c-0.11438,5.28982 -4.04361,9.9043 -5.656,15.1246c-1.48273,4.80051 -3.04079,10.85579 -3.33987,15.87059c-0.50563,8.47833 4.60971,16.46378 3.34039,25.10885c-0.14922,0.81182 -0.29845,1.62364 -0.44767,2.43545l0.17632,2.69914c0,0 0.27902,4.7418 -8.75228,5.27323c-9.0313,0.53142 -9.31032,-4.21038 -9.31032,-4.21038z" fill="#39940f"/><path d="M339.88203,219.86582l0.46246,-2.16513c0.26714,-1.99748 0.36703,-3.99728 0.25022,-5.98244c-0.83506,-3.29825 -1.84926,-8.31478 -3.60446,-11.56653c-2.7532,-5.10068 -6.05591,-9.12472 -6.84423,-14.59885c-0.86136,-5.98132 1.72245,-11.67584 2.15755,-17.66327c0.73011,-10.04733 -4.23914,-18.5775 -8.48701,-27.94812c0,0 -2.04478,-4.54549 6.75641,-5.99654c8.80121,-1.45105 10.84599,3.09445 10.84599,3.09445c1.59487,3.57709 4.36201,6.89054 5.75898,10.49945c2.45951,6.35385 3.65271,13.3682 3.18236,19.96288c-0.40273,5.64631 -2.92833,11.03434 -2.18303,16.65095c0.64306,4.84609 3.79127,8.12911 6.20846,12.68153c2.2362,4.21156 3.12861,8.99985 4.22138,13.35013c0.14459,2.45717 0.08001,4.93012 -0.23412,7.40246l-0.53097,2.56807c0,0 -1.00101,4.76929 -9.98099,4.62479c-8.98,-0.1445 -7.97899,-4.91381 -7.97899,-4.91381z" fill="#28670a"/><path d="M299.34573,224.02332l-2.11502,-3.31226c-0.05964,-1.07722 -0.11927,-2.15445 -0.17891,-3.23169c1.13466,-8.92611 5.52244,-17.93791 5.41452,-26.85323c-0.0889,-7.3437 -1.14195,-9.56073 -0.28523,-16.49757c0.80683,-6.53311 3.46644,-13.09257 3.88581,-19.64692c0.30844,-4.82074 -0.98016,-9.49688 -0.15186,-14.34234c0,0 0.84333,-4.77109 9.8395,-4.71026c8.99617,0.06082 8.15284,4.83192 8.15284,4.83192c-0.84833,4.61039 0.51577,9.08931 0.22533,13.6839c-0.42649,6.7468 -3.10481,13.49181 -3.94414,20.21517c-0.72764,5.82874 0.29818,9.78987 0.34651,15.8545c0.07127,8.94568 -4.21933,17.93216 -5.41529,26.87569c0.05784,0.91932 0.1157,1.83863 0.17354,2.75795l0.61588,-0.13384c0,0 3.6132,4.20528 -4.66853,6.45976c-8.28174,2.25447 -11.89493,-1.95082 -11.89493,-1.95082z" fill="#448f21"/><path d="M350.91819,225.2319l-0.01958,-0.33276c-0.76265,-12.96081 -1.67925,-25.81515 -4.76249,-38.60678c-1.34701,-5.58843 -4.66739,-10.97362 -5.46927,-16.62489c-1.45226,-10.23468 -1.93742,-20.46148 -4.32296,-30.63159c0,0 -1.09552,-4.67421 7.87342,-5.63276c8.96895,-0.95855 10.06446,3.71567 10.06446,3.71567c2.40749,10.27981 2.98848,20.61089 4.38916,30.96301c0.74175,5.4821 4.04726,10.70727 5.3616,16.12879c3.18255,13.1277 4.14588,26.32257 4.92866,39.6257l0.01958,0.33276c0,0 0.27902,4.7418 -8.75228,5.27323c-9.0313,0.53142 -9.31032,-4.21038 -9.31032,-4.21038z" fill="#275313"/></g></g><g stroke="#000000" stroke-width="3.5"><path d="M363.88006,175.52082l2.49738,6.80908l-7.74354,-1.95221z" fill="#000000" stroke-linecap="round"/><path d="M334.37209,122.18306c-1.26547,-0.8538 -2.08392,-2.27532 -2.08617,-3.92943c-0.00253,-1.86553 1.03377,-3.5574 2.58064,-4.53267c1.29318,-2.27135 7.39947,-0.63648 9.22089,0.04747c6.65261,2.49814 13.16496,10.44303 15.86806,16.76689c8.47773,19.83352 -6.44236,42.79949 -1.92777,63.06943c2.52142,11.32081 11.36161,20.41395 14.22057,31.71888c0.93429,3.69443 1.18835,10.90143 -4.96791,11.26368c-1.7644,0.10382 -3.34998,-1.13704 -4.59924,-2.271c-0.98455,-0.89367 -0.61347,-5.20366 -0.66467,-5.95825c-0.24002,-3.53739 -2.6504,-7.20142 -4.17459,-10.22851c-3.39929,-6.75106 -9.17755,-14.72584 -10.22412,-22.46384c-2.71337,-20.06199 6.42906,-40.24831 2.78119,-60.18272c-0.68819,-3.76068 -6.94994,-10.22753 -9.66526,-11.83845c-1.0417,-0.61799 -2.1225,-0.5941 -3.21308,-0.61573c-0.48028,0.02613 -0.94542,-0.011 -1.38719,-0.10396c-0.40597,-0.06801 -0.81158,-0.18237 -1.21533,-0.37826c-0.20364,-0.0988 -0.38413,-0.22156 -0.54603,-0.36353z" fill="#9efd71" stroke-linecap="butt"/><path d="M359.45105,109.32316c0.4404,-2.39855 2.58313,-4.3242 5.16255,-4.47597c1.50854,-0.08876 2.86937,0.44667 3.82868,1.37589c0.16525,0.16007 0.31858,0.33182 0.4587,0.51407c2.1254,1.67107 4.56097,3.08765 6.82826,4.58162c0.04101,0.02703 0.05797,0.08002 0.0984,0.1078c19.83207,13.63034 16.97821,43.24454 15.91088,64.57817c-0.08979,1.79464 -0.40588,3.58778 -0.48094,5.3822c-0.09876,2.36107 -0.08256,4.72107 0.0096,7.0714c0.1009,2.57332 3.91304,6.34085 2.76689,9.00448c-1.94469,4.51947 -3.97557,5.42557 -8.52967,3.80568c-4.33632,-1.54243 -4.76331,-17.59361 -4.7518,-19.51696c0.01075,-1.79678 0.52305,-4.19093 0.54528,-5.6364c0.16932,-11.01473 1.35085,-26.89754 -1.09775,-38.89478c-1.16102,-5.68857 -3.45751,-11.67226 -8.0341,-15.39938c-3.42839,-2.79201 -13.10535,-6.01296 -12.83098,-11.8641c0.01043,-0.22216 0.05049,-0.43287 0.116,-0.63373z" fill="#9efd71" stroke-linecap="butt"/><path d="M341.683,116.36299c-0.00382,-2.80718 2.34465,-5.22122 5.24543,-5.39191c0.45469,-0.02675 0.89596,0.0032 1.31686,0.08355c1.11116,-0.35876 2.93138,1.68608 3.63153,2.38582c3.29161,3.28969 5.91386,6.46329 8.58429,10.26225c13.38121,19.03618 4.42491,41.66236 5.09324,63.26076c0.10762,3.47819 0.75668,7.54713 2.11509,10.73031c0.40649,0.95253 2.18096,2.78484 2.18181,3.41683c0.00232,1.70747 -0.14006,3.74308 -1.38603,5.02387c-7.84988,8.06907 -11.72104,-7.50988 -12.47422,-11.22737c-0.24186,-1.19377 -0.50249,-2.49188 -0.63839,-3.7096c-1.99577,-17.88477 5.19823,-35.69453 0.33332,-53.49304c-1.64747,-6.02734 -6.07704,-11.25585 -10.28958,-15.63033c-0.83889,-0.87115 -4.88503,-4.17506 -3.71335,-5.71112z" fill="#67dc31" stroke-linecap="butt"/><path d="M389.1915,164.62764c0.75918,0.83645 1.21662,1.94263 1.2183,3.17867c0.00253,1.86553 -1.03377,3.55741 -2.58065,4.53267c-0.50021,0.87856 -1.84499,0.96851 -3.0203,0.8687c-0.53377,-0.04533 -1.03259,-0.12981 -1.40147,-0.19732c-4.12097,-0.75426 -5.04776,-5.94652 -5.65768,-9.56023c-0.85762,-5.08128 -1.7966,-11.94864 -3.22122,-16.87872c-1.76121,-6.09491 -4.95486,-11.5909 -6.87376,-17.63159c-3.42055,-10.76787 -2.58178,-14.07068 -10.55972,-23.27568c-2.14754,-2.47785 -4.84363,-5.90361 -0.62071,-9.22035c4.75935,-3.73805 7.57604,0.92664 9.90447,3.53402c6.91436,7.74277 8.86114,15.70307 11.38907,25.61131c0.94964,3.72214 2.62454,6.4083 3.99843,9.98151c2.11033,5.4885 3.68859,11.20361 4.92097,16.98252c0.98368,4.61262 1.26949,8.19994 2.50428,12.07447z" fill="#67dc31" stroke-linecap="butt"/><path d="M363.09958,94.7511c1.24975,0.85578 2.05633,2.2686 2.05856,3.91064c0.00006,0.04475 -0.00049,0.08941 -0.00161,0.13396c0.14133,0.60358 -0.00732,1.17332 -0.34281,1.70683c-0.75394,1.95254 -2.6631,3.41944 -4.90101,3.55112c-1.93919,1.053 -4.7332,-2.34057 -6.06042,-2.94943c-4.68603,-2.14971 -10.30072,-4.64213 -15.81286,-4.32477c-6.23103,0.35877 -13.50967,1.93181 -19.18171,5.10191c-1.32534,0.74073 -3.29973,2.94325 -5.11009,3.29019c-2.78751,0.53421 -5.29151,1.01976 -6.64809,-2.82374c-2.2531,-6.38349 9.49851,-10.53058 13.81128,-12.05827c12.11693,-4.29213 25.01439,-5.0784 36.15107,0.7393c2.50519,1.30869 4.56098,2.18766 6.03768,3.72226z" fill="#67dc31" stroke-linecap="butt"/><path d="M360.47774,102.73878c0.85125,0.85309 1.37113,2.0233 1.37292,3.34114c0.00006,0.04475 -0.00049,0.08941 -0.00161,0.13396c0.08858,0.37832 0.06324,0.74335 -0.05061,1.09449c6.23496,7.05925 15.10957,17.76464 14.44382,26.20904c-0.49168,6.23638 -0.35573,12.55243 -1.81395,18.70063c-1.49436,6.30061 -4.4546,12.80676 -3.91857,19.34092c0.71229,8.68275 5.57704,17.29321 8.35265,25.33574c2.87987,8.34462 5.33995,16.97362 8.58678,25.12658c1.06686,2.67895 0.77665,5.95639 -3.03562,7.4111c-7.23321,2.76009 -10.09011,-12.53062 -11.4037,-16.56766c-0.53717,-1.6509 -1.09473,-3.29446 -1.65001,-4.93881c-0.81181,-2.40403 -1.57642,-4.82625 -2.45121,-7.20626c-3.24814,-8.83705 -8.64043,-18.49552 -8.90307,-28.18137c-0.35466,-13.07947 5.98031,-25.00037 5.68096,-38.31617c-0.22175,-9.86399 -10.86016,-17.07895 -15.97578,-24.05116c-0.47232,-0.64373 -0.74803,-1.43914 -0.8248,-2.27951c-0.01774,-0.16784 -0.02693,-0.33865 -0.02716,-0.51199c-0.00047,-0.34818 0.03524,-0.69033 0.10371,-1.02287c0.00468,-0.02464 0.00952,-0.04929 0.01452,-0.07391c-3.43536,-1.6292 -8.60027,-2.36434 -11.89234,-2.22348c-4.7971,0.20525 -9.56061,-0.05779 -14.19416,1.36506c-2.83569,0.87078 -6.71698,5.61621 -9.83006,3.79257c-1.46935,-0.86075 -2.81185,-2.39386 -2.94192,-4.08933c-0.49819,-6.49412 10.14644,-9.86397 15.17831,-10.46327c10.30336,-1.22714 29.19291,-2.11291 35.18089,8.07457z" fill="#4cc513" stroke-linecap="butt"/><path d="M377.49844,130.75537c1.38079,0.18595 1.97501,3.57731 2.24914,4.79119c1.43672,6.36206 1.60468,12.92566 1.7958,19.51808c0.21081,7.27211 -0.74874,14.55384 -0.52099,21.76464c0.27325,8.65164 5.50808,16.57651 5.56335,25.17959c0.04411,6.86417 0.21337,13.72373 0.02795,20.59891c-0.07232,2.68112 -1.83826,5.19142 -5.24544,5.39192c-3.40992,0.20065 -5.17825,-2.1017 -5.25922,-4.77379c-0.20341,-6.71203 0.04627,-13.45623 -0.02737,-20.17822c-0.08592,-7.84326 -4.2095,-15.95029 -5.40459,-23.751c-1.04766,-6.83838 0.37106,-16.9702 0.36267,-23.43486c-0.00649,-5.00946 -0.21627,-10.76355 -1.12554,-15.72082c-0.34207,-1.86496 -1.42245,-4.13554 -1.05213,-6.04893c0.04273,-0.22075 0.1133,-0.42708 0.20743,-0.62119c0.81959,-1.69024 3.42481,-2.45451 4.97747,-3.7625z" fill="#7ade4c" stroke-linecap="butt"/><path d="M336.80038,123.05942c-1.21883,0.85882 -5.86785,-1.5134 -7.57397,-1.41529c-1.65055,0.0949 -3.30114,0.18841 -4.95167,0.29137c-2.45426,0.15309 -3.34037,2.84915 -6.37316,2.81454c-3.50626,-0.04001 -5.50116,-4.61873 -4.12139,-7.71403c1.19115,-2.6722 4.20901,-3.09621 6.47863,-4.20202c4.42501,-2.15595 12.11585,-2.41114 17.06868,0.11437c2.09115,1.06631 3.6942,2.62829 4.3573,4.75222z" fill="#9efd71" stroke-linecap="butt"/><path d="M349.75276,110.98203c1.30588,0.84804 2.15509,2.29161 2.15737,3.97654c0.00006,0.04475 -0.00049,0.08941 -0.00161,0.13396c0.14133,0.60358 -0.00732,1.17332 -0.34281,1.70684c-0.75394,1.95254 -2.66311,3.41944 -4.90103,3.55112c-1.23687,0.67163 -2.2321,0.06832 -3.07949,-0.7828c-0.73184,-0.46957 -1.32205,-1.12535 -1.70282,-1.90569c-0.16491,-0.15617 -0.32528,-0.28123 -0.48242,-0.36038c-2.547,-1.28307 -6.00176,-3.20908 -9.06399,-3.4291c-3.33945,-0.23994 -7.41827,-0.04824 -10.60914,0.18673c-2.09258,0.15409 -2.88507,3.89653 -6.04727,3.06291c-1.67458,-0.44146 -3.61692,-1.10148 -4.40806,-2.58226c-2.85142,-5.33703 4.98061,-9.43725 9.10723,-10.56784c8.11973,-2.2246 23.43551,0.14667 29.37402,7.00998z" fill="#67dc31" stroke-linecap="butt"/></g><g stroke="#000000" stroke-width="3.5"><path d="M274.74863,174.42194l-7.6599,2.55105l2.23653,-6.59236z" fill="#000000" stroke-linecap="round"/><path d="M296.24586,118.19589c-0.39582,0.22086 -0.7966,0.36579 -1.19947,0.46747c-0.43771,0.12835 -0.90084,0.20677 -1.3815,0.22754c-1.08839,0.12278 -2.16875,0.2021 -3.18574,0.87711c-2.65093,1.75946 -8.66004,8.38635 -9.20504,11.96234c-2.88885,18.95537 7.00604,36.94296 5.05533,55.92955c-0.75239,7.32322 -6.22155,15.31255 -9.36106,21.93556c-1.40771,2.96967 -3.67639,6.61741 -3.78223,9.94276c-0.02258,0.70935 0.51114,4.69859 -0.43833,5.62559c-1.20476,1.17625 -2.74138,2.48395 -4.50749,2.55295c-6.16224,0.24081 -6.18124,-6.51209 -5.38793,-10.04936c2.42752,-10.82402 10.91243,-20.14554 13.00221,-30.95266c3.74178,-19.35016 -12.02865,-39.38961 -4.31223,-58.70506c2.46037,-6.15867 8.66382,-14.18915 15.21349,-17.14731c1.79323,-0.80992 7.82997,-2.91067 9.20747,-0.9116c1.58182,0.76508 2.68087,2.24729 2.74893,3.98932c0.06036,1.5446 -0.70327,2.94884 -1.93483,3.86502c-0.15633,0.14779 -0.33193,0.27938 -0.53157,0.39078z" fill="#9efd71" stroke-linecap="butt"/><path d="M271.38325,108.73773c0.49547,5.43728 -9.0474,9.35475 -12.36579,12.28404c-4.42977,3.91036 -6.4969,9.71318 -7.44118,15.13367c-1.99148,11.43184 -0.21033,26.15012 0.37564,36.41836c0.07689,1.3475 0.67915,3.5347 0.75791,5.2113c0.08428,1.79471 0.26529,16.82145 -4.00719,18.66943c-4.48708,1.9408 -6.54966,1.28579 -8.66295,-2.75102c-1.2455,-2.37916 2.41924,-6.25536 2.42262,-8.6675c0.00309,-2.20311 -0.07005,-4.40811 -0.25804,-6.6033c-0.14288,-1.66834 -0.52642,-3.31284 -0.68401,-4.98001c-1.87337,-19.81831 -5.84439,-47.19992 13.4468,-61.79154c0.03933,-0.02975 0.05426,-0.08083 0.09421,-0.1099c2.20787,-1.60813 4.58677,-3.15984 6.64625,-4.91998c0.13305,-0.18335 0.27969,-0.35814 0.43867,-0.52312c0.92293,-0.95782 2.2618,-1.58574 3.77179,-1.64475c2.58192,-0.1009 4.79481,1.49548 5.32544,3.69354c0.07303,0.18138 0.12102,0.37434 0.13984,0.58078z" fill="#9efd71" stroke-linecap="butt"/><path d="M285.76293,118.74028c-4.04168,4.48057 -8.26779,9.77892 -9.68506,15.56145c-4.18517,17.07561 3.67376,33.0275 2.35738,49.91377c-0.08963,1.14975 -0.3008,2.38627 -0.49719,3.52361c-0.61154,3.54178 -3.88822,18.45156 -12.03357,11.65598c-1.29289,-1.07864 -1.51211,-2.96586 -1.57442,-4.56029c-0.02306,-0.59017 1.67981,-2.46783 2.04975,-3.39543c1.23623,-3.0998 1.73046,-6.95994 1.70632,-10.21757c-0.14994,-20.22877 -9.95124,-40.51188 2.69267,-59.54407c2.52328,-3.79816 5.02212,-7.00789 8.18508,-10.38901c0.67278,-0.71918 2.41332,-2.79961 3.53666,-2.56912c0.41734,-0.11459 0.85691,-0.18408 1.31203,-0.20186c2.90358,-0.11346 5.34044,1.91957 5.44287,4.54093c1.22834,1.32397 -2.68766,4.78931 -3.49254,5.6816z" fill="#67dc31" stroke-linecap="butt"/><path d="M245.67766,151.08146c1.01213,-5.51154 2.37211,-10.99604 4.27205,-16.31902c1.23693,-3.46543 2.80806,-6.13098 3.61564,-9.69556c2.14977,-9.48885 3.79281,-17.1043 10.40543,-24.98386c2.22682,-2.65345 4.86343,-7.27369 9.75824,-4.2312c4.3431,2.69957 1.78007,6.15171 -0.27099,8.66719c-7.61951,9.34485 -6.65679,12.34971 -9.66551,22.72512c-1.68787,5.82051 -4.6695,11.25238 -6.19782,17.10869c-1.23624,4.73707 -1.91414,11.2373 -2.57837,16.06222c-0.47239,3.4314 -1.2015,8.36645 -5.28873,9.45829c-0.36587,0.09773 -0.86085,0.22353 -1.39224,0.31605c-1.17006,0.20375 -2.51655,0.24623 -3.04937,-0.52699c-1.58183,-0.76508 -2.68088,-2.24729 -2.74894,-3.98932c-0.0451,-1.15422 0.36991,-2.23006 1.09645,-3.08245c1.08658,-3.73368 1.23628,-7.10996 2.04415,-11.50918z" fill="#67dc31" stroke-linecap="butt"/><path d="M272.9372,90.85128c10.90247,-6.47931 23.81343,-6.95826 36.07751,-4.09045c4.36515,1.02073 16.25889,3.78746 14.25021,9.95948c-1.20942,3.71618 -3.72863,3.49834 -6.53285,3.26176c-1.82122,-0.15365 -3.87648,-2.02441 -5.22818,-2.59135c-5.78487,-2.42635 -13.11385,-3.21049 -19.35061,-2.95938c-5.51719,0.22211 -11.03047,3.07732 -15.62925,5.52521c-1.3025,0.69332 -3.96454,4.1246 -5.94114,3.32383c-2.24006,0.08753 -4.20234,-1.10249 -5.02923,-2.85463c-0.35526,-0.46657 -0.52527,-0.98455 -0.40698,-1.56138c-0.00281,-0.04149 -0.00505,-0.08313 -0.00669,-0.12493c-0.05992,-1.53334 0.69219,-2.92833 1.90796,-3.84489c1.41676,-1.57171 3.43669,-2.58574 5.8892,-4.04325z" fill="#67dc31" stroke-linecap="butt"/><path d="M304.79976,91.25788c5.0482,0.08627 15.80695,2.23144 15.55517,8.34169c-0.06574,1.59524 -1.34853,3.15296 -2.78345,4.09481c-3.04013,1.99548 -7.09614,-2.07014 -9.96119,-2.61646c-4.68155,-0.89267 -9.42909,-0.19904 -14.22791,0.06052c-3.29326,0.17813 -8.42383,1.35031 -11.79319,3.19455c0.00593,0.02252 0.01169,0.04507 0.01729,0.06764c0.08096,0.30408 0.12958,0.62016 0.14229,0.94529c0.00633,0.16188 0.0036,0.3222 -0.00776,0.48059c-0.04487,0.79186 -0.29013,1.56044 -0.73748,2.2059c-4.84529,6.99094 -15.19723,14.72797 -15.0454,23.95858c0.20497,12.4608 6.98311,22.99521 7.12389,35.24054c0.10426,9.06814 -4.91569,18.5932 -7.82528,27.14963c-0.78361,2.30445 -1.45559,4.63792 -2.1754,6.95886c-0.49233,1.5875 -0.98701,3.1745 -1.461,4.76642c-1.15914,3.89284 -3.43376,18.43812 -10.7623,16.5414c-3.86252,-0.99965 -4.27639,-4.03243 -3.31226,-6.63405c2.93418,-7.91761 5.06458,-16.20567 7.62501,-24.26771c2.46774,-7.77018 7.00048,-16.26712 7.38327,-24.44098c0.28807,-6.15122 -2.91466,-11.94743 -4.64559,-17.68959c-1.68905,-5.60326 -1.79231,-11.51317 -2.51938,-17.28969c-0.9845,-7.82173 7.47375,-18.65177 13.43369,-25.82926c-0.12701,-0.31715 -0.16613,-0.65557 -0.09197,-1.01714c-0.00281,-0.04149 -0.00505,-0.08313 -0.00669,-0.12493c-0.04809,-1.23061 0.42685,-2.3721 1.24474,-3.24867c5.59489,-10.07499 24.49413,-11.02463 34.83093,-10.84797z" fill="#4cc513" stroke-linecap="butt"/><path d="M257.43739,128.56295c1.60019,1.07521 4.23106,1.54375 5.11358,3.0448c0.10135,0.17237 0.17966,0.35838 0.23068,0.56047c0.44226,1.75167 -0.55082,3.97325 -0.82189,5.74669c-0.7205,4.714 -0.71225,10.1062 -0.52915,14.78402c0.2363,6.03668 2.03666,15.36307 1.24914,21.84643c-0.89835,7.39575 -4.70992,15.35292 -4.4989,22.68405c0.18085,6.2831 0.68546,12.5565 0.73632,18.8425c0.02025,2.50248 -1.65872,4.81844 -5.07192,4.95182c-3.41046,0.13328 -5.2692,-2.04444 -5.44288,-4.54093c-0.4454,-6.40175 -0.53594,-12.82226 -0.75168,-19.23532c-0.27038,-8.03768 4.65792,-15.92931 4.60341,-24.03283c-0.04543,-6.75397 -1.27935,-13.46248 -1.34402,-20.2721c-0.05862,-6.17316 -0.13928,-12.31722 1.05485,-18.39244c0.22786,-1.15915 0.69297,-4.38148 2.06499,-4.68497z" fill="#7ade4c" stroke-linecap="butt"/><path d="M289.30428,114.30773c0.58189,-2.04543 2.12381,-3.6546 4.17196,-4.84686c4.85101,-2.82386 12.54181,-3.30895 17.04282,-1.71218c2.3086,0.81898 5.33868,0.93103 6.62947,3.31397c1.49517,2.76024 -0.32393,7.22291 -3.82424,7.59005c-3.02765,0.31757 -4.01468,-2.11635 -6.47165,-2.02844c-1.65234,0.05912 -3.30439,0.12705 -4.95645,0.19369c-1.70767,0.06888 -6.26103,2.72101 -7.51084,2.0338z" fill="#9efd71" stroke-linecap="butt"/><path d="M310.06393,99.4858c4.16421,0.66747 12.14153,3.7591 9.49571,9.01036c-0.7341,1.45696 -2.649,2.2559 -4.30477,2.82558c-3.12666,1.07576 -4.05977,-2.34392 -6.15555,-2.29098c-3.19574,0.08073 -7.27667,0.28538 -10.60283,0.82349c-3.05003,0.49343 -6.42756,2.61665 -8.92279,4.05418c-0.15394,0.08868 -0.30936,0.22053 -0.46817,0.38185c-0.35075,0.76441 -0.91541,1.43219 -1.62854,1.93946c-0.81411,0.87438 -1.78526,1.53128 -3.046,1.02053c-2.24006,0.08753 -4.20234,-1.10249 -5.02923,-2.85463c-0.35526,-0.46657 -0.52527,-0.98455 -0.40698,-1.56138c-0.00281,-0.04149 -0.00505,-0.08313 -0.00669,-0.12493c-0.06149,-1.57339 0.73201,-3.00109 2.00416,-3.91572c5.67128,-6.96665 20.87801,-10.62117 29.07168,-9.30783z" fill="#67dc31" stroke-linecap="butt"/></g><path d="M214.78369,306.61252v-267.72501c0,0 153.66918,0 187.45214,0c12.51617,0 25.72989,0 25.72989,0v267.72501z" fill="none" stroke="none" stroke-width="0" stroke-linecap="butt"/><path d="M286.35186,319.07226l15.14285,-131.8421l37.78325,-0.15789l13.57389,132z" fill="#4cc114" stroke="#000000" stroke-width="0" stroke-linecap="butt"/><path d="M295.01902,243.61117l6.47569,-56.38101l37.78325,-0.15789l5.87786,57.15951z" fill="url(#color-1)" stroke="#000000" stroke-width="0" stroke-linecap="butt"/><path d="M286.35186,319.07226l15.14285,-131.8421l37.78325,-0.15789l13.57389,132z" fill="none" stroke="#000000" stroke-width="2" stroke-linecap="butt"/><path d="M248.00386,156.64764c-1.95618,-33.24434 25.16827,-61.88359 60.58413,-63.96754c35.41587,-2.08395 65.71189,23.17653 67.66807,56.42089c1.95618,33.24434 -25.16826,61.88359 -60.58413,63.96755c-35.41586,2.08395 -65.71189,-23.17654 -67.66807,-56.4209z" fill="#4cc114" stroke="#000000" stroke-width="2" stroke-linecap="butt"/><path d="M261.62363,156.12232c-0.76175,-12.94562 9.11523,-24.05763 22.06085,-24.81938c12.94562,-0.76175 24.05763,9.11522 24.81938,22.06084c0.76175,12.94562 -9.11522,24.05764 -22.06083,24.81939c-12.94562,0.76175 -24.05764,-9.11523 -24.81939,-22.06084z" fill="#ffffff" stroke="#000000" stroke-width="2" stroke-linecap="butt"/><path d="M264.54707,156.95301c-0.48752,-8.28531 5.83382,-15.39711 14.11914,-15.88464c8.28531,-0.48752 15.39711,5.83383 15.88464,14.11916c0.48752,8.28531 -5.83383,15.39712 -14.11915,15.88465c-8.28531,0.48752 -15.3971,-5.83383 -15.88463,-14.11916z" fill="#000000" stroke="#000000" stroke-width="5" stroke-linecap="butt"/><path d="" fill="none" stroke="#000000" stroke-width="2" stroke-linecap="round"/><path d="M340.60779,174.99601c-12.94562,0.76175 -24.05763,-9.11523 -24.81938,-22.06085c-0.76175,-12.94562 9.11522,-24.05763 22.06084,-24.81938c12.94562,-0.76175 24.05764,9.11522 24.81939,22.06083c0.76175,12.94562 -9.11523,24.05764 -22.06084,24.81939z" fill="#ffffff" stroke="#000000" stroke-width="2" stroke-linecap="butt"/><path d="M348.23122,151.02909c0.48752,8.28533 -5.83382,15.39712 -14.11914,15.88465c-8.28531,0.48752 -15.39711,-5.83385 -15.88464,-14.11916c-0.48752,-8.28533 5.83384,-15.39712 14.11915,-15.88465c8.28531,-0.48752 15.3971,5.83384 15.88463,14.11915z" fill="#000000" stroke="#000000" stroke-width="5" stroke-linecap="butt"/><path d="M269.7434,128.69946c0,0 7.32785,-4.24658 12.52867,-4.76461c5.20082,-0.51802 12.13647,2.30782 12.13647,2.30782c0,0 -7.96107,-1.11191 -11.9775,-0.71185c-4.19732,0.41809 -12.68764,3.16864 -12.68764,3.16864z" fill="#000000" stroke="none" stroke-width="0" stroke-linecap="butt"/><path d="M335.58929,122.65367c-4.03556,0.07769 -11.80928,2.12321 -11.80928,2.12321c0,0 6.55282,-3.62618 11.7784,-3.72679c5.22558,-0.10061 13.00418,3.24964 13.00418,3.24964c0,0 -8.75601,-1.72724 -12.97332,-1.64606z" fill="#000000" stroke="none" stroke-width="0" stroke-linecap="butt"/><path d="M261.62363,156.12232c-0.76175,-12.94562 9.11523,-24.05763 22.06085,-24.81938c12.94562,-0.76175 24.05763,9.11522 24.81938,22.06084c0.00334,0.05686 -46.87765,2.80224 -46.88022,2.75854z" fill="#4cc114" stroke="#000000" stroke-width="2" stroke-linecap="butt"/><path d="M315.78841,152.93517c-0.76175,-12.94562 9.11522,-24.05763 22.06084,-24.81938c12.94562,-0.76175 24.05764,9.11522 24.81939,22.06083c0.00521,0.08867 -46.87348,2.87311 -46.88022,2.75854z" fill="#4cc114" stroke="#000000" stroke-width="2" stroke-linecap="butt"/><path d="M358.7996,164.87831l2.62793,6.35661l-7.12008,-1.83493z" fill="#000000" stroke="#000000" stroke-width="0.5" stroke-linecap="round"/><path d="M330.29063,195.35557c0,0 -10.38311,2.28052 -15.37674,2.53262c-4.99398,0.25211 -14.58614,-1.01997 -14.58614,-1.01997" fill="none" stroke="#000000" stroke-width="2" stroke-linecap="round"/><g stroke-width="0.5"><path d="M274.74863,174.42194l-7.6599,2.55105l2.23653,-6.59236z" fill="#000000" stroke="#000000" stroke-linecap="round"/><path d="M296.24586,118.19589c-0.39582,0.22086 -0.7966,0.36579 -1.19947,0.46747c-0.43771,0.12835 -0.90084,0.20677 -1.3815,0.22754c-1.08839,0.12278 -2.16875,0.2021 -3.18574,0.87711c-2.65093,1.75946 -8.66004,8.38635 -9.20504,11.96234c-2.88885,18.95537 7.00604,36.94296 5.05533,55.92955c-0.75239,7.32322 -6.22155,15.31255 -9.36106,21.93556c-1.40771,2.96967 -3.67639,6.61741 -3.78223,9.94276c-0.02258,0.70935 0.51114,4.69859 -0.43833,5.62559c-1.20476,1.17625 -2.74138,2.48395 -4.50749,2.55295c-6.16224,0.24081 -6.18124,-6.51209 -5.38793,-10.04936c2.42752,-10.82402 10.91243,-20.14554 13.00221,-30.95266c3.74178,-19.35016 -12.02865,-39.38961 -4.31223,-58.70506c2.46037,-6.15867 8.66382,-14.18915 15.21349,-17.14731c1.79323,-0.80992 7.82997,-2.91067 9.20747,-0.9116c1.58182,0.76508 2.68087,2.24729 2.74893,3.98932c0.06036,1.5446 -0.70327,2.94884 -1.93483,3.86502c-0.15633,0.14779 -0.33193,0.27938 -0.53157,0.39078z" fill="#9efd71" stroke="none" stroke-linecap="butt"/><path d="M271.38325,108.73773c0.49547,5.43728 -9.0474,9.35475 -12.36579,12.28404c-4.42977,3.91036 -6.4969,9.71318 -7.44118,15.13367c-1.99148,11.43184 -0.21033,26.15012 0.37564,36.41836c0.07689,1.3475 0.67915,3.5347 0.75791,5.2113c0.08428,1.79471 0.26529,16.82145 -4.00719,18.66943c-4.48708,1.9408 -6.54966,1.28579 -8.66295,-2.75102c-1.2455,-2.37916 2.41924,-6.25536 2.42262,-8.6675c0.00309,-2.20311 -0.07005,-4.40811 -0.25804,-6.6033c-0.14288,-1.66834 -0.52642,-3.31284 -0.68401,-4.98001c-1.87337,-19.81831 -5.84439,-47.19992 13.4468,-61.79154c0.03933,-0.02975 0.05426,-0.08083 0.09421,-0.1099c2.20787,-1.60813 4.58677,-3.15984 6.64625,-4.91998c0.13305,-0.18335 0.27969,-0.35814 0.43867,-0.52312c0.92293,-0.95782 2.2618,-1.58574 3.77179,-1.64475c2.58192,-0.1009 4.79481,1.49548 5.32544,3.69354c0.07303,0.18138 0.12102,0.37434 0.13984,0.58078z" fill="#9efd71" stroke="none" stroke-linecap="butt"/><path d="M285.76293,118.74028c-4.04168,4.48057 -8.26779,9.77892 -9.68506,15.56145c-4.18517,17.07561 3.67376,33.0275 2.35738,49.91377c-0.08963,1.14975 -0.3008,2.38627 -0.49719,3.52361c-0.61154,3.54178 -3.88822,18.45156 -12.03357,11.65598c-1.29289,-1.07864 -1.51211,-2.96586 -1.57442,-4.56029c-0.02306,-0.59017 1.67981,-2.46783 2.04975,-3.39543c1.23623,-3.0998 1.73046,-6.95994 1.70632,-10.21757c-0.14994,-20.22877 -9.95124,-40.51188 2.69267,-59.54407c2.52328,-3.79816 5.02212,-7.00789 8.18508,-10.38901c0.67278,-0.71918 2.41332,-2.79961 3.53666,-2.56912c0.41734,-0.11459 0.85691,-0.18408 1.31203,-0.20186c2.90358,-0.11346 5.34044,1.91957 5.44287,4.54093c1.22834,1.32397 -2.68766,4.78931 -3.49254,5.6816z" fill="#67dc31" stroke="none" stroke-linecap="butt"/><path d="M245.67766,151.08146c1.01213,-5.51154 2.37211,-10.99604 4.27205,-16.31902c1.23693,-3.46543 2.80806,-6.13098 3.61564,-9.69556c2.14977,-9.48885 3.79281,-17.1043 10.40543,-24.98386c2.22682,-2.65345 4.86343,-7.27369 9.75824,-4.2312c4.3431,2.69957 1.78007,6.15171 -0.27099,8.66719c-7.61951,9.34485 -6.65679,12.34971 -9.66551,22.72512c-1.68787,5.82051 -4.6695,11.25238 -6.19782,17.10869c-1.23624,4.73707 -1.91414,11.2373 -2.57837,16.06222c-0.47239,3.4314 -1.2015,8.36645 -5.28873,9.45829c-0.36587,0.09773 -0.86085,0.22353 -1.39224,0.31605c-1.17006,0.20375 -2.51655,0.24623 -3.04937,-0.52699c-1.58183,-0.76508 -2.68088,-2.24729 -2.74894,-3.98932c-0.0451,-1.15422 0.36991,-2.23006 1.09645,-3.08245c1.08658,-3.73368 1.23628,-7.10996 2.04415,-11.50918z" fill="#67dc31" stroke="none" stroke-linecap="butt"/><path d="M272.9372,90.85128c10.90247,-6.47931 23.81343,-6.95826 36.07751,-4.09045c4.36515,1.02073 16.25889,3.78746 14.25021,9.95948c-1.20942,3.71618 -3.72863,3.49834 -6.53285,3.26176c-1.82122,-0.15365 -3.87648,-2.02441 -5.22818,-2.59135c-5.78487,-2.42635 -13.11385,-3.21049 -19.35061,-2.95938c-5.51719,0.22211 -11.03047,3.07732 -15.62925,5.52521c-1.3025,0.69332 -3.96454,4.1246 -5.94114,3.32383c-2.24006,0.08753 -4.20234,-1.10249 -5.02923,-2.85463c-0.35526,-0.46657 -0.52527,-0.98455 -0.40698,-1.56138c-0.00281,-0.04149 -0.00505,-0.08313 -0.00669,-0.12493c-0.05992,-1.53334 0.69219,-2.92833 1.90796,-3.84489c1.41676,-1.57171 3.43669,-2.58574 5.8892,-4.04325z" fill="#67dc31" stroke="none" stroke-linecap="butt"/><path d="M304.79976,91.25788c5.0482,0.08627 15.80695,2.23144 15.55517,8.34169c-0.06574,1.59524 -1.34853,3.15296 -2.78345,4.09481c-3.04013,1.99548 -7.09614,-2.07014 -9.96119,-2.61646c-4.68155,-0.89267 -9.42909,-0.19904 -14.22791,0.06052c-3.29326,0.17813 -8.42383,1.35031 -11.79319,3.19455c0.00593,0.02252 0.01169,0.04507 0.01729,0.06764c0.08096,0.30408 0.12958,0.62016 0.14229,0.94529c0.00633,0.16188 0.0036,0.3222 -0.00776,0.48059c-0.04487,0.79186 -0.29013,1.56044 -0.73748,2.2059c-4.84529,6.99094 -15.19723,14.72797 -15.0454,23.95858c0.20497,12.4608 6.98311,22.99521 7.12389,35.24054c0.10426,9.06814 -4.91569,18.5932 -7.82528,27.14963c-0.78361,2.30445 -1.45559,4.63792 -2.1754,6.95886c-0.49233,1.5875 -0.98701,3.1745 -1.461,4.76642c-1.15914,3.89284 -3.43376,18.43812 -10.7623,16.5414c-3.86252,-0.99965 -4.27639,-4.03243 -3.31226,-6.63405c2.93418,-7.91761 5.06458,-16.20567 7.62501,-24.26771c2.46774,-7.77018 7.00048,-16.26712 7.38327,-24.44098c0.28807,-6.15122 -2.91466,-11.94743 -4.64559,-17.68959c-1.68905,-5.60326 -1.79231,-11.51317 -2.51938,-17.28969c-0.9845,-7.82173 7.47375,-18.65177 13.43369,-25.82926c-0.12701,-0.31715 -0.16613,-0.65557 -0.09197,-1.01714c-0.00281,-0.04149 -0.00505,-0.08313 -0.00669,-0.12493c-0.04809,-1.23061 0.42685,-2.3721 1.24474,-3.24867c5.59489,-10.07499 24.49413,-11.02463 34.83093,-10.84797z" fill="#4cc513" stroke="none" stroke-linecap="butt"/><path d="M257.43739,128.56295c1.60019,1.07521 4.23106,1.54375 5.11358,3.0448c0.10135,0.17237 0.17966,0.35838 0.23068,0.56047c0.44226,1.75167 -0.55082,3.97325 -0.82189,5.74669c-0.7205,4.714 -0.71225,10.1062 -0.52915,14.78402c0.2363,6.03668 2.03666,15.36307 1.24914,21.84643c-0.89835,7.39575 -4.70992,15.35292 -4.4989,22.68405c0.18085,6.2831 0.68546,12.5565 0.73632,18.8425c0.02025,2.50248 -1.65872,4.81844 -5.07192,4.95182c-3.41046,0.13328 -5.2692,-2.04444 -5.44288,-4.54093c-0.4454,-6.40175 -0.53594,-12.82226 -0.75168,-19.23532c-0.27038,-8.03768 4.65792,-15.92931 4.60341,-24.03283c-0.04543,-6.75397 -1.27935,-13.46248 -1.34402,-20.2721c-0.05862,-6.17316 -0.13928,-12.31722 1.05485,-18.39244c0.22786,-1.15915 0.69297,-4.38148 2.06499,-4.68497z" fill="#7ade4c" stroke="none" stroke-linecap="butt"/><path d="M289.30428,114.30773c0.58189,-2.04543 2.12381,-3.6546 4.17196,-4.84686c4.85101,-2.82386 12.54181,-3.30895 17.04282,-1.71218c2.3086,0.81898 5.33868,0.93103 6.62947,3.31397c1.49517,2.76024 -0.32393,7.22291 -3.82424,7.59005c-3.02765,0.31757 -4.01468,-2.11635 -6.47165,-2.02844c-1.65234,0.05912 -3.30439,0.12705 -4.95645,0.19369c-1.70767,0.06888 -6.26103,2.72101 -7.51084,2.0338z" fill="#9efd71" stroke="none" stroke-linecap="butt"/><path d="M310.06393,99.4858c4.16421,0.66747 12.14153,3.7591 9.49571,9.01036c-0.7341,1.45696 -2.649,2.2559 -4.30477,2.82558c-3.12666,1.07576 -4.05977,-2.34392 -6.15555,-2.29098c-3.19574,0.08073 -7.27667,0.28538 -10.60283,0.82349c-3.05003,0.49343 -6.42756,2.61665 -8.92279,4.05418c-0.15394,0.08868 -0.30936,0.22053 -0.46817,0.38185c-0.35075,0.76441 -0.91541,1.43219 -1.62854,1.93946c-0.81411,0.87438 -1.78526,1.53128 -3.046,1.02053c-2.24006,0.08753 -4.20234,-1.10249 -5.02923,-2.85463c-0.35526,-0.46657 -0.52527,-0.98455 -0.40698,-1.56138c-0.00281,-0.04149 -0.00505,-0.08313 -0.00669,-0.12493c-0.06149,-1.57339 0.73201,-3.00109 2.00416,-3.91572c5.67128,-6.96665 20.87801,-10.62117 29.07168,-9.30783z" fill="#67dc31" stroke="none" stroke-linecap="butt"/></g><g stroke-width="0.5"><path d="M363.88006,175.52082l2.49738,6.80908l-7.74354,-1.95221z" fill="#000000" stroke="#000000" stroke-linecap="round"/><path d="M334.37208,122.18306c-1.26547,-0.8538 -2.08393,-2.27532 -2.08617,-3.92942c-0.00253,-1.86553 1.03377,-3.5574 2.58065,-4.53267c1.29317,-2.27135 7.39947,-0.63648 9.2209,0.04747c6.65261,2.49814 13.16495,10.44302 15.86806,16.76689c8.47772,19.83352 -6.44236,42.79949 -1.92777,63.06943c2.52142,11.32081 11.36161,20.41395 14.22057,31.71888c0.9343,3.69443 1.18835,10.90143 -4.96792,11.26368c-1.7644,0.10382 -3.34998,-1.13704 -4.59924,-2.271c-0.98455,-0.89367 -0.61347,-5.20366 -0.66467,-5.95825c-0.24003,-3.53739 -2.6504,-7.20142 -4.17459,-10.22851c-3.39929,-6.75106 -9.17755,-14.72583 -10.22412,-22.46384c-2.71339,-20.06198 6.42907,-40.24832 2.78119,-60.18273c-0.68819,-3.76068 -6.94993,-10.22752 -9.66526,-11.83845c-1.04171,-0.618 -2.12251,-0.5941 -3.21309,-0.61574c-0.48028,0.02613 -0.94542,-0.01101 -1.38719,-0.10396c-0.40597,-0.06801 -0.81158,-0.18237 -1.21533,-0.37826c-0.20364,-0.0988 -0.38412,-0.22156 -0.54603,-0.36353z" fill="#9efd71" stroke="none" stroke-linecap="butt"/><path d="M359.45105,109.32316c0.4404,-2.39856 2.58312,-4.32419 5.16255,-4.47597c1.50854,-0.08876 2.86938,0.44666 3.82869,1.37589c0.16525,0.16007 0.31858,0.33182 0.4587,0.51407c2.1254,1.67107 4.56097,3.08766 6.82826,4.58162c0.04101,0.02702 0.05797,0.08002 0.09841,0.10781c19.83207,13.63034 16.97821,43.24453 15.91088,64.57816c-0.08979,1.79464 -0.40587,3.58778 -0.48093,5.38221c-0.09876,2.36107 -0.08256,4.72108 0.00959,7.0714c0.1009,2.57332 3.91304,6.34085 2.76689,9.00448c-1.94469,4.51947 -3.97557,5.42557 -8.52968,3.80568c-4.33634,-1.54242 -4.76331,-17.59361 -4.7518,-19.51696c0.01076,-1.79678 0.52305,-4.19093 0.54528,-5.6364c0.16932,-11.01473 1.35086,-26.89755 -1.09774,-38.89479c-1.16102,-5.68857 -3.4575,-11.67226 -8.0341,-15.39937c-3.42839,-2.79202 -13.10535,-6.01296 -12.83098,-11.86409c0.01042,-0.22216 0.05049,-0.43287 0.11599,-0.63373z" fill="#9efd71" stroke="none" stroke-linecap="butt"/><path d="M341.683,116.36299c-0.00381,-2.80718 2.34465,-5.22122 5.24543,-5.39191c0.45469,-0.02675 0.89596,0.0032 1.31686,0.08355c1.11116,-0.35876 2.93138,1.68608 3.63153,2.38582c3.29161,3.2897 5.91386,6.46329 8.58428,10.26224c13.38121,19.03618 4.42492,41.66236 5.09324,63.26076c0.10762,3.47818 0.75668,7.54713 2.11509,10.73031c0.40649,0.95253 2.18096,2.78483 2.18181,3.41683c0.00231,1.70747 -0.14006,3.74308 -1.38604,5.02387c-7.84988,8.06908 -11.72104,-7.50987 -12.47422,-11.22737c-0.24186,-1.19377 -0.50249,-2.49188 -0.63838,-3.7096c-1.99577,-17.88477 5.19823,-35.69453 0.33332,-53.49304c-1.64747,-6.02734 -6.07704,-11.25586 -10.28958,-15.63034c-0.83889,-0.87115 -4.88504,-4.17507 -3.71335,-5.71112z" fill="#67dc31" stroke="none" stroke-linecap="butt"/><path d="M389.1915,164.62764c0.75917,0.83645 1.21662,1.94263 1.2183,3.17867c0.00253,1.86553 -1.03378,3.55742 -2.58065,4.53267c-0.5002,0.87855 -1.84499,0.96851 -3.0203,0.8687c-0.53377,-0.04533 -1.03258,-0.1298 -1.40147,-0.19732c-4.12097,-0.75426 -5.04776,-5.94652 -5.65768,-9.56023c-0.85762,-5.08128 -1.7966,-11.94864 -3.22122,-16.87872c-1.76121,-6.09491 -4.95486,-11.5909 -6.87377,-17.63159c-3.42055,-10.76787 -2.58178,-14.07068 -10.55972,-23.27568c-2.14754,-2.47785 -4.84363,-5.90361 -0.62071,-9.22035c4.75934,-3.73806 7.57604,0.92663 9.90447,3.53402c6.91436,7.74277 8.86113,15.70308 11.38907,25.61132c0.94964,3.72214 2.62455,6.4083 3.99844,9.98151c2.11033,5.4885 3.68858,11.20361 4.92097,16.98252c0.98368,4.61262 1.26949,8.19994 2.50428,12.07447z" fill="#67dc31" stroke="none" stroke-linecap="butt"/><path d="M363.09957,94.7511c1.24975,0.85577 2.05633,2.2686 2.05856,3.91064c0.00006,0.04475 -0.00048,0.08941 -0.00161,0.13396c0.14133,0.60358 -0.00732,1.17332 -0.34281,1.70683c-0.75394,1.95254 -2.66311,3.41944 -4.90102,3.55112c-1.9392,1.05301 -4.73319,-2.34057 -6.06041,-2.94943c-4.68603,-2.14971 -10.30072,-4.64213 -15.81285,-4.32476c-6.23103,0.35877 -13.50967,1.93181 -19.18171,5.10191c-1.32534,0.74072 -3.29973,2.94325 -5.11009,3.29019c-2.78751,0.53421 -5.29151,1.01975 -6.64809,-2.82374c-2.2531,-6.38349 9.49851,-10.53058 13.81128,-12.05827c12.11693,-4.29213 25.0144,-5.0784 36.15108,0.7393c2.50519,1.30869 4.56098,2.18765 6.03768,3.72225z" fill="#67dc31" stroke="none" stroke-linecap="butt"/><path d="M360.47774,102.73878c0.85125,0.85309 1.37114,2.0233 1.37292,3.34114c0.00006,0.04475 -0.00048,0.08941 -0.00161,0.13396c0.08858,0.37832 0.06325,0.74335 -0.05061,1.09449c6.23497,7.05926 15.10956,17.76464 14.44381,26.20905c-0.49168,6.23639 -0.35573,12.55242 -1.81394,18.70062c-1.49436,6.30061 -4.4546,12.80676 -3.91857,19.34093c0.71229,8.68274 5.57705,17.29322 8.35265,25.33574c2.87987,8.34462 5.33995,16.97363 8.58678,25.12659c1.06686,2.67895 0.77665,5.95639 -3.03562,7.41111c-7.23321,2.76009 -10.09011,-12.53062 -11.4037,-16.56766c-0.53717,-1.6509 -1.09473,-3.29446 -1.65001,-4.93881c-0.81181,-2.40403 -1.57642,-4.82624 -2.45121,-7.20625c-3.24814,-8.83704 -8.64043,-18.49552 -8.90306,-28.18137c-0.35466,-13.07947 5.9803,-25.00036 5.68096,-38.31617c-0.22175,-9.86399 -10.86016,-17.07895 -15.97578,-24.05117c-0.47232,-0.64372 -0.74803,-1.43914 -0.8248,-2.27951c-0.01774,-0.16785 -0.02693,-0.33865 -0.02716,-0.51199c-0.00047,-0.34818 0.03524,-0.69033 0.10372,-1.02287c0.00467,-0.02465 0.00952,-0.04929 0.01452,-0.07391c-3.43535,-1.62919 -8.60026,-2.36433 -11.89234,-2.22348c-4.79711,0.20525 -9.5606,-0.05778 -14.19416,1.36506c-2.83569,0.87078 -6.71699,5.61621 -9.83006,3.79257c-1.46936,-0.86074 -2.81186,-2.39386 -2.94193,-4.08933c-0.49819,-6.49412 10.14645,-9.86397 15.17832,-10.46327c10.30336,-1.22714 29.19289,-2.1129 35.18089,8.07457z" fill="#4cc513" stroke="none" stroke-linecap="butt"/><path d="M360.44905,107.71709c1.38079,0.18595 18.69164,26.63519 18.96578,27.84908c1.43672,6.36207 1.60468,12.92565 1.79579,19.51807c0.21081,7.27211 -0.74874,14.55384 -0.52099,21.76464c0.27325,8.65164 5.50807,16.57652 5.56335,25.17959c0.0441,6.86417 0.21337,13.72373 0.02794,20.59891c-0.07232,2.68111 -1.83826,5.19142 -5.24543,5.39191c-3.40992,0.20065 -5.17825,-2.1017 -5.25923,-4.77379c-0.20341,-6.71203 0.04627,-13.45624 -0.02738,-20.17823c-0.08593,-7.84326 -4.2095,-15.95029 -5.40459,-23.751c-1.04766,-6.83838 0.37106,-16.9702 0.36268,-23.43486c-0.00649,-5.00946 -0.21627,-10.76355 -1.12553,-15.72083c-0.34207,-1.86496 -1.42245,-4.13554 -1.05213,-6.04893c0.04273,-0.22076 -16.40753,-20.15737 -16.31341,-20.35147c0.81959,-1.69024 -1.63998,-5.76683 0.74941,-7.52063c2.38939,-1.75379 7.48374,1.47755 7.48374,1.47755z" fill="#7ade4c" stroke="none" stroke-linecap="butt"/><path d="M336.80037,123.05942c-1.21884,0.85882 -5.86785,-1.51339 -7.57396,-1.41528c-1.65055,0.0949 -3.30114,0.18841 -4.95167,0.29137c-2.45425,0.15309 -3.34037,2.84915 -6.37316,2.81454c-3.50626,-0.04001 -5.50116,-4.61874 -4.12139,-7.71403c1.19117,-2.67221 4.20901,-3.09621 6.47863,-4.20202c4.42501,-2.15595 12.11585,-2.41115 17.06868,0.11437c2.09114,1.0663 3.6942,2.6283 4.3573,4.75222z" fill="#9efd71" stroke="none" stroke-linecap="butt"/><path d="M349.75276,110.98203c1.30588,0.84804 2.15509,2.29161 2.15737,3.97654c0.00006,0.04475 -0.00048,0.08941 -0.00161,0.13396c0.14133,0.60358 -0.00731,1.17332 -0.3428,1.70682c-0.75394,1.95254 -2.66311,3.41944 -4.90102,3.55112c-1.23687,0.67163 -2.23211,0.06832 -3.0795,-0.7828c-0.73183,-0.46957 -1.32205,-1.12534 -1.70282,-1.90569c-0.16492,-0.15617 -0.32528,-0.28123 -0.48242,-0.36038c-2.54699,-1.28307 -6.00177,-3.20908 -9.06399,-3.4291c-3.33945,-0.23993 -7.41827,-0.04824 -10.60914,0.18673c-2.09258,0.15409 -2.88507,3.89653 -6.04726,3.06291c-1.67458,-0.44146 -3.61693,-1.10147 -4.40807,-2.58225c-2.85142,-5.33702 4.98061,-9.43725 9.10723,-10.56784c8.11973,-2.22459 23.4355,0.14667 29.37402,7.00997z" fill="#67dc31" stroke="none" stroke-linecap="butt"/></g><path d="M319.63524,93.01306c2.28799,-5.6302 -1.85986,-9.03259 2.21527,-15.62025c4.07514,-6.58765 5.20797,-10.84632 11.88446,-15.69465c6.67649,-4.84834 6.54077,-8.54103 19.08955,-6.79809c12.5488,1.74296 25.00513,9.53012 29.42495,13.53643c4.41982,4.00632 0.534,12.76852 2.12116,15.05824c1.58716,2.28972 1.81733,0.91456 6.14054,-3.13948c4.32321,-4.05403 9.68305,-11.69886 9.68305,-11.69886c0,0 -1.63025,14.43428 -5.93227,19.11466c-4.30203,4.68039 -8.76974,7.99928 -14.68277,3.31344c-5.91303,-4.68585 3.07212,-10.93809 -3.96824,-18.09359c-7.04036,-7.1555 -16.06801,-9.66736 -23.55576,-9.88059c-7.48774,-0.21324 -12.47876,2.22831 -16.5917,8.73731c-4.11295,6.50901 -2.63082,14.42847 -3.80714,20.56088c-1.17633,6.1324 -6.85327,14.43195 -6.85327,14.43195c0,0 -2.58668,2.26433 -5.39097,1.45391c-2.80886,-0.81175 -3.477,-7.03988 -3.477,-7.03988c0,0 1.41211,-2.61124 3.70009,-8.24145z" fill="#026b00" stroke="#000000" stroke-width="2" stroke-linecap="round"/><g stroke-linecap="butt"><g stroke="#000000" stroke-width="2"><path d="M259.38325,134.62629c-0.8471,-3.52126 0.86938,-8.81761 4.46014,-9.68142c3.59076,-0.86382 7.69605,3.03203 8.54313,6.55328c0.8471,3.52126 -1.51203,5.77732 -5.10279,6.64113c-3.59076,0.86382 -7.05339,0.00826 -7.9005,-3.51298z" fill="#d995cc"/><path d="M272.59209,130.43975c-3.53181,-0.80198 -7.51806,-4.68881 -6.70026,-8.29032c0.8178,-3.60152 6.12998,-5.55389 9.66178,-4.75193c3.53181,0.80198 4.508,3.91683 3.6902,7.51832c-0.8178,3.60152 -3.11991,6.32587 -6.65173,5.52391z" fill="#d995cc"/><path d="M271.17676,115.34855c-1.12437,3.44276 -5.36236,7.05345 -8.87307,5.90688c-3.51071,-1.14657 -4.96471,-6.6162 -3.84033,-10.05896c1.12437,-3.44276 4.316,-4.12744 7.82671,-2.98088c3.51071,1.14657 6.01108,3.69019 4.88669,7.13295z" fill="#d995cc"/><path d="M257.73352,111.99008c2.58735,2.53425 3.9447,7.93381 1.36042,10.57222c-2.58429,2.6384 -8.13157,1.51655 -10.71891,-1.0177c-2.58735,-2.53425 -1.78596,-5.6986 0.79834,-8.337c2.58429,-2.6384 5.97282,-3.75178 8.56017,-1.21752z" fill="#d995cc"/><path d="M249.47031,124.20749c2.95529,-2.09357 8.5104,-2.4656 10.6453,0.54803c2.13489,3.01363 0.04114,8.27168 -2.91415,10.36525c-2.95529,2.09358 -5.92584,0.74038 -8.06074,-2.27324c-2.13489,-3.01363 -2.62572,-6.54646 0.32957,-8.64004z" fill="#d995cc"/><path d="M254.38723,124.42696c-0.15012,-3.84129 2.84218,-7.07695 6.68346,-7.22706c3.84129,-0.15012 7.07694,2.84218 7.22705,6.68346c0.15012,3.84129 -2.84218,7.07695 -6.68345,7.22706c-3.84129,0.15012 -7.07695,-2.84218 -7.22706,-6.68346z" fill="#d8a51e"/></g><g stroke="none" stroke-width="0"><path d="M259.38325,134.62629c-0.8471,-3.52126 0.86938,-8.81761 4.46014,-9.68142c3.59076,-0.86382 7.69605,3.03204 8.54313,6.55328c0.8471,3.52126 -1.51203,5.77732 -5.10279,6.64113c-3.59076,0.86382 -7.05339,0.00826 -7.9005,-3.51298z" fill="#d995cc"/><path d="M272.59209,130.43975c-3.53181,-0.80198 -7.51806,-4.6888 -6.70026,-8.29032c0.8178,-3.60152 6.12998,-5.55389 9.66178,-4.75193c3.53181,0.80198 4.508,3.91683 3.6902,7.51833c-0.8178,3.60152 -3.11991,6.32587 -6.65172,5.5239z" fill="#d995cc"/><path d="M271.17676,115.34856c-1.12437,3.44276 -5.36237,7.05345 -8.87308,5.90688c-3.51071,-1.14657 -4.96471,-6.6162 -3.84033,-10.05895c1.12437,-3.44276 4.31599,-4.12744 7.8267,-2.98088c3.51071,1.14657 6.01109,3.6902 4.88671,7.13296z" fill="#d995cc"/><path d="M257.73352,111.99008c2.58734,2.53426 3.94468,7.93383 1.36041,10.57223c-2.58428,2.6384 -8.13157,1.51655 -10.7189,-1.0177c-2.58734,-2.53426 -1.78596,-5.6986 0.79833,-8.337c2.58428,-2.6384 5.97283,-3.75179 8.56018,-1.21753z" fill="#d995cc"/><path d="M249.47031,124.20749c2.95529,-2.09357 8.5104,-2.46559 10.6453,0.54803c2.1349,3.01362 0.04114,8.27168 -2.91415,10.36525c-2.95529,2.09358 -5.92584,0.74038 -8.06074,-2.27324c-2.1349,-3.01362 -2.62572,-6.54646 0.32957,-8.64004z" fill="#d995cc"/><path d="M254.38723,124.42696c-0.15012,-3.84129 2.84218,-7.07695 6.68345,-7.22706c3.84129,-0.15012 7.07694,2.84218 7.22705,6.68346c0.15012,3.84129 -2.84218,7.07695 -6.68345,7.22706c-3.84129,0.15012 -7.07694,-2.84218 -7.22705,-6.68346z" fill="#d8a51e"/></g></g><g stroke-linecap="butt"><g stroke="#000000" stroke-width="2"><path d="M381.39865,179.92394c-1.86765,-1.89859 -2.79185,-5.88703 -0.85578,-7.79155c1.93607,-1.90452 5.99925,-1.00392 7.86691,0.89467c1.86765,1.89859 1.23523,4.21415 -0.70085,6.11868c-1.93607,1.90452 -4.44262,2.67681 -6.31028,0.7782z" fill="#d995cc"/><path d="M388.13845,172.2821c-2.52987,0.83225 -6.5146,-0.10775 -7.36327,-2.68754c-0.84867,-2.57979 1.76009,-5.82245 4.28994,-6.65471c2.52987,-0.83225 4.32497,0.7613 5.17364,3.34107c0.84867,2.57979 0.42955,5.16892 -2.10032,6.00118z" fill="#d995cc"/><path d="M381.53033,163.3062c0.59531,2.59585 -0.70827,6.47688 -3.35537,7.08394c-2.64709,0.60706 -5.63525,-2.28972 -6.23056,-4.88557c-0.59531,-2.59585 1.15704,-4.23629 3.80411,-4.84335c2.64709,-0.60706 5.1865,0.04913 5.78181,2.64498z" fill="#d995cc"/><path d="M371.78498,166.2812c2.59069,0.61734 5.4914,3.50656 4.86188,6.1484c-0.62952,2.64183 -4.55091,4.03585 -7.1416,3.41852c-2.59069,-0.61734 -3.28412,-2.91536 -2.6546,-5.55719c0.62952,-2.64183 2.34363,-4.62706 4.93432,-4.00972z" fill="#d995cc"/><path d="M371.20422,177.11167c1.06974,-2.43895 4.43023,-4.77753 6.9173,-3.68668c2.4871,1.09086 3.15897,5.19806 2.08923,7.637c-1.06974,2.43895 -3.45462,2.71118 -5.94171,1.62032c-2.4871,-1.09086 -4.13457,-3.1317 -3.06484,-5.57065z" fill="#d995cc"/><path d="M374.38649,175.38763c-1.54957,-2.3643 -0.88909,-5.53713 1.47521,-7.08669c2.36431,-1.54957 5.53712,-0.88909 7.08669,1.47522c1.54957,2.36431 0.88909,5.53713 -1.47521,7.08669c-2.3643,1.54957 -5.53713,0.88909 -7.08669,-1.47522z" fill="#d8a51e"/></g><g stroke="none" stroke-width="0"><path d="M381.39865,179.92394c-1.86765,-1.89859 -2.79185,-5.88703 -0.85578,-7.79156c1.93607,-1.90452 5.99925,-1.00392 7.86691,0.89468c1.86765,1.89859 1.23523,4.21415 -0.70085,6.11868c-1.93607,1.90452 -4.44262,2.67681 -6.31028,0.7782z" fill="#ffc37a"/><path d="M388.13845,172.2821c-2.52987,0.83225 -6.5146,-0.10774 -7.36327,-2.68754c-0.84867,-2.5798 1.76009,-5.82245 4.28994,-6.65471c2.52987,-0.83225 4.32497,0.7613 5.17364,3.34108c0.84867,2.5798 0.42955,5.16891 -2.10031,6.00117z" fill="#ffc37a"/><path d="M381.53033,163.30621c0.59531,2.59585 -0.70828,6.47687 -3.35537,7.08394c-2.64709,0.60706 -5.63525,-2.28972 -6.23056,-4.88557c-0.59531,-2.59585 1.15703,-4.23629 3.8041,-4.84335c2.64709,-0.60706 5.18652,0.04914 5.78182,2.64499z" fill="#ffc37a"/><path d="M371.78497,166.2812c2.5907,0.61735 5.49141,3.50657 4.86188,6.1484c-0.62952,2.64183 -4.55091,4.03586 -7.1416,3.41852c-2.5907,-0.61735 -3.28412,-2.91536 -2.6546,-5.55719c0.62952,-2.64183 2.34362,-4.62707 4.93431,-4.00972z" fill="#ffc37a"/><path d="M371.20422,177.11167c1.06974,-2.43895 4.43024,-4.77752 6.9173,-3.68668c2.48709,1.09085 3.15897,5.19806 2.08923,7.637c-1.06974,2.43895 -3.45463,2.71117 -5.94171,1.62032c-2.48709,-1.09085 -4.13457,-3.1317 -3.06484,-5.57065z" fill="#ffc37a"/><path d="M374.38649,175.38763c-1.54957,-2.3643 -0.8891,-5.53713 1.47521,-7.08669c2.36431,-1.54957 5.53712,-0.88909 7.08669,1.47522c1.54957,2.36431 0.88909,5.53713 -1.47521,7.08669c-2.3643,1.54957 -5.53712,0.88909 -7.08669,-1.47522z" fill="#d8a51e"/></g></g><g stroke-linecap="butt"><g stroke="#000000" stroke-width="2"><path d="M243.86961,184.74006c-1.8095,-2.33525 -2.15378,-4.9236 0.13629,-6.69808c2.29007,-1.77449 6.80143,-2.15312 8.61094,0.18215c1.8095,2.33525 0.23191,6.5001 -2.05814,8.27458c-2.29007,1.77449 -4.87957,0.57663 -6.68907,-1.75863z" fill="#d995cc"/><path d="M243.01749,170.50306c1.29087,-2.65733 3.45826,-4.11353 6.06415,-2.84764c2.6059,1.26589 4.94551,5.14173 3.65464,7.79905c-1.29088,2.65733 -5.72343,3.08987 -8.32933,1.82398c-2.60589,-1.26589 -2.68033,-4.11806 -1.38946,-6.7754z" fill="#d995cc"/><path d="M259.45708,166.55693c2.76508,1.04022 4.41502,3.06403 3.39492,5.77559c-1.0201,2.71157 -4.66355,5.39878 -7.42863,4.35856c-2.76508,-1.04022 -3.60471,-5.41398 -2.58461,-8.12555c1.0201,-2.71157 3.85323,-3.04882 6.61832,-2.0086z" fill="#d995cc"/><path d="M267.64546,178.23466c0.29359,2.93965 -0.78887,5.31585 -3.67162,5.60376c-2.88276,0.2879 -6.90682,-1.78641 -7.20041,-4.72606c-0.29359,-2.93965 3.25449,-5.63146 6.13723,-5.91936c2.88276,-0.2879 4.44121,2.102 4.73478,5.04166z" fill="#d995cc"/><path d="M257.84236,190.51137c-2.84007,0.81346 -5.3713,0.17242 -6.16902,-2.6127c-0.79772,-2.78511 0.52521,-7.11476 3.36528,-7.9282c2.84007,-0.81346 6.12184,2.19733 6.91956,4.98243c0.79772,2.78511 -1.27575,4.74501 -4.11582,5.55848z" fill="#d995cc"/><path d="M250.92449,183.18797c-2.32287,-2.01504 -2.57242,-5.5316 -0.55739,-7.85448c2.01504,-2.32287 5.5316,-2.57244 7.85447,-0.55742c2.32287,2.01504 2.57243,5.5316 0.5574,7.85448c-2.01504,2.32287 -5.5316,2.57244 -7.85447,0.55742z" fill="#d8a51e"/></g><g stroke="none" stroke-width="0"><path d="M243.86961,184.74006c-1.8095,-2.33525 -2.15378,-4.9236 0.13629,-6.69808c2.29007,-1.77449 6.80143,-2.15313 8.61094,0.18214c1.8095,2.33525 0.2319,6.50011 -2.05815,8.27459c-2.29007,1.77449 -4.87957,0.57663 -6.68907,-1.75863z" fill="#807bff"/><path d="M243.01749,170.50306c1.29087,-2.65733 3.45826,-4.11353 6.06416,-2.84764c2.6059,1.26589 4.94551,5.14172 3.65464,7.79905c-1.29088,2.65733 -5.72343,3.08987 -8.32933,1.82398c-2.60589,-1.26589 -2.68034,-4.11806 -1.38947,-6.77539z" fill="#807bff"/><path d="M259.45708,166.55693c2.76508,1.04022 4.41502,3.06403 3.39492,5.77559c-1.0201,2.71157 -4.66355,5.39878 -7.42863,4.35856c-2.76508,-1.04022 -3.60471,-5.41398 -2.58461,-8.12555c1.0201,-2.71157 3.85324,-3.04883 6.61832,-2.00861z" fill="#807bff"/><path d="M267.64546,178.23466c0.29358,2.93965 -0.78887,5.31585 -3.67162,5.60376c-2.88276,0.2879 -6.90683,-1.7864 -7.20041,-4.72605c-0.29358,-2.93965 3.25448,-5.63147 6.13723,-5.91937c2.88276,-0.2879 4.44121,2.10201 4.73478,5.04166z" fill="#807bff"/><path d="M257.84236,190.51137c-2.84007,0.81346 -5.3713,0.17242 -6.16902,-2.6127c-0.79772,-2.78511 0.52521,-7.11476 3.36528,-7.9282c2.84007,-0.81346 6.12184,2.19733 6.91956,4.98243c0.79772,2.78511 -1.27575,4.74501 -4.11582,5.55848z" fill="#807bff"/><path d="M250.92449,183.18797c-2.32287,-2.01504 -2.57242,-5.5316 -0.55739,-7.85448c2.01504,-2.32287 5.5316,-2.57244 7.85447,-0.55742c2.32287,2.01504 2.57242,5.5316 0.55739,7.85448c-2.01504,2.32287 -5.5316,2.57244 -7.85447,0.55742z" fill="#d8a51e"/></g></g></g></g></svg>