<svg version="1.1" xmlns="http://www.w3.org/2000/svg" xmlns:xlink="http://www.w3.org/1999/xlink" width="213.18203" height="285.11907" viewBox="0,0,213.18203,285.11907"><g transform="translate(-214.52363,-33.9532)"><g stroke-miterlimit="10"><path d="M214.52364,306.61252v-267.72501h213.18203v267.72501z" fill="none" stroke="none" stroke-width="0" stroke-linecap="butt"/><g stroke-linecap="butt"><path d="M286.35186,319.07226l15.14285,-131.8421l37.78325,-0.15789l13.57389,132z" fill="#ffde00" stroke="#000000" stroke-width="0"/><path d="M295.02207,243.58459c2.31493,-20.15511 6.47264,-56.35442 6.47264,-56.35442l37.78325,-0.15789c0,0 3.78255,36.7836 5.87254,57.10776c0.0284,0.27618 -50.18276,-0.12241 -50.12843,-0.59544z" fill="#ffd000" stroke="#000000" stroke-width="0"/><path d="M295.87396,236.16758c2.11908,-18.44989 5.62075,-48.93741 5.62075,-48.93741l37.78325,-0.15789c0,0 3.18158,30.93942 5.095,49.54658c0.01626,0.15819 -48.52436,-0.23049 -48.49901,-0.45128z" fill="#ffba00" stroke="#000000" stroke-width="0"/><path d="M297.18736,224.73245c1.76117,-15.33371 4.30736,-37.50229 4.30736,-37.50229l37.78325,-0.15789c0,0 2.29028,22.27196 3.87233,37.65667c0.03152,0.30644 -46.01653,0.47013 -45.96294,0.00351z" fill="#ff9400" stroke="#000000" stroke-width="0"/><path d="M297.30628,225.2c0,-0.9665 0.7835,-1.75 1.75,-1.75c0.9665,0 1.75,0.7835 1.75,1.75c0,0.9665 -0.7835,1.75 -1.75,1.75c-0.9665,0 -1.75,-0.7835 -1.75,-1.75z" fill="#ff9400" stroke="none" stroke-width="0.5"/><path d="M302.10628,225c0,-0.9665 0.7835,-1.75 1.75,-1.75c0.9665,0 1.75,0.7835 1.75,1.75c0,0.9665 -0.7835,1.75 -1.75,1.75c-0.9665,0 -1.75,-0.7835 -1.75,-1.75z" fill="#ff9400" stroke="none" stroke-width="0.5"/><path d="M310.00628,224.7c0,0.20376 -0.15491,0.50257 -0.39532,0.8042c-0.19407,0.3744 -0.51941,0.6698 -0.91508,0.82523c-0.57459,0.35896 -1.19332,0.46407 -1.52779,-0.12125c-0.5158,-0.30442 -0.86181,-0.86589 -0.86181,-1.50818c0,-0.9665 0.7835,-1.75 1.75,-1.75c0.16638,0 0.32733,0.02322 0.47979,0.06659c0.78789,-0.19193 1.47021,0.14517 1.47021,1.68341z" fill="#ff9400" stroke="none" stroke-width="0.5"/><path d="M313.20628,224.8c0,-0.9665 0.7835,-1.75 1.75,-1.75c0.9665,0 1.75,0.7835 1.75,1.75c0,0.9665 -0.7835,1.75 -1.75,1.75c-0.9665,0 -1.75,-0.7835 -1.75,-1.75z" fill="#ff9400" stroke="none" stroke-width="0.5"/><path d="M318.80628,225c0,-0.9665 0.7835,-1.75 1.75,-1.75c0.9665,0 1.75,0.7835 1.75,1.75c0,0.9665 -0.7835,1.75 -1.75,1.75c-0.9665,0 -1.75,-0.7835 -1.75,-1.75z" fill="#ff9400" stroke="none" stroke-width="0.5"/><path d="M328.80628,225.3c0,1.08578 -2.67165,2.84962 -3.43819,1.50817c-0.5158,-0.30442 -0.86181,-0.86588 -0.86181,-1.50817c0,-0.9665 0.7835,-1.75 1.75,-1.75c0.11721,0 0.23174,0.01152 0.34249,0.0335c1.10464,-0.46689 2.20751,-0.30042 2.20751,1.7165z" fill="#ff9400" stroke="none" stroke-width="0.5"/><path d="M331.50628,225.6c0,-0.9665 0.7835,-1.75 1.75,-1.75c0.9665,0 1.75,0.7835 1.75,1.75c0,0.9665 -0.7835,1.75 -1.75,1.75c-0.9665,0 -1.75,-0.7835 -1.75,-1.75z" fill="#ff9400" stroke="none" stroke-width="0.5"/><path d="M335.70628,225.5c0,-0.9665 0.7835,-1.75 1.75,-1.75c0.9665,0 1.75,0.7835 1.75,1.75c0,0.9665 -0.7835,1.75 -1.75,1.75c-0.9665,0 -1.75,-0.7835 -1.75,-1.75z" fill="#ff9400" stroke="none" stroke-width="0.5"/><path d="M339.30628,225.1c0,-0.9665 0.7835,-1.75 1.75,-1.75c0.9665,0 1.75,0.7835 1.75,1.75c0,0.9665 -0.7835,1.75 -1.75,1.75c-0.9665,0 -1.75,-0.7835 -1.75,-1.75z" fill="#ff9400" stroke="none" stroke-width="0.5"/><path d="M295.80628,235.9c0,-0.9665 0.7835,-1.75 1.75,-1.75c0.9665,0 1.75,0.7835 1.75,1.75c0,0.9665 -0.7835,1.75 -1.75,1.75c-0.9665,0 -1.75,-0.7835 -1.75,-1.75z" fill="#ffba00" stroke="none" stroke-width="0.5"/><path d="M304.40628,236.9c0,-0.9665 0.7835,-1.75 1.75,-1.75c0.9665,0 1.75,0.7835 1.75,1.75c0,0.9665 -0.7835,1.75 -1.75,1.75c-0.9665,0 -1.75,-0.7835 -1.75,-1.75z" fill="#ffba00" stroke="none" stroke-width="0.5"/><path d="M308.40628,237c0,-0.9665 0.7835,-1.75 1.75,-1.75c0.9665,0 1.75,0.7835 1.75,1.75c0,0.9665 -0.7835,1.75 -1.75,1.75c-0.9665,0 -1.75,-0.7835 -1.75,-1.75z" fill="#ffba00" stroke="none" stroke-width="0.5"/><path d="M315.35628,235.35c0.9665,0 1.75,0.7835 1.75,1.75c0,0.9665 -0.7835,1.75 -1.75,1.75c-0.28825,0 -0.56023,-0.06969 -0.8,-0.19315c-0.23977,0.12346 -0.51175,0.19315 -0.8,0.19315c-0.9665,0 -1.75,-0.7835 -1.75,-1.75c0,-0.9665 0.7835,-1.75 1.75,-1.75c0.28825,0 0.56023,0.06969 0.8,0.19315c0.23977,-0.12346 0.51174,-0.19315 0.8,-0.19315z" fill="#ffba00" stroke="none" stroke-width="0.5"/><path d="M321.65628,234.85c0.9665,0 1.75,0.7835 1.75,1.75c0,0.9665 -0.7835,1.75 -1.75,1.75c-0.20547,0 -0.40266,-0.03541 -0.58581,-0.10046c-0.30265,0.25016 -0.69087,0.40046 -1.11419,0.40046c-0.9665,0 -1.75,-0.7835 -1.75,-1.75c0,-0.9665 0.7835,-1.75 1.75,-1.75c0.20547,0 0.40267,0.03541 0.58582,0.10046c0.30265,-0.25016 0.69086,-0.40046 1.11418,-0.40046z" fill="#ffba00" stroke="none" stroke-width="0.5"/><path d="M325.60628,236.6c0,-0.9665 0.7835,-1.75 1.75,-1.75c0.9665,0 1.75,0.7835 1.75,1.75c0,0.9665 -0.7835,1.75 -1.75,1.75c-0.9665,0 -1.75,-0.7835 -1.75,-1.75z" fill="#ffba00" stroke="none" stroke-width="0.5"/><path d="M331.00628,236.6c0,-0.9665 0.7835,-1.75 1.75,-1.75c0.9665,0 1.75,0.7835 1.75,1.75c0,0.9665 -0.7835,1.75 -1.75,1.75c-0.9665,0 -1.75,-0.7835 -1.75,-1.75z" fill="#ffba00" stroke="none" stroke-width="0.5"/><path d="M334.90628,236.7c0,-0.9665 0.7835,-1.75 1.75,-1.75c0.9665,0 1.75,0.7835 1.75,1.75c0,0.9665 -0.7835,1.75 -1.75,1.75c-0.9665,0 -1.75,-0.7835 -1.75,-1.75z" fill="#ffba00" stroke="none" stroke-width="0.5"/><path d="M339.30628,236.6c0,-0.9665 0.7835,-1.75 1.75,-1.75c0.9665,0 1.75,0.7835 1.75,1.75c0,0.9665 -0.7835,1.75 -1.75,1.75c-0.9665,0 -1.75,-0.7835 -1.75,-1.75z" fill="#ffba00" stroke="none" stroke-width="0.5"/><path d="M295.13961,243.5c0,-0.9665 0.45017,-1.75 1.41667,-1.75c0.9665,0 1.75,0.7835 1.75,1.75c0,0.9665 -0.7835,1.75 -1.75,1.75c-0.9665,0 -1.41667,-0.7835 -1.41667,-1.75z" fill="#ffd000" stroke="none" stroke-width="0.5"/><path d="M298.50628,243.4c0,-0.9665 0.7835,-1.75 1.75,-1.75c0.9665,0 1.75,0.7835 1.75,1.75c0,0.9665 -0.7835,1.75 -1.75,1.75c-0.9665,0 -1.75,-0.7835 -1.75,-1.75z" fill="#ffd000" stroke="none" stroke-width="0.5"/><path d="M303.90628,243.4c0,-0.9665 0.7835,-1.75 1.75,-1.75c0.9665,0 1.75,0.7835 1.75,1.75c0,0.9665 -0.7835,1.75 -1.75,1.75c-0.9665,0 -1.75,-0.7835 -1.75,-1.75z" fill="#ffd000" stroke="none" stroke-width="0.5"/><path d="M315.25628,241.85c0.9665,0 1.75,0.7835 1.75,1.75c0,0.9665 -0.7835,1.75 -1.75,1.75c-0.64743,0 -1.21276,-0.35158 -1.51544,-0.87425c-0.20725,0.7353 -0.88297,1.27425 -1.68455,1.27425c-0.9665,0 -1.75,-0.7835 -1.75,-1.75c0,-0.9665 0.7835,-1.75 1.75,-1.75c0.64743,0 1.21276,0.35159 1.51544,0.87425c0.20725,-0.7353 0.88297,-1.27425 1.68455,-1.27425z" fill="#ffd000" stroke="none" stroke-width="0.5"/><path d="M320.10628,244.2c0,-0.9665 0.7835,-1.75 1.75,-1.75c0.9665,0 1.75,0.7835 1.75,1.75c0,0.9665 -0.7835,1.75 -1.75,1.75c-0.9665,0 -1.75,-0.7835 -1.75,-1.75z" fill="#ffd000" stroke="none" stroke-width="0.5"/><path d="M324.20628,244.1c0,-0.9665 0.7835,-1.75 1.75,-1.75c0.9665,0 1.75,0.7835 1.75,1.75c0,0.9665 -0.7835,1.75 -1.75,1.75c-0.9665,0 -1.75,-0.7835 -1.75,-1.75z" fill="#ffd000" stroke="none" stroke-width="0.5"/><path d="M332.30628,244.1c0,-0.9665 0.7835,-1.75 1.75,-1.75c0.9665,0 1.75,0.7835 1.75,1.75c0,0.9665 -0.7835,1.75 -1.75,1.75c-0.9665,0 -1.75,-0.7835 -1.75,-1.75z" fill="#ffd000" stroke="none" stroke-width="0.5"/><path d="M340.00628,244.5c0,-0.9665 0.7835,-1.75 1.75,-1.75c0.9665,0 1.75,0.7835 1.75,1.75c0,0.9665 -0.7835,1.75 -1.75,1.75c-0.9665,0 -1.75,-0.7835 -1.75,-1.75z" fill="#ffd000" stroke="none" stroke-width="0.5"/><path d="M300.96342,230.22381c0,-0.69036 0.55964,-1.25 1.25,-1.25c0.69036,0 1.25,0.55964 1.25,1.25c0,0.69036 -0.55964,1.25 -1.25,1.25c-0.69036,0 -1.25,-0.55964 -1.25,-1.25z" fill="#ff9400" stroke="none" stroke-width="0.5"/><path d="M305.39199,226.9381c0,-0.69036 0.55964,-1.25 1.25,-1.25c0.69036,0 1.25,0.55964 1.25,1.25c0,0.69036 -0.55964,1.25 -1.25,1.25c-0.69036,0 -1.25,-0.55964 -1.25,-1.25z" fill="#ff9400" stroke="none" stroke-width="0.5"/><path d="M308.53485,224.65238c0,-0.69036 0.55964,-1.25 1.25,-1.25c0.69036,0 1.25,0.55964 1.25,1.25c0,0.69036 -0.55964,1.25 -1.25,1.25c-0.69036,0 -1.25,-0.55964 -1.25,-1.25z" fill="#ff9400" stroke="none" stroke-width="0.5"/><path d="M316.90288,226.2114c-0.55901,1.11803 -1.67705,0.55902 -1.67705,0.55902l-1.42857,-0.71429c0,0 -1.11803,-0.55902 -0.55902,-1.67705c0.55901,-1.11803 1.67705,-0.55902 1.67705,-0.55902l1.42857,0.71428c0,0 1.11803,0.55902 0.55901,1.67705z" fill="#ff9400" stroke="none" stroke-width="0.5"/><path d="M321.85672,228.72407c-0.64312,1.07187 -1.71499,0.42875 -1.71499,0.42875l-1.42858,-0.85715c0,0 -1.07187,-0.64312 -0.42874,-1.71498c0.64312,-1.07187 1.71499,-0.42874 1.71499,-0.42874l1.42857,0.85714c0,0 1.07187,0.64312 0.42875,1.71499z" fill="#ff9400" stroke="none" stroke-width="0.5"/><path d="M323.67771,229.79524c0,-0.69036 0.55964,-1.25 1.25,-1.25c0.69036,0 1.25,0.55964 1.25,1.25c0,0.69036 -0.55964,1.25 -1.25,1.25c-0.69036,0 -1.25,-0.55964 -1.25,-1.25z" fill="#ff9400" stroke="none" stroke-width="0.5"/><path d="M328.67771,231.22381c0,-0.69036 0.55964,-1.25 1.25,-1.25c0.69036,0 1.25,0.55964 1.25,1.25c0,0.69036 -0.55964,1.25 -1.25,1.25c-0.69036,0 -1.25,-0.55964 -1.25,-1.25z" fill="#ff9400" stroke="none" stroke-width="0.5"/><path d="M335.87592,228.59239c1.06,0.6625 0.39749,1.72249 0.39749,1.72249l-0.71429,1.14286c0,0 -0.66249,1.06 -1.72249,0.3975c-1.06,-0.6625 -0.3975,-1.72249 -0.3975,-1.72249l0.71428,-1.14286c0,0 0.6625,-1.05999 1.7225,-0.39749z" fill="#ff9400" stroke="none" stroke-width="0.5"/><path d="M337.39199,226.50953c0,-0.69036 0.55964,-1.25 1.25,-1.25c0.69036,0 1.25,0.55964 1.25,1.25c0,0.69036 -0.55964,1.25 -1.25,1.25c-0.69036,0 -1.25,-0.55964 -1.25,-1.25z" fill="#ff9400" stroke="none" stroke-width="0.5"/><path d="M340.67771,225.08095c0,-0.69036 0.55964,-1.25 1.25,-1.25c0.69036,0 1.25,0.55964 1.25,1.25c0,0.69036 -0.55964,1.25 -1.25,1.25c-0.69036,0 -1.25,-0.55964 -1.25,-1.25z" fill="#ff9400" stroke="none" stroke-width="0.5"/><path d="M299.67771,240.36667c0,-0.69036 0.55964,-1.25 1.25,-1.25c0.69036,0 1.25,0.55964 1.25,1.25c0,0.69036 -0.55964,1.25 -1.25,1.25c-0.69036,0 -1.25,-0.55964 -1.25,-1.25z" fill="#ffba00" stroke="none" stroke-width="0.5"/><path d="M302.10628,236.79524c0,-0.69036 0.55964,-1.25 1.25,-1.25c0.69036,0 1.25,0.55964 1.25,1.25c0,0.69036 -0.55964,1.25 -1.25,1.25c-0.69036,0 -1.25,-0.55964 -1.25,-1.25z" fill="#ffba00" stroke="none" stroke-width="0.5"/><path d="M305.67771,235.79524c0,-0.69036 0.55964,-1.25 1.25,-1.25c0.69036,0 1.25,0.55964 1.25,1.25c0,0.69036 -0.55964,1.25 -1.25,1.25c-0.69036,0 -1.25,-0.55964 -1.25,-1.25z" fill="#ffba00" stroke="none" stroke-width="0.5"/><path d="M314.60628,236.9381c0,1.25 -1.25,1.25 -1.25,1.25h-1.85714c0,0 -1.25,0 -1.25,-1.25c0,-1.25 1.25,-1.25 1.25,-1.25h1.85714c0,0 1.25,0 1.25,1.25z" fill="#ffba00" stroke="none" stroke-width="0.5"/><path d="M320.10628,238.22381c0,-0.69036 0.55964,-1.25 1.25,-1.25c0.69036,0 1.25,0.55964 1.25,1.25c0,0.69036 -0.55964,1.25 -1.25,1.25c-0.69036,0 -1.25,-0.55964 -1.25,-1.25z" fill="#ffba00" stroke="none" stroke-width="0.5"/><path d="M326.82056,239.50953c0,-0.69036 0.55964,-1.25 1.25,-1.25c0.69036,0 1.25,0.55964 1.25,1.25c0,0.69036 -0.55964,1.25 -1.25,1.25c-0.69036,0 -1.25,-0.55964 -1.25,-1.25z" fill="#ffba00" stroke="none" stroke-width="0.5"/><path d="M329.53485,240.08095c0,-0.69036 0.55964,-1.25 1.25,-1.25c0.69036,0 1.25,0.55964 1.25,1.25c0,0.69036 -0.55964,1.25 -1.25,1.25c-0.69036,0 -1.25,-0.55964 -1.25,-1.25z" fill="#ffba00" stroke="none" stroke-width="0.5"/><path d="M337.47431,237.37908c0.55901,1.11803 -0.55901,1.67705 -0.55901,1.67705l-1.71429,0.85714c0,0 -1.11804,0.55902 -1.67705,-0.55902c-0.55901,-1.11803 0.55902,-1.67705 0.55902,-1.67705l1.71429,-0.85714c0,0 1.11804,-0.55902 1.67705,0.55902z" fill="#ffba00" stroke="none" stroke-width="0.5"/><path d="M338.39199,237.22381c0,-0.69036 0.55964,-1.25 1.25,-1.25c0.69036,0 1.25,0.55964 1.25,1.25c0,0.69036 -0.55964,1.25 -1.25,1.25c-0.69036,0 -1.25,-0.55964 -1.25,-1.25z" fill="#ffba00" stroke="none" stroke-width="0.5"/><path d="M341.96342,238.08095c0,-0.69036 0.55964,-1.25 1.25,-1.25c0.69036,0 1.25,0.55964 1.25,1.25c0,0.69036 -0.55964,1.25 -1.25,1.25c-0.69036,0 -1.25,-0.55964 -1.25,-1.25z" fill="#ffba00" stroke="none" stroke-width="0.5"/><path d="M297.67771,247.79524c0,-0.69036 0.55964,-1.25 1.25,-1.25c0.69036,0 1.25,0.55964 1.25,1.25c0,0.69036 -0.55964,1.25 -1.25,1.25c-0.69036,0 -1.25,-0.55964 -1.25,-1.25z" fill="#ffd000" stroke="none" stroke-width="0.5"/><path d="M304.10628,244.65238c0,-0.69036 0.55964,-1.25 1.25,-1.25c0.69036,0 1.25,0.55964 1.25,1.25c0,0.69036 -0.55964,1.25 -1.25,1.25c-0.69036,0 -1.25,-0.55964 -1.25,-1.25z" fill="#ffd000" stroke="none" stroke-width="0.5"/><path d="M309.53485,243.50953c0,-0.69036 0.55964,-1.25 1.25,-1.25c0.69036,0 1.25,0.55964 1.25,1.25c0,0.69036 -0.55964,1.25 -1.25,1.25c-0.69036,0 -1.25,-0.55964 -1.25,-1.25z" fill="#ffd000" stroke="none" stroke-width="0.5"/><path d="M313.39199,244.50953c0,-0.69036 0.55964,-1.25 1.25,-1.25c0.69036,0 1.25,0.55964 1.25,1.25c0,0.69036 -0.55964,1.25 -1.25,1.25c-0.69036,0 -1.25,-0.55964 -1.25,-1.25z" fill="#ffd000" stroke="none" stroke-width="0.5"/><path d="M321.53485,246.08095c0,-0.69036 0.55964,-1.25 1.25,-1.25c0.69036,0 1.25,0.55964 1.25,1.25c0,0.69036 -0.55964,1.25 -1.25,1.25c-0.69036,0 -1.25,-0.55964 -1.25,-1.25z" fill="#ffd000" stroke="none" stroke-width="0.5"/><path d="M327.82056,247.79524c0,-0.69036 0.55964,-1.25 1.25,-1.25c0.69036,0 1.25,0.55964 1.25,1.25c0,0.69036 -0.55964,1.25 -1.25,1.25c-0.69036,0 -1.25,-0.55964 -1.25,-1.25z" fill="#ffd000" stroke="none" stroke-width="0.5"/><path d="M335.582,247.97867c0.24514,1.22573 -0.98058,1.47087 -0.98058,1.47087l-1.42857,0.28572c0,0 -1.22573,0.24515 -1.47087,-0.98058c-0.24514,-1.22573 0.98058,-1.47087 0.98058,-1.47087l1.42857,-0.28572c0,0 1.22573,-0.24515 1.47087,0.98058z" fill="#ffd000" stroke="none" stroke-width="0.5"/><path d="M340.07056,243.25953c0.69036,0 1.25,0.55964 1.25,1.25c0,0.59132 -0.41059,1.08673 -0.96222,1.21671c-0.19344,0.44018 -0.63329,0.74757 -1.14493,0.74757c-0.69036,0 -1.25,-0.55964 -1.25,-1.25c0,-0.59132 0.41059,-1.08673 0.96222,-1.21671c0.19344,-0.44018 0.63329,-0.74758 1.14493,-0.74758z" fill="#ffd000" stroke="none" stroke-width="0.5"/><path d="M301.60628,233.7c0,-0.41421 0.33579,-0.75 0.75,-0.75c0.41421,0 0.75,0.33579 0.75,0.75c0,0.41421 -0.33579,0.75 -0.75,0.75c-0.41421,0 -0.75,-0.33579 -0.75,-0.75z" fill="#ff9400" stroke="none" stroke-width="0.5"/><path d="M311.43961,234.03333c0,-0.41421 0.33579,-0.75 0.75,-0.75c0.41421,0 0.75,0.33579 0.75,0.75c0,0.41421 -0.33579,0.75 -0.75,0.75c-0.41421,0 -0.75,-0.33579 -0.75,-0.75z" fill="#ff9400" stroke="none" stroke-width="0.5"/><path d="M320.93961,232.86667c0,-0.41421 0.33579,-0.75 0.75,-0.75c0.41421,0 0.75,0.33579 0.75,0.75c0,0.41421 -0.33579,0.75 -0.75,0.75c-0.41421,0 -0.75,-0.33579 -0.75,-0.75z" fill="#ff9400" stroke="none" stroke-width="0.5"/><path d="M339.43961,233.86667c0,-0.41421 0.33579,-0.75 0.75,-0.75c0.41421,0 0.75,0.33579 0.75,0.75c0,0.41421 -0.33579,0.75 -0.75,0.75c-0.41421,0 -0.75,-0.33579 -0.75,-0.75z" fill="#ff9400" stroke="none" stroke-width="0.5"/><path d="M302.43961,241.86667c0,-0.41421 0.33579,-0.75 0.75,-0.75c0.41421,0 0.75,0.33579 0.75,0.75c0,0.41421 -0.33579,0.75 -0.75,0.75c-0.41421,0 -0.75,-0.33579 -0.75,-0.75z" fill="#ffba00" stroke="none" stroke-width="0.5"/><path d="M325.43961,241.86667c0,-0.41421 0.33579,-0.75 0.75,-0.75c0.41421,0 0.75,0.33579 0.75,0.75c0,0.41421 -0.33579,0.75 -0.75,0.75c-0.41421,0 -0.75,-0.33579 -0.75,-0.75z" fill="#ffba00" stroke="none" stroke-width="0.5"/><path d="M337.60628,243.36667c0,-0.41421 0.33579,-0.75 0.75,-0.75c0.41421,0 0.75,0.33579 0.75,0.75c0,0.41421 -0.33579,0.75 -0.75,0.75c-0.41421,0 -0.75,-0.33579 -0.75,-0.75z" fill="#ffba00" stroke="none" stroke-width="0.5"/><path d="M311.77294,242.2c0,-0.41421 0.33579,-0.75 0.75,-0.75c0.41421,0 0.75,0.33579 0.75,0.75c0,0.41421 -0.33579,0.75 -0.75,0.75c-0.41421,0 -0.75,-0.33579 -0.75,-0.75z" fill="#ffba00" stroke="none" stroke-width="0.5"/><path d="M306.77294,253.86667c0,-0.41421 0.33579,-0.75 0.75,-0.75c0.41421,0 0.75,0.33579 0.75,0.75c0,0.41421 -0.33579,0.75 -0.75,0.75c-0.41421,0 -0.75,-0.33579 -0.75,-0.75z" fill="#ffd000" stroke="none" stroke-width="0.5"/><path d="M313.43961,249.2c0,-0.41421 0.33579,-0.75 0.75,-0.75c0.41421,0 0.75,0.33579 0.75,0.75c0,0.41421 -0.33579,0.75 -0.75,0.75c-0.41421,0 -0.75,-0.33579 -0.75,-0.75z" fill="#ffd000" stroke="none" stroke-width="0.5"/><path d="M321.27294,250.36667c0,-0.41421 0.33579,-0.75 0.75,-0.75c0.41421,0 0.75,0.33579 0.75,0.75c0,0.41421 -0.33579,0.75 -0.75,0.75c-0.41421,0 -0.75,-0.33579 -0.75,-0.75z" fill="#ffd000" stroke="none" stroke-width="0.5"/><path d="M331.93961,251.86667c0,-0.41421 0.33579,-0.75 0.75,-0.75c0.41421,0 0.75,0.33579 0.75,0.75c0,0.41421 -0.33579,0.75 -0.75,0.75c-0.41421,0 -0.75,-0.33579 -0.75,-0.75z" fill="#ffd000" stroke="none" stroke-width="0.5"/><path d="M339.93961,247.53333c0,-0.41421 0.33579,-0.75 0.75,-0.75c0.41421,0 0.75,0.33579 0.75,0.75c0,0.41421 -0.33579,0.75 -0.75,0.75c-0.41421,0 -0.75,-0.33579 -0.75,-0.75z" fill="#ffd000" stroke="none" stroke-width="0.5"/></g><path d="" fill="none" stroke="#000000" stroke-width="2" stroke-linecap="round"/><g><path d="M398.82556,68.28012v29.42307l-13.00585,-13.00585l-24.62583,24.62584l-5.01045,-5.01045l28.14381,-28.14381l11.51338,11.51337v-20.89464z" fill="#ffbc61" stroke="#000000" stroke-width="0" stroke-linecap="round"/><path d="M394.07305,33.9532l23.23997,23.23997l-19.40217,1.49247l9.38127,21.32107l-33.68729,-28.14381l20.89465,-4.26421z" fill="#ff9400" stroke="#000000" stroke-width="0" stroke-linecap="round"/><path d="M243.36888,66.78764v20.89465l11.51338,-11.51338l28.14381,28.14381l-5.01045,5.01045l-24.62583,-24.62583l-13.00585,13.00585v-29.42307z" fill="#ffbc61" stroke="#000000" stroke-width="0" stroke-linecap="round"/><path d="M244.71001,47.59868l20.89465,4.26421l-33.68729,28.14381l9.38127,-21.32107l-19.40217,-1.49247l23.23996,-23.23996z" fill="#ff9400" stroke="#000000" stroke-width="0" stroke-linecap="round"/><path d="M377.69161,135.86791l48.61204,17.9097l-48.61204,19.18896z" fill="#ffb800" stroke="#000000" stroke-width="0" stroke-linecap="butt"/><path d="M264.26352,172.32693l-48.61204,-19.18896l48.61204,-17.9097z" fill="#ffb800" stroke="#000000" stroke-width="0" stroke-linecap="butt"/><path d="M255.5226,148.57225c0,-33.30185 28.7599,-60.29833 64.23702,-60.29833c35.47713,0 64.23702,26.99648 64.23702,60.29833c0,22.80238 -13.48375,42.64856 -33.37507,52.89622c-0.2,0.10304 -22.28334,17.20516 -29.95682,16.64476c-8.91643,-0.65118 -31.11827,-16.31352 -31.49563,-16.50572c-20.04,-10.20648 -33.64652,-30.12932 -33.64652,-53.03527z" fill="#ffde00" stroke="#000000" stroke-width="0" stroke-linecap="butt"/><path d="M258.06115,131.73243c7.76363,-25.10672 32.44792,-43.45851 61.69847,-43.45851c29.96997,0 55.14628,19.26561 62.24041,45.32307c0.03539,0.12999 -123.99809,-1.67305 -123.93887,-1.86456z" fill="#ffd000" stroke="#000000" stroke-width="0" stroke-linecap="butt"/><path d="M259.59578,127.39572c9.13417,-22.85538 32.62532,-39.12179 60.16384,-39.12179c27.6486,0 51.21738,16.39669 60.27267,39.39615c0.03335,0.0847 -120.48565,-0.1514 -120.43651,-0.27435z" fill="#ffba00" stroke="#000000" stroke-width="0" stroke-linecap="butt"/><path d="M263.22899,119.91128c10.86377,-18.84073 32.10518,-31.63736 56.53063,-31.63736c24.3797,0 45.58727,12.74873 56.46946,31.53153c0.03445,0.05945 -113.04312,0.18047 -113.00009,0.10583z" fill="#ff9400" stroke="#000000" stroke-width="0" stroke-linecap="butt"/><g><path d="M268.99199,148.84787c0,-12.96801 10.97333,2.77823 23.94134,2.77823c12.96801,0 23.01997,-15.74624 23.01997,-2.77823c0,12.96801 -10.51264,4.5927 -23.48065,4.5927c-12.96801,0 -23.48066,8.37531 -23.48066,-4.5927z" fill="#000000" stroke="none" stroke-width="0" stroke-linecap="butt"/><path d="M293.98328,149.19997v5.67699" fill="none" stroke="#5d5d5d" stroke-width="0.5" stroke-linecap="round"/><path d="M289.25246,149.83075v5.67699" fill="none" stroke="#5d5d5d" stroke-width="0.5" stroke-linecap="round"/><path d="M299.81796,155.35004v-5.67699" fill="none" stroke="#5d5d5d" stroke-width="0.5" stroke-linecap="round"/></g><g><path d="M346.80377,153.44059c-12.96801,0 -23.94133,8.37531 -23.94133,-4.5927c0,-12.96801 11.20366,1.39618 24.17167,1.39618c12.96801,0 23.3546,-4.06815 23.01998,-1.39618c-0.12733,1.01671 -10.28231,4.5927 -23.25032,4.5927z" fill="#000000" stroke="none" stroke-width="0" stroke-linecap="butt"/><path d="M365.26104,152.51155v-5.67699" fill="none" stroke="#5d5d5d" stroke-width="0.5" stroke-linecap="round"/><path d="M361.47638,147.46534v5.67699" fill="none" stroke="#5d5d5d" stroke-width="0.5" stroke-linecap="round"/><path d="M354.22245,153.7731v-5.67699" fill="none" stroke="#5d5d5d" stroke-width="0.5" stroke-linecap="round"/><path d="M343.49925,154.56157v-5.67699" fill="none" stroke="#5d5d5d" stroke-width="0.5" stroke-linecap="round"/></g><g stroke="#000000" stroke-width="0" stroke-linecap="round"><path d="M319.19262,88.95905l-1.2,-36.49866l14.92475,29.42308l26.33152,-19.08236l-6.28972,32.94105l17.69648,11.86622l-17.48327,2.41889" fill="#f58300"/><path d="M317.99262,88.95905v-37.09866l14.92475,29.42308l26.33152,-19.08236l-6.28972,32.94105l17.69648,12.36622l-17.48327,1.91889" fill="#ff9400"/></g><path d="M263.27295,120.86667c0,-0.9665 0.7835,-1.75 1.75,-1.75c0.9665,0 1.75,0.7835 1.75,1.75c0,0.9665 -0.7835,1.75 -1.75,1.75c-0.9665,0 -1.75,-0.7835 -1.75,-1.75z" fill="#ff9400" stroke="none" stroke-width="0.5" stroke-linecap="butt"/><path d="M372.43961,120.7c0,-0.9665 0.7835,-1.75 1.75,-1.75c0.9665,0 1.75,0.7835 1.75,1.75c0,0.9665 -0.7835,1.75 -1.75,1.75c-0.9665,0 -1.75,-0.7835 -1.75,-1.75z" fill="#ff9400" stroke="none" stroke-width="0.5" stroke-linecap="butt"/><path d="M368.60628,120.2c0,-0.9665 0.7835,-1.75 1.75,-1.75c0.9665,0 1.75,0.7835 1.75,1.75c0,0.9665 -0.7835,1.75 -1.75,1.75c-0.9665,0 -1.75,-0.7835 -1.75,-1.75z" fill="#ff9400" stroke="none" stroke-width="0.5" stroke-linecap="butt"/><path d="M364.27295,120.2c0,-0.9665 0.7835,-1.75 1.75,-1.75c0.9665,0 1.75,0.7835 1.75,1.75c0,0.9665 -0.7835,1.75 -1.75,1.75c-0.9665,0 -1.75,-0.7835 -1.75,-1.75z" fill="#ff9400" stroke="none" stroke-width="0.5" stroke-linecap="butt"/><path d="M354.60628,119.7c0,-0.9665 0.7835,-1.75 1.75,-1.75c0.45878,0 0.87634,0.17655 1.18842,0.46541c0.27927,-0.18861 0.6159,-0.29874 0.97825,-0.29874c0.9665,0 1.75,0.7835 1.75,1.75c0,0.9665 -0.7835,1.75 -1.75,1.75c-0.45878,0 -0.87634,-0.17655 -1.18842,-0.46541c-0.27927,0.18861 -0.6159,0.29874 -0.97825,0.29874c-0.9665,0 -1.75,-0.7835 -1.75,-1.75z" fill="#ff9400" stroke="none" stroke-width="0.5" stroke-linecap="butt"/><path d="M344.10628,119.53334c0,-0.9665 0.7835,-1.75 1.75,-1.75c0.02794,0 0.05572,0.00066 0.08334,0.00195c0.02762,-0.00129 0.0554,-0.00195 0.08333,-0.00195c0.9665,0 1.75,0.7835 1.75,1.75c0,0.9665 -0.7835,1.75 -1.75,1.75c-0.02794,0 -0.05572,-0.00065 -0.08333,-0.00195c-0.02762,0.00129 -0.0554,0.00195 -0.08334,0.00195c-0.9665,0 -1.75,-0.7835 -1.75,-1.75z" fill="#ff9400" stroke="none" stroke-width="0.5" stroke-linecap="butt"/><path d="M335.60628,119.53334c0,-0.9665 0.7835,-1.75 1.75,-1.75c0.08488,0 0.16835,0.00604 0.25,0.01772c0.08165,-0.01168 0.16512,-0.01772 0.25,-0.01772c0.9665,0 1.75,0.7835 1.75,1.75c0,0.9665 -0.7835,1.75 -1.75,1.75c-0.08488,0 -0.16835,-0.00605 -0.25,-0.01772c-0.08165,0.01168 -0.16512,0.01772 -0.25,0.01772c-0.9665,0 -1.75,-0.7835 -1.75,-1.75z" fill="#ff9400" stroke="none" stroke-width="0.5" stroke-linecap="butt"/><path d="M329.85628,118.11667c0.9665,0 1.75,0.7835 1.75,1.75c0,0.9665 -0.7835,1.75 -1.75,1.75c-0.44919,0 -0.85886,-0.16924 -1.1687,-0.44743c-0.32097,0.37583 -0.79831,0.6141 -1.3313,0.6141c-0.9665,0 -1.75,-0.7835 -1.75,-1.75c0,-0.9665 0.7835,-1.75 1.75,-1.75c0.44919,0 0.85886,0.16924 1.16871,0.44743c0.32097,-0.37583 0.79831,-0.6141 1.33129,-0.6141z" fill="#ff9400" stroke="none" stroke-width="0.5" stroke-linecap="butt"/><path d="M314.43961,119.7c0,-0.9665 0.7835,-1.75 1.75,-1.75c0.81289,0 1.49633,0.55424 1.69304,1.30545c0.24793,-0.66509 0.8888,-1.13878 1.6403,-1.13878c0.9665,0 1.75,0.7835 1.75,1.75c0,0.9665 -0.7835,1.75 -1.75,1.75c-0.81289,0 -1.49633,-0.55424 -1.69304,-1.30544c-0.24793,0.66509 -0.88879,1.13878 -1.64029,1.13878c-0.9665,0 -1.75,-0.7835 -1.75,-1.75z" fill="#ff9400" stroke="none" stroke-width="0.5" stroke-linecap="butt"/><path d="M309.77295,119.53334c0,-0.9665 0.7835,-1.75 1.75,-1.75c0.9665,0 1.75,0.7835 1.75,1.75c0,0.9665 -0.7835,1.75 -1.75,1.75c-0.9665,0 -1.75,-0.7835 -1.75,-1.75z" fill="#ff9400" stroke="none" stroke-width="0.5" stroke-linecap="butt"/><path d="M303.77295,119.2c0,-0.9665 0.7835,-1.75 1.75,-1.75c0.9665,0 1.75,0.7835 1.75,1.75c0,0.9665 -0.7835,1.75 -1.75,1.75c-0.9665,0 -1.75,-0.7835 -1.75,-1.75z" fill="#ff9400" stroke="none" stroke-width="0.5" stroke-linecap="butt"/><path d="M298.10628,119.2c0,-0.9665 0.7835,-1.75 1.75,-1.75c0.9665,0 1.75,0.7835 1.75,1.75c0,0.9665 -0.7835,1.75 -1.75,1.75c-0.9665,0 -1.75,-0.7835 -1.75,-1.75z" fill="#ff9400" stroke="none" stroke-width="0.5" stroke-linecap="butt"/><path d="M294.43961,119.2c0,-0.9665 0.7835,-1.75 1.75,-1.75c0.9665,0 1.75,0.7835 1.75,1.75c0,0.9665 -0.7835,1.75 -1.75,1.75c-0.9665,0 -1.75,-0.7835 -1.75,-1.75z" fill="#ff9400" stroke="none" stroke-width="0.5" stroke-linecap="butt"/><path d="M290.43961,119.7c0,-0.9665 0.7835,-1.75 1.75,-1.75c0.9665,0 1.75,0.7835 1.75,1.75c0,0.9665 -0.7835,1.75 -1.75,1.75c-0.9665,0 -1.75,-0.7835 -1.75,-1.75z" fill="#ff9400" stroke="none" stroke-width="0.5" stroke-linecap="butt"/><path d="M285.93961,120.36667c0,-0.9665 0.7835,-1.75 1.75,-1.75c0.9665,0 1.75,0.7835 1.75,1.75c0,0.9665 -0.7835,1.75 -1.75,1.75c-0.9665,0 -1.75,-0.7835 -1.75,-1.75z" fill="#ff9400" stroke="none" stroke-width="0.5" stroke-linecap="butt"/><path d="M279.43961,120.2c0,-0.9665 0.7835,-1.75 1.75,-1.75c0.9665,0 1.75,0.7835 1.75,1.75c0,0.9665 -0.7835,1.75 -1.75,1.75c-0.9665,0 -1.75,-0.7835 -1.75,-1.75z" fill="#ff9400" stroke="none" stroke-width="0.5" stroke-linecap="butt"/><path d="M273.43961,119.2c0,-0.9665 0.7835,-1.75 1.75,-1.75c0.9665,0 1.75,0.7835 1.75,1.75c0,0.9665 -0.7835,1.75 -1.75,1.75c-0.9665,0 -1.75,-0.7835 -1.75,-1.75z" fill="#ff9400" stroke="none" stroke-width="0.5" stroke-linecap="butt"/><path d="M268.27295,120.03334c0,-0.9665 0.7835,-1.75 1.75,-1.75c0.9665,0 1.75,0.7835 1.75,1.75c0,0.9665 -0.7835,1.75 -1.75,1.75c-0.9665,0 -1.75,-0.7835 -1.75,-1.75z" fill="#ff9400" stroke="none" stroke-width="0.5" stroke-linecap="butt"/><path d="M259.35628,127.99167c0,-0.9665 0.7835,-1.75 1.75,-1.75c0.9665,0 1.75,0.7835 1.75,1.75c0,0.9665 -0.7835,1.75 -1.75,1.75c-0.9665,0 -1.75,-0.7835 -1.75,-1.75z" fill="#ffba00" stroke="none" stroke-width="0.5" stroke-linecap="butt"/><path d="M374.60628,128.36667c0,-0.9665 0.7835,-1.75 1.75,-1.75c0.36356,0 0.70123,0.11087 0.98104,0.30063c0.30676,-0.26521 0.70662,-0.42563 1.14396,-0.42563c0.9665,0 1.75,0.7835 1.75,1.75c0,0.9665 -0.7835,1.75 -1.75,1.75c-0.36356,0 -0.70123,-0.11087 -0.98104,-0.30063c-0.30676,0.26521 -0.70662,0.42563 -1.14396,0.42563c-0.9665,0 -1.75,-0.7835 -1.75,-1.75z" fill="#ffba00" stroke="none" stroke-width="0.5" stroke-linecap="butt"/><path d="M365.27295,128.2c0,-0.9665 0.7835,-1.75 1.75,-1.75c0.37181,0 0.71654,0.11595 1,0.31367c0.26204,-0.18278 0.57643,-0.29568 0.91618,-0.3117c0.22744,-0.10813 0.4819,-0.16864 0.75049,-0.16864c0.9665,0 1.75,0.7835 1.75,1.75c0,0.9384 -0.73861,1.70428 -1.66618,1.74803c-0.22744,0.10813 -0.4819,0.16864 -0.75049,0.16864c-0.37181,0 -0.71654,-0.11595 -1,-0.31367c-0.28346,0.19772 -0.62819,0.31367 -1,0.31367c-0.9665,0 -1.75,-0.7835 -1.75,-1.75z" fill="#ffba00" stroke="none" stroke-width="0.5" stroke-linecap="butt"/><path d="M353.60628,127.36667c0,-0.9665 0.7835,-1.75 1.75,-1.75c0.36475,0 0.70344,0.11159 0.98379,0.3025c0.32099,-0.38835 0.80637,-0.63583 1.34955,-0.63583c0.9665,0 1.75,0.7835 1.75,1.75c0,0.9665 -0.7835,1.75 -1.75,1.75c-0.36475,0 -0.70344,-0.11159 -0.98378,-0.30249c-0.32099,0.38835 -0.80637,0.63583 -1.34956,0.63583c-0.9665,0 -1.75,-0.7835 -1.75,-1.75z" fill="#ffba00" stroke="none" stroke-width="0.5" stroke-linecap="butt"/><path d="M348.10628,127.36667c0,-0.9665 0.7835,-1.75 1.75,-1.75c0.9665,0 1.75,0.7835 1.75,1.75c0,0.9665 -0.7835,1.75 -1.75,1.75c-0.9665,0 -1.75,-0.7835 -1.75,-1.75z" fill="#ffba00" stroke="none" stroke-width="0.5" stroke-linecap="butt"/><path d="M341.60628,127.36667c0,-0.9665 0.7835,-1.75 1.75,-1.75c0.9665,0 1.75,0.7835 1.75,1.75c0,0.9665 -0.7835,1.75 -1.75,1.75c-0.9665,0 -1.75,-0.7835 -1.75,-1.75z" fill="#ffba00" stroke="none" stroke-width="0.5" stroke-linecap="butt"/><path d="M337.10628,127.36667c0,-0.9665 0.7835,-1.75 1.75,-1.75c0.9665,0 1.75,0.7835 1.75,1.75c0,0.9665 -0.7835,1.75 -1.75,1.75c-0.9665,0 -1.75,-0.7835 -1.75,-1.75z" fill="#ffba00" stroke="none" stroke-width="0.5" stroke-linecap="butt"/><path d="M329.93961,127.2c0,-0.9665 0.7835,-1.75 1.75,-1.75c0.9665,0 1.75,0.7835 1.75,1.75c0,0.9665 -0.7835,1.75 -1.75,1.75c-0.9665,0 -1.75,-0.7835 -1.75,-1.75z" fill="#ffba00" stroke="none" stroke-width="0.5" stroke-linecap="butt"/><path d="M321.60628,127.36667c0,-0.9665 0.7835,-1.75 1.75,-1.75c0.46159,0 0.88143,0.17871 1.19412,0.47071c0.31137,-0.48369 0.85455,-0.80404 1.47255,-0.80404c0.9665,0 1.75,0.7835 1.75,1.75c0,0.9665 -0.7835,1.75 -1.75,1.75c-0.46159,0 -0.88143,-0.17871 -1.19412,-0.4707c-0.31137,0.4837 -0.85455,0.80403 -1.47255,0.80403c-0.9665,0 -1.75,-0.7835 -1.75,-1.75z" fill="#ffba00" stroke="none" stroke-width="0.5" stroke-linecap="butt"/><path d="M312.77295,127.53334c0,-0.9665 0.7835,-1.75 1.75,-1.75c0.9665,0 1.75,0.7835 1.75,1.75c0,0.9665 -0.7835,1.75 -1.75,1.75c-0.9665,0 -1.75,-0.7835 -1.75,-1.75z" fill="#ffba00" stroke="none" stroke-width="0.5" stroke-linecap="butt"/><path d="M306.43961,127.53334c0,-0.9665 0.7835,-1.75 1.75,-1.75c0.9665,0 1.75,0.7835 1.75,1.75c0,0.9665 -0.7835,1.75 -1.75,1.75c-0.9665,0 -1.75,-0.7835 -1.75,-1.75z" fill="#ffba00" stroke="none" stroke-width="0.5" stroke-linecap="butt"/><path d="M301.77295,127.53334c0,-0.9665 0.7835,-1.75 1.75,-1.75c0.9665,0 1.75,0.7835 1.75,1.75c0,0.9665 -0.7835,1.75 -1.75,1.75c-0.9665,0 -1.75,-0.7835 -1.75,-1.75z" fill="#ffba00" stroke="none" stroke-width="0.5" stroke-linecap="butt"/><path d="M294.27295,126.86667c0,-0.9665 0.7835,-1.75 1.75,-1.75c0.9665,0 1.75,0.7835 1.75,1.75c0,0.9665 -0.7835,1.75 -1.75,1.75c-0.9665,0 -1.75,-0.7835 -1.75,-1.75z" fill="#ffba00" stroke="none" stroke-width="0.5" stroke-linecap="butt"/><path d="M289.43961,126.36667c0,-0.9665 0.7835,-1.75 1.75,-1.75c0.9665,0 1.75,0.7835 1.75,1.75c0,0.9665 -0.7835,1.75 -1.75,1.75c-0.9665,0 -1.75,-0.7835 -1.75,-1.75z" fill="#ffba00" stroke="none" stroke-width="0.5" stroke-linecap="butt"/><path d="M285.27295,126.36667c0,-0.9665 0.7835,-1.75 1.75,-1.75c0.9665,0 1.75,0.7835 1.75,1.75c0,0.9665 -0.7835,1.75 -1.75,1.75c-0.9665,0 -1.75,-0.7835 -1.75,-1.75z" fill="#ffba00" stroke="none" stroke-width="0.5" stroke-linecap="butt"/><path d="M278.43961,127.03334c0,-0.9665 0.7835,-1.75 1.75,-1.75c0.3361,0 0.65007,0.09475 0.91666,0.259c0.26659,-0.16425 0.58057,-0.259 0.91667,-0.259c0.9665,0 1.75,0.7835 1.75,1.75c0,0.9665 -0.7835,1.75 -1.75,1.75c-0.3361,0 -0.65008,-0.09475 -0.91667,-0.259c-0.26659,0.16425 -0.58056,0.259 -0.91666,0.259c-0.9665,0 -1.75,-0.7835 -1.75,-1.75z" fill="#ffba00" stroke="none" stroke-width="0.5" stroke-linecap="butt"/><path d="M267.10628,127.53334c0,-0.9665 0.7835,-1.75 1.75,-1.75c0.69955,0 1.30323,0.41045 1.58334,1.00368c0.28011,-0.59322 0.88379,-1.00368 1.58333,-1.00368c0.9665,0 1.75,0.7835 1.75,1.75c0,0.9665 -0.7835,1.75 -1.75,1.75c-0.69955,0 -1.30322,-0.41046 -1.58333,-1.00368c-0.28011,0.59322 -0.88379,1.00368 -1.58334,1.00368c-0.9665,0 -1.75,-0.7835 -1.75,-1.75z" fill="#ffba00" stroke="none" stroke-width="0.5" stroke-linecap="butt"/><path d="M262.77295,127.03334c0,-0.9665 0.7835,-1.75 1.75,-1.75c0.9665,0 1.75,0.7835 1.75,1.75c0,0.9665 -0.7835,1.75 -1.75,1.75c-0.9665,0 -1.75,-0.7835 -1.75,-1.75z" fill="#ffba00" stroke="none" stroke-width="0.5" stroke-linecap="butt"/><path d="M378.27295,133.2c0,-0.9665 0.7835,-1.75 1.75,-1.75c0.9665,0 1.75,0.7835 1.75,1.75c0,0.9665 -0.7835,1.75 -1.75,1.75c-0.9665,0 -1.75,-0.7835 -1.75,-1.75z" fill="#ffd000" stroke="none" stroke-width="0.5" stroke-linecap="butt"/><path d="M261.85628,130.45c0.9665,0 1.75,0.7835 1.75,1.75c0,0.9665 -0.7835,1.75 -1.75,1.75c-0.18611,0 -0.36544,-0.02905 -0.53369,-0.08288c-0.30529,0.25958 -0.70084,0.41621 -1.13297,0.41621c-0.9665,0 -1.75,-0.7835 -1.75,-1.75c0,-0.9665 0.7835,-1.75 1.75,-1.75c0.18611,0 0.36545,0.02905 0.5337,0.08287c0.30529,-0.25958 0.70083,-0.41621 1.13296,-0.41621z" fill="#ffd000" stroke="none" stroke-width="0.5" stroke-linecap="butt"/><path d="M268.27295,132.53334c0,-0.9665 0.7835,-1.75 1.75,-1.75c0.9665,0 1.75,0.7835 1.75,1.75c0,0.9665 -0.7835,1.75 -1.75,1.75c-0.9665,0 -1.75,-0.7835 -1.75,-1.75z" fill="#ffd000" stroke="none" stroke-width="0.5" stroke-linecap="butt"/><path d="M283.52295,130.11667c0.9665,0 1.75,0.7835 1.75,1.75c0,0.9665 -0.7835,1.75 -1.75,1.75c-0.53935,0 -1.02172,-0.24399 -1.34273,-0.62762c-0.20294,0.08229 -0.4248,0.12762 -0.65727,0.12762c-0.9665,0 -1.75,-0.7835 -1.75,-1.75c0,-0.9665 0.7835,-1.75 1.75,-1.75c0.53935,0 1.02171,0.24399 1.34273,0.62762c0.20294,-0.08229 0.42481,-0.12762 0.65727,-0.12762z" fill="#ffd000" stroke="none" stroke-width="0.5" stroke-linecap="butt"/><path d="M288.93961,132.53334c0,-0.9665 0.7835,-1.75 1.75,-1.75c0.9665,0 1.75,0.7835 1.75,1.75c0,0.9665 -0.7835,1.75 -1.75,1.75c-0.9665,0 -1.75,-0.7835 -1.75,-1.75z" fill="#ffd000" stroke="none" stroke-width="0.5" stroke-linecap="butt"/><path d="M295.27295,132.53334c0,-0.9665 0.7835,-1.75 1.75,-1.75c0.9665,0 1.75,0.7835 1.75,1.75c0,0.9665 -0.7835,1.75 -1.75,1.75c-0.9665,0 -1.75,-0.7835 -1.75,-1.75z" fill="#ffd000" stroke="none" stroke-width="0.5" stroke-linecap="butt"/><path d="M304.60628,132.53334c0,-0.9665 0.7835,-1.75 1.75,-1.75c0.9665,0 1.75,0.7835 1.75,1.75c0,0.9665 -0.7835,1.75 -1.75,1.75c-0.9665,0 -1.75,-0.7835 -1.75,-1.75z" fill="#ffd000" stroke="none" stroke-width="0.5" stroke-linecap="butt"/><path d="M313.10628,132.53334c0,-0.9665 0.7835,-1.75 1.75,-1.75c0.9665,0 1.75,0.7835 1.75,1.75c0,0.9665 -0.7835,1.75 -1.75,1.75c-0.9665,0 -1.75,-0.7835 -1.75,-1.75z" fill="#ffd000" stroke="none" stroke-width="0.5" stroke-linecap="butt"/><path d="M319.77295,132.36667c0,-0.9665 0.7835,-1.75 1.75,-1.75c0.9665,0 1.75,0.7835 1.75,1.75c0,0.9665 -0.7835,1.75 -1.75,1.75c-0.9665,0 -1.75,-0.7835 -1.75,-1.75z" fill="#ffd000" stroke="none" stroke-width="0.5" stroke-linecap="butt"/><path d="M332.60628,133.2c0,1.75 -1.75,1.75 -1.75,1.75l-1.3166,-0.12516c-0.55556,-0.22222 -1.11111,-0.44445 -1.66666,-0.66666c0,0 -1.62484,-0.64994 -0.9749,-2.27477c0.64994,-1.62483 2.27477,-0.9749 2.27477,-0.9749c0.55556,0.22222 1.11111,0.44445 1.66667,0.66666l0.01673,-0.12517c0,0 1.75,0 1.75,1.75z" fill="#ffd000" stroke="none" stroke-width="0.5" stroke-linecap="butt"/><path d="M335.27295,133.03334c0,-0.9665 0.7835,-1.75 1.75,-1.75c0.9665,0 1.75,0.7835 1.75,1.75c0,0.9665 -0.7835,1.75 -1.75,1.75c-0.9665,0 -1.75,-0.7835 -1.75,-1.75z" fill="#ffd000" stroke="none" stroke-width="0.5" stroke-linecap="butt"/><path d="M346.02295,130.45c0.9665,0 1.75,0.7835 1.75,1.75c0,0.9665 -0.7835,1.75 -1.75,1.75c-0.3361,0 -0.65008,-0.09475 -0.91667,-0.259c-0.26659,0.16425 -0.58056,0.259 -0.91666,0.259c-0.77985,0 -1.44056,-0.51011 -1.66667,-1.21486c-0.22611,0.70476 -0.88682,1.21486 -1.66667,1.21486c-0.9665,0 -1.75,-0.7835 -1.75,-1.75c0,-0.9665 0.7835,-1.75 1.75,-1.75c0.77985,0 1.44056,0.51011 1.66667,1.21487c0.22611,-0.70476 0.88681,-1.21487 1.66667,-1.21487c0.3361,0 0.65007,0.09475 0.91666,0.259c0.26659,-0.16425 0.58057,-0.259 0.91667,-0.259z" fill="#ffd000" stroke="none" stroke-width="0.5" stroke-linecap="butt"/><path d="M350.93961,133.36667c0,-0.9665 0.7835,-1.75 1.75,-1.75c0.9665,0 1.75,0.7835 1.75,1.75c0,0.9665 -0.7835,1.75 -1.75,1.75c-0.9665,0 -1.75,-0.7835 -1.75,-1.75z" fill="#ffd000" stroke="none" stroke-width="0.5" stroke-linecap="butt"/><path d="M356.27295,133.2c0,-0.9665 0.7835,-1.75 1.75,-1.75c0.9665,0 1.75,0.7835 1.75,1.75c0,0.9665 -0.7835,1.75 -1.75,1.75c-0.9665,0 -1.75,-0.7835 -1.75,-1.75z" fill="#ffd000" stroke="none" stroke-width="0.5" stroke-linecap="butt"/><path d="M366.68961,131.78334c0.9665,0 1.75,0.7835 1.75,1.75c0,0.9665 -0.7835,1.75 -1.75,1.75c-0.64292,0 -1.20486,-0.34669 -1.50907,-0.86332c-0.10508,0.01969 -0.21348,0.02998 -0.32427,0.02998c-0.9665,0 -1.75,-0.7835 -1.75,-1.75c0,-0.9665 0.7835,-1.75 1.75,-1.75c0.64292,0 1.20486,0.3467 1.50907,0.86332c0.10508,-0.01969 0.21348,-0.02999 0.32427,-0.02999z" fill="#ffd000" stroke="none" stroke-width="0.5" stroke-linecap="butt"/><path d="M373.27295,133.7c0,-0.9665 0.7835,-1.75 1.75,-1.75c0.9665,0 1.75,0.7835 1.75,1.75c0,0.9665 -0.7835,1.75 -1.75,1.75c-0.9665,0 -1.75,-0.7835 -1.75,-1.75z" fill="#ffd000" stroke="none" stroke-width="0.5" stroke-linecap="butt"/><path d="M267.24914,120.65238c0,-0.69035 0.55964,-1.25 1.25,-1.25c0.69036,0 1.25,0.55965 1.25,1.25c0,0.69035 -0.55964,1.25 -1.25,1.25c-0.69036,0 -1.25,-0.55965 -1.25,-1.25z" fill="#ff9400" stroke="none" stroke-width="0.5" stroke-linecap="butt"/><path d="M275.07056,121.97381c0.69036,0 1.25,0.55965 1.25,1.25c0,0.69035 -0.55964,1.25 -1.25,1.25c-0.04831,0 -0.09598,-0.00274 -0.14285,-0.00808c-0.04688,0.00534 -0.09454,0.00808 -0.14285,0.00808c-0.69036,0 -1.25,-0.55965 -1.25,-1.25c0,-0.10971 0.01414,-0.21612 0.04068,-0.31751c-0.21542,0.17614 -0.49071,0.2818 -0.79068,0.2818c-0.69036,0 -1.25,-0.55965 -1.25,-1.25c0,-0.69035 0.55964,-1.25 1.25,-1.25c0.69036,0 1.25,0.55965 1.25,1.25c0,0.10971 -0.01414,0.21612 -0.04068,0.31751c0.21542,-0.17614 0.49072,-0.2818 0.79068,-0.2818c0.04831,0 0.09598,0.00274 0.14285,0.00808c0.04688,-0.00534 0.09454,-0.00808 0.14285,-0.00808z" fill="#ff9400" stroke="none" stroke-width="0.5" stroke-linecap="butt"/><path d="M279.39199,121.9381c0,-0.69035 0.55964,-1.25 1.25,-1.25c0.69036,0 1.25,0.55965 1.25,1.25c0,0.69035 -0.55964,1.25 -1.25,1.25c-0.69036,0 -1.25,-0.55965 -1.25,-1.25z" fill="#ff9400" stroke="none" stroke-width="0.5" stroke-linecap="butt"/><path d="M284.39199,120.9381c0,-0.69035 0.55964,-1.25 1.25,-1.25c0.69036,0 1.25,0.55965 1.25,1.25c0,0.69035 -0.55964,1.25 -1.25,1.25c-0.69036,0 -1.25,-0.55965 -1.25,-1.25z" fill="#ff9400" stroke="none" stroke-width="0.5" stroke-linecap="butt"/><path d="M295.82056,123.36667c0,-0.69035 0.55964,-1.25 1.25,-1.25c0.69036,0 1.25,0.55965 1.25,1.25c0,0.69035 -0.55964,1.25 -1.25,1.25c-0.69036,0 -1.25,-0.55965 -1.25,-1.25z" fill="#ff9400" stroke="none" stroke-width="0.5" stroke-linecap="butt"/><path d="M304.17115,119.34547c0.59262,1.10059 -0.50797,1.69321 -0.50797,1.69321l-1.85714,1c0,0 -1.10059,0.59262 -1.69322,-0.50796c-0.59262,-1.10059 0.50797,-1.69322 0.50797,-1.69322l1.85714,-1c0,0 1.10059,-0.59262 1.69322,0.50797z" fill="#ff9400" stroke="none" stroke-width="0.5" stroke-linecap="butt"/><path d="M305.67771,119.08095c0,-0.69035 0.55964,-1.25 1.25,-1.25c0.69036,0 1.25,0.55965 1.25,1.25c0,0.69035 -0.55964,1.25 -1.25,1.25c-0.69036,0 -1.25,-0.55965 -1.25,-1.25z" fill="#ff9400" stroke="none" stroke-width="0.5" stroke-linecap="butt"/><path d="M313.39199,121.36667c0,-0.69035 0.55964,-1.25 1.25,-1.25c0.69036,0 1.25,0.55965 1.25,1.25c0,0.69035 -0.55964,1.25 -1.25,1.25c-0.69036,0 -1.25,-0.55965 -1.25,-1.25z" fill="#ff9400" stroke="none" stroke-width="0.5" stroke-linecap="butt"/><path d="M320.6777,123.36667c0,-0.69036 0.55964,-1.25 1.25,-1.25c0.69036,0 1.25,0.55964 1.25,1.25c0,0.69036 -0.55964,1.25 -1.25,1.25c-0.69036,0 -1.25,-0.55964 -1.25,-1.25z" fill="#ff9400" stroke="none" stroke-width="0.5" stroke-linecap="butt"/><path d="M326.53485,120.79524c0,-0.69036 0.55964,-1.25 1.25,-1.25c0.69036,0 1.25,0.55964 1.25,1.25c0,0.69036 -0.55964,1.25 -1.25,1.25c-0.69036,0 -1.25,-0.55964 -1.25,-1.25z" fill="#ff9400" stroke="none" stroke-width="0.5" stroke-linecap="butt"/><path d="M331.53485,119.79524c0,-0.69036 0.55964,-1.25 1.25,-1.25c0.69036,0 1.25,0.55964 1.25,1.25c0,0.69036 -0.55964,1.25 -1.25,1.25c-0.69036,0 -1.25,-0.55964 -1.25,-1.25z" fill="#ff9400" stroke="none" stroke-width="0.5" stroke-linecap="butt"/><path d="M334.96342,120.65238c0,-0.69036 0.55964,-1.25 1.25,-1.25c0.69036,0 1.25,0.55964 1.25,1.25c0,0.69036 -0.55964,1.25 -1.25,1.25c-0.69036,0 -1.25,-0.55964 -1.25,-1.25z" fill="#ff9400" stroke="none" stroke-width="0.5" stroke-linecap="butt"/><path d="M342.96342,124.08095c0,-0.69036 0.55964,-1.25 1.25,-1.25c0.69036,0 1.25,0.55964 1.25,1.25c0,0.69036 -0.55964,1.25 -1.25,1.25c-0.69036,0 -1.25,-0.55964 -1.25,-1.25z" fill="#ff9400" stroke="none" stroke-width="0.5" stroke-linecap="butt"/><path d="M348.53485,123.50952c0,-0.69036 0.55964,-1.25 1.25,-1.25c0.69036,0 1.25,0.55964 1.25,1.25c0,0.69036 -0.55964,1.25 -1.25,1.25c-0.69036,0 -1.25,-0.55964 -1.25,-1.25z" fill="#ff9400" stroke="none" stroke-width="0.5" stroke-linecap="butt"/><path d="M352.10628,120.9381c0,-0.69036 0.55964,-1.25 1.25,-1.25c0.69036,0 1.25,0.55964 1.25,1.25c0,0.69036 -0.55964,1.25 -1.25,1.25c-0.69036,0 -1.25,-0.55964 -1.25,-1.25z" fill="#ff9400" stroke="none" stroke-width="0.5" stroke-linecap="butt"/><path d="M355.53485,121.22381c0,-0.69036 0.55964,-1.25 1.25,-1.25c0.69036,0 1.25,0.55964 1.25,1.25c0,0.69036 -0.55964,1.25 -1.25,1.25c-0.69036,0 -1.25,-0.55964 -1.25,-1.25z" fill="#ff9400" stroke="none" stroke-width="0.5" stroke-linecap="butt"/><path d="M362.96342,121.79524c0,-0.69036 0.55964,-1.25 1.25,-1.25c0.69036,0 1.25,0.55964 1.25,1.25c0,0.69036 -0.55964,1.25 -1.25,1.25c-0.69036,0 -1.25,-0.55964 -1.25,-1.25z" fill="#ff9400" stroke="none" stroke-width="0.5" stroke-linecap="butt"/><path d="M368.49913,121.97381c0.69036,0 1.25,0.55964 1.25,1.25c0,0.69036 -0.55964,1.25 -1.25,1.25c-0.47852,0 -0.89423,-0.26888 -1.10431,-0.6638c-0.22708,0.23323 -0.54447,0.37809 -0.89569,0.37809c-0.69036,0 -1.25,-0.55964 -1.25,-1.25c0,-0.69036 0.55964,-1.25 1.25,-1.25c0.47852,0 0.89423,0.26888 1.10431,0.6638c0.22708,-0.23323 0.54447,-0.37809 0.89569,-0.37809z" fill="#ff9400" stroke="none" stroke-width="0.5" stroke-linecap="butt"/><path d="M266.6777,129.36667c0,-0.69036 0.55964,-1.25 1.25,-1.25c0.69036,0 1.25,0.55964 1.25,1.25c0,0.69036 -0.55964,1.25 -1.25,1.25c-0.69036,0 -1.25,-0.55964 -1.25,-1.25z" fill="#ffba00" stroke="none" stroke-width="0.5" stroke-linecap="butt"/><path d="M273.10628,127.50952c0,-0.69036 0.55964,-1.25 1.25,-1.25c0.69036,0 1.25,0.55964 1.25,1.25c0,0.69036 -0.55964,1.25 -1.25,1.25c-0.69036,0 -1.25,-0.55964 -1.25,-1.25z" fill="#ffba00" stroke="none" stroke-width="0.5" stroke-linecap="butt"/><path d="M279.39199,126.9381c0,-0.69036 0.55964,-1.25 1.25,-1.25c0.69036,0 1.25,0.55964 1.25,1.25c0,0.69036 -0.55964,1.25 -1.25,1.25c-0.69036,0 -1.25,-0.55964 -1.25,-1.25z" fill="#ffba00" stroke="none" stroke-width="0.5" stroke-linecap="butt"/><path d="M282.10628,129.50952c0,-0.69036 0.55964,-1.25 1.25,-1.25c0.69036,0 1.25,0.55964 1.25,1.25c0,0.69036 -0.55964,1.25 -1.25,1.25c-0.69036,0 -1.25,-0.55964 -1.25,-1.25z" fill="#ffba00" stroke="none" stroke-width="0.5" stroke-linecap="butt"/><path d="M290.21342,126.6881c0.69036,0 1.25,0.55964 1.25,1.25c0,0.69036 -0.55964,1.25 -1.25,1.25c-0.22168,0 -0.42989,-0.05771 -0.61041,-0.15892c-0.04665,0.64783 -0.58701,1.15892 -1.24673,1.15892c-0.69036,0 -1.25,-0.55964 -1.25,-1.25c0,-0.69036 0.55964,-1.25 1.25,-1.25c0.22168,0 0.42989,0.05771 0.61041,0.15892c0.04665,-0.64783 0.58701,-1.15892 1.24673,-1.15892z" fill="#ffba00" stroke="none" stroke-width="0.5" stroke-linecap="butt"/><path d="M296.39199,127.79524c0,-0.69036 0.55964,-1.25 1.25,-1.25c0.69036,0 1.25,0.55964 1.25,1.25c0,0.69036 -0.55964,1.25 -1.25,1.25c-0.69036,0 -1.25,-0.55964 -1.25,-1.25z" fill="#ffba00" stroke="none" stroke-width="0.5" stroke-linecap="butt"/><path d="M302.6777,130.08095c0,-0.69036 0.55964,-1.25 1.25,-1.25c0.69036,0 1.25,0.55964 1.25,1.25c0,0.69036 -0.55964,1.25 -1.25,1.25c-0.69036,0 -1.25,-0.55964 -1.25,-1.25z" fill="#ffba00" stroke="none" stroke-width="0.5" stroke-linecap="butt"/><path d="M310.24913,128.79524c0,-0.69036 0.55964,-1.25 1.25,-1.25c0.69036,0 1.25,0.55964 1.25,1.25c0,0.69036 -0.55964,1.25 -1.25,1.25c-0.69036,0 -1.25,-0.55964 -1.25,-1.25z" fill="#ffba00" stroke="none" stroke-width="0.5" stroke-linecap="butt"/><path d="M313.10628,127.9381c0,-0.69036 0.55964,-1.25 1.25,-1.25c0.69036,0 1.25,0.55964 1.25,1.25c0,0.69036 -0.55964,1.25 -1.25,1.25c-0.69036,0 -1.25,-0.55964 -1.25,-1.25z" fill="#ffba00" stroke="none" stroke-width="0.5" stroke-linecap="butt"/><path d="M321.24913,130.36667c0,-0.69036 0.55964,-1.25 1.25,-1.25c0.69036,0 1.25,0.55964 1.25,1.25c0,0.69036 -0.55964,1.25 -1.25,1.25c-0.69036,0 -1.25,-0.55964 -1.25,-1.25z" fill="#ffba00" stroke="none" stroke-width="0.5" stroke-linecap="butt"/><path d="M331.39199,128.65238c0,-0.69036 0.55964,-1.25 1.25,-1.25c0.69036,0 1.25,0.55964 1.25,1.25c0,0.69036 -0.55964,1.25 -1.25,1.25c-0.69036,0 -1.25,-0.55964 -1.25,-1.25z" fill="#ffba00" stroke="none" stroke-width="0.5" stroke-linecap="butt"/><path d="M333.6777,127.22381c0,-0.69036 0.55964,-1.25 1.25,-1.25c0.69036,0 1.25,0.55964 1.25,1.25c0,0.69036 -0.55964,1.25 -1.25,1.25c-0.69036,0 -1.25,-0.55964 -1.25,-1.25z" fill="#ffba00" stroke="none" stroke-width="0.5" stroke-linecap="butt"/><path d="M342.53485,128.9381c0,-0.69036 0.55964,-1.25 1.25,-1.25c0.69036,0 1.25,0.55964 1.25,1.25c0,0.69036 -0.55964,1.25 -1.25,1.25c-0.69036,0 -1.25,-0.55964 -1.25,-1.25z" fill="#ffba00" stroke="none" stroke-width="0.5" stroke-linecap="butt"/><path d="M345.82056,130.50952c0,-0.69036 0.55964,-1.25 1.25,-1.25c0.69036,0 1.25,0.55964 1.25,1.25c0,0.69036 -0.55964,1.25 -1.25,1.25c-0.69036,0 -1.25,-0.55964 -1.25,-1.25z" fill="#ffba00" stroke="none" stroke-width="0.5" stroke-linecap="butt"/><path d="M350.96342,129.36667c0,-0.69036 0.55964,-1.25 1.25,-1.25c0.69036,0 1.25,0.55964 1.25,1.25c0,0.69036 -0.55964,1.25 -1.25,1.25c-0.69036,0 -1.25,-0.55964 -1.25,-1.25z" fill="#ffba00" stroke="none" stroke-width="0.5" stroke-linecap="butt"/><path d="M358.6777,128.50952c0,-0.69036 0.55964,-1.25 1.25,-1.25c0.69036,0 1.25,0.55964 1.25,1.25c0,0.69036 -0.55964,1.25 -1.25,1.25c-0.69036,0 -1.25,-0.55964 -1.25,-1.25z" fill="#ffba00" stroke="none" stroke-width="0.5" stroke-linecap="butt"/><path d="M363.82056,129.22381c0,-0.69036 0.55964,-1.25 1.25,-1.25c0.69036,0 1.25,0.55964 1.25,1.25c0,0.69036 -0.55964,1.25 -1.25,1.25c-0.69036,0 -1.25,-0.55964 -1.25,-1.25z" fill="#ffba00" stroke="none" stroke-width="0.5" stroke-linecap="butt"/><path d="M368.82056,131.36667c0,-0.69036 0.55964,-1.25 1.25,-1.25c0.69036,0 1.25,0.55964 1.25,1.25c0,0.69036 -0.55964,1.25 -1.25,1.25c-0.69036,0 -1.25,-0.55964 -1.25,-1.25z" fill="#ffba00" stroke="none" stroke-width="0.5" stroke-linecap="butt"/><path d="M373.6777,129.9381c0,-0.69036 0.55964,-1.25 1.25,-1.25c0.69036,0 1.25,0.55964 1.25,1.25c0,0.69036 -0.55964,1.25 -1.25,1.25c-0.69036,0 -1.25,-0.55964 -1.25,-1.25z" fill="#ffba00" stroke="none" stroke-width="0.5" stroke-linecap="butt"/><path d="M265.10628,132.22381c0,-0.69036 0.55964,-1.25 1.25,-1.25c0.69036,0 1.25,0.55964 1.25,1.25c0,0.69036 -0.55964,1.25 -1.25,1.25c-0.69036,0 -1.25,-0.55964 -1.25,-1.25z" fill="#ffd000" stroke="none" stroke-width="0.5" stroke-linecap="butt"/><path d="M272.35628,133.40238c0.69036,0 1.25,0.55964 1.25,1.25c0,0.69036 -0.55964,1.25 -1.25,1.25c-0.36852,0 -0.69979,-0.15947 -0.92857,-0.41317c-0.22878,0.2537 -0.56005,0.41317 -0.92857,0.41317c-0.69036,0 -1.25,-0.55964 -1.25,-1.25c0,-0.69036 0.55964,-1.25 1.25,-1.25c0.36852,0 0.69979,0.15947 0.92857,0.41317c0.22878,-0.2537 0.56005,-0.41317 0.92857,-0.41317z" fill="#ffd000" stroke="none" stroke-width="0.5" stroke-linecap="butt"/><path d="M275.82056,132.9381c0,-0.69036 0.55964,-1.25 1.25,-1.25c0.69036,0 1.25,0.55964 1.25,1.25c0,0.69036 -0.55964,1.25 -1.25,1.25c-0.69036,0 -1.25,-0.55964 -1.25,-1.25z" fill="#ffd000" stroke="none" stroke-width="0.5" stroke-linecap="butt"/><path d="M278.82056,132.08095c0,-0.69036 0.55964,-1.25 1.25,-1.25c0.69036,0 1.25,0.55964 1.25,1.25c0,0.69036 -0.55964,1.25 -1.25,1.25c-0.69036,0 -1.25,-0.55964 -1.25,-1.25z" fill="#ffd000" stroke="none" stroke-width="0.5" stroke-linecap="butt"/><path d="M283.10628,132.36667c0,-0.69036 0.55964,-1.25 1.25,-1.25c0.69036,0 1.25,0.55964 1.25,1.25c0,0.69036 -0.55964,1.25 -1.25,1.25c-0.69036,0 -1.25,-0.55964 -1.25,-1.25z" fill="#ffd000" stroke="none" stroke-width="0.5" stroke-linecap="butt"/><path d="M289.24913,133.36667c0,-0.69036 0.55964,-1.25 1.25,-1.25c0.69036,0 1.25,0.55964 1.25,1.25c0,0.69036 -0.55964,1.25 -1.25,1.25c-0.69036,0 -1.25,-0.55964 -1.25,-1.25z" fill="#ffd000" stroke="none" stroke-width="0.5" stroke-linecap="butt"/><path d="M294.96342,135.36667c0,-0.69036 0.55964,-1.25 1.25,-1.25c0.69036,0 1.25,0.55964 1.25,1.25c0,0.69036 -0.55964,1.25 -1.25,1.25c-0.69036,0 -1.25,-0.55964 -1.25,-1.25z" fill="#ffd000" stroke="none" stroke-width="0.5" stroke-linecap="butt"/><path d="M298.6777,136.36667c0,-0.69036 0.55964,-1.25 1.25,-1.25c0.69036,0 1.25,0.55964 1.25,1.25c0,0.69036 -0.55964,1.25 -1.25,1.25c-0.69036,0 -1.25,-0.55964 -1.25,-1.25z" fill="#ffd000" stroke="none" stroke-width="0.5" stroke-linecap="butt"/><path d="M305.53485,137.65238c0,-0.69036 0.55964,-1.25 1.25,-1.25c0.69036,0 1.25,0.55964 1.25,1.25c0,0.69036 -0.55964,1.25 -1.25,1.25c-0.69036,0 -1.25,-0.55964 -1.25,-1.25z" fill="#ffd000" stroke="none" stroke-width="0.5" stroke-linecap="butt"/><path d="M311.39199,136.08095c0,-0.69036 0.55964,-1.25 1.25,-1.25c0.69036,0 1.25,0.55964 1.25,1.25c0,0.69036 -0.55964,1.25 -1.25,1.25c-0.69036,0 -1.25,-0.55964 -1.25,-1.25z" fill="#ffd000" stroke="none" stroke-width="0.5" stroke-linecap="butt"/><path d="M319.35628,132.11667c0.69036,0 1.25,0.55964 1.25,1.25c0,0.69036 -0.55964,1.25 -1.25,1.25c-0.41182,0 -0.77712,-0.19915 -1.00486,-0.50639c-0.20154,0.13917 -0.44597,0.22068 -0.70942,0.22068c-0.69036,0 -1.25,-0.55964 -1.25,-1.25c0,-0.69036 0.55964,-1.25 1.25,-1.25c0.41182,0 0.77712,0.19915 1.00486,0.50639c0.20154,-0.13917 0.44597,-0.22068 0.70942,-0.22068z" fill="#ffd000" stroke="none" stroke-width="0.5" stroke-linecap="butt"/><path d="M326.24913,134.65238c0,-0.69036 0.55964,-1.25 1.25,-1.25c0.69036,0 1.25,0.55964 1.25,1.25c0,0.69036 -0.55964,1.25 -1.25,1.25c-0.69036,0 -1.25,-0.55964 -1.25,-1.25z" fill="#ffd000" stroke="none" stroke-width="0.5" stroke-linecap="butt"/><path d="M331.82056,136.50952c0,-0.69036 0.55964,-1.25 1.25,-1.25c0.69036,0 1.25,0.55964 1.25,1.25c0,0.69036 -0.55964,1.25 -1.25,1.25c-0.69036,0 -1.25,-0.55964 -1.25,-1.25z" fill="#ffd000" stroke="none" stroke-width="0.5" stroke-linecap="butt"/><path d="M334.82056,137.22381c0,-0.69036 0.55964,-1.25 1.25,-1.25c0.69036,0 1.25,0.55964 1.25,1.25c0,0.69036 -0.55964,1.25 -1.25,1.25c-0.69036,0 -1.25,-0.55964 -1.25,-1.25z" fill="#ffd000" stroke="none" stroke-width="0.5" stroke-linecap="butt"/><path d="M341.96342,138.22381c0,-0.69036 0.55964,-1.25 1.25,-1.25c0.69036,0 1.25,0.55964 1.25,1.25c0,0.69036 -0.55964,1.25 -1.25,1.25c-0.69036,0 -1.25,-0.55964 -1.25,-1.25z" fill="#ffd000" stroke="none" stroke-width="0.5" stroke-linecap="butt"/><path d="M348.10628,137.22381c0,-0.69036 0.55964,-1.25 1.25,-1.25c0.69036,0 1.25,0.55964 1.25,1.25c0,0.69036 -0.55964,1.25 -1.25,1.25c-0.69036,0 -1.25,-0.55964 -1.25,-1.25z" fill="#ffd000" stroke="none" stroke-width="0.5" stroke-linecap="butt"/><path d="M352.96342,135.36667c0,-0.69036 0.55964,-1.25 1.25,-1.25c0.69036,0 1.25,0.55964 1.25,1.25c0,0.69036 -0.55964,1.25 -1.25,1.25c-0.69036,0 -1.25,-0.55964 -1.25,-1.25z" fill="#ffd000" stroke="none" stroke-width="0.5" stroke-linecap="butt"/><path d="M356.6777,133.65238c0,-0.69036 0.55964,-1.25 1.25,-1.25c0.69036,0 1.25,0.55964 1.25,1.25c0,0.69036 -0.55964,1.25 -1.25,1.25c-0.69036,0 -1.25,-0.55964 -1.25,-1.25z" fill="#ffd000" stroke="none" stroke-width="0.5" stroke-linecap="butt"/><path d="M364.9277,133.54524c0.69036,0 1.25,0.55964 1.25,1.25c0,0.69036 -0.55964,1.25 -1.25,1.25c-0.02397,0 -0.04779,-0.00067 -0.07143,-0.00201c-0.02364,0.00133 -0.04746,0.00201 -0.07143,0.00201c-0.69036,0 -1.25,-0.55964 -1.25,-1.25c0,-0.69036 0.55964,-1.25 1.25,-1.25c0.02397,0 0.04779,0.00067 0.07143,0.00201c0.02364,-0.00133 0.04746,-0.00201 0.07143,-0.00201z" fill="#ffd000" stroke="none" stroke-width="0.5" stroke-linecap="butt"/><path d="M371.64199,136.83095c0.69036,0 1.25,0.55964 1.25,1.25c0,0.69036 -0.55964,1.25 -1.25,1.25c-0.44158,0 -0.82969,-0.22898 -1.05205,-0.57468c-0.02999,0.00215 -0.06027,0.00325 -0.0908,0.00325c-0.49263,0 -0.9187,-0.28498 -1.12236,-0.69907c-0.4141,-0.20365 -0.69907,-0.62972 -0.69907,-1.12236c0,-0.69036 0.55964,-1.25 1.25,-1.25c0.2059,0 0.40017,0.04978 0.57143,0.13796c0.23851,0.12281 0.43239,0.32009 0.55093,0.56111c0.20498,0.10081 0.37833,0.25612 0.50113,0.44703c0.02999,-0.00215 0.06027,-0.00325 0.0908,-0.00325z" fill="#ffd000" stroke="none" stroke-width="0.5" stroke-linecap="butt"/><path d="M378.82056,133.9381c0,-0.69036 0.55964,-1.25 1.25,-1.25c0.69036,0 1.25,0.55964 1.25,1.25c0,0.69036 -0.55964,1.25 -1.25,1.25c-0.69036,0 -1.25,-0.55964 -1.25,-1.25z" fill="#ffd000" stroke="none" stroke-width="0.5" stroke-linecap="butt"/><path d="M268.27294,124.53333c0,-0.41421 0.33579,-0.75 0.75,-0.75c0.41421,0 0.75,0.33579 0.75,0.75c0,0.41421 -0.33579,0.75 -0.75,0.75c-0.41421,0 -0.75,-0.33579 -0.75,-0.75z" fill="#ff9400" stroke="none" stroke-width="0.5" stroke-linecap="butt"/><path d="M275.60628,125.36667c0,-0.41421 0.33579,-0.75 0.75,-0.75c0.41421,0 0.75,0.33579 0.75,0.75c0,0.41421 -0.33579,0.75 -0.75,0.75c-0.41421,0 -0.75,-0.33579 -0.75,-0.75z" fill="#ff9400" stroke="none" stroke-width="0.5" stroke-linecap="butt"/><path d="M281.77294,123.03333c0,-0.41421 0.33579,-0.75 0.75,-0.75c0.41421,0 0.75,0.33579 0.75,0.75c0,0.41421 -0.33579,0.75 -0.75,0.75c-0.41421,0 -0.75,-0.33579 -0.75,-0.75z" fill="#ff9400" stroke="none" stroke-width="0.5" stroke-linecap="butt"/><path d="M291.10628,126.53333c0,-0.41421 0.33579,-0.75 0.75,-0.75c0.41421,0 0.75,0.33579 0.75,0.75c0,0.41421 -0.33579,0.75 -0.75,0.75c-0.41421,0 -0.75,-0.33579 -0.75,-0.75z" fill="#ff9400" stroke="none" stroke-width="0.5" stroke-linecap="butt"/><path d="M296.77294,126.03333c0,-0.41421 0.33579,-0.75 0.75,-0.75c0.41421,0 0.75,0.33579 0.75,0.75c0,0.41421 -0.33579,0.75 -0.75,0.75c-0.41421,0 -0.75,-0.33579 -0.75,-0.75z" fill="#ff9400" stroke="none" stroke-width="0.5" stroke-linecap="butt"/><path d="M312.93961,126.03333c0,-0.41421 0.33579,-0.75 0.75,-0.75c0.41421,0 0.75,0.33579 0.75,0.75c0,0.41421 -0.33579,0.75 -0.75,0.75c-0.41421,0 -0.75,-0.33579 -0.75,-0.75z" fill="#ff9400" stroke="none" stroke-width="0.5" stroke-linecap="butt"/><path d="M331.43961,123.7c0,-0.41421 0.33579,-0.75 0.75,-0.75c0.41421,0 0.75,0.33579 0.75,0.75c0,0.41421 -0.33579,0.75 -0.75,0.75c-0.41421,0 -0.75,-0.33579 -0.75,-0.75z" fill="#ff9400" stroke="none" stroke-width="0.5" stroke-linecap="butt"/><path d="M342.77294,127.03333c0,-0.41421 0.33579,-0.75 0.75,-0.75c0.41421,0 0.75,0.33579 0.75,0.75c0,0.41421 -0.33579,0.75 -0.75,0.75c-0.41421,0 -0.75,-0.33579 -0.75,-0.75z" fill="#ff9400" stroke="none" stroke-width="0.5" stroke-linecap="butt"/><path d="M357.43961,125.03333c0,-0.41421 0.33579,-0.75 0.75,-0.75c0.41421,0 0.75,0.33579 0.75,0.75c0,0.41421 -0.33579,0.75 -0.75,0.75c-0.41421,0 -0.75,-0.33579 -0.75,-0.75z" fill="#ff9400" stroke="none" stroke-width="0.5" stroke-linecap="butt"/><path d="M368.10628,127.03333c0,-0.41421 0.33579,-0.75 0.75,-0.75c0.41421,0 0.75,0.33579 0.75,0.75c0,0.41421 -0.33579,0.75 -0.75,0.75c-0.41421,0 -0.75,-0.33579 -0.75,-0.75z" fill="#ff9400" stroke="none" stroke-width="0.5" stroke-linecap="butt"/><path d="M269.60628,131.86667c0,-0.41421 0.33579,-0.75 0.75,-0.75c0.41421,0 0.75,0.33579 0.75,0.75c0,0.41421 -0.33579,0.75 -0.75,0.75c-0.41421,0 -0.75,-0.33579 -0.75,-0.75z" fill="#ffba00" stroke="none" stroke-width="0.5" stroke-linecap="butt"/><path d="M278.60628,129.86667c0,-0.41421 0.33579,-0.75 0.75,-0.75c0.41421,0 0.75,0.33579 0.75,0.75c0,0.41421 -0.33579,0.75 -0.75,0.75c-0.41421,0 -0.75,-0.33579 -0.75,-0.75z" fill="#ffba00" stroke="none" stroke-width="0.5" stroke-linecap="butt"/><path d="M290.77294,131.7c0,-0.41421 0.33579,-0.75 0.75,-0.75c0.41421,0 0.75,0.33579 0.75,0.75c0,0.41421 -0.33579,0.75 -0.75,0.75c-0.41421,0 -0.75,-0.33579 -0.75,-0.75z" fill="#ffba00" stroke="none" stroke-width="0.5" stroke-linecap="butt"/><path d="M318.43961,132.03333c0,-0.41421 0.33579,-0.75 0.75,-0.75c0.41421,0 0.75,0.33579 0.75,0.75c0,0.41421 -0.33579,0.75 -0.75,0.75c-0.41421,0 -0.75,-0.33579 -0.75,-0.75z" fill="#ffba00" stroke="none" stroke-width="0.5" stroke-linecap="butt"/><path d="M344.77294,132.86667c0,-0.41421 0.33579,-0.75 0.75,-0.75c0.41421,0 0.75,0.33579 0.75,0.75c0,0.41421 -0.33579,0.75 -0.75,0.75c-0.41421,0 -0.75,-0.33579 -0.75,-0.75z" fill="#ffba00" stroke="none" stroke-width="0.5" stroke-linecap="butt"/><path d="M352.43961,133.2c0,-0.41421 0.33579,-0.75 0.75,-0.75c0.41421,0 0.75,0.33579 0.75,0.75c0,0.41421 -0.33579,0.75 -0.75,0.75c-0.41421,0 -0.75,-0.33579 -0.75,-0.75z" fill="#ffba00" stroke="none" stroke-width="0.5" stroke-linecap="butt"/><path d="M373.60628,133.2c0,-0.41421 0.33579,-0.75 0.75,-0.75c0.41421,0 0.75,0.33579 0.75,0.75c0,0.41421 -0.33579,0.75 -0.75,0.75c-0.41421,0 -0.75,-0.33579 -0.75,-0.75z" fill="#ffba00" stroke="none" stroke-width="0.5" stroke-linecap="butt"/><path d="M265.43961,135.86667c0,-0.41421 0.33579,-0.75 0.75,-0.75c0.41421,0 0.75,0.33579 0.75,0.75c0,0.41421 -0.33579,0.75 -0.75,0.75c-0.41421,0 -0.75,-0.33579 -0.75,-0.75z" fill="#ffd000" stroke="none" stroke-width="0.5" stroke-linecap="butt"/><path d="M276.27294,137.86667c0,-0.41421 0.33579,-0.75 0.75,-0.75c0.41421,0 0.75,0.33579 0.75,0.75c0,0.41421 -0.33579,0.75 -0.75,0.75c-0.41421,0 -0.75,-0.33579 -0.75,-0.75z" fill="#ffd000" stroke="none" stroke-width="0.5" stroke-linecap="butt"/><path d="M298.77294,140.2c0,-0.41421 0.33579,-0.75 0.75,-0.75c0.41421,0 0.75,0.33579 0.75,0.75c0,0.41421 -0.33579,0.75 -0.75,0.75c-0.41421,0 -0.75,-0.33579 -0.75,-0.75z" fill="#ffd000" stroke="none" stroke-width="0.5" stroke-linecap="butt"/><path d="M308.93961,140.2c0,-0.41421 0.33579,-0.75 0.75,-0.75c0.41421,0 0.75,0.33579 0.75,0.75c0,0.41421 -0.33579,0.75 -0.75,0.75c-0.41421,0 -0.75,-0.33579 -0.75,-0.75z" fill="#ffd000" stroke="none" stroke-width="0.5" stroke-linecap="butt"/><path d="M334.27294,140.03333c0,-0.41421 0.33579,-0.75 0.75,-0.75c0.41421,0 0.75,0.33579 0.75,0.75c0,0.41421 -0.33579,0.75 -0.75,0.75c-0.41421,0 -0.75,-0.33579 -0.75,-0.75z" fill="#ffd000" stroke="none" stroke-width="0.5" stroke-linecap="butt"/><path d="M353.77294,141.36667c0,-0.41421 0.33579,-0.75 0.75,-0.75c0.41421,0 0.75,0.33579 0.75,0.75c0,0.41421 -0.33579,0.75 -0.75,0.75c-0.41421,0 -0.75,-0.33579 -0.75,-0.75z" fill="#ffd000" stroke="none" stroke-width="0.5" stroke-linecap="butt"/><path d="M372.60628,141.7c0,-0.41421 0.33579,-0.75 0.75,-0.75c0.41421,0 0.75,0.33579 0.75,0.75c0,0.41421 -0.33579,0.75 -0.75,0.75c-0.41421,0 -0.75,-0.33579 -0.75,-0.75z" fill="#ffd000" stroke="none" stroke-width="0.5" stroke-linecap="butt"/></g><path d="M319.02752,187.4074c23.71799,2.35043 49.02611,-19.15986 49.47548,-17.61576c0.31808,1.09294 -19.50874,21.15205 -33.8754,34.70411c-0.0403,0.03801 0.18611,-0.05736 0.1459,-0.01945c-2.81777,2.65637 -4.15168,5.77285 -6.19639,7.88469c-3.05703,3.15739 -6.38527,4.72794 -8.05643,4.44795c-2.98553,-0.49374 -6.06257,-2.63723 -9.30032,-5.70472c-2.78798,-2.64138 -5.6628,-5.98404 -9.07826,-9.35981c-14.20912,-14.04402 -30.20184,-32.61709 -30.12544,-33.88943c0.2195,-3.65537 23.29287,17.20199 47.01086,19.55243z" fill="#000000" stroke="none" stroke-width="0" stroke-linecap="round"/><g stroke="none" stroke-width="0" stroke-linecap="butt"><path d="M305.88284,205.53523c0,0 -0.27273,-1.06759 -0.27273,-1.54281c0,-0.40814 0.27273,-1.13799 0.27273,-1.13799c0,0 10.02119,1.45455 14.70554,1.45455c4.39027,0 12.57555,-1.45455 12.57555,-1.45455c0,0 0.27273,0.78465 0.27273,1.2289c0,0.52629 -0.27273,1.72463 -0.27273,1.72463c0,0 -5.92103,10.92356 -12.45784,10.92356c-6.53681,0 -14.82325,-11.19629 -14.82325,-11.19629z" fill="#a93232"/><path d="M325.17296,201.44696c0.1259,2.76143 -0.33345,8.94374 -1.89981,9c-1.96985,0.07075 -2.45869,-6.23857 -2.58459,-9c-0.00196,-0.04296 4.48243,-0.04314 4.4844,0z" fill="#fff8f7"/><path d="M328.19705,201.4404c0.10032,2.20034 -0.2657,7.12647 -1.51379,7.1713c-1.5696,0.05638 -1.95911,-4.97097 -2.05943,-7.1713c-0.00156,-0.03423 3.57165,-0.03437 3.57322,0z" fill="#fff8f7"/><path d="M330.945,201.43647c0.08497,1.86368 -0.22504,6.03612 -1.28218,6.07409c-1.32945,0.04775 -1.65937,-4.2104 -1.74434,-6.07409c-0.00132,-0.02899 3.02519,-0.02911 3.02652,0z" fill="#fff8f7"/><path d="M333.16515,201.34046c0.06508,1.42743 -0.17237,4.62316 -0.98204,4.65225c-1.01825,0.03657 -1.27094,-3.22482 -1.33602,-4.65225c-0.00101,-0.02221 2.31704,-0.0223 2.31806,0z" fill="#fff8f7"/><path d="M318.07739,201.17229c-0.1183,2.59468 -0.57762,8.52301 -2.42852,8.45653c-1.47178,-0.05286 -1.90339,-5.86186 -1.78509,-8.45653c0.00185,-0.04053 4.21545,-0.04037 4.21361,0z" fill="#fff8f7"/><path d="M314.41408,201.16768c-0.10032,2.20033 -0.48984,7.22768 -2.05943,7.1713c-1.24809,-0.04483 -1.6141,-4.97097 -1.51379,-7.1713c0.00157,-0.03437 3.57478,-0.03423 3.57322,0z" fill="#fff8f7"/><path d="M311.1194,201.16374c-0.08497,1.86368 -0.41489,6.12184 -1.74433,6.07408c-1.05714,-0.03797 -1.36715,-4.21041 -1.28218,-6.07408c0.00133,-0.02911 3.02784,-0.029 3.02651,0z" fill="#fff8f7"/><path d="M308.19084,201.06773c-0.06508,1.42742 -0.31777,4.68883 -1.33601,4.65225c-0.80968,-0.02908 -1.04713,-3.22483 -0.98205,-4.65225c0.00102,-0.0223 2.31907,-0.02221 2.31806,0z" fill="#fff8f7"/><path d="M321.53193,201.35606c-0.1259,2.76143 -0.61474,9.07075 -2.58459,9c-1.56636,-0.05626 -2.02571,-6.23857 -1.89981,-9c0.00197,-0.04314 4.48636,-0.04296 4.4844,0z" fill="#fff8f7"/></g><g stroke="none" stroke-width="0" stroke-linecap="butt"><path d="M297.36082,191.69321c0,0 -4.11557,-3.60293 -4.68325,-5.7907c-0.70074,-2.70051 -2.26336,-8.41338 -2.26336,-8.41338c0,0 20.61705,9.60704 30.59184,9.92077c10.07241,0.31679 26.99702,-6.3794 26.99702,-6.3794c0,0 -1.09975,4.66565 -1.71325,7.11003c-0.5169,2.0595 -2.77514,4.65885 -2.77514,4.65885c0,0 -13.87565,2.1059 -22.05569,1.84798c-8.17766,-0.25786 -24.09816,-2.95415 -24.09816,-2.95415z" fill="#a93232"/><path d="M316.36921,198.33057c0.11865,-2.76112 0.57936,-9.06924 2.43582,-8.99364c1.4762,0.06011 1.90911,6.24355 1.79045,9.00467c-0.00186,0.04314 -4.22812,0.03192 -4.22628,-0.01103z" fill="#fff8f7"/><path d="M312.83294,198.04958c0.11506,-2.67775 0.56186,-8.79541 2.36228,-8.7221c1.43163,0.0583 1.85147,6.05505 1.7364,8.7328c-0.0018,0.04183 -4.10046,0.03096 -4.09867,-0.0107z" fill="#fff8f7"/><path d="M309.38293,197.85778c0.11865,-2.76112 0.57936,-9.06924 2.43582,-8.99364c1.4762,0.06011 1.90911,6.24355 1.79046,9.00467c-0.00186,0.04314 -4.22813,0.03192 -4.22628,-0.01103z" fill="#fff8f7"/><path d="M306.19166,197.21569c0.1091,-2.53881 0.53271,-8.33904 2.2397,-8.26952c1.35735,0.05527 1.7554,5.74086 1.6463,8.27967c-0.00171,0.03966 -3.88769,0.02935 -3.886,-0.01014z" fill="#fff8f7"/><path d="M302.74163,196.75246c0.1079,-2.51102 0.52688,-8.24776 2.21519,-8.17902c1.34249,0.05466 1.73618,5.67803 1.62828,8.18905c-0.00169,0.03923 -3.84514,0.02903 -3.84346,-0.01003z" fill="#fff8f7"/><path d="M299.63662,196.47163c0.1079,-2.51102 0.52688,-8.24776 2.21519,-8.17902c1.34249,0.05466 1.73618,5.67803 1.62828,8.18905c-0.00169,0.03923 -3.84514,0.02903 -3.84346,-0.01003z" fill="#fff8f7"/><path d="M296.70411,195.01105c0.10193,-2.37207 0.49773,-7.79139 2.09261,-7.72644c1.2682,0.05164 1.64011,5.36384 1.53818,7.73592c-0.00159,0.03706 -3.63238,0.02743 -3.6308,-0.00948z" fill="#fff8f7"/><path d="M320.26241,198.24982c-0.11865,-2.76174 0.31426,-8.94292 1.79045,-8.99533c1.85646,-0.0659 2.31716,6.24462 2.43582,9.00636c0.00184,0.04296 -4.22442,0.03211 -4.22628,-0.01103z" fill="#fff8f7"/><path d="M323.92629,197.98764c-0.11507,-2.67835 0.30477,-8.67291 1.73639,-8.72374c1.8004,-0.06392 2.2472,6.05609 2.36228,8.73444c0.00179,0.04166 -4.09688,0.03114 -4.09867,-0.0107z" fill="#fff8f7"/><path d="M327.24869,197.81351c-0.11865,-2.76174 0.31426,-8.94292 1.79045,-8.99533c1.85646,-0.0659 2.31716,6.24462 2.43582,9.00636c0.00184,0.04296 -4.22442,0.03211 -4.22628,-0.01103z" fill="#fff8f7"/><path d="M330.78022,197.18897c-0.1091,-2.53937 0.28896,-8.22289 1.64631,-8.27107c1.70699,-0.0606 2.1306,5.74184 2.2397,8.28122c0.0017,0.0395 -3.8843,0.02952 -3.886,-0.01014z" fill="#fff8f7"/><path d="M334.27279,196.74387c-0.1079,-2.51158 0.28578,-8.13288 1.62828,-8.18055c1.6883,-0.05994 2.10729,5.679 2.21518,8.19058c0.00168,0.03907 -3.84177,0.0292 -3.84346,-0.01003z" fill="#fff8f7"/><path d="M337.37781,196.47924c-0.1079,-2.51158 0.28579,-8.13288 1.62828,-8.18055c1.6883,-0.05994 2.10729,5.679 2.21518,8.19058c0.00168,0.03907 -3.84178,0.0292 -3.84347,-0.01003z" fill="#fff8f7"/><path d="M340.52299,195.03453c-0.10193,-2.37261 0.26998,-7.68287 1.53819,-7.72789c1.59489,-0.05663 1.99068,5.36477 2.09261,7.73737c0.00158,0.0369 -3.62921,0.02759 -3.6308,-0.00948z" fill="#fff8f7"/></g><g fill="none" stroke="#5d5d5d" stroke-width="0.5" stroke-linecap="round"><path d="M268.18572,164.56905l4.60225,3.32378"/><path d="M267.03069,168.00837l5.65075,0.54518"/><path d="M269.93431,162.98939l3.15528,4.71937"/><path d="M267.4953,166.28359l5.26413,2.00734"/><path d="M368.09888,169.94284l4.60225,-3.32377"/><path d="M368.2054,170.60358l5.65075,-0.54518"/><path d="M370.79485,165.51249l-3.15528,4.71937"/><path d="M368.1274,170.34095l5.26413,-2.00734"/></g></g></g></svg>