<svg version="1.1" xmlns="http://www.w3.org/2000/svg" xmlns:xlink="http://www.w3.org/1999/xlink" width="249.59712" height="326.36916" viewBox="0,0,249.59712,326.36916"><defs><linearGradient x1="354.61034" y1="78.80449" x2="331.84439" y2="111.64044" gradientUnits="userSpaceOnUse" id="color-1"><stop offset="0" stop-color="#4a4a4a"/><stop offset="1" stop-color="#000000"/></linearGradient><linearGradient x1="408.88998" y1="99.17547" x2="381.40132" y2="128.64919" gradientUnits="userSpaceOnUse" id="color-2"><stop offset="0" stop-color="#4a4a4a"/><stop offset="1" stop-color="#000000"/></linearGradient></defs><g transform="translate(-216.12619,2.17173)"><g stroke-miterlimit="10"><path d="" fill="none" stroke="#000000" stroke-width="2" stroke-linecap="round"/><path d="M436.58972,157.47966c-16.43101,27.02793 -84.80095,166.71777 -84.80095,166.71777l-71.55982,-0.60281c0,0 -9.05026,-135.65782 -15.84034,-164.15935c-2.49036,-10.45336 2.46884,-21.37784 14.53255,-21.29328c36.62241,0.25673 114.61678,0.80348 147.66818,1.03517c3.10674,0.02177 9.49944,0.72218 11.91603,4.34484c2.26511,3.3956 0.7503,9.57236 -1.91564,13.95764z" fill="#000000" stroke="#000000" stroke-width="0" stroke-linecap="butt"/><g fill="#ffffff" stroke="#000000" stroke-width="0"><path d="M354.30663,181.19463c0,0 -9.93499,49.99706 -12.16931,59.40753c-0.79881,3.36444 -2.18296,1.04131 -2.18296,1.04131l-3.95668,7.49883l-0.59179,-23.33998l13.42264,-44.3883z" stroke-linecap="round"/><path d="M360.10623,175.29903c-0.52894,2.49546 -0.74423,5.12596 -2.40064,6.79608c-1.75223,1.76676 -4.99032,2.50221 -7.1392,2.50221c-1.83596,0 -4.03621,-0.25608 -5.06365,-1.59183c-1.31189,-1.70556 -1.14485,-4.8266 -0.53442,-7.70647c0.55844,-2.63461 1.75801,-6.10722 3.5498,-7.79914c1.70071,-1.6059 3.95442,-1.49915 5.99002,-1.49915c2.39913,0 4.94584,0.09501 5.87912,2.23432c0.69284,1.5882 0.18274,4.87595 -0.28104,7.06398z" stroke-linecap="butt"/></g><path d="M216.12619,306.27924l23.9448,-267.72501h213.18203l-23.9448,267.72501z" fill="none" stroke="none" stroke-width="0" stroke-linecap="butt"/><g stroke-linecap="butt"><path d="M305.3045,83.01464c13.32342,-31.01028 51.16521,-47.20185 84.522,-36.16489c33.35681,11.03697 49.59706,45.123 36.27364,76.13328c-13.32342,31.01028 -51.16521,47.20187 -84.52201,36.1649c-33.3568,-11.03697 -49.59705,-45.123 -36.27364,-76.13329z" fill="#000000" stroke="#000000" stroke-width="2"/><path d="M326.38594,120.82903c0.11659,-0.03202 0.24698,-0.03056 0.39049,0.02397c0.69563,0.26428 0.30801,1.24661 0.30801,1.24661l-0.17154,0.33069c-0.16184,1.11231 -0.13899,4.85107 -0.9651,5.54595c-1.01296,0.85206 -3.08526,-1.37652 -3.06437,-2.44911c0.01857,-0.95374 1.73145,-3.21892 2.1141,-4.22036c0,0 0.38761,-0.98233 1.08324,-0.71805c0.1435,0.05453 0.24091,0.1396 0.30514,0.24031z" fill="#ffffff" stroke="none" stroke-width="0.5"/><path d="M338.56624,125.60806c0.68716,-0.24006 0.78408,0.61317 0.78408,0.61317l0.18443,1.76848c-0.20672,1.04232 -0.5305,3.46242 -1.50786,4.10014c-0.72197,0.47111 -2.59372,-0.52968 -2.73457,-1.55369c-0.13998,-1.01771 1.34251,-3.78504 1.775,-4.88105c0,0 0.38761,-0.98233 1.08324,-0.71805c0.32656,0.12408 0.4144,0.4064 0.41568,0.67102z" fill="#ffffff" stroke="none" stroke-width="0.5"/><path d="M353.06248,128.93676c0.69563,0.26428 0.30801,1.24661 0.30801,1.24661l-0.47467,1.18777c-0.13342,0.66953 -0.68311,5.26446 -0.95682,5.57896c-0.86574,0.9947 -3.24699,-0.7884 -3.40683,-1.50865c-0.2006,-0.90409 1.36749,-3.89503 1.77087,-4.9173c0,0 0.38761,-0.98233 1.08324,-0.71805c0.21471,0.08157 0.32621,0.23155 0.37778,0.39992l0.21519,-0.55118c0,0 0.38761,-0.98233 1.08324,-0.71805z" fill="#ffffff" stroke="none" stroke-width="0.5"/><path d="M363.55029,134.22799c0.18184,-0.1886 0.43635,-0.33018 0.75584,-0.2088c0.69563,0.26428 0.30801,1.24661 0.30801,1.24661l-0.04233,0.00324c-0.16779,1.15324 0.15973,4.92591 -0.4086,5.62987c-1.09308,1.35397 -3.64071,-1.30644 -3.74788,-2.07665c-0.15993,-1.14952 1.32453,-3.01026 1.75084,-4.10997c0,0 0.38761,-0.98233 1.08324,-0.71805c0.14036,0.05333 0.23663,0.13589 0.30087,0.23374z" fill="#ffffff" stroke="none" stroke-width="0.5"/><path d="M374.30398,137.47455c0.08328,-0.00471 0.17248,0.00814 0.26745,0.04423c0.48778,0.18533 0.44294,0.72372 0.3726,1.0289c0.56399,1.41679 1.01034,4.45043 -0.54032,5.65951c-0.2561,0.19969 -3.84731,-0.70943 -3.93619,-1.01594c-0.32373,-1.11626 2.09922,-5.49586 2.63937,-6.68589c0,0 0.43619,-0.96099 1.10243,-0.62741c0.66623,0.33361 0.23005,1.29459 0.23005,1.29459c-0.04557,0.1004 -0.09067,0.2011 -0.13537,0.30201z" fill="#ffffff" stroke="none" stroke-width="0.5"/><path d="M381.28222,136.86163c0.01142,-0.01051 0.02313,-0.02097 0.03511,-0.03141c0.72591,-0.63113 1.05333,0.16668 1.05333,0.16668l0.39475,1.00588c0.04722,1.18866 0.77787,4.87167 -0.29112,6.09355c-0.75356,0.86135 -4.578,0.17881 -4.74451,-0.89412c-0.08474,-0.54616 1.89428,-4.63837 2.08937,-5.61726c0,0 0.20733,-1.01711 0.97621,-0.99895c0.25583,0.00603 0.40358,0.12267 0.48685,0.27563z" fill="#ffffff" stroke="none" stroke-width="0.5"/><path d="M387.79825,138.58611c0.61211,-0.61396 1.02338,0.00514 1.02338,0.00514l0.06437,0.28174c0.79849,0.31786 2.71455,1.43736 2.2619,3.04833c-0.32377,1.1523 -3.58621,1.90797 -4.15968,1.49214c-1.10574,-0.80181 -0.67889,-2.70765 -0.7776,-4.17723c0,0 -0.06335,-0.96395 0.73046,-1.28897c0.78908,-0.32308 0.85638,0.62751 0.85715,0.63886z" fill="#ffffff" stroke="none" stroke-width="0.5"/><path d="M321.13176,107.86088c0.33717,0.12809 0.41986,0.42488 0.41552,0.69677c0.02516,0.05546 0.04725,0.11953 0.0655,0.19337c0.18302,0.74074 -0.32865,1.21757 -0.49671,1.35095c-0.05129,1.69372 -0.28595,4.59018 -2.34816,5.01485c-0.63468,0.13071 -3.36307,-2.87591 -2.82879,-4.22245c0.56969,-1.43572 2.70884,-1.67205 4.06829,-2.20642l0.04108,-0.10899c0,0 0.38761,-0.98233 1.08324,-0.71805z" fill="#ffffff" stroke="none" stroke-width="0.5"/><path d="M322.43954,116.1493c0.38526,0.01773 0.74821,0.15136 1.07759,0.40939l0.34077,0.12945l0.1747,-0.25219l0.55403,0.57876c0.23554,0.23145 0.29468,0.68368 0.12031,1.12558c-0.21408,0.54252 -0.69907,0.86401 -1.08324,0.71805l-0.45032,-0.17108c-0.31003,1.32701 -1.14181,2.8646 -1.76611,3.37831c-0.81812,0.6732 -1.60403,0.23004 -2.24577,-0.00756c-0.47914,-0.17739 -1.81611,-0.59728 -1.79987,-1.28039c0.01561,-0.656 0.78892,-1.10689 1.16824,-1.67577c0.83744,-1.25595 1.72734,-2.14734 2.57677,-2.60413c0.39585,-0.70446 0.97352,-0.485 0.97352,-0.485c0.11978,0.04553 0.23958,0.09101 0.35936,0.13654z" fill="#ffffff" stroke="none" stroke-width="0.5"/><path d="M332.6412,123.16363c0.15667,-0.12768 0.32258,-0.19646 0.49505,-0.183c1.53688,0.11993 0.66341,5.64667 -0.42794,6.52688c-1.11462,0.89897 -3.51089,-1.07227 -3.38451,-2.37683c0.01294,-0.13366 1.80825,-2.63749 2.07455,-3.33438c0,0 0.38761,-0.98233 1.08324,-0.71805c0.06127,0.02328 0.11414,0.05214 0.15959,0.08539z" fill="#ffffff" stroke="none" stroke-width="0.5"/><path d="M344.8879,129.90135l0.55214,0.645c0.05479,0.83365 0.49008,3.63115 -0.03321,4.36937c-0.83161,1.1732 -4.40322,-0.01678 -4.47201,-1.15603c-0.00701,-0.11609 2.30622,-3.55384 2.56412,-3.97469c0,0 0.54476,-0.88893 1.12561,-0.39427c0.17225,0.14669 0.24552,0.32805 0.26335,0.51061z" fill="#ffffff" stroke="none" stroke-width="0.5"/><path d="M356.29293,134.2156c0.09701,-0.05345 0.20926,-0.0896 0.33893,-0.09953c0.7825,-0.05992 0.63476,0.95557 0.63476,0.95557l-0.15014,0.74412c1.61061,3.88749 -3.37285,3.92604 -3.59136,2.00267c-0.11161,-0.98248 1.18003,-3.58432 1.6208,-4.70136c0,0 0.38761,-0.98233 1.08324,-0.71805c0.69563,0.26428 0.30801,1.24661 0.30801,1.24661c-0.07513,0.1904 -0.15744,0.38048 -0.24424,0.57z" fill="#ffffff" stroke="none" stroke-width="0.5"/><path d="M324.40513,147.53736c-0.73847,0.25505 -0.79867,-0.66105 -0.79867,-0.66105c-0.06338,-0.98379 -0.42991,-5.18842 0.14155,-6.06578c0.86776,-1.33229 4.43618,-1.00629 4.96119,0.06039c0.70101,1.42429 -1.28518,4.74943 -2.1421,5.96787l-1.2534,0.85829c0,0 -0.62822,0.41644 -0.90857,-0.15973z" fill="#ffffff" stroke="none" stroke-width="0.5"/><path d="M329.67417,148.64016c-0.36379,-0.76481 0.34458,-1.43554 0.34458,-1.43554l0.09797,-0.09275c-0.03275,-0.24216 0.01377,-0.47037 0.01377,-0.47037c0.25589,-1.20069 0.00866,-4.68178 0.92401,-5.62663c1.08394,-1.11889 4.82972,-0.68999 4.89267,1.25405c0.07752,2.39357 -3.04515,4.42413 -4.34947,5.65917l-0.85136,0.80615c0,0 -0.70839,0.67076 -1.07217,-0.09404z" fill="#ffffff" stroke="none" stroke-width="0.5"/><path d="M337.30832,150.45772c-0.17804,0.25843 -0.48545,0.55213 -0.90478,0.39282c-0.69563,-0.26428 -0.30801,-1.24661 -0.30801,-1.24661l0.93142,-1.03299c0.39383,-1.22457 0.977,-4.4357 1.51832,-4.95238c0.83856,-0.80044 4.19411,-0.72863 4.48116,0.66567c0.64307,3.12372 -3.64695,5.63904 -5.71807,6.1735z" fill="#ffffff" stroke="none" stroke-width="0.5"/><path d="M346.42179,152.39929c-0.00509,0.04587 -0.01053,0.08921 -0.01637,0.12976c0,0 -0.12392,0.85177 -0.7459,1.04117c-0.18338,0.20378 -0.44817,0.36852 -0.7853,0.24044c-0.69563,-0.26428 -0.30801,-1.24661 -0.30801,-1.24661l0.28748,-0.62454c0.02208,-0.03183 0.04562,-0.06677 0.07054,-0.10453c0.10991,-1.38611 0.194,-3.39178 0.86287,-4.33808c0.4673,-0.66107 3.94134,-2.87876 4.20104,-1.25047c0.22739,1.42581 -2.29604,4.50507 -3.56635,6.15284z" fill="#ffffff" stroke="none" stroke-width="0.5"/><path d="M349.84644,154.28429c-0.02776,-0.42251 0.10914,-0.72226 0.27172,-0.92571c0.0316,-0.18342 0.08488,-0.31847 0.08488,-0.31847c0.47657,-1.19506 1.88343,-4.69235 2.87964,-5.3527c1.01964,-0.67589 4.47804,0.58804 4.11864,2.3734c-0.28538,1.41781 -4.63521,4.08798 -5.54368,4.4718l-0.95405,0.39061c0,0 -0.79381,0.325 -0.85716,-0.63894z" fill="#ffffff" stroke="none" stroke-width="0.5"/><path d="M358.77433,158.77868c0,0 -0.19091,1.01726 -0.96403,1.02076c-0.77311,0.00352 -0.58218,-1.01375 -0.58218,-1.01375c0.24627,-1.31209 0.53692,-5.87775 1.82428,-6.80393c2.76621,-1.99015 2.99839,2.25785 1.68633,4.46703l-0.08246,0.06689l0.01337,0.02012l-1.30133,1.50441c-0.15046,0.17974 -0.33463,0.30138 -0.51904,0.34271c-0.02514,0.13193 -0.05017,0.26385 -0.07491,0.39579z" fill="#ffffff" stroke="none" stroke-width="0.5"/><path d="M363.14905,161.59257c-0.69563,-0.26428 -0.30801,-1.24661 -0.30801,-1.24661c0.48941,-1.2309 0.79397,-4.40977 1.34194,-5.23856c0.29222,-0.44196 2.69406,-0.64348 2.81802,-0.15702c0.16261,0.63809 -0.6409,3.02947 -0.96433,4.04973l-0.12882,0.12959l0.04163,0.03543l-0.73729,1.20309c-0.24291,0.41074 -0.6488,0.63206 -0.97987,0.50629c0,0 -0.38761,0.98233 -1.08324,0.71805z" fill="#ffffff" stroke="none" stroke-width="0.5"/><path d="M323.65919,83.77455c0.83949,-1.81873 5.39717,-13.64633 13.34086,-20.18226c6.3268,-5.20557 15.72447,-5.84558 20.42622,-4.14225c4.95981,1.79682 12.88297,7.1909 14.27683,15.79672c1.58651,9.7952 -3.75683,22.89199 -4.42113,24.33121c-3.94293,8.54233 -14.11497,22.4362 -22.97764,23.3395c-3.54634,0.36144 -5.38716,-8.33765 -8.82978,-9.58483c-12.0461,-4.364 -17.33599,-17.59763 -11.81533,-29.55807z" fill="url(#color-1)" stroke="#000000" stroke-width="2"/><path d="M377.89006,99.5582c1.11127,-1.695 7.45831,-12.85165 16.2594,-18.21237c7.00969,-4.26959 16.28257,-3.51637 20.59688,-1.11518c4.55111,2.53299 11.416,9.10412 11.39388,17.92016c-0.0252,10.03446 -7.34269,22.34432 -8.22207,23.68563c-7.30803,11.1468 -22.19298,15.19589 -33.24641,9.04395c-2.22184,-1.2366 -6.70223,3.04887 -8.25729,1.2635c-6.18132,-7.09677 -4.36344,-23.67947 1.47562,-32.58563z" fill="url(#color-2)" stroke="#000000" stroke-width="2"/><path d="M421.55601,128.25008c0.03734,-0.73599 0.8028,-0.7589 0.8028,-0.7589l0.44171,0.02959c1.83645,-0.65822 3.26879,-1.87663 4.3404,-3.36179c0.02949,-0.88584 0.21377,-1.71627 0.5864,-2.42847c0,0 0.32745,-0.6115 0.94176,-0.41656c0.13267,-0.34057 0.25184,-0.68492 0.35788,-1.03066c0,0 0.22188,-0.71956 0.95542,-0.5633c0.73354,0.15626 0.51166,0.87583 0.51166,0.87583c-0.42496,1.37149 -1.02846,2.69583 -1.8217,3.88825c0.10243,2.89758 2.00415,6.79606 3.93928,7.55409l0.71619,-0.00295c0,0 0.76282,0.01212 0.6891,0.74836c-0.0737,0.73624 -0.83652,0.72411 -0.83652,0.72411l-1.01252,-0.0304c-2.23091,-1.0119 -4.25367,-4.20036 -4.85241,-7.28967c-1.10672,1.16007 -2.45827,2.101 -4.07039,2.70394l-0.96097,0.07159c0,0 -0.76545,0.02291 -0.72811,-0.71307z" fill="#000000" stroke="none" stroke-width="0.5"/><g stroke="#000000" stroke-width="0"><path d="M313.50531,60.59976l11.81878,-62.77149c0,0 49.46926,12.10067 73.21211,18.95951c23.03549,6.6545 67.18711,21.59904 67.18711,21.59904l-29.27448,58.27121z" fill="#000000"/><path d="M314.71638,60.0604l1.56716,-10.29833l123.1594,39.61483l-4.69677,9.16814z" fill="#ffffff"/><path d="M293.18427,61.22962c0,0 -1.5598,-4.40686 -1.46753,-6.62872c0.09859,-2.37338 2.04137,-7.18701 2.04137,-7.18701l165.85481,54.07351c0,0 -2.12871,3.56616 -3.67448,5.31261c-1.6791,1.89708 -6.03333,5.65543 -6.03333,5.65543c0,0 -1.64334,-0.53715 -4.58885,-1.49991c-1.39431,-0.45575 -13.31908,25.73974 -15.26078,25.1051c-0.50561,-0.16526 3.01833,-7.67245 5.3905,-14.62606c2.24152,-6.5707 2.24521,-12.97136 1.70603,-13.14759c-29.31034,-9.58039 -101.07124,-33.03618 -128.69051,-42.06383c-2.43427,-0.79567 -6.10434,10.11183 -7.52697,9.02097c-3.6511,-2.79961 -1.08946,-11.83733 -1.89082,-12.09929c-3.2632,-1.06661 -5.85945,-1.91522 -5.85945,-1.91522z" fill="#000000"/></g></g></g></g></svg>