<svg version="1.1" xmlns="http://www.w3.org/2000/svg" xmlns:xlink="http://www.w3.org/1999/xlink" width="213.18203" height="281.18477" viewBox="0,0,213.18203,281.18477"><defs><linearGradient x1="320.08743" y1="187.07228" x2="320.08743" y2="244.23178" gradientUnits="userSpaceOnUse" id="color-1"><stop offset="0" stop-color="#57596b"/><stop offset="1" stop-color="#57596b" stop-opacity="0"/></linearGradient><linearGradient x1="318.85847" y1="89.01736" x2="318.85847" y2="209.61403" gradientUnits="userSpaceOnUse" id="color-2"><stop offset="0" stop-color="#6b717d" stop-opacity="0.28235"/><stop offset="1" stop-color="#6b717d" stop-opacity="0"/></linearGradient></defs><g transform="translate(-214.52362,-38.88751)"><g stroke-miterlimit="10"><path d="M214.52362,306.61252v-267.72501h213.18203v267.72501z" fill="none" stroke="none" stroke-width="0" stroke-linecap="butt"/><path d="M286.35186,319.07227l15.14285,-131.8421l37.78325,-0.15789l13.57389,132z" fill="#b9bebf" stroke="#000000" stroke-width="0" stroke-linecap="butt"/><path d="M295.01903,243.61118l6.47569,-56.38101l37.78325,-0.15789l5.87786,57.15951z" fill="url(#color-1)" stroke="#000000" stroke-width="0" stroke-linecap="butt"/><path d="M286.35186,319.07227l15.14285,-131.8421l37.78325,-0.15789l13.57389,132z" fill="none" stroke="#000000" stroke-width="2" stroke-linecap="butt"/><path d="M254.62145,149.31569c0,-33.30185 28.7599,-60.29833 64.23702,-60.29833c35.47713,0 64.23702,26.99648 64.23702,60.29833c0,33.30185 -28.75989,60.29834 -64.23702,60.29834c-35.47712,0 -64.23702,-26.99649 -64.23702,-60.29834z" fill="#b9bebf" stroke="#000000" stroke-width="2" stroke-linecap="butt"/><path d="M254.62145,149.31569c0,-33.30185 28.7599,-60.29833 64.23702,-60.29833c35.47713,0 64.23702,26.99648 64.23702,60.29833c0,33.30185 -28.75989,60.29834 -64.23702,60.29834c-35.47712,0 -64.23702,-26.99649 -64.23702,-60.29834z" fill="url(#color-2)" stroke="#000000" stroke-width="2" stroke-linecap="butt"/><path d="M268.24855,149.59131c0,-12.96801 10.51265,-23.48065 23.48066,-23.48065c12.96801,0 23.48065,10.51264 23.48065,23.48065c0,12.96801 -10.51264,23.48066 -23.48065,23.48066c-12.96801,0 -23.48066,-10.51265 -23.48066,-23.48066z" fill="#ffffff" stroke="#000000" stroke-width="2" stroke-linecap="butt"/><path d="M269.73803,149.70072c0,-8.29964 6.72818,-15.02784 15.02783,-15.02784c8.29964,0 15.02784,6.72819 15.02784,15.02785c0,8.29964 -6.72819,15.02785 -15.02784,15.02785c-8.29964,0 -15.02783,-6.72819 -15.02783,-15.02785z" fill="#000000" stroke="#000000" stroke-width="5" stroke-linecap="butt"/><path d="" fill="none" stroke="#000000" stroke-width="2" stroke-linecap="round"/><path d="M345.98768,173.072c-12.96801,0 -23.48065,-10.51265 -23.48065,-23.48066c0,-12.96801 10.51264,-23.48065 23.48065,-23.48065c12.96801,0 23.48066,10.51264 23.48066,23.48065c0,12.96801 -10.51265,23.48066 -23.48066,23.48066z" fill="#ffffff" stroke="#000000" stroke-width="2" stroke-linecap="butt"/><path d="M354.08353,150.10034c0,8.29966 -6.72818,15.02785 -15.02783,15.02785c-8.29964,0 -15.02784,-6.72821 -15.02784,-15.02785c0,-8.29966 6.7282,-15.02785 15.02784,-15.02785c8.29964,0 15.02783,6.7282 15.02783,15.02784z" fill="#000000" stroke="#000000" stroke-width="5" stroke-linecap="butt"/><path d="M280.44756,118.20398c0,0 7.63605,-3.66355 12.8614,-3.77536c5.22537,-0.1118 11.92012,3.24511 11.92012,3.24511c0,0 -7.85042,-1.72795 -11.8858,-1.6416c-4.21712,0.09024 -12.89572,2.17185 -12.89572,2.17185z" fill="#000000" stroke="none" stroke-width="0" stroke-linecap="butt"/><path d="M344.57209,116.0202c-4.03047,-0.21678 -11.93266,1.25644 -11.93266,1.25644c0,0 6.79979,-3.1387 12.0188,-2.858c5.219,0.2807 12.7326,4.18924 12.7326,4.18924c0,0 -8.60675,-2.36113 -12.81875,-2.58768z" fill="#000000" stroke="none" stroke-width="0" stroke-linecap="butt"/><path d="M333.71988,206.51447l-15.77291,-4.89449" fill="none" stroke="#000000" stroke-width="2" stroke-linecap="round"/><path d="M271.71442,137.30702c4.13162,-6.71731 11.55015,-11.19635 20.01482,-11.19635c8.6645,0 16.23287,4.69301 20.30189,11.67579c1.00179,1.71915 -9.17553,-0.88667 -19.69008,-0.97735c-10.69761,-0.09227 -21.73516,2.30019 -20.62663,0.49791z" fill="#b9bebf" stroke="#000000" stroke-width="2" stroke-linecap="butt"/><path d="M325.63673,137.87103c4.05706,-7.02943 11.65151,-11.76035 20.35093,-11.76035c8.52455,0 15.98811,4.54264 20.10201,11.33925c1.00188,1.65522 -8.19728,-1.03241 -18.08107,-0.83814c-11.27108,0.22154 -23.43248,3.09692 -22.37186,1.25924z" fill="#b9bebf" stroke="#000000" stroke-width="2" stroke-linecap="butt"/><g stroke="#000000" stroke-linecap="butt"><path d="M400.80965,100.35485c0,6.65305 -36.51256,12.0464 -81.55309,12.0464c-45.04052,0 -81.55309,-5.39336 -81.55309,-12.0464c0,-6.65305 36.51256,-12.0464 81.55309,-12.0464c45.04053,0 81.55309,5.39336 81.55309,12.0464z" fill="#cad6d8" stroke-width="2"/><path d="M290.62413,110.51487c0,0 -9.66992,-0.56717 -14.21879,-0.99441c-4.46784,-0.41963 -12.83571,-1.54663 -12.83571,-1.54663c0,0 34.34802,-6.72831 45.05838,-10.1436c8.05192,-2.56758 13.53482,-8.54045 13.53482,-8.54045c0,0 15.04141,0.41458 19.27166,0.57322c2.07658,0.07787 4.64393,0.32362 4.64393,0.32362c0,0 -22.03183,5.69003 -31.41046,9.12802c-9.09758,3.33496 -24.04382,11.20023 -24.04382,11.20023z" fill="#faffff" stroke-width="0"/></g><path d="M317.76409,96.41046v-40.05561l-6.60953,-4.93184c0,0 5.37613,2.76173 8.0234,2.76173c2.75014,0 8.18061,-2.76173 8.18061,-2.76173l-6.60953,4.93184v40.05561z" fill="#9ea2a2" stroke="#000000" stroke-width="1.5" stroke-linecap="butt"/></g></g></svg>