<svg version="1.1" xmlns="http://www.w3.org/2000/svg" xmlns:xlink="http://www.w3.org/1999/xlink" width="213.18203" height="281.18476" viewBox="0,0,213.18203,281.18476"><defs><linearGradient x1="320.08742" y1="187.07227" x2="320.08742" y2="244.23177" gradientUnits="userSpaceOnUse" id="color-1"><stop offset="0" stop-color="#2d7a1a" stop-opacity="0.73333"/><stop offset="1" stop-color="#2d7a1a" stop-opacity="0"/></linearGradient></defs><g transform="translate(-214.52362,-38.88751)"><g stroke-miterlimit="10"><g stroke="#000000" stroke-linecap="butt"><path d="M286.35186,319.07226l15.14285,-131.8421l37.78325,-0.15789l13.57389,132z" fill="#a2f30f" stroke-width="0"/><path d="M295.01902,243.61117l6.47569,-56.38101l37.78325,-0.15789l5.87786,57.15951z" fill="url(#color-1)" stroke-width="0"/><path d="M286.35186,319.07226l15.14285,-131.8421l37.78325,-0.15789l13.57389,132z" fill="none" stroke-width="2"/></g><path d="M214.52362,306.61252v-267.72501h213.18203v267.72501z" fill="none" stroke="none" stroke-width="0" stroke-linecap="butt"/><g fill="#a2f30f" stroke="#000000" stroke-width="2"><path d="M255.36488,154.07225c0,-33.30185 28.7599,-60.29833 64.23702,-60.29833c35.47713,0 64.23702,26.99648 64.23702,60.29833c0,33.30185 -28.75989,60.29834 -64.23702,60.29834c-35.47712,0 -64.23702,-26.99649 -64.23702,-60.29834z" stroke-linecap="butt"/><path d="M256.61579,166.4325l-19.24017,-61.51434l13.27843,7.85866l-3.79384,-53.1137l48.23592,26.55685l-5.96174,-34.14452l20.05313,19.78214l4.06482,-13.00744l13.8204,23.034l14.63337,-20.32412l34.95749,64.7662" stroke-linecap="round"/></g><path d="" fill="none" stroke="#000000" stroke-width="2" stroke-linecap="round"/><path d="M313.46875,165.61954l-4.55222,14.63337" fill="none" stroke="#81c10c" stroke-width="2" stroke-linecap="round"/><path d="M324.90484,164.2646l4.6068,14.63337" fill="none" stroke="#81c10c" stroke-width="2" stroke-linecap="round"/><path d="M268.99199,157.87072c0,-12.96801 10.51265,-23.48065 23.48066,-23.48065c12.96801,0 23.48065,10.51264 23.48065,23.48065c0,12.96801 -10.51264,23.48066 -23.48065,23.48066c-12.96801,0 -23.48066,-10.51265 -23.48066,-23.48066z" fill="#81c10c" stroke="none" stroke-width="0" stroke-linecap="butt"/><path d="M346.73111,181.3514c-12.96801,0 -23.48065,-10.51265 -23.48065,-23.48066c0,-12.96801 10.51264,-23.48065 23.48065,-23.48065c12.96801,0 23.48066,10.51264 23.48066,23.48065c0,12.96801 -10.51265,23.48066 -23.48066,23.48066z" fill="#81c10c" stroke="none" stroke-width="0" stroke-linecap="butt"/><path d="M268.99199,154.34787c0,-12.96801 10.51265,-23.48065 23.48066,-23.48065c12.96801,0 23.48065,10.51264 23.48065,23.48065c0,12.96801 -10.51264,23.48066 -23.48065,23.48066c-12.96801,0 -23.48066,-10.51265 -23.48066,-23.48066z" fill="#ffffff" stroke="#000000" stroke-width="2" stroke-linecap="butt"/><path d="M346.73111,177.82855c-12.96801,0 -23.48065,-10.51265 -23.48065,-23.48066c0,-12.96801 10.51264,-23.48065 23.48065,-23.48065c12.96801,0 23.48066,10.51264 23.48066,23.48065c0,12.96801 -10.51265,23.48066 -23.48066,23.48066z" fill="#ffffff" stroke="#000000" stroke-width="2" stroke-linecap="butt"/><path d="M362.05645,154.9251c0,8.29966 -6.72818,15.02785 -15.02783,15.02785c-8.29964,0 -15.02784,-6.72821 -15.02784,-15.02785c0,-8.29966 6.7282,-15.02785 15.02784,-15.02785c8.29964,0 15.02783,6.7282 15.02783,15.02784z" fill="#000000" stroke="#000000" stroke-width="5" stroke-linecap="butt"/><path d="M277.52119,154.0985c0,-8.04583 6.52242,-14.56827 14.56825,-14.56827c8.04583,0 14.56827,6.52242 14.56827,14.56827c0,8.04583 -6.52242,14.56827 -14.56827,14.56827c-8.04583,0 -14.56825,-6.52242 -14.56825,-14.56827z" fill="none" stroke="#000000" stroke-width="5" stroke-linecap="butt"/><path d="M285.3514,153.84352c0,-3.80508 3.08462,-6.88971 6.8897,-6.88971c3.80508,0 6.88971,3.08462 6.88971,6.88971c0,3.80508 -3.08462,6.88971 -6.88971,6.88971c-3.80508,0 -6.8897,-3.08462 -6.8897,-6.88971z" fill="none" stroke="#000000" stroke-width="5" stroke-linecap="butt"/><path d="M356.83696,202.53606l3.59876,12.42822l-82.94286,-0.15732l4.79835,-11.4843" fill="#a2f30f" stroke="#000000" stroke-width="2" stroke-linecap="round"/><path d="M283.49079,212.44718l5.31245,-16.59718l62.72125,0.23598l4.62697,16.51852z" fill="#ffffff" stroke="#000000" stroke-width="2" stroke-linecap="round"/><path d="M285.54722,206.31173l10.45355,-7.07936l8.56848,8.96719l10.96765,-8.73121l8.22573,7.07936l9.76807,-7.23668l8.73984,6.84338l3.77013,-6.68607l7.02615,6.52875" fill="none" stroke="#000000" stroke-width="2" stroke-linecap="round"/></g></g></svg>