<svg version="1.1" xmlns="http://www.w3.org/2000/svg" xmlns:xlink="http://www.w3.org/1999/xlink" width="213.18203" height="281.18476" viewBox="0,0,213.18203,281.18476"><g transform="translate(-214.52362,-38.88751)"><g stroke-miterlimit="10"><g stroke="#000000"><g stroke-linecap="butt"><path d="M286.35186,319.07226l16.88258,-131.8421l37.78533,-0.15789l11.83207,132z" fill="#000000" stroke-width="0"/><path d="M286.35186,319.07226l16.88258,-131.8421l37.78533,-0.15789l11.83207,132z" fill="none" stroke-width="2"/></g><path d="M323.54879,212.74631l4.1267,43.8677l-6.62957,8.82825l-9.68821,-9.69782l5.50424,-42.78666z" fill="#ffffff" stroke-width="2" stroke-linecap="round"/><path d="M329.22291,207.06341c-0.03174,2.40542 0.35599,4.941 -1.26796,6.55086c-1.71791,1.70301 -5.5202,2.41192 -8.16458,2.41192c-2.25931,0 -5.03045,-0.24684 -6.62622,-1.53439c-2.03758,-1.64402 -2.6064,-4.65244 -2.56977,-7.4284c0.03351,-2.53955 0.64808,-5.88686 2.43325,-7.51773c1.69442,-1.54796 4.4943,-1.44506 6.99929,-1.44506c2.95234,0 6.10987,0.09158 7.78915,2.1537c1.24667,1.53089 1.43468,4.70001 1.40685,6.80909z" fill="#ffffff" stroke-width="2" stroke-linecap="butt"/></g><path d="M214.52362,306.61252v-267.72501h213.18203v267.72501z" fill="none" stroke="none" stroke-width="0" stroke-linecap="butt"/><path d="M258.0836,149.46324c-1.04487,-33.28545 26.85383,-61.17101 62.31348,-62.28413c35.45966,-1.11312 65.05243,24.9677 66.0973,58.25315c1.04487,33.28545 -26.85382,61.17102 -62.31348,62.28414c-35.45965,1.11312 -65.05243,-24.96771 -66.0973,-58.25316z" fill="#000000" stroke="#000000" stroke-width="2" stroke-linecap="butt"/><path d="M271.71264,149.31117c-0.20053,-6.38815 46.73184,-8.04692 46.93819,-1.47345c0.40688,12.96163 -9.77074,23.79894 -22.73236,24.20582c-12.96163,0.40688 -23.79894,-9.77075 -24.20582,-22.73237z" fill="#ffffff" stroke="#000000" stroke-width="2" stroke-linecap="butt"/><path d="M279.643,149.85305c-0.26041,-8.29555 6.25336,-15.23154 14.54892,-15.49195c8.29555,-0.26041 15.23154,6.25337 15.49195,14.54894c0.26041,8.29555 -6.25337,15.23155 -14.54893,15.49196c-8.29555,0.26041 -15.23153,-6.25337 -15.49194,-14.54894z" fill="#000000" stroke="#000000" stroke-width="5" stroke-linecap="butt"/><path d="" fill="none" stroke="#000000" stroke-width="2" stroke-linecap="round"/><path d="M350.15022,170.34116c-12.96163,0.40688 -23.79893,-9.77075 -24.20581,-22.73237c-0.19015,-6.05729 46.72145,-8.37779 46.93819,-1.47345c0.40688,12.96163 -9.77075,23.79894 -22.73237,24.20582z" fill="#ffffff" stroke="#000000" stroke-width="2" stroke-linecap="butt"/><path d="M364.7494,146.96814c0.26041,8.29557 -6.25336,15.23155 -14.54892,15.49196c-8.29555,0.26041 -15.23154,-6.25339 -15.49195,-14.54894c-0.26041,-8.29557 6.25338,-15.23155 14.54893,-15.49196c8.29555,-0.26041 15.23153,6.25338 15.49194,14.54893z" fill="#000000" stroke="#000000" stroke-width="5" stroke-linecap="butt"/><path d="M264.20902,123.4763l-15.70933,-54.80573c0,0 44.8809,-6.16342 66.84467,-8.26782c21.30942,-2.04171 63.03428,-4.17619 63.03428,-4.17619l-0.22011,56.79339z" fill="#000000" stroke="#000000" stroke-width="2" stroke-linecap="butt"/><path d="M264.97138,122.64669l-2.87801,-8.87126l115.5558,-7.63741l-0.10811,8.965z" fill="#ffffff" stroke="#000000" stroke-width="0" stroke-linecap="butt"/><path d="M248.32247,130.54002c0,0 -3.03549,-3.07515 -3.85524,-4.90966c-0.87565,-1.9596 -1.24203,-6.49743 -1.24203,-6.49743l155.90733,-9.69578c0,0 -0.28613,3.5847 -0.83331,5.50294c-0.59438,2.08367 -2.6031,6.54393 -2.6031,6.54393z" fill="#000000" stroke="#000000" stroke-width="2" stroke-linecap="butt"/></g></g></svg>