<svg version="1.1" xmlns="http://www.w3.org/2000/svg" xmlns:xlink="http://www.w3.org/1999/xlink" width="214.06855" height="295.44033" viewBox="0,0,214.06855,295.44033"><g transform="translate(-213.63715,-38.88751)"><g stroke-miterlimit="10"><path d="M339.11623,296.93773c-0.61998,-0.42206 -0.19792,-1.04203 -0.19792,-1.04203l0.55957,-0.82198c1.13454,-1.66629 2.33933,-3.27978 3.5316,-4.90509c6.44455,-7.93514 13.88047,-14.97726 20.44162,-22.85064c2.97866,-3.5744 4.1909,-7.12628 5.80037,-11.48133c0.95942,-2.59608 2.11714,-4.60666 0.3473,-7.21188c-1.4588,-2.14737 -4.68652,-4.049 -6.65894,-5.76691c-2.81071,-2.45505 -6.97053,-6.54648 -8.62734,-9.88956c-2.73219,-5.51299 -1.47622,-12.20333 0.26096,-17.71249c1.94089,-3.8967 4.18492,-7.58178 7.01242,-10.90931c2.70542,-3.18385 6.01932,-5.94735 8.51605,-9.28639c0,0 0.45,-0.6 1.05,-0.15c0.6,0.45 0.15,1.05 0.15,1.05c-5.16211,6.86363 -11.39388,12.00255 -15.33759,19.85736c-1.59246,5.10697 -2.84573,11.36511 -0.30761,16.48524c1.564,3.15504 5.60086,7.10796 8.26828,9.42404c2.08008,1.81168 5.3701,3.78173 6.91453,6.05514c2.04622,3.01206 0.93882,5.54448 -0.18106,8.57476c-1.66595,4.50786 -2.96257,8.21068 -6.05503,11.92164c-6.54926,7.85912 -13.97096,14.88968 -20.4067,22.8071c-1.17407,1.60152 -2.36147,3.19074 -3.4789,4.83245l-0.55957,0.82198c0,0 -0.42206,0.61997 -1.04203,0.19792z" fill="#000000" stroke="none" stroke-width="0" stroke-linecap="butt"/><g stroke-linecap="butt"><path d="M384.90223,303.97715v-92.407h9.3835v92.407z" fill="#ab4a1e" stroke="#000000" stroke-width="0"/><path d="M384.90223,259.92513v-48.35498h9.3835v48.35498z" fill="#9a441c" stroke="#000000" stroke-width="0"/><path d="M384.90223,247.94982v-36.37967h9.3835v36.37967z" fill="#933b1b" stroke="#000000" stroke-width="0"/><path d="M384.90223,235.00427c0,-9.86977 0,-23.43412 0,-23.43412h9.3835c0,0 0,13.69377 0,23.62351c0,0.15541 -9.3835,-0.07963 -9.3835,-0.18939z" fill="#7c3116" stroke="#000000" stroke-width="0"/><path d="M392.34205,236.59748c-0.82842,0 -1.5,-0.67157 -1.5,-1.5c0,-0.82843 0.67158,-1.5 1.5,-1.5c0.82842,0 1.5,0.67157 1.5,1.5c0,0.82843 -0.67158,1.5 -1.5,1.5z" fill="#7c3116" stroke="none" stroke-width="0.5"/><path d="M388.36473,233.93822c0.25898,-0.21292 0.59054,-0.34074 0.95197,-0.34074c0.82842,0 1.5,0.67157 1.5,1.5c0,0.82843 -0.67158,1.5 -1.5,1.5c-0.44424,0 -0.84337,-0.19311 -1.11803,-0.49997c-0.25898,0.21292 -0.59054,0.34074 -0.95197,0.34074c-0.82842,0 -1.5,-0.67157 -1.5,-1.5c0,-0.82843 0.67158,-1.5 1.5,-1.5c0.44424,0 0.84337,0.19312 1.11803,0.49998z" fill="#7c3116" stroke="none" stroke-width="0.5"/><path d="M392.50132,241.8298c-0.55228,0 -1,-0.44771 -1,-1c0,-0.55229 0.44772,-1 1,-1c0.55228,0 1,0.44771 1,1c0,0.55229 -0.44772,1 -1,1z" fill="#7c3116" stroke="none" stroke-width="0.5"/><path d="M388.52054,245.49211c-0.55228,0 -1,-0.44771 -1,-1c0,-0.55229 0.44772,-1 1,-1c0.55228,0 1,0.44771 1,1c0,0.55229 -0.44772,1 -1,1z" fill="#7c3116" stroke="none" stroke-width="0.5"/><path d="M386.45054,240.07826c-0.55228,0 -1,-0.44771 -1,-1c0,-0.55229 0.44772,-1 1,-1c0.55228,0 1,0.44771 1,1c0,0.55229 -0.44772,1 -1,1z" fill="#7c3116" stroke="none" stroke-width="0.5"/><path d="M392.50132,246.10673c-0.27614,0 -0.5,-0.22386 -0.5,-0.5c0,-0.27614 0.22386,-0.5 0.5,-0.5c0.27614,0 0.5,0.22386 0.5,0.5c0,0.27614 -0.22386,0.5 -0.5,0.5z" fill="#7c3116" stroke="none" stroke-width="0.5"/><path d="M388.04282,247.22135c-0.27614,0 -0.5,-0.22386 -0.5,-0.5c0,-0.27614 0.22386,-0.5 0.5,-0.5c0.27614,0 0.5,0.22386 0.5,0.5c0,0.27614 -0.22386,0.5 -0.5,0.5z" fill="#7c3116" stroke="none" stroke-width="0.5"/><path d="M385.65437,244.19596c-0.27614,0 -0.5,-0.22386 -0.5,-0.5c0,-0.27614 0.22386,-0.5 0.5,-0.5c0.27614,0 0.5,0.22386 0.5,0.5c0,0.27614 -0.22386,0.5 -0.5,0.5z" fill="#7c3116" stroke="none" stroke-width="0.5"/><path d="M392.50132,249.97289c-0.82842,0 -1.5,-0.67157 -1.5,-1.5c0,-0.82843 0.67158,-1.5 1.5,-1.5c0.82842,0 1.5,0.67157 1.5,1.5c0,0.82843 -0.67158,1.5 -1.5,1.5z" fill="#933b1b" stroke="none" stroke-width="0.5"/><path d="M386.56671,250.13152c-0.80851,-0.0228 -1.45694,-0.68537 -1.45694,-1.4994c0,-0.82843 0.67158,-1.5 1.5,-1.5c0.61082,0 1.13637,0.36509 1.37032,0.88897c0.27472,-0.34751 0.70001,-0.57051 1.17738,-0.57051c0.82842,0 1.5,0.67157 1.5,1.5c0,0.82843 -0.67158,1.5 -1.5,1.5c-0.34517,0 -0.66312,-0.11658 -0.9166,-0.31253c-0.17892,0.27081 -0.48607,0.44946 -0.83495,0.44946c-0.35167,0 -0.66094,-0.18152 -0.83922,-0.45599z" fill="#933b1b" stroke="none" stroke-width="0.5"/><path d="M391.38666,253.6129c-0.55228,0 -1,-0.44771 -1,-1c0,-0.55229 0.44772,-1 1,-1c0.55228,0 1,0.44771 1,1c0,0.55229 -0.44772,1 -1,1z" fill="#933b1b" stroke="none" stroke-width="0.5"/><path d="M386.6294,251.46334c0.14279,-0.37787 0.5079,-0.64659 0.93576,-0.64659c0.55228,0 1,0.44771 1,1c0,0.50491 -0.3742,0.92242 -0.8604,0.99033c-0.14279,0.37787 -0.50789,0.64659 -0.93576,0.64659c-0.55228,0 -1,-0.44771 -1,-1c0,-0.50491 0.37419,-0.92242 0.86039,-0.99033z" fill="#933b1b" stroke="none" stroke-width="0.5"/><path d="M386.92819,258.04906c-0.27614,0 -0.5,-0.22386 -0.5,-0.5c0,-0.27614 0.22386,-0.5 0.5,-0.5c0.27614,0 0.5,0.22386 0.5,0.5c0,0.27614 -0.22386,0.5 -0.5,0.5z" fill="#933b1b" stroke="none" stroke-width="0.5"/><path d="M391.38666,255.97906c-0.27614,0 -0.5,-0.22386 -0.5,-0.5c0,-0.27614 0.22386,-0.5 0.5,-0.5c0.27614,0 0.5,0.22386 0.5,0.5c0,0.27614 -0.22386,0.5 -0.5,0.5z" fill="#933b1b" stroke="none" stroke-width="0.5"/><path d="M388.20208,255.34213c-0.27614,0 -0.5,-0.22386 -0.5,-0.5c0,-0.27614 0.22386,-0.5 0.5,-0.5c0.27614,0 0.5,0.22386 0.5,0.5c0,0.27614 -0.22386,0.5 -0.5,0.5z" fill="#933b1b" stroke="none" stroke-width="0.5"/><path d="M387.18136,258.93649c0.22951,0.039 0.44126,0.13014 0.62264,0.2608c0.24642,-0.1775 0.54889,-0.28207 0.87578,-0.28207c0.15222,0 0.29915,0.02267 0.43759,0.06484c0.27514,-0.33146 0.69028,-0.54253 1.15472,-0.54253c0.56709,0 1.06069,0.31471 1.31567,0.779c0.22234,-0.5501 0.76147,-0.93822 1.39126,-0.93822c0.82842,0 1.5,0.67158 1.5,1.5c0,0.82842 -0.67158,1.5 -1.5,1.5c-0.56709,0 -1.0607,-0.3147 -1.31567,-0.77899c-0.22234,0.5501 -0.76147,0.93822 -1.39126,0.93822c-0.15222,0 -0.29916,-0.02267 -0.4376,-0.06483c-0.27514,0.33146 -0.69027,0.54252 -1.15471,0.54252c-0.32689,0 -0.62936,-0.10456 -0.87578,-0.28206c-0.24642,0.1775 -0.54888,0.28206 -0.87577,0.28206c-0.82842,0 -1.5,-0.67158 -1.5,-1.5c0,-0.16503 0.02666,-0.32385 0.07589,-0.47236c-0.03474,-0.10155 -0.05358,-0.21047 -0.05358,-0.32379c0,-0.55228 0.44772,-1 1,-1c0.28841,0 0.54831,0.1221 0.73082,0.31743z" fill="#9a441c" stroke="none" stroke-width="0.5"/><path d="M391.70515,264.9183c-0.55228,0 -1,-0.44772 -1,-1c0,-0.55228 0.44772,-1 1,-1c0.55228,0 1,0.44772 1,1c0,0.55228 -0.44772,1 -1,1z" fill="#9a441c" stroke="none" stroke-width="0.5"/><path d="M386.92819,264.44061c-0.55228,0 -1,-0.44772 -1,-1c0,-0.55228 0.44772,-1 1,-1c0.55228,0 1,0.44772 1,1c0,0.55228 -0.44772,1 -1,1z" fill="#9a441c" stroke="none" stroke-width="0.5"/><path d="M392.34205,267.60293c-0.27614,0 -0.5,-0.22386 -0.5,-0.5c0,-0.27614 0.22386,-0.5 0.5,-0.5c0.27614,0 0.5,0.22386 0.5,0.5c0,0.27614 -0.22386,0.5 -0.5,0.5z" fill="#9a441c" stroke="none" stroke-width="0.5"/><path d="M389.47592,265.69216c-0.27614,0 -0.5,-0.22386 -0.5,-0.5c0,-0.27614 0.22386,-0.5 0.5,-0.5c0.27614,0 0.5,0.22386 0.5,0.5c0,0.27614 -0.22386,0.5 -0.5,0.5z" fill="#9a441c" stroke="none" stroke-width="0.5"/><path d="M388.83901,268.23985c-0.27614,0 -0.5,-0.22386 -0.5,-0.5c0,-0.27614 0.22386,-0.5 0.5,-0.5c0.27614,0 0.5,0.22386 0.5,0.5c0,0.27614 -0.22386,0.5 -0.5,0.5z" fill="#9a441c" stroke="none" stroke-width="0.5"/><path d="M387.56516,269.83216c-0.27614,0 -0.5,-0.22386 -0.5,-0.5c0,-0.27614 0.22386,-0.5 0.5,-0.5c0.27614,0 0.5,0.22386 0.5,0.5c0,0.27614 -0.22386,0.5 -0.5,0.5z" fill="#9a441c" stroke="none" stroke-width="0.5"/></g><g stroke-linecap="butt"><path d="M402.0709,334.32784v-122.75769h12.46546v122.75769z" fill="#ab4a1e" stroke="#000000" stroke-width="0"/><path d="M402.0709,275.80711v-64.23696h12.46546v64.23696z" fill="#9a441c" stroke="#000000" stroke-width="0"/><path d="M402.0709,255.73204v-44.16189h12.46546v44.16189z" fill="#933b1b" stroke="#000000" stroke-width="0"/><path d="M402.0709,231.91601c0,-6.98777 0,-20.34586 0,-20.34586h12.46546c0,0 0,13.51597 0,20.34586c0,0.01328 -12.46546,0.06137 -12.46546,0z" fill="#7c3116" stroke="#000000" stroke-width="0"/><path d="M413.09654,233.41286c-0.82842,0 -1.5,-0.67157 -1.5,-1.5c0,-0.82843 0.67158,-1.5 1.5,-1.5c0.82842,0 1.5,0.67157 1.5,1.5c0,0.82843 -0.67158,1.5 -1.5,1.5z" fill="#7c3116" stroke="none" stroke-width="0.5"/><path d="M408.7973,233.25363c-0.82842,0 -1.5,-0.67157 -1.5,-1.5c0,-0.82843 0.67158,-1.5 1.5,-1.5c0.82842,0 1.5,0.67157 1.5,1.5c0,0.82843 -0.67158,1.5 -1.5,1.5z" fill="#7c3116" stroke="none" stroke-width="0.5"/><path d="M404.1796,229.8536c0.15004,-0.05037 0.31068,-0.07767 0.47769,-0.07767c0.82842,0 1.5,0.67157 1.5,1.5c0,0.82843 -0.67158,1.5 -1.5,1.5c-0.16701,0 -0.32765,-0.0273 -0.47769,-0.07766c-0.15004,0.05037 -0.31069,0.07766 -0.4777,0.07766c-0.82842,0 -1.5,-0.67157 -1.5,-1.5c0,-0.82843 0.67158,-1.5 1.5,-1.5c0.16701,0 0.32765,0.0273 0.4777,0.07767z" fill="#7c3116" stroke="none" stroke-width="0.5"/><path d="M412.93731,236.57517c-0.55228,0 -1,-0.44771 -1,-1c0,-0.55229 0.44772,-1 1,-1c0.55228,0 1,0.44771 1,1c0,0.55229 -0.44772,1 -1,1z" fill="#7c3116" stroke="none" stroke-width="0.5"/><path d="M409.91191,236.89363c-0.55228,0 -1,-0.44771 -1,-1c0,-0.55229 0.44772,-1 1,-1c0.55228,0 1,0.44771 1,1c0,0.55229 -0.44772,1 -1,1z" fill="#7c3116" stroke="none" stroke-width="0.5"/><path d="M405.77191,238.96364c-0.55228,0 -1,-0.44771 -1,-1c0,-0.55229 0.44772,-1 1,-1c0.55228,0 1,0.44771 1,1c0,0.55229 -0.44772,1 -1,1z" fill="#7c3116" stroke="none" stroke-width="0.5"/><path d="M411.98192,241.3298c-0.27614,0 -0.5,-0.22386 -0.5,-0.5c0,-0.27614 0.22386,-0.5 0.5,-0.5c0.27614,0 0.5,0.22386 0.5,0.5c0,0.27614 -0.22386,0.5 -0.5,0.5z" fill="#7c3116" stroke="none" stroke-width="0.5"/><path d="M408.63807,242.12595c-0.27614,0 -0.5,-0.22386 -0.5,-0.5c0,-0.27614 0.22386,-0.5 0.5,-0.5c0.27614,0 0.5,0.22386 0.5,0.5c0,0.27614 -0.22386,0.5 -0.5,0.5z" fill="#7c3116" stroke="none" stroke-width="0.5"/><path d="M406.40883,246.26596c-0.27614,0 -0.5,-0.22386 -0.5,-0.5c0,-0.27614 0.22386,-0.5 0.5,-0.5c0.27614,0 0.5,0.22386 0.5,0.5c0,0.27614 -0.22386,0.5 -0.5,0.5z" fill="#7c3116" stroke="none" stroke-width="0.5"/><path d="M412.45961,257.13829c-0.82842,0 -1.5,-0.67157 -1.5,-1.5c0,-0.82843 0.67158,-1.5 1.5,-1.5c0.82842,0 1.5,0.67157 1.5,1.5c0,0.82843 -0.67158,1.5 -1.5,1.5z" fill="#933b1b" stroke="none" stroke-width="0.5"/><path d="M404.58744,254.63337c0.21059,-0.11271 0.45122,-0.17661 0.70677,-0.17661c0.42204,0 0.80338,0.1743 1.07594,0.45484c0.25588,-0.46117 0.74775,-0.7733 1.31252,-0.7733c0.29249,0 0.56543,0.08371 0.79615,0.22849c0.23073,-0.14478 0.50367,-0.22849 0.79616,-0.22849c0.82842,0 1.5,0.67157 1.5,1.5c0,0.82843 -0.67158,1.5 -1.5,1.5c-0.29249,0 -0.56543,-0.08372 -0.79616,-0.2285c-0.23073,0.14477 -0.50367,0.2285 -0.79615,0.2285c-0.42204,0 -0.80337,-0.1743 -1.07593,-0.45484c-0.22059,0.39757 -0.61657,0.68437 -1.08345,0.75592c-0.21059,0.11271 -0.45122,0.17661 -0.70678,0.17661c-0.82842,0 -1.5,-0.67158 -1.5,-1.5c0,-0.75054 0.55123,-1.37232 1.27092,-1.48261z" fill="#933b1b" stroke="none" stroke-width="0.5"/><path d="M410.3896,260.30061c-0.55228,0 -1,-0.44772 -1,-1c0,-0.55228 0.44772,-1 1,-1c0.55228,0 1,0.44772 1,1c0,0.55228 -0.44772,1 -1,1z" fill="#933b1b" stroke="none" stroke-width="0.5"/><path d="M404.81652,260.14137c-0.55228,0 -1,-0.44772 -1,-1c0,-0.55228 0.44772,-1 1,-1c0.55228,0 1,0.44772 1,1c0,0.55228 -0.44772,1 -1,1z" fill="#933b1b" stroke="none" stroke-width="0.5"/><path d="M411.66342,263.30368c-0.27614,0 -0.5,-0.22386 -0.5,-0.5c0,-0.27614 0.22386,-0.5 0.5,-0.5c0.27614,0 0.5,0.22386 0.5,0.5c0,0.27614 -0.22386,0.5 -0.5,0.5z" fill="#933b1b" stroke="none" stroke-width="0.5"/><path d="M406.24956,265.53292c-0.27614,0 -0.5,-0.22386 -0.5,-0.5c0,-0.27614 0.22386,-0.5 0.5,-0.5c0.27614,0 0.5,0.22386 0.5,0.5c0,0.27614 -0.22386,0.5 -0.5,0.5z" fill="#933b1b" stroke="none" stroke-width="0.5"/><path d="M410.23038,269.5137c-0.27614,0 -0.5,-0.22386 -0.5,-0.5c0,-0.27614 0.22386,-0.5 0.5,-0.5c0.27614,0 0.5,0.22386 0.5,0.5c0,0.27614 -0.22386,0.5 -0.5,0.5z" fill="#933b1b" stroke="none" stroke-width="0.5"/><path d="M413.09654,277.51987c-0.82842,0 -1.5,-0.67158 -1.5,-1.5c0,-0.82842 0.67158,-1.5 1.5,-1.5c0.82842,0 1.5,0.67158 1.5,1.5c0,0.82842 -0.67158,1.5 -1.5,1.5z" fill="#9a441c" stroke="none" stroke-width="0.5"/><path d="M409.43422,278.93064c-0.55228,0 -1,-0.44772 -1,-1c0,-0.039 0.00223,-0.07748 0.00657,-0.11532c-0.349,-0.01305 -0.65225,-0.20495 -0.82078,-0.48671c-0.21686,0.1218 -0.46706,0.19126 -0.7335,0.19126c-0.32689,0 -0.62935,-0.10456 -0.87577,-0.28206c-0.24642,0.1775 -0.54888,0.28206 -0.87577,0.28206c-0.08129,0 -0.16106,-0.00646 -0.23884,-0.01891c-0.07778,0.01245 -0.15756,0.01891 -0.23885,0.01891c-0.82842,0 -1.5,-0.67158 -1.5,-1.5c0,-0.82842 0.67158,-1.5 1.5,-1.5c0.08129,0 0.16107,0.00647 0.23885,0.01891c0.07778,-0.01245 0.15755,-0.01891 0.23884,-0.01891c0.32689,0 0.62935,0.10457 0.87577,0.28207c0.24642,-0.1775 0.54888,-0.28207 0.87577,-0.28207c0.36302,0 0.69592,0.12896 0.95539,0.34356c0.25947,-0.2146 0.59236,-0.34356 0.95538,-0.34356c0.82842,0 1.5,0.67158 1.5,1.5c0,0.39528 -0.1529,0.75484 -0.40276,1.02278c0.32065,0.16656 0.53969,0.50169 0.53969,0.88799c0,0.55228 -0.44772,1 -1,1z" fill="#9a441c" stroke="none" stroke-width="0.5"/><path d="M412.14115,282.91142c-0.55228,0 -1,-0.44772 -1,-1c0,-0.55228 0.44772,-1 1,-1c0.55228,0 1,0.44772 1,1c0,0.55228 -0.44772,1 -1,1z" fill="#9a441c" stroke="none" stroke-width="0.5"/><path d="M404.65729,281.00065c-0.55228,0 -1,-0.44772 -1,-1c0,-0.55228 0.44772,-1 1,-1c0.55228,0 1,0.44772 1,1c0,0.55228 -0.44772,1 -1,1z" fill="#9a441c" stroke="none" stroke-width="0.5"/><path d="M413.45009,292.45576l-0.47769,0.47769c0,0 -0.35356,0.35355 -0.70711,0c-0.35355,-0.35355 0,-0.70711 0,-0.70711l0.47769,-0.47769c0,0 0.35355,-0.35355 0.70711,0c0.35355,0.35355 0,0.70711 0,0.70711z" fill="#9a441c" stroke="none" stroke-width="0.5"/><path d="M411.34499,286.23296c-0.27614,0 -0.5,-0.22386 -0.5,-0.5c0,-0.27614 0.22386,-0.5 0.5,-0.5c0.27614,0 0.5,0.22386 0.5,0.5c0,0.27614 -0.22386,0.5 -0.5,0.5z" fill="#9a441c" stroke="none" stroke-width="0.5"/><path d="M407.68268,284.16296c-0.27614,0 -0.5,-0.22386 -0.5,-0.5c0,-0.27614 0.22386,-0.5 0.5,-0.5c0.27614,0 0.5,0.22386 0.5,0.5c0,0.27614 -0.22386,0.5 -0.5,0.5z" fill="#9a441c" stroke="none" stroke-width="0.5"/><path d="M403.38344,288.30297c-0.27614,0 -0.5,-0.22386 -0.5,-0.5c0,-0.27614 0.22386,-0.5 0.5,-0.5c0.27614,0 0.5,0.22386 0.5,0.5c0,0.27614 -0.22386,0.5 -0.5,0.5z" fill="#9a441c" stroke="none" stroke-width="0.5"/><path d="M407.20499,289.57682c-0.27614,0 -0.5,-0.22386 -0.5,-0.5c0,-0.27614 0.22386,-0.5 0.5,-0.5c0.27614,0 0.5,0.22386 0.5,0.5c0,0.27614 -0.22386,0.5 -0.5,0.5z" fill="#9a441c" stroke="none" stroke-width="0.5"/></g><path d="M338.45851,181.4817c0.74999,0.00418 0.74581,0.75417 0.74581,0.75417l-0.00814,1.46102c-0.11987,9.52776 -8.82394,15.60647 -15.45445,21.34607c-8.08195,5.72539 -16.66397,14.79315 -26.94308,14.79315c-6.37581,0 -12.61726,-0.0549 -18.96597,-0.65384c-4.51772,-0.4262 -7.61587,-0.64469 -11.47758,-3.11824c-1.94173,-3.81196 -2.02153,-7.73198 -1.24603,-11.64295c-1.64443,3.71149 -3.28798,7.42335 -4.93232,11.13487c-1.30809,2.95254 -0.49984,4.37804 0.61255,7.35771c0.25293,0.67751 0.70851,3.06297 1.24534,3.51164c1.19873,1.00187 3.81591,1.53707 5.28094,2.15281c3.68755,1.54984 7.37509,3.09968 11.06264,4.64952c2.96819,1.2475 6.07492,0.6476 9.27591,0.51423c3.8942,-0.16226 8.05892,0.07894 11.91084,-0.49211c2.88175,-0.42722 5.81329,-1.5055 8.6366,-2.23458c1.90138,-0.491 5.20305,-0.67811 6.83091,-1.73145c1.78836,-1.15719 3.42668,-3.82631 4.8699,-5.4181c3.69429,-4.07459 7.38858,-8.14916 11.08287,-12.22375c3.89976,-4.30121 6.15544,-10.22515 8.83446,-15.36892c0.71226,-1.36756 3.00599,-4.2739 3.04345,-5.76288c0.04759,-1.89105 -0.88142,-3.34619 -1.79264,-4.8995c-0.1621,-0.24516 -0.32419,-0.49032 -0.48629,-0.73548l-0.4923,-0.48713c0,0 -0.53033,-0.53033 0,-1.06066c0.53033,-0.53033 1.06066,0 1.06066,0l0.59165,0.59682c0.19922,0.29682 0.39844,0.59364 0.59766,0.89046c1.08582,1.84899 2.17019,3.67525 2.00119,5.94004c-0.13654,1.82987 -2.34177,4.57685 -3.193,6.21124c-2.74253,5.2657 -5.05949,11.27831 -9.05358,15.68356c-3.69429,4.07459 -7.38858,8.14916 -11.08287,12.22375c-1.54199,1.70072 -3.27425,4.46825 -5.20543,5.6944c-1.80585,1.14658 -5.15307,1.36321 -7.23158,1.89996c-2.87541,0.74253 -5.85608,1.8308 -8.79167,2.26601c-3.9061,0.57908 -8.12018,0.34251 -12.06836,0.50702c-3.44177,0.14341 -6.71131,0.7183 -9.91955,-0.63009c-3.68754,-1.54984 -7.37509,-3.09968 -11.06264,-4.64952c-1.62132,-0.68142 -4.49014,-1.31558 -5.7817,-2.49671c-0.1374,-0.12565 -1.02181,-2.56118 -1.04403,-2.62069c-1.3723,-3.67587 -2.77013,-6.133 -1.10334,-9.89519c3.55629,-8.02706 7.10889,-16.05576 10.67462,-24.07864c0,0 0.24598,-0.55346 0.79321,-0.44461c0.11921,-0.02356 0.2606,-0.01524 0.42648,0.04697c0.70225,0.26334 0.4389,0.96559 0.4389,0.96559c-1.82454,4.86544 -3.84145,9.79644 -4.83031,14.89879c-0.34751,1.79312 -0.8234,3.69176 -0.33681,5.5215c0.2883,1.0841 1.06199,2.15994 1.50035,3.20454c3.5639,2.07692 6.38022,2.23758 10.50181,2.62641c6.30212,0.59454 12.49577,0.64721 18.82509,0.64721c6.41884,0 10.01033,-2.98365 15.0432,-6.67786c3.61641,-2.65451 7.31063,-5.20697 10.9744,-7.79573c6.22769,-5.4041 14.76716,-11.21516 14.88,-20.17924l0.00811,-1.45575c0,0 0.00417,-0.74999 0.75417,-0.74581z" fill="#000000" stroke="none" stroke-width="0" stroke-linecap="butt"/><g stroke-linecap="butt"><path d="M248.81919,303.97715v-92.407h9.3835v92.407z" fill="#ab4a1e" stroke="#000000" stroke-width="0"/><path d="M248.81919,259.92513v-48.35498h9.3835v48.35498z" fill="#9a441c" stroke="#000000" stroke-width="0"/><path d="M248.81919,247.94982v-36.37967h9.3835v36.37967z" fill="#933b1b" stroke="#000000" stroke-width="0"/><path d="M248.81919,235.19366c0,-9.92974 0,-23.62351 0,-23.62351h9.3835c0,0 0,13.56435 0,23.43412c0,0.10976 -9.3835,0.3448 -9.3835,0.18939z" fill="#7c3116" stroke="#000000" stroke-width="0"/><path d="M249.26285,235.09748c0,-0.82843 0.67157,-1.5 1.5,-1.5c0.82843,0 1.5,0.67157 1.5,1.5c0,0.82843 -0.67157,1.5 -1.5,1.5c-0.82843,0 -1.5,-0.67157 -1.5,-1.5z" fill="#7c3116" stroke="none" stroke-width="0.5"/><path d="M255.85823,233.43825c0.82843,0 1.5,0.67157 1.5,1.5c0,0.82843 -0.67157,1.5 -1.5,1.5c-0.36143,0 -0.693,-0.12782 -0.95197,-0.34074c-0.27466,0.30686 -0.67379,0.49997 -1.11803,0.49997c-0.82843,0 -1.5,-0.67157 -1.5,-1.5c0,-0.82843 0.67157,-1.5 1.5,-1.5c0.36143,0 0.693,0.12783 0.95197,0.34074c0.27466,-0.30686 0.67379,-0.49998 1.11803,-0.49998z" fill="#7c3116" stroke="none" stroke-width="0.5"/><path d="M249.60358,240.8298c0,-0.55229 0.44771,-1 1,-1c0.55229,0 1,0.44771 1,1c0,0.55229 -0.44771,1 -1,1c-0.55229,0 -1,-0.44771 -1,-1z" fill="#7c3116" stroke="none" stroke-width="0.5"/><path d="M253.5844,244.49211c0,-0.55229 0.44771,-1 1,-1c0.55229,0 1,0.44771 1,1c0,0.55229 -0.44771,1 -1,1c-0.55229,0 -1,-0.44771 -1,-1z" fill="#7c3116" stroke="none" stroke-width="0.5"/><path d="M255.65436,239.07826c0,-0.55229 0.44771,-1 1,-1c0.55228,0 1,0.44771 1,1c0,0.55229 -0.44772,1 -1,1c-0.55228,0 -1,-0.44771 -1,-1z" fill="#7c3116" stroke="none" stroke-width="0.5"/><path d="M250.10358,245.60673c0,-0.27614 0.22386,-0.5 0.5,-0.5c0.27614,0 0.5,0.22386 0.5,0.5c0,0.27614 -0.22386,0.5 -0.5,0.5c-0.27614,0 -0.5,-0.22386 -0.5,-0.5z" fill="#7c3116" stroke="none" stroke-width="0.5"/><path d="M254.56209,246.72135c0,-0.27614 0.22386,-0.5 0.5,-0.5c0.27614,0 0.5,0.22386 0.5,0.5c0,0.27614 -0.22386,0.5 -0.5,0.5c-0.27614,0 -0.5,-0.22386 -0.5,-0.5z" fill="#7c3116" stroke="none" stroke-width="0.5"/><path d="M256.95052,243.69596c0,-0.27614 0.22386,-0.5 0.5,-0.5c0.27614,0 0.5,0.22386 0.5,0.5c0,0.27614 -0.22386,0.5 -0.5,0.5c-0.27614,0 -0.5,-0.22386 -0.5,-0.5z" fill="#7c3116" stroke="none" stroke-width="0.5"/><path d="M249.10358,248.47289c0,-0.82843 0.67157,-1.5 1.5,-1.5c0.82843,0 1.5,0.67157 1.5,1.5c0,0.82843 -0.67157,1.5 -1.5,1.5c-0.82843,0 -1.5,-0.67157 -1.5,-1.5z" fill="#933b1b" stroke="none" stroke-width="0.5"/><path d="M255.69901,250.58751c-0.34887,0 -0.65602,-0.17865 -0.83495,-0.44946c-0.25348,0.19595 -0.57142,0.31253 -0.9166,0.31253c-0.82843,0 -1.5,-0.67157 -1.5,-1.5c0,-0.82843 0.67157,-1.5 1.5,-1.5c0.47737,0 0.90266,0.223 1.17738,0.57051c0.23395,-0.52388 0.7595,-0.88897 1.37032,-0.88897c0.82842,0 1.5,0.67157 1.5,1.5c0,0.81402 -0.64842,1.4766 -1.45693,1.4994c-0.17828,0.27446 -0.48755,0.45599 -0.83922,0.45599z" fill="#933b1b" stroke="none" stroke-width="0.5"/><path d="M250.7182,252.6129c0,-0.55229 0.44771,-1 1,-1c0.55229,0 1,0.44771 1,1c0,0.55229 -0.44771,1 -1,1c-0.55229,0 -1,-0.44771 -1,-1z" fill="#933b1b" stroke="none" stroke-width="0.5"/><path d="M257.33591,252.45367c0,0.55229 -0.44772,1 -1,1c-0.42786,0 -0.79298,-0.26872 -0.93576,-0.64659c-0.4862,-0.06791 -0.8604,-0.48542 -0.8604,-0.99033c0,-0.55229 0.44771,-1 1,-1c0.42786,0 0.79297,0.26872 0.93576,0.64659c0.4862,0.06791 0.8604,0.48542 0.8604,0.99033z" fill="#933b1b" stroke="none" stroke-width="0.5"/><path d="M255.67671,257.54906c0,-0.27614 0.22386,-0.5 0.5,-0.5c0.27614,0 0.5,0.22386 0.5,0.5c0,0.27614 -0.22386,0.5 -0.5,0.5c-0.27614,0 -0.5,-0.22386 -0.5,-0.5z" fill="#933b1b" stroke="none" stroke-width="0.5"/><path d="M251.2182,255.47906c0,-0.27614 0.22386,-0.5 0.5,-0.5c0.27614,0 0.5,0.22386 0.5,0.5c0,0.27614 -0.22386,0.5 -0.5,0.5c-0.27614,0 -0.5,-0.22386 -0.5,-0.5z" fill="#933b1b" stroke="none" stroke-width="0.5"/><path d="M254.40282,254.84213c0,-0.27614 0.22386,-0.5 0.5,-0.5c0.27614,0 0.5,0.22386 0.5,0.5c0,0.27614 -0.22386,0.5 -0.5,0.5c-0.27614,0 -0.5,-0.22386 -0.5,-0.5z" fill="#933b1b" stroke="none" stroke-width="0.5"/><path d="M256.65434,258.61906c0.55228,0 1,0.44772 1,1c0,0.11332 -0.01884,0.22224 -0.05358,0.32379c0.04924,0.14851 0.07589,0.30733 0.07589,0.47236c0,0.82842 -0.67158,1.5 -1.5,1.5c-0.32689,0 -0.62935,-0.10456 -0.87577,-0.28206c-0.24642,0.1775 -0.54889,0.28206 -0.87578,0.28206c-0.46444,0 -0.87957,-0.21107 -1.15471,-0.54252c-0.13844,0.04216 -0.28538,0.06483 -0.4376,0.06483c-0.62978,0 -1.16891,-0.38812 -1.39126,-0.93822c-0.25498,0.46429 -0.74858,0.77899 -1.31567,0.77899c-0.82843,0 -1.5,-0.67158 -1.5,-1.5c0,-0.82842 0.67157,-1.5 1.5,-1.5c0.62978,0 1.16892,0.38813 1.39126,0.93822c0.25498,-0.46429 0.74857,-0.779 1.31567,-0.779c0.46444,0 0.87958,0.21107 1.15472,0.54253c0.13844,-0.04216 0.28537,-0.06484 0.43759,-0.06484c0.32689,0 0.62936,0.10456 0.87578,0.28207c0.18139,-0.13066 0.39314,-0.22179 0.62265,-0.2608c0.18251,-0.19533 0.4424,-0.31743 0.73081,-0.31743z" fill="#9a441c" stroke="none" stroke-width="0.5"/><path d="M250.39977,263.9183c0,-0.55228 0.44771,-1 1,-1c0.55229,0 1,0.44772 1,1c0,0.55228 -0.44771,1 -1,1c-0.55229,0 -1,-0.44772 -1,-1z" fill="#9a441c" stroke="none" stroke-width="0.5"/><path d="M255.17671,263.44061c0,-0.55228 0.44771,-1 1,-1c0.55228,0 1,0.44772 1,1c0,0.55228 -0.44772,1 -1,1c-0.55229,0 -1,-0.44772 -1,-1z" fill="#9a441c" stroke="none" stroke-width="0.5"/><path d="M250.26285,267.10293c0,-0.27614 0.22386,-0.5 0.5,-0.5c0.27614,0 0.5,0.22386 0.5,0.5c0,0.27614 -0.22386,0.5 -0.5,0.5c-0.27614,0 -0.5,-0.22386 -0.5,-0.5z" fill="#9a441c" stroke="none" stroke-width="0.5"/><path d="M253.129,265.19216c0,-0.27614 0.22386,-0.5 0.5,-0.5c0.27614,0 0.5,0.22386 0.5,0.5c0,0.27614 -0.22386,0.5 -0.5,0.5c-0.27614,0 -0.5,-0.22386 -0.5,-0.5z" fill="#9a441c" stroke="none" stroke-width="0.5"/><path d="M253.76591,267.73985c0,-0.27614 0.22386,-0.5 0.5,-0.5c0.27614,0 0.5,0.22386 0.5,0.5c0,0.27614 -0.22386,0.5 -0.5,0.5c-0.27614,0 -0.5,-0.22386 -0.5,-0.5z" fill="#9a441c" stroke="none" stroke-width="0.5"/><path d="M255.03974,269.33216c0,-0.27614 0.22386,-0.5 0.5,-0.5c0.27614,0 0.5,0.22386 0.5,0.5c0,0.27614 -0.22386,0.5 -0.5,0.5c-0.27614,0 -0.5,-0.22386 -0.5,-0.5z" fill="#9a441c" stroke="none" stroke-width="0.5"/></g><g stroke-linecap="butt"><path d="M227.3491,334.32784v-122.75769h12.46546v122.75769z" fill="#ab4a1e" stroke="#000000" stroke-width="0"/><path d="M227.3491,275.80711v-64.23696h12.46546v64.23696z" fill="#9a441c" stroke="#000000" stroke-width="0"/><path d="M227.3491,255.73204v-44.16189h12.46546v44.16189z" fill="#933b1b" stroke="#000000" stroke-width="0"/><path d="M227.3491,231.91601c0,-6.82989 0,-20.34586 0,-20.34586h12.46546c0,0 0,13.35809 0,20.34586c0,0.06137 -12.46546,0.01328 -12.46546,0z" fill="#7c3116" stroke="#000000" stroke-width="0"/><path d="M227.28892,231.91286c0,-0.82843 0.67157,-1.5 1.5,-1.5c0.82843,0 1.5,0.67157 1.5,1.5c0,0.82843 -0.67157,1.5 -1.5,1.5c-0.82843,0 -1.5,-0.67157 -1.5,-1.5z" fill="#7c3116" stroke="none" stroke-width="0.5"/><path d="M231.58817,231.75363c0,-0.82843 0.67157,-1.5 1.5,-1.5c0.82843,0 1.5,0.67157 1.5,1.5c0,0.82843 -0.67157,1.5 -1.5,1.5c-0.82843,0 -1.5,-0.67157 -1.5,-1.5z" fill="#7c3116" stroke="none" stroke-width="0.5"/><path d="M238.18355,229.77593c0.82843,0 1.5,0.67157 1.5,1.5c0,0.82843 -0.67157,1.5 -1.5,1.5c-0.16701,0 -0.32765,-0.0273 -0.47769,-0.07766c-0.15005,0.05037 -0.31068,0.07766 -0.47769,0.07766c-0.82843,0 -1.5,-0.67157 -1.5,-1.5c0,-0.82843 0.67157,-1.5 1.5,-1.5c0.16701,0 0.32765,0.0273 0.47769,0.07767c0.15005,-0.05037 0.31068,-0.07767 0.47769,-0.07767z" fill="#7c3116" stroke="none" stroke-width="0.5"/><path d="M227.94819,235.57517c0,-0.55229 0.44771,-1 1,-1c0.55229,0 1,0.44771 1,1c0,0.55229 -0.44771,1 -1,1c-0.55229,0 -1,-0.44771 -1,-1z" fill="#7c3116" stroke="none" stroke-width="0.5"/><path d="M230.97356,235.89363c0,-0.55229 0.44771,-1 1,-1c0.55229,0 1,0.44771 1,1c0,0.55229 -0.44771,1 -1,1c-0.55229,0 -1,-0.44771 -1,-1z" fill="#7c3116" stroke="none" stroke-width="0.5"/><path d="M235.11359,237.96364c0,-0.55229 0.44771,-1 1,-1c0.55229,0 1,0.44771 1,1c0,0.55229 -0.44771,1 -1,1c-0.55229,0 -1,-0.44771 -1,-1z" fill="#7c3116" stroke="none" stroke-width="0.5"/><path d="M229.40354,240.8298c0,-0.27614 0.22386,-0.5 0.5,-0.5c0.27614,0 0.5,0.22386 0.5,0.5c0,0.27614 -0.22386,0.5 -0.5,0.5c-0.27614,0 -0.5,-0.22386 -0.5,-0.5z" fill="#7c3116" stroke="none" stroke-width="0.5"/><path d="M232.74739,241.62595c0,-0.27614 0.22386,-0.5 0.5,-0.5c0.27614,0 0.5,0.22386 0.5,0.5c0,0.27614 -0.22386,0.5 -0.5,0.5c-0.27614,0 -0.5,-0.22386 -0.5,-0.5z" fill="#7c3116" stroke="none" stroke-width="0.5"/><path d="M234.97662,245.76596c0,-0.27614 0.22386,-0.5 0.5,-0.5c0.27614,0 0.5,0.22386 0.5,0.5c0,0.27614 -0.22386,0.5 -0.5,0.5c-0.27614,0 -0.5,-0.22386 -0.5,-0.5z" fill="#7c3116" stroke="none" stroke-width="0.5"/><path d="M227.92584,255.63829c0,-0.82843 0.67157,-1.5 1.5,-1.5c0.82843,0 1.5,0.67157 1.5,1.5c0,0.82843 -0.67157,1.5 -1.5,1.5c-0.82843,0 -1.5,-0.67157 -1.5,-1.5z" fill="#933b1b" stroke="none" stroke-width="0.5"/><path d="M238.56898,256.11598c0,0.82842 -0.67157,1.5 -1.5,1.5c-0.25555,0 -0.49619,-0.06391 -0.70678,-0.17661c-0.46687,-0.07155 -0.86286,-0.35835 -1.08345,-0.75592c-0.27256,0.28054 -0.65389,0.45484 -1.07593,0.45484c-0.29249,0 -0.56543,-0.08372 -0.79615,-0.2285c-0.23073,0.14477 -0.50367,0.2285 -0.79616,0.2285c-0.82843,0 -1.5,-0.67157 -1.5,-1.5c0,-0.82843 0.67157,-1.5 1.5,-1.5c0.29249,0 0.56543,0.08371 0.79616,0.22849c0.23073,-0.14478 0.50367,-0.22849 0.79615,-0.22849c0.56477,0 1.05665,0.31213 1.31252,0.7733c0.27256,-0.28054 0.6539,-0.45484 1.07594,-0.45484c0.25555,0 0.49618,0.06391 0.70677,0.17661c0.71969,0.11029 1.27092,0.73208 1.27092,1.48261z" fill="#933b1b" stroke="none" stroke-width="0.5"/><path d="M230.49585,259.30061c0,-0.55228 0.44771,-1 1,-1c0.55229,0 1,0.44772 1,1c0,0.55228 -0.44771,1 -1,1c-0.55229,0 -1,-0.44772 -1,-1z" fill="#933b1b" stroke="none" stroke-width="0.5"/><path d="M236.06898,259.14137c0,-0.55228 0.44771,-1 1,-1c0.55229,0 1,0.44772 1,1c0,0.55228 -0.44771,1 -1,1c-0.55229,0 -1,-0.44772 -1,-1z" fill="#933b1b" stroke="none" stroke-width="0.5"/><path d="M229.72203,262.80368c0,-0.27614 0.22386,-0.5 0.5,-0.5c0.27614,0 0.5,0.22386 0.5,0.5c0,0.27614 -0.22386,0.5 -0.5,0.5c-0.27614,0 -0.5,-0.22386 -0.5,-0.5z" fill="#933b1b" stroke="none" stroke-width="0.5"/><path d="M235.13589,265.03292c0,-0.27614 0.22386,-0.5 0.5,-0.5c0.27614,0 0.5,0.22386 0.5,0.5c0,0.27614 -0.22386,0.5 -0.5,0.5c-0.27614,0 -0.5,-0.22386 -0.5,-0.5z" fill="#933b1b" stroke="none" stroke-width="0.5"/><path d="M231.15512,269.0137c0,-0.27614 0.22386,-0.5 0.5,-0.5c0.27614,0 0.5,0.22386 0.5,0.5c0,0.27614 -0.22386,0.5 -0.5,0.5c-0.27614,0 -0.5,-0.22386 -0.5,-0.5z" fill="#933b1b" stroke="none" stroke-width="0.5"/><path d="M227.28892,276.01987c0,-0.82842 0.67157,-1.5 1.5,-1.5c0.82843,0 1.5,0.67158 1.5,1.5c0,0.82842 -0.67157,1.5 -1.5,1.5c-0.82843,0 -1.5,-0.67158 -1.5,-1.5z" fill="#9a441c" stroke="none" stroke-width="0.5"/><path d="M231.45126,277.93064c0,-0.3863 0.21904,-0.72143 0.53969,-0.88799c-0.24987,-0.26794 -0.40277,-0.62751 -0.40277,-1.02278c0,-0.82842 0.67157,-1.5 1.5,-1.5c0.36302,0 0.69592,0.12896 0.95539,0.34356c0.25947,-0.2146 0.59237,-0.34356 0.95539,-0.34356c0.32689,0 0.62935,0.10457 0.87577,0.28207c0.24642,-0.1775 0.54889,-0.28207 0.87577,-0.28207c0.08129,0 0.16107,0.00647 0.23884,0.01891c0.07778,-0.01245 0.15756,-0.01891 0.23885,-0.01891c0.82843,0 1.5,0.67158 1.5,1.5c0,0.82842 -0.67157,1.5 -1.5,1.5c-0.08129,0 -0.16107,-0.00646 -0.23885,-0.01891c-0.07778,0.01245 -0.15756,0.01891 -0.23884,0.01891c-0.32689,0 -0.62935,-0.10456 -0.87577,-0.28206c-0.24642,0.1775 -0.54888,0.28206 -0.87577,0.28206c-0.26643,0 -0.51664,-0.06946 -0.7335,-0.19126c-0.16853,0.28176 -0.47178,0.47366 -0.82078,0.48671c0.00435,0.03784 0.00657,0.07632 0.00657,0.11532c0,0.55228 -0.44771,1 -1,1c-0.55229,0 -1,-0.44772 -1,-1z" fill="#9a441c" stroke="none" stroke-width="0.5"/><path d="M228.74433,281.91142c0,-0.55228 0.44771,-1 1,-1c0.55229,0 1,0.44772 1,1c0,0.55228 -0.44771,1 -1,1c-0.55229,0 -1,-0.44772 -1,-1z" fill="#9a441c" stroke="none" stroke-width="0.5"/><path d="M236.22821,280.00065c0,-0.55228 0.44771,-1 1,-1c0.55229,0 1,0.44772 1,1c0,0.55228 -0.44771,1 -1,1c-0.55229,0 -1,-0.44772 -1,-1z" fill="#9a441c" stroke="none" stroke-width="0.5"/><path d="M228.43541,291.74866c0.35356,-0.35355 0.70711,0 0.70711,0l0.4777,0.47769c0,0 0.35356,0.35356 0,0.70711c-0.35356,0.35355 -0.70711,0 -0.70711,0l-0.47769,-0.47769c0,0 -0.35356,-0.35355 0,-0.70711z" fill="#9a441c" stroke="none" stroke-width="0.5"/><path d="M230.04046,285.73296c0,-0.27614 0.22386,-0.5 0.5,-0.5c0.27614,0 0.5,0.22386 0.5,0.5c0,0.27614 -0.22386,0.5 -0.5,0.5c-0.27614,0 -0.5,-0.22386 -0.5,-0.5z" fill="#9a441c" stroke="none" stroke-width="0.5"/><path d="M233.70278,283.66296c0,-0.27614 0.22386,-0.5 0.5,-0.5c0.27614,0 0.5,0.22386 0.5,0.5c0,0.27614 -0.22386,0.5 -0.5,0.5c-0.27614,0 -0.5,-0.22386 -0.5,-0.5z" fill="#9a441c" stroke="none" stroke-width="0.5"/><path d="M238.00203,287.80297c0,-0.27614 0.22386,-0.5 0.5,-0.5c0.27614,0 0.5,0.22386 0.5,0.5c0,0.27614 -0.22386,0.5 -0.5,0.5c-0.27614,0 -0.5,-0.22386 -0.5,-0.5z" fill="#9a441c" stroke="none" stroke-width="0.5"/><path d="M234.18049,289.07682c0,-0.27614 0.22386,-0.5 0.5,-0.5c0.27614,0 0.5,0.22386 0.5,0.5c0,0.27614 -0.22386,0.5 -0.5,0.5c-0.27614,0 -0.5,-0.22386 -0.5,-0.5z" fill="#9a441c" stroke="none" stroke-width="0.5"/></g><g><path d="M390.56635,196.39479l35.79662,6.7747v11.11052h-212.72581v-11.11052l38.43736,-6.7747z" fill="#ab4a1e" stroke="#000000" stroke-width="0" stroke-linecap="round"/><path d="M390.56635,196.39479c0,0 16.46745,3.11655 23.01942,4.35655c0.05273,0.00998 -186.9758,0.11995 -186.8255,0.09345c5.77626,-1.01808 25.31425,-4.45 25.31425,-4.45z" fill="#933b1b" stroke="#000000" stroke-width="0" stroke-linecap="round"/><path d="M390.56635,196.39479c0,0 7.50319,1.34414 11.60157,2.11978c0.10366,0.01962 -163.06368,0.16627 -162.65855,0.09487c4.93653,-0.87008 12.56515,-2.21465 12.56515,-2.21465z" fill="#7c3116" stroke="#000000" stroke-width="0" stroke-linecap="round"/><path d="M396.23398,197.16552c0.55228,0 1,0.44771 1,1c0,0.10043 -0.01481,0.1974 -0.04235,0.28886c0.157,-0.34673 0.50604,-0.58795 0.91143,-0.58795c0.55228,0 1,0.44771 1,1c0,0.55229 -0.44772,1 -1,1c-0.55228,0 -1,-0.44771 -1,-1c0,-0.10043 0.01481,-0.19741 0.04235,-0.28886c-0.157,0.34673 -0.50605,0.58795 -0.91143,0.58795c-0.21803,0 -0.41976,-0.06978 -0.58409,-0.18822c-0.02042,0.01471 -0.04142,0.02868 -0.06295,0.04185c-0.07353,0.47979 -0.48805,0.84727 -0.98841,0.84727c-0.37491,0 -0.70163,-0.20632 -0.87282,-0.51161c-0.09335,0.02882 -0.19254,0.04434 -0.29535,0.04434c-0.55228,0 -1,-0.44771 -1,-1c0,-0.55229 0.44772,-1 1,-1c0.29214,0 0.55502,0.12527 0.73786,0.32503c0.16303,-0.33095 0.50372,-0.55867 0.89759,-0.55867c0.21803,0 0.41976,0.06978 0.58409,0.18822c0.16433,-0.11844 0.36606,-0.18822 0.58409,-0.18822z" fill="#7c3116" stroke="none" stroke-width="0.5" stroke-linecap="butt"/><path d="M245.53938,197.39916c0.55229,0 1,0.44771 1,1c0,0.55229 -0.44771,1 -1,1c-0.39003,0 -0.7279,-0.22329 -0.89277,-0.54901c-0.09924,0.44777 -0.49867,0.78265 -0.97631,0.78265c-0.55229,0 -1,-0.44771 -1,-1c0,-0.55229 0.44771,-1 1,-1c0.39003,0 0.72791,0.22329 0.89277,0.549c0.09924,-0.44777 0.49867,-0.78264 0.97631,-0.78264z" fill="#7c3116" stroke="none" stroke-width="0.5" stroke-linecap="butt"/><path d="M249.74485,197.16552c0.55229,0 1,0.44771 1,1c0,0.55229 -0.44771,1 -1,1c-0.16879,0 -0.32781,-0.04182 -0.46727,-0.11566c-0.13946,0.07384 -0.29848,0.11566 -0.46727,0.11566c-0.0881,0 -0.17354,-0.01139 -0.25493,-0.03279c-0.17839,0.16535 -0.41719,0.26642 -0.67961,0.26642c-0.55229,0 -1,-0.44771 -1,-1c0,-0.55229 0.44771,-1 1,-1c0.0881,0 0.17354,0.01139 0.25493,0.03278c0.17839,-0.16535 0.41719,-0.26642 0.67961,-0.26642c0.16879,0 0.32781,0.04182 0.46727,0.11566c0.13946,-0.07384 0.29848,-0.11566 0.46727,-0.11566z" fill="#7c3116" stroke="none" stroke-width="0.5" stroke-linecap="butt"/><path d="M408.55115,200.96914c0,-0.55229 0.44772,-1 1,-1c0.55228,0 1,0.44771 1,1c0,0.55229 -0.44772,1 -1,1c-0.55228,0 -1,-0.44771 -1,-1z" fill="#933b1b" stroke="none" stroke-width="0.5" stroke-linecap="butt"/><path d="M403.87849,201.20278c0,-1 1,-1 1,-1h1.63545c0,0 1,0 1,1c0,1 -1,1 -1,1h-1.63545c0,0 -1,0 -1,-1z" fill="#933b1b" stroke="none" stroke-width="0.5" stroke-linecap="butt"/><path d="M398.27125,201.20278c0,-0.55229 0.44772,-1 1,-1c0.55228,0 1,0.44771 1,1c0,0.55229 -0.44772,1 -1,1c-0.55228,0 -1,-0.44771 -1,-1z" fill="#933b1b" stroke="none" stroke-width="0.5" stroke-linecap="butt"/><path d="M394.76673,200.50187c0,-0.55229 0.44772,-1 1,-1c0.55228,0 1,0.44771 1,1c0,0.55229 -0.44772,1 -1,1c-0.55228,0 -1,-0.44771 -1,-1z" fill="#933b1b" stroke="none" stroke-width="0.5" stroke-linecap="butt"/><path d="M392.43038,200.26824c0,-0.55229 0.44772,-1 1,-1c0.55228,0 1,0.44771 1,1c0,0.55229 -0.44772,1 -1,1c-0.55228,0 -1,-0.44771 -1,-1z" fill="#933b1b" stroke="none" stroke-width="0.5" stroke-linecap="butt"/><path d="M384.01952,200.96914c0,-0.55229 0.44772,-1 1,-1c0.12331,0 0.24139,0.02231 0.35045,0.06313c0.10906,-0.04082 0.22715,-0.06313 0.35045,-0.06313c0.55228,0 1,0.44771 1,1c0,0.55229 -0.44772,1 -1,1c-0.12331,0 -0.24139,-0.02231 -0.35045,-0.06313c-0.10906,0.04082 -0.22715,0.06313 -0.35045,0.06313c-0.55228,0 -1,-0.44771 -1,-1z" fill="#933b1b" stroke="none" stroke-width="0.5" stroke-linecap="butt"/><path d="M375.37501,201.20278c0,-0.55229 0.44772,-1 1,-1c0.55228,0 1,0.44771 1,1c0,0.55229 -0.44772,1 -1,1c-0.55228,0 -1,-0.44771 -1,-1z" fill="#933b1b" stroke="none" stroke-width="0.5" stroke-linecap="butt"/><path d="M367.43143,200.96914c0,-0.55229 0.44772,-1 1,-1c0.55228,0 1,0.44771 1,1c0,0.55229 -0.44772,1 -1,1c-0.55228,0 -1,-0.44771 -1,-1z" fill="#933b1b" stroke="none" stroke-width="0.5" stroke-linecap="butt"/><path d="M359.02057,200.73551c0,-0.55229 0.44772,-1 1,-1c0.55228,0 1,0.44771 1,1c0,0.55229 -0.44772,1 -1,1c-0.55228,0 -1,-0.44771 -1,-1z" fill="#933b1b" stroke="none" stroke-width="0.5" stroke-linecap="butt"/><path d="M350.14244,201.20278c0,-0.55229 0.44772,-1 1,-1c0.10281,0 0.202,0.01551 0.29535,0.04433c0.1712,-0.30528 0.49791,-0.5116 0.87282,-0.5116c0.55228,0 1,0.44771 1,1c0,0.55229 -0.44772,1 -1,1c-0.10281,0 -0.202,-0.01552 -0.29535,-0.04433c-0.1712,0.30528 -0.49792,0.51161 -0.87283,0.51161c-0.55228,0 -1,-0.44771 -1,-1z" fill="#933b1b" stroke="none" stroke-width="0.5" stroke-linecap="butt"/><path d="M335.4234,200.73551c0,-0.55229 0.44772,-1 1,-1c0.55228,0 1,0.44771 1,1c0,0.55229 -0.44772,1 -1,1c-0.55228,0 -1,-0.44771 -1,-1z" fill="#933b1b" stroke="none" stroke-width="0.5" stroke-linecap="butt"/><path d="M330.0498,201.20278c0,-0.55229 0.44772,-1 1,-1c0.55228,0 1,0.44771 1,1c0,0.55229 -0.44772,1 -1,1c-0.55228,0 -1,-0.44771 -1,-1z" fill="#933b1b" stroke="none" stroke-width="0.5" stroke-linecap="butt"/><path d="M323.27437,201.20278c0,-0.55229 0.44772,-1 1,-1c0.55228,0 1,0.44771 1,1c0,0.55229 -0.44772,1 -1,1c-0.55228,0 -1,-0.44771 -1,-1z" fill="#933b1b" stroke="none" stroke-width="0.5" stroke-linecap="butt"/><path d="M319.06895,201.43641c0,-0.55229 0.44772,-1 1,-1c0.55228,0 1,0.44771 1,1c0,0.55229 -0.44772,1 -1,1c-0.55228,0 -1,-0.44771 -1,-1z" fill="#933b1b" stroke="none" stroke-width="0.5" stroke-linecap="butt"/><path d="M312.52716,200.73551c0,-0.55229 0.44772,-1 1,-1c0.55228,0 1,0.44771 1,1c0,0.55229 -0.44772,1 -1,1c-0.55228,0 -1,-0.44771 -1,-1z" fill="#933b1b" stroke="none" stroke-width="0.5" stroke-linecap="butt"/><path d="M309.25627,200.73551c0,-0.55229 0.44772,-1 1,-1c0.55228,0 1,0.44771 1,1c0,0.55229 -0.44772,1 -1,1c-0.55228,0 -1,-0.44771 -1,-1z" fill="#933b1b" stroke="none" stroke-width="0.5" stroke-linecap="butt"/><path d="M298.7427,200.96914c0,-0.55229 0.44772,-1 1,-1c0.55228,0 1,0.44771 1,1c0,0.55229 -0.44772,1 -1,1c-0.55228,0 -1,-0.44771 -1,-1z" fill="#933b1b" stroke="none" stroke-width="0.5" stroke-linecap="butt"/><path d="M294.07,200.73551c0,-1 1,-1 1,-1h1.63545c0,0 1,0 1,1c0,1 -1,1 -1,1h-1.63545c0,0 -1,0 -1,-1z" fill="#933b1b" stroke="none" stroke-width="0.5" stroke-linecap="butt"/><path d="M285.89277,200.73551c0,-0.55229 0.44772,-1 1,-1c0.55228,0 1,0.44771 1,1c0,0.55229 -0.44772,1 -1,1c-0.55228,0 -1,-0.44771 -1,-1z" fill="#933b1b" stroke="none" stroke-width="0.5" stroke-linecap="butt"/><path d="M273.04285,200.96914c0,-0.55229 0.44772,-1 1,-1c0.55228,0 1,0.44771 1,1c0,0.55229 -0.44772,1 -1,1c-0.55228,0 -1,-0.44771 -1,-1z" fill="#933b1b" stroke="none" stroke-width="0.5" stroke-linecap="butt"/><path d="M262.99654,201.67005c0,-0.55229 0.44772,-1 1,-1c0.55228,0 1,0.44771 1,1c0,0.55229 -0.44772,1 -1,1c-0.55228,0 -1,-0.44771 -1,-1z" fill="#933b1b" stroke="none" stroke-width="0.5" stroke-linecap="butt"/><path d="M253.65119,201.67005c0,-0.55229 0.44771,-1 1,-1c0.55229,0 1,0.44771 1,1c0,0.55229 -0.44771,1 -1,1c-0.55229,0 -1,-0.44771 -1,-1z" fill="#933b1b" stroke="none" stroke-width="0.5" stroke-linecap="butt"/><path d="M244.77306,201.67005c0,-0.55229 0.44771,-1 1,-1c0.55229,0 1,0.44771 1,1c0,0.55229 -0.44771,1 -1,1c-0.55229,0 -1,-0.44771 -1,-1z" fill="#933b1b" stroke="none" stroke-width="0.5" stroke-linecap="butt"/><path d="M239.63309,200.50187c0,-0.55229 0.44771,-1 1,-1c0.55229,0 1,0.44771 1,1c0,0.55229 -0.44771,1 -1,1c-0.55229,0 -1,-0.44771 -1,-1z" fill="#933b1b" stroke="none" stroke-width="0.5" stroke-linecap="butt"/><path d="M234.49308,200.50187c0,-0.55229 0.44771,-1 1,-1c0.42666,0 0.79091,0.2672 0.93454,0.64338c0.14363,-0.37618 0.50788,-0.64338 0.93454,-0.64338c0.55229,0 1,0.44771 1,1c0,0.55229 -0.44771,1 -1,1c-0.42666,0 -0.79091,-0.2672 -0.93454,-0.64338c-0.14363,0.37618 -0.50788,0.64338 -0.93454,0.64338c-0.55229,0 -1,-0.44771 -1,-1z" fill="#933b1b" stroke="none" stroke-width="0.5" stroke-linecap="butt"/><path d="M242.70305,200.26824c0,-0.27614 0.22386,-0.5 0.5,-0.5c0.27614,0 0.5,0.22386 0.5,0.5c0,0.27614 -0.22386,0.5 -0.5,0.5c-0.27614,0 -0.5,-0.22386 -0.5,-0.5z" fill="#7c3116" stroke="none" stroke-width="0.5" stroke-linecap="butt"/><path d="M247.14214,200.26824c0,-0.27614 0.22386,-0.5 0.5,-0.5c0.27614,0 0.5,0.22386 0.5,0.5c0,0.27614 -0.22386,0.5 -0.5,0.5c-0.27614,0 -0.5,-0.22386 -0.5,-0.5z" fill="#7c3116" stroke="none" stroke-width="0.5" stroke-linecap="butt"/><path d="M399.70578,199.56733c0,-0.27614 0.22386,-0.5 0.5,-0.5c0.27614,0 0.5,0.22386 0.5,0.5c0,0.27614 -0.22386,0.5 -0.5,0.5c-0.27614,0 -0.5,-0.22386 -0.5,-0.5z" fill="#7c3116" stroke="none" stroke-width="0.5" stroke-linecap="butt"/><path d="M395.03309,200.26824c0,-0.27614 0.22386,-0.5 0.5,-0.5c0.27614,0 0.5,0.22386 0.5,0.5c0,0.27614 -0.22386,0.5 -0.5,0.5c-0.27614,0 -0.5,-0.22386 -0.5,-0.5z" fill="#7c3116" stroke="none" stroke-width="0.5" stroke-linecap="butt"/><path d="M242.93667,203.07186c0,-0.27614 0.22386,-0.5 0.5,-0.5c0.27614,0 0.5,0.22386 0.5,0.5c0,0.27614 -0.22386,0.5 -0.5,0.5c-0.27614,0 -0.5,-0.22386 -0.5,-0.5z" fill="#933b1b" stroke="none" stroke-width="0.5" stroke-linecap="butt"/><path d="M252.04843,204.24003c0,-0.27614 0.22386,-0.5 0.5,-0.5c0.27614,0 0.5,0.22386 0.5,0.5c0,0.27614 -0.22386,0.5 -0.5,0.5c-0.27614,0 -0.5,-0.22386 -0.5,-0.5z" fill="#933b1b" stroke="none" stroke-width="0.5" stroke-linecap="butt"/><path d="M272.6083,207.51092c0,-0.27614 0.22386,-0.5 0.5,-0.5c0.27614,0 0.5,0.22386 0.5,0.5c0,0.27614 -0.22386,0.5 -0.5,0.5c-0.27614,0 -0.5,-0.22386 -0.5,-0.5z" fill="#933b1b" stroke="none" stroke-width="0.5" stroke-linecap="butt"/><path d="M292.23365,204.7073c0,-0.27614 0.22386,-0.5 0.5,-0.5c0.27614,0 0.5,0.22386 0.5,0.5c0,0.27614 -0.22386,0.5 -0.5,0.5c-0.27614,0 -0.5,-0.22386 -0.5,-0.5z" fill="#933b1b" stroke="none" stroke-width="0.5" stroke-linecap="butt"/><path d="M310.92445,202.13732c0,-0.27614 0.22386,-0.5 0.5,-0.5c0.27614,0 0.5,0.22386 0.5,0.5c0,0.27614 -0.22386,0.5 -0.5,0.5c-0.27614,0 -0.5,-0.22386 -0.5,-0.5z" fill="#933b1b" stroke="none" stroke-width="0.5" stroke-linecap="butt"/><path d="M330.31615,204.94094c0,-0.27614 0.22386,-0.5 0.5,-0.5c0.27614,0 0.5,0.22386 0.5,0.5c0,0.27614 -0.22386,0.5 -0.5,0.5c-0.27614,0 -0.5,-0.22386 -0.5,-0.5z" fill="#933b1b" stroke="none" stroke-width="0.5" stroke-linecap="butt"/><path d="M353.44606,205.64184c0,-0.27614 0.22386,-0.5 0.5,-0.5c0.27614,0 0.5,0.22386 0.5,0.5c0,0.27614 -0.22386,0.5 -0.5,0.5c-0.27614,0 -0.5,-0.22386 -0.5,-0.5z" fill="#933b1b" stroke="none" stroke-width="0.5" stroke-linecap="butt"/><path d="M368.16507,206.81002c0,-0.27614 0.22386,-0.5 0.5,-0.5c0.27614,0 0.5,0.22386 0.5,0.5c0,0.27614 -0.22386,0.5 -0.5,0.5c-0.27614,0 -0.5,-0.22386 -0.5,-0.5z" fill="#933b1b" stroke="none" stroke-width="0.5" stroke-linecap="butt"/><path d="M383.81859,206.10911c0,-0.27614 0.22386,-0.5 0.5,-0.5c0.27614,0 0.5,0.22386 0.5,0.5c0,0.27614 -0.22386,0.5 -0.5,0.5c-0.27614,0 -0.5,-0.22386 -0.5,-0.5z" fill="#933b1b" stroke="none" stroke-width="0.5" stroke-linecap="butt"/><path d="M397.36944,205.17457c0,-0.27614 0.22386,-0.5 0.5,-0.5c0.27614,0 0.5,0.22386 0.5,0.5c0,0.27614 -0.22386,0.5 -0.5,0.5c-0.27614,0 -0.5,-0.22386 -0.5,-0.5z" fill="#933b1b" stroke="none" stroke-width="0.5" stroke-linecap="butt"/><path d="M407.64938,204.47367c0,-0.27614 0.22386,-0.5 0.5,-0.5c0.27614,0 0.5,0.22386 0.5,0.5c0,0.27614 -0.22386,0.5 -0.5,0.5c-0.27614,0 -0.5,-0.22386 -0.5,-0.5z" fill="#933b1b" stroke="none" stroke-width="0.5" stroke-linecap="butt"/></g><g stroke-linecap="round"><path d="M298.57192,68.23247c-2.50352,-0.75106 -4.58732,-2.53442 -3.51482,-5.09648c1.0725,-2.56206 1.68379,-3.95868 6.67816,-2.46037c4.99437,1.49831 10.89593,7.7326 10.89593,7.7326c0,0 -11.55575,0.5753 -14.05927,-0.17575z" fill="#1859da" stroke="#000000" stroke-width="0"/><path d="M313.15843,68.23248l-5.79945,16.3439" fill="none" stroke="#000000" stroke-width="1"/><path d="M323.60947,68.43913c1.91238,0.57372 3.50414,1.93598 2.68489,3.89308c-0.81926,1.9571 -1.2862,3.02395 -5.10128,1.87942c-3.81509,-1.14452 -8.32315,-5.90675 -8.32315,-5.90675c0,0 8.82716,-0.43947 10.73954,0.13425z" fill="#1859da" stroke="#000000" stroke-width="0"/><path d="M269.04747,111.99195c0,0 0.18644,-38.48829 34.97243,-33.56651c47.47773,6.71751 22.31909,40.94763 22.31909,40.94763z" fill="#ac2121" stroke="#000000" stroke-width="0"/><path d="M332.19476,95.00039c3.80151,12.13117 -5.64164,24.19694 -5.64164,24.19694l-20.38594,-2.63611l12.14834,-34.50581c0,0 10.41036,1.87528 13.87924,12.94498z" fill="#161ccc" stroke="none" stroke-width="0"/><path d="M288.73046,79.65564c0,0 9.20764,-2.24392 13.93771,-1.76242c5.03391,0.51244 15.82309,4.06322 15.82309,4.06322l-12.5382,35.132l-32.33632,-8.43556l15.11371,-28.99724z" fill="#d6b318" stroke="none" stroke-width="0"/></g><path d="M214.52368,306.61252v-267.72501h213.18203v267.72501z" fill="none" stroke="none" stroke-width="0" stroke-linecap="butt"/><path d="" fill="none" stroke="#000000" stroke-width="0" stroke-linecap="round"/><path d="M254.46102,117.61566c0,0 4.19243,-12.74201 11.95038,-11.95038c7.75794,0.79162 16.87196,7.04441 29.87595,9.91221c13.00399,2.8678 16.3439,0.28076 16.3439,0.28076" fill="#063000" stroke="#000000" stroke-width="0" stroke-linecap="round"/><path d="M254.63672,116.9127c0,0 4.01669,-12.03904 11.77464,-11.24742c7.75794,0.79162 17.28404,8.00592 30.28803,10.87372c13.00399,2.8678 15.93182,-0.68075 15.93182,-0.68075" fill="none" stroke="#000000" stroke-width="0" stroke-linecap="round"/><g stroke="#000000" stroke-width="0" stroke-linecap="butt"><path d="M252.00902,199.30395v-82.38044h82.38044v82.38044z" fill="#c7c1b5"/><path d="M256.34484,189.00639v-67.74707h73.43782v67.74707z" fill="#ff0000"/></g><g fill="none" stroke-opacity="0.3451" stroke="#000000" stroke-width="1" stroke-linecap="round"><path d="M256.56985,185.21386h72.40524"/><path d="M256.56985,177.65701h72.75671"/><path d="M256.56987,170.80311h72.40524"/><path d="M329.32656,163.24626h-72.75671"/><path d="M256.56985,156.39236h72.40524"/><path d="M256.56985,148.83551h72.75671"/><path d="M256.56988,141.98161h72.40524"/><path d="M329.32656,134.42476h-72.75671"/><path d="M256.56985,126.51642h72.75671"/></g><g><path d="M336.55741,199.03296v-98.63974h55.28161v98.63974z" fill="#c7c1b5" stroke="#000000" stroke-width="0" stroke-linecap="butt"/><path d="M341.16414,147.81617v-35.49946h46.339v35.49947z" fill="#b6ad9c" stroke="none" stroke-width="0" stroke-linecap="butt"/><path d="M343.60311,125.59513v-8.67162h42.00319v8.67162z" fill="#857f72" stroke="none" stroke-width="0" stroke-linecap="butt"/><path d="M343.60311,137.78961v-8.67163h42.00319v8.67163z" fill="#857f72" stroke="none" stroke-width="0" stroke-linecap="butt"/><path d="M345.56299,144.02234c0,-0.41422 0.33578,-0.75 0.75,-0.75c0.41422,0 0.75,0.33578 0.75,0.75c0,0.41422 -0.33578,0.75 -0.75,0.75c-0.41422,0 -0.75,-0.33578 -0.75,-0.75z" fill="#000000" stroke="none" stroke-width="0" stroke-linecap="butt"/><path d="M349.29387,143.75134h5.96174" fill="none" stroke="#000000" stroke-width="1" stroke-linecap="round"/></g><path d="M267.99303,105.84102l44.2867,9.66575c0,0 -4.07606,2.72897 -7.02963,2.81185c-8.86197,0.24865 -37.25706,-12.4776 -37.25706,-12.4776z" fill="#249d2e" stroke="#000000" stroke-width="0" stroke-linecap="round"/><path d="M292.95573,183.55291c0,0.25 -0.25,0.25 -0.25,0.25l-0.11133,0c-2.68432,-0.00001 -5.32874,-0.02402 -7.99916,-0.3052c-3.49615,0.00242 -6.99342,0.0228 -10.4894,-0.01172c-3.38338,-0.03341 -7.14713,0.01742 -10.49815,-0.49861c-4.37322,-0.67344 -5.62954,-3.46336 -5.59435,-7.56163c0.0884,-2.50922 1.39837,-5.87154 2.45674,-8.13555c0.26953,-0.57657 1.04777,-0.85443 1.35714,-1.45632c0.59275,-1.11231 1.82543,-2.38136 3.19568,-3.4565c0.1425,-2.11119 3.49864,-3.0994 5.95916,-3.66064c-0.23306,-0.75142 -0.4071,-1.58135 -0.53108,-2.52006c-0.46652,-3.5324 -0.55499,-6.93256 -0.555,-10.49526c0,-2.70684 0.45051,-5.34443 1.5443,-7.76736c-0.03992,-0.09112 -0.00716,-0.1894 -0.00716,-0.1894c0.94057,-2.81893 2.01315,-5.72283 3.4865,-8.31631c1.44884,-2.55034 2.56413,-5.57049 4.409,-7.82979l0.07487,-0.09116c0,0 0.15867,-0.19318 0.35186,-0.03451c0.19319,0.15867 0.03452,0.35186 0.03452,0.35186l-0.07487,0.09116c-1.83473,2.21947 -2.92944,5.24014 -4.36064,7.75943c-1.08116,1.90313 -1.94443,3.97662 -2.69722,6.05893c0.02195,-0.03299 0.04406,-0.06593 0.0663,-0.09882c2.19139,-2.83119 4.53218,-5.38332 7.51709,-7.38033c3.38267,-1.44497 6.45486,-2.33996 10.0888,-2.94305c3.44998,-0.57233 6.89145,-1.7419 10.42058,-1.40579c3.27012,0.3143 7.5268,0.57106 10.0893,2.907c2.73111,2.51438 5.05519,4.728 6.42113,8.25646c1.32372,3.4194 1.41957,6.73519 2.08772,10.2708c0.60649,3.21118 1.44243,7.34734 0.42183,10.51878c-1.13773,3.52959 -2.98602,6.07063 -5.63037,8.736c-2.53827,2.5583 -5.60135,4.1537 -8.84978,5.66059c-0.22048,0.10225 -0.44135,0.19587 -0.66259,0.28289c4.01599,0.41256 4.32658,3.95632 3.45699,7.4373c-0.4685,1.66322 -2.43215,2.24489 -4.13888,2.41336c1.08319,0.75631 1.884,2.30555 0.62002,3.18036c-0.84571,0.58532 -2.86478,0.26921 -3.95806,0.23583c0.40294,0.62298 0.57127,1.60979 -0.00913,2.1101c-1.18228,1.01915 -3.69308,0.11366 -4.41731,-0.96658l-0.0264,-0.04066c0,0 -0.13615,-0.20967 0.07352,-0.34582c0.20967,-0.13616 0.34582,0.07351 0.34582,0.07351l0.02639,0.04066c0.57576,0.92454 2.68939,1.59483 3.68054,0.85258c0.47586,-0.35637 0.03384,-1.54914 -0.35219,-1.74456c-0.05104,-0.0182 -0.10944,-0.05476 -0.13819,-0.12821c-0.0215,-0.04253 -0.03181,-0.0964 -0.0129,-0.16157c0.01223,-0.06676 0.04554,-0.11033 0.08379,-0.13876c0.05688,-0.05133 0.12324,-0.05901 0.17629,-0.05342l0.40298,-0.00002c0.90747,-0.00013 3.07081,0.38215 3.84114,-0.1448c1.2552,-0.85862 -0.52018,-2.71971 -1.51544,-2.70865c0,0 -0.00488,-0.00001 -0.01327,-0.00069c-0.00482,0.00001 -0.00962,0.00003 -0.01442,0.00004l-0.27659,0.00064c0,0 -0.24999,0.00058 -0.25057,-0.24942c-0.00058,-0.25 0.24942,-0.25057 0.24942,-0.25057l0.27659,-0.00064c1.51284,-0.00349 4.44244,-0.28228 4.86297,-2.09862c0.91362,-3.39794 0.59361,-6.85164 -3.78818,-6.85128c-0.18075,0.00017 -0.35935,0.00175 -0.53596,0.00482c-0.90287,0.27783 -1.8113,0.5144 -2.72424,0.84426l-0.13967,0.05047c0,0 -0.23513,0.08496 -0.32008,-0.15017c-0.08495,-0.23513 0.15017,-0.32008 0.15017,-0.32008l0.13968,-0.05046c0.24761,-0.08946 0.49473,-0.17189 0.74138,-0.25003c-2.52129,0.26039 -4.72568,0.94195 -7.20756,2.28073c-2.8388,1.53132 -4.96247,2.65744 -6.79442,5.40537c0,0 -0.13867,0.20802 -0.34668,0.06934c-0.20801,-0.13868 -0.06934,-0.34669 -0.06934,-0.34669c1.8793,-2.81895 4.06233,-3.99797 6.97307,-5.56808c3.20991,-1.73149 5.98943,-2.39445 9.52682,-2.46339c0.62724,-0.19529 1.25181,-0.41389 1.8741,-0.70264c3.19385,-1.48157 6.20994,-3.04418 8.70525,-5.55918c2.59083,-2.61112 4.39934,-5.08229 5.50935,-8.537c0.99242,-3.08386 0.15323,-7.15035 -0.43718,-10.27277c-0.66256,-3.50607 -0.7505,-6.79354 -2.06269,-10.18314c-1.33801,-3.4563 -3.6175,-5.60546 -6.29351,-8.06912c-2.43302,-2.26569 -6.67696,-2.47712 -9.79847,-2.77714c-3.47776,-0.33749 -6.89054,0.83725 -10.29091,1.40134c-3.58129,0.59386 -6.59472,1.48149 -9.93237,2.88938c-2.91549,1.96974 -5.20089,4.45991 -7.35039,7.23402c-1.97408,2.92063 -2.73243,6.28851 -2.73242,9.7727c0,3.54147 0.08699,6.91872 0.55069,10.42979c0.12256,0.92801 0.29386,1.74261 0.5239,2.47667c0.41594,-0.0908 0.79409,-0.16939 1.11077,-0.23978c0.00168,-0.00009 0.00336,-0.00018 0.00504,-0.00027c-0.507,-2.148 -0.81896,-4.48072 -0.83737,-6.52554c-0.02808,-3.58134 -0.24447,-7.0755 1.37404,-10.3913c1.57801,-3.21973 3.14678,-6.25207 5.60447,-8.89788c2.76146,-2.76948 5.5177,-3.72944 9.22409,-4.81808c3.34114,-0.97621 7.06323,-0.82842 10.50635,-0.83051c3.40092,-0.00207 6.90584,2.19636 9.61133,4.15837c3.02853,2.19731 4.89183,4.86471 6.57681,8.14843c0.73251,1.42754 2.27213,3.39314 2.5351,4.9663c0.23951,1.43282 -0.50289,3.57964 -0.71089,5.02589c-0.46089,3.20469 -0.3329,7.55572 -2.14684,10.288c-0.40355,0.60786 -0.81646,1.18235 -1.24488,1.72595c-0.31477,1.0957 -1.06772,3.28138 -2.35516,2.52131c-1.19826,1.06927 -2.54657,1.98479 -4.13036,2.7807c-3.28095,1.64879 -6.71351,1.71007 -10.26367,2.1589c-3.56262,0.45041 -7.0044,0.16225 -10.48989,-0.47467c-2.39951,-0.43848 -6.09975,-1.21182 -8.63465,-2.47354c-1.47689,1.27844 -3.31036,3.13692 -5.21919,3.40087l-0.28341,0.0365c0,0 -0.24795,0.03193 -0.27988,-0.21602c-0.03193,-0.24795 0.21602,-0.27988 0.21602,-0.27988l0.28341,-0.0365c1.72038,-0.20157 3.443,-1.97333 4.80907,-3.1545c-0.33822,-0.18873 -0.64958,-0.38756 -0.92697,-0.59695c-2.37657,-1.82187 -3.83262,-3.38676 -4.66259,-5.6911c-2.05617,0.46548 -4.87754,1.25231 -5.49884,2.71861c1.11278,-0.80245 2.2652,-1.44944 3.20503,-1.7649c0,0 0.23717,-0.07906 0.31623,0.15811c0.07906,0.23717 -0.15811,0.31623 -0.15811,0.31623c-1.00357,0.33196 -2.30665,1.09499 -3.51844,2.02145c-0.02525,0.05071 -0.07102,0.10151 -0.15401,0.11901c-1.32701,1.03648 -2.52279,2.25787 -3.06325,3.30524c-1.49464,2.79643 -3.63377,5.88072 -3.75669,9.37035c-0.03283,3.8611 1.04693,6.42151 5.17057,7.05652c3.32921,0.51267 7.06588,0.45962 10.42699,0.49281c3.50311,0.0346 7.00723,0.01005 10.5105,0.01238c2.66247,0.27669 5.29688,0.30451 7.97312,0.30452l0.11133,0c0,0 0.25,0 0.25,0.25zM272.64918,158.86348c-0.28034,0.06337 -0.62774,0.13583 -1.01707,0.22042c0.79937,2.18124 2.19055,3.65095 4.47598,5.40295c0.29589,0.23104 0.63836,0.44884 1.01629,0.65401c1.852,-3.19035 -0.6678,-6.11098 -3.90112,-6.27702c0.15666,0.60553 0.32867,1.1913 0.51337,1.74541c0,0 0.07905,0.23717 -0.15812,0.31623c-0.23717,0.07906 -0.31623,-0.15811 -0.31623,-0.15811c-0.20141,-0.60423 -0.3875,-1.24454 -0.55527,-1.90648c-0.01927,0.00077 -0.03855,0.00163 -0.05785,0.00259zM285.92937,167.71184c3.43637,0.62795 6.82338,0.91473 10.3373,0.47047c3.49041,-0.44128 6.87596,-0.48847 10.10187,-2.10961c1.52131,-0.76451 2.81567,-1.63853 3.96653,-2.65649c-0.90715,-1.06761 -0.50224,-3.65347 -0.50224,-4.86193c0,0 0,-0.25 0.25,-0.25c0.25,0 0.25,0.25 0.25,0.25c0,1.11008 -0.39475,3.53941 0.37879,4.51898c0.68217,-0.63958 1.31454,-1.33396 1.91595,-2.09091c0.03332,-0.12205 0.05752,-0.2161 0.07197,-0.26915c0.17413,-0.63199 0.17352,-1.26369 0.17961,-1.91772l0.0023,-0.24356c0,0 0.00235,-0.24999 0.25234,-0.24763c0.24999,0.00235 0.24763,0.25234 0.24763,0.25234l-0.0023,0.24356c-0.00408,0.42756 -0.00871,0.84356 -0.05338,1.25704c0.19617,-0.27315 0.38965,-0.55381 0.58116,-0.84228c1.76279,-2.65523 1.62029,-6.96623 2.06849,-10.08263c0.1993,-1.38572 0.94097,-3.50642 0.71265,-4.87228c-0.25172,-1.50585 -1.78231,-3.44754 -2.48679,-4.82046c-1.64914,-3.21389 -3.45916,-5.8218 -6.4255,-7.97194c-2.61539,-1.89667 -6.02874,-4.06513 -9.31749,-4.06313c-3.38885,0.00207 -7.0789,-0.16063 -10.36575,0.81025c-3.62475,1.06465 -6.30673,1.98007 -9.00474,4.68507c-2.42116,2.6073 -3.9609,5.59872 -5.51575,8.7712c-1.59203,3.23408 -1.35043,6.67197 -1.32302,10.16734c0.01346,2.04027 0.33385,4.3818 0.849,6.52349c3.66827,0.10817 6.50709,3.45633 4.4652,7.00416c2.46564,1.19817 6.10338,1.93232 8.36616,2.34581zM311.11825,163.37578c0.4352,0.11271 0.80553,-0.46157 1.07968,-1.11017c-0.34735,0.38696 -0.7063,0.75664 -1.07968,1.11017z" fill="#ffffff" stroke="none" stroke-width="0.5" stroke-linecap="butt"/><path d="M328.06987,133.30566c0.25,0.00023 0.24977,0.25023 0.24977,0.25023l-0.00011,0.11674c-0.00289,2.18699 -0.7529,4.34213 -1.61382,6.33555c-1.07662,2.48087 -3.26159,5.53836 -5.16624,7.44301c0,0 -0.17678,0.17677 -0.35356,0c-0.17678,-0.17677 0,-0.35355 0,-0.35355c1.85741,-1.85741 4.01882,-4.86277 5.06078,-7.28771c0.83387,-1.93051 1.57175,-4.0189 1.57283,-6.13776l0.00011,-0.11674c0,0 0.00023,-0.25 0.25023,-0.24977z" fill="#ffffff" stroke="none" stroke-width="0.5" stroke-linecap="butt"/><path d="M325.57587,126.54144c0.00241,0.24999 -0.24757,0.2524 -0.24757,0.2524l-0.48162,0.0046c-0.15758,0.00359 -0.31516,0.00718 -0.47273,0.01076c-2.97719,0.74956 -5.53473,1.74718 -8.41971,2.71556c0,0 -0.23717,0.07906 -0.31623,-0.15811c-0.07905,-0.23717 0.15811,-0.31623 0.15811,-0.31623c2.91517,-0.96427 5.49734,-1.99702 8.51068,-2.7367c0.17564,-0.00504 0.35129,-0.01008 0.52693,-0.01512l0.48973,-0.00476c0,0 0.24999,-0.00241 0.2524,0.24758z" fill="#ffffff" stroke="none" stroke-width="0.5" stroke-linecap="butt"/><path d="M285.46343,121.26439c0.09682,-0.23049 0.32731,-0.13367 0.32731,-0.13367l0.00206,0.00087c1.03921,0.45294 2.0553,2.16151 2.56362,3.16643c0,0 0.1118,0.2236 -0.11181,0.33541c-0.22361,0.11181 -0.33541,-0.1118 -0.33541,-0.1118c-0.42435,-0.86019 -1.4055,-2.56707 -2.31005,-2.92906l-0.00206,-0.00086c0,0 -0.23048,-0.09682 -0.13367,-0.32731z" fill="#ffffff" stroke="none" stroke-width="0.5" stroke-linecap="butt"/><path d="M273.55433,146.35983c0,-0.13807 0.11193,-0.25 0.25,-0.25c0.13807,0 0.25,0.11193 0.25,0.25c0,0.13807 -0.11193,0.25 -0.25,0.25c-0.13807,0 -0.25,-0.11193 -0.25,-0.25z" fill="#ffffff" stroke="none" stroke-width="0.5" stroke-linecap="butt"/><path d="M279.95642,143.92094c0,-0.13807 0.11193,-0.25 0.25,-0.25c0.13807,0 0.25,0.11193 0.25,0.25c0,0.13807 -0.11193,0.25 -0.25,0.25c-0.13807,0 -0.25,-0.11193 -0.25,-0.25z" fill="#ffffff" stroke="none" stroke-width="0.5" stroke-linecap="butt"/><path d="M277.82239,151.54248c0,-0.13807 0.11193,-0.25 0.25,-0.25c0.13807,0 0.25,0.11193 0.25,0.25c0,0.13807 -0.11193,0.25 -0.25,0.25c-0.13807,0 -0.25,-0.11193 -0.25,-0.25z" fill="#ffffff" stroke="none" stroke-width="0.5" stroke-linecap="butt"/><path d="M304.04046,148.49386c0,-0.13807 0.11193,-0.25 0.25,-0.25c0.13807,0 0.25,0.11193 0.25,0.25c0,0.13807 -0.11193,0.25 -0.25,0.25c-0.13807,0 -0.25,-0.11193 -0.25,-0.25z" fill="#ffffff" stroke="none" stroke-width="0.5" stroke-linecap="butt"/><path d="M308.61338,152.76192c0,-0.13807 0.11193,-0.25 0.25,-0.25c0.13807,0 0.25,0.11193 0.25,0.25c0,0.13807 -0.11193,0.25 -0.25,0.25c-0.13807,0 -0.25,-0.11193 -0.25,-0.25z" fill="#ffffff" stroke="none" stroke-width="0.5" stroke-linecap="butt"/><path d="M304.04046,159.16401c0,-0.13807 0.11193,-0.25 0.25,-0.25c0.13807,0 0.25,0.11193 0.25,0.25c0,0.13807 -0.11193,0.25 -0.25,0.25c-0.13807,0 -0.25,-0.11193 -0.25,-0.25z" fill="#ffffff" stroke="none" stroke-width="0.5" stroke-linecap="butt"/><path d="M290.516,132.62061c0.02047,0.24916 -0.2287,0.26962 -0.2287,0.26962l-0.22872,-0.01295c-0.73103,0.46999 -1.16395,2.00463 -0.30138,2.59977c1.10555,0.76278 2.17073,-1.36535 2.36291,-2.02081c-0.57858,-1.78951 -2.67264,-1.96386 -3.79581,0.00672c-0.44865,0.78715 -0.24637,1.97337 -0.24637,2.83644c0,0 0,0.25 -0.25,0.25c-0.25,0 -0.25,-0.25 -0.25,-0.25c0,-0.96836 -0.19068,-2.20213 0.31197,-3.08403c0.52706,-0.92471 3.51595,-2.61545 4.36477,-1.3486c0.1637,0.24433 0.27592,1.26417 0.36539,1.58259c-0.26522,1.0545 -1.57153,3.41581 -3.13351,2.4481c-1.24142,-0.76911 -0.65287,-2.78066 0.29365,-3.43552l0.46616,-0.07003c0,0 0.24916,-0.02047 0.26963,0.22869z" fill="#ffffff" stroke="none" stroke-width="0.5" stroke-linecap="butt"/><path d="M302.82166,138.1465c-0.01792,-0.24936 0.23143,-0.26728 0.23143,-0.26728l0.2842,-0.00636c0.15296,-0.06619 0.30592,-0.13239 0.45888,-0.19858c0.44806,-0.17656 1.01048,-1.28071 0.25824,-1.43724c-2.59906,-0.54083 -3.44398,1.55263 -0.89055,2.574c0,0 0.23212,0.09285 0.13927,0.32497c-0.09285,0.23212 -0.32497,0.13927 -0.32497,0.13927c-0.77146,-0.30858 -1.87898,-0.5885 -2.13882,-1.51958c-0.39063,-1.39977 2.24993,-2.36604 3.35262,-1.99938c1.23789,0.41162 0.65699,1.98281 -0.1972,2.37682c-0.15296,0.06619 -0.30592,0.13239 -0.45887,0.19859l-0.44695,0.0462c0,0 -0.24935,0.01792 -0.26728,-0.23144z" fill="#ffffff" stroke="none" stroke-width="0.5" stroke-linecap="butt"/><path d="M280.45631,172.28024c-0.0072,0.2499 -0.25709,0.2427 -0.25709,0.2427l-0.1622,-0.00467c-0.50551,-0.01458 -1.3319,0.03315 -2.21165,0.04891c2.26257,0.37567 4.57524,0.67632 6.21616,2.27284c0,0 0.17678,0.17678 0,0.35355c-0.17678,0.17678 -0.35355,0 -0.35355,0c-2.01061,-2.08252 -5.53654,-1.86832 -8.24281,-2.60343c-0.31632,-0.08592 -0.63262,-0.17196 -0.94888,-0.25811l-0.47988,-0.07675c-0.12124,-0.01725 -0.21446,-0.12149 -0.21446,-0.24749c0,-0.13508 0.10713,-0.24513 0.24105,-0.24984l0.49835,-0.02031l0.00284,0.06966c1.72885,-0.29788 3.80939,0.16235 5.50722,0.21118l0.1622,0.00467c0,0 0.2499,0.0072 0.2427,0.25709z" fill="#ffffff" stroke="none" stroke-width="0.5" stroke-linecap="butt"/></g></g></svg>