<svg version="1.1" xmlns="http://www.w3.org/2000/svg" xmlns:xlink="http://www.w3.org/1999/xlink" width="213.18203" height="280.18476" viewBox="0,0,213.18203,280.18476"><g transform="translate(-214.52362,-38.88751)"><g stroke-miterlimit="10"><path d="M285.78457,241.90057c-12.30217,5.26465 -24.11825,5.22547 -26.39192,-0.08751c-2.27366,-5.31298 5.90007,-16.35536 18.20227,-21.61999c12.30217,-5.26465 24.07424,-2.75794 26.34789,2.55503c2.27366,5.31298 -5.85608,13.88783 -18.15825,19.15248z" fill="#424ed6" stroke="#000000" stroke-width="0" stroke-linecap="butt"/><g stroke-linecap="butt"><g stroke="#000000" stroke-width="0"><path d="M286.35186,319.07226l15.14285,-131.8421l37.78325,-0.15789l13.57389,132z" fill="#4372d5"/><path d="M295.8665,236.3344c2.09755,-18.26242 5.62822,-49.10423 5.62822,-49.10423l37.78325,-0.15789c0,0 3.1787,30.91141 5.09118,49.50951c0.00796,0.07741 -48.51501,-0.13977 -48.50265,-0.24739z" fill="#3c69e5"/><path d="M296.82989,227.91133c1.8288,-15.95936 4.66485,-40.68116 4.66485,-40.68116l37.78325,-0.15789c0,0 2.56491,24.94266 4.25878,41.41474c0.00646,0.06288 -46.71245,-0.52702 -46.70688,-0.57568z" fill="#341ed9"/><path d="M297.86204,218.85835c1.55065,-13.50084 3.63268,-31.62819 3.63268,-31.62819l37.78325,-0.15789c0,0 1.9771,18.32853 3.41971,32.35735c0.01945,0.18919 -44.84037,-0.53015 -44.83565,-0.57127z" fill="#2713b5"/></g><path d="M298.11672,219.23545c0,-0.9665 0.7835,-1.75 1.75,-1.75c0.9665,0 1.75,0.7835 1.75,1.75c0,0.9665 -0.7835,1.75 -1.75,1.75c-0.9665,0 -1.75,-0.7835 -1.75,-1.75z" fill="#2713b5" stroke="none" stroke-width="0.5"/><path d="M339.59039,220.02392c0,-0.9665 0.7835,-1.75 1.75,-1.75c0.9665,0 1.75,0.7835 1.75,1.75c0,0.9665 -0.7835,1.75 -1.75,1.75c-0.9665,0 -1.75,-0.7835 -1.75,-1.75z" fill="#2713b5" stroke="none" stroke-width="0.5"/><path d="M335.97869,217.64315c0.9665,0 1.75,0.7835 1.75,1.75c0,0.9665 -0.7835,1.75 -1.75,1.75c-0.69427,0 -1.29411,-0.4043 -1.57694,-0.99029c-0.28283,0.58599 -0.88268,0.99029 -1.57695,0.99029c-0.9665,0 -1.75,-0.7835 -1.75,-1.75c0,-0.9665 0.7835,-1.75 1.75,-1.75c0.69427,0 1.29412,0.40429 1.57695,0.99029c0.28283,-0.58599 0.88267,-0.99029 1.57694,-0.99029z" fill="#2713b5" stroke="none" stroke-width="0.5"/><path d="M322.55933,219.86623c0,-0.9665 0.7835,-1.75 1.75,-1.75c0.28364,0 0.55153,0.06748 0.78847,0.18726c0.23694,-0.11979 0.50483,-0.18726 0.78847,-0.18726c0.9665,0 1.75,0.7835 1.75,1.75c0,0.9665 -0.7835,1.75 -1.75,1.75c-0.28364,0 -0.55153,-0.06749 -0.78847,-0.18727c-0.23694,0.11979 -0.50483,0.18727 -0.78847,0.18727c-0.9665,0 -1.75,-0.7835 -1.75,-1.75z" fill="#2713b5" stroke="none" stroke-width="0.5"/><path d="M317.6708,219.70854c0,-0.9665 0.7835,-1.75 1.75,-1.75c0.9665,0 1.75,0.7835 1.75,1.75c0,0.9665 -0.7835,1.75 -1.75,1.75c-0.9665,0 -1.75,-0.7835 -1.75,-1.75z" fill="#2713b5" stroke="none" stroke-width="0.5"/><path d="M313.25539,219.07776c0,-0.9665 0.7835,-1.75 1.75,-1.75c0.9665,0 1.75,0.7835 1.75,1.75c0,0.9665 -0.7835,1.75 -1.75,1.75c-0.9665,0 -1.75,-0.7835 -1.75,-1.75z" fill="#2713b5" stroke="none" stroke-width="0.5"/><path d="M306.47452,218.92007c0,-0.9665 0.7835,-1.75 1.75,-1.75c0.49564,0 0.94315,0.20605 1.26155,0.53716c0.3184,-0.33111 0.76592,-0.53716 1.26155,-0.53716c0.9665,0 1.75,0.7835 1.75,1.75c0,0.9665 -0.7835,1.75 -1.75,1.75c-0.49564,0 -0.94315,-0.20605 -1.26155,-0.53716c-0.3184,0.33111 -0.76591,0.53716 -1.26155,0.53716c-0.9665,0 -1.75,-0.7835 -1.75,-1.75z" fill="#2713b5" stroke="none" stroke-width="0.5"/><path d="M302.05911,219.55084c0,-0.9665 0.7835,-1.75 1.75,-1.75c0.9665,0 1.75,0.7835 1.75,1.75c0,0.9665 -0.7835,1.75 -1.75,1.75c-0.9665,0 -1.75,-0.7835 -1.75,-1.75z" fill="#2713b5" stroke="none" stroke-width="0.5"/><path d="M300.03596,223.3355c0,-0.69036 0.55964,-1.25 1.25,-1.25c0.69036,0 1.25,0.55964 1.25,1.25c0,0.69036 -0.55964,1.25 -1.25,1.25c-0.69036,0 -1.25,-0.55964 -1.25,-1.25z" fill="#2713b5" stroke="none" stroke-width="0.5"/><path d="M306.02835,223.96628c0,-0.69036 0.55964,-1.25 1.25,-1.25c0.69036,0 1.25,0.55964 1.25,1.25c0,0.69036 -0.55964,1.25 -1.25,1.25c-0.69036,0 -1.25,-0.55964 -1.25,-1.25z" fill="#2713b5" stroke="none" stroke-width="0.5"/><path d="M309.97069,223.96628c0,-0.69036 0.55964,-1.25 1.25,-1.25c0.69036,0 1.25,0.55964 1.25,1.25c0,0.69036 -0.55964,1.25 -1.25,1.25c-0.69036,0 -1.25,-0.55964 -1.25,-1.25z" fill="#2713b5" stroke="none" stroke-width="0.5"/><path d="M315.01694,222.86242c0,-0.69036 0.55964,-1.25 1.25,-1.25c0.69036,0 1.25,0.55964 1.25,1.25c0,0.69036 -0.55964,1.25 -1.25,1.25c-0.69036,0 -1.25,-0.55964 -1.25,-1.25z" fill="#2713b5" stroke="none" stroke-width="0.5"/><path d="M322.58624,223.80858c0,-0.69036 0.55964,-1.25 1.25,-1.25c0.69036,0 1.25,0.55964 1.25,1.25c0,0.69036 -0.55964,1.25 -1.25,1.25c-0.69036,0 -1.25,-0.55964 -1.25,-1.25z" fill="#2713b5" stroke="none" stroke-width="0.5"/><path d="M328.10553,224.75475c0,-0.69036 0.55964,-1.25 1.25,-1.25c0.69036,0 1.25,0.55964 1.25,1.25c0,0.69036 -0.55964,1.25 -1.25,1.25c-0.69036,0 -1.25,-0.55964 -1.25,-1.25z" fill="#2713b5" stroke="none" stroke-width="0.5"/><path d="M333.46714,225.38553c0,-0.69036 0.55964,-1.25 1.25,-1.25c0.69036,0 1.25,0.55964 1.25,1.25c0,0.69036 -0.55964,1.25 -1.25,1.25c-0.69036,0 -1.25,-0.55964 -1.25,-1.25z" fill="#2713b5" stroke="none" stroke-width="0.5"/><path d="M335.99024,223.3355c0,-0.69036 0.55964,-1.25 1.25,-1.25c0.69036,0 1.25,0.55964 1.25,1.25c0,0.69036 -0.55964,1.25 -1.25,1.25c-0.69036,0 -1.25,-0.55964 -1.25,-1.25z" fill="#2713b5" stroke="none" stroke-width="0.5"/><path d="M301.28596,227.57788c0.9665,0 1.75,0.7835 1.75,1.75c0,0.9665 -0.7835,1.75 -1.75,1.75c-0.83122,0 -1.52708,-0.57952 -1.7056,-1.35656c-0.31993,0.34916 -0.7797,0.56809 -1.29059,0.56809c-0.9665,0 -1.75,-0.7835 -1.75,-1.75c0,-0.9665 0.7835,-1.75 1.75,-1.75c0.83122,0 1.52708,0.57952 1.7056,1.35657c0.31993,-0.34916 0.7797,-0.56809 1.29059,-0.56809z" fill="#341ed9" stroke="none" stroke-width="0.5"/><path d="M308.06683,226.78941c0.9665,0 1.75,0.7835 1.75,1.75c0,0.9665 -0.7835,1.75 -1.75,1.75c-0.46949,0 -0.89579,-0.18487 -1.21009,-0.4858c-0.31167,0.4821 -0.85392,0.80119 -1.47071,0.80119c-0.9665,0 -1.75,-0.7835 -1.75,-1.75c0,-0.9665 0.7835,-1.75 1.75,-1.75c0.46949,0 0.89579,0.18488 1.21009,0.4858c0.31167,-0.4821 0.85393,-0.80119 1.47071,-0.80119z" fill="#341ed9" stroke="none" stroke-width="0.5"/><path d="M311.52074,228.53941c0,-0.9665 0.7835,-1.75 1.75,-1.75c0.9665,0 1.75,0.7835 1.75,1.75c0,0.9665 -0.7835,1.75 -1.75,1.75c-0.9665,0 -1.75,-0.7835 -1.75,-1.75z" fill="#341ed9" stroke="none" stroke-width="0.5"/><path d="M316.72463,228.53941c0,-0.9665 0.7835,-1.75 1.75,-1.75c0.9665,0 1.75,0.7835 1.75,1.75c0,0.9665 -0.7835,1.75 -1.75,1.75c-0.9665,0 -1.75,-0.7835 -1.75,-1.75z" fill="#341ed9" stroke="none" stroke-width="0.5"/><path d="M321.14007,228.53941c0,-0.9665 0.7835,-1.75 1.75,-1.75c0.9665,0 1.75,0.7835 1.75,1.75c0,0.9665 -0.7835,1.75 -1.75,1.75c-0.9665,0 -1.75,-0.7835 -1.75,-1.75z" fill="#341ed9" stroke="none" stroke-width="0.5"/><path d="M327.44784,228.53941c0,-0.9665 0.7835,-1.75 1.75,-1.75c0.9665,0 1.75,0.7835 1.75,1.75c0,0.9665 -0.7835,1.75 -1.75,1.75c-0.9665,0 -1.75,-0.7835 -1.75,-1.75z" fill="#341ed9" stroke="none" stroke-width="0.5"/><path d="M336.60952,229.18174c0.13498,0 0.26497,0.0214 0.38676,0.06098c-0.05629,-0.17169 -0.08673,-0.3551 -0.08673,-0.54562c0,-0.9665 0.7835,-1.75 1.75,-1.75c0.51987,0 0.9868,0.22669 1.30732,0.5866c0.29856,-0.53793 0.87234,-0.90199 1.53117,-0.90199c0.9665,0 1.75,0.7835 1.75,1.75c0,0.9665 -0.7835,1.75 -1.75,1.75c-0.51987,0 -0.98679,-0.22669 -1.30731,-0.5866c-0.29856,0.53793 -0.87235,0.90199 -1.53118,0.90199c-0.29372,0 -0.57054,-0.07236 -0.8136,-0.20023c0.00894,0.06033 0.01358,0.12205 0.01358,0.18486c0,0.69036 -0.55964,1.25 -1.25,1.25c-0.10289,0 -0.20287,-0.01243 -0.29853,-0.03587c-0.19417,0.32689 -0.50054,0.50195 -0.50054,0.50195l-1.10386,0.63078c0,0 -1.0853,0.62018 -1.70548,-0.46513c-0.62018,-1.08531 0.46513,-1.70548 0.46513,-1.70548l0.29534,-0.16877c-0.8881,-0.08415 -1.58286,-0.832 -1.58286,-1.74212c0,-0.9665 0.7835,-1.75 1.75,-1.75c0.9665,0 1.75,0.7835 1.75,1.75c0,0.41857 -0.14695,0.80282 -0.39208,1.10397c0.07396,0.00154 0.15044,0.00987 0.22778,0.02748c0.21285,-0.38562 0.62347,-0.64682 1.0951,-0.64682z" fill="#341ed9" stroke="none" stroke-width="0.5"/><path d="M295.909,236.10873c0,-0.9665 0.46811,-1.75 1.43461,-1.75c0.9665,0 1.75,0.7835 1.75,1.75c0,0.9665 -0.7835,1.75 -1.75,1.75c-0.9665,0 -1.43461,-0.7835 -1.43461,-1.75z" fill="#3c69e5" stroke="none" stroke-width="0.5"/><path d="M299.53596,236.73951c0,-0.9665 0.7835,-1.75 1.75,-1.75c0.9665,0 1.75,0.7835 1.75,1.75c0,0.9665 -0.7835,1.75 -1.75,1.75c-0.9665,0 -1.75,-0.7835 -1.75,-1.75z" fill="#3c69e5" stroke="none" stroke-width="0.5"/><path d="M308.67386,240.03992l-1.41925,0.78847c0,0 -1.09269,0.60705 -1.69975,-0.48565c-0.24601,-0.44282 -0.21287,-0.80588 -0.08643,-1.08111c-0.0785,0.01077 -0.15866,0.01634 -0.24012,0.01634c-0.9665,0 -1.75,-0.7835 -1.75,-1.75c0,-0.9665 0.7835,-1.75 1.75,-1.75c0.49915,0 0.9495,0.20898 1.2683,0.54422c0.30012,-0.24179 0.68171,-0.38652 1.0971,-0.38652c0.9665,0 1.75,0.7835 1.75,1.75c0,0.25464 -0.05438,0.49657 -0.15217,0.71482c0.53483,1.0547 -0.5177,1.63943 -0.5177,1.63943z" fill="#3c69e5" stroke="none" stroke-width="0.5"/><path d="M309.813,237.84336c0,-0.69036 0.55964,-1.25 1.25,-1.25c0.01537,0 0.03067,0.00028 0.04591,0.00083c0.20222,-0.74299 0.88167,-1.2893 1.68872,-1.2893c0.68682,0 1.28123,0.39566 1.56772,0.97149c0.07501,-0.89736 0.82711,-1.60226 1.74385,-1.60226c0.9665,0 1.75,0.7835 1.75,1.75c0,0.9665 -0.7835,1.75 -1.75,1.75c-0.68682,0 -1.28123,-0.39566 -1.56772,-0.97149c-0.07501,0.89736 -0.82711,1.60226 -1.74385,1.60226c-0.27362,0 -0.53258,-0.06279 -0.76324,-0.17477c-0.22917,0.28261 -0.57918,0.46323 -0.97139,0.46323c-0.69036,0 -1.25,-0.55964 -1.25,-1.25z" fill="#3c69e5" stroke="none" stroke-width="0.5"/><path d="M319.72083,236.10873c0,-0.9665 0.7835,-1.75 1.75,-1.75c0.9665,0 1.75,0.7835 1.75,1.75c0,0.9665 -0.7835,1.75 -1.75,1.75c-0.9665,0 -1.75,-0.7835 -1.75,-1.75z" fill="#3c69e5" stroke="none" stroke-width="0.5"/><path d="M327.7786,234.51642c0.9665,0 1.75,0.7835 1.75,1.75c0,0.9665 -0.7835,1.75 -1.75,1.75c-0.49915,0 -0.9495,-0.20898 -1.2683,-0.54422c-0.30012,0.24179 -0.68171,0.38652 -1.09711,0.38652c-0.9665,0 -1.75,-0.7835 -1.75,-1.75c0,-0.9665 0.7835,-1.75 1.75,-1.75c0.49915,0 0.9495,0.20898 1.2683,0.54422c0.30012,-0.24179 0.68171,-0.38652 1.09711,-0.38652z" fill="#3c69e5" stroke="none" stroke-width="0.5"/><path d="M330.44404,236.26642c0,-0.9665 0.7835,-1.75 1.75,-1.75c0.9665,0 1.75,0.7835 1.75,1.75c0,0.9665 -0.7835,1.75 -1.75,1.75c-0.9665,0 -1.75,-0.7835 -1.75,-1.75z" fill="#3c69e5" stroke="none" stroke-width="0.5"/><path d="M334.38638,236.26642c0,-0.9665 0.7835,-1.75 1.75,-1.75c0.9665,0 1.75,0.7835 1.75,1.75c0,0.9665 -0.7835,1.75 -1.75,1.75c-0.9665,0 -1.75,-0.7835 -1.75,-1.75z" fill="#3c69e5" stroke="none" stroke-width="0.5"/><path d="M340.69422,236.10873c0,-0.9665 0.7835,-1.75 1.75,-1.75c0.9665,0 1.75,0.7835 1.75,1.75c0,0.9665 -0.7835,1.75 -1.75,1.75c-0.9665,0 -1.75,-0.7835 -1.75,-1.75z" fill="#3c69e5" stroke="none" stroke-width="0.5"/><path d="M298.77441,233.42793c0,-0.69036 0.55964,-1.25 1.25,-1.25c0.69036,0 1.25,0.55964 1.25,1.25c0,0.69036 -0.55964,1.25 -1.25,1.25c-0.69036,0 -1.25,-0.55964 -1.25,-1.25z" fill="#341ed9" stroke="none" stroke-width="0.5"/><path d="M302.55911,231.85099c0,-0.69036 0.55964,-1.25 1.25,-1.25c0.69036,0 1.25,0.55964 1.25,1.25c0,0.69036 -0.55964,1.25 -1.25,1.25c-0.69036,0 -1.25,-0.55964 -1.25,-1.25z" fill="#341ed9" stroke="none" stroke-width="0.5"/><path d="M310.12841,230.90482c0,-0.69036 0.55964,-1.25 1.25,-1.25c0.69036,0 1.25,0.55964 1.25,1.25c0,0.69036 -0.55964,1.25 -1.25,1.25c-0.69036,0 -1.25,-0.55964 -1.25,-1.25z" fill="#341ed9" stroke="none" stroke-width="0.5"/><path d="M314.70153,231.5356c0,-0.69036 0.55964,-1.25 1.25,-1.25c0.69036,0 1.25,0.55964 1.25,1.25c0,0.69036 -0.55964,1.25 -1.25,1.25c-0.69036,0 -1.25,-0.55964 -1.25,-1.25z" fill="#341ed9" stroke="none" stroke-width="0.5"/><path d="M321.32469,234.0587c0,-0.69036 0.55964,-1.25 1.25,-1.25c0.69036,0 1.25,0.55964 1.25,1.25c0,0.69036 -0.55964,1.25 -1.25,1.25c-0.69036,0 -1.25,-0.55964 -1.25,-1.25z" fill="#341ed9" stroke="none" stroke-width="0.5"/><path d="M324.95165,233.90101c0,-0.69036 0.55964,-1.25 1.25,-1.25c0.69036,0 1.25,0.55964 1.25,1.25c0,0.69036 -0.55964,1.25 -1.25,1.25c-0.69036,0 -1.25,-0.55964 -1.25,-1.25z" fill="#341ed9" stroke="none" stroke-width="0.5"/><path d="M300.50906,240.83955c0,-0.69036 0.55964,-1.25 1.25,-1.25c0.69036,0 1.25,0.55964 1.25,1.25c0,0.69036 -0.55964,1.25 -1.25,1.25c-0.69036,0 -1.25,-0.55964 -1.25,-1.25z" fill="#3c69e5" stroke="none" stroke-width="0.5"/><path d="M320.53621,239.578c0,-0.69036 0.55964,-1.25 1.25,-1.25c0.69036,0 1.25,0.55964 1.25,1.25c0,0.69036 -0.55964,1.25 -1.25,1.25c-0.69036,0 -1.25,-0.55964 -1.25,-1.25z" fill="#3c69e5" stroke="none" stroke-width="0.5"/><path d="M327.00167,241.15494c0,-0.69036 0.55964,-1.25 1.25,-1.25c0.69036,0 1.25,0.55964 1.25,1.25c0,0.69036 -0.55964,1.25 -1.25,1.25c-0.69036,0 -1.25,-0.55964 -1.25,-1.25z" fill="#3c69e5" stroke="none" stroke-width="0.5"/><path d="M331.89018,241.15494c0,-0.69036 0.55964,-1.25 1.25,-1.25c0.69036,0 1.25,0.55964 1.25,1.25c0,0.69036 -0.55964,1.25 -1.25,1.25c-0.69036,0 -1.25,-0.55964 -1.25,-1.25z" fill="#3c69e5" stroke="none" stroke-width="0.5"/><path d="M339.44798,237.22414c0.69036,0 1.25,0.55964 1.25,1.25c0,0.64145 -0.48315,1.17004 -1.10538,1.24173c-0.21406,0.38136 -0.62232,0.63905 -1.09078,0.63905c-0.69036,0 -1.25,-0.55964 -1.25,-1.25c0,-0.64145 0.48315,-1.17004 1.10538,-1.24173c0.21406,-0.38136 0.62232,-0.63905 1.09078,-0.63905z" fill="#3c69e5" stroke="none" stroke-width="0.5"/><path d="M304.16294,226.48938c0,-0.41422 0.33578,-0.75 0.75,-0.75c0.41422,0 0.75,0.33578 0.75,0.75c0,0.41422 -0.33578,0.75 -0.75,0.75c-0.41422,0 -0.75,-0.33578 -0.75,-0.75z" fill="#2713b5" stroke="none" stroke-width="0.5"/><path d="M315.35922,225.85861c0,-0.41422 0.33578,-0.75 0.75,-0.75c0.41422,0 0.75,0.33578 0.75,0.75c0,0.41422 -0.33578,0.75 -0.75,0.75c-0.41422,0 -0.75,-0.33578 -0.75,-0.75z" fill="#2713b5" stroke="none" stroke-width="0.5"/><path d="M320.56314,223.65089c0,-0.41422 0.33578,-0.75 0.75,-0.75c0.41422,0 0.75,0.33578 0.75,0.75c0,0.41422 -0.33578,0.75 -0.75,0.75c-0.41422,0 -0.75,-0.33578 -0.75,-0.75z" fill="#2713b5" stroke="none" stroke-width="0.5"/><path d="M328.13246,227.59324c0,-0.41421 0.33579,-0.75 0.75,-0.75c0.41421,0 0.75,0.33579 0.75,0.75c0,0.41421 -0.33579,0.75 -0.75,0.75c-0.41421,0 -0.75,-0.33579 -0.75,-0.75z" fill="#2713b5" stroke="none" stroke-width="0.5"/><path d="M333.65173,227.59324c0,-0.41421 0.33579,-0.75 0.75,-0.75c0.41421,0 0.75,0.33579 0.75,0.75c0,0.41421 -0.33579,0.75 -0.75,0.75c-0.41421,0 -0.75,-0.33579 -0.75,-0.75z" fill="#2713b5" stroke="none" stroke-width="0.5"/><path d="M338.54036,227.27785c0,-0.41421 0.33579,-0.75 0.75,-0.75c0.41421,0 0.75,0.33579 0.75,0.75c0,0.41421 -0.33579,0.75 -0.75,0.75c-0.41421,0 -0.75,-0.33579 -0.75,-0.75z" fill="#2713b5" stroke="none" stroke-width="0.5"/><path d="M301.63982,235.79334c0,-0.41421 0.33579,-0.75 0.75,-0.75c0.41421,0 0.75,0.33579 0.75,0.75c0,0.41421 -0.33579,0.75 -0.75,0.75c-0.41421,0 -0.75,-0.33579 -0.75,-0.75z" fill="#341ed9" stroke="none" stroke-width="0.5"/><path d="M311.10148,233.90101c0,-0.41421 0.33579,-0.75 0.75,-0.75c0.41421,0 0.75,0.33579 0.75,0.75c0,0.41421 -0.33579,0.75 -0.75,0.75c-0.41421,0 -0.75,-0.33579 -0.75,-0.75z" fill="#341ed9" stroke="none" stroke-width="0.5"/><path d="M325.29398,236.10873c0,-0.41421 0.33579,-0.75 0.75,-0.75c0.41421,0 0.75,0.33579 0.75,0.75c0,0.41421 -0.33579,0.75 -0.75,0.75c-0.41421,0 -0.75,-0.33579 -0.75,-0.75z" fill="#341ed9" stroke="none" stroke-width="0.5"/><path d="M334.75561,234.37409c0,-0.41421 0.33579,-0.75 0.75,-0.75c0.41421,0 0.75,0.33579 0.75,0.75c0,0.41421 -0.33579,0.75 -0.75,0.75c-0.41421,0 -0.75,-0.33579 -0.75,-0.75z" fill="#341ed9" stroke="none" stroke-width="0.5"/><path d="M340.11722,233.74331c0,-0.41421 0.33579,-0.75 0.75,-0.75c0.41421,0 0.75,0.33579 0.75,0.75c0,0.41421 -0.33579,0.75 -0.75,0.75c-0.41421,0 -0.75,-0.33579 -0.75,-0.75z" fill="#341ed9" stroke="none" stroke-width="0.5"/><path d="M298.48596,242.73188c0,-0.41421 0.33579,-0.75 0.75,-0.75c0.41421,0 0.75,0.33579 0.75,0.75c0,0.41421 -0.33579,0.75 -0.75,0.75c-0.41421,0 -0.75,-0.33579 -0.75,-0.75z" fill="#3c69e5" stroke="none" stroke-width="0.5"/><path d="M311.10148,243.36266c0,-0.41421 0.33579,-0.75 0.75,-0.75c0.41421,0 0.75,0.33579 0.75,0.75c0,0.41421 -0.33579,0.75 -0.75,0.75c-0.41421,0 -0.75,-0.33579 -0.75,-0.75z" fill="#3c69e5" stroke="none" stroke-width="0.5"/><path d="M319.30159,240.52416c0,-0.41421 0.33579,-0.75 0.75,-0.75c0.41421,0 0.75,0.33579 0.75,0.75c0,0.41421 -0.33579,0.75 -0.75,0.75c-0.41421,0 -0.75,-0.33579 -0.75,-0.75z" fill="#3c69e5" stroke="none" stroke-width="0.5"/><path d="M322.29776,244.78191c0,-0.41421 0.33579,-0.75 0.75,-0.75c0.41421,0 0.75,0.33579 0.75,0.75c0,0.41421 -0.33579,0.75 -0.75,0.75c-0.41421,0 -0.75,-0.33579 -0.75,-0.75z" fill="#3c69e5" stroke="none" stroke-width="0.5"/><path d="M333.80947,245.88576c0,-0.41421 0.33579,-0.75 0.75,-0.75c0.41421,0 0.75,0.33579 0.75,0.75c0,0.41421 -0.33579,0.75 -0.75,0.75c-0.41421,0 -0.75,-0.33579 -0.75,-0.75z" fill="#3c69e5" stroke="none" stroke-width="0.5"/><path d="M340.59039,243.52035c0,-0.41421 0.33579,-0.75 0.75,-0.75c0.41421,0 0.75,0.33579 0.75,0.75c0,0.41421 -0.33579,0.75 -0.75,0.75c-0.41421,0 -0.75,-0.33579 -0.75,-0.75z" fill="#3c69e5" stroke="none" stroke-width="0.5"/><path d="M303.84756,243.67805c0,-0.41421 0.33579,-0.75 0.75,-0.75c0.41421,0 0.75,0.33579 0.75,0.75c0,0.41421 -0.33579,0.75 -0.75,0.75c-0.41421,0 -0.75,-0.33579 -0.75,-0.75z" fill="#3c69e5" stroke="none" stroke-width="0.5"/></g><path d="M214.52362,306.61252v-267.72501h213.18203v267.72501z" fill="none" stroke="none" stroke-width="0" stroke-linecap="butt"/><path d="" fill="none" stroke="#000000" stroke-width="2" stroke-linecap="round"/><g stroke="#000000" stroke-linecap="round"><path d="M254.73031,183.82412l-15.66914,-11.24311l20.47671,-23.68176z" fill="#374646" stroke-width="0"/><path d="M258.10688,163.70568l-33.16911,-53.20878l4.29216,-30.49627l103.73779,-23.40353l8.75296,82.00141z" fill="#92161c" stroke-width="0"/><path d="M317.53488,96.9726l-49.29298,-13.35978" fill="none" stroke-width="1"/><path d="M281.14099,105.72556c0,0 6.36028,-8.73796 10.01378,-13.75725c4.41644,-6.06744 14.63271,-20.10288 14.63271,-20.10288" fill="none" stroke-width="1"/></g><g><g stroke="#000000" stroke-width="0"><path d="M255.96352,163.83537c0,-33.30185 28.7599,-60.29833 64.23702,-60.29833c35.47713,0 64.23702,26.99648 64.23702,60.29833c0,33.30185 -28.75989,60.29834 -64.23702,60.29834c-35.47712,0 -64.23702,-26.99649 -64.23702,-60.29834z" fill="#4372d5" stroke-linecap="butt"/><path d="M317.99555,103.81701l50.44468,-21.19137l1.16843,14.95748c0,0 17.24815,17.37148 23.9703,24.14169c4.88086,4.91576 12.6372,12.72756 12.6372,12.72756l-7.83159,5.29784l-0.92136,34.32081l-4.83717,-4.60682l-14.51148,43.7648l-5.52818,-7.60125l-19.57899,26.71956l-5.52819,-10.13501l-26.25888,14.0508c0,0 5.13132,-29.15107 4.37648,-48.14128c-0.75484,-18.99021 -8.75296,-61.96174 -8.75296,-61.96174" fill="#4372d5" stroke-linecap="round"/><path d="M317.99555,103.81701l50.44468,-21.19137l1.16843,14.95748c0,0 17.24815,17.37148 23.9703,24.14169c4.88086,4.91576 12.6372,12.72756 12.6372,12.72756l-7.83159,5.29784c0,0 -0.03112,1.15926 -0.06518,2.42779c-0.00101,0.03782 -79.03318,-0.83694 -79.03742,-0.86382c-1.38069,-8.76051 -2.43814,-15.15409 -2.43814,-15.15409" fill="#3c69e5" stroke-linecap="round"/><path d="M261.20538,139.93898c9.85791,-21.41522 32.56204,-36.40194 58.99514,-36.40194c27.06939,0 50.2281,15.7169 59.68456,37.95947c0.014,0.03293 -118.6937,-1.5271 -118.67969,-1.55754z" fill="#3c69e5" stroke-linecap="butt"/><path d="M317.99555,103.81701l50.44468,-21.19137l1.16843,14.95748c0,0 17.24815,17.37148 23.9703,24.14169c4.88086,4.91576 12.6372,12.72756 12.6372,12.72756c0,0 -1.70562,1.1538 -2.76605,1.87115c-0.02706,0.01831 -86.27756,-1.89375 -86.27926,-1.93645c-0.16976,-4.27097 -0.32701,-8.22699 -0.32701,-8.22699" fill="#341ed9" stroke-linecap="round"/><path d="M263.98576,134.63326c10.95619,-18.5442 32.02389,-31.09622 56.21477,-31.09622c24.59918,0 45.96886,12.9793 56.76086,32.04028c0.01718,0.03033 -112.98345,-0.93081 -112.97563,-0.94406z" fill="#341ed9" stroke-linecap="butt"/><path d="M270.3028,125.85767c11.77766,-13.6181 29.75501,-22.32063 49.89771,-22.32063c20.42368,0 38.62118,8.94702 50.38696,22.89339c0.08135,0.09642 -100.33685,-0.51242 -100.28466,-0.57276z" fill="#2713b5" stroke-linecap="butt"/><path d="M317.99555,103.81701l50.44468,-21.19137l1.16843,14.95748c0,0 22.09647,22.25019 28.74162,28.94285c0.02111,0.02126 -81.50644,-0.36589 -81.50644,-0.36589" fill="#2713b5" stroke-linecap="round"/></g><path d="M270.81958,126.64102c0,-0.9665 0.7835,-1.75 1.75,-1.75c0.9665,0 1.75,0.7835 1.75,1.75c0,0.9665 -0.7835,1.75 -1.75,1.75c-0.9665,0 -1.75,-0.7835 -1.75,-1.75z" fill="#2713b5" stroke="none" stroke-width="0.5" stroke-linecap="butt"/><path d="M279.98121,125.20641c0.9665,0 1.75,0.7835 1.75,1.75c0,0.9665 -0.7835,1.75 -1.75,1.75c-0.76771,0 -1.41996,-0.49435 -1.65579,-1.18208c-0.23583,0.68774 -0.88808,1.18208 -1.65579,1.18208c-0.9665,0 -1.75,-0.7835 -1.75,-1.75c0,-0.9665 0.7835,-1.75 1.75,-1.75c0.76771,0 1.41996,0.49435 1.65579,1.18208c0.23583,-0.68774 0.88808,-1.18208 1.65579,-1.18208z" fill="#2713b5" stroke="none" stroke-width="0.5" stroke-linecap="butt"/><path d="M283.27743,126.32563c0,-0.9665 0.7835,-1.75 1.75,-1.75c0.9665,0 1.75,0.7835 1.75,1.75c0,0.9665 -0.7835,1.75 -1.75,1.75c-0.9665,0 -1.75,-0.7835 -1.75,-1.75z" fill="#2713b5" stroke="none" stroke-width="0.5" stroke-linecap="butt"/><path d="M286.90439,126.16794c0,-0.9665 0.7835,-1.75 1.75,-1.75c0.9665,0 1.75,0.7835 1.75,1.75c0,0.9665 -0.7835,1.75 -1.75,1.75c-0.9665,0 -1.75,-0.7835 -1.75,-1.75z" fill="#2713b5" stroke="none" stroke-width="0.5" stroke-linecap="butt"/><path d="M290.84675,126.01024c0,-0.9665 0.7835,-1.75 1.75,-1.75c0.9665,0 1.75,0.7835 1.75,1.75c0,0.9665 -0.7835,1.75 -1.75,1.75c-0.9665,0 -1.75,-0.7835 -1.75,-1.75z" fill="#2713b5" stroke="none" stroke-width="0.5" stroke-linecap="butt"/><path d="M300.3705,128.72516c-0.50069,0 -0.93263,-0.29438 -1.13217,-0.7195c-0.15593,0.04554 -0.32087,0.06997 -0.49151,0.06997c-0.9665,0 -1.75,-0.7835 -1.75,-1.75c0,-0.9665 0.7835,-1.75 1.75,-1.75c0.60373,0 1.13605,0.30572 1.45061,0.77079c0.29424,-0.55243 0.876,-0.92848 1.54558,-0.92848c0.9665,0 1.75,0.7835 1.75,1.75c0,0.9665 -0.7835,1.75 -1.75,1.75c-0.06729,0 -0.1337,-0.0038 -0.19902,-0.01119c-0.17574,0.47769 -0.63483,0.81842 -1.17349,0.81842z" fill="#2713b5" stroke="none" stroke-width="0.5" stroke-linecap="butt"/><path d="M310.14752,125.12131c0.69036,0 1.25,0.55964 1.25,1.25c0,0.69036 -0.55964,1.25 -1.25,1.25c-0.41722,0 -0.7867,-0.20441 -1.01375,-0.51854c-0.1301,0.12856 -0.28826,0.22877 -0.46448,0.29062c-0.31758,0.32373 -0.75999,0.52455 -1.24931,0.52455c-0.9665,0 -1.75,-0.7835 -1.75,-1.75c0,-0.9665 0.7835,-1.75 1.75,-1.75c0.55815,0 1.05527,0.2613 1.37571,0.66825c0.18895,0.09075 0.35156,0.22759 0.47325,0.39596c0.22577,-0.2231 0.53609,-0.36084 0.87858,-0.36084z" fill="#2713b5" stroke="none" stroke-width="0.5" stroke-linecap="butt"/><path d="M313.8701,126.95641c0,-0.9665 0.7835,-1.75 1.75,-1.75c0.9665,0 1.75,0.7835 1.75,1.75c0,0.9665 -0.7835,1.75 -1.75,1.75c-0.9665,0 -1.75,-0.7835 -1.75,-1.75z" fill="#2713b5" stroke="none" stroke-width="0.5" stroke-linecap="butt"/><path d="M318.9163,125.69486c0,-0.9665 0.7835,-1.75 1.75,-1.75c0.9665,0 1.75,0.7835 1.75,1.75c0,0.9665 -0.7835,1.75 -1.75,1.75c-0.9665,0 -1.75,-0.7835 -1.75,-1.75z" fill="#2713b5" stroke="none" stroke-width="0.5" stroke-linecap="butt"/><path d="M334.85877,124.26024c0.9665,0 1.75,0.7835 1.75,1.75c0,0.9665 -0.7835,1.75 -1.75,1.75c-0.72694,0 -1.35036,-0.44324 -1.61474,-1.0742c-0.29624,0.54588 -0.87441,0.91651 -1.53914,0.91651c-0.25307,0 -0.4936,-0.05372 -0.71079,-0.15037c-0.32102,0.38123 -0.80184,0.62346 -1.33923,0.62346c-0.9665,0 -1.75,-0.7835 -1.75,-1.75c0,-0.9665 0.7835,-1.75 1.75,-1.75c0.25307,0 0.4936,0.05372 0.71079,0.15037c0.32102,-0.38123 0.80184,-0.62346 1.33923,-0.62346c0.72694,0 1.35036,0.44324 1.61474,1.0742c0.29624,-0.54588 0.87441,-0.91651 1.53914,-0.91651z" fill="#2713b5" stroke="none" stroke-width="0.5" stroke-linecap="butt"/><path d="M341.46659,125.69486c0,-0.9665 0.7835,-1.75 1.75,-1.75c0.9665,0 1.75,0.7835 1.75,1.75c0,0.9665 -0.7835,1.75 -1.75,1.75c-0.9665,0 -1.75,-0.7835 -1.75,-1.75z" fill="#2713b5" stroke="none" stroke-width="0.5" stroke-linecap="butt"/><path d="M348.95186,127.94825c0,-0.23822 0.06664,-0.46088 0.1823,-0.65036c-0.25805,-0.30488 -0.41365,-0.69925 -0.41365,-1.12995c0,-0.9665 0.7835,-1.75 1.75,-1.75c0.9665,0 1.75,0.7835 1.75,1.75c0,0.61902 -0.3214,1.16297 -0.80643,1.47409c0.02468,0.09799 0.03778,0.20057 0.03778,0.30622c0,0.69036 -0.55964,1.25 -1.25,1.25c-0.69036,0 -1.25,-0.55964 -1.25,-1.25z" fill="#2713b5" stroke="none" stroke-width="0.5" stroke-linecap="butt"/><path d="M360.30585,129.52519c0,-0.50779 0.30279,-0.94487 0.73767,-1.14052c-0.89618,-0.07618 -1.5998,-0.82774 -1.5998,-1.74364c0,-0.52338 0.22976,-0.99309 0.59391,-1.31378c0.32069,-0.36415 0.79041,-0.59391 1.31378,-0.59391c0.9665,0 1.75,0.7835 1.75,1.75c0,0.52338 -0.22976,0.99309 -0.59391,1.31378c-0.19678,0.22345 -0.44967,0.39629 -0.73663,0.4965c0.58789,0.10193 1.03497,0.61454 1.03497,1.23157c0,0.69036 -0.55964,1.25 -1.25,1.25c-0.69036,0 -1.25,-0.55964 -1.25,-1.25z" fill="#2713b5" stroke="none" stroke-width="0.5" stroke-linecap="butt"/><path d="M369.70921,125.20641c0.71737,0 1.33393,0.43165 1.60412,1.04938c0.17548,-0.78117 0.87332,-1.36477 1.70746,-1.36477c0.9665,0 1.75,0.7835 1.75,1.75c0,0.9665 -0.7835,1.75 -1.75,1.75c-0.71737,0 -1.33393,-0.43165 -1.60412,-1.04938c-0.17548,0.78117 -0.87332,1.36477 -1.70746,1.36477c-0.18599,0 -0.36521,-0.02902 -0.53337,-0.08277c-0.25984,0.15282 -0.56262,0.24046 -0.88588,0.24046c-0.9665,0 -1.75,-0.7835 -1.75,-1.75c0,-0.9665 0.7835,-1.75 1.75,-1.75c0.18599,0 0.36521,0.02902 0.53337,0.08277c0.25984,-0.15282 0.56262,-0.24046 0.88588,-0.24046z" fill="#2713b5" stroke="none" stroke-width="0.5" stroke-linecap="butt"/><path d="M395.0826,127.42949c0,-0.9665 0.7835,-1.75 1.75,-1.75c0.9665,0 1.75,0.7835 1.75,1.75c0,0.9665 -0.7835,1.75 -1.75,1.75c-0.9665,0 -1.75,-0.7835 -1.75,-1.75z" fill="#2713b5" stroke="none" stroke-width="0.5" stroke-linecap="butt"/><path d="M388.21772,128.10594c0,-0.05821 0.00398,-0.1155 0.01168,-0.1716c-0.09895,0.11591 -0.21277,0.21874 -0.33851,0.30554c0.28156,0.2292 0.46141,0.57855 0.46141,0.96991c0,0.69036 -0.55964,1.25 -1.25,1.25c-0.69036,0 -1.25,-0.55964 -1.25,-1.25c0,-0.31522 0.11668,-0.6032 0.30921,-0.82308c-0.59858,-0.27803 -1.01365,-0.88455 -1.01365,-1.588c0,-0.9665 0.7835,-1.75 1.75,-1.75c0.9665,0 1.75,0.7835 1.75,1.75c0,0.14021 -0.01649,0.27656 -0.04763,0.40723c0.22479,-0.21672 0.53057,-0.35001 0.86748,-0.35001c0.03835,0 0.07629,0.00173 0.11375,0.00511c0.12262,-0.84658 0.85128,-1.49694 1.73184,-1.49694c0.37378,0 0.72019,0.11718 1.0045,0.31682c0.22223,-0.10216 0.46953,-0.15913 0.73014,-0.15913c0.9665,0 1.75,0.7835 1.75,1.75c0,0.9665 -0.7835,1.75 -1.75,1.75c-0.37378,0 -0.72019,-0.11718 -1.0045,-0.31682c-0.22223,0.10216 -0.46953,0.15913 -0.73014,0.15913c-0.26626,0 -0.51864,-0.05946 -0.74457,-0.16584c-0.2111,0.39157 -0.62499,0.65767 -1.10103,0.65767c-0.69036,0 -1.25,-0.55964 -1.25,-1.25z" fill="#2713b5" stroke="none" stroke-width="0.5" stroke-linecap="butt"/><path d="M377.42085,126.95641c0,-0.9665 0.7835,-1.75 1.75,-1.75c0.38282,0 0.73693,0.12292 1.02501,0.33145c0.28808,-0.20853 0.64219,-0.33145 1.02501,-0.33145c0.9665,0 1.75,0.7835 1.75,1.75c0,0.9665 -0.7835,1.75 -1.75,1.75c-0.38282,0 -0.73693,-0.12292 -1.02501,-0.33145c-0.28808,0.20853 -0.64219,0.33145 -1.02501,0.33145c-0.9665,0 -1.75,-0.7835 -1.75,-1.75z" fill="#2713b5" stroke="none" stroke-width="0.5" stroke-linecap="butt"/><path d="M352.66287,126.48333c0,-0.9665 0.7835,-1.75 1.75,-1.75c0.9665,0 1.75,0.7835 1.75,1.75c0,0.9665 -0.7835,1.75 -1.75,1.75c-0.9665,0 -1.75,-0.7835 -1.75,-1.75z" fill="#2713b5" stroke="none" stroke-width="0.5" stroke-linecap="butt"/><path d="M322.70097,126.32563c0,-0.9665 0.7835,-1.75 1.75,-1.75c0.9665,0 1.75,0.7835 1.75,1.75c0,0.9665 -0.7835,1.75 -1.75,1.75c-0.9665,0 -1.75,-0.7835 -1.75,-1.75z" fill="#2713b5" stroke="none" stroke-width="0.5" stroke-linecap="butt"/><path d="M269.10974,133.44733c0.9665,0 1.75,0.7835 1.75,1.75c0,0.9665 -0.7835,1.75 -1.75,1.75c-0.53119,0 -1.0071,-0.23666 -1.32804,-0.6103c-0.22792,0.70164 -0.88709,1.20885 -1.66473,1.20885c-0.9665,0 -1.75,-0.7835 -1.75,-1.75c0,-0.9665 0.7835,-1.75 1.75,-1.75c0.53119,0 1.0071,0.23666 1.32804,0.6103c0.22792,-0.70164 0.88709,-1.20885 1.66473,-1.20885z" fill="#341ed9" stroke="none" stroke-width="0.5" stroke-linecap="butt"/><path d="M271.933,137.02362c0,-0.40547 0.19305,-0.76585 0.49226,-0.99423c-0.35596,-0.32033 -0.57978,-0.78463 -0.57978,-1.30121c0,-0.9665 0.7835,-1.75 1.75,-1.75c0.82551,0 1.51752,0.57159 1.70185,1.34059c0.32008,-0.35153 0.78143,-0.57216 1.29431,-0.57216c0.49654,0 0.94479,0.2068 1.2633,0.53897c0.12362,-0.84545 0.85175,-1.49462 1.7315,-1.49462c0.9665,0 1.75,0.7835 1.75,1.75c0,0.9665 -0.7835,1.75 -1.75,1.75c-0.49654,0 -0.94479,-0.2068 -1.2633,-0.53897c-0.12362,0.84545 -0.85175,1.49462 -1.7315,1.49462c-0.82551,0 -1.51752,-0.57159 -1.70185,-1.34059c-0.17808,0.19558 -0.39989,0.35064 -0.64998,0.44972c0.12235,0.1932 0.19319,0.42227 0.19319,0.66787c0,0.69036 -0.55964,1.25 -1.25,1.25c-0.69036,0 -1.25,-0.55964 -1.25,-1.25z" fill="#341ed9" stroke="none" stroke-width="0.5" stroke-linecap="butt"/><path d="M281.42573,136.09516c0,-0.9665 0.7835,-1.75 1.75,-1.75c0.9665,0 1.75,0.7835 1.75,1.75c0,0.9665 -0.7835,1.75 -1.75,1.75c-0.9665,0 -1.75,-0.7835 -1.75,-1.75z" fill="#341ed9" stroke="none" stroke-width="0.5" stroke-linecap="butt"/><path d="M288.28722,137.71464c0,-0.18496 0.04017,-0.36054 0.11227,-0.51848c-0.24368,-0.3007 -0.38967,-0.6838 -0.38967,-1.101c0,-0.9665 0.7835,-1.75 1.75,-1.75c0.9665,0 1.75,0.7835 1.75,1.75c0,0.5891 -0.29108,1.11022 -0.73727,1.42736c0.00966,0.06263 0.01467,0.12679 0.01467,0.19212c0,0.69036 -0.55964,1.25 -1.25,1.25c-0.69036,0 -1.25,-0.55964 -1.25,-1.25z" fill="#341ed9" stroke="none" stroke-width="0.5" stroke-linecap="butt"/><path d="M303.27293,135.79588c0,-0.9665 0.7835,-1.75 1.75,-1.75c0.9665,0 1.75,0.7835 1.75,1.75c0,0.9665 -0.7835,1.75 -1.75,1.75c-0.9665,0 -1.75,-0.7835 -1.75,-1.75z" fill="#341ed9" stroke="none" stroke-width="0.5" stroke-linecap="butt"/><path d="M317.27644,135.87191c0,0.69036 -0.55964,1.25 -1.25,1.25c-0.1249,0 -0.24552,-0.01832 -0.35932,-0.05242c-0.23187,0.11344 -0.49252,0.17711 -0.76805,0.17711c-0.9665,0 -1.75,-0.7835 -1.75,-1.75c0,-0.9665 0.7835,-1.75 1.75,-1.75c0.67876,0 1.26726,0.38643 1.55751,0.95128c0.47845,0.17534 0.81986,0.63481 0.81986,1.17402z" fill="#341ed9" stroke="none" stroke-width="0.5" stroke-linecap="butt"/><path d="M325.83282,138.86635c0,-0.3868 0.17569,-0.73256 0.45161,-0.96185c-0.51756,-0.30398 -0.86501,-0.86644 -0.86501,-1.51006c0,-0.9665 0.7835,-1.75 1.75,-1.75c0.9665,0 1.75,0.7835 1.75,1.75c0,0.68734 -0.39627,1.28214 -0.9728,1.56838c0.23798,0.22758 0.3862,0.54824 0.3862,0.90353c0,0.69036 -0.55964,1.25 -1.25,1.25c-0.69036,0 -1.25,-0.55964 -1.25,-1.25z" fill="#341ed9" stroke="none" stroke-width="0.5" stroke-linecap="butt"/><path d="M354.15,134.89805c0,-0.9665 0.7835,-1.75 1.75,-1.75c0.9665,0 1.75,0.7835 1.75,1.75c0,0.9665 -0.7835,1.75 -1.75,1.75c-0.9665,0 -1.75,-0.7835 -1.75,-1.75z" fill="#341ed9" stroke="none" stroke-width="0.5" stroke-linecap="butt"/><path d="M363.8391,137.25396c0,-0.69036 0.55964,-1.25 1.25,-1.25c0.12482,0 0.24536,0.01829 0.3591,0.05235c-0.14323,-0.25375 -0.22496,-0.54682 -0.22496,-0.85898c0,-0.9665 0.7835,-1.75 1.75,-1.75c0.9665,0 1.75,0.7835 1.75,1.75c0,0.9665 -0.7835,1.75 -1.75,1.75c-0.25758,0 -0.50216,-0.05565 -0.72237,-0.15558c0.05693,0.14298 0.08824,0.29894 0.08824,0.46221c0,0.69036 -0.55964,1.25 -1.25,1.25c-0.69036,0 -1.25,-0.55964 -1.25,-1.25z" fill="#341ed9" stroke="none" stroke-width="0.5" stroke-linecap="butt"/><path d="M374.20152,135.19733c0,-0.9665 0.7835,-1.75 1.75,-1.75c0.9665,0 1.75,0.7835 1.75,1.75c0,0.9665 -0.7835,1.75 -1.75,1.75c-0.9665,0 -1.75,-0.7835 -1.75,-1.75z" fill="#341ed9" stroke="none" stroke-width="0.5" stroke-linecap="butt"/><path d="M399.59441,134.34516c0.9665,0 1.75,0.7835 1.75,1.75c0,0.9665 -0.7835,1.75 -1.75,1.75c-0.53119,0 -1.0071,-0.23666 -1.32804,-0.6103c-0.22792,0.70164 -0.88709,1.20885 -1.66473,1.20885c-0.9665,0 -1.75,-0.7835 -1.75,-1.75c0,-0.9665 0.7835,-1.75 1.75,-1.75c0.53119,0 1.0071,0.23666 1.32804,0.6103c0.22792,-0.70164 0.88709,-1.20885 1.66473,-1.20885z" fill="#341ed9" stroke="none" stroke-width="0.5" stroke-linecap="butt"/><path d="M261.54855,140.71913c0,-0.9665 0.7835,-1.75 1.75,-1.75c0.9665,0 1.75,0.7835 1.75,1.75c0,0.9665 -0.7835,1.75 -1.75,1.75c-0.9665,0 -1.75,-0.7835 -1.75,-1.75z" fill="#3c69e5" stroke="none" stroke-width="0.5" stroke-linecap="butt"/><path d="M394.66001,142.02965c0,-0.9665 0.7835,-1.75 1.75,-1.75c0.9665,0 1.75,0.7835 1.75,1.75c0,0.9665 -0.7835,1.75 -1.75,1.75c-0.9665,0 -1.75,-0.7835 -1.75,-1.75z" fill="#3c69e5" stroke="none" stroke-width="0.5" stroke-linecap="butt"/><path d="M389.23071,142.96574c0,-0.9665 0.7835,-1.75 1.75,-1.75c0.9665,0 1.75,0.7835 1.75,1.75c0,0.9665 -0.7835,1.75 -1.75,1.75c-0.9665,0 -1.75,-0.7835 -1.75,-1.75z" fill="#3c69e5" stroke="none" stroke-width="0.5" stroke-linecap="butt"/><path d="M383.80141,142.02965c0,-0.9665 0.7835,-1.75 1.75,-1.75c0.9665,0 1.75,0.7835 1.75,1.75c0,0.9665 -0.7835,1.75 -1.75,1.75c-0.9665,0 -1.75,-0.7835 -1.75,-1.75z" fill="#3c69e5" stroke="none" stroke-width="0.5" stroke-linecap="butt"/><path d="M377.19888,144.39453c0,-0.1235 0.01791,-0.24281 0.05127,-0.35549c-0.65766,-0.2517 -1.12465,-0.88879 -1.12465,-1.63496c0,-0.9665 0.7835,-1.75 1.75,-1.75c0.19646,0 0.38536,0.03237 0.56165,0.09208c0.17629,-0.0597 0.36519,-0.09208 0.56165,-0.09208c0.9665,0 1.75,0.7835 1.75,1.75c0,0.7382 -0.45707,1.36965 -1.10365,1.62677c0.03494,0.11508 0.05373,0.23718 0.05373,0.36368c0,0.69036 -0.55964,1.25 -1.25,1.25c-0.69036,0 -1.25,-0.55964 -1.25,-1.25z" fill="#3c69e5" stroke="none" stroke-width="0.5" stroke-linecap="butt"/><path d="M369.76012,142.40408c0,-0.9665 0.7835,-1.75 1.75,-1.75c0.9665,0 1.75,0.7835 1.75,1.75c0,0.9665 -0.7835,1.75 -1.75,1.75c-0.9665,0 -1.75,-0.7835 -1.75,-1.75z" fill="#3c69e5" stroke="none" stroke-width="0.5" stroke-linecap="butt"/><path d="M365.07969,142.21687c0,-0.9665 0.7835,-1.75 1.75,-1.75c0.9665,0 1.75,0.7835 1.75,1.75c0,0.9665 -0.7835,1.75 -1.75,1.75c-0.9665,0 -1.75,-0.7835 -1.75,-1.75z" fill="#3c69e5" stroke="none" stroke-width="0.5" stroke-linecap="butt"/><path d="M354.16478,142.5518c0,-0.69036 0.55964,-1.25 1.25,-1.25c0.18102,0 0.35306,0.03848 0.50838,0.10771c0.11946,-0.85017 0.84978,-1.50429 1.73289,-1.50429c0.9665,0 1.75,0.7835 1.75,1.75c0,0.9665 -0.7835,1.75 -1.75,1.75c-0.40994,0 -0.78696,-0.14096 -1.08524,-0.37705c-0.18731,0.45406 -0.63435,0.77363 -1.15602,0.77363c-0.69036,0 -1.25,-0.55964 -1.25,-1.25z" fill="#3c69e5" stroke="none" stroke-width="0.5" stroke-linecap="butt"/><path d="M350.5776,142.6501h-1.84273c0,0 -1.25,0 -1.25,-1.25c0,-1.25 1.25,-1.25 1.25,-1.25h1.84273c0,0 0.27536,0 0.5676,0.12924c0.29769,-0.23433 0.67328,-0.37412 1.08153,-0.37412c0.9665,0 1.75,0.7835 1.75,1.75c0,0.9665 -0.7835,1.75 -1.75,1.75c-0.60544,0 -1.13907,-0.30745 -1.45327,-0.77474c-0.11749,0.01962 -0.19585,0.01962 -0.19585,0.01962z" fill="#3c69e5" stroke="none" stroke-width="0.5" stroke-linecap="butt"/><path d="M341.67752,141.65522c0,-0.9665 0.7835,-1.75 1.75,-1.75c0.47281,0 0.90182,0.1875 1.21674,0.4922c0.28505,0.21258 0.47638,0.54384 0.5008,0.92059c0.0213,0.10911 0.03246,0.22186 0.03246,0.3372c0,0.9665 -0.7835,1.75 -1.75,1.75c-0.9665,0 -1.75,-0.7835 -1.75,-1.75z" fill="#3c69e5" stroke="none" stroke-width="0.5" stroke-linecap="butt"/><path d="M336.80988,141.28078c0,-0.9665 0.7835,-1.75 1.75,-1.75c0.9665,0 1.75,0.7835 1.75,1.75c0,0.9665 -0.7835,1.75 -1.75,1.75c-0.9665,0 -1.75,-0.7835 -1.75,-1.75z" fill="#3c69e5" stroke="none" stroke-width="0.5" stroke-linecap="butt"/><path d="M329.69561,140.71913c0,-0.9665 0.7835,-1.75 1.75,-1.75c0.9665,0 1.75,0.7835 1.75,1.75c0,0.9665 -0.7835,1.75 -1.75,1.75c-0.9665,0 -1.75,-0.7835 -1.75,-1.75z" fill="#3c69e5" stroke="none" stroke-width="0.5" stroke-linecap="butt"/><path d="M321.8325,140.71913c0,-0.9665 0.7835,-1.75 1.75,-1.75c0.9665,0 1.75,0.7835 1.75,1.75c0,0.9665 -0.7835,1.75 -1.75,1.75c-0.9665,0 -1.75,-0.7835 -1.75,-1.75z" fill="#3c69e5" stroke="none" stroke-width="0.5" stroke-linecap="butt"/><path d="M317.15207,140.71913c0,-0.9665 0.7835,-1.75 1.75,-1.75c0.9665,0 1.75,0.7835 1.75,1.75c0,0.9665 -0.7835,1.75 -1.75,1.75c-0.9665,0 -1.75,-0.7835 -1.75,-1.75z" fill="#3c69e5" stroke="none" stroke-width="0.5" stroke-linecap="butt"/><path d="M312.47164,140.90635c0,-0.9665 0.7835,-1.75 1.75,-1.75c0.9665,0 1.75,0.7835 1.75,1.75c0,0.9665 -0.7835,1.75 -1.75,1.75c-0.9665,0 -1.75,-0.7835 -1.75,-1.75z" fill="#3c69e5" stroke="none" stroke-width="0.5" stroke-linecap="butt"/><path d="M307.17519,143.01248c0,-0.44728 0.23493,-0.8397 0.58812,-1.06058c-0.21768,-0.29172 -0.34654,-0.65359 -0.34654,-1.04556c0,-0.9665 0.7835,-1.75 1.75,-1.75c0.9665,0 1.75,0.7835 1.75,1.75c0,0.81487 -0.55695,1.49966 -1.31095,1.69447c0.04494,0.12891 0.06937,0.26744 0.06937,0.41167c0,0.69036 -0.55964,1.25 -1.25,1.25c-0.69036,0 -1.25,-0.55964 -1.25,-1.25z" fill="#3c69e5" stroke="none" stroke-width="0.5" stroke-linecap="butt"/><path d="M301.87735,142.32146c0,-0.12227 0.01755,-0.24044 0.05028,-0.35212c-0.28316,0.19705 -0.6273,0.31257 -0.99842,0.31257c-0.80211,0 -1.47818,-0.53964 -1.68496,-1.27567c-0.20678,0.73603 -0.88285,1.27567 -1.68496,1.27567c-0.9665,0 -1.75,-0.7835 -1.75,-1.75c0,-0.9665 0.7835,-1.75 1.75,-1.75c0.80211,0 1.47818,0.53964 1.68496,1.27567c0.20678,-0.73603 0.88285,-1.27567 1.68496,-1.27567c0.9665,0 1.75,0.7835 1.75,1.75c0,0.2435 -0.04973,0.47539 -0.1396,0.68606c0.1752,-0.09351 0.37528,-0.14651 0.58774,-0.14651c0.34724,0 0.66142,0.14159 0.88793,0.37019c-0.09997,-0.22025 -0.15564,-0.46488 -0.15564,-0.72252c0,-0.9665 0.7835,-1.75 1.75,-1.75c0.9665,0 1.75,0.7835 1.75,1.75c0,0.9665 -0.7835,1.75 -1.75,1.75c-0.52387,0 -0.99397,-0.23019 -1.31469,-0.59493c0.05323,0.13887 0.0824,0.28966 0.0824,0.44727c0,0.69036 -0.55964,1.25 -1.25,1.25c-0.69036,0 -1.25,-0.55964 -1.25,-1.25z" fill="#3c69e5" stroke="none" stroke-width="0.5" stroke-linecap="butt"/><path d="M282.89131,140.15748c0,-0.9665 0.7835,-1.75 1.75,-1.75c0.20254,0 0.39704,0.03441 0.57798,0.0977c0.22423,-0.70793 0.88651,-1.221 1.66862,-1.221c0.9665,0 1.75,0.7835 1.75,1.75c0,0.9665 -0.7835,1.75 -1.75,1.75c-0.20254,0 -0.39704,-0.03441 -0.57798,-0.0977c-0.22423,0.70793 -0.88651,1.221 -1.66862,1.221c-0.9665,0 -1.75,-0.7835 -1.75,-1.75z" fill="#3c69e5" stroke="none" stroke-width="0.5" stroke-linecap="butt"/><path d="M274.65376,141.09356c0,-0.9665 0.7835,-1.75 1.75,-1.75c0.42068,0 0.8067,0.14844 1.10852,0.3958c0.18744,-0.7646 0.87734,-1.33188 1.69974,-1.33188c0.9665,0 1.75,0.7835 1.75,1.75c0,0.9665 -0.7835,1.75 -1.75,1.75c-0.42068,0 -0.8067,-0.14844 -1.10852,-0.3958c-0.18744,0.7646 -0.87734,1.33188 -1.69974,1.33188c-0.9665,0 -1.75,-0.7835 -1.75,-1.75z" fill="#3c69e5" stroke="none" stroke-width="0.5" stroke-linecap="butt"/><path d="M266.40482,141.4001c0,-0.64489 0.48836,-1.17572 1.11543,-1.24284c0.28068,-0.59173 0.88357,-1.00091 1.58202,-1.00091c0.6186,0 1.16223,0.32096 1.47345,0.80544c0.321,-0.37821 0.79988,-0.61822 1.33481,-0.61822c0.9665,0 1.75,0.7835 1.75,1.75c0,0.9665 -0.7835,1.75 -1.75,1.75c-0.6186,0 -1.16223,-0.32096 -1.47345,-0.80544c-0.321,0.37821 -0.79988,0.61822 -1.33481,0.61822c-0.28598,0 -0.55595,-0.0686 -0.79433,-0.19024c-0.19007,0.1167 -0.41374,0.18399 -0.65312,0.18399c-0.69036,0 -1.25,-0.55964 -1.25,-1.25z" fill="#3c69e5" stroke="none" stroke-width="0.5" stroke-linecap="butt"/><g stroke-width="0" stroke-linecap="butt"><path d="M269.29132,164.11099c0,-12.96801 10.51265,-23.48065 23.48066,-23.48065c12.96801,0 23.48065,10.51264 23.48065,23.48065c0,12.96801 -10.51264,23.48066 -23.48065,23.48066c-12.96801,0 -23.48066,-10.51265 -23.48066,-23.48066z" fill="#000000" stroke="#000000"/><path d="M278.26135,175.42063c0.53033,-0.53033 1.06066,0 1.06066,0l0.42762,0.57877c0.35983,1.47156 1.01848,2.1116 2.22464,3.01463c1.70645,1.02232 3.68786,2.56437 5.69051,2.8765c0.12919,0.02014 0.25958,0.03809 0.39103,0.05405c-1.842,-0.99074 -3.56869,-2.46285 -4.79759,-4.01061l-0.1597,0.1597l-0.92136,-0.92136c-0.13572,-0.13572 -0.21967,-0.32322 -0.21967,-0.53033c0,-0.41421 0.33579,-0.75 0.75,-0.75c0.13799,0 0.26728,0.03727 0.37835,0.10229l1.03715,0.58107c1.76134,0.9869 3.51118,1.97824 5.1643,3.13803c0.7778,0.46583 1.48157,1.12203 2.2134,1.72927c0.59159,0.05845 1.20389,0.14113 1.8293,0.23144c0.76519,-0.10227 1.52279,-0.32207 2.246,-0.50131c3.55818,-0.88188 6.30706,-0.37199 9.11196,-3.15067l0.42316,-0.63474c0.11749,-0.18193 0.31158,-0.30975 0.53665,-0.33784l0.08034,-0.20464c0.10513,-0.28721 0.38089,-0.49219 0.70452,-0.49219c0.41421,0 0.75,0.33579 0.75,0.75c0,0.03172 -0.00197,0.06297 -0.00579,0.09365l-0.01448,0.13036c0.24998,-0.22499 0.50132,-0.45615 0.7549,-0.69343l0.79,-1.185c0.13354,-0.20678 0.36603,-0.34365 0.63049,-0.34365c0.41421,0 0.75,0.33579 0.75,0.75c0,0.03224 -0.00203,0.064 -0.00598,0.09517l-0.13979,1.23712l-0.2318,-0.02619c-0.2831,5.05747 -5.34213,6.14111 -10.10368,6.67612c-1.00902,0.11337 -2.36902,0.43354 -3.67248,0.57249c-5.07303,1.34882 -10.57771,1.18514 -15.17432,-1.10762c0,0 -0.67082,-0.33541 -0.33541,-1.00623c0.33541,-0.67082 1.00623,-0.33541 1.00623,-0.33541c3.17532,1.59179 6.82939,2.0704 10.4399,1.69009c-0.16785,-0.07123 -0.33569,-0.14972 -0.50376,-0.23583c-1.8644,0.06465 -3.78818,0.14467 -5.49106,-0.55121c-1.67264,-0.68352 -3.19714,-1.67823 -4.7383,-2.60427c-1.50403,-1.12971 -2.37429,-2.05527 -2.84287,-3.8956l-0.03306,0.11809c0,0 -0.53033,-0.53033 0,-1.06066zM305.17294,178.50613c-0.24132,0.24428 -0.4846,0.48706 -0.7309,0.72448c-0.26542,0.43921 -0.61956,0.84439 -1.00847,1.20549c0.24699,-0.13509 0.47519,-0.28708 0.68081,-0.45833c0.46882,-0.39046 0.78696,-0.91501 1.05856,-1.47165z" fill="#550b0b" stroke="none"/><path d="M300.21873,189.58928c0,0 -0.26296,0.65739 -0.91661,0.43921c-0.3639,3.65427 0.04889,7.59596 0.04889,11.25998l-0.26883,0.92819c0,0 -0.23717,0.71151 -0.94868,0.47434c-0.71151,-0.23717 -0.47434,-0.94868 -0.47434,-0.94868l0.19185,-0.45385c0,-3.28017 -0.37295,-6.96316 -0.02446,-10.40946c-0.14249,0.07798 -0.64722,0.30021 -1.00128,-0.23089c-0.41603,-0.62404 0.20801,-1.04006 0.20801,-1.04006c0.45373,-0.19393 0.52014,-0.93276 0.45509,-1.71686c-1.27123,-0.00094 -2.56161,-0.13388 -3.95486,-0.13388c-0.07051,0 -0.14102,0.00041 -0.2115,0.00115c0.04009,0.4385 0.04014,0.88156 0.04014,1.32191c0,0 0,0.75 -0.75,0.75c-0.08161,0 -0.15433,-0.00888 -0.21914,-0.02471c0.44389,4.41673 1.58158,8.92523 2.11523,13.23387c0.23739,1.91667 -0.28072,3.64427 0.45277,5.47799c0.00451,0.3544 0.00902,0.7088 0.01353,1.06319v1.15171c0,0.41421 -0.33579,0.75 -0.75,0.75c-0.20711,0 -0.39461,-0.08395 -0.53033,-0.21967l-1.38205,-1.38205c0,0 -0.53033,-0.53033 0,-1.06066c0.53033,-0.53033 1.06066,0 1.06066,0l0.11296,0.11296c0.00076,-0.04394 0.00153,-0.08788 0.00229,-0.13182c-0.75231,-1.88078 -0.22226,-3.62905 -0.4686,-5.57838c-0.43921,-3.47562 -1.23386,-7.06725 -1.76656,-10.64261c-0.43082,-0.10321 -0.5279,-0.58865 -0.5279,-0.58865c-0.2358,-1.179 -0.46784,-2.34805 -0.64511,-3.53749l-0.51084,-0.6509c-2.2388,-0.12197 -4.43483,-0.57164 -6.50133,-1.3516c-0.41055,0.82871 -0.30126,1.67211 -0.30126,2.62881c0,0 0,0.58551 -0.51734,0.72186c0.27182,3.52775 -0.08697,7.14875 0.50713,10.67189l0.0102,0.58398c0,0 0,0.75 -0.75,0.75c-0.75,0 -0.75,-0.75 -0.75,-0.75l0.0102,-0.33738c-0.85836,-5.20622 0.42371,-10.76837 -1.56895,-15.73829c0,0 -0.03201,-0.08003 -0.0472,-0.19669c-0.19999,-0.12268 -0.39796,-0.24907 -0.59383,-0.37918c0,0 -0.62404,-0.41603 -0.20801,-1.04006c0.41603,-0.62404 1.04006,-0.20801 1.04006,-0.20801c0.9017,0.60354 1.8521,1.11989 2.83951,1.55018l0.24424,-0.16813c0,0 0.62404,-0.41603 1.04006,0.20801c0.12829,0.19243 0.15768,0.36509 0.13696,0.51186c0.79069,0.27086 1.60031,0.49029 2.42339,0.65883c0.06363,-0.28037 0.28435,-0.50108 0.56473,-0.56471l1.43999,-0.36l0.05603,0.22412c2.6577,-0.77815 5.43462,-0.77374 8.03002,-1.88644c0.94995,-0.40726 1.73346,-1.32053 2.70324,-1.81268l1.32815,-0.66407c0.10422,-0.05487 0.22294,-0.08593 0.34891,-0.08593c0.41421,0 0.75,0.33579 0.75,0.75c0,0.20524 -0.08244,0.39122 -0.21601,0.52664l-0.52085,0.52869c0.02229,-0.00199 0.04486,-0.00301 0.06767,-0.00301c0.11632,0 0.22646,0.02648 0.32472,0.07375c0.04459,-0.01214 0.08904,-0.02435 0.13337,-0.03666c0.89655,-0.24885 2.19723,-0.10642 2.73692,0.8197c0.00874,0.015 0.01727,0.03013 0.02559,0.04538c0.8718,-0.01101 1.44604,0.29278 0.34738,1.94349c-0.04734,0.07113 -0.09872,0.13807 -0.15368,0.20125c-0.18042,1.0574 -0.61569,2.13837 -0.87865,2.82726c-0.36844,0.9652 -0.49264,1.98992 -0.56305,3.02438c0.35237,3.00617 0.46258,6.07143 0.02709,8.89668h0.13237v1.38205c0,0.41421 -0.33579,0.75 -0.75,0.75c-0.2994,0 -0.55783,-0.17544 -0.67809,-0.42912l-0.45342,-0.90683l0.02679,-0.01339l-0.05938,-0.06181c-0.50844,-2.04256 -0.37487,-4.31966 -0.0343,-6.38429c0.12173,-0.59871 0.18931,-1.20739 0.23843,-1.81998c-0.12976,-1.56201 -0.29839,-3.11535 -0.51547,-4.66715c-0.32346,0.39926 -0.61385,0.82865 -0.82265,1.3727zM281.57586,185.81995c0.02461,0.08589 0.04845,0.17188 0.07153,0.25798c0.02512,-0.06213 0.05189,-0.12447 0.08042,-0.18713c-0.05075,-0.0234 -0.1014,-0.04702 -0.15196,-0.07085zM294.45027,186.03707c0.46492,-0.077 0.92812,-0.18019 1.39031,-0.30129c-0.22912,0.02649 -0.45605,0.04597 -0.67847,0.05606c-0.40686,0.08725 -0.83736,0.17117 -1.29493,0.25745c0.0176,0.02148 0.03492,0.04456 0.05191,0.06934c0.17717,-0.02507 0.35425,-0.05226 0.53117,-0.08157zM292.52646,186.14494c-0.10815,0.02712 -0.21624,0.05278 -0.32421,0.0769c0.00444,0.03112 0.00648,0.05623 0.00741,0.07271c0.07352,-0.00473 0.14705,-0.00983 0.22059,-0.01529l0.17208,-0.13432zM298.81615,186.47689c0.01797,-0.04628 0.0362,-0.09245 0.0547,-0.1385c-0.03282,0.01134 -0.06565,0.02268 -0.09847,0.03401c0.00664,0.03666 0.01321,0.07338 0.01969,0.11017c0.00778,-0.00176 0.01581,-0.00365 0.02407,-0.00567zM302.48783,187.33723c0.08569,-0.22371 0.17235,-0.45297 0.25223,-0.68646c-0.11786,0.04393 -0.23568,0.08751 -0.35224,0.13197c0.0337,0.18396 0.06706,0.36881 0.10001,0.55449z" fill="#9a1414" stroke="none"/></g><path d="M320.07428,137.4843c0,-0.30999 0.11284,-0.59362 0.29968,-0.81207c-0.57789,-0.28577 -0.9753,-0.88128 -0.9753,-1.56962c0,-0.9665 0.7835,-1.75 1.75,-1.75c0.9665,0 1.75,0.7835 1.75,1.75c0,0.59627 -0.29822,1.1229 -0.75364,1.43886c0.26303,0.22916 0.42926,0.56658 0.42926,0.94283c0,0.69036 -0.55964,1.25 -1.25,1.25c-0.69036,0 -1.25,-0.55964 -1.25,-1.25z" fill="#341ed9" stroke="none" stroke-width="0.5" stroke-linecap="butt"/><path d="M330.8189,135.28983c0,-0.9665 0.7835,-1.75 1.75,-1.75c0.9665,0 1.75,0.7835 1.75,1.75c0,0.9665 -0.7835,1.75 -1.75,1.75c-0.9665,0 -1.75,-0.7835 -1.75,-1.75z" fill="#341ed9" stroke="none" stroke-width="0.5" stroke-linecap="butt"/><path d="M334.56327,135.66426c0,-0.9665 0.7835,-1.75 1.75,-1.75c0.9665,0 1.75,0.7835 1.75,1.75c0,0.9665 -0.7835,1.75 -1.75,1.75c-0.9665,0 -1.75,-0.7835 -1.75,-1.75z" fill="#341ed9" stroke="none" stroke-width="0.5" stroke-linecap="butt"/><path d="M339.24369,135.47705c0,-0.9665 0.7835,-1.75 1.75,-1.75c0.9665,0 1.75,0.7835 1.75,1.75c0,0.9665 -0.7835,1.75 -1.75,1.75c-0.9665,0 -1.75,-0.7835 -1.75,-1.75z" fill="#341ed9" stroke="none" stroke-width="0.5" stroke-linecap="butt"/><path d="M350.70966,137.4843c0,-0.21116 0.05236,-0.41009 0.1448,-0.58451c-0.21095,0.09015 -0.4432,0.14004 -0.68711,0.14004c-0.42638,0 -0.81715,-0.15249 -1.12074,-0.4059c-0.32068,0.3637 -0.79009,0.59312 -1.31309,0.59312c-0.9665,0 -1.75,-0.7835 -1.75,-1.75c0,-0.9665 0.7835,-1.75 1.75,-1.75c0.42638,0 0.81715,0.15249 1.12074,0.4059c0.32068,-0.3637 0.79009,-0.59312 1.31309,-0.59312c0.9665,0 1.75,0.7835 1.75,1.75c0,0.36955 -0.11455,0.71235 -0.31008,0.99483c0.11176,-0.03278 0.23002,-0.05036 0.35239,-0.05036c0.69036,0 1.25,0.55964 1.25,1.25c0,0.69036 -0.55964,1.25 -1.25,1.25c-0.69036,0 -1.25,-0.55964 -1.25,-1.25z" fill="#341ed9" stroke="none" stroke-width="0.5" stroke-linecap="butt"/><path d="M311.8803,135.08259c0.69036,0 1.25,0.55964 1.25,1.25c0,0.69036 -0.55964,1.25 -1.25,1.25c-0.60679,0 -1.11259,-0.43235 -1.22616,-1.0058c-0.17333,0.05749 -0.35868,0.08861 -0.5513,0.08861c-0.9665,0 -1.75,-0.7835 -1.75,-1.75c0,-0.9665 0.7835,-1.75 1.75,-1.75c0.9665,0 1.75,0.7835 1.75,1.75c0,0.05656 -0.00268,0.1125 -0.00793,0.16769c0.01176,-0.00033 0.02355,-0.00049 0.03539,-0.00049z" fill="#341ed9" stroke="none" stroke-width="0.5" stroke-linecap="butt"/><path d="M299.4419,135.08259c0.18263,0 0.35611,0.03917 0.5125,0.10955c-0.13614,-0.24896 -0.21353,-0.53465 -0.21353,-0.8384c0,-0.9665 0.7835,-1.75 1.75,-1.75c0.9665,0 1.75,0.7835 1.75,1.75c0,0.9665 -0.7835,1.75 -1.75,1.75c-0.32554,0 -0.63031,-0.08889 -0.89138,-0.24371c0.05958,0.14579 0.09241,0.30534 0.09241,0.47256c0,0.69036 -0.55964,1.25 -1.25,1.25c-0.42629,0 -0.80274,-0.21339 -1.02836,-0.53918c-0.31161,0.48241 -0.85405,0.80174 -1.47107,0.80174c-0.9665,0 -1.75,-0.7835 -1.75,-1.75c0,-0.9665 0.7835,-1.75 1.75,-1.75c0.73514,0 1.36441,0.45329 1.62355,1.09562c0.22554,-0.22154 0.53475,-0.35818 0.87588,-0.35818z" fill="#341ed9" stroke="none" stroke-width="0.5" stroke-linecap="butt"/><path d="M291.31609,134.9154c0,-0.9665 0.7835,-1.75 1.75,-1.75c0.9665,0 1.75,0.7835 1.75,1.75c0,0.9665 -0.7835,1.75 -1.75,1.75c-0.9665,0 -1.75,-0.7835 -1.75,-1.75z" fill="#341ed9" stroke="none" stroke-width="0.5" stroke-linecap="butt"/><path d="M378.93375,135.47705c0,-0.9665 0.7835,-1.75 1.75,-1.75c0.9665,0 1.75,0.7835 1.75,1.75c0,0.9665 -0.7835,1.75 -1.75,1.75c-0.9665,0 -1.75,-0.7835 -1.75,-1.75z" fill="#341ed9" stroke="none" stroke-width="0.5" stroke-linecap="butt"/><path d="M382.49089,135.47705c0,-0.9665 0.7835,-1.75 1.75,-1.75c0.9665,0 1.75,0.7835 1.75,1.75c0,0.9665 -0.7835,1.75 -1.75,1.75c-0.9665,0 -1.75,-0.7835 -1.75,-1.75z" fill="#341ed9" stroke="none" stroke-width="0.5" stroke-linecap="butt"/><path d="M391.54236,134.2887c0.9665,0 1.75,0.7835 1.75,1.75c0,0.9665 -0.7835,1.75 -1.75,1.75c-0.3443,0 -0.66538,-0.09943 -0.93609,-0.27114c-0.27071,0.17171 -0.59179,0.27114 -0.93609,0.27114c-0.9665,0 -1.75,-0.7835 -1.75,-1.75c0,-0.9665 0.7835,-1.75 1.75,-1.75c0.3443,0 0.66538,0.09943 0.93609,0.27114c0.27071,-0.17171 0.59179,-0.27114 0.93609,-0.27114z" fill="#341ed9" stroke="none" stroke-width="0.5" stroke-linecap="butt"/><path d="M277.98949,130.62905c0,-0.69036 0.55964,-1.25 1.25,-1.25c0.69036,0 1.25,0.55964 1.25,1.25c0,0.69036 -0.55964,1.25 -1.25,1.25c-0.69036,0 -1.25,-0.55964 -1.25,-1.25z" fill="#2713b5" stroke="none" stroke-width="0.5" stroke-linecap="butt"/><path d="M283.35107,131.25982c0,-0.69036 0.55964,-1.25 1.25,-1.25c0.69036,0 1.25,0.55964 1.25,1.25c0,0.69036 -0.55964,1.25 -1.25,1.25c-0.69036,0 -1.25,-0.55964 -1.25,-1.25z" fill="#2713b5" stroke="none" stroke-width="0.5" stroke-linecap="butt"/><path d="M290.76271,129.68288c0,-0.69036 0.55964,-1.25 1.25,-1.25c0.69036,0 1.25,0.55964 1.25,1.25c0,0.69036 -0.55964,1.25 -1.25,1.25c-0.69036,0 -1.25,-0.55964 -1.25,-1.25z" fill="#2713b5" stroke="none" stroke-width="0.5" stroke-linecap="butt"/><path d="M319.77844,129.68288c0,-0.69036 0.55964,-1.25 1.25,-1.25c0.69036,0 1.25,0.55964 1.25,1.25c0,0.69036 -0.55964,1.25 -1.25,1.25c-0.69036,0 -1.25,-0.55964 -1.25,-1.25z" fill="#2713b5" stroke="none" stroke-width="0.5" stroke-linecap="butt"/><path d="M325.29774,130.78674c0,-0.69036 0.55964,-1.25 1.25,-1.25c0.69036,0 1.25,0.55964 1.25,1.25c0,0.69036 -0.55964,1.25 -1.25,1.25c-0.69036,0 -1.25,-0.55964 -1.25,-1.25z" fill="#2713b5" stroke="none" stroke-width="0.5" stroke-linecap="butt"/><path d="M333.49782,129.99827c0,-0.69036 0.55964,-1.25 1.25,-1.25c0.69036,0 1.25,0.55964 1.25,1.25c0,0.69036 -0.55964,1.25 -1.25,1.25c-0.69036,0 -1.25,-0.55964 -1.25,-1.25z" fill="#2713b5" stroke="none" stroke-width="0.5" stroke-linecap="butt"/><path d="M339.4902,129.99827c0,-0.69036 0.55964,-1.25 1.25,-1.25c0.69036,0 1.25,0.55964 1.25,1.25c0,0.69036 -0.55964,1.25 -1.25,1.25c-0.69036,0 -1.25,-0.55964 -1.25,-1.25z" fill="#2713b5" stroke="none" stroke-width="0.5" stroke-linecap="butt"/><path d="M345.16721,128.57902c0,-0.69036 0.55964,-1.25 1.25,-1.25c0.69036,0 1.25,0.55964 1.25,1.25c0,0.69036 -0.55964,1.25 -1.25,1.25c-0.69036,0 -1.25,-0.55964 -1.25,-1.25z" fill="#2713b5" stroke="none" stroke-width="0.5" stroke-linecap="butt"/><path d="M367.87517,130.47135c0,-0.69036 0.55964,-1.25 1.25,-1.25c0.69036,0 1.25,0.55964 1.25,1.25c0,0.69036 -0.55964,1.25 -1.25,1.25c-0.69036,0 -1.25,-0.55964 -1.25,-1.25z" fill="#2713b5" stroke="none" stroke-width="0.5" stroke-linecap="butt"/><path d="M372.4483,131.10213c0,-0.69036 0.55964,-1.25 1.25,-1.25c0.69036,0 1.25,0.55964 1.25,1.25c0,0.69036 -0.55964,1.25 -1.25,1.25c-0.69036,0 -1.25,-0.55964 -1.25,-1.25z" fill="#2713b5" stroke="none" stroke-width="0.5" stroke-linecap="butt"/><path d="M376.70604,131.10213c0,-0.69036 0.55964,-1.25 1.25,-1.25c0.69036,0 1.25,0.55964 1.25,1.25c0,0.69036 -0.55964,1.25 -1.25,1.25c-0.69036,0 -1.25,-0.55964 -1.25,-1.25z" fill="#2713b5" stroke="none" stroke-width="0.5" stroke-linecap="butt"/><path d="M276.30949,139.32703c0,-0.69036 0.55964,-1.25 1.25,-1.25c0.69036,0 1.25,0.55964 1.25,1.25c0,0.69036 -0.55964,1.25 -1.25,1.25c-0.69036,0 -1.25,-0.55964 -1.25,-1.25z" fill="#341ed9" stroke="none" stroke-width="0.5" stroke-linecap="butt"/><path d="M283.68039,139.32703c0,-0.69036 0.55964,-1.25 1.25,-1.25c0.69036,0 1.25,0.55964 1.25,1.25c0,0.69036 -0.55964,1.25 -1.25,1.25c-0.69036,0 -1.25,-0.55964 -1.25,-1.25z" fill="#341ed9" stroke="none" stroke-width="0.5" stroke-linecap="butt"/><path d="M332.97337,139.09669c0,-0.69036 0.55964,-1.25 1.25,-1.25c0.69036,0 1.25,0.55964 1.25,1.25c0,0.69036 -0.55964,1.25 -1.25,1.25c-0.69036,0 -1.25,-0.55964 -1.25,-1.25z" fill="#341ed9" stroke="none" stroke-width="0.5" stroke-linecap="butt"/><path d="M340.34431,138.636c0,-0.69036 0.55964,-1.25 1.25,-1.25c0.69036,0 1.25,0.55964 1.25,1.25c0,0.69036 -0.55964,1.25 -1.25,1.25c-0.69036,0 -1.25,-0.55964 -1.25,-1.25z" fill="#341ed9" stroke="none" stroke-width="0.5" stroke-linecap="butt"/><path d="M359.69296,136.56293c0,-0.69036 0.55964,-1.25 1.25,-1.25c0.69036,0 1.25,0.55964 1.25,1.25c0,0.69036 -0.55964,1.25 -1.25,1.25c-0.69036,0 -1.25,-0.55964 -1.25,-1.25z" fill="#341ed9" stroke="none" stroke-width="0.5" stroke-linecap="butt"/><path d="M372.59205,139.32703c0,-0.69036 0.55964,-1.25 1.25,-1.25c0.69036,0 1.25,0.55964 1.25,1.25c0,0.69036 -0.55964,1.25 -1.25,1.25c-0.69036,0 -1.25,-0.55964 -1.25,-1.25z" fill="#341ed9" stroke="none" stroke-width="0.5" stroke-linecap="butt"/><path d="M377.8899,139.55737c0,-0.69036 0.55964,-1.25 1.25,-1.25c0.69036,0 1.25,0.55964 1.25,1.25c0,0.69036 -0.55964,1.25 -1.25,1.25c-0.69036,0 -1.25,-0.55964 -1.25,-1.25z" fill="#341ed9" stroke="none" stroke-width="0.5" stroke-linecap="butt"/><path d="M387.33389,139.32703c0,-0.69036 0.55964,-1.25 1.25,-1.25c0.69036,0 1.25,0.55964 1.25,1.25c0,0.69036 -0.55964,1.25 -1.25,1.25c-0.69036,0 -1.25,-0.55964 -1.25,-1.25z" fill="#341ed9" stroke="none" stroke-width="0.5" stroke-linecap="butt"/><path d="M392.40138,138.40566c0,-0.69036 0.55964,-1.25 1.25,-1.25c0.69036,0 1.25,0.55964 1.25,1.25c0,0.69036 -0.55964,1.25 -1.25,1.25c-0.69036,0 -1.25,-0.55964 -1.25,-1.25z" fill="#341ed9" stroke="none" stroke-width="0.5" stroke-linecap="butt"/><path d="M273.51165,144.62487c0,1.25 -1.25,1.25 -1.25,1.25c-0.46068,0 -1.61239,0 -2.07307,0c0,0 -1.25,0 -1.25,-1.25c0,-1.25 1.25,-1.25 1.25,-1.25c0.46068,0 0.92136,0 1.38205,0h0.69102c0,0 1.25,0 1.25,1.25z" fill="#3c69e5" stroke="none" stroke-width="0.5" stroke-linecap="butt"/><path d="M313.16405,144.62487c0,-0.69036 0.55964,-1.25 1.25,-1.25c0.69036,0 1.25,0.55964 1.25,1.25c0,0.69036 -0.55964,1.25 -1.25,1.25c-0.69036,0 -1.25,-0.55964 -1.25,-1.25z" fill="#3c69e5" stroke="none" stroke-width="0.5" stroke-linecap="butt"/><path d="M320.30463,145.77658c0,-0.69036 0.55964,-1.25 1.25,-1.25c0.69036,0 1.25,0.55964 1.25,1.25c0,0.69036 -0.55964,1.25 -1.25,1.25c-0.69036,0 -1.25,-0.55964 -1.25,-1.25z" fill="#3c69e5" stroke="none" stroke-width="0.5" stroke-linecap="butt"/><path d="M326.06316,145.31589c0,-0.69036 0.55964,-1.25 1.25,-1.25c0.69036,0 1.25,0.55964 1.25,1.25c0,0.69036 -0.55964,1.25 -1.25,1.25c-0.69036,0 -1.25,-0.55964 -1.25,-1.25z" fill="#3c69e5" stroke="none" stroke-width="0.5" stroke-linecap="butt"/><path d="M333.20372,142.78214c0,-0.69036 0.55964,-1.25 1.25,-1.25c0.69036,0 1.25,0.55964 1.25,1.25c0,0.69036 -0.55964,1.25 -1.25,1.25c-0.69036,0 -1.25,-0.55964 -1.25,-1.25z" fill="#3c69e5" stroke="none" stroke-width="0.5" stroke-linecap="butt"/><path d="M362.22671,144.39453c0,-0.69036 0.55964,-1.25 1.25,-1.25c0.69036,0 1.25,0.55964 1.25,1.25c0,0.69036 -0.55964,1.25 -1.25,1.25c-0.69036,0 -1.25,-0.55964 -1.25,-1.25z" fill="#3c69e5" stroke="none" stroke-width="0.5" stroke-linecap="butt"/><path d="M366.14251,146.23726c0,-0.69036 0.55964,-1.25 1.25,-1.25c0.69036,0 1.25,0.55964 1.25,1.25c0,0.69036 -0.55964,1.25 -1.25,1.25c-0.69036,0 -1.25,-0.55964 -1.25,-1.25z" fill="#3c69e5" stroke="none" stroke-width="0.5" stroke-linecap="butt"/><path d="M371.21001,146.23726c0,-0.69036 0.55964,-1.25 1.25,-1.25c0.69036,0 1.25,0.55964 1.25,1.25c0,0.69036 -0.55964,1.25 -1.25,1.25c-0.69036,0 -1.25,-0.55964 -1.25,-1.25z" fill="#3c69e5" stroke="none" stroke-width="0.5" stroke-linecap="butt"/><path d="M386.8732,143.93385c0,-0.69036 0.55964,-1.25 1.25,-1.25c0.69036,0 1.25,0.55964 1.25,1.25c0,0.69036 -0.55964,1.25 -1.25,1.25c-0.69036,0 -1.25,-0.55964 -1.25,-1.25z" fill="#3c69e5" stroke="none" stroke-width="0.5" stroke-linecap="butt"/><path d="M344.02976,144.85521c0,-0.69036 0.55964,-1.25 1.25,-1.25c0.69036,0 1.25,0.55964 1.25,1.25c0,0.69036 -0.55964,1.25 -1.25,1.25c-0.69036,0 -1.25,-0.55964 -1.25,-1.25z" fill="#3c69e5" stroke="none" stroke-width="0.5" stroke-linecap="butt"/><path d="M288.55688,132.64714c0,-0.41421 0.33579,-0.75 0.75,-0.75c0.41421,0 0.75,0.33579 0.75,0.75c0,0.41421 -0.33579,0.75 -0.75,0.75c-0.41421,0 -0.75,-0.33579 -0.75,-0.75z" fill="#2713b5" stroke="none" stroke-width="0.5" stroke-linecap="butt"/><path d="M299.61325,133.5685c0,-0.41421 0.33579,-0.75 0.75,-0.75c0.41421,0 0.75,0.33579 0.75,0.75c0,0.41421 -0.33579,0.75 -0.75,0.75c-0.41421,0 -0.75,-0.33579 -0.75,-0.75z" fill="#2713b5" stroke="none" stroke-width="0.5" stroke-linecap="butt"/><path d="M320.80463,133.10782c0,-0.41421 0.33579,-0.75 0.75,-0.75c0.41421,0 0.75,0.33579 0.75,0.75c0,0.41421 -0.33579,0.75 -0.75,0.75c-0.41421,0 -0.75,-0.33579 -0.75,-0.75z" fill="#2713b5" stroke="none" stroke-width="0.5" stroke-linecap="butt"/><path d="M326.33282,135.18089c0,-0.41421 0.33579,-0.75 0.75,-0.75c0.41421,0 0.75,0.33579 0.75,0.75c0,0.41421 -0.33579,0.75 -0.75,0.75c-0.41421,0 -0.75,-0.33579 -0.75,-0.75z" fill="#2713b5" stroke="none" stroke-width="0.5" stroke-linecap="butt"/><path d="M335.08576,133.79884c0,-0.41421 0.33579,-0.75 0.75,-0.75c0.41421,0 0.75,0.33579 0.75,0.75c0,0.41421 -0.33579,0.75 -0.75,0.75c-0.41421,0 -0.75,-0.33579 -0.75,-0.75z" fill="#2713b5" stroke="none" stroke-width="0.5" stroke-linecap="butt"/><path d="M344.06909,131.49543c0,-0.41421 0.33579,-0.75 0.75,-0.75c0.41421,0 0.75,0.33579 0.75,0.75c0,0.41421 -0.33579,0.75 -0.75,0.75c-0.41421,0 -0.75,-0.33579 -0.75,-0.75z" fill="#2713b5" stroke="none" stroke-width="0.5" stroke-linecap="butt"/><path d="M352.82204,131.95611c0,-0.41421 0.33579,-0.75 0.75,-0.75c0.41421,0 0.75,0.33579 0.75,0.75c0,0.41421 -0.33579,0.75 -0.75,0.75c-0.41421,0 -0.75,-0.33579 -0.75,-0.75z" fill="#2713b5" stroke="none" stroke-width="0.5" stroke-linecap="butt"/><path d="M363.87841,133.79884c0,-0.41421 0.33579,-0.75 0.75,-0.75c0.41421,0 0.75,0.33579 0.75,0.75c0,0.41421 -0.33579,0.75 -0.75,0.75c-0.41421,0 -0.75,-0.33579 -0.75,-0.75z" fill="#2713b5" stroke="none" stroke-width="0.5" stroke-linecap="butt"/><path d="M380.69331,134.25952c0,-0.41421 0.33579,-0.75 0.75,-0.75c0.41421,0 0.75,0.33579 0.75,0.75c0,0.41421 -0.33579,0.75 -0.75,0.75c-0.41421,0 -0.75,-0.33579 -0.75,-0.75z" fill="#2713b5" stroke="none" stroke-width="0.5" stroke-linecap="butt"/><path d="M394.05309,133.5685c0,-0.41421 0.33579,-0.75 0.75,-0.75c0.41421,0 0.75,0.33579 0.75,0.75c0,0.41421 -0.33579,0.75 -0.75,0.75c-0.41421,0 -0.75,-0.33579 -0.75,-0.75z" fill="#2713b5" stroke="none" stroke-width="0.5" stroke-linecap="butt"/><path d="M274.73643,140.01805c0,-0.41421 0.33579,-0.75 0.75,-0.75c0.41421,0 0.75,0.33579 0.75,0.75c0,0.41421 -0.33579,0.75 -0.75,0.75c-0.41421,0 -0.75,-0.33579 -0.75,-0.75z" fill="#341ed9" stroke="none" stroke-width="0.5" stroke-linecap="butt"/><path d="M295.23677,139.09669c0,-0.41421 0.33579,-0.75 0.75,-0.75c0.41421,0 0.75,0.33579 0.75,0.75c0,0.41421 -0.33579,0.75 -0.75,0.75c-0.41421,0 -0.75,-0.33579 -0.75,-0.75z" fill="#341ed9" stroke="none" stroke-width="0.5" stroke-linecap="butt"/><path d="M321.72598,140.70907c0,-0.41421 0.33579,-0.75 0.75,-0.75c0.41421,0 0.75,0.33579 0.75,0.75c0,0.41421 -0.33579,0.75 -0.75,0.75c-0.41421,0 -0.75,-0.33579 -0.75,-0.75z" fill="#341ed9" stroke="none" stroke-width="0.5" stroke-linecap="butt"/><path d="M349.8276,139.78771c0,-0.41421 0.33579,-0.75 0.75,-0.75c0.41421,0 0.75,0.33579 0.75,0.75c0,0.41421 -0.33579,0.75 -0.75,0.75c-0.41421,0 -0.75,-0.33579 -0.75,-0.75z" fill="#341ed9" stroke="none" stroke-width="0.5" stroke-linecap="butt"/><path d="M362.95706,139.78771c0,-0.41421 0.33579,-0.75 0.75,-0.75c0.41421,0 0.75,0.33579 0.75,0.75c0,0.41421 -0.33579,0.75 -0.75,0.75c-0.41421,0 -0.75,-0.33579 -0.75,-0.75z" fill="#341ed9" stroke="none" stroke-width="0.5" stroke-linecap="butt"/><path d="M369.4066,141.86078c0,-0.41421 0.33579,-0.75 0.75,-0.75c0.41421,0 0.75,0.33579 0.75,0.75c0,0.41421 -0.33579,0.75 -0.75,0.75c-0.41421,0 -0.75,-0.33579 -0.75,-0.75z" fill="#341ed9" stroke="none" stroke-width="0.5" stroke-linecap="butt"/><path d="M384.14843,141.86078c0,-0.41421 0.33579,-0.75 0.75,-0.75c0.41421,0 0.75,0.33579 0.75,0.75c0,0.41421 -0.33579,0.75 -0.75,0.75c-0.41421,0 -0.75,-0.33579 -0.75,-0.75z" fill="#341ed9" stroke="none" stroke-width="0.5" stroke-linecap="butt"/><path d="M262.98904,146.92828c0,-0.41421 0.33579,-0.75 0.75,-0.75c0.41421,0 0.75,0.33579 0.75,0.75c0,0.41421 -0.33579,0.75 -0.75,0.75c-0.41421,0 -0.75,-0.33579 -0.75,-0.75z" fill="#3c69e5" stroke="none" stroke-width="0.5" stroke-linecap="butt"/><path d="M269.43859,149.23169c0,-0.41421 0.33579,-0.75 0.75,-0.75c0.41421,0 0.75,0.33579 0.75,0.75c0,0.41421 -0.33579,0.75 -0.75,0.75c-0.41421,0 -0.75,-0.33579 -0.75,-0.75z" fill="#3c69e5" stroke="none" stroke-width="0.5" stroke-linecap="butt"/><path d="M318.96191,149.23169c0,-0.41421 0.33579,-0.75 0.75,-0.75c0.41421,0 0.75,0.33579 0.75,0.75c0,0.41421 -0.33579,0.75 -0.75,0.75c-0.41421,0 -0.75,-0.33579 -0.75,-0.75z" fill="#3c69e5" stroke="none" stroke-width="0.5" stroke-linecap="butt"/><path d="M328.63622,151.76544c0,-0.41421 0.33579,-0.75 0.75,-0.75c0.41421,0 0.75,0.33579 0.75,0.75c0,0.41421 -0.33579,0.75 -0.75,0.75c-0.41421,0 -0.75,-0.33579 -0.75,-0.75z" fill="#3c69e5" stroke="none" stroke-width="0.5" stroke-linecap="butt"/><path d="M344.29943,153.37783c0,-0.41421 0.33579,-0.75 0.75,-0.75c0.41421,0 0.75,0.33579 0.75,0.75c0,0.41421 -0.33579,0.75 -0.75,0.75c-0.41421,0 -0.75,-0.33579 -0.75,-0.75z" fill="#3c69e5" stroke="none" stroke-width="0.5" stroke-linecap="butt"/><path d="M355.81648,151.76544c0,-0.41421 0.33579,-0.75 0.75,-0.75c0.41421,0 0.75,0.33579 0.75,0.75c0,0.41421 -0.33579,0.75 -0.75,0.75c-0.41421,0 -0.75,-0.33579 -0.75,-0.75z" fill="#3c69e5" stroke="none" stroke-width="0.5" stroke-linecap="butt"/><path d="M375.85615,149.23169c0,-0.41421 0.33579,-0.75 0.75,-0.75c0.41421,0 0.75,0.33579 0.75,0.75c0,0.41421 -0.33579,0.75 -0.75,0.75c-0.41421,0 -0.75,-0.33579 -0.75,-0.75z" fill="#3c69e5" stroke="none" stroke-width="0.5" stroke-linecap="butt"/><path d="M386.22149,148.77101c0,-0.41421 0.33579,-0.75 0.75,-0.75c0.41421,0 0.75,0.33579 0.75,0.75c0,0.41421 -0.33579,0.75 -0.75,0.75c-0.41421,0 -0.75,-0.33579 -0.75,-0.75z" fill="#3c69e5" stroke="none" stroke-width="0.5" stroke-linecap="butt"/></g><g stroke-width="0" stroke-linecap="butt"><g fill="#2713b5" stroke="none"><g><path d="M279.89002,206.63382c3.93307,-6.98849 11.0127,-10.5272 18.97656,-10.86227c3.06055,0.4283 6.19049,1.06461 9.05301,2.27133c6.69777,2.82348 11.16193,10.13911 14.96481,15.92306c2.8433,4.30737 5.54965,11.86143 0.80482,15.98365c-1.74507,1.51608 -3.17513,0.92686 -4.99306,1.72651c-1.05975,0.46616 -1.72051,1.77787 -2.37429,2.66403c-1.72335,0.69683 -3.2138,0.81715 -4.93721,0.0011c-1.00733,-0.47699 -1.84285,-1.50014 -2.95561,-1.56348c-1.30131,-0.07405 -2.12287,1.68534 -3.64503,1.38994c-1.91537,-0.37172 -3.67741,-1.67912 -4.84253,-3.18535c-0.35023,-0.45277 -1.23216,-2.04732 -1.5699,-2.25372c-1.6486,-1.00756 -3.30866,0.20221 -5.01941,0.26734c-2.65083,0.14965 -3.83181,-1.77681 -5.5247,-3.44812c-3.78949,-3.74118 -9.04673,-9.94816 -8.32402,-15.63708c0.15613,-0.7573 0.26116,-1.52572 0.33399,-2.29552l0.09079,-0.4092c0,0 0.05796,-0.28044 -0.03825,-0.57219z"/><path d="M298.75493,195.56594c3.06057,0.42829 6.21326,1.06582 9.0758,2.27254c6.69777,2.82348 11.19759,10.18111 15.00046,15.96504c2.8433,4.30737 5.54212,11.89441 0.79728,16.01664c-1.74508,1.51609 -3.18092,0.93425 -4.99885,1.7339c-1.05975,0.46616 -1.72638,1.78318 -2.38017,2.66932c-1.72334,0.69682 -3.22216,0.82237 -4.94557,0.00629c-1.00733,-0.47698 -1.84805,-1.49795 -2.96082,-1.56127c-1.30133,-0.07405 -2.13355,1.68791 -3.65571,1.3925c-1.91536,-0.37172 -3.69247,-1.67954 -4.85759,-3.18577c-0.35023,-0.45278 -1.23942,-2.0492 -1.57716,-2.25562c-1.64859,-1.00756 -3.32208,0.1952 -5.03283,0.26031c-2.65083,0.14965 -3.84478,-1.79082 -5.53766,-3.46214c-3.78949,-3.74118 -9.05231,-9.98807 -8.32961,-15.67699c0.15612,-0.7573 0.26264,-1.53021 0.33548,-2.30001l0.09113,-0.40998c0,0 0.05837,-0.2814 -0.03784,-0.57316c3.93308,-6.98848 11.04976,-10.55658 19.01365,-10.89164z"/></g><path d="M280.66157,214.67189c-0.04823,0.0044 -0.09197,0.01356 -0.13052,0.02798zM280.08353,212.76362l0.048,-0.02344c4.6998,-0.64433 7.58912,5.96825 9.78707,9.31118c0.7991,1.21538 2.19913,2.7459 2.18419,4.33071c-0.01513,1.60395 -1.50136,2.32744 -2.6982,3.18253c-3.04098,1.94741 -5.54009,1.34076 -8.19032,-0.83545c-4.73923,-3.89159 -8.06992,-11.67941 -1.84808,-15.79545c0,0 0.33332,-0.21915 0.71734,-0.17009z"/></g><g><path d="M286.56151,233.99011c-9.32243,10.17987 -16.92997,18.38629 -24.95682,11.03554c-8.02685,-7.35075 -0.51974,-15.64915 8.80267,-25.82904c9.32242,-10.17987 20.49598,-15.12066 24.95682,-11.03553c4.46083,4.08511 0.51974,15.64916 -8.80267,25.82904z" fill="#4372d5" stroke="#000000"/><g stroke="none"><path d="M279.46884,206.59218c3.93307,-6.98848 11.01269,-10.52719 18.97656,-10.86225c3.06055,0.4283 6.19049,1.06461 9.05301,2.27133c6.69777,2.82348 11.16193,10.13913 14.9648,15.92305c2.8433,4.30737 5.54966,11.86142 0.80482,15.98365c-1.74508,1.51609 -3.17515,0.92685 -4.99307,1.72652c-1.05975,0.46616 -1.7205,1.77787 -2.37428,2.66403c-1.72336,0.69682 -3.2138,0.81715 -4.93721,0.00109c-1.00733,-0.477 -1.84285,-1.50015 -2.9556,-1.56349c-1.30131,-0.07405 -2.12287,1.68535 -3.64504,1.38994c-1.91537,-0.37172 -3.6774,-1.67912 -4.84252,-3.18535c-0.35023,-0.45277 -1.23216,-2.04732 -1.5699,-2.25372c-1.6486,-1.00756 -3.30866,0.20221 -5.01941,0.26734c-2.65083,0.14965 -3.83182,-1.77682 -5.5247,-3.44813c-3.78949,-3.74118 -9.04672,-9.94816 -8.32401,-15.63707c0.15613,-0.7573 0.26116,-1.52572 0.33399,-2.29552l0.0908,-0.40919c0,0 0.05796,-0.28044 -0.03825,-0.57219z" fill="#000000"/><path d="M298.33374,195.52429c3.06057,0.42829 6.21326,1.06582 9.0758,2.27254c6.69777,2.82348 11.1976,10.18111 15.00047,15.96504c2.8433,4.30737 5.54213,11.89442 0.79728,16.01664c-1.74508,1.51609 -3.18092,0.93424 -4.99884,1.7339c-1.05975,0.46616 -1.72638,1.7832 -2.38018,2.66932c-1.72334,0.69682 -3.22216,0.82237 -4.94557,0.00629c-1.00733,-0.47698 -1.84805,-1.49795 -2.9608,-1.56128c-1.30133,-0.07405 -2.13356,1.68791 -3.65571,1.39249c-1.91536,-0.37172 -3.69247,-1.67954 -4.85759,-3.18577c-0.35022,-0.45276 -1.23941,-2.04919 -1.57716,-2.25562c-1.64859,-1.00756 -3.32208,0.19519 -5.03283,0.26031c-2.65083,0.14965 -3.84478,-1.79082 -5.53766,-3.46214c-3.78949,-3.74118 -9.05233,-9.98807 -8.32961,-15.67699c0.15612,-0.7573 0.26265,-1.53021 0.33549,-2.30001l0.09113,-0.40998c0,0 0.05836,-0.28142 -0.03784,-0.57316c3.93308,-6.98848 11.04979,-10.55658 19.01364,-10.89166z" fill="#4372d5"/></g><path d="M280.24039,214.63025c-0.04823,0.0044 -0.09195,0.01356 -0.13052,0.02798zM279.66233,212.72198l0.04801,-0.02345c4.6998,-0.64433 7.58912,5.96825 9.78707,9.31118c0.79909,1.21537 2.19913,2.7459 2.1842,4.3307c-0.01513,1.60395 -1.50136,2.32744 -2.69821,3.18254c-3.04099,1.94742 -5.54008,1.34076 -8.19032,-0.83543c-4.73923,-3.89159 -8.06992,-11.67941 -1.84808,-15.79545c0,0 0.33332,-0.21915 0.71734,-0.17011z" fill="#4372d5" stroke="none"/></g></g><path d="M371.47329,223.5298l26.63563,5.68626l-28.43129,27.83274l-6.58409,-22.44576" fill="none" stroke="#005fff" stroke-width="1.5" stroke-linecap="round"/><path d="M383.14508,202.28115l9.57686,0.59855l-6.88337,15.26311l-8.08047,-4.48915" fill="none" stroke="#005fff" stroke-width="1.5" stroke-linecap="round"/><path d="M357.70656,235.2016l4.48915,5.38698l-14.06601,4.78843l2.69349,-11.97107" fill="none" stroke="#005fff" stroke-width="1.5" stroke-linecap="round"/></g></g></svg>