<svg version="1.1" xmlns="http://www.w3.org/2000/svg" xmlns:xlink="http://www.w3.org/1999/xlink" width="216.70587" height="272.93481" viewBox="0,0,216.70587,272.93481"><defs><linearGradient x1="318.96396" y1="240.85415" x2="318.96396" y2="276.16738" gradientUnits="userSpaceOnUse" id="color-1"><stop offset="0" stop-color="#005cff" stop-opacity="0"/><stop offset="1" stop-color="#005cff" stop-opacity="0.2"/></linearGradient><radialGradient cx="319.35962" cy="151.61375" r="64.23702" gradientUnits="userSpaceOnUse" id="color-2"><stop offset="0" stop-color="#aca5f2"/><stop offset="1" stop-color="#f3ca58"/></radialGradient><radialGradient cx="291.93403" cy="152.10155" r="23.48066" gradientUnits="userSpaceOnUse" id="color-3"><stop offset="0" stop-color="#ffffff"/><stop offset="1" stop-color="#ff6d6d"/></radialGradient><radialGradient cx="346.19091" cy="151.68188" r="23.48066" gradientUnits="userSpaceOnUse" id="color-4"><stop offset="0" stop-color="#ffffff"/><stop offset="1" stop-color="#ff6d6d"/></radialGradient></defs><g transform="translate(-210.40414,-46.13751)"><g stroke-miterlimit="10"><path d="M213.40902,313.86253v-267.72501h213.18203v267.72501z" fill="none" stroke="none" stroke-width="0" stroke-linecap="butt"/><g stroke-linecap="butt"><g><g stroke-width="0"><path d="M370.70107,269.87901c-0.06778,1.44597 -1.41901,-4.97989 -6.32499,-5.20986c-4.90598,-0.22997 -8.51273,-3.00784 -8.44495,-4.45381c0.06778,-1.44597 4.09981,0.87984 9.00579,1.10981c4.90598,0.22997 5.83193,7.10789 5.76415,8.55386z" fill="#f29d0f" stroke="#000000"/><path d="M363.39927,263.52068c0,8.78876 -6.18635,0.14404 -15.95739,0.14404c-9.77104,0 -15.01123,-7.44009 -15.01123,-16.22885c0,-8.78876 7.92099,-4.71717 17.69203,-4.71717c9.77104,0 13.27659,12.01322 13.27659,20.80198z" fill="#f2d40e" stroke="#000000"/><path d="M357.81448,254.49466c0,-0.69036 0.55964,-1.25 1.25,-1.25c0.69036,0 1.25,0.55964 1.25,1.25c0,0.69036 -0.55964,1.25 -1.25,1.25c-0.69036,0 -1.25,-0.55964 -1.25,-1.25z" fill="#000000" stroke="none"/></g><path d="M286.35186,319.07232c0,0 -1.89355,-25.93292 0.55642,-47.26366c2.58988,-22.54893 14.58643,-84.57844 14.58643,-84.57844l37.78325,-0.15789c0,0 9.71821,48.53571 12.06959,71.4019c2.15633,20.96935 1.5043,60.5981 1.5043,60.5981z" fill="#f3ca58" stroke="#000000" stroke-width="0"/><path d="M293.32495,231.42271c3.92467,-22.12412 8.16979,-44.1925 8.16979,-44.1925l37.78325,-0.15789c0,0 4.58735,22.91064 8.22116,44.66623c0.01212,0.07254 -54.19728,-0.18574 -54.1742,-0.31584z" fill="#f2bc49" stroke="#000000" stroke-width="0"/><path d="M294.35562,225.21109c3.47387,-19.2454 7.13909,-37.98086 7.13909,-37.98086l37.78325,-0.15789c0,0 3.7397,19.39228 7.08641,38.61124c0.00071,0.00407 -52.0355,-0.32431 -52.00875,-0.47248z" fill="#ffc72e" stroke="#000000" stroke-width="0"/><path d="M309.43057,274.95003c-0.60434,0 -1.13393,-0.23881 -1.42855,-0.59687c-0.40832,-0.03148 -0.71369,-0.15576 -0.71369,-0.15576c-2.81592,-1.14616 -6.6205,-2.20571 -9.08745,-3.72458c-5.15584,-3.1744 -6.48202,-7.967 -2.60749,-12.21832c3.34303,-3.66814 9.07756,-4.44116 14.1588,-5.7515c3.39017,-0.87425 6.25511,-2.47282 9.63619,-3.37881c2.25387,-0.97114 5.50095,-1.85595 7.42542,-3.16024c1.26199,-0.8553 1.68883,-2.21259 2.8379,-3.12013c0.82862,-0.65444 4.11036,-2.27023 5.42408,-1.94755c2.52904,0.62119 4.05401,5.49475 4.87382,7.17382c0.81561,1.67047 2.09706,2.72111 2.94108,4.38572c2.22816,4.39447 2.39218,10.85669 -0.38497,15.07163c-4.12178,4.62147 -13.47245,8.29221 -20.91425,8.62036c-3.3941,0.14966 -6.97675,-0.59431 -10.29739,-1.01544l-1.59475,-0.19833c-0.0875,0.01053 -0.17726,0.016 -0.26874,0.016z" fill="url(#color-1)" stroke="none" stroke-width="0.5"/><path d="M296.01192,216.45648c2.97215,-16.24462 5.48281,-29.22625 5.48281,-29.22625l37.78325,-0.15789c0,0 2.77645,13.86644 5.72037,30.26775c0.00971,0.0541 -49.03891,-0.59676 -48.98643,-0.88361z" fill="#ff9600" stroke="#000000" stroke-width="0"/><g stroke-width="0"><path d="M356.84064,264.74938c-0.16935,10.05097 -14.10853,4.57839 -35.80932,4.57839c-21.70078,0 -38.91576,4.34675 -38.50428,-5.05147c0.52608,-12.01574 17.11889,-0.63604 38.81967,-0.63604c21.70078,0 35.63747,-7.40967 35.49394,1.10912z" fill="#f2d40e" stroke="#000000"/><path d="M344.09441,266.38599c0,-0.97798 0.79281,-1.77078 1.77078,-1.77078c0.97798,0 1.77078,0.79281 1.77078,1.77078c0,0.97798 -0.79281,1.77078 -1.77078,1.77078c-0.97798,0 -1.77078,-0.79281 -1.77078,-1.77078z" fill="#080700" stroke="none"/><path d="M348.70223,261.04886c-0.3209,3.37178 -1.40371,2.88109 -2.86307,2.7422c-1.45936,-0.13889 -2.74263,0.12661 -2.42173,-3.24517c0.3209,-3.37178 3.22345,-5.85366 3.22345,-5.85366c0,0 2.38226,2.98485 2.06135,6.35663z" fill="#f2d40e" stroke="none"/><path d="M340.02663,267.57169c2.8247,-1.86894 3.12333,-0.71826 3.93224,0.50431c0.80891,1.22257 1.82178,2.05407 -1.00292,3.92301c-2.8247,1.86894 -6.57922,1.17036 -6.57922,1.17036c0,0 0.82521,-3.72874 3.64991,-5.59769z" fill="#f2d40e" stroke="none"/><path d="M345.92962,271.74289c-0.96942,-3.24532 0.21842,-3.1974 1.62304,-3.61698c1.40462,-0.41958 2.49413,-1.14777 3.46355,2.09755c0.96942,3.24532 -0.78801,6.63589 -0.78801,6.63589c0,0 -3.32917,-1.87113 -4.29858,-5.11645z" fill="#f2d40e" stroke="none"/><path d="M343.03152,260.28157c2.52782,2.25433 1.49142,2.83668 0.51571,3.93076c-0.97571,1.09408 -1.52125,2.28558 -4.04907,0.03125c-2.52782,-2.25433 -2.81034,-6.06283 -2.81034,-6.06283c0,0 3.81588,-0.15351 6.3437,2.10082z" fill="#f2d40e" stroke="none"/></g></g><path d="M295.94244,216.86716c0,-0.9665 0.7835,-1.75 1.75,-1.75c0.9665,0 1.75,0.7835 1.75,1.75c0,0.9665 -0.7835,1.75 -1.75,1.75c-0.9665,0 -1.75,-0.7835 -1.75,-1.75z" fill="#ff9600" stroke="none" stroke-width="0.5"/><path d="M345.50939,219.11521c0,0.69036 -0.55964,1.25 -1.25,1.25c-0.58846,0 -1.08194,-0.40663 -1.2148,-0.95423c-0.74057,-0.20381 -1.28455,-0.8821 -1.28455,-1.68743c0,-0.9665 0.7835,-1.75 1.75,-1.75c0.9665,0 1.5359,0.7835 1.5359,1.75c0,0.13554 -0.0112,0.26747 -0.03312,0.39415c0.30166,0.22821 0.49657,0.59009 0.49657,0.99751z" fill="#ff9600" stroke="none" stroke-width="0.5"/><path d="M337.26392,216.86716c0,-0.9665 0.7835,-1.75 1.75,-1.75c0.9665,0 1.75,0.7835 1.75,1.75c0,0.9665 -0.7835,1.75 -1.75,1.75c-0.9665,0 -1.75,-0.7835 -1.75,-1.75z" fill="#ff9600" stroke="none" stroke-width="0.5"/><path d="M331.055,216.86716c0,-0.9665 0.7835,-1.75 1.75,-1.75c0.53678,0 1.01712,0.24168 1.33813,0.62215c0.32101,-0.38047 0.80135,-0.62215 1.33813,-0.62215c0.9665,0 1.75,0.7835 1.75,1.75c0,0.9665 -0.7835,1.75 -1.75,1.75c-0.53678,0 -1.01711,-0.24168 -1.33813,-0.62215c-0.32101,0.38047 -0.80135,0.62215 -1.33813,0.62215c-0.9665,0 -1.75,-0.7835 -1.75,-1.75z" fill="#ff9600" stroke="none" stroke-width="0.5"/><path d="M323.09801,218.15175c0,-0.69036 0.55964,-1.25 1.25,-1.25c0.31567,0 0.604,0.11701 0.824,0.31002c-0.00317,-0.04309 -0.0048,-0.08662 -0.0048,-0.13053c0,-0.9665 0.7835,-1.75 1.75,-1.75c0.3111,0 0.60325,0.08118 0.8564,0.22351c0.25315,-0.14234 0.5453,-0.22351 0.8564,-0.22351c0.9665,0 1.75,0.7835 1.75,1.75c0,0.9665 -0.7835,1.75 -1.75,1.75c-0.3111,0 -0.60325,-0.08118 -0.8564,-0.22351c-0.00778,0.00438 -0.0156,0.00869 -0.02345,0.01295c-0.22316,0.34139 -0.60877,0.56697 -1.04706,0.56697c-0.50801,0 -0.94524,-0.30304 -1.14077,-0.73822c-0.13354,0.54664 -0.62656,0.95233 -1.21434,0.95233c-0.69036,0 -1.25,-0.55964 -1.25,-1.25z" fill="#ff9600" stroke="none" stroke-width="0.5"/><path d="M308.78848,216.86716c0,-0.90794 2.40865,-2.84656 3.17344,-1.50817c0.25014,0.14763 0.46034,0.3557 0.61052,0.60413c0.3065,-0.50702 0.86302,-0.84596 1.4987,-0.84596c0.47595,0 0.90752,0.19 1.223,0.49829c0.06029,-0.02457 0.12224,-0.04518 0.18548,-0.06204c0.19423,-0.07435 0.4051,-0.1151 0.62549,-0.1151c0.45635,0 0.87191,0.17468 1.18346,0.46083c0.02256,0.01482 0.04468,0.02996 0.06638,0.04539c0.23587,-0.11841 0.50221,-0.18507 0.78412,-0.18507c0.20657,0 0.40479,0.03579 0.58877,0.10151c0.18399,-0.06572 0.3822,-0.10151 0.58878,-0.10151c0.9665,0 1.75,0.7835 1.75,1.75c0,0.9665 -0.7835,1.75 -1.75,1.75c-0.20657,0 -0.40479,-0.0358 -0.58878,-0.10152c-0.18399,0.06572 -0.3822,0.10152 -0.58877,0.10152c-0.48323,0 -0.92072,-0.19586 -1.23741,-0.51253c-0.23892,0.12235 -0.50968,0.19138 -0.79655,0.19138c-0.13446,0 -0.26537,-0.01516 -0.39113,-0.04387c-0.435,0.10573 -0.83124,0.0274 -1.07466,-0.37157c-0.17815,0.06112 -0.36929,0.09429 -0.56817,0.09429c-0.63569,0 -1.1922,-0.33894 -1.4987,-0.84596c-0.3065,0.50702 -0.86302,0.84596 -1.49871,0.84596c-0.09804,0 -0.1942,-0.00807 -0.28785,-0.02356c-1.01047,0.44353 -1.99741,0.27119 -1.99741,-1.72644z" fill="#ff9600" stroke="none" stroke-width="0.5"/><path d="M304.03971,215.46067c0.265,-0.5145 2.3117,-1.46315 2.78381,-0.63695c0.5158,0.30442 0.86181,0.86589 0.86181,1.50818c0,0.9665 -0.7835,1.75 -1.75,1.75c-0.36156,0 -0.69751,-0.10965 -0.97641,-0.29751c-0.96798,-0.1522 -1.60936,-0.98382 -0.91921,-2.32372z" fill="#ff9600" stroke="none" stroke-width="0.5"/><path d="M299.90331,216.22485c0,-0.9665 0.7835,-1.75 1.75,-1.75c0.9665,0 1.75,0.7835 1.75,1.75c0,0.9665 -0.7835,1.75 -1.75,1.75c-0.9665,0 -1.75,-0.7835 -1.75,-1.75z" fill="#ff9600" stroke="none" stroke-width="0.5"/><path d="M300.3687,224.71645c0.69036,0 1.25,0.55964 1.25,1.25c0,0.69036 -0.55964,1.25 -1.25,1.25c-0.1789,0 -0.34902,-0.03758 -0.5029,-0.10528c-0.30099,0.24459 -0.6848,0.39118 -1.10286,0.39118c-0.49002,0 -0.93301,-0.2014 -1.25068,-0.52595c-0.28296,0.19661 -0.62671,0.31185 -0.99738,0.31185c-0.9665,0 -1.75,-0.7835 -1.75,-1.75c0,-0.9665 0.7835,-1.75 1.75,-1.75c0.49002,0 0.933,0.2014 1.25068,0.52595c0.28296,-0.19661 0.62672,-0.31185 0.99738,-0.31185c0.5849,0 1.10277,0.28694 1.42053,0.72773c0.06044,-0.00897 0.12229,-0.01363 0.18522,-0.01363z" fill="#ffc72e" stroke="none" stroke-width="0.5"/><path d="M305.22058,228.21451c0,-0.27336 0.08774,-0.52621 0.2366,-0.73195c-0.32446,-0.0491 -0.6197,-0.18731 -0.85998,-0.38887c-0.30406,0.25507 -0.6961,0.40866 -1.12403,0.40866c-0.9665,0 -1.75,-0.7835 -1.75,-1.75c0,-0.9665 0.7835,-1.75 1.75,-1.75c0.42793,0 0.81997,0.15359 1.12403,0.40866c0.30406,-0.25507 0.6961,-0.40866 1.12403,-0.40866c0.48265,0 0.91966,0.19539 1.23626,0.51138c0.30332,-0.25248 0.69335,-0.40433 1.11885,-0.40433c0.9665,0 1.75,0.7835 1.75,1.75c0,0.9665 -0.7835,1.75 -1.75,1.75c-0.19957,0 -0.39134,-0.03341 -0.57002,-0.09494c0.13526,0.19973 0.21427,0.44066 0.21427,0.70005c0,0.69036 -0.55964,1.25 -1.25,1.25c-0.69036,0 -1.25,-0.55964 -1.25,-1.25z" fill="#ffc72e" stroke="none" stroke-width="0.5"/><path d="M327.88067,223.8953c0.9665,0 1.75,0.7835 1.75,1.75c0,0.9665 -0.7835,1.75 -1.75,1.75c-0.68291,0 -1.27445,-0.39117 -1.56279,-0.96166c-0.31642,0.45199 -0.841,0.74755 -1.43462,0.74755c-0.9665,0 -1.75,-0.7835 -1.75,-1.75c0,-0.9665 0.7835,-1.75 1.75,-1.75c0.68291,0 1.27445,0.39117 1.5628,0.96166c0.31642,-0.45199 0.841,-0.74755 1.43461,-0.74755z" fill="#ffc72e" stroke="none" stroke-width="0.5"/><path d="M331.12679,228.32155c0,-0.51662 0.3134,-0.96004 0.76045,-1.1505c-0.43936,-0.31793 -0.7252,-0.83494 -0.7252,-1.41871c0,-0.9665 0.7835,-1.75 1.75,-1.75c0.17045,0 0.3352,0.02437 0.49098,0.06981c0.78988,-0.18737 1.47312,0.15276 1.47312,1.68019c0,0.22004 -0.17418,0.54241 -0.4399,0.86046c-0.19302,0.34118 -0.4973,0.61113 -0.86354,0.76055c-0.08123,0.05076 -0.16337,0.09658 -0.2455,0.13625c0.18679,0.21843 0.29959,0.50202 0.29959,0.81196c0,0.69036 -0.55964,1.25 -1.25,1.25c-0.69036,0 -1.25,-0.55964 -1.25,-1.25z" fill="#ffc72e" stroke="none" stroke-width="0.5"/><path d="M335.94406,226.82285c0,-0.68096 0.54451,-1.23474 1.22187,-1.24969c0.08974,-0.88233 0.83493,-1.57082 1.74094,-1.57082c0.33328,0 0.6448,0.09316 0.90993,0.25487c0.26513,-0.16171 0.57665,-0.25487 0.90992,-0.25487c0.9665,0 1.75,0.7835 1.75,1.75c0,0.9665 -0.7835,1.75 -1.75,1.75c-0.32024,0 -0.62038,-0.08602 -0.8786,-0.23621c-0.11041,0.06321 -0.23139,0.11005 -0.35963,0.13724c-0.18197,0.06411 -0.37773,0.09897 -0.58163,0.09897c-0.21143,0 -0.41411,-0.0375 -0.60174,-0.1062c-0.20783,0.40195 -0.62736,0.6767 -1.11107,0.6767c-0.69036,0 -1.25,-0.55964 -1.25,-1.25z" fill="#ffc72e" stroke="none" stroke-width="0.5"/><path d="M342.36709,228.6427c0,-0.64099 0.48246,-1.16929 1.10406,-1.24157c-0.45205,-0.31641 -0.74766,-0.84103 -0.74766,-1.43469c0,-0.9665 0.7835,-1.75 1.75,-1.75c0.9665,0 1.75,0.7835 1.75,1.75c0,0.9665 -0.7835,1.75 -1.75,1.75c-0.00571,0 -0.01142,-0.00002 -0.01711,-0.00008c0.25227,0.2287 0.41071,0.55902 0.41071,0.92634c0,0.69036 -0.55964,1.25 -1.25,1.25c-0.69036,0 -1.25,-0.55964 -1.25,-1.25z" fill="#ffc72e" stroke="none" stroke-width="0.5"/><path d="M297.79949,229.99718c0.9665,0 1.75,0.7835 1.75,1.75c0,0.9665 -0.7835,1.75 -1.75,1.75c-0.53678,0 -1.01712,-0.24167 -1.33813,-0.62215c-0.32101,0.38047 -0.80135,0.62215 -1.33813,0.62215c-0.9665,0 -1.75,-0.7835 -1.75,-1.75c0,-0.9665 0.7835,-1.75 1.75,-1.75c0.53678,0 1.01711,0.24168 1.33813,0.62215c0.32101,-0.38047 0.80135,-0.62215 1.33813,-0.62215z" fill="#f2bc49" stroke="none" stroke-width="0.5"/><path d="M303.93598,232.49653c0,-0.69036 0.55964,-1.25 1.25,-1.25c0.27335,0 0.52621,0.08774 0.73195,0.2366c0.06109,-0.40368 0.26009,-0.76211 0.54745,-1.02577c0.3199,-0.34867 0.77933,-0.56724 1.28981,-0.56724c0.9665,0 1.75,0.7835 1.75,1.75c0,0.51048 -0.21858,0.96991 -0.56724,1.28981c-0.3199,0.34867 -0.77933,0.56724 -1.28981,0.56724c-0.51031,0 -0.96959,-0.21842 -1.28947,-0.56687c-0.17633,0.47654 -0.63484,0.81623 -1.17269,0.81623c-0.69036,0 -1.25,-0.55964 -1.25,-1.25z" fill="#f2bc49" stroke="none" stroke-width="0.5"/><path d="M317.71088,229.56898c0.9665,0 1.75,0.7835 1.75,1.75c0,0.9665 -0.7835,1.75 -1.75,1.75c-0.63448,0 -1.19009,-0.33766 -1.49696,-0.84308c-0.26839,0.6219 -0.88711,1.05718 -1.6075,1.05718c-0.9665,0 -1.75,-0.7835 -1.75,-1.75c0,-0.9665 0.7835,-1.75 1.75,-1.75c0.63448,0 1.19009,0.33766 1.49696,0.84308c0.26839,-0.6219 0.88711,-1.05718 1.6075,-1.05718z" fill="#f2bc49" stroke="none" stroke-width="0.5"/><path d="M320.34995,231.10487c0,-0.9665 0.7835,-1.75 1.75,-1.75c0.9665,0 1.75,0.7835 1.75,1.75c0,0.9665 -0.7835,1.75 -1.75,1.75c-0.9665,0 -1.75,-0.7835 -1.75,-1.75z" fill="#f2bc49" stroke="none" stroke-width="0.5"/><path d="M327.41526,231.10487c0,-0.9665 0.7835,-1.75 1.75,-1.75c0.9665,0 1.75,0.7835 1.75,1.75c0,0.9665 -0.7835,1.75 -1.75,1.75c-0.9665,0 -1.75,-0.7835 -1.75,-1.75z" fill="#f2bc49" stroke="none" stroke-width="0.5"/><path d="M338.62033,234.20932c0,-0.33082 0.12851,-0.63162 0.33833,-0.85521c-0.2128,0.09204 -0.44749,0.14305 -0.6941,0.14305c-0.9665,0 -1.75,-0.7835 -1.75,-1.75c0,-0.9665 0.7835,-1.75 1.75,-1.75c0.42778,0 0.81972,0.15349 1.12373,0.40841c0.32101,-0.38068 0.80148,-0.6225 1.33843,-0.6225c0.9665,0 1.75,0.7835 1.75,1.75c0,0.9665 -0.7835,1.75 -1.75,1.75c-0.00571,0 -0.01141,-0.00003 -0.01711,-0.00009c0.25227,0.2287 0.41071,0.55902 0.41071,0.92634c0,0.69036 -0.55964,1.25 -1.25,1.25c-0.69036,0 -1.25,-0.55964 -1.25,-1.25zM339.603,232.87466c-0.04618,0.05477 -0.09566,0.10666 -0.14814,0.15537c0.08593,-0.03027 0.17616,-0.05142 0.26953,-0.06227c-0.04184,-0.02928 -0.08234,-0.06036 -0.12139,-0.0931z" fill="#f2bc49" stroke="none" stroke-width="0.5"/><path d="M345.65105,229.89011c0.9665,0 1.75,0.7835 1.75,1.75c0,0.9665 -0.7835,1.75 -1.75,1.75c-0.33299,0 -0.64426,-0.09301 -0.90924,-0.25446c-0.12092,0.02642 -0.24651,0.04036 -0.37536,0.04036c-0.9665,0 -1.75,-0.7835 -1.75,-1.75c0,-0.9665 0.7835,-1.75 1.75,-1.75c0.33299,0 0.64425,0.093 0.90924,0.25445c0.12092,-0.02642 0.24652,-0.04035 0.37537,-0.04035z" fill="#f2bc49" stroke="none" stroke-width="0.5"/><path d="M301.68791,220.07868c0,-0.69036 0.55964,-1.25 1.25,-1.25c0.69036,0 1.25,0.55964 1.25,1.25c0,0.69036 -0.55964,1.25 -1.25,1.25c-0.69036,0 -1.25,-0.55964 -1.25,-1.25z" fill="#ff9600" stroke="none" stroke-width="0.5"/><path d="M311.32246,220.50687c0,-0.69036 0.55964,-1.25 1.25,-1.25c0.69036,0 1.25,0.55964 1.25,1.25c0,0.69036 -0.55964,1.25 -1.25,1.25c-0.69036,0 -1.25,-0.55964 -1.25,-1.25z" fill="#ff9600" stroke="none" stroke-width="0.5"/><path d="M330.91269,220.50687c0,-0.69036 0.55964,-1.25 1.25,-1.25c0.69036,0 1.25,0.55964 1.25,1.25c0,0.69036 -0.55964,1.25 -1.25,1.25c-0.69036,0 -1.25,-0.55964 -1.25,-1.25z" fill="#ff9600" stroke="none" stroke-width="0.5"/><path d="M336.80047,221.79147c0,-0.69036 0.55964,-1.25 1.25,-1.25c0.69036,0 1.25,0.55964 1.25,1.25c0,0.69036 -0.55964,1.25 -1.25,1.25c-0.69036,0 -1.25,-0.55964 -1.25,-1.25z" fill="#ff9600" stroke="none" stroke-width="0.5"/><path d="M301.04561,228.74975c0,-0.69036 0.55964,-1.25 1.25,-1.25c0.69036,0 1.25,0.55964 1.25,1.25c0,0.69036 -0.55964,1.25 -1.25,1.25c-0.69036,0 -1.25,-0.55964 -1.25,-1.25z" fill="#ffc72e" stroke="none" stroke-width="0.5"/><path d="M317.53138,227.35811c0,-0.1411 0.02338,-0.27673 0.06647,-0.40324c-0.19722,0.07701 -0.41183,0.11928 -0.63632,0.11928c-0.37248,0 -0.71777,-0.11637 -1.00152,-0.31473c-0.30617,0.26291 -0.70428,0.42178 -1.13949,0.42178c-0.38732,0 -0.74524,-0.12582 -1.03514,-0.33882c-0.2268,0.23088 -0.54256,0.37408 -0.89177,0.37408c-0.13883,0 -0.27238,-0.02264 -0.39715,-0.06441c-0.22837,0.29941 -0.58887,0.49262 -0.9945,0.49262c-0.69036,0 -1.25,-0.55964 -1.25,-1.25c0,-0.69036 0.55964,-1.25 1.25,-1.25c0.13883,0 0.27238,0.02264 0.39715,0.06441c0.22837,-0.29941 0.58887,-0.49262 0.9945,-0.49262c0.10774,0 0.2123,0.01363 0.31204,0.03926c0.2643,-0.63113 0.88781,-1.07452 1.61487,-1.07452c0.37248,0 0.71777,0.11637 1.00151,0.31474c0.30617,-0.26291 0.70428,-0.42178 1.1395,-0.42178c0.9665,0 1.75,0.7835 1.75,1.75c0,0.29354 -0.07228,0.5702 -0.2,0.81316c0.08691,-0.01913 0.17721,-0.0292 0.26986,-0.0292c0.69036,0 1.25,0.55964 1.25,1.25c0,0.69036 -0.55964,1.25 -1.25,1.25c-0.69036,0 -1.25,-0.55964 -1.25,-1.25z" fill="#ffc72e" stroke="none" stroke-width="0.5"/><path d="M320.63585,228.10744c0,-0.69036 0.55964,-1.25 1.25,-1.25c0.69036,0 1.25,0.55964 1.25,1.25c0,0.69036 -0.55964,1.25 -1.25,1.25c-0.69036,0 -1.25,-0.55964 -1.25,-1.25z" fill="#ffc72e" stroke="none" stroke-width="0.5"/><path d="M325.02492,228.32155c0,-0.69036 0.55964,-1.25 1.25,-1.25c0.69036,0 1.25,0.55964 1.25,1.25c0,0.69036 -0.55964,1.25 -1.25,1.25c-0.69036,0 -1.25,-0.55964 -1.25,-1.25z" fill="#ffc72e" stroke="none" stroke-width="0.5"/><path d="M294.94372,236.13625c0,-0.69036 0.55964,-1.25 1.25,-1.25c0.69036,0 1.25,0.55964 1.25,1.25c0,0.69036 -0.55964,1.25 -1.25,1.25c-0.69036,0 -1.25,-0.55964 -1.25,-1.25z" fill="#f2bc49" stroke="none" stroke-width="0.5"/><path d="M301.36676,232.60357c0,-0.69036 0.55964,-1.25 1.25,-1.25c0.69036,0 1.25,0.55964 1.25,1.25c0,0.69036 -0.55964,1.25 -1.25,1.25c-0.69036,0 -1.25,-0.55964 -1.25,-1.25z" fill="#f2bc49" stroke="none" stroke-width="0.5"/><path d="M308.32504,234.10228c0,-0.69036 0.55964,-1.25 1.25,-1.25c0.69036,0 1.25,0.55964 1.25,1.25c0,0.69036 -0.55964,1.25 -1.25,1.25c-0.69036,0 -1.25,-0.55964 -1.25,-1.25z" fill="#f2bc49" stroke="none" stroke-width="0.5"/><path d="M310.7872,234.74459c0,-0.69036 0.55964,-1.25 1.25,-1.25c0.69036,0 1.25,0.55964 1.25,1.25c0,0.69036 -0.55964,1.25 -1.25,1.25c-0.69036,0 -1.25,-0.55964 -1.25,-1.25z" fill="#f2bc49" stroke="none" stroke-width="0.5"/><path d="M314.85512,235.27983c0,-0.69036 0.55964,-1.25 1.25,-1.25c0.69036,0 1.25,0.55964 1.25,1.25c0,0.69036 -0.55964,1.25 -1.25,1.25c-0.69036,0 -1.25,-0.55964 -1.25,-1.25z" fill="#f2bc49" stroke="none" stroke-width="0.5"/><path d="M321.3852,235.38688c0,-0.69036 0.55964,-1.25 1.25,-1.25c0.69036,0 1.25,0.55964 1.25,1.25c0,0.69036 -0.55964,1.25 -1.25,1.25c-0.69036,0 -1.25,-0.55964 -1.25,-1.25z" fill="#f2bc49" stroke="none" stroke-width="0.5"/><path d="M326.63067,234.10228c0,-0.69036 0.55964,-1.25 1.25,-1.25c0.69036,0 1.25,0.55964 1.25,1.25c0,0.69036 -0.55964,1.25 -1.25,1.25c-0.69036,0 -1.25,-0.55964 -1.25,-1.25z" fill="#f2bc49" stroke="none" stroke-width="0.5"/><path d="M332.69793,231.24653c0.69036,0 1.25,0.55964 1.25,1.25c0,0.69036 -0.55964,1.25 -1.25,1.25c-0.0544,0 -0.108,-0.00348 -0.16057,-0.01022c-0.05257,0.00674 -0.10617,0.01022 -0.16057,0.01022c-0.69036,0 -1.25,-0.55964 -1.25,-1.25c0,-0.69036 0.55964,-1.25 1.25,-1.25c0.0544,0 0.108,0.00348 0.16057,0.01022c0.05257,-0.00674 0.10617,-0.01022 0.16057,-0.01022z" fill="#f2bc49" stroke="none" stroke-width="0.5"/><path d="M341.08249,234.74459c0,-0.69036 0.55964,-1.25 1.25,-1.25c0.69036,0 1.25,0.55964 1.25,1.25c0,0.69036 -0.55964,1.25 -1.25,1.25c-0.69036,0 -1.25,-0.55964 -1.25,-1.25z" fill="#f2bc49" stroke="none" stroke-width="0.5"/><path d="M304.86418,223.50428c0,-0.41422 0.33578,-0.75 0.75,-0.75c0.41422,0 0.75,0.33578 0.75,0.75c0,0.41422 -0.33578,0.75 -0.75,0.75c-0.41422,0 -0.75,-0.33578 -0.75,-0.75z" fill="#ff9600" stroke="none" stroke-width="0.5"/><path d="M315.89036,221.89852c0,-0.41422 0.33578,-0.75 0.75,-0.75c0.41422,0 0.75,0.33578 0.75,0.75c0,0.41422 -0.33578,0.75 -0.75,0.75c-0.41422,0 -0.75,-0.33578 -0.75,-0.75z" fill="#ff9600" stroke="none" stroke-width="0.5"/><path d="M329.80692,223.82544c0,-0.41422 0.33578,-0.75 0.75,-0.75c0.41422,0 0.75,0.33578 0.75,0.75c0,0.41422 -0.33578,0.75 -0.75,0.75c-0.41422,0 -0.75,-0.33578 -0.75,-0.75z" fill="#ff9600" stroke="none" stroke-width="0.5"/><path d="M338.47802,224.57479c0,-0.41422 0.33578,-0.75 0.75,-0.75c0.41422,0 0.75,0.33578 0.75,0.75c0,0.41422 -0.33578,0.75 -0.75,0.75c-0.41422,0 -0.75,-0.33578 -0.75,-0.75z" fill="#ff9600" stroke="none" stroke-width="0.5"/><path d="M296.62129,228.85679c0,-0.41422 0.33578,-0.75 0.75,-0.75c0.41422,0 0.75,0.33578 0.75,0.75c0,0.41422 -0.33578,0.75 -0.75,0.75c-0.41422,0 -0.75,-0.33578 -0.75,-0.75z" fill="#ffc72e" stroke="none" stroke-width="0.5"/><path d="M313.00001,230.03436c0,-0.41422 0.33578,-0.75 0.75,-0.75c0.41422,0 0.75,0.33578 0.75,0.75c0,0.41422 -0.33578,0.75 -0.75,0.75c-0.41422,0 -0.75,-0.33578 -0.75,-0.75z" fill="#ffc72e" stroke="none" stroke-width="0.5"/><path d="M335.05241,230.03436c0,-0.41422 0.33578,-0.75 0.75,-0.75c0.41422,0 0.75,0.33578 0.75,0.75c0,0.41422 -0.33578,0.75 -0.75,0.75c-0.41422,0 -0.75,-0.33578 -0.75,-0.75z" fill="#ffc72e" stroke="none" stroke-width="0.5"/><path d="M339.22738,231.64011c0,-0.41422 0.33578,-0.75 0.75,-0.75c0.41422,0 0.75,0.33578 0.75,0.75c0,0.41422 -0.33578,0.75 -0.75,0.75c-0.41422,0 -0.75,-0.33578 -0.75,-0.75z" fill="#ffc72e" stroke="none" stroke-width="0.5"/><path d="M299.51165,237.3138c0,-0.41422 0.33578,-0.75 0.75,-0.75c0.41422,0 0.75,0.33578 0.75,0.75c0,0.41422 -0.33578,0.75 -0.75,0.75c-0.41422,0 -0.75,-0.33578 -0.75,-0.75z" fill="#f2bc49" stroke="none" stroke-width="0.5"/><path d="M302.29497,235.81507c0,-0.41422 0.33578,-0.75 0.75,-0.75c0.41422,0 0.75,0.33578 0.75,0.75c0,0.41422 -0.33578,0.75 -0.75,0.75c-0.41422,0 -0.75,-0.33578 -0.75,-0.75z" fill="#f2bc49" stroke="none" stroke-width="0.5"/><path d="M311.39426,237.84904c0,-0.41422 0.33578,-0.75 0.75,-0.75c0.41422,0 0.75,0.33578 0.75,0.75c0,0.41422 -0.33578,0.75 -0.75,0.75c-0.41422,0 -0.75,-0.33578 -0.75,-0.75z" fill="#f2bc49" stroke="none" stroke-width="0.5"/><path d="M315.67627,240.31121c0,-0.41422 0.33578,-0.75 0.75,-0.75c0.41422,0 0.75,0.33578 0.75,0.75c0,0.41422 -0.33578,0.75 -0.75,0.75c-0.41422,0 -0.75,-0.33578 -0.75,-0.75z" fill="#f2bc49" stroke="none" stroke-width="0.5"/><path d="M326.59542,238.49135c0,-0.41422 0.33578,-0.75 0.75,-0.75c0.41422,0 0.75,0.33578 0.75,0.75c0,0.41422 -0.33578,0.75 -0.75,0.75c-0.41422,0 -0.75,-0.33578 -0.75,-0.75z" fill="#f2bc49" stroke="none" stroke-width="0.5"/><path d="M336.22996,236.4574c0,-0.41422 0.33578,-0.75 0.75,-0.75c0.41422,0 0.75,0.33578 0.75,0.75c0,0.41422 -0.33578,0.75 -0.75,0.75c-0.41422,0 -0.75,-0.33578 -0.75,-0.75z" fill="#f2bc49" stroke="none" stroke-width="0.5"/><path d="M342.22479,239.02661c0,-0.41422 0.33578,-0.75 0.75,-0.75c0.41422,0 0.75,0.33578 0.75,0.75c0,0.41422 -0.33578,0.75 -0.75,0.75c-0.41422,0 -0.75,-0.33578 -0.75,-0.75z" fill="#f2bc49" stroke="none" stroke-width="0.5"/></g><path d="" fill="none" stroke="#000000" stroke-width="2" stroke-linecap="round"/><g><g><path d="M370.42372,119.65201l56.68494,-23.18418c0,0 -1.19216,35.17471 -5.3136,52.8616c-4.44728,19.08521 -20.46703,57.77424 -20.46703,57.77424l-29.21648,-24.01614z" fill="#f3ca58" stroke="#000000" stroke-width="0" stroke-linecap="round"/><path d="M375.89514,174.14291c9.04146,5.3302 17.16241,10.33003 17.16241,10.33003c0,0 -8.92997,-3.32433 -17.97142,-8.65453c-9.04146,-5.3302 -16.38419,-9.72987 -15.6707,-10.94014c0.71348,-1.21028 7.43825,3.93445 16.47971,9.26464z" fill="#ff9600" stroke="#000000" stroke-width="0" stroke-linecap="butt"/><path d="M370.79936,153.99226c0.13017,-1.39888 8.40557,0.39238 18.85607,1.36488c10.4505,0.97251 19.92746,2.03809 19.92746,2.03809c0,0 -9.49544,0.7949 -19.94595,-0.17761c-10.45051,-0.9725 -18.96776,-1.82647 -18.83758,-3.22536z" fill="#ff9600" stroke="#000000" stroke-width="0" stroke-linecap="butt"/><g stroke="#000000" stroke-width="0" stroke-linecap="round"><g fill="#f2bc49"><path d="M370.54922,124.36878c-0.06519,-2.4501 -0.1255,-4.71677 -0.1255,-4.71677l56.68494,-23.18418c0,0 -0.45144,13.31972 -1.7591,27.68763c-0.02813,0.30895 -54.7989,0.2676 -54.80034,0.21333z"/></g><g fill="#ffc72e"><path d="M370.42372,119.65201l56.68494,-23.18418c0,0 -0.34936,10.3079 -1.32365,22.56938c-0.00203,0.02554 -55.36129,0.61481 -55.36129,0.61481z"/></g><g fill="#ff9600"><path d="M397.69557,108.4978c9.61912,-3.93423 29.4131,-12.02998 29.4131,-12.02998c0,0 0.02849,2.95619 -0.17638,6.71368c-0.07512,1.37771 -0.34364,2.86442 -0.42561,4.35083c-0.00072,0.01288 -28.99231,1.03958 -28.8111,0.96546z"/></g></g><path d="M424.14821,109.41748c-0.96647,0.00748 -1.75601,-0.76994 -1.76349,-1.73641c-0.00748,-0.96647 0.76994,-1.75601 1.73641,-1.76349c0.96647,-0.00748 1.75601,0.76994 1.76349,1.73641c0.00748,0.96647 -0.76994,1.75601 -1.73641,1.76349z" fill="#ff9600" stroke="none" stroke-width="0.5" stroke-linecap="butt"/><path d="M420.41121,110.3825c-0.64279,0.00497 -1.20733,-0.33726 -1.51556,-0.85138c-0.21355,0.71813 -0.87599,1.24433 -1.66415,1.25043c-0.2317,0.0018 -0.45321,-0.04153 -0.65622,-0.12174c-0.20175,0.08334 -0.42257,0.13008 -0.65426,0.13188c-0.96647,0.00748 -1.75601,-0.76994 -1.76349,-1.73641c-0.00748,-0.96647 0.76994,-1.75601 1.73641,-1.76349c0.2317,-0.0018 0.45321,0.04153 0.65622,0.12174c0.20175,-0.08334 0.42257,-0.13008 0.65426,-0.13188c0.6428,-0.00498 1.20733,0.33726 1.51556,0.85139c0.21355,-0.71813 0.87599,-1.24434 1.66414,-1.25044c0.96647,-0.00748 1.75601,0.76994 1.76349,1.73641c0.00748,0.96647 -0.76994,1.75601 -1.73641,1.76349z" fill="#ff9600" stroke="none" stroke-width="0.5" stroke-linecap="butt"/><path d="M412.35676,109.88313c-0.96647,0.00748 -1.75601,-0.76994 -1.76349,-1.73641c-0.00748,-0.96647 0.76994,-1.75601 1.73641,-1.76349c0.96647,-0.00748 1.75601,0.76994 1.76349,1.73641c0.00748,0.96647 -0.76994,1.75601 -1.73641,1.76349z" fill="#ff9600" stroke="none" stroke-width="0.5" stroke-linecap="butt"/><path d="M406.34815,108.98901c-0.03665,-0.1388 -0.05669,-0.2844 -0.05786,-0.43457c-0.00748,-0.96647 0.76994,-1.75601 1.73641,-1.76349c0.96647,-0.00748 1.75601,0.76994 1.76349,1.73641c0.00748,0.96647 -0.76994,1.75601 -1.73641,1.76349c-0.15017,0.00116 -0.29605,-0.01664 -0.43541,-0.05112c-0.00037,0.68552 -0.55352,1.24377 -1.24033,1.24908c-0.69033,0.00534 -1.25429,-0.54997 -1.25963,-1.2403c-0.00531,-0.68682 0.54431,-1.24853 1.22975,-1.2595z" fill="#ff9600" stroke="none" stroke-width="0.5" stroke-linecap="butt"/><path d="M403.1863,110.32851c-0.96647,0.00748 -1.75601,-0.76994 -1.76349,-1.73641c-0.00748,-0.96647 0.76994,-1.75601 1.73641,-1.76349c0.96647,-0.00748 1.75601,0.76994 1.76349,1.73641c0.00748,0.96647 -0.76994,1.75601 -1.73641,1.76349z" fill="#ff9600" stroke="none" stroke-width="0.5" stroke-linecap="butt"/><path d="M423.24882,114.16666c-0.69034,0.00534 -1.25429,-0.54997 -1.25963,-1.2403c-0.00534,-0.69033 0.54996,-1.25429 1.2403,-1.25963c0.69034,-0.00534 1.25429,0.54997 1.25963,1.2403c0.00534,0.69033 -0.54996,1.25429 -1.2403,1.25963z" fill="#ff9600" stroke="none" stroke-width="0.5" stroke-linecap="butt"/><path d="M416.33792,116.27958c-0.69034,0.00534 -1.25429,-0.54997 -1.25963,-1.2403c-0.00534,-0.69033 0.54996,-1.25429 1.2403,-1.25963c0.69034,-0.00534 1.25429,0.54997 1.25963,1.2403c0.00534,0.69033 -0.54996,1.25429 -1.2403,1.25963z" fill="#ff9600" stroke="none" stroke-width="0.5" stroke-linecap="butt"/><path d="M412.37751,112.56574c-0.69033,0.00534 -1.25429,-0.54997 -1.25963,-1.2403c-0.00534,-0.69033 0.54997,-1.25429 1.2403,-1.25963c0.69034,-0.00534 1.25429,0.54997 1.25963,1.2403c0.00534,0.69033 -0.54996,1.25429 -1.2403,1.25963z" fill="#ff9600" stroke="none" stroke-width="0.5" stroke-linecap="butt"/><path d="M397.01603,111.37401c-0.69034,0.00534 -1.25429,-0.54997 -1.25963,-1.2403c-0.00534,-0.69033 0.54996,-1.25429 1.2403,-1.25963c0.69034,-0.00534 1.25429,0.54997 1.25963,1.2403c0.00534,0.69033 -0.54996,1.25429 -1.2403,1.25963z" fill="#ff9600" stroke="none" stroke-width="0.5" stroke-linecap="butt"/><path d="M392.92054,114.40126c-0.69034,0.00534 -1.25429,-0.54997 -1.25963,-1.2403c-0.00534,-0.69033 0.54996,-1.25429 1.2403,-1.25963c0.69034,-0.00534 1.25429,0.54997 1.25963,1.2403c0.00534,0.69033 -0.54996,1.25429 -1.2403,1.25963z" fill="#ff9600" stroke="none" stroke-width="0.5" stroke-linecap="butt"/><path d="M423.60937,121.21669c-0.96647,0.00748 -1.75601,-0.76994 -1.76349,-1.73641c-0.00748,-0.96647 0.76994,-1.75601 1.73641,-1.76349c0.96647,-0.00748 1.75601,0.76994 1.76349,1.73641c0.00748,0.96647 -0.76994,1.75601 -1.73641,1.76349z" fill="#ffc72e" stroke="none" stroke-width="0.5" stroke-linecap="butt"/><path d="M418.36019,120.32118c-0.96647,0.00748 -1.75601,-0.76994 -1.76349,-1.73641c-0.00748,-0.96647 0.76994,-1.75601 1.73641,-1.76349c0.96647,-0.00748 1.75601,0.76994 1.76349,1.73641c0.00748,0.96647 -0.76994,1.75601 -1.73641,1.76349z" fill="#ffc72e" stroke="none" stroke-width="0.5" stroke-linecap="butt"/><path d="M410.39273,118.13026c0.20001,-0.08169 0.41861,-0.12745 0.64783,-0.12923c0.50782,-0.00393 0.9668,0.20884 1.28914,0.55189c0.00855,-0.00018 0.01711,-0.00032 0.02569,-0.00039c0.96647,-0.00748 1.75601,0.76994 1.76349,1.73641c0.00748,0.96647 -0.76994,1.75601 -1.73641,1.76349c-0.50782,0.00393 -0.9668,-0.20884 -1.28914,-0.55189c-0.00855,0.00018 -0.01711,0.00032 -0.02569,0.00039c-0.47611,0.00368 -0.90929,-0.18312 -1.22718,-0.48918c-0.20002,0.08169 -0.41861,0.12745 -0.64783,0.12923c-0.96647,0.00748 -1.75601,-0.76994 -1.76349,-1.73641c-0.00748,-0.96647 0.76994,-1.75601 1.73641,-1.76349c0.47611,-0.00368 0.90929,0.18312 1.22719,0.48918z" fill="#ffc72e" stroke="none" stroke-width="0.5" stroke-linecap="butt"/><path d="M399.7553,122.34593c-0.69034,0.00534 -1.25429,-0.54997 -1.25963,-1.2403c-0.00458,-0.59208 0.40326,-1.0912 0.95496,-1.22465c-0.27783,-0.3071 -0.44836,-0.71341 -0.45182,-1.1601c-0.00748,-0.96647 0.76994,-1.75601 1.73641,-1.76349c0.53492,-0.00414 1.01564,0.23216 1.33956,0.60788c0.30746,-0.48687 0.84859,-0.81203 1.46718,-0.81682c0.96647,-0.00748 1.75601,0.76994 1.76349,1.73641c0.00748,0.96647 -0.76994,1.75601 -1.73641,1.76349c-0.53492,0.00414 -1.01563,-0.23217 -1.33955,-0.60789c-0.29793,0.47178 -0.81529,0.79173 -1.40992,0.81545c0.1102,0.18453 0.17422,0.39991 0.17601,0.63036c0.00534,0.69033 -0.54996,1.25429 -1.2403,1.25963z" fill="#ffc72e" stroke="none" stroke-width="0.5" stroke-linecap="butt"/><path d="M396.45643,120.49061c-0.96647,0.00748 -1.75601,-0.76994 -1.76349,-1.73641c-0.00748,-0.96647 0.76994,-1.75601 1.73641,-1.76349c0.96647,-0.00748 1.75601,0.76994 1.76349,1.73641c0.00748,0.96647 -0.76994,1.75601 -1.73641,1.76349z" fill="#ffc72e" stroke="none" stroke-width="0.5" stroke-linecap="butt"/><path d="M385.73231,120.20229c-0.02188,-0.04059 -0.0422,-0.08216 -0.06089,-0.12462c-0.31672,0.41815 -0.8172,0.68989 -1.3823,0.69426c-0.635,0.00491 -1.19362,-0.329 -1.50422,-0.83274c-0.30278,0.5085 -0.85617,0.851 -1.49115,0.85591c-0.56511,0.00437 -1.06972,-0.2596 -1.39288,-0.67279c-0.26339,0.62439 -0.87894,1.06482 -1.59962,1.07039c-0.96647,0.00748 -1.75601,-0.76994 -1.76349,-1.73641c-0.00748,-0.96647 0.76994,-1.75601 1.73641,-1.76349c0.56511,-0.00437 1.06971,0.2596 1.39287,0.67279c0.26339,-0.62439 0.87894,-1.06482 1.59962,-1.07039c0.635,-0.00491 1.19361,0.32901 1.50421,0.83275c0.30278,-0.5085 0.85617,-0.85101 1.49116,-0.85592c0.72068,-0.00557 1.34298,0.42528 1.61599,1.04552c0.31672,-0.41815 0.81719,-0.68989 1.3823,-0.69426c0.71526,-0.00553 1.33364,0.41884 1.60979,1.03161c0.31162,-0.30132 0.73505,-0.48807 1.20274,-0.49169c0.96647,-0.00748 1.75601,0.76994 1.76349,1.73641c0.00748,0.96647 -0.76994,1.75601 -1.73641,1.76349c-0.71527,0.00553 -1.33364,-0.41884 -1.60979,-1.03161c-0.10983,0.10619 -0.23354,0.19816 -0.36818,0.2729c-0.11288,0.56956 -0.61309,1.00099 -1.21648,1.00566c-0.69034,0.00534 -1.25429,-0.54997 -1.25963,-1.2403c-0.00127,-0.16502 0.02948,-0.32281 0.08646,-0.46747z" fill="#ffc72e" stroke="none" stroke-width="0.5" stroke-linecap="butt"/><path d="M423.45981,126.08564c-0.96647,0.00748 -1.75601,-0.76994 -1.76349,-1.73641c-0.00748,-0.96647 0.76994,-1.75601 1.73641,-1.76349c0.96647,-0.00748 1.75601,0.76994 1.76349,1.73641c0.00748,0.96647 -0.76994,1.75601 -1.73641,1.76349z" fill="#f2bc49" stroke="none" stroke-width="0.5" stroke-linecap="butt"/><path d="M415.95215,123.66365c0.26937,-0.1738 0.58967,-0.27571 0.93397,-0.27838c0.5146,-0.00398 0.97902,0.21455 1.30196,0.56567c0.18414,-0.76235 0.86788,-1.33135 1.68764,-1.33769c0.96647,-0.00748 1.75601,0.76994 1.76349,1.73641c0.00748,0.96647 -0.76994,1.75601 -1.73641,1.76349c-0.5146,0.00398 -0.97903,-0.21455 -1.30197,-0.56567c-0.18414,0.76235 -0.86788,1.33135 -1.68764,1.33769c-0.34429,0.00266 -0.66612,-0.09428 -0.93816,-0.2639c-0.26937,0.1738 -0.58966,0.27571 -0.93396,0.27838c-0.96647,0.00748 -1.75601,-0.76994 -1.76349,-1.73641c-0.00748,-0.96647 0.76994,-1.75601 1.73641,-1.76349c0.34429,-0.00266 0.66611,0.09428 0.93815,0.26389z" fill="#f2bc49" stroke="none" stroke-width="0.5" stroke-linecap="butt"/><path d="M410.5451,126.55998c-0.96647,0.00748 -1.75601,-0.76994 -1.76349,-1.73641c-0.00748,-0.96647 0.76994,-1.75601 1.73641,-1.76349c0.96647,-0.00748 1.75601,0.76994 1.76349,1.73641c0.00748,0.96647 -0.76994,1.75601 -1.73641,1.76349z" fill="#f2bc49" stroke="none" stroke-width="0.5" stroke-linecap="butt"/><path d="M405.04705,123.18072c0.31792,-0.3932 0.80287,-0.64619 1.34797,-0.65041c0.96647,-0.00748 1.75601,0.76994 1.76349,1.73641c0.00748,0.96647 -0.76994,1.75601 -1.73641,1.76349c-0.18078,0.0014 -0.35537,-0.02467 -0.5198,-0.07429c-0.31792,0.3932 -0.80287,0.64619 -1.34797,0.65041c-0.96647,0.00748 -1.75601,-0.76994 -1.76349,-1.73641c-0.00748,-0.96647 0.76994,-1.75601 1.73641,-1.76349c0.18079,-0.0014 0.35537,0.02467 0.51981,0.07429z" fill="#f2bc49" stroke="none" stroke-width="0.5" stroke-linecap="butt"/><path d="M398.11383,126.06821c-0.0985,0.01802 -0.1999,0.02781 -0.30346,0.02861c-0.56825,0.00439 -1.07532,-0.26254 -1.39824,-0.67971c-0.3135,0.31367 -0.74566,0.50907 -1.22417,0.51278c-0.47849,0.0037 -0.91363,-0.18499 -1.23195,-0.49378c-0.31642,0.42212 -0.81932,0.69687 -1.38755,0.70127c-0.96647,0.00748 -1.75601,-0.76994 -1.76349,-1.73641c-0.00748,-0.96647 0.76994,-1.75601 1.73641,-1.76349c0.4785,-0.0037 0.91363,0.18499 1.23195,0.49378c0.31642,-0.42212 0.81932,-0.69687 1.38756,-0.70127c0.56825,-0.00439 1.07532,0.26254 1.39825,0.67971c0.3135,-0.31367 0.74566,-0.50907 1.22416,-0.51278c0.71526,-0.00553 1.33364,0.41884 1.60979,1.03161c0.31162,-0.30132 0.73505,-0.48808 1.20274,-0.4917c0.96647,-0.00748 1.75601,0.76994 1.76349,1.73641c0.00748,0.96647 -0.76994,1.75601 -1.73641,1.76349c-0.08024,0.00062 -0.15926,-0.00417 -0.23671,-0.01403c-0.22337,0.32559 -0.59702,0.54037 -1.02179,0.54366c-0.64225,0.00497 -1.17511,-0.47533 -1.25053,-1.09815z" fill="#f2bc49" stroke="none" stroke-width="0.5" stroke-linecap="butt"/><path d="M388.81985,125.60469c-0.96647,0.00748 -1.75601,-0.76994 -1.76349,-1.73641c-0.00748,-0.96647 0.76994,-1.75601 1.73641,-1.76349c0.96647,-0.00748 1.75601,0.76994 1.76349,1.73641c0.00748,0.96647 -0.76994,1.75601 -1.73641,1.76349z" fill="#f2bc49" stroke="none" stroke-width="0.5" stroke-linecap="butt"/><path d="M385.26863,126.38106c-0.96647,0.00748 -1.75601,-0.76994 -1.76349,-1.73641c-0.00748,-0.96647 0.76994,-1.75601 1.73641,-1.76349c0.96647,-0.00748 1.75601,0.76994 1.76349,1.73641c0.00748,0.96647 -0.76994,1.75601 -1.73641,1.76349z" fill="#f2bc49" stroke="none" stroke-width="0.5" stroke-linecap="butt"/><path d="M419.35405,123.37191c-0.69033,0.00534 -1.25429,-0.54997 -1.25963,-1.2403c-0.00534,-0.69033 0.54997,-1.25429 1.2403,-1.25963c0.69034,-0.00534 1.25429,0.54997 1.25963,1.2403c0.00534,0.69033 -0.54996,1.25429 -1.2403,1.25963z" fill="#ffc72e" stroke="none" stroke-width="0.5" stroke-linecap="butt"/><path d="M406.17398,121.76101c-0.69034,0.00534 -1.25429,-0.54997 -1.25963,-1.2403c-0.00534,-0.69033 0.54996,-1.25429 1.2403,-1.25963c0.69033,-0.00534 1.25429,0.54997 1.25963,1.2403c0.00534,0.69033 -0.54997,1.25429 -1.2403,1.25963z" fill="#ffc72e" stroke="none" stroke-width="0.5" stroke-linecap="butt"/><path d="M393.3366,122.93085c-0.69034,0.00534 -1.25429,-0.54997 -1.25963,-1.2403c-0.00534,-0.69033 0.54996,-1.25429 1.2403,-1.25963c0.69034,-0.00534 1.25429,0.54997 1.25963,1.2403c0.00534,0.69033 -0.54996,1.25429 -1.2403,1.25963z" fill="#ffc72e" stroke="none" stroke-width="0.5" stroke-linecap="butt"/><path d="M419.63025,131.39879c-0.69034,0.00534 -1.25429,-0.54997 -1.25963,-1.2403c-0.00534,-0.69033 0.54996,-1.25429 1.2403,-1.25963c0.69034,-0.00534 1.25429,0.54997 1.25963,1.2403c0.00534,0.69033 -0.54996,1.25429 -1.2403,1.25963z" fill="#f2bc49" stroke="none" stroke-width="0.5" stroke-linecap="butt"/><path d="M414.60317,131.97295c-0.69033,0.00534 -1.25429,-0.54996 -1.25963,-1.2403c-0.00534,-0.69033 0.54997,-1.25429 1.2403,-1.25963c0.69034,-0.00534 1.25429,0.54996 1.25963,1.2403c0.00534,0.69034 -0.54996,1.25429 -1.2403,1.25963z" fill="#f2bc49" stroke="none" stroke-width="0.5" stroke-linecap="butt"/><path d="M410.31962,131.79199c-0.69033,0.00534 -1.25429,-0.54996 -1.25963,-1.2403c-0.00534,-0.69033 0.54997,-1.25429 1.2403,-1.25963c0.69034,-0.00534 1.25429,0.54996 1.25963,1.2403c0.00534,0.69034 -0.54996,1.25429 -1.2403,1.25963z" fill="#f2bc49" stroke="none" stroke-width="0.5" stroke-linecap="butt"/><path d="M400.67046,129.93966c-0.69034,0.00534 -1.25429,-0.54997 -1.25963,-1.2403c-0.00534,-0.69033 0.54996,-1.25429 1.2403,-1.25963c0.69034,-0.00534 1.25429,0.54997 1.25963,1.2403c0.00534,0.69033 -0.54996,1.25429 -1.2403,1.25963z" fill="#f2bc49" stroke="none" stroke-width="0.5" stroke-linecap="butt"/><path d="M394.66505,128.59443c-0.69034,0.00534 -1.25429,-0.54997 -1.25963,-1.2403c-0.00534,-0.69033 0.54996,-1.25429 1.2403,-1.25963c0.69034,-0.00534 1.25429,0.54997 1.25963,1.2403c0.00534,0.69033 -0.54996,1.25429 -1.2403,1.25963z" fill="#f2bc49" stroke="none" stroke-width="0.5" stroke-linecap="butt"/><path d="M390.50181,130.12537c-0.69034,0.00534 -1.25429,-0.54997 -1.25963,-1.2403c-0.00534,-0.69033 0.54996,-1.25429 1.2403,-1.25963c0.69034,-0.00534 1.25429,0.54997 1.25963,1.2403c0.00534,0.69033 -0.54996,1.25429 -1.2403,1.25963z" fill="#f2bc49" stroke="none" stroke-width="0.5" stroke-linecap="butt"/><path d="M387.60903,129.82659c-0.69034,0.00534 -1.25429,-0.54997 -1.25963,-1.2403c-0.00534,-0.69033 0.54996,-1.25429 1.2403,-1.25963c0.69034,-0.00534 1.25429,0.54997 1.25963,1.2403c0.00534,0.69033 -0.54996,1.25429 -1.2403,1.25963z" fill="#f2bc49" stroke="none" stroke-width="0.5" stroke-linecap="butt"/><path d="M417.61898,134.34007c-0.41421,0.00321 -0.75257,-0.32997 -0.75578,-0.74418c-0.00321,-0.41421 0.32997,-0.75257 0.74418,-0.75578c0.41421,-0.00321 0.75257,0.32997 0.75578,0.74418c0.00321,0.41421 -0.32997,0.75257 -0.74418,0.75578z" fill="#f2bc49" stroke="none" stroke-width="0.5" stroke-linecap="butt"/><path d="M409.17384,135.90414c-0.41421,0.00321 -0.75257,-0.32997 -0.75578,-0.74418c-0.00321,-0.41421 0.32997,-0.75257 0.74418,-0.75578c0.41421,-0.00321 0.75257,0.32997 0.75578,0.74418c0.00321,0.41421 -0.32997,0.75257 -0.74418,0.75578z" fill="#f2bc49" stroke="none" stroke-width="0.5" stroke-linecap="butt"/><path d="M395.695,137.186c-0.41421,0.00321 -0.75257,-0.32997 -0.75578,-0.74418c-0.00321,-0.41421 0.32997,-0.75257 0.74418,-0.75578c0.41421,-0.00321 0.75257,0.32997 0.75578,0.74418c0.00321,0.41421 -0.32997,0.75257 -0.74418,0.75578z" fill="#f2bc49" stroke="none" stroke-width="0.5" stroke-linecap="butt"/><path d="M415.93626,124.39709c-0.41421,0.00321 -0.75257,-0.32998 -0.75578,-0.74418c-0.00321,-0.4142 0.32997,-0.75257 0.74418,-0.75578c0.41421,-0.00321 0.75257,0.32998 0.75578,0.74418c0.00321,0.4142 -0.32997,0.75257 -0.74418,0.75578z" fill="#ffc72e" stroke="none" stroke-width="0.5" stroke-linecap="butt"/><path d="M399.45015,124.41756c-0.41421,0.00321 -0.75257,-0.32998 -0.75578,-0.74418c-0.00321,-0.4142 0.32997,-0.75257 0.74418,-0.75578c0.41421,-0.00321 0.75257,0.32998 0.75578,0.74418c0.00321,0.4142 -0.32997,0.75257 -0.74418,0.75578z" fill="#ffc72e" stroke="none" stroke-width="0.5" stroke-linecap="butt"/><path d="M385.09588,123.24395c-0.41421,0.00321 -0.75257,-0.32998 -0.75578,-0.74418c-0.00321,-0.4142 0.32997,-0.75257 0.74418,-0.75578c0.41421,-0.00321 0.75257,0.32998 0.75578,0.74418c0.00321,0.4142 -0.32997,0.75257 -0.74418,0.75578z" fill="#ffc72e" stroke="none" stroke-width="0.5" stroke-linecap="butt"/><path d="M361.06048,139.54253c-0.63862,-1.25139 7.31072,-4.16666 16.65939,-8.93753c9.34867,-4.77088 17.92471,-8.94216 17.92471,-8.94216c0,0 -7.59606,5.75285 -16.94473,10.52372c-9.34867,4.77087 -17.00075,8.60735 -17.63937,7.35595z" fill="#ff9600" stroke="#000000" stroke-width="0" stroke-linecap="butt"/></g><g><path d="M266.73464,183.90264l-28.84146,24.46523c0,0 -16.61634,-38.43658 -21.35832,-57.45071c-4.39456,-17.62102 -6.13072,-52.77308 -6.13072,-52.77308l57.03681,22.30452z" fill="#f3ca58" stroke="#000000" stroke-width="0" stroke-linecap="round"/><path d="M279.14755,165.49915c0.73212,1.19909 -6.54167,5.71183 -15.49959,11.18125c-8.95791,5.46943 -17.83539,8.93151 -17.83539,8.93151c0,0 8.04264,-5.12486 17.00056,-10.59429c8.95792,-5.46943 15.60229,-10.71757 16.33441,-9.51848z" fill="#ff9600" stroke="#000000" stroke-width="0" stroke-linecap="butt"/><path d="M267.5966,154.79055c0.1518,1.3967 -8.35123,2.38232 -18.78543,3.51638c-10.43421,1.13405 -19.94081,0.48614 -19.94081,0.48614c0,0 9.45935,-1.21205 19.89355,-2.34612c10.43421,-1.13405 18.68091,-3.05312 18.8327,-1.65641z" fill="#ff9600" stroke="#000000" stroke-width="0" stroke-linecap="butt"/><g stroke="#000000" stroke-width="0" stroke-linecap="round"><g fill="#f2bc49"><path d="M212.59135,125.80119c-1.52977,-14.34597 -2.18721,-27.6571 -2.18721,-27.6571l57.03681,22.30452c0,0 -0.02523,2.26734 -0.05252,4.71814c-0.0006,0.05428 -54.7642,0.94292 -54.79708,0.63443z"/></g><g fill="#ffc72e"><path d="M212.07679,120.69029c-1.16386,-12.24494 -1.67264,-22.5462 -1.67264,-22.5462l57.03681,22.30452c0,0 -55.36175,0.26719 -55.36418,0.24168z"/></g><g fill="#ff9600"><path d="M211.17722,109.19798c-0.10496,-1.48498 -0.39645,-2.96734 -0.49287,-4.34372c-0.26297,-3.75388 -0.28021,-6.71014 -0.28021,-6.71014c0,0 19.91685,7.78858 29.59568,11.57352c0.18233,0.0713 -28.82168,-0.50678 -28.8226,-0.51965z"/></g></g><path d="M211.8011,109.30998c-0.00748,-0.96647 0.76994,-1.75601 1.73641,-1.76349c0.96647,-0.00748 1.75601,0.76994 1.76349,1.73641c0.00748,0.96647 -0.76994,1.75601 -1.73641,1.76349c-0.96647,0.00748 -1.75601,-0.76994 -1.76349,-1.73641z" fill="#ff9600" stroke="none" stroke-width="0.5" stroke-linecap="butt"/><path d="M215.55258,110.21708c-0.00748,-0.96647 0.76994,-1.75601 1.73641,-1.76349c0.78816,-0.0061 1.45865,0.50981 1.68329,1.22454c0.30023,-0.51883 0.85941,-0.86977 1.50221,-0.87473c0.2317,-0.0018 0.45321,0.04153 0.65622,0.12174c0.20175,-0.08334 0.42257,-0.13008 0.65426,-0.13188c0.96647,-0.00748 1.75601,0.76994 1.76349,1.73641c0.00748,0.96647 -0.76994,1.75601 -1.73641,1.76349c-0.2317,0.0018 -0.45321,-0.04153 -0.65622,-0.12174c-0.20175,0.08334 -0.42257,0.13008 -0.65426,0.13188c-0.78816,0.0061 -1.45865,-0.5098 -1.68329,-1.22453c-0.30023,0.51883 -0.85941,0.86976 -1.50221,0.87472c-0.96647,0.00748 -1.75601,-0.76994 -1.76349,-1.73641z" fill="#ff9600" stroke="none" stroke-width="0.5" stroke-linecap="butt"/><path d="M223.59833,109.59318c-0.00748,-0.96647 0.76994,-1.75601 1.73641,-1.76349c0.96647,-0.00748 1.75601,0.76994 1.76349,1.73641c0.00748,0.96647 -0.76994,1.75601 -1.73641,1.76349c-0.96647,0.00748 -1.75601,-0.76994 -1.76349,-1.73641z" fill="#ff9600" stroke="none" stroke-width="0.5" stroke-linecap="butt"/><path d="M232.60495,111.58297c0.00534,0.69033 -0.54996,1.25429 -1.2403,1.25963c-0.68682,0.00531 -1.24853,-0.54431 -1.25951,-1.22975c-0.1388,0.03665 -0.2844,0.05669 -0.43457,0.05786c-0.96647,0.00748 -1.75601,-0.76994 -1.76349,-1.73641c-0.00748,-0.96647 0.76994,-1.75601 1.73641,-1.76349c0.96647,-0.00748 1.75601,0.76994 1.76349,1.73641c0.00116,0.15017 -0.01663,0.29605 -0.05112,0.43541c0.68552,0.00037 1.24376,0.55352 1.24907,1.24033z" fill="#ff9600" stroke="none" stroke-width="0.5" stroke-linecap="butt"/><path d="M232.77459,109.89664c-0.00748,-0.96647 0.76994,-1.75601 1.73641,-1.76349c0.96647,-0.00748 1.75601,0.76994 1.76349,1.73641c0.00748,0.96647 -0.76994,1.75601 -1.73641,1.76349c-0.96647,0.00748 -1.75601,-0.76994 -1.76349,-1.73641z" fill="#ff9600" stroke="none" stroke-width="0.5" stroke-linecap="butt"/><path d="M213.2777,114.54081c-0.00534,-0.69033 0.54996,-1.25429 1.2403,-1.25963c0.69034,-0.00534 1.25429,0.54997 1.25963,1.2403c0.00534,0.69033 -0.54996,1.25429 -1.2403,1.25963c-0.69034,0.00534 -1.25429,-0.54997 -1.25963,-1.2403z" fill="#ff9600" stroke="none" stroke-width="0.5" stroke-linecap="butt"/><path d="M220.22046,116.54656c-0.00534,-0.69033 0.54996,-1.25429 1.2403,-1.25963c0.69034,-0.00534 1.25429,0.54997 1.25963,1.2403c0.00534,0.69033 -0.54996,1.25429 -1.2403,1.25963c-0.69034,0.00534 -1.25429,-0.54997 -1.25963,-1.2403z" fill="#ff9600" stroke="none" stroke-width="0.5" stroke-linecap="butt"/><path d="M224.12294,112.7719c-0.00534,-0.69033 0.54996,-1.25429 1.2403,-1.25963c0.69034,-0.00534 1.25429,0.54997 1.25963,1.2403c0.00534,0.69033 -0.54996,1.25429 -1.2403,1.25963c-0.69034,0.00534 -1.25429,-0.54997 -1.25963,-1.2403z" fill="#ff9600" stroke="none" stroke-width="0.5" stroke-linecap="butt"/><path d="M239.46415,111.34268c-0.00534,-0.69034 0.54996,-1.25429 1.2403,-1.25963c0.69034,-0.00534 1.25429,0.54996 1.25963,1.2403c0.00534,0.69034 -0.54996,1.25429 -1.2403,1.25963c-0.69034,0.00534 -1.25429,-0.54996 -1.25963,-1.2403z" fill="#ff9600" stroke="none" stroke-width="0.5" stroke-linecap="butt"/><path d="M243.60597,114.3062c-0.00534,-0.69034 0.54996,-1.25429 1.2403,-1.25963c0.69034,-0.00534 1.25429,0.54996 1.25963,1.2403c0.00534,0.69034 -0.54996,1.25429 -1.2403,1.25963c-0.69034,0.00534 -1.25429,-0.54996 -1.25963,-1.2403z" fill="#ff9600" stroke="none" stroke-width="0.5" stroke-linecap="butt"/><path d="M212.5224,121.09945c-0.00748,-0.96647 0.76994,-1.75601 1.73641,-1.76349c0.96647,-0.00748 1.75601,0.76994 1.76349,1.73641c0.00748,0.96647 -0.76994,1.75601 -1.73641,1.76349c-0.96647,0.00748 -1.75601,-0.76994 -1.76349,-1.73641z" fill="#ffc72e" stroke="none" stroke-width="0.5" stroke-linecap="butt"/><path d="M217.75709,120.12284c-0.00748,-0.96647 0.76994,-1.75601 1.73641,-1.76349c0.96647,-0.00748 1.75601,0.76994 1.76349,1.73641c0.00748,0.96647 -0.76994,1.75601 -1.73641,1.76349c-0.96647,0.00748 -1.75601,-0.76994 -1.76349,-1.73641z" fill="#ffc72e" stroke="none" stroke-width="0.5" stroke-linecap="butt"/><path d="M228.67267,119.03724c0.96647,-0.00748 1.75601,0.76994 1.76349,1.73641c0.00748,0.96647 -0.76994,1.75601 -1.73641,1.76349c-0.22923,0.00177 -0.4485,-0.04062 -0.64975,-0.11919c-0.31312,0.31093 -0.74335,0.50442 -1.21948,0.5081c-0.00858,0.00006 -0.01714,0.00007 -0.02569,0.00002c-0.317,0.34799 -0.77262,0.56783 -1.28044,0.57176c-0.96647,0.00748 -1.75601,-0.76994 -1.76349,-1.73641c-0.00748,-0.96647 0.76994,-1.75601 1.73641,-1.76349c0.00858,-0.00006 0.01714,-0.00007 0.02569,-0.00002c0.317,-0.34799 0.77262,-0.56783 1.28044,-0.57176c0.22923,-0.00177 0.4485,0.04062 0.64975,0.11919c0.31312,-0.31093 0.74335,-0.50442 1.21948,-0.5081z" fill="#ffc72e" stroke="none" stroke-width="0.5" stroke-linecap="butt"/><path d="M236.89494,122.35567c-0.00178,-0.23045 0.05891,-0.44681 0.16624,-0.63302c-0.59491,-0.01453 -1.11716,-0.32642 -1.42235,-0.79354c-0.31806,0.38068 -0.79507,0.62439 -1.32999,0.62853c-0.96647,0.00748 -1.75601,-0.76994 -1.76349,-1.73641c-0.00748,-0.96647 0.76994,-1.75601 1.73641,-1.76349c0.61858,-0.00478 1.16468,0.31196 1.47964,0.79402c0.31806,-0.38068 0.79507,-0.62439 1.32999,-0.62853c0.96647,-0.00748 1.75601,0.76994 1.76349,1.73641c0.00345,0.44669 -0.16076,0.85558 -0.43381,1.16695c0.55372,0.1249 0.96923,0.61766 0.97381,1.20974c0.00534,0.69034 -0.54996,1.25429 -1.2403,1.25963c-0.69034,0.00534 -1.25429,-0.54996 -1.25963,-1.2403z" fill="#ffc72e" stroke="none" stroke-width="0.5" stroke-linecap="butt"/><path d="M239.66085,119.95341c-0.00748,-0.96647 0.76994,-1.75601 1.73641,-1.76349c0.96647,-0.00748 1.75601,0.76994 1.76349,1.73641c0.00748,0.96647 -0.76994,1.75601 -1.73641,1.76349c-0.96647,0.00748 -1.75601,-0.76994 -1.76349,-1.73641z" fill="#ffc72e" stroke="none" stroke-width="0.5" stroke-linecap="butt"/><path d="M252.2364,121.70171c0.00534,0.69034 -0.54996,1.25429 -1.2403,1.25963c-0.60338,0.00466 -1.11023,-0.41898 -1.23188,-0.98672c-0.13578,-0.07264 -0.2609,-0.16268 -0.37236,-0.26715c-0.26663,0.61695 -0.87835,1.05085 -1.59364,1.05639c-0.96647,0.00748 -1.75601,-0.76994 -1.76349,-1.73641c-0.00748,-0.96647 0.76994,-1.75601 1.73641,-1.76349c0.46769,-0.00362 0.89394,0.17656 1.21019,0.47302c0.26663,-0.61695 0.87835,-1.05085 1.59364,-1.05639c0.56511,-0.00437 1.06971,0.2596 1.39287,0.6728c0.26339,-0.62439 0.87894,-1.06482 1.59962,-1.07039c0.635,-0.00491 1.19362,0.32901 1.50422,0.83275c0.30278,-0.50849 0.85616,-0.85101 1.49116,-0.85592c0.72068,-0.00557 1.34298,0.42528 1.61599,1.04552c0.31672,-0.41815 0.81719,-0.6899 1.38229,-0.69427c0.96647,-0.00748 1.75601,0.76994 1.76349,1.73641c0.00748,0.96647 -0.76994,1.75601 -1.73641,1.76349c-0.72068,0.00557 -1.34298,-0.42528 -1.61599,-1.04552c-0.31672,0.41815 -0.81719,0.6899 -1.38229,0.69427c-0.635,0.00491 -1.19362,-0.32901 -1.50422,-0.83275c-0.30278,0.50849 -0.85616,0.85101 -1.49116,0.85592c-0.56511,0.00437 -1.06971,-0.2596 -1.39287,-0.6728c-0.01803,0.04273 -0.03771,0.0846 -0.05895,0.12554c0.0592,0.14377 0.0924,0.30106 0.09368,0.46608z" fill="#ffc72e" stroke="none" stroke-width="0.5" stroke-linecap="butt"/><path d="M212.74727,125.96549c-0.00748,-0.96647 0.76994,-1.75601 1.73641,-1.76349c0.96647,-0.00748 1.75601,0.76994 1.76349,1.73641c0.00748,0.96647 -0.76994,1.75601 -1.73641,1.76349c-0.96647,0.00748 -1.75601,-0.76994 -1.76349,-1.73641z" fill="#f2bc49" stroke="none" stroke-width="0.5" stroke-linecap="butt"/><path d="M222.914,124.88569c0.96647,-0.00748 1.75601,0.76994 1.76349,1.73641c0.00748,0.96647 -0.76994,1.75601 -1.73641,1.76349c-0.34429,0.00266 -0.66612,-0.09428 -0.93816,-0.2639c-0.26937,0.1738 -0.58967,0.27571 -0.93397,0.27838c-0.81976,0.00634 -1.51221,-0.55199 -1.70813,-1.31141c-0.31745,0.35607 -0.77846,0.58176 -1.29304,0.58574c-0.96647,0.00748 -1.75601,-0.76994 -1.76349,-1.73641c-0.00748,-0.96647 0.76994,-1.75601 1.73641,-1.76349c0.81976,-0.00634 1.51221,0.55199 1.70813,1.31141c0.31745,-0.35607 0.77846,-0.58176 1.29304,-0.58574c0.34429,-0.00266 0.66612,0.09428 0.93816,0.2639c0.26937,-0.1738 0.58967,-0.27571 0.93397,-0.27838z" fill="#f2bc49" stroke="none" stroke-width="0.5" stroke-linecap="butt"/><path d="M225.66777,126.24c-0.00748,-0.96647 0.76994,-1.75601 1.73641,-1.76349c0.96647,-0.00748 1.75601,0.76994 1.76349,1.73641c0.00748,0.96647 -0.76994,1.75601 -1.73641,1.76349c-0.96647,0.00748 -1.75601,-0.76994 -1.76349,-1.73641z" fill="#f2bc49" stroke="none" stroke-width="0.5" stroke-linecap="butt"/><path d="M233.39495,124.43018c0.96647,-0.00748 1.75601,0.76994 1.76349,1.73641c0.00748,0.96647 -0.76994,1.75601 -1.73641,1.76349c-0.54509,0.00422 -1.0339,-0.24123 -1.35787,-0.62948c-0.16365,0.05217 -0.33782,0.08092 -0.5186,0.08232c-0.96647,0.00748 -1.75601,-0.76994 -1.76349,-1.73641c-0.00748,-0.96647 0.76994,-1.75601 1.73641,-1.76349c0.54509,-0.00422 1.0339,0.24123 1.35787,0.62948c0.16365,-0.05217 0.33782,-0.08092 0.5186,-0.08232z" fill="#f2bc49" stroke="none" stroke-width="0.5" stroke-linecap="butt"/><path d="M238.62002,128.40977c-0.42478,0.00328 -0.80171,-0.20569 -1.03009,-0.5278c-0.07729,0.01105 -0.15623,0.01707 -0.23647,0.01769c-0.96647,0.00748 -1.75601,-0.76994 -1.76349,-1.73641c-0.00748,-0.96647 0.76994,-1.75601 1.73641,-1.76349c0.46769,-0.00362 0.89394,0.17656 1.21019,0.47302c0.26663,-0.61695 0.87835,-1.05085 1.59364,-1.05639c0.47849,-0.0037 0.91363,0.185 1.23195,0.49378c0.31642,-0.42211 0.81932,-0.69687 1.38756,-0.70127c0.56825,-0.00439 1.07532,0.26254 1.39825,0.67971c0.3135,-0.31367 0.74566,-0.50907 1.22416,-0.51278c0.96647,-0.00748 1.75601,0.76994 1.76349,1.73641c0.00748,0.96647 -0.76994,1.75601 -1.73641,1.76349c-0.56825,0.00439 -1.07532,-0.26254 -1.39825,-0.67971c-0.3135,0.31367 -0.74566,0.50907 -1.22416,0.51278c-0.47849,0.0037 -0.91363,-0.185 -1.23195,-0.49378c-0.31642,0.42211 -0.81932,0.69687 -1.38756,0.70127c-0.10358,0.00081 -0.20511,-0.00742 -0.30389,-0.02391c-0.06577,0.62392 -0.59114,1.1124 -1.23339,1.11737z" fill="#f2bc49" stroke="none" stroke-width="0.5" stroke-linecap="butt"/><path d="M247.37563,124.94875c-0.00748,-0.96647 0.76994,-1.75601 1.73641,-1.76349c0.96647,-0.00748 1.75601,0.76994 1.76349,1.73641c0.00748,0.96647 -0.76994,1.75601 -1.73641,1.76349c-0.96647,0.00748 -1.75601,-0.76994 -1.76349,-1.73641z" fill="#f2bc49" stroke="none" stroke-width="0.5" stroke-linecap="butt"/><path d="M250.93843,125.67007c-0.00748,-0.96647 0.76994,-1.75601 1.73641,-1.76349c0.96647,-0.00748 1.75601,0.76994 1.76349,1.73641c0.00748,0.96647 -0.76994,1.75601 -1.73641,1.76349c-0.96647,0.00748 -1.75601,-0.76994 -1.76349,-1.73641z" fill="#f2bc49" stroke="none" stroke-width="0.5" stroke-linecap="butt"/><path d="M217.31441,123.68471c-0.00534,-0.69034 0.54996,-1.25429 1.2403,-1.25963c0.69034,-0.00534 1.25429,0.54996 1.25963,1.2403c0.00534,0.69034 -0.54996,1.25429 -1.2403,1.25963c-0.69034,0.00534 -1.25429,-0.54996 -1.25963,-1.2403z" fill="#ffc72e" stroke="none" stroke-width="0.5" stroke-linecap="butt"/><path d="M230.46796,121.8701c-0.00534,-0.69034 0.54996,-1.25429 1.2403,-1.25963c0.69034,-0.00534 1.25429,0.54996 1.25963,1.2403c0.00534,0.69034 -0.54996,1.25429 -1.2403,1.25963c-0.69034,0.00534 -1.25429,-0.54996 -1.25963,-1.2403z" fill="#ffc72e" stroke="none" stroke-width="0.5" stroke-linecap="butt"/><path d="M243.32192,122.84121c-0.00534,-0.69034 0.54996,-1.25429 1.2403,-1.25963c0.69034,-0.00534 1.25429,0.54996 1.25963,1.2403c0.00534,0.69034 -0.54996,1.25429 -1.2403,1.25963c-0.69034,0.00534 -1.25429,-0.54996 -1.25963,-1.2403z" fill="#ffc72e" stroke="none" stroke-width="0.5" stroke-linecap="butt"/><path d="M217.16241,131.71491c-0.00534,-0.69034 0.54996,-1.25429 1.2403,-1.25963c0.69034,-0.00534 1.25429,0.54996 1.25963,1.2403c0.00534,0.69034 -0.54996,1.25429 -1.2403,1.25963c-0.69034,0.00534 -1.25429,-0.54996 -1.25963,-1.2403z" fill="#f2bc49" stroke="none" stroke-width="0.5" stroke-linecap="butt"/><path d="M222.19777,132.21122c-0.00534,-0.69034 0.54996,-1.25429 1.2403,-1.25963c0.69034,-0.00534 1.25429,0.54996 1.25963,1.2403c0.00534,0.69034 -0.54996,1.25429 -1.2403,1.25963c-0.69034,0.00534 -1.25429,-0.54996 -1.25963,-1.2403z" fill="#f2bc49" stroke="none" stroke-width="0.5" stroke-linecap="butt"/><path d="M226.47801,131.96402c-0.00534,-0.69034 0.54996,-1.25429 1.2403,-1.25963c0.69034,-0.00534 1.25429,0.54996 1.25963,1.2403c0.00534,0.69034 -0.54996,1.25429 -1.2403,1.25963c-0.69034,0.00534 -1.25429,-0.54996 -1.25963,-1.2403z" fill="#f2bc49" stroke="none" stroke-width="0.5" stroke-linecap="butt"/><path d="M236.09736,129.96264c-0.00534,-0.69034 0.54996,-1.25429 1.2403,-1.25963c0.69034,-0.00534 1.25429,0.54996 1.25963,1.2403c0.00534,0.69034 -0.54996,1.25429 -1.2403,1.25963c-0.69034,0.00534 -1.25429,-0.54996 -1.25963,-1.2403z" fill="#f2bc49" stroke="none" stroke-width="0.5" stroke-linecap="butt"/><path d="M242.08123,128.52465c-0.00534,-0.69034 0.54996,-1.25429 1.2403,-1.25963c0.69034,-0.00534 1.25429,0.54996 1.25963,1.2403c0.00534,0.69034 -0.54996,1.25429 -1.2403,1.25963c-0.69034,0.00534 -1.25429,-0.54996 -1.25963,-1.2403z" fill="#f2bc49" stroke="none" stroke-width="0.5" stroke-linecap="butt"/><path d="M246.26767,129.99102c-0.00534,-0.69034 0.54996,-1.25429 1.2403,-1.25963c0.69034,-0.00534 1.25429,0.54996 1.25963,1.2403c0.00534,0.69034 -0.54996,1.25429 -1.2403,1.25963c-0.69034,0.00534 -1.25429,-0.54996 -1.25963,-1.2403z" fill="#f2bc49" stroke="none" stroke-width="0.5" stroke-linecap="butt"/><path d="M249.15546,129.64752c-0.00534,-0.69034 0.54996,-1.25429 1.2403,-1.25963c0.69034,-0.00534 1.25429,0.54996 1.25963,1.2403c0.00534,0.69034 -0.54996,1.25429 -1.2403,1.25963c-0.69034,0.00534 -1.25429,-0.54996 -1.25963,-1.2403z" fill="#f2bc49" stroke="none" stroke-width="0.5" stroke-linecap="butt"/><path d="M219.72278,135.12083c-0.00321,-0.4142 0.32998,-0.75257 0.74418,-0.75578c0.4142,-0.00321 0.75257,0.32998 0.75578,0.74418c0.00321,0.4142 -0.32998,0.75257 -0.74418,0.75578c-0.4142,0.00321 -0.75257,-0.32998 -0.75578,-0.74418z" fill="#f2bc49" stroke="none" stroke-width="0.5" stroke-linecap="butt"/><path d="M228.19111,136.55406c-0.00321,-0.4142 0.32998,-0.75257 0.74418,-0.75578c0.4142,-0.00321 0.75257,0.32998 0.75578,0.74418c0.00321,0.4142 -0.32998,0.75257 -0.74418,0.75578c-0.4142,0.00321 -0.75257,-0.32998 -0.75578,-0.74418z" fill="#f2bc49" stroke="none" stroke-width="0.5" stroke-linecap="butt"/><path d="M241.68818,137.62724c-0.00321,-0.4142 0.32998,-0.75257 0.74418,-0.75578c0.4142,-0.00321 0.75257,0.32998 0.75578,0.74418c0.00321,0.4142 -0.32998,0.75257 -0.74418,0.75578c-0.4142,0.00321 -0.75257,-0.32998 -0.75578,-0.74418z" fill="#f2bc49" stroke="none" stroke-width="0.5" stroke-linecap="butt"/><path d="M221.25149,125.15301c-0.00321,-0.4142 0.32998,-0.75257 0.74418,-0.75578c0.4142,-0.00321 0.75257,0.32998 0.75578,0.74418c0.00321,0.4142 -0.32998,0.75257 -0.74418,0.75578c-0.4142,0.00321 -0.75257,-0.32998 -0.75578,-0.74418z" fill="#ffc72e" stroke="none" stroke-width="0.5" stroke-linecap="butt"/><path d="M237.73594,124.91845c-0.00321,-0.4142 0.32998,-0.75257 0.74418,-0.75578c0.4142,-0.00321 0.75257,0.32998 0.75578,0.74418c0.00321,0.4142 -0.32998,0.75257 -0.74418,0.75578c-0.4142,0.00321 -0.75257,-0.32998 -0.75578,-0.74418z" fill="#ffc72e" stroke="none" stroke-width="0.5" stroke-linecap="butt"/><path d="M252.07035,123.52292c-0.00321,-0.4142 0.32998,-0.75257 0.74418,-0.75578c0.4142,-0.00321 0.75257,0.32998 0.75578,0.74418c0.00321,0.4142 -0.32998,0.75257 -0.74418,0.75578c-0.4142,0.00321 -0.75257,-0.32998 -0.75578,-0.74418z" fill="#ffc72e" stroke="none" stroke-width="0.5" stroke-linecap="butt"/><path d="M277.11076,140.1919c-0.61918,1.26113 -8.3297,-2.45651 -17.75105,-7.0822c-9.42135,-4.62568 -17.10549,-10.26034 -17.10549,-10.26034c0,0 8.63956,4.0381 18.0609,8.6638c9.42135,4.62568 17.41483,7.41762 16.79565,8.67875z" fill="#ff9600" stroke="#000000" stroke-width="0" stroke-linecap="butt"/></g><g><path d="M255.12454,152.11063c-0.25759,-33.30086 28.29263,-60.51898 63.76869,-60.7934c35.47607,-0.27442 64.44392,26.4988 64.70151,59.79965c0.25759,33.30086 -28.29262,60.51899 -63.76869,60.79341c-35.47606,0.27442 -64.44392,-26.49881 -64.70151,-59.79966z" fill="url(#color-2)" stroke="#000000" stroke-width="0" stroke-linecap="butt"/><path d="M261.57432,125.29898c10.34949,-19.95587 32.08171,-33.78653 57.31891,-33.98175c25.3442,-0.19604 47.36678,13.41223 57.97267,33.34306c0.02947,0.05537 -115.32745,0.70787 -115.29159,0.6387z" fill="#f2bc49" stroke="#000000" stroke-width="0" stroke-linecap="butt"/><path d="M264.0832,120.68451c11.42301,-16.10766 32.65442,-29.19589 54.81002,-29.36727c22.66246,-0.1753 43.88002,12.47329 55.44303,29.02383c0.13587,0.19448 -110.56587,0.78455 -110.25305,0.34344z" fill="#ffc72e" stroke="#000000" stroke-width="0" stroke-linecap="butt"/><path d="M271.55292,111.42125c11.67532,-12.67385 28.09783,-19.95516 47.34031,-20.10401c19.79448,-0.15311 36.13136,6.54852 48.01674,19.67218c0.0504,0.05564 -95.46717,0.55134 -95.35706,0.43182z" fill="#ff9600" stroke="#000000" stroke-width="0" stroke-linecap="butt"/><path d="M268.45408,152.28313c-0.1003,-12.96762 10.33071,-23.56127 23.29834,-23.66157c12.96762,-0.1003 23.56127,10.3307 23.66157,23.29833c0.1003,12.96762 -10.3307,23.56128 -23.29833,23.66158c-12.96762,0.1003 -23.56128,-10.33071 -23.66158,-23.29834z" fill="url(#color-3)" stroke="#000000" stroke-width="0" stroke-linecap="butt"/><path d="M281.80465,151.26764c-0.03714,-4.80136 3.82502,-8.72374 8.62639,-8.76087c4.80136,-0.03714 8.72374,3.82503 8.76087,8.6264c0.03714,4.80136 -3.82503,8.72375 -8.62639,8.76088c-4.80136,0.03714 -8.72374,-3.82503 -8.76087,-8.6264z" fill="#000000" stroke="#000000" stroke-width="0" stroke-linecap="butt"/><path d="M346.37253,175.16185c-12.96762,0.1003 -23.56127,-10.33071 -23.66157,-23.29834c-0.1003,-12.96762 10.3307,-23.56127 23.29833,-23.66157c12.96762,-0.1003 23.56128,10.3307 23.66158,23.29833c0.1003,12.96762 -10.33071,23.56128 -23.29834,23.66158z" fill="url(#color-4)" stroke="#000000" stroke-width="0" stroke-linecap="butt"/><path d="M353.23032,152.15458c-0.27423,4.27534 -3.5886,7.14327 -7.94239,7.12283c-4.35379,-0.02045 -7.38304,-3.04636 -7.11704,-7.19355c0.26602,-4.1472 3.4063,-8.45689 8.11948,-8.43476c4.71318,0.02214 7.21417,4.23015 6.93994,8.50549z" fill="#000000" stroke="#000000" stroke-width="0" stroke-linecap="butt"/><path d="M288.93773,81.19314c0,0 10.06375,-39.5075 28.14581,-24.1739c1.37571,1.16662 2.56251,2.37955 3.58114,3.62503c12.36997,15.12462 -0.05714,35.04616 -0.05714,35.04616" fill="none" stroke="#ff9600" stroke-width="6" stroke-linecap="round"/><path d="M301.96998,94.00213c0.75016,6.06001 -3.86137,11.61876 -10.30012,12.4158c-6.43876,0.79705 -12.26654,-3.46943 -13.01669,-9.52944c-0.75016,-6.06001 3.29021,-15.44552 9.72898,-16.24257c6.43876,-0.79705 12.83768,7.2962 13.58784,13.35622z" fill="#ffffff" stroke="#000000" stroke-width="0" stroke-linecap="butt"/><path d="M261.68537,161.23117c3.88905,-2.28842 8.56258,0.44902 12.69753,1.05063c4.61586,0.67157 10.47665,1.58066 15.10087,0.70504c1.92713,-0.36491 3.36839,-1.47034 5.4084,-1.53451c5.36559,-1.22385 12.74954,-1.26231 18.10748,-0.18397c1.94162,0.39078 3.77701,1.41953 5.73428,1.78952c5.94684,1.12417 13.19072,-0.79988 18.97189,-2.1144c9.42261,-1.27226 19.87609,-2.33259 29.13795,0.04545c2.38508,0.61239 4.68988,1.37594 6.98813,2.26646c1.02543,0.39733 2.63072,0.12507 3.10481,1.11735c0.86131,1.80277 -3.69056,4.42589 -4.53204,5.18075c-3.72791,2.31397 -7.43205,4.73367 -11.23383,6.91684c-1.43715,0.82528 -3.63766,2.55063 -5.33768,2.92291c-7.81751,1.7119 -16.21633,-0.3369 -23.97095,-1.56881c-11.89982,-1.87328 -24.14109,0.37422 -35.85492,2.35255c-2.09321,0.35351 -3.87154,1.32743 -6.00353,1.52863c-5.67999,0.03822 -9.51569,-2.2856 -14.78788,-4.24411c-3.85449,-1.43187 -7.80466,-2.89374 -11.16074,-5.33161c-2.57013,-1.86695 -5.47366,-3.83305 -5.88058,-7.21909c0.30466,-1.55679 1.90148,-2.53112 3.29387,-3.58421c0.13369,-0.04686 0.21694,-0.09538 0.21694,-0.09538z" fill-opacity="0.41176" fill="#6ee8ff" stroke="none" stroke-width="0.5" stroke-linecap="butt"/><path d="M379.84723,126.69626l0.31892,41.22981l-24.76207,14.93382l-36.19631,-4.09661l-34.74125,5.33638l-25.6829,-14.77395l-0.32249,-41.69048z" fill-opacity="0.08235" fill="#00ffff" stroke="#f1da3e" stroke-width="7.5" stroke-linecap="round"/><path d="M271.25726,112.42929c-0.00748,-0.96647 0.76994,-1.75601 1.73641,-1.76349c0.96647,-0.00748 1.75601,0.76994 1.76349,1.73641c0.00748,0.96647 -0.76994,1.75601 -1.73641,1.76349c-0.96647,0.00748 -1.75601,-0.76994 -1.76349,-1.73641z" fill="#ff9600" stroke="none" stroke-width="0.5" stroke-linecap="butt"/><path d="M281.03463,110.44591c0.96647,-0.00748 1.75601,0.76994 1.76349,1.73641c0.00748,0.96647 -0.76994,1.75601 -1.73641,1.76349c-0.76769,0.00594 -1.42374,-0.48334 -1.66488,-1.16924c-0.2305,0.68954 -0.87891,1.18891 -1.64659,1.19486c-0.96647,0.00748 -1.75601,-0.76994 -1.76349,-1.73641c-0.00748,-0.96647 0.76994,-1.75601 1.73641,-1.76349c0.76769,-0.00594 1.42374,0.48334 1.66488,1.16924c0.2305,-0.68954 0.87891,-1.18891 1.64659,-1.19486z" fill="#ff9600" stroke="none" stroke-width="0.5" stroke-linecap="butt"/><path d="M286.22923,111.20957c-0.00748,-0.96647 0.76994,-1.75601 1.73641,-1.76349c0.96647,-0.00748 1.75601,0.76994 1.76349,1.73641c0.00748,0.96647 -0.76994,1.75601 -1.73641,1.76349c-0.96647,0.00748 -1.75601,-0.76994 -1.76349,-1.73641z" fill="#ff9600" stroke="none" stroke-width="0.5" stroke-linecap="butt"/><path d="M293.32404,110.997c-0.00748,-0.96647 0.76994,-1.75601 1.73641,-1.76349c0.96647,-0.00748 1.75601,0.76994 1.76349,1.73641c0.00748,0.96647 -0.76994,1.75601 -1.73641,1.76349c-0.96647,0.00748 -1.75601,-0.76994 -1.76349,-1.73641z" fill="#ff9600" stroke="none" stroke-width="0.5" stroke-linecap="butt"/><path d="M300.26603,111.4164c-0.00748,-0.96647 0.76994,-1.75601 1.73641,-1.76349c0.96647,-0.00748 1.75601,0.76994 1.76349,1.73641c0.00748,0.96647 -0.76994,1.75601 -1.73641,1.76349c-0.96647,0.00748 -1.75601,-0.76994 -1.76349,-1.73641z" fill="#ff9600" stroke="none" stroke-width="0.5" stroke-linecap="butt"/><path d="M307.20558,111.52041c-0.00748,-0.96647 0.76994,-1.75601 1.73641,-1.76349c0.96647,-0.00748 1.75601,0.76994 1.76349,1.73641c0.00748,0.96647 -0.76994,1.75601 -1.73641,1.76349c-0.96647,0.00748 -1.75601,-0.76994 -1.76349,-1.73641z" fill="#ff9600" stroke="none" stroke-width="0.5" stroke-linecap="butt"/><path d="M310.82878,111.01929c-0.00748,-0.96647 0.76994,-1.75601 1.73641,-1.76349c0.96647,-0.00748 1.75601,0.76994 1.76349,1.73641c0.00748,0.96647 -0.76994,1.75601 -1.73641,1.76349c-0.96647,0.00748 -1.75601,-0.76994 -1.76349,-1.73641z" fill="#ff9600" stroke="none" stroke-width="0.5" stroke-linecap="butt"/><path d="M315.71593,110.82379c-0.00748,-0.96647 0.76994,-1.75601 1.73641,-1.76349c0.96647,-0.00748 1.75601,0.76994 1.76349,1.73641c0.00748,0.96647 -0.76994,1.75601 -1.73641,1.76349c-0.96647,0.00748 -1.75601,-0.76994 -1.76349,-1.73641z" fill="#ff9600" stroke="none" stroke-width="0.5" stroke-linecap="butt"/><path d="M322.81196,110.76891c-0.00748,-0.96647 0.76994,-1.75601 1.73641,-1.76349c0.96647,-0.00748 1.75601,0.76994 1.76349,1.73641c0.00748,0.96647 -0.76994,1.75601 -1.73641,1.76349c-0.96647,0.00748 -1.75601,-0.76994 -1.76349,-1.73641z" fill="#ff9600" stroke="none" stroke-width="0.5" stroke-linecap="butt"/><path d="M327.38618,110.89122c-0.00748,-0.96647 0.76994,-1.75601 1.73641,-1.76349c0.96647,-0.00748 1.75601,0.76994 1.76349,1.73641c0.00748,0.96647 -0.76994,1.75601 -1.73641,1.76349c-0.96647,0.00748 -1.75601,-0.76994 -1.76349,-1.73641z" fill="#ff9600" stroke="none" stroke-width="0.5" stroke-linecap="butt"/><path d="M330.86144,111.65283c-0.00748,-0.96647 0.76994,-1.75601 1.73641,-1.76349c0.96647,-0.00748 1.75601,0.76994 1.76349,1.73641c0.00748,0.96647 -0.76994,1.75601 -1.73641,1.76349c-0.96647,0.00748 -1.75601,-0.76994 -1.76349,-1.73641z" fill="#ff9600" stroke="none" stroke-width="0.5" stroke-linecap="butt"/><path d="M344.42823,110.27094c0.96647,-0.00748 1.75601,0.76994 1.76349,1.73641c0.00748,0.96647 -0.76994,1.75601 -1.73641,1.76349c-0.5841,0.00451 -1.10356,-0.27764 -1.42482,-0.71495c-0.31447,0.44222 -0.8295,0.73239 -1.41359,0.7369c-0.40209,0.00311 -0.77354,-0.12964 -1.07081,-0.35533c-0.24461,0.1333 -0.52466,0.20997 -0.82268,0.21228c-0.96647,0.00748 -1.75601,-0.76994 -1.76349,-1.73641c-0.00748,-0.96647 0.76994,-1.75601 1.73641,-1.76349c0.40209,-0.00311 0.77354,0.12963 1.07081,0.35533c0.24461,-0.1333 0.52466,-0.20996 0.82268,-0.21227c0.5841,-0.00451 1.10355,0.27763 1.42481,0.71494c0.31447,-0.44222 0.82951,-0.73238 1.41359,-0.73689z" fill="#ff9600" stroke="none" stroke-width="0.5" stroke-linecap="butt"/><path d="M354.20252,109.87993c0.96647,-0.00748 1.75601,0.76994 1.76349,1.73641c0.00748,0.96647 -0.76994,1.75601 -1.73641,1.76349c-0.22237,0.00172 -0.43538,-0.03812 -0.63167,-0.11225c-0.19511,0.07715 -0.40747,0.12029 -0.62984,0.12201c-0.96647,0.00748 -1.75601,-0.76994 -1.76349,-1.73641c-0.00748,-0.96647 0.76994,-1.75601 1.73641,-1.76349c0.22237,-0.00172 0.43538,0.03812 0.63166,0.11225c0.19511,-0.07715 0.40747,-0.12029 0.62985,-0.12201z" fill="#ff9600" stroke="none" stroke-width="0.5" stroke-linecap="butt"/><path d="M357.66987,111.60316c-0.00748,-0.96647 0.76994,-1.75601 1.73641,-1.76349c0.96647,-0.00748 1.75601,0.76994 1.76349,1.73641c0.00748,0.96647 -0.76994,1.75601 -1.73641,1.76349c-0.96647,0.00748 -1.75601,-0.76994 -1.76349,-1.73641z" fill="#ff9600" stroke="none" stroke-width="0.5" stroke-linecap="butt"/><path d="M361.13537,111.10325c-0.00748,-0.96647 0.76994,-1.75601 1.73641,-1.76349c0.96647,-0.00748 1.75601,0.76994 1.76349,1.73641c0.00748,0.96647 -0.76994,1.75601 -1.73641,1.76349c-0.96647,0.00748 -1.75601,-0.76994 -1.76349,-1.73641z" fill="#ff9600" stroke="none" stroke-width="0.5" stroke-linecap="butt"/><path d="M370.44175,120.81758c-0.00748,-0.96647 0.76994,-1.75601 1.73641,-1.76349c0.96647,-0.00748 1.75601,0.76994 1.76349,1.73641c0.00748,0.96647 -0.76994,1.75601 -1.73641,1.76349c-0.96647,0.00748 -1.75601,-0.76994 -1.76349,-1.73641z" fill="#ffc72e" stroke="none" stroke-width="0.5" stroke-linecap="butt"/><path d="M360.0318,120.58271c-0.00748,-0.96647 0.76994,-1.75601 1.73641,-1.76349c0.76254,-0.0059 1.41496,0.47682 1.65999,1.1555c0.30164,-0.51322 0.85767,-0.85957 1.49623,-0.86451c0.96647,-0.00748 1.75601,0.76994 1.76349,1.73641c0.00748,0.96647 -0.76994,1.75601 -1.73641,1.76349c-0.76254,0.0059 -1.41496,-0.47682 -1.65999,-1.1555c-0.30164,0.51322 -0.85767,0.85957 -1.49623,0.86451c-0.96647,0.00748 -1.75601,-0.76994 -1.76349,-1.73641z" fill="#ffc72e" stroke="none" stroke-width="0.5" stroke-linecap="butt"/><path d="M351.51292,120.1755c-0.00748,-0.96647 0.76994,-1.75601 1.73641,-1.76349c0.08031,-0.00062 0.15939,0.00416 0.23689,0.01404c0.28642,-0.21065 0.63948,-0.33622 1.02218,-0.33919c0.96647,-0.00748 1.75601,0.76994 1.76349,1.73641c0.00748,0.96647 -0.76994,1.75601 -1.73641,1.76349c-0.08031,0.00062 -0.15939,-0.00417 -0.23689,-0.01404c-0.28642,0.21065 -0.63948,0.33623 -1.02218,0.3392c-0.96647,0.00748 -1.75601,-0.76994 -1.76349,-1.73641z" fill="#ffc72e" stroke="none" stroke-width="0.5" stroke-linecap="butt"/><path d="M345.83244,119.74635c-0.00748,-0.96647 0.76994,-1.75601 1.73641,-1.76349c0.96647,-0.00748 1.75601,0.76994 1.76349,1.73641c0.00748,0.96647 -0.76994,1.75601 -1.73641,1.76349c-0.96647,0.00748 -1.75601,-0.76994 -1.76349,-1.73641z" fill="#ffc72e" stroke="none" stroke-width="0.5" stroke-linecap="butt"/><path d="M336.52997,119.976c-0.00748,-0.96647 0.76994,-1.75601 1.73641,-1.76349c0.96647,-0.00748 1.75601,0.76994 1.76349,1.73641c0.00748,0.96647 -0.76994,1.75601 -1.73641,1.76349c-0.96647,0.00748 -1.75601,-0.76994 -1.76349,-1.73641z" fill="#ffc72e" stroke="none" stroke-width="0.5" stroke-linecap="butt"/><path d="M330.06349,119.86833c-0.00748,-0.96647 0.76994,-1.75601 1.73641,-1.76349c0.96647,-0.00748 1.75601,0.76994 1.76349,1.73641c0.00748,0.96647 -0.76994,1.75601 -1.73641,1.76349c-0.96647,0.00748 -1.75601,-0.76994 -1.76349,-1.73641z" fill="#ffc72e" stroke="none" stroke-width="0.5" stroke-linecap="butt"/><path d="M321.39667,120.72386c-0.00748,-0.96647 0.76994,-1.75601 1.73641,-1.76349c0.96647,-0.00748 1.75601,0.76994 1.76349,1.73641c0.00748,0.96647 -0.76994,1.75601 -1.73641,1.76349c-0.96647,0.00748 -1.75601,-0.76994 -1.76349,-1.73641z" fill="#ffc72e" stroke="none" stroke-width="0.5" stroke-linecap="butt"/><path d="M303.41031,119.6014c-0.00748,-0.96647 0.76994,-1.75601 1.73641,-1.76349c0.96647,-0.00748 1.75601,0.76994 1.76349,1.73641c0.00748,0.96647 -0.76994,1.75601 -1.73641,1.76349c-0.96647,0.00748 -1.75601,-0.76994 -1.76349,-1.73641z" fill="#ffc72e" stroke="none" stroke-width="0.5" stroke-linecap="butt"/><path d="M284.81149,120.84916c-0.00748,-0.96647 0.76994,-1.75601 1.73641,-1.76349c0.96647,-0.00748 1.75601,0.76994 1.76349,1.73641c0.00748,0.96647 -0.76994,1.75601 -1.73641,1.76349c-0.96647,0.00748 -1.75601,-0.76994 -1.76349,-1.73641z" fill="#ffc72e" stroke="none" stroke-width="0.5" stroke-linecap="butt"/><path d="M277.23875,120.43463c-0.00748,-0.96647 0.76994,-1.75601 1.73641,-1.76349c0.96647,-0.00748 1.75601,0.76994 1.76349,1.73641c0.00748,0.96647 -0.76994,1.75601 -1.73641,1.76349c-0.96647,0.00748 -1.75601,-0.76994 -1.76349,-1.73641z" fill="#ffc72e" stroke="none" stroke-width="0.5" stroke-linecap="butt"/><path d="M266.98894,120.51392c-0.00748,-0.96647 0.76994,-1.75601 1.73641,-1.76349c0.96647,-0.00748 1.75601,0.76994 1.76349,1.73641c0.00748,0.96647 -0.76994,1.75601 -1.73641,1.76349c-0.96647,0.00748 -1.75601,-0.76994 -1.76349,-1.73641z" fill="#ffc72e" stroke="none" stroke-width="0.5" stroke-linecap="butt"/><path d="M292.22412,120.94952c-0.00748,-0.96647 0.76994,-1.75601 1.73641,-1.76349c0.96647,-0.00748 1.75601,0.76994 1.76349,1.73641c0.00748,0.96647 -0.76994,1.75601 -1.73641,1.76349c-0.96647,0.00748 -1.75601,-0.76994 -1.76349,-1.73641z" fill="#ffc72e" stroke="none" stroke-width="0.5" stroke-linecap="butt"/><path d="M298.06352,121.53515c-0.00748,-0.96647 0.76994,-1.75601 1.73641,-1.76349c0.96647,-0.00748 1.75601,0.76994 1.76349,1.73641c0.00748,0.96647 -0.76994,1.75601 -1.73641,1.76349c-0.96647,0.00748 -1.75601,-0.76994 -1.76349,-1.73641z" fill="#ffc72e" stroke="none" stroke-width="0.5" stroke-linecap="butt"/><path d="M307.83416,120.67108c-0.00748,-0.96647 0.76994,-1.75601 1.73641,-1.76349c0.96647,-0.00748 1.75601,0.76994 1.76349,1.73641c0.00748,0.96647 -0.76994,1.75601 -1.73641,1.76349c-0.96647,0.00748 -1.75601,-0.76994 -1.76349,-1.73641z" fill="#ffc72e" stroke="none" stroke-width="0.5" stroke-linecap="butt"/><path d="M316.50463,120.28861c-0.00748,-0.96647 0.76994,-1.75601 1.73641,-1.76349c0.96647,-0.00748 1.75601,0.76994 1.76349,1.73641c0.00748,0.96647 -0.76994,1.75601 -1.73641,1.76349c-0.96647,0.00748 -1.75601,-0.76994 -1.76349,-1.73641z" fill="#ffc72e" stroke="none" stroke-width="0.5" stroke-linecap="butt"/><path d="M270.8445,115.78051c-0.00534,-0.69034 0.54996,-1.25429 1.2403,-1.25963c0.69034,-0.00534 1.25429,0.54996 1.25963,1.2403c0.00534,0.69034 -0.54996,1.25429 -1.2403,1.25963c-0.69034,0.00534 -1.25429,-0.54996 -1.25963,-1.2403z" fill="#ff9600" stroke="none" stroke-width="0.5" stroke-linecap="butt"/><path d="M280.75225,113.83165c-0.00534,-0.69034 0.54996,-1.25429 1.2403,-1.25963c0.69034,-0.00534 1.25429,0.54996 1.25963,1.2403c0.00534,0.69034 -0.54996,1.25429 -1.2403,1.25963c-0.69034,0.00534 -1.25429,-0.54996 -1.25963,-1.2403z" fill="#ff9600" stroke="none" stroke-width="0.5" stroke-linecap="butt"/><path d="M283.35438,111.37762c-0.00534,-0.69034 0.54996,-1.25429 1.2403,-1.25963c0.69034,-0.00534 1.25429,0.54996 1.25963,1.2403c0.00534,0.69034 -0.54996,1.25429 -1.2403,1.25963c-0.69034,0.00534 -1.25429,-0.54996 -1.25963,-1.2403z" fill="#ff9600" stroke="none" stroke-width="0.5" stroke-linecap="butt"/><path d="M300.59232,113.1165c-0.00534,-0.69034 0.54996,-1.25429 1.2403,-1.25963c0.69034,-0.00534 1.25429,0.54996 1.25963,1.2403c0.00534,0.69034 -0.54996,1.25429 -1.2403,1.25963c-0.69034,0.00534 -1.25429,-0.54996 -1.25963,-1.2403z" fill="#ff9600" stroke="none" stroke-width="0.5" stroke-linecap="butt"/><path d="M305.47431,114.95098c-0.00534,-0.69034 0.54996,-1.25429 1.2403,-1.25963c0.69034,-0.00534 1.25429,0.54996 1.25963,1.2403c0.00534,0.69034 -0.54996,1.25429 -1.2403,1.25963c-0.69034,0.00534 -1.25429,-0.54996 -1.25963,-1.2403z" fill="#ff9600" stroke="none" stroke-width="0.5" stroke-linecap="butt"/><path d="M312.96858,115.6419c-0.00534,-0.69034 0.54996,-1.25429 1.2403,-1.25963c0.69034,-0.00534 1.25429,0.54996 1.25963,1.2403c0.00534,0.69034 -0.54996,1.25429 -1.2403,1.25963c-0.69034,0.00534 -1.25429,-0.54996 -1.25963,-1.2403z" fill="#ff9600" stroke="none" stroke-width="0.5" stroke-linecap="butt"/><path d="M325.69606,115.169c-0.00534,-0.69034 0.54996,-1.25429 1.2403,-1.25963c0.69034,-0.00534 1.25429,0.54996 1.25963,1.2403c0.00534,0.69034 -0.54996,1.25429 -1.2403,1.25963c-0.69034,0.00534 -1.25429,-0.54996 -1.25963,-1.2403z" fill="#ff9600" stroke="none" stroke-width="0.5" stroke-linecap="butt"/><path d="M330.36621,113.82232c-0.00534,-0.69034 0.54996,-1.25429 1.2403,-1.25963c0.69034,-0.00534 1.25429,0.54996 1.25963,1.2403c0.00534,0.69034 -0.54996,1.25429 -1.2403,1.25963c-0.69034,0.00534 -1.25429,-0.54996 -1.25963,-1.2403z" fill="#ff9600" stroke="none" stroke-width="0.5" stroke-linecap="butt"/><path d="M338.96058,111.50916c-0.00534,-0.69034 0.54996,-1.25429 1.2403,-1.25963c0.69034,-0.00534 1.25429,0.54996 1.25963,1.2403c0.00534,0.69034 -0.54996,1.25429 -1.2403,1.25963c-0.69034,0.00534 -1.25429,-0.54996 -1.25963,-1.2403z" fill="#ff9600" stroke="none" stroke-width="0.5" stroke-linecap="butt"/><path d="M350.38918,112.5441c-0.00534,-0.69034 0.54996,-1.25429 1.2403,-1.25963c0.69034,-0.00534 1.25429,0.54996 1.25963,1.2403c0.00534,0.69034 -0.54996,1.25429 -1.2403,1.25963c-0.69034,0.00534 -1.25429,-0.54996 -1.25963,-1.2403z" fill="#ff9600" stroke="none" stroke-width="0.5" stroke-linecap="butt"/><path d="M361.45493,115.07962c-0.00534,-0.69034 0.54996,-1.25429 1.2403,-1.25963c0.69034,-0.00534 1.25429,0.54996 1.25963,1.2403c0.00534,0.69034 -0.54996,1.25429 -1.2403,1.25963c-0.69034,0.00534 -1.25429,-0.54996 -1.25963,-1.2403z" fill="#ff9600" stroke="none" stroke-width="0.5" stroke-linecap="butt"/><path d="M275.47184,116.86805c-0.00321,-0.4142 0.32998,-0.75257 0.74418,-0.75578c0.4142,-0.00321 0.75257,0.32998 0.75578,0.74418c0.00321,0.4142 -0.32998,0.75257 -0.74418,0.75578c-0.4142,0.00321 -0.75257,-0.32998 -0.75578,-0.74418z" fill="#ff9600" stroke="none" stroke-width="0.5" stroke-linecap="butt"/><path d="M284.08501,116.98866c-0.00321,-0.4142 0.32998,-0.75257 0.74418,-0.75578c0.4142,-0.00321 0.75257,0.32998 0.75578,0.74418c0.00321,0.4142 -0.32998,0.75257 -0.74418,0.75578c-0.4142,0.00321 -0.75257,-0.32998 -0.75578,-0.74418z" fill="#ff9600" stroke="none" stroke-width="0.5" stroke-linecap="butt"/><path d="M294.85944,116.15642c-0.00321,-0.4142 0.32998,-0.75257 0.74418,-0.75578c0.4142,-0.00321 0.75257,0.32998 0.75578,0.74418c0.00321,0.4142 -0.32998,0.75257 -0.74418,0.75578c-0.4142,0.00321 -0.75257,-0.32998 -0.75578,-0.74418z" fill="#ff9600" stroke="none" stroke-width="0.5" stroke-linecap="butt"/><path d="M308.17464,119.04899c-0.00321,-0.4142 0.32998,-0.75257 0.74418,-0.75578c0.4142,-0.00321 0.75257,0.32998 0.75578,0.74418c0.00321,0.4142 -0.32998,0.75257 -0.74418,0.75578c-0.4142,0.00321 -0.75257,-0.32998 -0.75578,-0.74418z" fill="#ff9600" stroke="none" stroke-width="0.5" stroke-linecap="butt"/><path d="M319.01119,116.15683c-0.00321,-0.4142 0.32998,-0.75257 0.74418,-0.75578c0.4142,-0.00321 0.75257,0.32998 0.75578,0.74418c0.00321,0.4142 -0.32998,0.75257 -0.74418,0.75578c-0.4142,0.00321 -0.75257,-0.32998 -0.75578,-0.74418z" fill="#ff9600" stroke="none" stroke-width="0.5" stroke-linecap="butt"/><path d="M332.3206,118.30054c-0.00321,-0.4142 0.32998,-0.75257 0.74418,-0.75578c0.4142,-0.00321 0.75257,0.32998 0.75578,0.74418c0.00321,0.4142 -0.32998,0.75257 -0.74418,0.75578c-0.4142,0.00321 -0.75257,-0.32998 -0.75578,-0.74418z" fill="#ff9600" stroke="none" stroke-width="0.5" stroke-linecap="butt"/><path d="M344.66064,116.14564c-0.00321,-0.4142 0.32998,-0.75257 0.74418,-0.75578c0.4142,-0.00321 0.75257,0.32998 0.75578,0.74418c0.00321,0.4142 -0.32998,0.75257 -0.74418,0.75578c-0.4142,0.00321 -0.75257,-0.32998 -0.75578,-0.74418z" fill="#ff9600" stroke="none" stroke-width="0.5" stroke-linecap="butt"/><path d="M366.19867,117.10238c-0.00321,-0.4142 0.32998,-0.75257 0.74418,-0.75578c0.4142,-0.00321 0.75257,0.32998 0.75578,0.74418c0.00321,0.4142 -0.32998,0.75257 -0.74418,0.75578c-0.4142,0.00321 -0.75257,-0.32998 -0.75578,-0.74418z" fill="#ff9600" stroke="none" stroke-width="0.5" stroke-linecap="butt"/><path d="M354.9732,118.12531c-0.00321,-0.4142 0.32998,-0.75257 0.74418,-0.75578c0.4142,-0.00321 0.75257,0.32998 0.75578,0.74418c0.00321,0.4142 -0.32998,0.75257 -0.74418,0.75578c-0.4142,0.00321 -0.75257,-0.32998 -0.75578,-0.74418z" fill="#ff9600" stroke="none" stroke-width="0.5" stroke-linecap="butt"/></g><g stroke="none" stroke-width="0.5" stroke-linecap="butt"><g><path d="M333.97913,196.51956l2.89657,0.26893c3.63249,1.44588 6.84057,2.58698 8.59442,6.43036c1.64638,3.60786 0.73467,8.56034 0.09507,12.30622c-1.07269,6.28235 -3.64856,15.45343 -10.49103,17.79957c-2.65093,0.90895 -4.27722,0.55206 -6.90234,0.3576c-10.20854,-2.20103 -20.24,-7.22687 -25.03007,-17.0641c-4.06442,-8.34698 3.6796,-16.63323 11.48085,-18.3955c-2.23603,-3.86098 -3.40564,-8.51469 1.02076,-11.39866c1.16836,-0.76123 2.64363,-1.18638 4.03556,-1.10232c1.47198,0.0889 2.80396,0.94264 4.12636,1.59524c4.42198,2.18221 7.70205,5.2132 10.02064,9.20416c0.09659,-0.00411 0.15322,-0.00152 0.15322,-0.00152z" fill="#f3ca58"/><path d="M303.37286,200.50108c2.25657,-4.02635 5.48936,-7.10772 9.87705,-9.35808c1.31215,-0.67297 2.63076,-1.54723 4.10118,-1.65889c1.39047,-0.10559 2.87213,0.29669 4.05213,1.03975c4.47048,2.81514 3.373,7.48639 1.19697,11.38151c7.82758,1.64138 15.69886,9.80683 11.76405,18.21569c-4.63732,9.91015 -14.58984,15.09057 -24.7631,17.44926c-2.62179,0.23504 -4.24238,0.61705 -6.90704,-0.25079c-6.87794,-2.24001 -9.59539,-11.37015 -10.76513,-17.63515c-0.69747,-3.73555 -1.68568,-8.67332 -0.09531,-12.30622c1.69418,-3.87004 4.88423,-5.06064 8.49392,-6.56254l2.89206,-0.31371c0,0 0.05659,-0.00347 0.15323,-0.00086z" fill="#ff9600"/><path d="M303.18856,200.87696c2.25657,-4.02635 5.48936,-7.10772 9.87705,-9.35808c1.31215,-0.67297 2.63076,-1.54723 4.10118,-1.65889c1.39047,-0.10559 2.87213,0.29669 4.05213,1.03975c4.47048,2.81514 3.37299,7.48639 1.19696,11.3815c7.82758,1.64138 15.69886,9.80684 11.76405,18.2157c-4.63732,9.91015 -14.58984,15.09057 -24.7631,17.44926c-2.62179,0.23504 -4.24238,0.61705 -6.90704,-0.25079c-6.87794,-2.24001 -9.59539,-11.37015 -10.76513,-17.63515c-0.69747,-3.73555 -1.68568,-8.67332 -0.09532,-12.30622c1.69418,-3.87004 4.88423,-5.06064 8.49392,-6.56254l2.89205,-0.31371c0,0 0.05659,-0.00347 0.15323,-0.00086z" fill="#f3ca58"/></g><path d="M298.6486,220.52855c0.04528,0.0472 0.08892,0.09696 0.13097,0.14915c4.63363,0.67384 4.4808,8.12604 3.74461,11.08501c-0.67079,2.69614 -1.78572,5.17342 -3.26642,7.35601c-0.49788,1.0099 -1.03276,2.00646 -1.55898,2.9964c-1.96092,3.68896 -3.96715,7.75031 -8.28621,9.30616c-1.43899,0.51836 -3.05793,0.22446 -4.58588,0.15567c-1.50691,-0.06785 -3.22638,0.25949 -4.48999,-0.56432c-0.27378,-0.17849 -0.52,-0.37858 -0.74069,-0.59741c-0.16872,-0.08474 -0.33645,-0.17867 -0.50307,-0.28237c-2.34818,-1.46143 -3.72915,-4.88077 -3.0717,-7.64433c0.05583,-1.04474 0.40575,-2.19103 0.56714,-3.17498c0.15654,-0.95421 1.77703,-4.22423 2.73099,-5.81326c1.64042,-5.49565 6.30249,-8.94757 11.4049,-11.65604l-0.06596,-0.08654l2.33955,-1.7831c0.42049,-0.58904 0.85394,-1.16873 1.29993,-1.73846c0,0 1.54659,-1.96419 3.51078,-0.4176c1.17281,0.92346 1.09395,1.99581 0.84,2.71001z" fill="#f3ca58"/><path d="M337.96927,217.32067c1.94003,-1.57679 3.51683,0.36324 3.51683,0.36324c0.45474,0.56276 0.89711,1.13567 1.32667,1.71814l2.36684,1.74669l-0.06461,0.08754c5.14372,2.62922 9.8586,6.0086 11.58385,11.47822c0.97843,1.57409 2.64932,4.81865 2.82059,5.77032c0.1766,0.98131 0.54423,2.12205 0.6162,3.16581c0.70011,2.75308 -0.62779,6.19336 -2.95307,7.69094c-0.16499,0.10626 -0.33126,0.20278 -0.49864,0.29012c-0.21727,0.22221 -0.46036,0.42608 -0.73136,0.6088c-1.25071,0.84327 -2.97503,0.54256 -4.48072,0.63372c-1.52671,0.09242 -3.14091,0.41134 -4.58775,-0.0847c-4.34261,-1.48883 -6.41142,-5.51867 -8.42917,-9.17685c-0.54147,-0.9817 -1.09171,-1.96986 -1.60515,-2.97194c-1.5143,-2.15943 -2.66743,-4.61917 -3.37985,-7.3046c-0.78187,-2.94723 -1.04996,-10.39615 3.57269,-11.14161c0.04123,-0.05283 0.08411,-0.10327 0.12865,-0.15116c-0.26495,-0.71018 -0.3604,-1.78119 0.798,-2.72267z" fill="#f3ca58"/></g></g></g></g></svg>