<svg version="1.1" xmlns="http://www.w3.org/2000/svg" xmlns:xlink="http://www.w3.org/1999/xlink" width="213.18203" height="280.18475" viewBox="0,0,213.18203,280.18475"><defs><linearGradient x1="277.04223" y1="157.14311" x2="272.68338" y2="195.70031" gradientUnits="userSpaceOnUse" id="color-1"><stop offset="0" stop-color="#a9a9a9"/><stop offset="1" stop-color="#000000"/></linearGradient><linearGradient x1="330.88059" y1="149.61018" x2="326.33816" y2="189.79144" gradientUnits="userSpaceOnUse" id="color-2"><stop offset="0" stop-color="#a9a9a9"/><stop offset="1" stop-color="#000000"/></linearGradient></defs><g transform="translate(-214.52363,-38.88751)"><g stroke-miterlimit="10"><g stroke="#000000"><g fill="#000000" stroke-width="0" stroke-linecap="butt"><path d="M286.35188,319.07226c0,0 -36.37376,-78.14261 -36.45901,-97.65729c-0.03646,-8.34972 35.95412,-17.91176 35.95412,-17.91176l43.7199,-31.65899c0,0 56.17189,-2.83423 58.32942,6.94945c4.55179,20.64099 -35.04444,140.27859 -35.04444,140.27859z"/></g><path d="M309.52643,225.86995l9.91202,38.45318l-5.4653,7.73859l-10.96716,-8.50084l-0.13849,-37.50558z" fill="#ffffff" stroke-width="2" stroke-linecap="round"/><path d="M314.45109,220.88848c0.28548,2.10852 1.0076,4.33114 -0.40404,5.74229c-1.49331,1.49281 -5.2021,2.11422 -7.84648,2.11422c-2.25931,0 -5.06299,-0.21636 -6.82857,-1.345c-2.25439,-1.4411 -3.21997,-4.07821 -3.54945,-6.51153c-0.30139,-2.22611 -0.12828,-5.16024 1.44181,-6.58982c1.49026,-1.35689 4.30372,-1.26669 6.80871,-1.26669c2.95234,0 6.12196,0.08027 8.07318,1.88787c1.44857,1.34192 2.05451,4.11989 2.30484,5.96865z" fill="#ffffff" stroke-width="2" stroke-linecap="butt"/></g><path d="M214.52364,306.61252v-267.72501h213.18203v267.72501z" fill="none" stroke="none" stroke-width="0" stroke-linecap="butt"/><path d="" fill="none" stroke="#000000" stroke-width="2" stroke-linecap="round"/><path d="M217.25551,261.10422c0,-0.41421 0.33579,-0.75 0.75,-0.75c0.41421,0 0.75,0.33579 0.75,0.75c0,0.41421 -0.33579,0.75 -0.75,0.75c-0.41421,0 -0.75,-0.33579 -0.75,-0.75z" fill="#000000" stroke="none" stroke-width="0.5" stroke-linecap="butt"/><g stroke="#000000" stroke-linecap="butt"><path d="M238.68374,175.40847c-2.30613,-33.22191 24.51521,-62.14519 59.90716,-64.60197c35.39197,-2.45677 65.95233,22.48329 68.25845,55.70519c2.30613,33.22191 -24.5152,62.14521 -59.90717,64.60199c-35.39194,2.45677 -65.95231,-22.48329 -68.25844,-55.70519z" fill="#000000" stroke-width="2"/><path d="M251.71606,173.96974c-0.24532,-3.534 12.2021,-15.95122 23.5914,-16.74182c11.38932,-0.79061 23.05418,10.56537 23.25717,13.48975c0.89803,12.93689 -8.86139,24.15229 -21.79824,25.05032c-12.93689,0.89803 -24.15229,-8.86141 -25.05031,-21.79825z" fill="url(#color-1)" stroke-width="2"/><path d="M260.62752,167.4068c-0.51789,-7.46059 5.11028,-13.92845 12.57088,-14.44634c7.46058,-0.51788 13.92846,5.11032 14.44633,12.5709c0.51789,7.46059 -5.11031,13.92846 -12.5709,14.44634c-7.46058,0.51788 -13.92843,-5.11028 -14.44633,-12.5709z" fill="#000000" stroke-width="5"/><path d="M330.41954,189.85892c-12.93689,0.89803 -24.15228,-8.8614 -25.0503,-21.79825c-0.2116,-3.04827 10.74419,-17.80237 22.06425,-18.58816c11.32004,-0.7858 24.54716,11.91949 24.78434,15.33611c0.89803,12.93689 -8.86138,24.1523 -21.79825,25.05031z" fill="url(#color-2)" stroke-width="2"/><path d="M341.80577,157.95811c0.52501,7.56301 -5.18043,14.11961 -12.74341,14.64462c-7.56297,0.525 -14.1196,-5.18045 -14.64461,-12.74343c-0.52501,-7.56301 5.18044,-14.1196 12.74341,-14.64462c7.56297,-0.525 14.1196,5.18044 14.64459,12.74341z" fill="#000000" stroke-width="5"/><path d="M238.33296,173.89748l-12.21578,-53.0398c0,0 37.56784,-24.36567 64.92028,-28.03753c27.35245,-3.67186 64.39346,10.67813 64.39346,10.67813l11.04321,54.61278z" fill="#000000" stroke-width="2"/><path d="M234.39777,174.35205l2.66261,-8.92766l126.67731,-13.05512l1.72154,7.62547z" fill="#ffffff" stroke-width="0"/><path d="M227.92965,182.79561c0,0 -3.14991,-2.95785 -4.03862,-4.75995c-0.94933,-1.925 -1.48747,-6.44566 -1.48747,-6.44566l155.42761,-15.60003c0,0 -0.15003,3.59297 -0.62406,5.53057c-0.51495,2.10471 -2.35311,6.63792 -2.35311,6.63792z" fill="#000000" stroke-width="2"/></g><g fill-opacity="0.5098" fill="#ffffff" stroke="none" stroke-width="0.5" stroke-linecap="butt"><path d="M281.74396,203.01197c0.74993,0.01164 0.74024,0.91248 0.74024,0.91248l-0.00123,0.11442c0.16706,0.11531 0.2635,0.25663 0.31551,0.40098c0.4213,0.22002 0.41468,0.83557 0.41468,0.83557c-0.01027,0.95404 -0.11116,1.87886 -0.21313,2.78997c0.2647,1.63715 0.45074,3.26776 0.02875,3.93254c-0.0897,0.14131 -0.17764,0.2651 -0.26375,0.37263l-0.00046,0.0427c0,0 -0.00969,0.90083 -0.75963,0.88918c-0.43797,-0.0068 -0.61686,-0.31688 -0.68989,-0.57368c-0.33845,-0.30867 -0.59739,-0.88484 -0.76147,-1.48248c-0.37374,-1.36136 -0.03643,-3.74172 0.43192,-5.48639c-0.01095,-0.46297 -0.01101,-0.9316 -0.00599,-1.41226l0.00481,-0.44647c0,0 0.00969,-0.90083 0.75963,-0.88918z"/><path d="M289.88433,207.16521c-0.00572,0.53138 -0.01144,1.06275 -0.01716,1.59413c0.0222,0.12182 0.01658,0.23703 -0.00366,0.3406l-0.01281,1.1906c-0.00104,0.09697 -0.0148,0.19014 -0.03934,0.2773l0.02454,1.01857c0.00042,0.01443 0.00055,0.02896 0.00039,0.04357c-0.00535,0.49751 -0.34546,0.89561 -0.75963,0.88918c-0.26443,-0.00411 -0.49514,-0.17212 -0.62599,-0.42255l-0.71706,-1.32891c-0.08033,-0.14422 -0.12686,-0.31769 -0.12621,-0.50394l0.00055,-0.24221c-0.14219,-0.30919 -0.26121,-0.63111 -0.34963,-0.96658l0.04092,-0.14369l-0.04904,-0.00077l0.01442,-1.33942c0.00329,-0.30487 0.13226,-0.5724 0.32695,-0.73241l-0.21013,-1.58999c-0.00814,-0.05511 -0.01209,-0.11192 -0.01146,-0.16994c0.00535,-0.49751 0.34546,-0.89561 0.75963,-0.88918c0.29739,0.00462 0.55212,0.21654 0.67014,0.51987l0.65602,1.59886l-0.0134,0.00792c0.4489,0.20713 0.44199,0.84899 0.44199,0.84899z"/><path d="M294.2774,208.52806c-0.13215,-0.37802 -0.23119,-0.77552 -0.30832,-1.16375l0.08147,-0.10861l-0.08615,-0.00101l0.00382,-0.47262l-0.0036,-0.00005l0.01436,-1.33198v0c0.00536,-0.49751 0.34546,-0.8956 0.75963,-0.88917c0.40993,0.00636 0.73877,0.40661 0.7403,0.89718c0.74342,0.01671 0.73377,0.91235 0.73377,0.91235c-0.00141,0.08912 -0.00333,0.17842 -0.00583,0.26781c0.01304,0.1173 0.00425,0.22929 -0.01167,0.32303c-0.03984,0.8933 -0.14566,1.78968 -0.38656,2.63049c-0.00193,0.07063 -0.00354,0.14171 -0.00465,0.21315l-0.01583,1.47099c-0.00535,0.49751 -0.34546,0.89561 -0.75963,0.88918c-0.41418,-0.00643 -0.7456,-0.41497 -0.74024,-0.91248l0.00481,-0.44647v0l0.01224,-1.13769c0.00213,-0.4468 -0.01108,-0.81647 -0.02789,-1.14031z"/><path d="M305.75429,204.77073c0.70838,0.29592 0.46204,1.14684 0.46204,1.14684l-0.34574,1.15983c-0.00345,0.32064 -0.01323,1.22898 -0.01323,1.22898c-0.00535,0.49751 -0.34546,0.89561 -0.75963,0.88918c-0.22133,-0.00343 -0.41902,-0.1217 -0.55432,-0.307c-0.13924,0.18104 -0.33942,0.29312 -0.56074,0.28969c-0.41418,-0.00643 -0.7456,-0.41497 -0.74024,-0.91248l0.01442,-1.33942c0,0 0.00642,-0.59686 0.41328,-0.81264c-0.0194,-0.17538 -0.02762,-0.35132 -0.02717,-0.52102l0.01442,-1.33942c0.00535,-0.49751 0.34546,-0.89561 0.75963,-0.88918c0.33735,0.00524 0.6198,0.27724 0.71008,0.64681l0.19076,0.71827c0.12043,-0.03449 0.26489,-0.03008 0.43646,0.04159z"/><path d="M310.00971,201.22606c0.00535,-0.49751 0.34546,-0.89561 0.75963,-0.88918c0.41418,0.00643 0.7456,0.41497 0.74024,0.91248l-0.03364,3.12533c-0.00357,0.33181 -0.15603,0.61939 -0.38006,0.77224l-0.00605,0.56141c-0.00535,0.49751 -0.34546,0.89561 -0.75963,0.88918c-0.33735,-0.00524 -0.6198,-0.27724 -0.71008,-0.64681c-0.11909,-0.4484 -0.59019,-2.2222 -0.70929,-2.6706c0,0 -0.22795,-0.85829 0.48657,-1.1321c0.12453,-0.04772 0.23427,-0.06105 0.33061,-0.05055c0.05625,-0.12587 0.14278,-0.24988 0.27588,-0.33155z"/><path d="M317.31989,200.93139c0.70838,0.29592 0.46204,1.14684 0.46204,1.14684l-0.3558,1.19354c-0.00146,0.42319 -0.05468,0.84196 -0.14085,1.25477l0.13424,0.0156l-0.04252,0.5282c0.0246,0.09113 0.03742,0.18858 0.03634,0.28968c-0.00166,0.15439 -0.03557,0.2992 -0.0939,0.42533l-0.00574,0.07132c-0.0334,0.46598 -0.36137,0.82877 -0.7569,0.82263c-0.3592,-0.00558 -0.65616,-0.31359 -0.72516,-0.71981l-0.24395,-1.29347l-0.01846,-0.02071c0.00001,-0.02563 0.00003,-0.05125 0.00006,-0.07688l-0.06567,-0.34817l0.00414,-0.00112l-0.00725,-0.01611c0.00066,-0.00613 0.00132,-0.01226 0.00199,-0.01837l-0.0048,0.00107l-0.27109,-1.75326c-0.01076,-0.06271 -0.01608,-0.12776 -0.01537,-0.1944c0.00535,-0.49751 0.34546,-0.89561 0.75963,-0.88918c0.14486,0.00225 0.27959,0.05369 0.39334,0.14092l0.00093,-0.00333c0,0 0.24635,-0.85092 0.95474,-0.55501z"/><path d="M324.15056,201.05951c-0.0007,-0.02014 -0.00135,-0.04028 -0.00196,-0.06042l-0.0099,-0.00015l0.01922,-1.7859c0.00535,-0.49751 0.34546,-0.89561 0.75963,-0.88918c0.27508,0.00427 0.51366,0.18591 0.64132,0.4532c0.07326,-0.00543 0.15437,0.00156 0.24414,0.02458c0.73348,0.18809 0.5769,1.06914 0.5769,1.06914c-0.20878,1.17473 -0.41755,2.34947 -0.62633,3.5242l-0.1622,0.91267c-0.06748,0.42006 -0.37744,0.7348 -0.74607,0.72907c-0.41418,-0.00643 -0.7456,-0.41497 -0.74024,-0.91248l0.02402,-2.23238l0.00156,0.00002c0.00491,-0.27751 0.01159,-0.555 0.01991,-0.8324z"/><path d="M330.4735,200.21209c-0.35921,-0.00558 -0.54413,-0.21516 -0.63933,-0.43204c-0.07437,0.11324 -0.14988,0.22545 -0.22647,0.33664l0.05036,0.03123l-0.37385,0.86984c-0.12353,0.30283 -0.38419,0.50954 -0.68358,0.50488c-0.33735,-0.00524 -0.6198,-0.27724 -0.71008,-0.64681l-0.35201,-1.3254l0.03532,-0.01353l-0.0626,-0.12748c0.0021,-0.49463 0.00418,-0.98924 0.00629,-1.48388c0,0 0.00969,-0.90083 0.75963,-0.88918c0.74993,0.01164 0.74024,0.91248 0.74024,0.91248c-0.00098,0.05185 -0.00196,0.10369 -0.00294,0.15554c0.02919,-0.05152 0.05766,-0.10112 0.0846,-0.14828l0.35778,-0.83245c0.12353,-0.30283 0.38419,-0.50954 0.68358,-0.50488c0.29938,0.00465 0.55551,0.21939 0.67249,0.52595l0.355,0.88115l0.06523,1.29705c0,0 -0.00969,0.90083 -0.75963,0.88918z"/><path d="M327.33013,215.33809c0.00591,-0.54934 0.28709,-0.75935 0.50563,-0.8396c-0.08685,-0.60287 -0.10553,-1.22741 -0.10511,-1.83348c0,0 0.00969,-0.90083 0.75963,-0.88918c0.74993,0.01164 0.74024,0.91248 0.74024,0.91248c-0.01801,0.76742 -0.02777,1.59999 0.26802,2.28053l-1.42818,1.28173c0,0 -0.74993,-0.01164 -0.74024,-0.91248z"/><path d="M323.98841,218.94582c0.05624,-0.03269 0.11006,-0.05703 0.16148,-0.0742l0.1899,-1.46154c0.05152,-0.44283 0.37047,-0.78093 0.75243,-0.77499c0.33735,0.00524 0.6198,0.27724 0.71008,0.64681l0.35201,1.3254c0,0 0.22795,0.85829 -0.48657,1.1321c-0.0406,0.01557 -0.07963,0.02747 -0.11714,0.03607l-0.13069,1.00583c-0.05152,0.44283 -0.37047,0.78093 -0.75243,0.77499c-0.29938,-0.00465 -0.55551,-0.21939 -0.67249,-0.52595l-0.355,-0.88115l0.37198,-0.21624l0.09819,-0.75571l1.48205,0.27785l-0.04163,0.32038c-0.03004,0.00689 -0.0591,0.01168 -0.0872,0.01455l-0.67566,1.75651l-1.14774,-1.39734c0,0 -0.32671,-0.81093 0.34839,-1.20338z"/><path d="M319.42091,225.11748c-0.00763,-0.12392 0.00001,-0.23204 0.01887,-0.32632c-0.01122,-0.06391 -0.01678,-0.13028 -0.01604,-0.19832l0.01922,-1.7859c0.00535,-0.49751 0.34546,-0.89561 0.75963,-0.88918c0.29938,0.00465 0.55551,0.21939 0.67249,0.52595c0.1207,0.29957 0.59639,1.4803 0.71708,1.77988c0,0 0.32671,0.81093 -0.34839,1.20338c-0.24072,0.13993 -0.43713,0.12687 -0.59025,0.05212l-0.42928,0.47032c0,0 -0.74795,0.06652 -0.80332,-0.83194z"/><path d="M312.77024,226.66244c-0.42972,-0.2162 -0.423,-0.83983 -0.423,-0.83983l1.42772,-0.8325c0.25645,0.62717 0.21647,1.38903 0.46639,2.01998c0.26179,0.66092 -0.21497,-1.50439 -0.01482,-2.19571c0.21507,-0.74287 0.33714,-1.822 0.96195,-2.05727c0.54912,-0.20677 0.95585,0.77011 1.43377,1.15516c0,0 0.52343,0.64522 -0.01372,1.27397c-0.39843,0.46639 -0.78931,0.23181 -0.96462,0.07957c0.12197,0.93776 0.15139,3.40717 -1.35984,3.54538c-0.73751,0.06745 -1.00547,-1.30829 -1.44408,-2.02369c-0.02485,-0.04052 -0.04797,-0.08227 -0.06974,-0.12504z"/><path d="M306.79648,227.43537c-0.66643,-0.41328 -0.32238,-1.2138 -0.32238,-1.2138l0.36054,-0.83888c0.05809,-0.17913 0.16987,-0.37893 0.38499,-0.47622c0.12843,-0.0755 0.2904,-0.11011 0.4852,-0.03896c0.19978,0.04721 0.32916,0.16924 0.41297,0.30841c0.15294,0.20894 0.17254,0.45049 0.15294,0.64209l-0.00548,0.31436c0.16506,3.93123 1.24844,-0.6925 2.65156,-1.58441c0,0 0.6751,-0.39244 1.00181,0.41849c0.32671,0.81093 -0.34839,1.20338 -0.34839,1.20338c-1.73287,0.84596 -2.77512,7.07627 -4.71695,1.32413c-0.00351,-0.01039 -0.00687,-0.02082 -0.01008,-0.03131c-0.0154,-0.00844 -0.03097,-0.01754 -0.04673,-0.02731z"/><path d="M303.08088,223.88461c0.74993,0.01164 0.74024,0.91248 0.74024,0.91248l-0.01323,1.22912c0.3841,-0.22587 0.76819,-0.45175 1.1523,-0.67763c0,0 0.6751,-0.39244 1.00181,0.41849c0.32671,0.81093 -0.34839,1.20338 -0.34839,1.20338c-0.412,0.23632 -0.824,0.47263 -1.23598,0.70894l-0.83824,0.90092c-0.13531,0.1464 -0.31508,0.23436 -0.51153,0.23131c-0.41418,-0.00643 -0.7456,-0.41497 -0.74024,-0.91248l0.03364,-3.12533c0,0 0.00969,-0.90083 0.75963,-0.88918z"/><path d="M298.93559,225.9898l-1.01901,0.90473c0.15863,-0.13725 0.31726,-0.27451 0.47589,-0.41175l-0.01442,1.33942l-1.20005,-1.38569c0,0 -0.32671,-0.81093 0.34839,-1.20338c0.16422,-0.09547 0.30781,-0.11972 0.43111,-0.10177c0.02772,-0.06135 0.06268,-0.12212 0.10675,-0.1777l0.00247,-0.22972c0.03507,0.0405 0.07015,0.08099 0.10521,0.12149c0.10681,-0.08457 0.24921,-0.14008 0.43904,-0.13713c0.74993,0.01164 0.74024,0.91248 0.74024,0.91248l-0.28708,0.25488c0.06755,0.07799 0.13508,0.15599 0.20263,0.23398l-0.29143,-0.10544l-0.01023,0.95024c-0.00535,0.49751 -0.34546,0.89561 -0.75963,0.88918c-0.29938,-0.00465 -0.55551,-0.21939 -0.67249,-0.52595l-0.355,-0.88115l0.2944,-0.17114l0.00725,-0.67365l1.49988,0.02329l-0.00419,0.38918z"/><path d="M290.67841,221.65768c0,0 -0.52343,-0.64522 0.01372,-1.27397c0.53714,-0.62875 1.06057,0.01648 1.06057,0.01648c0.16284,0.20407 0.32567,0.40816 0.48852,0.61223c0.17252,-1.50423 1.67831,-0.34121 2.27627,1.12253l-1.46759,1.1631c0,0 -0.03557,-0.00056 -0.0911,-0.01073c-0.13195,0.27022 -0.37766,0.45 -0.65708,0.44566c-0.29938,-0.00465 -0.55551,-0.21939 -0.67249,-0.52595l-0.3149,-0.78162c-0.21198,-0.25592 -0.42394,-0.51182 -0.63591,-0.76773z"/><path d="M284.63669,217.31074c0,0 -0.32671,-0.81093 0.34839,-1.20338c0.6751,-0.39244 1.00181,0.41849 1.00181,0.41849c0.01044,0.03085 0.02138,0.06227 0.03246,0.09412c0.02379,-0.01688 0.0491,-0.03319 0.07599,-0.04882c0.00824,-0.0048 0.01643,-0.00941 0.02458,-0.01385c0.1215,-0.30929 0.38505,-0.52146 0.68833,-0.51675c0.41418,0.00643 0.7456,0.41497 0.74024,0.91248l-0.01442,1.33942c-0.00535,0.49751 -0.34546,0.89561 -0.75963,0.88918c-0.21382,-0.00332 -0.40559,-0.1138 -0.54034,-0.28838c-0.6506,-0.34754 -1.276,-0.85297 -1.5974,-1.58252z"/></g></g></g></svg>