<svg version="1.1" xmlns="http://www.w3.org/2000/svg" xmlns:xlink="http://www.w3.org/1999/xlink" width="213.18203" height="281.18476" viewBox="0,0,213.18203,281.18476"><defs><linearGradient x1="320.08742" y1="187.07227" x2="320.08742" y2="244.23177" gradientUnits="userSpaceOnUse" id="color-1"><stop offset="0" stop-color="#3e3e3e"/><stop offset="1" stop-color="#3e3e3e" stop-opacity="0"/></linearGradient></defs><g transform="translate(-214.78369,-38.88751)"><g stroke-miterlimit="10"><g stroke="#000000" stroke-linecap="butt"><path d="M286.35186,319.07226l15.14285,-131.8421l37.78325,-0.15789l13.57389,132z" fill="#808080" stroke-width="0"/><path d="M295.01902,243.61117l6.47569,-56.38101l37.78325,-0.15789l5.87786,57.15951z" fill="url(#color-1)" stroke-width="0"/><path d="M286.35186,319.07226l15.14285,-131.8421l37.78325,-0.15789l13.57389,132z" fill="none" stroke-width="2"/></g><path d="M214.78369,306.61252v-267.72501h213.18203v267.72501z" fill="none" stroke="none" stroke-width="0" stroke-linecap="butt"/><path d="" fill="none" stroke="#000000" stroke-width="2" stroke-linecap="round"/><g><path d="M348.28017,108.99063c0,0 35.50261,-13.06503 48.36536,-17.22711c8.16272,-2.64127 21.34645,-5.33 21.34645,-5.33c0,0 -10.07251,14.19708 -15.21198,22.44668c-5.9106,9.48737 -18.2627,31.28502 -18.2627,31.28502z" fill="#656565" stroke="#000000" stroke-width="2" stroke-linecap="butt"/><path d="M260.10913,135.84729c0,0 -12.3521,-21.79765 -18.2627,-31.28502c-5.13947,-8.24959 -15.21197,-22.44667 -15.21197,-22.44667c0,0 13.18373,2.68873 21.34645,5.33c12.86274,4.16208 48.36536,17.22711 48.36536,17.22711z" fill="#656565" stroke="#000000" stroke-width="2" stroke-linecap="butt"/><path d="M257.59521,152.63718c0,-33.30185 28.7599,-60.29833 64.23702,-60.29833c35.47713,0 64.23702,26.99648 64.23702,60.29833c0,33.30185 -28.75989,60.29834 -64.23702,60.29834c-35.47712,0 -64.23702,-26.99649 -64.23702,-60.29834z" fill="#808080" stroke="#000000" stroke-width="2" stroke-linecap="butt"/><path d="M271.22231,156.16466c0,-12.96801 10.51265,-23.48065 23.48066,-23.48065c12.96801,0 23.48065,10.51264 23.48065,23.48065c0,12.96801 -10.51264,23.48066 -23.48065,23.48066c-12.96801,0 -23.48066,-10.51265 -23.48066,-23.48066z" fill-opacity="0.30588" fill="#000000" stroke="#000000" stroke-width="0" stroke-linecap="butt"/><path d="M348.96144,179.64534c-12.96801,0 -23.48065,-10.51265 -23.48065,-23.48066c0,-12.96801 10.51264,-23.48065 23.48065,-23.48065c12.96801,0 23.48066,10.51264 23.48066,23.48065c0,12.96801 -10.51265,23.48066 -23.48066,23.48066z" fill-opacity="0.30588" fill="#000000" stroke="#000000" stroke-width="0" stroke-linecap="butt"/><path d="M271.22231,152.91279c0,-12.96801 10.51265,-23.48065 23.48066,-23.48065c12.96801,0 23.48065,10.51264 23.48065,23.48065c0,12.96801 -10.51264,23.48066 -23.48065,23.48066c-12.96801,0 -23.48066,-10.51265 -23.48066,-23.48066z" fill="#ffffff" stroke="#000000" stroke-width="2" stroke-linecap="butt"/><path d="M279.13177,153.70324c0,-8.29964 6.72818,-15.02784 15.02783,-15.02784c8.29964,0 15.02784,6.72819 15.02784,15.02785c0,8.29964 -6.72819,15.02785 -15.02784,15.02785c-8.29964,0 -15.02783,-6.72819 -15.02783,-15.02785z" fill="#ffffff" stroke="#000000" stroke-width="5" stroke-linecap="butt"/><path d="M348.96144,176.39348c-12.96801,0 -23.48065,-10.51265 -23.48065,-23.48066c0,-12.96801 10.51264,-23.48065 23.48065,-23.48065c12.96801,0 23.48066,10.51264 23.48066,23.48065c0,12.96801 -10.51265,23.48066 -23.48066,23.48066z" fill="#ffffff" stroke="#000000" stroke-width="2" stroke-linecap="butt"/><path d="M364.28678,153.49003c0,8.29966 -6.72818,15.02785 -15.02783,15.02785c-8.29964,0 -15.02784,-6.72821 -15.02784,-15.02785c0,-8.29966 6.7282,-15.02785 15.02784,-15.02785c8.29964,0 15.02783,6.7282 15.02783,15.02784z" fill="#ffffff" stroke="#000000" stroke-width="5" stroke-linecap="butt"/><path d="M280.70645,125.50818c0,0 7.65992,-3.61335 12.8859,-3.69086c5.22598,-0.0775 11.89856,3.32328 11.89856,3.32328c0,0 -7.83891,-1.77944 -11.87477,-1.71958c-4.21762,0.06256 -12.90969,2.08715 -12.90969,2.08715z" fill="#000000" stroke="none" stroke-width="0" stroke-linecap="butt"/><path d="M348.58134,125.04549c-4.0356,-0.07481 -11.88106,1.67559 -11.88106,1.67559c0,0 6.68512,-3.37606 11.91078,-3.2792c5.22565,0.09686 12.87214,3.73857 12.87214,3.73857c0,0 -8.68451,-2.05679 -12.90187,-2.13496z" fill="#000000" stroke="none" stroke-width="0" stroke-linecap="butt"/><path d="M309.56241,202.82412c0,0 2.80055,-0.60098 5.11079,-0.57502c3.50358,0.03936 17.91597,1.21465 17.91597,1.21465" fill="none" stroke="#000000" stroke-width="2" stroke-linecap="round"/><path d="M271.22231,152.91279c0,-12.96801 10.51265,-23.48065 23.48066,-23.48065c12.96801,0 23.48065,10.51264 23.48065,23.48065c0,0.38777 -46.96131,0.42317 -46.96131,0z" fill="#000000" stroke="#000000" stroke-width="2" stroke-linecap="butt"/><path d="M325.48079,152.91282c0,-12.96801 10.51264,-23.48065 23.48065,-23.48065c12.96801,0 23.48066,10.51264 23.48066,23.48065c0,0.70044 -46.96131,0.92417 -46.96131,0z" fill="#000000" stroke="#000000" stroke-width="2" stroke-linecap="butt"/><path d="M275.02277,184.7679c0,-0.55229 0.44772,-1 1,-1c0.55228,0 1,0.44771 1,1c0,0.55229 -0.44772,1 -1,1c-0.55228,0 -1,-0.44771 -1,-1z" fill="#000000" stroke="none" stroke-width="0.5" stroke-linecap="butt"/><path d="M286.62167,181.7803c0,-0.55229 0.44772,-1 1,-1c0.55228,0 1,0.44771 1,1c0,0.55229 -0.44772,1 -1,1c-0.55228,0 -1,-0.44771 -1,-1z" fill="#000000" stroke="none" stroke-width="0.5" stroke-linecap="butt"/><path d="M282.22814,193.55494c0,-0.55229 0.44772,-1 1,-1c0.55228,0 1,0.44771 1,1c0,0.55229 -0.44772,1 -1,1c-0.55228,0 -1,-0.44771 -1,-1z" fill="#000000" stroke="none" stroke-width="0.5" stroke-linecap="butt"/><path d="M351.82153,183.01049c0,-0.55229 0.44772,-1 1,-1c0.55228,0 1,0.44771 1,1c0,0.55229 -0.44772,1 -1,1c-0.55228,0 -1,-0.44771 -1,-1z" fill="#000000" stroke="none" stroke-width="0.5" stroke-linecap="butt"/><path d="M366.58376,185.99808c0,-0.55229 0.44772,-1 1,-1c0.55228,0 1,0.44771 1,1c0,0.55229 -0.44772,1 -1,1c-0.55228,0 -1,-0.44771 -1,-1z" fill="#000000" stroke="none" stroke-width="0.5" stroke-linecap="butt"/><path d="M351.82153,196.89402c0,-0.55229 0.44772,-1 1,-1c0.55228,0 1,0.44771 1,1c0,0.55229 -0.44772,1 -1,1c-0.55228,0 -1,-0.44771 -1,-1z" fill="#000000" stroke="none" stroke-width="0.5" stroke-linecap="butt"/><path d="M315.83164,163.16809c-3.80715,7.82921 -11.83774,13.22536 -21.12867,13.22536c-8.97845,0 -16.77992,-5.03928 -20.73032,-12.44376c-0.27748,-0.52011 42.00458,-1.08098 41.85899,-0.7816z" fill="#000000" stroke="#000000" stroke-width="2" stroke-linecap="butt"/><path d="M348.96144,176.39348c-9.03151,0 -16.87207,-5.09902 -20.79994,-12.57528c-0.0467,-0.0889 41.62228,-0.0419 41.56034,0.07497c-3.94079,7.43536 -11.75911,12.50031 -20.76039,12.50031z" fill="#000000" stroke="#000000" stroke-width="2" stroke-linecap="butt"/></g></g></g></svg>