<svg version="1.1" xmlns="http://www.w3.org/2000/svg" xmlns:xlink="http://www.w3.org/1999/xlink" width="237.51867" height="304.26486" viewBox="0,0,237.51867,304.26486"><defs><radialGradient cx="375.24531" cy="157.87207" r="23.96061" gradientUnits="userSpaceOnUse" id="color-1"><stop offset="0" stop-color="#ffffff"/><stop offset="1" stop-color="#ff9494"/></radialGradient></defs><g transform="translate(-214.52362,-14.80742)"><g stroke-miterlimit="10"><g stroke="none" stroke-width="0" stroke-linecap="butt"><path d="M352.1821,217v-16.66667c0,0 25.97231,26.33333 44,26.33333c18.08325,0 18,-49 18,-49l18.33333,3.33333c0,0 -2.20132,59 -34.66667,62.33333c-18.20289,1.86896 -45.66667,-26.33333 -45.66667,-26.33333z" fill="#ff7be1"/><g><g><path d="M434.40802,161.71016c-0.64729,5.7923 -2.73475,16.00181 -11.2234,15.36851c-8.26555,-0.61666 -8.52375,-11.71066 -7.87646,-17.50294c0.64729,-5.7923 3.93193,-10.35209 10.72195,-9.42064c6.78789,0.93116 9.02519,5.76279 8.37789,11.55507z" fill="#ff7be1"/><path d="M430.18279,160.89266c-0.48943,4.37953 -3.29122,7.66109 -6.258,7.32954c-2.96677,-0.33155 -4.97507,-4.15062 -4.48567,-8.53016c0.48943,-4.37953 3.29122,-7.66109 6.25801,-7.32954c2.96677,0.33155 4.97509,4.15063 4.48566,8.53016z" fill="#ffffff"/></g><g><path d="M448.83728,176.22589c-3.84524,4.37991 -11.39917,11.55838 -17.99838,6.18175c-6.42581,-5.23534 -0.28947,-14.48137 3.55577,-18.86128c3.84524,-4.37991 9.14815,-6.23998 14.18373,-1.59077c5.034,4.64774 4.10412,9.8904 0.25888,14.2703z" fill="#ff7be1"/><path d="M445.8399,173.13773c-2.90738,3.31165 -7.0829,4.39967 -9.32627,2.43014c-2.24338,-1.96953 -1.70508,-6.25072 1.20229,-9.56239c2.90738,-3.31165 7.08289,-4.39966 9.32626,-2.43015c2.24338,1.96953 1.70509,6.25073 -1.20228,9.56237z" fill="#ffffff"/></g><g><path d="M415.07626,161.36975c2.79363,5.11519 6.94249,14.67442 -0.37291,19.02674c-7.12318,4.23792 -13.70062,-4.69967 -16.49425,-9.81487c-2.79363,-5.11519 -2.7201,-10.7344 3.37528,-13.86783c6.09348,-3.13244 10.69826,-0.45926 13.49188,4.65593z" fill="#ff7be1"/><path d="M411.14679,163.12476c2.11224,3.86759 1.70067,8.16285 -0.91931,9.59373c-2.61998,1.43088 -6.45621,-0.54446 -8.56845,-4.41205c-2.11224,-3.86759 -1.70067,-8.16285 0.91931,-9.59373c2.61998,-1.43088 6.45621,0.54446 8.56847,4.41205z" fill="#ffffff"/></g><g><path d="M406.01057,183.41185c0.82499,-8.91768 5.45664,-15.52408 17.64063,-14.65309c12.0187,0.85918 15.47808,8.72296 14.65309,17.64063c-0.82499,8.91768 -8.72296,15.47808 -17.64062,14.65309c-8.91768,-0.82499 -15.47808,-8.72296 -14.6531,-17.64063z" fill="#ff7be1"/><path d="M433.06162,186.68984c-0.42361,4.57914 -3.4094,8.18963 -8.01581,8.91016c-0.8995,0.1407 -3.54794,-1.01887 -3.54794,-1.01887c0,0 -2.85551,0.56666 -3.92973,0.09419c-3.96763,-1.74511 -6.04681,-5.63423 -5.64835,-9.94136c0.50635,-5.47329 5.64959,-9.4724 11.48773,-8.9323c5.83817,0.54011 10.16047,5.41488 9.65412,10.88817z" fill="#ffffff"/></g><g><path d="M393.98291,188.61784c0.46706,-5.04862 4.93839,-8.76273 9.98702,-8.29567c5.04862,0.46705 8.76273,4.9384 8.29566,9.98702c-0.46706,5.04862 -4.93839,8.76273 -9.98702,8.29567c-5.04862,-0.46705 -8.76273,-4.9384 -8.29566,-9.98702z" fill="#ff7be1"/><path d="M397.06763,188.49347c0.31137,-3.36575 3.29228,-5.84181 6.65803,-5.53044c3.36575,0.31137 5.84182,3.29227 5.53045,6.65802c-0.31137,3.36575 -3.29228,5.84182 -6.65803,5.53045c-3.36575,-0.31137 -5.84182,-3.29228 -5.53045,-6.65803z" fill="#ffffff"/></g></g></g><path d="M246.1821,184.33333l11.66667,8c0,0 -15.69121,33 18.33333,36.66667c11.90004,1.28241 42.33333,-29 42.33333,-29v16.33333c0,0 -26.646,31.81049 -46,26.66667c-54.31378,-14.43528 -26.33333,-58.66667 -26.33333,-58.66667z" fill="#ff7be1" stroke="none" stroke-width="0" stroke-linecap="butt"/><path d="M214.52362,306.61253v-267.72501c0,0 32.72627,0 56.15261,0c39.17509,0 157.02942,0 157.02942,0v267.72501z" fill="none" stroke="none" stroke-width="0" stroke-linecap="butt"/><g stroke-width="0" stroke-linecap="butt"><path d="M378.22331,72.0888c-0.11889,2.20594 -1.55648,3.92192 -3.21093,3.83274c-1.65445,-0.08917 -2.89927,-1.94972 -2.78037,-4.15566c0.11889,-2.20594 1.55648,-3.92192 3.21093,-3.83274c1.65445,0.08917 2.89927,1.94972 2.78037,4.15566z" fill="#942c3b" stroke="none"/><path d="M384.52553,75.93354c-0.07431,1.37871 -1.58751,2.41807 -3.37984,2.32146c-1.79233,-0.0966 -3.18505,-1.29258 -3.11074,-2.67129c0.07431,-1.37871 1.58751,-2.41807 3.37984,-2.32146c1.79233,0.0966 3.18505,1.29258 3.11074,2.67129z" fill="#942c3b" stroke="none"/><path d="M390.14538,73.858c-0.10032,1.86126 -1.18754,3.31589 -2.42838,3.24902c-1.24084,-0.06688 -2.16542,-1.62994 -2.0651,-3.4912c0.10032,-1.86126 1.18754,-3.31589 2.42838,-3.24902c1.24084,0.06688 2.16542,1.62994 2.0651,3.4912z" fill="#942c3b" stroke="none"/><path d="M396.6374,83.47132c-0.1672,3.1021 -1.02922,5.57769 -1.92538,5.52939c-0.89616,-0.0483 -1.48711,-2.60221 -1.31991,-5.7043c0.1672,-3.1021 1.02922,-5.57769 1.92538,-5.52939c0.89616,0.0483 1.48711,2.60221 1.31991,5.7043z" fill="#942c3b" stroke="none"/><path d="M403.83125,93.99876c-0.05202,0.9651 -0.98832,1.69927 -2.09129,1.63982c-1.10297,-0.05945 -1.95493,-0.89 -1.90292,-1.8551c0.05202,-0.9651 0.98832,-1.69927 2.09129,-1.63982c1.10297,0.05945 1.95493,0.89 1.90292,1.8551z" fill="#942c3b" stroke="none"/><path d="M411.2262,96.14987c-0.05945,1.10297 -0.83412,1.95795 -1.73028,1.90964c-0.89616,-0.0483 -1.57445,-0.98159 -1.51501,-2.08456c0.05945,-1.10297 0.83412,-1.95795 1.73028,-1.90964c0.89616,0.0483 1.57445,0.98159 1.51501,2.08456z" fill="#942c3b" stroke="none"/><path d="M419.75424,95.85842c-0.07431,1.37871 -1.14045,2.44216 -2.38129,2.37528c-1.24084,-0.06688 -2.1865,-1.23876 -2.11219,-2.61747c0.07431,-1.37871 1.14045,-2.44216 2.38129,-2.37528c1.24084,0.06688 2.1865,1.23876 2.11219,2.61747z" fill="#942c3b" stroke="none"/><path d="M399.96487,91.41192c-0.12261,2.27487 -1.00437,4.07685 -1.96947,4.02484c-0.9651,-0.05202 -1.64807,-1.93834 -1.52546,-4.21321c0.12261,-2.27487 1.00437,-4.07685 1.96947,-4.02484c0.9651,0.05202 1.64807,1.93834 1.52546,4.21321z" fill="#942c3b" stroke="none"/><path d="M382.34606,74.56427c-0.10403,1.9302 -1.97663,3.39854 -4.18257,3.27965c-2.20594,-0.11889 -3.90987,-1.78001 -3.80584,-3.7102c0.10403,-1.9302 1.97663,-3.39854 4.18257,-3.27965c2.20594,0.11889 3.90987,1.78001 3.80584,3.7102z" fill="#942c3b" stroke="none"/><path d="M388.83664,74.9141c-0.06688,1.24084 -1.29464,2.18349 -2.74229,2.10546c-1.44765,-0.07802 -2.56698,-1.14718 -2.5001,-2.38801c0.06688,-1.24084 1.29464,-2.18349 2.74229,-2.10546c1.44765,0.07802 2.56698,1.14718 2.5001,2.38801z" fill="#942c3b" stroke="none"/><path d="M378.74277,71.74125c-0.07802,1.44765 -1.98543,2.5218 -4.2603,2.39919c-2.27487,-0.12261 -4.05577,-1.39555 -3.97775,-2.8432c0.07802,-1.44765 1.98543,-2.5218 4.2603,-2.39919c2.27487,0.12261 4.05577,1.39555 3.97775,2.8432z" fill="#942c3b" stroke="none"/><path d="M397.94686,87.04699c-0.07059,1.30978 -0.91019,2.32939 -1.87528,2.27737c-0.9651,-0.05202 -1.69024,-1.15596 -1.61964,-2.46574c0.07059,-1.30978 0.91019,-2.32939 1.87528,-2.27737c0.9651,0.05202 1.69024,1.15596 1.61964,2.46574z" fill="#942c3b" stroke="none"/><path d="M404.04725,94.63631c-0.05573,1.03403 -1.10681,1.81807 -2.34765,1.75119c-1.24084,-0.06688 -2.20156,-0.95935 -2.14583,-1.99338c0.05573,-1.03403 1.10681,-1.81807 2.34765,-1.75119c1.24084,0.06688 2.20156,0.95935 2.14583,1.99338z" fill="#942c3b" stroke="none"/><path d="M408.69618,96.63941c-0.02601,0.48255 -0.60592,0.84361 -1.29528,0.80646c-0.68936,-0.03715 -1.2271,-0.45846 -1.2011,-0.94101c0.02601,-0.48255 0.60592,-0.84361 1.29528,-0.80646c0.68936,0.03715 1.2271,0.45846 1.2011,0.94101z" fill="#942c3b" stroke="none"/><path d="M415.7264,96.26723c-0.0483,0.89616 -0.98159,1.57445 -2.08456,1.51501c-1.10297,-0.05945 -1.95795,-0.83412 -1.90964,-1.73028c0.0483,-0.89616 0.98159,-1.57445 2.08456,-1.51501c1.10297,0.05945 1.95795,0.83412 1.90964,1.73028z" fill="#942c3b" stroke="none"/><path d="M406.92854,96.91968c-0.05945,1.10297 -1.33707,1.93084 -2.85365,1.8491c-1.51658,-0.08174 -2.69782,-1.04214 -2.63838,-2.1451c0.05945,-1.10297 1.33707,-1.93084 2.85365,-1.8491c1.51658,0.08174 2.69782,1.04214 2.63838,2.1451z" fill="#942c3b" stroke="none"/><path d="M402.81924,94.19457c-0.05945,1.10297 -1.22531,1.93686 -2.60402,1.86255c-1.37871,-0.07431 -2.44819,-1.02868 -2.38874,-2.13165c0.05945,-1.10297 1.22531,-1.93686 2.60402,-1.86255c1.37871,0.07431 2.44819,1.02868 2.38874,2.13165z" fill="#942c3b" stroke="none"/><path d="M396.14413,78.68785c-0.12261,2.27487 -1.50732,4.04975 -3.09284,3.96429c-1.58552,-0.08546 -2.77144,-1.99888 -2.64883,-4.27375c0.12261,-2.27487 1.50732,-4.04975 3.09284,-3.96429c1.58552,0.08546 2.77144,1.99888 2.64883,4.27375z" fill="#942c3b" stroke="none"/><g><path d="M353.33397,113.70489c0,0 6.62737,-24.76858 17.90604,-48.65521c0.94751,3.5938 1.77025,6.2272 4.87132,8.54353c2.80199,2.09293 7.04164,2.78019 10.11841,1.13583c1.27719,-1.33181 2.5326,-2.68228 3.83624,-3.98841c0.42122,-0.42203 0.59612,-1.49892 1.17352,-1.35008c0.89968,0.23192 0.39419,1.8173 0.65084,2.71025c0.95172,3.31127 1.28417,7.02007 2.66395,10.15305c1.16502,3.32566 2.44211,6.59794 4.38001,9.54904c1.23424,1.58587 3.43199,4.76464 5.55376,5.22205c0.77505,0.16708 2.25575,-0.4686 3.03729,-0.63893c1.95134,-0.4253 3.98381,-0.72527 5.85669,-1.42161c0.38651,-0.14371 1.72005,-1.22591 2.06286,-1.144c0.20925,0.05 0.91111,1.27605 1.0792,1.49462c1.59569,2.0748 3.30356,3.53985 5.32429,4.78298c-9.9165,20.75063 -21.12342,37.38329 -21.12342,37.38329z" fill="#90003f" stroke="#000000"/><path d="M379.24207,119.12406c-11.84374,-6.20214 -7.76265,-24.69308 0.26328,-43.87962c2.25894,0.63626 4.73479,0.54792 6.72439,-0.5154c1.27719,-1.33181 2.5326,-2.68228 3.83624,-3.98841c0.42122,-0.42203 0.59612,-1.49892 1.17352,-1.35008c0.89968,0.23192 0.39419,1.8173 0.65084,2.71025c0.95172,3.31127 1.28417,7.02007 2.66395,10.15305c1.16502,3.32566 2.44211,6.59794 4.38001,9.54904c1.23424,1.58587 3.43199,4.76464 5.55376,5.22205c0.77505,0.16708 2.25575,-0.4686 3.03729,-0.63893c1.73979,-0.37919 3.54409,-0.65875 5.24226,-1.20845c-8.32755,17.38215 -18.3293,31.90425 -33.52555,23.94652z" fill="#979797" stroke="none"/></g></g><g stroke-linecap="butt"><path d="M286.35186,319.07227l32.51709,-131.8421l37.80406,-0.15789l-3.82116,132z" fill="#ff7be1" stroke="#000000" stroke-width="0"/><path d="M306.4644,237.52505c4.63201,-18.7807 12.40456,-50.29488 12.40456,-50.29488l37.80406,-0.15789c0,0 -0.92594,31.98633 -1.47422,50.9262c-0.00834,0.28827 -48.8515,0.00137 -48.73439,-0.47343z" fill="#da5cb1" stroke="#000000" stroke-width="0"/><path d="M308.87974,227.73195c3.99754,-16.20821 9.98923,-40.50179 9.98923,-40.50179l37.80406,-0.15789c0,0 -0.72277,24.96751 -1.19988,41.44929c-0.00337,0.11664 -46.66734,-0.4898 -46.5934,-0.78961z" fill="#940039" stroke="#000000" stroke-width="0"/><path d="M311.10551,218.70743c3.31765,-13.4516 7.76345,-31.47726 7.76345,-31.47726l37.80406,-0.15789c0,0 -0.5164,17.83861 -0.90332,31.20479c-0.00628,0.21738 -44.70395,0.59162 -44.66417,0.43036z" fill="#7c0000" stroke="#000000" stroke-width="0"/><path d="M314.99896,219.16667c-0.09097,0.69036 -0.72436,1.25 -1.41472,1.25c-0.08006,0 -0.15736,-0.00753 -0.23133,-0.02191c-0.19586,0.06809 -0.40254,0.10524 -0.61298,0.10524c-0.9665,0 -1.64675,-0.7835 -1.51938,-1.75c0.12736,-0.9665 1.01412,-1.75 1.98062,-1.75c0.79013,0 1.38895,0.52364 1.5116,1.24283c0.22054,0.2286 0.33443,0.55785 0.28621,0.92384z" fill="#7c0000" stroke="none" stroke-width="0.5"/><path d="M351.68243,222.83334c0.01134,-0.08608 0.03113,-0.17014 0.0584,-0.25133c-0.65941,-0.03033 -1.1158,-0.57778 -1.02739,-1.24867c0.07111,-0.53959 0.47358,-0.99932 0.97563,-1.1744c-0.13804,-0.07149 -0.26189,-0.16308 -0.36846,-0.27121c-0.34612,0.27711 -0.77718,0.44561 -1.22539,0.44561c-0.27463,0 -0.52616,-0.06327 -0.74259,-0.17601c-0.35792,0.3148 -0.81972,0.50934 -1.30133,0.50934c-0.74683,0 -1.32274,-0.46782 -1.4872,-1.1264c-0.26853,0.32798 -0.67462,0.54307 -1.10261,0.54307c-0.69036,0 -1.17625,-0.55964 -1.08528,-1.25c0.09097,-0.69036 0.72436,-1.25 1.41472,-1.25c0.45596,0 0.82272,0.24412 0.993,0.60879c0.35523,-0.60493 1.0205,-1.02546 1.72857,-1.02546c0.27463,0 0.52616,0.06327 0.74259,0.17601c0.35792,-0.3148 0.81972,-0.50934 1.30133,-0.50934c0.4482,0 0.83485,0.1685 1.10795,0.44561c0.34612,-0.27711 0.77718,-0.44561 1.22539,-0.44561c0.31544,0 0.60039,0.08345 0.83672,0.22949c0.15387,-0.04095 0.31316,-0.06283 0.47466,-0.06283c0.9665,0 1.64675,0.7835 1.51938,1.75c-0.12736,0.9665 -1.01412,1.75 -1.98062,1.75c-0.31544,0 -0.60039,-0.08345 -0.83672,-0.22949c-0.03509,0.00933 -0.07045,0.01768 -0.10606,0.025c0.30401,0.22447 0.47326,0.60552 0.41628,1.03783c-0.01134,0.08608 -0.03112,0.17014 -0.05839,0.25133c0.65941,0.03033 1.1158,0.57778 1.02739,1.24867c-0.09097,0.69036 -0.72436,1.25 -1.41472,1.25c-0.69036,0 -1.17625,-0.55964 -1.08528,-1.25z" fill="#7c0000" stroke="none" stroke-width="0.5"/><path d="M333.69857,218.91667c0.12736,-0.9665 1.01412,-1.75 1.98062,-1.75c0.77188,0 1.36117,0.49973 1.50233,1.19329c0.3725,-0.51477 0.97888,-0.85996 1.6204,-0.85996c0.59378,0 1.07952,0.29573 1.33632,0.74793c0.28338,-0.15743 0.60264,-0.24793 0.93112,-0.24793c0.9665,0 1.64675,0.7835 1.51938,1.75c-0.12736,0.9665 -1.01412,1.75 -1.98062,1.75c-0.59378,0 -1.07952,-0.29573 -1.33632,-0.74793c-0.28338,0.15743 -0.60264,0.24793 -0.93112,0.24793c-0.77188,0 -1.36117,-0.49972 -1.50233,-1.19329c-0.03425,0.04734 -0.07048,0.09324 -0.10854,0.13757c-0.37578,0.43777 -0.92933,0.72239 -1.51186,0.72239c-0.9665,0 -1.64675,-0.7835 -1.51938,-1.75z" fill="#7c0000" stroke="none" stroke-width="0.5"/><path d="M330.11976,218.25c0.12736,-0.9665 1.01412,-1.75 1.98062,-1.75c0.9665,0 1.64675,0.7835 1.51938,1.75c-0.12736,0.9665 -1.01412,1.75 -1.98062,1.75c-0.9665,0 -1.64675,-0.7835 -1.51938,-1.75z" fill="#7c0000" stroke="none" stroke-width="0.5"/><path d="M326.35427,219c-0.09097,0.69036 -0.72436,1.25 -1.41472,1.25c-0.38125,0 -0.70015,-0.17068 -0.89395,-0.4398c-0.36704,-0.0615 -0.67821,-0.24228 -0.8986,-0.50212c-0.36034,0.32414 -0.82955,0.52526 -1.31922,0.52526c-0.60066,0 -1.09075,-0.30262 -1.34514,-0.76371c-0.23286,0.73612 -0.90514,1.31079 -1.66583,1.41386c-0.03287,0.0292 -0.06663,0.05739 -0.10119,0.08449c-0.36914,0.36692 -0.87121,0.59868 -1.39687,0.59868c-0.9665,0 -1.64675,-0.7835 -1.51938,-1.75c0.06928,-0.52566 0.36318,-0.99719 0.77238,-1.31797c0.31163,-0.30976 0.71799,-0.52319 1.15332,-0.58218c0.35904,-0.31901 0.82418,-0.51651 1.30944,-0.51651c0.60066,0 1.09075,0.30262 1.34515,0.7637c0.25746,-0.81386 1.05204,-1.43036 1.90937,-1.43036c0.48967,0 0.90587,0.20111 1.18079,0.52525c0.36034,-0.32414 0.82954,-0.52525 1.31921,-0.52525c0.9665,0 1.64675,0.7835 1.51938,1.75c-0.01166,0.08849 -0.0297,0.17546 -0.05356,0.26042c0.01615,0.03322 0.03065,0.06748 0.04343,0.10267c-0.00928,-0.11714 -0.00627,-0.2386 0.01014,-0.36309c0.12736,-0.9665 1.01412,-1.75 1.98062,-1.75c0.9665,0 1.64675,0.7835 1.51938,1.75c-0.12736,0.9665 -1.01412,1.75 -1.98062,1.75c-0.71424,0 -1.27215,-0.42789 -1.46332,-1.0413c0.00241,0.06763 -0.00084,0.13711 -0.01018,0.20797z" fill="#7c0000" stroke="none" stroke-width="0.5"/><path d="M310.70959,229.58334c-0.02563,0 -0.05098,-0.00078 -0.07602,-0.0023c-0.03012,0.00152 -0.06035,0.0023 -0.09065,0.0023c-0.9665,0 -1.64675,-0.7835 -1.51938,-1.75c0.12736,-0.9665 1.01412,-1.75 1.98062,-1.75c0.05622,0 0.11146,0.00264 0.16564,0.00783c0.05555,-0.00519 0.11148,-0.00783 0.1677,-0.00783c0.41194,0 0.77188,0.14232 1.03944,0.38049c0.37563,-0.43292 0.92576,-0.71383 1.50449,-0.71383c0.32128,0 0.61093,0.08658 0.8498,0.23768c0.33659,-0.25249 0.74666,-0.40435 1.17217,-0.40435c0.9665,0 1.64675,0.7835 1.51938,1.75c-0.01432,0.10863 -0.03822,0.21496 -0.07076,0.31811c0.34855,-0.62772 1.02834,-1.06811 1.75294,-1.06811c0.9665,0 1.64675,0.7835 1.51938,1.75c-0.12736,0.9665 -1.01412,1.75 -1.98062,1.75c-0.9665,0 -1.64675,-0.7835 -1.51938,-1.75c0.01432,-0.10863 0.03822,-0.21496 0.07076,-0.31811c-0.34855,0.62772 -1.02834,1.06811 -1.75294,1.06811c-0.32128,0 -0.61094,-0.08658 -0.84981,-0.23768c-0.33659,0.25249 -0.74665,0.40435 -1.17216,0.40435c-0.41194,0 -0.77189,-0.14233 -1.03945,-0.3805c-0.37563,0.43292 -0.92575,0.71384 -1.50448,0.71384c-0.0303,0 -0.06032,-0.00078 -0.09004,-0.0023c-0.02544,0.00152 -0.051,0.0023 -0.07662,0.0023z" fill="#940039" stroke="none" stroke-width="0.5"/><path d="M329.18116,229.16667c-0.09097,0.69036 -0.72436,1.25 -1.41472,1.25c-0.26632,0 -0.50223,-0.08329 -0.6863,-0.22525c-0.14882,0.03822 -0.30257,0.05858 -0.45839,0.05858c-0.53411,0 -0.98081,-0.23928 -1.25209,-0.61649c-0.15402,-0.21418 -0.25151,-0.47281 -0.27634,-0.75736c-0.01522,-0.00343 -0.03035,-0.00709 -0.04537,-0.01094c0.08538,0.18606 0.11983,0.40306 0.0893,0.63479c-0.09097,0.69036 -0.72436,1.25 -1.41472,1.25c-0.69036,0 -1.17625,-0.55964 -1.08528,-1.25c0.02861,-0.21707 0.11084,-0.42122 0.23161,-0.59911c-0.07855,0.0104 -0.15804,0.01577 -0.23808,0.01577c-0.9665,0 -1.64675,-0.7835 -1.51938,-1.75c0.12736,-0.9665 1.01412,-1.75 1.98062,-1.75c0.58252,0 1.06108,0.28462 1.32148,0.72239c0.37578,-0.43777 0.92933,-0.72239 1.51186,-0.72239c0.83738,0 1.45988,0.58814 1.52842,1.37386c0.61446,0.13859 1.05567,0.61948 1.14658,1.23879c0.40516,0.19717 0.64737,0.63228 0.58081,1.13735zM324.14264,228.19428c-0.01639,0.01908 -0.0331,0.03787 -0.05015,0.05636c0.03026,0.00097 0.0601,0.00303 0.08949,0.00613c-0.01363,-0.02046 -0.02674,-0.0413 -0.03934,-0.0625z" fill="#940039" stroke="none" stroke-width="0.5"/><path d="M332.57134,230c0.02316,-0.17574 0.08146,-0.343 0.16691,-0.49472c-0.17049,0.05073 -0.34818,0.07806 -0.52866,0.07806c-0.9665,0 -1.64675,-0.7835 -1.51938,-1.75c0.12736,-0.9665 1.01412,-1.75 1.98062,-1.75c0.86161,0 1.49574,0.62268 1.53299,1.44259c0.29529,-0.17464 0.63246,-0.27592 0.97995,-0.27592c0.9665,0 1.64675,0.7835 1.51938,1.75c-0.12736,0.96647 -1.01407,1.74995 -1.98053,1.75c-0.26806,0.30361 -0.65703,0.5 -1.06598,0.5c-0.69036,0 -1.17625,-0.55964 -1.08528,-1.25z" fill="#940039" stroke="none" stroke-width="0.5"/><path d="M342.27159,226.58334c0.9665,0 1.64675,0.7835 1.51938,1.75c-0.01026,0.0779 -0.02547,0.15461 -0.04524,0.22982c-0.00144,0.08507 -0.00812,0.17505 -0.02066,0.27018c-0.23062,1.75 -1.98062,1.75 -1.98062,1.75h-2.16667c0,0 -1.75,0 -1.51938,-1.75c0.23062,-1.75 1.98062,-1.75 1.98062,-1.75h0.94192c0.35639,-0.30929 0.81381,-0.5 1.29063,-0.5z" fill="#940039" stroke="none" stroke-width="0.5"/><path d="M355.22509,228.83334c-0.09097,0.69036 -0.72436,1.25 -1.41472,1.25c-0.02738,0 -0.05443,-0.00088 -0.08116,-0.00261c-0.24208,0.10853 -0.50503,0.16928 -0.77415,0.16928c-0.4553,0 -0.84707,-0.17388 -1.12082,-0.45884c-0.21218,0.08096 -0.43812,0.12551 -0.66858,0.12551c-0.4482,0 -0.83485,-0.1685 -1.10795,-0.44561c-0.34612,0.27711 -0.77718,0.44561 -1.22539,0.44561c-0.52566,0 -0.96665,-0.23176 -1.23909,-0.59868c-0.30646,0.73075 -1.05041,1.26535 -1.84876,1.26535c-0.9665,0 -1.64675,-0.7835 -1.51938,-1.75c0.12736,-0.9665 1.01412,-1.75 1.98062,-1.75c0.52566,0 0.96665,0.23176 1.23909,0.59868c0.30646,-0.73075 1.05041,-1.26535 1.84876,-1.26535c0.4482,0 0.83485,0.1685 1.10795,0.44561c0.34612,-0.27711 0.77718,-0.44561 1.22539,-0.44561c0.4553,0 0.84707,0.17388 1.12082,0.45884c0.21218,-0.08096 0.43812,-0.12551 0.66858,-0.12551c0.7459,0 1.32131,0.46667 1.48659,1.12396c0.244,0.2293 0.373,0.57397 0.32222,0.95937z" fill="#940039" stroke="none" stroke-width="0.5"/><path d="M306.32847,238.16667c0.12736,-0.9665 1.01412,-1.75 1.98062,-1.75c0.9665,0 1.64675,0.7835 1.51938,1.75c-0.12736,0.9665 -1.01412,1.75 -1.98062,1.75c-0.9665,0 -1.64675,-0.7835 -1.51938,-1.75z" fill="#da5cb1" stroke="none" stroke-width="0.5"/><path d="M311.32847,238.16667c0.12736,-0.9665 1.01412,-1.75 1.98062,-1.75c0.9665,0 1.64675,0.7835 1.51938,1.75c-0.12736,0.9665 -1.01412,1.75 -1.98062,1.75c-0.9665,0 -1.64675,-0.7835 -1.51938,-1.75z" fill="#da5cb1" stroke="none" stroke-width="0.5"/><path d="M321.16438,236.25c0.9665,0 1.64675,0.7835 1.51938,1.75c-0.12736,0.9665 -1.01412,1.75 -1.98062,1.75c-0.77985,0 -1.37334,-0.51011 -1.50657,-1.21487c-0.31898,0.70476 -1.04691,1.21487 -1.82677,1.21487c-0.9665,0 -1.64675,-0.7835 -1.51938,-1.75c0.12736,-0.9665 1.01412,-1.75 1.98062,-1.75c0.77985,0 1.37334,0.51011 1.50657,1.21487c0.31898,-0.70476 1.04691,-1.21487 1.82677,-1.21487z" fill="#da5cb1" stroke="none" stroke-width="0.5"/><path d="M328.74062,238.83334c-0.09097,0.69036 -0.72436,1.25 -1.41472,1.25c-0.2814,0 -0.52884,-0.09299 -0.71707,-0.24991c-0.09102,0.69031 -0.7244,1.24991 -1.41472,1.24991c-0.69036,0 -1.17625,-0.55964 -1.08528,-1.25c0.01969,-0.14936 0.06475,-0.29261 0.1303,-0.42539c-0.87236,-0.08815 -1.46432,-0.8341 -1.34477,-1.74129c0.12736,-0.9665 1.01412,-1.75 1.98062,-1.75c0.20175,0 0.39103,0.03414 0.56309,0.09696c0.29021,-0.16709 0.61963,-0.26362 0.95887,-0.26362c0.9665,0 1.64675,0.7835 1.51938,1.75c-0.00477,0.03616 -0.0106,0.07206 -0.01745,0.10768c0.55708,0.11455 0.92159,0.61977 0.84175,1.22566z" fill="#da5cb1" stroke="none" stroke-width="0.5"/><path d="M329.93829,237.33334c0.12736,-0.9665 1.01412,-1.75 1.98062,-1.75c0.9665,0 1.64675,0.7835 1.51938,1.75c-0.12736,0.9665 -1.01412,1.75 -1.98062,1.75c-0.9665,0 -1.64675,-0.7835 -1.51938,-1.75z" fill="#da5cb1" stroke="none" stroke-width="0.5"/><path d="M333.25353,240c0.07703,-0.58454 0.54295,-1.07538 1.10307,-1.21211c-0.42699,-0.31403 -0.66488,-0.84829 -0.58498,-1.45456c0.12736,-0.9665 1.01412,-1.75 1.98062,-1.75c0.9665,0 1.64675,0.7835 1.51938,1.75c-0.11963,0.90781 -0.90924,1.65418 -1.80561,1.74147c0.2214,0.22866 0.33585,0.55848 0.28753,0.9252c-0.09097,0.69036 -0.72436,1.25 -1.41472,1.25c-0.69036,0 -1.17625,-0.55964 -1.08528,-1.25z" fill="#da5cb1" stroke="none" stroke-width="0.5"/><path d="M337.31554,237c0.12736,-0.9665 1.01412,-1.75 1.98062,-1.75c0.9665,0 1.64675,0.7835 1.51938,1.75c-0.12736,0.9665 -1.01412,1.75 -1.98062,1.75c-0.9665,0 -1.64675,-0.7835 -1.51938,-1.75z" fill="#da5cb1" stroke="none" stroke-width="0.5"/><path d="M347.47576,236.41667c0.9665,0 1.64675,0.7835 1.51938,1.75c-0.12736,0.9665 -1.01412,1.75 -1.98062,1.75c-0.67289,0 -1.20703,-0.37977 -1.42648,-0.93668c-0.37585,0.46463 -0.94816,0.77001 -1.55155,0.77001c-0.9665,0 -1.64675,-0.7835 -1.51938,-1.75c0.12736,-0.9665 1.01412,-1.75 1.98062,-1.75c0.67289,0 1.20702,0.37978 1.42647,0.93668c0.37585,-0.46463 0.94817,-0.77002 1.55156,-0.77002z" fill="#da5cb1" stroke="none" stroke-width="0.5"/><path d="M353.85301,236.08334c0.9665,0 1.64675,0.7835 1.51938,1.75c-0.12736,0.9665 -1.01412,1.75 -1.98062,1.75c-0.618,0 -1.11896,-0.32034 -1.3666,-0.80403c-0.35117,0.292 -0.79456,0.4707 -1.25615,0.4707c-0.9665,0 -1.64675,-0.7835 -1.51938,-1.75c0.12736,-0.9665 1.01412,-1.75 1.98062,-1.75c0.618,0 1.11896,0.32034 1.3666,0.80403c0.35117,-0.29199 0.79456,-0.4707 1.25615,-0.4707z" fill="#da5cb1" stroke="none" stroke-width="0.5"/><path d="M316.40065,221.94012c0.59251,1.01717 -0.5204,1.74371 -0.5204,1.74371l-1.27648,0.83333c0,0 -1.11291,0.72655 -1.70542,-0.29062c-0.59251,-1.01717 0.5204,-1.74372 0.5204,-1.74372l1.27649,-0.83334c0,0 1.11291,-0.72654 1.70542,0.29062z" fill="#7c0000" stroke="none" stroke-width="0.5"/><path d="M329.64755,221.83334c0.09097,-0.69036 0.72436,-1.25 1.41472,-1.25c0.69036,0 1.17625,0.55964 1.08528,1.25c-0.09097,0.69036 -0.72436,1.25 -1.41472,1.25c-0.69036,0 -1.17625,-0.55964 -1.08528,-1.25z" fill="#7c0000" stroke="none" stroke-width="0.5"/><path d="M332.18243,222.83334c0.09097,-0.69036 0.72436,-1.25 1.41472,-1.25c0.69036,0 1.17625,0.55964 1.08528,1.25c-0.09097,0.69036 -0.72436,1.25 -1.41472,1.25c-0.69036,0 -1.17625,-0.55964 -1.08528,-1.25z" fill="#7c0000" stroke="none" stroke-width="0.5"/><path d="M340.8491,222.83334c0.09097,-0.69036 0.72436,-1.25 1.41472,-1.25c0.69036,0 1.17625,0.55964 1.08528,1.25c-0.09097,0.69036 -0.72436,1.25 -1.41472,1.25c-0.69036,0 -1.17625,-0.55964 -1.08528,-1.25z" fill="#7c0000" stroke="none" stroke-width="0.5"/><path d="M311.05326,232.66667c0.09097,-0.69036 0.72436,-1.25 1.41472,-1.25c0.69036,0 1.17625,0.55964 1.08528,1.25c-0.09097,0.69036 -0.72436,1.25 -1.41472,1.25c-0.69036,0 -1.17625,-0.55964 -1.08528,-1.25z" fill="#940039" stroke="none" stroke-width="0.5"/><path d="M317.0623,231.33334c0.09097,-0.69036 0.72436,-1.25 1.41472,-1.25c0.69036,0 1.17625,0.55964 1.08528,1.25c-0.09097,0.69036 -0.72436,1.25 -1.41472,1.25c-0.69036,0 -1.17625,-0.55964 -1.08528,-1.25z" fill="#940039" stroke="none" stroke-width="0.5"/><path d="M348.00933,233c0.09097,-0.69036 0.72436,-1.25 1.41472,-1.25c0.69036,0 1.17625,0.55964 1.08528,1.25c-0.09097,0.69036 -0.72436,1.25 -1.41472,1.25c-0.69036,0 -1.17625,-0.55964 -1.08528,-1.25z" fill="#940039" stroke="none" stroke-width="0.5"/><path d="M350.66308,231.83334c0.09097,-0.69036 0.72436,-1.25 1.41472,-1.25c0.69036,0 1.17625,0.55964 1.08528,1.25c-0.09097,0.69036 -0.72436,1.25 -1.41472,1.25c-0.69036,0 -1.17625,-0.55964 -1.08528,-1.25z" fill="#940039" stroke="none" stroke-width="0.5"/><path d="M338.05326,232.66667c0.09097,-0.69036 0.72436,-1.25 1.41472,-1.25c0.69036,0 1.17625,0.55964 1.08528,1.25c-0.09097,0.69036 -0.72436,1.25 -1.41472,1.25c-0.69036,0 -1.17625,-0.55964 -1.08528,-1.25z" fill="#940039" stroke="none" stroke-width="0.5"/><path d="M342.0791,235c0.09097,-0.69036 0.72436,-1.25 1.41472,-1.25c0.69036,0 1.17625,0.55964 1.08528,1.25c-0.09097,0.69036 -0.72436,1.25 -1.41472,1.25c-0.69036,0 -1.17625,-0.55964 -1.08528,-1.25z" fill="#940039" stroke="none" stroke-width="0.5"/><path d="M309.98093,243.33334c0.09097,-0.69036 0.72436,-1.25 1.41472,-1.25c0.69036,0 1.17625,0.55964 1.08528,1.25c-0.09097,0.69036 -0.72436,1.25 -1.41472,1.25c-0.69036,0 -1.17625,-0.55964 -1.08528,-1.25z" fill="#da5cb1" stroke="none" stroke-width="0.5"/><path d="M313.50678,245.66667c0.09097,-0.69036 0.72436,-1.25 1.41472,-1.25c0.69036,0 1.17625,0.55964 1.08528,1.25c-0.09097,0.69036 -0.72436,1.25 -1.41472,1.25c-0.69036,0 -1.17625,-0.55964 -1.08528,-1.25z" fill="#da5cb1" stroke="none" stroke-width="0.5"/><path d="M318.97189,244.66667c0.09097,-0.69036 0.72436,-1.25 1.41472,-1.25c0.69036,0 1.17625,0.55964 1.08528,1.25c-0.09097,0.69036 -0.72436,1.25 -1.41472,1.25c-0.69036,0 -1.17625,-0.55964 -1.08528,-1.25z" fill="#da5cb1" stroke="none" stroke-width="0.5"/><path d="M338.26645,241.16667c0.09097,-0.69036 0.72436,-1.25 1.41472,-1.25c0.69036,0 1.17625,0.55964 1.08528,1.25c-0.09097,0.69036 -0.72436,1.25 -1.41472,1.25c-0.69036,0 -1.17625,-0.55964 -1.08528,-1.25z" fill="#da5cb1" stroke="none" stroke-width="0.5"/><path d="M343.19153,243c0.09097,-0.69036 0.72436,-1.25 1.41472,-1.25c0.69036,0 1.17625,0.55964 1.08528,1.25c-0.09097,0.69036 -0.72436,1.25 -1.41472,1.25c-0.69036,0 -1.17625,-0.55964 -1.08528,-1.25z" fill="#da5cb1" stroke="none" stroke-width="0.5"/><path d="M349.22642,244c0.09097,-0.69036 0.72436,-1.25 1.41472,-1.25c0.69036,0 1.17625,0.55964 1.08528,1.25c-0.09097,0.69036 -0.72436,1.25 -1.41472,1.25c-0.69036,0 -1.17625,-0.55964 -1.08528,-1.25z" fill="#da5cb1" stroke="none" stroke-width="0.5"/><path d="M351.81038,240.83334c0.09097,-0.69036 0.72436,-1.25 1.41472,-1.25c0.69036,0 1.17625,0.55964 1.08528,1.25c-0.09097,0.69036 -0.72436,1.25 -1.41472,1.25c-0.69036,0 -1.17625,-0.55964 -1.08528,-1.25z" fill="#da5cb1" stroke="none" stroke-width="0.5"/><path d="M314.7871,225.83334c0.05459,-0.41422 0.43462,-0.75 0.84884,-0.75c0.41422,0 0.70575,0.33578 0.65116,0.75c-0.05459,0.41422 -0.43462,0.75 -0.84884,0.75c-0.41422,0 -0.70575,-0.33578 -0.65116,-0.75z" fill="#7c0000" stroke="none" stroke-width="0.5"/><path d="M328.20828,225.16667c0.05459,-0.41422 0.43462,-0.75 0.84884,-0.75c0.41422,0 0.70575,0.33578 0.65116,0.75c-0.05459,0.41422 -0.43462,0.75 -0.84884,0.75c-0.41422,0 -0.70575,-0.33578 -0.65116,-0.75z" fill="#7c0000" stroke="none" stroke-width="0.5"/><path d="M339.40983,226.16667c0.05459,-0.41422 0.43462,-0.75 0.84884,-0.75c0.41422,0 0.70575,0.33578 0.65116,0.75c-0.05459,0.41422 -0.43462,0.75 -0.84884,0.75c-0.41422,0 -0.70575,-0.33578 -0.65116,-0.75z" fill="#7c0000" stroke="none" stroke-width="0.5"/><path d="M352.96669,227c0.05459,-0.41422 0.43462,-0.75 0.84884,-0.75c0.41422,0 0.70575,0.33578 0.65116,0.75c-0.05459,0.41422 -0.43462,0.75 -0.84884,0.75c-0.41422,0 -0.70575,-0.33578 -0.65116,-0.75z" fill="#7c0000" stroke="none" stroke-width="0.5"/><path d="M312.49125,235.66667c0.05459,-0.41422 0.43462,-0.75 0.84884,-0.75c0.41422,0 0.70575,0.33578 0.65116,0.75c-0.05459,0.41422 -0.43462,0.75 -0.84884,0.75c-0.41422,0 -0.70575,-0.33578 -0.65116,-0.75z" fill="#940039" stroke="none" stroke-width="0.5"/><path d="M317.10107,234.83334c0.05459,-0.41422 0.43462,-0.75 0.84884,-0.75c0.41422,0 0.70575,0.33578 0.65116,0.75c-0.05459,0.41422 -0.43462,0.75 -0.84884,0.75c-0.41422,0 -0.70575,-0.33578 -0.65116,-0.75z" fill="#940039" stroke="none" stroke-width="0.5"/><path d="M338.6928,236.66667c0.05459,-0.41422 0.43462,-0.75 0.84884,-0.75c0.41422,0 0.70575,0.33578 0.65116,0.75c-0.05459,0.41422 -0.43462,0.75 -0.84884,0.75c-0.41422,0 -0.70575,-0.33578 -0.65116,-0.75z" fill="#940039" stroke="none" stroke-width="0.5"/><path d="M346.46025,237.16667c0.05459,-0.41422 0.43462,-0.75 0.84884,-0.75c0.41422,0 0.70575,0.33578 0.65116,0.75c-0.05459,0.41422 -0.43462,0.75 -0.84884,0.75c-0.41422,0 -0.70575,-0.33578 -0.65116,-0.75z" fill="#940039" stroke="none" stroke-width="0.5"/><path d="M317.49257,250.83334c0.05459,-0.41422 0.43462,-0.75 0.84884,-0.75c0.41422,0 0.70575,0.33578 0.65116,0.75c-0.05459,0.41422 -0.43462,0.75 -0.84884,0.75c-0.41422,0 -0.70575,-0.33578 -0.65116,-0.75z" fill="#da5cb1" stroke="none" stroke-width="0.5"/><path d="M326.43184,247.5c0.05459,-0.41422 0.43462,-0.75 0.84884,-0.75c0.41422,0 0.70575,0.33578 0.65116,0.75c-0.05459,0.41422 -0.43462,0.75 -0.84884,0.75c-0.41422,0 -0.70575,-0.33578 -0.65116,-0.75z" fill="#da5cb1" stroke="none" stroke-width="0.5"/><path d="M333.82718,244.5c0.05459,-0.41422 0.43462,-0.75 0.84884,-0.75c0.41422,0 0.70575,0.33578 0.65116,0.75c-0.05459,0.41422 -0.43462,0.75 -0.84884,0.75c-0.41422,0 -0.70575,-0.33578 -0.65116,-0.75z" fill="#da5cb1" stroke="none" stroke-width="0.5"/><path d="M349.76906,250c0.05459,-0.41422 0.43462,-0.75 0.84884,-0.75c0.41422,0 0.70575,0.33578 0.65116,0.75c-0.05459,0.41422 -0.43462,0.75 -0.84884,0.75c-0.41422,0 -0.70575,-0.33578 -0.65116,-0.75z" fill="#da5cb1" stroke="none" stroke-width="0.5"/></g><g stroke-width="0"><path d="M294.44056,131.75282c0,0 -52.52037,-99.60745 -10.1569,-115.42375c42.36347,-15.8163 59.82892,96.87882 59.82892,96.87882" fill="#90003f" stroke="#000000" stroke-linecap="round"/><path d="M320.91913,67.92071c6.85996,21.44643 10.17342,42.65145 -3.14702,47.89026c-18.46446,7.26189 -26.78705,-14.63022 -33.64701,-36.07665c-6.85996,-21.44643 -10.57529,-47.81048 3.38256,-52.26039c14.93451,-4.76128 26.55151,19.00035 33.41147,40.44678z" fill="#979797" stroke="none" stroke-linecap="butt"/></g><path d="" fill="none" stroke="#000000" stroke-width="0" stroke-linecap="round"/><g><path d="M282.3652,152.61873c1.79228,-33.25359 31.96344,-58.6631 67.38914,-56.75374c8.80853,0.47476 43.31784,-11.88471 43.31784,-11.88471c0,0 -5.86655,19.81631 -1.31063,22.48912c4.49008,2.63418 28.4515,-6.56645 28.4515,-6.56645c0,0 -15.64927,17.9322 -13.65423,21.95416c3.00316,6.05432 29.92059,10.83853 29.92059,10.83853c0,0 -23.41692,17.6123 -25.14849,24.80681c-1.78292,7.40781 14.60052,19.01885 14.60052,19.01885c0,0 -10.77416,12.16682 -11.82442,17.23446c-1.02463,4.94398 5.59785,12.80957 5.59785,12.80957c0,0 -17.97792,1.92244 -23.47178,5.21134c-3.83198,2.29402 -0.43613,6.95703 -0.43613,6.95703c0,0 -16.61047,-2.74285 -24.71306,-3.6521c-1.68886,-0.18952 -20.61033,1.59387 -27.82001,1.20528c-35.4257,-1.90936 -62.69099,-30.41456 -60.8987,-63.66814z" fill="#ff7be1" stroke="#000000" stroke-width="0" stroke-linecap="butt"/><path d="M283.46196,144.13145c5.98446,-28.9803 33.94836,-50.0097 66.29238,-48.26644c8.80853,0.47476 43.31784,-11.88471 43.31784,-11.88471c0,0 -5.86655,19.81631 -1.31063,22.48912c4.49008,2.63418 28.4515,-6.56645 28.4515,-6.56645c0,0 -15.64927,17.9322 -13.65423,21.95416c3.00316,6.05432 29.92059,10.83853 29.92059,10.83853c0,0 -15.31071,11.51547 -22.08716,19.72727c-0.11922,0.14447 -130.93663,-8.26073 -130.93029,-8.29148z" fill="#da5cb1" stroke="#000000" stroke-width="0" stroke-linecap="butt"/><path d="M286.95561,133.06935c9.97506,-23.08923 34.73855,-38.71672 62.79873,-37.20434c8.80853,0.47476 43.31784,-11.88471 43.31784,-11.88471c0,0 -5.86655,19.81631 -1.31063,22.48912c4.49008,2.63418 28.4515,-6.56645 28.4515,-6.56645c0,0 -15.64927,17.9322 -13.65423,21.95416c3.00316,6.05432 29.92059,10.83853 29.92059,10.83853c0,0 -6.8571,5.15736 -13.42447,11.03046c-0.13523,0.12094 -136.20326,-10.4162 -136.09933,-10.65676z" fill="#940039" stroke="#000000" stroke-width="0" stroke-linecap="butt"/><path d="M293.59388,121.54316c12.22377,-16.56686 33.07657,-26.92232 56.16046,-25.67816c8.80853,0.47476 43.31784,-11.88471 43.31784,-11.88471c0,0 -5.86655,19.81631 -1.31063,22.48912c4.49008,2.63418 28.4515,-6.56645 28.4515,-6.56645c0,0 -15.64927,17.9322 -13.65423,21.95416c2.01908,4.07043 14.59807,7.55331 22.78868,9.4076c2.30415,0.52164 -135.81185,-9.64263 -135.75361,-9.72156z" fill="#7c0000" stroke="#000000" stroke-width="0" stroke-linecap="butt"/><path d="M349.75433,95.86501c8.80852,0.47476 42.54104,-10.31184 42.54104,-10.31184c0,0 -5.79218,18.43626 -1.23625,21.10907c4.49008,2.63418 27.23948,-5.47839 27.23948,-5.47839c0,0 -14.43724,16.84414 -12.4422,20.8661c3.00316,6.05432 29.9206,10.83853 29.9206,10.83853c0,0 -23.41692,17.6123 -25.1485,24.80682c-1.78291,7.40781 14.60053,19.01886 14.60053,19.01886c0,0 -11.00416,12.15442 -12.05442,17.22206c-1.02464,4.94397 4.94502,12.08236 4.94502,12.08236c0,0 -17.32508,2.64964 -22.81894,5.93855c-3.83198,2.29402 -1.03938,5.30979 -1.03938,5.30979c0,0 -14.95082,-3.5761 -23.05342,-4.48535c-1.68886,-0.18952 -0.83658,-1.49254 -8.04625,-1.88112c-10.44313,-0.56286 -31.99497,1.97336 -35.0152,-1.31135c-0.89952,-0.97829 -2.49253,-7.19536 2.08417,-8.88173c3.47414,-1.28012 11.61503,-0.40163 11.61503,-0.40163c0,0 -1.67365,-4.37099 1.34436,-6.83038c3.24161,-2.64159 19.21096,-6.34241 19.21096,-6.34241c0,0 -12.52284,-4.91267 -16.96959,-12.5086c-3.13931,-5.36257 1.28228,-13.2604 1.4543,-16.452c0,0 -3.04406,-12.08494 -1.66175,-15.86886c1.42638,-3.90453 10.092,-7.20782 10.092,-7.20782c0,0 1.22113,-5.65321 0.41652,-8.99447c-1.22445,-5.08469 12.66038,-12.54622 12.66038,-12.54622c0,0 -30.85763,-18.34852 -18.63847,-17.68994z" fill="#a93232" stroke="#000000" stroke-width="0" stroke-linecap="butt"/><path d="M349.75433,95.86501c8.80852,0.47476 42.54104,-10.31184 42.54104,-10.31184c0,0 -5.79218,18.43626 -1.23625,21.10907c4.49008,2.63418 27.23948,-5.47839 27.23948,-5.47839c0,0 -14.43724,16.84414 -12.4422,20.8661c3.00316,6.05432 29.9206,10.83853 29.9206,10.83853c0,0 -7.07144,5.31856 -13.72977,11.3042c-0.05657,0.05085 -73.2779,-5.70065 -73.14901,-5.78789c2.91749,-1.97487 6.4177,-3.30914 6.4177,-3.30914c0,0 1.22113,-5.65321 0.41652,-8.99447c-1.22445,-5.08469 12.66038,-12.54622 12.66038,-12.54622c0,0 -30.85763,-18.34852 -18.63847,-17.68994z" fill="#9d2f3a" stroke="#000000" stroke-width="0" stroke-linecap="butt"/><path d="M349.75433,95.86501c8.80852,0.47476 42.54104,-10.31184 42.54104,-10.31184c0,0 -5.79218,18.43626 -1.23625,21.10907c4.49008,2.63418 27.23948,-5.47839 27.23948,-5.47839c0,0 -14.43724,16.84414 -12.4422,20.8661c1.90347,3.83734 13.41394,7.16445 21.58854,9.08656c0.04874,0.01146 -71.69618,-4.96759 -71.7125,-5.03533c-1.22445,-5.08469 12.66038,-12.54622 12.66038,-12.54622c0,0 -30.85763,-18.34852 -18.63847,-17.68994z" fill="#942c3b" stroke="#000000" stroke-width="0" stroke-linecap="butt"/><path d="M350.17,208.61787c0,0 -13.47721,-0.5091 -14.35402,-1.31664c-0.80125,-0.73793 -3.42964,-7.00574 -3.42964,-7.00574c0,0 3.94754,-0.47411 5.6223,-0.43471c1.43262,0.0337 3.81376,0.65672 3.81376,0.65672c0,0 -1.02966,-3.88292 0.56529,-6.48027c1.34881,-2.19651 5.17099,-3.19696 6.95696,-2.99272c11.23632,1.28505 30.7964,0.76456 30.7964,0.76456c0,0 -1.0826,10.75398 -1.95408,12.24924c-0.81992,1.40679 -4.00945,4.23878 -4.00945,4.23878z" fill="#7c2532" stroke="none" stroke-width="0" stroke-linecap="butt"/><path d="M356.45686,191.01045c1.59147,-0.33994 3.53955,2.46474 4.35118,6.26443c0.05658,0.26492 -5.71789,1.44307 -5.76318,1.23103c-0.81163,-3.7997 -0.17944,-7.15553 1.41201,-7.49546z" fill="#fff8f7" stroke="none" stroke-width="0" stroke-linecap="butt"/><path d="M351.92939,190.67218c0.31326,1.31382 0.51988,3.03677 0.26173,4.87671c-0.03764,0.26827 -5.86615,-0.6041 -5.83603,-0.81882c0.19234,-1.37089 0.53754,-2.62603 0.97515,-3.66366c0.194,-0.46 4.51217,-0.75904 4.59915,-0.39425z" fill="#fff8f7" stroke="none" stroke-width="0" stroke-linecap="butt"/><path d="M365.50879,189.23145c1.22582,-1.07037 4.29122,0.43449 6.84677,3.3612c0.17818,0.20406 -4.29647,4.03944 -4.43907,3.87612c-2.55555,-2.9267 -3.63349,-6.16696 -2.40769,-7.23732z" fill="#fff8f7" stroke="none" stroke-width="0" stroke-linecap="butt"/><path d="M378.84428,188.64073c1.60809,0.24979 2.42823,3.56469 1.83185,7.40406c-0.04158,0.26769 -5.85664,-0.6903 -5.82336,-0.90455c0.59638,-3.83937 2.38344,-6.7493 3.9915,-6.49951z" fill="#fff8f7" stroke="none" stroke-width="0" stroke-linecap="butt"/><path d="M374.72463,210.54705c-1.53963,0.52713 -3.80798,-2.02548 -5.06653,-5.70141c-0.08774,-0.25629 5.50523,-2.11402 5.57547,-1.90889c1.25854,3.67593 1.03067,7.08319 -0.50894,7.6103z" fill="#fff8f7" stroke="none" stroke-width="0" stroke-linecap="butt"/><path d="M352.10346,203.07212c0.15823,-0.14824 4.22693,4.11536 4.02924,4.30057c-2.83539,2.6565 -6.0359,3.8473 -7.14854,2.65971c-1.11264,-1.18756 0.28392,-4.3038 3.11931,-6.96029z" fill="#fff8f7" stroke="none" stroke-width="0" stroke-linecap="butt"/><path d="M362.98133,210.98236c-1.62503,0.08711 -3.11097,-2.9875 -3.31895,-6.86734c-0.0145,-0.27051 5.87313,-0.53196 5.88474,-0.31545c0.20798,3.87984 -0.94077,7.09568 -2.56578,7.18279z" fill="#fff8f7" stroke="none" stroke-width="0" stroke-linecap="butt"/><path d="M357.94322,188.55409c0.37343,1.24236 0.41932,2.1174 0.04875,2.32168c-0.4625,0.25495 -1.55636,-0.45846 -2.73477,-1.95763c-0.09703,-0.12344 2.61913,-0.58656 2.68603,-0.36404z" fill="#7c2532" stroke="none" stroke-width="0" stroke-linecap="butt"/><g><path d="M338.66132,98.75248c0.35323,7.36994 -10.29684,15.50174 -16.51228,8.92053c-1.34046,-2.18872 1.11919,-7.72155 1.11919,-7.72155c0,0 -3.15386,-6.62461 -1.8538,-9.01845c4.49383,-5.41438 16.89367,0.44953 17.2469,7.81947z" fill="#bf014a" stroke="#000000" stroke-width="0" stroke-linecap="butt"/><path d="M330.62919,94.75594l6.64065,3.83262l-5.47624,6.0276" fill="none" stroke="#99001f" stroke-width="1.5" stroke-linecap="round"/><path d="M332.69035,99.26926l3.91131,-0.18746" fill="none" stroke="#99001f" stroke-width="1" stroke-linecap="round"/><path d="M370.75434,88.56823c1.52304,2.25853 -0.98281,9.1544 -0.98281,9.1544c0,0 2.97752,5.27223 1.85252,7.57912c-5.55755,7.14547 -16.9365,0.06949 -17.28972,-7.30045c-0.35324,-7.36994 11.42897,-14.39285 16.42001,-9.43307z" fill="#bf014a" stroke="#000000" stroke-width="0" stroke-linecap="butt"/><path d="M361.73135,103.18131l-6.0276,-5.47624l6.24366,-4.45015" fill="none" stroke="#99001f" stroke-width="1.5" stroke-linecap="round"/><path d="M360.32735,97.94467l-3.91131,0.18746" fill="none" stroke="#99001f" stroke-width="1" stroke-linecap="round"/><path d="M337.96262,90.06703c1.86488,-1.55388 14.90408,-1.42592 17.03374,0.67298c1.60784,1.58462 1.84975,13.29991 -1.2879,15.14276c-1.61593,0.9491 -12.27568,1.82645 -14.0751,0.89027c-3.05483,-1.58933 -3.9324,-14.82152 -1.67074,-16.70601z" fill="#bf014a" stroke="#000000" stroke-width="0" stroke-linecap="butt"/></g><path d="M300.99232,120.75281c0.9651,0.05202 1.7053,0.87655 1.65328,1.84165c-0.05202,0.9651 -0.87655,1.7053 -1.84165,1.65328c-0.61049,-0.0329 -1.131,-0.37492 -1.41791,-0.86612c-0.32558,0.5275 -0.9219,0.86519 -1.58447,0.82948c-0.56808,-0.03062 -1.05823,-0.32889 -1.35476,-0.76594c-0.15493,0.0353 -0.31732,0.04991 -0.48388,0.04094c-0.9651,-0.05202 -1.7053,-0.87655 -1.65328,-1.84165c0.05202,-0.9651 0.87655,-1.7053 1.84165,-1.65328c0.56808,0.03062 1.05823,0.32889 1.35476,0.76594c0.15493,-0.0353 0.31732,-0.04991 0.48388,-0.04094c0.61049,0.0329 1.131,0.37492 1.41791,0.86612c0.32558,-0.5275 0.9219,-0.86519 1.58447,-0.82948z" fill="#7c0000" stroke="none" stroke-width="0.5" stroke-linecap="butt"/><path d="M307.26017,120.5899c0.9651,0.05202 1.7053,0.87655 1.65328,1.84165c-0.05202,0.9651 -0.87655,1.7053 -1.84165,1.65328c-0.46544,-0.02509 -0.87858,-0.22985 -1.17577,-0.54341c-0.34097,0.42396 -0.87413,0.68329 -1.45888,0.65177c-0.9651,-0.05202 -1.7053,-0.87655 -1.65328,-1.84165c0.05202,-0.9651 0.87655,-1.7053 1.84165,-1.65328c0.46544,0.02509 0.87858,0.22985 1.17577,0.54341c0.34097,-0.42396 0.87413,-0.68329 1.45888,-0.65177z" fill="#7c0000" stroke="none" stroke-width="0.5" stroke-linecap="butt"/><path d="M312.64083,120.62954c0.9651,0.05202 1.7053,0.87655 1.65328,1.84165c-0.05202,0.9651 -0.87655,1.7053 -1.84165,1.65328c-0.38693,-0.02085 -0.7377,-0.16588 -1.01578,-0.39436c-0.2562,0.12289 -0.54603,0.185 -0.84978,0.16863c-0.9651,-0.05202 -1.7053,-0.87655 -1.65328,-1.84165c0.05202,-0.9651 0.87655,-1.7053 1.84165,-1.65328c0.38693,0.02085 0.7377,0.16588 1.01578,0.39436c0.2562,-0.12289 0.54603,-0.185 0.84978,-0.16863z" fill="#7c0000" stroke="none" stroke-width="0.5" stroke-linecap="butt"/><path d="M318.99987,121.09746c0.9651,0.05202 1.7053,0.87655 1.65328,1.84165c-0.05202,0.9651 -0.87655,1.7053 -1.84165,1.65328c-0.45767,-0.02467 -0.86477,-0.22306 -1.16078,-0.5278c-0.32705,0.27114 -0.75312,0.42464 -1.21078,0.39998c-0.9651,-0.05202 -1.7053,-0.87655 -1.65328,-1.84165c0.05202,-0.9651 0.87655,-1.7053 1.84165,-1.65328c0.45767,0.02467 0.86477,0.22306 1.16078,0.5278c0.32705,-0.27114 0.75312,-0.42464 1.21078,-0.39998z" fill="#7c0000" stroke="none" stroke-width="0.5" stroke-linecap="butt"/><path d="M328.83365,122.1282c0.9651,0.05202 1.7053,0.87655 1.65328,1.84165c-0.05202,0.9651 -0.87655,1.7053 -1.84165,1.65328c-0.59456,-0.03205 -1.10376,-0.35728 -1.39496,-0.82796c-0.3401,0.43665 -0.88131,0.70527 -1.47587,0.67323c-0.51611,-0.02782 -0.96789,-0.27655 -1.2686,-0.64957c-0.25208,0.11766 -0.53594,0.17676 -0.83314,0.16074c-0.9651,-0.05202 -1.7053,-0.87655 -1.65328,-1.84165c0.05202,-0.9651 0.87655,-1.7053 1.84165,-1.65328c0.51611,0.02782 0.96789,0.27655 1.2686,0.64957c0.25208,-0.11766 0.53594,-0.17676 0.83314,-0.16074c0.59456,0.03205 1.10376,0.35728 1.39496,0.82796c0.3401,-0.43665 0.88131,-0.70527 1.47587,-0.67323z" fill="#7c0000" stroke="none" stroke-width="0.5" stroke-linecap="butt"/><path d="M331.36066,124.01694c0.05202,-0.9651 0.87655,-1.7053 1.84165,-1.65328c0.9651,0.05202 1.7053,0.87655 1.65328,1.84165c-0.05202,0.9651 -0.87655,1.7053 -1.84165,1.65328c-0.9651,-0.05202 -1.7053,-0.87655 -1.65328,-1.84165z" fill="#7c0000" stroke="none" stroke-width="0.5" stroke-linecap="butt"/><path d="M338.22569,124.38695c0.05202,-0.9651 0.87655,-1.7053 1.84165,-1.65328c0.9651,0.05202 1.7053,0.87655 1.65328,1.84165c-0.05202,0.9651 -0.87655,1.7053 -1.84165,1.65328c-0.9651,-0.05202 -1.7053,-0.87655 -1.65328,-1.84165z" fill="#7c0000" stroke="none" stroke-width="0.5" stroke-linecap="butt"/><path d="M342.34471,124.60895c0.05202,-0.9651 0.87655,-1.7053 1.84165,-1.65328c0.9651,0.05202 1.7053,0.87655 1.65328,1.84165c-0.05202,0.9651 -0.87655,1.7053 -1.84165,1.65328c-0.9651,-0.05202 -1.7053,-0.87655 -1.65328,-1.84165z" fill="#7c0000" stroke="none" stroke-width="0.5" stroke-linecap="butt"/><path d="M348.2112,124.92514c0.05202,-0.9651 0.87655,-1.7053 1.84165,-1.65328c0.9651,0.05202 1.7053,0.87655 1.65328,1.84165c-0.05202,0.9651 -0.87655,1.7053 -1.84165,1.65328c-0.9651,-0.05202 -1.7053,-0.87655 -1.65328,-1.84165z" fill="#7c0000" stroke="none" stroke-width="0.5" stroke-linecap="butt"/><path d="M352.04695,125.75779c0.05202,-0.9651 0.87655,-1.7053 1.84165,-1.65328c0.9651,0.05202 1.7053,0.87655 1.65328,1.84165c-0.05202,0.9651 -0.87655,1.7053 -1.84165,1.65328c-0.9651,-0.05202 -1.7053,-0.87655 -1.65328,-1.84165z" fill="#7c0000" stroke="none" stroke-width="0.5" stroke-linecap="butt"/><path d="M287.9356,133.06795c0.05202,-0.9651 0.87655,-1.7053 1.84165,-1.65328c0.9651,0.05202 1.7053,0.87655 1.65328,1.84165c-0.05202,0.9651 -0.87655,1.7053 -1.84165,1.65328c-0.9651,-0.05202 -1.7053,-0.87655 -1.65328,-1.84165z" fill="#940039" stroke="none" stroke-width="0.5" stroke-linecap="butt"/><path d="M292.63163,134.19732c0.05202,-0.9651 0.87655,-1.7053 1.84165,-1.65328c0.9651,0.05202 1.7053,0.87655 1.65328,1.84165c-0.05202,0.9651 -0.87655,1.7053 -1.84165,1.65328c-0.9651,-0.05202 -1.7053,-0.87655 -1.65328,-1.84165z" fill="#940039" stroke="none" stroke-width="0.5" stroke-linecap="butt"/><path d="M296.75065,134.41932c0.05202,-0.9651 0.87655,-1.7053 1.84165,-1.65328c0.9651,0.05202 1.7053,0.87655 1.65328,1.84165c-0.05202,0.9651 -0.87655,1.7053 -1.84165,1.65328c-0.9651,-0.05202 -1.7053,-0.87655 -1.65328,-1.84165z" fill="#940039" stroke="none" stroke-width="0.5" stroke-linecap="butt"/><path d="M304.63742,132.09041c0.9651,0.05202 1.7053,0.87655 1.65328,1.84165c-0.05202,0.9651 -0.87655,1.7053 -1.84165,1.65328c-0.05332,-0.00287 -0.10597,-0.0081 -0.15782,-0.01559c-0.3117,0.22266 -0.6983,0.34499 -1.11055,0.32277c-0.15987,-0.00862 -0.31357,-0.03843 -0.45852,-0.08657c-0.24279,0.10656 -0.51355,0.15936 -0.7964,0.14412c-0.9651,-0.05202 -1.7053,-0.87655 -1.65328,-1.84165c0.05202,-0.9651 0.87655,-1.7053 1.84165,-1.65328c0.15987,0.00862 0.31357,0.03843 0.45852,0.08657c0.24279,-0.10656 0.51355,-0.15936 0.7964,-0.14412c0.05332,0.00287 0.10597,0.0081 0.15782,0.0156c0.3117,-0.22266 0.6983,-0.345 1.11055,-0.32278z" fill="#940039" stroke="none" stroke-width="0.5" stroke-linecap="butt"/><path d="M346.50255,135.72383c0.9651,0.05202 1.7053,0.87655 1.65328,1.84165c-0.05202,0.9651 -0.87655,1.7053 -1.84165,1.65328c-0.46544,-0.02509 -0.87858,-0.22985 -1.17577,-0.54341c-0.34097,0.42396 -0.87413,0.68329 -1.45888,0.65177c-0.52192,-0.02813 -0.97806,-0.28219 -1.27871,-0.66223c-0.33976,0.34553 -0.82056,0.54908 -1.34248,0.52095c-0.72125,-0.03887 -1.31689,-0.5092 -1.55013,-1.14722c-0.34184,0.39991 -0.85942,0.64181 -1.42534,0.61131c-0.9651,-0.05202 -1.7053,-0.87655 -1.65328,-1.84165c0.05202,-0.9651 0.87655,-1.7053 1.84165,-1.65328c0.72125,0.03887 1.31689,0.5092 1.55013,1.14722c0.34184,-0.39991 0.85942,-0.64181 1.42534,-0.61131c0.52192,0.02813 0.97806,0.28219 1.27871,0.66223c0.33976,-0.34553 0.82056,-0.54908 1.34248,-0.52095c0.46544,0.02509 0.87858,0.22985 1.17577,0.54341c0.34097,-0.42396 0.87413,-0.68329 1.45888,-0.65177z" fill="#940039" stroke="none" stroke-width="0.5" stroke-linecap="butt"/><path d="M288.30478,142.47645c0.9651,0.05202 1.7053,0.87655 1.65328,1.84165c-0.05202,0.9651 -0.87655,1.7053 -1.84165,1.65328c-0.42952,-0.02315 -0.81448,-0.19931 -1.1049,-0.47277c-0.34184,0.38589 -0.85017,0.61776 -1.40493,0.58786c-0.9651,-0.05202 -1.7053,-0.87655 -1.65328,-1.84165c0.05202,-0.9651 0.87655,-1.7053 1.84165,-1.65328c0.42952,0.02315 0.81448,0.19931 1.1049,0.47277c0.34184,-0.38589 0.85017,-0.61776 1.40493,-0.58786z" fill="#da5cb1" stroke="none" stroke-width="0.5" stroke-linecap="butt"/><path d="M295.17654,142.72164c0.9651,0.05202 1.7053,0.87655 1.65328,1.84165c-0.05202,0.9651 -0.87655,1.7053 -1.84165,1.65328c-0.26801,-0.01445 -0.51868,-0.08846 -0.73985,-0.20853c-0.23279,0.0956 -0.48997,0.14225 -0.75798,0.1278c-0.08476,-0.00457 -0.16778,-0.01509 -0.24868,-0.03115c-0.08216,0.00727 -0.16583,0.00881 -0.25059,0.00424c-0.9651,-0.05202 -1.7053,-0.87655 -1.65328,-1.84165c0.05202,-0.9651 0.87655,-1.7053 1.84165,-1.65328c0.08476,0.00457 0.16778,0.01509 0.24868,0.03115c0.08216,-0.00727 0.16583,-0.00881 0.25059,-0.00424c0.26801,0.01445 0.51868,0.08846 0.73985,0.20853c0.23279,-0.0956 0.48997,-0.14225 0.75798,-0.1278z" fill="#da5cb1" stroke="none" stroke-width="0.5" stroke-linecap="butt"/><path d="M341.21823,147.83199c0.05202,-0.9651 0.87655,-1.7053 1.84165,-1.65328c0.9651,0.05202 1.7053,0.87655 1.65328,1.84165c-0.05202,0.9651 -0.87655,1.7053 -1.84165,1.65328c-0.9651,-0.05202 -1.7053,-0.87655 -1.65328,-1.84165z" fill="#da5cb1" stroke="none" stroke-width="0.5" stroke-linecap="butt"/><path d="M355.79824,125.83479c0.05202,-0.9651 0.87655,-1.7053 1.84165,-1.65328c0.9651,0.05202 1.7053,0.87655 1.65328,1.84165c-0.05202,0.9651 -0.87655,1.7053 -1.84165,1.65328c-0.9651,-0.05202 -1.7053,-0.87655 -1.65328,-1.84165z" fill="#942c3b" stroke="none" stroke-width="0.5" stroke-linecap="butt"/><path d="M365.09538,125.20925c0.9651,0.05202 1.7053,0.87655 1.65328,1.84165c-0.05202,0.9651 -0.87655,1.7053 -1.84165,1.65328c-0.45767,-0.02467 -0.86477,-0.22306 -1.16078,-0.5278c-0.32705,0.27114 -0.75312,0.42464 -1.21078,0.39998c-0.9651,-0.05202 -1.7053,-0.87655 -1.65328,-1.84165c0.05202,-0.9651 0.87655,-1.7053 1.84165,-1.65328c0.45767,0.02467 0.86477,0.22306 1.16078,0.5278c0.32705,-0.27114 0.75312,-0.42464 1.21078,-0.39998z" fill="#942c3b" stroke="none" stroke-width="0.5" stroke-linecap="butt"/><path d="M368.87731,127.04045c0.05202,-0.9651 0.87655,-1.7053 1.84165,-1.65328c0.9651,0.05202 1.7053,0.87655 1.65328,1.84165c-0.05202,0.9651 -0.87655,1.7053 -1.84165,1.65328c-0.9651,-0.05202 -1.7053,-0.87655 -1.65328,-1.84165z" fill="#942c3b" stroke="none" stroke-width="0.5" stroke-linecap="butt"/><path d="M373.12788,127.14436c0.05202,-0.9651 0.87655,-1.7053 1.84165,-1.65328c0.9651,0.05202 1.7053,0.87655 1.65328,1.84165c-0.05202,0.9651 -0.87655,1.7053 -1.84165,1.65328c-0.9651,-0.05202 -1.7053,-0.87655 -1.65328,-1.84165z" fill="#942c3b" stroke="none" stroke-width="0.5" stroke-linecap="butt"/><path d="M376.89935,126.84691c0.05202,-0.9651 0.87655,-1.7053 1.84165,-1.65328c0.9651,0.05202 1.7053,0.87655 1.65328,1.84165c-0.05202,0.9651 -0.87655,1.7053 -1.84165,1.65328c-0.9651,-0.05202 -1.7053,-0.87655 -1.65328,-1.84165z" fill="#942c3b" stroke="none" stroke-width="0.5" stroke-linecap="butt"/><path d="M386.19649,126.22137c0.9651,0.05202 1.7053,0.87655 1.65328,1.84165c-0.05202,0.9651 -0.87655,1.7053 -1.84165,1.65328c-0.82836,-0.04465 -1.49103,-0.6584 -1.62929,-1.44168c-0.26035,0.69798 -0.95094,1.17743 -1.73409,1.13522c-0.9651,-0.05202 -1.7053,-0.87655 -1.65328,-1.84165c0.05202,-0.9651 0.87655,-1.7053 1.84165,-1.65328c0.82836,0.04465 1.49103,0.6584 1.62929,1.44168c0.26035,-0.69798 0.95094,-1.17743 1.73409,-1.13522z" fill="#942c3b" stroke="none" stroke-width="0.5" stroke-linecap="butt"/><path d="M390.34615,128.19756c0.05202,-0.9651 0.87655,-1.7053 1.84165,-1.65328c0.9651,0.05202 1.7053,0.87655 1.65328,1.84165c-0.05202,0.9651 -0.87655,1.7053 -1.84165,1.65328c-0.9651,-0.05202 -1.7053,-0.87655 -1.65328,-1.84165z" fill="#942c3b" stroke="none" stroke-width="0.5" stroke-linecap="butt"/><path d="M395.3389,128.46666c0.05202,-0.9651 0.87655,-1.7053 1.84165,-1.65328c0.9651,0.05202 1.7053,0.87655 1.65328,1.84165c-0.05202,0.9651 -0.87655,1.7053 -1.84165,1.65328c-0.9651,-0.05202 -1.7053,-0.87655 -1.65328,-1.84165z" fill="#942c3b" stroke="none" stroke-width="0.5" stroke-linecap="butt"/><path d="M401.82275,128.9413c0.05202,-0.9651 0.87655,-1.7053 1.84165,-1.65328c0.9651,0.05202 1.7053,0.87655 1.65328,1.84165c-0.05202,0.9651 -0.87655,1.7053 -1.84165,1.65328c-0.9651,-0.05202 -1.7053,-0.87655 -1.65328,-1.84165z" fill="#942c3b" stroke="none" stroke-width="0.5" stroke-linecap="butt"/><path d="M421.56431,129.62978c0.9651,0.05202 1.7053,0.87655 1.65328,1.84165c-0.05202,0.9651 -0.87655,1.7053 -1.84165,1.65328c-0.65224,-0.03515 -1.20177,-0.42316 -1.47345,-0.96893c-0.34148,0.3719 -0.84041,0.59386 -1.38393,0.56457c-0.30375,-0.01637 -0.58523,-0.10926 -0.82673,-0.25899c-0.30101,0.19727 -0.66534,0.30375 -1.05228,0.2829c-0.36013,-0.01941 -0.68894,-0.14639 -0.95696,-0.3481c-0.13012,0.02318 -0.26492,0.03188 -0.40259,0.02446c-0.75285,-0.04058 -1.36884,-0.55125 -1.57868,-1.23202c-0.34162,0.37594 -0.84328,0.60076 -1.39006,0.57129c-0.72125,-0.03887 -1.31689,-0.5092 -1.55013,-1.14722c-0.34184,0.39991 -0.85942,0.64181 -1.42534,0.61131c-0.2399,-0.01293 -0.46589,-0.07359 -0.66929,-0.17228c-0.0651,0.00378 -0.13107,0.00396 -0.19772,0.00037c-0.9651,-0.05202 -1.7053,-0.87655 -1.65328,-1.84165c0.05202,-0.9651 0.87655,-1.7053 1.84165,-1.65328c0.2399,0.01293 0.46589,0.07359 0.66929,0.17228c0.0651,-0.00378 0.13107,-0.00396 0.19772,-0.00037c0.72125,0.03887 1.31689,0.5092 1.55013,1.14722c0.34184,-0.39991 0.85942,-0.64181 1.42534,-0.61131c0.75285,0.04058 1.36884,0.55125 1.57868,1.23202c0.34162,-0.37594 0.84328,-0.60076 1.39006,-0.57129c0.36013,0.01941 0.68894,0.14639 0.95696,0.3481c0.13012,-0.02318 0.26492,-0.03188 0.40259,-0.02446c0.30375,0.01637 0.58523,0.10926 0.82673,0.25899c0.30101,-0.19727 0.66534,-0.30375 1.05228,-0.2829c0.65224,0.03515 1.20177,0.42316 1.47345,0.96893c0.34148,-0.3719 0.84041,-0.59386 1.38393,-0.56457z" fill="#942c3b" stroke="none" stroke-width="0.5" stroke-linecap="butt"/><path d="M349.58638,138.8944c0.05202,-0.9651 0.87655,-1.7053 1.84165,-1.65328c0.9651,0.05202 1.7053,0.87655 1.65328,1.84165c-0.05202,0.9651 -0.87655,1.7053 -1.84165,1.65328c-0.9651,-0.05202 -1.7053,-0.87655 -1.65328,-1.84165z" fill="#9d2f3a" stroke="none" stroke-width="0.5" stroke-linecap="butt"/><path d="M356.92005,137.53713c0.9651,0.05202 1.7053,0.87655 1.65328,1.84165c-0.05202,0.9651 -0.87655,1.7053 -1.84165,1.65328c-0.21988,-0.01185 -0.42809,-0.06379 -0.61791,-0.14837c-0.19781,0.06369 -0.4104,0.09295 -0.63028,0.0811c-0.9651,-0.05202 -1.7053,-0.87655 -1.65328,-1.84165c0.05202,-0.9651 0.87655,-1.7053 1.84165,-1.65328c0.21988,0.01185 0.42809,0.06379 0.61791,0.14837c0.19781,-0.06369 0.4104,-0.09295 0.63028,-0.0811z" fill="#9d2f3a" stroke="none" stroke-width="0.5" stroke-linecap="butt"/><path d="M413.88153,142.10938c0.9651,0.05202 1.7053,0.87655 1.65328,1.84165c-0.05202,0.9651 -0.87655,1.7053 -1.84165,1.65328c-0.66258,-0.03571 -1.21915,-0.43552 -1.48613,-0.99497c-0.33804,0.4575 -0.8923,0.7416 -1.50279,0.7087c-0.41123,-0.02216 -0.78163,-0.18459 -1.0673,-0.43839c-0.27362,0.14747 -0.58997,0.22388 -0.92307,0.20593c-0.46342,-0.02498 -0.87498,-0.22807 -1.17188,-0.53932c-0.30404,0.20399 -0.67439,0.31463 -1.06813,0.29341c-0.48896,-0.02635 -0.9202,-0.251 -1.21992,-0.59176c-0.33461,0.30658 -0.7875,0.48357 -1.27646,0.45721c-0.55693,-0.03002 -1.03897,-0.3173 -1.33709,-0.74038c-0.34187,0.38859 -0.85199,0.6224 -1.40892,0.59238c-0.58626,-0.0316 -1.08954,-0.34827 -1.38265,-0.80834c-0.34048,0.35436 -0.82743,0.56405 -1.35664,0.53552c-0.9651,-0.05202 -1.7053,-0.87655 -1.65328,-1.84165c0.05202,-0.9651 0.87655,-1.7053 1.84165,-1.65328c0.58626,0.0316 1.08954,0.34827 1.38265,0.80834c0.34048,-0.35436 0.82743,-0.56405 1.35664,-0.53552c0.55693,0.03002 1.03897,0.3173 1.33709,0.74038c0.34187,-0.38859 0.85199,-0.6224 1.40892,-0.59238c0.48896,0.02635 0.9202,0.251 1.21992,0.59176c0.33461,-0.30658 0.7875,-0.48357 1.27646,-0.45721c0.46342,0.02498 0.87498,0.22807 1.17188,0.53932c0.30404,-0.20399 0.67439,-0.31463 1.06813,-0.29341c0.41123,0.02216 0.78163,0.18459 1.0673,0.43839c0.27362,-0.14747 0.58997,-0.22388 0.92307,-0.20593c0.66258,0.03571 1.21915,0.43552 1.48613,0.99497c0.33804,-0.4575 0.8923,-0.7416 1.50279,-0.7087z" fill="#9d2f3a" stroke="none" stroke-width="0.5" stroke-linecap="butt"/><path d="M416.29045,143.86658c0.05202,-0.9651 0.87655,-1.7053 1.84165,-1.65328c0.9651,0.05202 1.7053,0.87655 1.65328,1.84165c-0.05202,0.9651 -0.87655,1.7053 -1.84165,1.65328c-0.9651,-0.05202 -1.7053,-0.87655 -1.65328,-1.84165z" fill="#9d2f3a" stroke="none" stroke-width="0.5" stroke-linecap="butt"/><path d="M295.08619,125.81728c0.03715,-0.68935 0.6261,-1.21807 1.31546,-1.18091c0.68936,0.03715 1.21807,0.62611 1.18091,1.31546c-0.03715,0.68935 -0.6261,1.21807 -1.31546,1.18091c-0.68936,-0.03715 -1.21807,-0.62611 -1.18091,-1.31546z" fill="#7c0000" stroke="none" stroke-width="0.5" stroke-linecap="butt"/><path d="M305.46934,123.62292c0.03715,-0.68935 0.6261,-1.21807 1.31546,-1.18091c0.68936,0.03715 1.21807,0.62611 1.18091,1.31546c-0.03715,0.68935 -0.6261,1.21807 -1.31546,1.18091c-0.68936,-0.03715 -1.21807,-0.62611 -1.18091,-1.31546z" fill="#7c0000" stroke="none" stroke-width="0.5" stroke-linecap="butt"/><path d="M313.63338,125.43993c0.03715,-0.68935 0.6261,-1.21807 1.31546,-1.18091c0.68936,0.03715 1.21807,0.62611 1.18091,1.31546c-0.03715,0.68935 -0.6261,1.21807 -1.31546,1.18091c-0.68936,-0.03715 -1.21807,-0.62611 -1.18091,-1.31546z" fill="#7c0000" stroke="none" stroke-width="0.5" stroke-linecap="butt"/><path d="M318.05958,126.93031c0.03715,-0.68935 0.6261,-1.21807 1.31546,-1.18091c0.68936,0.03715 1.21807,0.62611 1.18091,1.31546c-0.03715,0.68935 -0.6261,1.21807 -1.31546,1.18091c-0.68936,-0.03715 -1.21807,-0.62611 -1.18091,-1.31546z" fill="#7c0000" stroke="none" stroke-width="0.5" stroke-linecap="butt"/><path d="M324.37153,128.27196c0.03715,-0.68935 0.6261,-1.21807 1.31546,-1.18091c0.68936,0.03715 1.21807,0.62611 1.18091,1.31546c-0.03715,0.68935 -0.6261,1.21807 -1.31546,1.18091c-0.68936,-0.03715 -1.21807,-0.62611 -1.18091,-1.31546z" fill="#7c0000" stroke="none" stroke-width="0.5" stroke-linecap="butt"/><path d="M328.98982,128.52086c0.03715,-0.68935 0.6261,-1.21807 1.31546,-1.18091c0.68936,0.03715 1.21807,0.62611 1.18091,1.31546c-0.03715,0.68935 -0.6261,1.21807 -1.31546,1.18091c-0.68936,-0.03715 -1.21807,-0.62611 -1.18091,-1.31546z" fill="#7c0000" stroke="none" stroke-width="0.5" stroke-linecap="butt"/><path d="M337.28469,125.58805c0.03715,-0.68935 0.6261,-1.21807 1.31546,-1.18091c0.68936,0.03715 1.21807,0.62611 1.18091,1.31546c-0.03715,0.68935 -0.6261,1.21807 -1.31546,1.18091c-0.68936,-0.03715 -1.21807,-0.62611 -1.18091,-1.31546z" fill="#7c0000" stroke="none" stroke-width="0.5" stroke-linecap="butt"/><path d="M346.33592,127.20252c0.03715,-0.68935 0.6261,-1.21807 1.31546,-1.18091c0.68936,0.03715 1.21807,0.62611 1.18091,1.31546c-0.03715,0.68935 -0.6261,1.21807 -1.31546,1.18091c-0.68936,-0.03715 -1.21807,-0.62611 -1.18091,-1.31546z" fill="#7c0000" stroke="none" stroke-width="0.5" stroke-linecap="butt"/><path d="M349.80766,130.14362c0.03715,-0.68935 0.6261,-1.21807 1.31546,-1.18091c0.68936,0.03715 1.21807,0.62611 1.18091,1.31546c-0.03715,0.68935 -0.6261,1.21807 -1.31546,1.18091c-0.68936,-0.03715 -1.21807,-0.62611 -1.18091,-1.31546z" fill="#7c0000" stroke="none" stroke-width="0.5" stroke-linecap="butt"/><path d="M288.42887,137.85143c0.03715,-0.68936 0.6261,-1.21807 1.31546,-1.18091c0.68936,0.03715 1.21807,0.6261 1.18091,1.31546c-0.03715,0.68936 -0.6261,1.21807 -1.31546,1.18091c-0.68936,-0.03715 -1.21807,-0.6261 -1.18091,-1.31546z" fill="#940039" stroke="none" stroke-width="0.5" stroke-linecap="butt"/><path d="M297.76923,133.17234c0.68936,0.03715 1.21807,0.6261 1.18091,1.31546c-0.03715,0.68936 -0.6261,1.21807 -1.31546,1.18091c-0.19429,-0.01047 -0.37581,-0.06477 -0.5355,-0.15279c-0.23606,0.36076 -0.65256,0.58948 -1.11405,0.56461c-0.68936,-0.03715 -1.21807,-0.6261 -1.18091,-1.31546c0.03715,-0.68936 0.6261,-1.21807 1.31546,-1.18091c0.19429,0.01047 0.37581,0.06477 0.5355,0.1528c0.23606,-0.36076 0.65255,-0.58949 1.11405,-0.56462z" fill="#940039" stroke="none" stroke-width="0.5" stroke-linecap="butt"/><path d="M297.42928,138.08617c0.03715,-0.68936 0.6261,-1.21807 1.31546,-1.18091c0.68936,0.03715 1.21807,0.6261 1.18091,1.31546c-0.03715,0.68936 -0.6261,1.21807 -1.31546,1.18091c-0.68936,-0.03715 -1.21807,-0.6261 -1.18091,-1.31546z" fill="#940039" stroke="none" stroke-width="0.5" stroke-linecap="butt"/><path d="M338.99023,138.07293c0.03715,-0.68936 0.6261,-1.21807 1.31546,-1.18091c0.68936,0.03715 1.21807,0.6261 1.18091,1.31546c-0.03715,0.68936 -0.6261,1.21807 -1.31546,1.18091c-0.68936,-0.03715 -1.21807,-0.6261 -1.18091,-1.31546z" fill="#940039" stroke="none" stroke-width="0.5" stroke-linecap="butt"/><path d="M340.54933,141.66204c0.03715,-0.68936 0.6261,-1.21807 1.31546,-1.18091c0.68936,0.03715 1.21807,0.6261 1.18091,1.31546c-0.03715,0.68936 -0.6261,1.21807 -1.31546,1.18091c-0.68936,-0.03715 -1.21807,-0.6261 -1.18091,-1.31546z" fill="#940039" stroke="none" stroke-width="0.5" stroke-linecap="butt"/><path d="M285.40776,147.45275c0.03715,-0.68936 0.6261,-1.21807 1.31546,-1.18091c0.68936,0.03715 1.21807,0.6261 1.18091,1.31546c-0.03715,0.68936 -0.6261,1.21807 -1.31546,1.18091c-0.68936,-0.03715 -1.21807,-0.6261 -1.18091,-1.31546z" fill="#da5cb1" stroke="none" stroke-width="0.5" stroke-linecap="butt"/><path d="M290.87588,145.86975c0.03715,-0.68936 0.6261,-1.21807 1.31546,-1.18091c0.68936,0.03715 1.21807,0.6261 1.18091,1.31546c-0.03715,0.68936 -0.6261,1.21807 -1.31546,1.18091c-0.68936,-0.03715 -1.21807,-0.6261 -1.18091,-1.31546z" fill="#da5cb1" stroke="none" stroke-width="0.5" stroke-linecap="butt"/><path d="M343.1316,151.81572c0.03715,-0.68936 0.6261,-1.21807 1.31546,-1.18091c0.68936,0.03715 1.21807,0.6261 1.18091,1.31546c-0.03715,0.68936 -0.6261,1.21807 -1.31546,1.18091c-0.68936,-0.03715 -1.21807,-0.6261 -1.18091,-1.31546z" fill="#da5cb1" stroke="none" stroke-width="0.5" stroke-linecap="butt"/><path d="M359.34531,131.55899c0.03715,-0.68935 0.6261,-1.21807 1.31546,-1.18091c0.68936,0.03715 1.21807,0.62611 1.18091,1.31546c-0.03715,0.68935 -0.6261,1.21807 -1.31546,1.18091c-0.68936,-0.03715 -1.21807,-0.62611 -1.18091,-1.31546z" fill="#942c3b" stroke="none" stroke-width="0.5" stroke-linecap="butt"/><path d="M364.27828,129.22108c0.03715,-0.68935 0.6261,-1.21807 1.31546,-1.18091c0.68936,0.03715 1.21807,0.62611 1.18091,1.31546c-0.03715,0.68935 -0.6261,1.21807 -1.31546,1.18091c-0.68936,-0.03715 -1.21807,-0.62611 -1.18091,-1.31546z" fill="#942c3b" stroke="none" stroke-width="0.5" stroke-linecap="butt"/><path d="M370.9333,128.37804c0.03715,-0.68935 0.6261,-1.21807 1.31546,-1.18091c0.68936,0.03715 1.21807,0.62611 1.18091,1.31546c-0.03715,0.68935 -0.6261,1.21807 -1.31546,1.18091c-0.68936,-0.03715 -1.21807,-0.62611 -1.18091,-1.31546z" fill="#942c3b" stroke="none" stroke-width="0.5" stroke-linecap="butt"/><path d="M378.44694,130.18503c0.03715,-0.68935 0.6261,-1.21807 1.31546,-1.18091c0.68936,0.03715 1.21807,0.62611 1.18091,1.31546c-0.03715,0.68935 -0.6261,1.21807 -1.31546,1.18091c-0.68936,-0.03715 -1.21807,-0.62611 -1.18091,-1.31546z" fill="#942c3b" stroke="none" stroke-width="0.5" stroke-linecap="butt"/><path d="M382.9434,132.22999c0.03715,-0.68935 0.6261,-1.21807 1.31546,-1.18091c0.68936,0.03715 1.21807,0.62611 1.18091,1.31546c-0.03715,0.68935 -0.6261,1.21807 -1.31546,1.18091c-0.68936,-0.03715 -1.21807,-0.62611 -1.18091,-1.31546z" fill="#942c3b" stroke="none" stroke-width="0.5" stroke-linecap="butt"/><path d="M390.1222,132.8172c0.03715,-0.68935 0.6261,-1.21807 1.31546,-1.18091c0.68936,0.03715 1.21807,0.62611 1.18091,1.31546c-0.03715,0.68935 -0.6261,1.21807 -1.31546,1.18091c-0.68936,-0.03715 -1.21807,-0.62611 -1.18091,-1.31546z" fill="#942c3b" stroke="none" stroke-width="0.5" stroke-linecap="butt"/><path d="M400.2213,134.96383c0.03715,-0.68935 0.6261,-1.21807 1.31546,-1.18091c0.68936,0.03715 1.21807,0.62611 1.18091,1.31546c-0.03715,0.68935 -0.6261,1.21807 -1.31546,1.18091c-0.68936,-0.03715 -1.21807,-0.62611 -1.18091,-1.31546z" fill="#942c3b" stroke="none" stroke-width="0.5" stroke-linecap="butt"/><path d="M405.01435,135.22218c0.03715,-0.68935 0.6261,-1.21807 1.31546,-1.18091c0.68936,0.03715 1.21807,0.62611 1.18091,1.31546c-0.03715,0.68935 -0.6261,1.21807 -1.31546,1.18091c-0.68936,-0.03715 -1.21807,-0.62611 -1.18091,-1.31546z" fill="#942c3b" stroke="none" stroke-width="0.5" stroke-linecap="butt"/><path d="M410.54645,132.91657c0.03715,-0.68935 0.6261,-1.21807 1.31546,-1.18091c0.68936,0.03715 1.21807,0.62611 1.18091,1.31546c-0.03715,0.68935 -0.6261,1.21807 -1.31546,1.18091c-0.68936,-0.03715 -1.21807,-0.62611 -1.18091,-1.31546z" fill="#942c3b" stroke="none" stroke-width="0.5" stroke-linecap="butt"/><path d="M416.76976,132.65112c0.03715,-0.68935 0.6261,-1.21807 1.31546,-1.18091c0.68936,0.03715 1.21807,0.62611 1.18091,1.31546c-0.03715,0.68935 -0.6261,1.21807 -1.31546,1.18091c-0.68936,-0.03715 -1.21807,-0.62611 -1.18091,-1.31546z" fill="#942c3b" stroke="none" stroke-width="0.5" stroke-linecap="butt"/><path d="M419.72831,137.21696c0.03715,-0.68935 0.6261,-1.21807 1.31546,-1.18091c0.68936,0.03715 1.21807,0.62611 1.18091,1.31546c-0.03715,0.68935 -0.6261,1.21807 -1.31546,1.18091c-0.68936,-0.03715 -1.21807,-0.62611 -1.18091,-1.31546z" fill="#942c3b" stroke="none" stroke-width="0.5" stroke-linecap="butt"/><path d="M349.35615,142.23684c0.03715,-0.68936 0.6261,-1.21807 1.31546,-1.18091c0.68936,0.03715 1.21807,0.6261 1.18091,1.31546c-0.03715,0.68936 -0.6261,1.21807 -1.31546,1.18091c-0.68936,-0.03715 -1.21807,-0.6261 -1.18091,-1.31546z" fill="#9d2f3a" stroke="none" stroke-width="0.5" stroke-linecap="butt"/><path d="M403.8232,146.17394c0.03715,-0.68936 0.6261,-1.21807 1.31546,-1.18091c0.68936,0.03715 1.21807,0.6261 1.18091,1.31546c-0.03715,0.68936 -0.6261,1.21807 -1.31546,1.18091c-0.68936,-0.03715 -1.21807,-0.6261 -1.18091,-1.31546z" fill="#9d2f3a" stroke="none" stroke-width="0.5" stroke-linecap="butt"/><path d="M406.62991,146.12491c0.03715,-0.68936 0.6261,-1.21807 1.31546,-1.18091c0.68936,0.03715 1.21807,0.6261 1.18091,1.31546c-0.03715,0.68936 -0.6261,1.21807 -1.31546,1.18091c-0.68936,-0.03715 -1.21807,-0.6261 -1.18091,-1.31546z" fill="#9d2f3a" stroke="none" stroke-width="0.5" stroke-linecap="butt"/><path d="M410.96971,147.36028c0.03715,-0.68936 0.6261,-1.21807 1.31546,-1.18091c0.68936,0.03715 1.21807,0.6261 1.18091,1.31546c-0.03715,0.68936 -0.6261,1.21807 -1.31546,1.18091c-0.68936,-0.03715 -1.21807,-0.6261 -1.18091,-1.31546z" fill="#9d2f3a" stroke="none" stroke-width="0.5" stroke-linecap="butt"/><path d="M413.23111,146.28042c0.03715,-0.68936 0.6261,-1.21807 1.31546,-1.18091c0.68936,0.03715 1.21807,0.6261 1.18091,1.31546c-0.03715,0.68936 -0.6261,1.21807 -1.31546,1.18091c-0.68936,-0.03715 -1.21807,-0.6261 -1.18091,-1.31546z" fill="#9d2f3a" stroke="none" stroke-width="0.5" stroke-linecap="butt"/><path d="M293.62212,130.21987c0.02229,-0.41361 0.37566,-0.73084 0.78928,-0.70855c0.41362,0.02229 0.73084,0.37567 0.70855,0.78928c-0.02229,0.41361 -0.37566,0.73084 -0.78928,0.70855c-0.41362,-0.02229 -0.73084,-0.37567 -0.70855,-0.78928z" fill="#7c0000" stroke="none" stroke-width="0.5" stroke-linecap="butt"/><path d="M307.19165,131.1515c0.02229,-0.41361 0.37566,-0.73084 0.78928,-0.70855c0.41362,0.02229 0.73084,0.37567 0.70855,0.78928c-0.02229,0.41361 -0.37566,0.73084 -0.78928,0.70855c-0.41362,-0.02229 -0.73084,-0.37567 -0.70855,-0.78928z" fill="#7c0000" stroke="none" stroke-width="0.5" stroke-linecap="butt"/><path d="M339.44782,134.69266c0.02229,-0.41361 0.37566,-0.73084 0.78928,-0.70855c0.41362,0.02229 0.73084,0.37567 0.70855,0.78928c-0.02229,0.41362 -0.37566,0.73084 -0.78928,0.70855c-0.41362,-0.02229 -0.73084,-0.37566 -0.70855,-0.78928z" fill="#7c0000" stroke="none" stroke-width="0.5" stroke-linecap="butt"/><path d="M348.1107,133.75752c0.02229,-0.41361 0.37566,-0.73084 0.78928,-0.70855c0.41362,0.02229 0.73084,0.37567 0.70855,0.78928c-0.02229,0.41361 -0.37566,0.73084 -0.78928,0.70855c-0.41362,-0.02229 -0.73084,-0.37567 -0.70855,-0.78928z" fill="#7c0000" stroke="none" stroke-width="0.5" stroke-linecap="butt"/><path d="M287.97278,142.13309c0.02229,-0.41362 0.37566,-0.73084 0.78928,-0.70855c0.41362,0.02229 0.73084,0.37566 0.70855,0.78928c-0.02229,0.41362 -0.37566,0.73084 -0.78928,0.70855c-0.41362,-0.02229 -0.73084,-0.37566 -0.70855,-0.78928z" fill="#940039" stroke="none" stroke-width="0.5" stroke-linecap="butt"/><path d="M292.78735,141.992c0.02229,-0.41362 0.37566,-0.73084 0.78928,-0.70855c0.41362,0.02229 0.73084,0.37566 0.70855,0.78928c-0.02229,0.41362 -0.37566,0.73084 -0.78928,0.70855c-0.41362,-0.02229 -0.73084,-0.37566 -0.70855,-0.78928z" fill="#940039" stroke="none" stroke-width="0.5" stroke-linecap="butt"/><path d="M342.85001,145.89199c0.02229,-0.41362 0.37566,-0.73084 0.78928,-0.70855c0.41362,0.02229 0.73084,0.37566 0.70855,0.78928c-0.02229,0.41362 -0.37566,0.73084 -0.78928,0.70855c-0.41362,-0.02229 -0.73084,-0.37566 -0.70855,-0.78928z" fill="#940039" stroke="none" stroke-width="0.5" stroke-linecap="butt"/><path d="M343.80186,157.96069c0.02229,-0.41362 0.37566,-0.73084 0.78928,-0.70855c0.41362,0.02229 0.73084,0.37566 0.70855,0.78928c-0.02229,0.41362 -0.37566,0.73084 -0.78928,0.70855c-0.41362,-0.02229 -0.73084,-0.37566 -0.70855,-0.78928z" fill="#da5cb1" stroke="none" stroke-width="0.5" stroke-linecap="butt"/><path d="M288.6388,155.78873c0.02229,-0.41361 0.37567,-0.73084 0.78928,-0.70855c0.41361,0.02229 0.73084,0.37567 0.70855,0.78928c-0.02229,0.41361 -0.37567,0.73084 -0.78928,0.70855c-0.41361,-0.02229 -0.73084,-0.37567 -0.70855,-0.78928z" fill="#da5cb1" stroke="none" stroke-width="0.5" stroke-linecap="butt"/><g stroke="#000000" stroke-width="0"><path d="M296.64134,158.58018l-5.42809,-10.60446l8.48867,2.5199z" fill="#000000" stroke-linecap="round"/><path d="M295.95772,153.62736c0.69793,-12.94922 11.76113,-22.88084 24.71034,-22.18291c12.94922,0.69793 22.88084,11.76112 22.18291,24.71033c-0.69793,12.94922 -11.76112,22.88085 -24.71033,22.18292c-12.94922,-0.69793 -22.88085,-11.76113 -22.18292,-24.71034z" fill="#ffffff" stroke-linecap="butt"/><path d="M311.76548,153.93499c0.32779,-6.08167 5.52368,-10.74613 11.60537,-10.41835c6.08167,0.32779 10.74613,5.52369 10.41835,11.60538c-0.32779,6.08167 -5.52369,10.74614 -11.60537,10.41836c-6.08167,-0.32779 -10.74613,-5.52369 -10.41835,-11.60538z" fill="#000000" stroke-linecap="butt"/><path d="M372.35076,181.25952c-12.96467,-0.29438 -21.73079,-11.69914 -21.03286,-24.64836c0.69793,-12.94922 10.4822,-24.01679 23.33029,-22.25729c27.77572,3.80379 25.19331,11.65508 24.49538,24.6043c-0.69793,12.94922 -4.60611,22.80513 -26.79281,22.30135z" fill="url(#color-1)" stroke-linecap="butt"/><path d="M382.79562,169.46828c-5.46125,-0.29435 -6.30723,-4.93205 -6.01288,-10.39331c0.29435,-5.46127 1.61756,-9.67803 7.07881,-9.38368c5.46125,0.29435 11.3171,5.05006 11.02275,10.51131c0,0 -6.62742,9.56003 -12.08868,9.26568z" fill="#000000" stroke-linecap="butt"/></g></g><g fill="#ff7be1" stroke="none" stroke-width="0" stroke-linecap="butt"><path d="M246.41222,190.93924c-2.33863,-5.01563 0.72346,-13.3268 6.83938,-18.5635c6.11593,-5.23671 12.17055,-7.26898 15.30831,-0.40029c3.374,7.3858 2.12937,15.40851 -3.98654,20.64522c-6.11592,5.23671 -15.82253,3.33423 -18.16116,-1.68141z"/><path d="M264.37196,181.3123c0.95538,-4.31546 6.67124,-5.63362 12.36921,-4.84005c5.69797,0.79356 10.41638,2.70779 9.42048,7.87473c-1.05842,5.49126 -5.51574,5.79456 -11.21371,5.00099c-5.69797,-0.79356 -11.68145,-3.04223 -10.57599,-8.03567z"/><path d="M263.23199,176.04171c-1.97285,-3.95522 1.64026,-8.57628 6.5682,-11.54478c4.92795,-2.96851 9.79969,-4.44963 12.27681,0.19289c2.63259,4.93392 -0.64092,7.97429 -5.56885,10.94279c-4.92795,2.96851 -10.99337,4.98571 -13.27616,0.4091z"/><path d="M273.07104,169.41178c-3.90292,4.22656 -9.16374,7.8573 -12.63375,4.10023c-15.61819,7.38855 -0.81994,-8.69316 3.08299,-12.91971c3.90292,-4.22655 8.16725,-7.0092 11.84226,-3.24311c3.90567,4.00249 1.61143,7.83604 -2.2915,12.06259z"/></g></g></g></svg>