<svg version="1.1" xmlns="http://www.w3.org/2000/svg" xmlns:xlink="http://www.w3.org/1999/xlink" width="226.0233" height="313.18097" viewBox="0,0,226.0233,313.18097"><defs><linearGradient x1="282.22832" y1="85.53716" x2="277.69053" y2="123.56665" gradientUnits="userSpaceOnUse" id="color-1"><stop offset="0" stop-color="#4a4a4a"/><stop offset="1" stop-color="#000000"/></linearGradient><linearGradient x1="341.19691" y1="86.31793" x2="330.75256" y2="122.80581" gradientUnits="userSpaceOnUse" id="color-2"><stop offset="0" stop-color="#4a4a4a"/><stop offset="1" stop-color="#000000"/></linearGradient></defs><g transform="translate(-200.82291,-11.01647)"><g stroke-miterlimit="10"><path d="" fill="none" stroke="#000000" stroke-width="2" stroke-linecap="round"/><path d="M395.75286,157.47967c-9.81062,27.02793 -43.96409,166.71777 -43.96409,166.71777l-71.70746,-0.60281c0,0 -42.27911,-135.65782 -56.05053,-164.15935c-5.05088,-10.45336 -2.76757,-21.37784 9.31684,-21.29328c36.68529,0.25673 114.81359,0.80348 147.92174,1.03517c3.11207,0.02177 9.67634,0.72218 12.98027,4.34484c3.09686,3.3956 3.095,9.57236 1.50323,13.95764z" fill="#000000" stroke="#000000" stroke-width="0" stroke-linecap="butt"/><g fill="#ffffff" stroke="#000000" stroke-width="0"><path d="M314.55231,181.19463c0,0 -3.16781,49.99706 -4.12839,59.40753c-0.34343,3.36444 -2.04202,1.04131 -2.04202,1.04131l-2.94169,7.49883l-3.7509,-23.33998l7.41461,-44.3883z" stroke-linecap="round"/><path d="M319.55392,175.29903c-0.19118,2.49546 -0.05043,5.12596 -1.48077,6.79608c-1.51311,1.76676 -4.65164,2.50221 -6.80052,2.50221c-1.83596,0 -4.07087,-0.25608 -5.2791,-1.59183c-1.54274,-1.70556 -1.79813,-4.8266 -1.5775,-7.70647c0.20184,-2.63461 0.93139,-6.10722 2.49418,-7.79914c1.48334,-1.6059 3.75151,-1.49915 5.78711,-1.49915c2.39913,0 4.95869,0.09501 6.18154,2.23432c0.90781,1.5882 0.84271,4.87595 0.67509,7.06398z" stroke-linecap="butt"/></g><path d="M213.66419,306.27923l-12.84127,-267.72501h213.18203l12.84127,267.72501z" fill="none" stroke="none" stroke-width="0" stroke-linecap="butt"/><g stroke-linecap="butt"><path d="M239.74862,105.88303c-3.09998,-33.18815 23.17774,-60.81694 58.69291,-61.71062c35.51518,-0.89368 66.81897,25.28616 69.91894,58.47432c3.09998,33.18815 -23.17773,60.81695 -58.69292,61.71063c-35.51517,0.89368 -66.81896,-25.28617 -69.91894,-58.47433z" fill="#000000" stroke="#000000" stroke-width="2"/><path d="M277.24465,133.90435c0.08969,-0.06856 0.20817,-0.11069 0.36441,-0.10801c0.7573,0.01298 0.88659,1.05282 0.88659,1.05282l0.00645,0.36374c0.39667,1.08502 2.24194,4.54303 1.83491,5.46266c-0.49911,1.12763 -3.45848,-0.24704 -3.96308,-1.24823c-0.44867,-0.89026 -0.00705,-3.5612 -0.15017,-4.61709c0,0 -0.1293,-1.03983 0.62798,-1.02685c0.15623,0.00269 0.28573,0.04907 0.39289,0.121z" fill="#ffffff" stroke="none" stroke-width="0.5"/><path d="M290.57855,134.27217c0.5035,-0.45168 1.00746,0.30689 1.00746,0.30689l1.02966,1.57778c0.32197,1.03512 1.21061,3.38639 0.63907,4.30348c-0.4222,0.67746 -2.60123,0.37401 -3.22819,-0.52822c-0.62312,-0.89668 -0.63462,-3.95625 -0.77889,-5.11643c0,0 -0.1293,-1.03983 0.62798,-1.02685c0.35552,0.00611 0.57264,0.2385 0.70293,0.48337z" fill="#ffffff" stroke="none" stroke-width="0.5"/><path d="M305.29647,132.52325c0.7573,0.01298 0.88659,1.05282 0.88659,1.05282l0.15093,1.25929c0.20623,0.66512 1.95223,5.10768 1.85848,5.4905c-0.29652,1.21075 -3.31756,0.35206 -3.81342,-0.26228c-0.62243,-0.77115 -0.66575,-4.06653 -0.80031,-5.14866c0,0 -0.1293,-1.03983 0.62798,-1.02685c0.23373,0.00401 0.40765,0.10584 0.53639,0.24472l-0.07463,-0.58268c0,0 -0.1293,-1.03983 0.62798,-1.02685z" fill="#ffffff" stroke="none" stroke-width="0.5"/><path d="M317.35166,133.9303c0.07219,-0.23547 0.23299,-0.45158 0.5808,-0.44561c0.7573,0.01298 0.88659,1.05282 0.88659,1.05282l-0.03665,0.01712c0.41127,1.12495 2.54828,4.51278 2.37851,5.35486c-0.32651,1.6196 -3.92598,0.00317 -4.39866,-0.67503c-0.70547,-1.01221 -0.27275,-3.23208 -0.42439,-4.39361c0,0 -0.1293,-1.03983 0.62798,-1.02685c0.1528,0.00262 0.28005,0.04705 0.38582,0.11632z" fill="#ffffff" stroke="none" stroke-width="0.5"/><path d="M328.64911,133.35337c0.07291,-0.03213 0.15976,-0.04998 0.26314,-0.04819c0.53102,0.00911 0.75327,0.52314 0.83868,0.82947c1.20085,1.1252 3.08452,3.78837 2.27401,5.42625c-0.13387,0.27052 -3.82123,0.62546 -4.05109,0.37099c-0.83716,-0.92675 -0.78608,-5.79445 -0.87899,-7.07768c0,0 -0.07502,-1.03626 0.68955,-0.94924c0.76457,0.08705 0.8396,1.1233 0.8396,1.1233c0.00783,0.10827 0.01625,0.21665 0.02511,0.32509z" fill="#ffffff" stroke="none" stroke-width="0.5"/><path d="M334.65294,130.45803c0.00519,-0.01355 0.01065,-0.02715 0.01639,-0.04083c0.34765,-0.82711 1.03275,-0.19678 1.03275,-0.19678l0.84744,0.80074c0.62276,1.08607 3.08012,4.25635 2.71091,5.74548c-0.26027,1.04974 -4.04771,1.6925 -4.72172,0.75347c-0.34309,-0.478 -0.55271,-4.93125 -0.85423,-5.90369c0,0 -0.30912,-1.01195 0.39421,-1.25154c0.23402,-0.07972 0.4244,-0.02089 0.57425,0.09314z" fill="#ffffff" stroke="none" stroke-width="0.5"/><path d="M341.37999,129.88346c0.25325,-0.77325 0.92686,-0.33653 0.92686,-0.33653l0.19564,0.23969c0.87633,0.02835 3.15335,0.42706 3.53071,2.0713c0.26992,1.17609 -2.30802,2.96458 -3.02892,2.77038c-1.39004,-0.37447 -1.93461,-2.28344 -2.74096,-3.61274c0,0 -0.52767,-0.87241 0.03072,-1.4384c0.55504,-0.56263 1.07974,0.29606 1.08599,0.30632z" fill="#ffffff" stroke="none" stroke-width="0.5"/><path d="M266.17003,123.63583c0.36706,0.00629 0.58658,0.25381 0.71536,0.50728c0.04979,0.04301 0.10102,0.09504 0.15352,0.1574c0.52682,0.62559 0.29736,1.23822 0.21066,1.41791c0.78027,1.5871 1.98188,4.35021 0.32649,5.4316c-0.50948,0.33282 -4.44115,-1.54424 -4.61572,-2.97059c-0.18613,-1.52082 1.63069,-2.45329 2.59778,-3.40198l-0.01608,-0.11473c0,0 -0.1293,-1.03983 0.62798,-1.02685z" fill="#ffffff" stroke="none" stroke-width="0.5"/><path d="M271.3963,130.88262c0.35664,-0.11205 0.74969,-0.10923 1.17311,0.02011l0.37097,0.00635l0.0347,-0.29203l0.78287,0.35172c0.3257,0.13598 0.59982,0.53546 0.658,1.00321c0.07141,0.57428 -0.20974,1.03403 -0.62798,1.02685l-0.49022,-0.0084c0.36761,1.33346 0.36671,3.03611 0.05354,3.72049c-0.4104,0.89686 -1.33653,0.74818 -2.03212,0.74195c-0.51934,-0.00464 -1.93185,0.05202 -2.25055,-0.5866c-0.30606,-0.61328 0.17237,-1.28913 0.23736,-1.94294c0.14346,-1.44348 0.51221,-2.56653 1.0565,-3.27324c0.01372,-0.78502 0.64261,-0.77424 0.64261,-0.77424c0.13041,0.00224 0.26082,0.00447 0.39124,0.00671z" fill="#ffffff" stroke="none" stroke-width="0.5"/><path d="M284.03393,133.98229c0.07919,-0.1706 0.19549,-0.28969 0.35784,-0.33473c1.44668,-0.40138 3.35497,5.01291 2.79881,6.19278c-0.56804,1.20503 -3.69444,0.17692 -4.21695,-1.07448c-0.05353,-0.12821 0.34609,-3.04785 0.24649,-3.78265c0,0 -0.1293,-1.03983 0.62798,-1.02685c0.06671,0.00114 0.12854,0.01026 0.18582,0.02592z" fill="#ffffff" stroke="none" stroke-width="0.5"/><path d="M298.38373,136.14357l0.81349,0.41375c0.45633,0.75448 2.21477,3.20243 2.10242,4.06124c-0.17857,1.36484 -3.98529,1.45289 -4.60341,0.41982c-0.06299,-0.10528 0.34865,-4.06333 0.37621,-4.53945c0,0 0.05821,-1.00566 0.82427,-0.74086c0.22717,0.07853 0.38185,0.2222 0.48707,0.38549z" fill="#ffffff" stroke="none" stroke-width="0.5"/><path d="M310.79056,136.33911c0.06154,-0.08189 0.14528,-0.15285 0.25755,-0.2053c0.67754,-0.3165 1.03969,0.67408 1.03969,0.67408l0.22754,0.73983c3.35199,3.06636 -1.13043,4.76406 -2.26644,3.05407c-0.58029,-0.87348 -0.68342,-3.716 -0.83047,-4.89843c0,0 -0.1293,-1.03983 0.62798,-1.02685c0.7573,0.01298 0.88659,1.05282 0.88659,1.05282c0.02507,0.20154 0.04348,0.40518 0.05757,0.60981z" fill="#ffffff" stroke="none" stroke-width="0.5"/><path d="M288.49009,159.32212c-0.54253,0.48268 -1.04399,-0.3464 -1.04399,-0.3464c-0.53737,-0.89078 -2.92041,-4.66601 -2.83245,-5.66986c0.1336,-1.52436 3.51579,-2.41223 4.51055,-1.59856c1.32826,1.08645 1.15707,4.83107 0.97772,6.24627l-0.71323,1.2136c0,0 -0.36418,0.59552 -0.8986,0.15495z" fill="#ffffff" stroke="none" stroke-width="0.5"/><path d="M293.78743,158.58714c-0.70183,-0.58761 -0.38935,-1.4456 -0.38935,-1.4456l0.04322,-0.11865c-0.14775,-0.21354 -0.21713,-0.44059 -0.21713,-0.44059c-0.35487,-1.19831 -2.27703,-4.34264 -1.91139,-5.52374c0.433,-1.39864 4.0256,-2.25027 5.03121,-0.46926c1.23816,2.19286 -0.59135,5.11647 -1.16669,6.69628l-0.37555,1.03118c0,0 -0.31248,0.858 -1.01431,0.27039z" fill="#ffffff" stroke="none" stroke-width="0.5"/><path d="M301.56983,157.72596c-0.03469,0.29892 -0.16901,0.6737 -0.62552,0.66587c-0.7573,-0.01298 -0.88659,-1.05282 -0.88659,-1.05282l0.33714,-1.26816c-0.24191,-1.26646 -1.28232,-4.43749 -1.04554,-5.09695c0.36679,-1.02162 3.43265,-2.07412 4.37237,-0.87741c2.10533,2.68106 -0.54198,6.44333 -2.15185,7.62945z" fill="#ffffff" stroke="none" stroke-width="0.5"/><path d="M310.74893,156.48639c0.01778,0.04421 0.03402,0.08621 0.04855,0.12574c0,0 0.30377,0.83087 -0.16559,1.21386c-0.06618,0.25005 -0.22495,0.49106 -0.59195,0.48477c-0.7573,-0.01298 -0.88659,-1.05282 -0.88659,-1.05282l-0.04514,-0.67477c0.0044,-0.03687 0.00863,-0.07711 0.0127,-0.12042c-0.5772,-1.32151 -1.48007,-3.20871 -1.33774,-4.30893c0.09945,-0.76862 2.15499,-3.98288 3.18422,-2.56014c0.90124,1.24581 0.12479,4.94167 -0.21844,6.89272z" fill="#ffffff" stroke="none" stroke-width="0.5"/><path d="M314.7621,157.09158c-0.23128,-0.38238 -0.25391,-0.70589 -0.20636,-0.9487c-0.06097,-0.18056 -0.07874,-0.32351 -0.07874,-0.32351c-0.15278,-1.26669 -0.58884,-4.97767 -0.01133,-5.92201c0.59111,-0.96656 4.33166,-0.94833 4.87836,0.82647c0.43417,1.40941 -2.19158,5.33516 -2.82482,5.99391l-0.67109,0.68025c0,0 -0.55838,0.566 -1.08604,-0.3064z" fill="#ffffff" stroke="none" stroke-width="0.5"/><path d="M325.01944,158.28022c0,0 0.32402,1.00663 -0.37257,1.26769c-0.69658,0.26109 -1.02059,-0.74554 -1.02059,-0.74554c-0.41792,-1.29837 -2.38358,-5.62742 -1.6728,-6.91527c1.52726,-2.76728 3.81013,1.09296 3.70319,3.57831l-0.04184,0.0895l0.02191,0.0142l-0.44119,1.8285c-0.04818,0.21678 -0.15517,0.39096 -0.30156,0.49077c0.04167,0.13068 0.08347,0.2613 0.12551,0.39185z" fill="#ffffff" stroke="none" stroke-width="0.5"/><path d="M330.34407,159.42959c-0.7573,-0.01298 -0.88659,-1.05282 -0.88659,-1.05282c-0.15867,-1.30419 -1.435,-4.3524 -1.34452,-5.30339c0.04823,-0.50713 2.1193,-1.49493 2.46869,-1.08535c0.45827,0.53725 0.89962,3.0219 1.10538,4.07548l-0.05311,0.16309l0.05488,0.01896l-0.0788,1.36108c-0.01895,0.46175 -0.27755,0.80226 -0.63795,0.79608c0,0 0.1293,1.03983 -0.62798,1.02685z" fill="#ffffff" stroke="none" stroke-width="0.5"/><path d="M256.69796,100.46623c-0.12935,-1.96584 -1.78499,-14.44934 2.20022,-23.15698c3.17404,-6.93524 11.34994,-10.66257 16.42797,-10.6517c5.35675,0.01148 15.14565,2.36916 20.60456,9.88145c6.21336,8.55054 7.77878,22.47252 7.88116,24.02814c0.60758,9.23323 -1.79941,25.50443 -9.36358,29.29739c-3.02677,1.51773 -8.93489,-5.93195 -12.65301,-5.93991c-13.01016,-0.02786 -24.24658,-10.53057 -25.09727,-23.45836z" fill="url(#color-1)" stroke="#000000" stroke-width="2"/><path d="M313.38372,97.01102c0.17651,-1.94178 0.46452,-14.40009 5.7977,-22.30433c4.24765,-6.29538 12.99077,-8.68966 18.05943,-7.90269c5.34686,0.83017 14.75436,4.63183 19.0369,12.8112c4.87441,9.30981 4.27266,23.16073 4.13298,24.69732c-1.16081,12.76968 -12.6292,21.48703 -25.61532,19.47079c-2.61031,-0.40528 -4.56569,5.0613 -6.84159,3.92496c-9.04661,-4.51687 -15.49755,-20.4944 -14.57007,-30.69723z" fill="url(#color-2)" stroke="#000000" stroke-width="2"/><path d="M366.8266,109.04444c-0.32546,-0.69467 0.35473,-0.97118 0.35473,-0.97118l0.41341,-0.11988c1.33749,-1.22258 2.0366,-2.82966 2.27971,-4.56371c-0.4057,-0.83097 -0.64451,-1.66218 -0.65551,-2.44662c0,0 -0.00267,-0.67604 0.64735,-0.70021c-0.04638,-0.35993 -0.10679,-0.71888 -0.17976,-1.07472c0,0 -0.15077,-0.74099 0.58805,-0.84077c0.73881,-0.09978 0.88959,0.64121 0.88959,0.64121c0.2855,1.41301 0.38673,2.84187 0.25219,4.21172c1.50662,2.65174 5.12692,5.6312 7.24473,5.68849l0.64545,-0.24157c0,0 0.6949,-0.24317 0.98764,0.46387c0.29273,0.70704 -0.40217,0.9502 -0.40217,0.9502l-0.92937,0.30948c-2.50886,-0.19397 -5.89195,-2.47492 -7.94044,-5.13887c-0.43347,1.44441 -1.19503,2.76733 -2.35688,3.86387l-0.83303,0.38683c0,0 -0.68019,0.27652 -1.00565,-0.41816z" fill="#000000" stroke="none" stroke-width="0.5"/><g stroke="#000000" stroke-width="0"><path d="M236.21662,82.37073l-19.95956,-62.12728c0,0 50.58753,-5.28113 75.38006,-6.8415c24.05391,-1.51388 71.2263,-2.38548 71.2263,-2.38548l1.99678,63.77717z" fill="#000000"/><path d="M237.04726,81.46688l-3.61043,-10.06864l130.57432,-4.35236l0.23211,10.06473z" fill="#ffffff"/><path d="M218.16948,89.73158c0,0 -3.55955,-3.56473 -4.56055,-5.65505c-1.06924,-2.23287 -1.66367,-7.34275 -1.66367,-7.34275l176.19429,-5.18867c0,0 -0.18229,4.01556 -0.72614,6.14994c-0.59076,2.31847 -2.68942,7.25437 -2.68942,7.25437c0,0 -1.74645,0.05014 -4.87678,0.14003c-1.48179,0.04254 0.5317,28.30121 -1.53184,28.36046c-0.53733,0.01543 -1.01818,-8.11854 -2.26917,-15.35528c-1.18211,-6.83823 -4.30252,-12.77252 -4.87554,-12.75606c-31.14945,0.89438 -107.41308,3.08408 -136.76538,3.92687c-2.58701,0.07429 -0.5787,11.40889 -2.39604,10.87217c-4.66408,-1.37746 -6.76104,-10.60924 -7.61269,-10.58479c-3.46795,0.09958 -6.2271,0.17879 -6.2271,0.17879z" fill="#000000"/></g></g></g></g></svg>