<svg version="1.1" xmlns="http://www.w3.org/2000/svg" xmlns:xlink="http://www.w3.org/1999/xlink" width="254.18333" height="281.71077" viewBox="0,0,254.18333,281.71077"><g transform="translate(-190.17913,-17.21402)"><g stroke-miterlimit="10"><path d="M190.17913,298.92479v-267.72501h254.18333v267.72501z" fill="none" stroke="none" stroke-width="0" stroke-linecap="butt"/><path d="" fill="none" stroke="#000000" stroke-width="2" stroke-linecap="round"/><g stroke="#000000"><path d="M295.34981,202.90587l50.88029,-0.17023l-25.90909,48.28125z" fill="#ff6300" stroke-width="5" stroke-linecap="round"/><path d="M254.66203,166.38797l36.67943,35.26262l-52.19492,16.67485z" fill="#ff6300" stroke-width="5" stroke-linecap="round"/><path d="M249.16937,114.44647l1.92293,50.84422l-49.14515,-24.23045z" fill="#ff6300" stroke-width="5" stroke-linecap="round"/><path d="M286.91603,75.92238l-36.39875,35.55227l-15.02506,-52.69353z" fill="#ff6300" stroke-width="5" stroke-linecap="round"/><path d="M345.03097,71.05146l-50.87705,-0.59855l26.63563,-47.88427z" fill="#ff6300" stroke-width="5" stroke-linecap="round"/><path d="M389.21401,110.80005l-35.55226,-36.39875l52.69353,-15.02506z" fill="#ff6300" stroke-width="5" stroke-linecap="round"/><path d="M389.13298,163.06517l0.59856,-50.87705l47.88428,26.63563z" fill="#ff6300" stroke-width="5" stroke-linecap="round"/><path d="M350.58149,200.96341l36.39875,-35.55227l15.02506,52.69353z" fill="#ff6300" stroke-width="5" stroke-linecap="round"/><path d="M244.6041,136.40211c0,-39.08686 33.75591,-70.77302 75.39591,-70.77302c41.64002,0 75.39591,31.68616 75.39591,70.77302c0,39.08686 -33.7559,70.77303 -75.39591,70.77303c-41.64,0 -75.39591,-31.68617 -75.39591,-70.77303z" fill="#ffe63c" stroke-width="5" stroke-linecap="butt"/><path d="M295.34981,202.90587l50.88028,-0.17023l-25.90909,48.28126z" fill="#ff6300" stroke-width="0" stroke-linecap="round"/><path d="M254.66204,166.38797l36.67943,35.26262l-52.19492,16.67485z" fill="#ff6300" stroke-width="0" stroke-linecap="round"/><path d="M249.16937,114.44646l1.92292,50.84422l-49.14515,-24.23045z" fill="#ff6300" stroke-width="0" stroke-linecap="round"/><path d="M286.91603,75.92238l-36.39875,35.55227l-15.02506,-52.69353z" fill="#ff6300" stroke-width="0" stroke-linecap="round"/><path d="M345.03097,71.05146l-50.87705,-0.59856l26.63563,-47.88427z" fill="#ff6300" stroke-width="0" stroke-linecap="round"/><path d="M389.21401,110.80005l-35.55227,-36.39875l52.69353,-15.02506z" fill="#ff6300" stroke-width="0" stroke-linecap="round"/><path d="M389.13297,163.06516l0.59856,-50.87705l47.88428,26.63563z" fill="#ff6300" stroke-width="0" stroke-linecap="round"/><path d="M350.58149,200.9634l36.39875,-35.55227l15.02506,52.69353z" fill="#ff6300" stroke-width="0" stroke-linecap="round"/><path d="M244.6041,136.40211c0,-39.08686 33.75591,-70.77302 75.39591,-70.77302c41.64002,0 75.39591,31.68616 75.39591,70.77302c0,39.08686 -33.7559,70.77303 -75.39591,70.77303c-41.64,0 -75.39591,-31.68617 -75.39591,-70.77303z" fill="#ffe63c" stroke-width="0" stroke-linecap="butt"/></g><path d="M280.54911,125.49549c0,-6.11558 4.95766,-11.07324 11.07324,-11.07324c6.11558,0 11.07324,4.95766 11.07324,11.07324c0,6.11558 -5.55621,-4.64517 -11.67179,-4.64517c-6.11558,0 -10.47469,10.76075 -10.47469,4.64517z" fill="#000000" stroke="none" stroke-width="NaN" stroke-linecap="butt"/><path d="M347.68493,120.59469c-6.11558,0 -10.81761,11.01638 -10.81761,4.9008c0,-6.11558 4.95766,-11.07324 11.07324,-11.07324c6.11558,0 11.07324,4.95766 11.07324,11.07324c0,6.11558 -5.21329,-4.9008 -11.32887,-4.9008z" fill="#000000" stroke="none" stroke-width="NaN" stroke-linecap="butt"/><path d="M288.74465,147.72503l64.91873,1.28129c0,0 -12.95632,42.70124 -34.16775,42.2826c-21.21143,-0.41865 -30.75098,-43.56389 -30.75098,-43.56389z" fill="#000000" stroke="#000000" stroke-width="1.5" stroke-linecap="round"/></g></g></svg>