<svg version="1.1" xmlns="http://www.w3.org/2000/svg" xmlns:xlink="http://www.w3.org/1999/xlink" width="246.71113" height="313.58969" viewBox="0,0,246.71113,313.58969"><defs><radialGradient cx="362.2367" cy="139.49196" r="23.96061" gradientUnits="userSpaceOnUse" id="color-1"><stop offset="0" stop-color="#ffffff"/><stop offset="1" stop-color="#ff9494"/></radialGradient></defs><g transform="translate(-214.52362,-5.48259)"><g stroke-miterlimit="10"><path d="M344.84876,213.66667l-2,-20.33333l74.66667,-51.33333l10.66667,13.66667z" fill="#ff7be1" stroke="none" stroke-width="0" stroke-linecap="butt"/><g fill="#ff7be1" stroke="none" stroke-width="0" stroke-linecap="butt"><path d="M264.24205,229.41587c7.899,3.29948 11.55575,12.54977 8.16758,20.6611c-3.38817,8.11134 -8.99868,13.398 -20.43722,8.71265c-12.28758,-5.03312 -11.55575,-12.54977 -8.16758,-20.6611c3.38817,-8.11133 12.53822,-12.01212 20.43722,-8.71265z"/><path d="M282.27655,245.07402c0.70047,4.12917 -2.07903,8.04437 -6.2082,8.74484c-4.12917,0.70047 -8.04436,-2.07904 -8.74483,-6.20821c-0.70047,-4.12917 2.07904,-8.04436 6.2082,-8.74483c4.12917,-0.70047 8.04436,2.07904 8.74483,6.2082z"/><path d="M259.13595,252.67844c4.37339,0.63984 6.10267,6.24506 5.72447,11.98558c-0.3782,5.74052 -1.94515,10.58535 -7.17073,9.96684c-5.55358,-0.65733 -6.17935,-5.08092 -5.80116,-10.82144c0.3782,-5.74052 2.18694,-11.87135 7.24741,-11.13098z"/><path d="M240.74381,254.49231c3.90066,-4.22864 9.15953,-7.86222 12.63155,-4.10701c3.00061,3.24534 0.8246,8.6927 -3.07606,12.92135c-3.90067,4.22865 -8.16351,7.0136 -11.84053,3.24947c-3.90782,-4.00039 -1.61563,-7.83516 2.28503,-12.06381z"/><path d="M248.04455,244.49539c1.34992,4.20876 -2.92247,8.22815 -8.24374,10.41462c-5.32128,2.18647 -10.36134,2.91132 -12.10542,-2.05329c-1.85354,-5.27623 1.84336,-7.78474 7.16463,-9.97122c5.32127,-2.18648 11.62254,-3.26009 13.18453,1.60988z"/></g><path d="M254.1821,229.66667c0,0 -1.08605,-22.58939 14.04725,-34.07518c15.1333,-11.48579 44.28609,-3.25816 44.28609,-3.25816l1,20.33333c0,0 -17.63934,-11.10459 -32.681,-3.63424c-15.04166,7.47035 -11.98567,25.96757 -11.98567,25.96757z" fill="#ff7be1" stroke="none" stroke-width="0" stroke-linecap="butt"/><path d="M214.52362,306.61253v-267.72501c0,0 32.72627,0 56.15261,0c39.17509,0 157.02942,0 157.02942,0v267.72501z" fill="none" stroke="none" stroke-width="0" stroke-linecap="butt"/><g stroke-width="0" stroke-linecap="butt"><path d="M356.49068,53.84956c0.10566,2.20661 -1.15029,4.05967 -2.80524,4.13891c-1.65495,0.07925 -3.08222,-1.64532 -3.18789,-3.85193c-0.10566,-2.20661 1.15029,-4.05967 2.80524,-4.13891c1.65495,-0.07925 3.08222,1.64532 3.18789,3.85193z" fill="#942c3b" stroke="none"/><path d="M363.15064,57.03465c0.06604,1.37913 -1.33383,2.56674 -3.1267,2.65259c-1.79288,0.08585 -3.29982,-0.96256 -3.36586,-2.34169c-0.06604,-1.37913 1.33383,-2.56674 3.1267,-2.65259c1.79288,-0.08585 3.29982,0.96256 3.36586,2.34169z" fill="#942c3b" stroke="none"/><path d="M368.53075,54.3993c0.08915,1.86183 -0.84478,3.41932 -2.086,3.47876c-1.24122,0.05944 -2.3197,-1.40169 -2.40885,-3.26352c-0.08915,-1.86183 0.84478,-3.41932 2.086,-3.47876c1.24122,-0.05944 2.3197,1.40169 2.40885,3.26352z" fill="#942c3b" stroke="none"/><path d="M375.96517,63.3039c0.14859,3.10304 -0.45766,5.65336 -1.35409,5.69629c-0.89643,0.04293 -1.7436,-2.43779 -1.89219,-5.54084c-0.14859,-3.10304 0.45766,-5.65336 1.35409,-5.69629c0.89643,-0.04293 1.7436,2.43779 1.89219,5.54084z" fill="#942c3b" stroke="none"/><path d="M384.19059,73.04662c0.04623,0.96539 -0.8107,1.79083 -1.91401,1.84366c-1.10331,0.05283 -2.03519,-0.68694 -2.08141,-1.65234c-0.04623,-0.96539 0.8107,-1.79083 1.91401,-1.84366c1.10331,-0.05283 2.03519,0.68694 2.08141,1.65234z" fill="#942c3b" stroke="none"/><path d="M391.76571,74.43589c0.05283,1.10331 -0.63105,2.03251 -1.52748,2.07544c-0.89643,0.04293 -1.66597,-0.81668 -1.7188,-1.91999c-0.05283,-1.10331 0.63105,-2.03251 1.52748,-2.07544c0.89643,-0.04293 1.66597,0.81668 1.7188,1.91999z" fill="#942c3b" stroke="none"/><path d="M400.22011,73.28019c0.06604,1.37913 -0.88663,2.54532 -2.12785,2.60476c-1.24122,0.05944 -2.30096,-1.01039 -2.367,-2.38952c-0.06604,-1.37913 0.88663,-2.54532 2.12785,-2.60476c1.24122,-0.05944 2.30096,1.01039 2.367,2.38952z" fill="#942c3b" stroke="none"/><path d="M380.08157,70.86566c0.10897,2.27556 -0.5853,4.15775 -1.5507,4.20398c-0.96539,0.04623 -1.83633,-1.76101 -1.9453,-4.03658c-0.10897,-2.27556 0.5853,-4.15775 1.5507,-4.20398c0.96539,-0.04623 1.83633,1.76101 1.9453,4.03658z" fill="#942c3b" stroke="none"/><path d="M360.84343,55.8937c0.09246,1.93079 -1.6214,3.58165 -3.82801,3.68732c-2.20661,0.10566 -4.07037,-1.37388 -4.16283,-3.30467c-0.09246,-1.93079 1.6214,-3.58165 3.82801,-3.68732c2.20661,-0.10566 4.07037,1.37388 4.16283,3.30467z" fill="#942c3b" stroke="none"/><path d="M367.33599,55.5828c0.05944,1.24122 -1.06629,2.30364 -2.51438,2.37298c-1.44809,0.06934 -2.67018,-0.88065 -2.72961,-2.12187c-0.05944,-1.24122 1.06629,-2.30364 2.51438,-2.37298c1.44809,-0.06934 2.67018,0.88065 2.72961,2.12187z" fill="#942c3b" stroke="none"/><path d="M356.97217,53.45107c0.06934,1.44809 -1.71916,2.71033 -3.99472,2.8193c-2.27556,0.10897 -4.17649,-0.9766 -4.24583,-2.42469c-0.06934,-1.44809 1.71916,-2.71033 3.99472,-2.8193c2.27556,-0.10897 4.17649,0.9766 4.24583,2.42469z" fill="#942c3b" stroke="none"/><path d="M377.63086,66.72815c0.06274,1.31018 -0.66901,2.40976 -1.6344,2.45599c-0.96539,0.04623 -1.79886,-0.9784 -1.86159,-2.28858c-0.06274,-1.31018 0.66901,-2.40976 1.6344,-2.45599c0.96539,-0.04623 1.79886,0.9784 1.86159,2.28858z" fill="#942c3b" stroke="none"/><path d="M384.4702,73.65895c0.04953,1.03434 -0.91652,1.92104 -2.15774,1.98047c-1.24122,0.05944 -2.28758,-0.73089 -2.33711,-1.76523c-0.04953,-1.03434 0.91652,-1.92104 2.15774,-1.98047c1.24122,-0.05944 2.28758,0.73089 2.33711,1.76523z" fill="#942c3b" stroke="none"/><path d="M389.29846,75.17975c0.02311,0.4827 -0.51715,0.90077 -1.20672,0.93379c-0.68957,0.03302 -1.26731,-0.33151 -1.29042,-0.81421c-0.02311,-0.4827 0.51715,-0.90077 1.20672,-0.93379c0.68957,-0.03302 1.26731,0.33151 1.29042,0.81421z" fill="#942c3b" stroke="none"/><path d="M396.25458,74.09579c0.04293,0.89643 -0.81668,1.66597 -1.91999,1.7188c-1.10331,0.05283 -2.03251,-0.63105 -2.07544,-1.52748c-0.04293,-0.89643 0.81668,-1.66597 1.91999,-1.7188c1.10331,-0.05283 2.03251,0.63105 2.07544,1.52748z" fill="#942c3b" stroke="none"/><path d="M387.5684,75.63802c0.05283,1.10331 -1.13415,2.0566 -2.65119,2.12925c-1.51704,0.07264 -2.78968,-0.76287 -2.84251,-1.86618c-0.05283,-1.10331 1.13415,-2.0566 2.65119,-2.12925c1.51704,-0.07264 2.78968,0.76287 2.84251,1.86618z" fill="#942c3b" stroke="none"/><path d="M383.20369,73.34417c0.05283,1.10331 -1.02235,2.05125 -2.40148,2.11729c-1.37913,0.06604 -2.53997,-0.77483 -2.5928,-1.87813c-0.05283,-1.10331 1.02235,-2.05125 2.40148,-2.11729c1.37913,-0.06604 2.53997,0.77483 2.5928,1.87813z" fill="#942c3b" stroke="none"/><path d="M374.98883,58.59521c0.10897,2.27556 -1.08841,4.18185 -2.67441,4.25779c-1.586,0.07595 -2.96004,-1.7072 -3.06901,-3.98277c-0.10897,-2.27556 1.08841,-4.18185 2.67441,-4.25779c1.586,-0.07595 2.96004,1.7072 3.06901,3.98277z" fill="#942c3b" stroke="none"/><g><path d="M335.95475,97.77738c0,0 4.07865,-25.31342 12.8741,-50.22165c1.30745,3.47905 2.39329,6.01531 5.71349,8.00486c2.99999,1.79767 7.2875,2.05096 10.18145,0.10275c1.13539,-1.45459 2.24721,-2.92553 3.41152,-4.35725c0.3762,-0.46261 0.44088,-1.55169 1.0304,-1.46224c0.91858,0.13938 0.57664,1.76789 0.92262,2.63017c1.28296,3.19754 1.9902,6.85343 3.68092,9.83015c1.49662,3.19021 3.09931,6.31593 5.3268,9.05505c1.38886,1.45238 3.89797,4.39161 6.05521,4.63126c0.78801,0.08754 2.19652,-0.69518 2.95673,-0.94397c1.89808,-0.6212 3.8896,-1.12595 5.68211,-2.00883c0.36993,-0.1822 1.58671,-1.3942 1.93606,-1.34751c0.21325,0.0285 1.03595,1.17697 1.22536,1.37734c1.79808,1.90208 3.64585,3.18618 5.78235,4.21775c-7.75868,21.65014 -17.21917,39.33458 -17.21917,39.33458z" fill="#90003f" stroke="#000000"/><path d="M362.27915,100.53839c-12.41219,-4.96773 -10.22937,-23.77745 -4.1927,-43.67964c2.31186,0.40364 4.76596,0.06441 6.63733,-1.1954c1.13539,-1.45459 2.24721,-2.92553 3.41152,-4.35725c0.3762,-0.46261 0.44088,-1.55169 1.0304,-1.46224c0.91858,0.13938 0.57664,1.76789 0.92262,2.63017c1.28296,3.19754 1.9902,6.85343 3.68092,9.83015c1.49662,3.19021 3.09931,6.31593 5.3268,9.05505c1.38886,1.45238 3.89797,4.39161 6.05521,4.63126c0.78801,0.08754 2.19652,-0.69518 2.95673,-0.94397c1.69231,-0.55385 3.4589,-1.01514 5.09249,-1.73439c-6.5199,18.13775 -14.99571,33.60019 -30.92131,27.22629z" fill="#979797" stroke="none"/></g></g><g stroke-linecap="butt"><path d="M286.35186,319.07227l25.04457,-131.8421l37.79511,-0.15789l3.66032,132z" fill="#ff7be1" stroke="#000000" stroke-width="0"/><path d="M301.84248,237.52505c3.56756,-18.7807 9.55395,-50.29488 9.55395,-50.29488l37.79511,-0.15789c0,0 0.88698,31.98633 1.41217,50.9262c0.00799,0.28827 -48.85142,0.00137 -48.76122,-0.47343z" fill="#da5cb1" stroke="#000000" stroke-width="0"/><path d="M303.70276,227.73195c3.07889,-16.20821 7.69367,-40.50179 7.69367,-40.50179l37.79511,-0.15789c0,0 0.69234,24.96751 1.14938,41.44929c0.00324,0.11664 -46.6951,-0.4898 -46.63815,-0.78961z" fill="#940039" stroke="#000000" stroke-width="0"/><path d="M305.41704,218.70743c2.55524,-13.4516 5.97938,-31.47726 5.97938,-31.47726l37.79511,-0.15789c0,0 0.49465,17.83861 0.8653,31.20479c0.00603,0.21738 -44.67042,0.59162 -44.63978,0.43036z" fill="#7c0000" stroke="#000000" stroke-width="0"/><path d="M309.33652,219.16667c-0.05185,0.69036 -0.65352,1.25 -1.34388,1.25c-0.08006,0 -0.15778,-0.00753 -0.23257,-0.02191c-0.192,0.06809 -0.39657,0.10524 -0.60701,0.10524c-0.9665,0 -1.69116,-0.7835 -1.61857,-1.75c0.07259,-0.9665 0.91493,-1.75 1.88143,-1.75c0.79013,0 1.41863,0.52364 1.58204,1.24283c0.2335,0.2286 0.36605,0.55785 0.33857,0.92384z" fill="#7c0000" stroke="none" stroke-width="0.5"/><path d="M346.22782,222.83334c0.00646,-0.08608 0.02149,-0.17014 0.04416,-0.25133c-0.66113,-0.03033 -1.14855,-0.57778 -1.09816,-1.24867c0.04052,-0.53959 0.41694,-0.99932 0.90907,-1.1744c-0.1421,-0.07149 -0.27114,-0.16308 -0.38383,-0.27121c-0.33042,0.27711 -0.75193,0.44561 -1.20014,0.44561c-0.27463,0 -0.52974,-0.06327 -0.75257,-0.17601c-0.34007,0.3148 -0.79085,0.50934 -1.27246,0.50934c-0.74683,0 -1.34926,-0.46782 -1.55103,-1.1264c-0.24994,0.32798 -0.64384,0.54307 -1.07183,0.54307c-0.69036,0 -1.20797,-0.55964 -1.15612,-1.25c0.05185,-0.69036 0.65352,-1.25 1.34388,-1.25c0.45596,0 0.83656,0.24412 1.02751,0.60879c0.32094,-0.60493 0.96237,-1.02546 1.67044,-1.02546c0.27463,0 0.52974,0.06327 0.75257,0.17601c0.34007,-0.3148 0.79085,-0.50934 1.27246,-0.50934c0.4482,0 0.84441,0.1685 1.1332,0.44561c0.33042,-0.27711 0.75193,-0.44561 1.20014,-0.44561c0.31544,0 0.60511,0.08345 0.84972,0.22949c0.15156,-0.04095 0.3096,-0.06283 0.4711,-0.06283c0.9665,0 1.69116,0.7835 1.61857,1.75c-0.07259,0.9665 -0.91493,1.75 -1.88143,1.75c-0.31544,0 -0.60511,-0.08345 -0.84972,-0.22949c-0.03456,0.00933 -0.06945,0.01768 -0.10464,0.025c0.31673,0.22447 0.50757,0.60552 0.47511,1.03783c-0.00646,0.08608 -0.02148,0.17014 -0.04415,0.25133c0.66113,0.03033 1.14855,0.57778 1.09816,1.24867c-0.05185,0.69036 -0.65352,1.25 -1.34388,1.25c-0.69036,0 -1.20797,-0.55964 -1.15612,-1.25z" fill="#7c0000" stroke="none" stroke-width="0.5"/><path d="M328.02197,218.91667c0.07259,-0.9665 0.91493,-1.75 1.88143,-1.75c0.77188,0 1.3895,0.49973 1.56997,1.19329c0.34332,-0.51477 0.93015,-0.85996 1.57167,-0.85996c0.59378,0 1.09628,0.29573 1.37871,0.74793c0.27445,-0.15743 0.58859,-0.24793 0.91707,-0.24793c0.9665,0 1.69116,0.7835 1.61857,1.75c-0.07259,0.9665 -0.91493,1.75 -1.88143,1.75c-0.59378,0 -1.09628,-0.29573 -1.37871,-0.74793c-0.27445,0.15743 -0.58859,0.24793 -0.91707,0.24793c-0.77188,0 -1.3895,-0.49972 -1.56997,-1.19329c-0.03157,0.04734 -0.0652,0.09324 -0.10074,0.13757c-0.35097,0.43777 -0.88839,0.72239 -1.47092,0.72239c-0.9665,0 -1.69116,-0.7835 -1.61857,-1.75z" fill="#7c0000" stroke="none" stroke-width="0.5"/><path d="M324.40537,218.25c0.07259,-0.9665 0.91493,-1.75 1.88143,-1.75c0.9665,0 1.69116,0.7835 1.61857,1.75c-0.07259,0.9665 -0.91493,1.75 -1.88143,1.75c-0.9665,0 -1.69116,-0.7835 -1.61857,-1.75z" fill="#7c0000" stroke="none" stroke-width="0.5"/><path d="M320.68238,219c-0.05185,0.69036 -0.65352,1.25 -1.34388,1.25c-0.38125,0 -0.70982,-0.17068 -0.91888,-0.4398c-0.37052,-0.0615 -0.69193,-0.24228 -0.92705,-0.50212c-0.34197,0.32414 -0.79978,0.52526 -1.28945,0.52526c-0.60066,0 -1.1079,-0.30262 -1.38843,-0.76371c-0.19114,0.73612 -0.83085,1.31079 -1.58569,1.41386c-0.03121,0.0292 -0.06337,0.05739 -0.09641,0.08449c-0.34835,0.36692 -0.83728,0.59868 -1.36294,0.59868c-0.9665,0 -1.69116,-0.7835 -1.61857,-1.75c0.03948,-0.52566 0.30666,-0.99719 0.69767,-1.31797c0.29407,-0.30976 0.68834,-0.52319 1.12032,-0.58218c0.34096,-0.31901 0.79491,-0.51651 1.28017,-0.51651c0.60066,0 1.1079,0.30262 1.38843,0.7637c0.21133,-0.81386 0.97097,-1.43036 1.8283,-1.43036c0.48967,0 0.91727,0.20111 1.21055,0.52525c0.34197,-0.32414 0.79978,-0.52525 1.28945,-0.52525c0.9665,0 1.69116,0.7835 1.61857,1.75c-0.00665,0.08849 -0.01975,0.17546 -0.03881,0.26042c0.01804,0.03322 0.03448,0.06748 0.04925,0.10267c-0.01592,-0.11714 -0.01979,-0.2386 -0.01044,-0.36309c0.07259,-0.9665 0.91493,-1.75 1.88143,-1.75c0.9665,0 1.69116,0.7835 1.61857,1.75c-0.07259,0.9665 -0.91493,1.75 -1.88143,1.75c-0.71424,0 -1.2964,-0.42789 -1.52235,-1.0413c0.00624,0.06763 0.00692,0.13711 0.0016,0.20797z" fill="#7c0000" stroke="none" stroke-width="0.5"/><path d="M305.63754,229.58334c-0.02563,0 -0.05102,-0.00078 -0.07615,-0.0023c-0.03003,0.00152 -0.06022,0.0023 -0.09052,0.0023c-0.9665,0 -1.69116,-0.7835 -1.61857,-1.75c0.07259,-0.9665 0.91493,-1.75 1.88143,-1.75c0.05622,0 0.11161,0.00264 0.16608,0.00783c0.05525,-0.00519 0.11104,-0.00783 0.16726,-0.00783c0.41194,0 0.77994,0.14232 1.061,0.38049c0.35109,-0.43292 0.8853,-0.71383 1.46403,-0.71383c0.32128,0 0.61584,0.08658 0.86327,0.23768c0.32228,-0.25249 0.72374,-0.40435 1.14925,-0.40435c0.9665,0 1.69116,0.7835 1.61857,1.75c-0.00816,0.10863 -0.02604,0.21496 -0.05273,0.31811c0.31297,-0.62772 0.9678,-1.06811 1.6924,-1.06811c0.9665,0 1.69116,0.7835 1.61857,1.75c-0.07259,0.9665 -0.91493,1.75 -1.88143,1.75c-0.9665,0 -1.69116,-0.7835 -1.61857,-1.75c0.00816,-0.10863 0.02604,-0.21496 0.05273,-0.31811c-0.31297,0.62772 -0.9678,1.06811 -1.6924,1.06811c-0.32128,0 -0.61585,-0.08658 -0.86328,-0.23768c-0.32228,0.25249 -0.72373,0.40435 -1.14924,0.40435c-0.41194,0 -0.77995,-0.14233 -1.06101,-0.3805c-0.35109,0.43292 -0.88529,0.71384 -1.46402,0.71384c-0.0303,0 -0.06036,-0.00078 -0.09017,-0.0023c-0.02535,0.00152 -0.05087,0.0023 -0.07649,0.0023z" fill="#940039" stroke="none" stroke-width="0.5"/><path d="M324.0855,229.16667c-0.05185,0.69036 -0.65352,1.25 -1.34388,1.25c-0.26632,0 -0.50694,-0.08329 -0.69907,-0.22525c-0.14666,0.03822 -0.29925,0.05858 -0.45507,0.05858c-0.53411,0 -0.99437,-0.23928 -1.28703,-0.61649c-0.16616,-0.21418 -0.27831,-0.47281 -0.31926,-0.75736c-0.01542,-0.00343 -0.03076,-0.00709 -0.04599,-0.01094c0.09592,0.18606 0.14268,0.40306 0.12528,0.63479c-0.05185,0.69036 -0.65352,1.25 -1.34388,1.25c-0.69036,0 -1.20797,-0.55964 -1.15612,-1.25c0.0163,-0.21707 0.08696,-0.42122 0.19765,-0.59911c-0.07796,0.0104 -0.15714,0.01577 -0.23718,0.01577c-0.9665,0 -1.69116,-0.7835 -1.61857,-1.75c0.07259,-0.9665 0.91493,-1.75 1.88143,-1.75c0.58252,0 1.0772,0.28462 1.36242,0.72239c0.35097,-0.43777 0.88839,-0.72239 1.47092,-0.72239c0.83738,0 1.49321,0.58814 1.60629,1.37386c0.62231,0.13859 1.09078,0.61948 1.21679,1.23879c0.41633,0.19717 0.6832,0.63228 0.64527,1.13735zM318.99187,228.19428c-0.0153,0.01908 -0.03095,0.03787 -0.04695,0.05636c0.03032,0.00097 0.06027,0.00303 0.08984,0.00613c-0.01478,-0.02046 -0.02908,-0.0413 -0.04289,-0.0625z" fill="#940039" stroke="none" stroke-width="0.5"/><path d="M327.52291,230c0.0132,-0.17574 0.06202,-0.343 0.13887,-0.49472c-0.16762,0.05073 -0.34376,0.07806 -0.52424,0.07806c-0.9665,0 -1.69116,-0.7835 -1.61857,-1.75c0.07259,-0.9665 0.91493,-1.75 1.88143,-1.75c0.86161,0 1.53103,0.62268 1.61475,1.44259c0.28539,-0.17464 0.61681,-0.27592 0.9643,-0.27592c0.9665,0 1.69116,0.7835 1.61857,1.75c-0.07258,0.96647 -0.91489,1.74995 -1.88134,1.75c-0.25085,0.30361 -0.62869,0.5 -1.03764,0.5c-0.69036,0 -1.20797,-0.55964 -1.15612,-1.25z" fill="#940039" stroke="none" stroke-width="0.5"/><path d="M337.02951,226.58334c0.9665,0 1.69116,0.7835 1.61857,1.75c-0.00585,0.0779 -0.0167,0.15461 -0.03221,0.22982c0.00339,0.08507 0.0018,0.17505 -0.00534,0.27018c-0.13143,1.75 -1.88143,1.75 -1.88143,1.75h-2.16667c0,0 -1.75,0 -1.61857,-1.75c0.13143,-1.75 1.88143,-1.75 1.88143,-1.75h0.94192c0.33886,-0.30929 0.78547,-0.5 1.26229,-0.5z" fill="#940039" stroke="none" stroke-width="0.5"/><path d="M350.11054,228.83334c-0.05185,0.69036 -0.65352,1.25 -1.34388,1.25c-0.02738,0 -0.05448,-0.00088 -0.0813,-0.00261c-0.23593,0.10853 -0.49543,0.16928 -0.76455,0.16928c-0.4553,0 -0.85693,-0.17388 -1.14683,-0.45884c-0.20759,0.08096 -0.43101,0.12551 -0.66147,0.12551c-0.4482,0 -0.84441,-0.1685 -1.1332,-0.44561c-0.33042,0.27711 -0.75193,0.44561 -1.20014,0.44561c-0.52566,0 -0.97978,-0.23176 -1.27302,-0.59868c-0.26505,0.73075 -0.9787,1.26535 -1.77705,1.26535c-0.9665,0 -1.69116,-0.7835 -1.61857,-1.75c0.07259,-0.9665 0.91493,-1.75 1.88143,-1.75c0.52566,0 0.97978,0.23176 1.27302,0.59868c0.26505,-0.73075 0.9787,-1.26535 1.77705,-1.26535c0.4482,0 0.84441,0.1685 1.1332,0.44561c0.33042,-0.27711 0.75193,-0.44561 1.20014,-0.44561c0.4553,0 0.85693,0.17388 1.14683,0.45884c0.20759,-0.08096 0.43101,-0.12551 0.66147,-0.12551c0.7459,0 1.34776,0.46667 1.55029,1.12396c0.257,0.2293 0.40553,0.57397 0.37659,0.95937z" fill="#940039" stroke="none" stroke-width="0.5"/><path d="M301.74291,238.16667c0.07259,-0.9665 0.91493,-1.75 1.88143,-1.75c0.9665,0 1.69116,0.7835 1.61857,1.75c-0.07259,0.9665 -0.91493,1.75 -1.88143,1.75c-0.9665,0 -1.69116,-0.7835 -1.61857,-1.75z" fill="#da5cb1" stroke="none" stroke-width="0.5"/><path d="M306.74291,238.16667c0.07259,-0.9665 0.91493,-1.75 1.88143,-1.75c0.9665,0 1.69116,0.7835 1.61857,1.75c-0.07259,0.9665 -0.91493,1.75 -1.88143,1.75c-0.9665,0 -1.69116,-0.7835 -1.61857,-1.75z" fill="#da5cb1" stroke="none" stroke-width="0.5"/><path d="M316.47019,236.25c0.9665,0 1.69116,0.7835 1.61857,1.75c-0.07259,0.9665 -0.91493,1.75 -1.88143,1.75c-0.77985,0 -1.40225,-0.51011 -1.57543,-1.21487c-0.27904,0.70476 -0.97805,1.21487 -1.75791,1.21487c-0.9665,0 -1.69116,-0.7835 -1.61857,-1.75c0.07259,-0.9665 0.91493,-1.75 1.88143,-1.75c0.77985,0 1.40225,0.51011 1.57543,1.21487c0.27904,-0.70476 0.97805,-1.21487 1.75791,-1.21487z" fill="#da5cb1" stroke="none" stroke-width="0.5"/><path d="M324.19284,238.83334c-0.05185,0.69036 -0.65352,1.25 -1.34388,1.25c-0.2814,0 -0.53411,-0.09299 -0.73123,-0.24991c-0.05189,0.69031 -0.65355,1.24991 -1.34387,1.24991c-0.69036,0 -1.20797,-0.55964 -1.15612,-1.25c0.01122,-0.14936 0.04817,-0.29261 0.10619,-0.42539c-0.87735,-0.08815 -1.5116,-0.8341 -1.44346,-1.74129c0.07259,-0.9665 0.91493,-1.75 1.88143,-1.75c0.20175,0 0.39297,0.03414 0.56859,0.09696c0.28074,-0.16709 0.60469,-0.26362 0.94393,-0.26362c0.9665,0 1.69116,0.7835 1.61857,1.75c-0.00272,0.03616 -0.00651,0.07206 -0.01135,0.10768c0.56358,0.11455 0.95671,0.61977 0.91121,1.22566z" fill="#da5cb1" stroke="none" stroke-width="0.5"/><path d="M325.3055,237.33334c0.07259,-0.9665 0.91493,-1.75 1.88143,-1.75c0.9665,0 1.69116,0.7835 1.61857,1.75c-0.07259,0.9665 -0.91493,1.75 -1.88143,1.75c-0.9665,0 -1.69116,-0.7835 -1.61857,-1.75z" fill="#da5cb1" stroke="none" stroke-width="0.5"/><path d="M328.77188,240c0.0439,-0.58454 0.482,-1.07538 1.03436,-1.21211c-0.44479,-0.31403 -0.71295,-0.84829 -0.66742,-1.45456c0.07259,-0.9665 0.91493,-1.75 1.88143,-1.75c0.9665,0 1.69116,0.7835 1.61857,1.75c-0.06818,0.90781 -0.81548,1.65418 -1.7069,1.74147c0.23436,0.22866 0.36751,0.55848 0.33996,0.9252c-0.05185,0.69036 -0.65352,1.25 -1.34388,1.25c-0.69036,0 -1.20797,-0.55964 -1.15612,-1.25z" fill="#da5cb1" stroke="none" stroke-width="0.5"/><path d="M332.66386,237c0.07259,-0.9665 0.91493,-1.75 1.88143,-1.75c0.9665,0 1.69116,0.7835 1.61857,1.75c-0.07259,0.9665 -0.91493,1.75 -1.88143,1.75c-0.9665,0 -1.69116,-0.7835 -1.61857,-1.75z" fill="#da5cb1" stroke="none" stroke-width="0.5"/><path d="M342.79101,236.41667c0.9665,0 1.69116,0.7835 1.61857,1.75c-0.07259,0.9665 -0.91493,1.75 -1.88143,1.75c-0.67289,0 -1.22856,-0.37977 -1.47957,-0.93668c-0.34952,0.46463 -0.90452,0.77001 -1.50791,0.77001c-0.9665,0 -1.69116,-0.7835 -1.61857,-1.75c0.07259,-0.9665 0.91493,-1.75 1.88143,-1.75c0.67289,0 1.22855,0.37978 1.47956,0.93668c0.34952,-0.46463 0.90453,-0.77002 1.50792,-0.77002z" fill="#da5cb1" stroke="none" stroke-width="0.5"/><path d="M349.14937,236.08334c0.9665,0 1.69116,0.7835 1.61857,1.75c-0.07259,0.9665 -0.91493,1.75 -1.88143,1.75c-0.618,0 -1.13712,-0.32034 -1.41217,-0.80403c-0.33462,0.292 -0.76788,0.4707 -1.22947,0.4707c-0.9665,0 -1.69116,-0.7835 -1.61857,-1.75c0.07259,-0.9665 0.91493,-1.75 1.88143,-1.75c0.618,0 1.13712,0.32034 1.41217,0.80403c0.33462,-0.29199 0.76788,-0.4707 1.22947,-0.4707z" fill="#da5cb1" stroke="none" stroke-width="0.5"/><path d="M310.8954,221.94012c0.65016,1.01717 -0.42158,1.74371 -0.42158,1.74371l-1.22926,0.83333c0,0 -1.07174,0.72655 -1.72189,-0.29062c-0.65016,-1.01717 0.42158,-1.74372 0.42158,-1.74372l1.22926,-0.83334c0,0 1.07174,-0.72654 1.72189,0.29062z" fill="#7c0000" stroke="none" stroke-width="0.5"/><path d="M324.13625,221.83334c0.05185,-0.69036 0.65352,-1.25 1.34388,-1.25c0.69036,0 1.20797,0.55964 1.15612,1.25c-0.05185,0.69036 -0.65352,1.25 -1.34388,1.25c-0.69036,0 -1.20797,-0.55964 -1.15612,-1.25z" fill="#7c0000" stroke="none" stroke-width="0.5"/><path d="M326.72782,222.83334c0.05185,-0.69036 0.65352,-1.25 1.34388,-1.25c0.69036,0 1.20797,0.55964 1.15612,1.25c-0.05185,0.69036 -0.65352,1.25 -1.34388,1.25c-0.69036,0 -1.20797,-0.55964 -1.15612,-1.25z" fill="#7c0000" stroke="none" stroke-width="0.5"/><path d="M335.39449,222.83334c0.05185,-0.69036 0.65352,-1.25 1.34388,-1.25c0.69036,0 1.20797,0.55964 1.15612,1.25c-0.05185,0.69036 -0.65352,1.25 -1.34388,1.25c-0.69036,0 -1.20797,-0.55964 -1.15612,-1.25z" fill="#7c0000" stroke="none" stroke-width="0.5"/><path d="M306.15598,232.66667c0.05185,-0.69036 0.65352,-1.25 1.34388,-1.25c0.69036,0 1.20797,0.55964 1.15612,1.25c-0.05185,0.69036 -0.65352,1.25 -1.34388,1.25c-0.69036,0 -1.20797,-0.55964 -1.15612,-1.25z" fill="#940039" stroke="none" stroke-width="0.5"/><path d="M312.08944,231.33334c0.05185,-0.69036 0.65352,-1.25 1.34388,-1.25c0.69036,0 1.20797,0.55964 1.15612,1.25c-0.05185,0.69036 -0.65352,1.25 -1.34388,1.25c-0.69036,0 -1.20797,-0.55964 -1.15612,-1.25z" fill="#940039" stroke="none" stroke-width="0.5"/><path d="M343.13094,233c0.05185,-0.69036 0.65352,-1.25 1.34388,-1.25c0.69036,0 1.20797,0.55964 1.15612,1.25c-0.05185,0.69036 -0.65352,1.25 -1.34388,1.25c-0.69036,0 -1.20797,-0.55964 -1.15612,-1.25z" fill="#940039" stroke="none" stroke-width="0.5"/><path d="M345.71856,231.83334c0.05185,-0.69036 0.65352,-1.25 1.34388,-1.25c0.69036,0 1.20797,0.55964 1.15612,1.25c-0.05185,0.69036 -0.65352,1.25 -1.34388,1.25c-0.69036,0 -1.20797,-0.55964 -1.15612,-1.25z" fill="#940039" stroke="none" stroke-width="0.5"/><path d="M333.15598,232.66667c0.05185,-0.69036 0.65352,-1.25 1.34388,-1.25c0.69036,0 1.20797,0.55964 1.15612,1.25c-0.05185,0.69036 -0.65352,1.25 -1.34388,1.25c-0.69036,0 -1.20797,-0.55964 -1.15612,-1.25z" fill="#940039" stroke="none" stroke-width="0.5"/><path d="M337.31407,235c0.05185,-0.69036 0.65352,-1.25 1.34388,-1.25c0.69036,0 1.20797,0.55964 1.15612,1.25c-0.05185,0.69036 -0.65352,1.25 -1.34388,1.25c-0.69036,0 -1.20797,-0.55964 -1.15612,-1.25z" fill="#940039" stroke="none" stroke-width="0.5"/><path d="M305.68821,243.33334c0.05185,-0.69036 0.65352,-1.25 1.34388,-1.25c0.69036,0 1.20797,0.55964 1.15612,1.25c-0.05185,0.69036 -0.65352,1.25 -1.34388,1.25c-0.69036,0 -1.20797,-0.55964 -1.15612,-1.25z" fill="#da5cb1" stroke="none" stroke-width="0.5"/><path d="M309.3463,245.66667c0.05185,-0.69036 0.65352,-1.25 1.34388,-1.25c0.69036,0 1.20797,0.55964 1.15612,1.25c-0.05185,0.69036 -0.65352,1.25 -1.34388,1.25c-0.69036,0 -1.20797,-0.55964 -1.15612,-1.25z" fill="#da5cb1" stroke="none" stroke-width="0.5"/><path d="M314.75474,244.66667c0.05185,-0.69036 0.65352,-1.25 1.34388,-1.25c0.69036,0 1.20797,0.55964 1.15612,1.25c-0.05185,0.69036 -0.65352,1.25 -1.34388,1.25c-0.69036,0 -1.20797,-0.55964 -1.15612,-1.25z" fill="#da5cb1" stroke="none" stroke-width="0.5"/><path d="M333.85093,241.16667c0.05185,-0.69036 0.65352,-1.25 1.34388,-1.25c0.69036,0 1.20797,0.55964 1.15612,1.25c-0.05185,0.69036 -0.65352,1.25 -1.34388,1.25c-0.69036,0 -1.20797,-0.55964 -1.15612,-1.25z" fill="#da5cb1" stroke="none" stroke-width="0.5"/><path d="M338.87991,243c0.05185,-0.69036 0.65352,-1.25 1.34388,-1.25c0.69036,0 1.20797,0.55964 1.15612,1.25c-0.05185,0.69036 -0.65352,1.25 -1.34388,1.25c-0.69036,0 -1.20797,-0.55964 -1.15612,-1.25z" fill="#da5cb1" stroke="none" stroke-width="0.5"/><path d="M344.97148,244c0.05185,-0.69036 0.65352,-1.25 1.34388,-1.25c0.69036,0 1.20797,0.55964 1.15612,1.25c-0.05185,0.69036 -0.65352,1.25 -1.34388,1.25c-0.69036,0 -1.20797,-0.55964 -1.15612,-1.25z" fill="#da5cb1" stroke="none" stroke-width="0.5"/><path d="M347.37597,240.83334c0.05185,-0.69036 0.65352,-1.25 1.34388,-1.25c0.69036,0 1.20797,0.55964 1.15612,1.25c-0.05185,0.69036 -0.65352,1.25 -1.34388,1.25c-0.69036,0 -1.20797,-0.55964 -1.15612,-1.25z" fill="#da5cb1" stroke="none" stroke-width="0.5"/><path d="M309.50251,225.83334c0.03111,-0.41422 0.39211,-0.75 0.80633,-0.75c0.41422,0 0.72478,0.33578 0.69367,0.75c-0.03111,0.41422 -0.39211,0.75 -0.80633,0.75c-0.41422,0 -0.72478,-0.33578 -0.69367,-0.75z" fill="#7c0000" stroke="none" stroke-width="0.5"/><path d="M322.88591,225.16667c0.03111,-0.41422 0.39211,-0.75 0.80633,-0.75c0.41422,0 0.72478,0.33578 0.69367,0.75c-0.03111,0.41422 -0.39211,0.75 -0.80633,0.75c-0.41422,0 -0.72478,-0.33578 -0.69367,-0.75z" fill="#7c0000" stroke="none" stroke-width="0.5"/><path d="M334.14414,226.16667c0.03111,-0.41422 0.39211,-0.75 0.80633,-0.75c0.41422,0 0.72478,0.33578 0.69367,0.75c-0.03111,0.41422 -0.39211,0.75 -0.80633,0.75c-0.41422,0 -0.72478,-0.33578 -0.69367,-0.75z" fill="#7c0000" stroke="none" stroke-width="0.5"/><path d="M347.74823,227c0.03111,-0.41422 0.39211,-0.75 0.80633,-0.75c0.41422,0 0.72478,0.33578 0.69367,0.75c-0.03111,0.41422 -0.39211,0.75 -0.80633,0.75c-0.41422,0 -0.72478,-0.33578 -0.69367,-0.75z" fill="#7c0000" stroke="none" stroke-width="0.5"/><path d="M307.764,235.66667c0.03111,-0.41422 0.39211,-0.75 0.80633,-0.75c0.41422,0 0.72478,0.33578 0.69367,0.75c-0.03111,0.41422 -0.39211,0.75 -0.80633,0.75c-0.41422,0 -0.72478,-0.33578 -0.69367,-0.75z" fill="#940039" stroke="none" stroke-width="0.5"/><path d="M312.32658,234.83334c0.03111,-0.41422 0.39211,-0.75 0.80633,-0.75c0.41422,0 0.72478,0.33578 0.69367,0.75c-0.03111,0.41422 -0.39211,0.75 -0.80633,0.75c-0.41422,0 -0.72478,-0.33578 -0.69367,-0.75z" fill="#940039" stroke="none" stroke-width="0.5"/><path d="M334.02222,236.66667c0.03111,-0.41422 0.39211,-0.75 0.80633,-0.75c0.41422,0 0.72478,0.33578 0.69367,0.75c-0.03111,0.41422 -0.39211,0.75 -0.80633,0.75c-0.41422,0 -0.72478,-0.33578 -0.69367,-0.75z" fill="#940039" stroke="none" stroke-width="0.5"/><path d="M341.81801,237.16667c0.03111,-0.41422 0.39211,-0.75 0.80633,-0.75c0.41422,0 0.72478,0.33578 0.69367,0.75c-0.03111,0.41422 -0.39211,0.75 -0.80633,0.75c-0.41422,0 -0.72478,-0.33578 -0.69367,-0.75z" fill="#940039" stroke="none" stroke-width="0.5"/><path d="M313.62494,250.83334c0.03111,-0.41422 0.39211,-0.75 0.80633,-0.75c0.41422,0 0.72478,0.33578 0.69367,0.75c-0.03111,0.41422 -0.39211,0.75 -0.80633,0.75c-0.41422,0 -0.72478,-0.33578 -0.69367,-0.75z" fill="#da5cb1" stroke="none" stroke-width="0.5"/><path d="M322.37528,247.5c0.03111,-0.41422 0.39211,-0.75 0.80633,-0.75c0.41422,0 0.72478,0.33578 0.69367,0.75c-0.03111,0.41422 -0.39211,0.75 -0.80633,0.75c-0.41422,0 -0.72478,-0.33578 -0.69367,-0.75z" fill="#da5cb1" stroke="none" stroke-width="0.5"/><path d="M329.60059,244.5c0.03111,-0.41422 0.39211,-0.75 0.80633,-0.75c0.41422,0 0.72478,0.33578 0.69367,0.75c-0.03111,0.41422 -0.39211,0.75 -0.80633,0.75c-0.41422,0 -0.72478,-0.33578 -0.69367,-0.75z" fill="#da5cb1" stroke="none" stroke-width="0.5"/><path d="M345.85419,250c0.03111,-0.41422 0.39211,-0.75 0.80633,-0.75c0.41422,0 0.72478,0.33578 0.69367,0.75c-0.03111,0.41422 -0.39211,0.75 -0.80633,0.75c-0.41422,0 -0.72478,-0.33578 -0.69367,-0.75z" fill="#da5cb1" stroke="none" stroke-width="0.5"/></g><g stroke-width="0"><path d="M279.19781,121.71088c0,0 -62.36109,-93.76102 -21.82214,-113.79631c40.53895,-20.03529 69.35488,90.30453 69.35488,90.30453" fill="#90003f" stroke="#000000" stroke-linecap="round"/><path d="M299.0594,55.52048c9.00174,20.63921 14.4508,41.3983 1.73101,47.96232c-17.63185,9.09887 -28.13391,-11.83523 -37.13565,-32.47444c-9.00174,-20.63921 -15.37433,-46.48987 -1.94034,-52.33379c14.37399,-6.25282 28.34324,16.2067 37.34498,36.84592z" fill="#979797" stroke="none" stroke-linecap="butt"/></g><path d="" fill="none" stroke="#000000" stroke-width="0" stroke-linecap="round"/><g><path d="M269.30313,143.69489c-1.59285,-33.26373 25.84287,-61.60492 61.27939,-63.30182c8.81121,-0.42193 41.88752,-16.22089 41.88752,-16.22089c0,0 -3.82451,20.30949 0.97922,22.50598c4.7343,2.16474 27.63788,-9.42089 27.63788,-9.42089c0,0 -13.74796,19.42825 -11.35492,23.2269c3.60228,5.71817 30.86633,7.74502 30.86633,7.74502c0,0 -21.50795,19.89858 -22.5002,27.2317c-1.02167,7.55054 16.45586,17.43836 16.45586,17.43836c0,0 -9.48333,13.19774 -10.01371,18.34582c-0.51742,5.02246 6.86935,12.1751 6.86935,12.1751c0,0 -17.68987,3.73761 -22.82146,7.56725c-3.57929,2.67119 0.27239,6.96536 0.27239,6.96536c0,0 -16.8031,-1.0424 -24.95614,-1.12439c-1.69937,-0.01709 -20.34204,3.67797 -27.55392,4.02332c-35.43651,1.6969 -65.45476,-23.89309 -67.04761,-57.15683z" fill="#ff7be1" stroke="#000000" stroke-width="0" stroke-linecap="butt"/><path d="M269.5326,135.14009c3.01149,-29.43811 28.69603,-53.19774 61.04992,-54.74702c8.81121,-0.42193 41.88752,-16.22089 41.88752,-16.22089c0,0 -3.82451,20.30949 0.97922,22.50598c4.7343,2.16474 27.63788,-9.42089 27.63788,-9.42089c0,0 -13.74796,19.42825 -11.35492,23.2269c3.60228,5.71817 30.86633,7.74502 30.86633,7.74502c0,0 -14.06256,13.0103 -19.97035,21.86762c-0.10394,0.15583 -131.09878,5.07452 -131.09559,5.04328z" fill="#da5cb1" stroke="#000000" stroke-width="0" stroke-linecap="butt"/><path d="M271.88518,123.78047c7.57953,-23.9826 30.62858,-42.04332 58.69733,-43.3874c8.81121,-0.42193 41.88752,-16.22089 41.88752,-16.22089c0,0 -3.82451,20.30949 0.97922,22.50598c4.7343,2.16474 27.63788,-9.42089 27.63788,-9.42089c0,0 -13.74796,19.42825 -11.35492,23.2269c3.60228,5.71817 30.86633,7.74502 30.86633,7.74502c0,0 -6.29811,5.82684 -12.23531,12.33631c-0.12226,0.13404 -136.55702,3.46485 -136.47805,3.21498z" fill="#940039" stroke="#000000" stroke-width="0" stroke-linecap="butt"/><path d="M277.31903,111.63992c10.47877,-17.72222 30.17255,-30.14113 53.26348,-31.24685c8.81121,-0.42193 41.88752,-16.22089 41.88752,-16.22089c0,0 -3.82451,20.30949 0.97922,22.50598c4.7343,2.16474 27.63788,-9.42089 27.63788,-9.42089c0,0 -13.74796,19.42825 -11.35492,23.2269c2.42187,3.84443 15.28946,6.0323 23.62599,7.04551c2.34521,0.28503 -136.0891,4.19469 -136.03918,4.11025z" fill="#7c0000" stroke="#000000" stroke-width="0" stroke-linecap="butt"/><path d="M330.58252,80.39307c8.8112,-0.42193 41.27441,-14.5773 41.27441,-14.5773c0,0 -3.89062,18.92903 0.91311,21.12551c4.7343,2.16474 26.54259,-8.21541 26.54259,-8.21541c0,0 -12.65265,18.22277 -10.25961,22.02142c3.60228,5.71817 30.86634,7.74502 30.86634,7.74502c0,0 -21.50795,19.89858 -22.50021,27.23171c-1.02166,7.55054 16.45587,17.43836 16.45587,17.43836c0,0 -9.7134,13.20876 -10.24377,18.35684c-0.51744,5.02245 6.14606,11.51792 6.14606,11.51792c0,0 -16.96658,4.39477 -22.09817,8.22442c-3.57929,2.67119 -0.49496,5.38787 -0.49496,5.38787c0,0 -15.23662,-2.03983 -23.38967,-2.12181c-1.69937,-0.01709 -0.98377,-1.3999 -8.19565,-1.05455c-10.44632,0.50023 -31.62933,5.21127 -34.96743,2.25014c-0.99419,-0.88192 -3.21012,-6.90515 1.17174,-9.04743c3.32623,-1.6262 11.51425,-1.5787 11.51425,-1.5787c0,0 -2.10874,-4.1785 0.64401,-6.93157c2.95669,-2.95702 18.46783,-8.25992 18.46783,-8.25992c0,0 -12.95687,-3.61598 -18.15178,-10.72124c-3.66749,-5.01616 -0.07052,-13.32206 -0.2234,-16.51465c0,0 -4.25518,-11.71348 -3.26415,-15.61818c1.02262,-4.02916 9.30813,-8.19511 9.30813,-8.19511c0,0 0.64091,-5.74797 -0.49874,-8.99028c-1.73432,-4.93411 11.32129,-13.76667 11.32129,-13.76667c0,0 -32.56093,-15.12109 -20.33804,-15.70638z" fill="#a93232" stroke="#000000" stroke-width="0" stroke-linecap="butt"/><path d="M330.58252,80.39307c8.8112,-0.42193 41.27441,-14.5773 41.27441,-14.5773c0,0 -3.89062,18.92903 0.91311,21.12551c4.7343,2.16474 26.54259,-8.21541 26.54259,-8.21541c0,0 -12.65265,18.22277 -10.25961,22.02142c3.60228,5.71817 30.86634,7.74502 30.86634,7.74502c0,0 -6.49497,6.00897 -12.51125,12.63963c-0.05111,0.05633 -73.47804,1.76791 -73.35867,1.66803c2.70193,-2.26085 6.0486,-3.94356 6.0486,-3.94356c0,0 0.64091,-5.74797 -0.49874,-8.99028c-1.73432,-4.93411 11.32129,-13.76667 11.32129,-13.76667c0,0 -32.56093,-15.12109 -20.33804,-15.70638z" fill="#9d2f3a" stroke="#000000" stroke-width="0" stroke-linecap="butt"/><path d="M330.58252,80.39307c8.8112,-0.42193 41.27441,-14.5773 41.27441,-14.5773c0,0 -3.89062,18.92903 0.91311,21.12551c4.7343,2.16474 26.54259,-8.21541 26.54259,-8.21541c0,0 -12.65265,18.22277 -10.25961,22.02142c2.2832,3.62428 14.07197,5.76567 22.39946,6.84797c0.04966,0.00645 -71.83007,2.33661 -71.85318,2.27088c-1.73432,-4.93411 11.32129,-13.76667 11.32129,-13.76667c0,0 -32.56093,-15.12109 -20.33804,-15.70638z" fill="#942c3b" stroke="#000000" stroke-width="0" stroke-linecap="butt"/><path d="M342.44261,192.52121c0,0 -13.45927,0.86172 -14.41353,0.14737c-0.87202,-0.65278 -4.12313,-6.62138 -4.12313,-6.62138c0,0 3.87901,-0.87241 5.54913,-1.00324c1.42864,-0.11191 3.86073,0.26615 3.86073,0.26615c0,0 -1.41853,-3.75833 -0.0955,-6.50418c1.11885,-2.32209 4.81972,-3.7054 6.6172,-3.68352c11.30873,0.13771 30.71491,-2.36581 30.71491,-2.36581c0,0 0.01473,10.80833 -0.70045,12.38433c-0.67287,1.48276 -3.55842,4.62391 -3.55842,4.62391z" fill="#7c2532" stroke="none" stroke-width="0" stroke-linecap="butt"/><path d="M346.9095,174.36652c1.54874,-0.49975 3.77148,2.09267 4.96466,5.79033c0.08319,0.25781 -5.54185,2.01609 -5.60843,1.80975c-1.19318,-3.69767 -0.90494,-7.10034 0.64378,-7.60008z" fill="#fff8f7" stroke="none" stroke-width="0" stroke-linecap="butt"/><path d="M342.37107,174.48962c0.44502,1.27523 0.82548,2.9683 0.75546,4.82495c-0.01021,0.27071 -5.89717,-0.00545 -5.889,-0.22212c0.05217,-1.38333 0.26817,-2.66703 0.59818,-3.74373c0.1463,-0.47731 4.4118,-1.21319 4.53537,-0.85911z" fill="#fff8f7" stroke="none" stroke-width="0" stroke-linecap="butt"/><path d="M355.73405,171.67776c1.11083,-1.18928 4.31315,-0.0034 7.15262,2.64876c0.19797,0.18491 -3.86419,4.45475 -4.02264,4.30674c-2.83946,-2.65214 -4.24079,-5.76623 -3.12998,-6.9555z" fill="#fff8f7" stroke="none" stroke-width="0" stroke-linecap="butt"/><path d="M368.94068,169.73629c1.62514,0.08525 2.77757,3.29976 2.57404,7.17984c-0.01419,0.27053 -5.89646,-0.09217 -5.8851,-0.30869c0.20353,-3.88008 1.68594,-6.95639 3.31106,-6.87114z" fill="#fff8f7" stroke="none" stroke-width="0" stroke-linecap="butt"/><path d="M367.06623,191.94766c-1.47816,0.68071 -3.99393,-1.62843 -5.61915,-5.15761c-0.11331,-0.24606 5.26218,-2.66198 5.35287,-2.46504c1.62521,3.52917 1.74443,6.94196 0.26628,7.62265z" fill="#fff8f7" stroke="none" stroke-width="0" stroke-linecap="butt"/><path d="M343.80308,186.80783c0.14236,-0.16354 4.62288,3.66498 4.44501,3.86931c-2.55106,2.93062 -5.61414,4.44018 -6.8416,3.37169c-1.22745,-1.06847 -0.15447,-4.31039 2.39659,-7.241z" fill="#fff8f7" stroke="none" stroke-width="0" stroke-linecap="butt"/><path d="M355.42779,193.57288c-1.60779,0.25163 -3.39819,-2.65624 -3.99897,-6.49492c-0.04189,-0.26764 5.78878,-1.12545 5.82231,-0.91124c0.60078,3.83868 -0.21556,7.15453 -1.82334,7.40616z" fill="#fff8f7" stroke="none" stroke-width="0" stroke-linecap="butt"/><path d="M348.13881,171.77196c0.49762,1.19803 0.63211,2.06389 0.28419,2.30473c-0.43423,0.30058 -1.59486,-0.29809 -2.91937,-1.66989c-0.10906,-0.11295 2.54606,-0.84942 2.63519,-0.63484z" fill="#7c2532" stroke="none" stroke-width="0" stroke-linecap="butt"/><g><path d="M319.83994,84.39178c1.09959,7.29601 -8.66992,16.46698 -15.52137,10.55075c-1.55573,-2.04133 0.32952,-7.79527 0.32952,-7.79527c0,0 -3.81009,-6.27021 -2.75977,-8.78366c3.92095,-5.84262 16.85203,-1.26783 17.95162,6.02818z" fill="#bf014a" stroke="#000000" stroke-width="0" stroke-linecap="butt"/><path d="M311.44358,81.2313l6.99542,3.13867l-4.83603,6.5524" fill="none" stroke="#99001f" stroke-width="1.5" stroke-linecap="round"/><path d="M317.82436,84.92849l-3.87207,0.58356" fill="none" stroke="#99001f" stroke-width="1" stroke-linecap="round"/><path d="M350.73326,71.00209c1.74446,2.09225 -0.04838,9.20688 -0.04838,9.20688c0,0 3.49737,4.94272 2.61238,7.35189c-4.80343,7.67275 -16.84194,1.78851 -17.94153,-5.5075c-1.0996,-7.29601 9.90877,-15.47875 15.37754,-11.05128z" fill="#bf014a" stroke="#000000" stroke-width="0" stroke-linecap="butt"/><path d="M343.2404,86.45567l-6.5524,-4.83603l5.75963,-5.06101" fill="none" stroke="#99001f" stroke-width="1.5" stroke-linecap="round"/><path d="M341.31204,81.38863l-3.87207,0.58356" fill="none" stroke="#99001f" stroke-width="1" stroke-linecap="round"/><path d="M318.26312,75.82213c1.6975,-1.73517 14.68232,-2.9316 17.01405,-1.05975c1.7604,1.41321 3.19039,13.04341 0.25603,15.19528c-1.51123,1.10824 -12.02684,3.06323 -13.91201,2.31456c-3.2004,-1.271 -5.41676,-14.34573 -3.35809,-16.45009z" fill="#bf014a" stroke="#000000" stroke-width="0" stroke-linecap="butt"/></g><path d="M284.59901,110.10257c0.96539,-0.04623 1.78547,0.6989 1.8317,1.66429c0.04623,0.96539 -0.6989,1.78547 -1.66429,1.8317c-0.61068,0.02924 -1.16322,-0.25817 -1.49851,-0.7177c-0.27035,0.55783 -0.8293,0.95431 -1.49207,0.98605c-0.56825,0.02721 -1.08615,-0.21976 -1.42552,-0.62445c-0.15055,0.05085 -0.31061,0.08187 -0.47723,0.08985c-0.96539,0.04623 -1.78547,-0.6989 -1.8317,-1.66429c-0.04623,-0.96539 0.6989,-1.78547 1.66429,-1.8317c0.56825,-0.02721 1.08615,0.21976 1.42552,0.62445c0.15055,-0.05085 0.31061,-0.08187 0.47723,-0.08985c0.61068,-0.02924 1.16322,0.25817 1.49851,0.7177c0.27035,-0.55783 0.8293,-0.95431 1.49207,-0.98605z" fill="#7c0000" stroke="none" stroke-width="0.5" stroke-linecap="butt"/><path d="M290.81794,109.3042c0.96539,-0.04623 1.78547,0.6989 1.8317,1.66429c0.04623,0.96539 -0.6989,1.78547 -1.66429,1.8317c-0.46559,0.02229 -0.89738,-0.13947 -1.22486,-0.42124c-0.29617,0.45639 -0.80025,0.7685 -1.38518,0.79651c-0.96539,0.04623 -1.78547,-0.6989 -1.8317,-1.66429c-0.04623,-0.96539 0.6989,-1.78547 1.66429,-1.8317c0.46559,-0.02229 0.89738,0.13947 1.22486,0.42124c0.29617,-0.45639 0.80025,-0.7685 1.38518,-0.79651z" fill="#7c0000" stroke="none" stroke-width="0.5" stroke-linecap="butt"/><path d="M296.17483,108.79739c0.96539,-0.04623 1.78547,0.6989 1.8317,1.66429c0.04623,0.96539 -0.6989,1.78547 -1.66429,1.8317c-0.38705,0.01853 -0.75073,-0.09014 -1.05057,-0.2892c-0.2424,0.14826 -0.52443,0.23948 -0.82827,0.25403c-0.96539,0.04623 -1.78547,-0.6989 -1.8317,-1.66429c-0.04623,-0.96539 0.6989,-1.78547 1.66429,-1.8317c0.38705,-0.01853 0.75073,0.09014 1.05057,0.2892c0.2424,-0.14826 0.52443,-0.23948 0.82827,-0.25403z" fill="#7c0000" stroke="none" stroke-width="0.5" stroke-linecap="butt"/><path d="M302.54852,108.61733c0.96539,-0.04623 1.78547,0.6989 1.8317,1.66429c0.04623,0.96539 -0.6989,1.78547 -1.66429,1.8317c-0.45781,0.02192 -0.88295,-0.13412 -1.20836,-0.40723c-0.29783,0.30294 -0.70612,0.4989 -1.16392,0.52083c-0.96539,0.04623 -1.78547,-0.6989 -1.8317,-1.66429c-0.04623,-0.96539 0.6989,-1.78547 1.66429,-1.8317c0.45781,-0.02192 0.88295,0.13412 1.20836,0.40723c0.29783,-0.30294 0.70612,-0.4989 1.16392,-0.52083z" fill="#7c0000" stroke="none" stroke-width="0.5" stroke-linecap="butt"/><path d="M312.43613,108.64443c0.96539,-0.04623 1.78547,0.6989 1.8317,1.66429c0.04623,0.96539 -0.6989,1.78547 -1.66429,1.8317c-0.59474,0.02848 -1.13433,-0.24338 -1.47181,-0.68206c-0.29402,0.46892 -0.80516,0.7911 -1.3999,0.81958c-0.51627,0.02472 -0.99096,-0.17686 -1.32799,-0.51742c-0.23883,0.14265 -0.51523,0.23026 -0.81252,0.24449c-0.96539,0.04623 -1.78547,-0.6989 -1.8317,-1.66429c-0.04623,-0.96539 0.6989,-1.78547 1.66429,-1.8317c0.51627,-0.02472 0.99096,0.17686 1.32799,0.51742c0.23883,-0.14265 0.51523,-0.23026 0.81252,-0.24449c0.59474,-0.02848 1.13433,0.24338 1.47181,0.68206c0.29402,-0.46892 0.80516,-0.7911 1.3999,-0.81958z" fill="#7c0000" stroke="none" stroke-width="0.5" stroke-linecap="butt"/><path d="M315.14183,110.26687c-0.04623,-0.96539 0.6989,-1.78547 1.66429,-1.8317c0.96539,-0.04623 1.78547,0.6989 1.8317,1.66429c0.04623,0.96539 -0.6989,1.78547 -1.66429,1.8317c-0.96539,0.04623 -1.78547,-0.6989 -1.8317,-1.66429z" fill="#7c0000" stroke="none" stroke-width="0.5" stroke-linecap="butt"/><path d="M322.00896,109.93804c-0.04623,-0.96539 0.6989,-1.78547 1.66429,-1.8317c0.96539,-0.04623 1.78547,0.6989 1.8317,1.66429c0.04623,0.96539 -0.6989,1.78547 -1.66429,1.8317c-0.96539,0.04623 -1.78547,-0.6989 -1.8317,-1.66429z" fill="#7c0000" stroke="none" stroke-width="0.5" stroke-linecap="butt"/><path d="M326.12924,109.74073c-0.04623,-0.96539 0.6989,-1.78547 1.66429,-1.8317c0.96539,-0.04623 1.78547,0.6989 1.8317,1.66429c0.04623,0.96539 -0.6989,1.78547 -1.66429,1.8317c-0.96539,0.04623 -1.78547,-0.6989 -1.8317,-1.66429z" fill="#7c0000" stroke="none" stroke-width="0.5" stroke-linecap="butt"/><path d="M331.99751,109.45973c-0.04623,-0.96539 0.6989,-1.78547 1.66429,-1.8317c0.96539,-0.04623 1.78547,0.6989 1.8317,1.66429c0.04623,0.96539 -0.6989,1.78547 -1.66429,1.8317c-0.96539,0.04623 -1.78547,-0.6989 -1.8317,-1.66429z" fill="#7c0000" stroke="none" stroke-width="0.5" stroke-linecap="butt"/><path d="M335.89797,109.89867c-0.04623,-0.96539 0.6989,-1.78547 1.66429,-1.8317c0.96539,-0.04623 1.78547,0.6989 1.8317,1.66429c0.04623,0.96539 -0.6989,1.78547 -1.66429,1.8317c-0.96539,0.04623 -1.78547,-0.6989 -1.8317,-1.66429z" fill="#7c0000" stroke="none" stroke-width="0.5" stroke-linecap="butt"/><path d="M272.85998,123.67959c-0.04623,-0.96539 0.6989,-1.78547 1.66429,-1.8317c0.96539,-0.04623 1.78547,0.6989 1.8317,1.66429c0.04623,0.96539 -0.6989,1.78547 -1.66429,1.8317c-0.96539,0.04623 -1.78547,-0.6989 -1.8317,-1.66429z" fill="#940039" stroke="none" stroke-width="0.5" stroke-linecap="butt"/><path d="M277.64639,124.3264c-0.04623,-0.96539 0.6989,-1.78547 1.66429,-1.8317c0.96539,-0.04623 1.78547,0.6989 1.8317,1.66429c0.04623,0.96539 -0.6989,1.78547 -1.66429,1.8317c-0.96539,0.04623 -1.78547,-0.6989 -1.8317,-1.66429z" fill="#940039" stroke="none" stroke-width="0.5" stroke-linecap="butt"/><path d="M281.76667,124.12909c-0.04623,-0.96539 0.6989,-1.78547 1.66429,-1.8317c0.96539,-0.04623 1.78547,0.6989 1.8317,1.66429c0.04623,0.96539 -0.6989,1.78547 -1.66429,1.8317c-0.96539,0.04623 -1.78547,-0.6989 -1.8317,-1.66429z" fill="#940039" stroke="none" stroke-width="0.5" stroke-linecap="butt"/><path d="M289.37626,121.01155c0.96539,-0.04623 1.78547,0.6989 1.8317,1.66429c0.04623,0.96539 -0.6989,1.78547 -1.66429,1.8317c-0.05334,0.00255 -0.10624,0.00269 -0.15859,0.00052c-0.28748,0.25315 -0.65967,0.4141 -1.07205,0.43384c-0.15992,0.00766 -0.31585,-0.0064 -0.46494,-0.03958c-0.23071,0.13065 -0.49472,0.21067 -0.77766,0.22422c-0.96539,0.04623 -1.78547,-0.6989 -1.8317,-1.66429c-0.04623,-0.96539 0.6989,-1.78547 1.66429,-1.8317c0.15992,-0.00766 0.31585,0.0064 0.46494,0.03958c0.23071,-0.13065 0.49472,-0.21067 0.77766,-0.22422c0.05334,-0.00255 0.10624,-0.00269 0.15859,-0.00051c0.28748,-0.25315 0.65967,-0.41411 1.07205,-0.43385z" fill="#940039" stroke="none" stroke-width="0.5" stroke-linecap="butt"/><path d="M331.39396,120.37609c0.96539,-0.04623 1.78547,0.6989 1.8317,1.66429c0.04623,0.96539 -0.6989,1.78547 -1.66429,1.8317c-0.46559,0.02229 -0.89738,-0.13947 -1.22486,-0.42124c-0.29617,0.45639 -0.80025,0.7685 -1.38518,0.79651c-0.52208,0.025 -1.00165,-0.18144 -1.33934,-0.52899c-0.30293,0.37823 -0.76058,0.62955 -1.28266,0.65455c-0.72147,0.03455 -1.36178,-0.37288 -1.65859,-0.98392c-0.29947,0.43255 -0.78982,0.72574 -1.35591,0.75285c-0.96539,0.04623 -1.78547,-0.6989 -1.8317,-1.66429c-0.04623,-0.96539 0.6989,-1.78547 1.66429,-1.8317c0.72147,-0.03455 1.36178,0.37288 1.65859,0.98392c0.29947,-0.43255 0.78982,-0.72574 1.35591,-0.75285c0.52208,-0.025 1.00165,0.18144 1.33934,0.52899c0.30293,-0.37823 0.76058,-0.62955 1.28266,-0.65455c0.46559,-0.02229 0.89738,0.13947 1.22486,0.42124c0.29617,-0.45639 0.80025,-0.7685 1.38518,-0.79651z" fill="#940039" stroke="none" stroke-width="0.5" stroke-linecap="butt"/><path d="M274.18239,133.00201c0.96539,-0.04623 1.78547,0.6989 1.8317,1.66429c0.04623,0.96539 -0.6989,1.78547 -1.66429,1.8317c-0.42965,0.02057 -0.83051,-0.1156 -1.14718,-0.35816c-0.3009,0.4186 -0.78306,0.70088 -1.338,0.72745c-0.96539,0.04623 -1.78547,-0.6989 -1.8317,-1.66429c-0.04623,-0.96539 0.6989,-1.78547 1.66429,-1.8317c0.42965,-0.02057 0.83051,0.1156 1.14718,0.35816c0.3009,-0.4186 0.78306,-0.70088 1.338,-0.72745z" fill="#da5cb1" stroke="none" stroke-width="0.5" stroke-linecap="butt"/><path d="M281.04354,132.54832c0.96539,-0.04623 1.78547,0.6989 1.8317,1.66429c0.04623,0.96539 -0.6989,1.78547 -1.66429,1.8317c-0.26809,0.01284 -0.52498,-0.03535 -0.7572,-0.13234c-0.22188,0.11874 -0.47299,0.19125 -0.74109,0.20409c-0.08478,0.00406 -0.16845,0.00202 -0.25056,-0.00574c-0.081,0.01557 -0.16408,0.0256 -0.24887,0.02966c-0.96539,0.04623 -1.78547,-0.6989 -1.8317,-1.66429c-0.04623,-0.96539 0.6989,-1.78547 1.66429,-1.8317c0.08478,-0.00406 0.16845,-0.00202 0.25056,0.00574c0.081,-0.01557 0.16408,-0.0256 0.24887,-0.02966c0.26809,-0.01284 0.52498,0.03535 0.7572,0.13234c0.22188,-0.11874 0.47299,-0.19125 0.74109,-0.20409z" fill="#da5cb1" stroke="none" stroke-width="0.5" stroke-linecap="butt"/><path d="M327.36616,132.95814c-0.04623,-0.96539 0.6989,-1.78547 1.66429,-1.8317c0.96539,-0.04623 1.78547,0.6989 1.8317,1.66429c0.04623,0.96539 -0.6989,1.78547 -1.66429,1.8317c-0.96539,0.04623 -1.78547,-0.6989 -1.8317,-1.66429z" fill="#da5cb1" stroke="none" stroke-width="0.5" stroke-linecap="butt"/><path d="M339.6377,109.59445c-0.04623,-0.96539 0.6989,-1.78547 1.66429,-1.8317c0.96539,-0.04623 1.78547,0.6989 1.8317,1.66429c0.04623,0.96539 -0.6989,1.78547 -1.66429,1.8317c-0.96539,0.04623 -1.78547,-0.6989 -1.8317,-1.66429z" fill="#942c3b" stroke="none" stroke-width="0.5" stroke-linecap="butt"/><path d="M348.82331,108.0283c0.96539,-0.04623 1.78547,0.6989 1.8317,1.66429c0.04623,0.96539 -0.6989,1.78547 -1.66429,1.8317c-0.45781,0.02192 -0.88295,-0.13412 -1.20836,-0.40723c-0.29783,0.30294 -0.70612,0.4989 -1.16392,0.52083c-0.96539,0.04623 -1.78547,-0.6989 -1.8317,-1.66429c-0.04623,-0.96539 0.6989,-1.78547 1.66429,-1.8317c0.45781,-0.02192 0.88295,0.13412 1.20836,0.40723c0.29783,-0.30294 0.70612,-0.4989 1.16392,-0.52083z" fill="#942c3b" stroke="none" stroke-width="0.5" stroke-linecap="butt"/><path d="M352.7716,109.4661c-0.04623,-0.96539 0.6989,-1.78547 1.66429,-1.8317c0.96539,-0.04623 1.78547,0.6989 1.8317,1.66429c0.04623,0.96539 -0.6989,1.78547 -1.66429,1.8317c-0.96539,0.04623 -1.78547,-0.6989 -1.8317,-1.66429z" fill="#942c3b" stroke="none" stroke-width="0.5" stroke-linecap="butt"/><path d="M357.01075,109.13796c-0.04623,-0.96539 0.6989,-1.78547 1.66429,-1.8317c0.96539,-0.04623 1.78547,0.6989 1.8317,1.66429c0.04623,0.96539 -0.6989,1.78547 -1.66429,1.8317c-0.96539,0.04623 -1.78547,-0.6989 -1.8317,-1.66429z" fill="#942c3b" stroke="none" stroke-width="0.5" stroke-linecap="butt"/><path d="M360.73255,108.45917c-0.04623,-0.96539 0.6989,-1.78547 1.66429,-1.8317c0.96539,-0.04623 1.78547,0.6989 1.8317,1.66429c0.04623,0.96539 -0.6989,1.78547 -1.66429,1.8317c-0.96539,0.04623 -1.78547,-0.6989 -1.8317,-1.66429z" fill="#942c3b" stroke="none" stroke-width="0.5" stroke-linecap="butt"/><path d="M369.91815,106.89302c0.96539,-0.04623 1.78547,0.6989 1.8317,1.66429c0.04623,0.96539 -0.6989,1.78547 -1.66429,1.8317c-0.82861,0.03968 -1.55016,-0.50363 -1.76723,-1.26882c-0.18815,0.7208 -0.82649,1.26788 -1.60988,1.3054c-0.96539,0.04623 -1.78547,-0.6989 -1.8317,-1.66429c-0.04623,-0.96539 0.6989,-1.78547 1.66429,-1.8317c0.82861,-0.03968 1.55016,0.50363 1.76723,1.26882c0.18815,-0.7208 0.82649,-1.26788 1.60988,-1.3054z" fill="#942c3b" stroke="none" stroke-width="0.5" stroke-linecap="butt"/><path d="M374.24699,108.43774c-0.04623,-0.96539 0.6989,-1.78547 1.66429,-1.8317c0.96539,-0.04623 1.78547,0.6989 1.8317,1.66429c0.04623,0.96539 -0.6989,1.78547 -1.66429,1.8317c-0.96539,0.04623 -1.78547,-0.6989 -1.8317,-1.66429z" fill="#942c3b" stroke="none" stroke-width="0.5" stroke-linecap="butt"/><path d="M379.24127,108.19858c-0.04623,-0.96539 0.6989,-1.78547 1.66429,-1.8317c0.96539,-0.04623 1.78547,0.6989 1.8317,1.66429c0.04623,0.96539 -0.6989,1.78547 -1.66429,1.8317c-0.96539,0.04623 -1.78547,-0.6989 -1.8317,-1.66429z" fill="#942c3b" stroke="none" stroke-width="0.5" stroke-linecap="butt"/><path d="M385.73981,108.01254c-0.04623,-0.96539 0.6989,-1.78547 1.66429,-1.8317c0.96539,-0.04623 1.78547,0.6989 1.8317,1.66429c0.04623,0.96539 -0.6989,1.78547 -1.66429,1.8317c-0.96539,0.04623 -1.78547,-0.6989 -1.8317,-1.66429z" fill="#942c3b" stroke="none" stroke-width="0.5" stroke-linecap="butt"/><path d="M405.44926,106.69331c0.96539,-0.04623 1.78547,0.6989 1.8317,1.66429c0.04623,0.96539 -0.6989,1.78547 -1.66429,1.8317c-0.65244,0.03124 -1.23852,-0.29897 -1.5642,-0.81435c-0.30196,0.40465 -0.77578,0.67611 -1.31947,0.70214c-0.30384,0.01455 -0.5933,-0.04929 -0.84875,-0.17372c-0.27943,0.2268 -0.63107,0.36973 -1.01812,0.38826c-0.36024,0.01725 -0.70024,-0.07569 -0.98736,-0.24915c-0.12709,0.03627 -0.26031,0.05861 -0.39803,0.0652c-0.75308,0.03606 -1.41773,-0.40944 -1.6956,-1.06539c-0.30169,0.40868 -0.77794,0.68326 -1.32488,0.70945c-0.72147,0.03455 -1.36178,-0.37288 -1.65859,-0.98392c-0.29947,0.43255 -0.78982,0.72574 -1.35591,0.75285c-0.23998,0.01149 -0.47096,-0.02591 -0.68332,-0.10344c-0.06438,0.01037 -0.12999,0.01725 -0.19666,0.02044c-0.96539,0.04623 -1.78547,-0.6989 -1.8317,-1.66429c-0.04623,-0.96539 0.6989,-1.78547 1.66429,-1.8317c0.23998,-0.01149 0.47096,0.02591 0.68332,0.10344c0.06438,-0.01037 0.12999,-0.01725 0.19666,-0.02044c0.72147,-0.03455 1.36178,0.37288 1.65859,0.98392c0.29947,-0.43255 0.78982,-0.72574 1.35591,-0.75285c0.75308,-0.03606 1.41773,0.40944 1.6956,1.06539c0.30169,-0.40868 0.77794,-0.68326 1.32488,-0.70945c0.36024,-0.01725 0.70024,0.07569 0.98736,0.24915c0.12709,-0.03627 0.26031,-0.05861 0.39803,-0.0652c0.30384,-0.01455 0.5933,0.04929 0.84875,0.17372c0.27943,-0.2268 0.63107,-0.36973 1.01812,-0.38826c0.65244,-0.03124 1.23852,0.29897 1.5642,0.81435c0.30196,-0.40465 0.77578,-0.67611 1.31947,-0.70214z" fill="#942c3b" stroke="none" stroke-width="0.5" stroke-linecap="butt"/><path d="M334.78373,123.21721c-0.04623,-0.96539 0.6989,-1.78547 1.66429,-1.8317c0.96539,-0.04623 1.78547,0.6989 1.8317,1.66429c0.04623,0.96539 -0.6989,1.78547 -1.66429,1.8317c-0.96539,0.04623 -1.78547,-0.6989 -1.8317,-1.66429z" fill="#9d2f3a" stroke="none" stroke-width="0.5" stroke-linecap="butt"/><path d="M341.94173,121.12244c0.96539,-0.04623 1.78547,0.6989 1.8317,1.66429c0.04623,0.96539 -0.6989,1.78547 -1.66429,1.8317c-0.21995,0.01053 -0.43235,-0.02 -0.62978,-0.08487c-0.19033,0.08344 -0.39884,0.13413 -0.61879,0.14466c-0.96539,0.04623 -1.78547,-0.6989 -1.8317,-1.66429c-0.04623,-0.96539 0.6989,-1.78547 1.66429,-1.8317c0.21995,-0.01053 0.43235,0.02 0.62978,0.08487c0.19033,-0.08344 0.39884,-0.13413 0.61879,-0.14466z" fill="#9d2f3a" stroke="none" stroke-width="0.5" stroke-linecap="butt"/><path d="M399.0731,119.88839c0.96539,-0.04623 1.78547,0.6989 1.8317,1.66429c0.04623,0.96539 -0.6989,1.78547 -1.66429,1.8317c-0.66278,0.03174 -1.25706,-0.30951 -1.57947,-0.83896c-0.28985,0.48945 -0.8124,0.82836 -1.42308,0.8576c-0.41136,0.0197 -0.79633,-0.10429 -1.10629,-0.32777c-0.25724,0.17448 -0.5642,0.28262 -0.8974,0.29857c-0.46356,0.0222 -0.89362,-0.13807 -1.22058,-0.41757c-0.28176,0.2338 -0.63897,0.38147 -1.03282,0.40033c-0.48911,0.02342 -0.94092,-0.15628 -1.27369,-0.46486c-0.30176,0.33896 -0.73434,0.56102 -1.22345,0.58444c-0.5571,0.02668 -1.06581,-0.21018 -1.40535,-0.60082c-0.30065,0.42129 -0.7844,0.70568 -1.34151,0.73235c-0.58644,0.02808 -1.11926,-0.23586 -1.45757,-0.6638c-0.30275,0.38709 -0.76589,0.64513 -1.29526,0.67048c-0.96539,0.04623 -1.78547,-0.6989 -1.8317,-1.66429c-0.04623,-0.96539 0.6989,-1.78547 1.66429,-1.8317c0.58644,-0.02808 1.11926,0.23586 1.45757,0.6638c0.30275,-0.38709 0.76589,-0.64513 1.29526,-0.67048c0.5571,-0.02668 1.06581,0.21018 1.40535,0.60082c0.30065,-0.42129 0.7844,-0.70568 1.34151,-0.73235c0.48911,-0.02342 0.94092,0.15628 1.27369,0.46486c0.30176,-0.33896 0.73434,-0.56102 1.22345,-0.58444c0.46356,-0.0222 0.89362,0.13807 1.22058,0.41757c0.28176,-0.2338 0.63897,-0.38147 1.03282,-0.40033c0.41136,-0.0197 0.79633,0.10429 1.10629,0.32777c0.25724,-0.17448 0.5642,-0.28262 0.8974,-0.29857c0.66278,-0.03174 1.25706,0.30951 1.57947,0.83896c0.28985,-0.48945 0.8124,-0.82836 1.42308,-0.8576z" fill="#9d2f3a" stroke="none" stroke-width="0.5" stroke-linecap="butt"/><path d="M401.64796,121.39196c-0.04623,-0.96539 0.6989,-1.78547 1.66429,-1.8317c0.96539,-0.04623 1.78547,0.6989 1.8317,1.66429c0.04623,0.96539 -0.6989,1.78547 -1.66429,1.8317c-0.96539,0.04623 -1.78547,-0.6989 -1.8317,-1.66429z" fill="#9d2f3a" stroke="none" stroke-width="0.5" stroke-linecap="butt"/><path d="M279.23754,115.74046c-0.03302,-0.68956 0.49921,-1.27534 1.18878,-1.30836c0.68957,-0.03302 1.27534,0.49922 1.30836,1.18878c0.03302,0.68956 -0.49921,1.27534 -1.18878,1.30836c-0.68957,0.03302 -1.27534,-0.49922 -1.30836,-1.18878z" fill="#7c0000" stroke="none" stroke-width="0.5" stroke-linecap="butt"/><path d="M289.34427,112.50335c-0.03302,-0.68956 0.49921,-1.27534 1.18878,-1.30836c0.68957,-0.03302 1.27534,0.49922 1.30836,1.18878c0.03302,0.68956 -0.49921,1.27534 -1.18878,1.30836c-0.68957,0.03302 -1.27534,-0.49922 -1.30836,-1.18878z" fill="#7c0000" stroke="none" stroke-width="0.5" stroke-linecap="butt"/><path d="M297.6506,113.48217c-0.03302,-0.68956 0.49921,-1.27534 1.18878,-1.30836c0.68957,-0.03302 1.27534,0.49922 1.30836,1.18878c0.03302,0.68956 -0.49921,1.27534 -1.18878,1.30836c-0.68957,0.03302 -1.27534,-0.49922 -1.30836,-1.18878z" fill="#7c0000" stroke="none" stroke-width="0.5" stroke-linecap="butt"/><path d="M302.20524,114.5155c-0.03302,-0.68956 0.49921,-1.27534 1.18878,-1.30836c0.68957,-0.03302 1.27534,0.49922 1.30836,1.18878c0.03302,0.68956 -0.49921,1.27534 -1.18878,1.30836c-0.68957,0.03302 -1.27534,-0.49922 -1.30836,-1.18878z" fill="#7c0000" stroke="none" stroke-width="0.5" stroke-linecap="butt"/><path d="M308.62077,115.20943c-0.03302,-0.68956 0.49921,-1.27534 1.18878,-1.30836c0.68957,-0.03302 1.27534,0.49922 1.30836,1.18878c0.03302,0.68956 -0.49921,1.27534 -1.18878,1.30836c-0.68957,0.03302 -1.27534,-0.49922 -1.30836,-1.18878z" fill="#7c0000" stroke="none" stroke-width="0.5" stroke-linecap="butt"/><path d="M313.24048,114.98822c-0.03302,-0.68956 0.49921,-1.27534 1.18878,-1.30836c0.68957,-0.03302 1.27534,0.49922 1.30836,1.18878c0.03302,0.68956 -0.49921,1.27534 -1.18878,1.30836c-0.68957,0.03302 -1.27534,-0.49922 -1.30836,-1.18878z" fill="#7c0000" stroke="none" stroke-width="0.5" stroke-linecap="butt"/><path d="M321.19475,111.22846c-0.03302,-0.68956 0.49921,-1.27534 1.18878,-1.30836c0.68957,-0.03302 1.27534,0.49922 1.30836,1.18878c0.03302,0.68956 -0.49921,1.27534 -1.18878,1.30836c-0.68957,0.03302 -1.27534,-0.49922 -1.30836,-1.18878z" fill="#7c0000" stroke="none" stroke-width="0.5" stroke-linecap="butt"/><path d="M330.36312,111.91571c-0.03302,-0.68956 0.49921,-1.27534 1.18878,-1.30836c0.68957,-0.03302 1.27534,0.49922 1.30836,1.18878c0.03302,0.68956 -0.49921,1.27534 -1.18878,1.30836c-0.68957,0.03302 -1.27534,-0.49922 -1.30836,-1.18878z" fill="#7c0000" stroke="none" stroke-width="0.5" stroke-linecap="butt"/><path d="M334.1155,114.48918c-0.03302,-0.68956 0.49921,-1.27534 1.18878,-1.30836c0.68957,-0.03302 1.27534,0.49922 1.30836,1.18878c0.03302,0.68956 -0.49921,1.27534 -1.18878,1.30836c-0.68957,0.03302 -1.27534,-0.49922 -1.30836,-1.18878z" fill="#7c0000" stroke="none" stroke-width="0.5" stroke-linecap="butt"/><path d="M273.83631,128.38828c-0.03302,-0.68957 0.49921,-1.27534 1.18878,-1.30836c0.68957,-0.03302 1.27534,0.49921 1.30836,1.18878c0.03302,0.68957 -0.49921,1.27534 -1.18878,1.30836c-0.68957,0.03302 -1.27534,-0.49921 -1.30836,-1.18878z" fill="#940039" stroke="none" stroke-width="0.5" stroke-linecap="butt"/><path d="M282.6534,122.78514c0.68957,-0.03302 1.27534,0.49921 1.30836,1.18878c0.03302,0.68957 -0.49921,1.27534 -1.18878,1.30836c-0.19435,0.00931 -0.38044,-0.02628 -0.54825,-0.09764c-0.19821,0.38286 -0.58935,0.65269 -1.05098,0.67479c-0.68957,0.03302 -1.27534,-0.49921 -1.30836,-1.18878c-0.03302,-0.68957 0.49921,-1.27534 1.18878,-1.30836c0.19435,-0.00931 0.38044,0.02628 0.54825,0.09765c0.19821,-0.38286 0.58934,-0.6527 1.05098,-0.6748z" fill="#940039" stroke="none" stroke-width="0.5" stroke-linecap="butt"/><path d="M282.81405,127.70809c-0.03302,-0.68957 0.49921,-1.27534 1.18878,-1.30836c0.68957,-0.03302 1.27534,0.49921 1.30836,1.18878c0.03302,0.68957 -0.49921,1.27534 -1.18878,1.30836c-0.68957,0.03302 -1.27534,-0.49921 -1.30836,-1.18878z" fill="#940039" stroke="none" stroke-width="0.5" stroke-linecap="butt"/><path d="M324.15894,123.47569c-0.03302,-0.68957 0.49921,-1.27534 1.18878,-1.30836c0.68957,-0.03302 1.27534,0.49921 1.30836,1.18878c0.03302,0.68957 -0.49921,1.27534 -1.18878,1.30836c-0.68957,0.03302 -1.27534,-0.49921 -1.30836,-1.18878z" fill="#940039" stroke="none" stroke-width="0.5" stroke-linecap="butt"/><path d="M326.07434,126.88799c-0.03302,-0.68957 0.49921,-1.27534 1.18878,-1.30836c0.68957,-0.03302 1.27534,0.49921 1.30836,1.18878c0.03302,0.68957 -0.49921,1.27534 -1.18878,1.30836c-0.68957,0.03302 -1.27534,-0.49921 -1.30836,-1.18878z" fill="#940039" stroke="none" stroke-width="0.5" stroke-linecap="butt"/><path d="M271.80552,138.2467c-0.03302,-0.68957 0.49921,-1.27534 1.18878,-1.30836c0.68957,-0.03302 1.27534,0.49921 1.30836,1.18878c0.03302,0.68957 -0.49921,1.27534 -1.18878,1.30836c-0.68957,0.03302 -1.27534,-0.49921 -1.30836,-1.18878z" fill="#da5cb1" stroke="none" stroke-width="0.5" stroke-linecap="butt"/><path d="M277.08469,136.11676c-0.03302,-0.68957 0.49921,-1.27534 1.18878,-1.30836c0.68957,-0.03302 1.27534,0.49921 1.30836,1.18878c0.03302,0.68957 -0.49921,1.27534 -1.18878,1.30836c-0.68957,0.03302 -1.27534,-0.49921 -1.30836,-1.18878z" fill="#da5cb1" stroke="none" stroke-width="0.5" stroke-linecap="butt"/><path d="M329.67407,136.72707c-0.03302,-0.68957 0.49921,-1.27534 1.18878,-1.30836c0.68957,-0.03302 1.27534,0.49921 1.30836,1.18878c0.03302,0.68957 -0.49921,1.27534 -1.18878,1.30836c-0.68957,0.03302 -1.27534,-0.49921 -1.30836,-1.18878z" fill="#da5cb1" stroke="none" stroke-width="0.5" stroke-linecap="butt"/><path d="M343.74756,114.92898c-0.03302,-0.68956 0.49921,-1.27534 1.18878,-1.30836c0.68957,-0.03302 1.27534,0.49922 1.30836,1.18878c0.03302,0.68956 -0.49921,1.27534 -1.18878,1.30836c-0.68957,0.03302 -1.27534,-0.49922 -1.30836,-1.18878z" fill="#942c3b" stroke="none" stroke-width="0.5" stroke-linecap="butt"/><path d="M348.41771,112.10236c-0.03302,-0.68956 0.49921,-1.27534 1.18878,-1.30836c0.68957,-0.03302 1.27534,0.49922 1.30836,1.18878c0.03302,0.68956 -0.49921,1.27534 -1.18878,1.30836c-0.68957,0.03302 -1.27534,-0.49922 -1.30836,-1.18878z" fill="#942c3b" stroke="none" stroke-width="0.5" stroke-linecap="butt"/><path d="M354.95276,110.58805c-0.03302,-0.68956 0.49921,-1.27534 1.18878,-1.30836c0.68957,-0.03302 1.27534,0.49922 1.30836,1.18878c0.03302,0.68956 -0.49921,1.27534 -1.18878,1.30836c-0.68957,0.03302 -1.27534,-0.49922 -1.30836,-1.18878z" fill="#942c3b" stroke="none" stroke-width="0.5" stroke-linecap="butt"/><path d="M362.61102,111.62294c-0.03302,-0.68956 0.49921,-1.27534 1.18878,-1.30836c0.68957,-0.03302 1.27534,0.49922 1.30836,1.18878c0.03302,0.68956 -0.49921,1.27534 -1.18878,1.30836c-0.68957,0.03302 -1.27534,-0.49922 -1.30836,-1.18878z" fill="#942c3b" stroke="none" stroke-width="0.5" stroke-linecap="butt"/><path d="M367.29185,113.20086c-0.03302,-0.68956 0.49921,-1.27534 1.18878,-1.30836c0.68957,-0.03302 1.27534,0.49922 1.30836,1.18878c0.03302,0.68956 -0.49921,1.27534 -1.18878,1.30836c-0.68957,0.03302 -1.27534,-0.49922 -1.30836,-1.18878z" fill="#942c3b" stroke="none" stroke-width="0.5" stroke-linecap="butt"/><path d="M374.49318,113.05625c-0.03302,-0.68956 0.49921,-1.27534 1.18878,-1.30836c0.68957,-0.03302 1.27534,0.49922 1.30836,1.18878c0.03302,0.68956 -0.49921,1.27534 -1.18878,1.30836c-0.68957,0.03302 -1.27534,-0.49922 -1.30836,-1.18878z" fill="#942c3b" stroke="none" stroke-width="0.5" stroke-linecap="butt"/><path d="M384.75803,114.16654c-0.03302,-0.68956 0.49921,-1.27534 1.18878,-1.30836c0.68957,-0.03302 1.27534,0.49922 1.30836,1.18878c0.03302,0.68956 -0.49921,1.27534 -1.18878,1.30836c-0.68957,0.03302 -1.27534,-0.49922 -1.30836,-1.18878z" fill="#942c3b" stroke="none" stroke-width="0.5" stroke-linecap="butt"/><path d="M389.55254,113.93696c-0.03302,-0.68956 0.49921,-1.27534 1.18878,-1.30836c0.68957,-0.03302 1.27534,0.49922 1.30836,1.18878c0.03302,0.68956 -0.49921,1.27534 -1.18878,1.30836c-0.68957,0.03302 -1.27534,-0.49922 -1.30836,-1.18878z" fill="#942c3b" stroke="none" stroke-width="0.5" stroke-linecap="butt"/><path d="M394.822,111.08165c-0.03302,-0.68956 0.49921,-1.27534 1.18878,-1.30836c0.68957,-0.03302 1.27534,0.49922 1.30836,1.18878c0.03302,0.68956 -0.49921,1.27534 -1.18878,1.30836c-0.68957,0.03302 -1.27534,-0.49922 -1.30836,-1.18878z" fill="#942c3b" stroke="none" stroke-width="0.5" stroke-linecap="butt"/><path d="M400.9862,110.18578c-0.03302,-0.68956 0.49921,-1.27534 1.18878,-1.30836c0.68957,-0.03302 1.27534,0.49922 1.30836,1.18878c0.03302,0.68956 -0.49921,1.27534 -1.18878,1.30836c-0.68957,0.03302 -1.27534,-0.49922 -1.30836,-1.18878z" fill="#942c3b" stroke="none" stroke-width="0.5" stroke-linecap="butt"/><path d="M404.393,114.42769c-0.03302,-0.68956 0.49921,-1.27534 1.18878,-1.30836c0.68957,-0.03302 1.27534,0.49922 1.30836,1.18878c0.03302,0.68956 -0.49921,1.27534 -1.18878,1.30836c-0.68957,0.03302 -1.27534,-0.49922 -1.30836,-1.18878z" fill="#942c3b" stroke="none" stroke-width="0.5" stroke-linecap="butt"/><path d="M334.89402,126.56576c-0.03302,-0.68957 0.49921,-1.27534 1.18878,-1.30836c0.68957,-0.03302 1.27534,0.49921 1.30836,1.18878c0.03302,0.68957 -0.49921,1.27534 -1.18878,1.30836c-0.68957,0.03302 -1.27534,-0.49921 -1.30836,-1.18878z" fill="#9d2f3a" stroke="none" stroke-width="0.5" stroke-linecap="butt"/><path d="M389.47936,124.95306c-0.03302,-0.68957 0.49921,-1.27534 1.18878,-1.30836c0.68957,-0.03302 1.27534,0.49921 1.30836,1.18878c0.03302,0.68957 -0.49921,1.27534 -1.18878,1.30836c-0.68957,0.03302 -1.27534,-0.49921 -1.30836,-1.18878z" fill="#9d2f3a" stroke="none" stroke-width="0.5" stroke-linecap="butt"/><path d="M392.26659,124.61937c-0.03302,-0.68957 0.49921,-1.27534 1.18878,-1.30836c0.68957,-0.03302 1.27534,0.49921 1.30836,1.18878c0.03302,0.68957 -0.49921,1.27534 -1.18878,1.30836c-0.68957,0.03302 -1.27534,-0.49921 -1.30836,-1.18878z" fill="#9d2f3a" stroke="none" stroke-width="0.5" stroke-linecap="butt"/><path d="M396.70939,125.40777c-0.03302,-0.68957 0.49921,-1.27534 1.18878,-1.30836c0.68957,-0.03302 1.27534,0.49921 1.30836,1.18878c0.03302,0.68957 -0.49921,1.27534 -1.18878,1.30836c-0.68957,0.03302 -1.27534,-0.49921 -1.30836,-1.18878z" fill="#9d2f3a" stroke="none" stroke-width="0.5" stroke-linecap="butt"/><path d="M398.84947,124.10391c-0.03302,-0.68957 0.49921,-1.27534 1.18878,-1.30836c0.68957,-0.03302 1.27534,0.49921 1.30836,1.18878c0.03302,0.68957 -0.49921,1.27534 -1.18878,1.30836c-0.68957,0.03302 -1.27534,-0.49921 -1.30836,-1.18878z" fill="#9d2f3a" stroke="none" stroke-width="0.5" stroke-linecap="butt"/><path d="M278.22798,120.26893c-0.01981,-0.41374 0.29952,-0.7652 0.71327,-0.78501c0.41375,-0.01981 0.7652,0.29953 0.78501,0.71327c0.01981,0.41374 -0.29952,0.7652 -0.71327,0.78501c-0.41375,0.01981 -0.7652,-0.29953 -0.78501,-0.71327z" fill="#7c0000" stroke="none" stroke-width="0.5" stroke-linecap="butt"/><path d="M291.82199,119.81821c-0.01981,-0.41374 0.29952,-0.7652 0.71327,-0.78501c0.41375,-0.01981 0.7652,0.29953 0.78501,0.71327c0.01981,0.41374 -0.29952,0.7652 -0.71327,0.78501c-0.41375,0.01981 -0.7652,-0.29953 -0.78501,-0.71327z" fill="#7c0000" stroke="none" stroke-width="0.5" stroke-linecap="butt"/><path d="M324.271,120.06643c-0.01981,-0.41374 0.29952,-0.7652 0.71327,-0.78501c0.41375,-0.01981 0.7652,0.29953 0.78501,0.71327c0.01981,0.41375 -0.29952,0.7652 -0.71327,0.78501c-0.41375,0.01981 -0.7652,-0.29952 -0.78501,-0.71327z" fill="#7c0000" stroke="none" stroke-width="0.5" stroke-linecap="butt"/><path d="M332.79419,118.25669c-0.01981,-0.41374 0.29952,-0.7652 0.71327,-0.78501c0.41375,-0.01981 0.7652,0.29953 0.78501,0.71327c0.01981,0.41374 -0.29952,0.7652 -0.71327,0.78501c-0.41375,0.01981 -0.7652,-0.29953 -0.78501,-0.71327z" fill="#7c0000" stroke="none" stroke-width="0.5" stroke-linecap="butt"/><path d="M273.81724,132.69412c-0.01981,-0.41375 0.29952,-0.7652 0.71327,-0.78501c0.41375,-0.01981 0.7652,0.29952 0.78501,0.71327c0.01981,0.41375 -0.29952,0.7652 -0.71327,0.78501c-0.41375,0.01981 -0.7652,-0.29952 -0.78501,-0.71327z" fill="#940039" stroke="none" stroke-width="0.5" stroke-linecap="butt"/><path d="M278.59262,132.06499c-0.01981,-0.41375 0.29952,-0.7652 0.71327,-0.78501c0.41375,-0.01981 0.7652,0.29952 0.78501,0.71327c0.01981,0.41375 -0.29952,0.7652 -0.71327,0.78501c-0.41375,0.01981 -0.7652,-0.29952 -0.78501,-0.71327z" fill="#940039" stroke="none" stroke-width="0.5" stroke-linecap="butt"/><path d="M328.79256,130.86252c-0.01981,-0.41375 0.29952,-0.7652 0.71327,-0.78501c0.41375,-0.01981 0.7652,0.29952 0.78501,0.71327c0.01981,0.41375 -0.29952,0.7652 -0.71327,0.78501c-0.41375,0.01981 -0.7652,-0.29952 -0.78501,-0.71327z" fill="#940039" stroke="none" stroke-width="0.5" stroke-linecap="butt"/><path d="M330.96469,142.77226c-0.01981,-0.41375 0.29952,-0.7652 0.71327,-0.78501c0.41375,-0.01981 0.7652,0.29952 0.78501,0.71327c0.01981,0.41375 -0.29952,0.7652 -0.71327,0.78501c-0.41375,0.01981 -0.7652,-0.29952 -0.78501,-0.71327z" fill="#da5cb1" stroke="none" stroke-width="0.5" stroke-linecap="butt"/><path d="M275.86614,146.21159c-0.01981,-0.41374 0.29953,-0.7652 0.71327,-0.78501c0.41374,-0.01981 0.7652,0.29953 0.78501,0.71327c0.01981,0.41374 -0.29953,0.7652 -0.71327,0.78501c-0.41374,0.01981 -0.7652,-0.29953 -0.78501,-0.71327z" fill="#da5cb1" stroke="none" stroke-width="0.5" stroke-linecap="butt"/><g stroke="#000000" stroke-width="0"><path d="M284.11071,148.17622l-6.4766,-9.99861l8.70064,1.64512z" fill="#000000" stroke-linecap="round"/><path d="M282.92783,143.31839c-0.62027,-12.95317 9.37752,-23.9566 22.33069,-24.57687c12.95317,-0.62027 23.9566,9.37751 24.57687,22.33068c0.62027,12.95317 -9.37751,23.95661 -22.33068,24.57688c-12.95317,0.62027 -23.95661,-9.37752 -24.57688,-22.33069z" fill="#ffffff" stroke-linecap="butt"/><path d="M291.07643,135.4917c-0.29131,-6.08353 4.4042,-11.25137 10.48775,-11.54269c6.08353,-0.29131 11.25137,4.40421 11.54269,10.48776c0.29131,6.08353 -4.40421,11.25138 -10.48775,11.5427c-6.08353,0.29131 -11.25137,-4.40421 -11.54269,-10.48776z" fill="#000000" stroke-linecap="butt"/><path d="M361.73137,163.05244c-12.92757,1.02331 -22.80621,-9.43261 -23.42648,-22.38578c-0.62027,-12.95317 7.98988,-24.95686 20.95021,-24.51077c28.01837,0.96438 26.24637,9.03726 26.86664,21.99043c0.62027,12.95317 -2.26716,23.15492 -24.39037,24.90611z" fill="url(#color-1)" stroke-linecap="butt"/><path d="M363.59191,142.92843c-5.46292,0.26159 -6.77534,-4.26626 -7.03694,-9.72919c-0.2616,-5.46294 0.6267,-9.79224 6.08962,-10.05384c5.46292,-0.26159 11.77131,3.87507 12.0329,9.33799c0,0 -5.62265,10.18345 -11.08558,10.44505z" fill="#000000" stroke-linecap="butt"/></g></g><g stroke="none" stroke-width="0" stroke-linecap="butt"><g><path d="M453.86136,145.81354c-5.49192,1.95155 -15.58602,4.54014 -18.72956,-3.37038c-3.06092,-7.70262 6.80254,-12.78747 12.29444,-14.73901c5.49192,-1.95155 11.02911,-0.99231 13.16153,5.52112c2.13176,6.51139 -1.23451,10.63672 -6.72642,12.58825z" fill="#ff7be1"/><path d="M452.74833,141.65637c-4.15242,1.47554 -8.32894,0.3914 -9.3285,-2.42154c-0.99956,-2.81292 1.55634,-6.28942 5.70875,-7.76499c4.15242,-1.47554 8.32894,-0.3914 9.3285,2.42154c0.99956,2.81292 -1.55633,6.28944 -5.70875,7.76498z" fill="#ffffff"/></g><g><path d="M447.11948,165.13858c-5.62063,-1.54204 -15.38014,-5.19504 -13.43173,-13.48126c1.89721,-8.06848 12.89591,-6.59465 18.51655,-5.05261c5.62063,1.54204 9.61288,5.49712 7.63466,12.05905c-1.9776,6.55986 -7.09885,8.01687 -12.71948,6.47482z" fill="#ff7be1"/><path d="M448.58545,161.09235c-4.24976,-1.16593 -7.0546,-4.44489 -6.26476,-7.32377c0.78983,-2.87888 4.87521,-4.26746 9.12498,-3.10154c4.24976,1.16593 7.05459,4.4449 6.26476,7.32376c-0.78983,2.87888 -4.87521,4.26747 -9.12496,3.10154z" fill="#ffffff"/></g><g><path d="M445.71152,128.28035c-3.37792,4.74965 -10.1594,12.66189 -17.27312,7.9872c-6.92677,-4.55187 -1.7666,-14.37613 1.61133,-19.12578c3.37792,-4.74965 8.46321,-7.14144 13.94718,-3.03071c5.48225,4.10945 5.09256,9.41964 1.71463,14.16929z" fill="#ff7be1"/><path d="M442.4145,125.51439c-2.55405,3.59119 -6.59663,5.09988 -9.02938,3.36972c-2.43275,-1.73016 -2.33442,-6.04397 0.21963,-9.63516c2.55405,-3.59119 6.59663,-5.09988 9.02938,-3.36972c2.43275,1.73016 2.33442,6.04397 -0.21962,9.63518z" fill="#ffffff"/></g><g><path d="M421.92447,129.76943c8.38018,-3.15883 16.347,-1.8835 20.89319,9.45407c4.48451,11.18376 -1.0739,17.73436 -9.45407,20.89319c-8.38018,3.15883 -17.73436,-1.0739 -20.89319,-9.45407c-3.15883,-8.38018 1.0739,-17.73436 9.45407,-20.89319z" fill="#ff7be1"/><path d="M430.80918,155.52921c-4.30313,1.62203 -8.85593,0.51632 -11.51878,-3.31088c-0.51998,-0.74734 -0.63569,-3.63619 -0.63569,-3.63619c0,0 -1.75861,-2.31999 -1.80361,-3.49266c-0.16618,-4.33127 2.42168,-7.90214 6.46921,-9.42782c5.14339,-1.93875 10.98936,0.9371 13.05735,6.42336c2.068,5.48629 -0.42507,11.50545 -5.56847,13.4442z" fill="#ffffff"/></g><g><path d="M411.98187,121.2306c4.74432,-1.78833 10.0401,0.60797 11.82842,5.3523c1.78833,4.74432 -0.60797,10.0401 -5.3523,11.82842c-4.74432,1.78833 -10.0401,-0.60797 -11.82842,-5.3523c-1.78833,-4.74432 0.60797,-10.0401 5.3523,-11.82842z" fill="#ff7be1"/><path d="M413.44301,123.95016c3.16288,-1.19222 6.6934,0.40533 7.88562,3.56821c1.19222,3.16288 -0.40533,6.6934 -3.56821,7.88562c-3.16288,1.19222 -6.6934,-0.40533 -7.88562,-3.56821c-1.19222,-3.16288 0.40533,-6.6934 3.56821,-7.88562z" fill="#ffffff"/></g></g></g></g></svg>