<svg version="1.1" xmlns="http://www.w3.org/2000/svg" xmlns:xlink="http://www.w3.org/1999/xlink" width="34.17311" height="34.17311" viewBox="0,0,34.17311,34.17311"><g transform="translate(-302.91346,-162.91348)"><g stroke-miterlimit="10"><path d="M309.98312,162.91349h20.03379c3.9166,0 7.06966,3.15307 7.06966,7.06966v20.03379c0,3.91659 -3.15306,7.06966 -7.06966,7.06966h-20.03379c-3.91659,0 -7.06966,-3.15307 -7.06966,-7.06966v-20.03379c0,-3.91659 3.15307,-7.06966 7.06966,-7.06966z" fill="#bfbfbf" fill-rule="evenodd" stroke="none" stroke-width="4.43922" stroke-linecap="round" stroke-linejoin="round"/><g fill-rule="nonzero" stroke="#000000" stroke-width="2" stroke-linecap="butt" stroke-linejoin="miter"><path d="M308.76052,188.89399c0,-5.7909 5.0011,-10.48535 11.17025,-10.48535c6.16916,0 11.17025,4.69445 11.17025,10.48535c0,0.35255 -22.34051,0.37116 -22.34051,0z" fill="#b9bebf"/><path d="M334.18138,179.34344c0,1.1569 -6.34921,2.09476 -14.18137,2.09476c-7.83215,0 -14.18137,-0.93786 -14.18137,-2.09476c0,-1.1569 6.34921,-2.09476 14.18137,-2.09476c7.83216,0 14.18137,0.93786 14.18137,2.09476z" fill="#cad6d8"/><path d="M315.02109,181.11017c0,0 -1.68151,-0.09863 -2.47252,-0.17292c-0.77692,-0.07297 -2.23202,-0.26894 -2.23202,-0.26894c0,0 5.97282,-1.17 7.83526,-1.76389c1.40016,-0.44648 2.35359,-1.48511 2.35359,-1.48511c0,0 2.61557,0.07209 3.35117,0.09967c0.3611,0.01354 0.80754,0.05627 0.80754,0.05627c0,0 -3.83114,0.98945 -5.462,1.58729c-1.58199,0.57992 -4.18101,1.94762 -4.18101,1.94762z" fill="#faffff"/><path d="M319.74048,178.65754v-6.96532l-1.14934,-0.85761c0,0 0.93486,0.48024 1.3952,0.48024c0.47823,0 1.42254,-0.48024 1.42254,-0.48024l-1.14934,0.85761v6.96532z" fill="#9ea2a2"/></g><g fill-rule="nonzero" stroke="#000000" stroke-width="0" stroke-linecap="butt" stroke-linejoin="miter"><path d="M308.76052,188.89399c0,-5.7909 5.0011,-10.48535 11.17025,-10.48535c6.16916,0 11.17025,4.69445 11.17025,10.48535c0,0.35255 -22.34051,0.37116 -22.34051,0z" fill="#bfbfbf"/><path d="M334.18138,179.34344c0,1.1569 -6.34921,2.09476 -14.18137,2.09476c-7.83215,0 -14.18137,-0.93786 -14.18137,-2.09476c0,-1.1569 6.34921,-2.09476 14.18137,-2.09476c7.83216,0 14.18137,0.93786 14.18137,2.09476z" fill="#d9d9d9"/><path d="M315.02109,181.11017c0,0 -1.68151,-0.09863 -2.47252,-0.17292c-0.77692,-0.07297 -2.23202,-0.26894 -2.23202,-0.26894c0,0 5.97282,-1.17 7.83526,-1.76389c1.40016,-0.44648 2.35359,-1.48511 2.35359,-1.48511c0,0 2.61557,0.07209 3.35117,0.09967c0.3611,0.01354 0.80754,0.05627 0.80754,0.05627c0,0 -3.83114,0.98945 -5.462,1.58729c-1.58199,0.57992 -4.18101,1.94762 -4.18101,1.94762z" fill="#faffff"/><path d="M319.74048,178.65754v-6.96532l-1.14934,-0.85761c0,0 0.93486,0.48024 1.3952,0.48024c0.47823,0 1.42254,-0.48024 1.42254,-0.48024l-1.14934,0.85761v6.96532z" fill="#a3a3a3"/></g><path d="M306.9524,193.3404v-4.5h27.07143v4.5z" fill="#bfbfbf" fill-rule="nonzero" stroke="none" stroke-width="0" stroke-linecap="butt" stroke-linejoin="miter"/></g></g></svg>