<svg version="1.1" xmlns="http://www.w3.org/2000/svg" xmlns:xlink="http://www.w3.org/1999/xlink" width="213.18203" height="280.18476" viewBox="0,0,213.18203,280.18476"><defs><linearGradient x1="378.18479" y1="65.21854" x2="377.74924" y2="104.37409" gradientUnits="userSpaceOnUse" id="color-1"><stop offset="0" stop-color="#000000" stop-opacity="0"/><stop offset="1" stop-color="#000000" stop-opacity="0.12941"/></linearGradient><linearGradient x1="258.07598" y1="63.88249" x2="257.64042" y2="103.03805" gradientUnits="userSpaceOnUse" id="color-2"><stop offset="0" stop-color="#000000" stop-opacity="0"/><stop offset="1" stop-color="#000000" stop-opacity="0.12941"/></linearGradient></defs><g transform="translate(-214.52362,-38.88751)"><g stroke-miterlimit="10"><g stroke-linecap="butt"><g><path d="M286.35186,319.07226l15.14285,-131.8421l37.78325,-0.15789l13.57389,132z" fill="#ffffff" stroke="#000000" stroke-width="0"/><path d="M295.03756,243.4497c2.31163,-20.12635 6.45715,-56.21953 6.45715,-56.21953l37.78325,-0.15789c0,0 3.72623,36.23595 5.80113,56.41339c0.06797,0.66099 -50.13384,0.76769 -50.04153,-0.03597z" fill="#c5c5c5" stroke="#000000" stroke-width="0"/><path d="M296.28412,232.59645c2.01457,-17.53997 5.21059,-45.36629 5.21059,-45.36629l37.78325,-0.15789c0,0 4.66307,45.11419 4.71681,45.63673c0.00337,0.03279 -47.73775,0.12343 -47.71065,-0.11255z" fill="#7e7e7e" stroke="#000000" stroke-width="0"/><path d="M297.74772,219.85353c1.58763,-13.82276 3.74699,-32.62337 3.74699,-32.62337l37.78325,-0.15789c0,0 1.95261,18.98827 3.38375,32.9055c0.00712,0.06919 -44.92683,-0.01249 -44.91399,-0.12423z" fill="#424242" stroke="#000000" stroke-width="0"/><path d="M297.5,220.16667c0,-0.9665 0.7835,-1.75 1.75,-1.75c0.9665,0 1.75,0.7835 1.75,1.75c0,0.9665 -0.7835,1.75 -1.75,1.75c-0.9665,0 -1.75,-0.7835 -1.75,-1.75z" fill="#424242" stroke="none" stroke-width="0.5"/><path d="M306.91667,217.75c0.9665,0 1.75,0.7835 1.75,1.75c0,0.9665 -0.7835,1.75 -1.75,1.75c-0.3017,0 -0.58556,-0.07635 -0.83333,-0.21077c-0.24777,0.13442 -0.53163,0.21077 -0.83333,0.21077c-0.9665,0 -1.75,-0.7835 -1.75,-1.75c0,-0.9665 0.7835,-1.75 1.75,-1.75c0.3017,0 0.58556,0.07635 0.83333,0.21077c0.24777,-0.13442 0.53163,-0.21077 0.83333,-0.21077z" fill="#424242" stroke="none" stroke-width="0.5"/><path d="M308.5,220.66667c0,-0.53086 0.33092,-0.98441 0.79772,-1.16566c0.26193,-0.63635 0.88812,-1.08434 1.61894,-1.08434c0.41516,0 0.79655,0.14456 1.09658,0.3861c0.20911,-0.21861 0.49678,-0.36146 0.81767,-0.3832c0.22793,-0.10871 0.48307,-0.16956 0.75242,-0.16956c0.61869,0 1.16238,0.32105 1.47358,0.80564c0.19664,-0.75131 0.88013,-1.30564 1.69308,-1.30564c0.9665,0 1.75,0.7835 1.75,1.75c0,0.9665 -0.7835,1.75 -1.75,1.75c-0.61869,0 -1.16238,-0.32105 -1.47358,-0.80564c-0.19664,0.75131 -0.88013,1.30564 -1.69308,1.30564c-0.49626,0 -0.94428,-0.20656 -1.26275,-0.5384c-0.31903,0.42793 -0.82911,0.70506 -1.40392,0.70506c-0.22382,0 -0.43782,-0.04201 -0.63455,-0.11859c-0.16145,0.07606 -0.34182,0.11859 -0.53212,0.11859c-0.69036,0 -1.25,-0.55964 -1.25,-1.25z" fill="#424242" stroke="none" stroke-width="0.5"/><path d="M332.91667,217.41667c0.9665,0 1.75,0.7835 1.75,1.75c0,0.9665 -0.7835,1.75 -1.75,1.75c-0.58936,0 -1.11067,-0.29134 -1.42777,-0.73785c-0.44514,0.90452 -1.57223,0.90452 -1.57223,0.90452h-2.5c0,0 -0.86581,0 -1.37944,-0.609c-0.31412,0.46781 -0.84806,0.77567 -1.4539,0.77567c-0.48967,0 -0.93237,-0.20111 -1.25,-0.52525c-0.31763,0.32414 -0.76033,0.52525 -1.25,0.52525c-0.9665,0 -1.75,-0.7835 -1.75,-1.75c0,-0.9665 0.7835,-1.75 1.75,-1.75c0.48967,0 0.93237,0.20111 1.25,0.52525c0.31763,-0.32414 0.76033,-0.52525 1.25,-0.52525c0.53241,0 1.00929,0.23775 1.33026,0.61289c0.48235,-0.77955 1.50308,-0.77955 1.50308,-0.77955h2.5c0,0 0.97758,0 1.47143,0.73064c0.29928,-0.53536 0.87165,-0.89731 1.52857,-0.89731z" fill="#424242" stroke="none" stroke-width="0.5"/><path d="M338.83334,221.16667c0,0.69036 -0.55964,1.25 -1.25,1.25c-0.54428,0 -1.0073,-0.34785 -1.17889,-0.83337c-0.96087,-0.00657 -1.73778,-0.78753 -1.73778,-1.74995c0,-0.9665 0.7835,-1.75 1.75,-1.75c0.72825,0 1.35259,0.44482 1.61616,1.07759c0.15789,-0.80422 0.86669,-1.41092 1.71717,-1.41092c0.3841,0 0.73931,0.12375 1.02792,0.33355c0.95362,0.01492 1.72208,0.79261 1.72208,1.74979c0,0.9665 -0.7835,1.75 -1.75,1.75c-0.3841,0 -0.73931,-0.12375 -1.02792,-0.33356c-0.33122,-0.00518 -0.6401,-0.10237 -0.9022,-0.26715c0.00887,0.06006 0.01345,0.12151 0.01345,0.18403z" fill="#424242" stroke="none" stroke-width="0.5"/><path d="M296.66667,232.83334c0,-0.9665 0.7835,-1.75 1.75,-1.75c0.9665,0 1.75,0.7835 1.75,1.75c0,0.9665 -0.7835,1.75 -1.75,1.75c-0.9665,0 -1.75,-0.7835 -1.75,-1.75z" fill="#7e7e7e" stroke="none" stroke-width="0.5"/><path d="M300.66667,232.16667c0,-0.9665 0.7835,-1.75 1.75,-1.75c0.9665,0 1.75,0.7835 1.75,1.75c0,0.9665 -0.7835,1.75 -1.75,1.75c-0.9665,0 -1.75,-0.7835 -1.75,-1.75z" fill="#7e7e7e" stroke="none" stroke-width="0.5"/><path d="M310.08333,230.25c0.9665,0 1.75,0.7835 1.75,1.75c0,0.9665 -0.7835,1.75 -1.75,1.75c-0.60339,0 -1.13547,-0.30538 -1.45009,-0.77001c-0.29284,0.5569 -0.87703,0.93668 -1.54991,0.93668c-0.9665,0 -1.75,-0.7835 -1.75,-1.75c0,-0.9665 0.7835,-1.75 1.75,-1.75c0.60339,0 1.13546,0.30538 1.45008,0.77002c0.29284,-0.5569 0.87703,-0.93668 1.54992,-0.93668z" fill="#7e7e7e" stroke="none" stroke-width="0.5"/><path d="M314.33333,232.83334c0,-0.9665 0.7835,-1.75 1.75,-1.75c0.9665,0 1.75,0.7835 1.75,1.75c0,0.9665 -0.7835,1.75 -1.75,1.75c-0.9665,0 -1.75,-0.7835 -1.75,-1.75z" fill="#7e7e7e" stroke="none" stroke-width="0.5"/><path d="M322.16667,232.83334c0,-0.9665 0.7835,-1.75 1.75,-1.75c0.9665,0 1.75,0.7835 1.75,1.75c0,0.9665 -0.7835,1.75 -1.75,1.75c-0.9665,0 -1.75,-0.7835 -1.75,-1.75z" fill="#7e7e7e" stroke="none" stroke-width="0.5"/><path d="M327.83333,232.66667c0,-0.9665 0.7835,-1.75 1.75,-1.75c0.9665,0 1.75,0.7835 1.75,1.75c0,0.9665 -0.7835,1.75 -1.75,1.75c-0.9665,0 -1.75,-0.7835 -1.75,-1.75z" fill="#7e7e7e" stroke="none" stroke-width="0.5"/><path d="M331.5,232.66667c0,-0.9665 0.7835,-1.75 1.75,-1.75c0.9665,0 1.75,0.7835 1.75,1.75c0,0.9665 -0.7835,1.75 -1.75,1.75c-0.9665,0 -1.75,-0.7835 -1.75,-1.75z" fill="#7e7e7e" stroke="none" stroke-width="0.5"/><path d="M341.75,230.91667c0.9665,0 1.75,0.7835 1.75,1.75c0,0.9665 -0.7835,1.75 -1.75,1.75c-0.14358,0 -0.28313,-0.01729 -0.41667,-0.0499c-0.13353,0.03261 -0.27308,0.0499 -0.41667,0.0499c-0.4482,0 -0.85706,-0.1685 -1.16667,-0.44561c-0.30961,0.27711 -0.71846,0.44561 -1.16667,0.44561c-0.2684,0 -0.52269,-0.06042 -0.75,-0.16841c-0.22731,0.10799 -0.4816,0.16841 -0.75,0.16841c-0.9665,0 -1.75,-0.7835 -1.75,-1.75c0,-0.9665 0.7835,-1.75 1.75,-1.75c0.2684,0 0.52269,0.06042 0.75,0.16841c0.22731,-0.10799 0.4816,-0.16841 0.75,-0.16841c0.4482,0 0.85706,0.1685 1.16667,0.44561c0.30961,-0.27711 0.71846,-0.44561 1.16667,-0.44561c0.14358,0 0.28313,0.0173 0.41667,0.04991c0.13353,-0.03261 0.27308,-0.04991 0.41667,-0.04991z" fill="#7e7e7e" stroke="none" stroke-width="0.5"/><path d="M317.83333,233c0,-0.9665 0.7835,-1.75 1.75,-1.75c0.9665,0 1.75,0.7835 1.75,1.75c0,0.9665 -0.7835,1.75 -1.75,1.75c-0.9665,0 -1.75,-0.7835 -1.75,-1.75z" fill="#7e7e7e" stroke="none" stroke-width="0.5"/><path d="M294.83333,244c0,-0.9665 0.7835,-1.75 1.75,-1.75c0.9665,0 1.75,0.7835 1.75,1.75c0,0.9665 -0.7835,1.75 -1.75,1.75c-0.9665,0 -1.75,-0.7835 -1.75,-1.75z" fill="#c5c5c5" stroke="none" stroke-width="0.5"/><path d="M341.33334,244.16667c0,-0.9665 0.7835,-1.75 1.75,-1.75c0.9665,0 1.75,0.7835 1.75,1.75c0,0.9665 -0.7835,1.75 -1.75,1.75c-0.9665,0 -1.75,-0.7835 -1.75,-1.75z" fill="#c5c5c5" stroke="none" stroke-width="0.5"/><path d="M335.33333,244c0,-0.9665 0.7835,-1.75 1.75,-1.75c0.37181,0 0.71654,0.11595 1,0.31367c0.28346,-0.19772 0.62819,-0.31367 1,-0.31367c0.9665,0 1.75,0.7835 1.75,1.75c0,0.9665 -0.7835,1.75 -1.75,1.75c-0.37181,0 -0.71654,-0.11595 -1,-0.31367c-0.28346,0.19772 -0.62819,0.31367 -1,0.31367c-0.9665,0 -1.75,-0.7835 -1.75,-1.75z" fill="#c5c5c5" stroke="none" stroke-width="0.5"/><path d="M331.66667,244.33334c0,-0.9665 0.7835,-1.75 1.75,-1.75c0.9665,0 1.75,0.7835 1.75,1.75c0,0.9665 -0.7835,1.75 -1.75,1.75c-0.9665,0 -1.75,-0.7835 -1.75,-1.75z" fill="#c5c5c5" stroke="none" stroke-width="0.5"/><path d="M326.66667,244.33334c0,-0.9665 0.7835,-1.75 1.75,-1.75c0.9665,0 1.75,0.7835 1.75,1.75c0,0.9665 -0.7835,1.75 -1.75,1.75c-0.9665,0 -1.75,-0.7835 -1.75,-1.75z" fill="#c5c5c5" stroke="none" stroke-width="0.5"/><path d="M319.67271,243.68801c0.14533,-1.74395 1.88929,-1.59862 1.88929,-1.59862l2,0.16666c0,0 1.74395,0.14533 1.59862,1.88929c-0.14533,1.74395 -1.88928,1.59862 -1.88928,1.59862l-2,-0.16666c0,0 -1.74396,-0.14533 -1.59863,-1.88929z" fill="#c5c5c5" stroke="none" stroke-width="0.5"/><path d="M306.91667,241.91667c0.24572,0 0.47962,0.05065 0.69182,0.14207c0.24705,-0.66682 0.88878,-1.14207 1.64152,-1.14207c0.58252,0 1.09858,0.28462 1.41667,0.72239c0.31809,-0.43777 0.83414,-0.72239 1.41667,-0.72239c0.53935,0 1.02171,0.24399 1.34273,0.62762c0.20294,-0.08229 0.42481,-0.12762 0.65727,-0.12762c0.9665,0 1.75,0.7835 1.75,1.75c0,0.9665 -0.7835,1.75 -1.75,1.75c-0.53935,0 -1.02171,-0.24399 -1.34273,-0.62762c-0.20294,0.08229 -0.42481,0.12762 -0.65727,0.12762c-0.58252,0 -1.09858,-0.28462 -1.41667,-0.72239c-0.31809,0.43777 -0.83414,0.72239 -1.41667,0.72239c-0.24572,0 -0.47962,-0.05065 -0.69182,-0.14207c-0.24705,0.66682 -0.88878,1.14207 -1.64152,1.14207c-0.79836,0 -1.47185,-0.5346 -1.68202,-1.26535c-0.30771,0.26902 -0.71048,0.43202 -1.15131,0.43202c-0.3017,0 -0.58556,-0.07635 -0.83333,-0.21077c-0.24777,0.13442 -0.53163,0.21077 -0.83333,0.21077c-0.21569,0 -0.42227,-0.03903 -0.61306,-0.1104c-0.29161,0.56074 -0.87788,0.94373 -1.55361,0.94373c-0.9665,0 -1.75,-0.7835 -1.75,-1.75c0,-0.9665 0.7835,-1.75 1.75,-1.75c0.21569,0 0.42227,0.03903 0.61306,0.1104c0.29161,-0.56074 0.87788,-0.94373 1.55361,-0.94373c0.3017,0 0.58556,0.07635 0.83333,0.21077c0.24777,-0.13442 0.53163,-0.21077 0.83333,-0.21077c0.79836,0 1.47185,0.5346 1.68202,1.26535c0.30771,-0.26902 0.71048,-0.43202 1.15131,-0.43202z" fill="#c5c5c5" stroke="none" stroke-width="0.5"/><path d="M301.66667,224.83334c0,-0.69036 0.55964,-1.25 1.25,-1.25c0.69036,0 1.25,0.55964 1.25,1.25c0,0.69036 -0.55964,1.25 -1.25,1.25c-0.69036,0 -1.25,-0.55964 -1.25,-1.25z" fill="#424242" stroke="none" stroke-width="0.5"/><path d="M316.16667,222.66667c0,-0.69036 0.55964,-1.25 1.25,-1.25c0.69036,0 1.25,0.55964 1.25,1.25c0,0.69036 -0.55964,1.25 -1.25,1.25c-0.69036,0 -1.25,-0.55964 -1.25,-1.25z" fill="#424242" stroke="none" stroke-width="0.5"/><path d="M319.16667,223.83334c0,-0.69036 0.55964,-1.25 1.25,-1.25c0.69036,0 1.25,0.55964 1.25,1.25c0,0.69036 -0.55964,1.25 -1.25,1.25c-0.69036,0 -1.25,-0.55964 -1.25,-1.25z" fill="#424242" stroke="none" stroke-width="0.5"/><path d="M324.66667,225.5c0,-0.69036 0.55964,-1.25 1.25,-1.25c0.69036,0 1.25,0.55964 1.25,1.25c0,0.69036 -0.55964,1.25 -1.25,1.25c-0.69036,0 -1.25,-0.55964 -1.25,-1.25z" fill="#424242" stroke="none" stroke-width="0.5"/><path d="M327.5,225.33334c0,-0.69036 0.55964,-1.25 1.25,-1.25c0.69036,0 1.25,0.55964 1.25,1.25c0,0.69036 -0.55964,1.25 -1.25,1.25c-0.69036,0 -1.25,-0.55964 -1.25,-1.25z" fill="#424242" stroke="none" stroke-width="0.5"/><path d="M331.83333,223.33334c0,-0.69036 0.55964,-1.25 1.25,-1.25c0.69036,0 1.25,0.55964 1.25,1.25c0,0.69036 -0.55964,1.25 -1.25,1.25c-0.69036,0 -1.25,-0.55964 -1.25,-1.25z" fill="#424242" stroke="none" stroke-width="0.5"/><path d="M299.33333,238.33334c0,-0.69036 0.55964,-1.25 1.25,-1.25c0.69036,0 1.25,0.55964 1.25,1.25c0,0.69036 -0.55964,1.25 -1.25,1.25c-0.69036,0 -1.25,-0.55964 -1.25,-1.25z" fill="#7e7e7e" stroke="none" stroke-width="0.5"/><path d="M312.33333,234.33334c0,-0.69036 0.55964,-1.25 1.25,-1.25c0.69036,0 1.25,0.55964 1.25,1.25c0,0.69036 -0.55964,1.25 -1.25,1.25c-0.69036,0 -1.25,-0.55964 -1.25,-1.25z" fill="#7e7e7e" stroke="none" stroke-width="0.5"/><path d="M318,233.66667c0,-0.69036 0.55964,-1.25 1.25,-1.25c0.69036,0 1.25,0.55964 1.25,1.25c0,0.69036 -0.55964,1.25 -1.25,1.25c-0.69036,0 -1.25,-0.55964 -1.25,-1.25z" fill="#7e7e7e" stroke="none" stroke-width="0.5"/><path d="M325.5,236.33334c0,-0.69036 0.55964,-1.25 1.25,-1.25c0.69036,0 1.25,0.55964 1.25,1.25c0,0.69036 -0.55964,1.25 -1.25,1.25c-0.69036,0 -1.25,-0.55964 -1.25,-1.25z" fill="#7e7e7e" stroke="none" stroke-width="0.5"/><path d="M336.16667,238c0,-0.69036 0.55964,-1.25 1.25,-1.25c0.69036,0 1.25,0.55964 1.25,1.25c0,0.69036 -0.55964,1.25 -1.25,1.25c-0.69036,0 -1.25,-0.55964 -1.25,-1.25z" fill="#7e7e7e" stroke="none" stroke-width="0.5"/><path d="M340,238.33334c0,-0.69036 0.55964,-1.25 1.25,-1.25c0.69036,0 1.25,0.55964 1.25,1.25c0,0.69036 -0.55964,1.25 -1.25,1.25c-0.69036,0 -1.25,-0.55964 -1.25,-1.25z" fill="#7e7e7e" stroke="none" stroke-width="0.5"/><path d="M305.5,236.66667c0,-0.69036 0.55964,-1.25 1.25,-1.25c0.69036,0 1.25,0.55964 1.25,1.25c0,0.69036 -0.55964,1.25 -1.25,1.25c-0.69036,0 -1.25,-0.55964 -1.25,-1.25z" fill="#7e7e7e" stroke="none" stroke-width="0.5"/><path d="M296.16667,249.33334c0,-0.69036 0.55964,-1.25 1.25,-1.25c0.69036,0 1.25,0.55964 1.25,1.25c0,0.69036 -0.55964,1.25 -1.25,1.25c-0.69036,0 -1.25,-0.55964 -1.25,-1.25z" fill="#c5c5c5" stroke="none" stroke-width="0.5"/><path d="M306.5,248.33334c0,-0.69036 0.55964,-1.25 1.25,-1.25c0.69036,0 1.25,0.55964 1.25,1.25c0,0.69036 -0.55964,1.25 -1.25,1.25c-0.69036,0 -1.25,-0.55964 -1.25,-1.25z" fill="#c5c5c5" stroke="none" stroke-width="0.5"/><path d="M310.83333,246.33334c0,-0.69036 0.55964,-1.25 1.25,-1.25c0.69036,0 1.25,0.55964 1.25,1.25c0,0.69036 -0.55964,1.25 -1.25,1.25c-0.69036,0 -1.25,-0.55964 -1.25,-1.25z" fill="#c5c5c5" stroke="none" stroke-width="0.5"/><path d="M317.16667,244.66667c0,-0.69036 0.55964,-1.25 1.25,-1.25c0.69036,0 1.25,0.55964 1.25,1.25c0,0.69036 -0.55964,1.25 -1.25,1.25c-0.69036,0 -1.25,-0.55964 -1.25,-1.25z" fill="#c5c5c5" stroke="none" stroke-width="0.5"/><path d="M332.33333,249.83334c0,-0.69036 0.55964,-1.25 1.25,-1.25c0.69036,0 1.25,0.55964 1.25,1.25c0,0.69036 -0.55964,1.25 -1.25,1.25c-0.69036,0 -1.25,-0.55964 -1.25,-1.25z" fill="#c5c5c5" stroke="none" stroke-width="0.5"/><path d="M341.66667,249.5c0,-0.69036 0.55964,-1.25 1.25,-1.25c0.69036,0 1.25,0.55964 1.25,1.25c0,0.69036 -0.55964,1.25 -1.25,1.25c-0.69036,0 -1.25,-0.55964 -1.25,-1.25z" fill="#c5c5c5" stroke="none" stroke-width="0.5"/><path d="M341,244.5c0,-0.69036 0.55964,-1.25 1.25,-1.25c0.69036,0 1.25,0.55964 1.25,1.25c0,0.69036 -0.55964,1.25 -1.25,1.25c-0.69036,0 -1.25,-0.55964 -1.25,-1.25z" fill="#c5c5c5" stroke="none" stroke-width="0.5"/><path d="M302.5,229.5c0,-0.41422 0.33578,-0.75 0.75,-0.75c0.41422,0 0.75,0.33578 0.75,0.75c0,0.41422 -0.33578,0.75 -0.75,0.75c-0.41422,0 -0.75,-0.33578 -0.75,-0.75z" fill="#424242" stroke="none" stroke-width="0.5"/><path d="M310.16667,226.66667c0,-0.41422 0.33578,-0.75 0.75,-0.75c0.41422,0 0.75,0.33578 0.75,0.75c0,0.41422 -0.33578,0.75 -0.75,0.75c-0.41422,0 -0.75,-0.33578 -0.75,-0.75z" fill="#424242" stroke="none" stroke-width="0.5"/><path d="M318.16667,229.33334c0,-0.41422 0.33578,-0.75 0.75,-0.75c0.41422,0 0.75,0.33578 0.75,0.75c0,0.41422 -0.33578,0.75 -0.75,0.75c-0.41422,0 -0.75,-0.33578 -0.75,-0.75z" fill="#424242" stroke="none" stroke-width="0.5"/><path d="M323.16667,230c0,-0.41422 0.33578,-0.75 0.75,-0.75c0.41422,0 0.75,0.33578 0.75,0.75c0,0.41422 -0.33578,0.75 -0.75,0.75c-0.41422,0 -0.75,-0.33578 -0.75,-0.75z" fill="#424242" stroke="none" stroke-width="0.5"/><path d="M329.66667,229.83334c0,-0.41422 0.33578,-0.75 0.75,-0.75c0.41422,0 0.75,0.33578 0.75,0.75c0,0.41422 -0.33578,0.75 -0.75,0.75c-0.41422,0 -0.75,-0.33578 -0.75,-0.75z" fill="#424242" stroke="none" stroke-width="0.5"/><path d="M341.33334,229.16667c0,-0.41422 0.33578,-0.75 0.75,-0.75c0.41422,0 0.75,0.33578 0.75,0.75c0,0.41422 -0.33578,0.75 -0.75,0.75c-0.41422,0 -0.75,-0.33578 -0.75,-0.75z" fill="#424242" stroke="none" stroke-width="0.5"/><path d="M301,242.16667c0,-0.41422 0.33578,-0.75 0.75,-0.75c0.41422,0 0.75,0.33578 0.75,0.75c0,0.41422 -0.33578,0.75 -0.75,0.75c-0.41422,0 -0.75,-0.33578 -0.75,-0.75z" fill="#7e7e7e" stroke="none" stroke-width="0.5"/><path d="M311.33333,239.83334c0,-0.41422 0.33578,-0.75 0.75,-0.75c0.41422,0 0.75,0.33578 0.75,0.75c0,0.41422 -0.33578,0.75 -0.75,0.75c-0.41422,0 -0.75,-0.33578 -0.75,-0.75z" fill="#7e7e7e" stroke="none" stroke-width="0.5"/><path d="M323.5,240c0,-0.41422 0.33578,-0.75 0.75,-0.75c0.41422,0 0.75,0.33578 0.75,0.75c0,0.41422 -0.33578,0.75 -0.75,0.75c-0.41422,0 -0.75,-0.33578 -0.75,-0.75z" fill="#7e7e7e" stroke="none" stroke-width="0.5"/><path d="M338,242.83334c0,-0.41422 0.33578,-0.75 0.75,-0.75c0.41422,0 0.75,0.33578 0.75,0.75c0,0.41422 -0.33578,0.75 -0.75,0.75c-0.41422,0 -0.75,-0.33578 -0.75,-0.75z" fill="#7e7e7e" stroke="none" stroke-width="0.5"/><path d="M300,254.66667c0,-0.41422 0.33578,-0.75 0.75,-0.75c0.41422,0 0.75,0.33578 0.75,0.75c0,0.41422 -0.33578,0.75 -0.75,0.75c-0.41422,0 -0.75,-0.33578 -0.75,-0.75z" fill="#c5c5c5" stroke="none" stroke-width="0.5"/><path d="M312.83333,250.83334c0,-0.41422 0.33578,-0.75 0.75,-0.75c0.41422,0 0.75,0.33578 0.75,0.75c0,0.41422 -0.33578,0.75 -0.75,0.75c-0.41422,0 -0.75,-0.33578 -0.75,-0.75z" fill="#c5c5c5" stroke="none" stroke-width="0.5"/><path d="M330.33333,255.66667c0,-0.41422 0.33578,-0.75 0.75,-0.75c0.41422,0 0.75,0.33578 0.75,0.75c0,0.41421 -0.33578,0.75 -0.75,0.75c-0.41422,0 -0.75,-0.33579 -0.75,-0.75z" fill="#c5c5c5" stroke="none" stroke-width="0.5"/><path d="M339.16667,255.66667c0,-0.41422 0.33578,-0.75 0.75,-0.75c0.41422,0 0.75,0.33578 0.75,0.75c0,0.41421 -0.33578,0.75 -0.75,0.75c-0.41422,0 -0.75,-0.33579 -0.75,-0.75z" fill="#c5c5c5" stroke="none" stroke-width="0.5"/></g><path d="M296.16293,233.6608c0.00584,-0.25247 -0.00434,-0.50932 -0.00434,-0.77985c0,0 0,-0.02409 0.00748,-0.05731c-0.00469,-0.1515 -0.00748,-0.29934 -0.00748,-0.44269c0,-3.07638 0.48233,-6.38564 1.07346,-9.39207c0.50942,-2.51696 0.93681,-5.70001 0.92654,-8.27459c0,0 0,-0.0363 0.01383,-0.08124c-0.00426,-0.01363 -0.00777,-0.02838 -0.01043,-0.04433c-0.0411,-0.2466 0.2055,-0.2877 0.2055,-0.2877l0.01361,-0.00227c0.8039,-0.13398 1.94832,-0.54857 3.13114,-0.9152c-0.03816,-0.08816 -0.03946,-0.18016 0.00343,-0.27561c0.2339,-0.52048 3.50469,-0.47449 4.03328,-0.47688l0.00052,0.00018v-0.00018l0.35902,-0.00012c0.00003,0 0.00006,0 0.00009,0c0.13807,0 0.25,0.11193 0.25,0.25c0,0.11246 -0.07426,0.20758 -0.17641,0.23899l-0.46887,0.15629l-0.02005,-0.06014c-0.47198,0.22753 -1.00947,0.41779 -1.58095,0.58009c0.77601,0.10237 1.53592,0.16805 2.23846,0.44374l0.0292,-0.0876l0.16982,0.05661l-0.13571,-0.17092c-0.0347,-0.04292 -0.05549,-0.09757 -0.05549,-0.15706c0,-0.13807 0.11193,-0.25 0.25,-0.25h0.5v0.0252c0.98813,-0.12584 1.99435,-0.13647 2.9884,-0.19151l0.00689,0.00191v-0.00201l0.49998,-0.00019c0.00004,0 0.00007,0 0.00011,0c0.13807,0 0.25,0.11193 0.25,0.25c0,0.11223 -0.07395,0.20718 -0.17578,0.2388l-0.46844,0.15754l-0.01918,-0.05703c-0.48424,0.23641 -1.01363,0.41452 -1.57003,0.54958c0.9708,0.31925 1.97355,0.58754 2.90575,0.9795c2.01073,0.84552 3.88519,1.61623 6.00613,2.14647c0.90029,0.22507 1.98539,0.26133 2.80812,0.68785l0.04653,-0.09305l0.32849,0.16424c0.08456,0.04009 0.14304,0.12623 0.14304,0.22603c0,0.13807 -0.11193,0.25 -0.25,0.25h-0.49139c-3.08415,0.2856 -5.96808,1.0327 -8.98953,1.68016c-2.65911,0.56981 -5.55029,1.31799 -8.28552,1.69064c2.5467,0.11538 5.08925,0.46794 7.64033,0.55874c2.3423,0.08337 4.65992,0.28959 6.99334,0.50665c0.84102,0.07823 1.79904,-0.00121 2.53038,0.36755l0.05938,-0.10434l0.2904,0.16528c0.07779,0.04238 0.13057,0.12487 0.13057,0.21968c0,0.13613 -0.1088,0.24684 -0.24418,0.24993l-0.499,0.01326c-1.22922,0.03266 -2.64356,0.51109 -3.92799,0.59684c0.50378,0.10701 1.00954,0.20896 1.51901,0.2622c2.28716,0.24075 7.14545,-0.05334 9.34601,1.2331l0.03999,-0.07997l0.32849,0.16424c0.08456,0.04009 0.14304,0.12623 0.14304,0.22603c0,0.13807 -0.11193,0.25 -0.25,0.25c-1.27778,0 -3.05556,0 -4.33333,0c-2.30033,0 -4.56189,0.49308 -6.83151,0.85622c-0.35341,0.05654 -0.8453,0.19795 -1.33397,0.28917c1.75691,0.54377 -0.90606,1.23088 -2.74348,1.62269c-3.13796,0.66407 3.02055,2.3952 5.29243,3.21986l0.02544,-0.10175l0.48,0.12c0.11133,0.02526 0.19444,0.12483 0.19444,0.2438c0,0.13807 -0.11193,0.25 -0.25,0.25c-0.44444,0 -1.38889,0 -1.83333,0c-2.12349,0 -4.19052,0.05264 -6.28034,0.49432c-0.59665,0.1261 -1.37214,0.51855 -2.07569,0.68609c1.9295,0.31326 3.85337,0.6482 5.77712,0.99782c3.44082,0.62532 6.87934,1.27532 10.33591,1.8071c2.7452,0.42234 6.6588,0.29309 9.30648,1.44917l0.01207,-0.04829l0.48,0.12c0.11133,0.02526 0.19444,0.12483 0.19444,0.2438c0,0.13807 -0.11193,0.25 -0.25,0.25h-0.5c-0.32033,-0.00066 -0.64256,-0.02324 -0.9575,-0.08173c-3.45137,-0.65665 -6.86651,-0.91827 -10.37584,-0.91827c-3.42152,0 -6.79293,-0.09906 -10.16416,0.56883c-1.52057,0.30056 -3.50811,0.13779 -4.932,0.76023c-0.36251,0.15847 0.68279,0.4145 1.05987,0.53421c0.93244,0.29602 1.85869,0.55405 2.81487,0.76677c2.65569,0.59092 6.77373,0.97886 9.19318,2.55841l0.02617,-0.05233l0.44237,0.22118c0.08456,0.04009 0.14304,0.12623 0.14304,0.22603c0,0.13807 -0.11193,0.25 -0.25,0.25h-0.5v-0.0073l-0.02448,0.0061c-2.6229,-0.5125 -5.62986,-0.33213 -8.30886,-0.33213c-2.38424,0 -4.20105,0.31891 -6.48016,0.87652c-0.36311,0.08884 -1.4293,0.37661 -2.04371,0.38495c0.65615,0.40556 1.28922,0.69047 1.80519,1.20858l0.06318,-0.06242l0.31722,0.32109c0.00003,0.00003 0.00005,0.00005 0.00008,0.00008c0.04461,0.04515 0.07216,0.10721 0.07216,0.1757c0,0.13807 -0.11193,0.25 -0.25,0.25c-0.00641,0 -0.01276,-0.00024 -0.01904,-0.00071l-0.49646,-0.03307l0.00038,-0.00571l-0.02254,0.00323c-1.8429,-0.46422 -5.42643,-0.70891 -7.28249,-0.17938c-0.15239,0.35523 -0.0891,1.43597 -0.32036,1.65458c-0.80961,0.76532 -1.09138,-1.01719 -1.09344,-1.34344c-0.012,-1.89735 0.33333,-3.67725 0.33333,-5.5c0,-2.17504 0.31047,-4.23607 0.82418,-6.32656c-0.08314,-0.04061 -0.14041,-0.126 -0.14041,-0.22476c0,-0.02228 0.00292,-0.04389 0.00839,-0.06445l0.11677,-0.48045l0.02032,0.00494c0.00717,-0.30587 0.05331,-0.59232 0.17502,-0.96212zM307.54357,214.17458c-0.12199,-0.00332 -0.24034,-0.01184 -0.35334,-0.02696c0.04512,0.01932 0.09042,0.03834 0.1359,0.05708c0.07251,-0.00977 0.14499,-0.01981 0.21744,-0.03012z" fill="#da3243" stroke="none" stroke-width="0.5"/><path d="M324.40858,219.79762c0,0 -0.25,0 -0.25,-0.25c0,-0.25 0.25,-0.25 0.25,-0.25c0.59546,0.00123 1.18996,0.05067 1.78543,0.11111c0.06897,-0.11111 0.21457,-0.11111 0.21457,-0.11111l0.35106,0.00063c0.5999,0.08467 1.57737,0.05324 2.19877,0.33211c0.03893,0.0004 0.07788,0.0006 0.11684,0.0006h0.5c0.13807,0 0.25,0.11193 0.25,0.25c0,0.13807 -0.11193,0.25 -0.25,0.25h-0.5c-1.56935,-0.00002 -3.11992,-0.33692 -4.66667,-0.33333z" fill="#da3243" stroke="none" stroke-width="0.5"/><path d="M337.50416,240.13519c-0.08668,-0.00276 -0.17406,-0.00424 -0.26225,-0.00424c0,0 -0.25,0 -0.25,-0.25c0,-0.25 0.25,-0.25 0.25,-0.25c0.60691,0 1.18886,0.07691 1.76373,0.1577c0.46653,0.00757 0.95645,0.04335 1.33389,0.16099c0.08005,0.00597 0.16023,0.01091 0.2406,0.01464h0.49512c0.13807,0 0.25,0.11193 0.25,0.25c0,0.13807 -0.11193,0.25 -0.25,0.25h-0.5v-0.00691l-0.00701,0.00681c-0.18635,-0.01192 -0.37023,-0.02908 -0.5527,-0.04941c-0.68403,0.00175 -1.35667,-0.11716 -2.10696,-0.11716h-0.16667c0,0 -0.18754,0 -0.23775,-0.16243z" fill="#da3243" stroke="none" stroke-width="0.5"/><path d="M306.65858,248.04762c0,-0.13807 0.11193,-0.25 0.25,-0.25c0.13807,0 0.25,0.11193 0.25,0.25c0,0.13807 -0.11193,0.25 -0.25,0.25c-0.13807,0 -0.25,-0.11193 -0.25,-0.25z" fill="#ff3b4e" stroke="none" stroke-width="0.5"/></g><path d="M214.52362,306.61252v-267.72501h213.18203v267.72501z" fill="none" stroke="none" stroke-width="0" stroke-linecap="butt"/><path d="" fill="none" stroke="#000000" stroke-width="0" stroke-linecap="round"/><g><g stroke-linecap="round"><path d="M334.33389,93.42356l55.68209,-46.02756l-12.3413,84.38955" fill="#a9a9a9" stroke="#000000" stroke-width="0"/><path d="M371.53041,104.30492c0,0 3.35201,-13.88539 5.53757,-20.50962c2.10225,-6.37169 7.33562,-18.50758 7.33562,-18.50758" fill="none" stroke="url(#color-1)" stroke-width="2"/></g><g stroke-linecap="round"><path d="M257.10522,130.44437l-10.46104,-84.64318l54.64445,47.2548" fill="#a9a9a9" stroke="#000000" stroke-width="0"/><path d="M251.85717,63.81332c0,0 4.96212,12.2493 6.92212,18.66617c2.03768,6.6712 5.07998,20.62772 5.07998,20.62772" fill="none" stroke="url(#color-2)" stroke-width="2"/></g><g><path d="M252.90415,150.17711c0.37041,-33.29978 29.42881,-59.9747 64.90374,-59.58009c35.47493,0.39461 63.93276,27.70932 63.56235,61.0091c-0.37041,33.29978 -29.4288,59.97471 -64.90374,59.5801c-35.47492,-0.39461 -63.93276,-27.70933 -63.56235,-61.00911z" fill="#ffffff" stroke="#000000" stroke-width="0" stroke-linecap="butt"/><g><path d="M256.39578,173.51292l6.91493,-0.38379l23.65935,26.75404l-7.17088,2.6845z" fill="#ffffff" stroke="none" stroke-width="0" stroke-linecap="round"/><path d="M283.03144,201.91255l-21.52288,8.97479l0.1819,-16.3532l-34.30818,-22.03503l30.17025,0.56596" fill="#ffffff" stroke="#000000" stroke-width="0" stroke-linecap="round"/><path d="M353.38197,203.38617l-7.10938,-2.84334l24.24863,-26.22113l6.90469,0.53751z" fill="#ffffff" stroke="none" stroke-width="0" stroke-linecap="round"/><path d="M376.27939,174.38575l30.17536,0.10531l-34.78984,21.2664l-0.1819,16.35321l-21.31791,-9.45134" fill="#ffffff" stroke="#000000" stroke-width="0" stroke-linecap="round"/><path d="M256.28915,131.43478c8.67653,-24.01197 33.02833,-41.1547 61.51874,-40.83777c28.75982,0.31991 52.90766,18.33298 60.82177,42.88431c0.05655,0.17544 -122.40837,-1.85872 -122.34051,-2.04654z" fill="#c5c5c5" stroke="#000000" stroke-width="0" stroke-linecap="butt"/><path d="M262.6259,118.90319c11.47359,-17.21565 31.95209,-28.56457 55.18199,-28.30618c23.59599,0.26248 44.74669,13.10893 55.71527,31.0307c0.45714,0.74693 -111.03575,-2.51672 -110.89726,-2.72452z" fill="#7e7e7e" stroke="#000000" stroke-width="0" stroke-linecap="butt"/><path d="M273.13301,106.90498c11.6587,-10.27804 27.4066,-16.50006 44.67489,-16.30797c18.75416,0.20861 35.54717,7.94087 47.15644,20.10364c0.10996,0.1152 -92.10608,-3.55345 -91.83133,-3.79566z" fill="#424242" stroke="#000000" stroke-width="0" stroke-linecap="butt"/><path d="M273.01158,107.82589c0.01075,-0.96644 0.80292,-1.74118 1.76936,-1.73042c0.96644,0.01075 1.74118,0.80292 1.73042,1.76936c-0.01075,0.96644 -0.80292,1.74118 -1.76936,1.73042c-0.96644,-0.01075 -1.74118,-0.80292 -1.73042,-1.76936z" fill="#424242" stroke="none" stroke-width="0.5" stroke-linecap="butt"/><path d="M277.84832,107.54634c0.01075,-0.96644 0.80292,-1.74118 1.76936,-1.73042c0.96644,0.01075 1.74118,0.80292 1.73042,1.76936c-0.01075,0.96644 -0.80292,1.74118 -1.76936,1.73042c-0.96644,-0.01075 -1.74118,-0.80292 -1.73042,-1.76936z" fill="#424242" stroke="none" stroke-width="0.5" stroke-linecap="butt"/><path d="M283.34984,107.44086c0.01075,-0.96644 0.80292,-1.74118 1.76936,-1.73042c0.96644,0.01075 1.74118,0.80292 1.73042,1.76936c-0.01075,0.96644 -0.80292,1.74118 -1.76936,1.73042c-0.96644,-0.01075 -1.74118,-0.80292 -1.73042,-1.76936z" fill="#424242" stroke="none" stroke-width="0.5" stroke-linecap="butt"/><path d="M300.79416,105.05141c0.96644,0.01075 1.74118,0.80292 1.73042,1.76936c-0.01075,0.96644 -0.80292,1.74118 -1.76936,1.73042c-0.09373,-0.00104 -0.18564,-0.00942 -0.2752,-0.02461c-0.3244,0.41477 -0.83158,0.67903 -1.39877,0.67271c-0.48964,-0.00545 -0.93007,-0.21148 -1.24408,-0.53913c-0.32122,0.32059 -0.76612,0.51677 -1.25576,0.51132c-0.96644,-0.01075 -1.74118,-0.80292 -1.73042,-1.76936c0.01075,-0.96644 0.80292,-1.74118 1.76936,-1.73042c0.48964,0.00545 0.93007,0.21148 1.24408,0.53913c0.32122,-0.32059 0.76612,-0.51677 1.25576,-0.51132c0.09373,0.00104 0.18563,0.00943 0.2752,0.02461c0.3244,-0.41477 0.83159,-0.67903 1.39878,-0.67271z" fill="#424242" stroke="none" stroke-width="0.5" stroke-linecap="butt"/><path d="M316.9716,108.97076c-0.34161,1.71634 -2.05795,1.37471 -2.05795,1.37471l-2.66095,-0.52963c0,0 -0.24957,-0.04967 -0.53943,-0.2063c-0.14977,0.03978 -0.30732,0.06018 -0.46982,0.05837c-0.96644,-0.01075 -1.74118,-0.80292 -1.73042,-1.76936c0.01075,-0.96644 0.80292,-1.74118 1.76936,-1.73042c0.31165,0.00347 0.60335,0.08818 0.85521,0.23381c0.42963,-0.09214 0.79834,-0.01876 0.79834,-0.01876l2.66094,0.52963c0,0 1.71634,0.34162 1.37472,2.05796z" fill="#424242" stroke="none" stroke-width="0.5" stroke-linecap="butt"/><path d="M321.60395,107.28301c0.96644,0.01075 1.74118,0.80292 1.73042,1.76936c-0.01075,0.96644 -0.80292,1.74118 -1.76936,1.73042c-0.54314,-0.00605 -1.02575,-0.2589 -1.34239,-0.65079c-0.28246,0.18778 -0.62235,0.29559 -0.98708,0.29154c-0.96644,-0.01075 -1.74118,-0.80292 -1.73042,-1.76936c0.01075,-0.96644 0.80292,-1.74118 1.76936,-1.73042c0.54314,0.00605 1.02575,0.2589 1.34239,0.65079c0.28246,-0.18778 0.62235,-0.29559 0.98708,-0.29154z" fill="#424242" stroke="none" stroke-width="0.5" stroke-linecap="butt"/><path d="M343.83497,109.11373c0.01075,-0.96644 0.80292,-1.74118 1.76936,-1.73042c0.96644,0.01075 1.74118,0.80292 1.73042,1.76936c-0.01075,0.96644 -0.80292,1.74118 -1.76936,1.73042c-0.96644,-0.01075 -1.74118,-0.80292 -1.73042,-1.76936z" fill="#424242" stroke="none" stroke-width="0.5" stroke-linecap="butt"/><path d="M354.42414,108.64816c0.96644,0.01075 1.74118,0.80292 1.73042,1.76936c-0.01075,0.96644 -0.80292,1.74118 -1.76936,1.73042c-0.54314,-0.00605 -1.02575,-0.2589 -1.34239,-0.65079c-0.28246,0.18778 -0.62235,0.29559 -0.98708,0.29154c-0.96644,-0.01075 -1.74118,-0.80292 -1.73042,-1.76936c0.01075,-0.96644 0.80292,-1.74118 1.76936,-1.73042c0.54314,0.00605 1.02575,0.2589 1.34239,0.65079c0.28246,-0.18778 0.62235,-0.29559 0.98708,-0.29154z" fill="#424242" stroke="none" stroke-width="0.5" stroke-linecap="butt"/><path d="M360.91817,109.22042c0.96644,0.01075 1.74118,0.80292 1.73042,1.76936c-0.01075,0.96644 -0.80292,1.74118 -1.76936,1.73042c-0.51086,-0.00569 -0.96815,-0.22971 -1.28418,-0.5824c-0.2593,0.14642 -0.55945,0.22854 -0.87864,0.22499c-0.96644,-0.01075 -1.74118,-0.80292 -1.73042,-1.76936c0.01075,-0.96644 0.80292,-1.74118 1.76936,-1.73042c0.51086,0.00569 0.96815,0.22971 1.28418,0.5824c0.2593,-0.14642 0.55946,-0.22854 0.87865,-0.22499z" fill="#424242" stroke="none" stroke-width="0.5" stroke-linecap="butt"/><path d="M303.17639,108.16143c0.01075,-0.96644 0.80292,-1.74118 1.76936,-1.73042c0.96644,0.01075 1.74118,0.80292 1.73042,1.76936c-0.01075,0.96644 -0.80292,1.74118 -1.76936,1.73042c-0.96644,-0.01075 -1.74118,-0.80292 -1.73042,-1.76936z" fill="#424242" stroke="none" stroke-width="0.5" stroke-linecap="butt"/><path d="M287.84585,107.82422c0.01075,-0.96644 0.80292,-1.74118 1.76936,-1.73042c0.71084,0.00791 1.31798,0.43856 1.58511,1.05035c0.11662,-0.8627 0.86072,-1.52318 1.75358,-1.51324c0.96644,0.01075 1.74118,0.80292 1.73042,1.76936c-0.01075,0.96644 -0.80292,1.74118 -1.76936,1.73042c-0.71084,-0.00791 -1.31797,-0.43857 -1.58511,-1.05036c-0.11662,0.8627 -0.86072,1.52319 -1.75358,1.51325c-0.96644,-0.01075 -1.74118,-0.80292 -1.73042,-1.76936z" fill="#424242" stroke="none" stroke-width="0.5" stroke-linecap="butt"/><path d="M371.62478,120.67355c0.96644,0.01075 1.74118,0.80292 1.73042,1.76936c-0.01075,0.96644 -0.80292,1.74118 -1.76936,1.73042c-0.61796,-0.00687 -1.15754,-0.33323 -1.46351,-0.82036c-0.31592,0.28851 -0.73772,0.46252 -1.19928,0.45739c-0.96644,-0.01075 -1.74118,-0.80292 -1.73042,-1.76936c0.01075,-0.96644 0.80292,-1.74118 1.76936,-1.73042c0.61796,0.00687 1.15754,0.33323 1.46351,0.82036c0.31592,-0.2885 0.73772,-0.46252 1.19928,-0.45739z" fill="#7e7e7e" stroke="none" stroke-width="0.5" stroke-linecap="butt"/><path d="M360.20233,121.12986c0.01075,-0.96644 0.80292,-1.74118 1.76936,-1.73042c0.96644,0.01075 1.74118,0.80292 1.73042,1.76936c-0.01075,0.96644 -0.80292,1.74118 -1.76936,1.73042c-0.96644,-0.01075 -1.74118,-0.80292 -1.73042,-1.76936z" fill="#7e7e7e" stroke="none" stroke-width="0.5" stroke-linecap="butt"/><path d="M355.19708,121.57422c0.01075,-0.96644 0.80292,-1.74118 1.76936,-1.73042c0.96644,0.01075 1.74118,0.80292 1.73042,1.76936c-0.01075,0.96644 -0.80292,1.74118 -1.76936,1.73042c-0.96644,-0.01075 -1.74118,-0.80292 -1.73042,-1.76936z" fill="#7e7e7e" stroke="none" stroke-width="0.5" stroke-linecap="butt"/><path d="M345.69396,121.80187c0.01075,-0.96644 0.80292,-1.74118 1.76936,-1.73042c0.4304,0.00479 0.82278,0.16455 1.1247,0.42569c0.30282,-0.5407 0.88404,-0.90337 1.54737,-0.89599c0.96644,0.01075 1.74118,0.80292 1.73042,1.76936c-0.01075,0.96644 -0.80292,1.74118 -1.76936,1.73042c-0.4304,-0.00479 -0.82278,-0.16455 -1.12469,-0.42567c-0.30282,0.5407 -0.88404,0.90336 -1.54737,0.89598c-0.96644,-0.01075 -1.74118,-0.80292 -1.73042,-1.76936z" fill="#7e7e7e" stroke="none" stroke-width="0.5" stroke-linecap="butt"/><path d="M332.86884,120.99249c0.01075,-0.96644 0.80292,-1.74118 1.76936,-1.73042c0.43211,0.00481 0.82589,0.16582 1.12827,0.42879c0.16884,-0.05194 0.34848,-0.079 0.53459,-0.07693c0.96644,0.01075 1.74118,0.80292 1.73042,1.76936c-0.01075,0.96644 -0.80292,1.74118 -1.76936,1.73042c-0.43211,-0.00481 -0.82588,-0.16583 -1.12827,-0.42879c-0.16884,0.05194 -0.34849,0.079 -0.53459,0.07694c-0.96644,-0.01075 -1.74118,-0.80292 -1.73042,-1.76936z" fill="#7e7e7e" stroke="none" stroke-width="0.5" stroke-linecap="butt"/><path d="M321.87136,120.70349c0.01075,-0.96644 0.80292,-1.74118 1.76936,-1.73042c0.75146,0.00835 1.38701,0.48915 1.62752,1.15695c0.20505,-0.74897 0.89461,-1.29558 1.70745,-1.28654c0.96644,0.01075 1.74118,0.80292 1.73042,1.76936c-0.01075,0.96644 -0.80292,1.74118 -1.76936,1.73042c-0.75146,-0.00835 -1.38701,-0.48915 -1.62753,-1.15695c-0.20505,0.74897 -0.89461,1.29558 -1.70745,1.28654c-0.96644,-0.01075 -1.74118,-0.80292 -1.73042,-1.76936z" fill="#7e7e7e" stroke="none" stroke-width="0.5" stroke-linecap="butt"/><path d="M316.04026,120.47194c0.01075,-0.96644 0.80292,-1.74118 1.76936,-1.73042c0.96644,0.01075 1.74118,0.80292 1.73042,1.76936c-0.01075,0.96644 -0.80292,1.74118 -1.76936,1.73042c-0.96644,-0.01075 -1.74118,-0.80292 -1.73042,-1.76936z" fill="#7e7e7e" stroke="none" stroke-width="0.5" stroke-linecap="butt"/><path d="M306.87415,120.36999c0.01075,-0.96644 0.80292,-1.74118 1.76936,-1.73042c0.96644,0.01075 1.74118,0.80292 1.73042,1.76936c-0.01075,0.96644 -0.80292,1.74118 -1.76936,1.73042c-0.96644,-0.01075 -1.74118,-0.80292 -1.73042,-1.76936z" fill="#7e7e7e" stroke="none" stroke-width="0.5" stroke-linecap="butt"/><path d="M301.70594,120.47918c0.01075,-0.96644 0.80292,-1.74118 1.76936,-1.73042c0.96644,0.01075 1.74118,0.80292 1.73042,1.76936c-0.01075,0.96644 -0.80292,1.74118 -1.76936,1.73042c-0.96644,-0.01075 -1.74118,-0.80292 -1.73042,-1.76936z" fill="#7e7e7e" stroke="none" stroke-width="0.5" stroke-linecap="butt"/><path d="M296.8692,120.75873c0.01075,-0.96644 0.80292,-1.74118 1.76936,-1.73042c0.96644,0.01075 1.74118,0.80292 1.73042,1.76936c-0.01075,0.96644 -0.80292,1.74118 -1.76936,1.73042c-0.96644,-0.01075 -1.74118,-0.80292 -1.73042,-1.76936z" fill="#7e7e7e" stroke="none" stroke-width="0.5" stroke-linecap="butt"/><path d="M289.20857,120.17347c0.01075,-0.96644 0.80292,-1.74118 1.76936,-1.73042c0.96644,0.01075 1.74118,0.80292 1.73042,1.76936c-0.01075,0.96644 -0.80292,1.74118 -1.76936,1.73042c-0.96644,-0.01075 -1.74118,-0.80292 -1.73042,-1.76936z" fill="#7e7e7e" stroke="none" stroke-width="0.5" stroke-linecap="butt"/><path d="M284.55147,119.28829c0.01075,-0.96644 0.80292,-1.74118 1.76936,-1.73042c0.96644,0.01075 1.74118,0.80292 1.73042,1.76936c-0.01075,0.96644 -0.80292,1.74118 -1.76936,1.73042c-0.96644,-0.01075 -1.74118,-0.80292 -1.73042,-1.76936z" fill="#7e7e7e" stroke="none" stroke-width="0.5" stroke-linecap="butt"/><path d="M277.89448,118.38085c0.01075,-0.96644 0.80292,-1.74118 1.76936,-1.73042c0.96644,0.01075 1.74118,0.80292 1.73042,1.76936c-0.01075,0.96644 -0.80292,1.74118 -1.76936,1.73042c-0.96644,-0.01075 -1.74118,-0.80292 -1.73042,-1.76936z" fill="#7e7e7e" stroke="none" stroke-width="0.5" stroke-linecap="butt"/><path d="M273.05404,118.99372c0.01075,-0.96644 0.80292,-1.74118 1.76936,-1.73042c0.96644,0.01075 1.74118,0.80292 1.73042,1.76936c-0.01075,0.96644 -0.80292,1.74118 -1.76936,1.73042c-0.96644,-0.01075 -1.74118,-0.80292 -1.73042,-1.76936z" fill="#7e7e7e" stroke="none" stroke-width="0.5" stroke-linecap="butt"/><path d="M267.65531,117.35024c0.77184,0.00858 1.42139,0.51556 1.64621,1.21166c0.31037,-0.51135 0.87507,-0.85026 1.51656,-0.84314c0.96644,0.01075 1.74118,0.80292 1.73042,1.76936c-0.01075,0.96644 -0.80292,1.74118 -1.76936,1.73042c-0.77184,-0.00858 -1.42139,-0.51556 -1.64621,-1.21166c-0.02853,0.04702 -0.05923,0.09259 -0.09194,0.13656c-0.32294,0.43419 -0.84212,0.71306 -1.42462,0.70659c-0.57357,-0.00638 -1.07962,-0.288 -1.39403,-0.71795c-0.28003,0.60735 -0.89747,1.02581 -1.60949,1.01789c-0.96644,-0.01075 -1.74118,-0.80292 -1.73042,-1.76936c0.01075,-0.96644 0.80292,-1.74118 1.76936,-1.73042c0.57357,0.00638 1.07962,0.288 1.39403,0.71795c0.28003,-0.60735 0.89747,-1.02581 1.60949,-1.01789z" fill="#7e7e7e" stroke="none" stroke-width="0.5" stroke-linecap="butt"/><path d="M265.01272,130.15496c0.96644,0.01075 1.74118,0.80292 1.73042,1.76936c-0.01075,0.96644 -0.80292,1.74118 -1.76936,1.73042c-0.58248,-0.00648 -1.09535,-0.29683 -1.40854,-0.7381c-0.32294,0.4342 -0.84212,0.71306 -1.42462,0.70659c-0.7798,-0.00867 -1.4348,-0.52609 -1.65305,-1.23332c-0.23394,0.7022 -0.90027,1.20492 -1.68008,1.19625c-0.96644,-0.01075 -1.74118,-0.80292 -1.73042,-1.76936c0.01075,-0.96644 0.80292,-1.74118 1.76936,-1.73042c0.7798,0.00867 1.4348,0.5261 1.65305,1.23333c0.23394,-0.7022 0.90027,-1.20493 1.68008,-1.19626c0.58248,0.00648 1.09535,0.29683 1.40854,0.7381c0.32294,-0.4342 0.84212,-0.71306 1.42462,-0.70659z" fill="#c5c5c5" stroke="none" stroke-width="0.5" stroke-linecap="butt"/><path d="M270.34758,130.04763c0.96644,0.01075 1.74118,0.80292 1.73042,1.76936c-0.01043,0.93834 -0.75752,1.69597 -1.68552,1.72939c-0.22863,0.10559 -0.48375,0.16326 -0.75231,0.16027c-0.96644,-0.01075 -1.74118,-0.80292 -1.73042,-1.76936c0.01043,-0.93834 0.75752,-1.69596 1.68552,-1.72938c0.22863,-0.10559 0.48375,-0.16327 0.75232,-0.16028z" fill="#c5c5c5" stroke="none" stroke-width="0.5" stroke-linecap="butt"/><path d="M305.57593,132.18961c0.01075,-0.96644 0.80292,-1.74118 1.76936,-1.73042c0.96644,0.01075 1.74118,0.80292 1.73042,1.76936c-0.01075,0.96644 -0.80292,1.74118 -1.76936,1.73042c-0.96644,-0.01075 -1.74118,-0.80292 -1.73042,-1.76936z" fill="#c5c5c5" stroke="none" stroke-width="0.5" stroke-linecap="butt"/><path d="M316.51139,130.56114c0.96644,0.01075 1.74118,0.80292 1.73042,1.76936c-0.01075,0.96644 -0.80292,1.74118 -1.76936,1.73042c-0.02794,-0.00031 -0.05571,-0.00127 -0.08331,-0.00288c-0.02763,0.00098 -0.05542,0.00133 -0.08335,0.00102c-0.96644,-0.01075 -1.74118,-0.80292 -1.73042,-1.76936c0.01075,-0.96644 0.80292,-1.74118 1.76936,-1.73042c0.02794,0.00031 0.05571,0.00127 0.08331,0.00288c0.02763,-0.00098 0.05542,-0.00133 0.08335,-0.00102z" fill="#c5c5c5" stroke="none" stroke-width="0.5" stroke-linecap="butt"/><path d="M322.23415,133.04162c0.01075,-0.96644 0.80292,-1.74118 1.76936,-1.73042c0.96644,0.01075 1.74118,0.80292 1.73042,1.76936c-0.01075,0.96644 -0.80292,1.74118 -1.76936,1.73042c-0.96644,-0.01075 -1.74118,-0.80292 -1.73042,-1.76936z" fill="#c5c5c5" stroke="none" stroke-width="0.5" stroke-linecap="butt"/><path d="M360.3966,133.63281c0.01075,-0.96644 0.80292,-1.74118 1.76936,-1.73042c0.96644,0.01075 1.74118,0.80292 1.73042,1.76936c-0.01075,0.96644 -0.80292,1.74118 -1.76936,1.73042c-0.96644,-0.01075 -1.74118,-0.80292 -1.73042,-1.76936z" fill="#c5c5c5" stroke="none" stroke-width="0.5" stroke-linecap="butt"/><path d="M368.45997,135.4726c-0.96644,-0.01075 -1.74118,-0.80292 -1.73042,-1.76936c0.01075,-0.96644 0.80292,-1.74118 1.76936,-1.73042c0.44817,0.00499 0.85514,0.17802 1.16164,0.45855c0.31267,-0.27364 0.72337,-0.43759 1.17155,-0.43261c0.96644,0.01075 1.74118,0.80292 1.73042,1.76936c-0.01075,0.96644 -0.80292,1.74118 -1.76936,1.73042c-0.44817,-0.00499 -0.85514,-0.17802 -1.16164,-0.45855c-0.31267,0.27364 -0.72337,0.43759 -1.17155,0.43261z" fill="#c5c5c5" stroke="none" stroke-width="0.5" stroke-linecap="butt"/><path d="M372.72732,133.93664c0.01075,-0.96644 0.80292,-1.74118 1.76936,-1.73042c0.96644,0.01075 1.74118,0.80292 1.73042,1.76936c-0.01075,0.96644 -0.80292,1.74118 -1.76936,1.73042c-0.96644,-0.01075 -1.74118,-0.80292 -1.73042,-1.76936z" fill="#c5c5c5" stroke="none" stroke-width="0.5" stroke-linecap="butt"/><path d="M324.838,108.73575c0.01075,-0.96644 0.80292,-1.74118 1.76936,-1.73042c0.96644,0.01075 1.74118,0.80292 1.73042,1.76936c-0.01075,0.96644 -0.80292,1.74118 -1.76936,1.73042c-0.96644,-0.01075 -1.74118,-0.80292 -1.73042,-1.76936z" fill="#424242" stroke="none" stroke-width="0.5" stroke-linecap="butt"/><path d="M331.65979,109.81169c0.01075,-0.96644 0.80292,-1.74118 1.76936,-1.73042c0.96644,0.01075 1.74118,0.80292 1.73042,1.76936c-0.01075,0.96644 -0.80292,1.74118 -1.76936,1.73042c-0.96644,-0.01075 -1.74118,-0.80292 -1.73042,-1.76936z" fill="#424242" stroke="none" stroke-width="0.5" stroke-linecap="butt"/><path d="M341.09534,108.16654c0.96644,0.01075 1.74118,0.80292 1.73042,1.76936c-0.01075,0.96644 -0.80292,1.74118 -1.76936,1.73042c-0.48964,-0.00545 -0.93007,-0.21148 -1.24408,-0.53913c-0.32122,0.32059 -0.76612,0.51677 -1.25576,0.51132c-0.96644,-0.01075 -1.74118,-0.80292 -1.73042,-1.76936c0.01075,-0.96644 0.80292,-1.74118 1.76936,-1.73042c0.48964,0.00545 0.93007,0.21148 1.24408,0.53913c0.32122,-0.32059 0.76612,-0.51677 1.25576,-0.51132z" fill="#424242" stroke="none" stroke-width="0.5" stroke-linecap="butt"/><path d="M279.16489,109.06108c0.00768,-0.69031 0.57351,-1.2437 1.26383,-1.23602c0.69032,0.00768 1.2437,0.57352 1.23602,1.26383c-0.00768,0.69031 -0.57351,1.2437 -1.26383,1.23602c-0.69032,-0.00768 -1.2437,-0.57352 -1.23602,-1.26383z" fill="#424242" stroke="none" stroke-width="0.5" stroke-linecap="butt"/><path d="M285.14598,110.79438c0.00768,-0.69031 0.57351,-1.2437 1.26383,-1.23602c0.69032,0.00768 1.2437,0.57352 1.23602,1.26383c-0.00768,0.69031 -0.57351,1.2437 -1.26383,1.23602c-0.69032,-0.00768 -1.2437,-0.57352 -1.23602,-1.26383z" fill="#424242" stroke="none" stroke-width="0.5" stroke-linecap="butt"/><path d="M292.12887,112.37215c0.00768,-0.69031 0.57351,-1.2437 1.26383,-1.23602c0.69032,0.00768 1.2437,0.57352 1.23602,1.26383c-0.00768,0.69031 -0.57351,1.2437 -1.26383,1.23602c-0.69032,-0.00768 -1.2437,-0.57352 -1.23602,-1.26383z" fill="#424242" stroke="none" stroke-width="0.5" stroke-linecap="butt"/><path d="M298.45254,113.27587c0.00768,-0.69031 0.57351,-1.2437 1.26383,-1.23602c0.69032,0.00768 1.2437,0.57352 1.23602,1.26383c-0.00768,0.69031 -0.57351,1.2437 -1.26383,1.23602c-0.69032,-0.00768 -1.2437,-0.57352 -1.23602,-1.26383z" fill="#424242" stroke="none" stroke-width="0.5" stroke-linecap="butt"/><path d="M303.79296,112.66857c0.00768,-0.69031 0.57351,-1.2437 1.26383,-1.23602c0.69032,0.00768 1.2437,0.57352 1.23602,1.26383c-0.00768,0.69031 -0.57351,1.2437 -1.26383,1.23602c-0.69032,-0.00768 -1.2437,-0.57352 -1.23602,-1.26383z" fill="#424242" stroke="none" stroke-width="0.5" stroke-linecap="butt"/><path d="M309.46669,112.06497c0.00768,-0.69031 0.57351,-1.2437 1.26383,-1.23602c0.69032,0.00768 1.2437,0.57352 1.23602,1.26383c-0.00768,0.69031 -0.57351,1.2437 -1.26383,1.23602c-0.69032,-0.00768 -1.2437,-0.57352 -1.23602,-1.26383z" fill="#424242" stroke="none" stroke-width="0.5" stroke-linecap="butt"/><path d="M318.65875,109.83374c0.00768,-0.69031 0.57351,-1.2437 1.26383,-1.23602c0.69032,0.00768 1.2437,0.57352 1.23602,1.26383c-0.00768,0.69031 -0.57351,1.2437 -1.26383,1.23602c-0.69032,-0.00768 -1.2437,-0.57352 -1.23602,-1.26383z" fill="#424242" stroke="none" stroke-width="0.5" stroke-linecap="butt"/><path d="M323.82694,109.72456c0.00768,-0.69031 0.57351,-1.2437 1.26383,-1.23602c0.69032,0.00768 1.2437,0.57352 1.23602,1.26383c-0.00768,0.69031 -0.57351,1.2437 -1.26383,1.23602c-0.69032,-0.00768 -1.2437,-0.57352 -1.23602,-1.26383z" fill="#424242" stroke="none" stroke-width="0.5" stroke-linecap="butt"/><path d="M329.32103,110.28571c0.00768,-0.69031 0.57351,-1.2437 1.26383,-1.23602c0.69032,0.00768 1.2437,0.57352 1.23602,1.26383c-0.00768,0.69031 -0.57351,1.2437 -1.26383,1.23602c-0.69032,-0.00768 -1.2437,-0.57352 -1.23602,-1.26383z" fill="#424242" stroke="none" stroke-width="0.5" stroke-linecap="butt"/><path d="M333.46891,111.99861c0.00768,-0.69031 0.57351,-1.2437 1.26383,-1.23602c0.69032,0.00768 1.2437,0.57352 1.23602,1.26383c-0.00768,0.69031 -0.57351,1.2437 -1.26383,1.23602c-0.69032,-0.00768 -1.2437,-0.57352 -1.23602,-1.26383z" fill="#424242" stroke="none" stroke-width="0.5" stroke-linecap="butt"/><path d="M336.44648,114.03185c0.00768,-0.69031 0.57351,-1.2437 1.26383,-1.23602c0.69032,0.00768 1.2437,0.57352 1.23602,1.26383c-0.00768,0.69031 -0.57351,1.2437 -1.26383,1.23602c-0.69032,-0.00768 -1.2437,-0.57352 -1.23602,-1.26383z" fill="#424242" stroke="none" stroke-width="0.5" stroke-linecap="butt"/><path d="M342.41644,116.7651c0.00768,-0.69031 0.57351,-1.2437 1.26383,-1.23602c0.69032,0.00768 1.2437,0.57352 1.23602,1.26383c-0.00768,0.69031 -0.57351,1.2437 -1.26383,1.23602c-0.69032,-0.00768 -1.2437,-0.57352 -1.23602,-1.26383z" fill="#424242" stroke="none" stroke-width="0.5" stroke-linecap="butt"/><path d="M349.4123,117.17627c0.00768,-0.69031 0.57351,-1.2437 1.26383,-1.23602c0.69032,0.00768 1.2437,0.57352 1.23602,1.26383c-0.00768,0.69031 -0.57351,1.2437 -1.26383,1.23602c-0.69032,-0.00768 -1.2437,-0.57352 -1.23602,-1.26383z" fill="#424242" stroke="none" stroke-width="0.5" stroke-linecap="butt"/><path d="M336.45742,128.03284c0.00768,-0.69031 0.57351,-1.2437 1.26383,-1.23602c0.69032,0.00768 1.2437,0.57352 1.23602,1.26383c-0.00768,0.69031 -0.57351,1.2437 -1.26383,1.23602c-0.69032,-0.00768 -1.2437,-0.57352 -1.23602,-1.26383z" fill="#7e7e7e" stroke="none" stroke-width="0.5" stroke-linecap="butt"/><path d="M357.73957,117.76893c0.00768,-0.69031 0.57351,-1.2437 1.26383,-1.23602c0.69032,0.00768 1.2437,0.57352 1.23602,1.26383c-0.00768,0.69031 -0.57351,1.2437 -1.26383,1.23602c-0.69032,-0.00768 -1.2437,-0.57352 -1.23602,-1.26383z" fill="#424242" stroke="none" stroke-width="0.5" stroke-linecap="butt"/><path d="M360.93198,115.47096c0.00768,-0.69031 0.57351,-1.2437 1.26383,-1.23602c0.69032,0.00768 1.2437,0.57352 1.23602,1.26383c-0.00768,0.69031 -0.57351,1.2437 -1.26383,1.23602c-0.69032,-0.00768 -1.2437,-0.57352 -1.23602,-1.26383z" fill="#424242" stroke="none" stroke-width="0.5" stroke-linecap="butt"/><path d="M361.80976,111.48048c0.00768,-0.69031 0.57351,-1.2437 1.26383,-1.23602c0.69032,0.00768 1.2437,0.57352 1.23602,1.26383c-0.00768,0.69031 -0.57351,1.2437 -1.26383,1.23602c-0.69032,-0.00768 -1.2437,-0.57352 -1.23602,-1.26383z" fill="#424242" stroke="none" stroke-width="0.5" stroke-linecap="butt"/><path d="M267.01918,122.09345c0.00768,-0.69031 0.57351,-1.2437 1.26383,-1.23602c0.69032,0.00768 1.2437,0.57352 1.23602,1.26383c-0.00768,0.69031 -0.57351,1.2437 -1.26383,1.23602c-0.69032,-0.00768 -1.2437,-0.57352 -1.23602,-1.26383z" fill="#7e7e7e" stroke="none" stroke-width="0.5" stroke-linecap="butt"/><path d="M271.817,125.31368c0.00768,-0.69031 0.57351,-1.2437 1.26383,-1.23602c0.69032,0.00768 1.2437,0.57352 1.23602,1.26383c-0.00768,0.69031 -0.57351,1.2437 -1.26383,1.23602c-0.69032,-0.00768 -1.2437,-0.57352 -1.23602,-1.26383z" fill="#7e7e7e" stroke="none" stroke-width="0.5" stroke-linecap="butt"/><path d="M277.13331,126.87291c0.00768,-0.69031 0.57351,-1.2437 1.26383,-1.23602c0.69032,0.00768 1.2437,0.57352 1.23602,1.26383c-0.00768,0.69031 -0.57351,1.2437 -1.26383,1.23602c-0.69032,-0.00768 -1.2437,-0.57352 -1.23602,-1.26383z" fill="#7e7e7e" stroke="none" stroke-width="0.5" stroke-linecap="butt"/><path d="M284.48288,125.45457c0.00768,-0.69031 0.57351,-1.2437 1.26383,-1.23602c0.69032,0.00768 1.2437,0.57352 1.23602,1.26383c-0.00768,0.69031 -0.57351,1.2437 -1.26383,1.23602c-0.69032,-0.00768 -1.2437,-0.57352 -1.23602,-1.26383z" fill="#7e7e7e" stroke="none" stroke-width="0.5" stroke-linecap="butt"/><path d="M290.99731,124.19363c0.00768,-0.69031 0.57351,-1.2437 1.26383,-1.23602c0.69032,0.00768 1.2437,0.57352 1.23602,1.26383c-0.00768,0.69031 -0.57351,1.2437 -1.26383,1.23602c-0.69032,-0.00768 -1.2437,-0.57352 -1.23602,-1.26383z" fill="#7e7e7e" stroke="none" stroke-width="0.5" stroke-linecap="butt"/><path d="M295.01745,122.40489c0.00768,-0.69031 0.57351,-1.2437 1.26383,-1.23602c0.69032,0.00768 1.2437,0.57352 1.23602,1.26383c-0.00768,0.69031 -0.57351,1.2437 -1.26383,1.23602c-0.69032,-0.00768 -1.2437,-0.57352 -1.23602,-1.26383z" fill="#7e7e7e" stroke="none" stroke-width="0.5" stroke-linecap="butt"/><path d="M304.68908,122.01245c0.00768,-0.69031 0.57351,-1.2437 1.26383,-1.23602c0.69032,0.00768 1.2437,0.57352 1.23602,1.26383c-0.00768,0.69031 -0.57351,1.2437 -1.26383,1.23602c-0.69032,-0.00768 -1.2437,-0.57352 -1.23602,-1.26383z" fill="#7e7e7e" stroke="none" stroke-width="0.5" stroke-linecap="butt"/><path d="M313.6811,122.77917c0.00768,-0.69031 0.57351,-1.2437 1.26383,-1.23602c0.69032,0.00768 1.2437,0.57352 1.23602,1.26383c-0.00768,0.69031 -0.57351,1.2437 -1.26383,1.23602c-0.69032,-0.00768 -1.2437,-0.57352 -1.23602,-1.26383z" fill="#7e7e7e" stroke="none" stroke-width="0.5" stroke-linecap="butt"/><path d="M321.63797,126.70126c0.00768,-0.69031 0.57351,-1.2437 1.26383,-1.23602c0.69032,0.00768 1.2437,0.57352 1.23602,1.26383c-0.00768,0.69031 -0.57351,1.2437 -1.26383,1.23602c-0.69032,-0.00768 -1.2437,-0.57352 -1.23602,-1.26383z" fill="#7e7e7e" stroke="none" stroke-width="0.5" stroke-linecap="butt"/><path d="M328.95788,127.94942c0.00768,-0.69031 0.57351,-1.2437 1.26383,-1.23602c0.69032,0.00768 1.2437,0.57352 1.23602,1.26383c-0.00768,0.69031 -0.57351,1.2437 -1.26383,1.23602c-0.69032,-0.00768 -1.2437,-0.57352 -1.23602,-1.26383z" fill="#7e7e7e" stroke="none" stroke-width="0.5" stroke-linecap="butt"/><path d="M343.32369,125.10904c0.00768,-0.69031 0.57351,-1.2437 1.26383,-1.23602c0.69032,0.00768 1.2437,0.57352 1.23602,1.26383c-0.00768,0.69031 -0.57351,1.2437 -1.26383,1.23602c-0.69032,-0.00768 -1.2437,-0.57352 -1.23602,-1.26383z" fill="#7e7e7e" stroke="none" stroke-width="0.5" stroke-linecap="butt"/><path d="M349.18077,123.0074c0.00768,-0.69031 0.57351,-1.2437 1.26383,-1.23602c0.69032,0.00768 1.2437,0.57352 1.23602,1.26383c-0.00768,0.69031 -0.57351,1.2437 -1.26383,1.23602c-0.69032,-0.00768 -1.2437,-0.57352 -1.23602,-1.26383z" fill="#7e7e7e" stroke="none" stroke-width="0.5" stroke-linecap="butt"/><path d="M359.84863,122.95937c0.00768,-0.69031 0.57351,-1.2437 1.26383,-1.23602c0.69032,0.00768 1.2437,0.57352 1.23602,1.26383c-0.00768,0.69031 -0.57351,1.2437 -1.26383,1.23602c-0.69032,-0.00768 -1.2437,-0.57352 -1.23602,-1.26383z" fill="#7e7e7e" stroke="none" stroke-width="0.5" stroke-linecap="butt"/><path d="M365.96486,127.52769c0.00768,-0.69031 0.57351,-1.2437 1.26383,-1.23602c0.69032,0.00768 1.2437,0.57352 1.23602,1.26383c-0.00768,0.69031 -0.57351,1.2437 -1.26383,1.23602c-0.69032,-0.00768 -1.2437,-0.57352 -1.23602,-1.26383z" fill="#7e7e7e" stroke="none" stroke-width="0.5" stroke-linecap="butt"/><path d="M369.27759,129.39798c0.00768,-0.69031 0.57351,-1.2437 1.26383,-1.23602c0.69032,0.00768 1.2437,0.57352 1.23602,1.26383c-0.00768,0.69031 -0.57351,1.2437 -1.26383,1.23602c-0.69032,-0.00768 -1.2437,-0.57352 -1.23602,-1.26383z" fill="#7e7e7e" stroke="none" stroke-width="0.5" stroke-linecap="butt"/><path d="M256.02337,136.63871c0.00768,-0.69032 0.57351,-1.2437 1.26383,-1.23602c0.69032,0.00768 1.2437,0.57351 1.23602,1.26383c-0.00768,0.69032 -0.57351,1.2437 -1.26383,1.23602c-0.69032,-0.00768 -1.2437,-0.57351 -1.23602,-1.26383z" fill="#c5c5c5" stroke="none" stroke-width="0.5" stroke-linecap="butt"/><path d="M264.69692,136.06849c0.00768,-0.69032 0.57351,-1.2437 1.26383,-1.23602c0.69032,0.00768 1.2437,0.57351 1.23602,1.26383c-0.00768,0.69032 -0.57351,1.2437 -1.26383,1.23602c-0.69032,-0.00768 -1.2437,-0.57351 -1.23602,-1.26383z" fill="#c5c5c5" stroke="none" stroke-width="0.5" stroke-linecap="butt"/><path d="M309.55529,134.06732c0.00768,-0.69032 0.57351,-1.2437 1.26383,-1.23602c0.69032,0.00768 1.2437,0.57351 1.23602,1.26383c-0.00768,0.69032 -0.57351,1.2437 -1.26383,1.23602c-0.69032,-0.00768 -1.2437,-0.57351 -1.23602,-1.26383z" fill="#c5c5c5" stroke="none" stroke-width="0.5" stroke-linecap="butt"/><path d="M315.029,136.46169c0.00768,-0.69032 0.57351,-1.2437 1.26383,-1.23602c0.69032,0.00768 1.2437,0.57351 1.23602,1.26383c-0.00768,0.69032 -0.57351,1.2437 -1.26383,1.23602c-0.69032,-0.00768 -1.2437,-0.57351 -1.23602,-1.26383z" fill="#c5c5c5" stroke="none" stroke-width="0.5" stroke-linecap="butt"/><path d="M319.18799,137.17466c0.00768,-0.69032 0.57351,-1.2437 1.26383,-1.23602c0.69032,0.00768 1.2437,0.57351 1.23602,1.26383c-0.00768,0.69032 -0.57351,1.2437 -1.26383,1.23602c-0.69032,-0.00768 -1.2437,-0.57351 -1.23602,-1.26383z" fill="#c5c5c5" stroke="none" stroke-width="0.5" stroke-linecap="butt"/><path d="M324.89881,133.23794c0.00768,-0.69032 0.57351,-1.2437 1.26383,-1.23602c0.69032,0.00768 1.2437,0.57351 1.23602,1.26383c-0.00768,0.69032 -0.57351,1.2437 -1.26383,1.23602c-0.69032,-0.00768 -1.2437,-0.57351 -1.23602,-1.26383z" fill="#c5c5c5" stroke="none" stroke-width="0.5" stroke-linecap="butt"/><path d="M364.38895,134.34391c0.00768,-0.69032 0.57351,-1.2437 1.26383,-1.23602c0.69032,0.00768 1.2437,0.57351 1.23602,1.26383c-0.00768,0.69032 -0.57351,1.2437 -1.26383,1.23602c-0.69032,-0.00768 -1.2437,-0.57351 -1.23602,-1.26383z" fill="#c5c5c5" stroke="none" stroke-width="0.5" stroke-linecap="butt"/><path d="M371.0274,136.91791c0.00768,-0.69032 0.57351,-1.2437 1.26383,-1.23602c0.69032,0.00768 1.2437,0.57351 1.23602,1.26383c-0.00768,0.69032 -0.57351,1.2437 -1.26383,1.23602c-0.69032,-0.00768 -1.2437,-0.57351 -1.23602,-1.26383z" fill="#c5c5c5" stroke="none" stroke-width="0.5" stroke-linecap="butt"/><path d="M376.05675,134.30703c0.00768,-0.69032 0.57351,-1.2437 1.26383,-1.23602c0.69032,0.00768 1.2437,0.57351 1.23602,1.26383c-0.00768,0.69032 -0.57351,1.2437 -1.26383,1.23602c-0.69032,-0.00768 -1.2437,-0.57351 -1.23602,-1.26383z" fill="#c5c5c5" stroke="none" stroke-width="0.5" stroke-linecap="butt"/></g><g fill="#da3243" stroke="none" stroke-width="0.5" stroke-linecap="butt"><path d="M270.87759,206.91527c-0.01898,-0.00926 4.94317,-4.45726 6.3294,-5.83994c1.17064,-1.16753 2.60752,-3.5241 4.29198,-4.79832c0.00633,-0.04696 0.01332,-0.0939 0.02095,-0.14082l-0.04572,-0.00143l0.01297,-0.41528c0.00386,-0.136 0.11609,-0.24432 0.25269,-0.24281c0.08815,0.00098 0.16512,0.04747 0.20888,0.11688l0.17604,0.27051c0.07777,-0.04357 0.15603,-0.08443 0.23477,-0.12239l0.00288,-0.25872c0.00154,-0.13806 0.1147,-0.24874 0.25277,-0.24721c0.09979,0.00111 0.18529,0.06054 0.22442,0.14555l0.07137,0.14679c0.01454,-0.00423 0.02909,-0.00835 0.04366,-0.01235c0.0543,-0.37744 0.10617,-0.74086 0.10907,-1.00124c0.0268,-2.40922 0.05218,-4.81846 0.08078,-7.22766c0.12485,-1.03078 0.30638,-2.05044 0.50479,-3.06611c-0.00027,-1.94095 0.38325,-3.75674 0.68894,-5.74024l0.05257,-0.34109c0.01695,-0.12293 0.1231,-0.21695 0.25043,-0.21554c0.08815,0.00098 0.16513,0.04747 0.20888,0.11688l0.27059,0.41583l-0.20446,0.13305c0.36957,1.41403 -0.25049,4.10892 -0.75456,6.25818c0.01269,0.27583 0.03411,0.5549 0.06557,0.83806c0.53152,1.63503 1.05193,3.28142 1.74973,4.85363c0.01784,0.04021 0.65785,1.42675 0.90698,1.05482c0.26386,-0.39391 -0.13475,-1.06931 -0.01419,-1.61462c-0.01609,-0.0414 -0.02737,-0.08727 -0.03354,-0.13782l-0.006,-0.00006l0.00556,-0.49997c0.00154,-0.13806 0.1147,-0.24874 0.25277,-0.24721c0.13806,0.00154 0.24874,0.1147 0.24721,0.25277l-0.00484,0.43488c0.0207,0.38352 4.74639,-1.85949 5.66403,-2.38604c0.9573,-0.54931 1.71074,-1.31027 2.37636,-2.15809c0.41823,-0.99156 0.85121,-1.86814 1.14265,-2.46048c0.15896,-0.3219 1.44182,-2.65138 1.62283,-1.17238c0.13737,1.12238 -1.11803,2.82258 -2.45521,4.18748c-0.97683,2.40011 -1.776,5.33937 -0.14006,6.18021c0.64269,0.33033 1.80101,1.29197 2.47514,1.3876c0.12448,0.01765 1.21075,-0.85352 1.39834,-0.97292c1.19203,-0.75874 2.23088,-1.82389 3.44014,-2.55366l-0.03003,-0.03585l0.38216,-0.32026c0.04428,-0.03757 0.10181,-0.05996 0.16443,-0.05926c0.13806,0.00154 0.24874,0.1147 0.24721,0.25277c-0.0005,0.04456 -0.01263,0.08629 -0.03348,0.1223l-0.17791,0.3218l-0.00713,-0.00394l-0.00463,0.02312c-0.87787,1.07867 -2.12244,2.21297 -2.39801,3.63417c-0.10271,0.52971 0.13535,3.6851 0.65671,3.11872c2.80357,-2.03146 4.97594,-4.77054 7.8934,-6.66899c2.20109,-1.43229 5.81752,-3.31277 8.61206,-3.59423l-0.00777,-0.01652l0.2571,-0.12087c0.03425,-0.01701 0.07295,-0.02639 0.11382,-0.02593c0.13806,0.00154 0.24874,0.1147 0.24721,0.25277c-0.00098,0.08815 -0.04747,0.16513 -0.11688,0.20888l-0.41583,0.2706c-2.3656,1.53845 -4.57278,3.30502 -6.95773,4.82787c-1.80221,1.15074 -3.76354,2.67616 -5.06712,4.39496c-0.30418,0.40107 -1.52256,2.29215 -0.72856,2.16948c1.10073,0.01224 2.81461,0.36741 3.85737,0.05316c1.70331,-0.51332 3.23962,-1.70069 4.98754,-2.12678l-0.02066,-0.05336l0.46098,-0.17847c0.03026,-0.01254 0.06351,-0.01928 0.09833,-0.0189c0.13806,0.00154 0.24874,0.1147 0.24721,0.25277c-0.00082,0.07415 -0.03387,0.14042 -0.08566,0.18564l-0.31592,0.27802c-1.21735,1.07135 -2.2561,2.26456 -3.33336,3.47592c-1.31596,1.47979 -4.06365,6.15829 -1.82743,7.32069l0.18676,0.00208c0.13806,0.00154 0.24874,0.1147 0.24721,0.25277c-0.00077,0.06904 -0.02944,0.13121 -0.07518,0.17594l-0.28887,0.28252l-0.00852,-0.00871l-0.02236,0.0344c-0.56539,0.28118 -1.0497,0.63539 -1.58106,0.98148c-2.24848,1.76023 -7.07351,-0.21606 -9.69347,-0.57284c-2.55329,-0.98027 -4.92446,-1.75415 -7.36803,-3.01656c-2.36495,-0.81389 -4.654,-1.70576 -6.72487,-3.05597c-0.00101,0 -0.00201,-0.00001 -0.00302,-0.00003c-0.14232,-0.00158 -0.20271,-0.08328 -0.22833,-0.15336c-0.01706,-0.0115 -0.0341,-0.02303 -0.05113,-0.0346c0,0 -0.14809,-0.10114 -0.10778,-0.25752c-0.01599,-0.01759 -0.03194,-0.03526 -0.04786,-0.053c-0.21122,0.13254 -12.90839,4.56444 -12.90839,4.56444z"/><path d="M323.31422,184.67494c-0.15869,0.05094 -0.31739,0.10189 -0.47607,0.15283l-0.47051,0.15104c-0.01038,0.00361 -0.02108,0.00654 -0.03203,0.00876c-0.11448,0.05554 -0.22899,0.11103 -0.34353,0.16649l-0.0185,0.00034l0.00182,0.00566l-0.47051,0.15105c-0.02652,0.0092 -0.05506,0.01407 -0.08475,0.01374c-0.13806,-0.00154 -0.24874,-0.1147 -0.24721,-0.25277c0.0011,-0.09877 0.05934,-0.18354 0.14296,-0.22321l0.30465,-0.15231l0.02253,0.04506l0.05787,-0.01858c0.22582,-0.15548 0.46459,-0.27369 0.71831,-0.37592l0.13654,-0.09397l0.02241,0.03257c0.09432,-0.03504 0.19065,-0.06854 0.28909,-0.10153c0.08052,-0.039 0.16387,-0.07102 0.24993,-0.09436l0.22531,-0.05944c0,0 0.01564,-0.00412 0.03999,-0.0063c0.04671,-0.00478 0.11648,-0.00186 0.17531,0.04199c0.03704,0.02688 0.06964,0.06944 0.08846,0.13591c0.01994,0.06615 0.01539,0.11956 -0.00135,0.16215c-0.02595,0.06864 -0.08317,0.10866 -0.12512,0.12978c-0.02081,0.01081 -0.03583,0.01581 -0.03701,0.01621c-0.03474,0.12186 -0.16858,0.16483 -0.16858,0.16483z"/><path d="M284.8529,175.85637c-0.02464,0.01486 -0.05043,0.02911 -0.07738,0.04249c0,0 -0.22483,0.10931 -0.33415,-0.11553c-0.10932,-0.22483 0.11553,-0.33415 0.11553,-0.33415c0.13385,-0.06347 0.25879,-0.12309 0.37326,-0.17383c0.00352,-0.01144 0.07636,-0.23764 0.31019,-0.16895c0.02682,0.00789 0.04978,0.01787 0.06937,0.02943c0.36784,-0.08793 0.50595,0.10422 0.29,0.9734l-0.03651,0.03301l0.01121,0.00843l-0.29886,0.39701c-0.04607,0.0627 -0.12063,0.10302 -0.20437,0.10208c-0.12686,-0.00141 -0.23062,-0.09709 -0.24541,-0.2197l-0.06754,-0.49159l0.09852,-0.01353c-0.00167,-0.02286 -0.00297,-0.04572 -0.00387,-0.06856z"/><path d="M301.16801,176.51416c0.1748,0.17873 -0.00393,0.35354 -0.00393,0.35354l-0.234,0.21091c-0.11172,0.05431 -0.22344,0.10863 -0.33516,0.16294c0,0 -0.22484,0.10931 -0.33415,-0.11553c-0.10932,-0.22483 0.11553,-0.33415 0.11553,-0.33415c0.11172,-0.05431 0.22344,-0.10863 0.33516,-0.16294l0.10302,-0.1187c0,0 0.17874,-0.17479 0.35354,0.00393z"/></g></g><g stroke="#000000"><g fill="#000000" stroke-width="0" stroke-linecap="round"><path d="M266.81773,147.74471l-3.98197,-9.8997l8.49347,4.66035z"/><path d="M268.58766,152.08855l-9.95563,-3.84001l9.2011,-3.03277z"/></g><path d="M266.52735,150.60428c0.14425,-12.96721 10.77317,-23.36227 23.74039,-23.21802c12.96721,0.14425 23.36227,10.77316 23.21802,23.74038c-0.14425,12.96721 -10.77316,23.36228 -23.74037,23.21803c-12.96721,-0.14425 -23.36228,-10.77317 -23.21803,-23.74038z" fill="#ffffff" stroke-width="0" stroke-linecap="butt"/><path d="M275.02603,151.48931c0.09231,-8.29913 6.89492,-14.95208 15.19406,-14.85976c8.29913,0.09231 14.95207,6.89493 14.85976,15.19408c-0.09231,8.29913 -6.89493,14.95208 -15.19407,14.85977c-8.29913,-0.09231 -14.95206,-6.89493 -14.85975,-15.19408z" fill="#ffffff" stroke-width="2" stroke-linecap="butt"/></g><path d="M266.52735,150.60428c0.00099,-0.08905 11.01551,9.69055 23.6489,9.85c10.68073,0.13481 23.30982,-9.35519 23.30951,-9.32765c-0.14425,12.96721 -10.77316,23.36228 -23.74037,23.21803c-12.96721,-0.14425 -23.36228,-10.77317 -23.21803,-23.74038z" fill="#efefef" stroke="#000000" stroke-width="0" stroke-linecap="butt"/><g stroke="#000000"><g fill="#000000" stroke-width="0" stroke-linecap="round"><path d="M363.12038,143.52641l8.59504,-4.47027l-4.20121,9.80867z"/><path d="M366.55532,146.31392l9.13136,3.23669l-10.03859,3.61762z"/></g><path d="M344.00048,174.9482c-12.96721,-0.14425 -23.36227,-10.77317 -23.21802,-23.74039c0.14425,-12.96721 10.77316,-23.36227 23.74038,-23.21802c12.96721,0.14425 23.36228,10.77316 23.21803,23.74037c-0.14425,12.96721 -10.77317,23.36228 -23.74038,23.21803z" fill="#ffffff" stroke-width="0" stroke-linecap="butt"/><path d="M358.98112,152.20996c-0.09232,8.29915 -6.89492,14.95209 -15.19406,14.85977c-8.29913,-0.09231 -14.95207,-6.89495 -14.85976,-15.19408c0.09232,-8.29915 6.89494,-14.95208 15.19407,-14.85977c8.29913,0.09231 14.95206,6.89494 14.85975,15.19407z" fill="#ffffff" stroke-width="2" stroke-linecap="butt"/></g><path d="M273.35821,173.3338c0,0 11.74303,12.03921 21.59015,14.49105c9.84712,2.45184 32.0147,-1.14397 32.0147,-1.14397c0,0 -21.07194,16.9248 -35.40076,13.35707c-14.32882,-3.56773 -18.20409,-26.70414 -18.20409,-26.70414z" fill="#ffffff" stroke="#000000" stroke-width="1.5" stroke-linecap="round"/></g></g></g></svg>