<svg version="1.1" xmlns="http://www.w3.org/2000/svg" xmlns:xlink="http://www.w3.org/1999/xlink" width="213.18203" height="280.18476" viewBox="0,0,213.18203,280.18476"><g transform="translate(-214.52362,-38.88751)"><g stroke-miterlimit="10"><g stroke-linecap="butt"><path d="M286.35186,319.07226l15.14285,-131.8421l37.78325,-0.15789l13.57389,132z" fill="#a93232" stroke="#000000" stroke-width="0"/><path d="M293.00635,261.13452c2.74487,-23.89841 8.48836,-73.90436 8.48836,-73.90436l37.78325,-0.15789c0,0 5.18875,49.85827 7.69612,74.24128c0.01364,0.13261 -53.98445,-0.03335 -53.96772,-0.17903z" fill="#9d2f3a" stroke="#000000" stroke-width="0"/><path d="M294.04743,252.07032c2.50278,-21.79059 7.44728,-64.84016 7.44728,-64.84016l37.78325,-0.15789c0,0 4.4242,43.02332 6.66599,64.82381c0.03141,0.30549 -51.94147,0.56558 -51.89652,0.17424z" fill="#942c3b" stroke="#000000" stroke-width="0"/><path d="M301.49471,187.23016l37.78325,-0.15789l7.53186,58.01527c0,0 -5.52306,-0.76412 -6.92133,-0.90214l0.00749,-0.04127l-0.48712,-0.0884c-0.016,-0.00322 -0.03254,-0.0049 -0.04949,-0.0049c-0.13807,0 -0.25,0.11193 -0.25,0.25c0,0.04409 0.01141,0.08552 0.03145,0.12148l0.23231,0.43736c0.123,0.23124 0.24538,0.5705 0.38232,0.90381c-0.37148,-0.33345 -0.77382,-0.64017 -1.12919,-0.99429c-0.38626,-0.38297 -2.23559,-1.95898 -2.85854,-1.56149c-1.49667,0.95499 1.14954,7.14342 -2.20456,3.67889c-0.34409,-0.39178 -1.32011,-1.90788 -1.8599,-1.93658c-0.71283,-0.03789 -2.08925,3.10834 -2.2473,3.02684c-0.63202,-0.32591 -1.62122,-2.43297 -2.09521,-3.07026c-0.20167,-0.19552 -1.03491,-1.17622 -1.31894,-1.12193c-0.29258,0.05593 -0.71091,1.29206 -0.77558,1.54857c-0.3107,1.23257 -1.43283,4.47865 -1.20436,6.0625c-1.23125,-1.34336 -2.04426,-3.20717 -3.15722,-4.70131l0.02198,-0.01167l-0.20246,-0.38135c-0.0412,-0.08148 -0.1257,-0.13736 -0.22325,-0.13736c-0.1113,0 -0.20561,0.07273 -0.238,0.17325l-0.16255,0.4667c-0.05451,0.15652 -0.10902,0.31304 -0.16353,0.46957c-0.18509,0.49576 -0.61517,2.88396 -1.12868,3.05381c-0.42363,0.14012 -1.28892,-2.21834 -1.58993,-2.3507c-0.84379,-0.37102 -1.31275,1.23764 -1.29003,2.25784c-1.94281,-2.33382 -2.99468,-4.92948 -6.16706,-6.09861c-2.49887,-0.88899 -4.81101,1.71067 -5.3339,3.92684c-0.04559,0.19324 -0.10282,0.46112 -0.14855,0.7564c-0.37996,-1.536 -0.9571,-3.47767 -1.63956,-3.56104c-0.94022,-0.11486 -1.74563,1.9818 -1.75639,3.24301c-1.17689,-1.06694 -2.9206,0.67637 -3.37136,1.68632c-0.05109,-0.36434 -1.54165,-2.501 -1.65072,-2.8319c0.21987,-1.20535 -3.61083,-1.26063 -3.61083,-1.26063z" fill="#a2f30f" stroke="#000000" stroke-width="0"/><path d="M301.49471,187.23016l37.78325,-0.15789c0,0 4.42084,34.05212 5.78825,44.5848c0.01988,0.15319 -50.50566,-0.27517 -50.46947,-0.50562c1.69416,-10.78723 6.89797,-43.9213 6.89797,-43.9213z" fill="#75f20f" stroke="#000000" stroke-width="0"/><path d="M301.49471,187.23016l37.78325,-0.15789c0,0 2.99108,23.83918 4.32515,34.1151c0.01396,0.10756 -47.56257,0.2241 -47.5334,0.03837c1.60192,-10.19991 5.425,-33.99558 5.425,-33.99558z" fill="#33965e" stroke="#000000" stroke-width="0"/><path d="M301.49471,187.23016l37.78325,-0.15789c0,0 2.54744,19.28154 3.76806,28.68356c0.01222,0.09411 -45.95233,-0.50319 -45.94397,-0.55642c1.50063,-9.55496 4.39265,-27.96925 4.39265,-27.96925z" fill="#2d7a1a" stroke="#000000" stroke-width="0"/><path d="M296.95582,214.9c0,-0.9665 0.7835,-1.75 1.75,-1.75c0.9665,0 1.75,0.7835 1.75,1.75c0,0.9665 -0.7835,1.75 -1.75,1.75c-0.9665,0 -1.75,-0.7835 -1.75,-1.75z" fill="#2d7a1a" stroke="none" stroke-width="0.5"/><path d="M304.35582,214.7c0,-0.9665 0.7835,-1.75 1.75,-1.75c0.9665,0 1.75,0.7835 1.75,1.75c0,0.9665 -0.7835,1.75 -1.75,1.75c-0.9665,0 -1.75,-0.7835 -1.75,-1.75z" fill="#2d7a1a" stroke="none" stroke-width="0.5"/><path d="M310.65582,214.9c0,-0.30962 0.11257,-0.59294 0.29901,-0.81128c0.29248,-0.55801 0.87728,-0.93872 1.55099,-0.93872c0.9665,0 1.75,0.7835 1.75,1.75c0,0.9665 -0.7835,1.75 -1.75,1.75c-0.67371,0 -1.25851,-0.3807 -1.55099,-0.93872c-0.18644,-0.21834 -0.29901,-0.50166 -0.29901,-0.81128z" fill="#2d7a1a" stroke="none" stroke-width="0.5"/><path d="M316.90582,216.75c-0.30962,0 -0.59294,-0.11257 -0.81128,-0.29901c-0.55801,-0.29248 -0.93872,-0.87728 -0.93872,-1.55099c0,-0.9665 0.7835,-1.75 1.75,-1.75c0.11289,0 0.22328,0.01069 0.33022,0.03111c0.25622,-0.14704 0.55318,-0.23111 0.86978,-0.23111c0.9665,0 1.75,0.7835 1.75,1.75c0,0.9665 -0.7835,1.75 -1.75,1.75c-0.11289,0 -0.22328,-0.01069 -0.33022,-0.03111c-0.01927,0.01106 -0.03877,0.02176 -0.0585,0.0321c-0.21834,0.18644 -0.50166,0.29901 -0.81128,0.29901z" fill="#2d7a1a" stroke="none" stroke-width="0.5"/><path d="M324.05582,216.9c0,-0.48464 0.27581,-0.90486 0.67902,-1.11227c-0.23728,-0.29867 -0.37902,-0.67665 -0.37902,-1.08773c0,-0.9665 0.7835,-1.75 1.75,-1.75c0.9665,0 1.75,0.7835 1.75,1.75c0,0.84585 -0.6001,1.55153 -1.39777,1.71454c0.06296,0.14926 0.09777,0.31329 0.09777,0.48546c0,0.69036 -0.55964,1.25 -1.25,1.25c-0.69036,0 -1.25,-0.55964 -1.25,-1.25z" fill="#2d7a1a" stroke="none" stroke-width="0.5"/><path d="M330.55582,215.5c0,-0.9665 0.7835,-1.75 1.75,-1.75c0.9665,0 1.75,0.7835 1.75,1.75c0,0.9665 -0.7835,1.75 -1.75,1.75c-0.9665,0 -1.75,-0.7835 -1.75,-1.75z" fill="#2d7a1a" stroke="none" stroke-width="0.5"/><path d="M334.15582,215.5c0,-0.9665 0.7835,-1.75 1.75,-1.75c0.9665,0 1.75,0.7835 1.75,1.75c0,0.9665 -0.7835,1.75 -1.75,1.75c-0.9665,0 -1.75,-0.7835 -1.75,-1.75z" fill="#2d7a1a" stroke="none" stroke-width="0.5"/><path d="M338.15582,215.5c0,-0.9665 0.7835,-1.75 1.75,-1.75c0.9665,0 1.75,0.7835 1.75,1.75c0,0.9665 -0.7835,1.75 -1.75,1.75c-0.9665,0 -1.75,-0.7835 -1.75,-1.75z" fill="#2d7a1a" stroke="none" stroke-width="0.5"/><path d="M296.15582,221.3c0,-0.9665 0.7835,-1.75 1.75,-1.75c0.9665,0 1.75,0.7835 1.75,1.75c0,0.9665 -0.7835,1.75 -1.75,1.75c-0.9665,0 -1.75,-0.7835 -1.75,-1.75z" fill="#33965e" stroke="none" stroke-width="0.5"/><path d="M340.55582,221.1c0,-0.9665 0.7835,-1.75 1.75,-1.75c0.9665,0 1.75,0.7835 1.75,1.75c0,0.9665 -0.7835,1.75 -1.75,1.75c-0.9665,0 -1.75,-0.7835 -1.75,-1.75z" fill="#33965e" stroke="none" stroke-width="0.5"/><path d="M334.85582,220.3c0,-0.69036 0.55964,-1.25 1.25,-1.25c0.05573,0 0.11061,0.00365 0.16441,0.01072c0.31654,-0.3156 0.75328,-0.51072 1.23559,-0.51072c0.03356,0 0.0669,0.00094 0.1,0.00281c0.0331,-0.00186 0.06644,-0.00281 0.1,-0.00281c0.9665,0 1.75,0.7835 1.75,1.75c0,0.9665 -0.7835,1.75 -1.75,1.75c-0.03356,0 -0.0669,-0.00094 -0.1,-0.00281c-0.0331,0.00186 -0.06644,0.00281 -0.1,0.00281c-0.48231,0 -0.91905,-0.19511 -1.23559,-0.51072c-0.0538,0.00707 -0.10868,0.01072 -0.16441,0.01072c-0.69036,0 -1.25,-0.55964 -1.25,-1.25z" fill="#33965e" stroke="none" stroke-width="0.5"/><path d="M330.15582,221.1c0,-0.9665 0.7835,-1.75 1.75,-1.75c0.03356,0 0.0669,0.00094 0.1,0.00281c0.0331,-0.00186 0.06644,-0.00281 0.1,-0.00281c0.9665,0 1.75,0.7835 1.75,1.75c0,0.9665 -0.7835,1.75 -1.75,1.75c-0.03356,0 -0.0669,-0.00094 -0.1,-0.00281c-0.0331,0.00186 -0.06644,0.00281 -0.1,0.00281c-0.9665,0 -1.75,-0.7835 -1.75,-1.75z" fill="#33965e" stroke="none" stroke-width="0.5"/><path d="M321.30582,222.75c-0.40726,0 -0.76903,-0.19476 -0.99725,-0.49623c-0.48298,-0.23274 -1.12626,-0.75728 -0.92452,-1.86682c0.31305,-1.72177 2.03482,-1.40872 2.03482,-1.40872l2.2,0.4c0,0 0.06959,0.01265 0.17824,0.04686c0.16098,-0.04883 0.33178,-0.07509 0.50871,-0.07509c0.9665,0 1.75,0.7835 1.75,1.75c0,0.9665 -0.7835,1.75 -1.75,1.75c-0.16787,0 -0.33022,-0.02364 -0.4839,-0.06776c-0.44113,0.11008 -0.82915,0.03954 -0.82915,0.03954l-1.12553,-0.20464c-0.16881,0.085 -0.35953,0.13287 -0.56142,0.13287z" fill="#33965e" stroke="none" stroke-width="0.5"/><path d="M314.35582,220.9c0,-0.96207 0.77634,-1.74282 1.73674,-1.74995c0.24298,-0.12776 0.51968,-0.20005 0.81326,-0.20005c0.9665,0 1.75,0.7835 1.75,1.75c0,0.96207 -0.77634,1.74282 -1.73674,1.74995c-0.24298,0.12776 -0.51968,0.20005 -0.81326,0.20005c-0.9665,0 -1.75,-0.7835 -1.75,-1.75z" fill="#33965e" stroke="none" stroke-width="0.5"/><path d="M312.55582,220.9c0,1.25 -1.25,1.25 -1.25,1.25h-1.8c0,0 -0.41051,0 -0.76102,-0.23525c-0.24888,0.66323 -0.88881,1.13525 -1.63898,1.13525c-0.54604,0 -1.03367,-0.25009 -1.3546,-0.64197c-0.05477,0.63978 -0.59144,1.14197 -1.2454,1.14197c-0.69036,0 -1.25,-0.55964 -1.25,-1.25c0,-0.06435 0.00486,-0.12756 0.01424,-0.18929c-0.43315,-0.31856 -0.71424,-0.83181 -0.71424,-1.41071c0,-0.9665 0.7835,-1.75 1.75,-1.75c0.7237,0 1.3448,0.43929 1.61118,1.06577c0.31213,-0.28908 0.72984,-0.46577 1.18882,-0.46577c0.5401,0 1.02305,0.24467 1.34406,0.62922c0.35114,-0.52922 1.05594,-0.52922 1.05594,-0.52922h1.8c0,0 1.25,0 1.25,1.25z" fill="#33965e" stroke="none" stroke-width="0.5"/><path d="M294.55582,231.5c0,-0.9665 0.3835,-1.75 1.35,-1.75c0.9665,0 1.75,0.7835 1.75,1.75c0,0.9665 -0.7835,1.75 -1.75,1.75c-0.9665,0 -1.35,-0.7835 -1.35,-1.75z" fill="#75f20f" stroke="none" stroke-width="0.5"/><path d="M306.15582,232.3c0,0.69036 -0.55964,1.25 -1.25,1.25c-0.19142,0 -0.37279,-0.04303 -0.53497,-0.11994c-0.08643,0.01313 -0.17493,0.01994 -0.26503,0.01994c-0.9665,0 -1.75,-0.7835 -1.75,-1.75c0,-0.9665 0.7835,-1.75 1.75,-1.75c0.88869,0 1.62266,0.66243 1.73508,1.52045c0.19593,0.22069 0.31492,0.51123 0.31492,0.82955z" fill="#75f20f" stroke="none" stroke-width="0.5"/><path d="M311.95582,232.1c0,0.69036 -0.55964,1.25 -1.25,1.25c-0.61753,0 -1.13048,-0.4478 -1.23182,-1.0364c-0.43538,-0.31834 -0.71818,-0.83294 -0.71818,-1.4136c0,-0.9665 0.7835,-1.75 1.75,-1.75c0.9665,0 1.75,0.7835 1.75,1.75c0,0.37295 -0.11667,0.71866 -0.3155,1.00261c0.0102,0.0643 0.0155,0.13022 0.0155,0.19739z" fill="#75f20f" stroke="none" stroke-width="0.5"/><path d="M314.95582,230.3c0,-0.9665 0.7835,-1.75 1.75,-1.75c0.9665,0 1.75,0.7835 1.75,1.75c0,0.9665 -0.7835,1.75 -1.75,1.75c-0.9665,0 -1.75,-0.7835 -1.75,-1.75z" fill="#75f20f" stroke="none" stroke-width="0.5"/><path d="M324.35582,230.3c0,-0.9665 0.7835,-1.75 1.75,-1.75c0.9665,0 1.75,0.7835 1.75,1.75c0,0.9665 -0.7835,1.75 -1.75,1.75c-0.9665,0 -1.75,-0.7835 -1.75,-1.75z" fill="#75f20f" stroke="none" stroke-width="0.5"/><path d="M331.55582,230.7c0,-0.9665 0.7835,-1.75 1.75,-1.75c0.9665,0 1.75,0.7835 1.75,1.75c0,0.9665 -0.7835,1.75 -1.75,1.75c-0.9665,0 -1.75,-0.7835 -1.75,-1.75z" fill="#75f20f" stroke="none" stroke-width="0.5"/><path d="M335.45582,231.7c0,-0.69036 0.55964,-1.25 1.25,-1.25c0.05771,0 0.11451,0.00391 0.17014,0.01148c0.25512,-0.65072 0.88868,-1.11148 1.62986,-1.11148c0.51885,0 0.98496,0.2258 1.30543,0.58449c0.29973,-0.24057 0.68034,-0.38449 1.09457,-0.38449c0.9665,0 1.75,0.7835 1.75,1.75c0,0.9665 -0.7835,1.75 -1.75,1.75c-0.51885,0 -0.98496,-0.2258 -1.30543,-0.58449c-0.29973,0.24057 -0.68034,0.38449 -1.09457,0.38449c-0.33782,0 -0.65328,-0.09572 -0.92074,-0.26152c-0.22583,0.2235 -0.53643,0.36152 -0.87926,0.36152c-0.69036,0 -1.25,-0.55964 -1.25,-1.25z" fill="#75f20f" stroke="none" stroke-width="0.5"/><path d="M299.05582,233.1c0,-0.69036 0.55964,-1.25 1.25,-1.25c0.69036,0 1.25,0.55964 1.25,1.25c0,0.68623 -0.55297,1.2433 -1.23763,1.24994c0.26787,0.22926 0.43763,0.56984 0.43763,0.95006c0,0.69036 -0.55964,1.25 -1.25,1.25c-0.69036,0 -1.25,-0.55964 -1.25,-1.25c0,-0.68623 0.55297,-1.2433 1.23763,-1.24994c-0.26787,-0.22926 -0.43763,-0.56984 -0.43763,-0.95006z" fill="#75f20f" stroke="none" stroke-width="0.5"/><path d="M315.25582,233.3c0,-0.69036 0.55964,-1.25 1.25,-1.25c0.69036,0 1.25,0.55964 1.25,1.25c0,0.69036 -0.55964,1.25 -1.25,1.25c-0.69036,0 -1.25,-0.55964 -1.25,-1.25z" fill="#75f20f" stroke="none" stroke-width="0.5"/><path d="M321.10582,236.65c-0.33583,0 -0.62011,-0.22073 -0.71567,-0.52502c-0.32306,-0.22599 -0.53433,-0.60081 -0.53433,-1.02498c0,-0.69036 0.55964,-1.25 1.25,-1.25c0.69036,0 1.25,0.55964 1.25,1.25c0,0.42417 -0.21127,0.79899 -0.53433,1.02498c-0.09556,0.30429 -0.37984,0.52502 -0.71567,0.52502z" fill="#75f20f" stroke="none" stroke-width="0.5"/><path d="M325.05582,235.1c0,-0.69036 0.55964,-1.25 1.25,-1.25c0.69036,0 1.25,0.55964 1.25,1.25c0,0.69036 -0.55964,1.25 -1.25,1.25c-0.69036,0 -1.25,-0.55964 -1.25,-1.25z" fill="#75f20f" stroke="none" stroke-width="0.5"/><path d="M329.45582,232.7c0,-0.69036 0.55964,-1.25 1.25,-1.25c0.69036,0 1.25,0.55964 1.25,1.25c0,0.69036 -0.55964,1.25 -1.25,1.25c-0.69036,0 -1.25,-0.55964 -1.25,-1.25z" fill="#75f20f" stroke="none" stroke-width="0.5"/><path d="M341.45582,234.5c0,-0.69036 0.55964,-1.25 1.25,-1.25c0.69036,0 1.25,0.55964 1.25,1.25c0,0.69036 -0.55964,1.25 -1.25,1.25c-0.69036,0 -1.25,-0.55964 -1.25,-1.25z" fill="#75f20f" stroke="none" stroke-width="0.5"/><path d="M298.25582,224.7c0,-0.69036 0.55964,-1.25 1.25,-1.25c0.69036,0 1.25,0.55964 1.25,1.25c0,0.69036 -0.55964,1.25 -1.25,1.25c-0.69036,0 -1.25,-0.55964 -1.25,-1.25z" fill="#33965e" stroke="none" stroke-width="0.5"/><path d="M325.25582,224.5c0,-0.69036 0.55964,-1.25 1.25,-1.25c0.69036,0 1.25,0.55964 1.25,1.25c0,0.69036 -0.55964,1.25 -1.25,1.25c-0.69036,0 -1.25,-0.55964 -1.25,-1.25z" fill="#33965e" stroke="none" stroke-width="0.5"/><path d="M337.45582,223.9c0,-0.69036 0.55964,-1.25 1.25,-1.25c0.69036,0 1.25,0.55964 1.25,1.25c0,0.69036 -0.55964,1.25 -1.25,1.25c-0.69036,0 -1.25,-0.55964 -1.25,-1.25z" fill="#33965e" stroke="none" stroke-width="0.5"/><path d="M301.45582,218.5c0,-0.69036 0.55964,-1.25 1.25,-1.25c0.69036,0 1.25,0.55964 1.25,1.25c0,0.69036 -0.55964,1.25 -1.25,1.25c-0.69036,0 -1.25,-0.55964 -1.25,-1.25z" fill="#2d7a1a" stroke="none" stroke-width="0.5"/><path d="M329.45582,218.1c0,-0.69036 0.55964,-1.25 1.25,-1.25c0.69036,0 1.25,0.55964 1.25,1.25c0,0.69036 -0.55964,1.25 -1.25,1.25c-0.69036,0 -1.25,-0.55964 -1.25,-1.25z" fill="#2d7a1a" stroke="none" stroke-width="0.5"/><path d="M339.05582,218.5c0,-0.69036 0.55964,-1.25 1.25,-1.25c0.69036,0 1.25,0.55964 1.25,1.25c0,0.69036 -0.55964,1.25 -1.25,1.25c-0.69036,0 -1.25,-0.55964 -1.25,-1.25z" fill="#2d7a1a" stroke="none" stroke-width="0.5"/><path d="M298.55582,219.9c0,-0.41421 0.33579,-0.75 0.75,-0.75c0.41421,0 0.75,0.33579 0.75,0.75c0,0.41421 -0.33579,0.75 -0.75,0.75c-0.41421,0 -0.75,-0.33579 -0.75,-0.75z" fill="#2d7a1a" stroke="none" stroke-width="0.5"/><path d="M311.75582,219.9c0,-0.41421 0.33579,-0.75 0.75,-0.75c0.41421,0 0.75,0.33579 0.75,0.75c0,0.41421 -0.33579,0.75 -0.75,0.75c-0.41421,0 -0.75,-0.33579 -0.75,-0.75z" fill="#2d7a1a" stroke="none" stroke-width="0.5"/><path d="M315.75582,219.5c0,-0.41421 0.33579,-0.75 0.75,-0.75c0.41421,0 0.75,0.33579 0.75,0.75c0,0.41421 -0.33579,0.75 -0.75,0.75c-0.41421,0 -0.75,-0.33579 -0.75,-0.75z" fill="#2d7a1a" stroke="none" stroke-width="0.5"/><path d="M336.55582,219.1c0,-0.41421 0.33579,-0.75 0.75,-0.75c0.41421,0 0.75,0.33579 0.75,0.75c0,0.41421 -0.33579,0.75 -0.75,0.75c-0.41421,0 -0.75,-0.33579 -0.75,-0.75z" fill="#2d7a1a" stroke="none" stroke-width="0.5"/><path d="M301.35582,228.9c0,-0.41421 0.33579,-0.75 0.75,-0.75c0.41421,0 0.75,0.33579 0.75,0.75c0,0.41421 -0.33579,0.75 -0.75,0.75c-0.41421,0 -0.75,-0.33579 -0.75,-0.75z" fill="#33965e" stroke="none" stroke-width="0.5"/><path d="M307.75582,225.9c0,-0.41421 0.33579,-0.75 0.75,-0.75c0.41421,0 0.75,0.33579 0.75,0.75c0,0.41421 -0.33579,0.75 -0.75,0.75c-0.41421,0 -0.75,-0.33579 -0.75,-0.75z" fill="#33965e" stroke="none" stroke-width="0.5"/><path d="M312.55582,225.1c0,-0.41421 0.33579,-0.75 0.75,-0.75c0.41421,0 0.75,0.33579 0.75,0.75c0,0.41421 -0.33579,0.75 -0.75,0.75c-0.41421,0 -0.75,-0.33579 -0.75,-0.75z" fill="#33965e" stroke="none" stroke-width="0.5"/><path d="M322.55582,227.7c0,-0.41421 0.33579,-0.75 0.75,-0.75c0.41421,0 0.75,0.33579 0.75,0.75c0,0.41421 -0.33579,0.75 -0.75,0.75c-0.41421,0 -0.75,-0.33579 -0.75,-0.75z" fill="#33965e" stroke="none" stroke-width="0.5"/><path d="M338.75582,229.7c0,-0.41421 0.33579,-0.75 0.75,-0.75c0.41421,0 0.75,0.33579 0.75,0.75c0,0.41421 -0.33579,0.75 -0.75,0.75c-0.41421,0 -0.75,-0.33579 -0.75,-0.75z" fill="#33965e" stroke="none" stroke-width="0.5"/><path d="M299.55582,239.7c0,-0.41421 0.33579,-0.75 0.75,-0.75c0.41421,0 0.75,0.33579 0.75,0.75c0,0.41421 -0.33579,0.75 -0.75,0.75c-0.41421,0 -0.75,-0.33579 -0.75,-0.75z" fill="#75f20f" stroke="none" stroke-width="0.5"/><path d="M307.15582,237.3c0,-0.41421 0.33579,-0.75 0.75,-0.75c0.41421,0 0.75,0.33579 0.75,0.75c0,0.41421 -0.33579,0.75 -0.75,0.75c-0.41421,0 -0.75,-0.33579 -0.75,-0.75z" fill="#75f20f" stroke="none" stroke-width="0.5"/><path d="M329.55582,238.1c0,-0.41421 0.33579,-0.75 0.75,-0.75c0.41421,0 0.75,0.33579 0.75,0.75c0,0.41421 -0.33579,0.75 -0.75,0.75c-0.41421,0 -0.75,-0.33579 -0.75,-0.75z" fill="#75f20f" stroke="none" stroke-width="0.5"/><path d="M341.15582,238.5c0,-0.41421 0.33579,-0.75 0.75,-0.75c0.41421,0 0.75,0.33579 0.75,0.75c0,0.41421 -0.33579,0.75 -0.75,0.75c-0.41421,0 -0.75,-0.33579 -0.75,-0.75z" fill="#75f20f" stroke="none" stroke-width="0.5"/><path d="M298.34471,254.36667c0,-0.42979 0.21691,-0.80892 0.54723,-1.03388c-0.64321,-0.05358 -1.18761,-0.45502 -1.44453,-1.01565c-0.08673,0.88544 -0.83336,1.57731 -1.74159,1.57731c-0.9665,0 -1.75,-0.7835 -1.75,-1.75c0,-0.9665 0.7835,-1.75 1.75,-1.75c0.70663,0 1.31544,0.41882 1.59175,1.02176c0.08673,-0.88544 0.83336,-1.57731 1.74159,-1.57731c0.9665,0 1.75,0.7835 1.75,1.75c0,0.67535 -0.38256,1.26135 -0.94279,1.55312c0.56974,0.11646 0.99835,0.6205 0.99835,1.22466c0,0.69036 -0.55964,1.25 -1.25,1.25c-0.69036,0 -1.25,-0.55964 -1.25,-1.25z" fill="#942c3b" stroke="none" stroke-width="0.5"/><path d="M342.17804,252.14444c0,-0.9665 0.7835,-1.75 1.75,-1.75c0.9665,0 1.75,0.7835 1.75,1.75c0,0.9665 -0.7835,1.75 -1.75,1.75c-0.9665,0 -1.75,-0.7835 -1.75,-1.75z" fill="#942c3b" stroke="none" stroke-width="0.5"/><path d="M306.92804,253.95c-0.36192,0 -0.68791,-0.15381 -0.91617,-0.39962c-0.064,0.00709 -0.12904,0.01074 -0.19494,0.01074c-0.9665,0 -1.75,-0.7835 -1.75,-1.75c0,-0.9665 0.7835,-1.75 1.75,-1.75c0.45394,0 0.86751,0.17284 1.1785,0.45629c0.2914,-0.21685 0.65257,-0.34518 1.04372,-0.34518c0.9665,0 1.75,0.7835 1.75,1.75c0,0.9665 -0.7835,1.75 -1.75,1.75c-0.10075,0 -0.19951,-0.00851 -0.2956,-0.02486c-0.2189,0.18861 -0.50389,0.30264 -0.81551,0.30264z" fill="#942c3b" stroke="none" stroke-width="0.5"/><path d="M311.56693,254.14444c0,-0.4588 0.24718,-0.85987 0.61563,-1.0773c-0.21241,-0.28966 -0.33786,-0.64709 -0.33786,-1.03381c0,-0.9665 0.7835,-1.75 1.75,-1.75c0.9665,0 1.75,0.7835 1.75,1.75c0,0.8274 -0.57421,1.52069 -1.34588,1.70311c0.04413,0.12787 0.0681,0.26514 0.0681,0.408c0,0.69036 -0.55964,1.25 -1.25,1.25c-0.69036,0 -1.25,-0.55964 -1.25,-1.25z" fill="#942c3b" stroke="none" stroke-width="0.5"/><path d="M316.17804,252.25556c0,-0.9665 0.7835,-1.75 1.75,-1.75c0.9665,0 1.75,0.7835 1.75,1.75c0,0.9665 -0.7835,1.75 -1.75,1.75c-0.9665,0 -1.75,-0.7835 -1.75,-1.75z" fill="#942c3b" stroke="none" stroke-width="0.5"/><path d="M321.62249,252.25556c0,-0.9665 0.7835,-1.75 1.75,-1.75c0.9665,0 1.75,0.7835 1.75,1.75c0,0.9665 -0.7835,1.75 -1.75,1.75c-0.9665,0 -1.75,-0.7835 -1.75,-1.75z" fill="#942c3b" stroke="none" stroke-width="0.5"/><path d="M331.81693,250.56111c0.69036,0 1.25,0.55964 1.25,1.25c0,0.69036 -0.55964,1.25 -1.25,1.25c-0.43659,0 -0.82091,-0.22383 -1.04445,-0.563c-0.11809,0.8517 -0.84913,1.50744 -1.73333,1.50744c-0.9665,0 -1.75,-0.7835 -1.75,-1.75c0,-0.9665 0.7835,-1.75 1.75,-1.75c0.6895,0 1.28587,0.39876 1.57107,0.97824c0.14385,-0.5316 0.62961,-0.92268 1.20671,-0.92268z" fill="#942c3b" stroke="none" stroke-width="0.5"/><path d="M333.2336,252.25556c0,-0.69036 0.55964,-1.25 1.25,-1.25c0.00368,0 0.00735,0.00002 0.01102,0.00005c0.30057,-0.24324 0.68332,-0.38894 1.1001,-0.38894c0.9665,0 1.75,0.7835 1.75,1.75c0,0.9665 -0.7835,1.75 -1.75,1.75c-0.54207,0 -1.02658,-0.24646 -1.34758,-0.63345c-0.57729,-0.11053 -1.01353,-0.61815 -1.01353,-1.22766z" fill="#942c3b" stroke="none" stroke-width="0.5"/><path d="M337.51138,251.92222c0,-0.9665 0.7835,-1.75 1.75,-1.75c0.9665,0 1.75,0.7835 1.75,1.75c0,0.9665 -0.7835,1.75 -1.75,1.75c-0.9665,0 -1.75,-0.7835 -1.75,-1.75z" fill="#942c3b" stroke="none" stroke-width="0.5"/><path d="M294.34471,264.36667c0,-0.51341 0.30953,-0.95453 0.75215,-1.14693c-0.05556,0.00532 -0.11187,0.00804 -0.16882,0.00804c-0.9665,0 -1.75,-0.7835 -1.75,-1.75c0,-0.9665 0.7835,-1.75 1.75,-1.75c0.9665,0 1.75,0.7835 1.75,1.75c0,0.75127 -0.4734,1.39197 -1.13817,1.64007c0.01818,-0.00078 0.03647,-0.00118 0.05484,-0.00118c0.69036,0 1.25,0.55964 1.25,1.25c0,0.69036 -0.55964,1.25 -1.25,1.25c-0.69036,0 -1.25,-0.55964 -1.25,-1.25z" fill="#9d2f3a" stroke="none" stroke-width="0.5"/><path d="M304.37249,261.00556c0.69036,0 1.25,0.55964 1.25,1.25c0,0.69036 -0.55964,1.25 -1.25,1.25c-0.55684,0 -1.02864,-0.3641 -1.1903,-0.86722c-0.21399,0.09327 -0.45025,0.145 -0.69859,0.145c-0.28498,0 -0.55405,-0.06812 -0.79182,-0.18896c-0.37915,-0.07253 -0.69748,-0.31634 -0.87138,-0.64782c-0.11448,0.57228 -0.61973,1.00345 -1.22569,1.00345c-0.69036,0 -1.25,-0.55964 -1.25,-1.25c0,-0.69036 0.55964,-1.25 1.25,-1.25c0.48106,0 0.89866,0.27175 1.10764,0.67012c0.00845,-0.04226 0.01904,-0.08376 0.03164,-0.12437c0.01046,-0.49645 0.22766,-0.94204 0.56896,-1.25417c0.31998,-0.3499 0.78024,-0.56936 1.29175,-0.56936c0.9665,0 1.75,0.7835 1.75,1.75c0,0.02805 -0.00066,0.05595 -0.00197,0.08368c0.00989,-0.00023 0.0198,-0.00035 0.02974,-0.00035z" fill="#9d2f3a" stroke="none" stroke-width="0.5"/><path d="M308.40026,260.58889c0,-0.9665 0.7835,-1.75 1.75,-1.75c0.9665,0 1.75,0.7835 1.75,1.75c0,0.9665 -0.7835,1.75 -1.75,1.75c-0.9665,0 -1.75,-0.7835 -1.75,-1.75z" fill="#9d2f3a" stroke="none" stroke-width="0.5"/><path d="M317.17804,262.14444c0,0.53381 -0.33462,0.98948 -0.80554,1.16867c-0.19295,0.12189 -0.42158,0.19244 -0.66668,0.19244c-0.4865,0 -0.90809,-0.27793 -1.11465,-0.68367c-0.57431,-0.28703 -0.96869,-0.88063 -0.96869,-1.56633c0,-0.9665 0.7835,-1.75 1.75,-1.75c0.9665,0 1.75,0.7835 1.75,1.75c0,0.1364 -0.01561,0.26915 -0.04513,0.39658c0.0648,0.15108 0.10068,0.31751 0.10068,0.49231z" fill="#9d2f3a" stroke="none" stroke-width="0.5"/><path d="M321.26138,263.28333c-0.28271,0 -0.5435,-0.09385 -0.75291,-0.2521c-0.3057,0.26111 -0.70243,0.41877 -1.13598,0.41877c-0.9665,0 -1.75,-0.7835 -1.75,-1.75c0,-0.9665 0.7835,-1.75 1.75,-1.75c0.47739,0 0.91014,0.19116 1.22587,0.5011c0.32096,-0.37474 0.79759,-0.61222 1.32968,-0.61222c0.9665,0 1.75,0.7835 1.75,1.75c0,0.9665 -0.7835,1.75 -1.75,1.75c-0.16876,0 -0.33194,-0.02389 -0.48634,-0.06847c-0.05888,0.00851 -0.11909,0.01291 -0.18032,0.01291z" fill="#9d2f3a" stroke="none" stroke-width="0.5"/><path d="M326.90026,264.36667c0,-0.07667 0.0069,-0.15173 0.02012,-0.22458c-0.22599,0.22465 -0.5374,0.36347 -0.88123,0.36347c-0.69036,0 -1.25,-0.55964 -1.25,-1.25c0,-0.22437 0.05911,-0.43493 0.16262,-0.61696c-0.27401,-0.3089 -0.44039,-0.71543 -0.44039,-1.16082c0,-0.9665 0.7835,-1.75 1.75,-1.75c0.9665,0 1.75,0.7835 1.75,1.75c0,0.60178 -0.30375,1.13262 -0.7663,1.44756c0.02874,0.10519 0.04408,0.21591 0.04408,0.33022c0,0.07667 -0.0069,0.15173 -0.02012,0.22458c0.22599,-0.22465 0.5374,-0.36347 0.88123,-0.36347c0.69036,0 1.25,0.55964 1.25,1.25c0,0.69036 -0.55964,1.25 -1.25,1.25c-0.69036,0 -1.25,-0.55964 -1.25,-1.25z" fill="#9d2f3a" stroke="none" stroke-width="0.5"/><path d="M339.78915,262.25556c0,-0.63642 0.47561,-1.16175 1.09078,-1.23995c0.16256,-0.79825 0.86852,-1.39893 1.71478,-1.39893c0.9665,0 1.75,0.7835 1.75,1.75c0,0.9665 -0.7835,1.75 -1.75,1.75c-0.19893,0 -0.3901,-0.03319 -0.56829,-0.09434c-0.22871,0.29405 -0.5859,0.48323 -0.98727,0.48323c-0.69036,0 -1.25,-0.55964 -1.25,-1.25z" fill="#9d2f3a" stroke="none" stroke-width="0.5"/><path d="M300.67804,252.7c0,-0.69036 0.55964,-1.25 1.25,-1.25c0.69036,0 1.25,0.55964 1.25,1.25c0,0.69036 -0.55964,1.25 -1.25,1.25c-0.69036,0 -1.25,-0.55964 -1.25,-1.25z" fill="#942c3b" stroke="none" stroke-width="0.5"/><path d="M316.12249,255.47778c0,-0.69036 0.55964,-1.25 1.25,-1.25c0.69036,0 1.25,0.55964 1.25,1.25c0,0.69036 -0.55964,1.25 -1.25,1.25c-0.69036,0 -1.25,-0.55964 -1.25,-1.25z" fill="#942c3b" stroke="none" stroke-width="0.5"/><path d="M320.90026,255.81111c0,-0.69036 0.55964,-1.25 1.25,-1.25c0.69036,0 1.25,0.55964 1.25,1.25c0,0.69036 -0.55964,1.25 -1.25,1.25c-0.69036,0 -1.25,-0.55964 -1.25,-1.25z" fill="#942c3b" stroke="none" stroke-width="0.5"/><path d="M325.45582,254.25556c0,-0.69036 0.55964,-1.25 1.25,-1.25c0.69036,0 1.25,0.55964 1.25,1.25c0,0.69036 -0.55964,1.25 -1.25,1.25c-0.69036,0 -1.25,-0.55964 -1.25,-1.25z" fill="#942c3b" stroke="none" stroke-width="0.5"/><path d="M341.12249,254.92222c0,-0.69036 0.55964,-1.25 1.25,-1.25c0.69036,0 1.25,0.55964 1.25,1.25c0,0.69036 -0.55964,1.25 -1.25,1.25c-0.69036,0 -1.25,-0.55964 -1.25,-1.25z" fill="#942c3b" stroke="none" stroke-width="0.5"/><path d="M306.12249,263.58889c0,-0.69036 0.55964,-1.25 1.25,-1.25c0.69036,0 1.25,0.55964 1.25,1.25c0,0.69036 -0.55964,1.25 -1.25,1.25c-0.69036,0 -1.25,-0.55964 -1.25,-1.25z" fill="#9d2f3a" stroke="none" stroke-width="0.5"/><path d="M313.03915,263.89444c0.69036,0 1.25,0.55964 1.25,1.25c0,0.69036 -0.55964,1.25 -1.25,1.25c-0.07584,0 -0.1501,-0.00675 -0.22222,-0.01969c-0.07212,0.01294 -0.14638,0.01969 -0.22222,0.01969c-0.69036,0 -1.25,-0.55964 -1.25,-1.25c0,-0.69036 0.55964,-1.25 1.25,-1.25c0.07584,0 0.1501,0.00675 0.22222,0.01969c0.07212,-0.01294 0.14638,-0.01969 0.22222,-0.01969z" fill="#9d2f3a" stroke="none" stroke-width="0.5"/><path d="M333.12249,261.25556c0,-0.69036 0.55964,-1.25 1.25,-1.25c0.34808,0 0.66294,0.14228 0.88958,0.37185c0.3154,-0.45942 0.84439,-0.76074 1.44376,-0.76074c0.9665,0 1.75,0.7835 1.75,1.75c0,0.9665 -0.7835,1.75 -1.75,1.75c-0.65894,0 -1.23282,-0.36419 -1.53133,-0.90227c-0.21706,0.18175 -0.49675,0.29116 -0.802,0.29116c-0.12419,0 -0.24416,-0.01811 -0.35739,-0.05184c0.03373,0.11324 0.05184,0.2332 0.05184,0.35739c0,0.62988 -0.46589,1.15095 -1.07188,1.23741c0.11608,0.18971 0.18299,0.41279 0.18299,0.65148c0,0.69036 -0.55964,1.25 -1.25,1.25c-0.69036,0 -1.25,-0.55964 -1.25,-1.25c0,-0.62988 0.46589,-1.15095 1.07188,-1.23741c-0.11608,-0.18971 -0.18299,-0.41279 -0.18299,-0.65148c0,-0.10888 0.01392,-0.21452 0.04008,-0.31522c-0.10888,0.10837 -0.23195,0.2025 -0.36617,0.27936c-0.64198,0.44665 -1.394,0.62292 -1.75654,-0.01153c-0.5158,-0.30441 -0.86182,-0.86589 -0.86182,-1.50818c0,-0.9665 0.7835,-1.75 1.75,-1.75c0.17212,0 0.33844,0.02485 0.49556,0.07115c0.79343,-0.17182 1.47667,0.18767 1.47667,1.67885c0,0.13848 -0.048,0.29648 -0.13201,0.46103c0.17909,-0.09908 0.38507,-0.15548 0.60423,-0.15548c0.12419,0 0.24416,0.01811 0.35739,0.05184c-0.03373,-0.11324 -0.05184,-0.2332 -0.05184,-0.35739z" fill="#9d2f3a" stroke="none" stroke-width="0.5"/><path d="M341.67804,265.14444c0,-0.69036 0.55964,-1.25 1.25,-1.25c0.69036,0 1.25,0.55964 1.25,1.25c0,0.69036 -0.55964,1.25 -1.25,1.25c-0.69036,0 -1.25,-0.55964 -1.25,-1.25z" fill="#9d2f3a" stroke="none" stroke-width="0.5"/><path d="M294.7336,256.03333c0,-0.41421 0.33579,-0.75 0.75,-0.75c0.41421,0 0.75,0.33579 0.75,0.75c0,0.41421 -0.33579,0.75 -0.75,0.75c-0.41421,0 -0.75,-0.33579 -0.75,-0.75z" fill="#942c3b" stroke="none" stroke-width="0.5"/><path d="M297.95582,257.47778c0,-0.41421 0.33579,-0.75 0.75,-0.75c0.41421,0 0.75,0.33579 0.75,0.75c0,0.41421 -0.33579,0.75 -0.75,0.75c-0.41421,0 -0.75,-0.33579 -0.75,-0.75z" fill="#942c3b" stroke="none" stroke-width="0.5"/><path d="M304.17804,258.25556c0,-0.41421 0.33579,-0.75 0.75,-0.75c0.41421,0 0.75,0.33579 0.75,0.75c0,0.41421 -0.33579,0.75 -0.75,0.75c-0.41421,0 -0.75,-0.33579 -0.75,-0.75z" fill="#942c3b" stroke="none" stroke-width="0.5"/><path d="M307.06693,256.58889c0,-0.41421 0.33579,-0.75 0.75,-0.75c0.41421,0 0.75,0.33579 0.75,0.75c0,0.41421 -0.33579,0.75 -0.75,0.75c-0.41421,0 -0.75,-0.33579 -0.75,-0.75z" fill="#942c3b" stroke="none" stroke-width="0.5"/><path d="M313.40026,257.7c0,-0.41421 0.33579,-0.75 0.75,-0.75c0.41421,0 0.75,0.33579 0.75,0.75c0,0.41421 -0.33579,0.75 -0.75,0.75c-0.41421,0 -0.75,-0.33579 -0.75,-0.75z" fill="#942c3b" stroke="none" stroke-width="0.5"/><path d="M319.62249,258.7c0,-0.41421 0.33579,-0.75 0.75,-0.75c0.41421,0 0.75,0.33579 0.75,0.75c0,0.41421 -0.33579,0.75 -0.75,0.75c-0.41421,0 -0.75,-0.33579 -0.75,-0.75z" fill="#942c3b" stroke="none" stroke-width="0.5"/><path d="M328.06693,257.81111c0,-0.41421 0.33579,-0.75 0.75,-0.75c0.41421,0 0.75,0.33579 0.75,0.75c0,0.41421 -0.33579,0.75 -0.75,0.75c-0.41421,0 -0.75,-0.33579 -0.75,-0.75z" fill="#942c3b" stroke="none" stroke-width="0.5"/><path d="M331.62249,257.47778c0,-0.41421 0.33579,-0.75 0.75,-0.75c0.41421,0 0.75,0.33579 0.75,0.75c0,0.41421 -0.33579,0.75 -0.75,0.75c-0.41421,0 -0.75,-0.33579 -0.75,-0.75z" fill="#942c3b" stroke="none" stroke-width="0.5"/><path d="M340.40026,258.36667c0,-0.41421 0.33579,-0.75 0.75,-0.75c0.41421,0 0.75,0.33579 0.75,0.75c0,0.41421 -0.33579,0.75 -0.75,0.75c-0.41421,0 -0.75,-0.33579 -0.75,-0.75z" fill="#942c3b" stroke="none" stroke-width="0.5"/><path d="M299.06693,268.36667c0,-0.41421 0.33579,-0.75 0.75,-0.75c0.41421,0 0.75,0.33579 0.75,0.75c0,0.41421 -0.33579,0.75 -0.75,0.75c-0.41421,0 -0.75,-0.33579 -0.75,-0.75z" fill="#9d2f3a" stroke="none" stroke-width="0.5"/><path d="M302.40026,266.25556c0,-0.41421 0.33579,-0.75 0.75,-0.75c0.41421,0 0.75,0.33579 0.75,0.75c0,0.41421 -0.33579,0.75 -0.75,0.75c-0.41421,0 -0.75,-0.33579 -0.75,-0.75z" fill="#9d2f3a" stroke="none" stroke-width="0.5"/><path d="M312.62249,268.81111c0,-0.41421 0.33579,-0.75 0.75,-0.75c0.41421,0 0.75,0.33579 0.75,0.75c0,0.41421 -0.33579,0.75 -0.75,0.75c-0.41421,0 -0.75,-0.33579 -0.75,-0.75z" fill="#9d2f3a" stroke="none" stroke-width="0.5"/><path d="M318.7336,269.14444c0,-0.41421 0.33579,-0.75 0.75,-0.75c0.41421,0 0.75,0.33579 0.75,0.75c0,0.41421 -0.33579,0.75 -0.75,0.75c-0.41421,0 -0.75,-0.33579 -0.75,-0.75z" fill="#9d2f3a" stroke="none" stroke-width="0.5"/><path d="M327.62249,267.58889c0,-0.41421 0.33579,-0.75 0.75,-0.75c0.41421,0 0.75,0.33579 0.75,0.75c0,0.41421 -0.33579,0.75 -0.75,0.75c-0.41421,0 -0.75,-0.33579 -0.75,-0.75z" fill="#9d2f3a" stroke="none" stroke-width="0.5"/><path d="M341.17804,267.7c0,-0.41421 0.33579,-0.75 0.75,-0.75c0.41421,0 0.75,0.33579 0.75,0.75c0,0.41421 -0.33579,0.75 -0.75,0.75c-0.41421,0 -0.75,-0.33579 -0.75,-0.75z" fill="#9d2f3a" stroke="none" stroke-width="0.5"/></g><path d="M214.52362,306.61252v-267.72501h213.18203v267.72501z" fill="none" stroke="none" stroke-width="0" stroke-linecap="butt"/><path d="" fill="none" stroke="#000000" stroke-width="2" stroke-linecap="round"/><path d="" fill-opacity="0.73333" fill="#2d7a1a" stroke="none" stroke-width="0" stroke-linecap="butt"/><g><path d="M278.66333,153.65531c2.79636,-31.29941 32.09385,-54.25762 65.43772,-51.27859c33.34389,2.97902 58.10756,30.76719 55.31118,62.0666c-1.84498,20.65055 -15.22593,37.67015 -33.69386,46.00522c-2.73825,1.23585 -10.40293,20.14997 -13.34381,20.98749c-7.28724,2.07531 -11.88113,2.5099 -19.96372,1.78778c-8.67703,-0.77523 -15.74396,-3.8397 -22.92443,-7.5997c-1.85754,-0.97269 -3.11923,-18.9254 -4.84846,-20.06622c-17.27307,-11.39563 -27.85506,-30.85523 -25.97464,-51.90257z" fill="#a93232" stroke="#000000" stroke-width="0" stroke-linecap="butt"/><path d="M313.32747,223.52593l0.75335,-20.55472l41.76087,4.37588l-3.9136,19.49076z" fill="#7c2532" stroke="none" stroke-width="0" stroke-linecap="butt"/><g fill="#fff8f7" stroke="none" stroke-width="0" stroke-linecap="butt"><path d="M329.49344,229.49584c-1.52436,-0.13619 -2.53034,-2.81839 -2.24691,-5.99088c0.01976,-0.22119 5.53602,0.31615 5.52021,0.49319c-0.28344,3.17248 -1.74895,5.63388 -3.27331,5.49769z"/><path d="M324.74329,228.63511c-1.52624,-0.10985 -2.62669,-2.77818 -2.45791,-5.95992c0.01177,-0.22183 5.53641,0.22023 5.52699,0.39778c-0.16877,3.18173 -1.54284,5.67199 -3.06908,5.56213z"/><path d="M315.58914,226.56506c-1.41478,-0.01293 -2.74747,-2.42889 -2.97662,-5.3962c-0.01598,-0.20689 5.1106,-0.11876 5.12338,0.04683c0.22916,2.96731 -0.73199,5.36231 -2.14676,5.34937z"/><path d="M320.01238,227.5523c-1.45303,-0.05555 -2.67307,-2.56417 -2.72504,-5.60316c-0.00363,-0.21189 5.25897,0.03158 5.26187,0.20118c0.05198,3.03899 -1.08378,5.45754 -2.53681,5.40199z"/><path d="M332.62303,223.98531c0.01582,-0.17703 5.53996,0.27199 5.5202,0.49318c-0.28344,3.17248 -1.74895,5.63388 -3.27331,5.49769c-1.52436,-0.13619 -2.53034,-2.8184 -2.2469,-5.99088z"/><path d="M337.75425,224.10633c0.0222,-0.17641 5.53771,0.36788 5.50997,0.58829c-0.39793,3.16126 -1.95397,5.59227 -3.4755,5.42982c-1.52154,-0.16245 -2.4324,-2.85685 -2.03448,-6.0181z"/><path d="M348.00679,223.99273c0.04194,-0.16069 5.10295,0.66135 5.05055,0.86214c-0.75154,2.87969 -2.49139,5.02114 -3.88606,4.78307c-1.39467,-0.23808 -1.91604,-2.76551 -1.16448,-5.6452z"/><path d="M343.1105,223.9873c0.03292,-0.16638 5.25532,0.5269 5.2142,0.73479c-0.58987,2.98164 -2.2353,5.23426 -3.67516,5.03136c-1.43985,-0.2029 -2.12891,-2.78449 -1.53902,-5.76614z"/></g><g fill="#fff8f7" stroke="none" stroke-width="0" stroke-linecap="butt"><path d="M334.41993,207.73609c-0.0193,0.21596 -5.89392,-0.2546 -5.86981,-0.52442c0.34576,-3.86999 1.94005,-6.88985 3.56095,-6.74503c1.6209,0.14481 2.65461,3.39947 2.30886,7.26945z"/><path d="M329.00614,207.13284c-0.02608,0.21528 -5.8902,-0.37148 -5.8576,-0.64046c0.46748,-3.8579 2.15774,-6.84197 3.77526,-6.66511c1.61753,0.17686 2.54982,3.44767 2.08234,7.30557z"/><path d="M318.27045,205.39361c-0.04687,0.19641 -5.42329,-0.73515 -5.36472,-0.98055c0.84003,-3.51969 2.72193,-6.15345 4.20334,-5.88268c1.48143,0.27077 2.00138,3.34355 1.16137,6.86324z"/><path d="M323.37298,206.5618c-0.03735,0.20322 -5.58737,-0.56919 -5.54069,-0.82309c0.66934,-3.64168 2.45227,-6.4096 3.98229,-6.18231c1.53001,0.22729 2.22773,3.36371 1.55841,7.0054z"/><path d="M337.93881,200.98729c1.62091,0.14482 2.65463,3.39946 2.30887,7.26945c-0.02411,0.26983 -5.88911,-0.30846 -5.86981,-0.52442c0.34576,-3.86999 1.94005,-6.88985 3.56095,-6.74503z"/><path d="M343.15728,201.2776c1.62326,0.11268 2.75775,3.34912 2.53395,7.2288c-0.01562,0.27049 -5.89085,-0.19156 -5.87835,-0.40807c0.22381,-3.87967 1.72115,-6.93342 3.34443,-6.82074z"/><path d="M353.04644,201.7411c1.50597,-0.00387 2.89118,2.92179 3.09395,6.53465c0.01413,0.25189 -5.44226,0.21563 -5.45358,0.01403c-0.20277,-3.61286 0.85365,-6.54479 2.35963,-6.54866z"/><path d="M348.23359,201.91674c1.54607,0.04754 2.81011,3.08768 2.82328,6.79034c0.00092,0.25816 -5.59812,0.03447 -5.59886,-0.17214c-0.01317,-3.70266 1.22949,-6.66572 2.77558,-6.6182z"/></g><path d="M318.10302,197.55588c-0.21952,0.11962 -0.33914,-0.09992 -0.33914,-0.09992l-0.16341,-0.30011c-0.72237,-1.26755 -2.39108,-0.20523 -3.15111,0.43057c0,0 -0.19181,0.16035 -0.35214,-0.03146c-0.16035,-0.19181 0.03146,-0.35214 0.03146,-0.35214c1.06799,-0.89222 2.91463,-1.8107 3.90406,-0.29827l0.17022,0.3122c0,0 0.11961,0.21952 -0.09992,0.33914z" fill="#872929" stroke="none" stroke-width="0.5" stroke-linecap="butt"/><path d="M322.47076,198.18243c-0.14474,-0.01294 -0.19783,-0.10248 -0.21691,-0.17521c-0.80342,-0.2826 -1.82354,-0.05638 -2.63753,0.01345c0,0 -0.24909,0.02136 -0.27044,-0.22773c-0.02137,-0.24909 0.22772,-0.27045 0.22772,-0.27045c0.97594,-0.08371 2.09732,-0.30969 3.02788,0.08541l0.14056,0.34776c0,0 -0.02225,0.24901 -0.27125,0.22677z" fill="#872929" stroke="none" stroke-width="0.5" stroke-linecap="butt"/><path d="M328.28409,198.31348c-0.17775,-0.01588 -0.21729,-0.14731 -0.22535,-0.22123c-0.57844,-0.33521 -1.82779,0.03899 -2.36403,0.33608c0,0 -0.21952,0.11961 -0.33914,-0.09992c-0.11962,-0.21952 0.09992,-0.33914 0.09992,-0.33914c0.79669,-0.42812 2.26599,-0.78807 3.01611,-0.21594l0.08377,0.31341c0,0 -0.02225,0.24901 -0.27125,0.22677z" fill="#872929" stroke="none" stroke-width="0.5" stroke-linecap="butt"/><path d="M332.76654,198.70162c0.03041,0.24814 -0.21772,0.27856 -0.21772,0.27856l-0.38166,0.0468c-0.74822,0.09173 -0.85897,0.06312 -1.37913,0.58491c0,0 -0.17651,0.17706 -0.35355,0.00055c-0.17705,-0.17651 -0.00054,-0.35355 -0.00054,-0.35355c0.57461,-0.57641 0.85515,-0.628 1.67241,-0.7282l0.38166,-0.04679c0,0 0.24814,-0.03042 0.27856,0.21772z" fill="#872929" stroke="none" stroke-width="0.5" stroke-linecap="butt"/><path d="M339.58761,199.83235c-0.19181,0.16035 -0.35215,-0.03146 -0.35215,-0.03146l-0.03846,-0.05988c-1.08612,-0.77029 -2.28104,-0.2311 -3.38371,0.10096c0,0 -0.23946,0.07182 -0.31129,-0.16764c-0.07182,-0.23946 0.16764,-0.31129 0.16764,-0.31129c1.28052,-0.38244 2.55934,-0.8874 3.81246,-0.03279l0.13696,0.14995c0,0 0.16035,0.19181 -0.03146,0.35214z" fill="#872929" stroke="none" stroke-width="0.5" stroke-linecap="butt"/><path d="M346.54812,200.16297c-0.19181,0.16035 -0.35214,-0.03146 -0.35214,-0.03146l-0.12604,-0.16472c-1.43582,-0.43248 -2.5017,0.02376 -3.89983,0.44312c0,0 -0.23946,0.07182 -0.31129,-0.16764c-0.07182,-0.23946 0.16764,-0.31129 0.16764,-0.31129c1.53451,-0.46025 2.75877,-0.97456 4.32833,-0.37511l0.2248,0.25495c0,0 0.16035,0.19181 -0.03146,0.35214z" fill="#872929" stroke="none" stroke-width="0.5" stroke-linecap="butt"/><path d="M350.09458,200.67399c-0.19181,0.16035 -0.35214,-0.03146 -0.35214,-0.03146l-0.09946,-0.14864c-0.5552,0.0047 -0.9401,0.03417 -1.48969,0.16439c0,0 -0.24326,0.05763 -0.30091,-0.18563c-0.05764,-0.24326 0.18562,-0.3009 0.18562,-0.3009c0.66928,-0.15857 1.15122,-0.21641 1.83666,-0.12094l0.25138,0.27104c0,0 0.16035,0.19181 -0.03146,0.35214z" fill="#872929" stroke="none" stroke-width="0.5" stroke-linecap="butt"/><path d="M354.44597,200.86858c-0.19181,0.16035 -0.35214,-0.03146 -0.35214,-0.03146l-0.05254,-0.07042c-1.13306,-0.92401 -1.83958,-0.03061 -3.00715,0.24603c0,0 -0.24326,0.05763 -0.30091,-0.18563c-0.05764,-0.24326 0.18562,-0.3009 0.18562,-0.3009c1.33177,-0.31555 2.1142,-1.19899 3.4357,-0.14919l0.12288,0.13942c0,0 0.16035,0.19181 -0.03146,0.35214z" fill="#872929" stroke="none" stroke-width="0.5" stroke-linecap="butt"/><path d="M315.72004,226.58442c0.16035,0.19181 -0.03146,0.35214 -0.03146,0.35214l-0.28752,0.1449c-0.93205,-0.08328 -2.16029,-0.22172 -2.54946,-1.14319c0,0 -0.09146,-0.23268 0.1412,-0.32413c0.23268,-0.09146 0.32413,0.1412 0.32413,0.1412c0.2452,0.69702 1.44126,0.76669 2.12861,0.8281l-0.07768,-0.03051c0,0 0.19181,-0.16035 0.35214,0.03146z" fill="#872929" stroke="none" stroke-width="0.5" stroke-linecap="butt"/><path d="M320.78729,228.28254c-0.02225,0.24901 -0.27125,0.22677 -0.27125,0.22677l-0.14336,-0.01768c-0.93065,0.09896 -1.31157,-0.15682 -2.05749,-0.70013c0,0 -0.20208,-0.14719 -0.05489,-0.34927c0.14719,-0.20208 0.34927,-0.05489 0.34927,-0.05489c0.65473,0.47691 0.90109,0.69719 1.70906,0.60721l0.2419,0.01674c0,0 0.24901,0.02225 0.22677,0.27125z" fill="#872929" stroke="none" stroke-width="0.5" stroke-linecap="butt"/><path d="M326.09488,229.72757c-0.02225,0.24901 -0.27125,0.22677 -0.27125,0.22677l-0.29372,-0.0263c-0.69321,-0.0897 -1.32714,-0.29895 -1.96471,-0.5767c0,0 -0.22919,-0.09985 -0.12934,-0.32904c0.09986,-0.22919 0.32904,-0.12934 0.32904,-0.12934c0.59043,0.25722 1.17637,0.45644 1.81906,0.53801l0.28416,0.02534c0,0 0.24901,0.02225 0.22677,0.27125z" fill="#872929" stroke="none" stroke-width="0.5" stroke-linecap="butt"/><path d="M330.35282,229.73737c0.05764,0.24326 -0.18563,0.30091 -0.18563,0.30091l-0.33727,0.07659c-0.86644,-0.07741 -1.07378,0.09545 -1.86566,-0.3841c0,0 -0.21277,-0.13126 -0.0815,-0.34402c0.13125,-0.21277 0.34402,-0.08151 0.34402,-0.08151c0.45137,0.28272 1.03679,0.26353 1.56728,0.31093l0.25784,-0.06441c0,0 0.24326,-0.05764 0.30091,0.18562z" fill="#872929" stroke="none" stroke-width="0.5" stroke-linecap="butt"/><path d="M336.51209,230.40323c0.03881,0.24697 -0.20816,0.28578 -0.20816,0.28578l-0.42122,0.06467c-1.53816,-0.11173 -2.45821,0.37937 -3.79985,-0.7723c0,0 -0.18968,-0.16283 -0.02685,-0.35253c0.16283,-0.18969 0.35253,-0.02686 0.35253,-0.02686c1.21144,1.03991 2.0481,0.57247 3.45126,0.65221l0.3665,-0.05913c0,0 0.24697,-0.03881 0.28578,0.20816z" fill="#872929" stroke="none" stroke-width="0.5" stroke-linecap="butt"/><path d="M340.65568,230.83431c-0.02225,0.24901 -0.27126,0.22676 -0.27126,0.22676l-0.28895,-0.02582c-0.70685,-0.0661 -1.51741,-0.22067 -2.17072,-0.49807c0,0 -0.22919,-0.09986 -0.12935,-0.32905c0.09986,-0.22919 0.32905,-0.12935 0.32905,-0.12935c0.58594,0.26378 1.37645,0.40452 2.01551,0.45844l0.28895,0.02582c0,0 0.24901,0.02225 0.22677,0.27125z" fill="#872929" stroke="none" stroke-width="0.5" stroke-linecap="butt"/><path d="M345.44193,230.42437c0.03881,0.24697 -0.20816,0.28578 -0.20816,0.28578l-0.42433,0.06479c-0.61483,-0.05215 -1.01534,-0.40229 -1.54582,-0.42747c0,0 -0.249,-0.02225 -0.22676,-0.27126c0.02225,-0.24901 0.27125,-0.22677 0.27125,-0.22677c0.59632,0.06987 0.86442,0.36708 1.48465,0.42578l0.3634,-0.059c0,0 0.24697,-0.03881 0.28578,0.20816z" fill="#872929" stroke="none" stroke-width="0.5" stroke-linecap="butt"/><path d="M350.30071,230.37305c0.03881,0.24697 -0.20816,0.28578 -0.20816,0.28578l-0.38442,0.06022c-0.79743,0.18133 -1.35055,-0.07482 -2.05721,-0.38084c0,0 -0.22919,-0.09985 -0.12934,-0.32904c0.09986,-0.22919 0.32904,-0.12934 0.32904,-0.12934c0.60495,0.26494 1.07084,0.52023 1.76099,0.34863l0.40331,-0.06355c0,0 0.24697,-0.03881 0.28578,0.20816z" fill="#872929" stroke="none" stroke-width="0.5" stroke-linecap="butt"/><g><g fill="#a2f30f" stroke="#000000" stroke-width="0"><path d="M275.06032,148.80668c2.96347,-33.16973 34.01163,-57.49982 69.348,-54.34278c35.33638,3.15704 61.57981,32.6057 58.61634,65.77543c-1.21969,13.6519 -7.19681,25.80638 -16.27226,35.1634c-0.85295,0.87941 1.87444,5.97823 1.87444,5.97823c0,0 -4.23534,-2.67545 -8.60641,-2.54889c-1.52228,0.04408 -3.16172,3.15919 -3.16172,3.15919c0,0 -5.54789,-2.24554 -8.1803,-2.21426c-1.64852,0.01958 -5.21938,4.34179 -5.21938,4.34179c0,0 -3.09879,-3.63153 -3.71437,-3.65712c-1.03101,-0.04287 -5.83222,5.66475 -5.83222,5.66475l-4.0297,-5.39449l-5.79085,4.94115c0,0 -0.93918,-8.83262 -1.70172,-8.8744c-1.21142,-0.06638 -2.97394,4.39018 -2.97394,4.39018c0,0 -2.75718,-3.66353 -4.3313,-4.11238c-1.72427,-0.49168 -3.77301,2.61445 -3.77301,2.61445c0,0 -3.91849,-3.35698 -4.11846,-3.37229c-1.21091,-0.09275 -5.56791,1.54743 -5.56791,1.54743c0,0 -4.38099,-2.17625 -5.62133,-2.27167c-1.85921,-0.14302 -6.73607,3.43379 -6.73607,3.43379c0,0 -3.62062,-5.95671 -5.07868,-6.07825c-2.43129,-0.20269 -7.66092,2.52455 -7.66092,2.52455c0,0 -1.64217,-4.00141 -3.23724,-4.13591c-1.10266,-0.09298 -4.18304,5.1903 -4.18304,5.1903c0,0 0.34794,-4.8528 -0.49072,-5.79579c-0.96858,-1.08908 -4.47166,1.83846 -4.47166,1.83846c0,0 1.43638,-5.19247 1.11727,-5.65476c-7.55013,-10.93817 -11.4459,-24.19678 -10.20285,-38.11009z" stroke-linecap="butt"/><path d="M275.20636,161.22921l-13.68981,-62.98244l12.52643,9.0091l0.94769,-53.24059l45.6813,30.74391l-2.89964,-34.53958l18.2132,21.48814l5.2062,-12.59412l11.71582,24.17247l16.38392,-18.94129l29.05538,67.62006" stroke-linecap="round"/></g><g fill="#75f20f" stroke="#000000" stroke-width="0"><path d="M268.96768,131.59623c2.96347,-33.16973 40.10428,-40.28937 75.44065,-37.13233c28.39735,2.53709 50.92229,22.05383 57.1357,46.83613c0.05899,0.23529 -132.57633,-9.70379 -132.57633,-9.70379z" stroke-linecap="butt"/><path d="M268.70288,131.30874c-2.33566,-10.74564 -7.18632,-33.06197 -7.18632,-33.06197l12.52643,9.0091l0.94769,-53.24059l45.6813,30.74391l-2.89964,-34.53958l18.2132,21.48814l5.2062,-12.59412l11.71582,24.17247l16.38392,-18.94129l29.05538,67.62006" stroke-linecap="round"/></g><g fill="#33965e" stroke="#000000" stroke-width="0" stroke-linecap="round"><path d="M264.87956,114.27709c-1.65555,-7.61666 -3.363,-16.03033 -3.363,-16.03033l12.52643,9.0091l0.94769,-53.24059l45.68131,30.74391l-2.89964,-34.53958l18.2132,21.48814l5.2062,-12.59412l11.71582,24.17247l16.38392,-18.94129c0,0 21.20219,48.89764 25.79078,59.5766"/></g><g fill="#2d7a1a" stroke="#000000" stroke-width="0" stroke-linecap="round"><path d="M274.27506,94.21804c0.17311,-9.7249 0.71561,-40.20276 0.71561,-40.20276l45.6813,30.74391l-2.89964,-34.53958l18.2132,21.48814l5.2062,-12.59412l11.71582,24.17247l16.38392,-18.94129c0,0 9.49543,22.09852 16.83222,39.17331"/></g><path d="M326.06975,179.64893l5.83635,-14.17023" fill="none" stroke="#81c10c" stroke-width="2" stroke-linecap="round"/><path d="M343.4174,165.14681l3.28633,14.98526" fill="none" stroke="#81c10c" stroke-width="2" stroke-linecap="round"/><path d="M288.29535,153.80273c1.15399,-12.91656 12.56044,-22.452 25.477,-21.298c12.91656,1.15399 22.452,12.56043 21.29801,25.47699c-1.15399,12.91656 -12.56043,22.45201 -25.477,21.298c-12.91656,-1.15399 -22.45201,-12.56043 -21.298,-25.477z" fill="#81c10c" stroke="none" stroke-width="0" stroke-linecap="butt"/><path d="M363.63656,184.1081c-12.91656,-1.15399 -22.452,-12.56044 -21.298,-25.47701c1.15399,-12.91656 12.56043,-22.452 25.477,-21.298c12.91656,1.15399 22.452,12.56042 21.29801,25.47699c-1.15399,12.91656 -12.56043,22.45201 -25.477,21.29801z" fill="#81c10c" stroke="none" stroke-width="0" stroke-linecap="butt"/><path d="M288.60884,150.29385c1.15399,-12.91656 12.56044,-22.452 25.477,-21.298c12.91656,1.15399 22.452,12.56043 21.298,25.477c-1.15399,12.91656 -12.56043,22.45201 -25.477,21.298c-12.91656,-1.15399 -22.45201,-12.56043 -21.298,-25.477z" fill="#ffffff" stroke="#000000" stroke-width="0" stroke-linecap="butt"/><path d="M363.95005,180.59923c-12.91656,-1.15399 -22.452,-12.56044 -21.298,-25.477c1.15399,-12.91656 12.56043,-22.45199 25.477,-21.298c12.91656,1.15399 22.45201,12.56043 21.29802,25.47699c-1.15399,12.91656 -12.56043,22.45201 -25.477,21.298z" fill="#ffffff" stroke="#000000" stroke-width="0" stroke-linecap="butt"/><path d="M279.5172,93.76266c0.96266,0.08601 1.67333,0.93612 1.58732,1.89878c-0.08601,0.96266 -0.93612,1.67333 -1.89878,1.58732c-0.8496,-0.07591 -1.50293,-0.74698 -1.58555,-1.56532c-0.35236,0.46197 -0.92691,0.73846 -1.54837,0.68293c-0.96266,-0.08601 -1.67334,-0.93612 -1.58733,-1.89878c0.08601,-0.96266 0.93612,-1.67333 1.89879,-1.58733c0.8496,0.07591 1.50293,0.74698 1.58555,1.56532c0.35236,-0.46197 0.92691,-0.73846 1.54837,-0.68293z" fill="#2d7a1a" stroke="none" stroke-width="0.5" stroke-linecap="butt"/><path d="M289.45973,94.85175c0.96266,0.08601 1.67334,0.93612 1.58733,1.89878c-0.08601,0.96266 -0.93612,1.67334 -1.89879,1.58733c-0.71758,-0.06411 -1.29515,-0.55279 -1.5071,-1.19619c-0.07296,-0.04965 -0.14023,-0.10674 -0.20078,-0.17008c-0.0586,0.00066 -0.11779,-0.00162 -0.1774,-0.00694c-0.96266,-0.08601 -1.67333,-0.93612 -1.58732,-1.89878c0.08601,-0.96266 0.93612,-1.67333 1.89878,-1.58732c0.78258,0.06992 1.39863,0.64481 1.55553,1.37463c0.10772,-0.01064 0.21798,-0.0114 0.32975,-0.00141z" fill="#2d7a1a" stroke="none" stroke-width="0.5" stroke-linecap="butt"/><path d="M303.20584,96.63204c0.08601,-0.96266 0.93612,-1.67333 1.89878,-1.58732c0.96266,0.08601 1.67333,0.93612 1.58732,1.89878c-0.08601,0.96266 -0.93612,1.67333 -1.89878,1.58732c-0.96266,-0.08601 -1.67333,-0.93612 -1.58732,-1.89878z" fill="#2d7a1a" stroke="none" stroke-width="0.5" stroke-linecap="butt"/><path d="M315.61003,97.13788c0.08601,-0.96266 0.93612,-1.67333 1.89878,-1.58732c0.96266,0.08601 1.67333,0.93612 1.58732,1.89878c-0.08601,0.96266 -0.93612,1.67333 -1.89878,1.58732c-0.96266,-0.08601 -1.67333,-0.93612 -1.58732,-1.89878z" fill="#2d7a1a" stroke="none" stroke-width="0.5" stroke-linecap="butt"/><path d="M328.34146,98.47614c-0.06144,0.68762 -0.66865,1.19524 -1.35627,1.13381c-0.41198,-0.03681 -0.75935,-0.26954 -0.95842,-0.5981c-0.06347,0.00125 -0.12765,-0.00093 -0.19232,-0.0067c-0.96266,-0.08601 -1.67333,-0.93612 -1.58732,-1.89878c0.08601,-0.96266 0.93612,-1.67334 1.89878,-1.58733c0.92081,0.08227 1.61108,0.86366 1.59408,1.77393c0.39728,0.23891 0.64551,0.69041 0.60149,1.18318z" fill="#2d7a1a" stroke="none" stroke-width="0.5" stroke-linecap="butt"/><path d="M339.96577,98.1593c0.96266,0.08601 1.67333,0.93612 1.58732,1.89878c-0.08601,0.96266 -0.93612,1.67333 -1.89878,1.58732c-0.61577,-0.05502 -1.12843,-0.42266 -1.39545,-0.93243c-0.04207,-0.00074 -0.08444,-0.00297 -0.12702,-0.00678c-0.96266,-0.08601 -1.67333,-0.93612 -1.58732,-1.89878c0.08601,-0.96266 0.93612,-1.67333 1.89878,-1.58732c0.61577,0.05502 1.12843,0.42266 1.39545,0.93243c0.04207,0.00074 0.08444,0.00297 0.12702,0.00678z" fill="#2d7a1a" stroke="none" stroke-width="0.5" stroke-linecap="butt"/><path d="M351.21462,100.92127c0.06559,-0.73424 0.57569,-1.32187 1.24121,-1.52126c0.3451,-0.29405 0.80353,-0.45463 1.29079,-0.41109c0.96266,0.08601 1.67333,0.93612 1.58732,1.89878c-0.06559,0.73424 -0.57569,1.32187 -1.24121,1.52126c-0.3451,0.29405 -0.80353,0.45463 -1.29079,0.41109c-0.96266,-0.08601 -1.67333,-0.93612 -1.58732,-1.89878z" fill="#2d7a1a" stroke="none" stroke-width="0.5" stroke-linecap="butt"/><path d="M367.67328,100.43396c0.96266,0.08601 1.67333,0.93612 1.58732,1.89878c-0.08601,0.96266 -0.93612,1.67333 -1.89878,1.58732c-0.36701,-0.03279 -0.69741,-0.17665 -0.96098,-0.39546c-0.19476,0.05297 -0.40207,0.07288 -0.61487,0.05387c-0.96266,-0.08601 -1.67334,-0.93612 -1.58733,-1.89878c0.08601,-0.96266 0.93612,-1.67333 1.89879,-1.58733c0.36701,0.03279 0.69741,0.17665 0.96097,0.39545c0.19476,-0.05297 0.40208,-0.07288 0.61488,-0.05387z" fill="#2d7a1a" stroke="none" stroke-width="0.5" stroke-linecap="butt"/><path d="M369.77641,102.17803c0.08601,-0.96266 0.93612,-1.67333 1.89878,-1.58732c0.96266,0.08601 1.67333,0.93612 1.58732,1.89878c-0.08601,0.96266 -0.93612,1.67333 -1.89878,1.58732c-0.96266,-0.08601 -1.67333,-0.93612 -1.58732,-1.89878z" fill="#2d7a1a" stroke="none" stroke-width="0.5" stroke-linecap="butt"/><path d="M382.52563,103.31708c0.08601,-0.96266 0.93612,-1.67333 1.89878,-1.58732c0.96266,0.08601 1.67333,0.93612 1.58732,1.89878c-0.08601,0.96266 -0.93612,1.67333 -1.89878,1.58732c-0.96266,-0.08601 -1.67333,-0.93612 -1.58732,-1.89878z" fill="#2d7a1a" stroke="none" stroke-width="0.5" stroke-linecap="butt"/><path d="M374.09495,102.16227c0.06144,-0.68762 0.66865,-1.19524 1.35627,-1.13381c0.68328,0.06104 1.18884,0.66103 1.1349,1.34328c0.3412,-0.52879 0.95696,-0.8552 1.6273,-0.7953c0.96266,0.08601 1.67334,0.93612 1.58733,1.89878c-0.08601,0.96266 -0.93612,1.67333 -1.89879,1.58733c-0.96266,-0.08601 -1.67333,-0.93612 -1.58732,-1.89878c0.00386,-0.04313 0.00924,-0.08576 0.0161,-0.12782c-0.25201,0.32684 -0.66042,0.52205 -1.10198,0.48261c-0.68762,-0.06144 -1.19524,-0.66865 -1.13381,-1.35627z" fill="#2d7a1a" stroke="none" stroke-width="0.5" stroke-linecap="butt"/><path d="M356.21257,101.167c0.08601,-0.96266 0.93612,-1.67334 1.89878,-1.58733c0.96266,0.08601 1.67333,0.93612 1.58733,1.89879c-0.08601,0.96266 -0.93612,1.67333 -1.89878,1.58732c-0.96266,-0.08601 -1.67333,-0.93612 -1.58732,-1.89878z" fill="#2d7a1a" stroke="none" stroke-width="0.5" stroke-linecap="butt"/><path d="M329.68251,99.19834c0.08601,-0.96266 0.93612,-1.67333 1.89878,-1.58732c0.96266,0.08601 1.67334,0.93612 1.58733,1.89878c-0.08601,0.96266 -0.93612,1.67333 -1.89878,1.58732c-0.96266,-0.08601 -1.67334,-0.93612 -1.58733,-1.89878z" fill="#2d7a1a" stroke="none" stroke-width="0.5" stroke-linecap="butt"/><path d="M318.87197,98.83488c0.08601,-0.96266 0.93612,-1.67333 1.89878,-1.58732c0.96266,0.08601 1.67333,0.93612 1.58732,1.89878c-0.08601,0.96266 -0.93612,1.67333 -1.89878,1.58732c-0.96266,-0.08601 -1.67333,-0.93612 -1.58732,-1.89878z" fill="#2d7a1a" stroke="none" stroke-width="0.5" stroke-linecap="butt"/><path d="M310.28828,98.2688c0.08601,-0.96266 0.93612,-1.67333 1.89878,-1.58732c0.96266,0.08601 1.67333,0.93612 1.58732,1.89878c-0.08601,0.96266 -0.93612,1.67333 -1.89878,1.58732c-0.96266,-0.08601 -1.67333,-0.93612 -1.58732,-1.89878z" fill="#2d7a1a" stroke="none" stroke-width="0.5" stroke-linecap="butt"/><path d="M297.91969,97.36455c0.08601,-0.96266 0.93612,-1.67333 1.89878,-1.58732c0.96266,0.08601 1.67334,0.93612 1.58733,1.89878c-0.08601,0.96266 -0.93612,1.67333 -1.89879,1.58733c-0.96266,-0.08601 -1.67333,-0.93612 -1.58732,-1.89878z" fill="#2d7a1a" stroke="none" stroke-width="0.5" stroke-linecap="butt"/><path d="M291.14666,96.75943c0.08601,-0.96266 0.93612,-1.67333 1.89878,-1.58732c0.96266,0.08601 1.67334,0.93612 1.58733,1.89878c-0.08601,0.96266 -0.93612,1.67333 -1.89879,1.58733c-0.96266,-0.08601 -1.67333,-0.93612 -1.58732,-1.89878z" fill="#2d7a1a" stroke="none" stroke-width="0.5" stroke-linecap="butt"/><path d="M282.37439,97.18048c0.01098,-0.12288 0.03939,-0.24003 0.08257,-0.34918c-0.64716,-0.30336 -1.06752,-0.98761 -1.00023,-1.74078c0.08601,-0.96266 0.93612,-1.67333 1.89878,-1.58732c0.96266,0.08601 1.67333,0.93612 1.58732,1.89878c-0.0348,0.38955 -0.19471,0.73783 -0.43658,1.00875c0.25069,0.25261 0.39236,0.60999 0.35822,0.99221c-0.06144,0.68762 -0.66865,1.19524 -1.35627,1.13381c-0.68762,-0.06144 -1.19524,-0.66865 -1.13381,-1.35627z" fill="#2d7a1a" stroke="none" stroke-width="0.5" stroke-linecap="butt"/><path d="M265.53331,113.74754c0.08601,-0.96266 0.93612,-1.67333 1.89878,-1.58732c0.96266,0.08601 1.67333,0.93612 1.58732,1.89878c-0.08601,0.96266 -0.93612,1.67333 -1.89878,1.58732c-0.96266,-0.08601 -1.67333,-0.93612 -1.58732,-1.89878z" fill="#33965e" stroke="none" stroke-width="0.5" stroke-linecap="butt"/><path d="M276.66389,116.14756c0.02453,-0.27457 0.13608,-0.52045 0.30503,-0.71285c-0.35572,0.38763 -0.88152,0.61114 -1.44602,0.5607c-0.96266,-0.08601 -1.67334,-0.93612 -1.58733,-1.89878c0.08601,-0.96266 0.93612,-1.67333 1.89879,-1.58733c0.96266,0.08601 1.67333,0.93612 1.58732,1.89878c-0.03455,0.38669 -0.19238,0.73273 -0.43129,1.0028c0.25404,-0.2748 0.62819,-0.43301 1.02976,-0.39714c0.68762,0.06144 1.19524,0.66865 1.13381,1.35627c-0.06144,0.68762 -0.66865,1.19524 -1.35627,1.13381c-0.68762,-0.06144 -1.19524,-0.66865 -1.13381,-1.35627z" fill="#33965e" stroke="none" stroke-width="0.5" stroke-linecap="butt"/><path d="M292.1515,114.16791c0.96266,0.08601 1.67333,0.93612 1.58732,1.89878c-0.08601,0.96266 -0.93612,1.67333 -1.89878,1.58732c-0.57019,-0.05094 -1.05197,-0.36995 -1.33216,-0.82164c-0.35584,0.39486 -0.88653,0.62341 -1.45672,0.57247c-0.96266,-0.08601 -1.67333,-0.93612 -1.58732,-1.89878c0.08601,-0.96266 0.93612,-1.67333 1.89878,-1.58732c0.57019,0.05094 1.05197,0.36995 1.33216,0.82164c0.35584,-0.39486 0.88653,-0.62341 1.45672,-0.57247z" fill="#33965e" stroke="none" stroke-width="0.5" stroke-linecap="butt"/><path d="M392.80419,122.55808c0.96266,0.08601 1.67333,0.93612 1.58732,1.89878c-0.08601,0.96266 -0.93612,1.67333 -1.89878,1.58732c-0.6169,-0.05512 -1.13032,-0.42402 -1.39691,-0.93525c-0.35273,0.34183 -0.84656,0.53402 -1.37418,0.48687c-0.96266,-0.08601 -1.67333,-0.93612 -1.58732,-1.89878c0.08601,-0.96266 0.93612,-1.67333 1.89878,-1.58732c0.6169,0.05512 1.13033,0.42402 1.39692,0.93524c0.35273,-0.34183 0.84655,-0.53402 1.37418,-0.48687z" fill="#33965e" stroke="none" stroke-width="0.5" stroke-linecap="butt"/><path d="M377.16016,122.91738c0.08601,-0.96266 0.93612,-1.67333 1.89878,-1.58732c0.96266,0.08601 1.67334,0.93612 1.58733,1.89878c-0.08601,0.96266 -0.93612,1.67333 -1.89878,1.58732c-0.96266,-0.08601 -1.67334,-0.93612 -1.58733,-1.89878z" fill="#33965e" stroke="none" stroke-width="0.5" stroke-linecap="butt"/><path d="M372.99462,122.34442c0.08601,-0.96266 0.93612,-1.67334 1.89878,-1.58733c0.96266,0.08601 1.67333,0.93612 1.58733,1.89879c-0.08601,0.96266 -0.93612,1.67333 -1.89878,1.58732c-0.96266,-0.08601 -1.67333,-0.93612 -1.58732,-1.89878z" fill="#33965e" stroke="none" stroke-width="0.5" stroke-linecap="butt"/><path d="M368.03225,121.70028c0.08601,-0.96266 0.93612,-1.67333 1.89878,-1.58732c0.96266,0.08601 1.67333,0.93612 1.58732,1.89878c-0.08601,0.96266 -0.93612,1.67333 -1.89878,1.58732c-0.96266,-0.08601 -1.67333,-0.93612 -1.58732,-1.89878z" fill="#33965e" stroke="none" stroke-width="0.5" stroke-linecap="butt"/><path d="M365.41812,123.26915c-0.49924,1.14597 -1.64522,0.64673 -1.64522,0.64673l-1.15964,-0.50519c0,0 -1.14597,-0.49924 -0.64673,-1.64522c0.49924,-1.14597 1.64522,-0.64673 1.64522,-0.64673l0.0603,0.02627c0.16196,-0.87817 0.96923,-1.50466 1.87645,-1.42361c0.96266,0.08601 1.67333,0.93612 1.58732,1.89878c-0.07987,0.89399 -0.81871,1.57066 -1.69471,1.59378c-0.00724,0.01822 -0.0149,0.03663 -0.02298,0.0552z" fill="#33965e" stroke="none" stroke-width="0.5" stroke-linecap="butt"/><path d="M358.45254,121.04519c0.08601,-0.96266 0.93612,-1.67333 1.89879,-1.58733c0.96266,0.08601 1.67333,0.93612 1.58732,1.89878c-0.08601,0.96266 -0.93612,1.67333 -1.89878,1.58732c-0.22938,-0.02049 -0.44446,-0.08436 -0.63785,-0.18281c-0.47768,-0.14289 -0.82668,-0.56037 -0.88263,-1.05581c-0.0626,-0.20779 -0.08734,-0.43078 -0.06685,-0.66016z" fill="#33965e" stroke="none" stroke-width="0.5" stroke-linecap="butt"/><path d="M350.28507,120.31549c0.15573,-1.74305 1.89878,-1.58732 1.89878,-1.58732l2.19128,0.19578c0,0 1.74305,0.15573 1.58732,1.89878c-0.15573,1.74305 -1.89878,1.58732 -1.89878,1.58732l-2.19127,-0.19577c0,0 -1.74305,-0.15573 -1.58733,-1.89878z" fill="#33965e" stroke="none" stroke-width="0.5" stroke-linecap="butt"/><path d="M345.0879,120.05197c0.08601,-0.96266 0.93612,-1.67334 1.89878,-1.58733c0.96266,0.08601 1.67334,0.93612 1.58733,1.89879c-0.08601,0.96266 -0.93612,1.67333 -1.89879,1.58733c-0.96266,-0.08601 -1.67333,-0.93612 -1.58732,-1.89878z" fill="#33965e" stroke="none" stroke-width="0.5" stroke-linecap="butt"/><path d="M339.27532,119.93424c0.08601,-0.96266 0.93612,-1.67333 1.89878,-1.58732c0.96266,0.08601 1.67334,0.93612 1.58733,1.89878c-0.08601,0.96266 -0.93612,1.67333 -1.89878,1.58732c-0.96266,-0.08601 -1.67334,-0.93612 -1.58733,-1.89878z" fill="#33965e" stroke="none" stroke-width="0.5" stroke-linecap="butt"/><path d="M334.49437,119.50711c0.08601,-0.96266 0.93612,-1.67333 1.89878,-1.58732c0.96266,0.08601 1.67333,0.93612 1.58732,1.89878c-0.08601,0.96266 -0.93612,1.67334 -1.89878,1.58733c-0.96266,-0.08601 -1.67333,-0.93612 -1.58733,-1.89879z" fill="#33965e" stroke="none" stroke-width="0.5" stroke-linecap="butt"/><path d="M326.5261,118.7952c0.08601,-0.96266 0.93612,-1.67333 1.89878,-1.58732c0.96266,0.08601 1.67333,0.93612 1.58732,1.89878c-0.08601,0.96266 -0.93612,1.67333 -1.89878,1.58732c-0.96266,-0.08601 -1.67333,-0.93612 -1.58732,-1.89878z" fill="#33965e" stroke="none" stroke-width="0.5" stroke-linecap="butt"/><path d="M319.75308,118.19008c0.08601,-0.96266 0.93612,-1.67333 1.89878,-1.58732c0.96266,0.08601 1.67333,0.93612 1.58732,1.89878c-0.08601,0.96266 -0.93612,1.67334 -1.89878,1.58733c-0.96266,-0.08601 -1.67333,-0.93612 -1.58733,-1.89879z" fill="#33965e" stroke="none" stroke-width="0.5" stroke-linecap="butt"/><path d="M318.36599,117.84204c-0.2862,1.21679 -1.50299,0.93061 -1.50299,0.93061l-1.18408,-0.27849c-0.31747,0.61066 -0.98112,1.00126 -1.70914,0.93621c-0.96266,-0.08601 -1.67334,-0.93612 -1.58733,-1.89878c0.08601,-0.96266 0.93612,-1.67333 1.89879,-1.58733c0.27517,0.02458 0.52977,0.11161 0.75105,0.24585c0.45228,-0.30987 1.02647,-0.17482 1.02647,-0.17482l1.37664,0.32379c0,0 1.21679,0.2862 0.93061,1.50298z" fill="#33965e" stroke="none" stroke-width="0.5" stroke-linecap="butt"/><path d="M311.87724,118.69122c-0.06144,0.68762 -0.66865,1.19524 -1.35627,1.13381c-0.49105,-0.04387 -0.8903,-0.36608 -1.05606,-0.79714l-1.47132,-0.13145c0,0 -1.74306,-0.15573 -1.58733,-1.89879c0.15573,-1.74305 1.89879,-1.58733 1.89879,-1.58733l2.19127,0.19577c0,0 1.74305,0.15573 1.58733,1.89878c-0.02921,0.32689 -0.11424,0.58699 -0.23313,0.79388c0.02892,0.12536 0.0388,0.25736 0.02674,0.39247z" fill="#33965e" stroke="none" stroke-width="0.5" stroke-linecap="butt"/><path d="M295.61349,116.43499c0.08601,-0.96266 0.93612,-1.67333 1.89879,-1.58733c0.42636,0.03809 0.8033,0.22607 1.08348,0.50734c0.3529,-0.45682 0.92419,-0.72956 1.5418,-0.67438c0.96266,0.08601 1.67334,0.93612 1.58733,1.89878c-0.08601,0.96266 -0.93612,1.67333 -1.89878,1.58732c-0.42636,-0.03809 -0.8033,-0.22607 -1.08348,-0.50734c-0.3529,0.45682 -0.92419,0.72956 -1.5418,0.67438c-0.96266,-0.08601 -1.67334,-0.93612 -1.58733,-1.89878z" fill="#33965e" stroke="none" stroke-width="0.5" stroke-linecap="butt"/><path d="M382.1013,121.55166c0.08601,-0.96266 0.93612,-1.67334 1.89878,-1.58733c0.96266,0.08601 1.67333,0.93612 1.58733,1.89879c-0.08601,0.96266 -0.93612,1.67333 -1.89878,1.58732c-0.96266,-0.08601 -1.67333,-0.93612 -1.58732,-1.89878z" fill="#33965e" stroke="none" stroke-width="0.5" stroke-linecap="butt"/><path d="M269.61609,130.97923c0.08601,-0.96266 0.93612,-1.67333 1.89879,-1.58733c0.96266,0.08601 1.67333,0.93612 1.58732,1.89878c-0.08601,0.96266 -0.93612,1.67333 -1.89878,1.58732c-0.96266,-0.08601 -1.67334,-0.93612 -1.58733,-1.89878z" fill="#75f20f" stroke="none" stroke-width="0.5" stroke-linecap="butt"/><path d="M285.34365,131.93257c0.68762,0.06144 1.19524,0.66865 1.13381,1.35627c-0.06144,0.68762 -0.66865,1.19524 -1.35627,1.13381c-0.16021,-0.01431 -0.31063,-0.05825 -0.44638,-0.12593c-0.53798,0.33918 -1.17398,0.28236 -1.17398,0.28236l-1.32679,-0.11854c0.09821,0.19892 0.1447,0.42649 0.12351,0.66362c-0.06144,0.68762 -0.66865,1.19524 -1.35627,1.1338c-0.68762,-0.06144 -1.19524,-0.66865 -1.13381,-1.35627c0.04166,-0.46626 0.33427,-0.84976 0.73272,-1.02919c-0.03631,-0.03717 -0.07129,-0.07682 -0.10458,-0.11913c-0.34795,0.30868 -0.81747,0.47882 -1.31733,0.43417c-0.96266,-0.08601 -1.67334,-0.93612 -1.58733,-1.89878c0.08601,-0.96266 0.93612,-1.67333 1.89879,-1.58733c0.49986,0.04466 0.93177,0.29533 1.21951,0.66082c0.56477,-0.50141 1.37018,-0.42944 1.37018,-0.42944l1.79286,0.16018c0,0 0.95367,0.0852 1.38716,0.83497c0.04756,-0.00119 0.09568,0.00031 0.1442,0.00464z" fill="#75f20f" stroke="none" stroke-width="0.5" stroke-linecap="butt"/><path d="M288.78956,135.50339c0.02026,-0.2268 0.0999,-0.43402 0.22223,-0.60771c-0.37625,-0.35536 -0.5919,-0.87336 -0.54227,-1.42886c0.08601,-0.96266 0.93612,-1.67333 1.89878,-1.58732c0.17305,0.01546 0.33796,0.05561 0.49157,0.11668c0.16199,-0.03286 0.33141,-0.04315 0.50446,-0.02769c0.96266,0.08601 1.67334,0.93612 1.58733,1.89878c-0.07932,0.88774 -0.80842,1.56118 -1.67634,1.59319c0.01065,0.08638 0.01238,0.1752 0.00431,0.2654c-0.06144,0.68762 -0.66865,1.19524 -1.35627,1.13381c-0.68762,-0.06144 -1.19524,-0.66865 -1.13381,-1.35627z" fill="#75f20f" stroke="none" stroke-width="0.5" stroke-linecap="butt"/><path d="M343.06991,138.14417c-0.06144,0.68762 -0.66865,1.19524 -1.35627,1.13381c-0.12109,-0.01082 -0.23659,-0.03856 -0.34439,-0.08069c-0.31084,0.19271 -0.68444,0.28997 -1.07676,0.25491c-0.59478,-0.05314 -1.09337,-0.39798 -1.36729,-0.88081c-0.33879,0.53923 -0.96079,0.87361 -1.63861,0.81306c-0.53606,-0.04789 -0.99398,-0.33273 -1.27972,-0.74198c-0.26558,0.1202 -0.5649,0.17559 -0.87595,0.1478c-0.78258,-0.06992 -1.39864,-0.64482 -1.55553,-1.37463c-0.10772,0.01064 -0.21798,0.0114 -0.32975,0.00141c-0.96266,-0.08601 -1.67333,-0.93612 -1.58732,-1.89878c0.08601,-0.96266 0.93612,-1.67333 1.89878,-1.58732c0.78258,0.06992 1.39863,0.64481 1.55552,1.37463c0.10772,-0.01064 0.21798,-0.0114 0.32976,-0.00141c0.53606,0.04789 0.99398,0.33273 1.27972,0.74198c0.26558,-0.1202 0.5649,-0.17559 0.87595,-0.14779c0.59478,0.05314 1.09336,0.39798 1.36728,0.88082c0.33879,-0.53923 0.9608,-0.87361 1.63861,-0.81306c0.57027,0.05095 1.05211,0.37003 1.33229,0.82182c0.68756,0.0615 1.1951,0.66869 1.13367,1.35626z" fill="#75f20f" stroke="none" stroke-width="0.5" stroke-linecap="butt"/><path d="M345.32519,138.74725c0.01656,-0.18534 0.07277,-0.3576 0.15952,-0.50918c-0.08303,-0.06373 -0.16004,-0.13465 -0.23014,-0.21175c-0.19014,0.08641 -0.40457,0.12629 -0.62745,0.10638c-0.68762,-0.06144 -1.19524,-0.66866 -1.13381,-1.35628c0.06144,-0.68762 0.66865,-1.19524 1.35627,-1.1338c0.12521,0.01119 0.24445,0.04047 0.35537,0.08504c0.35525,-0.42518 0.90611,-0.67512 1.49978,-0.62208c0.96266,0.08601 1.67333,0.93612 1.58732,1.89878c-0.04422,0.49489 -0.29037,0.92318 -0.64994,1.21087c0.1317,0.21906 0.19764,0.48039 0.17316,0.75449c-0.06144,0.68762 -0.66865,1.19524 -1.35627,1.13381c-0.68762,-0.06144 -1.19524,-0.66865 -1.13381,-1.35627z" fill="#75f20f" stroke="none" stroke-width="0.5" stroke-linecap="butt"/><path d="M384.06743,139.99981c0.08601,-0.96266 0.93612,-1.67333 1.89879,-1.58733c0.96266,0.08601 1.67333,0.93612 1.58732,1.89878c-0.08601,0.96266 -0.93612,1.67333 -1.89878,1.58732c-0.96266,-0.08601 -1.67334,-0.93612 -1.58733,-1.89878z" fill="#75f20f" stroke="none" stroke-width="0.5" stroke-linecap="butt"/><path d="M395.76723,141.64749c-0.06144,0.68762 -0.66865,1.19524 -1.35627,1.13381c-0.17585,-0.01571 -0.33993,-0.06712 -0.48574,-0.14644c-0.25067,-0.03624 -0.48233,-0.12469 -0.6848,-0.25321c-0.19873,0.50118 -0.70895,0.83413 -1.27335,0.7837c-0.5666,-0.05062 -1.01099,-0.47184 -1.11548,-1.00325c-0.96249,-0.08617 -1.67298,-0.9362 -1.58699,-1.89876c0.08601,-0.96266 0.93612,-1.67333 1.89878,-1.58732c0.75218,0.0672 1.35051,0.60089 1.53518,1.29027c0.33972,-0.53526 0.95936,-0.86661 1.63433,-0.8063c0.96266,0.08601 1.67333,0.93612 1.58733,1.89879c-0.01825,0.20426 -0.07091,0.39718 -0.15173,0.57355c-0.0004,0.00505 -0.00081,0.01012 -0.00126,0.01517z" fill="#75f20f" stroke="none" stroke-width="0.5" stroke-linecap="butt"/><path d="M396.14066,143.08643c0.05801,-0.64936 0.60278,-1.1382 1.24233,-1.13884c-0.01334,-0.11633 -0.01514,-0.23573 -0.0043,-0.35692c0.08601,-0.96266 0.93612,-1.67333 1.89878,-1.58732c0.96266,0.08601 1.67333,0.93612 1.58732,1.89878c-0.08601,0.96266 -0.93612,1.67333 -1.89878,1.58732c-0.12119,-0.01083 -0.23839,-0.03377 -0.3505,-0.06751c-0.11401,0.62929 -0.69167,1.07878 -1.34104,1.02076c-0.68762,-0.06144 -1.19524,-0.66865 -1.13381,-1.35627z" fill="#75f20f" stroke="none" stroke-width="0.5" stroke-linecap="butt"/><path d="M272.80308,136.88626c0.06144,-0.68762 0.66865,-1.19524 1.35627,-1.13381c0.68762,0.06144 1.19524,0.66865 1.13381,1.35627c-0.06144,0.68762 -0.66865,1.19524 -1.35627,1.13381c-0.68762,-0.06144 -1.19524,-0.66865 -1.13381,-1.35627z" fill="#75f20f" stroke="none" stroke-width="0.5" stroke-linecap="butt"/><path d="M334.93428,140.42925c0.06144,-0.68762 0.66865,-1.19524 1.35627,-1.13381c0.68762,0.06144 1.19524,0.66865 1.13381,1.35627c-0.06144,0.68762 -0.66865,1.19524 -1.35627,1.13381c-0.68762,-0.06144 -1.19524,-0.66865 -1.13381,-1.35627z" fill="#75f20f" stroke="none" stroke-width="0.5" stroke-linecap="butt"/><path d="M388.69883,143.22474c0.06144,-0.68762 0.66865,-1.19524 1.35627,-1.13381c0.68762,0.06144 1.19524,0.66865 1.13381,1.35627c-0.06144,0.68762 -0.66865,1.19524 -1.35627,1.13381c-0.68762,-0.06144 -1.19524,-0.66865 -1.13381,-1.35627z" fill="#75f20f" stroke="none" stroke-width="0.5" stroke-linecap="butt"/><path d="M398.33536,145.49127c0.06144,-0.68762 0.66866,-1.19524 1.35628,-1.13381c0.68762,0.06144 1.19524,0.66865 1.13381,1.35627c-0.06144,0.68762 -0.66866,1.19524 -1.35628,1.13381c-0.68762,-0.06144 -1.19524,-0.66865 -1.13381,-1.35627z" fill="#75f20f" stroke="none" stroke-width="0.5" stroke-linecap="butt"/><path d="M269.84435,120.5582c0.06144,-0.68762 0.66865,-1.19524 1.35627,-1.13381c0.68762,0.06144 1.19524,0.66865 1.13381,1.35627c-0.06144,0.68762 -0.66865,1.19524 -1.35627,1.13381c-0.68762,-0.06144 -1.19524,-0.66865 -1.13381,-1.35627z" fill="#33965e" stroke="none" stroke-width="0.5" stroke-linecap="butt"/><path d="M272.91799,117.62006c0.06144,-0.68762 0.66865,-1.19524 1.35627,-1.13381c0.68762,0.06144 1.19524,0.66865 1.13381,1.35627c-0.06144,0.68762 -0.66865,1.19524 -1.35627,1.13381c-0.68762,-0.06144 -1.19524,-0.66865 -1.13381,-1.35627z" fill="#33965e" stroke="none" stroke-width="0.5" stroke-linecap="butt"/><path d="M282.44088,116.66369c0.06144,-0.68762 0.66865,-1.19524 1.35627,-1.13381c0.68762,0.06144 1.19524,0.66865 1.13381,1.35627c-0.06144,0.68762 -0.66865,1.19524 -1.35627,1.13381c-0.68762,-0.06144 -1.19524,-0.66865 -1.13381,-1.35627z" fill="#33965e" stroke="none" stroke-width="0.5" stroke-linecap="butt"/><path d="M297.2212,119.79137c0.06144,-0.68762 0.66865,-1.19524 1.35627,-1.13381c0.68762,0.06144 1.19524,0.66865 1.13381,1.35627c-0.06144,0.68762 -0.66865,1.19524 -1.35627,1.13381c-0.68762,-0.06144 -1.19524,-0.66865 -1.13381,-1.35627z" fill="#33965e" stroke="none" stroke-width="0.5" stroke-linecap="butt"/><path d="M302.47519,121.66635c0.06144,-0.68762 0.66865,-1.19524 1.35627,-1.13381c0.68762,0.06144 1.19524,0.66865 1.13381,1.35627c-0.06144,0.68762 -0.66865,1.19524 -1.35627,1.13381c-0.68762,-0.06144 -1.19524,-0.66865 -1.13381,-1.35627z" fill="#33965e" stroke="none" stroke-width="0.5" stroke-linecap="butt"/><path d="M334.07098,123.83567c-1.01769,0.72581 -1.7435,-0.29188 -1.7435,-0.29188l-1.07066,-1.50124c0,0 -0.72581,-1.01769 0.29189,-1.7435c1.01769,-0.72581 1.7435,0.29189 1.7435,0.29189l1.07065,1.50123c0,0 0.72581,1.01769 -0.29188,1.7435z" fill="#33965e" stroke="none" stroke-width="0.5" stroke-linecap="butt"/><path d="M339.058,125.73793c0.06144,-0.68762 0.66865,-1.19524 1.35627,-1.13381c0.68762,0.06144 1.19524,0.66865 1.13381,1.35627c-0.06144,0.68762 -0.66865,1.19524 -1.35627,1.13381c-0.68762,-0.06144 -1.19524,-0.66865 -1.13381,-1.35627z" fill="#33965e" stroke="none" stroke-width="0.5" stroke-linecap="butt"/><path d="M341.7935,126.58472c0.06144,-0.68762 0.66865,-1.19524 1.35627,-1.13381c0.68762,0.06144 1.19524,0.66865 1.13381,1.35627c-0.06144,0.68762 -0.66865,1.19524 -1.35627,1.13381c-0.68762,-0.06144 -1.19524,-0.66865 -1.13381,-1.35627z" fill="#33965e" stroke="none" stroke-width="0.5" stroke-linecap="butt"/><path d="M383.8726,125.32425c0.06144,-0.68762 0.66865,-1.19524 1.35627,-1.13381c0.68762,0.06144 1.19524,0.66865 1.13381,1.35627c-0.06144,0.68762 -0.66865,1.19524 -1.35627,1.13381c-0.68762,-0.06144 -1.19524,-0.66865 -1.13381,-1.35627z" fill="#33965e" stroke="none" stroke-width="0.5" stroke-linecap="butt"/><path d="M389.14783,129.2091c0.06144,-0.68762 0.66865,-1.19524 1.35627,-1.13381c0.68762,0.06144 1.19524,0.66865 1.13381,1.35627c-0.06144,0.68762 -0.66865,1.19524 -1.35627,1.13381c-0.68762,-0.06144 -1.19524,-0.66865 -1.13381,-1.35627z" fill="#33965e" stroke="none" stroke-width="0.5" stroke-linecap="butt"/><path d="M276.42286,100.86548c0.06144,-0.68762 0.66865,-1.19524 1.35627,-1.13381c0.68762,0.06144 1.19524,0.66865 1.13381,1.35627c-0.06144,0.68762 -0.66865,1.19524 -1.35627,1.13381c-0.68762,-0.06144 -1.19524,-0.66865 -1.13381,-1.35627z" fill="#2d7a1a" stroke="none" stroke-width="0.5" stroke-linecap="butt"/><path d="M299.6554,101.53555c0.06144,-0.68762 0.66865,-1.19524 1.35627,-1.13381c0.68762,0.06144 1.19524,0.66865 1.13381,1.35627c-0.06144,0.68762 -0.66865,1.19524 -1.35627,1.13381c-0.68762,-0.06144 -1.19524,-0.66865 -1.13381,-1.35627z" fill="#2d7a1a" stroke="none" stroke-width="0.5" stroke-linecap="butt"/><path d="M306.70568,105.77979c0.06144,-0.68762 0.66865,-1.19524 1.35627,-1.13381c0.68762,0.06144 1.19524,0.66865 1.13381,1.35627c-0.06144,0.68762 -0.66865,1.19524 -1.35627,1.13381c-0.68762,-0.06144 -1.19524,-0.66865 -1.13381,-1.35627z" fill="#2d7a1a" stroke="none" stroke-width="0.5" stroke-linecap="butt"/><path d="M321.58248,101.08502c0.06144,-0.68762 0.66865,-1.19524 1.35627,-1.13381c0.68762,0.06144 1.19524,0.66865 1.13381,1.35627c-0.06144,0.68762 -0.66865,1.19524 -1.35627,1.13381c-0.68762,-0.06144 -1.19524,-0.66865 -1.13381,-1.35627z" fill="#2d7a1a" stroke="none" stroke-width="0.5" stroke-linecap="butt"/><path d="M349.81985,106.41896c0.06144,-0.68762 0.66865,-1.19524 1.35627,-1.13381c0.68762,0.06144 1.19524,0.66865 1.13381,1.35627c-0.06144,0.68762 -0.66865,1.19524 -1.35627,1.13381c-0.68762,-0.06144 -1.19524,-0.66865 -1.13381,-1.35627z" fill="#2d7a1a" stroke="none" stroke-width="0.5" stroke-linecap="butt"/><path d="M354.31262,107.82434c0.06144,-0.68762 0.66865,-1.19524 1.35627,-1.13381c0.68762,0.06144 1.19524,0.66865 1.13381,1.35627c-0.06144,0.68762 -0.66865,1.19524 -1.35627,1.13381c-0.68762,-0.06144 -1.19524,-0.66865 -1.13381,-1.35627z" fill="#2d7a1a" stroke="none" stroke-width="0.5" stroke-linecap="butt"/><path d="M369.59126,105.37424c0.06144,-0.68762 0.66866,-1.19524 1.35628,-1.13381c0.68762,0.06144 1.19524,0.66865 1.13381,1.35627c-0.06144,0.68762 -0.66866,1.19524 -1.35628,1.13381c-0.68762,-0.06144 -1.19524,-0.66865 -1.13381,-1.35627z" fill="#2d7a1a" stroke="none" stroke-width="0.5" stroke-linecap="butt"/><path d="M382.48973,109.33777c0.06144,-0.68762 0.66865,-1.19524 1.35627,-1.13381c0.68762,0.06144 1.19524,0.66865 1.13381,1.35627c-0.06144,0.68762 -0.66865,1.19524 -1.35627,1.13381c-0.68762,-0.06144 -1.19524,-0.66865 -1.13381,-1.35627z" fill="#2d7a1a" stroke="none" stroke-width="0.5" stroke-linecap="butt"/><path d="M275.86395,108.24503c0.03686,-0.41257 0.40119,-0.71714 0.81376,-0.68029c0.41257,0.03686 0.71714,0.40119 0.68028,0.81376c-0.03686,0.41257 -0.40119,0.71714 -0.81376,0.68029c-0.41257,-0.03686 -0.71714,-0.40119 -0.68028,-0.81376z" fill="#2d7a1a" stroke="none" stroke-width="0.5" stroke-linecap="butt"/><path d="M283.97803,109.57234c0.03686,-0.41257 0.40119,-0.71714 0.81376,-0.68029c0.41257,0.03686 0.71714,0.4012 0.68029,0.81377c-0.03686,0.41257 -0.40119,0.71714 -0.81376,0.68028c-0.41257,-0.03686 -0.71714,-0.40119 -0.68029,-0.81376z" fill="#2d7a1a" stroke="none" stroke-width="0.5" stroke-linecap="butt"/><path d="M290.95025,110.19526c0.03686,-0.41257 0.40119,-0.71714 0.81376,-0.68029c0.41257,0.03686 0.71714,0.40119 0.68029,0.81376c-0.03686,0.41257 -0.40119,0.71714 -0.81376,0.68029c-0.41257,-0.03686 -0.71714,-0.40119 -0.68029,-0.81376z" fill="#2d7a1a" stroke="none" stroke-width="0.5" stroke-linecap="butt"/><path d="M299.73313,110.77914c0.03686,-0.41257 0.4012,-0.71714 0.81377,-0.68029c0.41257,0.03686 0.71714,0.40119 0.68028,0.81376c-0.03686,0.41257 -0.40119,0.71714 -0.81376,0.68029c-0.41257,-0.03686 -0.71714,-0.40119 -0.68029,-0.81376z" fill="#2d7a1a" stroke="none" stroke-width="0.5" stroke-linecap="butt"/><path d="M314.29302,111.87916c0.03686,-0.41257 0.40119,-0.71714 0.81376,-0.68029c0.41257,0.03686 0.71714,0.40119 0.68029,0.81376c-0.03686,0.41257 -0.40119,0.71714 -0.81376,0.68029c-0.41257,-0.03686 -0.71714,-0.40119 -0.68029,-0.81376z" fill="#2d7a1a" stroke="none" stroke-width="0.5" stroke-linecap="butt"/><path d="M328.68928,112.56297c0.03686,-0.41257 0.40119,-0.71714 0.81376,-0.68029c0.41257,0.03686 0.71714,0.40119 0.68029,0.81376c-0.03686,0.41257 -0.40119,0.71714 -0.81376,0.68029c-0.41257,-0.03686 -0.71714,-0.40119 -0.68029,-0.81376z" fill="#2d7a1a" stroke="none" stroke-width="0.5" stroke-linecap="butt"/><path d="M338.46819,113.23585c0.03686,-0.41257 0.40119,-0.71714 0.81376,-0.68029c0.41257,0.03686 0.71714,0.40119 0.68029,0.81376c-0.03686,0.41257 -0.40119,0.71714 -0.81376,0.68029c-0.41257,-0.03686 -0.71714,-0.40119 -0.68029,-0.81376z" fill="#2d7a1a" stroke="none" stroke-width="0.5" stroke-linecap="butt"/><path d="M347.23329,114.01894c0.03686,-0.41257 0.40119,-0.71714 0.81376,-0.68028c0.41257,0.03686 0.71714,0.40119 0.68029,0.81376c-0.03686,0.41257 -0.40119,0.71714 -0.81376,0.68029c-0.41257,-0.03686 -0.71714,-0.4012 -0.68029,-0.81377z" fill="#2d7a1a" stroke="none" stroke-width="0.5" stroke-linecap="butt"/><path d="M358.28207,116.21085c0.03686,-0.41257 0.40119,-0.71714 0.81376,-0.68029c0.41257,0.03686 0.71714,0.40119 0.68029,0.81376c-0.03686,0.41257 -0.40119,0.71714 -0.81376,0.68029c-0.41257,-0.03686 -0.71714,-0.40119 -0.68029,-0.81376z" fill="#2d7a1a" stroke="none" stroke-width="0.5" stroke-linecap="butt"/><path d="M365.25429,116.83376c0.03686,-0.41257 0.40119,-0.71714 0.81376,-0.68029c0.41257,0.03686 0.71714,0.40119 0.68029,0.81376c-0.03686,0.41257 -0.40119,0.71714 -0.81376,0.68029c-0.41257,-0.03686 -0.71714,-0.40119 -0.68029,-0.81376z" fill="#2d7a1a" stroke="none" stroke-width="0.5" stroke-linecap="butt"/><path d="M376.60907,117.84823c0.03686,-0.41257 0.40119,-0.71714 0.81376,-0.68029c0.41257,0.03686 0.71714,0.40119 0.68029,0.81376c-0.03686,0.41257 -0.40119,0.71714 -0.81376,0.68029c-0.41257,-0.03686 -0.71714,-0.40119 -0.68029,-0.81376z" fill="#2d7a1a" stroke="none" stroke-width="0.5" stroke-linecap="butt"/><path d="M382.98368,118.41774c0.03686,-0.41257 0.40119,-0.71714 0.81376,-0.68028c0.41257,0.03686 0.71714,0.40119 0.68028,0.81376c-0.03686,0.41257 -0.40119,0.71714 -0.81376,0.68028c-0.41257,-0.03686 -0.71714,-0.40119 -0.68028,-0.81376z" fill="#2d7a1a" stroke="none" stroke-width="0.5" stroke-linecap="butt"/><path d="M271.47327,125.92444c0.03686,-0.41257 0.40119,-0.71714 0.81376,-0.68028c0.41257,0.03686 0.71714,0.40119 0.68029,0.81376c-0.03686,0.41257 -0.40119,0.71714 -0.81376,0.68029c-0.41257,-0.03686 -0.71714,-0.4012 -0.68029,-0.81377z" fill="#33965e" stroke="none" stroke-width="0.5" stroke-linecap="butt"/><path d="M281.30216,123.79063c0.03686,-0.41257 0.40119,-0.71714 0.81376,-0.68029c0.41257,0.03686 0.71714,0.40119 0.68029,0.81376c-0.03686,0.41257 -0.40119,0.71714 -0.81376,0.68029c-0.41257,-0.03686 -0.71714,-0.40119 -0.68029,-0.81376z" fill="#33965e" stroke="none" stroke-width="0.5" stroke-linecap="butt"/><path d="M291.12353,128.48322c0.03686,-0.41257 0.40119,-0.71714 0.81376,-0.68028c0.41257,0.03686 0.71714,0.40119 0.68029,0.81376c-0.03686,0.41257 -0.40119,0.71714 -0.81376,0.68028c-0.41257,-0.03686 -0.71714,-0.40119 -0.68029,-0.81376z" fill="#33965e" stroke="none" stroke-width="0.5" stroke-linecap="butt"/><path d="M314.72982,124.96997c0.03686,-0.41257 0.40119,-0.71714 0.81376,-0.68029c0.41257,0.03686 0.71714,0.40119 0.68029,0.81376c-0.03686,0.41257 -0.40119,0.71714 -0.81376,0.68029c-0.41257,-0.03686 -0.71714,-0.40119 -0.68029,-0.81376z" fill="#33965e" stroke="none" stroke-width="0.5" stroke-linecap="butt"/><path d="M334.63268,126.94894c0.03686,-0.41257 0.40119,-0.71714 0.81376,-0.68029c0.41257,0.03686 0.71714,0.40119 0.68028,0.81376c-0.03686,0.41257 -0.40119,0.71714 -0.81376,0.68029c-0.41257,-0.03686 -0.71714,-0.40119 -0.68028,-0.81376z" fill="#33965e" stroke="none" stroke-width="0.5" stroke-linecap="butt"/><path d="M343.94886,132.80118c0.03686,-0.41257 0.40119,-0.71714 0.81376,-0.68029c0.41257,0.03686 0.71714,0.40119 0.68029,0.81376c-0.03686,0.41257 -0.40119,0.71714 -0.81376,0.68029c-0.41257,-0.03686 -0.71714,-0.40119 -0.68029,-0.81376z" fill="#33965e" stroke="none" stroke-width="0.5" stroke-linecap="butt"/><path d="M363.71684,129.54738c0.03686,-0.41257 0.40119,-0.71714 0.81376,-0.68029c0.41257,0.03686 0.71714,0.40119 0.68029,0.81376c-0.03686,0.41257 -0.40119,0.71714 -0.81376,0.68029c-0.41257,-0.03686 -0.71714,-0.40119 -0.68029,-0.81376z" fill="#33965e" stroke="none" stroke-width="0.5" stroke-linecap="butt"/><path d="M353.97351,128.47609c0.03686,-0.41257 0.40119,-0.71714 0.81376,-0.68029c0.41257,0.03686 0.71714,0.40119 0.68029,0.81376c-0.03686,0.41257 -0.40119,0.71714 -0.81376,0.68029c-0.41257,-0.03686 -0.71714,-0.40119 -0.68029,-0.81376z" fill="#33965e" stroke="none" stroke-width="0.5" stroke-linecap="butt"/><path d="M373.02615,130.9815c0.03686,-0.41257 0.40119,-0.71714 0.81376,-0.68029c0.41257,0.03686 0.71714,0.40119 0.68029,0.81376c-0.03686,0.41257 -0.40119,0.71714 -0.81376,0.68029c-0.41257,-0.03686 -0.71714,-0.40119 -0.68029,-0.81376z" fill="#33965e" stroke="none" stroke-width="0.5" stroke-linecap="butt"/><path d="M388.48214,137.78387c0.03686,-0.41257 0.40119,-0.71714 0.81376,-0.68029c0.41257,0.03686 0.71714,0.40119 0.68029,0.81376c-0.03686,0.41257 -0.40119,0.71714 -0.81376,0.68029c-0.41257,-0.03686 -0.71714,-0.40119 -0.68029,-0.81376z" fill="#33965e" stroke="none" stroke-width="0.5" stroke-linecap="butt"/><path d="M275.57386,142.95692c0.03686,-0.41257 0.40119,-0.71714 0.81376,-0.68029c0.41257,0.03686 0.71714,0.40119 0.68028,0.81376c-0.03686,0.41257 -0.40119,0.71714 -0.81376,0.68029c-0.41257,-0.03686 -0.71714,-0.40119 -0.68028,-0.81376z" fill="#75f20f" stroke="none" stroke-width="0.5" stroke-linecap="butt"/><path d="M282.36124,141.15376c0.03686,-0.41257 0.40119,-0.71714 0.81376,-0.68028c0.41257,0.03686 0.71714,0.40119 0.68029,0.81376c-0.03686,0.41257 -0.40119,0.71714 -0.81376,0.68028c-0.41257,-0.03686 -0.71714,-0.40119 -0.68029,-0.81376z" fill="#75f20f" stroke="none" stroke-width="0.5" stroke-linecap="butt"/><path d="M284.82977,144.98864c0.03686,-0.41257 0.40119,-0.71714 0.81376,-0.68028c0.41257,0.03686 0.71714,0.40119 0.68029,0.81376c-0.03686,0.41257 -0.40119,0.71714 -0.81376,0.68028c-0.41257,-0.03686 -0.71714,-0.40119 -0.68029,-0.81376z" fill="#75f20f" stroke="none" stroke-width="0.5" stroke-linecap="butt"/><path d="M338.9715,145.80986c0.03686,-0.41257 0.40119,-0.71714 0.81376,-0.68029c0.41257,0.03686 0.71714,0.40119 0.68028,0.81376c-0.03686,0.41257 -0.40119,0.71714 -0.81376,0.68029c-0.41257,-0.03686 -0.71714,-0.40119 -0.68028,-0.81376z" fill="#75f20f" stroke="none" stroke-width="0.5" stroke-linecap="butt"/><path d="M392.68264,149.20297c0.03686,-0.41257 0.40119,-0.71714 0.81376,-0.68029c0.41257,0.03686 0.71714,0.4012 0.68029,0.81377c-0.03686,0.41257 -0.40119,0.71714 -0.81376,0.68028c-0.41257,-0.03686 -0.71714,-0.40119 -0.68029,-0.81376z" fill="#75f20f" stroke="none" stroke-width="0.5" stroke-linecap="butt"/><path d="M400.83574,152.34095c0.03686,-0.41257 0.40119,-0.71714 0.81376,-0.68028c0.41257,0.03686 0.71714,0.40119 0.68029,0.81376c-0.03686,0.41257 -0.40119,0.71714 -0.81376,0.68028c-0.41257,-0.03686 -0.71714,-0.40119 -0.68029,-0.81376z" fill="#75f20f" stroke="none" stroke-width="0.5" stroke-linecap="butt"/></g><path d="M294.696,150.43157c0.83974,-9.39906 9.13991,-16.33778 18.53898,-15.49805c9.39906,0.83974 16.33778,9.13992 15.49804,18.539c-0.83974,9.39906 -9.13992,16.33778 -18.539,15.49804c-9.39906,-0.83974 -16.33776,-9.13992 -15.49802,-18.539z" fill="none" stroke="#191919" stroke-width="5" stroke-linecap="butt"/><path d="M381.25271,159.15041c-0.73857,8.26673 -8.03879,14.3695 -16.30551,13.63093c-8.26671,-0.73857 -14.36949,-8.03881 -13.63092,-16.30553c0.73857,-8.26673 8.03881,-14.36951 16.30552,-13.63093c8.26671,0.73857 14.36949,8.03881 13.63091,16.30551z" fill="#191919" stroke="#000000" stroke-width="0" stroke-linecap="butt"/><path d="M302.54942,151.13322c0.45222,-5.06174 4.92218,-8.79849 9.98392,-8.34627c5.06174,0.45222 8.79849,4.92218 8.34626,9.98393c-0.45222,5.06174 -4.92217,8.79849 -9.98393,8.34626c-5.06174,-0.45222 -8.79848,-4.92217 -8.34626,-9.98393z" fill="none" stroke="#191919" stroke-width="5" stroke-linecap="butt"/></g></g></g></svg>