<svg version="1.1" xmlns="http://www.w3.org/2000/svg" xmlns:xlink="http://www.w3.org/1999/xlink" width="213.18203" height="280.18476" viewBox="0,0,213.18203,280.18476"><defs><linearGradient x1="290.37202" y1="124.62154" x2="291.96636" y2="171.55579" gradientUnits="userSpaceOnUse" id="color-1"><stop offset="0" stop-color="#ffffff"/><stop offset="1" stop-color="#5d5d5d"/></linearGradient><linearGradient x1="344.5992" y1="122.77948" x2="346.19355" y2="169.71371" gradientUnits="userSpaceOnUse" id="color-2"><stop offset="0" stop-color="#ffffff"/><stop offset="1" stop-color="#5d5d5d"/></linearGradient></defs><g transform="translate(-214.52362,-38.88751)"><g stroke-miterlimit="10"><path d="M272.11014,268.26063c0.69149,-2.74535 3.73555,-4.81339 7.38606,-4.81339c3.23495,0 5.99367,1.62399 7.06104,3.9042c0.02618,0.07181 0.05544,0.14128 0.09106,0.20598c0.34257,0.62235 6.73325,-1.09492 7.52542,-0.84255c2.34967,0.74856 3.72445,2.88263 4.72133,4.73523c1.2385,2.30161 -2.89731,8.99139 -4.21952,11.08073c-3.44549,5.44452 -7.01511,14.21661 -13.0943,18.09006c-4.36095,2.77864 -11.57075,2.22268 -14.41858,-1.68103c-2.09573,-2.87275 -0.89147,-7.62841 -0.51474,-10.63945c0.49433,-3.9509 1.65871,-7.91056 2.73717,-11.78969c1.14878,-4.13207 1.39016,-6.40714 2.72506,-8.25009z" fill="#8b21e0" stroke="none" stroke-width="0.5" stroke-linecap="butt"/><path d="M370.04217,276.51072c1.07846,3.87913 2.24284,7.83879 2.73717,11.78969c0.37673,3.01104 1.58099,7.76671 -0.51474,10.63945c-2.84783,3.90371 -10.05764,4.45967 -14.41858,1.68103c-6.07919,-3.87345 -9.64881,-12.64553 -13.0943,-18.09006c-1.32221,-2.08934 -5.45801,-8.77911 -4.21952,-11.08073c0.99688,-1.8526 2.37167,-3.98667 4.72133,-4.73523c0.79217,-0.25237 7.18285,1.4649 7.52542,0.84255c0.03562,-0.06471 0.06488,-0.13418 0.09105,-0.20598c1.06737,-2.2802 3.82608,-3.9042 7.06104,-3.9042c3.65051,0 6.69458,2.06803 7.38607,4.81339c1.3349,1.84295 1.57628,4.11802 2.72506,8.25009z" fill="#8b21e0" stroke="none" stroke-width="0.5" stroke-linecap="butt"/><g stroke-linecap="butt"><path d="M286.35186,319.07226l15.14285,-131.8421l37.78325,-0.15789l13.57389,132z" fill="#8b21e0" stroke="#000000" stroke-width="0"/><path d="M296.01666,234.92516c2.08346,-18.13983 5.47805,-47.69499 5.47805,-47.69499l37.78325,-0.15789c0,0 3.04845,29.64481 4.91793,47.82466c0.02749,0.26726 -48.23894,0.54804 -48.17924,0.02822z" fill="#7822e0" stroke="#000000" stroke-width="0"/><path d="M297.13133,225.22012c1.77782,-15.47868 4.36338,-37.98996 4.36338,-37.98996l37.78325,-0.15789c0,0 2.35959,22.94598 3.97074,38.61368c0.0124,0.12054 -46.15083,-0.17447 -46.11737,-0.46582z" fill="#551cba" stroke="#000000" stroke-width="0"/><path d="M298.09859,216.79867c1.47239,-12.81944 3.39612,-29.56851 3.39612,-29.56851l37.78325,-0.15789c0,0 1.79848,17.4894 3.15533,30.68411c0.00563,0.0547 -44.35225,-0.8049 -44.3347,-0.95771z" fill="#3a1aaf" stroke="#000000" stroke-width="0"/><path d="M298.125,217c0,-0.57891 0.28111,-1.09217 0.71427,-1.41073c0.31856,-0.43316 0.83182,-0.71427 1.41073,-0.71427c0.9665,0 1.75,0.7835 1.75,1.75c0,0.57891 -0.28111,1.09217 -0.71427,1.41073c-0.31856,0.43316 -0.83182,0.71427 -1.41073,0.71427c-0.9665,0 -1.75,-0.7835 -1.75,-1.75z" fill="#3a1aaf" stroke="none" stroke-width="0.5"/><path d="M338.5,217.625c0,-0.9665 0.7835,-1.75 1.75,-1.75c0.9665,0 1.75,0.7835 1.75,1.75c0,0.9665 -0.7835,1.75 -1.75,1.75c-0.9665,0 -1.75,-0.7835 -1.75,-1.75z" fill="#3a1aaf" stroke="none" stroke-width="0.5"/><path d="M331.75,217c0,-0.9665 0.7835,-1.75 1.75,-1.75c0.9665,0 1.75,0.7835 1.75,1.75c0,0.9665 -0.7835,1.75 -1.75,1.75c-0.9665,0 -1.75,-0.7835 -1.75,-1.75z" fill="#3a1aaf" stroke="none" stroke-width="0.5"/><path d="M325.5,217.5c0,-0.9665 0.7835,-1.75 1.75,-1.75c0.2202,0 0.4309,0.04066 0.625,0.1149c0.1941,-0.07424 0.4048,-0.1149 0.625,-0.1149c0.9665,0 1.75,0.7835 1.75,1.75c0,0.9665 -0.7835,1.75 -1.75,1.75c-0.2202,0 -0.4309,-0.04066 -0.625,-0.1149c-0.1941,0.07424 -0.4048,0.1149 -0.625,0.1149c-0.9665,0 -1.75,-0.7835 -1.75,-1.75z" fill="#3a1aaf" stroke="none" stroke-width="0.5"/><path d="M317,217.375c0,-0.9665 0.7835,-1.75 1.75,-1.75c0.2202,0 0.4309,0.04066 0.625,0.1149c0.1941,-0.07424 0.4048,-0.1149 0.625,-0.1149c0.9665,0 1.75,0.7835 1.75,1.75c0,0.9665 -0.7835,1.75 -1.75,1.75c-0.2202,0 -0.4309,-0.04066 -0.625,-0.1149c-0.1941,0.07424 -0.4048,0.1149 -0.625,0.1149c-0.9665,0 -1.75,-0.7835 -1.75,-1.75z" fill="#3a1aaf" stroke="none" stroke-width="0.5"/><path d="M313.25,217.125c0,-0.9665 0.7835,-1.75 1.75,-1.75c0.9665,0 1.75,0.7835 1.75,1.75c0,0.9665 -0.7835,1.75 -1.75,1.75c-0.9665,0 -1.75,-0.7835 -1.75,-1.75z" fill="#3a1aaf" stroke="none" stroke-width="0.5"/><path d="M306.5,217c0,-0.9665 0.7835,-1.75 1.75,-1.75c0.9665,0 1.75,0.7835 1.75,1.75c0,0.9665 -0.7835,1.75 -1.75,1.75c-0.9665,0 -1.75,-0.7835 -1.75,-1.75z" fill="#3a1aaf" stroke="none" stroke-width="0.5"/><path d="M302.625,217c0,-0.9665 0.7835,-1.75 1.75,-1.75c0.9665,0 1.75,0.7835 1.75,1.75c0,0.9665 -0.7835,1.75 -1.75,1.75c-0.9665,0 -1.75,-0.7835 -1.75,-1.75z" fill="#3a1aaf" stroke="none" stroke-width="0.5"/><path d="M297.125,225.125c0,-0.9665 0.7835,-1.75 1.75,-1.75c0.9665,0 1.75,0.7835 1.75,1.75c0,0.9665 -0.7835,1.75 -1.75,1.75c-0.9665,0 -1.75,-0.7835 -1.75,-1.75z" fill="#551cba" stroke="none" stroke-width="0.5"/><path d="M337.625,225.5c0,-0.9665 0.7835,-1.75 1.75,-1.75c0.43734,0 0.8372,0.16042 1.14396,0.42563c0.27981,-0.18976 0.61748,-0.30063 0.98104,-0.30063c0.9665,0 1.75,0.7835 1.75,1.75c0,0.9665 -0.7835,1.75 -1.75,1.75c-0.43734,0 -0.8372,-0.16042 -1.14396,-0.42563c-0.27981,0.18976 -0.61748,0.30063 -0.98104,0.30063c-0.9665,0 -1.75,-0.7835 -1.75,-1.75z" fill="#551cba" stroke="none" stroke-width="0.5"/><path d="M330.5,225.875c0,-0.9665 0.7835,-1.75 1.75,-1.75c0.78848,0 1.45517,0.52145 1.67401,1.23832c0.28322,-0.58494 0.8825,-0.98832 1.57599,-0.98832c0.9665,0 1.75,0.7835 1.75,1.75c0,0.9665 -0.7835,1.75 -1.75,1.75c-0.78848,0 -1.45517,-0.52145 -1.67401,-1.23832c-0.28322,0.58494 -0.8825,0.98832 -1.57599,0.98832c-0.9665,0 -1.75,-0.7835 -1.75,-1.75z" fill="#551cba" stroke="none" stroke-width="0.5"/><path d="M327,225.75c0,-0.9665 0.7835,-1.75 1.75,-1.75c0.9665,0 1.75,0.7835 1.75,1.75c0,0.9665 -0.7835,1.75 -1.75,1.75c-0.9665,0 -1.75,-0.7835 -1.75,-1.75z" fill="#551cba" stroke="none" stroke-width="0.5"/><path d="M316.25,225.125c0,-0.9665 0.7835,-1.75 1.75,-1.75c0.58711,0 1.1067,0.28913 1.42415,0.73276c0.32092,-0.37217 0.79587,-0.60776 1.32585,-0.60776c0.76142,0 1.40928,0.48629 1.64992,1.16524c0.27225,-0.61285 0.88626,-1.04024 1.60008,-1.04024c0.9665,0 1.75,0.7835 1.75,1.75c0,0.9665 -0.7835,1.75 -1.75,1.75c-0.76142,0 -1.40928,-0.48629 -1.64992,-1.16524c-0.27225,0.61285 -0.88626,1.04024 -1.60008,1.04024c-0.58711,0 -1.1067,-0.28913 -1.42415,-0.73276c-0.32092,0.37217 -0.79587,0.60776 -1.32585,0.60776c-0.9665,0 -1.75,-0.7835 -1.75,-1.75z" fill="#551cba" stroke="none" stroke-width="0.5"/><path d="M307.625,225c0,-0.9665 0.7835,-1.75 1.75,-1.75c0.80543,0 1.48377,0.54412 1.6875,1.28483c0.20373,-0.7407 0.88207,-1.28483 1.6875,-1.28483c0.9665,0 1.75,0.7835 1.75,1.75c0,0.9665 -0.7835,1.75 -1.75,1.75c-0.80543,0 -1.48377,-0.54412 -1.6875,-1.28483c-0.20373,0.7407 -0.88207,1.28483 -1.6875,1.28483c-0.9665,0 -1.75,-0.7835 -1.75,-1.75z" fill="#551cba" stroke="none" stroke-width="0.5"/><path d="M300.5,225.125c0,-0.9665 0.7835,-1.75 1.75,-1.75c0.6587,0 1.2324,0.36393 1.531,0.90168c0.27524,-0.60558 0.88544,-1.02668 1.594,-1.02668c0.9665,0 1.75,0.7835 1.75,1.75c0,0.9665 -0.7835,1.75 -1.75,1.75c-0.6587,0 -1.2324,-0.36393 -1.531,-0.90168c-0.27524,0.60558 -0.88544,1.02668 -1.594,1.02668c-0.9665,0 -1.75,-0.7835 -1.75,-1.75z" fill="#551cba" stroke="none" stroke-width="0.5"/><path d="M302.875,233.375c0.9665,0 1.75,0.7835 1.75,1.75c0,0.9665 -0.7835,1.75 -1.75,1.75c-0.55774,0 -1.05454,-0.26092 -1.375,-0.66735c-0.32046,0.40643 -0.81726,0.66735 -1.375,0.66735c-0.45833,0 -0.87552,-0.1762 -1.1875,-0.46455c-0.31198,0.28835 -0.72917,0.46455 -1.1875,0.46455c-0.9665,0 -1.75,-0.7835 -1.75,-1.75c0,-0.9665 0.7835,-1.75 1.75,-1.75c0.45833,0 0.87552,0.1762 1.1875,0.46455c0.31198,-0.28835 0.72917,-0.46455 1.1875,-0.46455c0.55774,0 1.05454,0.26092 1.375,0.66735c0.32046,-0.40643 0.81726,-0.66735 1.375,-0.66735z" fill="#7822e0" stroke="none" stroke-width="0.5"/><path d="M312.625,233.25c0.9665,0 1.75,0.7835 1.75,1.75c0,0.9665 -0.7835,1.75 -1.75,1.75c-0.27524,0 -0.53563,-0.06354 -0.76731,-0.17675c-0.28013,0.19045 -0.61841,0.30175 -0.98269,0.30175c-0.73651,0 -1.36676,-0.45499 -1.625,-1.09923c-0.25824,0.64424 -0.88849,1.09923 -1.625,1.09923c-0.9665,0 -1.75,-0.7835 -1.75,-1.75c0,-0.9665 0.7835,-1.75 1.75,-1.75c0.73651,0 1.36676,0.45499 1.625,1.09923c0.25824,-0.64424 0.88849,-1.09923 1.625,-1.09923c0.27524,0 0.53563,0.06354 0.76731,0.17675c0.28013,-0.19045 0.61841,-0.30175 0.98269,-0.30175z" fill="#7822e0" stroke="none" stroke-width="0.5"/><path d="M315.5,235.25c0,-0.9665 0.7835,-1.75 1.75,-1.75c0.9665,0 1.75,0.7835 1.75,1.75c0,0.9665 -0.7835,1.75 -1.75,1.75c-0.9665,0 -1.75,-0.7835 -1.75,-1.75z" fill="#7822e0" stroke="none" stroke-width="0.5"/><path d="M322.75,235.875c0,-0.9665 0.7835,-1.75 1.75,-1.75c0.9665,0 1.75,0.7835 1.75,1.75c0,0.9665 -0.7835,1.75 -1.75,1.75c-0.9665,0 -1.75,-0.7835 -1.75,-1.75z" fill="#7822e0" stroke="none" stroke-width="0.5"/><path d="M329.375,235.75c0,-0.9665 0.7835,-1.75 1.75,-1.75c0.9665,0 1.75,0.7835 1.75,1.75c0,0.9665 -0.7835,1.75 -1.75,1.75c-0.9665,0 -1.75,-0.7835 -1.75,-1.75z" fill="#7822e0" stroke="none" stroke-width="0.5"/><path d="M334.875,234.75c0,-0.9665 0.7835,-1.75 1.75,-1.75c0.9665,0 1.75,0.7835 1.75,1.75c0,0.9665 -0.7835,1.75 -1.75,1.75c-0.9665,0 -1.75,-0.7835 -1.75,-1.75z" fill="#7822e0" stroke="none" stroke-width="0.5"/><path d="M340,235c0,-0.9665 0.7835,-1.75 1.75,-1.75c0.9665,0 1.75,0.7835 1.75,1.75c0,0.9665 -0.7835,1.75 -1.75,1.75c-0.9665,0 -1.75,-0.7835 -1.75,-1.75z" fill="#7822e0" stroke="none" stroke-width="0.5"/><path d="M301.16667,220.83333c0,-0.69036 0.55964,-1.25 1.25,-1.25c0.69036,0 1.25,0.55964 1.25,1.25c0,0.69036 -0.55964,1.25 -1.25,1.25c-0.69036,0 -1.25,-0.55964 -1.25,-1.25z" fill="#3a1aaf" stroke="none" stroke-width="0.5"/><path d="M305.5,217.83333c0,-0.69036 0.55964,-1.25 1.25,-1.25c0.69036,0 1.25,0.55964 1.25,1.25c0,0.69036 -0.55964,1.25 -1.25,1.25c-0.69036,0 -1.25,-0.55964 -1.25,-1.25z" fill="#3a1aaf" stroke="none" stroke-width="0.5"/><path d="M311.66667,217.33333c0,-0.69036 0.55964,-1.25 1.25,-1.25c0.69036,0 1.25,0.55964 1.25,1.25c0,0.69036 -0.55964,1.25 -1.25,1.25c-0.69036,0 -1.25,-0.55964 -1.25,-1.25z" fill="#3a1aaf" stroke="none" stroke-width="0.5"/><path d="M314.66667,220c0,-0.69036 0.55964,-1.25 1.25,-1.25c0.69036,0 1.25,0.55964 1.25,1.25c0,0.69036 -0.55964,1.25 -1.25,1.25c-0.69036,0 -1.25,-0.55964 -1.25,-1.25z" fill="#3a1aaf" stroke="none" stroke-width="0.5"/><path d="M323.25,221.08333c0.69036,0 1.25,0.55964 1.25,1.25c0,0.69036 -0.55964,1.25 -1.25,1.25c-0.28931,0 -0.55566,-0.09828 -0.76748,-0.26328c-0.21988,0.35792 -0.61499,0.59662 -1.06585,0.59662c-0.69036,0 -1.25,-0.55964 -1.25,-1.25c0,-0.69036 0.55964,-1.25 1.25,-1.25c0.28931,0 0.55566,0.09828 0.76748,0.26328c0.21988,-0.35792 0.61499,-0.59662 1.06585,-0.59662z" fill="#3a1aaf" stroke="none" stroke-width="0.5"/><path d="M328,218.5c0,-0.69036 0.55964,-1.25 1.25,-1.25c0.69036,0 1.25,0.55964 1.25,1.25c0,0.69036 -0.55964,1.25 -1.25,1.25c-0.69036,0 -1.25,-0.55964 -1.25,-1.25z" fill="#3a1aaf" stroke="none" stroke-width="0.5"/><path d="M333.66667,218.16667c0,-0.69036 0.55964,-1.25 1.25,-1.25c0.69036,0 1.25,0.55964 1.25,1.25c0,0.69036 -0.55964,1.25 -1.25,1.25c-0.69036,0 -1.25,-0.55964 -1.25,-1.25z" fill="#3a1aaf" stroke="none" stroke-width="0.5"/><path d="M339.83333,222.33333c0,0.69036 -0.55964,1.25 -1.25,1.25c-0.54205,0 -1.00352,-0.34502 -1.17677,-0.82743c-0.24986,-0.22855 -0.40656,-0.55726 -0.40656,-0.92257c0,-0.69036 0.55964,-1.25 1.25,-1.25c0.54205,0 1.00352,0.34502 1.17677,0.82743c0.24986,0.22855 0.40656,0.55726 0.40656,0.92257z" fill="#3a1aaf" stroke="none" stroke-width="0.5"/><path d="M298.66667,226.16667c0,-0.69036 0.55964,-1.25 1.25,-1.25c0.69036,0 1.25,0.55964 1.25,1.25c0,0.69036 -0.55964,1.25 -1.25,1.25c-0.69036,0 -1.25,-0.55964 -1.25,-1.25z" fill="#551cba" stroke="none" stroke-width="0.5"/><path d="M303.5,231.16667c0,-0.69036 0.55964,-1.25 1.25,-1.25c0.69036,0 1.25,0.55964 1.25,1.25c0,0.69036 -0.55964,1.25 -1.25,1.25c-0.69036,0 -1.25,-0.55964 -1.25,-1.25z" fill="#551cba" stroke="none" stroke-width="0.5"/><path d="M309.38356,228.20639c0.96028,0.80023 0.16005,1.76051 0.16005,1.76051l-0.83333,1c0,0 -0.80023,0.96028 -1.76051,0.16005c-0.96028,-0.80023 -0.16005,-1.76051 -0.16005,-1.76051l0.83333,-1c0,0 0.80023,-0.96028 1.76051,-0.16005z" fill="#551cba" stroke="none" stroke-width="0.5"/><path d="M313.91667,224.75c0.69036,0 1.25,0.55964 1.25,1.25c0,0.69036 -0.55964,1.25 -1.25,1.25c-0.23693,0 -0.45847,-0.06592 -0.64727,-0.18042c-0.0607,0.00906 -0.12284,0.01375 -0.18606,0.01375c-0.69036,0 -1.25,-0.55964 -1.25,-1.25c0,-0.69036 0.55964,-1.25 1.25,-1.25c0.23693,0 0.45847,0.06592 0.64727,0.18042c0.0607,-0.00906 0.12284,-0.01375 0.18606,-0.01375z" fill="#551cba" stroke="none" stroke-width="0.5"/><path d="M320.83333,229.16667c0,-0.69036 0.55964,-1.25 1.25,-1.25c0.69036,0 1.25,0.55964 1.25,1.25c0,0.69036 -0.55964,1.25 -1.25,1.25c-0.69036,0 -1.25,-0.55964 -1.25,-1.25z" fill="#551cba" stroke="none" stroke-width="0.5"/><path d="M323.66667,230.33333c0,-0.69036 0.55964,-1.25 1.25,-1.25c0.69036,0 1.25,0.55964 1.25,1.25c0,0.69036 -0.55964,1.25 -1.25,1.25c-0.69036,0 -1.25,-0.55964 -1.25,-1.25z" fill="#551cba" stroke="none" stroke-width="0.5"/><path d="M329.16667,226.83333c0,-0.69036 0.55964,-1.25 1.25,-1.25c0.69036,0 1.25,0.55964 1.25,1.25c0,0.69036 -0.55964,1.25 -1.25,1.25c-0.69036,0 -1.25,-0.55964 -1.25,-1.25z" fill="#551cba" stroke="none" stroke-width="0.5"/><path d="M333,225.83333c0,-0.69036 0.55964,-1.25 1.25,-1.25c0.69036,0 1.25,0.55964 1.25,1.25c0,0.69036 -0.55964,1.25 -1.25,1.25c-0.69036,0 -1.25,-0.55964 -1.25,-1.25z" fill="#551cba" stroke="none" stroke-width="0.5"/><path d="M340.5,230.83333c0,-0.69036 0.55964,-1.25 1.25,-1.25c0.69036,0 1.25,0.55964 1.25,1.25c0,0.69036 -0.55964,1.25 -1.25,1.25c-0.69036,0 -1.25,-0.55964 -1.25,-1.25z" fill="#551cba" stroke="none" stroke-width="0.5"/><path d="M299,238.83333c0,-0.69036 0.55964,-1.25 1.25,-1.25c0.69036,0 1.25,0.55964 1.25,1.25c0,0.69036 -0.55964,1.25 -1.25,1.25c-0.69036,0 -1.25,-0.55964 -1.25,-1.25z" fill="#7822e0" stroke="none" stroke-width="0.5"/><path d="M307.58333,234.75c0.69036,0 1.25,0.55964 1.25,1.25c0,0.69036 -0.55964,1.25 -1.25,1.25c-0.19188,0 -0.37366,-0.04323 -0.53614,-0.12049c-0.21637,0.17935 -0.4942,0.28716 -0.7972,0.28716c-0.69036,0 -1.25,-0.55964 -1.25,-1.25c0,-0.69036 0.55964,-1.25 1.25,-1.25c0.19188,0 0.37366,0.04323 0.53614,0.12049c0.21637,-0.17935 0.4942,-0.28716 0.7972,-0.28716z" fill="#7822e0" stroke="none" stroke-width="0.5"/><path d="M314.66667,239c0,-0.69036 0.55964,-1.25 1.25,-1.25c0.69036,0 1.25,0.55964 1.25,1.25c0,0.69036 -0.55964,1.25 -1.25,1.25c-0.69036,0 -1.25,-0.55964 -1.25,-1.25z" fill="#7822e0" stroke="none" stroke-width="0.5"/><path d="M320.83333,242.5c0,-0.69036 0.55964,-1.25 1.25,-1.25c0.69036,0 1.25,0.55964 1.25,1.25c0,0.69036 -0.55964,1.25 -1.25,1.25c-0.69036,0 -1.25,-0.55964 -1.25,-1.25z" fill="#7822e0" stroke="none" stroke-width="0.5"/><path d="M320.83333,235c0,-0.69036 0.55964,-1.25 1.25,-1.25c0.69036,0 1.25,0.55964 1.25,1.25c0,0.69036 -0.55964,1.25 -1.25,1.25c-0.69036,0 -1.25,-0.55964 -1.25,-1.25z" fill="#7822e0" stroke="none" stroke-width="0.5"/><path d="M326,236.16667c0,-0.69036 0.55964,-1.25 1.25,-1.25c0.69036,0 1.25,0.55964 1.25,1.25c0,0.69036 -0.55964,1.25 -1.25,1.25c-0.69036,0 -1.25,-0.55964 -1.25,-1.25z" fill="#7822e0" stroke="none" stroke-width="0.5"/><path d="M331.5,236.16667c0,-0.69036 0.55964,-1.25 1.25,-1.25c0.69036,0 1.25,0.55964 1.25,1.25c0,0.69036 -0.55964,1.25 -1.25,1.25c-0.69036,0 -1.25,-0.55964 -1.25,-1.25z" fill="#7822e0" stroke="none" stroke-width="0.5"/><path d="M339.25,239.25c0.69036,0 1.25,0.55964 1.25,1.25c0,0.69036 -0.55964,1.25 -1.25,1.25c-0.56616,0 -1.04441,-0.3764 -1.19816,-0.89261c-0.19819,0.42859 -0.63196,0.72594 -1.13517,0.72594c-0.69036,0 -1.25,-0.55964 -1.25,-1.25c0,-0.69036 0.55964,-1.25 1.25,-1.25c0.56616,0 1.04441,0.3764 1.19816,0.89261c0.19819,-0.42859 0.63196,-0.72594 1.13517,-0.72594z" fill="#7822e0" stroke="none" stroke-width="0.5"/><path d="M340,235.33333c0,-0.69036 0.55964,-1.25 1.25,-1.25c0.69036,0 1.25,0.55964 1.25,1.25c0,0.69036 -0.55964,1.25 -1.25,1.25c-0.69036,0 -1.25,-0.55964 -1.25,-1.25z" fill="#7822e0" stroke="none" stroke-width="0.5"/><path d="M301,223c0,-0.41421 0.33579,-0.75 0.75,-0.75c0.41421,0 0.75,0.33579 0.75,0.75c0,0.41421 -0.33579,0.75 -0.75,0.75c-0.41421,0 -0.75,-0.33579 -0.75,-0.75z" fill="#3a1aaf" stroke="none" stroke-width="0.5"/><path d="M321.66667,225c0,-0.41421 0.33579,-0.75 0.75,-0.75c0.41421,0 0.75,0.33579 0.75,0.75c0,0.41421 -0.33579,0.75 -0.75,0.75c-0.41421,0 -0.75,-0.33579 -0.75,-0.75z" fill="#3a1aaf" stroke="none" stroke-width="0.5"/><path d="M338.66667,224.66667c0,-0.41421 0.33579,-0.75 0.75,-0.75c0.41421,0 0.75,0.33579 0.75,0.75c0,0.41421 -0.33579,0.75 -0.75,0.75c-0.41421,0 -0.75,-0.33579 -0.75,-0.75z" fill="#3a1aaf" stroke="none" stroke-width="0.5"/><path d="M302.83333,233.5c0,-0.41421 0.33579,-0.75 0.75,-0.75c0.41421,0 0.75,0.33579 0.75,0.75c0,0.41421 -0.33579,0.75 -0.75,0.75c-0.41421,0 -0.75,-0.33579 -0.75,-0.75z" fill="#551cba" stroke="none" stroke-width="0.5"/><path d="M322.5,233.33333c0,-0.41421 0.33579,-0.75 0.75,-0.75c0.41421,0 0.75,0.33579 0.75,0.75c0,0.41421 -0.33579,0.75 -0.75,0.75c-0.41421,0 -0.75,-0.33579 -0.75,-0.75z" fill="#551cba" stroke="none" stroke-width="0.5"/><path d="M341.33333,235c0,-0.41421 0.33579,-0.75 0.75,-0.75c0.41421,0 0.75,0.33579 0.75,0.75c0,0.41421 -0.33579,0.75 -0.75,0.75c-0.41421,0 -0.75,-0.33579 -0.75,-0.75z" fill="#551cba" stroke="none" stroke-width="0.5"/><path d="M301.66667,241.33333c0,-0.41421 0.33579,-0.75 0.75,-0.75c0.41421,0 0.75,0.33579 0.75,0.75c0,0.41421 -0.33579,0.75 -0.75,0.75c-0.41421,0 -0.75,-0.33579 -0.75,-0.75z" fill="#7822e0" stroke="none" stroke-width="0.5"/><path d="M314.5,244.16667c0,-0.41421 0.33579,-0.75 0.75,-0.75c0.41421,0 0.75,0.33579 0.75,0.75c0,0.41421 -0.33579,0.75 -0.75,0.75c-0.41421,0 -0.75,-0.33579 -0.75,-0.75z" fill="#7822e0" stroke="none" stroke-width="0.5"/><path d="M338,245.16667c0,-0.41421 0.33579,-0.75 0.75,-0.75c0.41421,0 0.75,0.33579 0.75,0.75c0,0.41421 -0.33579,0.75 -0.75,0.75c-0.41421,0 -0.75,-0.33579 -0.75,-0.75z" fill="#7822e0" stroke="none" stroke-width="0.5"/></g><path d="M214.52362,306.61252v-267.72501h213.18203v267.72501z" fill="none" stroke="none" stroke-width="0" stroke-linecap="butt"/><path d="" fill="none" stroke="#000000" stroke-width="2" stroke-linecap="round"/><path d="M348.09345,279.76011c-0.17678,0.17677 -0.35355,0 -0.35355,0l-0.30273,-0.3073c-0.18961,-0.09309 -0.38215,-0.18574 -0.57705,-0.27765c0.1706,0.17506 0.34622,0.36109 0.52428,0.55569l0.04239,0.00904c0.96745,0.96746 2.14938,2.03589 2.65974,3.30561c0.27002,0.23032 0.50572,0.4617 0.68142,0.69992l0.06432,0.31487c0,0 0.01712,0.18501 -0.13765,0.2508c0.36897,0.41782 0.74899,0.77747 1.13564,1.02777c0.98203,1.09903 2.08443,2.12612 2.90511,3.35515l0.10286,-0.01127c0,0 0.23392,0.08822 0.14569,0.32214c-0.08823,0.23391 -0.32214,0.14569 -0.32214,0.14569l-0.34243,-0.17921c-0.79498,-1.19449 -1.87315,-2.18077 -2.81754,-3.25553c-0.98239,-0.67187 -1.89968,-1.9514 -2.72124,-3.14018c-1.23839,-0.94227 -2.59489,-1.9086 -2.61389,-3.49232c0,0 0,-0.11726 0.0803,-0.19117c-0.91474,-0.41318 -1.86679,-0.80319 -2.80088,-1.13837c-0.14632,-0.03607 -0.29417,-0.06982 -0.44388,-0.10066l-0.36401,-0.17953c0,0 -0.01018,-0.00508 -0.0251,-0.01526c-0.04132,-0.02615 -0.09259,-0.07164 -0.11016,-0.14272c-0.01263,-0.04442 -0.01185,-0.09821 0.01591,-0.16137c0.02504,-0.06429 0.06252,-0.10288 0.10286,-0.12536c0.06268,-0.03784 0.1311,-0.03376 0.17881,-0.02302c0.01774,0.00336 0.02853,0.00696 0.02853,0.00696c0.23451,0.07916 0.47118,0.1615 0.70909,0.24678c0.04289,0.00993 0.08564,0.02009 0.12826,0.03048c-0.01349,-0.06248 -0.00371,-0.13967 0.07349,-0.21686c0.17678,-0.17677 0.35355,0 0.35355,0c0.23489,0.23489 0.50902,0.42083 0.80814,0.57409c1.04522,0.33607 2.064,0.71102 3.21276,0.85461c0,0 0.24807,0.03101 0.21706,0.27908c-0.03101,0.24807 -0.27908,0.21706 -0.27908,0.21706c-0.02155,-0.00269 -0.04306,-0.00547 -0.06453,-0.00831c-0.05012,0.01273 -0.09116,0.00943 -0.09116,0.00943l-0.31369,-0.02594c0.04905,0.02457 0.09791,0.04922 0.14657,0.07394l0.36393,0.35936c0,0 0.17678,0.17678 0,0.35356zM347.70697,281.05603c-0.18253,-0.24018 -0.40901,-0.44565 -0.62511,-0.65315c0.21793,0.33132 0.50671,0.6382 0.82981,0.92888c-0.06916,-0.09509 -0.1374,-0.18718 -0.2047,-0.27573z" fill="#751cbd" stroke="none" stroke-width="0.5" stroke-linecap="butt"/><path d="M272.52055,274.57308l0.13421,0.13935c0.07632,0.05354 0.15079,0.10324 0.22447,0.1497c1.01875,0.17851 2.15312,0.11299 3.06294,0.49132l0.23508,-0.02012c0,0 0.25,0 0.25,0.25c0,0.25 -0.25,0.25 -0.25,0.25l-0.4316,-0.02012c-0.53053,-0.23456 -1.10969,-0.31854 -1.69559,-0.37737c0.02431,0.03039 0.04332,0.06951 0.04664,0.11884c1.46053,0.4725 2.98794,0.67155 4.77199,0.91763c1.41433,0.19508 2.88054,0.52942 4.30856,0.52768h0.33333c0,0 0.25,0 0.25,0.25c0,0.25 -0.25,0.25 -0.25,0.25h-0.33333c-1.45266,-0.00165 -2.93821,-0.33393 -4.37687,-0.53237c-2.61728,-0.36101 -4.71009,-0.63846 -6.8286,-1.77376c-0.18029,-0.08838 -0.37074,-0.19873 -0.56191,-0.32129c-0.29136,-0.17723 -0.58411,-0.37212 -0.87967,-0.58707c0,0 -0.0677,-0.04924 -0.09626,-0.12991c-0.09089,-0.07506 -0.17678,-0.14852 -0.25606,-0.2187l-0.00063,0.0631c0,0 -0.25,0 -0.25,-0.25c0,-0.25 0.25,-0.25 0.25,-0.25l0.3327,0.0631c0.14339,0.12786 0.322,0.27914 0.5167,0.43277c0.09325,0.0099 0.16071,0.07736 0.16071,0.07736c0.10195,0.10348 0.2101,0.19422 0.32357,0.27399c0.08858,0.05587 0.17699,0.10999 0.26526,0.16245c0.10676,0.0567 0.21714,0.10592 0.33054,0.14889c0.01232,-0.02789 0.03165,-0.05653 0.06025,-0.08519c0.17663,-0.17692 0.35356,-0.00029 0.35356,-0.00029z" fill="#751cbd" stroke="none" stroke-width="0.5" stroke-linecap="butt"/><path d="M291.3338,279.40656l0.36394,-0.35936c0.04866,-0.02472 0.09752,-0.04937 0.14657,-0.07394l-0.31369,0.02594c0,0 -0.04104,0.0033 -0.09116,-0.00943c-0.02147,0.00285 -0.04298,0.00562 -0.06454,0.00831c0,0 -0.24807,0.03101 -0.27908,-0.21706c-0.03101,-0.24807 0.21706,-0.27908 0.21706,-0.27908c1.14875,-0.1436 2.16754,-0.51854 3.21276,-0.85461c0.29912,-0.15326 0.57325,-0.3392 0.80814,-0.57409c0,0 0.17678,-0.17677 0.35356,0c0.0772,0.07719 0.08697,0.15439 0.07349,0.21686c0.04262,-0.01039 0.08536,-0.02055 0.12825,-0.03048c0.23791,-0.08528 0.47458,-0.16762 0.70909,-0.24678c0,0 0.01079,-0.0036 0.02854,-0.00696c0.04771,-0.01074 0.11613,-0.01481 0.17881,0.02302c0.04034,0.02248 0.07782,0.06107 0.10286,0.12536c0.02776,0.06316 0.02854,0.11695 0.01591,0.16137c-0.01757,0.07108 -0.06884,0.11657 -0.11016,0.14272c-0.01492,0.01018 -0.0251,0.01526 -0.0251,0.01526l-0.364,0.17953c-0.14972,0.03084 -0.29756,0.06459 -0.44389,0.10066c-0.9341,0.33518 -1.88614,0.72519 -2.80088,1.13837c0.08031,0.0739 0.08031,0.19117 0.08031,0.19117c-0.019,1.58372 -1.3755,2.55005 -2.61389,3.49232c-0.82156,1.18877 -1.73885,2.4683 -2.72124,3.14018c-0.9444,1.07476 -2.02256,2.06103 -2.81754,3.25553l-0.34244,0.17921c0,0 -0.23391,0.08822 -0.32214,-0.14569c-0.08823,-0.23391 0.14569,-0.32214 0.14569,-0.32214l0.10286,0.01127c0.82067,-1.22904 1.92307,-2.25612 2.90511,-3.35515c0.38664,-0.2503 0.76666,-0.60994 1.13563,-1.02777c-0.15477,-0.06579 -0.13765,-0.2508 -0.13765,-0.2508l0.06432,-0.31487c0.1757,-0.23822 0.41141,-0.4696 0.68143,-0.69992c0.51036,-1.26972 1.69229,-2.33816 2.65974,-3.30561l0.04239,-0.00904c0.17806,-0.19459 0.35368,-0.38062 0.52427,-0.55569c-0.1949,0.0919 -0.38744,0.18456 -0.57705,0.27765l-0.30273,0.3073c0,0 -0.17678,0.17677 -0.35356,0c-0.17678,-0.17677 0,-0.35356 0,-0.35356zM291.51558,281.33177c0.3231,-0.29068 0.61188,-0.59756 0.82981,-0.92888c-0.2161,0.20749 -0.44258,0.41296 -0.62511,0.65315c-0.0673,0.08856 -0.13554,0.18065 -0.2047,0.27573z" fill="#751cbd" stroke="none" stroke-width="0.5" stroke-linecap="butt"/><path d="M367.26026,274.57337c0.02861,0.02865 0.04794,0.0573 0.06026,0.08519c0.1134,-0.04297 0.22378,-0.09219 0.33054,-0.14889c0.08828,-0.05246 0.17669,-0.10659 0.26526,-0.16245c0.11347,-0.07977 0.22163,-0.17051 0.32358,-0.27399c0,0 0.06746,-0.06746 0.16071,-0.07736c0.1947,-0.15363 0.37331,-0.30491 0.5167,-0.43277l0.3327,-0.0631c0,0 0.25,0 0.25,0.25c0,0.25 -0.25,0.25 -0.25,0.25l-0.00063,-0.0631c-0.07927,0.07018 -0.16517,0.14364 -0.25606,0.2187c-0.02855,0.08068 -0.09626,0.12991 -0.09626,0.12991c-0.29555,0.21495 -0.58831,0.40984 -0.87966,0.58707c-0.19117,0.12256 -0.38162,0.2329 -0.56191,0.32129c-2.11851,1.1353 -4.21132,1.41275 -6.8286,1.77376c-1.43867,0.19843 -2.92421,0.53072 -4.37687,0.53237h-0.33333c0,0 -0.25,0 -0.25,-0.25c0,-0.25 0.25,-0.25 0.25,-0.25h0.33333c1.42802,0.00173 2.89423,-0.33261 4.30856,-0.52768c1.78405,-0.24607 3.31145,-0.44513 4.77199,-0.91763c0.00333,-0.04934 0.02233,-0.08845 0.04664,-0.11884c-0.58591,0.05883 -1.16505,0.14282 -1.69559,0.37737l-0.4316,0.02012c0,0 -0.25,0 -0.25,-0.25c0,-0.25 0.25,-0.25 0.25,-0.25l0.23507,0.02012c0.90982,-0.37833 2.04419,-0.31281 3.06294,-0.49132c0.07369,-0.04647 0.14815,-0.09616 0.22447,-0.1497l0.13421,-0.13935c0,0 0.17692,-0.17663 0.35355,0.00029z" fill="#751cbd" stroke="none" stroke-width="0.5" stroke-linecap="butt"/><g><g><g><path d="M372.97799,127.03332l22.26298,-22.73656c0,0 -0.41713,16.58397 0.52762,22.98641c0.70138,4.75318 4.6314,11.97616 4.6314,11.97616c0,0 -5.13269,13.64764 -6.53031,20.02129c-1.18524,5.40521 -1.32375,15.79628 -1.32375,15.79628l-21.39297,-8.59292z" fill="#6719a7" stroke="#000000" stroke-width="0" stroke-linecap="round"/><path d="M377.93988,159.21975l11.88979,-1.98648" fill="none" stroke="#4b1797" stroke-width="2" stroke-linecap="round"/><path d="M377.22056,132.86785l11.964,-4.97832" fill="none" stroke="#4b1797" stroke-width="2" stroke-linecap="round"/><path d="M266.85312,170.02701l-20.76053,10.02487c0,0 -0.84332,-10.35771 -2.39265,-15.67003c-1.82691,-6.26412 -7.87393,-19.53198 -7.87393,-19.53198c0,0 3.43082,-7.47302 3.80801,-12.26283c0.50808,-6.45179 -1.03349,-22.96922 -1.03349,-22.96922l23.75459,21.17335z" fill="#6719a7" stroke="#000000" stroke-width="0" stroke-linecap="round"/><path d="M259.5889,163.2401l-11.99719,-1.17504" fill="none" stroke="#4b1797" stroke-width="2" stroke-linecap="round"/><path d="M258.51828,136.90013l-12.27425,-4.15494" fill="none" stroke="#4b1797" stroke-width="2" stroke-linecap="round"/><path d="M254.07345,149.07303c-1.13061,-33.28265 26.69617,-61.23997 62.15284,-62.44443c35.45668,-1.20446 65.11653,24.80005 66.24713,58.08271c0.7408,21.80736 -10.95008,41.32848 -29.07339,52.53606c-4.53736,2.80593 -2.41175,23.69339 2.57623,41.37103c5.49586,19.47757 12.22128,35.77703 -33.9603,36.11876c-48.22994,0.35687 -42.46841,-14.4245 -37.58797,-33.49464c4.49073,-17.54734 6.58717,-39.37558 1.79029,-41.95487c-18.61127,-10.00736 -31.40965,-28.57225 -32.14485,-50.21459z" fill="#8b21e0" stroke="#000000" stroke-width="0" stroke-linecap="butt"/><path d="M256.86649,129.19311c8.41616,-23.04425 31.92132,-41.63245 59.35982,-42.56453c28.2711,-0.96037 52.85685,15.3775 62.23385,38.91036c0.01736,0.04359 -121.61425,3.71053 -121.59367,3.65416z" fill="#7822e0" stroke="#000000" stroke-width="0" stroke-linecap="butt"/><path d="M259.10645,123.62135c9.47376,-21.01557 31.2689,-36.11462 57.11985,-36.99278c26.02684,-0.88412 48.93019,12.89257 59.71893,33.44705c0.04829,0.092 -116.90761,3.69838 -116.83878,3.54572z" fill="#551cba" stroke="#000000" stroke-width="0" stroke-linecap="butt"/><path d="M263.84923,115.07242c10.98543,-16.458 30.18706,-27.69005 52.37705,-28.44384c21.48358,-0.72979 40.839,8.52958 53.00947,23.34459c0.54605,0.6647 1.07764,1.34059 1.59432,2.02727c0.04773,0.06343 -107.03887,3.15894 -106.98084,3.07198z" fill="#3a1aaf" stroke="#000000" stroke-width="0" stroke-linecap="butt"/><path d="M267.80376,151.87959c-0.44027,-12.96054 9.70942,-23.82402 22.66995,-24.26428c12.96054,-0.44027 23.82401,9.70941 24.26428,22.66994c0.44027,12.96054 -9.70941,23.82402 -22.66993,24.26429c-12.96054,0.44027 -23.82403,-9.70942 -24.26429,-22.66994z" fill="#6320d7" stroke="#000000" stroke-width="0" stroke-linecap="butt"/><path d="M346.29523,172.70746c-12.96054,0.44027 -23.82402,-9.70942 -24.26428,-22.66995c-0.44027,-12.96054 9.70941,-23.82401 22.66994,-24.26428c12.96054,-0.44027 23.82402,9.70941 24.26429,22.66993c0.44027,12.96054 -9.70942,23.82403 -22.66994,24.26429z" fill="#6320d7" stroke="#000000" stroke-width="0" stroke-linecap="butt"/><path d="M287.88745,99.59105c2.99836,8.20664 -5.99772,13.47982 -13.95198,13.75003c-3.16011,0.10735 -20.23414,-2.36407 -23.3204,-11.40935c-4.68211,-13.72246 5.17845,-36.06721 5.17845,-36.06721c0,0 3.52778,17.06498 12.85321,26.44371c5.86406,5.8976 16.87661,0.81221 19.24071,7.28283z" fill="#4f2373" stroke="#000000" stroke-width="0" stroke-linecap="butt"/><path d="M364.07666,89.06649c8.66748,-9.98996 11.02908,-27.255 11.02908,-27.255c0,0 11.35419,21.62409 7.6141,35.63266c-2.46533,9.23387 -19.33228,12.85826 -22.49239,12.9656c-7.95425,0.27021 -17.28746,-4.38035 -14.85291,-12.77153c1.91955,-6.61613 13.2518,-2.28979 18.70213,-8.57173z" fill="#4f2373" stroke="#000000" stroke-width="0" stroke-linecap="butt"/><path d="M274.13582,117.13456c-0.00583,-0.17188 0.02331,-0.33682 0.08104,-0.488c-0.43223,-0.10888 -0.80241,-0.37913 -1.04011,-0.74492c-0.28879,0.51831 -0.83413,0.87692 -1.47034,0.89854c-0.81242,0.0276 -1.51428,-0.50311 -1.73638,-1.24721c-0.22521,0.67313 -0.84963,1.1683 -1.60069,1.19381c-0.36689,0.01247 -0.71123,-0.08894 -0.99903,-0.27244c-0.30578,0.42497 -0.79816,0.7087 -1.36187,0.72786c-0.96594,0.03282 -1.77559,-0.72364 -1.8084,-1.68958c-0.03282,-0.96594 0.72364,-1.77559 1.68958,-1.8084c0.36689,-0.01247 0.71123,0.08894 0.99903,0.27244c0.30578,-0.42497 0.79816,-0.7087 1.36187,-0.72786c0.81242,-0.0276 1.51428,0.50311 1.73638,1.24721c0.22521,-0.67313 0.84963,-1.1683 1.60069,-1.19381c0.63622,-0.02161 1.20464,0.29918 1.52793,0.79669c0.28879,-0.51831 0.83413,-0.87692 1.47034,-0.89854c0.44796,-0.01522 0.86229,0.13931 1.18112,0.40574c0.30002,-0.28746 0.70292,-0.46973 1.15087,-0.48495c0.96594,-0.03282 1.77559,0.72364 1.8084,1.68958c0.03282,0.96594 -0.72364,1.77559 -1.68958,1.8084c-0.18038,0.00612 -0.3553,-0.01527 -0.52073,-0.0604c0.07057,0.14941 0.11249,0.31534 0.11845,0.49098c0.02344,0.68996 -0.51687,1.26828 -1.20684,1.29172c-0.68996,0.02344 -1.26828,-0.51687 -1.29172,-1.20684z" fill="#3a1aaf" stroke="none" stroke-width="0.5" stroke-linecap="butt"/><path d="M281.71885,114.54229c-0.02344,-0.68996 0.51687,-1.26828 1.20684,-1.29172c0.13663,-0.00464 0.26889,0.01283 0.39331,0.04919c0.29326,-0.25749 0.67403,-0.41896 1.09449,-0.43325c0.96594,-0.03282 1.77559,0.72364 1.8084,1.68958c0.03282,0.96594 -0.72364,1.77559 -1.68958,1.8084c-0.55975,0.01902 -1.06702,-0.227 -1.40104,-0.62525c-0.03967,0.00517 -0.07994,0.00849 -0.12074,0.00988c-0.68996,0.02344 -1.26828,-0.51687 -1.29172,-1.20684z" fill="#3a1aaf" stroke="none" stroke-width="0.5" stroke-linecap="butt"/><path d="M288.04287,114.16071c-0.03282,-0.96594 0.72364,-1.77559 1.68958,-1.8084c0.96594,-0.03282 1.77559,0.72364 1.8084,1.68958c0.03282,0.96594 -0.72364,1.77559 -1.68958,1.8084c-0.96594,0.03282 -1.77559,-0.72364 -1.8084,-1.68958z" fill="#3a1aaf" stroke="none" stroke-width="0.5" stroke-linecap="butt"/><path d="M296.00997,113.05625c-0.02344,-0.68996 0.51687,-1.26828 1.20684,-1.29172c0.53552,-0.01819 1.00378,0.30324 1.19754,0.77065c0.27587,-0.2055 0.615,-0.33194 0.98485,-0.3445c0.96594,-0.03282 1.77559,0.72364 1.8084,1.68958c0.03282,0.96594 -0.72364,1.77559 -1.68958,1.8084c-0.90665,0.03079 -1.67562,-0.63376 -1.79372,-1.51421c-0.13107,0.05253 -0.27334,0.08357 -0.42262,0.08864c-0.68996,0.02344 -1.26828,-0.51687 -1.29172,-1.20684z" fill="#3a1aaf" stroke="none" stroke-width="0.5" stroke-linecap="butt"/><path d="M302.88462,114.15682c-0.03282,-0.96594 0.72364,-1.77559 1.68958,-1.8084c0.96594,-0.03282 1.77559,0.72364 1.8084,1.68958c0.03282,0.96594 -0.72364,1.77559 -1.68958,1.8084c-0.96594,0.03282 -1.77559,-0.72364 -1.8084,-1.68958z" fill="#3a1aaf" stroke="none" stroke-width="0.5" stroke-linecap="butt"/><path d="M307.77176,115.65844c-0.02344,-0.68996 0.51687,-1.26828 1.20684,-1.29172c0.17563,-0.00596 0.34403,0.0246 0.49788,0.08487c-0.05627,-0.162 -0.08948,-0.33506 -0.09561,-0.51544c-0.03282,-0.96594 0.72364,-1.77559 1.68958,-1.8084c0.96594,-0.03282 1.77559,0.72364 1.8084,1.68958c0.03282,0.96594 -0.72364,1.77559 -1.68958,1.8084c-0.34157,0.0116 -0.66361,-0.0755 -0.93866,-0.23563c0.0109,0.05973 0.01757,0.12098 0.01969,0.18347c0.02344,0.68996 -0.51687,1.26828 -1.20684,1.29172c-0.68996,0.02344 -1.26828,-0.51687 -1.29172,-1.20684z" fill="#3a1aaf" stroke="none" stroke-width="0.5" stroke-linecap="butt"/><path d="M317.36495,113.3314c-0.03282,-0.96594 0.72364,-1.77559 1.68958,-1.8084c0.96594,-0.03282 1.77559,0.72364 1.8084,1.68958c0.03282,0.96594 -0.72364,1.77559 -1.68958,1.8084c-0.96594,0.03282 -1.77559,-0.72364 -1.8084,-1.68958z" fill="#3a1aaf" stroke="none" stroke-width="0.5" stroke-linecap="butt"/><path d="M329.67626,112.47378c0.01676,0.00814 0.03332,0.01665 0.04967,0.02551c0.15906,-0.77356 0.83071,-1.36702 1.65483,-1.39502c0.3716,-0.01262 0.72007,0.09155 1.01007,0.27954c0.27658,-0.20723 0.61718,-0.33482 0.98877,-0.34744c0.96594,-0.03282 1.77559,0.72364 1.8084,1.68958c0.03282,0.96594 -0.72364,1.77559 -1.68958,1.8084c-0.3716,0.01262 -0.72007,-0.09155 -1.01007,-0.27954c-0.27658,0.20723 -0.61718,0.33482 -0.98877,0.34744c-0.47747,0.01622 -0.91674,-0.16041 -1.2429,-0.45985c-0.19565,0.40433 -0.60331,0.68933 -1.08344,0.70564c-0.39665,0.01348 -0.75641,-0.15937 -0.99505,-0.43986c-0.20777,0.09726 -0.4382,0.15502 -0.68198,0.1633c-0.7794,0.02647 -1.45705,-0.46091 -1.70696,-1.15757c-0.15341,0.5406 -0.56101,0.97756 -1.08951,1.16823c0.03305,0.10535 0.05259,0.21685 0.05653,0.33258c0.02344,0.68996 -0.51687,1.26828 -1.20684,1.29172c-0.68996,0.02344 -1.26828,-0.51687 -1.29172,-1.20684c-0.01369,-0.40292 0.16489,-0.76777 0.45325,-1.00628c-0.21142,-0.27826 -0.3418,-0.62239 -0.35457,-0.99822c-0.03282,-0.96594 0.72364,-1.77559 1.68958,-1.8084c0.7794,-0.02647 1.45705,0.46091 1.70696,1.15757c0.20204,-0.71202 0.84506,-1.24426 1.62447,-1.27074c0.8226,-0.02794 1.53184,0.51652 1.74451,1.27528c0.19827,-0.00151 0.38663,0.04348 0.55436,0.12498z" fill="#3a1aaf" stroke="none" stroke-width="0.5" stroke-linecap="butt"/><path d="M339.92554,114.73294c-0.00826,-0.24293 0.05338,-0.47202 0.16684,-0.66792c-0.5227,-0.2876 -0.88496,-0.8353 -0.90668,-1.47484c-0.03282,-0.96594 0.72364,-1.77559 1.68958,-1.8084c0.96594,-0.03282 1.77559,0.72364 1.8084,1.68958c0.01846,0.54329 -0.21276,1.03713 -0.59052,1.37113c0.19639,0.21247 0.32034,0.49376 0.33093,0.80561c0.02344,0.68996 -0.51687,1.26828 -1.20684,1.29172c-0.68996,0.02344 -1.26828,-0.51687 -1.29172,-1.20684z" fill="#3a1aaf" stroke="none" stroke-width="0.5" stroke-linecap="butt"/><path d="M345.84286,112.19725c-0.03282,-0.96594 0.72364,-1.77559 1.68958,-1.8084c0.96594,-0.03282 1.77559,0.72364 1.8084,1.68958c0.03282,0.96594 -0.72364,1.77559 -1.68958,1.8084c-0.96594,0.03282 -1.77559,-0.72364 -1.8084,-1.68958z" fill="#3a1aaf" stroke="none" stroke-width="0.5" stroke-linecap="butt"/><path d="M352.36741,112.80943c-0.03282,-0.96594 0.72364,-1.77559 1.68958,-1.8084c0.96594,-0.03282 1.77559,0.72364 1.8084,1.68958c0.03282,0.96594 -0.72364,1.77559 -1.68958,1.8084c-0.96594,0.03282 -1.77559,-0.72364 -1.8084,-1.68958z" fill="#3a1aaf" stroke="none" stroke-width="0.5" stroke-linecap="butt"/><path d="M359.32942,111.57235c-0.03282,-0.96594 0.72364,-1.77559 1.68958,-1.8084c0.96594,-0.03282 1.77559,0.72364 1.8084,1.68958c0.03282,0.96594 -0.72364,1.77559 -1.68958,1.8084c-0.96594,0.03282 -1.77559,-0.72364 -1.8084,-1.68958z" fill="#3a1aaf" stroke="none" stroke-width="0.5" stroke-linecap="butt"/><path d="M368.2268,110.8532c0.0667,-0.00227 0.13266,-0.00076 0.19767,0.00431c0.20531,-0.09462 0.43248,-0.15078 0.67258,-0.15894c0.96594,-0.03282 1.77559,0.72364 1.8084,1.68958c0.03282,0.96594 -0.72364,1.77559 -1.68958,1.8084c-0.0667,0.00227 -0.13266,0.00076 -0.19767,-0.00431c-0.20531,0.09462 -0.43248,0.15078 -0.67258,0.15894c-0.95681,0.0325 -1.76029,-0.70943 -1.80726,-1.66227c-0.30303,0.44848 -0.8092,0.75057 -1.39153,0.77036c-0.96594,0.03282 -1.77559,-0.72364 -1.8084,-1.68958c-0.03282,-0.96594 0.72364,-1.77559 1.68958,-1.8084c0.95681,-0.0325 1.76029,0.70943 1.80726,1.66227c0.30303,-0.44848 0.8092,-0.75057 1.39153,-0.77036z" fill="#3a1aaf" stroke="none" stroke-width="0.5" stroke-linecap="butt"/><path d="M263.70853,121.908c0.96594,-0.03282 1.77559,0.72364 1.8084,1.68958c0.03282,0.96594 -0.72364,1.77559 -1.68958,1.8084c-0.51455,0.01748 -0.98475,-0.18901 -1.31681,-0.53181c-0.27879,0.55185 -0.84205,0.93868 -1.50358,0.96115c-0.96594,0.03282 -1.77559,-0.72364 -1.8084,-1.68958c-0.03282,-0.96594 0.72364,-1.77559 1.68958,-1.8084c0.51455,-0.01748 0.98475,0.18901 1.31681,0.53181c0.27879,-0.55185 0.84205,-0.93868 1.50358,-0.96115z" fill="#551cba" stroke="none" stroke-width="0.5" stroke-linecap="butt"/><path d="M267.21093,124.37384c-0.00613,-0.18068 0.02639,-0.35371 0.09013,-0.51112c-0.38266,-0.3081 -0.63409,-0.77467 -0.65208,-1.30418c-0.03282,-0.96594 0.72364,-1.77559 1.68958,-1.8084c0.96594,-0.03282 1.77559,0.72364 1.8084,1.68958c0.01799,0.52952 -0.2012,1.01208 -0.56207,1.34542c0.07429,0.15272 0.11847,0.32314 0.1246,0.50382c0.02344,0.68996 -0.51687,1.26828 -1.20684,1.29172c-0.68996,0.02344 -1.26828,-0.51687 -1.29172,-1.20684z" fill="#551cba" stroke="none" stroke-width="0.5" stroke-linecap="butt"/><path d="M274.2069,124.13619c0.02344,0.68996 -0.51687,1.26828 -1.20684,1.29172c-0.23065,0.00784 -0.44884,-0.04733 -0.63798,-0.15003c-0.90638,-0.03698 -1.64451,-0.76774 -1.6758,-1.68915c-0.03282,-0.96594 0.72364,-1.77559 1.68958,-1.8084c0.96594,-0.03282 1.77559,0.72364 1.8084,1.68958c0.00421,0.12397 -0.00458,0.24535 -0.02514,0.36285c0.02775,0.0967 0.04421,0.19833 0.04777,0.30342z" fill="#551cba" stroke="none" stroke-width="0.5" stroke-linecap="butt"/><path d="M281.87038,121.4578c0.96594,-0.03282 1.77559,0.72364 1.8084,1.68958c0.03282,0.96594 -0.72364,1.77559 -1.68958,1.8084c-0.44796,0.01522 -0.86229,-0.13931 -1.18112,-0.40574c-0.30002,0.28746 -0.70292,0.46973 -1.15087,0.48495c-0.96594,0.03282 -1.77559,-0.72364 -1.8084,-1.68958c-0.03282,-0.96594 0.72364,-1.77559 1.68958,-1.8084c0.44796,-0.01522 0.86229,0.13931 1.18112,0.40574c0.30002,-0.28746 0.70292,-0.46973 1.15087,-0.48495z" fill="#551cba" stroke="none" stroke-width="0.5" stroke-linecap="butt"/><path d="M285.16661,122.76331c-0.03282,-0.96594 0.72364,-1.77559 1.68958,-1.8084c0.96594,-0.03282 1.77559,0.72364 1.8084,1.68958c0.03282,0.96594 -0.72364,1.77559 -1.68958,1.8084c-0.96594,0.03282 -1.77559,-0.72364 -1.8084,-1.68958z" fill="#551cba" stroke="none" stroke-width="0.5" stroke-linecap="butt"/><path d="M293.48383,122.14726c-0.03282,-0.96594 0.72364,-1.77559 1.68958,-1.8084c0.96594,-0.03282 1.77559,0.72364 1.8084,1.68958c0.03282,0.96594 -0.72364,1.77559 -1.68958,1.8084c-0.96594,0.03282 -1.77559,-0.72364 -1.8084,-1.68958z" fill="#551cba" stroke="none" stroke-width="0.5" stroke-linecap="butt"/><path d="M300.8299,122.398c-0.03282,-0.96594 0.72364,-1.77559 1.68958,-1.8084c0.96594,-0.03282 1.77559,0.72364 1.8084,1.68958c0.03282,0.96594 -0.72364,1.77559 -1.68958,1.8084c-0.96594,0.03282 -1.77559,-0.72364 -1.8084,-1.68958z" fill="#551cba" stroke="none" stroke-width="0.5" stroke-linecap="butt"/><path d="M310.08305,122.33382c0.68996,-0.02344 1.26828,0.51687 1.29172,1.20684c0.02344,0.68996 -0.51687,1.26828 -1.20684,1.29172c-0.66297,0.02253 -1.22286,-0.47548 -1.28644,-1.1266c-0.22414,0.11642 -0.4771,0.18593 -0.74635,0.19507c-0.96594,0.03282 -1.77559,-0.72364 -1.8084,-1.68958c-0.03282,-0.96594 0.72364,-1.77559 1.68958,-1.8084c0.96594,-0.03282 1.77559,0.72364 1.8084,1.68958c0.00323,0.09515 -0.00119,0.1888 -0.01273,0.28033c0.08693,-0.02243 0.17763,-0.03578 0.27107,-0.03896z" fill="#551cba" stroke="none" stroke-width="0.5" stroke-linecap="butt"/><path d="M316.81106,121.91c-0.1071,-0.21649 -0.17086,-0.45873 -0.17959,-0.71583c-0.03282,-0.96594 0.72364,-1.77559 1.68958,-1.8084c0.96594,-0.03282 1.77559,0.72364 1.8084,1.68958c0.03282,0.96594 -0.72364,1.77559 -1.68958,1.8084c-0.36098,0.01226 -0.70013,-0.0857 -0.98509,-0.26364c0.0423,0.11854 0.06726,0.24552 0.07177,0.37804c0.02344,0.68996 -0.51687,1.26828 -1.20684,1.29172c-0.56724,0.01927 -1.05902,-0.3425 -1.22905,-0.85521c-0.1473,0.04616 -0.3032,0.07343 -0.46496,0.07893c-0.96594,0.03282 -1.77559,-0.72364 -1.8084,-1.68958c-0.03282,-0.96594 0.72364,-1.77559 1.68958,-1.8084c0.96594,-0.03282 1.77559,0.72364 1.8084,1.68958c0.00098,0.02879 0.00125,0.05745 0.00085,0.08595c0.1762,0.00531 0.34373,0.04732 0.49491,0.11885z" fill="#551cba" stroke="none" stroke-width="0.5" stroke-linecap="butt"/><path d="M326.80926,121.34871c0.03282,0.96594 -0.72364,1.77559 -1.68958,1.8084c-0.48497,0.01647 -0.93055,-0.166 -1.25819,-0.47407c-0.85578,-0.08858 -1.53657,-0.79718 -1.56662,-1.68128c-0.03282,-0.96594 0.72364,-1.77559 1.68958,-1.8084c0.48497,-0.01647 0.93055,0.166 1.25819,0.47407c0.85578,0.08858 1.53657,0.79718 1.56662,1.68128z" fill="#551cba" stroke="none" stroke-width="0.5" stroke-linecap="butt"/><path d="M328.8081,121.28083c-0.03282,-0.96594 0.72364,-1.77559 1.68958,-1.8084c0.96594,-0.03282 1.77559,0.72364 1.8084,1.68958c0.03282,0.96594 -0.72364,1.77559 -1.68958,1.8084c-0.96594,0.03282 -1.77559,-0.72364 -1.8084,-1.68958z" fill="#551cba" stroke="none" stroke-width="0.5" stroke-linecap="butt"/><path d="M334.9599,120.73832c-0.03282,-0.96594 0.72364,-1.77559 1.68958,-1.8084c0.96594,-0.03282 1.77559,0.72364 1.8084,1.68958c0.03282,0.96594 -0.72364,1.77559 -1.68958,1.8084c-0.96594,0.03282 -1.77559,-0.72364 -1.8084,-1.68958z" fill="#551cba" stroke="none" stroke-width="0.5" stroke-linecap="butt"/><path d="M342.95529,120.46673c-0.03282,-0.96594 0.72364,-1.77559 1.68958,-1.8084c0.96594,-0.03282 1.77559,0.72364 1.8084,1.68958c0.03282,0.96594 -0.72364,1.77559 -1.68958,1.8084c-0.96594,0.03282 -1.77559,-0.72364 -1.8084,-1.68958z" fill="#551cba" stroke="none" stroke-width="0.5" stroke-linecap="butt"/><path d="M347.79149,120.46919c-0.03282,-0.96594 0.72364,-1.77559 1.68958,-1.8084c0.96594,-0.03282 1.77559,0.72364 1.8084,1.68958c0.03282,0.96594 -0.72364,1.77559 -1.68958,1.8084c-0.96594,0.03282 -1.77559,-0.72364 -1.8084,-1.68958z" fill="#551cba" stroke="none" stroke-width="0.5" stroke-linecap="butt"/><path d="M354.82141,121.23096c-0.03282,-0.96594 0.72364,-1.77559 1.68958,-1.8084c0.96594,-0.03282 1.77559,0.72364 1.8084,1.68958c0.03282,0.96594 -0.72364,1.77559 -1.68958,1.8084c-0.96594,0.03282 -1.77559,-0.72364 -1.8084,-1.68958z" fill="#551cba" stroke="none" stroke-width="0.5" stroke-linecap="butt"/><path d="M359.53065,122.40509c-0.00611,-0.18008 0.02617,-0.35256 0.0895,-0.50954c-0.28415,-0.29939 -0.46411,-0.69989 -0.47923,-1.14484c-0.03282,-0.96594 0.72364,-1.77559 1.68958,-1.8084c0.96594,-0.03282 1.77559,0.72364 1.8084,1.68958c0.01937,0.57034 -0.23641,1.08618 -0.64801,1.41981c0.02203,0.08615 0.03516,0.176 0.03831,0.26853c0.02344,0.68996 -0.51687,1.26828 -1.20684,1.29172c-0.68996,0.02344 -1.26828,-0.51687 -1.29172,-1.20684z" fill="#551cba" stroke="none" stroke-width="0.5" stroke-linecap="butt"/><path d="M364.79866,120.39175c-0.03282,-0.96594 0.72364,-1.77559 1.68958,-1.8084c0.96594,-0.03282 1.77559,0.72364 1.8084,1.68958c0.03282,0.96594 -0.72364,1.77559 -1.68958,1.8084c-0.96594,0.03282 -1.77559,-0.72364 -1.8084,-1.68958z" fill="#551cba" stroke="none" stroke-width="0.5" stroke-linecap="butt"/><path d="M373.47289,118.01255c0.96594,-0.03282 1.77559,0.72364 1.8084,1.68958c0.03282,0.96594 -0.72364,1.77559 -1.68958,1.8084c-0.42527,0.01445 -0.82024,-0.12408 -1.13195,-0.36614c-0.25351,0.1598 -0.55145,0.25655 -0.87255,0.26746c-0.96594,0.03282 -1.77559,-0.72364 -1.8084,-1.68958c-0.03282,-0.96594 0.72364,-1.77559 1.68958,-1.8084c0.42527,-0.01445 0.82024,0.12408 1.13195,0.36614c0.25351,-0.1598 0.55145,-0.25655 0.87255,-0.26746z" fill="#551cba" stroke="none" stroke-width="0.5" stroke-linecap="butt"/><path d="M260.24202,127.86244c0.96594,-0.03282 1.77559,0.72364 1.8084,1.68958c0.03282,0.96594 -0.72364,1.77559 -1.68958,1.8084c-0.32109,0.01091 -0.62493,-0.06541 -0.88869,-0.20763c-0.29458,0.26263 -0.67923,0.42766 -1.10449,0.44211c-0.96594,0.03282 -1.77559,-0.72364 -1.8084,-1.68958c-0.03282,-0.96594 0.72364,-1.77559 1.68958,-1.8084c0.32109,-0.01091 0.62493,0.06541 0.88869,0.20763c0.29458,-0.26263 0.67923,-0.42766 1.10449,-0.44211z" fill="#7822e0" stroke="none" stroke-width="0.5" stroke-linecap="butt"/><path d="M374.38124,127.57056c-0.00373,-0.10998 0.00685,-0.21715 0.03009,-0.31967c-0.3079,0.36004 -0.7601,0.59461 -1.27088,0.61196c-0.05617,0.00191 -0.11183,0.00115 -0.16684,-0.00216c-0.05465,0.00704 -0.11012,0.01157 -0.16631,0.01349c-0.96594,0.03282 -1.77559,-0.72364 -1.8084,-1.68958c-0.03282,-0.96594 0.72364,-1.77559 1.68958,-1.8084c0.05617,-0.00191 0.11183,-0.00115 0.16684,0.00216c0.05465,-0.00704 0.11012,-0.01157 0.16631,-0.01349c0.96594,-0.03282 1.77559,0.72364 1.8084,1.68958c0.00695,0.20428 -0.02142,0.40158 -0.07959,0.58601c0.15971,-0.15843 0.36225,-0.2743 0.5896,-0.32837c-0.00105,-0.93991 0.74424,-1.71773 1.6906,-1.74989c0.96594,-0.03282 1.77559,0.72364 1.8084,1.68958c0.03282,0.96594 -0.72364,1.77559 -1.68958,1.8084c-0.12827,0.00436 -0.25377,-0.0052 -0.37507,-0.02732c-0.18784,0.42484 -0.60607,0.72769 -1.10144,0.74452c-0.68996,0.02344 -1.26828,-0.51687 -1.29172,-1.20684z" fill="#7822e0" stroke="none" stroke-width="0.5" stroke-linecap="butt"/><path d="M365.00237,126.38829c-0.03282,-0.96594 0.72364,-1.77559 1.68958,-1.8084c0.3839,-0.01304 0.74308,0.09858 1.03865,0.29845c0.26825,-0.00492 0.5239,0.05099 0.75355,0.15519c0.07306,-0.01187 0.1477,-0.01925 0.22364,-0.02184c0.96594,-0.03282 1.77559,0.72364 1.8084,1.68958c0.03282,0.96594 -0.72364,1.77559 -1.68958,1.8084c-0.27841,0.00945 -0.54386,-0.04665 -0.78145,-0.15446c-0.07306,0.01187 -0.1477,0.01925 -0.22364,0.02184c-0.3839,0.01304 -0.74308,-0.09858 -1.03865,-0.29845c-0.95358,0.01748 -1.748,-0.73368 -1.7805,-1.69031z" fill="#7822e0" stroke="none" stroke-width="0.5" stroke-linecap="butt"/><path d="M363.01041,124.20466c0.96594,-0.03282 1.77559,0.72364 1.8084,1.68958c0.03282,0.96594 -0.72364,1.77559 -1.68958,1.8084c-0.54726,0.01859 -1.04436,-0.21615 -1.37843,-0.59882c-0.22334,0.67646 -0.84937,1.17479 -1.60287,1.20037c-0.96594,0.03282 -1.77559,-0.72364 -1.8084,-1.68958c-0.03282,-0.96594 0.72364,-1.77559 1.68958,-1.8084c0.54726,-0.01859 1.04436,0.21615 1.37843,0.59882c0.22334,-0.67646 0.84937,-1.17479 1.60287,-1.20037z" fill="#7822e0" stroke="none" stroke-width="0.5" stroke-linecap="butt"/><path d="M322.51555,127.49804c-0.03282,-0.96594 0.72364,-1.77559 1.68958,-1.8084c0.72782,-0.02473 1.36691,0.39866 1.65181,1.0221c0.13051,-0.80912 0.81828,-1.43954 1.66829,-1.46841c0.96594,-0.03282 1.77559,0.72364 1.8084,1.68958c0.03282,0.96594 -0.72364,1.77559 -1.68958,1.8084c-0.72782,0.02473 -1.36691,-0.39866 -1.65181,-1.0221c-0.13051,0.80912 -0.81828,1.43954 -1.66829,1.46841c-0.96594,0.03282 -1.77559,-0.72364 -1.8084,-1.68958z" fill="#7822e0" stroke="none" stroke-width="0.5" stroke-linecap="butt"/><path d="M320.6663,127.06056c0.03282,0.96594 -0.72364,1.77559 -1.68958,1.8084c-0.56791,0.01929 -1.08179,-0.23423 -1.41553,-0.64276c-0.43023,-0.30526 -0.71804,-0.80075 -0.73733,-1.36864c-0.03282,-0.96594 0.72364,-1.77559 1.68958,-1.8084c0.56791,-0.01929 1.08179,0.23423 1.41553,0.64276c0.43023,0.30526 0.71804,0.80075 0.73733,1.36864z" fill="#7822e0" stroke="none" stroke-width="0.5" stroke-linecap="butt"/><path d="M311.17052,129.8012c-0.61479,0.02088 -1.14094,-0.40584 -1.26488,-0.98719c-0.03842,-0.04743 -0.07442,-0.09692 -0.10781,-0.14829c-0.28879,0.51831 -0.83413,0.87692 -1.47034,0.89854c-0.96594,0.03282 -1.77559,-0.72364 -1.8084,-1.68958c-0.03282,-0.96594 0.72364,-1.77559 1.68958,-1.8084c0.61833,-0.02101 1.17262,0.2814 1.50008,0.75515c0.17102,-0.75754 0.8353,-1.33478 1.64779,-1.36237c0.96594,-0.03282 1.77559,0.72364 1.8084,1.68958c0.00975,0.28707 -0.0502,0.56033 -0.16467,0.80351c-0.07097,0.52 -0.37147,0.97022 -0.79897,1.24092c-0.21073,0.35201 -0.59026,0.59317 -1.03078,0.60815z" fill="#7822e0" stroke="none" stroke-width="0.5" stroke-linecap="butt"/><path d="M262.04477,129.38546c-0.03282,-0.96594 0.72364,-1.77559 1.68958,-1.8084c0.96594,-0.03282 1.77559,0.72364 1.8084,1.68958c0.03282,0.96594 -0.72364,1.77559 -1.68958,1.8084c-0.96594,0.03282 -1.77559,-0.72364 -1.8084,-1.68958z" fill="#7822e0" stroke="none" stroke-width="0.5" stroke-linecap="butt"/><path d="M267.08716,130.54827c-0.02078,-0.61173 0.4016,-1.1357 0.97854,-1.26298c-0.01672,-0.08778 -0.02691,-0.17799 -0.03004,-0.27009c-0.03186,-0.93785 0.68031,-1.72839 1.60587,-1.80359c0.22364,-0.11579 0.47589,-0.1849 0.74433,-0.19403c0.43925,-0.01492 0.84618,0.13336 1.16244,0.39035c0.19918,0.07545 0.37458,0.20046 0.51059,0.36048c0.30748,-0.40172 0.78583,-0.66759 1.3309,-0.6861c0.96594,-0.03282 1.77559,0.72364 1.8084,1.68958c0.03282,0.96594 -0.72364,1.77559 -1.68958,1.8084c-0.6725,0.02285 -1.26925,-0.33688 -1.58083,-0.88352c-0.28476,0.45293 -0.77198,0.76787 -1.33939,0.81398c-0.22364,0.11579 -0.47589,0.1849 -0.74433,0.19403c-0.0921,0.00313 -0.18279,-0.00091 -0.27151,-0.01164c-0.08784,0.58424 -0.58195,1.04121 -1.19368,1.062c-0.68996,0.02344 -1.26828,-0.51687 -1.29172,-1.20684z" fill="#7822e0" stroke="none" stroke-width="0.5" stroke-linecap="butt"/><path d="M267.70206,148.88584c-0.44027,-12.96054 9.70942,-23.82402 22.66995,-24.26428c12.96054,-0.44027 23.82401,9.70941 24.26428,22.66994c0.44027,12.96054 -9.70941,23.82402 -22.66993,24.26429c-12.96054,0.44027 -23.82403,-9.70942 -24.26429,-22.66994z" fill="url(#color-1)" stroke="#000000" stroke-width="0" stroke-linecap="butt"/><path d="M346.19354,169.71372c-12.96054,0.44027 -23.82402,-9.70942 -24.26428,-22.66995c-0.44027,-12.96054 9.70941,-23.82401 22.66994,-24.26428c12.96054,-0.44027 23.82402,9.70941 24.26429,22.66993c0.44027,12.96054 -9.70942,23.82403 -22.66994,24.26429z" fill="url(#color-2)" stroke="#000000" stroke-width="0" stroke-linecap="butt"/><path d="M269.71197,119.45276c-0.02344,-0.68996 0.51687,-1.26828 1.20684,-1.29172c0.68996,-0.02344 1.26828,0.51687 1.29172,1.20684c0.02344,0.68996 -0.51687,1.26828 -1.20684,1.29172c-0.68996,0.02344 -1.26828,-0.51687 -1.29172,-1.20684z" fill="#3a1aaf" stroke="none" stroke-width="0.5" stroke-linecap="butt"/><path d="M287.18491,118.35892c-0.02344,-0.68996 0.51687,-1.26828 1.20684,-1.29172c0.68996,-0.02344 1.26828,0.51687 1.29172,1.20684c0.02344,0.68996 -0.51687,1.26828 -1.20684,1.29172c-0.68996,0.02344 -1.26828,-0.51687 -1.29172,-1.20684z" fill="#3a1aaf" stroke="none" stroke-width="0.5" stroke-linecap="butt"/><path d="M291.9532,116.36255c-0.02344,-0.68996 0.51687,-1.26828 1.20684,-1.29172c0.68996,-0.02344 1.26828,0.51687 1.29172,1.20684c0.02344,0.68996 -0.51687,1.26828 -1.20684,1.29172c-0.68996,0.02344 -1.26828,-0.51687 -1.29172,-1.20684z" fill="#3a1aaf" stroke="none" stroke-width="0.5" stroke-linecap="butt"/><path d="M314.92617,120.08476c-0.00173,-0.0511 0.00168,-0.10118 0.00978,-0.14973c-0.49864,-0.15049 -0.86924,-0.60506 -0.88791,-1.15454c-0.02344,-0.68996 0.51687,-1.26828 1.20684,-1.29172c0.68996,-0.02344 1.26828,0.51687 1.29172,1.20684c0.01124,0.33076 -0.10708,0.63586 -0.30934,0.86647c0.11172,0.12604 0.18187,0.29026 0.18805,0.47175c0.01406,0.41398 -0.31013,0.76097 -0.72411,0.77503c-0.41398,0.01406 -0.76097,-0.31013 -0.77503,-0.72411z" fill="#3a1aaf" stroke="none" stroke-width="0.5" stroke-linecap="butt"/><path d="M316.69053,118.02368c-0.02344,-0.68996 0.51687,-1.26828 1.20684,-1.29172c0.68996,-0.02344 1.26828,0.51687 1.29172,1.20684c0.02344,0.68996 -0.51687,1.26828 -1.20684,1.29172c-0.68996,0.02344 -1.26828,-0.51687 -1.29172,-1.20684z" fill="#3a1aaf" stroke="none" stroke-width="0.5" stroke-linecap="butt"/><path d="M351.15932,116.51924c-0.02344,-0.68996 0.51687,-1.26828 1.20684,-1.29172c0.68996,-0.02344 1.26828,0.51687 1.29172,1.20684c0.02344,0.68996 -0.51687,1.26828 -1.20684,1.29172c-0.68996,0.02344 -1.26828,-0.51687 -1.29172,-1.20684z" fill="#3a1aaf" stroke="none" stroke-width="0.5" stroke-linecap="butt"/><path d="M357.50033,116.63737c-0.02344,-0.68996 0.51687,-1.26828 1.20684,-1.29172c0.68996,-0.02344 1.26828,0.51687 1.29172,1.20684c0.02344,0.68996 -0.51687,1.26828 -1.20684,1.29172c-0.68996,0.02344 -1.26828,-0.51687 -1.29172,-1.20684z" fill="#3a1aaf" stroke="none" stroke-width="0.5" stroke-linecap="butt"/><path d="M361.43577,114.6693c-0.02344,-0.68996 0.51687,-1.26828 1.20684,-1.29172c0.68996,-0.02344 1.26828,0.51687 1.29172,1.20684c0.02344,0.68996 -0.51687,1.26828 -1.20684,1.29172c-0.68996,0.02344 -1.26828,-0.51687 -1.29172,-1.20684z" fill="#3a1aaf" stroke="none" stroke-width="0.5" stroke-linecap="butt"/><path d="M261.85556,128.72483c-0.01406,-0.41398 0.31013,-0.76097 0.72411,-0.77503c0.03734,-0.00127 0.07414,0.00022 0.1102,0.00427c-0.02029,-0.08262 -0.03241,-0.16855 -0.0354,-0.25696c-0.02344,-0.68996 0.51687,-1.26828 1.20684,-1.29172c0.68996,-0.02344 1.26828,0.51687 1.29172,1.20684c0.02344,0.68996 -0.51687,1.26828 -1.20684,1.29172c-0.21334,0.00725 -0.41601,-0.03941 -0.59491,-0.12772c-0.03738,0.36737 -0.34133,0.65982 -0.72067,0.67271c-0.41398,0.01406 -0.76097,-0.31013 -0.77503,-0.72411z" fill="#551cba" stroke="none" stroke-width="0.5" stroke-linecap="butt"/><path d="M275.61303,126.25634c-0.02344,-0.68996 0.51687,-1.26828 1.20684,-1.29172c0.68996,-0.02344 1.26828,0.51687 1.29172,1.20684c0.02344,0.68996 -0.51687,1.26828 -1.20684,1.29172c-0.68996,0.02344 -1.26828,-0.51687 -1.29172,-1.20684z" fill="#551cba" stroke="none" stroke-width="0.5" stroke-linecap="butt"/><path d="M305.94584,125.72623c-0.02344,-0.68996 0.51687,-1.26828 1.20684,-1.29172c0.68996,-0.02344 1.26828,0.51687 1.29172,1.20684c0.02344,0.68996 -0.51687,1.26828 -1.20684,1.29172c-0.68996,0.02344 -1.26828,-0.51687 -1.29172,-1.20684z" fill="#551cba" stroke="none" stroke-width="0.5" stroke-linecap="butt"/><path d="M320.79325,125.88892c-0.00188,-0.05512 0.00225,-0.10907 0.0118,-0.16119c-0.13339,0.0546 -0.27857,0.08687 -0.43104,0.09206c-0.68996,0.02344 -1.26828,-0.51687 -1.29172,-1.20684c-0.02344,-0.68996 0.51687,-1.26828 1.20684,-1.29172c0.68996,-0.02344 1.26828,0.51687 1.29172,1.20684c0.00719,0.21159 -0.03864,0.41267 -0.12555,0.59047c0.02045,-0.00237 0.04114,-0.00394 0.06207,-0.00466c0.09004,-0.00305 0.17692,0.00989 0.25789,0.03628c-0.00573,-0.04203 -0.00939,-0.08474 -0.01086,-0.12805c-0.02344,-0.68996 0.51687,-1.26828 1.20684,-1.29172c0.68996,-0.02344 1.26828,0.51687 1.29172,1.20684c0.02344,0.68996 -0.51687,1.26828 -1.20684,1.29172c-0.28844,0.0098 -0.55737,-0.07893 -0.77441,-0.23594c-0.05966,0.34227 -0.35241,0.60774 -0.71341,0.62c-0.41398,0.01406 -0.76097,-0.31013 -0.77503,-0.72411z" fill="#551cba" stroke="none" stroke-width="0.5" stroke-linecap="butt"/><path d="M326.40007,124.03082c-0.02344,-0.68996 0.51687,-1.26828 1.20684,-1.29172c0.68996,-0.02344 1.26828,0.51687 1.29172,1.20684c0.02344,0.68996 -0.51687,1.26828 -1.20684,1.29172c-0.68996,0.02344 -1.26828,-0.51687 -1.29172,-1.20684z" fill="#551cba" stroke="none" stroke-width="0.5" stroke-linecap="butt"/><path d="M362.3963,123.30833c-0.02344,-0.68996 0.51687,-1.26828 1.20684,-1.29172c0.68996,-0.02344 1.26828,0.51687 1.29172,1.20684c0.02344,0.68996 -0.51687,1.26828 -1.20684,1.29172c-0.68996,0.02344 -1.26828,-0.51687 -1.29172,-1.20684z" fill="#551cba" stroke="none" stroke-width="0.5" stroke-linecap="butt"/><path d="M367.67315,126.46433c-0.00432,-0.1272 0.0233,-0.24807 0.07564,-0.35491c-0.45003,-0.17672 -0.77539,-0.60765 -0.79284,-1.12159c-0.02344,-0.68996 0.51687,-1.26828 1.20684,-1.29172c0.68996,-0.02344 1.26828,0.51687 1.29172,1.20684c0.0141,0.41528 -0.17601,0.7901 -0.48006,1.02786c0.11743,0.1274 0.19151,0.29587 0.19785,0.48259c0.01406,0.41398 -0.31013,0.76097 -0.72411,0.77503c-0.41398,0.01406 -0.76097,-0.31013 -0.77503,-0.72411z" fill="#551cba" stroke="none" stroke-width="0.5" stroke-linecap="butt"/><path d="M370.57524,123.53079c-0.02344,-0.68996 0.51687,-1.26828 1.20684,-1.29172c0.68996,-0.02344 1.26828,0.51687 1.29172,1.20684c0.02344,0.68996 -0.51687,1.26828 -1.20684,1.29172c-0.68996,0.02344 -1.26828,-0.51687 -1.29172,-1.20684z" fill="#551cba" stroke="none" stroke-width="0.5" stroke-linecap="butt"/><path d="M261.08247,135.42161c-0.02344,-0.68996 0.51687,-1.26828 1.20684,-1.29172c0.68996,-0.02344 1.26828,0.51687 1.29172,1.20684c0.02344,0.68996 -0.51687,1.26828 -1.20684,1.29172c-0.68996,0.02344 -1.26828,-0.51687 -1.29172,-1.20684z" fill="#7822e0" stroke="none" stroke-width="0.5" stroke-linecap="butt"/><path d="M316.25377,129.7119c0.02344,0.68996 -0.51687,1.26828 -1.20684,1.29172c-0.62765,0.02132 -1.16292,-0.4239 -1.27211,-1.02389c-0.49788,-0.15094 -0.86775,-0.60515 -0.88639,-1.15408c-0.02344,-0.68996 0.51687,-1.26828 1.20684,-1.29172c0.62765,-0.02132 1.16292,0.4239 1.27211,1.02389c0.49788,0.15094 0.86775,0.60515 0.88639,1.15408z" fill="#7822e0" stroke="none" stroke-width="0.5" stroke-linecap="butt"/><path d="M316.81572,131.5272c-0.02344,-0.68996 0.51687,-1.26828 1.20684,-1.29172c0.68996,-0.02344 1.26828,0.51687 1.29172,1.20684c0.02344,0.68996 -0.51687,1.26828 -1.20684,1.29172c-0.68996,0.02344 -1.26828,-0.51687 -1.29172,-1.20684z" fill="#7822e0" stroke="none" stroke-width="0.5" stroke-linecap="butt"/><path d="M365.60959,129.53616c-0.02344,-0.68996 0.51687,-1.26828 1.20684,-1.29172c0.68996,-0.02344 1.26828,0.51687 1.29172,1.20684c0.02344,0.68996 -0.51687,1.26828 -1.20684,1.29172c-0.68996,0.02344 -1.26828,-0.51687 -1.29172,-1.20684z" fill="#7822e0" stroke="none" stroke-width="0.5" stroke-linecap="butt"/><path d="M370.45711,129.87177c-0.02344,-0.68996 0.51687,-1.26828 1.20684,-1.29172c0.68996,-0.02344 1.26828,0.51687 1.29172,1.20684c0.02344,0.68996 -0.51687,1.26828 -1.20684,1.29172c-0.68996,0.02344 -1.26828,-0.51687 -1.29172,-1.20684z" fill="#7822e0" stroke="none" stroke-width="0.5" stroke-linecap="butt"/><path d="M274.25464,120.63254c-0.01406,-0.41398 0.31013,-0.76097 0.72411,-0.77503c0.41398,-0.01406 0.76097,0.31013 0.77503,0.72411c0.01406,0.41398 -0.31013,0.76097 -0.72411,0.77503c-0.41398,0.01406 -0.76097,-0.31013 -0.77503,-0.72411z" fill="#3a1aaf" stroke="none" stroke-width="0.5" stroke-linecap="butt"/><path d="M290.26239,120.58905c-0.01406,-0.41398 0.31013,-0.76097 0.72411,-0.77503c0.41398,-0.01406 0.76097,0.31013 0.77503,0.72411c0.01406,0.41398 -0.31013,0.76097 -0.72411,0.77503c-0.41398,0.01406 -0.76097,-0.31013 -0.77503,-0.72411z" fill="#3a1aaf" stroke="none" stroke-width="0.5" stroke-linecap="butt"/><path d="M355.3915,118.37663c-0.01406,-0.41398 0.31013,-0.76097 0.72411,-0.77503c0.41398,-0.01406 0.76097,0.31013 0.77503,0.72411c0.01406,0.41398 -0.31013,0.76097 -0.72411,0.77503c-0.41398,0.01406 -0.76097,-0.31013 -0.77503,-0.72411z" fill="#3a1aaf" stroke="none" stroke-width="0.5" stroke-linecap="butt"/><path d="M359.58404,119.06803c-0.01406,-0.41398 0.31013,-0.76097 0.72411,-0.77503c0.41398,-0.01406 0.76097,0.31013 0.77503,0.72411c0.01406,0.41398 -0.31013,0.76097 -0.72411,0.77503c-0.41398,0.01406 -0.76097,-0.31013 -0.77503,-0.72411z" fill="#3a1aaf" stroke="none" stroke-width="0.5" stroke-linecap="butt"/><path d="M307.67945,127.66849c-0.01406,-0.41398 0.31013,-0.76097 0.72411,-0.77503c0.41398,-0.01406 0.76097,0.31013 0.77503,0.72411c0.01406,0.41398 -0.31013,0.76097 -0.72411,0.77503c-0.41398,0.01406 -0.76097,-0.31013 -0.77503,-0.72411z" fill="#551cba" stroke="none" stroke-width="0.5" stroke-linecap="butt"/><path d="M326.8294,126.85121c-0.01406,-0.41398 0.31013,-0.76097 0.72411,-0.77503c0.41398,-0.01406 0.76097,0.31013 0.77503,0.72411c0.01406,0.41398 -0.31013,0.76097 -0.72411,0.77503c-0.41398,0.01406 -0.76097,-0.31013 -0.77503,-0.72411z" fill="#551cba" stroke="none" stroke-width="0.5" stroke-linecap="butt"/><path d="M263.5446,139.17351c-0.01406,-0.41398 0.31013,-0.76097 0.72411,-0.77503c0.41398,-0.01406 0.76097,0.31013 0.77503,0.72411c0.01406,0.41398 -0.31013,0.76097 -0.72411,0.77503c-0.41398,0.01406 -0.76097,-0.31013 -0.77503,-0.72411z" fill="#7822e0" stroke="none" stroke-width="0.5" stroke-linecap="butt"/><path d="M316.23431,134.0484c-0.01406,-0.41398 0.31013,-0.76097 0.72411,-0.77503c0.41398,-0.01406 0.76097,0.31013 0.77503,0.72411c0.01406,0.41398 -0.31013,0.76097 -0.72411,0.77503c-0.41398,0.01406 -0.76097,-0.31013 -0.77503,-0.72411z" fill="#7822e0" stroke="none" stroke-width="0.5" stroke-linecap="butt"/><path d="M369.70913,132.39863c-0.01406,-0.41398 0.31013,-0.76097 0.72411,-0.77503c0.41398,-0.01406 0.76097,0.31013 0.77503,0.72411c0.01406,0.41398 -0.31013,0.76097 -0.72411,0.77503c-0.41398,0.01406 -0.76097,-0.31013 -0.77503,-0.72411z" fill="#7822e0" stroke="none" stroke-width="0.5" stroke-linecap="butt"/></g><path d="M299.46165,126.33273c-1.53583,3.6274 -5.08378,5.79847 -9.27973,5.94101c-4.06275,0.13802 -7.64268,-1.4931 -9.48152,-4.82364c-0.37381,-0.67707 4.2728,-2.67856 8.98812,-2.92938c4.99226,-0.26554 10.06808,1.1153 9.7731,1.81202z" fill="#000000" stroke="#000000" stroke-width="0" stroke-linecap="butt"/><path d="M352.55983,124.0199c-1.43447,3.5379 -4.84622,6.08616 -8.90797,6.22413c-3.88222,0.13188 -7.16898,-1.6927 -8.92471,-4.87614c-0.38366,-0.69562 4.7937,-2.44624 9.64979,-2.68422c4.43174,-0.21717 8.42607,0.73649 8.1829,1.33623z" fill="#000000" stroke="#000000" stroke-width="0" stroke-linecap="butt"/></g><g stroke="none" stroke-width="0" stroke-linecap="butt"><path d="M350.27297,224.81702c0.86814,25.55605 29.58024,47.63387 -27.09118,47.84733c-63.05806,0.23751 -30.57973,-19.50228 -31.44787,-45.05831c-0.86814,-25.55604 15.66404,-47.05893 28.30408,-47.48831c12.64003,-0.42938 29.36684,19.14324 30.23498,44.69929z" fill="#000000"/><path d="M309.14221,188.35083c2.6822,-0.23396 0.80688,9.25058 0.80688,9.25058c0,0 -3.48909,-9.01663 -0.80688,-9.25058z" fill="#e2e2e2"/><path d="M312.63263,185.37863c2.69235,-0.01193 0.04116,9.28562 0.04116,9.28562c0,0 -2.73352,-9.27368 -0.04116,-9.28562z" fill="#e2e2e2"/><path d="M329.48716,196.65184c0,0 -2.51463,-9.33542 0.17726,-9.28402c2.69189,0.0514 -0.17726,9.28402 -0.17726,9.28402z" fill="#e2e2e2"/><path d="M327.20418,193.88477c0,0 -3.27604,-9.09622 -0.58907,-9.26701c2.68697,-0.17081 0.58907,9.26701 0.58907,9.26701z" fill="#e2e2e2"/><path d="M323.94703,192.13922c0,0 -3.17171,-9.1331 -0.48297,-9.27314c2.68874,-0.14004 0.48297,9.27314 0.48297,9.27314z" fill="#e2e2e2"/><path d="M315.97926,182.9774c2.69205,-0.04275 0.14743,9.28454 0.14743,9.28454c0,0 -2.83949,-9.24179 -0.14743,-9.28454z" fill="#e2e2e2"/><path d="M318.53034,181.28267c2.69205,-0.04275 0.14743,9.28454 0.14743,9.28454c0,0 -2.83949,-9.24179 -0.14743,-9.28454z" fill="#e2e2e2"/><path d="M321.63894,190.46662c0,0 -3.17171,-9.13311 -0.48297,-9.27315c2.68874,-0.14004 0.48297,9.27315 0.48297,9.27315z" fill="#e2e2e2"/></g><g stroke="none" stroke-width="0" stroke-linecap="butt"><path d="M305.77304,260.07464c0.34595,10.18389 -7.77041,18.72482 -18.12838,19.07668c-10.35799,0.35186 -19.03523,-7.61859 -19.38118,-17.80248c-0.34595,-10.18389 -0.30537,-19.29649 18.12838,-19.07668c29.28298,0.34917 19.03523,7.61858 19.38118,17.80248z" fill="#751cbd"/><path d="M356.77744,239.88118c18.37636,-1.47024 19.03523,7.61858 19.38118,17.80248c0.34595,10.18389 -7.77041,18.72482 -18.12838,19.07668c-10.35799,0.35186 -19.03523,-7.61859 -19.38118,-17.80248c-0.34595,-10.18389 -11.06337,-16.74113 18.12838,-19.07668z" fill="#751cbd"/><path d="M305.79446,260.70506c0.34595,10.18389 -7.77041,18.72482 -18.12838,19.07668c-10.35799,0.35186 -19.03523,-7.61859 -19.38118,-17.80248c-0.34595,-10.18389 -0.30537,-19.29649 18.12838,-19.07668c29.28298,0.34917 19.03523,7.61858 19.38118,17.80248z" fill="#8b21e0"/><path d="M356.79887,240.51159c18.37636,-1.47024 19.03523,7.61858 19.38118,17.80248c0.34595,10.18389 -7.77041,18.72482 -18.12838,19.07668c-10.35799,0.35186 -19.03523,-7.61859 -19.38118,-17.80248c-0.34595,-10.18389 -11.06337,-16.74113 18.12838,-19.07668z" fill="#8b21e0"/></g></g></g></g></svg>