<svg version="1.1" xmlns="http://www.w3.org/2000/svg" xmlns:xlink="http://www.w3.org/1999/xlink" width="34.17311" height="34.17311" viewBox="0,0,34.17311,34.17311"><g transform="translate(-302.91346,-162.91348)"><g stroke-miterlimit="10"><path d="M309.98312,162.91349h20.03379c3.9166,0 7.06966,3.15307 7.06966,7.06966v20.03379c0,3.91659 -3.15306,7.06966 -7.06966,7.06966h-20.03379c-3.91659,0 -7.06966,-3.15307 -7.06966,-7.06966v-20.03379c0,-3.91659 3.15307,-7.06966 7.06966,-7.06966z" fill="#c5c5c5" fill-rule="evenodd" stroke="none" stroke-width="4.43922" stroke-linecap="round" stroke-linejoin="round"/><path d="" fill="#ff7500" fill-rule="nonzero" stroke="#000000" stroke-width="0" stroke-linecap="butt" stroke-linejoin="miter"/><path d="" fill="none" fill-rule="nonzero" stroke="#000000" stroke-width="0" stroke-linecap="round" stroke-linejoin="miter"/><g fill-rule="nonzero" stroke="#000000" stroke-width="1.5" stroke-linecap="butt" stroke-linejoin="miter"><path d="M325.79309,180.71175l7.18057,-7.61882l0.907,0.85483l-7.18057,7.61882z" fill="#ca7e3b"/><path d="M332.95054,174.09874c-0.77143,-0.72705 -0.80739,-1.9418 -0.08034,-2.71322c0.72705,-0.77142 1.9418,-0.80739 2.71322,-0.08034c0.77143,0.72705 0.80739,1.9418 0.08034,2.71322c-0.72705,0.77142 -1.9418,0.8074 -2.71322,0.08035z" fill="#ff7500"/><path d="M325.79309,180.71175l7.18057,-7.61882l0.907,0.85483l-7.18057,7.61882z" fill="#ca7e3b"/><path d="M332.95054,174.09874c-0.77143,-0.72705 -0.80739,-1.9418 -0.08034,-2.71322c0.72705,-0.77142 1.9418,-0.80739 2.71322,-0.08034c0.77143,0.72705 0.80739,1.9418 0.08034,2.71322c-0.72705,0.77142 -1.9418,0.8074 -2.71322,0.08035z" fill="#ff7500"/><path d="M313.29992,181.56658l-7.18057,-7.61882l0.907,-0.85483l7.18057,7.61882z" fill="#ca7e3b"/><path d="M304.33627,174.01839c-0.72705,-0.77142 -0.69108,-1.98617 0.08034,-2.71322c0.77143,-0.72705 1.98617,-0.69108 2.71322,0.08034c0.72705,0.77142 0.69108,1.98618 -0.08035,2.71322c-0.77143,0.72705 -1.98617,0.69108 -2.71322,-0.08035z" fill="#ff7500"/><path d="M313.29992,181.56658l-7.18057,-7.61882l0.907,-0.85483l7.18057,7.61882z" fill="#ca7e3b"/><path d="M306.94808,184.84283c0,0 2.86757,-10.23759 12.81781,-10.17276c11.30121,0.07363 13.45524,10.25335 13.45524,10.25335l-2.34314,0.04029c0,0 -0.52566,-9.2496 -11.11743,-9.27014c-9.59358,-0.0186 -10.61892,9.18955 -10.61892,9.18955z" fill="#ffad65"/><path d="M332.87108,183.13906c1.59001,0 2.88783,2.66768 2.96288,5.95575c-0.06799,0.00178 -0.13599,0.00342 -0.20399,0.00493c-1.90859,0.04243 -3.81733,0.07275 -5.72618,0.09355c-0.03143,-3.33413 -0.78875,-6.05423 2.96729,-6.05423z" fill="#ff7500"/><path d="M330.37836,182.19183c1.92188,0.0477 2.75279,3.13404 2.76672,6.95651c-1.57857,0.0268 -3.15722,0.0461 -4.73595,0.05932c0.00138,-3.85095 0.21085,-7.05947 1.96923,-7.01584z" fill="#ffa800"/><path d="M332.87108,183.13906c1.59001,0 2.88783,2.66768 2.96288,5.95575c-0.06799,0.00178 -0.13599,0.00342 -0.20399,0.00493c-1.90859,0.04243 -3.81733,0.07275 -5.72618,0.09355c-0.03143,-3.33413 -0.78875,-6.05423 2.96729,-6.05423z" fill="#ff7500"/><path d="M330.37836,182.19183c1.92188,0.0477 2.75279,3.13404 2.76672,6.95651c-1.57857,0.0268 -3.15722,0.0461 -4.73595,0.05932c0.00138,-3.85095 0.21085,-7.05947 1.96923,-7.01584z" fill="#ffb41f"/><path d="M307.12258,183.13906c3.74845,0 3.00175,2.65924 2.96748,5.98395c-1.97706,-0.01497 -3.9541,-0.03065 -5.9311,-0.04419c0.06684,-3.30404 1.36812,-5.93976 2.96362,-5.93976z" fill="#ff7500"/><path d="M309.61527,182.19183c1.75481,-0.04355 1.96699,3.102 1.96921,6.94231c-1.57865,-0.01153 -3.1573,-0.02396 -4.73593,-0.03585c0.01392,-3.82248 0.84484,-6.85876 2.76672,-6.90645z" fill="#ffa800"/><path d="M307.12258,183.13906c3.74845,0 3.00175,2.65924 2.96748,5.98395c-1.97706,-0.01497 -3.9541,-0.03065 -5.9311,-0.04419c0.06684,-3.30404 1.36812,-5.93976 2.96362,-5.93976z" fill="#ff7500"/><path d="M309.61527,182.19183c1.75481,-0.04355 1.96699,3.102 1.96921,6.94231c-1.57865,-0.01153 -3.1573,-0.02396 -4.73593,-0.03585c0.01392,-3.82248 0.84484,-6.85876 2.76672,-6.90645z" fill="#ffb41f"/><path d="M308.16372,189.06579c0,-6.12658 5.29099,-11.09314 11.81775,-11.09314c6.52677,0 11.81775,5.01663 11.81775,11.14321c0,0.01787 -0.00005,0.03572 -0.00014,0.05356c-7.87712,0.11301 -15.75637,-0.00082 -23.63528,-0.06112c-0.00005,-0.01416 -0.00009,-0.02833 -0.00009,-0.04251z" fill="#ff7500"/><path d="M304.33627,174.01839c-0.72705,-0.77142 -0.69108,-1.98617 0.08034,-2.71322c0.77143,-0.72705 1.98617,-0.69108 2.71322,0.08034c0.72705,0.77142 0.69108,1.98618 -0.08035,2.71322c-0.77143,0.72705 -1.98617,0.69108 -2.71322,-0.08035z" fill="#ff7500"/></g><path d="M325.79309,180.71175l7.18057,-7.61882l0.907,0.85483l-7.18057,7.61882z" fill="#ca7e3b" fill-rule="nonzero" stroke="#000000" stroke-width="0" stroke-linecap="butt" stroke-linejoin="miter"/><path d="M303.29312,191.21193v-2.66666h33.44444v2.66666z" fill="#c5c5c5" fill-rule="nonzero" stroke="none" stroke-width="0" stroke-linecap="butt" stroke-linejoin="miter"/><path d="M332.95054,174.09874c-0.77143,-0.72705 -0.80739,-1.9418 -0.08034,-2.71322c0.72705,-0.77142 1.9418,-0.80739 2.71322,-0.08034c0.77143,0.72705 0.80739,1.9418 0.08034,2.71322c-0.72705,0.77142 -1.9418,0.8074 -2.71322,0.08035z" fill="#ff7500" fill-rule="nonzero" stroke="#000000" stroke-width="0" stroke-linecap="butt" stroke-linejoin="miter"/><path d="M325.79309,180.71175l7.18057,-7.61882l0.907,0.85483l-7.18057,7.61882z" fill="#c9c9c9" fill-rule="nonzero" stroke="#000000" stroke-width="0" stroke-linecap="butt" stroke-linejoin="miter"/><path d="M332.95054,174.09874c-0.77143,-0.72705 -0.80739,-1.9418 -0.08034,-2.71322c0.72705,-0.77142 1.9418,-0.80739 2.71322,-0.08034c0.77143,0.72705 0.80739,1.9418 0.08034,2.71322c-0.72705,0.77142 -1.9418,0.8074 -2.71322,0.08035z" fill="#ffffff" fill-rule="nonzero" stroke="#000000" stroke-width="0" stroke-linecap="butt" stroke-linejoin="miter"/><path d="M313.29992,181.56658l-7.18057,-7.61882l0.907,-0.85483l7.18057,7.61882z" fill="#ca7e3b" fill-rule="nonzero" stroke="#000000" stroke-width="0" stroke-linecap="butt" stroke-linejoin="miter"/><path d="M304.33627,174.01839c-0.72705,-0.77142 -0.69108,-1.98617 0.08034,-2.71322c0.77143,-0.72705 1.98617,-0.69108 2.71322,0.08034c0.72705,0.77142 0.69108,1.98618 -0.08035,2.71322c-0.77143,0.72705 -1.98617,0.69108 -2.71322,-0.08035z" fill="#ff7500" fill-rule="nonzero" stroke="#000000" stroke-width="0" stroke-linecap="butt" stroke-linejoin="miter"/><path d="M313.29992,181.56658l-7.18057,-7.61882l0.907,-0.85483l7.18057,7.61882z" fill="#c9c9c9" fill-rule="nonzero" stroke="#000000" stroke-width="0" stroke-linecap="butt" stroke-linejoin="miter"/><path d="M306.94808,184.84283c0,0 2.86757,-10.23759 12.81781,-10.17276c11.30121,0.07363 13.45524,10.25335 13.45524,10.25335l-2.34314,0.04029c0,0 -0.52566,-9.2496 -11.11743,-9.27014c-9.59358,-0.0186 -10.61892,9.18955 -10.61892,9.18955z" fill="#bababa" fill-rule="nonzero" stroke="#000000" stroke-width="0" stroke-linecap="butt" stroke-linejoin="miter"/><path d="M332.87108,183.13906c1.59001,0 2.88783,2.66768 2.96288,5.95575c-0.06799,0.00178 -0.13599,0.00342 -0.20399,0.00493c-1.90859,0.04243 -3.81733,0.07275 -5.72618,0.09355c-0.03143,-3.33413 -0.78875,-6.05423 2.96729,-6.05423z" fill="#ff7500" fill-rule="nonzero" stroke="#000000" stroke-width="0" stroke-linecap="butt" stroke-linejoin="miter"/><path d="M330.37836,182.19183c1.92188,0.0477 2.75279,3.13404 2.76672,6.95651c-1.57857,0.0268 -3.15722,0.04609 -4.73594,0.05932c0.00138,-3.85095 0.21084,-7.05947 1.96922,-7.01584z" fill="#ffa800" fill-rule="nonzero" stroke="#000000" stroke-width="0" stroke-linecap="butt" stroke-linejoin="miter"/><path d="M332.87108,183.13906c1.59001,0 2.88783,2.66768 2.96288,5.95575c-0.06799,0.00178 -0.13599,0.00342 -0.20399,0.00493c-1.90859,0.04243 -3.81733,0.07275 -5.72618,0.09355c-0.03143,-3.33413 -0.78875,-6.05423 2.96729,-6.05423z" fill="#c5c5c5" fill-rule="nonzero" stroke="#000000" stroke-width="0" stroke-linecap="butt" stroke-linejoin="miter"/><path d="M330.37836,182.19183c1.92188,0.0477 2.75279,3.13404 2.76672,6.95651c-1.57857,0.0268 -3.15722,0.04609 -4.73594,0.05932c0.00138,-3.85095 0.21084,-7.05947 1.96922,-7.01584z" fill="#a3a3a3" fill-rule="nonzero" stroke="#000000" stroke-width="0" stroke-linecap="butt" stroke-linejoin="miter"/><path d="M307.12258,183.13906c3.74845,0 3.00175,2.65924 2.96748,5.98395c-1.97706,-0.01497 -3.9541,-0.03065 -5.9311,-0.04419c0.06684,-3.30404 1.36812,-5.93976 2.96362,-5.93976z" fill="#ff7500" fill-rule="nonzero" stroke="#000000" stroke-width="0" stroke-linecap="butt" stroke-linejoin="miter"/><path d="M309.61527,182.19183c1.75481,-0.04355 1.96699,3.102 1.96921,6.94231c-1.57865,-0.01153 -3.1573,-0.02395 -4.73593,-0.03585c0.01392,-3.82248 0.84484,-6.85877 2.76672,-6.90646z" fill="#ffa800" fill-rule="nonzero" stroke="#000000" stroke-width="0" stroke-linecap="butt" stroke-linejoin="miter"/><path d="M307.12258,183.13906c3.74845,0 3.00175,2.65924 2.96748,5.98395c-1.97706,-0.01497 -3.9541,-0.03065 -5.9311,-0.04419c0.06684,-3.30404 1.36812,-5.93976 2.96362,-5.93976z" fill="#c5c5c5" fill-rule="nonzero" stroke="#000000" stroke-width="0" stroke-linecap="butt" stroke-linejoin="miter"/><path d="M309.61527,182.19183c1.75481,-0.04355 1.96699,3.102 1.96921,6.94231c-1.57865,-0.01153 -3.1573,-0.02395 -4.73593,-0.03585c0.01392,-3.82248 0.84484,-6.85877 2.76672,-6.90646z" fill="#a3a3a3" fill-rule="nonzero" stroke="#000000" stroke-width="0" stroke-linecap="butt" stroke-linejoin="miter"/><path d="M308.16372,189.12829c0,-6.12658 5.29099,-11.09314 11.81775,-11.09314c6.52677,0 11.81775,5.01663 11.81775,11.14321c0,0.01787 -0.00005,0.03572 -0.00014,0.05356c-7.87712,0.11301 -15.75637,-0.00082 -23.63528,-0.06112c-0.00005,-0.01416 -0.00009,-0.02833 -0.00009,-0.04251z" fill="#c5c5c5" fill-rule="nonzero" stroke="#000000" stroke-width="0" stroke-linecap="butt" stroke-linejoin="miter"/><path d="M304.33627,174.01839c-0.72705,-0.77142 -0.69108,-1.98617 0.08034,-2.71322c0.77143,-0.72705 1.98617,-0.69108 2.71322,0.08034c0.72705,0.77142 0.69108,1.98618 -0.08035,2.71322c-0.77143,0.72705 -1.98617,0.69108 -2.71322,-0.08035z" fill="#ffffff" fill-rule="nonzero" stroke="#000000" stroke-width="0" stroke-linecap="butt" stroke-linejoin="miter"/></g></g></svg>