<svg version="1.1" xmlns="http://www.w3.org/2000/svg" xmlns:xlink="http://www.w3.org/1999/xlink" width="236.79905" height="280.18475" viewBox="0,0,236.79905,280.18475"><defs><linearGradient x1="248.26975" y1="171.49469" x2="236.87837" y2="208.58775" gradientUnits="userSpaceOnUse" id="color-1"><stop offset="0" stop-color="#ffffff"/><stop offset="1" stop-color="#bababa"/></linearGradient><linearGradient x1="302.57411" y1="174.01483" x2="290.70292" y2="212.67026" gradientUnits="userSpaceOnUse" id="color-2"><stop offset="0" stop-color="#ffffff"/><stop offset="1" stop-color="#bababa"/></linearGradient></defs><g transform="translate(-190.9066,-38.88751)"><g stroke-miterlimit="10"><g stroke="#000000"><g fill="#000000" stroke-width="0" stroke-linecap="butt"><path d="M286.35186,319.07226c0,0 -52.03817,-75.58442 -56.03532,-94.46024c-1.71025,-8.07637 32.36353,-17.32537 32.36353,-17.32537l37.37355,-30.62255c0,0 55.60375,-2.74144 59.7225,6.72194c8.68947,19.96526 -6.92429,135.68622 -6.92429,135.68622z"/></g><path d="M290.84314,228.92116l17.62032,37.19432l-3.91403,7.48525l-12.67123,-8.22254l-7.65684,-36.27774z" fill="#ffffff" stroke-width="2" stroke-linecap="round"/><path d="M294.76921,224.10277c0.70815,2.03949 1.87582,4.18935 0.74706,5.5543c-1.19406,1.44394 -4.77829,2.04501 -7.42267,2.04501c-2.25931,0 -5.10636,-0.20928 -7.09818,-1.30097c-2.54328,-1.39392 -4.03749,-3.9447 -4.85474,-6.29836c-0.74764,-2.15323 -1.16269,-4.99131 0.12081,-6.37409c1.21826,-1.31247 4.0498,-1.22522 6.55479,-1.22522c2.95234,0 6.13804,0.07764 8.45162,1.82607c1.71757,1.29799 2.88039,3.98502 3.50131,5.77325z" fill="#ffffff" stroke-width="2" stroke-linecap="butt"/></g><path d="M214.52362,306.61252v-267.72501h213.18203v267.72501z" fill="none" stroke="none" stroke-width="0" stroke-linecap="butt"/><path d="" fill="none" stroke="#000000" stroke-width="2" stroke-linecap="round"/><path d="M217.25549,261.10422c0,-0.41421 0.33579,-0.75 0.75,-0.75c0.41421,0 0.75,0.33579 0.75,0.75c0,0.41421 -0.33579,0.75 -0.75,0.75c-0.41421,0 -0.75,-0.33579 -0.75,-0.75z" fill="#000000" stroke="none" stroke-width="0.5" stroke-linecap="butt"/><g stroke="#000000" stroke-linecap="butt"><path d="M207.20171,182.37649c3.85715,-33.07772 35.55031,-56.56144 70.78865,-52.45235c35.23836,4.1091 60.67787,34.25496 56.82072,67.33268c-3.85715,33.07772 -35.5503,56.56145 -70.78867,52.45236c-35.23834,-4.10909 -60.67786,-34.25496 -56.82071,-67.33268z" fill="#000000" stroke-width="2"/><path d="M220.27591,183.36464c0.4103,-3.51866 14.93328,-13.42869 26.27316,-12.10636c11.33989,1.32232 20.71163,14.63389 20.3721,17.54558c-1.50201,12.88074 -13.16151,22.10502 -26.04223,20.60302c-12.88074,-1.50201 -22.10502,-13.16153 -20.60301,-26.04224z" fill="url(#color-1)" stroke-width="2"/><path d="M230.24441,178.5568c0.86619,-7.42821 7.59014,-12.74781 15.01836,-11.88161c7.4282,0.8662 12.74781,7.59017 11.88161,15.01838c-0.86619,7.42821 -7.59016,12.74781 -15.01838,11.88162c-7.4282,-0.8662 -12.74779,-7.59014 -11.88161,-15.01838z" fill="#000000" stroke-width="5"/><path d="M294.70195,213.48891c-12.88074,-1.50201 -22.10501,-13.16152 -20.603,-26.04223c0.35391,-3.03504 13.84159,-15.51685 25.11251,-14.20256c11.27092,1.31428 21.92942,16.24 21.53275,19.64179c-1.50201,12.88074 -13.16151,22.10503 -26.04224,20.60301z" fill="url(#color-2)" stroke-width="2"/><path d="M311.7733,184.23355c-0.87807,7.53019 -7.69432,12.92276 -15.22448,12.04469c-7.53015,-0.87808 -12.92275,-7.69434 -12.04468,-15.2245c0.87807,-7.53019 7.69433,-12.92275 15.22448,-12.04469c7.53015,0.87808 12.92275,7.69433 12.04466,15.22447z" fill="#000000" stroke-width="5"/><path d="M207.13546,180.82673l-2.22967,-54.38266c0,0 41.4154,-17.02331 68.97598,-15.5904c27.56059,1.43291 61.32176,22.36474 61.32176,22.36474l0.78725,55.71256z" fill="#000000" stroke-width="2"/><path d="M203.18391,180.54814l4.26261,-8.28389l126.91307,10.51891l0.28644,7.81214z" fill="#ffffff" stroke-width="0"/><path d="M195.27024,187.65475c0,0 -2.55071,-3.48778 -3.09202,-5.42282c-0.57822,-2.067 -0.27386,-6.60939 -0.27386,-6.60939l155.63983,13.31712c0,0 -0.80974,3.50375 -1.63282,5.32077c-0.89409,1.97372 -3.53635,6.09043 -3.53635,6.09043z" fill="#000000" stroke-width="2"/></g></g></g></svg>