<svg version="1.1" xmlns="http://www.w3.org/2000/svg" xmlns:xlink="http://www.w3.org/1999/xlink" width="254.18333" height="267.72501" viewBox="0,0,254.18333,267.72501"><g transform="translate(-190.17912,-31.19978)"><g stroke-miterlimit="10"><path d="M190.17913,298.92479v-267.72501h254.18333v267.72501z" fill="none" stroke="none" stroke-width="0" stroke-linecap="butt"/><path d="" fill="none" stroke="#000000" stroke-width="2" stroke-linecap="round"/><g stroke="#000000"><path d="M295.34981,224.50734l50.88029,-0.17691l-25.90909,50.1768z" fill="#ff6300" stroke-width="5" stroke-linecap="round"/><path d="M254.66203,186.55572l36.67943,36.64705l-52.19492,17.32952z" fill="#ff6300" stroke-width="5" stroke-linecap="round"/><path d="M249.16936,132.57496l1.92293,52.8404l-49.14515,-25.18175z" fill="#ff6300" stroke-width="5" stroke-linecap="round"/><path d="M286.91603,92.53839l-36.39875,36.94808l-15.02506,-54.76231z" fill="#ff6300" stroke-width="5" stroke-linecap="round"/><path d="M345.03096,87.47623l-50.87705,-0.62205l26.63563,-49.76424z" fill="#ff6300" stroke-width="5" stroke-linecap="round"/><path d="M389.21401,128.78538l-35.55226,-37.82779l52.69353,-15.61495z" fill="#ff6300" stroke-width="5" stroke-linecap="round"/><path d="M389.13297,183.10247l0.59856,-52.87452l47.88428,27.68136z" fill="#ff6300" stroke-width="5" stroke-linecap="round"/><path d="M350.58148,222.48862l36.39875,-36.94808l15.02506,54.76231z" fill="#ff6300" stroke-width="5" stroke-linecap="round"/><path d="M244.6041,155.3926c0,-40.62144 33.75591,-73.55162 75.39591,-73.55162c41.64002,0 75.39591,32.93018 75.39591,73.55162c0,40.62144 -33.7559,73.55163 -75.39591,73.55163c-41.64,0 -75.39591,-32.93019 -75.39591,-73.55163z" fill="#ffe63c" stroke-width="5" stroke-linecap="butt"/><path d="M295.34981,224.50734l50.88028,-0.17691l-25.90909,50.17682z" fill="#ff6300" stroke-width="0" stroke-linecap="round"/><path d="M254.66204,186.55572l36.67943,36.64705l-52.19492,17.32952z" fill="#ff6300" stroke-width="0" stroke-linecap="round"/><path d="M249.16936,132.57495l1.92292,52.8404l-49.14515,-25.18175z" fill="#ff6300" stroke-width="0" stroke-linecap="round"/><path d="M286.91603,92.53839l-36.39875,36.94808l-15.02506,-54.76231z" fill="#ff6300" stroke-width="0" stroke-linecap="round"/><path d="M345.03096,87.47623l-50.87705,-0.62206l26.63563,-49.76424z" fill="#ff6300" stroke-width="0" stroke-linecap="round"/><path d="M389.21401,128.78538l-35.55227,-37.82779l52.69353,-15.61495z" fill="#ff6300" stroke-width="0" stroke-linecap="round"/><path d="M389.13296,183.10246l0.59856,-52.87452l47.88428,27.68136z" fill="#ff6300" stroke-width="0" stroke-linecap="round"/><path d="M350.58148,222.48861l36.39875,-36.94808l15.02506,54.76231z" fill="#ff6300" stroke-width="0" stroke-linecap="round"/><path d="M244.6041,155.3926c0,-40.62144 33.75591,-73.55162 75.39591,-73.55162c41.64002,0 75.39591,32.93018 75.39591,73.55162c0,40.62144 -33.7559,73.55163 -75.39591,73.55163c-41.64,0 -75.39591,-32.93019 -75.39591,-73.55163z" fill="#ffe63c" stroke-width="0" stroke-linecap="butt"/></g><path d="M280.54911,144.05777c0,-6.35568 4.95766,-11.50798 11.07324,-11.50798c6.11558,0 11.07324,5.1523 11.07324,11.50798c0,6.35568 -5.55621,-4.82754 -11.67179,-4.82754c-6.11558,0 -10.47469,11.18322 -10.47469,4.82754z" fill="#000000" stroke="none" stroke-width="NaN" stroke-linecap="butt"/><path d="M347.68492,138.96457c-6.11558,0 -10.81761,11.44889 -10.81761,5.09321c0,-6.35568 4.95766,-11.50798 11.07324,-11.50798c6.11558,0 11.07324,5.1523 11.07324,11.50798c0,6.35568 -5.21329,-5.09321 -11.32887,-5.09321z" fill="#000000" stroke="none" stroke-width="NaN" stroke-linecap="butt"/><path d="M288.74465,167.16006l64.91873,1.33159c0,0 -12.95632,44.37772 -34.16775,43.94264c-21.21143,-0.43509 -30.75098,-45.27424 -30.75098,-45.27424z" fill="#000000" stroke="#000000" stroke-width="1.5" stroke-linecap="round"/></g></g></svg>