<svg version="1.1" xmlns="http://www.w3.org/2000/svg" xmlns:xlink="http://www.w3.org/1999/xlink" width="220.65134" height="272.93481" viewBox="0,0,220.65134,272.93481"><defs><linearGradient x1="318.96396" y1="240.85415" x2="318.96396" y2="276.16738" gradientUnits="userSpaceOnUse" id="color-1"><stop offset="0" stop-color="#005cff" stop-opacity="0"/><stop offset="1" stop-color="#005cff" stop-opacity="0.2"/></linearGradient><radialGradient cx="316.32737" cy="151.9831" r="64.23702" gradientUnits="userSpaceOnUse" id="color-2"><stop offset="0" stop-color="#aca5f2"/><stop offset="1" stop-color="#f3ca58"/></radialGradient><radialGradient cx="288.92564" cy="153.22654" r="23.48066" gradientUnits="userSpaceOnUse" id="color-3"><stop offset="0" stop-color="#ffffff"/><stop offset="1" stop-color="#ff6d6d"/></radialGradient><radialGradient cx="343.15035" cy="151.31176" r="23.48066" gradientUnits="userSpaceOnUse" id="color-4"><stop offset="0" stop-color="#ffffff"/><stop offset="1" stop-color="#ff6d6d"/></radialGradient></defs><g transform="translate(-205.93971,-46.13752)"><g stroke-miterlimit="10"><path d="M213.40902,313.86253v-267.72501h213.18203v267.72501z" fill="none" stroke="none" stroke-width="0" stroke-linecap="butt"/><g stroke-linecap="butt"><g><g stroke-width="0"><path d="M370.70107,269.87901c-0.06778,1.44597 -1.41901,-4.97989 -6.32499,-5.20986c-4.90598,-0.22997 -8.51273,-3.00784 -8.44495,-4.45381c0.06778,-1.44597 4.09981,0.87984 9.00579,1.10981c4.90598,0.22997 5.83193,7.10789 5.76415,8.55386z" fill="#f29d0f" stroke="#000000"/><path d="M363.39927,263.52068c0,8.78876 -6.18635,0.14404 -15.95739,0.14404c-9.77104,0 -15.01123,-7.44009 -15.01123,-16.22885c0,-8.78876 7.92099,-4.71717 17.69203,-4.71717c9.77104,0 13.27659,12.01322 13.27659,20.80198z" fill="#f2d40e" stroke="#000000"/><path d="M357.81448,254.49466c0,-0.69036 0.55964,-1.25 1.25,-1.25c0.69036,0 1.25,0.55964 1.25,1.25c0,0.69036 -0.55964,1.25 -1.25,1.25c-0.69036,0 -1.25,-0.55964 -1.25,-1.25z" fill="#000000" stroke="none"/></g><path d="M286.35186,319.07232c0,0 -1.89355,-25.93292 0.55642,-47.26366c2.58988,-22.54893 14.58643,-84.57844 14.58643,-84.57844l37.78325,-0.15789c0,0 9.71821,48.53571 12.06959,71.4019c2.15633,20.96935 1.5043,60.5981 1.5043,60.5981z" fill="#f3ca58" stroke="#000000" stroke-width="0"/><path d="M293.32495,231.42271c3.92467,-22.12412 8.16979,-44.1925 8.16979,-44.1925l37.78325,-0.15789c0,0 4.58735,22.91064 8.22116,44.66623c0.01212,0.07254 -54.19728,-0.18574 -54.1742,-0.31584z" fill="#f2bc49" stroke="#000000" stroke-width="0"/><path d="M294.35562,225.21109c3.47387,-19.2454 7.13909,-37.98086 7.13909,-37.98086l37.78325,-0.15789c0,0 3.7397,19.39228 7.08641,38.61124c0.00071,0.00407 -52.0355,-0.32431 -52.00875,-0.47248z" fill="#ffc72e" stroke="#000000" stroke-width="0"/><path d="M309.43057,274.95003c-0.60434,0 -1.13393,-0.23881 -1.42855,-0.59687c-0.40832,-0.03148 -0.71369,-0.15576 -0.71369,-0.15576c-2.81592,-1.14616 -6.6205,-2.20571 -9.08745,-3.72458c-5.15584,-3.1744 -6.48202,-7.967 -2.60749,-12.21832c3.34303,-3.66814 9.07756,-4.44116 14.1588,-5.7515c3.39017,-0.87425 6.25511,-2.47282 9.63619,-3.37881c2.25387,-0.97114 5.50095,-1.85595 7.42542,-3.16024c1.26199,-0.8553 1.68883,-2.21259 2.8379,-3.12013c0.82862,-0.65444 4.11036,-2.27023 5.42408,-1.94755c2.52904,0.62119 4.05401,5.49475 4.87382,7.17382c0.81561,1.67047 2.09706,2.72111 2.94108,4.38572c2.22816,4.39447 2.39218,10.85669 -0.38497,15.07163c-4.12178,4.62147 -13.47245,8.29221 -20.91425,8.62036c-3.3941,0.14966 -6.97675,-0.59431 -10.29739,-1.01544l-1.59475,-0.19833c-0.0875,0.01053 -0.17726,0.016 -0.26874,0.016z" fill="url(#color-1)" stroke="none" stroke-width="0.5"/><path d="M296.01192,216.45648c2.97215,-16.24462 5.48281,-29.22625 5.48281,-29.22625l37.78325,-0.15789c0,0 2.77645,13.86644 5.72037,30.26775c0.00971,0.0541 -49.03891,-0.59676 -48.98643,-0.88361z" fill="#ff9600" stroke="#000000" stroke-width="0"/><g stroke-width="0"><path d="M356.84064,264.74938c-0.16935,10.05097 -14.10853,4.57839 -35.80932,4.57839c-21.70078,0 -38.91576,4.34675 -38.50428,-5.05147c0.52608,-12.01574 17.11889,-0.63604 38.81967,-0.63604c21.70078,0 35.63747,-7.40967 35.49394,1.10912z" fill="#f2d40e" stroke="#000000"/><path d="M344.09441,266.38599c0,-0.97798 0.79281,-1.77078 1.77078,-1.77078c0.97798,0 1.77078,0.79281 1.77078,1.77078c0,0.97798 -0.79281,1.77078 -1.77078,1.77078c-0.97798,0 -1.77078,-0.79281 -1.77078,-1.77078z" fill="#080700" stroke="none"/><path d="M348.70223,261.04886c-0.3209,3.37178 -1.40371,2.88109 -2.86307,2.7422c-1.45936,-0.13889 -2.74263,0.12661 -2.42173,-3.24517c0.3209,-3.37178 3.22345,-5.85366 3.22345,-5.85366c0,0 2.38226,2.98485 2.06135,6.35663z" fill="#f2d40e" stroke="none"/><path d="M340.02663,267.57169c2.8247,-1.86894 3.12333,-0.71826 3.93224,0.50431c0.80891,1.22257 1.82178,2.05407 -1.00292,3.92301c-2.8247,1.86894 -6.57922,1.17036 -6.57922,1.17036c0,0 0.82521,-3.72874 3.64991,-5.59769z" fill="#f2d40e" stroke="none"/><path d="M345.92962,271.74289c-0.96942,-3.24532 0.21842,-3.1974 1.62304,-3.61698c1.40462,-0.41958 2.49413,-1.14777 3.46355,2.09755c0.96942,3.24532 -0.78801,6.63589 -0.78801,6.63589c0,0 -3.32917,-1.87113 -4.29858,-5.11645z" fill="#f2d40e" stroke="none"/><path d="M343.03152,260.28157c2.52782,2.25433 1.49142,2.83668 0.51571,3.93076c-0.97571,1.09408 -1.52125,2.28558 -4.04907,0.03125c-2.52782,-2.25433 -2.81034,-6.06283 -2.81034,-6.06283c0,0 3.81588,-0.15351 6.3437,2.10082z" fill="#f2d40e" stroke="none"/></g></g><path d="M295.94244,216.86716c0,-0.9665 0.7835,-1.75 1.75,-1.75c0.9665,0 1.75,0.7835 1.75,1.75c0,0.9665 -0.7835,1.75 -1.75,1.75c-0.9665,0 -1.75,-0.7835 -1.75,-1.75z" fill="#ff9600" stroke="none" stroke-width="0.5"/><path d="M345.50939,219.11521c0,0.69036 -0.55964,1.25 -1.25,1.25c-0.58846,0 -1.08194,-0.40663 -1.2148,-0.95423c-0.74057,-0.20381 -1.28455,-0.8821 -1.28455,-1.68743c0,-0.9665 0.7835,-1.75 1.75,-1.75c0.9665,0 1.5359,0.7835 1.5359,1.75c0,0.13554 -0.0112,0.26747 -0.03312,0.39415c0.30166,0.22821 0.49657,0.59009 0.49657,0.99751z" fill="#ff9600" stroke="none" stroke-width="0.5"/><path d="M337.26392,216.86716c0,-0.9665 0.7835,-1.75 1.75,-1.75c0.9665,0 1.75,0.7835 1.75,1.75c0,0.9665 -0.7835,1.75 -1.75,1.75c-0.9665,0 -1.75,-0.7835 -1.75,-1.75z" fill="#ff9600" stroke="none" stroke-width="0.5"/><path d="M331.055,216.86716c0,-0.9665 0.7835,-1.75 1.75,-1.75c0.53678,0 1.01712,0.24168 1.33813,0.62215c0.32101,-0.38047 0.80135,-0.62215 1.33813,-0.62215c0.9665,0 1.75,0.7835 1.75,1.75c0,0.9665 -0.7835,1.75 -1.75,1.75c-0.53678,0 -1.01711,-0.24168 -1.33813,-0.62215c-0.32101,0.38047 -0.80135,0.62215 -1.33813,0.62215c-0.9665,0 -1.75,-0.7835 -1.75,-1.75z" fill="#ff9600" stroke="none" stroke-width="0.5"/><path d="M323.09801,218.15175c0,-0.69036 0.55964,-1.25 1.25,-1.25c0.31567,0 0.604,0.11701 0.824,0.31002c-0.00317,-0.04309 -0.0048,-0.08662 -0.0048,-0.13053c0,-0.9665 0.7835,-1.75 1.75,-1.75c0.3111,0 0.60325,0.08118 0.8564,0.22351c0.25315,-0.14234 0.5453,-0.22351 0.8564,-0.22351c0.9665,0 1.75,0.7835 1.75,1.75c0,0.9665 -0.7835,1.75 -1.75,1.75c-0.3111,0 -0.60325,-0.08118 -0.8564,-0.22351c-0.00778,0.00438 -0.0156,0.00869 -0.02345,0.01295c-0.22316,0.34139 -0.60877,0.56697 -1.04706,0.56697c-0.50801,0 -0.94524,-0.30304 -1.14077,-0.73822c-0.13354,0.54664 -0.62656,0.95233 -1.21434,0.95233c-0.69036,0 -1.25,-0.55964 -1.25,-1.25z" fill="#ff9600" stroke="none" stroke-width="0.5"/><path d="M308.78848,216.86716c0,-0.90794 2.40865,-2.84656 3.17344,-1.50817c0.25014,0.14763 0.46034,0.3557 0.61052,0.60413c0.3065,-0.50702 0.86302,-0.84596 1.4987,-0.84596c0.47595,0 0.90752,0.19 1.223,0.49829c0.06029,-0.02457 0.12224,-0.04518 0.18548,-0.06204c0.19423,-0.07435 0.4051,-0.1151 0.62549,-0.1151c0.45635,0 0.87191,0.17468 1.18346,0.46083c0.02256,0.01482 0.04468,0.02996 0.06638,0.04539c0.23587,-0.11841 0.50221,-0.18507 0.78412,-0.18507c0.20657,0 0.40479,0.03579 0.58877,0.10151c0.18399,-0.06572 0.3822,-0.10151 0.58878,-0.10151c0.9665,0 1.75,0.7835 1.75,1.75c0,0.9665 -0.7835,1.75 -1.75,1.75c-0.20657,0 -0.40479,-0.0358 -0.58878,-0.10152c-0.18399,0.06572 -0.3822,0.10152 -0.58877,0.10152c-0.48323,0 -0.92072,-0.19586 -1.23741,-0.51253c-0.23892,0.12235 -0.50968,0.19138 -0.79655,0.19138c-0.13446,0 -0.26537,-0.01516 -0.39113,-0.04387c-0.435,0.10573 -0.83124,0.0274 -1.07466,-0.37157c-0.17815,0.06112 -0.36929,0.09429 -0.56817,0.09429c-0.63569,0 -1.1922,-0.33894 -1.4987,-0.84596c-0.3065,0.50702 -0.86302,0.84596 -1.49871,0.84596c-0.09804,0 -0.1942,-0.00807 -0.28785,-0.02356c-1.01047,0.44353 -1.99741,0.27119 -1.99741,-1.72644z" fill="#ff9600" stroke="none" stroke-width="0.5"/><path d="M304.03971,215.46067c0.265,-0.5145 2.3117,-1.46315 2.78381,-0.63695c0.5158,0.30442 0.86181,0.86589 0.86181,1.50818c0,0.9665 -0.7835,1.75 -1.75,1.75c-0.36156,0 -0.69751,-0.10965 -0.97641,-0.29751c-0.96798,-0.1522 -1.60936,-0.98382 -0.91921,-2.32372z" fill="#ff9600" stroke="none" stroke-width="0.5"/><path d="M299.90331,216.22485c0,-0.9665 0.7835,-1.75 1.75,-1.75c0.9665,0 1.75,0.7835 1.75,1.75c0,0.9665 -0.7835,1.75 -1.75,1.75c-0.9665,0 -1.75,-0.7835 -1.75,-1.75z" fill="#ff9600" stroke="none" stroke-width="0.5"/><path d="M300.3687,224.71645c0.69036,0 1.25,0.55964 1.25,1.25c0,0.69036 -0.55964,1.25 -1.25,1.25c-0.1789,0 -0.34902,-0.03758 -0.5029,-0.10528c-0.30099,0.24459 -0.6848,0.39118 -1.10286,0.39118c-0.49002,0 -0.93301,-0.2014 -1.25068,-0.52595c-0.28296,0.19661 -0.62671,0.31185 -0.99738,0.31185c-0.9665,0 -1.75,-0.7835 -1.75,-1.75c0,-0.9665 0.7835,-1.75 1.75,-1.75c0.49002,0 0.933,0.2014 1.25068,0.52595c0.28296,-0.19661 0.62672,-0.31185 0.99738,-0.31185c0.5849,0 1.10277,0.28694 1.42053,0.72773c0.06044,-0.00897 0.12229,-0.01363 0.18522,-0.01363z" fill="#ffc72e" stroke="none" stroke-width="0.5"/><path d="M305.22058,228.21451c0,-0.27336 0.08774,-0.52621 0.2366,-0.73195c-0.32446,-0.0491 -0.6197,-0.18731 -0.85998,-0.38887c-0.30406,0.25507 -0.6961,0.40866 -1.12403,0.40866c-0.9665,0 -1.75,-0.7835 -1.75,-1.75c0,-0.9665 0.7835,-1.75 1.75,-1.75c0.42793,0 0.81997,0.15359 1.12403,0.40866c0.30406,-0.25507 0.6961,-0.40866 1.12403,-0.40866c0.48265,0 0.91966,0.19539 1.23626,0.51138c0.30332,-0.25248 0.69335,-0.40433 1.11885,-0.40433c0.9665,0 1.75,0.7835 1.75,1.75c0,0.9665 -0.7835,1.75 -1.75,1.75c-0.19957,0 -0.39134,-0.03341 -0.57002,-0.09494c0.13526,0.19973 0.21427,0.44066 0.21427,0.70005c0,0.69036 -0.55964,1.25 -1.25,1.25c-0.69036,0 -1.25,-0.55964 -1.25,-1.25z" fill="#ffc72e" stroke="none" stroke-width="0.5"/><path d="M327.88067,223.8953c0.9665,0 1.75,0.7835 1.75,1.75c0,0.9665 -0.7835,1.75 -1.75,1.75c-0.68291,0 -1.27445,-0.39117 -1.56279,-0.96166c-0.31642,0.45199 -0.841,0.74755 -1.43462,0.74755c-0.9665,0 -1.75,-0.7835 -1.75,-1.75c0,-0.9665 0.7835,-1.75 1.75,-1.75c0.68291,0 1.27445,0.39117 1.5628,0.96166c0.31642,-0.45199 0.841,-0.74755 1.43461,-0.74755z" fill="#ffc72e" stroke="none" stroke-width="0.5"/><path d="M331.12679,228.32155c0,-0.51662 0.3134,-0.96004 0.76045,-1.1505c-0.43936,-0.31793 -0.7252,-0.83494 -0.7252,-1.41871c0,-0.9665 0.7835,-1.75 1.75,-1.75c0.17045,0 0.3352,0.02437 0.49098,0.06981c0.78988,-0.18737 1.47312,0.15276 1.47312,1.68019c0,0.22004 -0.17418,0.54241 -0.4399,0.86046c-0.19302,0.34118 -0.4973,0.61113 -0.86354,0.76055c-0.08123,0.05076 -0.16337,0.09658 -0.2455,0.13625c0.18679,0.21843 0.29959,0.50202 0.29959,0.81196c0,0.69036 -0.55964,1.25 -1.25,1.25c-0.69036,0 -1.25,-0.55964 -1.25,-1.25z" fill="#ffc72e" stroke="none" stroke-width="0.5"/><path d="M335.94406,226.82285c0,-0.68096 0.54451,-1.23474 1.22187,-1.24969c0.08974,-0.88233 0.83493,-1.57082 1.74094,-1.57082c0.33328,0 0.6448,0.09316 0.90993,0.25487c0.26513,-0.16171 0.57665,-0.25487 0.90992,-0.25487c0.9665,0 1.75,0.7835 1.75,1.75c0,0.9665 -0.7835,1.75 -1.75,1.75c-0.32024,0 -0.62038,-0.08602 -0.8786,-0.23621c-0.11041,0.06321 -0.23139,0.11005 -0.35963,0.13724c-0.18197,0.06411 -0.37773,0.09897 -0.58163,0.09897c-0.21143,0 -0.41411,-0.0375 -0.60174,-0.1062c-0.20783,0.40195 -0.62736,0.6767 -1.11107,0.6767c-0.69036,0 -1.25,-0.55964 -1.25,-1.25z" fill="#ffc72e" stroke="none" stroke-width="0.5"/><path d="M342.36709,228.6427c0,-0.64099 0.48246,-1.16929 1.10406,-1.24157c-0.45205,-0.31641 -0.74766,-0.84103 -0.74766,-1.43469c0,-0.9665 0.7835,-1.75 1.75,-1.75c0.9665,0 1.75,0.7835 1.75,1.75c0,0.9665 -0.7835,1.75 -1.75,1.75c-0.00571,0 -0.01142,-0.00002 -0.01711,-0.00008c0.25227,0.2287 0.41071,0.55902 0.41071,0.92634c0,0.69036 -0.55964,1.25 -1.25,1.25c-0.69036,0 -1.25,-0.55964 -1.25,-1.25z" fill="#ffc72e" stroke="none" stroke-width="0.5"/><path d="M297.79949,229.99718c0.9665,0 1.75,0.7835 1.75,1.75c0,0.9665 -0.7835,1.75 -1.75,1.75c-0.53678,0 -1.01712,-0.24167 -1.33813,-0.62215c-0.32101,0.38047 -0.80135,0.62215 -1.33813,0.62215c-0.9665,0 -1.75,-0.7835 -1.75,-1.75c0,-0.9665 0.7835,-1.75 1.75,-1.75c0.53678,0 1.01711,0.24168 1.33813,0.62215c0.32101,-0.38047 0.80135,-0.62215 1.33813,-0.62215z" fill="#f2bc49" stroke="none" stroke-width="0.5"/><path d="M303.93598,232.49653c0,-0.69036 0.55964,-1.25 1.25,-1.25c0.27335,0 0.52621,0.08774 0.73195,0.2366c0.06109,-0.40368 0.26009,-0.76211 0.54745,-1.02577c0.3199,-0.34867 0.77933,-0.56724 1.28981,-0.56724c0.9665,0 1.75,0.7835 1.75,1.75c0,0.51048 -0.21858,0.96991 -0.56724,1.28981c-0.3199,0.34867 -0.77933,0.56724 -1.28981,0.56724c-0.51031,0 -0.96959,-0.21842 -1.28947,-0.56687c-0.17633,0.47654 -0.63484,0.81623 -1.17269,0.81623c-0.69036,0 -1.25,-0.55964 -1.25,-1.25z" fill="#f2bc49" stroke="none" stroke-width="0.5"/><path d="M317.71088,229.56898c0.9665,0 1.75,0.7835 1.75,1.75c0,0.9665 -0.7835,1.75 -1.75,1.75c-0.63448,0 -1.19009,-0.33766 -1.49696,-0.84308c-0.26839,0.6219 -0.88711,1.05718 -1.6075,1.05718c-0.9665,0 -1.75,-0.7835 -1.75,-1.75c0,-0.9665 0.7835,-1.75 1.75,-1.75c0.63448,0 1.19009,0.33766 1.49696,0.84308c0.26839,-0.6219 0.88711,-1.05718 1.6075,-1.05718z" fill="#f2bc49" stroke="none" stroke-width="0.5"/><path d="M320.34995,231.10487c0,-0.9665 0.7835,-1.75 1.75,-1.75c0.9665,0 1.75,0.7835 1.75,1.75c0,0.9665 -0.7835,1.75 -1.75,1.75c-0.9665,0 -1.75,-0.7835 -1.75,-1.75z" fill="#f2bc49" stroke="none" stroke-width="0.5"/><path d="M327.41526,231.10487c0,-0.9665 0.7835,-1.75 1.75,-1.75c0.9665,0 1.75,0.7835 1.75,1.75c0,0.9665 -0.7835,1.75 -1.75,1.75c-0.9665,0 -1.75,-0.7835 -1.75,-1.75z" fill="#f2bc49" stroke="none" stroke-width="0.5"/><path d="M338.62033,234.20932c0,-0.33082 0.12851,-0.63162 0.33833,-0.85521c-0.2128,0.09204 -0.44749,0.14305 -0.6941,0.14305c-0.9665,0 -1.75,-0.7835 -1.75,-1.75c0,-0.9665 0.7835,-1.75 1.75,-1.75c0.42778,0 0.81972,0.15349 1.12373,0.40841c0.32101,-0.38068 0.80148,-0.6225 1.33843,-0.6225c0.9665,0 1.75,0.7835 1.75,1.75c0,0.9665 -0.7835,1.75 -1.75,1.75c-0.00571,0 -0.01141,-0.00003 -0.01711,-0.00009c0.25227,0.2287 0.41071,0.55902 0.41071,0.92634c0,0.69036 -0.55964,1.25 -1.25,1.25c-0.69036,0 -1.25,-0.55964 -1.25,-1.25zM339.603,232.87466c-0.04618,0.05477 -0.09566,0.10666 -0.14814,0.15537c0.08593,-0.03027 0.17616,-0.05142 0.26953,-0.06227c-0.04184,-0.02928 -0.08234,-0.06036 -0.12139,-0.0931z" fill="#f2bc49" stroke="none" stroke-width="0.5"/><path d="M345.65105,229.89011c0.9665,0 1.75,0.7835 1.75,1.75c0,0.9665 -0.7835,1.75 -1.75,1.75c-0.33299,0 -0.64426,-0.09301 -0.90924,-0.25446c-0.12092,0.02642 -0.24651,0.04036 -0.37536,0.04036c-0.9665,0 -1.75,-0.7835 -1.75,-1.75c0,-0.9665 0.7835,-1.75 1.75,-1.75c0.33299,0 0.64425,0.093 0.90924,0.25445c0.12092,-0.02642 0.24652,-0.04035 0.37537,-0.04035z" fill="#f2bc49" stroke="none" stroke-width="0.5"/><path d="M301.68791,220.07868c0,-0.69036 0.55964,-1.25 1.25,-1.25c0.69036,0 1.25,0.55964 1.25,1.25c0,0.69036 -0.55964,1.25 -1.25,1.25c-0.69036,0 -1.25,-0.55964 -1.25,-1.25z" fill="#ff9600" stroke="none" stroke-width="0.5"/><path d="M311.32246,220.50687c0,-0.69036 0.55964,-1.25 1.25,-1.25c0.69036,0 1.25,0.55964 1.25,1.25c0,0.69036 -0.55964,1.25 -1.25,1.25c-0.69036,0 -1.25,-0.55964 -1.25,-1.25z" fill="#ff9600" stroke="none" stroke-width="0.5"/><path d="M330.91269,220.50687c0,-0.69036 0.55964,-1.25 1.25,-1.25c0.69036,0 1.25,0.55964 1.25,1.25c0,0.69036 -0.55964,1.25 -1.25,1.25c-0.69036,0 -1.25,-0.55964 -1.25,-1.25z" fill="#ff9600" stroke="none" stroke-width="0.5"/><path d="M336.80047,221.79147c0,-0.69036 0.55964,-1.25 1.25,-1.25c0.69036,0 1.25,0.55964 1.25,1.25c0,0.69036 -0.55964,1.25 -1.25,1.25c-0.69036,0 -1.25,-0.55964 -1.25,-1.25z" fill="#ff9600" stroke="none" stroke-width="0.5"/><path d="M301.04561,228.74975c0,-0.69036 0.55964,-1.25 1.25,-1.25c0.69036,0 1.25,0.55964 1.25,1.25c0,0.69036 -0.55964,1.25 -1.25,1.25c-0.69036,0 -1.25,-0.55964 -1.25,-1.25z" fill="#ffc72e" stroke="none" stroke-width="0.5"/><path d="M317.53138,227.35811c0,-0.1411 0.02338,-0.27673 0.06647,-0.40324c-0.19722,0.07701 -0.41183,0.11928 -0.63632,0.11928c-0.37248,0 -0.71777,-0.11637 -1.00152,-0.31473c-0.30617,0.26291 -0.70428,0.42178 -1.13949,0.42178c-0.38732,0 -0.74524,-0.12582 -1.03514,-0.33882c-0.2268,0.23088 -0.54256,0.37408 -0.89177,0.37408c-0.13883,0 -0.27238,-0.02264 -0.39715,-0.06441c-0.22837,0.29941 -0.58887,0.49262 -0.9945,0.49262c-0.69036,0 -1.25,-0.55964 -1.25,-1.25c0,-0.69036 0.55964,-1.25 1.25,-1.25c0.13883,0 0.27238,0.02264 0.39715,0.06441c0.22837,-0.29941 0.58887,-0.49262 0.9945,-0.49262c0.10774,0 0.2123,0.01363 0.31204,0.03926c0.2643,-0.63113 0.88781,-1.07452 1.61487,-1.07452c0.37248,0 0.71777,0.11637 1.00151,0.31474c0.30617,-0.26291 0.70428,-0.42178 1.1395,-0.42178c0.9665,0 1.75,0.7835 1.75,1.75c0,0.29354 -0.07228,0.5702 -0.2,0.81316c0.08691,-0.01913 0.17721,-0.0292 0.26986,-0.0292c0.69036,0 1.25,0.55964 1.25,1.25c0,0.69036 -0.55964,1.25 -1.25,1.25c-0.69036,0 -1.25,-0.55964 -1.25,-1.25z" fill="#ffc72e" stroke="none" stroke-width="0.5"/><path d="M320.63585,228.10744c0,-0.69036 0.55964,-1.25 1.25,-1.25c0.69036,0 1.25,0.55964 1.25,1.25c0,0.69036 -0.55964,1.25 -1.25,1.25c-0.69036,0 -1.25,-0.55964 -1.25,-1.25z" fill="#ffc72e" stroke="none" stroke-width="0.5"/><path d="M325.02492,228.32155c0,-0.69036 0.55964,-1.25 1.25,-1.25c0.69036,0 1.25,0.55964 1.25,1.25c0,0.69036 -0.55964,1.25 -1.25,1.25c-0.69036,0 -1.25,-0.55964 -1.25,-1.25z" fill="#ffc72e" stroke="none" stroke-width="0.5"/><path d="M294.94372,236.13625c0,-0.69036 0.55964,-1.25 1.25,-1.25c0.69036,0 1.25,0.55964 1.25,1.25c0,0.69036 -0.55964,1.25 -1.25,1.25c-0.69036,0 -1.25,-0.55964 -1.25,-1.25z" fill="#f2bc49" stroke="none" stroke-width="0.5"/><path d="M301.36676,232.60357c0,-0.69036 0.55964,-1.25 1.25,-1.25c0.69036,0 1.25,0.55964 1.25,1.25c0,0.69036 -0.55964,1.25 -1.25,1.25c-0.69036,0 -1.25,-0.55964 -1.25,-1.25z" fill="#f2bc49" stroke="none" stroke-width="0.5"/><path d="M308.32504,234.10228c0,-0.69036 0.55964,-1.25 1.25,-1.25c0.69036,0 1.25,0.55964 1.25,1.25c0,0.69036 -0.55964,1.25 -1.25,1.25c-0.69036,0 -1.25,-0.55964 -1.25,-1.25z" fill="#f2bc49" stroke="none" stroke-width="0.5"/><path d="M310.7872,234.74459c0,-0.69036 0.55964,-1.25 1.25,-1.25c0.69036,0 1.25,0.55964 1.25,1.25c0,0.69036 -0.55964,1.25 -1.25,1.25c-0.69036,0 -1.25,-0.55964 -1.25,-1.25z" fill="#f2bc49" stroke="none" stroke-width="0.5"/><path d="M314.85512,235.27983c0,-0.69036 0.55964,-1.25 1.25,-1.25c0.69036,0 1.25,0.55964 1.25,1.25c0,0.69036 -0.55964,1.25 -1.25,1.25c-0.69036,0 -1.25,-0.55964 -1.25,-1.25z" fill="#f2bc49" stroke="none" stroke-width="0.5"/><path d="M321.3852,235.38688c0,-0.69036 0.55964,-1.25 1.25,-1.25c0.69036,0 1.25,0.55964 1.25,1.25c0,0.69036 -0.55964,1.25 -1.25,1.25c-0.69036,0 -1.25,-0.55964 -1.25,-1.25z" fill="#f2bc49" stroke="none" stroke-width="0.5"/><path d="M326.63067,234.10228c0,-0.69036 0.55964,-1.25 1.25,-1.25c0.69036,0 1.25,0.55964 1.25,1.25c0,0.69036 -0.55964,1.25 -1.25,1.25c-0.69036,0 -1.25,-0.55964 -1.25,-1.25z" fill="#f2bc49" stroke="none" stroke-width="0.5"/><path d="M332.69793,231.24653c0.69036,0 1.25,0.55964 1.25,1.25c0,0.69036 -0.55964,1.25 -1.25,1.25c-0.0544,0 -0.108,-0.00348 -0.16057,-0.01022c-0.05257,0.00674 -0.10617,0.01022 -0.16057,0.01022c-0.69036,0 -1.25,-0.55964 -1.25,-1.25c0,-0.69036 0.55964,-1.25 1.25,-1.25c0.0544,0 0.108,0.00348 0.16057,0.01022c0.05257,-0.00674 0.10617,-0.01022 0.16057,-0.01022z" fill="#f2bc49" stroke="none" stroke-width="0.5"/><path d="M341.08249,234.74459c0,-0.69036 0.55964,-1.25 1.25,-1.25c0.69036,0 1.25,0.55964 1.25,1.25c0,0.69036 -0.55964,1.25 -1.25,1.25c-0.69036,0 -1.25,-0.55964 -1.25,-1.25z" fill="#f2bc49" stroke="none" stroke-width="0.5"/><path d="M304.86418,223.50428c0,-0.41422 0.33578,-0.75 0.75,-0.75c0.41422,0 0.75,0.33578 0.75,0.75c0,0.41422 -0.33578,0.75 -0.75,0.75c-0.41422,0 -0.75,-0.33578 -0.75,-0.75z" fill="#ff9600" stroke="none" stroke-width="0.5"/><path d="M315.89036,221.89852c0,-0.41422 0.33578,-0.75 0.75,-0.75c0.41422,0 0.75,0.33578 0.75,0.75c0,0.41422 -0.33578,0.75 -0.75,0.75c-0.41422,0 -0.75,-0.33578 -0.75,-0.75z" fill="#ff9600" stroke="none" stroke-width="0.5"/><path d="M329.80692,223.82544c0,-0.41422 0.33578,-0.75 0.75,-0.75c0.41422,0 0.75,0.33578 0.75,0.75c0,0.41422 -0.33578,0.75 -0.75,0.75c-0.41422,0 -0.75,-0.33578 -0.75,-0.75z" fill="#ff9600" stroke="none" stroke-width="0.5"/><path d="M338.47802,224.57479c0,-0.41422 0.33578,-0.75 0.75,-0.75c0.41422,0 0.75,0.33578 0.75,0.75c0,0.41422 -0.33578,0.75 -0.75,0.75c-0.41422,0 -0.75,-0.33578 -0.75,-0.75z" fill="#ff9600" stroke="none" stroke-width="0.5"/><path d="M296.62129,228.85679c0,-0.41422 0.33578,-0.75 0.75,-0.75c0.41422,0 0.75,0.33578 0.75,0.75c0,0.41422 -0.33578,0.75 -0.75,0.75c-0.41422,0 -0.75,-0.33578 -0.75,-0.75z" fill="#ffc72e" stroke="none" stroke-width="0.5"/><path d="M313.00001,230.03436c0,-0.41422 0.33578,-0.75 0.75,-0.75c0.41422,0 0.75,0.33578 0.75,0.75c0,0.41422 -0.33578,0.75 -0.75,0.75c-0.41422,0 -0.75,-0.33578 -0.75,-0.75z" fill="#ffc72e" stroke="none" stroke-width="0.5"/><path d="M335.05241,230.03436c0,-0.41422 0.33578,-0.75 0.75,-0.75c0.41422,0 0.75,0.33578 0.75,0.75c0,0.41422 -0.33578,0.75 -0.75,0.75c-0.41422,0 -0.75,-0.33578 -0.75,-0.75z" fill="#ffc72e" stroke="none" stroke-width="0.5"/><path d="M339.22738,231.64011c0,-0.41422 0.33578,-0.75 0.75,-0.75c0.41422,0 0.75,0.33578 0.75,0.75c0,0.41422 -0.33578,0.75 -0.75,0.75c-0.41422,0 -0.75,-0.33578 -0.75,-0.75z" fill="#ffc72e" stroke="none" stroke-width="0.5"/><path d="M299.51165,237.3138c0,-0.41422 0.33578,-0.75 0.75,-0.75c0.41422,0 0.75,0.33578 0.75,0.75c0,0.41422 -0.33578,0.75 -0.75,0.75c-0.41422,0 -0.75,-0.33578 -0.75,-0.75z" fill="#f2bc49" stroke="none" stroke-width="0.5"/><path d="M302.29497,235.81507c0,-0.41422 0.33578,-0.75 0.75,-0.75c0.41422,0 0.75,0.33578 0.75,0.75c0,0.41422 -0.33578,0.75 -0.75,0.75c-0.41422,0 -0.75,-0.33578 -0.75,-0.75z" fill="#f2bc49" stroke="none" stroke-width="0.5"/><path d="M311.39426,237.84904c0,-0.41422 0.33578,-0.75 0.75,-0.75c0.41422,0 0.75,0.33578 0.75,0.75c0,0.41422 -0.33578,0.75 -0.75,0.75c-0.41422,0 -0.75,-0.33578 -0.75,-0.75z" fill="#f2bc49" stroke="none" stroke-width="0.5"/><path d="M315.67627,240.31121c0,-0.41422 0.33578,-0.75 0.75,-0.75c0.41422,0 0.75,0.33578 0.75,0.75c0,0.41422 -0.33578,0.75 -0.75,0.75c-0.41422,0 -0.75,-0.33578 -0.75,-0.75z" fill="#f2bc49" stroke="none" stroke-width="0.5"/><path d="M326.59542,238.49135c0,-0.41422 0.33578,-0.75 0.75,-0.75c0.41422,0 0.75,0.33578 0.75,0.75c0,0.41422 -0.33578,0.75 -0.75,0.75c-0.41422,0 -0.75,-0.33578 -0.75,-0.75z" fill="#f2bc49" stroke="none" stroke-width="0.5"/><path d="M336.22996,236.4574c0,-0.41422 0.33578,-0.75 0.75,-0.75c0.41422,0 0.75,0.33578 0.75,0.75c0,0.41422 -0.33578,0.75 -0.75,0.75c-0.41422,0 -0.75,-0.33578 -0.75,-0.75z" fill="#f2bc49" stroke="none" stroke-width="0.5"/><path d="M342.22479,239.02661c0,-0.41422 0.33578,-0.75 0.75,-0.75c0.41422,0 0.75,0.33578 0.75,0.75c0,0.41422 -0.33578,0.75 -0.75,0.75c-0.41422,0 -0.75,-0.33578 -0.75,-0.75z" fill="#f2bc49" stroke="none" stroke-width="0.5"/></g><path d="" fill="none" stroke="#000000" stroke-width="2" stroke-linecap="round"/><g><g><path d="M366.49124,118.62623l56.02448,-24.73755c0,0 -0.22233,35.1942 -3.85477,52.98796c-3.91962,19.20052 -18.86706,58.31635 -18.86706,58.31635l-29.86724,-23.20184z" fill="#f3ca58" stroke="#000000" stroke-width="0" stroke-linecap="round"/><path d="M373.4623,172.94564c9.18492,5.079 17.44058,9.85313 17.44058,9.85313c0,0 -9.01819,-3.07697 -18.2031,-8.15597c-9.18492,-5.079 -16.64611,-9.27464 -15.96625,-10.50412c0.67986,-1.22948 7.54385,3.72797 16.72877,8.80696z" fill="#ff9600" stroke="#000000" stroke-width="0" stroke-linecap="butt"/><path d="M367.81312,152.94308c0.09157,-1.40194 8.41319,0.16058 18.88652,0.84471c10.47333,0.68414 19.97606,1.48814 19.97606,1.48814c0,0 -9.46993,1.05628 -19.94327,0.37215c-10.47334,-0.68413 -19.01089,-1.30304 -18.91931,-2.70499z" fill="#ff9600" stroke="#000000" stroke-width="0" stroke-linecap="butt"/><g stroke="#000000" stroke-width="0" stroke-linecap="round"><g fill="#f2bc49"><path d="M366.74668,123.33775c-0.13269,-2.44737 -0.25544,-4.71152 -0.25544,-4.71152l56.02448,-24.73755c0,0 -0.08419,13.3271 -0.99539,27.72559c-0.0196,0.30961 -54.77071,1.7777 -54.77365,1.72349z"/></g><g fill="#ffc72e"><path d="M366.49124,118.62623l56.02448,-24.73755c0,0 -0.06515,10.31361 -0.70116,22.59729c-0.00133,0.02559 -55.32332,2.14028 -55.32332,2.14028z"/></g><g fill="#ff9600"><path d="M393.44534,106.72467c9.50704,-4.19783 29.07039,-12.836 29.07039,-12.836c0,0 0.10995,2.95428 0.00871,6.71599c-0.03712,1.37926 -0.26457,2.8728 -0.30554,4.36091c-0.00036,0.01289 -28.95265,1.83818 -28.77355,1.7591z"/></g></g><path d="M419.91327,106.91499c-0.9659,0.03411 -1.77656,-0.72125 -1.81067,-1.68715c-0.03411,-0.9659 0.72125,-1.77656 1.68715,-1.81067c0.9659,-0.03411 1.77656,0.72125 1.81067,1.68715c0.03411,0.9659 -0.72125,1.77656 -1.68715,1.81067z" fill="#ff9600" stroke="none" stroke-width="0.5" stroke-linecap="butt"/><path d="M416.20429,107.98264c-0.64241,0.02268 -1.21617,-0.30386 -1.53845,-0.80929c-0.19368,0.72374 -0.84136,1.268 -1.62906,1.29582c-0.23156,0.00818 -0.45418,-0.02902 -0.65933,-0.10361c-0.19938,0.08887 -0.41882,0.14168 -0.65038,0.14986c-0.9659,0.03411 -1.77656,-0.72125 -1.81067,-1.68715c-0.03411,-0.9659 0.72125,-1.77656 1.68715,-1.81067c0.23156,-0.00818 0.45418,0.02902 0.65933,0.10361c0.19938,-0.08887 0.41882,-0.14168 0.65038,-0.14986c0.64242,-0.02269 1.21617,0.30386 1.53845,0.8093c0.19368,-0.72374 0.84136,-1.26801 1.62905,-1.29583c0.9659,-0.03411 1.77656,0.72125 1.81067,1.68715c0.03411,0.9659 -0.72125,1.77656 -1.68715,1.81067z" fill="#ff9600" stroke="none" stroke-width="0.5" stroke-linecap="butt"/><path d="M408.13914,107.70543c-0.9659,0.03411 -1.77656,-0.72125 -1.81067,-1.68715c-0.03411,-0.9659 0.72125,-1.77656 1.68715,-1.81067c0.9659,-0.03411 1.77656,0.72125 1.81067,1.68715c0.03411,0.9659 -0.72125,1.77656 -1.68715,1.81067z" fill="#ff9600" stroke="none" stroke-width="0.5" stroke-linecap="butt"/><path d="M402.10817,106.97724c-0.04046,-0.13774 -0.06451,-0.28273 -0.06981,-0.43281c-0.03411,-0.9659 0.72125,-1.77656 1.68715,-1.81067c0.9659,-0.03411 1.77656,0.72125 1.81067,1.68715c0.03411,0.9659 -0.72125,1.77656 -1.68715,1.81067c-0.15008,0.0053 -0.2964,-0.00847 -0.43665,-0.0391c0.01852,0.68527 -0.51903,1.25855 -1.20544,1.28279c-0.68992,0.02436 -1.26897,-0.51519 -1.29333,-1.20511c-0.02424,-0.68641 0.50969,-1.26306 1.19457,-1.29291z" fill="#ff9600" stroke="none" stroke-width="0.5" stroke-linecap="butt"/><path d="M398.98443,108.40337c-0.9659,0.03411 -1.77656,-0.72125 -1.81067,-1.68715c-0.03411,-0.9659 0.72125,-1.77656 1.68715,-1.81067c0.9659,-0.03411 1.77656,0.72125 1.81067,1.68715c0.03411,0.9659 -0.72125,1.77656 -1.68715,1.81067z" fill="#ff9600" stroke="none" stroke-width="0.5" stroke-linecap="butt"/><path d="M419.14511,111.68716c-0.68993,0.02436 -1.26897,-0.51519 -1.29333,-1.20511c-0.02436,-0.68992 0.51518,-1.26897 1.20511,-1.29333c0.68993,-0.02436 1.26897,0.51519 1.29333,1.20511c0.02436,0.68992 -0.51518,1.26897 -1.20511,1.29333z" fill="#ff9600" stroke="none" stroke-width="0.5" stroke-linecap="butt"/><path d="M412.29506,113.98973c-0.68993,0.02436 -1.26897,-0.51519 -1.29333,-1.20511c-0.02436,-0.68992 0.51518,-1.26897 1.20511,-1.29333c0.68993,-0.02436 1.26897,0.51519 1.29333,1.20511c0.02436,0.68992 -0.51518,1.26897 -1.20511,1.29333z" fill="#ff9600" stroke="none" stroke-width="0.5" stroke-linecap="butt"/><path d="M408.23381,110.38645c-0.68992,0.02436 -1.26897,-0.51519 -1.29333,-1.20511c-0.02436,-0.68992 0.51519,-1.26897 1.20511,-1.29333c0.68993,-0.02436 1.26897,0.51519 1.29333,1.20511c0.02436,0.68992 -0.51518,1.26897 -1.20511,1.29333z" fill="#ff9600" stroke="none" stroke-width="0.5" stroke-linecap="butt"/><path d="M392.84532,109.61852c-0.68993,0.02436 -1.26897,-0.51519 -1.29333,-1.20511c-0.02436,-0.68992 0.51518,-1.26897 1.20511,-1.29333c0.68993,-0.02436 1.26897,0.51519 1.29333,1.20511c0.02436,0.68992 -0.51518,1.26897 -1.20511,1.29333z" fill="#ff9600" stroke="none" stroke-width="0.5" stroke-linecap="butt"/><path d="M388.83481,112.75748c-0.68993,0.02436 -1.26897,-0.51519 -1.29333,-1.20511c-0.02436,-0.68992 0.51518,-1.26897 1.20511,-1.29333c0.68993,-0.02436 1.26897,0.51519 1.29333,1.20511c0.02436,0.68992 -0.51518,1.26897 -1.20511,1.29333z" fill="#ff9600" stroke="none" stroke-width="0.5" stroke-linecap="butt"/><path d="M419.69981,118.72457c-0.9659,0.03411 -1.77656,-0.72125 -1.81067,-1.68715c-0.03411,-0.9659 0.72125,-1.77656 1.68715,-1.81067c0.9659,-0.03411 1.77656,0.72125 1.81067,1.68715c0.03411,0.9659 -0.72125,1.77656 -1.68715,1.81067z" fill="#ffc72e" stroke="none" stroke-width="0.5" stroke-linecap="butt"/><path d="M414.42795,117.97406c-0.9659,0.03411 -1.77656,-0.72125 -1.81067,-1.68715c-0.03411,-0.9659 0.72125,-1.77656 1.68715,-1.81067c0.9659,-0.03411 1.77656,0.72125 1.81067,1.68715c0.03411,0.9659 -0.72125,1.77656 -1.68715,1.81067z" fill="#ffc72e" stroke="none" stroke-width="0.5" stroke-linecap="butt"/><path d="M406.40313,116.00355c0.19768,-0.08717 0.41494,-0.13894 0.64402,-0.14703c0.50752,-0.01792 0.97219,0.18212 1.30386,0.51615c0.00854,-0.00042 0.01709,-0.00079 0.02567,-0.0011c0.9659,-0.03411 1.77656,0.72125 1.81067,1.68715c0.03411,0.9659 -0.72125,1.77656 -1.68715,1.81067c-0.50752,0.01792 -0.97219,-0.18212 -1.30386,-0.51615c-0.00854,0.00042 -0.01709,0.00079 -0.02567,0.0011c-0.47583,0.0168 -0.91399,-0.15799 -1.2402,-0.45517c-0.19769,0.08717 -0.41494,0.13894 -0.64402,0.14703c-0.9659,0.03411 -1.77656,-0.72125 -1.81067,-1.68715c-0.03411,-0.9659 0.72125,-1.77656 1.68715,-1.81067c0.47583,-0.0168 0.91399,0.15799 1.24021,0.45517z" fill="#ffc72e" stroke="none" stroke-width="0.5" stroke-linecap="butt"/><path d="M395.88592,120.51078c-0.68993,0.02436 -1.26897,-0.51519 -1.29333,-1.20511c-0.0209,-0.59173 0.37303,-1.1019 0.92085,-1.2505c-0.28619,-0.29933 -0.46785,-0.70078 -0.48362,-1.14721c-0.03411,-0.9659 0.72125,-1.77656 1.68715,-1.81067c0.5346,-0.01888 1.02165,0.20408 1.3558,0.57073c0.29393,-0.49516 0.82589,-0.83511 1.44411,-0.85694c0.9659,-0.03411 1.77656,0.72125 1.81067,1.68715c0.03411,0.9659 -0.72125,1.77656 -1.68715,1.81067c-0.5346,0.01888 -1.02164,-0.20409 -1.35579,-0.57074c-0.28482,0.47981 -0.79316,0.8139 -1.38691,0.854c0.11524,0.18142 0.18518,0.39496 0.19332,0.62527c0.02436,0.68992 -0.51518,1.26897 -1.20511,1.29333z" fill="#ffc72e" stroke="none" stroke-width="0.5" stroke-linecap="butt"/><path d="M392.53718,118.74707c-0.9659,0.03411 -1.77656,-0.72125 -1.81067,-1.68715c-0.03411,-0.9659 0.72125,-1.77656 1.68715,-1.81067c0.9659,-0.03411 1.77656,0.72125 1.81067,1.68715c0.03411,0.9659 -0.72125,1.77656 -1.68715,1.81067z" fill="#ffc72e" stroke="none" stroke-width="0.5" stroke-linecap="butt"/><path d="M381.80918,118.75441c-0.02299,-0.03997 -0.04445,-0.08097 -0.0643,-0.12289c-0.30508,0.42672 -0.79788,0.71215 -1.36264,0.73209c-0.63462,0.02241 -1.20223,-0.29598 -1.5266,-0.79097c-0.28865,0.51665 -0.83239,0.87427 -1.467,0.89668c-0.56477,0.01994 -1.07647,-0.23002 -1.41089,-0.63415c-0.24608,0.63141 -0.84926,1.08864 -1.56951,1.11407c-0.9659,0.03411 -1.77656,-0.72125 -1.81067,-1.68715c-0.03411,-0.9659 0.72125,-1.77656 1.68715,-1.81067c0.56477,-0.01994 1.07646,0.23002 1.41088,0.63415c0.24608,-0.63141 0.84926,-1.08864 1.56951,-1.11407c0.63462,-0.02241 1.20222,0.29599 1.52659,0.79098c0.28865,-0.51665 0.83239,-0.87428 1.46701,-0.89669c0.72025,-0.02543 1.35419,0.38811 1.64419,1.00059c0.30508,-0.42672 0.79787,-0.71215 1.36264,-0.73209c0.71484,-0.02524 1.34468,0.38193 1.63761,0.98685c0.3032,-0.30979 0.72132,-0.50814 1.18873,-0.52465c0.9659,-0.03411 1.77656,0.72125 1.81067,1.68715c0.03411,0.9659 -0.72125,1.77656 -1.68715,1.81067c-0.71485,0.02524 -1.34468,-0.38193 -1.63761,-0.98685c-0.10686,0.10918 -0.22799,0.20452 -0.36052,0.28294c-0.09714,0.57245 -0.58527,1.01751 -1.1883,1.0388c-0.68993,0.02436 -1.26897,-0.51519 -1.29333,-1.20511c-0.00582,-0.16492 0.02057,-0.3235 0.07354,-0.46968z" fill="#ffc72e" stroke="none" stroke-width="0.5" stroke-linecap="butt"/><path d="M419.68449,123.59579c-0.9659,0.03411 -1.77656,-0.72125 -1.81067,-1.68715c-0.03411,-0.9659 0.72125,-1.77656 1.68715,-1.81067c0.9659,-0.03411 1.77656,0.72125 1.81067,1.68715c0.03411,0.9659 -0.72125,1.77656 -1.68715,1.81067z" fill="#f2bc49" stroke="none" stroke-width="0.5" stroke-linecap="butt"/><path d="M412.11294,121.38163c0.26448,-0.18116 0.58185,-0.29186 0.92594,-0.30401c0.51429,-0.01816 0.98456,0.18749 1.31705,0.52957c0.16306,-0.76714 0.83086,-1.35476 1.65013,-1.38369c0.9659,-0.03411 1.77656,0.72125 1.81067,1.68715c0.03411,0.9659 -0.72125,1.77656 -1.68715,1.81067c-0.51429,0.01816 -0.98457,-0.18749 -1.31706,-0.52957c-0.16306,0.76714 -0.83086,1.35476 -1.65013,1.38369c-0.34409,0.01215 -0.66847,-0.07589 -0.94508,-0.23794c-0.26448,0.18116 -0.58184,0.29186 -0.92593,0.30401c-0.9659,0.03411 -1.77656,-0.72125 -1.81067,-1.68715c-0.03411,-0.9659 0.72125,-1.77656 1.68715,-1.81067c0.34409,-0.01215 0.66846,0.07589 0.94507,0.23794z" fill="#f2bc49" stroke="none" stroke-width="0.5" stroke-linecap="butt"/><path d="M406.78776,124.42587c-0.9659,0.03411 -1.77656,-0.72125 -1.81067,-1.68715c-0.03411,-0.9659 0.72125,-1.77656 1.68715,-1.81067c0.9659,-0.03411 1.77656,0.72125 1.81067,1.68715c0.03411,0.9659 -0.72125,1.77656 -1.68715,1.81067z" fill="#f2bc49" stroke="none" stroke-width="0.5" stroke-linecap="butt"/><path d="M401.19867,121.19941c0.30696,-0.40181 0.78476,-0.66807 1.32953,-0.68731c0.9659,-0.03411 1.77656,0.72125 1.81067,1.68715c0.03411,0.9659 -0.72125,1.77656 -1.68715,1.81067c-0.18067,0.00638 -0.35591,-0.01487 -0.52165,-0.05994c-0.30696,0.40181 -0.78476,0.66807 -1.32953,0.68731c-0.9659,0.03411 -1.77656,-0.72125 -1.81067,-1.68715c-0.03411,-0.9659 0.72125,-1.77656 1.68715,-1.81067c0.18068,-0.00638 0.35591,0.01487 0.52166,0.05994z" fill="#f2bc49" stroke="none" stroke-width="0.5" stroke-linecap="butt"/><path d="M394.34766,124.27688c-0.09797,0.02073 -0.19906,0.03331 -0.30256,0.03696c-0.56791,0.02005 -1.08215,-0.23281 -1.41644,-0.64092c-0.30474,0.32219 -0.73135,0.52943 -1.20957,0.54632c-0.47821,0.01689 -0.91838,-0.15974 -1.24509,-0.45964c-0.30467,0.43068 -0.7998,0.71918 -1.3677,0.73924c-0.9659,0.03411 -1.77656,-0.72125 -1.81067,-1.68715c-0.03411,-0.9659 0.72125,-1.77656 1.68715,-1.81067c0.47822,-0.01689 0.91838,0.15974 1.24509,0.45964c0.30467,-0.43068 0.7998,-0.71918 1.36771,-0.73924c0.56791,-0.02005 1.08215,0.23281 1.41645,0.64092c0.30474,-0.32219 0.73135,-0.52943 1.20956,-0.54632c0.71484,-0.02524 1.34468,0.38193 1.63761,0.98685c0.3032,-0.30979 0.72132,-0.50815 1.18873,-0.52466c0.9659,-0.03411 1.77656,0.72125 1.81067,1.68715c0.03411,0.9659 -0.72125,1.77656 -1.68715,1.81067c-0.08019,0.00283 -0.15931,0.00022 -0.23701,-0.0075c-0.21431,0.33162 -0.5819,0.55662 -1.00642,0.57161c-0.64187,0.02267 -1.18776,-0.44276 -1.28032,-1.06327z" fill="#f2bc49" stroke="none" stroke-width="0.5" stroke-linecap="butt"/><path d="M385.04444,124.06967c-0.9659,0.03411 -1.77656,-0.72125 -1.81067,-1.68715c-0.03411,-0.9659 0.72125,-1.77656 1.68715,-1.81067c0.9659,-0.03411 1.77656,0.72125 1.81067,1.68715c0.03411,0.9659 -0.72125,1.77656 -1.68715,1.81067z" fill="#f2bc49" stroke="none" stroke-width="0.5" stroke-linecap="butt"/><path d="M381.51596,124.94361c-0.9659,0.03411 -1.77656,-0.72125 -1.81067,-1.68715c-0.03411,-0.9659 0.72125,-1.77656 1.68715,-1.81067c0.9659,-0.03411 1.77656,0.72125 1.81067,1.68715c0.03411,0.9659 -0.72125,1.77656 -1.68715,1.81067z" fill="#f2bc49" stroke="none" stroke-width="0.5" stroke-linecap="butt"/><path d="M415.5055,120.99625c-0.68992,0.02436 -1.26897,-0.51519 -1.29333,-1.20511c-0.02436,-0.68992 0.51519,-1.26897 1.20511,-1.29333c0.68993,-0.02436 1.26897,0.51519 1.29333,1.20511c0.02436,0.68992 -0.51518,1.26897 -1.20511,1.29333z" fill="#ffc72e" stroke="none" stroke-width="0.5" stroke-linecap="butt"/><path d="M402.28605,119.74919c-0.68993,0.02436 -1.26897,-0.51519 -1.29333,-1.20511c-0.02436,-0.68992 0.51518,-1.26897 1.20511,-1.29333c0.68992,-0.02436 1.26897,0.51519 1.29333,1.20511c0.02436,0.68992 -0.51519,1.26897 -1.20511,1.29333z" fill="#ffc72e" stroke="none" stroke-width="0.5" stroke-linecap="butt"/><path d="M389.48578,121.27237c-0.68993,0.02436 -1.26897,-0.51519 -1.29333,-1.20511c-0.02436,-0.68992 0.51518,-1.26897 1.20511,-1.29333c0.68993,-0.02436 1.26897,0.51519 1.29333,1.20511c0.02436,0.68992 -0.51518,1.26897 -1.20511,1.29333z" fill="#ffc72e" stroke="none" stroke-width="0.5" stroke-linecap="butt"/><path d="M416.00281,129.01247c-0.68993,0.02436 -1.26897,-0.51519 -1.29333,-1.20511c-0.02436,-0.68992 0.51518,-1.26897 1.20511,-1.29333c0.68993,-0.02436 1.26897,0.51519 1.29333,1.20511c0.02436,0.68992 -0.51518,1.26897 -1.20511,1.29333z" fill="#f2bc49" stroke="none" stroke-width="0.5" stroke-linecap="butt"/><path d="M410.99346,129.72495c-0.68992,0.02436 -1.26897,-0.51518 -1.29333,-1.20511c-0.02436,-0.68992 0.51519,-1.26897 1.20511,-1.29333c0.68993,-0.02436 1.26897,0.51518 1.29333,1.20511c0.02436,0.68993 -0.51518,1.26897 -1.20511,1.29333z" fill="#f2bc49" stroke="none" stroke-width="0.5" stroke-linecap="butt"/><path d="M406.70655,129.66211c-0.68992,0.02436 -1.26897,-0.51518 -1.29333,-1.20511c-0.02436,-0.68992 0.51519,-1.26897 1.20511,-1.29333c0.68993,-0.02436 1.26897,0.51518 1.29333,1.20511c0.02436,0.68993 -0.51518,1.26897 -1.20511,1.29333z" fill="#f2bc49" stroke="none" stroke-width="0.5" stroke-linecap="butt"/><path d="M397.01001,128.0764c-0.68993,0.02436 -1.26897,-0.51519 -1.29333,-1.20511c-0.02436,-0.68992 0.51518,-1.26897 1.20511,-1.29333c0.68993,-0.02436 1.26897,0.51519 1.29333,1.20511c0.02436,0.68992 -0.51518,1.26897 -1.20511,1.29333z" fill="#f2bc49" stroke="none" stroke-width="0.5" stroke-linecap="butt"/><path d="M390.96981,126.89718c-0.68993,0.02436 -1.26897,-0.51519 -1.29333,-1.20511c-0.02436,-0.68992 0.51518,-1.26897 1.20511,-1.29333c0.68993,-0.02436 1.26897,0.51519 1.29333,1.20511c0.02436,0.68992 -0.51518,1.26897 -1.20511,1.29333z" fill="#f2bc49" stroke="none" stroke-width="0.5" stroke-linecap="butt"/><path d="M386.85034,128.54228c-0.68993,0.02436 -1.26897,-0.51519 -1.29333,-1.20511c-0.02436,-0.68992 0.51518,-1.26897 1.20511,-1.29333c0.68993,-0.02436 1.26897,0.51519 1.29333,1.20511c0.02436,0.68992 -0.51518,1.26897 -1.20511,1.29333z" fill="#f2bc49" stroke="none" stroke-width="0.5" stroke-linecap="butt"/><path d="M383.95043,128.32333c-0.68993,0.02436 -1.26897,-0.51519 -1.29333,-1.20511c-0.02436,-0.68992 0.51518,-1.26897 1.20511,-1.29333c0.68993,-0.02436 1.26897,0.51519 1.29333,1.20511c0.02436,0.68992 -0.51518,1.26897 -1.20511,1.29333z" fill="#f2bc49" stroke="none" stroke-width="0.5" stroke-linecap="butt"/><path d="M414.07336,132.00806c-0.41396,0.01462 -0.76138,-0.3091 -0.776,-0.72307c-0.01462,-0.41396 0.3091,-0.76138 0.72307,-0.776c0.41396,-0.01462 0.76138,0.3091 0.776,0.72307c0.01462,0.41396 -0.3091,0.76138 -0.72307,0.776z" fill="#f2bc49" stroke="none" stroke-width="0.5" stroke-linecap="butt"/><path d="M405.67454,133.80427c-0.41396,0.01462 -0.76138,-0.3091 -0.776,-0.72307c-0.01462,-0.41396 0.3091,-0.76138 0.72307,-0.776c0.41396,-0.01462 0.76138,0.3091 0.776,0.72307c0.01462,0.41396 -0.3091,0.76138 -0.72307,0.776z" fill="#f2bc49" stroke="none" stroke-width="0.5" stroke-linecap="butt"/><path d="M392.23614,135.45711c-0.41396,0.01462 -0.76138,-0.3091 -0.776,-0.72307c-0.01462,-0.41396 0.3091,-0.76138 0.72307,-0.776c0.41396,-0.01462 0.76138,0.3091 0.776,0.72307c0.01462,0.41396 -0.3091,0.76138 -0.72307,0.776z" fill="#f2bc49" stroke="none" stroke-width="0.5" stroke-linecap="butt"/><path d="M412.11727,122.11523c-0.41396,0.01462 -0.76138,-0.30911 -0.776,-0.72307c-0.01462,-0.41395 0.3091,-0.76138 0.72307,-0.776c0.41396,-0.01462 0.76138,0.30911 0.776,0.72307c0.01462,0.41395 -0.3091,0.76138 -0.72307,0.776z" fill="#ffc72e" stroke="none" stroke-width="0.5" stroke-linecap="butt"/><path d="M395.63798,122.59003c-0.41396,0.01462 -0.76138,-0.30911 -0.776,-0.72307c-0.01462,-0.41395 0.3091,-0.76138 0.72307,-0.776c0.41396,-0.01462 0.76138,0.30911 0.776,0.72307c0.01462,0.41395 -0.3091,0.76138 -0.72307,0.776z" fill="#ffc72e" stroke="none" stroke-width="0.5" stroke-linecap="butt"/><path d="M381.25682,121.81245c-0.41396,0.01462 -0.76138,-0.30911 -0.776,-0.72307c-0.01462,-0.41395 0.3091,-0.76138 0.72307,-0.776c0.41396,-0.01462 0.76138,0.30911 0.776,0.72307c0.01462,0.41395 -0.3091,0.76138 -0.72307,0.776z" fill="#ffc72e" stroke="none" stroke-width="0.5" stroke-linecap="butt"/><path d="M357.67972,138.76723c-0.67286,-1.23332 7.19311,-4.36655 16.40675,-9.39325c9.21364,-5.02671 17.67147,-9.43275 17.67147,-9.43275c0,0 -7.43463,5.96 -16.64827,10.9867c-9.21364,5.0267 -16.75708,9.0726 -17.42995,7.83928z" fill="#ff9600" stroke="#000000" stroke-width="0" stroke-linecap="butt"/></g><g><path d="M264.61223,185.71002l-28.15627,25.25078c0,0 -17.6693,-37.96405 -22.93349,-56.84028c-4.87851,-17.49322 -7.58276,-52.58408 -7.58276,-52.58408l57.62984,20.72417z" fill="#f3ca58" stroke="#000000" stroke-width="0" stroke-linecap="round"/><path d="M276.51324,166.97143c0.76489,1.17846 -6.38177,5.88994 -15.18556,11.60416c-8.80378,5.71422 -17.58247,9.41964 -17.58247,9.41964c0,0 7.89835,-5.34456 16.70214,-11.05878c8.80379,-5.71422 15.301,-11.14348 16.06589,-9.96502z" fill="#ff9600" stroke="#000000" stroke-width="0" stroke-linecap="butt"/><path d="M264.67156,156.58523c0.19023,1.39199 -8.2824,2.61157 -18.68139,4.03275c-10.39899,1.42118 -19.91984,1.0355 -19.91984,1.0355c0,0 9.42235,-1.47228 19.82134,-2.89347c10.39899,-1.42118 18.58967,-3.56679 18.7799,-2.17479z" fill="#ff9600" stroke="#000000" stroke-width="0" stroke-linecap="butt"/><g stroke="#000000" stroke-width="0" stroke-linecap="round"><g fill="#f2bc49"><path d="M208.88829,129.12277c-1.92455,-14.29836 -2.94858,-27.58632 -2.94858,-27.58632l57.62984,20.72417c0,0 0.03726,2.26717 0.07753,4.7178c0.0009,0.05428 -54.71741,2.45181 -54.75878,2.14434z"/></g><g fill="#ffc72e"><path d="M208.23307,124.02799c-1.50088,-12.20821 -2.29335,-22.49154 -2.29335,-22.49154l57.62984,20.72417c0,0 -55.33336,1.7928 -55.33649,1.76737z"/></g><g fill="#ff9600"><path d="M207.01713,112.56483c-0.14584,-1.48152 -0.47808,-2.95529 -0.61239,-4.32849c-0.36632,-3.74521 -0.46503,-6.69987 -0.46503,-6.69987c0,0 20.12393,7.23673 29.90339,10.7535c0.18423,0.06625 -28.8247,0.28771 -28.82597,0.27487z"/></g></g><path d="M207.64386,112.6596c-0.03411,-0.9659 0.72125,-1.77656 1.68715,-1.81067c0.9659,-0.03411 1.77656,0.72125 1.81067,1.68715c0.03411,0.9659 -0.72125,1.77656 -1.68715,1.81067c-0.9659,0.03411 -1.77656,-0.72125 -1.81067,-1.68715z" fill="#ff9600" stroke="none" stroke-width="0.5" stroke-linecap="butt"/><path d="M211.41891,113.46297c-0.03411,-0.9659 0.72125,-1.77656 1.68715,-1.81067c0.78769,-0.02782 1.47215,0.46942 1.7164,1.17769c0.28582,-0.52691 0.83511,-0.89312 1.47753,-0.9158c0.23156,-0.00818 0.45418,0.02902 0.65933,0.10361c0.19938,-0.08887 0.41882,-0.14168 0.65038,-0.14986c0.9659,-0.03411 1.77656,0.72125 1.81067,1.68715c0.03411,0.9659 -0.72125,1.77656 -1.68715,1.81067c-0.23156,0.00818 -0.45418,-0.02902 -0.65933,-0.10361c-0.19938,0.08887 -0.41882,0.14168 -0.65038,0.14986c-0.78769,0.02782 -1.47215,-0.46941 -1.7164,-1.17768c-0.28582,0.52691 -0.83511,0.89311 -1.47753,0.91579c-0.9659,0.03411 -1.77656,-0.72125 -1.81067,-1.68715z" fill="#ff9600" stroke="none" stroke-width="0.5" stroke-linecap="butt"/><path d="M219.44441,112.61757c-0.03411,-0.9659 0.72125,-1.77656 1.68715,-1.81067c0.9659,-0.03411 1.77656,0.72125 1.81067,1.68715c0.03411,0.9659 -0.72125,1.77656 -1.68715,1.81067c-0.9659,0.03411 -1.77656,-0.72125 -1.81067,-1.68715z" fill="#ff9600" stroke="none" stroke-width="0.5" stroke-linecap="butt"/><path d="M228.50244,114.35839c0.02436,0.68992 -0.51518,1.26897 -1.20511,1.29333c-0.68641,0.02424 -1.26306,-0.50969 -1.29292,-1.19457c-0.13774,0.04046 -0.28273,0.06451 -0.43281,0.06981c-0.9659,0.03411 -1.77656,-0.72125 -1.81067,-1.68715c-0.03411,-0.9659 0.72125,-1.77656 1.68715,-1.81067c0.9659,-0.03411 1.77656,0.72125 1.81067,1.68715c0.0053,0.15008 -0.00846,0.2964 -0.0391,0.43665c0.68527,-0.01852 1.25854,0.51903 1.28278,1.20544z" fill="#ff9600" stroke="none" stroke-width="0.5" stroke-linecap="butt"/><path d="M228.62555,112.66803c-0.03411,-0.9659 0.72125,-1.77656 1.68715,-1.81067c0.9659,-0.03411 1.77656,0.72125 1.81067,1.68715c0.03411,0.9659 -0.72125,1.77656 -1.68715,1.81067c-0.9659,0.03411 -1.77656,-0.72125 -1.81067,-1.68715z" fill="#ff9600" stroke="none" stroke-width="0.5" stroke-linecap="butt"/><path d="M209.26405,117.84775c-0.02436,-0.68992 0.51518,-1.26897 1.20511,-1.29333c0.68993,-0.02436 1.26897,0.51519 1.29333,1.20511c0.02436,0.68992 -0.51518,1.26897 -1.20511,1.29333c-0.68993,0.02436 -1.26897,-0.51519 -1.29333,-1.20511z" fill="#ff9600" stroke="none" stroke-width="0.5" stroke-linecap="butt"/><path d="M216.25945,119.6614c-0.02436,-0.68992 0.51518,-1.26897 1.20511,-1.29333c0.68993,-0.02436 1.26897,0.51519 1.29333,1.20511c0.02436,0.68992 -0.51518,1.26897 -1.20511,1.29333c-0.68993,0.02436 -1.26897,-0.51519 -1.29333,-1.20511z" fill="#ff9600" stroke="none" stroke-width="0.5" stroke-linecap="butt"/><path d="M220.05642,115.78063c-0.02436,-0.68992 0.51518,-1.26897 1.20511,-1.29333c0.68993,-0.02436 1.26897,0.51519 1.29333,1.20511c0.02436,0.68992 -0.51518,1.26897 -1.20511,1.29333c-0.68993,0.02436 -1.26897,-0.51519 -1.29333,-1.20511z" fill="#ff9600" stroke="none" stroke-width="0.5" stroke-linecap="butt"/><path d="M235.35242,113.92916c-0.02436,-0.68993 0.51518,-1.26897 1.20511,-1.29333c0.68993,-0.02436 1.26897,0.51518 1.29333,1.20511c0.02436,0.68993 -0.51518,1.26897 -1.20511,1.29333c-0.68993,0.02436 -1.26897,-0.51518 -1.29333,-1.20511z" fill="#ff9600" stroke="none" stroke-width="0.5" stroke-linecap="butt"/><path d="M239.57434,116.77741c-0.02436,-0.68993 0.51518,-1.26897 1.20511,-1.29333c0.68993,-0.02436 1.26897,0.51518 1.29333,1.20511c0.02436,0.68993 -0.51518,1.26897 -1.20511,1.29333c-0.68993,0.02436 -1.26897,-0.51518 -1.29333,-1.20511z" fill="#ff9600" stroke="none" stroke-width="0.5" stroke-linecap="butt"/><path d="M208.68979,124.42471c-0.03411,-0.9659 0.72125,-1.77656 1.68715,-1.81067c0.9659,-0.03411 1.77656,0.72125 1.81067,1.68715c0.03411,0.9659 -0.72125,1.77656 -1.68715,1.81067c-0.9659,0.03411 -1.77656,-0.72125 -1.81067,-1.68715z" fill="#ffc72e" stroke="none" stroke-width="0.5" stroke-linecap="butt"/><path d="M213.89557,123.30421c-0.03411,-0.9659 0.72125,-1.77656 1.68715,-1.81067c0.9659,-0.03411 1.77656,0.72125 1.81067,1.68715c0.03411,0.9659 -0.72125,1.77656 -1.68715,1.81067c-0.9659,0.03411 -1.77656,-0.72125 -1.81067,-1.68715z" fill="#ffc72e" stroke="none" stroke-width="0.5" stroke-linecap="butt"/><path d="M224.77709,121.9182c0.9659,-0.03411 1.77656,0.72125 1.81067,1.68715c0.03411,0.9659 -0.72125,1.77656 -1.68715,1.81067c-0.22909,0.00809 -0.44945,-0.02824 -0.65279,-0.10124c-0.30443,0.31944 -0.72917,0.52471 -1.20501,0.54151c-0.00857,0.0003 -0.01713,0.00054 -0.02568,0.00073c-0.30729,0.35659 -0.75668,0.58891 -1.2642,0.60683c-0.9659,0.03411 -1.77656,-0.72125 -1.81067,-1.68715c-0.03411,-0.9659 0.72125,-1.77656 1.68715,-1.81067c0.00857,-0.0003 0.01713,-0.00054 0.02568,-0.00073c0.30729,-0.35659 0.75668,-0.58891 1.2642,-0.60683c0.22909,-0.00809 0.44945,0.02824 0.65279,0.10124c0.30443,-0.31944 0.72917,-0.52471 1.20501,-0.54151z" fill="#ffc72e" stroke="none" stroke-width="0.5" stroke-linecap="butt"/><path d="M233.08769,125.00877c-0.00813,-0.23031 0.04657,-0.44826 0.14873,-0.63736c-0.59508,0.00187 -1.12573,-0.29551 -1.44368,-0.75404c-0.30745,0.3893 -0.77756,0.64606 -1.31216,0.66494c-0.9659,0.03411 -1.77656,-0.72125 -1.81067,-1.68715c-0.03411,-0.9659 0.72125,-1.77656 1.68715,-1.81067c0.61821,-0.02183 1.17283,0.27974 1.50096,0.75294c0.30745,-0.3893 0.77756,-0.64606 1.31216,-0.66494c0.9659,-0.03411 1.77656,0.72125 1.81067,1.68715c0.01576,0.44643 -0.13712,0.85969 -0.40149,1.17846c0.55695,0.10959 0.98588,0.59071 1.00678,1.18244c0.02436,0.68993 -0.51518,1.26897 -1.20511,1.29333c-0.68993,0.02436 -1.26897,-0.51518 -1.29333,-1.20511z" fill="#ffc72e" stroke="none" stroke-width="0.5" stroke-linecap="butt"/><path d="M235.78635,122.5312c-0.03411,-0.9659 0.72125,-1.77656 1.68715,-1.81067c0.9659,-0.03411 1.77656,0.72125 1.81067,1.68715c0.03411,0.9659 -0.72125,1.77656 -1.68715,1.81067c-0.9659,0.03411 -1.77656,-0.72125 -1.81067,-1.68715z" fill="#ffc72e" stroke="none" stroke-width="0.5" stroke-linecap="butt"/><path d="M248.4053,123.93227c0.02436,0.68993 -0.51518,1.26897 -1.20511,1.29333c-0.60302,0.02129 -1.12135,-0.38822 -1.25861,-0.9524c-0.13773,-0.06887 -0.26528,-0.15543 -0.37958,-0.25679c-0.24953,0.62406 -0.84906,1.07466 -1.56392,1.09991c-0.9659,0.03411 -1.77656,-0.72125 -1.81067,-1.68715c-0.03411,-0.9659 0.72125,-1.77656 1.68715,-1.81067c0.46741,-0.01651 0.89847,0.15186 1.22277,0.43949c0.24953,-0.62406 0.84906,-1.07466 1.56392,-1.09991c0.56477,-0.01994 1.07646,0.23002 1.41088,0.63416c0.24608,-0.63141 0.84926,-1.08864 1.56951,-1.11407c0.63462,-0.02241 1.20223,0.29599 1.5266,0.79098c0.28865,-0.51664 0.83238,-0.87428 1.46701,-0.89669c0.72025,-0.02543 1.35419,0.38811 1.64419,1.00059c0.30508,-0.42672 0.79787,-0.71216 1.36263,-0.7321c0.9659,-0.03411 1.77656,0.72125 1.81067,1.68715c0.03411,0.9659 -0.72125,1.77656 -1.68715,1.81067c-0.72025,0.02543 -1.35419,-0.38811 -1.64419,-1.00059c-0.30508,0.42672 -0.79787,0.71216 -1.36263,0.7321c-0.63462,0.02241 -1.20223,-0.29599 -1.5266,-0.79098c-0.28865,0.51664 -0.83238,0.87428 -1.46701,0.89669c-0.56477,0.01994 -1.07646,-0.23002 -1.41088,-0.63416c-0.01685,0.04321 -0.03536,0.08561 -0.05547,0.12712c0.06314,0.14208 0.10066,0.2984 0.10649,0.46332z" fill="#ffc72e" stroke="none" stroke-width="0.5" stroke-linecap="butt"/><path d="M209.04867,129.28271c-0.03411,-0.9659 0.72125,-1.77656 1.68715,-1.81067c0.9659,-0.03411 1.77656,0.72125 1.81067,1.68715c0.03411,0.9659 -0.72125,1.77656 -1.68715,1.81067c-0.9659,0.03411 -1.77656,-0.72125 -1.81067,-1.68715z" fill="#f2bc49" stroke="none" stroke-width="0.5" stroke-linecap="butt"/><path d="M219.18178,127.92313c0.9659,-0.03411 1.77656,0.72125 1.81067,1.68715c0.03411,0.9659 -0.72125,1.77656 -1.68715,1.81067c-0.34409,0.01215 -0.66847,-0.07589 -0.94508,-0.23794c-0.26448,0.18116 -0.58185,0.29186 -0.92594,0.30401c-0.81927,0.02893 -1.52685,-0.51011 -1.74362,-1.26384c-0.30752,0.36468 -0.76213,0.60299 -1.27641,0.62115c-0.9659,0.03411 -1.77656,-0.72125 -1.81067,-1.68715c-0.03411,-0.9659 0.72125,-1.77656 1.68715,-1.81067c0.81927,-0.02893 1.52685,0.51011 1.74362,1.26384c0.30752,-0.36468 0.76213,-0.60299 1.27641,-0.62115c0.34409,-0.01215 0.66847,0.07589 0.94508,0.23794c0.26448,-0.18116 0.58185,-0.29186 0.92594,-0.30401z" fill="#f2bc49" stroke="none" stroke-width="0.5" stroke-linecap="butt"/><path d="M221.97183,129.20104c-0.03411,-0.9659 0.72125,-1.77656 1.68715,-1.81067c0.9659,-0.03411 1.77656,0.72125 1.81067,1.68715c0.03411,0.9659 -0.72125,1.77656 -1.68715,1.81067c-0.9659,0.03411 -1.77656,-0.72125 -1.81067,-1.68715z" fill="#f2bc49" stroke="none" stroke-width="0.5" stroke-linecap="butt"/><path d="M229.6462,127.17895c0.9659,-0.03411 1.77656,0.72125 1.81067,1.68715c0.03411,0.9659 -0.72125,1.77656 -1.68715,1.81067c-0.54477,0.01924 -1.04016,-0.21265 -1.3747,-0.59182c-0.16215,0.05666 -0.33546,0.0902 -0.51613,0.09658c-0.9659,0.03411 -1.77656,-0.72125 -1.81067,-1.68715c-0.03411,-0.9659 0.72125,-1.77656 1.68715,-1.81067c0.54477,-0.01924 1.04016,0.21265 1.3747,0.59182c0.16215,-0.05666 0.33546,-0.0902 0.51613,-0.09658z" fill="#f2bc49" stroke="none" stroke-width="0.5" stroke-linecap="butt"/><path d="M234.97896,131.01303c-0.42453,0.01499 -0.80707,-0.18352 -1.04424,-0.49921c-0.07696,0.01318 -0.1557,0.02137 -0.23589,0.0242c-0.9659,0.03411 -1.77656,-0.72125 -1.81067,-1.68715c-0.03411,-0.9659 0.72125,-1.77656 1.68715,-1.81067c0.46741,-0.01651 0.89847,0.15186 1.22277,0.43949c0.24953,-0.62406 0.84906,-1.07466 1.56392,-1.09991c0.47821,-0.01689 0.91838,0.15975 1.24509,0.45964c0.30467,-0.43067 0.7998,-0.71918 1.36771,-0.73924c0.56791,-0.02005 1.08215,0.23281 1.41645,0.64092c0.30474,-0.32219 0.73135,-0.52943 1.20956,-0.54632c0.9659,-0.03411 1.77656,0.72125 1.81067,1.68715c0.03411,0.9659 -0.72125,1.77656 -1.68715,1.81067c-0.56791,0.02005 -1.08215,-0.23281 -1.41645,-0.64092c-0.30474,0.32219 -0.73135,0.52943 -1.20956,0.54632c-0.47821,0.01689 -0.91838,-0.15975 -1.24509,-0.45964c-0.30467,0.43067 -0.7998,0.71918 -1.36771,0.73924c-0.10352,0.00366 -0.20524,-0.00176 -0.30443,-0.01553c-0.04855,0.6255 -0.56026,1.12827 -1.20213,1.15094z" fill="#f2bc49" stroke="none" stroke-width="0.5" stroke-linecap="butt"/><path d="M243.63586,127.31203c-0.03411,-0.9659 0.72125,-1.77656 1.68715,-1.81067c0.9659,-0.03411 1.77656,0.72125 1.81067,1.68715c0.03411,0.9659 -0.72125,1.77656 -1.68715,1.81067c-0.9659,0.03411 -1.77656,-0.72125 -1.81067,-1.68715z" fill="#f2bc49" stroke="none" stroke-width="0.5" stroke-linecap="butt"/><path d="M247.21719,127.93489c-0.03411,-0.9659 0.72125,-1.77656 1.68715,-1.81067c0.9659,-0.03411 1.77656,0.72125 1.81067,1.68715c0.03411,0.9659 -0.72125,1.77656 -1.68715,1.81067c-0.9659,0.03411 -1.77656,-0.72125 -1.81067,-1.68715z" fill="#f2bc49" stroke="none" stroke-width="0.5" stroke-linecap="butt"/><path d="M213.55122,126.87693c-0.02436,-0.68993 0.51518,-1.26897 1.20511,-1.29333c0.68993,-0.02436 1.26897,0.51518 1.29333,1.20511c0.02436,0.68993 -0.51518,1.26897 -1.20511,1.29333c-0.68993,0.02436 -1.26897,-0.51518 -1.29333,-1.20511z" fill="#ffc72e" stroke="none" stroke-width="0.5" stroke-linecap="butt"/><path d="M226.64977,124.70051c-0.02436,-0.68993 0.51518,-1.26897 1.20511,-1.29333c0.68993,-0.02436 1.26897,0.51518 1.29333,1.20511c0.02436,0.68993 -0.51518,1.26897 -1.20511,1.29333c-0.68993,0.02436 -1.26897,-0.51518 -1.29333,-1.20511z" fill="#ffc72e" stroke="none" stroke-width="0.5" stroke-linecap="butt"/><path d="M239.52561,125.31701c-0.02436,-0.68993 0.51518,-1.26897 1.20511,-1.29333c0.68993,-0.02436 1.26897,0.51518 1.29333,1.20511c0.02436,0.68993 -0.51518,1.26897 -1.20511,1.29333c-0.68993,0.02436 -1.26897,-0.51518 -1.29333,-1.20511z" fill="#ffc72e" stroke="none" stroke-width="0.5" stroke-linecap="butt"/><path d="M213.62059,134.90827c-0.02436,-0.68993 0.51518,-1.26897 1.20511,-1.29333c0.68993,-0.02436 1.26897,0.51518 1.29333,1.20511c0.02436,0.68993 -0.51518,1.26897 -1.20511,1.29333c-0.68993,0.02436 -1.26897,-0.51518 -1.29333,-1.20511z" fill="#f2bc49" stroke="none" stroke-width="0.5" stroke-linecap="butt"/><path d="M218.66771,135.26562c-0.02436,-0.68993 0.51518,-1.26897 1.20511,-1.29333c0.68993,-0.02436 1.26897,0.51518 1.29333,1.20511c0.02436,0.68993 -0.51518,1.26897 -1.20511,1.29333c-0.68993,0.02436 -1.26897,-0.51518 -1.29333,-1.20511z" fill="#f2bc49" stroke="none" stroke-width="0.5" stroke-linecap="butt"/><path d="M222.93951,134.90055c-0.02436,-0.68993 0.51518,-1.26897 1.20511,-1.29333c0.68993,-0.02436 1.26897,0.51518 1.29333,1.20511c0.02436,0.68993 -0.51518,1.26897 -1.20511,1.29333c-0.68993,0.02436 -1.26897,-0.51518 -1.29333,-1.20511z" fill="#f2bc49" stroke="none" stroke-width="0.5" stroke-linecap="butt"/><path d="M232.50005,132.63483c-0.02436,-0.68993 0.51518,-1.26897 1.20511,-1.29333c0.68993,-0.02436 1.26897,0.51518 1.29333,1.20511c0.02436,0.68993 -0.51518,1.26897 -1.20511,1.29333c-0.68993,0.02436 -1.26897,-0.51518 -1.29333,-1.20511z" fill="#f2bc49" stroke="none" stroke-width="0.5" stroke-linecap="butt"/><path d="M238.44202,131.03248c-0.02436,-0.68993 0.51518,-1.26897 1.20511,-1.29333c0.68993,-0.02436 1.26897,0.51518 1.29333,1.20511c0.02436,0.68993 -0.51518,1.26897 -1.20511,1.29333c-0.68993,0.02436 -1.26897,-0.51518 -1.29333,-1.20511z" fill="#f2bc49" stroke="none" stroke-width="0.5" stroke-linecap="butt"/><path d="M242.66728,132.38292c-0.02436,-0.68993 0.51518,-1.26897 1.20511,-1.29333c0.68993,-0.02436 1.26897,0.51518 1.29333,1.20511c0.02436,0.68993 -0.51518,1.26897 -1.20511,1.29333c-0.68993,0.02436 -1.26897,-0.51518 -1.29333,-1.20511z" fill="#f2bc49" stroke="none" stroke-width="0.5" stroke-linecap="butt"/><path d="M245.54451,131.95997c-0.02436,-0.68993 0.51518,-1.26897 1.20511,-1.29333c0.68993,-0.02436 1.26897,0.51518 1.29333,1.20511c0.02436,0.68993 -0.51518,1.26897 -1.20511,1.29333c-0.68993,0.02436 -1.26897,-0.51518 -1.29333,-1.20511z" fill="#f2bc49" stroke="none" stroke-width="0.5" stroke-linecap="butt"/><path d="M216.27385,138.24233c-0.01462,-0.41395 0.30911,-0.76138 0.72307,-0.776c0.41395,-0.01462 0.76138,0.30911 0.776,0.72307c0.01462,0.41395 -0.30911,0.76138 -0.72307,0.776c-0.41395,0.01462 -0.76138,-0.30911 -0.776,-0.72307z" fill="#f2bc49" stroke="none" stroke-width="0.5" stroke-linecap="butt"/><path d="M224.77846,139.44164c-0.01462,-0.41395 0.30911,-0.76138 0.72307,-0.776c0.41395,-0.01462 0.76138,0.30911 0.776,0.72307c0.01462,0.41395 -0.30911,0.76138 -0.72307,0.776c-0.41395,0.01462 -0.76138,-0.30911 -0.776,-0.72307z" fill="#f2bc49" stroke="none" stroke-width="0.5" stroke-linecap="butt"/><path d="M238.29998,140.14245c-0.01462,-0.41395 0.30911,-0.76138 0.72307,-0.776c0.41395,-0.01462 0.76138,0.30911 0.776,0.72307c0.01462,0.41395 -0.30911,0.76138 -0.72307,0.776c-0.41395,0.01462 -0.76138,-0.30911 -0.776,-0.72307z" fill="#f2bc49" stroke="none" stroke-width="0.5" stroke-linecap="butt"/><path d="M217.52727,128.23617c-0.01462,-0.41395 0.30911,-0.76138 0.72307,-0.776c0.41395,-0.01462 0.76138,0.30911 0.776,0.72307c0.01462,0.41395 -0.30911,0.76138 -0.72307,0.776c-0.41395,0.01462 -0.76138,-0.30911 -0.776,-0.72307z" fill="#ffc72e" stroke="none" stroke-width="0.5" stroke-linecap="butt"/><path d="M233.999,127.5474c-0.01462,-0.41395 0.30911,-0.76138 0.72307,-0.776c0.41395,-0.01462 0.76138,0.30911 0.776,0.72307c0.01462,0.41395 -0.30911,0.76138 -0.72307,0.776c-0.41395,0.01462 -0.76138,-0.30911 -0.776,-0.72307z" fill="#ffc72e" stroke="none" stroke-width="0.5" stroke-linecap="butt"/><path d="M248.2895,125.75736c-0.01462,-0.41395 0.30911,-0.76138 0.72307,-0.776c0.41395,-0.01462 0.76138,0.30911 0.776,0.72307c0.01462,0.41395 -0.30911,0.76138 -0.72307,0.776c-0.41395,0.01462 -0.76138,-0.30911 -0.776,-0.72307z" fill="#ffc72e" stroke="none" stroke-width="0.5" stroke-linecap="butt"/><path d="M273.77978,141.72992c-0.58419,1.27771 -8.39424,-2.22602 -17.93949,-6.59031c-9.54525,-4.36428 -17.38176,-9.78503 -17.38176,-9.78503c0,0 8.74756,3.79847 18.29281,8.16277c9.54525,4.36428 17.61264,6.93487 17.02845,8.21258z" fill="#ff9600" stroke="#000000" stroke-width="0" stroke-linecap="butt"/></g><g><path d="M252.13038,154.25004c-1.17523,-33.28111 26.61404,-61.27571 62.06907,-62.52771c35.45503,-1.252 65.14972,24.71273 66.32495,57.99383c1.17523,33.28111 -26.61403,61.27572 -62.06907,62.52772c-35.45502,1.252 -65.14972,-24.71274 -66.32495,-57.99384z" fill="url(#color-2)" stroke="#000000" stroke-width="0" stroke-linecap="butt"/><path d="M257.83881,127.27083c9.7956,-20.23351 31.1384,-34.65784 56.36064,-35.54849c25.32917,-0.89443 47.71842,12.10176 58.86955,31.73273c0.03098,0.05454 -115.26414,3.8859 -115.2302,3.81577z" fill="#f2bc49" stroke="#000000" stroke-width="0" stroke-linecap="butt"/><path d="M260.21957,122.58897c10.97476,-16.41635 31.83741,-30.08472 53.97987,-30.86662c22.64902,-0.79979 44.2071,11.25927 56.22184,27.48485c0.14118,0.19066 -110.50225,3.83133 -110.20171,3.38177z" fill="#ffc72e" stroke="#000000" stroke-width="0" stroke-linecap="butt"/><path d="M267.43116,113.12337c11.32161,-12.9908 27.53721,-20.72193 46.76828,-21.40102c19.78274,-0.69857 36.29811,5.55029 48.54065,18.34142c0.05191,0.05423 -95.41572,3.18211 -95.30894,3.0596z" fill="#ff9600" stroke="#000000" stroke-width="0" stroke-linecap="butt"/><path d="M265.45961,154.05513c-0.45764,-12.95993 9.67746,-23.83702 22.6374,-24.29466c12.95993,-0.45764 23.83702,9.67745 24.29466,22.63739c0.45764,12.95993 -9.67745,23.83703 -22.63739,24.29467c-12.95993,0.45764 -23.83703,-9.67746 -24.29467,-22.6374z" fill="url(#color-3)" stroke="#000000" stroke-width="0" stroke-linecap="butt"/><path d="M278.77713,152.6721c-0.16945,-4.79851 3.58315,-8.82584 8.38167,-8.99528c4.79851,-0.16945 8.82584,3.58316 8.99528,8.38168c0.16945,4.79851 -3.58316,8.82585 -8.38167,8.99529c-4.79851,0.16945 -8.82584,-3.58316 -8.99528,-8.38168z" fill="#000000" stroke="#000000" stroke-width="0" stroke-linecap="butt"/><path d="M343.97898,174.77781c-12.95993,0.45764 -23.83702,-9.67746 -24.29466,-22.6374c-0.45764,-12.95993 9.67745,-23.83702 22.63739,-24.29466c12.95993,-0.45764 23.83703,9.67745 24.29467,22.63739c0.45764,12.95993 -9.67746,23.83703 -22.6374,24.29467z" fill="url(#color-4)" stroke="#000000" stroke-width="0" stroke-linecap="butt"/><path d="M350.20011,151.59028c-0.1563,4.28127 -3.39038,7.23946 -7.74308,7.33901c-4.3527,0.09954 -7.46419,-2.84173 -7.31258,-6.99468c0.15163,-4.15296 3.17194,-8.54755 7.88394,-8.65532c4.712,-0.10776 7.32801,4.02973 7.17171,8.311z" fill="#000000" stroke="#000000" stroke-width="0" stroke-linecap="butt"/><path d="M283.97632,82.42763c0,0 8.97114,-39.76984 27.46891,-24.94039c1.40734,1.12826 2.62711,2.30803 3.67968,3.52496c12.78209,14.77797 0.90872,35.03442 0.90872,35.03442" fill="none" stroke="#ff9600" stroke-width="6" stroke-linecap="round"/><path d="M297.35662,94.8726c0.91688,6.03703 -3.5397,11.72076 -9.95404,12.69494c-6.41435,0.97419 -12.35749,-3.13006 -13.27437,-9.16709c-0.91688,-6.03703 2.8633,-15.53033 9.27766,-16.50452c6.41435,-0.97419 13.03388,6.93964 13.95076,12.97668z" fill="#ffffff" stroke="#000000" stroke-width="0" stroke-linecap="butt"/><path d="M258.94007,163.18631c3.82451,-2.39473 8.5717,0.21287 12.72166,0.7003c4.63261,0.54411 10.51623,1.29133 15.11456,0.28861c1.91634,-0.41788 3.32659,-1.56261 5.36406,-1.68298c5.32982,-1.37126 12.70991,-1.61319 18.09553,-0.68292c1.95165,0.33712 3.8147,1.3149 5.78142,1.63081c5.97556,0.95985 13.16367,-1.1631 18.90641,-2.63644c9.38397,-1.53145 19.80426,-2.87947 29.12814,-0.75758c2.40105,0.54643 4.72602,1.24617 7.04794,2.07301c1.03599,0.36892 2.63317,0.05252 3.13442,1.03136c0.91067,1.77835 -3.56719,4.52592 -4.38754,5.30368c-3.66272,2.41583 -7.29877,4.93669 -11.03894,7.22381c-1.41386,0.86457 -3.56599,2.64991 -5.2551,3.0689c-7.76736,1.92669 -16.21946,0.11013 -24.00508,-0.9076c-11.94693,-1.54462 -24.12161,1.03938 -35.77647,3.33978c-2.08267,0.41106 -3.83349,1.43362 -5.95912,1.6935c-5.67678,0.19474 -9.57506,-2.02249 -14.89923,-3.83496c-3.89249,-1.3251 -7.88144,-2.67755 -11.30343,-5.02201c-2.6206,-1.79541 -5.57722,-3.68075 -6.0773,-7.05429c0.26164,-1.56459 1.831,-2.58256 3.19384,-3.67362c0.13235,-0.05053 0.21423,-0.10132 0.21423,-0.10132z" fill-opacity="0.41176" fill="#6ee8ff" stroke="none" stroke-width="0.5" stroke-linecap="butt"/><path d="M376.10531,125.4081l1.45505,41.20536l-24.3411,15.61056l-36.29546,-3.09752l-34.58099,6.29179l-26.0803,-14.06054l-1.47131,-41.66576z" fill-opacity="0.08235" fill="#00ffff" stroke="#f1da3e" stroke-width="7.5" stroke-linecap="round"/><path d="M267.1634,114.13917c-0.03411,-0.9659 0.72125,-1.77656 1.68715,-1.81067c0.9659,-0.03411 1.77656,0.72125 1.81067,1.68715c0.03411,0.9659 -0.72125,1.77656 -1.68715,1.81067c-0.9659,0.03411 -1.77656,-0.72125 -1.81067,-1.68715z" fill="#ff9600" stroke="none" stroke-width="0.5" stroke-linecap="butt"/><path d="M276.88239,111.88709c0.9659,-0.03411 1.77656,0.72125 1.81067,1.68715c0.03411,0.9659 -0.72125,1.77656 -1.68715,1.81067c-0.76723,0.02709 -1.43652,-0.44392 -1.69647,-1.12291c-0.21141,0.69563 -0.84581,1.21268 -1.61304,1.23978c-0.9659,0.03411 -1.77656,-0.72125 -1.81067,-1.68715c-0.03411,-0.9659 0.72125,-1.77656 1.68715,-1.81067c0.76723,-0.02709 1.43652,0.44392 1.69647,1.12291c0.21141,-0.69563 0.84581,-1.21268 1.61304,-1.23978z" fill="#ff9600" stroke="none" stroke-width="0.5" stroke-linecap="butt"/><path d="M282.09607,112.50731c-0.03411,-0.9659 0.72125,-1.77656 1.68715,-1.81067c0.9659,-0.03411 1.77656,0.72125 1.81067,1.68715c0.03411,0.9659 -0.72125,1.77656 -1.68715,1.81067c-0.9659,0.03411 -1.77656,-0.72125 -1.81067,-1.68715z" fill="#ff9600" stroke="none" stroke-width="0.5" stroke-linecap="butt"/><path d="M289.18232,112.09929c-0.03411,-0.9659 0.72125,-1.77656 1.68715,-1.81067c0.9659,-0.03411 1.77656,0.72125 1.81067,1.68715c0.03411,0.9659 -0.72125,1.77656 -1.68715,1.81067c-0.9659,0.03411 -1.77656,-0.72125 -1.81067,-1.68715z" fill="#ff9600" stroke="none" stroke-width="0.5" stroke-linecap="butt"/><path d="M296.13324,112.32722c-0.03411,-0.9659 0.72125,-1.77656 1.68715,-1.81067c0.9659,-0.03411 1.77656,0.72125 1.81067,1.68715c0.03411,0.9659 -0.72125,1.77656 -1.68715,1.81067c-0.9659,0.03411 -1.77656,-0.72125 -1.81067,-1.68715z" fill="#ff9600" stroke="none" stroke-width="0.5" stroke-linecap="butt"/><path d="M303.07302,112.23994c-0.03411,-0.9659 0.72125,-1.77656 1.68715,-1.81067c0.9659,-0.03411 1.77656,0.72125 1.81067,1.68715c0.03411,0.9659 -0.72125,1.77656 -1.68715,1.81067c-0.9659,0.03411 -1.77656,-0.72125 -1.81067,-1.68715z" fill="#ff9600" stroke="none" stroke-width="0.5" stroke-linecap="butt"/><path d="M306.68103,111.63916c-0.03411,-0.9659 0.72125,-1.77656 1.68715,-1.81067c0.9659,-0.03411 1.77656,0.72125 1.81067,1.68715c0.03411,0.9659 -0.72125,1.77656 -1.68715,1.81067c-0.9659,0.03411 -1.77656,-0.72125 -1.81067,-1.68715z" fill="#ff9600" stroke="none" stroke-width="0.5" stroke-linecap="butt"/><path d="M311.56094,111.30905c-0.03411,-0.9659 0.72125,-1.77656 1.68715,-1.81067c0.9659,-0.03411 1.77656,0.72125 1.81067,1.68715c0.03411,0.9659 -0.72125,1.77656 -1.68715,1.81067c-0.9659,0.03411 -1.77656,-0.72125 -1.81067,-1.68715z" fill="#ff9600" stroke="none" stroke-width="0.5" stroke-linecap="butt"/><path d="M318.65276,111.05863c-0.03411,-0.9659 0.72125,-1.77656 1.68715,-1.81067c0.9659,-0.03411 1.77656,0.72125 1.81067,1.68715c0.03411,0.9659 -0.72125,1.77656 -1.68715,1.81067c-0.9659,0.03411 -1.77656,-0.72125 -1.81067,-1.68715z" fill="#ff9600" stroke="none" stroke-width="0.5" stroke-linecap="butt"/><path d="M323.22861,111.05483c-0.03411,-0.9659 0.72125,-1.77656 1.68715,-1.81067c0.9659,-0.03411 1.77656,0.72125 1.81067,1.68715c0.03411,0.9659 -0.72125,1.77656 -1.68715,1.81067c-0.9659,0.03411 -1.77656,-0.72125 -1.81067,-1.68715z" fill="#ff9600" stroke="none" stroke-width="0.5" stroke-linecap="butt"/><path d="M326.72354,111.72038c-0.03411,-0.9659 0.72125,-1.77656 1.68715,-1.81067c0.9659,-0.03411 1.77656,0.72125 1.81067,1.68715c0.03411,0.9659 -0.72125,1.77656 -1.68715,1.81067c-0.9659,0.03411 -1.77656,-0.72125 -1.81067,-1.68715z" fill="#ff9600" stroke="none" stroke-width="0.5" stroke-linecap="butt"/><path d="M340.24709,109.96513c0.9659,-0.03411 1.77656,0.72125 1.81067,1.68715c0.03411,0.9659 -0.72125,1.77656 -1.68715,1.81067c-0.58375,0.02061 -1.11079,-0.24712 -1.44398,-0.67541c-0.30216,0.45072 -0.809,0.75497 -1.39274,0.77558c-0.40185,0.01419 -0.77682,-0.10827 -1.0802,-0.32568c-0.24084,0.13999 -0.51867,0.22435 -0.81652,0.23487c-0.9659,0.03411 -1.77656,-0.72125 -1.81067,-1.68715c-0.03411,-0.9659 0.72125,-1.77656 1.68715,-1.81067c0.40185,-0.01419 0.77682,0.10826 1.0802,0.32568c0.24084,-0.13999 0.51867,-0.22434 0.81652,-0.23486c0.58375,-0.02061 1.11078,0.24711 1.44397,0.6754c0.30216,-0.45072 0.80901,-0.75496 1.39275,-0.77557z" fill="#ff9600" stroke="none" stroke-width="0.5" stroke-linecap="butt"/><path d="M350.0069,109.3049c0.9659,-0.03411 1.77656,0.72125 1.81067,1.68715c0.03411,0.9659 -0.72125,1.77656 -1.68715,1.81067c-0.22224,0.00785 -0.43627,-0.02611 -0.63452,-0.0948c-0.19291,0.0825 -0.404,0.13147 -0.62624,0.13932c-0.9659,0.03411 -1.77656,-0.72125 -1.81067,-1.68715c-0.03411,-0.9659 0.72125,-1.77656 1.68715,-1.81067c0.22224,-0.00785 0.43627,0.02611 0.63451,0.0948c0.19291,-0.0825 0.404,-0.13147 0.62625,-0.13932z" fill="#ff9600" stroke="none" stroke-width="0.5" stroke-linecap="butt"/><path d="M353.52042,110.93192c-0.03411,-0.9659 0.72125,-1.77656 1.68715,-1.81067c0.9659,-0.03411 1.77656,0.72125 1.81067,1.68715c0.03411,0.9659 -0.72125,1.77656 -1.68715,1.81067c-0.9659,0.03411 -1.77656,-0.72125 -1.81067,-1.68715z" fill="#ff9600" stroke="none" stroke-width="0.5" stroke-linecap="butt"/><path d="M356.97083,110.33669c-0.03411,-0.9659 0.72125,-1.77656 1.68715,-1.81067c0.9659,-0.03411 1.77656,0.72125 1.81067,1.68715c0.03411,0.9659 -0.72125,1.77656 -1.68715,1.81067c-0.9659,0.03411 -1.77656,-0.72125 -1.81067,-1.68715z" fill="#ff9600" stroke="none" stroke-width="0.5" stroke-linecap="butt"/><path d="M366.54139,119.79086c-0.03411,-0.9659 0.72125,-1.77656 1.68715,-1.81067c0.9659,-0.03411 1.77656,0.72125 1.81067,1.68715c0.03411,0.9659 -0.72125,1.77656 -1.68715,1.81067c-0.9659,0.03411 -1.77656,-0.72125 -1.81067,-1.68715z" fill="#ffc72e" stroke="none" stroke-width="0.5" stroke-linecap="butt"/><path d="M356.12892,119.84296c-0.03411,-0.9659 0.72125,-1.77656 1.68715,-1.81067c0.76209,-0.02691 1.42756,0.43764 1.6912,1.10931c0.28738,-0.52134 0.83366,-0.88288 1.47184,-0.90542c0.9659,-0.03411 1.77656,0.72125 1.81067,1.68715c0.03411,0.9659 -0.72125,1.77656 -1.68715,1.81067c-0.76209,0.02691 -1.42756,-0.43764 -1.6912,-1.10931c-0.28738,0.52134 -0.83366,0.88288 -1.47184,0.90542c-0.9659,0.03411 -1.77656,-0.72125 -1.81067,-1.68715z" fill="#ffc72e" stroke="none" stroke-width="0.5" stroke-linecap="butt"/><path d="M347.60205,119.67068c-0.03411,-0.9659 0.72125,-1.77656 1.68715,-1.81067c0.08026,-0.00283 0.15944,-0.00023 0.23719,0.00751c0.28051,-0.21846 0.62997,-0.35372 1.01244,-0.36723c0.9659,-0.03411 1.77656,0.72125 1.81067,1.68715c0.03411,0.9659 -0.72125,1.77656 -1.68715,1.81067c-0.08026,0.00283 -0.15944,0.00022 -0.23719,-0.00751c-0.28051,0.21846 -0.62997,0.35373 -1.01244,0.36724c-0.9659,0.03411 -1.77656,-0.72125 -1.81067,-1.68715z" fill="#ffc72e" stroke="none" stroke-width="0.5" stroke-linecap="butt"/><path d="M341.9119,119.39824c-0.03411,-0.9659 0.72125,-1.77656 1.68715,-1.81067c0.9659,-0.03411 1.77656,0.72125 1.81067,1.68715c0.03411,0.9659 -0.72125,1.77656 -1.68715,1.81067c-0.9659,0.03411 -1.77656,-0.72125 -1.81067,-1.68715z" fill="#ffc72e" stroke="none" stroke-width="0.5" stroke-linecap="butt"/><path d="M332.6193,119.88417c-0.03411,-0.9659 0.72125,-1.77656 1.68715,-1.81067c0.9659,-0.03411 1.77656,0.72125 1.81067,1.68715c0.03411,0.9659 -0.72125,1.77656 -1.68715,1.81067c-0.9659,0.03411 -1.77656,-0.72125 -1.81067,-1.68715z" fill="#ffc72e" stroke="none" stroke-width="0.5" stroke-linecap="butt"/><path d="M326.1523,119.95475c-0.03411,-0.9659 0.72125,-1.77656 1.68715,-1.81067c0.9659,-0.03411 1.77656,0.72125 1.81067,1.68715c0.03411,0.9659 -0.72125,1.77656 -1.68715,1.81067c-0.9659,0.03411 -1.77656,-0.72125 -1.81067,-1.68715z" fill="#ffc72e" stroke="none" stroke-width="0.5" stroke-linecap="butt"/><path d="M317.51235,121.0488c-0.03411,-0.9659 0.72125,-1.77656 1.68715,-1.81067c0.9659,-0.03411 1.77656,0.72125 1.81067,1.68715c0.03411,0.9659 -0.72125,1.77656 -1.68715,1.81067c-0.9659,0.03411 -1.77656,-0.72125 -1.81067,-1.68715z" fill="#ffc72e" stroke="none" stroke-width="0.5" stroke-linecap="butt"/><path d="M299.50189,120.42246c-0.03411,-0.9659 0.72125,-1.77656 1.68715,-1.81067c0.9659,-0.03411 1.77656,0.72125 1.81067,1.68715c0.03411,0.9659 -0.72125,1.77656 -1.68715,1.81067c-0.9659,0.03411 -1.77656,-0.72125 -1.81067,-1.68715z" fill="#ffc72e" stroke="none" stroke-width="0.5" stroke-linecap="butt"/><path d="M280.94452,122.18231c-0.03411,-0.9659 0.72125,-1.77656 1.68715,-1.81067c0.9659,-0.03411 1.77656,0.72125 1.81067,1.68715c0.03411,0.9659 -0.72125,1.77656 -1.68715,1.81067c-0.9659,0.03411 -1.77656,-0.72125 -1.81067,-1.68715z" fill="#ffc72e" stroke="none" stroke-width="0.5" stroke-linecap="butt"/><path d="M273.36323,121.97663c-0.03411,-0.9659 0.72125,-1.77656 1.68715,-1.81067c0.9659,-0.03411 1.77656,0.72125 1.81067,1.68715c0.03411,0.9659 -0.72125,1.77656 -1.68715,1.81067c-0.9659,0.03411 -1.77656,-0.72125 -1.81067,-1.68715z" fill="#ffc72e" stroke="none" stroke-width="0.5" stroke-linecap="butt"/><path d="M263.1195,122.33836c-0.03411,-0.9659 0.72125,-1.77656 1.68715,-1.81067c0.9659,-0.03411 1.77656,0.72125 1.81067,1.68715c0.03411,0.9659 -0.72125,1.77656 -1.68715,1.81067c-0.9659,0.03411 -1.77656,-0.72125 -1.81067,-1.68715z" fill="#ffc72e" stroke="none" stroke-width="0.5" stroke-linecap="butt"/><path d="M288.3571,122.07834c-0.03411,-0.9659 0.72125,-1.77656 1.68715,-1.81067c0.9659,-0.03411 1.77656,0.72125 1.81067,1.68715c0.03411,0.9659 -0.72125,1.77656 -1.68715,1.81067c-0.9659,0.03411 -1.77656,-0.72125 -1.81067,-1.68715z" fill="#ffc72e" stroke="none" stroke-width="0.5" stroke-linecap="butt"/><path d="M294.21042,122.50282c-0.03411,-0.9659 0.72125,-1.77656 1.68715,-1.81067c0.9659,-0.03411 1.77656,0.72125 1.81067,1.68715c0.03411,0.9659 -0.72125,1.77656 -1.68715,1.81067c-0.9659,0.03411 -1.77656,-0.72125 -1.81067,-1.68715z" fill="#ffc72e" stroke="none" stroke-width="0.5" stroke-linecap="butt"/><path d="M303.95354,121.36981c-0.03411,-0.9659 0.72125,-1.77656 1.68715,-1.81067c0.9659,-0.03411 1.77656,0.72125 1.81067,1.68715c0.03411,0.9659 -0.72125,1.77656 -1.68715,1.81067c-0.9659,0.03411 -1.77656,-0.72125 -1.81067,-1.68715z" fill="#ffc72e" stroke="none" stroke-width="0.5" stroke-linecap="butt"/><path d="M312.61018,120.74854c-0.03411,-0.9659 0.72125,-1.77656 1.68715,-1.81067c0.9659,-0.03411 1.77656,0.72125 1.81067,1.68715c0.03411,0.9659 -0.72125,1.77656 -1.68715,1.81067c-0.9659,0.03411 -1.77656,-0.72125 -1.81067,-1.68715z" fill="#ffc72e" stroke="none" stroke-width="0.5" stroke-linecap="butt"/><path d="M266.84315,117.5005c-0.02436,-0.68993 0.51518,-1.26897 1.20511,-1.29333c0.68993,-0.02436 1.26897,0.51518 1.29333,1.20511c0.02436,0.68993 -0.51518,1.26897 -1.20511,1.29333c-0.68993,0.02436 -1.26897,-0.51518 -1.29333,-1.20511z" fill="#ff9600" stroke="none" stroke-width="0.5" stroke-linecap="butt"/><path d="M276.69343,115.27933c-0.02436,-0.68993 0.51518,-1.26897 1.20511,-1.29333c0.68993,-0.02436 1.26897,0.51518 1.29333,1.20511c0.02436,0.68993 -0.51518,1.26897 -1.20511,1.29333c-0.68993,0.02436 -1.26897,-0.51518 -1.29333,-1.20511z" fill="#ff9600" stroke="none" stroke-width="0.5" stroke-linecap="butt"/><path d="M279.22694,112.75452c-0.02436,-0.68993 0.51518,-1.26897 1.20511,-1.29333c0.68993,-0.02436 1.26897,0.51518 1.29333,1.20511c0.02436,0.68993 -0.51518,1.26897 -1.20511,1.29333c-0.68993,0.02436 -1.26897,-0.51518 -1.29333,-1.20511z" fill="#ff9600" stroke="none" stroke-width="0.5" stroke-linecap="butt"/><path d="M296.50625,114.01768c-0.02436,-0.68993 0.51518,-1.26897 1.20511,-1.29333c0.68993,-0.02436 1.26897,0.51518 1.29333,1.20511c0.02436,0.68993 -0.51518,1.26897 -1.20511,1.29333c-0.68993,0.02436 -1.26897,-0.51518 -1.29333,-1.20511z" fill="#ff9600" stroke="none" stroke-width="0.5" stroke-linecap="butt"/><path d="M301.43695,115.71692c-0.02436,-0.68993 0.51518,-1.26897 1.20511,-1.29333c0.68993,-0.02436 1.26897,0.51518 1.29333,1.20511c0.02436,0.68993 -0.51518,1.26897 -1.20511,1.29333c-0.68993,0.02436 -1.26897,-0.51518 -1.29333,-1.20511z" fill="#ff9600" stroke="none" stroke-width="0.5" stroke-linecap="butt"/><path d="M308.94741,116.20104c-0.02436,-0.68993 0.51518,-1.26897 1.20511,-1.29333c0.68993,-0.02436 1.26897,0.51518 1.29333,1.20511c0.02436,0.68993 -0.51518,1.26897 -1.20511,1.29333c-0.68993,0.02436 -1.26897,-0.51518 -1.29333,-1.20511z" fill="#ff9600" stroke="none" stroke-width="0.5" stroke-linecap="butt"/><path d="M321.65702,115.37757c-0.02436,-0.68993 0.51518,-1.26897 1.20511,-1.29333c0.68993,-0.02436 1.26897,0.51518 1.29333,1.20511c0.02436,0.68993 -0.51518,1.26897 -1.20511,1.29333c-0.68993,0.02436 -1.26897,-0.51518 -1.29333,-1.20511z" fill="#ff9600" stroke="none" stroke-width="0.5" stroke-linecap="butt"/><path d="M326.28829,113.90269c-0.02436,-0.68993 0.51518,-1.26897 1.20511,-1.29333c0.68993,-0.02436 1.26897,0.51518 1.29333,1.20511c0.02436,0.68993 -0.51518,1.26897 -1.20511,1.29333c-0.68993,0.02436 -1.26897,-0.51518 -1.29333,-1.20511z" fill="#ff9600" stroke="none" stroke-width="0.5" stroke-linecap="butt"/><path d="M334.81564,111.35356c-0.02436,-0.68993 0.51518,-1.26897 1.20511,-1.29333c0.68993,-0.02436 1.26897,0.51518 1.29333,1.20511c0.02436,0.68993 -0.51518,1.26897 -1.20511,1.29333c-0.68993,0.02436 -1.26897,-0.51518 -1.29333,-1.20511z" fill="#ff9600" stroke="none" stroke-width="0.5" stroke-linecap="butt"/><path d="M346.26843,112.07315c-0.02436,-0.68993 0.51518,-1.26897 1.20511,-1.29333c0.68993,-0.02436 1.26897,0.51518 1.29333,1.20511c0.02436,0.68993 -0.51518,1.26897 -1.20511,1.29333c-0.68993,0.02436 -1.26897,-0.51518 -1.29333,-1.20511z" fill="#ff9600" stroke="none" stroke-width="0.5" stroke-linecap="butt"/><path d="M357.39985,114.30274c-0.02436,-0.68993 0.51518,-1.26897 1.20511,-1.29333c0.68993,-0.02436 1.26897,0.51518 1.29333,1.20511c0.02436,0.68993 -0.51518,1.26897 -1.20511,1.29333c-0.68993,0.02436 -1.26897,-0.51518 -1.29333,-1.20511z" fill="#ff9600" stroke="none" stroke-width="0.5" stroke-linecap="butt"/><path d="M271.4987,118.4601c-0.01462,-0.41395 0.30911,-0.76138 0.72307,-0.776c0.41395,-0.01462 0.76138,0.30911 0.776,0.72307c0.01462,0.41395 -0.30911,0.76138 -0.72307,0.776c-0.41395,0.01462 -0.76138,-0.30911 -0.776,-0.72307z" fill="#ff9600" stroke="none" stroke-width="0.5" stroke-linecap="butt"/><path d="M280.11193,118.34329c-0.01462,-0.41395 0.30911,-0.76138 0.72307,-0.776c0.41395,-0.01462 0.76138,0.30911 0.776,0.72307c0.01462,0.41395 -0.30911,0.76138 -0.72307,0.776c-0.41395,0.01462 -0.76138,-0.30911 -0.776,-0.72307z" fill="#ff9600" stroke="none" stroke-width="0.5" stroke-linecap="butt"/><path d="M290.85933,117.21444c-0.01462,-0.41395 0.30911,-0.76138 0.72307,-0.776c0.41395,-0.01462 0.76138,0.30911 0.776,0.72307c0.01462,0.41395 -0.30911,0.76138 -0.72307,0.776c-0.41395,0.01462 -0.76138,-0.30911 -0.776,-0.72307z" fill="#ff9600" stroke="none" stroke-width="0.5" stroke-linecap="butt"/><path d="M304.24919,119.73896c-0.01462,-0.41395 0.30911,-0.76138 0.72307,-0.776c0.41395,-0.01462 0.76138,0.30911 0.776,0.72307c0.01462,0.41395 -0.30911,0.76138 -0.72307,0.776c-0.41395,0.01462 -0.76138,-0.30911 -0.776,-0.72307z" fill="#ff9600" stroke="none" stroke-width="0.5" stroke-linecap="butt"/><path d="M315.00192,116.54925c-0.01462,-0.41395 0.30911,-0.76138 0.72307,-0.776c0.41395,-0.01462 0.76138,0.30911 0.776,0.72307c0.01462,0.41395 -0.30911,0.76138 -0.72307,0.776c-0.41395,0.01462 -0.76138,-0.30911 -0.776,-0.72307z" fill="#ff9600" stroke="none" stroke-width="0.5" stroke-linecap="butt"/><path d="M328.36535,118.32535c-0.01462,-0.41395 0.30911,-0.76138 0.72307,-0.776c0.41395,-0.01462 0.76138,0.30911 0.776,0.72307c0.01462,0.41395 -0.30911,0.76138 -0.72307,0.776c-0.41395,0.01462 -0.76138,-0.30911 -0.776,-0.72307z" fill="#ff9600" stroke="none" stroke-width="0.5" stroke-linecap="butt"/><path d="M340.64132,115.83119c-0.01462,-0.41395 0.30911,-0.76138 0.72307,-0.776c0.41395,-0.01462 0.76138,0.30911 0.776,0.72307c0.01462,0.41395 -0.30911,0.76138 -0.72307,0.776c-0.41395,0.01462 -0.76138,-0.30911 -0.776,-0.72307z" fill="#ff9600" stroke="none" stroke-width="0.5" stroke-linecap="butt"/><path d="M362.19753,116.194c-0.01462,-0.41395 0.30911,-0.76138 0.72307,-0.776c0.41395,-0.01462 0.76138,0.30911 0.776,0.72307c0.01462,0.41395 -0.30911,0.76138 -0.72307,0.776c-0.41395,0.01462 -0.76138,-0.30911 -0.776,-0.72307z" fill="#ff9600" stroke="none" stroke-width="0.5" stroke-linecap="butt"/><path d="M351.00452,117.52591c-0.01462,-0.41395 0.30911,-0.76138 0.72307,-0.776c0.41395,-0.01462 0.76138,0.30911 0.776,0.72307c0.01462,0.41395 -0.30911,0.76138 -0.72307,0.776c-0.41395,0.01462 -0.76138,-0.30911 -0.776,-0.72307z" fill="#ff9600" stroke="none" stroke-width="0.5" stroke-linecap="butt"/></g><g stroke="none" stroke-width="0.5" stroke-linecap="butt"><g><path d="M332.17888,196.46896l2.90288,0.189c3.67096,1.34522 6.90927,2.39748 8.76837,6.19106c1.74518,3.56112 0.9703,8.53684 0.43418,12.29893c-0.89915,6.30953 -3.22129,15.54811 -9.99651,18.08193c-2.62487,0.98166 -4.26038,0.66973 -6.88986,0.54769c-10.26532,-1.91886 -20.43148,-6.66633 -25.49083,-16.36782c-4.29291,-8.2318 3.21981,-16.72832 10.96953,-18.70491c-2.34159,-3.79789 -3.639,-8.4176 0.70624,-11.42246c1.14694,-0.79314 2.60993,-1.25879 4.00365,-1.21312c1.47387,0.0483 2.82887,0.86501 4.16876,1.48092c4.48044,2.05952 7.84279,4.99896 10.27049,8.92451c0.09644,-0.00677 0.15312,-0.00574 0.15312,-0.00574z" fill="#f3ca58"/><path d="M301.69397,201.29244c2.14475,-4.08701 5.29139,-7.2563 9.6154,-9.62673c1.29311,-0.70888 2.58712,-1.61914 4.05391,-1.77128c1.38703,-0.14387 2.87922,0.21742 4.07925,0.92768c4.54636,2.69087 3.57804,7.39059 1.51018,11.3442c7.86984,1.42504 15.96316,9.37046 12.26159,17.88457c-4.36245,10.03419 -14.16842,15.48692 -24.27281,18.12508c-2.61432,0.3072 -4.22376,0.73373 -6.91133,-0.06034c-6.93706,-2.04961 -9.90509,-11.10139 -11.24705,-17.33178c-0.80015,-3.71491 -1.92407,-8.62357 -0.43442,-12.29892c1.58688,-3.91526 4.74291,-5.19332 8.30984,-6.79413l2.88232,-0.39329c0,0 0.05647,-0.00503 0.15315,-0.00508z" fill="#ff9600"/><path d="M301.52009,201.67326c2.14475,-4.08701 5.29139,-7.2563 9.6154,-9.62673c1.29311,-0.70888 2.58712,-1.61914 4.05391,-1.77128c1.38703,-0.14387 2.87922,0.21742 4.07925,0.92768c4.54636,2.69087 3.57803,7.39059 1.51017,11.34419c7.86984,1.42504 15.96316,9.37047 12.26159,17.88458c-4.36245,10.03419 -14.16842,15.48692 -24.27281,18.12508c-2.61432,0.3072 -4.22376,0.73373 -6.91133,-0.06034c-6.93706,-2.04961 -9.90509,-11.10139 -11.24705,-17.33178c-0.80015,-3.71491 -1.92407,-8.62357 -0.43443,-12.29892c1.58688,-3.91526 4.74291,-5.19332 8.30984,-6.79413l2.88231,-0.39329c0,0 0.05647,-0.00503 0.15315,-0.00508z" fill="#f3ca58"/></g><path d="M297.52344,221.4425c0.04656,0.04593 0.09156,0.09447 0.13503,0.14548c4.65044,0.54589 4.70304,7.99947 4.04868,10.9776c-0.59623,2.7136 -1.64247,5.22067 -3.06246,7.44324c-0.46986,1.02324 -0.97707,2.03416 -1.47581,3.03823c-1.85851,3.7416 -3.75205,7.8567 -8.02659,9.53098c-1.42416,0.55782 -3.05058,0.30865 -4.57985,0.28199c-1.50821,-0.0263 -3.218,0.34831 -4.50384,-0.44037c-0.2786,-0.17088 -0.53024,-0.36411 -0.75687,-0.57677c-0.17099,-0.08006 -0.34125,-0.16933 -0.51066,-0.2684c-2.38756,-1.39616 -3.86224,-4.77614 -3.2812,-7.55677c0.02702,-1.04588 0.34521,-2.20138 0.47943,-3.1894c0.13018,-0.95816 1.65994,-4.2716 2.56975,-5.88632c1.48834,-5.53877 6.05351,-9.11786 11.07934,-11.96592l-0.06832,-0.08469l2.28952,-1.8469c0.4041,-0.6004 0.82141,-1.19182 1.25153,-1.77362c0,0 1.49187,-2.00607 3.49794,-0.51419c1.19781,0.89079 1.14854,1.9649 0.91437,2.68583z" fill="#f3ca58"/><path d="M336.74077,217.1522c1.89584,-1.62966 3.5255,0.26618 3.5255,0.26618c0.47008,0.55001 0.92807,1.11052 1.37352,1.68093l2.41408,1.6808l-0.06217,0.08929c5.21422,2.48647 10.02045,5.73463 11.89578,11.15462c1.02144,1.54653 2.78111,4.74381 2.97854,5.6904c0.20358,0.97607 0.6025,2.10625 0.70321,3.14763c0.77572,2.73274 -0.45687,6.20831 -2.73999,7.7694c-0.162,0.11077 -0.32555,0.21183 -0.49046,0.30375c-0.21106,0.22811 -0.44844,0.43861 -0.7143,0.62872c-1.227,0.87742 -2.95895,0.62434 -4.46155,0.75696c-1.52358,0.13446 -3.12838,0.49774 -4.58834,0.04177c-4.38199,-1.36859 -6.56107,-5.33988 -8.67887,-8.94107c-0.56832,-0.9664 -1.14558,-1.93903 -1.68644,-2.92658c-1.57324,-2.11688 -2.79372,-4.5439 -3.57987,-7.20868c-0.8628,-2.92456 -1.33607,-10.36327 3.26428,-11.23584c0.03976,-0.05395 0.08123,-0.10555 0.12444,-0.15465c-0.28442,-0.70261 -0.40935,-1.77058 0.72266,-2.74363z" fill="#f3ca58"/></g></g></g></g></svg>