<svg version="1.1" xmlns="http://www.w3.org/2000/svg" xmlns:xlink="http://www.w3.org/1999/xlink" width="256.94127" height="285.30995" viewBox="0,0,256.94127,285.30995"><g transform="translate(-217.39785,-38.88752)"><g stroke-miterlimit="10"><path d="" fill="none" stroke="#000000" stroke-width="2" stroke-linecap="round"/><path d="M440.81878,170.92063c-16.95489,24.84892 -86.09619,153.27684 -86.09619,153.27684l-79.96236,-0.55421c0,0 -17.12722,-124.72096 -26.18617,-150.92466c-3.32251,-9.6106 1.65168,-19.65434 15.13102,-19.5766c40.91994,0.23603 128.0667,0.73871 164.99659,0.95171c3.4713,0.02002 10.64809,0.66395 13.53481,3.99455c2.70577,3.12184 1.33328,8.80062 -1.41766,12.83237z" fill="#000000" stroke="#000000" stroke-width="0" stroke-linecap="butt"/><g fill="#ffffff" stroke="#000000" stroke-width="0"><path d="M345.26634,195.23251c0,0 -6.4177,45.18636 -8.15801,53.69135c-0.6222,3.04071 -3.02101,0.94112 -3.02101,0.94112l-4.56669,6.77729l-4.64558,-21.09422l12.42236,-40.11727z" stroke-linecap="round"/><path d="M352.78556,189.90416c-0.36863,2.25535 -0.25711,4.63274 -2.40684,6.14216c-2.27413,1.59676 -6.88642,2.26144 -10.0263,2.26144c-2.68266,0 -5.9391,-0.23144 -7.65675,-1.43866c-2.19319,-1.54145 -2.45469,-4.36218 -2.02927,-6.96495c0.38918,-2.38111 1.57945,-5.51959 3.92352,-7.04871c2.22489,-1.45139 5.53525,-1.3549 8.50963,-1.3549c3.50555,0 7.24214,0.08587 8.95238,2.01933c1.26965,1.43538 1.05686,4.40678 0.73365,6.38428z" stroke-linecap="butt"/></g><path d="M217.39785,306.61253l43.75924,-267.72501h213.18203l-43.75924,267.72501z" fill="none" stroke="none" stroke-width="0" stroke-linecap="butt"/><path d="M288.78049,132.82129c5.44314,-33.30185 38.61557,-60.29833 74.09269,-60.29833c35.47713,0 59.82449,26.99648 54.38135,60.29833c-5.44314,33.30185 -38.61557,60.29834 -74.0927,60.29834c-35.47712,0 -59.82448,-26.99649 -54.38134,-60.29834z" fill="#000000" stroke="#000000" stroke-width="2" stroke-linecap="butt"/><g stroke="#000000" stroke-width="0" stroke-linecap="butt"><path d="M287.75804,135.1842l-3.86047,-62.69671c0,0 51.56225,-4.01247 76.56864,-4.94998c24.26138,-0.90958 71.30225,-0.59381 71.30225,-0.59381l-14.39058,63.89589z" fill="#000000"/><path d="M288.81445,134.30029l-0.9985,-10.17038l130.70822,-1.0678l-2.35337,10.08137z" fill="#ffffff"/><path d="M267.9572,142.09833c0,0 -2.61764,-3.65822 -3.07448,-5.776c-0.48799,-2.2622 0.23382,-7.39253 0.23382,-7.39253l176.19931,-0.75584c0,0 -1.21176,4.01527 -2.29945,6.13824c-1.1815,2.30607 -4.53145,7.1944 -4.53145,7.1944c0,0 -1.74616,0.0062 -4.87599,0.01733c-1.48156,0.00526 -6.73754,28.34496 -8.80073,28.3523c-0.53725,0.00191 1.07362,-8.1529 1.68979,-15.42891c0.58224,-6.87534 -0.99127,-12.8946 -1.5642,-12.89256c-31.14445,0.11067 -107.39585,0.38161 -136.74341,0.4859c-2.5866,0.00919 -3.50313,11.40654 -5.169,10.82347c-4.27534,-1.49642 -3.9866,-10.79093 -4.83812,-10.78791c-3.46739,0.01232 -6.2261,0.02212 -6.2261,0.02212z" fill="#000000"/></g><path d="M416.1906,125.3486c-0.06298,-0.72761 0.69436,-0.90951 0.69436,-0.90951l0.44286,-0.0631c1.73498,-1.02641 2.99229,-2.51652 3.85496,-4.19236c-0.09115,-0.87255 -0.021,-1.72314 0.25238,-2.49735c0,0 0.24216,-0.66631 0.87899,-0.60364c0.08549,-0.36074 0.15708,-0.72236 0.2154,-1.08261c0,0 0.1226,-0.75 0.8726,-0.75c0.75,0 0.6274,0.75 0.6274,0.75c-0.2357,1.42993 -0.65518,2.85095 -1.28112,4.18248c0.49574,2.81264 2.91514,6.22932 4.94071,6.56752l0.71111,-0.1521c0,0 0.75947,-0.14709 0.78635,0.58835c0.02688,0.73544 -0.7326,0.88252 -0.7326,0.88252l-1.01004,0.18123c-2.35394,-0.52486 -4.79703,-3.22189 -5.81193,-6.11865c-0.94176,1.3652 -2.15656,2.56708 -3.67618,3.49269l-0.94496,0.27024c0,0 -0.75734,0.1819 -0.82032,-0.54571z" fill="#000000" stroke="none" stroke-width="0.5" stroke-linecap="butt"/><path d="M316.9209,166.39208c0.10679,-0.03887 0.23736,-0.06336 0.39679,-0.06336c0.77287,0 0.67884,0.57532 0.67884,0.57532l-0.07261,0.20161c0.16999,0.59783 1.30691,2.4976 0.6897,3.01136c-0.75685,0.62997 -3.48873,-0.1041 -3.78751,-0.65442c-0.26566,-0.48935 0.76844,-1.97446 0.85184,-2.55855c0,0 0.09403,-0.57532 0.8669,-0.57532c0.15944,0 0.28199,0.02448 0.37607,0.06336z" fill="#ffffff" stroke="none" stroke-width="0.5" stroke-linecap="butt"/><path d="M330.18156,168.97361c0.61412,-0.25522 0.96509,0.16058 0.96509,0.16058l0.71103,0.86502c0.10434,0.57086 0.50243,1.86609 -0.28274,2.38001c-0.58,0.37964 -2.74591,0.2321 -3.19161,-0.26219c-0.44296,-0.49125 0.21166,-2.18753 0.31658,-2.82943c0,0 0.09403,-0.57532 0.8669,-0.57532c0.36282,0 0.5346,0.12679 0.61473,0.26132z" fill="#ffffff" stroke="none" stroke-width="0.5" stroke-linecap="butt"/><path d="M346.13342,168.13697c0.77287,0 0.67884,0.57532 0.67884,0.57532l-0.11968,0.69679c0.06637,0.36682 0.88717,2.81343 0.70778,3.02657c-0.56744,0.67413 -3.47486,0.22673 -3.84896,-0.10918c-0.46958,-0.42165 0.20381,-2.24839 0.30166,-2.84709c0,0 0.09403,-0.57532 0.8669,-0.57532c0.23854,0 0.3945,0.05481 0.49613,0.13059l0.05046,-0.32236c0,0 0.09403,-0.57532 0.8669,-0.57532z" fill="#ffffff" stroke="none" stroke-width="0.5" stroke-linecap="butt"/><path d="M358.9567,169.09843c0.12522,-0.13124 0.33701,-0.2526 0.69197,-0.2526c0.77287,0 0.67884,0.57532 0.67884,0.57532l-0.04127,0.00984c0.17624,0.61983 1.62728,2.47792 1.26997,2.94643c-0.68721,0.9011 -4.02208,0.03908 -4.35852,-0.33247c-0.50213,-0.55452 0.42459,-1.78945 0.52225,-2.43203c0,0 0.09403,-0.57532 0.8669,-0.57532c0.15595,0 0.27662,0.02342 0.36987,0.06082z" fill="#ffffff" stroke="none" stroke-width="0.5" stroke-linecap="butt"/><path d="M369.58039,168.0086c0.08168,-0.01851 0.17452,-0.02923 0.28002,-0.02923c0.54195,0 0.65762,0.2829 0.67838,0.45194c0.98496,0.61246 2.33433,2.07117 1.14737,2.987c-0.19604,0.15127 -4.05031,0.38311 -4.23035,0.24421c-0.65566,-0.50589 0.45689,-3.20529 0.64124,-3.91592c0,0 0.14887,-0.57385 0.91306,-0.53286c0.7642,0.04099 0.61534,0.61485 0.61534,0.61485c-0.01555,0.05995 -0.03054,0.11997 -0.04507,0.18001z" fill="#ffffff" stroke="none" stroke-width="0.5" stroke-linecap="butt"/><path d="M376.43319,166.39208c0.00827,-0.00756 0.01681,-0.01515 0.02569,-0.02279c0.53624,-0.4619 1.10071,-0.11892 1.10071,-0.11892l0.69364,0.43592c0.40134,0.59626 2.2279,2.33068 1.52537,3.15985c-0.49524,0.5845 -4.51472,0.97689 -5.00058,0.46265c-0.24731,-0.26177 0.50792,-2.72891 0.41088,-3.26521c0,0 -0.09622,-0.55814 0.67638,-0.69767c0.25707,-0.04643 0.43926,-0.01562 0.56792,0.04618z" fill="#ffffff" stroke="none" stroke-width="0.5" stroke-linecap="butt"/><path d="M383.44888,166.00956c0.4278,-0.43115 1.02267,-0.1954 1.02267,-0.1954l0.14819,0.13104c0.89146,0.00739 3.13695,0.20682 3.16536,1.11489c0.02031,0.64952 -3.00982,1.66566 -3.70594,1.56484c-1.34225,-0.19442 -1.48429,-1.24768 -2.0207,-1.97705c0,0 -0.35047,-0.47869 0.34476,-0.79781c0.69108,-0.31723 1.0415,0.15389 1.04566,0.15952z" fill="#ffffff" stroke="none" stroke-width="0.5" stroke-linecap="butt"/><path d="M307.77194,163.26039c0.37461,0 0.54555,0.13516 0.62226,0.27446c0.04162,0.02337 0.08278,0.05174 0.12298,0.08582c0.40335,0.34185 0.03491,0.68372 -0.09304,0.78416c0.45355,0.87256 1.08253,2.39316 -0.84863,3.00848c-0.59436,0.18938 -4.21275,-0.81399 -4.08088,-1.60319c0.14061,-0.84146 2.20466,-1.37574 3.40191,-1.91095l0.00853,-0.06346c0,0 0.09403,-0.57532 0.8669,-0.57532z" fill="#ffffff" stroke="none" stroke-width="0.5" stroke-linecap="butt"/><path d="M311.56537,166.13697c0.3897,-0.06552 0.7917,-0.06769 1.19723,0h0.3786l0.09918,-0.16225l0.7253,0.18758c0.30399,0.0723 0.49779,0.29118 0.45548,0.54999c-0.05193,0.31774 -0.44006,0.57532 -0.8669,0.57532h-0.50031c0.08609,0.73585 -0.28567,1.6799 -0.75553,2.06234c-0.61573,0.50117 -1.53197,0.42754 -2.24311,0.4307c-0.53094,0.00236 -1.99012,0.04721 -2.17748,-0.30385c-0.17991,-0.33713 0.45735,-0.71641 0.66631,-1.07953c0.46135,-0.80171 1.08368,-1.4279 1.79512,-1.82491c0.18504,-0.43538 0.82686,-0.43538 0.82686,-0.43538c0.13309,0 0.26619,0 0.39927,0z" fill="#ffffff" stroke="none" stroke-width="0.5" stroke-linecap="butt"/><path d="M323.85374,168.41667c0.11828,-0.09534 0.26333,-0.16247 0.43943,-0.18899c1.56927,-0.2363 2.34464,2.74755 1.51799,3.40703c-0.8443,0.67354 -3.82275,0.13322 -4.0854,-0.55567c-0.02692,-0.07058 1.01835,-1.6932 1.07639,-2.09965c0,0 0.09403,-0.57532 0.8669,-0.57532c0.06807,0 0.12942,0.00446 0.1847,0.0126z" fill="#ffffff" stroke="none" stroke-width="0.5" stroke-linecap="butt"/><path d="M337.75444,169.70565l0.74314,0.22168c0.30311,0.41399 1.57107,1.75455 1.26893,2.23179c-0.48018,0.75844 -4.39859,0.84344 -4.80674,0.27653c-0.0416,-0.05777 1.24216,-2.25626 1.3741,-2.5205c0,0 0.27868,-0.55814 1.00566,-0.41861c0.21558,0.04138 0.34274,0.11957 0.41495,0.2091z" fill="#ffffff" stroke="none" stroke-width="0.5" stroke-linecap="butt"/><path d="M351.30732,170.95049c0.08088,-0.046 0.18209,-0.08613 0.30854,-0.11628c0.76294,-0.18193 0.91813,0.36386 0.91813,0.36386l0.07193,0.40804c2.76556,1.6683 -2.19555,2.6522 -2.98672,1.71489c-0.40414,-0.4788 0.10933,-2.05387 0.21626,-2.70808c0,0 0.09403,-0.57532 0.8669,-0.57532c0.77287,0 0.67884,0.57532 0.67884,0.57532c-0.01822,0.11151 -0.04371,0.22424 -0.07385,0.33758z" fill="#ffffff" stroke="none" stroke-width="0.5" stroke-linecap="butt"/><path d="M322.02058,184.11039c-0.66084,0.27278 -0.99392,-0.18214 -0.99392,-0.18214c-0.35642,-0.48879 -1.97509,-2.55934 -1.66634,-3.11676c0.46885,-0.84646 4.12662,-1.3709 4.96835,-0.9292c1.12391,0.58976 0.13294,2.66762 -0.35901,3.454l-0.9949,0.67967c0,0 -0.50275,0.33366 -0.95417,0.09446z" fill="#ffffff" stroke="none" stroke-width="0.5" stroke-linecap="butt"/><path d="M325.77557,189.47136c-0.59092,-0.31913 -0.08394,-0.79781 -0.08394,-0.79781l0.0701,-0.0662c-0.10484,-0.11699 -0.12642,-0.24222 -0.12642,-0.24222c-0.10249,-0.66105 -1.38651,-2.38616 -0.75473,-3.04451c0.74816,-0.77961 4.61356,-1.28594 5.25569,-0.308c0.79062,1.20408 -1.72013,2.84248 -2.65355,3.72388l-0.60927,0.57532c0,0 -0.50695,0.47869 -1.09785,0.15956z" fill="#ffffff" stroke="none" stroke-width="0.5" stroke-linecap="butt"/><path d="M334.02421,190.19283c-0.10063,0.16607 -0.31985,0.37515 -0.78575,0.37515c-0.77287,0 -0.67884,-0.57532 -0.67884,-0.57532l0.62154,-0.70634c0.02805,-0.6999 -0.34696,-2.4482 0.03921,-2.8161c0.59821,-0.56994 3.96784,-1.18264 4.66975,-0.52804c1.57253,1.46652 -1.95857,3.57769 -3.86591,4.25066z" fill="#ffffff" stroke="none" stroke-width="0.5" stroke-linecap="butt"/><path d="M343.60978,189.66616c0.00857,0.02434 0.01608,0.04747 0.02234,0.06926c0,0 0.13018,0.4578 -0.43401,0.67461c-0.12225,0.13928 -0.33737,0.27441 -0.71194,0.27441c-0.77287,0 -0.67884,-0.57532 -0.67884,-0.57532l0.10074,-0.3737c0.01254,-0.02048 0.02563,-0.04283 0.03922,-0.06689c-0.30338,-0.72723 -0.81717,-1.76502 -0.43172,-2.3764c0.26928,-0.4271 3.07487,-2.22883 3.81923,-1.44975c0.65179,0.68219 -0.94852,2.73875 -1.72505,3.82379z" fill="#ffffff" stroke="none" stroke-width="0.5" stroke-linecap="butt"/><path d="M347.87489,189.98647c-0.15362,-0.20981 -0.10633,-0.38897 -0.00474,-0.52405c-0.02313,-0.09953 -0.01021,-0.17863 -0.01021,-0.17863c0.1194,-0.70088 0.48101,-2.75429 1.27827,-3.28339c0.81599,-0.54153 4.64348,-0.56697 4.81691,0.41187c0.13774,0.77733 -3.4069,2.97894 -4.199,3.35022l-0.83556,0.38355c0,0 -0.69522,0.31913 -1.04569,-0.15956z" fill="#ffffff" stroke="none" stroke-width="0.5" stroke-linecap="butt"/><path d="M358.49017,186.52512c0,0 0.11264,0.55504 -0.65773,0.70642c-0.77037,0.15138 -0.88302,-0.40366 -0.88302,-0.40366c-0.14528,-0.71592 -1.2158,-3.0975 -0.20727,-3.81831c2.16712,-1.54885 3.66467,0.56979 3.0138,1.94882l-0.06234,0.05002l0.01934,0.00766l-0.85018,1.01801c-0.09655,0.12066 -0.2441,0.21825 -0.41579,0.27498c0.01421,0.07206 0.02858,0.14409 0.04319,0.21608z" fill="#ffffff" stroke="none" stroke-width="0.5" stroke-linecap="butt"/><path d="M364.8664,183.79295c-0.77287,0 -0.67884,-0.57532 -0.67884,-0.57532c0.12154,-0.7216 -0.52186,-2.39959 -0.22207,-2.92771c0.15988,-0.28165 2.49641,-0.84902 2.76506,-0.62524c0.35241,0.29353 0.26327,1.66696 0.24458,2.24917l-0.08991,0.09093l0.05208,0.00999l-0.37716,0.75541c-0.11997,0.2562 -0.45905,0.44746 -0.82685,0.44746c0,0 -0.09403,0.57532 -0.8669,0.57532z" fill="#ffffff" stroke="none" stroke-width="0.5" stroke-linecap="butt"/></g></g></svg>