<svg version="1.1" xmlns="http://www.w3.org/2000/svg" xmlns:xlink="http://www.w3.org/1999/xlink" width="213.18203" height="280.18476" viewBox="0,0,213.18203,280.18476"><defs><radialGradient cx="292.51287" cy="193.82117" r="23.48066" gradientUnits="userSpaceOnUse" id="color-1"><stop offset="0" stop-color="#ffffff"/><stop offset="1" stop-color="#ff8484"/></radialGradient><radialGradient cx="355.42183" cy="183.19683" r="23.48066" gradientUnits="userSpaceOnUse" id="color-2"><stop offset="0" stop-color="#ffffff"/><stop offset="1" stop-color="#ff8484"/></radialGradient></defs><g transform="translate(-214.78369,-38.88751)"><g stroke-miterlimit="10"><path d="M214.78369,306.61252v-267.72501c0,0 153.66918,0 187.45214,0c12.51617,0 25.72989,0 25.72989,0v267.72501z" fill="none" stroke="none" stroke-width="0" stroke-linecap="butt"/><g stroke-width="0" stroke-linecap="butt"><g stroke="#000000"><path d="M306.87459,221.1579c-9.03073,-0.541 -8.74668,-5.2825 -8.74668,-5.2825l0.17918,-2.69897c-0.14836,-0.81197 -0.29673,-1.62395 -0.44509,-2.43592c-1.26016,-8.64643 3.86366,-16.62644 3.36702,-25.10531c-0.29376,-5.0151 -1.84539,-11.07202 -3.32304,-15.87412c-1.60686,-5.22201 -5.53118,-9.84065 -5.63995,-15.13058c-0.11597,-5.64022 7.41663,-9.5336 7.23793,-14.80892c0,0 0.28405,-4.7415 9.31478,-4.2005c9.03073,0.541 8.74668,5.2825 8.74668,5.2825c-0.17537,1.57834 0.18365,3.2217 -0.5261,4.735c-1.29507,2.76128 -5.21996,4.92995 -6.70644,7.65662c-1.46155,2.68094 1.17435,6.4508 2.40469,9.02376c2.58227,5.40012 3.90764,10.90447 5.09281,16.38018c0.80057,3.69884 1.83676,7.30799 1.25136,10.97839c-1.13157,7.09481 -4.34242,13.74959 -3.21623,21.02575c0.16781,0.98794 0.33564,1.97586 0.50344,2.96378l-0.17959,3.29031c0,0 -0.28405,4.7415 -9.31479,4.2005z" fill="#39940f"/><path d="M321.83958,223.04978c-8.27933,-2.26325 -4.66168,-6.46471 -4.66168,-6.46471l0.61574,0.13449c0.05883,-0.91926 0.11765,-1.8385 0.17647,-2.75777c-1.18647,-8.9448 -5.46754,-17.93583 -5.38678,-26.88142c0.05476,-6.06459 1.08478,-10.02462 0.36332,-15.85412c-0.83221,-6.72426 -3.50336,-13.4721 -3.9227,-20.21936c-0.28558,-4.5949 1.08327,-9.07236 0.23985,-13.68366c0,0 -0.83827,-4.77199 8.15796,-4.82327c8.99622,-0.05128 9.83451,4.72071 9.83451,4.72071c0.82318,4.84632 -0.47038,9.52111 -0.16706,14.34216c0.41242,6.5548 3.06505,13.11706 3.86496,19.65103c0.84935,6.93775 -0.20604,9.15366 -0.30273,16.49727c-0.11737,8.91521 4.26084,17.93166 5.38604,26.85896c-0.06078,1.07716 -0.12155,2.15432 -0.18233,3.23149l-2.11854,3.31002c0,0 -3.61766,4.20145 -11.89699,1.9382z" fill="#448f21"/><path d="M315.8127,217.93662l0.2145,-3.28822c0.28456,-0.96083 0.56912,-1.92166 0.85368,-2.88249c1.98679,-7.08967 -0.40662,-14.08018 -0.68308,-21.25934c-0.14303,-3.71405 1.31664,-7.17369 2.55306,-10.75049c1.83041,-5.29506 3.80345,-10.60181 7.01193,-15.65502c1.52872,-2.40767 4.59582,-5.83589 3.46479,-8.67213c-1.15033,-2.88463 -4.78823,-5.50637 -5.74439,-8.4025c-0.52402,-1.5872 0.02863,-3.17598 0.04295,-4.76394c0,0 0.28405,-4.7415 9.31478,-4.2005c9.03074,0.541 8.74669,5.2825 8.74669,5.2825c-0.80722,5.21627 6.2067,9.98107 5.4182,15.56712c-0.73953,5.23911 -5.18718,9.35623 -7.40598,14.34904c-2.04037,4.59134 -4.30401,10.41971 -5.19439,15.36387c-1.50533,8.35893 2.62914,16.89357 0.34575,25.32772c-0.24424,0.78846 -0.48849,1.57691 -0.73273,2.36536l-0.14431,2.70105c0,0 -0.28405,4.7415 -9.31478,4.2005c-9.03073,-0.541 -8.74668,-5.2825 -8.74668,-5.2825z" fill="#39940f"/><path d="M338.63851,220.63467l0.71542,-2.09519c0.50163,-1.95183 0.83746,-3.92576 0.95638,-5.91079c-0.4389,-3.37389 -0.85236,-8.47519 -2.21046,-11.91178c-2.13029,-5.39063 -4.93361,-9.77721 -5.06864,-15.30616c-0.14753,-6.04123 3.09198,-11.38999 4.23251,-17.28387c1.9139,-9.89035 -2.01106,-18.94861 -5.12024,-28.75604c0,0 -1.49254,-4.75552 7.41852,-5.15492c8.91107,-0.39938 10.40361,4.35613 10.40361,4.35613c1.16038,3.74069 3.51599,7.35828 4.4761,11.10714c1.69036,6.60025 2.04517,13.70651 0.79776,20.19919c-1.06803,5.55898 -4.21347,10.6103 -4.13803,16.27564c0.06509,4.88812 2.8027,8.52062 4.66422,13.32708c1.72213,4.44659 2.04166,9.30684 2.61197,13.75586c-0.14719,2.45703 -0.50394,4.90495 -1.10841,7.32274l-0.83112,2.48719c0,0 -1.55834,4.61733 -10.45813,3.41122c-8.8998,-1.20611 -7.34147,-5.82344 -7.34147,-5.82344z" fill="#28670a"/><path d="M297.89505,219.96624l-1.70822,-3.53926c0.06825,-1.07672 0.1365,-2.15343 0.20474,-3.23015c2.18294,-8.72912 7.60627,-17.15839 8.55407,-26.02385c0.78072,-7.30262 -0.00257,-9.62869 1.66895,-16.41543c1.57425,-6.39173 4.99135,-12.59039 6.18335,-19.04907c0.87672,-4.75036 0.1505,-9.54614 1.54637,-14.25954c0,0 1.40198,-4.63778 10.32774,-3.51285c8.92577,1.12493 7.52379,5.76272 7.52379,5.76272c-1.38793,4.47763 -0.56339,9.08648 -1.39549,13.61443c-1.22186,6.64894 -4.6795,13.02963 -6.30852,19.60645c-1.41226,5.70168 -0.86237,9.75636 -1.53203,15.78411c-0.98778,8.89127 -6.31162,17.30689 -8.55749,26.04607c-0.05135,0.91971 -0.10269,1.8394 -0.15404,2.75911l0.62739,-0.06002c0,0 3.0902,4.60329 -5.40013,5.86194c-8.49032,1.25865 -11.58051,-3.34465 -11.58051,-3.34465z" fill="#448f21"/><path d="M348.96216,227.26898l0.01993,-0.33273c0.77639,-12.95999 1.3873,-25.83248 -0.16062,-38.89909c-0.67625,-5.70856 -3.33607,-11.44881 -3.46361,-17.15527c-0.23097,-10.33462 0.49743,-20.54697 -0.66791,-30.92792c0,0 -0.53472,-4.77101 8.48464,-4.66151c9.01936,0.1095 9.55408,4.88051 9.55408,4.88051c1.17415,10.49246 0.52855,20.81972 0.69443,31.26485c0.08783,5.53137 2.75181,11.11096 3.41539,16.64991c1.60677,13.41206 1.00194,26.62821 0.20505,39.93051l-0.01993,0.33273c0,0 -0.28405,4.7415 -9.31478,4.2005c-9.03073,-0.541 -8.74668,-5.2825 -8.74668,-5.2825z" fill="#275313"/></g><g stroke="none"><path d="M306.87459,221.1579c-9.03073,-0.541 -8.74668,-5.2825 -8.74668,-5.2825l0.17918,-2.69896c-0.14836,-0.81197 -0.29673,-1.62395 -0.44509,-2.43592c-1.26016,-8.64644 3.86366,-16.62644 3.36702,-25.10531c-0.29376,-5.0151 -1.84539,-11.07202 -3.32304,-15.87411c-1.60685,-5.222 -5.53118,-9.84065 -5.63995,-15.13059c-0.11597,-5.64022 7.41663,-9.5336 7.23793,-14.80891c0,0 0.28405,-4.7415 9.31478,-4.2005c9.03073,0.541 8.74668,5.2825 8.74668,5.2825c-0.17537,1.57834 0.18365,3.2217 -0.5261,4.735c-1.29508,2.76128 -5.21995,4.92996 -6.70644,7.65662c-1.46155,2.68094 1.17434,6.4508 2.40469,9.02376c2.58227,5.40012 3.90765,10.90447 5.09281,16.38018c0.80057,3.69883 1.83676,7.30799 1.25136,10.97839c-1.13157,7.09481 -4.34242,13.74959 -3.21623,21.02575c0.16781,0.98794 0.33563,1.97586 0.50344,2.96378l-0.1796,3.2903c0,0 -0.28405,4.7415 -9.31478,4.2005z" fill="#39940f"/><path d="M321.83958,223.04978c-8.27933,-2.26325 -4.66168,-6.46471 -4.66168,-6.46471l0.61574,0.13449c0.05882,-0.91925 0.11764,-1.83851 0.17647,-2.75777c-1.18647,-8.9448 -5.46754,-17.93583 -5.38678,-26.88142c0.05476,-6.06459 1.08478,-10.02462 0.36332,-15.85412c-0.83221,-6.72425 -3.50336,-13.4721 -3.92271,-20.21935c-0.28557,-4.5949 1.08328,-9.07236 0.23985,-13.68366c0,0 -0.83827,-4.77199 8.15796,-4.82327c8.99622,-0.05129 9.8345,4.7207 9.8345,4.7207c0.82317,4.84633 -0.47038,9.52111 -0.16706,14.34215c0.41241,6.5548 3.06505,13.11707 3.86497,19.65103c0.84934,6.93775 -0.20604,9.15366 -0.30273,16.49726c-0.11737,8.91521 4.26084,17.93166 5.38604,26.85896c-0.06078,1.07716 -0.12155,2.15432 -0.18233,3.23149l-2.11853,3.31002c0,0 -3.61766,4.20145 -11.89699,1.9382z" fill="#448f21"/><path d="M315.8127,217.93662l0.2145,-3.28821c0.28456,-0.96083 0.56911,-1.92166 0.85368,-2.88249c1.98679,-7.08968 -0.40662,-14.08019 -0.68307,-21.25934c-0.14303,-3.71405 1.31663,-7.17369 2.55306,-10.75049c1.8304,-5.29506 3.80344,-10.60181 7.01193,-15.65502c1.52872,-2.40767 4.59583,-5.83589 3.46479,-8.67213c-1.15033,-2.88463 -4.78823,-5.50637 -5.7444,-8.40251c-0.52402,-1.5872 0.02863,-3.17598 0.04295,-4.76394c0,0 0.28405,-4.7415 9.31478,-4.2005c9.03073,0.541 8.74668,5.2825 8.74668,5.2825c-0.80722,5.21627 6.2067,9.98108 5.41822,15.56711c-0.73953,5.23912 -5.18719,9.35623 -7.40598,14.34905c-2.04037,4.59133 -4.30402,10.4197 -5.19439,15.36386c-1.50533,8.35893 2.62914,16.89357 0.34575,25.32772c-0.24424,0.78846 -0.48848,1.57692 -0.73272,2.36536l-0.1443,2.70104c0,0 -0.28405,4.7415 -9.31478,4.2005c-9.03073,-0.541 -8.74668,-5.2825 -8.74668,-5.2825z" fill="#39940f"/><path d="M338.63851,220.63467l0.71542,-2.0952c0.50163,-1.95183 0.83746,-3.92576 0.95638,-5.91079c-0.4389,-3.3739 -0.85236,-8.47519 -2.21045,-11.91178c-2.13029,-5.39064 -4.93361,-9.77722 -5.06864,-15.30617c-0.14753,-6.04122 3.09198,-11.38999 4.23251,-17.28387c1.9139,-9.89035 -2.01106,-18.94861 -5.12023,-28.75604c0,0 -1.49254,-4.75552 7.41852,-5.15492c8.91107,-0.39938 10.40361,4.35613 10.40361,4.35613c1.16038,3.74069 3.51599,7.35828 4.4761,11.10714c1.69036,6.60025 2.04517,13.70651 0.79776,20.19919c-1.06803,5.55898 -4.21347,10.6103 -4.13803,16.27564c0.0651,4.88813 2.80269,8.52061 4.66422,13.32708c1.72213,4.44659 2.04166,9.30684 2.61198,13.75586c-0.14719,2.45702 -0.50394,4.90495 -1.10841,7.32274l-0.83112,2.48719c0,0 -1.55834,4.61733 -10.45813,3.41122c-8.8998,-1.20611 -7.34147,-5.82344 -7.34147,-5.82344z" fill="#54660a"/><path d="M297.89505,219.96624l-1.70821,-3.53926c0.06825,-1.07672 0.13651,-2.15343 0.20475,-3.23015c2.18293,-8.72912 7.60627,-17.15839 8.55407,-26.02385c0.78072,-7.30262 -0.00258,-9.62869 1.66896,-16.41542c1.57424,-6.39173 4.99135,-12.59039 6.18336,-19.04907c0.87672,-4.75036 0.1505,-9.54614 1.54637,-14.25954c0,0 1.40198,-4.63778 10.32773,-3.51284c8.92577,1.12493 7.52379,5.76272 7.52379,5.76272c-1.38793,4.47762 -0.5634,9.08648 -1.39549,13.61443c-1.22186,6.64894 -4.6795,13.02963 -6.30853,19.60644c-1.41225,5.70168 -0.86237,9.75637 -1.53202,15.78412c-0.98779,8.89126 -6.31162,17.30689 -8.55749,26.04607c-0.05135,0.91971 -0.10269,1.8394 -0.15403,2.75911l0.62739,-0.06002c0,0 3.0902,4.60329 -5.40013,5.86194c-8.49032,1.25865 -11.58051,-3.34465 -11.58051,-3.34465z" fill="#448f21"/><path d="M348.96216,227.26898l0.01993,-0.33273c0.77639,-12.95999 1.3873,-25.83248 -0.16063,-38.89909c-0.67626,-5.70856 -3.33607,-11.44881 -3.4636,-17.15527c-0.23097,-10.33462 0.49743,-20.54697 -0.66791,-30.92792c0,0 -0.53472,-4.77101 8.48464,-4.66151c9.01936,0.1095 9.55408,4.88051 9.55408,4.88051c1.17415,10.49247 0.52856,20.81972 0.69443,31.26485c0.08783,5.53136 2.75181,11.11096 3.41539,16.64991c1.60677,13.41206 1.00195,26.62822 0.20506,39.93051l-0.01993,0.33273c0,0 -0.28405,4.7415 -9.31478,4.2005c-9.03073,-0.541 -8.74668,-5.2825 -8.74668,-5.2825z" fill="#544e13"/></g></g><g stroke-linecap="butt"><path d="M286.35186,319.07226l15.14285,-131.8421l37.78325,-0.15789l13.57389,132z" fill="#4cc114" stroke="#000000" stroke-width="0"/><path d="M294.36074,249.34246c2.44674,-21.30271 7.13397,-62.1123 7.13397,-62.1123l37.78325,-0.15789c0,0 4.24137,41.24545 6.4436,62.66116c0.0147,0.14299 -51.38554,-0.17575 -51.36082,-0.39097z" fill="#70b012" stroke="#000000" stroke-width="0"/><path d="M295.90586,235.88976c2.11119,-18.38116 5.58885,-48.6596 5.58885,-48.6596l37.78325,-0.15789c0,0 3.16673,30.79505 5.07534,49.35543c0.00135,0.01317 -48.45209,-0.49745 -48.44744,-0.53793z" fill="#84930f" stroke="#000000" stroke-width="0"/><path d="M297.80388,219.3646l3.69083,-32.13444l37.78325,-0.15789l3.28963,31.99021z" fill="#7a6c00" stroke="#000000" stroke-width="0"/><path d="M298.59344,221.41986c0,-0.21325 0.0534,-0.41403 0.14756,-0.58969c-0.46319,-0.31484 -0.76744,-0.84606 -0.76744,-1.44834c0,-0.9665 0.7835,-1.75 1.75,-1.75c0.95734,0 1.73514,0.76873 1.74979,1.72258c0.21187,-0.16514 0.47834,-0.26351 0.76778,-0.26351c0.08306,0 0.16423,0.0081 0.24276,0.02356c0.21741,-0.7192 0.88525,-1.24286 1.67539,-1.24286c0.84394,0 1.54835,0.59739 1.71343,1.39238c0.21736,-0.18282 0.49789,-0.29296 0.80414,-0.29296c0.69036,0 1.25,0.55964 1.25,1.25c0,0.69036 -0.55964,1.25 -1.25,1.25c-0.51569,0 -0.95845,-0.31228 -1.14948,-0.75806c-0.32067,0.40145 -0.81434,0.65864 -1.36809,0.65864c-0.34123,0 -0.65965,-0.09766 -0.92883,-0.26656c-0.22862,0.29556 -0.58674,0.48587 -0.98932,0.48587c-0.61327,0 -1.12339,-0.44164 -1.22966,-1.02423c-0.04485,0.04873 -0.09243,0.0949 -0.1425,0.13829c0.14149,0.20259 0.22448,0.44905 0.22448,0.71491c0,0.69036 -0.55964,1.25 -1.25,1.25c-0.69036,0 -1.25,-0.55964 -1.25,-1.25z" fill="#7a6c00" stroke="none" stroke-width="0.5"/><path d="M313.42104,221.18009c0,0.41421 -0.33579,0.75 -0.75,0.75c-0.28123,0 -0.52631,-0.15479 -0.65468,-0.38382c-0.23582,0.11835 -0.50209,0.18498 -0.78392,0.18498c-0.49496,0 -0.94193,-0.20549 -1.26025,-0.5358c-0.09557,0.0234 -0.19546,0.0358 -0.29824,0.0358c-0.69036,0 -1.25,-0.55964 -1.25,-1.25c0,-0.69036 0.55964,-1.25 1.25,-1.25c0.10278,0 0.20267,0.01241 0.29824,0.0358c0.31832,-0.33032 0.76529,-0.5358 1.26025,-0.5358c0.9665,0 1.75,0.7835 1.75,1.75c0,0.16966 -0.02414,0.33368 -0.06918,0.48881c0.29536,0.10073 0.50779,0.38057 0.50779,0.71003z" fill="#7a6c00" stroke="none" stroke-width="0.5"/><path d="M320.41235,220.94032c0,-0.58465 0.40138,-1.07555 0.9436,-1.21217c0.06807,-0.90426 0.82333,-1.61678 1.74501,-1.61678c0.64443,0 1.20751,0.34833 1.51122,0.86699c0.81745,0.1473 1.43762,0.86232 1.43762,1.7222c0,0.9665 -0.7835,1.75 -1.75,1.75c-0.64443,0 -1.20751,-0.34833 -1.51122,-0.86699c-0.01627,-0.00293 -0.03247,-0.00609 -0.04858,-0.00947c-0.21735,0.36878 -0.6186,0.61623 -1.07765,0.61623c-0.69036,0 -1.25,-0.55964 -1.25,-1.25z" fill="#7a6c00" stroke="none" stroke-width="0.5"/><path d="M334.19902,222.37893c0,-0.61792 0.44836,-1.13111 1.0375,-1.23201c-0.46681,-0.18125 -0.79773,-0.63481 -0.79773,-1.16567c0,-0.69036 0.55964,-1.25 1.25,-1.25c0.15358,0 0.30069,0.0277 0.43661,0.07837c0.30983,-0.49156 0.85754,-0.81814 1.48153,-0.81814c0.75535,0 1.39893,0.47856 1.64408,1.14902c0.16645,-0.79319 0.87001,-1.38879 1.71268,-1.38879c0.9665,0 1.75,0.7835 1.75,1.75c0,0.9665 -0.7835,1.75 -1.75,1.75c-0.75535,0 -1.39893,-0.47856 -1.64408,-1.14902c-0.16645,0.79319 -0.87001,1.38879 -1.71268,1.38879c-0.46772,0 -0.89259,-0.18349 -1.20654,-0.48242c-0.14663,0.10171 -0.31607,0.17285 -0.4991,0.2042c0.46681,0.18125 0.79773,0.63481 0.79773,1.16567c0,0.69036 -0.55964,1.25 -1.25,1.25c-0.69036,0 -1.25,-0.55964 -1.25,-1.25z" fill="#7a6c00" stroke="none" stroke-width="0.5"/><path d="M325.90656,219.50171c0,-0.9665 0.7835,-1.75 1.75,-1.75c0.9665,0 1.75,0.7835 1.75,1.75c0,0.9665 -0.7835,1.75 -1.75,1.75c-0.9665,0 -1.75,-0.7835 -1.75,-1.75z" fill="#7a6c00" stroke="none" stroke-width="0.5"/><path d="M313.19884,218.90229c0,-0.9665 0.7835,-1.75 1.75,-1.75c0.9665,0 1.75,0.7835 1.75,1.75c0,0.9665 -0.7835,1.75 -1.75,1.75c-0.9665,0 -1.75,-0.7835 -1.75,-1.75z" fill="#7a6c00" stroke="none" stroke-width="0.5"/><path d="M329.76331,220.58067c0,-0.63528 0.47391,-1.15988 1.08749,-1.23953c-0.01905,-0.10342 -0.029,-0.21003 -0.029,-0.31896c0,-0.9665 0.7835,-1.75 1.75,-1.75c0.9665,0 1.75,0.7835 1.75,1.75c0,0.9665 -0.7835,1.75 -1.75,1.75c-0.10893,0 -0.21554,-0.00995 -0.31896,-0.029c-0.07966,0.61358 -0.60425,1.08749 -1.23953,1.08749c-0.69036,0 -1.25,-0.55964 -1.25,-1.25z" fill="#7a6c00" stroke="none" stroke-width="0.5"/><path d="M318.25444,224.8965c0,-0.69036 0.55964,-1.25 1.25,-1.25c0.69036,0 1.25,0.55964 1.25,1.25c0,0.69036 -0.55964,1.25 -1.25,1.25c-0.69036,0 -1.25,-0.55964 -1.25,-1.25z" fill="#7a6c00" stroke="none" stroke-width="0.5"/><path d="M306.02626,224.8965c0,-0.69036 0.55964,-1.25 1.25,-1.25c0.69036,0 1.25,0.55964 1.25,1.25c0,0.69036 -0.55964,1.25 -1.25,1.25c-0.69036,0 -1.25,-0.55964 -1.25,-1.25z" fill="#7a6c00" stroke="none" stroke-width="0.5"/><path d="M317.53513,218.90229c0,-0.69036 0.55964,-1.25 1.25,-1.25c0.69036,0 1.25,0.55964 1.25,1.25c0,0.69036 -0.55964,1.25 -1.25,1.25c-0.69036,0 -1.25,-0.55964 -1.25,-1.25z" fill="#7a6c00" stroke="none" stroke-width="0.5"/><path d="M302.4502,228.85267c0,-0.41421 0.33579,-0.75 0.75,-0.75c0.41421,0 0.75,0.33579 0.75,0.75c0,0.41421 -0.33579,0.75 -0.75,0.75c-0.41421,0 -0.75,-0.33579 -0.75,-0.75z" fill="#7a6c00" stroke="none" stroke-width="0.5"/><path d="M311.92104,227.65383c0,-0.41421 0.33579,-0.75 0.75,-0.75c0.41421,0 0.75,0.33579 0.75,0.75c0,0.41421 -0.33579,0.75 -0.75,0.75c-0.41421,0 -0.75,-0.33579 -0.75,-0.75z" fill="#7a6c00" stroke="none" stroke-width="0.5"/><path d="M321.75154,227.41406c0,-0.41421 0.33579,-0.75 0.75,-0.75c0.41421,0 0.75,0.33579 0.75,0.75c0,0.41421 -0.33579,0.75 -0.75,0.75c-0.41421,0 -0.75,-0.33579 -0.75,-0.75z" fill="#7a6c00" stroke="none" stroke-width="0.5"/><path d="M327.14633,223.45789c0,-0.41421 0.33579,-0.75 0.75,-0.75c0.41421,0 0.75,0.33579 0.75,0.75c0,0.41421 -0.33579,0.75 -0.75,0.75c-0.41421,0 -0.75,-0.33579 -0.75,-0.75z" fill="#7a6c00" stroke="none" stroke-width="0.5"/><path d="M336.13763,226.69476c0,-0.41421 0.33579,-0.75 0.75,-0.75c0.41421,0 0.75,0.33579 0.75,0.75c0,0.41421 -0.33579,0.75 -0.75,0.75c-0.41421,0 -0.75,-0.33579 -0.75,-0.75z" fill="#7a6c00" stroke="none" stroke-width="0.5"/><path d="M339.85404,231.96966c0,-0.41421 0.33579,-0.75 0.75,-0.75c0.41421,0 0.75,0.33579 0.75,0.75c0,0.41421 -0.33579,0.75 -0.75,0.75c-0.41421,0 -0.75,-0.33579 -0.75,-0.75z" fill="#7a6c00" stroke="none" stroke-width="0.5"/><path d="M299.07298,237.7241c0,-0.07083 0.00589,-0.14028 0.01721,-0.2079c-0.05402,-0.04456 -0.10531,-0.0923 -0.15361,-0.14293c-0.32059,0.4035 -0.81555,0.66222 -1.37094,0.66222c-0.9665,0 -1.75,-0.7835 -1.75,-1.75c0,-0.9665 0.7835,-1.75 1.75,-1.75c0.49822,0 0.94781,0.2082 1.26651,0.54233c0.32059,-0.4035 0.81555,-0.66222 1.37094,-0.66222c0.9665,0 1.75,0.7835 1.75,1.75c0,0.44709 -0.16766,0.85501 -0.44353,1.16434c0.04114,0.12391 0.06341,0.25643 0.06341,0.39415c0,0.69036 -0.55964,1.25 -1.25,1.25c-0.69036,0 -1.25,-0.55964 -1.25,-1.25z" fill="#84930f" stroke="none" stroke-width="0.5"/><path d="M341.92277,239.81329c-0.53513,0 -0.99172,-0.33627 -1.17,-0.80903c-0.42499,-0.31928 -0.69989,-0.82756 -0.69989,-1.40004c0,-0.53481 0.2399,-1.01358 0.61796,-1.33458c0.12372,-0.84533 0.8518,-1.49438 1.73146,-1.49438c0.51375,0 0.97579,0.22138 1.29594,0.57395c0.35257,0.32014 0.57395,0.78219 0.57395,1.29594c0,0.61364 -0.31584,1.15352 -0.79383,1.46593c-0.06597,0.21837 -0.17347,0.41872 -0.3133,0.59187c-0.06944,0.62462 -0.59914,1.11035 -1.24229,1.11035z" fill="#84930f" stroke="none" stroke-width="0.5"/><path d="M337.48705,235.63491c0.69036,0 1.25,0.55964 1.25,1.25c0,0.69036 -0.55964,1.25 -1.25,1.25c-0.16961,0 -0.33133,-0.03378 -0.4788,-0.09498c-0.28964,0.56668 -0.87913,0.95463 -1.55923,0.95463c-0.40263,0 -0.7735,-0.13597 -1.0692,-0.3645c-0.31415,0.30009 -0.73985,0.48438 -1.2086,0.48438c-0.9665,0 -1.75,-0.7835 -1.75,-1.75c0,-0.81102 0.5517,-1.49318 1.30027,-1.69167c0.29925,-0.53547 0.87169,-0.89752 1.52868,-0.89752c0.58756,0 1.10749,0.28956 1.42487,0.73377c0.3713,0.04788 0.70613,0.21213 0.96675,0.45498c0.22252,-0.20435 0.51932,-0.3291 0.84526,-0.3291z" fill="#84930f" stroke="none" stroke-width="0.5"/><path d="M327.6054,239.16271c0,-0.17607 0.0364,-0.34364 0.10209,-0.49559c-0.24621,-0.08119 -0.46825,-0.21556 -0.65253,-0.3895c-0.32076,0.36598 -0.79167,0.59706 -1.31655,0.59706c-0.39881,0 -0.76646,-0.1334 -1.06076,-0.35802c0.02156,0.09197 0.03296,0.18785 0.03296,0.2864c0,0.69036 -0.55964,1.25 -1.25,1.25c-0.69036,0 -1.25,-0.55964 -1.25,-1.25c0,-0.32604 0.12483,-0.62292 0.32929,-0.84547c-0.16367,0.05064 -0.3376,0.0779 -0.5179,0.0779c-0.03864,0 -0.07699,-0.00125 -0.11501,-0.00372c-0.28814,0.57111 -0.88001,0.96279 -1.56337,0.96279c-0.15514,0 -0.30557,-0.02019 -0.4488,-0.05808c0.01341,0.07337 0.02042,0.14898 0.02042,0.22623c0,0.69036 -0.55964,1.25 -1.25,1.25c-0.69036,0 -1.25,-0.55964 -1.25,-1.25c0,-0.69036 0.55964,-1.25 1.25,-1.25c0.02047,0 0.04083,0.00049 0.06106,0.00147c-0.08549,-0.20627 -0.13268,-0.43243 -0.13268,-0.66961c0,-0.9665 0.7835,-1.75 1.75,-1.75c0.03864,0 0.07699,0.00125 0.11501,0.00372c0.28814,-0.57111 0.88001,-0.96279 1.56337,-0.96279c0.9665,0 1.75,0.7835 1.75,1.75c0,0.51323 -0.22093,0.97485 -0.57287,1.29496c0.08433,-0.01795 0.1718,-0.02739 0.26148,-0.02739c0.23123,0 0.4478,0.06279 0.63359,0.17224c-0.06844,-0.18732 -0.10579,-0.38961 -0.10579,-0.60062c0,-0.9665 0.7835,-1.75 1.75,-1.75c0.26984,0 0.52541,0.06107 0.75365,0.17015c0.30047,-0.53104 0.87045,-0.88945 1.52415,-0.88945c0.85055,0 1.55938,0.60679 1.71721,1.4111c0.17258,0.27117 0.27256,0.59307 0.27256,0.93832c0,0.43602 -0.15946,0.8348 -0.42324,1.14119c0.31647,0.2268 0.52266,0.59768 0.52266,1.01672c0,0.69036 -0.55964,1.25 -1.25,1.25c-0.69036,0 -1.25,-0.55964 -1.25,-1.25z" fill="#84930f" stroke="none" stroke-width="0.5"/><path d="M307.34498,238.92294c0,-0.69036 0.55964,-1.25 1.25,-1.25c0.08968,0 0.17715,0.00944 0.26148,0.02739c-0.35194,-0.32011 -0.57287,-0.78173 -0.57287,-1.29496c0,-0.9665 0.7835,-1.75 1.75,-1.75c0.18546,0 0.36419,0.02885 0.53193,0.08231c0.32002,-0.41465 0.82193,-0.68173 1.38622,-0.68173c0.9665,0 1.75,0.7835 1.75,1.75c0,0.9665 -0.7835,1.75 -1.75,1.75c-0.18546,0 -0.36419,-0.02885 -0.53193,-0.08231c-0.32002,0.41465 -0.82193,0.68173 -1.38622,0.68173c-0.1803,0 -0.35424,-0.02727 -0.5179,-0.0779c0.20447,0.22255 0.32929,0.51943 0.32929,0.84547c0,0.69036 -0.55964,1.25 -1.25,1.25c-0.69036,0 -1.25,-0.55964 -1.25,-1.25z" fill="#84930f" stroke="none" stroke-width="0.5"/><path d="M306.48823,237.24456c0,0.69036 -0.55964,1.25 -1.25,1.25c-0.33427,0 -0.6379,-0.13121 -0.86219,-0.34494c-0.89967,-0.0727 -1.60712,-0.82586 -1.60712,-1.74425c0,-0.78072 0.51124,-1.44203 1.21721,-1.66742c0.18208,-0.12935 0.38997,-0.22473 0.61444,-0.27692c0.3209,-0.39354 0.80958,-0.64485 1.35696,-0.64485c0.9665,0 1.75,0.7835 1.75,1.75c0,0.78151 -0.51227,1.44336 -1.21935,1.6681c0.00003,0.00342 0.00004,0.00685 0.00004,0.01028z" fill="#84930f" stroke="none" stroke-width="0.5"/><path d="M314.03803,236.40537c0,-0.9665 0.7835,-1.75 1.75,-1.75c0.9665,0 1.75,0.7835 1.75,1.75c0,0.9665 -0.7835,1.75 -1.75,1.75c-0.9665,0 -1.75,-0.7835 -1.75,-1.75z" fill="#84930f" stroke="none" stroke-width="0.5"/><path d="M310.82162,241.56039c0,-0.69036 0.55964,-1.25 1.25,-1.25c0.69036,0 1.25,0.55964 1.25,1.25c0,0.69036 -0.55964,1.25 -1.25,1.25c-0.69036,0 -1.25,-0.55964 -1.25,-1.25z" fill="#84930f" stroke="none" stroke-width="0.5"/><path d="M318.54536,241.05016c0.41421,0 0.75,0.33579 0.75,0.75c0,0.41421 -0.33579,0.75 -0.75,0.75c-0.18039,0 -0.34591,-0.06369 -0.47529,-0.1698c-0.14823,0.52491 -0.63074,0.90957 -1.20308,0.90957c-0.69036,0 -1.25,-0.55964 -1.25,-1.25c0,-0.69036 0.55964,-1.25 1.25,-1.25c0.44657,0 0.83844,0.23417 1.05952,0.58642c0.13516,-0.19698 0.36192,-0.32619 0.61886,-0.32619z" fill="#84930f" stroke="none" stroke-width="0.5"/><path d="M333.23995,241.44051c0,-0.69036 0.55964,-1.25 1.25,-1.25c0.69036,0 1.25,0.55964 1.25,1.25c0,0.69036 -0.55964,1.25 -1.25,1.25c-0.69036,0 -1.25,-0.55964 -1.25,-1.25z" fill="#84930f" stroke="none" stroke-width="0.5"/><path d="M301.13147,241.80016c0,-0.41421 0.33579,-0.75 0.75,-0.75c0.41421,0 0.75,0.33579 0.75,0.75c0,0.41421 -0.33579,0.75 -0.75,0.75c-0.41421,0 -0.75,-0.33579 -0.75,-0.75z" fill="#84930f" stroke="none" stroke-width="0.5"/><path d="M310.84209,244.91714c0,-0.41421 0.33579,-0.75 0.75,-0.75c0.41421,0 0.75,0.33579 0.75,0.75c0,0.41421 -0.33579,0.75 -0.75,0.75c-0.41421,0 -0.75,-0.33579 -0.75,-0.75z" fill="#84930f" stroke="none" stroke-width="0.5"/><path d="M317.31583,246.71541c0,-0.41421 0.33579,-0.75 0.75,-0.75c0.41421,0 0.75,0.33579 0.75,0.75c0,0.41421 -0.33579,0.75 -0.75,0.75c-0.41421,0 -0.75,-0.33579 -0.75,-0.75z" fill="#84930f" stroke="none" stroke-width="0.5"/><path d="M325.1083,243.47853c0,-0.41421 0.33579,-0.75 0.75,-0.75c0.41421,0 0.75,0.33579 0.75,0.75c0,0.41421 -0.33579,0.75 -0.75,0.75c-0.41421,0 -0.75,-0.33579 -0.75,-0.75z" fill="#84930f" stroke="none" stroke-width="0.5"/><path d="M330.62296,245.51656c0,-0.41421 0.33579,-0.75 0.75,-0.75c0.41421,0 0.75,0.33579 0.75,0.75c0,0.41421 -0.33579,0.75 -0.75,0.75c-0.41421,0 -0.75,-0.33579 -0.75,-0.75z" fill="#84930f" stroke="none" stroke-width="0.5"/><path d="M339.85404,247.31483c0,-0.41421 0.33579,-0.75 0.75,-0.75c0.41421,0 0.75,0.33579 0.75,0.75c0,0.41421 -0.33579,0.75 -0.75,0.75c-0.41421,0 -0.75,-0.33579 -0.75,-0.75z" fill="#84930f" stroke="none" stroke-width="0.5"/><path d="M342.4023,252.28123c-0.2096,0 -0.40716,-0.05159 -0.58066,-0.14276c-0.33723,0.25916 -0.75942,0.41323 -1.2176,0.41323c-0.87907,0 -1.62567,-0.56714 -1.89388,-1.35548c-0.36508,0.39143 -0.8854,0.63618 -1.46288,0.63618c-1.10457,0 -2,-0.89543 -2,-2c0,-1.10457 0.89543,-2 2,-2c0.87907,0 1.62567,0.56714 1.89388,1.35548c0.36508,-0.39143 0.8854,-0.63618 1.46288,-0.63618c0.59656,0 1.13212,0.26119 1.49855,0.67545c0.36644,-0.41426 0.90199,-0.67545 1.49855,-0.67545c1.10457,0 2,0.89543 2,2c0,1.10457 -0.89543,2 -2,2c-0.37476,0 -0.72544,-0.10307 -1.02525,-0.28242c-0.05673,0.00788 -0.11469,0.01196 -0.17359,0.01196z" fill="#70b012" stroke="none" stroke-width="0.5"/><path d="M327.36563,250.43181c0,-0.69036 0.55964,-1.25 1.25,-1.25c0.11675,0 0.22975,0.016 0.33695,0.04594c0.21667,-0.87034 1.00345,-1.51524 1.94085,-1.51524c0.71327,0 1.33932,0.37338 1.69338,0.93534c0.80396,0.25927 1.38557,1.01364 1.38557,1.90385c0,1.10457 -0.89543,2 -2,2c-0.71327,0 -1.33932,-0.37338 -1.69338,-0.93534c-0.25909,-0.08355 -0.49508,-0.21852 -0.69596,-0.39289c-0.22924,0.2798 -0.57747,0.45835 -0.96741,0.45835c-0.69036,0 -1.25,-0.55964 -1.25,-1.25z" fill="#70b012" stroke="none" stroke-width="0.5"/><path d="M313.45907,251.51077c0,-0.09118 0.00976,-0.18007 0.0283,-0.2657c-0.36205,0.36283 -0.86268,0.58732 -1.41575,0.58732c-0.52176,0 -0.99685,-0.19979 -1.35295,-0.52705c-0.06687,0.01106 -0.13554,0.01682 -0.20555,0.01682c-0.35272,0 -0.67132,-0.14609 -0.89859,-0.38107c-0.34419,0.60397 -0.99397,1.01119 -1.73886,1.01119c-1.08612,0 -1.97002,-0.86576 -1.99925,-1.94482c-0.1675,0.79409 -0.80613,1.41451 -1.60979,1.55515c-0.33189,0.24491 -0.7422,0.38967 -1.18632,0.38967c-0.62742,0 -1.18736,-0.28891 -1.55405,-0.74095c-0.20424,0.14529 -0.45402,0.23072 -0.72375,0.23072c-0.23374,0 -0.45249,-0.06415 -0.63961,-0.17581c-0.33884,0.62291 -0.99908,1.04569 -1.75807,1.04569c-0.53524,0 -1.02138,-0.21026 -1.38032,-0.55268c-0.17113,0.04766 -0.3515,0.07314 -0.53783,0.07314c-1.10457,0 -2,-0.89543 -2,-2c0,-1.10457 0.89543,-2 2,-2c0.53524,0 1.02138,0.21026 1.38032,0.55268c0.17113,-0.04766 0.3515,-0.07314 0.53783,-0.07314c0.68754,0 1.29406,0.34693 1.65403,0.87529c0.20782,-0.15406 0.4651,-0.24517 0.74365,-0.24517c0.17601,0 0.34352,0.03638 0.49542,0.10202c0.2805,-0.54938 0.80753,-0.95192 1.43524,-1.06177c0.33189,-0.24491 0.7422,-0.38967 1.18632,-0.38967c1.08612,0 1.97002,0.86576 1.99925,1.94482c0.06,-0.28447 0.18047,-0.54665 0.34732,-0.77247c-0.00003,-0.00384 -0.00005,-0.00768 -0.00005,-0.01153c0,-0.69036 0.55964,-1.25 1.25,-1.25c0.44005,0 0.827,0.22739 1.04974,0.57109c0.50293,0.18489 0.91102,0.56606 1.13142,1.05065c0.17724,-0.15286 0.39786,-0.2568 0.64089,-0.29086c0.34553,-0.59887 0.99247,-1.00193 1.73355,-1.00193c1.10457,0 2,0.89543 2,2c0,0.24022 -0.04235,0.47054 -0.11999,0.68392c0.21018,-0.16033 0.47269,-0.25554 0.75744,-0.25554c0.10619,0 0.20929,0.01324 0.30773,0.03816c-0.01968,-0.1126 -0.02993,-0.22843 -0.02993,-0.34666c0,-1.10457 0.89543,-2 2,-2c1.10457,0 2,0.89543 2,2c0,1.10457 -0.89543,2 -2,2c-0.37964,0 -0.73458,-0.10578 -1.03695,-0.28947c-0.07501,0.61865 -0.60196,1.09797 -1.24085,1.09797c-0.69036,0 -1.25,-0.55964 -1.25,-1.25z" fill="#70b012" stroke="none" stroke-width="0.5"/><path d="M301.59055,254.38799c0,-0.69036 0.55964,-1.25 1.25,-1.25c0.69036,0 1.25,0.55964 1.25,1.25c0,0.69036 -0.55964,1.25 -1.25,1.25c-0.69036,0 -1.25,-0.55964 -1.25,-1.25z" fill="#70b012" stroke="none" stroke-width="0.5"/><path d="M303.74846,252.94938c0,-0.69036 0.55964,-1.25 1.25,-1.25c0.69036,0 1.25,0.55964 1.25,1.25c0,0.69036 -0.55964,1.25 -1.25,1.25c-0.69036,0 -1.25,-0.55964 -1.25,-1.25z" fill="#70b012" stroke="none" stroke-width="0.5"/><path d="M316.57606,253.78857c0,-0.69036 0.55964,-1.25 1.25,-1.25c0.69036,0 1.25,0.55964 1.25,1.25c0,0.69036 -0.55964,1.25 -1.25,1.25c-0.69036,0 -1.25,-0.55964 -1.25,-1.25z" fill="#70b012" stroke="none" stroke-width="0.5"/><path d="M325.78957,251.39089c0,0.69036 -0.55964,1.25 -1.25,1.25c-0.02562,0 -0.05106,-0.00077 -0.0763,-0.00229c0.08162,0.16611 0.12746,0.35298 0.12746,0.55055c0,0.69036 -0.55964,1.25 -1.25,1.25c-0.69036,0 -1.25,-0.55964 -1.25,-1.25c0,-0.69036 0.55964,-1.25 1.25,-1.25c0.02562,0 0.05106,0.00077 0.0763,0.00229c-0.01785,-0.03633 -0.03399,-0.07365 -0.04831,-0.11186c-0.21567,-0.07945 -0.41388,-0.195 -0.58729,-0.33933c-0.31937,0.216 -0.70449,0.34214 -1.11907,0.34214c-1.10457,0 -2,-0.89543 -2,-2c0,-1.10457 0.89543,-2 2,-2c0.48625,0 0.93197,0.17353 1.27861,0.46203c0.31937,-0.216 0.70449,-0.34214 1.11907,-0.34214c1.10457,0 2,0.89543 2,2c0,0.40066 -0.11781,0.7738 -0.32069,1.08668c0.03269,0.11163 0.05023,0.22973 0.05023,0.35193z" fill="#70b012" stroke="none" stroke-width="0.5"/><path d="M334.91833,253.66868c0,-0.69036 0.55964,-1.25 1.25,-1.25c0.69036,0 1.25,0.55964 1.25,1.25c0,0.69036 -0.55964,1.25 -1.25,1.25c-0.69036,0 -1.25,-0.55964 -1.25,-1.25z" fill="#70b012" stroke="none" stroke-width="0.5"/><path d="M336.23705,256.06637c0,-0.69036 0.55964,-1.25 1.25,-1.25c0.69036,0 1.25,0.55964 1.25,1.25c0,0.69036 -0.55964,1.25 -1.25,1.25c-0.69036,0 -1.25,-0.55964 -1.25,-1.25z" fill="#70b012" stroke="none" stroke-width="0.5"/><path d="M300.29228,260.02254c0,-0.41421 0.33579,-0.75 0.75,-0.75c0.41421,0 0.75,0.33579 0.75,0.75c0,0.41421 -0.33579,0.75 -0.75,0.75c-0.41421,0 -0.75,-0.33579 -0.75,-0.75z" fill="#70b012" stroke="none" stroke-width="0.5"/><path d="M307.96487,258.22428c0,-0.41421 0.33579,-0.75 0.75,-0.75c0.41421,0 0.75,0.33579 0.75,0.75c0,0.41421 -0.33579,0.75 -0.75,0.75c-0.41421,0 -0.75,-0.33579 -0.75,-0.75z" fill="#70b012" stroke="none" stroke-width="0.5"/><path d="M313.23977,257.74474c0,-0.41421 0.33579,-0.75 0.75,-0.75c0.41421,0 0.75,0.33579 0.75,0.75c0,0.41421 -0.33579,0.75 -0.75,0.75c-0.41421,0 -0.75,-0.33579 -0.75,-0.75z" fill="#70b012" stroke="none" stroke-width="0.5"/><path d="M321.03224,260.50208c0,-0.41421 0.33579,-0.75 0.75,-0.75c0.41421,0 0.75,0.33579 0.75,0.75c0,0.41421 -0.33579,0.75 -0.75,0.75c-0.41421,0 -0.75,-0.33579 -0.75,-0.75z" fill="#70b012" stroke="none" stroke-width="0.5"/><path d="M332.66099,261.94069c0,-0.41421 0.33579,-0.75 0.75,-0.75c0.41421,0 0.75,0.33579 0.75,0.75c0,0.41421 -0.33579,0.75 -0.75,0.75c-0.41421,0 -0.75,-0.33579 -0.75,-0.75z" fill="#70b012" stroke="none" stroke-width="0.5"/><path d="M337.57624,262.06057c0,-0.41421 0.33579,-0.75 0.75,-0.75c0.41421,0 0.75,0.33579 0.75,0.75c0,0.41421 -0.33579,0.75 -0.75,0.75c-0.41421,0 -0.75,-0.33579 -0.75,-0.75z" fill="#70b012" stroke="none" stroke-width="0.5"/><path d="M342.85114,256.66579c0,-0.41421 0.33579,-0.75 0.75,-0.75c0.41421,0 0.75,0.33579 0.75,0.75c0,0.41421 -0.33579,0.75 -0.75,0.75c-0.41421,0 -0.75,-0.33579 -0.75,-0.75z" fill="#70b012" stroke="none" stroke-width="0.5"/><path d="M328.1054,258.58393c0,-0.41421 0.33579,-0.75 0.75,-0.75c0.41421,0 0.75,0.33579 0.75,0.75c0,0.41421 -0.33579,0.75 -0.75,0.75c-0.41421,0 -0.75,-0.33579 -0.75,-0.75z" fill="#70b012" stroke="none" stroke-width="0.5"/><path d="M293.93843,256.18625c0,-0.41421 0.33579,-0.75 0.75,-0.75c0.41421,0 0.75,0.33579 0.75,0.75c0,0.41421 -0.33579,0.75 -0.75,0.75c-0.41421,0 -0.75,-0.33579 -0.75,-0.75z" fill="#70b012" stroke="none" stroke-width="0.5"/></g><g stroke="#000000" stroke-width="0"><path d="M367.71535,179.44096l1.67411,7.05676l-7.45814,-2.8548z" fill="#000000" stroke-linecap="round"/><path d="M344.72624,122.98621c-1.15555,-0.99755 -1.80004,-2.50594 -1.60654,-4.14869c0.21824,-1.85272 1.44746,-3.41009 3.09888,-4.19546c1.55287,-2.10237 7.42281,0.24357 9.15049,1.13826c6.31026,3.26779 11.83672,11.92749 13.77252,18.52678c6.07123,20.69735 -11.46163,41.73646 -9.37734,62.3982c1.16409,11.53963 8.86616,21.61496 10.36731,33.17876c0.49056,3.77903 -0.10998,10.96546 -6.26585,10.59668c-1.76429,-0.1057 -3.19189,-1.52547 -4.2982,-2.79928c-0.87188,-1.00389 0.0066,-5.23969 0.04505,-5.99503c0.18026,-3.54094 -1.77963,-7.46445 -2.93491,-10.65063c-2.57655,-7.10587 -7.37054,-15.70837 -7.4941,-23.51585c-0.32035,-20.24211 11.14654,-39.20476 9.88317,-59.43078c-0.23834,-3.81569 -5.69086,-10.97808 -8.19648,-12.89898c-0.96125,-0.73692 -2.03728,-0.84109 -3.11765,-0.99161c-0.48,-0.03088 -0.93748,-0.12279 -1.36515,-0.26738c-0.39506,-0.11557 -0.78429,-0.27713 -1.16203,-0.51941c-0.19052,-0.1222 -0.35522,-0.26546 -0.49918,-0.42559z" fill="#9efd71" stroke-linecap="butt"/><path d="M371.15074,113.18431c0.72112,-2.32959 3.07667,-3.98814 5.65593,-3.83363c1.50845,0.09036 2.79636,0.78306 3.63898,1.81927c0.14515,0.1785 0.27708,0.36719 0.39465,0.56474c1.91272,1.91083 4.16357,3.60566 6.23813,5.35743c0.03752,0.03169 0.0481,0.08631 0.08496,0.11868c18.07984,15.88134 11.74173,44.94977 8.15745,66.00722c-0.30152,1.7714 -0.82758,3.51455 -1.11444,5.28748c-0.37746,2.33279 -0.64064,4.67813 -0.82725,7.02285c-0.20431,2.56718 3.13523,6.75933 1.68194,9.26863c-2.46582,4.25759 -4.58965,4.91702 -8.92008,2.76961c-4.12334,-2.04472 -2.64797,-18.03365 -2.40895,-19.94212c0.22328,-1.78288 1.0153,-4.09959 1.20841,-5.53228c1.47152,-10.9173 4.52419,-26.5487 3.51245,-38.75142c-0.47972,-5.78599 -2.05202,-11.99939 -6.15542,-16.24187c-3.07391,-3.17807 -12.30175,-7.52149 -11.33693,-13.29907c0.03664,-0.21936 0.10135,-0.42385 0.19018,-0.61555z" fill="#9efd71" stroke-linecap="butt"/><path d="M352.6745,118.07215c0.3284,-2.78791 2.94602,-4.90709 5.84661,-4.73333c0.45466,0.02724 0.88928,0.10919 1.29772,0.23879c1.1458,-0.22477 2.71128,2.02111 3.32369,2.79877c2.87921,3.65609 5.1075,7.11768 7.30963,11.20595c11.03462,20.48586 -0.53616,41.89325 -2.42831,63.41899c-0.30471,3.46649 -0.1417,7.58365 0.8305,10.9052c0.29092,0.99395 1.8361,3.02335 1.76217,3.65101c-0.19975,1.69575 -0.58199,3.70021 -1.97077,4.82456c-8.74955,7.08349 -10.75004,-8.84408 -11.05801,-12.62459c-0.0989,-1.214 -0.20409,-2.53383 -0.19493,-3.75909c0.13458,-17.99527 9.3855,-34.82862 6.6609,-53.07776c-0.92267,-6.17995 -4.70242,-11.89587 -8.36772,-16.7381c-0.72992,-0.9643 -4.35667,-4.72378 -3.01146,-6.1104z" fill="#67dc31" stroke-linecap="butt"/><path d="M394.13797,171.61947c0.65486,0.92041 0.9782,2.07295 0.83361,3.30051c-0.21824,1.85272 -1.44747,3.4101 -3.09889,4.19546c-0.60066,0.8132 -1.94663,0.74338 -3.10188,0.50519c-0.52466,-0.10818 -1.00997,-0.25109 -1.36828,-0.36177c-4.00276,-1.23661 -4.30864,-6.50205 -4.48665,-10.16255c-0.25032,-5.14706 -0.37008,-12.0773 -1.20131,-17.1413c-1.02762,-6.2605 -3.54848,-12.09578 -4.73909,-18.32109c-2.12233,-11.09697 -0.89863,-14.27733 -7.73127,-24.36169c-1.83925,-2.71457 -4.11101,-6.43528 0.47471,-9.22902c5.16824,-3.14861 7.41317,1.81661 9.4167,4.68121c5.94958,8.50655 6.94071,16.64129 8.27842,26.77905c0.50252,3.80835 1.8478,6.67385 2.78921,10.38451c1.44605,5.69965 2.33693,11.56138 2.87683,17.44551c0.43095,4.69662 0.29026,8.29256 1.05789,12.28597z" fill="#67dc31" stroke-linecap="butt"/><path d="M376.49797,99.14637c1.1397,0.99765 1.77344,2.49599 1.58134,4.12676c-0.00524,0.04444 -0.01107,0.08872 -0.01746,0.13283c0.06892,0.61606 -0.14611,1.16421 -0.54237,1.65427c-0.97969,1.84961 -3.04902,3.08028 -5.28678,2.94623c-2.05018,0.81613 -4.42298,-2.88421 -5.66883,-3.64585c-4.39873,-2.68911 -9.67903,-5.82842 -15.19,-6.16554c-6.22971,-0.38109 -13.64335,0.31962 -19.65066,2.79626c-1.40368,0.5787 -3.62483,2.53211 -5.46353,2.66239c-2.83114,0.2006 -5.375,0.38644 -6.26724,-3.59058c-1.48191,-6.60525 10.67787,-9.33261 15.14111,-10.33923c12.5397,-2.82816 25.43957,-2.08273 35.8096,5.01192c2.33273,1.59594 4.27007,2.712 5.55481,4.41055z" fill="#67dc31" stroke-linecap="butt"/><path d="M372.94936,106.76769c0.74432,0.94782 1.12207,2.17134 0.96792,3.48013c-0.00524,0.04444 -0.01107,0.08872 -0.01746,0.13283c0.04319,0.38614 -0.02517,0.74561 -0.17977,1.08081c5.35582,7.74745 12.9013,19.42777 11.24098,27.73407c-1.22618,6.13438 -1.83858,12.42215 -4.01408,18.35459c-2.22942,6.07951 -5.93874,12.18966 -6.17968,18.74134c-0.32015,8.70604 3.49152,17.83166 5.29595,26.14612c1.87221,8.62677 3.29392,17.48625 5.55318,25.96613c0.74236,2.78638 0.06637,6.00644 -3.89126,6.99982c-7.50899,1.88479 -8.53644,-13.63656 -9.3631,-17.80069c-0.33805,-1.70286 -0.6972,-3.40086 -1.054,-5.09936c-0.52163,-2.48319 -0.99425,-4.97888 -1.58127,-7.4457c-2.17962,-9.15932 -6.39112,-19.38802 -5.50577,-29.03688c1.19555,-13.02954 8.89662,-24.11706 10.17506,-37.37473c0.94703,-9.82093 -8.76288,-18.24406 -13.01752,-25.77262c-0.39283,-0.6951 -0.57248,-1.51754 -0.54927,-2.36109c0.00225,-0.16877 0.01333,-0.33945 0.03361,-0.5116c0.04073,-0.3458 0.11668,-0.6813 0.22401,-1.00342c0.00757,-0.02392 0.01529,-0.04783 0.02317,-0.07167c-3.21844,-2.02427 -8.26008,-3.36542 -11.54568,-3.61511c-4.78769,-0.36384 -9.4866,-1.18871 -14.25596,-0.32414c-2.9188,0.5291 -7.33436,4.78192 -10.20977,2.60271c-1.35717,-1.02857 -2.50882,-2.70977 -2.43735,-4.40872c0.27377,-6.50745 11.24236,-8.59402 16.3098,-8.59368c10.37617,0.0007 29.23783,1.35638 33.97824,12.18085z" fill="#4cc513" stroke-linecap="butt"/><path d="M386.53523,136.60153c1.3491,0.34803 1.53782,3.78588 1.66639,5.02368c0.6738,6.48736 0.0639,13.02473 -0.52643,19.59344c-0.65119,7.24597 -2.46566,14.36299 -3.09277,21.55007c-0.75242,8.62319 3.50786,17.11183 2.54472,25.66101c-0.76845,6.82117 -1.41208,13.65256 -2.40976,20.45749c-0.38907,2.65373 -2.43966,4.93743 -5.84662,4.73333c-3.40971,-0.20426 -4.89317,-2.69968 -4.65738,-5.36259c0.59226,-6.68893 1.63825,-13.35622 2.36055,-20.03969c0.8428,-7.79833 -2.2925,-16.33634 -2.55613,-24.22367c-0.23111,-6.9143 2.37657,-16.80706 3.13322,-23.22729c0.58633,-4.97503 1.05892,-10.71352 0.74265,-15.74356c-0.11898,-1.89233 -0.92309,-4.2748 -0.32896,-6.13094c0.06855,-0.21415 0.16304,-0.41067 0.27947,-0.59228c1.01384,-1.58139 3.6912,-2.032 5.38771,-3.14707z" fill="#7ade4c" stroke-linecap="butt"/><path d="M347.03378,124.14377c-1.3119,0.70856 -5.64754,-2.19711 -7.35328,-2.30159c-1.65019,-0.10108 -3.30023,-0.20353 -4.95136,-0.29662c-2.45514,-0.1384 -3.65405,2.43387 -6.66143,2.04063c-3.47689,-0.45463 -4.91597,-5.23723 -3.17961,-8.14753c1.499,-2.51248 4.54582,-2.57641 6.93034,-3.40586c4.64904,-1.61719 12.31604,-0.96051 16.93523,2.13333c1.95028,1.30626 3.35723,3.04696 3.76435,5.23443z" fill="#9efd71" stroke-linecap="butt"/><path d="M361.3243,113.68391c1.19636,0.99661 1.86879,2.53053 1.67166,4.20389c-0.00524,0.04444 -0.01107,0.08872 -0.01746,0.13283c0.06892,0.61606 -0.14611,1.16421 -0.54237,1.65428c-0.97969,1.84961 -3.04903,3.08028 -5.2868,2.94623c-1.30766,0.52056 -2.2245,-0.19628 -2.96522,-1.1417c-0.67113,-0.55287 -1.1796,-1.27388 -1.46536,-2.0938c-0.14528,-0.17459 -0.28972,-0.31774 -0.43639,-0.41494c-2.37728,-1.57545 -5.57987,-3.89674 -8.59454,-4.47756c-3.2876,-0.63342 -7.36044,-0.92571 -10.5567,-1.06997c-2.09612,-0.09461 -3.32588,3.52776 -6.36721,2.32581c-1.61058,-0.63652 -3.46117,-1.52174 -4.07152,-3.08573c-2.19985,-5.63695 6.06234,-8.78158 10.29376,-9.41592c8.32592,-1.24815 23.2535,2.91881 28.33814,10.43661z" fill="#67dc31" stroke-linecap="butt"/></g><path d="M256.00588,148.38493c1.55771,-32.85136 31.19133,-58.13738 66.18854,-56.47792c34.99721,1.65947 62.10527,29.63601 60.54756,62.48736c-1.55771,32.85136 -30.12976,46.43129 -65.12696,44.77182c-34.9972,-1.65947 -63.16684,-17.9299 -61.60913,-50.78125z" fill="#c8bfb0" stroke="#000000" stroke-width="0" stroke-linecap="butt"/><g><g fill="#a93232" stroke="none" stroke-width="0" stroke-linecap="butt"><path d="M324.73914,202.76338c-0.1302,2.1734 -2.24431,3.81497 -4.72199,3.66654c-2.47768,-0.14843 -4.38069,-2.03065 -4.25049,-4.20405c0.1302,-2.1734 2.24431,-3.81497 4.72199,-3.66654c2.47768,0.14843 4.38069,2.03065 4.25049,4.20405z"/><path d="M319.1637,203.53521c-0.09896,1.65179 -1.97629,2.88317 -4.19318,2.75036c-2.21687,-0.13281 -3.93379,-1.57951 -3.83483,-3.23129c0.09896,-1.65179 1.97629,-2.88317 4.19318,-2.75036c2.21687,0.13281 3.93379,1.57951 3.83483,3.23129z"/><path d="M315.31689,207.09621c-0.09374,1.56485 -2.21354,2.71098 -4.73469,2.55994c-2.52115,-0.15104 -4.48895,-1.54203 -4.39521,-3.10689c0.09374,-1.56485 2.21354,-2.71098 4.73469,-2.55994c2.52115,0.15104 4.48895,1.54203 4.39521,3.10689z"/><path d="M321.55317,203.20442c4.69455,0.28123 8.39891,2.20064 8.27392,4.28711c-0.125,2.08647 -4.03201,3.5499 -8.72656,3.26866c-4.69455,-0.28123 -8.39891,-2.20064 -8.27392,-4.28711c0.125,-2.08647 4.03201,-3.5499 8.72656,-3.26866z"/><path d="M310.07045,207.65077c-0.0651,1.0867 -1.42168,1.88954 -3.02999,1.7932c-1.60832,-0.09634 -2.85935,-1.0554 -2.79424,-2.1421c0.0651,-1.0867 1.42168,-1.88954 3.02999,-1.7932c1.60832,0.09634 2.85935,1.0554 2.79424,2.1421z"/></g><path d="M306.29877,95.20767c0,0 0.11641,-0.0312 0.20924,0.03055c1.02908,-0.22506 2.07247,-0.36783 3.10957,-0.55106c0.22301,-0.04759 0.4466,-0.08974 0.67092,-0.12563c0.31594,-0.06311 0.63087,-0.13247 0.94421,-0.21159l0.16104,0.08951c0.7274,-0.04241 1.46404,-0.00671 2.21359,0.13405l-2.00923,1.23125c-0.27433,0.06856 -0.5525,0.13704 -0.83358,0.20501c-1.65291,0.89154 -4.21347,1.40082 -5.90142,1.88393l0.08557,0.31919c2.54203,-0.41438 5.41573,-0.18181 7.93753,-0.03074l0.13597,0.00814c0,0 0.24955,0.01495 0.2346,0.2645c-0.01495,0.24955 -0.2645,0.2346 -0.2645,0.2346l-0.13597,-0.00814c-2.46773,-0.14784 -5.28586,-0.38164 -7.77755,0.01685l0.04382,0.16346c0.04978,-0.00722 0.10104,-0.00951 0.15323,-0.00637c0.35629,0.02135 0.63953,0.28808 0.69522,0.62601l0.22427,1.19744l-0.00324,0.0006l0.00497,0.00899c0.04422,0.27547 0.08425,0.52621 0.11894,0.75848c0.2243,0.30758 0.40852,0.68372 0.56092,1.09348c0.4901,-0.07653 1.06669,-0.2063 1.65465,-0.35015l0.6335,-0.46666c1.30958,-0.96303 2.24594,-1.558 3.46109,-1.89461l-0.07497,-0.22574l1.40739,-0.46744c0.09252,-0.03313 0.1931,-0.0485 0.2974,-0.04226c0.41347,0.02477 0.72858,0.38004 0.70381,0.79351c-0.0139,0.23196 -0.13181,0.43297 -0.30565,0.56036l-0.81539,0.60601c-0.58959,0.43803 -1.28462,1.12249 -2.01696,1.84505c0.11196,0.43392 0.169,0.91328 0.27918,1.27388c0.6312,2.06554 1.11223,4.21606 1.59457,6.32165c0.29403,1.51623 0.46417,2.84358 0.51862,4.19927c0.15669,-0.07317 0.31313,-0.14686 0.46303,-0.23085c0.42287,-0.23691 0.85933,-0.4495 1.3047,-0.6432l-0.05569,-0.08433l1.24234,-0.82046c0.13194,-0.0892 0.29322,-0.13727 0.46449,-0.127c0.41347,0.02477 0.72858,0.38004 0.70381,0.79351c-0.00942,0.15732 -0.0667,0.30039 -0.15681,0.41592l-0.64499,0.85225l-0.00226,-0.00171l-0.0027,0.0082c-0.96977,1.22504 -1.8015,2.43229 -2.59577,3.73428c0.36928,-0.40933 0.75247,-0.80312 1.14994,-1.14301c0.24907,-0.44538 0.4646,-0.82209 0.59163,-1.08404l0.15394,-0.07128l-0.03878,-0.04711l1.15638,-0.95223c0.1413,-0.11703 0.32557,-0.18281 0.52316,-0.17097c0.41347,0.02477 0.72858,0.38004 0.70381,0.79351c-0.00876,0.14633 -0.05893,0.28034 -0.13841,0.39132l-0.84542,1.2243l-0.21822,-0.15069c-0.12019,0.19942 -0.24551,0.39302 -0.37555,0.58191c-0.03699,0.10161 -0.07599,0.20958 -0.11678,0.32237c0.95776,-0.07152 1.64887,0.19726 2.27302,0.73856c0.02475,-0.00097 0.04978,-0.00072 0.07504,0.00079c0.41347,0.02477 0.72858,0.38004 0.70381,0.79351c-0.00079,0.01315 -0.00191,0.02619 -0.00336,0.03913c0.07914,0.0998 0.15858,0.20379 0.23877,0.31181l0.11412,0.12725c0,0 0.16589,0.18703 -0.02115,0.35291c-0.18703,0.16589 -0.35291,-0.02115 -0.35291,-0.02115l-0.12661,-0.14401l-0.22745,0.92489c-0.35964,1.46234 -0.66264,2.96309 -0.98475,4.44565c0.71688,-1.62516 1.69512,-3.39141 2.18498,-4.60987c0.12706,-1.76751 0.50341,-3.23512 1.1358,-4.77325c-0.07762,-0.13267 0.02582,-0.26936 0.02582,-0.26936c0.05867,-0.07609 0.12011,-0.15044 0.18414,-0.22311c0.13321,-0.30205 0.27608,-0.60822 0.42866,-0.92123l0.13127,-0.26928c0,0 0.10954,-0.22472 0.33426,-0.11518c0.22472,0.10954 0.11518,0.33426 0.11518,0.33426l-0.06448,0.13227c1.47434,-1.04988 3.5253,-1.6174 5.12509,-1.92294c0.31409,-0.45038 0.66606,-0.8943 1.03344,-1.23574c0.10218,-0.16384 0.2038,-0.32827 0.30475,-0.49333l0.04075,-0.02848l-0.01213,-0.0097l0.93125,-1.16282c0.14673,-0.18809 0.38053,-0.30318 0.63667,-0.28783c0.41347,0.02477 0.72858,0.38004 0.70381,0.79351c-0.00679,0.11338 -0.03844,0.21936 -0.08932,0.31297l-0.45907,0.89176l-0.17004,-0.08753l-0.36003,0.44955c-0.01003,0.01647 -0.02007,0.03294 -0.03011,0.04941c-0.04401,0.07508 -0.08927,0.1489 -0.13568,0.22174c-0.84841,1.38218 -1.72835,2.7349 -2.62072,4.05918c-0.43212,1.08913 -0.7594,2.28234 -1.40256,3.21159c-0.91228,1.31805 -2.53385,2.45812 -3.59764,3.71197c-0.56919,0.67088 -1.10307,1.36393 -1.62268,2.06568c0.02938,0.01629 0.05912,0.03395 0.08921,0.05304c1.30151,0.8252 -0.2709,3.73356 -0.83439,4.51585l-0.31934,0.79583c-0.11241,0.30029 -0.41057,0.5056 -0.74734,0.48542c-0.33677,-0.02018 -0.6083,-0.25961 -0.68405,-0.57117l-0.24058,-0.89742l0.19596,-0.05252c-0.01099,-0.03654 -0.02126,-0.07279 -0.03085,-0.10884c-0.07026,0.03947 -0.14152,0.07509 -0.21357,0.10638l-0.05278,0.17073c-0.09444,0.3307 -0.40844,0.56342 -0.76598,0.54201c-0.06003,-0.00359 -0.11799,-0.01416 -0.17312,-0.03085l-0.31088,0.77478c-0.11241,0.30029 -0.41057,0.5056 -0.74734,0.48542c-0.41347,-0.02477 -0.72858,-0.38004 -0.70381,-0.79351l0.05369,-0.89623l0.25825,0.01547l0.08538,-0.2128c0.05707,-0.34739 0.18673,-0.62252 0.37648,-0.86809c-0.00861,-0.15215 -0.0106,-0.34082 -0.00823,-0.54385c-0.11377,-0.62317 -0.42825,-1.70968 -0.66221,-2.79103c-0.32898,-0.04194 -0.58644,-0.29458 -0.64288,-0.61195l-0.28952,-1.44106c-0.04341,-0.17102 -0.08895,-0.34003 -0.13491,-0.5077c-0.17134,-0.01169 -0.3519,-0.08982 -0.54077,-0.25943c-0.03561,-0.03198 -0.06895,-0.06534 -0.1001,-0.10003l-0.05694,0.89834c-0.02592,0.41236 -0.38065,0.72627 -0.79337,0.70154c-0.368,-0.02205 -0.65808,-0.3059 -0.69997,-0.65958l-0.15114,-1.09172c-0.14432,0.13128 -0.33943,0.20647 -0.54955,0.19388c-0.41347,-0.02477 -0.72858,-0.38004 -0.70381,-0.79351l0.05369,-0.89623l0.29238,0.01751c0.04381,-0.44938 0.14049,-0.89257 0.27902,-1.32895c-0.11153,-0.35522 -0.24927,-0.78087 -0.39412,-1.24439c-0.05589,0.00962 -0.11377,0.01302 -0.17282,0.00948c-0.35629,-0.02135 -0.63953,-0.28808 -0.69522,-0.62601l-0.22427,-1.19744l0.01408,-0.00263l-0.02047,-0.03749c-0.02302,-0.29467 -0.04616,-0.58252 -0.06801,-0.86483c-0.09737,-0.46852 -0.11308,-1.01157 -0.09943,-1.52249c-0.00612,-0.13289 -0.01128,-0.26501 -0.0153,-0.39649c-0.07746,0.02136 -0.15968,0.03054 -0.24435,0.02547c-0.3221,-0.0193 -0.58449,-0.23915 -0.67304,-0.53083c-0.11965,0.06562 -0.25863,0.09938 -0.4049,0.09062c-0.34456,-0.02064 -0.62082,-0.2708 -0.68899,-0.59289l-0.31132,-1.31993l-0.10603,-0.24816l0.00921,-0.00393c-0.00696,-0.00833 -0.01391,-0.01665 -0.02087,-0.02498l-0.00218,-0.03212l-0.00826,0.00274l-0.46744,-1.40739c-0.03313,-0.09252 -0.0485,-0.1931 -0.04226,-0.2974c0.00043,-0.00722 0.00096,-0.01442 0.0016,-0.02159c-0.01171,-0.03474 -0.02349,-0.06968 -0.03533,-0.1048l-0.01956,0.29744c-0.02672,0.41159 -0.38107,0.72468 -0.79327,0.69998c-0.368,-0.02205 -0.65808,-0.3059 -0.69997,-0.65958l-0.20195,-1.45877c-0.18676,-0.99488 -0.41705,-1.87339 -0.60608,-2.72552c-0.14754,0.16924 -0.36913,0.27065 -0.61057,0.25619c-0.08049,-0.00482 -0.15725,-0.02217 -0.22849,-0.05002l-0.29032,0.92278c-0.09562,0.32886 -0.40871,0.55988 -0.76498,0.53854c-0.30597,-0.01833 -0.55808,-0.21764 -0.65845,-0.4876l-0.34654,-0.87312l0.00654,-0.0026l-0.0146,-0.01859c-0.95155,-2.89478 -1.95434,-6.11186 -1.3011,-9.10207l-0.20691,-0.0124l0.05369,-0.89623c0.00117,-0.01943 0.00305,-0.03864 0.00565,-0.0576c-0.08933,-0.0875 -0.18429,-0.17342 -0.28586,-0.25756c0,0 -0.57201,-0.48508 -0.08695,-1.05709c0.48508,-0.57201 1.05709,-0.08695 1.05709,-0.08695c0.0747,0.06456 0.14656,0.12975 0.21586,0.19552c0.07092,-0.01724 0.14559,-0.02433 0.22225,-0.01974c0.32262,0.01932 0.58534,0.23986 0.67346,0.53227c1.1551,0.10866 2.33562,0.18686 3.40299,-0.09928zM303.08898,96.02702c0.08695,0.01006 0.169,0.03482 0.24382,0.0716c0.20037,-0.10263 0.44012,-0.16175 0.68641,-0.21177c-0.32843,-0.01503 -0.65811,-0.04052 -0.98644,-0.06947zM322.06573,119.59492c0.14597,-0.14242 0.34916,-0.22513 0.56876,-0.21198c0.41347,0.02477 0.72858,0.38004 0.70381,0.79351l-0.02078,0.34701c0.76061,-0.56197 1.54716,-1.11457 2.01661,-1.82171c0.64771,-0.97568 1.3147,-1.95104 1.98249,-2.93647c0.13653,-0.33383 0.2853,-0.65568 0.4591,-0.95407c0.15439,-0.26506 0.36135,-0.62361 0.60542,-1.00973c-1.75983,0.36867 -4.04995,1.09263 -5.2491,2.43336c-0.49505,1.12964 -0.84902,2.19621 -1.06631,3.36007zM313.20633,110.59723c-0.47937,-2.09125 -0.9561,-4.22758 -1.58354,-6.27889c-0.06107,-0.19967 -0.12274,-0.61937 -0.20746,-1.01979c-0.32913,0.32287 -0.66314,0.64572 -0.99607,0.95049c0.30198,0.71825 0.57117,1.88134 0.63935,2.13571c0.27399,1.0222 0.83629,2.18997 1.36198,3.39444l0.01949,0.03342l-0.00392,0.00229c0.7887,1.81083 1.48747,3.70212 0.99409,5.3046c0.09349,-0.06787 0.1918,-0.12829 0.29303,-0.18425c-0.04271,-1.40404 -0.21163,-2.76235 -0.51694,-4.338zM316.50626,120.67242c0.41881,-0.27481 0.85845,-0.48126 1.27738,-0.31645c0.34124,0.13426 0.5428,0.31492 0.64664,0.52046c0.02533,-0.03304 0.05086,-0.06597 0.07655,-0.09876l-0.10919,-0.06088l0.72231,-1.29568c0.03443,-0.065 0.07807,-0.12418 0.12911,-0.1759c-0.52101,-0.39127 -1.11256,-0.55609 -1.959,-0.44096c-0.23038,0.62316 -0.49977,1.31172 -0.78381,1.86815zM309.84557,107.54872c0.02162,0.32537 0.04185,0.646 0.05892,0.96364c0.09081,0.72713 0.16529,1.46178 0.23907,2.21615c0.03579,0.0402 0.07103,0.08082 0.10571,0.12186c0.0229,-0.19014 0.05659,-0.37751 0.09689,-0.55758l0.15393,-1.0982c-0.23828,-0.53493 -0.46336,-1.08098 -0.65452,-1.64587zM307.72032,104.80474c0.21468,-0.45941 0.48441,-0.8799 0.79682,-1.27288c-0.31517,0.12116 -0.64854,0.22322 -0.98373,0.30234l0.20891,0.77932l-0.11102,0.02976c0.03008,0.05371 0.05975,0.10752 0.08901,0.16146zM303.05305,102.33637c0.02767,0.12537 0.05636,0.2506 0.08605,0.37575l0.10559,-0.02831c-0.06603,-0.11539 -0.12986,-0.23118 -0.19165,-0.34744zM303.48384,104.02195c0.00367,-0.04863 0.00763,-0.09756 0.01188,-0.14674c-0.05698,-0.07819 -0.09912,-0.1676 -0.12254,-0.26393l-0.16646,-0.62098c0.08546,0.34344 0.17812,0.68678 0.27714,1.03164z" fill="#a93232" stroke="none" stroke-width="0.5" stroke-linecap="butt"/><g stroke-linecap="butt"><path d="M254.88658,146.98857c1.47803,-24.6722 18.56245,-44.92993 41.75162,-52.86788c0.65564,-0.22444 2.68759,-2.15408 2.68759,-2.15408l2.27355,4.58854c0,0 0.30316,2.86887 1.31105,4.78308c0.46371,0.88068 3.40303,2.90035 3.40303,2.90035c0,0 1.03676,5.06596 2.57612,8.13745c0.9291,1.85387 4.92507,1.38782 4.92507,1.38782c0,0 -1.4549,3.97456 -0.8049,5.89065c0.39516,1.16484 4.01263,4.01152 4.01263,4.01152l2.50561,6.93975l2.30143,-6.49315c0,0 2.2353,-1.81136 4.9052,-6.33115c5.31116,-8.99109 13.41686,-23.8589 16.59091,-22.6176c24.66097,9.64439 41.38502,33.13656 39.80524,59.50735c-1.63464,27.28648 -22.35821,49.1734 -49.31733,54.96686c-1.28462,0.27607 -5.43242,1.02513 -5.43242,1.02513c0,0 -0.86883,-2.46655 -2.27173,-3.75707c-0.69796,-0.64205 -4.61392,-1.02054 -4.61392,-1.02054c0,0 -0.44196,-2.67199 -0.92097,-3.23884c-0.61145,-0.72358 -3.29605,0.17877 -3.29605,0.17877c0,0 -2.24337,-0.29777 -2.67962,0.05707c-0.49882,0.40571 -0.3318,1.87146 -0.3318,1.87146c0,0 -3.4512,-0.04202 -4.57369,0.72036c-0.66102,0.44895 -0.72515,2.95796 -0.72515,2.95796c0,0 -2.64617,-1.22076 -4.03806,-1.26219c-1.76863,-0.05264 -3.43446,1.58819 -4.72171,1.21011c-27.64151,-8.11855 -47.01664,-33.09831 -45.32168,-61.39173z" fill="#4cc114" stroke="#000000" stroke-width="0"/><path d="M254.88658,146.98857c1.47803,-24.6722 18.56245,-44.92993 41.75162,-52.86788c0.65564,-0.22444 2.68759,-2.15408 2.68759,-2.15408l2.27355,4.58854c0,0 0.30316,2.86887 1.31105,4.78308c0.46371,0.88068 3.40303,2.90035 3.40303,2.90035c0,0 1.03676,5.06596 2.57612,8.13745c0.9291,1.85387 4.92507,1.38782 4.92507,1.38782c0,0 -1.4549,3.97456 -0.8049,5.89065c0.39516,1.16484 4.01263,4.01152 4.01263,4.01152l2.50561,6.93975l2.30143,-6.49315c0,0 2.2353,-1.81136 4.9052,-6.33115c5.31116,-8.99109 13.41686,-23.8589 16.59091,-22.6176c24.66097,9.64439 41.38502,33.13656 39.80524,59.50735c-0.31748,5.29951 -1.35499,10.39534 -3.01839,15.20915c-0.01782,0.05157 -124.61134,-10.43988 -124.63232,-10.57263c-0.63296,-4.00417 -0.84467,-8.12527 -0.59342,-12.31918z" fill="#70b012" stroke="#000000" stroke-width="0"/><path d="M254.88658,146.98857c1.47803,-24.6722 18.56245,-44.92993 41.75162,-52.86788c0.65564,-0.22444 2.68759,-2.15408 2.68759,-2.15408l2.27355,4.58854c0,0 0.30316,2.86887 1.31105,4.78308c0.46371,0.88068 3.40303,2.90035 3.40303,2.90035c0,0 1.03676,5.06596 2.57612,8.13745c0.9291,1.85387 4.92507,1.38782 4.92507,1.38782c0,0 -1.4549,3.97456 -0.8049,5.89065c0.39516,1.16484 4.01263,4.01152 4.01263,4.01152l2.50561,6.93975l2.30143,-6.49315c0,0 2.2353,-1.81136 4.9052,-6.33115c5.31116,-8.99109 13.41686,-23.8589 16.59091,-22.6176c24.66097,9.64439 41.38502,33.13656 39.80524,59.50735c-0.01036,0.17289 -128.26034,-7.41198 -128.24413,-7.68265z" fill="#84930f" stroke="#000000" stroke-width="0"/><path d="M258.7073,129.60218c6.48714,-16.55787 20.48049,-29.50798 37.93092,-35.4815c0.65564,-0.22444 2.68759,-2.15408 2.68759,-2.15408l2.27355,4.58854c0,0 0.30316,2.86887 1.31105,4.78308c0.46371,0.88068 3.40303,2.90035 3.40303,2.90035c0,0 1.03676,5.06596 2.57612,8.13745c0.9291,1.85387 4.92507,1.38782 4.92507,1.38782c0,0 -1.4549,3.97456 -0.8049,5.89065c0.39516,1.16484 4.01263,4.01152 4.01263,4.01152l2.50561,6.93975l2.30143,-6.49315c0,0 2.2353,-1.81136 4.9052,-6.33115c5.31116,-8.99109 13.41686,-23.8589 16.59091,-22.6176c18.91805,7.39846 33.16538,22.94606 38.06194,41.69093c0.101,0.38665 -122.80256,-6.94013 -122.68013,-7.25263z" fill="#7a6c00" stroke="#000000" stroke-width="0"/><path d="M260.69783,132.76885c0.01849,-0.30873 0.14754,-0.58456 0.34634,-0.79128c-0.07169,-0.01376 -0.14108,-0.03356 -0.20765,-0.05886c-0.26895,0.13762 -0.57708,0.20737 -0.90048,0.18799c-0.96477,-0.0578 -1.70002,-0.88675 -1.64222,-1.85152c0.0578,-0.96477 0.88675,-1.70002 1.85152,-1.64222c0.54957,0.03292 1.02465,0.31607 1.3211,0.73201c0.33935,-0.46722 0.90257,-0.75677 1.52174,-0.71968c0.25071,0.01502 0.48593,0.08211 0.69576,0.19014c0.32852,-0.26862 0.75505,-0.41918 1.21205,-0.3918c0.26015,0.01558 0.5036,0.08724 0.71932,0.2025c0.29574,-0.18227 0.64854,-0.27854 1.02165,-0.25619c0.96477,0.0578 1.70002,0.88675 1.64222,1.85152c-0.0578,0.96477 -0.88675,1.70002 -1.85152,1.64222c-0.26015,-0.01558 -0.5036,-0.08724 -0.71932,-0.2025c-0.29574,0.18227 -0.64854,0.27854 -1.02165,0.25619c-0.25071,-0.01502 -0.48593,-0.08211 -0.69576,-0.19014c-0.28342,0.23175 -0.63979,0.37563 -1.02574,0.39318c0.15922,0.22417 0.24589,0.50212 0.22816,0.79795c-0.04128,0.68913 -0.63339,1.2143 -1.32251,1.17301c-0.68913,-0.04128 -1.2143,-0.63339 -1.17301,-1.32251z" fill="#7a6c00" stroke="none" stroke-width="0.5"/><path d="M275.43666,131.59811c-0.04128,0.68913 -0.63339,1.2143 -1.32251,1.17301c-0.57933,-0.03471 -1.04279,-0.4587 -1.15124,-1.00237c-0.06926,0.00411 -0.13951,0.00416 -0.2105,-0.0001c-0.1021,-0.00611 -0.20162,-0.02086 -0.29791,-0.0435c0.16684,0.22697 0.2583,0.51137 0.24014,0.81454c-0.04128,0.68913 -0.63339,1.2143 -1.32251,1.17301c-0.68913,-0.04128 -1.2143,-0.63339 -1.17301,-1.32251c0.01135,-0.18936 0.06428,-0.36634 0.14939,-0.52259c-0.70799,-0.25837 -1.1935,-0.95795 -1.14612,-1.7488c0.0578,-0.96477 0.88675,-1.70002 1.85152,-1.64222c0.25071,0.01502 0.48593,0.08211 0.69576,0.19014c0.32852,-0.26862 0.75505,-0.41918 1.21205,-0.3918c0.96477,0.0578 1.70002,0.88675 1.64222,1.85152c-0.00425,0.07099 -0.01268,0.14072 -0.02503,0.209c0.52682,0.17258 0.89246,0.68334 0.85776,1.26268z" fill="#7a6c00" stroke="none" stroke-width="0.5"/><path d="M277.1107,129.96064c0.0578,-0.96477 0.88675,-1.70002 1.85152,-1.64222c0.96477,0.0578 1.70002,0.88675 1.64222,1.85152c-0.0578,0.96477 -0.88675,1.70002 -1.85152,1.64222c-0.96477,-0.0578 -1.70002,-0.88675 -1.64222,-1.85152z" fill="#7a6c00" stroke="none" stroke-width="0.5"/><path d="M331.00871,134.76926c0.0578,-0.96477 0.88675,-1.70002 1.85152,-1.64222c0.96477,0.0578 1.70002,0.88675 1.64222,1.85152c-0.0578,0.96477 -0.88675,1.70002 -1.85152,1.64222c-0.96477,-0.0578 -1.70002,-0.88675 -1.64222,-1.85152z" fill="#7a6c00" stroke="none" stroke-width="0.5"/><path d="M326.03181,136.35526c-0.20099,-0.01204 -0.38803,-0.07094 -0.55114,-0.16544c-0.02347,-0.00047 -0.04704,-0.00142 -0.07067,-0.00283c-0.63412,-0.03799 -1.1691,-0.40913 -1.44489,-0.93302c-0.33636,0.48722 -0.91182,0.79184 -1.54593,0.75385c-0.38977,-0.02335 -0.74207,-0.17256 -1.01977,-0.40576c-0.33876,0.47159 -0.90467,0.76441 -1.52712,0.72712c-0.56192,-0.03366 -1.04598,-0.32893 -1.34084,-0.76027c-0.25292,0.11632 -0.53733,0.17383 -0.83464,0.15601c-0.37203,-0.02228 -0.70993,-0.15925 -0.9814,-0.37445c-0.17652,0.52007 -0.68377,0.87963 -1.25849,0.8452c-0.57978,-0.03474 -1.04351,-0.45935 -1.15148,-1.00363c-0.33987,0.46316 -0.90058,0.74968 -1.5167,0.71277c-0.4626,-0.02771 -0.87243,-0.23273 -1.16737,-0.545c-0.02114,-0.00051 -0.04236,-0.0014 -0.06364,-0.00267c-0.96477,-0.0578 -1.70002,-0.88675 -1.64222,-1.85152c0.0578,-0.96477 0.88675,-1.70002 1.85152,-1.64222c0.4626,0.02771 0.87243,0.23273 1.16737,0.545c0.02114,0.00051 0.04236,0.0014 0.06364,0.00267c0.90006,0.05392 1.60035,0.77901 1.64332,1.6594c0.24438,-0.24777 0.59039,-0.39279 0.96507,-0.37035c0.16165,0.00969 0.31429,0.04967 0.45268,0.11413c0.08736,-0.9355 0.90202,-1.6397 1.84698,-1.58309c0.56192,0.03366 1.04598,0.32893 1.34084,0.76027c0.25292,-0.11632 0.53733,-0.17383 0.83464,-0.15601c0.38977,0.02335 0.74207,0.17256 1.01977,0.40576c0.33876,-0.47159 0.90467,-0.76441 1.52712,-0.72712c0.63412,0.03799 1.1691,0.40913 1.44489,0.93302c0.33636,-0.48722 0.91182,-0.79184 1.54593,-0.75385c0.88594,0.05307 1.57833,0.75644 1.64082,1.6181c0.1649,-0.84805 0.93631,-1.46372 1.82226,-1.41065c0.96477,0.0578 1.70002,0.88675 1.64222,1.85152c-0.0578,0.96477 -0.88675,1.70002 -1.85152,1.64222c-0.70572,-0.04228 -1.28864,-0.49718 -1.52817,-1.11606c-0.08779,0.64114 -0.65639,1.1162 -1.31308,1.07686z" fill="#7a6c00" stroke="none" stroke-width="0.5"/><path d="M257.69483,148.22866c-0.04128,0.68913 -0.63339,1.2143 -1.32251,1.17301c-0.58954,-0.03532 -1.05908,-0.47376 -1.15664,-1.0312c-0.40033,-0.34419 -0.64089,-0.86486 -0.60688,-1.43253c0.0578,-0.96477 0.88675,-1.70002 1.85152,-1.64222c0.6684,0.04004 1.22661,0.45021 1.48729,1.01925c0.3418,-0.44543 0.89146,-0.71877 1.49411,-0.68266c0.96477,0.0578 1.70002,0.88675 1.64222,1.85152c-0.0578,0.96477 -0.88675,1.70002 -1.85152,1.64222c-0.6684,-0.04004 -1.22661,-0.45021 -1.48729,-1.01925c-0.01561,0.02033 -0.03163,0.04031 -0.04809,0.05991c-0.00023,0.02056 -0.00096,0.0412 -0.00219,0.06195z" fill="#84930f" stroke="none" stroke-width="0.5"/><path d="M267.71693,147.26085c0.68913,0.04128 1.2143,0.63339 1.17301,1.32251c-0.04128,0.68913 -0.63339,1.2143 -1.32251,1.17301c-0.35864,-0.02149 -0.67289,-0.19217 -0.88599,-0.44808c-0.32123,0.2438 -0.72786,0.37836 -1.16198,0.35236c-0.96477,-0.0578 -1.70002,-0.88675 -1.64222,-1.85152c0.0578,-0.96477 0.88675,-1.70002 1.85152,-1.64222c0.71793,0.04301 1.30877,0.51306 1.54029,1.14833c0.1408,-0.04406 0.29186,-0.06374 0.44788,-0.0544z" fill="#84930f" stroke="none" stroke-width="0.5"/><path d="M315.47866,151.84827c0.00547,-0.09123 0.02058,-0.17961 0.04431,-0.26416c-0.12072,-0.25644 -0.18073,-0.5459 -0.16259,-0.84876c0.0578,-0.96477 0.88675,-1.70002 1.85152,-1.64222c0.96477,0.0578 1.70002,0.88675 1.64222,1.85152c-0.03904,0.65168 -0.42994,1.19864 -0.97687,1.46719c-0.20094,0.47305 -0.68321,0.79144 -1.22558,0.75895c-0.68913,-0.04128 -1.2143,-0.63339 -1.17301,-1.32251z" fill="#84930f" stroke="none" stroke-width="0.5"/><path d="M319.43423,151.29534c0.0578,-0.96477 0.88675,-1.70002 1.85152,-1.64222c0.96477,0.0578 1.70002,0.88675 1.64222,1.85152c-0.0578,0.96477 -0.88675,1.70002 -1.85152,1.64222c-0.96477,-0.0578 -1.70002,-0.88675 -1.64222,-1.85152z" fill="#84930f" stroke="none" stroke-width="0.5"/><path d="M258.39917,157.76103c0.68913,0.04128 1.2143,0.63339 1.17301,1.32251c-0.03295,0.54991 -0.41663,0.99541 -0.92048,1.132c-0.27297,0.67974 -0.95755,1.14054 -1.72895,1.09433c-0.96477,-0.0578 -1.70002,-0.88675 -1.64222,-1.85152c0.0578,-0.96477 0.88675,-1.70002 1.85152,-1.64222c0.19295,0.01156 0.37672,0.05396 0.54681,0.12213c0.20928,-0.12646 0.45776,-0.19296 0.72032,-0.17723z" fill="#70b012" stroke="none" stroke-width="0.5"/><path d="M267.46153,162.07224c-0.20099,-0.01204 -0.38803,-0.07094 -0.55114,-0.16544c-0.02347,-0.00047 -0.04704,-0.00142 -0.07067,-0.00283c-0.59053,-0.03538 -1.09507,-0.35968 -1.38438,-0.8272c-0.28002,0.15445 -0.60569,0.23405 -0.9485,0.21351c-0.96477,-0.0578 -1.70002,-0.88675 -1.64222,-1.85152c0.0578,-0.96477 0.88675,-1.70002 1.85152,-1.64222c0.59053,0.03538 1.09507,0.35968 1.38438,0.8272c0.28002,-0.15445 0.60569,-0.23405 0.9485,-0.21351c0.25216,0.0151 0.48865,0.0829 0.69939,0.19202c0.22226,-0.08319 0.46515,-0.12225 0.71731,-0.10715c0.96477,0.0578 1.70002,0.88675 1.64222,1.85152c-0.0578,0.96477 -0.88675,1.70002 -1.85152,1.64222c-0.07007,-0.0042 -0.13893,-0.01246 -0.20637,-0.02456c-0.17873,0.08075 -0.37914,0.12049 -0.58851,0.10795z" fill="#70b012" stroke="none" stroke-width="0.5"/><path d="M313.24165,162.62623c0.20099,0.01204 0.38803,0.07094 0.55114,0.16544c0.02347,0.00047 0.04704,0.00142 0.07067,0.00283c0.26015,0.01558 0.5036,0.08724 0.71932,0.2025c0.29574,-0.18227 0.64854,-0.27854 1.02165,-0.25619c0.96477,0.0578 1.70002,0.88675 1.64222,1.85152c-0.0578,0.96477 -0.88675,1.70002 -1.85152,1.64222c-0.26015,-0.01558 -0.5036,-0.08724 -0.71932,-0.2025c-0.29574,0.18227 -0.64854,0.27854 -1.02165,0.25619c-0.41274,-0.02472 -0.78347,-0.19059 -1.06807,-0.44785c-0.15607,0.03487 -0.31958,0.04876 -0.48719,0.03873c-0.96477,-0.0578 -1.70002,-0.88675 -1.64222,-1.85152c0.0578,-0.96477 0.88675,-1.70002 1.85152,-1.64222c0.28768,0.01723 0.55496,0.10304 0.78689,0.24056c0.04823,-0.00271 0.09714,-0.00267 0.14655,0.00029z" fill="#70b012" stroke="none" stroke-width="0.5"/><path d="M324.55805,163.59316c0.96477,0.0578 1.70002,0.88675 1.64222,1.85152c-0.0578,0.96477 -0.88675,1.70002 -1.85152,1.64222c-0.43159,-0.02586 -0.81724,-0.20604 -1.10652,-0.48367c-0.27591,0.14797 -0.59494,0.22375 -0.9304,0.20366c-0.96477,-0.0578 -1.70002,-0.88675 -1.64222,-1.85152c0.0578,-0.96477 0.88675,-1.70002 1.85152,-1.64222c0.43159,0.02586 0.81724,0.20604 1.10652,0.48367c0.27591,-0.14797 0.59494,-0.22375 0.9304,-0.20366z" fill="#70b012" stroke="none" stroke-width="0.5"/><path d="M265.49273,134.47789c0.04128,-0.68913 0.63339,-1.2143 1.32251,-1.17301c0.68913,0.04128 1.2143,0.63339 1.17301,1.32251c-0.04128,0.68913 -0.63339,1.2143 -1.32251,1.17301c-0.68913,-0.04128 -1.2143,-0.63339 -1.17301,-1.32251z" fill="#7a6c00" stroke="none" stroke-width="0.5"/><path d="M317.53007,138.70111c0.04128,-0.68913 0.63339,-1.2143 1.32251,-1.17301c0.68913,0.04128 1.2143,0.63339 1.17301,1.32251c-0.04128,0.68913 -0.63339,1.2143 -1.32251,1.17301c-0.68913,-0.04128 -1.2143,-0.63339 -1.17301,-1.32251z" fill="#7a6c00" stroke="none" stroke-width="0.5"/><path d="M321.31739,138.77001c0.04128,-0.68913 0.63339,-1.2143 1.32251,-1.17301c0.68913,0.04128 1.2143,0.63339 1.17301,1.32251c-0.04128,0.68913 -0.63339,1.2143 -1.32251,1.17301c-0.68913,-0.04128 -1.2143,-0.63339 -1.17301,-1.32251z" fill="#7a6c00" stroke="none" stroke-width="0.5"/><path d="M257.11365,150.40552c0.04128,-0.68913 0.63339,-1.2143 1.32251,-1.17301c0.68913,0.04128 1.2143,0.63339 1.17301,1.32251c-0.04128,0.68913 -0.63339,1.2143 -1.32251,1.17301c-0.68913,-0.04128 -1.2143,-0.63339 -1.17301,-1.32251z" fill="#84930f" stroke="none" stroke-width="0.5"/><path d="M259.74249,151.35289c0.04128,-0.68913 0.63339,-1.2143 1.32251,-1.17301c0.68913,0.04128 1.2143,0.63339 1.17301,1.32251c-0.04128,0.68913 -0.63339,1.2143 -1.32251,1.17301c-0.68913,-0.04128 -1.2143,-0.63339 -1.17301,-1.32251z" fill="#84930f" stroke="none" stroke-width="0.5"/><path d="M317.38356,154.33203c0.04128,-0.68913 0.63339,-1.2143 1.32251,-1.17301c0.68913,0.04128 1.2143,0.63339 1.17301,1.32251c-0.04128,0.68913 -0.63339,1.2143 -1.32251,1.17301c-0.68913,-0.04128 -1.2143,-0.63339 -1.17301,-1.32251z" fill="#84930f" stroke="none" stroke-width="0.5"/><path d="M262.01665,163.49537c0.04128,-0.68913 0.63339,-1.2143 1.32251,-1.17301c0.68913,0.04128 1.2143,0.63339 1.17301,1.32251c-0.04128,0.68913 -0.63339,1.2143 -1.32251,1.17301c-0.68913,-0.04128 -1.2143,-0.63339 -1.17301,-1.32251z" fill="#70b012" stroke="none" stroke-width="0.5"/><path d="M320.28456,166.36566c0.68913,0.04128 1.2143,0.63339 1.17301,1.32251c-0.04128,0.68913 -0.63339,1.2143 -1.32251,1.17301c-0.2174,-0.01302 -0.41849,-0.08087 -0.59062,-0.18928c-0.24576,0.27171 -0.60818,0.43343 -1.00236,0.40981c-0.68913,-0.04128 -1.2143,-0.63339 -1.17301,-1.32251c0.04128,-0.68913 0.63339,-1.2143 1.32251,-1.17301c0.2174,0.01302 0.41849,0.08087 0.59062,0.18928c0.24576,-0.27171 0.60818,-0.43343 1.00236,-0.40981z" fill="#70b012" stroke="none" stroke-width="0.5"/><path d="M258.0429,137.98101c0.02477,-0.41347 0.38004,-0.72858 0.79351,-0.70381c0.41347,0.02477 0.72858,0.38004 0.70381,0.79351c-0.02477,0.41347 -0.38004,0.72858 -0.79351,0.70381c-0.41347,-0.02477 -0.72858,-0.38004 -0.70381,-0.79351z" fill="#7a6c00" stroke="none" stroke-width="0.5"/><path d="M264.86529,140.12747c0.02477,-0.41347 0.38004,-0.72858 0.79351,-0.70381c0.41347,0.02477 0.72858,0.38004 0.70381,0.79351c-0.02477,0.41347 -0.38004,0.72858 -0.79351,0.70381c-0.41347,-0.02477 -0.72858,-0.38004 -0.70381,-0.79351z" fill="#7a6c00" stroke="none" stroke-width="0.5"/><path d="M316.82067,143.08196c0.02477,-0.41347 0.38004,-0.72858 0.79351,-0.70381c0.41347,0.02477 0.72858,0.38004 0.70381,0.79351c-0.02477,0.41347 -0.38004,0.72858 -0.79351,0.70381c-0.41347,-0.02477 -0.72858,-0.38004 -0.70381,-0.79351z" fill="#7a6c00" stroke="none" stroke-width="0.5"/><path d="M319.54092,145.14064c0.02477,-0.41347 0.38004,-0.72858 0.79351,-0.70381c0.41347,0.02477 0.72858,0.38004 0.70381,0.79351c-0.02477,0.41347 -0.38004,0.72858 -0.79351,0.70381c-0.41347,-0.02477 -0.72858,-0.38004 -0.70381,-0.79351z" fill="#7a6c00" stroke="none" stroke-width="0.5"/><path d="M260.33953,155.02213c0.02477,-0.41347 0.38004,-0.72858 0.79351,-0.70381c0.41347,0.02477 0.72858,0.38004 0.70381,0.79351c-0.02477,0.41347 -0.38004,0.72858 -0.79351,0.70381c-0.41347,-0.02477 -0.72858,-0.38004 -0.70381,-0.79351z" fill="#84930f" stroke="none" stroke-width="0.5"/><path d="M264.40685,153.0541c0.02477,-0.41347 0.38004,-0.72858 0.79351,-0.70381c0.41347,0.02477 0.72858,0.38004 0.70381,0.79351c-0.02477,0.41347 -0.38004,0.72858 -0.79351,0.70381c-0.41347,-0.02477 -0.72858,-0.38004 -0.70381,-0.79351z" fill="#84930f" stroke="none" stroke-width="0.5"/><path d="M317.25665,159.53766c0.02477,-0.41347 0.38004,-0.72858 0.79351,-0.70381c0.41347,0.02477 0.72858,0.38004 0.70381,0.79351c-0.02477,0.41347 -0.38004,0.72858 -0.79351,0.70381c-0.41347,-0.02477 -0.72858,-0.38004 -0.70381,-0.79351z" fill="#84930f" stroke="none" stroke-width="0.5"/><path d="M322.07041,160.93188c0.02477,-0.41347 0.38004,-0.72858 0.79351,-0.70381c0.41347,0.02477 0.72858,0.38004 0.70381,0.79351c-0.02477,0.41347 -0.38004,0.72858 -0.79351,0.70381c-0.41347,-0.02477 -0.72858,-0.38004 -0.70381,-0.79351z" fill="#84930f" stroke="none" stroke-width="0.5"/><path d="M259.68886,165.88354c0.02477,-0.41347 0.38004,-0.72858 0.79351,-0.70381c0.41347,0.02477 0.72858,0.38004 0.70381,0.79351c-0.02477,0.41347 -0.38004,0.72858 -0.79351,0.70381c-0.41347,-0.02477 -0.72858,-0.38004 -0.70381,-0.79351z" fill="#70b012" stroke="none" stroke-width="0.5"/><path d="M265.44709,167.33434c0.02477,-0.41347 0.38004,-0.72858 0.79351,-0.70381c0.41347,0.02477 0.72858,0.38004 0.70381,0.79351c-0.02477,0.41347 -0.38004,0.72858 -0.79351,0.70381c-0.41347,-0.02477 -0.72858,-0.38004 -0.70381,-0.79351z" fill="#70b012" stroke="none" stroke-width="0.5"/><path d="M311.81762,171.21808c0.02477,-0.41347 0.38004,-0.72858 0.79351,-0.70381c0.41347,0.02477 0.72858,0.38004 0.70381,0.79351c-0.02477,0.41347 -0.38004,0.72858 -0.79351,0.70381c-0.41347,-0.02477 -0.72858,-0.38004 -0.70381,-0.79351z" fill="#70b012" stroke="none" stroke-width="0.5"/><path d="M320.08211,175.6626c0.02477,-0.41347 0.38004,-0.72858 0.79351,-0.70381c0.41347,0.02477 0.72858,0.38004 0.70381,0.79351c-0.02477,0.41347 -0.38004,0.72858 -0.79351,0.70381c-0.41347,-0.02477 -0.72858,-0.38004 -0.70381,-0.79351z" fill="#70b012" stroke="none" stroke-width="0.5"/><path d="M324.75369,171.5191c0.02477,-0.41347 0.38004,-0.72858 0.79351,-0.70381c0.41347,0.02477 0.72858,0.38004 0.70381,0.79351c-0.02477,0.41347 -0.38004,0.72858 -0.79351,0.70381c-0.41347,-0.02477 -0.72858,-0.38004 -0.70381,-0.79351z" fill="#70b012" stroke="none" stroke-width="0.5"/></g><path d="M267.5496,147.83573c0.77548,-12.9448 12.51458,-23.71081 25.45939,-22.93533c12.9448,0.77548 23.44556,13.81156 22.67007,26.75636c-0.77548,12.9448 -10.91875,22.11843 -23.86356,21.34296c-12.9448,-0.77548 -25.04139,-12.2192 -24.2659,-25.164z" fill="#000000" stroke="#000000" stroke-width="0" stroke-linecap="butt"/><path d="M343.73428,176.11002c-12.9448,-0.77548 -22.00647,-12.7876 -21.23099,-25.7324c0.77548,-12.9448 12.67563,-20.13766 25.62043,-19.36217c12.9448,0.77548 22.93314,9.84225 22.15766,22.78706c-0.77548,12.9448 -13.6023,23.08299 -26.5471,22.30751z" fill="#000000" stroke="#000000" stroke-width="0" stroke-linecap="butt"/><path d="M332.01484,195.16167c0,0 -10.58002,1.03584 -15.5684,0.69528c-4.98873,-0.3406 -14.36296,-2.73881 -14.36296,-2.73881" fill="none" stroke="#000000" stroke-width="0" stroke-linecap="round"/></g><path d="" fill="none" stroke="#000000" stroke-width="2" stroke-linecap="round"/><g stroke-linecap="butt"><path d="M292.04816,174.01151c-0.02568,0.15158 -0.05068,0.30277 -0.07492,0.45357c-0.11726,0.72941 -0.17891,1.44502 -0.24904,2.14124c0.31618,3.21197 0.63728,6.68176 1.75098,9.59675c0,0 0.26535,0.70151 -0.43615,0.96684c-0.70151,0.26535 -0.96684,-0.43615 -0.96684,-0.43615c-0.30734,-0.81972 -0.57992,-1.66156 -0.82327,-2.52136c-0.00533,0.00101 -0.01068,0.00194 -0.01605,0.00284c-0.40864,0.06772 -0.79481,-0.20865 -0.86253,-0.61729l-0.15063,-0.90896c-0.07478,-0.45123 -0.15359,-0.88395 -0.21567,-1.31378c-0.0068,-0.01691 -0.01353,-0.03391 -0.02018,-0.051c-0.28081,-0.07051 -0.50722,-0.30123 -0.55757,-0.60508l-0.18738,-1.13072c-1.04206,-6.28802 -2.31083,-12.53511 -3.35294,-18.82341c-0.23348,-1.40888 -1.02944,-3.65574 -0.79363,-5.25736c-0.04485,-0.1195 -0.08938,-0.23911 -0.1336,-0.35884l0.01227,-0.07488l-0.02742,0.00454l-0.22595,-1.36345c-0.06772,-0.40864 0.20865,-0.79481 0.61729,-0.86253c0.40864,-0.06772 0.79481,0.20865 0.86253,0.61729l0.02021,0.12196l0.04415,-0.53607c0.02061,-0.34145 0.27436,-0.63573 0.62613,-0.69403c0.13238,-0.02194 0.2624,-0.00777 0.38001,0.03532l0.01702,-0.2103c0.02016,-0.34189 0.27409,-0.6367 0.6262,-0.69505c0.40864,-0.06772 0.79481,0.20865 0.86253,0.61729l0.24524,1.47981l-0.28239,0.04681c0.2069,0.89536 0.31705,1.81709 0.37537,2.75227c0.15468,0.39243 0.30005,0.79022 0.43835,1.19156l0.1041,0.17181l-0.03766,0.02283c0.05192,0.15351 0.10285,0.3075 0.15295,0.46186c1.13303,1.56064 1.9781,3.42322 2.63307,5.42137c-0.02768,-0.65892 -0.04582,-1.32034 -0.05328,-1.98479c-0.00593,-0.52828 -0.01901,-1.03361 -0.02785,-1.52209c-0.01173,-0.07084 -0.02349,-0.14168 -0.03522,-0.21254c-0.40729,-2.45768 -0.99719,-4.73569 -0.86275,-7.08898l-0.27967,0.00319l-0.01699,-1.48825c-0.01041,-0.36891 0.25291,-0.69809 0.62719,-0.76012c0.39848,-0.06604 0.77558,0.19512 0.85689,0.58705l0.31305,1.46269c0.09106,0.42544 0.18017,0.85135 0.26754,1.27767c0.07429,-0.04193 0.15703,-0.07181 0.24607,-0.08655c0.40864,-0.06772 0.79481,0.20865 0.86253,0.61729l0.22595,1.36345l-0.00787,0.0013l0.0119,0.0261c0.14355,1.61315 0.09719,3.26455 -0.0662,4.93208c0.71285,4.18595 1.34056,8.38997 2.03367,12.57239c0.40323,2.4332 1.27702,5.06231 0.94185,7.47039l0.01891,0.08434l0.27052,0.025l-0.08671,0.93837c-0.02371,0.3384 -0.27636,0.62897 -0.62567,0.68686c-0.39633,0.06567 -0.77149,-0.19229 -0.85553,-0.58067l-0.15755,-0.70248c-0.10833,0.18761 -0.29669,0.32702 -0.52709,0.3652c-0.3637,0.06027 -0.7096,-0.15203 -0.82903,-0.48756l-0.41063,-1.08556l0.186,-0.07036c-0.98203,-1.72793 -1.50444,-3.62457 -2.2251,-5.57915c-0.05035,-0.13657 -0.10017,-0.27323 -0.14949,-0.40999z" fill="#43663c" stroke="none" stroke-width="0.5"/><g stroke="#000000" stroke-width="0"><path d="M270.01253,200.53504c-3.70798,-12.42658 3.35987,-25.50623 15.78646,-29.21421c12.42658,-3.70798 25.50623,3.35986 29.21421,15.78645c3.70798,12.42658 -3.35986,25.50624 -15.78644,29.21422c-12.42658,3.70798 -25.50624,-3.35987 -29.21422,-15.78645z" fill="url(#color-1)"/><path d="M278.07056,207.12828c-1.5729,-5.27127 1.42524,-10.81957 6.69651,-12.39248c5.27127,-1.5729 10.81957,1.42524 12.39247,6.69652c1.5729,5.27127 -1.42524,10.81958 -6.69651,12.39249c-5.27127,1.5729 -10.81957,-1.42524 -12.39247,-6.69652z" fill="#000000"/></g><path d="M285.95186,154.16959c0.02257,0.13622 -0.06955,0.26494 -0.20576,0.28751c-0.039,0.00647 -0.07738,0.00353 -0.11284,-0.00716c-0.10842,0.1141 -0.2535,0.19514 -0.42072,0.22286c-0.3156,0.0523 -0.61777,-0.10063 -0.77022,-0.36122c-0.33408,0.04185 -0.66628,0.0842 -0.99602,0.12763c0.14895,0.11181 0.25674,0.27891 0.28959,0.47714c0.06772,0.40864 -0.20865,0.79481 -0.61729,0.86253c-0.40864,0.06772 -0.79481,-0.20865 -0.86253,-0.61729c-0.03532,-0.21308 0.02293,-0.42004 0.14469,-0.57893c-0.41055,0.05892 -0.81629,0.12064 -1.21612,0.18641l-0.0537,-0.01566l0.00041,0.01873l-1.30798,0.02858c-0.37183,0.01408 -0.70491,-0.25023 -0.76735,-0.62696c-0.06512,-0.39297 0.18797,-0.76518 0.57091,-0.85336l1.45256,-0.34861l0.04089,0.17038c1.4248,-0.57881 2.93973,-0.99497 4.48187,-1.33808c-0.02091,-0.0095 -0.04181,-0.02017 -0.06244,-0.03211c-0.20058,0.03324 -0.40115,0.06647 -0.60173,0.09972c-1.85665,0.30769 -3.7133,0.61538 -5.56996,0.92307l-1.26387,0.20945c-0.40864,0.06772 -0.79481,-0.20865 -0.86253,-0.61729c-0.06245,-0.37684 0.16772,-0.73457 0.5244,-0.84107l1.25176,-0.39563l0.0547,0.17306c0.04685,-0.00776 0.14401,-0.02386 0.19086,-0.03163c1.30174,-0.55403 2.6162,-0.78055 4.25315,-1.07617l0.55034,-0.09932c0,0 0.47239,-0.08527 0.72955,0.25857c3.04152,-0.50405 6.08305,-1.00809 9.12458,-1.51214c1.41392,-0.23431 3.31853,-0.9165 4.88244,-0.80913c0.08626,-0.01429 0.60126,-0.09964 0.68751,-0.11394l1.47981,-0.24524c0.40864,-0.06772 0.79481,0.20865 0.86253,0.61729c0.06772,0.40864 -0.20865,0.79481 -0.61729,0.86253c-0.69765,0.11561 -2.87513,0.47648 -3.57278,0.59208c-1.2102,0.26037 -2.44581,0.43502 -3.70385,0.62486c0.15216,0.10064 0.26744,0.2562 0.31411,0.44397c0.62274,-0.06723 1.21051,-0.13894 1.74405,-0.22646l0.0623,0.02217l0.00005,-0.02462l1.11748,0.00249c0.36505,-0.00567 0.68913,0.25633 0.75062,0.62742c0.06772,0.40864 -0.20865,0.79481 -0.61729,0.86253l-1.47981,0.24524l-0.02551,-0.15392c-1.33334,0.46835 -2.74349,0.81821 -4.18784,1.09805c0.14169,0.11163 0.24377,0.2744 0.27559,0.46638c0.06772,0.40864 -0.20865,0.79481 -0.61729,0.86253c-0.40864,0.06772 -0.79481,-0.20865 -0.86253,-0.61729c-0.03049,-0.18397 0.00877,-0.36339 0.09844,-0.51124c-1.51439,0.25684 -3.05395,0.45153 -4.57104,0.63831c0.00487,0.01373 0.00862,0.0281 0.01107,0.043z" fill="#000000" stroke="none" stroke-width="0.5"/><path d="M285.70307,155.34945c-0.06772,-0.40864 0.20865,-0.79481 0.61729,-0.86253c0.40864,-0.06772 0.79481,0.20865 0.86253,0.61729c0.06772,0.40864 -0.20865,0.79481 -0.61729,0.86253c-0.40864,0.06772 -0.79481,-0.20865 -0.86253,-0.61729z" fill="#000000" stroke="none" stroke-width="0.5"/><path d="M294.01344,155.11086c-0.06772,-0.40864 0.20865,-0.79481 0.61729,-0.86253c0.40864,-0.06772 0.79481,0.20865 0.86253,0.61729c0.06772,0.40864 -0.20865,0.79481 -0.61729,0.86253c-0.40864,0.06772 -0.79481,-0.20865 -0.86253,-0.61729z" fill="#000000" stroke="none" stroke-width="0.5"/><path d="M291.5501,156.27817c-0.06772,-0.40864 0.20865,-0.79481 0.61729,-0.86253c0.40864,-0.06772 0.79481,0.20865 0.86253,0.61729c0.06772,0.40864 -0.20865,0.79481 -0.61729,0.86253c-0.40864,0.06772 -0.79481,-0.20865 -0.86253,-0.61729z" fill="#000000" stroke="none" stroke-width="0.5"/><path d="M280.80491,160.14637c-0.06772,-0.40864 0.20865,-0.79481 0.61729,-0.86253c0.40864,-0.06772 0.79481,0.20865 0.86253,0.61729c0.06772,0.40864 -0.20865,0.79481 -0.61729,0.86253c-0.40864,0.06772 -0.79481,-0.20865 -0.86253,-0.61729z" fill="#000000" stroke="none" stroke-width="0.5"/><path d="M288.68467,159.5996c-0.06772,-0.40864 0.20865,-0.79481 0.61729,-0.86253c0.40864,-0.06772 0.79481,0.20865 0.86253,0.61729c0.06772,0.40864 -0.20865,0.79481 -0.61729,0.86253c-0.40864,0.06772 -0.79481,-0.20865 -0.86253,-0.61729z" fill="#000000" stroke="none" stroke-width="0.5"/><path d="M287.3668,154.31465c-0.02257,-0.13622 0.06955,-0.26494 0.20576,-0.28751c0.13622,-0.02257 0.26494,0.06955 0.28751,0.20576c0.02257,0.13622 -0.06955,0.26494 -0.20576,0.28751c-0.13622,0.02257 -0.26494,-0.06955 -0.28751,-0.20576z" fill="#000000" stroke="none" stroke-width="0.5"/><path d="M291.30563,155.18006c-0.02257,-0.13622 0.06955,-0.26494 0.20576,-0.28751c0.13622,-0.02257 0.26494,0.06955 0.28751,0.20576c0.02257,0.13622 -0.06955,0.26494 -0.20576,0.28751c-0.13622,0.02257 -0.26494,-0.06955 -0.28751,-0.20576z" fill="#000000" stroke="none" stroke-width="0.5"/><path d="M284.99319,158.31364c-0.02257,-0.13622 0.06955,-0.26494 0.20576,-0.28751c0.13622,-0.02257 0.26494,0.06955 0.28751,0.20576c0.02257,0.13622 -0.06955,0.26494 -0.20576,0.28751c-0.13622,0.02257 -0.26494,-0.06955 -0.28751,-0.20576z" fill="#000000" stroke="none" stroke-width="0.5"/><path d="M286.40956,157.69939c-0.02257,-0.13622 0.06955,-0.26494 0.20576,-0.28751c0.13622,-0.02257 0.26494,0.06955 0.28751,0.20576c0.02257,0.13622 -0.06955,0.26494 -0.20576,0.28751c-0.13622,0.02257 -0.26494,-0.06955 -0.28751,-0.20576z" fill="#000000" stroke="none" stroke-width="0.5"/></g><g><path d="M364.74131,167.33401l2.91567,6.22988l-7.19649,-1.50764z" fill="#000000" stroke="#000000" stroke-width="0" stroke-linecap="round"/><path d="M342.9587,164.22396c0.17156,-0.01799 0.30779,0.00761 0.41589,0.0577c-0.72981,-3.92236 -1.06936,-8.08587 -0.7809,-11.877c-0.00257,-0.48997 -0.00512,-0.97995 -0.00769,-1.46991l-0.00388,-0.8066c-0.00654,-0.38453 0.28202,-0.71694 0.67172,-0.75781c0.34663,-0.03635 0.66283,0.16953 0.78014,0.48115l0.55408,1.37606l-0.24787,0.0998c0.98142,2.11023 1.35736,4.44816 1.91492,6.80252c0.79145,3.34198 1.29108,6.80252 1.82989,10.24299c0.09986,0.28803 0.199,0.57418 0.29707,0.85824c-0.05405,-1.35822 -0.1291,-2.71511 -0.22012,-4.07097c-0.45595,-1.96054 -0.87839,-3.93354 -1.31341,-5.92501l-0.37025,-1.42869c-0.01096,-0.03958 -0.01882,-0.0806 -0.02324,-0.1228c-0.0432,-0.41195 0.25574,-0.78093 0.66769,-0.82414c0.0867,-0.0091 0.17149,-0.00303 0.25176,0.01605c-0.20619,-1.16766 -0.42715,-2.45153 -0.28981,-3.53717c-0.02476,-0.23667 -0.04956,-0.47334 -0.07438,-0.71002h-0.00001l-0.15645,-1.49181c-0.0432,-0.41195 0.25574,-0.78093 0.66769,-0.82414c0.41195,-0.0432 0.78093,0.25574 0.82414,0.66769l0.08471,0.80779c0.00243,0.02315 0.00486,0.04629 0.00728,0.06944c0.0534,-0.01852 0.10975,-0.03129 0.16837,-0.03744c0.29777,-0.03122 0.57309,0.11631 0.71915,0.35605l0.54553,0.85459l-0.02457,0.01569l0.06398,0.05394c2.17575,5.812 3.66383,11.73985 5.20435,17.73367c0.7253,2.82194 1.82156,5.48076 1.92877,8.29764l0.27338,-0.02867l0.15645,1.49181c0.0432,0.41195 -0.25574,0.78093 -0.66769,0.82414c-0.35498,0.03722 -0.67804,-0.17958 -0.78826,-0.50385l-0.31242,-0.85729c-1.67886,-3.69356 -3.22024,-7.45529 -4.73474,-11.22394c0.0571,0.5951 0.11484,1.19014 0.17304,1.78513c0.19882,0.69374 0.40597,1.38802 0.62303,2.08354c0.60331,1.9332 1.44616,3.34499 1.61833,5.07862l0.3161,-0.03316l0.12012,1.14543c0.0432,0.41195 -0.25574,0.78093 -0.66769,0.82414c-0.32018,0.03358 -0.61439,-0.13951 -0.74988,-0.41172l-0.34719,-0.65884l0.15076,0.48413c0.01692,0.05076 0.02862,0.10413 0.03442,0.15955c0.0432,0.41195 -0.25574,0.78093 -0.66769,0.82414c-0.35498,0.03722 -0.67804,-0.17958 -0.78826,-0.50385l-0.31982,-0.87757l0.0402,-0.01465l-0.06631,-0.07338c-0.01913,-0.17197 -0.03817,-0.34394 -0.05712,-0.51593c-0.08756,-0.09383 -0.17153,-0.19759 -0.25219,-0.30966c-0.0063,0.17256 -0.01531,0.34507 -0.0275,0.51758l0.00526,0.01904l0.18062,-0.01894l0.12012,1.14543c0.0432,0.41195 -0.25574,0.78093 -0.66769,0.82414c-0.37439,0.03926 -0.71329,-0.20407 -0.80441,-0.558l-0.36994,-1.33861c-0.8351,-3.0424 -1.37721,-6.20467 -1.88098,-9.38578c-0.53285,-1.44491 -1.05322,-2.92658 -1.53402,-4.42164c0.06867,0.61368 0.13875,1.22756 0.20991,1.84148c0.10842,0.46352 0.22211,0.92136 0.34061,1.37235c0.85649,3.25926 2.02408,5.96398 2.38047,9.36237c0,0 0.07822,0.74591 -0.66769,0.82414c-0.38648,0.04053 -0.59371,-0.14018 -0.70368,-0.32376c0.13937,1.18175 0.27526,2.36141 0.40527,3.53822l0.12012,1.14543c0.0432,0.41195 -0.25574,0.78093 -0.66769,0.82414c-0.41195,0.0432 -0.78093,-0.25574 -0.82414,-0.66769l-0.12012,-1.14543c-0.01434,-0.14619 -0.02884,-0.29243 -0.04351,-0.43872c-0.5156,-0.92386 -0.56081,-2.39312 -0.8446,-3.36478c-1.01639,-3.47995 -1.90731,-7.42862 -2.28936,-11.03614l-0.15586,-1.48628c0,0 -0.07822,-0.74591 0.66769,-0.82414zM350.48464,163.52849c0.27218,0.70794 0.53941,1.42187 0.81852,2.13475c0.92488,2.36228 1.87451,4.72334 2.85519,7.07103c-0.00584,-0.01841 -0.01175,-0.03675 -0.0177,-0.05499c-1.50282,-4.60386 -2.58174,-9.31013 -3.95253,-13.95031c0.01676,0.74552 0.02401,1.44999 0.07005,2.04034c0.07177,0.92034 0.14754,1.84 0.22648,2.75919z" fill="#43663c" stroke="none" stroke-width="0.5" stroke-linecap="butt"/><g stroke="#000000" stroke-width="0" stroke-linecap="butt"><path d="M350.11605,206.07018c-12.6326,-2.9303 -20.49786,-15.54653 -17.56756,-28.17913c2.9303,-12.6326 15.54651,-20.49787 28.17911,-17.56757c12.6326,2.9303 20.49788,15.54651 17.56758,28.17911c-2.9303,12.6326 -15.54652,20.49787 -28.17912,17.56757z" fill="url(#color-2)"/><path d="M369.09844,186.96183c-1.47299,6.35006 -7.81479,10.30371 -14.16485,8.83073c-6.35006,-1.47298 -10.30369,-7.81481 -8.83072,-14.16485c1.47299,-6.35006 7.8148,-10.3037 14.16486,-8.83073c6.35006,1.47298 10.30369,7.8148 8.83072,14.16484z" fill="#000000"/></g><path d="M343.59976,154.83686c-0.0432,-0.41195 0.25574,-0.78093 0.66769,-0.82414c0.41195,-0.0432 0.78093,0.25574 0.82414,0.66769c0.0432,0.41195 -0.25574,0.78093 -0.66769,0.82414c-0.41195,0.0432 -0.78093,-0.25574 -0.82414,-0.66769z" fill="#000000" stroke="none" stroke-width="0.5" stroke-linecap="butt"/><path d="M349.80281,154.75107c-0.0432,-0.41195 0.25574,-0.78093 0.66769,-0.82414c0.41195,-0.0432 0.78093,0.25574 0.82414,0.66769c0.0432,0.41195 -0.25574,0.78093 -0.66769,0.82414c-0.41195,0.0432 -0.78093,-0.25574 -0.82414,-0.66769z" fill="#000000" stroke="none" stroke-width="0.5" stroke-linecap="butt"/><path d="M343.5987,149.4416l-0.41718,0.0705c-0.05138,0.0207 -0.09651,0.04 -0.1359,0.05808c0.15452,-0.02613 0.31016,-0.05065 0.46674,-0.0737zM342.71976,149.53299c-0.13309,0.00849 -0.25034,-0.08958 -0.26437,-0.22343c-0.0144,-0.13732 0.08525,-0.26031 0.22256,-0.27471l0.86967,-0.0912c0.13732,-0.0144 0.26031,0.08525 0.27471,0.22256c0.00742,0.07078 -0.01545,0.13776 -0.05818,0.18802l0.05243,0.09944c0.26309,-0.03538 0.52848,-0.06692 0.79537,-0.09525c1.06276,-0.17866 2.1519,-0.32763 3.1528,-0.36562c0.12882,-0.02749 0.25734,-0.05638 0.3855,-0.08676c0.65054,-0.15424 1.28095,-0.35626 1.90963,-0.56011c-0.79874,0.09866 -1.60411,0.14726 -2.40479,0.23123c-2.82836,0.29661 -5.70973,0.42648 -8.54818,0.32414c0,0 -0.74947,-0.02805 -0.72143,-0.77753c0.02805,-0.74947 0.77753,-0.72143 0.77753,-0.72143c3.28236,0.12774 6.55762,-0.13055 9.82744,-0.47346c0.08863,-0.00929 2.62105,-0.31734 2.81763,-0.18286c1.22269,0.83641 1.05862,1.52253 0.44656,2.09946c0.24306,-0.02548 0.50111,-0.05255 0.50111,-0.05255c0.41195,-0.0432 0.78093,0.25574 0.82414,0.66769c0.03635,0.34663 -0.16953,0.66283 -0.48115,0.78014l-1.24895,0.50288l-0.09549,-0.23717c-0.30528,0.15349 -0.61809,0.29379 -0.93741,0.42224c-0.31534,0.20647 -0.62827,0.386 -0.94076,0.54557c0.21934,0.11132 0.37953,0.32814 0.4071,0.59099c0.00813,0.07754 0.00415,0.15356 -0.01045,0.22617c0.14601,0.12071 0.24667,0.29649 0.268,0.49978c0.0432,0.41195 -0.25574,0.78093 -0.66769,0.82414c-0.17608,0.01846 -0.34429,-0.02557 -0.48258,-0.11422c-0.11689,0.11542 -0.27231,0.19338 -0.4484,0.21184c-0.12142,0.01273 -0.23911,-0.00425 -0.34583,-0.0451c0.10872,0.11536 0.18187,0.26596 0.19969,0.43578c0.0432,0.41195 -0.25574,0.78093 -0.66769,0.82414c-0.03449,0.00362 -0.06868,0.00484 -0.10241,0.00379c0.07696,0.10403 0.128,0.22935 0.14247,0.36736c0.0432,0.41195 -0.25574,0.78093 -0.66769,0.82414c-0.41195,0.0432 -0.78093,-0.25574 -0.82414,-0.66769c-0.0432,-0.41195 0.25574,-0.78093 0.66769,-0.82414c0.03449,-0.00362 0.06868,-0.00484 0.10241,-0.00379c-0.07696,-0.10403 -0.128,-0.22935 -0.14247,-0.36736c-0.0432,-0.41195 0.25574,-0.78093 0.66769,-0.82414c0.12142,-0.01273 0.23911,0.00425 0.34583,0.0451c-0.10847,-0.11511 -0.18154,-0.2653 -0.19956,-0.43465c-0.73926,0.07767 -1.30884,0.16476 -1.82342,0.19197c-1.32314,0.22939 -2.67395,0.34966 -4.02824,0.46194c-0.02949,0.01707 -0.06298,0.02835 -0.09907,0.03214c-0.03997,0.0042 -0.07873,-0.00129 -0.11395,-0.01453c-0.07674,0.00633 -0.15349,0.01265 -0.23024,0.01898c0.31553,0.06109 0.56782,0.32202 0.60307,0.65824c0.0432,0.41195 -0.25574,0.78093 -0.66769,0.82414c-0.41195,0.0432 -0.78093,-0.25574 -0.82414,-0.66769c-0.03645,-0.34758 0.17066,-0.66458 0.48373,-0.7811c-0.5601,0.04687 -1.11992,0.09597 -1.67777,0.15448l-0.93099,0.09763c0,0 -0.74591,0.07822 -0.82414,-0.66769c-0.02878,-0.27436 0.05395,-0.4584 0.17005,-0.58143l-0.41359,0.04337c-0.41195,0.0432 -0.78093,-0.25574 -0.82414,-0.66769c-0.0432,-0.41195 0.25574,-0.78093 0.66769,-0.82414l0.5806,-0.06089c-0.02132,-0.05759 -0.03586,-0.11875 -0.04255,-0.18265c-0.0432,-0.41195 0.25574,-0.78093 0.66769,-0.82414l1.47606,-0.1548c0.30897,-0.0324 0.65774,-0.08362 1.03651,-0.14674c0.44973,-0.12773 0.91717,-0.23442 1.3969,-0.32427c0.00578,-0.03348 0.01213,-0.06641 0.01923,-0.09864z" fill="#000000" stroke="none" stroke-width="0.5" stroke-linecap="butt"/><path d="M341.64923,155.98263c-0.0432,-0.41195 0.25574,-0.78093 0.66769,-0.82414c0.41195,-0.0432 0.78093,0.25574 0.82414,0.66769c0.0432,0.41195 -0.25574,0.78093 -0.66769,0.82414c-0.41195,0.0432 -0.78093,-0.25574 -0.82414,-0.66769z" fill="#000000" stroke="none" stroke-width="0.5" stroke-linecap="butt"/><path d="M342.85359,158.49175c-0.0432,-0.41195 0.25574,-0.78093 0.66769,-0.82414c0.41195,-0.0432 0.78093,0.25574 0.82414,0.66769c0.0432,0.41195 -0.25574,0.78093 -0.66769,0.82414c-0.41195,0.0432 -0.78093,-0.25574 -0.82414,-0.66769z" fill="#000000" stroke="none" stroke-width="0.5" stroke-linecap="butt"/><path d="M345.46034,158.21837c-0.0432,-0.41195 0.25574,-0.78093 0.66769,-0.82414c0.41195,-0.0432 0.78093,0.25574 0.82414,0.66769c0.0432,0.41195 -0.25574,0.78093 -0.66769,0.82414c-0.41195,0.0432 -0.78093,-0.25574 -0.82414,-0.66769z" fill="#000000" stroke="none" stroke-width="0.5" stroke-linecap="butt"/><path d="M353.99677,155.25248c-0.0432,-0.41195 0.25574,-0.78093 0.66769,-0.82414c0.41195,-0.0432 0.78093,0.25574 0.82414,0.66769c0.0432,0.41195 -0.25574,0.78093 -0.66769,0.82414c-0.41195,0.0432 -0.78093,-0.25574 -0.82414,-0.66769z" fill="#000000" stroke="none" stroke-width="0.5" stroke-linecap="butt"/><path d="M344.93946,155.6376c-0.0144,-0.13732 0.08525,-0.26031 0.22256,-0.27471c0.13732,-0.0144 0.26031,0.08525 0.27471,0.22256c0.0144,0.13732 -0.08525,0.26031 -0.22256,0.27471c-0.13732,0.0144 -0.26031,-0.08525 -0.27471,-0.22256z" fill="#000000" stroke="none" stroke-width="0.5" stroke-linecap="butt"/><path d="M348.1829,156.05043c-0.0144,-0.13732 0.08525,-0.26031 0.22256,-0.27471c0.13732,-0.0144 0.26031,0.08525 0.27471,0.22256c0.0144,0.13732 -0.08525,0.26031 -0.22256,0.27471c-0.13732,0.0144 -0.26031,-0.08525 -0.27471,-0.22256z" fill="#000000" stroke="none" stroke-width="0.5" stroke-linecap="butt"/></g><g stroke-width="0"><path d="M367.71535,179.44096l1.67411,7.05676l-7.45814,-2.8548z" fill="#000000" stroke="#000000" stroke-linecap="round"/><path d="M344.72623,122.98622c-1.15555,-0.99755 -1.80005,-2.50594 -1.60654,-4.14868c0.21824,-1.85272 1.44746,-3.41009 3.09889,-4.19546c1.55286,-2.10237 7.42281,0.24357 9.1505,1.13826c6.31026,3.26779 11.83671,11.92748 13.77252,18.52678c6.07122,20.69735 -11.46163,41.73646 -9.37734,62.3982c1.16409,11.53963 8.86616,21.61496 10.36731,33.17876c0.49057,3.77903 -0.10998,10.96546 -6.26587,10.59668c-1.76429,-0.1057 -3.19189,-1.52547 -4.2982,-2.79928c-0.87188,-1.00389 0.0066,-5.23969 0.04505,-5.99503c0.18025,-3.54094 -1.77963,-7.46445 -2.93491,-10.65063c-2.57655,-7.10587 -7.37054,-15.70836 -7.4941,-23.51585c-0.32036,-20.24211 11.14655,-39.20477 9.88317,-59.43079c-0.23834,-3.81569 -5.69086,-10.97807 -8.19648,-12.89898c-0.96125,-0.73693 -2.03729,-0.84109 -3.11765,-0.99162c-0.48,-0.03088 -0.93748,-0.1228 -1.36515,-0.26738c-0.39506,-0.11557 -0.78429,-0.27713 -1.16203,-0.51941c-0.19052,-0.1222 -0.35521,-0.26546 -0.49918,-0.42559z" fill="#c2d183" stroke="none" stroke-linecap="butt"/><path d="M371.15074,113.18431c0.72113,-2.3296 3.07666,-3.98814 5.65593,-3.83363c1.50845,0.09036 2.79637,0.78306 3.63898,1.81927c0.14515,0.1785 0.27708,0.36719 0.39465,0.56474c1.91272,1.91083 4.16356,3.60567 6.23813,5.35743c0.03752,0.03168 0.0481,0.08631 0.08497,0.11869c18.07984,15.88134 11.74173,44.94976 8.15745,66.00721c-0.30152,1.7714 -0.82757,3.51455 -1.11443,5.28749c-0.37746,2.33279 -0.64064,4.67814 -0.82726,7.02285c-0.20431,2.56718 3.13523,6.75933 1.68194,9.26863c-2.46582,4.25759 -4.58965,4.91702 -8.92009,2.76961c-4.12335,-2.04471 -2.64797,-18.03365 -2.40895,-19.94212c0.22329,-1.78288 1.0153,-4.09959 1.20841,-5.53228c1.47152,-10.9173 4.5242,-26.54871 3.51246,-38.75143c-0.47972,-5.78599 -2.05201,-11.99939 -6.15542,-16.24186c-3.07391,-3.17808 -12.30175,-7.52149 -11.33693,-13.29906c0.03663,-0.21936 0.10135,-0.42385 0.19017,-0.61555z" fill="#c2d183" stroke="none" stroke-linecap="butt"/><path d="M352.6745,118.07215c0.32841,-2.78791 2.94602,-4.90709 5.84661,-4.73333c0.45466,0.02724 0.88928,0.10919 1.29772,0.23879c1.1458,-0.22477 2.71128,2.02111 3.32369,2.79877c2.87921,3.6561 5.1075,7.11768 7.30962,11.20593c11.03462,20.48586 -0.53615,41.89325 -2.42831,63.41899c-0.3047,3.46648 -0.1417,7.58365 0.8305,10.9052c0.29092,0.99395 1.8361,3.02334 1.76217,3.65101c-0.19976,1.69575 -0.58199,3.70021 -1.97078,4.82455c-8.74955,7.0835 -10.75004,-8.84407 -11.05801,-12.62459c-0.0989,-1.214 -0.20409,-2.53383 -0.19492,-3.75908c0.13458,-17.99527 9.3855,-34.82862 6.6609,-53.07776c-0.92267,-6.17995 -4.70242,-11.89588 -8.36772,-16.73811c-0.72992,-0.9643 -4.35668,-4.72379 -3.01146,-6.1104z" fill="#b8ae43" stroke="none" stroke-linecap="butt"/><path d="M394.13797,171.61947c0.65485,0.92041 0.9782,2.07295 0.83361,3.30051c-0.21824,1.85272 -1.44748,3.4101 -3.09889,4.19546c-0.60065,0.8132 -1.94663,0.74338 -3.10188,0.50519c-0.52466,-0.10818 -1.00997,-0.25108 -1.36828,-0.36177c-4.00276,-1.23661 -4.30864,-6.50205 -4.48665,-10.16255c-0.25032,-5.14706 -0.37008,-12.0773 -1.20131,-17.1413c-1.02762,-6.2605 -3.54848,-12.09578 -4.7391,-18.32109c-2.12233,-11.09697 -0.89863,-14.27733 -7.73127,-24.36169c-1.83925,-2.71457 -4.11101,-6.43528 0.47471,-9.22902c5.16823,-3.14862 7.41317,1.8166 9.4167,4.68121c5.94958,8.50655 6.9407,16.6413 8.27842,26.77906c0.50252,3.80835 1.84781,6.67386 2.78922,10.38451c1.44605,5.69965 2.33692,11.56137 2.87683,17.44551c0.43095,4.69662 0.29026,8.29256 1.05789,12.28597z" fill="#b8ae43" stroke="none" stroke-linecap="butt"/><path d="M376.49796,99.14637c1.1397,0.99764 1.77344,2.49599 1.58134,4.12676c-0.00524,0.04444 -0.01106,0.08872 -0.01746,0.13283c0.06892,0.61606 -0.14611,1.16421 -0.54237,1.65427c-0.97969,1.84961 -3.04903,3.08028 -5.28679,2.94623c-2.05019,0.81614 -4.42297,-2.88421 -5.66882,-3.64585c-4.39873,-2.68911 -9.67903,-5.82842 -15.19,-6.16553c-6.22971,-0.38109 -13.64335,0.31962 -19.65066,2.79626c-1.40368,0.57869 -3.62483,2.53211 -5.46353,2.66239c-2.83114,0.2006 -5.375,0.38643 -6.26724,-3.59058c-1.48191,-6.60525 10.67787,-9.33261 15.14111,-10.33923c12.5397,-2.82816 25.43958,-2.08273 35.80961,5.01192c2.33273,1.59594 4.27006,2.71199 5.5548,4.41054z" fill="#b8ae43" stroke="none" stroke-linecap="butt"/><path d="M372.94936,106.76769c0.74432,0.94782 1.12208,2.17134 0.96792,3.48013c-0.00524,0.04444 -0.01106,0.08872 -0.01746,0.13283c0.04319,0.38614 -0.02516,0.74561 -0.17977,1.08081c5.35583,7.74746 12.90129,19.42776 11.24097,27.73407c-1.22618,6.13439 -1.83858,12.42214 -4.01407,18.35458c-2.22942,6.07951 -5.93874,12.18966 -6.17968,18.74135c-0.32016,8.70602 3.49153,17.83166 5.29595,26.14612c1.87221,8.62677 3.29392,17.48626 5.55318,25.96614c0.74236,2.78638 0.06637,6.00644 -3.89126,6.99983c-7.50899,1.88479 -8.53644,-13.63656 -9.3631,-17.80069c-0.33805,-1.70286 -0.6972,-3.40086 -1.054,-5.09936c-0.52163,-2.48319 -0.99425,-4.97887 -1.58127,-7.44569c-2.17962,-9.15931 -6.39112,-19.38802 -5.50576,-29.03689c1.19555,-13.02954 8.89661,-24.11705 10.17506,-37.37473c0.94703,-9.82093 -8.76288,-18.24406 -13.01752,-25.77263c-0.39282,-0.69509 -0.57248,-1.51754 -0.54927,-2.36109c0.00225,-0.16878 0.01333,-0.33945 0.03361,-0.5116c0.04073,-0.3458 0.11668,-0.6813 0.22402,-1.00342c0.00755,-0.02393 0.01529,-0.04783 0.02317,-0.07167c-1.07448,-0.67581 -2.35217,-1.27546 -3.69988,-1.78381c-2.68915,-1.0143 -5.65709,-1.66497 -7.8458,-1.8313c-4.7877,-0.36384 -9.48659,-1.1887 -14.25596,-0.32414c-2.9188,0.5291 -7.33437,4.78191 -10.20977,2.60271c-1.35718,-1.02857 -2.50883,-2.70978 -2.43736,-4.40872c0.27377,-6.50745 11.24237,-8.59402 16.30981,-8.59368c10.37617,0.0007 29.23782,1.35638 33.97824,12.18085z" fill="#b3c46f" stroke="none" stroke-linecap="butt"/><path d="M372.33178,111.70762c1.3491,0.34803 15.40854,28.65986 15.53709,29.89767c0.67379,6.48737 0.0639,13.02472 -0.52643,19.59343c-0.65119,7.24597 -2.46566,14.36299 -3.09277,21.55007c-0.75242,8.62319 3.50785,17.11183 2.54472,25.66101c-0.76846,6.82117 -1.41208,13.65256 -2.40977,20.45749c-0.38907,2.65372 -2.43966,4.93743 -5.84661,4.73333c-3.40971,-0.20426 -4.89317,-2.69968 -4.65739,-5.36259c0.59226,-6.68893 1.63825,-13.35623 2.36055,-20.0397c0.84279,-7.79833 -2.2925,-16.33634 -2.55613,-24.22367c-0.23111,-6.9143 2.37657,-16.80706 3.13323,-23.22729c0.58633,-4.97503 1.05892,-10.71352 0.74265,-15.74357c-0.11898,-1.89233 -0.92309,-4.2748 -0.32896,-6.13094c0.06855,-0.21416 -13.907,-21.95727 -13.79057,-22.13888c1.01384,-1.58139 -0.94606,-5.92038 1.63407,-7.37911c2.58013,-1.45873 7.25632,2.35273 7.25632,2.35273z" fill="#c4de76" stroke="none" stroke-linecap="butt"/><path d="M347.03377,124.14377c-1.31191,0.70856 -5.64754,-2.1971 -7.35327,-2.30158c-1.65019,-0.10108 -3.30023,-0.20353 -4.95136,-0.29662c-2.45513,-0.1384 -3.65405,2.43387 -6.66143,2.04063c-3.47689,-0.45463 -4.91597,-5.23724 -3.17962,-8.14753c1.49901,-2.51248 4.54582,-2.57641 6.93034,-3.40586c4.64904,-1.61719 12.31604,-0.96052 16.93523,2.13333c1.95027,1.30625 3.35723,3.04697 3.76435,5.23443z" fill="#c2d183" stroke="none" stroke-linecap="butt"/><path d="M361.3243,113.68391c1.19636,0.99661 1.86879,2.53053 1.67166,4.20389c-0.00524,0.04444 -0.01106,0.08872 -0.01746,0.13283c0.06892,0.61606 -0.1461,1.1642 -0.54236,1.65427c-0.97969,1.84961 -3.04903,3.08028 -5.28679,2.94623c-1.30766,0.52056 -2.22451,-0.19628 -2.96523,-1.1417c-0.67112,-0.55287 -1.17961,-1.27387 -1.46536,-2.0938c-0.14529,-0.17459 -0.28972,-0.31774 -0.43639,-0.41494c-2.37727,-1.57545 -5.57988,-3.89674 -8.59454,-4.47756c-3.2876,-0.63341 -7.36044,-0.92571 -10.5567,-1.06997c-2.09612,-0.09461 -3.32588,3.52776 -6.3672,2.32581c-1.61058,-0.63652 -3.46117,-1.52173 -4.07154,-3.08572c-2.19985,-5.63694 6.06234,-8.78158 10.29376,-9.41592c8.32592,-1.24814 23.25349,2.91881 28.33814,10.4366z" fill="#b8ae43" stroke="none" stroke-linecap="butt"/></g><path d="M331.92808,90.58469c2.86718,-5.35848 -0.90001,-9.17806 3.84506,-15.30082c4.74507,-6.12275 6.31933,-10.23874 13.46849,-14.35835c7.14916,-4.11962 7.40239,-7.80612 19.69843,-4.75364c12.29603,3.05247 23.86473,12.10595 27.8389,16.5547c3.97418,4.44874 -0.81124,12.75391 0.52643,15.1978c1.33766,2.44388 1.71112,1.10053 6.43655,-2.47657c4.72543,-3.57709 10.85923,-10.61611 10.85923,-10.61611c0,0 -3.13861,14.18292 -7.90881,18.38513c-4.77021,4.2022 -9.56207,7.03305 -14.94974,1.75156c-5.38767,-5.28148 4.20496,-10.55453 -2.04417,-18.4105c-6.24913,-7.85596 -14.96271,-11.30293 -22.38655,-12.30212c-7.42384,-0.99919 -12.64386,0.90415 -17.41826,6.94471c-4.77442,6.04057 -4.13303,14.07196 -5.9475,20.04673c-1.81448,5.97476 -8.33244,13.63153 -8.33244,13.63153c0,0 -2.81038,1.97985 -5.51393,0.87914c-2.70797,-1.10253 -2.71767,-7.3664 -2.71767,-7.3664c0,0 1.67878,-2.44834 4.54596,-7.80681z" fill="#026b00" stroke="#000000" stroke-width="0" stroke-linecap="round"/></g></g></svg>