<svg version="1.1" xmlns="http://www.w3.org/2000/svg" xmlns:xlink="http://www.w3.org/1999/xlink" width="34.17311" height="34.17311" viewBox="0,0,34.17311,34.17311"><g transform="translate(-302.91346,-162.91346)"><g stroke-miterlimit="10"><path d="M309.98312,162.91347h20.03379c3.9166,0 7.06966,3.15307 7.06966,7.06966v20.03379c0,3.91659 -3.15306,7.06966 -7.06966,7.06966h-20.03379c-3.91659,0 -7.06966,-3.15307 -7.06966,-7.06966v-20.03379c0,-3.91659 3.15307,-7.06966 7.06966,-7.06966z" fill="#e6e6e6" fill-rule="evenodd" stroke="none" stroke-width="4.43922" stroke-linecap="round" stroke-linejoin="round"/><g fill-rule="nonzero" stroke-width="2" stroke-linejoin="miter"><path d="M321.6621,168.34468c-0.77449,-0.23235 -1.41914,-0.78405 -1.08735,-1.57665c0.33179,-0.7926 0.5209,-1.22466 2.06596,-0.76114c1.54506,0.46352 3.37077,2.39216 3.37077,2.39216c0,0 -3.57489,0.17798 -4.34938,-0.05437z" fill="#1c66ff" stroke="#000000" stroke-linecap="round"/><path d="M324.38046,173.40084c0,0 0.48319,-1.36173 0.83059,-2.34075c0.07371,-0.20774 0.14132,-0.39826 0.19689,-0.55487c0.27423,-0.77281 0.76664,-2.16054 0.76664,-2.16054" fill="none" stroke="#000000" stroke-linecap="round"/><path d="M329.40772,168.40862c0.59161,0.17748 1.08405,0.59891 0.8306,1.20436c-0.25344,0.60545 -0.3979,0.93549 -1.57813,0.58142c-1.18024,-0.35407 -2.57485,-1.82731 -2.57485,-1.82731c0,0 2.73077,-0.13595 3.32238,0.04154z" fill="#1c66ff" stroke="#000000" stroke-linecap="round"/><path d="M312.52841,181.88213c0,0 0.05767,-11.90675 10.81908,-10.38415c14.68773,2.07813 6.90464,12.66758 6.90464,12.66758z" fill="#d02727" stroke="#000000" stroke-linecap="round"/><path d="M327.73732,172.52718c0,0 3.69292,1.26504 4.34706,4.15181c1.09664,3.64533 -1.72352,7.43219 -1.72352,7.43219l-6.3066,-0.81551z" fill="#1d24ff" stroke="none" stroke-linecap="round"/><path d="M322.92931,171.33334c1.55729,0.15853 4.89398,1.21661 4.89398,1.21661l-3.75134,10.90883l-10.13,-2.60963l4.67558,-9.03381c0,0 2.02671,-0.72579 4.31178,-0.48201z" fill="#ffd71b" stroke="none" stroke-linecap="round"/><path d="M312.52841,181.88213c0,0 0.05767,-11.90675 10.81908,-10.38415c14.68773,2.07813 6.90464,12.66758 6.90464,12.66758z" fill="none" stroke="#000000" stroke-linecap="round"/><path d="M308.01592,183.62188c0,0 1.29698,-3.94188 3.69698,-3.69698c2.4,0.2449 5.27296,2.32599 9.29588,3.21318c4.02292,0.88718 5.0027,-0.05987 5.0027,-0.05987" fill="#094c00" stroke="#000000" stroke-linecap="round"/><path d="M307.25738,183.19396h25.48524v10.82274c-8.49519,0.03857 -16.99033,0.09001 -25.48524,0.16689z" fill="#e6dfd1" stroke="#000000" stroke-linecap="butt"/><path d="M308.59871,184.53529h22.71875v9.48801c-7.57301,0.0357 -15.14596,0.08219 -22.71875,0.14836z" fill="#000000" stroke="#000000" stroke-linecap="butt"/><path d="M308.07029,183.40442c0,0 1.24261,-3.72441 3.64261,-3.47951c2.4,0.2449 5.27296,2.32599 9.29588,3.21318c4.02292,0.88718 5.0027,-0.05987 5.0027,-0.05987" fill="none" stroke="#000000" stroke-linecap="round"/></g><path d="" fill="#e6dfd1" fill-rule="nonzero" stroke="#000000" stroke-width="2" stroke-linecap="butt" stroke-linejoin="miter"/><path d="" fill="#000000" fill-rule="nonzero" stroke="#000000" stroke-width="1" stroke-linecap="butt" stroke-linejoin="miter"/><g fill-rule="nonzero" stroke-linejoin="miter"><path d="M321.6621,168.34468c-0.77449,-0.23235 -1.41914,-0.78405 -1.08735,-1.57665c0.33179,-0.7926 0.5209,-1.22466 2.06596,-0.76114c1.54506,0.46352 3.37077,2.39216 3.37077,2.39216c0,0 -3.57489,0.17798 -4.34938,-0.05437z" fill="#ffffff" stroke="#000000" stroke-width="0" stroke-linecap="round"/><path d="M324.38046,173.40084c0,0 0.48319,-1.36173 0.83059,-2.34075c0.07371,-0.20774 0.14132,-0.39826 0.19689,-0.55487c0.27423,-0.77281 0.76664,-2.16054 0.76664,-2.16054" fill="none" stroke="#000000" stroke-width="0.5" stroke-linecap="round"/><path d="M329.40772,168.40862c0.59161,0.17748 1.08405,0.59891 0.8306,1.20436c-0.25344,0.60545 -0.3979,0.93549 -1.57813,0.58142c-1.18024,-0.35407 -2.57485,-1.82731 -2.57485,-1.82731c0,0 2.73077,-0.13595 3.32238,0.04154z" fill="#ffffff" stroke="#000000" stroke-width="0" stroke-linecap="round"/><path d="M312.52841,181.88213c0,0 0.05767,-11.90675 10.81908,-10.38415c14.68773,2.07813 6.90464,12.66758 6.90464,12.66758z" fill="#a6a6a6" stroke="#000000" stroke-width="0" stroke-linecap="round"/><path d="M327.73732,172.52718c0,0 3.69292,1.26504 4.34706,4.15181c1.09664,3.64533 -1.72352,7.43219 -1.72352,7.43219l-6.3066,-0.81551z" fill="#e0e0e0" stroke="none" stroke-width="0" stroke-linecap="round"/><path d="M322.92931,171.33334c1.55729,0.15853 4.89398,1.21661 4.89398,1.21661l-3.75134,10.90883l-10.13,-2.60963l4.67558,-9.03381c0,0 2.02671,-0.72579 4.31178,-0.48201z" fill="#ffffff" stroke="none" stroke-width="0" stroke-linecap="round"/><path d="M312.52841,181.88213c0,0 0.05767,-11.90675 10.81908,-10.38415c14.68773,2.07813 6.90464,12.66758 6.90464,12.66758z" fill="none" stroke="#000000" stroke-width="0" stroke-linecap="round"/><path d="M308.01592,183.62188c0,0 1.29698,-3.94188 3.69698,-3.69698c2.4,0.2449 5.27296,2.32599 9.29588,3.21318c4.02292,0.88718 5.0027,-0.05987 5.0027,-0.05987" fill="#4d4d4d" stroke="#000000" stroke-width="0" stroke-linecap="round"/><path d="M307.25738,183.19396h25.48524v10.82274c-8.49519,0.03857 -16.99033,0.09001 -25.48524,0.16689z" fill="#e6e6e6" stroke="#000000" stroke-width="0" stroke-linecap="butt"/><path d="M308.59871,184.53529h22.71875v9.48801c-7.57301,0.0357 -15.14596,0.08219 -22.71875,0.14836z" fill="#000000" stroke="#000000" stroke-width="0" stroke-linecap="butt"/><path d="M312.2022,179.97928l13.70054,2.9902c0,0 -1.26097,0.84423 -2.17468,0.86988c-2.74154,0.07692 -11.52586,-3.86007 -11.52586,-3.86007z" fill="#c4c4c4" stroke="#000000" stroke-width="0" stroke-linecap="round"/><path d="M308.07029,183.40442c0,0 1.24261,-3.72441 3.64261,-3.47951c2.4,0.2449 5.27296,2.32599 9.29588,3.21318" fill="none" stroke="#000000" stroke-width="0" stroke-linecap="round"/></g><path d="M306.0138,195.33684v-1.44217h27.99489v1.44217z" fill="#e6e6e6" fill-rule="nonzero" stroke="none" stroke-width="0" stroke-linecap="butt" stroke-linejoin="miter"/></g></g></svg>