<svg version="1.1" xmlns="http://www.w3.org/2000/svg" xmlns:xlink="http://www.w3.org/1999/xlink" width="213.18203" height="284.22652" viewBox="0,0,213.18203,284.22652"><defs><linearGradient x1="379.69278" y1="56.23991" x2="379.69278" y2="95.39789" gradientUnits="userSpaceOnUse" id="color-1"><stop offset="0" stop-color="#000000" stop-opacity="0"/><stop offset="1" stop-color="#000000" stop-opacity="0.12941"/></linearGradient><linearGradient x1="259.57654" y1="56.23991" x2="259.57654" y2="95.39789" gradientUnits="userSpaceOnUse" id="color-2"><stop offset="0" stop-color="#000000" stop-opacity="0"/><stop offset="1" stop-color="#000000" stop-opacity="0.12941"/></linearGradient><linearGradient x1="320.08742" y1="187.07227" x2="320.08742" y2="244.23177" gradientUnits="userSpaceOnUse" id="color-3"><stop offset="0" stop-color="#424242"/><stop offset="1" stop-color="#424242" stop-opacity="0"/></linearGradient></defs><g transform="translate(-214.52362,-35.84574)"><g stroke-miterlimit="10"><g stroke-width="2" stroke-linecap="round"><path d="M336.15832,84.93094l55.16668,-46.64406l-11.40188,84.5216" fill="#ffffff" stroke="#000000"/><path d="M373.47357,95.39789c0,0 3.19735,-13.92182 5.3091,-20.56995c2.03125,-6.39468 7.12931,-18.58803 7.12931,-18.58803" fill="none" stroke="url(#color-1)"/></g><g stroke-width="2" stroke-linecap="round"><path d="M259.3462,122.80847l-11.40188,-84.52159l55.16668,46.64406" fill="#ffffff" stroke="#000000"/><path d="M253.35734,56.23991c0,0 5.09806,12.19335 7.12931,18.58803c2.11176,6.64812 5.30911,20.56994 5.30911,20.56994" fill="none" stroke="url(#color-2)"/></g><g stroke="#000000" stroke-linecap="butt"><path d="M286.35186,319.07226l15.14285,-131.8421l37.78325,-0.15789l13.57389,132z" fill="#ffffff" stroke-width="0"/><path d="M295.01902,243.61117l6.47569,-56.38101l37.78325,-0.15789l5.87786,57.15951z" fill="url(#color-3)" stroke-width="0"/><path d="M286.35186,319.07226l15.14285,-131.8421l37.78325,-0.15789l13.57389,132z" fill="none" stroke-width="2"/></g><g fill="#ffffff"><path d="M255.36488,142.58671c0,-33.30185 28.7599,-60.29833 64.23702,-60.29833c35.47713,0 64.23702,26.99648 64.23702,60.29833c0,33.30185 -28.75989,60.29834 -64.23702,60.29834c-35.47712,0 -64.23702,-26.99649 -64.23702,-60.29834z" stroke="#000000" stroke-width="2" stroke-linecap="butt"/><path d="M259.11586,165.88224l6.91023,-0.46068l23.95547,26.48922l-7.14057,2.76409z" stroke="none" stroke-width="0" stroke-linecap="round"/><path d="M286.06576,193.98385l-21.42172,9.21364v-16.35421l-34.55115,-21.65206l30.17468,0.23034" stroke="#000000" stroke-width="2" stroke-linecap="round"/><path d="M356.42833,194.67488l-7.14057,-2.76409l23.95547,-26.48922l6.91024,0.46068z" stroke="none" stroke-width="0" stroke-linecap="round"/><path d="M379.00176,165.42156l30.17467,-0.23034l-34.55115,21.65205v16.35422l-21.42172,-9.21364" stroke="#000000" stroke-width="2" stroke-linecap="round"/></g><path d="M214.52362,306.61252v-267.72501h213.18203v267.72501z" fill="none" stroke="none" stroke-width="0" stroke-linecap="butt"/><g fill="#000000" stroke="#000000" stroke-width="2" stroke-linecap="round"><path d="M269.25055,139.99971l-4.09184,-9.8548l8.54478,4.56559z"/><path d="M271.06868,144.32359l-9.99773,-3.72904l9.1668,-3.13492z"/></g><path d="M268.99199,142.86233c0,-12.96801 10.51265,-23.48065 23.48066,-23.48065c12.96801,0 23.48065,10.51264 23.48065,23.48065c0,12.96801 -10.51264,23.48066 -23.48065,23.48066c-12.96801,0 -23.48066,-10.51265 -23.48066,-23.48066z" fill="#ffffff" stroke="#000000" stroke-width="2" stroke-linecap="butt"/><path d="M277.49999,143.65277c0,-8.29964 6.72818,-15.02784 15.02783,-15.02784c8.29964,0 15.02784,6.72819 15.02784,15.02785c0,8.29964 -6.72819,15.02785 -15.02784,15.02785c-8.29964,0 -15.02783,-6.72819 -15.02783,-15.02785z" fill="#ffffff" stroke="#000000" stroke-width="5" stroke-linecap="butt"/><path d="" fill="none" stroke="#000000" stroke-width="2" stroke-linecap="round"/><g fill="#000000" stroke="#000000" stroke-width="2" stroke-linecap="round"><path d="M365.50032,134.7105l8.54478,-4.5656l-4.09185,9.8548z"/><path d="M368.96605,137.45963l9.1668,3.13492l-9.99773,3.72905z"/></g><path d="M346.73111,166.34301c-12.96801,0 -23.48065,-10.51265 -23.48065,-23.48066c0,-12.96801 10.51264,-23.48065 23.48065,-23.48065c12.96801,0 23.48066,10.51264 23.48066,23.48065c0,12.96801 -10.51265,23.48066 -23.48066,23.48066z" fill="#ffffff" stroke="#000000" stroke-width="2" stroke-linecap="butt"/><path d="M361.4579,143.43956c0,8.29966 -6.72818,15.02785 -15.02783,15.02785c-8.29964,0 -15.02784,-6.72821 -15.02784,-15.02785c0,-8.29966 6.7282,-15.02785 15.02784,-15.02785c8.29964,0 15.02783,6.7282 15.02783,15.02784z" fill="#ffffff" stroke="#000000" stroke-width="5" stroke-linecap="butt"/><path d="M281.11375,106.78199c0,0 7.6761,-3.57887 12.90237,-3.63287c5.22628,-0.054 11.88349,3.37677 11.88349,3.37677c0,0 -7.83084,-1.81468 -11.86692,-1.77297c-4.21786,0.04358 -12.91895,2.02907 -12.91895,2.02907z" fill="#000000" stroke="none" stroke-width="0" stroke-linecap="butt"/><path d="M344.45579,105.63894c-4.02426,-0.31146 -11.9589,0.9756 -11.9589,0.9756c0,0 6.87169,-2.978 12.08266,-2.57469c5.21097,0.40329 12.63061,4.48738 12.63061,4.48738c0,0 -8.54887,-2.56279 -12.75437,-2.88828z" fill="#000000" stroke="none" stroke-width="0" stroke-linecap="butt"/><path d="M268.99199,142.86233c0,-12.96801 10.51265,-23.48065 23.48066,-23.48065c12.96801,0 23.48065,10.51264 23.48065,23.48065c0,0.23058 -12.08789,-4.16887 -24.13839,-4.18544c-11.41281,-0.0157 -22.82292,4.36242 -22.82292,4.18544z" fill="#ffffff" stroke="#000000" stroke-width="2" stroke-linecap="butt"/><path d="M323.25046,142.86235c0,-12.96801 10.51264,-23.48065 23.48065,-23.48065c12.96801,0 23.48066,10.51264 23.48066,23.48065c0,0.41697 -12.7741,-2.96714 -25.12523,-2.9859c-11.05786,-0.0168 -21.83608,3.3766 -21.83608,2.9859z" fill="#ffffff" stroke="#000000" stroke-width="2" stroke-linecap="butt"/><path d="M318.45138,210.19782c-13.30261,0.14699 -20.63822,-24.73659 -20.63822,-24.73659c0,0 14.47498,1.33644 21.53456,1.25843c6.83008,-0.07547 20.15717,-1.71911 20.15717,-1.71911c0,0 -7.7509,25.05028 -21.05351,25.19727z" fill="#000000" stroke="#000000" stroke-width="2" stroke-linecap="round"/></g></g></svg>