<svg version="1.1" xmlns="http://www.w3.org/2000/svg" xmlns:xlink="http://www.w3.org/1999/xlink" width="348.58901" height="260.43974" viewBox="0,0,348.58901,260.43974"><g transform="translate(-145.70549,-62.08505)"><g stroke="none" stroke-miterlimit="10"><path d="M145.7055,62.08505h348.58901v260.43974h-348.58901z" fill="#ffffff" fill-rule="evenodd" stroke-width="2.07968" stroke-linecap="round" stroke-linejoin="round"/><text transform="translate(226.36255,98.36735) scale(0.5,0.5)" font-size="40" xml:space="preserve" fill="#000000" fill-rule="nonzero" stroke-width="1" stroke-linecap="butt" stroke-linejoin="miter" font-family="Sans Serif" font-weight="normal" text-anchor="start"><tspan x="0" dy="0">Credits</tspan></text><path d="M196.62,258.95973c0.38905,-0.31831 0.70736,0.07073 0.70736,0.07073l0.35272,0.43111c3.46344,4.23309 8.75574,7.01463 11.97264,11.424l0.05381,-0.0489l0.67506,0.74263c0.08191,0.08943 0.13188,0.20859 0.13188,0.33941c0,0.27762 -0.22505,0.50267 -0.50268,0.50267h-1.00534v-0.01329l-0.05348,0.01045c-2.57981,-0.54972 -5.15668,-1.11348 -7.73469,-1.6716c-3.93032,-0.8509 -7.86064,-1.70179 -11.79096,-2.55268c-1.91459,-0.4145 -4.19398,-0.56319 -5.83957,-1.63946c0,0 -0.10072,-0.06714 -0.17035,-0.18495l-0.4001,-0.04193c-2.88403,-0.57568 -5.96586,-1.19222 -8.47932,-2.78951c-0.71544,-0.45467 -2.24705,-1.62131 -1.80879,-2.69002c0.17267,-0.42107 0.80491,-0.42645 1.22061,-0.61166c0.36963,-0.16468 1.34496,-0.58716 2.20021,-0.83111c-1.28732,-0.22037 -2.62716,-0.66628 -3.50286,-1.51766c-2.03929,-2.06575 -3.46859,-6.88104 -0.63262,-9.09166c1.96232,-1.52961 5.13611,-1.60871 7.35348,-2.71843c0,0 0.44961,-0.22481 0.67441,0.2248c0.2248,0.4496 -0.2248,0.67441 -0.2248,0.67441c-2.16101,1.07954 -5.26296,1.17618 -7.19171,2.61731c-2.35927,1.76282 -0.85765,6.00016 0.73381,7.58437c0.94497,0.99311 2.87542,1.27956 4.209,1.39858l0.06844,0.05108l0.01049,-0.02363l0.63032,0.27994c0.18154,0.07581 0.30913,0.25503 0.30913,0.46406c0,0.20066 -0.11758,0.37387 -0.28761,0.45448l-0.49305,0.24653l-0.05928,-0.11856c-0.77216,0.42236 -1.57426,0.57229 -2.51895,0.89949c-0.519,0.17976 -1.28089,-0.01408 -1.58745,0.44166c-0.28582,0.42491 2.06928,1.73283 2.2995,1.84739c2.27785,1.13338 4.73095,1.71376 7.22769,2.21416l0.49914,0.05124c0,0 0.31955,0.03317 0.42121,0.30193c0.03598,0.01711 0.05713,0.03121 0.05713,0.03121c1.48123,1.01083 3.74666,1.11495 5.49463,1.49338c3.93032,0.8509 7.86064,1.70179 11.79096,2.55268c2.4922,0.53955 4.98586,1.07272 7.47618,1.62089c-0.93012,-0.63147 -1.65928,-1.78571 -2.50092,-2.49907c-3.31161,-2.80682 -6.75084,-5.42392 -9.50326,-8.78798l-0.35273,-0.43111c0,0 -0.31831,-0.38904 0.07074,-0.70735z" fill="#000000" fill-rule="nonzero" stroke-width="0.5" stroke-linecap="butt" stroke-linejoin="miter"/><path d="M216.58087,238.7943c-2.90191,1.81426 -5.75679,2.35434 -8.93875,1.03099c-0.73388,-0.48691 -1.24363,-1.49834 -2.12095,-1.57559c-0.51586,-0.04542 -1.06155,1.75305 -1.06589,1.76469c-0.4008,1.0773 -0.61563,2.86068 -2.37241,2.85595c-0.67058,-0.0018 -1.05283,-0.83217 -1.55254,-1.27935c-1.3768,-1.23208 -2.72481,-2.46358 -4.16179,-3.63574c-0.07977,-0.06507 -2.24193,-2.06827 -2.47424,-1.81726c-1.00378,1.08459 -1.36247,3.25839 -1.84744,5.11541l0.32201,0.099l-0.33399,1.08637c0.18597,0.58353 0.37085,1.16747 0.55486,1.7518c0.35089,1.11422 0.87932,1.95164 1.03557,3.04408c2.92629,1.00282 5.67769,2.28183 8.54756,3.60873c1.89199,0.87477 4.43598,2.59602 6.16774,4.45007c0.18509,-1.09047 0.55787,-2.12793 1.04825,-2.8133c3.37204,-4.55855 9.09754,-3.11943 13.93727,-0.93692c-0.00111,-0.08604 -0.00086,-0.17302 0.00007,-0.26133l-0.34647,-0.34647c0,0 -0.35544,-0.35545 0,-0.71088c0.03578,-0.03578 0.07156,-0.06436 0.10698,-0.08682c-0.07674,-2.8661 -1.33178,-6.17712 -1.78746,-9.0566c-0.19149,-1.72127 -0.71855,-3.24865 -1.27772,-4.80847c-1.17749,0.4514 -2.88828,2.17629 -3.44066,2.52164zM191.55874,238.38204c0.17737,-0.87693 0.69546,-3.03698 1.54696,-3.52003c1.9592,-1.11144 6.06014,3.34509 7.39978,4.58392c0.62142,0.57466 0.82493,1.75737 1.65429,1.92637c0.47748,0.0973 1.4256,-3.27727 1.59202,-3.46479c1.84826,-2.08274 2.88166,-0.55514 4.59839,0.5954c4.94305,2.06967 7.041,-2.11206 11.24047,-3.43903c-0.12024,-0.34431 -0.23835,-0.69287 -0.35124,-1.04794c-0.30364,-0.955 -0.72746,-2.63759 -1.44671,-3.37092c-0.12274,-0.12515 -2.04925,-0.0895 -2.2895,-0.1067c-1.82417,-0.13059 -3.65958,-0.07034 -5.48799,-0.07037c-6.60385,0.10951 -13.31476,1.95095 -19.87108,2.79854c-0.4958,0.18786 -1.05648,0.18355 -1.53812,0.40523c-0.37453,0.17238 0.50765,0.65842 0.68113,1.03244c0.42746,0.92161 0.8193,1.83631 1.14073,2.79966c0.26186,0.78481 0.52058,1.57041 0.77671,2.3568c0.10774,-0.47235 0.24762,-0.95185 0.35416,-1.47859zM237.26615,256.47935c0.35544,0.35544 0,0.71089 0,0.71089l-0.19358,0.18212c-0.16796,0.23875 -0.33591,0.47752 -0.50387,0.71627c-1.05399,0.80039 -2.24822,1.64372 -3.45945,2.5389c-0.07666,0.22558 -0.2724,0.40793 -0.66446,0.49562c-2.5234,1.90177 -5.02294,4.03488 -6.38995,6.47958c-0.3089,0.55241 -0.33426,1.63143 -0.44776,2.29903c1.53434,-0.93475 3.21054,-1.66381 4.81494,-2.46496c5.40112,-2.10435 10.63036,-4.43595 15.81546,-7.02844l0.43145,-0.30338c2.34121,-0.29265 3.77878,-1.0697 5.49975,-2.64433c1.33898,-1.22511 2.33686,-1.35815 1.85927,-3.24413c-0.37383,-1.40423 -3.65828,-1.19909 -3.24896,-3.36327c0.04987,-0.2637 1.72478,-0.70444 1.86804,-0.74741c1.80965,-0.54269 4.75601,-1.08995 6.27795,-2.16921c1.10549,-0.78394 -0.3294,-2.42611 -0.94927,-2.89123c-0.48609,-0.36474 -1.09394,-0.52975 -1.63699,-0.80254c-3.60723,-0.2578 -7.21926,0.05292 -10.81389,0.52025c-2.2878,0.29744 -4.54079,1.00591 -6.85433,1.01002c0,0 -0.50268,-0.00001 -0.50268,-0.50268c0,-0.50267 0.50268,-0.50267 0.50268,-0.50267c2.26269,0.00438 4.48271,-0.70981 6.72119,-1.00117c3.7244,-0.48477 7.47713,-0.82658 11.21366,-0.4931c0.10718,0.05149 1.87706,0.89519 1.97376,0.96775c1.15947,0.87002 2.59993,3.10145 1.06629,4.39659c-1.11525,0.9418 -3.53603,1.33928 -4.91251,1.83964c-0.59265,0.21544 -1.193,0.41003 -1.79698,0.5913c-0.32097,0.09633 -0.63147,0.23967 -0.96295,0.28888c-0.09593,0.01424 -0.30165,-0.19772 -0.2711,-0.10567c0.40853,1.2307 2.72809,1.3206 3.28741,2.6703c0.12358,0.4998 0.48156,1.54768 0.23606,2.09703c-0.38265,0.85628 -1.70308,1.56552 -2.37802,2.18306c-1.84466,1.68777 -3.45153,2.55276 -5.92781,2.8839c-0.0315,0.05522 -0.0719,0.10006 -0.11008,0.13453l0.00017,0.00124c0,0 -0.02122,0.0201 -0.05827,0.0455c-0.03652,0.02615 -0.06268,0.03922 -0.06268,0.03922c-5.19869,2.59934 -10.44079,4.9461 -15.8592,7.0491c-1.74222,0.87231 -3.58081,1.64954 -5.20606,2.72529l-0.52842,0.08322c0,0 -0.50268,0 -0.50268,-0.50267c0,-0.18546 0.06842,-0.30249 0.15479,-0.37634c-0.20451,-0.17898 -0.14502,-0.47643 -0.14502,-0.47643c0.15191,-0.75955 0.17165,-1.93427 0.53863,-2.6246c1.27307,-2.3948 3.66025,-4.54017 6.12652,-6.43865c-0.66571,-0.49207 -1.32527,-1.29622 -1.68564,-1.64218c-1.75218,-1.6821 -2.94473,-3.01066 -3.08149,-4.85801c-0.51963,-0.27987 -1.07369,-0.57501 -1.6535,-0.872c0,0.14049 -0.05621,0.30909 -0.281,0.42149c-0.4496,0.2248 -0.67441,-0.22481 -0.67441,-0.22481l-0.2514,-0.50279c-0.05869,-0.12344 -0.1067,-0.24427 -0.14592,-0.36353c-4.55847,-2.16969 -10.17613,-3.88143 -13.29556,0.37257c-0.70096,0.91697 -0.88123,2.21669 -0.86083,3.43431c0.14348,0.20559 0.27343,0.41091 0.38792,0.61503c0.28321,0.50494 1.89656,2.64787 0.76536,3.20381c-0.70371,0.34584 -1.79953,-1.16701 -1.96006,-1.57421c-0.21504,-0.54545 -0.31487,-1.21363 -0.3194,-1.91965c-0.08569,-0.08581 -0.18095,-0.17582 -0.28858,-0.27251c-1.98853,-1.78652 -3.73739,-3.68176 -6.17175,-4.8073c-2.78771,-1.28892 -5.45877,-2.53367 -8.29412,-3.51644c-0.07056,0.04672 -0.16449,0.0778 -0.2895,0.0778c-0.30763,0 -0.42699,-0.18827 -0.4733,-0.33436c-0.671,-0.21867 -1.35238,-0.42193 -2.04773,-0.60698c-1.56113,-0.41545 -3.7571,-1.2369 -5.19809,0.06741c-0.16801,0.15207 -0.32663,0.39508 -0.47586,0.67651c0.54851,0.57315 1.17804,1.23427 1.37736,1.78778c0.20997,0.58309 0.32168,4.04574 -0.49233,4.29813c-0.44468,0.13788 -0.89163,-0.2756 -1.31739,-0.46399c-1.52435,-0.67448 -2.01604,-2.79716 -1.2899,-4.26416c0.16192,-0.30071 0.33989,-0.71751 0.53552,-1.14561c-1.72393,-2.1394 -3.32686,-4.40165 -5.64007,-5.89047c-3.05994,-1.96944 -6.11949,-3.93926 -9.18765,-5.89587l-0.01837,-0.02742l-0.00662,0.00797l-0.46926,-0.38945c-0.11272,-0.09218 -0.18466,-0.23234 -0.18466,-0.38931c0,-0.27762 0.22505,-0.50267 0.50267,-0.50267h0.7542v0.00798c1.12546,-0.29817 2.25281,-0.65405 3.12737,-1.44631c3.50531,-3.17548 4.02085,-8.69156 1.47126,-12.40019c-1.30342,-1.92702 -3.25796,-2.5057 -5.36931,-3.13911c-0.34939,-0.10482 -2.13741,-0.59632 -2.24335,-0.86092c-0.3552,-0.88719 1.38451,-2.38329 1.87219,-2.93407c1.97994,-2.23617 4.01727,-4.42057 6.03943,-6.61858c2.40951,-2.58567 1.96032,-6.04125 1.64135,-9.26311c-0.06459,-0.65249 -1.02549,-3.09448 -0.35801,-3.67365c0.3446,-0.29901 0.90561,-0.11599 1.36078,-0.14723c1.49812,-0.1028 3.02111,0.25219 4.52518,0.2514c3.74829,0 10.49719,0.79905 11.45156,-3.89005c-0.36005,-0.34665 -0.69995,-0.69896 -1.01687,-1.0555c0,0 -0.33395,-0.3757 0.04175,-0.70965c0.3757,-0.33396 0.70965,0.04174 0.70965,0.04174c0.12267,0.138 0.24894,0.27535 0.37865,0.41196l-0.00003,-0.3294c0,0 0.00001,-0.50267 0.50268,-0.50267c0.50267,0 0.50267,0.50267 0.50267,0.50267l-0.00005,0.50993c-0.00523,0.26343 -0.02211,0.51546 -0.04999,0.75659c3.61226,3.31358 9.10366,6.03427 13.66638,6.7472c1.47671,0.23074 3.37031,0.87724 4.85301,0.77126c1.48271,-0.10599 3.26511,-1.01526 4.69398,-1.45368c0.75482,-0.23161 2.09914,-0.38368 2.75042,-0.82136c0.54832,-0.36849 1.48327,-2.54596 2.25076,-2.41715c0.50655,0.08502 0.66406,0.8062 0.85099,1.28462c0.43284,1.10778 0.14524,2.96375 0.14614,4.14166c0.00153,2.00682 -0.35827,4.4599 0.22866,6.40951c1.35084,4.48708 5.72391,5.61901 9.82574,6.12809c0.91854,0.11566 2.08833,-0.31972 2.26028,1.00519c0.23825,1.83573 -1.8341,5.10164 -2.59049,6.75218c-1.43036,3.12125 -1.90141,6.17083 -1.93546,9.58318c1.16635,3.80725 2.6483,7.69593 6.24921,9.90311c1.59895,0.98008 3.8105,1.22066 5.61115,1.58079l0.80439,0.16088c0.23494,0.0422 0.41322,0.24765 0.41322,0.49473c0,0.22612 -0.14931,0.41737 -0.35471,0.48054l-0.94276,0.31425l-0.00762,-0.02288c-5.22483,3.11947 -11.04358,5.55996 -15.09971,10.28348c-0.17796,0.55167 -0.26239,1.07648 -0.26777,1.5772c0.19106,0.10273 0.3777,0.20336 0.55954,0.30127c2.07932,1.11963 3.68007,2.80776 4.59986,5.04958c0.05156,0.12568 0.14291,0.30233 0.2308,0.50116c1.0274,-0.74996 2.02807,-1.4566 2.92571,-2.12013c0.13385,-0.1971 0.26771,-0.3942 0.40156,-0.59131l0.30922,-0.32067c0,0 0.35545,-0.35544 0.71089,0zM184.49804,249.15542c-0.1307,0.30742 -0.25162,0.59239 -0.36278,0.79883c-0.75611,1.23198 0.19087,2.81996 1.33535,3.32355c0.36401,0.16017 -0.09521,-0.79147 -0.09651,-1.18917c-0.002,-0.61354 0.2376,-1.26313 0.02973,-1.84038c-0.16081,-0.44657 -0.55462,-0.75653 -0.90579,-1.09284zM227.67602,254.88086c0.53929,2.10999 2.47225,3.76699 4.42016,5.23713c0.02174,-0.01621 0.04348,-0.03242 0.06521,-0.0486c-0.0943,-0.17172 -0.3146,-0.49345 -0.39211,-0.65079c-0.27774,-0.56381 -0.57639,-1.1239 -0.95385,-1.62644c-1.05111,-1.39944 -1.62813,-2.0872 -3.13941,-2.91129z" fill="#000000" fill-rule="nonzero" stroke-width="0.5" stroke-linecap="butt" stroke-linejoin="miter"/><path d="M231.63142,303.59482c-0.50267,0.00009 -0.50276,-0.50258 -0.50276,-0.50258l-0.00014,-0.78579c-0.01495,-4.71046 -1.11395,-10.14139 -2.51344,-14.62579c-1.701,-5.45051 -3.44047,-10.88806 -5.00904,-16.37805c0,0 -0.13809,-0.48333 0.34524,-0.62143c0.48333,-0.13809 0.62142,0.34524 0.62142,0.34524c1.56634,5.48219 3.30349,10.91196 5.00207,16.35473c1.43004,4.58229 2.53309,10.11042 2.55909,14.92304l0.00014,0.78787c0,0 0.00009,0.50267 -0.50258,0.50276z" fill="#000000" fill-rule="nonzero" stroke-width="0.5" stroke-linecap="butt" stroke-linejoin="miter"/><path d="M214.14554,306.85034c-0.49001,0.11212 -0.60213,-0.37789 -0.60213,-0.37789c-0.89696,-3.92007 -1.85447,-8.10469 -2.75143,-12.02475c-1.34545,-5.8801 -2.69089,-11.7602 -4.03634,-17.64029c0,0 -0.11213,-0.49001 0.37788,-0.60213c0.49001,-0.11212 0.60213,0.37789 0.60213,0.37789c1.34545,5.8801 2.69089,11.76019 4.03633,17.64029c0.89696,3.92007 1.79393,7.84013 2.6909,11.7602l0.06053,0.26456c0,0 0.11212,0.49001 -0.37789,0.60213z" fill="#000000" fill-rule="nonzero" stroke-width="0.5" stroke-linecap="butt" stroke-linejoin="miter"/><path d="M156.82128,282.78702c-0.30956,-0.39604 0.08648,-0.7056 0.08648,-0.7056l0.49474,-0.38671c1.31127,-1.02434 2.52354,-2.1698 3.76337,-3.27912c4.47319,-4.00233 9.3273,-7.53754 14.68156,-10.21466c0,0 0.4496,-0.2248 0.6744,0.22481c0.2248,0.4496 -0.2248,0.67441 -0.2248,0.67441c-5.27507,2.63754 -10.0533,6.12112 -14.4608,10.06468c-1.25661,1.12433 -2.48615,2.28305 -3.8146,3.32199l-0.49475,0.38671c0,0 -0.39604,0.30956 -0.7056,-0.08649z" fill="#000000" fill-rule="nonzero" stroke-width="0.5" stroke-linecap="butt" stroke-linejoin="miter"/><path d="M280.32709,276.20599c-0.2649,0.42721 -0.69211,0.16232 -0.69211,0.16232l-0.63733,-0.40074c-2.28906,-2.47875 -4.55985,-4.97452 -6.83799,-7.46332c-2.71522,-2.96631 -5.43046,-5.93262 -8.14568,-8.89893c-1.3542,-1.47943 -3.28381,-2.95434 -3.71331,-4.93453c0,0 -0.09859,-0.49291 0.39432,-0.59149c0.49291,-0.09858 0.5915,0.39433 0.5915,0.39433c0.30377,1.70639 2.30596,3.18222 3.46907,4.45288c2.71522,2.96631 5.43045,5.93262 8.14567,8.89893c2.24716,2.45496 4.5034,4.90196 6.73814,7.36823l0.5254,0.32021c0,0 0.42721,0.2649 0.16231,0.69211z" fill="#000000" fill-rule="nonzero" stroke-width="0.5" stroke-linecap="butt" stroke-linejoin="miter"/><path d="M197.75,207.5c0,0.75 -0.75,0.75 -0.75,0.75c-1.32256,0 -3.81125,0 -5.40969,0c0.03106,1.10593 0.03447,2.20031 0.15408,3.15837c0.11049,0.88505 1.21986,3.85826 0.28707,4.62084c-0.52734,0.43112 -1.35164,0.17829 -2.03145,0.2208c-1.88007,0.11755 -3.75806,0.06993 -5.60883,-0.20956c0.45343,0.51318 0.9574,0.96618 1.52486,1.33552c0,0 0.62404,0.41602 0.20802,1.04006c-0.41602,0.62404 -1.04006,0.20802 -1.04006,0.20802c-1.11873,-0.76051 -2.06318,-1.81214 -2.87486,-3.01808c-0.60177,-0.09993 -1.30979,-0.05264 -1.6918,-0.50113c-0.53814,-0.63179 -0.52829,-2.02766 -0.37374,-3.41291c-0.66463,-1.55433 -1.21274,-3.13221 -1.70397,-4.53711c-0.27287,-0.7804 -1.02548,-2.6471 -0.61941,-3.47161c0.59808,-1.21438 1.83164,-1.30293 2.93074,-1.3536c-0.0006,-0.10995 -0.00093,-0.21982 -0.00093,-0.3296c0,-0.42473 -0.02952,-3.16137 0.11201,-3.3943c1.36902,-2.25319 7.29824,0.98301 9.08748,1.5945l0.98426,0.68795c0,0 0.61185,0.43375 0.1781,1.0456c-0.43375,0.61185 -1.0456,0.1781 -1.0456,0.1781l-0.79678,-0.57465c-1.86066,-0.6137 -3.68139,-1.33389 -5.53666,-1.95713c-0.50734,-0.17043 -1.45795,-0.70318 -1.59482,-0.18577c-0.22995,0.86931 -0.28002,1.84846 -0.25341,2.872c2.31472,-0.1434 4.62587,-0.31957 6.94104,-0.48625c1.99297,0.84462 2.52296,2.81982 2.69196,4.96995c1.32747,0 2.65495,0 3.98243,0h1.5c0,0 0.75,0 0.75,0.75zM180.76898,203.80897c-0.5756,0.01388 -1.4182,0.09222 -1.58917,0.50784c-0.28983,0.70455 0.89857,3.07764 1.16769,3.70395c0.08663,0.20162 0.17274,0.40776 0.25884,0.61753c0.00402,-0.03021 0.00774,-0.05946 0.01116,-0.08769c0.19114,-1.56434 0.17498,-3.15618 0.1515,-4.74163zM181.96536,203.77583c0.12483,1.7121 0.32057,3.45797 0.14127,4.95485c-0.0481,0.39774 -0.27,1.45801 -0.43677,2.54199c0.45682,1.09353 0.9598,2.1882 1.56588,3.18058c0.32546,-0.02222 0.65141,-0.04106 0.94047,0.01713c1.51675,0.30532 5.39322,0.99911 6.79233,0.50041c0.16803,-0.05989 -0.19026,-0.31133 -0.22221,-0.48682c-0.17517,-0.96207 -0.37276,-1.92159 -0.49071,-2.89234c-0.22581,-1.85842 0.36558,-7.7985 -1.63539,-8.32572c-2.2169,0.21413 -4.43187,0.40464 -6.65487,0.50992z" fill="#ffffff" fill-rule="nonzero" stroke-width="0.5" stroke-linecap="butt" stroke-linejoin="miter"/><path d="M215.66349,210.23197c-0.73197,0.16349 -0.89545,-0.56848 -0.89545,-0.56848l-0.06002,-0.49939c-0.1411,-0.21316 -0.28098,-0.43553 -0.419,-0.66546c-0.03707,0.14202 -0.08674,0.2747 -0.15102,0.39566c-0.26854,0.50538 -2.51415,1.24806 -2.93631,1.3196c-2.37351,0.4022 -5.34611,-0.27876 -7.70076,-0.64459c-1.07706,-0.16734 -2.30731,0.16005 -3.24616,-0.39369c-2.35823,-1.39089 -0.46425,-6.01672 -0.05944,-8.33082c-0.17806,-0.54671 -0.60564,-1.10665 -0.34886,-1.58593c0.13885,-0.25915 0.30124,-0.44893 0.48039,-0.58781c0.77041,-1.62195 1.33738,-1.36181 2.67315,-1.42106c2.16666,0 4.33334,0 6.5,0c0.40856,0 2.2586,-0.03601 2.46156,0.15885c0.39641,0.38061 0.61373,0.99774 0.7518,1.68301c0.55547,1.34207 0.80268,3.27944 0.92102,4.53201c0.59471,1.63977 1.43128,3.38317 2.32171,4.70819l0.27588,1.00446c0,0 0.16349,0.73197 -0.56848,0.89545zM202.21907,208.22005c2.25944,0.4723 5.35888,0.42664 7.38967,0.52349c0.5019,0.02394 2.98555,-0.01679 3.25327,-0.63784c0.32493,-0.75375 -0.48727,-3.00439 -0.65941,-3.68867c-0.01066,-0.13094 -0.02255,-0.28403 -0.0363,-0.45415c-0.16795,-0.4703 -0.31714,-0.9326 -0.44368,-1.37697c-0.19002,-0.66725 -0.16273,-1.92643 -0.32332,-2.91434c-0.09939,-0.22871 -0.21139,-0.42118 -0.33778,-0.56311c-0.46856,-0.52613 -1.40428,0.14169 -2.1088,0.14211c-2.02989,0.00122 -3.86666,0.18434 -5.85061,0.49245c-0.34169,0.05307 -0.82075,-0.08718 -1.21524,-0.12733c-0.13401,0.26246 -0.25107,0.57261 -0.35368,0.91362c0.09553,0.10987 0.18063,0.22394 0.20713,0.35055c0.45011,2.1508 0.22523,4.79784 0.5039,7.02711c0,0 0.01798,0.14391 -0.02514,0.31307z" fill="#ffffff" fill-rule="nonzero" stroke-width="0.5" stroke-linecap="butt" stroke-linejoin="miter"/><path d="M360.25,287.5c0,-0.75 0.75,-0.75 0.75,-0.75h1.04957c8.97493,-0.00008 17.95949,0.25807 26.8884,-0.68182c10.54348,-1.10984 17.16277,-9.87901 22.32295,-18.19569c-0.57154,-2.48221 -0.44986,-5.80418 -1.47737,-8.10738c-0.70375,-1.57746 -2.52594,-3.20686 -3.59402,-4.57793c-0.56451,-0.72464 -0.89102,-1.69796 -1.66098,-2.19888c-0.92272,-0.6003 -3.06066,-0.7216 -4.13869,-0.99065c-2.91072,-0.72644 -5.82144,-1.45289 -8.73215,-2.17933c-9.72744,-2.42773 -21.12683,-0.46178 -31.14049,-0.10415c-4.80717,0.17168 -10.14526,-0.2892 -14.8788,0.52297c-4.89986,0.8407 -10.44755,3.66624 -14.63231,6.26048c-1.74979,1.08352 -3.96301,2.30655 -4.82227,4.33568c-3.03793,7.17396 3.05437,15.34426 7.72518,20.01507c4.20541,4.20541 8.80765,6.91521 14.38913,8.95398c2.60201,0.95045 5.98819,0.44767 8.70186,0.44767c0,0 0.75,0 0.75,0.75c0,0.75 -0.75,0.75 -0.75,0.75c-2.91277,0 -6.42466,0.48107 -9.21651,-0.53872c-5.76951,-2.10745 -10.58331,-4.95044 -14.93514,-9.30227c-5.11678,-5.11678 -11.33932,-13.88306 -8.04578,-21.66065c0.99043,-2.33886 3.38298,-3.7685 5.41384,-5.02606c4.35505,-2.69384 10.04982,-5.57259 15.14518,-6.45942c4.80581,-0.83643 10.22147,-0.37347 15.10209,-0.54778c10.1661,-0.36307 21.67816,-2.31774 31.55725,0.14784c2.91072,0.72644 5.82144,1.45289 8.73215,2.17933c1.25369,0.31289 3.52186,0.49152 4.59346,1.18868c0.13559,0.08821 1.85185,2.31044 2.02631,2.53439c1.14699,1.47237 3.02278,3.19004 3.78056,4.88862c1.11068,2.48961 1.18851,6.27298 1.58567,8.97354c-4.88632,9.08405 -12.72071,18.28259 -23.64408,19.43242c-8.98171,0.94544 -18.01763,0.68998 -27.04542,0.69006h-1.04958c0,0 -0.75,0 -0.75,-0.75z" fill="#000000" fill-rule="nonzero" stroke-width="0.5" stroke-linecap="butt" stroke-linejoin="miter"/><path d="M407.75,253.50273c-0.00273,-0.75 0.74726,-0.75273 0.74726,-0.75273l0.30894,-0.00113c1.95838,-0.0071 3.91554,-0.06062 5.87367,-0.0905c1.6822,-0.57213 3.89108,-0.92086 5.42583,-1.79636c4.75908,-2.71483 7.05819,-10.73659 5.32918,-15.7877c-0.61931,-1.80926 -2.0047,-3.27096 -3.20817,-4.69628c-0.58741,-0.69679 -0.86264,-1.67619 -1.5918,-2.22289c-0.59084,-0.44299 -1.47735,0.03258 -2.21539,0.00745c-1.49913,-0.05103 -2.99826,-0.10207 -4.49739,-0.1531c-7.05283,-0.24009 -13.81176,0.37766 -20.83029,1.07348c-10.44656,1.03568 -20.86991,1.99044 -31.25031,3.56323c-10.22447,1.54916 -20.49829,2.74465 -30.4992,5.39195c-4.14583,1.09743 -8.48272,1.87057 -12.32363,3.79102c-0.77976,0.38988 -1.79187,0.43397 -2.38537,1.07256c-0.48146,0.51805 0.07434,1.41387 0.05777,2.12091c-0.06861,2.92846 -0.19258,4.12304 1.43294,6.56132c0,0 0.41603,0.62404 -0.20801,1.04006c-0.62404,0.41603 -1.04006,-0.20801 -1.04006,-0.20801c-1.79137,-2.68705 -1.75877,-4.25652 -1.68445,-7.42851c0.00351,-0.14998 0.02461,-2.69217 0.17516,-2.88926c0.18775,-0.24577 2.57272,-1.40648 2.9812,-1.61072c3.93783,-1.96892 8.36164,-2.77471 12.61061,-3.89944c10.05406,-2.66137 20.37979,-3.86761 30.65833,-5.42496c10.40595,-1.57666 20.85481,-2.53462 31.32703,-3.57284c7.08357,-0.70227 13.91025,-1.32228 21.02931,-1.07993c1.70602,0.05808 5.96259,-0.58453 7.39193,0.3345c0.91338,0.58728 1.30648,1.73634 2.00772,2.56546c1.32442,1.56856 2.81598,3.18787 3.48315,5.18385c1.91904,5.74117 -0.60026,14.42637 -5.96166,17.54382c-1.67814,0.97577 -4.11188,1.3936 -5.95837,1.99837c-2.04139,0.05428 -4.08213,0.10503 -6.12426,0.11251l-0.30894,0.00113c0,0 -0.75,0.00273 -0.75273,-0.74726z" fill="#000000" fill-rule="nonzero" stroke-width="0.5" stroke-linecap="butt" stroke-linejoin="miter"/><path d="M355.82897,319.174c-0.674,0.32897 -1.00297,-0.34503 -1.00297,-0.34503l-0.54593,-1.12225c-2.4964,-7.48135 -4.72263,-15.30005 -6.01986,-23.08342c0,0 -0.1233,-0.7398 0.6165,-0.86309c0.7398,-0.1233 0.86309,0.6165 0.86309,0.6165c1.27906,7.67434 3.47239,15.38461 5.92882,22.76263l0.50538,1.0317c0,0 0.32897,0.674 -0.34503,1.00297z" fill="#000000" fill-rule="nonzero" stroke-width="0.5" stroke-linecap="butt" stroke-linejoin="miter"/><path d="M378.33541,316.67082c-0.67082,0.33541 -1.00623,-0.33541 -1.00623,-0.33541l-0.54177,-1.10148c-1.34678,-7.57419 -2.11397,-15.78088 -4.98377,-22.95538c0,0 -0.27854,-0.69636 0.41781,-0.9749c0.69636,-0.27854 0.9749,0.41781 0.9749,0.41781c2.87259,7.18148 3.75394,15.44684 5.01623,23.04462l0.45823,0.89852c0,0 0.33541,0.67082 -0.33541,1.00623z" fill="#000000" fill-rule="nonzero" stroke-width="0.5" stroke-linecap="butt" stroke-linejoin="miter"/><path d="M378.96967,271.46967c0.53033,-0.53033 1.06066,0 1.06066,0l-0.03033,0.28033c3.86073,0.06607 3.03185,4.07189 2.06659,6.7414c-7.62708,4.20682 -16.6146,4.15459 -24.88469,6.23621c0,0 -0.72761,0.1819 -0.90951,-0.54571c-0.1819,-0.72761 0.54571,-0.90951 0.54571,-0.90951c8.13014,-2.01973 16.30492,-2.51181 24.11531,-5.76379c0.48575,-1.70198 1.23057,-4.31105 -0.93341,-4.2586l-1.03033,-0.71967c0,0 -0.53033,-0.53033 0,-1.06066z" fill="#000000" fill-rule="nonzero" stroke-width="0.5" stroke-linecap="butt" stroke-linejoin="miter"/><path d="M350.75,258.5c0,-0.41421 0.33579,-0.75 0.75,-0.75c0.41421,0 0.75,0.33579 0.75,0.75c0,0.41421 -0.33579,0.75 -0.75,0.75c-0.41421,0 -0.75,-0.33579 -0.75,-0.75z" fill="#000000" fill-rule="nonzero" stroke-width="0.5" stroke-linecap="butt" stroke-linejoin="miter"/><path d="M375.75,255c0,-0.41421 0.33579,-0.75 0.75,-0.75c0.41421,0 0.75,0.33579 0.75,0.75c0,0.41421 -0.33579,0.75 -0.75,0.75c-0.41421,0 -0.75,-0.33579 -0.75,-0.75z" fill="#000000" fill-rule="nonzero" stroke-width="0.5" stroke-linecap="butt" stroke-linejoin="miter"/><path d="M379.25,241.5c0,-0.75 0.75,-0.75 0.75,-0.75c5,0 10.5,0 15.5,0c8.23736,0 18.57283,-0.00788 25.45,5.15c0,0 0.6,0.45 0.15,1.05c-0.45,0.6 -1.05,0.15 -1.05,0.15c-6.59086,-4.94314 -16.66121,-4.85 -24.55,-4.85c-5,0 -10,0 -15,0h-0.5c0,0 -0.75,0 -0.75,-0.75z" fill="#000000" fill-rule="nonzero" stroke-width="0.5" stroke-linecap="butt" stroke-linejoin="miter"/><text transform="translate(166,158.27041) scale(0.32002,0.32002)" font-size="40" xml:space="preserve" fill="#000000" fill-rule="nonzero" stroke-width="1" stroke-linecap="butt" stroke-linejoin="miter" font-family="Sans Serif" font-weight="normal" text-anchor="start"><tspan x="0" dy="0">coolskull212</tspan><tspan x="0" dy="46.150000000000006px">all the graphic and (some of)</tspan><tspan x="0" dy="46.150000000000006px"> the coding </tspan></text><text transform="translate(323.5,201.76869) scale(0.33442,0.2333)" font-size="40" xml:space="preserve" fill="#000000" fill-rule="nonzero" stroke-width="1" stroke-linecap="butt" stroke-linejoin="miter" font-family="Sans Serif" font-weight="normal" text-anchor="start"><tspan x="0" dy="0">gavinmiddleton</tspan><tspan x="0" dy="46.150000000000006px">made loops</tspan><tspan x="0" dy="46.150000000000006px">(and animated black)</tspan></text><text transform="translate(363.71349,93.12882) scale(0.35258,0.35258)" font-size="40" xml:space="preserve" fill="#000000" fill-rule="nonzero" stroke-width="1" stroke-linecap="butt" stroke-linejoin="miter" font-family="Sans Serif" font-weight="normal" text-anchor="start"><tspan x="0" dy="0">NyankoBfLol for</tspan><tspan x="0" dy="46.150000000000006px">sprunki</tspan></text><path d="M437.29682,126.56473c-0.00145,-0.78401 0.40143,-2.57778 0.14157,-3.22813c-0.18701,-0.46803 -1.01491,0.05343 -1.51171,-0.03155c-1.26962,-0.21718 -1.89471,-0.66748 -3.23032,-0.65718c-4.01104,-0.19667 -8.01011,-1.69431 -12.06557,-2.00626c-5.59736,-0.43056 -11.30614,-0.66021 -16.91731,-0.66021c-4.2985,0 -8.54105,0.14996 -12.83036,0.33504c-0.60852,0.02626 -4.2679,-0.39342 -4.47663,0.53505c-0.4452,1.98034 0.22089,4.61115 0.70126,6.53134c0,0 0.1819,0.72761 -0.54571,0.90951c-0.14394,0.03598 -0.26652,0.03638 -0.37056,0.01385c4.65594,3.5605 10.60275,6.00974 15.53666,8.59417c0,0 0.3978,0.20837 0.41653,0.61045l0.45376,-0.22704c0.09411,-0.06127 0.19464,-0.09488 0.27661,-0.11331c0.09067,-0.02242 0.21024,-0.03833 0.33569,-0.01703c3.27549,0.15731 7.26458,3.31098 10.16369,4.73665c1.23832,0.60896 1.96868,1.30667 3.08841,2.05062c0.19178,0.12742 0.50531,0.37214 0.78448,0.61588c-0.13812,-1.08917 0.54112,-3.10993 0.6025,-3.52217c4.73415,-0.62038 10.62428,2.13661 15.35028,2.96487c0.39638,0.06947 -0.47393,-0.65136 -0.73329,-0.95905c-0.44818,-0.53168 -1.14299,-1.04571 -1.69136,-1.41071c-1.91026,-1.2715 -4.93141,-2.14176 -7.18545,-2.32501c-2.29015,-0.5741 -4.62285,-0.39484 -6.95713,-0.66078c-4.45304,-0.50733 -8.59089,-1.66237 -13.08606,-1.66232h-0.83333c0,0 -0.75,0 -0.75,-0.75c0,-0.75 0.75,-0.75 0.75,-0.75h0.83333c4.55478,0.00005 8.73965,1.15598 13.24727,1.67101c2.36408,0.27012 4.72111,0.09367 7.04288,0.67256c3.05309,0.27594 6.65729,1.50101 9.03458,3.50651c0.0533,0.04497 0.11322,0.09788 0.17796,0.15776c1.3673,-5.24787 4.25758,-9.37428 4.2473,-14.9245zM385.65255,127.74664c-0.48887,-1.95676 -1.46177,-5.49497 -0.63208,-7.46866c0.69886,-1.66244 2.91012,-1.42379 4.32125,-1.44241c4.79349,-0.06323 9.56749,-0.35417 14.37176,-0.35417c5.64842,0 11.39809,0.22878 17.03268,0.66465c4.01693,0.31074 8.01713,1.83735 11.98444,2.00221c1.01381,0.0067 5.29696,0.3843 5.92465,1.31127c0.4988,0.73663 0.1432,3.16445 0.14157,4.1052c-0.01,5.7641 -2.95214,9.97146 -4.33895,15.42497c-0.04532,0.26772 -0.21631,0.5438 -0.13595,0.80316c0.00667,0.02154 0.01413,0.04149 0.02234,0.05994l0.38785,0.04964c0.04587,0.02438 0.09418,0.05036 0.14481,0.07783c0.52226,-0.206 1.27211,-0.90476 1.75773,-1.17577c1.71696,-0.95817 3.43831,-1.62316 5.30936,-2.21668c0.66376,-0.21055 1.37536,-0.92647 1.99713,-0.61291c0.5815,0.29325 0.42303,1.23915 0.52127,1.88296c0.12467,0.81698 0.48319,5.29397 -0.16892,5.84902c-1.79628,1.52895 -5.34135,0.08225 -7.96155,-1.25073c0.13154,0.20691 0.13154,0.44191 0.13154,0.44191l-0.03849,0.09616c0.93984,2.89902 -0.5946,4.80004 -0.97505,7.54567c-0.36523,2.63583 0.4146,5.29503 -0.34971,7.90119c-0.48409,1.65066 -1.02964,2.13199 -2.72009,2.20698c0,0 -0.00804,0 -0.02245,-0.00083c-0.2067,0.33417 -0.64422,0.33417 -0.64422,0.33417l-0.51416,-0.02213c-1.62556,-0.40926 -3.11088,-0.86186 -4.12383,-2.33357c-0.32957,-0.47884 0.01972,-1.46346 -0.52642,-1.66254c-0.63923,-0.23302 -0.90156,1.03955 -1.46422,1.42207c-1.18016,0.80231 -3.45832,2.46189 -4.8207,2.89732c-1.1365,0.36324 -3.18874,0.03222 -4.38401,0.03218c-2.86138,-0.00009 -5.60404,0.50512 -8.47944,0.24459c-1.34616,2.58891 -3.76844,6.58295 -6.52423,2.72975c-0.54811,-0.76638 -0.52607,-1.81 -0.82425,-2.70378c-0.30192,-0.90498 -4.39142,-0.49157 -5.12555,-0.61358c-0.07936,-0.01319 -1.97721,-0.64886 -2.11704,-0.69547c-0.49848,-0.16616 -1.10258,-1.15257 -1.40192,-0.72072c-0.60177,0.86817 -0.62366,1.99841 -1.63328,2.98053c-1.83511,0.58614 -3.97961,0.38324 -4.46795,-1.85119c-0.11413,-0.52221 0.66031,-1.30182 0.20998,-1.5898c-0.43471,-0.27799 -2.3216,-0.23144 -3.02034,-0.47918c-0.72082,-0.25557 -1.13198,-1.06219 -1.81885,-1.3985c-3.32216,-1.6266 -5.69021,-3.16125 -6.37027,-7.19602c0,0 -0.1233,-0.73979 0.6165,-0.86309c0.7398,-0.1233 0.8631,0.61649 0.8631,0.61649c0.59458,3.61202 2.7136,4.65203 5.62972,6.13732c0.74439,0.37914 0.69339,1.01812 1.51448,1.26817c0.70997,0.21621 3.16476,0.32612 3.64632,0.85415c1.03152,1.13107 -0.66999,4.35062 2.4087,3.22567c0.49431,-0.51818 1.48122,-2.88289 1.70006,-3.01946c0.32203,-0.20096 2.13907,0.45961 2.59808,0.61261c2.07516,0.69172 6.88315,0.00478 8.09075,2.02429c0.5134,0.85857 0.09936,3.55978 2.00541,3.60389c1.16906,0.02706 2.74334,-3.48365 3.31277,-4.24459c3.05897,-0.1609 6.13718,-0.42197 9.18723,-0.42207c1.02426,-0.00003 2.96978,0.35159 3.94933,0.03218c1.27818,-0.41679 3.3081,-1.94895 4.41104,-2.70148c0.52488,-0.35813 1.80179,-1.87074 2.63738,-1.64579c1.49245,0.40179 0.93405,1.49186 1.47358,2.33746c0.70544,1.10563 2.04688,1.38195 3.20951,1.66642l0.1525,-0.02212c0,0 0.00804,0 0.02245,0.00083c0.2067,-0.33417 0.64422,-0.33417 0.64422,-0.33417c1.57319,0.12597 1.58647,-1.99758 1.58333,-3.25c-0.00453,-1.80951 -0.24791,-3.85474 0.01353,-5.64183c0.35251,-2.40963 1.88801,-4.2853 1.02496,-6.78767l-0.03849,-0.5705c0,0 0,-0.75 0.75,-0.75c0.00827,0 0.01645,0.00009 0.02454,0.00027c-0.40987,-0.21603 -0.78829,-0.42222 -1.12289,-0.60429c-0.06853,0.21362 -0.20394,0.41107 -0.42496,0.58206c-0.31323,0.24232 -3.06982,-0.07208 -3.59735,-0.15448c-3.49265,-0.54558 -8.60704,-1.11417 -11.68234,-2.87656c0.19405,0.54504 -0.13864,4.24311 -0.50977,4.46426c-0.97637,0.58181 -3.74554,-2.24228 -4.45909,-2.71949c-2.40256,-1.60681 -5.3354,-2.65492 -7.89098,-3.9347c-1.08182,-0.54175 -1.62323,-1.22405 -2.82725,-1.25688l-0.52372,0.26168c-5.57159,2.62139 -11.94116,3.91941 -17.72495,6.20407c-5.65332,2.95562 -10.91717,6.76123 -16.19387,10.35629c-2.08333,1.41939 -4.17883,3.16477 -6.5678,3.92642l0.07096,0.21285l-0.9834,0.3278c-0.07926,0.02849 -0.1647,0.04402 -0.25378,0.04402c-0.41422,0 -0.75,-0.33578 -0.75,-0.75c0,-0.09957 0.01941,-0.19462 0.05464,-0.28155l0.26768,-0.70745c0.34774,-0.91817 0.66312,-1.84927 0.94495,-2.78976c0.81495,-2.71376 1.8216,-5.92811 3.47826,-8.26291c1.71114,-2.41159 4.77778,-4.68078 5.93082,-7.41179c0.32821,-0.77735 -1.18611,-1.20548 -1.84168,-1.73672c-1.81012,-1.46682 -3.57277,-2.90392 -5.22101,-4.55215c-1.3642,-1.36521 -6.24114,-5.57803 -4.71481,-7.80021c0.51564,-0.75072 3.91319,0.89482 4.49529,1.09436c3.31315,1.13573 6.64722,2.2242 9.94304,3.40913c1.32622,0.47681 2.96458,0.83812 4.13725,1.67685l-0.01128,-0.03201c-1.37815,-3.92373 -1.79498,-8.9562 -0.78348,-13.17843l-0.17406,-0.01934l0.16465,-1.48183c0.03708,-0.37956 0.35711,-0.67617 0.74641,-0.67617c0.35374,0 0.65028,0.2449 0.72933,0.5744l0.34622,1.31365c0.38533,1.49164 1.04261,2.5284 1.81648,3.85504c1.29378,2.22042 3.07611,4.09263 5.13596,5.73079c-0.06505,-0.11315 -0.08892,-0.20865 -0.08892,-0.20865zM436.32496,143.77905c2.14709,1.16801 5.32802,2.7364 6.80852,1.97686c0.99715,-0.51156 -0.1704,-2.23713 -0.16999,-3.35784c0.00018,-0.4866 -0.056,-0.97656 0.00108,-1.4598c0.02728,-0.23095 0.48007,-0.67195 0.24837,-0.65197c-0.3278,0.02827 -0.41554,0.53404 -0.70454,0.69131c-1.84914,1.00627 -4.20035,1.91892 -6.18343,2.80144zM400.8121,138.11423c-7.57651,-3.94263 -17.10629,-7.60614 -21.50225,-15.13392c-0.38655,-0.66266 -0.74192,-1.26601 -1.05536,-1.88185c-0.04409,0.73256 -0.12409,1.46407 -0.12431,2.11485c-0.00097,2.87954 0.07153,5.37714 1.04444,8.12508l0.49299,1.39818c0.03133,0.08263 0.04848,0.17224 0.04848,0.26585c0,0.41422 -0.33578,0.75 -0.75,0.75c-0.0992,0 -0.1939,-0.01926 -0.28056,-0.05424l-1.38754,-0.52272l0.03341,-0.08866c-3.82475,-0.95395 -7.59472,-2.64507 -11.28907,-3.91171c-1.42249,-0.48771 -2.86001,-0.94682 -4.27173,-1.46477c-0.27175,-0.09971 -0.55398,-0.17993 -0.82573,-0.28149c1.42681,1.46621 2.59561,3.57 4.02627,4.99957c1.96383,1.96383 4.13578,3.61926 6.27013,5.39179c0.68863,0.57189 1.42852,1.0277 1.21254,2.19801c-0.32849,1.77991 -2.75244,3.64144 -3.81563,5.00784c-2.58724,3.3251 -4.4151,6.77927 -5.63734,10.85761c-0.17422,0.58012 -0.36056,1.15683 -0.55876,1.72938c1.21287,-1.00403 3.33337,-1.91009 4.25455,-2.53779c5.75674,-3.92269 11.48285,-8.10616 17.65404,-11.32526c5.34703,-2.12055 11.20757,-3.3801 16.46143,-5.63575z" fill="#000000" fill-rule="nonzero" stroke-width="0.5" stroke-linecap="butt" stroke-linejoin="miter"/><path d="M406.92975,156.07508c-0.51034,0.5496 -1.05993,0.03925 -1.05993,0.03925l-0.2162,-0.20374c-0.21648,0.35673 -0.43295,0.71345 -0.64943,1.07018c0,0 -0.01565,0.02348 -0.04545,0.0583c-0.0283,0.03605 -0.04826,0.056 -0.04826,0.056l-0.33333,0.33334c-3.60204,3.28244 -8.51861,-0.46516 -12.53033,-0.447c0,0 -0.75,0 -0.75,-0.75c0,-0.75 0.75,-0.75 0.75,-0.75c1.13434,0.00448 2.82,0.58655 4.58388,1.10898c0.00047,-0.15038 0.03795,-0.26282 0.03795,-0.26282l0.30453,-0.88296c-0.00082,-0.07443 -0.00164,-0.14887 -0.00246,-0.2233c-1.82236,-0.21375 -3.2011,-0.88127 -4.52389,-2.53991c0,0 -0.45,-0.6 0.15,-1.05c0.6,-0.45 1.05,0.15 1.05,0.15c1.2149,1.77447 2.82547,2.01968 4.94653,2.04302l0.88297,-0.30453c0,0 0.71151,-0.23717 0.94868,0.47434c0.23717,0.71151 -0.47434,0.94869 -0.47434,0.94869l-1.11704,0.36213c-0.1275,0.0011 -0.25298,0.00119 -0.37654,0.00016c-0.0011,0.12655 -0.00218,0.25311 -0.00328,0.37966l-0.36213,1.11704c0,0 -0.02548,0.07644 -0.08479,0.17086c2.21144,0.56007 4.35415,0.77079 5.50961,-0.60503l0.31053,-0.31053c0.14362,-0.18533 0.28722,-0.37067 0.43084,-0.55599l-0.2679,-1.0716c-0.01726,-0.06314 -0.02647,-0.1296 -0.02647,-0.19822c0,-0.41422 0.33578,-0.75 0.75,-0.75c0.17158,0 0.32969,0.05761 0.45606,0.15454l1.19394,0.89545l0.527,0.48374c0,0 0.5496,0.51034 0.03926,1.05993z" fill="#000000" fill-rule="nonzero" stroke-width="0.5" stroke-linecap="butt" stroke-linejoin="miter"/><path d="M405.88282,143.47738c-0.11066,0.09902 -0.27083,0.17069 -0.50267,0.17069c-0.75,0 -0.75,-0.75 -0.75,-0.75c0.05309,-0.66445 -0.26536,-3.63373 2.08541,-2.33749c0.61729,0.34038 0.44583,1.33749 0.66874,2.00623l-0.00761,0.00129c0.01525,0.03265 0.0313,0.0637 0.04831,0.09279l-1.04485,0.98717c0,0 -0.27957,0 -0.49733,-0.17069z" fill="#000000" fill-rule="nonzero" stroke-width="0.5" stroke-linecap="butt" stroke-linejoin="miter"/></g></g></svg>