<svg version="1.1" xmlns="http://www.w3.org/2000/svg" xmlns:xlink="http://www.w3.org/1999/xlink" width="213.18203" height="314.60581" viewBox="0,0,213.18203,314.60581"><defs><linearGradient x1="318.60651" y1="-7.99329" x2="318.60651" y2="194.78161" gradientUnits="userSpaceOnUse" id="color-1"><stop offset="0" stop-color="#3e2119"/><stop offset="1" stop-color="#3a1f18"/></linearGradient></defs><g transform="translate(-214.52362,7.99329)"><g stroke-miterlimit="10"><g stroke-linecap="butt"><g><g stroke="none" stroke-width="0.5"><path d="M333.64329,286.97544c-2.66389,0.46524 -5.23926,-2.43934 -6.10536,-5.19865c-0.73206,1.10599 -1.89999,1.92021 -3.30966,2.1664c-0.44854,0.07834 -0.89354,0.09427 -1.32612,0.05406c-0.16899,0.37078 -0.3547,0.73664 -0.56002,1.08673c1.16571,1.18395 1.88704,2.68146 1.48619,4.18486c0.24737,0.89544 0.33381,1.85594 0.24161,2.78398c0.04677,0.21703 0.08782,0.44259 0.12281,0.67683c0.0884,0.59191 0.05706,1.16847 -0.07042,1.71741c-0.26888,2.00617 -1.74721,3.70967 -3.79328,4.1972c-2.31948,0.96236 -4.93801,0.47598 -5.63043,-2.61342c-0.21512,-0.42756 -0.37198,-0.89347 -0.45857,-1.38928c-0.09492,-0.54352 -0.09822,-1.08185 -0.02102,-1.59917c-0.56665,-1.0121 -0.90228,-2.07184 -0.88325,-2.97352l-0.61951,-1.47452c0.04889,-0.06958 0.09676,-0.14113 0.14372,-0.21444c-1.89045,-2.26576 -2.81871,-5.773 -0.90012,-6.88916c0.22422,-0.38689 0.49958,-0.74303 0.81864,-1.05783c0.06177,-0.20029 0.13593,-0.39586 0.22173,-0.58565c0.05344,-0.32563 0.10854,-0.65027 0.16292,-0.97552c-0.01156,-0.03752 -0.0227,-0.07526 -0.03341,-0.1132c-1.69562,-2.02974 -3.10625,-5.08043 -1.59988,-6.3289c0.16577,-0.44003 0.39246,-0.85353 0.67159,-1.22839c-0.51138,-0.9644 -0.90894,-1.98983 -1.09318,-2.92696c-0.15823,-0.11724 -0.30944,-0.26085 -0.45215,-0.43305c-1.60137,-0.60325 -2.85124,-2.01345 -3.16696,-3.82121c-0.17833,-1.02107 -0.03328,-2.02384 0.36137,-2.9033c-0.00053,0.00009 -0.00106,0.00019 -0.00159,0.00028c-1.36012,0.23754 -2.65529,-0.6725 -2.89283,-2.03262c-0.03236,-0.1853 -0.04343,-0.36939 -0.03495,-0.54976c-0.66641,-0.34741 -1.16931,-0.99018 -1.30859,-1.78769c-0.23754,-1.36012 0.6725,-2.65529 2.03262,-2.89283c1.17258,-0.20479 2.29687,0.44334 2.73684,1.49748c0.29608,-0.81306 1.0066,-1.44977 1.92018,-1.60933c0.11554,-0.02018 0.23062,-0.03207 0.34461,-0.03612c0.3521,-0.64609 0.98479,-1.13136 1.76594,-1.26779c0.45965,-0.08028 0.91187,-0.02949 1.31838,0.12543c0.29206,-0.82173 1.00634,-1.46675 1.92671,-1.62749c0.11548,-0.02017 0.2305,-0.03206 0.34443,-0.03612c0.10857,-0.03481 0.2208,-0.0626 0.33628,-0.08277c0.32436,-0.05665 0.64502,-0.04803 0.94853,0.01639c0.34341,-0.32289 0.78186,-0.55242 1.2809,-0.63958c0.32053,-0.05598 0.63746,-0.04823 0.93777,0.01413c0.26141,-0.16047 0.55694,-0.27518 0.87747,-0.33116c0.24211,-0.04228 0.48216,-0.04821 0.71454,-0.0217c0.36552,-0.55896 0.95274,-0.97097 1.66254,-1.09493c0.42644,-0.07448 0.84649,-0.03614 1.22957,0.0935c0.36682,-0.54243 0.94496,-0.94092 1.64097,-1.06248c0.19523,-0.0341 0.38912,-0.04455 0.57873,-0.03342c0.04461,-0.01909 0.08995,-0.03696 0.13601,-0.05354c0.72961,-0.85971 1.75274,-1.47886 2.95033,-1.68801c0.23785,-0.04154 0.47471,-0.06554 0.70925,-0.07291c0.11746,-0.154 0.25205,-0.29589 0.40754,-0.42298c1.19381,-0.9759 2.90212,-1.68957 4.59778,-1.84496c0.14095,-0.16111 0.30286,-0.30462 0.48246,-0.42588c0.36832,-0.49102 0.91714,-0.84825 1.56951,-0.96219c0.82006,-0.14322 1.6165,0.13073 2.17176,0.66898c0.21786,-0.11147 0.45592,-0.19258 0.70964,-0.23689c0.53746,-0.09386 1.06476,-0.00854 1.52068,0.21293c0.02214,-0.0157 0.04456,-0.03105 0.06726,-0.04606c0.3573,-0.61971 0.97663,-1.08242 1.73641,-1.21511c0.15503,-0.02708 0.30922,-0.03924 0.4611,-0.03753c0.14231,-0.05308 0.29149,-0.09391 0.44652,-0.12098c0.54016,-0.09434 1.07009,-0.00768 1.52759,0.2163c0.07246,0.00652 0.14482,0.01434 0.21702,0.02346c0.36152,-0.40411 0.8565,-0.69404 1.43208,-0.79457c0.88164,-0.15397 1.73598,0.17423 2.29267,0.79463c0.29954,-0.21862 0.65254,-0.37369 1.04254,-0.4418c1.36012,-0.23754 2.65529,0.6725 2.89283,2.03262c0.14916,0.85408 -0.15419,1.68255 -0.73734,2.23962c-0.06325,0.14289 -0.13964,0.27935 -0.22794,0.40759c0.22159,0.43433 0.38289,0.90871 0.47117,1.41414c0.27994,1.60288 -0.23702,3.16065 -1.26546,4.26715c-0.02691,0.037 -0.05474,0.07334 -0.08357,0.10898c0.02264,0.09603 0.04261,0.1933 0.05981,0.29175c0.47508,2.72025 -1.34499,5.31058 -4.06524,5.78566c-0.17542,0.03064 -0.35031,0.05173 -0.52412,0.06365c-0.74287,0.38729 -2.29138,1.06223 -3.97216,1.74045c-1.09889,2.91477 -3.43155,6.02073 -6.00618,6.19908c-0.06226,0.9887 -0.41786,1.91845 -0.99351,2.68497c0.95543,1.38141 1.34971,3.27644 1.07754,5.0088c0.92656,1.70616 1.06392,4.02948 0.39914,5.94918c0.58888,3.04713 -0.74876,6.89082 -4.06941,7.47076z" fill="#c1788e"/><path d="M320.92394,258.40697c0.29721,0.40207 -0.10486,0.69929 -0.10486,0.69929l-0.30229,0.19154c-0.70057,2.7803 -5.61351,3.45214 -6.97565,1.01987c0,0 -0.23736,-0.44007 0.20271,-0.67742c0.44006,-0.23737 0.67742,0.20271 0.67742,0.20271c1.0571,2.0664 4.6588,0.72709 5.2773,-1.12006l0.52608,-0.42078c0,0 0.40207,-0.29721 0.69929,0.10487z" fill-opacity="0.12157" fill="#59434a"/><path d="M331.26794,253.46267c0.00148,-0.14635 0.05281,-0.42563 0.41225,-0.48841c0.49254,-0.08602 0.57857,0.40652 0.57857,0.40652l-0.1557,0.715c-1.44445,1.06773 -3.45235,1.81652 -5.2319,2.13646c0,0 -0.49254,0.08602 -0.57857,-0.40652c-0.08602,-0.49254 0.40652,-0.57857 0.40652,-0.57857c1.54183,-0.25983 3.2652,-0.89349 4.56883,-1.78449z" fill-opacity="0.12157" fill="#59434a"/><path d="M347.22372,249.36425c0.08602,0.49254 -0.40652,0.57857 -0.40652,0.57857l-0.24263,-0.01122c-1.7225,1.26718 -4.27021,1.96139 -6.36643,2.33459c0,0 -0.49254,0.08602 -0.57857,-0.40652c-0.08602,-0.49254 0.40652,-0.57857 0.40652,-0.57857c1.93821,-0.33094 4.35852,-0.9752 5.94405,-2.15366l0.665,-0.16973c0,0 0.49254,-0.08602 0.57857,0.40652z" fill-opacity="0.12157" fill="#59434a"/><path d="M343.05694,258.97741c0.08602,0.49254 -0.40652,0.57857 -0.40652,0.57857l-0.45626,0.02611c-0.76314,-0.22835 -1.48017,-0.55208 -2.24029,-0.77787c0,0 -0.47902,-0.14334 -0.33569,-0.62235c0.14334,-0.47901 0.62235,-0.33569 0.62235,-0.33569c0.76054,0.22904 1.47682,0.54943 2.2403,0.77787l-0.00245,-0.05316c0,0 0.49254,-0.08602 0.57857,0.40652z" fill-opacity="0.12157" fill="#59434a"/><path d="M336.31779,260.86269c0.29722,0.40208 -0.10486,0.69929 -0.10486,0.69929l-0.51451,0.36369c-1.68011,0.31582 -4.78973,1.5479 -5.38608,-0.48864c0,0 -0.08602,-0.49254 0.40652,-0.57857c0.49254,-0.08602 0.57857,0.40652 0.57857,0.40652c-0.08917,0.73152 3.24256,-0.138 4.00721,-0.25852l0.31385,-0.24863c0,0 0.40207,-0.29721 0.69929,0.10487z" fill-opacity="0.12157" fill="#59434a"/><path d="M319.87142,272.61359c-0.08602,-0.49254 0.40652,-0.57857 0.40652,-0.57857l-0.029,0.0881c2.09559,-1.96233 2.13139,-3.86832 1.65668,-6.60589l-0.18814,0.03286c-1.9173,0.33485 -3.81911,0.43317 -5.7123,0.7638c0,0 -0.49254,0.08602 -0.57857,-0.40652c-0.08602,-0.49254 0.40652,-0.57857 0.40652,-0.57857c1.89628,-0.33118 3.7935,-0.42869 5.7123,-0.7638l0.22691,-0.03963c0,0 0.46637,-0.08145 0.57075,0.36797c0.00008,0.00033 0.00015,0.00065 0.00023,0.00098c0.45909,-0.05494 0.54065,0.41212 0.54065,0.41212c0.53898,3.08614 0.41627,5.32521 -1.95117,7.54629l-0.48282,0.16736c0,0 -0.49254,0.08602 -0.57857,-0.40652z" fill-opacity="0.12157" fill="#59434a"/><path d="M321.40989,285.43925c-0.08602,-0.49254 0.40652,-0.57857 0.40652,-0.57857l0.24263,0.01121c1.63752,-1.17327 0.42247,-4.00763 0.13577,-5.64924c-0.08459,-0.48435 -0.10552,-2.24926 -0.58013,-2.25063c0,0 -0.47902,-0.14333 -0.33569,-0.62235c0.14334,-0.47902 0.62235,-0.33569 0.62235,-0.33569c1.2209,0.49679 1.06816,1.83184 1.27857,3.03661c0.38053,2.17886 1.57051,5.03992 -0.52643,6.62544l-0.665,0.16973c0,0 -0.49254,0.08602 -0.57857,-0.40652z" fill-opacity="0.12157" fill="#59434a"/><path d="M327.22741,273.41949c0.49447,0.07416 0.42031,0.56862 0.42031,0.56862l-0.11452,0.75521c-0.62683,2.09484 0.06629,4.17491 0.43345,6.27722c0,0 0.08602,0.49254 -0.40652,0.57857c-0.49254,0.08602 -0.57857,-0.40652 -0.57857,-0.40652c-0.39049,-2.23588 -1.09235,-4.4347 -0.4243,-6.6673l0.10152,-0.68548c0,0 0.07416,-0.49447 0.56862,-0.42032z" fill-opacity="0.12157" fill="#59434a"/><path d="M329.40333,266.75367c0.47902,0.14334 0.33569,0.62235 0.33569,0.62235l-0.17679,0.56832c-0.3978,0.57332 -1.10414,1.3975 -1.24218,2.01777c0,0 -0.14333,0.47901 -0.62235,0.33569c-0.47902,-0.14334 -0.33568,-0.62235 -0.33568,-0.62235c0.25742,-0.75439 0.8212,-1.49476 1.30047,-2.16752l0.11851,-0.41857c0,0 0.14333,-0.47901 0.62235,-0.33568z" fill-opacity="0.12157" fill="#59434a"/><path d="M319.93115,282.37259c0.34788,0.35913 -0.01126,0.70702 -0.01126,0.70702l-0.69703,0.67498c-1.2479,1.31216 -2.94884,1.76113 -4.74571,1.50633c0,0 -0.49447,-0.07416 -0.42032,-0.56862c0.07416,-0.49447 0.56862,-0.42032 0.56862,-0.42032c1.4689,0.23526 2.88485,-0.14042 3.88499,-1.21915l0.71369,-0.69151c0,0 0.35913,-0.34788 0.70702,0.01126z" fill-opacity="0.12157" fill="#59434a"/></g><path d="M301.00441,196.48914l37.19272,-6.65585l17.2793,53.4836c0,0 -8.40169,-2.37 -10.82911,0.44169c-1.67353,1.93847 -2.56189,7.88453 -2.56189,7.88453c0,0 -4.2035,-4.00175 -6.25705,-5.49401c-3.18021,-2.31099 -5.98075,4.39383 -6.57221,6.78506c-0.57933,2.34222 -1.4487,8.10804 -1.4487,8.10804c0,0 -1.4195,-4.07666 -2.94503,-5.9358c-2.26882,-2.76495 -6.0469,-5.2073 -9.1155,-2.84338c-3.03648,2.33918 -3.88955,5.58627 -5.22209,9.00626c-0.87351,2.24189 -2.00265,6.72594 -2.00265,6.72594c0,0 -0.71448,-1.3363 -1.12695,-2.38431c-0.95871,-2.43146 -5.37686,-0.27007 -7.31221,-0.70987c0,0 1.66271,-8.51567 1.53952,-14.01782c-0.12318,-5.50215 -0.61818,-54.39408 -0.61818,-54.39408z" fill="#e00d0d" stroke="#000000" stroke-width="0"/><g fill="#c10c0c"><path d="M301.00441,196.48914l37.19272,-6.65585l11.59632,36.10409l-48.38832,8.41566l-0.40074,-37.8639z" stroke="#000000" stroke-width="0"/><path d="M307.31725,236.38276c-0.04696,-0.26889 0.05559,-0.52933 0.24776,-0.69606c-0.0828,-0.01618 -0.16386,-0.03828 -0.24262,-0.06592c-0.25768,0.33601 -0.63732,0.58 -1.08733,0.6586c-0.48868,0.08535 -0.9654,-0.04094 -1.33615,-0.31284c-0.25619,0.30944 -0.61964,0.53272 -1.0464,0.60725c-0.95209,0.16628 -1.8587,-0.47074 -2.02498,-1.42283c-0.16628,-0.95209 0.47074,-1.8587 1.42283,-2.02498c0.48868,-0.08535 0.9654,0.04094 1.33615,0.31284c0.25619,-0.30944 0.61964,-0.53272 1.0464,-0.60725c0.30534,-0.05333 0.606,-0.02403 0.87907,0.07178c0.25768,-0.33601 0.63732,-0.58 1.08733,-0.6586c0.38176,-0.06667 0.75622,-0.00419 1.07858,0.15598c0.22053,-0.53785 0.70402,-0.9541 1.31896,-1.06149c0.73555,-0.12846 1.44395,0.22254 1.8048,0.82784c-0.03651,-0.62535 0.40109,-1.19232 1.03303,-1.30269c0.25457,-0.04446 0.5046,-0.00852 0.72403,0.08953c0.17749,-0.10536 0.37675,-0.18086 0.59214,-0.21848c0.63841,-0.1115 1.25637,0.13819 1.64439,0.60186c0.25739,-0.36856 0.65586,-0.6385 1.13369,-0.72195c0.29775,-0.052 0.59107,-0.02544 0.85866,0.06476c0.05539,-0.54293 0.46464,-1.0053 1.02875,-1.10382c0.68007,-0.11877 1.32764,0.33624 1.44641,1.01631c0.11877,0.68007 -0.33624,1.32764 -1.01631,1.44641c-0.09768,0.01706 -0.19469,0.02229 -0.28956,0.01671c0.15546,0.94565 -0.47958,1.84219 -1.4258,2.00744c-0.63841,0.1115 -1.25637,-0.13819 -1.64439,-0.60186c-0.25739,0.36856 -0.65586,0.63849 -1.13369,0.72194c-0.74128,0.12946 -1.455,-0.22803 -1.81319,-0.84205c-0.367,-0.03216 -0.69881,-0.22596 -0.90875,-0.52053c0.0091,0.0648 0.01452,0.12932 0.0164,0.19333c0.39064,0.15492 0.69397,0.50318 0.77156,0.9475c0.11877,0.68007 -0.33624,1.32764 -1.01631,1.44641c-0.53169,0.09286 -1.04354,-0.16503 -1.29832,-0.60697c-0.34879,0.04175 -0.6883,-0.02298 -0.98397,-0.16989c-0.1879,0.45829 -0.56673,0.82828 -1.05511,0.99416c0.16824,0.1096 0.2923,0.28607 0.32958,0.49948c0.07126,0.40804 -0.20174,0.79659 -0.60979,0.86785c-0.40804,0.07126 -0.79659,-0.20174 -0.86785,-0.60979z" stroke="none" stroke-width="0.5"/><path d="M321.04472,237.63628c-0.02741,-0.15693 -0.00389,-0.31099 0.05865,-0.44521c-0.67419,0.10893 -1.31259,-0.34426 -1.43043,-1.019c-0.09307,-0.53291 0.1662,-1.04588 0.61,-1.30007c-0.24918,-0.18418 -0.43072,-0.46074 -0.48824,-0.79007c-0.11877,-0.68007 0.33624,-1.32764 1.01631,-1.44641c0.19709,-0.03442 0.39145,-0.02064 0.571,0.03282c-0.03659,-0.09867 -0.06477,-0.20204 -0.08352,-0.30942c-0.01343,-0.0769 -0.02162,-0.1535 -0.02482,-0.22944c-0.18057,-0.17673 -0.30942,-0.40972 -0.35621,-0.67761c-0.11877,-0.68007 0.33624,-1.32764 1.01631,-1.44641c0.39347,-0.06872 0.77606,0.05464 1.05166,0.30253c0.42206,-0.00944 0.82178,0.13468 1.13583,0.38783c0.18718,-0.60925 0.70164,-1.09401 1.37252,-1.21118c0.95209,-0.16628 1.8587,0.47074 2.02498,1.42283c0.06904,0.39531 -0.00041,0.78276 -0.17338,1.11266c0.55659,0.04236 1.03514,0.45651 1.13558,1.03157c0.11877,0.68007 -0.33624,1.32764 -1.01631,1.44641c-0.68007,0.11877 -1.32764,-0.33624 -1.44641,-1.01631c-0.0325,-0.18611 -0.02204,-0.36979 0.02426,-0.54086c-0.49834,0.07152 -0.98059,-0.07542 -1.3465,-0.37038c-0.18718,0.60925 -0.70164,1.09401 -1.37252,1.21118c-0.37841,0.06609 -0.74964,0.00527 -1.07006,-0.15178c0.0014,0.00726 0.00273,0.01455 0.00401,0.02186c0.09307,0.53291 -0.1662,1.04588 -0.61,1.30007c0.24918,0.18418 0.43072,0.46073 0.48824,0.79007c0.06606,0.37823 -0.04538,0.7464 -0.27427,1.01914c0.32519,0.03376 0.60193,0.2791 0.66096,0.61711c0.07126,0.40804 -0.20174,0.79659 -0.60979,0.86785c-0.40804,0.07126 -0.79659,-0.20174 -0.86785,-0.60979z" stroke="none" stroke-width="0.5"/><path d="M332.76305,228.60095c0.08078,-0.01411 0.1611,-0.02012 0.24014,-0.01861c0.07385,-0.0282 0.15146,-0.04978 0.23224,-0.06389c0.32854,-0.05738 0.64948,0.01916 0.9069,0.19028c0.11831,-0.28731 0.34173,-0.52585 0.63088,-0.65958c0.12886,-0.69907 0.67915,-1.27733 1.42043,-1.40679c0.78686,-0.13742 1.54266,0.27384 1.87516,0.95817c0.75652,0.08085 1.39963,0.65251 1.53705,1.43937c0.16628,0.95209 -0.47074,1.8587 -1.42283,2.02498c-0.78686,0.13742 -1.54266,-0.27384 -1.87516,-0.95817c-0.04823,-0.00515 -0.096,-0.01231 -0.1432,-0.02137c-0.17322,0.16662 -0.39625,0.28518 -0.65082,0.32964c-0.32854,0.05738 -0.64948,-0.01916 -0.9069,-0.19027c-0.04151,0.10084 -0.09599,0.19565 -0.1617,0.28205c-0.04603,0.55281 -0.45884,1.02687 -1.03087,1.12677c-0.28761,0.05023 -0.5694,-0.00216 -0.80785,-0.13081c-0.11489,0.46681 -0.49526,0.84519 -0.9992,0.9332c-0.58381,0.10196 -1.14369,-0.21894 -1.36561,-0.74208c-0.44707,-0.24757 -0.78229,-0.68784 -0.87706,-1.23046c-0.16628,-0.95209 0.47074,-1.8587 1.42283,-2.02498c0.53531,-0.09349 1.05623,0.06697 1.43928,0.39458c0.15294,-0.11518 0.33472,-0.19683 0.53628,-0.23203z" stroke="none" stroke-width="0.5"/><path d="M344.11461,228.49586c0.11877,0.68007 -0.33624,1.32764 -1.01631,1.44641c-0.61395,0.10722 -1.20144,-0.25321 -1.39724,-0.82468c-0.56739,-0.20805 -1.01143,-0.70466 -1.12288,-1.34279c-0.16628,-0.95209 0.47074,-1.8587 1.42283,-2.02498c0.95209,-0.16628 1.8587,0.47074 2.02498,1.42283c0.0539,0.30862 0.0234,0.61246 -0.07489,0.88785c0.07915,0.12987 0.13576,0.27647 0.16351,0.43535z" stroke="none" stroke-width="0.5"/><path d="M345.07669,228.32784c-0.10303,-0.58991 0.22568,-1.15537 0.75852,-1.37245c0.17257,-0.63472 0.69752,-1.14512 1.38833,-1.26576c0.1638,-0.02861 0.32625,-0.03344 0.48382,-0.01698c0.14266,-0.0689 0.29715,-0.11941 0.46095,-0.14802c0.95209,-0.16628 1.8587,0.47074 2.02498,1.42283c0.16628,0.95209 -0.47074,1.8587 -1.42283,2.02498c-0.1638,0.02861 -0.32626,0.03344 -0.48383,0.01697c-0.14266,0.0689 -0.29714,0.11942 -0.46094,0.14803c-0.25996,0.0454 -0.5165,0.03092 -0.75553,-0.03351c-0.15515,0.1195 -0.34074,0.2042 -0.54705,0.24023c-0.68007,0.11877 -1.32764,-0.33624 -1.44641,-1.01631z" stroke="none" stroke-width="0.5"/><path d="M305.8402,239.07471c-0.07126,-0.40804 0.20174,-0.79659 0.60979,-0.86785c0.40804,-0.07126 0.79659,0.20174 0.86785,0.60979c0.07126,0.40804 -0.20174,0.79659 -0.60979,0.86785c-0.40804,0.07126 -0.79659,-0.20174 -0.86785,-0.60979z" stroke="none" stroke-width="0.5"/><path d="M324.44523,238.98957c-0.07126,-0.40804 0.20174,-0.79659 0.60979,-0.86785c0.40804,-0.07126 0.79659,0.20174 0.86785,0.60979c0.07126,0.40804 -0.20174,0.79659 -0.60979,0.86785c-0.40804,0.07126 -0.79659,-0.20174 -0.86785,-0.60979z" stroke="none" stroke-width="0.5"/><path d="M329.91694,235.47829c-0.07126,-0.40804 0.20174,-0.79659 0.60979,-0.86785c0.40804,-0.07126 0.79659,0.20174 0.86785,0.60979c0.07126,0.40804 -0.20174,0.79659 -0.60979,0.86785c-0.40804,0.07126 -0.79659,-0.20174 -0.86785,-0.60979z" stroke="none" stroke-width="0.5"/><path d="M333.28917,233.18556c-0.07126,-0.40804 0.20174,-0.79659 0.60979,-0.86785c0.40804,-0.07126 0.79659,0.20174 0.86785,0.60979c0.07126,0.40804 -0.20174,0.79659 -0.60979,0.86785c-0.40804,0.07126 -0.79659,-0.20174 -0.86785,-0.60979z" stroke="none" stroke-width="0.5"/><path d="M346.15238,232.27773c-0.07126,-0.40804 0.20174,-0.79659 0.60979,-0.86785c0.40804,-0.07126 0.79659,0.20174 0.86785,0.60979c0.07126,0.40804 -0.20174,0.79659 -0.60979,0.86785c-0.40804,0.07126 -0.79659,-0.20174 -0.86785,-0.60979z" stroke="none" stroke-width="0.5"/><path d="M350.37958,233.48664c-0.07126,-0.40804 0.20174,-0.79659 0.60979,-0.86785c0.40804,-0.07126 0.79659,0.20174 0.86785,0.60979c0.07126,0.40804 -0.20174,0.79659 -0.60979,0.86785c-0.40804,0.07126 -0.79659,-0.20174 -0.86785,-0.60979z" stroke="none" stroke-width="0.5"/></g><g fill="#b70b0b"><path d="M301.00441,196.48914l37.19272,-6.65585l9.43642,29.20798l-46.3057,8.14996l-0.32346,-30.70209z" stroke="#000000" stroke-width="0"/><path d="M305.68375,228.94166c-0.46552,0.0813 -0.91837,-0.06146 -1.24797,-0.35058c-0.18363,0.09858 -0.38591,0.16992 -0.60245,0.20773c-1.0881,0.19003 -2.12423,-0.53799 -2.31426,-1.62609c-0.19003,-1.0881 0.53799,-2.12423 1.62609,-2.31426c0.63157,-0.1103 1.24563,0.08869 1.6869,0.48788c0.12299,-0.82954 0.76344,-1.52431 1.63479,-1.67649c1.0881,-0.19003 2.12423,0.53799 2.31426,1.62609c0.19003,1.0881 -0.53799,2.12423 -1.62609,2.31426c-0.08004,0.01398 -0.15981,0.023 -0.23897,0.02726c-0.07452,0.64268 -0.56242,1.18722 -1.23227,1.30421z" stroke="none" stroke-width="0.5"/><path d="M310.99458,229.04711c-0.13761,-0.78793 0.36665,-1.53952 1.13612,-1.71871c-0.09077,-0.09173 -0.17297,-0.19252 -0.24506,-0.30127c-0.19694,0.11331 -0.41669,0.19475 -0.65349,0.23611c-1.0881,0.19003 -2.12423,-0.53799 -2.31426,-1.62609c-0.19003,-1.0881 0.53799,-2.12423 1.62609,-2.31426c0.80757,-0.14104 1.5865,0.22361 2.01215,0.86584c0.19694,-0.11331 0.41669,-0.19475 0.65349,-0.23611c1.0881,-0.19003 2.12423,0.53799 2.31426,1.62609c0.19003,1.0881 -0.53799,2.12423 -1.62609,2.31426c-0.06826,0.01192 -0.1363,0.02023 -0.20395,0.02506c0.12639,0.17699 0.21608,0.38438 0.256,0.61295c0.14252,0.81608 -0.4035,1.59317 -1.21957,1.7357c-0.81607,0.14252 -1.59317,-0.40349 -1.7357,-1.21957z" stroke="none" stroke-width="0.5"/><path d="M324.60483,227.52202c0.14252,0.81608 -0.4035,1.59317 -1.21957,1.7357c-0.76534,0.13366 -1.4964,-0.33826 -1.7019,-1.07058c-0.70113,-0.01608 -1.3164,-0.52467 -1.44165,-1.24179c-0.05469,-0.31315 -0.00799,-0.62058 0.11644,-0.88859c-0.1881,-0.08351 -0.36224,-0.19552 -0.51603,-0.33152c-0.20862,0.70586 -0.80054,1.26941 -1.57475,1.40463c-1.0881,0.19003 -2.12423,-0.53799 -2.31426,-1.62609c-0.19003,-1.0881 0.53799,-2.12423 1.62609,-2.31426c0.62358,-0.10891 1.2301,0.08372 1.67008,0.47284c0.20862,-0.70586 0.80054,-1.26941 1.57475,-1.40463c1.0881,-0.19003 2.12423,0.53799 2.31426,1.62609c0.10745,0.61523 -0.0786,1.21383 -0.45728,1.65228c0.22621,0.18877 0.39813,0.44469 0.48217,0.74416c0.70113,0.01608 1.31639,0.52466 1.44164,1.24179z" stroke="none" stroke-width="0.5"/><path d="M330.36328,222.86536c0.14252,0.81608 -0.4035,1.59317 -1.21957,1.7357c-0.5932,0.1036 -1.16582,-0.15662 -1.48906,-0.61991c-0.13346,0.05528 -0.275,0.09688 -0.42323,0.12276c-0.34343,0.05998 -0.68169,0.0285 -0.9898,-0.07689c-0.07774,0.63907 -0.56432,1.17942 -1.23129,1.29591c-0.81607,0.14252 -1.59317,-0.40349 -1.7357,-1.21957c-0.14252,-0.81608 0.4035,-1.59317 1.21957,-1.7357c0.13705,-0.02393 0.27299,-0.02845 0.40502,-0.01553c-0.11539,-1.04112 0.59792,-2.00589 1.64402,-2.18858c1.03211,-0.18025 2.01746,0.4655 2.27832,1.46107c0.74187,-0.03266 1.41056,0.48967 1.54173,1.24074z" stroke="none" stroke-width="0.5"/><path d="M334.81816,223.30432c-0.03166,-0.18131 -0.02934,-0.36068 0.00238,-0.53161c-0.04887,0.01237 -0.09856,0.02301 -0.14904,0.03183c-1.0881,0.19003 -2.12423,-0.53799 -2.31426,-1.62609c-0.19003,-1.0881 0.53799,-2.12423 1.62609,-2.31426c1.0881,-0.19003 2.12423,0.53799 2.31426,1.62609c0.06452,0.36942 0.02321,0.73286 -0.10208,1.05923c0.20698,-0.01412 0.40888,0.01511 0.59571,0.08066c-0.09328,-0.17845 -0.16098,-0.37413 -0.19747,-0.5831c-0.19003,-1.0881 0.53799,-2.12423 1.62609,-2.31426c1.0881,-0.19003 2.12423,0.53799 2.31426,1.62609c0.19003,1.0881 -0.53799,2.12423 -1.62609,2.31426c-0.42864,0.07486 -0.84922,0.00725 -1.21319,-0.16872c0.0348,0.09014 0.06136,0.18497 0.07861,0.28377c0.14252,0.81608 -0.4035,1.59317 -1.21957,1.7357c-0.81607,0.14252 -1.59317,-0.40349 -1.7357,-1.21957z" stroke="none" stroke-width="0.5"/><path d="M345.86617,218.61437c1.0881,-0.19003 2.12423,0.53799 2.31426,1.62609c0.19003,1.0881 -0.53799,2.12423 -1.62609,2.31426c-0.67181,0.11733 -1.32382,-0.11531 -1.7691,-0.56659c-0.25924,0.2152 -0.57646,0.36774 -0.93215,0.42986c-1.0881,0.19003 -2.12423,-0.53799 -2.31426,-1.62609c-0.19003,-1.0881 0.53799,-2.12423 1.62609,-2.31426c0.67181,-0.11733 1.32382,0.11531 1.7691,0.56659c0.25924,-0.2152 0.57646,-0.36774 0.93215,-0.42986z" stroke="none" stroke-width="0.5"/><path d="M330.88172,226.54748c-0.14252,-0.81608 0.4035,-1.59317 1.21957,-1.7357c0.81607,-0.14252 1.59317,0.40349 1.7357,1.21957c0.14252,0.81608 -0.4035,1.59317 -1.21957,1.7357c-0.81607,0.14252 -1.59317,-0.40349 -1.7357,-1.21957z" stroke="none" stroke-width="0.5"/><path d="M304.4021,231.53714c-0.07126,-0.40804 0.20174,-0.79659 0.60979,-0.86785c0.40804,-0.07126 0.79659,0.20174 0.86785,0.60979c0.07126,0.40804 -0.20174,0.79659 -0.60979,0.86785c-0.40804,0.07126 -0.79659,-0.20174 -0.86785,-0.60979z" stroke="none" stroke-width="0.5"/><path d="M347.62545,223.98835c-0.07126,-0.40804 0.20174,-0.79659 0.60979,-0.86785c0.40804,-0.07126 0.79659,0.20174 0.86785,0.60979c0.07126,0.40804 -0.20174,0.79659 -0.60979,0.86785c-0.40804,0.07126 -0.79659,-0.20174 -0.86785,-0.60979z" stroke="none" stroke-width="0.5"/><path d="M342.83039,225.79938c-0.07126,-0.40804 0.20174,-0.79659 0.60979,-0.86785c0.40804,-0.07126 0.79659,0.20174 0.86785,0.60979c0.07126,0.40804 -0.20174,0.79659 -0.60979,0.86785c-0.40804,0.07126 -0.79659,-0.20174 -0.86785,-0.60979z" stroke="none" stroke-width="0.5"/><path d="M342.16107,223.3606c-0.07126,-0.40804 0.20174,-0.79659 0.60979,-0.86785c0.40804,-0.07126 0.79659,0.20174 0.86785,0.60979c0.07126,0.40804 -0.20174,0.79659 -0.60979,0.86785c-0.40804,0.07126 -0.79659,-0.20174 -0.86785,-0.60979z" stroke="none" stroke-width="0.5"/></g><g fill="#a50a0a"><path d="M301.00441,196.48914l37.19272,-6.65585l7.35251,22.7578l-44.31047,6.41414l-0.23479,-22.51608z" stroke="#000000" stroke-width="0"/><path d="M305.74988,219.86209c-0.00591,-0.03387 -0.0104,-0.06765 -0.01352,-0.10129c-0.13022,0.05844 -0.26973,0.10177 -0.41677,0.12745c-0.2103,0.03673 -0.41838,0.03426 -0.61676,-0.00212c-0.25777,0.33972 -0.63959,0.58664 -1.09282,0.6658c-0.95209,0.16628 -1.8587,-0.47074 -2.02498,-1.42283c-0.16628,-0.95209 0.47074,-1.8587 1.42283,-2.02498c0.2103,-0.03673 0.41838,-0.03426 0.61675,0.00213c0.25777,-0.33972 0.6396,-0.58665 1.09282,-0.6658c0.60223,-0.10518 1.18626,0.11106 1.57626,0.52513c0.19997,-0.58454 0.70397,-1.04506 1.35553,-1.15885c0.95209,-0.16628 1.8587,0.47074 2.02498,1.42283c0.16628,0.95209 -0.47074,1.8587 -1.42283,2.02498c-0.02648,0.00462 -0.05292,0.00862 -0.0793,0.01201c0.01701,0.05344 0.03061,0.10865 0.04053,0.16544c0.11877,0.68007 -0.33624,1.32764 -1.01631,1.44641c-0.68007,0.11877 -1.32764,-0.33624 -1.44641,-1.01631z" stroke="none" stroke-width="0.5"/><path d="M314.50965,218.45392c-0.00984,-0.05637 -0.01574,-0.11251 -0.0179,-0.16814c-0.41976,-0.08562 -0.79363,-0.32355 -1.04944,-0.66308c-0.25782,0.34381 -0.64206,0.59397 -1.0988,0.67374c-0.95209,0.16628 -1.8587,-0.47074 -2.02498,-1.42283c-0.16628,-0.95209 0.47074,-1.8587 1.42283,-2.02498c0.66978,-0.11697 1.31705,0.1636 1.69992,0.67175c0.25782,-0.34381 0.64206,-0.59398 1.09881,-0.67375c0.95209,-0.16628 1.8587,0.47074 2.02498,1.42283c0.05807,0.33249 0.01816,0.65944 -0.0989,0.95124c0.25841,0.18403 0.44733,0.46591 0.50622,0.80311c0.11877,0.68007 -0.33624,1.32764 -1.01631,1.44641c-0.68007,0.11877 -1.32764,-0.33624 -1.44641,-1.01631z" stroke="none" stroke-width="0.5"/><path d="M323.41215,214.77832c0.06359,-0.01111 0.1269,-0.01719 0.18951,-0.01855c-0.01305,-0.84543 0.58963,-1.59869 1.449,-1.74877c0.55879,-0.09759 1.10194,0.08154 1.48892,0.43866c0.72539,0.108 1.33278,0.66821 1.46587,1.43027c0.16628,0.95209 -0.47074,1.8587 -1.42283,2.02498c-0.55879,0.09759 -1.10194,-0.08153 -1.48892,-0.43866c-0.09531,-0.01418 -0.18859,-0.03618 -0.27902,-0.06542c-0.13989,0.42344 -0.50241,0.75812 -0.97244,0.84021c-0.06044,0.01055 -0.12062,0.01658 -0.18019,0.01831c-0.11959,0.4594 -0.49698,0.83014 -0.99512,0.91714c-0.44358,0.07747 -0.87333,-0.08917 -1.15154,-0.40315c-0.1649,0.27969 -0.40654,0.51258 -0.7017,0.66564c-0.16622,0.14509 -0.37296,0.24801 -0.60617,0.28874c-0.40833,0.07131 -0.80493,-0.06423 -1.08241,-0.33114c-0.42928,-0.2509 -0.74934,-0.6821 -0.84158,-1.21026c-0.16628,-0.95209 0.47074,-1.8587 1.42283,-2.02498c0.7684,-0.1342 1.50719,0.25484 1.85107,0.91046c0.17695,-0.18153 0.41059,-0.31109 0.67939,-0.35803c0.06044,-0.01055 0.1206,-0.01659 0.18019,-0.01831c0.11959,-0.4594 0.49698,-0.83014 0.99513,-0.91714z" stroke="none" stroke-width="0.5"/><path d="M343.10448,210.46647c0.95209,-0.16628 1.8587,0.47074 2.02498,1.42283c0.16628,0.95209 -0.47074,1.8587 -1.42283,2.02498c-0.1638,0.02861 -0.32625,0.03344 -0.48382,0.01697c-0.14266,0.0689 -0.29714,0.11942 -0.46094,0.14803c-0.95209,0.16628 -1.8587,-0.47074 -2.02498,-1.42283c-0.16628,-0.95209 0.47074,-1.8587 1.42283,-2.02498c0.1638,-0.02861 0.32625,-0.03344 0.48382,-0.01697c0.14266,-0.0689 0.29714,-0.11942 0.46094,-0.14803z" stroke="none" stroke-width="0.5"/><path d="M331.40713,213.86883c0.01637,-0.00286 0.03272,-0.00538 0.04905,-0.00758c-0.00486,-0.02262 -0.00933,-0.04543 -0.01334,-0.06842c-0.16628,-0.95209 0.47074,-1.8587 1.42283,-2.02498c0.18636,-0.03255 0.37098,-0.03432 0.54864,-0.00897c0.24703,-0.25104 0.57197,-0.43014 0.94536,-0.49535c0.95209,-0.16628 1.8587,0.47074 2.02498,1.42283c0.16628,0.95209 -0.47074,1.8587 -1.42283,2.02498c-0.18636,0.03255 -0.37097,0.03431 -0.54864,0.00897c-0.24703,0.25104 -0.57197,0.43014 -0.94537,0.49535c-0.20464,0.03574 -0.4072,0.03437 -0.60074,0.00073c-0.0508,0.54783 -0.46183,1.01596 -1.02985,1.11517c-0.40895,0.07142 -0.80616,-0.06465 -1.08369,-0.33238c-0.11291,0.46984 -0.49448,0.85139 -1.00079,0.93981c-0.68007,0.11877 -1.32764,-0.33624 -1.44641,-1.01631c-0.11877,-0.68007 0.33624,-1.32764 1.01631,-1.44641c0.40895,-0.07142 0.80616,0.06465 1.08369,0.33238c0.11291,-0.46984 0.49448,-0.85139 1.00079,-0.93981z" stroke="none" stroke-width="0.5"/><path d="M338.11965,215.66921c-0.11877,-0.68007 0.33624,-1.32764 1.01631,-1.44641c0.68007,-0.11877 1.32764,0.33624 1.44641,1.01631c0.11877,0.68007 -0.33624,1.32764 -1.01631,1.44641c-0.68007,0.11877 -1.32764,-0.33624 -1.44641,-1.01631z" stroke="none" stroke-width="0.5"/><path d="M307.85286,224.11935c-0.07126,-0.40804 0.20174,-0.79659 0.60979,-0.86785c0.40804,-0.07126 0.79659,0.20174 0.86785,0.60979c0.07126,0.40804 -0.20174,0.79659 -0.60979,0.86785c-0.40804,0.07126 -0.79659,-0.20174 -0.86785,-0.60979z" stroke="none" stroke-width="0.5"/><path d="M305.23211,221.65629c-0.07126,-0.40804 0.20174,-0.79659 0.60979,-0.86785c0.40804,-0.07126 0.79659,0.20174 0.86785,0.60979c0.07126,0.40804 -0.20174,0.79659 -0.60979,0.86785c-0.40804,0.07126 -0.79659,-0.20174 -0.86785,-0.60979z" stroke="none" stroke-width="0.5"/><path d="M316.52448,221.50961c-0.07126,-0.40804 0.20174,-0.79659 0.60979,-0.86785c0.40804,-0.07126 0.79659,0.20174 0.86785,0.60979c0.07126,0.40804 -0.20174,0.79659 -0.60979,0.86785c-0.40804,0.07126 -0.79659,-0.20174 -0.86785,-0.60979z" stroke="none" stroke-width="0.5"/><path d="M323.38339,218.97303c-0.07126,-0.40804 0.20174,-0.79659 0.60979,-0.86785c0.40804,-0.07126 0.79659,0.20174 0.86785,0.60979c0.03744,0.21439 -0.02016,0.42339 -0.14244,0.58382c0.09554,0.10261 0.16343,0.23316 0.18935,0.38157c0.07126,0.40804 -0.20174,0.79659 -0.60979,0.86785c-0.40804,0.07126 -0.79659,-0.20174 -0.86785,-0.60979c-0.03744,-0.21439 0.02016,-0.42339 0.14244,-0.58382c-0.09554,-0.10261 -0.16343,-0.23316 -0.18935,-0.38157z" stroke="none" stroke-width="0.5"/><path d="M333.5041,217.69229c-0.07126,-0.40804 0.20174,-0.79659 0.60979,-0.86785c0.40804,-0.07126 0.79659,0.20174 0.86785,0.60979c0.07126,0.40804 -0.20174,0.79659 -0.60979,0.86785c-0.40804,0.07126 -0.79659,-0.20174 -0.86785,-0.60979z" stroke="none" stroke-width="0.5"/><path d="M335.83044,217.77279c-0.07126,-0.40804 0.20174,-0.79659 0.60979,-0.86785c0.40804,-0.07126 0.79659,0.20174 0.86785,0.60979c0.07126,0.40804 -0.20174,0.79659 -0.60979,0.86785c-0.40804,0.07126 -0.79659,-0.20174 -0.86785,-0.60979z" stroke="none" stroke-width="0.5"/></g></g><path d="M347.65099,196.61993c1.58674,9.08548 -9.2161,18.56205 -24.12882,21.1665c-14.91273,2.60445 -28.28819,-2.64946 -29.87493,-11.73494c-1.58674,-9.08548 9.2161,-18.56205 24.12882,-21.1665c14.91273,-2.60445 28.28819,2.64946 29.87493,11.73494z" fill="#4c291f" stroke="none" stroke-width="0"/></g><path d="M315.25178,194.78161v-202.7749h6.70946v202.7749z" fill="url(#color-1)" stroke="none" stroke-width="0" stroke-linecap="butt"/><path d="M214.52362,306.61252v-267.72501h213.18203v267.72501z" fill="none" stroke="none" stroke-width="0" stroke-linecap="butt"/><path d="" fill="none" stroke="#000000" stroke-width="2" stroke-linecap="round"/><g stroke-linecap="butt"><path d="M257.258,153.36957c-0.36028,-32.51553 27.42847,-59.18571 62.06792,-59.56952c17.67009,-0.19579 45.23167,17.39652 45.23167,17.39652c0,0 2.93899,7.11282 5.66996,11.19231c2.73098,4.07948 8.9037,10.57756 8.9037,10.57756c0,0 3.4934,12.34621 3.56727,19.01323c0.36028,32.51553 -27.42847,59.18573 -62.06791,59.56954c-34.63944,0.38381 -63.01232,-25.6641 -63.37261,-58.17963z" fill="#e0d6c6" stroke="#000000" stroke-width="0"/><path d="M257.258,153.36957c-0.36028,-32.51553 27.42847,-59.18571 62.06792,-59.56952c17.67009,-0.19579 45.23167,17.39652 45.23167,17.39652c0,0 2.93899,7.11282 5.66996,11.19231c2.73098,4.07948 8.9037,10.57756 8.9037,10.57756c0,0 3.4934,12.34621 3.56727,19.01323c0.09243,8.34195 -1.66788,16.29915 -4.92131,23.52646c-1.17165,2.60278 -113.68712,4.15015 -114.93827,1.56549c-3.4995,-7.22936 -5.48726,-15.24704 -5.58094,-23.70204z" fill="#c8bfb0" stroke="#000000" stroke-width="0"/><path d="M360.63849,159.06925c0.00765,0.69032 -0.54576,1.25612 -1.23607,1.26377c-0.49525,0.00549 -0.92641,-0.2778 -1.13337,-0.69325c-0.26831,0.17379 -0.58743,0.27621 -0.93072,0.28001c-0.5387,0.00597 -1.02323,-0.23211 -1.34848,-0.6114c-0.26227,0.16277 -0.57095,0.25821 -0.90214,0.26188c-0.96644,0.01071 -1.75857,-0.76406 -1.76928,-1.7305c-0.01071,-0.96644 0.76406,-1.75857 1.7305,-1.76928c0.5387,-0.00597 1.02323,0.23211 1.34848,0.6114c0.22109,-0.13722 0.47518,-0.22658 0.74792,-0.25345c0.29642,-0.24185 0.67383,-0.38864 1.08611,-0.39321c0.96644,-0.01071 1.75857,0.76406 1.76928,1.7305c0.00083,0.0748 -0.00304,0.14855 -0.01135,0.22098c0.38264,0.21013 0.64396,0.61492 0.64914,1.08255z" fill="#9d958a" stroke="none" stroke-width="0.5"/><path d="M257.258,153.36957c-0.36028,-32.51553 27.42847,-59.18571 62.06792,-59.56952c17.67009,-0.19579 45.23167,17.39652 45.23167,17.39652c0,0 2.93899,7.11282 5.66996,11.19231c2.73098,4.07948 8.9037,10.57756 8.9037,10.57756c0,0 3.4934,12.34621 3.56727,19.01323c0.02065,1.86412 -0.05121,3.70902 -0.21158,5.53086c-0.0749,0.85082 -124.8427,1.92093 -124.94746,0.88701c-0.16785,-1.65654 -0.2627,-3.33346 -0.28147,-5.02796z" fill="#9d958a" stroke="#000000" stroke-width="0"/><path d="M261.13569,132.31663c8.76685,-22.24153 31.43502,-38.22012 58.19022,-38.51658c17.67009,-0.19579 45.23167,17.39652 45.23167,17.39652c0,0 2.93899,7.11282 5.66996,11.19231c2.73098,4.07948 8.9037,10.57756 8.9037,10.57756c0,0 -119.35949,2.81048 -117.99556,-0.64981z" fill="#8e887d" stroke="#000000" stroke-width="0"/><path d="M361.17789,145.77899c0.49997,-0.00554 0.50551,0.49443 0.50551,0.49443l-0.06353,1.01262c-0.52739,0.3179 -0.99878,0.74653 -1.37418,1.23465c-2.52118,1.94625 -2.35962,5.27029 -4.40654,7.34526c-1.09107,1.10603 -2.84032,-0.10898 -2.28046,1.98439c0,0 0.12664,0.4837 -0.35706,0.61033c-0.4837,0.12664 -0.61033,-0.35706 -0.61033,-0.35706c-0.74811,-2.91084 1.31861,-1.66973 2.53296,-2.93689c2.01185,-2.09934 1.83004,-5.38284 4.41755,-7.35635c0.33267,-0.41902 0.72324,-0.84675 1.2218,-1.04086l-0.08013,-0.48502c0,0 -0.00554,-0.49997 0.49443,-0.50551z" fill="#928673" stroke="none" stroke-width="0.5"/><path d="M354.67153,168.77711c-2.61422,-0.01979 -5.87435,-0.90181 -6.30472,-1.11986c-3.58733,-1.81748 -9.23547,-6.61948 -7.77496,-10.24852c1.46051,-3.62903 6.97443,-1.99168 12.34819,0.17101c3.28554,1.32228 6.53003,6.14613 6.06107,8.97132c-0.29805,1.79562 -3.74591,2.23047 -4.32959,2.22605z" fill="#8f8d8b" stroke="none" stroke-width="0"/><path d="M340.35582,158.62177c0.0033,-0.41455 0.0781,-0.82065 0.23602,-1.21303c1.46051,-3.62903 7.2933,-1.6798 12.66706,0.48288c0.1798,0.07236 -12.90498,0.96903 -12.90308,0.73015z" fill="#706e6d" stroke="none" stroke-width="0"/><path d="M352.44832,135.56918c-0.00193,-0.17402 0.03179,-0.34011 0.09438,-0.49137c-0.28742,-0.13842 -0.53147,-0.35317 -0.70553,-0.61822c-0.16539,0.78494 -0.8576,1.37814 -1.69303,1.38739c-0.96644,0.01071 -1.75857,-0.76406 -1.76928,-1.7305c-0.01071,-0.96644 0.76406,-1.75857 1.7305,-1.76928c0.61918,-0.00686 1.16681,0.3087 1.48323,0.7905c0.16539,-0.78494 0.8576,-1.37813 1.69304,-1.38738c0.96644,-0.01071 1.75857,0.76406 1.76928,1.7305c0.00512,0.46227 -0.16947,0.88465 -0.45878,1.20073c0.21712,0.22206 0.35234,0.52486 0.35605,0.85992c0.00765,0.69032 -0.54576,1.25612 -1.23607,1.26377c-0.69032,0.00765 -1.25612,-0.54576 -1.26377,-1.23607z" fill="#8e887d" stroke="none" stroke-width="0.5"/><path d="M356.94955,136.26822c-0.00765,-0.69032 0.54576,-1.25612 1.23607,-1.26377c0.69032,-0.00765 1.25612,0.54576 1.26377,1.23607c0.00765,0.69032 -0.54576,1.25612 -1.23607,1.26377c-0.69032,0.00765 -1.25612,-0.54576 -1.26377,-1.23607z" fill="#8e887d" stroke="none" stroke-width="0.5"/><path d="M353.41961,138.74132c-0.00765,-0.69032 0.54576,-1.25612 1.23607,-1.26377c0.69032,-0.00765 1.25612,0.54576 1.26377,1.23607c0.00765,0.69032 -0.54576,1.25612 -1.23607,1.26377c-0.69032,0.00765 -1.25612,-0.54576 -1.26377,-1.23607z" fill="#8e887d" stroke="none" stroke-width="0.5"/><path d="M361.09712,138.84347c-0.00765,-0.69032 0.54576,-1.25612 1.23607,-1.26377c0.69032,-0.00765 1.25612,0.54576 1.26377,1.23607c0.00765,0.69032 -0.54576,1.25612 -1.23607,1.26377c-0.69032,0.00765 -1.25612,-0.54576 -1.26377,-1.23607z" fill="#8e887d" stroke="none" stroke-width="0.5"/><path d="M371.72279,140.22357c-0.00372,-0.33542 0.21333,-0.62185 0.516,-0.7211c-0.17446,-0.21226 -0.28045,-0.48318 -0.28373,-0.7793c-0.00349,-0.31495 0.1098,-0.60398 0.29962,-0.82592c-0.05933,0.00933 -0.12007,0.0145 -0.18189,0.01519c-0.69032,0.00765 -1.25612,-0.54576 -1.26377,-1.23607c-0.00107,-0.09617 0.00877,-0.18995 0.02834,-0.28012c-0.268,-0.05879 -0.50414,-0.20369 -0.67754,-0.4045c-0.05517,0.00587 -0.11111,0.00918 -0.16771,0.00981c-0.47021,0.00521 -0.89915,-0.17552 -1.21691,-0.4738c-0.22115,0.33372 -0.59838,0.55556 -1.02886,0.56033c-0.58319,0.00646 -1.07752,-0.38752 -1.22151,-0.92618c-0.203,0.08551 -0.42566,0.13386 -0.65953,0.13646c-0.63498,0.00704 -1.19471,-0.325 -1.507,-0.82771c-0.30107,0.50951 -0.85331,0.85387 -1.48829,0.8609c-0.43947,0.00487 -0.8429,-0.15268 -1.1532,-0.41682c-0.30599,0.4871 -0.84558,0.81343 -1.46353,0.82028c-0.81468,0.00903 -1.50549,-0.5401 -1.70878,-1.29169c-0.06525,0.00037 -0.1297,-0.00282 -0.19316,-0.00942c-0.3162,0.35569 -0.77549,0.58187 -1.28886,0.58756c-0.96644,0.01071 -1.75857,-0.76406 -1.76928,-1.7305c-0.01071,-0.96644 0.76406,-1.75857 1.7305,-1.76928c0.06847,-0.00076 0.13607,0.00242 0.20257,0.00934c0.3162,-0.35568 0.77549,-0.58186 1.28886,-0.58755c0.81468,-0.00903 1.50549,0.5401 1.70879,1.29169c0.43582,-0.00253 0.8357,0.15465 1.14379,0.4169c0.30599,-0.4871 0.84558,-0.81343 1.46353,-0.82028c0.63498,-0.00704 1.19471,0.32501 1.507,0.82771c0.27642,-0.46778 0.76456,-0.79637 1.33407,-0.85248c0.29642,-0.24186 0.67383,-0.38863 1.08611,-0.3932c0.52296,-0.00579 0.99489,0.21842 1.31958,0.57854c0.30076,-0.25676 0.68982,-0.41357 1.11617,-0.41829c0.77096,-0.00854 1.431,0.48277 1.67189,1.17251c0.23547,0.14005 0.43543,0.33385 0.58279,0.56467c0.17064,-0.09057 0.36488,-0.1428 0.57138,-0.14509c0.5791,-0.00642 1.07059,0.38201 1.21843,0.91488c0.22067,-0.33653 0.59955,-0.56056 1.03219,-0.56535c0.43806,-0.00485 0.82598,0.21623 1.05295,0.55486c0.63911,0.04892 1.14584,0.57943 1.15308,1.23246c0.00765,0.69032 -0.54576,1.25612 -1.23607,1.26377c-0.43806,0.00485 -0.82598,-0.21622 -1.05295,-0.55485c-0.53027,-0.0406 -0.96941,-0.41271 -1.10773,-0.91127c-0.12023,0.18333 -0.28739,0.33328 -0.48464,0.43259c0.41737,0.19866 0.70795,0.6221 0.71341,1.11547c0.00349,0.31495 -0.1098,0.60398 -0.29962,0.82592c0.05933,-0.00933 0.12007,-0.01449 0.18189,-0.01518c0.69032,-0.00765 1.25612,0.54576 1.26377,1.23607c0.00765,0.69032 -0.54576,1.25612 -1.23607,1.26377c-0.01371,0.00015 -0.02738,0.00009 -0.04098,-0.0002c0.02814,0.07743 0.04389,0.16085 0.04486,0.24791c0.00459,0.41419 -0.32745,0.75367 -0.74164,0.75826c-0.41419,0.00459 -0.75367,-0.32745 -0.75826,-0.74164z" fill="#8e887d" stroke="none" stroke-width="0.5"/><path d="M378.58898,134.59116c0.69032,-0.00765 1.25612,0.54576 1.26377,1.23607c0.00708,0.63881 -0.4663,1.171 -1.08402,1.25292c-0.22479,0.23897 -0.54276,0.38965 -0.89672,0.39357c-0.69032,0.00765 -1.25612,-0.54576 -1.26377,-1.23607c-0.00708,-0.63881 0.46629,-1.171 1.08401,-1.25293c0.22479,-0.23897 0.54277,-0.38964 0.89673,-0.39356z" fill="#8e887d" stroke="none" stroke-width="0.5"/><path d="M349.68437,145.14847c-0.00459,-0.41419 0.32745,-0.75367 0.74164,-0.75826c0.41419,-0.00459 0.75367,0.32745 0.75826,0.74164c0.00459,0.41419 -0.32745,0.75367 -0.74164,0.75826c-0.41419,0.00459 -0.75367,-0.32745 -0.75826,-0.74164z" fill="#8e887d" stroke="none" stroke-width="0.5"/><path d="M355.06355,140.59539c-0.00459,-0.41419 0.32745,-0.75367 0.74164,-0.75826c0.41419,-0.00459 0.75367,0.32745 0.75826,0.74164c0.00459,0.41419 -0.32745,0.75367 -0.74164,0.75826c-0.41419,0.00459 -0.75367,-0.32745 -0.75826,-0.74164z" fill="#8e887d" stroke="none" stroke-width="0.5"/><path d="M360.32399,142.22215c-0.00459,-0.41419 0.32745,-0.75367 0.74164,-0.75826c0.41419,-0.00459 0.75367,0.32745 0.75826,0.74164c0.00459,0.41419 -0.32745,0.75367 -0.74164,0.75826c-0.41419,0.00459 -0.75367,-0.32745 -0.75826,-0.74164z" fill="#8e887d" stroke="none" stroke-width="0.5"/><path d="M368.35931,140.82252c-0.00459,-0.41419 0.32745,-0.75367 0.74164,-0.75826c0.41419,-0.00459 0.75367,0.32745 0.75826,0.74164c0.00459,0.41419 -0.32745,0.75367 -0.74164,0.75826c-0.41419,0.00459 -0.75367,-0.32745 -0.75826,-0.74164z" fill="#8e887d" stroke="none" stroke-width="0.5"/><path d="M374.77616,145.43214c-0.00459,-0.41419 0.32745,-0.75367 0.74164,-0.75826c0.41419,-0.00459 0.75367,0.32745 0.75826,0.74164c0.00459,0.41419 -0.32745,0.75367 -0.74164,0.75826c-0.41419,0.00459 -0.75367,-0.32745 -0.75826,-0.74164z" fill="#8e887d" stroke="none" stroke-width="0.5"/><path d="M379.17748,133.164c-0.27178,0.34205 -0.49963,0.52559 -1.14682,0.76484c-5.04307,1.86435 -9.80297,-3.75467 -13.48981,-9.35837c-3.68685,-5.60371 -6.41698,-11.36891 -1.3739,-13.23326c0.49596,-0.18335 0.6501,-0.18919 1.10402,-0.24422c0.56763,-0.0688 3.0947,6.35973 6.90775,12.11373c3.42032,5.16137 8.20905,9.69263 7.99877,9.95728z" fill="#5e5d5b" stroke="none" stroke-width="0"/><path d="M371.0745,160.63868c-0.00046,-0.04164 0.00111,-0.08283 0.00464,-0.12347c-0.02206,0.00106 -0.04423,0.00173 -0.06651,0.00198c-0.96644,0.01071 -1.75857,-0.76406 -1.76928,-1.7305c-0.01071,-0.96644 0.76406,-1.75857 1.7305,-1.76928c0.37716,-0.00418 0.72777,0.11127 1.01575,0.31105c0.31293,-0.31838 0.74698,-0.51781 1.22864,-0.52314c0.43045,-0.00477 0.82634,0.14628 1.134,0.4007c0.11844,-0.02674 0.24149,-0.04149 0.3678,-0.04289c0.57489,-0.00637 1.08813,0.26521 1.41186,0.68975c0.31425,-0.43161 0.82133,-0.71449 1.39623,-0.72086c0.34783,-0.00385 0.67309,0.09404 0.94747,0.26601c0.1314,-0.04538 0.26993,-0.07557 0.41355,-0.08843c0.24329,-0.66255 0.87625,-1.13851 1.62391,-1.14679c0.81871,-0.00907 1.51234,0.54556 1.71177,1.30287c0.52684,0.05388 0.22279,3.4865 -0.16082,3.49075c-0.67602,0.00749 -1.26676,-0.36935 -1.56441,-0.92729c-0.31058,0.46099 -0.8351,0.76665 -1.43295,0.77327c-0.34783,0.00385 -0.67309,-0.09404 -0.94747,-0.26601c-0.17325,0.05983 -0.35891,0.09325 -0.55226,0.09539c-0.57489,0.00637 -1.08813,-0.26521 -1.41186,-0.68974c-0.31425,0.43161 -0.82133,0.71448 -1.39623,0.72085c-0.12851,0.00142 -0.25394,-0.01104 -0.37486,-0.03599c-0.12033,0.02763 -0.24546,0.04286 -0.37397,0.04429c-0.15016,0.00166 -0.29611,-0.01563 -0.43558,-0.04967c0.00193,0.68552 -0.54935,1.2456 -1.23614,1.25321c-0.69032,0.00765 -1.25612,-0.54576 -1.26377,-1.23607z" fill="#9d958a" stroke="none" stroke-width="0.5"/><path d="M367.78653,156.6166c0.69032,-0.00765 1.25612,0.54576 1.26377,1.23607c0.00488,0.44006 -0.21825,0.82951 -0.55949,1.05604c-0.09696,0.23897 -0.24522,0.45182 -0.43126,0.62476c0.00839,0.06634 0.01306,0.13383 0.01382,0.20231c0.00023,0.02079 0.0001,0.04151 -0.00039,0.06214c0.66096,0.02598 1.19239,0.56631 1.1998,1.23517c0.00765,0.69032 -0.54576,1.25612 -1.23607,1.26377c-0.56159,0.00622 -1.04077,-0.35887 -1.20408,-0.86692c-0.15514,0.04709 -0.31947,0.07323 -0.48976,0.07512c-0.94505,0.01047 -1.72342,-0.73016 -1.76742,-1.66662c-0.0832,-0.00206 -0.16498,-0.00995 -0.24496,-0.02326c-0.28171,0.5745 -0.86933,0.97289 -1.55281,0.98046c-0.96644,0.01071 -1.75857,-0.76406 -1.76928,-1.7305c-0.01071,-0.96644 0.76406,-1.75857 1.7305,-1.76928c0.10529,-0.00117 0.20851,0.007 0.30887,0.02371c0.28171,-0.5745 0.86933,-0.9729 1.55281,-0.98047c0.38487,-0.00426 0.7421,0.11604 1.03335,0.32342c0.28658,-0.21378 0.64105,-0.34197 1.02593,-0.34624c0.3746,-0.00415 0.72302,0.10972 1.00989,0.307c0.03844,-0.004 0.07741,-0.00625 0.1168,-0.00668z" fill="#9d958a" stroke="none" stroke-width="0.5"/><path d="M360.60758,162.25249c-0.00765,-0.69032 0.54576,-1.25612 1.23607,-1.26377c0.69032,-0.00765 1.25612,0.54576 1.26377,1.23607c0.00765,0.69032 -0.54576,1.25612 -1.23607,1.26377c-0.69032,0.00765 -1.25612,-0.54576 -1.26377,-1.23607z" fill="#9d958a" stroke="none" stroke-width="0.5"/><path d="M377.0879,162.63157c-0.00765,-0.69032 0.54576,-1.25612 1.23607,-1.26377c0.69032,-0.00765 1.25612,0.54576 1.26377,1.23607c0.00765,0.69032 -0.54576,1.25612 -1.23607,1.26377c-0.69032,0.00765 -1.25612,-0.54576 -1.26377,-1.23607z" fill="#9d958a" stroke="none" stroke-width="0.5"/><path d="M362.29923,168.4123c-0.00459,-0.41419 0.32745,-0.75367 0.74164,-0.75826c0.41419,-0.00459 0.75367,0.32745 0.75826,0.74164c0.00459,0.41419 -0.32745,0.75367 -0.74164,0.75826c-0.41419,0.00459 -0.75367,-0.32745 -0.75826,-0.74164z" fill="#9d958a" stroke="none" stroke-width="0.5"/><path d="M363.38721,165.21734c-0.00459,-0.41419 0.32745,-0.75367 0.74164,-0.75826c0.41419,-0.00459 0.75367,0.32745 0.75826,0.74164c0.00459,0.41419 -0.32745,0.75367 -0.74164,0.75826c-0.41419,0.00459 -0.75367,-0.32745 -0.75826,-0.74164z" fill="#9d958a" stroke="none" stroke-width="0.5"/><path d="M369.37364,164.77655c-0.00459,-0.41419 0.32745,-0.75367 0.74164,-0.75826c0.41419,-0.00459 0.75367,0.32745 0.75826,0.74164c0.00459,0.41419 -0.32745,0.75367 -0.74164,0.75826c-0.41419,0.00459 -0.75367,-0.32745 -0.75826,-0.74164z" fill="#9d958a" stroke="none" stroke-width="0.5"/><path d="M378.55917,165.79815c-0.00459,-0.41419 0.32745,-0.75367 0.74164,-0.75826c0.41419,-0.00459 0.75367,0.32745 0.75826,0.74164c0.00459,0.41419 -0.32745,0.75367 -0.74164,0.75826c-0.41419,0.00459 -0.75367,-0.32745 -0.75826,-0.74164z" fill="#9d958a" stroke="none" stroke-width="0.5"/><path d="M364.16263,180.07009c-0.00493,-0.44458 0.22286,-0.83753 0.57006,-1.06298c-0.05548,-0.01701 -0.1098,-0.03671 -0.16281,-0.05894c-0.30365,0.49829 -0.84959,0.83359 -1.47607,0.84054c-0.16976,0.00188 -0.33414,-0.02047 -0.48985,-0.06385c-0.19194,0.74816 -0.86673,1.30487 -1.67587,1.31384c-0.77998,0.00864 -1.44643,-0.49434 -1.68018,-1.19679c-0.26571,0.16894 -0.58028,0.26828 -0.91829,0.27202c-0.91815,0.01017 -1.67898,-0.68861 -1.7619,-1.58716c-0.22345,0.6985 -0.87421,1.2077 -1.64777,1.21627c-0.48055,0.00532 -0.918,-0.18356 -1.23773,-0.49365c-0.30983,0.38792 -0.78143,0.64154 -1.31398,0.6578c-0.30126,0.25861 -0.69174,0.41667 -1.11981,0.42141c-0.63321,0.00702 -1.19159,-0.32317 -1.50439,-0.82352c-0.10104,0.58225 -0.60555,1.02798 -1.21772,1.03477c-0.69032,0.00765 -1.25612,-0.54576 -1.26377,-1.23607c-0.00765,-0.69032 0.54576,-1.25612 1.23607,-1.26377c0.3954,-0.00438 0.74996,0.17531 0.98217,0.45937c0.00565,-0.12713 0.0249,-0.2508 0.05635,-0.36957c-0.21424,-0.28675 -0.34273,-0.64161 -0.347,-1.02695c-0.00992,-0.89492 0.6537,-1.64037 1.51934,-1.75431c0.16303,-0.78803 0.85669,-1.38435 1.69434,-1.39363c0.96644,-0.01071 1.75857,0.76406 1.76928,1.7305c0.00327,0.29497 -0.06664,0.5737 -0.19283,0.81894c0.26201,-0.1623 0.57023,-0.25744 0.9009,-0.26111c0.91815,-0.01017 1.67898,0.68861 1.7619,1.58716c0.22345,-0.6985 0.87421,-1.2077 1.64777,-1.21627c0.17964,-0.00199 0.35326,0.02316 0.51697,0.07164c0.29376,-0.53718 0.86128,-0.90424 1.51706,-0.9115c0.3751,-0.00416 0.72393,0.11002 1.01102,0.30779c0.14986,-0.80481 0.85137,-1.4182 1.70102,-1.42761c0.71763,-0.00795 1.33914,0.41719 1.61599,1.03231c0.17939,-0.06461 0.37247,-0.10078 0.57387,-0.10301c0.41156,-0.00456 0.79152,0.13333 1.09297,0.36781c0.31636,-0.40136 0.8049,-0.66129 1.35571,-0.66739c0.67956,-0.00753 1.27294,0.37331 1.56906,0.93606c0.26198,0.06903 0.49063,0.22108 0.65574,0.42659c-0.00685,-0.05978 -0.0107,-0.12048 -0.01138,-0.18197c-0.01071,-0.96644 0.76406,-1.75857 1.7305,-1.76928c0.24157,-0.00268 0.47224,0.04372 0.68255,0.12993c0.36275,0.14868 0.66489,0.41578 0.85776,0.75371c0.29613,0.16043 0.54101,0.40386 0.70311,0.69945c0.02227,-0.0657 0.04986,-0.12896 0.08228,-0.18927c-0.1592,-0.26021 -0.2524,-0.56544 -0.25603,-0.89264c-0.01071,-0.96644 0.76406,-1.75857 1.7305,-1.76928c0.96644,-0.01071 1.75857,0.76406 1.76928,1.7305c0.00733,0.66171 -0.35357,1.24171 -0.89211,1.54512c-0.012,0.67351 -0.55794,1.21947 -1.23595,1.22698c-0.41248,0.00457 -0.78052,-0.19118 -1.01157,-0.49676c-0.02339,0.12893 -0.06093,0.253 -0.11097,0.37052c0.36237,0.21543 0.60707,0.609 0.61209,1.06138c0.00765,0.69032 -0.54576,1.25612 -1.23607,1.26377c-0.69032,0.00765 -1.25612,-0.54576 -1.26377,-1.23607c-0.00017,-0.01528 -0.00007,-0.03051 0.00031,-0.04567c-0.53269,-0.08458 -0.98632,-0.40992 -1.24437,-0.86204c-0.2553,-0.13831 -0.47252,-0.33833 -0.63143,-0.58026c0.00007,0.00343 0.00012,0.00686 0.00015,0.0103c0.00765,0.69032 -0.54576,1.25612 -1.23607,1.26377c-0.16128,0.00179 -0.31577,-0.02705 -0.45794,-0.08111c-0.23082,0.11626 -0.49105,0.18299 -0.76691,0.18605c-0.41156,0.00456 -0.79152,-0.13333 -1.09297,-0.36781c-0.17435,0.2212 -0.40101,0.39944 -0.66155,0.5159c0.41166,0.20075 0.69736,0.62118 0.70278,1.11034c0.00765,0.69032 -0.54576,1.25612 -1.23607,1.26377c-0.69032,0.00765 -1.25612,-0.54576 -1.26377,-1.23607z" fill="#c8bfb0" stroke="none" stroke-width="0.5"/><path d="M344.02854,180.31726c-0.25146,0.00279 -0.4864,-0.06888 -0.68387,-0.19449c-0.08842,0.01479 -0.17913,0.02298 -0.27158,0.024c-0.44392,0.00492 -0.85107,-0.15589 -1.1626,-0.42488c-0.30549,0.27583 -0.70898,0.44562 -1.1529,0.45054c-0.96644,0.01071 -1.75857,-0.76406 -1.76928,-1.7305c-0.01071,-0.96644 0.76406,-1.75857 1.7305,-1.76928c0.15522,-0.00172 0.30595,0.01682 0.44966,0.05317c0.31674,-0.37295 0.78729,-0.61176 1.31498,-0.61761c0.028,-0.00031 0.05585,0.00004 0.08356,0.00103c0.03379,-0.00233 0.05266,-0.00254 0.05266,-0.00254c0.59022,-0.00654 1.18045,-0.01308 1.77067,-0.01962l0.32162,0.03757c0.23072,-0.11614 0.49081,-0.1828 0.76652,-0.18585c0.96644,-0.01071 1.75857,0.76406 1.76928,1.7305c0.0035,0.31621 -0.07708,0.61377 -0.22096,0.87139c-0.39969,1.35309 -1.8904,1.15697 -1.8904,1.15697l-0.03853,-0.00603c-0.2136,0.36981 -0.61133,0.62057 -1.06932,0.62565z" fill="#c8bfb0" stroke="none" stroke-width="0.5"/><path d="M341.3163,183.59257c-0.00765,-0.69032 0.54576,-1.25612 1.23607,-1.26377c0.69032,-0.00765 1.25612,0.54576 1.26377,1.23607c0.00765,0.69032 -0.54576,1.25612 -1.23607,1.26377c-0.69032,0.00765 -1.25612,-0.54576 -1.26377,-1.23607z" fill="#c8bfb0" stroke="none" stroke-width="0.5"/><path d="M350.84768,183.21451c-0.00765,-0.69032 0.54576,-1.25612 1.23607,-1.26377c0.69032,-0.00765 1.25612,0.54576 1.26377,1.23607c0.00765,0.69032 -0.54576,1.25612 -1.23607,1.26377c-0.69032,0.00765 -1.25612,-0.54576 -1.26377,-1.23607z" fill="#c8bfb0" stroke="none" stroke-width="0.5"/><path d="M356.68943,181.78756c-0.00765,-0.69032 0.54576,-1.25612 1.23607,-1.26377c0.69032,-0.00765 1.25612,0.54576 1.26377,1.23607c0.00765,0.69032 -0.54576,1.25612 -1.23607,1.26377c-0.69032,0.00765 -1.25612,-0.54576 -1.26377,-1.23607z" fill="#c8bfb0" stroke="none" stroke-width="0.5"/><path d="M345.96734,189.39859c-0.00459,-0.41418 0.32746,-0.75367 0.74164,-0.75826c0.41418,-0.00459 0.75367,0.32746 0.75826,0.74164c0.00459,0.41418 -0.32746,0.75367 -0.74164,0.75826c-0.41418,0.00459 -0.75367,-0.32746 -0.75826,-0.74164z" fill="#c8bfb0" stroke="none" stroke-width="0.5"/><path d="M347.52182,182.16159c-0.00459,-0.41418 0.32746,-0.75367 0.74164,-0.75826c0.41418,-0.00459 0.75367,0.32746 0.75826,0.74164c0.00459,0.41418 -0.32746,0.75367 -0.74164,0.75826c-0.41418,0.00459 -0.75367,-0.32746 -0.75826,-0.74164z" fill="#c8bfb0" stroke="none" stroke-width="0.5"/><path d="M350.4259,186.07986c-0.00459,-0.41418 0.32746,-0.75367 0.74164,-0.75826c0.41418,-0.00459 0.75367,0.32746 0.75826,0.74164c0.00459,0.41418 -0.32746,0.75367 -0.74164,0.75826c-0.41418,0.00459 -0.75367,-0.32746 -0.75826,-0.74164z" fill="#c8bfb0" stroke="none" stroke-width="0.5"/><path d="M352.06943,186.87898c-0.00459,-0.41418 0.32746,-0.75367 0.74164,-0.75826c0.41418,-0.00459 0.75367,0.32746 0.75826,0.74164c0.00459,0.41418 -0.32746,0.75367 -0.74164,0.75826c-0.41418,0.00459 -0.75367,-0.32746 -0.75826,-0.74164z" fill="#c8bfb0" stroke="none" stroke-width="0.5"/><path d="M355.93148,191.19531c-0.00459,-0.41418 0.32746,-0.75367 0.74164,-0.75826c0.41418,-0.00459 0.75367,0.32746 0.75826,0.74164c0.00459,0.41418 -0.32746,0.75367 -0.74164,0.75826c-0.41418,0.00459 -0.75367,-0.32746 -0.75826,-0.74164z" fill="#c8bfb0" stroke="none" stroke-width="0.5"/><path d="M357.23166,185.59579c-0.00459,-0.41418 0.32746,-0.75367 0.74164,-0.75826c0.41418,-0.00459 0.75367,0.32746 0.75826,0.74164c0.00459,0.41418 -0.32746,0.75367 -0.74164,0.75826c-0.41418,0.00459 -0.75367,-0.32746 -0.75826,-0.74164z" fill="#c8bfb0" stroke="none" stroke-width="0.5"/><path d="M366.34084,183.9964c-0.00459,-0.41418 0.32746,-0.75367 0.74164,-0.75826c0.41418,-0.00459 0.75367,0.32746 0.75826,0.74164c0.00459,0.41418 -0.32746,0.75367 -0.74164,0.75826c-0.41418,0.00459 -0.75367,-0.32746 -0.75826,-0.74164z" fill="#c8bfb0" stroke="none" stroke-width="0.5"/><path d="M368.65482,183.83454c-0.00459,-0.41418 0.32746,-0.75367 0.74164,-0.75826c0.41418,-0.00459 0.75367,0.32746 0.75826,0.74164c0.00459,0.41418 -0.32746,0.75367 -0.74164,0.75826c-0.41418,0.00459 -0.75367,-0.32746 -0.75826,-0.74164z" fill="#c8bfb0" stroke="none" stroke-width="0.5"/><path d="M351.56578,182.86601c-0.16336,-0.47256 0.3092,-0.63592 0.3092,-0.63592l0.41502,-0.11484c0.40203,-0.63886 -0.02235,-1.48643 -0.03393,-2.22345c0.05723,-1.41744 -2.04159,-3.31134 -2.29687,-4.96037c-0.13287,-0.8583 -0.02545,-1.85739 0.76768,-2.3755c0.41157,-0.26886 1.43957,-0.08782 1.44238,-0.76857c0.00596,-1.44238 -0.87785,-2.48058 -0.39645,-4.03097c0,0 0.15284,-0.47606 0.62892,-0.32322c0.47606,0.15284 0.32322,0.62892 0.32322,0.62892c-0.47025,1.40357 0.65608,2.53032 0.4395,3.82338c-0.32409,1.93494 -2.5552,0.75074 -2.2165,2.89631c0.29434,1.86454 2.23547,3.34762 2.30808,5.09896c0.00739,1.31149 0.43373,1.8327 -0.35025,3.02246l-0.70406,0.27203c0,0 -0.47256,0.16336 -0.63592,-0.3092z" fill="#928673" stroke="none" stroke-width="0.5"/><path d="M366.10523,192.81526c-0.15284,0.47606 -0.62892,0.32322 -0.62892,0.32322l-0.66898,-0.22883c-0.95835,-0.99506 -0.53497,-3.91032 0.37859,-5.04869c0.3459,-0.43102 1.5065,-0.74906 1.80758,-1.25369c0.72574,-1.21641 1.03713,-4.20772 1.39038,-5.70482c0.38724,-1.62526 1.61101,-2.80356 2.01008,-4.32214c0.36897,-1.40402 0.31535,-3.24697 0.91008,-4.58004c0.47859,-1.07275 1.96462,-0.94338 2.71087,-1.69009c0.80757,-0.80807 1.11716,-3.02194 1.51324,-4.11009c0.34837,-1.69973 0.12065,-3.55856 0.10842,-5.2902c-0.00406,-0.57573 -0.4246,-1.57314 -0.1514,-2.10655c1.20072,-2.34446 4.6721,-2.14849 6.49121,-3.43492c0,0 0.41293,-0.28194 0.69487,0.13099c0.28194,0.41293 -0.13099,0.69487 -0.13099,0.69487c-1.9212,1.27738 -4.59927,1.11521 -6.16825,3.07113c-0.34512,0.43024 0.25636,1.08191 0.26449,1.63341c0.02707,1.83639 0.21772,3.76905 -0.14567,5.57189c-0.46952,1.30083 -0.79704,3.53999 -1.76104,4.53871c-0.44656,0.46265 -2.3527,0.81384 -2.4977,1.36329c-0.36592,1.38655 -0.47106,3.03749 -0.86241,4.42658c-0.44098,1.56526 -1.62144,2.69141 -2.01303,4.33496c-0.39066,1.62541 -0.67578,4.55288 -1.4763,5.93512c-0.3753,0.64803 -1.48877,0.90619 -1.9075,1.40868c-0.37204,0.44645 -1.06645,3.24976 -0.64924,3.57522l0.4584,0.13313c0,0 0.47606,0.15284 0.32322,0.62892z" fill="#928673" stroke="none" stroke-width="0.5"/><g><g><path d="M255.34706,153.38707c-0.36897,-33.29981 28.09006,-60.61328 63.565,-61.00635c0.69416,-0.00769 6.39451,-0.00679 11.39316,-1.08637c4.12197,-0.89024 7.76256,-2.89827 7.76256,-2.89827c0,0 -0.38388,3.56345 1.67324,6.92802c1.40712,2.30143 5.75447,6.70155 5.75447,6.70155c0,0 -1.40956,6.68159 -0.24181,11.40235c0.66336,2.68172 4.64214,8.61207 4.64214,8.61207c0,0 -3.63554,4.98263 -3.19435,7.49011c0.77347,4.39596 4.30412,11.88395 4.30412,11.88395c0,0 -8.46937,4.44132 -8.66772,8.01809c-0.52502,9.46782 5.96745,17.24314 5.96745,17.24314c0,0 -9.72487,8.90982 -10.66055,13.95709c-1.42624,7.69353 7.49935,16.03175 7.49935,16.03175c0,0 -5.68278,5.38194 -5.38757,7.75116c1.23054,9.8758 7.89785,15.86444 7.89785,15.86444c0,0 -25.30807,-7.33307 -27.70546,-7.3065c-35.47494,0.39307 -64.23292,-26.28643 -64.6019,-59.58624z" fill="#e00d0d" stroke="#000000" stroke-width="0"/><g fill="#c10c0c"><path d="M255.34706,153.38707c-0.36897,-33.29981 28.09006,-60.61328 63.565,-61.00635c0.69416,-0.00769 6.39451,-0.00679 11.39316,-1.08637c4.12197,-0.89024 7.76256,-2.89827 7.76256,-2.89827c0,0 -0.38388,3.56345 1.67324,6.92802c1.40712,2.30143 5.75447,6.70155 5.75447,6.70155c0,0 -1.40956,6.68159 -0.24181,11.40235c0.66336,2.68172 4.64214,8.61207 4.64214,8.61207c0,0 -3.63554,4.98263 -3.19435,7.49011c0.77347,4.39596 4.30412,11.88395 4.30412,11.88395c0,0 -8.46937,4.44132 -8.66772,8.01809c-0.52502,9.46782 5.96745,17.24314 5.96745,17.24314c0,0 -6.4643,5.92252 -9.35926,10.84561c-0.04809,0.08176 -78.46222,-0.99181 -78.47245,-1.01437c-3.21842,-7.09954 -5.03559,-14.90826 -5.12657,-23.11954z" stroke="#000000" stroke-width="0"/><path d="M264.04837,176.79448c-0.00163,-0.14674 0.01485,-0.28947 0.04737,-0.42606c-0.258,0.6325 -0.87578,1.08142 -1.6017,1.08946c-0.96644,0.01071 -1.75857,-0.76406 -1.76928,-1.7305c-0.01071,-0.96644 0.76406,-1.75857 1.7305,-1.76928c0.96644,-0.01071 1.75857,0.76406 1.76928,1.7305c0.00163,0.14674 -0.01485,0.28947 -0.04737,0.42606c0.258,-0.6325 0.87578,-1.08142 1.6017,-1.08946c0.58406,-0.00647 1.10447,0.27395 1.42721,0.71018c0.31299,-0.44327 0.82705,-0.73516 1.41112,-0.74163c0.96644,-0.01071 1.75857,0.76406 1.76928,1.7305c0.01071,0.96644 -0.76406,1.75857 -1.7305,1.76928c-0.58406,0.00647 -1.10447,-0.27395 -1.42721,-0.71018c-0.31299,0.44327 -0.82705,0.73516 -1.41112,0.74163c-0.96644,0.01071 -1.75857,-0.76406 -1.76928,-1.7305z" stroke="none" stroke-width="0.5"/><path d="M271.06129,178.60922c-0.00218,-0.19711 0.07187,-0.37731 0.19474,-0.51254c-0.16425,-0.26311 -0.26061,-0.57321 -0.26429,-0.90603c-0.00792,-0.71484 0.41389,-1.33431 1.02513,-1.61274c0.31678,-0.3838 0.79428,-0.63064 1.33086,-0.63658c0.96644,-0.01071 1.75857,0.76406 1.76928,1.7305c0.00701,0.63252 -0.32245,1.19039 -0.82189,1.50337c0.01602,0.07765 0.02486,0.15794 0.02577,0.2402c0.00765,0.69032 -0.54576,1.25612 -1.23607,1.26377c-0.37082,0.00411 -0.70571,-0.15368 -0.93745,-0.40761c-0.09871,0.04957 -0.20994,0.078 -0.32782,0.07931c-0.41418,0.00459 -0.75367,-0.32746 -0.75826,-0.74164z" stroke="none" stroke-width="0.5"/><path d="M290.2383,177.4505c0.00765,0.69032 -0.54576,1.25612 -1.23607,1.26377c-0.07696,0.00085 -0.15236,-0.00526 -0.22562,-0.01777c-0.03238,0.00806 -0.06514,0.01522 -0.09822,0.02145c-0.2798,0.57978 -0.87023,0.98269 -1.55759,0.99031c-0.30338,0.00336 -0.58958,-0.07068 -0.83983,-0.20376c-0.08562,0.01958 -0.17461,0.03038 -0.26601,0.03139c-0.69032,0.00765 -1.25612,-0.54576 -1.26377,-1.23607c-0.00186,-0.16754 0.02933,-0.32774 0.08751,-0.47441c-0.06668,-0.10113 -0.12316,-0.20961 -0.16797,-0.324c-0.17443,-0.26864 -0.27724,-0.58834 -0.28105,-0.93233c-0.01071,-0.96644 0.76406,-1.75857 1.7305,-1.76928c0.5629,-0.00624 1.06666,0.25399 1.39134,0.66336c0.24404,-0.13395 0.52367,-0.21147 0.82149,-0.21476c0.93674,-0.01038 1.70973,0.71719 1.7661,1.64197c0.08694,0.16791 0.13696,0.35816 0.13919,0.56013z" stroke="none" stroke-width="0.5"/><path d="M334.54906,177.43265c-0.00669,-0.60412 0.29355,-1.14014 0.75567,-1.45975c0.30929,-0.4691 0.83852,-0.78114 1.44265,-0.78783c0.96644,-0.01071 1.75857,0.76406 1.76928,1.7305c0.00669,0.60412 -0.29355,1.14014 -0.75567,1.45975c-0.30929,0.4691 -0.83852,0.78114 -1.44265,0.78783c-0.96644,0.01071 -1.75857,-0.76406 -1.76928,-1.7305z" stroke="none" stroke-width="0.5"/><path d="M276.19357,176.97531c-0.01071,-0.96644 0.76406,-1.75857 1.7305,-1.76928c0.96644,-0.01071 1.75857,0.76406 1.76928,1.7305c0.01071,0.96644 -0.76406,1.75857 -1.7305,1.76928c-0.96644,0.01071 -1.75857,-0.76406 -1.76928,-1.7305z" stroke="none" stroke-width="0.5"/><path d="M304.60505,178.86836c0.00765,0.69032 -0.54576,1.25612 -1.23607,1.26377c-0.46679,0.00517 -0.87665,-0.2462 -1.0955,-0.62296c-0.10686,0.02167 -0.21729,0.03362 -0.33035,0.03487c-0.05059,0.00056 -0.10069,-0.00103 -0.15023,-0.00469c-0.07409,0.88918 -0.8143,1.59241 -1.72451,1.6025c-0.39895,0.00442 -0.76818,-0.12501 -1.06502,-0.34651c-0.06514,0.01124 -0.13202,0.01744 -0.20025,0.0182c-0.48661,0.00539 -0.91136,-0.26801 -1.12234,-0.67163c-0.13199,0.1828 -0.29847,0.33919 -0.49002,0.45953c-0.10216,0.58088 -0.60604,1.0252 -1.21723,1.03197c-0.69032,0.00765 -1.25612,-0.54576 -1.26377,-1.23607c-0.00144,-0.13024 0.01708,-0.25606 0.05274,-0.37453c-0.05099,-0.08432 -0.09508,-0.17331 -0.13145,-0.26619c-0.17443,-0.26864 -0.27724,-0.58834 -0.28105,-0.93233c-0.0006,-0.0542 0.00127,-0.10784 0.00551,-0.16084l-0.65536,0.09066c0.01533,0.07597 0.02378,0.15447 0.02467,0.23481c0.00765,0.69032 -0.54576,1.25612 -1.23607,1.26377c-0.69032,0.00765 -1.25612,-0.54576 -1.26377,-1.23607c-0.00128,-0.11518 0.01307,-0.22691 0.04106,-0.33315c-0.42996,-0.31442 -0.71158,-0.8205 -0.71794,-1.39409c-0.01071,-0.96644 0.76406,-1.75857 1.7305,-1.76928c0.585,-0.00648 1.10613,0.27484 1.42875,0.71226l0.55079,-0.07406c0.44637,-0.00576 0.89275,-0.0115 1.33912,-0.01726c0,0 1.14607,-0.0127 1.25551,1.08365c0.00934,0.00446 0.01863,0.00899 0.02788,0.01362c0.1316,-0.8269 0.84335,-1.46315 1.70881,-1.47274c0.26021,-0.00288 0.50779,0.05118 0.73088,0.15059c0.01968,-0.00088 0.03945,-0.00143 0.05929,-0.00165c0.38269,-0.00424 0.73805,0.11468 1.02838,0.3199c0.07731,-0.01133 0.15629,-0.01761 0.23659,-0.0185c0.14786,-0.00164 0.29164,0.01511 0.42916,0.04812c0.18079,-0.10063 0.38135,-0.17019 0.59457,-0.20136c0.28569,-0.21155 0.63829,-0.33828 1.02093,-0.34252c0.96644,-0.01071 1.75857,0.76406 1.76928,1.7305c0.00258,0.23265 -0.04036,0.4552 -0.12053,0.65918c0.16451,0.20903 0.26386,0.47199 0.26703,0.75854z" stroke="none" stroke-width="0.5"/><path d="M312.18089,179.41523c0.00765,0.69032 -0.54576,1.25612 -1.23607,1.26377c-0.57571,0.00638 -1.06483,-0.37748 -1.2158,-0.90554c-0.28162,0.20171 -0.6258,0.32204 -0.99848,0.32617c-0.5408,0.00599 -1.02701,-0.23397 -1.35227,-0.61584l-0.70462,0.00781c0,0 -1.74989,0.01939 -1.76928,-1.7305c-0.01939,-1.74989 1.7305,-1.76928 1.7305,-1.76928l2.83832,-0.03145c0,0 0.86649,-0.0096 1.38676,0.59444c0.23352,-0.09745 0.43305,-0.11214 0.43305,-0.11214c1.4577,-0.10606 2.85723,-0.30656 4.2575,-0.55547c0.16392,-0.08187 0.34846,-0.12882 0.54399,-0.13099c0.04684,-0.00052 0.09309,0.00155 0.13865,0.00605c0.75946,-0.14269 1.52194,-0.29739 2.29681,-0.45678l0.94631,-0.19465c0,0 1.22436,-0.25184 1.47621,0.97252c0.02306,0.11212 0.03375,0.21609 0.03412,0.31245c0.18745,0.25142 0.30903,0.55507 0.33888,0.88564c0.13217,-0.82624 0.84362,-1.46178 1.70859,-1.47136c0.96644,-0.01071 1.75857,0.76406 1.76928,1.7305c0.01071,0.96644 -0.76406,1.75857 -1.7305,1.76928c-0.15856,0.00176 -0.31243,-0.01763 -0.45893,-0.05554c0.00055,0.01503 0.0009,0.03012 0.00107,0.04525c0.01071,0.96644 -0.76406,1.75857 -1.7305,1.76928c-0.96644,0.01071 -1.75857,-0.76406 -1.76928,-1.7305c-0.00078,-0.07035 0.0026,-0.13977 0.00992,-0.20803c-0.20018,-0.0541 -0.38627,-0.14286 -0.55135,-0.25952c-0.51931,-0.06421 -0.96909,-0.35634 -1.24477,-0.77412c-0.12233,0.02376 -0.24454,0.04727 -0.36664,0.0705c0.51246,0.15144 0.88895,0.62286 0.89518,1.1851c0.00765,0.69032 -0.54576,1.25612 -1.23607,1.26377c-0.06158,0.00068 -0.12216,-0.0031 -0.18145,-0.01104c-0.3132,0.32047 -0.7487,0.52138 -1.23217,0.52673c-0.96644,0.01071 -1.75857,-0.76406 -1.76928,-1.7305c-0.00267,-0.24061 0.04335,-0.47042 0.1289,-0.68005c-0.49889,0.06449 -1.00127,0.1206 -1.50938,0.16665c0.07682,0.15973 0.12073,0.3384 0.12282,0.52733z" stroke="none" stroke-width="0.5"/><path d="M271.54587,182.07333c-0.00765,-0.69032 0.54576,-1.25612 1.23607,-1.26377c0.69032,-0.00765 1.25612,0.54576 1.26377,1.23607c0.00765,0.69032 -0.54576,1.25612 -1.23607,1.26377c-0.69032,0.00765 -1.25612,-0.54576 -1.26377,-1.23607z" stroke="none" stroke-width="0.5"/><path d="M283.14369,176.59445c0.69032,-0.00765 1.25612,0.54576 1.26377,1.23607c0.00765,0.69032 -0.54576,1.25612 -1.23607,1.26377c-0.39019,0.00432 -0.74061,-0.1706 -0.97293,-0.4482c-0.07186,0.61549 -0.59166,1.09634 -1.22767,1.10339c-0.69032,0.00765 -1.25612,-0.54576 -1.26377,-1.23607c-0.00765,-0.69032 0.54576,-1.25612 1.23607,-1.26377c0.39019,-0.00432 0.74061,0.1706 0.97293,0.4482c0.07186,-0.61549 0.59166,-1.09634 1.22767,-1.10339z" stroke="none" stroke-width="0.5"/><path d="M301.0755,183.16547c-0.00357,-0.32178 0.19605,-0.59848 0.47952,-0.70808c-0.22306,-0.22294 -0.36245,-0.52995 -0.36622,-0.87022c-0.00765,-0.69032 0.54576,-1.25612 1.23607,-1.26377c0.69032,-0.00765 1.25612,0.54576 1.26377,1.23607c0.00749,0.67558 -0.52238,1.2319 -1.19205,1.26252c0.04926,0.09847 0.07751,0.20935 0.07882,0.32685c0.00459,0.41418 -0.32746,0.75367 -0.74164,0.75826c-0.41418,0.00459 -0.75367,-0.32746 -0.75826,-0.74164z" stroke="none" stroke-width="0.5"/><path d="M309.23595,181.97113c-0.00765,-0.69032 0.54576,-1.25612 1.23607,-1.26377c0.69032,-0.00765 1.25612,0.54576 1.26377,1.23607c0.00765,0.69032 -0.54576,1.25612 -1.23607,1.26377c-0.69032,0.00765 -1.25612,-0.54576 -1.26377,-1.23607z" stroke="none" stroke-width="0.5"/><path d="M331.79605,180.00327c0.03812,-0.00393 0.07676,-0.00615 0.11582,-0.00658c0.69032,-0.00765 1.25612,0.54576 1.26377,1.23607c0.00765,0.69032 -0.54576,1.25612 -1.23607,1.26377c-0.69032,0.00765 -1.25612,-0.54576 -1.26377,-1.23607c-0.00358,-0.32313 0.11578,-0.61899 0.31457,-0.84308c-0.25407,-0.04422 -0.46476,-0.21648 -0.56225,-0.44849c-0.13084,0.03286 -0.26759,0.05102 -0.40841,0.05258c-0.81029,0.00898 -1.49804,-0.53421 -1.70545,-1.27956c-0.11556,0.02542 -0.23544,0.03944 -0.35842,0.0408c-0.96644,0.01071 -1.75857,-0.76406 -1.76928,-1.7305c-0.01071,-0.96644 0.76406,-1.75857 1.7305,-1.76928c0.4678,-0.00518 0.89477,0.17368 1.21204,0.46923c0.31098,0.15739 0.54767,0.44108 0.64186,0.78435c0.06879,-0.009 0.13886,-0.01403 0.20998,-0.01482c0.45596,-0.00505 0.87313,0.16474 1.18774,0.44701c0.30828,-0.28917 0.72158,-0.46816 1.17754,-0.47322c0.96644,-0.01071 1.75857,0.76406 1.76928,1.7305c0.01071,0.96644 -0.76406,1.75857 -1.7305,1.76928c-0.19268,0.00213 -0.37842,-0.02695 -0.55243,-0.08255c-0.01023,0.03114 -0.02244,0.06137 -0.03649,0.09057z" stroke="none" stroke-width="0.5"/><path d="M281.36669,183.54155c-0.00448,-0.40403 0.31136,-0.73698 0.71131,-0.75733c-0.05788,-0.10492 -0.09138,-0.22525 -0.0928,-0.35345c-0.00459,-0.41418 0.32746,-0.75367 0.74164,-0.75826c0.41418,-0.00459 0.75367,0.32746 0.75826,0.74164c0.00448,0.40403 -0.31136,0.73698 -0.71131,0.75733c0.05788,0.10492 0.09138,0.22525 0.0928,0.35345c0.00459,0.41418 -0.32746,0.75367 -0.74164,0.75826c-0.41418,0.00459 -0.75367,-0.32746 -0.75826,-0.74164z" stroke="none" stroke-width="0.5"/><path d="M275.85997,184.7065c-0.00459,-0.41418 0.32746,-0.75367 0.74164,-0.75826c0.41418,-0.00459 0.75367,0.32746 0.75826,0.74164c0.00459,0.41418 -0.32746,0.75367 -0.74164,0.75826c-0.41418,0.00459 -0.75367,-0.32746 -0.75826,-0.74164z" stroke="none" stroke-width="0.5"/><path d="M303.16909,187.08487c-0.00459,-0.41418 0.32746,-0.75367 0.74164,-0.75826c0.41418,-0.00459 0.75367,0.32746 0.75826,0.74164c0.00459,0.41418 -0.32746,0.75367 -0.74164,0.75826c-0.41418,0.00459 -0.75367,-0.32746 -0.75826,-0.74164z" stroke="none" stroke-width="0.5"/><path d="M319.06377,184.07009c-0.00459,-0.41418 0.32746,-0.75367 0.74164,-0.75826c0.41418,-0.00459 0.75367,0.32746 0.75826,0.74164c0.00459,0.41418 -0.32746,0.75367 -0.74164,0.75826c-0.41418,0.00459 -0.75367,-0.32746 -0.75826,-0.74164z" stroke="none" stroke-width="0.5"/></g><g fill="#b70b0b"><path d="M255.34706,153.38707c-0.36897,-33.29981 28.09006,-60.61328 63.565,-61.00635c0.69416,-0.00769 6.39451,-0.00679 11.39316,-1.08637c4.12197,-0.89024 7.76256,-2.89827 7.76256,-2.89827c0,0 -0.38388,3.56345 1.67324,6.92802c1.40712,2.30143 5.75447,6.70155 5.75447,6.70155c0,0 -1.40956,6.68159 -0.24181,11.40235c0.66336,2.68172 4.64214,8.61207 4.64214,8.61207c0,0 -3.63554,4.98263 -3.19435,7.49011c0.77347,4.39596 4.30412,11.88395 4.30412,11.88395c0,0 -8.46937,4.44132 -8.66772,8.01809c-0.18952,3.41764 0.53536,6.61475 1.53918,9.30522c0.0372,0.09967 -88.18557,0.36392 -88.22114,0.02313c-0.18468,-1.76937 -0.2888,-3.56164 -0.30888,-5.37351z" stroke="#000000" stroke-width="0"/><path d="M258.94472,156.01876c0.70968,-0.00786 1.32536,0.40782 1.60666,1.01193c0.29506,0.30937 0.47812,0.72693 0.48323,1.18813c0.01071,0.96644 -0.76406,1.75857 -1.7305,1.76928c-0.33466,0.00371 -0.64842,-0.08677 -0.91607,-0.24679c-0.31617,0.35513 -0.7751,0.58093 -1.28802,0.58662c-0.96644,0.01071 -1.4432,-0.76756 -1.45391,-1.734c-0.01071,-0.96644 0.44869,-1.75508 1.41513,-1.76579c0.13782,-0.00153 0.2721,0.01292 0.40108,0.04162c0.30235,-0.50406 0.85154,-0.84402 1.4824,-0.85101z" stroke="none" stroke-width="0.5"/><path d="M271.27586,158.74771c0.69032,-0.00765 1.25612,0.54576 1.26377,1.23607c0.00765,0.69032 -0.54576,1.25612 -1.23607,1.26377c-0.44477,0.00493 -0.83785,-0.22305 -1.06327,-0.57049c-0.20747,0.08994 -0.43591,0.14092 -0.6762,0.14358c-0.96644,0.01071 -1.75857,-0.76406 -1.76928,-1.7305c-0.01071,-0.96644 0.76406,-1.75857 1.7305,-1.76928c0.86284,-0.00956 1.58673,0.60698 1.73965,1.42702c0.00363,-0.00007 0.00727,-0.00013 0.01091,-0.00017z" stroke="none" stroke-width="0.5"/><path d="M262.25837,157.57444c-0.01071,-0.96644 0.76406,-1.75857 1.7305,-1.76928c0.96644,-0.01071 1.75857,0.76406 1.76928,1.7305c0.01071,0.96644 -0.76406,1.75857 -1.7305,1.76928c-0.96644,0.01071 -1.75857,-0.76406 -1.76928,-1.7305z" stroke="none" stroke-width="0.5"/><path d="M307.26086,161.32225c-0.31232,0.00346 -0.59914,-0.10792 -0.82034,-0.29487c-0.22859,0.1135 -0.48566,0.17855 -0.75795,0.18157c-0.96644,0.01071 -1.75857,-0.76406 -1.76928,-1.7305c-0.01071,-0.96644 0.76406,-1.75857 1.7305,-1.76928c0.68678,-0.00761 1.28554,0.38144 1.5784,0.95405c0.06506,-0.89814 0.80931,-1.61133 1.72599,-1.62148c0.41345,-0.00458 0.79501,0.1346 1.09712,0.37105c0.15321,-0.04584 0.31532,-0.07129 0.48322,-0.07315c0.05315,-0.00059 0.10577,0.0012 0.15776,0.00526c0.05189,-0.00522 0.10446,-0.00817 0.1576,-0.00876c0.96644,-0.01071 1.75857,0.76406 1.76928,1.7305c0.01071,0.96644 -0.76406,1.75857 -1.7305,1.76928c-0.05315,0.00059 -0.10577,-0.0012 -0.15776,-0.00526c-0.05189,0.00522 -0.10446,0.00817 -0.1576,0.00876c-0.30083,0.00333 -0.58477,-0.06944 -0.8335,-0.20041c-0.12053,0.55751 -0.61347,0.97805 -1.20795,0.98463c-0.34799,0.00386 -0.66435,-0.13487 -0.8935,-0.36183c-0.11713,0.0379 -0.24188,0.059 -0.37146,0.06044z" stroke="none" stroke-width="0.5"/><path d="M336.86235,158.48256c-0.01071,-0.96644 0.76406,-1.75857 1.7305,-1.76928c0.16393,-0.00182 0.32284,0.01896 0.47377,0.05944c0.15,-0.04381 0.30841,-0.06811 0.47233,-0.06993c0.71856,-0.00796 1.34075,0.41829 1.61705,1.03469c0.187,-0.0709 0.38941,-0.1107 0.601,-0.11305c0.96644,-0.01071 1.75857,0.76406 1.76928,1.7305c0.01071,0.96644 -0.76406,1.75857 -1.7305,1.76928c-0.71856,0.00796 -1.34075,-0.41829 -1.61705,-1.03469c-0.187,0.0709 -0.38941,0.1107 -0.601,0.11305c-0.16393,0.00182 -0.32284,-0.01896 -0.47377,-0.05944c-0.15,0.04381 -0.30841,0.06811 -0.47233,0.06993c-0.96644,0.01071 -1.75857,-0.76406 -1.76928,-1.7305z" stroke="none" stroke-width="0.5"/><path d="M330.72815,158.56207c0.69032,-0.00765 1.25612,0.54576 1.26377,1.23607c0.00765,0.69032 -0.54576,1.25612 -1.23607,1.26377c-0.57571,0.00638 -1.06483,-0.37748 -1.2158,-0.90554c-0.21568,0.15449 -0.46805,0.26123 -0.74182,0.30461c-0.15527,0.19615 -0.35174,0.35834 -0.57651,0.4734c-0.2802,0.5787 -0.87005,0.98069 -1.55663,0.9883c-0.96644,0.01071 -1.75857,-0.76406 -1.76928,-1.7305c-0.00761,-0.68658 0.38121,-1.28519 0.95356,-1.57814c0.24459,-0.50515 0.72512,-0.87566 1.29998,-0.96673c0.31642,-0.39973 0.80395,-0.65845 1.35345,-0.66454c0.94659,-0.01049 1.72597,0.73258 1.76763,1.67123c0.14139,-0.05762 0.29578,-0.09013 0.45771,-0.09193z" stroke="none" stroke-width="0.5"/><path d="M333.95862,161.98421c-0.00156,-0.14059 0.03567,-0.27258 0.10174,-0.38578c-0.04588,-0.08864 -0.08148,-0.1835 -0.10518,-0.28301c-0.76034,-0.18347 -1.329,-0.86405 -1.33807,-1.6819c-0.01071,-0.96644 0.76406,-1.75857 1.7305,-1.76928c0.96644,-0.01071 1.75857,0.76406 1.76928,1.7305c0.00205,0.18512 -0.02472,0.36384 -0.07613,0.53189c0.23127,0.22399 0.37646,0.5367 0.38031,0.88407c0.00681,0.61485 -0.43148,1.13094 -1.01516,1.24182c-0.10899,0.27444 -0.37547,0.46986 -0.68903,0.47333c-0.41418,0.00459 -0.75367,-0.32746 -0.75826,-0.74164z" stroke="none" stroke-width="0.5"/><path d="M319.56844,160.88203c-0.0012,-0.10811 0.01137,-0.21318 0.03607,-0.31352c-0.33601,-0.31484 -0.54801,-0.76099 -0.55351,-1.25778c-0.00089,-0.08022 0.00364,-0.15923 0.01323,-0.2367c-0.01131,-0.07724 -0.01758,-0.15613 -0.01847,-0.23635c-0.01071,-0.96644 0.76406,-1.75857 1.7305,-1.76928c0.96644,-0.01071 1.75857,0.76406 1.76928,1.7305c0.00089,0.08022 -0.00364,0.15923 -0.01323,0.2367c0.01131,0.07724 0.01758,0.15613 0.01847,0.23635c0.00098,0.08844 -0.00462,0.17543 -0.01634,0.2605c0.45988,0.18047 0.78776,0.62585 0.79357,1.15023c0.00655,0.59137 -0.39865,1.09137 -0.94894,1.22736c0.01146,0.06578 0.01779,0.13335 0.01855,0.20228c0.00765,0.69032 -0.54576,1.25612 -1.23607,1.26377c-0.69032,0.00765 -1.25612,-0.54576 -1.26377,-1.23607c-0.00144,-0.12958 0.0169,-0.25477 0.05219,-0.37271c-0.23199,-0.22407 -0.37769,-0.53728 -0.38154,-0.88527z" stroke="none" stroke-width="0.5"/><path d="M315.73735,157.75504c0.96644,-0.01071 1.75857,0.76406 1.76928,1.7305c0.01071,0.96644 -0.76406,1.75857 -1.7305,1.76928c-0.30152,0.00334 -0.58608,-0.06978 -0.83523,-0.20132c-0.13676,0.03605 -0.28014,0.05598 -0.42799,0.05762c-0.96644,0.01071 -1.75857,-0.76406 -1.76928,-1.7305c-0.01071,-0.96644 0.76406,-1.75857 1.7305,-1.76928c0.30152,-0.00334 0.58608,0.06978 0.83523,0.20132c0.13676,-0.03605 0.28014,-0.05598 0.42799,-0.05762z" stroke="none" stroke-width="0.5"/><path d="M300.12497,161.25517c0.00258,0.23266 -0.10106,0.44174 -0.26581,0.58114c-0.20424,0.4016 -0.61931,0.67874 -1.10104,0.68408c-0.48011,0.00532 -0.9,-0.26075 -1.11377,-0.65553c-0.14924,0.04335 -0.30677,0.06737 -0.46976,0.06918c-0.94589,0.01048 -1.72481,-0.73147 -1.76754,-1.66913c-0.19093,0.0743 -0.39823,0.11609 -0.61519,0.11849c-0.59781,0.00662 -1.12894,-0.28731 -1.44966,-0.74124c-0.15795,0.79461 -0.85469,1.39759 -1.69704,1.40692c-0.13948,0.00155 -0.27532,-0.01327 -0.40572,-0.04266c-0.23714,0.67418 -0.8759,1.16079 -1.63195,1.16916c-0.7712,0.00855 -1.43141,-0.48308 -1.67212,-1.17315c-0.17194,0.05885 -0.35605,0.09169 -0.54769,0.09381c-0.25305,0.0028 -0.49416,-0.04825 -0.71241,-0.14249c-0.31678,0.38476 -0.79488,0.63231 -1.33224,0.63826c-0.55088,0.0061 -1.04513,-0.24301 -1.3703,-0.63735c-0.17983,0.46119 -0.62587,0.79025 -1.1512,0.79607c-0.42338,0.00469 -0.79994,-0.20167 -1.02961,-0.52122c-0.16192,0.49496 -0.6248,0.85496 -1.17448,0.86106c-0.69032,0.00765 -1.25612,-0.54576 -1.26377,-1.23607c-0.00198,-0.1784 0.03352,-0.34848 0.09917,-0.50277c-0.19636,0.15373 -0.42649,0.26646 -0.67765,0.32519c-0.23869,0.67131 -0.87601,1.15528 -1.63,1.16363c-0.54149,0.006 -1.02825,-0.23458 -1.35351,-0.6173c-0.02409,0.00125 -0.0483,0.00202 -0.07264,0.00228c-0.8339,0.00924 -1.53802,-0.56632 -1.72235,-1.34522c-0.50218,-0.30278 -0.84061,-0.85091 -0.84758,-1.48034c-0.01071,-0.96644 0.76406,-1.75857 1.7305,-1.76928c0.8339,-0.00924 1.53802,0.56632 1.72235,1.34522c0.08194,0.04941 0.15952,0.10534 0.23201,0.1671c0.2924,-0.5418 0.86245,-0.91271 1.52169,-0.92002c0.96644,-0.01071 1.75857,0.76406 1.76928,1.7305c0.00336,0.30328 -0.07063,0.58939 -0.20362,0.83958c0.1924,-0.12557 0.42166,-0.19962 0.66843,-0.20236c0.42338,-0.00469 0.79994,0.20167 1.02961,0.52122c0.16192,-0.49496 0.6248,-0.85496 1.17448,-0.86106c0.30596,-0.00339 0.58746,0.10344 0.80675,0.28355c0.14405,-0.81199 0.8489,-1.43274 1.70368,-1.44221c0.25305,-0.0028 0.49416,0.04825 0.71241,0.14249c0.31678,-0.38476 0.79488,-0.63231 1.33224,-0.63826c0.51113,-0.00566 0.9735,0.20838 1.2973,0.55429c-0.03078,-0.12678 -0.04776,-0.25902 -0.04927,-0.39505c-0.01071,-0.96644 0.76406,-1.75857 1.7305,-1.76928c0.93123,-0.01032 1.70063,0.70865 1.76503,1.62566c0.39425,0.10886 0.7332,0.35237 0.96359,0.67845c0.15795,-0.79461 0.85469,-1.39759 1.69704,-1.40692c0.94589,-0.01048 1.72481,0.73147 1.76754,1.66913c0.16272,-0.06333 0.33734,-0.10303 0.5197,-0.11488c0.02342,-0.02255 0.04747,-0.04445 0.07213,-0.06568c-0.09906,-0.21612 -0.15543,-0.45603 -0.15824,-0.70908c-0.01071,-0.96644 0.76406,-1.75857 1.7305,-1.76928c0.67672,-0.0075 1.26798,0.37013 1.56533,0.92901c0.00732,-0.00017 0.01466,-0.0003 0.022,-0.00038c0.11015,-0.00122 0.21804,0.00776 0.32277,0.02608c0.27925,-0.5813 0.87046,-0.98551 1.55896,-0.99314c0.96644,-0.01071 1.75857,0.76406 1.76928,1.7305c0.01071,0.96644 -0.76406,1.75857 -1.7305,1.76928c-0.11015,0.00122 -0.21804,-0.00776 -0.32277,-0.02608c-0.27925,0.5813 -0.87046,0.98551 -1.55896,0.99314c-0.13948,0.00155 -0.27532,-0.01327 -0.40572,-0.04266c-0.03484,0.09906 -0.07836,0.19407 -0.12965,0.28411c0.02567,0.03737 0.04935,0.0762 0.0709,0.11636c0.16779,0.13572 0.27604,0.34245 0.27862,0.57511z" stroke="none" stroke-width="0.5"/><path d="M292.94248,163.2272c-0.00765,-0.69032 0.54576,-1.25612 1.23607,-1.26377c0.69032,-0.00765 1.25612,0.54576 1.26377,1.23607c0.00765,0.69032 -0.54576,1.25612 -1.23607,1.26377c-0.69032,0.00765 -1.25612,-0.54576 -1.26377,-1.23607z" stroke="none" stroke-width="0.5"/><path d="M331.43146,164.06236c-0.00765,-0.69032 0.54576,-1.25612 1.23607,-1.26377c0.69032,-0.00765 1.25612,0.54576 1.26377,1.23607c0.00765,0.69032 -0.54576,1.25612 -1.23607,1.26377c-0.69032,0.00765 -1.25612,-0.54576 -1.26377,-1.23607z" stroke="none" stroke-width="0.5"/><path d="M262.38734,164.35428c-0.00459,-0.41418 0.32746,-0.75367 0.74164,-0.75826c0.41418,-0.00459 0.75367,0.32746 0.75826,0.74164c0.00459,0.41418 -0.32746,0.75367 -0.74164,0.75826c-0.41418,0.00459 -0.75367,-0.32746 -0.75826,-0.74164z" stroke="none" stroke-width="0.5"/><path d="M274.38882,165.79833c-0.00459,-0.41418 0.32746,-0.75367 0.74164,-0.75826c0.41418,-0.00459 0.75367,0.32746 0.75826,0.74164c0.00459,0.41418 -0.32746,0.75367 -0.74164,0.75826c-0.41418,0.00459 -0.75367,-0.32746 -0.75826,-0.74164z" stroke="none" stroke-width="0.5"/><path d="M282.41327,164.13238c-0.00459,-0.41418 0.32746,-0.75367 0.74164,-0.75826c0.41418,-0.00459 0.75367,0.32746 0.75826,0.74164c0.00459,0.41418 -0.32746,0.75367 -0.74164,0.75826c-0.41418,0.00459 -0.75367,-0.32746 -0.75826,-0.74164z" stroke="none" stroke-width="0.5"/><path d="M280.03402,162.89712c-0.00459,-0.41418 0.32746,-0.75367 0.74164,-0.75826c0.41418,-0.00459 0.75367,0.32746 0.75826,0.74164c0.00459,0.41418 -0.32746,0.75367 -0.74164,0.75826c-0.41418,0.00459 -0.75367,-0.32746 -0.75826,-0.74164z" stroke="none" stroke-width="0.5"/><path d="M298.50756,164.90028c-0.00459,-0.41418 0.32746,-0.75367 0.74164,-0.75826c0.41418,-0.00459 0.75367,0.32746 0.75826,0.74164c0.00459,0.41418 -0.32746,0.75367 -0.74164,0.75826c-0.41418,0.00459 -0.75367,-0.32746 -0.75826,-0.74164z" stroke="none" stroke-width="0.5"/><path d="M294.89829,166.51731c-0.00459,-0.41418 0.32746,-0.75367 0.74164,-0.75826c0.41418,-0.00459 0.75367,0.32746 0.75826,0.74164c0.00459,0.41418 -0.32746,0.75367 -0.74164,0.75826c-0.41418,0.00459 -0.75367,-0.32746 -0.75826,-0.74164z" stroke="none" stroke-width="0.5"/><path d="M314.58264,163.93364c-0.00459,-0.41418 0.32746,-0.75367 0.74164,-0.75826c0.41418,-0.00459 0.75367,0.32746 0.75826,0.74164c0.00459,0.41418 -0.32746,0.75367 -0.74164,0.75826c-0.41418,0.00459 -0.75367,-0.32746 -0.75826,-0.74164z" stroke="none" stroke-width="0.5"/><path d="M316.99509,168.16492c-0.00459,-0.41418 0.32746,-0.75367 0.74164,-0.75826c0.41418,-0.00459 0.75367,0.32746 0.75826,0.74164c0.00459,0.41418 -0.32746,0.75367 -0.74164,0.75826c-0.41418,0.00459 -0.75367,-0.32746 -0.75826,-0.74164z" stroke="none" stroke-width="0.5"/><path d="M327.05195,164.8994c-0.00459,-0.41418 0.32746,-0.75367 0.74164,-0.75826c0.41418,-0.00459 0.75367,0.32746 0.75826,0.74164c0.00459,0.41418 -0.32746,0.75367 -0.74164,0.75826c-0.41418,0.00459 -0.75367,-0.32746 -0.75826,-0.74164z" stroke="none" stroke-width="0.5"/></g><g fill="#a50a0a"><path d="M259.25698,131.98253c8.93357,-22.85935 32.19195,-39.29751 59.65508,-39.6018c0.69416,-0.00769 6.39451,-0.00679 11.39316,-1.08637c4.12197,-0.89024 7.76256,-2.89827 7.76256,-2.89827c0,0 -0.38388,3.56345 1.67324,6.92802c1.40712,2.30143 5.75447,6.70155 5.75447,6.70155c0,0 -1.40956,6.68159 -0.24181,11.40235c0.66336,2.68172 4.64214,8.61207 4.64214,8.61207c0,0 -3.63554,4.98263 -3.19435,7.49011c0.0832,0.47288 0.4414,2.13062 0.58059,2.66189c0.17087,0.65221 -88.23737,0.33364 -88.02509,-0.20954z" stroke="#000000" stroke-width="0"/><path d="M264.50125,130.88228c0.96644,-0.01071 1.75857,0.76406 1.76928,1.7305c0.01071,0.96644 -0.76406,1.75857 -1.7305,1.76928c-0.69423,0.00769 -1.29852,-0.38993 -1.58783,-0.97276c-0.27632,0.58909 -0.87164,1.00001 -1.56587,1.0077c-0.96644,0.01071 -1.75857,-0.76406 -1.76928,-1.7305c-0.01071,-0.96644 0.76406,-1.75857 1.7305,-1.76928c0.69423,-0.00769 1.29851,0.38993 1.58782,0.97276c0.27632,-0.58909 0.87165,-1.00001 1.56588,-1.0077z" stroke="none" stroke-width="0.5"/><path d="M279.06394,134.36347c0.01071,0.96644 -0.76406,1.75857 -1.7305,1.76928c-0.8043,0.00891 -1.48788,-0.52622 -1.70078,-1.26309c-0.45332,-0.06438 -0.85146,-0.30277 -1.1237,-0.64601c-0.24404,0.13395 -0.52367,0.21147 -0.82149,0.21476c-0.16079,0.00178 -0.31676,-0.01818 -0.4651,-0.05715c-0.2725,0.59886 -0.87293,1.0182 -1.57431,1.02598c-0.9259,0.01026 -1.69181,-0.70046 -1.76386,-1.60996c-0.31404,0.32781 -0.7546,0.53393 -1.24438,0.53936c-0.08022,0.00089 -0.15923,-0.00364 -0.2367,-0.01323c-0.07724,0.01131 -0.15613,0.01758 -0.23635,0.01847c-0.96644,0.01071 -1.75857,-0.76406 -1.76928,-1.7305c-0.01071,-0.96644 0.76406,-1.75857 1.7305,-1.76928c0.08022,-0.00089 0.15923,0.00364 0.2367,0.01323c0.07724,-0.01131 0.15613,-0.01758 0.23635,-0.01847c0.9259,-0.01026 1.69182,0.70046 1.76386,1.60996c0.31404,-0.3278 0.75459,-0.53393 1.24438,-0.53936c0.16079,-0.00178 0.31676,0.01818 0.4651,0.05715c0.2725,-0.59885 0.87293,-1.01819 1.57431,-1.02597c0.5629,-0.00624 1.06666,0.25399 1.39133,0.66336c0.24404,-0.13395 0.52367,-0.21147 0.82149,-0.21476c0.49365,-0.00547 0.94183,0.194 1.2636,0.51927c-0.00839,-0.06634 -0.01307,-0.13386 -0.01383,-0.20235c-0.01071,-0.96644 0.76406,-1.75857 1.7305,-1.76928c0.96644,-0.01071 1.75857,0.76406 1.76928,1.7305c0.01071,0.96644 -0.76406,1.75857 -1.7305,1.76928c-0.03234,0.00036 -0.06449,-0.00017 -0.09641,-0.00154c0.17365,0.26824 0.27597,0.58722 0.27978,0.93037z" stroke="none" stroke-width="0.5"/><path d="M280.90795,132.766c-0.01071,-0.96644 0.76406,-1.75857 1.7305,-1.76928c0.96644,-0.01071 1.75857,0.76406 1.76928,1.7305c0.01071,0.96644 -0.76406,1.75857 -1.7305,1.76928c-0.96644,0.01071 -1.75857,-0.76406 -1.76928,-1.7305z" stroke="none" stroke-width="0.5"/><path d="M285.95735,133.02546c-0.01071,-0.96644 0.76406,-1.75857 1.7305,-1.76928c0.70358,-0.0078 1.31477,0.40071 1.59933,0.99639c0.73319,0.20196 1.27538,0.86957 1.28423,1.66799c0.01071,0.96644 -0.76406,1.75857 -1.7305,1.76928c-0.70358,0.0078 -1.31477,-0.40071 -1.59933,-0.99639c-0.73319,-0.20196 -1.27538,-0.86957 -1.28423,-1.66799z" stroke="none" stroke-width="0.5"/><path d="M309.64671,136.07476c-0.00241,-0.21757 0.03499,-0.42628 0.10542,-0.61926c-0.03206,0.00211 -0.06436,0.00334 -0.09686,0.0037c-0.567,0.00628 -1.074,-0.2578 -1.3984,-0.67233c-0.26511,-0.06632 -0.50649,-0.19317 -0.70841,-0.36518c-0.2924,0.5418 -0.86245,0.9127 -1.52169,0.92001c-0.96644,0.01071 -1.75857,-0.76406 -1.76928,-1.7305c-0.01071,-0.96644 0.76406,-1.75857 1.7305,-1.76928c0.43971,-0.00487 0.84335,0.15286 1.15371,0.41725c0.2924,-0.5418 0.86245,-0.9127 1.52169,-0.92001c0.567,-0.00628 1.074,0.2578 1.3984,0.67233c0.56904,0.14234 1.02876,0.56363 1.22347,1.11158c0.2282,-0.69031 0.87493,-1.19185 1.64259,-1.20035c0.45519,-0.00504 0.87171,0.16417 1.18614,0.44559c0.47512,-0.77939 1.491,-0.79066 1.491,-0.79066l1.89221,-0.02097c0,0 0.59794,-0.00663 1.09865,0.3374c0.22574,-0.11895 0.48079,-0.19005 0.75181,-0.19967c0.30759,-0.47872 0.84239,-0.79838 1.45393,-0.80516c0.74923,-0.0083 1.39371,0.45549 1.65054,1.11468c0.2888,-0.21961 0.64816,-0.35163 1.03883,-0.35596c0.66723,-0.00739 1.25137,0.35962 1.55265,0.90561c0.29198,-0.11408 0.52952,-0.13501 0.52952,-0.13501l1.14741,-0.10106c0.29852,-0.51978 0.85649,-0.87252 1.49922,-0.87964c0.55,-0.00609 1.04355,0.2422 1.36873,0.63545c0.24466,-0.65988 0.87629,-1.13344 1.62203,-1.1417c0.78665,-0.00872 1.45781,0.50298 1.68608,1.21485c0.30644,-0.28015 0.71313,-0.45292 1.16098,-0.45788c0.7454,-0.00826 1.38712,0.45076 1.64657,1.10458c0.08409,-0.01338 0.17019,-0.02079 0.25787,-0.02176c0.13947,-0.00155 0.27532,0.01326 0.40572,0.04266c0.23715,-0.67417 0.87589,-1.16079 1.63195,-1.16916c0.02643,-0.00029 0.05272,0.00001 0.07886,0.00087c0.02613,-0.00145 0.0524,-0.00232 0.07883,-0.00261c0.50232,-0.00557 0.95755,0.20107 1.28044,0.53653c0.31409,-0.43333 0.82219,-0.71753 1.39845,-0.72392c0.48043,-0.00532 0.91778,0.18346 1.23748,0.49341c0.11129,-0.02353 0.22652,-0.03651 0.34461,-0.03782c0.02132,-0.00024 0.04254,-0.00009 0.06368,0.00043c0.3098,-0.29753 0.72914,-0.48233 1.19255,-0.48746c0.40208,-0.00446 0.77398,0.12704 1.07199,0.35174c0.24416,-0.13411 0.52395,-0.21173 0.82197,-0.21503c0.96644,-0.01071 1.75857,0.76406 1.76928,1.7305c0.01071,0.96644 -0.76406,1.75857 -1.7305,1.76928c-0.40208,0.00446 -0.77398,-0.12704 -1.07199,-0.35174c-0.24416,0.13411 -0.52395,0.21172 -0.82197,0.21502c-0.02132,0.00024 -0.04254,0.00009 -0.06369,-0.00042c-0.3098,0.29753 -0.72914,0.48233 -1.19254,0.48746c-0.48043,0.00532 -0.91778,-0.18346 -1.23748,-0.4934c-0.11129,0.02353 -0.22652,0.03651 -0.34461,0.03782c-0.50232,0.00557 -0.95755,-0.20107 -1.28044,-0.53653c-0.31409,0.43332 -0.82219,0.71753 -1.39845,0.72392c-0.02643,0.00029 -0.05271,-0.00001 -0.07886,-0.00087c-0.02613,0.00145 -0.05241,0.00232 -0.07883,0.00261c-0.13947,0.00155 -0.27532,-0.01327 -0.40572,-0.04267c-0.23715,0.67417 -0.87589,1.1608 -1.63195,1.16917c-0.20974,0.00232 -0.41127,-0.03235 -0.59839,-0.09795c-0.30296,0.26519 -0.69846,0.42772 -1.13265,0.43254c-0.84215,0.00933 -1.55193,-0.57777 -1.72767,-1.3684c-0.20087,0.08344 -0.42076,0.13057 -0.65158,0.13313c-0.81279,0.00901 -1.50229,-0.53756 -1.70736,-1.28646c-0.11195,-0.08367 -0.21358,-0.18046 -0.3026,-0.28811c-0.08542,0.2304 -0.21802,0.43809 -0.38618,0.61119c-0.22929,1.1998 -1.56601,1.31754 -1.56601,1.31754l-2.04816,0.18039c0,0 -1.22576,0.10797 -1.71211,-0.88501c-0.19728,0.08005 -0.41259,0.12519 -0.63835,0.12769c-0.39067,0.00433 -0.75286,-0.1197 -1.04646,-0.33286c-0.24216,0.66471 -0.8762,1.14268 -1.62544,1.15098c-0.61154,0.00678 -1.15329,-0.30096 -1.47141,-0.77274c-0.38116,-0.00508 -0.73345,-0.13229 -1.01903,-0.34462c-0.42107,0.2034 -0.83142,0.20794 -0.83142,0.20794l-1.89221,0.02097c0,0 -0.71389,0.00791 -1.23477,-0.44235c-0.29881,0.45292 -0.80268,0.75932 -1.381,0.78568c0.0743,0.19092 0.11609,0.39824 0.11849,0.61519c0.01071,0.96644 -0.76406,1.75857 -1.7305,1.76928c-0.96644,0.01071 -1.75857,-0.76406 -1.76928,-1.7305zM311.29785,134.25886c-0.00558,0.01689 -0.01142,0.03367 -0.0175,0.05033c0.01179,-0.00077 0.02364,-0.00143 0.0355,-0.00197c-0.00623,-0.016 -0.01224,-0.03212 -0.018,-0.04835z" stroke="none" stroke-width="0.5"/><path d="M297.76219,129.56751c0.96644,-0.01071 1.75857,0.76406 1.76928,1.7305c0.00053,0.04792 -0.00087,0.0954 -0.00413,0.14238c0.05142,-0.00057 0.10085,-0.00112 0.14803,-0.00164c0,0 1.30178,-0.01442 1.67219,1.10441c0.44044,0.31332 0.73012,0.82568 0.73657,1.40753c0.01071,0.96644 -0.76406,1.75857 -1.7305,1.76928c-0.6113,0.00677 -1.15287,-0.30073 -1.47106,-0.77222c-0.51123,0.00566 -1.02245,0.01133 -1.53368,0.01699l-0.63074,0.00699c0,0 -0.17833,0.00198 -0.42175,-0.05226c-0.24791,0.13958 -0.53342,0.22054 -0.83797,0.22392c-0.70644,0.00783 -1.31975,-0.40404 -1.6028,-1.00369c-0.31421,0.43197 -0.82152,0.71515 -1.3967,0.72152c-0.96644,0.01071 -1.75857,-0.76406 -1.76928,-1.7305c-0.01071,-0.96644 0.76406,-1.75857 1.7305,-1.76928c0.60369,-0.00669 1.13937,0.29311 1.45905,0.75467c0.2881,-0.55566 0.86566,-0.93813 1.53521,-0.94555c0.21696,-0.0024 0.42514,0.03478 0.61767,0.10483c0.02194,-0.93837 0.78423,-1.6974 1.73012,-1.70788z" stroke="none" stroke-width="0.5"/><path d="M303.77342,131.23564c0.96644,-0.01071 1.75857,0.76406 1.76928,1.7305c0.01071,0.96644 -0.76406,1.75857 -1.7305,1.76928c-0.34742,0.00385 -0.67232,-0.09381 -0.94649,-0.26539c-0.19557,0.07848 -0.40872,0.12271 -0.6321,0.12518c-0.96644,0.01071 -1.75857,-0.76406 -1.76928,-1.7305c-0.01071,-0.96644 0.76406,-1.75857 1.7305,-1.76928c0.34742,-0.00385 0.67232,0.09381 0.94649,0.26539c0.19557,-0.07848 0.40872,-0.12271 0.6321,-0.12518z" stroke="none" stroke-width="0.5"/><path d="M309.76945,132.91931c-0.01071,-0.96644 0.76406,-1.75857 1.7305,-1.76928c0.96644,-0.01071 1.75857,0.76406 1.76928,1.7305c0.01071,0.96644 -0.76406,1.75857 -1.7305,1.76928c-0.96644,0.01071 -1.75857,-0.76406 -1.76928,-1.7305z" stroke="none" stroke-width="0.5"/><path d="M333.58156,132.81318c-0.01071,-0.96644 0.76406,-1.75857 1.7305,-1.76928c0.28362,-0.00314 0.55224,0.06137 0.7905,0.17852c0.2356,-0.1224 0.50272,-0.19285 0.78635,-0.19599c0.96644,-0.01071 1.75857,0.76406 1.76928,1.7305c0.01071,0.96644 -0.76406,1.75857 -1.7305,1.76928c-0.28362,0.00314 -0.55224,-0.06137 -0.7905,-0.17852c-0.2356,0.1224 -0.50272,0.19285 -0.78635,0.19599c-0.96644,0.01071 -1.75857,-0.76406 -1.76928,-1.7305z" stroke="none" stroke-width="0.5"/><path d="M283.91515,131.31334c-0.00765,-0.69032 0.54576,-1.25612 1.23607,-1.26377c0.69032,-0.00765 1.25612,0.54576 1.26377,1.23607c0.00765,0.69032 -0.54576,1.25612 -1.23607,1.26377c-0.69032,0.00765 -1.25612,-0.54576 -1.26377,-1.23607z" stroke="none" stroke-width="0.5"/><path d="M288.99949,134.7265c-0.00765,-0.69032 0.54576,-1.25612 1.23607,-1.26377c0.05341,-0.00059 0.10607,0.00217 0.15779,0.0081c0.05157,-0.00707 0.10416,-0.011 0.15757,-0.0116c0.69032,-0.00765 1.25612,0.54576 1.26377,1.23607c0.00765,0.69032 -0.54576,1.25612 -1.23607,1.26377c-0.05341,0.00059 -0.10607,-0.00217 -0.15779,-0.0081c-0.05157,0.00707 -0.10416,0.011 -0.15757,0.0116c-0.69032,0.00765 -1.25612,-0.54576 -1.26377,-1.23607z" stroke="none" stroke-width="0.5"/><path d="M292.17589,136.74145c-0.00765,-0.69032 0.54576,-1.25612 1.23607,-1.26377c0.69032,-0.00765 1.25612,0.54576 1.26377,1.23607c0.00765,0.69032 -0.54576,1.25612 -1.23607,1.26377c-0.69032,0.00765 -1.25612,-0.54576 -1.26377,-1.23607z" stroke="none" stroke-width="0.5"/><path d="M297.68437,135.73419c-0.00765,-0.69032 0.54576,-1.25612 1.23607,-1.26377c0.69032,-0.00765 1.25612,0.54576 1.26377,1.23607c0.00765,0.69032 -0.54576,1.25612 -1.23607,1.26377c-0.69032,0.00765 -1.25612,-0.54576 -1.26377,-1.23607z" stroke="none" stroke-width="0.5"/><path d="M308.58032,137.03279c-0.00765,-0.69032 0.54576,-1.25612 1.23607,-1.26377c0.69032,-0.00765 1.25612,0.54576 1.26377,1.23607c0.00765,0.69032 -0.54576,1.25612 -1.23607,1.26377c-0.69032,0.00765 -1.25612,-0.54576 -1.26377,-1.23607z" stroke="none" stroke-width="0.5"/><path d="M323.55161,136.07839c-0.00765,-0.69032 0.54576,-1.25612 1.23607,-1.26377c0.69032,-0.00765 1.25612,0.54576 1.26377,1.23607c0.00765,0.69032 -0.54576,1.25612 -1.23607,1.26377c-0.69032,0.00765 -1.25612,-0.54576 -1.26377,-1.23607z" stroke="none" stroke-width="0.5"/><path d="M327.41013,140.29364c-0.00419,-0.37852 0.27277,-0.69465 0.63663,-0.74979c-0.12791,-0.1936 -0.20346,-0.42503 -0.20622,-0.67431c-0.00765,-0.69032 0.54576,-1.25612 1.23607,-1.26377c0.69032,-0.00765 1.25612,0.54576 1.26377,1.23607c0.00765,0.69032 -0.54576,1.25612 -1.23607,1.26377c-0.07509,0.00083 -0.14868,-0.00497 -0.22027,-0.01687c0.01627,0.06007 0.02527,0.12316 0.02599,0.18828c0.00459,0.41418 -0.32746,0.75367 -0.74164,0.75826c-0.41418,0.00459 -0.75367,-0.32746 -0.75826,-0.74164z" stroke="none" stroke-width="0.5"/><path d="M336.81993,135.35863c-0.06635,-0.74706 0.68071,-0.81341 0.68071,-0.81341l0.85234,-0.07498c0.12723,-0.0225 0.27056,-0.03986 0.41947,-0.04781l0.30128,-0.30803l0.05328,0.05211c0.04412,-0.06357 0.08823,-0.12715 0.13235,-0.19072l0.23657,0.02295l-0.0175,-0.0983l0.93045,-0.16569c0.0444,-0.00872 0.09022,-0.01353 0.13709,-0.01405c0.36338,-0.00403 0.66925,0.25105 0.74193,0.59339c0.00478,0.00316 0.00952,0.00636 0.01422,0.00963c0.22553,-0.29506 0.57968,-0.48704 0.97982,-0.49148c0.69032,-0.00765 1.25612,0.54576 1.26377,1.23607c0.00765,0.69032 -0.54576,1.25612 -1.23607,1.26377c-0.49905,0.00553 -0.93303,-0.28217 -1.1381,-0.70283c-0.08853,0.03816 -0.18593,0.05977 -0.28835,0.06091l-0.35102,0.00389c0.00073,0.04527 -0.00201,0.09343 -0.00876,0.14465c-0.02456,0.18666 -0.08982,0.3203 -0.17378,0.41578c-0.07346,0.27122 -0.29544,0.48201 -0.57413,0.53851c-0.04663,0.64138 -0.57817,1.15063 -1.23283,1.15788c-0.69032,0.00765 -1.25612,-0.54576 -1.26377,-1.23607c-0.00277,-0.2503 0.06822,-0.48424 0.19276,-0.68113c-0.22362,-0.02719 -0.60517,-0.15096 -0.65172,-0.67505z" stroke="none" stroke-width="0.5"/><path d="M266.75549,134.02674c-0.00765,-0.69032 0.54576,-1.25612 1.23607,-1.26377c0.69032,-0.00765 1.25612,0.54576 1.26377,1.23607c0.00765,0.69032 -0.54576,1.25612 -1.23607,1.26377c-0.69032,0.00765 -1.25612,-0.54576 -1.26377,-1.23607z" stroke="none" stroke-width="0.5"/><path d="M263.00775,137.38005c-0.00765,-0.69032 0.54576,-1.25612 1.23607,-1.26377c0.69032,-0.00765 1.25612,0.54576 1.26377,1.23607c0.00765,0.69032 -0.54576,1.25612 -1.23607,1.26377c-0.69032,0.00765 -1.25612,-0.54576 -1.26377,-1.23607z" stroke="none" stroke-width="0.5"/><path d="M262.32985,133.12956c-0.00765,-0.69032 0.54576,-1.25612 1.23607,-1.26377c0.69032,-0.00765 1.25612,0.54576 1.26377,1.23607c0.00765,0.69032 -0.54576,1.25612 -1.23607,1.26377c-0.69032,0.00765 -1.25612,-0.54576 -1.26377,-1.23607z" stroke="none" stroke-width="0.5"/><path d="M276.37774,134.23553c-0.00765,-0.69032 0.54576,-1.25612 1.23607,-1.26377c0.69032,-0.00765 1.25612,0.54576 1.26377,1.23607c0.00765,0.69032 -0.54576,1.25612 -1.23607,1.26377c-0.69032,0.00765 -1.25612,-0.54576 -1.26377,-1.23607z" stroke="none" stroke-width="0.5"/><path d="M273.24677,136.32037c-0.00765,-0.69032 0.54576,-1.25612 1.23607,-1.26377c0.69032,-0.00765 1.25612,0.54576 1.26377,1.23607c0.00765,0.69032 -0.54576,1.25612 -1.23607,1.26377c-0.69032,0.00765 -1.25612,-0.54576 -1.26377,-1.23607z" stroke="none" stroke-width="0.5"/><path d="M274.27745,141.51318c-0.00459,-0.41418 0.32746,-0.75367 0.74164,-0.75826c0.41418,-0.00459 0.75367,0.32746 0.75826,0.74164c0.00459,0.41418 -0.32746,0.75367 -0.74164,0.75826c-0.41418,0.00459 -0.75367,-0.32746 -0.75826,-0.74164z" stroke="none" stroke-width="0.5"/><path d="M287.46005,135.68977c-0.00459,-0.41418 0.32746,-0.75367 0.74164,-0.75826c0.41418,-0.00459 0.75367,0.32746 0.75826,0.74164c0.00459,0.41418 -0.32746,0.75367 -0.74164,0.75826c-0.41418,0.00459 -0.75367,-0.32746 -0.75826,-0.74164z" stroke="none" stroke-width="0.5"/><path d="M283.82456,134.94154c-0.00459,-0.41418 0.32746,-0.75367 0.74164,-0.75826c0.41418,-0.00459 0.75367,0.32746 0.75826,0.74164c0.00459,0.41418 -0.32746,0.75367 -0.74164,0.75826c-0.41418,0.00459 -0.75367,-0.32746 -0.75826,-0.74164z" stroke="none" stroke-width="0.5"/><path d="M290.51371,140.86017c-0.00459,-0.41418 0.32746,-0.75367 0.74164,-0.75826c0.41418,-0.00459 0.75367,0.32746 0.75826,0.74164c0.00459,0.41418 -0.32746,0.75367 -0.74164,0.75826c-0.41418,0.00459 -0.75367,-0.32746 -0.75826,-0.74164z" stroke="none" stroke-width="0.5"/><path d="M303.4683,142.92448c-0.00459,-0.41418 0.32746,-0.75367 0.74164,-0.75826c0.41418,-0.00459 0.75367,0.32746 0.75826,0.74164c0.00459,0.41418 -0.32746,0.75367 -0.74164,0.75826c-0.41418,0.00459 -0.75367,-0.32746 -0.75826,-0.74164z" stroke="none" stroke-width="0.5"/><path d="M320.25142,134.69562c-0.00459,-0.41418 0.32746,-0.75367 0.74164,-0.75826c0.41418,-0.00459 0.75367,0.32746 0.75826,0.74164c0.00459,0.41418 -0.32746,0.75367 -0.74164,0.75826c-0.41418,0.00459 -0.75367,-0.32746 -0.75826,-0.74164z" stroke="none" stroke-width="0.5"/><path d="M315.25445,139.1667c-0.00459,-0.41418 0.32746,-0.75367 0.74164,-0.75826c0.41418,-0.00459 0.75367,0.32746 0.75826,0.74164c0.00459,0.41418 -0.32746,0.75367 -0.74164,0.75826c-0.41418,0.00459 -0.75367,-0.32746 -0.75826,-0.74164z" stroke="none" stroke-width="0.5"/><path d="M314.91811,137.27798c-0.00459,-0.41418 0.32746,-0.75367 0.74164,-0.75826c0.41418,-0.00459 0.75367,0.32746 0.75826,0.74164c0.00459,0.41418 -0.32746,0.75367 -0.74164,0.75826c-0.41418,0.00459 -0.75367,-0.32746 -0.75826,-0.74164z" stroke="none" stroke-width="0.5"/><path d="M339.39765,140.47622c-0.00459,-0.41418 0.32746,-0.75367 0.74164,-0.75826c0.41418,-0.00459 0.75367,0.32746 0.75826,0.74164c0.00459,0.41418 -0.32746,0.75367 -0.74164,0.75826c-0.41418,0.00459 -0.75367,-0.32746 -0.75826,-0.74164z" stroke="none" stroke-width="0.5"/></g></g><path d="M311.79245,145.15695l7.62374,-23.96554l8.57929,23.78601c0,0 -4.59536,4.83964 -8.37994,4.88158c-3.78458,0.04193 -7.82309,-4.70204 -7.82309,-4.70204z" fill="#ba2d2d" stroke="#000000" stroke-width="0"/><path d="M281.63152,168.94085c-2.79615,-2.94788 -9.15094,-10.49412 -7.92997,-17.06249c1.54004,-8.28482 7.66355,-24.51854 7.66355,-24.51854c0,0 3.88317,15.97245 7.50852,21.87036c1.72928,2.81327 6.35749,6.3009 9.40949,8.41257c1.6651,1.15208 -1.93144,7.29929 -5.751,9.89086c-3.81955,2.59157 -10.1323,2.21722 -10.90058,1.40725z" fill="#ba2d2d" stroke="#000000" stroke-width="0"/><path d="M261.2009,136.53923l-21.00133,-32.50708l37.19481,9.19822c0,0 -0.13499,7.97763 -4.09809,13.96541c-4.21863,6.37386 -12.09538,9.34345 -12.09538,9.34345z" fill="#ba2d2d" stroke="#000000" stroke-width="0"/></g></g></g></g></svg>