<svg version="1.1" xmlns="http://www.w3.org/2000/svg" xmlns:xlink="http://www.w3.org/1999/xlink" width="213.18203" height="309.48648" viewBox="0,0,213.18203,309.48648"><defs><linearGradient x1="320.08742" y1="187.07227" x2="320.08742" y2="244.23177" gradientUnits="userSpaceOnUse" id="color-1"><stop offset="0" stop-color="#671d06"/><stop offset="1" stop-color="#671d06" stop-opacity="0"/></linearGradient><radialGradient cx="322.89387" cy="26.84228" r="64.30757" gradientUnits="userSpaceOnUse" id="color-2"><stop offset="0" stop-color="#a4aeae"/><stop offset="1" stop-color="#767d7d"/></radialGradient></defs><g transform="translate(-214.52362,-10.58579)"><g stroke-miterlimit="10"><g stroke="#000000" stroke-linecap="butt"><path d="M286.35186,319.07226l15.14285,-131.8421l37.78325,-0.15789l13.57389,132z" fill="#9c4209" stroke-width="0"/><path d="M295.01902,243.61117l6.47569,-56.38101l37.78325,-0.15789l5.87786,57.15951z" fill="url(#color-1)" stroke-width="0"/><path d="M286.35186,319.07226l15.14285,-131.8421l37.78325,-0.15789l13.57389,132z" fill="none" stroke-width="2"/></g><path d="M214.52362,306.61251v-291.88681h213.18203v291.88681z" fill="none" stroke="none" stroke-width="0" stroke-linecap="butt"/><path d="" fill="none" stroke="#000000" stroke-width="2" stroke-linecap="round"/><g><path d="M274.66922,157.67295c-6.76186,-32.60814 15.91737,-64.88188 50.65546,-72.08542c34.7381,-7.20354 68.38046,13.39095 75.14232,45.99908c6.76186,32.60814 -15.91736,64.88188 -50.65546,72.08543c-34.73809,7.20354 -68.38046,-13.39096 -75.14232,-45.99909z" fill="#9c4209" stroke="#000000" stroke-width="2" stroke-linecap="butt"/><path d="M288.06843,155.17588c-2.63312,-12.69787 5.52597,-25.12609 18.22384,-27.75921c12.69787,-2.63312 25.12609,5.52596 27.75921,18.22383c2.63312,12.69787 -5.52596,25.12609 -18.22383,27.75922c-12.69787,2.63312 -25.1261,-5.52597 -27.75922,-18.22384z" fill="#ffffff" stroke="#000000" stroke-width="2" stroke-linecap="butt"/><path d="M298.97619,160.67284c-1.68522,-8.12675 3.53666,-16.08093 11.66341,-17.76615c8.12675,-1.68522 16.08094,3.53667 17.76616,11.66343c1.68522,8.12675 -3.53666,16.08095 -11.66342,17.76617c-8.12675,1.68522 -16.08093,-3.53667 -17.76615,-11.66344z" fill="#000000" stroke="#000000" stroke-width="5" stroke-linecap="butt"/><path d="M368.95585,162.3827c-12.69787,2.63312 -25.12609,-5.52597 -27.75921,-18.22384c-2.63312,-12.69787 5.52596,-25.12609 18.22384,-27.75921c12.69787,-2.63312 25.12609,5.52596 27.75922,18.22383c2.63312,12.69787 -5.52597,25.1261 -18.22384,27.75922z" fill="#ffffff" stroke="#000000" stroke-width="2" stroke-linecap="butt"/><path d="M386.66523,135.01343c1.53933,7.4232 -3.23047,14.68875 -10.65367,16.22808c-7.42317,1.53932 -14.68875,-3.2305 -16.22808,-10.65369c-1.53933,-7.4232 3.23049,-14.68875 10.65368,-16.22808c7.42317,-1.53932 14.68874,3.23049 16.22806,10.65368z" fill="#000000" stroke="#000000" stroke-width="5" stroke-linecap="butt"/><path d="M291.73824,128.63622c0,0 5.93055,-6.04645 10.80502,-7.93223c4.87448,-1.8858 12.31249,-1.01122 12.31249,-1.01122c0,0 -7.96938,1.05071 -11.73379,2.50706c-3.93394,1.52193 -11.38372,6.4364 -11.38372,6.4364z" fill="#000000" stroke="none" stroke-width="0" stroke-linecap="butt"/><path d="M358.86973,108.50559c-3.90983,1.00244 -11.00597,4.77865 -11.00597,4.77865c0,0 5.54484,-5.0342 10.60764,-6.33227c5.06279,-1.29807 13.40291,0.17616 13.40291,0.17616c0,0 -8.91864,0.32988 -13.00457,1.37747z" fill="#000000" stroke="none" stroke-width="0" stroke-linecap="butt"/><g stroke="#000000" stroke-linecap="round"><path d="M396.26724,124.37661c0,0 -15.12552,10.73606 -55.7245,5.82387c-35.60095,-4.30746 -57.13659,-17.34598 -57.13659,-17.34598l29.42895,-96.07446c0,0 21.43013,-6.64845 43.68684,-4.90184c31.27358,2.45422 39.53623,10.80142 39.53623,10.80142z" fill="url(#color-2)" stroke-width="2"/><path d="M396.26724,124.37661c0,0 -15.12552,10.73606 -55.7245,5.82387c-35.60095,-4.30746 -57.13659,-17.34598 -57.13659,-17.34598c0,0 58.12813,4.11691 91.84398,-2.05249c15.25554,-2.79149 19.46148,-42.45759 19.46148,-42.45759l1.55563,56.03218z" fill-opacity="0.3451" fill="#4d5252" stroke-width="0"/><path d="M396.26724,124.37661c0,0 -15.12552,10.73606 -55.7245,5.82387c-35.60095,-4.30746 -57.13659,-17.34598 -57.13659,-17.34598l29.42895,-96.07446c0,0 21.43013,-6.64845 43.68684,-4.90184c31.27358,2.45422 39.53623,10.80142 39.53623,10.80142z" fill="none" stroke-width="2"/></g><path d="M390.98039,119.01925l7.32772,77.44312l-20.66276,-4.44667" fill="none" stroke="#000000" stroke-width="2" stroke-linecap="round"/><path d="M339.60498,200.66629l-2.19604,-26.42581l20.76821,0.88937l-4.19761,23.65561z" fill="#000000" stroke="#000000" stroke-width="2" stroke-linecap="round"/></g></g></g></svg>