<svg version="1.1" xmlns="http://www.w3.org/2000/svg" xmlns:xlink="http://www.w3.org/1999/xlink" width="150.72723" height="215.38072" viewBox="0,0,150.72723,215.38072"><defs><radialGradient cx="263.85384" cy="153.63833" r="25.66878" gradientUnits="userSpaceOnUse" id="color-1"><stop offset="0" stop-color="#ff0000"/><stop offset="1" stop-color="#1300ff"/></radialGradient></defs><g transform="translate(-241.2906,-82.2189)"><g stroke="none" stroke-miterlimit="10"><path d="M267.26611,232.66561c-1,0 -1,-1 -1,-1c0,-0.90994 0,-3.18479 0,-4.09473c0,-10.84344 0,-21.68688 0,-32.53032c0,0 0,-0.02246 0.00337,-0.06065c-0.90741,0.30689 -1.81998,0.58829 -2.75114,0.73747c-3.62689,0.58108 -7.08451,-3.41988 -3.80286,-6.49574c1.27695,-1.19688 3.85941,-2.32835 5.59206,-2.57759c0.39023,-0.05613 0.81298,-0.11287 1.23165,-0.13783c0.1103,-0.71386 0.18423,-1.43592 0.1819,-2.15744c0,0 0,-0.05921 0.01441,-0.14882c-5.23782,-0.08273 -10.06159,-0.6496 -14.54597,-4.2693c-11.34333,-9.1956 -12.50633,-24.14425 -9.4453,-37.48853c0.72076,-2.02273 1.22823,-4.15957 2.62718,-5.85681c7.37084,-8.94251 22.67891,-9.20521 32.38286,-4.84471c6.7588,3.07083 14.80118,10.44524 16.42469,18.05691c0.46997,2.20341 -0.25102,4.84084 -0.68145,6.99424c0,0 -0.07689,0.38445 -0.37511,0.62376c9.56897,0 19.13793,0 28.7069,0c0.08803,-1.55766 0.11906,-3.10574 -0.266,-4.5731c-4.49568,1.72213 -9.73926,1.6782 -14.50351,1.83173c-1.6519,0.05324 -3.8085,0.35384 -5.44574,0.03825c-3.45648,-0.66626 -5.92175,-5.43922 -3.20717,-8.27741c0.89802,-0.93891 2.85635,-1.3751 4.09019,-1.6243c0.77443,-0.25747 1.70736,-0.07676 2.39238,-0.52034c0.43187,-0.27966 0.28011,-1.19703 0.27656,-1.56518c-0.01723,-1.78718 -0.1241,-3.64321 0.00193,-5.42705c0.40279,-5.7011 1.31823,-11.67519 3.79959,-16.86685c-1.38608,-1.52331 -2.29552,-3.42906 -0.24246,-5.00713c0.64165,-0.4932 1.50221,-0.61425 2.28401,-0.82341c1.44656,-0.38702 2.93568,-0.65227 4.44683,-0.81536c-0.0392,-0.1223 -0.04812,-0.21149 -0.04812,-0.21149c-0.2071,-2.07158 -1.07538,-5.052 -0.15632,-7.07924c0.8424,-1.85815 2.42715,-2.85258 3.90079,-4.10819c5.30771,-4.52242 12.9264,-7.02182 19.90771,-6.92932c1.91222,0.03056 4.4492,-0.26102 6.85967,-0.31045c1.21354,-2.29808 2.8936,-4.33691 4.84893,-6.07584c0.78146,-0.69497 1.71868,-1.19476 2.53526,-1.8481c0.23082,-0.18467 0.39114,-0.45855 0.5969,-0.66997c-0.41305,-0.02362 -0.83604,-0.10997 -1.25757,-0.21823c-2.36054,-0.33051 -4.95245,-0.4207 -6.85786,-1.33621c-0.72308,-0.1213 -1.44608,-0.24513 -2.16893,-0.37441l-0.10441,-0.11698l-0.03069,0.06136l-0.89056,-0.44528c-0.33824,-0.16035 -0.57217,-0.50491 -0.57217,-0.90412c0,-0.55228 0.44772,-1 1,-1c0.07429,0 0.1467,0.00809 0.21637,0.02347l1.94091,0.38819l-0.04476,0.22377c0.00448,0.00059 0.00895,0.00117 0.01343,0.00175c1.92701,0.08227 4.04482,0.34329 6.07344,0.76363c0.41005,0.0786 0.81124,0.16754 1.19876,0.26984c1.74118,0.42432 3.3705,0.96861 4.69815,1.61972l0.90994,0.45497c0,0 0.89443,0.44722 0.44721,1.34164c-0.44722,0.89442 -1.34164,0.44721 -1.34164,0.44721l-0.90994,-0.45497c-0.04948,-0.02536 -0.09951,-0.05009 -0.15008,-0.07424c-0.56399,0.63377 -1.30164,1.38805 -1.49854,1.54555c-2.46341,1.97052 -4.73965,3.83636 -6.36721,6.42521c0.9598,0.07156 1.85206,0.22064 2.61838,0.49113c6.4045,2.26059 9.66117,9.64001 8.65217,16.0782c-0.34251,2.18546 -1.46182,4.23781 -1.82389,6.44039l-0.1621,0.81098c2.14824,0.55603 4.71685,1.42004 5.54753,3.37001c0.04296,0.10084 0.08296,0.20707 0.11919,0.31743c7.45591,-6.80872 17.43058,-11.71846 26.52521,-15.59265l0.87155,-0.43577c0.13896,-0.07317 0.29726,-0.11457 0.46521,-0.11457c0.55228,0 1,0.44772 1,1c0,0.1393 -0.02849,0.27195 -0.07995,0.39244l-0.44655,1.11637l-0.18706,-0.07483c-1.6922,6.34667 -7.82995,11.10293 -12.45409,15.3996c-4.18635,3.88989 -7.74864,8.39198 -11.47648,12.70826c-0.61549,0.68861 -2.6563,2.33902 -2.93285,3.3047c-0.95619,3.33892 1.49943,8.70818 2.22267,11.96313c1.09489,4.92761 1.96715,10.23726 2.26657,15.38934c0.55248,0.42642 0.26774,1.13828 0.26774,1.13828l-0.19342,0.46013c0.02465,0.71323 0.03745,1.42232 0.03745,2.12578v1.36491c0,0 0,0.32761 -0.18751,0.6078c0.02888,2.67236 0.01232,5.35151 -0.14424,8.00744c-0.24345,1.31119 -0.32021,3.00317 -1.42616,4.00868c-0.98546,0.89595 -3.1056,1.22649 -4.80606,1.50068c0.52314,11.44529 1.10434,22.86112 1.10434,34.32033c0,14 0,28 0,42c0,10.34256 0.2345,20.38072 1.35554,30.66785l0.22325,1.33711c0,0 0.1644,0.9864 -0.822,1.1508c-0.53419,0.08903 -0.8273,-0.15945 -0.98378,-0.40598l-0.18198,0.0104c-1.06636,0.23895 -2.1449,0.43165 -3.23253,0.5865c-0.01272,0.18611 -0.11849,0.96011 -0.99826,0.96011c-0.65244,0 -0.8792,-0.42568 -0.95801,-0.72157c-5.85053,0.60045 -11.90751,0.2666 -17.70506,0.2666c-5.24423,0 -10.45674,0.08328 -15.68243,-0.41913c-1.76792,-0.16998 -4.80077,-0.11391 -6.31754,-1.16573c-1.03099,-0.71495 -0.81955,-2.06424 -0.82925,-3.05489c-0.02609,-2.66494 0.30451,-5.18391 0.00612,-7.85154c0,0 -0.11043,-0.99389 0.88346,-1.10432c0.10704,-0.01189 0.20383,-0.01098 0.29134,0.00013c-0.23188,-3.05059 -0.0531,-6.1527 -0.27034,-9.20741c-0.00592,-13.03562 0.5236,-26.05739 0.94935,-39.08613c0.43863,-13.42281 0.41591,-26.85534 0.41495,-40.28412c-0.14281,0.05893 -0.28485,0.11858 -0.42598,0.17911c0,0 -0.91915,0.39392 -1.31306,-0.52522c-0.06661,-0.15543 -0.09568,-0.29583 -0.09799,-0.42185c-0.67251,0.15136 -1.3379,0.31815 -1.6418,0.34296c-2.34672,0.19161 -4.77446,0.06176 -7.13332,0.15239c-7.53506,0.2895 -15.08994,0.26988 -22.63124,0.32983c-3.43673,0.22758 -6.85181,0.62075 -10.27275,0.88268c-0.78667,0.06024 -1.75319,-0.58504 -2.36531,-0.08726c-0.19036,0.15481 0.48744,0.25492 0.54656,0.49306c0.14307,0.57638 0.01769,1.18764 0.01805,1.78151c0.00083,1.37428 0.14741,2.939 -1.11286,4.00671c-0.5149,0.43623 -1.34292,0.20695 -2.01699,0.17467c-1.23205,-0.05902 -2.27383,-0.81367 -3.01224,-1.86645c0,9.05243 0,18.10485 0,27.15728c0,0.90994 0,1.81988 0,2.72982v1.36491c0,0 0,1 -1,1zM267.4936,188.98853c-0.3191,0 -0.53637,-0.10182 -0.68431,-0.24049c-1.94303,-0.12907 -3.81011,0.38942 -5.64161,1.84877c-0.68236,0.5437 -0.86174,3.23012 0.40683,3.34225c0.82785,0.07317 2.61916,-0.43102 3.34396,-0.66148c1.18615,-0.37715 2.35856,-0.80417 3.5641,-1.11364l0.82068,-0.41034c0.13896,-0.07316 0.29726,-0.11457 0.46521,-0.11457c0.55228,0 1,0.44771 1,1c0,0.16796 -0.0414,0.32624 -0.11457,0.4652l-0.67346,1.34691l-0.17938,-0.08969c-0.6295,2.14611 -1.16781,4.62607 0.6923,5.82698c2.3535,1.51946 2.07565,-2.17653 1.93291,-3.49307c-0.06534,-0.60262 -0.74261,-1.30891 -0.36338,-1.78178c0.43579,-0.5434 0.95215,-0.79391 1.5014,-0.90615c-0.24613,-0.29323 -0.24612,-0.68597 -0.24612,-0.68597v-0.90994c0.00204,-0.86584 -0.09359,-1.73146 -0.21744,-2.5884c0,0 -0.05354,-0.37474 0.13583,-0.69603c-0.14454,-1.4604 0.54049,-3.68564 0.32513,-4.7266c-0.02143,-0.10358 -1.79284,-3.58181 -1.90246,-3.50315c-0.46096,0.33073 -0.79113,0.78674 -1.02198,1.31398c0.01372,0 0.02743,-0.00001 0.04115,-0.00001h0.45497c0,0 1,0 1,1c0,1 -1,1 -1,1h-0.45497c-0.16371,0 -0.32704,0.00013 -0.48997,0.00033c-0.08752,1.19686 0.06201,2.42951 0.22156,3.30769l0.30136,0.91849c0.03699,0.10443 0.05712,0.21684 0.05712,0.33394c0,0.55229 -0.44772,1 -1,1c-0.23922,0 -0.45882,-0.084 -0.63091,-0.22411l-0.68353,-0.54683c-0.1659,-0.039 -0.33119,-0.07407 -0.4959,-0.10503c-0.12394,0.05737 -0.27656,0.09269 -0.4645,0.09269zM290.01459,167.42484c0.71574,0 0.91919,0.51228 0.97703,0.80352c0.45381,0.0427 0.90719,0.07986 1.35996,0.10835c8.02229,0.50484 16.24039,-0.00193 24.27873,-0.00193c1.97664,0 3.92132,-0.21156 5.87695,-0.20328c-0.25728,-1.96534 -0.48873,-3.94327 -0.72889,-5.8663c-0.11621,-0.93052 -0.10937,-1.88608 -0.06529,-2.84969c-10.77786,0 -21.55572,0 -32.33358,0c-5.09628,0 -10.19257,0.00268 -15.28884,0c-0.4508,-0.00024 -4.02072,-0.16024 -4.24165,0.10134c-0.58692,0.69493 0.23698,1.80892 0.23698,2.71853c0,3.86656 0.6756,6.16715 2.39676,9.60948c1.49945,3.00456 2.37258,7.13278 4.39786,9.7868c0.60477,0.79252 1.68437,0.29381 2.47356,0.14413c3.92679,-0.74479 3.06201,-5.24557 3.06438,-8.30098c-0.12637,-1.40039 -0.36198,-2.64501 -0.62323,-4.01095l-0.40066,-0.80131c-0.07316,-0.13896 -0.11457,-0.29725 -0.11457,-0.46521c0,-0.55228 0.44772,-1 1,-1c0.07429,0 0.14669,0.0081 0.21636,0.02347l1.11718,0.22344l-0.02016,0.10082c1.83038,0.04256 3.66779,0.27152 5.50164,0.48135c0.10596,-0.2788 0.35131,-0.60159 0.91946,-0.60159zM285.03538,182.95096c-1.99504,1.01734 -4.07074,1.39338 -6.2536,1.70531c0,0 -0.84517,0.12074 -1.08522,-0.64184c-0.89691,-0.09313 -1.714,-0.41944 -2.30113,-1.04328c-0.17168,-0.18241 -0.33581,-0.3789 -0.4932,-0.58758c0.33149,0.71283 0.55742,1.34183 0.62736,1.66011c0.01646,0.07491 0.02217,2.88373 0.01118,3.00678c-0.05145,0.57593 -1.13294,1.44554 -0.58586,1.63273c0.20601,0.07049 0.25544,-0.39954 0.46495,-0.45884c0.65598,-0.18569 1.35262,-0.17251 2.03025,-0.24746c1.49455,-0.16529 2.88283,-0.20509 4.37504,-0.20509c11.07092,0 22.14186,0 33.21278,0c0,0 0.00662,0 0.01878,0.00054c0.10379,-0.08148 0.21814,-0.13385 0.32226,-0.1675c-0.04062,-0.00399 -0.08123,-0.008 -0.12185,-0.01205c-1.5206,-0.15137 -4.82277,-0.08673 -5.97354,-1.34397c-1.26902,-1.38643 -0.08532,-4.10868 1.02954,-5.07809c1.5958,-1.3876 6.34917,-1.11599 8.35276,-1.38012c0.67967,-0.08939 4.68199,-0.02973 5.09808,-0.72582c0.24798,-0.41485 -0.14216,-0.95733 -0.17169,-1.43974c-0.10816,-1.76678 -0.15294,-3.35081 -0.42822,-5.0024c-0.12481,-0.74883 -0.24152,-1.50763 -0.35222,-2.27232l-0.49668,-0.26979c-1.89778,0.05133 -3.76344,0.25424 -5.68485,0.25424c-8.48749,0 -17.19154,0.53397 -25.652,-0.17895c-0.23931,4.57771 -1.70874,10.63597 -5.94293,12.79513zM284.07453,181.19689c3.54283,-1.72772 4.72896,-7.26091 4.91358,-11.12795c-1.62119,-0.00681 -3.95219,-0.0095 -5.15687,-0.5467c0.25573,1.28765 0.46123,2.50658 0.58525,3.86196c0.00184,2.52385 0.54443,5.7925 -0.89114,8.06364c0.18318,-0.07824 0.36619,-0.1617 0.54917,-0.25094zM291.53634,156.39952c0.37348,-1.8663 1.0962,-4.28514 0.68346,-6.19988c-1.49892,-6.9536 -9.10478,-13.86259 -15.28866,-16.63627c-8.93228,-4.05539 -23.26571,-3.87957 -30.08248,4.37017c-1.1708,1.41692 -1.57937,3.37995 -2.18449,5.06877c-2.85234,12.53556 -1.928,26.73119 8.78309,35.3733c4.59552,3.72514 9.63495,3.85973 15.11501,3.84257c0.42137,-1.60607 1.29788,-2.95144 2.95517,-3.31578c0.72805,-0.16005 1.47628,0.45645 2.12763,1.3228c-1.14149,-2.4352 -1.91676,-5.4207 -2.95117,-7.48591c-1.83553,-3.67106 -2.60791,-6.37006 -2.60791,-10.50391c0,-0.39664 -0.07801,-3.64505 0.23698,-4.01128c0.92053,-1.07029 4.53308,-0.80797 5.76768,-0.80859c5.09628,-0.00259 10.19256,0 15.28884,0c0.84482,0 1.68965,0 2.53447,0c-0.51238,-0.34224 -0.37763,-1.01599 -0.37763,-1.01599zM323.99988,158.41551c0,0.40686 -0.16554,0.64819 -0.36191,0.79133c-0.01613,0.91355 0.00078,1.85494 0.12846,2.84013c0.43097,3.32563 0.7957,6.8255 1.34413,10.11618c0.28109,1.68664 1.43199,6.41789 0.31004,8.02217c-1.12592,1.60995 -4.81094,1.36637 -6.49362,1.58819c-2.20756,0.29033 -4.47549,0.39844 -6.65725,0.70075c-0.60762,0.08419 -2.18295,1.93445 -1.4868,2.45097c1.28147,0.95081 4.41946,0.58911 5.97914,0.80794c3.98335,0.55886 8.05515,0.5537 12.10952,0.5005c0.14787,-0.15924 0.37537,-0.28173 0.72536,-0.28173c0.33522,0 0.55806,0.11237 0.70621,0.26178c1.2535,-0.01775 2.50414,-0.03429 3.74876,-0.03429c7.98955,0 16.70956,1.00779 24.59813,-0.40318c0.5651,-0.10108 1.35115,-0.2095 2.2103,-0.34533c0.1328,-0.08838 0.30799,-0.1499 0.53906,-0.1604c0.11205,-0.0051 0.21211,0.00296 0.30145,0.02126c1.70921,-0.29813 3.51377,-0.72071 4.36911,-1.40939c0.71037,-0.57196 0.49523,-1.7586 0.65428,-2.65662c0.22366,-3.90834 0.05494,-7.83762 0.10818,-11.75178l0.1599,-0.41504c-0.09629,-2.40944 -0.32871,-4.86646 -0.65961,-7.30985c-0.11852,-0.04868 -0.2407,-0.12864 -0.36286,-0.25081c-0.03914,-0.03914 -0.07394,-0.07828 -0.10478,-0.1173c-4.74543,-0.8684 -9.71549,-0.96365 -14.43772,-1.8928c-4.01088,-1.14596 -7.67758,-2.86544 -11.05446,-5.40272c-1.81612,-1.36458 -3.3711,-3.0947 -5.06158,-4.59552c-0.666,-0.59129 -1.75782,-2.25247 -2.68478,-2.56139c-2.03477,-0.67811 -4.52519,-0.83866 -6.66934,-0.83382c-3.92966,0 -8.00955,0.7587 -11.61194,2.39798c-2.69236,1.22517 -5.1394,3.28619 -7.83254,4.59067c5.30725,-0.04332 10.92692,-1.3607 15.91391,-2.04504c1.32767,2.2595 1.32906,4.38086 1.25707,6.62148c0.17569,0.1465 0.3162,0.38083 0.3162,0.75569zM357.71499,261.56693c0,-7.48666 0.21108,-15.00628 0.00049,-22.48979c-0.15045,-5.34633 -0.91043,-10.55192 -0.91043,-15.92644c0,-11.72101 0,-23.44204 0,-35.16305c-7.44473,0.95134 -15.36496,0.19176 -22.75314,0.19176c-1.20634,0 -2.40928,0.00137 -3.60983,-0.00077c-1.74782,3.38846 -5.26894,4.70416 -8.72267,6.01393c0.00171,0.01305 0.00359,0.02601 0.00563,0.03887c0,13.6971 0.03141,27.39833 -0.416,41.08948c-0.42428,12.98357 -0.94334,25.95927 -0.94955,38.94951c0.25757,3.58968 -0.06795,7.26048 0.44556,10.8135l0.01005,0.59639c0,0 0,1 -1,1c-0.09269,0 -0.1768,-0.0086 -0.25311,-0.02418c0.00712,1.56723 -0.11347,3.09604 -0.1118,4.7113c0.00029,0.27711 -0.24105,2.50037 0.0807,2.63223c1.51304,0.62007 3.65706,0.58134 5.25736,0.73498c5.1618,0.49558 10.31095,0.40996 15.49115,0.40996c5.76655,0 11.83494,0.36741 17.66219,-0.25982c-0.0154,-11.09782 -0.2266,-22.20817 -0.2266,-33.31787zM318.20092,128.26949c1.82475,0.99006 2.07071,2.34998 1.49885,3.51811c0.02241,1.75885 -1.07651,3.19518 -3.62793,2.75037c3.45024,3.27765 10.0762,4.71497 13.2271,1.25427c1.05625,-1.1601 0.89577,-2.92954 0.8904,-4.34661c0,-0.55469 0.30993,-2.56855 -0.02929,-3.04217c-0.90224,-1.25971 -4.4283,-1.1485 -5.74181,-1.19049c-2.7681,-0.08849 -5.63357,-0.18552 -8.07555,0.49995c0.66298,0.07273 1.30066,0.25403 1.85823,0.55656zM345.80941,97.7871c-0.14939,-0.06403 -0.26409,-0.14192 -0.35144,-0.22749c-2.14333,-0.03426 -4.28664,-0.06851 -6.42997,-0.10277c-6.46905,-0.12307 -13.67062,2.25629 -18.57744,6.45089c-1.18418,1.0123 -2.64877,1.86888 -3.35134,3.35224c-0.76468,1.61449 0.13533,4.48224 0.29864,6.11487c0,0 0.01082,0.10814 -0.01034,0.2567c4.07461,-0.21364 8.24425,0.24174 12.11833,0.99314c8.54682,1.23402 17.63765,1.86798 26.03996,3.90965l0.13819,-0.69057c0.36888,-2.18591 1.46707,-4.23026 1.81587,-6.39348c0.88704,-5.50129 -1.84625,-11.84713 -7.27177,-13.85506c-1.00072,-0.37036 -2.13423,0.00652 -3.20114,-0.01053c-0.04084,-0.00065 -0.08168,-0.0013 -0.12252,-0.00196c-0.20533,0.21949 -0.56179,0.43291 -1.09504,0.20437zM312.86937,121.18166c0.19052,-0.06289 0.34867,-0.06289 0.34867,-0.06289l0.54372,0.05132c2.76353,0.92168 5.4676,1.58947 8.30264,2.24413c6.52148,1.18398 13.13635,2.57927 19.69392,3.39717c5.79449,0.72271 12.31437,-0.98253 17.99971,-2.01685c4.65623,-1.46649 -2.62354,-3.80117 -4.23822,-4.20681c-8.47172,-2.12826 -17.70172,-2.74057 -26.3478,-3.99111c-4.817,-0.93775 -9.79584,-1.30924 -14.6603,-0.54216c-2.59331,0.40895 -6.91609,0.85329 -3.391,3.69733c0.45386,0.36617 0.88166,0.76451 1.34357,1.12049c0.14854,0.11447 0.28254,0.21686 0.4051,0.30939z" fill="#000000" stroke-width="0.5"/><path d="M284.05667,181.24361c-0.18298,0.08924 -0.36897,0.17145 -0.55215,0.24969c1.43557,-2.27114 0.88086,-5.62286 0.87902,-8.14671c-0.12402,-1.35538 -0.31541,-2.58301 -0.57114,-3.87066c1.20468,0.5372 3.57703,0.54156 5.19822,0.54837c-0.18462,3.86704 -1.41111,9.49158 -4.95394,11.2193z" fill="#0600ff" stroke-width="0.25"/><path d="M291.96394,157.41721c-0.84482,0 -1.68965,0.0002 -2.53448,0.0002c-5.09628,0 -10.19295,0.00198 -15.28923,0.00457c-1.2346,0.00063 -4.88173,-0.22046 -5.80226,0.84982c-0.31499,0.36624 -0.25442,3.51701 -0.25442,3.91365c0,4.13385 0.76602,6.83357 2.60155,10.50463c1.03441,2.06521 1.83046,5.14848 2.97194,7.58368c-0.65135,-0.86635 -1.40337,-1.48207 -2.13142,-1.32202c-1.65729,0.36433 -2.54053,1.71036 -2.9619,3.31643c-5.48006,0.01716 -10.54849,-0.12567 -15.14401,-3.85081c-10.71108,-8.64212 -11.65101,-22.9048 -8.79867,-35.44036c0.60512,-1.68882 1.01946,-3.65978 2.19026,-5.0767c6.81678,-8.24974 21.20595,-8.4388 30.13824,-4.38341c6.18388,2.77368 13.8197,9.71649 15.31862,16.67009c0.41274,1.91473 -0.30835,4.34584 -0.68183,6.21214c0,0 -0.13478,0.67587 0.3776,1.01811z" fill="url(#color-1)" stroke-width="0.5"/><path d="M289.14178,168.04442c-1.83386,-0.20984 -3.66946,-0.44446 -5.49984,-0.48703l-0.07665,-0.12584l-1.0204,-0.19826c-0.06967,-0.01537 -0.14204,-0.02358 -0.21634,-0.02358c-0.55228,0 -0.99916,0.44375 -0.99916,0.99603c0,0.16796 0.04163,0.32478 0.1148,0.46374l0.40095,0.79875c0.26124,1.36593 0.49606,2.59629 0.62243,3.99668c-0.00238,3.05541 0.85509,7.5385 -3.07169,8.28329c-0.78919,0.14969 -1.95395,0.7007 -2.55873,-0.09183c-2.02528,-2.65403 -2.90489,-6.80457 -4.40434,-9.80913c-1.72116,-3.44233 -2.39435,-5.76082 -2.39435,-9.62738c0,-0.90961 -0.82235,-2.02773 -0.23543,-2.72266c0.22093,-0.26158 3.79236,-0.1048 4.24316,-0.10457c5.09628,0.00268 10.21155,-0.02016 15.30783,-0.02016c10.77786,0 21.62695,0.02285 32.40481,0.02285c-0.04408,0.96361 -0.04917,1.92372 0.06703,2.85424c0.24016,1.92303 0.47387,3.91171 0.73115,5.87705c-1.95563,-0.00828 -3.99974,0.2139 -5.97638,0.2139c-8.03834,0 -16.16466,0.52797 -24.18695,0.02312c-0.45277,-0.02849 -0.99316,-0.1146 -1.44697,-0.1573c-0.05784,-0.29124 -0.17246,-0.75765 -0.8882,-0.75765c-0.56815,0 -0.81078,0.31691 -0.91674,0.5957z" fill="#ff0000" stroke-width="0.5"/><path d="M312.41427,120.87132c-0.46191,-0.35598 -0.88962,-0.75655 -1.34348,-1.12272c-3.5251,-2.84404 0.79909,-3.29732 3.3924,-3.70627c4.86446,-0.76708 9.85161,-0.41321 14.66861,0.52454c8.64608,1.25053 17.96623,1.89078 26.43795,4.01904c1.61469,0.40564 8.89398,2.74925 4.23775,4.21574c-5.68534,1.03432 -12.21726,2.76557 -18.01175,2.04286c-6.55757,-0.81789 -13.25929,-2.23861 -19.78077,-3.42259c-2.83504,-0.65466 -5.5397,-1.33048 -8.30323,-2.25216l-0.54372,-0.05142c0,0 -0.15815,0.00015 -0.34867,0.06304c-0.12257,-0.09253 -0.25655,-0.19558 -0.4051,-0.31006z" fill="#1c00ff" stroke-width="0.5"/><path d="M346.93851,97.54612c0.04084,0.00065 0.08191,0.00152 0.12275,0.00217c1.06691,0.01705 2.2052,-0.35465 3.20592,0.01571c5.42552,2.00794 8.16903,8.39341 7.28199,13.89471c-0.3488,2.16322 -1.45218,4.22271 -1.82106,6.40862l-0.13897,0.69197c-8.40231,-2.04167 -17.57438,-2.66799 -26.1212,-3.90201c-3.87408,-0.7514 -8.0539,-1.22569 -12.12851,-1.01205c0.02116,-0.14856 0.01018,-0.25727 0.01018,-0.25727c-0.16331,-1.63263 -1.06504,-4.5153 -0.30036,-6.12979c0.70258,-1.48337 2.16854,-2.34995 3.35273,-3.36225c4.90682,-4.1946 12.1654,-6.61144 18.63445,-6.48837c2.14333,0.03426 4.3092,0.07855 6.45253,0.1128c0.08735,0.08557 0.20326,0.16446 0.35265,0.22848c0.53325,0.22853 0.89158,0.01676 1.0969,-0.20273z" fill="#12ff00" stroke-width="0.5"/><path d="M316.30162,127.68442c2.44198,-0.68547 5.35985,-0.60862 8.12795,-0.52013c1.31351,0.04199 4.87142,-0.04574 5.77366,1.21397c0.33922,0.47362 0.03558,2.50545 0.03558,3.06014c0.00538,1.41707 0.1603,3.21766 -0.89595,4.37776c-3.1509,3.4607 -9.86879,2.01341 -13.31903,-1.26424c2.55142,0.44481 3.64929,-1.01504 3.62688,-2.77389c0.57186,-1.16813 0.3367,-2.55065 -1.48804,-3.54071c-0.55757,-0.30253 -1.19805,-0.48015 -1.86104,-0.55289z" fill="#fff3ca" stroke-width="0.5"/><path d="M273.60881,194.03018c-0.54924,0.11223 -1.07201,0.37238 -1.50781,0.91577c-0.37923,0.47287 0.29311,1.1842 0.35845,1.78682c0.14274,1.31654 0.40417,5.02225 -1.94934,3.50279c-1.86011,-1.20092 -1.36823,-3.76823 -0.73873,-5.91434l0.17861,0.09027l0.66243,-1.33519c0.07317,-0.13897 0.11176,-0.29255 0.11176,-0.46051c0,-0.55229 -0.3562,-0.96039 -0.90848,-0.96039c-0.16796,0 -0.32828,0.04641 -0.46725,0.11958l-0.83156,0.42532c-1.20553,0.30947 -2.44493,0.73801 -3.63108,1.11516c-0.7248,0.23046 -2.52672,0.72187 -3.35457,0.64869c-1.26857,-0.11213 -1.09593,-2.82469 -0.41357,-3.36839c2.34243,-1.86646 4.82365,-2.23237 7.36694,-1.63442l0.69612,0.56119c0.1721,0.14011 0.39555,0.23238 0.63477,0.23238c0.55228,0 0.90885,-0.40724 0.90885,-0.95953c0,-0.11711 -0.01822,-0.22625 -0.05521,-0.33068l-0.29501,-0.91044c-0.3362,-1.85056 -0.57114,-5.35543 1.30604,-6.70227c0.10962,-0.07865 1.89574,3.40994 1.91717,3.51352c0.21536,1.04096 -0.45697,3.2886 -0.31243,4.749c-0.18937,0.32129 -0.13477,0.70122 -0.13477,0.70122c0.12385,0.85693 0.21827,1.74314 0.21623,2.60898l-0.00213,0.91612c0,0 -0.00157,0.39611 0.24456,0.68934z" fill="#ffffff" stroke-width="0.5"/><path d="M328.8532,186.28015c-4.05437,0.0532 -8.14364,0.04672 -12.12699,-0.51215c-1.55969,-0.21883 -4.70245,0.13716 -5.98392,-0.81365c-0.69615,-0.51653 0.96155,-2.42345 1.56916,-2.50764c2.18176,-0.30231 4.44574,-0.41564 6.6533,-0.70597c1.68268,-0.22181 5.29829,0.09325 6.42422,-1.5167c1.12196,-1.60427 -0.04199,-6.35179 -0.32308,-8.03843c-0.54843,-3.29067 -0.91599,-6.82861 -1.34696,-10.15423c-0.52342,-4.03907 0.89641,-7.2899 -1.25811,-10.95655c-4.98699,0.68434 -10.59505,1.98529 -15.9023,2.02861c2.69314,-1.30448 5.05523,-3.41666 7.74759,-4.64183c3.6024,-1.63928 7.69786,-2.41097 11.62752,-2.41097c2.14415,-0.00484 4.64771,0.15091 6.68248,0.82902c0.92696,0.30892 2.02492,1.96919 2.69092,2.56048c1.69047,1.50082 3.26392,3.23282 5.08004,4.5974c3.37688,2.53728 7.07473,4.28361 11.08561,5.42958c4.72224,0.92915 9.69625,1.03713 14.44168,1.90553c0.03084,0.03902 0.06567,0.07838 0.10481,0.11753c0.12217,0.12217 0.24442,0.20263 0.36295,0.25131c0.3309,2.44339 0.56369,4.91255 0.65999,7.32199l-0.15997,0.41575c-0.05324,3.91415 0.11052,7.86048 -0.11313,11.76882c-0.15905,0.89802 0.0542,2.08809 -0.65617,2.66005c-0.85534,0.68868 -2.66298,1.11583 -4.3722,1.41396c-0.08934,-0.0183 -0.18957,-0.02615 -0.30162,-0.02105c-0.23107,0.0105 -0.40672,0.07261 -0.53951,0.16099c-0.85915,0.13583 -1.647,0.2464 -2.2121,0.34748c-7.88858,1.41097 -16.65269,0.41951 -24.64224,0.41951c-1.24462,0 -2.50394,0.01456 -3.75744,0.03231c-0.14814,-0.14941 -0.37269,-0.26236 -0.70791,-0.26236c-0.34999,0 -0.57876,0.122 -0.72663,0.28124z" fill="#ffffff" stroke-width="0.5"/><path d="M357.95862,294.93181c-5.82725,0.62723 -11.91115,0.26278 -17.6777,0.26278c-5.18021,0 -10.3435,0.08402 -15.5053,-0.41156c-1.60031,-0.15364 -3.74884,-0.11632 -5.26188,-0.7364c-0.32175,-0.13186 -0.08127,-2.35545 -0.08155,-2.63255c-0.00167,-1.61527 0.11741,-3.14469 0.11029,-4.71192c0.07631,0.01559 0.19922,-0.06798 0.29191,-0.06798c1,0 0.96195,-0.90753 0.96195,-0.90753l-0.01028,-0.59648c-0.51351,-3.55302 -0.19343,-7.22645 -0.451,-10.81612c0.00621,-12.99024 0.50272,-26.02663 0.92699,-39.01021c0.4474,-13.69115 0.44617,-27.42239 0.44617,-41.11949c-0.00204,-0.01286 -0.00391,-0.02582 -0.00562,-0.03887c3.45373,-1.30977 6.98407,-2.6278 8.73189,-6.01627c1.20055,0.00215 2.40679,0.00038 3.61314,0.00038c7.38817,0 15.32873,0.76203 22.77346,-0.1893c0,11.72101 0.01902,23.45374 0.01902,35.17475c0,5.37452 0.77449,10.60916 0.92494,15.95548c0.2106,7.48351 -0.0155,15.04588 -0.0155,22.53255c0,11.1097 0.19368,22.23091 0.20908,33.32873z" fill="#ffffff" stroke-width="0.5"/><path d="M280.79765,155.60324c-0.6,-0.8 0.2,-1.4 0.2,-1.4l0.85474,-0.63791c1.94161,-1.87429 0.79448,-5.21012 0.79263,-7.66148c0.02193,-0.89266 0.32218,-2.06276 -0.6429,-2.70998c-1.82446,-1.22356 -6.93496,-2.17947 -9.15245,-2.43748c-5.99987,-0.69812 -14.62645,0.43887 -18.95642,4.9197c-1.21368,1.25596 -1.35798,3.30494 -1.78682,4.90577c0.03277,6.89529 2.47423,15.35237 7.44985,20.32067c0.77043,0.7693 1.77339,2.42706 2.7143,3.00611c0.99768,0.61399 3.55749,0.60058 4.71944,0.81185c0,0 0.98387,0.17889 0.80498,1.16276c-0.17889,0.98387 -1.16276,0.80498 -1.16276,0.80498c-1.44277,-0.26232 -4.01139,-0.24526 -5.28989,-1.00803c-1.17891,-0.70336 -2.2251,-2.38685 -3.2003,-3.36346c-5.40997,-5.41782 -8.05021,-14.48222 -8.01911,-21.9915c0.54114,-2.08926 0.77332,-4.35212 2.30791,-6.0135c3.91129,-4.23445 9.29685,-4.89096 14.72571,-5.21072c2.78645,-0.16412 5.27669,-0.50837 7.9893,0.22222c4.3161,1.16245 9.40018,1.13099 9.49914,6.58062c-0.00272,3.38408 1.10822,6.52175 -1.48222,9.17239l-0.96514,0.727c0,0 -0.8,0.6 -1.4,-0.2z" fill="#000000" stroke-width="0.5"/><path d="M269.84633,154.19303c-0.5547,-0.83205 0.27735,-1.38675 0.27735,-1.38675l0.78994,-0.51735c1.90051,-0.64417 -0.43039,-2.13816 -1.11493,-2.89723c-2.19199,-1.55638 -6.59272,-0.13096 -9.02911,0.59334c-0.05843,0.01737 -2.1434,0.70739 -2.40883,1.1774c-0.53786,0.95245 -0.24109,3.44232 0.0288,4.45366c1.06999,4.0096 6.11244,6.17274 9.22254,8.34974c0,0 0.81923,0.57346 0.24577,1.39269c-0.57346,0.81923 -1.39269,0.24577 -1.39269,0.24577c-3.61717,-2.5321 -8.7514,-4.83733 -10.00684,-9.46822c-0.38011,-1.40211 -0.67377,-4.58443 0.14945,-5.93649c0.6819,-1.11996 2.46067,-1.78118 3.57993,-2.12804c3.42902,-1.06266 7.80705,-2.19022 10.9154,-0.19594c1.89587,2.07073 4.15378,4.21285 0.70495,6.20216l-0.57497,0.39259c0,0 -0.83205,0.5547 -1.38675,-0.27735z" fill="#000000" stroke-width="0.5"/></g></g></svg>