<svg version="1.1" xmlns="http://www.w3.org/2000/svg" xmlns:xlink="http://www.w3.org/1999/xlink" width="213.18203" height="281.18476" viewBox="0,0,213.18203,281.18476"><g transform="translate(-214.52362,-38.88751)"><g stroke-miterlimit="10"><g stroke="#000000"><g stroke-linecap="butt"><path d="M286.35186,319.07226l15.14285,-131.8421l37.78325,-0.15789l13.57389,132z" fill="#000000" stroke-width="0"/><path d="M286.35186,319.07226l15.14285,-131.8421l37.78325,-0.15789l13.57389,132z" fill="none" stroke-width="2"/></g><path d="M315.46171,212.95778l-4.93965,42.78666l9.81618,9.69782l6.51308,-8.82825l-4.70556,-43.8677z" fill="#ffffff" stroke-width="2" stroke-linecap="round"/><path d="M327.74489,207.06341c0,2.40542 0.42119,4.941 -1.18152,6.55086c-1.69544,1.70301 -5.48837,2.41192 -8.13275,2.41192c-2.25931,0 -5.03371,-0.24684 -6.64647,-1.53439c-2.05927,-1.64402 -2.66779,-4.65244 -2.66779,-7.4284c0,-2.53955 0.5704,-5.88686 2.33405,-7.51773c1.67399,-1.54796 4.47523,-1.44506 6.98022,-1.44506c2.95234,0 6.11108,0.09158 7.81757,2.1537c1.26687,1.53089 1.4967,4.70001 1.4967,6.80909z" fill="#ffffff" stroke-width="2" stroke-linecap="butt"/></g><path d="M214.52362,306.61252v-267.72501h213.18203v267.72501z" fill="none" stroke="none" stroke-width="0" stroke-linecap="butt"/><path d="M255.36488,148.57225c0,-33.30185 28.7599,-60.29833 64.23702,-60.29833c35.47713,0 64.23702,26.99648 64.23702,60.29833c0,33.30185 -28.75989,60.29834 -64.23702,60.29834c-35.47712,0 -64.23702,-26.99649 -64.23702,-60.29834z" fill="#000000" stroke="#000000" stroke-width="2" stroke-linecap="butt"/><path d="M268.99199,148.84787c0,-6.3913 46.96131,-6.57671 46.96131,0c0,12.96801 -10.51264,23.48066 -23.48065,23.48066c-12.96801,0 -23.48066,-10.51265 -23.48066,-23.48066z" fill="#ffffff" stroke="#000000" stroke-width="2" stroke-linecap="butt"/><path d="M276.90144,149.63831c0,-8.29964 6.72818,-15.02784 15.02783,-15.02784c8.29964,0 15.02784,6.72819 15.02784,15.02785c0,8.29964 -6.72819,15.02785 -15.02784,15.02785c-8.29964,0 -15.02783,-6.72819 -15.02783,-15.02785z" fill="#000000" stroke="#000000" stroke-width="5" stroke-linecap="butt"/><path d="" fill="none" stroke="#000000" stroke-width="2" stroke-linecap="round"/><path d="M346.73111,172.32855c-12.96801,0 -23.48065,-10.51265 -23.48065,-23.48066c0,-6.06027 46.96131,-6.90774 46.96131,0c0,12.96801 -10.51265,23.48066 -23.48066,23.48066z" fill="#ffffff" stroke="#000000" stroke-width="2" stroke-linecap="butt"/><path d="M362.05645,149.4251c0,8.29966 -6.72818,15.02785 -15.02783,15.02785c-8.29964,0 -15.02784,-6.72821 -15.02784,-15.02785c0,-8.29966 6.7282,-15.02785 15.02784,-15.02785c8.29964,0 15.02783,6.7282 15.02783,15.02784z" fill="#000000" stroke="#000000" stroke-width="5" stroke-linecap="butt"/><path d="M262.30265,122.79029l-13.98202,-55.27164c0,0 45.05219,-4.75221 67.07117,-6.16644c21.36299,-1.3721 63.13428,-2.19638 63.13428,-2.19638l-2.00194,56.75852z" fill="#000000" stroke="#000000" stroke-width="2" stroke-linecap="butt"/><path d="M263.09067,121.98501l-2.59825,-8.95719l115.73854,-4.00799l-0.38934,8.95719z" fill="#ffffff" stroke="#000000" stroke-width="0" stroke-linecap="butt"/><path d="M246.20229,129.35208c0,0 -2.93751,-3.16888 -3.6993,-5.0282c-0.81373,-1.98611 -1.03756,-6.5332 -1.03756,-6.5332l156.13478,-4.79928c0,0 -0.39846,3.57396 -1.00556,5.47408c-0.65946,2.064 -2.80714,6.45903 -2.80714,6.45903z" fill="#000000" stroke="#000000" stroke-width="2" stroke-linecap="butt"/></g></g></svg>