<svg version="1.1" xmlns="http://www.w3.org/2000/svg" xmlns:xlink="http://www.w3.org/1999/xlink" width="213.18203" height="297.04643" viewBox="0,0,213.18203,297.04643"><defs><linearGradient x1="320.08745" y1="187.07227" x2="320.08745" y2="244.23177" gradientUnits="userSpaceOnUse" id="color-1"><stop offset="0" stop-color="#0221b0"/><stop offset="1" stop-color="#0221b0" stop-opacity="0"/></linearGradient></defs><g transform="translate(-214.52366,-23.02584)"><g stroke-miterlimit="10"><path d="M214.52367,306.61252v-283.58668h213.18203v283.58668z" fill="none" stroke="none" stroke-width="0" stroke-linecap="butt"/><path d="M286.35186,319.07226l15.14285,-131.8421l37.78325,-0.15789l13.57389,132z" fill="#015bb1" stroke="#000000" stroke-width="0" stroke-linecap="butt"/><path d="M295.01905,243.61117l6.47569,-56.38101l37.78325,-0.15789l5.87786,57.15951z" fill="url(#color-1)" stroke="#000000" stroke-width="0" stroke-linecap="butt"/><path d="M286.35186,319.07226l15.14285,-131.8421l37.78325,-0.15789l13.57389,132z" fill="none" stroke="#000000" stroke-width="2" stroke-linecap="butt"/><path d="" fill="none" stroke="#000000" stroke-width="2" stroke-linecap="round"/><g stroke-linecap="butt"><g stroke="#000000" stroke-width="2"><path d="M271.23938,108.6423l25.15814,-79.1619l46.0066,70.11126z" fill="#015bb1"/><path d="M310.43709,103.8287l66.37068,-53.29631l0.71955,88.78489z" fill="#015bb1"/><path d="M250.74895,153.49119l-33.52904,-79.02171l84.63571,32.1595z" fill="#015bb1"/><path d="M250.76791,156.19779c-4.93979,-32.93344 19.49745,-63.89734 54.5821,-69.1598c35.08466,-5.26246 67.53088,17.1693 72.47068,50.10274c4.93979,32.93344 -19.49744,63.89735 -54.5821,69.15981c-35.08465,5.26246 -67.53088,-17.16931 -72.47068,-50.10275z" fill="#015bb1"/><path d="M373.40256,169.12806c-8.49738,19.03613 -25.81545,37.29124 -48.96686,40.7638c-23.71249,3.55671 -47.41687,-9.12845 -61.04142,-25.56495c-6.53413,-7.88271 32.66274,-7.19025 55.46326,-10.34039c22.80052,-3.15014 58.92493,-14.67052 54.54502,-4.85846z" fill="#ffe192"/></g><path d="M293.91218,183.84743c0.41279,2.80532 0.83826,5.60881 1.25886,8.41297c0.22009,1.46731 0.45065,3.02971 0.87882,4.49574c0.26856,0.56987 0.59002,1.21832 0.64664,1.75758c0.03311,0.07184 0.06701,0.14319 0.1017,0.21402l0.00039,0.01541l0.00489,-0.00172l0.15909,0.45136c0.00603,0.01611 0.01049,0.0331 0.01314,0.0508c0.02048,0.13654 -0.07361,0.26384 -0.21015,0.28432c-0.11766,0.01765 -0.22845,-0.04977 -0.26994,-0.15613l-0.18987,-0.45689l0.02352,-0.00978c-0.02954,-0.06033 -0.05849,-0.12104 -0.0869,-0.18213c-1.40214,-2.24453 -1.83363,-5.55994 -2.209,-8.17963c-0.01229,0.38868 -0.02467,0.77736 -0.03712,1.16604l0.03751,0.4863c0.01128,0.13044 -0.08075,0.24884 -0.21201,0.26853c-0.10279,0.01542 -0.20034,-0.0341 -0.25103,-0.11777l-0.25609,-0.40217l0.09054,-0.05765c-1.21258,-1.88158 -1.35037,-5.60419 -1.57844,-8.14267l-0.09553,-0.24647c-0.1613,-0.41663 -0.3955,-0.98703 -0.64586,-1.63103c0.1074,0.70738 0.16583,1.40666 0.13513,2.08163l0.00408,0.0171l0.04299,-0.00631l0.07252,0.4946c0.00001,0.00004 0.00001,0.00007 0.00001,0.0001c0.01998,0.13623 -0.074,0.26306 -0.21027,0.2835c-0.13025,0.01954 -0.2521,-0.06519 -0.28082,-0.19156l-0.11258,-0.47182c-0.39219,-1.01644 -0.75471,-2.04347 -1.1032,-3.07545c-0.03099,0.48638 -0.03218,0.94783 0.0127,1.37196c0.28052,2.65074 0.66923,5.28051 1.06431,7.91649l0.07411,0.49448v0c0.02046,0.13654 -0.07362,0.26381 -0.21016,0.28429c-0.12649,0.01897 -0.24506,-0.06038 -0.2781,-0.18073l-0.13879,-0.47668l0.03335,-0.00971c-1.35419,-2.4653 -1.88874,-5.79587 -2.85562,-8.4557c0.01206,0.39675 0.01,0.7886 -0.01358,1.17315l0.0365,-0.00532l0.07208,0.49464c0.00001,0.00004 0.00001,0.00009 0.00002,0.00013c0.01986,0.13615 -0.07411,0.26285 -0.21031,0.28328c-0.1225,0.01837 -0.23756,-0.05547 -0.27471,-0.16945l-0.16252,-0.46815c-0.1282,-0.37147 -0.23365,-0.75393 -0.32797,-1.14171c0.10042,0.66927 0.20084,1.33855 0.30123,2.00782l0.07417,0.49447c0.02048,0.13654 -0.07361,0.26384 -0.21015,0.28432c-0.13654,0.02048 -0.26384,-0.07361 -0.28432,-0.21015l-0.07417,-0.49447c-0.00236,-0.01572 -0.00474,-0.03147 -0.00714,-0.04725c-1.4616,-1.50706 -2.26214,-5.67494 -2.84993,-8.01359c-0.09097,-0.00622 -0.18182,-0.01304 -0.2725,-0.02053c-0.10401,0.74383 -0.12774,1.65292 -0.15293,2.30879l0.07394,-0.00778l0.05222,0.49593c0.01479,0.13287 -0.07806,0.25473 -0.21141,0.27473c-0.11122,0.01668 -0.2163,-0.04265 -0.26251,-0.13901l-0.22411,-0.4405l0.01105,-0.00562l-0.02545,-0.02886c-0.15834,-0.8839 -0.33297,-1.74875 -0.48989,-2.60829c-1.5569,-0.26392 -3.00951,-0.83234 -4.15144,-2.08866c0,0 -0.168,-0.18514 0.01715,-0.35314c0.18514,-0.168 0.35314,0.01715 0.35314,0.01715c0.74378,0.82119 1.6365,1.32686 2.60761,1.64011c-0.33475,-0.24373 -0.61524,-0.54829 -0.82396,-0.92687l-0.09029,0.0475l-0.23009,-0.43735c-0.01418,-0.02549 -0.02411,-0.05392 -0.0287,-0.08447c-0.02048,-0.13654 0.07361,-0.26384 0.21015,-0.28432c0.05854,-0.00878 0.11536,0.0035 0.16281,0.03114l0.40387,0.23042c0.42223,0.07017 0.83886,0.13838 1.25142,0.20308c-0.12916,-1.02175 -0.19583,-2.05109 -0.1429,-3.11106l-0.02148,0.00322l-0.07417,-0.49447c-0.02048,-0.13654 0.07361,-0.26384 0.21015,-0.28432c0.0987,-0.0148 0.19256,0.03025 0.24475,0.10793l0.23758,0.33809l-0.0081,0.0057l0.02365,0.01948c0.48545,1.21893 0.92023,2.43091 1.31344,3.67108c0.48154,0.06095 0.96055,0.11368 1.43967,0.15556c0.00552,-0.11673 0.09271,-0.21717 0.21267,-0.23517c0.10785,-0.01618 0.20994,0.03912 0.25817,0.13038l0.08282,0.14819c1.31717,0.09101 2.64283,0.09252 4.03163,-0.05004c0.09928,-0.50798 0.21881,-0.99498 0.36094,-1.45048l-0.03124,-0.00546l0.08501,-0.48687c0.01592,-0.10569 0.09896,-0.19323 0.21018,-0.20991c0.0987,-0.0148 0.19256,0.03025 0.24475,0.10793l0.23758,0.33809l-0.01528,0.01073l0.04282,0.04008c0.08137,0.49128 0.16492,0.98232 0.24979,1.4733c0.54344,-0.07723 1.09663,-0.14875 1.6521,-0.2265c0.00703,-0.46873 0.02837,-0.92335 0.06704,-1.35706l-0.02274,0.00341l-0.07417,-0.49447c-0.02048,-0.13654 0.07361,-0.26384 0.21015,-0.28432c0.12288,-0.01843 0.23826,0.05592 0.27505,0.1705l0.13122,0.38383c0.16289,0.47648 0.32909,0.94723 0.49377,1.41589c0.08172,-0.01337 0.16338,-0.02704 0.24496,-0.04106c0.68542,-0.35942 1.36486,-0.74169 2.03539,-1.10393c-0.04531,-0.54266 -0.06197,-1.07831 -0.03661,-1.60112l0.02231,-0.4383c0.00368,-0.11844 0.09149,-0.22099 0.21283,-0.23919c0.13654,-0.02048 0.26384,0.07361 0.28432,0.21015l0.07417,0.49447l-0.04956,0.00743c0.12087,0.36397 0.216,0.74757 0.28994,1.14563c0.32755,-0.16772 0.65265,-0.32639 0.97492,-0.47081c0.03888,-0.38817 0.10772,-0.7535 0.21354,-1.08765l-0.08525,-0.02208l0.11843,-0.45732c0.0227,-0.09668 0.10217,-0.17452 0.20638,-0.19015c0.13654,-0.02048 0.26384,0.07361 0.28432,0.21015l0.07417,0.49447v0c0.02472,0.16483 0.04944,0.32964 0.07417,0.49447c0.00892,0.05949 0.01783,0.11899 0.0267,0.17848c0.00027,-0.00012 0.00054,-0.00024 0.00081,-0.00036c-0.00819,-0.13376 -0.00792,-0.26264 0.00409,-0.38305c-0.01169,-0.07795 -0.02338,-0.15589 -0.03507,-0.23383v0l-0.07417,-0.49447c-0.02048,-0.13654 0.07361,-0.26384 0.21015,-0.28432c0.13654,-0.02048 0.26384,0.07361 0.28432,0.21015l0.07417,0.49447v0c0.01068,0.07117 0.02135,0.14234 0.03203,0.21351c0.0205,0.05793 0.04048,0.1163 0.05996,0.17508c0.10351,-0.06483 0.2058,-0.13314 0.30717,-0.20385c-0.00429,-0.2287 -0.0147,-0.45743 -0.03711,-0.6895l-0.06072,-0.42629c-0.01951,-0.13594 0.07437,-0.26232 0.21038,-0.28272c0.13654,-0.02048 0.26384,0.07361 0.28432,0.21015l0.07417,0.49447l-0.00655,0.00098c0.00298,0.03375 0.00574,0.06744 0.00828,0.10107c0.02449,0.06241 0.04857,0.12543 0.07225,0.18904c0.40361,-0.30966 0.80136,-0.62759 1.21424,-0.88255l0.31901,-0.19628c0.02897,-0.01874 0.0623,-0.03176 0.09864,-0.03721c0.13654,-0.02048 0.26384,0.07361 0.28432,0.21015c0.00848,0.05656 -0.00269,0.11153 -0.0284,0.15798l-0.23614,0.43785l-0.03108,-0.01677c-0.25996,0.72764 -0.60386,1.33414 -1.01789,1.843c0.01231,0.19133 0.0145,0.39244 0.01227,0.58154c0.53001,2.25728 0.81658,4.79802 1.2951,6.75421c0.66039,2.7039 1.23777,5.33629 1.70671,8.04705c0.23078,0.88248 0.38715,1.74946 0.40755,2.56053c0.01928,0.12855 0.03856,0.25709 0.05784,0.38565l0.07417,0.49447c0.02048,0.13654 -0.07361,0.26384 -0.21015,0.28432c-0.13654,0.02048 -0.26384,-0.07361 -0.28432,-0.21015c-0.0035,-0.02331 -0.07067,-0.47116 -0.07417,-0.49447c-0.01183,-0.07889 -0.02367,-0.15778 -0.0355,-0.23667c-0.19531,-0.4985 -0.17191,-1.19221 -0.34234,-1.67168c-0.83366,-2.34531 -1.45544,-4.76646 -2.20401,-7.14161c-0.15558,-0.49369 -0.3056,-0.98945 -0.45004,-1.48701c0.03444,0.9488 0.0941,1.89706 0.16148,2.84503c0.00859,0.04522 0.01722,0.0904 0.0259,0.13556c0.78437,2.34285 2.08909,5.27375 2.02069,7.54684c0.01359,0.08431 0.02716,0.16863 0.04075,0.25293l-0.00186,0.00131l0.00202,-0.0003l0.05554,0.37029c0.02048,0.13654 -0.07361,0.26384 -0.21015,0.28432c-0.13654,0.02048 -0.26384,-0.07361 -0.28432,-0.21015l-0.05545,-0.36968c-0.01285,-0.08275 -0.02569,-0.16551 -0.03854,-0.24826c-0.04694,-0.10984 -0.08295,-0.23873 -0.11228,-0.37668c-0.46602,-1.31087 -0.85801,-2.614 -1.19358,-3.92645c0.08449,1.32914 0.14225,2.65827 0.12497,3.98803c-0.00586,0.44758 -0.02862,0.89318 -0.05158,1.34016c0.31381,2.09218 0.62762,4.18435 0.94144,6.27654l0.07417,0.49447c0.02048,0.13654 -0.07361,0.26384 -0.21015,0.28432c-0.11592,0.01739 -0.22517,-0.0478 -0.26807,-0.15144l-0.19934,-0.45262l0.04356,-0.01918c-1.67295,-2.52996 -2.00693,-6.32452 -2.43505,-9.17877c-0.51646,-3.44323 -1.58408,-6.78308 -2.10044,-10.21719c-0.02021,-0.13477 -0.04176,-0.27048 -0.0644,-0.40701c-0.05048,0.84415 -0.10274,1.6512 -0.12049,2.37968c-0.08307,3.40966 0.69369,6.88368 1.1979,10.24526c0.37061,2.47085 0.74122,4.9417 1.11183,7.41256l0.06368,0.42455c0.02048,0.13654 -0.07361,0.26384 -0.21015,0.28432c-0.08717,0.01308 -0.17059,-0.02055 -0.22483,-0.08211l-0.33339,-0.36741l0.11058,-0.10034c-1.49295,-2.03364 -1.49649,-7.15684 -1.92381,-9.35308c-0.66828,-3.43462 -1.23975,-6.88844 -1.93972,-10.31657c-0.26631,-1.30428 -0.65684,-2.53834 -1.0805,-3.77031c-0.0699,0.02307 -0.13989,0.046 -0.20997,0.06877c0.00245,0.03202 0.00531,0.06304 0.00865,0.09294c0.18168,1.62395 0.18376,3.28989 0.28609,4.92938c0.14021,0.50622 0.26591,1.01981 0.38801,1.52743c0.01251,-0.00348 0.02592,-0.00636 0.04029,-0.00851c0.24723,-0.03708 0.28432,0.21015 0.28432,0.21015l0.04573,0.30485c0.09472,0.63152 0.20709,1.21035 0.22581,1.8072c0.01764,0.05821 0.0355,0.11597 0.05361,0.17326l0.01726,-0.00259l0.07417,0.49447c0.02048,0.13654 -0.07361,0.26384 -0.21015,0.28432c-0.13429,0.02014 -0.25963,-0.07053 -0.28322,-0.20342l-0.08085,-0.4444c-0.0257,-0.08043 -0.05328,-0.16341 -0.08252,-0.24874zM292.59592,177.60383c-0.07523,-0.81911 -0.13186,-1.64606 -0.15637,-2.45021c-0.47086,0.14381 -0.94507,0.27868 -1.42166,0.40081c0.09976,0.56516 0.20028,1.13043 0.3003,1.69605c0.02186,-0.13739 0.04552,-0.25921 0.07055,-0.36241l0.11788,-0.47993c0.02172,-0.09811 0.10178,-0.17744 0.20709,-0.19324c0.11077,-0.01661 0.21545,0.04217 0.26196,0.13786l0.22639,0.43932l-0.04368,0.02251c0.15971,0.25007 0.30472,0.51418 0.43754,0.78924zM286.14347,176.21039c-0.09218,-0.00147 -0.18462,-0.00284 -0.27729,-0.00415c0.14873,0.57214 0.31825,1.1365 0.50243,1.69637c0.05106,-0.67524 0.10766,-1.26764 0.12743,-1.67504l0.0008,-0.01648c-0.11783,0.00125 -0.23562,0.00104 -0.35336,-0.0007zM281.97738,174.0146c0.28173,0.04279 0.56179,0.08369 0.84067,0.12219c-0.25508,-0.78899 -0.52753,-1.5671 -0.81705,-2.34515c-0.03445,0.46499 -0.13588,0.95062 -0.11206,1.34305c0.01791,0.295 0.04851,0.58815 0.08844,0.87991zM299.84954,184.32566c-0.02859,-0.73902 -0.0491,-1.48038 -0.06215,-2.2278c-0.00196,-0.11262 -0.00377,-0.22535 -0.00545,-0.3382c-0.01086,-0.04419 -0.02169,-0.0884 -0.03249,-0.13262c-0.62729,-2.56841 -1.03294,-5.17329 -1.41735,-7.78544c0.00118,0.11403 0.00398,0.22213 0.00929,0.32266c0.10378,1.96212 0.57935,3.96896 0.8708,5.91219c0.21245,1.41641 0.4249,2.8328 0.63735,4.24921zM300.23835,171.11589c0.10936,-0.19988 0.22017,-0.39338 0.33925,-0.57104c-0.17577,0.13134 -0.35061,0.26568 -0.52654,0.39807c0.01669,0.0508 0.03317,0.1019 0.04944,0.15329c0.04908,-0.01233 0.08578,-0.01386 0.10658,-0.00187c0.0108,0.00623 0.02122,0.01343 0.03126,0.02155zM293.85621,174.78456c0.41924,1.22439 0.8045,2.45204 1.06913,3.74806c0.70028,3.42965 1.27205,6.88498 1.94063,10.3211c0.12252,0.62969 0.26711,1.28046 0.41973,1.94384c-0.50866,-3.38881 -1.28592,-6.88717 -1.20219,-10.32428c0.04577,-1.87853 0.05617,-3.74913 0.01039,-5.62435c-0.027,-0.15181 -0.05319,-0.30368 -0.0783,-0.45548c-0.6369,0.14622 -1.30281,0.26167 -1.98677,0.36503c-0.05754,0.00869 -0.11508,0.01739 -0.17262,0.02607zM289.29989,174.87109c-0.43047,0.04205 -0.85567,0.07106 -1.27699,0.08836l0.21055,0.41384c0.19473,-0.0122 0.38845,-0.0217 0.58093,-0.02722c-0.00677,-0.01723 -0.01171,-0.03549 -0.01457,-0.05456c-0.02048,-0.13654 0.07361,-0.26384 0.21015,-0.28432v0l0.27451,-0.04117c0.00507,-0.0317 0.01023,-0.06335 0.01544,-0.09492zM282.80349,175.4204c0.0642,-0.22805 0.14045,-0.43466 0.22859,-0.60553c-0.0139,-0.04514 -0.02785,-0.09023 -0.04187,-0.13528c-0.30896,-0.04188 -0.61899,-0.08731 -0.93066,-0.13574c0.04,0.23219 0.08469,0.46368 0.1323,0.69468c0.09635,0.03836 0.19635,0.07277 0.30077,0.10234c0.10323,0.02922 0.20687,0.05567 0.31087,0.07953zM300.42895,176.13156c-0.01073,0.57257 -0.01941,1.14439 -0.02104,1.71689c0.29124,1.11921 0.61041,2.23072 0.95754,3.33199c0.24702,0.78377 0.58599,1.66794 0.93598,2.59936c-0.30433,-1.44401 -0.63712,-2.88518 -0.99436,-4.34786c-0.27351,-1.1217 -0.58795,-2.20772 -0.87812,-3.30038zM297.59359,173.93372c-0.25839,0.09527 -0.52446,0.18119 -0.79722,0.2594c0.02465,0.57963 0.02387,1.17063 0.00869,1.76042c0.16742,0.84915 0.33775,1.68571 0.45766,2.48509c0.51376,3.43397 1.58402,6.77421 2.10044,10.21719c0.32454,2.16371 0.58235,4.20684 1.34931,6.25939c0.08151,0.21815 0.2053,0.48799 0.33709,0.78177c-0.21988,-1.46591 -0.43975,-2.93181 -0.65963,-4.39773c-0.15643,-0.38518 -0.1917,-0.9027 -0.20684,-1.379c-0.48846,-3.25654 -0.97692,-6.51308 -1.46538,-9.76962c-0.23784,-1.58577 -0.90382,-4.00575 -1.12412,-6.21689zM289.80186,187.55394c-0.19449,-1.35672 -0.37776,-2.71433 -0.536,-4.07654c-0.03444,0.0728 -0.10338,0.12768 -0.18903,0.14052c-0.136,0.0204 -0.26283,-0.07286 -0.28406,-0.20853l-0.07774,-0.49293c-0.00967,-0.05852 -0.02094,-0.11848 -0.0337,-0.17977c-0.22456,-0.39073 -0.39092,-0.97446 -0.51783,-1.6487c-0.38375,-1.02519 -0.86305,-2.15696 -1.1459,-3.16819c0.04745,0.77619 0.13336,1.5639 0.2049,2.34587c0.13802,0.35826 0.27852,0.71661 0.41985,1.07596c0.80417,2.0447 1.49551,4.11945 2.15951,6.21231zM283.78724,175.57444c0.16269,0.01485 0.32596,0.02508 0.48965,0.03139c-0.16055,-0.28617 -0.48797,-0.84928 -0.62878,-0.79025c-0.02737,0.01148 -0.05354,0.02714 -0.07857,0.04672c0.03864,0.12755 0.07685,0.25546 0.11467,0.38375c0.0314,0.10651 0.06585,0.21606 0.10302,0.3284zM288.52467,177.65089c0.17004,0.81772 0.34572,1.66153 0.47284,2.49588c-0.01111,-0.36589 -0.01642,-0.74005 -0.01511,-1.11886c-0.1185,-0.3644 -0.2365,-0.72897 -0.35466,-1.09347c-0.02828,-0.08725 -0.06344,-0.18243 -0.10307,-0.28356zM290.49083,175.68392c-0.05147,0.01208 -0.10295,0.024 -0.15447,0.03575c-0.02642,0.28824 -0.0607,0.58174 -0.09997,0.87833l0.00097,0.00244l-0.00136,0.00055c-0.00371,0.02803 -0.00747,0.05609 -0.01127,0.08416c0.4239,0.80448 0.69818,1.71837 0.92876,2.6577c-0.22205,-1.22052 -0.45337,-2.44065 -0.66266,-3.65893zM289.8347,179.23223c0.15276,0.51541 0.29493,1.03705 0.43381,1.55138c-0.11922,-0.63739 -0.25166,-1.27263 -0.37967,-1.90869c-0.01847,0.11954 -0.03659,0.23869 -0.05414,0.3573zM289.15016,175.95776c-0.18838,0.03236 -0.37694,0.06203 -0.56561,0.08875c0.16973,0.30373 0.32556,0.6263 0.47023,0.96261c0.02481,-0.35283 0.05639,-0.70422 0.09538,-1.05136zM285.57536,174.93585c0.0424,0.21581 0.08823,0.43023 0.1372,0.64343c0.63008,-0.03957 1.26055,-0.10568 1.8836,-0.15829l-0.04805,-0.32037v0v0c-0.00666,-0.04437 -0.00121,-0.08776 0.01385,-0.12683c-0.66881,0.01422 -1.32908,-0.00022 -1.98659,-0.03794zM287.18036,176.18773c0.2141,0.34503 0.40736,0.72361 0.58227,1.12423c-0.02932,-0.42997 -0.05581,-0.82543 -0.08418,-1.16062c-0.16603,0.01473 -0.33207,0.02692 -0.49809,0.0364zM284.56426,174.86011c0.11241,0.14006 0.22072,0.30177 0.3246,0.47892c0.0023,-0.14785 0.00746,-0.29443 0.01571,-0.4396l-0.03558,0.00434l-0.00212,-0.01737c-0.10088,-0.00827 -0.20174,-0.01703 -0.30261,-0.02628zM282.36401,176.02858c0.06656,0.29409 0.13473,0.58783 0.20089,0.8817c0.01774,-0.27998 0.05004,-0.56802 0.09675,-0.84562c-0.09951,-0.01104 -0.19875,-0.02303 -0.29764,-0.03608zM291.79505,177.38569c-0.31396,1.83526 0.36477,3.65699 0.46012,5.47465c0.30891,1.66973 0.98732,3.88736 1.33308,5.90245c0.01027,-0.32356 0.02062,-0.64711 0.03107,-0.97066c-0.39595,-2.6102 -0.78856,-5.22093 -1.17744,-7.83219c-0.31683,-0.916 -0.571,-1.8132 -0.64684,-2.57424zM297.56473,173.6128c-0.0061,-0.07641 -0.01162,-0.1525 -0.0165,-0.22824c-0.24745,0.10418 -0.50937,0.19904 -0.78154,0.28566c0.00352,0.04894 0.00682,0.09798 0.00992,0.14714c0.26851,-0.05905 0.53264,-0.12628 0.78811,-0.20457zM297.52527,172.34274c0.00031,-0.01163 0.00064,-0.02325 0.001,-0.03485c-0.2846,0.12993 -0.57061,0.2697 -0.85794,0.416c0.00555,0.03975 0.01092,0.0796 0.01611,0.11957c0.27823,-0.18879 0.5566,-0.35104 0.84085,-0.50073zM295.5717,173.30369c0.09131,-0.03549 0.18238,-0.0714 0.27318,-0.10775c-0.00144,-0.01247 -0.00287,-0.02495 -0.00429,-0.03743c-0.08951,0.04811 -0.17914,0.09653 -0.26889,0.14518zM295.80728,173.99817c0.04734,-0.00758 0.09471,-0.0153 0.14207,-0.02317c-0.00139,-0.00919 -0.00277,-0.01837 -0.00414,-0.02755c-0.04591,0.01691 -0.09189,0.03381 -0.13793,0.05073zM299.48711,172.93366c-0.00209,0.00157 -0.00417,0.00312 -0.00626,0.00469c0.00551,0.03241 0.01094,0.06489 0.01628,0.09741c-0.0033,-0.03405 -0.00663,-0.06808 -0.01002,-0.1021zM299.43748,172.46431c-0.01674,-0.14912 -0.0344,-0.29799 -0.05305,-0.44663c-0.00745,0.00345 -0.01489,0.00691 -0.02232,0.01035c-0.01498,0.02451 -0.03049,0.04877 -0.04655,0.07279c0.03074,0.1349 0.05959,0.27124 0.08673,0.40884c0.01183,-0.015 0.02355,-0.03012 0.03517,-0.04534zM299.205,171.54976c0.00335,-0.00199 0.0067,-0.00398 0.01006,-0.00597l-0.00533,-0.01283c-0.01084,0.00672 -0.0217,0.01341 -0.03258,0.02005c0.00095,0.00345 0.00191,0.00689 0.00286,0.01033c0.00832,-0.00386 0.01665,-0.00772 0.02499,-0.01159zM299.33902,171.44888c-0.03249,0.0211 -0.06509,0.04193 -0.09783,0.06245l0.09765,-0.04058c0.00006,-0.0073 0.00012,-0.01459 0.00018,-0.02188zM299.16346,175.99c-0.09737,-0.87852 -0.20011,-1.75574 -0.32841,-2.62868c-0.02092,0.01201 -0.04192,0.0239 -0.06299,0.03571c0.12672,0.86533 0.25473,1.73 0.3914,2.59297zM281.65609,174.47968c-0.32033,-0.05207 -0.64265,-0.10703 -0.9676,-0.16429c0.34771,0.23303 0.67719,0.49173 1.05104,0.70393c-0.02924,-0.17985 -0.05717,-0.35969 -0.08344,-0.53964zM298.73211,173.12401c0.01994,-0.01217 0.03963,-0.02465 0.05907,-0.03743c-0.02066,-0.11031 -0.04695,-0.23113 -0.07557,-0.35887c-0.01232,0.00955 -0.02475,0.01906 -0.03726,0.02851c0.01792,0.1226 0.03584,0.2452 0.05376,0.36777zM285.31782,179.35751c-0.16001,-0.85645 -0.2956,-1.7146 -0.36975,-2.55026c-0.0976,-0.2073 -0.20473,-0.41411 -0.32431,-0.62256c-0.20909,-0.00539 -0.41842,-0.01225 -0.6275,-0.02141c0.3594,0.95761 0.85473,2.06352 1.32157,3.19422z" fill="#390200" stroke="none" stroke-width="0.5"/><path d="M332.32731,167.35112c0.16307,0.59934 0.25478,1.24189 0.30615,1.89914c0.54127,3.33316 1.08254,6.66631 1.6238,9.99946c0.45261,2.7872 1.59519,6.36451 1.40378,9.28638c0.00175,0.00828 0.00349,0.01657 0.00523,0.02485l0.00288,0.01367l0.02895,-0.00432l0.07388,0.49449c0,0.00001 0,0.00001 0,0.00002c0.02039,0.13649 -0.07368,0.2637 -0.21017,0.28417c-0.13225,0.01984 -0.25582,-0.0678 -0.28207,-0.19739c-0.37795,-1.79395 -0.8586,-4.07548 -1.23655,-5.86943c-0.6792,-3.22394 -1.3584,-6.44786 -2.03761,-9.6718l-0.01728,-0.02459l0.01054,-0.00741c-0.0086,-0.04084 -0.0172,-0.08167 -0.02581,-0.12251c-1.75554,-2.27332 -2.05945,-6.42764 -4.83213,-7.52056c-0.11487,-0.1353 -0.23006,-0.2742 -0.34521,-0.41629c-0.77069,-0.16806 -1.54106,-0.32274 -2.31115,-0.44866l-0.48768,-0.08047c-0.1067,-0.01506 -0.19538,-0.0985 -0.21218,-0.21051c-0.01961,-0.13074 0.06582,-0.253 0.19297,-0.28113l0.4387,-0.1017l0.02194,0.09464c0.22217,-0.06171 0.45746,-0.10516 0.70354,-0.13307c-0.21963,-0.11748 -0.42835,-0.24627 -0.62418,-0.38776l-0.03416,0.06189l-0.43538,-0.24026c-0.06695,-0.03607 -0.11669,-0.10212 -0.12884,-0.18311c-0.02048,-0.13654 0.07361,-0.26384 0.21015,-0.28432c0.04152,-0.00623 0.08218,-0.00186 0.11925,0.01106l0.47064,0.1532c0.00001,0 0.00001,0.00001 0.00002,0.00001c0.23994,0.07804 0.48715,0.1531 0.73978,0.22659c-0.81041,-1.19569 -1.54247,-2.48462 -2.05227,-3.71109l-0.00025,-0.01295l-0.00366,0.0011l-0.13086,-0.43207c-0.00408,-0.01272 -0.00718,-0.02592 -0.00923,-0.03956c-0.02048,-0.13654 0.07361,-0.26384 0.21015,-0.28432c0.09163,-0.01374 0.17911,0.02411 0.23292,0.09178l0.31509,0.38231l-0.02731,0.02251c1.75073,1.4942 2.65363,3.41819 4.35893,4.79242c0.14011,0.04226 0.27986,0.0855 0.419,0.12992c0.47076,0.09001 0.94327,0.18984 1.40819,0.28869c-0.05219,-0.24771 -0.10437,-0.49542 -0.15656,-0.74312c0,0 -0.05154,-0.24463 0.19309,-0.29617c0.24463,-0.05154 0.29617,0.19309 0.29617,0.19309c0.0674,0.3199 0.1348,0.6398 0.20218,0.95971c0.09904,0.02088 0.19756,0.04151 0.29547,0.06181c0.0813,0.0108 0.16262,0.02156 0.24393,0.03231c-0.32138,-0.58114 -0.63328,-1.1432 -0.93863,-1.66509l-0.00414,-0.00707c0,0 -0.12625,-0.21578 0.08953,-0.34203c0.21578,-0.12625 0.34203,0.08953 0.34203,0.08953l0.00414,0.00707c0.3979,0.68004 0.81412,1.34967 1.23736,2.01527c0.44099,0.0602 0.88142,0.12362 1.3202,0.19604c-0.38176,-1.09293 -0.66401,-2.16789 -0.65541,-3.15464l-0.00493,-0.01729l-0.06948,0.00848l-0.05611,-0.45959c-0.01691,-0.13428 0.07641,-0.25819 0.21097,-0.27837c0.12693,-0.01904 0.24587,0.06092 0.27843,0.18196l0.13617,0.47755c0.04871,0.17081 0.09914,0.34096 0.15104,0.51055c0.08084,0.19975 0.14683,0.42146 0.20473,0.64508c0.05506,0.16794 0.11123,0.33545 0.16826,0.50264l-0.09614,-0.39041c-0.00217,-0.00841 -0.00393,-0.01701 -0.00524,-0.02579c-0.02048,-0.13654 0.07361,-0.26384 0.21015,-0.28432c0.12396,-0.01859 0.24031,0.05725 0.27602,0.17356l0.15393,0.47136c0.18409,0.56371 0.37161,1.12633 0.56044,1.68851c0.05755,-0.00928 0.11703,-0.01883 0.17918,-0.02815l0.06097,-0.00914c0,0 0.16928,-0.02539 0.2487,0.10591c0.46376,0.01813 0.9264,0.03829 1.38836,0.05763c0.36471,-0.08182 0.74394,-0.15399 1.13068,-0.21991l-0.04332,-0.28879c-0.02048,-0.13654 0.07361,-0.26384 0.21015,-0.28432c0.13032,-0.01955 0.25222,0.06528 0.28086,0.19177l0.07059,0.29705c1.0568,-0.16451 2.14563,-0.29443 3.12928,-0.45617c-0.24362,-1.71178 -0.42934,-3.44214 -0.25554,-5.01994l-0.03457,0.00287l-0.0412,-0.49637c-0.01201,-0.13096 0.08019,-0.25008 0.2119,-0.26984c0.11826,-0.01774 0.22957,0.05045 0.27057,0.15774l0.18658,0.45832c0.62746,1.54131 1.16868,3.12572 1.63634,4.72284c0.06142,-0.0202 0.12146,-0.04096 0.18001,-0.0623c1.16549,-0.42472 2.34564,-0.74447 3.51307,-1.07151c-0.35829,-1.85037 -0.70043,-3.75746 -0.60601,-5.45404c-0.00935,-0.06172 -0.01868,-0.12358 -0.028,-0.1856l-0.00001,-0.0001l-0.0002,0.00003l-0.07413,-0.49447v0c-0.02047,-0.13653 0.07362,-0.26382 0.21015,-0.2843c0.13651,-0.02048 0.26379,0.07356 0.28431,0.21007l0,0.00001l0.07432,0.49444c0.01184,0.07874 0.02369,0.15724 0.03555,0.23548c0.20811,0.49763 0.24316,1.22359 0.2886,1.79226c0.20256,1.16374 0.43682,2.2896 0.75487,3.41836c1.07941,-0.31593 2.14137,-0.66442 3.16375,-1.13626c-0.11071,-0.88766 -0.16233,-1.75545 -0.1095,-2.57102c-0.0073,-0.02374 -0.01464,-0.04748 -0.02198,-0.07123l0.01295,-0.01963l-0.01635,0.0027l-0.00067,-0.00406l-0.00823,0.00121l-0.07296,-0.49457c0,-0.00003 -0.00001,-0.00005 -0.00001,-0.00008c-0.02011,-0.13631 0.0739,-0.26326 0.21024,-0.28371c0.13551,-0.02033 0.26192,0.07219 0.28384,0.20707l0.07904,0.48008c0.23379,0.74915 0.44383,1.49723 0.63399,2.24712c0.31661,-0.17909 0.62847,-0.37371 0.93486,-0.58678c0.89775,-1.08285 1.58347,-1.73449 2.18964,-3.02352l0.16752,-0.45695c0.02939,-0.08525 0.10404,-0.15164 0.19938,-0.16594c0.13454,-0.02018 0.26009,0.07086 0.28335,0.20415l0.08769,0.49138l-0.03726,0.00665c0.39006,1.15574 0.53249,2.40525 0.5732,3.68005c0.40527,-0.68324 0.80441,-1.36701 1.23188,-2.01509c0.15597,-0.25618 0.3254,-0.514 0.51401,-0.77293l-0.0064,-0.00264l0.18906,-0.45793c0.03159,-0.08047 0.10411,-0.14233 0.19574,-0.15607c0.13654,-0.02048 0.26384,0.07361 0.28432,0.21015c0.00649,0.04329 0.00147,0.08565 -0.01277,0.12398l-0.14558,0.41727l-0.01423,-0.00496l-0.00076,0.03941c-0.03892,0.05276 -0.07709,0.10547 -0.11452,0.15815c-0.07731,0.57171 -0.57405,1.1969 -0.82607,1.66882c-0.33067,0.6192 -0.77004,1.33134 -1.27328,2.04938c-0.00304,0.00505 -0.00608,0.01009 -0.00913,0.01514c-0.01283,1.54098 -0.10258,3.08568 -0.0171,4.51567c0.49132,3.44773 1.00826,6.89149 1.52484,10.33552c0.34611,2.30752 0.69223,4.61504 1.03834,6.92256l0.07417,0.49447c0.02048,0.13654 -0.07361,0.26384 -0.21015,0.28432c-0.11942,0.01791 -0.23178,-0.05182 -0.27177,-0.16095l-0.18005,-0.46111l0.07274,-0.0284c-1.11587,-2.12559 -1.18957,-5.67815 -1.43627,-8.26086c-0.06251,-0.01654 -0.11656,-0.05694 -0.1501,-0.1123l-0.26553,-0.41692l0.04463,-0.02842c-0.75182,-0.89906 -1.30855,-2.06471 -1.74981,-3.31293c0.45258,3.01613 0.90533,6.03224 1.35715,9.04849c0.03388,0.16328 0.06774,0.32648 0.10148,0.48964c0.49254,1.51763 0.90299,3.04122 0.94006,4.34371l0.06079,-0.00912l0.07417,0.49447c0.02048,0.13654 -0.07361,0.26384 -0.21015,0.28432c-0.10324,0.01548 -0.20118,-0.03452 -0.25167,-0.11884l-0.24843,-0.39441l0.01502,-0.00946l-0.03745,-0.03569c-0.02652,-0.15699 -0.05333,-0.31384 -0.08044,-0.47056c-1.41718,-2.04095 -1.7993,-6.70582 -2.31941,-8.79108c-0.84328,-3.38091 -1.1693,-6.93897 -1.68603,-10.38395c-0.02421,-0.16139 -0.04889,-0.32237 -0.07408,-0.48298c-0.01973,0.00342 -0.03945,0.00685 -0.05918,0.01028c0.09602,0.64018 0.19204,1.28036 0.28807,1.92055c0.26556,1.79133 0.00465,3.75241 -0.10753,5.55498l-0.00455,0.01191l0.00285,0.00046l-0.07944,0.48785c-0.01486,0.10693 -0.09839,0.19587 -0.21059,0.2127c-0.09723,0.01458 -0.18977,-0.02893 -0.24239,-0.10449l-0.29091,-0.40015l0.03943,-0.02867c-1.46332,-1.69883 -2.2706,-4.38955 -3.02869,-6.73407c-0.24202,0.04781 -0.48535,0.09011 -0.72976,0.12708c0.30569,2.93441 0.61666,5.89137 0.56113,8.84092l-0.01221,0.02543l0.00722,0.00174l-0.11605,0.48037c-0.02141,0.09855 -0.10164,0.17833 -0.20729,0.19418c-0.11207,0.01681 -0.21789,-0.04355 -0.26356,-0.14122l-0.21974,-0.44274l0.02342,-0.01162c-0.75078,-1.0654 -1.34566,-2.28608 -1.81618,-3.56421c0.01449,0.14658 0.02981,0.27711 0.04652,0.38853l0.07383,0.49223c0.02048,0.13654 -0.07361,0.26384 -0.21015,0.28432c-0.13654,0.02048 -0.26384,-0.07361 -0.28432,-0.21015l-0.05285,-0.35238c-0.52495,-1.81018 -1.14153,-3.5933 -1.74154,-5.38191c-0.33209,0.05558 -0.66487,0.10868 -0.9985,0.15872c-0.20968,0.03032 -0.4242,0.05199 -0.64289,0.06587c0.02031,0.24417 0.03965,0.48845 0.0578,0.73287c0.19309,2.60077 0.34782,5.21949 0.6253,7.81816c0.1721,0.79611 0.35023,1.59105 0.53766,2.38427c0.6558,2.77554 1.96373,6.27781 2.16867,9.19701l0.02901,-0.00813l0.13386,0.47766c0.00326,0.01105 0.00582,0.02246 0.00757,0.03417c0.02048,0.13654 -0.07361,0.26384 -0.21015,0.28432c-0.10116,0.01517 -0.19724,-0.03253 -0.24857,-0.1138l-0.25634,-0.38677c-1.69713,-2.57033 -1.89045,-6.19418 -2.32808,-9.17842c-0.12711,-0.86679 -0.23436,-1.73727 -0.3278,-2.60999c-0.1579,-0.731 -0.31077,-1.46297 -0.46113,-2.19546c0.012,0.08732 0.0244,0.17374 0.03723,0.25925c0.04944,0.32964 0.09889,0.65929 0.14833,0.98894l0.06401,0.42679c0.02048,0.13654 -0.07361,0.26384 -0.21015,0.28432c-0.11766,0.01765 -0.22845,-0.04977 -0.26994,-0.15613l-0.18987,-0.45689l0.0283,-0.01176c-1.33578,-1.93059 -2.25732,-4.52832 -2.92004,-6.9031c0.23554,1.8572 0.36145,3.68343 0.2992,5.58223c0.06721,0.48759 0.13355,0.97515 0.20532,1.46211l0.07289,0.49458c0,0.00003 0.00001,0.00005 0.00001,0.00008c0.02009,0.13631 -0.07391,0.26324 -0.21025,0.28368c-0.11607,0.01741 -0.22546,-0.04798 -0.26823,-0.15185l-0.19851,-0.453l0.02981,-0.01307c-1.52125,-2.14345 -2.62226,-5.2908 -3.47689,-7.83495c0.05424,0.18886 0.10641,0.37853 0.15611,0.56913c0.87863,3.36941 1.34225,6.82609 2.24735,10.18084c0.30166,1.11808 0.54291,2.28063 0.81039,3.43185c0.0389,0.11363 0.07825,0.22701 0.11809,0.34014c0.60841,1.72775 1.21564,3.43863 1.96635,5.11088l0.20241,0.45089c0.01038,0.02178 0.01776,0.04545 0.02152,0.07055c0.02048,0.13654 -0.07361,0.26384 -0.21015,0.28432c-0.10536,0.0158 -0.20522,-0.03661 -0.25474,-0.12411l-0.25325,-0.42437l0.04861,-0.02901l-0.00788,-0.01757c-1.25629,-1.52312 -1.81656,-3.82617 -2.26812,-5.98875c-0.99984,-3.03722 -1.69591,-6.23067 -2.44403,-9.32835c-0.17783,-0.73631 -0.38829,-1.55947 -0.59972,-2.42567c-0.94267,-1.08656 -1.78706,-2.43222 -2.56731,-3.79017c0.01944,0.12932 0.03926,0.25857 0.05937,0.38776zM333.90282,180.19042c-0.04614,-0.28688 -0.09251,-0.57374 -0.13908,-0.86057c-0.35469,-2.18415 -0.70936,-4.3683 -1.06405,-6.55246c0.00247,0.22931 0.00709,0.45357 0.01542,0.67133l0.01492,0.38983c0.00478,0.09265 -0.0423,0.17818 -0.11796,0.22512c0.43025,2.04225 0.8605,4.08449 1.29075,6.12675zM331.85156,170.4538c-0.15011,-1.25082 -0.24908,-2.53885 -0.05869,-3.28814c-0.00762,-0.05005 -0.01519,-0.10012 -0.0227,-0.15019l-0.05876,-0.39174c-0.23249,-0.04683 -0.46495,-0.09541 -0.69737,-0.14531c0.27917,1.32513 0.55834,2.65026 0.83752,3.97539zM331.3384,170.44345c-0.28668,-1.36075 -0.57335,-2.72149 -0.86003,-4.08224c-0.87241,-0.1941 -1.74436,-0.40237 -2.61589,-0.6026c1.11434,0.75116 2.52549,2.78715 3.47592,4.68484zM326.66586,164.05091c-0.28944,-0.2262 -0.57146,-0.463 -0.83962,-0.70787c0.1343,0.19917 0.27057,0.39611 0.40803,0.59026c0.1429,0.03918 0.28686,0.07831 0.43159,0.11761zM333.72386,164.02396c-0.00036,-0.02607 -0.00065,-0.05208 -0.00085,-0.07801l-0.02395,0.0059c0.00825,0.02404 0.01651,0.04807 0.02479,0.07211zM343.90891,183.0574c0.1993,1.31582 0.46802,2.63469 0.93186,3.82787c-0.01144,-0.04211 -0.02314,-0.08272 -0.03523,-0.12159c-0.37808,-1.2161 -0.64736,-2.45848 -0.89664,-3.70628zM342.08116,164.74361c0.29377,-0.05691 0.57385,-0.11853 0.83589,-0.18696c-0.33077,-1.12964 -0.69868,-2.25288 -1.10836,-3.3587c0.00913,0.36142 0.00356,0.71083 0.02679,0.97892c0.07425,0.85657 0.15926,1.71177 0.24567,2.56674zM344.10217,165.92414c-0.06738,0.01007 -0.13472,0.0198 -0.20204,0.02922c0.09018,0.25324 0.18366,0.50815 0.27915,0.76439c0.18661,-0.00235 0.37283,-0.00511 0.55873,-0.00837c-0.00018,-0.09999 0.00118,-0.19936 0.00421,-0.29803c-0.01207,-0.08018 -0.02411,-0.16037 -0.03616,-0.24055l-0.00001,-0.00004l-0.00009,0.00001l-0.05001,-0.33343c-0.18503,0.03032 -0.3697,0.05918 -0.55378,0.08679zM348.15736,165.02568c-0.04918,0.01586 -0.09845,0.03151 -0.1478,0.04694c0.05962,0.49617 0.11638,0.99297 0.16985,1.49076c0.17543,-0.01312 0.351,-0.0273 0.52679,-0.04264c-0.12911,-0.37993 -0.2592,-0.74443 -0.3933,-1.08681c-0.05344,-0.13645 -0.10527,-0.27251 -0.15554,-0.40823zM353.41503,166.29084c-0.07134,0.05333 -0.14239,0.10436 -0.21306,0.1529c0.02574,0.16436 0.05099,0.32909 0.07576,0.49421c0.51435,3.42902 0.83734,6.97189 1.6767,10.33711c0.15415,0.61803 0.37351,1.30517 0.6192,2.03112c-0.39992,-2.66527 -0.79937,-5.33061 -1.19924,-7.99589c-0.1447,-0.96449 -0.29251,-1.92835 -0.44266,-2.89184c-0.12363,-0.52634 -0.24187,-1.03025 -0.36126,-1.49652c-0.0539,-0.21051 -0.10564,-0.42084 -0.15545,-0.63109zM355.35993,158.72504c0.00435,-0.00399 0.0087,-0.00798 0.01306,-0.01197l0.00712,-0.02188c-0.00671,0.01132 -0.01345,0.0226 -0.02018,0.03385zM347.37215,164.74567c-0.0602,-0.32175 -0.12346,-0.64758 -0.18739,-0.97597c-1.14124,0.32082 -2.2946,0.63792 -3.43659,1.05408c-0.06777,0.0247 -0.13602,0.0494 -0.20474,0.07412c0.06018,0.19022 0.12334,0.38167 0.18891,0.57421c0.09849,-0.01345 0.19705,-0.02759 0.29567,-0.04245c1.10579,-0.16586 2.24053,-0.37514 3.34415,-0.684zM343.83697,167.72144c-0.48748,-0.02755 -0.97806,-0.0503 -1.47041,-0.07226c0.00829,0.0915 0.01648,0.18301 0.02455,0.27453c0.20833,-0.01484 0.4122,-0.03737 0.61091,-0.06842c0.27868,-0.0418 0.55698,-0.0866 0.83494,-0.13385zM333.66905,166.48929c-0.34199,-0.10659 -0.70275,-0.20181 -1.07607,-0.29038c0.02074,0.03219 0.04149,0.06438 0.06223,0.09657c0.05686,0.01016 0.11372,0.02018 0.17059,0.03007c0.27194,0.04746 0.55361,0.10276 0.84325,0.16375zM353.16726,161.98626c0.42162,0.83721 0.70549,1.80752 0.91022,2.82994c0.00895,-0.00631 0.01787,-0.01263 0.02677,-0.01895c0.30242,-0.35045 0.5589,-0.7514 0.77383,-1.18257c-0.14174,-1.11331 -0.19103,-2.19853 -0.05243,-3.18007l-0.00017,-0.00112l-0.05007,0.00232l-0.01651,-0.35586c-0.41882,0.47519 -0.81845,0.96438 -1.22315,1.4734c-0.1193,0.14939 -0.2422,0.29361 -0.36848,0.43289zM355.59385,159.18239c-0.16757,0.1699 -0.33039,0.34119 -0.48971,0.51419c0.07507,0.0337 0.13195,0.1037 0.14506,0.19112c0.069,0.45999 0.21216,1.41446 0.28116,1.87446c0.11276,-0.48178 0.18905,-0.96657 0.23346,-1.43329c0.03946,-0.41478 -0.15336,-0.77471 -0.16996,-1.14647zM356.0379,165.14595c0.00545,-0.52073 0.01714,-1.04142 0.02551,-1.56161c-0.07003,0.09302 -0.14264,0.18529 -0.21823,0.27678c0.04856,0.32376 0.09712,0.64751 0.14568,0.97127c0.01568,0.10452 0.03135,0.20904 0.04703,0.31356zM355.0497,164.74974c-0.27347,0.30541 -0.5517,0.59416 -0.8301,0.85728c0.16885,1.04786 0.27299,2.12743 0.37174,3.15678c0.45712,1.57499 0.97104,3.11361 1.55975,4.6728c0.12908,0.34189 0.39648,0.80284 0.62477,1.26215c-0.24137,-1.60922 -0.48274,-3.21844 -0.72409,-4.82765c-0.22571,-1.50495 -0.69155,-3.31646 -1.00206,-5.12135zM352.09342,166.63853c-0.19835,0.03604 -0.39653,0.07278 -0.59458,0.11013c-0.58517,0.22528 -1.18441,0.41093 -1.79368,0.55981c1.00784,2.07563 2.25937,4.43744 2.6478,6.35531c0.11602,-1.67498 0.3408,-3.48269 0.09064,-5.12963c-0.08992,-0.59947 -0.21356,-1.23628 -0.35018,-1.8956zM349.30319,166.46409c0.7828,-0.08034 1.57124,-0.18566 2.37105,-0.32415c0.09649,-0.04037 0.19255,-0.0819 0.28817,-0.1246c-0.1761,-0.82931 -0.36211,-1.68588 -0.51898,-2.54186c-0.86806,0.58699 -1.81921,1.03771 -2.81238,1.39159c0.0477,0.1285 0.09681,0.25732 0.14741,0.38651c0.14949,0.38166 0.32802,0.78821 0.52473,1.21253zM348.35473,175.89307c0.00158,-2.75037 -0.28001,-5.50211 -0.56402,-8.23794c-0.46777,0.05685 -0.93882,0.09479 -1.41146,0.11504c-0.21006,0.04093 -0.42028,0.08136 -0.63067,0.12116c0.17974,0.9544 0.27744,2.09225 0.35005,3.11273c0.17789,0.635 0.39519,1.24904 0.66942,1.81262c0.37409,0.76881 1.27828,2.04837 1.58669,3.07638zM345.22304,166.24646c0.07671,0.12852 0.14658,0.2792 0.21036,0.44806c0.74917,-0.01908 1.49477,-0.04877 2.24189,-0.0963c-0.05688,-0.44077 -0.13067,-0.8969 -0.21372,-1.36356c-0.76199,0.21287 -1.53859,0.38018 -2.31264,0.51838l0.05159,0.34353c0.00751,0.04997 0.01501,0.09994 0.02253,0.14991zM341.92322,168.43422c-0.15453,0.00168 -0.31079,-0.00001 -0.46857,-0.00478c0.08045,0.47277 0.14689,0.95552 0.20443,1.44148c0.20048,0.9682 0.39551,1.9372 0.59095,2.90597c-0.08816,-1.19844 -0.16886,-2.39677 -0.25755,-3.59136c-0.0183,-0.24642 -0.04179,-0.49709 -0.06926,-0.75132zM341.6031,174.5132c-0.30646,-2.04316 -0.61292,-4.08632 -0.91938,-6.12948c-0.5255,-0.04527 -1.06337,-0.11823 -1.60633,-0.20931c0.53087,1.91428 1.24823,3.73462 2.09794,5.54034c0.10591,0.22506 0.26716,0.50186 0.42776,0.79845zM338.64906,174.88396c0.06343,-2.21236 -0.5268,-4.62845 -0.74981,-6.93089c-0.84012,-0.17246 -1.67984,-0.3714 -2.4927,-0.56198c0.02314,0.06878 0.04627,0.13756 0.06937,0.20635c0.74529,2.21897 1.78957,4.27142 2.728,6.41287c0.10634,0.24268 0.27757,0.54814 0.44514,0.87366zM334.44003,169.06533c-0.10477,-0.47329 -0.20431,-0.95079 -0.29405,-1.42619c-0.07275,-0.18395 -0.14631,-0.36873 -0.21976,-0.55399c-0.041,-0.00912 -0.0787,-0.02843 -0.10985,-0.05551c-0.26955,-0.05769 -0.53357,-0.11146 -0.79088,-0.15975c0.37579,0.58356 0.74988,1.16806 1.11456,1.75786c0.08111,0.13118 0.18563,0.27898 0.29997,0.43759zM328.52315,165.40368c0.09384,0.0218 0.18769,0.04362 0.28153,0.06545c-0.01648,-0.00916 -0.03299,-0.01837 -0.04952,-0.02763c-0.07736,-0.01261 -0.1547,-0.02523 -0.23202,-0.03782zM341.86631,167.94524c-0.01316,-0.10617 -0.02686,-0.21288 -0.04103,-0.32006c-0.17632,-0.00784 -0.35281,-0.01577 -0.5294,-0.02397c0.02414,0.11199 0.04725,0.22482 0.06943,0.33838c0.16909,0.00572 0.33619,0.00774 0.501,0.00565zM341.70036,166.73461c-0.02775,-0.18941 -0.05618,-0.37987 -0.08485,-0.57112c-0.23354,0.01142 -0.46688,0.0201 -0.70008,0.0264c0.05997,0.17917 0.11587,0.36218 0.16809,0.54851c0.20538,-0.00141 0.41097,-0.00271 0.61683,-0.00379zM343.58908,166.72395c-0.07594,-0.23375 -0.15111,-0.46774 -0.22525,-0.70204c-0.38181,0.04427 -0.76274,0.07898 -1.14303,0.10566c0.02007,0.20143 0.03994,0.40288 0.05949,0.60437c0.43942,-0.00202 0.87538,-0.00423 1.3088,-0.00799zM343.21207,165.53697c-0.04851,-0.15681 -0.09647,-0.31378 -0.14385,-0.47093c-0.30058,0.10461 -0.60876,0.20853 -0.92298,0.31046c0.00862,0.08515 0.01723,0.1703 0.02582,0.25546c0.34641,-0.02443 0.69335,-0.0557 1.041,-0.09499zM346.16785,167.27803c0.21405,-0.04396 0.428,-0.08848 0.64188,-0.13332c-0.40596,0.01868 -0.81207,0.03302 -1.21913,0.04417c0.00879,0.03259 0.01744,0.06557 0.02594,0.09894c0.1839,-0.00061 0.36771,-0.00384 0.5513,-0.00977zM347.9906,164.56064c-0.02325,-0.06702 -0.04615,-0.13399 -0.06869,-0.20089c0.00897,0.0714 0.01789,0.14281 0.02674,0.21423c0.01399,-0.00443 0.02797,-0.00888 0.04195,-0.01334zM352.5775,165.72097c-0.08797,-0.51988 -0.18188,-1.03628 -0.28278,-1.55019c0.07869,0.52465 0.15739,1.04931 0.23608,1.57396c0.01558,-0.00789 0.03115,-0.01582 0.0467,-0.02377zM352.30764,161.8731c0.01846,0.07633 0.0367,0.15267 0.05477,0.22906c0.07437,-0.07136 0.14768,-0.14427 0.2199,-0.21877l-0.02308,-0.15297c-0.08355,0.04865 -0.16741,0.09619 -0.2516,0.14268zM352.49053,162.65852c0.20852,0.93031 0.39011,1.86589 0.5521,2.81216c0.05582,-0.03157 0.11146,-0.0636 0.16689,-0.09608c-0.20329,-0.95726 -0.37331,-1.91649 -0.53155,-2.88863c-0.06183,0.05851 -0.12432,0.11601 -0.18744,0.17255zM334.95492,166.05182c0.00814,0.02415 0.01628,0.0483 0.02443,0.07245c0.0538,-0.02232 0.10846,-0.04413 0.16394,-0.06546c-0.06277,-0.00237 -0.12556,-0.0047 -0.18837,-0.00698zM337.85668,167.45076c-0.00229,-0.03185 -0.00448,-0.06367 -0.00659,-0.09547c-0.28419,-0.03174 -0.56762,-0.06735 -0.85,-0.10761c-0.02227,-0.00025 -0.04455,-0.00051 -0.06682,-0.00078c0.3067,0.07027 0.61501,0.13884 0.92342,0.20385zM344.38063,167.25312c0.1245,0.00731 0.24907,0.01349 0.37366,0.01852c-0.00116,-0.02135 -0.00226,-0.04269 -0.0033,-0.064c-0.12826,0.00229 -0.25666,0.00434 -0.38523,0.00618c0.00496,0.01309 0.00991,0.02619 0.01487,0.03929zM355.70796,162.94624c0.12372,-0.19087 0.24494,-0.3839 0.36449,-0.5782c-0.00135,-0.26877 -0.00559,-0.53731 -0.01405,-0.80555c-0.07597,0.46152 -0.1948,0.92048 -0.35353,1.36312c0.00103,0.00687 0.00206,0.01375 0.00309,0.02063zM351.26341,162.3928c-1.00272,0.44964 -2.04081,0.78732 -3.0953,1.09606c0.09188,0.3032 0.19032,0.60701 0.2963,0.91224c1.02555,-0.36364 2.00461,-0.83473 2.88518,-1.46188c-0.03055,-0.18252 -0.05941,-0.36475 -0.08618,-0.54641zM341.52687,165.57196c-0.12429,0.03823 -0.24934,0.07604 -0.37504,0.11336c0.1298,-0.00457 0.25965,-0.00994 0.38955,-0.01617c-0.00484,-0.03238 -0.00967,-0.06477 -0.01451,-0.09718zM344.88866,168.59294c-0.02519,-0.17766 -0.04792,-0.35478 -0.06762,-0.53099c-0.04153,0.0074 -0.08307,0.01478 -0.12462,0.02211c0.06429,0.16934 0.12849,0.33899 0.19224,0.50888zM337.82129,166.7528c-0.00242,-0.087 -0.00402,-0.17377 -0.00476,-0.26024c-0.41989,0.0753 -0.83849,0.13887 -1.25278,0.18829c0.1404,0.02327 0.28112,0.04522 0.42214,0.06593c0.27859,0.00315 0.55702,0.00506 0.83539,0.00602zM338.94037,167.66195c0.55957,0.09881 1.11364,0.17859 1.65312,0.22816c-0.0227,-0.10406 -0.04779,-0.21388 -0.07328,-0.32725c-0.54456,-0.02895 -1.08923,-0.06306 -1.63224,-0.10771c0.01723,0.06907 0.03469,0.138 0.05242,0.2068zM338.59695,166.33988c0.03874,0.13734 0.07643,0.27499 0.11313,0.41313c0.54977,-0.00142 1.09983,-0.0053 1.65107,-0.00936c-0.02641,-0.1875 -0.04221,-0.37128 -0.03943,-0.54264c-0.36463,0.00393 -0.72902,0.00277 -1.09337,-0.00213c-0.21006,0.04936 -0.42066,0.09645 -0.6314,0.141z" fill="#390200" stroke="none" stroke-width="0.5"/><g><path d="M344.35128,166.18296c-12.82455,1.9236 -24.78027,-6.91337 -26.70387,-19.73792c-1.9236,-12.82455 6.91336,-24.78027 19.73791,-26.70387c12.82455,-1.9236 24.78028,6.91336 26.70388,19.73791c1.9236,12.82455 -6.91337,24.78028 -19.73792,26.70388z" fill="#000000" stroke="#000000" stroke-width="2"/><path d="M339.33353,149.6072c0.33099,2.20668 -0.60544,4.17625 -2.09156,4.39916c-1.48613,0.22291 -2.9592,-1.38526 -3.29018,-3.59193c-0.33099,-2.20668 0.60544,-4.17624 2.09158,-4.39915c1.48613,-0.22291 2.95919,1.38526 3.29017,3.59192z" fill="#ffffff" stroke="#ff0000" stroke-width="3.5"/></g><g><path d="M263.98914,154.49339c-1.9236,-12.82455 6.91337,-24.78027 19.73792,-26.70387c12.82455,-1.9236 24.78027,6.91336 26.70387,19.73791c1.9236,12.82455 -6.91336,24.78028 -19.73791,26.70388c-12.82455,1.9236 -24.78028,-6.91337 -26.70388,-19.73792z" fill="#000000" stroke="#000000" stroke-width="2"/><path d="M290.58927,143.10592c0.33099,2.20668 -0.60544,4.17625 -2.09157,4.39916c-1.48613,0.22291 -2.9592,-1.38526 -3.29018,-3.59193c-0.33099,-2.20668 0.60544,-4.17625 2.09157,-4.39916c1.48613,-0.22291 2.9592,1.38526 3.29018,3.59193z" fill="#ffffff" stroke="#ff0000" stroke-width="3.5"/></g><g><path d="M332.92539,162.79115c1.43643,0.98957 0.78721,4.42446 -1.45008,7.67203c-2.23728,3.24758 -6.65184,4.08849 -6.65184,4.08849c0,0 -0.78721,-4.42446 1.45008,-7.67204c2.23728,-3.24758 5.21542,-5.07806 6.65184,-4.08849z" fill="#0f0f0f" stroke="#000000" stroke-width="2"/><path d="M328.19141,166.4929c-0.06183,0.04452 -0.12468,0.08796 -0.18866,0.13017c-0.00284,0.00278 -0.00568,0.00555 -0.00853,0.00833l0.04608,0.03406l-0.22901,0.30983c-0.03803,0.05145 -0.09569,0.08839 -0.16396,0.09863c-0.13654,0.02048 -0.26384,-0.07361 -0.28432,-0.21015c-0.00623,-0.04153 -0.00186,-0.08219 0.01107,-0.11926l0.09273,-0.28484l0.03571,0.01162l0.00096,-0.08283c0.10755,-0.08109 0.21266,-0.16309 0.31574,-0.246c0.37259,-0.74441 1.58411,-1.92367 1.99792,-2.21446l0.2451,-0.17222c0.03164,-0.02324 0.06924,-0.03935 0.11077,-0.04557c0.13654,-0.02048 0.26384,0.07361 0.28432,0.21015c0.00623,0.04153 0.00186,0.08219 -0.01107,0.11926l-0.09273,0.28484l-0.07894,-0.02571c-0.03843,0.1192 -0.08845,0.22814 -0.1467,0.32988c-0.02232,0.06246 -0.06307,0.10378 -0.06307,0.10378c-0.00064,0.00065 -0.00129,0.00131 -0.00193,0.00196c-0.34651,0.52774 -0.90219,0.87458 -1.13109,1.53411l-0.46056,0.25567c0,0 -0.16184,0.08234 -0.27984,-0.03126z" fill="#ffffff" stroke="none" stroke-width="0.5"/></g></g><path d="M267.96637,179.26524c0,0 34.46127,14.05994 51.72421,11.63437c15.22691,-2.1395 50.19373,-25.1692 50.19373,-25.1692l2.32635,0.66004c0,0 -23.43716,36.86171 -47.07176,40.26426c-23.6346,3.40255 -58.8512,-26.33013 -58.8512,-26.33013z" fill="#000000" stroke="#000000" stroke-width="2" stroke-linecap="butt"/></g></g></svg>