<svg version="1.1" xmlns="http://www.w3.org/2000/svg" xmlns:xlink="http://www.w3.org/1999/xlink" width="213.18203" height="281.18477" viewBox="0,0,213.18203,281.18477"><defs><linearGradient x1="320.08743" y1="187.07228" x2="320.08743" y2="244.23178" gradientUnits="userSpaceOnUse" id="color-1"><stop offset="0" stop-color="#57596b"/><stop offset="1" stop-color="#57596b" stop-opacity="0"/></linearGradient><linearGradient x1="321.46051" y1="89.01736" x2="321.46051" y2="209.61403" gradientUnits="userSpaceOnUse" id="color-2"><stop offset="0" stop-color="#6b717d" stop-opacity="0.28235"/><stop offset="1" stop-color="#6b717d" stop-opacity="0"/></linearGradient></defs><g transform="translate(-214.52362,-38.88751)"><g stroke-miterlimit="10"><path d="M214.52362,306.61252v-267.72501h213.18203v267.72501z" fill="none" stroke="none" stroke-width="0" stroke-linecap="butt"/><path d="M286.35186,319.07227l15.14285,-131.8421l37.78325,-0.15789l13.57389,132z" fill="#b9bebf" stroke="#000000" stroke-width="0" stroke-linecap="butt"/><path d="M295.01903,243.61118l6.47569,-56.38101l37.78325,-0.15789l5.87786,57.15951z" fill="url(#color-1)" stroke="#000000" stroke-width="0" stroke-linecap="butt"/><path d="M286.35186,319.07227l15.14285,-131.8421l37.78325,-0.15789l13.57389,132z" fill="none" stroke="#000000" stroke-width="2" stroke-linecap="butt"/><path d="M257.22349,149.31569c0,-33.30185 28.7599,-60.29833 64.23702,-60.29833c35.47713,0 64.23702,26.99648 64.23702,60.29833c0,33.30185 -28.75989,60.29834 -64.23702,60.29834c-35.47712,0 -64.23702,-26.99649 -64.23702,-60.29834z" fill="#b9bebf" stroke="#000000" stroke-width="2" stroke-linecap="butt"/><path d="M257.22349,149.31569c0,-33.30185 28.7599,-60.29833 64.23702,-60.29833c35.47713,0 64.23702,26.99648 64.23702,60.29833c0,33.30185 -28.75989,60.29834 -64.23702,60.29834c-35.47712,0 -64.23702,-26.99649 -64.23702,-60.29834z" fill="url(#color-2)" stroke="#000000" stroke-width="2" stroke-linecap="butt"/><path d="M270.85059,149.59131c0,-12.96801 10.51265,-23.48065 23.48066,-23.48065c12.96801,0 23.48065,10.51264 23.48065,23.48065c0,12.96801 -10.51264,23.48066 -23.48065,23.48066c-12.96801,0 -23.48066,-10.51265 -23.48066,-23.48066z" fill="#ffffff" stroke="#000000" stroke-width="2" stroke-linecap="butt"/><path d="M286.09371,150.07244c0,-8.29964 6.72818,-15.02784 15.02783,-15.02784c8.29964,0 15.02784,6.72819 15.02784,15.02785c0,8.29964 -6.72819,15.02785 -15.02784,15.02785c-8.29964,0 -15.02783,-6.72819 -15.02783,-15.02785z" fill="#000000" stroke="#000000" stroke-width="5" stroke-linecap="butt"/><path d="" fill="none" stroke="#000000" stroke-width="2" stroke-linecap="round"/><path d="M348.58972,173.072c-12.96801,0 -23.48065,-10.51265 -23.48065,-23.48066c0,-12.96801 10.51264,-23.48065 23.48065,-23.48065c12.96801,0 23.48066,10.51264 23.48066,23.48065c0,12.96801 -10.51265,23.48066 -23.48066,23.48066z" fill="#ffffff" stroke="#000000" stroke-width="2" stroke-linecap="butt"/><path d="M370.43921,149.72862c0,8.29966 -6.72818,15.02785 -15.02783,15.02785c-8.29964,0 -15.02784,-6.72821 -15.02784,-15.02785c0,-8.29966 6.7282,-15.02785 15.02784,-15.02785c8.29964,0 15.02783,6.7282 15.02783,15.02784z" fill="#000000" stroke="#000000" stroke-width="5" stroke-linecap="butt"/><path d="M283.0496,118.20398c0,0 7.63605,-3.66355 12.8614,-3.77536c5.22537,-0.1118 11.92012,3.24511 11.92012,3.24511c0,0 -7.85042,-1.72795 -11.8858,-1.6416c-4.21712,0.09024 -12.89572,2.17185 -12.89572,2.17185z" fill="#000000" stroke="none" stroke-width="0" stroke-linecap="butt"/><path d="M347.17413,116.0202c-4.03047,-0.21678 -11.93266,1.25644 -11.93266,1.25644c0,0 6.79979,-3.1387 12.0188,-2.858c5.219,0.2807 12.7326,4.18924 12.7326,4.18924c0,0 -8.60675,-2.36113 -12.81875,-2.58768z" fill="#000000" stroke="none" stroke-width="0" stroke-linecap="butt"/><path d="M319.80557,202.36342l15.77291,4.89449" fill="none" stroke="#000000" stroke-width="2" stroke-linecap="round"/><path d="M274.31646,137.30702c4.13162,-6.71731 11.55015,-11.19635 20.01482,-11.19635c8.6645,0 16.23287,4.69301 20.30189,11.67579c1.00179,1.71915 -9.17553,-0.88667 -19.69008,-0.97735c-10.69761,-0.09227 -21.73516,2.30019 -20.62663,0.49791z" fill="#b9bebf" stroke="#000000" stroke-width="2" stroke-linecap="butt"/><path d="M328.23877,137.87103c4.05706,-7.02943 11.65151,-11.76035 20.35093,-11.76035c8.52455,0 15.98811,4.54264 20.10201,11.33925c1.00188,1.65522 -8.19728,-1.03241 -18.08107,-0.83814c-11.27108,0.22154 -23.43248,3.09692 -22.37186,1.25924z" fill="#b9bebf" stroke="#000000" stroke-width="2" stroke-linecap="butt"/><g stroke="#000000" stroke-linecap="butt"><path d="M403.39109,98.52197c0.14953,6.65137 -36.23259,12.86396 -81.26175,13.87624c-45.02915,1.01228 -81.65371,-3.55912 -81.80323,-10.21047c-0.14953,-6.65137 36.23259,-12.86396 81.26175,-13.87624c45.02916,-1.01228 81.65371,3.55912 81.80323,10.21047z" fill="#cad6d8" stroke-width="2"/><path d="M293.46175,111.15581c0,0 -9.68022,-0.3497 -14.23755,-0.67459c-4.47614,-0.31911 -12.86723,-1.25776 -12.86723,-1.25776c0,0 34.18812,-7.49857 44.81902,-11.15371c7.99219,-2.7479 13.33946,-8.84248 13.33946,-8.84248c0,0 15.04693,0.07643 19.27968,0.13995c2.07781,0.03118 4.65003,0.21917 4.65003,0.21917c0,0 -21.89838,6.18376 -31.19738,9.83165c-9.02033,3.53858 -23.78603,11.73778 -23.78603,11.73778z" fill="#faffff" stroke-width="0"/></g><path d="M320.36613,96.41046v-40.05561l-6.60953,-4.93184c0,0 5.37613,2.76173 8.0234,2.76173c2.75014,0 8.18061,-2.76173 8.18061,-2.76173l-6.60953,4.93184v40.05561z" fill="#9ea2a2" stroke="#000000" stroke-width="1.5" stroke-linecap="butt"/></g></g></svg>