<svg version="1.1" xmlns="http://www.w3.org/2000/svg" xmlns:xlink="http://www.w3.org/1999/xlink" width="34.17311" height="34.17311" viewBox="0,0,34.17311,34.17311"><g transform="translate(-302.91345,-162.91346)"><g stroke-miterlimit="10"><path d="M309.98312,162.91347h20.03379c3.9166,0 7.06966,3.15307 7.06966,7.06966v20.03379c0,3.91659 -3.15306,7.06966 -7.06966,7.06966h-20.03379c-3.91659,0 -7.06966,-3.15307 -7.06966,-7.06966v-20.03379c0,-3.91659 3.15307,-7.06966 7.06966,-7.06966z" fill="#39ddff" fill-rule="evenodd" stroke="none" stroke-width="4.43922" stroke-linecap="round" stroke-linejoin="round"/><g fill-rule="nonzero" stroke="#000000" stroke-width="3" stroke-linecap="butt" stroke-linejoin="miter"><path d="M333.25075,182.89657c-1.67605,1.22269 -4.02595,0.85518 -5.24864,-0.82088c-1.22269,-1.67605 -0.85517,-4.02595 0.82088,-5.24864c1.67605,-1.22269 4.02595,-0.85518 5.24864,0.82088c1.22269,1.67605 0.85517,4.02595 -0.82088,5.24864z" fill="#39ddff"/><path d="M332.44702,182.4446c-1.30992,0.9556 -3.14649,0.66836 -4.10209,-0.64156c-0.9556,-1.30992 -0.66836,-3.14649 0.64156,-4.10209c1.30992,-0.9556 3.14649,-0.66836 4.10209,0.64156c0.9556,1.30992 0.66836,3.14649 -0.64156,4.10209z" fill="#ffffff"/><path d="M305.92838,177.53852c1.22269,-1.67605 3.57259,-2.04357 5.24864,-0.82088c1.67605,1.22269 2.04357,3.57259 0.82088,5.24864c-1.22269,1.67605 -3.57259,2.04357 -5.24864,0.82088c-1.67605,-1.22269 -2.04357,-3.57259 -0.82088,-5.24864z" fill="#39ddff"/><path d="M306.91143,178.2331c0.9556,-1.30992 2.79218,-1.59716 4.1021,-0.64156c1.30992,0.9556 1.59716,2.79217 0.64156,4.10209c-0.9556,1.30992 -2.79218,1.59716 -4.1021,0.64156c-1.30992,-0.9556 -1.59716,-2.79217 -0.64156,-4.10209z" fill="#ffffff"/><path d="M309.02467,185.86294c0,-5.69641 4.91949,-10.31426 10.98799,-10.31426c6.06851,0 10.988,4.61785 10.988,10.31426c0,0.32127 -0.01565,0.81974 -0.04627,1.13351c-6.89979,-0.00669 -21.4951,-0.27184 -21.89304,-0.28464c-0.02429,-0.27994 -0.03668,-0.56305 -0.03668,-0.84887z" fill="#39ddff"/><path d="M311.15061,179.33113c0,0 3.44632,-7.5354 10.17279,-6.1598c6.94313,1.41992 7.87387,6.63471 7.87387,6.63471z" fill="#49c6ff"/><path d="M310.19646,179.01802c0.04189,-0.3393 0.3288,-1.18616 0.3288,-1.18616c0,0 6.59653,0.65321 9.83841,0.86436c3.12263,0.20338 9.26851,0.3801 9.26851,0.3801c0,0 0.11639,0.48603 0.12033,0.76047c0.00465,0.32389 -0.0942,1.0592 -0.0942,1.0592c0,0 -2.21492,-1.90075 -4.74855,-2.02765c-1.97254,-0.09879 -4.13826,1.57927 -5.60236,1.52388c-3.1035,-0.11741 -9.04777,-0.23011 -9.04777,-0.23011c0,0 -0.09465,-0.88909 -0.06317,-1.14409z" fill="#49c6ff"/></g><path d="M333.25075,182.89657c-1.67605,1.22269 -4.02595,0.85518 -5.24864,-0.82088c-1.22269,-1.67605 -0.85517,-4.02595 0.82088,-5.24864c1.67605,-1.22269 4.02595,-0.85518 5.24864,0.82088c1.22269,1.67605 0.85517,4.02595 -0.82088,5.24864z" fill="#39ddff" fill-rule="nonzero" stroke="#000000" stroke-width="0" stroke-linecap="butt" stroke-linejoin="miter"/><path d="M332.44702,182.4446c-1.30992,0.9556 -3.14649,0.66836 -4.10209,-0.64156c-0.9556,-1.30992 -0.66836,-3.14649 0.64156,-4.10209c1.30992,-0.9556 3.14649,-0.66836 4.10209,0.64156c0.9556,1.30992 0.66836,3.14649 -0.64156,4.10209z" fill="#ffffff" fill-rule="nonzero" stroke="none" stroke-width="0" stroke-linecap="butt" stroke-linejoin="miter"/><path d="M305.92838,177.53852c1.22269,-1.67605 3.57259,-2.04357 5.24864,-0.82088c1.67605,1.22269 2.04357,3.57259 0.82088,5.24864c-1.22269,1.67605 -3.57259,2.04357 -5.24864,0.82088c-1.67605,-1.22269 -2.04357,-3.57259 -0.82088,-5.24864z" fill="#39ddff" fill-rule="nonzero" stroke="#000000" stroke-width="0" stroke-linecap="butt" stroke-linejoin="miter"/><path d="M306.91143,178.2331c0.9556,-1.30992 2.79218,-1.59716 4.1021,-0.64156c1.30992,0.9556 1.59716,2.79217 0.64156,4.10209c-0.9556,1.30992 -2.79218,1.59716 -4.1021,0.64156c-1.30992,-0.9556 -1.59716,-2.79217 -0.64156,-4.10209z" fill="#ffffff" fill-rule="nonzero" stroke="none" stroke-width="0" stroke-linecap="butt" stroke-linejoin="miter"/><path d="M309.02467,185.86294c0,-5.69641 4.91949,-10.31426 10.98799,-10.31426c6.06851,0 10.988,4.61785 10.988,10.31426c0,0.32127 -0.01565,0.81974 -0.04627,1.13351c-6.89979,-0.00669 -21.4951,-0.27185 -21.89304,-0.28465c-0.02429,-0.27994 -0.03668,-0.56304 -0.03668,-0.84886z" fill="#39ddff" fill-rule="nonzero" stroke="#000000" stroke-width="0" stroke-linecap="butt" stroke-linejoin="miter"/><path d="M313.42912,180.50629c0,0 1.31303,-0.61218 2.207,-0.62141c0.89398,-0.00923 2.03272,0.57761 2.03272,0.57761c0,0 -1.3395,-0.31041 -2.02988,-0.30327c-0.72148,0.00745 -2.20983,0.34707 -2.20983,0.34707z" fill="#000000" fill-rule="nonzero" stroke="none" stroke-width="0" stroke-linecap="butt" stroke-linejoin="miter"/><path d="M324.4176,180.15719c-0.68836,-0.05328 -2.04561,0.16689 -2.04561,0.16689c0,0 1.17543,-0.5094 2.06678,-0.44042c0.89135,0.06898 2.16052,0.76758 2.16052,0.76758c0,0 -1.46231,-0.43837 -2.18169,-0.49405z" fill="#000000" fill-rule="nonzero" stroke="none" stroke-width="0" stroke-linecap="butt" stroke-linejoin="miter"/><path d="M311.15061,179.33113c0,0 3.44632,-7.5354 10.17279,-6.1598c6.94313,1.41992 7.87387,6.63471 7.87387,6.63471z" fill="#49c6ff" fill-rule="nonzero" stroke="#000000" stroke-width="0" stroke-linecap="butt" stroke-linejoin="miter"/><path d="M310.59896,180.33177c0,0 -0.09464,-0.88908 -0.06316,-1.14408c0.04189,-0.3393 0.3288,-1.18616 0.3288,-1.18616c0,0 6.59653,0.65321 9.83841,0.86436c3.12263,0.20338 9.26851,0.3801 9.26851,0.3801c0,0 0.1164,0.48603 0.12034,0.76047c0.00465,0.32389 -0.0942,1.0592 -0.0942,1.0592c0,0 -7.00624,-0.37723 -10.35091,-0.50376c-3.1035,-0.11741 -9.04777,-0.23012 -9.04777,-0.23012z" fill="#49c6ff" fill-rule="nonzero" stroke="#000000" stroke-width="0" stroke-linecap="butt" stroke-linejoin="miter"/><path d="M311.63538,178.18417c0,0 -0.02659,0.3523 -0.0444,0.58838c-0.02693,0.35688 -0.10148,1.34456 -0.10148,1.34456" fill="none" fill-rule="nonzero" stroke="#4a77ff" stroke-width="0.5" stroke-linecap="round" stroke-linejoin="miter"/><path d="M314.15184,178.51241l-0.18235,1.78706" fill="none" fill-rule="nonzero" stroke="#4a77ff" stroke-width="0.5" stroke-linecap="round" stroke-linejoin="miter"/><path d="M316.77772,180.33593l0.10942,-1.56823" fill="none" fill-rule="nonzero" stroke="#4a77ff" stroke-width="0.5" stroke-linecap="round" stroke-linejoin="miter"/><path d="M320.09654,180.40887v-1.42235" fill="none" fill-rule="nonzero" stroke="#4a77ff" stroke-width="0.5" stroke-linecap="round" stroke-linejoin="miter"/><path d="M323.08712,178.98653l-0.07294,1.42235" fill="none" fill-rule="nonzero" stroke="#4a77ff" stroke-width="0.5" stroke-linecap="round" stroke-linejoin="miter"/><path d="M325.74947,180.59123l-0.14588,-1.45882" fill="none" fill-rule="nonzero" stroke="#4a77ff" stroke-width="0.5" stroke-linecap="round" stroke-linejoin="miter"/><path d="M328.43639,180.73711l-0.18236,-1.49529" fill="none" fill-rule="nonzero" stroke="#4a77ff" stroke-width="0.5" stroke-linecap="round" stroke-linejoin="miter"/><path d="M310.59896,180.33177c0,0 -0.09465,-0.88908 -0.06317,-1.14408c0.04189,-0.3393 0.3288,-1.18617 0.3288,-1.18617c0,0 4.08024,0.40404 7.39978,0.6793c0.90124,0.07474 1.74641,0.13997 2.43863,0.18506c3.12263,0.20338 9.26851,0.38011 9.26851,0.38011c0,0 0.11639,0.48603 0.12033,0.76047c0.00465,0.32389 -0.0942,1.0592 -0.0942,1.0592c0,0 -7.00624,-0.37723 -10.35091,-0.50377c-0.7036,-0.02662 -1.5532,-0.05299 -2.44645,-0.07787c-3.04678,-0.08485 -6.60132,-0.15224 -6.60132,-0.15224z" fill="none" fill-rule="nonzero" stroke="#000000" stroke-width="0" stroke-linecap="butt" stroke-linejoin="miter"/><path d="M304.65818,189.76674v-3.05399h29.35221v3.05399z" fill="#39ddff" fill-rule="nonzero" stroke="none" stroke-width="0" stroke-linecap="butt" stroke-linejoin="miter"/></g></g></svg>