<svg version="1.1" xmlns="http://www.w3.org/2000/svg" xmlns:xlink="http://www.w3.org/1999/xlink" width="213.18203" height="304.34661" viewBox="0,0,213.18203,304.34661"><defs><radialGradient cx="292.55463" cy="142.95565" r="23.48066" gradientUnits="userSpaceOnUse" id="color-1"><stop offset="0" stop-color="#ffffff"/><stop offset="1" stop-color="#ffc0c0"/></radialGradient></defs><g transform="translate(-214.52362,-14.7257)"><g stroke-miterlimit="10"><path d="M214.52362,306.61251v-291.88681h213.18203v291.88681z" fill="none" stroke="none" stroke-width="0" stroke-linecap="butt"/><g stroke-linecap="butt"><path d="M286.35186,319.0723l15.14285,-131.8421l37.78325,-0.15789l13.57389,132z" fill="#9c4209" stroke="#000000" stroke-width="0"/><path d="M294.22844,250.49448c2.47092,-21.51321 7.26628,-63.26425 7.26628,-63.26425l37.78325,-0.15789c0,0 4.38898,42.68081 6.62338,64.40935c0.00164,0.01602 -51.6851,-0.881 -51.6729,-0.98721z" fill="#973007" stroke="#000000" stroke-width="0"/><path d="M295.94368,235.56058c0.72966,-6.35283 1.62173,-14.1196 2.47549,-21.55293c1.60549,-13.9783 3.07554,-26.77743 3.07554,-26.77743l37.78325,-0.15789c0,0 3.09646,30.11173 4.982,48.44774c0.00398,0.0387 -48.33922,0.24027 -48.31628,0.0405z" fill="#7b280f" stroke="#000000" stroke-width="0"/><path d="M297.45003,222.44543c1.6814,-14.63921 4.04468,-35.2152 4.04468,-35.2152l37.78325,-0.15789c0,0 2.07567,20.185 3.56363,34.65471c0.00565,0.05498 -45.40964,0.87585 -45.39156,0.71838z" fill="#671d06" stroke="#000000" stroke-width="0"/><path d="M339.24775,222.58258c0,-0.9665 0.7835,-1.75 1.75,-1.75c0.9665,0 1.75,0.7835 1.75,1.75c0,0.9665 -0.7835,1.75 -1.75,1.75c-0.9665,0 -1.75,-0.7835 -1.75,-1.75z" fill="#671d06" stroke="none" stroke-width="0.5"/><path d="M333.2568,222.7698c0,-0.9665 0.7835,-1.75 1.75,-1.75c0.32998,0 0.63863,0.09133 0.90205,0.25009c0.30847,-0.27217 0.71362,-0.43731 1.15734,-0.43731c0.9665,0 1.75,0.7835 1.75,1.75c0,0.9665 -0.7835,1.75 -1.75,1.75c-0.32998,0 -0.63863,-0.09133 -0.90205,-0.25009c-0.30847,0.27217 -0.71362,0.43731 -1.15734,0.43731c-0.9665,0 -1.75,-0.7835 -1.75,-1.75z" fill="#671d06" stroke="none" stroke-width="0.5"/><path d="M329.51245,222.02092c0,-0.9665 0.7835,-1.75 1.75,-1.75c0.30646,0 0.59453,0.07878 0.84505,0.21718c0.31185,0.12682 0.56095,0.37592 0.68777,0.68777c0.13841,0.25052 0.21718,0.53858 0.21718,0.84505c0,0.34786 -0.10149,0.67201 -0.27648,0.94446c0.05791,0.1739 0.08927,0.35993 0.08927,0.55328c0,0.9665 -0.7835,1.75 -1.75,1.75c-0.9665,0 -1.75,-0.7835 -1.75,-1.75c0,-0.34786 0.10149,-0.67201 0.27648,-0.94446c-0.05791,-0.1739 -0.08927,-0.35993 -0.08927,-0.55328z" fill="#671d06" stroke="none" stroke-width="0.5"/><path d="M314.16064,221.8337c0,-0.9665 0.7835,-1.75 1.75,-1.75c0.19646,0 0.38536,0.03237 0.56165,0.09208c0.17629,-0.0597 0.36519,-0.09208 0.56165,-0.09208c0.9665,0 1.75,0.7835 1.75,1.75c0,0.9665 -0.7835,1.75 -1.75,1.75c-0.19646,0 -0.38536,-0.03237 -0.56165,-0.09208c-0.17629,0.0597 -0.36519,0.09208 -0.56165,0.09208c-0.9665,0 -1.75,-0.7835 -1.75,-1.75z" fill="#671d06" stroke="none" stroke-width="0.5"/><path d="M314.10351,223.14422c0,0.9665 -0.7835,1.75 -1.75,1.75c-0.67613,0 -1.26271,-0.38344 -1.55413,-0.94474c-0.56129,-0.29142 -0.94474,-0.878 -0.94474,-1.55413c0,-0.9665 0.7835,-1.75 1.75,-1.75c0.67613,0 1.26271,0.38344 1.55413,0.94474c0.56129,0.29142 0.94474,0.878 0.94474,1.55413z" fill="#671d06" stroke="none" stroke-width="0.5"/><path d="M324.1482,221.14536c0.37026,0 0.70291,0.16098 0.9318,0.41677c0.20158,-0.74396 0.8815,-1.2912 1.68924,-1.2912c0.9665,0 1.75,0.7835 1.75,1.75c0,0.60801 -0.31007,1.14359 -0.7807,1.45726c-0.15589,0.80676 -0.86588,1.41604 -1.71817,1.41604c-0.79762,0 -1.47061,-0.53362 -1.68144,-1.26333c-0.06219,0.00952 -0.12588,0.01446 -0.19073,0.01446c-0.50469,0 -0.93952,-0.2991 -1.1369,-0.7297c-0.22154,0.71242 -0.88604,1.2297 -1.67135,1.2297c-0.9665,0 -1.75,-0.7835 -1.75,-1.75c0,-0.9665 0.7835,-1.75 1.75,-1.75c0.78532,0 1.44982,0.51728 1.67135,1.2297c0.19739,-0.43061 0.63222,-0.7297 1.1369,-0.7297z" fill="#671d06" stroke="none" stroke-width="0.5"/><path d="M300.24492,236.9983c0,-0.08636 0.00876,-0.17067 0.02543,-0.25209c-0.244,-0.09995 -0.46041,-0.25341 -0.63463,-0.4458c-0.19003,0.76091 -0.87816,1.32459 -1.69793,1.32459c-0.9665,0 -1.75,-0.7835 -1.75,-1.75c0,-0.9665 0.7835,-1.75 1.75,-1.75c0.51461,0 0.97734,0.22212 1.29754,0.57572c0.19003,-0.76091 0.87816,-1.32459 1.69793,-1.32459c0.9665,0 1.75,0.7835 1.75,1.75c0,0.36642 -0.11262,0.70654 -0.30512,0.98763c0.22659,0.22626 0.36677,0.53903 0.36677,0.88454c0,0.69036 -0.55964,1.25 -1.25,1.25c-0.69036,0 -1.25,-0.55964 -1.25,-1.25z" fill="#7b280f" stroke="none" stroke-width="0.5"/><path d="M340.06166,238.06109c-0.59012,0 -1.08473,-0.40893 -1.21592,-0.95887c-0.2891,0.21103 -0.64535,0.33557 -1.03069,0.33557c-0.48169,0 -0.91793,-0.19461 -1.23437,-0.5095c-0.28575,0.20296 -0.63506,0.32229 -1.01224,0.32229c-0.9665,0 -1.75,-0.7835 -1.75,-1.75c0,-0.9665 0.7835,-1.75 1.75,-1.75c0.48169,0 0.91793,0.19461 1.23437,0.5095c0.28575,-0.20296 0.63506,-0.32229 1.01224,-0.32229c0.12633,0 0.24952,0.01339 0.36826,0.03881c0.30481,-0.25781 0.699,-0.41325 1.12948,-0.41325c0.9665,0 1.75,0.7835 1.75,1.75c0,0.0418 -0.00147,0.08326 -0.00435,0.12433c0.31616,-0.45395 0.84191,-0.75102 1.43704,-0.75102c0.9665,0 1.75,0.7835 1.75,1.75c0,0.9665 -0.7835,1.75 -1.75,1.75c-0.56672,0 -1.07052,-0.26939 -1.39034,-0.6871c-0.22368,0.33835 -0.60752,0.56153 -1.04348,0.56153z" fill="#7b280f" stroke="none" stroke-width="0.5"/><path d="M322.71098,236.24943c0,-0.69036 0.55964,-1.25 1.25,-1.25c0.44714,0 0.83944,0.23477 1.06037,0.58777c-0.0014,-0.02871 -0.00211,-0.05759 -0.00211,-0.08664c0,-0.9665 0.7835,-1.75 1.75,-1.75c0.16211,0 0.31907,0.02204 0.46804,0.06329c0.14898,-0.04125 0.30594,-0.06329 0.46804,-0.06329c0.9665,0 1.75,0.7835 1.75,1.75c0,0.67465 -0.38176,1.26013 -0.94105,1.55221c0.00329,0.04382 0.00496,0.08809 0.00496,0.13275c0,0.9665 -0.7835,1.75 -1.75,1.75c-0.9665,0 -1.75,-0.7835 -1.75,-1.75c0,-0.1089 0.00995,-0.21548 0.02898,-0.31888c-0.215,0.37792 -0.62136,0.63279 -1.08724,0.63279c-0.69036,0 -1.25,-0.55964 -1.25,-1.25zM325.23501,236.34304c-0.00852,-0.01549 -0.01682,-0.03112 -0.02488,-0.04689c-0.00139,0.03773 -0.00445,0.07504 -0.0091,0.11184c0.01089,-0.02192 0.02222,-0.04357 0.03399,-0.06495z" fill="#7b280f" stroke="none" stroke-width="0.5"/><path d="M317.28168,239.61935c0,-0.69036 0.55964,-1.25 1.25,-1.25c0.05371,0 0.10663,0.00339 0.15856,0.00996c-0.55842,-0.2774 -0.94764,-0.84428 -0.97133,-1.50432c-0.9369,-0.03363 -1.6861,-0.80375 -1.6861,-1.74886c0,-0.9665 0.7835,-1.75 1.75,-1.75c0.12852,0 0.2538,0.01385 0.37443,0.04015c0.12063,-0.0263 0.24592,-0.04015 0.37443,-0.04015c0.9665,0 1.75,0.7835 1.75,1.75c0,0.04466 -0.00167,0.08893 -0.00496,0.13275c0.55928,0.29208 0.94105,0.87756 0.94105,1.55221c0,0.9665 -0.7835,1.75 -1.75,1.75c-0.1089,0 -0.21548,-0.00995 -0.31888,-0.02898c0.37792,0.215 0.63279,0.62136 0.63279,1.08724c0,0.69036 -0.55964,1.25 -1.25,1.25c-0.69036,0 -1.25,-0.55964 -1.25,-1.25z" fill="#7b280f" stroke="none" stroke-width="0.5"/><path d="M312.10578,237.74717c0,0.69036 -0.55964,1.25 -1.25,1.25c-0.56162,0 -1.03673,-0.37038 -1.1944,-0.88021c-0.15565,0.04536 -0.32026,0.06969 -0.49056,0.06969c-0.9665,0 -1.75,-0.7835 -1.75,-1.75c0,-0.9665 0.7835,-1.75 1.75,-1.75c0.9665,0 1.75,0.7835 1.75,1.75c0,0.0208 -0.00036,0.04151 -0.00108,0.06213c0.66063,0.0333 1.18604,0.57949 1.18604,1.24839z" fill="#7b280f" stroke="none" stroke-width="0.5"/><path d="M310.79073,235.12612c0,-0.9665 0.7835,-1.75 1.75,-1.75c0.9665,0 1.75,0.7835 1.75,1.75c0,0.9665 -0.7835,1.75 -1.75,1.75c-0.9665,0 -1.75,-0.7835 -1.75,-1.75z" fill="#7b280f" stroke="none" stroke-width="0.5"/><path d="M301.3077,249.22793c0.69036,0 1.25,0.55964 1.25,1.25c0,0.69036 -0.55964,1.25 -1.25,1.25c-0.42713,0 -0.80423,-0.21424 -1.02969,-0.54112c-0.22547,0.32688 -0.60256,0.54112 -1.02969,0.54112c-0.03941,0 -0.0784,-0.00182 -0.11688,-0.00539c-0.28467,0.20046 -0.6318,0.31817 -1.00642,0.31817c-0.48169,0 -0.91793,-0.19461 -1.23437,-0.5095c-0.28575,0.20296 -0.63506,0.32229 -1.01224,0.32229c-0.9665,0 -1.75,-0.7835 -1.75,-1.75c0,-0.9665 0.7835,-1.75 1.75,-1.75c0.48169,0 0.91793,0.19461 1.23437,0.5095c0.28575,-0.20296 0.63506,-0.32229 1.01224,-0.32229c0.58223,0 1.09805,0.28433 1.41618,0.72172c0.30389,0.07296 0.56459,0.25692 0.73682,0.50662c0.22547,-0.32688 0.60256,-0.54112 1.02969,-0.54112z" fill="#973007" stroke="none" stroke-width="0.5"/><path d="M342.12105,249.2896c0.80708,0 1.48656,0.54635 1.68875,1.28938c0.22606,-0.10652 0.47861,-0.16608 0.74508,-0.16608c0.9665,0 1.37557,0.7835 1.37557,1.75c0,0.9665 -0.40907,1.75 -1.37557,1.75c-0.80708,0 -1.48656,-0.54635 -1.68875,-1.28938c-0.22606,0.10652 -0.47861,0.16608 -0.74508,0.16608c-0.53493,0 -1.01381,-0.24001 -1.33481,-0.61822c-0.31122,0.48448 -0.85485,0.80544 -1.47345,0.80544c-0.9665,0 -1.75,-0.7835 -1.75,-1.75c0,-0.9665 0.7835,-1.75 1.75,-1.75c0.53493,0 1.01381,0.24001 1.33481,0.61822c0.31122,-0.48448 0.85485,-0.80544 1.47345,-0.80544z" fill="#973007" stroke="none" stroke-width="0.5"/><path d="M335.1335,251.22681c0,0.69036 -0.55964,1.25 -1.25,1.25c-0.03941,0 -0.0784,-0.00182 -0.11688,-0.00539c-0.28467,0.20046 -0.6318,0.31817 -1.00642,0.31817c-0.9665,0 -1.75,-0.7835 -1.75,-1.75c0,-0.65513 0.36,-1.22619 0.89296,-1.52613c0.10216,-0.58761 0.61464,-1.03439 1.23147,-1.03439c0.69036,0 1.25,0.55964 1.25,1.25c0,0.11552 -0.01567,0.22738 -0.045,0.33357c0.46477,0.18224 0.79387,0.63477 0.79387,1.16417z" fill="#973007" stroke="none" stroke-width="0.5"/><path d="M325.58089,251.0396c0,-0.9665 0.7835,-1.75 1.75,-1.75c0.9665,0 1.75,0.7835 1.75,1.75c0,0.9665 -0.7835,1.75 -1.75,1.75c-0.9665,0 -1.75,-0.7835 -1.75,-1.75z" fill="#973007" stroke="none" stroke-width="0.5"/><path d="M318.46664,250.66516c0,-0.9665 0.7835,-1.75 1.75,-1.75c0.34786,0 0.67201,0.10149 0.94446,0.27648c0.1739,-0.05791 0.35993,-0.08927 0.55328,-0.08927c0.9665,0 1.75,0.7835 1.75,1.75c0,0.9665 -0.7835,1.75 -1.75,1.75c-0.34786,0 -0.67201,-0.10149 -0.94446,-0.27648c-0.1739,0.05791 -0.35993,0.08927 -0.55328,0.08927c-0.9665,0 -1.75,-0.7835 -1.75,-1.75z" fill="#973007" stroke="none" stroke-width="0.5"/><path d="M308.48247,251.97568c0,-0.69036 0.55964,-1.25 1.25,-1.25c0.28465,0 0.54708,0.09515 0.75722,0.25537c-0.04775,-0.15934 -0.0734,-0.32823 -0.0734,-0.50311c0,-0.9665 0.7835,-1.75 1.75,-1.75c0.67205,0 1.25562,0.37883 1.54882,0.9346c0.25244,-0.65616 0.88878,-1.12181 1.63387,-1.12181c0.9665,0 1.75,0.7835 1.75,1.75c0,0.9665 -0.7835,1.75 -1.75,1.75c-0.67205,0 -1.25562,-0.37883 -1.54882,-0.9346c-0.25244,0.65616 -0.88878,1.12181 -1.63387,1.12181c-0.46678,0 -0.89087,-0.18275 -1.20463,-0.4806c0.01367,0.07403 0.02081,0.15035 0.02081,0.22834c0,0.69036 -0.55964,1.25 -1.25,1.25c-0.69036,0 -1.25,-0.55964 -1.25,-1.25z" fill="#973007" stroke="none" stroke-width="0.5"/><path d="M304.23813,250.29072c0,-0.9665 0.7835,-1.75 1.75,-1.75c0.9665,0 1.75,0.7835 1.75,1.75c0,0.9665 -0.7835,1.75 -1.75,1.75c-0.9665,0 -1.75,-0.7835 -1.75,-1.75z" fill="#973007" stroke="none" stroke-width="0.5"/><path d="M300.0577,224.82918c0,-0.26433 0.08204,-0.50949 0.22205,-0.71141c-0.10062,-0.05522 -0.19522,-0.12005 -0.28257,-0.19324c-0.30395,0.2547 -0.69572,0.40805 -1.1233,0.40805c-0.9665,0 -1.56278,-0.7835 -1.56278,-1.75c0,-0.9665 0.59628,-1.75 1.56278,-1.75c0.42758,0 0.81935,0.15335 1.1233,0.40805c0.30395,-0.2547 0.69572,-0.40805 1.1233,-0.40805c0.523,0 0.99241,0.22942 1.31309,0.59312c0.02752,-0.02297 0.05576,-0.04512 0.08468,-0.06639c0.31857,-0.43298 0.83172,-0.71394 1.41049,-0.71394c0.9665,0 1.75,0.7835 1.75,1.75c0,0.40843 -0.13992,0.78418 -0.37443,1.08193c-0.09781,0.12418 -0.21207,0.2348 -0.33951,0.32856c-0.31857,0.43298 -0.83172,0.71394 -1.41049,0.71394c-0.523,0 -0.99241,-0.22942 -1.31309,-0.59312c-0.01244,0.01039 -0.02504,0.02061 -0.03777,0.03065c0.21922,0.22519 0.35425,0.53276 0.35425,0.87186c0,0.69036 -0.55964,1.25 -1.25,1.25c-0.06939,0 -0.13746,-0.00565 -0.20377,-0.01653c0.31365,0.22711 0.51768,0.59629 0.51768,1.01313c0,0.69036 -0.55964,1.25 -1.25,1.25c-0.69036,0 -1.25,-0.55964 -1.25,-1.25c0,-0.69036 0.55964,-1.25 1.25,-1.25c0.06939,0 0.13746,0.00565 0.20377,0.01653c-0.31365,-0.22711 -0.51768,-0.59629 -0.51768,-1.01313z" fill="#671d06" stroke="none" stroke-width="0.5"/><path d="M308.29526,224.82918c0,-0.69036 0.55964,-1.25 1.25,-1.25c0.69036,0 1.25,0.55964 1.25,1.25c0,0.69036 -0.55964,1.25 -1.25,1.25c-0.69036,0 -1.25,-0.55964 -1.25,-1.25z" fill="#671d06" stroke="none" stroke-width="0.5"/><path d="M310.72908,227.26301c0,-0.69036 0.55964,-1.25 1.25,-1.25c0.69036,0 1.25,0.55964 1.25,1.25c0,0.69036 -0.55964,1.25 -1.25,1.25c-0.69036,0 -1.25,-0.55964 -1.25,-1.25z" fill="#671d06" stroke="none" stroke-width="0.5"/><path d="M336.19062,226.70135c0,-0.69036 0.55964,-1.25 1.25,-1.25c0.69036,0 1.25,0.55964 1.25,1.25c0,0.69036 -0.55964,1.25 -1.25,1.25c-0.69036,0 -1.25,-0.55964 -1.25,-1.25z" fill="#671d06" stroke="none" stroke-width="0.5"/><path d="M297.06222,240.181c0,-0.69036 0.55964,-1.25 1.25,-1.25c0.69036,0 1.25,0.55964 1.25,1.25c0,0.69036 -0.55964,1.25 -1.25,1.25c-0.69036,0 -1.25,-0.55964 -1.25,-1.25z" fill="#7b280f" stroke="none" stroke-width="0.5"/><path d="M304.92535,235.12612c0,-0.69036 0.55964,-1.25 1.25,-1.25c0.69036,0 1.25,0.55964 1.25,1.25c0,0.69036 -0.55964,1.25 -1.25,1.25c-0.69036,0 -1.25,-0.55964 -1.25,-1.25z" fill="#7b280f" stroke="none" stroke-width="0.5"/><path d="M312.22682,239.61935c0,-0.69036 0.55964,-1.25 1.25,-1.25c0.69036,0 1.25,0.55964 1.25,1.25c0,0.69036 -0.55964,1.25 -1.25,1.25c-0.69036,0 -1.25,-0.55964 -1.25,-1.25z" fill="#7b280f" stroke="none" stroke-width="0.5"/><path d="M332.82071,239.24491c0,-0.69036 0.55964,-1.25 1.25,-1.25c0.69036,0 1.25,0.55964 1.25,1.25c0,0.69036 -0.55964,1.25 -1.25,1.25c-0.69036,0 -1.25,-0.55964 -1.25,-1.25z" fill="#7b280f" stroke="none" stroke-width="0.5"/><path d="M297.43666,255.34559c0,-0.69036 0.55964,-1.25 1.25,-1.25c0.69036,0 1.25,0.55964 1.25,1.25c0,0.69036 -0.55964,1.25 -1.25,1.25c-0.69036,0 -1.25,-0.55964 -1.25,-1.25z" fill="#973007" stroke="none" stroke-width="0.5"/><path d="M313.60351,255.15837c0,0.69036 -0.55964,1.25 -1.25,1.25c-0.39286,0 -0.7434,-0.18124 -0.97255,-0.46467c-0.10914,-0.08824 -0.20313,-0.19448 -0.27745,-0.3142c-0.11868,-0.19119 -0.18722,-0.41676 -0.18722,-0.65835c0,-0.69036 0.55964,-1.25 1.25,-1.25c0.39286,0 0.7434,0.18124 0.97255,0.46467c0.28343,0.22915 0.46467,0.57969 0.46467,0.97255z" fill="#973007" stroke="none" stroke-width="0.5"/><path d="M322.52377,255.90724c0,-0.22676 0.06038,-0.43942 0.16594,-0.62278c-0.01303,0.0004 -0.02612,0.0006 -0.03925,0.0006c-0.69036,0 -1.25,-0.55964 -1.25,-1.25c0,-0.69036 0.55964,-1.25 1.25,-1.25c0.69036,0 1.25,0.55964 1.25,1.25c0,0.22676 -0.06038,0.43942 -0.16594,0.62278c0.01303,-0.0004 0.02612,-0.0006 0.03925,-0.0006c0.69036,0 1.25,0.55964 1.25,1.25c0,0.69036 -0.55964,1.25 -1.25,1.25c-0.69036,0 -1.25,-0.55964 -1.25,-1.25z" fill="#973007" stroke="none" stroke-width="0.5"/><path d="M338.99888,256.6561c0,-0.18187 0.03884,-0.35467 0.10868,-0.51055c-0.29399,-0.22871 -0.48312,-0.58586 -0.48312,-0.98718c0,-0.69036 0.55964,-1.25 1.25,-1.25c0.69036,0 1.25,0.55964 1.25,1.25c0,0.18187 -0.03884,0.35467 -0.10868,0.51055c0.29399,0.22871 0.48312,0.58586 0.48312,0.98718c0,0.69036 -0.55964,1.25 -1.25,1.25c-0.69036,0 -1.25,-0.55964 -1.25,-1.25z" fill="#973007" stroke="none" stroke-width="0.5"/><path d="M297.93666,232.50508c0,-0.41421 0.33579,-0.75 0.75,-0.75c0.41421,0 0.75,0.33579 0.75,0.75c0,0.41421 -0.33579,0.75 -0.75,0.75c-0.41421,0 -0.75,-0.33579 -0.75,-0.75z" fill="#671d06" stroke="none" stroke-width="0.5"/><path d="M305.987,231.38178c0,-0.41421 0.33579,-0.75 0.75,-0.75c0.41421,0 0.75,0.33579 0.75,0.75c0,0.41421 -0.33579,0.75 -0.75,0.75c-0.41421,0 -0.75,-0.33579 -0.75,-0.75z" fill="#671d06" stroke="none" stroke-width="0.5"/><path d="M317.40725,230.4457c0,-0.41421 0.33579,-0.75 0.75,-0.75c0.41421,0 0.75,0.33579 0.75,0.75c0,0.41421 -0.33579,0.75 -0.75,0.75c-0.41421,0 -0.75,-0.33579 -0.75,-0.75z" fill="#671d06" stroke="none" stroke-width="0.5"/><path d="M324.89594,231.00735c0,-0.41421 0.33579,-0.75 0.75,-0.75c0.41421,0 0.75,0.33579 0.75,0.75c0,0.41421 -0.33579,0.75 -0.75,0.75c-0.41421,0 -0.75,-0.33579 -0.75,-0.75z" fill="#671d06" stroke="none" stroke-width="0.5"/><path d="M337.62671,233.8156c0,-0.41421 0.33579,-0.75 0.75,-0.75c0.41421,0 0.75,0.33579 0.75,0.75c0,0.41421 -0.33579,0.75 -0.75,0.75c-0.41421,0 -0.75,-0.33579 -0.75,-0.75z" fill="#671d06" stroke="none" stroke-width="0.5"/><path d="M297.37501,246.35917c0,-0.41421 0.33579,-0.75 0.75,-0.75c0.41421,0 0.75,0.33579 0.75,0.75c0,0.41421 -0.33579,0.75 -0.75,0.75c-0.41421,0 -0.75,-0.33579 -0.75,-0.75z" fill="#7b280f" stroke="none" stroke-width="0.5"/><path d="M302.42987,243.36368c0,-0.41421 0.33579,-0.75 0.75,-0.75c0.41421,0 0.75,0.33579 0.75,0.75c0,0.41421 -0.33579,0.75 -0.75,0.75c-0.41421,0 -0.75,-0.33579 -0.75,-0.75z" fill="#7b280f" stroke="none" stroke-width="0.5"/><path d="M319.0922,245.42308c0,-0.41421 0.33579,-0.75 0.75,-0.75c0.41421,0 0.75,0.33579 0.75,0.75c0,0.41421 -0.33579,0.75 -0.75,0.75c-0.41421,0 -0.75,-0.33579 -0.75,-0.75z" fill="#7b280f" stroke="none" stroke-width="0.5"/><path d="M323.02377,248.23134c0,-0.41421 0.33579,-0.75 0.75,-0.75c0.41421,0 0.75,0.33579 0.75,0.75c0,0.41421 -0.33579,0.75 -0.75,0.75c-0.41421,0 -0.75,-0.33579 -0.75,-0.75z" fill="#7b280f" stroke="none" stroke-width="0.5"/><path d="M334.06958,245.61029c0,-0.41421 0.33579,-0.75 0.75,-0.75c0.41421,0 0.75,0.33579 0.75,0.75c0,0.41421 -0.33579,0.75 -0.75,0.75c-0.41421,0 -0.75,-0.33579 -0.75,-0.75z" fill="#7b280f" stroke="none" stroke-width="0.5"/><path d="M338.18836,247.10803c0,-0.41421 0.33579,-0.75 0.75,-0.75c0.41421,0 0.75,0.33579 0.75,0.75c0,0.41421 -0.33579,0.75 -0.75,0.75c-0.41421,0 -0.75,-0.33579 -0.75,-0.75z" fill="#7b280f" stroke="none" stroke-width="0.5"/><path d="M298.87274,264.70644c0,-0.41421 0.33579,-0.75 0.75,-0.75c0.41421,0 0.75,0.33579 0.75,0.75c0,0.41421 -0.33579,0.75 -0.75,0.75c-0.41421,0 -0.75,-0.33579 -0.75,-0.75z" fill="#973007" stroke="none" stroke-width="0.5"/><path d="M302.24265,260.02601c0,-0.41421 0.33579,-0.75 0.75,-0.75c0.41421,0 0.75,0.33579 0.75,0.75c0,0.41421 -0.33579,0.75 -0.75,0.75c-0.41421,0 -0.75,-0.33579 -0.75,-0.75z" fill="#973007" stroke="none" stroke-width="0.5"/><path d="M313.47569,260.7749c0,-0.41421 0.33579,-0.75 0.75,-0.75c0.41421,0 0.75,0.33579 0.75,0.75c0,0.41421 -0.33579,0.75 -0.75,0.75c-0.41421,0 -0.75,-0.33579 -0.75,-0.75z" fill="#973007" stroke="none" stroke-width="0.5"/><path d="M331.58485,263.02149c0,-0.41421 0.33579,-0.75 0.75,-0.75c0.41421,0 0.75,0.33579 0.75,0.75c0,0.41421 -0.33579,0.75 -0.75,0.75c-0.41421,0 -0.75,-0.33579 -0.75,-0.75z" fill="#973007" stroke="none" stroke-width="0.5"/></g><g stroke-linecap="butt"><path d="M358.9593,100.05713c0.24939,3.55324 -1.45163,6.5673 -3.7993,6.73207c-2.34767,0.16477 -4.45302,-2.58214 -4.70241,-6.13538c-0.24939,-3.55324 1.45162,-6.5673 3.7993,-6.73207c2.34767,-0.16477 4.45302,2.58214 4.70241,6.13538z" fill="#a93232" stroke="none" stroke-width="0"/><path d="M366.27594,108.89537c0.36963,5.26642 -3.4457,9.82451 -8.52176,10.18078c-5.07606,0.35626 -9.49068,-3.6242 -9.86031,-8.89063c-0.36963,-5.26642 3.4457,-9.8245 8.52178,-10.18077c5.07606,-0.35626 9.49067,3.6242 9.8603,8.89062z" fill="#a93232" stroke="none" stroke-width="0"/><path d="M370.81914,117.69735c0.25829,3.68015 -1.33262,6.78985 -3.5534,6.94572c-2.22078,0.15587 -4.23047,-2.70113 -4.48876,-6.38128c-0.25829,-3.68015 1.33262,-6.78985 3.5534,-6.94572c2.22078,-0.15587 4.23047,2.70113 4.48876,6.38128z" fill="#a93232" stroke="none" stroke-width="0"/><path d="M376.8055,127.32168c0.35181,5.01262 -2.75784,9.31441 -6.9456,9.60833c-4.18776,0.29392 -7.8678,-3.53134 -8.21961,-8.54396c-0.35181,-5.01262 2.75783,-9.31441 6.94559,-9.60833c4.18776,-0.29392 7.86781,3.53134 8.21962,8.54396z" fill="#a93232" stroke="none" stroke-width="0"/><path d="M381.07461,138.79835c0.29837,4.2512 -1.36292,7.83106 -3.7106,7.99583c-2.34767,0.16477 -4.49272,-3.14794 -4.79109,-7.39914c-0.29837,-4.2512 1.36292,-7.83107 3.71059,-7.99584c2.34767,-0.16477 4.49273,3.14793 4.7911,7.39915z" fill="#a93232" stroke="none" stroke-width="0"/><path d="M355.34733,94.65339c0.11133,1.58628 -0.82715,2.9444 -2.09617,3.03346c-1.26902,0.08907 -2.38801,-1.12465 -2.49934,-2.71093c-0.11133,-1.58628 0.82715,-2.94441 2.09617,-3.03347c1.26902,-0.08907 2.38801,1.12466 2.49934,2.71094z" fill="#a93232" stroke="none" stroke-width="0"/><path d="M368.2996,111.40877c0.1336,1.90353 -0.58109,3.5044 -1.5963,3.57566c-1.01521,0.07125 -1.94651,-1.4141 -2.08011,-3.31763c-0.1336,-1.90353 0.58109,-3.5044 1.5963,-3.57566c1.01521,-0.07125 1.94651,1.4141 2.08011,3.31763z" fill="#a93232" stroke="none" stroke-width="0"/><path d="M258.69355,144.23388c-2.2284,-31.7503 23.38508,-59.41347 57.20929,-61.78743c13.53028,-0.94963 26.32484,2.29122 36.9499,8.55426c-0.49746,0.71963 -0.98863,1.44228 -1.29423,2.2642c-0.09118,0.24523 -0.68054,1.43706 -0.51319,1.63938c0.14291,0.17276 1.43758,-0.13234 1.69061,-0.15259c3.84992,-0.31177 -0.0297,3.5111 0.71892,5.41819c0.29364,0.74804 2.39943,0.73041 3.07076,0.84727c0.28602,0.04901 0.64432,-0.17265 0.87053,0.00912c0.15497,0.12453 0.12745,2.02381 0.15652,2.32428c0.22471,2.32249 0.44942,4.64497 0.67413,6.96746c0.03505,0.36232 -0.0048,1.96846 0.29111,2.17283c1.08014,0.74598 4.33915,-2.09182 5.30777,-1.46891c0.26068,0.16764 0.54943,2.35257 0.65476,2.75201c0.89218,3.38345 1.80659,6.76196 2.67311,10.15207c0.09597,0.37549 0.27208,1.88697 0.59796,2.08323c0.70362,0.42375 2.9172,-1.78473 3.54879,-2.17916c0.36996,-0.23105 0.6038,-0.98888 1.01054,-0.83134c0.02781,0.01077 0.4076,2.49633 0.47241,2.7604c0.83362,3.39464 1.36596,7.11078 2.64034,10.36357c1.37057,-0.48172 1.59775,-2.24266 2.7472,-2.86287c0.21678,-0.11696 -0.0368,0.49212 -0.02998,0.73835c0.01384,0.4998 0.03025,0.99955 0.04537,1.49931c0.04033,1.33273 0.08066,2.66544 0.12099,3.99817c0.02812,0.92909 -0.40712,4.52444 0.22283,5.16539c0.43781,0.44546 1.49721,0.12483 2.57449,-0.37253c-2.48157,27.97951 -26.4227,50.98054 -57.13187,53.13587c-33.82421,2.37396 -63.05065,-21.44026 -65.27905,-53.19056z" fill="#c8bfb0" stroke="#000000" stroke-width="0"/><path d="M258.69355,144.23388c-2.2284,-31.7503 23.38508,-59.41347 57.20929,-61.78743c13.53028,-0.94963 26.32484,2.29122 36.9499,8.55426c-0.49746,0.71963 -0.98863,1.44228 -1.29423,2.2642c-0.09118,0.24523 -0.68054,1.43706 -0.51319,1.63938c0.14291,0.17276 1.43758,-0.13234 1.69061,-0.15259c3.84992,-0.31177 -0.0297,3.5111 0.71892,5.41819c0.29364,0.74804 2.39943,0.73041 3.07076,0.84727c0.28602,0.04901 0.64432,-0.17265 0.87053,0.00912c0.15497,0.12453 0.12745,2.02381 0.15652,2.32428c0.22471,2.32249 0.44942,4.64497 0.67413,6.96746c0.03505,0.36232 -0.0048,1.96846 0.29111,2.17283c1.08014,0.74598 4.33915,-2.09182 5.30777,-1.46891c0.26068,0.16764 0.54943,2.35257 0.65476,2.75201c0.89218,3.38345 1.80659,6.76196 2.67311,10.15207c0.09597,0.37549 0.27208,1.88697 0.59796,2.08323c0.70362,0.42375 2.9172,-1.78473 3.54879,-2.17916c0.36996,-0.23105 0.6038,-0.98888 1.01054,-0.83134c0.02781,0.01077 0.4076,2.49633 0.47241,2.7604c0.83362,3.39464 1.36596,7.11078 2.64034,10.36357c1.37057,-0.48172 1.59775,-2.24266 2.7472,-2.86287c0.21678,-0.11696 -0.0368,0.49212 -0.02998,0.73835c0.01384,0.4998 0.16132,2.86712 0.17645,3.36689c0.0015,0.04956 -119.44121,8.91997 -119.4466,8.86949c-0.07093,-0.66325 -0.13003,-1.33022 -0.17709,-2.00072z" fill="#9d958a" stroke="#000000" stroke-width="0"/><path d="M261.66832,122.26057c7.63667,-21.65531 28.57253,-38.01304 54.23453,-39.81414c13.53028,-0.94963 26.32484,2.29122 36.9499,8.55426c-0.49746,0.71963 -0.98863,1.44228 -1.29423,2.2642c-0.09118,0.24523 -0.68054,1.43706 -0.51319,1.63938c0.14291,0.17276 1.43758,-0.13234 1.69061,-0.15259c3.84992,-0.31177 -0.0297,3.5111 0.71892,5.41819c0.29364,0.74804 2.39943,0.73041 3.07076,0.84727c0.28602,0.04901 0.64432,-0.17265 0.87053,0.00912c0.15497,0.12453 0.12745,2.02381 0.15652,2.32428c0.22471,2.32249 0.44942,4.64497 0.67413,6.96746c0.03505,0.36232 -0.0048,1.96846 0.29111,2.17283c1.08014,0.74598 4.33915,-2.09182 5.30777,-1.46891c0.26068,0.16764 0.54943,2.35257 0.65476,2.75201c0.0538,0.20401 0.85317,2.44952 0.85317,2.44952c0,0 -103.87391,6.62873 -103.66529,6.03711z" fill="#8e887d" stroke="#000000" stroke-width="0"/><path d="M341.4877,111.48745l0.05399,-0.06508c0.09797,-0.00637 0.19688,-0.01349 0.29663,-0.02126c0.93671,-0.20493 1.91172,-0.23222 2.84293,-0.49525c-1.4158,-0.21195 -2.66756,-0.51725 -3.3406,-0.88744l0.16972,-0.08929c-0.42439,-0.05192 -0.82569,-0.09459 -1.1952,-0.12101c-0.50655,-0.03621 -2.86315,0.14699 -2.40359,-0.96836c0.11943,-0.28984 1.86299,-0.33473 2.17217,-0.3732c0.95185,-0.11841 1.8955,-0.25078 2.83656,-0.39799l-0.39019,-0.16202v0l0.48127,-0.28439c0.0698,-0.0049 0.13984,-0.01028 0.21012,-0.01604c0.35354,-0.11176 0.74521,-0.18624 1.15666,-0.2359c0.00908,-0.04752 0.03052,-0.09904 0.06549,-0.1548c-0.18871,-0.00261 -0.37095,-0.00513 -0.54467,-0.00695c-0.34958,0.03758 -0.70068,0.05382 -0.99659,0.00442c-0.0935,0.00305 -0.1799,0.0072 -0.25839,0.01269l-0.76564,-0.19693c0.21902,-0.0905 0.44625,-0.17152 0.68051,-0.24411l0.05018,-0.05774c0.06481,-0.00454 0.13002,-0.00943 0.19559,-0.01464c0.38591,-0.10794 0.78915,-0.19478 1.20487,-0.26479c1.66696,-0.65138 3.83556,-0.64742 5.53657,-0.52503l0.6564,0.20854c0.46985,-0.00708 0.92719,-0.01819 1.36556,-0.03906c0.09443,-0.00665 0.18834,-0.01171 0.2816,-0.01496c0.07773,-0.00458 0.15479,-0.00953 0.23116,-0.01487c0.18246,-0.01281 0.36492,-0.02561 0.54739,-0.03842c-0.41474,-0.19858 -1.94751,-0.16257 -2.30295,-0.19198c-2.27696,-0.18846 -5.0444,-0.07259 -7.15284,-0.99161l0.69729,-0.32692c0.32829,-0.0726 0.79123,-0.20782 1.30542,-0.34877c-0.20218,-0.02587 -0.40326,-0.06323 -0.60292,-0.11504l0.70769,-0.34398c0.34273,-0.04973 0.84636,-0.17924 1.38243,-0.29906c-2.57935,-0.06884 -5.43753,-0.10278 -7.60864,-1.05133l0.72859,-0.28371c0.33077,-0.02625 0.66133,-0.0555 0.99157,-0.08773c2.3223,-0.22663 4.6446,-0.45326 6.96691,-0.67987c0.05112,-0.00499 0.10531,-0.012 0.1621,-0.02062c-1.70188,-0.05594 -3.46737,-0.16981 -4.8801,-0.85169l0.66901,-0.37798c0.0893,-0.0235 0.19648,-0.04971 0.31806,-0.07744c-0.00811,-0.00092 -0.01622,-0.00187 -0.02432,-0.00281c-0.0793,0.00448 -0.15722,0.00944 -0.23362,0.01497l-0.06318,-0.05457c-0.24017,-0.03621 -0.4751,-0.08232 -0.70295,-0.14089l0.72999,-0.30323c0.07474,-0.00542 0.14998,-0.01149 0.22568,-0.01817c0.34574,-0.12241 0.80504,-0.16223 1.30133,-0.15791c1.24262,-0.18156 2.54252,-0.43282 3.75001,-0.53749c-1.23052,-0.07003 -2.51613,-0.12722 -3.61753,-0.55344l0.73108,-0.28502c0.37945,-0.02688 0.81829,-0.09043 1.28684,-0.16456c-1.87377,0.00023 -3.76059,-0.1052 -5.05813,-0.73575l0.65152,-0.26241c0.58429,-0.24939 2.33493,-0.80731 1.23878,-1.27398l0.07131,-0.0431c-0.3323,-0.32632 -0.26967,-0.90529 -0.01297,-1.53457c-0.72289,0.14326 -1.38252,0.28407 -1.52873,0.30835l-0.77272,-0.08981c0.72018,-0.6369 1.5257,-0.96369 2.38897,-1.37414l0.17034,-0.02357c-0.07868,-0.03751 -0.13544,-0.11515 -0.14198,-0.2083c-0.00433,-0.06172 0.01413,-0.11977 0.04821,-0.16593l0.29342,-0.40293l0.08777,0.06391c0.32213,-0.36607 0.71353,-0.58545 1.22312,-0.90256l0.05018,-0.04815c-1.28546,0.27663 -2.67911,0.61828 -3.19777,0.65667c0,0 -0.24939,0.0175 -0.26689,-0.23188c-0.0175,-0.24939 0.23188,-0.26689 0.23188,-0.26689c1.56563,-0.10304 9.98464,-1.92599 4.79724,0.95363c-0.81891,0.3692 -1.48023,0.46448 -2.34574,0.5297c-0.15784,0.16757 -0.29954,0.34007 -0.40486,0.52839c0.88703,-0.15684 1.73399,-0.21919 1.95346,0.08704c0.07509,0.10478 0.05049,0.35881 -0.01669,0.65907c0.79835,0.10612 1.61665,0.14888 2.02733,0.18156l0.72765,0.26721c-0.90171,0.52284 -1.90258,0.64523 -2.9063,0.79264c-0.07706,0.02449 -0.16081,0.05288 -0.24875,0.08341c-0.02029,0.06348 -0.03632,0.11628 -0.04635,0.15532c0,0 -0.06226,0.24212 -0.30438,0.17986c-0.10703,-0.02752 -0.15457,-0.09018 -0.17433,-0.15155c-0.27829,0.09488 -0.55244,0.17966 -0.7599,0.20996c0.03625,0.23547 -0.43087,0.60688 -0.93674,0.92898c2.22145,-0.24762 5.73886,0.53238 7.34333,0.64142l0.73578,0.20405c-0.65239,0.494 -1.60989,0.70869 -2.62969,0.80764c0.16389,0.02589 0.31112,0.0465 0.43557,0.05823l0.70518,0.29169c-0.59274,0.54305 -1.41244,0.84771 -2.31813,1.02327l0.47446,0.1719c-0.24902,0.09942 -0.50262,0.17423 -0.75956,0.23119l-0.00086,0.00074c-0.00069,-0.00003 -0.00139,-0.00006 -0.00207,-0.0001c-0.67643,0.1496 -1.37605,0.17578 -2.07678,0.20226c1.49947,0.16448 3.17076,0.53136 4.09177,0.60196l0.74568,0.18762c-2.43923,1.28607 -6.13807,1.16846 -9.08447,1.33634c0.1539,0.02919 0.29634,0.05415 0.4207,0.06911c2.14753,0.25848 4.30704,0.37438 6.46469,0.52404l0.72898,0.26605c-0.28299,0.15165 -0.57676,0.27227 -0.8781,0.37043l0.43166,0.09783c-1.09045,0.68699 -2.50209,0.85565 -3.84176,1.0555c0.25874,0.0511 0.50653,0.10669 0.71606,0.13456c1.4645,0.19475 5.97763,-0.04635 7.00006,1.08351c0.04299,-0.00302 0.08598,-0.00603 0.12897,-0.00905c0.57967,-0.04068 1.57343,-0.28175 2.25803,-0.15848c0.07862,-0.00552 0.15722,-0.01103 0.23584,-0.01655l0.76566,0.19688c-0.219,0.09049 -0.44619,0.17151 -0.68043,0.24409l-0.05023,0.05781c-0.06383,0.00448 -0.12767,0.00896 -0.19149,0.01344c-1.52236,0.42656 -3.31487,0.52418 -5.08013,0.55591c-0.48915,0.06573 -0.97858,0.13055 -1.465,0.20763c-0.04395,0.02096 -0.08818,0.04151 -0.13267,0.06166c0.57913,0.09064 1.20557,0.25639 1.69093,0.3099l0.70785,0.22754c-0.24867,0.31551 -0.59947,0.56356 -1.01044,0.76645l0.05154,0.02045c-0.8241,0.5739 -1.75284,0.84282 -2.72378,0.98984c0.87085,0.07189 1.78958,0.27128 2.40253,0.33791l0.72005,0.30274c-0.29907,0.12225 -0.62549,0.21547 -0.97338,0.2844c0.74014,0.08642 1.4692,0.20995 2.17453,0.39671c-0.12014,0.35969 -0.32735,0.65472 -0.59772,0.8991c1.0158,-0.05849 2.03183,-0.11327 3.0478,-0.16986c0.37707,-0.021 1.79364,-0.32005 1.58978,0.63897c-0.0822,0.38668 -2.74883,0.64619 -3.14014,0.71946c-0.94631,0.17718 -1.89261,0.3544 -2.83892,0.53161c1.32285,-0.09495 2.64537,-0.2005 3.97667,-0.15979l0.73913,0.2266c-1.0973,0.76245 -2.47042,1.18057 -3.88129,1.51428l0.66317,0.12236c-0.28132,0.18761 -0.56312,0.33501 -0.85049,0.46586c-0.12451,0.10032 -0.30367,0.15708 -0.46817,0.19997c-0.23148,0.09413 -0.46809,0.18588 -0.7123,0.28668c-0.23425,0.09669 -0.76741,0.2957 -1.0449,0.39565c0.65071,-0.12427 2.57958,0.35763 2.71607,0.97977c0.03705,0.16887 0.00711,0.33048 -0.07098,0.48395c0.02253,0.04881 0.04006,0.10584 0.05205,0.17171c0.10898,0.04298 0.21516,0.08914 0.31832,0.13869l-0.30868,0.16924c-0.1129,0.50333 -1.23875,1.4599 -2.07599,2.15043c0.18123,0.01792 0.36154,0.03765 0.54065,0.05949c1.55868,-0.49309 3.64459,-0.7527 5.20856,-1.10832c0.26312,-0.08087 0.52517,-0.14972 0.78502,-0.20249c0.11449,-0.03416 0.22382,-0.06944 0.32734,-0.10605l0.07925,0.03689c0.24031,-0.03254 0.4782,-0.04922 0.71275,-0.04675l-0.62527,0.48125c-0.05646,0.01997 -0.11303,0.04 -0.16971,0.06008c-0.69675,0.60351 -2.1855,1.11136 -3.48082,1.50162c0.07733,0.0271 0.15395,0.05513 0.22983,0.08412l-0.67613,0.3793c-0.11459,0.02785 -0.22918,0.0557 -0.34377,0.08356l-0.10469,0.08417c-0.14084,0.06325 -0.26659,0.11089 -0.38368,0.14523c-0.70407,0.87505 -1.25316,1.97869 -1.79913,3.02896c0.6341,-0.55084 1.44025,-1.06298 1.86564,-1.40189l0.7564,-0.13755c-0.2252,0.70037 -0.62899,1.08918 -1.12797,1.4712c1.61531,-0.63987 4.28097,-0.92619 5.53337,-1.18253l0.75746,0.16927c-0.69277,0.43484 -1.48622,0.73794 -2.31498,0.98913c0.27907,-0.03259 0.53197,-0.06603 0.74391,-0.10489l0.75975,0.05996c0.62679,-0.09215 1.23266,-0.17576 1.79603,-0.26183l0.75679,0.06218c-0.75694,1.12226 -2.24217,1.69589 -3.42656,2.35129c1.2962,-0.32868 5.27754,-0.44986 4.67632,0.72716c-0.18786,0.36777 -1.11524,0.7307 -2.07884,1.03764c0.78679,0.02462 1.53971,0.11397 2.232,0.30011l-0.21067,0.11309c0.53881,0.00078 1.00199,-0.00144 1.33619,-0.0232l0.71404,0.3337c-0.76487,0.64696 -1.67224,1.13271 -2.60313,1.56868c0.15855,0.03306 0.31531,0.06946 0.47003,0.10952l-0.24665,0.23607c1.70244,-0.12557 3.65496,-0.04114 3.89424,0.51436c0.5177,1.20184 -2.40592,1.7654 -3.03472,1.96783c-0.08574,0.0276 -0.17148,0.0552 -0.25721,0.08281c1.58446,-0.25321 3.17337,-0.52408 4.76574,-0.67577l0.76212,0.13402c-1.14706,1.00829 -2.69712,1.61448 -4.21202,2.15964c1.46204,-0.09829 3.19966,0.01903 4.0325,-0.03856l0.76074,0.16307c-1.72783,1.25027 -4.11897,1.98025 -6.41442,2.6243c0.83223,-0.05826 1.69585,-0.19734 2.50904,-0.15075c0.00275,-0.00053 0.00549,-0.00107 0.00824,-0.0016l0.00371,0.0023c0.26749,0.01594 0.52948,0.05213 0.78305,0.11808l-0.5761,0.30868c0.48947,-0.00101 1.16978,0.01844 1.25578,0.19772c0.1256,0.26183 -0.80036,1.29381 -0.95726,1.5c-0.2003,0.11208 -0.41345,0.22251 -0.63541,0.33263c0.43959,-0.03823 0.94534,-0.03651 1.1207,0.23251c0.1707,0.26187 -0.43686,0.66563 -0.28385,0.90926c0.10056,-0.01611 0.20011,-0.03258 0.29858,-0.04946c0.65709,-0.11264 1.31416,-0.22527 1.97125,-0.33791l0.2075,0.14445c0.19907,-0.03986 0.39264,-0.05367 0.57455,-0.0211l-0.69757,0.36947c-0.27086,0.04643 -0.54172,0.09287 -0.81258,0.13929c-0.45514,0.12541 -0.97235,0.22315 -1.3572,0.23276c-1.62911,0.28111 -3.25389,0.5839 -4.87819,0.89053c0.61877,-0.03096 1.31465,0.0693 1.82094,0.07157c1.50098,0.00673 3.00222,0.00748 4.50335,0.01488c1.42671,-0.117 2.82405,-0.13054 4.10249,0.17968l-0.50447,0.26031c0.12754,0.05111 0.25505,0.10229 0.38256,0.15349l0.62082,0.4174c-1.09602,0.74873 -2.36057,1.3507 -3.67842,1.88497c0.40472,0.03179 0.79866,0.08663 1.17745,0.17083l-0.64537,0.43758c-1.74889,0.5603 -3.51074,0.98886 -5.24626,1.60609c-0.4711,0.16754 -0.94219,0.33508 -1.41329,0.50262c-0.054,0.01921 -0.12807,0.04397 -0.21014,0.07175c0.52814,-0.07303 1.08667,-0.08253 1.4777,-0.11013c0.21792,-0.01537 0.43584,-0.03075 0.65376,-0.04611c2.71983,-0.48731 5.75667,-1.164 8.25922,-0.7506l-0.23688,0.18481c1.112,-0.07962 2.22408,-0.15868 3.33661,-0.22957l0.70681,0.36525c-1.9953,1.43248 -4.53673,2.03132 -6.76239,3.13753c-0.09168,0.06002 -0.18227,0.12096 -0.27204,0.18257c1.44103,-0.23523 3.59096,-0.03484 4.60947,-0.10563c0.34715,-0.02412 1.63719,-0.30166 1.70447,0.36691c0.01222,0.12134 -0.18538,0.30024 -0.46975,0.49338c0.49507,-0.00638 0.97601,0.02165 1.43337,0.09904l-0.64879,0.39458c-0.62155,0.23724 -1.17798,0.49752 -1.75922,0.8214c-5.2903,2.94792 2.47966,0.58686 4.45096,0.74803l-0.59042,0.51134c-0.15722,0.071 -0.32229,0.15257 -0.49323,0.24133c0.4077,-0.17026 0.81745,-0.32452 1.23249,-0.44842l-0.34796,0.68592c-0.00623,0.0054 -0.01246,0.01082 -0.0187,0.01627c0.02625,-0.00021 0.05249,-0.00042 0.07874,-0.00062c0.22169,-0.1395 0.44556,-0.271 0.67146,-0.39078l0.04379,0.38508c0.14345,-0.00115 0.2869,-0.00228 0.43036,-0.00343c-0.02903,-0.39972 0.29065,-1.04469 0.53999,-1.56854l0.37701,-0.64903c0.1932,0.52408 0.19427,1.53795 -0.02844,2.35504l0.2993,0.09325c-0.13205,0.04357 -0.2509,0.07669 -0.35759,0.10028c-0.10194,0.30734 -0.23896,0.57561 -0.41297,0.76297c-0.84001,0.90443 -1.39541,0.31088 -1.3269,-0.58672c-0.02212,0.00018 -0.04425,0.00035 -0.06638,0.00053c-0.47235,0.55385 -1.32473,0.91779 -1.86706,1.32071l-0.70143,0.29656c0.06489,-0.43615 0.23539,-0.78755 0.46893,-1.09572c-0.88189,0.32841 -1.86122,0.54283 -2.42197,0.73261l-0.77363,-0.0001c0.33906,-0.55967 0.82452,-0.97841 1.38095,-1.31968c-0.21945,-0.01109 -0.43887,-0.02291 -0.65826,-0.03512c-0.98309,0.13447 -1.84343,0.15736 -2.17019,-0.01573c-0.06172,-0.03269 -0.11625,-0.06638 -0.1641,-0.10093c-0.48481,-0.00265 -1.2997,-0.01613 -1.39158,-0.20471c-0.27048,-0.55517 1.1063,-1.54815 2.02659,-2.13696c-2.15348,0.38808 -5.31606,0.89198 -6.01771,-0.18709c0.60174,-0.60895 1.21114,-1.12412 1.85883,-1.57542l0.00744,-0.00771c0.01234,-0.00772 0.02485,-0.01555 0.03752,-0.02347c0.30974,-0.21382 0.62835,-0.41328 0.95914,-0.60161c-0.83033,0.08508 -1.69418,0.07691 -2.43607,0.13797c-0.34251,0.02819 -1.6207,0.30962 -1.68311,-0.36007c-0.06912,-0.74173 2.05121,-1.42247 3.17955,-1.7497c-2.09048,0.24741 -4.26082,0.56499 -6.31364,0.5884c-0.25123,0.03861 -0.52516,0.06247 -0.71818,-0.00452c-0.27354,-0.00687 -0.54451,-0.01989 -0.81241,-0.03998l0.40066,-0.64311c0.56328,-0.56132 0.97939,-0.83781 1.71511,-1.13961c0.53465,-0.21932 1.06929,-0.43863 1.60394,-0.65795c-1.11619,-0.00812 -2.13403,-0.04132 -2.71706,-0.00049l-0.7608,-0.16257c0.75861,-0.55148 1.65967,-0.94008 2.6165,-1.25233c-1.08982,0.03921 -2.07138,0.0409 -2.65148,0.08357l-0.7436,-0.1388c0.7705,-0.74599 2.15935,-1.18055 3.70761,-1.46468c-0.73074,0.02594 -1.46179,0.03252 -2.19331,0.00712c-1.49909,-0.05205 -2.9982,-0.1041 -4.49729,-0.15614l-0.7403,-0.24821c1.28827,-0.6635 2.87034,-1.04674 4.50483,-1.31943c0.54799,-0.45326 1.21421,-0.84628 1.90855,-1.20574c-0.86164,0.02541 -1.71882,0.01458 -2.60022,-0.08106c-0.99416,-0.10787 -1.98833,-0.21573 -2.9825,-0.3236l-0.71867,-0.27556c0.60688,-0.39923 1.27447,-0.71508 1.9788,-0.97255c-0.18103,-0.02675 -0.35813,-0.06208 -0.53043,-0.10726l0.64361,-0.43499c0.31671,-0.10396 0.63342,-0.20793 0.95012,-0.31189c0.42115,-0.13825 0.84212,-0.27661 1.26281,-0.41547c-0.21487,-0.12271 -0.33235,-0.27542 -0.30771,-0.46101c0.06309,-0.47518 0.59743,-0.83452 1.27628,-1.11065c-0.6827,0.01603 -1.38451,0.0065 -2.02267,-0.0041c-0.54799,0.05751 -1.05715,0.07746 -1.46364,0.02724c-0.81733,0.01888 -1.52384,0.03214 -1.95444,0.07759l-0.76873,-0.17874c1.09616,-0.59671 2.47409,-0.90709 3.86023,-1.13429c-1.09073,-0.08017 -2.16562,-0.2424 -2.85416,-0.2765c-0.32527,-0.01611 -2.0677,0.07146 -2.21246,-0.24446c-0.24086,-0.52566 0.93438,-1.18313 1.23318,-1.29222c1.56279,-0.5387 3.16249,-1.00567 4.682,-1.64752c-0.23661,-0.02793 -0.47017,-0.06867 -0.69952,-0.12538l0.28592,-0.2394c-2.01645,-0.00195 -4.54201,-0.42298 -5.74768,-0.44768l-0.74866,-0.1974c0.77796,-0.47273 1.68402,-0.80888 2.64798,-1.06507l0.1486,-0.13391c0.1366,-0.06592 0.27445,-0.12899 0.41327,-0.18991c-1.21277,0.0847 -2.42551,0.1697 -3.63825,0.25476l-0.7637,-0.17868c0.66253,-0.37637 1.41427,-0.64478 2.21,-0.84649c-1.17801,0.08268 -2.35603,0.16536 -3.53405,0.24804c-0.16626,0.01167 -0.33251,0.02334 -0.49877,0.03501l-0.76417,-0.18197c1.08083,-0.58177 2.39628,-0.92977 3.76711,-1.18089c-1.3831,0.09552 -2.7661,0.19225 -4.14911,0.28914c-0.66504,0.04659 -1.33007,0.09317 -1.99511,0.13977l-0.73936,-0.10167c0.17385,-0.31965 1.59271,-1.77309 1.59266,-2.01722c-0.00016,-0.70134 -2.52736,-1.9068 -2.25637,-2.74244c0.17623,-0.5434 3.49402,-0.97164 4.06558,-1.11057c0.99392,-0.24159 1.98785,-0.48318 2.98177,-0.72477l0.2288,-0.23602c-0.00249,-0.00041 -0.00499,-0.00081 -0.00748,-0.00122c-0.8755,0.16103 -1.75487,0.25431 -2.62972,0.24487l0.17996,-0.51733c-1.61088,-0.14876 -3.22176,-0.29753 -4.83264,-0.44629l-0.72417,-0.27599c1.95829,-1.11011 4.61997,-1.51317 6.98124,-1.99029c0.02224,-0.01717 0.04457,-0.03423 0.06697,-0.05117c-0.3843,-0.02339 -0.75492,-0.05464 -1.04162,-0.04909c-2.3329,0.04512 -4.66579,0.09025 -6.99869,0.13537c-0.16663,0.00322 -0.33327,0.00645 -0.49991,0.00967l-0.75176,-0.2018c1.84557,-1.18644 4.35079,-1.7598 6.73603,-2.25261c-0.20996,-0.02567 -0.41844,-0.06687 -0.62491,-0.12683l0.645,-0.43076c0.42985,-0.14009 1.06395,-0.38269 1.79049,-0.65198c-1.66634,-0.10668 -3.70962,0.10416 -5.02601,0.02771l-0.73959,-0.22848c0.47082,-0.26949 0.98412,-0.49532 1.52706,-0.68744c-0.18015,-0.04034 -0.35847,-0.08641 -0.53476,-0.1388l0.66289,-0.40715c0.25037,-0.06916 0.51607,-0.13949 0.79293,-0.2089l0.6279,-0.45009c0.48276,-0.10586 1.01758,-0.19207 1.56701,-0.28354c-0.14981,0.01045 -0.2996,0.02091 -0.44941,0.03136l-0.75407,-0.13756c0.34996,-0.36478 0.69378,-0.59151 1.05544,-0.74399c-0.00377,-0.00001 -0.00754,-0.00001 -0.01129,-0.00001c-1.33092,0.0018 -2.66971,0.11112 -4.00341,0.21589c-0.38603,0.06316 -0.76255,0.09922 -1.07348,0.08128c-0.13235,0.00938 -0.2646,0.01841 -0.39676,0.02699l-0.75033,-0.20115c0.21767,-0.09501 0.43938,-0.17061 0.66396,-0.23272zM344.87703,95.10662c0.2974,-0.09332 0.74736,-0.23104 1.25044,-0.36231c0.04459,-0.12828 0.09151,-0.26421 0.13557,-0.39572c-0.62183,-0.11593 -1.19882,-0.26409 -1.53842,-0.44815c-0.03016,0.31246 -0.07239,1.00547 0.0912,1.24318zM350.28497,112.24359c-0.19106,0.08555 -0.39339,0.16077 -0.60358,0.22767c0.25834,-0.0015 0.50759,0.00726 0.74446,0.02794l-0.35342,0.26332c0.87444,-0.1149 1.72026,-0.22944 2.49728,-0.37493c0.5268,-0.09863 1.12697,-0.28044 1.70919,-0.36948c-0.01376,0.00048 -0.02678,0.00107 -0.03898,0.00174c-0.49923,0.02781 -0.99846,0.05561 -1.49767,0.08342c-0.81927,0.04563 -1.63836,0.09126 -2.45726,0.14032zM360.98838,141.29417c-0.71365,0.33615 -1.44118,0.69085 -2.07806,1.09898c1.31166,-0.18577 2.62373,-0.32445 3.81402,-0.50197c0.09611,-0.23102 0.32721,-0.49869 0.22356,-0.70324c-0.04287,-0.08462 -1.16729,0.0599 -1.25786,0.06529c-0.23553,0.01398 -0.46925,0.02794 -0.70168,0.04095zM370.98527,153.21793c-0.22362,0.11593 -0.40094,0.20613 -0.47768,0.25147c-0.58193,0.34388 -1.07261,0.69398 -1.58709,1.13239c-0.31194,0.26582 -1.29767,0.53996 -0.95851,0.77004c0.05282,0.03583 0.33729,0.03334 0.66696,0.0197c-0.05989,-0.51811 0.7315,-1.08219 1.15534,-1.32076c0.4357,-0.24525 0.87355,-0.48677 1.31031,-0.73014c0.10453,-0.05824 0.20837,-0.11451 0.312,-0.16901c-0.12383,0.00958 -0.2408,0.0203 -0.34623,0.0353c-0.02434,0.00346 -0.04938,0.00713 -0.07509,0.011zM350.62912,126.2127c-0.29275,-0.00933 -0.57642,-0.04363 -0.84696,-0.11016l0.4562,-0.33713c-0.31555,0.02558 -0.63054,0.03293 -0.94456,0.0173c-0.41976,0.32836 -0.85842,0.62354 -1.33437,0.84627l0.19285,-0.75046c0.53918,-0.93467 1.2381,-2.7797 2.15293,-3.80747c-0.01036,-0.00102 -0.02076,-0.00212 -0.0312,-0.0033c-1.10854,0.26945 -2.21708,0.53891 -3.32562,0.80835c-0.3741,0.09094 -3.67445,0.67529 -3.70806,0.77895c-0.13291,0.40986 0.64553,0.57499 0.92481,0.9031c0.95035,1.11654 1.68236,2.49105 0.1315,3.29374c0.61044,-0.04276 1.22088,-0.08553 1.83132,-0.12829c2.58579,-0.18114 5.82825,-0.88362 8.59133,-0.70541l0.19361,-0.32818c0.65211,-0.37684 1.484,-1.02287 2.29235,-1.42476c-0.73727,0.12779 -1.46479,0.27382 -2.18957,0.43396c-1.4249,0.66629 -3.44638,0.87676 -4.76837,1.22443l-0.79033,-0.112c0.36148,-0.22503 0.75512,-0.42319 1.17215,-0.59895zM348.11619,119.22023c-1.11787,0.27793 -2.23575,0.55586 -3.35362,0.83378c-0.23,0.05718 -0.50325,0.15386 -0.78724,0.24144c1.33531,0.0727 2.77451,0.09366 4.18272,0.19877c0.64769,-0.54714 1.45781,-1.15992 1.98014,-1.77671c-0.05874,0.01461 -0.11748,0.02921 -0.17621,0.04381c-0.54308,0.32157 -1.15813,0.56693 -1.44638,0.71728l-0.76863,0.1457c0.05516,-0.0795 0.18773,-0.22594 0.36923,-0.40407zM345.46385,93.70243c0.26609,0.09235 0.58959,0.16558 0.93321,0.22433c0.04736,-0.16324 0.07326,-0.28186 0.05821,-0.31045c-0.02991,-0.05684 -0.44659,-0.00629 -0.99141,0.08611zM342.68373,109.46721c0.93594,-0.25751 2.29258,-0.56957 3.59179,-0.78174c-1.04494,0.04616 -2.08488,0.06003 -3.0869,-0.20225l0.1762,-0.14359c-1.76397,0.13563 -3.60839,0.24227 -5.01657,0.74368c-0.16336,0.05817 0.33308,0.11367 0.5064,0.11911c0.49794,0.01562 0.99922,0.07144 1.49618,0.10697c0.77741,0.05558 1.55508,0.10766 2.3329,0.15783zM346.70543,107.95982c0.88371,0.03202 1.76167,0.12036 2.36515,0.19102c0.3385,-0.08285 0.67761,-0.15612 1.01601,-0.21719c-0.55719,-0.0569 -1.05277,-0.10021 -1.52872,-0.22654l-0.02496,0.02873c-0.53306,0.03741 -1.16388,0.13172 -1.82747,0.22399zM349.44843,111.22727c0.11748,0.02903 0.23357,0.06094 0.34812,0.09593l-0.70273,0.34705c-0.26252,0.04256 -0.56344,0.12146 -0.87442,0.20524c0.62932,-0.04391 1.25882,-0.08434 1.88846,-0.12262c0.46614,-0.18632 0.88227,-0.42008 1.2141,-0.72409c-0.45654,0.11557 -1.11116,0.17966 -1.87354,0.19847zM347.72534,116.35085c-1.59014,0.39941 -3.17595,0.81042 -4.74889,1.27935c-0.22636,0.06748 -0.5085,0.17995 -0.81045,0.293c2.42034,-0.169 5.52296,-0.61899 7.83687,-0.10727c0.1636,-0.07229 0.31631,-0.11825 0.44961,-0.12732c0.01775,-0.04935 0.02447,-0.09837 0.01833,-0.14673c-0.07452,-0.58723 -2.67884,-0.37044 -2.80699,-0.91542c-0.02132,-0.09068 0.00246,-0.18328 0.06153,-0.27561zM356.26201,127.31409l-0.58389,0.31398c-0.90071,0.17317 -1.80141,0.34633 -2.70211,0.5195c1.62355,-0.16744 3.23358,-0.23022 4.61748,0.05474c0.22019,-0.08499 0.44038,-0.16999 0.66057,-0.25497c0.11767,-0.04542 1.49092,-0.51214 1.28495,-0.64304c-0.57845,-0.3676 -2.01543,-0.13611 -3.27701,0.00979zM358.33623,132.23194c-1.79351,0.86906 -3.73217,1.41933 -5.62135,2.07054c-0.10251,0.0326 -0.96723,0.55525 -0.94158,0.61122c0.24762,0.54039 1.18895,-0.07604 1.78264,-0.04664c0.92007,0.04556 1.88252,0.01187 2.84708,-0.01577l0.55045,-0.32239c1.10559,-0.35698 2.21168,-0.71243 3.31759,-1.06845c0.32904,-0.10593 2.96959,-0.73491 2.72873,-1.29407c-0.03848,-0.08934 -1.53181,-0.17332 -1.71313,-0.161c-0.95349,0.06476 -1.96263,0.2112 -2.95045,0.22658zM363.91428,136.25768c-0.64171,0.07277 -1.29805,0.14965 -1.95086,0.19926l-0.12284,0.07686c-0.886,0.24711 -2.02623,0.37519 -2.84417,0.78829c-0.1545,0.07803 -1.24203,0.85027 -0.94499,0.93867c0.03921,0.01167 0.0787,0.02254 0.11844,0.03264c1.6575,-0.54876 3.31044,-1.10724 4.95436,-1.69916c0.22162,-0.0798 0.49599,-0.20726 0.79005,-0.33657zM357.25566,139.73252c-0.2098,0.05945 -0.41742,0.12324 -0.62233,0.19213c-0.42163,0.14176 -1.01821,0.43869 -1.58524,0.61124c0.72271,0.07841 1.44543,0.15683 2.16814,0.23524c1.24352,0.13492 2.43705,0.09636 3.66594,0.02833c0.59191,-0.28066 1.16955,-0.54745 1.67814,-0.81658c0.24093,-0.3325 1.01194,-0.53604 0.83435,-0.90627c-0.32394,-0.67529 -1.499,0.04083 -2.24359,0.12164c-1.18794,0.12892 -2.57052,0.43411 -3.8954,0.53427zM357.10588,143.44683c-0.17106,0.03238 -0.34214,0.06474 -0.51322,0.09708c-0.17081,0.03229 -0.37482,0.08598 -0.59556,0.14467c0.54046,0.01877 1.08093,0.03753 1.62139,0.0563c-0.21206,-0.03025 -0.42225,-0.06433 -0.63032,-0.10267zM368.41857,144.30819c-0.30698,-0.12327 -0.61391,-0.24655 -0.9202,-0.37146c-0.12001,0.02057 -0.24003,0.04114 -0.36004,0.06171c-0.44904,0.07696 -0.94263,0.18728 -1.46567,0.31517c0.2583,0.00262 0.51246,0.01512 0.76158,0.03928l-0.62668,0.47207c-0.17253,0.06198 -0.38294,0.14392 -0.62254,0.23972c-0.11012,0.05083 -0.22793,0.09811 -0.35244,0.14208c-0.82029,0.33256 -1.88191,0.77095 -2.9274,1.13437c0.64953,-0.07387 1.30385,-0.13766 1.94788,-0.1696c0.78273,-0.32108 1.56545,-0.64216 2.34818,-0.96324c0.61791,-0.25347 1.48703,-0.79607 2.21734,-0.90012zM365.55464,152.35991c-0.48498,0.34943 -0.9775,0.69314 -1.52883,0.98903c0.34751,0.35482 1.97493,-0.08397 2.50049,-0.14042c1.37081,-0.14726 2.93419,-0.49529 4.44724,-0.659c0.3027,-0.20659 0.62839,-0.40885 0.92772,-0.50258c-0.11278,0.00731 -0.22189,0.01399 -0.28992,0.01928c-0.66458,0.05164 -1.33021,0.09245 -1.99519,0.13866c-1.32453,0.09205 -2.72856,0.29857 -4.06152,0.15503zM367.55027,150.40471c1.22172,-0.69458 2.64933,-1.42378 3.83963,-1.78311c-1.10622,0.0799 -2.21296,0.15369 -3.31933,0.2309c-0.62771,0.18731 -1.25547,0.37443 -1.88319,0.56167c-0.47913,0.14292 -0.95791,0.28711 -1.43742,0.42875c-4.40622,1.30147 0.82106,0.43966 2.80032,0.5618zM359.44653,135.68693c0.12249,-0.00111 0.24417,-0.0003 0.36488,0.00261c0.80746,-0.37667 2.02784,-1.05231 3.1489,-1.53661c-1.24211,0.24186 -2.52831,0.54585 -3.7828,0.71279c0.36914,0.02549 0.73247,0.06494 1.08748,0.12367l-0.51957,0.62743c-0.08861,0.01861 -0.18876,0.04229 -0.2989,0.07012zM352.63046,130.86415c1.84712,-0.03746 3.81797,-0.14451 5.62987,0.07051c0.7321,-0.42956 1.56674,-0.92188 2.28909,-1.17138c-2.09535,0.22016 -4.43592,0.71186 -6.55956,0.77052c-0.31575,0.06711 -0.63082,0.13649 -0.94501,0.2088c-0.1286,0.0296 -0.26827,0.07306 -0.41439,0.12156zM344.8052,114.43794c1.31708,0.07627 2.63416,0.15267 3.95125,0.22898c0.78686,-0.28733 1.6503,-0.58778 2.46512,-0.81649c-1.79385,0.15245 -3.65287,0.4049 -5.41061,0.31132c-0.00989,0.00185 -0.01979,0.0037 -0.02967,0.00555c-0.2718,0.05086 -0.61581,0.164 -0.97608,0.27063zM362.06847,147.51026c0.36091,-0.11146 0.72231,-0.21975 1.08396,-0.32693c-0.06393,0.00267 -0.12813,0.00509 -0.19252,0.00729c-0.29876,0.107 -0.59633,0.21325 -0.89144,0.31966zM347.20849,94.4992c-0.15446,-0.02111 -0.31215,-0.04411 -0.47007,-0.06907c-0.01749,0.05953 -0.03554,0.11902 -0.05379,0.17781c0.17391,-0.03952 0.34971,-0.07637 0.52386,-0.10873zM355.60706,128.89c0.08567,-0.00706 0.17124,-0.01374 0.25668,-0.02002c0.02471,-0.00953 0.04942,-0.01908 0.07413,-0.02861c-0.11023,0.01624 -0.22051,0.03243 -0.33081,0.04863zM376.67003,156.02313c-0.0953,0.00076 -0.1906,0.00152 -0.2859,0.00228c-0.11544,0.71111 0.04272,0.50525 0.2859,-0.00228zM345.87679,92.16793c0.53217,-0.06314 1.00442,-0.17108 1.56565,-0.42352c2.19884,-1.22316 1.05949,-1.14703 -0.65299,-0.8074c0.00369,0.01442 0.00613,0.02936 0.00721,0.04473c0.00294,0.04189 -0.00461,0.08208 -0.02043,0.11802l-0.18982,0.45713l-0.15602,-0.06479c-0.15044,0.24927 -0.34732,0.46791 -0.55361,0.67583zM345.3836,92.14843c-0.04635,0.02638 -0.09325,0.05211 -0.14088,0.07706c0.02796,-0.00203 0.05567,-0.00409 0.08313,-0.00617c0.01923,-0.0239 0.0385,-0.04753 0.05775,-0.0709z" fill="#a93232" stroke="none" stroke-width="0.5"/><path d="M255.51862,145.2787c-2.33156,-33.22013 24.46766,-62.16393 59.85772,-64.64779c11.73782,-0.82382 22.94643,1.36654 32.77076,5.87434c-0.25257,0.30723 -0.49091,0.6272 -0.71082,0.96357c-1.06991,1.64745 -1.54444,3.62969 -0.52972,5.42969c0.42749,0.75832 1.4074,0.95938 1.86995,1.6485c0.2959,0.44084 -0.61555,1.61095 -0.85242,1.98348c-0.37407,0.58898 -1.40194,1.64926 -1.05219,2.39272c0.26347,0.56007 1.68121,0.83367 1.48637,1.58013c-0.17819,0.68267 -1.45245,1.52419 -1.21394,2.28782c0.28364,0.90811 0.21562,1.01099 -0.3461,2.28474c-1.24913,2.53061 -2.91315,8.15735 0.61707,9.64481c1.05647,0.43684 2.42611,0.31521 3.33581,0.67555c0.3784,0.14988 0.01504,1.3963 -0.02215,1.64856c-0.24961,1.69351 -0.28744,3.32937 -0.1726,5.03489c0.16637,2.1885 2.43126,2.7927 3.05516,4.45194c0.31274,0.83172 -0.91919,2.24597 -1.32897,2.95147l-0.0143,0.00622c0.00128,0.00398 0.00257,0.00795 0.00385,0.01193c-0.00345,0.00607 -0.00685,0.01207 -0.01018,0.01802l0.02615,0.03141c0.00396,0.01224 0.00791,0.02449 0.01187,0.03672l-0.04537,0.00163l0.00118,0.03293l-0.01556,0.00109l0.03225,0.45955c0.00555,0.07908 0.04731,0.14698 0.10792,0.18864c-0.11729,0.44383 0.21985,0.58134 0.69416,0.54443c-0.01693,0.03686 -0.02511,0.07837 -0.02207,0.12168c0.0096,0.13682 0.12758,0.24018 0.26416,0.23207l0.49878,-0.02872l-0.01057,-0.18343c0.88585,-0.10228 2.19845,-0.33158 2.28438,-0.26664c0.11433,0.08641 -0.0916,1.50122 -0.14791,1.68138c-0.54897,1.75635 -0.53691,3.11235 -0.38064,4.97032c0.1992,0.30656 0.79036,1.00025 1.10011,1.16265c0.13703,0.07184 1.32128,-0.13265 1.34885,-0.10423c0.06555,0.06756 -1.16684,4.74711 1.88239,8.00328c1.08485,1.15847 2.44877,3.94231 3.87747,4.12904c1.56091,0.20402 4.61843,-0.55897 4.61843,-0.55897c0,0 0.56611,5.82324 2.59261,6.4502c2.11983,0.65583 7.34835,0.10129 7.34835,0.10129c0,0 -4.02493,13.75481 -5.36957,16.92705c-5.72084,11.33541 -16.03048,25.5306 -49.13964,27.47903c-35.41585,2.08417 -65.96949,-22.43281 -68.30106,-55.65294z" fill="#9c4209" stroke="#000000" stroke-width="0"/><path d="M255.51862,145.2787c-2.33156,-33.22013 24.46766,-62.16393 59.85772,-64.64779c11.73782,-0.82382 22.94643,1.36654 32.77076,5.87434c-0.25257,0.30723 -0.49091,0.6272 -0.71082,0.96357c-1.06991,1.64745 -1.54444,3.62969 -0.52972,5.42969c0.42749,0.75832 1.4074,0.95938 1.86995,1.6485c0.2959,0.44084 -0.61555,1.61095 -0.85242,1.98348c-0.37407,0.58898 -1.40194,1.64926 -1.05219,2.39272c0.26347,0.56007 1.68121,0.83367 1.48637,1.58013c-0.17819,0.68267 -1.45245,1.52419 -1.21394,2.28782c0.28364,0.90811 0.21562,1.01099 -0.3461,2.28474c-1.24913,2.53061 -2.91315,8.15735 0.61707,9.64481c1.05647,0.43684 2.42611,0.31521 3.33581,0.67555c0.3784,0.14988 0.01504,1.3963 -0.02215,1.64856c-0.24961,1.69351 -0.28744,3.32937 -0.1726,5.03489c0.16637,2.1885 2.43126,2.7927 3.05516,4.45194c0.31274,0.83172 -0.91919,2.24597 -1.32897,2.95147l-0.0143,0.00622c0.00128,0.00398 0.00257,0.00795 0.00385,0.01193c-0.00345,0.00607 -0.00685,0.01207 -0.01018,0.01802l0.02615,0.03141c0.00396,0.01224 0.00791,0.02449 0.01187,0.03672l-0.04537,0.00163l0.00118,0.03293l-0.01556,0.00109l0.03225,0.45955c0.00555,0.07908 0.04731,0.14698 0.10792,0.18864c-0.11729,0.44383 0.21985,0.58134 0.69416,0.54443c-0.01693,0.03686 -0.02511,0.07837 -0.02207,0.12168c0.0096,0.13682 0.12758,0.24018 0.26416,0.23207l0.49878,-0.02872l-0.01057,-0.18343c0.88585,-0.10228 2.19845,-0.33158 2.28438,-0.26664c0.11433,0.08641 -0.0916,1.50122 -0.14791,1.68138c-0.54897,1.75635 -0.53691,3.11235 -0.38064,4.97032c0.1992,0.30656 0.79036,1.00025 1.10011,1.16265c0.13703,0.07184 1.32128,-0.13265 1.34885,-0.10423c0.06555,0.06757 -1.16684,4.74711 1.88239,8.00328c1.08485,1.15847 2.44876,3.9423 3.87747,4.12904c1.56091,0.20402 4.61843,-0.55898 4.61843,-0.55898c0,0 0.2991,3.0767 1.24075,4.99812c0.23227,0.47395 -110.19039,7.42953 -110.19634,7.41464c-2.13987,-5.34532 -3.49088,-11.08361 -3.91372,-17.10814z" fill="#973007" stroke="#000000" stroke-width="0"/><path d="M255.51862,145.2787c-0.17251,-2.45788 -0.18554,-4.89235 -0.04744,-7.29444c1.72853,-30.06381 27.13353,-55.05327 59.90516,-57.35335c11.73782,-0.82382 22.94643,1.36654 32.77076,5.87434c-0.25257,0.30723 -0.49091,0.6272 -0.71082,0.96357c-1.06991,1.64745 -1.54444,3.62969 -0.52972,5.42969c0.42749,0.75832 1.4074,0.95938 1.86995,1.6485c0.2959,0.44084 -0.61555,1.61095 -0.85242,1.98348c-0.37407,0.58898 -1.40194,1.64926 -1.05219,2.39272c0.26347,0.56007 1.68121,0.83367 1.48637,1.58013c-0.17819,0.68267 -1.45245,1.52419 -1.21394,2.28782c0.28364,0.90811 0.21562,1.01099 -0.3461,2.28474c-1.24913,2.53061 -2.91315,8.15735 0.61707,9.64481c1.05647,0.43684 2.42611,0.31521 3.33581,0.67555c0.3784,0.14988 0.01504,1.3963 -0.02215,1.64856c-0.24961,1.69351 -0.28744,3.32937 -0.1726,5.03489c0.16637,2.1885 2.43126,2.7927 3.05516,4.45194c0.31274,0.83172 -0.91919,2.24597 -1.32897,2.95147l-0.0143,0.00622c0.00128,0.00398 0.00257,0.00795 0.00385,0.01193c-0.00345,0.00607 -0.00685,0.01207 -0.01018,0.01802l0.02615,0.03141c0.00396,0.01224 0.00791,0.02449 0.01187,0.03672l-0.04537,0.00163l0.00118,0.03293l-0.01556,0.00109l0.03225,0.45955c0.00555,0.07908 0.04731,0.14698 0.10792,0.18864c-0.11729,0.44383 0.21985,0.58134 0.69416,0.54443c-0.01693,0.03686 -0.02511,0.07837 -0.02207,0.12168c0.0096,0.13682 0.12758,0.24018 0.26416,0.23207l0.49878,-0.02872l-0.01057,-0.18343c0.88585,-0.10228 2.19845,-0.33158 2.28438,-0.26664c0.11433,0.08641 -0.0916,1.50122 -0.14791,1.68138c-0.54897,1.75635 -0.53691,3.11235 -0.38064,4.97032c0.1992,0.30656 0.79036,1.00025 1.10011,1.16265c0.13703,0.07184 1.32128,-0.13265 1.34885,-0.10423c0.16698,0.17208 -102.49092,6.87917 -102.49101,6.87796z" fill="#7b280f" stroke="#000000" stroke-width="0"/><path d="M259.20849,120.72311c8.43001,-21.87725 29.93966,-38.25135 56.16786,-40.09219c11.73782,-0.82382 22.94643,1.36654 32.77076,5.87434c-0.25257,0.30723 -0.49091,0.6272 -0.71082,0.96357c-1.06991,1.64745 -1.54444,3.62969 -0.52972,5.42969c0.42749,0.75832 1.4074,0.95938 1.86995,1.6485c0.2959,0.44084 -0.61555,1.61095 -0.85242,1.98348c-0.37407,0.58898 -1.40194,1.64926 -1.05219,2.39272c0.26347,0.56007 1.68121,0.83367 1.48637,1.58013c-0.17819,0.68267 -1.45245,1.52419 -1.21394,2.28782c0.28364,0.90811 0.21562,1.01099 -0.3461,2.28474c-1.24913,2.53061 -2.91315,8.15735 0.61707,9.64481c1.05647,0.43684 2.42611,0.31521 3.33581,0.67555c0.0222,0.0088 -91.58706,5.44218 -91.54261,5.32683z" fill="#671d06" stroke="#000000" stroke-width="0"/><path d="M269.13159,144.59961c-0.90793,-12.93619 8.8429,-24.15905 21.77909,-25.06698c12.93619,-0.90793 24.15905,8.84289 25.06698,21.77908c0.90793,12.93619 -8.84289,24.15906 -21.77908,25.06699c-12.93619,0.90793 -24.15906,-8.8429 -25.06699,-21.77909z" fill="url(#color-1)" stroke="#000000" stroke-width="0"/><path d="M258.73646,121.4651c-0.06767,-0.96413 0.65905,-1.80056 1.62318,-1.86823c0.96413,-0.06767 1.80056,0.65905 1.86823,1.62318c0.06767,0.96413 -0.65905,1.80056 -1.62318,1.86823c-0.96413,0.06767 -1.80056,-0.65905 -1.86823,-1.62318z" fill="#671d06" stroke="none" stroke-width="0.5"/><path d="M268.15703,122.86836c-0.00894,-0.12735 0.00153,-0.25156 0.02888,-0.36978c-0.01063,-0.00201 -0.02122,-0.00412 -0.03178,-0.00632c-0.25634,0.08414 -0.45264,0.09792 -0.45264,0.09792c-0.62253,0.04369 -1.43181,0.10049 -2.05434,0.14418c0,0 -0.36079,0.02532 -0.76584,-0.11107c-0.21722,0.121 -0.46379,0.19738 -0.72822,0.21593c-0.96413,0.06767 -1.80056,-0.65905 -1.86823,-1.62318c-0.06767,-0.96413 0.65905,-1.80056 1.62318,-1.86823c0.26443,-0.01856 0.51925,0.02264 0.75124,0.1121c0.38203,-0.19164 0.74281,-0.21696 0.74281,-0.21696c0.62253,-0.04369 1.24505,-0.08738 1.86758,-0.13108l0.18676,-0.01311c0,0 0.19631,-0.01378 0.46189,0.03373c0.14846,-0.05352 0.30669,-0.08768 0.4719,-0.09927c0.96413,-0.06767 1.80056,0.65905 1.86823,1.62318c0.02635,0.37547 -0.06778,0.73156 -0.24948,1.03044c0.35778,0.1983 0.61115,0.56802 0.64192,1.00648c0.04833,0.68867 -0.47075,1.28611 -1.15942,1.33445c-0.68867,0.04833 -1.28611,-0.47075 -1.33445,-1.15942z" fill="#671d06" stroke="none" stroke-width="0.5"/><path d="M280.23123,120.14415c0.04833,0.68867 -0.47075,1.28611 -1.15942,1.33445c-0.47874,0.0336 -0.91341,-0.20702 -1.15015,-0.5882c-0.12358,0.03752 -0.25326,0.06186 -0.38755,0.07129c-0.0461,0.00324 -0.0919,0.00466 -0.13733,0.00432c-0.23027,0.13953 -0.49629,0.22783 -0.78335,0.24797c-0.96413,0.06767 -1.80056,-0.65905 -1.86823,-1.62318c-0.06767,-0.96413 0.65905,-1.80056 1.62318,-1.86823c0.0461,-0.00324 0.0919,-0.00466 0.13733,-0.00432c0.23027,-0.13953 0.49629,-0.22783 0.78335,-0.24797c0.93003,-0.06527 1.74125,0.60865 1.8582,1.52182c0.57757,0.07532 1.04161,0.54858 1.08397,1.15207z" fill="#671d06" stroke="none" stroke-width="0.5"/><path d="M289.68582,118.5422c-0.06767,-0.96413 0.65905,-1.80056 1.62318,-1.86823c0.96413,-0.06767 1.80056,0.65905 1.86823,1.62318c0.06767,0.96413 -0.65905,1.80056 -1.62318,1.86823c-0.96413,0.06767 -1.80056,-0.65905 -1.86823,-1.62318z" fill="#671d06" stroke="none" stroke-width="0.5"/><path d="M296.22234,118.08343c-0.06767,-0.96413 0.65905,-1.80056 1.62318,-1.86823c0.96413,-0.06767 1.80056,0.65905 1.86823,1.62318c0.06767,0.96413 -0.65905,1.80056 -1.62318,1.86823c-0.96413,0.06767 -1.80056,-0.65905 -1.86823,-1.62318z" fill="#671d06" stroke="none" stroke-width="0.5"/><path d="M307.47072,116.97927c0.68867,-0.04833 1.28611,0.47075 1.33445,1.15942c0.04833,0.68867 -0.47075,1.28611 -1.15942,1.33445c-0.29797,0.02091 -0.57885,-0.0644 -0.80558,-0.22371c-0.19606,0.68849 -0.80569,1.21338 -1.56106,1.26639c-0.6949,0.04877 -1.32347,-0.31513 -1.64566,-0.88317c-0.75736,-0.14813 -1.35204,-0.78856 -1.40865,-1.59516c-0.06767,-0.96413 0.65905,-1.80056 1.62318,-1.86823c0.6949,-0.04877 1.32347,0.31513 1.64566,0.88317c0.3829,0.0749 0.72423,0.27562 0.97545,0.56004c0.19944,-0.35318 0.56671,-0.60269 1.0016,-0.63321z" fill="#671d06" stroke="none" stroke-width="0.5"/><path d="M311.41527,117.95549c-0.06767,-0.96413 0.65905,-1.80056 1.62318,-1.86823c0.57735,-0.04052 1.10891,0.20383 1.45701,0.61344c0.45422,0.28747 0.77042,0.77969 0.81094,1.35704c0.06767,0.96413 -0.65905,1.80056 -1.62318,1.86823c-0.57735,0.04052 -1.10891,-0.20383 -1.45701,-0.61344c-0.45422,-0.28747 -0.77042,-0.77969 -0.81094,-1.35704z" fill="#671d06" stroke="none" stroke-width="0.5"/><path d="M325.94664,115.49486c0.54508,-0.03826 1.03302,0.27897 1.23675,0.75439c0.10119,-0.02594 0.20613,-0.04315 0.31405,-0.05072c0.96413,-0.06767 1.80056,0.65905 1.86823,1.62318c0.06767,0.96413 -0.65905,1.80056 -1.62318,1.86823c-0.88501,0.06211 -1.66243,-0.54514 -1.83639,-1.39093c-0.26149,0.44931 -0.71853,0.77505 -1.26332,0.85314c-0.28331,0.47634 -0.78773,0.81064 -1.38247,0.85238c-0.96413,0.06767 -1.80056,-0.65905 -1.86823,-1.62318c-0.06465,-0.9211 0.59578,-1.72566 1.49558,-1.85463c0.28331,-0.47634 0.78773,-0.81064 1.38247,-0.85238c0.31858,-0.02236 0.62321,0.04202 0.89078,0.17303c0.20447,-0.19983 0.4782,-0.33091 0.78573,-0.3525z" fill="#671d06" stroke="none" stroke-width="0.5"/><path d="M346.19233,119.64357c-0.0399,-0.56849 0.30688,-1.07483 0.81652,-1.26142c-0.08313,-0.07648 -0.15602,-0.16422 -0.21614,-0.26102c-0.12358,0.03752 -0.25326,0.06186 -0.38755,0.07129c-0.30116,0.02114 -0.58986,-0.03524 -0.84657,-0.15215c-0.09283,0.02222 -0.18872,0.03713 -0.28708,0.04404c-0.83729,0.05877 -1.57827,-0.48159 -1.80307,-1.25626c-0.18379,0.7076 -0.8021,1.25143 -1.57168,1.30544c-0.63346,0.04446 -1.2118,-0.25401 -1.55318,-0.73743c-0.27051,0.52636 -0.80149,0.90269 -1.43495,0.94715c-0.96413,0.06767 -1.80056,-0.65905 -1.86823,-1.62318c-0.06767,-0.96413 0.65905,-1.80056 1.62318,-1.86823c0.63346,-0.04446 1.2118,0.25401 1.55318,0.73743c0.27051,-0.52636 0.80149,-0.90269 1.43495,-0.94715c0.83729,-0.05877 1.57827,0.48159 1.80307,1.25626c0.18379,-0.7076 0.8021,-1.25143 1.57168,-1.30544c0.30116,-0.02114 0.58986,0.03524 0.84657,0.15215c0.09283,-0.02222 0.18872,-0.03713 0.28708,-0.04404c0.77919,-0.05469 1.47499,0.4095 1.74896,1.09853c0.26109,-0.19725 0.58043,-0.32362 0.93118,-0.34824c0.96413,-0.06767 1.80056,0.65905 1.86823,1.62318c0.06767,0.96413 -0.65905,1.80056 -1.62318,1.86823c-0.20528,0.01441 -0.40477,-0.0072 -0.59227,-0.05944c0.10893,0.17027 0.17801,0.36944 0.19316,0.58528c0.04833,0.68867 -0.47075,1.28611 -1.15942,1.33445c-0.68867,0.04833 -1.28611,-0.47075 -1.33445,-1.15942z" fill="#671d06" stroke="none" stroke-width="0.5"/><path d="M333.30525,116.98217c-0.06767,-0.96413 0.65905,-1.80056 1.62318,-1.86823c0.96413,-0.06767 1.80056,0.65905 1.86823,1.62318c0.06767,0.96413 -0.65905,1.80056 -1.62318,1.86823c-0.96413,0.06767 -1.80056,-0.65905 -1.86823,-1.62318z" fill="#671d06" stroke="none" stroke-width="0.5"/><path d="M280.90821,119.15826c-0.06767,-0.96413 0.65905,-1.80056 1.62318,-1.86823c0.96413,-0.06767 1.80056,0.65905 1.86823,1.62318c0.06767,0.96413 -0.65905,1.80056 -1.62318,1.86823c-0.96413,0.06767 -1.80056,-0.65905 -1.86823,-1.62318z" fill="#671d06" stroke="none" stroke-width="0.5"/><path d="M270.67585,120.43945c-0.06767,-0.96413 0.65905,-1.80056 1.62318,-1.86823c0.96413,-0.06767 1.80056,0.65905 1.86823,1.62318c0.06767,0.96413 -0.65905,1.80056 -1.62318,1.86823c-0.96413,0.06767 -1.80056,-0.65905 -1.86823,-1.62318z" fill="#671d06" stroke="none" stroke-width="0.5"/><path d="M351.39151,139.36018c-0.06767,-0.96413 0.65905,-1.80056 1.62318,-1.86823c0.09837,-0.0069 0.1954,-0.00553 0.29042,0.00351c0.23786,-0.15163 0.51586,-0.24777 0.81702,-0.26891c0.96413,-0.06767 1.80056,0.65905 1.86823,1.62318c0.06767,0.96413 -0.65905,1.80056 -1.62318,1.86823c-0.09837,0.0069 -0.1954,0.00553 -0.29042,-0.00351c-0.23786,0.15163 -0.51586,0.24777 -0.81702,0.26891c-0.96413,0.06767 -1.80056,-0.65905 -1.86823,-1.62318z" fill="#7b280f" stroke="none" stroke-width="0.5"/><path d="M343.5255,140.4753c-0.04833,-0.68867 0.47075,-1.28611 1.15942,-1.33445c0.21,-0.01474 0.41153,0.02328 0.59159,0.10279c0.17933,-0.71427 0.80064,-1.26478 1.57518,-1.31914c0.42653,-0.02994 0.82808,0.09561 1.14911,0.3284c0.28537,-0.27536 0.66544,-0.45576 1.09197,-0.48569c0.96413,-0.06767 1.80056,0.65905 1.86823,1.62318c0.06767,0.96413 -0.65905,1.80056 -1.62318,1.86823c-0.42653,0.02994 -0.82808,-0.09561 -1.14911,-0.3284c-0.28537,0.27536 -0.66544,0.45576 -1.09197,0.48569c-0.46909,0.03292 -0.90793,-0.1222 -1.24273,-0.40122c-0.20109,0.34619 -0.5646,0.58987 -0.99405,0.62001c-0.68867,0.04833 -1.28611,-0.47075 -1.33445,-1.15942z" fill="#7b280f" stroke="none" stroke-width="0.5"/><path d="M342.37596,141.86972c0.04833,0.68867 -0.47075,1.28611 -1.15942,1.33445c-0.67279,0.04722 -1.25852,-0.44712 -1.33023,-1.11208c-0.0802,0.01721 -0.16259,0.02898 -0.24678,0.03489c-0.96413,0.06767 -1.80056,-0.65905 -1.86823,-1.62318c-0.06767,-0.96413 0.65905,-1.80056 1.62318,-1.86823c0.96413,-0.06767 1.80056,0.65905 1.86823,1.62318c0.01089,0.15516 0.00121,0.30701 -0.02673,0.45288c0.60333,0.05105 1.09627,0.5352 1.13999,1.15808z" fill="#7b280f" stroke="none" stroke-width="0.5"/><path d="M329.67595,143.69946c-0.02621,-0.37343 0.11443,-0.72004 0.35847,-0.96682c-0.15075,0.05517 -0.31168,0.09035 -0.47983,0.10215c-0.5674,0.03982 -1.09059,-0.19549 -1.43887,-0.59242c-0.18373,0.13464 -0.40645,0.22071 -0.65047,0.23784c-0.68867,0.04833 -1.28611,-0.47075 -1.33445,-1.15942c-0.00018,-0.00258 -0.00035,-0.00516 -0.00052,-0.00773c-0.3664,-0.08188 -0.69225,-0.27948 -0.93389,-0.55489c-0.18373,0.13464 -0.40645,0.22071 -0.65047,0.23784c-0.68867,0.04833 -1.28611,-0.47075 -1.33445,-1.15942c-0.04833,-0.68867 0.47075,-1.28611 1.15942,-1.33445c0.24401,-0.01713 0.47658,0.03698 0.67732,0.14464c0.28942,-0.44169 0.77461,-0.74778 1.34201,-0.7876c0.96413,-0.06767 1.80056,0.65905 1.86823,1.62318c0.00747,0.10647 0.00525,0.21138 -0.0059,0.31387c0.28112,-0.25682 0.64766,-0.42413 1.057,-0.45285c0.63346,-0.04446 1.2118,0.25401 1.55318,0.73743c0.27051,-0.52636 0.80149,-0.90269 1.43495,-0.94715c0.96413,-0.06767 1.80056,0.65905 1.86823,1.62318c0.06767,0.96413 -0.65905,1.80056 -1.62318,1.86823c-0.63346,0.04446 -1.2118,-0.25401 -1.55318,-0.73743c-0.10201,0.19851 -0.24108,0.37567 -0.40871,0.52175c0.08153,-0.02311 0.16665,-0.03821 0.25454,-0.04438c0.68867,-0.04833 1.28611,0.47075 1.33445,1.15942c0.04833,0.68867 -0.47075,1.28611 -1.15942,1.33445c-0.68867,0.04833 -1.28611,-0.47075 -1.33445,-1.15942z" fill="#7b280f" stroke="none" stroke-width="0.5"/><path d="M263.52717,143.33551c0.02985,-0.00209 0.05952,-0.00312 0.08898,-0.00312c0.19733,-0.09702 0.41637,-0.15822 0.64926,-0.17457c0.96413,-0.06767 1.80056,0.65905 1.86823,1.62318c0.06767,0.96413 -0.65905,1.80056 -1.62318,1.86823c-0.81079,0.05691 -1.53126,-0.44798 -1.78017,-1.18341c-0.18742,-0.18747 -0.31631,-0.435 -0.35415,-0.71434c0.02233,0.92919 -0.69031,1.72063 -1.62704,1.78638c-0.3388,0.02378 -0.66182,-0.05054 -0.94126,-0.19878c-0.12614,0.07677 -0.26737,0.13199 -0.41893,0.16018c0.12096,0.17703 0.19795,0.38754 0.21404,0.61686c0.04833,0.68867 -0.47075,1.28611 -1.15942,1.33445c-0.68867,0.04833 -1.28611,-0.47075 -1.33445,-1.15942c-0.00298,-0.04251 -0.00381,-0.08467 -0.00255,-0.12638c-0.91244,0.00203 -1.683,-0.70378 -1.74784,-1.62754c-0.06767,-0.96413 0.65905,-1.80056 1.62318,-1.86823c0.5674,-0.03982 1.09059,0.19549 1.43887,0.59242c0.17925,-0.13135 0.3956,-0.21648 0.63264,-0.23645c0.2653,-0.54274 0.8047,-0.93319 1.45068,-0.97853c0.93674,-0.06575 1.75294,0.61841 1.86062,1.5416c-0.00357,-0.65352 0.5013,-1.20614 1.16252,-1.25255z" fill="#7b280f" stroke="none" stroke-width="0.5"/><path d="M263.19089,159.93656c0.96413,-0.06767 1.80056,0.65905 1.86823,1.62318c0.06767,0.96413 -0.65905,1.80056 -1.62318,1.86823c-0.62998,0.04422 -1.20543,-0.25074 -1.54753,-0.72947c-0.25894,0.1923 -0.57404,0.31534 -0.91965,0.3396c-0.96413,0.06767 -1.80056,-0.65905 -1.86823,-1.62318c-0.06767,-0.96413 0.65905,-1.80056 1.62318,-1.86823c0.62998,-0.04422 1.20543,0.25074 1.54753,0.72947c0.25894,-0.1923 0.57404,-0.31534 0.91965,-0.3396z" fill="#973007" stroke="none" stroke-width="0.5"/><path d="M366.24384,155.77181c-0.06767,-0.96413 0.65905,-1.80056 1.62318,-1.86823c0.96413,-0.06767 1.80056,0.65905 1.86823,1.62318c0.06767,0.96413 -0.65905,1.80056 -1.62318,1.86823c-0.96413,0.06767 -1.80056,-0.65905 -1.86823,-1.62318z" fill="#973007" stroke="none" stroke-width="0.5"/><path d="M354.94661,155.25096c-0.06767,-0.96413 0.65905,-1.80056 1.62318,-1.86823c0.96413,-0.06767 1.80056,0.65905 1.86823,1.62318c0.06767,0.96413 -0.65905,1.80056 -1.62318,1.86823c-0.96413,0.06767 -1.80056,-0.65905 -1.86823,-1.62318z" fill="#973007" stroke="none" stroke-width="0.5"/><path d="M351.75941,158.85286c-0.00245,-0.03495 -0.00345,-0.06967 -0.00303,-0.10409c-0.44156,-0.28944 -0.74755,-0.77455 -0.78737,-1.34186c-0.06767,-0.96413 0.65905,-1.80056 1.62318,-1.86823c0.96413,-0.06767 1.80056,0.65905 1.86823,1.62318c0.02885,0.4111 -0.08672,0.79898 -0.30355,1.11396c0.05292,0.1244 0.08641,0.25958 0.0964,0.40201c0.04833,0.68867 -0.47075,1.28611 -1.15942,1.33445c-0.68867,0.04833 -1.28611,-0.47075 -1.33445,-1.15942z" fill="#973007" stroke="none" stroke-width="0.5"/><path d="M345.66115,156.65337c-0.06767,-0.96413 0.65905,-1.80056 1.62318,-1.86823c0.96413,-0.06767 1.80056,0.65905 1.86823,1.62318c0.06767,0.96413 -0.65905,1.80056 -1.62318,1.86823c-0.96413,0.06767 -1.80056,-0.65905 -1.86823,-1.62318z" fill="#973007" stroke="none" stroke-width="0.5"/><path d="M336.65746,156.72226c-0.06767,-0.96413 0.65905,-1.80056 1.62318,-1.86823c0.96413,-0.06767 1.80056,0.65905 1.86823,1.62318c0.06767,0.96413 -0.65905,1.80056 -1.62318,1.86823c-0.96413,0.06767 -1.80056,-0.65905 -1.86823,-1.62318z" fill="#973007" stroke="none" stroke-width="0.5"/><path d="M328.87917,158.20658c-0.06767,-0.96413 0.65905,-1.80056 1.62318,-1.86823c0.96413,-0.06767 1.80056,0.65905 1.86823,1.62318c0.06767,0.96413 -0.65905,1.80056 -1.62318,1.86823c-0.96413,0.06767 -1.80056,-0.65905 -1.86823,-1.62318z" fill="#973007" stroke="none" stroke-width="0.5"/><path d="M320.97384,158.76141c-0.04833,-0.68867 0.47075,-1.28611 1.15942,-1.33445c0.05522,-0.00388 0.10985,-0.0041 0.16367,-0.00089c0.26338,-0.54838 0.80566,-0.94373 1.45593,-0.98937c0.96413,-0.06767 1.80056,0.65905 1.86823,1.62318c0.06767,0.96413 -0.65905,1.80056 -1.62318,1.86823c-0.3761,0.0264 -0.73279,-0.06809 -1.03197,-0.25041c-0.1851,0.13768 -0.41044,0.22578 -0.65764,0.24313c-0.68867,0.04833 -1.28611,-0.47075 -1.33445,-1.15942z" fill="#973007" stroke="none" stroke-width="0.5"/><path d="M275.85758,162.11559c0.04833,0.68867 -0.47075,1.28611 -1.15942,1.33445c-0.61106,0.04289 -1.15029,-0.36096 -1.29784,-0.93362c-0.1211,-0.01179 -0.23892,-0.03605 -0.35204,-0.07155c-0.22436,0.63885 -0.81094,1.11608 -1.52932,1.1665c-0.41529,0.02915 -0.80688,-0.0891 -1.12356,-0.31021c-0.20948,0.29024 -0.54148,0.48887 -0.92646,0.51589c-0.37003,0.02597 -0.71372,-0.11187 -0.96005,-0.35183c-0.21963,0.12423 -0.46971,0.20269 -0.73819,0.22154c-0.96413,0.06767 -1.80056,-0.65905 -1.86823,-1.62318c-0.06767,-0.96413 0.65905,-1.80056 1.62318,-1.86823c0.79041,-0.05547 1.49499,0.42296 1.76052,1.1284c0.00257,-0.0002 0.00516,-0.00038 0.00773,-0.00056c0.14728,-0.01034 0.29038,0.00528 0.42484,0.04295c0.20214,-0.67853 0.80722,-1.19368 1.55517,-1.24618c0.2251,-0.0158 0.44323,0.01171 0.64624,0.07542c0.22436,-0.63885 0.81094,-1.11608 1.52932,-1.1665c0.96413,-0.06767 1.80056,0.65905 1.86823,1.62318c0.01198,0.17071 -0.00094,0.33741 -0.03568,0.49656c0.32246,0.20567 0.54672,0.55615 0.57555,0.96698z" fill="#973007" stroke="none" stroke-width="0.5"/><path d="M259.29752,124.99159c-0.04833,-0.68867 0.47075,-1.28611 1.15942,-1.33445c0.68867,-0.04833 1.28611,0.47075 1.33445,1.15942c0.04833,0.68867 -0.47075,1.28611 -1.15942,1.33445c-0.68867,0.04833 -1.28611,-0.47075 -1.33445,-1.15942z" fill="#671d06" stroke="none" stroke-width="0.5"/><path d="M273.0357,125.5288c-0.04833,-0.68867 0.47075,-1.28611 1.15942,-1.33445c0.68867,-0.04833 1.28611,0.47075 1.33445,1.15942c0.04833,0.68867 -0.47075,1.28611 -1.15942,1.33445c-0.68867,0.04833 -1.28611,-0.47075 -1.33445,-1.15942z" fill="#671d06" stroke="none" stroke-width="0.5"/><path d="M311.02944,121.36077c-0.04833,-0.68867 0.47075,-1.28611 1.15942,-1.33445c0.68867,-0.04833 1.28611,0.47075 1.33445,1.15942c0.04833,0.68867 -0.47075,1.28611 -1.15942,1.33445c-0.68867,0.04833 -1.28611,-0.47075 -1.33445,-1.15942z" fill="#671d06" stroke="none" stroke-width="0.5"/><path d="M317.01554,123.7558c-0.04833,-0.68867 0.47075,-1.28611 1.15942,-1.33445c0.68867,-0.04833 1.28611,0.47075 1.33445,1.15942c0.04833,0.68867 -0.47075,1.28611 -1.15942,1.33445c-0.68867,0.04833 -1.28611,-0.47075 -1.33445,-1.15942z" fill="#671d06" stroke="none" stroke-width="0.5"/><path d="M330.06887,117.20932c-0.04833,-0.68867 0.47075,-1.28611 1.15942,-1.33445c0.68867,-0.04833 1.28611,0.47075 1.33445,1.15942c0.04833,0.68867 -0.47075,1.28611 -1.15942,1.33445c-0.68867,0.04833 -1.28611,-0.47075 -1.33445,-1.15942z" fill="#671d06" stroke="none" stroke-width="0.5"/><path d="M335.72079,120.19082c-0.04833,-0.68867 0.47075,-1.28611 1.15942,-1.33445c0.68867,-0.04833 1.28611,0.47075 1.33445,1.15942c0.04833,0.68867 -0.47075,1.28611 -1.15942,1.33445c-0.68867,0.04833 -1.28611,-0.47075 -1.33445,-1.15942z" fill="#671d06" stroke="none" stroke-width="0.5"/><path d="M338.45336,121.68815c-0.04833,-0.68867 0.47075,-1.28611 1.15942,-1.33445c0.68867,-0.04833 1.28611,0.47075 1.33445,1.15942c0.04833,0.68867 -0.47075,1.28611 -1.15942,1.33445c-0.68867,0.04833 -1.28611,-0.47075 -1.33445,-1.15942z" fill="#671d06" stroke="none" stroke-width="0.5"/><path d="M266.08655,146.84876c-0.04833,-0.68867 0.47075,-1.28611 1.15942,-1.33445c0.68867,-0.04833 1.28611,0.47075 1.33445,1.15942c0.04833,0.68867 -0.47075,1.28611 -1.15942,1.33445c-0.68867,0.04833 -1.28611,-0.47075 -1.33445,-1.15942z" fill="#7b280f" stroke="none" stroke-width="0.5"/><path d="M318.11333,142.07118c-0.04833,-0.68867 0.47075,-1.28611 1.15942,-1.33445c0.02498,-0.00175 0.04985,-0.00276 0.07456,-0.00304c0.2224,-0.6426 0.81074,-1.12336 1.53193,-1.17398c0.96413,-0.06767 1.80056,0.65905 1.86823,1.62318c0.06767,0.96413 -0.65905,1.80056 -1.62318,1.86823c-0.31858,0.02236 -0.62321,-0.04202 -0.89078,-0.17303c-0.17227,0.16835 -0.39369,0.28792 -0.64306,0.33431c0.12096,0.17703 0.19795,0.38754 0.21404,0.61686c0.04833,0.68867 -0.47075,1.28611 -1.15942,1.33445c-0.68867,0.04833 -1.28611,-0.47075 -1.33445,-1.15942c-0.04493,-0.64023 0.40053,-1.20161 1.01675,-1.31626c-0.12096,-0.17703 -0.19795,-0.38754 -0.21404,-0.61686z" fill="#7b280f" stroke="none" stroke-width="0.5"/><path d="M332.76894,144.9838c-0.04833,-0.68867 0.47075,-1.28611 1.15942,-1.33445c0.68867,-0.04833 1.28611,0.47075 1.33445,1.15942c0.04833,0.68867 -0.47075,1.28611 -1.15942,1.33445c-0.68867,0.04833 -1.28611,-0.47075 -1.33445,-1.15942z" fill="#7b280f" stroke="none" stroke-width="0.5"/><path d="M355.03649,144.92237c-0.029,-0.41319 0.28246,-0.77167 0.69565,-0.80067c0.07203,-0.00506 0.14241,0.00024 0.20966,0.01461c-0.10626,-0.16865 -0.1736,-0.36523 -0.18853,-0.57799c-0.04833,-0.68867 0.47075,-1.28611 1.15942,-1.33445c0.68867,-0.04833 1.28611,0.47075 1.33445,1.15942c0.04833,0.68867 -0.47075,1.28611 -1.15942,1.33445c-0.21276,0.01493 -0.41681,-0.0243 -0.59866,-0.10595c0.02363,0.06458 0.03869,0.13353 0.04375,0.20556c0.029,0.41319 -0.28246,0.77167 -0.69565,0.80067c-0.41319,0.029 -0.77167,-0.28246 -0.80067,-0.69565z" fill="#7b280f" stroke="none" stroke-width="0.5"/><path d="M262.58094,166.42562c-0.04833,-0.68867 0.47075,-1.28611 1.15942,-1.33445c0.68867,-0.04833 1.28611,0.47075 1.33445,1.15942c0.04833,0.68867 -0.47075,1.28611 -1.15942,1.33445c-0.68867,0.04833 -1.28611,-0.47075 -1.33445,-1.15942z" fill="#973007" stroke="none" stroke-width="0.5"/><path d="M275.53276,166.45497c-0.04833,-0.68867 0.47075,-1.28611 1.15942,-1.33445c0.68867,-0.04833 1.28611,0.47075 1.33445,1.15942c0.04833,0.68867 -0.47075,1.28611 -1.15942,1.33445c-0.68867,0.04833 -1.28611,-0.47075 -1.33445,-1.15942z" fill="#973007" stroke="none" stroke-width="0.5"/><path d="M320.46647,158.60934c0.04833,0.68867 -0.47075,1.28611 -1.15942,1.33445c-0.12327,0.00865 -0.24361,-0.00088 -0.35841,-0.0263c-0.22326,0.12925 -0.47867,0.21093 -0.75335,0.23021c-0.28327,0.01988 -0.55552,-0.02882 -0.80048,-0.13195c-0.29167,0.01384 -0.57073,-0.04486 -0.81924,-0.16051c0.15516,0.19213 0.25511,0.43205 0.27371,0.69709c0.04833,0.68867 -0.47075,1.28611 -1.15942,1.33445c-0.31485,0.0221 -0.61064,-0.07441 -0.8436,-0.2515c-0.04982,0.60458 -0.53449,1.09894 -1.15831,1.14272c-0.68867,0.04833 -1.28611,-0.47075 -1.33445,-1.15942c-0.04833,-0.68867 0.47075,-1.28611 1.15942,-1.33445c0.31485,-0.0221 0.61064,0.07441 0.8436,0.2515c0.01016,-0.12334 0.03842,-0.24209 0.08228,-0.35338c-0.79412,-0.11815 -1.42795,-0.77453 -1.48649,-1.60855c-0.06767,-0.96413 0.65905,-1.80056 1.62318,-1.86823c0.52032,-0.03652 1.00346,0.15833 1.34863,0.49701c0.29448,-0.38357 0.74566,-0.644 1.26598,-0.68052c0.28327,-0.01988 0.55552,0.02882 0.80048,0.13195c0.66139,-0.03138 1.25797,0.31026 1.5804,0.84302c0.48729,0.14279 0.85784,0.5762 0.89547,1.11242z" fill="#973007" stroke="none" stroke-width="0.5"/><path d="M334.11857,162.40378c0.68867,-0.04833 1.28611,0.47075 1.33445,1.15942c0.04833,0.68867 -0.47075,1.28611 -1.15942,1.33445c-0.20249,0.01421 -0.3971,-0.02064 -0.57217,-0.09442c-0.17489,0.42567 -0.57915,0.73826 -1.06932,0.77266c-0.68867,0.04833 -1.28611,-0.47075 -1.33445,-1.15942c-0.04833,-0.68867 0.47075,-1.28611 1.15942,-1.33445c0.20249,-0.01421 0.3971,0.02064 0.57217,0.09442c0.17489,-0.42567 0.57915,-0.73826 1.06932,-0.77266z" fill="#973007" stroke="none" stroke-width="0.5"/><path d="M355.83861,160.81868c-0.04833,-0.68867 0.47075,-1.28611 1.15942,-1.33445c0.68867,-0.04833 1.28611,0.47075 1.33445,1.15942c0.04833,0.68867 -0.47075,1.28611 -1.15942,1.33445c-0.68867,0.04833 -1.28611,-0.47075 -1.33445,-1.15942z" fill="#973007" stroke="none" stroke-width="0.5"/><path d="M361.02526,162.51911c-0.04833,-0.68867 0.47075,-1.28611 1.15942,-1.33445c0.68867,-0.04833 1.28611,0.47075 1.33445,1.15942c0.04833,0.68867 -0.47075,1.28611 -1.15942,1.33445c-0.68867,0.04833 -1.28611,-0.47075 -1.33445,-1.15942z" fill="#973007" stroke="none" stroke-width="0.5"/><path d="M360.70083,155.22245c-0.04833,-0.68867 0.47075,-1.28611 1.15942,-1.33445c0.68867,-0.04833 1.28611,0.47075 1.33445,1.15942c0.04833,0.68867 -0.47075,1.28611 -1.15942,1.33445c-0.68867,0.04833 -1.28611,-0.47075 -1.33445,-1.15942z" fill="#973007" stroke="none" stroke-width="0.5"/><path d="M257.5618,130.55607c-0.029,-0.41319 0.28246,-0.77167 0.69565,-0.80067c0.41319,-0.029 0.77167,0.28246 0.80067,0.69565c0.029,0.41319 -0.28246,0.77167 -0.69565,0.80067c-0.41319,0.029 -0.77167,-0.28246 -0.80067,-0.69565z" fill="#671d06" stroke="none" stroke-width="0.5"/><path d="M261.8048,129.50756c-0.029,-0.41319 0.28246,-0.77167 0.69565,-0.80067c0.41319,-0.029 0.77167,0.28246 0.80067,0.69565c0.029,0.41319 -0.28246,0.77167 -0.69565,0.80067c-0.41319,0.029 -0.77167,-0.28246 -0.80067,-0.69565z" fill="#671d06" stroke="none" stroke-width="0.5"/><path d="M267.45672,132.48908c-0.029,-0.41319 0.28246,-0.77167 0.69565,-0.80067c0.41319,-0.029 0.77167,0.28246 0.80067,0.69565c0.029,0.41319 -0.28246,0.77167 -0.69565,0.80067c-0.41319,0.029 -0.77167,-0.28246 -0.80067,-0.69565z" fill="#671d06" stroke="none" stroke-width="0.5"/><path d="M318.46781,129.28421c-0.029,-0.41319 0.28246,-0.77167 0.69565,-0.80067c0.41319,-0.029 0.77167,0.28246 0.80067,0.69565c0.029,0.41319 -0.28246,0.77167 -0.69565,0.80067c-0.41319,0.029 -0.77167,-0.28246 -0.80067,-0.69565z" fill="#671d06" stroke="none" stroke-width="0.5"/><path d="M326.63598,125.33272c-0.029,-0.41319 0.28246,-0.77167 0.69565,-0.80067c0.41319,-0.029 0.77167,0.28246 0.80067,0.69565c0.029,0.41319 -0.28246,0.77167 -0.69565,0.80067c-0.41319,0.029 -0.77167,-0.28246 -0.80067,-0.69565z" fill="#671d06" stroke="none" stroke-width="0.5"/><path d="M335.06304,127.74411c-0.029,-0.41319 0.28246,-0.77167 0.69565,-0.80067c0.41319,-0.029 0.77167,0.28246 0.80067,0.69565c0.029,0.41319 -0.28246,0.77167 -0.69565,0.80067c-0.41319,0.029 -0.77167,-0.28246 -0.80067,-0.69565z" fill="#671d06" stroke="none" stroke-width="0.5"/><path d="M341.99604,130.26035c-0.029,-0.41319 0.28246,-0.77167 0.69565,-0.80067c0.41319,-0.029 0.77167,0.28246 0.80067,0.69565c0.029,0.41319 -0.28246,0.77167 -0.69565,0.80067c-0.41319,0.029 -0.77167,-0.28246 -0.80067,-0.69565z" fill="#671d06" stroke="none" stroke-width="0.5"/><path d="M258.72189,152.43295c-0.029,-0.41319 0.28246,-0.77167 0.69565,-0.80067c0.41319,-0.029 0.77167,0.28246 0.80067,0.69565c0.029,0.41319 -0.28246,0.77167 -0.69565,0.80067c-0.41319,0.029 -0.77167,-0.28246 -0.80067,-0.69565z" fill="#7b280f" stroke="none" stroke-width="0.5"/><path d="M263.168,148.93037c-0.029,-0.41319 0.28246,-0.77167 0.69565,-0.80067c0.41319,-0.029 0.77167,0.28246 0.80067,0.69565c0.029,0.41319 -0.28246,0.77167 -0.69565,0.80067c-0.41319,0.029 -0.77167,-0.28246 -0.80067,-0.69565z" fill="#7b280f" stroke="none" stroke-width="0.5"/><path d="M269.20329,154.70015c-0.029,-0.41319 0.28246,-0.77167 0.69565,-0.80067c0.41319,-0.029 0.77167,0.28246 0.80067,0.69565c0.029,0.41319 -0.28246,0.77167 -0.69565,0.80067c-0.41319,0.029 -0.77167,-0.28246 -0.80067,-0.69565z" fill="#7b280f" stroke="none" stroke-width="0.5"/><path d="M320.53547,150.72204c-0.029,-0.41319 0.28246,-0.77167 0.69565,-0.80067c0.41319,-0.029 0.77167,0.28246 0.80067,0.69565c0.029,0.41319 -0.28246,0.77167 -0.69565,0.80067c-0.41319,0.029 -0.77167,-0.28246 -0.80067,-0.69565z" fill="#7b280f" stroke="none" stroke-width="0.5"/><path d="M325.05037,145.52553c-0.029,-0.41319 0.28246,-0.77167 0.69565,-0.80067c0.41319,-0.029 0.77167,0.28246 0.80067,0.69565c0.029,0.41319 -0.28246,0.77167 -0.69565,0.80067c-0.41319,0.029 -0.77167,-0.28246 -0.80067,-0.69565z" fill="#7b280f" stroke="none" stroke-width="0.5"/><path d="M331.19702,147.53394c-0.029,-0.41319 0.28246,-0.77167 0.69565,-0.80067c0.41319,-0.029 0.77167,0.28246 0.80067,0.69565c0.029,0.41319 -0.28246,0.77167 -0.69565,0.80067c-0.41319,0.029 -0.77167,-0.28246 -0.80067,-0.69565z" fill="#7b280f" stroke="none" stroke-width="0.5"/><path d="M344.74519,150.71197c-0.029,-0.41319 0.28246,-0.77167 0.69565,-0.80067c0.41319,-0.029 0.77167,0.28246 0.80067,0.69565c0.029,0.41319 -0.28246,0.77167 -0.69565,0.80067c-0.41319,0.029 -0.77167,-0.28246 -0.80067,-0.69565z" fill="#7b280f" stroke="none" stroke-width="0.5"/><path d="M272.29477,170.06043c-0.029,-0.41319 0.28246,-0.77167 0.69565,-0.80067c0.41319,-0.029 0.77167,0.28246 0.80067,0.69565c0.029,0.41319 -0.28246,0.77167 -0.69565,0.80067c-0.41319,0.029 -0.77167,-0.28246 -0.80067,-0.69565z" fill="#973007" stroke="none" stroke-width="0.5"/><path d="M299.33207,170.22727c-0.029,-0.41319 0.28246,-0.77167 0.69565,-0.80067c0.41319,-0.029 0.77167,0.28246 0.80067,0.69565c0.029,0.41319 -0.28246,0.77167 -0.69565,0.80067c-0.41319,0.029 -0.77167,-0.28246 -0.80067,-0.69565z" fill="#973007" stroke="none" stroke-width="0.5"/><path d="M308.78793,171.25271c-0.029,-0.41319 0.28246,-0.77167 0.69565,-0.80067c0.41319,-0.029 0.77167,0.28246 0.80067,0.69565c0.029,0.41319 -0.28246,0.77167 -0.69565,0.80067c-0.41319,0.029 -0.77167,-0.28246 -0.80067,-0.69565z" fill="#973007" stroke="none" stroke-width="0.5"/><path d="M329.78671,168.27748c-0.029,-0.41319 0.28246,-0.77167 0.69565,-0.80067c0.41319,-0.029 0.77167,0.28246 0.80067,0.69565c0.029,0.41319 -0.28246,0.77167 -0.69565,0.80067c-0.41319,0.029 -0.77167,-0.28246 -0.80067,-0.69565z" fill="#973007" stroke="none" stroke-width="0.5"/><path d="M356.84363,163.37563c-0.029,-0.41319 0.28246,-0.77167 0.69565,-0.80067c0.41319,-0.029 0.77167,0.28246 0.80067,0.69565c0.029,0.41319 -0.28246,0.77167 -0.69565,0.80067c-0.41319,0.029 -0.77167,-0.28246 -0.80067,-0.69565z" fill="#973007" stroke="none" stroke-width="0.5"/></g><path d="" fill="none" stroke="#000000" stroke-width="2" stroke-linecap="round"/><path d="M290.0832,141.67177c-0.448,-6.38315 4.36338,-11.92091 10.74654,-12.36891c6.38315,-0.448 11.23481,7.41167 11.68282,13.79483c0.448,6.38315 -3.57253,10.36534 -9.95569,10.81334c-6.38315,0.448 -12.02566,-5.8561 -12.47367,-12.23925z" fill="#000000" stroke="#000000" stroke-width="0" stroke-linecap="butt"/><path d="M327.17535,193.50878l20.59389,-22.46607l-0.37443,20.21946z" fill="#000000" stroke="#000000" stroke-width="2" stroke-linecap="round"/></g></g></svg>