<svg version="1.1" xmlns="http://www.w3.org/2000/svg" xmlns:xlink="http://www.w3.org/1999/xlink" width="213.18203" height="280.18476" viewBox="0,0,213.18203,280.18476"><g transform="translate(-214.52362,-38.88751)"><g stroke-miterlimit="10"><g stroke-linecap="butt"><path d="M286.35186,319.07226l15.14285,-131.8421l37.78325,-0.15789l13.57389,132z" fill="#a93232" stroke="#000000" stroke-width="0"/><path d="M293.00635,261.13452c2.74487,-23.89841 8.48836,-73.90436 8.48836,-73.90436l37.78325,-0.15789c0,0 5.18875,49.85827 7.69612,74.24128c0.01364,0.13261 -53.98445,-0.03335 -53.96772,-0.17903z" fill="#9d2f3a" stroke="#000000" stroke-width="0"/><path d="M294.04743,252.07032c2.50278,-21.79059 7.44728,-64.84016 7.44728,-64.84016l37.78325,-0.15789c0,0 4.4242,43.02332 6.66599,64.82381c0.03141,0.30549 -51.94147,0.56558 -51.89652,0.17424z" fill="#942c3b" stroke="#000000" stroke-width="0"/><path d="M301.49471,187.23016l37.78325,-0.15789l7.53186,58.01527c0,0 -5.52306,-0.76412 -6.92133,-0.90214l0.00749,-0.04127l-0.48712,-0.0884c-0.016,-0.00322 -0.03254,-0.0049 -0.04949,-0.0049c-0.13807,0 -0.25,0.11193 -0.25,0.25c0,0.04409 0.01141,0.08552 0.03145,0.12148l0.23231,0.43736c0.123,0.23124 0.24538,0.5705 0.38232,0.90381c-0.37148,-0.33345 -0.77382,-0.64017 -1.12919,-0.99429c-0.38626,-0.38297 -2.23559,-1.95898 -2.85854,-1.56149c-1.49667,0.95499 1.14954,7.14342 -2.20456,3.67889c-0.34409,-0.39178 -1.32011,-1.90788 -1.8599,-1.93658c-0.71283,-0.03789 -2.08925,3.10834 -2.2473,3.02684c-0.63202,-0.32591 -1.62122,-2.43297 -2.09521,-3.07026c-0.20167,-0.19552 -1.03491,-1.17622 -1.31894,-1.12193c-0.29258,0.05593 -0.71091,1.29206 -0.77558,1.54857c-0.3107,1.23257 -1.43283,4.47865 -1.20436,6.0625c-1.23125,-1.34336 -2.04426,-3.20717 -3.15722,-4.70131l0.02198,-0.01167l-0.20246,-0.38135c-0.0412,-0.08148 -0.1257,-0.13736 -0.22325,-0.13736c-0.1113,0 -0.20561,0.07273 -0.238,0.17325l-0.16255,0.4667c-0.05451,0.15652 -0.10902,0.31304 -0.16353,0.46957c-0.18509,0.49576 -0.61517,2.88396 -1.12868,3.05381c-0.42363,0.14012 -1.28892,-2.21834 -1.58993,-2.3507c-0.84379,-0.37102 -1.31275,1.23764 -1.29003,2.25784c-1.94281,-2.33382 -2.99468,-4.92948 -6.16706,-6.09861c-2.49887,-0.88899 -4.81101,1.71067 -5.3339,3.92684c-0.04559,0.19324 -0.10282,0.46112 -0.14855,0.7564c-0.37996,-1.536 -0.9571,-3.47767 -1.63956,-3.56104c-0.94022,-0.11486 -1.74563,1.9818 -1.75639,3.24301c-1.17689,-1.06694 -2.9206,0.67637 -3.37136,1.68632c-0.05109,-0.36434 -1.54165,-2.501 -1.65072,-2.8319c0.21987,-1.20535 -3.61083,-1.26063 -3.61083,-1.26063z" fill="#a2f30f" stroke="#000000" stroke-width="0"/><path d="M301.49471,187.23016l37.78325,-0.15789c0,0 4.42084,34.05212 5.78825,44.5848c0.01988,0.15319 -50.50566,-0.27517 -50.46947,-0.50562c1.69416,-10.78723 6.89797,-43.9213 6.89797,-43.9213z" fill="#75f20f" stroke="#000000" stroke-width="0"/><path d="M301.49471,187.23016l37.78325,-0.15789c0,0 2.99108,23.83918 4.32515,34.1151c0.01396,0.10756 -47.56257,0.2241 -47.5334,0.03837c1.60192,-10.19991 5.425,-33.99558 5.425,-33.99558z" fill="#33965e" stroke="#000000" stroke-width="0"/><path d="M301.49471,187.23016l37.78325,-0.15789c0,0 2.54744,19.28154 3.76806,28.68356c0.01222,0.09411 -45.95233,-0.50319 -45.94397,-0.55642c1.50063,-9.55496 4.39265,-27.96925 4.39265,-27.96925z" fill="#2d7a1a" stroke="#000000" stroke-width="0"/><path d="M296.95582,214.9c0,-0.9665 0.7835,-1.75 1.75,-1.75c0.9665,0 1.75,0.7835 1.75,1.75c0,0.9665 -0.7835,1.75 -1.75,1.75c-0.9665,0 -1.75,-0.7835 -1.75,-1.75z" fill="#2d7a1a" stroke="none" stroke-width="0.5"/><path d="M304.35582,214.7c0,-0.9665 0.7835,-1.75 1.75,-1.75c0.9665,0 1.75,0.7835 1.75,1.75c0,0.9665 -0.7835,1.75 -1.75,1.75c-0.9665,0 -1.75,-0.7835 -1.75,-1.75z" fill="#2d7a1a" stroke="none" stroke-width="0.5"/><path d="M310.65582,214.9c0,-0.30962 0.11257,-0.59294 0.29901,-0.81128c0.29248,-0.55801 0.87728,-0.93872 1.55099,-0.93872c0.9665,0 1.75,0.7835 1.75,1.75c0,0.9665 -0.7835,1.75 -1.75,1.75c-0.67371,0 -1.25851,-0.3807 -1.55099,-0.93872c-0.18644,-0.21834 -0.29901,-0.50166 -0.29901,-0.81128z" fill="#2d7a1a" stroke="none" stroke-width="0.5"/><path d="M316.90582,216.75c-0.30962,0 -0.59294,-0.11257 -0.81128,-0.29901c-0.55801,-0.29248 -0.93872,-0.87728 -0.93872,-1.55099c0,-0.9665 0.7835,-1.75 1.75,-1.75c0.11289,0 0.22328,0.01069 0.33022,0.03111c0.25622,-0.14704 0.55318,-0.23111 0.86978,-0.23111c0.9665,0 1.75,0.7835 1.75,1.75c0,0.9665 -0.7835,1.75 -1.75,1.75c-0.11289,0 -0.22328,-0.01069 -0.33022,-0.03111c-0.01927,0.01106 -0.03877,0.02176 -0.0585,0.0321c-0.21834,0.18644 -0.50166,0.29901 -0.81128,0.29901z" fill="#2d7a1a" stroke="none" stroke-width="0.5"/><path d="M324.05582,216.9c0,-0.48464 0.27581,-0.90486 0.67902,-1.11227c-0.23728,-0.29867 -0.37902,-0.67665 -0.37902,-1.08773c0,-0.9665 0.7835,-1.75 1.75,-1.75c0.9665,0 1.75,0.7835 1.75,1.75c0,0.84585 -0.6001,1.55153 -1.39777,1.71454c0.06296,0.14926 0.09777,0.31329 0.09777,0.48546c0,0.69036 -0.55964,1.25 -1.25,1.25c-0.69036,0 -1.25,-0.55964 -1.25,-1.25z" fill="#2d7a1a" stroke="none" stroke-width="0.5"/><path d="M330.55582,215.5c0,-0.9665 0.7835,-1.75 1.75,-1.75c0.9665,0 1.75,0.7835 1.75,1.75c0,0.9665 -0.7835,1.75 -1.75,1.75c-0.9665,0 -1.75,-0.7835 -1.75,-1.75z" fill="#2d7a1a" stroke="none" stroke-width="0.5"/><path d="M334.15582,215.5c0,-0.9665 0.7835,-1.75 1.75,-1.75c0.9665,0 1.75,0.7835 1.75,1.75c0,0.9665 -0.7835,1.75 -1.75,1.75c-0.9665,0 -1.75,-0.7835 -1.75,-1.75z" fill="#2d7a1a" stroke="none" stroke-width="0.5"/><path d="M338.15582,215.5c0,-0.9665 0.7835,-1.75 1.75,-1.75c0.9665,0 1.75,0.7835 1.75,1.75c0,0.9665 -0.7835,1.75 -1.75,1.75c-0.9665,0 -1.75,-0.7835 -1.75,-1.75z" fill="#2d7a1a" stroke="none" stroke-width="0.5"/><path d="M296.15582,221.3c0,-0.9665 0.7835,-1.75 1.75,-1.75c0.9665,0 1.75,0.7835 1.75,1.75c0,0.9665 -0.7835,1.75 -1.75,1.75c-0.9665,0 -1.75,-0.7835 -1.75,-1.75z" fill="#33965e" stroke="none" stroke-width="0.5"/><path d="M340.55582,221.1c0,-0.9665 0.7835,-1.75 1.75,-1.75c0.9665,0 1.75,0.7835 1.75,1.75c0,0.9665 -0.7835,1.75 -1.75,1.75c-0.9665,0 -1.75,-0.7835 -1.75,-1.75z" fill="#33965e" stroke="none" stroke-width="0.5"/><path d="M334.85582,220.3c0,-0.69036 0.55964,-1.25 1.25,-1.25c0.05573,0 0.11061,0.00365 0.16441,0.01072c0.31654,-0.3156 0.75328,-0.51072 1.23559,-0.51072c0.03356,0 0.0669,0.00094 0.1,0.00281c0.0331,-0.00186 0.06644,-0.00281 0.1,-0.00281c0.9665,0 1.75,0.7835 1.75,1.75c0,0.9665 -0.7835,1.75 -1.75,1.75c-0.03356,0 -0.0669,-0.00094 -0.1,-0.00281c-0.0331,0.00186 -0.06644,0.00281 -0.1,0.00281c-0.48231,0 -0.91905,-0.19511 -1.23559,-0.51072c-0.0538,0.00707 -0.10868,0.01072 -0.16441,0.01072c-0.69036,0 -1.25,-0.55964 -1.25,-1.25z" fill="#33965e" stroke="none" stroke-width="0.5"/><path d="M330.15582,221.1c0,-0.9665 0.7835,-1.75 1.75,-1.75c0.03356,0 0.0669,0.00094 0.1,0.00281c0.0331,-0.00186 0.06644,-0.00281 0.1,-0.00281c0.9665,0 1.75,0.7835 1.75,1.75c0,0.9665 -0.7835,1.75 -1.75,1.75c-0.03356,0 -0.0669,-0.00094 -0.1,-0.00281c-0.0331,0.00186 -0.06644,0.00281 -0.1,0.00281c-0.9665,0 -1.75,-0.7835 -1.75,-1.75z" fill="#33965e" stroke="none" stroke-width="0.5"/><path d="M321.30582,222.75c-0.40726,0 -0.76903,-0.19476 -0.99725,-0.49623c-0.48298,-0.23274 -1.12626,-0.75728 -0.92452,-1.86682c0.31305,-1.72177 2.03482,-1.40872 2.03482,-1.40872l2.2,0.4c0,0 0.06959,0.01265 0.17824,0.04686c0.16098,-0.04883 0.33178,-0.07509 0.50871,-0.07509c0.9665,0 1.75,0.7835 1.75,1.75c0,0.9665 -0.7835,1.75 -1.75,1.75c-0.16787,0 -0.33022,-0.02364 -0.4839,-0.06776c-0.44113,0.11008 -0.82915,0.03954 -0.82915,0.03954l-1.12553,-0.20464c-0.16881,0.085 -0.35953,0.13287 -0.56142,0.13287z" fill="#33965e" stroke="none" stroke-width="0.5"/><path d="M314.35582,220.9c0,-0.96207 0.77634,-1.74282 1.73674,-1.74995c0.24298,-0.12776 0.51968,-0.20005 0.81326,-0.20005c0.9665,0 1.75,0.7835 1.75,1.75c0,0.96207 -0.77634,1.74282 -1.73674,1.74995c-0.24298,0.12776 -0.51968,0.20005 -0.81326,0.20005c-0.9665,0 -1.75,-0.7835 -1.75,-1.75z" fill="#33965e" stroke="none" stroke-width="0.5"/><path d="M312.55582,220.9c0,1.25 -1.25,1.25 -1.25,1.25h-1.8c0,0 -0.41051,0 -0.76102,-0.23525c-0.24888,0.66323 -0.88881,1.13525 -1.63898,1.13525c-0.54604,0 -1.03367,-0.25009 -1.3546,-0.64197c-0.05477,0.63978 -0.59144,1.14197 -1.2454,1.14197c-0.69036,0 -1.25,-0.55964 -1.25,-1.25c0,-0.06435 0.00486,-0.12756 0.01424,-0.18929c-0.43315,-0.31856 -0.71424,-0.83181 -0.71424,-1.41071c0,-0.9665 0.7835,-1.75 1.75,-1.75c0.7237,0 1.3448,0.43929 1.61118,1.06577c0.31213,-0.28908 0.72984,-0.46577 1.18882,-0.46577c0.5401,0 1.02305,0.24467 1.34406,0.62922c0.35114,-0.52922 1.05594,-0.52922 1.05594,-0.52922h1.8c0,0 1.25,0 1.25,1.25z" fill="#33965e" stroke="none" stroke-width="0.5"/><path d="M294.55582,231.5c0,-0.9665 0.3835,-1.75 1.35,-1.75c0.9665,0 1.75,0.7835 1.75,1.75c0,0.9665 -0.7835,1.75 -1.75,1.75c-0.9665,0 -1.35,-0.7835 -1.35,-1.75z" fill="#75f20f" stroke="none" stroke-width="0.5"/><path d="M306.15582,232.3c0,0.69036 -0.55964,1.25 -1.25,1.25c-0.19142,0 -0.37279,-0.04303 -0.53497,-0.11994c-0.08643,0.01313 -0.17493,0.01994 -0.26503,0.01994c-0.9665,0 -1.75,-0.7835 -1.75,-1.75c0,-0.9665 0.7835,-1.75 1.75,-1.75c0.88869,0 1.62266,0.66243 1.73508,1.52045c0.19593,0.22069 0.31492,0.51123 0.31492,0.82955z" fill="#75f20f" stroke="none" stroke-width="0.5"/><path d="M311.95582,232.1c0,0.69036 -0.55964,1.25 -1.25,1.25c-0.61753,0 -1.13048,-0.4478 -1.23182,-1.0364c-0.43538,-0.31834 -0.71818,-0.83294 -0.71818,-1.4136c0,-0.9665 0.7835,-1.75 1.75,-1.75c0.9665,0 1.75,0.7835 1.75,1.75c0,0.37295 -0.11667,0.71866 -0.3155,1.00261c0.0102,0.0643 0.0155,0.13022 0.0155,0.19739z" fill="#75f20f" stroke="none" stroke-width="0.5"/><path d="M314.95582,230.3c0,-0.9665 0.7835,-1.75 1.75,-1.75c0.9665,0 1.75,0.7835 1.75,1.75c0,0.9665 -0.7835,1.75 -1.75,1.75c-0.9665,0 -1.75,-0.7835 -1.75,-1.75z" fill="#75f20f" stroke="none" stroke-width="0.5"/><path d="M324.35582,230.3c0,-0.9665 0.7835,-1.75 1.75,-1.75c0.9665,0 1.75,0.7835 1.75,1.75c0,0.9665 -0.7835,1.75 -1.75,1.75c-0.9665,0 -1.75,-0.7835 -1.75,-1.75z" fill="#75f20f" stroke="none" stroke-width="0.5"/><path d="M331.55582,230.7c0,-0.9665 0.7835,-1.75 1.75,-1.75c0.9665,0 1.75,0.7835 1.75,1.75c0,0.9665 -0.7835,1.75 -1.75,1.75c-0.9665,0 -1.75,-0.7835 -1.75,-1.75z" fill="#75f20f" stroke="none" stroke-width="0.5"/><path d="M335.45582,231.7c0,-0.69036 0.55964,-1.25 1.25,-1.25c0.05771,0 0.11451,0.00391 0.17014,0.01148c0.25512,-0.65072 0.88868,-1.11148 1.62986,-1.11148c0.51885,0 0.98496,0.2258 1.30543,0.58449c0.29973,-0.24057 0.68034,-0.38449 1.09457,-0.38449c0.9665,0 1.75,0.7835 1.75,1.75c0,0.9665 -0.7835,1.75 -1.75,1.75c-0.51885,0 -0.98496,-0.2258 -1.30543,-0.58449c-0.29973,0.24057 -0.68034,0.38449 -1.09457,0.38449c-0.33782,0 -0.65328,-0.09572 -0.92074,-0.26152c-0.22583,0.2235 -0.53643,0.36152 -0.87926,0.36152c-0.69036,0 -1.25,-0.55964 -1.25,-1.25z" fill="#75f20f" stroke="none" stroke-width="0.5"/><path d="M299.05582,233.1c0,-0.69036 0.55964,-1.25 1.25,-1.25c0.69036,0 1.25,0.55964 1.25,1.25c0,0.68623 -0.55297,1.2433 -1.23763,1.24994c0.26787,0.22926 0.43763,0.56984 0.43763,0.95006c0,0.69036 -0.55964,1.25 -1.25,1.25c-0.69036,0 -1.25,-0.55964 -1.25,-1.25c0,-0.68623 0.55297,-1.2433 1.23763,-1.24994c-0.26787,-0.22926 -0.43763,-0.56984 -0.43763,-0.95006z" fill="#75f20f" stroke="none" stroke-width="0.5"/><path d="M315.25582,233.3c0,-0.69036 0.55964,-1.25 1.25,-1.25c0.69036,0 1.25,0.55964 1.25,1.25c0,0.69036 -0.55964,1.25 -1.25,1.25c-0.69036,0 -1.25,-0.55964 -1.25,-1.25z" fill="#75f20f" stroke="none" stroke-width="0.5"/><path d="M321.10582,236.65c-0.33583,0 -0.62011,-0.22073 -0.71567,-0.52502c-0.32306,-0.22599 -0.53433,-0.60081 -0.53433,-1.02498c0,-0.69036 0.55964,-1.25 1.25,-1.25c0.69036,0 1.25,0.55964 1.25,1.25c0,0.42417 -0.21127,0.79899 -0.53433,1.02498c-0.09556,0.30429 -0.37984,0.52502 -0.71567,0.52502z" fill="#75f20f" stroke="none" stroke-width="0.5"/><path d="M325.05582,235.1c0,-0.69036 0.55964,-1.25 1.25,-1.25c0.69036,0 1.25,0.55964 1.25,1.25c0,0.69036 -0.55964,1.25 -1.25,1.25c-0.69036,0 -1.25,-0.55964 -1.25,-1.25z" fill="#75f20f" stroke="none" stroke-width="0.5"/><path d="M329.45582,232.7c0,-0.69036 0.55964,-1.25 1.25,-1.25c0.69036,0 1.25,0.55964 1.25,1.25c0,0.69036 -0.55964,1.25 -1.25,1.25c-0.69036,0 -1.25,-0.55964 -1.25,-1.25z" fill="#75f20f" stroke="none" stroke-width="0.5"/><path d="M341.45582,234.5c0,-0.69036 0.55964,-1.25 1.25,-1.25c0.69036,0 1.25,0.55964 1.25,1.25c0,0.69036 -0.55964,1.25 -1.25,1.25c-0.69036,0 -1.25,-0.55964 -1.25,-1.25z" fill="#75f20f" stroke="none" stroke-width="0.5"/><path d="M298.25582,224.7c0,-0.69036 0.55964,-1.25 1.25,-1.25c0.69036,0 1.25,0.55964 1.25,1.25c0,0.69036 -0.55964,1.25 -1.25,1.25c-0.69036,0 -1.25,-0.55964 -1.25,-1.25z" fill="#33965e" stroke="none" stroke-width="0.5"/><path d="M325.25582,224.5c0,-0.69036 0.55964,-1.25 1.25,-1.25c0.69036,0 1.25,0.55964 1.25,1.25c0,0.69036 -0.55964,1.25 -1.25,1.25c-0.69036,0 -1.25,-0.55964 -1.25,-1.25z" fill="#33965e" stroke="none" stroke-width="0.5"/><path d="M337.45582,223.9c0,-0.69036 0.55964,-1.25 1.25,-1.25c0.69036,0 1.25,0.55964 1.25,1.25c0,0.69036 -0.55964,1.25 -1.25,1.25c-0.69036,0 -1.25,-0.55964 -1.25,-1.25z" fill="#33965e" stroke="none" stroke-width="0.5"/><path d="M301.45582,218.5c0,-0.69036 0.55964,-1.25 1.25,-1.25c0.69036,0 1.25,0.55964 1.25,1.25c0,0.69036 -0.55964,1.25 -1.25,1.25c-0.69036,0 -1.25,-0.55964 -1.25,-1.25z" fill="#2d7a1a" stroke="none" stroke-width="0.5"/><path d="M329.45582,218.1c0,-0.69036 0.55964,-1.25 1.25,-1.25c0.69036,0 1.25,0.55964 1.25,1.25c0,0.69036 -0.55964,1.25 -1.25,1.25c-0.69036,0 -1.25,-0.55964 -1.25,-1.25z" fill="#2d7a1a" stroke="none" stroke-width="0.5"/><path d="M339.05582,218.5c0,-0.69036 0.55964,-1.25 1.25,-1.25c0.69036,0 1.25,0.55964 1.25,1.25c0,0.69036 -0.55964,1.25 -1.25,1.25c-0.69036,0 -1.25,-0.55964 -1.25,-1.25z" fill="#2d7a1a" stroke="none" stroke-width="0.5"/><path d="M298.55582,219.9c0,-0.41421 0.33579,-0.75 0.75,-0.75c0.41421,0 0.75,0.33579 0.75,0.75c0,0.41421 -0.33579,0.75 -0.75,0.75c-0.41421,0 -0.75,-0.33579 -0.75,-0.75z" fill="#2d7a1a" stroke="none" stroke-width="0.5"/><path d="M311.75582,219.9c0,-0.41421 0.33579,-0.75 0.75,-0.75c0.41421,0 0.75,0.33579 0.75,0.75c0,0.41421 -0.33579,0.75 -0.75,0.75c-0.41421,0 -0.75,-0.33579 -0.75,-0.75z" fill="#2d7a1a" stroke="none" stroke-width="0.5"/><path d="M315.75582,219.5c0,-0.41421 0.33579,-0.75 0.75,-0.75c0.41421,0 0.75,0.33579 0.75,0.75c0,0.41421 -0.33579,0.75 -0.75,0.75c-0.41421,0 -0.75,-0.33579 -0.75,-0.75z" fill="#2d7a1a" stroke="none" stroke-width="0.5"/><path d="M336.55582,219.1c0,-0.41421 0.33579,-0.75 0.75,-0.75c0.41421,0 0.75,0.33579 0.75,0.75c0,0.41421 -0.33579,0.75 -0.75,0.75c-0.41421,0 -0.75,-0.33579 -0.75,-0.75z" fill="#2d7a1a" stroke="none" stroke-width="0.5"/><path d="M301.35582,228.9c0,-0.41421 0.33579,-0.75 0.75,-0.75c0.41421,0 0.75,0.33579 0.75,0.75c0,0.41421 -0.33579,0.75 -0.75,0.75c-0.41421,0 -0.75,-0.33579 -0.75,-0.75z" fill="#33965e" stroke="none" stroke-width="0.5"/><path d="M307.75582,225.9c0,-0.41421 0.33579,-0.75 0.75,-0.75c0.41421,0 0.75,0.33579 0.75,0.75c0,0.41421 -0.33579,0.75 -0.75,0.75c-0.41421,0 -0.75,-0.33579 -0.75,-0.75z" fill="#33965e" stroke="none" stroke-width="0.5"/><path d="M312.55582,225.1c0,-0.41421 0.33579,-0.75 0.75,-0.75c0.41421,0 0.75,0.33579 0.75,0.75c0,0.41421 -0.33579,0.75 -0.75,0.75c-0.41421,0 -0.75,-0.33579 -0.75,-0.75z" fill="#33965e" stroke="none" stroke-width="0.5"/><path d="M322.55582,227.7c0,-0.41421 0.33579,-0.75 0.75,-0.75c0.41421,0 0.75,0.33579 0.75,0.75c0,0.41421 -0.33579,0.75 -0.75,0.75c-0.41421,0 -0.75,-0.33579 -0.75,-0.75z" fill="#33965e" stroke="none" stroke-width="0.5"/><path d="M338.75582,229.7c0,-0.41421 0.33579,-0.75 0.75,-0.75c0.41421,0 0.75,0.33579 0.75,0.75c0,0.41421 -0.33579,0.75 -0.75,0.75c-0.41421,0 -0.75,-0.33579 -0.75,-0.75z" fill="#33965e" stroke="none" stroke-width="0.5"/><path d="M299.55582,239.7c0,-0.41421 0.33579,-0.75 0.75,-0.75c0.41421,0 0.75,0.33579 0.75,0.75c0,0.41421 -0.33579,0.75 -0.75,0.75c-0.41421,0 -0.75,-0.33579 -0.75,-0.75z" fill="#75f20f" stroke="none" stroke-width="0.5"/><path d="M307.15582,237.3c0,-0.41421 0.33579,-0.75 0.75,-0.75c0.41421,0 0.75,0.33579 0.75,0.75c0,0.41421 -0.33579,0.75 -0.75,0.75c-0.41421,0 -0.75,-0.33579 -0.75,-0.75z" fill="#75f20f" stroke="none" stroke-width="0.5"/><path d="M329.55582,238.1c0,-0.41421 0.33579,-0.75 0.75,-0.75c0.41421,0 0.75,0.33579 0.75,0.75c0,0.41421 -0.33579,0.75 -0.75,0.75c-0.41421,0 -0.75,-0.33579 -0.75,-0.75z" fill="#75f20f" stroke="none" stroke-width="0.5"/><path d="M341.15582,238.5c0,-0.41421 0.33579,-0.75 0.75,-0.75c0.41421,0 0.75,0.33579 0.75,0.75c0,0.41421 -0.33579,0.75 -0.75,0.75c-0.41421,0 -0.75,-0.33579 -0.75,-0.75z" fill="#75f20f" stroke="none" stroke-width="0.5"/><path d="M298.34471,254.36667c0,-0.42979 0.21691,-0.80892 0.54723,-1.03388c-0.64321,-0.05358 -1.18761,-0.45502 -1.44453,-1.01565c-0.08673,0.88544 -0.83336,1.57731 -1.74159,1.57731c-0.9665,0 -1.75,-0.7835 -1.75,-1.75c0,-0.9665 0.7835,-1.75 1.75,-1.75c0.70663,0 1.31544,0.41882 1.59175,1.02176c0.08673,-0.88544 0.83336,-1.57731 1.74159,-1.57731c0.9665,0 1.75,0.7835 1.75,1.75c0,0.67535 -0.38256,1.26135 -0.94279,1.55312c0.56974,0.11646 0.99835,0.6205 0.99835,1.22466c0,0.69036 -0.55964,1.25 -1.25,1.25c-0.69036,0 -1.25,-0.55964 -1.25,-1.25z" fill="#942c3b" stroke="none" stroke-width="0.5"/><path d="M342.17804,252.14444c0,-0.9665 0.7835,-1.75 1.75,-1.75c0.9665,0 1.75,0.7835 1.75,1.75c0,0.9665 -0.7835,1.75 -1.75,1.75c-0.9665,0 -1.75,-0.7835 -1.75,-1.75z" fill="#942c3b" stroke="none" stroke-width="0.5"/><path d="M306.92804,253.95c-0.36192,0 -0.68791,-0.15381 -0.91617,-0.39962c-0.064,0.00709 -0.12904,0.01074 -0.19494,0.01074c-0.9665,0 -1.75,-0.7835 -1.75,-1.75c0,-0.9665 0.7835,-1.75 1.75,-1.75c0.45394,0 0.86751,0.17284 1.1785,0.45629c0.2914,-0.21685 0.65257,-0.34518 1.04372,-0.34518c0.9665,0 1.75,0.7835 1.75,1.75c0,0.9665 -0.7835,1.75 -1.75,1.75c-0.10075,0 -0.19951,-0.00851 -0.2956,-0.02486c-0.2189,0.18861 -0.50389,0.30264 -0.81551,0.30264z" fill="#942c3b" stroke="none" stroke-width="0.5"/><path d="M311.56693,254.14444c0,-0.4588 0.24718,-0.85987 0.61563,-1.0773c-0.21241,-0.28966 -0.33786,-0.64709 -0.33786,-1.03381c0,-0.9665 0.7835,-1.75 1.75,-1.75c0.9665,0 1.75,0.7835 1.75,1.75c0,0.8274 -0.57421,1.52069 -1.34588,1.70311c0.04413,0.12787 0.0681,0.26514 0.0681,0.408c0,0.69036 -0.55964,1.25 -1.25,1.25c-0.69036,0 -1.25,-0.55964 -1.25,-1.25z" fill="#942c3b" stroke="none" stroke-width="0.5"/><path d="M316.17804,252.25556c0,-0.9665 0.7835,-1.75 1.75,-1.75c0.9665,0 1.75,0.7835 1.75,1.75c0,0.9665 -0.7835,1.75 -1.75,1.75c-0.9665,0 -1.75,-0.7835 -1.75,-1.75z" fill="#942c3b" stroke="none" stroke-width="0.5"/><path d="M321.62249,252.25556c0,-0.9665 0.7835,-1.75 1.75,-1.75c0.9665,0 1.75,0.7835 1.75,1.75c0,0.9665 -0.7835,1.75 -1.75,1.75c-0.9665,0 -1.75,-0.7835 -1.75,-1.75z" fill="#942c3b" stroke="none" stroke-width="0.5"/><path d="M331.81693,250.56111c0.69036,0 1.25,0.55964 1.25,1.25c0,0.69036 -0.55964,1.25 -1.25,1.25c-0.43659,0 -0.82091,-0.22383 -1.04445,-0.563c-0.11809,0.8517 -0.84913,1.50744 -1.73333,1.50744c-0.9665,0 -1.75,-0.7835 -1.75,-1.75c0,-0.9665 0.7835,-1.75 1.75,-1.75c0.6895,0 1.28587,0.39876 1.57107,0.97824c0.14385,-0.5316 0.62961,-0.92268 1.20671,-0.92268z" fill="#942c3b" stroke="none" stroke-width="0.5"/><path d="M333.2336,252.25556c0,-0.69036 0.55964,-1.25 1.25,-1.25c0.00368,0 0.00735,0.00002 0.01102,0.00005c0.30057,-0.24324 0.68332,-0.38894 1.1001,-0.38894c0.9665,0 1.75,0.7835 1.75,1.75c0,0.9665 -0.7835,1.75 -1.75,1.75c-0.54207,0 -1.02658,-0.24646 -1.34758,-0.63345c-0.57729,-0.11053 -1.01353,-0.61815 -1.01353,-1.22766z" fill="#942c3b" stroke="none" stroke-width="0.5"/><path d="M337.51138,251.92222c0,-0.9665 0.7835,-1.75 1.75,-1.75c0.9665,0 1.75,0.7835 1.75,1.75c0,0.9665 -0.7835,1.75 -1.75,1.75c-0.9665,0 -1.75,-0.7835 -1.75,-1.75z" fill="#942c3b" stroke="none" stroke-width="0.5"/><path d="M294.34471,264.36667c0,-0.51341 0.30953,-0.95453 0.75215,-1.14693c-0.05556,0.00532 -0.11187,0.00804 -0.16882,0.00804c-0.9665,0 -1.75,-0.7835 -1.75,-1.75c0,-0.9665 0.7835,-1.75 1.75,-1.75c0.9665,0 1.75,0.7835 1.75,1.75c0,0.75127 -0.4734,1.39197 -1.13817,1.64007c0.01818,-0.00078 0.03647,-0.00118 0.05484,-0.00118c0.69036,0 1.25,0.55964 1.25,1.25c0,0.69036 -0.55964,1.25 -1.25,1.25c-0.69036,0 -1.25,-0.55964 -1.25,-1.25z" fill="#9d2f3a" stroke="none" stroke-width="0.5"/><path d="M304.37249,261.00556c0.69036,0 1.25,0.55964 1.25,1.25c0,0.69036 -0.55964,1.25 -1.25,1.25c-0.55684,0 -1.02864,-0.3641 -1.1903,-0.86722c-0.21399,0.09327 -0.45025,0.145 -0.69859,0.145c-0.28498,0 -0.55405,-0.06812 -0.79182,-0.18896c-0.37915,-0.07253 -0.69748,-0.31634 -0.87138,-0.64782c-0.11448,0.57228 -0.61973,1.00345 -1.22569,1.00345c-0.69036,0 -1.25,-0.55964 -1.25,-1.25c0,-0.69036 0.55964,-1.25 1.25,-1.25c0.48106,0 0.89866,0.27175 1.10764,0.67012c0.00845,-0.04226 0.01904,-0.08376 0.03164,-0.12437c0.01046,-0.49645 0.22766,-0.94204 0.56896,-1.25417c0.31998,-0.3499 0.78024,-0.56936 1.29175,-0.56936c0.9665,0 1.75,0.7835 1.75,1.75c0,0.02805 -0.00066,0.05595 -0.00197,0.08368c0.00989,-0.00023 0.0198,-0.00035 0.02974,-0.00035z" fill="#9d2f3a" stroke="none" stroke-width="0.5"/><path d="M308.40026,260.58889c0,-0.9665 0.7835,-1.75 1.75,-1.75c0.9665,0 1.75,0.7835 1.75,1.75c0,0.9665 -0.7835,1.75 -1.75,1.75c-0.9665,0 -1.75,-0.7835 -1.75,-1.75z" fill="#9d2f3a" stroke="none" stroke-width="0.5"/><path d="M317.17804,262.14444c0,0.53381 -0.33462,0.98948 -0.80554,1.16867c-0.19295,0.12189 -0.42158,0.19244 -0.66668,0.19244c-0.4865,0 -0.90809,-0.27793 -1.11465,-0.68367c-0.57431,-0.28703 -0.96869,-0.88063 -0.96869,-1.56633c0,-0.9665 0.7835,-1.75 1.75,-1.75c0.9665,0 1.75,0.7835 1.75,1.75c0,0.1364 -0.01561,0.26915 -0.04513,0.39658c0.0648,0.15108 0.10068,0.31751 0.10068,0.49231z" fill="#9d2f3a" stroke="none" stroke-width="0.5"/><path d="M321.26138,263.28333c-0.28271,0 -0.5435,-0.09385 -0.75291,-0.2521c-0.3057,0.26111 -0.70243,0.41877 -1.13598,0.41877c-0.9665,0 -1.75,-0.7835 -1.75,-1.75c0,-0.9665 0.7835,-1.75 1.75,-1.75c0.47739,0 0.91014,0.19116 1.22587,0.5011c0.32096,-0.37474 0.79759,-0.61222 1.32968,-0.61222c0.9665,0 1.75,0.7835 1.75,1.75c0,0.9665 -0.7835,1.75 -1.75,1.75c-0.16876,0 -0.33194,-0.02389 -0.48634,-0.06847c-0.05888,0.00851 -0.11909,0.01291 -0.18032,0.01291z" fill="#9d2f3a" stroke="none" stroke-width="0.5"/><path d="M326.90026,264.36667c0,-0.07667 0.0069,-0.15173 0.02012,-0.22458c-0.22599,0.22465 -0.5374,0.36347 -0.88123,0.36347c-0.69036,0 -1.25,-0.55964 -1.25,-1.25c0,-0.22437 0.05911,-0.43493 0.16262,-0.61696c-0.27401,-0.3089 -0.44039,-0.71543 -0.44039,-1.16082c0,-0.9665 0.7835,-1.75 1.75,-1.75c0.9665,0 1.75,0.7835 1.75,1.75c0,0.60178 -0.30375,1.13262 -0.7663,1.44756c0.02874,0.10519 0.04408,0.21591 0.04408,0.33022c0,0.07667 -0.0069,0.15173 -0.02012,0.22458c0.22599,-0.22465 0.5374,-0.36347 0.88123,-0.36347c0.69036,0 1.25,0.55964 1.25,1.25c0,0.69036 -0.55964,1.25 -1.25,1.25c-0.69036,0 -1.25,-0.55964 -1.25,-1.25z" fill="#9d2f3a" stroke="none" stroke-width="0.5"/><path d="M339.78915,262.25556c0,-0.63642 0.47561,-1.16175 1.09078,-1.23995c0.16256,-0.79825 0.86852,-1.39893 1.71478,-1.39893c0.9665,0 1.75,0.7835 1.75,1.75c0,0.9665 -0.7835,1.75 -1.75,1.75c-0.19893,0 -0.3901,-0.03319 -0.56829,-0.09434c-0.22871,0.29405 -0.5859,0.48323 -0.98727,0.48323c-0.69036,0 -1.25,-0.55964 -1.25,-1.25z" fill="#9d2f3a" stroke="none" stroke-width="0.5"/><path d="M300.67804,252.7c0,-0.69036 0.55964,-1.25 1.25,-1.25c0.69036,0 1.25,0.55964 1.25,1.25c0,0.69036 -0.55964,1.25 -1.25,1.25c-0.69036,0 -1.25,-0.55964 -1.25,-1.25z" fill="#942c3b" stroke="none" stroke-width="0.5"/><path d="M316.12249,255.47778c0,-0.69036 0.55964,-1.25 1.25,-1.25c0.69036,0 1.25,0.55964 1.25,1.25c0,0.69036 -0.55964,1.25 -1.25,1.25c-0.69036,0 -1.25,-0.55964 -1.25,-1.25z" fill="#942c3b" stroke="none" stroke-width="0.5"/><path d="M320.90026,255.81111c0,-0.69036 0.55964,-1.25 1.25,-1.25c0.69036,0 1.25,0.55964 1.25,1.25c0,0.69036 -0.55964,1.25 -1.25,1.25c-0.69036,0 -1.25,-0.55964 -1.25,-1.25z" fill="#942c3b" stroke="none" stroke-width="0.5"/><path d="M325.45582,254.25556c0,-0.69036 0.55964,-1.25 1.25,-1.25c0.69036,0 1.25,0.55964 1.25,1.25c0,0.69036 -0.55964,1.25 -1.25,1.25c-0.69036,0 -1.25,-0.55964 -1.25,-1.25z" fill="#942c3b" stroke="none" stroke-width="0.5"/><path d="M341.12249,254.92222c0,-0.69036 0.55964,-1.25 1.25,-1.25c0.69036,0 1.25,0.55964 1.25,1.25c0,0.69036 -0.55964,1.25 -1.25,1.25c-0.69036,0 -1.25,-0.55964 -1.25,-1.25z" fill="#942c3b" stroke="none" stroke-width="0.5"/><path d="M306.12249,263.58889c0,-0.69036 0.55964,-1.25 1.25,-1.25c0.69036,0 1.25,0.55964 1.25,1.25c0,0.69036 -0.55964,1.25 -1.25,1.25c-0.69036,0 -1.25,-0.55964 -1.25,-1.25z" fill="#9d2f3a" stroke="none" stroke-width="0.5"/><path d="M313.03915,263.89444c0.69036,0 1.25,0.55964 1.25,1.25c0,0.69036 -0.55964,1.25 -1.25,1.25c-0.07584,0 -0.1501,-0.00675 -0.22222,-0.01969c-0.07212,0.01294 -0.14638,0.01969 -0.22222,0.01969c-0.69036,0 -1.25,-0.55964 -1.25,-1.25c0,-0.69036 0.55964,-1.25 1.25,-1.25c0.07584,0 0.1501,0.00675 0.22222,0.01969c0.07212,-0.01294 0.14638,-0.01969 0.22222,-0.01969z" fill="#9d2f3a" stroke="none" stroke-width="0.5"/><path d="M333.12249,261.25556c0,-0.69036 0.55964,-1.25 1.25,-1.25c0.34808,0 0.66294,0.14228 0.88958,0.37185c0.3154,-0.45942 0.84439,-0.76074 1.44376,-0.76074c0.9665,0 1.75,0.7835 1.75,1.75c0,0.9665 -0.7835,1.75 -1.75,1.75c-0.65894,0 -1.23282,-0.36419 -1.53133,-0.90227c-0.21706,0.18175 -0.49675,0.29116 -0.802,0.29116c-0.12419,0 -0.24416,-0.01811 -0.35739,-0.05184c0.03373,0.11324 0.05184,0.2332 0.05184,0.35739c0,0.62988 -0.46589,1.15095 -1.07188,1.23741c0.11608,0.18971 0.18299,0.41279 0.18299,0.65148c0,0.69036 -0.55964,1.25 -1.25,1.25c-0.69036,0 -1.25,-0.55964 -1.25,-1.25c0,-0.62988 0.46589,-1.15095 1.07188,-1.23741c-0.11608,-0.18971 -0.18299,-0.41279 -0.18299,-0.65148c0,-0.10888 0.01392,-0.21452 0.04008,-0.31522c-0.10888,0.10837 -0.23195,0.2025 -0.36617,0.27936c-0.64198,0.44665 -1.394,0.62292 -1.75654,-0.01153c-0.5158,-0.30441 -0.86182,-0.86589 -0.86182,-1.50818c0,-0.9665 0.7835,-1.75 1.75,-1.75c0.17212,0 0.33844,0.02485 0.49556,0.07115c0.79343,-0.17182 1.47667,0.18767 1.47667,1.67885c0,0.13848 -0.048,0.29648 -0.13201,0.46103c0.17909,-0.09908 0.38507,-0.15548 0.60423,-0.15548c0.12419,0 0.24416,0.01811 0.35739,0.05184c-0.03373,-0.11324 -0.05184,-0.2332 -0.05184,-0.35739z" fill="#9d2f3a" stroke="none" stroke-width="0.5"/><path d="M341.67804,265.14444c0,-0.69036 0.55964,-1.25 1.25,-1.25c0.69036,0 1.25,0.55964 1.25,1.25c0,0.69036 -0.55964,1.25 -1.25,1.25c-0.69036,0 -1.25,-0.55964 -1.25,-1.25z" fill="#9d2f3a" stroke="none" stroke-width="0.5"/><path d="M294.7336,256.03333c0,-0.41421 0.33579,-0.75 0.75,-0.75c0.41421,0 0.75,0.33579 0.75,0.75c0,0.41421 -0.33579,0.75 -0.75,0.75c-0.41421,0 -0.75,-0.33579 -0.75,-0.75z" fill="#942c3b" stroke="none" stroke-width="0.5"/><path d="M297.95582,257.47778c0,-0.41421 0.33579,-0.75 0.75,-0.75c0.41421,0 0.75,0.33579 0.75,0.75c0,0.41421 -0.33579,0.75 -0.75,0.75c-0.41421,0 -0.75,-0.33579 -0.75,-0.75z" fill="#942c3b" stroke="none" stroke-width="0.5"/><path d="M304.17804,258.25556c0,-0.41421 0.33579,-0.75 0.75,-0.75c0.41421,0 0.75,0.33579 0.75,0.75c0,0.41421 -0.33579,0.75 -0.75,0.75c-0.41421,0 -0.75,-0.33579 -0.75,-0.75z" fill="#942c3b" stroke="none" stroke-width="0.5"/><path d="M307.06693,256.58889c0,-0.41421 0.33579,-0.75 0.75,-0.75c0.41421,0 0.75,0.33579 0.75,0.75c0,0.41421 -0.33579,0.75 -0.75,0.75c-0.41421,0 -0.75,-0.33579 -0.75,-0.75z" fill="#942c3b" stroke="none" stroke-width="0.5"/><path d="M313.40026,257.7c0,-0.41421 0.33579,-0.75 0.75,-0.75c0.41421,0 0.75,0.33579 0.75,0.75c0,0.41421 -0.33579,0.75 -0.75,0.75c-0.41421,0 -0.75,-0.33579 -0.75,-0.75z" fill="#942c3b" stroke="none" stroke-width="0.5"/><path d="M319.62249,258.7c0,-0.41421 0.33579,-0.75 0.75,-0.75c0.41421,0 0.75,0.33579 0.75,0.75c0,0.41421 -0.33579,0.75 -0.75,0.75c-0.41421,0 -0.75,-0.33579 -0.75,-0.75z" fill="#942c3b" stroke="none" stroke-width="0.5"/><path d="M328.06693,257.81111c0,-0.41421 0.33579,-0.75 0.75,-0.75c0.41421,0 0.75,0.33579 0.75,0.75c0,0.41421 -0.33579,0.75 -0.75,0.75c-0.41421,0 -0.75,-0.33579 -0.75,-0.75z" fill="#942c3b" stroke="none" stroke-width="0.5"/><path d="M331.62249,257.47778c0,-0.41421 0.33579,-0.75 0.75,-0.75c0.41421,0 0.75,0.33579 0.75,0.75c0,0.41421 -0.33579,0.75 -0.75,0.75c-0.41421,0 -0.75,-0.33579 -0.75,-0.75z" fill="#942c3b" stroke="none" stroke-width="0.5"/><path d="M340.40026,258.36667c0,-0.41421 0.33579,-0.75 0.75,-0.75c0.41421,0 0.75,0.33579 0.75,0.75c0,0.41421 -0.33579,0.75 -0.75,0.75c-0.41421,0 -0.75,-0.33579 -0.75,-0.75z" fill="#942c3b" stroke="none" stroke-width="0.5"/><path d="M299.06693,268.36667c0,-0.41421 0.33579,-0.75 0.75,-0.75c0.41421,0 0.75,0.33579 0.75,0.75c0,0.41421 -0.33579,0.75 -0.75,0.75c-0.41421,0 -0.75,-0.33579 -0.75,-0.75z" fill="#9d2f3a" stroke="none" stroke-width="0.5"/><path d="M302.40026,266.25556c0,-0.41421 0.33579,-0.75 0.75,-0.75c0.41421,0 0.75,0.33579 0.75,0.75c0,0.41421 -0.33579,0.75 -0.75,0.75c-0.41421,0 -0.75,-0.33579 -0.75,-0.75z" fill="#9d2f3a" stroke="none" stroke-width="0.5"/><path d="M312.62249,268.81111c0,-0.41421 0.33579,-0.75 0.75,-0.75c0.41421,0 0.75,0.33579 0.75,0.75c0,0.41421 -0.33579,0.75 -0.75,0.75c-0.41421,0 -0.75,-0.33579 -0.75,-0.75z" fill="#9d2f3a" stroke="none" stroke-width="0.5"/><path d="M318.7336,269.14444c0,-0.41421 0.33579,-0.75 0.75,-0.75c0.41421,0 0.75,0.33579 0.75,0.75c0,0.41421 -0.33579,0.75 -0.75,0.75c-0.41421,0 -0.75,-0.33579 -0.75,-0.75z" fill="#9d2f3a" stroke="none" stroke-width="0.5"/><path d="M327.62249,267.58889c0,-0.41421 0.33579,-0.75 0.75,-0.75c0.41421,0 0.75,0.33579 0.75,0.75c0,0.41421 -0.33579,0.75 -0.75,0.75c-0.41421,0 -0.75,-0.33579 -0.75,-0.75z" fill="#9d2f3a" stroke="none" stroke-width="0.5"/><path d="M341.17804,267.7c0,-0.41421 0.33579,-0.75 0.75,-0.75c0.41421,0 0.75,0.33579 0.75,0.75c0,0.41421 -0.33579,0.75 -0.75,0.75c-0.41421,0 -0.75,-0.33579 -0.75,-0.75z" fill="#9d2f3a" stroke="none" stroke-width="0.5"/></g><path d="M214.52362,306.61252v-267.72501h213.18203v267.72501z" fill="none" stroke="none" stroke-width="0" stroke-linecap="butt"/><path d="" fill="none" stroke="#000000" stroke-width="2" stroke-linecap="round"/><path d="" fill-opacity="0.73333" fill="#2d7a1a" stroke="none" stroke-width="0" stroke-linecap="butt"/><g><path d="M252.09676,160.31061c3.93317,-31.17696 34.04646,-53.05415 67.25989,-48.86407c33.21344,4.19008 56.94979,32.86074 53.01662,64.0377c-2.595,20.56976 -16.58627,37.09131 -35.3452,44.749c-2.7814,1.13541 -11.12908,19.75818 -14.09849,20.48816c-7.35791,1.80883 -11.96457,2.07602 -20.01554,1.06034c-8.64309,-1.09038 -15.59384,-4.40991 -22.63279,-8.42865c-1.82093,-1.03962 -2.42867,-19.02635 -4.11525,-20.22932c-16.84707,-12.01648 -26.71413,-31.84815 -24.06926,-52.81316z" fill="#a93232" stroke="#000000" stroke-width="0" stroke-linecap="butt"/><path d="M284.1961,231.39603l1.50062,-20.5137l41.57403,5.89222l-4.62007,19.33548z" fill="#7c2532" stroke="none" stroke-width="0" stroke-linecap="butt"/><g fill="#fff8f7" stroke="none" stroke-width="0" stroke-linecap="butt"><path d="M300.13419,237.95009c-1.51839,-0.19156 -2.42613,-2.90858 -2.02747,-6.06865c0.0278,-0.22032 5.52085,0.51734 5.49861,0.69368c-0.39866,3.16007 -1.95275,5.56652 -3.47115,5.37496z"/><path d="M295.4185,236.91713c-1.52123,-0.16529 -2.52388,-2.8719 -2.23946,-6.04539c0.01983,-0.22126 5.52473,0.42149 5.50886,0.59858c-0.2844,3.17349 -1.74816,5.61211 -3.26939,5.4468z"/><path d="M286.34572,234.51543c-1.41338,-0.06439 -2.65729,-2.52723 -2.77834,-5.50092c-0.00845,-0.20734 5.11154,0.06724 5.11829,0.23318c0.12105,2.97369 -0.92658,5.33213 -2.33995,5.26774z"/><path d="M290.73011,235.66293c-1.45004,-0.10838 -2.57802,-2.65971 -2.5194,-5.69859c0.00408,-0.21188 5.25434,0.22288 5.25107,0.39246c-0.05862,3.03887 -1.28161,5.41451 -2.73165,5.30613z"/><path d="M303.46218,232.55707c0.02225,-0.17634 5.5264,0.47336 5.49861,0.69368c-0.39866,3.16007 -1.95275,5.56652 -3.47115,5.37496c-1.51839,-0.19156 -2.42613,-2.90858 -2.02747,-6.06865z"/><path d="M308.5856,232.86469c0.02861,-0.17548 5.52066,0.56909 5.48492,0.78836c-0.51267,3.14469 -2.15612,5.51748 -3.67073,5.29978c-1.51462,-0.2177 -2.32685,-2.94345 -1.81419,-6.08813z"/><path d="M318.83548,233.12413c0.04776,-0.15906 5.07551,0.84656 5.01584,1.0453c-0.8558,2.85045 -2.6724,4.92719 -4.0575,4.63853c-1.38508,-0.28865 -1.81416,-2.83339 -0.95834,-5.68384z"/><path d="M313.94263,232.94059c0.03895,-0.16507 5.23267,0.71774 5.18402,0.92399c-0.69795,2.95821 -2.42424,5.14948 -3.85577,4.89432c-1.43152,-0.25515 -2.0262,-2.8601 -1.32823,-5.81831z"/></g><g fill="#fff8f7" stroke="none" stroke-width="0" stroke-linecap="butt"><path d="M305.84903,216.38397c-0.02714,0.21511 -5.88075,-0.46885 -5.84685,-0.73762c0.48631,-3.85486 2.18941,-6.8147 3.80397,-6.61102c1.61455,0.20369 2.52918,3.49379 2.04287,7.34863z"/><path d="M300.46077,215.58417c-0.0339,0.21419 -5.87279,-0.58552 -5.83042,-0.85314c0.60752,-3.83834 2.40521,-6.75895 4.01524,-6.52336c1.61002,0.23559 2.42271,3.53815 1.81519,7.3765z"/><path d="M289.79545,213.45554c-0.05399,0.19457 -5.39295,-0.93196 -5.32549,-1.17507c0.96751,-3.4868 2.94399,-6.05036 4.41457,-5.72587c1.4706,0.32449 1.87842,3.41414 0.91091,6.90094z"/><path d="M294.85211,214.80859c-0.04472,0.20173 -5.56296,-0.77208 -5.50709,-1.02411c0.80138,-3.61492 2.68383,-6.31614 4.20456,-6.03335c1.52073,0.2828 2.10389,3.44252 1.30252,7.05746z"/><path d="M309.61109,209.76765c1.61457,0.20369 2.52919,3.49378 2.04288,7.34863c-0.03391,0.26877 -5.87398,-0.5225 -5.84685,-0.73762c0.48631,-3.85486 2.18941,-6.8147 3.80397,-6.61102z"/><path d="M314.81555,210.24762c1.61809,0.17166 2.63408,3.44723 2.26929,7.3162c-0.02544,0.26975 -5.87999,-0.40574 -5.85962,-0.62164c0.3648,-3.86896 1.97225,-6.86621 3.59035,-6.69455z"/><path d="M324.68131,211.07058c1.50511,0.05092 2.78297,3.02504 2.85417,6.64288c0.00497,0.25225 -5.4465,0.0175 -5.45047,-0.18438c-0.07121,-3.61784 1.09118,-6.5094 2.5963,-6.45849z"/><path d="M319.86525,211.07102c1.54332,0.10374 2.69592,3.18786 2.57438,6.88855c-0.00848,0.25803 -5.59567,-0.16921 -5.58888,-0.37571c0.12154,-3.70069 1.47118,-6.61658 3.0145,-6.51284z"/></g><path d="M289.91327,205.61691c-0.22373,0.11155 -0.33528,-0.11219 -0.33528,-0.11219l-0.15239,-0.30586c-0.67577,-1.29299 -2.38204,-0.29207 -3.1647,0.31566c0,0 -0.19752,0.15326 -0.35077,-0.04425c-0.15326,-0.19752 0.04425,-0.35077 0.04425,-0.35077c1.09973,-0.85277 2.97858,-1.70346 3.91232,-0.15606l0.15875,0.31818c0,0 0.11155,0.22373 -0.11219,0.33528z" fill="#872929" stroke="none" stroke-width="0.5" stroke-linecap="butt"/><path d="M294.25532,206.40194c-0.14418,-0.01819 -0.19397,-0.10961 -0.21039,-0.18298c-0.79261,-0.31164 -1.82029,-0.12268 -2.63627,-0.08252c0,0 -0.2497,0.01229 -0.26199,-0.23741c-0.01229,-0.2497 0.23741,-0.26199 0.23741,-0.26199c0.97834,-0.04816 2.1072,-0.23319 3.02277,0.19551l0.12781,0.35264c0,0 -0.03129,0.24803 -0.27933,0.21674z" fill="#872929" stroke="none" stroke-width="0.5" stroke-linecap="butt"/><path d="M300.06004,206.74438c-0.17706,-0.02234 -0.21178,-0.15512 -0.21715,-0.22928c-0.56587,-0.35604 -1.828,-0.02754 -2.3747,0.24985c0,0 -0.22373,0.11155 -0.33528,-0.11219c-0.11155,-0.22373 0.11219,-0.33528 0.11219,-0.33528c0.81174,-0.39886 2.29316,-0.70511 3.02196,-0.10608l0.07231,0.31625c0,0 -0.03129,0.24803 -0.27933,0.21674z" fill="#872929" stroke="none" stroke-width="0.5" stroke-linecap="butt"/><path d="M304.5254,207.29533c0.02137,0.24908 -0.22771,0.27046 -0.22771,0.27046l-0.38311,0.03288c-0.75106,0.06445 -0.8607,0.03183 -1.39951,0.53435c0,0 -0.18283,0.17052 -0.35334,-0.01231c-0.17052,-0.18283 0.01231,-0.35334 0.01231,-0.35334c0.5952,-0.55512 0.87743,-0.59648 1.69779,-0.66687l0.38311,-0.03288c0,0 0.24908,-0.02137 0.27046,0.22771z" fill="#872929" stroke="none" stroke-width="0.5" stroke-linecap="butt"/><path d="M311.30083,208.67346c-0.19752,0.15326 -0.35077,-0.04425 -0.35077,-0.04425l-0.03625,-0.06125c-1.05738,-0.80929 -2.27113,-0.31393 -3.38514,-0.0222c0,0 -0.24192,0.06307 -0.30498,-0.17885c-0.06307,-0.24192 0.17885,-0.30498 0.17885,-0.30498c1.29359,-0.3356 2.58993,-0.79371 3.81112,0.10593l0.13142,0.15484c0,0 0.15326,0.19752 -0.04425,0.35077z" fill="#872929" stroke="none" stroke-width="0.5" stroke-linecap="butt"/><path d="M318.24469,209.25709c-0.19752,0.15326 -0.35077,-0.04425 -0.35077,-0.04425l-0.11996,-0.16919c-1.41914,-0.48443 -2.50091,-0.06727 -3.91337,0.30094c0,0 -0.24192,0.06307 -0.30498,-0.17885c-0.06307,-0.24192 0.17885,-0.30498 0.17885,-0.30498c1.55023,-0.40412 2.7924,-0.87355 4.3391,-0.2174l0.21538,0.26297c0,0 0.15326,0.19752 -0.04425,0.35077z" fill="#872929" stroke="none" stroke-width="0.5" stroke-linecap="butt"/><path d="M321.77021,209.89679c-0.19752,0.15326 -0.35077,-0.04425 -0.35077,-0.04425l-0.09398,-0.15216c-0.555,-0.0155 -0.94072,-0.00005 -1.49468,0.11008c0,0 -0.2452,0.04875 -0.29395,-0.19645c-0.04875,-0.2452 0.19645,-0.29395 0.19645,-0.29395c0.6746,-0.13412 1.15833,-0.17438 1.83984,-0.05404l0.24135,0.28c0,0 0.15326,0.19752 -0.04425,0.35077z" fill="#872929" stroke="none" stroke-width="0.5" stroke-linecap="butt"/><path d="M326.11165,210.24955c-0.19752,0.15326 -0.35077,-0.04425 -0.35077,-0.04425l-0.04995,-0.07228c-1.0987,-0.96461 -1.83725,-0.09752 -3.01411,0.13646c0,0 -0.2452,0.04875 -0.29395,-0.19645c-0.04875,-0.2452 0.19645,-0.29395 0.19645,-0.29395c1.34236,-0.26688 2.15641,-1.12128 3.43885,-0.02411l0.11773,0.1438c0,0 0.15326,0.19752 -0.04425,0.35077z" fill="#872929" stroke="none" stroke-width="0.5" stroke-linecap="butt"/><path d="M286.47581,234.53953c0.15326,0.19752 -0.04425,0.35077 -0.04425,0.35077l-0.2926,0.13435c-0.9284,-0.11712 -2.15079,-0.30017 -2.50619,-1.23519c0,0 -0.08293,-0.23584 0.1529,-0.31878c0.23584,-0.08293 0.31878,0.1529 0.31878,0.1529c0.21968,0.70547 1.41242,0.81861 2.09708,0.90499l-0.07651,-0.03332c0,0 0.19752,-0.15326 0.35077,0.04425z" fill="#872929" stroke="none" stroke-width="0.5" stroke-linecap="butt"/><path d="M291.47793,236.42088c-0.03129,0.24803 -0.27933,0.21674 -0.27933,0.21674l-0.14263,-0.02288c-0.93363,0.06504 -1.305,-0.20443 -2.03066,-0.77453c0,0 -0.19659,-0.15444 -0.04214,-0.35104c0.15444,-0.19659 0.35104,-0.04214 0.35104,-0.04214c0.63696,0.50041 0.87512,0.7295 1.68584,0.66899l0.24113,0.02553c0,0 0.24803,0.03129 0.21674,0.27933z" fill="#872929" stroke="none" stroke-width="0.5" stroke-linecap="butt"/><path d="M296.72945,238.05804c-0.03129,0.24803 -0.27933,0.21674 -0.27933,0.21674l-0.29257,-0.03696c-0.68949,-0.11486 -1.31539,-0.34703 -1.94242,-0.6478c0,0 -0.22541,-0.10812 -0.11729,-0.33353c0.10812,-0.22541 0.33353,-0.11729 0.33353,-0.11729c0.58068,0.27853 1.15899,0.49894 1.79828,0.60384l0.28305,0.03566c0,0 0.24803,0.03129 0.21674,0.27933z" fill="#872929" stroke="none" stroke-width="0.5" stroke-linecap="butt"/><path d="M300.98421,238.22273c0.04875,0.2452 -0.19645,0.29395 -0.19645,0.29395l-0.33983,0.06427c-0.86305,-0.10888 -1.07654,0.05632 -1.85044,-0.45172c0,0 -0.20786,-0.13891 -0.06894,-0.34677c0.13891,-0.20786 0.34677,-0.06894 0.34677,-0.06894c0.44079,0.29896 1.02651,0.30108 1.55493,0.36774l0.26002,-0.05499c0,0 0.2452,-0.04875 0.29395,0.19645z" fill="#872929" stroke="none" stroke-width="0.5" stroke-linecap="butt"/><path d="M307.11519,239.11222c0.0298,0.24822 -0.21842,0.27802 -0.21842,0.27802l-0.4233,0.0493c-1.53308,-0.16761 -2.47039,0.28969 -3.76924,-0.91002c0,0 -0.18364,-0.16963 -0.01401,-0.35327c0.16963,-0.18364 0.35327,-0.01401 0.35327,-0.01401c1.1728,1.08329 2.02592,0.6466 3.42525,0.77733l0.36841,-0.04576c0,0 0.24822,-0.0298 0.27802,0.21842z" fill="#872929" stroke="none" stroke-width="0.5" stroke-linecap="butt"/><path d="M311.24035,239.69376c-0.03129,0.24803 -0.27933,0.21674 -0.27933,0.21674l-0.28782,-0.03631c-0.70398,-0.09176 -1.50838,-0.27573 -2.15116,-0.57671c0,0 -0.22541,-0.10812 -0.11729,-0.33353c0.10812,-0.22541 0.33353,-0.11729 0.33353,-0.11729c0.57596,0.28492 1.36083,0.45432 1.99751,0.53147l0.28782,0.03631c0,0 0.24803,0.03129 0.21674,0.27933z" fill="#872929" stroke="none" stroke-width="0.5" stroke-linecap="butt"/><path d="M316.03834,239.45821c0.0298,0.24822 -0.21842,0.27802 -0.21842,0.27802l-0.4264,0.04931c-0.61252,-0.07448 -1.00003,-0.43896 -1.52925,-0.48343c0,0 -0.24803,-0.03129 -0.21674,-0.27933c0.03129,-0.24803 0.27933,-0.21674 0.27933,-0.21674c0.59339,0.09152 0.85049,0.39827 1.46817,0.4795l0.36531,-0.04575c0,0 0.24822,-0.0298 0.27802,0.21842z" fill="#872929" stroke="none" stroke-width="0.5" stroke-linecap="butt"/><path d="M320.89577,239.58369c0.0298,0.24822 -0.21842,0.27802 -0.21842,0.27802l-0.38635,0.0462c-0.8035,0.1522 -1.34693,-0.1239 -2.04199,-0.45542c0,0 -0.22541,-0.10812 -0.11729,-0.33353c0.10812,-0.22541 0.33353,-0.11729 0.33353,-0.11729c0.5949,0.28678 1.05121,0.55884 1.74713,0.41246l0.40536,-0.04885c0,0 0.24822,-0.0298 0.27802,0.21842z" fill="#872929" stroke="none" stroke-width="0.5" stroke-linecap="butt"/><g><g fill="#a2f30f" stroke="#000000" stroke-width="0"><path d="M248.67253,155.33411c4.1682,-33.03997 36.08092,-56.22444 71.27905,-51.78397c35.19814,4.44047 60.35287,34.82436 56.18467,67.86432c-1.71553,13.59848 -8.13086,25.52748 -17.54071,34.54815c-0.88437,0.8478 1.65572,6.04246 1.65572,6.04246c0,0 -4.13522,-2.82776 -8.50799,-2.8603c-1.52288,-0.01133 -3.27456,3.04208 -3.27456,3.04208c0,0 -5.46252,-2.44588 -8.09433,-2.51039c-1.64814,-0.04041 -5.37388,4.14904 -5.37388,4.14904c0,0 -2.96463,-3.74186 -3.57886,-3.78983c-1.02876,-0.08035 -6.03444,5.44882 -6.03444,5.44882l-3.83078,-5.53751l-5.96677,4.72722c0,0 -0.61723,-8.86094 -1.37774,-8.93043c-1.2082,-0.11041 -3.13168,4.27908 -3.13168,4.27908c0,0 -2.62207,-3.7614 -4.17882,-4.26723c-1.70524,-0.55408 -3.86563,2.47546 -3.86563,2.47546c0,0 -3.79378,-3.49732 -3.99306,-3.51989c-1.20674,-0.13674 -5.62052,1.34385 -5.62052,1.34385c0,0 -4.29892,-2.33419 -5.53497,-2.47466c-1.85279,-0.21056 -6.85653,3.18646 -6.85653,3.18646c0,0 -3.40152,-6.08448 -4.85419,-6.25898c-2.42231,-0.29099 -7.7477,2.24418 -7.7477,2.24418c0,0 -1.49551,-4.0585 -3.08463,-4.25093c-1.09855,-0.13303 -4.36909,5.03468 -4.36909,5.03468c0,0 0.52425,-4.83693 -0.27955,-5.80981c-0.92832,-1.12359 -4.53558,1.67457 -4.53558,1.67457c0,0 1.62432,-5.13678 1.32225,-5.61037c-7.14721,-11.20559 -10.55806,-24.59715 -8.80967,-38.45604z" stroke-linecap="butt"/><path d="M248.36654,167.75372l-11.38947,-63.43877l12.19039,9.45884l2.88393,-53.17087l44.53263,32.38542l-1.64119,-34.62221l17.41942,22.13651l5.66092,-12.39638l10.82869,24.58268l17.06215,-18.33272l26.57618,68.63231" stroke-linecap="round"/></g><g fill="#75f20f" stroke="#000000" stroke-width="0"><path d="M243.21002,137.9134c4.1682,-33.03997 41.54343,-38.80373 76.74156,-34.36327c28.28625,3.56849 50.08627,23.89176 55.394,48.88368c0.0504,0.23728 -132.13556,-14.52042 -132.13556,-14.52042z" stroke-linecap="butt"/><path d="M242.95585,137.61647c-1.94319,-10.82349 -5.97879,-33.30152 -5.97879,-33.30152l12.19039,9.45884l2.88393,-53.17087l44.53263,32.38542l-1.64119,-34.62221l17.41942,22.13651l5.66092,-12.39638l10.82869,24.58268l17.06215,-18.33272l26.57618,68.63231" stroke-linecap="round"/></g><g fill="#33965e" stroke="#000000" stroke-width="0" stroke-linecap="round"><path d="M239.75467,120.45701c-1.37736,-7.67185 -2.7776,-16.14206 -2.7776,-16.14206l12.19039,9.45884l2.88393,-53.17087l44.53263,32.38542l-1.64119,-34.62221l17.41942,22.13651l5.66092,-12.39638l10.82869,24.58268l17.06215,-18.33272c0,0 19.40929,49.6366 23.60635,60.47542"/></g><g fill="#2d7a1a" stroke="#000000" stroke-width="0" stroke-linecap="round"><path d="M249.87369,100.75303c0.52678,-9.71216 2.17769,-40.15011 2.17769,-40.15011l44.53263,32.38542l-1.64119,-34.62221l17.41942,22.13651l5.66092,-12.39638l10.82869,24.58268l17.06215,-18.33272c0,0 8.68521,22.42933 15.39598,39.75972"/></g><path d="M298.52617,188.01163l6.348,-13.94852" fill="none" stroke="#81c10c" stroke-width="2" stroke-linecap="round"/><path d="M316.38991,174.15022l2.739,15.0949" fill="none" stroke="#81c10c" stroke-width="2" stroke-linecap="round"/><path d="M261.71704,160.80833c1.62313,-12.86603 13.36892,-21.98019 26.23495,-20.35706c12.86603,1.62313 21.98019,13.36891 20.35706,26.23494c-1.62313,12.86603 -13.36891,21.9802 -26.23494,20.35707c-12.86603,-1.62313 -21.9802,-13.36892 -20.35707,-26.23495z" fill="#81c10c" stroke="none" stroke-width="0" stroke-linecap="butt"/><path d="M335.90588,193.83451c-12.86603,-1.62313 -21.98019,-13.36892 -20.35706,-26.23495c1.62313,-12.86603 13.36891,-21.98019 26.23494,-20.35706c12.86603,1.62313 21.9802,13.36891 20.35707,26.23494c-1.62313,12.86603 -13.36892,21.9802 -26.23495,20.35707z" fill="#81c10c" stroke="none" stroke-width="0" stroke-linecap="butt"/><path d="M262.15798,157.31318c1.62313,-12.86603 13.36892,-21.98019 26.23495,-20.35706c12.86603,1.62313 21.98019,13.36891 20.35706,26.23494c-1.62313,12.86603 -13.36891,21.9802 -26.23494,20.35707c-12.86603,-1.62313 -21.9802,-13.36892 -20.35707,-26.23495z" fill="#ffffff" stroke="#000000" stroke-width="0" stroke-linecap="butt"/><path d="M336.34682,190.33937c-12.86603,-1.62313 -21.98019,-13.36892 -20.35706,-26.23495c1.62313,-12.86603 13.36891,-21.98019 26.23494,-20.35706c12.86603,1.62313 21.9802,13.36891 20.35707,26.23494c-1.62313,12.86603 -13.36892,21.9802 -26.23495,20.35707z" fill="#ffffff" stroke="#000000" stroke-width="0" stroke-linecap="butt"/><path d="M255.12892,100.48866c0.9589,0.12097 1.63817,0.99638 1.5172,1.95528c-0.12097,0.9589 -0.99638,1.63817 -1.95528,1.5172c-0.84628,-0.10676 -1.47476,-0.80116 -1.52755,-1.62196c-0.36893,0.44884 -0.95316,0.70425 -1.57219,0.62615c-0.9589,-0.12097 -1.63817,-0.99638 -1.5172,-1.95528c0.12097,-0.9589 0.99638,-1.63817 1.95528,-1.5172c0.84628,0.10676 1.47476,0.80116 1.52755,1.62196c0.36893,-0.44884 0.95316,-0.70425 1.57219,-0.62615z" fill="#2d7a1a" stroke="none" stroke-width="0.5" stroke-linecap="butt"/><path d="M265.02525,101.93873c0.9589,0.12097 1.63817,0.99638 1.5172,1.95528c-0.12097,0.9589 -0.99638,1.63817 -1.95528,1.5172c-0.71477,-0.09017 -1.27419,-0.59955 -1.46259,-1.25023c-0.07111,-0.05227 -0.13625,-0.11177 -0.19446,-0.17727c-0.05859,-0.00147 -0.11765,-0.0059 -0.17703,-0.01339c-0.9589,-0.12097 -1.63817,-0.99638 -1.5172,-1.95528c0.12097,-0.9589 0.99638,-1.63817 1.95528,-1.5172c0.77952,0.09834 1.37425,0.69527 1.50449,1.43031c0.10804,-0.00672 0.21825,-0.00346 0.32959,0.01059z" fill="#2d7a1a" stroke="none" stroke-width="0.5" stroke-linecap="butt"/><path d="M278.6975,104.21793c0.12097,-0.9589 0.99638,-1.63817 1.95528,-1.5172c0.9589,0.12097 1.63817,0.99638 1.5172,1.95528c-0.12097,0.9589 -0.99638,1.63817 -1.95528,1.5172c-0.9589,-0.12097 -1.63817,-0.99638 -1.5172,-1.95528z" fill="#2d7a1a" stroke="none" stroke-width="0.5" stroke-linecap="butt"/><path d="M291.07508,105.17468c0.12097,-0.9589 0.99638,-1.63817 1.95528,-1.5172c0.9589,0.12097 1.63817,0.99638 1.5172,1.95528c-0.12097,0.9589 -0.99638,1.63817 -1.95528,1.5172c-0.9589,-0.12097 -1.63817,-0.99638 -1.5172,-1.95528z" fill="#2d7a1a" stroke="none" stroke-width="0.5" stroke-linecap="butt"/><path d="M303.74939,106.97521c-0.08641,0.68493 -0.71169,1.17012 -1.39663,1.08371c-0.41037,-0.05177 -0.74904,-0.29698 -0.93603,-0.63256c-0.06348,-0.00106 -0.12753,-0.00558 -0.19195,-0.0137c-0.9589,-0.12097 -1.63817,-0.99638 -1.5172,-1.95528c0.12097,-0.9589 0.99638,-1.63817 1.95528,-1.5172c0.91721,0.11571 1.57859,0.92169 1.52849,1.83075c0.38833,0.25321 0.61997,0.71343 0.55805,1.20428z" fill="#2d7a1a" stroke="none" stroke-width="0.5" stroke-linecap="butt"/><path d="M315.37753,107.08148c0.9589,0.12097 1.63817,0.99638 1.5172,1.95528c-0.12097,0.9589 -0.99638,1.63817 -1.95528,1.5172c-0.61336,-0.07738 -1.1123,-0.46343 -1.3606,-0.98257c-0.04203,-0.00227 -0.08428,-0.00605 -0.12669,-0.0114c-0.9589,-0.12097 -1.63817,-0.99638 -1.5172,-1.95528c0.12097,-0.9589 0.99638,-1.63817 1.95528,-1.5172c0.61336,0.07738 1.1123,0.46343 1.3606,0.98257c0.04203,0.00227 0.08428,0.00605 0.12669,0.0114z" fill="#2d7a1a" stroke="none" stroke-width="0.5" stroke-linecap="butt"/><path d="M326.51845,110.25084c0.09227,-0.73136 0.6234,-1.30006 1.29573,-1.47509c0.35556,-0.2813 0.81954,-0.4251 1.30489,-0.36387c0.9589,0.12097 1.63817,0.99638 1.5172,1.95528c-0.09227,0.73136 -0.6234,1.30006 -1.29573,1.47509c-0.35556,0.2813 -0.81954,0.4251 -1.30489,0.36387c-0.9589,-0.12097 -1.63817,-0.99638 -1.5172,-1.95528z" fill="#2d7a1a" stroke="none" stroke-width="0.5" stroke-linecap="butt"/><path d="M342.98395,110.36261c0.9589,0.12097 1.63817,0.99638 1.5172,1.95528c-0.12097,0.9589 -0.99638,1.63817 -1.95528,1.5172c-0.36558,-0.04612 -0.69052,-0.2019 -0.94596,-0.43015c-0.19656,0.04585 -0.40446,0.0582 -0.61643,0.03146c-0.9589,-0.12097 -1.63817,-0.99638 -1.5172,-1.95528c0.12097,-0.9589 0.99638,-1.63817 1.95528,-1.5172c0.36558,0.04612 0.69052,0.2019 0.94596,0.43015c0.19656,-0.04585 0.40446,-0.0582 0.61643,-0.03146z" fill="#2d7a1a" stroke="none" stroke-width="0.5" stroke-linecap="butt"/><path d="M345.02225,112.18204c0.12097,-0.9589 0.99638,-1.63817 1.95528,-1.5172c0.9589,0.12097 1.63817,0.99638 1.5172,1.95528c-0.12097,0.9589 -0.99638,1.63817 -1.95528,1.5172c-0.9589,-0.12097 -1.63817,-0.99638 -1.5172,-1.95528z" fill="#2d7a1a" stroke="none" stroke-width="0.5" stroke-linecap="butt"/><path d="M357.72159,113.78415c0.12097,-0.9589 0.99638,-1.63817 1.95528,-1.5172c0.9589,0.12097 1.63817,0.99638 1.5172,1.95528c-0.12097,0.9589 -0.99638,1.63817 -1.95528,1.5172c-0.9589,-0.12097 -1.63817,-0.99638 -1.5172,-1.95528z" fill="#2d7a1a" stroke="none" stroke-width="0.5" stroke-linecap="butt"/><path d="M349.3385,112.3234c0.08641,-0.68493 0.71169,-1.17012 1.39663,-1.08371c0.68061,0.08586 1.164,0.70384 1.08528,1.38368c0.36021,-0.51602 0.98744,-0.81982 1.65515,-0.73558c0.9589,0.12097 1.63817,0.99638 1.5172,1.95528c-0.12097,0.9589 -0.99638,1.63817 -1.95528,1.5172c-0.9589,-0.12097 -1.63817,-0.99638 -1.5172,-1.95528c0.00542,-0.04296 0.01235,-0.08537 0.02074,-0.12715c-0.26374,0.31746 -0.67898,0.49768 -1.1188,0.44219c-0.68493,-0.08641 -1.17012,-0.71169 -1.08371,-1.39663z" fill="#2d7a1a" stroke="none" stroke-width="0.5" stroke-linecap="butt"/><path d="M331.50417,110.67824c0.12097,-0.9589 0.99638,-1.63817 1.95528,-1.5172c0.9589,0.12097 1.63817,0.99638 1.5172,1.95528c-0.12097,0.9589 -0.99638,1.63817 -1.95528,1.5172c-0.9589,-0.12097 -1.63817,-0.99638 -1.5172,-1.95528z" fill="#2d7a1a" stroke="none" stroke-width="0.5" stroke-linecap="butt"/><path d="M305.06328,107.74573c0.12097,-0.9589 0.99638,-1.63817 1.95528,-1.5172c0.9589,0.12097 1.63817,0.99638 1.5172,1.95528c-0.12097,0.9589 -0.99638,1.63817 -1.95528,1.5172c-0.9589,-0.12097 -1.63817,-0.99638 -1.5172,-1.95528z" fill="#2d7a1a" stroke="none" stroke-width="0.5" stroke-linecap="butt"/><path d="M294.27311,106.98923c0.12097,-0.9589 0.99638,-1.63817 1.95528,-1.5172c0.9589,0.12097 1.63817,0.99638 1.5172,1.95528c-0.12097,0.9589 -0.99638,1.63817 -1.95528,1.5172c-0.9589,-0.12097 -1.63817,-0.99638 -1.5172,-1.95528z" fill="#2d7a1a" stroke="none" stroke-width="0.5" stroke-linecap="butt"/><path d="M285.71571,106.11125c0.12097,-0.9589 0.99638,-1.63817 1.95528,-1.5172c0.9589,0.12097 1.63817,0.99638 1.5172,1.95528c-0.12097,0.9589 -0.99638,1.63817 -1.95528,1.5172c-0.9589,-0.12097 -1.63817,-0.99638 -1.5172,-1.95528z" fill="#2d7a1a" stroke="none" stroke-width="0.5" stroke-linecap="butt"/><path d="M273.38819,104.75764c0.12097,-0.9589 0.99638,-1.63817 1.95528,-1.5172c0.9589,0.12097 1.63817,0.99638 1.5172,1.95528c-0.12097,0.9589 -0.99638,1.63817 -1.95528,1.5172c-0.9589,-0.12097 -1.63817,-0.99638 -1.5172,-1.95528z" fill="#2d7a1a" stroke="none" stroke-width="0.5" stroke-linecap="butt"/><path d="M266.64167,103.90652c0.12097,-0.9589 0.99638,-1.63817 1.95528,-1.5172c0.9589,0.12097 1.63817,0.99638 1.5172,1.95528c-0.12097,0.9589 -0.99638,1.63817 -1.95528,1.5172c-0.9589,-0.12097 -1.63817,-0.99638 -1.5172,-1.95528z" fill="#2d7a1a" stroke="none" stroke-width="0.5" stroke-linecap="butt"/><path d="M257.85989,104.00816c0.01544,-0.1224 0.04809,-0.23843 0.09522,-0.34594c-0.6357,-0.3267 -1.03088,-1.0258 -0.93624,-1.77601c0.12097,-0.9589 0.99638,-1.63817 1.95528,-1.5172c0.9589,0.12097 1.63817,0.99638 1.5172,1.95528c-0.04895,0.38802 -0.22143,0.73026 -0.473,0.9922c0.24133,0.26156 0.36991,0.62386 0.32188,1.00459c-0.08641,0.68493 -0.71169,1.17012 -1.39663,1.08371c-0.68493,-0.08641 -1.17012,-0.71169 -1.08371,-1.39663z" fill="#2d7a1a" stroke="none" stroke-width="0.5" stroke-linecap="butt"/><path d="M240.42725,119.9516c0.12097,-0.9589 0.99638,-1.63817 1.95528,-1.5172c0.9589,0.12097 1.63817,0.99638 1.5172,1.95528c-0.12097,0.9589 -0.99638,1.63817 -1.95528,1.5172c-0.9589,-0.12097 -1.63817,-0.99638 -1.5172,-1.95528z" fill="#33965e" stroke="none" stroke-width="0.5" stroke-linecap="butt"/><path d="M251.46316,122.75494c0.0345,-0.2735 0.15493,-0.51515 0.33077,-0.70127c-0.36959,0.37443 -0.90317,0.57867 -1.46546,0.50773c-0.9589,-0.12097 -1.63817,-0.99638 -1.5172,-1.95528c0.12097,-0.9589 0.99638,-1.63817 1.95528,-1.5172c0.9589,0.12097 1.63817,0.99638 1.5172,1.95528c-0.04859,0.38518 -0.21892,0.72524 -0.46748,0.98645c0.26386,-0.26538 0.64353,-0.40988 1.04353,-0.35941c0.68493,0.08641 1.17012,0.71169 1.08371,1.39663c-0.08641,0.68493 -0.71169,1.17012 -1.39663,1.08371c-0.68493,-0.08641 -1.17012,-0.71169 -1.08371,-1.39663z" fill="#33965e" stroke="none" stroke-width="0.5" stroke-linecap="butt"/><path d="M267.01253,121.34004c0.9589,0.12097 1.63817,0.99638 1.5172,1.95528c-0.12097,0.9589 -0.99638,1.63817 -1.95528,1.5172c-0.56796,-0.07165 -1.03782,-0.40798 -1.3014,-0.86956c-0.36996,0.38166 -0.90863,0.59075 -1.47658,0.5191c-0.9589,-0.12097 -1.63817,-0.99638 -1.5172,-1.95528c0.12097,-0.9589 0.99638,-1.63817 1.95528,-1.5172c0.56796,0.07165 1.03782,0.40798 1.3014,0.86956c0.36996,-0.38166 0.90863,-0.59075 1.47658,-0.5191z" fill="#33965e" stroke="none" stroke-width="0.5" stroke-linecap="butt"/><path d="M367.29337,133.38634c0.9589,0.12097 1.63817,0.99638 1.5172,1.95528c-0.12097,0.9589 -0.99638,1.63817 -1.95528,1.5172c-0.61449,-0.07752 -1.11415,-0.46486 -1.36197,-0.98545c-0.36493,0.32877 -0.86542,0.50287 -1.39098,0.43656c-0.9589,-0.12097 -1.63817,-0.99638 -1.5172,-1.95528c0.12097,-0.9589 0.99638,-1.63817 1.95528,-1.5172c0.61449,0.07752 1.11415,0.46486 1.36197,0.98545c0.36493,-0.32877 0.86542,-0.50287 1.39098,-0.43656z" fill="#33965e" stroke="none" stroke-width="0.5" stroke-linecap="butt"/><path d="M351.64662,133.17628c0.12097,-0.9589 0.99638,-1.63817 1.95528,-1.5172c0.9589,0.12097 1.63817,0.99638 1.5172,1.95528c-0.12097,0.9589 -0.99638,1.63817 -1.95528,1.5172c-0.9589,-0.12097 -1.63817,-0.99638 -1.5172,-1.95528z" fill="#33965e" stroke="none" stroke-width="0.5" stroke-linecap="butt"/><path d="M347.50468,132.45216c0.12097,-0.9589 0.99638,-1.63817 1.95528,-1.5172c0.9589,0.12097 1.63817,0.99638 1.5172,1.95528c-0.12097,0.9589 -0.99638,1.63817 -1.95528,1.5172c-0.9589,-0.12097 -1.63817,-0.99638 -1.5172,-1.95528z" fill="#33965e" stroke="none" stroke-width="0.5" stroke-linecap="butt"/><path d="M342.56903,131.62791c0.12097,-0.9589 0.99638,-1.63817 1.95528,-1.5172c0.9589,0.12097 1.63817,0.99638 1.5172,1.95528c-0.12097,0.9589 -0.99638,1.63817 -1.95528,1.5172c-0.9589,-0.12097 -1.63817,-0.99638 -1.5172,-1.95528z" fill="#33965e" stroke="none" stroke-width="0.5" stroke-linecap="butt"/><path d="M339.89955,133.10065c-0.5406,1.12705 -1.66766,0.58645 -1.66766,0.58645l-1.1405,-0.54705c0,0 -1.12705,-0.5406 -0.58645,-1.66766c0.5406,-1.12705 1.66766,-0.58645 1.66766,-0.58645l0.05931,0.02845c0.1938,-0.87169 1.02332,-1.4684 1.927,-1.3544c0.9589,0.12097 1.63817,0.99638 1.5172,1.95528c-0.11234,0.89049 -0.87532,1.53983 -1.75157,1.53107c-0.0079,0.01795 -0.01622,0.03606 -0.02498,0.05433z" fill="#33965e" stroke="none" stroke-width="0.5" stroke-linecap="butt"/><path d="M333.01949,130.62476c0.12097,-0.9589 0.99638,-1.63817 1.95528,-1.5172c0.9589,0.12097 1.63817,0.99638 1.5172,1.95528c-0.12097,0.9589 -0.99638,1.63817 -1.95528,1.5172c-0.22848,-0.02882 -0.44109,-0.10048 -0.63078,-0.2059c-0.47216,-0.16018 -0.80574,-0.59007 -0.84363,-1.08722c-0.055,-0.20992 -0.07161,-0.43367 -0.04279,-0.66215z" fill="#33965e" stroke="none" stroke-width="0.5" stroke-linecap="butt"/><path d="M324.88398,129.59841c0.21904,-1.73624 1.95528,-1.5172 1.95528,-1.5172l2.1827,0.27536c0,0 1.73624,0.21904 1.5172,1.95528c-0.21904,1.73624 -1.95528,1.5172 -1.95528,1.5172l-2.1827,-0.27536c0,0 -1.73624,-0.21904 -1.5172,-1.95528z" fill="#33965e" stroke="none" stroke-width="0.5" stroke-linecap="butt"/><path d="M319.69984,129.14599c0.12097,-0.9589 0.99638,-1.63817 1.95528,-1.5172c0.9589,0.12097 1.63817,0.99638 1.5172,1.95528c-0.12097,0.9589 -0.99638,1.63817 -1.95528,1.5172c-0.9589,-0.12097 -1.63817,-0.99638 -1.5172,-1.95528z" fill="#33965e" stroke="none" stroke-width="0.5" stroke-linecap="butt"/><path d="M313.89538,128.81689c0.12097,-0.9589 0.99638,-1.63817 1.95528,-1.5172c0.9589,0.12097 1.63817,0.99638 1.5172,1.95528c-0.12097,0.9589 -0.99638,1.63817 -1.95528,1.5172c-0.9589,-0.12097 -1.63817,-0.99638 -1.5172,-1.95528z" fill="#33965e" stroke="none" stroke-width="0.5" stroke-linecap="butt"/><path d="M309.13313,128.2161c0.12097,-0.9589 0.99638,-1.63817 1.95528,-1.5172c0.9589,0.12097 1.63817,0.99638 1.5172,1.95528c-0.12097,0.9589 -0.99638,1.63817 -1.95528,1.5172c-0.9589,-0.12097 -1.63817,-0.99638 -1.5172,-1.95528z" fill="#33965e" stroke="none" stroke-width="0.5" stroke-linecap="butt"/><path d="M301.19604,127.21479c0.12097,-0.9589 0.99638,-1.63817 1.95528,-1.5172c0.9589,0.12097 1.63817,0.99638 1.5172,1.95528c-0.12097,0.9589 -0.99638,1.63817 -1.95528,1.5172c-0.9589,-0.12097 -1.63817,-0.99638 -1.5172,-1.95528z" fill="#33965e" stroke="none" stroke-width="0.5" stroke-linecap="butt"/><path d="M294.44952,126.36367c0.12097,-0.9589 0.99638,-1.63817 1.95528,-1.5172c0.9589,0.12097 1.63817,0.99638 1.5172,1.95528c-0.12097,0.9589 -0.99638,1.63817 -1.95528,1.5172c-0.9589,-0.12097 -1.63817,-0.99638 -1.5172,-1.95528z" fill="#33965e" stroke="none" stroke-width="0.5" stroke-linecap="butt"/><path d="M293.076,125.96541c-0.33027,1.20558 -1.53585,0.87531 -1.53585,0.87531l-1.17317,-0.32139c-0.33948,0.5987 -1.0169,0.9649 -1.74207,0.87341c-0.9589,-0.12097 -1.63817,-0.99638 -1.5172,-1.95528c0.12097,-0.9589 0.99638,-1.63817 1.95528,-1.5172c0.2741,0.03458 0.52536,0.1308 0.7416,0.27301c0.46325,-0.29321 1.03215,-0.13736 1.03215,-0.13736l1.36396,0.37366c0,0 1.20558,0.33027 0.87531,1.53585z" fill="#33965e" stroke="none" stroke-width="0.5" stroke-linecap="butt"/><path d="M286.56066,126.57795c-0.08641,0.68493 -0.71169,1.17012 -1.39663,1.08371c-0.48912,-0.06171 -0.87639,-0.39822 -1.02637,-0.83503l-1.46557,-0.18489c0,0 -1.73624,-0.21904 -1.5172,-1.95528c0.21904,-1.73624 1.95528,-1.5172 1.95528,-1.5172l2.1827,0.27536c0,0 1.73624,0.21904 1.5172,1.95528c-0.04108,0.32561 -0.13552,0.58245 -0.26186,0.78487c0.02434,0.12633 0.02942,0.25861 0.01245,0.39318z" fill="#33965e" stroke="none" stroke-width="0.5" stroke-linecap="butt"/><path d="M270.38976,123.73155c0.12097,-0.9589 0.99638,-1.63817 1.95528,-1.5172c0.42469,0.05358 0.79454,0.25514 1.06431,0.54642c0.36929,-0.44368 0.95012,-0.69546 1.56531,-0.61785c0.9589,0.12097 1.63817,0.99638 1.5172,1.95528c-0.12097,0.9589 -0.99638,1.63817 -1.95528,1.5172c-0.42469,-0.05358 -0.79454,-0.25514 -1.06431,-0.54642c-0.36929,0.44368 -0.95012,0.69546 -1.56531,0.61785c-0.9589,-0.12097 -1.63817,-0.99638 -1.5172,-1.95528z" fill="#33965e" stroke="none" stroke-width="0.5" stroke-linecap="butt"/><path d="M356.63417,131.99122c0.12097,-0.9589 0.99638,-1.63817 1.95528,-1.5172c0.9589,0.12097 1.63817,0.99638 1.5172,1.95528c-0.12097,0.9589 -0.99638,1.63817 -1.95528,1.5172c-0.9589,-0.12097 -1.63817,-0.99638 -1.5172,-1.95528z" fill="#33965e" stroke="none" stroke-width="0.5" stroke-linecap="butt"/><path d="M243.88045,137.3204c0.12097,-0.9589 0.99638,-1.63817 1.95528,-1.5172c0.9589,0.12097 1.63817,0.99638 1.5172,1.95528c-0.12097,0.9589 -0.99638,1.63817 -1.95528,1.5172c-0.9589,-0.12097 -1.63817,-0.99638 -1.5172,-1.95528z" fill="#75f20f" stroke="none" stroke-width="0.5" stroke-linecap="butt"/><path d="M259.56292,138.84527c0.68493,0.08641 1.17012,0.71169 1.08371,1.39663c-0.08641,0.68493 -0.71169,1.17012 -1.39663,1.08371c-0.15958,-0.02013 -0.3083,-0.06952 -0.4415,-0.14209c-0.54996,0.31939 -1.18347,0.23947 -1.18347,0.23947l-1.3216,-0.16673c0.09091,0.20236 0.12909,0.43147 0.09929,0.66768c-0.08641,0.68493 -0.71169,1.17012 -1.39663,1.08371c-0.68493,-0.08641 -1.17012,-0.71169 -1.08371,-1.39663c0.05859,-0.46444 0.36496,-0.83704 0.76968,-1.00186c-0.03493,-0.03846 -0.06846,-0.07936 -0.10018,-0.12286c-0.35895,0.29582 -0.83435,0.44877 -1.33225,0.38595c-0.9589,-0.12097 -1.63817,-0.99638 -1.5172,-1.95528c0.12097,-0.9589 0.99638,-1.63817 1.95528,-1.5172c0.4979,0.06281 0.92041,0.32904 1.19466,0.70474c0.58264,-0.48052 1.3849,-0.37931 1.3849,-0.37931l1.78584,0.2253c0,0 0.94993,0.11984 1.35587,0.88487c0.04757,0.00054 0.09561,0.00379 0.14393,0.00988z" fill="#75f20f" stroke="none" stroke-width="0.5" stroke-linecap="butt"/><path d="M262.87665,142.53908c0.0285,-0.22592 0.11563,-0.4301 0.24419,-0.59922c-0.36307,-0.3688 -0.55973,-0.89432 -0.48993,-1.44764c0.12097,-0.9589 0.99638,-1.63817 1.95528,-1.5172c0.17237,0.02175 0.33571,0.06787 0.487,0.13448c0.16309,-0.02695 0.33276,-0.03106 0.50514,-0.00932c0.9589,0.12097 1.63817,0.99638 1.5172,1.95528c-0.11156,0.88426 -0.86467,1.53073 -1.73319,1.53115c0.0075,0.08671 0.006,0.17553 -0.00534,0.26538c-0.08641,0.68493 -0.71169,1.17012 -1.39663,1.08371c-0.68493,-0.08641 -1.17012,-0.71169 -1.08371,-1.39663z" fill="#75f20f" stroke="none" stroke-width="0.5" stroke-linecap="butt"/><path d="M317.02499,147.1528c-0.08641,0.68493 -0.71169,1.17012 -1.39663,1.08371c-0.12061,-0.01522 -0.23503,-0.04714 -0.34122,-0.09316c-0.31764,0.18127 -0.69454,0.26487 -1.08532,0.21557c-0.59245,-0.07474 -1.07817,-0.43749 -1.33434,-0.92998c-0.35818,0.52654 -0.99194,0.83809 -1.6671,0.75291c-0.53397,-0.06736 -0.98122,-0.36866 -1.25188,-0.78805c-0.26978,0.11046 -0.57091,0.15492 -0.88075,0.11583c-0.77952,-0.09834 -1.37425,-0.69527 -1.50449,-1.43031c-0.10804,0.00672 -0.21825,0.00346 -0.32959,-0.01059c-0.9589,-0.12097 -1.63817,-0.99638 -1.5172,-1.95528c0.12097,-0.9589 0.99638,-1.63817 1.95528,-1.5172c0.77952,0.09834 1.37425,0.69527 1.50449,1.43031c0.10804,-0.00672 0.21825,-0.00346 0.32959,0.01059c0.53397,0.06736 0.98122,0.36866 1.25188,0.78805c0.26978,-0.11046 0.57091,-0.15492 0.88075,-0.11583c0.59245,0.07474 1.07817,0.43749 1.33434,0.92998c0.35818,-0.52654 0.99194,-0.83809 1.6671,-0.75291c0.56804,0.07166 1.03795,0.40806 1.3015,0.86974c0.68486,0.08647 1.16999,0.71173 1.08359,1.39661z" fill="#75f20f" stroke="none" stroke-width="0.5" stroke-linecap="butt"/><path d="M319.25684,147.83753c0.02329,-0.18462 0.08573,-0.35472 0.17794,-0.50303c-0.08066,-0.06671 -0.15504,-0.14039 -0.22229,-0.21999c-0.19316,0.07944 -0.4089,0.11149 -0.63091,0.08348c-0.68493,-0.08641 -1.17012,-0.71169 -1.08371,-1.39663c0.08641,-0.68493 0.71169,-1.17012 1.39663,-1.08371c0.12472,0.01573 0.24281,0.04934 0.35204,0.09791c0.37048,-0.41198 0.93007,-0.64171 1.52142,-0.56711c0.9589,0.12097 1.63817,0.99638 1.5172,1.95528c-0.06219,0.49295 -0.32377,0.91201 -0.69356,1.18643c0.12365,0.22372 0.18004,0.48727 0.14559,0.76029c-0.08641,0.68493 -0.71169,1.17012 -1.39663,1.08371c-0.68493,-0.08641 -1.17012,-0.71169 -1.08371,-1.39663z" fill="#75f20f" stroke="none" stroke-width="0.5" stroke-linecap="butt"/><path d="M357.92787,150.49869c0.12097,-0.9589 0.99638,-1.63817 1.95528,-1.5172c0.9589,0.12097 1.63817,0.99638 1.5172,1.95528c-0.12097,0.9589 -0.99638,1.63817 -1.95528,1.5172c-0.9589,-0.12097 -1.63817,-0.99638 -1.5172,-1.95528z" fill="#75f20f" stroke="none" stroke-width="0.5" stroke-linecap="butt"/><path d="M369.55997,152.5709c-0.08641,0.68493 -0.71169,1.17012 -1.39663,1.08371c-0.17516,-0.0221 -0.33727,-0.07944 -0.48009,-0.16401c-0.24919,-0.04534 -0.47747,-0.14216 -0.67514,-0.27795c-0.21683,0.49361 -0.73882,0.80778 -1.30101,0.73685c-0.56439,-0.0712 -0.99316,-0.50831 -1.07825,-1.04316c-0.95872,-0.12113 -1.63782,-0.99644 -1.51686,-1.95523c0.12097,-0.9589 0.99638,-1.63817 1.95528,-1.5172c0.74923,0.09452 1.32775,0.64963 1.48722,1.34527c0.35897,-0.52254 0.99026,-0.83113 1.66259,-0.74631c0.9589,0.12097 1.63817,0.99638 1.5172,1.95528c-0.02567,0.20347 -0.08531,0.39434 -0.1725,0.56765c-0.00058,0.00504 -0.00118,0.01007 -0.00182,0.01511z" fill="#75f20f" stroke="none" stroke-width="0.5" stroke-linecap="butt"/><path d="M369.88081,154.02248c0.0816,-0.64681 0.64379,-1.11551 1.28293,-1.0929c-0.0091,-0.11674 -0.00655,-0.23613 0.00868,-0.35684c0.12097,-0.9589 0.99638,-1.63817 1.95528,-1.5172c0.9589,0.12097 1.63817,0.99638 1.5172,1.95528c-0.12097,0.9589 -0.99638,1.63817 -1.95528,1.5172c-0.12071,-0.01523 -0.237,-0.04242 -0.34782,-0.08021c-0.13683,0.62474 -0.73046,1.0529 -1.37728,0.9713c-0.68493,-0.08641 -1.17012,-0.71169 -1.08371,-1.39663z" fill="#75f20f" stroke="none" stroke-width="0.5" stroke-linecap="butt"/><path d="M246.85044,143.33947c0.08641,-0.68493 0.71169,-1.17012 1.39663,-1.08371c0.68493,0.08641 1.17012,0.71169 1.08371,1.39663c-0.08641,0.68493 -0.71169,1.17012 -1.39663,1.08371c-0.68493,-0.08641 -1.17012,-0.71169 -1.08371,-1.39663z" fill="#75f20f" stroke="none" stroke-width="0.5" stroke-linecap="butt"/><path d="M308.81163,149.14041c0.08641,-0.68493 0.71169,-1.17012 1.39663,-1.08371c0.68493,0.08641 1.17012,0.71169 1.08371,1.39663c-0.08641,0.68493 -0.71169,1.17012 -1.39663,1.08371c-0.68493,-0.08641 -1.17012,-0.71169 -1.08371,-1.39663z" fill="#75f20f" stroke="none" stroke-width="0.5" stroke-linecap="butt"/><path d="M362.43887,153.88997c0.08641,-0.68493 0.71169,-1.17012 1.39663,-1.08371c0.68493,0.08641 1.17012,0.71169 1.08371,1.39663c-0.08641,0.68493 -0.71169,1.17012 -1.39663,1.08371c-0.68493,-0.08641 -1.17012,-0.71169 -1.08371,-1.39663z" fill="#75f20f" stroke="none" stroke-width="0.5" stroke-linecap="butt"/><path d="M371.98658,156.50557c0.08641,-0.68493 0.71169,-1.17012 1.39663,-1.08371c0.68493,0.08641 1.17012,0.71169 1.08371,1.39663c-0.08641,0.68493 -0.71169,1.17012 -1.39663,1.08371c-0.68493,-0.08641 -1.17012,-0.71169 -1.08371,-1.39663z" fill="#75f20f" stroke="none" stroke-width="0.5" stroke-linecap="butt"/><path d="M244.48766,126.91457c0.08641,-0.68493 0.71169,-1.17012 1.39663,-1.08371c0.68493,0.08641 1.17012,0.71169 1.08371,1.39663c-0.08641,0.68493 -0.71169,1.17012 -1.39663,1.08371c-0.68493,-0.08641 -1.17012,-0.71169 -1.08371,-1.39663z" fill="#33965e" stroke="none" stroke-width="0.5" stroke-linecap="butt"/><path d="M247.66617,124.09019c0.08641,-0.68493 0.71169,-1.17012 1.39663,-1.08371c0.68493,0.08641 1.17012,0.71169 1.08371,1.39663c-0.08641,0.68493 -0.71169,1.17012 -1.39663,1.08371c-0.68493,-0.08641 -1.17012,-0.71169 -1.08371,-1.39663z" fill="#33965e" stroke="none" stroke-width="0.5" stroke-linecap="butt"/><path d="M257.21755,123.48089c0.08641,-0.68493 0.71169,-1.17012 1.39663,-1.08371c0.68493,0.08641 1.17012,0.71169 1.08371,1.39663c-0.08641,0.68493 -0.71169,1.17012 -1.39663,1.08371c-0.68493,-0.08641 -1.17012,-0.71169 -1.08371,-1.39663z" fill="#33965e" stroke="none" stroke-width="0.5" stroke-linecap="butt"/><path d="M271.87429,127.1442c0.08641,-0.68493 0.71169,-1.17012 1.39663,-1.08371c0.68493,0.08641 1.17012,0.71169 1.08371,1.39663c-0.08641,0.68493 -0.71169,1.17012 -1.39663,1.08371c-0.68493,-0.08641 -1.17012,-0.71169 -1.08371,-1.39663z" fill="#33965e" stroke="none" stroke-width="0.5" stroke-linecap="butt"/><path d="M277.0566,129.20908c0.08641,-0.68493 0.71169,-1.17012 1.39663,-1.08371c0.68493,0.08641 1.17012,0.71169 1.08371,1.39663c-0.08641,0.68493 -0.71169,1.17012 -1.39663,1.08371c-0.68493,-0.08641 -1.17012,-0.71169 -1.08371,-1.39663z" fill="#33965e" stroke="none" stroke-width="0.5" stroke-linecap="butt"/><path d="M308.55256,132.5264c-1.04343,0.6883 -1.73173,-0.35512 -1.73173,-0.35512l-1.01533,-1.53919c0,0 -0.6883,-1.04343 0.35512,-1.73173c1.04343,-0.6883 1.73173,0.35512 1.73173,0.35512l1.01533,1.53919c0,0 0.6883,1.04343 -0.35512,1.73173z" fill="#33965e" stroke="none" stroke-width="0.5" stroke-linecap="butt"/><path d="M313.46707,134.60883c0.08641,-0.68493 0.71169,-1.17012 1.39663,-1.08371c0.68493,0.08641 1.17012,0.71169 1.08371,1.39663c-0.08641,0.68493 -0.71169,1.17012 -1.39663,1.08371c-0.68493,-0.08641 -1.17012,-0.71169 -1.08371,-1.39663z" fill="#33965e" stroke="none" stroke-width="0.5" stroke-linecap="butt"/><path d="M316.16995,135.55457c0.08641,-0.68493 0.71169,-1.17012 1.39663,-1.08371c0.68493,0.08641 1.17012,0.71169 1.08371,1.39663c-0.08641,0.68493 -0.71169,1.17012 -1.39663,1.08371c-0.68493,-0.08641 -1.17012,-0.71169 -1.08371,-1.39663z" fill="#33965e" stroke="none" stroke-width="0.5" stroke-linecap="butt"/><path d="M358.26706,135.82575c0.08641,-0.68493 0.71169,-1.17012 1.39663,-1.08371c0.68493,0.08641 1.17012,0.71169 1.08371,1.39663c-0.08641,0.68493 -0.71169,1.17012 -1.39663,1.08371c-0.68493,-0.08641 -1.17012,-0.71169 -1.08371,-1.39663z" fill="#33965e" stroke="none" stroke-width="0.5" stroke-linecap="butt"/><path d="M363.39746,139.89993c0.08641,-0.68493 0.71169,-1.17012 1.39663,-1.08371c0.68493,0.08641 1.17012,0.71169 1.08371,1.39663c-0.08641,0.68493 -0.71169,1.17012 -1.39663,1.08371c-0.68493,-0.08641 -1.17012,-0.71169 -1.08371,-1.39663z" fill="#33965e" stroke="none" stroke-width="0.5" stroke-linecap="butt"/><path d="M251.77823,107.47421c0.08641,-0.68493 0.71169,-1.17012 1.39663,-1.08371c0.68493,0.08641 1.17012,0.71169 1.08371,1.39663c-0.08641,0.68493 -0.71169,1.17012 -1.39663,1.08371c-0.68493,-0.08641 -1.17012,-0.71169 -1.08371,-1.39663z" fill="#2d7a1a" stroke="none" stroke-width="0.5" stroke-linecap="butt"/><path d="M274.97102,108.98903c0.08641,-0.68493 0.71169,-1.17012 1.39663,-1.08371c0.68493,0.08641 1.17012,0.71169 1.08371,1.39663c-0.08641,0.68493 -0.71169,1.17012 -1.39663,1.08371c-0.68493,-0.08641 -1.17012,-0.71169 -1.08371,-1.39663z" fill="#2d7a1a" stroke="none" stroke-width="0.5" stroke-linecap="butt"/><path d="M281.86224,113.48693c0.08641,-0.68493 0.71169,-1.17012 1.39663,-1.08371c0.68493,0.08641 1.17012,0.71169 1.08371,1.39663c-0.08641,0.68493 -0.71169,1.17012 -1.39663,1.08371c-0.68493,-0.08641 -1.17012,-0.71169 -1.08371,-1.39663z" fill="#2d7a1a" stroke="none" stroke-width="0.5" stroke-linecap="butt"/><path d="M296.89998,109.33648c0.08641,-0.68493 0.71169,-1.17012 1.39663,-1.08371c0.68493,0.08641 1.17012,0.71169 1.08371,1.39663c-0.08641,0.68493 -0.71169,1.17012 -1.39663,1.08371c-0.68493,-0.08641 -1.17012,-0.71169 -1.08371,-1.39663z" fill="#2d7a1a" stroke="none" stroke-width="0.5" stroke-linecap="butt"/><path d="M324.92461,115.69416c0.08641,-0.68493 0.71169,-1.17012 1.39663,-1.08371c0.68493,0.08641 1.17012,0.71169 1.08371,1.39663c-0.08641,0.68493 -0.71169,1.17012 -1.39663,1.08371c-0.68493,-0.08641 -1.17012,-0.71169 -1.08371,-1.39663z" fill="#2d7a1a" stroke="none" stroke-width="0.5" stroke-linecap="butt"/><path d="M329.36327,117.26205c0.08641,-0.68493 0.71169,-1.17012 1.39663,-1.08371c0.68493,0.08641 1.17012,0.71169 1.08371,1.39663c-0.08641,0.68493 -0.71169,1.17012 -1.39663,1.08371c-0.68493,-0.08641 -1.17012,-0.71169 -1.08371,-1.39663z" fill="#2d7a1a" stroke="none" stroke-width="0.5" stroke-linecap="butt"/><path d="M344.72094,115.3694c0.08641,-0.68493 0.71169,-1.17012 1.39663,-1.08371c0.68493,0.08641 1.17012,0.71169 1.08371,1.39663c-0.08641,0.68493 -0.71169,1.17012 -1.39663,1.08371c-0.68493,-0.08641 -1.17012,-0.71169 -1.08371,-1.39663z" fill="#2d7a1a" stroke="none" stroke-width="0.5" stroke-linecap="butt"/><path d="M357.46667,119.79954c0.08641,-0.68493 0.71169,-1.17012 1.39663,-1.08371c0.68493,0.08641 1.17012,0.71169 1.08371,1.39663c-0.08641,0.68493 -0.71169,1.17012 -1.39663,1.08371c-0.68493,-0.08641 -1.17012,-0.71169 -1.08371,-1.39663z" fill="#2d7a1a" stroke="none" stroke-width="0.5" stroke-linecap="butt"/><path d="M250.95123,114.82853c0.05184,-0.41095 0.42702,-0.70207 0.83798,-0.65023c0.41095,0.05184 0.70207,0.42702 0.65023,0.83798c-0.05184,0.41095 -0.42702,0.70207 -0.83798,0.65023c-0.41095,-0.05184 -0.70207,-0.42702 -0.65023,-0.83798z" fill="#2d7a1a" stroke="none" stroke-width="0.5" stroke-linecap="butt"/><path d="M259.01165,116.45016c0.05184,-0.41095 0.42702,-0.70207 0.83798,-0.65023c0.41095,0.05184 0.70207,0.42702 0.65023,0.83798c-0.05184,0.41095 -0.42702,0.70207 -0.83798,0.65023c-0.41095,-0.05184 -0.70207,-0.42702 -0.65023,-0.83798z" fill="#2d7a1a" stroke="none" stroke-width="0.5" stroke-linecap="butt"/><path d="M265.9566,117.32631c0.05184,-0.41095 0.42702,-0.70207 0.83798,-0.65023c0.41095,0.05184 0.70207,0.42702 0.65023,0.83798c-0.05184,0.41095 -0.42702,0.70207 -0.83798,0.65023c-0.41095,-0.05184 -0.70207,-0.42702 -0.65023,-0.83798z" fill="#2d7a1a" stroke="none" stroke-width="0.5" stroke-linecap="butt"/><path d="M274.71243,118.22933c0.05184,-0.41095 0.42702,-0.70207 0.83798,-0.65023c0.41095,0.05184 0.70207,0.42702 0.65023,0.83798c-0.05184,0.41095 -0.42702,0.70207 -0.83798,0.65023c-0.41095,-0.05184 -0.70207,-0.42702 -0.65023,-0.83798z" fill="#2d7a1a" stroke="none" stroke-width="0.5" stroke-linecap="butt"/><path d="M289.22265,119.8583c0.05184,-0.41095 0.42702,-0.70207 0.83798,-0.65023c0.41095,0.05184 0.70207,0.42702 0.65023,0.83798c-0.05184,0.41095 -0.42702,0.70207 -0.83798,0.65023c-0.41095,-0.05184 -0.70207,-0.42702 -0.65023,-0.83798z" fill="#2d7a1a" stroke="none" stroke-width="0.5" stroke-linecap="butt"/><path d="M303.58451,121.06538c0.05184,-0.41095 0.42702,-0.70207 0.83798,-0.65023c0.41095,0.05184 0.70207,0.42702 0.65023,0.83798c-0.05184,0.41095 -0.42702,0.70207 -0.83798,0.65023c-0.41095,-0.05184 -0.70207,-0.42702 -0.65023,-0.83798z" fill="#2d7a1a" stroke="none" stroke-width="0.5" stroke-linecap="butt"/><path d="M313.33247,122.09356c0.05184,-0.41095 0.42702,-0.70207 0.83798,-0.65023c0.41095,0.05184 0.70207,0.42702 0.65023,0.83798c-0.05184,0.41095 -0.42702,0.70207 -0.83798,0.65023c-0.41095,-0.05184 -0.70207,-0.42702 -0.65023,-0.83798z" fill="#2d7a1a" stroke="none" stroke-width="0.5" stroke-linecap="butt"/><path d="M322.06327,123.19501c0.05184,-0.41095 0.42702,-0.70207 0.83798,-0.65023c0.41095,0.05184 0.70207,0.42702 0.65023,0.83798c-0.05184,0.41095 -0.42702,0.70207 -0.83798,0.65023c-0.41095,-0.05184 -0.70207,-0.42702 -0.65023,-0.83798z" fill="#2d7a1a" stroke="none" stroke-width="0.5" stroke-linecap="butt"/><path d="M333.025,125.78741c0.05184,-0.41095 0.42702,-0.70207 0.83798,-0.65023c0.41095,0.05184 0.70207,0.42702 0.65023,0.83798c-0.05184,0.41095 -0.42702,0.70207 -0.83798,0.65023c-0.41095,-0.05184 -0.70207,-0.42702 -0.65023,-0.83798z" fill="#2d7a1a" stroke="none" stroke-width="0.5" stroke-linecap="butt"/><path d="M339.96995,126.66356c0.05184,-0.41095 0.42702,-0.70207 0.83798,-0.65023c0.41095,0.05184 0.70207,0.42702 0.65023,0.83798c-0.05184,0.41095 -0.42702,0.70207 -0.83798,0.65023c-0.41095,-0.05184 -0.70207,-0.42702 -0.65023,-0.83798z" fill="#2d7a1a" stroke="none" stroke-width="0.5" stroke-linecap="butt"/><path d="M351.2803,128.09043c0.05184,-0.41095 0.42702,-0.70207 0.83798,-0.65023c0.41095,0.05184 0.70207,0.42702 0.65023,0.83798c-0.05184,0.41095 -0.42702,0.70207 -0.83798,0.65023c-0.41095,-0.05184 -0.70207,-0.42702 -0.65023,-0.83798z" fill="#2d7a1a" stroke="none" stroke-width="0.5" stroke-linecap="butt"/><path d="M357.62997,128.89148c0.05184,-0.41095 0.42702,-0.70207 0.83798,-0.65023c0.41095,0.05184 0.70207,0.42702 0.65023,0.83798c-0.05184,0.41095 -0.42702,0.70207 -0.83798,0.65023c-0.41095,-0.05184 -0.70207,-0.42702 -0.65023,-0.83798z" fill="#2d7a1a" stroke="none" stroke-width="0.5" stroke-linecap="butt"/><path d="M245.9203,132.33652c0.05184,-0.41095 0.42702,-0.70207 0.83798,-0.65023c0.41095,0.05184 0.70207,0.42702 0.65023,0.83798c-0.05184,0.41095 -0.42702,0.70207 -0.83798,0.65023c-0.41095,-0.05184 -0.70207,-0.42702 -0.65023,-0.83798z" fill="#33965e" stroke="none" stroke-width="0.5" stroke-linecap="butt"/><path d="M255.8203,130.56169c0.05184,-0.41095 0.42702,-0.70207 0.83798,-0.65023c0.41095,0.05184 0.70207,0.42702 0.65023,0.83798c-0.05184,0.41095 -0.42702,0.70207 -0.83798,0.65023c-0.41095,-0.05184 -0.70207,-0.42702 -0.65023,-0.83798z" fill="#33965e" stroke="none" stroke-width="0.5" stroke-linecap="butt"/><path d="M265.46446,135.60848c0.05184,-0.41095 0.42702,-0.70207 0.83798,-0.65023c0.41095,0.05184 0.70207,0.42702 0.65023,0.83798c-0.05184,0.41095 -0.42702,0.70207 -0.83798,0.65023c-0.41095,-0.05184 -0.70207,-0.42702 -0.65023,-0.83798z" fill="#33965e" stroke="none" stroke-width="0.5" stroke-linecap="butt"/><path d="M289.18293,132.95633c0.05184,-0.41095 0.42702,-0.70207 0.83798,-0.65023c0.41095,0.05184 0.70207,0.42702 0.65023,0.83798c-0.05184,0.41095 -0.42702,0.70207 -0.83798,0.65023c-0.41095,-0.05184 -0.70207,-0.42702 -0.65023,-0.83798z" fill="#33965e" stroke="none" stroke-width="0.5" stroke-linecap="butt"/><path d="M309.00062,135.65804c0.05184,-0.41095 0.42702,-0.70207 0.83798,-0.65023c0.41095,0.05184 0.70207,0.42702 0.65023,0.83798c-0.05184,0.41095 -0.42702,0.70207 -0.83798,0.65023c-0.41095,-0.05184 -0.70207,-0.42702 -0.65023,-0.83798z" fill="#33965e" stroke="none" stroke-width="0.5" stroke-linecap="butt"/><path d="M318.09773,141.84533c0.05184,-0.41095 0.42702,-0.70207 0.83798,-0.65023c0.41095,0.05184 0.70207,0.42702 0.65023,0.83798c-0.05184,0.41095 -0.42702,0.70207 -0.83798,0.65023c-0.41095,-0.05184 -0.70207,-0.42702 -0.65023,-0.83798z" fill="#33965e" stroke="none" stroke-width="0.5" stroke-linecap="butt"/><path d="M337.971,139.31283c0.05184,-0.41095 0.42702,-0.70207 0.83798,-0.65023c0.41095,0.05184 0.70207,0.42702 0.65023,0.83798c-0.05184,0.41095 -0.42702,0.70207 -0.83798,0.65023c-0.41095,-0.05184 -0.70207,-0.42702 -0.65023,-0.83798z" fill="#33965e" stroke="none" stroke-width="0.5" stroke-linecap="butt"/><path d="M328.27309,137.8878c0.05184,-0.41095 0.42702,-0.70207 0.83798,-0.65023c0.41095,0.05184 0.70207,0.42702 0.65023,0.83798c-0.05184,0.41095 -0.42702,0.70207 -0.83798,0.65023c-0.41095,-0.05184 -0.70207,-0.42702 -0.65023,-0.83798z" fill="#33965e" stroke="none" stroke-width="0.5" stroke-linecap="butt"/><path d="M347.22198,141.08466c0.05184,-0.41095 0.42702,-0.70207 0.83798,-0.65023c0.41095,0.05184 0.70207,0.42702 0.65023,0.83798c-0.05184,0.41095 -0.42702,0.70207 -0.83798,0.65023c-0.41095,-0.05184 -0.70207,-0.42702 -0.65023,-0.83798z" fill="#33965e" stroke="none" stroke-width="0.5" stroke-linecap="butt"/><path d="M362.42027,148.44482c0.05184,-0.41095 0.42702,-0.70207 0.83798,-0.65023c0.41095,0.05184 0.70207,0.42702 0.65023,0.83798c-0.05184,0.41095 -0.42702,0.70207 -0.83798,0.65023c-0.41095,-0.05184 -0.70207,-0.42702 -0.65023,-0.83798z" fill="#33965e" stroke="none" stroke-width="0.5" stroke-linecap="butt"/><path d="M249.39853,149.5069c0.05184,-0.41095 0.42702,-0.70207 0.83798,-0.65023c0.41095,0.05184 0.70207,0.42702 0.65023,0.83798c-0.05184,0.41095 -0.42702,0.70207 -0.83798,0.65023c-0.41095,-0.05184 -0.70207,-0.42702 -0.65023,-0.83798z" fill="#75f20f" stroke="none" stroke-width="0.5" stroke-linecap="butt"/><path d="M256.24702,147.95186c0.05184,-0.41095 0.42702,-0.70207 0.83798,-0.65023c0.41095,0.05184 0.70207,0.42702 0.65023,0.83798c-0.05184,0.41095 -0.42702,0.70207 -0.83798,0.65023c-0.41095,-0.05184 -0.70207,-0.42702 -0.65023,-0.83798z" fill="#75f20f" stroke="none" stroke-width="0.5" stroke-linecap="butt"/><path d="M258.57441,151.87401c0.05184,-0.41095 0.42702,-0.70207 0.83798,-0.65023c0.41095,0.05184 0.70207,0.42702 0.65023,0.83798c-0.05184,0.41095 -0.42702,0.70207 -0.83798,0.65023c-0.41095,-0.05184 -0.70207,-0.42702 -0.65023,-0.83798z" fill="#75f20f" stroke="none" stroke-width="0.5" stroke-linecap="butt"/><path d="M312.65042,154.66433c0.05184,-0.41095 0.42702,-0.70207 0.83798,-0.65023c0.41095,0.05184 0.70207,0.42702 0.65023,0.83798c-0.05184,0.41095 -0.42702,0.70207 -0.83798,0.65023c-0.41095,-0.05184 -0.70207,-0.42702 -0.65023,-0.83798z" fill="#75f20f" stroke="none" stroke-width="0.5" stroke-linecap="butt"/><path d="M366.20257,160.00917c0.05184,-0.41095 0.42702,-0.70207 0.83798,-0.65023c0.41095,0.05184 0.70207,0.42702 0.65023,0.83798c-0.05184,0.41095 -0.42702,0.70207 -0.83798,0.65023c-0.41095,-0.05184 -0.70207,-0.42702 -0.65023,-0.83798z" fill="#75f20f" stroke="none" stroke-width="0.5" stroke-linecap="butt"/><path d="M374.23612,163.44168c0.05184,-0.41095 0.42702,-0.70207 0.83798,-0.65023c0.41095,0.05184 0.70207,0.42702 0.65023,0.83798c-0.05184,0.41095 -0.42702,0.70207 -0.83798,0.65023c-0.41095,-0.05184 -0.70207,-0.42702 -0.65023,-0.83798z" fill="#75f20f" stroke="none" stroke-width="0.5" stroke-linecap="butt"/></g><path d="M268.2361,157.67226c1.18111,-9.36229 9.72822,-15.99446 19.09052,-14.81335c9.36229,1.18111 15.99446,9.72822 14.81335,19.09054c-1.18111,9.36229 -9.72822,15.99446 -19.09054,14.81335c-9.36229,-1.18111 -15.99444,-9.72822 -14.81333,-19.09053z" fill="none" stroke="#191919" stroke-width="5" stroke-linecap="butt"/><path d="M354.41833,169.53421c-1.03882,8.23439 -8.55622,14.06754 -16.7906,13.02873c-8.23437,-1.03882 -14.06753,-8.55625 -13.02871,-16.79062c1.03882,-8.23439 8.55624,-14.06754 16.79061,-13.02872c8.23437,1.03882 14.06752,8.55624 13.0287,16.79061z" fill="#191919" stroke="#000000" stroke-width="0" stroke-linecap="butt"/><path d="M276.0588,158.65914c0.63607,-5.04193 5.239,-8.6136 10.28094,-7.97753c5.04193,0.63607 8.6136,5.239 7.97752,10.28095c-0.63607,5.04193 -5.239,8.6136 -10.28095,7.97753c-5.04193,-0.63607 -8.61359,-5.239 -7.97752,-10.28094z" fill="none" stroke="#191919" stroke-width="5" stroke-linecap="butt"/></g></g></g></svg>