<svg version="1.1" xmlns="http://www.w3.org/2000/svg" xmlns:xlink="http://www.w3.org/1999/xlink" width="213.18203" height="280.18475" viewBox="0,0,213.18203,280.18475"><defs><linearGradient x1="271.48515" y1="174.50883" x2="272.11774" y2="213.30648" gradientUnits="userSpaceOnUse" id="color-1"><stop offset="0" stop-color="#a9a9a9"/><stop offset="1" stop-color="#000000"/></linearGradient><linearGradient x1="323.90893" y1="160.11918" x2="324.56817" y2="200.55101" gradientUnits="userSpaceOnUse" id="color-2"><stop offset="0" stop-color="#a9a9a9"/><stop offset="1" stop-color="#000000"/></linearGradient></defs><g transform="translate(-214.52362,-38.88751)"><g stroke-miterlimit="10"><g stroke="#000000"><g fill="#000000" stroke-width="0" stroke-linecap="butt"><path d="M286.35186,319.07226c0,0 -43.77636,-75.58442 -45.71028,-94.46024c-0.82745,-8.07637 34.2573,-17.32537 34.2573,-17.32537l40.72078,-30.62255c0,0 55.9034,-2.74144 58.98775,6.72194c6.50715,19.96526 -21.75557,135.68622 -21.75557,135.68622z"/></g><path d="M300.69718,228.92116l13.55477,37.19432l-4.73221,7.48525l-11.77246,-8.22254l-3.69147,-36.27774z" fill="#ffffff" stroke-width="2" stroke-linecap="round"/><path d="M305.14993,224.10277c0.48522,2.03949 1.4179,4.18935 0.13994,5.5543c-1.35189,1.44394 -5.00182,2.04501 -7.6462,2.04501c-2.25931,0 -5.08349,-0.20928 -6.95598,-1.30097c-2.39091,-1.39392 -3.60631,-3.9447 -4.1663,-6.29836c-0.51227,-2.15323 -0.61712,-4.99131 0.81754,-6.37409c1.36172,-1.31247 4.18372,-1.22522 6.68871,-1.22522c2.95234,0 6.12956,0.07764 8.25202,1.82607c1.57569,1.29799 2.4448,3.98502 2.87026,5.77325z" fill="#ffffff" stroke-width="2" stroke-linecap="butt"/></g><path d="M214.52362,306.61252v-267.72501h213.18203v267.72501z" fill="none" stroke="none" stroke-width="0" stroke-linecap="butt"/><path d="" fill="none" stroke="#000000" stroke-width="2" stroke-linecap="round"/><path d="M217.25549,261.10422c0,-0.41421 0.33579,-0.75 0.75,-0.75c0.41421,0 0.75,0.33579 0.75,0.75c0,0.41421 -0.33579,0.75 -0.75,0.75c-0.41421,0 -0.75,-0.33579 -0.75,-0.75z" fill="#000000" stroke="none" stroke-width="0.5" stroke-linecap="butt"/><g stroke="#000000" stroke-linecap="butt"><path d="M235.79219,197.55248c-6.55662,-32.65003 16.32514,-64.78048 51.10785,-71.76538c34.78273,-6.9849 68.2949,13.82078 74.85151,46.4708c6.55662,32.65003 -16.32513,64.78049 -51.10786,71.7654c-34.7827,6.98489 -68.29489,-13.82079 -74.8515,-46.4708z" fill="#000000" stroke-width="2"/><path d="M248.53153,194.45079c-0.69747,-3.47316 10.05089,-17.38713 21.24414,-19.6349c11.19326,-2.24779 24.22084,7.51488 24.79798,10.38892c2.5532,12.71419 -5.6839,25.09085 -18.39806,27.64405c-12.71419,2.5532 -25.09085,-5.68392 -27.64404,-18.39807z" fill="url(#color-1)" stroke-width="2"/><path d="M256.52563,186.79699c-1.47241,-7.33216 3.27785,-14.46971 10.61002,-15.94212c7.33215,-1.4724 14.46972,3.27788 15.94212,10.61004c1.47241,7.33216 -3.27787,14.46972 -10.61004,15.94213c-7.33215,1.4724 -14.46969,-3.27785 -15.94212,-10.61004z" fill="#000000" stroke-width="5"/><path d="M328.62439,200.0934c-12.71419,2.5532 -25.09084,-5.68391 -27.64403,-18.39807c-0.6016,-2.9958 8.36717,-19.03556 19.49236,-21.26966c11.12518,-2.23411 25.87546,8.66589 26.54977,12.0237c2.5532,12.71419 -5.68389,25.09086 -18.39807,27.64404z" fill="url(#color-2)" stroke-width="2"/><path d="M335.81636,166.9938c1.49264,7.43282 -3.32285,14.6683 -10.75564,16.16093c-7.43278,1.49262 -14.66829,-3.32287 -16.16092,-10.75566c-1.49264,-7.43282 3.32286,-14.66829 10.75564,-16.16093c7.43278,-1.49262 14.66829,3.32286 16.1609,10.75564z" fill="#000000" stroke-width="5"/><path d="M235.25013,196.0991l-18.93104,-51.03c0,0 34.12487,-28.99175 60.77858,-36.14844c26.65372,-7.15669 65.23179,2.31386 65.23179,2.31386l17.97035,52.74064z" fill="#000000" stroke-width="2"/><path d="M231.40599,197.05564l1.49316,-9.19582l123.94898,-29.22716l2.68727,7.34099z" fill="#ffffff" stroke-width="0"/><path d="M226.07666,206.26045c0,0 -3.50392,-2.5285 -4.61687,-4.20144c-1.18885,-1.78703 -2.30352,-6.20104 -2.30352,-6.20104l152.13379,-35.4459c0,0 0.31298,3.58246 0.09189,5.56491c-0.24019,2.15344 -1.4805,6.88529 -1.4805,6.88529z" fill="#000000" stroke-width="2"/></g><g fill-opacity="0.21176" fill="#ffffff" stroke="none" stroke-width="0.5" stroke-linecap="butt"><path d="M281.53351,218.33104c0.74496,-0.08677 0.83173,0.6582 0.83173,0.6582l0.01102,0.09462c0.17801,0.07373 0.28877,0.17801 0.3558,0.2905c0.44135,0.1275 0.50064,0.63655 0.50064,0.63655c0.09189,0.78897 0.09078,1.56546 0.08714,2.33077c0.43766,1.3176 0.79662,2.63991 0.44926,3.24298c-0.07384,0.12819 -0.1478,0.24169 -0.22169,0.34154l0.00411,0.03531c0,0 0.08677,0.74496 -0.6582,0.83173c-0.43507,0.05067 -0.64565,-0.18234 -0.74555,-0.38496c-0.36867,-0.21134 -0.68711,-0.65374 -0.91377,-1.12606c-0.51629,-1.0759 -0.43646,-3.08445 -0.15865,-4.58503c-0.06039,-0.38082 -0.11059,-0.76771 -0.15704,-1.16518l-0.043,-0.36922c0,0 -0.08677,-0.74496 0.6582,-0.83173z"/><path d="M290.05074,220.71374c0.05118,0.43944 0.10236,0.87887 0.15354,1.31831c0.03505,0.09772 0.0418,0.19356 0.03281,0.28167l0.11468,0.9846c0.00934,0.08019 0.00567,0.15888 -0.00935,0.23399l0.13331,0.83777c0.00196,0.01186 0.00364,0.02384 0.00505,0.03592c0.04792,0.41143 -0.24677,0.78381 -0.6582,0.83173c-0.26268,0.03059 -0.50945,-0.07847 -0.66601,-0.2684l-0.85329,-1.00498c-0.09509,-0.10874 -0.1598,-0.24598 -0.17908,-0.39983l-0.02537,-0.20004c-0.17409,-0.23699 -0.32657,-0.48747 -0.45015,-0.75307l0.02521,-0.12389l-0.04872,0.00567l-0.12901,-1.10767c-0.02936,-0.25212 0.06992,-0.48957 0.24588,-0.64669l-0.3785,-1.28568c-0.01397,-0.04445 -0.02396,-0.09085 -0.02955,-0.13883c-0.04792,-0.41143 0.24677,-0.78381 0.6582,-0.83173c0.29542,-0.03441 0.57071,0.10782 0.7202,0.34308l0.82164,1.2357l-0.01244,0.00826c0.46734,0.11331 0.52916,0.64412 0.52916,0.64412z"/><path d="M294.55318,221.27431c-0.1715,-0.29511 -0.31225,-0.61055 -0.43027,-0.92116l0.06917,-0.10014l-0.08554,0.01024l-0.04678,-0.39068l-0.00358,0.00042l-0.12827,-1.10152v0c-0.04791,-0.41143 0.24677,-0.7838 0.6582,-0.83172c0.40721,-0.04743 0.77615,0.24075 0.83015,0.64556c0.73904,-0.08175 0.8253,0.65893 0.8253,0.65893c0.00814,0.07376 0.01579,0.14773 0.02287,0.22185c0.02548,0.09517 0.02875,0.18875 0.02299,0.26819c0.05606,0.74262 0.04703,1.49627 -0.10192,2.22139c0.00564,0.05856 0.01165,0.11745 0.01819,0.17657l0.14168,1.21647c0.04792,0.41143 -0.24677,0.78381 -0.6582,0.83173c-0.41143,0.04792 -0.78381,-0.24677 -0.83173,-0.6582l-0.043,-0.36922v0l-0.10958,-0.94084c-0.04569,-0.36915 -0.09834,-0.67265 -0.14966,-0.93785z"/><path d="M305.5329,216.6973c0.73417,0.15327 0.58091,0.88744 0.58091,0.88744l-0.21878,1.00198c0.03088,0.26516 0.11837,1.01634 0.11837,1.01634c0.04792,0.41143 -0.24677,0.78381 -0.6582,0.83173c-0.21986,0.02561 -0.42857,-0.04662 -0.58257,-0.18222c-0.11872,0.16736 -0.30524,0.28562 -0.5251,0.31123c-0.41143,0.04792 -0.78381,-0.24677 -0.83173,-0.6582l-0.12901,-1.10767c0,0 -0.05749,-0.49359 0.32291,-0.72402c-0.038,-0.1423 -0.06498,-0.2865 -0.08269,-0.42666l-0.12901,-1.10767c-0.04792,-0.41143 0.24677,-0.78381 0.6582,-0.83173c0.33511,-0.03903 0.64432,0.14923 0.77339,0.44274l0.26603,0.56848c0.11574,-0.04395 0.25947,-0.05888 0.43729,-0.02176z"/><path d="M309.37378,213.22395c-0.04792,-0.41143 0.24677,-0.78381 0.6582,-0.83173c0.41143,-0.04792 0.78381,0.24677 0.83173,0.6582l0.30102,2.58457c0.03196,0.2744 -0.08847,0.53142 -0.29429,0.6864l0.05407,0.46427c0.04792,0.41143 -0.24677,0.78381 -0.6582,0.83173c-0.33511,0.03903 -0.64432,-0.14923 -0.77339,-0.44274c-0.16608,-0.35489 -0.82305,-1.75878 -0.98914,-2.11367c0,0 -0.31789,-0.6793 0.36141,-0.99719c0.11839,-0.0554 0.2258,-0.08051 0.32246,-0.08422c0.04232,-0.11115 0.11486,-0.22465 0.23812,-0.30918z"/><path d="M316.59182,212.04118c0.73417,0.15327 0.58091,0.88744 0.58091,0.88744l-0.22515,1.0311c0.04383,0.34957 0.03585,0.70214 -0.00543,1.05403l0.1348,-0.00437l0.01434,0.44154c0.03415,0.07207 0.05729,0.15088 0.06703,0.23449c0.01487,0.12768 -0.00326,0.25159 -0.04761,0.36322l0.00194,0.05962c0.01673,0.389 -0.2697,0.73067 -0.66261,0.77643c-0.35682,0.04156 -0.68427,-0.17457 -0.79616,-0.50107l-0.38032,-1.03653l-0.02052,-0.01473c-0.00273,-0.02116 -0.00545,-0.04232 -0.00817,-0.06348l-0.10238,-0.27901l0.00399,-0.00146l-0.00891,-0.01237c0,-0.00515 0,-0.01029 0.00001,-0.01542l-0.00465,0.0015l-0.45642,-1.41264c-0.01738,-0.05039 -0.02962,-0.10341 -0.03604,-0.15852c-0.04792,-0.41143 0.24677,-0.78381 0.6582,-0.83173c0.1439,-0.01676 0.28302,0.00839 0.40516,0.06579l0.00057,-0.00287c0,0 0.15327,-0.73417 0.88744,-0.58091z"/><path d="M323.37954,211.26909c-0.00285,-0.01654 -0.00565,-0.03308 -0.00841,-0.04963l-0.00983,0.00115l-0.17201,-1.4769c-0.04792,-0.41143 0.24677,-0.78381 0.6582,-0.83173c0.27326,-0.03183 0.52929,0.08747 0.68449,0.29174c0.07207,-0.0139 0.15326,-0.01855 0.24475,-0.01108c0.74752,0.06102 0.6865,0.80853 0.6865,0.80853c-0.08136,0.99668 -0.16272,1.99337 -0.24408,2.99005l-0.06321,0.77434c-0.02198,0.35547 -0.29569,0.65515 -0.66188,0.6978c-0.41143,0.04792 -0.78381,-0.24677 -0.83173,-0.6582l-0.21502,-1.84612l0.00155,-0.00018c-0.02482,-0.22974 -0.04789,-0.45969 -0.06931,-0.68978z"/><path d="M329.55938,209.75686c-0.35683,0.04156 -0.56264,-0.1077 -0.68025,-0.27452c-0.06164,0.10305 -0.12452,0.20539 -0.18858,0.30703l0.05328,0.01931l-0.27768,0.76618c-0.09011,0.26589 -0.32649,0.47005 -0.62389,0.50468c-0.33511,0.03903 -0.64432,-0.14923 -0.77339,-0.44274l-0.4909,-1.049l0.03358,-0.01571l-0.07572,-0.0972c-0.05084,-0.40863 -0.10169,-0.81725 -0.15252,-1.22589c0,0 -0.08677,-0.74496 0.6582,-0.83173c0.74496,-0.08677 0.83173,0.6582 0.83173,0.6582c0.00458,0.04293 0.00915,0.08586 0.01373,0.12879c0.02344,-0.04629 0.04636,-0.09089 0.06803,-0.13329l0.26575,-0.73325c0.09011,-0.26589 0.32649,-0.47005 0.62389,-0.50468c0.29739,-0.03464 0.57438,0.10973 0.72318,0.34779l0.44633,0.68185l0.20346,1.06245c0,0 0.08677,0.74496 -0.6582,0.83173z"/><path d="M328.06042,222.64875c-0.05291,-0.45429 0.20347,-0.66381 0.41161,-0.75815c-0.15063,-0.48656 -0.23598,-0.99978 -0.3004,-1.5002c0,0 -0.08677,-0.74496 0.6582,-0.83173c0.74496,-0.08677 0.83173,0.6582 0.83173,0.6582c0.06425,0.63589 0.14364,1.32451 0.50979,1.84834l-1.2792,1.24173c0,0 -0.74496,0.08677 -0.83173,-0.6582z"/><path d="M325.13241,226.05674c0.05228,-0.03422 0.10305,-0.06123 0.1522,-0.08201l0.03195,-1.23104c0.00371,-0.37222 0.28385,-0.69234 0.66327,-0.73653c0.33511,-0.03903 0.64432,0.14923 0.77339,0.44274l0.4909,1.049c0,0 0.31789,0.6793 -0.36141,0.99719c-0.0386,0.01807 -0.07603,0.03291 -0.11231,0.04483l-0.02199,0.8472c-0.00371,0.37222 -0.28385,0.69234 -0.66327,0.73653c-0.29739,0.03464 -0.57438,-0.10973 -0.72318,-0.34779l-0.44633,-0.68185l0.34576,-0.22633l0.01652,-0.63653l1.49949,0.03892l-0.00701,0.26985c-0.02905,0.00955 -0.05736,0.01724 -0.08492,0.02322l-0.48213,1.537l-1.28772,-1.00613c0,0 -0.41076,-0.62751 0.21675,-1.03828z"/><path d="M321.2631,231.73902c-0.02083,-0.10133 -0.02482,-0.19157 -0.0162,-0.27183c-0.01796,-0.05132 -0.03058,-0.1054 -0.03713,-0.16167l-0.17201,-1.4769c-0.04792,-0.41143 0.24677,-0.78381 0.6582,-0.83173c0.29739,-0.03464 0.57438,0.10973 0.72318,0.34779c0.15175,0.23181 0.74982,1.14548 0.90156,1.3773c0,0 0.41076,0.62751 -0.21675,1.03828c-0.22375,0.14646 -0.41993,0.16092 -0.57978,0.11889l-0.3754,0.44346c0,0 -0.73463,0.15104 -0.88567,-0.5836z"/><path d="M314.83288,233.86926c-0.44929,-0.12327 -0.50935,-0.63899 -0.50935,-0.63899l1.32681,-0.87079c0.32142,0.48483 0.36329,1.11895 0.67864,1.60774c0.33033,0.51201 -0.37414,-1.21439 -0.24962,-1.81086c0.13381,-0.64095 0.13941,-1.54756 0.73386,-1.82209c0.52244,-0.24128 1.03032,0.51295 1.54547,0.76943c0,0 0.58812,0.46542 0.1227,1.05354c-0.34523,0.43625 -0.75796,0.29282 -0.94811,0.18966c0.22129,0.75853 0.51467,2.79348 -0.96924,3.1018c-0.72418,0.15047 -1.13711,-0.95089 -1.64862,-1.48515c-0.02898,-0.03026 -0.05637,-0.06176 -0.08254,-0.09427z"/><path d="M308.99136,235.27512c-0.70512,-0.25555 -0.44957,-0.96067 -0.44957,-0.96067l0.2678,-0.73891c0.03844,-0.15535 0.12792,-0.33467 0.33085,-0.44264c0.11929,-0.07884 0.27621,-0.12823 0.47701,-0.09452c0.20317,0.0133 0.34454,0.09742 0.44254,0.20155c0.17403,0.15284 0.21931,0.34975 0.22037,0.51045l0.0282,0.26024c0.5843,3.22438 1.164,-0.73217 2.46005,-1.64885c0,0 0.62751,-0.41076 1.03828,0.21675c0.41076,0.62751 -0.21675,1.03828 -0.21675,1.03828c-1.62799,0.92112 -1.99501,6.19877 -4.53616,1.6994c-0.00459,-0.00813 -0.00904,-0.01631 -0.01335,-0.02455c-0.01618,-0.00499 -0.03259,-0.0105 -0.04926,-0.01654z"/><path d="M304.92667,232.82116c0.74496,-0.08677 0.83173,0.6582 0.83173,0.6582l0.11838,1.01645c0.35675,-0.23584 0.71349,-0.47169 1.07024,-0.70754c0,0 0.62751,-0.41076 1.03828,0.21675c0.41076,0.62751 -0.21675,1.03828 -0.21675,1.03828c-0.3833,0.24805 -0.7666,0.4961 -1.14988,0.74414l-0.7349,0.85152c-0.11852,0.13826 -0.28739,0.23398 -0.48254,0.25671c-0.41143,0.04792 -0.78381,-0.24677 -0.83173,-0.6582l-0.30102,-2.58457c0,0 -0.08677,-0.74496 0.6582,-0.83173z"/><path d="M301.04099,235.09193l-0.91376,0.8779c0.14263,-0.1337 0.28526,-0.26741 0.42789,-0.4011l0.12901,1.10767l-1.33835,-0.98979c0,0 -0.41076,-0.62751 0.21675,-1.03828c0.15264,-0.09992 0.29245,-0.1384 0.41665,-0.13943c0.02093,-0.05421 0.04909,-0.10888 0.08685,-0.16043l-0.02213,-0.18997c0.03911,0.02893 0.07823,0.05785 0.11734,0.08678c0.09688,-0.08355 0.23216,-0.14768 0.42073,-0.16964c0.74496,-0.08677 0.83173,0.6582 0.83173,0.6582l-0.25743,0.24732c0.07533,0.05571 0.15065,0.11142 0.22598,0.16713l-0.30029,-0.0496l0.09152,0.78583c0.04792,0.41143 -0.24677,0.78381 -0.6582,0.83173c-0.29739,0.03464 -0.57438,-0.10973 -0.72318,-0.34779l-0.44633,-0.68185l0.27365,-0.17913l-0.06488,-0.55709l1.48993,-0.17353l0.03748,0.32184z"/><path d="M292.3888,232.57656c0,0 -0.58812,-0.46542 -0.1227,-1.05354c0.46542,-0.58812 1.05354,-0.1227 1.05354,-0.1227c0.18332,0.14755 0.36664,0.29512 0.54997,0.44267c0.01015,-1.26405 1.62789,-0.49739 2.37749,0.63421l-1.33098,1.14886c0,0 -0.03533,0.00411 -0.09149,0.00285c-0.10194,0.24005 -0.32638,0.42005 -0.60395,0.45238c-0.29739,0.03464 -0.57438,-0.10973 -0.72318,-0.34779l-0.39591,-0.60483c-0.2376,-0.18404 -0.47518,-0.36807 -0.71278,-0.55211z"/><path d="M285.93209,229.76423c0,0 -0.41076,-0.62751 0.21675,-1.03828c0.62751,-0.41076 1.03828,0.21675 1.03828,0.21675c0.01365,0.02413 0.02786,0.04866 0.04226,0.07353c0.02179,-0.01699 0.04514,-0.03371 0.07014,-0.05007c0.00766,-0.00502 0.01529,-0.00988 0.02289,-0.01459c0.0874,-0.27096 0.32607,-0.48 0.62733,-0.51509c0.41143,-0.04792 0.78381,0.24677 0.83173,0.6582l0.12901,1.10767c0.04792,0.41143 -0.24677,0.78381 -0.6582,0.83173c-0.2124,0.02474 -0.4144,-0.04183 -0.56671,-0.16864c-0.68239,-0.20331 -1.35668,-0.54022 -1.75347,-1.10122z"/></g></g></g></svg>