<svg version="1.1" xmlns="http://www.w3.org/2000/svg" xmlns:xlink="http://www.w3.org/1999/xlink" width="213.18203" height="280.18476" viewBox="0,0,213.18203,280.18476"><g transform="translate(-214.52362,-38.88751)"><g stroke-miterlimit="10"><g stroke-linecap="butt"><path d="M286.35186,319.07226l15.14285,-131.8421l37.78325,-0.15789l13.57389,132z" fill="#a93232" stroke="#000000" stroke-width="0"/><path d="M293.00635,261.13452c2.74487,-23.89841 8.48836,-73.90436 8.48836,-73.90436l37.78325,-0.15789c0,0 5.18875,49.85827 7.69612,74.24128c0.01364,0.13261 -53.98445,-0.03335 -53.96772,-0.17903z" fill="#9d2f3a" stroke="#000000" stroke-width="0"/><path d="M294.04743,252.07032c2.50278,-21.79059 7.44728,-64.84016 7.44728,-64.84016l37.78325,-0.15789c0,0 4.4242,43.02332 6.66599,64.82381c0.03141,0.30549 -51.94147,0.56558 -51.89652,0.17424z" fill="#942c3b" stroke="#000000" stroke-width="0"/><path d="M301.49471,187.23016l37.78325,-0.15789l7.53186,58.01527c0,0 -5.52306,-0.76412 -6.92133,-0.90214l0.00749,-0.04127l-0.48712,-0.0884c-0.016,-0.00322 -0.03254,-0.0049 -0.04949,-0.0049c-0.13807,0 -0.25,0.11193 -0.25,0.25c0,0.04409 0.01141,0.08552 0.03145,0.12148l0.23231,0.43736c0.123,0.23124 0.24538,0.5705 0.38232,0.90381c-0.37148,-0.33345 -0.77382,-0.64017 -1.12919,-0.99429c-0.38626,-0.38297 -2.23559,-1.95898 -2.85854,-1.56149c-1.49667,0.95499 1.14954,7.14342 -2.20456,3.67889c-0.34409,-0.39178 -1.32011,-1.90788 -1.8599,-1.93658c-0.71283,-0.03789 -2.08925,3.10834 -2.2473,3.02684c-0.63202,-0.32591 -1.62122,-2.43297 -2.09521,-3.07026c-0.20167,-0.19552 -1.03491,-1.17622 -1.31894,-1.12193c-0.29258,0.05593 -0.71091,1.29206 -0.77558,1.54857c-0.3107,1.23257 -1.43283,4.47865 -1.20436,6.0625c-1.23125,-1.34336 -2.04426,-3.20717 -3.15722,-4.70131l0.02198,-0.01167l-0.20246,-0.38135c-0.0412,-0.08148 -0.1257,-0.13736 -0.22325,-0.13736c-0.1113,0 -0.20561,0.07273 -0.238,0.17325l-0.16255,0.4667c-0.05451,0.15652 -0.10902,0.31304 -0.16353,0.46957c-0.18509,0.49576 -0.61517,2.88396 -1.12868,3.05381c-0.42363,0.14012 -1.28892,-2.21834 -1.58993,-2.3507c-0.84379,-0.37102 -1.31275,1.23764 -1.29003,2.25784c-1.94281,-2.33382 -2.99468,-4.92948 -6.16706,-6.09861c-2.49887,-0.88899 -4.81101,1.71067 -5.3339,3.92684c-0.04559,0.19324 -0.10282,0.46112 -0.14855,0.7564c-0.37996,-1.536 -0.9571,-3.47767 -1.63956,-3.56104c-0.94022,-0.11486 -1.74563,1.9818 -1.75639,3.24301c-1.17689,-1.06694 -2.9206,0.67637 -3.37136,1.68632c-0.05109,-0.36434 -1.54165,-2.501 -1.65072,-2.8319c0.21987,-1.20535 -3.61083,-1.26063 -3.61083,-1.26063z" fill="#a2f30f" stroke="#000000" stroke-width="0"/><path d="M301.49471,187.23016l37.78325,-0.15789c0,0 4.42084,34.05212 5.78825,44.5848c0.01988,0.15319 -50.50566,-0.27517 -50.46947,-0.50562c1.69416,-10.78723 6.89797,-43.9213 6.89797,-43.9213z" fill="#75f20f" stroke="#000000" stroke-width="0"/><path d="M301.49471,187.23016l37.78325,-0.15789c0,0 2.99108,23.83918 4.32515,34.1151c0.01396,0.10756 -47.56257,0.2241 -47.5334,0.03837c1.60192,-10.19991 5.425,-33.99558 5.425,-33.99558z" fill="#33965e" stroke="#000000" stroke-width="0"/><path d="M301.49471,187.23016l37.78325,-0.15789c0,0 2.54744,19.28154 3.76806,28.68356c0.01222,0.09411 -45.95233,-0.50319 -45.94397,-0.55642c1.50063,-9.55496 4.39265,-27.96925 4.39265,-27.96925z" fill="#2d7a1a" stroke="#000000" stroke-width="0"/><path d="M296.95582,214.9c0,-0.9665 0.7835,-1.75 1.75,-1.75c0.9665,0 1.75,0.7835 1.75,1.75c0,0.9665 -0.7835,1.75 -1.75,1.75c-0.9665,0 -1.75,-0.7835 -1.75,-1.75z" fill="#2d7a1a" stroke="none" stroke-width="0.5"/><path d="M304.35582,214.7c0,-0.9665 0.7835,-1.75 1.75,-1.75c0.9665,0 1.75,0.7835 1.75,1.75c0,0.9665 -0.7835,1.75 -1.75,1.75c-0.9665,0 -1.75,-0.7835 -1.75,-1.75z" fill="#2d7a1a" stroke="none" stroke-width="0.5"/><path d="M310.65582,214.9c0,-0.30962 0.11257,-0.59294 0.29901,-0.81128c0.29248,-0.55801 0.87728,-0.93872 1.55099,-0.93872c0.9665,0 1.75,0.7835 1.75,1.75c0,0.9665 -0.7835,1.75 -1.75,1.75c-0.67371,0 -1.25851,-0.3807 -1.55099,-0.93872c-0.18644,-0.21834 -0.29901,-0.50166 -0.29901,-0.81128z" fill="#2d7a1a" stroke="none" stroke-width="0.5"/><path d="M316.90582,216.75c-0.30962,0 -0.59294,-0.11257 -0.81128,-0.29901c-0.55801,-0.29248 -0.93872,-0.87728 -0.93872,-1.55099c0,-0.9665 0.7835,-1.75 1.75,-1.75c0.11289,0 0.22328,0.01069 0.33022,0.03111c0.25622,-0.14704 0.55318,-0.23111 0.86978,-0.23111c0.9665,0 1.75,0.7835 1.75,1.75c0,0.9665 -0.7835,1.75 -1.75,1.75c-0.11289,0 -0.22328,-0.01069 -0.33022,-0.03111c-0.01927,0.01106 -0.03877,0.02176 -0.0585,0.0321c-0.21834,0.18644 -0.50166,0.29901 -0.81128,0.29901z" fill="#2d7a1a" stroke="none" stroke-width="0.5"/><path d="M324.05582,216.9c0,-0.48464 0.27581,-0.90486 0.67902,-1.11227c-0.23728,-0.29867 -0.37902,-0.67665 -0.37902,-1.08773c0,-0.9665 0.7835,-1.75 1.75,-1.75c0.9665,0 1.75,0.7835 1.75,1.75c0,0.84585 -0.6001,1.55153 -1.39777,1.71454c0.06296,0.14926 0.09777,0.31329 0.09777,0.48546c0,0.69036 -0.55964,1.25 -1.25,1.25c-0.69036,0 -1.25,-0.55964 -1.25,-1.25z" fill="#2d7a1a" stroke="none" stroke-width="0.5"/><path d="M330.55582,215.5c0,-0.9665 0.7835,-1.75 1.75,-1.75c0.9665,0 1.75,0.7835 1.75,1.75c0,0.9665 -0.7835,1.75 -1.75,1.75c-0.9665,0 -1.75,-0.7835 -1.75,-1.75z" fill="#2d7a1a" stroke="none" stroke-width="0.5"/><path d="M334.15582,215.5c0,-0.9665 0.7835,-1.75 1.75,-1.75c0.9665,0 1.75,0.7835 1.75,1.75c0,0.9665 -0.7835,1.75 -1.75,1.75c-0.9665,0 -1.75,-0.7835 -1.75,-1.75z" fill="#2d7a1a" stroke="none" stroke-width="0.5"/><path d="M338.15582,215.5c0,-0.9665 0.7835,-1.75 1.75,-1.75c0.9665,0 1.75,0.7835 1.75,1.75c0,0.9665 -0.7835,1.75 -1.75,1.75c-0.9665,0 -1.75,-0.7835 -1.75,-1.75z" fill="#2d7a1a" stroke="none" stroke-width="0.5"/><path d="M296.15582,221.3c0,-0.9665 0.7835,-1.75 1.75,-1.75c0.9665,0 1.75,0.7835 1.75,1.75c0,0.9665 -0.7835,1.75 -1.75,1.75c-0.9665,0 -1.75,-0.7835 -1.75,-1.75z" fill="#33965e" stroke="none" stroke-width="0.5"/><path d="M340.55582,221.1c0,-0.9665 0.7835,-1.75 1.75,-1.75c0.9665,0 1.75,0.7835 1.75,1.75c0,0.9665 -0.7835,1.75 -1.75,1.75c-0.9665,0 -1.75,-0.7835 -1.75,-1.75z" fill="#33965e" stroke="none" stroke-width="0.5"/><path d="M334.85582,220.3c0,-0.69036 0.55964,-1.25 1.25,-1.25c0.05573,0 0.11061,0.00365 0.16441,0.01072c0.31654,-0.3156 0.75328,-0.51072 1.23559,-0.51072c0.03356,0 0.0669,0.00094 0.1,0.00281c0.0331,-0.00186 0.06644,-0.00281 0.1,-0.00281c0.9665,0 1.75,0.7835 1.75,1.75c0,0.9665 -0.7835,1.75 -1.75,1.75c-0.03356,0 -0.0669,-0.00094 -0.1,-0.00281c-0.0331,0.00186 -0.06644,0.00281 -0.1,0.00281c-0.48231,0 -0.91905,-0.19511 -1.23559,-0.51072c-0.0538,0.00707 -0.10868,0.01072 -0.16441,0.01072c-0.69036,0 -1.25,-0.55964 -1.25,-1.25z" fill="#33965e" stroke="none" stroke-width="0.5"/><path d="M330.15582,221.1c0,-0.9665 0.7835,-1.75 1.75,-1.75c0.03356,0 0.0669,0.00094 0.1,0.00281c0.0331,-0.00186 0.06644,-0.00281 0.1,-0.00281c0.9665,0 1.75,0.7835 1.75,1.75c0,0.9665 -0.7835,1.75 -1.75,1.75c-0.03356,0 -0.0669,-0.00094 -0.1,-0.00281c-0.0331,0.00186 -0.06644,0.00281 -0.1,0.00281c-0.9665,0 -1.75,-0.7835 -1.75,-1.75z" fill="#33965e" stroke="none" stroke-width="0.5"/><path d="M321.30582,222.75c-0.40726,0 -0.76903,-0.19476 -0.99725,-0.49623c-0.48298,-0.23274 -1.12626,-0.75728 -0.92452,-1.86682c0.31305,-1.72177 2.03482,-1.40872 2.03482,-1.40872l2.2,0.4c0,0 0.06959,0.01265 0.17824,0.04686c0.16098,-0.04883 0.33178,-0.07509 0.50871,-0.07509c0.9665,0 1.75,0.7835 1.75,1.75c0,0.9665 -0.7835,1.75 -1.75,1.75c-0.16787,0 -0.33022,-0.02364 -0.4839,-0.06776c-0.44113,0.11008 -0.82915,0.03954 -0.82915,0.03954l-1.12553,-0.20464c-0.16881,0.085 -0.35953,0.13287 -0.56142,0.13287z" fill="#33965e" stroke="none" stroke-width="0.5"/><path d="M314.35582,220.9c0,-0.96207 0.77634,-1.74282 1.73674,-1.74995c0.24298,-0.12776 0.51968,-0.20005 0.81326,-0.20005c0.9665,0 1.75,0.7835 1.75,1.75c0,0.96207 -0.77634,1.74282 -1.73674,1.74995c-0.24298,0.12776 -0.51968,0.20005 -0.81326,0.20005c-0.9665,0 -1.75,-0.7835 -1.75,-1.75z" fill="#33965e" stroke="none" stroke-width="0.5"/><path d="M312.55582,220.9c0,1.25 -1.25,1.25 -1.25,1.25h-1.8c0,0 -0.41051,0 -0.76102,-0.23525c-0.24888,0.66323 -0.88881,1.13525 -1.63898,1.13525c-0.54604,0 -1.03367,-0.25009 -1.3546,-0.64197c-0.05477,0.63978 -0.59144,1.14197 -1.2454,1.14197c-0.69036,0 -1.25,-0.55964 -1.25,-1.25c0,-0.06435 0.00486,-0.12756 0.01424,-0.18929c-0.43315,-0.31856 -0.71424,-0.83181 -0.71424,-1.41071c0,-0.9665 0.7835,-1.75 1.75,-1.75c0.7237,0 1.3448,0.43929 1.61118,1.06577c0.31213,-0.28908 0.72984,-0.46577 1.18882,-0.46577c0.5401,0 1.02305,0.24467 1.34406,0.62922c0.35114,-0.52922 1.05594,-0.52922 1.05594,-0.52922h1.8c0,0 1.25,0 1.25,1.25z" fill="#33965e" stroke="none" stroke-width="0.5"/><path d="M294.55582,231.5c0,-0.9665 0.3835,-1.75 1.35,-1.75c0.9665,0 1.75,0.7835 1.75,1.75c0,0.9665 -0.7835,1.75 -1.75,1.75c-0.9665,0 -1.35,-0.7835 -1.35,-1.75z" fill="#75f20f" stroke="none" stroke-width="0.5"/><path d="M306.15582,232.3c0,0.69036 -0.55964,1.25 -1.25,1.25c-0.19142,0 -0.37279,-0.04303 -0.53497,-0.11994c-0.08643,0.01313 -0.17493,0.01994 -0.26503,0.01994c-0.9665,0 -1.75,-0.7835 -1.75,-1.75c0,-0.9665 0.7835,-1.75 1.75,-1.75c0.88869,0 1.62266,0.66243 1.73508,1.52045c0.19593,0.22069 0.31492,0.51123 0.31492,0.82955z" fill="#75f20f" stroke="none" stroke-width="0.5"/><path d="M311.95582,232.1c0,0.69036 -0.55964,1.25 -1.25,1.25c-0.61753,0 -1.13048,-0.4478 -1.23182,-1.0364c-0.43538,-0.31834 -0.71818,-0.83294 -0.71818,-1.4136c0,-0.9665 0.7835,-1.75 1.75,-1.75c0.9665,0 1.75,0.7835 1.75,1.75c0,0.37295 -0.11667,0.71866 -0.3155,1.00261c0.0102,0.0643 0.0155,0.13022 0.0155,0.19739z" fill="#75f20f" stroke="none" stroke-width="0.5"/><path d="M314.95582,230.3c0,-0.9665 0.7835,-1.75 1.75,-1.75c0.9665,0 1.75,0.7835 1.75,1.75c0,0.9665 -0.7835,1.75 -1.75,1.75c-0.9665,0 -1.75,-0.7835 -1.75,-1.75z" fill="#75f20f" stroke="none" stroke-width="0.5"/><path d="M324.35582,230.3c0,-0.9665 0.7835,-1.75 1.75,-1.75c0.9665,0 1.75,0.7835 1.75,1.75c0,0.9665 -0.7835,1.75 -1.75,1.75c-0.9665,0 -1.75,-0.7835 -1.75,-1.75z" fill="#75f20f" stroke="none" stroke-width="0.5"/><path d="M331.55582,230.7c0,-0.9665 0.7835,-1.75 1.75,-1.75c0.9665,0 1.75,0.7835 1.75,1.75c0,0.9665 -0.7835,1.75 -1.75,1.75c-0.9665,0 -1.75,-0.7835 -1.75,-1.75z" fill="#75f20f" stroke="none" stroke-width="0.5"/><path d="M335.45582,231.7c0,-0.69036 0.55964,-1.25 1.25,-1.25c0.05771,0 0.11451,0.00391 0.17014,0.01148c0.25512,-0.65072 0.88868,-1.11148 1.62986,-1.11148c0.51885,0 0.98496,0.2258 1.30543,0.58449c0.29973,-0.24057 0.68034,-0.38449 1.09457,-0.38449c0.9665,0 1.75,0.7835 1.75,1.75c0,0.9665 -0.7835,1.75 -1.75,1.75c-0.51885,0 -0.98496,-0.2258 -1.30543,-0.58449c-0.29973,0.24057 -0.68034,0.38449 -1.09457,0.38449c-0.33782,0 -0.65328,-0.09572 -0.92074,-0.26152c-0.22583,0.2235 -0.53643,0.36152 -0.87926,0.36152c-0.69036,0 -1.25,-0.55964 -1.25,-1.25z" fill="#75f20f" stroke="none" stroke-width="0.5"/><path d="M299.05582,233.1c0,-0.69036 0.55964,-1.25 1.25,-1.25c0.69036,0 1.25,0.55964 1.25,1.25c0,0.68623 -0.55297,1.2433 -1.23763,1.24994c0.26787,0.22926 0.43763,0.56984 0.43763,0.95006c0,0.69036 -0.55964,1.25 -1.25,1.25c-0.69036,0 -1.25,-0.55964 -1.25,-1.25c0,-0.68623 0.55297,-1.2433 1.23763,-1.24994c-0.26787,-0.22926 -0.43763,-0.56984 -0.43763,-0.95006z" fill="#75f20f" stroke="none" stroke-width="0.5"/><path d="M315.25582,233.3c0,-0.69036 0.55964,-1.25 1.25,-1.25c0.69036,0 1.25,0.55964 1.25,1.25c0,0.69036 -0.55964,1.25 -1.25,1.25c-0.69036,0 -1.25,-0.55964 -1.25,-1.25z" fill="#75f20f" stroke="none" stroke-width="0.5"/><path d="M321.10582,236.65c-0.33583,0 -0.62011,-0.22073 -0.71567,-0.52502c-0.32306,-0.22599 -0.53433,-0.60081 -0.53433,-1.02498c0,-0.69036 0.55964,-1.25 1.25,-1.25c0.69036,0 1.25,0.55964 1.25,1.25c0,0.42417 -0.21127,0.79899 -0.53433,1.02498c-0.09556,0.30429 -0.37984,0.52502 -0.71567,0.52502z" fill="#75f20f" stroke="none" stroke-width="0.5"/><path d="M325.05582,235.1c0,-0.69036 0.55964,-1.25 1.25,-1.25c0.69036,0 1.25,0.55964 1.25,1.25c0,0.69036 -0.55964,1.25 -1.25,1.25c-0.69036,0 -1.25,-0.55964 -1.25,-1.25z" fill="#75f20f" stroke="none" stroke-width="0.5"/><path d="M329.45582,232.7c0,-0.69036 0.55964,-1.25 1.25,-1.25c0.69036,0 1.25,0.55964 1.25,1.25c0,0.69036 -0.55964,1.25 -1.25,1.25c-0.69036,0 -1.25,-0.55964 -1.25,-1.25z" fill="#75f20f" stroke="none" stroke-width="0.5"/><path d="M341.45582,234.5c0,-0.69036 0.55964,-1.25 1.25,-1.25c0.69036,0 1.25,0.55964 1.25,1.25c0,0.69036 -0.55964,1.25 -1.25,1.25c-0.69036,0 -1.25,-0.55964 -1.25,-1.25z" fill="#75f20f" stroke="none" stroke-width="0.5"/><path d="M298.25582,224.7c0,-0.69036 0.55964,-1.25 1.25,-1.25c0.69036,0 1.25,0.55964 1.25,1.25c0,0.69036 -0.55964,1.25 -1.25,1.25c-0.69036,0 -1.25,-0.55964 -1.25,-1.25z" fill="#33965e" stroke="none" stroke-width="0.5"/><path d="M325.25582,224.5c0,-0.69036 0.55964,-1.25 1.25,-1.25c0.69036,0 1.25,0.55964 1.25,1.25c0,0.69036 -0.55964,1.25 -1.25,1.25c-0.69036,0 -1.25,-0.55964 -1.25,-1.25z" fill="#33965e" stroke="none" stroke-width="0.5"/><path d="M337.45582,223.9c0,-0.69036 0.55964,-1.25 1.25,-1.25c0.69036,0 1.25,0.55964 1.25,1.25c0,0.69036 -0.55964,1.25 -1.25,1.25c-0.69036,0 -1.25,-0.55964 -1.25,-1.25z" fill="#33965e" stroke="none" stroke-width="0.5"/><path d="M301.45582,218.5c0,-0.69036 0.55964,-1.25 1.25,-1.25c0.69036,0 1.25,0.55964 1.25,1.25c0,0.69036 -0.55964,1.25 -1.25,1.25c-0.69036,0 -1.25,-0.55964 -1.25,-1.25z" fill="#2d7a1a" stroke="none" stroke-width="0.5"/><path d="M329.45582,218.1c0,-0.69036 0.55964,-1.25 1.25,-1.25c0.69036,0 1.25,0.55964 1.25,1.25c0,0.69036 -0.55964,1.25 -1.25,1.25c-0.69036,0 -1.25,-0.55964 -1.25,-1.25z" fill="#2d7a1a" stroke="none" stroke-width="0.5"/><path d="M339.05582,218.5c0,-0.69036 0.55964,-1.25 1.25,-1.25c0.69036,0 1.25,0.55964 1.25,1.25c0,0.69036 -0.55964,1.25 -1.25,1.25c-0.69036,0 -1.25,-0.55964 -1.25,-1.25z" fill="#2d7a1a" stroke="none" stroke-width="0.5"/><path d="M298.55582,219.9c0,-0.41421 0.33579,-0.75 0.75,-0.75c0.41421,0 0.75,0.33579 0.75,0.75c0,0.41421 -0.33579,0.75 -0.75,0.75c-0.41421,0 -0.75,-0.33579 -0.75,-0.75z" fill="#2d7a1a" stroke="none" stroke-width="0.5"/><path d="M311.75582,219.9c0,-0.41421 0.33579,-0.75 0.75,-0.75c0.41421,0 0.75,0.33579 0.75,0.75c0,0.41421 -0.33579,0.75 -0.75,0.75c-0.41421,0 -0.75,-0.33579 -0.75,-0.75z" fill="#2d7a1a" stroke="none" stroke-width="0.5"/><path d="M315.75582,219.5c0,-0.41421 0.33579,-0.75 0.75,-0.75c0.41421,0 0.75,0.33579 0.75,0.75c0,0.41421 -0.33579,0.75 -0.75,0.75c-0.41421,0 -0.75,-0.33579 -0.75,-0.75z" fill="#2d7a1a" stroke="none" stroke-width="0.5"/><path d="M336.55582,219.1c0,-0.41421 0.33579,-0.75 0.75,-0.75c0.41421,0 0.75,0.33579 0.75,0.75c0,0.41421 -0.33579,0.75 -0.75,0.75c-0.41421,0 -0.75,-0.33579 -0.75,-0.75z" fill="#2d7a1a" stroke="none" stroke-width="0.5"/><path d="M301.35582,228.9c0,-0.41421 0.33579,-0.75 0.75,-0.75c0.41421,0 0.75,0.33579 0.75,0.75c0,0.41421 -0.33579,0.75 -0.75,0.75c-0.41421,0 -0.75,-0.33579 -0.75,-0.75z" fill="#33965e" stroke="none" stroke-width="0.5"/><path d="M307.75582,225.9c0,-0.41421 0.33579,-0.75 0.75,-0.75c0.41421,0 0.75,0.33579 0.75,0.75c0,0.41421 -0.33579,0.75 -0.75,0.75c-0.41421,0 -0.75,-0.33579 -0.75,-0.75z" fill="#33965e" stroke="none" stroke-width="0.5"/><path d="M312.55582,225.1c0,-0.41421 0.33579,-0.75 0.75,-0.75c0.41421,0 0.75,0.33579 0.75,0.75c0,0.41421 -0.33579,0.75 -0.75,0.75c-0.41421,0 -0.75,-0.33579 -0.75,-0.75z" fill="#33965e" stroke="none" stroke-width="0.5"/><path d="M322.55582,227.7c0,-0.41421 0.33579,-0.75 0.75,-0.75c0.41421,0 0.75,0.33579 0.75,0.75c0,0.41421 -0.33579,0.75 -0.75,0.75c-0.41421,0 -0.75,-0.33579 -0.75,-0.75z" fill="#33965e" stroke="none" stroke-width="0.5"/><path d="M338.75582,229.7c0,-0.41421 0.33579,-0.75 0.75,-0.75c0.41421,0 0.75,0.33579 0.75,0.75c0,0.41421 -0.33579,0.75 -0.75,0.75c-0.41421,0 -0.75,-0.33579 -0.75,-0.75z" fill="#33965e" stroke="none" stroke-width="0.5"/><path d="M299.55582,239.7c0,-0.41421 0.33579,-0.75 0.75,-0.75c0.41421,0 0.75,0.33579 0.75,0.75c0,0.41421 -0.33579,0.75 -0.75,0.75c-0.41421,0 -0.75,-0.33579 -0.75,-0.75z" fill="#75f20f" stroke="none" stroke-width="0.5"/><path d="M307.15582,237.3c0,-0.41421 0.33579,-0.75 0.75,-0.75c0.41421,0 0.75,0.33579 0.75,0.75c0,0.41421 -0.33579,0.75 -0.75,0.75c-0.41421,0 -0.75,-0.33579 -0.75,-0.75z" fill="#75f20f" stroke="none" stroke-width="0.5"/><path d="M329.55582,238.1c0,-0.41421 0.33579,-0.75 0.75,-0.75c0.41421,0 0.75,0.33579 0.75,0.75c0,0.41421 -0.33579,0.75 -0.75,0.75c-0.41421,0 -0.75,-0.33579 -0.75,-0.75z" fill="#75f20f" stroke="none" stroke-width="0.5"/><path d="M341.15582,238.5c0,-0.41421 0.33579,-0.75 0.75,-0.75c0.41421,0 0.75,0.33579 0.75,0.75c0,0.41421 -0.33579,0.75 -0.75,0.75c-0.41421,0 -0.75,-0.33579 -0.75,-0.75z" fill="#75f20f" stroke="none" stroke-width="0.5"/><path d="M298.34471,254.36667c0,-0.42979 0.21691,-0.80892 0.54723,-1.03388c-0.64321,-0.05358 -1.18761,-0.45502 -1.44453,-1.01565c-0.08673,0.88544 -0.83336,1.57731 -1.74159,1.57731c-0.9665,0 -1.75,-0.7835 -1.75,-1.75c0,-0.9665 0.7835,-1.75 1.75,-1.75c0.70663,0 1.31544,0.41882 1.59175,1.02176c0.08673,-0.88544 0.83336,-1.57731 1.74159,-1.57731c0.9665,0 1.75,0.7835 1.75,1.75c0,0.67535 -0.38256,1.26135 -0.94279,1.55312c0.56974,0.11646 0.99835,0.6205 0.99835,1.22466c0,0.69036 -0.55964,1.25 -1.25,1.25c-0.69036,0 -1.25,-0.55964 -1.25,-1.25z" fill="#942c3b" stroke="none" stroke-width="0.5"/><path d="M342.17804,252.14444c0,-0.9665 0.7835,-1.75 1.75,-1.75c0.9665,0 1.75,0.7835 1.75,1.75c0,0.9665 -0.7835,1.75 -1.75,1.75c-0.9665,0 -1.75,-0.7835 -1.75,-1.75z" fill="#942c3b" stroke="none" stroke-width="0.5"/><path d="M306.92804,253.95c-0.36192,0 -0.68791,-0.15381 -0.91617,-0.39962c-0.064,0.00709 -0.12904,0.01074 -0.19494,0.01074c-0.9665,0 -1.75,-0.7835 -1.75,-1.75c0,-0.9665 0.7835,-1.75 1.75,-1.75c0.45394,0 0.86751,0.17284 1.1785,0.45629c0.2914,-0.21685 0.65257,-0.34518 1.04372,-0.34518c0.9665,0 1.75,0.7835 1.75,1.75c0,0.9665 -0.7835,1.75 -1.75,1.75c-0.10075,0 -0.19951,-0.00851 -0.2956,-0.02486c-0.2189,0.18861 -0.50389,0.30264 -0.81551,0.30264z" fill="#942c3b" stroke="none" stroke-width="0.5"/><path d="M311.56693,254.14444c0,-0.4588 0.24718,-0.85987 0.61563,-1.0773c-0.21241,-0.28966 -0.33786,-0.64709 -0.33786,-1.03381c0,-0.9665 0.7835,-1.75 1.75,-1.75c0.9665,0 1.75,0.7835 1.75,1.75c0,0.8274 -0.57421,1.52069 -1.34588,1.70311c0.04413,0.12787 0.0681,0.26514 0.0681,0.408c0,0.69036 -0.55964,1.25 -1.25,1.25c-0.69036,0 -1.25,-0.55964 -1.25,-1.25z" fill="#942c3b" stroke="none" stroke-width="0.5"/><path d="M316.17804,252.25556c0,-0.9665 0.7835,-1.75 1.75,-1.75c0.9665,0 1.75,0.7835 1.75,1.75c0,0.9665 -0.7835,1.75 -1.75,1.75c-0.9665,0 -1.75,-0.7835 -1.75,-1.75z" fill="#942c3b" stroke="none" stroke-width="0.5"/><path d="M321.62249,252.25556c0,-0.9665 0.7835,-1.75 1.75,-1.75c0.9665,0 1.75,0.7835 1.75,1.75c0,0.9665 -0.7835,1.75 -1.75,1.75c-0.9665,0 -1.75,-0.7835 -1.75,-1.75z" fill="#942c3b" stroke="none" stroke-width="0.5"/><path d="M331.81693,250.56111c0.69036,0 1.25,0.55964 1.25,1.25c0,0.69036 -0.55964,1.25 -1.25,1.25c-0.43659,0 -0.82091,-0.22383 -1.04445,-0.563c-0.11809,0.8517 -0.84913,1.50744 -1.73333,1.50744c-0.9665,0 -1.75,-0.7835 -1.75,-1.75c0,-0.9665 0.7835,-1.75 1.75,-1.75c0.6895,0 1.28587,0.39876 1.57107,0.97824c0.14385,-0.5316 0.62961,-0.92268 1.20671,-0.92268z" fill="#942c3b" stroke="none" stroke-width="0.5"/><path d="M333.2336,252.25556c0,-0.69036 0.55964,-1.25 1.25,-1.25c0.00368,0 0.00735,0.00002 0.01102,0.00005c0.30057,-0.24324 0.68332,-0.38894 1.1001,-0.38894c0.9665,0 1.75,0.7835 1.75,1.75c0,0.9665 -0.7835,1.75 -1.75,1.75c-0.54207,0 -1.02658,-0.24646 -1.34758,-0.63345c-0.57729,-0.11053 -1.01353,-0.61815 -1.01353,-1.22766z" fill="#942c3b" stroke="none" stroke-width="0.5"/><path d="M337.51138,251.92222c0,-0.9665 0.7835,-1.75 1.75,-1.75c0.9665,0 1.75,0.7835 1.75,1.75c0,0.9665 -0.7835,1.75 -1.75,1.75c-0.9665,0 -1.75,-0.7835 -1.75,-1.75z" fill="#942c3b" stroke="none" stroke-width="0.5"/><path d="M294.34471,264.36667c0,-0.51341 0.30953,-0.95453 0.75215,-1.14693c-0.05556,0.00532 -0.11187,0.00804 -0.16882,0.00804c-0.9665,0 -1.75,-0.7835 -1.75,-1.75c0,-0.9665 0.7835,-1.75 1.75,-1.75c0.9665,0 1.75,0.7835 1.75,1.75c0,0.75127 -0.4734,1.39197 -1.13817,1.64007c0.01818,-0.00078 0.03647,-0.00118 0.05484,-0.00118c0.69036,0 1.25,0.55964 1.25,1.25c0,0.69036 -0.55964,1.25 -1.25,1.25c-0.69036,0 -1.25,-0.55964 -1.25,-1.25z" fill="#9d2f3a" stroke="none" stroke-width="0.5"/><path d="M304.37249,261.00556c0.69036,0 1.25,0.55964 1.25,1.25c0,0.69036 -0.55964,1.25 -1.25,1.25c-0.55684,0 -1.02864,-0.3641 -1.1903,-0.86722c-0.21399,0.09327 -0.45025,0.145 -0.69859,0.145c-0.28498,0 -0.55405,-0.06812 -0.79182,-0.18896c-0.37915,-0.07253 -0.69748,-0.31634 -0.87138,-0.64782c-0.11448,0.57228 -0.61973,1.00345 -1.22569,1.00345c-0.69036,0 -1.25,-0.55964 -1.25,-1.25c0,-0.69036 0.55964,-1.25 1.25,-1.25c0.48106,0 0.89866,0.27175 1.10764,0.67012c0.00845,-0.04226 0.01904,-0.08376 0.03164,-0.12437c0.01046,-0.49645 0.22766,-0.94204 0.56896,-1.25417c0.31998,-0.3499 0.78024,-0.56936 1.29175,-0.56936c0.9665,0 1.75,0.7835 1.75,1.75c0,0.02805 -0.00066,0.05595 -0.00197,0.08368c0.00989,-0.00023 0.0198,-0.00035 0.02974,-0.00035z" fill="#9d2f3a" stroke="none" stroke-width="0.5"/><path d="M308.40026,260.58889c0,-0.9665 0.7835,-1.75 1.75,-1.75c0.9665,0 1.75,0.7835 1.75,1.75c0,0.9665 -0.7835,1.75 -1.75,1.75c-0.9665,0 -1.75,-0.7835 -1.75,-1.75z" fill="#9d2f3a" stroke="none" stroke-width="0.5"/><path d="M317.17804,262.14444c0,0.53381 -0.33462,0.98948 -0.80554,1.16867c-0.19295,0.12189 -0.42158,0.19244 -0.66668,0.19244c-0.4865,0 -0.90809,-0.27793 -1.11465,-0.68367c-0.57431,-0.28703 -0.96869,-0.88063 -0.96869,-1.56633c0,-0.9665 0.7835,-1.75 1.75,-1.75c0.9665,0 1.75,0.7835 1.75,1.75c0,0.1364 -0.01561,0.26915 -0.04513,0.39658c0.0648,0.15108 0.10068,0.31751 0.10068,0.49231z" fill="#9d2f3a" stroke="none" stroke-width="0.5"/><path d="M321.26138,263.28333c-0.28271,0 -0.5435,-0.09385 -0.75291,-0.2521c-0.3057,0.26111 -0.70243,0.41877 -1.13598,0.41877c-0.9665,0 -1.75,-0.7835 -1.75,-1.75c0,-0.9665 0.7835,-1.75 1.75,-1.75c0.47739,0 0.91014,0.19116 1.22587,0.5011c0.32096,-0.37474 0.79759,-0.61222 1.32968,-0.61222c0.9665,0 1.75,0.7835 1.75,1.75c0,0.9665 -0.7835,1.75 -1.75,1.75c-0.16876,0 -0.33194,-0.02389 -0.48634,-0.06847c-0.05888,0.00851 -0.11909,0.01291 -0.18032,0.01291z" fill="#9d2f3a" stroke="none" stroke-width="0.5"/><path d="M326.90026,264.36667c0,-0.07667 0.0069,-0.15173 0.02012,-0.22458c-0.22599,0.22465 -0.5374,0.36347 -0.88123,0.36347c-0.69036,0 -1.25,-0.55964 -1.25,-1.25c0,-0.22437 0.05911,-0.43493 0.16262,-0.61696c-0.27401,-0.3089 -0.44039,-0.71543 -0.44039,-1.16082c0,-0.9665 0.7835,-1.75 1.75,-1.75c0.9665,0 1.75,0.7835 1.75,1.75c0,0.60178 -0.30375,1.13262 -0.7663,1.44756c0.02874,0.10519 0.04408,0.21591 0.04408,0.33022c0,0.07667 -0.0069,0.15173 -0.02012,0.22458c0.22599,-0.22465 0.5374,-0.36347 0.88123,-0.36347c0.69036,0 1.25,0.55964 1.25,1.25c0,0.69036 -0.55964,1.25 -1.25,1.25c-0.69036,0 -1.25,-0.55964 -1.25,-1.25z" fill="#9d2f3a" stroke="none" stroke-width="0.5"/><path d="M339.78915,262.25556c0,-0.63642 0.47561,-1.16175 1.09078,-1.23995c0.16256,-0.79825 0.86852,-1.39893 1.71478,-1.39893c0.9665,0 1.75,0.7835 1.75,1.75c0,0.9665 -0.7835,1.75 -1.75,1.75c-0.19893,0 -0.3901,-0.03319 -0.56829,-0.09434c-0.22871,0.29405 -0.5859,0.48323 -0.98727,0.48323c-0.69036,0 -1.25,-0.55964 -1.25,-1.25z" fill="#9d2f3a" stroke="none" stroke-width="0.5"/><path d="M300.67804,252.7c0,-0.69036 0.55964,-1.25 1.25,-1.25c0.69036,0 1.25,0.55964 1.25,1.25c0,0.69036 -0.55964,1.25 -1.25,1.25c-0.69036,0 -1.25,-0.55964 -1.25,-1.25z" fill="#942c3b" stroke="none" stroke-width="0.5"/><path d="M316.12249,255.47778c0,-0.69036 0.55964,-1.25 1.25,-1.25c0.69036,0 1.25,0.55964 1.25,1.25c0,0.69036 -0.55964,1.25 -1.25,1.25c-0.69036,0 -1.25,-0.55964 -1.25,-1.25z" fill="#942c3b" stroke="none" stroke-width="0.5"/><path d="M320.90026,255.81111c0,-0.69036 0.55964,-1.25 1.25,-1.25c0.69036,0 1.25,0.55964 1.25,1.25c0,0.69036 -0.55964,1.25 -1.25,1.25c-0.69036,0 -1.25,-0.55964 -1.25,-1.25z" fill="#942c3b" stroke="none" stroke-width="0.5"/><path d="M325.45582,254.25556c0,-0.69036 0.55964,-1.25 1.25,-1.25c0.69036,0 1.25,0.55964 1.25,1.25c0,0.69036 -0.55964,1.25 -1.25,1.25c-0.69036,0 -1.25,-0.55964 -1.25,-1.25z" fill="#942c3b" stroke="none" stroke-width="0.5"/><path d="M341.12249,254.92222c0,-0.69036 0.55964,-1.25 1.25,-1.25c0.69036,0 1.25,0.55964 1.25,1.25c0,0.69036 -0.55964,1.25 -1.25,1.25c-0.69036,0 -1.25,-0.55964 -1.25,-1.25z" fill="#942c3b" stroke="none" stroke-width="0.5"/><path d="M306.12249,263.58889c0,-0.69036 0.55964,-1.25 1.25,-1.25c0.69036,0 1.25,0.55964 1.25,1.25c0,0.69036 -0.55964,1.25 -1.25,1.25c-0.69036,0 -1.25,-0.55964 -1.25,-1.25z" fill="#9d2f3a" stroke="none" stroke-width="0.5"/><path d="M313.03915,263.89444c0.69036,0 1.25,0.55964 1.25,1.25c0,0.69036 -0.55964,1.25 -1.25,1.25c-0.07584,0 -0.1501,-0.00675 -0.22222,-0.01969c-0.07212,0.01294 -0.14638,0.01969 -0.22222,0.01969c-0.69036,0 -1.25,-0.55964 -1.25,-1.25c0,-0.69036 0.55964,-1.25 1.25,-1.25c0.07584,0 0.1501,0.00675 0.22222,0.01969c0.07212,-0.01294 0.14638,-0.01969 0.22222,-0.01969z" fill="#9d2f3a" stroke="none" stroke-width="0.5"/><path d="M333.12249,261.25556c0,-0.69036 0.55964,-1.25 1.25,-1.25c0.34808,0 0.66294,0.14228 0.88958,0.37185c0.3154,-0.45942 0.84439,-0.76074 1.44376,-0.76074c0.9665,0 1.75,0.7835 1.75,1.75c0,0.9665 -0.7835,1.75 -1.75,1.75c-0.65894,0 -1.23282,-0.36419 -1.53133,-0.90227c-0.21706,0.18175 -0.49675,0.29116 -0.802,0.29116c-0.12419,0 -0.24416,-0.01811 -0.35739,-0.05184c0.03373,0.11324 0.05184,0.2332 0.05184,0.35739c0,0.62988 -0.46589,1.15095 -1.07188,1.23741c0.11608,0.18971 0.18299,0.41279 0.18299,0.65148c0,0.69036 -0.55964,1.25 -1.25,1.25c-0.69036,0 -1.25,-0.55964 -1.25,-1.25c0,-0.62988 0.46589,-1.15095 1.07188,-1.23741c-0.11608,-0.18971 -0.18299,-0.41279 -0.18299,-0.65148c0,-0.10888 0.01392,-0.21452 0.04008,-0.31522c-0.10888,0.10837 -0.23195,0.2025 -0.36617,0.27936c-0.64198,0.44665 -1.394,0.62292 -1.75654,-0.01153c-0.5158,-0.30441 -0.86182,-0.86589 -0.86182,-1.50818c0,-0.9665 0.7835,-1.75 1.75,-1.75c0.17212,0 0.33844,0.02485 0.49556,0.07115c0.79343,-0.17182 1.47667,0.18767 1.47667,1.67885c0,0.13848 -0.048,0.29648 -0.13201,0.46103c0.17909,-0.09908 0.38507,-0.15548 0.60423,-0.15548c0.12419,0 0.24416,0.01811 0.35739,0.05184c-0.03373,-0.11324 -0.05184,-0.2332 -0.05184,-0.35739z" fill="#9d2f3a" stroke="none" stroke-width="0.5"/><path d="M341.67804,265.14444c0,-0.69036 0.55964,-1.25 1.25,-1.25c0.69036,0 1.25,0.55964 1.25,1.25c0,0.69036 -0.55964,1.25 -1.25,1.25c-0.69036,0 -1.25,-0.55964 -1.25,-1.25z" fill="#9d2f3a" stroke="none" stroke-width="0.5"/><path d="M294.7336,256.03333c0,-0.41421 0.33579,-0.75 0.75,-0.75c0.41421,0 0.75,0.33579 0.75,0.75c0,0.41421 -0.33579,0.75 -0.75,0.75c-0.41421,0 -0.75,-0.33579 -0.75,-0.75z" fill="#942c3b" stroke="none" stroke-width="0.5"/><path d="M297.95582,257.47778c0,-0.41421 0.33579,-0.75 0.75,-0.75c0.41421,0 0.75,0.33579 0.75,0.75c0,0.41421 -0.33579,0.75 -0.75,0.75c-0.41421,0 -0.75,-0.33579 -0.75,-0.75z" fill="#942c3b" stroke="none" stroke-width="0.5"/><path d="M304.17804,258.25556c0,-0.41421 0.33579,-0.75 0.75,-0.75c0.41421,0 0.75,0.33579 0.75,0.75c0,0.41421 -0.33579,0.75 -0.75,0.75c-0.41421,0 -0.75,-0.33579 -0.75,-0.75z" fill="#942c3b" stroke="none" stroke-width="0.5"/><path d="M307.06693,256.58889c0,-0.41421 0.33579,-0.75 0.75,-0.75c0.41421,0 0.75,0.33579 0.75,0.75c0,0.41421 -0.33579,0.75 -0.75,0.75c-0.41421,0 -0.75,-0.33579 -0.75,-0.75z" fill="#942c3b" stroke="none" stroke-width="0.5"/><path d="M313.40026,257.7c0,-0.41421 0.33579,-0.75 0.75,-0.75c0.41421,0 0.75,0.33579 0.75,0.75c0,0.41421 -0.33579,0.75 -0.75,0.75c-0.41421,0 -0.75,-0.33579 -0.75,-0.75z" fill="#942c3b" stroke="none" stroke-width="0.5"/><path d="M319.62249,258.7c0,-0.41421 0.33579,-0.75 0.75,-0.75c0.41421,0 0.75,0.33579 0.75,0.75c0,0.41421 -0.33579,0.75 -0.75,0.75c-0.41421,0 -0.75,-0.33579 -0.75,-0.75z" fill="#942c3b" stroke="none" stroke-width="0.5"/><path d="M328.06693,257.81111c0,-0.41421 0.33579,-0.75 0.75,-0.75c0.41421,0 0.75,0.33579 0.75,0.75c0,0.41421 -0.33579,0.75 -0.75,0.75c-0.41421,0 -0.75,-0.33579 -0.75,-0.75z" fill="#942c3b" stroke="none" stroke-width="0.5"/><path d="M331.62249,257.47778c0,-0.41421 0.33579,-0.75 0.75,-0.75c0.41421,0 0.75,0.33579 0.75,0.75c0,0.41421 -0.33579,0.75 -0.75,0.75c-0.41421,0 -0.75,-0.33579 -0.75,-0.75z" fill="#942c3b" stroke="none" stroke-width="0.5"/><path d="M340.40026,258.36667c0,-0.41421 0.33579,-0.75 0.75,-0.75c0.41421,0 0.75,0.33579 0.75,0.75c0,0.41421 -0.33579,0.75 -0.75,0.75c-0.41421,0 -0.75,-0.33579 -0.75,-0.75z" fill="#942c3b" stroke="none" stroke-width="0.5"/><path d="M299.06693,268.36667c0,-0.41421 0.33579,-0.75 0.75,-0.75c0.41421,0 0.75,0.33579 0.75,0.75c0,0.41421 -0.33579,0.75 -0.75,0.75c-0.41421,0 -0.75,-0.33579 -0.75,-0.75z" fill="#9d2f3a" stroke="none" stroke-width="0.5"/><path d="M302.40026,266.25556c0,-0.41421 0.33579,-0.75 0.75,-0.75c0.41421,0 0.75,0.33579 0.75,0.75c0,0.41421 -0.33579,0.75 -0.75,0.75c-0.41421,0 -0.75,-0.33579 -0.75,-0.75z" fill="#9d2f3a" stroke="none" stroke-width="0.5"/><path d="M312.62249,268.81111c0,-0.41421 0.33579,-0.75 0.75,-0.75c0.41421,0 0.75,0.33579 0.75,0.75c0,0.41421 -0.33579,0.75 -0.75,0.75c-0.41421,0 -0.75,-0.33579 -0.75,-0.75z" fill="#9d2f3a" stroke="none" stroke-width="0.5"/><path d="M318.7336,269.14444c0,-0.41421 0.33579,-0.75 0.75,-0.75c0.41421,0 0.75,0.33579 0.75,0.75c0,0.41421 -0.33579,0.75 -0.75,0.75c-0.41421,0 -0.75,-0.33579 -0.75,-0.75z" fill="#9d2f3a" stroke="none" stroke-width="0.5"/><path d="M327.62249,267.58889c0,-0.41421 0.33579,-0.75 0.75,-0.75c0.41421,0 0.75,0.33579 0.75,0.75c0,0.41421 -0.33579,0.75 -0.75,0.75c-0.41421,0 -0.75,-0.33579 -0.75,-0.75z" fill="#9d2f3a" stroke="none" stroke-width="0.5"/><path d="M341.17804,267.7c0,-0.41421 0.33579,-0.75 0.75,-0.75c0.41421,0 0.75,0.33579 0.75,0.75c0,0.41421 -0.33579,0.75 -0.75,0.75c-0.41421,0 -0.75,-0.33579 -0.75,-0.75z" fill="#9d2f3a" stroke="none" stroke-width="0.5"/></g><path d="M214.52362,306.61252v-267.72501h213.18203v267.72501z" fill="none" stroke="none" stroke-width="0" stroke-linecap="butt"/><path d="" fill="none" stroke="#000000" stroke-width="2" stroke-linecap="round"/><path d="" fill-opacity="0.73333" fill="#2d7a1a" stroke="none" stroke-width="0" stroke-linecap="butt"/><g><path d="M259.57427,153.67766c-0.22237,-31.4233 26.73493,-57.08895 60.21078,-57.32584c33.47586,-0.23689 60.79368,25.04468 61.01605,56.46797c0.14671,20.73228 -11.53794,38.95825 -29.12006,49.02835c-2.60691,1.49309 -8.41975,21.05587 -11.26662,22.17196c-7.05426,2.76554 -11.58518,3.6393 -19.69976,3.69672c-8.71138,0.06165 -16.03993,-2.31 -23.5483,-5.36305c-1.94236,-0.78981 -4.9223,-18.53838 -6.75309,-19.50786c-18.2876,-9.68416 -30.68947,-28.03758 -30.839,-49.16823z" fill="#a93232" stroke="#000000" stroke-width="0" stroke-linecap="butt"/><path d="M300.78815,219.8964l-1.22409,-20.53206l41.98808,0.34518l-2.02373,19.77651z" fill="#7c2532" stroke="none" stroke-width="0" stroke-linecap="butt"/><g fill="#fff8f7" stroke="none" stroke-width="0" stroke-linecap="butt"><path d="M317.45272,224.28623c-1.5304,0.01083 -2.78931,-2.56237 -2.81184,-5.74741c-0.00157,-0.22207 5.5408,-0.21695 5.54206,-0.03921c0.02254,3.18504 -1.19982,5.77579 -2.73022,5.78662z"/><path d="M312.64187,223.88566c-1.52973,0.03724 -2.88135,-2.51309 -3.0189,-5.69633c-0.00959,-0.22194 5.53196,-0.31247 5.53964,-0.13484c0.13756,3.18323 -0.991,5.79394 -2.52074,5.83116z"/><path d="M303.33123,222.70428c-1.40948,0.123 -2.96802,-2.15381 -3.48108,-5.08541c-0.03577,-0.20441 5.07557,-0.60901 5.1042,-0.44541c0.51306,2.93159 -0.21363,5.40781 -1.62312,5.53081z"/><path d="M307.82883,223.26218c-1.45164,0.08424 -2.90697,-2.29561 -3.25054,-5.31557c-0.02396,-0.21055 5.2377,-0.4736 5.25688,-0.30508c0.34357,3.01995 -0.55467,5.5364 -2.0063,5.62065z"/><path d="M320.03864,218.50062c-0.00126,-0.17774 5.54047,-0.26129 5.54205,-0.03922c0.02254,3.18504 -1.19982,5.77579 -2.73022,5.78662c-1.5304,0.01083 -2.7893,-2.56237 -2.81184,-5.74741z"/><path d="M325.15777,218.12831c0.00516,-0.17773 5.54745,-0.16563 5.541,0.05643c-0.0925,3.18487 -1.40788,5.75406 -2.93798,5.73848c-1.53011,-0.01558 -2.69551,-2.61005 -2.60301,-5.7949z"/><path d="M335.352,217.03064c0.02632,-0.16397 5.14288,0.16824 5.10999,0.37313c-0.47152,2.93856 -1.99767,5.23719 -3.40876,5.13416c-1.41109,-0.10304 -2.17276,-2.56872 -1.70124,-5.50728z"/><path d="M330.47783,217.49546c0.01678,-0.16877 5.28163,0.01978 5.26066,0.23065c-0.3008,3.02451 -1.7223,5.42473 -3.175,5.36104c-1.45268,-0.06369 -2.38648,-2.56718 -2.08565,-5.59169z"/></g><g fill="#fff8f7" stroke="none" stroke-width="0" stroke-linecap="butt"><path d="M320.26677,202.15394c0.00153,0.21682 -5.89113,0.31259 -5.89305,0.04171c-0.02749,-3.88531 1.26942,-7.04431 2.89674,-7.05582c1.62731,-0.01151 2.96881,3.12882 2.9963,7.01413z"/><path d="M314.82006,202.07338c-0.00529,0.21679 -5.89865,0.1959 -5.89202,-0.07498c0.09483,-3.88496 1.4907,-7.01756 3.11773,-6.99685c1.62703,0.02071 2.86913,3.18687 2.7743,7.07183z"/><path d="M303.96697,201.37319c-0.0278,0.2 -5.46882,-0.21093 -5.43409,-0.46083c0.49813,-3.58409 2.11842,-6.38641 3.61898,-6.25915c1.50059,0.12726 2.31323,3.13589 1.8151,6.71999z"/><path d="M309.1581,202.04598c-0.01766,0.20587 -5.6162,-0.02998 -5.59413,-0.28719c0.31652,-3.68913 1.82541,-6.61548 3.37017,-6.53617c1.54478,0.0793 2.54047,3.13423 2.22396,6.82336z"/><path d="M323.12126,195.0984c1.62732,-0.01151 2.96882,3.12881 2.99631,7.01413c0.00192,0.27089 -5.89151,0.25852 -5.89305,0.04171c-0.02749,-3.88531 1.26942,-7.04431 2.89674,-7.05582z"/><path d="M328.34348,194.88621c1.62658,-0.04373 3.06663,3.0688 3.21645,6.95205c0.01043,0.27074 -5.88203,0.37504 -5.89038,0.15835c-0.14981,-3.88323 1.04735,-7.06667 2.67395,-7.1104z"/><path d="M338.23146,194.39789c1.49863,-0.14848 3.1584,2.63063 3.7072,6.20732c0.03826,0.24937 -5.3964,0.73727 -5.42702,0.53768c-0.54879,-3.57669 0.22118,-6.59652 1.71982,-6.745z"/><path d="M333.45772,195.03491c1.5435,-0.10116 3.09365,2.80355 3.46234,6.48783c0.0257,0.25688 -5.56894,0.57192 -5.5895,0.36633c-0.36869,-3.68428 0.58368,-6.75299 2.12717,-6.85416z"/></g><path d="M303.04762,193.58776c-0.20702,0.14015 -0.34718,-0.06688 -0.34718,-0.06688l-0.19148,-0.28303c-0.84075,-1.19232 -2.39974,0.02535 -3.09521,0.7312c0,0 -0.17552,0.17803 -0.35354,0.00251c-0.17803,-0.17552 -0.00251,-0.35354 -0.00251,-0.35354c0.97736,-0.99065 2.72727,-2.08223 3.85736,-0.67182l0.19942,0.2944c0,0 0.14015,0.20702 -0.06688,0.34718z" fill="#872929" stroke="none" stroke-width="0.5" stroke-linecap="butt"/><path d="M307.45535,193.79197c-0.14532,0.00103 -0.20676,-0.08301 -0.23274,-0.15357c-0.82684,-0.20413 -1.82053,0.119 -2.62405,0.26668c0,0 -0.24588,0.04519 -0.29107,-0.2007c-0.0452,-0.24588 0.2007,-0.29107 0.2007,-0.29107c0.96339,-0.17705 2.05789,-0.50967 3.02209,-0.20576l0.1733,0.33266c0,0 0.00177,0.24999 -0.24822,0.25177z" fill="#872929" stroke="none" stroke-width="0.5" stroke-linecap="butt"/><path d="M313.25439,193.36412c-0.17846,0.00126 -0.23043,-0.12577 -0.24555,-0.19857c-0.60796,-0.27811 -1.81559,0.21433 -2.32083,0.56155c0,0 -0.20702,0.14015 -0.34718,-0.06688c-0.14015,-0.20702 0.06688,-0.34718 0.06688,-0.34718c0.75189,-0.50265 2.17983,-1.00204 2.98143,-0.5046l0.11348,0.30391c0,0 0.00177,0.24999 -0.24822,0.25177z" fill="#872929" stroke="none" stroke-width="0.5" stroke-linecap="butt"/><path d="M317.75339,193.32001c0.05411,0.24407 -0.18996,0.29818 -0.18996,0.29818l-0.37541,0.08323c-0.73596,0.16316 -0.84894,0.14532 -1.31659,0.71465c0,0 -0.15869,0.19319 -0.35186,0.0345c-0.19318,-0.15869 -0.0345,-0.35186 -0.0345,-0.35186c0.51661,-0.62892 0.79088,-0.70722 1.59474,-0.88544l0.3754,-0.08323c0,0 0.24407,-0.05411 0.29818,0.18996z" fill="#872929" stroke="none" stroke-width="0.5" stroke-linecap="butt"/><path d="M324.65153,193.79046c-0.17552,0.17803 -0.35354,0.0025 -0.35354,0.0025l-0.04403,-0.05592c-1.15508,-0.66243 -2.2927,-0.01098 -3.35837,0.42544c0,0 -0.23146,0.09449 -0.32595,-0.13696c-0.09449,-0.23145 0.13697,-0.32594 0.13697,-0.32594c1.23788,-0.50364 2.4623,-1.12909 3.79168,-0.39876l0.15074,0.13611c0,0 0.17803,0.17552 0.00251,0.35354z" fill="#872929" stroke="none" stroke-width="0.5" stroke-linecap="butt"/><path d="M331.61161,193.4511c-0.17552,0.17803 -0.35354,0.00251 -0.35354,0.00251l-0.14127,-0.15185c-1.47072,-0.2926 -2.48786,0.26389 -3.83925,0.81558c0,0 -0.23146,0.09449 -0.32595,-0.13696c-0.09449,-0.23145 0.13696,-0.32595 0.13696,-0.32595c1.48321,-0.60549 2.65243,-1.23499 4.2723,-0.78905l0.24824,0.23219c0,0 0.17803,0.17552 0.00251,0.35354z" fill="#872929" stroke="none" stroke-width="0.5" stroke-linecap="butt"/><path d="M335.19076,193.61918c-0.17552,0.17803 -0.35354,0.00251 -0.35354,0.00251l-0.11328,-0.1384c-0.55219,0.05799 -0.93247,0.1243 -1.46702,0.30669c0,0 -0.23661,0.08073 -0.31734,-0.15587c-0.08073,-0.23661 0.15586,-0.31734 0.15586,-0.31734c0.65095,-0.22212 1.12511,-0.32597 1.81656,-0.29677l0.27625,0.24565c0,0 0.17803,0.17552 0.00251,0.35354z" fill="#872929" stroke="none" stroke-width="0.5" stroke-linecap="butt"/><path d="M339.54073,193.395c-0.17552,0.17803 -0.35354,0.00251 -0.35354,0.00251l-0.05906,-0.06505c-1.21656,-0.81092 -1.83402,0.14619 -2.96963,0.53368c0,0 -0.23661,0.08073 -0.31734,-0.15587c-0.08073,-0.23661 0.15586,-0.31734 0.15586,-0.31734c1.2953,-0.44198 1.98928,-1.39648 3.4055,-0.47845l0.1357,0.12697c0,0 0.17803,0.17552 0.00251,0.35354z" fill="#872929" stroke="none" stroke-width="0.5" stroke-linecap="butt"/><path d="M303.46337,222.71098c0.17803,0.17552 0.00251,0.35354 0.00251,0.35354l-0.27227,0.17185c-0.93574,0.00662 -2.1716,-0.01324 -2.64746,-0.89307c0,0 -0.11338,-0.22281 0.10942,-0.33619c0.22281,-0.11338 0.33619,0.10942 0.33619,0.10942c0.31101,0.67025 1.50823,0.62474 2.1983,0.61985l-0.08025,-0.02292c0,0 0.17552,-0.17803 0.35353,-0.00251z" fill="#872929" stroke="none" stroke-width="0.5" stroke-linecap="butt"/><path d="M308.67029,223.91464c0.00177,0.24999 -0.24822,0.25177 -0.24822,0.25177l-0.1444,-0.00383c-0.91684,0.18788 -1.32056,-0.03014 -2.11522,-0.49931c0,0 -0.21527,-0.1271 -0.08818,-0.34238c0.1271,-0.21527 0.34238,-0.08818 0.34238,-0.08818c0.69751,0.41182 0.96387,0.60743 1.75948,0.44029l0.24239,-0.00657c0,0 0.24999,-0.00177 0.25177,0.24822z" fill="#872929" stroke="none" stroke-width="0.5" stroke-linecap="butt"/><path d="M314.09212,224.84326c0.00177,0.24999 -0.24822,0.25177 -0.24822,0.25177l-0.29489,0.00203c-0.69861,-0.02272 -1.34972,-0.17011 -2.01101,-0.38536c0,0 -0.23772,-0.07737 -0.16034,-0.3151c0.07738,-0.23772 0.3151,-0.16034 0.3151,-0.16034c0.61241,0.19933 1.21477,0.34136 1.86232,0.36084l0.28528,-0.00207c0,0 0.24999,-0.00177 0.25177,0.24822z" fill="#872929" stroke="none" stroke-width="0.5" stroke-linecap="butt"/><path d="M318.33132,224.44411c0.08073,0.23661 -0.15587,0.31734 -0.15587,0.31734l-0.32835,0.10862c-0.86987,0.00615 -1.05966,0.19813 -1.89392,-0.20316c0,0 -0.2244,-0.11022 -0.11417,-0.33461c0.11022,-0.2244 0.33461,-0.11417 0.33461,-0.11417c0.47643,0.23807 1.0573,0.16275 1.5899,0.15898l0.25047,-0.08887c0,0 0.23661,-0.08073 0.31734,0.15586z" fill="#872929" stroke="none" stroke-width="0.5" stroke-linecap="butt"/><path d="M324.52607,224.51539c0.06234,0.2421 -0.17975,0.30445 -0.17975,0.30445l-0.41307,0.10482c-1.54178,0.0365 -2.41042,0.61369 -3.85645,-0.40382c0,0 -0.20445,-0.14386 -0.06058,-0.34832c0.14387,-0.20445 0.34832,-0.06058 0.34832,-0.06058c1.30571,0.91877 2.09361,0.37314 3.49795,0.31775l0.35914,-0.09405c0,0 0.24211,-0.06235 0.30445,0.17975z" fill="#872929" stroke="none" stroke-width="0.5" stroke-linecap="butt"/><path d="M328.69191,224.54655c0.00177,0.24999 -0.24823,0.25176 -0.24823,0.25176l-0.29009,0.00205c-0.70993,0.0021 -1.53159,-0.07393 -2.20852,-0.2873c0,0 -0.23772,-0.07738 -0.16034,-0.31511c0.07738,-0.23772 0.31511,-0.16034 0.31511,-0.16034c0.60857,0.20629 1.40894,0.27046 2.05023,0.26277l0.29009,-0.00205c0,0 0.24999,-0.00177 0.25177,0.24822z" fill="#872929" stroke="none" stroke-width="0.5" stroke-linecap="butt"/><path d="M333.41666,223.67887c0.06234,0.2421 -0.17975,0.30445 -0.17975,0.30445l-0.41614,0.10524c-0.61699,0.00713 -1.04928,-0.30292 -1.57973,-0.27705c0,0 -0.24999,0.00176 -0.25176,-0.24823c-0.00177,-0.24999 0.24822,-0.25177 0.24822,-0.25177c0.60028,0.01228 0.89568,0.28236 1.51867,0.28124l0.35606,-0.09363c0,0 0.24211,-0.06235 0.30445,0.17975z" fill="#872929" stroke="none" stroke-width="0.5" stroke-linecap="butt"/><path d="M338.24806,223.16118c0.06234,0.2421 -0.17975,0.30445 -0.17975,0.30445l-0.37685,0.09686c-0.77633,0.25707 -1.3515,0.05523 -2.08427,-0.18152c0,0 -0.23772,-0.07737 -0.16034,-0.3151c0.07738,-0.23772 0.3151,-0.16034 0.3151,-0.16034c0.62759,0.20563 1.11586,0.41499 1.78633,0.1779l0.39535,-0.10199c0,0 0.24211,-0.06235 0.30445,0.17975z" fill="#872929" stroke="none" stroke-width="0.5" stroke-linecap="butt"/><g><g fill="#a2f30f" stroke="#000000" stroke-width="0"><path d="M255.52227,149.19744c-0.23566,-33.30101 28.33249,-60.50033 63.80872,-60.75138c35.47625,-0.25105 64.42645,26.54124 64.6621,59.84225c0.09699,13.70593 -4.68524,26.37825 -12.82016,36.56356c-0.76455,0.95725 2.43989,5.77059 2.43989,5.77059c0,0 -4.4727,-2.25634 -8.81142,-1.7106c-1.51101,0.19006 -2.84372,3.44822 -2.84372,3.44822c0,0 -5.73789,-1.70236 -8.35514,-1.41844c-1.63902,0.17781 -4.7783,4.82297 -4.7783,4.82297c0,0 -3.43322,-3.31716 -4.04841,-3.28351c-1.03036,0.05634 -5.26125,6.19866 -5.26125,6.19866l-4.52913,-4.98257l-5.28956,5.47444c0,0 -1.78307,-8.70161 -2.54609,-8.66996c-1.21219,0.05026 -2.53859,4.65549 -2.53859,4.65549c0,0 -3.09625,-3.38181 -4.70621,-3.67742c-1.76352,-0.32382 -3.5045,2.9647 -3.5045,2.9647c0,0 -4.22277,-2.96516 -4.42329,-2.96119c-1.21422,0.02398 -5.39357,2.07499 -5.39357,2.07499c0,0 -4.56973,-1.74547 -5.81351,-1.72133c-1.86436,0.03619 -6.37518,4.06481 -6.37518,4.06481c0,0 -4.17593,-5.58147 -5.63893,-5.56243c-2.43952,0.03175 -7.38307,3.2486 -7.38307,3.2486c0,0 -2.01886,-3.8252 -3.61946,-3.80591c-1.10649,0.01335 -3.66526,5.56802 -3.66526,5.56802c0,0 -0.1197,-4.86378 -1.04505,-5.72187c-1.06869,-0.99102 -4.27444,2.25939 -4.27444,2.25939c0,0 0.93109,-5.30642 0.56905,-5.73592c-8.56566,-10.16254 -13.71671,-22.98574 -13.81556,-36.95413z" stroke-linecap="butt"/><path d="M256.86062,161.54853l-19.67499,-61.37665l13.3337,7.7645l-4.16959,-53.08553l48.42263,26.21484l-6.20321,-34.10148l20.19262,19.63975l3.97267,-13.03588l13.98305,22.93563l14.48918,-20.42716l35.41493,64.51721" stroke-linecap="round"/></g><g fill="#75f20f" stroke="#000000" stroke-width="0"><path d="M247.805,132.65164c-0.23566,-33.30101 36.04976,-43.95453 71.52599,-44.20558c28.50975,-0.20175 52.80485,17.06162 61.36948,41.13267c0.08132,0.22854 -132.89547,3.07291 -132.89547,3.07291z" stroke-linecap="butt"/><path d="M247.51382,132.39092c-3.35681,-10.47167 -10.32818,-32.21903 -10.32818,-32.21903l13.3337,7.7645l-4.16959,-53.08553l48.42263,26.21484l-6.20321,-34.10148l20.19262,19.63975l3.97267,-13.03588l13.98305,22.93563l14.48918,-20.42716l35.41493,64.51721" stroke-linecap="round"/></g><g fill="#33965e" stroke="#000000" stroke-width="0" stroke-linecap="round"><path d="M242.07255,115.80515c-2.37935,-7.42246 -4.88691,-15.63327 -4.88691,-15.63327l13.3337,7.7645l-4.16959,-53.08553l48.42263,26.21485l-6.20321,-34.10148l20.19262,19.63974l3.97267,-13.03588l13.98305,22.93563l14.48918,-20.42716c0,0 25.80003,46.6355 31.39296,56.82444"/></g><g fill="#2d7a1a" stroke="#000000" stroke-width="0" stroke-linecap="round"><path d="M249.49827,94.93652c-0.76162,-9.69657 -3.14853,-40.08566 -3.14853,-40.08566l48.42263,26.21484l-6.20321,-34.10148l20.19262,19.63975l3.97267,-13.03588l13.98305,22.93563l14.48918,-20.42716c0,0 11.57375,21.0845 20.5164,37.37578"/></g><path d="M309.25785,174.9985l4.44856,-14.66522" fill="none" stroke="#81c10c" stroke-width="2" stroke-linecap="round"/><path d="M329.84285,173.49785l-4.71024,-14.6004" fill="none" stroke="#81c10c" stroke-width="2" stroke-linecap="round"/><path d="M269.17592,152.89939c-0.09176,-12.96768 10.34623,-23.55445 23.31392,-23.64622c12.96768,-0.09176 23.55445,10.34622 23.64623,23.31391c0.09176,12.96768 -10.34622,23.55446 -23.31391,23.64623c-12.96768,0.09176 -23.55446,-10.34622 -23.64623,-23.31392z" fill="#81c10c" stroke="none" stroke-width="0" stroke-linecap="butt"/><path d="M347.07925,175.82937c-12.96768,0.09176 -23.55445,-10.34623 -23.64623,-23.31392c-0.09176,-12.96768 10.34622,-23.55445 23.31391,-23.64622c12.96768,-0.09176 23.55446,10.34622 23.64623,23.31391c0.09176,12.96768 -10.34622,23.55446 -23.31392,23.64624z" fill="#81c10c" stroke="none" stroke-width="0" stroke-linecap="butt"/><path d="M269.15099,149.37662c-0.09176,-12.96768 10.34623,-23.55445 23.31392,-23.64623c12.96768,-0.09176 23.55445,10.34622 23.64623,23.31391c0.09176,12.96768 -10.34622,23.55446 -23.31391,23.64623c-12.96768,0.09176 -23.55446,-10.34622 -23.64623,-23.31392z" fill="#ffffff" stroke="#000000" stroke-width="0" stroke-linecap="butt"/><path d="M347.05433,172.30661c-12.96768,0.09176 -23.55445,-10.34623 -23.64623,-23.31392c-0.09176,-12.96768 10.34622,-23.55445 23.31391,-23.64622c12.96768,-0.09176 23.55446,10.34621 23.64624,23.31391c0.09176,12.96768 -10.34622,23.55446 -23.31392,23.64623z" fill="#ffffff" stroke="#000000" stroke-width="0" stroke-linecap="butt"/><path d="M254.67245,93.97982c0.96648,-0.00684 1.7555,0.7711 1.76234,1.73757c0.00684,0.96648 -0.7711,1.7555 -1.73757,1.76234c-0.85297,0.00603 -1.56772,-0.59919 -1.72854,-1.40581c-0.30636,0.49367 -0.85171,0.82406 -1.47563,0.82847c-0.96648,0.00684 -1.7555,-0.7711 -1.76235,-1.73757c-0.00684,-0.96648 0.7711,-1.7555 1.73758,-1.76234c0.85297,-0.00603 1.56772,0.59919 1.72854,1.40581c0.30636,-0.49367 0.85171,-0.82406 1.47563,-0.82847z" fill="#2d7a1a" stroke="none" stroke-width="0.5" stroke-linecap="butt"/><path d="M264.67361,94.10906c0.96648,-0.00684 1.7555,0.7711 1.76235,1.73757c0.00684,0.96648 -0.7711,1.7555 -1.73758,1.76235c-0.72042,0.0051 -1.34226,-0.42586 -1.61501,-1.04594c-0.07739,-0.04241 -0.14982,-0.09278 -0.21618,-0.15001c-0.05826,0.00628 -0.1174,0.0097 -0.17724,0.01013c-0.96648,0.00684 -1.7555,-0.7711 -1.76234,-1.73757c-0.00684,-0.96648 0.7711,-1.7555 1.73757,-1.76234c0.78568,-0.00556 1.4541,0.50751 1.68035,1.21888c0.1062,-0.02095 0.21587,-0.03228 0.32809,-0.03307z" fill="#2d7a1a" stroke="none" stroke-width="0.5" stroke-linecap="butt"/><path d="M278.52716,94.56103c-0.00684,-0.96648 0.7711,-1.7555 1.73757,-1.76234c0.96648,-0.00684 1.7555,0.7711 1.76234,1.73757c0.00684,0.96648 -0.7711,1.7555 -1.73757,1.76234c-0.96648,0.00684 -1.7555,-0.7711 -1.76234,-1.73757z" fill="#2d7a1a" stroke="none" stroke-width="0.5" stroke-linecap="butt"/><path d="M290.92261,93.87331c-0.00684,-0.96648 0.7711,-1.7555 1.73757,-1.76234c0.96648,-0.00684 1.7555,0.7711 1.76234,1.73757c0.00684,0.96648 -0.7711,1.7555 -1.73757,1.76234c-0.96648,0.00684 -1.7555,-0.7711 -1.76234,-1.73757z" fill="#2d7a1a" stroke="none" stroke-width="0.5" stroke-linecap="butt"/><path d="M303.72369,93.98272c0.00489,0.69034 -0.55078,1.25393 -1.24112,1.25882c-0.41361,0.00293 -0.78172,-0.19536 -1.01143,-0.50329c-0.06306,0.00733 -0.12714,0.01133 -0.19208,0.0118c-0.96648,0.00684 -1.7555,-0.7711 -1.76234,-1.73757c-0.00684,-0.96648 0.7711,-1.7555 1.73757,-1.76235c0.92446,-0.00655 1.68657,0.70495 1.75706,1.61265c0.41839,0.19965 0.70883,0.62522 0.71234,1.11995z" fill="#2d7a1a" stroke="none" stroke-width="0.5" stroke-linecap="butt"/><path d="M315.26386,92.55102c0.96648,-0.00684 1.7555,0.7711 1.76234,1.73757c0.00684,0.96648 -0.7711,1.7555 -1.73757,1.76234c-0.61821,0.00437 -1.1638,-0.31234 -1.47854,-0.79411c-0.04196,0.00331 -0.08434,0.00514 -0.12709,0.00545c-0.96648,0.00684 -1.7555,-0.7711 -1.76234,-1.73757c-0.00684,-0.96648 0.7711,-1.7555 1.73757,-1.76234c0.61821,-0.00437 1.1638,0.31234 1.47854,0.79411c0.04196,-0.00331 0.08434,-0.00514 0.12709,-0.00545z" fill="#2d7a1a" stroke="none" stroke-width="0.5" stroke-linecap="butt"/><path d="M326.72596,94.21996c-0.00521,-0.73714 0.44609,-1.37105 1.08937,-1.63341c0.31527,-0.32583 0.75616,-0.52969 1.24535,-0.53316c0.96648,-0.00684 1.7555,0.7711 1.76234,1.73757c0.00521,0.73714 -0.44609,1.37105 -1.08937,1.63341c-0.31527,0.32583 -0.75616,0.52969 -1.24535,0.53316c-0.96648,0.00684 -1.7555,-0.7711 -1.76234,-1.73757z" fill="#2d7a1a" stroke="none" stroke-width="0.5" stroke-linecap="butt"/><path d="M343.06175,92.1543c0.96648,-0.00684 1.7555,0.7711 1.76234,1.73757c0.00684,0.96648 -0.7711,1.7555 -1.73757,1.76234c-0.36847,0.00261 -0.71114,-0.10886 -0.99451,-0.30134c-0.18878,0.07143 -0.39322,0.11115 -0.60686,0.11267c-0.96648,0.00684 -1.7555,-0.7711 -1.76235,-1.73757c-0.00684,-0.96648 0.7711,-1.7555 1.73758,-1.76234c0.36847,-0.00261 0.71114,0.10885 0.99451,0.30134c0.18878,-0.07143 0.39322,-0.11115 0.60686,-0.11267z" fill="#2d7a1a" stroke="none" stroke-width="0.5" stroke-linecap="butt"/><path d="M345.32265,93.68834c-0.00684,-0.96648 0.7711,-1.7555 1.73757,-1.76234c0.96648,-0.00684 1.7555,0.7711 1.76234,1.73757c0.00684,0.96648 -0.7711,1.7555 -1.73757,1.76234c-0.96648,0.00684 -1.7555,-0.7711 -1.76234,-1.73757z" fill="#2d7a1a" stroke="none" stroke-width="0.5" stroke-linecap="butt"/><path d="M358.12234,93.59776c-0.00684,-0.96648 0.7711,-1.7555 1.73757,-1.76234c0.96648,-0.00684 1.7555,0.7711 1.76234,1.73757c0.00684,0.96648 -0.7711,1.7555 -1.73757,1.76234c-0.96648,0.00684 -1.7555,-0.7711 -1.76234,-1.73757z" fill="#2d7a1a" stroke="none" stroke-width="0.5" stroke-linecap="butt"/><path d="M349.61972,93.25793c-0.00489,-0.69034 0.55078,-1.25393 1.24112,-1.25882c0.68598,-0.00486 1.24682,0.5438 1.25866,1.22809c0.28884,-0.55911 0.8704,-0.94315 1.5434,-0.9479c0.96648,-0.00684 1.7555,0.7711 1.76235,1.73757c0.00684,0.96648 -0.7711,1.7555 -1.73758,1.76234c-0.96648,0.00684 -1.7555,-0.7711 -1.76234,-1.73757c-0.0003,-0.0433 0.00096,-0.08625 0.00375,-0.12878c-0.21946,0.34953 -0.60724,0.58307 -1.05054,0.5862c-0.69034,0.00489 -1.25393,-0.55078 -1.25882,-1.24112z" fill="#2d7a1a" stroke="none" stroke-width="0.5" stroke-linecap="butt"/><path d="M331.72442,93.98458c-0.00684,-0.96648 0.7711,-1.7555 1.73757,-1.76235c0.96648,-0.00684 1.7555,0.7711 1.76234,1.73758c0.00684,0.96648 -0.7711,1.7555 -1.73757,1.76234c-0.96648,0.00684 -1.7555,-0.7711 -1.76234,-1.73757z" fill="#2d7a1a" stroke="none" stroke-width="0.5" stroke-linecap="butt"/><path d="M305.12791,94.5728c-0.00684,-0.96648 0.7711,-1.7555 1.73757,-1.76234c0.96648,-0.00684 1.7555,0.7711 1.76235,1.73757c0.00684,0.96648 -0.7711,1.7555 -1.73757,1.76234c-0.96648,0.00684 -1.7555,-0.7711 -1.76235,-1.73757z" fill="#2d7a1a" stroke="none" stroke-width="0.5" stroke-linecap="butt"/><path d="M294.33242,95.24921c-0.00684,-0.96648 0.7711,-1.7555 1.73757,-1.76234c0.96648,-0.00684 1.7555,0.7711 1.76234,1.73757c0.00684,0.96648 -0.7711,1.7555 -1.73757,1.76234c-0.96648,0.00684 -1.7555,-0.7711 -1.76234,-1.73757z" fill="#2d7a1a" stroke="none" stroke-width="0.5" stroke-linecap="butt"/><path d="M285.73406,95.51006c-0.00684,-0.96648 0.7711,-1.7555 1.73757,-1.76234c0.96648,-0.00684 1.7555,0.7711 1.76234,1.73757c0.00684,0.96648 -0.7711,1.7555 -1.73757,1.76234c-0.96648,0.00684 -1.7555,-0.7711 -1.76234,-1.73757z" fill="#2d7a1a" stroke="none" stroke-width="0.5" stroke-linecap="butt"/><path d="M273.33578,95.7978c-0.00684,-0.96648 0.7711,-1.7555 1.73757,-1.76234c0.96648,-0.00684 1.7555,0.7711 1.76235,1.73757c0.00684,0.96648 -0.7711,1.7555 -1.73758,1.76234c-0.96648,0.00684 -1.7555,-0.7711 -1.76234,-1.73757z" fill="#2d7a1a" stroke="none" stroke-width="0.5" stroke-linecap="butt"/><path d="M266.53595,95.84593c-0.00684,-0.96648 0.7711,-1.7555 1.73757,-1.76234c0.96648,-0.00684 1.7555,0.7711 1.76235,1.73757c0.00684,0.96648 -0.7711,1.7555 -1.73758,1.76234c-0.96648,0.00684 -1.7555,-0.7711 -1.76234,-1.73757z" fill="#2d7a1a" stroke="none" stroke-width="0.5" stroke-linecap="butt"/><path d="M257.84467,97.10746c-0.00087,-0.12337 0.01615,-0.2427 0.04865,-0.3555c-0.6733,-0.23981 -1.15744,-0.88053 -1.16278,-1.63667c-0.00684,-0.96648 0.7711,-1.7555 1.73757,-1.76234c0.96648,-0.00684 1.7555,0.7711 1.76234,1.73757c0.00277,0.39109 -0.12296,0.75312 -0.33769,1.04601c0.27378,0.22737 0.44913,0.56949 0.45185,0.95323c0.00489,0.69034 -0.55078,1.25393 -1.24112,1.25882c-0.69034,0.00489 -1.25393,-0.55078 -1.25882,-1.24112z" fill="#2d7a1a" stroke="none" stroke-width="0.5" stroke-linecap="butt"/><path d="M242.67242,115.21528c-0.00684,-0.96648 0.7711,-1.7555 1.73757,-1.76234c0.96648,-0.00684 1.7555,0.7711 1.76234,1.73757c0.00684,0.96648 -0.7711,1.7555 -1.73757,1.76234c-0.96648,0.00684 -1.7555,-0.7711 -1.76234,-1.73757z" fill="#33965e" stroke="none" stroke-width="0.5" stroke-linecap="butt"/><path d="M253.98205,116.53528c-0.00195,-0.27566 0.08548,-0.5311 0.23517,-0.73884c-0.31686,0.42 -0.81875,0.69297 -1.38549,0.69698c-0.96648,0.00684 -1.7555,-0.7711 -1.76235,-1.73757c-0.00684,-0.96648 0.7711,-1.7555 1.73758,-1.76234c0.96648,-0.00684 1.7555,0.7711 1.76234,1.73757c0.00275,0.38822 -0.12113,0.74782 -0.33299,1.03958c0.22646,-0.29793 0.58371,-0.49135 0.98687,-0.49419c0.69034,-0.00489 1.25393,0.55078 1.25882,1.24112c0.00489,0.69034 -0.55078,1.25393 -1.24112,1.25882c-0.69034,0.00489 -1.25393,-0.55078 -1.25882,-1.24112z" fill="#33965e" stroke="none" stroke-width="0.5" stroke-linecap="butt"/><path d="M269.20796,113.07744c0.96648,-0.00684 1.7555,0.7711 1.76234,1.73757c0.00684,0.96648 -0.7711,1.7555 -1.73757,1.76234c-0.57245,0.00406 -1.08264,-0.26722 -1.40492,-0.6899c-0.31626,0.42721 -0.82257,0.70566 -1.39502,0.70972c-0.96648,0.00684 -1.7555,-0.7711 -1.76234,-1.73757c-0.00684,-0.96648 0.7711,-1.7555 1.73757,-1.76234c0.57245,-0.00406 1.08264,0.26722 1.40492,0.6899c0.31626,-0.42721 0.82257,-0.70566 1.39502,-0.70972z" fill="#33965e" stroke="none" stroke-width="0.5" stroke-linecap="butt"/><path d="M370.20118,111.76275c0.96648,-0.00684 1.7555,0.7711 1.76234,1.73757c0.00684,0.96648 -0.7711,1.7555 -1.73757,1.76234c-0.61935,0.00439 -1.16581,-0.31351 -1.48027,-0.79677c-0.31827,0.37413 -0.79135,0.61285 -1.32107,0.6166c-0.96648,0.00684 -1.7555,-0.7711 -1.76234,-1.73757c-0.00684,-0.96648 0.7711,-1.7555 1.73757,-1.76234c0.61935,-0.00439 1.16582,0.3135 1.48028,0.79677c0.31827,-0.37413 0.79135,-0.61284 1.32107,-0.61659z" fill="#33965e" stroke="none" stroke-width="0.5" stroke-linecap="butt"/><path d="M354.66395,113.62273c-0.00684,-0.96648 0.7711,-1.7555 1.73757,-1.76234c0.96648,-0.00684 1.7555,0.7711 1.76235,1.73757c0.00684,0.96648 -0.7711,1.7555 -1.73757,1.76234c-0.96648,0.00684 -1.7555,-0.7711 -1.76235,-1.73757z" fill="#33965e" stroke="none" stroke-width="0.5" stroke-linecap="butt"/><path d="M350.46265,113.45247c-0.00684,-0.96648 0.7711,-1.7555 1.73757,-1.76235c0.96648,-0.00684 1.7555,0.7711 1.76234,1.73758c0.00684,0.96648 -0.7711,1.7555 -1.73757,1.76234c-0.96648,0.00684 -1.7555,-0.7711 -1.76234,-1.73757z" fill="#33965e" stroke="none" stroke-width="0.5" stroke-linecap="butt"/><path d="M345.46136,113.28785c-0.00684,-0.96648 0.7711,-1.7555 1.73757,-1.76234c0.96648,-0.00684 1.7555,0.7711 1.76234,1.73757c0.00684,0.96648 -0.7711,1.7555 -1.73757,1.76234c-0.96648,0.00684 -1.7555,-0.7711 -1.76234,-1.73757z" fill="#33965e" stroke="none" stroke-width="0.5" stroke-linecap="butt"/><path d="M343.00997,115.10052c-0.38688,1.18862 -1.57551,0.80174 -1.57551,0.80174l-1.2028,-0.3915c0,0 -1.18862,-0.38689 -0.80174,-1.57551c0.38688,-1.18862 1.5755,-0.80174 1.5755,-0.80174l0.06255,0.02036c0.07688,-0.88966 0.82025,-1.59079 1.73107,-1.59723c0.96648,-0.00684 1.7555,0.7711 1.76234,1.73757c0.00635,0.89753 -0.6641,1.64202 -1.53382,1.74917c-0.00546,0.01884 -0.01131,0.03788 -0.01757,0.05715z" fill="#33965e" stroke="none" stroke-width="0.5" stroke-linecap="butt"/><path d="M335.86301,113.55577c-0.00684,-0.96648 0.7711,-1.7555 1.73758,-1.76234c0.96648,-0.00684 1.7555,0.7711 1.76234,1.73757c0.00684,0.96648 -0.7711,1.7555 -1.73757,1.76234c-0.23028,0.00163 -0.45051,-0.04129 -0.65246,-0.12071c-0.48919,-0.09636 -0.87667,-0.47839 -0.97994,-0.96616c-0.08226,-0.20081 -0.12831,-0.42041 -0.12994,-0.65069z" fill="#33965e" stroke="none" stroke-width="0.5" stroke-linecap="butt"/><path d="M327.66321,113.6138c-0.01238,-1.74996 1.73757,-1.76234 1.73757,-1.76234l2.19994,-0.01557c0,0 1.74995,-0.01238 1.76234,1.73757c0.01238,1.74996 -1.73757,1.76234 -1.73757,1.76234l-2.19994,0.01557c0,0 -1.74996,0.01238 -1.76235,-1.73757z" fill="#33965e" stroke="none" stroke-width="0.5" stroke-linecap="butt"/><path d="M322.46476,113.8506c-0.00684,-0.96648 0.7711,-1.7555 1.73757,-1.76235c0.96648,-0.00684 1.7555,0.7711 1.76235,1.73758c0.00684,0.96648 -0.7711,1.7555 -1.73758,1.76234c-0.96648,0.00684 -1.7555,-0.7711 -1.76234,-1.73757z" fill="#33965e" stroke="none" stroke-width="0.5" stroke-linecap="butt"/><path d="M316.66773,114.29163c-0.00684,-0.96648 0.7711,-1.7555 1.73757,-1.76234c0.96648,-0.00684 1.7555,0.7711 1.76235,1.73757c0.00684,0.96648 -0.7711,1.7555 -1.73757,1.76234c-0.96648,0.00684 -1.7555,-0.7711 -1.76235,-1.73757z" fill="#33965e" stroke="none" stroke-width="0.5" stroke-linecap="butt"/><path d="M311.86786,114.3256c-0.00684,-0.96648 0.7711,-1.7555 1.73757,-1.76234c0.96648,-0.00684 1.7555,0.7711 1.76234,1.73757c0.00684,0.96648 -0.7711,1.7555 -1.73757,1.76235c-0.96648,0.00684 -1.7555,-0.7711 -1.76234,-1.73758z" fill="#33965e" stroke="none" stroke-width="0.5" stroke-linecap="butt"/><path d="M303.86806,114.38221c-0.00684,-0.96648 0.7711,-1.7555 1.73757,-1.76234c0.96648,-0.00684 1.7555,0.7711 1.76234,1.73757c0.00684,0.96648 -0.7711,1.7555 -1.73757,1.76234c-0.96648,0.00684 -1.7555,-0.7711 -1.76234,-1.73757z" fill="#33965e" stroke="none" stroke-width="0.5" stroke-linecap="butt"/><path d="M297.06823,114.43033c-0.00684,-0.96648 0.7711,-1.7555 1.73757,-1.76234c0.96648,-0.00684 1.7555,0.7711 1.76234,1.73757c0.00684,0.96648 -0.7711,1.7555 -1.73757,1.76235c-0.96648,0.00684 -1.7555,-0.7711 -1.76234,-1.73758z" fill="#33965e" stroke="none" stroke-width="0.5" stroke-linecap="butt"/><path d="M295.65413,114.21711c-0.16802,1.23866 -1.40668,1.07065 -1.40668,1.07065l-1.20535,-0.1635c-0.25736,0.63832 -0.88044,1.09084 -1.61133,1.09602c-0.96648,0.00684 -1.7555,-0.7711 -1.76235,-1.73757c-0.00684,-0.96648 0.7711,-1.7555 1.73758,-1.76234c0.27626,-0.00196 0.53804,0.06021 0.77118,0.17258c0.42044,-0.35187 1.00494,-0.27259 1.00494,-0.27259l1.40138,0.19008c0,0 1.23866,0.16802 1.07064,1.40667z" fill="#33965e" stroke="none" stroke-width="0.5" stroke-linecap="butt"/><path d="M289.27691,115.68549c0.00489,0.69034 -0.55078,1.25393 -1.24112,1.25882c-0.49299,0.00349 -0.92134,-0.27889 -1.12774,-0.69203l-1.47715,0.01045c0,0 -1.74996,0.01238 -1.76235,-1.73758c-0.01238,-1.74996 1.73758,-1.76234 1.73758,-1.76234l2.19994,-0.01556c0,0 1.74996,-0.01238 1.76235,1.73757c0.00232,0.32818 -0.05735,0.59524 -0.15582,0.81259c0.04083,0.122 0.06335,0.25245 0.06431,0.38808z" fill="#33965e" stroke="none" stroke-width="0.5" stroke-linecap="butt"/><path d="M272.87167,115.00157c-0.00684,-0.96648 0.7711,-1.7555 1.73758,-1.76234c0.42805,-0.00302 0.8213,0.14788 1.12719,0.40094c0.3074,-0.4886 0.84985,-0.81495 1.46991,-0.81934c0.96648,-0.00684 1.7555,0.7711 1.76235,1.73757c0.00684,0.96648 -0.7711,1.7555 -1.73757,1.76234c-0.42805,0.00302 -0.8213,-0.14788 -1.1272,-0.40094c-0.3074,0.4886 -0.84985,0.81495 -1.46991,0.81934c-0.96648,0.00684 -1.7555,-0.7711 -1.76235,-1.73757z" fill="#33965e" stroke="none" stroke-width="0.5" stroke-linecap="butt"/><path d="M359.4511,111.78882c-0.00684,-0.96648 0.7711,-1.7555 1.73757,-1.76235c0.96648,-0.00684 1.7555,0.7711 1.76234,1.73758c0.00684,0.96648 -0.7711,1.7555 -1.73757,1.76234c-0.96648,0.00684 -1.7555,-0.7711 -1.76234,-1.73757z" fill="#33965e" stroke="none" stroke-width="0.5" stroke-linecap="butt"/><path d="M248.39116,131.97522c-0.00684,-0.96648 0.7711,-1.7555 1.73758,-1.76234c0.96648,-0.00684 1.7555,0.7711 1.76234,1.73757c0.00684,0.96648 -0.7711,1.7555 -1.73757,1.76234c-0.96648,0.00684 -1.7555,-0.7711 -1.76235,-1.73757z" fill="#75f20f" stroke="none" stroke-width="0.5" stroke-linecap="butt"/><path d="M264.13758,131.41379c0.69034,-0.00489 1.25393,0.55078 1.25882,1.24112c0.00489,0.69034 -0.55078,1.25393 -1.24112,1.25882c-0.16084,0.00114 -0.31478,-0.02815 -0.45641,-0.08248c-0.50292,0.38928 -1.14144,0.39379 -1.14144,0.39379l-1.33205,0.00943c0.11686,0.18857 0.185,0.41062 0.18667,0.6487c0.00489,0.69034 -0.55078,1.25393 -1.24113,1.25881c-0.69034,0.00489 -1.25393,-0.55078 -1.25882,-1.24112c-0.00331,-0.46811 0.25111,-0.87794 0.6305,-1.09481c-0.03971,-0.03352 -0.07835,-0.06962 -0.11554,-0.10853c-0.3167,0.34067 -0.76771,0.55512 -1.26955,0.55867c-0.96648,0.00684 -1.7555,-0.7711 -1.76235,-1.73757c-0.00684,-0.96648 0.7711,-1.7555 1.73758,-1.76234c0.50184,-0.00355 0.95583,0.20449 1.27732,0.54064c0.51401,-0.55332 1.32261,-0.55905 1.32261,-0.55905l1.79995,-0.01274c0,0 0.95744,-0.00677 1.46094,0.69789c0.04722,-0.00575 0.09527,-0.00888 0.14398,-0.00923z" fill="#75f20f" stroke="none" stroke-width="0.5" stroke-linecap="butt"/><path d="M267.91049,134.63717c-0.00161,-0.2277 0.05776,-0.44161 0.16284,-0.62624c-0.40863,-0.31758 -0.67303,-0.81248 -0.67698,-1.37017c-0.00684,-0.96648 0.7711,-1.7555 1.73757,-1.76234c0.17374,-0.00123 0.34174,0.0229 0.50051,0.06893c0.15809,-0.04827 0.32574,-0.07478 0.49947,-0.07601c0.96648,-0.00684 1.7555,0.7711 1.76235,1.73757c0.0063,0.89125 -0.65475,1.6316 -1.5156,1.74681c0.01889,0.08496 0.02915,0.1732 0.02979,0.26375c0.00489,0.69034 -0.55078,1.25393 -1.24112,1.25882c-0.69034,0.00489 -1.25393,-0.55078 -1.25882,-1.24112z" fill="#75f20f" stroke="none" stroke-width="0.5" stroke-linecap="butt"/><path d="M322.19356,132.05298c0.00489,0.69034 -0.55078,1.25393 -1.24112,1.25882c-0.12157,0.00087 -0.2392,-0.01566 -0.35054,-0.04725c-0.29089,0.22167 -0.65344,0.35436 -1.0473,0.35714c-0.59714,0.00423 -1.12654,-0.29113 -1.44556,-0.74544c-0.28544,0.56927 -0.87245,0.96185 -1.55294,0.96667c-0.53819,0.00381 -1.02135,-0.23573 -1.34506,-0.61566c-0.25281,0.14515 -0.54542,0.22903 -0.85771,0.23124c-0.78568,0.00556 -1.4541,-0.50752 -1.68035,-1.21889c-0.1062,0.02095 -0.21587,0.03228 -0.32809,0.03307c-0.96648,0.00684 -1.7555,-0.7711 -1.76234,-1.73757c-0.00684,-0.96648 0.7711,-1.7555 1.73757,-1.76234c0.78568,-0.00556 1.45409,0.50751 1.68035,1.21889c0.1062,-0.02095 0.21588,-0.03228 0.3281,-0.03307c0.53819,-0.00381 1.02135,0.23573 1.34506,0.61566c0.25281,-0.14515 0.54542,-0.22902 0.85771,-0.23123c0.59714,-0.00423 1.12653,0.29113 1.44556,0.74544c0.28544,-0.56927 0.87246,-0.96185 1.55295,-0.96667c0.57253,-0.00406 1.08278,0.26728 1.40505,0.69007c0.69029,-0.00482 1.2538,0.55083 1.25869,1.24113z" fill="#75f20f" stroke="none" stroke-width="0.5" stroke-linecap="butt"/><path d="M324.49633,132.43669c-0.00132,-0.18608 0.03809,-0.36294 0.10989,-0.52214c-0.08878,-0.05547 -0.17223,-0.11866 -0.24942,-0.18868c-0.18097,0.10427 -0.39058,0.16456 -0.61434,0.16614c-0.69034,0.00489 -1.25393,-0.55078 -1.25882,-1.24113c-0.00489,-0.69034 0.55078,-1.25393 1.24113,-1.25881c0.12571,-0.00089 0.2472,0.01681 0.3619,0.05051c0.31277,-0.45733 0.83708,-0.75902 1.4331,-0.76324c0.96648,-0.00684 1.7555,0.7711 1.76234,1.73757c0.00352,0.49685 -0.20037,0.94679 -0.53065,1.2677c0.15214,0.2054 0.24286,0.45919 0.2448,0.73438c0.00489,0.69034 -0.55078,1.25393 -1.24112,1.25882c-0.69034,0.00489 -1.25393,-0.55078 -1.25882,-1.24112z" fill="#75f20f" stroke="none" stroke-width="0.5" stroke-linecap="butt"/><path d="M363.1798,129.96288c-0.00684,-0.96648 0.7711,-1.7555 1.73758,-1.76234c0.96648,-0.00684 1.7555,0.7711 1.76234,1.73757c0.00684,0.96648 -0.7711,1.7555 -1.73757,1.76234c-0.96648,0.00684 -1.7555,-0.7711 -1.76235,-1.73757z" fill="#75f20f" stroke="none" stroke-width="0.5" stroke-linecap="butt"/><path d="M374.98375,130.47937c0.00489,0.69034 -0.55078,1.25393 -1.24112,1.25882c-0.17655,0.00124 -0.34481,-0.03416 -0.49756,-0.09911c-0.25299,-0.012 -0.49207,-0.0778 -0.70596,-0.18627c-0.14968,0.51794 -0.62557,0.89835 -1.1922,0.90235c-0.56885,0.00403 -1.05163,-0.37256 -1.20668,-0.89148c-0.96632,0.00666 -1.75516,-0.77121 -1.76201,-1.73758c-0.00684,-0.96648 0.7711,-1.7555 1.73757,-1.76234c0.75515,-0.00535 1.40198,0.46842 1.65199,1.13688c0.28675,-0.5654 0.8717,-0.95473 1.54935,-0.95953c0.96648,-0.00684 1.7555,0.7711 1.76234,1.73758c0.00145,0.20508 -0.03244,0.40216 -0.09595,0.58547c0.00009,0.00507 0.00016,0.01014 0.0002,0.01522z" fill="#75f20f" stroke="none" stroke-width="0.5" stroke-linecap="butt"/><path d="M375.49364,131.8758c-0.00462,-0.65193 0.49069,-1.19082 1.12721,-1.25289c-0.02445,-0.11451 -0.03771,-0.23319 -0.03856,-0.35485c-0.00684,-0.96648 0.7711,-1.7555 1.73757,-1.76234c0.96648,-0.00684 1.7555,0.7711 1.76234,1.73757c0.00684,0.96648 -0.7711,1.7555 -1.73757,1.76234c-0.12167,0.00086 -0.24053,-0.01072 -0.35537,-0.03353c-0.05305,0.63734 -0.58487,1.14022 -1.23681,1.14483c-0.69034,0.00489 -1.25393,-0.55078 -1.25882,-1.24112z" fill="#75f20f" stroke="none" stroke-width="0.5" stroke-linecap="butt"/><path d="M252.1307,137.5489c-0.00489,-0.69034 0.55078,-1.25393 1.24112,-1.25882c0.69034,-0.00489 1.25393,0.55078 1.25882,1.24112c0.00489,0.69034 -0.55078,1.25393 -1.24112,1.25882c-0.69034,0.00489 -1.25393,-0.55078 -1.25882,-1.24112z" fill="#75f20f" stroke="none" stroke-width="0.5" stroke-linecap="butt"/><path d="M314.31498,135.1088c-0.00489,-0.69034 0.55078,-1.25393 1.24112,-1.25882c0.69034,-0.00489 1.25393,0.55078 1.25882,1.24112c0.00489,0.69034 -0.55078,1.25393 -1.24112,1.25882c-0.69034,0.00489 -1.25393,-0.55078 -1.25882,-1.24112z" fill="#75f20f" stroke="none" stroke-width="0.5" stroke-linecap="butt"/><path d="M368.09949,132.72814c-0.00489,-0.69034 0.55078,-1.25393 1.24112,-1.25882c0.69034,-0.00489 1.25393,0.55078 1.25882,1.24112c0.00489,0.69034 -0.55078,1.25393 -1.24112,1.25882c-0.69034,0.00489 -1.25393,-0.55078 -1.25882,-1.24112z" fill="#75f20f" stroke="none" stroke-width="0.5" stroke-linecap="butt"/><path d="M377.90915,134.05876c-0.00489,-0.69034 0.55078,-1.25393 1.24113,-1.25882c0.69034,-0.00489 1.25393,0.55078 1.25882,1.24112c0.00489,0.69034 -0.55078,1.25393 -1.24113,1.25882c-0.69034,0.00489 -1.25393,-0.55078 -1.25882,-1.24112z" fill="#75f20f" stroke="none" stroke-width="0.5" stroke-linecap="butt"/><path d="M247.61759,121.58044c-0.00489,-0.69034 0.55078,-1.25393 1.24112,-1.25882c0.69034,-0.00489 1.25393,0.55078 1.25882,1.24112c0.00489,0.69034 -0.55078,1.25393 -1.24112,1.25882c-0.69034,0.00489 -1.25393,-0.55078 -1.25882,-1.24112z" fill="#33965e" stroke="none" stroke-width="0.5" stroke-linecap="butt"/><path d="M250.39487,118.36071c-0.00489,-0.69034 0.55078,-1.25393 1.24112,-1.25882c0.69034,-0.00489 1.25393,0.55078 1.25882,1.24112c0.00489,0.69034 -0.55078,1.25393 -1.24112,1.25882c-0.69034,0.00489 -1.25393,-0.55078 -1.25882,-1.24112z" fill="#33965e" stroke="none" stroke-width="0.5" stroke-linecap="butt"/><path d="M259.7819,116.49423c-0.00489,-0.69034 0.55078,-1.25393 1.24112,-1.25882c0.69034,-0.00489 1.25393,0.55078 1.25882,1.24112c0.00489,0.69034 -0.55078,1.25393 -1.24112,1.25882c-0.69034,0.00489 -1.25393,-0.55078 -1.25882,-1.24112z" fill="#33965e" stroke="none" stroke-width="0.5" stroke-linecap="butt"/><path d="M274.79426,118.18804c-0.00489,-0.69034 0.55078,-1.25393 1.24112,-1.25882c0.69034,-0.00489 1.25393,0.55078 1.25882,1.24112c0.00489,0.69034 -0.55078,1.25393 -1.24112,1.25882c-0.69034,0.00489 -1.25393,-0.55078 -1.25882,-1.24112z" fill="#33965e" stroke="none" stroke-width="0.5" stroke-linecap="butt"/><path d="M280.20404,119.5498c-0.00489,-0.69034 0.55078,-1.25393 1.24112,-1.25882c0.69034,-0.00489 1.25393,0.55078 1.25882,1.24112c0.00489,0.69034 -0.55078,1.25393 -1.24112,1.25882c-0.69034,0.00489 -1.25393,-0.55078 -1.25882,-1.24112z" fill="#33965e" stroke="none" stroke-width="0.5" stroke-linecap="butt"/><path d="M311.86212,118.67481c-0.94329,0.82018 -1.76347,-0.1231 -1.76347,-0.1231l-1.20988,-1.39148c0,0 -0.82018,-0.94329 0.1231,-1.76347c0.94329,-0.82018 1.76347,0.1231 1.76347,0.1231l1.20988,1.39147c0,0 0.82018,0.94329 -0.1231,1.76347z" fill="#33965e" stroke="none" stroke-width="0.5" stroke-linecap="butt"/><path d="M317.00877,120.08937c-0.00489,-0.69034 0.55078,-1.25393 1.24112,-1.25882c0.69034,-0.00489 1.25393,0.55078 1.25882,1.24112c0.00489,0.69034 -0.55078,1.25393 -1.24112,1.25882c-0.69034,0.00489 -1.25393,-0.55078 -1.25882,-1.24112z" fill="#33965e" stroke="none" stroke-width="0.5" stroke-linecap="butt"/><path d="M319.81295,120.66954c-0.00489,-0.69034 0.55078,-1.25393 1.24112,-1.25882c0.69034,-0.00489 1.25393,0.55078 1.25882,1.24112c0.00489,0.69034 -0.55078,1.25393 -1.24112,1.25882c-0.69034,0.00489 -1.25393,-0.55078 -1.25882,-1.24112z" fill="#33965e" stroke="none" stroke-width="0.5" stroke-linecap="butt"/><path d="M361.57652,115.37386c-0.00489,-0.69034 0.55078,-1.25393 1.24112,-1.25882c0.69034,-0.00489 1.25393,0.55078 1.25882,1.24112c0.00489,0.69034 -0.55078,1.25393 -1.24112,1.25882c-0.69034,0.00489 -1.25393,-0.55078 -1.25882,-1.24112z" fill="#33965e" stroke="none" stroke-width="0.5" stroke-linecap="butt"/><path d="M367.20044,118.73416c-0.00489,-0.69034 0.55078,-1.25393 1.24112,-1.25882c0.69034,-0.00489 1.25393,0.55078 1.25882,1.24112c0.00489,0.69034 -0.55078,1.25393 -1.24112,1.25882c-0.69034,0.00489 -1.25393,-0.55078 -1.25882,-1.24112z" fill="#33965e" stroke="none" stroke-width="0.5" stroke-linecap="butt"/><path d="M252.27452,101.34698c-0.00489,-0.69034 0.55078,-1.25393 1.24112,-1.25882c0.69034,-0.00489 1.25393,0.55078 1.25882,1.24112c0.00489,0.69034 -0.55078,1.25393 -1.24112,1.25882c-0.69034,0.00489 -1.25393,-0.55078 -1.25882,-1.24112z" fill="#2d7a1a" stroke="none" stroke-width="0.5" stroke-linecap="butt"/><path d="M275.46403,99.78284c-0.00489,-0.69034 0.55078,-1.25393 1.24112,-1.25882c0.69034,-0.00489 1.25393,0.55078 1.25882,1.24112c0.00489,0.69034 -0.55078,1.25393 -1.24112,1.25882c-0.69034,0.00489 -1.25393,-0.55078 -1.25882,-1.24112z" fill="#2d7a1a" stroke="none" stroke-width="0.5" stroke-linecap="butt"/><path d="M282.88932,103.33039c-0.00489,-0.69034 0.55078,-1.25393 1.24112,-1.25882c0.69034,-0.00489 1.25393,0.55078 1.25882,1.24112c0.00489,0.69034 -0.55078,1.25393 -1.24112,1.25882c-0.69034,0.00489 -1.25393,-0.55078 -1.25882,-1.24112z" fill="#2d7a1a" stroke="none" stroke-width="0.5" stroke-linecap="butt"/><path d="M297.24651,97.22864c-0.00489,-0.69034 0.55078,-1.25393 1.24112,-1.25882c0.69034,-0.00489 1.25393,0.55078 1.25882,1.24112c0.00489,0.69034 -0.55078,1.25393 -1.24112,1.25882c-0.69034,0.00489 -1.25393,-0.55078 -1.25882,-1.24112z" fill="#2d7a1a" stroke="none" stroke-width="0.5" stroke-linecap="butt"/><path d="M325.8656,99.82619c-0.00489,-0.69034 0.55078,-1.25393 1.24112,-1.25882c0.69034,-0.00489 1.25393,0.55078 1.25882,1.24112c0.00489,0.69034 -0.55078,1.25393 -1.24112,1.25882c-0.69034,0.00489 -1.25393,-0.55078 -1.25882,-1.24112z" fill="#2d7a1a" stroke="none" stroke-width="0.5" stroke-linecap="butt"/><path d="M330.47257,100.7936c-0.00489,-0.69034 0.55078,-1.25393 1.24112,-1.25882c0.69034,-0.00489 1.25393,0.55078 1.25882,1.24112c0.00489,0.69034 -0.55078,1.25393 -1.24112,1.25882c-0.69034,0.00489 -1.25393,-0.55078 -1.25882,-1.24112z" fill="#2d7a1a" stroke="none" stroke-width="0.5" stroke-linecap="butt"/><path d="M345.44529,96.88756c-0.00489,-0.69034 0.55078,-1.25393 1.24113,-1.25882c0.69034,-0.00489 1.25393,0.55078 1.25882,1.24112c0.00489,0.69034 -0.55078,1.25393 -1.24113,1.25882c-0.69034,0.00489 -1.25393,-0.55078 -1.25882,-1.24112z" fill="#2d7a1a" stroke="none" stroke-width="0.5" stroke-linecap="butt"/><path d="M358.66479,99.59408c-0.00489,-0.69034 0.55078,-1.25393 1.24112,-1.25882c0.69034,-0.00489 1.25393,0.55078 1.25882,1.24112c0.00489,0.69034 -0.55078,1.25393 -1.24112,1.25882c-0.69034,0.00489 -1.25393,-0.55078 -1.25882,-1.24112z" fill="#2d7a1a" stroke="none" stroke-width="0.5" stroke-linecap="butt"/><path d="M252.42689,108.74609c-0.00293,-0.4142 0.33047,-0.75236 0.74467,-0.75529c0.4142,-0.00293 0.75236,0.33047 0.75529,0.74468c0.00293,0.4142 -0.33047,0.75236 -0.74467,0.75529c-0.4142,0.00293 -0.75236,-0.33047 -0.75529,-0.74468z" fill="#2d7a1a" stroke="none" stroke-width="0.5" stroke-linecap="butt"/><path d="M260.63093,109.28805c-0.00293,-0.4142 0.33047,-0.75236 0.74467,-0.75529c0.4142,-0.00293 0.75236,0.33048 0.75529,0.74468c0.00293,0.4142 -0.33047,0.75236 -0.74468,0.75529c-0.4142,0.00293 -0.75236,-0.33047 -0.75529,-0.74467z" fill="#2d7a1a" stroke="none" stroke-width="0.5" stroke-linecap="butt"/><path d="M267.63075,109.23851c-0.00293,-0.4142 0.33047,-0.75236 0.74467,-0.75529c0.4142,-0.00293 0.75236,0.33047 0.75529,0.74467c0.00293,0.4142 -0.33047,0.75236 -0.74467,0.75529c-0.4142,0.00293 -0.75236,-0.33047 -0.75529,-0.74467z" fill="#2d7a1a" stroke="none" stroke-width="0.5" stroke-linecap="butt"/><path d="M276.42911,108.97624c-0.00293,-0.4142 0.33048,-0.75236 0.74468,-0.75529c0.4142,-0.00293 0.75236,0.33047 0.75529,0.74468c0.00293,0.4142 -0.33047,0.75236 -0.74467,0.75529c-0.4142,0.00293 -0.75236,-0.33047 -0.75529,-0.74467z" fill="#2d7a1a" stroke="none" stroke-width="0.5" stroke-linecap="butt"/><path d="M291.02734,108.67293c-0.00293,-0.4142 0.33047,-0.75236 0.74467,-0.75529c0.4142,-0.00293 0.75236,0.33047 0.75529,0.74467c0.00293,0.4142 -0.33047,0.75236 -0.74467,0.75529c-0.4142,0.00293 -0.75236,-0.33047 -0.75529,-0.74467z" fill="#2d7a1a" stroke="none" stroke-width="0.5" stroke-linecap="butt"/><path d="M305.42273,107.97105c-0.00293,-0.4142 0.33047,-0.75236 0.74467,-0.75529c0.4142,-0.00293 0.75236,0.33047 0.75529,0.74467c0.00293,0.4142 -0.33047,0.75236 -0.74467,0.75529c-0.4142,0.00293 -0.75236,-0.33047 -0.75529,-0.74467z" fill="#2d7a1a" stroke="none" stroke-width="0.5" stroke-linecap="butt"/><path d="M315.22107,107.70171c-0.00293,-0.4142 0.33047,-0.75236 0.74467,-0.75529c0.4142,-0.00293 0.75236,0.33047 0.75529,0.74467c0.00293,0.4142 -0.33047,0.75236 -0.74467,0.75529c-0.4142,0.00293 -0.75236,-0.33047 -0.75529,-0.74467z" fill="#2d7a1a" stroke="none" stroke-width="0.5" stroke-linecap="butt"/><path d="M324.02085,107.63943c-0.00293,-0.4142 0.33047,-0.75236 0.74468,-0.75529c0.4142,-0.00293 0.75236,0.33047 0.75529,0.74467c0.00293,0.4142 -0.33047,0.75236 -0.74467,0.75529c-0.4142,0.00293 -0.75236,-0.33048 -0.75529,-0.74468z" fill="#2d7a1a" stroke="none" stroke-width="0.5" stroke-linecap="butt"/><path d="M335.22906,108.76015c-0.00293,-0.4142 0.33047,-0.75236 0.74467,-0.75529c0.4142,-0.00293 0.75236,0.33047 0.75529,0.74467c0.00293,0.4142 -0.33047,0.75236 -0.74467,0.75529c-0.4142,0.00293 -0.75236,-0.33047 -0.75529,-0.74467z" fill="#2d7a1a" stroke="none" stroke-width="0.5" stroke-linecap="butt"/><path d="M342.22889,108.71061c-0.00293,-0.4142 0.33047,-0.75236 0.74467,-0.75529c0.4142,-0.00293 0.75236,0.33047 0.75529,0.74467c0.00293,0.4142 -0.33047,0.75236 -0.74467,0.75529c-0.4142,0.00293 -0.75236,-0.33047 -0.75529,-0.74467z" fill="#2d7a1a" stroke="none" stroke-width="0.5" stroke-linecap="butt"/><path d="M353.62859,108.62994c-0.00293,-0.4142 0.33047,-0.75236 0.74467,-0.75529c0.4142,-0.00293 0.75236,0.33047 0.75529,0.74467c0.00293,0.4142 -0.33047,0.75236 -0.74467,0.75529c-0.4142,0.00293 -0.75236,-0.33047 -0.75529,-0.74467z" fill="#2d7a1a" stroke="none" stroke-width="0.5" stroke-linecap="butt"/><path d="M360.02844,108.58465c-0.00293,-0.4142 0.33047,-0.75236 0.74468,-0.75529c0.4142,-0.00293 0.75236,0.33047 0.75529,0.74468c0.00293,0.4142 -0.33047,0.75236 -0.74468,0.75529c-0.4142,0.00293 -0.75236,-0.33047 -0.75529,-0.74468z" fill="#2d7a1a" stroke="none" stroke-width="0.5" stroke-linecap="butt"/><path d="M249.75433,126.76545c-0.00293,-0.4142 0.33047,-0.75236 0.74468,-0.75529c0.4142,-0.00293 0.75236,0.33047 0.75529,0.74467c0.00293,0.4142 -0.33047,0.75236 -0.74467,0.75529c-0.4142,0.00293 -0.75236,-0.33048 -0.75529,-0.74468z" fill="#33965e" stroke="none" stroke-width="0.5" stroke-linecap="butt"/><path d="M259.33286,123.69759c-0.00293,-0.4142 0.33047,-0.75236 0.74467,-0.75529c0.4142,-0.00293 0.75236,0.33047 0.75529,0.74467c0.00293,0.4142 -0.33047,0.75236 -0.74467,0.75529c-0.4142,0.00293 -0.75236,-0.33047 -0.75529,-0.74467z" fill="#33965e" stroke="none" stroke-width="0.5" stroke-linecap="butt"/><path d="M269.5595,127.42531c-0.00293,-0.4142 0.33047,-0.75236 0.74468,-0.75529c0.4142,-0.00293 0.75236,0.33047 0.75529,0.74467c0.00293,0.4142 -0.33047,0.75236 -0.74468,0.75529c-0.4142,0.00293 -0.75236,-0.33047 -0.75529,-0.74467z" fill="#33965e" stroke="none" stroke-width="0.5" stroke-linecap="butt"/><path d="M292.71929,121.66129c-0.00293,-0.4142 0.33047,-0.75236 0.74467,-0.75529c0.4142,-0.00293 0.75236,0.33047 0.75529,0.74467c0.00293,0.4142 -0.33047,0.75236 -0.74467,0.75529c-0.4142,0.00293 -0.75236,-0.33047 -0.75529,-0.74467z" fill="#33965e" stroke="none" stroke-width="0.5" stroke-linecap="butt"/><path d="M312.7202,121.71976c-0.00293,-0.4142 0.33047,-0.75236 0.74467,-0.75529c0.4142,-0.00293 0.75236,0.33047 0.75529,0.74468c0.00293,0.4142 -0.33047,0.75236 -0.74467,0.75529c-0.4142,0.00293 -0.75236,-0.33047 -0.75529,-0.74468z" fill="#33965e" stroke="none" stroke-width="0.5" stroke-linecap="butt"/><path d="M322.55534,126.65028c-0.00293,-0.4142 0.33047,-0.75236 0.74467,-0.75529c0.4142,-0.00293 0.75236,0.33047 0.75529,0.74467c0.00293,0.4142 -0.33047,0.75236 -0.74467,0.75529c-0.4142,0.00293 -0.75236,-0.33047 -0.75529,-0.74467z" fill="#33965e" stroke="none" stroke-width="0.5" stroke-linecap="butt"/><path d="M341.91948,121.51312c-0.00293,-0.4142 0.33047,-0.75236 0.74467,-0.75529c0.4142,-0.00293 0.75236,0.33047 0.75529,0.74467c0.00293,0.4142 -0.33047,0.75236 -0.74467,0.75529c-0.4142,0.00293 -0.75236,-0.33047 -0.75529,-0.74467z" fill="#33965e" stroke="none" stroke-width="0.5" stroke-linecap="butt"/><path d="M332.1183,121.38248c-0.00293,-0.4142 0.33047,-0.75236 0.74467,-0.75529c0.4142,-0.00293 0.75236,0.33047 0.75529,0.74467c0.00293,0.4142 -0.33047,0.75236 -0.74467,0.75529c-0.4142,0.00293 -0.75236,-0.33047 -0.75529,-0.74467z" fill="#33965e" stroke="none" stroke-width="0.5" stroke-linecap="butt"/><path d="M351.32348,122.04659c-0.00293,-0.4142 0.33047,-0.75236 0.74467,-0.75529c0.4142,-0.00293 0.75236,0.33047 0.75529,0.74467c0.00293,0.4142 -0.33047,0.75236 -0.74467,0.75529c-0.4142,0.00293 -0.75236,-0.33047 -0.75529,-0.74467z" fill="#33965e" stroke="none" stroke-width="0.5" stroke-linecap="butt"/><path d="M367.36129,127.33323c-0.00293,-0.4142 0.33047,-0.75236 0.74467,-0.75529c0.4142,-0.00293 0.75236,0.33047 0.75529,0.74467c0.00293,0.4142 -0.33047,0.75236 -0.74467,0.75529c-0.4142,0.00293 -0.75236,-0.33047 -0.75529,-0.74467z" fill="#33965e" stroke="none" stroke-width="0.5" stroke-linecap="butt"/><path d="M255.47166,143.32541c-0.00293,-0.4142 0.33047,-0.75236 0.74467,-0.75529c0.4142,-0.00293 0.75236,0.33047 0.75529,0.74468c0.00293,0.4142 -0.33047,0.75236 -0.74467,0.75529c-0.4142,0.00293 -0.75236,-0.33047 -0.75529,-0.74468z" fill="#75f20f" stroke="none" stroke-width="0.5" stroke-linecap="butt"/><path d="M262.05451,140.87876c-0.00293,-0.4142 0.33047,-0.75236 0.74468,-0.75529c0.4142,-0.00293 0.75236,0.33047 0.75529,0.74467c0.00293,0.4142 -0.33047,0.75236 -0.74468,0.75529c-0.4142,0.00293 -0.75236,-0.33047 -0.75529,-0.74467z" fill="#75f20f" stroke="none" stroke-width="0.5" stroke-linecap="butt"/><path d="M264.87991,144.45886c-0.00293,-0.4142 0.33047,-0.75236 0.74468,-0.75529c0.4142,-0.00293 0.75236,0.33047 0.75529,0.74467c0.00293,0.4142 -0.33047,0.75236 -0.74468,0.75529c-0.4142,0.00293 -0.75236,-0.33047 -0.75529,-0.74467z" fill="#75f20f" stroke="none" stroke-width="0.5" stroke-linecap="butt"/><path d="M318.85026,140.07683c-0.00293,-0.4142 0.33047,-0.75236 0.74467,-0.75529c0.4142,-0.00293 0.75236,0.33047 0.75529,0.74468c0.00293,0.4142 -0.33047,0.75236 -0.74467,0.75529c-0.4142,0.00293 -0.75236,-0.33047 -0.75529,-0.74468z" fill="#75f20f" stroke="none" stroke-width="0.5" stroke-linecap="butt"/><path d="M372.639,138.29616c-0.00293,-0.4142 0.33047,-0.75236 0.74467,-0.75529c0.4142,-0.00293 0.75236,0.33048 0.75529,0.74468c0.00293,0.4142 -0.33047,0.75236 -0.74468,0.75529c-0.4142,0.00293 -0.75236,-0.33047 -0.75529,-0.74467z" fill="#75f20f" stroke="none" stroke-width="0.5" stroke-linecap="butt"/><path d="M381.05578,140.63666c-0.00293,-0.4142 0.33047,-0.75236 0.74468,-0.75529c0.4142,-0.00293 0.75236,0.33047 0.75529,0.74467c0.00293,0.4142 -0.33047,0.75236 -0.74468,0.75529c-0.4142,0.00293 -0.75236,-0.33047 -0.75529,-0.74467z" fill="#75f20f" stroke="none" stroke-width="0.5" stroke-linecap="butt"/></g><path d="M275.22324,148.92914c-0.06678,-9.43627 7.52868,-17.14001 16.96495,-17.20678c9.43627,-0.06678 17.14002,7.52869 17.20679,16.96497c0.06678,9.43627 -7.52869,17.14002 -16.96497,17.20679c-9.43627,0.06678 -17.14,-7.52869 -17.20677,-16.96497z" fill="none" stroke="#191919" stroke-width="5" stroke-linecap="butt"/><path d="M362.2172,149.29528c0.05873,8.29945 -6.62167,15.07509 -14.92111,15.13382c-8.29943,0.05873 -15.07508,-6.6217 -15.1338,-14.92113c-0.05873,-8.29945 6.62169,-15.07509 14.92112,-15.13382c8.29943,-0.05873 15.07507,6.62169 15.1338,14.92112z" fill="#191919" stroke="#000000" stroke-width="0" stroke-linecap="butt"/><path d="M283.10775,148.87335c-0.03596,-5.08177 4.05448,-9.23052 9.13624,-9.26648c5.08177,-0.03596 9.23052,4.05448 9.26648,9.13625c0.03596,5.08177 -4.05447,9.23052 -9.13625,9.26648c-5.08177,0.03596 -9.23051,-4.05447 -9.26647,-9.13625z" fill="none" stroke="#191919" stroke-width="5" stroke-linecap="butt"/></g></g></g></svg>