<svg version="1.1" xmlns="http://www.w3.org/2000/svg" xmlns:xlink="http://www.w3.org/1999/xlink" width="213.18203" height="304.34661" viewBox="0,0,213.18203,304.34661"><defs><radialGradient cx="309.50942" cy="152.96672" r="23.48066" gradientUnits="userSpaceOnUse" id="color-1"><stop offset="0" stop-color="#ffffff"/><stop offset="1" stop-color="#ffc0c0"/></radialGradient></defs><g transform="translate(-214.52362,-14.7257)"><g stroke-miterlimit="10"><path d="M214.52362,306.61251v-291.88681h213.18203v291.88681z" fill="none" stroke="none" stroke-width="0" stroke-linecap="butt"/><g stroke-linecap="butt"><path d="M286.35186,319.0723l15.14285,-131.8421l37.78325,-0.15789l13.57389,132z" fill="#9c4209" stroke="#000000" stroke-width="0"/><path d="M294.22844,250.49448c2.47092,-21.51321 7.26628,-63.26425 7.26628,-63.26425l37.78325,-0.15789c0,0 4.38898,42.68081 6.62338,64.40935c0.00164,0.01602 -51.6851,-0.881 -51.6729,-0.98721z" fill="#973007" stroke="#000000" stroke-width="0"/><path d="M295.94368,235.56058c0.72966,-6.35283 1.62173,-14.1196 2.47549,-21.55293c1.60549,-13.9783 3.07554,-26.77743 3.07554,-26.77743l37.78325,-0.15789c0,0 3.09646,30.11173 4.982,48.44774c0.00398,0.0387 -48.33922,0.24027 -48.31628,0.0405z" fill="#7b280f" stroke="#000000" stroke-width="0"/><path d="M297.45003,222.44543c1.6814,-14.63921 4.04468,-35.2152 4.04468,-35.2152l37.78325,-0.15789c0,0 2.07567,20.185 3.56363,34.65471c0.00565,0.05498 -45.40964,0.87585 -45.39156,0.71838z" fill="#671d06" stroke="#000000" stroke-width="0"/><path d="M339.24775,222.58258c0,-0.9665 0.7835,-1.75 1.75,-1.75c0.9665,0 1.75,0.7835 1.75,1.75c0,0.9665 -0.7835,1.75 -1.75,1.75c-0.9665,0 -1.75,-0.7835 -1.75,-1.75z" fill="#671d06" stroke="none" stroke-width="0.5"/><path d="M333.2568,222.7698c0,-0.9665 0.7835,-1.75 1.75,-1.75c0.32998,0 0.63863,0.09133 0.90205,0.25009c0.30847,-0.27217 0.71362,-0.43731 1.15734,-0.43731c0.9665,0 1.75,0.7835 1.75,1.75c0,0.9665 -0.7835,1.75 -1.75,1.75c-0.32998,0 -0.63863,-0.09133 -0.90205,-0.25009c-0.30847,0.27217 -0.71362,0.43731 -1.15734,0.43731c-0.9665,0 -1.75,-0.7835 -1.75,-1.75z" fill="#671d06" stroke="none" stroke-width="0.5"/><path d="M329.51245,222.02092c0,-0.9665 0.7835,-1.75 1.75,-1.75c0.30646,0 0.59453,0.07878 0.84505,0.21718c0.31185,0.12682 0.56095,0.37592 0.68777,0.68777c0.13841,0.25052 0.21718,0.53858 0.21718,0.84505c0,0.34786 -0.10149,0.67201 -0.27648,0.94446c0.05791,0.1739 0.08927,0.35993 0.08927,0.55328c0,0.9665 -0.7835,1.75 -1.75,1.75c-0.9665,0 -1.75,-0.7835 -1.75,-1.75c0,-0.34786 0.10149,-0.67201 0.27648,-0.94446c-0.05791,-0.1739 -0.08927,-0.35993 -0.08927,-0.55328z" fill="#671d06" stroke="none" stroke-width="0.5"/><path d="M314.16064,221.8337c0,-0.9665 0.7835,-1.75 1.75,-1.75c0.19646,0 0.38536,0.03237 0.56165,0.09208c0.17629,-0.0597 0.36519,-0.09208 0.56165,-0.09208c0.9665,0 1.75,0.7835 1.75,1.75c0,0.9665 -0.7835,1.75 -1.75,1.75c-0.19646,0 -0.38536,-0.03237 -0.56165,-0.09208c-0.17629,0.0597 -0.36519,0.09208 -0.56165,0.09208c-0.9665,0 -1.75,-0.7835 -1.75,-1.75z" fill="#671d06" stroke="none" stroke-width="0.5"/><path d="M314.10351,223.14422c0,0.9665 -0.7835,1.75 -1.75,1.75c-0.67613,0 -1.26271,-0.38344 -1.55413,-0.94474c-0.56129,-0.29142 -0.94474,-0.878 -0.94474,-1.55413c0,-0.9665 0.7835,-1.75 1.75,-1.75c0.67613,0 1.26271,0.38344 1.55413,0.94474c0.56129,0.29142 0.94474,0.878 0.94474,1.55413z" fill="#671d06" stroke="none" stroke-width="0.5"/><path d="M324.1482,221.14536c0.37026,0 0.70291,0.16098 0.9318,0.41677c0.20158,-0.74396 0.8815,-1.2912 1.68924,-1.2912c0.9665,0 1.75,0.7835 1.75,1.75c0,0.60801 -0.31007,1.14359 -0.7807,1.45726c-0.15589,0.80676 -0.86588,1.41604 -1.71817,1.41604c-0.79762,0 -1.47061,-0.53362 -1.68144,-1.26333c-0.06219,0.00952 -0.12588,0.01446 -0.19073,0.01446c-0.50469,0 -0.93952,-0.2991 -1.1369,-0.7297c-0.22154,0.71242 -0.88604,1.2297 -1.67135,1.2297c-0.9665,0 -1.75,-0.7835 -1.75,-1.75c0,-0.9665 0.7835,-1.75 1.75,-1.75c0.78532,0 1.44982,0.51728 1.67135,1.2297c0.19739,-0.43061 0.63222,-0.7297 1.1369,-0.7297z" fill="#671d06" stroke="none" stroke-width="0.5"/><path d="M300.24492,236.9983c0,-0.08636 0.00876,-0.17067 0.02543,-0.25209c-0.244,-0.09995 -0.46041,-0.25341 -0.63463,-0.4458c-0.19003,0.76091 -0.87816,1.32459 -1.69793,1.32459c-0.9665,0 -1.75,-0.7835 -1.75,-1.75c0,-0.9665 0.7835,-1.75 1.75,-1.75c0.51461,0 0.97734,0.22212 1.29754,0.57572c0.19003,-0.76091 0.87816,-1.32459 1.69793,-1.32459c0.9665,0 1.75,0.7835 1.75,1.75c0,0.36642 -0.11262,0.70654 -0.30512,0.98763c0.22659,0.22626 0.36677,0.53903 0.36677,0.88454c0,0.69036 -0.55964,1.25 -1.25,1.25c-0.69036,0 -1.25,-0.55964 -1.25,-1.25z" fill="#7b280f" stroke="none" stroke-width="0.5"/><path d="M340.06166,238.06109c-0.59012,0 -1.08473,-0.40893 -1.21592,-0.95887c-0.2891,0.21103 -0.64535,0.33557 -1.03069,0.33557c-0.48169,0 -0.91793,-0.19461 -1.23437,-0.5095c-0.28575,0.20296 -0.63506,0.32229 -1.01224,0.32229c-0.9665,0 -1.75,-0.7835 -1.75,-1.75c0,-0.9665 0.7835,-1.75 1.75,-1.75c0.48169,0 0.91793,0.19461 1.23437,0.5095c0.28575,-0.20296 0.63506,-0.32229 1.01224,-0.32229c0.12633,0 0.24952,0.01339 0.36826,0.03881c0.30481,-0.25781 0.699,-0.41325 1.12948,-0.41325c0.9665,0 1.75,0.7835 1.75,1.75c0,0.0418 -0.00147,0.08326 -0.00435,0.12433c0.31616,-0.45395 0.84191,-0.75102 1.43704,-0.75102c0.9665,0 1.75,0.7835 1.75,1.75c0,0.9665 -0.7835,1.75 -1.75,1.75c-0.56672,0 -1.07052,-0.26939 -1.39034,-0.6871c-0.22368,0.33835 -0.60752,0.56153 -1.04348,0.56153z" fill="#7b280f" stroke="none" stroke-width="0.5"/><path d="M322.71098,236.24943c0,-0.69036 0.55964,-1.25 1.25,-1.25c0.44714,0 0.83944,0.23477 1.06037,0.58777c-0.0014,-0.02871 -0.00211,-0.05759 -0.00211,-0.08664c0,-0.9665 0.7835,-1.75 1.75,-1.75c0.16211,0 0.31907,0.02204 0.46804,0.06329c0.14898,-0.04125 0.30594,-0.06329 0.46804,-0.06329c0.9665,0 1.75,0.7835 1.75,1.75c0,0.67465 -0.38176,1.26013 -0.94105,1.55221c0.00329,0.04382 0.00496,0.08809 0.00496,0.13275c0,0.9665 -0.7835,1.75 -1.75,1.75c-0.9665,0 -1.75,-0.7835 -1.75,-1.75c0,-0.1089 0.00995,-0.21548 0.02898,-0.31888c-0.215,0.37792 -0.62136,0.63279 -1.08724,0.63279c-0.69036,0 -1.25,-0.55964 -1.25,-1.25zM325.23501,236.34304c-0.00852,-0.01549 -0.01682,-0.03112 -0.02488,-0.04689c-0.00139,0.03773 -0.00445,0.07504 -0.0091,0.11184c0.01089,-0.02192 0.02222,-0.04357 0.03399,-0.06495z" fill="#7b280f" stroke="none" stroke-width="0.5"/><path d="M317.28168,239.61935c0,-0.69036 0.55964,-1.25 1.25,-1.25c0.05371,0 0.10663,0.00339 0.15856,0.00996c-0.55842,-0.2774 -0.94764,-0.84428 -0.97133,-1.50432c-0.9369,-0.03363 -1.6861,-0.80375 -1.6861,-1.74886c0,-0.9665 0.7835,-1.75 1.75,-1.75c0.12852,0 0.2538,0.01385 0.37443,0.04015c0.12063,-0.0263 0.24592,-0.04015 0.37443,-0.04015c0.9665,0 1.75,0.7835 1.75,1.75c0,0.04466 -0.00167,0.08893 -0.00496,0.13275c0.55928,0.29208 0.94105,0.87756 0.94105,1.55221c0,0.9665 -0.7835,1.75 -1.75,1.75c-0.1089,0 -0.21548,-0.00995 -0.31888,-0.02898c0.37792,0.215 0.63279,0.62136 0.63279,1.08724c0,0.69036 -0.55964,1.25 -1.25,1.25c-0.69036,0 -1.25,-0.55964 -1.25,-1.25z" fill="#7b280f" stroke="none" stroke-width="0.5"/><path d="M312.10578,237.74717c0,0.69036 -0.55964,1.25 -1.25,1.25c-0.56162,0 -1.03673,-0.37038 -1.1944,-0.88021c-0.15565,0.04536 -0.32026,0.06969 -0.49056,0.06969c-0.9665,0 -1.75,-0.7835 -1.75,-1.75c0,-0.9665 0.7835,-1.75 1.75,-1.75c0.9665,0 1.75,0.7835 1.75,1.75c0,0.0208 -0.00036,0.04151 -0.00108,0.06213c0.66063,0.0333 1.18604,0.57949 1.18604,1.24839z" fill="#7b280f" stroke="none" stroke-width="0.5"/><path d="M310.79073,235.12612c0,-0.9665 0.7835,-1.75 1.75,-1.75c0.9665,0 1.75,0.7835 1.75,1.75c0,0.9665 -0.7835,1.75 -1.75,1.75c-0.9665,0 -1.75,-0.7835 -1.75,-1.75z" fill="#7b280f" stroke="none" stroke-width="0.5"/><path d="M301.3077,249.22793c0.69036,0 1.25,0.55964 1.25,1.25c0,0.69036 -0.55964,1.25 -1.25,1.25c-0.42713,0 -0.80423,-0.21424 -1.02969,-0.54112c-0.22547,0.32688 -0.60256,0.54112 -1.02969,0.54112c-0.03941,0 -0.0784,-0.00182 -0.11688,-0.00539c-0.28467,0.20046 -0.6318,0.31817 -1.00642,0.31817c-0.48169,0 -0.91793,-0.19461 -1.23437,-0.5095c-0.28575,0.20296 -0.63506,0.32229 -1.01224,0.32229c-0.9665,0 -1.75,-0.7835 -1.75,-1.75c0,-0.9665 0.7835,-1.75 1.75,-1.75c0.48169,0 0.91793,0.19461 1.23437,0.5095c0.28575,-0.20296 0.63506,-0.32229 1.01224,-0.32229c0.58223,0 1.09805,0.28433 1.41618,0.72172c0.30389,0.07296 0.56459,0.25692 0.73682,0.50662c0.22547,-0.32688 0.60256,-0.54112 1.02969,-0.54112z" fill="#973007" stroke="none" stroke-width="0.5"/><path d="M342.12105,249.2896c0.80708,0 1.48656,0.54635 1.68875,1.28938c0.22606,-0.10652 0.47861,-0.16608 0.74508,-0.16608c0.9665,0 1.37557,0.7835 1.37557,1.75c0,0.9665 -0.40907,1.75 -1.37557,1.75c-0.80708,0 -1.48656,-0.54635 -1.68875,-1.28938c-0.22606,0.10652 -0.47861,0.16608 -0.74508,0.16608c-0.53493,0 -1.01381,-0.24001 -1.33481,-0.61822c-0.31122,0.48448 -0.85485,0.80544 -1.47345,0.80544c-0.9665,0 -1.75,-0.7835 -1.75,-1.75c0,-0.9665 0.7835,-1.75 1.75,-1.75c0.53493,0 1.01381,0.24001 1.33481,0.61822c0.31122,-0.48448 0.85485,-0.80544 1.47345,-0.80544z" fill="#973007" stroke="none" stroke-width="0.5"/><path d="M335.1335,251.22681c0,0.69036 -0.55964,1.25 -1.25,1.25c-0.03941,0 -0.0784,-0.00182 -0.11688,-0.00539c-0.28467,0.20046 -0.6318,0.31817 -1.00642,0.31817c-0.9665,0 -1.75,-0.7835 -1.75,-1.75c0,-0.65513 0.36,-1.22619 0.89296,-1.52613c0.10216,-0.58761 0.61464,-1.03439 1.23147,-1.03439c0.69036,0 1.25,0.55964 1.25,1.25c0,0.11552 -0.01567,0.22738 -0.045,0.33357c0.46477,0.18224 0.79387,0.63477 0.79387,1.16417z" fill="#973007" stroke="none" stroke-width="0.5"/><path d="M325.58089,251.0396c0,-0.9665 0.7835,-1.75 1.75,-1.75c0.9665,0 1.75,0.7835 1.75,1.75c0,0.9665 -0.7835,1.75 -1.75,1.75c-0.9665,0 -1.75,-0.7835 -1.75,-1.75z" fill="#973007" stroke="none" stroke-width="0.5"/><path d="M318.46664,250.66516c0,-0.9665 0.7835,-1.75 1.75,-1.75c0.34786,0 0.67201,0.10149 0.94446,0.27648c0.1739,-0.05791 0.35993,-0.08927 0.55328,-0.08927c0.9665,0 1.75,0.7835 1.75,1.75c0,0.9665 -0.7835,1.75 -1.75,1.75c-0.34786,0 -0.67201,-0.10149 -0.94446,-0.27648c-0.1739,0.05791 -0.35993,0.08927 -0.55328,0.08927c-0.9665,0 -1.75,-0.7835 -1.75,-1.75z" fill="#973007" stroke="none" stroke-width="0.5"/><path d="M308.48247,251.97568c0,-0.69036 0.55964,-1.25 1.25,-1.25c0.28465,0 0.54708,0.09515 0.75722,0.25537c-0.04775,-0.15934 -0.0734,-0.32823 -0.0734,-0.50311c0,-0.9665 0.7835,-1.75 1.75,-1.75c0.67205,0 1.25562,0.37883 1.54882,0.9346c0.25244,-0.65616 0.88878,-1.12181 1.63387,-1.12181c0.9665,0 1.75,0.7835 1.75,1.75c0,0.9665 -0.7835,1.75 -1.75,1.75c-0.67205,0 -1.25562,-0.37883 -1.54882,-0.9346c-0.25244,0.65616 -0.88878,1.12181 -1.63387,1.12181c-0.46678,0 -0.89087,-0.18275 -1.20463,-0.4806c0.01367,0.07403 0.02081,0.15035 0.02081,0.22834c0,0.69036 -0.55964,1.25 -1.25,1.25c-0.69036,0 -1.25,-0.55964 -1.25,-1.25z" fill="#973007" stroke="none" stroke-width="0.5"/><path d="M304.23813,250.29072c0,-0.9665 0.7835,-1.75 1.75,-1.75c0.9665,0 1.75,0.7835 1.75,1.75c0,0.9665 -0.7835,1.75 -1.75,1.75c-0.9665,0 -1.75,-0.7835 -1.75,-1.75z" fill="#973007" stroke="none" stroke-width="0.5"/><path d="M300.0577,224.82918c0,-0.26433 0.08204,-0.50949 0.22205,-0.71141c-0.10062,-0.05522 -0.19522,-0.12005 -0.28257,-0.19324c-0.30395,0.2547 -0.69572,0.40805 -1.1233,0.40805c-0.9665,0 -1.56278,-0.7835 -1.56278,-1.75c0,-0.9665 0.59628,-1.75 1.56278,-1.75c0.42758,0 0.81935,0.15335 1.1233,0.40805c0.30395,-0.2547 0.69572,-0.40805 1.1233,-0.40805c0.523,0 0.99241,0.22942 1.31309,0.59312c0.02752,-0.02297 0.05576,-0.04512 0.08468,-0.06639c0.31857,-0.43298 0.83172,-0.71394 1.41049,-0.71394c0.9665,0 1.75,0.7835 1.75,1.75c0,0.40843 -0.13992,0.78418 -0.37443,1.08193c-0.09781,0.12418 -0.21207,0.2348 -0.33951,0.32856c-0.31857,0.43298 -0.83172,0.71394 -1.41049,0.71394c-0.523,0 -0.99241,-0.22942 -1.31309,-0.59312c-0.01244,0.01039 -0.02504,0.02061 -0.03777,0.03065c0.21922,0.22519 0.35425,0.53276 0.35425,0.87186c0,0.69036 -0.55964,1.25 -1.25,1.25c-0.06939,0 -0.13746,-0.00565 -0.20377,-0.01653c0.31365,0.22711 0.51768,0.59629 0.51768,1.01313c0,0.69036 -0.55964,1.25 -1.25,1.25c-0.69036,0 -1.25,-0.55964 -1.25,-1.25c0,-0.69036 0.55964,-1.25 1.25,-1.25c0.06939,0 0.13746,0.00565 0.20377,0.01653c-0.31365,-0.22711 -0.51768,-0.59629 -0.51768,-1.01313z" fill="#671d06" stroke="none" stroke-width="0.5"/><path d="M308.29526,224.82918c0,-0.69036 0.55964,-1.25 1.25,-1.25c0.69036,0 1.25,0.55964 1.25,1.25c0,0.69036 -0.55964,1.25 -1.25,1.25c-0.69036,0 -1.25,-0.55964 -1.25,-1.25z" fill="#671d06" stroke="none" stroke-width="0.5"/><path d="M310.72908,227.26301c0,-0.69036 0.55964,-1.25 1.25,-1.25c0.69036,0 1.25,0.55964 1.25,1.25c0,0.69036 -0.55964,1.25 -1.25,1.25c-0.69036,0 -1.25,-0.55964 -1.25,-1.25z" fill="#671d06" stroke="none" stroke-width="0.5"/><path d="M336.19062,226.70135c0,-0.69036 0.55964,-1.25 1.25,-1.25c0.69036,0 1.25,0.55964 1.25,1.25c0,0.69036 -0.55964,1.25 -1.25,1.25c-0.69036,0 -1.25,-0.55964 -1.25,-1.25z" fill="#671d06" stroke="none" stroke-width="0.5"/><path d="M297.06222,240.181c0,-0.69036 0.55964,-1.25 1.25,-1.25c0.69036,0 1.25,0.55964 1.25,1.25c0,0.69036 -0.55964,1.25 -1.25,1.25c-0.69036,0 -1.25,-0.55964 -1.25,-1.25z" fill="#7b280f" stroke="none" stroke-width="0.5"/><path d="M304.92535,235.12612c0,-0.69036 0.55964,-1.25 1.25,-1.25c0.69036,0 1.25,0.55964 1.25,1.25c0,0.69036 -0.55964,1.25 -1.25,1.25c-0.69036,0 -1.25,-0.55964 -1.25,-1.25z" fill="#7b280f" stroke="none" stroke-width="0.5"/><path d="M312.22682,239.61935c0,-0.69036 0.55964,-1.25 1.25,-1.25c0.69036,0 1.25,0.55964 1.25,1.25c0,0.69036 -0.55964,1.25 -1.25,1.25c-0.69036,0 -1.25,-0.55964 -1.25,-1.25z" fill="#7b280f" stroke="none" stroke-width="0.5"/><path d="M332.82071,239.24491c0,-0.69036 0.55964,-1.25 1.25,-1.25c0.69036,0 1.25,0.55964 1.25,1.25c0,0.69036 -0.55964,1.25 -1.25,1.25c-0.69036,0 -1.25,-0.55964 -1.25,-1.25z" fill="#7b280f" stroke="none" stroke-width="0.5"/><path d="M297.43666,255.34559c0,-0.69036 0.55964,-1.25 1.25,-1.25c0.69036,0 1.25,0.55964 1.25,1.25c0,0.69036 -0.55964,1.25 -1.25,1.25c-0.69036,0 -1.25,-0.55964 -1.25,-1.25z" fill="#973007" stroke="none" stroke-width="0.5"/><path d="M313.60351,255.15837c0,0.69036 -0.55964,1.25 -1.25,1.25c-0.39286,0 -0.7434,-0.18124 -0.97255,-0.46467c-0.10914,-0.08824 -0.20313,-0.19448 -0.27745,-0.3142c-0.11868,-0.19119 -0.18722,-0.41676 -0.18722,-0.65835c0,-0.69036 0.55964,-1.25 1.25,-1.25c0.39286,0 0.7434,0.18124 0.97255,0.46467c0.28343,0.22915 0.46467,0.57969 0.46467,0.97255z" fill="#973007" stroke="none" stroke-width="0.5"/><path d="M322.52377,255.90724c0,-0.22676 0.06038,-0.43942 0.16594,-0.62278c-0.01303,0.0004 -0.02612,0.0006 -0.03925,0.0006c-0.69036,0 -1.25,-0.55964 -1.25,-1.25c0,-0.69036 0.55964,-1.25 1.25,-1.25c0.69036,0 1.25,0.55964 1.25,1.25c0,0.22676 -0.06038,0.43942 -0.16594,0.62278c0.01303,-0.0004 0.02612,-0.0006 0.03925,-0.0006c0.69036,0 1.25,0.55964 1.25,1.25c0,0.69036 -0.55964,1.25 -1.25,1.25c-0.69036,0 -1.25,-0.55964 -1.25,-1.25z" fill="#973007" stroke="none" stroke-width="0.5"/><path d="M338.99888,256.6561c0,-0.18187 0.03884,-0.35467 0.10868,-0.51055c-0.29399,-0.22871 -0.48312,-0.58586 -0.48312,-0.98718c0,-0.69036 0.55964,-1.25 1.25,-1.25c0.69036,0 1.25,0.55964 1.25,1.25c0,0.18187 -0.03884,0.35467 -0.10868,0.51055c0.29399,0.22871 0.48312,0.58586 0.48312,0.98718c0,0.69036 -0.55964,1.25 -1.25,1.25c-0.69036,0 -1.25,-0.55964 -1.25,-1.25z" fill="#973007" stroke="none" stroke-width="0.5"/><path d="M297.93666,232.50508c0,-0.41421 0.33579,-0.75 0.75,-0.75c0.41421,0 0.75,0.33579 0.75,0.75c0,0.41421 -0.33579,0.75 -0.75,0.75c-0.41421,0 -0.75,-0.33579 -0.75,-0.75z" fill="#671d06" stroke="none" stroke-width="0.5"/><path d="M305.987,231.38178c0,-0.41421 0.33579,-0.75 0.75,-0.75c0.41421,0 0.75,0.33579 0.75,0.75c0,0.41421 -0.33579,0.75 -0.75,0.75c-0.41421,0 -0.75,-0.33579 -0.75,-0.75z" fill="#671d06" stroke="none" stroke-width="0.5"/><path d="M317.40725,230.4457c0,-0.41421 0.33579,-0.75 0.75,-0.75c0.41421,0 0.75,0.33579 0.75,0.75c0,0.41421 -0.33579,0.75 -0.75,0.75c-0.41421,0 -0.75,-0.33579 -0.75,-0.75z" fill="#671d06" stroke="none" stroke-width="0.5"/><path d="M324.89594,231.00735c0,-0.41421 0.33579,-0.75 0.75,-0.75c0.41421,0 0.75,0.33579 0.75,0.75c0,0.41421 -0.33579,0.75 -0.75,0.75c-0.41421,0 -0.75,-0.33579 -0.75,-0.75z" fill="#671d06" stroke="none" stroke-width="0.5"/><path d="M337.62671,233.8156c0,-0.41421 0.33579,-0.75 0.75,-0.75c0.41421,0 0.75,0.33579 0.75,0.75c0,0.41421 -0.33579,0.75 -0.75,0.75c-0.41421,0 -0.75,-0.33579 -0.75,-0.75z" fill="#671d06" stroke="none" stroke-width="0.5"/><path d="M297.37501,246.35917c0,-0.41421 0.33579,-0.75 0.75,-0.75c0.41421,0 0.75,0.33579 0.75,0.75c0,0.41421 -0.33579,0.75 -0.75,0.75c-0.41421,0 -0.75,-0.33579 -0.75,-0.75z" fill="#7b280f" stroke="none" stroke-width="0.5"/><path d="M302.42987,243.36368c0,-0.41421 0.33579,-0.75 0.75,-0.75c0.41421,0 0.75,0.33579 0.75,0.75c0,0.41421 -0.33579,0.75 -0.75,0.75c-0.41421,0 -0.75,-0.33579 -0.75,-0.75z" fill="#7b280f" stroke="none" stroke-width="0.5"/><path d="M319.0922,245.42308c0,-0.41421 0.33579,-0.75 0.75,-0.75c0.41421,0 0.75,0.33579 0.75,0.75c0,0.41421 -0.33579,0.75 -0.75,0.75c-0.41421,0 -0.75,-0.33579 -0.75,-0.75z" fill="#7b280f" stroke="none" stroke-width="0.5"/><path d="M323.02377,248.23134c0,-0.41421 0.33579,-0.75 0.75,-0.75c0.41421,0 0.75,0.33579 0.75,0.75c0,0.41421 -0.33579,0.75 -0.75,0.75c-0.41421,0 -0.75,-0.33579 -0.75,-0.75z" fill="#7b280f" stroke="none" stroke-width="0.5"/><path d="M334.06958,245.61029c0,-0.41421 0.33579,-0.75 0.75,-0.75c0.41421,0 0.75,0.33579 0.75,0.75c0,0.41421 -0.33579,0.75 -0.75,0.75c-0.41421,0 -0.75,-0.33579 -0.75,-0.75z" fill="#7b280f" stroke="none" stroke-width="0.5"/><path d="M338.18836,247.10803c0,-0.41421 0.33579,-0.75 0.75,-0.75c0.41421,0 0.75,0.33579 0.75,0.75c0,0.41421 -0.33579,0.75 -0.75,0.75c-0.41421,0 -0.75,-0.33579 -0.75,-0.75z" fill="#7b280f" stroke="none" stroke-width="0.5"/><path d="M298.87274,264.70644c0,-0.41421 0.33579,-0.75 0.75,-0.75c0.41421,0 0.75,0.33579 0.75,0.75c0,0.41421 -0.33579,0.75 -0.75,0.75c-0.41421,0 -0.75,-0.33579 -0.75,-0.75z" fill="#973007" stroke="none" stroke-width="0.5"/><path d="M302.24265,260.02601c0,-0.41421 0.33579,-0.75 0.75,-0.75c0.41421,0 0.75,0.33579 0.75,0.75c0,0.41421 -0.33579,0.75 -0.75,0.75c-0.41421,0 -0.75,-0.33579 -0.75,-0.75z" fill="#973007" stroke="none" stroke-width="0.5"/><path d="M313.47569,260.7749c0,-0.41421 0.33579,-0.75 0.75,-0.75c0.41421,0 0.75,0.33579 0.75,0.75c0,0.41421 -0.33579,0.75 -0.75,0.75c-0.41421,0 -0.75,-0.33579 -0.75,-0.75z" fill="#973007" stroke="none" stroke-width="0.5"/><path d="M331.58485,263.02149c0,-0.41421 0.33579,-0.75 0.75,-0.75c0.41421,0 0.75,0.33579 0.75,0.75c0,0.41421 -0.33579,0.75 -0.75,0.75c-0.41421,0 -0.75,-0.33579 -0.75,-0.75z" fill="#973007" stroke="none" stroke-width="0.5"/></g><g stroke-linecap="butt"><path d="M378.75459,114.82266c0,3.56198 -1.90786,6.44955 -4.26131,6.44955c-2.35345,0 -4.26131,-2.88757 -4.26131,-6.44955c0,-3.56198 1.90785,-6.44955 4.26131,-6.44955c2.35345,0 4.26131,2.88757 4.26131,6.44955z" fill="#a93232" stroke="none" stroke-width="0"/><path d="M385.43448,124.15147c0,5.27938 -4.12509,9.55916 -9.21364,9.55916c-5.08855,0 -9.21365,-4.27978 -9.21365,-9.55916c0,-5.27938 4.12509,-9.55915 9.21365,-9.55915c5.08855,0 9.21364,4.27978 9.21364,9.55915z" fill="#a93232" stroke="none" stroke-width="0"/><path d="M389.35028,133.24994c0,3.6892 -1.80473,6.67989 -4.03097,6.67989c-2.22624,0 -4.03097,-2.99069 -4.03097,-6.67989c0,-3.6892 1.80473,-6.67989 4.03097,-6.67989c2.22624,0 4.03097,2.99069 4.03097,6.67989z" fill="#a93232" stroke="none" stroke-width="0"/><path d="M394.64812,143.26978c0,5.02495 -3.4032,9.09847 -7.60126,9.09847c-4.19806,0 -7.60125,-4.07352 -7.60125,-9.09847c0,-5.02495 3.40319,-9.09847 7.60125,-9.09847c4.19806,0 7.60126,4.07352 7.60126,9.09847z" fill="#a93232" stroke="none" stroke-width="0"/><path d="M398.10324,155.01717c0,4.26166 -1.90785,7.71642 -4.26131,7.71642c-2.35345,0 -4.2613,-3.45476 -4.2613,-7.71642c0,-4.26166 1.90785,-7.71643 4.2613,-7.71643c2.35345,0 4.26131,3.45476 4.26131,7.71643z" fill="#a93232" stroke="none" stroke-width="0"/><path d="M375.52982,109.1793c0,1.59018 -1.03127,2.87926 -2.30341,2.87926c-1.27214,0 -2.30341,-1.28908 -2.30341,-2.87926c0,-1.59018 1.03127,-2.87927 2.30341,-2.87927c1.27214,0 2.30341,1.28909 2.30341,2.87927z" fill="#a93232" stroke="none" stroke-width="0"/><path d="M387.27721,126.80039c0,1.90821 -0.82502,3.45512 -1.84273,3.45512c-1.01771,0 -1.84273,-1.54691 -1.84273,-3.45512c0,-1.90821 0.82502,-3.45512 1.84273,-3.45512c1.01771,0 1.84273,1.54691 1.84273,3.45512z" fill="#a93232" stroke="none" stroke-width="0"/><path d="M275.64194,151.87109c0,-31.8284 27.48741,-57.63041 61.39483,-57.63041c13.56356,0 26.09983,4.12868 36.26032,11.12024c-0.54662,0.68304 -1.08718,1.36952 -1.44958,2.16803c-0.10813,0.23824 -0.77948,1.38589 -0.62671,1.59943c0.13046,0.18234 1.44332,-0.03137 1.69714,-0.03385c3.8623,-0.04146 -0.27545,3.5004 0.33781,5.45523c0.24055,0.76676 2.3424,0.89661 3.0039,1.06018c0.28189,0.06892 0.65483,-0.12712 0.86775,0.07005c0.14587,0.13507 -0.01456,2.02777 -0.00659,2.32954c0.06155,2.33252 0.12311,4.66504 0.18466,6.99756c0.0096,0.36389 -0.14261,1.96329 0.13827,2.18788c1.02526,0.81977 4.47496,-1.78289 5.39759,-1.09369c0.2483,0.18548 0.38337,2.38526 0.46048,2.7911c0.65311,3.43761 1.32873,6.87185 1.95577,10.31431c0.06945,0.38129 0.1393,1.90139 0.45064,2.11998c0.67223,0.47197 3.035,-1.57611 3.69265,-1.92535c0.38523,-0.20458 0.67155,-0.94418 1.06626,-0.75855c0.02699,0.01269 0.23182,2.51874 0.27799,2.7867c0.59391,3.44467 0.86476,7.18897 1.90828,10.523c1.40093,-0.38458 1.75084,-2.12529 2.9409,-2.6635c0.22444,-0.1015 -0.07116,0.48834 -0.0816,0.73444c-0.02119,0.49954 -0.03981,0.99921 -0.05971,1.49881c-0.05308,1.33228 -0.10615,2.66455 -0.15923,3.99683c-0.037,0.92878 -0.72289,4.48483 -0.13936,5.16832c0.40555,0.47502 1.4848,0.22935 2.59425,-0.19137c-4.43441,27.73711 -29.92716,49.0055 -60.71188,49.0055c-33.90742,0 -61.39483,-25.80202 -61.39483,-57.63042z" fill="#c8bfb0" stroke="#000000" stroke-width="0"/><path d="M275.64194,151.87109c0,-31.8284 27.48741,-57.63041 61.39483,-57.63041c13.56356,0 26.09983,4.12868 36.26032,11.12024c-0.54662,0.68304 -1.08718,1.36952 -1.44958,2.16803c-0.10813,0.23824 -0.77948,1.38589 -0.62671,1.59943c0.13046,0.18234 1.44332,-0.03137 1.69714,-0.03385c3.8623,-0.04146 -0.27545,3.5004 0.33781,5.45523c0.24055,0.76676 2.3424,0.89661 3.0039,1.06018c0.28189,0.06892 0.65483,-0.12712 0.86775,0.07005c0.14587,0.13507 -0.01456,2.02777 -0.00659,2.32954c0.06155,2.33252 0.12311,4.66504 0.18466,6.99756c0.0096,0.36389 -0.14261,1.96329 0.13827,2.18788c1.02526,0.81977 4.47496,-1.78289 5.39759,-1.09369c0.2483,0.18548 0.38337,2.38526 0.46048,2.7911c0.65311,3.43761 1.32873,6.87185 1.95577,10.31431c0.06945,0.38129 0.1393,1.90139 0.45064,2.11998c0.67223,0.47197 3.035,-1.57611 3.69265,-1.92535c0.38523,-0.20458 0.67155,-0.94418 1.06626,-0.75855c0.02699,0.01269 0.23182,2.51874 0.27799,2.7867c0.59391,3.44467 0.86476,7.18897 1.90828,10.523c1.40093,-0.38458 1.75084,-2.12529 2.9409,-2.6635c0.22444,-0.1015 -0.07116,0.48834 -0.0816,0.73444c-0.02119,0.49954 -0.03981,2.87138 -0.05971,3.37098c-0.00197,0.04954 -119.77262,0.53564 -119.77447,0.4849c-0.02432,-0.66659 -0.03658,-1.33606 -0.03658,-2.00821z" fill="#9d958a" stroke="#000000" stroke-width="0"/><path d="M280.14782,130.15998c9.13408,-21.0675 31.16382,-35.91931 56.88895,-35.91931c13.56356,0 26.09983,4.12868 36.26032,11.12024c-0.54662,0.68304 -1.08718,1.36952 -1.44958,2.16803c-0.10813,0.23824 -0.77948,1.38589 -0.62671,1.59943c0.13046,0.18234 1.44332,-0.03137 1.69714,-0.03385c3.8623,-0.04146 -0.27545,3.5004 0.33781,5.45523c0.24055,0.76676 2.3424,0.89661 3.0039,1.06018c0.28189,0.06892 0.65483,-0.12712 0.86775,0.07005c0.14587,0.13507 -0.01456,2.02777 -0.00659,2.32954c0.06155,2.33252 0.12311,4.66504 0.18466,6.99756c0.0096,0.36389 -0.14261,1.96329 0.13827,2.18788c1.02526,0.81977 4.47496,-1.78289 5.39759,-1.09369c0.2483,0.18548 0.38337,2.38526 0.46048,2.7911c0.03938,0.20728 0.67958,2.50324 0.67958,2.50324c0,0 -104.08311,-0.66007 -103.83358,-1.23563z" fill="#8e887d" stroke="#000000" stroke-width="0"/><path d="M360.52559,125.00169l0.05841,-0.06114c0.09818,0.00051 0.19734,0.00033 0.29739,-0.00044c0.94876,-0.13885 1.92329,-0.0978 2.87063,-0.29499c-1.39749,-0.31055 -2.6248,-0.70274 -3.27027,-1.11915l0.17556,-0.07719c-0.41971,-0.08151 -0.81704,-0.15217 -1.18379,-0.20439c-0.50277,-0.07159 -2.86642,-0.05383 -2.32989,-1.13427c0.13943,-0.28077 1.88185,-0.20348 2.19297,-0.2202c0.9578,-0.05148 1.90841,-0.11745 2.85746,-0.19842l-0.37789,-0.18894v0l0.5,-0.25c0.06997,0 0.14022,-0.00046 0.21073,-0.00129c0.3605,-0.08673 0.75642,-0.13361 1.17034,-0.15434c0.01238,-0.04677 0.03738,-0.09666 0.07617,-0.14983c-0.18806,-0.01582 -0.36968,-0.03109 -0.54285,-0.04507c-0.35135,0.01301 -0.70273,0.00463 -0.99445,-0.06536c-0.09348,-0.0035 -0.17996,-0.00541 -0.25864,-0.00543l-0.74997,-0.25005c0.22482,-0.07494 0.45716,-0.13986 0.69593,-0.19587l0.0541,-0.05409c0.06497,0.00001 0.13036,-0.0003 0.19614,-0.00091c0.39252,-0.08066 0.80085,-0.13905 1.22045,-0.17978c1.70847,-0.53307 3.87148,-0.37729 5.55974,-0.13611l0.64019,0.25398c0.46919,0.02583 0.92619,0.04677 1.36494,0.05664c0.09466,-0.00002 0.1887,0.00151 0.28196,0.00479c0.07786,0.00087 0.15508,0.00133 0.23163,0.00135c0.18291,0 0.36582,0 0.54874,0c-0.39982,-0.22713 -1.93135,-0.29852 -2.28386,-0.35275c-2.25818,-0.34741 -5.02694,-0.42559 -7.06586,-1.48997l0.71847,-0.2773c0.33257,-0.04944 0.80384,-0.15191 1.32664,-0.25652c-0.19987,-0.03996 -0.39784,-0.09131 -0.59339,-0.15697l0.73004,-0.29359c0.34537,-0.02561 0.85683,-0.11954 1.39998,-0.20154c-2.5682,-0.24926 -5.41699,-0.48323 -7.51636,-1.58145l0.74667,-0.232c0.3318,-0.00303 0.66359,-0.00906 0.99528,-0.01809c2.33247,-0.06348 4.66494,-0.12696 6.99741,-0.19043c0.05134,-0.0014 0.10589,-0.0046 0.16315,-0.00922c-1.69379,-0.17496 -3.44697,-0.41215 -4.8085,-1.19127l0.69383,-0.33021c0.09073,-0.01719 0.19948,-0.03583 0.3227,-0.05498c-0.00803,-0.00149 -0.01605,-0.003 -0.02406,-0.00451c-0.07942,-0.00108 -0.1575,-0.00159 -0.2341,-0.00142l-0.0592,-0.05886c-0.23705,-0.05294 -0.46817,-0.11538 -0.69136,-0.18976l0.74943,-0.25138c0.07494,-0.00017 0.15042,-0.00096 0.2264,-0.00232c0.35346,-0.0979 0.81442,-0.10547 1.30919,-0.06641c1.25228,-0.09412 2.56658,-0.25375 3.77844,-0.27362c-1.2226,-0.15601 -2.50105,-0.30307 -3.5699,-0.80536l0.74924,-0.23314c0.3804,-0.00025 0.82261,-0.03292 1.2952,-0.07406c-1.86919,-0.13096 -3.744,-0.36823 -4.99421,-1.08808l0.66829,-0.21615c0.60032,-0.20787 2.38572,-0.64185 1.32494,-1.18412l0.07415,-0.038c-0.30864,-0.34878 -0.20563,-0.92195 0.0945,-1.53171c-0.73115,0.0923 -1.39902,0.18658 -1.54657,0.20056l-0.76454,-0.14369c0.763,-0.58492 1.58943,-0.85451 2.47932,-1.20351l0.17157,-0.01159c-0.07586,-0.04293 -0.12705,-0.12435 -0.12705,-0.21773c0,-0.06187 0.02248,-0.11849 0.05971,-0.16215l0.32091,-0.3814l0.08308,0.0699c0.34697,-0.34262 0.75277,-0.53406 1.28331,-0.81471l0.05343,-0.04452c-1.30167,0.18595 -2.71582,0.42919 -3.2359,0.43117c0,0 -0.25,0 -0.25,-0.25c0,-0.25 0.25,-0.25 0.25,-0.25c1.569,0.00683 10.09498,-1.22221 4.7187,1.28716c-0.84275,0.31096 -1.50912,0.3597 -2.37707,0.36417c-0.16918,0.15611 -0.32261,0.31826 -0.44086,0.49875c0.89583,-0.09435 1.74508,-0.09725 1.94257,0.22359c0.06757,0.10978 0.02525,0.36146 -0.06279,0.65628c0.78896,0.16175 1.60226,0.2617 2.00964,0.32305l0.70716,0.3175c-0.9361,0.45843 -1.94309,0.51044 -2.95466,0.58722c-0.07859,0.01903 -0.16412,0.04149 -0.25398,0.06579c-0.02468,0.0619 -0.04437,0.11345 -0.05711,0.15169c0,0 -0.07906,0.23717 -0.31623,0.15811c-0.10484,-0.03495 -0.14788,-0.10078 -0.16329,-0.16338c-0.28425,0.07516 -0.56366,0.14054 -0.77274,0.15624c0.01968,0.23743 -0.4723,0.57522 -0.99948,0.86112c2.23334,-0.09148 5.6875,0.93287 7.2804,1.15397l0.71969,0.25506c-0.68538,0.44711 -1.65556,0.59424 -2.67978,0.62155c0.16168,0.0373 0.3071,0.06817 0.43042,0.08858l0.68303,0.34035c-0.62931,0.50022 -1.46832,0.74674 -2.38408,0.85846l0.46126,0.2047c-0.25537,0.08174 -0.51358,0.13861 -0.77388,0.17744l-0.00091,0.00068c-0.00069,-0.00008 -0.00138,-0.00016 -0.00206,-0.00024c-0.68524,0.10187 -1.38498,0.07901 -2.08584,0.05636c1.48427,0.26906 3.12578,0.75205 4.03958,0.88696l0.73071,0.23937c-2.52329,1.11214 -6.20482,0.73585 -9.15574,0.69703c0.15148,0.03989 0.29182,0.07476 0.41483,0.09839c2.12416,0.4082 4.27026,0.67501 6.41214,0.97537l0.70856,0.31643c-0.29291,0.13147 -0.59441,0.23122 -0.90188,0.30804l0.42375,0.12781c-1.13587,0.60896 -2.55586,0.67837 -3.90623,0.78394c0.25453,0.06909 0.49782,0.14189 0.70488,0.18436c1.44727,0.29681 5.96621,0.37228 6.90702,1.57095c0.0431,0 0.08619,0 0.12929,0c0.5811,0 1.5893,-0.1709 2.26358,0c0.07881,0 0.15761,0 0.23642,0l0.75,0.25c-0.2248,0.07493 -0.4571,0.13985 -0.69585,0.19585l-0.05415,0.05415c-0.06399,0 -0.12798,0 -0.19196,0c-1.54849,0.31893 -3.34344,0.29081 -5.10658,0.19887c-0.49255,0.03132 -0.98532,0.06172 -1.47594,0.10455c-0.04531,0.01783 -0.09087,0.03523 -0.13666,0.05222c0.57136,0.13096 1.18466,0.34017 1.66508,0.42753l0.69018,0.27654c-0.27015,0.29733 -0.63746,0.52021 -1.06162,0.69383l0.04998,0.02401c-0.86226,0.51479 -1.80755,0.71803 -2.7864,0.79671c0.86368,0.13268 1.7662,0.39591 2.37298,0.50529l0.69709,0.35241c-0.3069,0.10101 -0.63904,0.17115 -0.9909,0.21555c0.73227,0.13803 1.4509,0.3123 2.14142,0.54798c-0.14503,0.3504 -0.37239,0.63019 -0.6592,0.85505c1.0174,0.01277 2.03477,0.02926 3.05221,0.04394c0.37762,0.00545 1.81165,-0.19369 1.54114,0.74871c-0.10907,0.37998 -2.78733,0.45215 -3.18281,0.49784c-0.95639,0.11049 -1.91278,0.22102 -2.86917,0.33154c1.32625,-0.0021 2.65292,-0.0148 3.9781,0.11902l0.72145,0.27779c-1.14799,0.68375 -2.54701,1.00471 -3.97778,1.23882l0.65298,0.16849c-0.29376,0.16745 -0.58519,0.29476 -0.88102,0.40517c-0.13123,0.09136 -0.31392,0.13543 -0.48102,0.1667c-0.2375,0.07769 -0.47996,0.15265 -0.73062,0.23611c-0.24044,0.08005 -0.78623,0.24125 -1.07004,0.32152c0.65781,-0.07841 2.54821,0.53736 2.64081,1.16753c0.02514,0.17105 -0.01605,0.33017 -0.10469,0.47779c0.01906,0.05027 0.03255,0.10838 0.0399,0.17493c0.1057,0.0505 0.20839,0.10399 0.30783,0.16064l-0.31977,0.14721c-0.14786,0.49419 -1.33792,1.36959 -2.22145,1.99981c0.17953,0.03056 0.35802,0.06287 0.53516,0.0972c1.58938,-0.38275 3.68835,-0.49568 5.27338,-0.74093c0.26814,-0.06225 0.53436,-0.11258 0.79727,-0.14703c0.1166,-0.02606 0.22813,-0.0536 0.33396,-0.08287l0.07647,0.04235c0.242,-0.01564 0.48047,-0.01562 0.71427,0.00327l-0.65743,0.43629c-0.05772,0.01597 -0.11555,0.03199 -0.1735,0.04805c-0.73729,0.55325 -2.25795,0.95562 -3.57741,1.25423c0.07524,0.03245 0.14971,0.06577 0.22338,0.1l-0.70103,0.33103c-0.11626,0.01976 -0.23252,0.03952 -0.34878,0.05929l-0.11033,0.07663c-0.14492,0.05323 -0.2737,0.09195 -0.39291,0.11801c-0.76361,0.82361 -1.38862,1.8861 -2.00678,2.89556c0.67111,-0.50509 1.51114,-0.95954 1.95921,-1.26783l0.76417,-0.08425c-0.27368,0.68288 -0.7037,1.04247 -1.22821,1.38862c1.65615,-0.52521 4.33531,-0.62419 5.60258,-0.79222l0.74375,0.22189c-0.72151,0.38527 -1.53424,0.63207 -2.37855,0.82462c0.28067,-0.01297 0.53529,-0.02862 0.74943,-0.05255l0.75369,0.11301c0.6317,-0.04804 1.24194,-0.08903 1.80995,-0.13544l0.75058,0.11501c-0.83366,1.06651 -2.3554,1.53475 -3.58277,2.10562c1.31603,-0.23712 5.29609,-0.07926 4.61393,1.05278c-0.21315,0.35371 -1.16366,0.65083 -2.14639,0.88955c0.78314,0.07965 1.52795,0.22149 2.20551,0.45564l-0.21807,0.09806c0.53743,0.0385 0.99963,0.06872 1.33454,0.07041l0.68892,0.38287c-0.80829,0.59182 -1.74744,1.01285 -2.70657,1.38258c0.15585,0.04408 0.30967,0.09137 0.46121,0.14216l-0.26257,0.21822c1.70705,-0.00607 3.64887,0.21486 3.84867,0.78575c0.43228,1.23514 -2.52362,1.59262 -3.16505,1.75053c-0.08746,0.02153 -0.17492,0.04306 -0.26238,0.0646c1.5983,-0.14166 3.20228,-0.30062 4.80136,-0.34045l0.75087,0.18705c-1.21484,0.92551 -2.80354,1.42168 -4.35289,1.85944c1.46533,0.00431 3.19048,0.243 4.0253,0.24386l0.74746,0.21593c-1.81113,1.12623 -4.24751,1.68701 -6.58241,2.16877c0.83427,0.00015 1.7055,-0.07812 2.51344,0.02529c0.00278,-0.00034 0.00555,-0.00068 0.00833,-0.00102l0.00354,0.00255c0.26572,0.03463 0.52453,0.08907 0.77286,0.17261l-0.5963,0.26759c0.48834,0.03326 1.16562,0.10029 1.23886,0.28516c0.10696,0.26998 -0.88898,1.2346 -1.05993,1.4293c-0.20766,0.09778 -0.42801,0.19302 -0.65714,0.28733c0.44119,-0.00736 0.94558,0.02977 1.10167,0.3104c0.15195,0.27318 -0.48239,0.63341 -0.34681,0.88716c0.10144,-0.00903 0.2019,-0.01849 0.30131,-0.02843c0.66336,-0.06636 1.32671,-0.13271 1.99007,-0.19907l0.19688,0.15862c0.20137,-0.02582 0.39543,-0.02605 0.57462,0.01918l-0.72173,0.31972c-0.27345,0.02735 -0.54689,0.05471 -0.82034,0.08206c-0.4628,0.09324 -0.98559,0.15453 -1.37017,0.13717c-1.64479,0.16636 -3.28679,0.35465 -4.92857,0.54681c0.61942,0.01244 1.30657,0.16117 1.81146,0.19888c1.49683,0.1118 2.99433,0.21766 4.49126,0.33014c1.4314,-0.01682 2.82626,0.0675 4.07984,0.46647l-0.52146,0.22435c0.12365,0.05991 0.24726,0.1199 0.37087,0.1799l0.59007,0.45984c-1.14575,0.67016 -2.44934,1.18212 -3.80137,1.62281c0.4015,0.06005 0.79064,0.14233 1.1626,0.25285l-0.67442,0.39132c-1.78383,0.43648 -3.57136,0.74064 -5.34583,1.23484c-0.48167,0.13415 -0.96334,0.26829 -1.44501,0.40244c-0.05521,0.01538 -0.13083,0.0349 -0.21465,0.05686c0.53196,-0.03587 1.08978,-0.00625 1.48178,-0.0064c0.21846,-0.00008 0.43692,-0.00016 0.65538,-0.00023c2.74727,-0.29569 5.82404,-0.7581 8.2915,-0.17051l-0.24924,0.16777c1.11485,-0.00157 2.22973,-0.00258 3.3445,0.0046l0.6795,0.41384c-2.0907,1.28927 -4.66782,1.7087 -6.96546,2.65638c-0.09566,0.05345 -0.19029,0.1079 -0.28416,0.16308c1.45396,-0.13376 3.58459,0.21666 4.60555,0.21735c0.34799,0.00024 1.65429,-0.1863 1.6746,0.48534c0.00369,0.1219 -0.20595,0.28652 -0.50314,0.45928c0.4943,0.0283 0.9721,0.08993 1.42292,0.19915l-0.67482,0.34819c-0.63663,0.19314 -1.20992,0.41383 -1.81241,0.69622c-5.48371,2.5703 2.43249,0.75903 4.38767,1.05782l-0.62477,0.46875c-0.16181,0.05982 -0.33218,0.12963 -0.50892,0.2062c0.41862,-0.1413 0.83816,-0.26649 1.26086,-0.36103l-0.39513,0.65988c-0.00659,0.00495 -0.01319,0.00992 -0.01979,0.01492c0.0262,0.00163 0.05239,0.00326 0.07859,0.00489c0.23091,-0.12364 0.46344,-0.23914 0.69717,-0.34281l0.01672,0.3872c0.14318,0.0089 0.28636,0.01781 0.42954,0.02671c-0.00097,-0.40077 0.36308,-1.02178 0.64848,-1.52688l0.42153,-0.62104c0.15603,0.53632 0.08612,1.54778 -0.19325,2.34727l0.29204,0.11398c-0.13478,0.03422 -0.25565,0.05894 -0.36373,0.075c-0.12321,0.29945 -0.27867,0.55747 -0.46537,0.73218c-0.90127,0.8434 -1.41375,0.21242 -1.28257,-0.67818c-0.02208,-0.00137 -0.04417,-0.00275 -0.06625,-0.00412c-0.50997,0.51942 -1.38574,0.82279 -1.95495,1.18675l-0.72047,0.24672c0.09527,-0.43054 0.28995,-0.76914 0.54449,-1.0602c-0.90272,0.26586 -1.89466,0.41119 -2.46732,0.56124l-0.77172,-0.05426c0.37741,-0.53456 0.891,-0.91828 1.46996,-1.21976c-0.21813,-0.02643 -0.43619,-0.05358 -0.65419,-0.08112c-0.99009,0.06531 -1.84992,0.02791 -2.16376,-0.16763c-0.05928,-0.03693 -0.11132,-0.07436 -0.15663,-0.11217c-0.48343,-0.03659 -1.29538,-0.10709 -1.37383,-0.30164c-0.23095,-0.57274 1.21198,-1.4669 2.17123,-1.98983c-2.17537,0.23636 -5.36547,0.5176 -5.98984,-0.60795c0.6429,-0.56533 1.28687,-1.03657 1.96457,-1.44141l0.00796,-0.00717c0.01285,-0.00684 0.02588,-0.01377 0.03907,-0.02079c0.32395,-0.19161 0.65574,-0.36827 0.99891,-0.53298c-0.83425,0.02674 -1.69541,-0.04189 -2.43975,-0.03293c-0.34364,0.00414 -1.6384,0.19539 -1.65377,-0.47703c-0.01702,-0.74475 2.14577,-1.27537 3.29425,-1.5228c-2.10267,0.10044 -4.28992,0.26529 -6.33934,0.14492c-0.25332,0.02093 -0.52825,0.02555 -0.7161,-0.05479c-0.27239,-0.026 -0.54178,-0.05796 -0.80762,-0.09676l0.4447,-0.61348c0.6012,-0.52051 1.03564,-0.76718 1.79069,-1.01673c0.54869,-0.18135 1.09738,-0.36269 1.64607,-0.54404c-1.11288,-0.08625 -2.1259,-0.19063 -2.71036,-0.19072l-0.74755,-0.21544c0.79536,-0.49701 1.72141,-0.82157 2.69776,-1.06607c-1.08989,-0.03719 -2.06916,-0.10422 -2.65082,-0.10227l-0.73206,-0.19052c0.82084,-0.69021 2.23671,-1.02647 3.80106,-1.2015c-0.73076,-0.02528 -1.46048,-0.0699 -2.18843,-0.14646c-1.49177,-0.15688 -2.98355,-0.31376 -4.47532,-0.47063l-0.72111,-0.29943c1.33156,-0.57168 2.93658,-0.84321 4.58615,-1.0008c0.57838,-0.41378 1.27048,-0.75919 1.98828,-1.06916c-0.8613,-0.03498 -1.71562,-0.1058 -2.58816,-0.26291c-0.98417,-0.17721 -1.96835,-0.35441 -2.95252,-0.53162l-0.69761,-0.3252c0.63334,-0.35576 1.32141,-0.6241 2.04204,-0.83162c-0.17871,-0.03936 -0.3529,-0.087 -0.52162,-0.14413l0.67249,-0.38886c0.32321,-0.08153 0.64642,-0.16307 0.96962,-0.2446c0.4298,-0.10842 0.85942,-0.21697 1.2888,-0.32604c-0.20575,-0.13745 -0.31225,-0.29801 -0.27468,-0.48142c0.0962,-0.4696 0.65439,-0.79064 1.35091,-1.01857c-0.68215,-0.03181 -1.38157,-0.09045 -2.01742,-0.1457c-0.55067,0.019 -1.05998,0.00326 -1.46196,-0.0753c-0.81665,-0.03839 -1.52235,-0.07463 -1.95508,-0.05944l-0.75433,-0.23212c1.13525,-0.5185 2.53153,-0.73165 3.93017,-0.86124c-1.08244,-0.15634 -2.14333,-0.39343 -2.8278,-0.47565c-0.32334,-0.03884 -2.06763,-0.07348 -2.18992,-0.39876c-0.20347,-0.54123 1.01492,-1.11481 1.32063,-1.20271c1.59667,-0.42796 3.22514,-0.78179 4.78586,-1.31568c-0.23407,-0.04443 -0.46421,-0.10142 -0.68903,-0.17405l0.30198,-0.21879c-2.01137,-0.14312 -4.50125,-0.73994 -5.70223,-0.84899l-0.733,-0.24933c0.80915,-0.4171 1.73652,-0.68899 2.71605,-0.87706l0.15761,-0.12318c0.14088,-0.05619 0.28281,-0.10946 0.42555,-0.16051c-1.21572,-0.00042 -2.43144,-0.00053 -3.64716,-0.00059l-0.74932,-0.23171c0.68725,-0.32906 1.45594,-0.54418 2.26384,-0.68968c-1.18091,0 -2.36183,0 -3.54274,0c-0.16667,0 -0.33333,0 -0.5,0l-0.74955,-0.23503c1.11891,-0.50467 2.4555,-0.75972 3.84054,-0.91425c-1.38639,-0.00155 -2.77277,-0.00188 -4.15917,-0.00206c-0.66667,-0.00009 -1.33333,-0.00018 -2,-0.00026l-0.73043,-0.15319c0.1958,-0.30669 1.71294,-1.65723 1.72998,-1.90076c0.04894,-0.69963 -2.38766,-2.07907 -2.05883,-2.89369c0.21384,-0.52973 3.55347,-0.72463 4.13336,-0.8232c1.0084,-0.17141 2.0168,-0.34282 3.0252,-0.51423l0.24476,-0.21942c-0.00246,-0.00058 -0.00492,-0.00116 -0.00738,-0.00174c-0.88463,0.09934 -1.76837,0.13082 -2.64041,0.06015l0.21574,-0.50346c-1.59651,-0.26118 -3.19302,-0.52236 -4.78954,-0.78354l-0.70307,-0.32601c2.03121,-0.97028 4.71457,-1.186 7.10345,-1.49663c0.02339,-0.01557 0.04686,-0.03103 0.07039,-0.04636c-0.38172,-0.05024 -0.74924,-0.10736 -1.03563,-0.1219c-2.33033,-0.11832 -4.66066,-0.23664 -6.99099,-0.35496c-0.16645,-0.00845 -0.3329,-0.0169 -0.49936,-0.02535l-0.73579,-0.25394c1.92411,-1.05431 4.46332,-1.45087 6.87721,-1.77547c-0.20765,-0.04031 -0.41273,-0.096 -0.6145,-0.17027l0.67358,-0.38454c0.4386,-0.10965 1.08813,-0.30726 1.83174,-0.52502c-1.65478,-0.22308 -3.70781,-0.15582 -5.01562,-0.32424l-0.72178,-0.2797c0.48853,-0.23587 1.01638,-0.4252 1.57144,-0.57884c-0.17688,-0.05285 -0.35154,-0.1113 -0.52373,-0.1759l0.68977,-0.35974c0.2546,-0.05146 0.52457,-0.10302 0.80561,-0.15287l0.65787,-0.40502c0.48899,-0.0718 1.02853,-0.12035 1.58302,-0.17313c-0.15017,-0.00006 -0.30033,-0.00012 -0.4505,-0.00018l-0.74259,-0.19002c0.37464,-0.33938 0.73349,-0.54148 1.10494,-0.66827c-0.00376,-0.00027 -0.00752,-0.00054 -0.01126,-0.0008c-1.32778,-0.09139 -2.67094,-0.07607 -4.0087,-0.06493c-0.3895,0.03598 -0.76763,0.04559 -1.07654,0.00592c-0.13268,0.00009 -0.26524,-0.00016 -0.39768,-0.00085l-0.73441,-0.25319c0.22379,-0.07954 0.45025,-0.13943 0.67862,-0.18566zM365.05348,108.89836c0.3032,-0.07227 0.7617,-0.17815 1.27274,-0.27387c0.05346,-0.12484 0.10978,-0.25715 0.16294,-0.38526c-0.61219,-0.15918 -1.17739,-0.34738 -1.50327,-0.55476c-0.05196,0.30958 -0.14261,0.99793 0.00394,1.24651zM369.24833,126.3719c-0.19658,0.07196 -0.40368,0.13283 -0.61804,0.18485c0.25781,0.01659 0.50584,0.04278 0.74068,0.07999l-0.37099,0.23793c0.88034,-0.0534 1.7321,-0.10844 2.5174,-0.19917c0.53241,-0.06151 1.14384,-0.20085 1.73086,-0.24891c-0.01376,-0.00048 -0.02679,-0.00081 -0.03901,-0.00099c-0.49995,-0.00721 -0.9999,-0.01443 -1.49984,-0.02164c-0.82045,-0.01184 -1.64073,-0.02367 -2.46105,-0.03206zM377.89156,156.10057c-0.73543,0.28536 -1.48601,0.58825 -2.1499,0.95079c1.32145,-0.09348 2.64001,-0.13996 3.83981,-0.23371c0.11205,-0.22372 0.36132,-0.47456 0.27225,-0.68586c-0.03684,-0.08741 -1.16862,-0.02197 -1.25934,-0.02294c-0.23593,-0.00254 -0.47005,-0.00498 -0.70282,-0.00828zM387.0291,168.69498c-0.23119,0.09999 -0.41439,0.17755 -0.49411,0.21741c-0.60458,0.30229 -1.11857,0.61718 -1.66248,1.01849c-0.32979,0.24333 -1.33229,0.44778 -1.01007,0.70104c0.05018,0.03944 0.33413,0.05687 0.66394,0.06635c-0.02347,-0.52103 0.80547,-1.02832 1.24498,-1.23663c0.4518,-0.21414 0.90549,-0.42442 1.35821,-0.63661c0.10835,-0.05078 0.21588,-0.09964 0.32307,-0.14675c-0.1242,0.00089 -0.24163,0.00339 -0.34785,0.01097c-0.02452,0.00175 -0.04976,0.00366 -0.07568,0.00572zM368.61362,140.33083c-0.29138,-0.0298 -0.57195,-0.08388 -0.83717,-0.16919l0.47868,-0.30436c-0.31657,0.00342 -0.6313,-0.0113 -0.94345,-0.04887c-0.44172,0.29817 -0.89997,0.56191 -1.39035,0.75077l0.24492,-0.73512c0.6033,-0.89463 1.42968,-2.6862 2.41422,-3.64739c-0.01026,-0.00174 -0.02056,-0.00357 -0.03089,-0.00548c-1.12468,0.19118 -2.24937,0.38236 -3.37405,0.57353c-0.37955,0.06452 -3.71271,0.41637 -3.7535,0.51743c-0.16128,0.39955 0.60369,0.61877 0.85931,0.96563c0.86985,1.18034 1.50383,2.60272 -0.09943,3.29486c0.61194,0.00008 1.22387,0.00016 1.83581,0.00024c2.59213,0.00034 5.87581,-0.4734 8.61964,-0.10217l0.21611,-0.31382c0.67689,-0.33026 1.55197,-0.91646 2.38648,-1.26077c-0.74441,0.07586 -1.48037,0.17059 -2.21458,0.2796c-1.46805,0.56489 -3.49931,0.63332 -4.8424,0.88758l-0.78055,-0.16706c0.37635,-0.19917 0.7829,-0.36928 1.21121,-0.51541zM366.59642,133.17958c-1.13459,0.19898 -2.26918,0.39796 -3.40377,0.59694c-0.23344,0.04094 -0.51279,0.11825 -0.80221,0.18573c1.32694,0.16601 2.76114,0.28768 4.15854,0.49113c0.68441,-0.50045 1.53544,-1.05501 2.09967,-1.63371c-0.05962,0.01046 -0.11924,0.02091 -0.17885,0.03137c-0.56426,0.28276 -1.19498,0.48445 -1.49305,0.61425l-0.77694,0.09153c0.06059,-0.07544 0.20309,-0.21224 0.39661,-0.37723zM365.73717,107.5387c0.25897,0.11075 0.57655,0.20645 0.91521,0.28912c0.05867,-0.15952 0.09281,-0.27604 0.0798,-0.30561c-0.02586,-0.05879 -0.44505,-0.03754 -0.99501,0.01649zM361.86013,123.07015c0.95167,-0.19135 2.32683,-0.40766 3.63771,-0.52835c-1.04561,-0.02711 -2.08397,-0.08609 -3.06516,-0.41788l0.18582,-0.1309c-1.76914,0.0118 -3.6165,-0.01096 -5.05633,0.39063c-0.16703,0.04659 0.3243,0.13671 0.49682,0.15427c0.49562,0.05044 0.99177,0.14122 1.48502,0.21146c0.77161,0.10987 1.54373,0.21627 2.31612,0.32078zM365.9775,121.84803c0.8793,0.09381 1.74892,0.2434 2.34597,0.35614c0.34347,-0.05895 0.68688,-0.1083 1.02872,-0.14552c-0.55184,-0.09577 -1.04317,-0.17367 -1.50911,-0.33301l-0.02691,0.02691c-0.53437,0 -1.17025,0.04991 -1.83867,0.09549zM368.485,125.29951c0.11516,0.03718 0.22873,0.07714 0.34055,0.12007l-0.7253,0.297c-0.26486,0.02408 -0.57056,0.08171 -0.88664,0.14352c0.63085,0.00026 1.26164,0.004 1.89241,0.0099c0.47804,-0.15323 0.90952,-0.35728 1.26182,-0.63731c-0.46351,0.08332 -1.12101,0.10142 -1.88284,0.06681zM366.40742,130.28987c-1.6142,0.2871 -3.2249,0.58607 -4.82681,0.94373c-0.23053,0.05147 -0.51985,0.14391 -0.82898,0.23554c2.42623,0.00087 5.55274,-0.23079 7.82515,0.44168c0.16826,-0.06066 0.32381,-0.09581 0.45742,-0.09553c0.02116,-0.04799 0.0313,-0.09642 0.02856,-0.14509c-0.03322,-0.59101 -2.64633,-0.55708 -2.73601,-1.1097c-0.01492,-0.09195 0.01529,-0.18266 0.08068,-0.27063zM374.15558,141.82389l-0.60444,0.27233c-0.91062,0.10968 -1.82124,0.21936 -2.73185,0.32904c1.63129,-0.05336 3.24176,-0.00326 4.60232,0.37789c0.2256,-0.06937 0.4512,-0.13874 0.6768,-0.2081c0.12056,-0.03707 1.52312,-0.4065 1.32682,-0.5515c-0.55129,-0.4072 -2.00095,-0.27688 -3.26965,-0.21967zM375.88039,146.8749c-1.84995,0.74136 -3.82238,1.15455 -5.75252,1.67189c-0.10454,0.02534 -1.00373,0.48617 -0.98206,0.5438c0.20918,0.5564 1.19136,0.00739 1.78153,0.07828c0.91462,0.10986 1.87707,0.14364 2.8412,0.1836l0.57167,-0.28306c1.12787,-0.2787 2.25613,-0.55584 3.38425,-0.83355c0.33565,-0.08263 3.01376,-0.5252 2.81264,-1.09985c-0.03213,-0.09181 -1.51592,-0.28014 -1.69765,-0.28055c-0.95568,-0.00216 -1.9726,0.07327 -2.95907,0.01945zM381.1629,151.28129c-0.64523,0.02766 -1.30534,0.0584 -1.96002,0.06219l-0.12792,0.06807c-0.90113,0.18447 -2.04753,0.23241 -2.89238,0.58723c-0.15958,0.06702 -1.29851,0.76123 -1.00839,0.8702c0.0383,0.01439 0.07693,0.02799 0.11586,0.04085c1.69185,-0.43137 3.37984,-0.87275 5.06117,-1.34812c0.22666,-0.06409 0.50928,-0.17203 0.81168,-0.28043zM374.27734,154.28142c-0.21345,0.04462 -0.42502,0.09371 -0.63425,0.14809c-0.43052,0.11189 -1.04643,0.36633 -1.62414,0.49875c0.71545,0.12882 1.4309,0.25764 2.14635,0.38646c1.23102,0.22165 2.42432,0.26675 3.65496,0.28492c0.61011,-0.23853 1.20501,-0.46422 1.73119,-0.69708c0.26362,-0.31482 1.04699,-0.46388 0.89575,-0.84563c-0.27587,-0.69631 -1.49818,-0.06422 -2.2466,-0.03574c-1.19405,0.04543 -2.59461,0.25307 -3.92325,0.26023zM373.86787,157.97612c-0.17291,0.02032 -0.34583,0.04063 -0.51876,0.06091c-0.17265,0.02025 -0.37992,0.05953 -0.60423,0.10262c0.53782,0.05656 1.07565,0.11312 1.61347,0.16968c-0.20942,-0.04502 -0.41671,-0.09374 -0.62158,-0.14655zM385.0925,159.62741c-0.2976,-0.14446 -0.59514,-0.28893 -0.89194,-0.43497c-0.12116,0.01212 -0.24232,0.02423 -0.36348,0.03635c-0.45333,0.04533 -0.95343,0.12082 -1.48414,0.21178c0.25748,0.0207 0.51014,0.05096 0.75696,0.0925l-0.65819,0.42704c-0.17645,0.04975 -0.39208,0.11676 -0.6378,0.19555c-0.11341,0.043 -0.23424,0.08191 -0.36152,0.11706c-0.84156,0.27431 -1.93127,0.6373 -2.99964,0.92663c0.65311,-0.02821 1.31029,-0.04604 1.95497,-0.03281c0.80329,-0.26549 1.60657,-0.53098 2.40986,-0.79647c0.63414,-0.20959 1.53912,-0.69 2.27492,-0.74267zM381.67187,167.45885c-0.50825,0.31462 -1.02363,0.623 -1.59432,0.87957c0.32182,0.37828 1.97596,0.05451 2.50419,0.03499c1.37776,-0.05092 2.96167,-0.28864 4.48247,-0.34602c0.31642,-0.18489 0.65547,-0.36385 0.96063,-0.43639c-0.11302,-0.0006 -0.22232,-0.00158 -0.29056,-0.00107c-0.66656,0.00498 -1.33342,-0.00091 -2,-0.00137c-1.32772,-0.00091 -2.74277,0.1068 -4.06241,-0.12971zM383.79949,165.64817c1.26735,-0.60734 2.74251,-1.2348 3.95505,-1.50991c-1.1091,0.00225 -2.21829,-0.00162 -3.32735,-0.00206c-0.63928,0.1429 -1.2786,0.28561 -1.91789,0.42844c-0.48796,0.10902 -0.97566,0.21934 -1.46391,0.32706c-4.48653,0.98978 0.78826,0.49607 2.75411,0.75648zM376.74607,150.39914c0.12227,0.00747 0.24359,0.0168 0.3638,0.02815c0.83185,-0.31921 2.09654,-0.90775 3.24876,-1.31237c-1.256,0.1543 -2.56032,0.3675 -3.82342,0.4462c0.36645,0.05127 0.72613,0.11606 1.07615,0.1995l-0.56222,0.58951c-0.0897,0.01236 -0.19126,0.02897 -0.30308,0.04902zM370.28439,145.11098c1.84521,0.09195 3.81872,0.12315 5.61112,0.4645c0.76038,-0.37725 1.62744,-0.80993 2.36548,-1.00824c-2.10562,0.07292 -4.47487,0.39954 -6.59741,0.30937c-0.31967,0.04484 -0.63883,0.09199 -0.95731,0.14212c-0.13036,0.02052 -0.27273,0.0541 -0.42188,0.09225zM363.62838,128.17721c1.30851,0.1683 2.61701,0.33672 3.92552,0.50506c0.80505,-0.23153 1.6874,-0.4708 2.51624,-0.6419c-1.80012,0.02648 -3.67225,0.14816 -5.41913,-0.06826c-0.01,0.00115 -0.02,0.00231 -0.02999,0.00346c-0.27469,0.03171 -0.62578,0.12048 -0.99263,0.20163zM378.53379,162.37703c0.36783,-0.08592 0.73592,-0.16864 1.10419,-0.25024c-0.06396,-0.00181 -0.12817,-0.00389 -0.19256,-0.00621c-0.30552,0.08582 -0.6098,0.17098 -0.91163,0.25646zM367.42174,108.45566c-0.1526,-0.03187 -0.3083,-0.06586 -0.46408,-0.10181c-0.02162,0.05816 -0.04379,0.11624 -0.06611,0.17361c0.17625,-0.02725 0.3542,-0.0517 0.53019,-0.07179zM373.3919,143.35008c0.08595,-0.00104 0.17178,-0.00172 0.25745,-0.002c0.02532,-0.00778 0.05063,-0.01557 0.07595,-0.02335c-0.1111,0.00848 -0.22224,0.01691 -0.3334,0.02535zM392.50351,171.89131c-0.09512,-0.00591 -0.19024,-0.01183 -0.28536,-0.01774c-0.16494,0.70128 0.00724,0.507 0.28536,0.01774zM366.25653,106.03687c0.53528,-0.02573 1.01393,-0.10034 1.59146,-0.31286c2.27908,-1.06621 1.1372,-1.07004 -0.59486,-0.85114c0.00267,0.01464 0.00406,0.02972 0.00406,0.04512c0,0.04199 -0.01035,0.08156 -0.02864,0.1163l-0.22136,0.44272l-0.1511,-0.07555c-0.16752,0.23813 -0.37923,0.44244 -0.59957,0.63541zM365.76592,105.98289c-0.04808,0.02307 -0.09667,0.04545 -0.14593,0.06701c0.02803,-0.00007 0.05582,-0.00018 0.08336,-0.00033c0.02086,-0.02249 0.04173,-0.04472 0.06257,-0.06668z" fill="#a93232" stroke="none" stroke-width="0.5"/><path d="M272.40165,152.69106c0,-33.30185 28.7599,-60.29833 64.23702,-60.29833c11.76669,0 22.79445,2.96974 32.27906,8.15431c-0.27346,0.28879 -0.53362,0.59129 -0.77654,0.91144c-1.18263,1.5685 -1.79478,3.51265 -0.90857,5.37928c0.37335,0.78639 1.33678,1.05556 1.74994,1.77538c0.26431,0.46048 -0.72683,1.5639 -0.9892,1.91893c-0.41439,0.56134 -1.51397,1.54706 -1.21713,2.31318c0.22361,0.57714 1.61872,0.94933 1.37209,1.68032c-0.22555,0.66852 -1.5556,1.41876 -1.37114,2.19721c0.21936,0.92574 0.14431,1.02361 -0.50521,2.2549c-1.42324,2.43694 -3.47712,7.93337 -0.05971,9.66435c1.02329,0.50973 2.39809,0.4843 3.28033,0.90744c0.36698,0.17601 -0.08276,1.39393 -0.13752,1.64296c-0.36757,1.67188 -0.51983,3.30108 -0.52468,5.01045c0.01274,2.19478 2.22977,2.95607 2.73597,4.65492c0.25374,0.85157 -1.07418,2.1761 -1.53235,2.85118l-0.0147,0.0052c0.001,0.00406 0.00201,0.00811 0.00301,0.01217c-0.00387,0.00581 -0.00768,0.01156 -0.01142,0.01726l0.02389,0.03316c0.00309,0.01249 0.00618,0.02498 0.00927,0.03746l-0.04537,-0.00155l-0.00113,0.03293h-0.0156v0.46068c0,0.07927 0.0369,0.14993 0.09445,0.19573c-0.14808,0.43453 0.17861,0.59531 0.65434,0.59169c-0.01947,0.03558 -0.03054,0.07642 -0.03054,0.11984c0,0.13716 0.11045,0.24852 0.24726,0.24999l0.49957,0.00627l0.0023,-0.18372c0.89084,-0.04001 2.21627,-0.17685 2.29744,-0.10605c0.108,0.0942 -0.19648,1.49112 -0.26527,1.6669c-0.67059,1.71361 -0.7535,3.06712 -0.72769,4.93147c0.17725,0.31975 0.71839,1.05313 1.01601,1.23682c0.13166,0.08126 1.32733,-0.03982 1.35284,-0.00954c0.06066,0.07198 -1.49634,4.65377 1.31744,8.11543c1.00108,1.23158 2.16675,4.10408 3.57887,4.39038c1.5428,0.3128 4.64623,-0.23425 4.64623,-0.23425c0,0 0.15702,5.84859 2.13465,6.61589c2.06871,0.80264 7.32323,0.61552 7.32323,0.61552c0,0 -4.97807,13.43926 -6.54151,16.50957c-6.50043,10.90706 -17.77862,24.34561 -50.94295,23.97118c-35.47486,-0.40052 -64.23702,-26.99649 -64.23702,-60.29834z" fill="#9c4209" stroke="#000000" stroke-width="0"/><path d="M272.40165,152.69106c0,-33.30185 28.7599,-60.29833 64.23702,-60.29833c11.76669,0 22.79445,2.96974 32.27906,8.15431c-0.27346,0.28879 -0.53362,0.59129 -0.77654,0.91144c-1.18263,1.5685 -1.79478,3.51265 -0.90857,5.37928c0.37335,0.78639 1.33678,1.05556 1.74994,1.77538c0.26431,0.46048 -0.72683,1.5639 -0.9892,1.91893c-0.41439,0.56134 -1.51397,1.54706 -1.21713,2.31318c0.22361,0.57714 1.61872,0.94933 1.37209,1.68032c-0.22555,0.66852 -1.5556,1.41876 -1.37114,2.19721c0.21936,0.92574 0.14431,1.02361 -0.50521,2.2549c-1.42324,2.43694 -3.47712,7.93337 -0.05971,9.66435c1.02329,0.50973 2.39809,0.4843 3.28033,0.90744c0.36698,0.17601 -0.08276,1.39393 -0.13752,1.64296c-0.36757,1.67188 -0.51983,3.30108 -0.52468,5.01045c0.01274,2.19478 2.22977,2.95607 2.73597,4.65492c0.25374,0.85157 -1.07418,2.1761 -1.53235,2.85118l-0.0147,0.0052c0.001,0.00406 0.00201,0.00811 0.00301,0.01217c-0.00387,0.00581 -0.00768,0.01156 -0.01142,0.01726l0.02389,0.03316c0.00309,0.01249 0.00618,0.02498 0.00927,0.03746l-0.04537,-0.00155l-0.00113,0.03293h-0.0156v0.46068c0,0.07927 0.0369,0.14993 0.09445,0.19573c-0.14808,0.43453 0.17861,0.59531 0.65434,0.59169c-0.01947,0.03558 -0.03054,0.07642 -0.03054,0.11984c0,0.13716 0.11045,0.24852 0.24726,0.24999l0.49957,0.00627l0.0023,-0.18372c0.89084,-0.04001 2.21627,-0.17685 2.29744,-0.10605c0.108,0.0942 -0.19648,1.49112 -0.26527,1.6669c-0.67059,1.71361 -0.7535,3.06712 -0.72769,4.93147c0.17725,0.31975 0.71839,1.05313 1.01601,1.23682c0.13166,0.08126 1.32733,-0.03982 1.35284,-0.00954c0.06066,0.07199 -1.49634,4.65377 1.31744,8.11543c1.00108,1.23158 2.16674,4.10407 3.57887,4.39038c1.5428,0.3128 4.64623,-0.23426 4.64623,-0.23426c0,0 0.08296,3.09009 0.88777,5.07272c0.19852,0.48905 -110.44015,-0.30347 -110.44505,-0.31874c-1.76038,-5.48202 -2.70632,-11.30082 -2.70632,-17.34017z" fill="#973007" stroke="#000000" stroke-width="0"/><path d="M272.40165,152.69106c0,-2.46393 0.15744,-4.89334 0.46338,-7.27986c3.82915,-29.86902 30.92139,-53.01847 63.77364,-53.01847c11.76669,0 22.79445,2.96974 32.27906,8.15431c-0.27346,0.28879 -0.53362,0.59129 -0.77654,0.91144c-1.18263,1.5685 -1.79478,3.51265 -0.90857,5.37928c0.37335,0.78639 1.33678,1.05556 1.74994,1.77538c0.26431,0.46048 -0.72683,1.5639 -0.9892,1.91893c-0.41439,0.56134 -1.51397,1.54706 -1.21713,2.31318c0.22361,0.57714 1.61872,0.94933 1.37209,1.68032c-0.22555,0.66852 -1.5556,1.41876 -1.37114,2.19721c0.21936,0.92574 0.14431,1.02361 -0.50521,2.2549c-1.42324,2.43694 -3.47712,7.93337 -0.05971,9.66435c1.02329,0.50973 2.39809,0.4843 3.28033,0.90744c0.36698,0.17601 -0.08276,1.39393 -0.13752,1.64296c-0.36757,1.67188 -0.51983,3.30108 -0.52468,5.01045c0.01274,2.19478 2.22977,2.95607 2.73597,4.65492c0.25374,0.85157 -1.07418,2.1761 -1.53235,2.85118l-0.0147,0.0052c0.001,0.00406 0.00201,0.00811 0.00301,0.01217c-0.00387,0.00581 -0.00768,0.01156 -0.01142,0.01726l0.02389,0.03316c0.00309,0.01249 0.00618,0.02498 0.00927,0.03746l-0.04537,-0.00155l-0.00113,0.03293h-0.0156v0.46068c0,0.07927 0.0369,0.14993 0.09445,0.19573c-0.14808,0.43453 0.17861,0.59531 0.65434,0.59169c-0.01947,0.03558 -0.03054,0.07642 -0.03054,0.11984c0,0.13716 0.11045,0.24852 0.24726,0.24999l0.49957,0.00627l0.0023,-0.18372c0.89084,-0.04001 2.21627,-0.17685 2.29744,-0.10605c0.108,0.0942 -0.19648,1.49112 -0.26527,1.6669c-0.67059,1.71361 -0.7535,3.06712 -0.72769,4.93147c0.17725,0.31975 0.71839,1.05313 1.01601,1.23682c0.13166,0.08126 1.32733,-0.03982 1.35284,-0.00954c0.15452,0.18335 -102.72105,-0.31341 -102.72105,-0.31463z" fill="#7b280f" stroke="#000000" stroke-width="0"/><path d="M277.80167,128.45407c9.94102,-21.23335 32.54428,-36.06132 58.837,-36.06132c11.76669,0 22.79445,2.96974 32.27906,8.15431c-0.27346,0.28879 -0.53362,0.59129 -0.77654,0.91144c-1.18263,1.5685 -1.79478,3.51265 -0.90857,5.37928c0.37335,0.78639 1.33678,1.05556 1.74994,1.77538c0.26431,0.46048 -0.72683,1.5639 -0.9892,1.91893c-0.41439,0.56134 -1.51397,1.54706 -1.21713,2.31318c0.22361,0.57714 1.61872,0.94933 1.37209,1.68032c-0.22555,0.66852 -1.5556,1.41876 -1.37114,2.19721c0.21936,0.92574 0.14431,1.02361 -0.50521,2.2549c-1.42324,2.43694 -3.47712,7.93337 -0.05971,9.66435c1.02329,0.50973 2.39809,0.4843 3.28033,0.90744c0.02153,0.01033 -91.74334,-0.98346 -91.69092,-1.09542z" fill="#671d06" stroke="#000000" stroke-width="0"/><path d="M286.02876,152.96672c0,-12.96801 10.51265,-23.48065 23.48066,-23.48065c12.96801,0 23.48065,10.51264 23.48065,23.48065c0,12.96801 -10.51264,23.48066 -23.48065,23.48066c-12.96801,0 -23.48066,-10.51265 -23.48066,-23.48066z" fill="url(#color-1)" stroke="#000000" stroke-width="0"/><path d="M277.27885,129.16119c0,-0.9665 0.7835,-1.75 1.75,-1.75c0.9665,0 1.75,0.7835 1.75,1.75c0,0.9665 -0.7835,1.75 -1.75,1.75c-0.9665,0 -1.75,-0.7835 -1.75,-1.75z" fill="#671d06" stroke="none" stroke-width="0.5"/><path d="M286.57806,131.22057c0,-0.12766 0.01914,-0.25084 0.0547,-0.36685c-0.01046,-0.00275 -0.02088,-0.0056 -0.03126,-0.00853c-0.2616,0.06599 -0.45839,0.06599 -0.45839,0.06599c-0.62406,0 -1.43533,0 -2.05939,0c0,0 -0.36168,0 -0.75618,-0.16442c-0.22516,0.10549 -0.47647,0.16442 -0.74155,0.16442c-0.9665,0 -1.75,-0.7835 -1.75,-1.75c0,-0.9665 0.7835,-1.75 1.75,-1.75c0.26508,0 0.51639,0.05894 0.74155,0.16442c0.39451,-0.16442 0.75618,-0.16442 0.75618,-0.16442c0.62406,0 1.24811,0 1.87217,0h0.18722c0,0 0.19679,0 0.45839,0.06599c0.15184,-0.04299 0.31208,-0.06599 0.47769,-0.06599c0.9665,0 1.75,0.7835 1.75,1.75c0,0.37639 -0.11883,0.72502 -0.32101,1.01044c0.34302,0.22286 0.56988,0.60941 0.56988,1.04895c0,0.69036 -0.55964,1.25 -1.25,1.25c-0.69036,0 -1.25,-0.55964 -1.25,-1.25z" fill="#671d06" stroke="none" stroke-width="0.5"/><path d="M298.81336,129.3484c0,0.69036 -0.55964,1.25 -1.25,1.25c-0.47992,0 -0.89667,-0.27046 -1.10615,-0.66728c-0.1259,0.02878 -0.25697,0.04398 -0.39159,0.04398c-0.04621,0 -0.092,-0.00179 -0.1373,-0.00531c-0.23947,0.12307 -0.51102,0.19252 -0.79879,0.19252c-0.9665,0 -1.75,-0.7835 -1.75,-1.75c0,-0.9665 0.7835,-1.75 1.75,-1.75c0.04621,0 0.092,0.00179 0.1373,0.00531c0.23947,-0.12307 0.51102,-0.19252 0.79879,-0.19252c0.93232,0 1.69436,0.72907 1.74709,1.64818c0.57088,0.11557 1.00065,0.62016 1.00065,1.22513z" fill="#671d06" stroke="none" stroke-width="0.5"/><path d="M308.35691,128.41232c0,-0.9665 0.7835,-1.75 1.75,-1.75c0.9665,0 1.75,0.7835 1.75,1.75c0,0.9665 -0.7835,1.75 -1.75,1.75c-0.9665,0 -1.75,-0.7835 -1.75,-1.75z" fill="#671d06" stroke="none" stroke-width="0.5"/><path d="M314.90951,128.41232c0,-0.9665 0.7835,-1.75 1.75,-1.75c0.9665,0 1.75,0.7835 1.75,1.75c0,0.9665 -0.7835,1.75 -1.75,1.75c-0.9665,0 -1.75,-0.7835 -1.75,-1.75z" fill="#671d06" stroke="none" stroke-width="0.5"/><path d="M326.20759,128.0984c0.69036,0 1.25,0.55964 1.25,1.25c0,0.69036 -0.55964,1.25 -1.25,1.25c-0.2987,0 -0.57292,-0.10477 -0.78794,-0.27956c-0.24378,0.67307 -0.88867,1.15399 -1.64589,1.15399c-0.69661,0 -1.29816,-0.40702 -1.57979,-0.99622c-0.74513,-0.20079 -1.29351,-0.88129 -1.29351,-1.68987c0,-0.9665 0.7835,-1.75 1.75,-1.75c0.69661,0 1.29816,0.40702 1.57979,0.99622c0.37672,0.10152 0.70316,0.32565 0.93385,0.62696c0.22368,-0.33835 0.60752,-0.56153 1.04348,-0.56153z" fill="#671d06" stroke="none" stroke-width="0.5"/><path d="M330.07411,129.3484c0,-0.9665 0.7835,-1.75 1.75,-1.75c0.57877,0 1.09192,0.28097 1.41049,0.71394c0.43298,0.31857 0.71394,0.83172 0.71394,1.41049c0,0.9665 -0.7835,1.75 -1.75,1.75c-0.57877,0 -1.09192,-0.28097 -1.41049,-0.71394c-0.43298,-0.31857 -0.71394,-0.83172 -0.71394,-1.41049z" fill="#671d06" stroke="none" stroke-width="0.5"/><path d="M344.7421,127.91119c0.54642,0 1.01095,0.35061 1.1809,0.83913c0.10276,-0.01879 0.20865,-0.02861 0.31683,-0.02861c0.9665,0 1.75,0.7835 1.75,1.75c0,0.9665 -0.7835,1.75 -1.75,1.75c-0.88719,0 -1.62018,-0.66019 -1.7345,-1.51609c-0.29231,0.4299 -0.77103,0.72284 -1.31995,0.7626c-0.31597,0.45534 -0.84255,0.7535 -1.43876,0.7535c-0.9665,0 -1.75,-0.7835 -1.75,-1.75c0,-0.92337 0.71514,-1.67971 1.62176,-1.74537c0.31597,-0.45534 0.84255,-0.7535 1.43876,-0.7535c0.31936,0 0.61874,0.08555 0.87648,0.23497c0.21796,-0.18502 0.50019,-0.29662 0.80848,-0.29662z" fill="#671d06" stroke="none" stroke-width="0.5"/><path d="M364.64764,133.46718c0,-0.56989 0.38138,-1.05071 0.90283,-1.20116c-0.07757,-0.08211 -0.14414,-0.17474 -0.19733,-0.27551c-0.1259,0.02878 -0.25697,0.04398 -0.39159,0.04398c-0.3019,0 -0.58595,-0.07645 -0.83384,-0.21105c-0.09416,0.01567 -0.19086,0.02383 -0.28946,0.02383c-0.83935,0 -1.54068,-0.59091 -1.71069,-1.37942c-0.23288,0.693 -0.88775,1.1922 -1.65922,1.1922c-0.63502,0 -1.19104,-0.33823 -1.49774,-0.84436c-0.3067,0.50613 -0.86272,0.84436 -1.49774,0.84436c-0.9665,0 -1.75,-0.7835 -1.75,-1.75c0,-0.9665 0.7835,-1.75 1.75,-1.75c0.63502,0 1.19104,0.33823 1.49774,0.84436c0.3067,-0.50613 0.86272,-0.84436 1.49774,-0.84436c0.83935,0 1.54068,0.59091 1.71069,1.37942c0.23288,-0.693 0.88775,-1.1922 1.65922,-1.1922c0.3019,0 0.58595,0.07645 0.83384,0.21105c0.09416,-0.01567 0.19086,-0.02383 0.28946,-0.02383c0.78111,0 1.4427,0.51176 1.66776,1.21828c0.27426,-0.17849 0.60166,-0.28219 0.95328,-0.28219c0.9665,0 1.75,0.7835 1.75,1.75c0,0.9665 -0.7835,1.75 -1.75,1.75c-0.20578,0 -0.40327,-0.03552 -0.58666,-0.10076c0.09674,0.17748 0.15171,0.381 0.15171,0.59737c0,0.69036 -0.55964,1.25 -1.25,1.25c-0.69036,0 -1.25,-0.55964 -1.25,-1.25z" fill="#671d06" stroke="none" stroke-width="0.5"/><path d="M351.97852,129.91005c0,-0.9665 0.7835,-1.75 1.75,-1.75c0.9665,0 1.75,0.7835 1.75,1.75c0,0.9665 -0.7835,1.75 -1.75,1.75c-0.9665,0 -1.75,-0.7835 -1.75,-1.75z" fill="#671d06" stroke="none" stroke-width="0.5"/><path d="M299.5577,128.41232c0,-0.9665 0.7835,-1.75 1.75,-1.75c0.9665,0 1.75,0.7835 1.75,1.75c0,0.9665 -0.7835,1.75 -1.75,1.75c-0.9665,0 -1.75,-0.7835 -1.75,-1.75z" fill="#671d06" stroke="none" stroke-width="0.5"/><path d="M289.26075,128.97397c0,-0.9665 0.7835,-1.75 1.75,-1.75c0.9665,0 1.75,0.7835 1.75,1.75c0,0.9665 -0.7835,1.75 -1.75,1.75c-0.9665,0 -1.75,-0.7835 -1.75,-1.75z" fill="#671d06" stroke="none" stroke-width="0.5"/><path d="M368.45364,153.49942c0,-0.9665 0.7835,-1.75 1.75,-1.75c0.09861,0 0.19531,0.00816 0.28946,0.02383c0.24789,-0.1346 0.53194,-0.21105 0.83384,-0.21105c0.9665,0 1.75,0.7835 1.75,1.75c0,0.9665 -0.7835,1.75 -1.75,1.75c-0.09861,0 -0.19531,-0.00816 -0.28946,-0.02383c-0.24789,0.1346 -0.53194,0.21105 -0.83384,0.21105c-0.9665,0 -1.75,-0.7835 -1.75,-1.75z" fill="#7b280f" stroke="none" stroke-width="0.5"/><path d="M360.52886,154.06109c0,-0.69036 0.55964,-1.25 1.25,-1.25c0.21052,0 0.40889,0.05204 0.58294,0.14396c0.2289,-0.69996 0.88723,-1.20562 1.66367,-1.20562c0.42758,0 0.81935,0.15335 1.1233,0.40805c0.30395,-0.2547 0.69572,-0.40805 1.1233,-0.40805c0.9665,0 1.75,0.7835 1.75,1.75c0,0.9665 -0.7835,1.75 -1.75,1.75c-0.42758,0 -0.81935,-0.15335 -1.1233,-0.40805c-0.30395,0.2547 -0.69572,0.40805 -1.1233,0.40805c-0.47024,0 -0.89715,-0.18547 -1.21159,-0.48724c-0.22483,0.33126 -0.60451,0.54889 -1.03502,0.54889c-0.69036,0 -1.25,-0.55964 -1.25,-1.25z" fill="#7b280f" stroke="none" stroke-width="0.5"/><path d="M359.28452,155.37161c0,0.69036 -0.55964,1.25 -1.25,1.25c-0.67445,0 -1.22413,-0.53414 -1.24911,-1.20248c-0.08121,0.01155 -0.16422,0.01753 -0.24862,0.01753c-0.9665,0 -1.75,-0.7835 -1.75,-1.75c0,-0.9665 0.7835,-1.75 1.75,-1.75c0.9665,0 1.75,0.7835 1.75,1.75c0,0.15554 -0.02029,0.30634 -0.05837,0.4499c0.59828,0.09317 1.05611,0.61064 1.05611,1.23505z" fill="#7b280f" stroke="none" stroke-width="0.5"/><path d="M346.48757,156.30768c0,-0.37435 0.16456,-0.71026 0.42528,-0.93935c-0.15424,0.04448 -0.31724,0.06831 -0.4858,0.06831c-0.5688,0 -1.07423,-0.27137 -1.39386,-0.69171c-0.19271,0.12145 -0.42091,0.19171 -0.66553,0.19171c-0.69036,0 -1.25,-0.55964 -1.25,-1.25c0,-0.00259 0.00001,-0.00517 0.00002,-0.00775c-0.35977,-0.10733 -0.67098,-0.32726 -0.89275,-0.61891c-0.19271,0.12145 -0.42091,0.19171 -0.66553,0.19171c-0.69036,0 -1.25,-0.55964 -1.25,-1.25c0,-0.69036 0.55964,-1.25 1.25,-1.25c0.24461,0 0.47282,0.07026 0.66553,0.19171c0.31963,-0.42034 0.82506,-0.69171 1.39386,-0.69171c0.9665,0 1.75,0.7835 1.75,1.75c0,0.10673 -0.00956,0.21123 -0.02786,0.31269c0.29841,-0.23651 0.67577,-0.37774 1.08611,-0.37774c0.63502,0 1.19104,0.33823 1.49774,0.84436c0.3067,-0.50613 0.86272,-0.84436 1.49774,-0.84436c0.9665,0 1.75,0.7835 1.75,1.75c0,0.9665 -0.7835,1.75 -1.75,1.75c-0.63502,0 -1.19104,-0.33823 -1.49774,-0.84436c-0.11566,0.19088 -0.26679,0.35787 -0.44424,0.49185c0.08295,-0.01734 0.16892,-0.02645 0.25702,-0.02645c0.69036,0 1.25,0.55964 1.25,1.25c0,0.69036 -0.55964,1.25 -1.25,1.25c-0.69036,0 -1.25,-0.55964 -1.25,-1.25z" fill="#7b280f" stroke="none" stroke-width="0.5"/><path d="M280.52659,151.31334c0.02992,0 0.05959,0.00105 0.08898,0.00312c0.20364,-0.08297 0.42643,-0.12868 0.65989,-0.12868c0.9665,0 1.75,0.7835 1.75,1.75c0,0.9665 -0.7835,1.75 -1.75,1.75c-0.81278,0 -1.49614,-0.55409 -1.69295,-1.30514c-0.17383,-0.20013 -0.28508,-0.45608 -0.30327,-0.73738c-0.04278,0.92847 -0.80908,1.66808 -1.74812,1.66808c-0.33963,0 -0.65666,-0.09675 -0.92503,-0.26419c-0.13121,0.06775 -0.27596,0.11295 -0.42912,0.13046c0.10827,0.18506 0.17033,0.40045 0.17033,0.63033c0,0.69036 -0.55964,1.25 -1.25,1.25c-0.69036,0 -1.25,-0.55964 -1.25,-1.25c0,-0.04261 0.00213,-0.08473 0.0063,-0.12625c-0.91034,-0.06186 -1.6296,-0.81989 -1.6296,-1.74592c0,-0.9665 0.7835,-1.75 1.75,-1.75c0.5688,0 1.07423,0.27137 1.39386,0.69171c0.18801,-0.11848 0.40979,-0.18825 0.64764,-0.19158c0.30265,-0.52283 0.86806,-0.87456 1.51563,-0.87456c0.93904,0 1.70534,0.73962 1.74812,1.66808c0.04219,-0.65217 0.58452,-1.16808 1.24736,-1.16808z" fill="#7b280f" stroke="none" stroke-width="0.5"/><path d="M279.02885,167.85012c0.9665,0 1.75,0.7835 1.75,1.75c0,0.9665 -0.7835,1.75 -1.75,1.75c-0.63153,0 -1.18492,-0.33452 -1.49266,-0.83603c-0.27177,0.1737 -0.59471,0.27438 -0.94117,0.27438c-0.9665,0 -1.75,-0.7835 -1.75,-1.75c0,-0.9665 0.7835,-1.75 1.75,-1.75c0.63153,0 1.18492,0.33452 1.49266,0.83603c0.27177,-0.1737 0.59471,-0.27438 0.94117,-0.27438z" fill="#973007" stroke="none" stroke-width="0.5"/><path d="M382.1205,170.91064c0,-0.9665 0.7835,-1.75 1.75,-1.75c0.9665,0 1.75,0.7835 1.75,1.75c0,0.9665 -0.7835,1.75 -1.75,1.75c-0.9665,0 -1.75,-0.7835 -1.75,-1.75z" fill="#973007" stroke="none" stroke-width="0.5"/><path d="M370.88746,169.60012c0,-0.9665 0.7835,-1.75 1.75,-1.75c0.9665,0 1.75,0.7835 1.75,1.75c0,0.9665 -0.7835,1.75 -1.75,1.75c-0.9665,0 -1.75,-0.7835 -1.75,-1.75z" fill="#973007" stroke="none" stroke-width="0.5"/><path d="M367.4559,172.97002c0,-0.03504 0.00144,-0.06974 0.00427,-0.10405c-0.42021,-0.31964 -0.69149,-0.82499 -0.69149,-1.39369c0,-0.9665 0.7835,-1.75 1.75,-1.75c0.9665,0 1.75,0.7835 1.75,1.75c0,0.41211 -0.14245,0.79095 -0.3808,1.08997c0.04408,0.1278 0.06802,0.26499 0.06802,0.40777c0,0.69036 -0.55964,1.25 -1.25,1.25c-0.69036,0 -1.25,-0.55964 -1.25,-1.25z" fill="#973007" stroke="none" stroke-width="0.5"/><path d="M361.5266,170.34897c0,-0.9665 0.7835,-1.75 1.75,-1.75c0.9665,0 1.75,0.7835 1.75,1.75c0,0.9665 -0.7835,1.75 -1.75,1.75c-0.9665,0 -1.75,-0.7835 -1.75,-1.75z" fill="#973007" stroke="none" stroke-width="0.5"/><path d="M352.54018,169.78733c0,-0.9665 0.7835,-1.75 1.75,-1.75c0.9665,0 1.75,0.7835 1.75,1.75c0,0.9665 -0.7835,1.75 -1.75,1.75c-0.9665,0 -1.75,-0.7835 -1.75,-1.75z" fill="#973007" stroke="none" stroke-width="0.5"/><path d="M344.67705,170.72342c0,-0.9665 0.7835,-1.75 1.75,-1.75c0.9665,0 1.75,0.7835 1.75,1.75c0,0.9665 -0.7835,1.75 -1.75,1.75c-0.9665,0 -1.75,-0.7835 -1.75,-1.75z" fill="#973007" stroke="none" stroke-width="0.5"/><path d="M336.75228,170.72342c0,-0.69036 0.55964,-1.25 1.25,-1.25c0.05536,0 0.10987,0.0036 0.16333,0.01057c0.30113,-0.52859 0.86976,-0.88501 1.52163,-0.88501c0.9665,0 1.75,0.7835 1.75,1.75c0,0.9665 -0.7835,1.75 -1.75,1.75c-0.37703,0 -0.72622,-0.11923 -1.01191,-0.32205c-0.19428,0.12438 -0.42524,0.19649 -0.67305,0.19649c-0.69036,0 -1.25,-0.55964 -1.25,-1.25z" fill="#973007" stroke="none" stroke-width="0.5"/><path d="M291.51189,170.91064c0,0.69036 -0.55964,1.25 -1.25,1.25c-0.61256,0 -1.1222,-0.44061 -1.22929,-1.02219c-0.11998,-0.02024 -0.23581,-0.05269 -0.34617,-0.09602c-0.26854,0.62157 -0.88709,1.05656 -1.60724,1.05656c-0.41631,0 -0.79866,-0.14537 -1.09908,-0.38811c-0.22929,0.27486 -0.57438,0.44976 -0.96031,0.44976c-0.37094,0 -0.70414,-0.16157 -0.93306,-0.41818c-0.22779,0.10855 -0.48275,0.16931 -0.75189,0.16931c-0.9665,0 -1.75,-0.7835 -1.75,-1.75c0,-0.9665 0.7835,-1.75 1.75,-1.75c0.79235,0 1.46171,0.52659 1.6772,1.24889c0.00258,-0.00002 0.00517,-0.00002 0.00775,-0.00002c0.14764,0 0.2893,0.0256 0.42079,0.07259c0.24915,-0.66271 0.88881,-1.13424 1.6386,-1.13424c0.22565,0 0.44132,0.04271 0.63937,0.12048c0.26854,-0.62157 0.88709,-1.05656 1.60724,-1.05656c0.9665,0 1.75,0.7835 1.75,1.75c0,0.17113 -0.02456,0.33652 -0.07036,0.49284c0.30727,0.22774 0.50644,0.59306 0.50644,1.0049z" fill="#973007" stroke="none" stroke-width="0.5"/><path d="M277.59163,132.71831c0,-0.69036 0.55964,-1.25 1.25,-1.25c0.69036,0 1.25,0.55964 1.25,1.25c0,0.69036 -0.55964,1.25 -1.25,1.25c-0.69036,0 -1.25,-0.55964 -1.25,-1.25z" fill="#671d06" stroke="none" stroke-width="0.5"/><path d="M291.25849,134.21606c0,-0.69036 0.55964,-1.25 1.25,-1.25c0.69036,0 1.25,0.55964 1.25,1.25c0,0.69036 -0.55964,1.25 -1.25,1.25c-0.69036,0 -1.25,-0.55964 -1.25,-1.25z" fill="#671d06" stroke="none" stroke-width="0.5"/><path d="M329.45081,132.71831c0,-0.69036 0.55964,-1.25 1.25,-1.25c0.69036,0 1.25,0.55964 1.25,1.25c0,0.69036 -0.55964,1.25 -1.25,1.25c-0.69036,0 -1.25,-0.55964 -1.25,-1.25z" fill="#671d06" stroke="none" stroke-width="0.5"/><path d="M335.25454,135.52657c0,-0.69036 0.55964,-1.25 1.25,-1.25c0.69036,0 1.25,0.55964 1.25,1.25c0,0.69036 -0.55964,1.25 -1.25,1.25c-0.69036,0 -1.25,-0.55964 -1.25,-1.25z" fill="#671d06" stroke="none" stroke-width="0.5"/><path d="M348.73418,129.91005c0,-0.69036 0.55964,-1.25 1.25,-1.25c0.69036,0 1.25,0.55964 1.25,1.25c0,0.69036 -0.55964,1.25 -1.25,1.25c-0.69036,0 -1.25,-0.55964 -1.25,-1.25z" fill="#671d06" stroke="none" stroke-width="0.5"/><path d="M354.16348,133.27995c0,-0.69036 0.55964,-1.25 1.25,-1.25c0.69036,0 1.25,0.55964 1.25,1.25c0,0.69036 -0.55964,1.25 -1.25,1.25c-0.69036,0 -1.25,-0.55964 -1.25,-1.25z" fill="#671d06" stroke="none" stroke-width="0.5"/><path d="M356.78452,134.96492c0,-0.69036 0.55964,-1.25 1.25,-1.25c0.69036,0 1.25,0.55964 1.25,1.25c0,0.69036 -0.55964,1.25 -1.25,1.25c-0.69036,0 -1.25,-0.55964 -1.25,-1.25z" fill="#671d06" stroke="none" stroke-width="0.5"/><path d="M282.83372,154.99716c0,-0.69036 0.55964,-1.25 1.25,-1.25c0.69036,0 1.25,0.55964 1.25,1.25c0,0.69036 -0.55964,1.25 -1.25,1.25c-0.69036,0 -1.25,-0.55964 -1.25,-1.25z" fill="#7b280f" stroke="none" stroke-width="0.5"/><path d="M335.06732,153.87386c0,-0.69036 0.55964,-1.25 1.25,-1.25c0.02504,0 0.04992,0.00074 0.07459,0.00219c0.26684,-0.62545 0.8874,-1.06384 1.61036,-1.06384c0.9665,0 1.75,0.7835 1.75,1.75c0,0.9665 -0.7835,1.75 -1.75,1.75c-0.31936,0 -0.61874,-0.08555 -0.87648,-0.23497c-0.18363,0.15588 -0.41288,0.25965 -0.66489,0.28847c0.10827,0.18506 0.17033,0.40045 0.17033,0.63033c0,0.69036 -0.55964,1.25 -1.25,1.25c-0.69036,0 -1.25,-0.55964 -1.25,-1.25c0,-0.6418 0.48368,-1.17062 1.10641,-1.24184c-0.10827,-0.18506 -0.17033,-0.40045 -0.17033,-0.63033z" fill="#7b280f" stroke="none" stroke-width="0.5"/><path d="M349.48305,157.80543c0,-0.69036 0.55964,-1.25 1.25,-1.25c0.69036,0 1.25,0.55964 1.25,1.25c0,0.69036 -0.55964,1.25 -1.25,1.25c-0.69036,0 -1.25,-0.55964 -1.25,-1.25z" fill="#7b280f" stroke="none" stroke-width="0.5"/><path d="M371.70025,159.30316c0,-0.41421 0.33579,-0.75 0.75,-0.75c0.07221,0 0.14204,0.01021 0.20812,0.02925c-0.09419,-0.17568 -0.1476,-0.37649 -0.1476,-0.58977c0,-0.69036 0.55964,-1.25 1.25,-1.25c0.69036,0 1.25,0.55964 1.25,1.25c0,0.69036 -0.55964,1.25 -1.25,1.25c-0.21328,0 -0.41409,-0.05342 -0.58977,-0.1476c0.01905,0.06608 0.02925,0.13591 0.02925,0.20812c0,0.41421 -0.33579,0.75 -0.75,0.75c-0.41421,0 -0.75,-0.33579 -0.75,-0.75z" fill="#7b280f" stroke="none" stroke-width="0.5"/><path d="M277.96607,174.28055c0,-0.69036 0.55964,-1.25 1.25,-1.25c0.69036,0 1.25,0.55964 1.25,1.25c0,0.69036 -0.55964,1.25 -1.25,1.25c-0.69036,0 -1.25,-0.55964 -1.25,-1.25z" fill="#973007" stroke="none" stroke-width="0.5"/><path d="M290.88406,175.21662c0,-0.69036 0.55964,-1.25 1.25,-1.25c0.69036,0 1.25,0.55964 1.25,1.25c0,0.69036 -0.55964,1.25 -1.25,1.25c-0.69036,0 -1.25,-0.55964 -1.25,-1.25z" fill="#973007" stroke="none" stroke-width="0.5"/><path d="M336.2568,170.53619c0,0.69036 -0.55964,1.25 -1.25,1.25c-0.12357,0 -0.24295,-0.01793 -0.35569,-0.05133c-0.23176,0.1133 -0.49226,0.1769 -0.76762,0.1769c-0.28397,0 -0.55214,-0.06764 -0.78928,-0.18767c-0.29192,-0.00661 -0.56619,-0.08471 -0.80599,-0.21747c0.14133,0.20252 0.22423,0.44885 0.22423,0.71454c0,0.69036 -0.55964,1.25 -1.25,1.25c-0.31562,0 -0.60393,-0.11698 -0.82392,-0.30995c-0.09203,0.59961 -0.61012,1.05882 -1.23547,1.05882c-0.69036,0 -1.25,-0.55964 -1.25,-1.25c0,-0.69036 0.55964,-1.25 1.25,-1.25c0.31562,0 0.60393,0.11698 0.82392,0.30995c0.01877,-0.12233 0.05528,-0.23881 0.10682,-0.34675c-0.7839,-0.17346 -1.37022,-0.8726 -1.37022,-1.70868c0,-0.9665 0.7835,-1.75 1.75,-1.75c0.5216,0 0.98991,0.2282 1.31052,0.59021c0.32061,-0.36201 0.78892,-0.59021 1.31052,-0.59021c0.28397,0 0.55214,0.06764 0.78928,0.18767c0.66196,0.015 1.23316,0.39757 1.5175,0.9516c0.4761,0.17656 0.81539,0.63485 0.81539,1.17238z" fill="#973007" stroke="none" stroke-width="0.5"/><path d="M349.60974,175.27715c0.69036,0 1.25,0.55964 1.25,1.25c0,0.69036 -0.55964,1.25 -1.25,1.25c-0.20299,0 -0.39468,-0.04839 -0.56416,-0.13425c-0.20426,0.41238 -0.62942,0.6959 -1.12079,0.6959c-0.69036,0 -1.25,-0.55964 -1.25,-1.25c0,-0.69036 0.55964,-1.25 1.25,-1.25c0.20299,0 0.39468,0.04839 0.56416,0.13425c0.20426,-0.41238 0.62942,-0.6959 1.12079,-0.6959z" fill="#973007" stroke="none" stroke-width="0.5"/><path d="M371.38746,175.21662c0,-0.69036 0.55964,-1.25 1.25,-1.25c0.69036,0 1.25,0.55964 1.25,1.25c0,0.69036 -0.55964,1.25 -1.25,1.25c-0.69036,0 -1.25,-0.55964 -1.25,-1.25z" fill="#973007" stroke="none" stroke-width="0.5"/><path d="M376.44233,177.27602c0,-0.69036 0.55964,-1.25 1.25,-1.25c0.69036,0 1.25,0.55964 1.25,1.25c0,0.69036 -0.55964,1.25 -1.25,1.25c-0.69036,0 -1.25,-0.55964 -1.25,-1.25z" fill="#973007" stroke="none" stroke-width="0.5"/><path d="M376.62955,169.97454c0,-0.69036 0.55964,-1.25 1.25,-1.25c0.69036,0 1.25,0.55964 1.25,1.25c0,0.69036 -0.55964,1.25 -1.25,1.25c-0.69036,0 -1.25,-0.55964 -1.25,-1.25z" fill="#973007" stroke="none" stroke-width="0.5"/><path d="M275.47059,138.14761c0,-0.41421 0.33579,-0.75 0.75,-0.75c0.41421,0 0.75,0.33579 0.75,0.75c0,0.41421 -0.33579,0.75 -0.75,0.75c-0.41421,0 -0.75,-0.33579 -0.75,-0.75z" fill="#671d06" stroke="none" stroke-width="0.5"/><path d="M279.77659,137.39874c0,-0.41421 0.33579,-0.75 0.75,-0.75c0.41421,0 0.75,0.33579 0.75,0.75c0,0.41421 -0.33579,0.75 -0.75,0.75c-0.41421,0 -0.75,-0.33579 -0.75,-0.75z" fill="#671d06" stroke="none" stroke-width="0.5"/><path d="M285.20589,140.76865c0,-0.41421 0.33579,-0.75 0.75,-0.75c0.41421,0 0.75,0.33579 0.75,0.75c0,0.41421 -0.33579,0.75 -0.75,0.75c-0.41421,0 -0.75,-0.33579 -0.75,-0.75z" fill="#671d06" stroke="none" stroke-width="0.5"/><path d="M336.31619,141.14309c0,-0.41421 0.33579,-0.75 0.75,-0.75c0.41421,0 0.75,0.33579 0.75,0.75c0,0.41421 -0.33579,0.75 -0.75,0.75c-0.41421,0 -0.75,-0.33579 -0.75,-0.75z" fill="#671d06" stroke="none" stroke-width="0.5"/><path d="M344.74097,137.77317c0,-0.41421 0.33579,-0.75 0.75,-0.75c0.41421,0 0.75,0.33579 0.75,0.75c0,0.41421 -0.33579,0.75 -0.75,0.75c-0.41421,0 -0.75,-0.33579 -0.75,-0.75z" fill="#671d06" stroke="none" stroke-width="0.5"/><path d="M352.97852,140.76865c0,-0.41421 0.33579,-0.75 0.75,-0.75c0.41421,0 0.75,0.33579 0.75,0.75c0,0.41421 -0.33579,0.75 -0.75,0.75c-0.41421,0 -0.75,-0.33579 -0.75,-0.75z" fill="#671d06" stroke="none" stroke-width="0.5"/><path d="M359.71834,143.76412c0,-0.41421 0.33579,-0.75 0.75,-0.75c0.41421,0 0.75,0.33579 0.75,0.75c0,0.41421 -0.33579,0.75 -0.75,0.75c-0.41421,0 -0.75,-0.33579 -0.75,-0.75z" fill="#671d06" stroke="none" stroke-width="0.5"/><path d="M275.09616,160.05204c0,-0.41421 0.33579,-0.75 0.75,-0.75c0.41421,0 0.75,0.33579 0.75,0.75c0,0.41421 -0.33579,0.75 -0.75,0.75c-0.41421,0 -0.75,-0.33579 -0.75,-0.75z" fill="#7b280f" stroke="none" stroke-width="0.5"/><path d="M279.77659,156.86933c0,-0.41421 0.33579,-0.75 0.75,-0.75c0.41421,0 0.75,0.33579 0.75,0.75c0,0.41421 -0.33579,0.75 -0.75,0.75c-0.41421,0 -0.75,-0.33579 -0.75,-0.75z" fill="#7b280f" stroke="none" stroke-width="0.5"/><path d="M285.39311,163.0475c0,-0.41421 0.33579,-0.75 0.75,-0.75c0.41421,0 0.75,0.33579 0.75,0.75c0,0.41421 -0.33579,0.75 -0.75,0.75c-0.41421,0 -0.75,-0.33579 -0.75,-0.75z" fill="#7b280f" stroke="none" stroke-width="0.5"/><path d="M336.87784,162.67308c0,-0.41421 0.33579,-0.75 0.75,-0.75c0.41421,0 0.75,0.33579 0.75,0.75c0,0.41421 -0.33579,0.75 -0.75,0.75c-0.41421,0 -0.75,-0.33579 -0.75,-0.75z" fill="#7b280f" stroke="none" stroke-width="0.5"/><path d="M341.74549,157.80543c0,-0.41421 0.33579,-0.75 0.75,-0.75c0.41421,0 0.75,0.33579 0.75,0.75c0,0.41421 -0.33579,0.75 -0.75,0.75c-0.41421,0 -0.75,-0.33579 -0.75,-0.75z" fill="#7b280f" stroke="none" stroke-width="0.5"/><path d="M347.73644,160.23925c0,-0.41421 0.33579,-0.75 0.75,-0.75c0.41421,0 0.75,0.33579 0.75,0.75c0,0.41421 -0.33579,0.75 -0.75,0.75c-0.41421,0 -0.75,-0.33579 -0.75,-0.75z" fill="#7b280f" stroke="none" stroke-width="0.5"/><path d="M361.02886,164.35802c0,-0.41421 0.33579,-0.75 0.75,-0.75c0.41421,0 0.75,0.33579 0.75,0.75c0,0.41421 -0.33579,0.75 -0.75,0.75c-0.41421,0 -0.75,-0.33579 -0.75,-0.75z" fill="#7b280f" stroke="none" stroke-width="0.5"/><path d="M287.40158,178.58653c0,-0.41421 0.33579,-0.75 0.75,-0.75c0.41421,0 0.75,0.33579 0.75,0.75c0,0.41421 -0.33579,0.75 -0.75,0.75c-0.41421,0 -0.75,-0.33579 -0.75,-0.75z" fill="#973007" stroke="none" stroke-width="0.5"/><path d="M314.36086,180.64593c0,-0.41421 0.33579,-0.75 0.75,-0.75c0.41421,0 0.75,0.33579 0.75,0.75c0,0.41421 -0.33579,0.75 -0.75,0.75c-0.41421,0 -0.75,-0.33579 -0.75,-0.75z" fill="#973007" stroke="none" stroke-width="0.5"/><path d="M323.72172,182.33088c0,-0.41421 0.33579,-0.75 0.75,-0.75c0.41421,0 0.75,0.33579 0.75,0.75c0,0.41421 -0.33579,0.75 -0.75,0.75c-0.41421,0 -0.75,-0.33579 -0.75,-0.75z" fill="#973007" stroke="none" stroke-width="0.5"/><path d="M344.87727,180.83315c0,-0.41421 0.33579,-0.75 0.75,-0.75c0.41421,0 0.75,0.33579 0.75,0.75c0,0.41421 -0.33579,0.75 -0.75,0.75c-0.41421,0 -0.75,-0.33579 -0.75,-0.75z" fill="#973007" stroke="none" stroke-width="0.5"/><path d="M372.21099,177.83767c0,-0.41421 0.33579,-0.75 0.75,-0.75c0.41421,0 0.75,0.33579 0.75,0.75c0,0.41421 -0.33579,0.75 -0.75,0.75c-0.41421,0 -0.75,-0.33579 -0.75,-0.75z" fill="#973007" stroke="none" stroke-width="0.5"/></g><path d="" fill="none" stroke="#000000" stroke-width="2" stroke-linecap="round"/><path d="M307.42169,157.08132c0,-6.39885 5.18729,-11.58616 11.58615,-11.58616c6.39885,0 10.68833,8.18007 10.68833,14.57893c0,6.39885 -4.28947,10.08978 -10.68833,10.08978c-6.39885,0 -11.58615,-6.68368 -11.58615,-13.08254z" fill="#000000" stroke="#000000" stroke-width="0" stroke-linecap="butt"/><path d="M343.27603,206.80121l19.84503,-14.22851l10.29695,3.18269l-17.78564,12.54355z" fill="#000000" stroke="#000000" stroke-width="2" stroke-linecap="round"/></g></g></svg>