<svg version="1.1" xmlns="http://www.w3.org/2000/svg" xmlns:xlink="http://www.w3.org/1999/xlink" width="213.18203" height="280.18476" viewBox="0,0,213.18203,280.18476"><defs><linearGradient x1="393.43728" y1="77.60365" x2="381.05992" y2="114.754" gradientUnits="userSpaceOnUse" id="color-1"><stop offset="0" stop-color="#000000" stop-opacity="0"/><stop offset="1" stop-color="#000000" stop-opacity="0.12941"/></linearGradient><linearGradient x1="257.74936" y1="67.21499" x2="260.9567" y2="106.2414" gradientUnits="userSpaceOnUse" id="color-2"><stop offset="0" stop-color="#000000" stop-opacity="0"/><stop offset="1" stop-color="#000000" stop-opacity="0.12941"/></linearGradient></defs><g transform="translate(-214.52362,-38.88751)"><g stroke-miterlimit="10"><g stroke-linecap="butt"><g><path d="M286.35186,319.07226l15.14285,-131.8421l37.78325,-0.15789l13.57389,132z" fill="#ffffff" stroke="#000000" stroke-width="0"/><path d="M295.03756,243.4497c2.31163,-20.12635 6.45715,-56.21953 6.45715,-56.21953l37.78325,-0.15789c0,0 3.72623,36.23595 5.80113,56.41339c0.06797,0.66099 -50.13384,0.76769 -50.04153,-0.03597z" fill="#c5c5c5" stroke="#000000" stroke-width="0"/><path d="M296.28412,232.59645c2.01457,-17.53997 5.21059,-45.36629 5.21059,-45.36629l37.78325,-0.15789c0,0 4.66307,45.11419 4.71681,45.63673c0.00337,0.03279 -47.73775,0.12343 -47.71065,-0.11255z" fill="#7e7e7e" stroke="#000000" stroke-width="0"/><path d="M297.74772,219.85353c1.58763,-13.82276 3.74699,-32.62337 3.74699,-32.62337l37.78325,-0.15789c0,0 1.95261,18.98827 3.38375,32.9055c0.00712,0.06919 -44.92683,-0.01249 -44.91399,-0.12423z" fill="#424242" stroke="#000000" stroke-width="0"/><path d="M297.5,220.16667c0,-0.9665 0.7835,-1.75 1.75,-1.75c0.9665,0 1.75,0.7835 1.75,1.75c0,0.9665 -0.7835,1.75 -1.75,1.75c-0.9665,0 -1.75,-0.7835 -1.75,-1.75z" fill="#424242" stroke="none" stroke-width="0.5"/><path d="M306.91667,217.75c0.9665,0 1.75,0.7835 1.75,1.75c0,0.9665 -0.7835,1.75 -1.75,1.75c-0.3017,0 -0.58556,-0.07635 -0.83333,-0.21077c-0.24777,0.13442 -0.53163,0.21077 -0.83333,0.21077c-0.9665,0 -1.75,-0.7835 -1.75,-1.75c0,-0.9665 0.7835,-1.75 1.75,-1.75c0.3017,0 0.58556,0.07635 0.83333,0.21077c0.24777,-0.13442 0.53163,-0.21077 0.83333,-0.21077z" fill="#424242" stroke="none" stroke-width="0.5"/><path d="M308.5,220.66667c0,-0.53086 0.33092,-0.98441 0.79772,-1.16566c0.26193,-0.63635 0.88812,-1.08434 1.61894,-1.08434c0.41516,0 0.79655,0.14456 1.09658,0.3861c0.20911,-0.21861 0.49678,-0.36146 0.81767,-0.3832c0.22793,-0.10871 0.48307,-0.16956 0.75242,-0.16956c0.61869,0 1.16238,0.32105 1.47358,0.80564c0.19664,-0.75131 0.88013,-1.30564 1.69308,-1.30564c0.9665,0 1.75,0.7835 1.75,1.75c0,0.9665 -0.7835,1.75 -1.75,1.75c-0.61869,0 -1.16238,-0.32105 -1.47358,-0.80564c-0.19664,0.75131 -0.88013,1.30564 -1.69308,1.30564c-0.49626,0 -0.94428,-0.20656 -1.26275,-0.5384c-0.31903,0.42793 -0.82911,0.70506 -1.40392,0.70506c-0.22382,0 -0.43782,-0.04201 -0.63455,-0.11859c-0.16145,0.07606 -0.34182,0.11859 -0.53212,0.11859c-0.69036,0 -1.25,-0.55964 -1.25,-1.25z" fill="#424242" stroke="none" stroke-width="0.5"/><path d="M332.91667,217.41667c0.9665,0 1.75,0.7835 1.75,1.75c0,0.9665 -0.7835,1.75 -1.75,1.75c-0.58936,0 -1.11067,-0.29134 -1.42777,-0.73785c-0.44514,0.90452 -1.57223,0.90452 -1.57223,0.90452h-2.5c0,0 -0.86581,0 -1.37944,-0.609c-0.31412,0.46781 -0.84806,0.77567 -1.4539,0.77567c-0.48967,0 -0.93237,-0.20111 -1.25,-0.52525c-0.31763,0.32414 -0.76033,0.52525 -1.25,0.52525c-0.9665,0 -1.75,-0.7835 -1.75,-1.75c0,-0.9665 0.7835,-1.75 1.75,-1.75c0.48967,0 0.93237,0.20111 1.25,0.52525c0.31763,-0.32414 0.76033,-0.52525 1.25,-0.52525c0.53241,0 1.00929,0.23775 1.33026,0.61289c0.48235,-0.77955 1.50308,-0.77955 1.50308,-0.77955h2.5c0,0 0.97758,0 1.47143,0.73064c0.29928,-0.53536 0.87165,-0.89731 1.52857,-0.89731z" fill="#424242" stroke="none" stroke-width="0.5"/><path d="M338.83334,221.16667c0,0.69036 -0.55964,1.25 -1.25,1.25c-0.54428,0 -1.0073,-0.34785 -1.17889,-0.83337c-0.96087,-0.00657 -1.73778,-0.78753 -1.73778,-1.74995c0,-0.9665 0.7835,-1.75 1.75,-1.75c0.72825,0 1.35259,0.44482 1.61616,1.07759c0.15789,-0.80422 0.86669,-1.41092 1.71717,-1.41092c0.3841,0 0.73931,0.12375 1.02792,0.33355c0.95362,0.01492 1.72208,0.79261 1.72208,1.74979c0,0.9665 -0.7835,1.75 -1.75,1.75c-0.3841,0 -0.73931,-0.12375 -1.02792,-0.33356c-0.33122,-0.00518 -0.6401,-0.10237 -0.9022,-0.26715c0.00887,0.06006 0.01345,0.12151 0.01345,0.18403z" fill="#424242" stroke="none" stroke-width="0.5"/><path d="M296.66667,232.83334c0,-0.9665 0.7835,-1.75 1.75,-1.75c0.9665,0 1.75,0.7835 1.75,1.75c0,0.9665 -0.7835,1.75 -1.75,1.75c-0.9665,0 -1.75,-0.7835 -1.75,-1.75z" fill="#7e7e7e" stroke="none" stroke-width="0.5"/><path d="M300.66667,232.16667c0,-0.9665 0.7835,-1.75 1.75,-1.75c0.9665,0 1.75,0.7835 1.75,1.75c0,0.9665 -0.7835,1.75 -1.75,1.75c-0.9665,0 -1.75,-0.7835 -1.75,-1.75z" fill="#7e7e7e" stroke="none" stroke-width="0.5"/><path d="M310.08333,230.25c0.9665,0 1.75,0.7835 1.75,1.75c0,0.9665 -0.7835,1.75 -1.75,1.75c-0.60339,0 -1.13547,-0.30538 -1.45009,-0.77001c-0.29284,0.5569 -0.87703,0.93668 -1.54991,0.93668c-0.9665,0 -1.75,-0.7835 -1.75,-1.75c0,-0.9665 0.7835,-1.75 1.75,-1.75c0.60339,0 1.13546,0.30538 1.45008,0.77002c0.29284,-0.5569 0.87703,-0.93668 1.54992,-0.93668z" fill="#7e7e7e" stroke="none" stroke-width="0.5"/><path d="M314.33333,232.83334c0,-0.9665 0.7835,-1.75 1.75,-1.75c0.9665,0 1.75,0.7835 1.75,1.75c0,0.9665 -0.7835,1.75 -1.75,1.75c-0.9665,0 -1.75,-0.7835 -1.75,-1.75z" fill="#7e7e7e" stroke="none" stroke-width="0.5"/><path d="M322.16667,232.83334c0,-0.9665 0.7835,-1.75 1.75,-1.75c0.9665,0 1.75,0.7835 1.75,1.75c0,0.9665 -0.7835,1.75 -1.75,1.75c-0.9665,0 -1.75,-0.7835 -1.75,-1.75z" fill="#7e7e7e" stroke="none" stroke-width="0.5"/><path d="M327.83333,232.66667c0,-0.9665 0.7835,-1.75 1.75,-1.75c0.9665,0 1.75,0.7835 1.75,1.75c0,0.9665 -0.7835,1.75 -1.75,1.75c-0.9665,0 -1.75,-0.7835 -1.75,-1.75z" fill="#7e7e7e" stroke="none" stroke-width="0.5"/><path d="M331.5,232.66667c0,-0.9665 0.7835,-1.75 1.75,-1.75c0.9665,0 1.75,0.7835 1.75,1.75c0,0.9665 -0.7835,1.75 -1.75,1.75c-0.9665,0 -1.75,-0.7835 -1.75,-1.75z" fill="#7e7e7e" stroke="none" stroke-width="0.5"/><path d="M341.75,230.91667c0.9665,0 1.75,0.7835 1.75,1.75c0,0.9665 -0.7835,1.75 -1.75,1.75c-0.14358,0 -0.28313,-0.01729 -0.41667,-0.0499c-0.13353,0.03261 -0.27308,0.0499 -0.41667,0.0499c-0.4482,0 -0.85706,-0.1685 -1.16667,-0.44561c-0.30961,0.27711 -0.71846,0.44561 -1.16667,0.44561c-0.2684,0 -0.52269,-0.06042 -0.75,-0.16841c-0.22731,0.10799 -0.4816,0.16841 -0.75,0.16841c-0.9665,0 -1.75,-0.7835 -1.75,-1.75c0,-0.9665 0.7835,-1.75 1.75,-1.75c0.2684,0 0.52269,0.06042 0.75,0.16841c0.22731,-0.10799 0.4816,-0.16841 0.75,-0.16841c0.4482,0 0.85706,0.1685 1.16667,0.44561c0.30961,-0.27711 0.71846,-0.44561 1.16667,-0.44561c0.14358,0 0.28313,0.0173 0.41667,0.04991c0.13353,-0.03261 0.27308,-0.04991 0.41667,-0.04991z" fill="#7e7e7e" stroke="none" stroke-width="0.5"/><path d="M317.83333,233c0,-0.9665 0.7835,-1.75 1.75,-1.75c0.9665,0 1.75,0.7835 1.75,1.75c0,0.9665 -0.7835,1.75 -1.75,1.75c-0.9665,0 -1.75,-0.7835 -1.75,-1.75z" fill="#7e7e7e" stroke="none" stroke-width="0.5"/><path d="M294.83333,244c0,-0.9665 0.7835,-1.75 1.75,-1.75c0.9665,0 1.75,0.7835 1.75,1.75c0,0.9665 -0.7835,1.75 -1.75,1.75c-0.9665,0 -1.75,-0.7835 -1.75,-1.75z" fill="#c5c5c5" stroke="none" stroke-width="0.5"/><path d="M341.33334,244.16667c0,-0.9665 0.7835,-1.75 1.75,-1.75c0.9665,0 1.75,0.7835 1.75,1.75c0,0.9665 -0.7835,1.75 -1.75,1.75c-0.9665,0 -1.75,-0.7835 -1.75,-1.75z" fill="#c5c5c5" stroke="none" stroke-width="0.5"/><path d="M335.33333,244c0,-0.9665 0.7835,-1.75 1.75,-1.75c0.37181,0 0.71654,0.11595 1,0.31367c0.28346,-0.19772 0.62819,-0.31367 1,-0.31367c0.9665,0 1.75,0.7835 1.75,1.75c0,0.9665 -0.7835,1.75 -1.75,1.75c-0.37181,0 -0.71654,-0.11595 -1,-0.31367c-0.28346,0.19772 -0.62819,0.31367 -1,0.31367c-0.9665,0 -1.75,-0.7835 -1.75,-1.75z" fill="#c5c5c5" stroke="none" stroke-width="0.5"/><path d="M331.66667,244.33334c0,-0.9665 0.7835,-1.75 1.75,-1.75c0.9665,0 1.75,0.7835 1.75,1.75c0,0.9665 -0.7835,1.75 -1.75,1.75c-0.9665,0 -1.75,-0.7835 -1.75,-1.75z" fill="#c5c5c5" stroke="none" stroke-width="0.5"/><path d="M326.66667,244.33334c0,-0.9665 0.7835,-1.75 1.75,-1.75c0.9665,0 1.75,0.7835 1.75,1.75c0,0.9665 -0.7835,1.75 -1.75,1.75c-0.9665,0 -1.75,-0.7835 -1.75,-1.75z" fill="#c5c5c5" stroke="none" stroke-width="0.5"/><path d="M319.67271,243.68801c0.14533,-1.74395 1.88929,-1.59862 1.88929,-1.59862l2,0.16666c0,0 1.74395,0.14533 1.59862,1.88929c-0.14533,1.74395 -1.88928,1.59862 -1.88928,1.59862l-2,-0.16666c0,0 -1.74396,-0.14533 -1.59863,-1.88929z" fill="#c5c5c5" stroke="none" stroke-width="0.5"/><path d="M306.91667,241.91667c0.24572,0 0.47962,0.05065 0.69182,0.14207c0.24705,-0.66682 0.88878,-1.14207 1.64152,-1.14207c0.58252,0 1.09858,0.28462 1.41667,0.72239c0.31809,-0.43777 0.83414,-0.72239 1.41667,-0.72239c0.53935,0 1.02171,0.24399 1.34273,0.62762c0.20294,-0.08229 0.42481,-0.12762 0.65727,-0.12762c0.9665,0 1.75,0.7835 1.75,1.75c0,0.9665 -0.7835,1.75 -1.75,1.75c-0.53935,0 -1.02171,-0.24399 -1.34273,-0.62762c-0.20294,0.08229 -0.42481,0.12762 -0.65727,0.12762c-0.58252,0 -1.09858,-0.28462 -1.41667,-0.72239c-0.31809,0.43777 -0.83414,0.72239 -1.41667,0.72239c-0.24572,0 -0.47962,-0.05065 -0.69182,-0.14207c-0.24705,0.66682 -0.88878,1.14207 -1.64152,1.14207c-0.79836,0 -1.47185,-0.5346 -1.68202,-1.26535c-0.30771,0.26902 -0.71048,0.43202 -1.15131,0.43202c-0.3017,0 -0.58556,-0.07635 -0.83333,-0.21077c-0.24777,0.13442 -0.53163,0.21077 -0.83333,0.21077c-0.21569,0 -0.42227,-0.03903 -0.61306,-0.1104c-0.29161,0.56074 -0.87788,0.94373 -1.55361,0.94373c-0.9665,0 -1.75,-0.7835 -1.75,-1.75c0,-0.9665 0.7835,-1.75 1.75,-1.75c0.21569,0 0.42227,0.03903 0.61306,0.1104c0.29161,-0.56074 0.87788,-0.94373 1.55361,-0.94373c0.3017,0 0.58556,0.07635 0.83333,0.21077c0.24777,-0.13442 0.53163,-0.21077 0.83333,-0.21077c0.79836,0 1.47185,0.5346 1.68202,1.26535c0.30771,-0.26902 0.71048,-0.43202 1.15131,-0.43202z" fill="#c5c5c5" stroke="none" stroke-width="0.5"/><path d="M301.66667,224.83334c0,-0.69036 0.55964,-1.25 1.25,-1.25c0.69036,0 1.25,0.55964 1.25,1.25c0,0.69036 -0.55964,1.25 -1.25,1.25c-0.69036,0 -1.25,-0.55964 -1.25,-1.25z" fill="#424242" stroke="none" stroke-width="0.5"/><path d="M316.16667,222.66667c0,-0.69036 0.55964,-1.25 1.25,-1.25c0.69036,0 1.25,0.55964 1.25,1.25c0,0.69036 -0.55964,1.25 -1.25,1.25c-0.69036,0 -1.25,-0.55964 -1.25,-1.25z" fill="#424242" stroke="none" stroke-width="0.5"/><path d="M319.16667,223.83334c0,-0.69036 0.55964,-1.25 1.25,-1.25c0.69036,0 1.25,0.55964 1.25,1.25c0,0.69036 -0.55964,1.25 -1.25,1.25c-0.69036,0 -1.25,-0.55964 -1.25,-1.25z" fill="#424242" stroke="none" stroke-width="0.5"/><path d="M324.66667,225.5c0,-0.69036 0.55964,-1.25 1.25,-1.25c0.69036,0 1.25,0.55964 1.25,1.25c0,0.69036 -0.55964,1.25 -1.25,1.25c-0.69036,0 -1.25,-0.55964 -1.25,-1.25z" fill="#424242" stroke="none" stroke-width="0.5"/><path d="M327.5,225.33334c0,-0.69036 0.55964,-1.25 1.25,-1.25c0.69036,0 1.25,0.55964 1.25,1.25c0,0.69036 -0.55964,1.25 -1.25,1.25c-0.69036,0 -1.25,-0.55964 -1.25,-1.25z" fill="#424242" stroke="none" stroke-width="0.5"/><path d="M331.83333,223.33334c0,-0.69036 0.55964,-1.25 1.25,-1.25c0.69036,0 1.25,0.55964 1.25,1.25c0,0.69036 -0.55964,1.25 -1.25,1.25c-0.69036,0 -1.25,-0.55964 -1.25,-1.25z" fill="#424242" stroke="none" stroke-width="0.5"/><path d="M299.33333,238.33334c0,-0.69036 0.55964,-1.25 1.25,-1.25c0.69036,0 1.25,0.55964 1.25,1.25c0,0.69036 -0.55964,1.25 -1.25,1.25c-0.69036,0 -1.25,-0.55964 -1.25,-1.25z" fill="#7e7e7e" stroke="none" stroke-width="0.5"/><path d="M312.33333,234.33334c0,-0.69036 0.55964,-1.25 1.25,-1.25c0.69036,0 1.25,0.55964 1.25,1.25c0,0.69036 -0.55964,1.25 -1.25,1.25c-0.69036,0 -1.25,-0.55964 -1.25,-1.25z" fill="#7e7e7e" stroke="none" stroke-width="0.5"/><path d="M318,233.66667c0,-0.69036 0.55964,-1.25 1.25,-1.25c0.69036,0 1.25,0.55964 1.25,1.25c0,0.69036 -0.55964,1.25 -1.25,1.25c-0.69036,0 -1.25,-0.55964 -1.25,-1.25z" fill="#7e7e7e" stroke="none" stroke-width="0.5"/><path d="M325.5,236.33334c0,-0.69036 0.55964,-1.25 1.25,-1.25c0.69036,0 1.25,0.55964 1.25,1.25c0,0.69036 -0.55964,1.25 -1.25,1.25c-0.69036,0 -1.25,-0.55964 -1.25,-1.25z" fill="#7e7e7e" stroke="none" stroke-width="0.5"/><path d="M336.16667,238c0,-0.69036 0.55964,-1.25 1.25,-1.25c0.69036,0 1.25,0.55964 1.25,1.25c0,0.69036 -0.55964,1.25 -1.25,1.25c-0.69036,0 -1.25,-0.55964 -1.25,-1.25z" fill="#7e7e7e" stroke="none" stroke-width="0.5"/><path d="M340,238.33334c0,-0.69036 0.55964,-1.25 1.25,-1.25c0.69036,0 1.25,0.55964 1.25,1.25c0,0.69036 -0.55964,1.25 -1.25,1.25c-0.69036,0 -1.25,-0.55964 -1.25,-1.25z" fill="#7e7e7e" stroke="none" stroke-width="0.5"/><path d="M305.5,236.66667c0,-0.69036 0.55964,-1.25 1.25,-1.25c0.69036,0 1.25,0.55964 1.25,1.25c0,0.69036 -0.55964,1.25 -1.25,1.25c-0.69036,0 -1.25,-0.55964 -1.25,-1.25z" fill="#7e7e7e" stroke="none" stroke-width="0.5"/><path d="M296.16667,249.33334c0,-0.69036 0.55964,-1.25 1.25,-1.25c0.69036,0 1.25,0.55964 1.25,1.25c0,0.69036 -0.55964,1.25 -1.25,1.25c-0.69036,0 -1.25,-0.55964 -1.25,-1.25z" fill="#c5c5c5" stroke="none" stroke-width="0.5"/><path d="M306.5,248.33334c0,-0.69036 0.55964,-1.25 1.25,-1.25c0.69036,0 1.25,0.55964 1.25,1.25c0,0.69036 -0.55964,1.25 -1.25,1.25c-0.69036,0 -1.25,-0.55964 -1.25,-1.25z" fill="#c5c5c5" stroke="none" stroke-width="0.5"/><path d="M310.83333,246.33334c0,-0.69036 0.55964,-1.25 1.25,-1.25c0.69036,0 1.25,0.55964 1.25,1.25c0,0.69036 -0.55964,1.25 -1.25,1.25c-0.69036,0 -1.25,-0.55964 -1.25,-1.25z" fill="#c5c5c5" stroke="none" stroke-width="0.5"/><path d="M317.16667,244.66667c0,-0.69036 0.55964,-1.25 1.25,-1.25c0.69036,0 1.25,0.55964 1.25,1.25c0,0.69036 -0.55964,1.25 -1.25,1.25c-0.69036,0 -1.25,-0.55964 -1.25,-1.25z" fill="#c5c5c5" stroke="none" stroke-width="0.5"/><path d="M332.33333,249.83334c0,-0.69036 0.55964,-1.25 1.25,-1.25c0.69036,0 1.25,0.55964 1.25,1.25c0,0.69036 -0.55964,1.25 -1.25,1.25c-0.69036,0 -1.25,-0.55964 -1.25,-1.25z" fill="#c5c5c5" stroke="none" stroke-width="0.5"/><path d="M341.66667,249.5c0,-0.69036 0.55964,-1.25 1.25,-1.25c0.69036,0 1.25,0.55964 1.25,1.25c0,0.69036 -0.55964,1.25 -1.25,1.25c-0.69036,0 -1.25,-0.55964 -1.25,-1.25z" fill="#c5c5c5" stroke="none" stroke-width="0.5"/><path d="M341,244.5c0,-0.69036 0.55964,-1.25 1.25,-1.25c0.69036,0 1.25,0.55964 1.25,1.25c0,0.69036 -0.55964,1.25 -1.25,1.25c-0.69036,0 -1.25,-0.55964 -1.25,-1.25z" fill="#c5c5c5" stroke="none" stroke-width="0.5"/><path d="M302.5,229.5c0,-0.41422 0.33578,-0.75 0.75,-0.75c0.41422,0 0.75,0.33578 0.75,0.75c0,0.41422 -0.33578,0.75 -0.75,0.75c-0.41422,0 -0.75,-0.33578 -0.75,-0.75z" fill="#424242" stroke="none" stroke-width="0.5"/><path d="M310.16667,226.66667c0,-0.41422 0.33578,-0.75 0.75,-0.75c0.41422,0 0.75,0.33578 0.75,0.75c0,0.41422 -0.33578,0.75 -0.75,0.75c-0.41422,0 -0.75,-0.33578 -0.75,-0.75z" fill="#424242" stroke="none" stroke-width="0.5"/><path d="M318.16667,229.33334c0,-0.41422 0.33578,-0.75 0.75,-0.75c0.41422,0 0.75,0.33578 0.75,0.75c0,0.41422 -0.33578,0.75 -0.75,0.75c-0.41422,0 -0.75,-0.33578 -0.75,-0.75z" fill="#424242" stroke="none" stroke-width="0.5"/><path d="M323.16667,230c0,-0.41422 0.33578,-0.75 0.75,-0.75c0.41422,0 0.75,0.33578 0.75,0.75c0,0.41422 -0.33578,0.75 -0.75,0.75c-0.41422,0 -0.75,-0.33578 -0.75,-0.75z" fill="#424242" stroke="none" stroke-width="0.5"/><path d="M329.66667,229.83334c0,-0.41422 0.33578,-0.75 0.75,-0.75c0.41422,0 0.75,0.33578 0.75,0.75c0,0.41422 -0.33578,0.75 -0.75,0.75c-0.41422,0 -0.75,-0.33578 -0.75,-0.75z" fill="#424242" stroke="none" stroke-width="0.5"/><path d="M341.33334,229.16667c0,-0.41422 0.33578,-0.75 0.75,-0.75c0.41422,0 0.75,0.33578 0.75,0.75c0,0.41422 -0.33578,0.75 -0.75,0.75c-0.41422,0 -0.75,-0.33578 -0.75,-0.75z" fill="#424242" stroke="none" stroke-width="0.5"/><path d="M301,242.16667c0,-0.41422 0.33578,-0.75 0.75,-0.75c0.41422,0 0.75,0.33578 0.75,0.75c0,0.41422 -0.33578,0.75 -0.75,0.75c-0.41422,0 -0.75,-0.33578 -0.75,-0.75z" fill="#7e7e7e" stroke="none" stroke-width="0.5"/><path d="M311.33333,239.83334c0,-0.41422 0.33578,-0.75 0.75,-0.75c0.41422,0 0.75,0.33578 0.75,0.75c0,0.41422 -0.33578,0.75 -0.75,0.75c-0.41422,0 -0.75,-0.33578 -0.75,-0.75z" fill="#7e7e7e" stroke="none" stroke-width="0.5"/><path d="M323.5,240c0,-0.41422 0.33578,-0.75 0.75,-0.75c0.41422,0 0.75,0.33578 0.75,0.75c0,0.41422 -0.33578,0.75 -0.75,0.75c-0.41422,0 -0.75,-0.33578 -0.75,-0.75z" fill="#7e7e7e" stroke="none" stroke-width="0.5"/><path d="M338,242.83334c0,-0.41422 0.33578,-0.75 0.75,-0.75c0.41422,0 0.75,0.33578 0.75,0.75c0,0.41422 -0.33578,0.75 -0.75,0.75c-0.41422,0 -0.75,-0.33578 -0.75,-0.75z" fill="#7e7e7e" stroke="none" stroke-width="0.5"/><path d="M300,254.66667c0,-0.41422 0.33578,-0.75 0.75,-0.75c0.41422,0 0.75,0.33578 0.75,0.75c0,0.41422 -0.33578,0.75 -0.75,0.75c-0.41422,0 -0.75,-0.33578 -0.75,-0.75z" fill="#c5c5c5" stroke="none" stroke-width="0.5"/><path d="M312.83333,250.83334c0,-0.41422 0.33578,-0.75 0.75,-0.75c0.41422,0 0.75,0.33578 0.75,0.75c0,0.41422 -0.33578,0.75 -0.75,0.75c-0.41422,0 -0.75,-0.33578 -0.75,-0.75z" fill="#c5c5c5" stroke="none" stroke-width="0.5"/><path d="M330.33333,255.66667c0,-0.41422 0.33578,-0.75 0.75,-0.75c0.41422,0 0.75,0.33578 0.75,0.75c0,0.41421 -0.33578,0.75 -0.75,0.75c-0.41422,0 -0.75,-0.33579 -0.75,-0.75z" fill="#c5c5c5" stroke="none" stroke-width="0.5"/><path d="M339.16667,255.66667c0,-0.41422 0.33578,-0.75 0.75,-0.75c0.41422,0 0.75,0.33578 0.75,0.75c0,0.41421 -0.33578,0.75 -0.75,0.75c-0.41422,0 -0.75,-0.33579 -0.75,-0.75z" fill="#c5c5c5" stroke="none" stroke-width="0.5"/></g><path d="M296.16293,233.6608c0.00584,-0.25247 -0.00434,-0.50932 -0.00434,-0.77985c0,0 0,-0.02409 0.00748,-0.05731c-0.00469,-0.1515 -0.00748,-0.29934 -0.00748,-0.44269c0,-3.07638 0.48233,-6.38564 1.07346,-9.39207c0.50942,-2.51696 0.93681,-5.70001 0.92654,-8.27459c0,0 0,-0.0363 0.01383,-0.08124c-0.00426,-0.01363 -0.00777,-0.02838 -0.01043,-0.04433c-0.0411,-0.2466 0.2055,-0.2877 0.2055,-0.2877l0.01361,-0.00227c0.8039,-0.13398 1.94832,-0.54857 3.13114,-0.9152c-0.03816,-0.08816 -0.03946,-0.18016 0.00343,-0.27561c0.2339,-0.52048 3.50469,-0.47449 4.03328,-0.47688l0.00052,0.00018v-0.00018l0.35902,-0.00012c0.00003,0 0.00006,0 0.00009,0c0.13807,0 0.25,0.11193 0.25,0.25c0,0.11246 -0.07426,0.20758 -0.17641,0.23899l-0.46887,0.15629l-0.02005,-0.06014c-0.47198,0.22753 -1.00947,0.41779 -1.58095,0.58009c0.77601,0.10237 1.53592,0.16805 2.23846,0.44374l0.0292,-0.0876l0.16982,0.05661l-0.13571,-0.17092c-0.0347,-0.04292 -0.05549,-0.09757 -0.05549,-0.15706c0,-0.13807 0.11193,-0.25 0.25,-0.25h0.5v0.0252c0.98813,-0.12584 1.99435,-0.13647 2.9884,-0.19151l0.00689,0.00191v-0.00201l0.49998,-0.00019c0.00004,0 0.00007,0 0.00011,0c0.13807,0 0.25,0.11193 0.25,0.25c0,0.11223 -0.07395,0.20718 -0.17578,0.2388l-0.46844,0.15754l-0.01918,-0.05703c-0.48424,0.23641 -1.01363,0.41452 -1.57003,0.54958c0.9708,0.31925 1.97355,0.58754 2.90575,0.9795c2.01073,0.84552 3.88519,1.61623 6.00613,2.14647c0.90029,0.22507 1.98539,0.26133 2.80812,0.68785l0.04653,-0.09305l0.32849,0.16424c0.08456,0.04009 0.14304,0.12623 0.14304,0.22603c0,0.13807 -0.11193,0.25 -0.25,0.25h-0.49139c-3.08415,0.2856 -5.96808,1.0327 -8.98953,1.68016c-2.65911,0.56981 -5.55029,1.31799 -8.28552,1.69064c2.5467,0.11538 5.08925,0.46794 7.64033,0.55874c2.3423,0.08337 4.65992,0.28959 6.99334,0.50665c0.84102,0.07823 1.79904,-0.00121 2.53038,0.36755l0.05938,-0.10434l0.2904,0.16528c0.07779,0.04238 0.13057,0.12487 0.13057,0.21968c0,0.13613 -0.1088,0.24684 -0.24418,0.24993l-0.499,0.01326c-1.22922,0.03266 -2.64356,0.51109 -3.92799,0.59684c0.50378,0.10701 1.00954,0.20896 1.51901,0.2622c2.28716,0.24075 7.14545,-0.05334 9.34601,1.2331l0.03999,-0.07997l0.32849,0.16424c0.08456,0.04009 0.14304,0.12623 0.14304,0.22603c0,0.13807 -0.11193,0.25 -0.25,0.25c-1.27778,0 -3.05556,0 -4.33333,0c-2.30033,0 -4.56189,0.49308 -6.83151,0.85622c-0.35341,0.05654 -0.8453,0.19795 -1.33397,0.28917c1.75691,0.54377 -0.90606,1.23088 -2.74348,1.62269c-3.13796,0.66407 3.02055,2.3952 5.29243,3.21986l0.02544,-0.10175l0.48,0.12c0.11133,0.02526 0.19444,0.12483 0.19444,0.2438c0,0.13807 -0.11193,0.25 -0.25,0.25c-0.44444,0 -1.38889,0 -1.83333,0c-2.12349,0 -4.19052,0.05264 -6.28034,0.49432c-0.59665,0.1261 -1.37214,0.51855 -2.07569,0.68609c1.9295,0.31326 3.85337,0.6482 5.77712,0.99782c3.44082,0.62532 6.87934,1.27532 10.33591,1.8071c2.7452,0.42234 6.6588,0.29309 9.30648,1.44917l0.01207,-0.04829l0.48,0.12c0.11133,0.02526 0.19444,0.12483 0.19444,0.2438c0,0.13807 -0.11193,0.25 -0.25,0.25h-0.5c-0.32033,-0.00066 -0.64256,-0.02324 -0.9575,-0.08173c-3.45137,-0.65665 -6.86651,-0.91827 -10.37584,-0.91827c-3.42152,0 -6.79293,-0.09906 -10.16416,0.56883c-1.52057,0.30056 -3.50811,0.13779 -4.932,0.76023c-0.36251,0.15847 0.68279,0.4145 1.05987,0.53421c0.93244,0.29602 1.85869,0.55405 2.81487,0.76677c2.65569,0.59092 6.77373,0.97886 9.19318,2.55841l0.02617,-0.05233l0.44237,0.22118c0.08456,0.04009 0.14304,0.12623 0.14304,0.22603c0,0.13807 -0.11193,0.25 -0.25,0.25h-0.5v-0.0073l-0.02448,0.0061c-2.6229,-0.5125 -5.62986,-0.33213 -8.30886,-0.33213c-2.38424,0 -4.20105,0.31891 -6.48016,0.87652c-0.36311,0.08884 -1.4293,0.37661 -2.04371,0.38495c0.65615,0.40556 1.28922,0.69047 1.80519,1.20858l0.06318,-0.06242l0.31722,0.32109c0.00003,0.00003 0.00005,0.00005 0.00008,0.00008c0.04461,0.04515 0.07216,0.10721 0.07216,0.1757c0,0.13807 -0.11193,0.25 -0.25,0.25c-0.00641,0 -0.01276,-0.00024 -0.01904,-0.00071l-0.49646,-0.03307l0.00038,-0.00571l-0.02254,0.00323c-1.8429,-0.46422 -5.42643,-0.70891 -7.28249,-0.17938c-0.15239,0.35523 -0.0891,1.43597 -0.32036,1.65458c-0.80961,0.76532 -1.09138,-1.01719 -1.09344,-1.34344c-0.012,-1.89735 0.33333,-3.67725 0.33333,-5.5c0,-2.17504 0.31047,-4.23607 0.82418,-6.32656c-0.08314,-0.04061 -0.14041,-0.126 -0.14041,-0.22476c0,-0.02228 0.00292,-0.04389 0.00839,-0.06445l0.11677,-0.48045l0.02032,0.00494c0.00717,-0.30587 0.05331,-0.59232 0.17502,-0.96212zM307.54357,214.17458c-0.12199,-0.00332 -0.24034,-0.01184 -0.35334,-0.02696c0.04512,0.01932 0.09042,0.03834 0.1359,0.05708c0.07251,-0.00977 0.14499,-0.01981 0.21744,-0.03012z" fill="#da3243" stroke="none" stroke-width="0.5"/><path d="M324.40858,219.79762c0,0 -0.25,0 -0.25,-0.25c0,-0.25 0.25,-0.25 0.25,-0.25c0.59546,0.00123 1.18996,0.05067 1.78543,0.11111c0.06897,-0.11111 0.21457,-0.11111 0.21457,-0.11111l0.35106,0.00063c0.5999,0.08467 1.57737,0.05324 2.19877,0.33211c0.03893,0.0004 0.07788,0.0006 0.11684,0.0006h0.5c0.13807,0 0.25,0.11193 0.25,0.25c0,0.13807 -0.11193,0.25 -0.25,0.25h-0.5c-1.56935,-0.00002 -3.11992,-0.33692 -4.66667,-0.33333z" fill="#da3243" stroke="none" stroke-width="0.5"/><path d="M337.50416,240.13519c-0.08668,-0.00276 -0.17406,-0.00424 -0.26225,-0.00424c0,0 -0.25,0 -0.25,-0.25c0,-0.25 0.25,-0.25 0.25,-0.25c0.60691,0 1.18886,0.07691 1.76373,0.1577c0.46653,0.00757 0.95645,0.04335 1.33389,0.16099c0.08005,0.00597 0.16023,0.01091 0.2406,0.01464h0.49512c0.13807,0 0.25,0.11193 0.25,0.25c0,0.13807 -0.11193,0.25 -0.25,0.25h-0.5v-0.00691l-0.00701,0.00681c-0.18635,-0.01192 -0.37023,-0.02908 -0.5527,-0.04941c-0.68403,0.00175 -1.35667,-0.11716 -2.10696,-0.11716h-0.16667c0,0 -0.18754,0 -0.23775,-0.16243z" fill="#da3243" stroke="none" stroke-width="0.5"/><path d="M306.65858,248.04762c0,-0.13807 0.11193,-0.25 0.25,-0.25c0.13807,0 0.25,0.11193 0.25,0.25c0,0.13807 -0.11193,0.25 -0.25,0.25c-0.13807,0 -0.25,-0.11193 -0.25,-0.25z" fill="#ff3b4e" stroke="none" stroke-width="0.5"/></g><path d="M214.52362,306.61252v-267.72501h213.18203v267.72501z" fill="none" stroke="none" stroke-width="0" stroke-linecap="butt"/><path d="" fill="none" stroke="#000000" stroke-width="0" stroke-linecap="round"/><g><g stroke-linecap="round"><path d="M343.06595,91.06298l67.0819,-26.81511l-37.53355,76.58418" fill="#a9a9a9" stroke="#000000" stroke-width="0"/><path d="M375.15957,112.78819c0,0 7.43394,-12.1974 11.53881,-17.83719c3.94839,-5.42477 12.63923,-15.38153 12.63923,-15.38153" fill="none" stroke="url(#color-1)" stroke-width="2"/></g><g stroke-linecap="round"><path d="M262.97227,133.57874l-18.28653,-83.30369l58.80182,41.96876" fill="#a9a9a9" stroke="#000000" stroke-width="0"/><path d="M251.55106,67.72439c0,0 6.07966,11.73481 8.62786,17.94163c2.6492,6.45281 6.97611,20.06597 6.97611,20.06597" fill="none" stroke="url(#color-2)" stroke-width="2"/></g><g><path d="M260.62431,153.61663c-2.72767,-33.18995 23.72437,-62.45138 59.08229,-65.35722c35.35792,-2.90585 66.2324,21.64427 68.96007,54.83422c2.72767,33.18995 -23.72436,62.45139 -59.08229,65.35723c-35.35791,2.90585 -66.2324,-21.64428 -68.96007,-54.83423z" fill="#ffffff" stroke="#000000" stroke-width="0" stroke-linecap="butt"/><g><path d="M266.27077,176.52665l6.84928,-1.02513l26.04465,24.43808l-6.89018,3.33967z" fill="#ffffff" stroke="none" stroke-width="0" stroke-linecap="round"/><path d="M295.43185,202.32644l-20.59507,10.93728l-1.33953,-16.29926l-36.20852,-18.74931l30.09216,-2.24197" fill="#ffffff" stroke="#000000" stroke-width="0" stroke-linecap="round"/><path d="M365.6146,197.25192l-7.34298,-2.16994l21.70531,-28.36235l6.92475,-0.10687z" fill="#ffffff" stroke="none" stroke-width="0" stroke-linecap="round"/><path d="M385.71611,166.24795l30.05441,-2.7011l-32.66159,24.4093l1.33953,16.29927l-22.10441,-7.42808" fill="#ffffff" stroke="#000000" stroke-width="0" stroke-linecap="round"/><path d="M262.25183,134.64075c6.40611,-24.71474 29.05833,-44.04762 57.45477,-46.38135c28.66496,-2.35579 54.38317,13.33377 64.54597,37.0428c0.07262,0.16942 -122.05084,9.53186 -122.00073,9.33854z" fill="#c5c5c5" stroke="#000000" stroke-width="0" stroke-linecap="butt"/><path d="M267.39584,121.57421c9.82303,-18.20797 29.15748,-31.41198 52.31076,-33.3148c23.51816,-1.93281 45.77179,8.89122 58.35936,25.71539c0.52462,0.70119 -110.78869,7.81919 -110.67012,7.59942z" fill="#7e7e7e" stroke="#000000" stroke-width="0" stroke-linecap="butt"/><path d="M276.74173,108.65095c10.65245,-11.31762 25.75354,-18.97705 42.96487,-20.39155c18.6923,-1.5362 36.13156,4.601 48.82152,15.63154c0.1202,0.10448 -92.03743,5.02671 -91.78639,4.76001z" fill="#424242" stroke="#000000" stroke-width="0" stroke-linecap="butt"/><path d="M276.70647,109.57916c-0.07916,-0.96325 0.63753,-1.80829 1.60078,-1.88746c0.96325,-0.07916 1.80829,0.63753 1.88746,1.60078c0.07916,0.96325 -0.63753,1.80829 -1.60078,1.88746c-0.96325,0.07916 -1.80829,-0.63753 -1.88746,-1.60078z" fill="#424242" stroke="none" stroke-width="0.5" stroke-linecap="butt"/><path d="M281.49625,108.85106c-0.07916,-0.96325 0.63753,-1.80829 1.60078,-1.88746c0.96325,-0.07916 1.80829,0.63753 1.88746,1.60078c0.07916,0.96325 -0.63753,1.80829 -1.60078,1.88746c-0.96325,0.07916 -1.80829,-0.63753 -1.88746,-1.60078z" fill="#424242" stroke="none" stroke-width="0.5" stroke-linecap="butt"/><path d="M286.96412,108.23446c-0.07916,-0.96325 0.63753,-1.80829 1.60078,-1.88746c0.96325,-0.07916 1.80829,0.63753 1.88746,1.60078c0.07916,0.96325 -0.63753,1.80829 -1.60078,1.88746c-0.96325,0.07916 -1.80829,-0.63753 -1.88746,-1.60078z" fill="#424242" stroke="none" stroke-width="0.5" stroke-linecap="butt"/><path d="M304.11068,104.23325c0.96325,-0.07916 1.80829,0.63753 1.88746,1.60078c0.07916,0.96325 -0.63753,1.80829 -1.60078,1.88746c-0.09342,0.00768 -0.18571,0.00788 -0.2763,0.00108c-0.28443,0.44314 -0.76483,0.75341 -1.33015,0.79987c-0.48802,0.04011 -0.94571,-0.12408 -1.28882,-0.42111c-0.29001,0.34907 -0.71475,0.58577 -1.20278,0.62588c-0.96325,0.07916 -1.80829,-0.63753 -1.88746,-1.60078c-0.07916,-0.96325 0.63753,-1.80829 1.60078,-1.88746c0.48802,-0.04011 0.94571,0.12408 1.28882,0.42111c0.29001,-0.34907 0.71475,-0.58577 1.20278,-0.62588c0.09342,-0.00768 0.1857,-0.00788 0.2763,-0.00108c0.28443,-0.44314 0.76484,-0.75341 1.33016,-0.79987z" fill="#424242" stroke="none" stroke-width="0.5" stroke-linecap="butt"/><path d="M320.58247,106.63132c-0.18053,1.74067 -1.9212,1.56012 -1.9212,1.56012l-2.69866,-0.2799c0,0 -0.25311,-0.02625 -0.55628,-0.15525c-0.14541,0.05353 -0.30039,0.08849 -0.46236,0.1018c-0.96325,0.07916 -1.80829,-0.63753 -1.88746,-1.60078c-0.07916,-0.96325 0.63753,-1.80829 1.60078,-1.88746c0.31061,-0.02553 0.60893,0.0317 0.87325,0.15327c0.4192,-0.13169 0.79313,-0.09292 0.79313,-0.09292l2.69865,0.2799c0,0 1.74067,0.18054 1.56012,1.92121z" fill="#424242" stroke="none" stroke-width="0.5" stroke-linecap="butt"/><path d="M325.03782,104.52013c0.96325,-0.07916 1.80829,0.63753 1.88746,1.60078c0.07916,0.96325 -0.63753,1.80829 -1.60078,1.88746c-0.54135,0.04449 -1.04538,-0.16239 -1.39709,-0.52315c-0.26377,0.21323 -0.59217,0.35219 -0.9557,0.38206c-0.96325,0.07916 -1.80829,-0.63753 -1.88746,-1.60078c-0.07916,-0.96325 0.63753,-1.80829 1.60078,-1.88746c0.54135,-0.04449 1.04538,0.16239 1.39709,0.52315c0.26377,-0.21323 0.59217,-0.35219 0.9557,-0.38206z" fill="#424242" stroke="none" stroke-width="0.5" stroke-linecap="butt"/><path d="M347.34276,104.27569c-0.07916,-0.96325 0.63753,-1.80829 1.60078,-1.88746c0.96325,-0.07916 1.80829,0.63753 1.88746,1.60078c0.07916,0.96325 -0.63753,1.80829 -1.60078,1.88746c-0.96325,0.07916 -1.80829,-0.63753 -1.88746,-1.60078z" fill="#424242" stroke="none" stroke-width="0.5" stroke-linecap="butt"/><path d="M357.84275,102.82747c0.96325,-0.07916 1.80829,0.63753 1.88746,1.60078c0.07916,0.96325 -0.63753,1.80829 -1.60078,1.88746c-0.54135,0.04449 -1.04538,-0.16239 -1.39709,-0.52315c-0.26377,0.21323 -0.59217,0.35219 -0.9557,0.38206c-0.96325,0.07916 -1.80829,-0.63753 -1.88746,-1.60078c-0.07916,-0.96325 0.63753,-1.80829 1.60078,-1.88746c0.54135,-0.04449 1.04538,0.16239 1.39709,0.52315c0.26377,-0.21323 0.59217,-0.35219 0.9557,-0.38206z" fill="#424242" stroke="none" stroke-width="0.5" stroke-linecap="butt"/><path d="M364.36186,102.79339c0.96325,-0.07916 1.80829,0.63753 1.88746,1.60078c0.07916,0.96325 -0.63753,1.80829 -1.60078,1.88746c-0.50917,0.04185 -0.98532,-0.13868 -1.33277,-0.46046c-0.24456,0.16989 -0.53578,0.27957 -0.85391,0.30572c-0.96325,0.07916 -1.80829,-0.63753 -1.88746,-1.60078c-0.07916,-0.96325 0.63753,-1.80829 1.60078,-1.88746c0.50917,-0.04185 0.98532,0.13868 1.33277,0.46046c0.24456,-0.16989 0.53579,-0.27957 0.85392,-0.30572z" fill="#424242" stroke="none" stroke-width="0.5" stroke-linecap="butt"/><path d="M306.77178,107.10828c-0.07916,-0.96325 0.63753,-1.80829 1.60078,-1.88746c0.96325,-0.07916 1.80829,0.63753 1.88746,1.60078c0.07916,0.96325 -0.63753,1.80829 -1.60078,1.88746c-0.96325,0.07916 -1.80829,-0.63753 -1.88746,-1.60078z" fill="#424242" stroke="none" stroke-width="0.5" stroke-linecap="butt"/><path d="M291.47631,108.1981c-0.07916,-0.96325 0.63753,-1.80829 1.60078,-1.88746c0.7085,-0.05823 1.35304,0.3141 1.67592,0.89841c0.0359,-0.8698 0.71536,-1.59662 1.60527,-1.66975c0.96325,-0.07916 1.80829,0.63753 1.88746,1.60078c0.07916,0.96325 -0.63753,1.80829 -1.60078,1.88746c-0.7085,0.05823 -1.35304,-0.31411 -1.67592,-0.89842c-0.0359,0.8698 -0.71536,1.59663 -1.60527,1.66976c-0.96325,0.07916 -1.80829,-0.63753 -1.88746,-1.60078z" fill="#424242" stroke="none" stroke-width="0.5" stroke-linecap="butt"/><path d="M376.08707,113.2013c0.96325,-0.07916 1.80829,0.63753 1.88746,1.60078c0.07916,0.96325 -0.63753,1.80829 -1.60078,1.88746c-0.61592,0.05062 -1.18352,-0.22415 -1.53346,-0.68072c-0.28772,0.31663 -0.69151,0.52912 -1.15155,0.56693c-0.96325,0.07916 -1.80829,-0.63753 -1.88746,-1.60078c-0.07916,-0.96325 0.63753,-1.80829 1.60078,-1.88746c0.61592,-0.05062 1.18352,0.22415 1.53346,0.68072c0.28772,-0.31662 0.69151,-0.52912 1.15155,-0.56693z" fill="#7e7e7e" stroke="none" stroke-width="0.5" stroke-linecap="butt"/><path d="M364.75656,114.71779c-0.07916,-0.96325 0.63753,-1.80829 1.60078,-1.88746c0.96325,-0.07916 1.80829,0.63753 1.88746,1.60078c0.07916,0.96325 -0.63753,1.80829 -1.60078,1.88746c-0.96325,0.07916 -1.80829,-0.63753 -1.88746,-1.60078z" fill="#7e7e7e" stroke="none" stroke-width="0.5" stroke-linecap="butt"/><path d="M359.81431,115.62565c-0.07916,-0.96325 0.63753,-1.80829 1.60078,-1.88746c0.96325,-0.07916 1.80829,0.63753 1.88746,1.60078c0.07916,0.96325 -0.63753,1.80829 -1.60078,1.88746c-0.96325,0.07916 -1.80829,-0.63753 -1.88746,-1.60078z" fill="#7e7e7e" stroke="none" stroke-width="0.5" stroke-linecap="butt"/><path d="M350.37353,116.73598c-0.07916,-0.96325 0.63753,-1.80829 1.60078,-1.88746c0.42898,-0.03526 0.83452,0.08733 1.15941,0.31926c0.25122,-0.56652 0.79621,-0.98166 1.45735,-1.036c0.96325,-0.07916 1.80829,0.63753 1.88746,1.60078c0.07916,0.96325 -0.63753,1.80829 -1.60078,1.88746c-0.42898,0.03526 -0.83452,-0.08733 -1.15939,-0.31925c-0.25122,0.56652 -0.79621,0.98165 -1.45735,1.03599c-0.96325,0.07916 -1.80829,-0.63753 -1.88746,-1.60078z" fill="#7e7e7e" stroke="none" stroke-width="0.5" stroke-linecap="butt"/><path d="M337.52871,117.1227c-0.07916,-0.96325 0.63753,-1.80829 1.60078,-1.88746c0.43068,-0.03539 0.83773,0.08831 1.16325,0.32201c0.16328,-0.06742 0.33962,-0.11106 0.52512,-0.12631c0.96325,-0.07916 1.80829,0.63753 1.88746,1.60078c0.07916,0.96325 -0.63753,1.80829 -1.60078,1.88746c-0.43068,0.03539 -0.83772,-0.08831 -1.16325,-0.32201c-0.16328,0.06742 -0.33963,0.11107 -0.52512,0.12632c-0.96325,0.07916 -1.80829,-0.63753 -1.88746,-1.60078z" fill="#7e7e7e" stroke="none" stroke-width="0.5" stroke-linecap="butt"/><path d="M326.55202,117.85759c-0.07916,-0.96325 0.63753,-1.80829 1.60078,-1.88746c0.74897,-0.06155 1.42648,0.35805 1.72805,1.0006c0.13452,-0.76479 0.77027,-1.37315 1.58043,-1.43974c0.96325,-0.07916 1.80829,0.63753 1.88746,1.60078c0.07916,0.96325 -0.63753,1.80829 -1.60078,1.88746c-0.74897,0.06155 -1.42648,-0.35805 -1.72806,-1.0006c-0.13452,0.76479 -0.77027,1.37315 -1.58043,1.43974c-0.96325,0.07916 -1.80829,-0.63753 -1.88746,-1.60078z" fill="#7e7e7e" stroke="none" stroke-width="0.5" stroke-linecap="butt"/><path d="M320.72464,118.16927c-0.07916,-0.96325 0.63753,-1.80829 1.60078,-1.88746c0.96325,-0.07916 1.80829,0.63753 1.88746,1.60078c0.07916,0.96325 -0.63753,1.80829 -1.60078,1.88746c-0.96325,0.07916 -1.80829,-0.63753 -1.88746,-1.60078z" fill="#7e7e7e" stroke="none" stroke-width="0.5" stroke-linecap="butt"/><path d="M311.58877,118.92009c-0.07916,-0.96325 0.63753,-1.80829 1.60078,-1.88746c0.96325,-0.07916 1.80829,0.63753 1.88746,1.60078c0.07916,0.96325 -0.63753,1.80829 -1.60078,1.88746c-0.96325,0.07916 -1.80829,-0.63753 -1.88746,-1.60078z" fill="#7e7e7e" stroke="none" stroke-width="0.5" stroke-linecap="butt"/><path d="M306.45311,119.50939c-0.07916,-0.96325 0.63753,-1.80829 1.60078,-1.88746c0.96325,-0.07916 1.80829,0.63753 1.88746,1.60078c0.07916,0.96325 -0.63753,1.80829 -1.60078,1.88746c-0.96325,0.07916 -1.80829,-0.63753 -1.88746,-1.60078z" fill="#7e7e7e" stroke="none" stroke-width="0.5" stroke-linecap="butt"/><path d="M301.66332,120.23749c-0.07916,-0.96325 0.63753,-1.80829 1.60078,-1.88746c0.96325,-0.07916 1.80829,0.63753 1.88746,1.60078c0.07916,0.96325 -0.63753,1.80829 -1.60078,1.88746c-0.96325,0.07916 -1.80829,-0.63753 -1.88746,-1.60078z" fill="#7e7e7e" stroke="none" stroke-width="0.5" stroke-linecap="butt"/><path d="M293.98146,120.36712c-0.07916,-0.96325 0.63753,-1.80829 1.60078,-1.88746c0.96325,-0.07916 1.80829,0.63753 1.88746,1.60078c0.07916,0.96325 -0.63753,1.80829 -1.60078,1.88746c-0.96325,0.07916 -1.80829,-0.63753 -1.88746,-1.60078z" fill="#7e7e7e" stroke="none" stroke-width="0.5" stroke-linecap="butt"/><path d="M289.26222,119.91883c-0.07916,-0.96325 0.63753,-1.80829 1.60078,-1.88746c0.96325,-0.07916 1.80829,0.63753 1.88746,1.60078c0.07916,0.96325 -0.63753,1.80829 -1.60078,1.88746c-0.96325,0.07916 -1.80829,-0.63753 -1.88746,-1.60078z" fill="#7e7e7e" stroke="none" stroke-width="0.5" stroke-linecap="butt"/><path d="M282.5497,119.63434c-0.07916,-0.96325 0.63753,-1.80829 1.60078,-1.88746c0.96325,-0.07916 1.80829,0.63753 1.88746,1.60078c0.07916,0.96325 -0.63753,1.80829 -1.60078,1.88746c-0.96325,0.07916 -1.80829,-0.63753 -1.88746,-1.60078z" fill="#7e7e7e" stroke="none" stroke-width="0.5" stroke-linecap="butt"/><path d="M277.78721,120.69466c-0.07916,-0.96325 0.63753,-1.80829 1.60078,-1.88746c0.96325,-0.07916 1.80829,0.63753 1.88746,1.60078c0.07916,0.96325 -0.63753,1.80829 -1.60078,1.88746c-0.96325,0.07916 -1.80829,-0.63753 -1.88746,-1.60078z" fill="#7e7e7e" stroke="none" stroke-width="0.5" stroke-linecap="butt"/><path d="M272.25906,119.56031c0.76929,-0.06322 1.46317,0.38116 1.75175,1.05334c0.26147,-0.53799 0.79222,-0.92796 1.43158,-0.9805c0.96325,-0.07916 1.80829,0.63753 1.88746,1.60078c0.07916,0.96325 -0.63753,1.80829 -1.60078,1.88746c-0.76929,0.06322 -1.46317,-0.38116 -1.75175,-1.05334c-0.02404,0.04948 -0.05037,0.09769 -0.07884,0.14451c-0.28117,0.46234 -0.77217,0.78829 -1.35274,0.836c-0.57168,0.04698 -1.10173,-0.18637 -1.45475,-0.58521c-0.22234,0.63076 -0.79819,1.10482 -1.50787,1.16314c-0.96325,0.07916 -1.80829,-0.63753 -1.88746,-1.60078c-0.07916,-0.96325 0.63753,-1.80829 1.60078,-1.88746c0.57168,-0.04698 1.10173,0.18637 1.45475,0.58521c0.22234,-0.63076 0.79819,-1.10482 1.50787,-1.16314z" fill="#7e7e7e" stroke="none" stroke-width="0.5" stroke-linecap="butt"/><path d="M270.8186,132.55529c0.96325,-0.07916 1.80829,0.63753 1.88746,1.60078c0.07916,0.96325 -0.63753,1.80829 -1.60078,1.88746c-0.58056,0.04771 -1.1182,-0.19368 -1.47108,-0.60393c-0.28116,0.46235 -0.77217,0.78829 -1.35274,0.836c-0.77723,0.06388 -1.4775,-0.39039 -1.76058,-1.07427c-0.16763,0.72091 -0.78432,1.28341 -1.56156,1.34729c-0.96325,0.07916 -1.80829,-0.63753 -1.88746,-1.60078c-0.07916,-0.96325 0.63753,-1.80829 1.60078,-1.88746c0.77723,-0.06388 1.4775,0.3904 1.76058,1.07428c0.16763,-0.72091 0.78432,-1.28342 1.56156,-1.3473c0.58056,-0.04771 1.1182,0.19368 1.47108,0.60393c0.28116,-0.46235 0.77217,-0.78829 1.35274,-0.836z" fill="#c5c5c5" stroke="none" stroke-width="0.5" stroke-linecap="butt"/><path d="M276.12036,131.95234c0.96325,-0.07916 1.80829,0.63753 1.88746,1.60078c0.07686,0.93525 -0.59653,1.75906 -1.5174,1.87863c-0.21782,0.1264 -0.46647,0.20753 -0.73416,0.22953c-0.96325,0.07916 -1.80829,-0.63753 -1.88746,-1.60078c-0.07686,-0.93525 0.59653,-1.75905 1.51741,-1.87862c0.21782,-0.1264 0.46647,-0.20754 0.73416,-0.22954z" fill="#c5c5c5" stroke="none" stroke-width="0.5" stroke-linecap="butt"/><path d="M311.39526,130.80922c-0.07916,-0.96325 0.63753,-1.80829 1.60078,-1.88746c0.96325,-0.07916 1.80829,0.63753 1.88746,1.60078c0.07916,0.96325 -0.63753,1.80829 -1.60078,1.88746c-0.96325,0.07916 -1.80829,-0.63753 -1.88746,-1.60078z" fill="#c5c5c5" stroke="none" stroke-width="0.5" stroke-linecap="butt"/><path d="M322.13191,128.17094c0.96325,-0.07916 1.80829,0.63753 1.88746,1.60078c0.07916,0.96325 -0.63753,1.80829 -1.60078,1.88746c-0.02785,0.00229 -0.05559,0.00392 -0.08321,0.00488c-0.02742,0.00355 -0.05505,0.00648 -0.08289,0.00877c-0.96325,0.07916 -1.80829,-0.63753 -1.88746,-1.60078c-0.07916,-0.96325 0.63753,-1.80829 1.60078,-1.88746c0.02785,-0.00229 0.05559,-0.00392 0.08321,-0.00488c0.02742,-0.00355 0.05505,-0.00648 0.08289,-0.00877z" fill="#c5c5c5" stroke="none" stroke-width="0.5" stroke-linecap="butt"/><path d="M328.06053,130.10852c-0.07916,-0.96325 0.63753,-1.80829 1.60078,-1.88746c0.96325,-0.07916 1.80829,0.63753 1.88746,1.60078c0.07916,0.96325 -0.63753,1.80829 -1.60078,1.88746c-0.96325,0.07916 -1.80829,-0.63753 -1.88746,-1.60078z" fill="#c5c5c5" stroke="none" stroke-width="0.5" stroke-linecap="butt"/><path d="M366.11261,127.14849c-0.07916,-0.96325 0.63753,-1.80829 1.60078,-1.88746c0.96325,-0.07916 1.80829,0.63753 1.88746,1.60078c0.07916,0.96325 -0.63753,1.80829 -1.60078,1.88746c-0.96325,0.07916 -1.80829,-0.63753 -1.88746,-1.60078z" fill="#c5c5c5" stroke="none" stroke-width="0.5" stroke-linecap="butt"/><path d="M374.31212,128.23053c-0.96325,0.07916 -1.80829,-0.63753 -1.88746,-1.60078c-0.07916,-0.96325 0.63753,-1.80829 1.60078,-1.88746c0.44669,-0.03671 0.86798,0.09773 1.19925,0.34855c0.28587,-0.30154 0.67955,-0.50296 1.12625,-0.53967c0.96325,-0.07916 1.80829,0.63753 1.88746,1.60078c0.07916,0.96325 -0.63753,1.80829 -1.60078,1.88746c-0.44669,0.03671 -0.86798,-0.09773 -1.19925,-0.34855c-0.28587,0.30154 -0.67955,0.50296 -1.12625,0.53967z" fill="#c5c5c5" stroke="none" stroke-width="0.5" stroke-linecap="butt"/><path d="M378.41815,126.3044c-0.07916,-0.96325 0.63753,-1.80829 1.60078,-1.88746c0.96325,-0.07916 1.80829,0.63753 1.88746,1.60078c0.07916,0.96325 -0.63753,1.80829 -1.60078,1.88746c-0.96325,0.07916 -1.80829,-0.63753 -1.88746,-1.60078z" fill="#c5c5c5" stroke="none" stroke-width="0.5" stroke-linecap="butt"/><path d="M328.39294,105.66584c-0.07916,-0.96325 0.63753,-1.80829 1.60078,-1.88746c0.96325,-0.07916 1.80829,0.63753 1.88746,1.60078c0.07916,0.96325 -0.63753,1.80829 -1.60078,1.88746c-0.96325,0.07916 -1.80829,-0.63753 -1.88746,-1.60078z" fill="#424242" stroke="none" stroke-width="0.5" stroke-linecap="butt"/><path d="M335.28522,106.10277c-0.07916,-0.96325 0.63753,-1.80829 1.60078,-1.88746c0.96325,-0.07916 1.80829,0.63753 1.88746,1.60078c0.07916,0.96325 -0.63753,1.80829 -1.60078,1.88746c-0.96325,0.07916 -1.80829,-0.63753 -1.88746,-1.60078z" fill="#424242" stroke="none" stroke-width="0.5" stroke-linecap="butt"/><path d="M344.52691,103.58736c0.96325,-0.07916 1.80829,0.63753 1.88746,1.60078c0.07916,0.96325 -0.63753,1.80829 -1.60078,1.88746c-0.48802,0.04011 -0.94571,-0.12408 -1.28882,-0.42111c-0.29001,0.34907 -0.71475,0.58577 -1.20278,0.62588c-0.96325,0.07916 -1.80829,-0.63753 -1.88746,-1.60078c-0.07916,-0.96325 0.63753,-1.80829 1.60078,-1.88746c0.48802,-0.04011 0.94571,0.12408 1.28882,0.42111c0.29001,-0.34907 0.71475,-0.58577 1.20278,-0.62588z" fill="#424242" stroke="none" stroke-width="0.5" stroke-linecap="butt"/><path d="M282.94798,110.23681c-0.05654,-0.68803 0.45538,-1.29164 1.14342,-1.34818c0.68804,-0.05655 1.29164,0.45539 1.34818,1.14342c0.05654,0.68803 -0.45538,1.29164 -1.14342,1.34818c-0.68804,0.05655 -1.29164,-0.45539 -1.34818,-1.14342z" fill="#424242" stroke="none" stroke-width="0.5" stroke-linecap="butt"/><path d="M289.06433,111.40644c-0.05654,-0.68803 0.45538,-1.29164 1.14342,-1.34818c0.68804,-0.05655 1.29164,0.45539 1.34818,1.14342c0.05654,0.68803 -0.45538,1.29164 -1.14342,1.34818c-0.68804,0.05655 -1.29164,-0.45539 -1.34818,-1.14342z" fill="#424242" stroke="none" stroke-width="0.5" stroke-linecap="butt"/><path d="M296.16367,112.32804c-0.05654,-0.68803 0.45538,-1.29164 1.14342,-1.34818c0.68804,-0.05655 1.29164,0.45539 1.34818,1.14342c0.05654,0.68803 -0.45538,1.29164 -1.14342,1.34818c-0.68804,0.05655 -1.29164,-0.45539 -1.34818,-1.14342z" fill="#424242" stroke="none" stroke-width="0.5" stroke-linecap="butt"/><path d="M302.54398,112.63983c-0.05654,-0.68803 0.45538,-1.29164 1.14342,-1.34818c0.68804,-0.05655 1.29164,0.45539 1.34818,1.14342c0.05654,0.68803 -0.45538,1.29164 -1.14342,1.34818c-0.68804,0.05655 -1.29164,-0.45539 -1.34818,-1.14342z" fill="#424242" stroke="none" stroke-width="0.5" stroke-linecap="butt"/><path d="M307.80478,111.53856c-0.05654,-0.68803 0.45538,-1.29164 1.14342,-1.34818c0.68804,-0.05655 1.29164,0.45539 1.34818,1.14342c0.05654,0.68803 -0.45538,1.29164 -1.14342,1.34818c-0.68804,0.05655 -1.29164,-0.45539 -1.34818,-1.14342z" fill="#424242" stroke="none" stroke-width="0.5" stroke-linecap="butt"/><path d="M313.3978,110.40999c-0.05654,-0.68803 0.45538,-1.29164 1.14342,-1.34818c0.68804,-0.05655 1.29164,0.45539 1.34818,1.14342c0.05654,0.68803 -0.45538,1.29164 -1.14342,1.34818c-0.68804,0.05655 -1.29164,-0.45539 -1.34818,-1.14342z" fill="#424242" stroke="none" stroke-width="0.5" stroke-linecap="butt"/><path d="M322.34256,107.33367c-0.05654,-0.68803 0.45538,-1.29164 1.14342,-1.34818c0.68804,-0.05655 1.29164,0.45539 1.34818,1.14342c0.05654,0.68803 -0.45538,1.29164 -1.14342,1.34818c-0.68804,0.05655 -1.29164,-0.45539 -1.34818,-1.14342z" fill="#424242" stroke="none" stroke-width="0.5" stroke-linecap="butt"/><path d="M327.4782,106.74438c-0.05654,-0.68803 0.45538,-1.29164 1.14342,-1.34818c0.68804,-0.05655 1.29164,0.45539 1.34818,1.14342c0.05654,0.68803 -0.45538,1.29164 -1.14342,1.34818c-0.68804,0.05655 -1.29164,-0.45539 -1.34818,-1.14342z" fill="#424242" stroke="none" stroke-width="0.5" stroke-linecap="butt"/><path d="M333.00068,106.79221c-0.05654,-0.68803 0.45538,-1.29164 1.14342,-1.34818c0.68804,-0.05655 1.29164,0.45539 1.34818,1.14342c0.05654,0.68803 -0.45538,1.29164 -1.14342,1.34818c-0.68804,0.05655 -1.29164,-0.45539 -1.34818,-1.14342z" fill="#424242" stroke="none" stroke-width="0.5" stroke-linecap="butt"/><path d="M337.28986,108.11199c-0.05654,-0.68803 0.45538,-1.29164 1.14342,-1.34818c0.68804,-0.05655 1.29164,0.45539 1.34818,1.14342c0.05654,0.68803 -0.45538,1.29164 -1.14342,1.34818c-0.68804,0.05655 -1.29164,-0.45539 -1.34818,-1.14342z" fill="#424242" stroke="none" stroke-width="0.5" stroke-linecap="butt"/><path d="M340.44359,109.85955c-0.05654,-0.68803 0.45538,-1.29164 1.14342,-1.34818c0.68804,-0.05655 1.29164,0.45539 1.34818,1.14342c0.05654,0.68803 -0.45538,1.29164 -1.14342,1.34818c-0.68804,0.05655 -1.29164,-0.45539 -1.34818,-1.14342z" fill="#424242" stroke="none" stroke-width="0.5" stroke-linecap="butt"/><path d="M346.64185,112.02581c-0.05654,-0.68803 0.45538,-1.29164 1.14342,-1.34818c0.68804,-0.05655 1.29164,0.45539 1.34818,1.14342c0.05654,0.68803 -0.45538,1.29164 -1.14342,1.34818c-0.68804,0.05655 -1.29164,-0.45539 -1.34818,-1.14342z" fill="#424242" stroke="none" stroke-width="0.5" stroke-linecap="butt"/><path d="M353.64564,111.78467c-0.05654,-0.68803 0.45538,-1.29164 1.14342,-1.34818c0.68804,-0.05655 1.29164,0.45539 1.34818,1.14342c0.05654,0.68803 -0.45538,1.29164 -1.14342,1.34818c-0.68804,0.05655 -1.29164,-0.45539 -1.34818,-1.14342z" fill="#424242" stroke="none" stroke-width="0.5" stroke-linecap="butt"/><path d="M341.75641,123.79885c-0.05654,-0.68803 0.45538,-1.29164 1.14342,-1.34818c0.68804,-0.05655 1.29164,0.45539 1.34818,1.14342c0.05654,0.68803 -0.45538,1.29164 -1.14342,1.34818c-0.68804,0.05655 -1.29164,-0.45539 -1.34818,-1.14342z" fill="#7e7e7e" stroke="none" stroke-width="0.5" stroke-linecap="butt"/><path d="M361.99193,111.60042c-0.05654,-0.68803 0.45538,-1.29164 1.14342,-1.34818c0.68804,-0.05655 1.29164,0.45539 1.34818,1.14342c0.05654,0.68803 -0.45538,1.29164 -1.14342,1.34818c-0.68804,0.05655 -1.29164,-0.45539 -1.34818,-1.14342z" fill="#424242" stroke="none" stroke-width="0.5" stroke-linecap="butt"/><path d="M364.95683,109.01556c-0.05654,-0.68803 0.45538,-1.29164 1.14342,-1.34818c0.68804,-0.05655 1.29164,0.45539 1.34818,1.14342c0.05654,0.68803 -0.45538,1.29164 -1.14342,1.34818c-0.68804,0.05655 -1.29164,-0.45539 -1.34818,-1.14342z" fill="#424242" stroke="none" stroke-width="0.5" stroke-linecap="butt"/><path d="M365.45974,104.96074c-0.05654,-0.68803 0.45538,-1.29164 1.14342,-1.34818c0.68804,-0.05655 1.29164,0.45539 1.34818,1.14342c0.05654,0.68803 -0.45538,1.29164 -1.14342,1.34818c-0.68804,0.05655 -1.29164,-0.45539 -1.34818,-1.14342z" fill="#424242" stroke="none" stroke-width="0.5" stroke-linecap="butt"/><path d="M272.06675,124.34213c-0.05654,-0.68803 0.45538,-1.29164 1.14342,-1.34818c0.68804,-0.05655 1.29164,0.45539 1.34818,1.14342c0.05654,0.68803 -0.45538,1.29164 -1.14342,1.34818c-0.68804,0.05655 -1.29164,-0.45539 -1.34818,-1.14342z" fill="#7e7e7e" stroke="none" stroke-width="0.5" stroke-linecap="butt"/><path d="M277.14321,127.10227c-0.05654,-0.68803 0.45538,-1.29164 1.14342,-1.34818c0.68804,-0.05655 1.29164,0.45539 1.34818,1.14342c0.05654,0.68803 -0.45538,1.29164 -1.14342,1.34818c-0.68804,0.05655 -1.29164,-0.45539 -1.34818,-1.14342z" fill="#7e7e7e" stroke="none" stroke-width="0.5" stroke-linecap="butt"/><path d="M282.58148,128.16039c-0.05654,-0.68803 0.45538,-1.29164 1.14342,-1.34818c0.68804,-0.05655 1.29164,0.45539 1.34818,1.14342c0.05654,0.68803 -0.45538,1.29164 -1.14342,1.34818c-0.68804,0.05655 -1.29164,-0.45539 -1.34818,-1.14342z" fill="#7e7e7e" stroke="none" stroke-width="0.5" stroke-linecap="butt"/><path d="M289.76732,126.06477c-0.05654,-0.68803 0.45538,-1.29164 1.14342,-1.34818c0.68804,-0.05655 1.29164,0.45539 1.34818,1.14342c0.05654,0.68803 -0.45538,1.29164 -1.14342,1.34818c-0.68804,0.05655 -1.29164,-0.45539 -1.34818,-1.14342z" fill="#7e7e7e" stroke="none" stroke-width="0.5" stroke-linecap="butt"/><path d="M296.13627,124.20352c-0.05654,-0.68803 0.45538,-1.29164 1.14342,-1.34818c0.68804,-0.05655 1.29164,0.45539 1.34818,1.14342c0.05654,0.68803 -0.45538,1.29164 -1.14342,1.34818c-0.68804,0.05655 -1.29164,-0.45539 -1.34818,-1.14342z" fill="#7e7e7e" stroke="none" stroke-width="0.5" stroke-linecap="butt"/><path d="M299.97267,122.04872c-0.05654,-0.68803 0.45538,-1.29164 1.14342,-1.34818c0.68804,-0.05655 1.29164,0.45539 1.34818,1.14342c0.05654,0.68803 -0.45538,1.29164 -1.14342,1.34818c-0.68804,0.05655 -1.29164,-0.45539 -1.34818,-1.14342z" fill="#7e7e7e" stroke="none" stroke-width="0.5" stroke-linecap="butt"/><path d="M309.56589,120.75863c-0.05654,-0.68803 0.45538,-1.29164 1.14342,-1.34818c0.68804,-0.05655 1.29164,0.45539 1.34818,1.14342c0.05654,0.68803 -0.45538,1.29164 -1.14342,1.34818c-0.68804,0.05655 -1.29164,-0.45539 -1.34818,-1.14342z" fill="#7e7e7e" stroke="none" stroke-width="0.5" stroke-linecap="butt"/><path d="M318.59025,120.68588c-0.05654,-0.68803 0.45538,-1.29164 1.14342,-1.34818c0.68804,-0.05655 1.29164,0.45539 1.34818,1.14342c0.05654,0.68803 -0.45538,1.29164 -1.14342,1.34818c-0.68804,0.05655 -1.29164,-0.45539 -1.34818,-1.14342z" fill="#7e7e7e" stroke="none" stroke-width="0.5" stroke-linecap="butt"/><path d="M326.87735,123.85108c-0.05654,-0.68803 0.45538,-1.29164 1.14342,-1.34818c0.68804,-0.05655 1.29164,0.45539 1.34818,1.14342c0.05654,0.68803 -0.45538,1.29164 -1.14342,1.34818c-0.68804,0.05655 -1.29164,-0.45539 -1.34818,-1.14342z" fill="#7e7e7e" stroke="none" stroke-width="0.5" stroke-linecap="butt"/><path d="M334.28161,124.41316c-0.05654,-0.68803 0.45538,-1.29164 1.14342,-1.34818c0.68804,-0.05655 1.29164,0.45539 1.34818,1.14342c0.05654,0.68803 -0.45538,1.29164 -1.14342,1.34818c-0.68804,0.05655 -1.29164,-0.45539 -1.34818,-1.14342z" fill="#7e7e7e" stroke="none" stroke-width="0.5" stroke-linecap="butt"/><path d="M348.32106,120.24923c-0.05654,-0.68803 0.45538,-1.29164 1.14342,-1.34818c0.68804,-0.05655 1.29164,0.45539 1.34818,1.14342c0.05654,0.68803 -0.45538,1.29164 -1.14342,1.34818c-0.68804,0.05655 -1.29164,-0.45539 -1.34818,-1.14342z" fill="#7e7e7e" stroke="none" stroke-width="0.5" stroke-linecap="butt"/><path d="M353.95733,117.61206c-0.05654,-0.68803 0.45538,-1.29164 1.14342,-1.34818c0.68804,-0.05655 1.29164,0.45539 1.34818,1.14342c0.05654,0.68803 -0.45538,1.29164 -1.14342,1.34818c-0.68804,0.05655 -1.29164,-0.45539 -1.34818,-1.14342z" fill="#7e7e7e" stroke="none" stroke-width="0.5" stroke-linecap="butt"/><path d="M364.5745,116.57227c-0.05654,-0.68803 0.45538,-1.29164 1.14342,-1.34818c0.68804,-0.05655 1.29164,0.45539 1.34818,1.14342c0.05654,0.68803 -0.45538,1.29164 -1.14342,1.34818c-0.68804,0.05655 -1.29164,-0.45539 -1.34818,-1.14342z" fill="#7e7e7e" stroke="none" stroke-width="0.5" stroke-linecap="butt"/><path d="M371.08903,120.55205c-0.05654,-0.68803 0.45538,-1.29164 1.14342,-1.34818c0.68804,-0.05655 1.29164,0.45539 1.34818,1.14342c0.05654,0.68803 -0.45538,1.29164 -1.14342,1.34818c-0.68804,0.05655 -1.29164,-0.45539 -1.34818,-1.14342z" fill="#7e7e7e" stroke="none" stroke-width="0.5" stroke-linecap="butt"/><path d="M374.56133,122.1062c-0.05654,-0.68803 0.45538,-1.29164 1.14342,-1.34818c0.68804,-0.05655 1.29164,0.45539 1.34818,1.14342c0.05654,0.68803 -0.45538,1.29164 -1.14342,1.34818c-0.68804,0.05655 -1.29164,-0.45539 -1.34818,-1.14342z" fill="#7e7e7e" stroke="none" stroke-width="0.5" stroke-linecap="butt"/><path d="M262.47112,139.84684c-0.05655,-0.68804 0.45538,-1.29164 1.14342,-1.34818c0.68804,-0.05655 1.29164,0.45538 1.34818,1.14342c0.05655,0.68804 -0.45538,1.29164 -1.14342,1.34818c-0.68804,0.05655 -1.29164,-0.45538 -1.34818,-1.14342z" fill="#c5c5c5" stroke="none" stroke-width="0.5" stroke-linecap="butt"/><path d="M271.05406,138.47256c-0.05655,-0.68804 0.45538,-1.29164 1.14342,-1.34818c0.68804,-0.05655 1.29164,0.45538 1.34818,1.14342c0.05655,0.68804 -0.45538,1.29164 -1.14342,1.34818c-0.68804,0.05655 -1.29164,-0.45538 -1.34818,-1.14342z" fill="#c5c5c5" stroke="none" stroke-width="0.5" stroke-linecap="butt"/><path d="M315.53198,132.30877c-0.05655,-0.68804 0.45538,-1.29164 1.14342,-1.34818c0.68804,-0.05655 1.29164,0.45538 1.34818,1.14342c0.05655,0.68804 -0.45538,1.29164 -1.14342,1.34818c-0.68804,0.05655 -1.29164,-0.45538 -1.34818,-1.14342z" fill="#c5c5c5" stroke="none" stroke-width="0.5" stroke-linecap="butt"/><path d="M321.20462,134.18377c-0.05655,-0.68804 0.45538,-1.29164 1.14342,-1.34818c0.68804,-0.05655 1.29164,0.45538 1.34818,1.14342c0.05655,0.68804 -0.45538,1.29164 -1.14342,1.34818c-0.68804,0.05655 -1.29164,-0.45538 -1.34818,-1.14342z" fill="#c5c5c5" stroke="none" stroke-width="0.5" stroke-linecap="butt"/><path d="M325.41189,134.50691c-0.05655,-0.68804 0.45538,-1.29164 1.14342,-1.34818c0.68804,-0.05655 1.29164,0.45538 1.34818,1.14342c0.05655,0.68804 -0.45538,1.29164 -1.14342,1.34818c-0.68804,0.05655 -1.29164,-0.45538 -1.34818,-1.14342z" fill="#c5c5c5" stroke="none" stroke-width="0.5" stroke-linecap="butt"/><path d="M330.73189,130.05621c-0.05655,-0.68804 0.45538,-1.29164 1.14342,-1.34818c0.68804,-0.05655 1.29164,0.45538 1.34818,1.14342c0.05655,0.68804 -0.45538,1.29164 -1.14342,1.34818c-0.68804,0.05655 -1.29164,-0.45538 -1.34818,-1.14342z" fill="#c5c5c5" stroke="none" stroke-width="0.5" stroke-linecap="butt"/><path d="M370.15377,127.48528c-0.05655,-0.68804 0.45538,-1.29164 1.14342,-1.34818c0.68804,-0.05655 1.29164,0.45538 1.34818,1.14342c0.05655,0.68804 -0.45538,1.29164 -1.14342,1.34818c-0.68804,0.05655 -1.29164,-0.45538 -1.34818,-1.14342z" fill="#c5c5c5" stroke="none" stroke-width="0.5" stroke-linecap="butt"/><path d="M377.00281,129.43083c-0.05655,-0.68804 0.45538,-1.29164 1.14342,-1.34818c0.68804,-0.05655 1.29164,0.45538 1.34818,1.14342c0.05655,0.68804 -0.45538,1.29164 -1.14342,1.34818c-0.68804,0.05655 -1.29164,-0.45538 -1.34818,-1.14342z" fill="#c5c5c5" stroke="none" stroke-width="0.5" stroke-linecap="butt"/><path d="M381.76759,126.36359c-0.05655,-0.68804 0.45538,-1.29164 1.14342,-1.34818c0.68804,-0.05655 1.29164,0.45538 1.34818,1.14342c0.05655,0.68804 -0.45538,1.29164 -1.14342,1.34818c-0.68804,0.05655 -1.29164,-0.45538 -1.34818,-1.14342z" fill="#c5c5c5" stroke="none" stroke-width="0.5" stroke-linecap="butt"/></g><g fill="#da3243" stroke="none" stroke-width="0.5" stroke-linecap="butt"><path d="M283.79585,208.43765c-0.01976,-0.00745 4.50727,-4.89761 5.75893,-6.40321c1.057,-1.27133 2.26852,-3.75129 3.8272,-5.17663c0.00194,-0.04734 0.00453,-0.09473 0.00776,-0.14216l-0.04565,0.00283l-0.0257,-0.41469c-0.0088,-0.13578 0.09287,-0.25406 0.22901,-0.26525c0.08785,-0.00722 0.16882,0.03191 0.21884,0.09695l0.20042,0.25297c0.07338,-0.05061 0.1475,-0.09857 0.22237,-0.1437l-0.02119,-0.25787c-0.01131,-0.13761 0.09108,-0.25833 0.22868,-0.26964c0.09946,-0.00817 0.19012,0.04305 0.23699,0.12405l0.08471,0.13952c0.01408,-0.00556 0.02819,-0.01102 0.04232,-0.01636c0.01897,-0.38085 0.03683,-0.74753 0.0155,-1.00704c-0.19735,-2.40127 -0.39611,-4.80243 -0.59166,-7.20385c0.02846,-1.03793 0.11438,-2.07004 0.21749,-3.09976c-0.18075,-1.93251 0.03226,-3.7761 0.15217,-5.77943l0.02062,-0.3445c0.00544,-0.12397 0.10239,-0.22746 0.2293,-0.23789c0.08785,-0.00722 0.16883,0.03191 0.21884,0.09695l0.30809,0.38887l-0.19121,0.15148c0.49945,1.37354 0.13268,4.11441 -0.16936,6.30123c0.03829,0.27345 0.08556,0.54932 0.14322,0.82833c0.68125,1.57852 1.35251,3.16939 2.19348,4.66989c0.02151,0.03838 0.78767,1.35939 1.00114,0.96591c0.22609,-0.41674 -0.2336,-1.05214 -0.16427,-1.6063c-0.01987,-0.03973 -0.03537,-0.08435 -0.04621,-0.13411l-0.00598,0.00049l-0.04095,-0.49832c-0.01131,-0.13761 0.09108,-0.25833 0.22868,-0.26964c0.13761,-0.01131 0.25833,0.09108 0.26964,0.22868l0.03562,0.43345c0.05627,0.37993 4.55292,-2.29279 5.41762,-2.90239c0.90207,-0.63594 1.58149,-1.46367 2.16539,-2.36971c0.32421,-1.02615 0.67381,-1.93921 0.9089,-2.55607c0.12834,-0.33528 1.18903,-2.77396 1.50678,-1.31821c0.24115,1.10475 -0.85072,2.91432 -2.05519,4.39764c-0.74941,2.48055 -1.27181,5.48138 0.43523,6.16646c0.67062,0.26914 1.91335,1.1189 2.59344,1.15143c0.12558,0.006 1.12614,-0.9624 1.30182,-1.09874c1.11631,-0.86631 2.05161,-2.02343 3.18777,-2.86248l-0.03324,-0.0329l0.35072,-0.35441c0.0406,-0.04152 0.09579,-0.06917 0.15821,-0.0743c0.13761,-0.01131 0.25833,0.09108 0.26964,0.22868c0.00365,0.04442 -0.00455,0.08709 -0.02196,0.12488l-0.14722,0.33695l-0.00746,-0.00326l-0.00246,0.02345c-0.77377,1.15563 -1.90746,2.40074 -2.04969,3.8414c-0.05301,0.53697 0.47743,3.65655 0.94386,3.04414c2.60252,-2.28336 4.51078,-5.21257 7.23907,-7.37408c2.05837,-1.63076 5.48426,-3.83938 8.24052,-4.37948l-0.00927,-0.01572l0.24475,-0.14425c0.03252,-0.02012 0.07018,-0.03306 0.11091,-0.03641c0.13761,-0.01131 0.25833,0.09108 0.26964,0.22868c0.00722,0.08785 -0.03191,0.16883 -0.09695,0.21884l-0.38887,0.3081c-2.21229,1.75176 -4.24563,3.71591 -6.47865,5.45394c-1.68739,1.31334 -3.49838,3.01453 -4.63648,4.8471c-0.26557,0.42762 -1.30282,2.4238 -0.52366,2.22783c1.0971,-0.09016 2.83658,0.10409 3.8456,-0.30576c1.64819,-0.66948 3.06745,-1.99457 4.76817,-2.58134l-0.02553,-0.05121l0.44239,-0.22057c0.02896,-0.01529 0.06144,-0.02511 0.09614,-0.02796c0.13761,-0.01131 0.25833,0.09108 0.26964,0.22868c0.00607,0.07391 -0.02066,0.14296 -0.06803,0.1928l-0.28869,0.30619c-1.11245,1.1799 -2.03576,2.46453 -2.9957,3.77082c-1.17266,1.59575 -3.4734,6.50948 -1.13878,7.4589l0.18615,-0.0153c0.13761,-0.01131 0.25833,0.09108 0.26964,0.22868c0.00565,0.06881 -0.01711,0.13338 -0.0585,0.18217l-0.26135,0.30816l-0.0093,-0.00788l-0.01907,0.03633c-0.5368,0.33254 -0.98607,0.73024 -1.48294,1.12424c-2.07506,1.96168 -7.06295,0.44263 -9.70474,0.33101c-2.63338,-0.7386 -5.06624,-1.28864 -7.61661,-2.31835c-2.43038,-0.59045 -4.79246,-1.2656 -6.97991,-2.4174c-0.00101,0.00009 -0.002,0.00017 -0.00301,0.00026c-0.14185,0.01166 -0.20957,-0.06407 -0.24161,-0.13146c-0.01805,-0.00986 -0.0361,-0.01976 -0.05412,-0.0297c0,0 -0.15686,-0.08692 -0.13126,-0.24638c-0.01755,-0.01603 -0.03508,-0.03213 -0.05258,-0.04833c-0.19799,0.15161 -12.42802,5.74499 -12.42802,5.74499z"/><path d="M333.9372,181.4177c-0.15327,0.06548 -0.30653,0.13096 -0.45979,0.19644l-0.45443,0.19413c-0.01,0.00455 -0.02037,0.00848 -0.03108,0.0117c-0.10882,0.06595 -0.21767,0.13184 -0.32655,0.19771l-0.01839,0.00206l0.00234,0.00547l-0.45443,0.19414c-0.02555,0.01163 -0.05351,0.01913 -0.0831,0.02156c-0.13761,0.01131 -0.25833,-0.09108 -0.26964,-0.22868c-0.00809,-0.09845 0.04202,-0.18826 0.12159,-0.23554l0.28917,-0.17998l0.02662,0.04277l0.05589,-0.02388c0.21038,-0.1758 0.43712,-0.3157 0.68024,-0.44109l0.12721,-0.10627l0.02534,0.03034c0.09065,-0.04365 0.18345,-0.08596 0.27839,-0.12797c0.07655,-0.04633 0.15656,-0.08595 0.24008,-0.11719l0.21881,-0.08013c0,0 0.01519,-0.00556 0.03923,-0.00999c0.04607,-0.0091 0.1158,-0.01269 0.17846,0.02551c0.03938,0.02331 0.0758,0.06266 0.10071,0.1271c0.026,0.06401 0.02644,0.11761 0.01373,0.16158c-0.01946,0.07075 -0.07271,0.11592 -0.11251,0.14085c-0.01972,0.01271 -0.03421,0.01908 -0.03534,0.01958c-0.02327,0.12456 -0.15253,0.17979 -0.15253,0.17979z"/><path d="M294.82251,176.21377c-0.02315,0.01709 -0.0475,0.03367 -0.07309,0.04949c0,0 -0.21369,0.12974 -0.34344,-0.08396c-0.12975,-0.21369 0.08396,-0.34344 0.08396,-0.34344c0.12736,-0.07564 0.24622,-0.14662 0.35548,-0.20778c0.00245,-0.01172 0.05394,-0.24371 0.29313,-0.19706c0.02744,0.00536 0.05123,0.01317 0.07181,0.02284c0.35807,-0.12176 0.51345,0.05672 0.37926,0.94221l-0.03328,0.03627l0.01194,0.00736l-0.26064,0.42308c-0.04004,0.0667 -0.11053,0.11379 -0.19399,0.12064c-0.12644,0.01039 -0.23864,-0.07522 -0.26478,-0.19593l-0.11296,-0.48318l0.09683,-0.02264c-0.00378,-0.02261 -0.0072,-0.04525 -0.01023,-0.0679z"/><path d="M311.12809,175.35161c0.19066,0.1617 0.02896,0.35237 0.02896,0.35237l-0.21337,0.23176c-0.10619,0.06446 -0.21237,0.12894 -0.31856,0.1934c0,0 -0.2137,0.12974 -0.34344,-0.08396c-0.12975,-0.21369 0.08396,-0.34344 0.08396,-0.34344c0.10619,-0.06446 0.21237,-0.12894 0.31856,-0.1934l0.09154,-0.12777c0,0 0.16171,-0.19066 0.35237,-0.02896z"/></g></g><g stroke="#000000"><g fill="#000000" stroke-width="0" stroke-linecap="round"><path d="M274.25143,149.90098l-4.88527,-9.48653l8.89003,3.85037z"/><path d="M276.41761,154.06141l-10.26957,-2.89762l8.87923,-3.87522z"/></g><path d="M274.22821,152.77516c-1.06218,-12.92444 8.55408,-24.26282 21.47852,-25.325c12.92444,-1.06218 24.26282,8.55407 25.325,21.47851c1.06218,12.92444 -8.55407,24.26283 -21.47851,25.32501c-12.92444,1.06218 -24.26283,-8.55408 -25.32501,-21.47852z" fill="#ffffff" stroke-width="0" stroke-linecap="butt"/><path d="M282.77237,152.86607c-0.6798,-8.27175 5.47468,-15.52843 13.74644,-16.20824c8.27175,-0.6798 15.52844,5.47469 16.20824,13.74646c0.6798,8.27175 -5.47469,15.52845 -13.74645,16.20825c-8.27175,0.6798 -15.52843,-5.47469 -16.20823,-13.74646z" fill="#ffffff" stroke-width="2" stroke-linecap="butt"/></g><path d="M274.22821,152.77516c-0.00729,-0.08875 12.07366,11.11586 24.66714,10.09986c10.64699,-0.85896 22.13413,-13.97379 22.13639,-13.94635c1.06218,12.92444 -8.55407,24.26283 -21.47851,25.32501c-12.92444,1.06218 -24.26283,-8.55408 -25.32501,-21.47852z" fill="#efefef" stroke="#000000" stroke-width="0" stroke-linecap="butt"/><g stroke="#000000"><g fill="#000000" stroke-width="0" stroke-linecap="round"><path d="M369.74457,136.74595l8.14211,-5.25014l-3.27092,10.15684z"/><path d="M373.42383,139.20198l9.39277,2.37356l-9.6587,4.53541z"/></g><path d="M353.62937,169.80952c-12.92444,1.06218 -24.26282,-8.55408 -25.325,-21.47852c-1.06218,-12.92444 8.55407,-24.26282 21.47851,-25.325c12.92444,-1.06218 24.26283,8.55407 25.32501,21.47851c1.06218,12.92444 -8.55408,24.26283 -21.47852,25.32501z" fill="#ffffff" stroke-width="0" stroke-linecap="butt"/><path d="M366.43071,145.77679c0.67981,8.27177 -5.47468,15.52844 -13.74644,16.20825c-8.27175,0.6798 -15.52844,-5.47471 -16.20824,-13.74646c-0.67981,-8.27177 5.4747,-15.52845 13.74645,-16.20825c8.27175,-0.6798 15.52843,5.4747 16.20823,13.74645z" fill="#ffffff" stroke-width="2" stroke-linecap="butt"/></g><path d="M317.36317,188.26345c0,0 12.26676,6.24121 17.83026,3.30066c5.5635,-2.94055 28.67746,-23.42762 28.67746,-23.42762c0,0 -5.82809,25.57036 -21.54748,33.87874c-15.71939,8.30838 -24.96024,-13.75177 -24.96024,-13.75177z" fill="#000000" stroke="#000000" stroke-width="1.5" stroke-linecap="round"/></g></g></g></svg>