<svg version="1.1" xmlns="http://www.w3.org/2000/svg" xmlns:xlink="http://www.w3.org/1999/xlink" width="213.18203" height="280.18476" viewBox="0,0,213.18203,280.18476"><defs><linearGradient x1="292.58812" y1="125.70203" x2="290.97579" y2="172.63566" gradientUnits="userSpaceOnUse" id="color-1"><stop offset="0" stop-color="#ffffff"/><stop offset="1" stop-color="#5d5d5d"/></linearGradient><linearGradient x1="346.81459" y1="127.56491" x2="345.20227" y2="174.49853" gradientUnits="userSpaceOnUse" id="color-2"><stop offset="0" stop-color="#ffffff"/><stop offset="1" stop-color="#5d5d5d"/></linearGradient></defs><g transform="translate(-214.52362,-38.88751)"><g stroke-miterlimit="10"><path d="M272.11014,268.26063c0.69149,-2.74535 3.73555,-4.81339 7.38606,-4.81339c3.23495,0 5.99367,1.62399 7.06104,3.9042c0.02618,0.07181 0.05544,0.14128 0.09106,0.20598c0.34257,0.62235 6.73325,-1.09492 7.52542,-0.84255c2.34967,0.74856 3.72445,2.88263 4.72133,4.73523c1.2385,2.30161 -2.89731,8.99139 -4.21952,11.08073c-3.44549,5.44452 -7.01511,14.21661 -13.0943,18.09006c-4.36095,2.77864 -11.57075,2.22268 -14.41858,-1.68103c-2.09573,-2.87275 -0.89147,-7.62841 -0.51474,-10.63945c0.49433,-3.9509 1.65871,-7.91056 2.73717,-11.78969c1.14878,-4.13207 1.39016,-6.40714 2.72506,-8.25009z" fill="#8b21e0" stroke="none" stroke-width="0.5" stroke-linecap="butt"/><path d="M370.04217,276.51072c1.07846,3.87913 2.24284,7.83879 2.73717,11.78969c0.37673,3.01104 1.58099,7.76671 -0.51474,10.63945c-2.84783,3.90371 -10.05764,4.45967 -14.41858,1.68103c-6.07919,-3.87345 -9.64881,-12.64553 -13.0943,-18.09006c-1.32221,-2.08934 -5.45801,-8.77911 -4.21952,-11.08073c0.99688,-1.8526 2.37167,-3.98667 4.72133,-4.73523c0.79217,-0.25237 7.18285,1.4649 7.52542,0.84255c0.03562,-0.06471 0.06488,-0.13418 0.09105,-0.20598c1.06737,-2.2802 3.82608,-3.9042 7.06104,-3.9042c3.65051,0 6.69458,2.06803 7.38607,4.81339c1.3349,1.84295 1.57628,4.11802 2.72506,8.25009z" fill="#8b21e0" stroke="none" stroke-width="0.5" stroke-linecap="butt"/><g stroke-linecap="butt"><path d="M286.35186,319.07226l15.14285,-131.8421l37.78325,-0.15789l13.57389,132z" fill="#8b21e0" stroke="#000000" stroke-width="0"/><path d="M296.01666,234.92516c2.08346,-18.13983 5.47805,-47.69499 5.47805,-47.69499l37.78325,-0.15789c0,0 3.04845,29.64481 4.91793,47.82466c0.02749,0.26726 -48.23894,0.54804 -48.17924,0.02822z" fill="#7822e0" stroke="#000000" stroke-width="0"/><path d="M297.13133,225.22012c1.77782,-15.47868 4.36338,-37.98996 4.36338,-37.98996l37.78325,-0.15789c0,0 2.35959,22.94598 3.97074,38.61368c0.0124,0.12054 -46.15083,-0.17447 -46.11737,-0.46582z" fill="#551cba" stroke="#000000" stroke-width="0"/><path d="M298.09859,216.79867c1.47239,-12.81944 3.39612,-29.56851 3.39612,-29.56851l37.78325,-0.15789c0,0 1.79848,17.4894 3.15533,30.68411c0.00563,0.0547 -44.35225,-0.8049 -44.3347,-0.95771z" fill="#3a1aaf" stroke="#000000" stroke-width="0"/><path d="M298.125,217c0,-0.57891 0.28111,-1.09217 0.71427,-1.41073c0.31856,-0.43316 0.83182,-0.71427 1.41073,-0.71427c0.9665,0 1.75,0.7835 1.75,1.75c0,0.57891 -0.28111,1.09217 -0.71427,1.41073c-0.31856,0.43316 -0.83182,0.71427 -1.41073,0.71427c-0.9665,0 -1.75,-0.7835 -1.75,-1.75z" fill="#3a1aaf" stroke="none" stroke-width="0.5"/><path d="M338.5,217.625c0,-0.9665 0.7835,-1.75 1.75,-1.75c0.9665,0 1.75,0.7835 1.75,1.75c0,0.9665 -0.7835,1.75 -1.75,1.75c-0.9665,0 -1.75,-0.7835 -1.75,-1.75z" fill="#3a1aaf" stroke="none" stroke-width="0.5"/><path d="M331.75,217c0,-0.9665 0.7835,-1.75 1.75,-1.75c0.9665,0 1.75,0.7835 1.75,1.75c0,0.9665 -0.7835,1.75 -1.75,1.75c-0.9665,0 -1.75,-0.7835 -1.75,-1.75z" fill="#3a1aaf" stroke="none" stroke-width="0.5"/><path d="M325.5,217.5c0,-0.9665 0.7835,-1.75 1.75,-1.75c0.2202,0 0.4309,0.04066 0.625,0.1149c0.1941,-0.07424 0.4048,-0.1149 0.625,-0.1149c0.9665,0 1.75,0.7835 1.75,1.75c0,0.9665 -0.7835,1.75 -1.75,1.75c-0.2202,0 -0.4309,-0.04066 -0.625,-0.1149c-0.1941,0.07424 -0.4048,0.1149 -0.625,0.1149c-0.9665,0 -1.75,-0.7835 -1.75,-1.75z" fill="#3a1aaf" stroke="none" stroke-width="0.5"/><path d="M317,217.375c0,-0.9665 0.7835,-1.75 1.75,-1.75c0.2202,0 0.4309,0.04066 0.625,0.1149c0.1941,-0.07424 0.4048,-0.1149 0.625,-0.1149c0.9665,0 1.75,0.7835 1.75,1.75c0,0.9665 -0.7835,1.75 -1.75,1.75c-0.2202,0 -0.4309,-0.04066 -0.625,-0.1149c-0.1941,0.07424 -0.4048,0.1149 -0.625,0.1149c-0.9665,0 -1.75,-0.7835 -1.75,-1.75z" fill="#3a1aaf" stroke="none" stroke-width="0.5"/><path d="M313.25,217.125c0,-0.9665 0.7835,-1.75 1.75,-1.75c0.9665,0 1.75,0.7835 1.75,1.75c0,0.9665 -0.7835,1.75 -1.75,1.75c-0.9665,0 -1.75,-0.7835 -1.75,-1.75z" fill="#3a1aaf" stroke="none" stroke-width="0.5"/><path d="M306.5,217c0,-0.9665 0.7835,-1.75 1.75,-1.75c0.9665,0 1.75,0.7835 1.75,1.75c0,0.9665 -0.7835,1.75 -1.75,1.75c-0.9665,0 -1.75,-0.7835 -1.75,-1.75z" fill="#3a1aaf" stroke="none" stroke-width="0.5"/><path d="M302.625,217c0,-0.9665 0.7835,-1.75 1.75,-1.75c0.9665,0 1.75,0.7835 1.75,1.75c0,0.9665 -0.7835,1.75 -1.75,1.75c-0.9665,0 -1.75,-0.7835 -1.75,-1.75z" fill="#3a1aaf" stroke="none" stroke-width="0.5"/><path d="M297.125,225.125c0,-0.9665 0.7835,-1.75 1.75,-1.75c0.9665,0 1.75,0.7835 1.75,1.75c0,0.9665 -0.7835,1.75 -1.75,1.75c-0.9665,0 -1.75,-0.7835 -1.75,-1.75z" fill="#551cba" stroke="none" stroke-width="0.5"/><path d="M337.625,225.5c0,-0.9665 0.7835,-1.75 1.75,-1.75c0.43734,0 0.8372,0.16042 1.14396,0.42563c0.27981,-0.18976 0.61748,-0.30063 0.98104,-0.30063c0.9665,0 1.75,0.7835 1.75,1.75c0,0.9665 -0.7835,1.75 -1.75,1.75c-0.43734,0 -0.8372,-0.16042 -1.14396,-0.42563c-0.27981,0.18976 -0.61748,0.30063 -0.98104,0.30063c-0.9665,0 -1.75,-0.7835 -1.75,-1.75z" fill="#551cba" stroke="none" stroke-width="0.5"/><path d="M330.5,225.875c0,-0.9665 0.7835,-1.75 1.75,-1.75c0.78848,0 1.45517,0.52145 1.67401,1.23832c0.28322,-0.58494 0.8825,-0.98832 1.57599,-0.98832c0.9665,0 1.75,0.7835 1.75,1.75c0,0.9665 -0.7835,1.75 -1.75,1.75c-0.78848,0 -1.45517,-0.52145 -1.67401,-1.23832c-0.28322,0.58494 -0.8825,0.98832 -1.57599,0.98832c-0.9665,0 -1.75,-0.7835 -1.75,-1.75z" fill="#551cba" stroke="none" stroke-width="0.5"/><path d="M327,225.75c0,-0.9665 0.7835,-1.75 1.75,-1.75c0.9665,0 1.75,0.7835 1.75,1.75c0,0.9665 -0.7835,1.75 -1.75,1.75c-0.9665,0 -1.75,-0.7835 -1.75,-1.75z" fill="#551cba" stroke="none" stroke-width="0.5"/><path d="M316.25,225.125c0,-0.9665 0.7835,-1.75 1.75,-1.75c0.58711,0 1.1067,0.28913 1.42415,0.73276c0.32092,-0.37217 0.79587,-0.60776 1.32585,-0.60776c0.76142,0 1.40928,0.48629 1.64992,1.16524c0.27225,-0.61285 0.88626,-1.04024 1.60008,-1.04024c0.9665,0 1.75,0.7835 1.75,1.75c0,0.9665 -0.7835,1.75 -1.75,1.75c-0.76142,0 -1.40928,-0.48629 -1.64992,-1.16524c-0.27225,0.61285 -0.88626,1.04024 -1.60008,1.04024c-0.58711,0 -1.1067,-0.28913 -1.42415,-0.73276c-0.32092,0.37217 -0.79587,0.60776 -1.32585,0.60776c-0.9665,0 -1.75,-0.7835 -1.75,-1.75z" fill="#551cba" stroke="none" stroke-width="0.5"/><path d="M307.625,225c0,-0.9665 0.7835,-1.75 1.75,-1.75c0.80543,0 1.48377,0.54412 1.6875,1.28483c0.20373,-0.7407 0.88207,-1.28483 1.6875,-1.28483c0.9665,0 1.75,0.7835 1.75,1.75c0,0.9665 -0.7835,1.75 -1.75,1.75c-0.80543,0 -1.48377,-0.54412 -1.6875,-1.28483c-0.20373,0.7407 -0.88207,1.28483 -1.6875,1.28483c-0.9665,0 -1.75,-0.7835 -1.75,-1.75z" fill="#551cba" stroke="none" stroke-width="0.5"/><path d="M300.5,225.125c0,-0.9665 0.7835,-1.75 1.75,-1.75c0.6587,0 1.2324,0.36393 1.531,0.90168c0.27524,-0.60558 0.88544,-1.02668 1.594,-1.02668c0.9665,0 1.75,0.7835 1.75,1.75c0,0.9665 -0.7835,1.75 -1.75,1.75c-0.6587,0 -1.2324,-0.36393 -1.531,-0.90168c-0.27524,0.60558 -0.88544,1.02668 -1.594,1.02668c-0.9665,0 -1.75,-0.7835 -1.75,-1.75z" fill="#551cba" stroke="none" stroke-width="0.5"/><path d="M302.875,233.375c0.9665,0 1.75,0.7835 1.75,1.75c0,0.9665 -0.7835,1.75 -1.75,1.75c-0.55774,0 -1.05454,-0.26092 -1.375,-0.66735c-0.32046,0.40643 -0.81726,0.66735 -1.375,0.66735c-0.45833,0 -0.87552,-0.1762 -1.1875,-0.46455c-0.31198,0.28835 -0.72917,0.46455 -1.1875,0.46455c-0.9665,0 -1.75,-0.7835 -1.75,-1.75c0,-0.9665 0.7835,-1.75 1.75,-1.75c0.45833,0 0.87552,0.1762 1.1875,0.46455c0.31198,-0.28835 0.72917,-0.46455 1.1875,-0.46455c0.55774,0 1.05454,0.26092 1.375,0.66735c0.32046,-0.40643 0.81726,-0.66735 1.375,-0.66735z" fill="#7822e0" stroke="none" stroke-width="0.5"/><path d="M312.625,233.25c0.9665,0 1.75,0.7835 1.75,1.75c0,0.9665 -0.7835,1.75 -1.75,1.75c-0.27524,0 -0.53563,-0.06354 -0.76731,-0.17675c-0.28013,0.19045 -0.61841,0.30175 -0.98269,0.30175c-0.73651,0 -1.36676,-0.45499 -1.625,-1.09923c-0.25824,0.64424 -0.88849,1.09923 -1.625,1.09923c-0.9665,0 -1.75,-0.7835 -1.75,-1.75c0,-0.9665 0.7835,-1.75 1.75,-1.75c0.73651,0 1.36676,0.45499 1.625,1.09923c0.25824,-0.64424 0.88849,-1.09923 1.625,-1.09923c0.27524,0 0.53563,0.06354 0.76731,0.17675c0.28013,-0.19045 0.61841,-0.30175 0.98269,-0.30175z" fill="#7822e0" stroke="none" stroke-width="0.5"/><path d="M315.5,235.25c0,-0.9665 0.7835,-1.75 1.75,-1.75c0.9665,0 1.75,0.7835 1.75,1.75c0,0.9665 -0.7835,1.75 -1.75,1.75c-0.9665,0 -1.75,-0.7835 -1.75,-1.75z" fill="#7822e0" stroke="none" stroke-width="0.5"/><path d="M322.75,235.875c0,-0.9665 0.7835,-1.75 1.75,-1.75c0.9665,0 1.75,0.7835 1.75,1.75c0,0.9665 -0.7835,1.75 -1.75,1.75c-0.9665,0 -1.75,-0.7835 -1.75,-1.75z" fill="#7822e0" stroke="none" stroke-width="0.5"/><path d="M329.375,235.75c0,-0.9665 0.7835,-1.75 1.75,-1.75c0.9665,0 1.75,0.7835 1.75,1.75c0,0.9665 -0.7835,1.75 -1.75,1.75c-0.9665,0 -1.75,-0.7835 -1.75,-1.75z" fill="#7822e0" stroke="none" stroke-width="0.5"/><path d="M334.875,234.75c0,-0.9665 0.7835,-1.75 1.75,-1.75c0.9665,0 1.75,0.7835 1.75,1.75c0,0.9665 -0.7835,1.75 -1.75,1.75c-0.9665,0 -1.75,-0.7835 -1.75,-1.75z" fill="#7822e0" stroke="none" stroke-width="0.5"/><path d="M340,235c0,-0.9665 0.7835,-1.75 1.75,-1.75c0.9665,0 1.75,0.7835 1.75,1.75c0,0.9665 -0.7835,1.75 -1.75,1.75c-0.9665,0 -1.75,-0.7835 -1.75,-1.75z" fill="#7822e0" stroke="none" stroke-width="0.5"/><path d="M301.16667,220.83333c0,-0.69036 0.55964,-1.25 1.25,-1.25c0.69036,0 1.25,0.55964 1.25,1.25c0,0.69036 -0.55964,1.25 -1.25,1.25c-0.69036,0 -1.25,-0.55964 -1.25,-1.25z" fill="#3a1aaf" stroke="none" stroke-width="0.5"/><path d="M305.5,217.83333c0,-0.69036 0.55964,-1.25 1.25,-1.25c0.69036,0 1.25,0.55964 1.25,1.25c0,0.69036 -0.55964,1.25 -1.25,1.25c-0.69036,0 -1.25,-0.55964 -1.25,-1.25z" fill="#3a1aaf" stroke="none" stroke-width="0.5"/><path d="M311.66667,217.33333c0,-0.69036 0.55964,-1.25 1.25,-1.25c0.69036,0 1.25,0.55964 1.25,1.25c0,0.69036 -0.55964,1.25 -1.25,1.25c-0.69036,0 -1.25,-0.55964 -1.25,-1.25z" fill="#3a1aaf" stroke="none" stroke-width="0.5"/><path d="M314.66667,220c0,-0.69036 0.55964,-1.25 1.25,-1.25c0.69036,0 1.25,0.55964 1.25,1.25c0,0.69036 -0.55964,1.25 -1.25,1.25c-0.69036,0 -1.25,-0.55964 -1.25,-1.25z" fill="#3a1aaf" stroke="none" stroke-width="0.5"/><path d="M323.25,221.08333c0.69036,0 1.25,0.55964 1.25,1.25c0,0.69036 -0.55964,1.25 -1.25,1.25c-0.28931,0 -0.55566,-0.09828 -0.76748,-0.26328c-0.21988,0.35792 -0.61499,0.59662 -1.06585,0.59662c-0.69036,0 -1.25,-0.55964 -1.25,-1.25c0,-0.69036 0.55964,-1.25 1.25,-1.25c0.28931,0 0.55566,0.09828 0.76748,0.26328c0.21988,-0.35792 0.61499,-0.59662 1.06585,-0.59662z" fill="#3a1aaf" stroke="none" stroke-width="0.5"/><path d="M328,218.5c0,-0.69036 0.55964,-1.25 1.25,-1.25c0.69036,0 1.25,0.55964 1.25,1.25c0,0.69036 -0.55964,1.25 -1.25,1.25c-0.69036,0 -1.25,-0.55964 -1.25,-1.25z" fill="#3a1aaf" stroke="none" stroke-width="0.5"/><path d="M333.66667,218.16667c0,-0.69036 0.55964,-1.25 1.25,-1.25c0.69036,0 1.25,0.55964 1.25,1.25c0,0.69036 -0.55964,1.25 -1.25,1.25c-0.69036,0 -1.25,-0.55964 -1.25,-1.25z" fill="#3a1aaf" stroke="none" stroke-width="0.5"/><path d="M339.83333,222.33333c0,0.69036 -0.55964,1.25 -1.25,1.25c-0.54205,0 -1.00352,-0.34502 -1.17677,-0.82743c-0.24986,-0.22855 -0.40656,-0.55726 -0.40656,-0.92257c0,-0.69036 0.55964,-1.25 1.25,-1.25c0.54205,0 1.00352,0.34502 1.17677,0.82743c0.24986,0.22855 0.40656,0.55726 0.40656,0.92257z" fill="#3a1aaf" stroke="none" stroke-width="0.5"/><path d="M298.66667,226.16667c0,-0.69036 0.55964,-1.25 1.25,-1.25c0.69036,0 1.25,0.55964 1.25,1.25c0,0.69036 -0.55964,1.25 -1.25,1.25c-0.69036,0 -1.25,-0.55964 -1.25,-1.25z" fill="#551cba" stroke="none" stroke-width="0.5"/><path d="M303.5,231.16667c0,-0.69036 0.55964,-1.25 1.25,-1.25c0.69036,0 1.25,0.55964 1.25,1.25c0,0.69036 -0.55964,1.25 -1.25,1.25c-0.69036,0 -1.25,-0.55964 -1.25,-1.25z" fill="#551cba" stroke="none" stroke-width="0.5"/><path d="M309.38356,228.20639c0.96028,0.80023 0.16005,1.76051 0.16005,1.76051l-0.83333,1c0,0 -0.80023,0.96028 -1.76051,0.16005c-0.96028,-0.80023 -0.16005,-1.76051 -0.16005,-1.76051l0.83333,-1c0,0 0.80023,-0.96028 1.76051,-0.16005z" fill="#551cba" stroke="none" stroke-width="0.5"/><path d="M313.91667,224.75c0.69036,0 1.25,0.55964 1.25,1.25c0,0.69036 -0.55964,1.25 -1.25,1.25c-0.23693,0 -0.45847,-0.06592 -0.64727,-0.18042c-0.0607,0.00906 -0.12284,0.01375 -0.18606,0.01375c-0.69036,0 -1.25,-0.55964 -1.25,-1.25c0,-0.69036 0.55964,-1.25 1.25,-1.25c0.23693,0 0.45847,0.06592 0.64727,0.18042c0.0607,-0.00906 0.12284,-0.01375 0.18606,-0.01375z" fill="#551cba" stroke="none" stroke-width="0.5"/><path d="M320.83333,229.16667c0,-0.69036 0.55964,-1.25 1.25,-1.25c0.69036,0 1.25,0.55964 1.25,1.25c0,0.69036 -0.55964,1.25 -1.25,1.25c-0.69036,0 -1.25,-0.55964 -1.25,-1.25z" fill="#551cba" stroke="none" stroke-width="0.5"/><path d="M323.66667,230.33333c0,-0.69036 0.55964,-1.25 1.25,-1.25c0.69036,0 1.25,0.55964 1.25,1.25c0,0.69036 -0.55964,1.25 -1.25,1.25c-0.69036,0 -1.25,-0.55964 -1.25,-1.25z" fill="#551cba" stroke="none" stroke-width="0.5"/><path d="M329.16667,226.83333c0,-0.69036 0.55964,-1.25 1.25,-1.25c0.69036,0 1.25,0.55964 1.25,1.25c0,0.69036 -0.55964,1.25 -1.25,1.25c-0.69036,0 -1.25,-0.55964 -1.25,-1.25z" fill="#551cba" stroke="none" stroke-width="0.5"/><path d="M333,225.83333c0,-0.69036 0.55964,-1.25 1.25,-1.25c0.69036,0 1.25,0.55964 1.25,1.25c0,0.69036 -0.55964,1.25 -1.25,1.25c-0.69036,0 -1.25,-0.55964 -1.25,-1.25z" fill="#551cba" stroke="none" stroke-width="0.5"/><path d="M340.5,230.83333c0,-0.69036 0.55964,-1.25 1.25,-1.25c0.69036,0 1.25,0.55964 1.25,1.25c0,0.69036 -0.55964,1.25 -1.25,1.25c-0.69036,0 -1.25,-0.55964 -1.25,-1.25z" fill="#551cba" stroke="none" stroke-width="0.5"/><path d="M299,238.83333c0,-0.69036 0.55964,-1.25 1.25,-1.25c0.69036,0 1.25,0.55964 1.25,1.25c0,0.69036 -0.55964,1.25 -1.25,1.25c-0.69036,0 -1.25,-0.55964 -1.25,-1.25z" fill="#7822e0" stroke="none" stroke-width="0.5"/><path d="M307.58333,234.75c0.69036,0 1.25,0.55964 1.25,1.25c0,0.69036 -0.55964,1.25 -1.25,1.25c-0.19188,0 -0.37366,-0.04323 -0.53614,-0.12049c-0.21637,0.17935 -0.4942,0.28716 -0.7972,0.28716c-0.69036,0 -1.25,-0.55964 -1.25,-1.25c0,-0.69036 0.55964,-1.25 1.25,-1.25c0.19188,0 0.37366,0.04323 0.53614,0.12049c0.21637,-0.17935 0.4942,-0.28716 0.7972,-0.28716z" fill="#7822e0" stroke="none" stroke-width="0.5"/><path d="M314.66667,239c0,-0.69036 0.55964,-1.25 1.25,-1.25c0.69036,0 1.25,0.55964 1.25,1.25c0,0.69036 -0.55964,1.25 -1.25,1.25c-0.69036,0 -1.25,-0.55964 -1.25,-1.25z" fill="#7822e0" stroke="none" stroke-width="0.5"/><path d="M320.83333,242.5c0,-0.69036 0.55964,-1.25 1.25,-1.25c0.69036,0 1.25,0.55964 1.25,1.25c0,0.69036 -0.55964,1.25 -1.25,1.25c-0.69036,0 -1.25,-0.55964 -1.25,-1.25z" fill="#7822e0" stroke="none" stroke-width="0.5"/><path d="M320.83333,235c0,-0.69036 0.55964,-1.25 1.25,-1.25c0.69036,0 1.25,0.55964 1.25,1.25c0,0.69036 -0.55964,1.25 -1.25,1.25c-0.69036,0 -1.25,-0.55964 -1.25,-1.25z" fill="#7822e0" stroke="none" stroke-width="0.5"/><path d="M326,236.16667c0,-0.69036 0.55964,-1.25 1.25,-1.25c0.69036,0 1.25,0.55964 1.25,1.25c0,0.69036 -0.55964,1.25 -1.25,1.25c-0.69036,0 -1.25,-0.55964 -1.25,-1.25z" fill="#7822e0" stroke="none" stroke-width="0.5"/><path d="M331.5,236.16667c0,-0.69036 0.55964,-1.25 1.25,-1.25c0.69036,0 1.25,0.55964 1.25,1.25c0,0.69036 -0.55964,1.25 -1.25,1.25c-0.69036,0 -1.25,-0.55964 -1.25,-1.25z" fill="#7822e0" stroke="none" stroke-width="0.5"/><path d="M339.25,239.25c0.69036,0 1.25,0.55964 1.25,1.25c0,0.69036 -0.55964,1.25 -1.25,1.25c-0.56616,0 -1.04441,-0.3764 -1.19816,-0.89261c-0.19819,0.42859 -0.63196,0.72594 -1.13517,0.72594c-0.69036,0 -1.25,-0.55964 -1.25,-1.25c0,-0.69036 0.55964,-1.25 1.25,-1.25c0.56616,0 1.04441,0.3764 1.19816,0.89261c0.19819,-0.42859 0.63196,-0.72594 1.13517,-0.72594z" fill="#7822e0" stroke="none" stroke-width="0.5"/><path d="M340,235.33333c0,-0.69036 0.55964,-1.25 1.25,-1.25c0.69036,0 1.25,0.55964 1.25,1.25c0,0.69036 -0.55964,1.25 -1.25,1.25c-0.69036,0 -1.25,-0.55964 -1.25,-1.25z" fill="#7822e0" stroke="none" stroke-width="0.5"/><path d="M301,223c0,-0.41421 0.33579,-0.75 0.75,-0.75c0.41421,0 0.75,0.33579 0.75,0.75c0,0.41421 -0.33579,0.75 -0.75,0.75c-0.41421,0 -0.75,-0.33579 -0.75,-0.75z" fill="#3a1aaf" stroke="none" stroke-width="0.5"/><path d="M321.66667,225c0,-0.41421 0.33579,-0.75 0.75,-0.75c0.41421,0 0.75,0.33579 0.75,0.75c0,0.41421 -0.33579,0.75 -0.75,0.75c-0.41421,0 -0.75,-0.33579 -0.75,-0.75z" fill="#3a1aaf" stroke="none" stroke-width="0.5"/><path d="M338.66667,224.66667c0,-0.41421 0.33579,-0.75 0.75,-0.75c0.41421,0 0.75,0.33579 0.75,0.75c0,0.41421 -0.33579,0.75 -0.75,0.75c-0.41421,0 -0.75,-0.33579 -0.75,-0.75z" fill="#3a1aaf" stroke="none" stroke-width="0.5"/><path d="M302.83333,233.5c0,-0.41421 0.33579,-0.75 0.75,-0.75c0.41421,0 0.75,0.33579 0.75,0.75c0,0.41421 -0.33579,0.75 -0.75,0.75c-0.41421,0 -0.75,-0.33579 -0.75,-0.75z" fill="#551cba" stroke="none" stroke-width="0.5"/><path d="M322.5,233.33333c0,-0.41421 0.33579,-0.75 0.75,-0.75c0.41421,0 0.75,0.33579 0.75,0.75c0,0.41421 -0.33579,0.75 -0.75,0.75c-0.41421,0 -0.75,-0.33579 -0.75,-0.75z" fill="#551cba" stroke="none" stroke-width="0.5"/><path d="M341.33333,235c0,-0.41421 0.33579,-0.75 0.75,-0.75c0.41421,0 0.75,0.33579 0.75,0.75c0,0.41421 -0.33579,0.75 -0.75,0.75c-0.41421,0 -0.75,-0.33579 -0.75,-0.75z" fill="#551cba" stroke="none" stroke-width="0.5"/><path d="M301.66667,241.33333c0,-0.41421 0.33579,-0.75 0.75,-0.75c0.41421,0 0.75,0.33579 0.75,0.75c0,0.41421 -0.33579,0.75 -0.75,0.75c-0.41421,0 -0.75,-0.33579 -0.75,-0.75z" fill="#7822e0" stroke="none" stroke-width="0.5"/><path d="M314.5,244.16667c0,-0.41421 0.33579,-0.75 0.75,-0.75c0.41421,0 0.75,0.33579 0.75,0.75c0,0.41421 -0.33579,0.75 -0.75,0.75c-0.41421,0 -0.75,-0.33579 -0.75,-0.75z" fill="#7822e0" stroke="none" stroke-width="0.5"/><path d="M338,245.16667c0,-0.41421 0.33579,-0.75 0.75,-0.75c0.41421,0 0.75,0.33579 0.75,0.75c0,0.41421 -0.33579,0.75 -0.75,0.75c-0.41421,0 -0.75,-0.33579 -0.75,-0.75z" fill="#7822e0" stroke="none" stroke-width="0.5"/></g><path d="M214.52362,306.61252v-267.72501h213.18203v267.72501z" fill="none" stroke="none" stroke-width="0" stroke-linecap="butt"/><path d="" fill="none" stroke="#000000" stroke-width="2" stroke-linecap="round"/><path d="M348.09345,279.76011c-0.17678,0.17677 -0.35355,0 -0.35355,0l-0.30273,-0.3073c-0.18961,-0.09309 -0.38215,-0.18574 -0.57705,-0.27765c0.1706,0.17506 0.34622,0.36109 0.52428,0.55569l0.04239,0.00904c0.96745,0.96746 2.14938,2.03589 2.65974,3.30561c0.27002,0.23032 0.50572,0.4617 0.68142,0.69992l0.06432,0.31487c0,0 0.01712,0.18501 -0.13765,0.2508c0.36897,0.41782 0.74899,0.77747 1.13564,1.02777c0.98203,1.09903 2.08443,2.12612 2.90511,3.35515l0.10286,-0.01127c0,0 0.23392,0.08822 0.14569,0.32214c-0.08823,0.23391 -0.32214,0.14569 -0.32214,0.14569l-0.34243,-0.17921c-0.79498,-1.19449 -1.87315,-2.18077 -2.81754,-3.25553c-0.98239,-0.67187 -1.89968,-1.9514 -2.72124,-3.14018c-1.23839,-0.94227 -2.59489,-1.9086 -2.61389,-3.49232c0,0 0,-0.11726 0.0803,-0.19117c-0.91474,-0.41318 -1.86679,-0.80319 -2.80088,-1.13837c-0.14632,-0.03607 -0.29417,-0.06982 -0.44388,-0.10066l-0.36401,-0.17953c0,0 -0.01018,-0.00508 -0.0251,-0.01526c-0.04132,-0.02615 -0.09259,-0.07164 -0.11016,-0.14272c-0.01263,-0.04442 -0.01185,-0.09821 0.01591,-0.16137c0.02504,-0.06429 0.06252,-0.10288 0.10286,-0.12536c0.06268,-0.03784 0.1311,-0.03376 0.17881,-0.02302c0.01774,0.00336 0.02853,0.00696 0.02853,0.00696c0.23451,0.07916 0.47118,0.1615 0.70909,0.24678c0.04289,0.00993 0.08564,0.02009 0.12826,0.03048c-0.01349,-0.06248 -0.00371,-0.13967 0.07349,-0.21686c0.17678,-0.17677 0.35355,0 0.35355,0c0.23489,0.23489 0.50902,0.42083 0.80814,0.57409c1.04522,0.33607 2.064,0.71102 3.21276,0.85461c0,0 0.24807,0.03101 0.21706,0.27908c-0.03101,0.24807 -0.27908,0.21706 -0.27908,0.21706c-0.02155,-0.00269 -0.04306,-0.00547 -0.06453,-0.00831c-0.05012,0.01273 -0.09116,0.00943 -0.09116,0.00943l-0.31369,-0.02594c0.04905,0.02457 0.09791,0.04922 0.14657,0.07394l0.36393,0.35936c0,0 0.17678,0.17678 0,0.35356zM347.70697,281.05603c-0.18253,-0.24018 -0.40901,-0.44565 -0.62511,-0.65315c0.21793,0.33132 0.50671,0.6382 0.82981,0.92888c-0.06916,-0.09509 -0.1374,-0.18718 -0.2047,-0.27573z" fill="#751cbd" stroke="none" stroke-width="0.5" stroke-linecap="butt"/><path d="M272.52055,274.57308l0.13421,0.13935c0.07632,0.05354 0.15079,0.10324 0.22447,0.1497c1.01875,0.17851 2.15312,0.11299 3.06294,0.49132l0.23508,-0.02012c0,0 0.25,0 0.25,0.25c0,0.25 -0.25,0.25 -0.25,0.25l-0.4316,-0.02012c-0.53053,-0.23456 -1.10969,-0.31854 -1.69559,-0.37737c0.02431,0.03039 0.04332,0.06951 0.04664,0.11884c1.46053,0.4725 2.98794,0.67155 4.77199,0.91763c1.41433,0.19508 2.88054,0.52942 4.30856,0.52768h0.33333c0,0 0.25,0 0.25,0.25c0,0.25 -0.25,0.25 -0.25,0.25h-0.33333c-1.45266,-0.00165 -2.93821,-0.33393 -4.37687,-0.53237c-2.61728,-0.36101 -4.71009,-0.63846 -6.8286,-1.77376c-0.18029,-0.08838 -0.37074,-0.19873 -0.56191,-0.32129c-0.29136,-0.17723 -0.58411,-0.37212 -0.87967,-0.58707c0,0 -0.0677,-0.04924 -0.09626,-0.12991c-0.09089,-0.07506 -0.17678,-0.14852 -0.25606,-0.2187l-0.00063,0.0631c0,0 -0.25,0 -0.25,-0.25c0,-0.25 0.25,-0.25 0.25,-0.25l0.3327,0.0631c0.14339,0.12786 0.322,0.27914 0.5167,0.43277c0.09325,0.0099 0.16071,0.07736 0.16071,0.07736c0.10195,0.10348 0.2101,0.19422 0.32357,0.27399c0.08858,0.05587 0.17699,0.10999 0.26526,0.16245c0.10676,0.0567 0.21714,0.10592 0.33054,0.14889c0.01232,-0.02789 0.03165,-0.05653 0.06025,-0.08519c0.17663,-0.17692 0.35356,-0.00029 0.35356,-0.00029z" fill="#751cbd" stroke="none" stroke-width="0.5" stroke-linecap="butt"/><path d="M291.3338,279.40656l0.36394,-0.35936c0.04866,-0.02472 0.09752,-0.04937 0.14657,-0.07394l-0.31369,0.02594c0,0 -0.04104,0.0033 -0.09116,-0.00943c-0.02147,0.00285 -0.04298,0.00562 -0.06454,0.00831c0,0 -0.24807,0.03101 -0.27908,-0.21706c-0.03101,-0.24807 0.21706,-0.27908 0.21706,-0.27908c1.14875,-0.1436 2.16754,-0.51854 3.21276,-0.85461c0.29912,-0.15326 0.57325,-0.3392 0.80814,-0.57409c0,0 0.17678,-0.17677 0.35356,0c0.0772,0.07719 0.08697,0.15439 0.07349,0.21686c0.04262,-0.01039 0.08536,-0.02055 0.12825,-0.03048c0.23791,-0.08528 0.47458,-0.16762 0.70909,-0.24678c0,0 0.01079,-0.0036 0.02854,-0.00696c0.04771,-0.01074 0.11613,-0.01481 0.17881,0.02302c0.04034,0.02248 0.07782,0.06107 0.10286,0.12536c0.02776,0.06316 0.02854,0.11695 0.01591,0.16137c-0.01757,0.07108 -0.06884,0.11657 -0.11016,0.14272c-0.01492,0.01018 -0.0251,0.01526 -0.0251,0.01526l-0.364,0.17953c-0.14972,0.03084 -0.29756,0.06459 -0.44389,0.10066c-0.9341,0.33518 -1.88614,0.72519 -2.80088,1.13837c0.08031,0.0739 0.08031,0.19117 0.08031,0.19117c-0.019,1.58372 -1.3755,2.55005 -2.61389,3.49232c-0.82156,1.18877 -1.73885,2.4683 -2.72124,3.14018c-0.9444,1.07476 -2.02256,2.06103 -2.81754,3.25553l-0.34244,0.17921c0,0 -0.23391,0.08822 -0.32214,-0.14569c-0.08823,-0.23391 0.14569,-0.32214 0.14569,-0.32214l0.10286,0.01127c0.82067,-1.22904 1.92307,-2.25612 2.90511,-3.35515c0.38664,-0.2503 0.76666,-0.60994 1.13563,-1.02777c-0.15477,-0.06579 -0.13765,-0.2508 -0.13765,-0.2508l0.06432,-0.31487c0.1757,-0.23822 0.41141,-0.4696 0.68143,-0.69992c0.51036,-1.26972 1.69229,-2.33816 2.65974,-3.30561l0.04239,-0.00904c0.17806,-0.19459 0.35368,-0.38062 0.52427,-0.55569c-0.1949,0.0919 -0.38744,0.18456 -0.57705,0.27765l-0.30273,0.3073c0,0 -0.17678,0.17677 -0.35356,0c-0.17678,-0.17677 0,-0.35356 0,-0.35356zM291.51558,281.33177c0.3231,-0.29068 0.61188,-0.59756 0.82981,-0.92888c-0.2161,0.20749 -0.44258,0.41296 -0.62511,0.65315c-0.0673,0.08856 -0.13554,0.18065 -0.2047,0.27573z" fill="#751cbd" stroke="none" stroke-width="0.5" stroke-linecap="butt"/><path d="M367.26026,274.57337c0.02861,0.02865 0.04794,0.0573 0.06026,0.08519c0.1134,-0.04297 0.22378,-0.09219 0.33054,-0.14889c0.08828,-0.05246 0.17669,-0.10659 0.26526,-0.16245c0.11347,-0.07977 0.22163,-0.17051 0.32358,-0.27399c0,0 0.06746,-0.06746 0.16071,-0.07736c0.1947,-0.15363 0.37331,-0.30491 0.5167,-0.43277l0.3327,-0.0631c0,0 0.25,0 0.25,0.25c0,0.25 -0.25,0.25 -0.25,0.25l-0.00063,-0.0631c-0.07927,0.07018 -0.16517,0.14364 -0.25606,0.2187c-0.02855,0.08068 -0.09626,0.12991 -0.09626,0.12991c-0.29555,0.21495 -0.58831,0.40984 -0.87966,0.58707c-0.19117,0.12256 -0.38162,0.2329 -0.56191,0.32129c-2.11851,1.1353 -4.21132,1.41275 -6.8286,1.77376c-1.43867,0.19843 -2.92421,0.53072 -4.37687,0.53237h-0.33333c0,0 -0.25,0 -0.25,-0.25c0,-0.25 0.25,-0.25 0.25,-0.25h0.33333c1.42802,0.00173 2.89423,-0.33261 4.30856,-0.52768c1.78405,-0.24607 3.31145,-0.44513 4.77199,-0.91763c0.00333,-0.04934 0.02233,-0.08845 0.04664,-0.11884c-0.58591,0.05883 -1.16505,0.14282 -1.69559,0.37737l-0.4316,0.02012c0,0 -0.25,0 -0.25,-0.25c0,-0.25 0.25,-0.25 0.25,-0.25l0.23507,0.02012c0.90982,-0.37833 2.04419,-0.31281 3.06294,-0.49132c0.07369,-0.04647 0.14815,-0.09616 0.22447,-0.1497l0.13421,-0.13935c0,0 0.17692,-0.17663 0.35355,0.00029z" fill="#751cbd" stroke="none" stroke-width="0.5" stroke-linecap="butt"/><g><g><g><path d="M374.83692,133.7455l23.7627,-21.16425c0,0 -1.5479,16.51684 -1.04228,22.96883c0.37537,4.78996 3.80331,12.2643 3.80331,12.2643c0,0 -6.05209,13.26555 -7.88141,19.52896c-1.55135,5.31172 -2.39866,15.66912 -2.39866,15.66912l-20.75669,-10.03282z" fill="#6719a7" stroke="#000000" stroke-width="0" stroke-linecap="round"/><path d="M389.58837,165.02506l-11.99764,1.17045" fill="none" stroke="#4b1797" stroke-width="2" stroke-linecap="round"/><path d="M378.67143,139.85595l12.27585,-4.15025" fill="none" stroke="#4b1797" stroke-width="2" stroke-linecap="round"/><path d="M266.02543,169.39663l-21.39626,8.58473c0,0 -0.13451,-10.39111 -1.3177,-15.79678c-1.39517,-6.37419 -6.52264,-20.02379 -6.52264,-20.02379c0,0 3.93281,-7.22147 4.63599,-11.97437c0.94719,-6.40208 0.53642,-22.9862 0.53642,-22.9862l22.25427,22.74508z" fill="#6719a7" stroke="#000000" stroke-width="0" stroke-linecap="round"/><path d="M259.2413,162.12981l-11.88903,-1.99103" fill="none" stroke="#4b1797" stroke-width="2" stroke-linecap="round"/><path d="M259.97071,135.77818l-11.96209,-4.98289" fill="none" stroke="#4b1797" stroke-width="2" stroke-linecap="round"/><path d="M254.70552,147.61937c1.14335,-33.28221 30.81316,-59.27536 66.26937,-58.05733c35.45622,1.21803 63.27228,29.18601 62.12892,62.46823c-0.74914,21.80707 -13.74495,40.48486 -32.59085,50.42951c-4.71827,2.48974 -4.02305,23.47357 -0.25308,41.45039c4.15383,19.80722 9.75124,36.52765 -36.346,33.71699c-48.14186,-2.93534 -41.38503,-17.28906 -35.21455,-35.98169c5.67775,-17.19997 9.25894,-38.83425 4.64926,-41.73489c-17.88494,-11.25413 -29.38656,-30.64914 -28.64309,-52.2912z" fill="#8b21e0" stroke="#000000" stroke-width="0" stroke-linecap="butt"/><path d="M258.84872,127.97641c9.96916,-22.41618 34.68804,-39.35697 62.12618,-38.41438c28.27073,0.97119 51.68421,18.94878 59.43339,43.0667c0.01435,0.04467 -121.58395,-4.5975 -121.55957,-4.65233z" fill="#7822e0" stroke="#000000" stroke-width="0" stroke-linecap="butt"/><path d="M261.4637,122.5705c10.88585,-20.32005 33.66059,-33.89653 59.5112,-33.00848c26.0265,0.8941 47.93629,16.20168 57.29717,37.4445c0.0419,0.09508 -116.88745,-4.28842 -116.80837,-4.43603z" fill="#551cba" stroke="#000000" stroke-width="0" stroke-linecap="butt"/><path d="M266.77883,114.36516c12.08297,-15.66995 32.00635,-25.56543 54.19605,-24.80314c21.4833,0.73802 40.1617,11.29669 51.29277,26.90772c0.49942,0.70042 0.98364,1.41101 1.45225,2.13135c0.04329,0.06654 -107.00491,-4.15313 -106.94108,-4.23592z" fill="#3a1aaf" stroke="#000000" stroke-width="0" stroke-linecap="butt"/><path d="M268.21229,151.35639c0.44523,-12.96037 11.31262,-23.10587 24.27298,-22.66064c12.96037,0.44523 23.10587,11.31261 22.66064,24.27297c-0.44523,12.96037 -11.31261,23.10588 -24.27296,22.66065c-12.96037,-0.44523 -23.10588,-11.31262 -22.66065,-24.27297z" fill="#6320d7" stroke="#000000" stroke-width="0" stroke-linecap="butt"/><path d="M345.09941,177.49224c-12.96037,-0.44523 -23.10587,-11.31262 -22.66064,-24.27298c0.44523,-12.96037 11.31261,-23.10587 24.27297,-22.66064c12.96037,0.44523 23.10588,11.31261 22.66065,24.27296c-0.44523,12.96037 -11.31262,23.10588 -24.27297,22.66065z" fill="#6320d7" stroke="#000000" stroke-width="0" stroke-linecap="butt"/><path d="M291.81751,100.56033c2.43132,8.39213 -6.90365,13.03909 -14.8578,12.76584c-3.16007,-0.10856 -20.02564,-3.73941 -22.48742,-12.97422c-3.73473,-14.00999 7.62773,-35.62973 7.62773,-35.62973c0,0 2.35498,17.26594 11.01864,27.25921c5.44792,6.28403 16.78184,1.96203 18.69885,8.5789z" fill="#4f2373" stroke="#000000" stroke-width="0" stroke-linecap="butt"/><path d="M368.54733,95.25972c9.32902,-9.37517 12.86334,-26.4388 12.86334,-26.4388c0,0 9.85202,22.34853 5.16465,36.0692c-3.08973,9.0441 -20.1647,11.50898 -23.32477,11.40042c-7.95415,-0.27325 -16.94823,-5.54989 -13.94671,-13.75537c2.36658,-6.46971 13.37717,-1.3801 19.24349,-7.27545z" fill="#4f2373" stroke="#000000" stroke-width="0" stroke-linecap="butt"/><path d="M276.90071,117.12449c0.00591,-0.17188 0.04624,-0.33444 0.11415,-0.48133c-0.42379,-0.13812 -0.77467,-0.43301 -0.98685,-0.81416c-0.32349,0.49739 -0.89203,0.81795 -1.52823,0.7961c-0.81241,-0.02791 -1.47642,-0.60528 -1.64722,-1.3628c-0.27062,0.65619 -0.92738,1.10759 -1.67843,1.08179c-0.36689,-0.0126 -0.7035,-0.13727 -0.97811,-0.33998c-0.33407,0.40311 -0.84466,0.65258 -1.40837,0.63322c-0.96593,-0.03318 -1.72207,-0.84313 -1.68888,-1.80905c0.03318,-0.96593 0.84313,-1.72207 1.80905,-1.68888c0.36689,0.0126 0.7035,0.13727 0.97811,0.33998c0.33407,-0.40311 0.84466,-0.65258 1.40837,-0.63322c0.81241,0.02791 1.47642,0.60528 1.64722,1.3628c0.27062,-0.65619 0.92738,-1.10759 1.67843,-1.08179c0.63621,0.02186 1.18141,0.38069 1.47,0.8991c0.32349,-0.49739 0.89203,-0.81795 1.52823,-0.7961c0.44795,0.01539 0.85077,0.19783 1.15068,0.4854c0.31894,-0.26632 0.73334,-0.42067 1.18128,-0.40528c0.96593,0.03318 1.72207,0.84313 1.68888,1.80905c-0.03318,0.96593 -0.84313,1.72207 -1.80905,1.68888c-0.18038,-0.0062 -0.35343,-0.03948 -0.51539,-0.0958c0.06021,0.15388 0.09071,0.32228 0.08467,0.49792c-0.0237,0.68995 -0.60222,1.23005 -1.29218,1.20635c-0.68995,-0.0237 -1.23005,-0.60222 -1.20635,-1.29218z" fill="#3a1aaf" stroke="none" stroke-width="0.5" stroke-linecap="butt"/><path d="M284.64297,115.05575c0.0237,-0.68995 0.60222,-1.23005 1.29218,-1.20635c0.13663,0.0047 0.26739,0.03115 0.38904,0.07592c0.31015,-0.23688 0.70105,-0.37199 1.12151,-0.35755c0.96593,0.03318 1.72207,0.84313 1.68888,1.80905c-0.03318,0.96593 -0.84313,1.72207 -1.80905,1.68888c-0.55974,-0.01922 -1.04904,-0.29929 -1.3551,-0.7194c-0.03993,0.00245 -0.08033,0.00302 -0.12113,0.00162c-0.68995,-0.0237 -1.23005,-0.60222 -1.20635,-1.29218z" fill="#3a1aaf" stroke="none" stroke-width="0.5" stroke-linecap="butt"/><path d="M290.97828,115.10663c0.03318,-0.96593 0.84313,-1.72207 1.80905,-1.68888c0.96593,0.03318 1.72207,0.84313 1.68888,1.80905c-0.03318,0.96593 -0.84313,1.72207 -1.80905,1.68888c-0.96593,-0.03318 -1.72207,-0.84313 -1.68888,-1.80905z" fill="#3a1aaf" stroke="none" stroke-width="0.5" stroke-linecap="butt"/><path d="M299.00218,114.54845c0.0237,-0.68995 0.60222,-1.23005 1.29218,-1.20635c0.53551,0.0184 0.98075,0.37103 1.14216,0.85058c0.28925,-0.18619 0.63622,-0.2892 1.00606,-0.27649c0.96593,0.03318 1.72207,0.84313 1.68888,1.80905c-0.03318,0.96593 -0.84313,1.72207 -1.80905,1.68888c-0.90664,-0.03115 -1.62846,-0.74663 -1.6862,-1.63309c-0.13435,0.04346 -0.27841,0.06472 -0.42768,0.05959c-0.68995,-0.0237 -1.23005,-0.60222 -1.20635,-1.29218z" fill="#3a1aaf" stroke="none" stroke-width="0.5" stroke-linecap="butt"/><path d="M305.7857,116.1156c0.03318,-0.96593 0.84313,-1.72207 1.80905,-1.68888c0.96593,0.03318 1.72207,0.84313 1.68888,1.80905c-0.03318,0.96593 -0.84313,1.72207 -1.80905,1.68888c-0.96593,-0.03318 -1.72207,-0.84313 -1.68888,-1.80905z" fill="#3a1aaf" stroke="none" stroke-width="0.5" stroke-linecap="butt"/><path d="M310.55897,117.94724c0.0237,-0.68995 0.60222,-1.23005 1.29218,-1.20635c0.17563,0.00604 0.34155,0.04802 0.49093,0.11865c-0.04508,-0.16546 -0.06641,-0.34039 -0.06021,-0.52076c0.03318,-0.96593 0.84313,-1.72207 1.80905,-1.68888c0.96593,0.03318 1.72207,0.84313 1.68888,1.80905c-0.03318,0.96593 -0.84313,1.72207 -1.80905,1.68888c-0.34157,-0.01174 -0.65691,-0.12061 -0.92039,-0.29914c0.0068,0.06033 0.00927,0.1219 0.00712,0.18439c-0.0237,0.68995 -0.60222,1.23005 -1.29218,1.20635c-0.68995,-0.0237 -1.23005,-0.60222 -1.20635,-1.29218z" fill="#3a1aaf" stroke="none" stroke-width="0.5" stroke-linecap="butt"/><path d="M320.2886,116.2803c0.03318,-0.96593 0.84313,-1.72207 1.80905,-1.68888c0.96593,0.03318 1.72207,0.84313 1.68888,1.80905c-0.03318,0.96593 -0.84313,1.72207 -1.80905,1.68888c-0.96593,-0.03318 -1.72207,-0.84313 -1.68888,-1.80905z" fill="#3a1aaf" stroke="none" stroke-width="0.5" stroke-linecap="butt"/><path d="M332.62974,116.26484c0.01617,0.00927 0.03211,0.01889 0.04781,0.02884c0.21148,-0.7609 0.92206,-1.30714 1.74617,-1.27884c0.37159,0.01277 0.71214,0.14048 0.98864,0.34782c0.29008,-0.18787 0.63859,-0.29192 1.01018,-0.27915c0.96593,0.03318 1.72207,0.84313 1.68888,1.80905c-0.03318,0.96593 -0.84313,1.72207 -1.80905,1.68888c-0.37159,-0.01277 -0.71214,-0.14048 -0.98864,-0.34782c-0.29008,0.18787 -0.63859,0.29192 -1.01018,0.27915c-0.47746,-0.0164 -0.90366,-0.2226 -1.20862,-0.5436c-0.22279,0.39004 -0.64895,0.64655 -1.12907,0.63006c-0.39665,-0.01362 -0.74377,-0.21062 -0.96271,-0.50674c-0.21392,0.08285 -0.44776,0.12475 -0.69153,0.11638c-0.77939,-0.02678 -1.4222,-0.55927 -1.62398,-1.27136c-0.18994,0.52887 -0.62641,0.937 -1.16669,1.09115c0.02578,0.10736 0.03767,0.21993 0.0337,0.33566c-0.0237,0.68995 -0.60222,1.23005 -1.29218,1.20635c-0.68995,-0.0237 -1.23005,-0.60222 -1.20635,-1.29218c0.01384,-0.40291 0.2169,-0.75473 0.52087,-0.973c-0.19194,-0.29204 -0.29853,-0.64426 -0.28562,-1.02009c0.03318,-0.96593 0.84313,-1.72207 1.80905,-1.68888c0.77939,0.02678 1.4222,0.55927 1.62398,1.27136c0.25016,-0.69657 0.928,-1.18369 1.7074,-1.15692c0.82259,0.02826 1.49302,0.61985 1.65341,1.39136c0.19791,0.01202 0.38276,0.06976 0.54454,0.16252z" fill="#3a1aaf" stroke="none" stroke-width="0.5" stroke-linecap="butt"/><path d="M342.70095,119.21818c0.00834,-0.24293 0.08547,-0.46728 0.21203,-0.65498c-0.50185,-0.3226 -0.82589,-0.89375 -0.80392,-1.53328c0.03318,-0.96593 0.84313,-1.72207 1.80905,-1.68888c0.96593,0.03318 1.72207,0.84313 1.68888,1.80905c-0.01866,0.54328 -0.28304,1.02019 -0.68271,1.32763c0.18143,0.22538 0.2859,0.51447 0.27518,0.82632c-0.0237,0.68995 -0.60222,1.23005 -1.29218,1.20635c-0.68995,-0.0237 -1.23005,-0.60222 -1.20635,-1.29218z" fill="#3a1aaf" stroke="none" stroke-width="0.5" stroke-linecap="butt"/><path d="M348.77752,117.09222c0.03318,-0.96593 0.84313,-1.72207 1.80905,-1.68888c0.96593,0.03318 1.72207,0.84313 1.68888,1.80905c-0.03318,0.96593 -0.84313,1.72207 -1.80905,1.68888c-0.96593,-0.03318 -1.72207,-0.84313 -1.68888,-1.80905z" fill="#3a1aaf" stroke="none" stroke-width="0.5" stroke-linecap="butt"/><path d="M355.24508,118.14823c0.03318,-0.96593 0.84313,-1.72207 1.80905,-1.68888c0.96593,0.03318 1.72207,0.84313 1.68888,1.80905c-0.03318,0.96593 -0.84313,1.72207 -1.80905,1.68888c-0.96593,-0.03318 -1.72207,-0.84313 -1.68888,-1.80905z" fill="#3a1aaf" stroke="none" stroke-width="0.5" stroke-linecap="butt"/><path d="M362.27528,117.38915c0.03318,-0.96593 0.84313,-1.72207 1.80905,-1.68888c0.96593,0.03318 1.72207,0.84313 1.68888,1.80905c-0.03318,0.96593 -0.84313,1.72207 -1.80905,1.68888c-0.96593,-0.03318 -1.72207,-0.84313 -1.68888,-1.80905z" fill="#3a1aaf" stroke="none" stroke-width="0.5" stroke-linecap="butt"/><path d="M371.201,117.27886c0.0667,0.00229 0.1324,0.00829 0.19692,0.01779c0.21129,-0.08039 0.44176,-0.12091 0.68186,-0.11267c0.96593,0.03318 1.72207,0.84313 1.68888,1.80905c-0.03318,0.96593 -0.84313,1.72207 -1.80905,1.68888c-0.0667,-0.00229 -0.1324,-0.00829 -0.19692,-0.01779c-0.21129,0.08039 -0.44176,0.12091 -0.68186,0.11267c-0.9568,-0.03287 -1.70777,-0.8279 -1.68961,-1.78173c-0.33293,0.42675 -0.85854,0.6936 -1.44086,0.6736c-0.96593,-0.03318 -1.72207,-0.84313 -1.68888,-1.80905c0.03318,-0.96593 0.84313,-1.72207 1.80905,-1.68888c0.9568,0.03287 1.70777,0.8279 1.68961,1.78173c0.33293,-0.42675 0.85854,-0.6936 1.44086,-0.6736z" fill="#3a1aaf" stroke="none" stroke-width="0.5" stroke-linecap="butt"/><path d="M266.17197,121.1752c0.96593,0.03318 1.72207,0.84313 1.68888,1.80905c-0.03318,0.96593 -0.84313,1.72207 -1.80905,1.68888c-0.51454,-0.01768 -0.96956,-0.25577 -1.27745,-0.62043c-0.3158,0.53154 -0.90415,0.87903 -1.56567,0.8563c-0.96593,-0.03318 -1.72207,-0.84313 -1.68888,-1.80905c0.03318,-0.96593 0.84313,-1.72207 1.80905,-1.68888c0.51454,0.01768 0.96956,0.25577 1.27745,0.62043c0.3158,-0.53154 0.90415,-0.87903 1.56567,-0.8563z" fill="#551cba" stroke="none" stroke-width="0.5" stroke-linecap="butt"/><path d="M269.49793,123.87431c0.00621,-0.18068 0.05047,-0.35108 0.1248,-0.50378c-0.36074,-0.3335 -0.57975,-0.81614 -0.56156,-1.34564c0.03318,-0.96593 0.84313,-1.72207 1.80905,-1.68888c0.96593,0.03318 1.72207,0.84313 1.68888,1.80905c-0.01819,0.52951 -0.2698,0.99599 -0.65258,1.30393c0.06369,0.15743 0.09614,0.33047 0.08993,0.51115c-0.0237,0.68995 -0.60222,1.23005 -1.29218,1.20635c-0.68995,-0.0237 -1.23005,-0.60222 -1.20635,-1.29218z" fill="#551cba" stroke="none" stroke-width="0.5" stroke-linecap="butt"/><path d="M276.49381,124.11464c-0.0237,0.68995 -0.60222,1.23005 -1.29218,1.20635c-0.23065,-0.00792 -0.44456,-0.07785 -0.62625,-0.19322c-0.90174,-0.09875 -1.58828,-0.87818 -1.55662,-1.79957c0.03318,-0.96593 0.84313,-1.72207 1.80905,-1.68888c0.96593,0.03318 1.72207,0.84313 1.68888,1.80905c-0.00426,0.12397 -0.02131,0.24447 -0.04984,0.36029c0.02109,0.09837 0.03057,0.20088 0.02695,0.30597z" fill="#551cba" stroke="none" stroke-width="0.5" stroke-linecap="butt"/><path d="M284.32221,121.96548c0.96593,0.03318 1.72207,0.84313 1.68888,1.80905c-0.03318,0.96593 -0.84313,1.72207 -1.80905,1.68888c-0.44795,-0.01539 -0.85077,-0.19783 -1.15068,-0.4854c-0.31894,0.26632 -0.73334,0.42067 -1.18128,0.40528c-0.96593,-0.03318 -1.72207,-0.84313 -1.68888,-1.80905c0.03318,-0.96593 0.84313,-1.72207 1.80905,-1.68888c0.44795,0.01539 0.85077,0.19783 1.15068,0.4854c0.31894,-0.26632 0.73334,-0.42067 1.18128,-0.40528z" fill="#551cba" stroke="none" stroke-width="0.5" stroke-linecap="butt"/><path d="M287.52166,123.49289c0.03318,-0.96593 0.84313,-1.72207 1.80905,-1.68888c0.96593,0.03318 1.72207,0.84313 1.68888,1.80905c-0.03318,0.96593 -0.84313,1.72207 -1.80905,1.68888c-0.96593,-0.03318 -1.72207,-0.84313 -1.68888,-1.80905z" fill="#551cba" stroke="none" stroke-width="0.5" stroke-linecap="butt"/><path d="M295.86153,123.44587c0.03318,-0.96593 0.84313,-1.72207 1.80905,-1.68888c0.96593,0.03318 1.72207,0.84313 1.68888,1.80905c-0.03318,0.96593 -0.84313,1.72207 -1.80905,1.68888c-0.96593,-0.03318 -1.72207,-0.84313 -1.68888,-1.80905z" fill="#551cba" stroke="none" stroke-width="0.5" stroke-linecap="butt"/><path d="M303.17336,124.19735c0.03318,-0.96593 0.84313,-1.72207 1.80905,-1.68888c0.96593,0.03318 1.72207,0.84313 1.68888,1.80905c-0.03318,0.96593 -0.84313,1.72207 -1.80905,1.68888c-0.96593,-0.03318 -1.72207,-0.84313 -1.68888,-1.80905z" fill="#551cba" stroke="none" stroke-width="0.5" stroke-linecap="butt"/><path d="M312.40932,124.76479c0.68995,0.0237 1.23005,0.60222 1.20635,1.29218c-0.0237,0.68995 -0.60222,1.23005 -1.29218,1.20635c-0.66296,-0.02277 -1.18756,-0.55782 -1.20656,-1.21176c-0.23156,0.10085 -0.48868,0.15294 -0.75792,0.14368c-0.96593,-0.03318 -1.72207,-0.84313 -1.68888,-1.80905c0.03318,-0.96593 0.84313,-1.72207 1.80905,-1.68888c0.96593,0.03318 1.72207,0.84313 1.68888,1.80905c-0.00327,0.09515 -0.01407,0.18828 -0.03183,0.27881c0.08826,-0.01645 0.17966,-0.02357 0.2731,-0.02037z" fill="#551cba" stroke="none" stroke-width="0.5" stroke-linecap="butt"/><path d="M319.15057,124.8011c-0.09208,-0.22329 -0.13916,-0.46932 -0.13032,-0.72642c0.03318,-0.96593 0.84313,-1.72207 1.80905,-1.68888c0.96593,0.03318 1.72207,0.84313 1.68888,1.80905c-0.03318,0.96593 -0.84313,1.72207 -1.80905,1.68888c-0.36098,-0.0124 -0.69265,-0.13328 -0.9648,-0.33025c0.03411,0.12115 0.05035,0.24954 0.0458,0.38206c-0.0237,0.68995 -0.60222,1.23005 -1.29218,1.20635c-0.56723,-0.01949 -1.03318,-0.41397 -1.16782,-0.93709c-0.15011,0.036 -0.3075,0.05257 -0.46926,0.04702c-0.96593,-0.03318 -1.72207,-0.84313 -1.68888,-1.80905c0.03318,-0.96593 0.84313,-1.72207 1.80905,-1.68888c0.96593,0.03318 1.72207,0.84313 1.68888,1.80905c-0.00099,0.02879 -0.00267,0.0574 -0.00502,0.08581c0.17543,0.01732 0.3397,0.07067 0.48565,0.15235z" fill="#551cba" stroke="none" stroke-width="0.5" stroke-linecap="butt"/><path d="M329.16376,124.92343c-0.03318,0.96593 -0.84313,1.72207 -1.80905,1.68888c-0.48496,-0.01666 -0.91705,-0.22912 -1.2229,-0.55883c-0.84774,-0.14677 -1.47859,-0.90018 -1.44823,-1.78427c0.03318,-0.96593 0.84313,-1.72207 1.80905,-1.68888c0.48496,0.01666 0.91705,0.22912 1.2229,0.55883c0.84774,0.14677 1.47859,0.90018 1.44823,1.78427z" fill="#551cba" stroke="none" stroke-width="0.5" stroke-linecap="butt"/><path d="M331.16258,124.99211c0.03318,-0.96593 0.84313,-1.72207 1.80905,-1.68888c0.96593,0.03318 1.72207,0.84313 1.68888,1.80905c-0.03318,0.96593 -0.84313,1.72207 -1.80905,1.68888c-0.96593,-0.03318 -1.72207,-0.84313 -1.68888,-1.80905z" fill="#551cba" stroke="none" stroke-width="0.5" stroke-linecap="butt"/><path d="M337.33706,124.87069c0.03318,-0.96593 0.84313,-1.72207 1.80905,-1.68888c0.96593,0.03318 1.72207,0.84313 1.68888,1.80905c-0.03318,0.96593 -0.84313,1.72207 -1.80905,1.68888c-0.96593,-0.03318 -1.72207,-0.84313 -1.68888,-1.80905z" fill="#551cba" stroke="none" stroke-width="0.5" stroke-linecap="butt"/><path d="M345.33234,125.14536c0.03318,-0.96593 0.84313,-1.72207 1.80905,-1.68888c0.96593,0.03318 1.72207,0.84313 1.68888,1.80905c-0.03318,0.96593 -0.84313,1.72207 -1.80905,1.68888c-0.96593,-0.03318 -1.72207,-0.84313 -1.68888,-1.80905z" fill="#551cba" stroke="none" stroke-width="0.5" stroke-linecap="butt"/><path d="M350.1571,125.47786c0.03318,-0.96593 0.84313,-1.72207 1.80905,-1.68888c0.96593,0.03318 1.72207,0.84313 1.68888,1.80905c-0.03318,0.96593 -0.84313,1.72207 -1.80905,1.68888c-0.96593,-0.03318 -1.72207,-0.84313 -1.68888,-1.80905z" fill="#551cba" stroke="none" stroke-width="0.5" stroke-linecap="butt"/><path d="M357.11864,126.7176c0.03318,-0.96593 0.84313,-1.72207 1.80905,-1.68888c0.96593,0.03318 1.72207,0.84313 1.68888,1.80905c-0.03318,0.96593 -0.84313,1.72207 -1.80905,1.68888c-0.96593,-0.03318 -1.72207,-0.84313 -1.68888,-1.80905z" fill="#551cba" stroke="none" stroke-width="0.5" stroke-linecap="butt"/><path d="M361.73678,128.21037c0.00619,-0.18008 0.05017,-0.34995 0.12406,-0.50224c-0.26306,-0.31808 -0.41527,-0.72993 -0.39998,-1.17488c0.03318,-0.96593 0.84313,-1.72207 1.80905,-1.68888c0.96593,0.03318 1.72207,0.84313 1.68888,1.80905c-0.0196,0.57033 -0.30998,1.06751 -0.74339,1.37228c0.0161,0.08745 0.02307,0.17799 0.0199,0.27052c-0.0237,0.68995 -0.60222,1.23005 -1.29218,1.20635c-0.68995,-0.0237 -1.23005,-0.60222 -1.20635,-1.29218z" fill="#551cba" stroke="none" stroke-width="0.5" stroke-linecap="butt"/><path d="M367.12991,126.56123c0.03318,-0.96593 0.84313,-1.72207 1.80905,-1.68888c0.96593,0.03318 1.72207,0.84313 1.68888,1.80905c-0.03318,0.96593 -0.84313,1.72207 -1.80905,1.68888c-0.96593,-0.03318 -1.72207,-0.84313 -1.68888,-1.80905z" fill="#551cba" stroke="none" stroke-width="0.5" stroke-linecap="butt"/><path d="M375.94628,124.77953c0.96593,0.03318 1.72207,0.84313 1.68888,1.80905c-0.03318,0.96593 -0.84313,1.72207 -1.80905,1.68888c-0.42526,-0.01461 -0.80986,-0.17977 -1.10432,-0.44253c-0.26382,0.14213 -0.56767,0.21832 -0.88877,0.20729c-0.96593,-0.03318 -1.72207,-0.84313 -1.68888,-1.80905c0.03318,-0.96593 0.84313,-1.72207 1.80905,-1.68888c0.42526,0.01461 0.80986,0.17977 1.10432,0.44253c0.26382,-0.14213 0.56767,-0.21832 0.88877,-0.20729z" fill="#551cba" stroke="none" stroke-width="0.5" stroke-linecap="butt"/><path d="M262.30719,126.8792c0.96593,0.03318 1.72207,0.84313 1.68888,1.80905c-0.03318,0.96593 -0.84313,1.72207 -1.80905,1.68888c-0.32109,-0.01103 -0.61901,-0.1079 -0.87245,-0.26779c-0.31182,0.24191 -0.70683,0.38031 -1.13209,0.3657c-0.96593,-0.03318 -1.72207,-0.84313 -1.68888,-1.80905c0.03318,-0.96593 0.84313,-1.72207 1.80905,-1.68888c0.32109,0.01103 0.61901,0.1079 0.87245,0.26779c0.31182,-0.24191 0.70683,-0.38031 1.13209,-0.3657z" fill="#7822e0" stroke="none" stroke-width="0.5" stroke-linecap="butt"/><path d="M376.20024,134.37725c0.00378,-0.10998 0.02165,-0.21618 0.05184,-0.31687c-0.33175,0.33819 -0.79891,0.54135 -1.30968,0.5238c-0.05617,-0.00193 -0.11165,-0.00648 -0.1663,-0.01354c-0.055,0.00329 -0.11065,0.00403 -0.16684,0.00211c-0.96593,-0.03318 -1.72207,-0.84313 -1.68888,-1.80905c0.03318,-0.96593 0.84313,-1.72207 1.80905,-1.68888c0.05617,0.00193 0.11165,0.00648 0.1663,0.01354c0.055,-0.00329 0.11065,-0.00403 0.16684,-0.00211c0.96593,0.03318 1.72207,0.84313 1.68888,1.80905c-0.00701,0.20428 -0.04878,0.39918 -0.1194,0.57921c0.17015,-0.14716 0.38012,-0.24894 0.61063,-0.28737c0.0631,-0.93779 0.85973,-1.66294 1.80608,-1.63044c0.96593,0.03318 1.72207,0.84313 1.68888,1.80905c-0.03318,0.96593 -0.84313,1.72207 -1.80905,1.68888c-0.12827,-0.0044 -0.25282,-0.02251 -0.37233,-0.05285c-0.21639,0.41103 -0.65432,0.68463 -1.14968,0.66762c-0.68995,-0.0237 -1.23005,-0.60222 -1.20635,-1.29218z" fill="#7822e0" stroke="none" stroke-width="0.5" stroke-linecap="butt"/><path d="M366.92392,132.55769c0.03318,-0.96593 0.84313,-1.72207 1.80905,-1.68888c0.38389,0.01319 0.73462,0.14906 1.01586,0.36864c0.26796,0.0134 0.5192,0.08662 0.7412,0.20625c0.0737,-0.00686 0.14867,-0.00913 0.22461,-0.00653c0.96593,0.03318 1.72207,0.84313 1.68888,1.80905c-0.03318,0.96593 -0.84313,1.72207 -1.80905,1.68888c-0.27841,-0.00957 -0.53941,-0.08366 -0.76909,-0.20743c-0.0737,0.00686 -0.14867,0.00913 -0.22461,0.00653c-0.38389,-0.01319 -0.73462,-0.14906 -1.01586,-0.36864c-0.95255,-0.04764 -1.69386,-0.85126 -1.661,-1.80788z" fill="#7822e0" stroke="none" stroke-width="0.5" stroke-linecap="butt"/><path d="M365.08562,130.24321c0.96593,0.03318 1.72207,0.84313 1.68888,1.80905c-0.03318,0.96593 -0.84313,1.72207 -1.80905,1.68888c-0.54725,-0.0188 -1.02717,-0.28692 -1.33435,-0.69149c-0.26898,0.65964 -0.92756,1.11409 -1.68105,1.08819c-0.96593,-0.03318 -1.72207,-0.84313 -1.68888,-1.80905c0.03318,-0.96593 0.84313,-1.72207 1.80905,-1.68888c0.54725,0.0188 1.02717,0.28692 1.33435,0.69149c0.26898,-0.65964 0.92756,-1.11409 1.68105,-1.08819z" fill="#7822e0" stroke="none" stroke-width="0.5" stroke-linecap="butt"/><path d="M324.46041,130.7654c0.03318,-0.96593 0.84313,-1.72207 1.80905,-1.68888c0.72781,0.025 1.33652,0.49101 1.57821,1.13244c0.18542,-0.79833 0.91461,-1.38034 1.76461,-1.35114c0.96593,0.03318 1.72207,0.84313 1.68888,1.80905c-0.03318,0.96593 -0.84313,1.72207 -1.80905,1.68888c-0.72781,-0.025 -1.33652,-0.49101 -1.57821,-1.13244c-0.18542,0.79833 -0.91461,1.38034 -1.76461,1.35114c-0.96593,-0.03318 -1.72207,-0.84313 -1.68888,-1.80905z" fill="#7822e0" stroke="none" stroke-width="0.5" stroke-linecap="butt"/><path d="M322.64533,130.20275c-0.03318,0.96593 -0.84313,1.72207 -1.80905,1.68888c-0.5679,-0.01951 -1.06328,-0.30751 -1.36837,-0.73786c-0.40839,-0.33391 -0.66172,-0.84788 -0.64221,-1.41577c0.03318,-0.96593 0.84313,-1.72207 1.80905,-1.68888c0.5679,0.01951 1.06328,0.30751 1.36837,0.73786c0.40839,0.33391 0.66172,0.84788 0.64221,1.41577z" fill="#7822e0" stroke="none" stroke-width="0.5" stroke-linecap="butt"/><path d="M312.98466,132.28897c-0.61478,-0.02112 -1.11058,-0.48276 -1.19456,-1.07121c-0.03509,-0.04994 -0.06763,-0.10177 -0.09744,-0.1553c-0.32349,0.49739 -0.89203,0.81795 -1.52823,0.7961c-0.96593,-0.03318 -1.72207,-0.84313 -1.68888,-1.80905c0.03318,-0.96593 0.84313,-1.72207 1.80905,-1.68888c0.61832,0.02124 1.15068,0.36077 1.44505,0.85576c0.22232,-0.7441 0.92444,-1.27466 1.73692,-1.24674c0.96593,0.03318 1.72207,0.84313 1.68888,1.80905c-0.00986,0.28707 -0.08832,0.5556 -0.21912,0.7904c-0.10629,0.51394 -0.43682,0.94261 -0.88179,1.1835c-0.23426,0.33681 -0.62936,0.55151 -1.06988,0.53639z" fill="#7822e0" stroke="none" stroke-width="0.5" stroke-linecap="butt"/><path d="M264.0018,128.52169c0.03318,-0.96593 0.84313,-1.72207 1.80905,-1.68888c0.96593,0.03318 1.72207,0.84313 1.68888,1.80905c-0.03318,0.96593 -0.84313,1.72207 -1.80905,1.68888c-0.96593,-0.03318 -1.72207,-0.84313 -1.68888,-1.80905z" fill="#7822e0" stroke="none" stroke-width="0.5" stroke-linecap="butt"/><path d="M268.95308,130.0259c0.02101,-0.61172 0.47817,-1.10565 1.06245,-1.19326c-0.01069,-0.08872 -0.0147,-0.17941 -0.01154,-0.27151c0.03222,-0.93784 0.79668,-1.67793 1.72521,-1.6898c0.23102,-0.10026 0.4874,-0.15199 0.75584,-0.14278c0.43924,0.01509 0.83511,0.1908 1.13309,0.46877c0.19357,0.08887 0.36003,0.22556 0.4848,0.39448c0.33418,-0.3798 0.82956,-0.61241 1.37462,-0.59368c0.96593,0.03318 1.72207,0.84313 1.68888,1.80905c-0.03318,0.96593 -0.84313,1.72207 -1.80905,1.68888c-0.67249,-0.0231 -1.2433,-0.42271 -1.51685,-0.98934c-0.31501,0.43244 -0.82258,0.7134 -1.39182,0.72068c-0.23102,0.10026 -0.4874,0.15199 -0.75584,0.14278c-0.0921,-0.00316 -0.1823,-0.01338 -0.27008,-0.03014c-0.12751,0.57688 -0.65165,0.99907 -1.26337,0.97806c-0.68995,-0.0237 -1.23005,-0.60222 -1.20635,-1.29218z" fill="#7822e0" stroke="none" stroke-width="0.5" stroke-linecap="butt"/><path d="M268.31513,148.36268c0.44523,-12.96037 11.31262,-23.10587 24.27298,-22.66064c12.96037,0.44523 23.10587,11.31261 22.66064,24.27297c-0.44523,12.96037 -11.31261,23.10588 -24.27296,22.66065c-12.96037,-0.44523 -23.10588,-11.31262 -22.66065,-24.27297z" fill="url(#color-1)" stroke="#000000" stroke-width="0" stroke-linecap="butt"/><path d="M345.20226,174.49853c-12.96037,-0.44523 -23.10587,-11.31262 -22.66064,-24.27298c0.44523,-12.96037 11.31261,-23.10587 24.27297,-22.66064c12.96037,0.44523 23.10588,11.31261 22.66065,24.27296c-0.44523,12.96037 -11.31262,23.10588 -24.27297,22.66065z" fill="url(#color-2)" stroke="#000000" stroke-width="0" stroke-linecap="butt"/><path d="M272.32897,119.13538c0.0237,-0.68995 0.60222,-1.23005 1.29218,-1.20635c0.68995,0.0237 1.23005,0.60222 1.20635,1.29218c-0.0237,0.68995 -0.60222,1.23005 -1.29218,1.20635c-0.68995,-0.0237 -1.23005,-0.60222 -1.20635,-1.29218z" fill="#3a1aaf" stroke="none" stroke-width="0.5" stroke-linecap="butt"/><path d="M289.83582,119.23651c0.0237,-0.68995 0.60222,-1.23005 1.29218,-1.20635c0.68995,0.0237 1.23005,0.60222 1.20635,1.29218c-0.0237,0.68995 -0.60222,1.23005 -1.29218,1.20635c-0.68995,-0.0237 -1.23005,-0.60222 -1.20635,-1.29218z" fill="#3a1aaf" stroke="none" stroke-width="0.5" stroke-linecap="butt"/><path d="M294.72924,117.5702c0.0237,-0.68995 0.60222,-1.23005 1.29218,-1.20635c0.68995,0.0237 1.23005,0.60222 1.20635,1.29218c-0.0237,0.68995 -0.60222,1.23005 -1.29218,1.20635c-0.68995,-0.0237 -1.23005,-0.60222 -1.20635,-1.29218z" fill="#3a1aaf" stroke="none" stroke-width="0.5" stroke-linecap="butt"/><path d="M317.39463,122.85148c0.00176,-0.0511 0.00858,-0.10083 0.01998,-0.14871c-0.48721,-0.18417 -0.82592,-0.66297 -0.80705,-1.21244c0.0237,-0.68995 0.60222,-1.23005 1.29218,-1.20635c0.68995,0.0237 1.23005,0.60222 1.20635,1.29218c-0.01136,0.33076 -0.15022,0.62707 -0.36775,0.84334c0.10286,0.13337 0.16164,0.30199 0.15542,0.48348c-0.01422,0.41397 -0.36134,0.73803 -0.77531,0.72381c-0.41397,-0.01422 -0.73803,-0.36134 -0.72381,-0.77531z" fill="#3a1aaf" stroke="none" stroke-width="0.5" stroke-linecap="butt"/><path d="M319.29554,120.91561c0.0237,-0.68995 0.60222,-1.23005 1.29218,-1.20635c0.68995,0.0237 1.23005,0.60222 1.20635,1.29218c-0.0237,0.68995 -0.60222,1.23005 -1.29218,1.20635c-0.68995,-0.0237 -1.23005,-0.60222 -1.20635,-1.29218z" fill="#3a1aaf" stroke="none" stroke-width="0.5" stroke-linecap="butt"/><path d="M353.78664,121.76695c0.0237,-0.68995 0.60222,-1.23005 1.29218,-1.20635c0.68995,0.0237 1.23005,0.60222 1.20635,1.29218c-0.0237,0.68995 -0.60222,1.23005 -1.29218,1.20635c-0.68995,-0.0237 -1.23005,-0.60222 -1.20635,-1.29218z" fill="#3a1aaf" stroke="none" stroke-width="0.5" stroke-linecap="butt"/><path d="M360.1048,122.31754c0.0237,-0.68995 0.60222,-1.23005 1.29218,-1.20635c0.68995,0.0237 1.23005,0.60222 1.20635,1.29218c-0.0237,0.68995 -0.60222,1.23005 -1.29218,1.20635c-0.68995,-0.0237 -1.23005,-0.60222 -1.20635,-1.29218z" fill="#3a1aaf" stroke="none" stroke-width="0.5" stroke-linecap="butt"/><path d="M364.16538,120.62262c0.0237,-0.68995 0.60222,-1.23005 1.29218,-1.20635c0.68995,0.0237 1.23005,0.60222 1.20635,1.29218c-0.0237,0.68995 -0.60222,1.23005 -1.29218,1.20635c-0.68995,-0.0237 -1.23005,-0.60222 -1.20635,-1.29218z" fill="#3a1aaf" stroke="none" stroke-width="0.5" stroke-linecap="butt"/><path d="M263.85812,127.84969c0.01422,-0.41397 0.36134,-0.73803 0.77531,-0.72381c0.03734,0.00128 0.07395,0.00528 0.10965,0.01178c-0.0146,-0.08381 -0.02083,-0.17037 -0.01778,-0.25878c0.0237,-0.68995 0.60222,-1.23005 1.29218,-1.20635c0.68995,0.0237 1.23005,0.60222 1.20635,1.29218c-0.0237,0.68995 -0.60222,1.23005 -1.29218,1.20635c-0.21334,-0.00733 -0.41235,-0.06771 -0.58481,-0.16802c-0.06236,0.36396 -0.38556,0.63499 -0.7649,0.62196c-0.41397,-0.01422 -0.73803,-0.36134 -0.72381,-0.77531z" fill="#551cba" stroke="none" stroke-width="0.5" stroke-linecap="butt"/><path d="M277.75197,126.32581c0.0237,-0.68995 0.60222,-1.23005 1.29218,-1.20635c0.68995,0.0237 1.23005,0.60222 1.20635,1.29218c-0.0237,0.68995 -0.60222,1.23005 -1.29218,1.20635c-0.68995,-0.0237 -1.23005,-0.60222 -1.20635,-1.29218z" fill="#551cba" stroke="none" stroke-width="0.5" stroke-linecap="butt"/><path d="M308.05025,127.86695c0.0237,-0.68995 0.60222,-1.23005 1.29218,-1.20635c0.68995,0.0237 1.23005,0.60222 1.20635,1.29218c-0.0237,0.68995 -0.60222,1.23005 -1.29218,1.20635c-0.68995,-0.0237 -1.23005,-0.60222 -1.20635,-1.29218z" fill="#551cba" stroke="none" stroke-width="0.5" stroke-linecap="butt"/><path d="M322.85194,129.0425c0.00189,-0.05512 0.00969,-0.10866 0.02277,-0.16001c-0.13681,0.04537 -0.28385,0.06766 -0.43632,0.06243c-0.68995,-0.0237 -1.23005,-0.60222 -1.20635,-1.29218c0.0237,-0.68995 0.60222,-1.23005 1.29218,-1.20635c0.68995,0.0237 1.23005,0.60222 1.20635,1.29218c-0.00727,0.21159 -0.06671,0.40907 -0.16555,0.58053c0.02056,-0.00097 0.04131,-0.00112 0.06224,-0.00041c0.09004,0.0031 0.17583,0.02194 0.25481,0.05379c-0.00285,-0.04232 -0.00359,-0.08518 -0.0021,-0.12849c0.0237,-0.68995 0.60222,-1.23005 1.29218,-1.20635c0.68995,0.0237 1.23005,0.60222 1.20635,1.29218c-0.0237,0.68995 -0.60222,1.23005 -1.29218,1.20635c-0.28844,-0.00991 -0.55068,-0.11678 -0.7565,-0.28824c-0.08288,0.3374 -0.39306,0.58227 -0.75406,0.56987c-0.41397,-0.01422 -0.73803,-0.36134 -0.72381,-0.77531z" fill="#551cba" stroke="none" stroke-width="0.5" stroke-linecap="butt"/><path d="M328.57249,127.57136c0.0237,-0.68995 0.60222,-1.23005 1.29218,-1.20635c0.68995,0.0237 1.23005,0.60222 1.20635,1.29218c-0.0237,0.68995 -0.60222,1.23005 -1.29218,1.20635c-0.68995,-0.0237 -1.23005,-0.60222 -1.20635,-1.29218z" fill="#551cba" stroke="none" stroke-width="0.5" stroke-linecap="butt"/><path d="M364.53411,129.30706c0.0237,-0.68995 0.60222,-1.23005 1.29218,-1.20635c0.68995,0.0237 1.23005,0.60222 1.20635,1.29218c-0.0237,0.68995 -0.60222,1.23005 -1.29218,1.20635c-0.68995,-0.0237 -1.23005,-0.60222 -1.20635,-1.29218z" fill="#551cba" stroke="none" stroke-width="0.5" stroke-linecap="butt"/><path d="M369.58328,132.81581c0.00437,-0.1272 0.04017,-0.2459 0.09968,-0.34892c-0.43692,-0.20702 -0.73211,-0.65915 -0.71445,-1.17308c0.0237,-0.68995 0.60222,-1.23005 1.29218,-1.20635c0.68995,0.0237 1.23005,0.60222 1.20635,1.29218c-0.01427,0.41527 -0.22952,0.77625 -0.54909,0.9927c0.10846,0.13512 0.17087,0.30825 0.16445,0.49497c-0.01422,0.41397 -0.36134,0.73803 -0.77531,0.72381c-0.41397,-0.01422 -0.73803,-0.36134 -0.72381,-0.77531z" fill="#551cba" stroke="none" stroke-width="0.5" stroke-linecap="butt"/><path d="M372.6788,130.08716c0.0237,-0.68995 0.60222,-1.23005 1.29218,-1.20635c0.68995,0.0237 1.23005,0.60222 1.20635,1.29218c-0.0237,0.68995 -0.60222,1.23005 -1.29218,1.20635c-0.68995,-0.0237 -1.23005,-0.60222 -1.20635,-1.29218z" fill="#551cba" stroke="none" stroke-width="0.5" stroke-linecap="butt"/><path d="M262.62982,134.4781c0.0237,-0.68995 0.60222,-1.23005 1.29218,-1.20635c0.68995,0.0237 1.23005,0.60222 1.20635,1.29218c-0.0237,0.68995 -0.60222,1.23005 -1.29218,1.20635c-0.68995,-0.0237 -1.23005,-0.60222 -1.20635,-1.29218z" fill="#7822e0" stroke="none" stroke-width="0.5" stroke-linecap="butt"/><path d="M318.06215,132.54678c-0.0237,0.68995 -0.60222,1.23005 -1.29218,1.20635c-0.62764,-0.02156 -1.13128,-0.50227 -1.19927,-1.10832c-0.48642,-0.18457 -0.82443,-0.66296 -0.80557,-1.21188c0.0237,-0.68995 0.60222,-1.23005 1.29218,-1.20635c0.62764,0.02156 1.13128,0.50227 1.19927,1.10832c0.48642,0.18457 0.82443,0.66296 0.80557,1.21188z" fill="#7822e0" stroke="none" stroke-width="0.5" stroke-linecap="butt"/><path d="M318.49891,134.3962c0.0237,-0.68995 0.60222,-1.23005 1.29218,-1.20635c0.68995,0.0237 1.23005,0.60222 1.20635,1.29218c-0.0237,0.68995 -0.60222,1.23005 -1.29218,1.20635c-0.68995,-0.0237 -1.23005,-0.60222 -1.20635,-1.29218z" fill="#7822e0" stroke="none" stroke-width="0.5" stroke-linecap="butt"/><path d="M367.3149,135.73966c0.0237,-0.68995 0.60222,-1.23005 1.29218,-1.20635c0.68995,0.0237 1.23005,0.60222 1.20635,1.29218c-0.0237,0.68995 -0.60222,1.23005 -1.29218,1.20635c-0.68995,-0.0237 -1.23005,-0.60222 -1.20635,-1.29218z" fill="#7822e0" stroke="none" stroke-width="0.5" stroke-linecap="butt"/><path d="M372.12821,136.4053c0.0237,-0.68995 0.60222,-1.23005 1.29218,-1.20635c0.68995,0.0237 1.23005,0.60222 1.20635,1.29218c-0.0237,0.68995 -0.60222,1.23005 -1.29218,1.20635c-0.68995,-0.0237 -1.23005,-0.60222 -1.20635,-1.29218z" fill="#7822e0" stroke="none" stroke-width="0.5" stroke-linecap="butt"/><path d="M276.78054,120.62242c0.01422,-0.41397 0.36134,-0.73803 0.77531,-0.72381c0.41397,0.01422 0.73803,0.36134 0.72381,0.77531c-0.01422,0.41397 -0.36134,0.73803 -0.77531,0.72381c-0.41397,-0.01422 -0.73803,-0.36134 -0.72381,-0.77531z" fill="#3a1aaf" stroke="none" stroke-width="0.5" stroke-linecap="butt"/><path d="M292.75394,121.67146c0.01422,-0.41397 0.36134,-0.73803 0.77531,-0.72381c0.41397,0.01422 0.73803,0.36134 0.72381,0.77531c-0.01422,0.41397 -0.36134,0.73803 -0.77531,0.72381c-0.41397,-0.01422 -0.73803,-0.36134 -0.72381,-0.77531z" fill="#3a1aaf" stroke="none" stroke-width="0.5" stroke-linecap="butt"/><path d="M357.88219,123.90883c0.01422,-0.41397 0.36134,-0.73803 0.77531,-0.72381c0.41397,0.01422 0.73803,0.36134 0.72381,0.77531c-0.01422,0.41397 -0.36134,0.73803 -0.77531,0.72381c-0.41397,-0.01422 -0.73803,-0.36134 -0.72381,-0.77531z" fill="#3a1aaf" stroke="none" stroke-width="0.5" stroke-linecap="butt"/><path d="M362.01778,124.88473c0.01422,-0.41397 0.36134,-0.73803 0.77531,-0.72381c0.41397,0.01422 0.73803,0.36134 0.72381,0.77531c-0.01422,0.41397 -0.36134,0.73803 -0.77531,0.72381c-0.41397,-0.01422 -0.73803,-0.36134 -0.72381,-0.77531z" fill="#3a1aaf" stroke="none" stroke-width="0.5" stroke-linecap="butt"/><path d="M309.64727,129.92299c0.01422,-0.41397 0.36134,-0.73803 0.77531,-0.72381c0.41397,0.01422 0.73803,0.36134 0.72381,0.77531c-0.01422,0.41397 -0.36134,0.73803 -0.77531,0.72381c-0.41397,-0.01422 -0.73803,-0.36134 -0.72381,-0.77531z" fill="#551cba" stroke="none" stroke-width="0.5" stroke-linecap="butt"/><path d="M328.80835,130.41447c0.01422,-0.41397 0.36134,-0.73803 0.77531,-0.72381c0.41397,0.01422 0.73803,0.36134 0.72381,0.77531c-0.01422,0.41397 -0.36134,0.73803 -0.77531,0.72381c-0.41397,-0.01422 -0.73803,-0.36134 -0.72381,-0.77531z" fill="#551cba" stroke="none" stroke-width="0.5" stroke-linecap="butt"/><path d="M264.83017,138.38928c0.01422,-0.41397 0.36134,-0.73803 0.77531,-0.72381c0.41397,0.01422 0.73803,0.36134 0.72381,0.77531c-0.01422,0.41397 -0.36134,0.73803 -0.77531,0.72381c-0.41397,-0.01422 -0.73803,-0.36134 -0.72381,-0.77531z" fill="#7822e0" stroke="none" stroke-width="0.5" stroke-linecap="butt"/><path d="M317.7468,136.87184c0.01422,-0.41397 0.36134,-0.73803 0.77531,-0.72381c0.41397,0.01422 0.73803,0.36134 0.72381,0.77531c-0.01422,0.41397 -0.36134,0.73803 -0.77531,0.72381c-0.41397,-0.01422 -0.73803,-0.36134 -0.72381,-0.77531z" fill="#7822e0" stroke="none" stroke-width="0.5" stroke-linecap="butt"/><path d="M371.20954,138.87522c0.01422,-0.41397 0.36134,-0.73803 0.77531,-0.72381c0.41397,0.01422 0.73803,0.36134 0.72381,0.77531c-0.01422,0.41397 -0.36134,0.73803 -0.77531,0.72381c-0.41397,-0.01422 -0.73803,-0.36134 -0.72381,-0.77531z" fill="#7822e0" stroke="none" stroke-width="0.5" stroke-linecap="butt"/></g><path d="M301.53978,128.02953c-1.7798,3.51413 -5.46764,5.43802 -9.66353,5.29388c-4.0627,-0.13956 -7.52297,-2.01118 -9.13023,-5.45945c-0.32673,-0.701 4.44563,-2.38073 9.16708,-2.30917c4.99874,0.07577 9.9685,1.79978 9.62666,2.47475z" fill="#000000" stroke="#000000" stroke-width="0" stroke-linecap="butt"/><path d="M354.67201,129.3457c-1.67256,3.43176 -5.25026,5.74125 -9.31196,5.60171c-3.88217,-0.13336 -7.03675,-2.17799 -8.57114,-5.47383c-0.33529,-0.72018 4.94946,-2.1134 9.81047,-2.01943c4.43623,0.08577 8.35617,1.3098 8.07263,1.89154z" fill="#000000" stroke="#000000" stroke-width="0" stroke-linecap="butt"/></g><g stroke="none" stroke-width="0" stroke-linecap="butt"><path d="M345.51174,229.75177c-0.87792,25.55572 26.26058,49.54148 -30.29329,45.88699c-62.92726,-4.06634 -29.17754,-21.54368 -28.29962,-47.09938c0.87792,-25.55571 18.83899,-45.88025 31.47886,-45.44603c12.63986,0.43422 27.99198,21.10271 27.11406,46.65842z" fill="#000000"/><path d="M306.96545,190.56369c2.69191,-0.05037 0.17371,9.28408 0.17371,9.28408c0,0 -2.86563,-9.23372 -0.17371,-9.28408z" fill="#e2e2e2"/><path d="M310.65056,187.83661c2.68689,0.17183 -0.59262,9.26678 -0.59262,9.26678c0,0 -2.09428,-9.43861 0.59262,-9.26678z" fill="#e2e2e2"/><path d="M326.69648,200.23375c0,0 -1.87169,-9.48526 0.81042,-9.25028c2.68211,0.23498 -0.81042,9.25028 -0.81042,9.25028z" fill="#e2e2e2"/><path d="M324.60765,197.31734c0,0 -2.64765,-9.29858 0.04472,-9.28561c2.69236,0.01296 -0.04472,9.28561 -0.04472,9.28561z" fill="#e2e2e2"/><path d="M321.47722,195.35358c0,0 -2.54104,-9.32826 0.15099,-9.28448c2.69203,0.04378 -0.15099,9.28448 -0.15099,9.28448z" fill="#e2e2e2"/><path d="M314.15326,185.66937c2.68869,0.14106 -0.48652,9.27296 -0.48652,9.27296c0,0 -2.20218,-9.41402 0.48652,-9.27296z" fill="#e2e2e2"/><path d="M316.81405,184.15268c2.68869,0.14106 -0.48652,9.27296 -0.48652,9.27296c0,0 -2.20218,-9.41402 0.48652,-9.27296z" fill="#e2e2e2"/><path d="M319.28865,193.52736c0,0 -2.54104,-9.32827 0.15099,-9.28449c2.69203,0.04378 -0.15099,9.28449 -0.15099,9.28449z" fill="#e2e2e2"/></g><g stroke="none" stroke-width="0" stroke-linecap="butt"><path d="M298.70945,261.89036c-0.34984,10.18376 -9.03014,18.15089 -19.38798,17.79506c-10.35785,-0.35582 -18.47093,-8.89986 -18.12109,-19.08362c0.34984,-10.18376 1.0122,-19.27234 19.38798,-17.79506c29.19088,2.34673 18.47093,8.89985 18.12109,19.08362z" fill="#751cbd"/><path d="M350.97302,245.2247c18.43385,-0.21275 18.47093,8.89985 18.12109,19.08362c-0.34984,10.18376 -9.03014,18.15089 -19.38798,17.79506c-10.35785,-0.35582 -18.47093,-8.89986 -18.12109,-19.08362c0.34984,-10.18376 -9.89511,-17.4571 19.38798,-17.79506z" fill="#751cbd"/><path d="M298.6878,262.52077c-0.34984,10.18376 -9.03014,18.15089 -19.38798,17.79506c-10.35785,-0.35582 -18.47093,-8.89986 -18.12109,-19.08362c0.34984,-10.18376 1.0122,-19.27234 19.38798,-17.79506c29.19088,2.34673 18.47093,8.89985 18.12109,19.08362z" fill="#8b21e0"/><path d="M350.95137,245.8551c18.43385,-0.21275 18.47093,8.89985 18.12109,19.08362c-0.34984,10.18376 -9.03014,18.15089 -19.38798,17.79506c-10.35785,-0.35582 -18.47093,-8.89986 -18.12109,-19.08362c0.34984,-10.18376 -9.89511,-17.4571 19.38798,-17.79506z" fill="#8b21e0"/></g></g></g></g></svg>