<svg version="1.1" xmlns="http://www.w3.org/2000/svg" xmlns:xlink="http://www.w3.org/1999/xlink" width="213.18203" height="281.18477" viewBox="0,0,213.18203,281.18477"><defs><linearGradient x1="320.08743" y1="187.07228" x2="320.08743" y2="244.23178" gradientUnits="userSpaceOnUse" id="color-1"><stop offset="0" stop-color="#57596b"/><stop offset="1" stop-color="#57596b" stop-opacity="0"/></linearGradient><linearGradient x1="318.11503" y1="89.7608" x2="318.11503" y2="210.35747" gradientUnits="userSpaceOnUse" id="color-2"><stop offset="0" stop-color="#6b717d" stop-opacity="0.28235"/><stop offset="1" stop-color="#6b717d" stop-opacity="0"/></linearGradient></defs><g transform="translate(-214.52362,-38.88751)"><g stroke-miterlimit="10"><path d="M214.52362,306.61252v-267.72501h213.18203v267.72501z" fill="none" stroke="none" stroke-width="0" stroke-linecap="butt"/><path d="M286.35186,319.07227l15.14285,-131.8421l37.78325,-0.15789l13.57389,132z" fill="#b9bebf" stroke="#000000" stroke-width="0" stroke-linecap="butt"/><path d="M295.01903,243.61118l6.47569,-56.38101l37.78325,-0.15789l5.87786,57.15951z" fill="url(#color-1)" stroke="#000000" stroke-width="0" stroke-linecap="butt"/><path d="M286.35186,319.07227l15.14285,-131.8421l37.78325,-0.15789l13.57389,132z" fill="none" stroke="#000000" stroke-width="2" stroke-linecap="butt"/><path d="M253.87801,150.05913c0,-33.30185 28.7599,-60.29833 64.23702,-60.29833c35.47713,0 64.23702,26.99648 64.23702,60.29833c0,33.30185 -28.75989,60.29834 -64.23702,60.29834c-35.47712,0 -64.23702,-26.99649 -64.23702,-60.29834z" fill="#b9bebf" stroke="#000000" stroke-width="2" stroke-linecap="butt"/><path d="M253.87801,150.05913c0,-33.30185 28.7599,-60.29833 64.23702,-60.29833c35.47713,0 64.23702,26.99648 64.23702,60.29833c0,33.30185 -28.75989,60.29834 -64.23702,60.29834c-35.47712,0 -64.23702,-26.99649 -64.23702,-60.29834z" fill="url(#color-2)" stroke="#000000" stroke-width="2" stroke-linecap="butt"/><path d="M267.50511,150.33475c0,-12.96801 10.51265,-23.48065 23.48066,-23.48065c12.96801,0 23.48065,10.51264 23.48065,23.48065c0,12.96801 -10.51264,23.48066 -23.48065,23.48066c-12.96801,0 -23.48066,-10.51265 -23.48066,-23.48066z" fill="#ffffff" stroke="#000000" stroke-width="2" stroke-linecap="butt"/><path d="M268.99459,150.07244c0,-8.29964 6.72818,-15.02784 15.02783,-15.02784c8.29964,0 15.02784,6.72819 15.02784,15.02785c0,8.29964 -6.72819,15.02785 -15.02784,15.02785c-8.29964,0 -15.02783,-6.72819 -15.02783,-15.02785z" fill="#000000" stroke="#000000" stroke-width="5" stroke-linecap="butt"/><path d="" fill="none" stroke="#000000" stroke-width="2" stroke-linecap="round"/><path d="M345.24424,173.81544c-12.96801,0 -23.48065,-10.51265 -23.48065,-23.48066c0,-12.96801 10.51264,-23.48065 23.48065,-23.48065c12.96801,0 23.48066,10.51264 23.48066,23.48065c0,12.96801 -10.51265,23.48066 -23.48066,23.48066z" fill="#ffffff" stroke="#000000" stroke-width="2" stroke-linecap="butt"/><path d="M352.96837,150.84378c0,8.29966 -6.72818,15.02785 -15.02783,15.02785c-8.29964,0 -15.02784,-6.72821 -15.02784,-15.02785c0,-8.29966 6.7282,-15.02785 15.02784,-15.02785c8.29964,0 15.02783,6.7282 15.02783,15.02784z" fill="#000000" stroke="#000000" stroke-width="5" stroke-linecap="butt"/><path d="M279.70412,118.94742c0,0 7.63605,-3.66355 12.8614,-3.77536c5.22537,-0.1118 11.92012,3.24511 11.92012,3.24511c0,0 -7.85042,-1.72795 -11.8858,-1.6416c-4.21712,0.09024 -12.89572,2.17185 -12.89572,2.17185z" fill="#000000" stroke="none" stroke-width="0" stroke-linecap="butt"/><path d="M343.82865,116.76364c-4.03047,-0.21678 -11.93266,1.25644 -11.93266,1.25644c0,0 6.79979,-3.1387 12.0188,-2.858c5.219,0.2807 12.7326,4.18924 12.7326,4.18924c0,0 -8.60675,-2.36113 -12.81875,-2.58768z" fill="#000000" stroke="none" stroke-width="0" stroke-linecap="butt"/><path d="M332.233,208.00135l-15.77291,-4.89449" fill="none" stroke="#000000" stroke-width="2" stroke-linecap="round"/><path d="M270.97098,138.05046c4.13162,-6.71731 11.55015,-11.19635 20.01482,-11.19635c8.6645,0 16.23287,4.69301 20.30189,11.67579c1.00179,1.71915 -9.17553,-0.88667 -19.69008,-0.97735c-10.69761,-0.09227 -21.73516,2.30019 -20.62663,0.49791z" fill="#b9bebf" stroke="#000000" stroke-width="2" stroke-linecap="butt"/><path d="M324.89329,138.61447c4.05706,-7.02943 11.65151,-11.76035 20.35093,-11.76035c8.52455,0 15.98811,4.54264 20.10201,11.33925c1.00188,1.65522 -8.19728,-1.03241 -18.08107,-0.83814c-11.27108,0.22154 -23.43248,3.09692 -22.37186,1.25924z" fill="#b9bebf" stroke="#000000" stroke-width="2" stroke-linecap="butt"/><g stroke="#000000" stroke-linecap="butt"><path d="M400.00514,97.9428c0.25742,6.64806 -36.0191,13.45014 -81.02591,15.19287c-45.00679,1.74273 -81.7007,-2.23382 -81.95812,-8.88188c-0.25742,-6.64806 36.0191,-13.45014 81.02591,-15.19287c45.0068,-1.74273 81.7007,2.23382 81.95812,8.88188z" fill="#cad6d8" stroke-width="2"/><path d="M290.29525,112.35856c0,0 -9.68463,-0.19259 -14.24662,-0.44351c-4.48073,-0.24644 -12.88594,-1.04883 -12.88594,-1.04883c0,0 34.06197,-8.05229 44.63215,-11.87943c7.94655,-2.8772 13.19424,-9.05775 13.19424,-9.05775c0,0 15.04619,-0.16773 19.27941,-0.17288c2.07804,-0.00254 4.65297,0.14369 4.65297,0.14369c0,0 -21.79517,6.53823 -31.03375,10.33654c-8.96173,3.68447 -23.59245,12.12217 -23.59245,12.12217z" fill="#faffff" stroke-width="0"/></g><path d="M317.02065,97.1539v-40.05561l-6.60953,-4.93184c0,0 5.37613,2.76173 8.0234,2.76173c2.75014,0 8.18061,-2.76173 8.18061,-2.76173l-6.60953,4.93184v40.05561z" fill="#9ea2a2" stroke="#000000" stroke-width="1.5" stroke-linecap="butt"/></g></g></svg>