<svg version="1.1" xmlns="http://www.w3.org/2000/svg" xmlns:xlink="http://www.w3.org/1999/xlink" width="259.87351" height="269.84171" viewBox="0,0,259.87351,269.84171"><g transform="translate(-184.48892,-29.08308)"><g stroke-miterlimit="10"><path d="M190.1791,298.92479v-267.72501h254.18333v267.72501z" fill="none" stroke="none" stroke-width="0" stroke-linecap="butt"/><path d="" fill="none" stroke="#000000" stroke-width="2" stroke-linecap="round"/><g><g stroke="#000000"><path d="M294.0203,215.99412l49.70439,-10.87688l-15.1652,52.65336z" fill="#ff6300" stroke-width="5" stroke-linecap="round"/><path d="M246.55707,188.85937l43.28045,26.75136l-47.51529,27.28842z" fill="#ff6300" stroke-width="5" stroke-linecap="round"/><path d="M230.25358,139.23794l12.58272,49.30018l-53.14455,-13.34231z" fill="#ff6300" stroke-width="5" stroke-linecap="round"/><path d="M259.04505,93.63126l-28.0993,42.41771l-25.78055,-48.35001z" fill="#ff6300" stroke-width="5" stroke-linecap="round"/><path d="M314.83245,76.63611l-49.86305,10.12464l15.95902,-52.41822z" fill="#ff6300" stroke-width="5" stroke-linecap="round"/><path d="M366.3927,106.19339l-42.4177,-28.0993l48.35001,-25.78055z" fill="#ff6300" stroke-width="5" stroke-linecap="round"/><path d="M377.31545,157.30447l-10.12463,-49.86305l52.41823,15.95902z" fill="#ff6300" stroke-width="5" stroke-linecap="round"/><path d="M347.60547,202.46875l28.0993,-42.41771l25.78055,48.35001z" fill="#ff6300" stroke-width="5" stroke-linecap="round"/><path d="M230.41237,161.66263c-8.2279,-38.21105 18.10161,-76.29294 58.80858,-85.0583c40.707,-8.76536 80.37657,15.1051 88.60447,53.31614c8.2279,38.21105 -18.1016,76.29295 -58.80858,85.05831c-40.70698,8.76535 -80.37657,-15.10511 -88.60447,-53.31615z" fill="#ffe63c" stroke-width="5" stroke-linecap="butt"/><path d="M294.02031,215.99412l49.70438,-10.87688l-15.16519,52.65337z" fill="#ff6300" stroke-width="0" stroke-linecap="round"/><path d="M246.55708,188.85937l43.28045,26.75136l-47.51529,27.28842z" fill="#ff6300" stroke-width="0" stroke-linecap="round"/><path d="M230.25358,139.23793l12.58271,49.30018l-53.14455,-13.34231z" fill="#ff6300" stroke-width="0" stroke-linecap="round"/><path d="M259.04505,93.63126l-28.0993,42.41771l-25.78055,-48.35001z" fill="#ff6300" stroke-width="0" stroke-linecap="round"/><path d="M314.83245,76.63611l-49.86305,10.12463l15.95902,-52.41822z" fill="#ff6300" stroke-width="0" stroke-linecap="round"/><path d="M366.3927,106.19339l-42.41771,-28.0993l48.35001,-25.78055z" fill="#ff6300" stroke-width="0" stroke-linecap="round"/><path d="M377.31544,157.30447l-10.12463,-49.86305l52.41823,15.95902z" fill="#ff6300" stroke-width="0" stroke-linecap="round"/><path d="M347.60547,202.46874l28.0993,-42.41771l25.78055,48.35001z" fill="#ff6300" stroke-width="0" stroke-linecap="round"/><path d="M230.41237,161.66263c-8.2279,-38.21105 18.10161,-76.29294 58.80858,-85.0583c40.707,-8.76536 80.37657,15.1051 88.60447,53.31614c8.2279,38.21105 -18.1016,76.29295 -58.80858,85.05831c-40.70698,8.76535 -80.37657,-15.10511 -88.60447,-53.31615z" fill="#ffe63c" stroke-width="0" stroke-linecap="butt"/></g><path d="M263.25608,143.43385c-1.28734,-5.97855 2.51562,-11.86873 8.49417,-13.15607c5.97855,-1.28734 11.86873,2.51562 13.15607,8.49417c1.28734,5.97855 -3.91975,8.19129 -9.8983,9.47865c-5.97855,1.28734 -10.4646,1.16181 -11.75195,-4.81674z" fill="#000000" stroke="none" stroke-width="NaN" stroke-linecap="butt"/><path d="M331.36061,136.72858c-5.97855,1.28734 -11.76089,0.82865 -13.04824,-5.14989c-1.28734,-5.97855 2.51562,-11.86873 8.49417,-13.15607c5.97855,-1.28734 11.86873,2.51562 13.15607,8.49417c1.28734,5.97855 -2.62346,8.52445 -8.60201,9.8118z" fill="#000000" stroke="none" stroke-width="NaN" stroke-linecap="butt"/><path d="M337.53471,194.09338c0,0 -6.60958,12.29106 -18.24351,14.79617c-11.63394,2.50511 -23.8867,-5.72436 -23.8867,-5.72436c0,0 10.73367,1.17465 22.3676,-1.33046c11.63394,-2.50511 19.76261,-7.74135 19.76261,-7.74135z" fill="#000000" stroke="#000000" stroke-width="1.5" stroke-linecap="butt"/></g></g></g></svg>