<svg version="1.1" xmlns="http://www.w3.org/2000/svg" xmlns:xlink="http://www.w3.org/1999/xlink" width="155.85083" height="92.07833" viewBox="0,0,155.85083,92.07833"><g transform="translate(-242.07458,-133.96083)"><g fill="#ffffff" stroke="none" stroke-width="0.5" stroke-miterlimit="10"><path d="M311.75,226c-10.66954,-0.00491 -19.67254,-4.09952 -27.87984,-10.71096c-2.97034,-2.39278 -5.78929,-4.69559 -8.06619,-7.28248c-2.72249,1.59739 -5.51173,3.04487 -8.84469,2.72928c-1.41344,-0.13383 -3.08926,-0.93388 -4.45094,-1.35268c-4.46208,-1.37238 -9.66711,-3.13457 -12.79749,-6.90172c-3.48195,-4.19023 -6.29102,-9.75098 -7.62632,-14.94371c-0.34247,-11.91586 8.21688,-18.33243 17.59786,-23.64832c5.10948,-2.85762 11.95197,-2.52678 17.60854,-3.54494c1.95656,-0.35218 3.16297,-1.71989 4.99405,-2.31483c1.88458,-0.61233 4.0564,-0.78743 6.00399,-1.16184c3.70692,-0.593 7.37725,-0.25285 11.05363,-0.44553c1.66792,-1.37938 3.38894,-2.59825 5.09552,-3.60183c3.7028,-1.5907 6.91761,-1.09286 10.67808,-2.06348c6.01803,-1.55333 10.63504,-4.99197 15.7079,-8.36526c5.95166,-5.11111 13.52798,-9.62654 21.80418,-8.1453c1.97031,0.35264 3.95111,1.0904 5.88055,1.62635c10.3159,2.86553 16.95406,10.52279 19.71396,20.58935c0.08958,2.5388 -0.94625,6.16878 -0.22164,8.58226c0.68776,2.29073 3.0143,3.52728 4.88814,4.70939c4.25711,2.6856 8.4108,5.44203 12.52298,8.34907c1.48934,1.84942 3.03644,4.81924 2.34206,7.31967c-0.88704,3.19417 -3.98129,5.81538 -5.29128,8.87005c-1.70488,3.9755 -1.16011,7.61644 -0.45023,11.7579c0.58729,3.42632 1.19295,6.84962 1.72288,10.2854c0.21376,1.38593 0.46034,3.03783 -0.67838,4.18401c-1.08507,1.09218 -3.07489,1.08435 -4.46356,1.12592c-3.98939,0.11944 -7.97914,0.2283 -11.96873,0.34079c-3.01375,0.30019 -5.06328,1.16985 -7.86917,1.96718c-7.28491,2.0701 -15.08383,1.9806 -22.56925,2.00541c-5.00083,0.01658 -10.00153,0.0299 -15.00239,0.03022c-2.49107,0.00016 -5.28752,0.28427 -7.697,-0.50652c-0.91726,-0.30105 -1.75674,-0.73142 -2.54971,-1.23634c-3.00443,0.97498 -6.06826,1.74492 -9.1875,1.75349z"/></g></g></svg>