<svg version="1.1" xmlns="http://www.w3.org/2000/svg" xmlns:xlink="http://www.w3.org/1999/xlink" width="213.18203" height="281.18475" viewBox="0,0,213.18203,281.18475"><defs><linearGradient x1="320.08742" y1="187.07227" x2="320.08742" y2="244.23177" gradientUnits="userSpaceOnUse" id="color-1"><stop offset="0" stop-color="#110042"/><stop offset="1" stop-color="#110042" stop-opacity="0"/></linearGradient><linearGradient x1="319.6019" y1="107.99706" x2="319.6019" y2="228.59373" gradientUnits="userSpaceOnUse" id="color-2"><stop offset="0" stop-color="#190953"/><stop offset="1" stop-color="#1c19ee"/></linearGradient></defs><g transform="translate(-214.52362,-38.88752)"><g stroke-miterlimit="10"><g stroke="#000000"><g stroke-linecap="butt"><path d="M286.35186,319.07226l15.14285,-131.8421l37.78325,-0.15789l13.57389,132z" fill="#1c19ee" stroke-width="0"/><path d="M295.01902,243.61117l6.47569,-56.38101l37.78325,-0.15789l5.87786,57.15951z" fill="url(#color-1)" stroke-width="0"/><path d="M286.35186,319.07226l15.14285,-131.8421l37.78325,-0.15789l13.57389,132z" fill="none" stroke-width="2"/></g><path d="M346.32908,201.92287l6.2192,36.16355l-3.22477,-3.68546l-0.69102,13.59012l-4.14614,-2.99444l-2.30341,9.21364l-8.06194,-13.12944l-2.99443,4.60682l-13.59012,-13.12944l0.92136,-26.48922z" fill="#2f1894" stroke-width="2" stroke-linecap="round"/><path d="M322.60395,207.45105l-0.92136,23.03411l-11.05637,12.66876l-1.84273,-8.75296l-9.21364,13.12944l-5.0675,-7.14057l-3.22478,3.22477l5.29784,-42.15241l25.7982,4.37648" fill="#2f1894" stroke-width="2" stroke-linecap="round"/><path d="M313.15997,226.7997l15.20251,1.38204" fill="none" stroke-width="2" stroke-linecap="round"/><path d="M318.68815,221.96253l8.29228,1.15171" fill="none" stroke-width="2" stroke-linecap="round"/><path d="M328.13213,215.51298l-8.9833,-0.23034" fill="none" stroke-width="2" stroke-linecap="round"/><path d="M325.59838,211.59719l-4.83716,0.23034" fill="none" stroke-width="2" stroke-linecap="round"/></g><path d="M214.52362,122.5036v-83.61608h213.18203v267.72501h-213.18203v-169.22364" fill="none" stroke="none" stroke-width="0" stroke-linecap="butt"/><path d="" fill="none" stroke="#000000" stroke-width="2" stroke-linecap="round"/><g><path d="M364.95816,130.86694c0,15.5837 -22.74329,22.68859 -47.10474,22.68859c-24.36145,0 -52.40258,-5.72285 -52.40258,-21.30655c0,-15.5837 28.04113,-36.50905 52.40258,-36.50905c27.58622,0 47.10474,19.54331 47.10474,35.12701z" fill="#2f1894" stroke="#000000" stroke-width="2" stroke-linecap="butt"/><path d="M255.36488,168.29539c0,-33.30185 28.7599,-60.29833 64.23702,-60.29833c35.47713,0 64.23702,26.99648 64.23702,60.29833c0,33.30185 -28.75989,60.29834 -64.23702,60.29834c-35.47712,0 -64.23702,-26.99649 -64.23702,-60.29834z" fill="url(#color-2)" stroke="#000000" stroke-width="2" stroke-linecap="butt"/><path d="M268.99199,168.57101c0,-12.96801 10.51265,-23.48065 23.48066,-23.48065c12.96801,0 23.48065,10.51264 23.48065,23.48065c0,12.96801 -10.51264,23.48066 -23.48065,23.48066c-12.96801,0 -23.48066,-10.51265 -23.48066,-23.48066z" fill="#ffffff" stroke="#000000" stroke-width="2" stroke-linecap="butt"/><path d="M276.90144,169.36145c0,-8.29964 6.72818,-15.02784 15.02783,-15.02784c8.29964,0 15.02784,6.72819 15.02784,15.02785c0,8.29964 -6.72819,15.02785 -15.02784,15.02785c-8.29964,0 -15.02783,-6.72819 -15.02783,-15.02785z" fill="#000000" stroke="#000000" stroke-width="5" stroke-linecap="butt"/><path d="M346.73111,192.05169c-12.96801,0 -23.48065,-10.51265 -23.48065,-23.48066c0,-12.96801 10.51264,-23.48065 23.48065,-23.48065c12.96801,0 23.48066,10.51264 23.48066,23.48065c0,12.96801 -10.51265,23.48066 -23.48066,23.48066z" fill="#ffffff" stroke="#000000" stroke-width="2" stroke-linecap="butt"/><path d="M362.05645,169.14824c0,8.29966 -6.72818,15.02785 -15.02783,15.02785c-8.29964,0 -15.02784,-6.72821 -15.02784,-15.02785c0,-8.29966 6.7282,-15.02785 15.02784,-15.02785c8.29964,0 15.02783,6.7282 15.02783,15.02784z" fill="#000000" stroke="#000000" stroke-width="5" stroke-linecap="butt"/><path d="M281.11375,136.97982c0,0 7.6761,-3.57887 12.90237,-3.63287c5.22628,-0.054 11.88349,3.37677 11.88349,3.37677c0,0 -7.83084,-1.81468 -11.86692,-1.77297c-4.21786,0.04358 -12.91895,2.02907 -12.91895,2.02907z" fill="#000000" stroke="none" stroke-width="0" stroke-linecap="butt"/><path d="M345.35362,134.93894c-4.02426,-0.31146 -11.9589,0.9756 -11.9589,0.9756c0,0 6.87169,-2.978 12.08266,-2.57469c5.21097,0.40329 12.63061,4.48738 12.63061,4.48738c0,0 -8.54887,-2.56279 -12.75437,-2.88828z" fill="#000000" stroke="none" stroke-width="0" stroke-linecap="butt"/><path d="M268.99199,168.57101c0,-12.96801 10.51265,-23.48065 23.48066,-23.48065c12.96801,0 23.48065,10.51264 23.48065,23.48065c0,0.72556 -46.96131,0.89776 -46.96131,0z" fill="#1a0f94" stroke="#000000" stroke-width="2" stroke-linecap="butt"/><path d="M323.25046,168.57103c0,-12.96801 10.51264,-23.48065 23.48065,-23.48065c12.96801,0 23.48066,10.51264 23.48066,23.48065c0,0.7456 -46.96131,0.87416 -46.96131,0z" fill="#1a0f94" stroke="#000000" stroke-width="2" stroke-linecap="butt"/><path d="M335.40206,225.83606c0,2.60788 -5.72356,4.72199 -12.78393,4.72199c-7.06037,0 -12.78393,-2.11411 -12.78393,-4.72199c0,-2.60788 5.72356,-4.72199 12.78393,-4.72199c7.06037,0 12.78393,2.11411 12.78393,4.72199z" fill="#000000" stroke="#000000" stroke-width="2" stroke-linecap="butt"/><path d="M387.79046,166.91531c0.01736,41.48702 -26.79988,64.41718 -65.87754,64.26515c-41.92755,-0.16313 -69.99875,-24.67776 -70.7147,-62.8831c-0.71595,-38.20534 31.46677,-66.22026 69.10231,-63.80447c37.63554,2.4158 67.47411,24.61423 67.48992,62.42242zM321.65545,227.35999c28.60094,-0.39737 56.06821,-36.25888 56.06821,-36.25888l-58.37162,-72.19207l-57.68059,73.80446c0,0 31.38306,35.04386 59.984,34.64649z" fill="#2f1894" stroke="#000000" stroke-width="2" stroke-linecap="round"/><path d="M311.08813,102.52423c0.59127,0.05693 1.17619,0.13065 1.75639,0.21747c5.49934,0.43122 10.96279,0.67371 16.46114,1.34007c0.98639,0.11954 5.09431,0.30494 5.90954,0.76447c0.07547,0.04254 0.15046,0.0858 0.225,0.12974l0.01906,-0.04901l3.76275,1.46329c2.43232,0.19423 4.80807,0.54769 7.0625,1.22366c3.13333,0.9395 5.78475,2.25791 8.49878,3.98345c0,0 7.63734,8.02208 6.29515,10.13123c-1.34219,2.10915 -8.97953,-4.76122 -8.97953,-4.76122c-2.17658,-1.38629 -4.63709,-3.83187 -7.16441,-4.53917c-5.49624,-1.53818 -11.89773,-0.67553 -17.56069,-1.30372c-8.68039,-0.96291 -16.96845,-2.98924 -25.75944,-2.97991c-1.62141,0 -2.8049,1.30287 -4.4034,1.57447c-3.26313,0.55444 -5.53493,1.56888 -7.64929,3.68216c-2.46493,2.46368 -4.93,3.95491 -6.09817,7.37887l-0.34376,0.72436c0,0 -1.11803,2.23607 -3.3541,1.11803c-2.23607,-1.11803 -3.07418,-3.32077 -3.07418,-3.32077c1.58829,-4.18378 6.28852,-6.38827 9.33468,-9.43603c2.92029,-2.92182 5.47625,-5.85285 9.85663,-6.68318c0.26213,-0.04969 5.35605,-0.03792 5.7316,-0.03792c0.78935,0.00077 1.57093,0.01774 2.34632,0.04881c0.40077,-0.84586 1.26232,-1.43086 2.2605,-1.43086h2.99443c0,0 1.13195,0 1.8725,0.76168z" fill="#2f1894" stroke="none" stroke-width="0.5" stroke-linecap="butt"/></g></g></g></svg>