<svg version="1.1" xmlns="http://www.w3.org/2000/svg" xmlns:xlink="http://www.w3.org/1999/xlink" width="229.6035" height="272.93481" viewBox="0,0,229.6035,272.93481"><defs><linearGradient x1="318.96396" y1="240.85416" x2="318.96396" y2="276.16738" gradientUnits="userSpaceOnUse" id="color-1"><stop offset="0" stop-color="#005cff" stop-opacity="0"/><stop offset="1" stop-color="#005cff" stop-opacity="0.2"/></linearGradient><radialGradient cx="330.55451" cy="149.96642" r="64.23702" gradientUnits="userSpaceOnUse" id="color-2"><stop offset="0" stop-color="#aca5f2"/><stop offset="1" stop-color="#f3ca58"/></radialGradient><radialGradient cx="303.20461" cy="147.87263" r="23.48066" gradientUnits="userSpaceOnUse" id="color-3"><stop offset="0" stop-color="#ffffff"/><stop offset="1" stop-color="#ff6d6d"/></radialGradient><radialGradient cx="357.26046" cy="152.55778" r="23.48066" gradientUnits="userSpaceOnUse" id="color-4"><stop offset="0" stop-color="#ffffff"/><stop offset="1" stop-color="#ff6d6d"/></radialGradient></defs><g transform="translate(-213.40902,-46.13752)"><g stroke-miterlimit="10"><path d="M213.40902,313.86253v-267.72501h213.18203v267.72501z" fill="none" stroke="none" stroke-width="0" stroke-linecap="butt"/><g stroke-linecap="butt"><g><g stroke-width="0"><path d="M370.70107,269.87901c-0.06778,1.44597 -1.41901,-4.97989 -6.32499,-5.20986c-4.90598,-0.22997 -8.51273,-3.00784 -8.44495,-4.45381c0.06778,-1.44597 4.09981,0.87984 9.00579,1.10981c4.90598,0.22997 5.83193,7.10789 5.76415,8.55386z" fill="#f29d0f" stroke="#000000"/><path d="M363.39927,263.52069c0,8.78876 -6.18635,0.14404 -15.95739,0.14404c-9.77104,0 -15.01123,-7.44009 -15.01123,-16.22885c0,-8.78876 7.92099,-4.71717 17.69203,-4.71717c9.77104,0 13.27659,12.01322 13.27659,20.80198z" fill="#f2d40e" stroke="#000000"/><path d="M357.81448,254.49467c0,-0.69036 0.55964,-1.25 1.25,-1.25c0.69036,0 1.25,0.55964 1.25,1.25c0,0.69036 -0.55964,1.25 -1.25,1.25c-0.69036,0 -1.25,-0.55964 -1.25,-1.25z" fill="#000000" stroke="none"/></g><path d="M286.35186,319.07232c0,0 -1.89355,-25.93292 0.55642,-47.26366c2.58988,-22.54893 14.58643,-84.57844 14.58643,-84.57844l37.78325,-0.15789c0,0 9.71821,48.53571 12.06959,71.4019c2.15633,20.96935 1.5043,60.5981 1.5043,60.5981z" fill="#f3ca58" stroke="#000000" stroke-width="0"/><path d="M293.32495,231.42272c3.92467,-22.12412 8.16979,-44.1925 8.16979,-44.1925l37.78325,-0.15789c0,0 4.58735,22.91064 8.22116,44.66623c0.01212,0.07254 -54.19728,-0.18574 -54.1742,-0.31584z" fill="#f2bc49" stroke="#000000" stroke-width="0"/><path d="M294.35562,225.2111c3.47387,-19.2454 7.13909,-37.98086 7.13909,-37.98086l37.78325,-0.15789c0,0 3.7397,19.39228 7.08641,38.61124c0.00071,0.00407 -52.0355,-0.32431 -52.00875,-0.47248z" fill="#ffc72e" stroke="#000000" stroke-width="0"/><path d="M309.43057,274.95004c-0.60434,0 -1.13393,-0.23881 -1.42855,-0.59687c-0.40832,-0.03148 -0.71369,-0.15576 -0.71369,-0.15576c-2.81592,-1.14616 -6.6205,-2.20571 -9.08745,-3.72458c-5.15584,-3.1744 -6.48202,-7.967 -2.60749,-12.21832c3.34303,-3.66814 9.07756,-4.44116 14.1588,-5.7515c3.39017,-0.87425 6.25511,-2.47282 9.63619,-3.37881c2.25387,-0.97114 5.50095,-1.85595 7.42542,-3.16024c1.26199,-0.8553 1.68883,-2.21259 2.8379,-3.12013c0.82862,-0.65444 4.11036,-2.27023 5.42408,-1.94755c2.52904,0.62119 4.05401,5.49475 4.87382,7.17382c0.81561,1.67047 2.09706,2.72111 2.94108,4.38572c2.22816,4.39447 2.39218,10.85669 -0.38497,15.07163c-4.12178,4.62147 -13.47245,8.29221 -20.91425,8.62036c-3.3941,0.14966 -6.97675,-0.59431 -10.29739,-1.01544l-1.59475,-0.19833c-0.0875,0.01053 -0.17726,0.016 -0.26874,0.016z" fill="url(#color-1)" stroke="none" stroke-width="0.5"/><path d="M296.01192,216.45649c2.97215,-16.24462 5.48281,-29.22625 5.48281,-29.22625l37.78325,-0.15789c0,0 2.77645,13.86644 5.72037,30.26775c0.00971,0.0541 -49.03891,-0.59676 -48.98643,-0.88361z" fill="#ff9600" stroke="#000000" stroke-width="0"/><g stroke-width="0"><path d="M356.84064,264.74938c-0.16935,10.05097 -14.10853,4.57839 -35.80932,4.57839c-21.70078,0 -38.91576,4.34675 -38.50428,-5.05147c0.52608,-12.01574 17.11889,-0.63604 38.81967,-0.63604c21.70078,0 35.63747,-7.40967 35.49394,1.10912z" fill="#f2d40e" stroke="#000000"/><path d="M344.09441,266.38599c0,-0.97798 0.79281,-1.77078 1.77078,-1.77078c0.97798,0 1.77078,0.79281 1.77078,1.77078c0,0.97798 -0.79281,1.77078 -1.77078,1.77078c-0.97798,0 -1.77078,-0.79281 -1.77078,-1.77078z" fill="#080700" stroke="none"/><path d="M348.70223,261.04886c-0.3209,3.37178 -1.40371,2.88109 -2.86307,2.7422c-1.45936,-0.13889 -2.74263,0.12661 -2.42173,-3.24517c0.3209,-3.37178 3.22345,-5.85366 3.22345,-5.85366c0,0 2.38226,2.98485 2.06135,6.35663z" fill="#f2d40e" stroke="none"/><path d="M340.02663,267.57169c2.8247,-1.86894 3.12333,-0.71826 3.93224,0.50431c0.80891,1.22257 1.82178,2.05407 -1.00292,3.92301c-2.8247,1.86894 -6.57922,1.17036 -6.57922,1.17036c0,0 0.82521,-3.72874 3.64991,-5.59769z" fill="#f2d40e" stroke="none"/><path d="M345.92962,271.74289c-0.96942,-3.24532 0.21842,-3.1974 1.62304,-3.61698c1.40462,-0.41958 2.49413,-1.14777 3.46355,2.09755c0.96942,3.24532 -0.78801,6.63589 -0.78801,6.63589c0,0 -3.32917,-1.87113 -4.29858,-5.11645z" fill="#f2d40e" stroke="none"/><path d="M343.03152,260.28157c2.52782,2.25433 1.49142,2.83668 0.51571,3.93076c-0.97571,1.09408 -1.52125,2.28558 -4.04907,0.03125c-2.52782,-2.25433 -2.81034,-6.06283 -2.81034,-6.06283c0,0 3.81588,-0.15351 6.3437,2.10082z" fill="#f2d40e" stroke="none"/></g></g><path d="M295.94244,216.86717c0,-0.9665 0.7835,-1.75 1.75,-1.75c0.9665,0 1.75,0.7835 1.75,1.75c0,0.9665 -0.7835,1.75 -1.75,1.75c-0.9665,0 -1.75,-0.7835 -1.75,-1.75z" fill="#ff9600" stroke="none" stroke-width="0.5"/><path d="M345.50939,219.11522c0,0.69036 -0.55964,1.25 -1.25,1.25c-0.58846,0 -1.08194,-0.40663 -1.2148,-0.95423c-0.74057,-0.20381 -1.28455,-0.8821 -1.28455,-1.68743c0,-0.9665 0.7835,-1.75 1.75,-1.75c0.9665,0 1.5359,0.7835 1.5359,1.75c0,0.13554 -0.0112,0.26747 -0.03312,0.39415c0.30166,0.22821 0.49657,0.59009 0.49657,0.99751z" fill="#ff9600" stroke="none" stroke-width="0.5"/><path d="M337.26392,216.86717c0,-0.9665 0.7835,-1.75 1.75,-1.75c0.9665,0 1.75,0.7835 1.75,1.75c0,0.9665 -0.7835,1.75 -1.75,1.75c-0.9665,0 -1.75,-0.7835 -1.75,-1.75z" fill="#ff9600" stroke="none" stroke-width="0.5"/><path d="M331.055,216.86717c0,-0.9665 0.7835,-1.75 1.75,-1.75c0.53678,0 1.01712,0.24168 1.33813,0.62215c0.32101,-0.38047 0.80135,-0.62215 1.33813,-0.62215c0.9665,0 1.75,0.7835 1.75,1.75c0,0.9665 -0.7835,1.75 -1.75,1.75c-0.53678,0 -1.01711,-0.24168 -1.33813,-0.62215c-0.32101,0.38047 -0.80135,0.62215 -1.33813,0.62215c-0.9665,0 -1.75,-0.7835 -1.75,-1.75z" fill="#ff9600" stroke="none" stroke-width="0.5"/><path d="M323.09801,218.15176c0,-0.69036 0.55964,-1.25 1.25,-1.25c0.31567,0 0.604,0.11701 0.824,0.31002c-0.00317,-0.04309 -0.0048,-0.08662 -0.0048,-0.13053c0,-0.9665 0.7835,-1.75 1.75,-1.75c0.3111,0 0.60325,0.08118 0.8564,0.22351c0.25315,-0.14234 0.5453,-0.22351 0.8564,-0.22351c0.9665,0 1.75,0.7835 1.75,1.75c0,0.9665 -0.7835,1.75 -1.75,1.75c-0.3111,0 -0.60325,-0.08118 -0.8564,-0.22351c-0.00778,0.00438 -0.0156,0.00869 -0.02345,0.01295c-0.22316,0.34139 -0.60877,0.56697 -1.04706,0.56697c-0.50801,0 -0.94524,-0.30304 -1.14077,-0.73822c-0.13354,0.54664 -0.62656,0.95233 -1.21434,0.95233c-0.69036,0 -1.25,-0.55964 -1.25,-1.25z" fill="#ff9600" stroke="none" stroke-width="0.5"/><path d="M308.78848,216.86717c0,-0.90794 2.40865,-2.84656 3.17344,-1.50817c0.25014,0.14763 0.46034,0.3557 0.61052,0.60413c0.3065,-0.50702 0.86302,-0.84596 1.4987,-0.84596c0.47595,0 0.90752,0.19 1.223,0.49829c0.06029,-0.02457 0.12224,-0.04518 0.18548,-0.06204c0.19423,-0.07435 0.4051,-0.1151 0.62549,-0.1151c0.45635,0 0.87191,0.17468 1.18346,0.46083c0.02256,0.01482 0.04468,0.02996 0.06638,0.04539c0.23587,-0.11841 0.50221,-0.18507 0.78412,-0.18507c0.20657,0 0.40479,0.03579 0.58877,0.10151c0.18399,-0.06572 0.3822,-0.10151 0.58878,-0.10151c0.9665,0 1.75,0.7835 1.75,1.75c0,0.9665 -0.7835,1.75 -1.75,1.75c-0.20657,0 -0.40479,-0.0358 -0.58878,-0.10152c-0.18399,0.06572 -0.3822,0.10152 -0.58877,0.10152c-0.48323,0 -0.92072,-0.19586 -1.23741,-0.51253c-0.23892,0.12235 -0.50968,0.19138 -0.79655,0.19138c-0.13446,0 -0.26537,-0.01516 -0.39113,-0.04387c-0.435,0.10573 -0.83124,0.0274 -1.07466,-0.37157c-0.17815,0.06112 -0.36929,0.09429 -0.56817,0.09429c-0.63569,0 -1.1922,-0.33894 -1.4987,-0.84596c-0.3065,0.50702 -0.86302,0.84596 -1.49871,0.84596c-0.09804,0 -0.1942,-0.00807 -0.28785,-0.02356c-1.01047,0.44353 -1.99741,0.27119 -1.99741,-1.72644z" fill="#ff9600" stroke="none" stroke-width="0.5"/><path d="M304.03971,215.46068c0.265,-0.5145 2.3117,-1.46315 2.78381,-0.63695c0.5158,0.30442 0.86181,0.86589 0.86181,1.50818c0,0.9665 -0.7835,1.75 -1.75,1.75c-0.36156,0 -0.69751,-0.10965 -0.97641,-0.29751c-0.96798,-0.1522 -1.60936,-0.98382 -0.91921,-2.32372z" fill="#ff9600" stroke="none" stroke-width="0.5"/><path d="M299.90331,216.22486c0,-0.9665 0.7835,-1.75 1.75,-1.75c0.9665,0 1.75,0.7835 1.75,1.75c0,0.9665 -0.7835,1.75 -1.75,1.75c-0.9665,0 -1.75,-0.7835 -1.75,-1.75z" fill="#ff9600" stroke="none" stroke-width="0.5"/><path d="M300.3687,224.71646c0.69036,0 1.25,0.55964 1.25,1.25c0,0.69036 -0.55964,1.25 -1.25,1.25c-0.1789,0 -0.34902,-0.03758 -0.5029,-0.10528c-0.30099,0.24459 -0.6848,0.39118 -1.10286,0.39118c-0.49002,0 -0.93301,-0.2014 -1.25068,-0.52595c-0.28296,0.19661 -0.62671,0.31185 -0.99738,0.31185c-0.9665,0 -1.75,-0.7835 -1.75,-1.75c0,-0.9665 0.7835,-1.75 1.75,-1.75c0.49002,0 0.933,0.2014 1.25068,0.52595c0.28296,-0.19661 0.62672,-0.31185 0.99738,-0.31185c0.5849,0 1.10277,0.28694 1.42053,0.72773c0.06044,-0.00897 0.12229,-0.01363 0.18522,-0.01363z" fill="#ffc72e" stroke="none" stroke-width="0.5"/><path d="M305.22058,228.21452c0,-0.27336 0.08774,-0.52621 0.2366,-0.73195c-0.32446,-0.0491 -0.6197,-0.18731 -0.85998,-0.38887c-0.30406,0.25507 -0.6961,0.40866 -1.12403,0.40866c-0.9665,0 -1.75,-0.7835 -1.75,-1.75c0,-0.9665 0.7835,-1.75 1.75,-1.75c0.42793,0 0.81997,0.15359 1.12403,0.40866c0.30406,-0.25507 0.6961,-0.40866 1.12403,-0.40866c0.48265,0 0.91966,0.19539 1.23626,0.51138c0.30332,-0.25248 0.69335,-0.40433 1.11885,-0.40433c0.9665,0 1.75,0.7835 1.75,1.75c0,0.9665 -0.7835,1.75 -1.75,1.75c-0.19957,0 -0.39134,-0.03341 -0.57002,-0.09494c0.13526,0.19973 0.21427,0.44066 0.21427,0.70005c0,0.69036 -0.55964,1.25 -1.25,1.25c-0.69036,0 -1.25,-0.55964 -1.25,-1.25z" fill="#ffc72e" stroke="none" stroke-width="0.5"/><path d="M327.88067,223.89531c0.9665,0 1.75,0.7835 1.75,1.75c0,0.9665 -0.7835,1.75 -1.75,1.75c-0.68291,0 -1.27445,-0.39117 -1.56279,-0.96166c-0.31642,0.45199 -0.841,0.74755 -1.43462,0.74755c-0.9665,0 -1.75,-0.7835 -1.75,-1.75c0,-0.9665 0.7835,-1.75 1.75,-1.75c0.68291,0 1.27445,0.39117 1.5628,0.96166c0.31642,-0.45199 0.841,-0.74755 1.43461,-0.74755z" fill="#ffc72e" stroke="none" stroke-width="0.5"/><path d="M331.12679,228.32156c0,-0.51662 0.3134,-0.96004 0.76045,-1.1505c-0.43936,-0.31793 -0.7252,-0.83494 -0.7252,-1.41871c0,-0.9665 0.7835,-1.75 1.75,-1.75c0.17045,0 0.3352,0.02437 0.49098,0.06981c0.78988,-0.18737 1.47312,0.15276 1.47312,1.68019c0,0.22004 -0.17418,0.54241 -0.4399,0.86046c-0.19302,0.34118 -0.4973,0.61113 -0.86354,0.76055c-0.08123,0.05076 -0.16337,0.09658 -0.2455,0.13625c0.18679,0.21843 0.29959,0.50202 0.29959,0.81196c0,0.69036 -0.55964,1.25 -1.25,1.25c-0.69036,0 -1.25,-0.55964 -1.25,-1.25z" fill="#ffc72e" stroke="none" stroke-width="0.5"/><path d="M335.94406,226.82286c0,-0.68096 0.54451,-1.23474 1.22187,-1.24969c0.08974,-0.88233 0.83493,-1.57082 1.74094,-1.57082c0.33328,0 0.6448,0.09316 0.90993,0.25487c0.26513,-0.16171 0.57665,-0.25487 0.90992,-0.25487c0.9665,0 1.75,0.7835 1.75,1.75c0,0.9665 -0.7835,1.75 -1.75,1.75c-0.32024,0 -0.62038,-0.08602 -0.8786,-0.23621c-0.11041,0.06321 -0.23139,0.11005 -0.35963,0.13724c-0.18197,0.06411 -0.37773,0.09897 -0.58163,0.09897c-0.21143,0 -0.41411,-0.0375 -0.60174,-0.1062c-0.20783,0.40195 -0.62736,0.6767 -1.11107,0.6767c-0.69036,0 -1.25,-0.55964 -1.25,-1.25z" fill="#ffc72e" stroke="none" stroke-width="0.5"/><path d="M342.36709,228.64271c0,-0.64099 0.48246,-1.16929 1.10406,-1.24157c-0.45205,-0.31641 -0.74766,-0.84103 -0.74766,-1.43469c0,-0.9665 0.7835,-1.75 1.75,-1.75c0.9665,0 1.75,0.7835 1.75,1.75c0,0.9665 -0.7835,1.75 -1.75,1.75c-0.00571,0 -0.01142,-0.00002 -0.01711,-0.00008c0.25227,0.2287 0.41071,0.55902 0.41071,0.92634c0,0.69036 -0.55964,1.25 -1.25,1.25c-0.69036,0 -1.25,-0.55964 -1.25,-1.25z" fill="#ffc72e" stroke="none" stroke-width="0.5"/><path d="M297.79949,229.99719c0.9665,0 1.75,0.7835 1.75,1.75c0,0.9665 -0.7835,1.75 -1.75,1.75c-0.53678,0 -1.01712,-0.24167 -1.33813,-0.62215c-0.32101,0.38047 -0.80135,0.62215 -1.33813,0.62215c-0.9665,0 -1.75,-0.7835 -1.75,-1.75c0,-0.9665 0.7835,-1.75 1.75,-1.75c0.53678,0 1.01711,0.24168 1.33813,0.62215c0.32101,-0.38047 0.80135,-0.62215 1.33813,-0.62215z" fill="#f2bc49" stroke="none" stroke-width="0.5"/><path d="M303.93598,232.49654c0,-0.69036 0.55964,-1.25 1.25,-1.25c0.27335,0 0.52621,0.08774 0.73195,0.2366c0.06109,-0.40368 0.26009,-0.76211 0.54745,-1.02577c0.3199,-0.34867 0.77933,-0.56724 1.28981,-0.56724c0.9665,0 1.75,0.7835 1.75,1.75c0,0.51048 -0.21858,0.96991 -0.56724,1.28981c-0.3199,0.34867 -0.77933,0.56724 -1.28981,0.56724c-0.51031,0 -0.96959,-0.21842 -1.28947,-0.56687c-0.17633,0.47654 -0.63484,0.81623 -1.17269,0.81623c-0.69036,0 -1.25,-0.55964 -1.25,-1.25z" fill="#f2bc49" stroke="none" stroke-width="0.5"/><path d="M317.71088,229.56899c0.9665,0 1.75,0.7835 1.75,1.75c0,0.9665 -0.7835,1.75 -1.75,1.75c-0.63448,0 -1.19009,-0.33766 -1.49696,-0.84308c-0.26839,0.6219 -0.88711,1.05718 -1.6075,1.05718c-0.9665,0 -1.75,-0.7835 -1.75,-1.75c0,-0.9665 0.7835,-1.75 1.75,-1.75c0.63448,0 1.19009,0.33766 1.49696,0.84308c0.26839,-0.6219 0.88711,-1.05718 1.6075,-1.05718z" fill="#f2bc49" stroke="none" stroke-width="0.5"/><path d="M320.34995,231.10488c0,-0.9665 0.7835,-1.75 1.75,-1.75c0.9665,0 1.75,0.7835 1.75,1.75c0,0.9665 -0.7835,1.75 -1.75,1.75c-0.9665,0 -1.75,-0.7835 -1.75,-1.75z" fill="#f2bc49" stroke="none" stroke-width="0.5"/><path d="M327.41526,231.10488c0,-0.9665 0.7835,-1.75 1.75,-1.75c0.9665,0 1.75,0.7835 1.75,1.75c0,0.9665 -0.7835,1.75 -1.75,1.75c-0.9665,0 -1.75,-0.7835 -1.75,-1.75z" fill="#f2bc49" stroke="none" stroke-width="0.5"/><path d="M338.62033,234.20933c0,-0.33082 0.12851,-0.63162 0.33833,-0.85521c-0.2128,0.09204 -0.44749,0.14305 -0.6941,0.14305c-0.9665,0 -1.75,-0.7835 -1.75,-1.75c0,-0.9665 0.7835,-1.75 1.75,-1.75c0.42778,0 0.81972,0.15349 1.12373,0.40841c0.32101,-0.38068 0.80148,-0.6225 1.33843,-0.6225c0.9665,0 1.75,0.7835 1.75,1.75c0,0.9665 -0.7835,1.75 -1.75,1.75c-0.00571,0 -0.01141,-0.00003 -0.01711,-0.00009c0.25227,0.2287 0.41071,0.55902 0.41071,0.92634c0,0.69036 -0.55964,1.25 -1.25,1.25c-0.69036,0 -1.25,-0.55964 -1.25,-1.25zM339.603,232.87467c-0.04618,0.05477 -0.09566,0.10666 -0.14814,0.15537c0.08593,-0.03027 0.17616,-0.05142 0.26953,-0.06227c-0.04184,-0.02928 -0.08234,-0.06036 -0.12139,-0.0931z" fill="#f2bc49" stroke="none" stroke-width="0.5"/><path d="M345.65105,229.89012c0.9665,0 1.75,0.7835 1.75,1.75c0,0.9665 -0.7835,1.75 -1.75,1.75c-0.33299,0 -0.64426,-0.09301 -0.90924,-0.25446c-0.12092,0.02642 -0.24651,0.04036 -0.37536,0.04036c-0.9665,0 -1.75,-0.7835 -1.75,-1.75c0,-0.9665 0.7835,-1.75 1.75,-1.75c0.33299,0 0.64425,0.093 0.90924,0.25445c0.12092,-0.02642 0.24652,-0.04035 0.37537,-0.04035z" fill="#f2bc49" stroke="none" stroke-width="0.5"/><path d="M301.68791,220.07869c0,-0.69036 0.55964,-1.25 1.25,-1.25c0.69036,0 1.25,0.55964 1.25,1.25c0,0.69036 -0.55964,1.25 -1.25,1.25c-0.69036,0 -1.25,-0.55964 -1.25,-1.25z" fill="#ff9600" stroke="none" stroke-width="0.5"/><path d="M311.32246,220.50688c0,-0.69036 0.55964,-1.25 1.25,-1.25c0.69036,0 1.25,0.55964 1.25,1.25c0,0.69036 -0.55964,1.25 -1.25,1.25c-0.69036,0 -1.25,-0.55964 -1.25,-1.25z" fill="#ff9600" stroke="none" stroke-width="0.5"/><path d="M330.91269,220.50688c0,-0.69036 0.55964,-1.25 1.25,-1.25c0.69036,0 1.25,0.55964 1.25,1.25c0,0.69036 -0.55964,1.25 -1.25,1.25c-0.69036,0 -1.25,-0.55964 -1.25,-1.25z" fill="#ff9600" stroke="none" stroke-width="0.5"/><path d="M336.80047,221.79148c0,-0.69036 0.55964,-1.25 1.25,-1.25c0.69036,0 1.25,0.55964 1.25,1.25c0,0.69036 -0.55964,1.25 -1.25,1.25c-0.69036,0 -1.25,-0.55964 -1.25,-1.25z" fill="#ff9600" stroke="none" stroke-width="0.5"/><path d="M301.04561,228.74976c0,-0.69036 0.55964,-1.25 1.25,-1.25c0.69036,0 1.25,0.55964 1.25,1.25c0,0.69036 -0.55964,1.25 -1.25,1.25c-0.69036,0 -1.25,-0.55964 -1.25,-1.25z" fill="#ffc72e" stroke="none" stroke-width="0.5"/><path d="M317.53138,227.35812c0,-0.1411 0.02338,-0.27673 0.06647,-0.40324c-0.19722,0.07701 -0.41183,0.11928 -0.63632,0.11928c-0.37248,0 -0.71777,-0.11637 -1.00152,-0.31473c-0.30617,0.26291 -0.70428,0.42178 -1.13949,0.42178c-0.38732,0 -0.74524,-0.12582 -1.03514,-0.33882c-0.2268,0.23088 -0.54256,0.37408 -0.89177,0.37408c-0.13883,0 -0.27238,-0.02264 -0.39715,-0.06441c-0.22837,0.29941 -0.58887,0.49262 -0.9945,0.49262c-0.69036,0 -1.25,-0.55964 -1.25,-1.25c0,-0.69036 0.55964,-1.25 1.25,-1.25c0.13883,0 0.27238,0.02264 0.39715,0.06441c0.22837,-0.29941 0.58887,-0.49262 0.9945,-0.49262c0.10774,0 0.2123,0.01363 0.31204,0.03926c0.2643,-0.63113 0.88781,-1.07452 1.61487,-1.07452c0.37248,0 0.71777,0.11637 1.00151,0.31474c0.30617,-0.26291 0.70428,-0.42178 1.1395,-0.42178c0.9665,0 1.75,0.7835 1.75,1.75c0,0.29354 -0.07228,0.5702 -0.2,0.81316c0.08691,-0.01913 0.17721,-0.0292 0.26986,-0.0292c0.69036,0 1.25,0.55964 1.25,1.25c0,0.69036 -0.55964,1.25 -1.25,1.25c-0.69036,0 -1.25,-0.55964 -1.25,-1.25z" fill="#ffc72e" stroke="none" stroke-width="0.5"/><path d="M320.63585,228.10745c0,-0.69036 0.55964,-1.25 1.25,-1.25c0.69036,0 1.25,0.55964 1.25,1.25c0,0.69036 -0.55964,1.25 -1.25,1.25c-0.69036,0 -1.25,-0.55964 -1.25,-1.25z" fill="#ffc72e" stroke="none" stroke-width="0.5"/><path d="M325.02492,228.32156c0,-0.69036 0.55964,-1.25 1.25,-1.25c0.69036,0 1.25,0.55964 1.25,1.25c0,0.69036 -0.55964,1.25 -1.25,1.25c-0.69036,0 -1.25,-0.55964 -1.25,-1.25z" fill="#ffc72e" stroke="none" stroke-width="0.5"/><path d="M294.94372,236.13626c0,-0.69036 0.55964,-1.25 1.25,-1.25c0.69036,0 1.25,0.55964 1.25,1.25c0,0.69036 -0.55964,1.25 -1.25,1.25c-0.69036,0 -1.25,-0.55964 -1.25,-1.25z" fill="#f2bc49" stroke="none" stroke-width="0.5"/><path d="M301.36676,232.60358c0,-0.69036 0.55964,-1.25 1.25,-1.25c0.69036,0 1.25,0.55964 1.25,1.25c0,0.69036 -0.55964,1.25 -1.25,1.25c-0.69036,0 -1.25,-0.55964 -1.25,-1.25z" fill="#f2bc49" stroke="none" stroke-width="0.5"/><path d="M308.32504,234.10229c0,-0.69036 0.55964,-1.25 1.25,-1.25c0.69036,0 1.25,0.55964 1.25,1.25c0,0.69036 -0.55964,1.25 -1.25,1.25c-0.69036,0 -1.25,-0.55964 -1.25,-1.25z" fill="#f2bc49" stroke="none" stroke-width="0.5"/><path d="M310.7872,234.7446c0,-0.69036 0.55964,-1.25 1.25,-1.25c0.69036,0 1.25,0.55964 1.25,1.25c0,0.69036 -0.55964,1.25 -1.25,1.25c-0.69036,0 -1.25,-0.55964 -1.25,-1.25z" fill="#f2bc49" stroke="none" stroke-width="0.5"/><path d="M314.85512,235.27984c0,-0.69036 0.55964,-1.25 1.25,-1.25c0.69036,0 1.25,0.55964 1.25,1.25c0,0.69036 -0.55964,1.25 -1.25,1.25c-0.69036,0 -1.25,-0.55964 -1.25,-1.25z" fill="#f2bc49" stroke="none" stroke-width="0.5"/><path d="M321.3852,235.38689c0,-0.69036 0.55964,-1.25 1.25,-1.25c0.69036,0 1.25,0.55964 1.25,1.25c0,0.69036 -0.55964,1.25 -1.25,1.25c-0.69036,0 -1.25,-0.55964 -1.25,-1.25z" fill="#f2bc49" stroke="none" stroke-width="0.5"/><path d="M326.63067,234.10229c0,-0.69036 0.55964,-1.25 1.25,-1.25c0.69036,0 1.25,0.55964 1.25,1.25c0,0.69036 -0.55964,1.25 -1.25,1.25c-0.69036,0 -1.25,-0.55964 -1.25,-1.25z" fill="#f2bc49" stroke="none" stroke-width="0.5"/><path d="M332.69793,231.24654c0.69036,0 1.25,0.55964 1.25,1.25c0,0.69036 -0.55964,1.25 -1.25,1.25c-0.0544,0 -0.108,-0.00348 -0.16057,-0.01022c-0.05257,0.00674 -0.10617,0.01022 -0.16057,0.01022c-0.69036,0 -1.25,-0.55964 -1.25,-1.25c0,-0.69036 0.55964,-1.25 1.25,-1.25c0.0544,0 0.108,0.00348 0.16057,0.01022c0.05257,-0.00674 0.10617,-0.01022 0.16057,-0.01022z" fill="#f2bc49" stroke="none" stroke-width="0.5"/><path d="M341.08249,234.7446c0,-0.69036 0.55964,-1.25 1.25,-1.25c0.69036,0 1.25,0.55964 1.25,1.25c0,0.69036 -0.55964,1.25 -1.25,1.25c-0.69036,0 -1.25,-0.55964 -1.25,-1.25z" fill="#f2bc49" stroke="none" stroke-width="0.5"/><path d="M304.86418,223.50429c0,-0.41422 0.33578,-0.75 0.75,-0.75c0.41422,0 0.75,0.33578 0.75,0.75c0,0.41422 -0.33578,0.75 -0.75,0.75c-0.41422,0 -0.75,-0.33578 -0.75,-0.75z" fill="#ff9600" stroke="none" stroke-width="0.5"/><path d="M315.89036,221.89853c0,-0.41422 0.33578,-0.75 0.75,-0.75c0.41422,0 0.75,0.33578 0.75,0.75c0,0.41422 -0.33578,0.75 -0.75,0.75c-0.41422,0 -0.75,-0.33578 -0.75,-0.75z" fill="#ff9600" stroke="none" stroke-width="0.5"/><path d="M329.80692,223.82545c0,-0.41422 0.33578,-0.75 0.75,-0.75c0.41422,0 0.75,0.33578 0.75,0.75c0,0.41422 -0.33578,0.75 -0.75,0.75c-0.41422,0 -0.75,-0.33578 -0.75,-0.75z" fill="#ff9600" stroke="none" stroke-width="0.5"/><path d="M338.47802,224.5748c0,-0.41422 0.33578,-0.75 0.75,-0.75c0.41422,0 0.75,0.33578 0.75,0.75c0,0.41422 -0.33578,0.75 -0.75,0.75c-0.41422,0 -0.75,-0.33578 -0.75,-0.75z" fill="#ff9600" stroke="none" stroke-width="0.5"/><path d="M296.62129,228.8568c0,-0.41422 0.33578,-0.75 0.75,-0.75c0.41422,0 0.75,0.33578 0.75,0.75c0,0.41422 -0.33578,0.75 -0.75,0.75c-0.41422,0 -0.75,-0.33578 -0.75,-0.75z" fill="#ffc72e" stroke="none" stroke-width="0.5"/><path d="M313.00001,230.03437c0,-0.41422 0.33578,-0.75 0.75,-0.75c0.41422,0 0.75,0.33578 0.75,0.75c0,0.41422 -0.33578,0.75 -0.75,0.75c-0.41422,0 -0.75,-0.33578 -0.75,-0.75z" fill="#ffc72e" stroke="none" stroke-width="0.5"/><path d="M335.05241,230.03437c0,-0.41422 0.33578,-0.75 0.75,-0.75c0.41422,0 0.75,0.33578 0.75,0.75c0,0.41422 -0.33578,0.75 -0.75,0.75c-0.41422,0 -0.75,-0.33578 -0.75,-0.75z" fill="#ffc72e" stroke="none" stroke-width="0.5"/><path d="M339.22738,231.64012c0,-0.41422 0.33578,-0.75 0.75,-0.75c0.41422,0 0.75,0.33578 0.75,0.75c0,0.41422 -0.33578,0.75 -0.75,0.75c-0.41422,0 -0.75,-0.33578 -0.75,-0.75z" fill="#ffc72e" stroke="none" stroke-width="0.5"/><path d="M299.51165,237.31381c0,-0.41422 0.33578,-0.75 0.75,-0.75c0.41422,0 0.75,0.33578 0.75,0.75c0,0.41422 -0.33578,0.75 -0.75,0.75c-0.41422,0 -0.75,-0.33578 -0.75,-0.75z" fill="#f2bc49" stroke="none" stroke-width="0.5"/><path d="M302.29497,235.81508c0,-0.41422 0.33578,-0.75 0.75,-0.75c0.41422,0 0.75,0.33578 0.75,0.75c0,0.41422 -0.33578,0.75 -0.75,0.75c-0.41422,0 -0.75,-0.33578 -0.75,-0.75z" fill="#f2bc49" stroke="none" stroke-width="0.5"/><path d="M311.39426,237.84905c0,-0.41422 0.33578,-0.75 0.75,-0.75c0.41422,0 0.75,0.33578 0.75,0.75c0,0.41422 -0.33578,0.75 -0.75,0.75c-0.41422,0 -0.75,-0.33578 -0.75,-0.75z" fill="#f2bc49" stroke="none" stroke-width="0.5"/><path d="M315.67627,240.31122c0,-0.41422 0.33578,-0.75 0.75,-0.75c0.41422,0 0.75,0.33578 0.75,0.75c0,0.41422 -0.33578,0.75 -0.75,0.75c-0.41422,0 -0.75,-0.33578 -0.75,-0.75z" fill="#f2bc49" stroke="none" stroke-width="0.5"/><path d="M326.59542,238.49136c0,-0.41422 0.33578,-0.75 0.75,-0.75c0.41422,0 0.75,0.33578 0.75,0.75c0,0.41422 -0.33578,0.75 -0.75,0.75c-0.41422,0 -0.75,-0.33578 -0.75,-0.75z" fill="#f2bc49" stroke="none" stroke-width="0.5"/><path d="M336.22996,236.45741c0,-0.41422 0.33578,-0.75 0.75,-0.75c0.41422,0 0.75,0.33578 0.75,0.75c0,0.41422 -0.33578,0.75 -0.75,0.75c-0.41422,0 -0.75,-0.33578 -0.75,-0.75z" fill="#f2bc49" stroke="none" stroke-width="0.5"/><path d="M342.22479,239.02662c0,-0.41422 0.33578,-0.75 0.75,-0.75c0.41422,0 0.75,0.33578 0.75,0.75c0,0.41422 -0.33578,0.75 -0.75,0.75c-0.41422,0 -0.75,-0.33578 -0.75,-0.75z" fill="#f2bc49" stroke="none" stroke-width="0.5"/></g><path d="" fill="none" stroke="#000000" stroke-width="2" stroke-linecap="round"/><g><g><path d="M384.39832,122.94904l58.61419,-17.75008c0,0 -4.49513,34.90667 -10.26178,52.12753c-6.22257,18.58234 -25.81009,55.59318 -25.81009,55.59318l-26.82821,-26.65755z" fill="#f3ca58" stroke="#000000" stroke-width="0" stroke-linecap="round"/><path d="M384.72051,177.71299c8.50007,6.15694 16.11477,11.8984 16.11477,11.8984c0,0 -8.57773,-4.14948 -17.07778,-10.30641c-8.50007,-6.15694 -15.39645,-11.22771 -14.57229,-12.36551c0.82415,-1.13781 7.03524,4.61659 15.5353,10.77352z" fill="#ff9600" stroke="#000000" stroke-width="0" stroke-linecap="butt"/><path d="M381.54253,157.1724c0.26116,-1.38044 8.33141,1.1812 18.64412,3.13228c10.31271,1.95109 19.64744,3.90327 19.64744,3.90327c0,0 -9.52811,-0.10169 -19.84083,-2.05278c-10.31272,-1.95108 -18.7119,-3.60233 -18.45073,-4.98277z" fill="#ff9600" stroke="#000000" stroke-width="0" stroke-linecap="butt"/><g stroke="#000000" stroke-width="0" stroke-linecap="round"><g fill="#f2bc49"><path d="M384.07964,127.6567c0.16554,-2.44537 0.31868,-4.70767 0.31868,-4.70767l58.61419,-17.75008c0,0 -1.70218,13.21822 -4.35538,27.39945c-0.05706,0.30493 -54.58116,-4.88753 -54.57749,-4.94169z"/></g><g fill="#ffc72e"><path d="M384.39832,122.94904l58.61419,-17.75008c0,0 -1.31729,10.22935 -3.44048,22.34484c-0.00442,0.02524 -55.17371,-4.59475 -55.17371,-4.59475z"/></g><g fill="#ff9600"><path d="M412.59836,114.40924c9.9465,-3.01209 30.41416,-9.2103 30.41416,-9.2103c0,0 -0.24967,2.94577 -0.80703,6.66733c-0.20436,1.36454 -0.61152,2.8194 -0.83293,4.29151c-0.00193,0.01276 -28.96157,-1.69181 -28.77419,-1.74856z"/></g></g><path d="M438.84724,117.81277c-0.96289,-0.08345 -1.67581,-0.93168 -1.59236,-1.89457c0.08345,-0.96289 0.93168,-1.67581 1.89457,-1.59236c0.96289,0.08345 1.67581,0.93168 1.59236,1.89457c-0.08345,0.96289 -0.93168,1.67581 -1.89457,1.59236z" fill="#ff9600" stroke="none" stroke-width="0.5" stroke-linecap="butt"/><path d="M435.03605,118.42204c-0.64041,-0.05551 -1.17026,-0.44932 -1.42877,-0.99015c-0.28014,0.69486 -0.98914,1.15643 -1.77438,1.08837c-0.23084,-0.02 -0.4473,-0.08397 -0.64186,-0.18292c-0.20869,0.064 -0.43293,0.08976 -0.66376,0.06976c-0.96289,-0.08345 -1.67581,-0.93168 -1.59236,-1.89457c0.08345,-0.96289 0.93168,-1.67581 1.89457,-1.59236c0.23084,0.02 0.4473,0.08397 0.64186,0.18292c0.20869,-0.064 0.43293,-0.08976 0.66376,-0.06976c0.64042,0.0555 1.17026,0.44932 1.42877,0.99016c0.28014,-0.69486 0.98914,-1.15644 1.77437,-1.08838c0.96289,0.08345 1.67581,0.93168 1.59236,1.89457c-0.08345,0.96289 -0.93168,1.67581 -1.89457,1.59236z" fill="#ff9600" stroke="none" stroke-width="0.5" stroke-linecap="butt"/><path d="M427.06427,117.16734c-0.96289,-0.08345 -1.67581,-0.93168 -1.59236,-1.89457c0.08345,-0.96289 0.93168,-1.67581 1.89457,-1.59236c0.96289,0.08345 1.67581,0.93168 1.59236,1.89457c-0.08345,0.96289 -0.93168,1.67581 -1.89457,1.59236z" fill="#ff9600" stroke="none" stroke-width="0.5" stroke-linecap="butt"/><path d="M421.16638,115.71207c-0.02343,-0.14163 -0.02969,-0.28847 -0.01673,-0.43809c0.08345,-0.96289 0.93168,-1.67581 1.89457,-1.59236c0.96289,0.08345 1.67581,0.93168 1.59236,1.89457c-0.08345,0.96289 -0.93168,1.67581 -1.89457,1.59236c-0.14961,-0.01297 -0.29317,-0.04441 -0.42867,-0.09184c-0.06484,0.68245 -0.66805,1.1862 -1.35231,1.12689c-0.68777,-0.05961 -1.197,-0.6655 -1.13739,-1.35327c0.05931,-0.68427 0.65932,-1.1918 1.34276,-1.13826z" fill="#ff9600" stroke="none" stroke-width="0.5" stroke-linecap="butt"/><path d="M417.89257,116.74825c-0.96289,-0.08345 -1.67581,-0.93168 -1.59236,-1.89457c0.08345,-0.96289 0.93168,-1.67581 1.89457,-1.59236c0.96289,0.08345 1.67581,0.93168 1.59236,1.89457c-0.08345,0.96289 -0.93168,1.67581 -1.89457,1.59236z" fill="#ff9600" stroke="none" stroke-width="0.5" stroke-linecap="butt"/><path d="M437.50517,122.4563c-0.68778,-0.05961 -1.197,-0.6655 -1.13739,-1.35327c0.05961,-0.68777 0.66549,-1.19701 1.35327,-1.13739c0.68778,0.05961 1.197,0.6655 1.13739,1.35327c-0.05961,0.68777 -0.66549,1.19701 -1.35327,1.13739z" fill="#ff9600" stroke="none" stroke-width="0.5" stroke-linecap="butt"/><path d="M430.42618,123.90988c-0.68778,-0.05961 -1.197,-0.6655 -1.13739,-1.35327c0.05961,-0.68777 0.66549,-1.19701 1.35327,-1.13739c0.68778,0.05961 1.197,0.6655 1.13739,1.35327c-0.05961,0.68777 -0.66549,1.19701 -1.35327,1.13739z" fill="#ff9600" stroke="none" stroke-width="0.5" stroke-linecap="butt"/><path d="M426.83262,119.84001c-0.68777,-0.05961 -1.197,-0.6655 -1.13739,-1.35327c0.05961,-0.68777 0.6655,-1.197 1.35327,-1.13739c0.68778,0.05961 1.197,0.6655 1.13739,1.35327c-0.05961,0.68777 -0.66549,1.19701 -1.35327,1.13739z" fill="#ff9600" stroke="none" stroke-width="0.5" stroke-linecap="butt"/><path d="M411.65132,117.20879c-0.68778,-0.05961 -1.197,-0.6655 -1.13739,-1.35327c0.05961,-0.68777 0.66549,-1.19701 1.35327,-1.13739c0.68778,0.05961 1.197,0.6655 1.13739,1.35327c-0.05961,0.68777 -0.66549,1.19701 -1.35327,1.13739z" fill="#ff9600" stroke="none" stroke-width="0.5" stroke-linecap="butt"/><path d="M407.28926,119.83743c-0.68778,-0.05961 -1.197,-0.6655 -1.13739,-1.35327c0.05961,-0.68777 0.66549,-1.19701 1.35327,-1.13739c0.68778,0.05961 1.197,0.6655 1.13739,1.35327c-0.05961,0.68777 -0.66549,1.19701 -1.35327,1.13739z" fill="#ff9600" stroke="none" stroke-width="0.5" stroke-linecap="butt"/><path d="M437.20105,129.50899c-0.96289,-0.08345 -1.67581,-0.93168 -1.59236,-1.89457c0.08345,-0.96289 0.93168,-1.67581 1.89457,-1.59236c0.96289,0.08345 1.67581,0.93168 1.59236,1.89457c-0.08345,0.96289 -0.93168,1.67581 -1.89457,1.59236z" fill="#ffc72e" stroke="none" stroke-width="0.5" stroke-linecap="butt"/><path d="M432.05936,128.12376c-0.96289,-0.08345 -1.67581,-0.93168 -1.59236,-1.89457c0.08345,-0.96289 0.93168,-1.67581 1.89457,-1.59236c0.96289,0.08345 1.67581,0.93168 1.59236,1.89457c-0.08345,0.96289 -0.93168,1.67581 -1.89457,1.59236z" fill="#ffc72e" stroke="none" stroke-width="0.5" stroke-linecap="butt"/><path d="M424.33328,125.1932c0.20681,-0.06252 0.42874,-0.08751 0.65711,-0.06773c0.50594,0.04385 0.94287,0.29884 1.23152,0.67069c0.00853,0.00062 0.01706,0.00129 0.02561,0.00203c0.96289,0.08345 1.67581,0.93168 1.59236,1.89457c-0.08345,0.96289 -0.93168,1.67581 -1.89457,1.59236c-0.50594,-0.04385 -0.94287,-0.29884 -1.23152,-0.67069c-0.00853,-0.00062 -0.01706,-0.00129 -0.02561,-0.00203c-0.47435,-0.04112 -0.88804,-0.26783 -1.17573,-0.60243c-0.20682,0.06252 -0.42874,0.08751 -0.65711,0.06773c-0.96289,-0.08345 -1.67581,-0.93168 -1.59236,-1.89457c0.08345,-0.96289 0.93168,-1.67581 1.89457,-1.59236c0.47435,0.04112 0.88804,0.26783 1.17574,0.60243z" fill="#ffc72e" stroke="none" stroke-width="0.5" stroke-linecap="butt"/><path d="M413.34651,128.38971c-0.68778,-0.05961 -1.197,-0.6655 -1.13739,-1.35327c0.05113,-0.58989 0.5041,-1.04844 1.06591,-1.12941c-0.24772,-0.33187 -0.37927,-0.75242 -0.34071,-1.19745c0.08345,-0.96289 0.93168,-1.67581 1.89457,-1.59236c0.53294,0.04619 0.9893,0.32665 1.27645,0.73117c0.35189,-0.45579 0.9212,-0.72862 1.5375,-0.67521c0.96289,0.08345 1.67581,0.93168 1.59236,1.89457c-0.08345,0.96289 -0.93168,1.67581 -1.89457,1.59236c-0.53294,-0.04619 -0.98929,-0.32666 -1.27644,-0.73118c-0.34098,0.44167 -0.88614,0.71154 -1.48036,0.67923c0.09236,0.19408 0.13584,0.41452 0.11594,0.64412c-0.05961,0.68777 -0.66549,1.19701 -1.35327,1.13739z" fill="#ffc72e" stroke="none" stroke-width="0.5" stroke-linecap="butt"/><path d="M410.23676,126.23235c-0.96289,-0.08345 -1.67581,-0.93168 -1.59236,-1.89457c0.08345,-0.96289 0.93168,-1.67581 1.89457,-1.59236c0.96289,0.08345 1.67581,0.93168 1.59236,1.89457c-0.08345,0.96289 -0.93168,1.67581 -1.89457,1.59236z" fill="#ffc72e" stroke="none" stroke-width="0.5" stroke-linecap="butt"/><path d="M399.5873,124.93668c-0.01797,-0.04247 -0.03429,-0.08576 -0.0489,-0.12979c-0.35464,0.38651 -0.87846,0.60997 -1.44147,0.56117c-0.63265,-0.05483 -1.15739,-0.4398 -1.41923,-0.97052c-0.34926,0.47777 -0.93241,0.7667 -1.56504,0.71187c-0.56302,-0.0488 -1.04056,-0.35906 -1.32343,-0.80081c-0.32095,0.59685 -0.97519,0.97743 -1.6932,0.9152c-0.96289,-0.08345 -1.67581,-0.93168 -1.59236,-1.89457c0.08345,-0.96289 0.93168,-1.67581 1.89457,-1.59236c0.56302,0.0488 1.04055,0.35906 1.32342,0.80081c0.32095,-0.59685 0.97519,-0.97743 1.6932,-0.9152c0.63265,0.05483 1.15738,0.43981 1.41922,0.97053c0.34926,-0.47777 0.93241,-0.76671 1.56505,-0.71188c0.71801,0.06224 1.29703,0.5497 1.51049,1.19287c0.35464,-0.38651 0.87845,-0.60997 1.44147,-0.56117c0.71261,0.06177 1.28834,0.54241 1.50563,1.17844c0.33858,-0.27068 0.7777,-0.41677 1.24365,-0.37639c0.96289,0.08345 1.67581,0.93168 1.59236,1.89457c-0.08345,0.96289 -0.93168,1.67581 -1.89457,1.59236c-0.71262,-0.06177 -1.28834,-0.54241 -1.50563,-1.17844c-0.11933,0.09539 -0.25114,0.17532 -0.39221,0.23706c-0.16595,0.55642 -0.70452,0.93889 -1.30567,0.88679c-0.68778,-0.05961 -1.197,-0.6655 -1.13739,-1.35327c0.01426,-0.16441 0.05971,-0.31861 0.13004,-0.45727z" fill="#ffc72e" stroke="none" stroke-width="0.5" stroke-linecap="butt"/><path d="M436.59422,134.3423c-0.96289,-0.08345 -1.67581,-0.93168 -1.59236,-1.89457c0.08345,-0.96289 0.93168,-1.67581 1.89457,-1.59236c0.96289,0.08345 1.67581,0.93168 1.59236,1.89457c-0.08345,0.96289 -0.93168,1.67581 -1.89457,1.59236z" fill="#f2bc49" stroke="none" stroke-width="0.5" stroke-linecap="butt"/><path d="M429.34763,131.22493c0.28452,-0.14769 0.61299,-0.21903 0.95601,-0.1893c0.51269,0.04444 0.9545,0.30568 1.24299,0.68561c0.25502,-0.74165 0.98925,-1.24382 1.80597,-1.17303c0.96289,0.08345 1.67581,0.93168 1.59236,1.89457c-0.08345,0.96289 -0.93168,1.67581 -1.89457,1.59236c-0.51269,-0.04444 -0.95451,-0.30568 -1.243,-0.68562c-0.25502,0.74165 -0.98925,1.24382 -1.80597,1.17303c-0.34301,-0.02973 -0.6543,-0.15651 -0.90918,-0.35097c-0.28452,0.14769 -0.61298,0.21903 -0.956,0.18931c-0.96289,-0.08345 -1.67581,-0.93168 -1.59236,-1.89457c0.08345,-0.96289 0.93168,-1.67581 1.89457,-1.59236c0.34301,0.02973 0.65429,0.15651 0.90917,0.35096z" fill="#f2bc49" stroke="none" stroke-width="0.5" stroke-linecap="butt"/><path d="M423.69215,133.59988c-0.96289,-0.08345 -1.67581,-0.93168 -1.59236,-1.89457c0.08345,-0.96289 0.93168,-1.67581 1.89457,-1.59236c0.96289,0.08345 1.67581,0.93168 1.59236,1.89457c-0.08345,0.96289 -0.93168,1.67581 -1.89457,1.59236z" fill="#f2bc49" stroke="none" stroke-width="0.5" stroke-linecap="butt"/><path d="M418.53629,129.7185c0.35349,-0.36156 0.86009,-0.56781 1.40317,-0.52075c0.96289,0.08345 1.67581,0.93168 1.59236,1.89457c-0.08345,0.96289 -0.93168,1.67581 -1.89457,1.59236c-0.18011,-0.01561 -0.35147,-0.05798 -0.51051,-0.12285c-0.35349,0.36156 -0.86009,0.56781 -1.40317,0.52075c-0.96289,-0.08345 -1.67581,-0.93168 -1.59236,-1.89457c0.08345,-0.96289 0.93168,-1.67581 1.89457,-1.59236c0.18012,0.01561 0.35147,0.05798 0.51052,0.12285z" fill="#f2bc49" stroke="none" stroke-width="0.5" stroke-linecap="butt"/><path d="M411.36223,131.9411c-0.09976,0.00868 -0.20163,0.00889 -0.30481,-0.00006c-0.56614,-0.04907 -1.04586,-0.36251 -1.32811,-0.8082c-0.34161,0.28279 -0.79023,0.43668 -1.26697,0.39537c-0.47672,-0.04132 -0.89218,-0.2701 -1.18005,-0.60746c-0.35472,0.39049 -0.88123,0.61672 -1.44736,0.56766c-0.96289,-0.08345 -1.67581,-0.93168 -1.59236,-1.89457c0.08345,-0.96289 0.93168,-1.67581 1.89457,-1.59236c0.47673,0.04132 0.89218,0.2701 1.18005,0.60746c0.35472,-0.39049 0.88123,-0.61672 1.44737,-0.56766c0.56614,0.04907 1.04586,0.36251 1.32812,0.80821c0.34161,-0.28279 0.79023,-0.43668 1.26696,-0.39537c0.71261,0.06177 1.28834,0.54241 1.50563,1.17844c0.33858,-0.27068 0.7777,-0.41678 1.24365,-0.3764c0.96289,0.08345 1.67581,0.93168 1.59236,1.89457c-0.08345,0.96289 -0.93168,1.67581 -1.89457,1.59236c-0.07994,-0.00693 -0.15816,-0.01913 -0.23434,-0.03623c-0.253,0.30314 -0.6452,0.48182 -1.06839,0.44515c-0.63987,-0.05546 -1.1252,-0.58374 -1.1417,-1.2109z" fill="#f2bc49" stroke="none" stroke-width="0.5" stroke-linecap="butt"/><path d="M402.15304,130.60552c-0.96289,-0.08345 -1.67581,-0.93168 -1.59236,-1.89457c0.08345,-0.96289 0.93168,-1.67581 1.89457,-1.59236c0.96289,0.08345 1.67581,0.93168 1.59236,1.89457c-0.08345,0.96289 -0.93168,1.67581 -1.89457,1.59236z" fill="#f2bc49" stroke="none" stroke-width="0.5" stroke-linecap="butt"/><path d="M398.54455,131.04445c-0.96289,-0.08345 -1.67581,-0.93168 -1.59236,-1.89457c0.08345,-0.96289 0.93168,-1.67581 1.89457,-1.59236c0.96289,0.08345 1.67581,0.93168 1.59236,1.89457c-0.08345,0.96289 -0.93168,1.67581 -1.89457,1.59236z" fill="#f2bc49" stroke="none" stroke-width="0.5" stroke-linecap="butt"/><path d="M432.76189,131.25444c-0.68777,-0.05961 -1.197,-0.6655 -1.13739,-1.35327c0.05961,-0.68777 0.6655,-1.197 1.35327,-1.13739c0.68778,0.05961 1.197,0.6655 1.13739,1.35327c-0.05961,0.68777 -0.66549,1.19701 -1.35327,1.13739z" fill="#ffc72e" stroke="none" stroke-width="0.5" stroke-linecap="butt"/><path d="M419.79175,128.41107c-0.68778,-0.05961 -1.197,-0.6655 -1.13739,-1.35327c0.05961,-0.68777 0.66549,-1.19701 1.35327,-1.13739c0.68777,0.05961 1.197,0.6655 1.13739,1.35327c-0.05961,0.68777 -0.6655,1.197 -1.35327,1.13739z" fill="#ffc72e" stroke="none" stroke-width="0.5" stroke-linecap="butt"/><path d="M406.90125,128.36834c-0.68778,-0.05961 -1.197,-0.6655 -1.13739,-1.35327c0.05961,-0.68777 0.66549,-1.19701 1.35327,-1.13739c0.68778,0.05961 1.197,0.6655 1.13739,1.35327c-0.05961,0.68777 -0.66549,1.19701 -1.35327,1.13739z" fill="#ffc72e" stroke="none" stroke-width="0.5" stroke-linecap="butt"/><path d="M432.28192,139.27172c-0.68778,-0.05961 -1.197,-0.6655 -1.13739,-1.35327c0.05961,-0.68777 0.66549,-1.19701 1.35327,-1.13739c0.68778,0.05961 1.197,0.6655 1.13739,1.35327c-0.05961,0.68777 -0.66549,1.19701 -1.35327,1.13739z" fill="#f2bc49" stroke="none" stroke-width="0.5" stroke-linecap="butt"/><path d="M427.22313,139.37052c-0.68777,-0.05961 -1.19701,-0.66549 -1.13739,-1.35327c0.05961,-0.68777 0.6655,-1.197 1.35327,-1.13739c0.68778,0.05961 1.19701,0.66549 1.13739,1.35327c-0.05961,0.68778 -0.66549,1.19701 -1.35327,1.13739z" fill="#f2bc49" stroke="none" stroke-width="0.5" stroke-linecap="butt"/><path d="M422.97558,138.78749c-0.68777,-0.05961 -1.19701,-0.66549 -1.13739,-1.35327c0.05961,-0.68777 0.6655,-1.197 1.35327,-1.13739c0.68778,0.05961 1.19701,0.66549 1.13739,1.35327c-0.05961,0.68778 -0.66549,1.19701 -1.35327,1.13739z" fill="#f2bc49" stroke="none" stroke-width="0.5" stroke-linecap="butt"/><path d="M413.54341,136.03585c-0.68778,-0.05961 -1.197,-0.6655 -1.13739,-1.35327c0.05961,-0.68777 0.66549,-1.19701 1.35327,-1.13739c0.68778,0.05961 1.197,0.6655 1.13739,1.35327c-0.05961,0.68777 -0.66549,1.19701 -1.35327,1.13739z" fill="#f2bc49" stroke="none" stroke-width="0.5" stroke-linecap="butt"/><path d="M407.69114,134.13176c-0.68778,-0.05961 -1.197,-0.6655 -1.13739,-1.35327c0.05961,-0.68777 0.66549,-1.19701 1.35327,-1.13739c0.68778,0.05961 1.197,0.6655 1.13739,1.35327c-0.05961,0.68777 -0.66549,1.19701 -1.35327,1.13739z" fill="#f2bc49" stroke="none" stroke-width="0.5" stroke-linecap="butt"/><path d="M403.40237,135.26435c-0.68778,-0.05961 -1.197,-0.6655 -1.13739,-1.35327c0.05961,-0.68777 0.66549,-1.19701 1.35327,-1.13739c0.68778,0.05961 1.197,0.6655 1.13739,1.35327c-0.05961,0.68777 -0.66549,1.19701 -1.35327,1.13739z" fill="#f2bc49" stroke="none" stroke-width="0.5" stroke-linecap="butt"/><path d="M400.55051,134.69483c-0.68778,-0.05961 -1.197,-0.6655 -1.13739,-1.35327c0.05961,-0.68777 0.66549,-1.19701 1.35327,-1.13739c0.68778,0.05961 1.197,0.6655 1.13739,1.35327c-0.05961,0.68777 -0.66549,1.19701 -1.35327,1.13739z" fill="#f2bc49" stroke="none" stroke-width="0.5" stroke-linecap="butt"/><path d="M430.00294,142.01079c-0.41268,-0.03576 -0.7182,-0.39929 -0.68244,-0.81196c0.03576,-0.41268 0.39929,-0.7182 0.81196,-0.68244c0.41268,0.03576 0.7182,0.39929 0.68244,0.81196c-0.03576,0.41268 -0.39929,0.7182 -0.81196,0.68244z" fill="#f2bc49" stroke="none" stroke-width="0.5" stroke-linecap="butt"/><path d="M421.44813,142.77365c-0.41268,-0.03576 -0.7182,-0.39929 -0.68244,-0.81196c0.03576,-0.41268 0.39929,-0.7182 0.81196,-0.68244c0.41268,0.03576 0.7182,0.39929 0.68244,0.81196c-0.03576,0.41268 -0.39929,0.7182 -0.81196,0.68244z" fill="#f2bc49" stroke="none" stroke-width="0.5" stroke-linecap="butt"/><path d="M407.90847,142.78212c-0.41268,-0.03576 -0.7182,-0.39929 -0.68244,-0.81196c0.03576,-0.41268 0.39929,-0.7182 0.81196,-0.68244c0.41268,0.03576 0.7182,0.39929 0.68244,0.81196c-0.03576,0.41268 -0.39929,0.7182 -0.81196,0.68244z" fill="#f2bc49" stroke="none" stroke-width="0.5" stroke-linecap="butt"/><path d="M429.26283,131.95363c-0.41268,-0.03576 -0.7182,-0.3993 -0.68244,-0.81196c0.03576,-0.41267 0.39929,-0.7182 0.81196,-0.68244c0.41268,0.03576 0.7182,0.3993 0.68244,0.81196c-0.03576,0.41267 -0.39929,0.7182 -0.81196,0.68244z" fill="#ffc72e" stroke="none" stroke-width="0.5" stroke-linecap="butt"/><path d="M412.84788,130.42345c-0.41268,-0.03576 -0.7182,-0.3993 -0.68244,-0.81196c0.03576,-0.41267 0.39929,-0.7182 0.81196,-0.68244c0.41268,0.03576 0.7182,0.3993 0.68244,0.81196c-0.03576,0.41267 -0.39929,0.7182 -0.81196,0.68244z" fill="#ffc72e" stroke="none" stroke-width="0.5" stroke-linecap="butt"/><path d="M398.66761,127.905c-0.41268,-0.03576 -0.7182,-0.3993 -0.68244,-0.81196c0.03576,-0.41267 0.39929,-0.7182 0.81196,-0.68244c0.41268,0.03576 0.7182,0.3993 0.68244,0.81196c-0.03576,0.41267 -0.39929,0.7182 -0.81196,0.68244z" fill="#ffc72e" stroke="none" stroke-width="0.5" stroke-linecap="butt"/><path d="M373.20584,141.87076c-0.51809,-1.30591 7.6702,-3.4606 17.42614,-7.33106c9.75594,-3.87047 18.68628,-7.21667 18.68628,-7.21667c0,0 -8.10346,5.01293 -17.8594,8.88339c-9.75594,3.87046 -17.73493,6.97024 -18.25302,5.66433z" fill="#ff9600" stroke="#000000" stroke-width="0" stroke-linecap="butt"/></g><g><path d="M275.12597,177.1627l-31.01462,21.64419c0,0 -12.92765,-39.829 -15.86029,-59.20484c-2.71779,-17.95623 -1.14013,-53.11576 -1.14013,-53.11576l54.6862,27.57007z" fill="#f3ca58" stroke="#000000" stroke-width="0" stroke-linecap="round"/><path d="M289.21474,160.00825c0.6161,1.26263 -7.04988,5.07125 -16.4825,9.67392c-9.43261,4.60268 -18.59636,7.21447 -18.59636,7.21447c0,0 8.48899,-4.34572 17.92162,-8.94839c9.43262,-4.60268 16.54114,-9.20264 17.15724,-7.94z" fill="#ff9600" stroke="#000000" stroke-width="0" stroke-linecap="butt"/><path d="M278.72215,148.26073c0.01976,1.40479 -8.53827,1.58631 -19.03288,1.73399c-10.49462,0.14767 -19.89814,-1.39149 -19.89814,-1.39149c0,0 9.53142,-0.31701 20.02602,-0.46469c10.49462,-0.14767 18.88525,-1.28261 18.90501,0.12218z" fill="#ff9600" stroke="#000000" stroke-width="0" stroke-linecap="butt"/><g stroke="#000000" stroke-width="0" stroke-linecap="round"><g fill="#f2bc49"><path d="M226.68723,114.22652c-0.17372,-14.42626 0.42369,-27.74022 0.42369,-27.74022l54.6862,27.57007c0,0 -0.23837,2.25492 -0.49604,4.69229c-0.0057,0.05398 -54.61013,-4.21194 -54.61385,-4.52215z"/></g><g fill="#ffc72e"><path d="M226.65564,109.08988c-0.00704,-12.30013 0.45529,-22.60357 0.45529,-22.60357l54.6862,27.57007c0,0 -55.14148,-4.94087 -55.1415,-4.9665z"/></g><g fill="#ff9600"><path d="M226.84094,97.5639c0.03517,-1.48827 -0.11561,-2.99147 -0.08215,-4.37082c0.09126,-3.76197 0.35213,-6.70675 0.35213,-6.70675c0,0 19.09603,9.62727 28.37598,14.30575c0.17482,0.08813 -28.64626,-3.21527 -28.64596,-3.22817z"/></g></g><path d="M227.45152,97.73408c0.08345,-0.96289 0.93168,-1.67581 1.89457,-1.59236c0.96289,0.08345 1.67581,0.93168 1.59236,1.89457c-0.08345,0.96289 -0.93168,1.67581 -1.89457,1.59236c-0.96289,-0.08345 -1.67581,-0.93168 -1.59236,-1.89457z" fill="#ff9600" stroke="none" stroke-width="0.5" stroke-linecap="butt"/><path d="M231.10105,98.99c0.08345,-0.96289 0.93168,-1.67581 1.89457,-1.59236c0.78524,0.06806 1.40424,0.64474 1.56066,1.37743c0.3477,-0.48829 0.9374,-0.78509 1.57782,-0.72957c0.23084,0.02 0.4473,0.08397 0.64186,0.18292c0.20869,-0.064 0.43293,-0.08976 0.66376,-0.06976c0.96289,0.08345 1.67581,0.93168 1.59236,1.89457c-0.08345,0.96289 -0.93168,1.67581 -1.89457,1.59236c-0.23084,-0.02 -0.4473,-0.08397 -0.64186,-0.18292c-0.20869,0.064 -0.43293,0.08976 -0.66376,0.06976c-0.78524,-0.06806 -1.40424,-0.64473 -1.56066,-1.37742c-0.3477,0.48829 -0.9374,0.78508 -1.57782,0.72956c-0.96289,-0.08345 -1.67581,-0.93168 -1.59236,-1.89457z" fill="#ff9600" stroke="none" stroke-width="0.5" stroke-linecap="butt"/><path d="M239.16982,99.12558c0.08345,-0.96289 0.93168,-1.67581 1.89457,-1.59236c0.96289,0.08345 1.67581,0.93168 1.59236,1.89457c-0.08345,0.96289 -0.93168,1.67581 -1.89457,1.59236c-0.96289,-0.08345 -1.67581,-0.93168 -1.59236,-1.89457z" fill="#ff9600" stroke="none" stroke-width="0.5" stroke-linecap="butt"/><path d="M247.94937,101.95364c-0.05961,0.68777 -0.66549,1.19701 -1.35327,1.13739c-0.68427,-0.05931 -1.1918,-0.65932 -1.13827,-1.34276c-0.14163,0.02343 -0.28847,0.02969 -0.43809,0.01673c-0.96289,-0.08345 -1.67581,-0.93168 -1.59236,-1.89457c0.08345,-0.96289 0.93168,-1.67581 1.89457,-1.59236c0.96289,0.08345 1.67581,0.93168 1.59236,1.89457c-0.01297,0.14961 -0.0444,0.29317 -0.09184,0.42867c0.68245,0.06484 1.18619,0.66804 1.12688,1.35231z" fill="#ff9600" stroke="none" stroke-width="0.5" stroke-linecap="butt"/><path d="M248.27686,100.29074c0.08345,-0.96289 0.93168,-1.67581 1.89457,-1.59236c0.96289,0.08345 1.67581,0.93168 1.59236,1.89457c-0.08345,0.96289 -0.93168,1.67581 -1.89457,1.59236c-0.96289,-0.08345 -1.67581,-0.93168 -1.59236,-1.89457z" fill="#ff9600" stroke="none" stroke-width="0.5" stroke-linecap="butt"/><path d="M228.4296,103.08061c0.05961,-0.68777 0.66549,-1.19701 1.35327,-1.13739c0.68778,0.05961 1.197,0.6655 1.13739,1.35327c-0.05961,0.68777 -0.66549,1.19701 -1.35327,1.13739c-0.68778,-0.05961 -1.197,-0.6655 -1.13739,-1.35327z" fill="#ff9600" stroke="none" stroke-width="0.5" stroke-linecap="butt"/><path d="M235.15294,105.73044c0.05961,-0.68777 0.66549,-1.19701 1.35327,-1.13739c0.68778,0.05961 1.197,0.6655 1.13739,1.35327c-0.05961,0.68777 -0.66549,1.19701 -1.35327,1.13739c-0.68778,-0.05961 -1.197,-0.6655 -1.13739,-1.35327z" fill="#ff9600" stroke="none" stroke-width="0.5" stroke-linecap="butt"/><path d="M239.39314,102.33955c0.05961,-0.68777 0.66549,-1.19701 1.35327,-1.13739c0.68778,0.05961 1.197,0.6655 1.13739,1.35327c-0.05961,0.68777 -0.66549,1.19701 -1.35327,1.13739c-0.68778,-0.05961 -1.197,-0.6655 -1.13739,-1.35327z" fill="#ff9600" stroke="none" stroke-width="0.5" stroke-linecap="butt"/><path d="M254.80076,102.35954c0.05961,-0.68778 0.66549,-1.19701 1.35327,-1.13739c0.68778,0.05961 1.19701,0.66549 1.13739,1.35327c-0.05961,0.68778 -0.66549,1.19701 -1.35327,1.13739c-0.68778,-0.05961 -1.19701,-0.66549 -1.13739,-1.35327z" fill="#ff9600" stroke="none" stroke-width="0.5" stroke-linecap="butt"/><path d="M258.6455,105.69947c0.05961,-0.68778 0.66549,-1.19701 1.35327,-1.13739c0.68778,0.05961 1.19701,0.66549 1.13739,1.35327c-0.05961,0.68778 -0.66549,1.19701 -1.35327,1.13739c-0.68778,-0.05961 -1.19701,-0.66549 -1.13739,-1.35327z" fill="#ff9600" stroke="none" stroke-width="0.5" stroke-linecap="butt"/><path d="M227.0608,109.53914c0.08345,-0.96289 0.93168,-1.67581 1.89457,-1.59236c0.96289,0.08345 1.67581,0.93168 1.59236,1.89457c-0.08345,0.96289 -0.93168,1.67581 -1.89457,1.59236c-0.96289,-0.08345 -1.67581,-0.93168 -1.59236,-1.89457z" fill="#ffc72e" stroke="none" stroke-width="0.5" stroke-linecap="butt"/><path d="M232.36413,109.05919c0.08345,-0.96289 0.93168,-1.67581 1.89457,-1.59236c0.96289,0.08345 1.67581,0.93168 1.59236,1.89457c-0.08345,0.96289 -0.93168,1.67581 -1.89457,1.59236c-0.96289,-0.08345 -1.67581,-0.93168 -1.59236,-1.89457z" fill="#ffc72e" stroke="none" stroke-width="0.5" stroke-linecap="butt"/><path d="M243.33343,109.00503c0.96289,0.08345 1.67581,0.93168 1.59236,1.89457c-0.08345,0.96289 -0.93168,1.67581 -1.89457,1.59236c-0.22838,-0.0198 -0.44269,-0.08262 -0.63566,-0.17977c-0.34098,0.2801 -0.7875,0.43227 -1.26186,0.39115c-0.00855,-0.00075 -0.01707,-0.00154 -0.02558,-0.0024c-0.34832,0.31663 -0.8226,0.49265 -1.32854,0.4488c-0.96289,-0.08345 -1.67581,-0.93168 -1.59236,-1.89457c0.08345,-0.96289 0.93168,-1.67581 1.89457,-1.59236c0.00855,0.00075 0.01707,0.00154 0.02558,0.0024c0.34832,-0.31663 0.8226,-0.49265 1.32854,-0.4488c0.22838,0.0198 0.44269,0.08262 0.63566,0.17977c0.34098,-0.2801 0.7875,-0.43227 1.26186,-0.39115z" fill="#ffc72e" stroke="none" stroke-width="0.5" stroke-linecap="butt"/><path d="M251.20715,113.08207c0.0199,-0.2296 0.10067,-0.43929 0.22504,-0.61458c-0.59091,-0.07042 -1.08151,-0.43004 -1.34141,-0.9238c-0.35245,0.34908 -0.85027,0.54684 -1.38321,0.50066c-0.96289,-0.08345 -1.67581,-0.93168 -1.59236,-1.89457c0.08345,-0.96289 0.93168,-1.67581 1.89457,-1.59236c0.61629,0.05342 1.13018,0.42012 1.3984,0.92966c0.35245,-0.34908 0.85027,-0.54684 1.38321,-0.50066c0.96289,0.08345 1.67581,0.93168 1.59236,1.89457c-0.03858,0.44503 -0.24052,0.83667 -0.54164,1.12098c0.53952,0.17642 0.90684,0.70608 0.85571,1.29597c-0.05961,0.68778 -0.66549,1.19701 -1.35327,1.13739c-0.68778,-0.05961 -1.19701,-0.66549 -1.13739,-1.35327z" fill="#ffc72e" stroke="none" stroke-width="0.5" stroke-linecap="butt"/><path d="M254.18674,110.9506c0.08345,-0.96289 0.93168,-1.67581 1.89457,-1.59236c0.96289,0.08345 1.67581,0.93168 1.59236,1.89457c-0.08345,0.96289 -0.93168,1.67581 -1.89457,1.59236c-0.96289,-0.08345 -1.67581,-0.93168 -1.59236,-1.89457z" fill="#ffc72e" stroke="none" stroke-width="0.5" stroke-linecap="butt"/><path d="M266.54211,113.8739c-0.05961,0.68778 -0.66549,1.19701 -1.35327,1.13739c-0.60114,-0.05211 -1.0659,-0.52154 -1.13362,-1.09821c-0.12835,-0.08509 -0.24444,-0.1865 -0.34558,-0.30099c-0.32347,0.58914 -0.97329,0.96358 -1.68593,0.90182c-0.96289,-0.08345 -1.67581,-0.93168 -1.59236,-1.89457c0.08345,-0.96289 0.93168,-1.67581 1.89457,-1.59236c0.46596,0.04038 0.87337,0.25985 1.16034,0.58474c0.32347,-0.58914 0.97329,-0.96358 1.68593,-0.90182c0.56302,0.0488 1.04055,0.35906 1.32342,0.80082c0.32095,-0.59685 0.97519,-0.97743 1.6932,-0.9152c0.63265,0.05483 1.15739,0.43981 1.41923,0.97053c0.34926,-0.47776 0.9324,-0.76671 1.56505,-0.71188c0.71801,0.06224 1.29703,0.5497 1.51049,1.19287c0.35464,-0.38651 0.87845,-0.60998 1.44146,-0.56119c0.96289,0.08345 1.67581,0.93168 1.59236,1.89457c-0.08345,0.96289 -0.93168,1.67581 -1.89457,1.59236c-0.71801,-0.06224 -1.29703,-0.5497 -1.51049,-1.19287c-0.35464,0.38651 -0.87845,0.60998 -1.44146,0.56119c-0.63265,-0.05483 -1.15739,-0.43981 -1.41923,-0.97053c-0.34926,0.47776 -0.9324,0.76671 -1.56505,0.71188c-0.56302,-0.0488 -1.04055,-0.35906 -1.32342,-0.80082c-0.02197,0.04084 -0.0455,0.08068 -0.0705,0.11944c0.04542,0.1487 0.06368,0.30842 0.04943,0.47282z" fill="#ffc72e" stroke="none" stroke-width="0.5" stroke-linecap="butt"/><path d="M226.82701,114.40475c0.08345,-0.96289 0.93168,-1.67581 1.89457,-1.59236c0.96289,0.08345 1.67581,0.93168 1.59236,1.89457c-0.08345,0.96289 -0.93168,1.67581 -1.89457,1.59236c-0.96289,-0.08345 -1.67581,-0.93168 -1.59236,-1.89457z" fill="#f2bc49" stroke="none" stroke-width="0.5" stroke-linecap="butt"/><path d="M237.05023,114.28594c0.96289,0.08345 1.67581,0.93168 1.59236,1.89457c-0.08345,0.96289 -0.93168,1.67581 -1.89457,1.59236c-0.34301,-0.02973 -0.6543,-0.15651 -0.90918,-0.35097c-0.28452,0.14769 -0.61299,0.21903 -0.95601,0.1893c-0.81672,-0.07079 -1.45359,-0.69177 -1.57722,-1.46625c-0.34953,0.32463 -0.82972,0.50597 -1.3424,0.46153c-0.96289,-0.08345 -1.67581,-0.93168 -1.59236,-1.89457c0.08345,-0.96289 0.93168,-1.67581 1.89457,-1.59236c0.81672,0.07079 1.45359,0.69177 1.57722,1.46625c0.34953,-0.32463 0.82972,-0.50597 1.3424,-0.46153c0.34301,0.02973 0.6543,0.15651 0.90918,0.35097c0.28452,-0.14769 0.61299,-0.21903 0.95601,-0.1893z" fill="#f2bc49" stroke="none" stroke-width="0.5" stroke-linecap="butt"/><path d="M239.66442,115.89325c0.08345,-0.96289 0.93168,-1.67581 1.89457,-1.59236c0.96289,0.08345 1.67581,0.93168 1.59236,1.89457c-0.08345,0.96289 -0.93168,1.67581 -1.89457,1.59236c-0.96289,-0.08345 -1.67581,-0.93168 -1.59236,-1.89457z" fill="#f2bc49" stroke="none" stroke-width="0.5" stroke-linecap="butt"/><path d="M247.52756,114.8182c0.96289,0.08345 1.67581,0.93168 1.59236,1.89457c-0.08345,0.96289 -0.93168,1.67581 -1.89457,1.59236c-0.54307,-0.04707 -1.00663,-0.3374 -1.29265,-0.7544c-0.16783,0.03655 -0.34393,0.04879 -0.52404,0.03318c-0.96289,-0.08345 -1.67581,-0.93168 -1.59236,-1.89457c0.08345,-0.96289 0.93168,-1.67581 1.89457,-1.59236c0.54307,0.04707 1.00663,0.3374 1.29265,0.7544c0.16783,-0.03655 0.34393,-0.04879 0.52404,-0.03318z" fill="#f2bc49" stroke="none" stroke-width="0.5" stroke-linecap="butt"/><path d="M252.35518,119.27158c-0.42321,-0.03669 -0.77881,-0.28018 -0.97588,-0.62234c-0.07799,0.00373 -0.15714,0.0023 -0.23709,-0.00463c-0.96289,-0.08345 -1.67581,-0.93168 -1.59236,-1.89457c0.08345,-0.96289 0.93168,-1.67581 1.89457,-1.59236c0.46596,0.04038 0.87337,0.25985 1.16034,0.58474c0.32347,-0.58914 0.97329,-0.96358 1.68593,-0.90182c0.47672,0.04132 0.89218,0.27011 1.18005,0.60746c0.35472,-0.39048 0.88123,-0.61672 1.44737,-0.56766c0.56614,0.04907 1.04586,0.36251 1.32812,0.80821c0.34161,-0.28279 0.79023,-0.43668 1.26696,-0.39537c0.96289,0.08345 1.67581,0.93168 1.59236,1.89457c-0.08345,0.96289 -0.93168,1.67581 -1.89457,1.59236c-0.56614,-0.04907 -1.04586,-0.36251 -1.32812,-0.80821c-0.34161,0.28279 -0.79023,0.43668 -1.26696,0.39537c-0.47672,-0.04132 -0.89218,-0.27011 -1.18005,-0.60746c-0.35472,0.39048 -0.88123,0.61672 -1.44737,0.56766c-0.1032,-0.00894 -0.2035,-0.02668 -0.30029,-0.05239c-0.12416,0.61497 -0.69314,1.05187 -1.33301,0.99641z" fill="#f2bc49" stroke="none" stroke-width="0.5" stroke-linecap="butt"/><path d="M261.3975,116.64939c0.08345,-0.96289 0.93168,-1.67581 1.89457,-1.59236c0.96289,0.08345 1.67581,0.93168 1.59236,1.89457c-0.08345,0.96289 -0.93168,1.67581 -1.89457,1.59236c-0.96289,-0.08345 -1.67581,-0.93168 -1.59236,-1.89457z" fill="#f2bc49" stroke="none" stroke-width="0.5" stroke-linecap="butt"/><path d="M264.87666,117.7026c0.08345,-0.96289 0.93168,-1.67581 1.89457,-1.59236c0.96289,0.08345 1.67581,0.93168 1.59236,1.89457c-0.08345,0.96289 -0.93168,1.67581 -1.89457,1.59236c-0.96289,-0.08345 -1.67581,-0.93168 -1.59236,-1.89457z" fill="#f2bc49" stroke="none" stroke-width="0.5" stroke-linecap="butt"/><path d="M231.58842,112.56363c0.05961,-0.68778 0.66549,-1.19701 1.35327,-1.13739c0.68778,0.05961 1.19701,0.66549 1.13739,1.35327c-0.05961,0.68778 -0.66549,1.19701 -1.35327,1.13739c-0.68778,-0.05961 -1.19701,-0.66549 -1.13739,-1.35327z" fill="#ffc72e" stroke="none" stroke-width="0.5" stroke-linecap="butt"/><path d="M244.85433,111.99418c0.05961,-0.68778 0.66549,-1.19701 1.35327,-1.13739c0.68778,0.05961 1.19701,0.66549 1.13739,1.35327c-0.05961,0.68778 -0.66549,1.19701 -1.35327,1.13739c-0.68778,-0.05961 -1.19701,-0.66549 -1.13739,-1.35327z" fill="#ffc72e" stroke="none" stroke-width="0.5" stroke-linecap="butt"/><path d="M257.55997,114.16993c0.05961,-0.68778 0.66549,-1.19701 1.35327,-1.13739c0.68778,0.05961 1.19701,0.66549 1.13739,1.35327c-0.05961,0.68778 -0.66549,1.19701 -1.35327,1.13739c-0.68778,-0.05961 -1.19701,-0.66549 -1.13739,-1.35327z" fill="#ffc72e" stroke="none" stroke-width="0.5" stroke-linecap="butt"/><path d="M230.68183,120.54394c0.05961,-0.68778 0.66549,-1.19701 1.35327,-1.13739c0.68778,0.05961 1.19701,0.66549 1.13739,1.35327c-0.05961,0.68778 -0.66549,1.19701 -1.35327,1.13739c-0.68778,-0.05961 -1.19701,-0.66549 -1.13739,-1.35327z" fill="#f2bc49" stroke="none" stroke-width="0.5" stroke-linecap="butt"/><path d="M235.64819,121.51164c0.05961,-0.68778 0.66549,-1.19701 1.35327,-1.13739c0.68778,0.05961 1.19701,0.66549 1.13739,1.35327c-0.05961,0.68778 -0.66549,1.19701 -1.35327,1.13739c-0.68778,-0.05961 -1.19701,-0.66549 -1.13739,-1.35327z" fill="#f2bc49" stroke="none" stroke-width="0.5" stroke-linecap="butt"/><path d="M239.93271,121.6681c0.05961,-0.68778 0.66549,-1.19701 1.35327,-1.13739c0.68778,0.05961 1.19701,0.66549 1.13739,1.35327c-0.05961,0.68778 -0.66549,1.19701 -1.35327,1.13739c-0.68778,-0.05961 -1.19701,-0.66549 -1.13739,-1.35327z" fill="#f2bc49" stroke="none" stroke-width="0.5" stroke-linecap="butt"/><path d="M249.69765,120.58031c0.05961,-0.68778 0.66549,-1.19701 1.35327,-1.13739c0.68778,0.05961 1.19701,0.66549 1.13739,1.35327c-0.05961,0.68778 -0.66549,1.19701 -1.35327,1.13739c-0.68778,-0.05961 -1.19701,-0.66549 -1.13739,-1.35327z" fill="#f2bc49" stroke="none" stroke-width="0.5" stroke-linecap="butt"/><path d="M255.79025,119.71149c0.05961,-0.68778 0.66549,-1.19701 1.35327,-1.13739c0.68778,0.05961 1.19701,0.66549 1.13739,1.35327c-0.05961,0.68778 -0.66549,1.19701 -1.35327,1.13739c-0.68778,-0.05961 -1.19701,-0.66549 -1.13739,-1.35327z" fill="#f2bc49" stroke="none" stroke-width="0.5" stroke-linecap="butt"/><path d="M259.82021,121.5651c0.05961,-0.68778 0.66549,-1.19701 1.35327,-1.13739c0.68778,0.05961 1.19701,0.66549 1.13739,1.35327c-0.05961,0.68778 -0.66549,1.19701 -1.35327,1.13739c-0.68778,-0.05961 -1.19701,-0.66549 -1.13739,-1.35327z" fill="#f2bc49" stroke="none" stroke-width="0.5" stroke-linecap="butt"/><path d="M262.72751,121.49472c0.05961,-0.68778 0.66549,-1.19701 1.35327,-1.13739c0.68778,0.05961 1.19701,0.66549 1.13739,1.35327c-0.05961,0.68778 -0.66549,1.19701 -1.35327,1.13739c-0.68778,-0.05961 -1.19701,-0.66549 -1.13739,-1.35327z" fill="#f2bc49" stroke="none" stroke-width="0.5" stroke-linecap="butt"/><path d="M232.91052,124.17557c0.03576,-0.41267 0.3993,-0.7182 0.81196,-0.68244c0.41267,0.03576 0.7182,0.3993 0.68244,0.81196c-0.03576,0.41267 -0.3993,0.7182 -0.81196,0.68244c-0.41267,-0.03576 -0.7182,-0.3993 -0.68244,-0.81196z" fill="#f2bc49" stroke="none" stroke-width="0.5" stroke-linecap="butt"/><path d="M241.20651,126.39891c0.03576,-0.41267 0.3993,-0.7182 0.81196,-0.68244c0.41267,0.03576 0.7182,0.3993 0.68244,0.81196c-0.03576,0.41267 -0.3993,0.7182 -0.81196,0.68244c-0.41267,-0.03576 -0.7182,-0.3993 -0.68244,-0.81196z" fill="#f2bc49" stroke="none" stroke-width="0.5" stroke-linecap="butt"/><path d="M254.54282,128.73676c0.03576,-0.41267 0.3993,-0.7182 0.81196,-0.68244c0.41267,0.03576 0.7182,0.3993 0.68244,0.81196c-0.03576,0.41267 -0.3993,0.7182 -0.81196,0.68244c-0.41267,-0.03576 -0.7182,-0.3993 -0.68244,-0.81196z" fill="#f2bc49" stroke="none" stroke-width="0.5" stroke-linecap="butt"/><path d="M235.36995,114.39571c0.03576,-0.41267 0.3993,-0.7182 0.81196,-0.68244c0.41267,0.03576 0.7182,0.3993 0.68244,0.81196c-0.03576,0.41267 -0.3993,0.7182 -0.81196,0.68244c-0.41267,-0.03576 -0.7182,-0.3993 -0.68244,-0.81196z" fill="#ffc72e" stroke="none" stroke-width="0.5" stroke-linecap="butt"/><path d="M251.80339,115.71259c0.03576,-0.41267 0.3993,-0.7182 0.81196,-0.68244c0.41267,0.03576 0.7182,0.3993 0.68244,0.81196c-0.03576,0.41267 -0.3993,0.7182 -0.81196,0.68244c-0.41267,-0.03576 -0.7182,-0.3993 -0.68244,-0.81196z" fill="#ffc72e" stroke="none" stroke-width="0.5" stroke-linecap="butt"/><path d="M266.20551,115.67142c0.03576,-0.41267 0.3993,-0.7182 0.81196,-0.68244c0.41267,0.03576 0.7182,0.3993 0.68244,0.81196c-0.03576,0.41267 -0.3993,0.7182 -0.81196,0.68244c-0.41267,-0.03576 -0.7182,-0.3993 -0.68244,-0.81196z" fill="#ffc72e" stroke="none" stroke-width="0.5" stroke-linecap="butt"/><path d="M289.56717,134.62161c-0.73505,1.1973 -8.06174,-3.22905 -17.00627,-8.72033c-8.94453,-5.49127 -16.06466,-11.82366 -16.06466,-11.82366c0,0 8.22147,4.83277 17.16599,10.32406c8.94453,5.49127 16.63999,9.02264 15.90495,10.21994z" fill="#ff9600" stroke="#000000" stroke-width="0" stroke-linecap="butt"/></g><g><path d="M266.55743,144.41967c2.87556,-33.17747 33.85914,-57.58974 69.20376,-54.52635c35.34462,3.06339 61.666,32.44241 58.79043,65.61988c-2.87556,33.17747 -33.85914,57.58975 -69.20376,54.52636c-35.34461,-3.06339 -61.66599,-32.44242 -58.79043,-65.61989z" fill="url(#color-2)" stroke="#000000" stroke-width="0" stroke-linecap="butt"/><path d="M275.50031,118.33348c12.1805,-18.89402 35.11719,-30.61942 60.26088,-28.44016c25.25029,2.1885 45.89537,17.80772 54.57971,38.6477c0.02413,0.0579 -114.88281,-10.14204 -114.84061,-10.20753z" fill="#f2bc49" stroke="#000000" stroke-width="0" stroke-linecap="butt"/><path d="M278.43207,113.97543c12.88733,-14.9619 35.2556,-25.99526 57.32911,-24.0821c22.57849,1.95693 42.51238,16.545 52.46752,34.1097c0.11698,0.2064 -110.14955,-9.61786 -109.79663,-10.0276z" fill="#ffc72e" stroke="#000000" stroke-width="0" stroke-linecap="butt"/><path d="M286.7399,105.45577c12.81557,-11.51958 29.8501,-17.22405 49.02129,-15.56245c19.72114,1.70928 35.3553,9.91772 45.95369,24.10105c0.04494,0.06013 -95.09585,-8.42998 -94.97498,-8.53861z" fill="#ff9600" stroke="#000000" stroke-width="0" stroke-linecap="butt"/><path d="M279.81166,145.84507c1.11977,-12.91957 12.5009,-22.48521 25.42048,-21.36543c12.91957,1.11977 22.48521,12.50089 21.36543,25.42047c-1.11977,12.91957 -12.50089,22.48522 -25.42047,21.36544c-12.91957,-1.11977 -22.48522,-12.5009 -21.36544,-25.42048z" fill="url(#color-3)" stroke="#000000" stroke-width="0" stroke-linecap="butt"/><path d="M293.19856,146.08973c0.4146,-4.78357 4.62855,-8.32532 9.41213,-7.91071c4.78357,0.4146 8.32532,4.62856 7.91071,9.41214c-0.4146,4.78357 -4.62856,8.32533 -9.41213,7.91072c-4.78357,-0.4146 -8.32532,-4.62856 -7.91071,-9.41214z" fill="#000000" stroke="#000000" stroke-width="0" stroke-linecap="butt"/><path d="M355.23293,175.95076c-12.91957,-1.11977 -22.48521,-12.5009 -21.36543,-25.42048c1.11977,-12.91957 12.50089,-22.48521 25.42047,-21.36543c12.91957,1.11977 22.48522,12.50089 21.36544,25.42047c-1.11977,12.91957 -12.5009,22.48522 -25.42048,21.36544z" fill="url(#color-4)" stroke="#000000" stroke-width="0" stroke-linecap="butt"/><path d="M364.2242,153.69046c-0.67512,4.2306 -4.24453,6.77409 -8.5771,6.34426c-4.33257,-0.42984 -7.0638,-3.72725 -6.40892,-7.83103c0.65489,-4.1038 4.18659,-8.09903 8.87679,-7.63372c4.69021,0.46533 6.78434,4.88991 6.10922,9.1205z" fill="#000000" stroke="#000000" stroke-width="0" stroke-linecap="butt"/><path d="M306.89066,76.99673c0,0 13.7349,-38.38586 30.29465,-21.41958c1.25989,1.29084 2.32735,2.61001 3.22432,3.94577c10.89264,16.221 -3.35305,34.88544 -3.35305,34.88544" fill="none" stroke="#ff9600" stroke-width="6" stroke-linecap="round"/><path d="M318.66044,90.97465c0.17688,6.1037 -4.93702,11.20409 -11.42219,11.39202c-6.48518,0.18794 -11.88586,-4.60774 -12.06273,-10.71144c-0.17688,-6.1037 4.72831,-15.0676 11.2135,-15.25554c6.48518,-0.18794 12.09455,8.47127 12.27143,14.57498z" fill="#ffffff" stroke="#000000" stroke-width="0" stroke-linecap="butt"/><path d="M272.23137,154.11684c4.08704,-1.9125 8.48239,1.25236 12.54243,2.2402c4.53224,1.10272 10.28155,2.559 14.96762,2.12218c1.95291,-0.18204 3.49175,-1.14702 5.52875,-1.01904c5.45691,-0.71378 12.81175,-0.0576 18.04452,1.51989c1.89626,0.57166 3.62676,1.76847 5.54055,2.32091c5.81475,1.6785 13.20748,0.44428 19.08666,-0.32068c9.5005,-0.38041 20.00737,-0.45287 29.00452,2.78573c2.31691,0.834 4.53968,1.81093 6.74399,2.91366c0.98351,0.49201 2.6073,0.37194 2.98596,1.40441c0.68794,1.87579 -4.09046,4.05917 -4.99921,4.73154c-3.92902,1.9531 -7.84432,4.01369 -11.83458,5.82962c-1.5084,0.68646 -3.86143,2.19719 -5.58892,2.40793c-7.94386,0.96906 -16.11276,-1.86058 -23.71714,-3.81637c-11.67089,-2.98418 -24.06928,-1.89796 -35.91725,-1.0301c-2.11718,0.15507 -3.97923,0.95742 -6.12069,0.95721c-5.65841,-0.49616 -9.25854,-3.17044 -14.32316,-5.61613c-3.70273,-1.78805 -7.4979,-3.61496 -10.60982,-6.35767c-2.38315,-2.1004 -5.08889,-4.33087 -5.17554,-7.74017c0.44973,-1.52124 2.13111,-2.34106 3.61637,-3.25853c0.1375,-0.03408 0.22495,-0.07455 0.22495,-0.07455z" fill-opacity="0.41176" fill="#6ee8ff" stroke="none" stroke-width="0.5" stroke-linecap="butt"/><path d="M393.11753,130.84836l-3.56024,41.07705l-26.05686,12.5387l-35.65057,-7.48278l-35.08915,2.04524l-24.17954,-17.12399l3.60001,-41.53601z" fill-opacity="0.08235" fill="#00ffff" stroke="#f1da3e" stroke-width="7.5" stroke-linecap="round"/><path d="M286.35075,106.43153c0.08345,-0.96289 0.93168,-1.67581 1.89457,-1.59236c0.96289,0.08345 1.67581,0.93168 1.59236,1.89457c-0.08345,0.96289 -0.93168,1.67581 -1.89457,1.59236c-0.96289,-0.08345 -1.67581,-0.93168 -1.59236,-1.89457z" fill="#ff9600" stroke="none" stroke-width="0.5" stroke-linecap="butt"/><path d="M296.27132,105.37653c0.96289,0.08345 1.67581,0.93168 1.59236,1.89457c-0.08345,0.96289 -0.93168,1.67581 -1.89457,1.59236c-0.76485,-0.06629 -1.37197,-0.6151 -1.54753,-1.32064c-0.29433,0.6648 -0.98683,1.10098 -1.75167,1.0347c-0.96289,-0.08345 -1.67581,-0.93168 -1.59236,-1.89457c0.08345,-0.96289 0.93168,-1.67581 1.89457,-1.59236c0.76485,0.06629 1.37197,0.6151 1.54753,1.32064c0.29433,-0.6648 0.98683,-1.10098 1.75167,-1.0347z" fill="#ff9600" stroke="none" stroke-width="0.5" stroke-linecap="butt"/><path d="M301.37107,106.62536c0.08345,-0.96289 0.93168,-1.67581 1.89457,-1.59236c0.96289,0.08345 1.67581,0.93168 1.59236,1.89457c-0.08345,0.96289 -0.93168,1.67581 -1.89457,1.59236c-0.96289,-0.08345 -1.67581,-0.93168 -1.59236,-1.89457z" fill="#ff9600" stroke="none" stroke-width="0.5" stroke-linecap="butt"/><path d="M308.45442,107.08102c0.08345,-0.96289 0.93168,-1.67581 1.89457,-1.59236c0.96289,0.08345 1.67581,0.93168 1.59236,1.89457c-0.08345,0.96289 -0.93168,1.67581 -1.89457,1.59236c-0.96289,-0.08345 -1.67581,-0.93168 -1.59236,-1.89457z" fill="#ff9600" stroke="none" stroke-width="0.5" stroke-linecap="butt"/><path d="M315.32619,108.15147c0.08345,-0.96289 0.93168,-1.67581 1.89457,-1.59236c0.96289,0.08345 1.67581,0.93168 1.59236,1.89457c-0.08345,0.96289 -0.93168,1.67581 -1.89457,1.59236c-0.96289,-0.08345 -1.67581,-0.93168 -1.59236,-1.89457z" fill="#ff9600" stroke="none" stroke-width="0.5" stroke-linecap="butt"/><path d="M322.2252,108.90769c0.08345,-0.96289 0.93168,-1.67581 1.89457,-1.59236c0.96289,0.08345 1.67581,0.93168 1.59236,1.89457c-0.08345,0.96289 -0.93168,1.67581 -1.89457,1.59236c-0.96289,-0.08345 -1.67581,-0.93168 -1.59236,-1.89457z" fill="#ff9600" stroke="none" stroke-width="0.5" stroke-linecap="butt"/><path d="M325.87947,108.74956c0.08345,-0.96289 0.93168,-1.67581 1.89457,-1.59236c0.96289,0.08345 1.67581,0.93168 1.59236,1.89457c-0.08345,0.96289 -0.93168,1.67581 -1.89457,1.59236c-0.96289,-0.08345 -1.67581,-0.93168 -1.59236,-1.89457z" fill="#ff9600" stroke="none" stroke-width="0.5" stroke-linecap="butt"/><path d="M330.76334,109.01458c0.08345,-0.96289 0.93168,-1.67581 1.89457,-1.59236c0.96289,0.08345 1.67581,0.93168 1.59236,1.89457c-0.08345,0.96289 -0.93168,1.67581 -1.89457,1.59236c-0.96289,-0.08345 -1.67581,-0.93168 -1.59236,-1.89457z" fill="#ff9600" stroke="none" stroke-width="0.5" stroke-linecap="butt"/><path d="M337.83308,109.62733c0.08345,-0.96289 0.93168,-1.67581 1.89457,-1.59236c0.96289,0.08345 1.67581,0.93168 1.59236,1.89457c-0.08345,0.96289 -0.93168,1.67581 -1.89457,1.59236c-0.96289,-0.08345 -1.67581,-0.93168 -1.59236,-1.89457z" fill="#ff9600" stroke="none" stroke-width="0.5" stroke-linecap="butt"/><path d="M342.37552,110.17932c0.08345,-0.96289 0.93168,-1.67581 1.89457,-1.59236c0.96289,0.08345 1.67581,0.93168 1.59236,1.89457c-0.08345,0.96289 -0.93168,1.67581 -1.89457,1.59236c-0.96289,-0.08345 -1.67581,-0.93168 -1.59236,-1.89457z" fill="#ff9600" stroke="none" stroke-width="0.5" stroke-linecap="butt"/><path d="M345.76375,111.26441c0.08345,-0.96289 0.93168,-1.67581 1.89457,-1.59236c0.96289,0.08345 1.67581,0.93168 1.59236,1.89457c-0.08345,0.96289 -0.93168,1.67581 -1.89457,1.59236c-0.96289,-0.08345 -1.67581,-0.93168 -1.59236,-1.89457z" fill="#ff9600" stroke="none" stroke-width="0.5" stroke-linecap="butt"/><path d="M359.40037,111.16462c0.96289,0.08345 1.67581,0.93168 1.59236,1.89457c-0.08345,0.96289 -0.93168,1.67581 -1.89457,1.59236c-0.58194,-0.05045 -1.07256,-0.3802 -1.35126,-0.84579c-0.35467,0.41068 -0.89471,0.65113 -1.47663,0.60068c-0.4006,-0.03472 -0.75792,-0.20182 -1.03264,-0.45447c-0.25606,0.1097 -0.54208,0.15969 -0.839,0.13396c-0.96289,-0.08345 -1.67581,-0.93168 -1.59236,-1.89457c0.08345,-0.96289 0.93168,-1.67581 1.89457,-1.59236c0.4006,0.03472 0.75792,0.20181 1.03264,0.45447c0.25606,-0.1097 0.54208,-0.15968 0.839,-0.13395c0.58194,0.05045 1.07255,0.38019 1.35125,0.84578c0.35467,-0.41068 0.89471,-0.65112 1.47663,-0.60067z" fill="#ff9600" stroke="none" stroke-width="0.5" stroke-linecap="butt"/><path d="M369.16811,111.69464c0.96289,0.08345 1.67581,0.93168 1.59236,1.89457c-0.08345,0.96289 -0.93168,1.67581 -1.89457,1.59236c-0.22155,-0.0192 -0.42986,-0.0789 -0.61831,-0.17116c-0.2015,0.05846 -0.41698,0.08143 -0.63852,0.06223c-0.96289,-0.08345 -1.67581,-0.93168 -1.59236,-1.89457c0.08345,-0.96289 0.93168,-1.67581 1.89457,-1.59236c0.22155,0.0192 0.42986,0.0789 0.6183,0.17116c0.2015,-0.05846 0.41698,-0.08143 0.63853,-0.06223z" fill="#ff9600" stroke="none" stroke-width="0.5" stroke-linecap="butt"/><path d="M372.45801,113.73634c0.08345,-0.96289 0.93168,-1.67581 1.89457,-1.59236c0.96289,0.08345 1.67581,0.93168 1.59236,1.89457c-0.08345,0.96289 -0.93168,1.67581 -1.89457,1.59236c-0.96289,-0.08345 -1.67581,-0.93168 -1.59236,-1.89457z" fill="#ff9600" stroke="none" stroke-width="0.5" stroke-linecap="butt"/><path d="M375.95517,113.56458c0.08345,-0.96289 0.93168,-1.67581 1.89457,-1.59236c0.96289,0.08345 1.67581,0.93168 1.59236,1.89457c-0.08345,0.96289 -0.93168,1.67581 -1.89457,1.59236c-0.96289,-0.08345 -1.67581,-0.93168 -1.59236,-1.89457z" fill="#ff9600" stroke="none" stroke-width="0.5" stroke-linecap="butt"/><path d="M384.30665,124.11114c0.08345,-0.96289 0.93168,-1.67581 1.89457,-1.59236c0.96289,0.08345 1.67581,0.93168 1.59236,1.89457c-0.08345,0.96289 -0.93168,1.67581 -1.89457,1.59236c-0.96289,-0.08345 -1.67581,-0.93168 -1.59236,-1.89457z" fill="#ffc72e" stroke="none" stroke-width="0.5" stroke-linecap="butt"/><path d="M373.96493,122.89823c0.08345,-0.96289 0.93168,-1.67581 1.89457,-1.59236c0.75971,0.06584 1.36384,0.60779 1.54395,1.3065c0.34857,-0.48258 0.93471,-0.77509 1.57091,-0.71995c0.96289,0.08345 1.67581,0.93168 1.59236,1.89457c-0.08345,0.96289 -0.93168,1.67581 -1.89457,1.59236c-0.75971,-0.06584 -1.36384,-0.60779 -1.54395,-1.3065c-0.34857,0.48258 -0.93471,0.77509 -1.57091,0.71995c-0.96289,-0.08345 -1.67581,-0.93168 -1.59236,-1.89457z" fill="#ffc72e" stroke="none" stroke-width="0.5" stroke-linecap="butt"/><path d="M365.52211,121.69161c0.08345,-0.96289 0.93168,-1.67581 1.89457,-1.59236c0.08001,0.00694 0.15829,0.01913 0.23452,0.03626c0.30496,-0.18278 0.66827,-0.27459 1.04955,-0.24155c0.96289,0.08345 1.67581,0.93168 1.59236,1.89457c-0.08345,0.96289 -0.93168,1.67581 -1.89457,1.59236c-0.08001,-0.00694 -0.15829,-0.01914 -0.23452,-0.03626c-0.30496,0.18278 -0.66827,0.2746 -1.04955,0.24156c-0.96289,-0.08345 -1.67581,-0.93168 -1.59236,-1.89457z" fill="#ffc72e" stroke="none" stroke-width="0.5" stroke-linecap="butt"/><path d="M359.90717,120.7301c0.08345,-0.96289 0.93168,-1.67581 1.89457,-1.59236c0.96289,0.08345 1.67581,0.93168 1.59236,1.89457c-0.08345,0.96289 -0.93168,1.67581 -1.89457,1.59236c-0.96289,-0.08345 -1.67581,-0.93168 -1.59236,-1.89457z" fill="#ffc72e" stroke="none" stroke-width="0.5" stroke-linecap="butt"/><path d="M350.62434,120.08382c0.08345,-0.96289 0.93168,-1.67581 1.89457,-1.59236c0.96289,0.08345 1.67581,0.93168 1.59236,1.89457c-0.08345,0.96289 -0.93168,1.67581 -1.89457,1.59236c-0.96289,-0.08345 -1.67581,-0.93168 -1.59236,-1.89457z" fill="#ffc72e" stroke="none" stroke-width="0.5" stroke-linecap="butt"/><path d="M344.19665,119.36844c0.08345,-0.96289 0.93168,-1.67581 1.89457,-1.59236c0.96289,0.08345 1.67581,0.93168 1.59236,1.89457c-0.08345,0.96289 -0.93168,1.67581 -1.89457,1.59236c-0.96289,-0.08345 -1.67581,-0.93168 -1.59236,-1.89457z" fill="#ffc72e" stroke="none" stroke-width="0.5" stroke-linecap="butt"/><path d="M335.48778,119.40505c0.08345,-0.96289 0.93168,-1.67581 1.89457,-1.59236c0.96289,0.08345 1.67581,0.93168 1.59236,1.89457c-0.08345,0.96289 -0.93168,1.67581 -1.89457,1.59236c-0.96289,-0.08345 -1.67581,-0.93168 -1.59236,-1.89457z" fill="#ffc72e" stroke="none" stroke-width="0.5" stroke-linecap="butt"/><path d="M317.68672,116.59591c0.08345,-0.96289 0.93168,-1.67581 1.89457,-1.59236c0.96289,0.08345 1.67581,0.93168 1.59236,1.89457c-0.08345,0.96289 -0.93168,1.67581 -1.89457,1.59236c-0.96289,-0.08345 -1.67581,-0.93168 -1.59236,-1.89457z" fill="#ffc72e" stroke="none" stroke-width="0.5" stroke-linecap="butt"/><path d="M299.05299,116.08888c0.08345,-0.96289 0.93168,-1.67581 1.89457,-1.59236c0.96289,0.08345 1.67581,0.93168 1.59236,1.89457c-0.08345,0.96289 -0.93168,1.67581 -1.89457,1.59236c-0.96289,-0.08345 -1.67581,-0.93168 -1.59236,-1.89457z" fill="#ffc72e" stroke="none" stroke-width="0.5" stroke-linecap="butt"/><path d="M291.5528,114.96396c0.08345,-0.96289 0.93168,-1.67581 1.89457,-1.59236c0.96289,0.08345 1.67581,0.93168 1.59236,1.89457c-0.08345,0.96289 -0.93168,1.67581 -1.89457,1.59236c-0.96289,-0.08345 -1.67581,-0.93168 -1.59236,-1.89457z" fill="#ffc72e" stroke="none" stroke-width="0.5" stroke-linecap="butt"/><path d="M281.34097,114.07888c0.08345,-0.96289 0.93168,-1.67581 1.89457,-1.59236c0.96289,0.08345 1.67581,0.93168 1.59236,1.89457c-0.08345,0.96289 -0.93168,1.67581 -1.89457,1.59236c-0.96289,-0.08345 -1.67581,-0.93168 -1.59236,-1.89457z" fill="#ffc72e" stroke="none" stroke-width="0.5" stroke-linecap="butt"/><path d="M306.42332,116.88597c0.08345,-0.96289 0.93168,-1.67581 1.89457,-1.59236c0.96289,0.08345 1.67581,0.93168 1.59236,1.89457c-0.08345,0.96289 -0.93168,1.67581 -1.89457,1.59236c-0.96289,-0.08345 -1.67581,-0.93168 -1.59236,-1.89457z" fill="#ffc72e" stroke="none" stroke-width="0.5" stroke-linecap="butt"/><path d="M312.18176,118.01821c0.08345,-0.96289 0.93168,-1.67581 1.89457,-1.59236c0.96289,0.08345 1.67581,0.93168 1.59236,1.89457c-0.08345,0.96289 -0.93168,1.67581 -1.89457,1.59236c-0.96289,-0.08345 -1.67581,-0.93168 -1.59236,-1.89457z" fill="#ffc72e" stroke="none" stroke-width="0.5" stroke-linecap="butt"/><path d="M321.99036,118.07692c0.08345,-0.96289 0.93168,-1.67581 1.89457,-1.59236c0.96289,0.08345 1.67581,0.93168 1.59236,1.89457c-0.08345,0.96289 -0.93168,1.67581 -1.89457,1.59236c-0.96289,-0.08345 -1.67581,-0.93168 -1.59236,-1.89457z" fill="#ffc72e" stroke="none" stroke-width="0.5" stroke-linecap="butt"/><path d="M330.65836,118.51162c0.08345,-0.96289 0.93168,-1.67581 1.89457,-1.59236c0.96289,0.08345 1.67581,0.93168 1.59236,1.89457c-0.08345,0.96289 -0.93168,1.67581 -1.89457,1.59236c-0.96289,-0.08345 -1.67581,-0.93168 -1.59236,-1.89457z" fill="#ffc72e" stroke="none" stroke-width="0.5" stroke-linecap="butt"/><path d="M285.62463,109.72908c0.05961,-0.68778 0.66549,-1.19701 1.35327,-1.13739c0.68778,0.05961 1.19701,0.66549 1.13739,1.35327c-0.05961,0.68778 -0.66549,1.19701 -1.35327,1.13739c-0.68778,-0.05961 -1.19701,-0.66549 -1.13739,-1.35327z" fill="#ff9600" stroke="none" stroke-width="0.5" stroke-linecap="butt"/><path d="M295.67175,108.7207c0.05961,-0.68778 0.66549,-1.19701 1.35327,-1.13739c0.68778,0.05961 1.19701,0.66549 1.13739,1.35327c-0.05961,0.68778 -0.66549,1.19701 -1.35327,1.13739c-0.68778,-0.05961 -1.19701,-0.66549 -1.13739,-1.35327z" fill="#ff9600" stroke="none" stroke-width="0.5" stroke-linecap="butt"/><path d="M298.49316,106.52228c0.05961,-0.68778 0.66549,-1.19701 1.35327,-1.13739c0.68778,0.05961 1.19701,0.66549 1.13739,1.35327c-0.05961,0.68778 -0.66549,1.19701 -1.35327,1.13739c-0.68778,-0.05961 -1.19701,-0.66549 -1.13739,-1.35327z" fill="#ff9600" stroke="none" stroke-width="0.5" stroke-linecap="butt"/><path d="M315.49114,109.87472c0.05961,-0.68778 0.66549,-1.19701 1.35327,-1.13739c0.68778,0.05961 1.19701,0.66549 1.13739,1.35327c-0.05961,0.68778 -0.66549,1.19701 -1.35327,1.13739c-0.68778,-0.05961 -1.19701,-0.66549 -1.13739,-1.35327z" fill="#ff9600" stroke="none" stroke-width="0.5" stroke-linecap="butt"/><path d="M320.17895,112.16023c0.05961,-0.68778 0.66549,-1.19701 1.35327,-1.13739c0.68778,0.05961 1.19701,0.66549 1.13739,1.35327c-0.05961,0.68778 -0.66549,1.19701 -1.35327,1.13739c-0.68778,-0.05961 -1.19701,-0.66549 -1.13739,-1.35327z" fill="#ff9600" stroke="none" stroke-width="0.5" stroke-linecap="butt"/><path d="M327.57502,113.55294c0.05961,-0.68778 0.66549,-1.19701 1.35327,-1.13739c0.68778,0.05961 1.19701,0.66549 1.13739,1.35327c-0.05961,0.68778 -0.66549,1.19701 -1.35327,1.13739c-0.68778,-0.05961 -1.19701,-0.66549 -1.13739,-1.35327z" fill="#ff9600" stroke="none" stroke-width="0.5" stroke-linecap="butt"/><path d="M340.29056,114.27918c0.05961,-0.68778 0.66549,-1.19701 1.35327,-1.13739c0.68778,0.05961 1.19701,0.66549 1.13739,1.35327c-0.05961,0.68778 -0.66549,1.19701 -1.35327,1.13739c-0.68778,-0.05961 -1.19701,-0.66549 -1.13739,-1.35327z" fill="#ff9600" stroke="none" stroke-width="0.5" stroke-linecap="butt"/><path d="M345.06667,113.3777c0.05961,-0.68778 0.66549,-1.19701 1.35327,-1.13739c0.68778,0.05961 1.19701,0.66549 1.13739,1.35327c-0.05961,0.68778 -0.66549,1.19701 -1.35327,1.13739c-0.68778,-0.05961 -1.19701,-0.66549 -1.13739,-1.35327z" fill="#ff9600" stroke="none" stroke-width="0.5" stroke-linecap="butt"/><path d="M353.8405,111.88311c0.05961,-0.68778 0.66549,-1.19701 1.35327,-1.13739c0.68778,0.05961 1.19701,0.66549 1.13739,1.35327c-0.05961,0.68778 -0.66549,1.19701 -1.35327,1.13739c-0.68778,-0.05961 -1.19701,-0.66549 -1.13739,-1.35327z" fill="#ff9600" stroke="none" stroke-width="0.5" stroke-linecap="butt"/><path d="M365.1211,113.98835c0.05961,-0.68778 0.66549,-1.19701 1.35327,-1.13739c0.68778,0.05961 1.19701,0.66549 1.13739,1.35327c-0.05961,0.68778 -0.66549,1.19701 -1.35327,1.13739c-0.68778,-0.05961 -1.19701,-0.66549 -1.13739,-1.35327z" fill="#ff9600" stroke="none" stroke-width="0.5" stroke-linecap="butt"/><path d="M375.89933,117.55338c0.05961,-0.68778 0.66549,-1.19701 1.35327,-1.13739c0.68778,0.05961 1.19701,0.66549 1.13739,1.35327c-0.05961,0.68778 -0.66549,1.19701 -1.35327,1.13739c-0.68778,-0.05961 -1.19701,-0.66549 -1.13739,-1.35327z" fill="#ff9600" stroke="none" stroke-width="0.5" stroke-linecap="butt"/><path d="M290.12917,111.24701c0.03576,-0.41267 0.3993,-0.7182 0.81196,-0.68244c0.41267,0.03576 0.7182,0.3993 0.68244,0.81196c-0.03576,0.41267 -0.3993,0.7182 -0.81196,0.68244c-0.41267,-0.03576 -0.7182,-0.3993 -0.68244,-0.81196z" fill="#ff9600" stroke="none" stroke-width="0.5" stroke-linecap="butt"/><path d="M298.69282,112.17717c0.03576,-0.41267 0.3993,-0.7182 0.81196,-0.68244c0.41267,0.03576 0.7182,0.3993 0.68244,0.81196c-0.03576,0.41267 -0.3993,0.7182 -0.81196,0.68244c-0.41267,-0.03576 -0.7182,-0.3993 -0.68244,-0.81196z" fill="#ff9600" stroke="none" stroke-width="0.5" stroke-linecap="butt"/><path d="M309.49776,112.36197c0.03576,-0.41267 0.3993,-0.7182 0.81196,-0.68244c0.41267,0.03576 0.7182,0.3993 0.68244,0.81196c-0.03576,0.41267 -0.3993,0.7182 -0.81196,0.68244c-0.41267,-0.03576 -0.7182,-0.3993 -0.68244,-0.81196z" fill="#ff9600" stroke="none" stroke-width="0.5" stroke-linecap="butt"/><path d="M322.48189,116.49404c0.03576,-0.41267 0.3993,-0.7182 0.81196,-0.68244c0.41267,0.03576 0.7182,0.3993 0.68244,0.81196c-0.03576,0.41267 -0.3993,0.7182 -0.81196,0.68244c-0.41267,-0.03576 -0.7182,-0.3993 -0.68244,-0.81196z" fill="#ff9600" stroke="none" stroke-width="0.5" stroke-linecap="butt"/><path d="M333.54242,114.6339c0.03576,-0.41267 0.3993,-0.7182 0.81196,-0.68244c0.41267,0.03576 0.7182,0.3993 0.68244,0.81196c-0.03576,0.41267 -0.3993,0.7182 -0.81196,0.68244c-0.41267,-0.03576 -0.7182,-0.3993 -0.68244,-0.81196z" fill="#ff9600" stroke="none" stroke-width="0.5" stroke-linecap="butt"/><path d="M346.59121,118.01989c0.03576,-0.41267 0.3993,-0.7182 0.81196,-0.68244c0.41267,0.03576 0.7182,0.3993 0.68244,0.81196c-0.03576,0.41267 -0.3993,0.7182 -0.81196,0.68244c-0.41267,-0.03576 -0.7182,-0.3993 -0.68244,-0.81196z" fill="#ff9600" stroke="none" stroke-width="0.5" stroke-linecap="butt"/><path d="M359.07922,117.03514c0.03576,-0.41267 0.3993,-0.7182 0.81196,-0.68244c0.41267,0.03576 0.7182,0.3993 0.68244,0.81196c-0.03576,0.41267 -0.3993,0.7182 -0.81196,0.68244c-0.41267,-0.03576 -0.7182,-0.3993 -0.68244,-0.81196z" fill="#ff9600" stroke="none" stroke-width="0.5" stroke-linecap="butt"/><path d="M380.4318,120.01333c0.03576,-0.41267 0.3993,-0.7182 0.81196,-0.68244c0.41267,0.03576 0.7182,0.3993 0.68244,0.81196c-0.03576,0.41267 -0.3993,0.7182 -0.81196,0.68244c-0.41267,-0.03576 -0.7182,-0.3993 -0.68244,-0.81196z" fill="#ff9600" stroke="none" stroke-width="0.5" stroke-linecap="butt"/><path d="M369.15988,119.97595c0.03576,-0.41267 0.3993,-0.7182 0.81196,-0.68244c0.41267,0.03576 0.7182,0.3993 0.68244,0.81196c-0.03576,0.41267 -0.3993,0.7182 -0.81196,0.68244c-0.41267,-0.03576 -0.7182,-0.3993 -0.68244,-0.81196z" fill="#ff9600" stroke="none" stroke-width="0.5" stroke-linecap="butt"/></g><g stroke="none" stroke-width="0.5" stroke-linecap="butt"><g><path d="M340.88574,196.04817l2.85844,0.54017c3.4804,1.78111 6.56694,3.21888 7.95154,7.21018c1.29976,3.74671 -0.0737,8.59149 -1.06278,12.26061c-1.6588,6.15361 -5.08581,15.04178 -12.11861,16.73397c-2.72467,0.6556 -4.31018,0.14733 -6.90538,-0.29316c-9.95628,-3.15141 -19.47058,-9.09845 -23.31421,-19.34259c-3.26135,-8.69225 5.22768,-16.21343 13.16009,-17.23416c-1.86299,-4.05417 -2.58972,-8.79725 2.0883,-11.25213c1.23478,-0.64797 2.74349,-0.93248 4.12135,-0.71788c1.45709,0.22695 2.70287,1.20218 3.95803,1.97626c4.19714,2.58843 7.1776,5.91448 9.11055,10.10582c0.09655,0.00499 0.15268,0.0129 0.15268,0.0129z" fill="#f3ca58"/><path d="M310.04066,197.13346c2.62525,-3.79627 6.13352,-6.55993 10.71341,-8.38764c1.36963,-0.54658 2.76462,-1.29294 4.23902,-1.26581c1.39424,0.02565 2.83149,0.5655 3.93638,1.41625c4.18589,3.22312 2.65394,7.77044 0.12121,11.44364c7.63851,2.3703 14.70692,11.23987 9.99868,19.24138c-5.54883,9.43007 -15.94446,13.65148 -26.29447,15.04289c-2.63227,-0.01259 -4.28161,0.21531 -6.85284,-0.8993c-6.63677,-2.87696 -8.48347,-12.22221 -9.05879,-18.56946c-0.34304,-3.78459 -0.86247,-8.79342 1.06254,-12.26063c2.05065,-3.69354 5.33854,-4.57884 9.07349,-5.73458l2.90875,-0.04032c0,0 0.05667,0.00187 0.15263,0.01356z" fill="#ff9600"/><path d="M309.82183,197.49034c2.62525,-3.79627 6.13352,-6.55993 10.71341,-8.38764c1.36963,-0.54658 2.76462,-1.29294 4.23902,-1.26581c1.39424,0.02565 2.83149,0.5655 3.93638,1.41625c4.18589,3.22312 2.65393,7.77044 0.1212,11.44363c7.63851,2.3703 14.70692,11.23988 9.99868,19.24139c-5.54883,9.43007 -15.94446,13.65148 -26.29447,15.04289c-2.63227,-0.01259 -4.28161,0.21531 -6.85284,-0.8993c-6.63677,-2.87696 -8.48347,-12.22221 -9.05879,-18.56946c-0.34304,-3.78459 -0.86247,-8.79342 1.06253,-12.26064c2.05065,-3.69354 5.33854,-4.57884 9.07349,-5.73458l2.90874,-0.04032c0,0 0.05667,0.00187 0.15263,0.01356z" fill="#f3ca58"/></g><path d="M303.45372,216.62783c0.04064,0.05125 0.07941,0.10489 0.11636,0.16081c4.54971,1.10665 3.69667,8.51145 2.68544,11.38806c-0.92139,2.6211 -2.26437,4.98254 -3.94379,7.01619c-0.59066,0.9586 -1.21689,1.90043 -1.83389,2.83649c-2.29918,3.48818 -4.6785,7.34284 -9.12474,8.48557c-1.48136,0.38072 -3.06549,-0.06414 -4.58019,-0.27633c-1.49385,-0.20928 -3.23648,-0.04511 -4.41701,-0.98411c-0.25578,-0.20345 -0.48209,-0.42581 -0.68122,-0.66443c-0.16,-0.10023 -0.31815,-0.20952 -0.47428,-0.32843c-2.20032,-1.6758 -3.25357,-5.20987 -2.33912,-7.89934c0.15384,-1.03486 0.61002,-2.14316 0.86324,-3.10757c0.24559,-0.93526 2.16645,-4.03837 3.26563,-5.53064c2.15003,-5.317 7.11609,-8.31515 12.45062,-10.53172l-0.05753,-0.09236l2.49688,-1.55516c0.47403,-0.54688 0.96008,-1.08323 1.45767,-1.60849c0,0 1.72447,-1.81002 3.53449,-0.08555c1.08076,1.02967 0.90139,2.08985 0.58139,2.777z" fill="#f3ca58"/><path d="M342.9018,217.13236c2.07973,-1.38734 3.46708,0.69239 3.46708,0.69239c0.3998,0.60303 0.78632,1.21501 1.15919,1.8353l2.19207,1.96155l-0.07256,0.08108c4.87364,3.10134 9.24978,6.90919 10.45295,12.51682c0.82605,1.65914 2.18437,5.04646 2.26538,6.01002c0.08352,0.99357 0.34223,2.16383 0.31572,3.20973c0.43807,2.80672 -1.2075,6.10686 -3.66333,7.37911c-0.17425,0.09027 -0.34886,0.17073 -0.52372,0.24194c-0.23721,0.20079 -0.49839,0.38089 -0.78538,0.53732c-1.32448,0.7219 -3.01287,0.26035 -4.52046,0.20949c-1.52863,-0.05158 -3.16567,0.11411 -4.55945,-0.51581c-4.18333,-1.89066 -5.86396,-6.09721 -7.52871,-9.92895c-0.44674,-1.02827 -0.9016,-2.06381 -1.31852,-3.10973c-1.30449,-2.29228 -2.22116,-4.84957 -2.67786,-7.5901c-0.50121,-3.0077 -0.06753,-10.44882 4.60474,-10.7562c0.04602,-0.04872 0.09345,-0.0949 0.1423,-0.13839c-0.19698,-0.73195 -0.19128,-1.80719 1.05054,-2.63555z" fill="#f3ca58"/></g></g></g></g></svg>